o Box
v 1.6731056440908298 1.9453108923003462 -1.0820974876128264
v 0.7331113708925077 1.9453108923003462 -1.0788162752825172
v 1.6731056440908298 1.0053108923003466 -1.0820974876128264
v 0.7331113708925077 1.0053108923003466 -1.0788162752825172
v 0.7506344409969252 1.9453108923003462 3.941153141159589
v 1.6906287141952474 1.9453108923003462 3.9378719288292796
v 0.7506344409969252 1.0053108923003466 3.941153141159589
v 1.6906287141952474 1.0053108923003466 3.9378719288292796
v 0.7506344409969252 1.9453108923003462 3.941153141159589
v 0.7331113708925077 1.9453108923003462 -1.0788162752825172
v 1.6906287141952474 1.9453108923003462 3.9378719288292796
v 1.6731056440908298 1.9453108923003462 -1.0820974876128264
v 1.6906287141952474 1.0053108923003466 3.9378719288292796
v 1.6731056440908298 1.0053108923003466 -1.0820974876128264
v 0.7506344409969252 1.0053108923003466 3.941153141159589
v 0.7331113708925077 1.0053108923003466 -1.0788162752825172
v 1.6906287141952474 1.9453108923003462 3.9378719288292796
v 1.6731056440908298 1.9453108923003462 -1.0820974876128264
v 1.6906287141952474 1.0053108923003466 3.9378719288292796
v 1.6731056440908298 1.0053108923003466 -1.0820974876128264
v 0.7331113708925077 1.9453108923003462 -1.0788162752825172
v 0.7506344409969252 1.9453108923003462 3.941153141159589
v 0.7331113708925077 1.0053108923003466 -1.0788162752825172
v 0.7506344409969252 1.0053108923003466 3.941153141159589
vt 0 1
vt 1 1
vt 0 0
vt 1 0
vt 0 1
vt 1 1
vt 0 0
vt 1 0
vt 0 1
vt 1 1
vt 0 0
vt 1 0
vt 0 1
vt 1 1
vt 0 0
vt 1 0
vt 0 1
vt 1 1
vt 0 0
vt 1 0
vt 0 1
vt 1 1
vt 0 0
vt 1 0
vn -0.0006953488874945511 0 -0.1992019736370101
vn -0.0006953488874945511 0 -0.1992019736370101
vn -0.0006953488874945511 0 -0.1992019736370101
vn -0.0006953488874945511 0 -0.1992019736370101
vn 0.0006953488874945511 0 0.1992019736370101
vn 0.0006953488874945511 0 0.1992019736370101
vn 0.0006953488874945511 0 0.1992019736370101
vn 0.0006953488874945511 0 0.1992019736370101
vn 0 1.0638297872340428 0
vn 0 1.0638297872340428 0
vn 0 1.0638297872340428 0
vn 0 1.0638297872340428 0
vn 0 -1.0638297872340428 0
vn 0 -1.0638297872340428 0
vn 0 -1.0638297872340428 0
vn 0 -1.0638297872340428 0
vn 1.0638233060189266 0 -0.0037134589523645186
vn 1.0638233060189266 0 -0.0037134589523645186
vn 1.0638233060189266 0 -0.0037134589523645186
vn 1.0638233060189266 0 -0.0037134589523645186
vn -1.0638233060189266 0 0.0037134589523645186
vn -1.0638233060189266 0 0.0037134589523645186
vn -1.0638233060189266 0 0.0037134589523645186
vn -1.0638233060189266 0 0.0037134589523645186
f 1/1/1 3/3/3 2/2/2
f 3/3/3 4/4/4 2/2/2
f 5/5/5 7/7/7 6/6/6
f 7/7/7 8/8/8 6/6/6
f 9/9/9 11/11/11 10/10/10
f 11/11/11 12/12/12 10/10/10
f 13/13/13 15/15/15 14/14/14
f 15/15/15 16/16/16 14/14/14
f 17/17/17 19/19/19 18/18/18
f 19/19/19 20/20/20 18/18/18
f 21/21/21 23/23/23 22/22/22
f 23/23/23 24/24/24 22/22/22
o Box
v 0.6921415317649429 1.964040288071131 -1.1128926465984348
v -0.24783556109812738 1.9640173810737602 -1.119454991298226
v 0.6921415317649429 1.0240460148728079 -1.1096114342681247
v -0.24783556109812738 1.0240231078754372 -1.1161737789679158
v -0.2828814877938954 1.9815400241533256 3.9003920920302617
v 0.6570956050691747 1.9815629311506964 3.906954436730053
v -0.2828814877938954 1.0415457509550026 3.903673304360572
v 0.6570956050691747 1.0415686579523733 3.910235649060363
v -0.2828814877938954 1.9815400241533256 3.9003920920302617
v -0.24783556109812738 1.9640173810737602 -1.119454991298226
v 0.6570956050691747 1.9815629311506964 3.906954436730053
v 0.6921415317649429 1.964040288071131 -1.1128926465984348
v 0.6570956050691747 1.0415686579523733 3.910235649060363
v 0.6921415317649429 1.0240460148728079 -1.1096114342681247
v -0.2828814877938954 1.0415457509550026 3.903673304360572
v -0.24783556109812738 1.0240231078754372 -1.1161737789679158
v 0.6570956050691747 1.9815629311506964 3.906954436730053
v 0.6921415317649429 1.964040288071131 -1.1128926465984348
v 0.6570956050691747 1.0415686579523733 3.910235649060363
v 0.6921415317649429 1.0240460148728079 -1.1096114342681247
v -0.24783556109812738 1.9640173810737602 -1.119454991298226
v -0.2828814877938954 1.9815400241533256 3.9003920920302617
v -0.24783556109812738 1.0240231078754372 -1.1161737789679158
v -0.2828814877938954 1.0415457509550026 3.903673304360572
vt 0 1
vt 1 1
vt 0 0
vt 1 0
vt 0 1
vt 1 1
vt 0 0
vt 1 0
vt 0 1
vt 1 1
vt 0 0
vt 1 0
vt 0 1
vt 1 1
vt 0 0
vt 1 0
vt 0 1
vt 1 1
vt 0 0
vt 1 0
vt 0 1
vt 1 1
vt 0 0
vt 1 0
vn 0.001390689302382808 -0.0006953319423328748 -0.1991971192254286
vn 0.001390689302382808 -0.0006953319423328748 -0.1991971192254286
vn 0.001390689302382808 -0.0006953319423328748 -0.1991971192254286
vn 0.001390689302382808 -0.0006953319423328748 -0.1991971192254286
vn -0.001390689302382808 0.0006953319423328748 0.1991971192254286
vn -0.001390689302382808 0.0006953319423328748 0.1991971192254286
vn -0.001390689302382808 0.0006953319423328748 0.1991971192254286
vn -0.001390689302382808 0.0006953319423328748 0.1991971192254286
vn 3.7275260953478887e-19 1.0638233060189257 -0.0037134589523656713
vn 3.7275260953478887e-19 1.0638233060189257 -0.0037134589523656713
vn 3.7275260953478887e-19 1.0638233060189257 -0.0037134589523656713
vn 3.7275260953478887e-19 1.0638233060189257 -0.0037134589523656713
vn -3.7275260953478887e-19 -1.0638233060189257 0.0037134589523656713
vn -3.7275260953478887e-19 -1.0638233060189257 0.0037134589523656713
vn -3.7275260953478887e-19 -1.0638233060189257 0.0037134589523656713
vn -3.7275260953478887e-19 -1.0638233060189257 0.0037134589523656713
vn 1.0638038624525488 0.000025924623552260686 0.007426827410356354
vn 1.0638038624525488 0.000025924623552260686 0.007426827410356354
vn 1.0638038624525488 0.000025924623552260686 0.007426827410356354
vn 1.0638038624525488 0.000025924623552260686 0.007426827410356354
vn -1.0638038624525488 -0.000025924623552260686 -0.007426827410356354
vn -1.0638038624525488 -0.000025924623552260686 -0.007426827410356354
vn -1.0638038624525488 -0.000025924623552260686 -0.007426827410356354
vn -1.0638038624525488 -0.000025924623552260686 -0.007426827410356354
f 25/25/25 27/27/27 26/26/26
f 27/27/27 28/28/28 26/26/26
f 29/29/29 31/31/31 30/30/30
f 31/31/31 32/32/32 30/30/30
f 33/33/33 35/35/35 34/34/34
f 35/35/35 36/36/36 34/34/34
f 37/37/37 39/39/39 38/38/38
f 39/39/39 40/40/40 38/38/38
f 41/41/41 43/43/43 42/42/42
f 43/43/43 44/44/44 42/42/42
f 45/45/45 47/47/47 46/46/46
f 47/47/47 48/48/48 46/46/46
o Box
v -1.3309123604240727 1.9566456641751246 -1.0729608276866736
v -2.270906633622395 1.9566456641751246 -1.0696796153563644
v -1.3309123604240727 1.0166456641751251 -1.0729608276866736
v -2.270906633622395 1.0166456641751251 -1.0696796153563644
v -2.253383563517977 1.9566456641751246 3.950289801085742
v -1.3133892903196551 1.9566456641751246 3.9470085887554327
v -2.253383563517977 1.0166456641751251 3.950289801085742
v -1.3133892903196551 1.0166456641751251 3.9470085887554327
v -2.253383563517977 1.9566456641751246 3.950289801085742
v -2.270906633622395 1.9566456641751246 -1.0696796153563644
v -1.3133892903196551 1.9566456641751246 3.9470085887554327
v -1.3309123604240727 1.9566456641751246 -1.0729608276866736
v -1.3133892903196551 1.0166456641751251 3.9470085887554327
v -1.3309123604240727 1.0166456641751251 -1.0729608276866736
v -2.253383563517977 1.0166456641751251 3.950289801085742
v -2.270906633622395 1.0166456641751251 -1.0696796153563644
v -1.3133892903196551 1.9566456641751246 3.9470085887554327
v -1.3309123604240727 1.9566456641751246 -1.0729608276866736
v -1.3133892903196551 1.0166456641751251 3.9470085887554327
v -1.3309123604240727 1.0166456641751251 -1.0729608276866736
v -2.270906633622395 1.9566456641751246 -1.0696796153563644
v -2.253383563517977 1.9566456641751246 3.950289801085742
v -2.270906633622395 1.0166456641751251 -1.0696796153563644
v -2.253383563517977 1.0166456641751251 3.950289801085742
vt 0 1
vt 1 1
vt 0 0
vt 1 0
vt 0 1
vt 1 1
vt 0 0
vt 1 0
vt 0 1
vt 1 1
vt 0 0
vt 1 0
vt 0 1
vt 1 1
vt 0 0
vt 1 0
vt 0 1
vt 1 1
vt 0 0
vt 1 0
vt 0 1
vt 1 1
vt 0 0
vt 1 0
vn -0.0006953488874945511 0 -0.1992019736370101
vn -0.0006953488874945511 0 -0.1992019736370101
vn -0.0006953488874945511 0 -0.1992019736370101
vn -0.0006953488874945511 0 -0.1992019736370101
vn 0.0006953488874945511 0 0.1992019736370101
vn 0.0006953488874945511 0 0.1992019736370101
vn 0.0006953488874945511 0 0.1992019736370101
vn 0.0006953488874945511 0 0.1992019736370101
vn 0 1.0638297872340428 0
vn 0 1.0638297872340428 0
vn 0 1.0638297872340428 0
vn 0 1.0638297872340428 0
vn 0 -1.0638297872340428 0
vn 0 -1.0638297872340428 0
vn 0 -1.0638297872340428 0
vn 0 -1.0638297872340428 0
vn 1.0638233060189266 0 -0.0037134589523645186
vn 1.0638233060189266 0 -0.0037134589523645186
vn 1.0638233060189266 0 -0.0037134589523645186
vn 1.0638233060189266 0 -0.0037134589523645186
vn -1.0638233060189266 0 0.0037134589523645186
vn -1.0638233060189266 0 0.0037134589523645186
vn -1.0638233060189266 0 0.0037134589523645186
vn -1.0638233060189266 0 0.0037134589523645186
f 49/49/49 51/51/51 50/50/50
f 51/51/51 52/52/52 50/50/50
f 53/53/53 55/55/55 54/54/54
f 55/55/55 56/56/56 54/54/54
f 57/57/57 59/59/59 58/58/58
f 59/59/59 60/60/60 58/58/58
f 61/61/61 63/63/63 62/62/62
f 63/63/63 64/64/64 62/62/62
f 65/65/65 67/67/67 66/66/66
f 67/67/67 68/68/68 66/66/66
f 69/69/69 71/71/71 70/70/70
f 71/71/71 72/72/72 70/70/70
o Box
v 2.523576765912296 1.0101424087882598 -0.1480116953639602
v 2.523576765912296 1.0101424087882598 -1.08801169536396
v 2.523576765912296 0.07014240878826017 -0.1480116953639602
v 2.523576765912296 0.07014240878826017 -1.08801169536396
v -2.4964232340877035 1.0101424087882598 -1.08801169536396
v -2.4964232340877035 1.0101424087882598 -0.1480116953639602
v -2.4964232340877035 0.07014240878826017 -1.08801169536396
v -2.4964232340877035 0.07014240878826017 -0.1480116953639602
v -2.4964232340877035 1.0101424087882598 -1.08801169536396
v 2.523576765912296 1.0101424087882598 -1.08801169536396
v -2.4964232340877035 1.0101424087882598 -0.1480116953639602
v 2.523576765912296 1.0101424087882598 -0.1480116953639602
v -2.4964232340877035 0.07014240878826017 -0.1480116953639602
v 2.523576765912296 0.07014240878826017 -0.1480116953639602
v -2.4964232340877035 0.07014240878826017 -1.08801169536396
v 2.523576765912296 0.07014240878826017 -1.08801169536396
v -2.4964232340877035 1.0101424087882598 -0.1480116953639602
v 2.523576765912296 1.0101424087882598 -0.1480116953639602
v -2.4964232340877035 0.07014240878826017 -0.1480116953639602
v 2.523576765912296 0.07014240878826017 -0.1480116953639602
v 2.523576765912296 1.0101424087882598 -1.08801169536396
v -2.4964232340877035 1.0101424087882598 -1.08801169536396
v 2.523576765912296 0.07014240878826017 -1.08801169536396
v -2.4964232340877035 0.07014240878826017 -1.08801169536396
vt 0 1
vt 1 1
vt 0 0
vt 1 0
vt 0 1
vt 1 1
vt 0 0
vt 1 0
vt 0 1
vt 1 1
vt 0 0
vt 1 0
vt 0 1
vt 1 1
vt 0 0
vt 1 0
vt 0 1
vt 1 1
vt 0 0
vt 1 0
vt 0 1
vt 1 1
vt 0 0
vt 1 0
vn 0.19920318725099603 0 0
vn 0.19920318725099603 0 0
vn 0.19920318725099603 0 0
vn 0.19920318725099603 0 0
vn -0.19920318725099603 0 0
vn -0.19920318725099603 0 0
vn -0.19920318725099603 0 0
vn -0.19920318725099603 0 0
vn 0 1.063829787234043 0
vn 0 1.063829787234043 0
vn 0 1.063829787234043 0
vn 0 1.063829787234043 0
vn 0 -1.063829787234043 0
vn 0 -1.063829787234043 0
vn 0 -1.063829787234043 0
vn 0 -1.063829787234043 0
vn 0 0 1.063829787234043
vn 0 0 1.063829787234043
vn 0 0 1.063829787234043
vn 0 0 1.063829787234043
vn 0 0 -1.063829787234043
vn 0 0 -1.063829787234043
vn 0 0 -1.063829787234043
vn 0 0 -1.063829787234043
f 73/73/73 75/75/75 74/74/74
f 75/75/75 76/76/76 74/74/74
f 77/77/77 79/79/79 78/78/78
f 79/79/79 80/80/80 78/78/78
f 81/81/81 83/83/83 82/82/82
f 83/83/83 84/84/84 82/82/82
f 85/85/85 87/87/87 86/86/86
f 87/87/87 88/88/88 86/86/86
f 89/89/89 91/91/91 90/90/90
f 91/91/91 92/92/92 90/90/90
f 93/93/93 95/95/95 94/94/94
f 95/95/95 96/96/96 94/94/94
o Box
v 2.523576765912296 1.0099999999999998 3.932001442731158
v 2.523576765912296 1.0099999999999998 2.9920014427311585
v 2.523576765912296 0.07000000000000017 3.932001442731158
v 2.523576765912296 0.07000000000000017 2.9920014427311585
v -2.4964232340877035 1.0099999999999998 2.9920014427311585
v -2.4964232340877035 1.0099999999999998 3.932001442731158
v -2.4964232340877035 0.07000000000000017 2.9920014427311585
v -2.4964232340877035 0.07000000000000017 3.932001442731158
v -2.4964232340877035 1.0099999999999998 2.9920014427311585
v 2.523576765912296 1.0099999999999998 2.9920014427311585
v -2.4964232340877035 1.0099999999999998 3.932001442731158
v 2.523576765912296 1.0099999999999998 3.932001442731158
v -2.4964232340877035 0.07000000000000017 3.932001442731158
v 2.523576765912296 0.07000000000000017 3.932001442731158
v -2.4964232340877035 0.07000000000000017 2.9920014427311585
v 2.523576765912296 0.07000000000000017 2.9920014427311585
v -2.4964232340877035 1.0099999999999998 3.932001442731158
v 2.523576765912296 1.0099999999999998 3.932001442731158
v -2.4964232340877035 0.07000000000000017 3.932001442731158
v 2.523576765912296 0.07000000000000017 3.932001442731158
v 2.523576765912296 1.0099999999999998 2.9920014427311585
v -2.4964232340877035 1.0099999999999998 2.9920014427311585
v 2.523576765912296 0.07000000000000017 2.9920014427311585
v -2.4964232340877035 0.07000000000000017 2.9920014427311585
vt 0 1
vt 1 1
vt 0 0
vt 1 0
vt 0 1
vt 1 1
vt 0 0
vt 1 0
vt 0 1
vt 1 1
vt 0 0
vt 1 0
vt 0 1
vt 1 1
vt 0 0
vt 1 0
vt 0 1
vt 1 1
vt 0 0
vt 1 0
vt 0 1
vt 1 1
vt 0 0
vt 1 0
vn 0.19920318725099603 0 0
vn 0.19920318725099603 0 0
vn 0.19920318725099603 0 0
vn 0.19920318725099603 0 0
vn -0.19920318725099603 0 0
vn -0.19920318725099603 0 0
vn -0.19920318725099603 0 0
vn -0.19920318725099603 0 0
vn 0 1.063829787234043 0
vn 0 1.063829787234043 0
vn 0 1.063829787234043 0
vn 0 1.063829787234043 0
vn 0 -1.063829787234043 0
vn 0 -1.063829787234043 0
vn 0 -1.063829787234043 0
vn 0 -1.063829787234043 0
vn 0 0 1.063829787234043
vn 0 0 1.063829787234043
vn 0 0 1.063829787234043
vn 0 0 1.063829787234043
vn 0 0 -1.063829787234043
vn 0 0 -1.063829787234043
vn 0 0 -1.063829787234043
vn 0 0 -1.063829787234043
f 97/97/97 99/99/99 98/98/98
f 99/99/99 100/100/100 98/98/98
f 101/101/101 103/103/103 102/102/102
f 103/103/103 104/104/104 102/102/102
f 105/105/105 107/107/107 106/106/106
f 107/107/107 108/108/108 106/106/106
f 109/109/109 111/111/111 110/110/110
f 111/111/111 112/112/112 110/110/110
f 113/113/113 115/115/115 114/114/114
f 115/115/115 116/116/116 114/114/114
f 117/117/117 119/119/119 118/118/118
f 119/119/119 120/120/120 118/118/118
o Box
v -0.32449261575819155 1.9789957580268371 -1.0980157058011866
v -1.2644926157581913 1.9789957580268371 -1.0980157058011866
v -0.32449261575819155 1.0389957580268376 -1.0980157058011866
v -1.2644926157581913 1.0389957580268376 -1.0980157058011866
v -1.2644926157581924 1.9789957580268371 3.921984294198813
v -0.32449261575819266 1.9789957580268371 3.921984294198813
v -1.2644926157581924 1.0389957580268376 3.921984294198813
v -0.32449261575819266 1.0389957580268376 3.921984294198813
v -1.2644926157581924 1.9789957580268371 3.921984294198813
v -1.2644926157581913 1.9789957580268371 -1.0980157058011866
v -0.32449261575819266 1.9789957580268371 3.921984294198813
v -0.32449261575819155 1.9789957580268371 -1.0980157058011866
v -0.32449261575819266 1.0389957580268376 3.921984294198813
v -0.32449261575819155 1.0389957580268376 -1.0980157058011866
v -1.2644926157581924 1.0389957580268376 3.921984294198813
v -1.2644926157581913 1.0389957580268376 -1.0980157058011866
v -0.32449261575819266 1.9789957580268371 3.921984294198813
v -0.32449261575819155 1.9789957580268371 -1.0980157058011866
v -0.32449261575819266 1.0389957580268376 3.921984294198813
v -0.32449261575819155 1.0389957580268376 -1.0980157058011866
v -1.2644926157581913 1.9789957580268371 -1.0980157058011866
v -1.2644926157581924 1.9789957580268371 3.921984294198813
v -1.2644926157581913 1.0389957580268376 -1.0980157058011866
v -1.2644926157581924 1.0389957580268376 3.921984294198813
vt 0 1
vt 1 1
vt 0 0
vt 1 0
vt 0 1
vt 1 1
vt 0 0
vt 1 0
vt 0 1
vt 1 1
vt 0 0
vt 1 0
vt 0 1
vt 1 1
vt 0 0
vt 1 0
vt 0 1
vt 1 1
vt 0 0
vt 1 0
vt 0 1
vt 1 1
vt 0 0
vt 1 0
vn 4.423199301295445e-17 0 -0.19920318725099603
vn 4.423199301295445e-17 0 -0.19920318725099603
vn 4.423199301295445e-17 0 -0.19920318725099603
vn 4.423199301295445e-17 0 -0.19920318725099603
vn -4.423199301295445e-17 0 0.19920318725099603
vn -4.423199301295445e-17 0 0.19920318725099603
vn -4.423199301295445e-17 0 0.19920318725099603
vn -4.423199301295445e-17 0 0.19920318725099603
vn 0 1.063829787234043 0
vn 0 1.063829787234043 0
vn 0 1.063829787234043 0
vn 0 1.063829787234043 0
vn 0 -1.063829787234043 0
vn 0 -1.063829787234043 0
vn 0 -1.063829787234043 0
vn 0 -1.063829787234043 0
vn 1.063829787234043 0 2.362176648138632e-16
vn 1.063829787234043 0 2.362176648138632e-16
vn 1.063829787234043 0 2.362176648138632e-16
vn 1.063829787234043 0 2.362176648138632e-16
vn -1.063829787234043 0 -2.362176648138632e-16
vn -1.063829787234043 0 -2.362176648138632e-16
vn -1.063829787234043 0 -2.362176648138632e-16
vn -1.063829787234043 0 -2.362176648138632e-16
f 121/121/121 123/123/123 122/122/122
f 123/123/123 124/124/124 122/122/122
f 125/125/125 127/127/127 126/126/126
f 127/127/127 128/128/128 126/126/126
f 129/129/129 131/131/131 130/130/130
f 131/131/131 132/132/132 130/130/130
f 133/133/133 135/135/135 134/134/134
f 135/135/135 136/136/136 134/134/134
f 137/137/137 139/139/139 138/138/138
f 139/139/139 140/140/140 138/138/138
f 141/141/141 143/143/143 142/142/142
f 143/143/143 144/144/144 142/142/142
o Plane
v 0.6801230726782426 1.4695489147337155 -1.1202415759034263
v 1.3944869346613114 0.7698749355574463 -1.1320988756078685
v 0.6676538050849559 1.4398797369032028 -0.1207595814420207
v 1.3820176670680246 0.7402057577269336 -0.13261688114646308
vt 0 1
vt 1 1
vt 0 0
vt 1 0
vn 0.6996633405133655 0.7138459657030405 0.029919010531276047
vn 0.6996633405133655 0.7138459657030405 0.029919010531276047
vn 0.6996633405133655 0.7138459657030405 0.029919010531276047
vn 0.6996633405133655 0.7138459657030405 0.029919010531276047
f 145/145/145 147/147/147 146/146/146
f 147/147/147 148/148/148 146/146/146
o Plane
v 0.6801230726782426 1.4695489147337155 2.9899620563689613
v 1.3944869346613114 0.7698749355574463 2.978104756664519
v 0.6676538050849559 1.4398797369032028 3.989444050830367
v 1.3820176670680246 0.7402057577269336 3.9775867511259246
vt 0 1
vt 1 1
vt 0 0
vt 1 0
vn 0.6996633405133655 0.7138459657030405 0.029919010531276047
vn 0.6996633405133655 0.7138459657030405 0.029919010531276047
vn 0.6996633405133655 0.7138459657030405 0.029919010531276047
vn 0.6996633405133655 0.7138459657030405 0.029919010531276047
f 149/149/149 151/151/151 150/150/150
f 151/151/151 152/152/152 150/150/150
