<svg xmlns="http://www.w3.org/2000/svg" viewBox="0 0 720 460" width="720" height="460" font-family="sans-serif" font-size="12">
<style>
  .ax { stroke: #333; stroke-width: 1; fill: none; }
  .grid { stroke: #ddd; stroke-width: 0.5; }
  .lbl { fill: #333; }
  .title { fill: #111; font-size: 17px; font-weight: 600; }
  .subtitle { fill: #555; font-size: 12px; }
  .bar-low { fill: #2a72c4; }
  .bar-high { fill: #c47a2a; }
  .ref { stroke: #b00; stroke-width: 1.4; stroke-dasharray: 4,3; fill: none; }
  .reflbl { fill: #b00; font-size: 11px; font-weight: 600; }
</style>
<text x="360.0" y="26" text-anchor="middle" class="title">Framework fit quality across 177 galaxies (SPARC + Milky Way + M31)</text>
<text x="360.0" y="44" text-anchor="middle" class="subtitle">Distribution of relative RMS (RMS / mean V_obs) per galaxy, no dark-matter halo</text>
<line x1="70" y1="400.0" x2="690" y2="400.0" class="grid"/>
<text x="64" y="404.0" text-anchor="end" class="lbl">0</text>
<line x1="70" y1="340.7222914072229" x2="690" y2="340.7222914072229" class="grid"/>
<text x="64" y="344.7222914072229" text-anchor="end" class="lbl">14</text>
<line x1="70" y1="277.2104607721046" x2="690" y2="277.2104607721046" class="grid"/>
<text x="64" y="281.2104607721046" text-anchor="end" class="lbl">29</text>
<line x1="70" y1="217.93275217932754" x2="690" y2="217.93275217932754" class="grid"/>
<text x="64" y="221.93275217932754" text-anchor="end" class="lbl">43</text>
<line x1="70" y1="154.42092154420925" x2="690" y2="154.42092154420925" class="grid"/>
<text x="64" y="158.42092154420925" text-anchor="end" class="lbl">58</text>
<line x1="70" y1="90.90909090909096" x2="690" y2="90.90909090909096" class="grid"/>
<text x="64" y="94.90909090909096" text-anchor="end" class="lbl">73</text>
<line x1="70.0" y1="60" x2="70.0" y2="400" class="grid"/>
<text x="70.0" y="416" text-anchor="middle" class="lbl">0%</text>
<line x1="173.33333333333331" y1="60" x2="173.33333333333331" y2="400" class="grid"/>
<text x="173.33333333333331" y="416" text-anchor="middle" class="lbl">5%</text>
<line x1="276.66666666666663" y1="60" x2="276.66666666666663" y2="400" class="grid"/>
<text x="276.66666666666663" y="416" text-anchor="middle" class="lbl">10%</text>
<line x1="380.0" y1="60" x2="380.0" y2="400" class="grid"/>
<text x="380.0" y="416" text-anchor="middle" class="lbl">15%</text>
<line x1="483.3333333333333" y1="60" x2="483.3333333333333" y2="400" class="grid"/>
<text x="483.3333333333333" y="416" text-anchor="middle" class="lbl">20%</text>
<line x1="586.6666666666667" y1="60" x2="586.6666666666667" y2="400" class="grid"/>
<text x="586.6666666666667" y="416" text-anchor="middle" class="lbl">25%</text>
<line x1="690.0" y1="60" x2="690.0" y2="400" class="grid"/>
<text x="690.0" y="416" text-anchor="middle" class="lbl">30%</text>
<text x="380.0" y="448" text-anchor="middle" class="lbl">relative RMS (RMS / &lt;V_obs&gt;)</text>
<text x="18" y="230.0" text-anchor="middle" class="lbl" transform="rotate(-90, 18, 230.0)">number of galaxies</text>
<rect x="71.0" y="340.72229140722294" width="18.666666666666668" height="59.277708592777074" class="bar-low"/>
<rect x="91.66666666666667" y="112.07970112079704" width="18.666666666666668" height="287.92029887920296" class="bar-low"/>
<rect x="91.66666666666667" y="90.90909090909093" width="18.666666666666668" height="21.170610211706098" class="bar-high"/>
<rect x="112.33333333333334" y="256.0398505603985" width="18.666666666666668" height="143.96014943960148" class="bar-low"/>
<rect x="112.33333333333334" y="234.86924034869241" width="18.666666666666668" height="21.170610211706098" class="bar-high"/>
<rect x="133.0" y="357.6587795765878" width="18.666666666666668" height="42.341220423412196" class="bar-low"/>
<rect x="133.0" y="332.2540473225405" width="18.666666666666668" height="25.40473225404732" class="bar-high"/>
<rect x="153.66666666666669" y="357.6587795765878" width="18.666666666666668" height="42.341220423412196" class="bar-low"/>
<rect x="153.66666666666669" y="344.95641344956414" width="18.666666666666668" height="12.70236612702366" class="bar-high"/>
<rect x="174.33333333333334" y="395.7658779576588" width="18.666666666666668" height="4.23412204234122" class="bar-low"/>
<rect x="174.33333333333334" y="374.5952677459527" width="18.666666666666668" height="21.170610211706098" class="bar-high"/>
<rect x="195.0" y="391.53175591531755" width="18.666666666666668" height="8.46824408468244" class="bar-high"/>
<rect x="215.66666666666669" y="391.53175591531755" width="18.666666666666668" height="8.46824408468244" class="bar-low"/>
<rect x="215.66666666666669" y="387.29763387297635" width="18.666666666666668" height="4.23412204234122" class="bar-high"/>
<rect x="236.33333333333334" y="391.53175591531755" width="18.666666666666668" height="8.46824408468244" class="bar-high"/>
<rect x="277.6666666666667" y="395.7658779576588" width="18.666666666666668" height="4.23412204234122" class="bar-high"/>
<rect x="339.6666666666667" y="395.7658779576588" width="18.666666666666668" height="4.23412204234122" class="bar-low"/>
<rect x="339.6666666666667" y="391.5317559153176" width="18.666666666666668" height="4.23412204234122" class="bar-high"/>
<rect x="381.0" y="391.53175591531755" width="18.666666666666668" height="8.46824408468244" class="bar-high"/>
<rect x="401.6666666666667" y="395.7658779576588" width="18.666666666666668" height="4.23412204234122" class="bar-low"/>
<rect x="401.6666666666667" y="387.29763387297635" width="18.666666666666668" height="8.46824408468244" class="bar-high"/>
<rect x="422.33333333333337" y="395.7658779576588" width="18.666666666666668" height="4.23412204234122" class="bar-low"/>
<line x1="112.01783699961061" y1="60" x2="112.01783699961061" y2="400" class="ref"/>
<text x="117.01783699961061" y="72" class="reflbl">median = 2.0%</text>
<rect x="70" y="60" width="620" height="340" class="ax"/>
<rect x="490" y="72" width="12" height="12" class="bar-low"/>
<text x="508" y="82" class="lbl">amp &lt; 500 (n=142)</text>
<rect x="490" y="90" width="12" height="12" class="bar-high"/>
<text x="508" y="100" class="lbl">amp &gt; 500 (n=35)</text>
<text x="82" y="82" class="lbl">N = 177 galaxies</text>
<text x="82" y="100" class="lbl">&lt;5%:  155/177 (88%)</text>
<text x="82" y="116" class="lbl">&lt;10%: 168/177 (95%)</text>
<text x="82" y="132" class="lbl">&lt;20%: 177/177 (100%)</text>
</svg>