<svg xmlns="http://www.w3.org/2000/svg" viewBox="0 0 720 420" width="720" height="420" font-family="sans-serif" font-size="12">
<style>
  .ax { stroke: #333; stroke-width: 1; fill: none; }
  .grid { stroke: #ddd; stroke-width: 0.5; fill: none; }
  .lbl { fill: #333; }
  .lbl-l { fill: #0066cc; }
  .lbl-r { fill: #b03030; }
  .obs { fill: #222; }
  .err { stroke: #555; stroke-width: 0.8; fill: none; }
  .fw { stroke: #0066cc; stroke-width: 2.2; fill: none; }
  .nt { stroke: #cc6600; stroke-width: 1.6; fill: none; stroke-dasharray: 5,3; }
  .rho { stroke: #b03030; stroke-width: 2.0; fill: none; }
  .sig { stroke: #b03030; stroke-width: 1.6; fill: none; stroke-dasharray: 4,2; opacity: 0.85; }
  .title { fill: #111; font-size: 16px; font-weight: 600; }
  .subtitle { fill: #555; font-size: 11px; }
  .legend { font-size: 11px; }
</style>
<text x="360.0" y="22" text-anchor="middle" class="title">CamB</text>
<text x="360.0" y="38" text-anchor="middle" class="subtitle">rMax=1.8 kpc, N=9, RMS=0.4 km/s (3.9%), amp=100</text>
<line x1="70" y1="365.0" x2="635" y2="365.0" class="grid"/>
<text x="64" y="369.0" text-anchor="end" class="lbl-l">0</text>
<line x1="70" y1="303.0" x2="635" y2="303.0" class="grid"/>
<text x="64" y="307.0" text-anchor="end" class="lbl-l">5</text>
<line x1="70" y1="241.00000000000003" x2="635" y2="241.00000000000003" class="grid"/>
<text x="64" y="245.00000000000003" text-anchor="end" class="lbl-l">10</text>
<line x1="70" y1="179.0" x2="635" y2="179.0" class="grid"/>
<text x="64" y="183.0" text-anchor="end" class="lbl-l">14</text>
<line x1="70" y1="117.00000000000003" x2="635" y2="117.00000000000003" class="grid"/>
<text x="64" y="121.00000000000003" text-anchor="end" class="lbl-l">19</text>
<line x1="70" y1="55.0" x2="635" y2="55.0" class="grid"/>
<text x="64" y="59.0" text-anchor="end" class="lbl-l">24</text>
<text x="641" y="369.0" text-anchor="start" class="lbl-r">0.0</text>
<text x="641" y="327.6666666666667" text-anchor="start" class="lbl-r">0.2</text>
<text x="641" y="286.33333333333337" text-anchor="start" class="lbl-r">0.4</text>
<text x="641" y="245.00000000000003" text-anchor="start" class="lbl-r">0.6</text>
<text x="641" y="203.66666666666666" text-anchor="start" class="lbl-r">0.8</text>
<text x="641" y="162.33333333333334" text-anchor="start" class="lbl-r">1.0</text>
<line x1="70.0" y1="55" x2="70.0" y2="365" class="grid"/>
<text x="70.0" y="381" text-anchor="middle" class="lbl">0.0</text>
<line x1="164.16666666666666" y1="55" x2="164.16666666666666" y2="365" class="grid"/>
<text x="164.16666666666666" y="381" text-anchor="middle" class="lbl">0.3</text>
<line x1="258.3333333333333" y1="55" x2="258.3333333333333" y2="365" class="grid"/>
<text x="258.3333333333333" y="381" text-anchor="middle" class="lbl">0.7</text>
<line x1="352.5" y1="55" x2="352.5" y2="365" class="grid"/>
<text x="352.5" y="381" text-anchor="middle" class="lbl">1.0</text>
<line x1="446.66666666666663" y1="55" x2="446.66666666666663" y2="365" class="grid"/>
<text x="446.66666666666663" y="381" text-anchor="middle" class="lbl">1.4</text>
<line x1="540.8333333333334" y1="55" x2="540.8333333333334" y2="365" class="grid"/>
<text x="540.8333333333334" y="381" text-anchor="middle" class="lbl">1.7</text>
<line x1="635.0" y1="55" x2="635.0" y2="365" class="grid"/>
<text x="635.0" y="381" text-anchor="middle" class="lbl">2.0</text>
<text x="352.5" y="408" text-anchor="middle" class="lbl">radius (kpc)</text>
<text x="16" y="210.0" text-anchor="middle" class="lbl-l" transform="rotate(-90, 16, 210.0)">velocity (km/s)</text>
<text x="704" y="210.0" text-anchor="middle" class="lbl-r" transform="rotate(-90, 704, 210.0)">mass profile (normalized to peak)</text>
<rect x="70" y="55" width="565" height="310" class="ax"/>
<path d="M 70.0,158.3 L 72.6,158.6 L 75.2,158.9 L 77.7,159.1 L 80.3,159.4 L 82.9,159.6 L 85.5,159.9 L 88.1,160.1 L 90.6,160.4 L 93.2,160.7 L 95.8,160.9 L 98.4,161.2 L 101.0,161.4 L 103.5,161.7 L 106.1,162.0 L 108.7,162.2 L 111.3,162.3 L 113.9,162.3 L 116.4,162.3 L 119.0,162.3 L 121.6,162.3 L 124.2,162.3 L 126.8,162.3 L 129.3,162.3 L 131.9,162.3 L 134.5,162.3 L 137.1,162.3 L 139.7,162.3 L 142.2,162.3 L 144.8,162.3 L 147.4,162.3 L 150.0,162.3 L 152.6,162.3 L 155.1,162.3 L 157.7,162.3 L 160.3,162.3 L 162.9,162.3 L 165.5,162.3 L 168.0,162.3 L 170.6,162.3 L 173.2,162.3 L 175.8,162.3 L 178.4,162.3 L 180.9,162.3 L 183.5,162.3 L 186.1,162.3 L 188.7,162.3 L 191.3,162.3 L 193.8,162.6 L 196.4,162.8 L 199.0,163.1 L 201.6,163.4 L 204.2,163.7 L 206.7,164.0 L 209.3,164.3 L 211.9,164.6 L 214.5,164.9 L 217.1,165.2 L 219.6,165.5 L 222.2,165.8 L 224.8,166.1 L 227.4,166.4 L 230.0,166.7 L 232.5,167.0 L 235.1,167.2 L 237.7,167.5 L 240.3,167.8 L 242.9,168.1 L 245.4,168.4 L 248.0,168.7 L 250.6,169.0 L 253.2,169.3 L 255.8,169.6 L 258.3,169.9 L 260.9,170.2 L 263.5,170.5 L 266.1,170.8 L 268.7,171.1 L 271.2,171.4 L 273.8,171.6 L 276.4,171.9 L 279.0,172.2 L 281.6,172.5 L 284.1,172.8 L 286.7,173.1 L 289.3,173.4 L 291.9,173.7 L 294.5,174.0 L 297.0,174.3 L 299.6,174.6 L 302.2,174.9 L 304.8,175.2 L 307.4,175.5 L 309.9,175.8 L 312.5,176.0 L 315.1,176.3 L 317.7,176.6 L 320.3,176.9 L 322.8,177.2 L 325.4,177.5 L 328.0,177.8 L 330.6,178.1 L 333.2,178.4 L 335.7,178.7 L 338.3,179.0 L 340.9,179.3 L 343.5,179.6 L 346.1,179.9 L 348.6,180.2 L 351.2,180.5 L 353.8,180.7 L 356.4,181.0 L 358.9,181.3 L 361.5,181.6 L 364.1,181.9 L 366.7,182.2 L 369.3,182.5 L 371.8,182.8 L 374.4,183.1 L 377.0,183.4 L 379.6,183.7 L 382.2,184.0 L 384.7,184.3 L 387.3,184.6 L 389.9,184.9 L 392.5,185.1 L 395.1,185.4 L 397.6,185.7 L 400.2,186.0 L 402.8,186.5 L 405.4,187.0 L 408.0,187.6 L 410.5,188.1 L 413.1,188.7 L 415.7,189.3 L 418.3,189.8 L 420.9,190.4 L 423.4,190.9 L 426.0,191.5 L 428.6,192.1 L 431.2,192.6 L 433.8,193.2 L 436.3,193.7 L 438.9,194.3 L 441.5,194.9 L 444.1,195.4 L 446.7,196.0 L 449.2,196.5 L 451.8,197.1 L 454.4,197.6 L 457.0,198.2 L 459.6,198.8 L 462.1,199.3 L 464.7,199.9 L 467.3,200.4 L 469.9,201.0 L 472.5,201.6 L 475.0,202.1 L 477.6,202.7 L 480.2,203.2 L 482.8,203.8 L 485.4,204.4 L 487.9,204.9 L 490.5,205.5 L 493.1,206.0 L 495.7,206.6 L 498.3,207.1 L 500.8,207.7 L 503.4,208.3 L 506.0,208.8 L 508.6,209.4 L 511.2,209.9 L 513.7,210.5 L 516.3,211.1 L 518.9,211.6 L 521.5,212.2 L 524.1,212.7 L 526.6,213.3 L 529.2,213.9 L 531.8,214.4 L 534.4,215.0 L 537.0,215.5 L 539.5,216.1 L 542.1,216.7 L 544.7,217.2 L 547.3,217.8 L 549.9,218.3 L 552.4,218.9 L 555.0,219.4 L 557.6,220.0 L 560.2,220.6 L 562.8,221.1 L 565.3,221.7 L 567.9,222.2 L 570.5,222.8 L 573.1,223.4 L 575.7,223.9 L 578.2,224.5 L 580.8,225.0 L 583.4,225.6 L 586.0,226.2 L 588.6,226.7 L 591.1,227.3 L 593.7,227.8 L 596.3,228.4 L 598.9,228.9 L 601.5,229.5 L 604.0,254.2 L 606.6,324.7 L 609.2,365.0 L 611.8,365.0 L 614.4,365.0 L 616.9,365.0 L 619.5,365.0 L 622.1,365.0 L 624.7,365.0 L 627.3,365.0 L 629.8,365.0 L 632.4,365.0 L 635.0,365.0" class="rho"/>
<path d="M 70.0,158.3 L 72.6,158.4 L 75.2,158.4 L 77.7,158.5 L 80.3,158.6 L 82.9,158.7 L 85.5,158.8 L 88.1,158.9 L 90.6,159.0 L 93.2,159.2 L 95.8,159.3 L 98.4,159.4 L 101.0,159.6 L 103.5,159.7 L 106.1,159.9 L 108.7,160.0 L 111.3,160.2 L 113.9,160.3 L 116.4,160.4 L 119.0,160.6 L 121.6,160.7 L 124.2,160.8 L 126.8,161.0 L 129.3,161.1 L 131.9,161.3 L 134.5,161.4 L 137.1,161.6 L 139.7,161.7 L 142.2,161.9 L 144.8,162.1 L 147.4,162.2 L 150.0,162.4 L 152.6,162.6 L 155.1,162.8 L 157.7,163.0 L 160.3,163.3 L 162.9,163.5 L 165.5,163.7 L 168.0,164.0 L 170.6,164.2 L 173.2,164.5 L 175.8,164.8 L 178.4,165.1 L 180.9,165.4 L 183.5,165.7 L 186.1,166.1 L 188.7,166.5 L 191.3,166.8 L 193.8,167.2 L 196.4,167.7 L 199.0,168.1 L 201.6,168.6 L 204.2,169.0 L 206.7,169.5 L 209.3,170.0 L 211.9,170.6 L 214.5,171.1 L 217.1,171.6 L 219.6,172.2 L 222.2,172.7 L 224.8,173.3 L 227.4,173.9 L 230.0,174.4 L 232.5,175.0 L 235.1,175.6 L 237.7,176.2 L 240.3,176.8 L 242.9,177.5 L 245.4,178.1 L 248.0,178.7 L 250.6,179.3 L 253.2,180.0 L 255.8,180.6 L 258.3,181.3 L 260.9,181.9 L 263.5,182.6 L 266.1,183.2 L 268.7,183.9 L 271.2,184.5 L 273.8,185.2 L 276.4,185.9 L 279.0,186.6 L 281.6,187.3 L 284.1,187.9 L 286.7,188.6 L 289.3,189.3 L 291.9,190.0 L 294.5,190.7 L 297.0,191.4 L 299.6,192.1 L 302.2,192.8 L 304.8,193.6 L 307.4,194.3 L 309.9,195.0 L 312.5,195.7 L 315.1,196.5 L 317.7,197.2 L 320.3,197.9 L 322.8,198.7 L 325.4,199.4 L 328.0,200.1 L 330.6,200.9 L 333.2,201.6 L 335.7,202.4 L 338.3,203.1 L 340.9,203.9 L 343.5,204.7 L 346.1,205.4 L 348.6,206.2 L 351.2,207.0 L 353.8,207.8 L 356.4,208.6 L 358.9,209.3 L 361.5,210.1 L 364.1,210.9 L 366.7,211.7 L 369.3,212.5 L 371.8,213.4 L 374.4,214.2 L 377.0,215.0 L 379.6,215.8 L 382.2,216.7 L 384.7,217.5 L 387.3,218.4 L 389.9,219.2 L 392.5,220.1 L 395.1,221.0 L 397.6,221.9 L 400.2,222.8 L 402.8,223.7 L 405.4,224.6 L 408.0,225.6 L 410.5,226.5 L 413.1,227.5 L 415.7,228.5 L 418.3,229.4 L 420.9,230.4 L 423.4,231.4 L 426.0,232.4 L 428.6,233.4 L 431.2,234.4 L 433.8,235.4 L 436.3,236.4 L 438.9,237.4 L 441.5,238.4 L 444.1,239.4 L 446.7,240.4 L 449.2,241.5 L 451.8,242.5 L 454.4,243.5 L 457.0,244.5 L 459.6,245.5 L 462.1,246.6 L 464.7,247.6 L 467.3,248.6 L 469.9,249.6 L 472.5,250.7 L 475.0,251.7 L 477.6,252.7 L 480.2,253.7 L 482.8,254.8 L 485.4,255.8 L 487.9,256.8 L 490.5,257.8 L 493.1,258.9 L 495.7,259.9 L 498.3,260.9 L 500.8,261.9 L 503.4,263.0 L 506.0,264.0 L 508.6,265.0 L 511.2,266.1 L 513.7,267.1 L 516.3,268.1 L 518.9,269.2 L 521.5,270.2 L 524.1,271.3 L 526.6,272.3 L 529.2,273.4 L 531.8,274.4 L 534.4,275.5 L 537.0,276.5 L 539.5,277.6 L 542.1,278.7 L 544.7,279.8 L 547.3,280.9 L 549.9,282.0 L 552.4,283.1 L 555.0,284.2 L 557.6,285.4 L 560.2,286.6 L 562.8,287.7 L 565.3,288.9 L 567.9,290.2 L 570.5,291.4 L 573.1,292.7 L 575.7,294.1 L 578.2,295.4 L 580.8,296.9 L 583.4,298.3 L 586.0,299.9 L 588.6,301.5 L 591.1,303.1 L 593.7,304.9 L 596.3,306.7 L 598.9,308.6 L 601.5,310.4 L 604.0,312.3 L 606.6,314.2 L 609.2,316.1 L 611.8,317.8 L 614.4,319.5 L 616.9,321.1 L 619.5,322.6 L 622.1,324.0 L 624.7,325.2 L 627.3,326.4 L 629.8,327.5 L 632.4,328.5 L 635.0,329.5" class="sig"/>
<path d="M 75.7,363.2 L 81.3,362.5 L 87.0,361.9 L 92.6,361.4 L 98.2,361.0 L 103.9,360.7 L 109.5,360.3 L 115.2,360.0 L 120.8,359.7 L 126.5,359.4 L 132.2,359.1 L 137.8,358.9 L 143.4,358.6 L 149.1,358.4 L 154.8,358.2 L 160.4,357.9 L 166.1,357.7 L 171.7,357.5 L 177.3,357.3 L 183.0,357.1 L 188.6,356.9 L 194.3,356.7 L 200.0,356.5 L 205.6,356.4 L 211.2,356.2 L 216.9,356.0 L 222.6,355.8 L 228.2,355.7 L 233.9,355.5 L 239.5,355.4 L 245.2,355.2 L 250.8,355.1 L 256.4,354.9 L 262.1,354.8 L 267.8,354.6 L 273.4,354.5 L 279.1,354.4 L 284.7,354.2 L 290.4,354.1 L 296.0,354.0 L 301.6,353.8 L 307.3,353.7 L 312.9,353.6 L 318.6,353.5 L 324.2,353.3 L 329.9,353.2 L 335.6,353.1 L 341.2,353.0 L 346.9,352.9 L 352.5,352.8 L 358.1,352.7 L 363.8,352.6 L 369.4,352.5 L 375.1,352.4 L 380.8,352.2 L 386.4,352.1 L 392.0,352.0 L 397.7,351.9 L 403.4,351.9 L 409.0,351.8 L 414.6,351.7 L 420.3,351.6 L 426.0,351.5 L 431.6,351.4 L 437.2,351.3 L 442.9,351.2 L 448.6,351.1 L 454.2,351.0 L 459.8,351.0 L 465.5,350.9 L 471.1,350.8 L 476.8,350.7 L 482.4,350.7 L 488.1,350.6 L 493.8,350.5 L 499.4,350.4 L 505.1,350.4 L 510.7,350.3 L 516.3,350.2 L 522.0,350.2 L 527.6,350.1 L 533.3,350.0 L 539.0,350.0 L 544.6,349.9 L 550.2,349.9 L 555.9,349.8 L 561.5,349.7 L 567.2,349.7 L 572.9,349.6 L 578.5,349.6 L 584.1,349.5 L 589.8,349.5 L 595.5,349.4 L 601.1,349.4 L 606.8,349.3 L 612.4,349.4 L 618.1,349.5 L 623.7,349.6 L 629.4,349.7 L 635.0,349.7" class="nt"/>
<path d="M 74.7,359.0 L 79.4,355.3 L 84.1,351.9 L 88.8,349.0 L 93.5,346.3 L 98.2,344.0 L 103.0,342.1 L 107.7,340.6 L 112.4,339.4 L 117.1,338.1 L 121.8,336.7 L 126.5,335.0 L 131.2,333.1 L 135.9,331.0 L 140.6,328.7 L 145.3,326.2 L 150.0,323.6 L 154.8,320.8 L 159.5,317.8 L 164.2,314.7 L 168.9,311.3 L 173.6,307.7 L 178.3,303.8 L 183.0,299.6 L 187.7,295.0 L 192.4,290.4 L 197.1,285.9 L 201.8,281.7 L 206.5,277.8 L 211.2,274.3 L 216.0,271.1 L 220.7,268.0 L 225.4,265.2 L 230.1,262.4 L 234.8,259.8 L 239.5,257.3 L 244.2,254.8 L 248.9,252.4 L 253.6,250.1 L 258.3,247.9 L 263.0,245.6 L 267.8,243.5 L 272.5,241.3 L 277.2,239.3 L 281.9,237.2 L 286.6,235.2 L 291.3,233.1 L 296.0,231.2 L 300.7,229.2 L 305.4,227.2 L 310.1,225.3 L 314.8,223.3 L 319.5,221.4 L 324.2,219.5 L 329.0,217.5 L 333.7,215.6 L 338.4,213.6 L 343.1,211.7 L 347.8,209.6 L 352.5,207.6 L 357.2,205.5 L 361.9,203.3 L 366.6,201.1 L 371.3,198.8 L 376.0,196.3 L 380.7,193.7 L 385.5,191.0 L 390.2,188.0 L 394.9,184.8 L 399.6,181.4 L 404.3,178.1 L 409.0,174.9 L 413.7,171.9 L 418.4,169.3 L 423.1,166.9 L 427.8,164.7 L 432.5,162.7 L 437.2,160.9 L 442.0,159.2 L 446.7,157.5 L 451.4,156.0 L 456.1,154.5 L 460.8,153.1 L 465.5,151.7 L 470.2,150.4 L 474.9,149.1 L 479.6,147.7 L 484.3,146.4 L 489.0,145.1 L 493.8,143.8 L 498.5,142.4 L 503.2,141.0 L 507.9,139.6 L 512.6,138.0 L 517.3,136.4 L 522.0,134.6 L 526.7,132.7 L 531.4,130.7 L 536.1,128.4 L 540.8,125.7 L 545.5,122.8 L 550.2,119.4 L 555.0,115.5 L 559.7,110.9 L 564.4,105.4 L 569.1,98.8 L 573.8,90.8 L 578.5,81.3 L 583.2,70.0 L 587.9,57.6 L 592.6,45.1 L 597.3,34.8 L 602.0,29.9 L 606.8,31.5 L 611.5,41.1 L 616.2,55.7 L 620.9,73.2 L 625.6,90.9 L 630.3,107.3 L 635.0,122.0" class="fw"/>
<line x1="114.2076271849522" y1="319.4654882154882" x2="114.2076271849522" y2="358.60690235690237" class="err"/>
<line x1="111.2076271849522" y1="319.4654882154882" x2="117.2076271849522" y2="319.4654882154882" class="err"/>
<line x1="111.2076271849522" y1="358.60690235690237" x2="117.2076271849522" y2="358.60690235690237" class="err"/>
<circle cx="114.2076271849522" cy="339.0361952861953" r="2.5" class="obs"/>
<line x1="183.28204466143998" y1="282.2811447811448" x2="183.28204466143998" y2="321.42255892255895" class="err"/>
<line x1="180.28204466143998" y1="282.2811447811448" x2="186.28204466143998" y2="282.2811447811448" class="err"/>
<line x1="180.28204466143998" y1="321.42255892255895" x2="186.28204466143998" y2="321.42255892255895" class="err"/>
<circle cx="183.28204466143998" cy="301.85185185185185" r="2.5" class="obs"/>
<line x1="227.48967184639218" y1="256.83922558922563" x2="227.48967184639218" y2="295.9806397306397" class="err"/>
<line x1="224.48967184639218" y1="256.83922558922563" x2="230.48967184639218" y2="256.83922558922563" class="err"/>
<line x1="224.48967184639218" y1="295.9806397306397" x2="230.48967184639218" y2="295.9806397306397" class="err"/>
<circle cx="227.48967184639218" cy="276.4099326599327" r="2.5" class="obs"/>
<line x1="271.69729903134436" y1="229.7011784511785" x2="271.69729903134436" y2="268.8425925925926" class="err"/>
<line x1="268.69729903134436" y1="229.7011784511785" x2="274.69729903134436" y2="229.7011784511785" class="err"/>
<line x1="268.69729903134436" y1="268.8425925925926" x2="274.69729903134436" y2="268.8425925925926" class="err"/>
<circle cx="271.69729903134436" cy="249.27188552188554" r="2.5" class="obs"/>
<line x1="318.6679029153561" y1="203.21548821548822" x2="318.6679029153561" y2="242.3569023569024" class="err"/>
<line x1="315.6679029153561" y1="203.21548821548822" x2="321.6679029153561" y2="203.21548821548822" class="err"/>
<line x1="315.6679029153561" y1="242.3569023569024" x2="321.6679029153561" y2="242.3569023569024" class="err"/>
<circle cx="318.6679029153561" cy="222.7861952861953" r="2.5" class="obs"/>
<line x1="362.8755301003083" y1="177.12121212121215" x2="362.8755301003083" y2="216.2626262626263" class="err"/>
<line x1="359.8755301003083" y1="177.12121212121215" x2="365.8755301003083" y2="177.12121212121215" class="err"/>
<line x1="359.8755301003083" y1="216.2626262626263" x2="365.8755301003083" y2="216.2626262626263" class="err"/>
<circle cx="362.8755301003083" cy="196.69191919191923" r="2.5" class="obs"/>
<line x1="407.0831572852605" y1="153.63636363636368" x2="407.0831572852605" y2="192.77777777777783" class="err"/>
<line x1="404.0831572852605" y1="153.63636363636368" x2="410.0831572852605" y2="153.63636363636368" class="err"/>
<line x1="404.0831572852605" y1="192.77777777777783" x2="410.0831572852605" y2="192.77777777777783" class="err"/>
<circle cx="407.0831572852605" cy="173.20707070707076" r="2.5" class="obs"/>
<line x1="476.15757476174826" y1="126.23737373737377" x2="476.15757476174826" y2="165.37878787878793" class="err"/>
<line x1="473.15757476174826" y1="126.23737373737377" x2="479.15757476174826" y2="126.23737373737377" class="err"/>
<line x1="473.15757476174826" y1="165.37878787878793" x2="479.15757476174826" y2="165.37878787878793" class="err"/>
<circle cx="476.15757476174826" cy="145.80808080808083" r="2.5" class="obs"/>
<line x1="564.5728291316527" y1="83.18181818181823" x2="564.5728291316527" y2="122.32323232323235" class="err"/>
<line x1="561.5728291316527" y1="83.18181818181823" x2="567.5728291316527" y2="83.18181818181823" class="err"/>
<line x1="561.5728291316527" y1="122.32323232323235" x2="567.5728291316527" y2="122.32323232323235" class="err"/>
<circle cx="564.5728291316527" cy="102.7525252525253" r="2.5" class="obs"/>
<g class="legend">
<line x1="82" y1="69" x2="106" y2="69" class="fw"/>
<text x="112" y="73" class="lbl-l">framework fit</text>
<line x1="82" y1="87" x2="106" y2="87" class="nt"/>
<text x="112" y="91" class="lbl-l">Newtonian (no halo)</text>
<circle cx="94" cy="105" r="2.5" class="obs"/>
<text x="112" y="109" class="lbl">observed V±err</text>
</g>
<g class="legend">
<line x1="460" y1="69" x2="484" y2="69" class="rho"/>
<text x="490" y="73" class="lbl-r">ρ(r) raw</text>
<line x1="460" y1="87" x2="484" y2="87" class="sig"/>
<text x="490" y="91" class="lbl-r">Σ(r) smoothed</text>
<text x="460" y="113" class="lbl-r">ρ peak: 0 M☉/pc²</text>
</g>
</svg>