<svg xmlns="http://www.w3.org/2000/svg" viewBox="0 0 890 420" width="890" height="420" font-family="sans-serif" font-size="12">
<style>
  .ax { stroke: #333; stroke-width: 1; fill: none; }
  .grid { stroke: #ddd; stroke-width: 0.5; fill: none; }
  .lbl { fill: #333; }
  .lbl-l { fill: #0066cc; }
  .lbl-r { fill: #b03030; }
  .lbl-s { fill: #cc7000; }
  .obs { fill: #222; }
  .err { stroke: #555; stroke-width: 0.8; fill: none; }
  .fw { stroke: #0066cc; stroke-width: 2.2; fill: none; }
  .nt { stroke: #cc6600; stroke-width: 1.6; fill: none; stroke-dasharray: 5,3; }
  .rho { stroke: #b03030; stroke-width: 2.0; fill: none; }
  .sig { stroke: #cc7000; stroke-width: 1.8; fill: none; }
  .title { fill: #111; font-size: 16px; font-weight: 600; }
  .subtitle { fill: #555; font-size: 11px; }
  .legend { font-size: 11px; }
  .preview-bg { fill: #000; }
  .preview-lbl { fill: #888; font-size: 10px; }
</style>
<text x="343.5" y="22" text-anchor="middle" class="title">D564-8</text>
<text x="343.5" y="38" text-anchor="middle" class="subtitle">rMax=3.1 kpc, N=6, RMS=0.4 km/s (2.0%), amp=221</text>
<line x1="70" y1="365.0" x2="617" y2="365.0" class="grid"/>
<text x="64" y="369.0" text-anchor="end" class="lbl-l">0</text>
<line x1="70" y1="303.0" x2="617" y2="303.0" class="grid"/>
<text x="64" y="307.0" text-anchor="end" class="lbl-l">6</text>
<line x1="70" y1="241.0" x2="617" y2="241.0" class="grid"/>
<text x="64" y="245.0" text-anchor="end" class="lbl-l">12</text>
<line x1="70" y1="179.0" x2="617" y2="179.0" class="grid"/>
<text x="64" y="183.0" text-anchor="end" class="lbl-l">18</text>
<line x1="70" y1="116.99999999999999" x2="617" y2="116.99999999999999" class="grid"/>
<text x="64" y="120.99999999999999" text-anchor="end" class="lbl-l">24</text>
<line x1="70" y1="55.0" x2="617" y2="55.0" class="grid"/>
<text x="64" y="59.0" text-anchor="end" class="lbl-l">30</text>
<text x="623" y="369.0" text-anchor="start" class="lbl-r">0.0</text>
<text x="623" y="327.6666666666667" text-anchor="start" class="lbl-r">0.2</text>
<text x="623" y="286.33333333333337" text-anchor="start" class="lbl-r">0.4</text>
<text x="623" y="245.00000000000003" text-anchor="start" class="lbl-r">0.6</text>
<text x="623" y="203.66666666666666" text-anchor="start" class="lbl-r">0.8</text>
<text x="623" y="162.33333333333334" text-anchor="start" class="lbl-r">1.0</text>
<line x1="70.0" y1="55" x2="70.0" y2="365" class="grid"/>
<text x="70.0" y="381" text-anchor="middle" class="lbl">0.0</text>
<line x1="161.16666666666666" y1="55" x2="161.16666666666666" y2="365" class="grid"/>
<text x="161.16666666666666" y="381" text-anchor="middle" class="lbl">0.7</text>
<line x1="252.33333333333331" y1="55" x2="252.33333333333331" y2="365" class="grid"/>
<text x="252.33333333333331" y="381" text-anchor="middle" class="lbl">1.4</text>
<line x1="343.5" y1="55" x2="343.5" y2="365" class="grid"/>
<text x="343.5" y="381" text-anchor="middle" class="lbl">2.1</text>
<line x1="434.66666666666663" y1="55" x2="434.66666666666663" y2="365" class="grid"/>
<text x="434.66666666666663" y="381" text-anchor="middle" class="lbl">2.8</text>
<line x1="525.8333333333334" y1="55" x2="525.8333333333334" y2="365" class="grid"/>
<text x="525.8333333333334" y="381" text-anchor="middle" class="lbl">3.4</text>
<line x1="617.0" y1="55" x2="617.0" y2="365" class="grid"/>
<text x="617.0" y="381" text-anchor="middle" class="lbl">4.1</text>
<text x="343.5" y="397" text-anchor="middle" class="lbl">radius (kpc)</text>
<text x="16" y="210.0" text-anchor="middle" class="lbl-l" transform="rotate(-90, 16, 210.0)">velocity (km/s)</text>
<text x="661" y="210.0" text-anchor="middle" class="lbl-r" transform="rotate(-90, 661, 210.0)">mass profile (normalized to peak)</text>
<rect x="70" y="55" width="547" height="310" class="ax"/>
<path d="M 70.0,158.3 L 72.5,213.5 L 75.0,268.6 L 77.5,323.8 L 80.0,322.8 L 82.5,302.9 L 85.0,283.0 L 87.5,263.0 L 90.0,243.1 L 92.5,223.1 L 95.0,203.2 L 97.5,183.2 L 100.0,166.8 L 102.5,172.4 L 105.0,177.9 L 107.5,183.5 L 110.0,188.9 L 112.5,189.4 L 115.0,189.8 L 117.5,190.3 L 120.0,190.7 L 122.5,191.1 L 124.9,191.6 L 127.4,192.0 L 129.9,192.5 L 132.4,192.9 L 134.9,193.4 L 137.4,193.8 L 139.9,194.2 L 142.4,194.7 L 144.9,195.1 L 147.4,195.6 L 149.9,196.0 L 152.4,196.5 L 154.9,196.9 L 157.4,197.4 L 159.9,197.8 L 162.4,198.2 L 164.9,198.7 L 167.4,199.1 L 169.9,199.6 L 172.4,200.0 L 174.9,200.5 L 177.4,200.9 L 179.9,201.3 L 182.4,201.8 L 184.9,202.2 L 187.4,202.7 L 189.9,203.1 L 192.4,203.6 L 194.9,204.0 L 197.4,204.5 L 199.9,204.9 L 202.4,205.3 L 204.9,205.8 L 207.4,206.2 L 209.9,206.7 L 212.4,207.1 L 214.9,207.6 L 217.4,208.0 L 219.9,208.4 L 222.4,208.9 L 224.9,209.3 L 227.4,209.8 L 229.9,210.2 L 232.4,210.7 L 234.8,211.1 L 237.3,211.6 L 239.8,212.0 L 242.3,212.4 L 244.8,212.9 L 247.3,213.3 L 249.8,213.8 L 252.3,214.2 L 254.8,214.7 L 257.3,215.1 L 259.8,215.5 L 262.3,216.0 L 264.8,216.4 L 267.3,216.9 L 269.8,217.3 L 272.3,217.8 L 274.8,218.2 L 277.3,218.7 L 279.8,219.1 L 282.3,219.5 L 284.8,220.0 L 287.3,220.4 L 289.8,220.9 L 292.3,221.3 L 294.8,221.8 L 297.3,222.2 L 299.8,222.6 L 302.3,223.1 L 304.8,223.5 L 307.3,224.0 L 309.8,224.4 L 312.3,224.9 L 314.8,225.3 L 317.3,225.8 L 319.8,226.2 L 322.3,226.6 L 324.8,227.1 L 327.3,227.5 L 329.8,228.0 L 332.3,228.4 L 334.8,228.9 L 337.3,229.3 L 339.8,229.7 L 342.3,230.2 L 344.7,230.6 L 347.2,231.1 L 349.7,231.5 L 352.2,232.0 L 354.7,232.4 L 357.2,232.9 L 359.7,233.3 L 362.2,233.7 L 364.7,234.2 L 367.2,234.6 L 369.7,235.1 L 372.2,235.5 L 374.7,236.0 L 377.2,236.4 L 379.7,236.8 L 382.2,237.3 L 384.7,237.7 L 387.2,238.2 L 389.7,238.6 L 392.2,239.1 L 394.7,239.5 L 397.2,240.0 L 399.7,240.4 L 402.2,240.8 L 404.7,241.3 L 407.2,241.7 L 409.7,242.2 L 412.2,242.6 L 414.7,243.1 L 417.2,243.5 L 419.7,243.9 L 422.2,244.4 L 424.7,244.8 L 427.2,245.3 L 429.7,245.7 L 432.2,246.2 L 434.7,246.6 L 437.2,247.1 L 439.7,247.5 L 442.2,247.9 L 444.7,248.4 L 447.2,248.8 L 449.7,249.3 L 452.2,249.7 L 454.6,250.2 L 457.1,250.6 L 459.6,251.0 L 462.1,251.5 L 464.6,251.9 L 467.1,252.4 L 469.6,252.8 L 472.1,253.3 L 474.6,253.7 L 477.1,254.2 L 479.6,254.6 L 482.1,255.0 L 484.6,255.5 L 487.1,255.9 L 489.6,256.4 L 492.1,256.8 L 494.6,257.3 L 497.1,257.7 L 499.6,258.1 L 502.1,258.6 L 504.6,259.0 L 507.1,259.5 L 509.6,259.9 L 512.1,260.4 L 514.6,260.8 L 517.1,261.3 L 519.6,261.7 L 522.1,262.1 L 524.6,262.6 L 527.1,263.0 L 529.6,263.5 L 532.1,263.9 L 534.6,264.4 L 537.1,264.8 L 539.6,265.2 L 542.1,265.7 L 544.6,266.1 L 547.1,266.6 L 549.6,267.0 L 552.1,267.5 L 554.6,267.9 L 557.1,274.0 L 559.6,280.7 L 562.1,287.4 L 564.5,294.1 L 567.0,300.8 L 569.5,307.5 L 572.0,314.2 L 574.5,320.9 L 577.0,327.6 L 579.5,334.3 L 582.0,341.0 L 584.5,347.8 L 587.0,354.5 L 589.5,361.2 L 592.0,365.0 L 594.5,365.0 L 597.0,365.0 L 599.5,365.0 L 602.0,365.0 L 604.5,365.0 L 607.0,365.0 L 609.5,365.0 L 612.0,365.0 L 614.5,365.0 L 617.0,365.0" class="rho"/>
<path d="M 70.0,175.1 L 72.5,174.9 L 75.0,174.5 L 77.5,173.8 L 80.0,172.8 L 82.5,171.7 L 85.0,170.3 L 87.5,168.7 L 90.0,167.1 L 92.5,165.5 L 95.0,163.9 L 97.5,162.5 L 100.0,161.2 L 102.5,160.2 L 105.0,159.4 L 107.5,158.9 L 110.0,158.5 L 112.5,158.4 L 115.0,158.3 L 117.5,158.4 L 120.0,158.6 L 122.5,158.9 L 124.9,159.3 L 127.4,159.7 L 129.9,160.2 L 132.4,160.8 L 134.9,161.3 L 137.4,161.9 L 139.9,162.6 L 142.4,163.3 L 144.9,164.0 L 147.4,164.7 L 149.9,165.5 L 152.4,166.2 L 154.9,167.0 L 157.4,167.8 L 159.9,168.7 L 162.4,169.5 L 164.9,170.4 L 167.4,171.2 L 169.9,172.1 L 172.4,173.0 L 174.9,173.9 L 177.4,174.8 L 179.9,175.8 L 182.4,176.7 L 184.9,177.6 L 187.4,178.6 L 189.9,179.5 L 192.4,180.5 L 194.9,181.5 L 197.4,182.5 L 199.9,183.4 L 202.4,184.4 L 204.9,185.4 L 207.4,186.4 L 209.9,187.4 L 212.4,188.4 L 214.9,189.4 L 217.4,190.4 L 219.9,191.4 L 222.4,192.4 L 224.9,193.4 L 227.4,194.5 L 229.9,195.5 L 232.4,196.5 L 234.8,197.5 L 237.3,198.5 L 239.8,199.6 L 242.3,200.6 L 244.8,201.6 L 247.3,202.6 L 249.8,203.7 L 252.3,204.7 L 254.8,205.7 L 257.3,206.8 L 259.8,207.8 L 262.3,208.8 L 264.8,209.8 L 267.3,210.9 L 269.8,211.9 L 272.3,212.9 L 274.8,213.9 L 277.3,215.0 L 279.8,216.0 L 282.3,217.0 L 284.8,218.0 L 287.3,219.1 L 289.8,220.1 L 292.3,221.1 L 294.8,222.1 L 297.3,223.1 L 299.8,224.1 L 302.3,225.1 L 304.8,226.2 L 307.3,227.2 L 309.8,228.2 L 312.3,229.2 L 314.8,230.2 L 317.3,231.2 L 319.8,232.2 L 322.3,233.2 L 324.8,234.2 L 327.3,235.2 L 329.8,236.2 L 332.3,237.1 L 334.8,238.1 L 337.3,239.1 L 339.8,240.1 L 342.3,241.1 L 344.7,242.0 L 347.2,243.0 L 349.7,244.0 L 352.2,245.0 L 354.7,245.9 L 357.2,246.9 L 359.7,247.9 L 362.2,248.8 L 364.7,249.8 L 367.2,250.7 L 369.7,251.7 L 372.2,252.6 L 374.7,253.6 L 377.2,254.5 L 379.7,255.5 L 382.2,256.4 L 384.7,257.3 L 387.2,258.3 L 389.7,259.2 L 392.2,260.1 L 394.7,261.0 L 397.2,262.0 L 399.7,262.9 L 402.2,263.8 L 404.7,264.7 L 407.2,265.6 L 409.7,266.5 L 412.2,267.4 L 414.7,268.3 L 417.2,269.2 L 419.7,270.1 L 422.2,271.0 L 424.7,271.9 L 427.2,272.8 L 429.7,273.7 L 432.2,274.6 L 434.7,275.4 L 437.2,276.3 L 439.7,277.2 L 442.2,278.1 L 444.7,278.9 L 447.2,279.8 L 449.7,280.7 L 452.2,281.6 L 454.6,282.4 L 457.1,283.3 L 459.6,284.1 L 462.1,285.0 L 464.6,285.9 L 467.1,286.7 L 469.6,287.6 L 472.1,288.4 L 474.6,289.3 L 477.1,290.1 L 479.6,291.0 L 482.1,291.9 L 484.6,292.7 L 487.1,293.6 L 489.6,294.4 L 492.1,295.3 L 494.6,296.1 L 497.1,297.0 L 499.6,297.9 L 502.1,298.7 L 504.6,299.6 L 507.1,300.5 L 509.6,301.4 L 512.1,302.3 L 514.6,303.2 L 517.1,304.1 L 519.6,305.0 L 522.1,305.9 L 524.6,306.8 L 527.1,307.8 L 529.6,308.8 L 532.1,309.7 L 534.6,310.8 L 537.1,311.8 L 539.6,312.8 L 542.1,313.9 L 544.6,315.0 L 547.1,316.2 L 549.6,317.4 L 552.1,318.6 L 554.6,319.8 L 557.1,321.0 L 559.6,322.3 L 562.1,323.5 L 564.5,324.8 L 567.0,326.0 L 569.5,327.2 L 572.0,328.3 L 574.5,329.5 L 577.0,330.5 L 579.5,331.5 L 582.0,332.5 L 584.5,333.4 L 587.0,334.2 L 589.5,335.1 L 592.0,335.8 L 594.5,336.5 L 597.0,337.2 L 599.5,337.8 L 602.0,338.4 L 604.5,339.0 L 607.0,339.6 L 609.5,340.1 L 612.0,340.6 L 614.5,341.0 L 617.0,341.5" class="sig"/>
<path d="M 74.6,365.0 L 79.1,365.0 L 83.7,365.0 L 88.2,365.0 L 92.8,365.0 L 97.3,365.0 L 101.9,365.0 L 106.5,365.0 L 111.0,365.0 L 115.6,342.4 L 120.1,315.9 L 124.7,301.0 L 129.3,289.9 L 133.8,280.8 L 138.4,272.9 L 142.9,265.9 L 147.5,259.5 L 152.1,253.6 L 156.6,248.2 L 161.2,243.0 L 165.7,238.1 L 170.3,233.5 L 174.8,229.1 L 179.4,224.9 L 184.0,220.8 L 188.5,217.0 L 193.1,213.2 L 197.6,209.6 L 202.2,206.2 L 206.8,202.8 L 211.3,199.6 L 215.9,196.4 L 220.4,193.4 L 225.0,190.5 L 229.5,187.6 L 234.1,184.9 L 238.7,182.2 L 243.2,179.6 L 247.8,177.1 L 252.3,174.6 L 256.9,172.2 L 261.4,169.9 L 266.0,167.7 L 270.6,165.5 L 275.1,163.3 L 279.7,161.3 L 284.2,159.3 L 288.8,157.3 L 293.4,155.4 L 297.9,153.6 L 302.5,151.8 L 307.0,150.0 L 311.6,148.3 L 316.1,146.7 L 320.7,145.1 L 325.3,143.5 L 329.8,142.0 L 334.4,140.5 L 338.9,139.1 L 343.5,137.7 L 348.1,136.3 L 352.6,135.0 L 357.2,133.7 L 361.7,132.5 L 366.3,131.2 L 370.9,130.0 L 375.4,128.9 L 380.0,127.8 L 384.5,126.7 L 389.1,125.6 L 393.6,124.5 L 398.2,123.5 L 402.8,122.5 L 407.3,121.5 L 411.9,120.5 L 416.4,119.6 L 421.0,118.6 L 425.6,117.6 L 430.1,116.7 L 434.7,115.7 L 439.2,114.8 L 443.8,113.8 L 448.3,112.8 L 452.9,111.8 L 457.5,110.7 L 462.0,109.6 L 466.6,108.5 L 471.1,107.2 L 475.7,105.9 L 480.2,104.5 L 484.8,102.9 L 489.4,101.2 L 493.9,99.3 L 498.5,97.1 L 503.0,94.6 L 507.6,91.8 L 512.2,88.5 L 516.7,84.7 L 521.3,80.2 L 525.8,74.9 L 530.4,68.6 L 535.0,61.2 L 539.5,52.9 L 544.1,43.9 L 548.6,34.9 L 553.2,27.3 L 557.7,22.4 L 562.3,21.4 L 566.9,24.8 L 571.4,32.3 L 576.0,43.3 L 580.5,56.4 L 585.1,70.5 L 589.6,84.7 L 594.2,98.1 L 598.8,110.5 L 603.3,121.7 L 607.9,131.6 L 612.4,140.6 L 617.0,148.6" class="fw"/>
<line x1="137.4947582735257" y1="260.08654007729797" x2="137.4947582735257" y2="291.9668963199463" class="err"/>
<line x1="134.4947582735257" y1="260.08654007729797" x2="140.4947582735257" y2="260.08654007729797" class="err"/>
<line x1="134.4947582735257" y1="291.9668963199463" x2="140.4947582735257" y2="291.9668963199463" class="err"/>
<circle cx="137.4947582735257" cy="276.0267181986221" r="2.5" class="obs"/>
<line x1="204.98951654705135" y1="192.9919341287179" x2="204.98951654705135" y2="222.37187027390357" class="err"/>
<line x1="201.98951654705135" y1="192.9919341287179" x2="207.98951654705135" y2="192.9919341287179" class="err"/>
<line x1="201.98951654705135" y1="222.37187027390357" x2="207.98951654705135" y2="222.37187027390357" class="err"/>
<circle cx="204.98951654705135" cy="207.68190220131072" r="2.5" class="obs"/>
<line x1="272.48427482057707" y1="139.962191228365" x2="272.48427482057707" y2="177.46849269030417" class="err"/>
<line x1="269.48427482057707" y1="139.962191228365" x2="275.48427482057707" y2="139.962191228365" class="err"/>
<line x1="269.48427482057707" y1="177.46849269030417" x2="275.48427482057707" y2="177.46849269030417" class="err"/>
<circle cx="272.48427482057707" cy="158.71534195933458" r="2.5" class="obs"/>
<line x1="339.9790330941027" y1="117.87514703411193" x2="339.9790330941027" y2="155.79818517896155" class="err"/>
<line x1="336.9790330941027" y1="117.87514703411193" x2="342.9790330941027" y2="117.87514703411193" class="err"/>
<line x1="336.9790330941027" y1="155.79818517896155" x2="342.9790330941027" y2="155.79818517896155" class="err"/>
<circle cx="339.9790330941027" cy="136.83666610653677" r="2.5" class="obs"/>
<line x1="408.7972180004426" y1="95.2671819862208" x2="408.7972180004426" y2="134.64879852125694" class="err"/>
<line x1="405.7972180004426" y1="95.2671819862208" x2="411.7972180004426" y2="95.2671819862208" class="err"/>
<line x1="405.7972180004426" y1="134.64879852125694" x2="411.7972180004426" y2="134.64879852125694" class="err"/>
<circle cx="408.7972180004426" cy="114.95799025373887" r="2.5" class="obs"/>
<line x1="476.2919762739683" y1="83.18181818181819" x2="476.2919762739683" y2="125.89732818013782" class="err"/>
<line x1="473.2919762739683" y1="83.18181818181819" x2="479.2919762739683" y2="83.18181818181819" class="err"/>
<line x1="473.2919762739683" y1="125.89732818013782" x2="479.2919762739683" y2="125.89732818013782" class="err"/>
<circle cx="476.2919762739683" cy="104.53957318097801" r="2.5" class="obs"/>
<g class="legend">
<line x1="82" y1="69" x2="106" y2="69" class="fw"/>
<text x="112" y="73" class="lbl-l">framework fit</text>
<circle cx="94" cy="105" r="2.5" class="obs"/>
<text x="112" y="109" class="lbl">observed V±err</text>
</g>
<g class="legend">
<line x1="472" y1="69" x2="496" y2="69" class="rho"/>
<text x="502" y="73" class="lbl-r">ρ(r) raw</text>
<line x1="472" y1="87" x2="496" y2="87" class="sig"/>
<text x="502" y="91" class="lbl-s">Σ(r) cumulative</text>
<text x="472" y="113" class="lbl-r">ρ peak: 0.54 (raw)</text>
</g>
<rect x="705" y="55" width="170" height="170" class="preview-bg"/>
<defs><radialGradient id="g_D564_8" cx="0.5" cy="0.5" r="0.5">
  <stop offset="0.0000" stop-color="rgb(0,0,0)"/>
  <stop offset="0.0312" stop-color="rgb(0,0,0)"/>
  <stop offset="0.0625" stop-color="rgb(0,0,0)"/>
  <stop offset="0.0938" stop-color="rgb(0,0,0)"/>
  <stop offset="0.1250" stop-color="rgb(0,0,0)"/>
  <stop offset="0.1562" stop-color="rgb(0,0,0)"/>
  <stop offset="0.1875" stop-color="rgb(0,0,0)"/>
  <stop offset="0.2188" stop-color="rgb(0,0,0)"/>
  <stop offset="0.2500" stop-color="rgb(0,0,0)"/>
  <stop offset="0.2812" stop-color="rgb(0,0,0)"/>
  <stop offset="0.3125" stop-color="rgb(0,0,0)"/>
  <stop offset="0.3438" stop-color="rgb(0,0,0)"/>
  <stop offset="0.3750" stop-color="rgb(0,0,0)"/>
  <stop offset="0.4062" stop-color="rgb(0,0,0)"/>
  <stop offset="0.4375" stop-color="rgb(0,0,0)"/>
  <stop offset="0.4688" stop-color="rgb(0,0,0)"/>
  <stop offset="0.5000" stop-color="rgb(0,0,0)"/>
  <stop offset="0.5312" stop-color="rgb(0,0,0)"/>
  <stop offset="0.5625" stop-color="rgb(0,0,0)"/>
  <stop offset="0.5938" stop-color="rgb(0,0,0)"/>
  <stop offset="0.6250" stop-color="rgb(0,0,0)"/>
  <stop offset="0.6562" stop-color="rgb(0,0,0)"/>
  <stop offset="0.6875" stop-color="rgb(0,0,0)"/>
  <stop offset="0.7188" stop-color="rgb(0,0,0)"/>
  <stop offset="0.7500" stop-color="rgb(0,0,0)"/>
  <stop offset="0.7812" stop-color="rgb(0,0,0)"/>
  <stop offset="0.8125" stop-color="rgb(0,0,0)"/>
  <stop offset="0.8438" stop-color="rgb(0,0,0)"/>
  <stop offset="0.8750" stop-color="rgb(0,0,0)"/>
  <stop offset="0.9062" stop-color="rgb(0,0,0)"/>
  <stop offset="0.9375" stop-color="rgb(0,0,0)"/>
  <stop offset="0.9688" stop-color="rgb(0,0,0)"/>
  <stop offset="1.0000" stop-color="rgb(0,0,0)"/>
</radialGradient></defs>
<circle cx="790.0" cy="140.0" r="81.0" fill="url(#g_D564_8)"/>
<text x="790.0" y="49" text-anchor="middle" class="preview-lbl">face-on luminance from ρ(r)</text>
<text x="790.0" y="239" text-anchor="middle" class="preview-lbl">edge at r = 3.9 kpc</text>
</svg>