<svg xmlns="http://www.w3.org/2000/svg" viewBox="0 0 960 450" width="960" height="450" font-family="sans-serif" font-size="12">
<style>
  .ax { stroke: #333; stroke-width: 1; fill: none; }
  .grid { stroke: #ddd; stroke-width: 0.5; fill: none; }
  .lbl { fill: #333; }
  .lbl-l { fill: #0066cc; }
  .lbl-r { fill: #b03030; }
  .obs { fill: #222; }
  .err { stroke: #555; stroke-width: 0.8; fill: none; }
  .fw { stroke: #0066cc; stroke-width: 2.2; fill: none; }
  .nt { stroke: #cc6600; stroke-width: 1.6; fill: none; stroke-dasharray: 5,3; }
  .mond { stroke: #7b2cbf; stroke-width: 1.8; fill: none; stroke-dasharray: 7,3; }
  .lbl-p { fill: #cc7000; }
  .lbl-m { fill: #7b2cbf; }
  .rho { stroke: #b03030; stroke-width: 2.0; fill: none; }
  .phot { stroke: #cc7000; stroke-width: 1.8; fill: none; }
  .mbar { stroke: #8e44ad; stroke-width: 1.8; fill: none; opacity: 0.9; }
  .mph { stroke: #c77dff; stroke-width: 1.6; fill: none; stroke-dasharray: 4,3; opacity: 0.95; }
  .title { fill: #111; font-size: 16px; font-weight: 600; }
  .subtitle { fill: #555; font-size: 11px; }
  .preview-bg { fill: #000; }
  .preview-lbl { fill: #888; font-size: 10px; }
  .legend { font-size: 11px; }
</style>
<text x="378.5" y="22" text-anchor="middle" class="title">D631-7</text>
<text x="378.5" y="38" text-anchor="middle" class="subtitle">rMax=7.2 kpc, N=16, FW=0.7 km/s, 1.3%, 0.19σ, MOND=10.5 km/s, 55.2%, 5.48σ, amp=104</text>
<line x1="70" y1="395.0" x2="687" y2="395.0" class="grid"/>
<text x="64" y="399.0" text-anchor="end" class="lbl-l">0</text>
<line x1="70" y1="327.0" x2="687" y2="327.0" class="grid"/>
<text x="64" y="331.0" text-anchor="end" class="lbl-l">14</text>
<line x1="70" y1="259.0" x2="687" y2="259.0" class="grid"/>
<text x="64" y="263.0" text-anchor="end" class="lbl-l">27</text>
<line x1="70" y1="191.0" x2="687" y2="191.0" class="grid"/>
<text x="64" y="195.0" text-anchor="end" class="lbl-l">41</text>
<line x1="70" y1="123.0" x2="687" y2="123.0" class="grid"/>
<text x="64" y="127.0" text-anchor="end" class="lbl-l">55</text>
<line x1="70" y1="55.0" x2="687" y2="55.0" class="grid"/>
<text x="64" y="59.0" text-anchor="end" class="lbl-l">69</text>
<text x="693" y="399.0" text-anchor="start" class="lbl-r">0.0</text>
<text x="693" y="353.7" text-anchor="start" class="lbl-r">0.2</text>
<text x="693" y="308.3" text-anchor="start" class="lbl-r">0.4</text>
<text x="693" y="263.0" text-anchor="start" class="lbl-r">0.6</text>
<text x="693" y="217.7" text-anchor="start" class="lbl-r">0.8</text>
<text x="693" y="172.3" text-anchor="start" class="lbl-r">1.0</text>
<line x1="70.0" y1="55" x2="70.0" y2="395" class="grid"/>
<text x="70.0" y="411" text-anchor="middle" class="lbl">0.0</text>
<line x1="172.8" y1="55" x2="172.8" y2="395" class="grid"/>
<text x="172.8" y="411" text-anchor="middle" class="lbl">1.3</text>
<line x1="275.7" y1="55" x2="275.7" y2="395" class="grid"/>
<text x="275.7" y="411" text-anchor="middle" class="lbl">2.5</text>
<line x1="378.5" y1="55" x2="378.5" y2="395" class="grid"/>
<text x="378.5" y="411" text-anchor="middle" class="lbl">3.8</text>
<line x1="481.3" y1="55" x2="481.3" y2="395" class="grid"/>
<text x="481.3" y="411" text-anchor="middle" class="lbl">5.1</text>
<line x1="584.2" y1="55" x2="584.2" y2="395" class="grid"/>
<text x="584.2" y="411" text-anchor="middle" class="lbl">6.3</text>
<line x1="687.0" y1="55" x2="687.0" y2="395" class="grid"/>
<text x="687.0" y="411" text-anchor="middle" class="lbl">7.6</text>
<text x="378.5" y="438" text-anchor="middle" class="lbl">radius (kpc)</text>
<text x="16" y="225" text-anchor="middle" class="lbl-l" transform="rotate(-90, 16, 225)">velocity (km/s)</text>
<text x="724" y="225" text-anchor="middle" class="lbl-r" transform="rotate(-90, 724, 225)">profiles (normalized to peak)</text>
<rect x="70" y="55" width="617" height="340" class="ax"/>
<path d="M 70.0,168.3 L 72.8,168.3 L 75.6,168.3 L 78.5,168.3 L 81.3,168.3 L 84.1,168.3 L 86.9,168.3 L 89.7,168.3 L 92.5,168.3 L 95.4,168.3 L 98.2,168.3 L 101.0,168.3 L 103.8,168.3 L 106.6,168.3 L 109.4,168.3 L 112.3,168.3 L 115.1,168.3 L 117.9,168.3 L 120.7,168.3 L 123.5,168.3 L 126.3,168.3 L 129.2,168.3 L 132.0,168.3 L 134.8,168.3 L 137.6,168.3 L 140.4,168.3 L 143.3,168.3 L 146.1,168.3 L 148.9,168.3 L 151.7,168.3 L 154.5,168.3 L 157.3,168.7 L 160.2,171.0 L 163.0,173.3 L 165.8,175.6 L 168.6,177.9 L 171.4,180.2 L 174.2,181.9 L 177.1,182.4 L 179.9,183.0 L 182.7,183.6 L 185.5,184.1 L 188.3,184.7 L 191.1,185.3 L 194.0,185.8 L 196.8,186.4 L 199.6,187.0 L 202.4,187.5 L 205.2,188.1 L 208.1,188.7 L 210.9,189.2 L 213.7,189.8 L 216.5,190.4 L 219.3,190.9 L 222.1,191.5 L 225.0,192.1 L 227.8,192.6 L 230.6,193.2 L 233.4,193.8 L 236.2,194.3 L 239.0,194.9 L 241.9,195.5 L 244.7,196.0 L 247.5,196.6 L 250.3,197.2 L 253.1,197.7 L 255.9,198.3 L 258.8,198.9 L 261.6,199.4 L 264.4,200.0 L 267.2,200.6 L 270.0,201.1 L 272.8,201.7 L 275.7,202.3 L 278.5,202.8 L 281.3,203.4 L 284.1,204.0 L 286.9,204.5 L 289.8,205.1 L 292.6,205.7 L 295.4,206.2 L 298.2,206.8 L 301.0,207.4 L 303.8,207.9 L 306.7,208.5 L 309.5,209.1 L 312.3,209.6 L 315.1,210.2 L 317.9,210.8 L 320.7,211.3 L 323.6,211.9 L 326.4,212.5 L 329.2,213.0 L 332.0,213.6 L 334.8,214.2 L 337.6,214.7 L 340.5,215.3 L 343.3,215.9 L 346.1,216.4 L 348.9,217.0 L 351.7,217.6 L 354.6,218.1 L 357.4,218.7 L 360.2,219.3 L 363.0,219.8 L 365.8,220.4 L 368.6,221.0 L 371.5,221.5 L 374.3,222.1 L 377.1,222.7 L 379.9,223.2 L 382.7,223.8 L 385.5,224.4 L 388.4,224.9 L 391.2,225.5 L 394.0,226.1 L 396.8,226.6 L 399.6,227.2 L 402.4,227.8 L 405.3,228.3 L 408.1,228.9 L 410.9,229.5 L 413.7,230.0 L 416.5,230.6 L 419.4,231.2 L 422.2,231.7 L 425.0,232.3 L 427.8,232.9 L 430.6,233.4 L 433.4,234.0 L 436.3,234.6 L 439.1,235.1 L 441.9,235.7 L 444.7,236.3 L 447.5,236.8 L 450.3,237.4 L 453.2,238.0 L 456.0,238.9 L 458.8,239.9 L 461.6,240.8 L 464.4,241.8 L 467.2,242.7 L 470.1,243.6 L 472.9,244.6 L 475.7,245.5 L 478.5,246.4 L 481.3,247.4 L 484.2,248.3 L 487.0,249.3 L 489.8,250.2 L 492.6,251.1 L 495.4,252.1 L 498.2,253.0 L 501.1,253.9 L 503.9,254.9 L 506.7,255.8 L 509.5,256.8 L 512.3,257.7 L 515.1,258.6 L 518.0,259.6 L 520.8,260.5 L 523.6,261.5 L 526.4,262.4 L 529.2,263.3 L 532.0,264.3 L 534.9,265.2 L 537.7,266.1 L 540.5,267.1 L 543.3,268.0 L 546.1,269.0 L 548.9,269.9 L 551.8,270.8 L 554.6,271.8 L 557.4,272.7 L 560.2,273.7 L 563.0,274.6 L 565.9,275.5 L 568.7,276.5 L 571.5,277.4 L 574.3,278.3 L 577.1,279.3 L 579.9,280.2 L 582.8,281.2 L 585.6,282.1 L 588.4,283.0 L 591.2,284.0 L 594.0,284.9 L 596.8,285.8 L 599.7,286.8 L 602.5,287.7 L 605.3,288.7 L 608.1,289.6 L 610.9,290.5 L 613.7,291.5 L 616.6,292.4 L 619.4,293.4 L 622.2,294.3 L 625.0,295.2 L 627.8,296.2 L 630.7,297.1 L 633.5,298.0 L 636.3,299.0 L 639.1,299.9 L 641.9,300.9 L 644.7,301.8 L 647.6,302.7 L 650.4,303.7 L 653.2,326.0 L 656.0,369.9 L 658.8,395.0 L 661.6,395.0 L 664.5,395.0 L 667.3,395.0 L 670.1,395.0 L 672.9,395.0 L 675.7,395.0 L 678.5,395.0 L 681.4,395.0 L 684.2,395.0 L 687.0,395.0" class="rho"/>
<path d="M 106.5,168.3 L 143.0,224.2 L 179.5,289.1 L 215.9,355.9 L 252.4,376.7 L 288.1,385.2 L 324.6,390.3 L 361.1,391.8 L 397.6,393.4 L 434.0,394.1 L 470.5,394.6 L 507.0,394.7 L 543.5,394.9 L 580.0,394.9 L 616.5,395.0 L 653.0,395.0" class="phot"/>
<path d="M 106.5,207.2 L 143.0,172.6 L 179.5,168.3 L 215.9,220.5 L 252.4,279.2 L 288.1,314.7 L 324.6,339.2 L 361.1,355.9 L 397.6,367.1 L 434.0,376.8 L 470.5,383.5 L 507.0,388.2 L 543.5,391.6 L 580.0,393.6 L 616.5,394.7 L 653.0,395.0" class="mbar"/>
<path d="M 106.5,186.0 L 143.0,170.4 L 179.5,168.3 L 215.9,191.9 L 252.4,221.0 L 288.1,242.9 L 324.6,261.7 L 361.1,277.0 L 397.6,290.0 L 434.0,302.4 L 470.5,312.8 L 507.0,321.9 L 543.5,329.8 L 580.0,336.2 L 616.5,341.9 L 653.0,345.9" class="mph"/>
<path d="M 76.2,359.9 L 82.3,345.4 L 88.5,334.2 L 94.7,324.8 L 100.8,316.5 L 107.0,309.1 L 113.2,302.2 L 119.4,295.8 L 125.5,289.7 L 131.7,284.0 L 137.9,278.6 L 144.0,273.5 L 150.2,268.5 L 156.4,263.7 L 162.6,259.2 L 168.7,255.0 L 174.9,251.1 L 181.1,247.3 L 187.2,243.7 L 193.4,240.2 L 199.6,236.8 L 205.7,233.4 L 211.9,230.2 L 218.1,227.1 L 224.3,224.0 L 230.4,221.0 L 236.6,218.1 L 242.8,215.2 L 248.9,212.4 L 255.1,209.7 L 261.3,207.1 L 267.4,204.5 L 273.6,201.9 L 279.8,199.5 L 285.9,197.0 L 292.1,194.7 L 298.3,192.3 L 304.5,190.1 L 310.6,187.8 L 316.8,185.6 L 323.0,183.5 L 329.1,181.4 L 335.3,179.3 L 341.5,177.3 L 347.7,175.3 L 353.8,173.4 L 360.0,171.4 L 366.2,169.6 L 372.3,167.7 L 378.5,165.9 L 384.7,164.2 L 390.8,162.4 L 397.0,160.7 L 403.2,159.0 L 409.4,157.4 L 415.5,155.8 L 421.7,154.2 L 427.9,152.6 L 434.0,151.1 L 440.2,149.6 L 446.4,148.1 L 452.5,146.7 L 458.7,145.3 L 464.9,143.9 L 471.1,142.6 L 477.2,141.3 L 483.4,140.0 L 489.6,138.8 L 495.7,137.6 L 501.9,136.5 L 508.1,135.4 L 514.2,134.4 L 520.4,133.3 L 526.6,132.4 L 532.8,131.4 L 538.9,130.5 L 545.1,129.6 L 551.3,128.8 L 557.4,128.0 L 563.6,127.2 L 569.8,126.4 L 575.9,125.7 L 582.1,125.0 L 588.3,124.4 L 594.4,123.8 L 600.6,123.2 L 606.8,122.6 L 613.0,122.1 L 619.1,121.6 L 625.3,121.1 L 631.5,120.7 L 637.6,120.3 L 643.8,119.9 L 650.0,119.5 L 656.1,119.6 L 662.3,121.0 L 668.5,122.4 L 674.7,123.8 L 680.8,125.3 L 687.0,126.6" class="nt"/>
<path d="M 106.5,283.1 L 143.0,226.1 L 179.5,183.1 L 215.9,159.3 L 252.4,145.8 L 288.1,135.0 L 324.6,128.5 L 361.1,123.4 L 397.6,119.4 L 434.0,117.5 L 470.5,115.9 L 507.0,115.5 L 543.5,115.5 L 580.0,115.9 L 616.5,116.5 L 653.0,117.4" class="mond"/>
<path d="M 75.1,388.2 L 80.3,383.0 L 85.4,377.2 L 90.6,371.3 L 95.7,365.3 L 100.8,359.3 L 106.0,353.2 L 111.1,347.1 L 116.3,340.8 L 121.4,334.4 L 126.6,328.0 L 131.7,321.4 L 136.8,314.7 L 142.0,308.0 L 147.1,301.3 L 152.3,294.8 L 157.4,288.5 L 162.6,282.8 L 167.7,277.5 L 172.8,272.8 L 178.0,268.6 L 183.1,264.8 L 188.3,261.2 L 193.4,257.8 L 198.5,254.5 L 203.7,251.2 L 208.8,248.0 L 214.0,244.8 L 219.1,241.6 L 224.3,238.5 L 229.4,235.4 L 234.5,232.3 L 239.7,229.3 L 244.8,226.3 L 250.0,223.4 L 255.1,220.5 L 260.2,217.7 L 265.4,214.9 L 270.5,212.2 L 275.7,209.5 L 280.8,206.8 L 286.0,204.2 L 291.1,201.6 L 296.2,199.1 L 301.4,196.6 L 306.5,194.1 L 311.7,191.7 L 316.8,189.3 L 321.9,187.0 L 327.1,184.7 L 332.2,182.4 L 337.4,180.2 L 342.5,177.9 L 347.7,175.7 L 352.8,173.6 L 357.9,171.4 L 363.1,169.3 L 368.2,167.2 L 373.4,165.1 L 378.5,163.0 L 383.6,160.9 L 388.8,158.8 L 393.9,156.7 L 399.1,154.6 L 404.2,152.5 L 409.4,150.4 L 414.5,148.3 L 419.6,146.1 L 424.8,143.9 L 429.9,141.6 L 435.1,139.3 L 440.2,136.9 L 445.3,134.6 L 450.5,132.2 L 455.6,129.9 L 460.8,127.6 L 465.9,125.5 L 471.1,123.6 L 476.2,121.7 L 481.3,120.1 L 486.5,118.6 L 491.6,117.2 L 496.8,116.0 L 501.9,114.9 L 507.0,114.0 L 512.2,113.1 L 517.3,112.4 L 522.5,111.7 L 527.6,111.1 L 532.8,110.6 L 537.9,110.2 L 543.0,109.8 L 548.2,109.5 L 553.3,109.3 L 558.5,109.0 L 563.6,108.8 L 568.7,108.6 L 573.9,108.4 L 579.0,108.2 L 584.2,108.0 L 589.3,107.6 L 594.4,107.2 L 599.6,106.7 L 604.7,106.0 L 609.9,105.2 L 615.0,104.2 L 620.2,102.9 L 625.3,101.5 L 630.4,100.1 L 635.6,98.9 L 640.7,98.2 L 645.9,98.5 L 651.0,100.1 L 656.1,103.4 L 661.3,108.5 L 666.4,114.8 L 671.6,122.1 L 676.7,129.8 L 681.9,137.6 L 687.0,145.1" class="fw"/>
<line x1="106.49" y1="345.56" x2="106.49" y2="361.20" class="err"/>
<line x1="103.49" y1="345.56" x2="109.49" y2="345.56" class="err"/>
<line x1="103.49" y1="361.20" x2="109.49" y2="361.20" class="err"/>
<circle cx="106.49" cy="353.38" r="2.5" class="obs"/>
<line x1="142.97" y1="295.91" x2="142.97" y2="317.89" class="err"/>
<line x1="139.97" y1="295.91" x2="145.97" y2="295.91" class="err"/>
<line x1="139.97" y1="317.89" x2="145.97" y2="317.89" class="err"/>
<circle cx="142.97" cy="306.90" r="2.5" class="obs"/>
<line x1="179.46" y1="254.68" x2="179.46" y2="277.95" class="err"/>
<line x1="176.46" y1="254.68" x2="182.46" y2="254.68" class="err"/>
<line x1="176.46" y1="277.95" x2="182.46" y2="277.95" class="err"/>
<circle cx="179.46" cy="266.32" r="2.5" class="obs"/>
<line x1="215.94" y1="231.08" x2="215.94" y2="253.05" class="err"/>
<line x1="212.94" y1="231.08" x2="218.94" y2="231.08" class="err"/>
<line x1="212.94" y1="253.05" x2="218.94" y2="253.05" class="err"/>
<circle cx="215.94" cy="242.06" r="2.5" class="obs"/>
<line x1="252.43" y1="214.25" x2="252.43" y2="232.26" class="err"/>
<line x1="249.43" y1="214.25" x2="255.43" y2="214.25" class="err"/>
<line x1="249.43" y1="232.26" x2="255.43" y2="232.26" class="err"/>
<circle cx="252.43" cy="223.26" r="2.5" class="obs"/>
<line x1="288.10" y1="194.00" x2="288.10" y2="211.92" class="err"/>
<line x1="285.10" y1="194.00" x2="291.10" y2="194.00" class="err"/>
<line x1="285.10" y1="211.92" x2="291.10" y2="211.92" class="err"/>
<circle cx="288.10" cy="202.96" r="2.5" class="obs"/>
<line x1="324.59" y1="176.88" x2="324.59" y2="192.42" class="err"/>
<line x1="321.59" y1="176.88" x2="327.59" y2="176.88" class="err"/>
<line x1="321.59" y1="192.42" x2="327.59" y2="192.42" class="err"/>
<circle cx="324.59" cy="184.65" r="2.5" class="obs"/>
<line x1="361.07" y1="161.44" x2="361.07" y2="177.18" class="err"/>
<line x1="358.07" y1="161.44" x2="364.07" y2="161.44" class="err"/>
<line x1="358.07" y1="177.18" x2="364.07" y2="177.18" class="err"/>
<circle cx="361.07" cy="169.31" r="2.5" class="obs"/>
<line x1="397.56" y1="144.41" x2="397.56" y2="162.53" class="err"/>
<line x1="394.56" y1="144.41" x2="400.56" y2="144.41" class="err"/>
<line x1="394.56" y1="162.53" x2="400.56" y2="162.53" class="err"/>
<circle cx="397.56" cy="153.47" r="2.5" class="obs"/>
<line x1="434.04" y1="129.17" x2="434.04" y2="148.07" class="err"/>
<line x1="431.04" y1="129.17" x2="437.04" y2="129.17" class="err"/>
<line x1="431.04" y1="148.07" x2="437.04" y2="148.07" class="err"/>
<circle cx="434.04" cy="138.62" r="2.5" class="obs"/>
<line x1="470.53" y1="112.93" x2="470.53" y2="134.61" class="err"/>
<line x1="467.53" y1="112.93" x2="473.53" y2="112.93" class="err"/>
<line x1="467.53" y1="134.61" x2="473.53" y2="134.61" class="err"/>
<circle cx="470.53" cy="123.77" r="2.5" class="obs"/>
<line x1="507.01" y1="101.35" x2="507.01" y2="128.38" class="err"/>
<line x1="504.01" y1="101.35" x2="510.01" y2="101.35" class="err"/>
<line x1="504.01" y1="128.38" x2="510.01" y2="128.38" class="err"/>
<circle cx="507.01" cy="114.86" r="2.5" class="obs"/>
<line x1="543.50" y1="89.77" x2="543.50" y2="122.14" class="err"/>
<line x1="540.50" y1="89.77" x2="546.50" y2="89.77" class="err"/>
<line x1="540.50" y1="122.14" x2="546.50" y2="122.14" class="err"/>
<circle cx="543.50" cy="105.95" r="2.5" class="obs"/>
<line x1="579.98" y1="85.91" x2="579.98" y2="125.01" class="err"/>
<line x1="576.98" y1="85.91" x2="582.98" y2="85.91" class="err"/>
<line x1="576.98" y1="125.01" x2="582.98" y2="125.01" class="err"/>
<circle cx="579.98" cy="105.46" r="2.5" class="obs"/>
<line x1="616.47" y1="89.27" x2="616.47" y2="129.56" class="err"/>
<line x1="613.47" y1="89.27" x2="619.47" y2="89.27" class="err"/>
<line x1="613.47" y1="129.56" x2="619.47" y2="129.56" class="err"/>
<circle cx="616.47" cy="109.42" r="2.5" class="obs"/>
<line x1="652.96" y1="91.90" x2="652.96" y2="130.90" class="err"/>
<line x1="649.96" y1="91.90" x2="655.96" y2="91.90" class="err"/>
<line x1="649.96" y1="130.90" x2="655.96" y2="130.90" class="err"/>
<circle cx="652.96" cy="111.40" r="2.5" class="obs"/>
<g class="legend">
<line x1="82" y1="69" x2="106" y2="69" class="fw"/>
<text x="112" y="73" class="lbl-l">framework: 0.7 km/s, 1.3%, 0.19σ</text>
<line x1="82" y1="87" x2="106" y2="87" class="nt"/>
<text x="112" y="91" class="lbl-l">Newtonian: 3.9 km/s, 28.5%, 1.91σ</text>
<line x1="82" y1="105" x2="106" y2="105" class="mond"/>
<text x="112" y="109" class="lbl-m">MOND/RAR: 10.5 km/s, 55.2%, 5.48σ</text>
<circle cx="94" cy="123" r="2.5" class="obs"/>
<text x="112" y="127" class="lbl">observed V±err</text>
</g>
<g class="legend">
<line x1="472" y1="69" x2="496" y2="69" class="rho"/>
<text x="502" y="73" class="lbl-r">ρ(r) raw</text>
<line x1="472" y1="87" x2="496" y2="87" class="phot"/>
<text x="502" y="91" class="lbl-p">photometric baryonic profile</text>
<line x1="472" y1="105" x2="496" y2="105" class="mbar"/>
<text x="502" y="109" class="lbl-m">MOND baryonic annulus</text>
<line x1="472" y1="123" x2="496" y2="123" class="mph"/>
<text x="502" y="127" class="lbl-m">MOND phantom annulus</text>
<text x="472" y="147" class="lbl-r">ρ peak: 49 M☉/pc²</text>
<text x="472" y="163" class="lbl-p">phot peak: 13.03 (arb.)</text>
<text x="472" y="179" class="lbl-m">Σbar peak: 25.97 M☉/pc²</text>
<text x="472" y="195" class="lbl-m">Σphantom peak: 72.04 M☉/pc²</text>
</g>
<rect x="775" y="55" width="170" height="170" class="preview-bg"/>
<defs><radialGradient id="g_D631_7" cx="0.5" cy="0.5" r="0.5">
  <stop offset="0.0000" stop-color="rgb(117,29,29)"/>
  <stop offset="0.0313" stop-color="rgb(117,29,29)"/>
  <stop offset="0.0625" stop-color="rgb(117,29,29)"/>
  <stop offset="0.0938" stop-color="rgb(117,29,29)"/>
  <stop offset="0.1250" stop-color="rgb(117,29,29)"/>
  <stop offset="0.1563" stop-color="rgb(116,29,29)"/>
  <stop offset="0.1875" stop-color="rgb(113,28,28)"/>
  <stop offset="0.2188" stop-color="rgb(111,28,28)"/>
  <stop offset="0.2500" stop-color="rgb(110,28,28)"/>
  <stop offset="0.2813" stop-color="rgb(109,27,27)"/>
  <stop offset="0.3125" stop-color="rgb(108,27,27)"/>
  <stop offset="0.3438" stop-color="rgb(107,27,27)"/>
  <stop offset="0.3750" stop-color="rgb(106,27,27)"/>
  <stop offset="0.4063" stop-color="rgb(105,26,26)"/>
  <stop offset="0.4375" stop-color="rgb(104,26,26)"/>
  <stop offset="0.4688" stop-color="rgb(103,26,26)"/>
  <stop offset="0.5000" stop-color="rgb(102,26,26)"/>
  <stop offset="0.5313" stop-color="rgb(101,25,25)"/>
  <stop offset="0.5625" stop-color="rgb(99,25,25)"/>
  <stop offset="0.5938" stop-color="rgb(98,25,25)"/>
  <stop offset="0.6250" stop-color="rgb(97,24,24)"/>
  <stop offset="0.6563" stop-color="rgb(96,24,24)"/>
  <stop offset="0.6875" stop-color="rgb(94,24,24)"/>
  <stop offset="0.7188" stop-color="rgb(92,23,23)"/>
  <stop offset="0.7500" stop-color="rgb(91,23,23)"/>
  <stop offset="0.7813" stop-color="rgb(89,22,22)"/>
  <stop offset="0.8125" stop-color="rgb(87,22,22)"/>
  <stop offset="0.8438" stop-color="rgb(85,21,21)"/>
  <stop offset="0.8750" stop-color="rgb(83,21,21)"/>
  <stop offset="0.9063" stop-color="rgb(82,21,21)"/>
  <stop offset="0.9375" stop-color="rgb(80,20,20)"/>
  <stop offset="0.9688" stop-color="rgb(78,20,20)"/>
  <stop offset="1.0000" stop-color="rgb(0,0,0)"/>
</radialGradient></defs>
<circle cx="860" cy="140" r="81" fill="url(#g_D631_7)"/>
<text x="860" y="49" text-anchor="middle" class="preview-lbl">face-on luminance from ρ(r)</text>
<text x="860" y="239" text-anchor="middle" class="preview-lbl">edge at r = 7.2 kpc</text>
</svg>