<svg xmlns="http://www.w3.org/2000/svg" viewBox="0 0 890 420" width="890" height="420" font-family="sans-serif" font-size="12">
<style>
  .ax { stroke: #333; stroke-width: 1; fill: none; }
  .grid { stroke: #ddd; stroke-width: 0.5; fill: none; }
  .lbl { fill: #333; }
  .lbl-l { fill: #0066cc; }
  .lbl-r { fill: #b03030; }
  .obs { fill: #222; }
  .err { stroke: #555; stroke-width: 0.8; fill: none; }
  .fw { stroke: #0066cc; stroke-width: 2.2; fill: none; }
  .nt { stroke: #cc6600; stroke-width: 1.6; fill: none; stroke-dasharray: 5,3; }
  .lbl-s { fill: #cc7000; }
  .rho { stroke: #b03030; stroke-width: 2.0; fill: none; }
  .sig { stroke: #cc7000; stroke-width: 1.8; fill: none; }
  .title { fill: #111; font-size: 16px; font-weight: 600; }
  .subtitle { fill: #555; font-size: 11px; }
  .preview-bg { fill: #000; }
  .preview-lbl { fill: #888; font-size: 10px; }
  .legend { font-size: 11px; }
</style>
<text x="343.5" y="22" text-anchor="middle" class="title">DDO064</text>
<text x="343.5" y="38" text-anchor="middle" class="subtitle">rMax=3.0 kpc, N=14, RMS=0.8 km/s (2.3%), amp=105</text>
<line x1="70" y1="365.0" x2="617" y2="365.0" class="grid"/>
<text x="64" y="369.0" text-anchor="end" class="lbl-l">0</text>
<line x1="70" y1="303.0" x2="617" y2="303.0" class="grid"/>
<text x="64" y="307.0" text-anchor="end" class="lbl-l">12</text>
<line x1="70" y1="241.0" x2="617" y2="241.0" class="grid"/>
<text x="64" y="245.0" text-anchor="end" class="lbl-l">24</text>
<line x1="70" y1="179.0" x2="617" y2="179.0" class="grid"/>
<text x="64" y="183.0" text-anchor="end" class="lbl-l">37</text>
<line x1="70" y1="117.0" x2="617" y2="117.0" class="grid"/>
<text x="64" y="121.0" text-anchor="end" class="lbl-l">49</text>
<line x1="70" y1="55.0" x2="617" y2="55.0" class="grid"/>
<text x="64" y="59.0" text-anchor="end" class="lbl-l">61</text>
<text x="623" y="369.0" text-anchor="start" class="lbl-r">0.0</text>
<text x="623" y="327.7" text-anchor="start" class="lbl-r">0.2</text>
<text x="623" y="286.3" text-anchor="start" class="lbl-r">0.4</text>
<text x="623" y="245.0" text-anchor="start" class="lbl-r">0.6</text>
<text x="623" y="203.7" text-anchor="start" class="lbl-r">0.8</text>
<text x="623" y="162.3" text-anchor="start" class="lbl-r">1.0</text>
<line x1="70.0" y1="55" x2="70.0" y2="365" class="grid"/>
<text x="70.0" y="381" text-anchor="middle" class="lbl">0.0</text>
<line x1="161.2" y1="55" x2="161.2" y2="365" class="grid"/>
<text x="161.2" y="381" text-anchor="middle" class="lbl">0.5</text>
<line x1="252.3" y1="55" x2="252.3" y2="365" class="grid"/>
<text x="252.3" y="381" text-anchor="middle" class="lbl">1.0</text>
<line x1="343.5" y1="55" x2="343.5" y2="365" class="grid"/>
<text x="343.5" y="381" text-anchor="middle" class="lbl">1.6</text>
<line x1="434.7" y1="55" x2="434.7" y2="365" class="grid"/>
<text x="434.7" y="381" text-anchor="middle" class="lbl">2.1</text>
<line x1="525.8" y1="55" x2="525.8" y2="365" class="grid"/>
<text x="525.8" y="381" text-anchor="middle" class="lbl">2.6</text>
<line x1="617.0" y1="55" x2="617.0" y2="365" class="grid"/>
<text x="617.0" y="381" text-anchor="middle" class="lbl">3.1</text>
<text x="343.5" y="408" text-anchor="middle" class="lbl">radius (kpc)</text>
<text x="16" y="210" text-anchor="middle" class="lbl-l" transform="rotate(-90, 16, 210)">velocity (km/s)</text>
<text x="874" y="210" text-anchor="middle" class="lbl-r" transform="rotate(-90, 874, 210)">mass profile (normalized to peak)</text>
<rect x="70" y="55" width="547" height="310" class="ax"/>
<path d="M 70.0,158.3 L 72.5,160.1 L 75.0,161.8 L 77.5,163.5 L 80.0,165.3 L 82.5,167.0 L 85.0,168.7 L 87.5,170.4 L 90.0,172.2 L 92.5,173.9 L 95.0,175.6 L 97.5,177.4 L 100.0,179.1 L 102.5,180.8 L 105.0,182.6 L 107.5,184.3 L 110.0,186.0 L 112.5,187.7 L 115.0,189.5 L 117.5,191.2 L 120.0,192.9 L 122.5,194.7 L 124.9,196.4 L 127.4,198.1 L 129.9,199.9 L 132.4,201.6 L 134.9,203.3 L 137.4,205.1 L 139.9,205.3 L 142.4,205.3 L 144.9,205.3 L 147.4,205.3 L 149.9,205.3 L 152.4,205.3 L 154.9,205.3 L 157.4,205.3 L 159.9,205.3 L 162.4,205.3 L 164.9,205.3 L 167.4,205.3 L 169.9,205.3 L 172.4,205.3 L 174.9,205.3 L 177.4,205.3 L 179.9,205.4 L 182.4,205.4 L 184.9,205.4 L 187.4,205.4 L 189.9,205.4 L 192.4,205.4 L 194.9,205.5 L 197.4,205.5 L 199.9,205.5 L 202.4,205.5 L 204.9,205.5 L 207.4,205.5 L 209.9,205.6 L 212.4,205.6 L 214.9,205.6 L 217.4,205.6 L 219.9,205.6 L 222.4,205.6 L 224.9,205.7 L 227.4,205.7 L 229.9,205.7 L 232.4,205.7 L 234.8,205.7 L 237.3,205.7 L 239.8,205.8 L 242.3,205.8 L 244.8,205.8 L 247.3,205.8 L 249.8,205.8 L 252.3,205.8 L 254.8,205.9 L 257.3,205.9 L 259.8,205.9 L 262.3,205.9 L 264.8,205.9 L 267.3,206.0 L 269.8,206.0 L 272.3,206.0 L 274.8,206.0 L 277.3,206.0 L 279.8,206.3 L 282.3,207.0 L 284.8,207.7 L 287.3,208.4 L 289.8,209.1 L 292.3,209.8 L 294.8,210.5 L 297.3,211.2 L 299.8,211.9 L 302.3,212.6 L 304.8,213.3 L 307.3,213.9 L 309.8,214.6 L 312.3,215.3 L 314.8,216.0 L 317.3,216.7 L 319.8,217.4 L 322.3,218.1 L 324.8,218.8 L 327.3,219.5 L 329.8,220.2 L 332.3,220.9 L 334.8,221.6 L 337.3,222.3 L 339.8,223.0 L 342.3,223.7 L 344.7,224.4 L 347.2,225.1 L 349.7,225.7 L 352.2,226.4 L 354.7,227.1 L 357.2,227.8 L 359.7,228.5 L 362.2,229.2 L 364.7,229.9 L 367.2,230.6 L 369.7,231.3 L 372.2,232.0 L 374.7,232.7 L 377.2,233.4 L 379.7,234.1 L 382.2,234.8 L 384.7,235.5 L 387.2,236.2 L 389.7,236.9 L 392.2,237.6 L 394.7,238.2 L 397.2,238.9 L 399.7,239.6 L 402.2,240.3 L 404.7,241.0 L 407.2,241.7 L 409.7,242.4 L 412.2,243.1 L 414.7,243.8 L 417.2,244.5 L 419.7,245.2 L 422.2,245.9 L 424.7,246.6 L 427.2,247.3 L 429.7,248.0 L 432.2,248.7 L 434.7,249.4 L 437.2,250.0 L 439.7,250.7 L 442.2,251.4 L 444.7,252.1 L 447.2,252.8 L 449.7,253.5 L 452.2,254.2 L 454.6,254.9 L 457.1,255.6 L 459.6,256.3 L 462.1,257.0 L 464.6,257.7 L 467.1,258.4 L 469.6,259.1 L 472.1,259.8 L 474.6,260.5 L 477.1,261.2 L 479.6,261.8 L 482.1,262.5 L 484.6,263.2 L 487.1,263.9 L 489.6,264.6 L 492.1,265.3 L 494.6,266.0 L 497.1,266.7 L 499.6,267.4 L 502.1,268.1 L 504.6,268.8 L 507.1,269.5 L 509.6,270.2 L 512.1,270.9 L 514.6,271.6 L 517.1,272.3 L 519.6,273.0 L 522.1,273.7 L 524.6,274.3 L 527.1,275.0 L 529.6,275.7 L 532.1,276.4 L 534.6,277.1 L 537.1,277.8 L 539.6,278.5 L 542.1,279.2 L 544.6,279.9 L 547.1,280.6 L 549.6,281.3 L 552.1,282.0 L 554.6,282.7 L 557.1,283.4 L 559.6,284.1 L 562.1,284.8 L 564.5,285.5 L 567.0,286.1 L 569.5,286.8 L 572.0,287.5 L 574.5,288.2 L 577.0,288.9 L 579.5,289.6 L 582.0,290.3 L 584.5,291.0 L 587.0,309.2 L 589.5,344.7 L 592.0,365.0 L 594.5,365.0 L 597.0,365.0 L 599.5,365.0 L 602.0,365.0 L 604.5,365.0 L 607.0,365.0 L 609.5,365.0 L 612.0,365.0 L 614.5,365.0 L 617.0,365.0" class="rho"/>
<path d="M 70.0,158.3 L 72.5,158.4 L 75.0,158.5 L 77.5,158.7 L 80.0,158.9 L 82.5,159.2 L 85.0,159.5 L 87.5,159.9 L 90.0,160.3 L 92.5,160.7 L 95.0,161.3 L 97.5,161.8 L 100.0,162.4 L 102.5,163.0 L 105.0,163.6 L 107.5,164.2 L 110.0,164.9 L 112.5,165.6 L 115.0,166.2 L 117.5,166.9 L 120.0,167.6 L 122.5,168.3 L 124.9,169.0 L 127.4,169.6 L 129.9,170.3 L 132.4,171.0 L 134.9,171.6 L 137.4,172.2 L 139.9,172.8 L 142.4,173.4 L 144.9,174.0 L 147.4,174.6 L 149.9,175.1 L 152.4,175.6 L 154.9,176.1 L 157.4,176.6 L 159.9,177.1 L 162.4,177.6 L 164.9,178.1 L 167.4,178.6 L 169.9,179.0 L 172.4,179.5 L 174.9,180.0 L 177.4,180.4 L 179.9,180.9 L 182.4,181.3 L 184.9,181.8 L 187.4,182.2 L 189.9,182.7 L 192.4,183.1 L 194.9,183.6 L 197.4,184.1 L 199.9,184.5 L 202.4,185.0 L 204.9,185.5 L 207.4,186.0 L 209.9,186.4 L 212.4,186.9 L 214.9,187.4 L 217.4,187.9 L 219.9,188.5 L 222.4,189.0 L 224.9,189.5 L 227.4,190.0 L 229.9,190.6 L 232.4,191.1 L 234.8,191.7 L 237.3,192.3 L 239.8,192.9 L 242.3,193.5 L 244.8,194.1 L 247.3,194.7 L 249.8,195.4 L 252.3,196.0 L 254.8,196.7 L 257.3,197.4 L 259.8,198.1 L 262.3,198.8 L 264.8,199.6 L 267.3,200.3 L 269.8,201.1 L 272.3,201.9 L 274.8,202.7 L 277.3,203.6 L 279.8,204.4 L 282.3,205.3 L 284.8,206.2 L 287.3,207.1 L 289.8,208.0 L 292.3,209.0 L 294.8,210.0 L 297.3,210.9 L 299.8,211.9 L 302.3,212.9 L 304.8,214.0 L 307.3,215.0 L 309.8,216.0 L 312.3,217.1 L 314.8,218.2 L 317.3,219.2 L 319.8,220.3 L 322.3,221.4 L 324.8,222.5 L 327.3,223.6 L 329.8,224.7 L 332.3,225.8 L 334.8,226.9 L 337.3,228.0 L 339.8,229.2 L 342.3,230.3 L 344.7,231.4 L 347.2,232.5 L 349.7,233.7 L 352.2,234.8 L 354.7,235.9 L 357.2,237.1 L 359.7,238.2 L 362.2,239.3 L 364.7,240.5 L 367.2,241.6 L 369.7,242.8 L 372.2,243.9 L 374.7,245.0 L 377.2,246.2 L 379.7,247.3 L 382.2,248.4 L 384.7,249.5 L 387.2,250.7 L 389.7,251.8 L 392.2,252.9 L 394.7,254.0 L 397.2,255.1 L 399.7,256.2 L 402.2,257.3 L 404.7,258.4 L 407.2,259.5 L 409.7,260.6 L 412.2,261.7 L 414.7,262.8 L 417.2,263.9 L 419.7,265.0 L 422.2,266.0 L 424.7,267.1 L 427.2,268.2 L 429.7,269.2 L 432.2,270.3 L 434.7,271.3 L 437.2,272.4 L 439.7,273.4 L 442.2,274.5 L 444.7,275.5 L 447.2,276.5 L 449.7,277.5 L 452.2,278.6 L 454.6,279.6 L 457.1,280.6 L 459.6,281.6 L 462.1,282.6 L 464.6,283.5 L 467.1,284.5 L 469.6,285.5 L 472.1,286.5 L 474.6,287.4 L 477.1,288.4 L 479.6,289.4 L 482.1,290.3 L 484.6,291.2 L 487.1,292.2 L 489.6,293.1 L 492.1,294.0 L 494.6,295.0 L 497.1,295.9 L 499.6,296.8 L 502.1,297.7 L 504.6,298.6 L 507.1,299.5 L 509.6,300.4 L 512.1,301.3 L 514.6,302.1 L 517.1,303.0 L 519.6,303.9 L 522.1,304.8 L 524.6,305.6 L 527.1,306.5 L 529.6,307.3 L 532.1,308.2 L 534.6,309.0 L 537.1,309.9 L 539.6,310.7 L 542.1,311.5 L 544.6,312.4 L 547.1,313.2 L 549.6,314.1 L 552.1,314.9 L 554.6,315.7 L 557.1,316.6 L 559.6,317.4 L 562.1,318.2 L 564.5,319.1 L 567.0,319.9 L 569.5,320.7 L 572.0,321.6 L 574.5,322.4 L 577.0,323.3 L 579.5,324.1 L 582.0,324.9 L 584.5,325.8 L 587.0,326.6 L 589.5,327.4 L 592.0,328.2 L 594.5,328.9 L 597.0,329.7 L 599.5,330.4 L 602.0,331.1 L 604.5,331.8 L 607.0,332.4 L 609.5,333.0 L 612.0,333.6 L 614.5,334.2 L 617.0,334.8" class="sig"/>
<path d="M 75.5,333.6 L 80.9,320.8 L 86.4,311.2 L 91.9,303.3 L 97.3,296.5 L 102.8,290.4 L 108.3,285.0 L 113.8,280.0 L 119.2,275.5 L 124.7,271.3 L 130.2,267.4 L 135.6,263.8 L 141.1,260.4 L 146.6,257.0 L 152.1,253.8 L 157.5,250.6 L 163.0,247.4 L 168.5,244.3 L 173.9,241.3 L 179.4,238.3 L 184.9,235.4 L 190.3,232.6 L 195.8,229.8 L 201.3,227.0 L 206.8,224.3 L 212.2,221.7 L 217.7,219.1 L 223.2,216.5 L 228.6,214.0 L 234.1,211.5 L 239.6,209.1 L 245.0,206.6 L 250.5,204.3 L 256.0,201.9 L 261.5,199.6 L 266.9,197.3 L 272.4,195.1 L 277.9,192.9 L 283.3,190.7 L 288.8,188.6 L 294.3,186.5 L 299.7,184.5 L 305.2,182.6 L 310.7,180.7 L 316.1,178.9 L 321.6,177.1 L 327.1,175.4 L 332.6,173.7 L 338.0,172.1 L 343.5,170.5 L 349.0,169.0 L 354.4,167.5 L 359.9,166.0 L 365.4,164.6 L 370.9,163.2 L 376.3,161.8 L 381.8,160.5 L 387.3,159.3 L 392.7,158.0 L 398.2,156.8 L 403.7,155.6 L 409.1,154.5 L 414.6,153.4 L 420.1,152.3 L 425.6,151.3 L 431.0,150.2 L 436.5,149.3 L 442.0,148.3 L 447.4,147.4 L 452.9,146.5 L 458.4,145.6 L 463.8,144.7 L 469.3,143.9 L 474.8,143.1 L 480.3,142.4 L 485.7,141.6 L 491.2,140.9 L 496.7,140.2 L 502.1,139.5 L 507.6,138.9 L 513.1,138.3 L 518.5,137.7 L 524.0,137.1 L 529.5,136.6 L 535.0,136.1 L 540.4,135.6 L 545.9,135.1 L 551.4,134.6 L 556.8,134.2 L 562.3,133.8 L 567.8,133.4 L 573.2,133.1 L 578.7,132.7 L 584.2,132.4 L 589.6,132.5 L 595.1,133.7 L 600.6,134.8 L 606.1,136.0 L 611.5,137.3 L 617.0,138.4" class="nt"/>
<path d="M 74.6,355.1 L 79.1,347.7 L 83.7,339.7 L 88.2,332.0 L 92.8,324.7 L 97.3,318.1 L 101.9,312.0 L 106.5,306.6 L 111.0,301.8 L 115.6,297.7 L 120.1,294.3 L 124.7,291.5 L 129.3,289.5 L 133.8,288.0 L 138.4,287.0 L 142.9,286.4 L 147.5,286.0 L 152.1,285.6 L 156.6,285.1 L 161.2,284.4 L 165.7,283.6 L 170.3,282.5 L 174.8,281.2 L 179.4,279.8 L 184.0,278.1 L 188.5,276.2 L 193.1,274.1 L 197.6,271.9 L 202.2,269.5 L 206.8,266.9 L 211.3,264.2 L 215.9,261.2 L 220.4,258.2 L 225.0,254.9 L 229.5,251.5 L 234.1,247.9 L 238.7,244.1 L 243.2,240.2 L 247.8,236.0 L 252.3,231.7 L 256.9,227.2 L 261.5,222.4 L 266.0,217.5 L 270.6,212.4 L 275.1,207.3 L 279.7,202.2 L 284.2,197.2 L 288.8,192.3 L 293.4,187.7 L 297.9,183.4 L 302.5,179.3 L 307.0,175.5 L 311.6,172.0 L 316.1,168.7 L 320.7,165.6 L 325.3,162.7 L 329.8,159.9 L 334.4,157.4 L 338.9,155.0 L 343.5,152.7 L 348.1,150.6 L 352.6,148.6 L 357.2,146.7 L 361.7,145.0 L 366.3,143.3 L 370.9,141.8 L 375.4,140.3 L 380.0,139.0 L 384.5,137.7 L 389.1,136.5 L 393.6,135.4 L 398.2,134.4 L 402.8,133.4 L 407.3,132.6 L 411.9,131.8 L 416.4,131.0 L 421.0,130.3 L 425.6,129.7 L 430.1,129.2 L 434.7,128.7 L 439.2,128.3 L 443.8,127.9 L 448.3,127.5 L 452.9,127.2 L 457.5,127.0 L 462.0,126.8 L 466.6,126.6 L 471.1,126.5 L 475.7,126.4 L 480.2,126.4 L 484.8,126.3 L 489.4,126.3 L 493.9,126.3 L 498.5,126.3 L 503.0,126.3 L 507.6,126.3 L 512.2,126.3 L 516.7,126.2 L 521.3,126.1 L 525.8,126.0 L 530.4,125.7 L 535.0,125.4 L 539.5,124.9 L 544.1,124.2 L 548.6,123.4 L 553.2,122.4 L 557.7,121.1 L 562.3,119.7 L 566.9,118.2 L 571.4,116.8 L 576.0,116.0 L 580.5,115.9 L 585.1,117.2 L 589.6,120.0 L 594.2,124.3 L 598.8,129.9 L 603.3,136.2 L 607.9,143.0 L 612.4,149.9 L 617.0,156.5" class="fw"/>
<line x1="87.38" y1="309.65" x2="87.38" y2="356.53" class="err"/>
<line x1="84.38" y1="309.65" x2="90.38" y2="309.65" class="err"/>
<line x1="84.38" y1="356.53" x2="90.38" y2="356.53" class="err"/>
<circle cx="87.38" cy="333.09" r="2.5" class="obs"/>
<line x1="122.14" y1="271.04" x2="122.14" y2="317.92" class="err"/>
<line x1="119.14" y1="271.04" x2="125.14" y2="271.04" class="err"/>
<line x1="119.14" y1="317.92" x2="125.14" y2="317.92" class="err"/>
<circle cx="122.14" cy="294.48" r="2.5" class="obs"/>
<line x1="155.16" y1="262.42" x2="155.16" y2="309.30" class="err"/>
<line x1="152.16" y1="262.42" x2="158.16" y2="262.42" class="err"/>
<line x1="152.16" y1="309.30" x2="158.16" y2="309.30" class="err"/>
<circle cx="155.16" cy="285.86" r="2.5" class="obs"/>
<line x1="189.92" y1="248.21" x2="189.92" y2="295.09" class="err"/>
<line x1="186.92" y1="248.21" x2="192.92" y2="248.21" class="err"/>
<line x1="186.92" y1="295.09" x2="192.92" y2="295.09" class="err"/>
<circle cx="189.92" cy="271.65" r="2.5" class="obs"/>
<line x1="224.68" y1="227.41" x2="224.68" y2="274.29" class="err"/>
<line x1="221.68" y1="227.41" x2="227.68" y2="227.41" class="err"/>
<line x1="221.68" y1="274.29" x2="227.68" y2="274.29" class="err"/>
<circle cx="224.68" cy="250.85" r="2.5" class="obs"/>
<line x1="259.44" y1="207.12" x2="259.44" y2="254.00" class="err"/>
<line x1="256.44" y1="207.12" x2="262.44" y2="207.12" class="err"/>
<line x1="256.44" y1="254.00" x2="262.44" y2="254.00" class="err"/>
<circle cx="259.44" cy="230.56" r="2.5" class="obs"/>
<line x1="294.20" y1="162.48" x2="294.20" y2="209.35" class="err"/>
<line x1="291.20" y1="162.48" x2="297.20" y2="162.48" class="err"/>
<line x1="291.20" y1="209.35" x2="297.20" y2="209.35" class="err"/>
<circle cx="294.20" cy="185.91" r="2.5" class="obs"/>
<line x1="327.22" y1="136.10" x2="327.22" y2="182.97" class="err"/>
<line x1="324.22" y1="136.10" x2="330.22" y2="136.10" class="err"/>
<line x1="324.22" y1="182.97" x2="330.22" y2="182.97" class="err"/>
<circle cx="327.22" cy="159.53" r="2.5" class="obs"/>
<line x1="361.98" y1="115.95" x2="361.98" y2="165.57" class="err"/>
<line x1="358.98" y1="115.95" x2="364.98" y2="115.95" class="err"/>
<line x1="358.98" y1="165.57" x2="364.98" y2="165.57" class="err"/>
<circle cx="361.98" cy="140.76" r="2.5" class="obs"/>
<line x1="396.74" y1="106.67" x2="396.74" y2="153.55" class="err"/>
<line x1="393.74" y1="106.67" x2="399.74" y2="106.67" class="err"/>
<line x1="393.74" y1="153.55" x2="399.74" y2="153.55" class="err"/>
<circle cx="396.74" cy="130.11" r="2.5" class="obs"/>
<line x1="431.50" y1="106.16" x2="431.50" y2="153.04" class="err"/>
<line x1="428.50" y1="106.16" x2="434.50" y2="106.16" class="err"/>
<line x1="428.50" y1="153.04" x2="434.50" y2="153.04" class="err"/>
<circle cx="431.50" cy="129.60" r="2.5" class="obs"/>
<line x1="464.52" y1="106.67" x2="464.52" y2="153.55" class="err"/>
<line x1="461.52" y1="106.67" x2="467.52" y2="106.67" class="err"/>
<line x1="461.52" y1="153.55" x2="467.52" y2="153.55" class="err"/>
<circle cx="464.52" cy="130.11" r="2.5" class="obs"/>
<line x1="481.90" y1="95.46" x2="481.90" y2="163.74" class="err"/>
<line x1="478.90" y1="95.46" x2="484.90" y2="95.46" class="err"/>
<line x1="478.90" y1="163.74" x2="484.90" y2="163.74" class="err"/>
<circle cx="481.90" cy="129.60" r="2.5" class="obs"/>
<line x1="587.92" y1="83.18" x2="587.92" y2="170.95" class="err"/>
<line x1="584.92" y1="83.18" x2="590.92" y2="83.18" class="err"/>
<line x1="584.92" y1="170.95" x2="590.92" y2="170.95" class="err"/>
<circle cx="587.92" cy="127.07" r="2.5" class="obs"/>
<g class="legend">
<line x1="82" y1="69" x2="106" y2="69" class="fw"/>
<text x="112" y="73" class="lbl-l">framework fit</text>
<line x1="82" y1="87" x2="106" y2="87" class="nt"/>
<text x="112" y="91" class="lbl-l">Newtonian (no halo)</text>
<circle cx="94" cy="105" r="2.5" class="obs"/>
<text x="112" y="109" class="lbl">observed V±err</text>
</g>
<g class="legend">
<line x1="442" y1="69" x2="466" y2="69" class="rho"/>
<text x="472" y="73" class="lbl-r">ρ(r) raw</text>
<line x1="442" y1="87" x2="466" y2="87" class="sig"/>
<text x="472" y="91" class="lbl-s">Σ(r) cumulative</text>
<text x="442" y="113" class="lbl-r">ρ peak: 91 M☉/pc²</text>
</g>
<rect x="705" y="55" width="170" height="170" class="preview-bg"/>
<defs><radialGradient id="g_DDO064" cx="0.5" cy="0.5" r="0.5">
  <stop offset="0.0000" stop-color="rgb(175,43.75,43.75)"/>
  <stop offset="0.0313" stop-color="rgb(168,42,42)"/>
  <stop offset="0.0625" stop-color="rgb(161,40.25,40.25)"/>
  <stop offset="0.0938" stop-color="rgb(155,38.75,38.75)"/>
  <stop offset="0.1250" stop-color="rgb(148,37,37)"/>
  <stop offset="0.1563" stop-color="rgb(147,36.75,36.75)"/>
  <stop offset="0.1875" stop-color="rgb(147,36.75,36.75)"/>
  <stop offset="0.2188" stop-color="rgb(147,36.75,36.75)"/>
  <stop offset="0.2500" stop-color="rgb(146,36.5,36.5)"/>
  <stop offset="0.2813" stop-color="rgb(146,36.5,36.5)"/>
  <stop offset="0.3125" stop-color="rgb(146,36.5,36.5)"/>
  <stop offset="0.3438" stop-color="rgb(146,36.5,36.5)"/>
  <stop offset="0.3750" stop-color="rgb(146,36.5,36.5)"/>
  <stop offset="0.4063" stop-color="rgb(146,36.5,36.5)"/>
  <stop offset="0.4375" stop-color="rgb(143,35.75,35.75)"/>
  <stop offset="0.4688" stop-color="rgb(140,35,35)"/>
  <stop offset="0.5000" stop-color="rgb(137,34.25,34.25)"/>
  <stop offset="0.5313" stop-color="rgb(135,33.75,33.75)"/>
  <stop offset="0.5625" stop-color="rgb(132,33,33)"/>
  <stop offset="0.5938" stop-color="rgb(129,32.25,32.25)"/>
  <stop offset="0.6250" stop-color="rgb(127,31.75,31.75)"/>
  <stop offset="0.6563" stop-color="rgb(124,31,31)"/>
  <stop offset="0.6875" stop-color="rgb(121,30.25,30.25)"/>
  <stop offset="0.7188" stop-color="rgb(118,29.5,29.5)"/>
  <stop offset="0.7500" stop-color="rgb(116,29,29)"/>
  <stop offset="0.7813" stop-color="rgb(113,28.25,28.25)"/>
  <stop offset="0.8125" stop-color="rgb(110,27.5,27.5)"/>
  <stop offset="0.8438" stop-color="rgb(107,26.75,26.75)"/>
  <stop offset="0.8750" stop-color="rgb(105,26.25,26.25)"/>
  <stop offset="0.9063" stop-color="rgb(102,25.5,25.5)"/>
  <stop offset="0.9375" stop-color="rgb(99,24.75,24.75)"/>
  <stop offset="0.9688" stop-color="rgb(96,24,24)"/>
  <stop offset="1.0000" stop-color="rgb(0,0,0)"/>
</radialGradient></defs>
<circle cx="790" cy="140" r="81" fill="url(#g_DDO064)"/>
<text x="790" y="49" text-anchor="middle" class="preview-lbl">face-on luminance from ρ(r)</text>
<text x="790" y="239" text-anchor="middle" class="preview-lbl">edge at r = 3.0 kpc</text>
</svg>