<svg xmlns="http://www.w3.org/2000/svg" viewBox="0 0 960 450" width="960" height="450" font-family="sans-serif" font-size="12">
<style>
  .ax { stroke: #333; stroke-width: 1; fill: none; }
  .grid { stroke: #ddd; stroke-width: 0.5; fill: none; }
  .lbl { fill: #333; }
  .lbl-l { fill: #0066cc; }
  .lbl-r { fill: #b03030; }
  .obs { fill: #222; }
  .err { stroke: #555; stroke-width: 0.8; fill: none; }
  .fw { stroke: #0066cc; stroke-width: 2.2; fill: none; }
  .nt { stroke: #cc6600; stroke-width: 1.6; fill: none; stroke-dasharray: 5,3; }
  .mond { stroke: #7b2cbf; stroke-width: 1.8; fill: none; stroke-dasharray: 7,3; }
  .lbl-p { fill: #cc7000; }
  .lbl-m { fill: #7b2cbf; }
  .rho { stroke: #b03030; stroke-width: 2.0; fill: none; }
  .phot { stroke: #cc7000; stroke-width: 1.8; fill: none; }
  .mbar { stroke: #8e44ad; stroke-width: 1.8; fill: none; opacity: 0.9; }
  .mph { stroke: #c77dff; stroke-width: 1.6; fill: none; stroke-dasharray: 4,3; opacity: 0.95; }
  .remap-x { stroke: #cc2222; stroke-width: 1.5; fill: none; }
  .remap-link { stroke: #cc2222; stroke-width: 0.8; stroke-dasharray: 3,3; fill: none; opacity: 0.7; }
  .title { fill: #111; font-size: 16px; font-weight: 600; }
  .subtitle { fill: #555; font-size: 11px; }
  .preview-bg { fill: #000; }
  .preview-lbl { fill: #888; font-size: 10px; }
  .legend { font-size: 11px; }
</style>
<text x="378.5" y="22" text-anchor="middle" class="title">DDO154</text>
<text x="378.5" y="38" text-anchor="middle" class="subtitle">rMax=5.9 kpc, N=12, FW=0.6 km/s, 1.6%, 1.40σ, MOND=4.4 km/s, 20.4%, 9.44σ, amp=102</text>
<line x1="70" y1="395.0" x2="687" y2="395.0" class="grid"/>
<text x="64" y="399.0" text-anchor="end" class="lbl-l">0</text>
<line x1="70" y1="327.0" x2="687" y2="327.0" class="grid"/>
<text x="64" y="331.0" text-anchor="end" class="lbl-l">11</text>
<line x1="70" y1="259.0" x2="687" y2="259.0" class="grid"/>
<text x="64" y="263.0" text-anchor="end" class="lbl-l">22</text>
<line x1="70" y1="191.0" x2="687" y2="191.0" class="grid"/>
<text x="64" y="195.0" text-anchor="end" class="lbl-l">33</text>
<line x1="70" y1="123.0" x2="687" y2="123.0" class="grid"/>
<text x="64" y="127.0" text-anchor="end" class="lbl-l">44</text>
<line x1="70" y1="55.0" x2="687" y2="55.0" class="grid"/>
<text x="64" y="59.0" text-anchor="end" class="lbl-l">56</text>
<text x="693" y="399.0" text-anchor="start" class="lbl-r">0.0</text>
<text x="693" y="353.7" text-anchor="start" class="lbl-r">0.2</text>
<text x="693" y="308.3" text-anchor="start" class="lbl-r">0.4</text>
<text x="693" y="263.0" text-anchor="start" class="lbl-r">0.6</text>
<text x="693" y="217.7" text-anchor="start" class="lbl-r">0.8</text>
<text x="693" y="172.3" text-anchor="start" class="lbl-r">1.0</text>
<line x1="70.0" y1="55" x2="70.0" y2="395" class="grid"/>
<text x="70.0" y="411" text-anchor="middle" class="lbl">0.0</text>
<line x1="172.8" y1="55" x2="172.8" y2="395" class="grid"/>
<text x="172.8" y="411" text-anchor="middle" class="lbl">1.1</text>
<line x1="275.7" y1="55" x2="275.7" y2="395" class="grid"/>
<text x="275.7" y="411" text-anchor="middle" class="lbl">2.1</text>
<line x1="378.5" y1="55" x2="378.5" y2="395" class="grid"/>
<text x="378.5" y="411" text-anchor="middle" class="lbl">3.2</text>
<line x1="481.3" y1="55" x2="481.3" y2="395" class="grid"/>
<text x="481.3" y="411" text-anchor="middle" class="lbl">4.2</text>
<line x1="584.2" y1="55" x2="584.2" y2="395" class="grid"/>
<text x="584.2" y="411" text-anchor="middle" class="lbl">5.3</text>
<line x1="687.0" y1="55" x2="687.0" y2="395" class="grid"/>
<text x="687.0" y="411" text-anchor="middle" class="lbl">6.3</text>
<text x="378.5" y="438" text-anchor="middle" class="lbl">radius (kpc)</text>
<text x="16" y="225" text-anchor="middle" class="lbl-l" transform="rotate(-90, 16, 225)">velocity (km/s)</text>
<text x="724" y="225" text-anchor="middle" class="lbl-r" transform="rotate(-90, 724, 225)">profiles (normalized to peak)</text>
<rect x="70" y="55" width="617" height="340" class="ax"/>
<path d="M 70.0,168.3 L 72.8,170.4 L 75.6,172.5 L 78.5,174.6 L 81.3,176.7 L 84.1,178.7 L 86.9,180.8 L 89.7,182.9 L 92.5,185.0 L 95.4,187.1 L 98.2,189.1 L 101.0,191.2 L 103.8,193.3 L 106.6,195.4 L 109.4,197.5 L 112.3,199.5 L 115.1,201.6 L 117.9,203.7 L 120.7,205.8 L 123.5,207.4 L 126.3,207.4 L 129.2,207.4 L 132.0,207.4 L 134.8,207.4 L 137.6,207.4 L 140.4,207.4 L 143.3,207.4 L 146.1,207.4 L 148.9,207.4 L 151.7,207.8 L 154.5,208.4 L 157.3,209.0 L 160.2,209.6 L 163.0,210.2 L 165.8,210.8 L 168.6,211.4 L 171.4,212.0 L 174.2,212.6 L 177.1,213.2 L 179.9,213.8 L 182.7,214.4 L 185.5,215.0 L 188.3,215.6 L 191.1,216.2 L 194.0,216.8 L 196.8,217.4 L 199.6,218.0 L 202.4,218.6 L 205.2,219.2 L 208.1,219.8 L 210.9,220.4 L 213.7,221.0 L 216.5,221.6 L 219.3,222.2 L 222.1,222.8 L 225.0,223.4 L 227.8,224.0 L 230.6,224.6 L 233.4,225.2 L 236.2,225.8 L 239.0,226.4 L 241.9,227.0 L 244.7,227.5 L 247.5,228.1 L 250.3,228.7 L 253.1,229.3 L 255.9,229.9 L 258.8,230.5 L 261.6,231.1 L 264.4,231.7 L 267.2,232.3 L 270.0,232.9 L 272.8,233.5 L 275.7,234.1 L 278.5,234.7 L 281.3,235.3 L 284.1,235.9 L 286.9,236.5 L 289.8,237.1 L 292.6,237.7 L 295.4,238.3 L 298.2,238.9 L 301.0,239.5 L 303.8,240.1 L 306.7,240.7 L 309.5,241.3 L 312.3,241.9 L 315.1,242.5 L 317.9,243.1 L 320.7,243.7 L 323.6,244.4 L 326.4,245.1 L 329.2,245.7 L 332.0,246.4 L 334.8,247.1 L 337.6,247.8 L 340.5,248.4 L 343.3,249.1 L 346.1,249.8 L 348.9,250.5 L 351.7,251.1 L 354.6,251.8 L 357.4,252.5 L 360.2,253.2 L 363.0,253.8 L 365.8,254.5 L 368.6,255.2 L 371.5,255.9 L 374.3,256.5 L 377.1,257.2 L 379.9,257.9 L 382.7,258.6 L 385.5,259.3 L 388.4,259.9 L 391.2,260.6 L 394.0,261.3 L 396.8,262.0 L 399.6,262.6 L 402.4,263.3 L 405.3,264.0 L 408.1,264.7 L 410.9,265.3 L 413.7,266.0 L 416.5,266.7 L 419.4,267.4 L 422.2,268.0 L 425.0,268.7 L 427.8,269.4 L 430.6,270.1 L 433.4,270.7 L 436.3,271.4 L 439.1,272.1 L 441.9,272.8 L 444.7,273.4 L 447.5,274.1 L 450.3,274.8 L 453.2,275.5 L 456.0,276.1 L 458.8,276.8 L 461.6,277.5 L 464.4,278.2 L 467.2,278.9 L 470.1,279.5 L 472.9,280.2 L 475.7,280.9 L 478.5,281.6 L 481.3,282.2 L 484.2,282.9 L 487.0,283.6 L 489.8,284.3 L 492.6,284.9 L 495.4,285.6 L 498.2,286.3 L 501.1,287.0 L 503.9,287.6 L 506.7,288.3 L 509.5,289.0 L 512.3,289.7 L 515.1,290.3 L 518.0,291.0 L 520.8,291.7 L 523.6,292.4 L 526.4,293.0 L 529.2,293.7 L 532.0,294.4 L 534.9,295.1 L 537.7,295.8 L 540.5,296.4 L 543.3,297.1 L 546.1,297.8 L 548.9,298.5 L 551.8,299.1 L 554.6,299.8 L 557.4,300.5 L 560.2,301.2 L 563.0,301.8 L 565.9,302.5 L 568.7,303.2 L 571.5,303.9 L 574.3,304.5 L 577.1,305.2 L 579.9,305.9 L 582.8,306.6 L 585.6,307.2 L 588.4,307.9 L 591.2,308.6 L 594.0,309.3 L 596.8,309.9 L 599.7,310.6 L 602.5,311.3 L 605.3,312.0 L 608.1,312.7 L 610.9,313.3 L 613.7,314.0 L 616.6,314.7 L 619.4,315.4 L 622.2,321.1 L 625.0,326.9 L 627.8,332.8 L 630.7,338.7 L 633.5,344.6 L 636.3,350.5 L 639.1,356.4 L 641.9,362.2 L 644.7,368.1 L 647.6,374.0 L 650.4,379.9 L 653.2,385.8 L 656.0,391.6 L 658.8,395.0 L 661.6,395.0 L 664.5,395.0 L 667.3,395.0 L 670.1,395.0 L 672.9,395.0 L 675.7,395.0 L 678.5,395.0 L 681.4,395.0 L 684.2,395.0 L 687.0,395.0" class="rho"/>
<path d="M 117.9,168.3 L 166.7,316.5 L 214.5,377.1 L 262.4,390.9 L 311.2,393.9 L 359.1,394.7 L 407.9,394.9 L 455.8,395.0 L 503.6,395.0 L 552.5,395.0 L 600.3,395.0 L 648.2,395.0" class="phot"/>
<path d="M 117.9,168.3 L 166.7,198.8 L 214.5,236.4 L 262.4,262.2 L 311.2,278.4 L 359.1,282.4 L 407.9,291.3 L 455.8,324.7 L 503.6,360.1 L 552.5,378.7 L 600.3,387.7 L 648.2,392.1" class="mbar"/>
<path d="M 117.9,168.3 L 166.7,182.7 L 214.5,201.4 L 262.4,215.7 L 311.2,225.8 L 359.1,228.8 L 407.9,235.2 L 455.8,258.3 L 503.6,285.4 L 552.5,303.8 L 600.3,316.6 L 648.2,324.6" class="mph"/>
<path d="M 76.2,352.5 L 82.3,335.3 L 88.5,322.4 L 94.7,311.8 L 100.8,302.6 L 107.0,294.5 L 113.2,287.3 L 119.4,280.7 L 125.5,274.7 L 131.7,268.9 L 137.9,263.3 L 144.0,257.9 L 150.2,252.6 L 156.4,247.6 L 162.6,242.8 L 168.7,238.1 L 174.9,233.7 L 181.1,229.4 L 187.2,225.2 L 193.4,221.2 L 199.6,217.4 L 205.7,213.6 L 211.9,210.0 L 218.1,206.4 L 224.2,203.0 L 230.4,199.7 L 236.6,196.4 L 242.8,193.3 L 248.9,190.2 L 255.1,187.2 L 261.3,184.3 L 267.4,181.5 L 273.6,178.7 L 279.8,176.0 L 286.0,173.3 L 292.1,170.7 L 298.3,168.2 L 304.5,165.8 L 310.6,163.4 L 316.8,161.0 L 323.0,158.7 L 329.1,156.5 L 335.3,154.3 L 341.5,152.2 L 347.6,150.1 L 353.8,148.1 L 360.0,146.1 L 366.2,144.2 L 372.3,142.3 L 378.5,140.4 L 384.7,138.7 L 390.8,136.9 L 397.0,135.2 L 403.2,133.5 L 409.4,131.9 L 415.5,130.4 L 421.7,128.8 L 427.9,127.3 L 434.0,125.9 L 440.2,124.4 L 446.4,123.1 L 452.5,121.7 L 458.7,120.4 L 464.9,119.1 L 471.0,117.9 L 477.2,116.7 L 483.4,115.5 L 489.6,114.4 L 495.7,113.3 L 501.9,112.2 L 508.1,111.1 L 514.2,110.1 L 520.4,109.2 L 526.6,108.2 L 532.8,107.3 L 538.9,106.4 L 545.1,105.6 L 551.3,104.7 L 557.4,103.9 L 563.6,103.2 L 569.8,102.4 L 575.9,101.7 L 582.1,101.1 L 588.3,100.4 L 594.4,99.8 L 600.6,99.2 L 606.8,98.6 L 613.0,98.1 L 619.1,97.6 L 625.3,97.3 L 631.5,97.2 L 637.6,97.6 L 643.8,98.2 L 650.0,99.2 L 656.1,100.5 L 662.3,102.0 L 668.5,103.5 L 674.7,105.0 L 680.8,106.5 L 687.0,108.0" class="nt"/>
<path d="M 117.9,265.0 L 166.7,216.1 L 214.5,186.7 L 262.4,161.0 L 311.2,141.7 L 359.1,122.2 L 407.9,102.6 L 455.8,92.1 L 503.6,88.3 L 552.5,86.2 L 600.3,85.9 L 648.2,86.2" class="mond"/>
<path d="M 75.1,382.1 L 80.3,372.4 L 85.4,362.0 L 90.6,352.0 L 95.7,342.8 L 100.8,334.5 L 106.0,327.0 L 111.1,320.3 L 116.3,314.3 L 121.4,308.9 L 126.6,303.9 L 131.7,299.0 L 136.8,294.2 L 142.0,289.2 L 147.1,284.1 L 152.3,278.8 L 157.4,273.4 L 162.6,268.1 L 167.7,262.8 L 172.8,257.6 L 178.0,252.5 L 183.1,247.6 L 188.3,242.7 L 193.4,238.1 L 198.5,233.5 L 203.7,229.0 L 208.8,224.7 L 214.0,220.4 L 219.1,216.3 L 224.3,212.3 L 229.4,208.4 L 234.5,204.5 L 239.7,200.8 L 244.8,197.2 L 250.0,193.6 L 255.1,190.1 L 260.2,186.7 L 265.4,183.4 L 270.5,180.2 L 275.7,177.0 L 280.8,173.9 L 285.9,170.9 L 291.1,167.9 L 296.2,165.0 L 301.4,162.1 L 306.5,159.3 L 311.7,156.5 L 316.8,153.9 L 321.9,151.2 L 327.1,148.7 L 332.2,146.2 L 337.4,143.9 L 342.5,141.6 L 347.7,139.5 L 352.8,137.4 L 357.9,135.4 L 363.1,133.5 L 368.2,131.8 L 373.4,130.1 L 378.5,128.4 L 383.6,126.9 L 388.8,125.4 L 393.9,124.1 L 399.1,122.7 L 404.2,121.5 L 409.3,120.3 L 414.5,119.2 L 419.6,118.2 L 424.8,117.2 L 429.9,116.3 L 435.1,115.5 L 440.2,114.7 L 445.3,114.0 L 450.5,113.3 L 455.6,112.7 L 460.8,112.1 L 465.9,111.6 L 471.1,111.1 L 476.2,110.7 L 481.3,110.3 L 486.5,110.0 L 491.6,109.7 L 496.8,109.4 L 501.9,109.1 L 507.0,108.9 L 512.2,108.7 L 517.3,108.5 L 522.5,108.3 L 527.6,108.2 L 532.8,108.0 L 537.9,107.7 L 543.0,107.5 L 548.2,107.2 L 553.3,106.8 L 558.5,106.4 L 563.6,105.8 L 568.7,105.2 L 573.9,104.3 L 579.0,103.3 L 584.2,102.0 L 589.3,100.5 L 594.5,98.8 L 599.6,96.9 L 604.7,94.9 L 609.9,93.0 L 615.0,91.6 L 620.2,91.1 L 625.3,91.8 L 630.4,94.2 L 635.6,98.0 L 640.7,103.5 L 645.9,110.1 L 651.0,117.7 L 656.2,125.7 L 661.3,133.8 L 666.4,141.7 L 671.6,149.2 L 676.7,156.3 L 681.9,162.9 L 687.0,169.1" class="fw"/>
<line x1="117.86" y1="300.67" x2="117.86" y2="320.27" class="err"/>
<line x1="114.86" y1="300.67" x2="120.86" y2="300.67" class="err"/>
<line x1="114.86" y1="320.27" x2="120.86" y2="320.27" class="err"/>
<circle cx="117.86" cy="310.47" r="2.5" class="obs"/>
<line x1="166.69" y1="257.79" x2="166.69" y2="267.59" class="err"/>
<line x1="163.69" y1="257.79" x2="169.69" y2="257.79" class="err"/>
<line x1="163.69" y1="267.59" x2="169.69" y2="267.59" class="err"/>
<circle cx="166.69" cy="262.69" r="2.5" class="obs"/>
<line x1="214.54" y1="213.68" x2="214.54" y2="222.26" class="err"/>
<line x1="211.54" y1="213.68" x2="217.54" y2="213.68" class="err"/>
<line x1="211.54" y1="222.26" x2="217.54" y2="222.26" class="err"/>
<circle cx="214.54" cy="217.97" r="2.5" class="obs"/>
<line x1="262.40" y1="181.83" x2="262.40" y2="187.96" class="err"/>
<line x1="259.40" y1="181.83" x2="265.40" y2="181.83" class="err"/>
<line x1="259.40" y1="187.96" x2="265.40" y2="187.96" class="err"/>
<circle cx="262.40" cy="184.89" r="2.5" class="obs"/>
<line x1="311.23" y1="158.55" x2="311.23" y2="163.45" class="err"/>
<line x1="308.23" y1="158.55" x2="314.23" y2="158.55" class="err"/>
<line x1="308.23" y1="163.45" x2="314.23" y2="163.45" class="err"/>
<circle cx="311.23" cy="161.00" r="2.5" class="obs"/>
<line x1="359.08" y1="136.50" x2="359.08" y2="138.95" class="err"/>
<line x1="356.08" y1="136.50" x2="362.08" y2="136.50" class="err"/>
<line x1="356.08" y1="138.95" x2="362.08" y2="138.95" class="err"/>
<circle cx="359.08" cy="137.73" r="2.5" class="obs"/>
<line x1="407.92" y1="120.58" x2="407.92" y2="123.03" class="err"/>
<line x1="404.92" y1="120.58" x2="410.92" y2="120.58" class="err"/>
<line x1="404.92" y1="123.03" x2="410.92" y2="123.03" class="err"/>
<circle cx="407.92" cy="121.80" r="2.5" class="obs"/>
<line x1="455.77" y1="110.16" x2="455.77" y2="112.61" class="err"/>
<line x1="452.77" y1="110.16" x2="458.77" y2="110.16" class="err"/>
<line x1="452.77" y1="112.61" x2="458.77" y2="112.61" class="err"/>
<circle cx="455.77" cy="111.39" r="2.5" class="obs"/>
<line x1="503.63" y1="102.81" x2="503.63" y2="106.49" class="err"/>
<line x1="500.63" y1="102.81" x2="506.63" y2="102.81" class="err"/>
<line x1="500.63" y1="106.49" x2="506.63" y2="106.49" class="err"/>
<circle cx="503.63" cy="104.65" r="2.5" class="obs"/>
<line x1="552.46" y1="96.07" x2="552.46" y2="103.42" class="err"/>
<line x1="549.46" y1="96.07" x2="555.46" y2="96.07" class="err"/>
<line x1="549.46" y1="103.42" x2="555.46" y2="103.42" class="err"/>
<circle cx="552.46" cy="99.75" r="2.5" class="obs"/>
<line x1="600.31" y1="100.36" x2="600.31" y2="108.94" class="err"/>
<line x1="597.31" y1="100.36" x2="603.31" y2="100.36" class="err"/>
<line x1="597.31" y1="108.94" x2="603.31" y2="108.94" class="err"/>
<circle cx="600.31" cy="104.65" r="2.5" class="obs"/>
<line x1="648.17" y1="108.32" x2="648.17" y2="124.25" class="err"/>
<line x1="645.17" y1="108.32" x2="651.17" y2="108.32" class="err"/>
<line x1="645.17" y1="124.25" x2="651.17" y2="124.25" class="err"/>
<circle cx="648.17" cy="116.29" r="2.5" class="obs"/>
<g class="legend">
<line x1="82" y1="69" x2="106" y2="69" class="fw"/>
<text x="112" y="73" class="lbl-l">framework: 0.6 km/s, 1.6%, 1.40σ</text>
<line x1="82" y1="87" x2="106" y2="87" class="nt"/>
<text x="112" y="91" class="lbl-l">Newtonian: 2.2 km/s, 11.3%, 4.52σ</text>
<line x1="82" y1="105" x2="106" y2="105" class="mond"/>
<text x="112" y="109" class="lbl-m">MOND/RAR: 4.4 km/s, 20.4%, 9.44σ</text>
<circle cx="94" cy="123" r="2.5" class="obs"/>
<text x="112" y="127" class="lbl">observed V±err</text>
</g>
<g class="legend">
<line x1="472" y1="69" x2="496" y2="69" class="rho"/>
<text x="502" y="73" class="lbl-r">ρ(r) raw</text>
<line x1="472" y1="87" x2="496" y2="87" class="phot"/>
<text x="502" y="91" class="lbl-p">photometric baryonic profile</text>
<line x1="472" y1="105" x2="496" y2="105" class="mbar"/>
<text x="502" y="109" class="lbl-m">MOND baryonic annulus</text>
<line x1="472" y1="123" x2="496" y2="123" class="mph"/>
<text x="502" y="127" class="lbl-m">MOND phantom annulus</text>
<text x="472" y="147" class="lbl-r">ρ peak: 57 M☉/pc²</text>
<text x="472" y="163" class="lbl-p">phot peak: 7.96 (arb.)</text>
<text x="472" y="179" class="lbl-m">Σbar peak: 13.07 M☉/pc²</text>
<text x="472" y="195" class="lbl-m">Σphantom peak: 53.52 M☉/pc²</text>
</g>
<rect x="775" y="55" width="170" height="170" class="preview-bg"/>
<defs><radialGradient id="g_DDO154" cx="0.5" cy="0.5" r="0.5">
  <stop offset="0.0000" stop-color="rgb(128,32,32)"/>
  <stop offset="0.0313" stop-color="rgb(123,31,31)"/>
  <stop offset="0.0625" stop-color="rgb(119,30,30)"/>
  <stop offset="0.0938" stop-color="rgb(115,29,29)"/>
  <stop offset="0.1250" stop-color="rgb(115,29,29)"/>
  <stop offset="0.1563" stop-color="rgb(114,29,29)"/>
  <stop offset="0.1875" stop-color="rgb(112,28,28)"/>
  <stop offset="0.2188" stop-color="rgb(111,28,28)"/>
  <stop offset="0.2500" stop-color="rgb(110,28,28)"/>
  <stop offset="0.2813" stop-color="rgb(108,27,27)"/>
  <stop offset="0.3125" stop-color="rgb(107,27,27)"/>
  <stop offset="0.3438" stop-color="rgb(106,27,27)"/>
  <stop offset="0.3750" stop-color="rgb(104,26,26)"/>
  <stop offset="0.4063" stop-color="rgb(103,26,26)"/>
  <stop offset="0.4375" stop-color="rgb(102,26,26)"/>
  <stop offset="0.4688" stop-color="rgb(100,25,25)"/>
  <stop offset="0.5000" stop-color="rgb(99,25,25)"/>
  <stop offset="0.5313" stop-color="rgb(97,24,24)"/>
  <stop offset="0.5625" stop-color="rgb(96,24,24)"/>
  <stop offset="0.5938" stop-color="rgb(94,24,24)"/>
  <stop offset="0.6250" stop-color="rgb(93,23,23)"/>
  <stop offset="0.6563" stop-color="rgb(91,23,23)"/>
  <stop offset="0.6875" stop-color="rgb(90,23,23)"/>
  <stop offset="0.7188" stop-color="rgb(88,22,22)"/>
  <stop offset="0.7500" stop-color="rgb(86,22,22)"/>
  <stop offset="0.7813" stop-color="rgb(85,21,21)"/>
  <stop offset="0.8125" stop-color="rgb(83,21,21)"/>
  <stop offset="0.8438" stop-color="rgb(82,21,21)"/>
  <stop offset="0.8750" stop-color="rgb(80,20,20)"/>
  <stop offset="0.9063" stop-color="rgb(79,20,20)"/>
  <stop offset="0.9375" stop-color="rgb(76,19,19)"/>
  <stop offset="0.9688" stop-color="rgb(62,16,16)"/>
  <stop offset="1.0000" stop-color="rgb(0,0,0)"/>
</radialGradient></defs>
<circle cx="860" cy="140" r="81" fill="url(#g_DDO154)"/>
<text x="860" y="49" text-anchor="middle" class="preview-lbl">face-on luminance from ρ(r)</text>
<text x="860" y="239" text-anchor="middle" class="preview-lbl">edge at r = 6.0 kpc</text>
</svg>