<svg xmlns="http://www.w3.org/2000/svg" viewBox="0 0 960 450" width="960" height="450" font-family="sans-serif" font-size="12">
<style>
  .ax { stroke: #333; stroke-width: 1; fill: none; }
  .grid { stroke: #ddd; stroke-width: 0.5; fill: none; }
  .lbl { fill: #333; }
  .lbl-l { fill: #0066cc; }
  .lbl-r { fill: #b03030; }
  .obs { fill: #222; }
  .err { stroke: #555; stroke-width: 0.8; fill: none; }
  .fw { stroke: #0066cc; stroke-width: 2.2; fill: none; }
  .nt { stroke: #cc6600; stroke-width: 1.6; fill: none; stroke-dasharray: 5,3; }
  .mond { stroke: #7b2cbf; stroke-width: 1.8; fill: none; stroke-dasharray: 7,3; }
  .lbl-p { fill: #cc7000; }
  .lbl-m { fill: #7b2cbf; }
  .rho { stroke: #b03030; stroke-width: 2.0; fill: none; }
  .phot { stroke: #cc7000; stroke-width: 1.8; fill: none; }
  .mbar { stroke: #8e44ad; stroke-width: 1.8; fill: none; opacity: 0.9; }
  .mph { stroke: #c77dff; stroke-width: 1.6; fill: none; stroke-dasharray: 4,3; opacity: 0.95; }
  .title { fill: #111; font-size: 16px; font-weight: 600; }
  .subtitle { fill: #555; font-size: 11px; }
  .preview-bg { fill: #000; }
  .preview-lbl { fill: #888; font-size: 10px; }
  .legend { font-size: 11px; }
</style>
<text x="378.5" y="22" text-anchor="middle" class="title">DDO170</text>
<text x="378.5" y="38" text-anchor="middle" class="subtitle">rMax=12.3 kpc, N=8, FW=0.6 km/s, 1.0%, 0.62σ, MOND=14.3 km/s, 27.1%, 12.35σ, amp=102</text>
<line x1="70" y1="395.0" x2="687" y2="395.0" class="grid"/>
<text x="64" y="399.0" text-anchor="end" class="lbl-l">0</text>
<line x1="70" y1="327.0" x2="687" y2="327.0" class="grid"/>
<text x="64" y="331.0" text-anchor="end" class="lbl-l">17</text>
<line x1="70" y1="259.0" x2="687" y2="259.0" class="grid"/>
<text x="64" y="263.0" text-anchor="end" class="lbl-l">35</text>
<line x1="70" y1="191.0" x2="687" y2="191.0" class="grid"/>
<text x="64" y="195.0" text-anchor="end" class="lbl-l">52</text>
<line x1="70" y1="123.0" x2="687" y2="123.0" class="grid"/>
<text x="64" y="127.0" text-anchor="end" class="lbl-l">70</text>
<line x1="70" y1="55.0" x2="687" y2="55.0" class="grid"/>
<text x="64" y="59.0" text-anchor="end" class="lbl-l">87</text>
<text x="693" y="399.0" text-anchor="start" class="lbl-r">0.0</text>
<text x="693" y="353.7" text-anchor="start" class="lbl-r">0.2</text>
<text x="693" y="308.3" text-anchor="start" class="lbl-r">0.4</text>
<text x="693" y="263.0" text-anchor="start" class="lbl-r">0.6</text>
<text x="693" y="217.7" text-anchor="start" class="lbl-r">0.8</text>
<text x="693" y="172.3" text-anchor="start" class="lbl-r">1.0</text>
<line x1="70.0" y1="55" x2="70.0" y2="395" class="grid"/>
<text x="70.0" y="411" text-anchor="middle" class="lbl">0.0</text>
<line x1="172.8" y1="55" x2="172.8" y2="395" class="grid"/>
<text x="172.8" y="411" text-anchor="middle" class="lbl">2.4</text>
<line x1="275.7" y1="55" x2="275.7" y2="395" class="grid"/>
<text x="275.7" y="411" text-anchor="middle" class="lbl">4.7</text>
<line x1="378.5" y1="55" x2="378.5" y2="395" class="grid"/>
<text x="378.5" y="411" text-anchor="middle" class="lbl">7.1</text>
<line x1="481.3" y1="55" x2="481.3" y2="395" class="grid"/>
<text x="481.3" y="411" text-anchor="middle" class="lbl">9.4</text>
<line x1="584.2" y1="55" x2="584.2" y2="395" class="grid"/>
<text x="584.2" y="411" text-anchor="middle" class="lbl">11.8</text>
<line x1="687.0" y1="55" x2="687.0" y2="395" class="grid"/>
<text x="687.0" y="411" text-anchor="middle" class="lbl">14.1</text>
<text x="378.5" y="438" text-anchor="middle" class="lbl">radius (kpc)</text>
<text x="16" y="225" text-anchor="middle" class="lbl-l" transform="rotate(-90, 16, 225)">velocity (km/s)</text>
<text x="724" y="225" text-anchor="middle" class="lbl-r" transform="rotate(-90, 724, 225)">profiles (normalized to peak)</text>
<rect x="70" y="55" width="617" height="340" class="ax"/>
<path d="M 70.0,168.3 L 72.8,170.0 L 75.6,171.7 L 78.5,173.4 L 81.3,175.1 L 84.1,176.8 L 86.9,178.5 L 89.7,180.1 L 92.5,181.8 L 95.4,183.5 L 98.2,185.2 L 101.0,186.9 L 103.8,188.6 L 106.6,190.3 L 109.4,192.0 L 112.3,193.6 L 115.1,195.3 L 117.9,197.0 L 120.7,198.7 L 123.5,200.4 L 126.3,202.1 L 129.2,203.8 L 132.0,205.5 L 134.8,207.1 L 137.6,208.8 L 140.4,209.8 L 143.3,210.2 L 146.1,210.6 L 148.9,211.0 L 151.7,211.4 L 154.5,211.8 L 157.3,212.2 L 160.2,212.6 L 163.0,213.0 L 165.8,213.4 L 168.6,213.8 L 171.4,214.2 L 174.2,214.6 L 177.1,215.0 L 179.9,215.4 L 182.7,215.8 L 185.5,216.2 L 188.3,216.6 L 191.1,217.0 L 194.0,217.4 L 196.8,217.8 L 199.6,218.2 L 202.4,218.6 L 205.2,219.0 L 208.1,219.4 L 210.9,219.8 L 213.7,220.2 L 216.5,220.6 L 219.3,221.0 L 222.1,221.4 L 225.0,221.8 L 227.8,222.2 L 230.6,222.6 L 233.4,223.0 L 236.2,223.4 L 239.0,223.8 L 241.9,224.2 L 244.7,227.2 L 247.5,230.7 L 250.3,234.1 L 253.1,237.6 L 255.9,241.0 L 258.8,241.9 L 261.6,242.5 L 264.4,243.1 L 267.2,243.7 L 270.0,244.3 L 272.8,245.0 L 275.7,245.6 L 278.5,246.2 L 281.3,246.8 L 284.1,247.4 L 286.9,248.0 L 289.8,248.6 L 292.6,249.3 L 295.4,249.9 L 298.2,250.5 L 301.0,251.1 L 303.8,251.7 L 306.7,252.3 L 309.5,253.0 L 312.3,253.6 L 315.1,254.2 L 317.9,254.8 L 320.7,255.4 L 323.6,256.0 L 326.4,256.6 L 329.2,257.3 L 332.0,257.9 L 334.8,258.5 L 337.6,259.1 L 340.5,259.7 L 343.3,260.3 L 346.1,261.0 L 348.9,261.6 L 351.7,262.2 L 354.6,262.8 L 357.4,263.4 L 360.2,264.0 L 363.0,264.6 L 365.8,265.3 L 368.6,265.9 L 371.5,266.5 L 374.3,267.1 L 377.1,267.7 L 379.9,268.3 L 382.7,269.0 L 385.5,269.6 L 388.4,270.2 L 391.2,270.8 L 394.0,271.4 L 396.8,272.0 L 399.6,272.6 L 402.4,273.3 L 405.3,273.9 L 408.1,274.5 L 410.9,275.1 L 413.7,275.7 L 416.5,276.3 L 419.4,276.9 L 422.2,277.6 L 425.0,278.2 L 427.8,278.8 L 430.6,279.4 L 433.4,280.0 L 436.3,280.6 L 439.1,281.3 L 441.9,281.9 L 444.7,282.5 L 447.5,283.1 L 450.3,283.7 L 453.2,284.3 L 456.0,284.9 L 458.8,285.6 L 461.6,286.2 L 464.4,286.8 L 467.2,287.4 L 470.1,288.0 L 472.9,288.6 L 475.7,289.3 L 478.5,289.9 L 481.3,290.5 L 484.2,291.1 L 487.0,291.7 L 489.8,292.3 L 492.6,292.9 L 495.4,293.6 L 498.2,294.2 L 501.1,294.8 L 503.9,295.4 L 506.7,296.0 L 509.5,296.6 L 512.3,297.2 L 515.1,297.9 L 518.0,298.5 L 520.8,299.1 L 523.6,299.7 L 526.4,300.3 L 529.2,300.9 L 532.0,301.6 L 534.9,302.2 L 537.7,302.8 L 540.5,303.4 L 543.3,304.0 L 546.1,304.6 L 548.9,305.2 L 551.8,305.9 L 554.6,306.5 L 557.4,307.1 L 560.2,307.7 L 563.0,308.3 L 565.9,308.9 L 568.7,309.6 L 571.5,310.2 L 574.3,310.8 L 577.1,311.4 L 579.9,312.0 L 582.8,312.6 L 585.6,313.2 L 588.4,313.9 L 591.2,314.5 L 594.0,315.1 L 596.8,315.7 L 599.7,316.3 L 602.5,316.9 L 605.3,317.5 L 608.1,318.9 L 610.9,323.2 L 613.7,327.5 L 616.6,331.9 L 619.4,336.2 L 622.2,340.5 L 625.0,344.9 L 627.8,349.2 L 630.7,353.5 L 633.5,357.9 L 636.3,362.2 L 639.1,366.5 L 641.9,370.9 L 644.7,375.2 L 647.6,379.5 L 650.4,383.9 L 653.2,388.2 L 656.0,392.5 L 658.8,395.0 L 661.6,395.0 L 664.5,395.0 L 667.3,395.0 L 670.1,395.0 L 672.9,395.0 L 675.7,395.0 L 678.5,395.0 L 681.4,395.0 L 684.2,395.0 L 687.0,395.0" class="rho"/>
<path d="M 151.6,168.3 L 216.6,308.5 L 282.1,346.2 L 347.1,373.0 L 412.6,383.6 L 477.6,390.7 L 542.6,392.8 L 608.1,395.0" class="phot"/>
<path d="M 151.6,168.3 L 216.6,169.6 L 282.1,171.2 L 347.1,188.6 L 412.6,231.1 L 477.6,292.3 L 542.6,351.2 L 608.1,385.8" class="mbar"/>
<path d="M 151.6,168.3 L 216.6,168.9 L 282.1,169.6 L 347.1,177.7 L 412.6,198.6 L 477.6,231.8 L 542.6,270.5 L 608.1,299.2" class="mph"/>
<path d="M 76.2,357.8 L 82.3,342.6 L 88.5,331.2 L 94.7,321.8 L 100.8,313.6 L 107.0,306.3 L 113.2,299.8 L 119.4,293.8 L 125.5,288.3 L 131.7,283.2 L 137.9,278.5 L 144.0,274.0 L 150.2,269.7 L 156.4,265.5 L 162.6,261.4 L 168.7,257.5 L 174.9,253.7 L 181.1,250.0 L 187.2,246.5 L 193.4,243.0 L 199.6,239.6 L 205.7,236.3 L 211.9,233.1 L 218.1,230.0 L 224.3,226.9 L 230.4,223.9 L 236.6,221.0 L 242.8,218.2 L 248.9,215.5 L 255.1,213.1 L 261.3,211.0 L 267.4,208.8 L 273.6,206.7 L 279.8,204.7 L 285.9,202.7 L 292.1,200.7 L 298.3,198.8 L 304.5,196.9 L 310.6,195.0 L 316.8,193.2 L 323.0,191.5 L 329.1,189.8 L 335.3,188.1 L 341.5,186.4 L 347.6,184.8 L 353.8,183.2 L 360.0,181.7 L 366.2,180.2 L 372.3,178.7 L 378.5,177.2 L 384.7,175.8 L 390.8,174.4 L 397.0,173.1 L 403.2,171.8 L 409.4,170.5 L 415.5,169.2 L 421.7,168.0 L 427.9,166.8 L 434.0,165.6 L 440.2,164.5 L 446.4,163.4 L 452.5,162.3 L 458.7,161.2 L 464.9,160.2 L 471.1,159.2 L 477.2,158.2 L 483.4,157.3 L 489.6,156.4 L 495.7,155.5 L 501.9,154.6 L 508.1,153.8 L 514.2,152.9 L 520.4,152.1 L 526.6,151.4 L 532.8,150.6 L 538.9,149.9 L 545.1,149.2 L 551.3,148.5 L 557.4,147.9 L 563.6,147.3 L 569.8,146.7 L 575.9,146.1 L 582.1,145.5 L 588.3,145.0 L 594.4,144.5 L 600.6,144.0 L 606.8,143.5 L 613.0,143.2 L 619.1,143.0 L 625.3,143.1 L 631.5,143.4 L 637.6,143.9 L 643.8,144.6 L 650.0,145.5 L 656.2,146.7 L 662.3,148.0 L 668.5,149.2 L 674.7,150.5 L 680.8,151.7 L 687.0,152.9" class="nt"/>
<path d="M 151.6,248.0 L 216.6,199.2 L 282.1,158.3 L 347.1,126.7 L 412.6,103.1 L 477.6,90.0 L 542.6,85.9 L 608.1,88.3" class="mond"/>
<path d="M 75.1,383.7 L 80.3,374.8 L 85.4,365.3 L 90.6,356.1 L 95.7,347.5 L 100.8,339.4 L 106.0,331.8 L 111.1,324.8 L 116.3,318.4 L 121.4,312.5 L 126.6,307.2 L 131.7,302.4 L 136.8,298.0 L 142.0,293.9 L 147.1,290.0 L 152.3,286.1 L 157.4,282.2 L 162.6,278.2 L 167.7,274.1 L 172.8,269.9 L 178.0,265.7 L 183.1,261.3 L 188.3,256.8 L 193.4,252.2 L 198.5,247.5 L 203.7,242.6 L 208.8,237.7 L 214.0,232.6 L 219.1,227.4 L 224.3,222.1 L 229.4,216.9 L 234.5,211.7 L 239.7,206.9 L 244.8,202.7 L 250.0,199.2 L 255.1,196.6 L 260.2,194.7 L 265.4,193.4 L 270.5,192.5 L 275.7,191.6 L 280.8,190.8 L 285.9,190.0 L 291.1,189.2 L 296.2,188.3 L 301.4,187.4 L 306.5,186.5 L 311.7,185.5 L 316.8,184.5 L 321.9,183.5 L 327.1,182.5 L 332.2,181.5 L 337.4,180.6 L 342.5,179.6 L 347.7,178.6 L 352.8,177.7 L 357.9,176.8 L 363.1,175.9 L 368.2,175.0 L 373.4,174.2 L 378.5,173.4 L 383.6,172.6 L 388.8,171.8 L 393.9,171.1 L 399.1,170.4 L 404.2,169.7 L 409.4,169.1 L 414.5,168.5 L 419.6,167.9 L 424.8,167.4 L 429.9,166.9 L 435.1,166.4 L 440.2,165.9 L 445.3,165.5 L 450.5,165.1 L 455.6,164.7 L 460.8,164.4 L 465.9,164.1 L 471.0,163.8 L 476.2,163.5 L 481.3,163.3 L 486.5,163.0 L 491.6,162.8 L 496.8,162.6 L 501.9,162.4 L 507.0,162.2 L 512.2,162.0 L 517.3,161.8 L 522.5,161.5 L 527.6,161.3 L 532.8,161.0 L 537.9,160.7 L 543.0,160.3 L 548.2,159.8 L 553.3,159.3 L 558.5,158.6 L 563.6,157.8 L 568.7,156.9 L 573.9,155.8 L 579.0,154.4 L 584.2,152.9 L 589.3,151.2 L 594.5,149.4 L 599.6,147.7 L 604.7,146.3 L 609.9,145.5 L 615.0,145.7 L 620.2,147.0 L 625.3,149.6 L 630.4,153.3 L 635.6,158.1 L 640.7,163.7 L 645.9,169.8 L 651.0,176.2 L 656.2,182.6 L 661.3,188.9 L 666.4,194.9 L 671.6,200.5 L 676.7,205.8 L 681.9,210.6 L 687.0,215.1" class="fw"/>
<line x1="151.61" y1="275.03" x2="151.61" y2="298.47" class="err"/>
<line x1="148.61" y1="275.03" x2="154.61" y2="275.03" class="err"/>
<line x1="148.61" y1="298.47" x2="154.61" y2="298.47" class="err"/>
<circle cx="151.61" cy="286.75" r="2.5" class="obs"/>
<line x1="216.64" y1="223.44" x2="216.64" y2="235.16" class="err"/>
<line x1="213.64" y1="223.44" x2="219.64" y2="223.44" class="err"/>
<line x1="213.64" y1="235.16" x2="219.64" y2="235.16" class="err"/>
<circle cx="216.64" cy="229.30" r="2.5" class="obs"/>
<line x1="282.10" y1="185.92" x2="282.10" y2="193.74" class="err"/>
<line x1="279.10" y1="185.92" x2="285.10" y2="185.92" class="err"/>
<line x1="279.10" y1="193.74" x2="285.10" y2="193.74" class="err"/>
<circle cx="282.10" cy="189.83" r="2.5" class="obs"/>
<line x1="347.13" y1="173.81" x2="347.13" y2="181.62" class="err"/>
<line x1="344.13" y1="173.81" x2="350.13" y2="173.81" class="err"/>
<line x1="344.13" y1="181.62" x2="350.13" y2="181.62" class="err"/>
<circle cx="347.13" cy="177.72" r="2.5" class="obs"/>
<line x1="412.59" y1="161.69" x2="412.59" y2="170.29" class="err"/>
<line x1="409.59" y1="161.69" x2="415.59" y2="161.69" class="err"/>
<line x1="409.59" y1="170.29" x2="415.59" y2="170.29" class="err"/>
<circle cx="412.59" cy="165.99" r="2.5" class="obs"/>
<line x1="477.62" y1="159.74" x2="477.62" y2="169.12" class="err"/>
<line x1="474.62" y1="159.74" x2="480.62" y2="159.74" class="err"/>
<line x1="474.62" y1="169.12" x2="480.62" y2="169.12" class="err"/>
<circle cx="477.62" cy="164.43" r="2.5" class="obs"/>
<line x1="542.65" y1="155.44" x2="542.65" y2="165.60" class="err"/>
<line x1="539.65" y1="155.44" x2="545.65" y2="155.44" class="err"/>
<line x1="539.65" y1="165.60" x2="545.65" y2="165.60" class="err"/>
<circle cx="542.65" cy="160.52" r="2.5" class="obs"/>
<line x1="608.11" y1="148.02" x2="608.11" y2="155.83" class="err"/>
<line x1="605.11" y1="148.02" x2="611.11" y2="148.02" class="err"/>
<line x1="605.11" y1="155.83" x2="611.11" y2="155.83" class="err"/>
<circle cx="608.11" cy="151.92" r="2.5" class="obs"/>
<g class="legend">
<line x1="82" y1="69" x2="106" y2="69" class="fw"/>
<text x="112" y="73" class="lbl-l">framework: 0.6 km/s, 1.0%, 0.62σ</text>
<line x1="82" y1="87" x2="106" y2="87" class="nt"/>
<text x="112" y="91" class="lbl-l">Newtonian: 2.6 km/s, 6.9%, 1.96σ</text>
<line x1="82" y1="105" x2="106" y2="105" class="mond"/>
<text x="112" y="109" class="lbl-m">MOND/RAR: 14.3 km/s, 27.1%, 12.35σ</text>
<circle cx="94" cy="123" r="2.5" class="obs"/>
<text x="112" y="127" class="lbl">observed V±err</text>
</g>
<g class="legend">
<line x1="472" y1="69" x2="496" y2="69" class="rho"/>
<text x="502" y="73" class="lbl-r">ρ(r) raw</text>
<line x1="472" y1="87" x2="496" y2="87" class="phot"/>
<text x="502" y="91" class="lbl-p">photometric baryonic profile</text>
<line x1="472" y1="105" x2="496" y2="105" class="mbar"/>
<text x="502" y="109" class="lbl-m">MOND baryonic annulus</text>
<line x1="472" y1="123" x2="496" y2="123" class="mph"/>
<text x="502" y="127" class="lbl-m">MOND phantom annulus</text>
<text x="472" y="147" class="lbl-r">ρ peak: 48 M☉/pc²</text>
<text x="472" y="163" class="lbl-p">phot peak: 4.69 (arb.)</text>
<text x="472" y="179" class="lbl-m">Σbar peak: 9.45 M☉/pc²</text>
<text x="472" y="195" class="lbl-m">Σphantom peak: 46.30 M☉/pc²</text>
</g>
<rect x="775" y="55" width="170" height="170" class="preview-bg"/>
<defs><radialGradient id="g_DDO170" cx="0.5" cy="0.5" r="0.5">
  <stop offset="0.0000" stop-color="rgb(116,29,29)"/>
  <stop offset="0.0313" stop-color="rgb(113,28,28)"/>
  <stop offset="0.0625" stop-color="rgb(109,27,27)"/>
  <stop offset="0.0938" stop-color="rgb(106,27,27)"/>
  <stop offset="0.1250" stop-color="rgb(104,26,26)"/>
  <stop offset="0.1563" stop-color="rgb(103,26,26)"/>
  <stop offset="0.1875" stop-color="rgb(102,26,26)"/>
  <stop offset="0.2188" stop-color="rgb(101,25,25)"/>
  <stop offset="0.2500" stop-color="rgb(101,25,25)"/>
  <stop offset="0.2813" stop-color="rgb(100,25,25)"/>
  <stop offset="0.3125" stop-color="rgb(96,24,24)"/>
  <stop offset="0.3438" stop-color="rgb(94,24,24)"/>
  <stop offset="0.3750" stop-color="rgb(92,23,23)"/>
  <stop offset="0.4063" stop-color="rgb(91,23,23)"/>
  <stop offset="0.4375" stop-color="rgb(90,23,23)"/>
  <stop offset="0.4688" stop-color="rgb(89,22,22)"/>
  <stop offset="0.5000" stop-color="rgb(88,22,22)"/>
  <stop offset="0.5313" stop-color="rgb(87,22,22)"/>
  <stop offset="0.5625" stop-color="rgb(85,21,21)"/>
  <stop offset="0.5938" stop-color="rgb(84,21,21)"/>
  <stop offset="0.6250" stop-color="rgb(83,21,21)"/>
  <stop offset="0.6563" stop-color="rgb(82,21,21)"/>
  <stop offset="0.6875" stop-color="rgb(81,20,20)"/>
  <stop offset="0.7188" stop-color="rgb(80,20,20)"/>
  <stop offset="0.7500" stop-color="rgb(79,20,20)"/>
  <stop offset="0.7813" stop-color="rgb(77,19,19)"/>
  <stop offset="0.8125" stop-color="rgb(76,19,19)"/>
  <stop offset="0.8438" stop-color="rgb(75,19,19)"/>
  <stop offset="0.8750" stop-color="rgb(74,19,19)"/>
  <stop offset="0.9063" stop-color="rgb(73,18,18)"/>
  <stop offset="0.9375" stop-color="rgb(66,17,17)"/>
  <stop offset="0.9688" stop-color="rgb(38,10,10)"/>
  <stop offset="1.0000" stop-color="rgb(0,0,0)"/>
</radialGradient></defs>
<circle cx="860" cy="140" r="81" fill="url(#g_DDO170)"/>
<text x="860" y="49" text-anchor="middle" class="preview-lbl">face-on luminance from ρ(r)</text>
<text x="860" y="239" text-anchor="middle" class="preview-lbl">edge at r = 13.5 kpc</text>
</svg>