<svg xmlns="http://www.w3.org/2000/svg" viewBox="0 0 720 420" width="720" height="420" font-family="sans-serif" font-size="12">
<style>
  .ax { stroke: #333; stroke-width: 1; fill: none; }
  .grid { stroke: #ddd; stroke-width: 0.5; fill: none; }
  .lbl { fill: #333; }
  .lbl-l { fill: #0066cc; }
  .lbl-r { fill: #b03030; }
  .obs { fill: #222; }
  .err { stroke: #555; stroke-width: 0.8; fill: none; }
  .fw { stroke: #0066cc; stroke-width: 2.2; fill: none; }
  .nt { stroke: #cc6600; stroke-width: 1.6; fill: none; stroke-dasharray: 5,3; }
  .rho { stroke: #b03030; stroke-width: 2.0; fill: none; }
  .sig { stroke: #b03030; stroke-width: 1.6; fill: none; stroke-dasharray: 4,2; opacity: 0.85; }
  .title { fill: #111; font-size: 16px; font-weight: 600; }
  .subtitle { fill: #555; font-size: 11px; }
  .legend { font-size: 11px; }
</style>
<text x="360.0" y="22" text-anchor="middle" class="title">DDO170</text>
<text x="360.0" y="38" text-anchor="middle" class="subtitle">rMax=12.3 kpc, N=8, RMS=0.6 km/s (1.2%), amp=102</text>
<line x1="70" y1="365.0" x2="635" y2="365.0" class="grid"/>
<text x="64" y="369.0" text-anchor="end" class="lbl-l">0</text>
<line x1="70" y1="303.0" x2="635" y2="303.0" class="grid"/>
<text x="64" y="307.0" text-anchor="end" class="lbl-l">14</text>
<line x1="70" y1="241.0" x2="635" y2="241.0" class="grid"/>
<text x="64" y="245.0" text-anchor="end" class="lbl-l">28</text>
<line x1="70" y1="179.0" x2="635" y2="179.0" class="grid"/>
<text x="64" y="183.0" text-anchor="end" class="lbl-l">42</text>
<line x1="70" y1="116.99999999999999" x2="635" y2="116.99999999999999" class="grid"/>
<text x="64" y="120.99999999999999" text-anchor="end" class="lbl-l">57</text>
<line x1="70" y1="55.0" x2="635" y2="55.0" class="grid"/>
<text x="64" y="59.0" text-anchor="end" class="lbl-l">71</text>
<text x="641" y="369.0" text-anchor="start" class="lbl-r">0.0</text>
<text x="641" y="327.6666666666667" text-anchor="start" class="lbl-r">0.2</text>
<text x="641" y="286.33333333333337" text-anchor="start" class="lbl-r">0.4</text>
<text x="641" y="245.00000000000003" text-anchor="start" class="lbl-r">0.6</text>
<text x="641" y="203.66666666666666" text-anchor="start" class="lbl-r">0.8</text>
<text x="641" y="162.33333333333334" text-anchor="start" class="lbl-r">1.0</text>
<line x1="70.0" y1="55" x2="70.0" y2="365" class="grid"/>
<text x="70.0" y="381" text-anchor="middle" class="lbl">0.0</text>
<line x1="164.16666666666666" y1="55" x2="164.16666666666666" y2="365" class="grid"/>
<text x="164.16666666666666" y="381" text-anchor="middle" class="lbl">2.4</text>
<line x1="258.3333333333333" y1="55" x2="258.3333333333333" y2="365" class="grid"/>
<text x="258.3333333333333" y="381" text-anchor="middle" class="lbl">4.7</text>
<line x1="352.49999999999994" y1="55" x2="352.49999999999994" y2="365" class="grid"/>
<text x="352.49999999999994" y="381" text-anchor="middle" class="lbl">7.1</text>
<line x1="446.66666666666663" y1="55" x2="446.66666666666663" y2="365" class="grid"/>
<text x="446.66666666666663" y="381" text-anchor="middle" class="lbl">9.4</text>
<line x1="540.8333333333334" y1="55" x2="540.8333333333334" y2="365" class="grid"/>
<text x="540.8333333333334" y="381" text-anchor="middle" class="lbl">11.8</text>
<line x1="634.9999999999999" y1="55" x2="634.9999999999999" y2="365" class="grid"/>
<text x="634.9999999999999" y="381" text-anchor="middle" class="lbl">14.1</text>
<text x="352.5" y="408" text-anchor="middle" class="lbl">radius (kpc)</text>
<text x="16" y="210.0" text-anchor="middle" class="lbl-l" transform="rotate(-90, 16, 210.0)">velocity (km/s)</text>
<text x="704" y="210.0" text-anchor="middle" class="lbl-r" transform="rotate(-90, 704, 210.0)">mass profile (normalized to peak)</text>
<rect x="70" y="55" width="565" height="310" class="ax"/>
<path d="M 70.0,158.3 L 72.6,159.9 L 75.2,161.4 L 77.7,162.9 L 80.3,164.5 L 82.9,166.0 L 85.5,167.6 L 88.1,169.1 L 90.6,170.6 L 93.2,172.2 L 95.8,173.7 L 98.4,175.3 L 101.0,176.8 L 103.5,178.3 L 106.1,179.9 L 108.7,181.4 L 111.3,182.9 L 113.9,184.5 L 116.4,186.0 L 119.0,187.6 L 121.6,189.1 L 124.2,190.6 L 126.8,192.2 L 129.3,193.7 L 131.9,195.3 L 134.5,196.1 L 137.1,196.5 L 139.7,196.9 L 142.2,197.2 L 144.8,197.6 L 147.4,198.0 L 150.0,198.3 L 152.6,198.7 L 155.1,199.1 L 157.7,199.4 L 160.3,199.8 L 162.9,200.1 L 165.5,200.5 L 168.0,200.9 L 170.6,201.2 L 173.2,201.6 L 175.8,202.0 L 178.4,202.3 L 180.9,202.7 L 183.5,203.1 L 186.1,203.4 L 188.7,203.8 L 191.3,204.1 L 193.8,204.5 L 196.4,204.9 L 199.0,205.2 L 201.6,205.6 L 204.2,206.0 L 206.7,206.3 L 209.3,206.7 L 211.9,207.1 L 214.5,207.4 L 217.1,207.8 L 219.6,208.1 L 222.2,208.5 L 224.8,208.9 L 227.4,209.2 L 230.0,212.0 L 232.5,215.2 L 235.1,218.3 L 237.7,221.5 L 240.3,224.6 L 242.9,225.4 L 245.4,226.0 L 248.0,226.5 L 250.6,227.1 L 253.2,227.6 L 255.8,228.2 L 258.3,228.8 L 260.9,229.3 L 263.5,229.9 L 266.1,230.4 L 268.7,231.0 L 271.2,231.6 L 273.8,232.1 L 276.4,232.7 L 279.0,233.2 L 281.6,233.8 L 284.1,234.4 L 286.7,234.9 L 289.3,235.5 L 291.9,236.0 L 294.5,236.6 L 297.0,237.2 L 299.6,237.7 L 302.2,238.3 L 304.8,238.9 L 307.4,239.4 L 309.9,240.0 L 312.5,240.5 L 315.1,241.1 L 317.7,241.7 L 320.3,242.2 L 322.8,242.8 L 325.4,243.3 L 328.0,243.9 L 330.6,244.5 L 333.2,245.0 L 335.7,245.6 L 338.3,246.1 L 340.9,246.7 L 343.5,247.3 L 346.1,247.8 L 348.6,248.4 L 351.2,249.0 L 353.8,249.5 L 356.4,250.1 L 358.9,250.6 L 361.5,251.2 L 364.1,251.8 L 366.7,252.3 L 369.3,252.9 L 371.8,253.4 L 374.4,254.0 L 377.0,254.6 L 379.6,255.1 L 382.2,255.7 L 384.7,256.2 L 387.3,256.8 L 389.9,257.4 L 392.5,257.9 L 395.1,258.5 L 397.6,259.0 L 400.2,259.6 L 402.8,260.2 L 405.4,260.7 L 408.0,261.3 L 410.5,261.9 L 413.1,262.4 L 415.7,263.0 L 418.3,263.5 L 420.9,264.1 L 423.4,264.7 L 426.0,265.2 L 428.6,265.8 L 431.2,266.3 L 433.8,266.9 L 436.3,267.5 L 438.9,268.0 L 441.5,268.6 L 444.1,269.1 L 446.7,269.7 L 449.2,270.3 L 451.8,270.8 L 454.4,271.4 L 457.0,271.9 L 459.6,272.5 L 462.1,273.1 L 464.7,273.6 L 467.3,274.2 L 469.9,274.8 L 472.5,275.3 L 475.0,275.9 L 477.6,276.4 L 480.2,277.0 L 482.8,277.6 L 485.4,278.1 L 487.9,278.7 L 490.5,279.2 L 493.1,279.8 L 495.7,280.4 L 498.3,280.9 L 500.8,281.5 L 503.4,282.0 L 506.0,282.6 L 508.6,283.2 L 511.2,283.7 L 513.7,284.3 L 516.3,284.8 L 518.9,285.4 L 521.5,286.0 L 524.1,286.5 L 526.6,287.1 L 529.2,287.7 L 531.8,288.2 L 534.4,288.8 L 537.0,289.3 L 539.5,289.9 L 542.1,290.5 L 544.7,291.0 L 547.3,291.6 L 549.9,292.1 L 552.4,292.7 L 555.0,293.3 L 557.6,293.8 L 560.2,294.4 L 562.8,295.6 L 565.3,299.5 L 567.9,303.5 L 570.5,307.4 L 573.1,311.4 L 575.7,315.3 L 578.2,319.3 L 580.8,323.2 L 583.4,327.2 L 586.0,331.1 L 588.6,335.1 L 591.1,339.0 L 593.7,343.0 L 596.3,346.9 L 598.9,350.9 L 601.5,354.8 L 604.0,358.8 L 606.6,362.7 L 609.2,365.0 L 611.8,365.0 L 614.4,365.0 L 616.9,365.0 L 619.5,365.0 L 622.1,365.0 L 624.7,365.0 L 627.3,365.0 L 629.8,365.0 L 632.4,365.0 L 635.0,365.0" class="rho"/>
<path d="M 70.0,158.3 L 72.6,158.4 L 75.2,158.5 L 77.7,158.7 L 80.3,158.9 L 82.9,159.2 L 85.5,159.6 L 88.1,160.0 L 90.6,160.4 L 93.2,160.9 L 95.8,161.5 L 98.4,162.1 L 101.0,162.7 L 103.5,163.4 L 106.1,164.1 L 108.7,164.8 L 111.3,165.6 L 113.9,166.4 L 116.4,167.1 L 119.0,168.0 L 121.6,168.8 L 124.2,169.6 L 126.8,170.5 L 129.3,171.3 L 131.9,172.2 L 134.5,173.0 L 137.1,173.9 L 139.7,174.8 L 142.2,175.6 L 144.8,176.5 L 147.4,177.4 L 150.0,178.3 L 152.6,179.2 L 155.1,180.0 L 157.7,180.9 L 160.3,181.9 L 162.9,182.8 L 165.5,183.7 L 168.0,184.6 L 170.6,185.6 L 173.2,186.5 L 175.8,187.5 L 178.4,188.5 L 180.9,189.5 L 183.5,190.5 L 186.1,191.5 L 188.7,192.5 L 191.3,193.5 L 193.8,194.6 L 196.4,195.7 L 199.0,196.8 L 201.6,197.9 L 204.2,199.0 L 206.7,200.1 L 209.3,201.3 L 211.9,202.4 L 214.5,203.6 L 217.1,204.8 L 219.6,206.1 L 222.2,207.3 L 224.8,208.6 L 227.4,209.9 L 230.0,211.1 L 232.5,212.4 L 235.1,213.7 L 237.7,215.0 L 240.3,216.3 L 242.9,217.6 L 245.4,218.9 L 248.0,220.2 L 250.6,221.4 L 253.2,222.7 L 255.8,223.9 L 258.3,225.2 L 260.9,226.4 L 263.5,227.6 L 266.1,228.8 L 268.7,230.0 L 271.2,231.1 L 273.8,232.3 L 276.4,233.5 L 279.0,234.6 L 281.6,235.7 L 284.1,236.9 L 286.7,238.0 L 289.3,239.1 L 291.9,240.2 L 294.5,241.3 L 297.0,242.4 L 299.6,243.5 L 302.2,244.6 L 304.8,245.6 L 307.4,246.7 L 309.9,247.8 L 312.5,248.8 L 315.1,249.9 L 317.7,250.9 L 320.3,251.9 L 322.8,253.0 L 325.4,254.0 L 328.0,255.0 L 330.6,256.0 L 333.2,257.0 L 335.7,258.0 L 338.3,259.0 L 340.9,260.0 L 343.5,261.0 L 346.1,262.0 L 348.6,263.0 L 351.2,264.0 L 353.8,264.9 L 356.4,265.9 L 358.9,266.9 L 361.5,267.8 L 364.1,268.8 L 366.7,269.7 L 369.3,270.6 L 371.8,271.6 L 374.4,272.5 L 377.0,273.4 L 379.6,274.3 L 382.2,275.3 L 384.7,276.2 L 387.3,277.1 L 389.9,278.0 L 392.5,278.9 L 395.1,279.8 L 397.6,280.6 L 400.2,281.5 L 402.8,282.4 L 405.4,283.3 L 408.0,284.1 L 410.5,285.0 L 413.1,285.9 L 415.7,286.7 L 418.3,287.6 L 420.9,288.4 L 423.4,289.2 L 426.0,290.1 L 428.6,290.9 L 431.2,291.7 L 433.8,292.5 L 436.3,293.4 L 438.9,294.2 L 441.5,295.0 L 444.1,295.8 L 446.7,296.6 L 449.2,297.4 L 451.8,298.2 L 454.4,298.9 L 457.0,299.7 L 459.6,300.5 L 462.1,301.3 L 464.7,302.0 L 467.3,302.8 L 469.9,303.5 L 472.5,304.3 L 475.0,305.0 L 477.6,305.8 L 480.2,306.5 L 482.8,307.3 L 485.4,308.0 L 487.9,308.7 L 490.5,309.4 L 493.1,310.2 L 495.7,310.9 L 498.3,311.6 L 500.8,312.3 L 503.4,313.0 L 506.0,313.7 L 508.6,314.4 L 511.2,315.1 L 513.7,315.8 L 516.3,316.5 L 518.9,317.2 L 521.5,317.9 L 524.1,318.6 L 526.6,319.3 L 529.2,320.0 L 531.8,320.7 L 534.4,321.4 L 537.0,322.1 L 539.5,322.8 L 542.1,323.5 L 544.7,324.1 L 547.3,324.8 L 549.9,325.5 L 552.4,326.2 L 555.0,326.9 L 557.6,327.7 L 560.2,328.4 L 562.8,329.1 L 565.3,329.8 L 567.9,330.5 L 570.5,331.2 L 573.1,331.8 L 575.7,332.5 L 578.2,333.2 L 580.8,333.9 L 583.4,334.5 L 586.0,335.1 L 588.6,335.7 L 591.1,336.3 L 593.7,336.9 L 596.3,337.4 L 598.9,338.0 L 601.5,338.5 L 604.0,339.0 L 606.6,339.5 L 609.2,339.9 L 611.8,340.4 L 614.4,340.8 L 616.9,341.2 L 619.5,341.6 L 622.1,342.0 L 624.7,342.3 L 627.3,342.7 L 629.8,343.1 L 632.4,343.4 L 635.0,343.7" class="sig"/>
<path d="M 75.7,323.3 L 81.3,306.3 L 87.0,293.5 L 92.6,282.9 L 98.2,273.8 L 103.9,265.6 L 109.6,258.3 L 115.2,251.6 L 120.9,245.5 L 126.5,239.8 L 132.2,234.4 L 137.8,229.4 L 143.4,224.6 L 149.1,219.9 L 154.8,215.4 L 160.4,211.0 L 166.1,206.7 L 171.7,202.6 L 177.3,198.6 L 183.0,194.7 L 188.6,190.9 L 194.3,187.2 L 200.0,183.6 L 205.6,180.1 L 211.2,176.7 L 216.9,173.3 L 222.6,170.1 L 228.2,166.9 L 233.8,163.9 L 239.5,161.3 L 245.2,158.8 L 250.8,156.4 L 256.5,154.1 L 262.1,151.8 L 267.8,149.5 L 273.4,147.3 L 279.1,145.2 L 284.7,143.1 L 290.3,141.0 L 296.0,139.0 L 301.6,137.0 L 307.3,135.1 L 312.9,133.2 L 318.6,131.3 L 324.2,129.5 L 329.9,127.7 L 335.6,126.0 L 341.2,124.3 L 346.9,122.6 L 352.5,121.0 L 358.1,119.4 L 363.8,117.9 L 369.4,116.4 L 375.1,114.9 L 380.8,113.5 L 386.4,112.1 L 392.1,110.7 L 397.7,109.3 L 403.3,108.0 L 409.0,106.8 L 414.6,105.5 L 420.3,104.3 L 425.9,103.1 L 431.6,102.0 L 437.2,100.8 L 442.9,99.8 L 448.5,98.7 L 454.2,97.7 L 459.9,96.7 L 465.5,95.7 L 471.1,94.7 L 476.8,93.8 L 482.4,92.9 L 488.1,92.1 L 493.7,91.2 L 499.4,90.4 L 505.1,89.6 L 510.7,88.9 L 516.4,88.2 L 522.0,87.5 L 527.6,86.8 L 533.3,86.1 L 539.0,85.5 L 544.6,84.9 L 550.2,84.4 L 555.9,83.8 L 561.5,83.3 L 567.2,82.9 L 572.9,82.7 L 578.5,82.8 L 584.1,83.1 L 589.8,83.7 L 595.4,84.5 L 601.1,85.5 L 606.8,86.8 L 612.4,88.2 L 618.0,89.7 L 623.7,91.1 L 629.4,92.5 L 635.0,93.8" class="nt"/>
<path d="M 74.7,352.3 L 79.4,342.4 L 84.1,331.7 L 88.8,321.4 L 93.5,311.8 L 98.2,302.7 L 103.0,294.2 L 107.7,286.4 L 112.4,279.2 L 117.1,272.6 L 121.8,266.6 L 126.5,261.3 L 131.2,256.3 L 135.9,251.7 L 140.6,247.3 L 145.3,243.0 L 150.0,238.6 L 154.8,234.1 L 159.5,229.6 L 164.2,224.9 L 168.9,220.1 L 173.6,215.2 L 178.3,210.1 L 183.0,205.0 L 187.7,199.7 L 192.4,194.3 L 197.1,188.7 L 201.8,183.1 L 206.5,177.3 L 211.2,171.4 L 216.0,165.4 L 220.7,159.7 L 225.4,154.3 L 230.1,149.6 L 234.8,145.7 L 239.5,142.8 L 244.2,140.6 L 248.9,139.2 L 253.6,138.1 L 258.3,137.2 L 263.0,136.3 L 267.8,135.4 L 272.5,134.4 L 277.2,133.5 L 281.9,132.4 L 286.6,131.4 L 291.3,130.3 L 296.0,129.2 L 300.7,128.1 L 305.4,127.0 L 310.1,125.9 L 314.8,124.8 L 319.5,123.7 L 324.2,122.6 L 329.0,121.6 L 333.7,120.5 L 338.4,119.5 L 343.1,118.6 L 347.8,117.6 L 352.5,116.7 L 357.2,115.8 L 361.9,115.0 L 366.6,114.1 L 371.3,113.4 L 376.0,112.6 L 380.8,111.9 L 385.5,111.2 L 390.2,110.6 L 394.9,110.0 L 399.6,109.4 L 404.3,108.9 L 409.0,108.4 L 413.7,107.9 L 418.4,107.4 L 423.1,107.0 L 427.8,106.7 L 432.5,106.3 L 437.2,106.0 L 442.0,105.7 L 446.7,105.4 L 451.4,105.1 L 456.1,104.9 L 460.8,104.6 L 465.5,104.4 L 470.2,104.2 L 474.9,103.9 L 479.6,103.7 L 484.3,103.5 L 489.0,103.2 L 493.7,102.9 L 498.5,102.5 L 503.2,102.1 L 507.9,101.5 L 512.6,100.9 L 517.3,100.2 L 522.0,99.3 L 526.7,98.2 L 531.4,97.0 L 536.1,95.5 L 540.8,93.8 L 545.5,91.8 L 550.2,89.8 L 555.0,87.9 L 559.7,86.3 L 564.4,85.5 L 569.1,85.7 L 573.8,87.1 L 578.5,90.0 L 583.2,94.2 L 587.9,99.6 L 592.6,105.8 L 597.3,112.7 L 602.0,119.9 L 606.8,127.1 L 611.5,134.1 L 616.2,140.8 L 620.9,147.1 L 625.6,153.0 L 630.3,158.4 L 635.0,163.5" class="fw"/>
<line x1="144.73345151482098" y1="230.5902030572539" x2="144.73345151482098" y2="256.85921874638996" class="err"/>
<line x1="141.73345151482098" y1="230.5902030572539" x2="147.73345151482098" y2="230.5902030572539" class="err"/>
<line x1="141.73345151482098" y1="256.85921874638996" x2="147.73345151482098" y2="256.85921874638996" class="err"/>
<circle cx="144.73345151482098" cy="243.72471090182194" r="2.5" class="obs"/>
<line x1="204.28042625122916" y1="172.7983685411546" x2="204.28042625122916" y2="185.93287638572264" class="err"/>
<line x1="201.28042625122916" y1="172.7983685411546" x2="207.28042625122916" y2="172.7983685411546" class="err"/>
<line x1="201.28042625122916" y1="185.93287638572264" x2="207.28042625122916" y2="185.93287638572264" class="err"/>
<circle cx="204.28042625122916" cy="179.36562246343863" r="2.5" class="obs"/>
<line x1="264.2270451133851" y1="130.76794343853692" x2="264.2270451133851" y2="139.52428200158226" class="err"/>
<line x1="261.2270451133851" y1="130.76794343853692" x2="267.2270451133851" y2="130.76794343853692" class="err"/>
<line x1="261.2270451133851" y1="139.52428200158226" x2="267.2270451133851" y2="139.52428200158226" class="err"/>
<circle cx="264.2270451133851" cy="135.1461127200596" r="2.5" class="obs"/>
<line x1="323.77401984979315" y1="117.19561866581662" x2="323.77401984979315" y2="125.95195722886196" class="err"/>
<line x1="320.77401984979315" y1="117.19561866581662" x2="326.77401984979315" y2="117.19561866581662" class="err"/>
<line x1="320.77401984979315" y1="125.95195722886196" x2="326.77401984979315" y2="125.95195722886196" class="err"/>
<circle cx="323.77401984979315" cy="121.57378794733928" r="2.5" class="obs"/>
<line x1="383.72063871194905" y1="103.6232938930963" x2="383.72063871194905" y2="113.25526631244621" class="err"/>
<line x1="380.72063871194905" y1="103.6232938930963" x2="386.72063871194905" y2="103.6232938930963" class="err"/>
<line x1="380.72063871194905" y1="113.25526631244621" x2="386.72063871194905" y2="113.25526631244621" class="err"/>
<circle cx="383.72063871194905" cy="108.43928010277128" r="2.5" class="obs"/>
<line x1="443.2676134483572" y1="101.43420925233498" x2="443.2676134483572" y2="111.9418155279894" class="err"/>
<line x1="440.2676134483572" y1="101.43420925233498" x2="446.2676134483572" y2="101.43420925233498" class="err"/>
<line x1="440.2676134483572" y1="111.9418155279894" x2="446.2676134483572" y2="111.9418155279894" class="err"/>
<circle cx="443.2676134483572" cy="106.68801239016221" r="2.5" class="obs"/>
<line x1="502.8145881847654" y1="96.61822304266005" x2="502.8145881847654" y2="108.001463174619" class="err"/>
<line x1="499.8145881847654" y1="96.61822304266005" x2="505.8145881847654" y2="96.61822304266005" class="err"/>
<line x1="499.8145881847654" y1="108.001463174619" x2="505.8145881847654" y2="108.001463174619" class="err"/>
<circle cx="502.8145881847654" cy="102.30984310863951" r="2.5" class="obs"/>
<line x1="562.7612070469213" y1="88.29970140776697" x2="562.7612070469213" y2="97.05603997081232" class="err"/>
<line x1="559.7612070469213" y1="88.29970140776697" x2="565.7612070469213" y2="88.29970140776697" class="err"/>
<line x1="559.7612070469213" y1="97.05603997081232" x2="565.7612070469213" y2="97.05603997081232" class="err"/>
<circle cx="562.7612070469213" cy="92.67787068928965" r="2.5" class="obs"/>
<g class="legend">
<line x1="82" y1="69" x2="106" y2="69" class="fw"/>
<text x="112" y="73" class="lbl-l">framework fit</text>
<line x1="82" y1="87" x2="106" y2="87" class="nt"/>
<text x="112" y="91" class="lbl-l">Newtonian (no halo)</text>
<circle cx="94" cy="105" r="2.5" class="obs"/>
<text x="112" y="109" class="lbl">observed V±err</text>
</g>
<g class="legend">
<line x1="460" y1="69" x2="484" y2="69" class="rho"/>
<text x="490" y="73" class="lbl-r">ρ(r) raw</text>
<line x1="460" y1="87" x2="484" y2="87" class="sig"/>
<text x="490" y="91" class="lbl-r">Σ(r) smoothed</text>
<text x="460" y="113" class="lbl-r">ρ peak: 48 M☉/pc²</text>
</g>
</svg>