<svg xmlns="http://www.w3.org/2000/svg" viewBox="0 0 890 420" width="890" height="420" font-family="sans-serif" font-size="12">
<style>
  .ax { stroke: #333; stroke-width: 1; fill: none; }
  .grid { stroke: #ddd; stroke-width: 0.5; fill: none; }
  .lbl { fill: #333; }
  .lbl-l { fill: #0066cc; }
  .lbl-r { fill: #b03030; }
  .lbl-s { fill: #cc7000; }
  .obs { fill: #222; }
  .err { stroke: #555; stroke-width: 0.8; fill: none; }
  .fw { stroke: #0066cc; stroke-width: 2.2; fill: none; }
  .nt { stroke: #cc6600; stroke-width: 1.6; fill: none; stroke-dasharray: 5,3; }
  .rho { stroke: #b03030; stroke-width: 2.0; fill: none; }
  .sig { stroke: #cc7000; stroke-width: 1.8; fill: none; }
  .title { fill: #111; font-size: 16px; font-weight: 600; }
  .subtitle { fill: #555; font-size: 11px; }
  .legend { font-size: 11px; }
  .preview-bg { fill: #000; }
  .preview-lbl { fill: #888; font-size: 10px; }
</style>
<text x="343.5" y="22" text-anchor="middle" class="title">DDO154</text>
<text x="343.5" y="38" text-anchor="middle" class="subtitle">rMax=5.9 kpc, N=12, RMS=0.6 km/s (1.7%), amp=102</text>
<line x1="70" y1="365.0" x2="617" y2="365.0" class="grid"/>
<text x="64" y="369.0" text-anchor="end" class="lbl-l">0</text>
<line x1="70" y1="303.0" x2="617" y2="303.0" class="grid"/>
<text x="64" y="307.0" text-anchor="end" class="lbl-l">11</text>
<line x1="70" y1="241.00000000000003" x2="617" y2="241.00000000000003" class="grid"/>
<text x="64" y="245.00000000000003" text-anchor="end" class="lbl-l">21</text>
<line x1="70" y1="179.0" x2="617" y2="179.0" class="grid"/>
<text x="64" y="183.0" text-anchor="end" class="lbl-l">32</text>
<line x1="70" y1="117.00000000000003" x2="617" y2="117.00000000000003" class="grid"/>
<text x="64" y="121.00000000000003" text-anchor="end" class="lbl-l">43</text>
<line x1="70" y1="55.0" x2="617" y2="55.0" class="grid"/>
<text x="64" y="59.0" text-anchor="end" class="lbl-l">54</text>
<text x="623" y="369.0" text-anchor="start" class="lbl-r">0.0</text>
<text x="623" y="327.6666666666667" text-anchor="start" class="lbl-r">0.2</text>
<text x="623" y="286.33333333333337" text-anchor="start" class="lbl-r">0.4</text>
<text x="623" y="245.00000000000003" text-anchor="start" class="lbl-r">0.6</text>
<text x="623" y="203.66666666666666" text-anchor="start" class="lbl-r">0.8</text>
<text x="623" y="162.33333333333334" text-anchor="start" class="lbl-r">1.0</text>
<line x1="70.0" y1="55" x2="70.0" y2="365" class="grid"/>
<text x="70.0" y="381" text-anchor="middle" class="lbl">0.0</text>
<line x1="161.16666666666666" y1="55" x2="161.16666666666666" y2="365" class="grid"/>
<text x="161.16666666666666" y="381" text-anchor="middle" class="lbl">1.1</text>
<line x1="252.33333333333331" y1="55" x2="252.33333333333331" y2="365" class="grid"/>
<text x="252.33333333333331" y="381" text-anchor="middle" class="lbl">2.1</text>
<line x1="343.5" y1="55" x2="343.5" y2="365" class="grid"/>
<text x="343.5" y="381" text-anchor="middle" class="lbl">3.2</text>
<line x1="434.66666666666663" y1="55" x2="434.66666666666663" y2="365" class="grid"/>
<text x="434.66666666666663" y="381" text-anchor="middle" class="lbl">4.2</text>
<line x1="525.8333333333334" y1="55" x2="525.8333333333334" y2="365" class="grid"/>
<text x="525.8333333333334" y="381" text-anchor="middle" class="lbl">5.3</text>
<line x1="617.0" y1="55" x2="617.0" y2="365" class="grid"/>
<text x="617.0" y="381" text-anchor="middle" class="lbl">6.3</text>
<text x="343.5" y="397" text-anchor="middle" class="lbl">radius (kpc)</text>
<text x="16" y="210.0" text-anchor="middle" class="lbl-l" transform="rotate(-90, 16, 210.0)">velocity (km/s)</text>
<text x="661" y="210.0" text-anchor="middle" class="lbl-r" transform="rotate(-90, 661, 210.0)">mass profile (normalized to peak)</text>
<rect x="70" y="55" width="547" height="310" class="ax"/>
<path d="M 70.0,158.3 L 72.5,160.2 L 75.0,162.1 L 77.5,164.0 L 80.0,165.9 L 82.5,167.8 L 85.0,169.7 L 87.5,171.6 L 90.0,173.5 L 92.5,175.4 L 95.0,177.3 L 97.5,179.2 L 100.0,181.1 L 102.5,183.0 L 105.0,184.9 L 107.5,186.8 L 110.0,188.7 L 112.5,190.6 L 115.0,192.5 L 117.5,194.0 L 120.0,194.0 L 122.5,194.0 L 124.9,194.0 L 127.4,194.0 L 129.9,194.0 L 132.4,194.0 L 134.9,194.0 L 137.4,194.0 L 139.9,194.0 L 142.4,194.3 L 144.9,194.9 L 147.4,195.4 L 149.9,196.0 L 152.4,196.5 L 154.9,197.1 L 157.4,197.6 L 159.9,198.2 L 162.4,198.7 L 164.9,199.2 L 167.4,199.8 L 169.9,200.3 L 172.4,200.9 L 174.9,201.4 L 177.4,202.0 L 179.9,202.5 L 182.4,203.1 L 184.9,203.6 L 187.4,204.1 L 189.9,204.7 L 192.4,205.2 L 194.9,205.8 L 197.4,206.3 L 199.9,206.9 L 202.4,207.4 L 204.9,208.0 L 207.4,208.5 L 209.9,209.1 L 212.4,209.6 L 214.9,210.1 L 217.4,210.7 L 219.9,211.2 L 222.4,211.8 L 224.9,212.3 L 227.4,212.9 L 229.9,213.4 L 232.4,214.0 L 234.8,214.5 L 237.3,215.0 L 239.8,215.6 L 242.3,216.1 L 244.8,216.7 L 247.3,217.2 L 249.8,217.8 L 252.3,218.3 L 254.8,218.9 L 257.3,219.4 L 259.8,220.0 L 262.3,220.5 L 264.8,221.0 L 267.3,221.6 L 269.8,222.1 L 272.3,222.7 L 274.8,223.2 L 277.3,223.8 L 279.8,224.3 L 282.3,224.9 L 284.8,225.4 L 287.3,225.9 L 289.8,226.5 L 292.3,227.1 L 294.8,227.7 L 297.3,228.3 L 299.8,228.9 L 302.3,229.5 L 304.8,230.1 L 307.3,230.8 L 309.8,231.4 L 312.3,232.0 L 314.8,232.6 L 317.3,233.2 L 319.8,233.8 L 322.3,234.4 L 324.8,235.1 L 327.3,235.7 L 329.8,236.3 L 332.3,236.9 L 334.8,237.5 L 337.3,238.1 L 339.8,238.8 L 342.3,239.4 L 344.7,240.0 L 347.2,240.6 L 349.7,241.2 L 352.2,241.8 L 354.7,242.5 L 357.2,243.1 L 359.7,243.7 L 362.2,244.3 L 364.7,244.9 L 367.2,245.5 L 369.7,246.2 L 372.2,246.8 L 374.7,247.4 L 377.2,248.0 L 379.7,248.6 L 382.2,249.2 L 384.7,249.9 L 387.2,250.5 L 389.7,251.1 L 392.2,251.7 L 394.7,252.3 L 397.2,252.9 L 399.7,253.6 L 402.2,254.2 L 404.7,254.8 L 407.2,255.4 L 409.7,256.0 L 412.2,256.6 L 414.7,257.3 L 417.2,257.9 L 419.7,258.5 L 422.2,259.1 L 424.7,259.7 L 427.2,260.3 L 429.7,261.0 L 432.2,261.6 L 434.7,262.2 L 437.2,262.8 L 439.7,263.4 L 442.2,264.0 L 444.7,264.6 L 447.2,265.3 L 449.7,265.9 L 452.2,266.5 L 454.6,267.1 L 457.1,267.7 L 459.6,268.3 L 462.1,269.0 L 464.6,269.6 L 467.1,270.2 L 469.6,270.8 L 472.1,271.4 L 474.6,272.0 L 477.1,272.7 L 479.6,273.3 L 482.1,273.9 L 484.6,274.5 L 487.1,275.1 L 489.6,275.7 L 492.1,276.4 L 494.6,277.0 L 497.1,277.6 L 499.6,278.2 L 502.1,278.8 L 504.6,279.4 L 507.1,280.1 L 509.6,280.7 L 512.1,281.3 L 514.6,281.9 L 517.1,282.5 L 519.6,283.1 L 522.1,283.8 L 524.6,284.4 L 527.1,285.0 L 529.6,285.6 L 532.1,286.2 L 534.6,286.8 L 537.1,287.5 L 539.6,288.1 L 542.1,288.7 L 544.6,289.3 L 547.1,289.9 L 549.6,290.5 L 552.1,291.2 L 554.6,291.8 L 557.1,292.4 L 559.6,297.6 L 562.1,303.0 L 564.5,308.3 L 567.0,313.7 L 569.5,319.0 L 572.0,324.4 L 574.5,329.8 L 577.0,335.1 L 579.5,340.5 L 582.0,345.9 L 584.5,351.2 L 587.0,356.6 L 589.5,361.9 L 592.0,365.0 L 594.5,365.0 L 597.0,365.0 L 599.5,365.0 L 602.0,365.0 L 604.5,365.0 L 607.0,365.0 L 609.5,365.0 L 612.0,365.0 L 614.5,365.0 L 617.0,365.0" class="rho"/>
<path d="M 70.0,158.3 L 72.5,158.4 L 75.0,158.5 L 77.5,158.7 L 80.0,158.9 L 82.5,159.2 L 85.0,159.5 L 87.5,159.9 L 90.0,160.3 L 92.5,160.7 L 95.0,161.2 L 97.5,161.8 L 100.0,162.3 L 102.5,162.9 L 105.0,163.5 L 107.5,164.1 L 110.0,164.7 L 112.5,165.4 L 115.0,166.0 L 117.5,166.7 L 120.0,167.3 L 122.5,168.0 L 124.9,168.7 L 127.4,169.3 L 129.9,170.0 L 132.4,170.7 L 134.9,171.4 L 137.4,172.1 L 139.9,172.8 L 142.4,173.6 L 144.9,174.3 L 147.4,175.1 L 149.9,175.8 L 152.4,176.6 L 154.9,177.4 L 157.4,178.2 L 159.9,179.0 L 162.4,179.9 L 164.9,180.7 L 167.4,181.5 L 169.9,182.4 L 172.4,183.3 L 174.9,184.2 L 177.4,185.0 L 179.9,185.9 L 182.4,186.8 L 184.9,187.8 L 187.4,188.7 L 189.9,189.6 L 192.4,190.5 L 194.9,191.5 L 197.4,192.4 L 199.9,193.4 L 202.4,194.4 L 204.9,195.3 L 207.4,196.3 L 209.9,197.3 L 212.4,198.3 L 214.9,199.3 L 217.4,200.3 L 219.9,201.3 L 222.4,202.3 L 224.9,203.3 L 227.4,204.3 L 229.9,205.3 L 232.4,206.3 L 234.8,207.3 L 237.3,208.4 L 239.8,209.4 L 242.3,210.4 L 244.8,211.4 L 247.3,212.5 L 249.8,213.5 L 252.3,214.6 L 254.8,215.6 L 257.3,216.7 L 259.8,217.7 L 262.3,218.7 L 264.8,219.8 L 267.3,220.8 L 269.8,221.9 L 272.3,223.0 L 274.8,224.0 L 277.3,225.1 L 279.8,226.1 L 282.3,227.2 L 284.8,228.3 L 287.3,229.3 L 289.8,230.4 L 292.3,231.4 L 294.8,232.5 L 297.3,233.6 L 299.8,234.6 L 302.3,235.7 L 304.8,236.8 L 307.3,237.8 L 309.8,238.9 L 312.3,239.9 L 314.8,241.0 L 317.3,242.1 L 319.8,243.1 L 322.3,244.2 L 324.8,245.2 L 327.3,246.3 L 329.8,247.3 L 332.3,248.4 L 334.8,249.4 L 337.3,250.5 L 339.8,251.5 L 342.3,252.6 L 344.7,253.6 L 347.2,254.7 L 349.7,255.7 L 352.2,256.7 L 354.7,257.7 L 357.2,258.8 L 359.7,259.8 L 362.2,260.8 L 364.7,261.8 L 367.2,262.8 L 369.7,263.8 L 372.2,264.8 L 374.7,265.8 L 377.2,266.8 L 379.7,267.8 L 382.2,268.8 L 384.7,269.8 L 387.2,270.8 L 389.7,271.7 L 392.2,272.7 L 394.7,273.7 L 397.2,274.6 L 399.7,275.6 L 402.2,276.5 L 404.7,277.5 L 407.2,278.4 L 409.7,279.4 L 412.2,280.3 L 414.7,281.2 L 417.2,282.2 L 419.7,283.1 L 422.2,284.0 L 424.7,284.9 L 427.2,285.8 L 429.7,286.7 L 432.2,287.6 L 434.7,288.5 L 437.2,289.4 L 439.7,290.3 L 442.2,291.1 L 444.7,292.0 L 447.2,292.9 L 449.7,293.7 L 452.2,294.6 L 454.6,295.4 L 457.1,296.3 L 459.6,297.1 L 462.1,298.0 L 464.6,298.8 L 467.1,299.6 L 469.6,300.5 L 472.1,301.3 L 474.6,302.1 L 477.1,302.9 L 479.6,303.7 L 482.1,304.5 L 484.6,305.3 L 487.1,306.1 L 489.6,306.9 L 492.1,307.7 L 494.6,308.5 L 497.1,309.2 L 499.6,310.0 L 502.1,310.8 L 504.6,311.5 L 507.1,312.3 L 509.6,313.1 L 512.1,313.8 L 514.6,314.6 L 517.1,315.4 L 519.6,316.1 L 522.1,316.9 L 524.6,317.6 L 527.1,318.4 L 529.6,319.1 L 532.1,319.9 L 534.6,320.6 L 537.1,321.4 L 539.6,322.1 L 542.1,322.9 L 544.6,323.6 L 547.1,324.4 L 549.6,325.2 L 552.1,325.9 L 554.6,326.7 L 557.1,327.5 L 559.6,328.2 L 562.1,329.0 L 564.5,329.7 L 567.0,330.4 L 569.5,331.2 L 572.0,331.9 L 574.5,332.6 L 577.0,333.2 L 579.5,333.9 L 582.0,334.5 L 584.5,335.2 L 587.0,335.7 L 589.5,336.3 L 592.0,336.9 L 594.5,337.4 L 597.0,337.9 L 599.5,338.4 L 602.0,338.8 L 604.5,339.3 L 607.0,339.7 L 609.5,340.2 L 612.0,340.6 L 614.5,341.0 L 617.0,341.3" class="sig"/>
<path d="M 75.5,325.0 L 80.9,308.7 L 86.4,296.6 L 91.9,286.5 L 97.3,277.9 L 102.8,270.3 L 108.3,263.4 L 113.8,257.2 L 119.2,251.5 L 124.7,246.1 L 130.2,240.8 L 135.6,235.7 L 141.1,230.8 L 146.6,226.0 L 152.1,221.5 L 157.5,217.1 L 163.0,212.9 L 168.5,208.9 L 173.9,205.0 L 179.4,201.2 L 184.9,197.5 L 190.3,194.0 L 195.8,190.6 L 201.3,187.2 L 206.7,184.0 L 212.2,180.9 L 217.7,177.8 L 223.2,174.8 L 228.6,171.9 L 234.1,169.1 L 239.6,166.4 L 245.0,163.7 L 250.5,161.1 L 256.0,158.5 L 261.5,156.0 L 266.9,153.6 L 272.4,151.2 L 277.9,148.9 L 283.3,146.6 L 288.8,144.4 L 294.3,142.2 L 299.7,140.1 L 305.2,138.1 L 310.7,136.1 L 316.1,134.1 L 321.6,132.2 L 327.1,130.3 L 332.6,128.5 L 338.0,126.7 L 343.5,125.0 L 349.0,123.3 L 354.4,121.7 L 359.9,120.1 L 365.4,118.5 L 370.9,117.0 L 376.3,115.5 L 381.8,114.1 L 387.3,112.6 L 392.7,111.3 L 398.2,109.9 L 403.7,108.6 L 409.1,107.3 L 414.6,106.1 L 420.1,104.9 L 425.5,103.7 L 431.0,102.6 L 436.5,101.5 L 442.0,100.4 L 447.4,99.4 L 452.9,98.4 L 458.4,97.4 L 463.8,96.4 L 469.3,95.5 L 474.8,94.6 L 480.2,93.8 L 485.7,92.9 L 491.2,92.1 L 496.7,91.3 L 502.1,90.6 L 507.6,89.9 L 513.1,89.2 L 518.5,88.5 L 524.0,87.9 L 529.5,87.3 L 535.0,86.7 L 540.4,86.1 L 545.9,85.6 L 551.4,85.1 L 556.8,84.6 L 562.3,84.3 L 567.8,84.3 L 573.2,84.6 L 578.7,85.2 L 584.2,86.1 L 589.6,87.3 L 595.1,88.8 L 600.6,90.2 L 606.1,91.6 L 611.5,93.0 L 617.0,94.4" class="nt"/>
<path d="M 74.6,352.8 L 79.1,343.7 L 83.7,333.9 L 88.2,324.5 L 92.8,315.8 L 97.3,308.0 L 101.9,300.8 L 106.5,294.6 L 111.0,288.9 L 115.6,283.8 L 120.1,279.1 L 124.7,274.5 L 129.3,270.0 L 133.8,265.3 L 138.4,260.4 L 142.9,255.4 L 147.5,250.4 L 152.1,245.4 L 156.6,240.4 L 161.2,235.5 L 165.7,230.7 L 170.3,226.0 L 174.8,221.5 L 179.4,217.0 L 184.0,212.7 L 188.5,208.5 L 193.1,204.4 L 197.6,200.4 L 202.2,196.5 L 206.8,192.7 L 211.3,189.1 L 215.9,185.4 L 220.4,181.9 L 225.0,178.5 L 229.5,175.1 L 234.1,171.9 L 238.7,168.7 L 243.2,165.5 L 247.8,162.5 L 252.3,159.5 L 256.9,156.6 L 261.4,153.7 L 266.0,150.9 L 270.6,148.1 L 275.1,145.4 L 279.7,142.8 L 284.2,140.2 L 288.8,137.7 L 293.4,135.2 L 297.9,132.8 L 302.5,130.5 L 307.0,128.3 L 311.6,126.1 L 316.1,124.1 L 320.7,122.1 L 325.3,120.3 L 329.8,118.5 L 334.4,116.8 L 338.9,115.2 L 343.5,113.7 L 348.1,112.2 L 352.6,110.9 L 357.2,109.6 L 361.7,108.3 L 366.3,107.2 L 370.8,106.1 L 375.4,105.0 L 380.0,104.0 L 384.5,103.1 L 389.1,102.3 L 393.6,101.5 L 398.2,100.7 L 402.8,100.1 L 407.3,99.4 L 411.9,98.8 L 416.4,98.3 L 421.0,97.8 L 425.6,97.4 L 430.1,97.0 L 434.7,96.6 L 439.2,96.3 L 443.8,96.0 L 448.3,95.7 L 452.9,95.5 L 457.5,95.3 L 462.0,95.1 L 466.6,94.9 L 471.1,94.8 L 475.7,94.6 L 480.2,94.4 L 484.8,94.2 L 489.4,94.0 L 493.9,93.7 L 498.5,93.3 L 503.0,92.9 L 507.6,92.4 L 512.2,91.7 L 516.7,90.9 L 521.3,90.0 L 525.8,88.8 L 530.4,87.4 L 535.0,85.7 L 539.5,83.9 L 544.1,82.0 L 548.6,80.3 L 553.2,79.0 L 557.7,78.5 L 562.3,79.2 L 566.9,81.4 L 571.4,85.0 L 576.0,90.2 L 580.5,96.5 L 585.1,103.5 L 589.7,111.1 L 594.2,118.7 L 598.8,126.2 L 603.3,133.3 L 607.9,140.0 L 612.4,146.2 L 617.0,152.0" class="fw"/>
<line x1="112.4259131393046" y1="276.0655737704918" x2="112.4259131393046" y2="294.5454545454545" class="err"/>
<line x1="109.4259131393046" y1="276.0655737704918" x2="115.4259131393046" y2="276.0655737704918" class="err"/>
<line x1="109.4259131393046" y1="294.5454545454545" x2="115.4259131393046" y2="294.5454545454545" class="err"/>
<circle cx="112.4259131393046" cy="285.30551415797316" r="2.5" class="obs"/>
<line x1="155.71766124063583" y1="235.6408345752608" x2="155.71766124063583" y2="244.8807749627422" class="err"/>
<line x1="152.71766124063583" y1="235.6408345752608" x2="158.71766124063583" y2="235.6408345752608" class="err"/>
<line x1="152.71766124063583" y1="244.8807749627422" x2="158.71766124063583" y2="244.8807749627422" class="err"/>
<circle cx="155.71766124063583" cy="240.26080476900148" r="2.5" class="obs"/>
<line x1="198.14357437994042" y1="194.0611028315947" x2="198.14357437994042" y2="202.14605067064085" class="err"/>
<line x1="195.14357437994042" y1="194.0611028315947" x2="201.14357437994042" y2="194.0611028315947" class="err"/>
<line x1="195.14357437994042" y1="202.14605067064085" x2="201.14357437994042" y2="202.14605067064085" class="err"/>
<circle cx="198.14357437994042" cy="198.10357675111774" r="2.5" class="obs"/>
<line x1="240.56948751924503" y1="164.0312965722802" x2="240.56948751924503" y2="169.8062593144561" class="err"/>
<line x1="237.56948751924503" y1="164.0312965722802" x2="243.56948751924503" y2="164.0312965722802" class="err"/>
<line x1="237.56948751924503" y1="169.8062593144561" x2="243.56948751924503" y2="169.8062593144561" class="err"/>
<circle cx="240.56948751924503" cy="166.91877794336816" r="2.5" class="obs"/>
<line x1="283.8612356205763" y1="142.08643815201197" x2="283.8612356205763" y2="146.7064083457526" class="err"/>
<line x1="280.8612356205763" y1="142.08643815201197" x2="286.8612356205763" y2="142.08643815201197" class="err"/>
<line x1="280.8612356205763" y1="146.7064083457526" x2="286.8612356205763" y2="146.7064083457526" class="err"/>
<circle cx="283.8612356205763" cy="144.3964232488823" r="2.5" class="obs"/>
<line x1="326.28714875988084" y1="121.29657228017885" x2="326.28714875988084" y2="123.60655737704923" class="err"/>
<line x1="323.28714875988084" y1="121.29657228017885" x2="329.28714875988084" y2="121.29657228017885" class="err"/>
<line x1="323.28714875988084" y1="123.60655737704923" x2="329.28714875988084" y2="123.60655737704923" class="err"/>
<circle cx="326.28714875988084" cy="122.45156482861405" r="2.5" class="obs"/>
<line x1="369.5788968612121" y1="106.28166915052162" x2="369.5788968612121" y2="108.591654247392" class="err"/>
<line x1="366.5788968612121" y1="106.28166915052162" x2="372.5788968612121" y2="106.28166915052162" class="err"/>
<line x1="366.5788968612121" y1="108.591654247392" x2="372.5788968612121" y2="108.591654247392" class="err"/>
<circle cx="369.5788968612121" cy="107.43666169895678" r="2.5" class="obs"/>
<line x1="412.0048100005167" y1="96.46423248882269" x2="412.0048100005167" y2="98.77421758569307" class="err"/>
<line x1="409.0048100005167" y1="96.46423248882269" x2="415.0048100005167" y2="96.46423248882269" class="err"/>
<line x1="409.0048100005167" y1="98.77421758569307" x2="415.0048100005167" y2="98.77421758569307" class="err"/>
<circle cx="412.0048100005167" cy="97.61922503725785" r="2.5" class="obs"/>
<line x1="454.4307231398213" y1="89.5342771982117" x2="454.4307231398213" y2="92.99925484351715" class="err"/>
<line x1="451.4307231398213" y1="89.5342771982117" x2="457.4307231398213" y2="89.5342771982117" class="err"/>
<line x1="451.4307231398213" y1="92.99925484351715" x2="457.4307231398213" y2="92.99925484351715" class="err"/>
<circle cx="454.4307231398213" cy="91.26676602086442" r="2.5" class="obs"/>
<line x1="497.72247124115256" y1="83.18181818181819" x2="497.72247124115256" y2="90.11177347242922" class="err"/>
<line x1="494.72247124115256" y1="83.18181818181819" x2="500.72247124115256" y2="83.18181818181819" class="err"/>
<line x1="494.72247124115256" y1="90.11177347242922" x2="500.72247124115256" y2="90.11177347242922" class="err"/>
<circle cx="497.72247124115256" cy="86.64679582712373" r="2.5" class="obs"/>
<line x1="540.1483843804572" y1="87.22429210134132" x2="540.1483843804572" y2="95.30923994038753" class="err"/>
<line x1="537.1483843804572" y1="87.22429210134132" x2="543.1483843804572" y2="87.22429210134132" class="err"/>
<line x1="537.1483843804572" y1="95.30923994038753" x2="543.1483843804572" y2="95.30923994038753" class="err"/>
<circle cx="540.1483843804572" cy="91.26676602086442" r="2.5" class="obs"/>
<line x1="582.5742975197617" y1="94.73174366616996" x2="582.5742975197617" y2="109.74664679582716" class="err"/>
<line x1="579.5742975197617" y1="94.73174366616996" x2="585.5742975197617" y2="94.73174366616996" class="err"/>
<line x1="579.5742975197617" y1="109.74664679582716" x2="585.5742975197617" y2="109.74664679582716" class="err"/>
<circle cx="582.5742975197617" cy="102.23919523099855" r="2.5" class="obs"/>
<g class="legend">
<line x1="82" y1="69" x2="106" y2="69" class="fw"/>
<text x="112" y="73" class="lbl-l">framework fit</text>
<line x1="82" y1="87" x2="106" y2="87" class="nt"/>
<text x="112" y="91" class="lbl-l">Newtonian (no halo)</text>
<circle cx="94" cy="105" r="2.5" class="obs"/>
<text x="112" y="109" class="lbl">observed V±err</text>
</g>
<g class="legend">
<line x1="472" y1="69" x2="496" y2="69" class="rho"/>
<text x="502" y="73" class="lbl-r">ρ(r) raw</text>
<line x1="472" y1="87" x2="496" y2="87" class="sig"/>
<text x="502" y="91" class="lbl-s">Σ(r) cumulative</text>
<text x="472" y="113" class="lbl-r">ρ peak: 57 M☉/pc²</text>
</g>
<rect x="705" y="55" width="170" height="170" class="preview-bg"/>
<defs><radialGradient id="g_DDO154" cx="0.5" cy="0.5" r="0.5">
  <stop offset="0.0000" stop-color="rgb(36,36,36)"/>
  <stop offset="0.0312" stop-color="rgb(34,34,34)"/>
  <stop offset="0.0625" stop-color="rgb(32,32,32)"/>
  <stop offset="0.0938" stop-color="rgb(30,30,30)"/>
  <stop offset="0.1250" stop-color="rgb(30,30,30)"/>
  <stop offset="0.1562" stop-color="rgb(29,29,29)"/>
  <stop offset="0.1875" stop-color="rgb(29,29,29)"/>
  <stop offset="0.2188" stop-color="rgb(28,28,28)"/>
  <stop offset="0.2500" stop-color="rgb(27,27,27)"/>
  <stop offset="0.2812" stop-color="rgb(27,27,27)"/>
  <stop offset="0.3125" stop-color="rgb(26,26,26)"/>
  <stop offset="0.3438" stop-color="rgb(25,25,25)"/>
  <stop offset="0.3750" stop-color="rgb(25,25,25)"/>
  <stop offset="0.4062" stop-color="rgb(24,24,24)"/>
  <stop offset="0.4375" stop-color="rgb(24,24,24)"/>
  <stop offset="0.4688" stop-color="rgb(23,23,23)"/>
  <stop offset="0.5000" stop-color="rgb(22,22,22)"/>
  <stop offset="0.5312" stop-color="rgb(21,21,21)"/>
  <stop offset="0.5625" stop-color="rgb(21,21,21)"/>
  <stop offset="0.5938" stop-color="rgb(20,20,20)"/>
  <stop offset="0.6250" stop-color="rgb(19,19,19)"/>
  <stop offset="0.6562" stop-color="rgb(19,19,19)"/>
  <stop offset="0.6875" stop-color="rgb(18,18,18)"/>
  <stop offset="0.7188" stop-color="rgb(17,17,17)"/>
  <stop offset="0.7500" stop-color="rgb(16,16,16)"/>
  <stop offset="0.7812" stop-color="rgb(16,16,16)"/>
  <stop offset="0.8125" stop-color="rgb(15,15,15)"/>
  <stop offset="0.8438" stop-color="rgb(14,14,14)"/>
  <stop offset="0.8750" stop-color="rgb(14,14,14)"/>
  <stop offset="0.9062" stop-color="rgb(13,13,13)"/>
  <stop offset="0.9375" stop-color="rgb(12,12,12)"/>
  <stop offset="0.9688" stop-color="rgb(6,6,6)"/>
  <stop offset="1.0000" stop-color="rgb(0,0,0)"/>
</radialGradient></defs>
<circle cx="790.0" cy="140.0" r="81.0" fill="url(#g_DDO154)"/>
<text x="790.0" y="49" text-anchor="middle" class="preview-lbl">face-on luminance from ρ(r)</text>
<text x="790.0" y="239" text-anchor="middle" class="preview-lbl">edge at r = 6.0 kpc</text>
</svg>