<svg xmlns="http://www.w3.org/2000/svg" viewBox="0 0 720 420" width="720" height="420" font-family="sans-serif" font-size="12">
<style>
  .ax { stroke: #333; stroke-width: 1; fill: none; }
  .grid { stroke: #ddd; stroke-width: 0.5; fill: none; }
  .lbl { fill: #333; }
  .lbl-l { fill: #0066cc; }
  .lbl-r { fill: #b03030; }
  .obs { fill: #222; }
  .err { stroke: #555; stroke-width: 0.8; fill: none; }
  .fw { stroke: #0066cc; stroke-width: 2.2; fill: none; }
  .nt { stroke: #cc6600; stroke-width: 1.6; fill: none; stroke-dasharray: 5,3; }
  .rho { stroke: #b03030; stroke-width: 2.0; fill: none; }
  .sig { stroke: #b03030; stroke-width: 1.6; fill: none; stroke-dasharray: 4,2; opacity: 0.85; }
  .title { fill: #111; font-size: 16px; font-weight: 600; }
  .subtitle { fill: #555; font-size: 11px; }
  .legend { font-size: 11px; }
</style>
<text x="360.0" y="22" text-anchor="middle" class="title">DDO161</text>
<text x="360.0" y="38" text-anchor="middle" class="subtitle">rMax=13.4 kpc, N=31, RMS=1.4 km/s (2.9%), amp=565</text>
<line x1="70" y1="365.0" x2="635" y2="365.0" class="grid"/>
<text x="64" y="369.0" text-anchor="end" class="lbl-l">0</text>
<line x1="70" y1="303.0" x2="635" y2="303.0" class="grid"/>
<text x="64" y="307.0" text-anchor="end" class="lbl-l">16</text>
<line x1="70" y1="241.0" x2="635" y2="241.0" class="grid"/>
<text x="64" y="245.0" text-anchor="end" class="lbl-l">31</text>
<line x1="70" y1="178.99999999999997" x2="635" y2="178.99999999999997" class="grid"/>
<text x="64" y="182.99999999999997" text-anchor="end" class="lbl-l">47</text>
<line x1="70" y1="116.99999999999999" x2="635" y2="116.99999999999999" class="grid"/>
<text x="64" y="120.99999999999999" text-anchor="end" class="lbl-l">62</text>
<line x1="70" y1="55.0" x2="635" y2="55.0" class="grid"/>
<text x="64" y="59.0" text-anchor="end" class="lbl-l">78</text>
<text x="641" y="369.0" text-anchor="start" class="lbl-r">0.0</text>
<text x="641" y="327.6666666666667" text-anchor="start" class="lbl-r">0.2</text>
<text x="641" y="286.33333333333337" text-anchor="start" class="lbl-r">0.4</text>
<text x="641" y="245.00000000000003" text-anchor="start" class="lbl-r">0.6</text>
<text x="641" y="203.66666666666666" text-anchor="start" class="lbl-r">0.8</text>
<text x="641" y="162.33333333333334" text-anchor="start" class="lbl-r">1.0</text>
<line x1="70.0" y1="55" x2="70.0" y2="365" class="grid"/>
<text x="70.0" y="381" text-anchor="middle" class="lbl">0.0</text>
<line x1="164.16666666666666" y1="55" x2="164.16666666666666" y2="365" class="grid"/>
<text x="164.16666666666666" y="381" text-anchor="middle" class="lbl">2.5</text>
<line x1="258.3333333333333" y1="55" x2="258.3333333333333" y2="365" class="grid"/>
<text x="258.3333333333333" y="381" text-anchor="middle" class="lbl">5.1</text>
<line x1="352.5" y1="55" x2="352.5" y2="365" class="grid"/>
<text x="352.5" y="381" text-anchor="middle" class="lbl">7.6</text>
<line x1="446.66666666666663" y1="55" x2="446.66666666666663" y2="365" class="grid"/>
<text x="446.66666666666663" y="381" text-anchor="middle" class="lbl">10.1</text>
<line x1="540.8333333333334" y1="55" x2="540.8333333333334" y2="365" class="grid"/>
<text x="540.8333333333334" y="381" text-anchor="middle" class="lbl">12.6</text>
<line x1="635.0" y1="55" x2="635.0" y2="365" class="grid"/>
<text x="635.0" y="381" text-anchor="middle" class="lbl">15.2</text>
<text x="352.5" y="408" text-anchor="middle" class="lbl">radius (kpc)</text>
<text x="16" y="210.0" text-anchor="middle" class="lbl-l" transform="rotate(-90, 16, 210.0)">velocity (km/s)</text>
<text x="704" y="210.0" text-anchor="middle" class="lbl-r" transform="rotate(-90, 704, 210.0)">mass profile (normalized to peak)</text>
<rect x="70" y="55" width="565" height="310" class="ax"/>
<path d="M 70.0,158.3 L 72.6,168.4 L 75.2,178.5 L 77.7,188.5 L 80.3,198.6 L 82.9,208.7 L 85.5,218.8 L 88.1,224.7 L 90.6,225.1 L 93.2,225.6 L 95.8,226.0 L 98.4,226.5 L 101.0,226.9 L 103.5,227.4 L 106.1,227.8 L 108.7,228.3 L 111.3,228.7 L 113.9,229.2 L 116.4,229.6 L 119.0,230.0 L 121.6,230.5 L 124.2,230.9 L 126.8,231.4 L 129.3,231.8 L 131.9,232.3 L 134.5,232.7 L 137.1,233.2 L 139.7,233.6 L 142.2,234.1 L 144.8,234.5 L 147.4,235.0 L 150.0,235.4 L 152.6,235.9 L 155.1,236.3 L 157.7,236.8 L 160.3,237.2 L 162.9,237.7 L 165.5,238.1 L 168.0,238.6 L 170.6,239.0 L 173.2,239.5 L 175.8,239.9 L 178.4,240.4 L 180.9,240.8 L 183.5,241.3 L 186.1,241.7 L 188.7,242.2 L 191.3,242.6 L 193.8,243.1 L 196.4,243.5 L 199.0,244.0 L 201.6,244.4 L 204.2,244.9 L 206.7,245.3 L 209.3,245.8 L 211.9,246.2 L 214.5,246.7 L 217.1,247.1 L 219.6,247.6 L 222.2,248.0 L 224.8,248.5 L 227.4,248.9 L 230.0,249.3 L 232.5,249.7 L 235.1,250.0 L 237.7,250.3 L 240.3,250.6 L 242.9,251.0 L 245.4,251.3 L 248.0,251.6 L 250.6,251.9 L 253.2,252.3 L 255.8,252.6 L 258.3,252.9 L 260.9,253.2 L 263.5,253.5 L 266.1,253.9 L 268.7,254.2 L 271.2,254.5 L 273.8,254.8 L 276.4,255.2 L 279.0,255.5 L 281.6,255.8 L 284.1,256.1 L 286.7,256.5 L 289.3,256.8 L 291.9,257.1 L 294.5,257.4 L 297.0,257.8 L 299.6,258.1 L 302.2,258.4 L 304.8,258.7 L 307.4,259.1 L 309.9,259.4 L 312.5,259.7 L 315.1,260.0 L 317.7,260.4 L 320.3,260.7 L 322.8,261.0 L 325.4,261.3 L 328.0,261.7 L 330.6,262.0 L 333.2,262.3 L 335.7,262.6 L 338.3,263.0 L 340.9,263.4 L 343.5,263.8 L 346.1,264.3 L 348.6,264.8 L 351.2,265.2 L 353.8,265.7 L 356.4,266.2 L 358.9,266.6 L 361.5,267.1 L 364.1,267.6 L 366.7,268.0 L 369.3,268.5 L 371.8,269.0 L 374.4,269.4 L 377.0,269.9 L 379.6,270.4 L 382.2,270.8 L 384.7,271.3 L 387.3,271.8 L 389.9,272.2 L 392.5,272.7 L 395.1,273.2 L 397.6,273.6 L 400.2,274.1 L 402.8,274.6 L 405.4,275.0 L 408.0,275.5 L 410.5,276.0 L 413.1,276.4 L 415.7,276.9 L 418.3,277.4 L 420.9,277.8 L 423.4,278.3 L 426.0,278.8 L 428.6,279.2 L 431.2,279.7 L 433.8,280.1 L 436.3,280.6 L 438.9,281.1 L 441.5,281.5 L 444.1,282.0 L 446.7,282.5 L 449.2,282.9 L 451.8,283.4 L 454.4,283.9 L 457.0,284.3 L 459.6,284.8 L 462.1,285.3 L 464.7,285.7 L 467.3,286.2 L 469.9,286.7 L 472.5,287.1 L 475.0,287.6 L 477.6,288.1 L 480.2,288.5 L 482.8,289.0 L 485.4,289.5 L 487.9,289.9 L 490.5,290.4 L 493.1,290.9 L 495.7,291.3 L 498.3,291.8 L 500.8,292.3 L 503.4,292.7 L 506.0,293.2 L 508.6,293.7 L 511.2,294.1 L 513.7,294.6 L 516.3,295.1 L 518.9,295.5 L 521.5,296.0 L 524.1,296.5 L 526.6,296.9 L 529.2,297.4 L 531.8,297.9 L 534.4,298.3 L 537.0,298.8 L 539.5,299.3 L 542.1,299.7 L 544.7,300.2 L 547.3,300.7 L 549.9,301.1 L 552.4,301.6 L 555.0,302.0 L 557.6,302.5 L 560.2,303.0 L 562.8,303.4 L 565.3,303.9 L 567.9,304.4 L 570.5,304.8 L 573.1,305.3 L 575.7,305.8 L 578.2,306.2 L 580.8,306.7 L 583.4,307.6 L 586.0,313.6 L 588.6,319.6 L 591.1,325.6 L 593.7,331.6 L 596.3,337.6 L 598.9,343.6 L 601.5,349.6 L 604.0,355.6 L 606.6,361.6 L 609.2,365.0 L 611.8,365.0 L 614.4,365.0 L 616.9,365.0 L 619.5,365.0 L 622.1,365.0 L 624.7,365.0 L 627.3,365.0 L 629.8,365.0 L 632.4,365.0 L 635.0,365.0" class="rho"/>
<path d="M 70.0,158.3 L 72.6,158.5 L 75.2,158.9 L 77.7,159.3 L 80.3,159.9 L 82.9,160.6 L 85.5,161.4 L 88.1,162.2 L 90.6,163.1 L 93.2,164.1 L 95.8,165.0 L 98.4,165.9 L 101.0,166.9 L 103.5,167.8 L 106.1,168.7 L 108.7,169.7 L 111.3,170.6 L 113.9,171.5 L 116.4,172.5 L 119.0,173.4 L 121.6,174.3 L 124.2,175.3 L 126.8,176.2 L 129.3,177.2 L 131.9,178.1 L 134.5,179.1 L 137.1,180.1 L 139.7,181.1 L 142.2,182.1 L 144.8,183.1 L 147.4,184.1 L 150.0,185.1 L 152.6,186.1 L 155.1,187.1 L 157.7,188.1 L 160.3,189.1 L 162.9,190.2 L 165.5,191.2 L 168.0,192.3 L 170.6,193.3 L 173.2,194.3 L 175.8,195.4 L 178.4,196.4 L 180.9,197.5 L 183.5,198.6 L 186.1,199.6 L 188.7,200.7 L 191.3,201.7 L 193.8,202.8 L 196.4,203.8 L 199.0,204.9 L 201.6,206.0 L 204.2,207.0 L 206.7,208.1 L 209.3,209.1 L 211.9,210.2 L 214.5,211.2 L 217.1,212.2 L 219.6,213.3 L 222.2,214.3 L 224.8,215.3 L 227.4,216.3 L 230.0,217.4 L 232.5,218.4 L 235.1,219.4 L 237.7,220.4 L 240.3,221.4 L 242.9,222.4 L 245.4,223.3 L 248.0,224.3 L 250.6,225.3 L 253.2,226.3 L 255.8,227.2 L 258.3,228.2 L 260.9,229.1 L 263.5,230.1 L 266.1,231.1 L 268.7,232.0 L 271.2,233.0 L 273.8,233.9 L 276.4,234.9 L 279.0,235.8 L 281.6,236.7 L 284.1,237.7 L 286.7,238.6 L 289.3,239.6 L 291.9,240.5 L 294.5,241.5 L 297.0,242.4 L 299.6,243.3 L 302.2,244.3 L 304.8,245.2 L 307.4,246.1 L 309.9,247.1 L 312.5,248.0 L 315.1,249.0 L 317.7,249.9 L 320.3,250.9 L 322.8,251.8 L 325.4,252.7 L 328.0,253.7 L 330.6,254.6 L 333.2,255.6 L 335.7,256.6 L 338.3,257.5 L 340.9,258.5 L 343.5,259.4 L 346.1,260.4 L 348.6,261.4 L 351.2,262.3 L 353.8,263.3 L 356.4,264.3 L 358.9,265.3 L 361.5,266.2 L 364.1,267.2 L 366.7,268.2 L 369.3,269.1 L 371.8,270.1 L 374.4,271.1 L 377.0,272.0 L 379.6,273.0 L 382.2,273.9 L 384.7,274.9 L 387.3,275.8 L 389.9,276.8 L 392.5,277.7 L 395.1,278.7 L 397.6,279.6 L 400.2,280.5 L 402.8,281.5 L 405.4,282.4 L 408.0,283.3 L 410.5,284.2 L 413.1,285.2 L 415.7,286.1 L 418.3,287.0 L 420.9,287.9 L 423.4,288.7 L 426.0,289.6 L 428.6,290.5 L 431.2,291.4 L 433.8,292.3 L 436.3,293.1 L 438.9,294.0 L 441.5,294.9 L 444.1,295.7 L 446.7,296.5 L 449.2,297.4 L 451.8,298.2 L 454.4,299.1 L 457.0,299.9 L 459.6,300.7 L 462.1,301.5 L 464.7,302.3 L 467.3,303.1 L 469.9,303.9 L 472.5,304.7 L 475.0,305.5 L 477.6,306.3 L 480.2,307.1 L 482.8,307.8 L 485.4,308.6 L 487.9,309.4 L 490.5,310.1 L 493.1,310.9 L 495.7,311.6 L 498.3,312.4 L 500.8,313.1 L 503.4,313.8 L 506.0,314.5 L 508.6,315.3 L 511.2,316.0 L 513.7,316.7 L 516.3,317.4 L 518.9,318.1 L 521.5,318.8 L 524.1,319.5 L 526.6,320.2 L 529.2,320.9 L 531.8,321.6 L 534.4,322.3 L 537.0,323.0 L 539.5,323.7 L 542.1,324.3 L 544.7,325.0 L 547.3,325.7 L 549.9,326.4 L 552.4,327.1 L 555.0,327.7 L 557.6,328.4 L 560.2,329.1 L 562.8,329.8 L 565.3,330.5 L 567.9,331.2 L 570.5,331.9 L 573.1,332.7 L 575.7,333.4 L 578.2,334.1 L 580.8,334.8 L 583.4,335.6 L 586.0,336.3 L 588.6,337.0 L 591.1,337.7 L 593.7,338.4 L 596.3,339.1 L 598.9,339.7 L 601.5,340.3 L 604.0,340.9 L 606.6,341.5 L 609.2,342.0 L 611.8,342.6 L 614.4,343.1 L 616.9,343.5 L 619.5,344.0 L 622.1,344.4 L 624.7,344.8 L 627.3,345.2 L 629.8,345.5 L 632.4,345.9 L 635.0,346.2" class="sig"/>
<path d="M 75.7,322.4 L 81.3,307.1 L 87.0,297.1 L 92.6,289.1 L 98.2,281.5 L 103.9,274.4 L 109.6,267.9 L 115.2,261.7 L 120.9,255.9 L 126.5,250.5 L 132.1,245.3 L 137.8,240.4 L 143.4,235.7 L 149.1,231.3 L 154.8,227.0 L 160.4,222.9 L 166.1,218.9 L 171.7,215.1 L 177.3,211.4 L 183.0,207.8 L 188.7,204.3 L 194.3,201.0 L 199.9,197.8 L 205.6,194.6 L 211.2,191.6 L 216.9,188.6 L 222.6,185.7 L 228.2,182.9 L 233.9,180.2 L 239.5,177.5 L 245.1,174.9 L 250.8,172.4 L 256.5,169.9 L 262.1,167.4 L 267.8,165.0 L 273.4,162.6 L 279.1,160.3 L 284.7,158.1 L 290.4,155.8 L 296.0,153.7 L 301.6,151.5 L 307.3,149.4 L 312.9,147.4 L 318.6,145.4 L 324.2,143.4 L 329.9,141.4 L 335.6,139.5 L 341.2,137.7 L 346.9,135.8 L 352.5,134.1 L 358.1,132.3 L 363.8,130.6 L 369.4,129.0 L 375.1,127.4 L 380.8,125.8 L 386.4,124.2 L 392.0,122.8 L 397.7,121.3 L 403.4,119.9 L 409.0,118.5 L 414.7,117.1 L 420.3,115.8 L 426.0,114.5 L 431.6,113.3 L 437.2,112.1 L 442.9,110.9 L 448.5,109.7 L 454.2,108.6 L 459.8,107.5 L 465.5,106.5 L 471.1,105.4 L 476.8,104.4 L 482.4,103.5 L 488.1,102.5 L 493.8,101.6 L 499.4,100.7 L 505.0,99.9 L 510.7,99.1 L 516.4,98.3 L 522.0,97.5 L 527.7,96.7 L 533.3,96.0 L 539.0,95.3 L 544.6,94.6 L 550.2,94.0 L 555.9,93.4 L 561.5,92.8 L 567.2,92.2 L 572.9,91.7 L 578.5,91.2 L 584.1,90.7 L 589.8,90.5 L 595.4,90.7 L 601.1,91.4 L 606.8,92.5 L 612.4,93.9 L 618.0,95.3 L 623.7,96.7 L 629.4,98.1 L 635.0,99.4" class="nt"/>
<path d="M 74.7,344.9 L 79.4,330.4 L 84.1,316.7 L 88.8,305.4 L 93.5,296.6 L 98.2,289.5 L 103.0,283.4 L 107.7,277.9 L 112.4,272.6 L 117.1,267.5 L 121.8,262.3 L 126.5,257.2 L 131.2,252.2 L 135.9,247.2 L 140.6,242.4 L 145.3,237.6 L 150.0,233.0 L 154.8,228.5 L 159.5,224.1 L 164.2,219.9 L 168.9,215.8 L 173.6,211.9 L 178.3,208.1 L 183.0,204.5 L 187.7,201.1 L 192.4,197.8 L 197.1,194.7 L 201.8,191.8 L 206.5,189.1 L 211.2,186.5 L 216.0,184.2 L 220.7,182.0 L 225.4,180.0 L 230.1,178.2 L 234.8,176.4 L 239.5,174.6 L 244.2,172.8 L 248.9,171.0 L 253.6,169.2 L 258.3,167.3 L 263.0,165.3 L 267.8,163.4 L 272.5,161.4 L 277.2,159.4 L 281.9,157.3 L 286.6,155.2 L 291.3,153.1 L 296.0,151.0 L 300.7,148.8 L 305.4,146.6 L 310.1,144.3 L 314.8,142.0 L 319.5,139.6 L 324.2,137.1 L 329.0,134.5 L 333.7,131.9 L 338.4,129.2 L 343.1,126.7 L 347.8,124.2 L 352.5,121.9 L 357.2,119.7 L 361.9,117.8 L 366.6,116.0 L 371.3,114.4 L 376.0,113.0 L 380.8,111.6 L 385.5,110.5 L 390.2,109.4 L 394.9,108.4 L 399.6,107.6 L 404.3,106.8 L 409.0,106.1 L 413.7,105.5 L 418.4,105.0 L 423.1,104.5 L 427.8,104.2 L 432.5,103.8 L 437.2,103.6 L 442.0,103.4 L 446.7,103.2 L 451.4,103.1 L 456.1,103.0 L 460.8,103.0 L 465.5,103.0 L 470.2,103.1 L 474.9,103.1 L 479.6,103.2 L 484.3,103.3 L 489.0,103.5 L 493.8,103.6 L 498.5,103.7 L 503.2,103.8 L 507.9,103.9 L 512.6,103.9 L 517.3,103.8 L 522.0,103.7 L 526.7,103.4 L 531.4,103.0 L 536.1,102.4 L 540.8,101.6 L 545.5,100.4 L 550.2,98.9 L 555.0,96.9 L 559.7,94.4 L 564.4,91.5 L 569.1,88.3 L 573.8,85.2 L 578.5,82.9 L 583.2,82.0 L 587.9,83.4 L 592.6,87.2 L 597.3,93.5 L 602.0,101.8 L 606.8,111.3 L 611.5,121.3 L 616.2,131.1 L 620.9,140.3 L 625.6,148.9 L 630.3,156.6 L 635.0,163.7" class="fw"/>
<line x1="92.35914726565437" y1="287.17323118058414" x2="92.35914726565437" y2="315.30722953517073" class="err"/>
<line x1="89.35914726565437" y1="287.17323118058414" x2="95.35914726565437" y2="287.17323118058414" class="err"/>
<line x1="89.35914726565437" y1="315.30722953517073" x2="95.35914726565437" y2="315.30722953517073" class="err"/>
<circle cx="92.35914726565437" cy="301.2402303578774" r="2.5" class="obs"/>
<line x1="97.20362917321282" y1="279.60175853558206" x2="97.20362917321282" y2="318.0967194570136" class="err"/>
<line x1="94.20362917321282" y1="279.60175853558206" x2="100.20362917321282" y2="279.60175853558206" class="err"/>
<line x1="94.20362917321282" y1="318.0967194570136" x2="100.20362917321282" y2="318.0967194570136" class="err"/>
<circle cx="97.20362917321282" cy="298.8492389962978" r="2.5" class="obs"/>
<line x1="101.6754586263437" y1="280.91680378445085" x2="101.6754586263437" y2="300.84173179761416" class="err"/>
<line x1="98.6754586263437" y1="280.91680378445085" x2="104.6754586263437" y2="280.91680378445085" class="err"/>
<line x1="98.6754586263437" y1="300.84173179761416" x2="104.6754586263437" y2="300.84173179761416" class="err"/>
<circle cx="101.6754586263437" cy="290.8792677910325" r="2.5" class="obs"/>
<line x1="106.51994053390214" y1="255.0940970793912" x2="106.51994053390214" y2="315.50647881530233" class="err"/>
<line x1="103.51994053390214" y1="255.0940970793912" x2="109.51994053390214" y2="255.0940970793912" class="err"/>
<line x1="103.51994053390214" y1="315.50647881530233" x2="109.51994053390214" y2="315.50647881530233" class="err"/>
<circle cx="106.51994053390214" cy="285.30028794734676" r="2.5" class="obs"/>
<line x1="109.8738126237503" y1="263.6618161250514" x2="109.8738126237503" y2="295.7808000822707" class="err"/>
<line x1="106.8738126237503" y1="263.6618161250514" x2="112.8738126237503" y2="263.6618161250514" class="err"/>
<line x1="106.8738126237503" y1="295.7808000822707" x2="112.8738126237503" y2="295.7808000822707" class="err"/>
<circle cx="109.8738126237503" cy="279.72130810366104" r="2.5" class="obs"/>
<line x1="127.38847798184622" y1="238.91505553270258" x2="127.38847798184622" y2="260.75277663512963" class="err"/>
<line x1="124.38847798184622" y1="238.91505553270258" x2="130.38847798184622" y2="238.91505553270258" class="err"/>
<line x1="124.38847798184622" y1="260.75277663512963" x2="130.38847798184622" y2="260.75277663512963" class="err"/>
<circle cx="127.38847798184622" cy="249.8339160839161" r="2.5" class="obs"/>
<line x1="145.2757957943697" y1="223.3337618264089" x2="145.2757957943697" y2="244.45418552036202" class="err"/>
<line x1="142.2757957943697" y1="223.3337618264089" x2="148.2757957943697" y2="223.3337618264089" class="err"/>
<line x1="142.2757957943697" y1="244.45418552036202" x2="148.2757957943697" y2="244.45418552036202" class="err"/>
<circle cx="145.2757957943697" cy="233.89397367338546" r="2.5" class="obs"/>
<line x1="162.79046115246564" y1="213.25174825174824" x2="162.79046115246564" y2="236.20526532291237" class="err"/>
<line x1="159.79046115246564" y1="213.25174825174824" x2="165.79046115246564" y2="213.25174825174824" class="err"/>
<line x1="159.79046115246564" y1="236.20526532291237" x2="165.79046115246564" y2="236.20526532291237" class="err"/>
<circle cx="162.79046115246564" cy="224.72850678733033" r="2.5" class="obs"/>
<line x1="180.30512651056156" y1="203.01033525298234" x2="180.30512651056156" y2="227.31874742904154" class="err"/>
<line x1="177.30512651056156" y1="203.01033525298234" x2="183.30512651056156" y2="203.01033525298234" class="err"/>
<line x1="177.30512651056156" y1="227.31874742904154" x2="183.30512651056156" y2="227.31874742904154" class="err"/>
<circle cx="180.30512651056156" cy="215.16454134101193" r="2.5" class="obs"/>
<line x1="197.8197918686575" y1="188.54483751542577" x2="197.8197918686575" y2="217.87433155080214" class="err"/>
<line x1="194.8197918686575" y1="188.54483751542577" x2="200.8197918686575" y2="188.54483751542577" class="err"/>
<line x1="194.8197918686575" y1="217.87433155080214" x2="200.8197918686575" y2="217.87433155080214" class="err"/>
<circle cx="197.8197918686575" cy="203.20958453311394" r="2.5" class="obs"/>
<line x1="215.3344572267534" y1="181.8899115590292" x2="215.3344572267534" y2="207.7923179761415" class="err"/>
<line x1="212.3344572267534" y1="181.8899115590292" x2="218.3344572267534" y2="181.8899115590292" class="err"/>
<line x1="212.3344572267534" y1="207.7923179761415" x2="218.3344572267534" y2="207.7923179761415" class="err"/>
<circle cx="215.3344572267534" cy="194.84111476758537" r="2.5" class="obs"/>
<line x1="232.8491225848493" y1="171.76804812834226" x2="232.8491225848493" y2="195.5982620320856" class="err"/>
<line x1="229.8491225848493" y1="171.76804812834226" x2="235.8491225848493" y2="171.76804812834226" class="err"/>
<line x1="229.8491225848493" y1="195.5982620320856" x2="235.8491225848493" y2="195.5982620320856" class="err"/>
<circle cx="232.8491225848493" cy="183.6831550802139" r="2.5" class="obs"/>
<line x1="251.1090928518004" y1="162.32363225010283" x2="251.1090928518004" y2="177.9447758124229" class="err"/>
<line x1="248.1090928518004" y1="162.32363225010283" x2="254.1090928518004" y2="162.32363225010283" class="err"/>
<line x1="248.1090928518004" y1="177.9447758124229" x2="254.1090928518004" y2="177.9447758124229" class="err"/>
<circle cx="251.1090928518004" cy="170.13420403126287" r="2.5" class="obs"/>
<line x1="268.9964106643239" y1="153.67621349238993" x2="268.9964106643239" y2="165.8702694364459" class="err"/>
<line x1="265.9964106643239" y1="153.67621349238993" x2="271.9964106643239" y2="153.67621349238993" class="err"/>
<line x1="265.9964106643239" y1="165.8702694364459" x2="271.9964106643239" y2="165.8702694364459" class="err"/>
<circle cx="268.9964106643239" cy="159.77324146441794" r="2.5" class="obs"/>
<line x1="286.5110760224198" y1="146.38368983957218" x2="286.5110760224198" y2="161.2078362813657" class="err"/>
<line x1="283.5110760224198" y1="146.38368983957218" x2="289.5110760224198" y2="146.38368983957218" class="err"/>
<line x1="283.5110760224198" y1="161.2078362813657" x2="289.5110760224198" y2="161.2078362813657" class="err"/>
<circle cx="286.5110760224198" cy="153.79576306046894" r="2.5" class="obs"/>
<line x1="304.02574138051574" y1="139.9280131633073" x2="304.02574138051574" y2="151.72357054709994" class="err"/>
<line x1="301.02574138051574" y1="139.9280131633073" x2="307.02574138051574" y2="139.9280131633073" class="err"/>
<line x1="301.02574138051574" y1="151.72357054709994" x2="307.02574138051574" y2="151.72357054709994" class="err"/>
<circle cx="304.02574138051574" cy="145.82579185520365" r="2.5" class="obs"/>
<line x1="321.54040673861164" y1="131.51969354175236" x2="321.54040673861164" y2="139.40996503496504" class="err"/>
<line x1="318.54040673861164" y1="131.51969354175236" x2="324.54040673861164" y2="131.51969354175236" class="err"/>
<line x1="318.54040673861164" y1="139.40996503496504" x2="324.54040673861164" y2="139.40996503496504" class="err"/>
<circle cx="321.54040673861164" cy="135.46482928835871" r="2.5" class="obs"/>
<line x1="339.0550720967076" y1="122.35422665569725" x2="339.0550720967076" y2="131.83849238996294" class="err"/>
<line x1="336.0550720967076" y1="122.35422665569725" x2="342.0550720967076" y2="122.35422665569725" class="err"/>
<line x1="336.0550720967076" y1="131.83849238996294" x2="342.0550720967076" y2="131.83849238996294" class="err"/>
<circle cx="339.0550720967076" cy="127.09635952283011" r="2.5" class="obs"/>
<line x1="356.56973745480354" y1="118.88728918140684" x2="356.56973745480354" y2="128.92945290004116" class="err"/>
<line x1="353.56973745480354" y1="118.88728918140684" x2="359.56973745480354" y2="118.88728918140684" class="err"/>
<line x1="353.56973745480354" y1="128.92945290004116" x2="359.56973745480354" y2="128.92945290004116" class="err"/>
<circle cx="356.56973745480354" cy="123.90837104072398" r="2.5" class="obs"/>
<line x1="374.08440281289944" y1="113.42785890580012" x2="374.08440281289944" y2="124.02792060880297" class="err"/>
<line x1="371.08440281289944" y1="113.42785890580012" x2="377.08440281289944" y2="113.42785890580012" class="err"/>
<line x1="371.08440281289944" y1="124.02792060880297" x2="377.08440281289944" y2="124.02792060880297" class="err"/>
<circle cx="374.08440281289944" cy="118.72788975730154" r="2.5" class="obs"/>
<line x1="391.97172062542296" y1="108.96467503085151" x2="391.97172062542296" y2="119.72413615795969" class="err"/>
<line x1="388.97172062542296" y1="108.96467503085151" x2="394.97172062542296" y2="108.96467503085151" class="err"/>
<line x1="388.97172062542296" y1="119.72413615795969" x2="394.97172062542296" y2="119.72413615795969" class="err"/>
<circle cx="391.97172062542296" cy="114.3444055944056" r="2.5" class="obs"/>
<line x1="409.4863859835188" y1="105.61728712464004" x2="409.4863859835188" y2="122.27452694364462" class="err"/>
<line x1="406.4863859835188" y1="105.61728712464004" x2="412.4863859835188" y2="105.61728712464004" class="err"/>
<line x1="406.4863859835188" y1="122.27452694364462" x2="412.4863859835188" y2="122.27452694364462" class="err"/>
<circle cx="409.4863859835188" cy="113.94590703414235" r="2.5" class="obs"/>
<line x1="427.0010513416148" y1="98.48416289592762" x2="427.0010513416148" y2="117.45269436445908" class="err"/>
<line x1="424.0010513416148" y1="98.48416289592762" x2="430.0010513416148" y2="98.48416289592762" class="err"/>
<line x1="424.0010513416148" y1="117.45269436445908" x2="430.0010513416148" y2="117.45269436445908" class="err"/>
<circle cx="427.0010513416148" cy="107.96842863019333" r="2.5" class="obs"/>
<line x1="444.5157166997107" y1="99.28116001645418" x2="444.5157166997107" y2="107.8887289181407" class="err"/>
<line x1="441.5157166997107" y1="99.28116001645418" x2="447.5157166997107" y2="99.28116001645418" class="err"/>
<line x1="441.5157166997107" y1="107.8887289181407" x2="447.5157166997107" y2="107.8887289181407" class="err"/>
<circle cx="444.5157166997107" cy="103.58494446729745" r="2.5" class="obs"/>
<line x1="462.0303820578066" y1="83.18181818181819" x2="462.0303820578066" y2="108.84512546277251" class="err"/>
<line x1="459.0303820578066" y1="83.18181818181819" x2="465.0303820578066" y2="83.18181818181819" class="err"/>
<line x1="459.0303820578066" y1="108.84512546277251" x2="465.0303820578066" y2="108.84512546277251" class="err"/>
<circle cx="462.0303820578066" cy="96.01347182229537" r="2.5" class="obs"/>
<line x1="479.54504741590256" y1="89.3585458658988" x2="479.54504741590256" y2="108.24737762237766" class="err"/>
<line x1="476.54504741590256" y1="89.3585458658988" x2="482.54504741590256" y2="89.3585458658988" class="err"/>
<line x1="476.54504741590256" y1="108.24737762237766" x2="482.54504741590256" y2="108.24737762237766" class="err"/>
<circle cx="479.54504741590256" cy="98.80296174413824" r="2.5" class="obs"/>
<line x1="497.0597127739985" y1="95.01722542163719" x2="497.0597127739985" y2="102.58869806663927" class="err"/>
<line x1="494.0597127739985" y1="95.01722542163719" x2="500.0597127739985" y2="95.01722542163719" class="err"/>
<line x1="494.0597127739985" y1="102.58869806663927" x2="500.0597127739985" y2="102.58869806663927" class="err"/>
<circle cx="497.0597127739985" cy="98.80296174413824" r="2.5" class="obs"/>
<line x1="514.947030586522" y1="95.77437268613744" x2="514.947030586522" y2="103.42554504319213" class="err"/>
<line x1="511.94703058652203" y1="95.77437268613744" x2="517.947030586522" y2="95.77437268613744" class="err"/>
<line x1="511.94703058652203" y1="103.42554504319213" x2="517.947030586522" y2="103.42554504319213" class="err"/>
<circle cx="514.947030586522" cy="99.59995886466476" r="2.5" class="obs"/>
<line x1="532.4616959446179" y1="94.85782599753193" x2="532.4616959446179" y2="102.74809749074453" class="err"/>
<line x1="529.4616959446179" y1="94.85782599753193" x2="535.4616959446179" y2="94.85782599753193" class="err"/>
<line x1="529.4616959446179" y1="102.74809749074453" x2="535.4616959446179" y2="102.74809749074453" class="err"/>
<circle cx="532.4616959446179" cy="98.80296174413824" r="2.5" class="obs"/>
<line x1="550.721666211569" y1="97.8465651995064" x2="550.721666211569" y2="103.7443438914027" class="err"/>
<line x1="547.721666211569" y1="97.8465651995064" x2="553.721666211569" y2="97.8465651995064" class="err"/>
<line x1="547.721666211569" y1="103.7443438914027" x2="553.721666211569" y2="103.7443438914027" class="err"/>
<circle cx="550.721666211569" cy="100.79545454545458" r="2.5" class="obs"/>
<line x1="568.2363315696648" y1="96.37212052653229" x2="568.2363315696648" y2="106.81278280542989" class="err"/>
<line x1="565.2363315696648" y1="96.37212052653229" x2="571.2363315696648" y2="96.37212052653229" class="err"/>
<line x1="565.2363315696648" y1="106.81278280542989" x2="571.2363315696648" y2="106.81278280542989" class="err"/>
<circle cx="568.2363315696648" cy="101.59245166598109" r="2.5" class="obs"/>
<g class="legend">
<line x1="82" y1="69" x2="106" y2="69" class="fw"/>
<text x="112" y="73" class="lbl-l">framework fit</text>
<line x1="82" y1="87" x2="106" y2="87" class="nt"/>
<text x="112" y="91" class="lbl-l">Newtonian (no halo)</text>
<circle cx="94" cy="105" r="2.5" class="obs"/>
<text x="112" y="109" class="lbl">observed V±err</text>
</g>
<g class="legend">
<line x1="460" y1="69" x2="484" y2="69" class="rho"/>
<text x="490" y="73" class="lbl-r">ρ(r) raw</text>
<line x1="460" y1="87" x2="484" y2="87" class="sig"/>
<text x="490" y="91" class="lbl-r">Σ(r) smoothed</text>
<text x="460" y="113" class="lbl-r">ρ peak: 60 M☉/pc²</text>
</g>
</svg>