<svg xmlns="http://www.w3.org/2000/svg" viewBox="0 0 890 420" width="890" height="420" font-family="sans-serif" font-size="12">
<style>
  .ax { stroke: #333; stroke-width: 1; fill: none; }
  .grid { stroke: #ddd; stroke-width: 0.5; fill: none; }
  .lbl { fill: #333; }
  .lbl-l { fill: #0066cc; }
  .lbl-r { fill: #b03030; }
  .obs { fill: #222; }
  .err { stroke: #555; stroke-width: 0.8; fill: none; }
  .fw { stroke: #0066cc; stroke-width: 2.2; fill: none; }
  .nt { stroke: #cc6600; stroke-width: 1.6; fill: none; stroke-dasharray: 5,3; }
  .lbl-s { fill: #cc7000; }
  .rho { stroke: #b03030; stroke-width: 2.0; fill: none; }
  .sig { stroke: #cc7000; stroke-width: 1.8; fill: none; }
  .title { fill: #111; font-size: 16px; font-weight: 600; }
  .subtitle { fill: #555; font-size: 11px; }
  .preview-bg { fill: #000; }
  .preview-lbl { fill: #888; font-size: 10px; }
  .legend { font-size: 11px; }
</style>
<text x="343.5" y="22" text-anchor="middle" class="title">DDO168</text>
<text x="343.5" y="38" text-anchor="middle" class="subtitle">rMax=4.1 kpc, N=10, RMS=0.7 km/s (1.7%), amp=105</text>
<line x1="70" y1="365.0" x2="617" y2="365.0" class="grid"/>
<text x="64" y="369.0" text-anchor="end" class="lbl-l">0</text>
<line x1="70" y1="303.0" x2="617" y2="303.0" class="grid"/>
<text x="64" y="307.0" text-anchor="end" class="lbl-l">13</text>
<line x1="70" y1="241.0" x2="617" y2="241.0" class="grid"/>
<text x="64" y="245.0" text-anchor="end" class="lbl-l">25</text>
<line x1="70" y1="179.0" x2="617" y2="179.0" class="grid"/>
<text x="64" y="183.0" text-anchor="end" class="lbl-l">38</text>
<line x1="70" y1="117.0" x2="617" y2="117.0" class="grid"/>
<text x="64" y="121.0" text-anchor="end" class="lbl-l">51</text>
<line x1="70" y1="55.0" x2="617" y2="55.0" class="grid"/>
<text x="64" y="59.0" text-anchor="end" class="lbl-l">63</text>
<text x="623" y="369.0" text-anchor="start" class="lbl-r">0.0</text>
<text x="623" y="327.7" text-anchor="start" class="lbl-r">0.2</text>
<text x="623" y="286.3" text-anchor="start" class="lbl-r">0.4</text>
<text x="623" y="245.0" text-anchor="start" class="lbl-r">0.6</text>
<text x="623" y="203.7" text-anchor="start" class="lbl-r">0.8</text>
<text x="623" y="162.3" text-anchor="start" class="lbl-r">1.0</text>
<line x1="70.0" y1="55" x2="70.0" y2="365" class="grid"/>
<text x="70.0" y="381" text-anchor="middle" class="lbl">0.0</text>
<line x1="161.2" y1="55" x2="161.2" y2="365" class="grid"/>
<text x="161.2" y="381" text-anchor="middle" class="lbl">0.7</text>
<line x1="252.3" y1="55" x2="252.3" y2="365" class="grid"/>
<text x="252.3" y="381" text-anchor="middle" class="lbl">1.4</text>
<line x1="343.5" y1="55" x2="343.5" y2="365" class="grid"/>
<text x="343.5" y="381" text-anchor="middle" class="lbl">2.1</text>
<line x1="434.7" y1="55" x2="434.7" y2="365" class="grid"/>
<text x="434.7" y="381" text-anchor="middle" class="lbl">2.9</text>
<line x1="525.8" y1="55" x2="525.8" y2="365" class="grid"/>
<text x="525.8" y="381" text-anchor="middle" class="lbl">3.6</text>
<line x1="617.0" y1="55" x2="617.0" y2="365" class="grid"/>
<text x="617.0" y="381" text-anchor="middle" class="lbl">4.3</text>
<text x="343.5" y="408" text-anchor="middle" class="lbl">radius (kpc)</text>
<text x="16" y="210" text-anchor="middle" class="lbl-l" transform="rotate(-90, 16, 210)">velocity (km/s)</text>
<text x="654" y="210" text-anchor="middle" class="lbl-r" transform="rotate(-90, 654, 210)">mass profile (normalized to peak)</text>
<rect x="70" y="55" width="547" height="310" class="ax"/>
<path d="M 70.0,158.3 L 72.5,173.6 L 75.0,188.9 L 77.5,204.2 L 80.0,219.5 L 82.5,234.8 L 85.0,247.1 L 87.5,247.4 L 90.0,247.7 L 92.5,248.0 L 95.0,248.4 L 97.5,248.7 L 100.0,249.0 L 102.5,249.3 L 105.0,249.6 L 107.5,249.9 L 110.0,250.3 L 112.5,250.6 L 115.0,250.9 L 117.5,251.2 L 120.0,251.5 L 122.5,251.8 L 124.9,252.2 L 127.4,252.5 L 129.9,252.8 L 132.4,253.1 L 134.9,253.4 L 137.4,253.8 L 139.9,254.1 L 142.4,254.4 L 144.9,254.7 L 147.4,255.0 L 149.9,255.3 L 152.4,255.7 L 154.9,256.0 L 157.4,256.3 L 159.9,256.6 L 162.4,256.9 L 164.9,257.2 L 167.4,257.6 L 169.9,257.9 L 172.4,258.2 L 174.9,258.4 L 177.4,258.6 L 179.9,258.8 L 182.4,259.0 L 184.9,259.2 L 187.4,259.3 L 189.9,259.5 L 192.4,259.7 L 194.9,259.9 L 197.4,260.1 L 199.9,260.3 L 202.4,260.5 L 204.9,260.7 L 207.4,260.9 L 209.9,261.0 L 212.4,261.2 L 214.9,261.4 L 217.4,261.6 L 219.9,261.8 L 222.4,262.0 L 224.9,262.2 L 227.4,262.4 L 229.9,262.5 L 232.4,262.7 L 234.8,262.9 L 237.3,263.1 L 239.8,263.3 L 242.3,263.5 L 244.8,263.7 L 247.3,263.9 L 249.8,264.1 L 252.3,264.2 L 254.8,264.4 L 257.3,264.6 L 259.8,264.8 L 262.3,265.0 L 264.8,265.2 L 267.3,265.4 L 269.8,265.6 L 272.3,265.8 L 274.8,265.9 L 277.3,266.1 L 279.8,266.3 L 282.3,266.5 L 284.8,266.7 L 287.3,266.9 L 289.8,267.1 L 292.3,267.3 L 294.8,267.5 L 297.3,267.6 L 299.8,267.8 L 302.3,268.0 L 304.8,268.2 L 307.3,268.4 L 309.8,268.6 L 312.3,268.8 L 314.8,269.0 L 317.3,269.2 L 319.8,269.3 L 322.3,269.5 L 324.8,269.7 L 327.3,269.9 L 329.8,270.1 L 332.3,270.3 L 334.8,270.8 L 337.3,271.2 L 339.8,271.7 L 342.3,272.2 L 344.7,272.7 L 347.2,273.1 L 349.7,273.6 L 352.2,274.1 L 354.7,274.6 L 357.2,275.0 L 359.7,275.5 L 362.2,276.0 L 364.7,276.4 L 367.2,276.9 L 369.7,277.4 L 372.2,277.9 L 374.7,278.3 L 377.2,278.8 L 379.7,279.3 L 382.2,279.8 L 384.7,280.2 L 387.2,280.7 L 389.7,281.2 L 392.2,281.6 L 394.7,282.1 L 397.2,282.6 L 399.7,283.1 L 402.2,283.5 L 404.7,284.0 L 407.2,284.5 L 409.7,285.0 L 412.2,285.4 L 414.7,285.9 L 417.2,286.4 L 419.7,286.9 L 422.2,287.3 L 424.7,287.8 L 427.2,288.3 L 429.7,288.7 L 432.2,289.2 L 434.7,289.7 L 437.2,290.2 L 439.7,290.6 L 442.2,291.1 L 444.7,291.6 L 447.2,292.1 L 449.7,292.5 L 452.2,293.0 L 454.6,293.5 L 457.1,293.9 L 459.6,294.4 L 462.1,294.9 L 464.6,295.4 L 467.1,295.8 L 469.6,296.3 L 472.1,296.8 L 474.6,297.3 L 477.1,297.7 L 479.6,298.2 L 482.1,298.7 L 484.6,299.1 L 487.1,299.6 L 489.6,300.1 L 492.1,300.6 L 494.6,301.0 L 497.1,301.5 L 499.6,302.0 L 502.1,302.5 L 504.6,302.9 L 507.1,303.4 L 509.6,303.9 L 512.1,304.3 L 514.6,304.8 L 517.1,305.3 L 519.6,305.8 L 522.1,306.2 L 524.6,306.7 L 527.1,307.2 L 529.6,307.7 L 532.1,308.1 L 534.6,308.6 L 537.1,309.1 L 539.6,309.6 L 542.1,310.0 L 544.6,310.5 L 547.1,311.0 L 549.6,311.4 L 552.1,311.9 L 554.6,312.4 L 557.1,312.9 L 559.6,313.3 L 562.1,313.8 L 564.5,314.3 L 567.0,314.8 L 569.5,315.2 L 572.0,315.7 L 574.5,316.2 L 577.0,316.6 L 579.5,317.1 L 582.0,317.6 L 584.5,318.1 L 587.0,331.9 L 589.5,352.9 L 592.0,365.0 L 594.5,365.0 L 597.0,365.0 L 599.5,365.0 L 602.0,365.0 L 604.5,365.0 L 607.0,365.0 L 609.5,365.0 L 612.0,365.0 L 614.5,365.0 L 617.0,365.0" class="rho"/>
<path d="M 70.0,158.3 L 72.5,158.4 L 75.0,158.6 L 77.5,158.9 L 80.0,159.1 L 82.5,159.5 L 85.0,159.9 L 87.5,160.4 L 90.0,160.9 L 92.5,161.4 L 95.0,161.9 L 97.5,162.4 L 100.0,162.9 L 102.5,163.4 L 105.0,163.9 L 107.5,164.4 L 110.0,165.0 L 112.5,165.5 L 115.0,166.0 L 117.5,166.6 L 120.0,167.1 L 122.5,167.6 L 124.9,168.2 L 127.4,168.7 L 129.9,169.3 L 132.4,169.9 L 134.9,170.4 L 137.4,171.0 L 139.9,171.6 L 142.4,172.2 L 144.9,172.8 L 147.4,173.4 L 149.9,174.0 L 152.4,174.6 L 154.9,175.2 L 157.4,175.8 L 159.9,176.4 L 162.4,177.0 L 164.9,177.7 L 167.4,178.3 L 169.9,178.9 L 172.4,179.6 L 174.9,180.2 L 177.4,180.8 L 179.9,181.5 L 182.4,182.1 L 184.9,182.8 L 187.4,183.4 L 189.9,184.1 L 192.4,184.7 L 194.9,185.4 L 197.4,186.1 L 199.9,186.7 L 202.4,187.4 L 204.9,188.1 L 207.4,188.7 L 209.9,189.4 L 212.4,190.1 L 214.9,190.8 L 217.4,191.5 L 219.9,192.2 L 222.4,192.9 L 224.9,193.6 L 227.4,194.3 L 229.9,195.0 L 232.4,195.7 L 234.8,196.4 L 237.3,197.2 L 239.8,197.9 L 242.3,198.6 L 244.8,199.4 L 247.3,200.1 L 249.8,200.9 L 252.3,201.6 L 254.8,202.4 L 257.3,203.1 L 259.8,203.9 L 262.3,204.7 L 264.8,205.5 L 267.3,206.2 L 269.8,207.0 L 272.3,207.8 L 274.8,208.6 L 277.3,209.4 L 279.8,210.2 L 282.3,211.0 L 284.8,211.9 L 287.3,212.7 L 289.8,213.5 L 292.3,214.4 L 294.8,215.2 L 297.3,216.1 L 299.8,217.0 L 302.3,217.8 L 304.8,218.7 L 307.3,219.6 L 309.8,220.5 L 312.3,221.4 L 314.8,222.3 L 317.3,223.2 L 319.8,224.1 L 322.3,225.1 L 324.8,226.0 L 327.3,227.0 L 329.8,228.0 L 332.3,228.9 L 334.8,229.9 L 337.3,230.9 L 339.8,231.9 L 342.3,232.9 L 344.7,234.0 L 347.2,235.0 L 349.7,236.0 L 352.2,237.1 L 354.7,238.1 L 357.2,239.2 L 359.7,240.2 L 362.2,241.3 L 364.7,242.3 L 367.2,243.4 L 369.7,244.5 L 372.2,245.6 L 374.7,246.6 L 377.2,247.7 L 379.7,248.8 L 382.2,249.9 L 384.7,250.9 L 387.2,252.0 L 389.7,253.1 L 392.2,254.2 L 394.7,255.3 L 397.2,256.3 L 399.7,257.4 L 402.2,258.5 L 404.7,259.5 L 407.2,260.6 L 409.7,261.7 L 412.2,262.7 L 414.7,263.8 L 417.2,264.9 L 419.7,265.9 L 422.2,267.0 L 424.7,268.0 L 427.2,269.1 L 429.7,270.1 L 432.2,271.2 L 434.7,272.2 L 437.2,273.2 L 439.7,274.2 L 442.2,275.3 L 444.7,276.3 L 447.2,277.3 L 449.7,278.3 L 452.2,279.3 L 454.6,280.3 L 457.1,281.3 L 459.6,282.3 L 462.1,283.3 L 464.6,284.2 L 467.1,285.2 L 469.6,286.2 L 472.1,287.2 L 474.6,288.1 L 477.1,289.1 L 479.6,290.0 L 482.1,291.0 L 484.6,291.9 L 487.1,292.8 L 489.6,293.7 L 492.1,294.7 L 494.6,295.6 L 497.1,296.5 L 499.6,297.4 L 502.1,298.3 L 504.6,299.2 L 507.1,300.1 L 509.6,301.0 L 512.1,301.8 L 514.6,302.7 L 517.1,303.6 L 519.6,304.4 L 522.1,305.3 L 524.6,306.2 L 527.1,307.0 L 529.6,307.9 L 532.1,308.7 L 534.6,309.5 L 537.1,310.4 L 539.6,311.2 L 542.1,312.0 L 544.6,312.9 L 547.1,313.7 L 549.6,314.5 L 552.1,315.3 L 554.6,316.1 L 557.1,317.0 L 559.6,317.8 L 562.1,318.6 L 564.5,319.4 L 567.0,320.2 L 569.5,321.1 L 572.0,321.9 L 574.5,322.7 L 577.0,323.5 L 579.5,324.3 L 582.0,325.1 L 584.5,325.9 L 587.0,326.7 L 589.5,327.5 L 592.0,328.2 L 594.5,329.0 L 597.0,329.7 L 599.5,330.4 L 602.0,331.1 L 604.5,331.7 L 607.0,332.3 L 609.5,332.9 L 612.0,333.5 L 614.5,334.1 L 617.0,334.6" class="sig"/>
<path d="M 75.5,323.5 L 80.9,310.0 L 86.4,302.1 L 91.9,295.1 L 97.3,288.4 L 102.8,282.0 L 108.3,276.1 L 113.8,270.5 L 119.2,265.3 L 124.7,260.3 L 130.2,255.6 L 135.6,251.1 L 141.1,246.8 L 146.6,242.7 L 152.1,238.7 L 157.5,234.9 L 163.0,231.2 L 168.5,227.6 L 173.9,224.2 L 179.4,220.9 L 184.9,217.6 L 190.3,214.5 L 195.8,211.4 L 201.3,208.4 L 206.8,205.4 L 212.2,202.5 L 217.7,199.7 L 223.2,197.0 L 228.6,194.3 L 234.1,191.6 L 239.6,189.0 L 245.0,186.5 L 250.5,184.0 L 256.0,181.6 L 261.5,179.1 L 266.9,176.8 L 272.4,174.5 L 277.9,172.2 L 283.3,170.0 L 288.8,167.8 L 294.3,165.6 L 299.7,163.5 L 305.2,161.4 L 310.7,159.3 L 316.2,157.3 L 321.6,155.3 L 327.1,153.3 L 332.6,151.4 L 338.0,149.5 L 343.5,147.7 L 349.0,145.9 L 354.4,144.2 L 359.9,142.5 L 365.4,140.8 L 370.9,139.3 L 376.3,137.7 L 381.8,136.2 L 387.3,134.8 L 392.7,133.3 L 398.2,132.0 L 403.7,130.6 L 409.1,129.3 L 414.6,128.1 L 420.1,126.8 L 425.6,125.7 L 431.0,124.5 L 436.5,123.4 L 442.0,122.3 L 447.4,121.3 L 452.9,120.2 L 458.4,119.3 L 463.8,118.3 L 469.3,117.4 L 474.8,116.5 L 480.3,115.7 L 485.7,114.8 L 491.2,114.1 L 496.7,113.3 L 502.1,112.6 L 507.6,111.9 L 513.1,111.2 L 518.5,110.5 L 524.0,109.9 L 529.5,109.3 L 535.0,108.8 L 540.4,108.2 L 545.9,107.7 L 551.4,107.2 L 556.8,106.8 L 562.3,106.4 L 567.8,106.0 L 573.2,105.6 L 578.7,105.2 L 584.2,104.9 L 589.6,105.1 L 595.1,106.4 L 600.6,107.7 L 606.1,109.1 L 611.5,110.5 L 617.0,111.7" class="nt"/>
<path d="M 74.6,351.5 L 79.1,342.3 L 83.7,333.2 L 88.2,325.7 L 92.8,319.5 L 97.3,314.4 L 101.9,310.0 L 106.5,306.0 L 111.0,302.0 L 115.6,298.2 L 120.1,294.4 L 124.7,290.6 L 129.3,286.9 L 133.8,283.2 L 138.4,279.6 L 142.9,276.0 L 147.5,272.6 L 152.1,269.3 L 156.6,266.0 L 161.2,262.9 L 165.7,259.9 L 170.3,257.0 L 174.8,254.1 L 179.4,251.3 L 184.0,248.5 L 188.5,245.8 L 193.1,243.0 L 197.6,240.2 L 202.2,237.4 L 206.8,234.6 L 211.3,231.8 L 215.9,228.9 L 220.4,226.1 L 225.0,223.3 L 229.5,220.4 L 234.1,217.5 L 238.7,214.7 L 243.2,211.8 L 247.8,208.9 L 252.3,206.0 L 256.9,203.1 L 261.5,200.1 L 266.0,197.1 L 270.6,194.1 L 275.1,191.1 L 279.7,188.0 L 284.2,184.8 L 288.8,181.6 L 293.4,178.4 L 297.9,175.1 L 302.5,171.7 L 307.0,168.2 L 311.6,164.6 L 316.1,160.9 L 320.7,157.2 L 325.3,153.4 L 329.8,149.6 L 334.4,145.8 L 338.9,142.2 L 343.5,138.7 L 348.1,135.3 L 352.6,132.2 L 357.2,129.2 L 361.7,126.5 L 366.3,124.0 L 370.9,121.6 L 375.4,119.4 L 380.0,117.3 L 384.5,115.4 L 389.1,113.7 L 393.6,112.0 L 398.2,110.5 L 402.8,109.1 L 407.3,107.8 L 411.9,106.6 L 416.4,105.5 L 421.0,104.5 L 425.6,103.6 L 430.1,102.8 L 434.7,102.1 L 439.2,101.4 L 443.8,100.8 L 448.3,100.3 L 452.9,99.9 L 457.5,99.5 L 462.0,99.2 L 466.6,98.9 L 471.1,98.7 L 475.7,98.6 L 480.3,98.4 L 484.8,98.4 L 489.4,98.3 L 493.9,98.3 L 498.5,98.3 L 503.0,98.3 L 507.6,98.3 L 512.2,98.3 L 516.7,98.3 L 521.3,98.3 L 525.8,98.1 L 530.4,98.0 L 535.0,97.7 L 539.5,97.3 L 544.1,96.8 L 548.6,96.1 L 553.2,95.2 L 557.7,94.1 L 562.3,92.9 L 566.9,91.7 L 571.4,90.7 L 576.0,90.1 L 580.5,90.6 L 585.1,92.3 L 589.6,95.4 L 594.2,100.2 L 598.8,106.1 L 603.3,112.8 L 607.9,119.9 L 612.4,127.1 L 617.0,134.0" class="fw"/>
<line x1="122.45" y1="271.39" x2="122.45" y2="311.58" class="err"/>
<line x1="119.45" y1="271.39" x2="125.45" y2="271.39" class="err"/>
<line x1="119.45" y1="311.58" x2="125.45" y2="311.58" class="err"/>
<circle cx="122.45" cy="291.48" r="2.5" class="obs"/>
<line x1="174.91" y1="243.94" x2="174.91" y2="256.68" class="err"/>
<line x1="171.91" y1="243.94" x2="177.91" y2="243.94" class="err"/>
<line x1="171.91" y1="256.68" x2="177.91" y2="256.68" class="err"/>
<circle cx="174.91" cy="250.31" r="2.5" class="obs"/>
<line x1="228.64" y1="214.53" x2="228.64" y2="229.24" class="err"/>
<line x1="225.64" y1="214.53" x2="231.64" y2="214.53" class="err"/>
<line x1="225.64" y1="229.24" x2="231.64" y2="229.24" class="err"/>
<circle cx="228.64" cy="221.89" r="2.5" class="obs"/>
<line x1="279.81" y1="182.19" x2="279.81" y2="192.97" class="err"/>
<line x1="276.81" y1="182.19" x2="282.81" y2="182.19" class="err"/>
<line x1="276.81" y1="192.97" x2="282.81" y2="192.97" class="err"/>
<circle cx="279.81" cy="187.58" r="2.5" class="obs"/>
<line x1="333.54" y1="143.96" x2="333.54" y2="154.74" class="err"/>
<line x1="330.54" y1="143.96" x2="336.54" y2="143.96" class="err"/>
<line x1="330.54" y1="154.74" x2="336.54" y2="154.74" class="err"/>
<circle cx="333.54" cy="149.35" r="2.5" class="obs"/>
<line x1="385.99" y1="103.77" x2="385.99" y2="115.53" class="err"/>
<line x1="382.99" y1="103.77" x2="388.99" y2="103.77" class="err"/>
<line x1="382.99" y1="115.53" x2="388.99" y2="115.53" class="err"/>
<circle cx="385.99" cy="109.65" r="2.5" class="obs"/>
<line x1="439.73" y1="97.40" x2="439.73" y2="114.06" class="err"/>
<line x1="436.73" y1="97.40" x2="442.73" y2="97.40" class="err"/>
<line x1="436.73" y1="114.06" x2="442.73" y2="114.06" class="err"/>
<circle cx="439.73" cy="105.73" r="2.5" class="obs"/>
<line x1="492.18" y1="85.63" x2="492.18" y2="107.20" class="err"/>
<line x1="489.18" y1="85.63" x2="495.18" y2="85.63" class="err"/>
<line x1="489.18" y1="107.20" x2="495.18" y2="107.20" class="err"/>
<circle cx="492.18" cy="96.42" r="2.5" class="obs"/>
<line x1="544.63" y1="83.18" x2="544.63" y2="107.69" class="err"/>
<line x1="541.63" y1="83.18" x2="547.63" y2="83.18" class="err"/>
<line x1="541.63" y1="107.69" x2="547.63" y2="107.69" class="err"/>
<circle cx="544.63" cy="95.43" r="2.5" class="obs"/>
<line x1="597.08" y1="96.91" x2="597.08" y2="123.37" class="err"/>
<line x1="594.08" y1="96.91" x2="600.08" y2="96.91" class="err"/>
<line x1="594.08" y1="123.37" x2="600.08" y2="123.37" class="err"/>
<circle cx="597.08" cy="110.14" r="2.5" class="obs"/>
<g class="legend">
<line x1="82" y1="69" x2="106" y2="69" class="fw"/>
<text x="112" y="73" class="lbl-l">framework fit</text>
<line x1="82" y1="87" x2="106" y2="87" class="nt"/>
<text x="112" y="91" class="lbl-l">Newtonian (no halo)</text>
<circle cx="94" cy="105" r="2.5" class="obs"/>
<text x="112" y="109" class="lbl">observed V±err</text>
</g>
<g class="legend">
<line x1="442" y1="69" x2="466" y2="69" class="rho"/>
<text x="472" y="73" class="lbl-r">ρ(r) raw</text>
<line x1="442" y1="87" x2="466" y2="87" class="sig"/>
<text x="472" y="91" class="lbl-s">Σ(r) cumulative</text>
<text x="442" y="113" class="lbl-r">ρ peak: 139 M☉/pc²</text>
</g>
<rect x="705" y="55" width="170" height="170" class="preview-bg"/>
<defs><radialGradient id="g_DDO168" cx="0.5" cy="0.5" r="0.5">
  <stop offset="0.0000" stop-color="rgb(240,60,60)"/>
  <stop offset="0.0313" stop-color="rgb(158,39.5,39.5)"/>
  <stop offset="0.0625" stop-color="rgb(157,39.25,39.25)"/>
  <stop offset="0.0938" stop-color="rgb(155,38.75,38.75)"/>
  <stop offset="0.1250" stop-color="rgb(153,38.25,38.25)"/>
  <stop offset="0.1563" stop-color="rgb(151,37.75,37.75)"/>
  <stop offset="0.1875" stop-color="rgb(149,37.25,37.25)"/>
  <stop offset="0.2188" stop-color="rgb(148,37,37)"/>
  <stop offset="0.2500" stop-color="rgb(146,36.5,36.5)"/>
  <stop offset="0.2813" stop-color="rgb(145,36.25,36.25)"/>
  <stop offset="0.3125" stop-color="rgb(144,36,36)"/>
  <stop offset="0.3438" stop-color="rgb(143,35.75,35.75)"/>
  <stop offset="0.3750" stop-color="rgb(142,35.5,35.5)"/>
  <stop offset="0.4063" stop-color="rgb(141,35.25,35.25)"/>
  <stop offset="0.4375" stop-color="rgb(140,35,35)"/>
  <stop offset="0.4688" stop-color="rgb(139,34.75,34.75)"/>
  <stop offset="0.5000" stop-color="rgb(137,34.25,34.25)"/>
  <stop offset="0.5313" stop-color="rgb(135,33.75,33.75)"/>
  <stop offset="0.5625" stop-color="rgb(132,33,33)"/>
  <stop offset="0.5938" stop-color="rgb(129,32.25,32.25)"/>
  <stop offset="0.6250" stop-color="rgb(126,31.5,31.5)"/>
  <stop offset="0.6563" stop-color="rgb(123,30.75,30.75)"/>
  <stop offset="0.6875" stop-color="rgb(121,30.25,30.25)"/>
  <stop offset="0.7188" stop-color="rgb(118,29.5,29.5)"/>
  <stop offset="0.7500" stop-color="rgb(115,28.75,28.75)"/>
  <stop offset="0.7813" stop-color="rgb(112,28,28)"/>
  <stop offset="0.8125" stop-color="rgb(109,27.25,27.25)"/>
  <stop offset="0.8438" stop-color="rgb(106,26.5,26.5)"/>
  <stop offset="0.8750" stop-color="rgb(104,26,26)"/>
  <stop offset="0.9063" stop-color="rgb(101,25.25,25.25)"/>
  <stop offset="0.9375" stop-color="rgb(98,24.5,24.5)"/>
  <stop offset="0.9688" stop-color="rgb(95,23.75,23.75)"/>
  <stop offset="1.0000" stop-color="rgb(0,0,0)"/>
</radialGradient></defs>
<circle cx="790" cy="140" r="81" fill="url(#g_DDO168)"/>
<text x="790" y="49" text-anchor="middle" class="preview-lbl">face-on luminance from ρ(r)</text>
<text x="790" y="239" text-anchor="middle" class="preview-lbl">edge at r = 4.1 kpc</text>
</svg>