<svg xmlns="http://www.w3.org/2000/svg" viewBox="0 0 890 420" width="890" height="420" font-family="sans-serif" font-size="12">
<style>
  .ax { stroke: #333; stroke-width: 1; fill: none; }
  .grid { stroke: #ddd; stroke-width: 0.5; fill: none; }
  .lbl { fill: #333; }
  .lbl-l { fill: #0066cc; }
  .lbl-r { fill: #b03030; }
  .lbl-s { fill: #cc7000; }
  .obs { fill: #222; }
  .err { stroke: #555; stroke-width: 0.8; fill: none; }
  .fw { stroke: #0066cc; stroke-width: 2.2; fill: none; }
  .nt { stroke: #cc6600; stroke-width: 1.6; fill: none; stroke-dasharray: 5,3; }
  .rho { stroke: #b03030; stroke-width: 2.0; fill: none; }
  .sig { stroke: #cc7000; stroke-width: 1.8; fill: none; }
  .title { fill: #111; font-size: 16px; font-weight: 600; }
  .subtitle { fill: #555; font-size: 11px; }
  .legend { font-size: 11px; }
  .preview-bg { fill: #000; }
  .preview-lbl { fill: #888; font-size: 10px; }
</style>
<text x="343.5" y="22" text-anchor="middle" class="title">DDO161</text>
<text x="343.5" y="38" text-anchor="middle" class="subtitle">rMax=13.4 kpc, N=31, RMS=1.4 km/s (2.9%), amp=565</text>
<line x1="70" y1="365.0" x2="617" y2="365.0" class="grid"/>
<text x="64" y="369.0" text-anchor="end" class="lbl-l">0</text>
<line x1="70" y1="303.0" x2="617" y2="303.0" class="grid"/>
<text x="64" y="307.0" text-anchor="end" class="lbl-l">16</text>
<line x1="70" y1="241.0" x2="617" y2="241.0" class="grid"/>
<text x="64" y="245.0" text-anchor="end" class="lbl-l">31</text>
<line x1="70" y1="178.99999999999997" x2="617" y2="178.99999999999997" class="grid"/>
<text x="64" y="182.99999999999997" text-anchor="end" class="lbl-l">47</text>
<line x1="70" y1="116.99999999999999" x2="617" y2="116.99999999999999" class="grid"/>
<text x="64" y="120.99999999999999" text-anchor="end" class="lbl-l">62</text>
<line x1="70" y1="55.0" x2="617" y2="55.0" class="grid"/>
<text x="64" y="59.0" text-anchor="end" class="lbl-l">78</text>
<text x="623" y="369.0" text-anchor="start" class="lbl-r">0.0</text>
<text x="623" y="327.6666666666667" text-anchor="start" class="lbl-r">0.2</text>
<text x="623" y="286.33333333333337" text-anchor="start" class="lbl-r">0.4</text>
<text x="623" y="245.00000000000003" text-anchor="start" class="lbl-r">0.6</text>
<text x="623" y="203.66666666666666" text-anchor="start" class="lbl-r">0.8</text>
<text x="623" y="162.33333333333334" text-anchor="start" class="lbl-r">1.0</text>
<line x1="70.0" y1="55" x2="70.0" y2="365" class="grid"/>
<text x="70.0" y="381" text-anchor="middle" class="lbl">0.0</text>
<line x1="161.16666666666666" y1="55" x2="161.16666666666666" y2="365" class="grid"/>
<text x="161.16666666666666" y="381" text-anchor="middle" class="lbl">2.5</text>
<line x1="252.33333333333331" y1="55" x2="252.33333333333331" y2="365" class="grid"/>
<text x="252.33333333333331" y="381" text-anchor="middle" class="lbl">5.1</text>
<line x1="343.5" y1="55" x2="343.5" y2="365" class="grid"/>
<text x="343.5" y="381" text-anchor="middle" class="lbl">7.6</text>
<line x1="434.66666666666663" y1="55" x2="434.66666666666663" y2="365" class="grid"/>
<text x="434.66666666666663" y="381" text-anchor="middle" class="lbl">10.1</text>
<line x1="525.8333333333334" y1="55" x2="525.8333333333334" y2="365" class="grid"/>
<text x="525.8333333333334" y="381" text-anchor="middle" class="lbl">12.6</text>
<line x1="617.0" y1="55" x2="617.0" y2="365" class="grid"/>
<text x="617.0" y="381" text-anchor="middle" class="lbl">15.2</text>
<text x="343.5" y="397" text-anchor="middle" class="lbl">radius (kpc)</text>
<text x="16" y="210.0" text-anchor="middle" class="lbl-l" transform="rotate(-90, 16, 210.0)">velocity (km/s)</text>
<text x="661" y="210.0" text-anchor="middle" class="lbl-r" transform="rotate(-90, 661, 210.0)">mass profile (normalized to peak)</text>
<rect x="70" y="55" width="547" height="310" class="ax"/>
<path d="M 70.0,158.3 L 72.5,168.4 L 75.0,178.5 L 77.5,188.5 L 80.0,198.6 L 82.5,208.7 L 85.0,218.8 L 87.5,224.7 L 90.0,225.1 L 92.5,225.6 L 95.0,226.0 L 97.5,226.5 L 100.0,226.9 L 102.5,227.4 L 105.0,227.8 L 107.5,228.3 L 110.0,228.7 L 112.5,229.2 L 115.0,229.6 L 117.5,230.0 L 120.0,230.5 L 122.5,230.9 L 124.9,231.4 L 127.4,231.8 L 129.9,232.3 L 132.4,232.7 L 134.9,233.2 L 137.4,233.6 L 139.9,234.1 L 142.4,234.5 L 144.9,235.0 L 147.4,235.4 L 149.9,235.9 L 152.4,236.3 L 154.9,236.8 L 157.4,237.2 L 159.9,237.7 L 162.4,238.1 L 164.9,238.6 L 167.4,239.0 L 169.9,239.5 L 172.4,239.9 L 174.9,240.4 L 177.4,240.8 L 179.9,241.3 L 182.4,241.7 L 184.9,242.2 L 187.4,242.6 L 189.9,243.1 L 192.4,243.5 L 194.9,244.0 L 197.4,244.4 L 199.9,244.9 L 202.4,245.3 L 204.9,245.8 L 207.4,246.2 L 209.9,246.7 L 212.4,247.1 L 214.9,247.6 L 217.4,248.0 L 219.9,248.5 L 222.4,248.9 L 224.9,249.3 L 227.4,249.7 L 229.9,250.0 L 232.4,250.3 L 234.8,250.6 L 237.3,251.0 L 239.8,251.3 L 242.3,251.6 L 244.8,251.9 L 247.3,252.3 L 249.8,252.6 L 252.3,252.9 L 254.8,253.2 L 257.3,253.5 L 259.8,253.9 L 262.3,254.2 L 264.8,254.5 L 267.3,254.8 L 269.8,255.2 L 272.3,255.5 L 274.8,255.8 L 277.3,256.1 L 279.8,256.5 L 282.3,256.8 L 284.8,257.1 L 287.3,257.4 L 289.8,257.8 L 292.3,258.1 L 294.8,258.4 L 297.3,258.7 L 299.8,259.1 L 302.3,259.4 L 304.8,259.7 L 307.3,260.0 L 309.8,260.4 L 312.3,260.7 L 314.8,261.0 L 317.3,261.3 L 319.8,261.7 L 322.3,262.0 L 324.8,262.3 L 327.3,262.6 L 329.8,263.0 L 332.3,263.4 L 334.8,263.8 L 337.3,264.3 L 339.8,264.8 L 342.3,265.2 L 344.7,265.7 L 347.2,266.2 L 349.7,266.6 L 352.2,267.1 L 354.7,267.6 L 357.2,268.0 L 359.7,268.5 L 362.2,269.0 L 364.7,269.4 L 367.2,269.9 L 369.7,270.4 L 372.2,270.8 L 374.7,271.3 L 377.2,271.8 L 379.7,272.2 L 382.2,272.7 L 384.7,273.2 L 387.2,273.6 L 389.7,274.1 L 392.2,274.6 L 394.7,275.0 L 397.2,275.5 L 399.7,276.0 L 402.2,276.4 L 404.7,276.9 L 407.2,277.4 L 409.7,277.8 L 412.2,278.3 L 414.7,278.8 L 417.2,279.2 L 419.7,279.7 L 422.2,280.1 L 424.7,280.6 L 427.2,281.1 L 429.7,281.5 L 432.2,282.0 L 434.7,282.5 L 437.2,282.9 L 439.7,283.4 L 442.2,283.9 L 444.7,284.3 L 447.2,284.8 L 449.7,285.3 L 452.2,285.7 L 454.6,286.2 L 457.1,286.7 L 459.6,287.1 L 462.1,287.6 L 464.6,288.1 L 467.1,288.5 L 469.6,289.0 L 472.1,289.5 L 474.6,289.9 L 477.1,290.4 L 479.6,290.9 L 482.1,291.3 L 484.6,291.8 L 487.1,292.3 L 489.6,292.7 L 492.1,293.2 L 494.6,293.7 L 497.1,294.1 L 499.6,294.6 L 502.1,295.1 L 504.6,295.5 L 507.1,296.0 L 509.6,296.5 L 512.1,296.9 L 514.6,297.4 L 517.1,297.9 L 519.6,298.3 L 522.1,298.8 L 524.6,299.3 L 527.1,299.7 L 529.6,300.2 L 532.1,300.7 L 534.6,301.1 L 537.1,301.6 L 539.6,302.0 L 542.1,302.5 L 544.6,303.0 L 547.1,303.4 L 549.6,303.9 L 552.1,304.4 L 554.6,304.8 L 557.1,305.3 L 559.6,305.8 L 562.1,306.2 L 564.5,306.7 L 567.0,307.6 L 569.5,313.6 L 572.0,319.6 L 574.5,325.6 L 577.0,331.6 L 579.5,337.6 L 582.0,343.6 L 584.5,349.6 L 587.0,355.6 L 589.5,361.6 L 592.0,365.0 L 594.5,365.0 L 597.0,365.0 L 599.5,365.0 L 602.0,365.0 L 604.5,365.0 L 607.0,365.0 L 609.5,365.0 L 612.0,365.0 L 614.5,365.0 L 617.0,365.0" class="rho"/>
<path d="M 70.0,158.3 L 72.5,158.5 L 75.0,158.9 L 77.5,159.3 L 80.0,159.9 L 82.5,160.6 L 85.0,161.4 L 87.5,162.2 L 90.0,163.1 L 92.5,164.1 L 95.0,165.0 L 97.5,165.9 L 100.0,166.9 L 102.5,167.8 L 105.0,168.7 L 107.5,169.7 L 110.0,170.6 L 112.5,171.5 L 115.0,172.5 L 117.5,173.4 L 120.0,174.3 L 122.5,175.3 L 124.9,176.2 L 127.4,177.2 L 129.9,178.1 L 132.4,179.1 L 134.9,180.1 L 137.4,181.1 L 139.9,182.1 L 142.4,183.1 L 144.9,184.1 L 147.4,185.1 L 149.9,186.1 L 152.4,187.1 L 154.9,188.1 L 157.4,189.1 L 159.9,190.2 L 162.4,191.2 L 164.9,192.3 L 167.4,193.3 L 169.9,194.3 L 172.4,195.4 L 174.9,196.4 L 177.4,197.5 L 179.9,198.6 L 182.4,199.6 L 184.9,200.7 L 187.4,201.7 L 189.9,202.8 L 192.4,203.8 L 194.9,204.9 L 197.4,206.0 L 199.9,207.0 L 202.4,208.1 L 204.9,209.1 L 207.4,210.2 L 209.9,211.2 L 212.4,212.2 L 214.9,213.3 L 217.4,214.3 L 219.9,215.3 L 222.4,216.3 L 224.9,217.4 L 227.4,218.4 L 229.9,219.4 L 232.4,220.4 L 234.8,221.4 L 237.3,222.4 L 239.8,223.3 L 242.3,224.3 L 244.8,225.3 L 247.3,226.3 L 249.8,227.2 L 252.3,228.2 L 254.8,229.1 L 257.3,230.1 L 259.8,231.1 L 262.3,232.0 L 264.8,233.0 L 267.3,233.9 L 269.8,234.9 L 272.3,235.8 L 274.8,236.7 L 277.3,237.7 L 279.8,238.6 L 282.3,239.6 L 284.8,240.5 L 287.3,241.5 L 289.8,242.4 L 292.3,243.3 L 294.8,244.3 L 297.3,245.2 L 299.8,246.1 L 302.3,247.1 L 304.8,248.0 L 307.3,249.0 L 309.8,249.9 L 312.3,250.9 L 314.8,251.8 L 317.3,252.7 L 319.8,253.7 L 322.3,254.6 L 324.8,255.6 L 327.3,256.6 L 329.8,257.5 L 332.3,258.5 L 334.8,259.4 L 337.3,260.4 L 339.8,261.4 L 342.3,262.3 L 344.7,263.3 L 347.2,264.3 L 349.7,265.3 L 352.2,266.2 L 354.7,267.2 L 357.2,268.2 L 359.7,269.1 L 362.2,270.1 L 364.7,271.1 L 367.2,272.0 L 369.7,273.0 L 372.2,273.9 L 374.7,274.9 L 377.2,275.8 L 379.7,276.8 L 382.2,277.7 L 384.7,278.7 L 387.2,279.6 L 389.7,280.5 L 392.2,281.5 L 394.7,282.4 L 397.2,283.3 L 399.7,284.2 L 402.2,285.2 L 404.7,286.1 L 407.2,287.0 L 409.7,287.9 L 412.2,288.7 L 414.7,289.6 L 417.2,290.5 L 419.7,291.4 L 422.2,292.3 L 424.7,293.1 L 427.2,294.0 L 429.7,294.9 L 432.2,295.7 L 434.7,296.5 L 437.2,297.4 L 439.7,298.2 L 442.2,299.1 L 444.7,299.9 L 447.2,300.7 L 449.7,301.5 L 452.2,302.3 L 454.6,303.1 L 457.1,303.9 L 459.6,304.7 L 462.1,305.5 L 464.6,306.3 L 467.1,307.1 L 469.6,307.8 L 472.1,308.6 L 474.6,309.4 L 477.1,310.1 L 479.6,310.9 L 482.1,311.6 L 484.6,312.4 L 487.1,313.1 L 489.6,313.8 L 492.1,314.5 L 494.6,315.3 L 497.1,316.0 L 499.6,316.7 L 502.1,317.4 L 504.6,318.1 L 507.1,318.8 L 509.6,319.5 L 512.1,320.2 L 514.6,320.9 L 517.1,321.6 L 519.6,322.3 L 522.1,323.0 L 524.6,323.7 L 527.1,324.3 L 529.6,325.0 L 532.1,325.7 L 534.6,326.4 L 537.1,327.1 L 539.6,327.7 L 542.1,328.4 L 544.6,329.1 L 547.1,329.8 L 549.6,330.5 L 552.1,331.2 L 554.6,331.9 L 557.1,332.7 L 559.6,333.4 L 562.1,334.1 L 564.5,334.8 L 567.0,335.6 L 569.5,336.3 L 572.0,337.0 L 574.5,337.7 L 577.0,338.4 L 579.5,339.1 L 582.0,339.7 L 584.5,340.3 L 587.0,340.9 L 589.5,341.5 L 592.0,342.0 L 594.5,342.6 L 597.0,343.1 L 599.5,343.5 L 602.0,344.0 L 604.5,344.4 L 607.0,344.8 L 609.5,345.2 L 612.0,345.5 L 614.5,345.9 L 617.0,346.2" class="sig"/>
<path d="M 75.5,322.4 L 80.9,307.1 L 86.4,297.1 L 91.9,289.1 L 97.3,281.5 L 102.8,274.4 L 108.3,267.9 L 113.8,261.7 L 119.2,255.9 L 124.7,250.5 L 130.2,245.3 L 135.6,240.4 L 141.1,235.7 L 146.6,231.3 L 152.1,227.0 L 157.5,222.9 L 163.0,218.9 L 168.5,215.1 L 173.9,211.4 L 179.4,207.8 L 184.9,204.3 L 190.3,201.0 L 195.8,197.8 L 201.3,194.6 L 206.8,191.6 L 212.2,188.6 L 217.7,185.7 L 223.2,182.9 L 228.6,180.2 L 234.1,177.5 L 239.6,174.9 L 245.0,172.4 L 250.5,169.9 L 256.0,167.4 L 261.4,165.0 L 266.9,162.6 L 272.4,160.3 L 277.9,158.1 L 283.3,155.8 L 288.8,153.7 L 294.3,151.5 L 299.7,149.4 L 305.2,147.4 L 310.7,145.4 L 316.1,143.4 L 321.6,141.4 L 327.1,139.5 L 332.6,137.7 L 338.0,135.8 L 343.5,134.1 L 349.0,132.3 L 354.4,130.6 L 359.9,129.0 L 365.4,127.4 L 370.9,125.8 L 376.3,124.2 L 381.8,122.8 L 387.3,121.3 L 392.7,119.9 L 398.2,118.5 L 403.7,117.1 L 409.1,115.8 L 414.6,114.5 L 420.1,113.3 L 425.5,112.1 L 431.0,110.9 L 436.5,109.7 L 442.0,108.6 L 447.4,107.5 L 452.9,106.5 L 458.4,105.4 L 463.8,104.4 L 469.3,103.5 L 474.8,102.5 L 480.2,101.6 L 485.7,100.7 L 491.2,99.9 L 496.7,99.1 L 502.1,98.3 L 507.6,97.5 L 513.1,96.7 L 518.5,96.0 L 524.0,95.3 L 529.5,94.6 L 535.0,94.0 L 540.4,93.4 L 545.9,92.8 L 551.4,92.2 L 556.8,91.7 L 562.3,91.2 L 567.8,90.7 L 573.2,90.5 L 578.7,90.7 L 584.2,91.4 L 589.6,92.5 L 595.1,93.9 L 600.6,95.3 L 606.1,96.7 L 611.5,98.1 L 617.0,99.4" class="nt"/>
<path d="M 74.6,344.9 L 79.1,330.4 L 83.7,316.7 L 88.2,305.4 L 92.8,296.6 L 97.3,289.5 L 101.9,283.4 L 106.5,277.9 L 111.0,272.6 L 115.6,267.5 L 120.1,262.3 L 124.7,257.2 L 129.3,252.2 L 133.8,247.2 L 138.4,242.4 L 142.9,237.6 L 147.5,233.0 L 152.1,228.5 L 156.6,224.1 L 161.2,219.9 L 165.7,215.8 L 170.3,211.9 L 174.8,208.1 L 179.4,204.5 L 184.0,201.1 L 188.5,197.8 L 193.1,194.7 L 197.6,191.8 L 202.2,189.1 L 206.7,186.5 L 211.3,184.2 L 215.9,182.0 L 220.4,180.0 L 225.0,178.2 L 229.5,176.4 L 234.1,174.6 L 238.7,172.8 L 243.2,171.0 L 247.8,169.2 L 252.3,167.3 L 256.9,165.3 L 261.4,163.4 L 266.0,161.4 L 270.6,159.4 L 275.1,157.3 L 279.7,155.2 L 284.2,153.1 L 288.8,151.0 L 293.4,148.8 L 297.9,146.6 L 302.5,144.3 L 307.0,142.0 L 311.6,139.6 L 316.1,137.1 L 320.7,134.5 L 325.3,131.9 L 329.8,129.2 L 334.4,126.7 L 338.9,124.2 L 343.5,121.9 L 348.1,119.7 L 352.6,117.8 L 357.2,116.0 L 361.7,114.4 L 366.3,113.0 L 370.9,111.6 L 375.4,110.5 L 380.0,109.4 L 384.5,108.4 L 389.1,107.6 L 393.6,106.8 L 398.2,106.1 L 402.8,105.5 L 407.3,105.0 L 411.9,104.5 L 416.4,104.2 L 421.0,103.8 L 425.6,103.6 L 430.1,103.4 L 434.7,103.2 L 439.2,103.1 L 443.8,103.0 L 448.3,103.0 L 452.9,103.0 L 457.5,103.1 L 462.0,103.1 L 466.6,103.2 L 471.1,103.3 L 475.7,103.5 L 480.2,103.6 L 484.8,103.7 L 489.4,103.8 L 493.9,103.9 L 498.5,103.9 L 503.0,103.8 L 507.6,103.7 L 512.2,103.4 L 516.7,103.0 L 521.3,102.4 L 525.8,101.6 L 530.4,100.4 L 535.0,98.9 L 539.5,96.9 L 544.1,94.4 L 548.6,91.5 L 553.2,88.3 L 557.7,85.2 L 562.3,82.9 L 566.9,82.0 L 571.4,83.4 L 576.0,87.2 L 580.5,93.5 L 585.1,101.8 L 589.6,111.3 L 594.2,121.3 L 598.8,131.1 L 603.3,140.3 L 607.9,148.9 L 612.4,156.6 L 617.0,163.7" class="fw"/>
<line x1="91.64682045011139" y1="287.17323118058414" x2="91.64682045011139" y2="315.30722953517073" class="err"/>
<line x1="88.64682045011139" y1="287.17323118058414" x2="94.64682045011139" y2="287.17323118058414" class="err"/>
<line x1="88.64682045011139" y1="315.30722953517073" x2="94.64682045011139" y2="315.30722953517073" class="err"/>
<circle cx="91.64682045011139" cy="301.2402303578774" r="2.5" class="obs"/>
<line x1="96.33696488096886" y1="279.60175853558206" x2="96.33696488096886" y2="318.0967194570136" class="err"/>
<line x1="93.33696488096886" y1="279.60175853558206" x2="99.33696488096886" y2="279.60175853558206" class="err"/>
<line x1="93.33696488096886" y1="318.0967194570136" x2="99.33696488096886" y2="318.0967194570136" class="err"/>
<circle cx="96.33696488096886" cy="298.8492389962978" r="2.5" class="obs"/>
<line x1="100.66632897099115" y1="280.91680378445085" x2="100.66632897099115" y2="300.84173179761416" class="err"/>
<line x1="97.66632897099115" y1="280.91680378445085" x2="103.66632897099115" y2="280.91680378445085" class="err"/>
<line x1="97.66632897099115" y1="300.84173179761416" x2="103.66632897099115" y2="300.84173179761416" class="err"/>
<circle cx="100.66632897099115" cy="290.8792677910325" r="2.5" class="obs"/>
<line x1="105.35647340184862" y1="255.0940970793912" x2="105.35647340184862" y2="315.50647881530233" class="err"/>
<line x1="102.35647340184862" y1="255.0940970793912" x2="108.35647340184862" y2="255.0940970793912" class="err"/>
<line x1="102.35647340184862" y1="315.50647881530233" x2="108.35647340184862" y2="315.50647881530233" class="err"/>
<circle cx="105.35647340184862" cy="285.30028794734676" r="2.5" class="obs"/>
<line x1="108.60349646936533" y1="263.6618161250514" x2="108.60349646936533" y2="295.7808000822707" class="err"/>
<line x1="105.60349646936533" y1="263.6618161250514" x2="111.60349646936533" y2="263.6618161250514" class="err"/>
<line x1="105.60349646936533" y1="295.7808000822707" x2="111.60349646936533" y2="295.7808000822707" class="err"/>
<circle cx="108.60349646936533" cy="279.72130810366104" r="2.5" class="obs"/>
<line x1="125.56017248861926" y1="238.91505553270258" x2="125.56017248861926" y2="260.75277663512963" class="err"/>
<line x1="122.56017248861926" y1="238.91505553270258" x2="128.56017248861926" y2="238.91505553270258" class="err"/>
<line x1="122.56017248861926" y1="260.75277663512963" x2="128.56017248861926" y2="260.75277663512963" class="err"/>
<circle cx="125.56017248861926" cy="249.8339160839161" r="2.5" class="obs"/>
<line x1="142.87762884870838" y1="223.3337618264089" x2="142.87762884870838" y2="244.45418552036202" class="err"/>
<line x1="139.87762884870838" y1="223.3337618264089" x2="145.87762884870838" y2="223.3337618264089" class="err"/>
<line x1="139.87762884870838" y1="244.45418552036202" x2="145.87762884870838" y2="244.45418552036202" class="err"/>
<circle cx="142.87762884870838" cy="233.89397367338546" r="2.5" class="obs"/>
<line x1="159.83430486796232" y1="213.25174825174824" x2="159.83430486796232" y2="236.20526532291237" class="err"/>
<line x1="156.83430486796232" y1="213.25174825174824" x2="162.83430486796232" y2="213.25174825174824" class="err"/>
<line x1="156.83430486796232" y1="236.20526532291237" x2="162.83430486796232" y2="236.20526532291237" class="err"/>
<circle cx="159.83430486796232" cy="224.72850678733033" r="2.5" class="obs"/>
<line x1="176.79098088721622" y1="203.01033525298234" x2="176.79098088721622" y2="227.31874742904154" class="err"/>
<line x1="173.79098088721622" y1="203.01033525298234" x2="179.79098088721622" y2="203.01033525298234" class="err"/>
<line x1="173.79098088721622" y1="227.31874742904154" x2="179.79098088721622" y2="227.31874742904154" class="err"/>
<circle cx="176.79098088721622" cy="215.16454134101193" r="2.5" class="obs"/>
<line x1="193.74765690647018" y1="188.54483751542577" x2="193.74765690647018" y2="217.87433155080214" class="err"/>
<line x1="190.74765690647018" y1="188.54483751542577" x2="196.74765690647018" y2="188.54483751542577" class="err"/>
<line x1="190.74765690647018" y1="217.87433155080214" x2="196.74765690647018" y2="217.87433155080214" class="err"/>
<circle cx="193.74765690647018" cy="203.20958453311394" r="2.5" class="obs"/>
<line x1="210.7043329257241" y1="181.8899115590292" x2="210.7043329257241" y2="207.7923179761415" class="err"/>
<line x1="207.7043329257241" y1="181.8899115590292" x2="213.7043329257241" y2="181.8899115590292" class="err"/>
<line x1="207.7043329257241" y1="207.7923179761415" x2="213.7043329257241" y2="207.7923179761415" class="err"/>
<circle cx="210.7043329257241" cy="194.84111476758537" r="2.5" class="obs"/>
<line x1="227.66100894497802" y1="171.76804812834226" x2="227.66100894497802" y2="195.5982620320856" class="err"/>
<line x1="224.66100894497802" y1="171.76804812834226" x2="230.66100894497802" y2="171.76804812834226" class="err"/>
<line x1="224.66100894497802" y1="195.5982620320856" x2="230.66100894497802" y2="195.5982620320856" class="err"/>
<circle cx="227.66100894497802" cy="183.6831550802139" r="2.5" class="obs"/>
<line x1="245.33924564590234" y1="162.32363225010283" x2="245.33924564590234" y2="177.9447758124229" class="err"/>
<line x1="242.33924564590234" y1="162.32363225010283" x2="248.33924564590234" y2="162.32363225010283" class="err"/>
<line x1="242.33924564590234" y1="177.9447758124229" x2="248.33924564590234" y2="177.9447758124229" class="err"/>
<circle cx="245.33924564590234" cy="170.13420403126287" r="2.5" class="obs"/>
<line x1="262.65670200599146" y1="153.67621349238993" x2="262.65670200599146" y2="165.8702694364459" class="err"/>
<line x1="259.65670200599146" y1="153.67621349238993" x2="265.65670200599146" y2="153.67621349238993" class="err"/>
<line x1="259.65670200599146" y1="165.8702694364459" x2="265.65670200599146" y2="165.8702694364459" class="err"/>
<circle cx="262.65670200599146" cy="159.77324146441794" r="2.5" class="obs"/>
<line x1="279.61337802524537" y1="146.38368983957218" x2="279.61337802524537" y2="161.2078362813657" class="err"/>
<line x1="276.61337802524537" y1="146.38368983957218" x2="282.61337802524537" y2="146.38368983957218" class="err"/>
<line x1="276.61337802524537" y1="161.2078362813657" x2="282.61337802524537" y2="161.2078362813657" class="err"/>
<circle cx="279.61337802524537" cy="153.79576306046894" r="2.5" class="obs"/>
<line x1="296.57005404449933" y1="139.9280131633073" x2="296.57005404449933" y2="151.72357054709994" class="err"/>
<line x1="293.57005404449933" y1="139.9280131633073" x2="299.57005404449933" y2="139.9280131633073" class="err"/>
<line x1="293.57005404449933" y1="151.72357054709994" x2="299.57005404449933" y2="151.72357054709994" class="err"/>
<circle cx="296.57005404449933" cy="145.82579185520365" r="2.5" class="obs"/>
<line x1="313.52673006375323" y1="131.51969354175236" x2="313.52673006375323" y2="139.40996503496504" class="err"/>
<line x1="310.52673006375323" y1="131.51969354175236" x2="316.52673006375323" y2="131.51969354175236" class="err"/>
<line x1="310.52673006375323" y1="139.40996503496504" x2="316.52673006375323" y2="139.40996503496504" class="err"/>
<circle cx="313.52673006375323" cy="135.46482928835871" r="2.5" class="obs"/>
<line x1="330.48340608300714" y1="122.35422665569725" x2="330.48340608300714" y2="131.83849238996294" class="err"/>
<line x1="327.48340608300714" y1="122.35422665569725" x2="333.48340608300714" y2="122.35422665569725" class="err"/>
<line x1="327.48340608300714" y1="131.83849238996294" x2="333.48340608300714" y2="131.83849238996294" class="err"/>
<circle cx="330.48340608300714" cy="127.09635952283011" r="2.5" class="obs"/>
<line x1="347.4400821022611" y1="118.88728918140684" x2="347.4400821022611" y2="128.92945290004116" class="err"/>
<line x1="344.4400821022611" y1="118.88728918140684" x2="350.4400821022611" y2="118.88728918140684" class="err"/>
<line x1="344.4400821022611" y1="128.92945290004116" x2="350.4400821022611" y2="128.92945290004116" class="err"/>
<circle cx="347.4400821022611" cy="123.90837104072398" r="2.5" class="obs"/>
<line x1="364.39675812151506" y1="113.42785890580012" x2="364.39675812151506" y2="124.02792060880297" class="err"/>
<line x1="361.39675812151506" y1="113.42785890580012" x2="367.39675812151506" y2="113.42785890580012" class="err"/>
<line x1="361.39675812151506" y1="124.02792060880297" x2="367.39675812151506" y2="124.02792060880297" class="err"/>
<circle cx="364.39675812151506" cy="118.72788975730154" r="2.5" class="obs"/>
<line x1="381.7142144816042" y1="108.96467503085151" x2="381.7142144816042" y2="119.72413615795969" class="err"/>
<line x1="378.7142144816042" y1="108.96467503085151" x2="384.7142144816042" y2="108.96467503085151" class="err"/>
<line x1="378.7142144816042" y1="119.72413615795969" x2="384.7142144816042" y2="119.72413615795969" class="err"/>
<circle cx="381.7142144816042" cy="114.3444055944056" r="2.5" class="obs"/>
<line x1="398.67089050085804" y1="105.61728712464004" x2="398.67089050085804" y2="122.27452694364462" class="err"/>
<line x1="395.67089050085804" y1="105.61728712464004" x2="401.67089050085804" y2="105.61728712464004" class="err"/>
<line x1="395.67089050085804" y1="122.27452694364462" x2="401.67089050085804" y2="122.27452694364462" class="err"/>
<circle cx="398.67089050085804" cy="113.94590703414235" r="2.5" class="obs"/>
<line x1="415.62756652011205" y1="98.48416289592762" x2="415.62756652011205" y2="117.45269436445908" class="err"/>
<line x1="412.62756652011205" y1="98.48416289592762" x2="418.62756652011205" y2="98.48416289592762" class="err"/>
<line x1="412.62756652011205" y1="117.45269436445908" x2="418.62756652011205" y2="117.45269436445908" class="err"/>
<circle cx="415.62756652011205" cy="107.96842863019333" r="2.5" class="obs"/>
<line x1="432.58424253936596" y1="99.28116001645418" x2="432.58424253936596" y2="107.8887289181407" class="err"/>
<line x1="429.58424253936596" y1="99.28116001645418" x2="435.58424253936596" y2="99.28116001645418" class="err"/>
<line x1="429.58424253936596" y1="107.8887289181407" x2="435.58424253936596" y2="107.8887289181407" class="err"/>
<circle cx="432.58424253936596" cy="103.58494446729745" r="2.5" class="obs"/>
<line x1="449.54091855861986" y1="83.18181818181819" x2="449.54091855861986" y2="108.84512546277251" class="err"/>
<line x1="446.54091855861986" y1="83.18181818181819" x2="452.54091855861986" y2="83.18181818181819" class="err"/>
<line x1="446.54091855861986" y1="108.84512546277251" x2="452.54091855861986" y2="108.84512546277251" class="err"/>
<circle cx="449.54091855861986" cy="96.01347182229537" r="2.5" class="obs"/>
<line x1="466.4975945778738" y1="89.3585458658988" x2="466.4975945778738" y2="108.24737762237766" class="err"/>
<line x1="463.4975945778738" y1="89.3585458658988" x2="469.4975945778738" y2="89.3585458658988" class="err"/>
<line x1="463.4975945778738" y1="108.24737762237766" x2="469.4975945778738" y2="108.24737762237766" class="err"/>
<circle cx="466.4975945778738" cy="98.80296174413824" r="2.5" class="obs"/>
<line x1="483.4542705971278" y1="95.01722542163719" x2="483.4542705971278" y2="102.58869806663927" class="err"/>
<line x1="480.4542705971278" y1="95.01722542163719" x2="486.4542705971278" y2="95.01722542163719" class="err"/>
<line x1="480.4542705971278" y1="102.58869806663927" x2="486.4542705971278" y2="102.58869806663927" class="err"/>
<circle cx="483.4542705971278" cy="98.80296174413824" r="2.5" class="obs"/>
<line x1="500.7717269572168" y1="95.77437268613744" x2="500.7717269572168" y2="103.42554504319213" class="err"/>
<line x1="497.7717269572168" y1="95.77437268613744" x2="503.7717269572168" y2="95.77437268613744" class="err"/>
<line x1="497.7717269572168" y1="103.42554504319213" x2="503.7717269572168" y2="103.42554504319213" class="err"/>
<circle cx="500.7717269572168" cy="99.59995886466476" r="2.5" class="obs"/>
<line x1="517.7284029764708" y1="94.85782599753193" x2="517.7284029764708" y2="102.74809749074453" class="err"/>
<line x1="514.7284029764708" y1="94.85782599753193" x2="520.7284029764708" y2="94.85782599753193" class="err"/>
<line x1="514.7284029764708" y1="102.74809749074453" x2="520.7284029764708" y2="102.74809749074453" class="err"/>
<circle cx="517.7284029764708" cy="98.80296174413824" r="2.5" class="obs"/>
<line x1="535.4066396773951" y1="97.8465651995064" x2="535.4066396773951" y2="103.7443438914027" class="err"/>
<line x1="532.4066396773951" y1="97.8465651995064" x2="538.4066396773951" y2="97.8465651995064" class="err"/>
<line x1="532.4066396773951" y1="103.7443438914027" x2="538.4066396773951" y2="103.7443438914027" class="err"/>
<circle cx="535.4066396773951" cy="100.79545454545458" r="2.5" class="obs"/>
<line x1="552.363315696649" y1="96.37212052653229" x2="552.363315696649" y2="106.81278280542989" class="err"/>
<line x1="549.363315696649" y1="96.37212052653229" x2="555.363315696649" y2="96.37212052653229" class="err"/>
<line x1="549.363315696649" y1="106.81278280542989" x2="555.363315696649" y2="106.81278280542989" class="err"/>
<circle cx="552.363315696649" cy="101.59245166598109" r="2.5" class="obs"/>
<g class="legend">
<line x1="82" y1="69" x2="106" y2="69" class="fw"/>
<text x="112" y="73" class="lbl-l">framework fit</text>
<line x1="82" y1="87" x2="106" y2="87" class="nt"/>
<text x="112" y="91" class="lbl-l">Newtonian (no halo)</text>
<circle cx="94" cy="105" r="2.5" class="obs"/>
<text x="112" y="109" class="lbl">observed V±err</text>
</g>
<g class="legend">
<line x1="472" y1="69" x2="496" y2="69" class="rho"/>
<text x="502" y="73" class="lbl-r">ρ(r) raw</text>
<line x1="472" y1="87" x2="496" y2="87" class="sig"/>
<text x="502" y="91" class="lbl-s">Σ(r) cumulative</text>
<text x="472" y="113" class="lbl-r">ρ peak: 60 M☉/pc²</text>
</g>
<rect x="705" y="55" width="170" height="170" class="preview-bg"/>
<defs><radialGradient id="g_DDO161" cx="0.5" cy="0.5" r="0.5">
  <stop offset="0.0000" stop-color="rgb(38,38,38)"/>
  <stop offset="0.0312" stop-color="rgb(26,26,26)"/>
  <stop offset="0.0625" stop-color="rgb(25,25,25)"/>
  <stop offset="0.0938" stop-color="rgb(24,24,24)"/>
  <stop offset="0.1250" stop-color="rgb(24,24,24)"/>
  <stop offset="0.1562" stop-color="rgb(23,23,23)"/>
  <stop offset="0.1875" stop-color="rgb(23,23,23)"/>
  <stop offset="0.2188" stop-color="rgb(22,22,22)"/>
  <stop offset="0.2500" stop-color="rgb(22,22,22)"/>
  <stop offset="0.2812" stop-color="rgb(21,21,21)"/>
  <stop offset="0.3125" stop-color="rgb(21,21,21)"/>
  <stop offset="0.3438" stop-color="rgb(20,20,20)"/>
  <stop offset="0.3750" stop-color="rgb(20,20,20)"/>
  <stop offset="0.4062" stop-color="rgb(20,20,20)"/>
  <stop offset="0.4375" stop-color="rgb(19,19,19)"/>
  <stop offset="0.4688" stop-color="rgb(19,19,19)"/>
  <stop offset="0.5000" stop-color="rgb(18,18,18)"/>
  <stop offset="0.5312" stop-color="rgb(18,18,18)"/>
  <stop offset="0.5625" stop-color="rgb(17,17,17)"/>
  <stop offset="0.5938" stop-color="rgb(17,17,17)"/>
  <stop offset="0.6250" stop-color="rgb(16,16,16)"/>
  <stop offset="0.6562" stop-color="rgb(16,16,16)"/>
  <stop offset="0.6875" stop-color="rgb(15,15,15)"/>
  <stop offset="0.7188" stop-color="rgb(14,14,14)"/>
  <stop offset="0.7500" stop-color="rgb(14,14,14)"/>
  <stop offset="0.7812" stop-color="rgb(13,13,13)"/>
  <stop offset="0.8125" stop-color="rgb(13,13,13)"/>
  <stop offset="0.8438" stop-color="rgb(12,12,12)"/>
  <stop offset="0.8750" stop-color="rgb(12,12,12)"/>
  <stop offset="0.9062" stop-color="rgb(11,11,11)"/>
  <stop offset="0.9375" stop-color="rgb(10,10,10)"/>
  <stop offset="0.9688" stop-color="rgb(7,7,7)"/>
  <stop offset="1.0000" stop-color="rgb(0,0,0)"/>
</radialGradient></defs>
<circle cx="790.0" cy="140.0" r="81.0" fill="url(#g_DDO161)"/>
<text x="790.0" y="49" text-anchor="middle" class="preview-lbl">face-on luminance from ρ(r)</text>
<text x="790.0" y="239" text-anchor="middle" class="preview-lbl">edge at r = 14.4 kpc</text>
</svg>