<svg xmlns="http://www.w3.org/2000/svg" viewBox="0 0 890 420" width="890" height="420" font-family="sans-serif" font-size="12">
<style>
  .ax { stroke: #333; stroke-width: 1; fill: none; }
  .grid { stroke: #ddd; stroke-width: 0.5; fill: none; }
  .lbl { fill: #333; }
  .lbl-l { fill: #0066cc; }
  .lbl-r { fill: #b03030; }
  .obs { fill: #222; }
  .err { stroke: #555; stroke-width: 0.8; fill: none; }
  .fw { stroke: #0066cc; stroke-width: 2.2; fill: none; }
  .nt { stroke: #cc6600; stroke-width: 1.6; fill: none; stroke-dasharray: 5,3; }
  .lbl-s { fill: #cc7000; }
  .rho { stroke: #b03030; stroke-width: 2.0; fill: none; }
  .sig { stroke: #cc7000; stroke-width: 1.8; fill: none; }
  .title { fill: #111; font-size: 16px; font-weight: 600; }
  .subtitle { fill: #555; font-size: 11px; }
  .preview-bg { fill: #000; }
  .preview-lbl { fill: #888; font-size: 10px; }
  .legend { font-size: 11px; }
</style>
<text x="343.5" y="22" text-anchor="middle" class="title">DDO170</text>
<text x="343.5" y="38" text-anchor="middle" class="subtitle">rMax=12.3 kpc, N=8, RMS=0.6 km/s (1.2%), amp=102</text>
<line x1="70" y1="365.0" x2="617" y2="365.0" class="grid"/>
<text x="64" y="369.0" text-anchor="end" class="lbl-l">0</text>
<line x1="70" y1="303.0" x2="617" y2="303.0" class="grid"/>
<text x="64" y="307.0" text-anchor="end" class="lbl-l">14</text>
<line x1="70" y1="241.0" x2="617" y2="241.0" class="grid"/>
<text x="64" y="245.0" text-anchor="end" class="lbl-l">28</text>
<line x1="70" y1="179.0" x2="617" y2="179.0" class="grid"/>
<text x="64" y="183.0" text-anchor="end" class="lbl-l">42</text>
<line x1="70" y1="117.0" x2="617" y2="117.0" class="grid"/>
<text x="64" y="121.0" text-anchor="end" class="lbl-l">57</text>
<line x1="70" y1="55.0" x2="617" y2="55.0" class="grid"/>
<text x="64" y="59.0" text-anchor="end" class="lbl-l">71</text>
<text x="623" y="369.0" text-anchor="start" class="lbl-r">0.0</text>
<text x="623" y="327.7" text-anchor="start" class="lbl-r">0.2</text>
<text x="623" y="286.3" text-anchor="start" class="lbl-r">0.4</text>
<text x="623" y="245.0" text-anchor="start" class="lbl-r">0.6</text>
<text x="623" y="203.7" text-anchor="start" class="lbl-r">0.8</text>
<text x="623" y="162.3" text-anchor="start" class="lbl-r">1.0</text>
<line x1="70.0" y1="55" x2="70.0" y2="365" class="grid"/>
<text x="70.0" y="381" text-anchor="middle" class="lbl">0.0</text>
<line x1="161.2" y1="55" x2="161.2" y2="365" class="grid"/>
<text x="161.2" y="381" text-anchor="middle" class="lbl">2.4</text>
<line x1="252.3" y1="55" x2="252.3" y2="365" class="grid"/>
<text x="252.3" y="381" text-anchor="middle" class="lbl">4.7</text>
<line x1="343.5" y1="55" x2="343.5" y2="365" class="grid"/>
<text x="343.5" y="381" text-anchor="middle" class="lbl">7.1</text>
<line x1="434.7" y1="55" x2="434.7" y2="365" class="grid"/>
<text x="434.7" y="381" text-anchor="middle" class="lbl">9.4</text>
<line x1="525.8" y1="55" x2="525.8" y2="365" class="grid"/>
<text x="525.8" y="381" text-anchor="middle" class="lbl">11.8</text>
<line x1="617.0" y1="55" x2="617.0" y2="365" class="grid"/>
<text x="617.0" y="381" text-anchor="middle" class="lbl">14.1</text>
<text x="343.5" y="408" text-anchor="middle" class="lbl">radius (kpc)</text>
<text x="16" y="210" text-anchor="middle" class="lbl-l" transform="rotate(-90, 16, 210)">velocity (km/s)</text>
<text x="874" y="210" text-anchor="middle" class="lbl-r" transform="rotate(-90, 874, 210)">mass profile (normalized to peak)</text>
<rect x="70" y="55" width="547" height="310" class="ax"/>
<path d="M 70.0,158.3 L 72.5,159.9 L 75.0,161.4 L 77.5,162.9 L 80.0,164.5 L 82.5,166.0 L 85.0,167.6 L 87.5,169.1 L 90.0,170.6 L 92.5,172.2 L 95.0,173.7 L 97.5,175.3 L 100.0,176.8 L 102.5,178.3 L 105.0,179.9 L 107.5,181.4 L 110.0,182.9 L 112.5,184.5 L 115.0,186.0 L 117.5,187.6 L 120.0,189.1 L 122.5,190.6 L 124.9,192.2 L 127.4,193.7 L 129.9,195.3 L 132.4,196.1 L 134.9,196.5 L 137.4,196.9 L 139.9,197.2 L 142.4,197.6 L 144.9,198.0 L 147.4,198.3 L 149.9,198.7 L 152.4,199.1 L 154.9,199.4 L 157.4,199.8 L 159.9,200.1 L 162.4,200.5 L 164.9,200.9 L 167.4,201.2 L 169.9,201.6 L 172.4,202.0 L 174.9,202.3 L 177.4,202.7 L 179.9,203.1 L 182.4,203.4 L 184.9,203.8 L 187.4,204.1 L 189.9,204.5 L 192.4,204.9 L 194.9,205.2 L 197.4,205.6 L 199.9,206.0 L 202.4,206.3 L 204.9,206.7 L 207.4,207.1 L 209.9,207.4 L 212.4,207.8 L 214.9,208.1 L 217.4,208.5 L 219.9,208.9 L 222.4,209.2 L 224.9,212.0 L 227.4,215.2 L 229.9,218.3 L 232.4,221.5 L 234.8,224.6 L 237.3,225.4 L 239.8,226.0 L 242.3,226.5 L 244.8,227.1 L 247.3,227.6 L 249.8,228.2 L 252.3,228.8 L 254.8,229.3 L 257.3,229.9 L 259.8,230.4 L 262.3,231.0 L 264.8,231.6 L 267.3,232.1 L 269.8,232.7 L 272.3,233.2 L 274.8,233.8 L 277.3,234.4 L 279.8,234.9 L 282.3,235.5 L 284.8,236.0 L 287.3,236.6 L 289.8,237.2 L 292.3,237.7 L 294.8,238.3 L 297.3,238.9 L 299.8,239.4 L 302.3,240.0 L 304.8,240.5 L 307.3,241.1 L 309.8,241.7 L 312.3,242.2 L 314.8,242.8 L 317.3,243.3 L 319.8,243.9 L 322.3,244.5 L 324.8,245.0 L 327.3,245.6 L 329.8,246.1 L 332.3,246.7 L 334.8,247.3 L 337.3,247.8 L 339.8,248.4 L 342.3,249.0 L 344.7,249.5 L 347.2,250.1 L 349.7,250.6 L 352.2,251.2 L 354.7,251.8 L 357.2,252.3 L 359.7,252.9 L 362.2,253.4 L 364.7,254.0 L 367.2,254.6 L 369.7,255.1 L 372.2,255.7 L 374.7,256.2 L 377.2,256.8 L 379.7,257.4 L 382.2,257.9 L 384.7,258.5 L 387.2,259.0 L 389.7,259.6 L 392.2,260.2 L 394.7,260.7 L 397.2,261.3 L 399.7,261.9 L 402.2,262.4 L 404.7,263.0 L 407.2,263.5 L 409.7,264.1 L 412.2,264.7 L 414.7,265.2 L 417.2,265.8 L 419.7,266.3 L 422.2,266.9 L 424.7,267.5 L 427.2,268.0 L 429.7,268.6 L 432.2,269.1 L 434.7,269.7 L 437.2,270.3 L 439.7,270.8 L 442.2,271.4 L 444.7,271.9 L 447.2,272.5 L 449.7,273.1 L 452.2,273.6 L 454.6,274.2 L 457.1,274.8 L 459.6,275.3 L 462.1,275.9 L 464.6,276.4 L 467.1,277.0 L 469.6,277.6 L 472.1,278.1 L 474.6,278.7 L 477.1,279.2 L 479.6,279.8 L 482.1,280.4 L 484.6,280.9 L 487.1,281.5 L 489.6,282.0 L 492.1,282.6 L 494.6,283.2 L 497.1,283.7 L 499.6,284.3 L 502.1,284.8 L 504.6,285.4 L 507.1,286.0 L 509.6,286.5 L 512.1,287.1 L 514.6,287.7 L 517.1,288.2 L 519.6,288.8 L 522.1,289.3 L 524.6,289.9 L 527.1,290.5 L 529.6,291.0 L 532.1,291.6 L 534.6,292.1 L 537.1,292.7 L 539.6,293.3 L 542.1,293.8 L 544.6,294.4 L 547.1,295.6 L 549.6,299.5 L 552.1,303.5 L 554.6,307.4 L 557.1,311.4 L 559.6,315.3 L 562.1,319.3 L 564.5,323.2 L 567.0,327.2 L 569.5,331.1 L 572.0,335.1 L 574.5,339.0 L 577.0,343.0 L 579.5,346.9 L 582.0,350.9 L 584.5,354.8 L 587.0,358.8 L 589.5,362.7 L 592.0,365.0 L 594.5,365.0 L 597.0,365.0 L 599.5,365.0 L 602.0,365.0 L 604.5,365.0 L 607.0,365.0 L 609.5,365.0 L 612.0,365.0 L 614.5,365.0 L 617.0,365.0" class="rho"/>
<path d="M 70.0,158.3 L 72.5,158.4 L 75.0,158.5 L 77.5,158.7 L 80.0,158.9 L 82.5,159.2 L 85.0,159.6 L 87.5,160.0 L 90.0,160.4 L 92.5,160.9 L 95.0,161.5 L 97.5,162.1 L 100.0,162.7 L 102.5,163.4 L 105.0,164.1 L 107.5,164.8 L 110.0,165.6 L 112.5,166.4 L 115.0,167.1 L 117.5,168.0 L 120.0,168.8 L 122.5,169.6 L 124.9,170.5 L 127.4,171.3 L 129.9,172.2 L 132.4,173.0 L 134.9,173.9 L 137.4,174.8 L 139.9,175.6 L 142.4,176.5 L 144.9,177.4 L 147.4,178.3 L 149.9,179.2 L 152.4,180.0 L 154.9,180.9 L 157.4,181.9 L 159.9,182.8 L 162.4,183.7 L 164.9,184.6 L 167.4,185.6 L 169.9,186.5 L 172.4,187.5 L 174.9,188.5 L 177.4,189.5 L 179.9,190.5 L 182.4,191.5 L 184.9,192.5 L 187.4,193.5 L 189.9,194.6 L 192.4,195.7 L 194.9,196.8 L 197.4,197.9 L 199.9,199.0 L 202.4,200.1 L 204.9,201.3 L 207.4,202.4 L 209.9,203.6 L 212.4,204.8 L 214.9,206.1 L 217.4,207.3 L 219.9,208.6 L 222.4,209.9 L 224.9,211.1 L 227.4,212.4 L 229.9,213.7 L 232.4,215.0 L 234.8,216.3 L 237.3,217.6 L 239.8,218.9 L 242.3,220.2 L 244.8,221.4 L 247.3,222.7 L 249.8,223.9 L 252.3,225.2 L 254.8,226.4 L 257.3,227.6 L 259.8,228.8 L 262.3,230.0 L 264.8,231.1 L 267.3,232.3 L 269.8,233.5 L 272.3,234.6 L 274.8,235.7 L 277.3,236.9 L 279.8,238.0 L 282.3,239.1 L 284.8,240.2 L 287.3,241.3 L 289.8,242.4 L 292.3,243.5 L 294.8,244.6 L 297.3,245.6 L 299.8,246.7 L 302.3,247.8 L 304.8,248.8 L 307.3,249.9 L 309.8,250.9 L 312.3,251.9 L 314.8,253.0 L 317.3,254.0 L 319.8,255.0 L 322.3,256.0 L 324.8,257.0 L 327.3,258.0 L 329.8,259.0 L 332.3,260.0 L 334.8,261.0 L 337.3,262.0 L 339.8,263.0 L 342.3,264.0 L 344.7,264.9 L 347.2,265.9 L 349.7,266.9 L 352.2,267.8 L 354.7,268.8 L 357.2,269.7 L 359.7,270.6 L 362.2,271.6 L 364.7,272.5 L 367.2,273.4 L 369.7,274.3 L 372.2,275.3 L 374.7,276.2 L 377.2,277.1 L 379.7,278.0 L 382.2,278.9 L 384.7,279.8 L 387.2,280.6 L 389.7,281.5 L 392.2,282.4 L 394.7,283.3 L 397.2,284.1 L 399.7,285.0 L 402.2,285.9 L 404.7,286.7 L 407.2,287.6 L 409.7,288.4 L 412.2,289.2 L 414.7,290.1 L 417.2,290.9 L 419.7,291.7 L 422.2,292.5 L 424.7,293.4 L 427.2,294.2 L 429.7,295.0 L 432.2,295.8 L 434.7,296.6 L 437.2,297.4 L 439.7,298.2 L 442.2,298.9 L 444.7,299.7 L 447.2,300.5 L 449.7,301.3 L 452.2,302.0 L 454.6,302.8 L 457.1,303.5 L 459.6,304.3 L 462.1,305.0 L 464.6,305.8 L 467.1,306.5 L 469.6,307.3 L 472.1,308.0 L 474.6,308.7 L 477.1,309.4 L 479.6,310.2 L 482.1,310.9 L 484.6,311.6 L 487.1,312.3 L 489.6,313.0 L 492.1,313.7 L 494.6,314.4 L 497.1,315.1 L 499.6,315.8 L 502.1,316.5 L 504.6,317.2 L 507.1,317.9 L 509.6,318.6 L 512.1,319.3 L 514.6,320.0 L 517.1,320.7 L 519.6,321.4 L 522.1,322.1 L 524.6,322.8 L 527.1,323.5 L 529.6,324.1 L 532.1,324.8 L 534.6,325.5 L 537.1,326.2 L 539.6,326.9 L 542.1,327.7 L 544.6,328.4 L 547.1,329.1 L 549.6,329.8 L 552.1,330.5 L 554.6,331.2 L 557.1,331.8 L 559.6,332.5 L 562.1,333.2 L 564.5,333.9 L 567.0,334.5 L 569.5,335.1 L 572.0,335.7 L 574.5,336.3 L 577.0,336.9 L 579.5,337.4 L 582.0,338.0 L 584.5,338.5 L 587.0,339.0 L 589.5,339.5 L 592.0,339.9 L 594.5,340.4 L 597.0,340.8 L 599.5,341.2 L 602.0,341.6 L 604.5,342.0 L 607.0,342.3 L 609.5,342.7 L 612.0,343.1 L 614.5,343.4 L 617.0,343.7" class="sig"/>
<path d="M 75.5,323.3 L 80.9,306.3 L 86.4,293.5 L 91.9,282.9 L 97.3,273.8 L 102.8,265.6 L 108.3,258.3 L 113.8,251.6 L 119.2,245.5 L 124.7,239.8 L 130.2,234.4 L 135.6,229.4 L 141.1,224.6 L 146.6,219.9 L 152.1,215.4 L 157.5,211.0 L 163.0,206.7 L 168.5,202.6 L 173.9,198.6 L 179.4,194.7 L 184.9,190.9 L 190.3,187.2 L 195.8,183.6 L 201.3,180.1 L 206.8,176.7 L 212.2,173.3 L 217.7,170.1 L 223.2,166.9 L 228.6,163.9 L 234.1,161.3 L 239.6,158.8 L 245.0,156.4 L 250.5,154.1 L 256.0,151.8 L 261.4,149.5 L 266.9,147.3 L 272.4,145.2 L 277.9,143.1 L 283.3,141.0 L 288.8,139.0 L 294.3,137.0 L 299.7,135.1 L 305.2,133.2 L 310.7,131.3 L 316.1,129.5 L 321.6,127.7 L 327.1,126.0 L 332.6,124.3 L 338.0,122.6 L 343.5,121.0 L 349.0,119.4 L 354.4,117.9 L 359.9,116.4 L 365.4,114.9 L 370.9,113.5 L 376.3,112.1 L 381.8,110.7 L 387.3,109.3 L 392.7,108.0 L 398.2,106.8 L 403.7,105.5 L 409.1,104.3 L 414.6,103.1 L 420.1,102.0 L 425.6,100.8 L 431.0,99.8 L 436.5,98.7 L 442.0,97.7 L 447.4,96.7 L 452.9,95.7 L 458.4,94.7 L 463.8,93.8 L 469.3,92.9 L 474.8,92.1 L 480.2,91.2 L 485.7,90.4 L 491.2,89.6 L 496.7,88.9 L 502.1,88.2 L 507.6,87.5 L 513.1,86.8 L 518.5,86.1 L 524.0,85.5 L 529.5,84.9 L 535.0,84.4 L 540.4,83.8 L 545.9,83.3 L 551.4,82.9 L 556.8,82.7 L 562.3,82.8 L 567.8,83.1 L 573.2,83.7 L 578.7,84.5 L 584.2,85.5 L 589.7,86.8 L 595.1,88.2 L 600.6,89.7 L 606.1,91.1 L 611.5,92.5 L 617.0,93.8" class="nt"/>
<path d="M 74.6,352.3 L 79.1,342.4 L 83.7,331.7 L 88.2,321.4 L 92.8,311.8 L 97.3,302.7 L 101.9,294.2 L 106.5,286.4 L 111.0,279.2 L 115.6,272.6 L 120.1,266.6 L 124.7,261.3 L 129.3,256.3 L 133.8,251.7 L 138.4,247.3 L 142.9,243.0 L 147.5,238.6 L 152.1,234.1 L 156.6,229.6 L 161.2,224.9 L 165.7,220.1 L 170.3,215.2 L 174.8,210.1 L 179.4,205.0 L 184.0,199.7 L 188.5,194.3 L 193.1,188.7 L 197.6,183.1 L 202.2,177.3 L 206.8,171.4 L 211.3,165.4 L 215.9,159.7 L 220.4,154.3 L 225.0,149.6 L 229.5,145.7 L 234.1,142.8 L 238.7,140.6 L 243.2,139.2 L 247.8,138.1 L 252.3,137.2 L 256.9,136.3 L 261.4,135.4 L 266.0,134.4 L 270.6,133.5 L 275.1,132.4 L 279.7,131.4 L 284.2,130.3 L 288.8,129.2 L 293.4,128.1 L 297.9,127.0 L 302.5,125.9 L 307.0,124.8 L 311.6,123.7 L 316.1,122.6 L 320.7,121.6 L 325.3,120.5 L 329.8,119.5 L 334.4,118.6 L 338.9,117.6 L 343.5,116.7 L 348.1,115.8 L 352.6,115.0 L 357.2,114.1 L 361.7,113.4 L 366.3,112.6 L 370.9,111.9 L 375.4,111.2 L 380.0,110.6 L 384.5,110.0 L 389.1,109.4 L 393.6,108.9 L 398.2,108.4 L 402.8,107.9 L 407.3,107.4 L 411.9,107.0 L 416.4,106.7 L 421.0,106.3 L 425.5,106.0 L 430.1,105.7 L 434.7,105.4 L 439.2,105.1 L 443.8,104.9 L 448.3,104.6 L 452.9,104.4 L 457.5,104.2 L 462.0,103.9 L 466.6,103.7 L 471.1,103.5 L 475.7,103.2 L 480.2,102.9 L 484.8,102.5 L 489.4,102.1 L 493.9,101.5 L 498.5,100.9 L 503.0,100.2 L 507.6,99.3 L 512.2,98.2 L 516.7,97.0 L 521.3,95.5 L 525.8,93.8 L 530.4,91.8 L 535.0,89.8 L 539.5,87.9 L 544.1,86.3 L 548.6,85.5 L 553.2,85.7 L 557.7,87.1 L 562.3,90.0 L 566.9,94.2 L 571.4,99.6 L 576.0,105.8 L 580.5,112.7 L 585.1,119.9 L 589.7,127.1 L 594.2,134.1 L 598.8,140.8 L 603.3,147.1 L 607.9,153.0 L 612.4,158.4 L 617.0,163.5" class="fw"/>
<line x1="142.35" y1="230.59" x2="142.35" y2="256.86" class="err"/>
<line x1="139.35" y1="230.59" x2="145.35" y2="230.59" class="err"/>
<line x1="139.35" y1="256.86" x2="145.35" y2="256.86" class="err"/>
<circle cx="142.35" cy="243.72" r="2.5" class="obs"/>
<line x1="200.00" y1="172.80" x2="200.00" y2="185.93" class="err"/>
<line x1="197.00" y1="172.80" x2="203.00" y2="172.80" class="err"/>
<line x1="197.00" y1="185.93" x2="203.00" y2="185.93" class="err"/>
<circle cx="200.00" cy="179.37" r="2.5" class="obs"/>
<line x1="258.04" y1="130.77" x2="258.04" y2="139.52" class="err"/>
<line x1="255.04" y1="130.77" x2="261.04" y2="130.77" class="err"/>
<line x1="255.04" y1="139.52" x2="261.04" y2="139.52" class="err"/>
<circle cx="258.04" cy="135.15" r="2.5" class="obs"/>
<line x1="315.69" y1="117.20" x2="315.69" y2="125.95" class="err"/>
<line x1="312.69" y1="117.20" x2="318.69" y2="117.20" class="err"/>
<line x1="312.69" y1="125.95" x2="318.69" y2="125.95" class="err"/>
<circle cx="315.69" cy="121.57" r="2.5" class="obs"/>
<line x1="373.73" y1="103.62" x2="373.73" y2="113.26" class="err"/>
<line x1="370.73" y1="103.62" x2="376.73" y2="103.62" class="err"/>
<line x1="370.73" y1="113.26" x2="376.73" y2="113.26" class="err"/>
<circle cx="373.73" cy="108.44" r="2.5" class="obs"/>
<line x1="431.38" y1="101.43" x2="431.38" y2="111.94" class="err"/>
<line x1="428.38" y1="101.43" x2="434.38" y2="101.43" class="err"/>
<line x1="428.38" y1="111.94" x2="434.38" y2="111.94" class="err"/>
<circle cx="431.38" cy="106.69" r="2.5" class="obs"/>
<line x1="489.03" y1="96.62" x2="489.03" y2="108.00" class="err"/>
<line x1="486.03" y1="96.62" x2="492.03" y2="96.62" class="err"/>
<line x1="486.03" y1="108.00" x2="492.03" y2="108.00" class="err"/>
<circle cx="489.03" cy="102.31" r="2.5" class="obs"/>
<line x1="547.06" y1="88.30" x2="547.06" y2="97.06" class="err"/>
<line x1="544.06" y1="88.30" x2="550.06" y2="88.30" class="err"/>
<line x1="544.06" y1="97.06" x2="550.06" y2="97.06" class="err"/>
<circle cx="547.06" cy="92.68" r="2.5" class="obs"/>
<g class="legend">
<line x1="82" y1="69" x2="106" y2="69" class="fw"/>
<text x="112" y="73" class="lbl-l">framework fit</text>
<line x1="82" y1="87" x2="106" y2="87" class="nt"/>
<text x="112" y="91" class="lbl-l">Newtonian (no halo)</text>
<circle cx="94" cy="105" r="2.5" class="obs"/>
<text x="112" y="109" class="lbl">observed V±err</text>
</g>
<g class="legend">
<line x1="442" y1="69" x2="466" y2="69" class="rho"/>
<text x="472" y="73" class="lbl-r">ρ(r) raw</text>
<line x1="442" y1="87" x2="466" y2="87" class="sig"/>
<text x="472" y="91" class="lbl-s">Σ(r) cumulative</text>
<text x="442" y="113" class="lbl-r">ρ peak: 48 M☉/pc²</text>
</g>
<rect x="705" y="55" width="170" height="170" class="preview-bg"/>
<defs><radialGradient id="g_DDO170" cx="0.5" cy="0.5" r="0.5">
  <stop offset="0.0000" stop-color="rgb(116,29,29)"/>
  <stop offset="0.0313" stop-color="rgb(113,28.25,28.25)"/>
  <stop offset="0.0625" stop-color="rgb(109,27.25,27.25)"/>
  <stop offset="0.0938" stop-color="rgb(106,26.5,26.5)"/>
  <stop offset="0.1250" stop-color="rgb(104,26,26)"/>
  <stop offset="0.1563" stop-color="rgb(103,25.75,25.75)"/>
  <stop offset="0.1875" stop-color="rgb(102,25.5,25.5)"/>
  <stop offset="0.2188" stop-color="rgb(101,25.25,25.25)"/>
  <stop offset="0.2500" stop-color="rgb(101,25.25,25.25)"/>
  <stop offset="0.2813" stop-color="rgb(100,25,25)"/>
  <stop offset="0.3125" stop-color="rgb(96,24,24)"/>
  <stop offset="0.3438" stop-color="rgb(94,23.5,23.5)"/>
  <stop offset="0.3750" stop-color="rgb(92,23,23)"/>
  <stop offset="0.4063" stop-color="rgb(91,22.75,22.75)"/>
  <stop offset="0.4375" stop-color="rgb(90,22.5,22.5)"/>
  <stop offset="0.4688" stop-color="rgb(89,22.25,22.25)"/>
  <stop offset="0.5000" stop-color="rgb(88,22,22)"/>
  <stop offset="0.5313" stop-color="rgb(87,21.75,21.75)"/>
  <stop offset="0.5625" stop-color="rgb(85,21.25,21.25)"/>
  <stop offset="0.5938" stop-color="rgb(84,21,21)"/>
  <stop offset="0.6250" stop-color="rgb(83,20.75,20.75)"/>
  <stop offset="0.6563" stop-color="rgb(82,20.5,20.5)"/>
  <stop offset="0.6875" stop-color="rgb(81,20.25,20.25)"/>
  <stop offset="0.7188" stop-color="rgb(80,20,20)"/>
  <stop offset="0.7500" stop-color="rgb(79,19.75,19.75)"/>
  <stop offset="0.7813" stop-color="rgb(77,19.25,19.25)"/>
  <stop offset="0.8125" stop-color="rgb(76,19,19)"/>
  <stop offset="0.8438" stop-color="rgb(75,18.75,18.75)"/>
  <stop offset="0.8750" stop-color="rgb(74,18.5,18.5)"/>
  <stop offset="0.9063" stop-color="rgb(73,18.25,18.25)"/>
  <stop offset="0.9375" stop-color="rgb(66,16.5,16.5)"/>
  <stop offset="0.9688" stop-color="rgb(38,9.5,9.5)"/>
  <stop offset="1.0000" stop-color="rgb(0,0,0)"/>
</radialGradient></defs>
<circle cx="790" cy="140" r="81" fill="url(#g_DDO170)"/>
<text x="790" y="49" text-anchor="middle" class="preview-lbl">face-on luminance from ρ(r)</text>
<text x="790" y="239" text-anchor="middle" class="preview-lbl">edge at r = 13.5 kpc</text>
</svg>