<svg xmlns="http://www.w3.org/2000/svg" viewBox="0 0 720 420" width="720" height="420" font-family="sans-serif" font-size="12">
<style>
  .ax { stroke: #333; stroke-width: 1; fill: none; }
  .grid { stroke: #ddd; stroke-width: 0.5; fill: none; }
  .lbl { fill: #333; }
  .lbl-l { fill: #0066cc; }
  .lbl-r { fill: #b03030; }
  .obs { fill: #222; }
  .err { stroke: #555; stroke-width: 0.8; fill: none; }
  .fw { stroke: #0066cc; stroke-width: 2.2; fill: none; }
  .nt { stroke: #cc6600; stroke-width: 1.6; fill: none; stroke-dasharray: 5,3; }
  .rho { stroke: #b03030; stroke-width: 2.0; fill: none; }
  .sig { stroke: #b03030; stroke-width: 1.6; fill: none; stroke-dasharray: 4,2; opacity: 0.85; }
  .title { fill: #111; font-size: 16px; font-weight: 600; }
  .subtitle { fill: #555; font-size: 11px; }
  .legend { font-size: 11px; }
</style>
<text x="360.0" y="22" text-anchor="middle" class="title">ESO079-G014</text>
<text x="360.0" y="38" text-anchor="middle" class="subtitle">rMax=16.7 kpc, N=15, RMS=2.3 km/s (1.9%), amp=105</text>
<line x1="70" y1="365.0" x2="635" y2="365.0" class="grid"/>
<text x="64" y="369.0" text-anchor="end" class="lbl-l">0</text>
<line x1="70" y1="303.0" x2="635" y2="303.0" class="grid"/>
<text x="64" y="307.0" text-anchor="end" class="lbl-l">40</text>
<line x1="70" y1="241.00000000000003" x2="635" y2="241.00000000000003" class="grid"/>
<text x="64" y="245.00000000000003" text-anchor="end" class="lbl-l">80</text>
<line x1="70" y1="179.0" x2="635" y2="179.0" class="grid"/>
<text x="64" y="183.0" text-anchor="end" class="lbl-l">119</text>
<line x1="70" y1="117.00000000000003" x2="635" y2="117.00000000000003" class="grid"/>
<text x="64" y="121.00000000000003" text-anchor="end" class="lbl-l">159</text>
<line x1="70" y1="55.0" x2="635" y2="55.0" class="grid"/>
<text x="64" y="59.0" text-anchor="end" class="lbl-l">199</text>
<text x="641" y="369.0" text-anchor="start" class="lbl-r">0.0</text>
<text x="641" y="327.6666666666667" text-anchor="start" class="lbl-r">0.2</text>
<text x="641" y="286.33333333333337" text-anchor="start" class="lbl-r">0.4</text>
<text x="641" y="245.00000000000003" text-anchor="start" class="lbl-r">0.6</text>
<text x="641" y="203.66666666666666" text-anchor="start" class="lbl-r">0.8</text>
<text x="641" y="162.33333333333334" text-anchor="start" class="lbl-r">1.0</text>
<line x1="70.0" y1="55" x2="70.0" y2="365" class="grid"/>
<text x="70.0" y="381" text-anchor="middle" class="lbl">0.0</text>
<line x1="164.16666666666666" y1="55" x2="164.16666666666666" y2="365" class="grid"/>
<text x="164.16666666666666" y="381" text-anchor="middle" class="lbl">3.0</text>
<line x1="258.3333333333333" y1="55" x2="258.3333333333333" y2="365" class="grid"/>
<text x="258.3333333333333" y="381" text-anchor="middle" class="lbl">6.1</text>
<line x1="352.5" y1="55" x2="352.5" y2="365" class="grid"/>
<text x="352.5" y="381" text-anchor="middle" class="lbl">9.1</text>
<line x1="446.66666666666663" y1="55" x2="446.66666666666663" y2="365" class="grid"/>
<text x="446.66666666666663" y="381" text-anchor="middle" class="lbl">12.2</text>
<line x1="540.8333333333333" y1="55" x2="540.8333333333333" y2="365" class="grid"/>
<text x="540.8333333333333" y="381" text-anchor="middle" class="lbl">15.2</text>
<line x1="635.0" y1="55" x2="635.0" y2="365" class="grid"/>
<text x="635.0" y="381" text-anchor="middle" class="lbl">18.2</text>
<text x="352.5" y="408" text-anchor="middle" class="lbl">radius (kpc)</text>
<text x="16" y="210.0" text-anchor="middle" class="lbl-l" transform="rotate(-90, 16, 210.0)">velocity (km/s)</text>
<text x="704" y="210.0" text-anchor="middle" class="lbl-r" transform="rotate(-90, 704, 210.0)">mass profile (normalized to peak)</text>
<rect x="70" y="55" width="565" height="310" class="ax"/>
<path d="M 70.0,158.3 L 72.6,169.0 L 75.2,179.7 L 77.7,190.3 L 80.3,201.0 L 82.9,211.7 L 85.5,222.4 L 88.1,233.0 L 90.6,243.7 L 93.2,254.4 L 95.8,265.0 L 98.4,273.7 L 101.0,273.7 L 103.5,273.7 L 106.1,273.7 L 108.7,273.7 L 111.3,273.7 L 113.9,273.7 L 116.4,273.7 L 119.0,273.7 L 121.6,273.7 L 124.2,273.7 L 126.8,273.7 L 129.3,273.7 L 131.9,273.7 L 134.5,273.7 L 137.1,273.7 L 139.7,273.7 L 142.2,273.7 L 144.8,273.7 L 147.4,273.7 L 150.0,273.7 L 152.6,273.7 L 155.1,273.7 L 157.7,273.7 L 160.3,273.7 L 162.9,273.7 L 165.5,273.7 L 168.0,273.7 L 170.6,273.7 L 173.2,273.7 L 175.8,273.7 L 178.4,273.7 L 180.9,273.8 L 183.5,274.2 L 186.1,274.5 L 188.7,274.9 L 191.3,275.2 L 193.8,275.6 L 196.4,275.9 L 199.0,276.3 L 201.6,276.6 L 204.2,277.0 L 206.7,277.3 L 209.3,277.7 L 211.9,278.0 L 214.5,278.4 L 217.1,278.7 L 219.6,279.1 L 222.2,279.4 L 224.8,279.8 L 227.4,280.1 L 230.0,280.5 L 232.5,280.8 L 235.1,281.2 L 237.7,281.5 L 240.3,281.9 L 242.9,282.2 L 245.4,282.6 L 248.0,282.9 L 250.6,283.3 L 253.2,283.6 L 255.8,284.0 L 258.3,284.4 L 260.9,284.7 L 263.5,285.1 L 266.1,285.4 L 268.7,285.8 L 271.2,286.1 L 273.8,286.5 L 276.4,286.8 L 279.0,287.2 L 281.6,287.5 L 284.1,287.9 L 286.7,288.2 L 289.3,288.6 L 291.9,288.9 L 294.5,289.3 L 297.0,289.6 L 299.6,290.0 L 302.2,290.3 L 304.8,290.7 L 307.4,291.0 L 309.9,291.4 L 312.5,291.7 L 315.1,292.1 L 317.7,292.4 L 320.3,292.8 L 322.8,293.1 L 325.4,293.5 L 328.0,293.8 L 330.6,294.2 L 333.2,294.5 L 335.7,294.9 L 338.3,295.2 L 340.9,295.6 L 343.5,295.9 L 346.1,296.3 L 348.6,296.7 L 351.2,297.0 L 353.8,297.4 L 356.4,297.7 L 358.9,298.1 L 361.5,298.4 L 364.1,298.8 L 366.7,299.1 L 369.3,299.5 L 371.8,299.8 L 374.4,300.2 L 377.0,300.5 L 379.6,300.9 L 382.2,301.2 L 384.7,301.6 L 387.3,301.9 L 389.9,302.3 L 392.5,302.6 L 395.1,303.0 L 397.6,303.3 L 400.2,303.7 L 402.8,304.0 L 405.4,304.4 L 408.0,304.7 L 410.5,305.1 L 413.1,305.4 L 415.7,305.8 L 418.3,306.1 L 420.9,306.5 L 423.4,306.8 L 426.0,307.2 L 428.6,307.5 L 431.2,307.9 L 433.8,308.2 L 436.3,308.6 L 438.9,309.0 L 441.5,309.3 L 444.1,309.7 L 446.7,310.0 L 449.2,310.4 L 451.8,310.7 L 454.4,311.1 L 457.0,311.4 L 459.6,311.8 L 462.1,312.1 L 464.7,312.5 L 467.3,312.8 L 469.9,313.2 L 472.5,313.5 L 475.0,313.9 L 477.6,314.2 L 480.2,314.6 L 482.8,314.9 L 485.4,315.3 L 487.9,315.6 L 490.5,316.0 L 493.1,316.3 L 495.7,316.7 L 498.3,317.0 L 500.8,317.4 L 503.4,317.7 L 506.0,318.1 L 508.6,318.4 L 511.2,318.8 L 513.7,319.1 L 516.3,319.5 L 518.9,319.8 L 521.5,320.2 L 524.1,320.5 L 526.6,320.9 L 529.2,321.3 L 531.8,321.6 L 534.4,322.0 L 537.0,322.3 L 539.5,322.7 L 542.1,323.0 L 544.7,323.4 L 547.3,323.7 L 549.9,324.1 L 552.4,324.4 L 555.0,324.8 L 557.6,325.1 L 560.2,325.5 L 562.8,325.8 L 565.3,326.2 L 567.9,326.5 L 570.5,326.9 L 573.1,327.2 L 575.7,327.6 L 578.2,327.9 L 580.8,328.3 L 583.4,328.6 L 586.0,329.0 L 588.6,329.3 L 591.1,329.7 L 593.7,330.0 L 596.3,330.4 L 598.9,334.3 L 601.5,342.9 L 604.0,351.5 L 606.6,360.1 L 609.2,365.0 L 611.8,365.0 L 614.4,365.0 L 616.9,365.0 L 619.5,365.0 L 622.1,365.0 L 624.7,365.0 L 627.3,365.0 L 629.8,365.0 L 632.4,365.0 L 635.0,365.0" class="rho"/>
<path d="M 70.0,158.3 L 72.6,158.5 L 75.2,158.8 L 77.7,159.3 L 80.3,159.8 L 82.9,160.5 L 85.5,161.3 L 88.1,162.1 L 90.6,163.0 L 93.2,163.9 L 95.8,164.9 L 98.4,165.8 L 101.0,166.7 L 103.5,167.6 L 106.1,168.4 L 108.7,169.2 L 111.3,170.0 L 113.9,170.7 L 116.4,171.4 L 119.0,172.1 L 121.6,172.8 L 124.2,173.4 L 126.8,174.1 L 129.3,174.7 L 131.9,175.3 L 134.5,175.9 L 137.1,176.4 L 139.7,177.0 L 142.2,177.6 L 144.8,178.2 L 147.4,178.7 L 150.0,179.3 L 152.6,179.9 L 155.1,180.5 L 157.7,181.1 L 160.3,181.7 L 162.9,182.3 L 165.5,182.9 L 168.0,183.5 L 170.6,184.2 L 173.2,184.8 L 175.8,185.5 L 178.4,186.1 L 180.9,186.8 L 183.5,187.5 L 186.1,188.2 L 188.7,188.9 L 191.3,189.7 L 193.8,190.4 L 196.4,191.2 L 199.0,191.9 L 201.6,192.7 L 204.2,193.5 L 206.7,194.3 L 209.3,195.1 L 211.9,195.9 L 214.5,196.7 L 217.1,197.5 L 219.6,198.4 L 222.2,199.2 L 224.8,200.1 L 227.4,200.9 L 230.0,201.8 L 232.5,202.7 L 235.1,203.5 L 237.7,204.4 L 240.3,205.3 L 242.9,206.2 L 245.4,207.1 L 248.0,208.0 L 250.6,208.9 L 253.2,209.8 L 255.8,210.7 L 258.3,211.6 L 260.9,212.5 L 263.5,213.5 L 266.1,214.4 L 268.7,215.3 L 271.2,216.2 L 273.8,217.2 L 276.4,218.1 L 279.0,219.1 L 281.6,220.0 L 284.1,220.9 L 286.7,221.9 L 289.3,222.8 L 291.9,223.8 L 294.5,224.7 L 297.0,225.7 L 299.6,226.6 L 302.2,227.6 L 304.8,228.5 L 307.4,229.5 L 309.9,230.4 L 312.5,231.4 L 315.1,232.3 L 317.7,233.3 L 320.3,234.2 L 322.8,235.2 L 325.4,236.1 L 328.0,237.1 L 330.6,238.1 L 333.2,239.0 L 335.7,240.0 L 338.3,240.9 L 340.9,241.9 L 343.5,242.8 L 346.1,243.8 L 348.6,244.7 L 351.2,245.7 L 353.8,246.6 L 356.4,247.5 L 358.9,248.5 L 361.5,249.4 L 364.1,250.4 L 366.7,251.3 L 369.3,252.2 L 371.8,253.2 L 374.4,254.1 L 377.0,255.0 L 379.6,256.0 L 382.2,256.9 L 384.7,257.8 L 387.3,258.7 L 389.9,259.6 L 392.5,260.6 L 395.1,261.5 L 397.6,262.4 L 400.2,263.3 L 402.8,264.2 L 405.4,265.1 L 408.0,266.0 L 410.5,266.9 L 413.1,267.8 L 415.7,268.7 L 418.3,269.6 L 420.9,270.5 L 423.4,271.3 L 426.0,272.2 L 428.6,273.1 L 431.2,274.0 L 433.8,274.8 L 436.3,275.7 L 438.9,276.6 L 441.5,277.4 L 444.1,278.3 L 446.7,279.1 L 449.2,280.0 L 451.8,280.8 L 454.4,281.7 L 457.0,282.5 L 459.6,283.3 L 462.1,284.2 L 464.7,285.0 L 467.3,285.8 L 469.9,286.6 L 472.5,287.4 L 475.0,288.2 L 477.6,289.1 L 480.2,289.9 L 482.8,290.7 L 485.4,291.5 L 487.9,292.2 L 490.5,293.0 L 493.1,293.8 L 495.7,294.6 L 498.3,295.4 L 500.8,296.1 L 503.4,296.9 L 506.0,297.7 L 508.6,298.4 L 511.2,299.2 L 513.7,300.0 L 516.3,300.7 L 518.9,301.5 L 521.5,302.2 L 524.1,302.9 L 526.6,303.7 L 529.2,304.4 L 531.8,305.1 L 534.4,305.9 L 537.0,306.6 L 539.5,307.3 L 542.1,308.0 L 544.7,308.7 L 547.3,309.5 L 549.9,310.2 L 552.4,310.9 L 555.0,311.6 L 557.6,312.3 L 560.2,313.0 L 562.8,313.7 L 565.3,314.4 L 567.9,315.1 L 570.5,315.8 L 573.1,316.5 L 575.7,317.2 L 578.2,317.8 L 580.8,318.5 L 583.4,319.2 L 586.0,319.9 L 588.6,320.6 L 591.1,321.3 L 593.7,322.0 L 596.3,322.6 L 598.9,323.3 L 601.5,324.0 L 604.0,324.6 L 606.6,325.2 L 609.2,325.9 L 611.8,326.5 L 614.4,327.1 L 616.9,327.7 L 619.5,328.2 L 622.1,328.8 L 624.7,329.3 L 627.3,329.8 L 629.8,330.4 L 632.4,330.8 L 635.0,331.3" class="sig"/>
<path d="M 75.7,312.7 L 81.3,294.1 L 87.0,282.1 L 92.6,274.0 L 98.2,268.9 L 103.9,264.6 L 109.5,259.8 L 115.2,254.8 L 120.8,249.8 L 126.5,244.9 L 132.2,240.1 L 137.8,235.3 L 143.4,230.7 L 149.1,226.2 L 154.8,221.8 L 160.4,217.4 L 166.1,213.2 L 171.7,209.1 L 177.3,205.1 L 183.0,201.2 L 188.6,197.4 L 194.3,193.7 L 200.0,190.2 L 205.6,186.8 L 211.2,183.5 L 216.9,180.3 L 222.6,177.2 L 228.2,174.2 L 233.8,171.3 L 239.5,168.5 L 245.2,165.7 L 250.8,163.1 L 256.5,160.4 L 262.1,157.9 L 267.8,155.5 L 273.4,153.1 L 279.1,150.7 L 284.7,148.4 L 290.4,146.2 L 296.0,144.1 L 301.6,141.9 L 307.3,139.9 L 312.9,137.9 L 318.6,135.9 L 324.2,134.0 L 329.9,132.2 L 335.6,130.4 L 341.2,128.6 L 346.8,126.9 L 352.5,125.2 L 358.1,123.6 L 363.8,122.0 L 369.4,120.4 L 375.1,118.9 L 380.8,117.4 L 386.4,116.0 L 392.1,114.6 L 397.7,113.3 L 403.3,111.9 L 409.0,110.7 L 414.6,109.4 L 420.3,108.2 L 426.0,107.0 L 431.6,105.9 L 437.2,104.8 L 442.9,103.7 L 448.5,102.6 L 454.2,101.6 L 459.8,100.6 L 465.5,99.7 L 471.1,98.8 L 476.8,97.9 L 482.4,97.0 L 488.1,96.2 L 493.8,95.4 L 499.4,94.6 L 505.1,93.9 L 510.7,93.2 L 516.4,92.5 L 522.0,91.8 L 527.7,91.2 L 533.3,90.6 L 539.0,90.0 L 544.6,89.5 L 550.2,89.0 L 555.9,88.5 L 561.5,88.0 L 567.2,87.6 L 572.8,87.2 L 578.5,86.8 L 584.1,86.5 L 589.8,86.2 L 595.5,85.9 L 601.1,85.7 L 606.8,86.5 L 612.4,87.9 L 618.1,89.3 L 623.7,90.8 L 629.4,92.2 L 635.0,93.6" class="nt"/>
<path d="M 74.7,344.9 L 79.4,330.4 L 84.1,316.2 L 88.8,304.4 L 93.5,295.5 L 98.2,289.2 L 103.0,285.2 L 107.7,282.6 L 112.4,280.8 L 117.1,279.4 L 121.8,278.0 L 126.5,276.3 L 131.2,274.3 L 135.9,272.0 L 140.6,269.3 L 145.3,266.2 L 150.0,262.8 L 154.8,259.1 L 159.5,255.1 L 164.2,250.8 L 168.9,246.3 L 173.6,241.6 L 178.3,236.8 L 183.0,232.0 L 187.7,227.1 L 192.4,222.3 L 197.1,217.7 L 201.8,213.1 L 206.5,208.7 L 211.2,204.5 L 216.0,200.3 L 220.7,196.3 L 225.4,192.4 L 230.1,188.7 L 234.8,185.0 L 239.5,181.4 L 244.2,178.0 L 248.9,174.6 L 253.6,171.3 L 258.3,168.1 L 263.0,165.0 L 267.8,162.0 L 272.5,159.1 L 277.2,156.2 L 281.9,153.5 L 286.6,150.8 L 291.3,148.1 L 296.0,145.6 L 300.7,143.1 L 305.4,140.7 L 310.1,138.3 L 314.8,136.1 L 319.5,133.9 L 324.2,131.7 L 329.0,129.7 L 333.7,127.7 L 338.4,125.7 L 343.1,123.8 L 347.8,122.0 L 352.5,120.3 L 357.2,118.6 L 361.9,116.9 L 366.6,115.4 L 371.3,113.9 L 376.0,112.4 L 380.8,111.0 L 385.5,109.7 L 390.2,108.4 L 394.9,107.1 L 399.6,106.0 L 404.3,104.8 L 409.0,103.8 L 413.7,102.7 L 418.4,101.8 L 423.1,100.9 L 427.8,100.0 L 432.5,99.2 L 437.2,98.4 L 442.0,97.7 L 446.7,97.0 L 451.4,96.3 L 456.1,95.8 L 460.8,95.2 L 465.5,94.7 L 470.2,94.2 L 474.9,93.8 L 479.6,93.4 L 484.3,93.0 L 489.0,92.6 L 493.8,92.3 L 498.5,92.0 L 503.2,91.8 L 507.9,91.5 L 512.6,91.2 L 517.3,91.0 L 522.0,90.7 L 526.7,90.5 L 531.4,90.2 L 536.1,89.9 L 540.8,89.6 L 545.5,89.2 L 550.2,88.7 L 555.0,88.2 L 559.7,87.6 L 564.4,86.9 L 569.1,86.1 L 573.8,85.2 L 578.5,84.3 L 583.2,83.5 L 587.9,83.1 L 592.6,83.2 L 597.3,84.2 L 602.0,86.2 L 606.8,89.4 L 611.5,93.6 L 616.2,98.5 L 620.9,103.8 L 625.6,109.2 L 630.3,114.6 L 635.0,119.7" class="fw"/>
<line x1="82.70105178306264" y1="295.2288532593392" x2="82.70105178306264" y2="331.3603399643242" class="err"/>
<line x1="79.70105178306264" y1="295.2288532593392" x2="85.70105178306264" y2="295.2288532593392" class="err"/>
<line x1="79.70105178306264" y1="331.3603399643242" x2="85.70105178306264" y2="331.3603399643242" class="err"/>
<circle cx="82.70105178306264" cy="313.2945966118317" r="2.5" class="obs"/>
<line x1="100.35861157902775" y1="268.13023823060036" x2="100.35861157902775" y2="304.8846816029128" class="err"/>
<line x1="97.35861157902775" y1="268.13023823060036" x2="103.35861157902775" y2="268.13023823060036" class="err"/>
<line x1="97.35861157902775" y1="304.8846816029128" x2="103.35861157902775" y2="304.8846816029128" class="err"/>
<circle cx="100.35861157902775" cy="286.5074599167566" r="2.5" class="obs"/>
<line x1="125.14115164354021" y1="265.87202031153885" x2="125.14115164354021" y2="296.2411578437461" class="err"/>
<line x1="122.14115164354021" y1="265.87202031153885" x2="128.1411516435402" y2="265.87202031153885" class="err"/>
<line x1="122.14115164354021" y1="296.2411578437461" x2="128.1411516435402" y2="296.2411578437461" class="err"/>
<circle cx="125.14115164354021" cy="281.05658907764246" r="2.5" class="obs"/>
<line x1="153.33129096692312" y1="251.77762571325803" x2="153.33129096692312" y2="267.6630207301049" class="err"/>
<line x1="150.33129096692312" y1="251.77762571325803" x2="156.33129096692312" y2="251.77762571325803" class="err"/>
<line x1="150.33129096692312" y1="267.6630207301049" x2="156.33129096692312" y2="267.6630207301049" class="err"/>
<circle cx="153.33129096692312" cy="259.72032322168144" r="2.5" class="obs"/>
<line x1="174.08666827095232" y1="229.8806988567024" x2="174.08666827095232" y2="245.64150254008382" class="err"/>
<line x1="171.08666827095232" y1="229.8806988567024" x2="177.08666827095232" y2="229.8806988567024" class="err"/>
<line x1="171.08666827095232" y1="245.64150254008382" x2="177.08666827095232" y2="245.64150254008382" class="err"/>
<circle cx="174.08666827095232" cy="237.7611006983931" r="2.5" class="obs"/>
<line x1="205.9941886040121" y1="197.81400440602818" x2="205.9941886040121" y2="214.47809525703417" class="err"/>
<line x1="202.9941886040121" y1="197.81400440602818" x2="208.9941886040121" y2="197.81400440602818" class="err"/>
<line x1="202.9941886040121" y1="214.47809525703417" x2="208.9941886040121" y2="214.47809525703417" class="err"/>
<circle cx="205.9941886040121" cy="206.14604983153117" r="2.5" class="obs"/>
<line x1="245.02668920561925" y1="174.31296413110468" x2="245.02668920561925" y2="194.37216881904467" class="err"/>
<line x1="242.02668920561925" y1="174.31296413110468" x2="248.02668920561925" y2="174.31296413110468" class="err"/>
<line x1="242.02668920561925" y1="194.37216881904467" x2="248.02668920561925" y2="194.37216881904467" class="err"/>
<circle cx="245.02668920561925" cy="184.34256647507465" r="2.5" class="obs"/>
<line x1="266.4016300112612" y1="145.25203560028478" x2="266.4016300112612" y2="173.59656396367822" class="err"/>
<line x1="263.4016300112612" y1="145.25203560028478" x2="269.4016300112612" y2="145.25203560028478" class="err"/>
<line x1="263.4016300112612" y1="173.59656396367822" x2="269.4016300112612" y2="173.59656396367822" class="err"/>
<circle cx="266.4016300112612" cy="159.42429978198152" r="2.5" class="obs"/>
<line x1="283.4396263056135" y1="143.4610351817187" x2="283.4396263056135" y2="159.8136476990611" class="err"/>
<line x1="280.4396263056135" y1="143.4610351817187" x2="286.4396263056135" y2="143.4610351817187" class="err"/>
<line x1="280.4396263056135" y1="159.8136476990611" x2="286.4396263056135" y2="159.8136476990611" class="err"/>
<circle cx="283.4396263056135" cy="151.6373414403899" r="2.5" class="obs"/>
<line x1="328.35798017254234" y1="118.62063807204149" x2="328.35798017254234" y2="131.70272808591537" class="err"/>
<line x1="325.35798017254234" y1="118.62063807204149" x2="331.35798017254234" y2="118.62063807204149" class="err"/>
<line x1="325.35798017254234" y1="131.70272808591537" x2="331.35798017254234" y2="131.70272808591537" class="err"/>
<circle cx="328.35798017254234" cy="125.16168307897843" r="2.5" class="obs"/>
<line x1="381.0208778096313" y1="106.03691339202945" x2="381.0208778096313" y2="116.25340273619764" class="err"/>
<line x1="378.0208778096313" y1="106.03691339202945" x2="384.0208778096313" y2="106.03691339202945" class="err"/>
<line x1="378.0208778096313" y1="116.25340273619764" x2="384.0208778096313" y2="116.25340273619764" class="err"/>
<circle cx="381.0208778096313" cy="111.14515806411355" r="2.5" class="obs"/>
<line x1="430.89573968946263" y1="96.49010246523812" x2="430.89573968946263" y2="103.99673030653244" class="err"/>
<line x1="427.89573968946263" y1="96.49010246523812" x2="433.89573968946263" y2="96.49010246523812" class="err"/>
<line x1="427.89573968946263" y1="103.99673030653244" x2="433.89573968946263" y2="103.99673030653244" class="err"/>
<circle cx="430.89573968946263" cy="100.24341638588527" r="2.5" class="obs"/>
<line x1="483.868419077358" y1="89.06134420735972" x2="483.868419077358" y2="95.85157188122763" class="err"/>
<line x1="480.868419077358" y1="89.06134420735972" x2="486.868419077358" y2="89.06134420735972" class="err"/>
<line x1="480.868419077358" y1="95.85157188122763" x2="486.868419077358" y2="95.85157188122763" class="err"/>
<circle cx="483.868419077358" cy="92.45645804429367" r="2.5" class="obs"/>
<line x1="536.531316714447" y1="85.8686912873072" x2="536.531316714447" y2="92.81465812800687" class="err"/>
<line x1="533.531316714447" y1="85.8686912873072" x2="539.531316714447" y2="85.8686912873072" class="err"/>
<line x1="533.531316714447" y1="92.81465812800687" x2="539.531316714447" y2="92.81465812800687" class="err"/>
<circle cx="536.531316714447" cy="89.34167470765703" r="2.5" class="obs"/>
<line x1="586.4061785942783" y1="84.6227779526525" x2="586.4061785942783" y2="90.94578812602492" class="err"/>
<line x1="583.4061785942783" y1="84.6227779526525" x2="589.4061785942783" y2="84.6227779526525" class="err"/>
<line x1="583.4061785942783" y1="90.94578812602492" x2="589.4061785942783" y2="90.94578812602492" class="err"/>
<circle cx="586.4061785942783" cy="87.78428303933869" r="2.5" class="obs"/>
<g class="legend">
<line x1="82" y1="69" x2="106" y2="69" class="fw"/>
<text x="112" y="73" class="lbl-l">framework fit</text>
<line x1="82" y1="87" x2="106" y2="87" class="nt"/>
<text x="112" y="91" class="lbl-l">Newtonian (no halo)</text>
<circle cx="94" cy="105" r="2.5" class="obs"/>
<text x="112" y="109" class="lbl">observed V±err</text>
</g>
<g class="legend">
<line x1="460" y1="69" x2="484" y2="69" class="rho"/>
<text x="490" y="73" class="lbl-r">ρ(r) raw</text>
<line x1="460" y1="87" x2="484" y2="87" class="sig"/>
<text x="490" y="91" class="lbl-r">Σ(r) smoothed</text>
<text x="460" y="113" class="lbl-r">ρ peak: 495 M☉/pc²</text>
</g>
</svg>