<svg xmlns="http://www.w3.org/2000/svg" viewBox="0 0 720 420" width="720" height="420" font-family="sans-serif" font-size="12">
<style>
  .ax { stroke: #333; stroke-width: 1; fill: none; }
  .grid { stroke: #ddd; stroke-width: 0.5; fill: none; }
  .lbl { fill: #333; }
  .lbl-l { fill: #0066cc; }
  .lbl-r { fill: #b03030; }
  .obs { fill: #222; }
  .err { stroke: #555; stroke-width: 0.8; fill: none; }
  .fw { stroke: #0066cc; stroke-width: 2.2; fill: none; }
  .nt { stroke: #cc6600; stroke-width: 1.6; fill: none; stroke-dasharray: 5,3; }
  .rho { stroke: #b03030; stroke-width: 2.0; fill: none; }
  .sig { stroke: #b03030; stroke-width: 1.6; fill: none; stroke-dasharray: 4,2; opacity: 0.85; }
  .title { fill: #111; font-size: 16px; font-weight: 600; }
  .subtitle { fill: #555; font-size: 11px; }
  .legend { font-size: 11px; }
</style>
<text x="360.0" y="22" text-anchor="middle" class="title">ESO444-G084</text>
<text x="360.0" y="38" text-anchor="middle" class="subtitle">rMax=4.4 kpc, N=7, RMS=0.4 km/s (0.9%), amp=104</text>
<line x1="70" y1="365.0" x2="635" y2="365.0" class="grid"/>
<text x="64" y="369.0" text-anchor="end" class="lbl-l">0</text>
<line x1="70" y1="303.0" x2="635" y2="303.0" class="grid"/>
<text x="64" y="307.0" text-anchor="end" class="lbl-l">15</text>
<line x1="70" y1="241.00000000000003" x2="635" y2="241.00000000000003" class="grid"/>
<text x="64" y="245.00000000000003" text-anchor="end" class="lbl-l">31</text>
<line x1="70" y1="179.0" x2="635" y2="179.0" class="grid"/>
<text x="64" y="183.0" text-anchor="end" class="lbl-l">46</text>
<line x1="70" y1="117.00000000000003" x2="635" y2="117.00000000000003" class="grid"/>
<text x="64" y="121.00000000000003" text-anchor="end" class="lbl-l">62</text>
<line x1="70" y1="55.0" x2="635" y2="55.0" class="grid"/>
<text x="64" y="59.0" text-anchor="end" class="lbl-l">77</text>
<text x="641" y="369.0" text-anchor="start" class="lbl-r">0.0</text>
<text x="641" y="327.6666666666667" text-anchor="start" class="lbl-r">0.2</text>
<text x="641" y="286.33333333333337" text-anchor="start" class="lbl-r">0.4</text>
<text x="641" y="245.00000000000003" text-anchor="start" class="lbl-r">0.6</text>
<text x="641" y="203.66666666666666" text-anchor="start" class="lbl-r">0.8</text>
<text x="641" y="162.33333333333334" text-anchor="start" class="lbl-r">1.0</text>
<line x1="70.0" y1="55" x2="70.0" y2="365" class="grid"/>
<text x="70.0" y="381" text-anchor="middle" class="lbl">0.0</text>
<line x1="164.16666666666666" y1="55" x2="164.16666666666666" y2="365" class="grid"/>
<text x="164.16666666666666" y="381" text-anchor="middle" class="lbl">0.7</text>
<line x1="258.3333333333333" y1="55" x2="258.3333333333333" y2="365" class="grid"/>
<text x="258.3333333333333" y="381" text-anchor="middle" class="lbl">1.5</text>
<line x1="352.5" y1="55" x2="352.5" y2="365" class="grid"/>
<text x="352.5" y="381" text-anchor="middle" class="lbl">2.2</text>
<line x1="446.66666666666663" y1="55" x2="446.66666666666663" y2="365" class="grid"/>
<text x="446.66666666666663" y="381" text-anchor="middle" class="lbl">3.0</text>
<line x1="540.8333333333334" y1="55" x2="540.8333333333334" y2="365" class="grid"/>
<text x="540.8333333333334" y="381" text-anchor="middle" class="lbl">3.7</text>
<line x1="635.0" y1="55" x2="635.0" y2="365" class="grid"/>
<text x="635.0" y="381" text-anchor="middle" class="lbl">4.5</text>
<text x="352.5" y="408" text-anchor="middle" class="lbl">radius (kpc)</text>
<text x="16" y="210.0" text-anchor="middle" class="lbl-l" transform="rotate(-90, 16, 210.0)">velocity (km/s)</text>
<text x="704" y="210.0" text-anchor="middle" class="lbl-r" transform="rotate(-90, 704, 210.0)">mass profile (normalized to peak)</text>
<rect x="70" y="55" width="565" height="310" class="ax"/>
<path d="M 70.0,158.3 L 72.6,165.8 L 75.2,173.2 L 77.7,180.7 L 80.3,188.1 L 82.9,195.6 L 85.5,203.0 L 88.1,210.4 L 90.6,217.9 L 93.2,225.3 L 95.8,232.8 L 98.4,240.2 L 101.0,240.4 L 103.5,240.6 L 106.1,240.8 L 108.7,241.0 L 111.3,241.2 L 113.9,241.4 L 116.4,241.7 L 119.0,241.9 L 121.6,242.1 L 124.2,242.3 L 126.8,242.5 L 129.3,242.7 L 131.9,242.9 L 134.5,243.1 L 137.1,243.4 L 139.7,243.6 L 142.2,243.8 L 144.8,244.0 L 147.4,244.2 L 150.0,244.4 L 152.6,244.6 L 155.1,244.8 L 157.7,245.1 L 160.3,245.3 L 162.9,245.5 L 165.5,245.7 L 168.0,245.9 L 170.6,246.1 L 173.2,246.3 L 175.8,246.5 L 178.4,246.7 L 180.9,247.0 L 183.5,247.2 L 186.1,247.4 L 188.7,248.5 L 191.3,249.7 L 193.8,251.0 L 196.4,252.3 L 199.0,253.5 L 201.6,254.8 L 204.2,256.0 L 206.7,257.3 L 209.3,258.6 L 211.9,259.8 L 214.5,261.1 L 217.1,262.1 L 219.6,262.5 L 222.2,262.8 L 224.8,263.1 L 227.4,263.5 L 230.0,263.8 L 232.5,264.1 L 235.1,264.5 L 237.7,264.8 L 240.3,265.1 L 242.9,265.5 L 245.4,265.8 L 248.0,266.2 L 250.6,266.5 L 253.2,266.8 L 255.8,267.2 L 258.3,267.5 L 260.9,267.8 L 263.5,268.2 L 266.1,268.5 L 268.7,268.8 L 271.2,269.2 L 273.8,269.5 L 276.4,269.9 L 279.0,270.2 L 281.6,270.5 L 284.1,270.9 L 286.7,271.2 L 289.3,271.5 L 291.9,271.9 L 294.5,272.2 L 297.0,272.5 L 299.6,272.9 L 302.2,273.2 L 304.8,273.6 L 307.4,273.9 L 309.9,274.2 L 312.5,274.6 L 315.1,274.9 L 317.7,275.2 L 320.3,275.6 L 322.8,275.9 L 325.4,276.2 L 328.0,276.6 L 330.6,276.9 L 333.2,277.3 L 335.7,277.6 L 338.3,277.9 L 340.9,278.3 L 343.5,278.6 L 346.1,278.9 L 348.6,279.3 L 351.2,279.6 L 353.8,279.9 L 356.4,280.3 L 358.9,280.6 L 361.5,281.0 L 364.1,281.3 L 366.7,281.6 L 369.3,282.0 L 371.8,282.3 L 374.4,282.6 L 377.0,283.0 L 379.6,283.3 L 382.2,283.6 L 384.7,284.0 L 387.3,284.3 L 389.9,284.6 L 392.5,285.0 L 395.1,285.3 L 397.6,285.7 L 400.2,286.0 L 402.8,286.3 L 405.4,286.7 L 408.0,287.0 L 410.5,287.3 L 413.1,287.7 L 415.7,288.0 L 418.3,288.3 L 420.9,288.7 L 423.4,289.0 L 426.0,289.4 L 428.6,289.7 L 431.2,290.0 L 433.8,290.4 L 436.3,290.7 L 438.9,291.0 L 441.5,291.4 L 444.1,291.7 L 446.7,292.0 L 449.2,292.4 L 451.8,292.7 L 454.4,293.1 L 457.0,293.4 L 459.6,293.7 L 462.1,294.1 L 464.7,294.4 L 467.3,294.7 L 469.9,295.1 L 472.5,295.4 L 475.0,295.7 L 477.6,296.1 L 480.2,296.4 L 482.8,296.8 L 485.4,297.1 L 487.9,297.4 L 490.5,297.8 L 493.1,298.1 L 495.7,298.4 L 498.3,298.8 L 500.8,299.1 L 503.4,299.4 L 506.0,299.8 L 508.6,300.1 L 511.2,300.5 L 513.7,300.8 L 516.3,301.1 L 518.9,301.5 L 521.5,301.8 L 524.1,302.1 L 526.6,302.5 L 529.2,302.8 L 531.8,303.1 L 534.4,303.5 L 537.0,303.8 L 539.5,304.2 L 542.1,304.5 L 544.7,304.8 L 547.3,305.2 L 549.9,305.5 L 552.4,305.8 L 555.0,306.2 L 557.6,306.5 L 560.2,306.8 L 562.8,307.2 L 565.3,307.5 L 567.9,307.8 L 570.5,308.2 L 573.1,308.5 L 575.7,308.9 L 578.2,309.2 L 580.8,309.5 L 583.4,309.9 L 586.0,310.2 L 588.6,310.5 L 591.1,310.9 L 593.7,311.2 L 596.3,318.6 L 598.9,328.8 L 601.5,338.9 L 604.0,349.1 L 606.6,359.2 L 609.2,365.0 L 611.8,365.0 L 614.4,365.0 L 616.9,365.0 L 619.5,365.0 L 622.1,365.0 L 624.7,365.0 L 627.3,365.0 L 629.8,365.0 L 632.4,365.0 L 635.0,365.0" class="rho"/>
<path d="M 70.0,158.3 L 72.6,158.5 L 75.2,158.7 L 77.7,159.0 L 80.3,159.4 L 82.9,160.0 L 85.5,160.6 L 88.1,161.2 L 90.6,161.9 L 93.2,162.7 L 95.8,163.5 L 98.4,164.3 L 101.0,165.1 L 103.5,165.9 L 106.1,166.7 L 108.7,167.5 L 111.3,168.3 L 113.9,169.1 L 116.4,169.9 L 119.0,170.7 L 121.6,171.4 L 124.2,172.2 L 126.8,173.0 L 129.3,173.7 L 131.9,174.5 L 134.5,175.3 L 137.1,176.1 L 139.7,176.9 L 142.2,177.7 L 144.8,178.5 L 147.4,179.3 L 150.0,180.2 L 152.6,181.0 L 155.1,181.9 L 157.7,182.8 L 160.3,183.7 L 162.9,184.6 L 165.5,185.5 L 168.0,186.4 L 170.6,187.4 L 173.2,188.4 L 175.8,189.4 L 178.4,190.4 L 180.9,191.4 L 183.5,192.4 L 186.1,193.5 L 188.7,194.6 L 191.3,195.7 L 193.8,196.8 L 196.4,197.9 L 199.0,199.0 L 201.6,200.1 L 204.2,201.3 L 206.7,202.4 L 209.3,203.5 L 211.9,204.6 L 214.5,205.7 L 217.1,206.9 L 219.6,208.0 L 222.2,209.1 L 224.8,210.1 L 227.4,211.2 L 230.0,212.3 L 232.5,213.3 L 235.1,214.4 L 237.7,215.4 L 240.3,216.5 L 242.9,217.5 L 245.4,218.5 L 248.0,219.5 L 250.6,220.5 L 253.2,221.5 L 255.8,222.5 L 258.3,223.5 L 260.9,224.4 L 263.5,225.4 L 266.1,226.4 L 268.7,227.3 L 271.2,228.3 L 273.8,229.2 L 276.4,230.2 L 279.0,231.1 L 281.6,232.1 L 284.1,233.0 L 286.7,233.9 L 289.3,234.9 L 291.9,235.8 L 294.5,236.7 L 297.0,237.6 L 299.6,238.5 L 302.2,239.5 L 304.8,240.4 L 307.4,241.3 L 309.9,242.2 L 312.5,243.1 L 315.1,244.0 L 317.7,244.8 L 320.3,245.7 L 322.8,246.6 L 325.4,247.5 L 328.0,248.4 L 330.6,249.3 L 333.2,250.1 L 335.7,251.0 L 338.3,251.9 L 340.9,252.7 L 343.5,253.6 L 346.1,254.5 L 348.6,255.3 L 351.2,256.2 L 353.8,257.0 L 356.4,257.9 L 358.9,258.7 L 361.5,259.6 L 364.1,260.4 L 366.7,261.2 L 369.3,262.1 L 371.8,262.9 L 374.4,263.7 L 377.0,264.6 L 379.6,265.4 L 382.2,266.2 L 384.7,267.0 L 387.3,267.8 L 389.9,268.6 L 392.5,269.5 L 395.1,270.3 L 397.6,271.1 L 400.2,271.9 L 402.8,272.7 L 405.4,273.5 L 408.0,274.3 L 410.5,275.0 L 413.1,275.8 L 415.7,276.6 L 418.3,277.4 L 420.9,278.2 L 423.4,279.0 L 426.0,279.7 L 428.6,280.5 L 431.2,281.3 L 433.8,282.0 L 436.3,282.8 L 438.9,283.6 L 441.5,284.3 L 444.1,285.1 L 446.7,285.8 L 449.2,286.6 L 451.8,287.3 L 454.4,288.1 L 457.0,288.8 L 459.6,289.5 L 462.1,290.3 L 464.7,291.0 L 467.3,291.7 L 469.9,292.5 L 472.5,293.2 L 475.0,293.9 L 477.6,294.6 L 480.2,295.4 L 482.8,296.1 L 485.4,296.8 L 487.9,297.5 L 490.5,298.2 L 493.1,298.9 L 495.7,299.6 L 498.3,300.3 L 500.8,301.0 L 503.4,301.7 L 506.0,302.4 L 508.6,303.1 L 511.2,303.8 L 513.7,304.5 L 516.3,305.2 L 518.9,305.9 L 521.5,306.6 L 524.1,307.3 L 526.6,308.0 L 529.2,308.7 L 531.8,309.4 L 534.4,310.1 L 537.0,310.8 L 539.5,311.4 L 542.1,312.1 L 544.7,312.8 L 547.3,313.5 L 549.9,314.2 L 552.4,314.9 L 555.0,315.6 L 557.6,316.3 L 560.2,317.0 L 562.8,317.8 L 565.3,318.5 L 567.9,319.2 L 570.5,319.9 L 573.1,320.6 L 575.7,321.4 L 578.2,322.1 L 580.8,322.9 L 583.4,323.6 L 586.0,324.4 L 588.6,325.1 L 591.1,325.9 L 593.7,326.6 L 596.3,327.4 L 598.9,328.1 L 601.5,328.9 L 604.0,329.6 L 606.6,330.3 L 609.2,331.0 L 611.8,331.7 L 614.4,332.3 L 616.9,333.0 L 619.5,333.6 L 622.1,334.1 L 624.7,334.7 L 627.3,335.3 L 629.8,335.8 L 632.4,336.3 L 635.0,336.8" class="sig"/>
<path d="M 75.7,320.6 L 81.3,303.9 L 87.0,292.5 L 92.6,283.9 L 98.2,277.4 L 103.9,271.7 L 109.6,266.1 L 115.2,260.6 L 120.9,255.3 L 126.5,250.2 L 132.2,245.3 L 137.8,240.5 L 143.4,236.0 L 149.1,231.5 L 154.8,227.3 L 160.4,223.1 L 166.1,219.1 L 171.7,215.2 L 177.3,211.4 L 183.0,207.8 L 188.6,204.2 L 194.3,200.8 L 200.0,197.7 L 205.6,194.7 L 211.2,192.0 L 216.9,189.4 L 222.6,186.9 L 228.2,184.4 L 233.8,182.0 L 239.5,179.6 L 245.2,177.3 L 250.8,175.0 L 256.5,172.8 L 262.1,170.6 L 267.8,168.4 L 273.4,166.3 L 279.1,164.3 L 284.7,162.2 L 290.4,160.3 L 296.0,158.3 L 301.6,156.4 L 307.3,154.5 L 312.9,152.7 L 318.6,150.9 L 324.2,149.1 L 329.9,147.4 L 335.6,145.7 L 341.2,144.0 L 346.9,142.4 L 352.5,140.8 L 358.1,139.2 L 363.8,137.6 L 369.4,136.1 L 375.1,134.7 L 380.7,133.2 L 386.4,131.8 L 392.1,130.4 L 397.7,129.0 L 403.3,127.7 L 409.0,126.4 L 414.6,125.1 L 420.3,123.8 L 425.9,122.6 L 431.6,121.4 L 437.2,120.2 L 442.9,119.0 L 448.6,117.9 L 454.2,116.8 L 459.9,115.7 L 465.5,114.6 L 471.1,113.6 L 476.8,112.6 L 482.4,111.6 L 488.1,110.6 L 493.8,109.7 L 499.4,108.7 L 505.1,107.8 L 510.7,107.0 L 516.4,106.1 L 522.0,105.3 L 527.6,104.5 L 533.3,103.7 L 539.0,102.9 L 544.6,102.1 L 550.2,101.4 L 555.9,100.7 L 561.6,100.0 L 567.2,99.3 L 572.9,98.7 L 578.5,98.0 L 584.1,97.4 L 589.8,96.8 L 595.5,96.3 L 601.1,96.2 L 606.8,97.0 L 612.4,98.4 L 618.0,99.8 L 623.7,101.2 L 629.3,102.5 L 635.0,103.8" class="nt"/>
<path d="M 74.7,347.6 L 79.4,335.6 L 84.1,323.0 L 88.8,312.1 L 93.5,302.9 L 98.2,295.4 L 103.0,289.5 L 107.7,284.6 L 112.4,280.3 L 117.1,276.2 L 121.8,272.2 L 126.5,268.0 L 131.2,263.7 L 135.9,259.2 L 140.6,254.4 L 145.3,249.5 L 150.0,244.4 L 154.8,239.2 L 159.5,233.7 L 164.2,228.2 L 168.9,222.5 L 173.6,216.8 L 178.3,211.0 L 183.0,205.4 L 187.7,200.0 L 192.4,195.0 L 197.1,190.5 L 201.8,186.6 L 206.5,183.4 L 211.2,180.7 L 216.0,178.6 L 220.7,176.8 L 225.4,175.3 L 230.1,174.0 L 234.8,172.7 L 239.5,171.4 L 244.2,170.1 L 248.9,168.7 L 253.6,167.4 L 258.3,165.9 L 263.0,164.5 L 267.8,163.0 L 272.5,161.5 L 277.2,160.0 L 281.9,158.5 L 286.6,157.1 L 291.3,155.6 L 296.0,154.1 L 300.7,152.6 L 305.4,151.1 L 310.1,149.7 L 314.8,148.3 L 319.5,146.9 L 324.2,145.5 L 329.0,144.1 L 333.7,142.8 L 338.4,141.5 L 343.1,140.2 L 347.8,138.9 L 352.5,137.7 L 357.2,136.5 L 361.9,135.3 L 366.6,134.2 L 371.3,133.1 L 376.0,132.0 L 380.7,130.9 L 385.5,129.9 L 390.2,128.8 L 394.9,127.9 L 399.6,126.9 L 404.3,126.0 L 409.0,125.0 L 413.7,124.2 L 418.4,123.3 L 423.1,122.5 L 427.8,121.6 L 432.5,120.8 L 437.2,120.1 L 442.0,119.3 L 446.7,118.5 L 451.4,117.8 L 456.1,117.1 L 460.8,116.4 L 465.5,115.6 L 470.2,114.9 L 474.9,114.2 L 479.6,113.5 L 484.3,112.8 L 489.0,112.0 L 493.8,111.3 L 498.5,110.5 L 503.2,109.6 L 507.9,108.7 L 512.6,107.8 L 517.3,106.8 L 522.0,105.7 L 526.7,104.5 L 531.4,103.2 L 536.1,101.8 L 540.8,100.2 L 545.5,98.4 L 550.2,96.4 L 555.0,94.2 L 559.7,91.7 L 564.4,89.0 L 569.1,86.1 L 573.8,83.0 L 578.5,79.9 L 583.2,77.2 L 587.9,75.2 L 592.6,74.3 L 597.3,75.1 L 602.0,77.6 L 606.8,81.7 L 611.5,87.4 L 616.2,94.0 L 620.9,101.1 L 625.6,108.4 L 630.3,115.6 L 635.0,122.5" class="fw"/>
<line x1="102.68330094275649" y1="284.14722445695895" x2="102.68330094275649" y2="298.6283185840708" class="err"/>
<line x1="99.68330094275649" y1="284.14722445695895" x2="105.68330094275649" y2="284.14722445695895" class="err"/>
<line x1="99.68330094275649" y1="298.6283185840708" x2="105.68330094275649" y2="298.6283185840708" class="err"/>
<circle cx="102.68330094275649" cy="291.3877715205149" r="2.5" class="obs"/>
<line x1="166.79285279200957" y1="210.93724859211585" x2="166.79285279200957" y2="235.07240547063557" class="err"/>
<line x1="163.79285279200957" y1="210.93724859211585" x2="169.79285279200957" y2="210.93724859211585" class="err"/>
<line x1="163.79285279200957" y1="235.07240547063557" x2="169.79285279200957" y2="235.07240547063557" class="err"/>
<circle cx="166.79285279200957" cy="223.00482703137573" r="2.5" class="obs"/>
<line x1="232.15945467752255" y1="154.09895414320195" x2="232.15945467752255" y2="191.34754625905072" class="err"/>
<line x1="229.15945467752255" y1="154.09895414320195" x2="235.15945467752255" y2="154.09895414320195" class="err"/>
<line x1="229.15945467752255" y1="191.34754625905072" x2="235.15945467752255" y2="191.34754625905072" class="err"/>
<circle cx="232.15945467752255" cy="172.72325020112632" r="2.5" class="obs"/>
<line x1="297.5260565630355" y1="147.54223652453743" x2="297.5260565630355" y2="157.67900241351572" class="err"/>
<line x1="294.5260565630355" y1="147.54223652453743" x2="300.5260565630355" y2="147.54223652453743" class="err"/>
<line x1="294.5260565630355" y1="157.67900241351572" x2="300.5260565630355" y2="157.67900241351572" class="err"/>
<circle cx="297.5260565630355" cy="152.61061946902657" r="2.5" class="obs"/>
<line x1="361.6356084122886" y1="119.18342719227675" x2="361.6356084122886" y2="144.20353982300884" class="err"/>
<line x1="358.6356084122886" y1="119.18342719227675" x2="364.6356084122886" y2="119.18342719227675" class="err"/>
<line x1="358.6356084122886" y1="144.20353982300884" x2="364.6356084122886" y2="144.20353982300884" class="err"/>
<circle cx="361.6356084122886" cy="131.69348350764278" r="2.5" class="obs"/>
<line x1="496.13996229209414" y1="105.7481898632341" x2="496.13996229209414" y2="116.60901045856798" class="err"/>
<line x1="493.13996229209414" y1="105.7481898632341" x2="499.13996229209414" y2="105.7481898632341" class="err"/>
<line x1="493.13996229209414" y1="116.60901045856798" x2="499.13996229209414" y2="116.60901045856798" class="err"/>
<circle cx="496.13996229209414" cy="111.17860016090106" r="2.5" class="obs"/>
<line x1="628.1302160993799" y1="83.18181818181819" x2="628.1302160993799" y2="142.39340305711988" class="err"/>
<line x1="625.1302160993799" y1="83.18181818181819" x2="631.1302160993799" y2="83.18181818181819" class="err"/>
<line x1="625.1302160993799" y1="142.39340305711988" x2="631.1302160993799" y2="142.39340305711988" class="err"/>
<circle cx="628.1302160993799" cy="112.78761061946902" r="2.5" class="obs"/>
<g class="legend">
<line x1="82" y1="69" x2="106" y2="69" class="fw"/>
<text x="112" y="73" class="lbl-l">framework fit</text>
<line x1="82" y1="87" x2="106" y2="87" class="nt"/>
<text x="112" y="91" class="lbl-l">Newtonian (no halo)</text>
<circle cx="94" cy="105" r="2.5" class="obs"/>
<text x="112" y="109" class="lbl">observed V±err</text>
</g>
<g class="legend">
<line x1="460" y1="69" x2="484" y2="69" class="rho"/>
<text x="490" y="73" class="lbl-r">ρ(r) raw</text>
<line x1="460" y1="87" x2="484" y2="87" class="sig"/>
<text x="490" y="91" class="lbl-r">Σ(r) smoothed</text>
<text x="460" y="113" class="lbl-r">ρ peak: 212 M☉/pc²</text>
</g>
</svg>