<svg xmlns="http://www.w3.org/2000/svg" viewBox="0 0 960 450" width="960" height="450" font-family="sans-serif" font-size="12">
<style>
  .ax { stroke: #333; stroke-width: 1; fill: none; }
  .grid { stroke: #ddd; stroke-width: 0.5; fill: none; }
  .lbl { fill: #333; }
  .lbl-l { fill: #0066cc; }
  .lbl-r { fill: #b03030; }
  .obs { fill: #222; }
  .err { stroke: #555; stroke-width: 0.8; fill: none; }
  .fw { stroke: #0066cc; stroke-width: 2.2; fill: none; }
  .nt { stroke: #cc6600; stroke-width: 1.6; fill: none; stroke-dasharray: 5,3; }
  .mond { stroke: #7b2cbf; stroke-width: 1.8; fill: none; stroke-dasharray: 7,3; }
  .lbl-p { fill: #cc7000; }
  .lbl-m { fill: #7b2cbf; }
  .rho { stroke: #b03030; stroke-width: 2.0; fill: none; }
  .phot { stroke: #cc7000; stroke-width: 1.8; fill: none; }
  .mbar { stroke: #8e44ad; stroke-width: 1.8; fill: none; opacity: 0.9; }
  .mph { stroke: #c77dff; stroke-width: 1.6; fill: none; stroke-dasharray: 4,3; opacity: 0.95; }
  .remap-x { stroke: #cc2222; stroke-width: 1.5; fill: none; }
  .remap-link { stroke: #cc2222; stroke-width: 0.8; stroke-dasharray: 3,3; fill: none; opacity: 0.7; }
  .title { fill: #111; font-size: 16px; font-weight: 600; }
  .subtitle { fill: #555; font-size: 11px; }
  .preview-bg { fill: #000; }
  .preview-lbl { fill: #888; font-size: 10px; }
  .legend { font-size: 11px; }
</style>
<text x="378.5" y="22" text-anchor="middle" class="title">ESO444-G084</text>
<text x="378.5" y="38" text-anchor="middle" class="subtitle">rMax=4.4 kpc, N=7, FW=0.4 km/s, 1.2%, 0.17σ, MOND=10.5 km/s, 18.7%, 5.27σ, amp=104</text>
<line x1="70" y1="395.0" x2="687" y2="395.0" class="grid"/>
<text x="64" y="399.0" text-anchor="end" class="lbl-l">0</text>
<line x1="70" y1="327.0" x2="687" y2="327.0" class="grid"/>
<text x="64" y="331.0" text-anchor="end" class="lbl-l">15</text>
<line x1="70" y1="259.0" x2="687" y2="259.0" class="grid"/>
<text x="64" y="263.0" text-anchor="end" class="lbl-l">31</text>
<line x1="70" y1="191.0" x2="687" y2="191.0" class="grid"/>
<text x="64" y="195.0" text-anchor="end" class="lbl-l">46</text>
<line x1="70" y1="123.0" x2="687" y2="123.0" class="grid"/>
<text x="64" y="127.0" text-anchor="end" class="lbl-l">62</text>
<line x1="70" y1="55.0" x2="687" y2="55.0" class="grid"/>
<text x="64" y="59.0" text-anchor="end" class="lbl-l">77</text>
<text x="693" y="399.0" text-anchor="start" class="lbl-r">0.0</text>
<text x="693" y="353.7" text-anchor="start" class="lbl-r">0.2</text>
<text x="693" y="308.3" text-anchor="start" class="lbl-r">0.4</text>
<text x="693" y="263.0" text-anchor="start" class="lbl-r">0.6</text>
<text x="693" y="217.7" text-anchor="start" class="lbl-r">0.8</text>
<text x="693" y="172.3" text-anchor="start" class="lbl-r">1.0</text>
<line x1="70.0" y1="55" x2="70.0" y2="395" class="grid"/>
<text x="70.0" y="411" text-anchor="middle" class="lbl">0.0</text>
<line x1="172.8" y1="55" x2="172.8" y2="395" class="grid"/>
<text x="172.8" y="411" text-anchor="middle" class="lbl">0.7</text>
<line x1="275.7" y1="55" x2="275.7" y2="395" class="grid"/>
<text x="275.7" y="411" text-anchor="middle" class="lbl">1.5</text>
<line x1="378.5" y1="55" x2="378.5" y2="395" class="grid"/>
<text x="378.5" y="411" text-anchor="middle" class="lbl">2.2</text>
<line x1="481.3" y1="55" x2="481.3" y2="395" class="grid"/>
<text x="481.3" y="411" text-anchor="middle" class="lbl">3.0</text>
<line x1="584.2" y1="55" x2="584.2" y2="395" class="grid"/>
<text x="584.2" y="411" text-anchor="middle" class="lbl">3.7</text>
<line x1="687.0" y1="55" x2="687.0" y2="395" class="grid"/>
<text x="687.0" y="411" text-anchor="middle" class="lbl">4.5</text>
<text x="378.5" y="438" text-anchor="middle" class="lbl">radius (kpc)</text>
<text x="16" y="225" text-anchor="middle" class="lbl-l" transform="rotate(-90, 16, 225)">velocity (km/s)</text>
<text x="724" y="225" text-anchor="middle" class="lbl-r" transform="rotate(-90, 724, 225)">profiles (normalized to peak)</text>
<rect x="70" y="55" width="617" height="340" class="ax"/>
<path d="M 70.0,168.3 L 72.8,176.5 L 75.6,184.7 L 78.5,192.8 L 81.3,201.0 L 84.1,209.2 L 86.9,217.3 L 89.7,225.5 L 92.5,233.6 L 95.4,241.8 L 98.2,250.0 L 101.0,258.1 L 103.8,258.3 L 106.6,258.6 L 109.4,258.8 L 112.3,259.0 L 115.1,259.3 L 117.9,259.5 L 120.7,259.7 L 123.5,260.0 L 126.3,260.2 L 129.2,260.4 L 132.0,260.7 L 134.8,260.9 L 137.6,261.1 L 140.4,261.3 L 143.3,261.6 L 146.1,261.8 L 148.9,262.0 L 151.7,262.3 L 154.5,262.5 L 157.3,262.7 L 160.2,263.0 L 163.0,263.2 L 165.8,263.4 L 168.6,263.7 L 171.4,263.9 L 174.2,264.1 L 177.1,264.4 L 179.9,264.6 L 182.7,264.8 L 185.5,265.1 L 188.3,265.3 L 191.1,265.5 L 194.0,265.8 L 196.8,266.0 L 199.6,267.2 L 202.4,268.6 L 205.2,270.0 L 208.1,271.3 L 210.9,272.7 L 213.7,274.1 L 216.5,275.5 L 219.3,276.9 L 222.1,278.3 L 225.0,279.6 L 227.8,281.0 L 230.6,282.2 L 233.4,282.5 L 236.2,282.9 L 239.0,283.3 L 241.9,283.6 L 244.7,284.0 L 247.5,284.4 L 250.3,284.7 L 253.1,285.1 L 255.9,285.5 L 258.8,285.9 L 261.6,286.2 L 264.4,286.6 L 267.2,287.0 L 270.0,287.3 L 272.8,287.7 L 275.7,288.1 L 278.5,288.4 L 281.3,288.8 L 284.1,289.2 L 286.9,289.5 L 289.8,289.9 L 292.6,290.3 L 295.4,290.6 L 298.2,291.0 L 301.0,291.4 L 303.8,291.8 L 306.7,292.1 L 309.5,292.5 L 312.3,292.9 L 315.1,293.2 L 317.9,293.6 L 320.7,294.0 L 323.6,294.3 L 326.4,294.7 L 329.2,295.1 L 332.0,295.4 L 334.8,295.8 L 337.6,296.2 L 340.5,296.5 L 343.3,296.9 L 346.1,297.3 L 348.9,297.7 L 351.7,298.0 L 354.6,298.4 L 357.4,298.8 L 360.2,299.1 L 363.0,299.5 L 365.8,299.9 L 368.6,300.2 L 371.5,300.6 L 374.3,301.0 L 377.1,301.3 L 379.9,301.7 L 382.7,302.1 L 385.5,302.4 L 388.4,302.8 L 391.2,303.2 L 394.0,303.6 L 396.8,303.9 L 399.6,304.3 L 402.4,304.7 L 405.3,305.0 L 408.1,305.4 L 410.9,305.8 L 413.7,306.1 L 416.5,306.5 L 419.4,306.9 L 422.2,307.2 L 425.0,307.6 L 427.8,308.0 L 430.6,308.3 L 433.4,308.7 L 436.3,309.1 L 439.1,309.5 L 441.9,309.8 L 444.7,310.2 L 447.5,310.6 L 450.3,310.9 L 453.2,311.3 L 456.0,311.7 L 458.8,312.0 L 461.6,312.4 L 464.4,312.8 L 467.2,313.1 L 470.1,313.5 L 472.9,313.9 L 475.7,314.2 L 478.5,314.6 L 481.3,315.0 L 484.2,315.4 L 487.0,315.7 L 489.8,316.1 L 492.6,316.5 L 495.4,316.8 L 498.2,317.2 L 501.1,317.6 L 503.9,317.9 L 506.7,318.3 L 509.5,318.7 L 512.3,319.0 L 515.1,319.4 L 518.0,319.8 L 520.8,320.1 L 523.6,320.5 L 526.4,320.9 L 529.2,321.3 L 532.0,321.6 L 534.9,322.0 L 537.7,322.4 L 540.5,322.7 L 543.3,323.1 L 546.1,323.5 L 548.9,323.8 L 551.8,324.2 L 554.6,324.6 L 557.4,324.9 L 560.2,325.3 L 563.0,325.7 L 565.9,326.0 L 568.7,326.4 L 571.5,326.8 L 574.3,327.2 L 577.1,327.5 L 579.9,327.9 L 582.8,328.3 L 585.6,328.6 L 588.4,329.0 L 591.2,329.4 L 594.0,329.7 L 596.8,330.1 L 599.7,330.5 L 602.5,330.8 L 605.3,331.2 L 608.1,331.6 L 610.9,331.9 L 613.7,332.3 L 616.6,332.7 L 619.4,333.1 L 622.2,333.4 L 625.0,333.8 L 627.8,334.2 L 630.7,334.5 L 633.5,334.9 L 636.3,335.3 L 639.1,335.6 L 641.9,336.0 L 644.7,344.1 L 647.6,355.3 L 650.4,366.4 L 653.2,377.5 L 656.0,388.6 L 658.8,395.0 L 661.6,395.0 L 664.5,395.0 L 667.3,395.0 L 670.1,395.0 L 672.9,395.0 L 675.7,395.0 L 678.5,395.0 L 681.4,395.0 L 684.2,395.0 L 687.0,395.0" class="rho"/>
<path d="M 105.7,168.3 L 175.7,319.4 L 247.1,371.2 L 318.5,387.5 L 388.5,392.5 L 535.4,394.8 L 679.5,395.0" class="phot"/>
<path d="M 105.7,203.7 L 175.7,168.3 L 247.1,178.8 L 318.5,230.2 L 388.5,297.1 L 535.4,362.8 L 679.5,392.3" class="mbar"/>
<path d="M 105.7,184.7 L 175.7,168.3 L 247.1,172.5 L 318.5,196.5 L 388.5,235.6 L 535.4,289.1 L 679.5,327.8" class="mph"/>
<path d="M 76.2,346.3 L 82.3,328.0 L 88.5,315.4 L 94.7,306.0 L 100.8,298.9 L 107.0,292.7 L 113.2,286.5 L 119.4,280.5 L 125.5,274.7 L 131.7,269.1 L 137.9,263.7 L 144.0,258.5 L 150.2,253.5 L 156.4,248.6 L 162.6,243.9 L 168.7,239.4 L 174.9,235.0 L 181.1,230.7 L 187.2,226.6 L 193.4,222.6 L 199.6,218.6 L 205.7,215.0 L 211.9,211.5 L 218.1,208.3 L 224.3,205.2 L 230.4,202.4 L 236.6,199.6 L 242.8,196.9 L 248.9,194.3 L 255.1,191.7 L 261.3,189.1 L 267.4,186.6 L 273.6,184.2 L 279.8,181.8 L 286.0,179.4 L 292.1,177.1 L 298.3,174.8 L 304.5,172.6 L 310.6,170.4 L 316.8,168.3 L 323.0,166.2 L 329.1,164.1 L 335.3,162.1 L 341.5,160.1 L 347.6,158.2 L 353.8,156.3 L 360.0,154.4 L 366.2,152.6 L 372.3,150.8 L 378.5,149.1 L 384.7,147.3 L 390.8,145.6 L 397.0,144.0 L 403.2,142.4 L 409.3,140.8 L 415.5,139.2 L 421.7,137.7 L 427.9,136.2 L 434.0,134.7 L 440.2,133.3 L 446.4,131.8 L 452.5,130.5 L 458.7,129.1 L 464.9,127.8 L 471.1,126.5 L 477.2,125.2 L 483.4,124.0 L 489.6,122.8 L 495.7,121.6 L 501.9,120.4 L 508.1,119.3 L 514.2,118.2 L 520.4,117.1 L 526.6,116.0 L 532.8,115.0 L 538.9,114.0 L 545.1,113.0 L 551.3,112.0 L 557.4,111.1 L 563.6,110.1 L 569.8,109.2 L 575.9,108.4 L 582.1,107.5 L 588.3,106.7 L 594.4,105.9 L 600.6,105.1 L 606.8,104.3 L 613.0,103.6 L 619.1,102.9 L 625.3,102.2 L 631.5,101.5 L 637.6,100.9 L 643.8,100.3 L 650.0,100.2 L 656.1,101.1 L 662.3,102.6 L 668.5,104.2 L 674.7,105.7 L 680.8,107.1 L 687.0,108.5" class="nt"/>
<path d="M 105.7,323.8 L 175.7,258.4 L 247.1,222.0 L 318.5,198.5 L 388.5,184.5 L 535.4,184.2 L 679.5,191.3" class="mond"/>
<path d="M 75.1,376.0 L 80.3,362.7 L 85.4,349.0 L 90.6,336.9 L 95.7,326.8 L 100.8,318.7 L 106.0,312.2 L 111.1,306.8 L 116.3,302.1 L 121.4,297.6 L 126.6,293.2 L 131.7,288.6 L 136.8,283.9 L 142.0,278.9 L 147.1,273.7 L 152.3,268.3 L 157.4,262.8 L 162.6,257.0 L 167.7,251.0 L 172.8,244.9 L 178.0,238.7 L 183.1,232.4 L 188.3,226.1 L 193.4,220.0 L 198.5,214.0 L 203.7,208.6 L 208.8,203.7 L 214.0,199.4 L 219.1,195.8 L 224.3,192.9 L 229.4,190.5 L 234.5,188.6 L 239.7,187.0 L 244.8,185.5 L 250.0,184.1 L 255.1,182.7 L 260.2,181.2 L 265.4,179.7 L 270.5,178.2 L 275.7,176.7 L 280.8,175.1 L 286.0,173.5 L 291.1,171.8 L 296.2,170.2 L 301.4,168.6 L 306.5,166.9 L 311.7,165.3 L 316.8,163.7 L 321.9,162.0 L 327.1,160.5 L 332.2,158.9 L 337.4,157.3 L 342.5,155.8 L 347.6,154.2 L 352.8,152.8 L 357.9,151.3 L 363.1,149.9 L 368.2,148.4 L 373.4,147.1 L 378.5,145.7 L 383.6,144.4 L 388.8,143.1 L 393.9,141.8 L 399.1,140.6 L 404.2,139.4 L 409.3,138.2 L 414.5,137.1 L 419.6,136.0 L 424.8,134.9 L 429.9,133.9 L 435.1,132.8 L 440.2,131.8 L 445.3,130.9 L 450.5,129.9 L 455.6,129.0 L 460.8,128.1 L 465.9,127.2 L 471.1,126.4 L 476.2,125.5 L 481.3,124.7 L 486.5,123.9 L 491.6,123.1 L 496.8,122.3 L 501.9,121.5 L 507.0,120.7 L 512.2,120.0 L 517.3,119.2 L 522.5,118.4 L 527.6,117.5 L 532.8,116.7 L 537.9,115.8 L 543.0,114.9 L 548.2,113.9 L 553.3,112.9 L 558.5,111.8 L 563.6,110.6 L 568.7,109.3 L 573.9,107.9 L 579.0,106.3 L 584.2,104.6 L 589.3,102.6 L 594.4,100.4 L 599.6,98.0 L 604.7,95.3 L 609.9,92.3 L 615.0,89.1 L 620.2,85.7 L 625.3,82.3 L 630.4,79.4 L 635.6,77.2 L 640.7,76.2 L 645.9,77.1 L 651.0,79.8 L 656.2,84.3 L 661.3,90.5 L 666.4,97.7 L 671.6,105.5 L 676.7,113.5 L 681.9,121.4 L 687.0,129.0" class="fw"/>
<line x1="105.69" y1="306.32" x2="105.69" y2="322.21" class="err"/>
<line x1="102.69" y1="306.32" x2="108.69" y2="306.32" class="err"/>
<line x1="102.69" y1="322.21" x2="108.69" y2="322.21" class="err"/>
<circle cx="105.69" cy="314.26" r="2.5" class="obs"/>
<line x1="175.70" y1="226.03" x2="175.70" y2="252.50" class="err"/>
<line x1="172.70" y1="226.03" x2="178.70" y2="226.03" class="err"/>
<line x1="172.70" y1="252.50" x2="178.70" y2="252.50" class="err"/>
<circle cx="175.70" cy="239.26" r="2.5" class="obs"/>
<line x1="247.08" y1="163.69" x2="247.08" y2="204.54" class="err"/>
<line x1="244.08" y1="163.69" x2="250.08" y2="163.69" class="err"/>
<line x1="244.08" y1="204.54" x2="250.08" y2="204.54" class="err"/>
<circle cx="247.08" cy="184.12" r="2.5" class="obs"/>
<line x1="318.47" y1="156.50" x2="318.47" y2="167.62" class="err"/>
<line x1="315.47" y1="156.50" x2="321.47" y2="156.50" class="err"/>
<line x1="315.47" y1="167.62" x2="321.47" y2="167.62" class="err"/>
<circle cx="318.47" cy="162.06" r="2.5" class="obs"/>
<line x1="388.48" y1="125.39" x2="388.48" y2="152.84" class="err"/>
<line x1="385.48" y1="125.39" x2="391.48" y2="125.39" class="err"/>
<line x1="385.48" y1="152.84" x2="391.48" y2="152.84" class="err"/>
<circle cx="388.48" cy="139.12" r="2.5" class="obs"/>
<line x1="535.36" y1="110.66" x2="535.36" y2="122.57" class="err"/>
<line x1="532.36" y1="110.66" x2="538.36" y2="110.66" class="err"/>
<line x1="532.36" y1="122.57" x2="538.36" y2="122.57" class="err"/>
<circle cx="535.36" cy="116.62" r="2.5" class="obs"/>
<line x1="679.50" y1="85.91" x2="679.50" y2="150.85" class="err"/>
<line x1="676.50" y1="85.91" x2="682.50" y2="85.91" class="err"/>
<line x1="676.50" y1="150.85" x2="682.50" y2="150.85" class="err"/>
<circle cx="679.50" cy="118.38" r="2.5" class="obs"/>
<g class="legend">
<line x1="82" y1="69" x2="106" y2="69" class="fw"/>
<text x="112" y="73" class="lbl-l">framework: 0.4 km/s, 1.2%, 0.17σ</text>
<line x1="82" y1="87" x2="106" y2="87" class="nt"/>
<text x="112" y="91" class="lbl-l">Newtonian: 2.4 km/s, 10.0%, 1.10σ</text>
<line x1="82" y1="105" x2="106" y2="105" class="mond"/>
<text x="112" y="109" class="lbl-m">MOND/RAR: 10.5 km/s, 18.7%, 5.27σ</text>
<circle cx="94" cy="123" r="2.5" class="obs"/>
<text x="112" y="127" class="lbl">observed V±err</text>
</g>
<g class="legend">
<line x1="472" y1="69" x2="496" y2="69" class="rho"/>
<text x="502" y="73" class="lbl-r">ρ(r) raw</text>
<line x1="472" y1="87" x2="496" y2="87" class="phot"/>
<text x="502" y="91" class="lbl-p">photometric baryonic profile</text>
<line x1="472" y1="105" x2="496" y2="105" class="mbar"/>
<text x="502" y="109" class="lbl-m">MOND baryonic annulus</text>
<line x1="472" y1="123" x2="496" y2="123" class="mph"/>
<text x="502" y="127" class="lbl-m">MOND phantom annulus</text>
<text x="472" y="147" class="lbl-r">ρ peak: 212 M☉/pc²</text>
<text x="472" y="163" class="lbl-p">phot peak: 15.64 (arb.)</text>
<text x="472" y="179" class="lbl-m">Σbar peak: 21.26 M☉/pc²</text>
<text x="472" y="195" class="lbl-m">Σphantom peak: 66.03 M☉/pc²</text>
</g>
<rect x="775" y="55" width="170" height="170" class="preview-bg"/>
<defs><radialGradient id="g_ESO444_G084" cx="0.5" cy="0.5" r="0.5">
  <stop offset="0.0000" stop-color="rgb(255,64,64)"/>
  <stop offset="0.0313" stop-color="rgb(255,64,64)"/>
  <stop offset="0.0625" stop-color="rgb(224,56,56)"/>
  <stop offset="0.0938" stop-color="rgb(222,56,56)"/>
  <stop offset="0.1250" stop-color="rgb(221,55,55)"/>
  <stop offset="0.1563" stop-color="rgb(219,55,55)"/>
  <stop offset="0.1875" stop-color="rgb(217,54,54)"/>
  <stop offset="0.2188" stop-color="rgb(214,54,54)"/>
  <stop offset="0.2500" stop-color="rgb(203,51,51)"/>
  <stop offset="0.2813" stop-color="rgb(193,48,48)"/>
  <stop offset="0.3125" stop-color="rgb(190,48,48)"/>
  <stop offset="0.3438" stop-color="rgb(187,47,47)"/>
  <stop offset="0.3750" stop-color="rgb(184,46,46)"/>
  <stop offset="0.4063" stop-color="rgb(181,45,45)"/>
  <stop offset="0.4375" stop-color="rgb(178,45,45)"/>
  <stop offset="0.4688" stop-color="rgb(175,44,44)"/>
  <stop offset="0.5000" stop-color="rgb(172,43,43)"/>
  <stop offset="0.5313" stop-color="rgb(169,42,42)"/>
  <stop offset="0.5625" stop-color="rgb(166,42,42)"/>
  <stop offset="0.5938" stop-color="rgb(163,41,41)"/>
  <stop offset="0.6250" stop-color="rgb(160,40,40)"/>
  <stop offset="0.6563" stop-color="rgb(157,39,39)"/>
  <stop offset="0.6875" stop-color="rgb(154,39,39)"/>
  <stop offset="0.7188" stop-color="rgb(150,38,38)"/>
  <stop offset="0.7500" stop-color="rgb(147,37,37)"/>
  <stop offset="0.7813" stop-color="rgb(144,36,36)"/>
  <stop offset="0.8125" stop-color="rgb(141,35,35)"/>
  <stop offset="0.8438" stop-color="rgb(138,35,35)"/>
  <stop offset="0.8750" stop-color="rgb(135,34,34)"/>
  <stop offset="0.9063" stop-color="rgb(132,33,33)"/>
  <stop offset="0.9375" stop-color="rgb(129,32,32)"/>
  <stop offset="0.9688" stop-color="rgb(126,32,32)"/>
  <stop offset="1.0000" stop-color="rgb(0,0,0)"/>
</radialGradient></defs>
<circle cx="860" cy="140" r="81" fill="url(#g_ESO444_G084)"/>
<text x="860" y="49" text-anchor="middle" class="preview-lbl">face-on luminance from ρ(r)</text>
<text x="860" y="239" text-anchor="middle" class="preview-lbl">edge at r = 4.3 kpc</text>
</svg>