<svg xmlns="http://www.w3.org/2000/svg" viewBox="0 0 960 450" width="960" height="450" font-family="sans-serif" font-size="12">
<style>
  .ax { stroke: #333; stroke-width: 1; fill: none; }
  .grid { stroke: #ddd; stroke-width: 0.5; fill: none; }
  .lbl { fill: #333; }
  .lbl-l { fill: #0066cc; }
  .lbl-r { fill: #b03030; }
  .obs { fill: #222; }
  .err { stroke: #555; stroke-width: 0.8; fill: none; }
  .fw { stroke: #0066cc; stroke-width: 2.2; fill: none; }
  .nt { stroke: #cc6600; stroke-width: 1.6; fill: none; stroke-dasharray: 5,3; }
  .mond { stroke: #7b2cbf; stroke-width: 1.8; fill: none; stroke-dasharray: 7,3; }
  .lbl-p { fill: #cc7000; }
  .lbl-m { fill: #7b2cbf; }
  .rho { stroke: #b03030; stroke-width: 2.0; fill: none; }
  .phot { stroke: #cc7000; stroke-width: 1.8; fill: none; }
  .mbar { stroke: #8e44ad; stroke-width: 1.8; fill: none; opacity: 0.9; }
  .mph { stroke: #c77dff; stroke-width: 1.6; fill: none; stroke-dasharray: 4,3; opacity: 0.95; }
  .title { fill: #111; font-size: 16px; font-weight: 600; }
  .subtitle { fill: #555; font-size: 11px; }
  .preview-bg { fill: #000; }
  .preview-lbl { fill: #888; font-size: 10px; }
  .legend { font-size: 11px; }
</style>
<text x="378.5" y="22" text-anchor="middle" class="title">ESO563-G021</text>
<text x="378.5" y="38" text-anchor="middle" class="subtitle">rMax=42.4 kpc, N=30, FW=8.4 km/s, 11.3%, 1.29σ, MOND=45.8 km/s, 42.7%, 7.32σ, amp=320</text>
<line x1="70" y1="395.0" x2="687" y2="395.0" class="grid"/>
<text x="64" y="399.0" text-anchor="end" class="lbl-l">0</text>
<line x1="70" y1="327.0" x2="687" y2="327.0" class="grid"/>
<text x="64" y="331.0" text-anchor="end" class="lbl-l">80</text>
<line x1="70" y1="259.0" x2="687" y2="259.0" class="grid"/>
<text x="64" y="263.0" text-anchor="end" class="lbl-l">160</text>
<line x1="70" y1="191.0" x2="687" y2="191.0" class="grid"/>
<text x="64" y="195.0" text-anchor="end" class="lbl-l">240</text>
<line x1="70" y1="123.0" x2="687" y2="123.0" class="grid"/>
<text x="64" y="127.0" text-anchor="end" class="lbl-l">319</text>
<line x1="70" y1="55.0" x2="687" y2="55.0" class="grid"/>
<text x="64" y="59.0" text-anchor="end" class="lbl-l">399</text>
<text x="693" y="399.0" text-anchor="start" class="lbl-r">0.0</text>
<text x="693" y="353.7" text-anchor="start" class="lbl-r">0.2</text>
<text x="693" y="308.3" text-anchor="start" class="lbl-r">0.4</text>
<text x="693" y="263.0" text-anchor="start" class="lbl-r">0.6</text>
<text x="693" y="217.7" text-anchor="start" class="lbl-r">0.8</text>
<text x="693" y="172.3" text-anchor="start" class="lbl-r">1.0</text>
<line x1="70.0" y1="55" x2="70.0" y2="395" class="grid"/>
<text x="70.0" y="411" text-anchor="middle" class="lbl">0.0</text>
<line x1="172.8" y1="55" x2="172.8" y2="395" class="grid"/>
<text x="172.8" y="411" text-anchor="middle" class="lbl">7.8</text>
<line x1="275.7" y1="55" x2="275.7" y2="395" class="grid"/>
<text x="275.7" y="411" text-anchor="middle" class="lbl">15.6</text>
<line x1="378.5" y1="55" x2="378.5" y2="395" class="grid"/>
<text x="378.5" y="411" text-anchor="middle" class="lbl">23.3</text>
<line x1="481.3" y1="55" x2="481.3" y2="395" class="grid"/>
<text x="481.3" y="411" text-anchor="middle" class="lbl">31.1</text>
<line x1="584.2" y1="55" x2="584.2" y2="395" class="grid"/>
<text x="584.2" y="411" text-anchor="middle" class="lbl">38.9</text>
<line x1="687.0" y1="55" x2="687.0" y2="395" class="grid"/>
<text x="687.0" y="411" text-anchor="middle" class="lbl">46.7</text>
<text x="378.5" y="438" text-anchor="middle" class="lbl">radius (kpc)</text>
<text x="16" y="225" text-anchor="middle" class="lbl-l" transform="rotate(-90, 16, 225)">velocity (km/s)</text>
<text x="724" y="225" text-anchor="middle" class="lbl-r" transform="rotate(-90, 724, 225)">profiles (normalized to peak)</text>
<rect x="70" y="55" width="617" height="340" class="ax"/>
<path d="M 70.0,270.6 L 72.8,259.8 L 75.6,249.0 L 78.5,238.2 L 81.3,227.4 L 84.1,216.5 L 86.9,205.7 L 89.7,194.9 L 92.5,184.1 L 95.4,173.3 L 98.2,168.3 L 101.0,170.7 L 103.8,173.0 L 106.6,175.4 L 109.4,177.7 L 112.3,180.1 L 115.1,182.4 L 117.9,184.6 L 120.7,186.9 L 123.5,189.1 L 126.3,191.4 L 129.2,193.6 L 132.0,195.9 L 134.8,198.1 L 137.6,200.4 L 140.4,202.6 L 143.3,204.9 L 146.1,207.1 L 148.9,209.4 L 151.7,211.6 L 154.5,213.9 L 157.3,216.1 L 160.2,218.4 L 163.0,220.6 L 165.8,222.9 L 168.6,225.1 L 171.4,227.4 L 174.2,229.6 L 177.1,231.9 L 179.9,234.1 L 182.7,236.4 L 185.5,238.7 L 188.3,240.9 L 191.1,243.2 L 194.0,245.4 L 196.8,247.7 L 199.6,249.9 L 202.4,252.2 L 205.2,254.4 L 208.1,256.7 L 210.9,258.9 L 213.7,261.2 L 216.5,263.4 L 219.3,265.7 L 222.1,267.9 L 225.0,270.2 L 227.8,271.9 L 230.6,272.5 L 233.4,273.0 L 236.2,273.5 L 239.0,274.1 L 241.9,274.6 L 244.7,275.1 L 247.5,275.7 L 250.3,276.2 L 253.1,276.7 L 255.9,277.2 L 258.8,277.8 L 261.6,278.3 L 264.4,278.8 L 267.2,279.4 L 270.0,279.9 L 272.8,280.4 L 275.7,280.9 L 278.5,281.5 L 281.3,282.0 L 284.1,282.5 L 286.9,283.1 L 289.8,283.6 L 292.6,284.1 L 295.4,284.6 L 298.2,285.2 L 301.0,285.7 L 303.8,286.2 L 306.7,286.8 L 309.5,287.3 L 312.3,287.8 L 315.1,288.4 L 317.9,288.9 L 320.7,289.4 L 323.6,289.9 L 326.4,290.5 L 329.2,291.0 L 332.0,291.5 L 334.8,292.1 L 337.6,292.6 L 340.5,293.1 L 343.3,293.6 L 346.1,294.2 L 348.9,294.7 L 351.7,295.2 L 354.6,295.8 L 357.4,296.3 L 360.2,296.8 L 363.0,297.4 L 365.8,297.9 L 368.6,298.4 L 371.5,298.9 L 374.3,299.5 L 377.1,300.0 L 379.9,300.5 L 382.7,301.1 L 385.5,301.6 L 388.4,302.1 L 391.2,302.6 L 394.0,303.2 L 396.8,303.7 L 399.6,304.2 L 402.4,304.8 L 405.3,305.3 L 408.1,305.8 L 410.9,306.4 L 413.7,306.9 L 416.5,307.4 L 419.4,307.9 L 422.2,308.5 L 425.0,309.0 L 427.8,309.5 L 430.6,310.1 L 433.4,310.6 L 436.3,311.1 L 439.1,311.6 L 441.9,312.2 L 444.7,312.7 L 447.5,313.2 L 450.3,313.8 L 453.2,314.3 L 456.0,314.8 L 458.8,315.4 L 461.6,315.9 L 464.4,316.4 L 467.2,316.9 L 470.1,317.5 L 472.9,318.0 L 475.7,318.5 L 478.5,319.1 L 481.3,319.6 L 484.2,320.1 L 487.0,320.6 L 489.8,321.2 L 492.6,321.7 L 495.4,322.2 L 498.2,322.8 L 501.1,323.3 L 503.9,323.8 L 506.7,324.4 L 509.5,324.9 L 512.3,325.4 L 515.1,325.9 L 518.0,326.5 L 520.8,327.0 L 523.6,327.5 L 526.4,328.1 L 529.2,328.6 L 532.0,329.1 L 534.9,329.6 L 537.7,330.2 L 540.5,330.7 L 543.3,331.2 L 546.1,331.8 L 548.9,332.3 L 551.8,332.8 L 554.6,333.3 L 557.4,333.9 L 560.2,334.4 L 563.0,334.9 L 565.9,335.5 L 568.7,336.0 L 571.5,336.5 L 574.3,337.1 L 577.1,337.6 L 579.9,338.1 L 582.8,338.6 L 585.6,339.2 L 588.4,339.7 L 591.2,340.2 L 594.0,341.0 L 596.8,343.4 L 599.7,345.8 L 602.5,348.2 L 605.3,350.6 L 608.1,352.9 L 610.9,355.3 L 613.7,357.7 L 616.6,360.1 L 619.4,362.5 L 622.2,364.9 L 625.0,367.3 L 627.8,369.7 L 630.7,372.1 L 633.5,374.5 L 636.3,376.9 L 639.1,379.3 L 641.9,381.7 L 644.7,384.1 L 647.6,386.5 L 650.4,388.8 L 653.2,391.2 L 656.0,393.6 L 658.8,395.0 L 661.6,395.0 L 664.5,395.0 L 667.3,395.0 L 670.1,395.0 L 672.9,395.0 L 675.7,395.0 L 678.5,395.0 L 681.4,395.0 L 684.2,395.0 L 687.0,395.0" class="rho"/>
<path d="M 75.9,168.3 L 87.7,287.1 L 99.5,320.3 L 111.2,332.9 L 123.0,335.7 L 134.8,338.3 L 146.5,342.7 L 158.4,348.9 L 170.2,354.2 L 182.0,357.6 L 205.3,364.4 L 229.4,373.4 L 247.7,377.2 L 270.7,380.8 L 292.5,384.6 L 315.4,387.4 L 338.4,388.2 L 360.1,389.5 L 383.1,391.5 L 405.9,392.9 L 427.8,393.5 L 450.8,394.1 L 473.6,394.5 L 495.5,394.7 L 518.3,394.8 L 541.3,394.9 L 563.1,394.9 L 586.0,394.9 L 608.9,394.9 L 630.7,394.9" class="phot"/>
<path d="M 75.9,168.3 L 87.7,172.8 L 99.5,219.3 L 111.2,263.9 L 123.0,267.3 L 134.8,242.3 L 146.5,217.4 L 158.4,221.5 L 170.2,238.4 L 182.0,244.1 L 205.3,253.9 L 229.4,277.9 L 247.7,303.2 L 270.7,318.3 L 292.5,335.1 L 315.4,354.3 L 338.4,357.3 L 360.1,353.2 L 383.1,362.6 L 405.9,381.7 L 427.8,392.6 L 450.8,394.6 L 473.6,394.5 L 495.5,392.8 L 518.3,392.0 L 541.3,393.5 L 563.1,394.4 L 586.0,394.7 L 608.9,395.0 L 630.7,395.0" class="mbar"/>
<path d="M 75.9,168.3 L 87.7,169.4 L 99.5,178.8 L 111.2,190.0 L 123.0,192.3 L 134.8,185.0 L 146.5,177.3 L 158.4,178.6 L 170.2,183.7 L 182.0,185.4 L 205.3,188.6 L 229.4,196.9 L 247.7,206.9 L 270.7,214.5 L 292.5,224.9 L 315.4,237.7 L 338.4,242.7 L 360.1,243.3 L 383.1,253.0 L 405.9,271.1 L 427.8,286.7 L 450.8,298.0 L 473.6,303.8 L 495.5,303.5 L 518.3,305.2 L 541.3,311.0 L 563.1,316.5 L 586.0,321.8 L 608.9,325.6 L 630.7,326.5" class="mph"/>
<path d="M 76.2,353.1 L 82.3,332.6 L 88.5,314.8 L 94.7,298.2 L 100.8,282.9 L 107.0,270.3 L 113.2,259.5 L 119.4,250.0 L 125.5,241.5 L 131.7,233.8 L 137.9,226.7 L 144.0,220.2 L 150.2,214.1 L 156.4,208.6 L 162.6,203.4 L 168.7,198.5 L 174.9,194.0 L 181.1,189.9 L 187.2,186.0 L 193.4,182.3 L 199.6,178.9 L 205.7,175.8 L 211.9,172.9 L 218.1,170.3 L 224.3,167.8 L 230.4,165.5 L 236.6,163.3 L 242.8,161.0 L 248.9,158.8 L 255.1,156.6 L 261.3,154.4 L 267.4,152.2 L 273.6,150.1 L 279.8,147.9 L 285.9,145.9 L 292.1,143.8 L 298.3,141.8 L 304.5,139.8 L 310.6,137.9 L 316.8,136.0 L 323.0,134.1 L 329.1,132.2 L 335.3,130.4 L 341.5,128.7 L 347.7,127.0 L 353.8,125.3 L 360.0,123.6 L 366.2,122.0 L 372.3,120.4 L 378.5,118.9 L 384.7,117.4 L 390.8,115.9 L 397.0,114.5 L 403.2,113.1 L 409.3,111.7 L 415.5,110.4 L 421.7,109.1 L 427.9,107.8 L 434.0,106.6 L 440.2,105.4 L 446.4,104.2 L 452.5,103.1 L 458.7,102.0 L 464.9,101.0 L 471.1,99.9 L 477.2,99.0 L 483.4,98.0 L 489.6,97.1 L 495.7,96.2 L 501.9,95.3 L 508.1,94.5 L 514.2,93.7 L 520.4,92.9 L 526.6,92.2 L 532.8,91.5 L 538.9,90.8 L 545.1,90.2 L 551.3,89.6 L 557.4,89.0 L 563.6,88.5 L 569.8,88.0 L 575.9,87.5 L 582.1,87.0 L 588.3,86.6 L 594.4,86.2 L 600.6,86.0 L 606.8,85.9 L 613.0,86.0 L 619.1,86.3 L 625.3,86.8 L 631.5,87.5 L 637.6,88.4 L 643.8,89.5 L 650.0,90.7 L 656.2,92.2 L 662.3,93.8 L 668.5,95.3 L 674.7,96.9 L 680.8,98.4 L 687.0,99.9" class="nt"/>
<path d="M 75.9,347.3 L 87.7,308.6 L 99.5,292.9 L 111.2,283.0 L 123.0,272.3 L 134.8,258.7 L 146.5,242.4 L 158.4,229.0 L 170.2,220.0 L 182.0,210.0 L 205.3,194.3 L 229.4,181.5 L 247.7,176.3 L 270.7,169.7 L 292.5,164.9 L 315.4,164.4 L 338.4,162.0 L 360.1,158.4 L 383.1,155.2 L 405.9,156.6 L 427.8,158.4 L 450.8,161.4 L 473.6,164.1 L 495.5,165.1 L 518.3,165.5 L 541.3,166.7 L 563.1,167.5 L 586.0,168.9 L 608.9,170.2 L 630.7,171.0" class="mond"/>
<path d="M 75.1,387.4 L 80.3,379.5 L 85.4,368.1 L 90.6,354.5 L 95.7,339.0 L 100.8,322.7 L 106.0,306.3 L 111.1,290.5 L 116.3,275.5 L 121.4,261.4 L 126.6,248.4 L 131.7,236.3 L 136.8,225.0 L 142.0,214.5 L 147.1,204.8 L 152.3,195.8 L 157.4,187.4 L 162.6,179.7 L 167.7,172.7 L 172.8,166.3 L 178.0,160.5 L 183.1,155.3 L 188.3,150.7 L 193.4,146.9 L 198.5,143.6 L 203.7,141.0 L 208.8,139.0 L 214.0,137.7 L 219.1,136.9 L 224.3,136.7 L 229.4,136.8 L 234.5,137.1 L 239.7,137.6 L 244.8,138.0 L 250.0,138.3 L 255.1,138.5 L 260.2,138.6 L 265.4,138.5 L 270.5,138.3 L 275.7,138.1 L 280.8,137.7 L 285.9,137.2 L 291.1,136.7 L 296.2,136.2 L 301.4,135.6 L 306.5,135.0 L 311.7,134.3 L 316.8,133.7 L 321.9,133.0 L 327.1,132.3 L 332.2,131.6 L 337.4,131.0 L 342.5,130.3 L 347.7,129.6 L 352.8,129.0 L 357.9,128.3 L 363.1,127.7 L 368.2,127.1 L 373.4,126.6 L 378.5,126.0 L 383.6,125.5 L 388.8,125.0 L 393.9,124.6 L 399.1,124.1 L 404.2,123.7 L 409.4,123.4 L 414.5,123.0 L 419.6,122.7 L 424.8,122.5 L 429.9,122.2 L 435.1,122.0 L 440.2,121.8 L 445.3,121.7 L 450.5,121.6 L 455.6,121.5 L 460.8,121.4 L 465.9,121.4 L 471.0,121.4 L 476.2,121.4 L 481.3,121.5 L 486.5,121.6 L 491.6,121.6 L 496.8,121.8 L 501.9,121.9 L 507.0,122.0 L 512.2,122.2 L 517.3,122.3 L 522.5,122.4 L 527.6,122.5 L 532.8,122.6 L 537.9,122.7 L 543.0,122.7 L 548.2,122.7 L 553.3,122.6 L 558.5,122.4 L 563.6,122.2 L 568.7,121.8 L 573.9,121.4 L 579.0,120.9 L 584.2,120.4 L 589.3,120.1 L 594.4,120.1 L 599.6,120.5 L 604.7,121.6 L 609.9,123.4 L 615.0,126.0 L 620.2,129.3 L 625.3,133.3 L 630.4,137.7 L 635.6,142.7 L 640.7,147.9 L 645.9,153.2 L 651.0,158.6 L 656.1,164.0 L 661.3,169.1 L 666.4,174.0 L 671.6,178.7 L 676.7,183.1 L 681.9,187.2 L 687.0,191.1" class="fw"/>
<line x1="75.95" y1="370.58" x2="75.95" y2="387.23" class="err"/>
<line x1="72.95" y1="370.58" x2="78.95" y2="370.58" class="err"/>
<line x1="72.95" y1="387.23" x2="78.95" y2="387.23" class="err"/>
<circle cx="75.95" cy="378.91" r="2.5" class="obs"/>
<line x1="87.72" y1="336.42" x2="87.72" y2="354.30" class="err"/>
<line x1="84.72" y1="336.42" x2="90.72" y2="336.42" class="err"/>
<line x1="84.72" y1="354.30" x2="90.72" y2="354.30" class="err"/>
<circle cx="87.72" cy="345.36" r="2.5" class="obs"/>
<line x1="99.48" y1="327.06" x2="99.48" y2="336.75" class="err"/>
<line x1="96.48" y1="327.06" x2="102.48" y2="327.06" class="err"/>
<line x1="96.48" y1="336.75" x2="102.48" y2="336.75" class="err"/>
<circle cx="99.48" cy="331.90" r="2.5" class="obs"/>
<line x1="111.25" y1="290.04" x2="111.25" y2="297.31" class="err"/>
<line x1="108.25" y1="290.04" x2="114.25" y2="290.04" class="err"/>
<line x1="108.25" y1="297.31" x2="114.25" y2="297.31" class="err"/>
<circle cx="111.25" cy="293.67" r="2.5" class="obs"/>
<line x1="123.02" y1="271.74" x2="123.02" y2="278.14" class="err"/>
<line x1="120.02" y1="271.74" x2="126.02" y2="271.74" class="err"/>
<line x1="120.02" y1="278.14" x2="126.02" y2="278.14" class="err"/>
<circle cx="123.02" cy="274.94" r="2.5" class="obs"/>
<line x1="134.78" y1="225.09" x2="134.78" y2="232.83" class="err"/>
<line x1="131.78" y1="225.09" x2="137.78" y2="225.09" class="err"/>
<line x1="131.78" y1="232.83" x2="137.78" y2="232.83" class="err"/>
<circle cx="134.78" cy="228.96" r="2.5" class="obs"/>
<line x1="146.55" y1="198.14" x2="146.55" y2="205.29" class="err"/>
<line x1="143.55" y1="198.14" x2="149.55" y2="198.14" class="err"/>
<line x1="143.55" y1="205.29" x2="149.55" y2="205.29" class="err"/>
<circle cx="146.55" cy="201.71" r="2.5" class="obs"/>
<line x1="158.45" y1="181.92" x2="158.45" y2="189.14" class="err"/>
<line x1="155.45" y1="181.92" x2="161.45" y2="181.92" class="err"/>
<line x1="155.45" y1="189.14" x2="161.45" y2="189.14" class="err"/>
<circle cx="158.45" cy="185.53" r="2.5" class="obs"/>
<line x1="170.22" y1="162.07" x2="170.22" y2="171.53" class="err"/>
<line x1="167.22" y1="162.07" x2="173.22" y2="162.07" class="err"/>
<line x1="167.22" y1="171.53" x2="173.22" y2="171.53" class="err"/>
<circle cx="170.22" cy="166.80" r="2.5" class="obs"/>
<line x1="181.98" y1="151.51" x2="181.98" y2="156.55" class="err"/>
<line x1="178.98" y1="151.51" x2="184.98" y2="151.51" class="err"/>
<line x1="178.98" y1="156.55" x2="184.98" y2="156.55" class="err"/>
<circle cx="181.98" cy="154.03" r="2.5" class="obs"/>
<line x1="205.25" y1="138.86" x2="205.25" y2="155.57" class="err"/>
<line x1="202.25" y1="138.86" x2="208.25" y2="138.86" class="err"/>
<line x1="202.25" y1="155.57" x2="208.25" y2="155.57" class="err"/>
<circle cx="205.25" cy="147.22" r="2.5" class="obs"/>
<line x1="229.45" y1="127.00" x2="229.45" y2="135.07" class="err"/>
<line x1="226.45" y1="127.00" x2="232.45" y2="127.00" class="err"/>
<line x1="226.45" y1="135.07" x2="232.45" y2="135.07" class="err"/>
<circle cx="229.45" cy="131.04" r="2.5" class="obs"/>
<line x1="247.69" y1="113.67" x2="247.69" y2="148.41" class="err"/>
<line x1="244.69" y1="113.67" x2="250.69" y2="113.67" class="err"/>
<line x1="244.69" y1="148.41" x2="250.69" y2="148.41" class="err"/>
<circle cx="247.69" cy="131.04" r="2.5" class="obs"/>
<line x1="270.70" y1="117.33" x2="270.70" y2="144.75" class="err"/>
<line x1="267.70" y1="117.33" x2="273.70" y2="117.33" class="err"/>
<line x1="267.70" y1="144.75" x2="273.70" y2="144.75" class="err"/>
<circle cx="270.70" cy="131.04" r="2.5" class="obs"/>
<line x1="292.51" y1="116.14" x2="292.51" y2="139.13" class="err"/>
<line x1="289.51" y1="116.14" x2="295.51" y2="116.14" class="err"/>
<line x1="289.51" y1="139.13" x2="295.51" y2="139.13" class="err"/>
<circle cx="292.51" cy="127.63" r="2.5" class="obs"/>
<line x1="315.38" y1="114.26" x2="315.38" y2="135.89" class="err"/>
<line x1="312.38" y1="114.26" x2="318.38" y2="114.26" class="err"/>
<line x1="312.38" y1="135.89" x2="318.38" y2="135.89" class="err"/>
<circle cx="315.38" cy="125.08" r="2.5" class="obs"/>
<line x1="338.39" y1="114.52" x2="338.39" y2="132.23" class="err"/>
<line x1="335.39" y1="114.52" x2="341.39" y2="114.52" class="err"/>
<line x1="335.39" y1="132.23" x2="341.39" y2="132.23" class="err"/>
<circle cx="338.39" cy="123.37" r="2.5" class="obs"/>
<line x1="360.07" y1="115.03" x2="360.07" y2="133.42" class="err"/>
<line x1="357.07" y1="115.03" x2="363.07" y2="115.03" class="err"/>
<line x1="357.07" y1="133.42" x2="363.07" y2="133.42" class="err"/>
<circle cx="360.07" cy="124.23" r="2.5" class="obs"/>
<line x1="383.07" y1="117.16" x2="383.07" y2="133.00" class="err"/>
<line x1="380.07" y1="117.16" x2="386.07" y2="117.16" class="err"/>
<line x1="380.07" y1="133.00" x2="386.07" y2="133.00" class="err"/>
<circle cx="383.07" cy="125.08" r="2.5" class="obs"/>
<line x1="405.95" y1="118.92" x2="405.95" y2="131.23" class="err"/>
<line x1="402.95" y1="118.92" x2="408.95" y2="118.92" class="err"/>
<line x1="402.95" y1="131.23" x2="408.95" y2="131.23" class="err"/>
<circle cx="405.95" cy="125.08" r="2.5" class="obs"/>
<line x1="427.76" y1="122.19" x2="427.76" y2="136.48" class="err"/>
<line x1="424.76" y1="122.19" x2="430.76" y2="122.19" class="err"/>
<line x1="424.76" y1="136.48" x2="430.76" y2="136.48" class="err"/>
<circle cx="427.76" cy="129.34" r="2.5" class="obs"/>
<line x1="450.77" y1="122.21" x2="450.77" y2="136.46" class="err"/>
<line x1="447.77" y1="122.21" x2="453.77" y2="122.21" class="err"/>
<line x1="447.77" y1="136.46" x2="453.77" y2="136.46" class="err"/>
<circle cx="450.77" cy="129.34" r="2.5" class="obs"/>
<line x1="473.64" y1="120.39" x2="473.64" y2="139.98" class="err"/>
<line x1="470.64" y1="120.39" x2="476.64" y2="120.39" class="err"/>
<line x1="470.64" y1="139.98" x2="476.64" y2="139.98" class="err"/>
<circle cx="473.64" cy="130.19" r="2.5" class="obs"/>
<line x1="495.45" y1="118.69" x2="495.45" y2="143.38" class="err"/>
<line x1="492.45" y1="118.69" x2="498.45" y2="118.69" class="err"/>
<line x1="492.45" y1="143.38" x2="498.45" y2="143.38" class="err"/>
<circle cx="495.45" cy="131.04" r="2.5" class="obs"/>
<line x1="518.33" y1="114.94" x2="518.33" y2="142.02" class="err"/>
<line x1="515.33" y1="114.94" x2="521.33" y2="114.94" class="err"/>
<line x1="515.33" y1="142.02" x2="521.33" y2="142.02" class="err"/>
<circle cx="518.33" cy="128.48" r="2.5" class="obs"/>
<line x1="541.33" y1="115.00" x2="541.33" y2="130.04" class="err"/>
<line x1="538.33" y1="115.00" x2="544.33" y2="115.00" class="err"/>
<line x1="538.33" y1="130.04" x2="544.33" y2="130.04" class="err"/>
<circle cx="541.33" cy="122.52" r="2.5" class="obs"/>
<line x1="563.15" y1="114.96" x2="563.15" y2="128.38" class="err"/>
<line x1="560.15" y1="114.96" x2="566.15" y2="114.96" class="err"/>
<line x1="560.15" y1="128.38" x2="566.15" y2="128.38" class="err"/>
<circle cx="563.15" cy="121.67" r="2.5" class="obs"/>
<line x1="586.02" y1="115.71" x2="586.02" y2="129.34" class="err"/>
<line x1="583.02" y1="115.71" x2="589.02" y2="115.71" class="err"/>
<line x1="583.02" y1="129.34" x2="589.02" y2="129.34" class="err"/>
<circle cx="586.02" cy="122.52" r="2.5" class="obs"/>
<line x1="608.89" y1="118.42" x2="608.89" y2="135.14" class="err"/>
<line x1="605.89" y1="118.42" x2="611.89" y2="118.42" class="err"/>
<line x1="605.89" y1="135.14" x2="611.89" y2="135.14" class="err"/>
<circle cx="608.89" cy="126.78" r="2.5" class="obs"/>
<line x1="630.71" y1="121.61" x2="630.71" y2="137.06" class="err"/>
<line x1="627.71" y1="121.61" x2="633.71" y2="121.61" class="err"/>
<line x1="627.71" y1="137.06" x2="633.71" y2="137.06" class="err"/>
<circle cx="630.71" cy="129.34" r="2.5" class="obs"/>
<g class="legend">
<line x1="82" y1="69" x2="106" y2="69" class="fw"/>
<text x="112" y="73" class="lbl-l">framework: 8.4 km/s, 11.3%, 1.29σ</text>
<line x1="82" y1="87" x2="106" y2="87" class="nt"/>
<text x="112" y="91" class="lbl-l">Newtonian: 32.9 km/s, 35.0%, 5.26σ</text>
<line x1="82" y1="105" x2="106" y2="105" class="mond"/>
<text x="112" y="109" class="lbl-m">MOND/RAR: 45.8 km/s, 42.7%, 7.32σ</text>
<circle cx="94" cy="123" r="2.5" class="obs"/>
<text x="112" y="127" class="lbl">observed V±err</text>
</g>
<g class="legend">
<line x1="472" y1="69" x2="496" y2="69" class="rho"/>
<text x="502" y="73" class="lbl-r">ρ(r) raw</text>
<line x1="472" y1="87" x2="496" y2="87" class="phot"/>
<text x="502" y="91" class="lbl-p">photometric baryonic profile</text>
<line x1="472" y1="105" x2="496" y2="105" class="mbar"/>
<text x="502" y="109" class="lbl-m">MOND baryonic annulus</text>
<line x1="472" y1="123" x2="496" y2="123" class="mph"/>
<text x="502" y="127" class="lbl-m">MOND phantom annulus</text>
<text x="472" y="147" class="lbl-r">ρ peak: 620 M☉/pc²</text>
<text x="472" y="163" class="lbl-p">phot peak: 1048.17 (arb.)</text>
<text x="472" y="179" class="lbl-m">Σbar peak: 363.36 M☉/pc²</text>
<text x="472" y="195" class="lbl-m">Σphantom peak: 167.90 M☉/pc²</text>
</g>
<rect x="775" y="55" width="170" height="170" class="preview-bg"/>
<defs><radialGradient id="g_ESO563_G021" cx="0.5" cy="0.5" r="0.5">
  <stop offset="0.0000" stop-color="rgb(129,129,129)"/>
  <stop offset="0.0313" stop-color="rgb(182,182,182)"/>
  <stop offset="0.0625" stop-color="rgb(200,200,200)"/>
  <stop offset="0.0938" stop-color="rgb(189,189,189)"/>
  <stop offset="0.1250" stop-color="rgb(178,178,178)"/>
  <stop offset="0.1563" stop-color="rgb(167,167,167)"/>
  <stop offset="0.1875" stop-color="rgb(156,156,156)"/>
  <stop offset="0.2188" stop-color="rgb(145,145,145)"/>
  <stop offset="0.2500" stop-color="rgb(134,134,134)"/>
  <stop offset="0.2813" stop-color="rgb(127,127,127)"/>
  <stop offset="0.3125" stop-color="rgb(125,125,125)"/>
  <stop offset="0.3438" stop-color="rgb(122,122,122)"/>
  <stop offset="0.3750" stop-color="rgb(120,120,120)"/>
  <stop offset="0.4063" stop-color="rgb(117,117,117)"/>
  <stop offset="0.4375" stop-color="rgb(114,114,114)"/>
  <stop offset="0.4688" stop-color="rgb(112,112,112)"/>
  <stop offset="0.5000" stop-color="rgb(109,109,109)"/>
  <stop offset="0.5313" stop-color="rgb(107,107,107)"/>
  <stop offset="0.5625" stop-color="rgb(104,104,104)"/>
  <stop offset="0.5938" stop-color="rgb(102,102,102)"/>
  <stop offset="0.6250" stop-color="rgb(99,99,99)"/>
  <stop offset="0.6563" stop-color="rgb(96,96,96)"/>
  <stop offset="0.6875" stop-color="rgb(94,94,94)"/>
  <stop offset="0.7188" stop-color="rgb(91,91,91)"/>
  <stop offset="0.7500" stop-color="rgb(89,89,89)"/>
  <stop offset="0.7813" stop-color="rgb(86,86,86)"/>
  <stop offset="0.8125" stop-color="rgb(83,83,83)"/>
  <stop offset="0.8438" stop-color="rgb(81,81,81)"/>
  <stop offset="0.8750" stop-color="rgb(78,78,78)"/>
  <stop offset="0.9063" stop-color="rgb(71,71,71)"/>
  <stop offset="0.9375" stop-color="rgb(54,54,54)"/>
  <stop offset="0.9688" stop-color="rgb(27,27,27)"/>
  <stop offset="1.0000" stop-color="rgb(0,0,0)"/>
</radialGradient></defs>
<circle cx="860" cy="140" r="81" fill="url(#g_ESO563_G021)"/>
<text x="860" y="49" text-anchor="middle" class="preview-lbl">face-on luminance from ρ(r)</text>
<text x="860" y="239" text-anchor="middle" class="preview-lbl">edge at r = 44.4 kpc</text>
</svg>