<svg xmlns="http://www.w3.org/2000/svg" viewBox="0 0 960 450" width="960" height="450" font-family="sans-serif" font-size="12">
<style>
  .ax { stroke: #333; stroke-width: 1; fill: none; }
  .grid { stroke: #ddd; stroke-width: 0.5; fill: none; }
  .lbl { fill: #333; }
  .lbl-l { fill: #0066cc; }
  .lbl-r { fill: #b03030; }
  .obs { fill: #222; }
  .err { stroke: #555; stroke-width: 0.8; fill: none; }
  .fw { stroke: #0066cc; stroke-width: 2.2; fill: none; }
  .nt { stroke: #cc6600; stroke-width: 1.6; fill: none; stroke-dasharray: 5,3; }
  .mond { stroke: #7b2cbf; stroke-width: 1.8; fill: none; stroke-dasharray: 7,3; }
  .lbl-p { fill: #cc7000; }
  .lbl-m { fill: #7b2cbf; }
  .rho { stroke: #b03030; stroke-width: 2.0; fill: none; }
  .phot { stroke: #cc7000; stroke-width: 1.8; fill: none; }
  .mbar { stroke: #8e44ad; stroke-width: 1.8; fill: none; opacity: 0.9; }
  .mph { stroke: #c77dff; stroke-width: 1.6; fill: none; stroke-dasharray: 4,3; opacity: 0.95; }
  .title { fill: #111; font-size: 16px; font-weight: 600; }
  .subtitle { fill: #555; font-size: 11px; }
  .preview-bg { fill: #000; }
  .preview-lbl { fill: #888; font-size: 10px; }
  .legend { font-size: 11px; }
</style>
<text x="378.5" y="22" text-anchor="middle" class="title">ESO563-G021</text>
<text x="378.5" y="38" text-anchor="middle" class="subtitle">rMax=42.4 kpc, N=30, FW=10.6 km/s, 11.5%, 1.44σ, MOND=45.8 km/s, 42.7%, 7.32σ, amp=320</text>
<line x1="70" y1="395.0" x2="687" y2="395.0" class="grid"/>
<text x="64" y="399.0" text-anchor="end" class="lbl-l">0</text>
<line x1="70" y1="327.0" x2="687" y2="327.0" class="grid"/>
<text x="64" y="331.0" text-anchor="end" class="lbl-l">82</text>
<line x1="70" y1="259.0" x2="687" y2="259.0" class="grid"/>
<text x="64" y="263.0" text-anchor="end" class="lbl-l">163</text>
<line x1="70" y1="191.0" x2="687" y2="191.0" class="grid"/>
<text x="64" y="195.0" text-anchor="end" class="lbl-l">245</text>
<line x1="70" y1="123.0" x2="687" y2="123.0" class="grid"/>
<text x="64" y="127.0" text-anchor="end" class="lbl-l">326</text>
<line x1="70" y1="55.0" x2="687" y2="55.0" class="grid"/>
<text x="64" y="59.0" text-anchor="end" class="lbl-l">408</text>
<text x="693" y="399.0" text-anchor="start" class="lbl-r">0.0</text>
<text x="693" y="353.7" text-anchor="start" class="lbl-r">0.2</text>
<text x="693" y="308.3" text-anchor="start" class="lbl-r">0.4</text>
<text x="693" y="263.0" text-anchor="start" class="lbl-r">0.6</text>
<text x="693" y="217.7" text-anchor="start" class="lbl-r">0.8</text>
<text x="693" y="172.3" text-anchor="start" class="lbl-r">1.0</text>
<line x1="70.0" y1="55" x2="70.0" y2="395" class="grid"/>
<text x="70.0" y="411" text-anchor="middle" class="lbl">0.0</text>
<line x1="172.8" y1="55" x2="172.8" y2="395" class="grid"/>
<text x="172.8" y="411" text-anchor="middle" class="lbl">7.4</text>
<line x1="275.7" y1="55" x2="275.7" y2="395" class="grid"/>
<text x="275.7" y="411" text-anchor="middle" class="lbl">14.8</text>
<line x1="378.5" y1="55" x2="378.5" y2="395" class="grid"/>
<text x="378.5" y="411" text-anchor="middle" class="lbl">22.3</text>
<line x1="481.3" y1="55" x2="481.3" y2="395" class="grid"/>
<text x="481.3" y="411" text-anchor="middle" class="lbl">29.7</text>
<line x1="584.2" y1="55" x2="584.2" y2="395" class="grid"/>
<text x="584.2" y="411" text-anchor="middle" class="lbl">37.1</text>
<line x1="687.0" y1="55" x2="687.0" y2="395" class="grid"/>
<text x="687.0" y="411" text-anchor="middle" class="lbl">44.5</text>
<text x="378.5" y="438" text-anchor="middle" class="lbl">radius (kpc)</text>
<text x="16" y="225" text-anchor="middle" class="lbl-l" transform="rotate(-90, 16, 225)">velocity (km/s)</text>
<text x="724" y="225" text-anchor="middle" class="lbl-r" transform="rotate(-90, 724, 225)">profiles (normalized to peak)</text>
<rect x="70" y="55" width="617" height="340" class="ax"/>
<path d="M 70.0,271.1 L 72.8,260.9 L 75.6,250.6 L 78.5,240.3 L 81.3,230.0 L 84.1,219.7 L 86.9,209.5 L 89.7,199.2 L 92.5,188.9 L 95.4,178.6 L 98.2,168.3 L 101.0,170.4 L 103.8,172.7 L 106.6,174.9 L 109.4,177.1 L 112.3,179.3 L 115.1,181.6 L 117.9,183.7 L 120.7,185.9 L 123.5,188.0 L 126.3,190.2 L 129.2,192.3 L 132.0,194.4 L 134.8,196.6 L 137.6,198.7 L 140.4,200.9 L 143.3,203.0 L 146.1,205.1 L 148.9,207.3 L 151.7,209.4 L 154.5,211.5 L 157.3,213.7 L 160.2,215.8 L 163.0,218.0 L 165.8,220.1 L 168.6,222.2 L 171.4,224.4 L 174.2,226.5 L 177.1,228.7 L 179.9,230.8 L 182.7,232.9 L 185.5,235.1 L 188.3,237.2 L 191.1,239.4 L 194.0,241.5 L 196.8,243.6 L 199.6,245.8 L 202.4,247.9 L 205.2,250.1 L 208.1,252.2 L 210.9,254.3 L 213.7,256.5 L 216.5,258.6 L 219.3,260.8 L 222.1,262.9 L 225.0,265.0 L 227.8,267.2 L 230.6,269.3 L 233.4,271.4 L 236.2,272.6 L 239.0,273.0 L 241.9,273.5 L 244.7,274.0 L 247.5,274.4 L 250.3,274.9 L 253.1,275.4 L 255.9,275.8 L 258.8,276.3 L 261.6,276.8 L 264.4,277.2 L 267.2,277.7 L 270.0,278.1 L 272.8,278.6 L 275.7,279.1 L 278.5,279.5 L 281.3,280.0 L 284.1,280.5 L 286.9,280.9 L 289.8,281.4 L 292.6,281.8 L 295.4,282.3 L 298.2,282.8 L 301.0,283.2 L 303.8,283.7 L 306.7,284.2 L 309.5,284.6 L 312.3,285.1 L 315.1,285.6 L 317.9,286.0 L 320.7,286.5 L 323.6,286.9 L 326.4,287.4 L 329.2,287.9 L 332.0,288.3 L 334.8,288.8 L 337.6,289.3 L 340.5,289.7 L 343.3,290.2 L 346.1,290.7 L 348.9,291.1 L 351.7,291.6 L 354.6,292.0 L 357.4,292.5 L 360.2,293.0 L 363.0,293.4 L 365.8,293.9 L 368.6,294.4 L 371.5,294.8 L 374.3,295.3 L 377.1,295.7 L 379.9,296.2 L 382.7,296.7 L 385.5,297.1 L 388.4,297.6 L 391.2,298.1 L 394.0,298.5 L 396.8,299.0 L 399.6,299.5 L 402.4,299.9 L 405.3,300.4 L 408.1,300.8 L 410.9,301.3 L 413.7,301.8 L 416.5,302.2 L 419.4,302.7 L 422.2,303.2 L 425.0,303.6 L 427.8,304.1 L 430.6,304.6 L 433.4,305.0 L 436.3,305.5 L 439.1,305.9 L 441.9,306.4 L 444.7,306.9 L 447.5,307.3 L 450.3,307.8 L 453.2,308.3 L 456.0,308.7 L 458.8,309.2 L 461.6,309.7 L 464.4,310.1 L 467.2,310.6 L 470.1,311.0 L 472.9,311.5 L 475.7,312.0 L 478.5,312.4 L 481.3,312.9 L 484.2,313.4 L 487.0,313.8 L 489.8,314.3 L 492.6,314.7 L 495.4,315.2 L 498.2,315.7 L 501.1,316.1 L 503.9,316.6 L 506.7,317.1 L 509.5,317.5 L 512.3,318.0 L 515.1,318.5 L 518.0,318.9 L 520.8,319.4 L 523.6,319.8 L 526.4,320.3 L 529.2,320.8 L 532.0,321.2 L 534.9,321.7 L 537.7,322.2 L 540.5,322.6 L 543.3,323.1 L 546.1,323.6 L 548.9,324.0 L 551.8,324.5 L 554.6,324.9 L 557.4,325.4 L 560.2,325.9 L 563.0,326.3 L 565.9,326.8 L 568.7,327.3 L 571.5,327.7 L 574.3,328.2 L 577.1,328.6 L 579.9,329.1 L 582.8,329.6 L 585.6,330.0 L 588.4,330.5 L 591.2,331.0 L 594.0,331.4 L 596.8,331.9 L 599.7,332.4 L 602.5,332.8 L 605.3,333.3 L 608.1,333.7 L 610.9,334.2 L 613.7,334.7 L 616.6,335.1 L 619.4,335.6 L 622.2,336.1 L 625.0,336.5 L 627.8,337.0 L 630.7,337.5 L 633.5,337.9 L 636.3,338.4 L 639.1,338.8 L 641.9,339.3 L 644.7,339.8 L 647.6,340.2 L 650.4,340.7 L 653.2,354.3 L 656.0,380.2 L 658.8,395.0 L 661.6,395.0 L 664.5,395.0 L 667.3,395.0 L 670.1,395.0 L 672.9,395.0 L 675.7,395.0 L 678.5,395.0 L 681.4,395.0 L 684.2,395.0 L 687.0,395.0" class="rho"/>
<path d="M 76.2,168.3 L 88.6,287.1 L 100.9,320.3 L 113.2,332.9 L 125.6,335.7 L 137.9,338.3 L 150.2,342.7 L 162.7,348.9 L 175.0,354.2 L 187.4,357.6 L 211.7,364.4 L 237.1,373.4 L 256.2,377.2 L 280.3,380.8 L 303.2,384.6 L 327.2,387.4 L 351.3,388.2 L 374.0,389.5 L 398.1,391.5 L 422.1,392.9 L 444.9,393.5 L 469.0,394.1 L 493.0,394.5 L 515.9,394.7 L 539.8,394.8 L 564.0,394.9 L 586.8,394.9 L 610.8,394.9 L 634.8,394.9 L 657.6,394.9" class="phot"/>
<path d="M 76.2,168.3 L 88.6,172.8 L 100.9,219.3 L 113.2,263.9 L 125.6,267.3 L 137.9,242.3 L 150.2,217.4 L 162.7,221.5 L 175.0,238.4 L 187.4,244.1 L 211.7,253.9 L 237.1,277.9 L 256.2,303.2 L 280.3,318.3 L 303.2,335.1 L 327.2,354.3 L 351.3,357.3 L 374.0,353.2 L 398.1,362.6 L 422.1,381.7 L 444.9,392.6 L 469.0,394.6 L 493.0,394.5 L 515.9,392.8 L 539.8,392.0 L 564.0,393.5 L 586.8,394.4 L 610.8,394.7 L 634.8,395.0 L 657.6,395.0" class="mbar"/>
<path d="M 76.2,168.3 L 88.6,169.4 L 100.9,178.8 L 113.2,190.0 L 125.6,192.3 L 137.9,185.0 L 150.2,177.3 L 162.7,178.6 L 175.0,183.7 L 187.4,185.4 L 211.7,188.6 L 237.1,196.9 L 256.2,206.9 L 280.3,214.5 L 303.2,224.9 L 327.2,237.7 L 351.3,242.7 L 374.0,243.3 L 398.1,253.0 L 422.1,271.1 L 444.9,286.7 L 469.0,298.0 L 493.0,303.8 L 515.9,303.5 L 539.8,305.2 L 564.0,311.0 L 586.8,316.5 L 610.8,321.8 L 634.8,325.6 L 657.6,326.5" class="mph"/>
<path d="M 76.2,355.0 L 82.3,335.5 L 88.5,318.7 L 94.7,303.1 L 100.8,288.3 L 107.0,276.0 L 113.2,265.5 L 119.4,256.2 L 125.5,247.9 L 131.7,240.4 L 137.9,233.5 L 144.0,227.1 L 150.2,221.3 L 156.4,215.8 L 162.6,210.7 L 168.7,205.9 L 174.9,201.5 L 181.1,197.4 L 187.2,193.5 L 193.4,189.9 L 199.6,186.5 L 205.7,183.3 L 211.9,180.4 L 218.1,177.7 L 224.2,175.2 L 230.4,172.8 L 236.6,170.7 L 242.8,168.6 L 248.9,166.4 L 255.1,164.3 L 261.3,162.2 L 267.4,160.2 L 273.6,158.1 L 279.8,156.1 L 285.9,154.0 L 292.1,152.0 L 298.3,150.1 L 304.5,148.1 L 310.6,146.2 L 316.8,144.3 L 323.0,142.5 L 329.1,140.7 L 335.3,138.9 L 341.5,137.1 L 347.7,135.3 L 353.8,133.6 L 360.0,132.0 L 366.2,130.3 L 372.3,128.7 L 378.5,127.1 L 384.7,125.6 L 390.8,124.0 L 397.0,122.5 L 403.2,121.1 L 409.3,119.6 L 415.5,118.2 L 421.7,116.9 L 427.9,115.5 L 434.0,114.2 L 440.2,112.9 L 446.4,111.7 L 452.5,110.4 L 458.7,109.2 L 464.9,108.1 L 471.0,106.9 L 477.2,105.8 L 483.4,104.7 L 489.6,103.7 L 495.7,102.6 L 501.9,101.6 L 508.1,100.7 L 514.2,99.7 L 520.4,98.8 L 526.6,97.9 L 532.8,97.0 L 538.9,96.2 L 545.1,95.4 L 551.3,94.6 L 557.4,93.8 L 563.6,93.1 L 569.8,92.4 L 575.9,91.7 L 582.1,91.0 L 588.3,90.4 L 594.4,89.8 L 600.6,89.2 L 606.8,88.7 L 613.0,88.1 L 619.1,87.6 L 625.3,87.1 L 631.5,86.7 L 637.6,86.2 L 643.8,85.8 L 650.0,85.4 L 656.2,85.6 L 662.3,87.2 L 668.5,88.7 L 674.7,90.3 L 680.8,91.9 L 687.0,93.4" class="nt"/>
<path d="M 76.2,348.3 L 88.6,310.3 L 100.9,294.9 L 113.2,285.3 L 125.6,274.8 L 137.9,261.4 L 150.2,245.5 L 162.7,232.3 L 175.0,223.6 L 187.4,213.7 L 211.7,198.3 L 237.1,185.8 L 256.2,180.7 L 280.3,174.3 L 303.2,169.6 L 327.2,169.0 L 351.3,166.7 L 374.0,163.2 L 398.1,160.1 L 422.1,161.4 L 444.9,163.2 L 469.0,166.1 L 493.0,168.7 L 515.9,169.8 L 539.8,170.1 L 564.0,171.4 L 586.8,172.1 L 610.8,173.5 L 634.8,174.7 L 657.6,175.5" class="mond"/>
<path d="M 75.1,387.9 L 80.3,380.7 L 85.4,370.5 L 90.6,358.0 L 95.7,344.0 L 100.8,328.8 L 106.0,313.5 L 111.1,298.5 L 116.3,284.2 L 121.4,270.6 L 126.6,258.0 L 131.7,246.2 L 136.8,235.3 L 142.0,225.1 L 147.1,215.5 L 152.3,206.7 L 157.4,198.4 L 162.6,190.8 L 167.7,183.8 L 172.8,177.3 L 178.0,171.4 L 183.1,166.0 L 188.3,161.3 L 193.4,157.0 L 198.5,153.4 L 203.7,150.3 L 208.8,147.8 L 214.0,145.9 L 219.1,144.6 L 224.3,143.9 L 229.4,143.6 L 234.5,143.7 L 239.7,144.1 L 244.8,144.7 L 250.0,145.2 L 255.1,145.7 L 260.2,146.1 L 265.4,146.4 L 270.5,146.5 L 275.7,146.5 L 280.8,146.5 L 286.0,146.3 L 291.1,146.0 L 296.2,145.7 L 301.4,145.2 L 306.5,144.8 L 311.7,144.3 L 316.8,143.7 L 321.9,143.1 L 327.1,142.5 L 332.2,141.9 L 337.4,141.3 L 342.5,140.6 L 347.7,139.9 L 352.8,139.3 L 357.9,138.6 L 363.1,138.0 L 368.2,137.3 L 373.4,136.7 L 378.5,136.1 L 383.6,135.5 L 388.8,134.8 L 393.9,134.3 L 399.1,133.7 L 404.2,133.1 L 409.4,132.6 L 414.5,132.1 L 419.6,131.6 L 424.8,131.1 L 429.9,130.7 L 435.1,130.3 L 440.2,129.9 L 445.3,129.5 L 450.5,129.1 L 455.6,128.8 L 460.8,128.5 L 465.9,128.2 L 471.1,127.9 L 476.2,127.7 L 481.3,127.5 L 486.5,127.3 L 491.6,127.1 L 496.8,126.9 L 501.9,126.8 L 507.0,126.7 L 512.2,126.6 L 517.3,126.5 L 522.5,126.4 L 527.6,126.3 L 532.8,126.2 L 537.9,126.2 L 543.0,126.1 L 548.2,126.0 L 553.3,125.9 L 558.5,125.8 L 563.6,125.7 L 568.7,125.5 L 573.9,125.3 L 579.0,125.0 L 584.2,124.7 L 589.3,124.2 L 594.4,123.7 L 599.6,123.1 L 604.7,122.3 L 609.9,121.4 L 615.0,120.3 L 620.2,119.1 L 625.3,117.7 L 630.4,116.3 L 635.6,115.2 L 640.7,114.4 L 645.9,114.4 L 651.0,115.5 L 656.2,117.9 L 661.3,121.5 L 666.4,126.3 L 671.6,131.8 L 676.7,137.7 L 681.9,143.7 L 687.0,149.5" class="fw"/>
<line x1="76.24" y1="371.07" x2="76.24" y2="387.39" class="err"/>
<line x1="73.24" y1="371.07" x2="79.24" y2="371.07" class="err"/>
<line x1="73.24" y1="387.39" x2="79.24" y2="387.39" class="err"/>
<circle cx="76.24" cy="379.23" r="2.5" class="obs"/>
<line x1="88.57" y1="337.60" x2="88.57" y2="355.12" class="err"/>
<line x1="85.57" y1="337.60" x2="91.57" y2="337.60" class="err"/>
<line x1="85.57" y1="355.12" x2="91.57" y2="355.12" class="err"/>
<circle cx="88.57" cy="346.36" r="2.5" class="obs"/>
<line x1="100.90" y1="328.43" x2="100.90" y2="337.93" class="err"/>
<line x1="97.90" y1="328.43" x2="103.90" y2="328.43" class="err"/>
<line x1="97.90" y1="337.93" x2="103.90" y2="337.93" class="err"/>
<circle cx="100.90" cy="333.18" r="2.5" class="obs"/>
<line x1="113.23" y1="292.16" x2="113.23" y2="299.28" class="err"/>
<line x1="110.23" y1="292.16" x2="116.23" y2="292.16" class="err"/>
<line x1="110.23" y1="299.28" x2="116.23" y2="299.28" class="err"/>
<circle cx="113.23" cy="295.72" r="2.5" class="obs"/>
<line x1="125.56" y1="274.23" x2="125.56" y2="280.50" class="err"/>
<line x1="122.56" y1="274.23" x2="128.56" y2="274.23" class="err"/>
<line x1="122.56" y1="280.50" x2="128.56" y2="280.50" class="err"/>
<circle cx="125.56" cy="277.37" r="2.5" class="obs"/>
<line x1="137.89" y1="228.53" x2="137.89" y2="236.10" class="err"/>
<line x1="134.89" y1="228.53" x2="140.89" y2="228.53" class="err"/>
<line x1="134.89" y1="236.10" x2="140.89" y2="236.10" class="err"/>
<circle cx="137.89" cy="232.32" r="2.5" class="obs"/>
<line x1="150.22" y1="202.12" x2="150.22" y2="209.12" class="err"/>
<line x1="147.22" y1="202.12" x2="153.22" y2="202.12" class="err"/>
<line x1="147.22" y1="209.12" x2="153.22" y2="209.12" class="err"/>
<circle cx="150.22" cy="205.62" r="2.5" class="obs"/>
<line x1="162.69" y1="186.23" x2="162.69" y2="193.31" class="err"/>
<line x1="159.69" y1="186.23" x2="165.69" y2="186.23" class="err"/>
<line x1="159.69" y1="193.31" x2="165.69" y2="193.31" class="err"/>
<circle cx="162.69" cy="189.77" r="2.5" class="obs"/>
<line x1="175.03" y1="166.78" x2="175.03" y2="176.05" class="err"/>
<line x1="172.03" y1="166.78" x2="178.03" y2="166.78" class="err"/>
<line x1="172.03" y1="176.05" x2="178.03" y2="176.05" class="err"/>
<circle cx="175.03" cy="171.41" r="2.5" class="obs"/>
<line x1="187.36" y1="156.43" x2="187.36" y2="161.37" class="err"/>
<line x1="184.36" y1="156.43" x2="190.36" y2="156.43" class="err"/>
<line x1="184.36" y1="161.37" x2="190.36" y2="161.37" class="err"/>
<circle cx="187.36" cy="158.90" r="2.5" class="obs"/>
<line x1="211.74" y1="144.04" x2="211.74" y2="160.41" class="err"/>
<line x1="208.74" y1="144.04" x2="214.74" y2="144.04" class="err"/>
<line x1="208.74" y1="160.41" x2="214.74" y2="160.41" class="err"/>
<circle cx="211.74" cy="152.23" r="2.5" class="obs"/>
<line x1="237.10" y1="132.42" x2="237.10" y2="140.33" class="err"/>
<line x1="234.10" y1="132.42" x2="240.10" y2="132.42" class="err"/>
<line x1="234.10" y1="140.33" x2="240.10" y2="140.33" class="err"/>
<circle cx="237.10" cy="136.37" r="2.5" class="obs"/>
<line x1="256.22" y1="119.36" x2="256.22" y2="153.39" class="err"/>
<line x1="253.22" y1="119.36" x2="259.22" y2="119.36" class="err"/>
<line x1="253.22" y1="153.39" x2="259.22" y2="153.39" class="err"/>
<circle cx="256.22" cy="136.37" r="2.5" class="obs"/>
<line x1="280.33" y1="122.94" x2="280.33" y2="149.81" class="err"/>
<line x1="277.33" y1="122.94" x2="283.33" y2="122.94" class="err"/>
<line x1="277.33" y1="149.81" x2="283.33" y2="149.81" class="err"/>
<circle cx="280.33" cy="136.37" r="2.5" class="obs"/>
<line x1="303.19" y1="121.77" x2="303.19" y2="144.30" class="err"/>
<line x1="300.19" y1="121.77" x2="306.19" y2="121.77" class="err"/>
<line x1="300.19" y1="144.30" x2="306.19" y2="144.30" class="err"/>
<circle cx="303.19" cy="133.04" r="2.5" class="obs"/>
<line x1="327.16" y1="119.94" x2="327.16" y2="141.13" class="err"/>
<line x1="324.16" y1="119.94" x2="330.16" y2="119.94" class="err"/>
<line x1="324.16" y1="141.13" x2="330.16" y2="141.13" class="err"/>
<circle cx="327.16" cy="130.53" r="2.5" class="obs"/>
<line x1="351.27" y1="120.19" x2="351.27" y2="137.54" class="err"/>
<line x1="348.27" y1="120.19" x2="354.27" y2="120.19" class="err"/>
<line x1="348.27" y1="137.54" x2="354.27" y2="137.54" class="err"/>
<circle cx="351.27" cy="128.87" r="2.5" class="obs"/>
<line x1="373.99" y1="120.69" x2="373.99" y2="138.71" class="err"/>
<line x1="370.99" y1="120.69" x2="376.99" y2="120.69" class="err"/>
<line x1="370.99" y1="138.71" x2="376.99" y2="138.71" class="err"/>
<circle cx="373.99" cy="129.70" r="2.5" class="obs"/>
<line x1="398.10" y1="122.78" x2="398.10" y2="138.29" class="err"/>
<line x1="395.10" y1="122.78" x2="401.10" y2="122.78" class="err"/>
<line x1="395.10" y1="138.29" x2="401.10" y2="138.29" class="err"/>
<circle cx="398.10" cy="130.53" r="2.5" class="obs"/>
<line x1="422.07" y1="124.50" x2="422.07" y2="136.57" class="err"/>
<line x1="419.07" y1="124.50" x2="425.07" y2="124.50" class="err"/>
<line x1="419.07" y1="136.57" x2="425.07" y2="136.57" class="err"/>
<circle cx="422.07" cy="130.53" r="2.5" class="obs"/>
<line x1="444.93" y1="127.71" x2="444.93" y2="141.71" class="err"/>
<line x1="441.93" y1="127.71" x2="447.93" y2="127.71" class="err"/>
<line x1="441.93" y1="141.71" x2="447.93" y2="141.71" class="err"/>
<circle cx="444.93" cy="134.71" r="2.5" class="obs"/>
<line x1="469.04" y1="127.72" x2="469.04" y2="141.69" class="err"/>
<line x1="466.04" y1="127.72" x2="472.04" y2="127.72" class="err"/>
<line x1="466.04" y1="141.69" x2="472.04" y2="141.69" class="err"/>
<circle cx="469.04" cy="134.71" r="2.5" class="obs"/>
<line x1="493.01" y1="125.95" x2="493.01" y2="145.13" class="err"/>
<line x1="490.01" y1="125.95" x2="496.01" y2="125.95" class="err"/>
<line x1="490.01" y1="145.13" x2="496.01" y2="145.13" class="err"/>
<circle cx="493.01" cy="135.54" r="2.5" class="obs"/>
<line x1="515.88" y1="124.28" x2="515.88" y2="148.47" class="err"/>
<line x1="512.88" y1="124.28" x2="518.88" y2="124.28" class="err"/>
<line x1="512.88" y1="148.47" x2="518.88" y2="148.47" class="err"/>
<circle cx="515.88" cy="136.37" r="2.5" class="obs"/>
<line x1="539.85" y1="120.61" x2="539.85" y2="147.14" class="err"/>
<line x1="536.85" y1="120.61" x2="542.85" y2="120.61" class="err"/>
<line x1="536.85" y1="147.14" x2="542.85" y2="147.14" class="err"/>
<circle cx="539.85" cy="133.87" r="2.5" class="obs"/>
<line x1="563.95" y1="120.66" x2="563.95" y2="135.40" class="err"/>
<line x1="560.95" y1="120.66" x2="566.95" y2="120.66" class="err"/>
<line x1="560.95" y1="135.40" x2="566.95" y2="135.40" class="err"/>
<circle cx="563.95" cy="128.03" r="2.5" class="obs"/>
<line x1="586.82" y1="120.62" x2="586.82" y2="133.77" class="err"/>
<line x1="583.82" y1="120.62" x2="589.82" y2="120.62" class="err"/>
<line x1="583.82" y1="133.77" x2="589.82" y2="133.77" class="err"/>
<circle cx="586.82" cy="127.20" r="2.5" class="obs"/>
<line x1="610.79" y1="121.36" x2="610.79" y2="134.71" class="err"/>
<line x1="607.79" y1="121.36" x2="613.79" y2="121.36" class="err"/>
<line x1="607.79" y1="134.71" x2="613.79" y2="134.71" class="err"/>
<circle cx="610.79" cy="128.03" r="2.5" class="obs"/>
<line x1="634.76" y1="124.01" x2="634.76" y2="140.40" class="err"/>
<line x1="631.76" y1="124.01" x2="637.76" y2="124.01" class="err"/>
<line x1="631.76" y1="140.40" x2="637.76" y2="140.40" class="err"/>
<circle cx="634.76" cy="132.20" r="2.5" class="obs"/>
<line x1="657.62" y1="127.14" x2="657.62" y2="142.27" class="err"/>
<line x1="654.62" y1="127.14" x2="660.62" y2="127.14" class="err"/>
<line x1="654.62" y1="142.27" x2="660.62" y2="142.27" class="err"/>
<circle cx="657.62" cy="134.71" r="2.5" class="obs"/>
<g class="legend">
<line x1="82" y1="69" x2="106" y2="69" class="fw"/>
<text x="112" y="73" class="lbl-l">framework: 10.6 km/s, 11.5%, 1.44σ</text>
<line x1="82" y1="87" x2="106" y2="87" class="nt"/>
<text x="112" y="91" class="lbl-l">Newtonian: 34.9 km/s, 35.2%, 5.41σ</text>
<line x1="82" y1="105" x2="106" y2="105" class="mond"/>
<text x="112" y="109" class="lbl-m">MOND/RAR: 45.8 km/s, 42.7%, 7.32σ</text>
<circle cx="94" cy="123" r="2.5" class="obs"/>
<text x="112" y="127" class="lbl">observed V±err</text>
</g>
<g class="legend">
<line x1="472" y1="69" x2="496" y2="69" class="rho"/>
<text x="502" y="73" class="lbl-r">ρ(r) raw</text>
<line x1="472" y1="87" x2="496" y2="87" class="phot"/>
<text x="502" y="91" class="lbl-p">photometric baryonic profile</text>
<line x1="472" y1="105" x2="496" y2="105" class="mbar"/>
<text x="502" y="109" class="lbl-m">MOND baryonic annulus</text>
<line x1="472" y1="123" x2="496" y2="123" class="mph"/>
<text x="502" y="127" class="lbl-m">MOND phantom annulus</text>
<text x="472" y="147" class="lbl-r">ρ peak: 622 M☉/pc²</text>
<text x="472" y="163" class="lbl-p">phot peak: 1048.17 (arb.)</text>
<text x="472" y="179" class="lbl-m">Σbar peak: 363.36 M☉/pc²</text>
<text x="472" y="195" class="lbl-m">Σphantom peak: 167.90 M☉/pc²</text>
</g>
<rect x="775" y="55" width="170" height="170" class="preview-bg"/>
<defs><radialGradient id="g_ESO563_G021" cx="0.5" cy="0.5" r="0.5">
  <stop offset="0.0000" stop-color="rgb(129,129,129)"/>
  <stop offset="0.0313" stop-color="rgb(180,180,180)"/>
  <stop offset="0.0625" stop-color="rgb(201,201,201)"/>
  <stop offset="0.0938" stop-color="rgb(191,191,191)"/>
  <stop offset="0.1250" stop-color="rgb(180,180,180)"/>
  <stop offset="0.1563" stop-color="rgb(170,170,170)"/>
  <stop offset="0.1875" stop-color="rgb(159,159,159)"/>
  <stop offset="0.2188" stop-color="rgb(149,149,149)"/>
  <stop offset="0.2500" stop-color="rgb(138,138,138)"/>
  <stop offset="0.2813" stop-color="rgb(128,128,128)"/>
  <stop offset="0.3125" stop-color="rgb(126,126,126)"/>
  <stop offset="0.3438" stop-color="rgb(124,124,124)"/>
  <stop offset="0.3750" stop-color="rgb(122,122,122)"/>
  <stop offset="0.4063" stop-color="rgb(119,119,119)"/>
  <stop offset="0.4375" stop-color="rgb(117,117,117)"/>
  <stop offset="0.4688" stop-color="rgb(115,115,115)"/>
  <stop offset="0.5000" stop-color="rgb(112,112,112)"/>
  <stop offset="0.5313" stop-color="rgb(110,110,110)"/>
  <stop offset="0.5625" stop-color="rgb(108,108,108)"/>
  <stop offset="0.5938" stop-color="rgb(106,106,106)"/>
  <stop offset="0.6250" stop-color="rgb(103,103,103)"/>
  <stop offset="0.6563" stop-color="rgb(101,101,101)"/>
  <stop offset="0.6875" stop-color="rgb(99,99,99)"/>
  <stop offset="0.7188" stop-color="rgb(97,97,97)"/>
  <stop offset="0.7500" stop-color="rgb(94,94,94)"/>
  <stop offset="0.7813" stop-color="rgb(92,92,92)"/>
  <stop offset="0.8125" stop-color="rgb(90,90,90)"/>
  <stop offset="0.8438" stop-color="rgb(88,88,88)"/>
  <stop offset="0.8750" stop-color="rgb(85,85,85)"/>
  <stop offset="0.9063" stop-color="rgb(83,83,83)"/>
  <stop offset="0.9375" stop-color="rgb(81,81,81)"/>
  <stop offset="0.9688" stop-color="rgb(79,79,79)"/>
  <stop offset="1.0000" stop-color="rgb(0,0,0)"/>
</radialGradient></defs>
<circle cx="860" cy="140" r="81" fill="url(#g_ESO563_G021)"/>
<text x="860" y="49" text-anchor="middle" class="preview-lbl">face-on luminance from ρ(r)</text>
<text x="860" y="239" text-anchor="middle" class="preview-lbl">edge at r = 42.4 kpc</text>
</svg>