<svg xmlns="http://www.w3.org/2000/svg" viewBox="0 0 890 420" width="890" height="420" font-family="sans-serif" font-size="12">
<style>
  .ax { stroke: #333; stroke-width: 1; fill: none; }
  .grid { stroke: #ddd; stroke-width: 0.5; fill: none; }
  .lbl { fill: #333; }
  .lbl-l { fill: #0066cc; }
  .lbl-r { fill: #b03030; }
  .obs { fill: #222; }
  .err { stroke: #555; stroke-width: 0.8; fill: none; }
  .fw { stroke: #0066cc; stroke-width: 2.2; fill: none; }
  .nt { stroke: #cc6600; stroke-width: 1.6; fill: none; stroke-dasharray: 5,3; }
  .lbl-s { fill: #cc7000; }
  .rho { stroke: #b03030; stroke-width: 2.0; fill: none; }
  .sig { stroke: #cc7000; stroke-width: 1.8; fill: none; }
  .title { fill: #111; font-size: 16px; font-weight: 600; }
  .subtitle { fill: #555; font-size: 11px; }
  .preview-bg { fill: #000; }
  .preview-lbl { fill: #888; font-size: 10px; }
  .legend { font-size: 11px; }
</style>
<text x="343.5" y="22" text-anchor="middle" class="title">F563-V2</text>
<text x="343.5" y="38" text-anchor="middle" class="subtitle">rMax=10.5 kpc, N=10, RMS=0.6 km/s (0.7%), amp=104</text>
<line x1="70" y1="365.0" x2="617" y2="365.0" class="grid"/>
<text x="64" y="369.0" text-anchor="end" class="lbl-l">0</text>
<line x1="70" y1="303.0" x2="617" y2="303.0" class="grid"/>
<text x="64" y="307.0" text-anchor="end" class="lbl-l">37</text>
<line x1="70" y1="241.0" x2="617" y2="241.0" class="grid"/>
<text x="64" y="245.0" text-anchor="end" class="lbl-l">75</text>
<line x1="70" y1="179.0" x2="617" y2="179.0" class="grid"/>
<text x="64" y="183.0" text-anchor="end" class="lbl-l">112</text>
<line x1="70" y1="117.0" x2="617" y2="117.0" class="grid"/>
<text x="64" y="121.0" text-anchor="end" class="lbl-l">150</text>
<line x1="70" y1="55.0" x2="617" y2="55.0" class="grid"/>
<text x="64" y="59.0" text-anchor="end" class="lbl-l">187</text>
<text x="623" y="369.0" text-anchor="start" class="lbl-r">0.0</text>
<text x="623" y="327.7" text-anchor="start" class="lbl-r">0.2</text>
<text x="623" y="286.3" text-anchor="start" class="lbl-r">0.4</text>
<text x="623" y="245.0" text-anchor="start" class="lbl-r">0.6</text>
<text x="623" y="203.7" text-anchor="start" class="lbl-r">0.8</text>
<text x="623" y="162.3" text-anchor="start" class="lbl-r">1.0</text>
<line x1="70.0" y1="55" x2="70.0" y2="365" class="grid"/>
<text x="70.0" y="381" text-anchor="middle" class="lbl">0.0</text>
<line x1="161.2" y1="55" x2="161.2" y2="365" class="grid"/>
<text x="161.2" y="381" text-anchor="middle" class="lbl">2.1</text>
<line x1="252.3" y1="55" x2="252.3" y2="365" class="grid"/>
<text x="252.3" y="381" text-anchor="middle" class="lbl">4.1</text>
<line x1="343.5" y1="55" x2="343.5" y2="365" class="grid"/>
<text x="343.5" y="381" text-anchor="middle" class="lbl">6.2</text>
<line x1="434.7" y1="55" x2="434.7" y2="365" class="grid"/>
<text x="434.7" y="381" text-anchor="middle" class="lbl">8.3</text>
<line x1="525.8" y1="55" x2="525.8" y2="365" class="grid"/>
<text x="525.8" y="381" text-anchor="middle" class="lbl">10.4</text>
<line x1="617.0" y1="55" x2="617.0" y2="365" class="grid"/>
<text x="617.0" y="381" text-anchor="middle" class="lbl">12.4</text>
<text x="343.5" y="408" text-anchor="middle" class="lbl">radius (kpc)</text>
<text x="16" y="210" text-anchor="middle" class="lbl-l" transform="rotate(-90, 16, 210)">velocity (km/s)</text>
<text x="654" y="210" text-anchor="middle" class="lbl-r" transform="rotate(-90, 654, 210)">mass profile (normalized to peak)</text>
<rect x="70" y="55" width="547" height="310" class="ax"/>
<path d="M 70.0,158.3 L 72.5,158.8 L 75.0,159.3 L 77.5,159.7 L 80.0,160.2 L 82.5,160.6 L 85.0,160.7 L 87.5,160.9 L 90.0,161.0 L 92.5,161.2 L 95.0,161.3 L 97.5,161.4 L 100.0,161.6 L 102.5,161.7 L 105.0,161.9 L 107.5,162.0 L 110.0,162.2 L 112.5,162.3 L 115.0,162.5 L 117.5,162.6 L 120.0,162.8 L 122.5,162.9 L 124.9,163.1 L 127.4,163.2 L 129.9,163.4 L 132.4,163.5 L 134.9,163.7 L 137.4,163.8 L 139.9,164.0 L 142.4,164.1 L 144.9,164.3 L 147.4,164.9 L 149.9,166.7 L 152.4,168.4 L 154.9,170.2 L 157.4,171.9 L 159.9,173.6 L 162.4,175.4 L 164.9,177.1 L 167.4,178.9 L 169.9,180.6 L 172.4,182.4 L 174.9,184.1 L 177.4,185.8 L 179.9,187.6 L 182.4,189.3 L 184.9,191.1 L 187.4,192.8 L 189.9,194.6 L 192.4,196.3 L 194.9,198.1 L 197.4,199.8 L 199.9,201.5 L 202.4,203.3 L 204.9,205.0 L 207.4,206.8 L 209.9,208.5 L 212.4,210.3 L 214.9,212.0 L 217.4,213.7 L 219.9,215.5 L 222.4,217.2 L 224.9,219.0 L 227.4,220.7 L 229.9,222.5 L 232.4,224.2 L 234.8,226.0 L 237.3,227.7 L 239.8,229.4 L 242.3,231.2 L 244.8,232.9 L 247.3,234.7 L 249.8,236.4 L 252.3,238.1 L 254.8,238.6 L 257.3,239.2 L 259.8,239.7 L 262.3,240.3 L 264.8,240.8 L 267.3,241.4 L 269.8,241.9 L 272.3,242.5 L 274.8,243.0 L 277.3,243.6 L 279.8,244.1 L 282.3,244.7 L 284.8,245.2 L 287.3,245.8 L 289.8,246.3 L 292.3,246.9 L 294.8,247.4 L 297.3,248.0 L 299.8,248.5 L 302.3,249.1 L 304.8,249.6 L 307.3,250.2 L 309.8,250.7 L 312.3,251.3 L 314.8,251.8 L 317.3,252.4 L 319.8,252.9 L 322.3,253.5 L 324.8,254.0 L 327.3,254.6 L 329.8,255.1 L 332.3,255.7 L 334.8,256.2 L 337.3,256.7 L 339.8,257.3 L 342.3,257.8 L 344.7,258.4 L 347.2,258.9 L 349.7,259.5 L 352.2,260.0 L 354.7,260.6 L 357.2,261.1 L 359.7,261.7 L 362.2,262.2 L 364.7,262.8 L 367.2,263.3 L 369.7,263.9 L 372.2,264.4 L 374.7,265.0 L 377.2,265.5 L 379.7,266.1 L 382.2,266.6 L 384.7,267.2 L 387.2,267.7 L 389.7,268.3 L 392.2,268.8 L 394.7,269.4 L 397.2,269.9 L 399.7,270.5 L 402.2,271.0 L 404.7,271.6 L 407.2,272.1 L 409.7,272.7 L 412.2,273.2 L 414.7,273.8 L 417.2,274.3 L 419.7,274.9 L 422.2,275.4 L 424.7,276.0 L 427.2,276.5 L 429.7,277.1 L 432.2,277.6 L 434.7,278.2 L 437.2,278.7 L 439.7,279.3 L 442.2,279.8 L 444.7,280.3 L 447.2,280.9 L 449.7,281.4 L 452.2,282.0 L 454.6,282.5 L 457.1,283.1 L 459.6,283.6 L 462.1,284.2 L 464.6,284.7 L 467.1,285.3 L 469.6,285.8 L 472.1,286.4 L 474.6,286.9 L 477.1,287.5 L 479.6,288.0 L 482.1,288.6 L 484.6,289.1 L 487.1,289.7 L 489.6,290.2 L 492.1,290.8 L 494.6,291.3 L 497.1,291.9 L 499.6,292.4 L 502.1,293.0 L 504.6,293.5 L 507.1,294.1 L 509.6,294.6 L 512.1,295.2 L 514.6,295.7 L 517.1,296.3 L 519.6,296.8 L 522.1,297.4 L 524.6,297.9 L 527.1,298.5 L 529.6,299.0 L 532.1,299.6 L 534.6,300.1 L 537.1,300.7 L 539.6,301.2 L 542.1,303.1 L 544.6,306.3 L 547.1,309.5 L 549.6,312.6 L 552.1,315.8 L 554.6,318.9 L 557.1,322.1 L 559.6,325.3 L 562.1,328.4 L 564.5,331.6 L 567.0,334.7 L 569.5,337.9 L 572.0,341.1 L 574.5,344.2 L 577.0,347.4 L 579.5,350.5 L 582.0,353.7 L 584.5,356.9 L 587.0,360.0 L 589.5,363.2 L 592.0,365.0 L 594.5,365.0 L 597.0,365.0 L 599.5,365.0 L 602.0,365.0 L 604.5,365.0 L 607.0,365.0 L 609.5,365.0 L 612.0,365.0 L 614.5,365.0 L 617.0,365.0" class="rho"/>
<path d="M 70.0,158.3 L 72.5,158.4 L 75.0,158.4 L 77.5,158.5 L 80.0,158.7 L 82.5,158.8 L 85.0,159.0 L 87.5,159.3 L 90.0,159.5 L 92.5,159.9 L 95.0,160.2 L 97.5,160.6 L 100.0,161.0 L 102.5,161.5 L 105.0,162.0 L 107.5,162.5 L 110.0,163.1 L 112.5,163.7 L 115.0,164.3 L 117.5,165.0 L 120.0,165.7 L 122.5,166.5 L 124.9,167.3 L 127.4,168.1 L 129.9,169.0 L 132.4,169.9 L 134.9,170.9 L 137.4,171.9 L 139.9,172.9 L 142.4,174.0 L 144.9,175.2 L 147.4,176.3 L 149.9,177.5 L 152.4,178.8 L 154.9,180.1 L 157.4,181.4 L 159.9,182.8 L 162.4,184.2 L 164.9,185.6 L 167.4,187.0 L 169.9,188.5 L 172.4,190.0 L 174.9,191.5 L 177.4,193.0 L 179.9,194.6 L 182.4,196.1 L 184.9,197.7 L 187.4,199.3 L 189.9,200.9 L 192.4,202.4 L 194.9,204.0 L 197.4,205.6 L 199.9,207.2 L 202.4,208.8 L 204.9,210.4 L 207.4,212.0 L 209.9,213.6 L 212.4,215.2 L 214.9,216.7 L 217.4,218.3 L 219.9,219.9 L 222.4,221.4 L 224.9,222.9 L 227.4,224.5 L 229.9,226.0 L 232.4,227.5 L 234.8,229.0 L 237.3,230.4 L 239.8,231.9 L 242.3,233.3 L 244.8,234.7 L 247.3,236.1 L 249.8,237.5 L 252.3,238.8 L 254.8,240.1 L 257.3,241.4 L 259.8,242.7 L 262.3,244.0 L 264.8,245.2 L 267.3,246.4 L 269.8,247.6 L 272.3,248.8 L 274.8,250.0 L 277.3,251.2 L 279.8,252.3 L 282.3,253.4 L 284.8,254.5 L 287.3,255.6 L 289.8,256.7 L 292.3,257.8 L 294.8,258.8 L 297.3,259.9 L 299.8,260.9 L 302.3,262.0 L 304.8,263.0 L 307.3,264.0 L 309.8,265.0 L 312.3,266.0 L 314.8,266.9 L 317.3,267.9 L 319.8,268.9 L 322.3,269.8 L 324.8,270.8 L 327.3,271.7 L 329.8,272.6 L 332.3,273.5 L 334.8,274.4 L 337.3,275.3 L 339.8,276.2 L 342.3,277.1 L 344.7,278.0 L 347.2,278.9 L 349.7,279.8 L 352.2,280.6 L 354.7,281.5 L 357.2,282.3 L 359.7,283.2 L 362.2,284.0 L 364.7,284.8 L 367.2,285.6 L 369.7,286.5 L 372.2,287.3 L 374.7,288.1 L 377.2,288.9 L 379.7,289.7 L 382.2,290.5 L 384.7,291.2 L 387.2,292.0 L 389.7,292.8 L 392.2,293.6 L 394.7,294.3 L 397.2,295.1 L 399.7,295.8 L 402.2,296.6 L 404.7,297.3 L 407.2,298.0 L 409.7,298.8 L 412.2,299.5 L 414.7,300.2 L 417.2,300.9 L 419.7,301.6 L 422.2,302.3 L 424.7,303.1 L 427.2,303.7 L 429.7,304.4 L 432.2,305.1 L 434.7,305.8 L 437.2,306.5 L 439.7,307.2 L 442.2,307.8 L 444.7,308.5 L 447.2,309.1 L 449.7,309.8 L 452.2,310.5 L 454.6,311.1 L 457.1,311.7 L 459.6,312.4 L 462.1,313.0 L 464.6,313.6 L 467.1,314.3 L 469.6,314.9 L 472.1,315.5 L 474.6,316.1 L 477.1,316.7 L 479.6,317.3 L 482.1,318.0 L 484.6,318.6 L 487.1,319.2 L 489.6,319.7 L 492.1,320.3 L 494.6,320.9 L 497.1,321.5 L 499.6,322.1 L 502.1,322.7 L 504.6,323.3 L 507.1,323.8 L 509.6,324.4 L 512.1,325.0 L 514.6,325.6 L 517.1,326.1 L 519.6,326.7 L 522.1,327.3 L 524.6,327.8 L 527.1,328.4 L 529.6,329.0 L 532.1,329.5 L 534.6,330.1 L 537.1,330.7 L 539.6,331.2 L 542.1,331.8 L 544.6,332.4 L 547.1,332.9 L 549.6,333.5 L 552.1,334.0 L 554.6,334.6 L 557.1,335.1 L 559.6,335.6 L 562.1,336.1 L 564.5,336.6 L 567.0,337.1 L 569.5,337.6 L 572.0,338.1 L 574.5,338.5 L 577.0,339.0 L 579.5,339.4 L 582.0,339.8 L 584.5,340.2 L 587.0,340.6 L 589.5,341.0 L 592.0,341.4 L 594.5,341.7 L 597.0,342.1 L 599.5,342.4 L 602.0,342.7 L 604.5,343.1 L 607.0,343.4 L 609.5,343.7 L 612.0,344.0 L 614.5,344.2 L 617.0,344.5" class="sig"/>
<path d="M 75.5,333.9 L 80.9,321.1 L 86.4,311.3 L 91.9,303.1 L 97.3,295.8 L 102.8,289.2 L 108.3,283.2 L 113.8,277.6 L 119.2,272.4 L 124.7,267.4 L 130.2,262.7 L 135.6,258.2 L 141.1,253.9 L 146.6,249.8 L 152.1,245.8 L 157.5,242.2 L 163.0,238.8 L 168.5,235.5 L 173.9,232.5 L 179.4,229.7 L 184.9,227.0 L 190.3,224.4 L 195.8,222.0 L 201.3,219.7 L 206.7,217.5 L 212.2,215.5 L 217.7,213.6 L 223.2,211.7 L 228.6,210.0 L 234.1,208.4 L 239.6,206.9 L 245.0,205.5 L 250.5,204.1 L 256.0,202.8 L 261.5,201.6 L 266.9,200.3 L 272.4,199.1 L 277.9,197.9 L 283.3,196.7 L 288.8,195.5 L 294.3,194.3 L 299.7,193.2 L 305.2,192.1 L 310.7,191.0 L 316.2,189.9 L 321.6,188.8 L 327.1,187.8 L 332.6,186.7 L 338.0,185.7 L 343.5,184.7 L 349.0,183.8 L 354.4,182.8 L 359.9,181.9 L 365.4,181.0 L 370.8,180.1 L 376.3,179.2 L 381.8,178.4 L 387.3,177.5 L 392.7,176.7 L 398.2,175.9 L 403.7,175.2 L 409.1,174.4 L 414.6,173.7 L 420.1,173.0 L 425.6,172.3 L 431.0,171.6 L 436.5,171.0 L 442.0,170.3 L 447.4,169.7 L 452.9,169.1 L 458.4,168.6 L 463.8,168.0 L 469.3,167.5 L 474.8,166.9 L 480.3,166.4 L 485.7,166.0 L 491.2,165.5 L 496.7,165.0 L 502.1,164.6 L 507.6,164.2 L 513.1,163.8 L 518.5,163.4 L 524.0,163.1 L 529.5,162.8 L 535.0,162.4 L 540.4,162.1 L 545.9,161.9 L 551.4,161.8 L 556.8,161.9 L 562.3,162.1 L 567.8,162.5 L 573.2,163.0 L 578.7,163.6 L 584.2,164.4 L 589.6,165.4 L 595.1,166.4 L 600.6,167.4 L 606.1,168.4 L 611.5,169.4 L 617.0,170.4" class="nt"/>
<path d="M 74.6,357.5 L 79.1,351.3 L 83.7,344.6 L 88.2,337.9 L 92.8,331.2 L 97.3,324.5 L 101.9,317.8 L 106.5,311.0 L 111.0,304.2 L 115.6,297.3 L 120.1,290.3 L 124.7,283.3 L 129.3,276.1 L 133.8,268.9 L 138.4,261.6 L 142.9,254.3 L 147.5,247.1 L 152.1,240.2 L 156.6,233.5 L 161.2,227.2 L 165.7,221.3 L 170.3,215.8 L 174.8,210.8 L 179.4,206.0 L 184.0,201.6 L 188.5,197.6 L 193.1,193.9 L 197.6,190.5 L 202.2,187.4 L 206.8,184.6 L 211.3,182.2 L 215.9,180.0 L 220.4,178.1 L 225.0,176.6 L 229.5,175.4 L 234.1,174.5 L 238.7,174.0 L 243.2,173.8 L 247.8,173.8 L 252.3,174.1 L 256.9,174.5 L 261.5,175.0 L 266.0,175.4 L 270.6,175.8 L 275.1,176.1 L 279.7,176.4 L 284.2,176.5 L 288.8,176.6 L 293.4,176.6 L 297.9,176.6 L 302.5,176.5 L 307.0,176.4 L 311.6,176.3 L 316.1,176.2 L 320.7,176.0 L 325.3,175.8 L 329.8,175.6 L 334.4,175.4 L 338.9,175.2 L 343.5,175.0 L 348.1,174.8 L 352.6,174.5 L 357.2,174.3 L 361.7,174.1 L 366.3,173.9 L 370.9,173.8 L 375.4,173.6 L 380.0,173.4 L 384.5,173.3 L 389.1,173.1 L 393.6,173.0 L 398.2,172.9 L 402.8,172.8 L 407.3,172.7 L 411.9,172.6 L 416.4,172.5 L 421.0,172.5 L 425.6,172.4 L 430.1,172.4 L 434.7,172.4 L 439.2,172.4 L 443.8,172.3 L 448.3,172.3 L 452.9,172.3 L 457.5,172.3 L 462.0,172.3 L 466.6,172.3 L 471.1,172.2 L 475.7,172.2 L 480.3,172.1 L 484.8,172.0 L 489.4,171.9 L 493.9,171.7 L 498.5,171.4 L 503.0,171.1 L 507.6,170.7 L 512.2,170.2 L 516.7,169.6 L 521.3,168.9 L 525.8,168.1 L 530.4,167.3 L 535.0,166.5 L 539.5,166.0 L 544.1,165.8 L 548.6,166.2 L 553.2,167.2 L 557.7,168.9 L 562.3,171.3 L 566.9,174.3 L 571.4,177.8 L 576.0,181.7 L 580.5,185.8 L 585.1,190.0 L 589.6,194.2 L 594.2,198.3 L 598.8,202.2 L 603.3,205.9 L 607.9,209.4 L 612.4,212.6 L 617.0,215.7" class="fw"/>
<line x1="82.30" y1="332.17" x2="82.30" y2="358.35" class="err"/>
<line x1="79.30" y1="332.17" x2="85.30" y2="332.17" class="err"/>
<line x1="79.30" y1="358.35" x2="85.30" y2="358.35" class="err"/>
<circle cx="82.30" cy="345.26" r="2.5" class="obs"/>
<line x1="108.23" y1="294.19" x2="108.23" y2="320.36" class="err"/>
<line x1="105.23" y1="294.19" x2="111.23" y2="294.19" class="err"/>
<line x1="105.23" y1="320.36" x2="111.23" y2="320.36" class="err"/>
<circle cx="108.23" cy="307.28" r="2.5" class="obs"/>
<line x1="134.16" y1="253.57" x2="134.16" y2="282.36" class="err"/>
<line x1="131.16" y1="253.57" x2="137.16" y2="253.57" class="err"/>
<line x1="131.16" y1="282.36" x2="137.16" y2="282.36" class="err"/>
<circle cx="134.16" cy="267.96" r="2.5" class="obs"/>
<line x1="160.09" y1="206.26" x2="160.09" y2="253.37" class="err"/>
<line x1="157.09" y1="206.26" x2="163.09" y2="206.26" class="err"/>
<line x1="157.09" y1="253.37" x2="163.09" y2="253.37" class="err"/>
<circle cx="160.09" cy="229.81" r="2.5" class="obs"/>
<line x1="173.27" y1="183.70" x2="173.27" y2="241.76" class="err"/>
<line x1="170.27" y1="183.70" x2="176.27" y2="183.70" class="err"/>
<line x1="170.27" y1="241.76" x2="176.27" y2="241.76" class="err"/>
<circle cx="173.27" cy="212.73" r="2.5" class="obs"/>
<line x1="279.18" y1="161.51" x2="279.18" y2="190.30" class="err"/>
<line x1="276.18" y1="161.51" x2="282.18" y2="161.51" class="err"/>
<line x1="276.18" y1="190.30" x2="282.18" y2="190.30" class="err"/>
<circle cx="279.18" cy="175.90" r="2.5" class="obs"/>
<line x1="415.41" y1="158.19" x2="415.41" y2="186.99" class="err"/>
<line x1="412.41" y1="158.19" x2="418.41" y2="158.19" class="err"/>
<line x1="412.41" y1="186.99" x2="418.41" y2="186.99" class="err"/>
<circle cx="415.41" cy="172.59" r="2.5" class="obs"/>
<line x1="452.33" y1="143.39" x2="452.33" y2="198.46" class="err"/>
<line x1="449.33" y1="143.39" x2="455.33" y2="143.39" class="err"/>
<line x1="449.33" y1="198.46" x2="455.33" y2="198.46" class="err"/>
<circle cx="452.33" cy="170.93" r="2.5" class="obs"/>
<line x1="517.37" y1="83.18" x2="517.37" y2="255.36" class="err"/>
<line x1="514.37" y1="83.18" x2="520.37" y2="83.18" class="err"/>
<line x1="514.37" y1="255.36" x2="520.37" y2="255.36" class="err"/>
<circle cx="517.37" cy="169.27" r="2.5" class="obs"/>
<line x1="530.11" y1="102.42" x2="530.11" y2="236.12" class="err"/>
<line x1="527.11" y1="102.42" x2="533.11" y2="102.42" class="err"/>
<line x1="527.11" y1="236.12" x2="533.11" y2="236.12" class="err"/>
<circle cx="530.11" cy="169.27" r="2.5" class="obs"/>
<g class="legend">
<line x1="82" y1="69" x2="106" y2="69" class="fw"/>
<text x="112" y="73" class="lbl-l">framework fit</text>
<line x1="82" y1="87" x2="106" y2="87" class="nt"/>
<text x="112" y="91" class="lbl-l">Newtonian (no halo)</text>
<circle cx="94" cy="105" r="2.5" class="obs"/>
<text x="112" y="109" class="lbl">observed V±err</text>
</g>
<g class="legend">
<line x1="442" y1="69" x2="466" y2="69" class="rho"/>
<text x="472" y="73" class="lbl-r">ρ(r) raw</text>
<line x1="442" y1="87" x2="466" y2="87" class="sig"/>
<text x="472" y="91" class="lbl-s">Σ(r) cumulative</text>
<text x="442" y="113" class="lbl-r">ρ peak: 210 M☉/pc²</text>
</g>
<rect x="705" y="55" width="170" height="170" class="preview-bg"/>
<defs><radialGradient id="g_F563_V2" cx="0.5" cy="0.5" r="0.5">
  <stop offset="0.0000" stop-color="rgb(94,94,94)"/>
  <stop offset="0.0313" stop-color="rgb(93,93,93)"/>
  <stop offset="0.0625" stop-color="rgb(93,93,93)"/>
  <stop offset="0.0938" stop-color="rgb(92,92,92)"/>
  <stop offset="0.1250" stop-color="rgb(92,92,92)"/>
  <stop offset="0.1563" stop-color="rgb(91,91,91)"/>
  <stop offset="0.1875" stop-color="rgb(88,88,88)"/>
  <stop offset="0.2188" stop-color="rgb(85,85,85)"/>
  <stop offset="0.2500" stop-color="rgb(82,82,82)"/>
  <stop offset="0.2813" stop-color="rgb(78,78,78)"/>
  <stop offset="0.3125" stop-color="rgb(75,75,75)"/>
  <stop offset="0.3438" stop-color="rgb(72,72,72)"/>
  <stop offset="0.3750" stop-color="rgb(71,71,71)"/>
  <stop offset="0.4063" stop-color="rgb(70,70,70)"/>
  <stop offset="0.4375" stop-color="rgb(69,69,69)"/>
  <stop offset="0.4688" stop-color="rgb(68,68,68)"/>
  <stop offset="0.5000" stop-color="rgb(67,67,67)"/>
  <stop offset="0.5313" stop-color="rgb(66,66,66)"/>
  <stop offset="0.5625" stop-color="rgb(65,65,65)"/>
  <stop offset="0.5938" stop-color="rgb(64,64,64)"/>
  <stop offset="0.6250" stop-color="rgb(62,62,62)"/>
  <stop offset="0.6563" stop-color="rgb(59,59,59)"/>
  <stop offset="0.6875" stop-color="rgb(57,57,57)"/>
  <stop offset="0.7188" stop-color="rgb(55,55,55)"/>
  <stop offset="0.7500" stop-color="rgb(52,52,52)"/>
  <stop offset="0.7813" stop-color="rgb(50,50,50)"/>
  <stop offset="0.8125" stop-color="rgb(48,48,48)"/>
  <stop offset="0.8438" stop-color="rgb(46,46,46)"/>
  <stop offset="0.8750" stop-color="rgb(43,43,43)"/>
  <stop offset="0.9063" stop-color="rgb(40,40,40)"/>
  <stop offset="0.9375" stop-color="rgb(27,27,27)"/>
  <stop offset="0.9688" stop-color="rgb(13,13,13)"/>
  <stop offset="1.0000" stop-color="rgb(0,0,0)"/>
</radialGradient></defs>
<circle cx="790" cy="140" r="81" fill="url(#g_F563_V2)"/>
<text x="790" y="49" text-anchor="middle" class="preview-lbl">face-on luminance from ρ(r)</text>
<text x="790" y="239" text-anchor="middle" class="preview-lbl">edge at r = 11.9 kpc</text>
</svg>