<svg xmlns="http://www.w3.org/2000/svg" viewBox="0 0 960 450" width="960" height="450" font-family="sans-serif" font-size="12">
<style>
  .ax { stroke: #333; stroke-width: 1; fill: none; }
  .grid { stroke: #ddd; stroke-width: 0.5; fill: none; }
  .lbl { fill: #333; }
  .lbl-l { fill: #0066cc; }
  .lbl-r { fill: #b03030; }
  .obs { fill: #222; }
  .err { stroke: #555; stroke-width: 0.8; fill: none; }
  .fw { stroke: #0066cc; stroke-width: 2.2; fill: none; }
  .nt { stroke: #cc6600; stroke-width: 1.6; fill: none; stroke-dasharray: 5,3; }
  .mond { stroke: #7b2cbf; stroke-width: 1.8; fill: none; stroke-dasharray: 7,3; }
  .lbl-p { fill: #cc7000; }
  .lbl-m { fill: #7b2cbf; }
  .rho { stroke: #b03030; stroke-width: 2.0; fill: none; }
  .phot { stroke: #cc7000; stroke-width: 1.8; fill: none; }
  .mbar { stroke: #8e44ad; stroke-width: 1.8; fill: none; opacity: 0.9; }
  .mph { stroke: #c77dff; stroke-width: 1.6; fill: none; stroke-dasharray: 4,3; opacity: 0.95; }
  .title { fill: #111; font-size: 16px; font-weight: 600; }
  .subtitle { fill: #555; font-size: 11px; }
  .preview-bg { fill: #000; }
  .preview-lbl { fill: #888; font-size: 10px; }
  .legend { font-size: 11px; }
</style>
<text x="378.5" y="22" text-anchor="middle" class="title">F563-V2</text>
<text x="378.5" y="38" text-anchor="middle" class="subtitle">rMax=10.5 kpc, N=10, FW=0.6 km/s, 2.3%, 0.05σ, MOND=23.5 km/s, 25.4%, 2.08σ, amp=104</text>
<line x1="70" y1="395.0" x2="687" y2="395.0" class="grid"/>
<text x="64" y="399.0" text-anchor="end" class="lbl-l">0</text>
<line x1="70" y1="327.0" x2="687" y2="327.0" class="grid"/>
<text x="64" y="331.0" text-anchor="end" class="lbl-l">37</text>
<line x1="70" y1="259.0" x2="687" y2="259.0" class="grid"/>
<text x="64" y="263.0" text-anchor="end" class="lbl-l">75</text>
<line x1="70" y1="191.0" x2="687" y2="191.0" class="grid"/>
<text x="64" y="195.0" text-anchor="end" class="lbl-l">112</text>
<line x1="70" y1="123.0" x2="687" y2="123.0" class="grid"/>
<text x="64" y="127.0" text-anchor="end" class="lbl-l">150</text>
<line x1="70" y1="55.0" x2="687" y2="55.0" class="grid"/>
<text x="64" y="59.0" text-anchor="end" class="lbl-l">187</text>
<text x="693" y="399.0" text-anchor="start" class="lbl-r">0.0</text>
<text x="693" y="353.7" text-anchor="start" class="lbl-r">0.2</text>
<text x="693" y="308.3" text-anchor="start" class="lbl-r">0.4</text>
<text x="693" y="263.0" text-anchor="start" class="lbl-r">0.6</text>
<text x="693" y="217.7" text-anchor="start" class="lbl-r">0.8</text>
<text x="693" y="172.3" text-anchor="start" class="lbl-r">1.0</text>
<line x1="70.0" y1="55" x2="70.0" y2="395" class="grid"/>
<text x="70.0" y="411" text-anchor="middle" class="lbl">0.0</text>
<line x1="172.8" y1="55" x2="172.8" y2="395" class="grid"/>
<text x="172.8" y="411" text-anchor="middle" class="lbl">2.1</text>
<line x1="275.7" y1="55" x2="275.7" y2="395" class="grid"/>
<text x="275.7" y="411" text-anchor="middle" class="lbl">4.1</text>
<line x1="378.5" y1="55" x2="378.5" y2="395" class="grid"/>
<text x="378.5" y="411" text-anchor="middle" class="lbl">6.2</text>
<line x1="481.3" y1="55" x2="481.3" y2="395" class="grid"/>
<text x="481.3" y="411" text-anchor="middle" class="lbl">8.3</text>
<line x1="584.2" y1="55" x2="584.2" y2="395" class="grid"/>
<text x="584.2" y="411" text-anchor="middle" class="lbl">10.4</text>
<line x1="687.0" y1="55" x2="687.0" y2="395" class="grid"/>
<text x="687.0" y="411" text-anchor="middle" class="lbl">12.4</text>
<text x="378.5" y="438" text-anchor="middle" class="lbl">radius (kpc)</text>
<text x="16" y="225" text-anchor="middle" class="lbl-l" transform="rotate(-90, 16, 225)">velocity (km/s)</text>
<text x="724" y="225" text-anchor="middle" class="lbl-r" transform="rotate(-90, 724, 225)">profiles (normalized to peak)</text>
<rect x="70" y="55" width="617" height="340" class="ax"/>
<path d="M 70.0,168.3 L 72.8,168.8 L 75.6,169.4 L 78.5,169.9 L 81.3,170.4 L 84.1,170.8 L 86.9,170.9 L 89.7,171.1 L 92.5,171.3 L 95.4,171.4 L 98.2,171.6 L 101.0,171.8 L 103.8,171.9 L 106.6,172.1 L 109.4,172.2 L 112.3,172.4 L 115.1,172.6 L 117.9,172.7 L 120.7,172.9 L 123.5,173.1 L 126.3,173.2 L 129.2,173.4 L 132.0,173.6 L 134.8,173.7 L 137.6,173.9 L 140.4,174.0 L 143.3,174.2 L 146.1,174.4 L 148.9,174.5 L 151.7,174.7 L 154.5,174.9 L 157.3,175.6 L 160.2,177.5 L 163.0,179.4 L 165.8,181.3 L 168.6,183.2 L 171.4,185.1 L 174.2,187.0 L 177.1,188.9 L 179.9,190.9 L 182.7,192.8 L 185.5,194.7 L 188.3,196.6 L 191.1,198.5 L 194.0,200.4 L 196.8,202.3 L 199.6,204.2 L 202.4,206.2 L 205.2,208.1 L 208.1,210.0 L 210.9,211.9 L 213.7,213.8 L 216.5,215.7 L 219.3,217.6 L 222.1,219.5 L 225.0,221.5 L 227.8,223.4 L 230.6,225.3 L 233.4,227.2 L 236.2,229.1 L 239.0,231.0 L 241.9,232.9 L 244.7,234.8 L 247.5,236.8 L 250.3,238.7 L 253.1,240.6 L 255.9,242.5 L 258.8,244.4 L 261.6,246.3 L 264.4,248.2 L 267.2,250.1 L 270.0,252.1 L 272.8,254.0 L 275.7,255.8 L 278.5,256.4 L 281.3,257.0 L 284.1,257.6 L 286.9,258.2 L 289.8,258.8 L 292.6,259.4 L 295.4,260.0 L 298.2,260.6 L 301.0,261.2 L 303.8,261.8 L 306.7,262.4 L 309.5,263.0 L 312.3,263.6 L 315.1,264.2 L 317.9,264.8 L 320.7,265.4 L 323.6,266.0 L 326.4,266.6 L 329.2,267.2 L 332.0,267.8 L 334.8,268.4 L 337.6,269.0 L 340.5,269.7 L 343.3,270.3 L 346.1,270.9 L 348.9,271.5 L 351.7,272.1 L 354.6,272.7 L 357.4,273.3 L 360.2,273.9 L 363.0,274.5 L 365.8,275.1 L 368.6,275.7 L 371.5,276.3 L 374.3,276.9 L 377.1,277.5 L 379.9,278.1 L 382.7,278.7 L 385.5,279.3 L 388.4,279.9 L 391.2,280.5 L 394.0,281.1 L 396.8,281.7 L 399.6,282.3 L 402.4,282.9 L 405.3,283.5 L 408.1,284.1 L 410.9,284.7 L 413.7,285.3 L 416.5,285.9 L 419.4,286.5 L 422.2,287.1 L 425.0,287.7 L 427.8,288.3 L 430.6,288.9 L 433.4,289.5 L 436.3,290.1 L 439.1,290.7 L 441.9,291.3 L 444.7,291.9 L 447.5,292.5 L 450.3,293.1 L 453.2,293.7 L 456.0,294.3 L 458.8,294.9 L 461.6,295.5 L 464.4,296.1 L 467.2,296.7 L 470.1,297.3 L 472.9,297.9 L 475.7,298.5 L 478.5,299.1 L 481.3,299.7 L 484.2,300.4 L 487.0,301.0 L 489.8,301.6 L 492.6,302.2 L 495.4,302.8 L 498.2,303.4 L 501.1,304.0 L 503.9,304.6 L 506.7,305.2 L 509.5,305.8 L 512.3,306.4 L 515.1,307.0 L 518.0,307.6 L 520.8,308.2 L 523.6,308.8 L 526.4,309.4 L 529.2,310.0 L 532.0,310.6 L 534.9,311.2 L 537.7,311.8 L 540.5,312.4 L 543.3,313.0 L 546.1,313.6 L 548.9,314.2 L 551.8,314.8 L 554.6,315.4 L 557.4,316.0 L 560.2,316.6 L 563.0,317.2 L 565.9,317.8 L 568.7,318.4 L 571.5,319.0 L 574.3,319.6 L 577.1,320.2 L 579.9,320.8 L 582.8,321.4 L 585.6,322.0 L 588.4,322.6 L 591.2,323.2 L 594.0,323.8 L 596.8,324.4 L 599.7,325.0 L 602.5,327.1 L 605.3,330.6 L 608.1,334.1 L 610.9,337.5 L 613.7,341.0 L 616.6,344.5 L 619.4,347.9 L 622.2,351.4 L 625.0,354.9 L 627.8,358.3 L 630.7,361.8 L 633.5,365.3 L 636.3,368.7 L 639.1,372.2 L 641.9,375.7 L 644.7,379.2 L 647.6,382.6 L 650.4,386.1 L 653.2,389.6 L 656.0,393.0 L 658.8,395.0 L 661.6,395.0 L 664.5,395.0 L 667.3,395.0 L 670.1,395.0 L 672.9,395.0 L 675.7,395.0 L 678.5,395.0 L 681.4,395.0 L 684.2,395.0 L 687.0,395.0" class="rho"/>
<path d="M 83.9,168.3 L 113.1,194.2 L 142.4,225.0 L 171.6,263.7 L 186.5,284.4 L 306.0,359.0 L 459.6,385.0 L 501.3,387.6 L 574.6,390.5 L 589.0,390.9" class="phot"/>
<path d="M 83.9,328.6 L 113.1,268.9 L 142.4,201.2 L 171.6,168.3 L 186.5,184.7 L 306.0,220.7 L 459.6,222.4 L 501.3,233.1 L 574.6,296.6 L 589.0,337.2" class="mbar"/>
<path d="M 83.9,267.4 L 113.1,223.9 L 142.4,183.5 L 171.6,168.3 L 186.5,176.8 L 306.0,193.7 L 459.6,194.2 L 501.3,200.3 L 574.6,234.7 L 589.0,257.8" class="mph"/>
<path d="M 76.2,360.9 L 82.3,346.9 L 88.5,336.1 L 94.7,327.1 L 100.8,319.1 L 107.0,311.9 L 113.2,305.3 L 119.4,299.1 L 125.5,293.4 L 131.7,288.0 L 137.9,282.8 L 144.0,277.9 L 150.2,273.1 L 156.4,268.6 L 162.6,264.3 L 168.7,260.3 L 174.9,256.5 L 181.1,253.0 L 187.2,249.7 L 193.4,246.6 L 199.6,243.6 L 205.7,240.8 L 211.9,238.1 L 218.1,235.6 L 224.2,233.3 L 230.4,231.0 L 236.6,228.9 L 242.8,226.9 L 248.9,225.0 L 255.1,223.3 L 261.3,221.6 L 267.4,220.0 L 273.6,218.5 L 279.8,217.1 L 286.0,215.8 L 292.1,214.4 L 298.3,213.0 L 304.5,211.7 L 310.6,210.4 L 316.8,209.1 L 323.0,207.8 L 329.1,206.6 L 335.3,205.3 L 341.5,204.1 L 347.7,202.9 L 353.8,201.8 L 360.0,200.6 L 366.2,199.5 L 372.3,198.4 L 378.5,197.3 L 384.7,196.2 L 390.8,195.2 L 397.0,194.2 L 403.2,193.2 L 409.3,192.2 L 415.5,191.2 L 421.7,190.3 L 427.9,189.4 L 434.0,188.5 L 440.2,187.6 L 446.4,186.8 L 452.5,186.0 L 458.7,185.2 L 464.9,184.4 L 471.1,183.6 L 477.2,182.9 L 483.4,182.2 L 489.6,181.5 L 495.7,180.8 L 501.9,180.2 L 508.1,179.5 L 514.2,178.9 L 520.4,178.3 L 526.6,177.8 L 532.8,177.2 L 538.9,176.7 L 545.1,176.2 L 551.3,175.7 L 557.4,175.2 L 563.6,174.8 L 569.8,174.3 L 575.9,173.9 L 582.1,173.5 L 588.3,173.2 L 594.4,172.8 L 600.6,172.5 L 606.8,172.2 L 613.0,172.2 L 619.1,172.2 L 625.3,172.5 L 631.5,172.9 L 637.6,173.4 L 643.8,174.1 L 650.0,175.0 L 656.1,176.0 L 662.3,177.2 L 668.5,178.3 L 674.7,179.4 L 680.8,180.5 L 687.0,181.6" class="nt"/>
<path d="M 83.9,372.3 L 113.1,343.1 L 142.4,320.5 L 171.6,302.1 L 186.5,295.2 L 306.0,260.7 L 459.6,225.0 L 501.3,213.3 L 574.6,208.7 L 589.0,207.8" class="mond"/>
<path d="M 75.1,386.7 L 80.3,380.0 L 85.4,372.6 L 90.6,365.3 L 95.7,357.9 L 100.8,350.6 L 106.0,343.2 L 111.1,335.8 L 116.3,328.3 L 121.4,320.8 L 126.6,313.1 L 131.7,305.4 L 136.8,297.5 L 142.0,289.6 L 147.1,281.6 L 152.3,273.6 L 157.4,265.7 L 162.6,258.1 L 167.7,250.8 L 172.8,243.9 L 178.0,237.4 L 183.1,231.4 L 188.3,225.8 L 193.4,220.6 L 198.5,215.8 L 203.7,211.4 L 208.8,207.3 L 214.0,203.6 L 219.1,200.2 L 224.3,197.2 L 229.4,194.5 L 234.5,192.1 L 239.7,190.0 L 244.8,188.4 L 250.0,187.0 L 255.1,186.1 L 260.2,185.5 L 265.4,185.2 L 270.5,185.3 L 275.7,185.6 L 280.8,186.1 L 286.0,186.6 L 291.1,187.1 L 296.2,187.5 L 301.4,187.9 L 306.5,188.1 L 311.7,188.3 L 316.8,188.4 L 321.9,188.4 L 327.1,188.4 L 332.2,188.3 L 337.4,188.2 L 342.5,188.1 L 347.7,187.9 L 352.8,187.7 L 357.9,187.5 L 363.1,187.3 L 368.2,187.0 L 373.4,186.8 L 378.5,186.6 L 383.6,186.3 L 388.8,186.1 L 393.9,185.9 L 399.1,185.7 L 404.2,185.5 L 409.4,185.3 L 414.5,185.1 L 419.6,184.9 L 424.8,184.7 L 429.9,184.6 L 435.1,184.4 L 440.2,184.3 L 445.3,184.2 L 450.5,184.1 L 455.6,184.0 L 460.8,183.9 L 465.9,183.9 L 471.1,183.8 L 476.2,183.8 L 481.3,183.7 L 486.5,183.7 L 491.6,183.7 L 496.8,183.7 L 501.9,183.7 L 507.0,183.7 L 512.2,183.6 L 517.3,183.6 L 522.5,183.6 L 527.6,183.5 L 532.8,183.4 L 537.9,183.3 L 543.0,183.2 L 548.2,183.0 L 553.3,182.7 L 558.5,182.3 L 563.6,181.9 L 568.7,181.3 L 573.9,180.7 L 579.0,179.9 L 584.2,179.0 L 589.3,178.1 L 594.4,177.3 L 599.6,176.7 L 604.7,176.5 L 609.9,176.9 L 615.0,178.1 L 620.2,179.9 L 625.3,182.6 L 630.4,185.9 L 635.6,189.7 L 640.7,194.0 L 645.9,198.5 L 651.0,203.1 L 656.1,207.7 L 661.3,212.2 L 666.4,216.4 L 671.6,220.5 L 676.7,224.3 L 681.9,227.9 L 687.0,231.2" class="fw"/>
<line x1="83.88" y1="359.00" x2="83.88" y2="387.70" class="err"/>
<line x1="80.88" y1="359.00" x2="86.88" y2="359.00" class="err"/>
<line x1="80.88" y1="387.70" x2="86.88" y2="387.70" class="err"/>
<circle cx="83.88" cy="373.35" r="2.5" class="obs"/>
<line x1="113.13" y1="317.34" x2="113.13" y2="346.04" class="err"/>
<line x1="110.13" y1="317.34" x2="116.13" y2="317.34" class="err"/>
<line x1="110.13" y1="346.04" x2="116.13" y2="346.04" class="err"/>
<circle cx="113.13" cy="331.69" r="2.5" class="obs"/>
<line x1="142.37" y1="272.78" x2="142.37" y2="304.36" class="err"/>
<line x1="139.37" y1="272.78" x2="145.37" y2="272.78" class="err"/>
<line x1="139.37" y1="304.36" x2="145.37" y2="304.36" class="err"/>
<circle cx="142.37" cy="288.57" r="2.5" class="obs"/>
<line x1="171.62" y1="220.90" x2="171.62" y2="272.56" class="err"/>
<line x1="168.62" y1="220.90" x2="174.62" y2="220.90" class="err"/>
<line x1="168.62" y1="272.56" x2="174.62" y2="272.56" class="err"/>
<circle cx="171.62" cy="246.73" r="2.5" class="obs"/>
<line x1="186.49" y1="196.16" x2="186.49" y2="259.83" class="err"/>
<line x1="183.49" y1="196.16" x2="189.49" y2="196.16" class="err"/>
<line x1="183.49" y1="259.83" x2="189.49" y2="259.83" class="err"/>
<circle cx="186.49" cy="227.99" r="2.5" class="obs"/>
<line x1="305.95" y1="171.81" x2="305.95" y2="203.40" class="err"/>
<line x1="302.95" y1="171.81" x2="308.95" y2="171.81" class="err"/>
<line x1="302.95" y1="203.40" x2="308.95" y2="203.40" class="err"/>
<circle cx="305.95" cy="187.61" r="2.5" class="obs"/>
<line x1="459.62" y1="168.18" x2="459.62" y2="199.76" class="err"/>
<line x1="456.62" y1="168.18" x2="462.62" y2="168.18" class="err"/>
<line x1="456.62" y1="199.76" x2="462.62" y2="199.76" class="err"/>
<circle cx="459.62" cy="183.97" r="2.5" class="obs"/>
<line x1="501.26" y1="151.95" x2="501.26" y2="212.35" class="err"/>
<line x1="498.26" y1="151.95" x2="504.26" y2="151.95" class="err"/>
<line x1="498.26" y1="212.35" x2="504.26" y2="212.35" class="err"/>
<circle cx="501.26" cy="182.15" r="2.5" class="obs"/>
<line x1="574.62" y1="85.91" x2="574.62" y2="274.75" class="err"/>
<line x1="571.62" y1="85.91" x2="577.62" y2="85.91" class="err"/>
<line x1="571.62" y1="274.75" x2="577.62" y2="274.75" class="err"/>
<circle cx="574.62" cy="180.33" r="2.5" class="obs"/>
<line x1="588.99" y1="107.01" x2="588.99" y2="253.64" class="err"/>
<line x1="585.99" y1="107.01" x2="591.99" y2="107.01" class="err"/>
<line x1="585.99" y1="253.64" x2="591.99" y2="253.64" class="err"/>
<circle cx="588.99" cy="180.33" r="2.5" class="obs"/>
<g class="legend">
<line x1="82" y1="69" x2="106" y2="69" class="fw"/>
<text x="112" y="73" class="lbl-l">framework: 0.6 km/s, 2.3%, 0.05σ</text>
<line x1="82" y1="87" x2="106" y2="87" class="nt"/>
<text x="112" y="91" class="lbl-l">Newtonian: 9.4 km/s, 45.4%, 1.04σ</text>
<line x1="82" y1="105" x2="106" y2="105" class="mond"/>
<text x="112" y="109" class="lbl-m">MOND/RAR: 23.5 km/s, 25.4%, 2.08σ</text>
<circle cx="94" cy="123" r="2.5" class="obs"/>
<text x="112" y="127" class="lbl">observed V±err</text>
</g>
<g class="legend">
<line x1="472" y1="69" x2="496" y2="69" class="rho"/>
<text x="502" y="73" class="lbl-r">ρ(r) raw</text>
<line x1="472" y1="87" x2="496" y2="87" class="phot"/>
<text x="502" y="91" class="lbl-p">photometric baryonic profile</text>
<line x1="472" y1="105" x2="496" y2="105" class="mbar"/>
<text x="502" y="109" class="lbl-m">MOND baryonic annulus</text>
<line x1="472" y1="123" x2="496" y2="123" class="mph"/>
<text x="502" y="127" class="lbl-m">MOND phantom annulus</text>
<text x="472" y="147" class="lbl-r">ρ peak: 210 M☉/pc²</text>
<text x="472" y="163" class="lbl-p">phot peak: 34.00 (arb.)</text>
<text x="472" y="179" class="lbl-m">Σbar peak: 26.46 M☉/pc²</text>
<text x="472" y="195" class="lbl-m">Σphantom peak: 73.05 M☉/pc²</text>
</g>
<rect x="775" y="55" width="170" height="170" class="preview-bg"/>
<defs><radialGradient id="g_F563_V2" cx="0.5" cy="0.5" r="0.5">
  <stop offset="0.0000" stop-color="rgb(94,94,94)"/>
  <stop offset="0.0313" stop-color="rgb(93,93,93)"/>
  <stop offset="0.0625" stop-color="rgb(93,93,93)"/>
  <stop offset="0.0938" stop-color="rgb(92,92,92)"/>
  <stop offset="0.1250" stop-color="rgb(92,92,92)"/>
  <stop offset="0.1563" stop-color="rgb(91,91,91)"/>
  <stop offset="0.1875" stop-color="rgb(88,88,88)"/>
  <stop offset="0.2188" stop-color="rgb(85,85,85)"/>
  <stop offset="0.2500" stop-color="rgb(82,82,82)"/>
  <stop offset="0.2813" stop-color="rgb(78,78,78)"/>
  <stop offset="0.3125" stop-color="rgb(75,75,75)"/>
  <stop offset="0.3438" stop-color="rgb(72,72,72)"/>
  <stop offset="0.3750" stop-color="rgb(71,71,71)"/>
  <stop offset="0.4063" stop-color="rgb(70,70,70)"/>
  <stop offset="0.4375" stop-color="rgb(69,69,69)"/>
  <stop offset="0.4688" stop-color="rgb(68,68,68)"/>
  <stop offset="0.5000" stop-color="rgb(67,67,67)"/>
  <stop offset="0.5313" stop-color="rgb(66,66,66)"/>
  <stop offset="0.5625" stop-color="rgb(65,65,65)"/>
  <stop offset="0.5938" stop-color="rgb(64,64,64)"/>
  <stop offset="0.6250" stop-color="rgb(62,62,62)"/>
  <stop offset="0.6563" stop-color="rgb(59,59,59)"/>
  <stop offset="0.6875" stop-color="rgb(57,57,57)"/>
  <stop offset="0.7188" stop-color="rgb(55,55,55)"/>
  <stop offset="0.7500" stop-color="rgb(52,52,52)"/>
  <stop offset="0.7813" stop-color="rgb(50,50,50)"/>
  <stop offset="0.8125" stop-color="rgb(48,48,48)"/>
  <stop offset="0.8438" stop-color="rgb(46,46,46)"/>
  <stop offset="0.8750" stop-color="rgb(43,43,43)"/>
  <stop offset="0.9063" stop-color="rgb(40,40,40)"/>
  <stop offset="0.9375" stop-color="rgb(27,27,27)"/>
  <stop offset="0.9688" stop-color="rgb(13,13,13)"/>
  <stop offset="1.0000" stop-color="rgb(0,0,0)"/>
</radialGradient></defs>
<circle cx="860" cy="140" r="81" fill="url(#g_F563_V2)"/>
<text x="860" y="49" text-anchor="middle" class="preview-lbl">face-on luminance from ρ(r)</text>
<text x="860" y="239" text-anchor="middle" class="preview-lbl">edge at r = 11.9 kpc</text>
</svg>