<svg xmlns="http://www.w3.org/2000/svg" viewBox="0 0 890 420" width="890" height="420" font-family="sans-serif" font-size="12">
<style>
  .ax { stroke: #333; stroke-width: 1; fill: none; }
  .grid { stroke: #ddd; stroke-width: 0.5; fill: none; }
  .lbl { fill: #333; }
  .lbl-l { fill: #0066cc; }
  .lbl-r { fill: #b03030; }
  .obs { fill: #222; }
  .err { stroke: #555; stroke-width: 0.8; fill: none; }
  .fw { stroke: #0066cc; stroke-width: 2.2; fill: none; }
  .nt { stroke: #cc6600; stroke-width: 1.6; fill: none; stroke-dasharray: 5,3; }
  .lbl-s { fill: #cc7000; }
  .rho { stroke: #b03030; stroke-width: 2.0; fill: none; }
  .sig { stroke: #cc7000; stroke-width: 1.8; fill: none; }
  .title { fill: #111; font-size: 16px; font-weight: 600; }
  .subtitle { fill: #555; font-size: 11px; }
  .preview-bg { fill: #000; }
  .preview-lbl { fill: #888; font-size: 10px; }
  .legend { font-size: 11px; }
</style>
<text x="343.5" y="22" text-anchor="middle" class="title">F563-1</text>
<text x="343.5" y="38" text-anchor="middle" class="subtitle">rMax=20.1 kpc, N=17, RMS=2.3 km/s (2.6%), amp=105</text>
<line x1="70" y1="365.0" x2="617" y2="365.0" class="grid"/>
<text x="64" y="369.0" text-anchor="end" class="lbl-l">0</text>
<line x1="70" y1="303.0" x2="617" y2="303.0" class="grid"/>
<text x="64" y="307.0" text-anchor="end" class="lbl-l">30</text>
<line x1="70" y1="241.0" x2="617" y2="241.0" class="grid"/>
<text x="64" y="245.0" text-anchor="end" class="lbl-l">60</text>
<line x1="70" y1="179.0" x2="617" y2="179.0" class="grid"/>
<text x="64" y="183.0" text-anchor="end" class="lbl-l">89</text>
<line x1="70" y1="117.0" x2="617" y2="117.0" class="grid"/>
<text x="64" y="121.0" text-anchor="end" class="lbl-l">119</text>
<line x1="70" y1="55.0" x2="617" y2="55.0" class="grid"/>
<text x="64" y="59.0" text-anchor="end" class="lbl-l">149</text>
<text x="623" y="369.0" text-anchor="start" class="lbl-r">0.0</text>
<text x="623" y="327.7" text-anchor="start" class="lbl-r">0.2</text>
<text x="623" y="286.3" text-anchor="start" class="lbl-r">0.4</text>
<text x="623" y="245.0" text-anchor="start" class="lbl-r">0.6</text>
<text x="623" y="203.7" text-anchor="start" class="lbl-r">0.8</text>
<text x="623" y="162.3" text-anchor="start" class="lbl-r">1.0</text>
<line x1="70.0" y1="55" x2="70.0" y2="365" class="grid"/>
<text x="70.0" y="381" text-anchor="middle" class="lbl">0.0</text>
<line x1="161.2" y1="55" x2="161.2" y2="365" class="grid"/>
<text x="161.2" y="381" text-anchor="middle" class="lbl">3.6</text>
<line x1="252.3" y1="55" x2="252.3" y2="365" class="grid"/>
<text x="252.3" y="381" text-anchor="middle" class="lbl">7.2</text>
<line x1="343.5" y1="55" x2="343.5" y2="365" class="grid"/>
<text x="343.5" y="381" text-anchor="middle" class="lbl">10.9</text>
<line x1="434.7" y1="55" x2="434.7" y2="365" class="grid"/>
<text x="434.7" y="381" text-anchor="middle" class="lbl">14.5</text>
<line x1="525.8" y1="55" x2="525.8" y2="365" class="grid"/>
<text x="525.8" y="381" text-anchor="middle" class="lbl">18.1</text>
<line x1="617.0" y1="55" x2="617.0" y2="365" class="grid"/>
<text x="617.0" y="381" text-anchor="middle" class="lbl">21.7</text>
<text x="343.5" y="408" text-anchor="middle" class="lbl">radius (kpc)</text>
<text x="16" y="210" text-anchor="middle" class="lbl-l" transform="rotate(-90, 16, 210)">velocity (km/s)</text>
<text x="654" y="210" text-anchor="middle" class="lbl-r" transform="rotate(-90, 654, 210)">mass profile (normalized to peak)</text>
<rect x="70" y="55" width="547" height="310" class="ax"/>
<path d="M 70.0,158.3 L 72.5,158.3 L 75.0,158.3 L 77.5,158.3 L 80.0,158.3 L 82.5,158.3 L 85.0,158.3 L 87.5,158.3 L 90.0,158.3 L 92.5,158.3 L 95.0,158.3 L 97.5,158.3 L 100.0,158.3 L 102.5,158.3 L 105.0,158.3 L 107.5,158.3 L 110.0,158.3 L 112.5,158.3 L 115.0,158.3 L 117.5,158.3 L 120.0,158.3 L 122.5,158.3 L 124.9,158.3 L 127.4,158.3 L 129.9,158.3 L 132.4,158.3 L 134.9,158.3 L 137.4,158.3 L 139.9,158.3 L 142.4,158.3 L 144.9,158.3 L 147.4,158.3 L 149.9,158.3 L 152.4,158.3 L 154.9,158.3 L 157.4,158.3 L 159.9,158.3 L 162.4,163.9 L 164.9,175.0 L 167.4,186.1 L 169.9,197.2 L 172.4,208.2 L 174.9,219.3 L 177.4,230.4 L 179.9,241.5 L 182.4,245.2 L 184.9,245.2 L 187.4,245.3 L 189.9,245.3 L 192.4,245.4 L 194.9,245.4 L 197.4,245.5 L 199.9,245.5 L 202.4,245.6 L 204.9,245.6 L 207.4,245.7 L 209.9,245.7 L 212.4,245.7 L 214.9,245.8 L 217.4,245.8 L 219.9,245.9 L 222.4,245.9 L 224.9,246.0 L 227.4,246.0 L 229.9,246.1 L 232.4,246.1 L 234.8,246.2 L 237.3,246.2 L 239.8,246.3 L 242.3,246.3 L 244.8,246.3 L 247.3,246.4 L 249.8,246.4 L 252.3,246.5 L 254.8,246.5 L 257.3,246.6 L 259.8,246.6 L 262.3,246.7 L 264.8,246.7 L 267.3,246.8 L 269.8,246.8 L 272.3,246.8 L 274.8,246.9 L 277.3,246.9 L 279.8,247.0 L 282.3,247.0 L 284.8,247.1 L 287.3,247.1 L 289.8,247.2 L 292.3,247.2 L 294.8,247.7 L 297.3,248.3 L 299.8,248.9 L 302.3,249.5 L 304.8,250.1 L 307.3,250.6 L 309.8,251.2 L 312.3,251.8 L 314.8,252.4 L 317.3,253.0 L 319.8,253.6 L 322.3,254.1 L 324.8,254.7 L 327.3,255.3 L 329.8,255.9 L 332.3,256.5 L 334.8,257.1 L 337.3,257.6 L 339.8,258.2 L 342.3,258.8 L 344.7,259.4 L 347.2,260.0 L 349.7,260.6 L 352.2,261.2 L 354.7,261.7 L 357.2,262.3 L 359.7,262.9 L 362.2,263.5 L 364.7,264.1 L 367.2,264.7 L 369.7,265.2 L 372.2,265.8 L 374.7,266.4 L 377.2,267.0 L 379.7,267.6 L 382.2,268.2 L 384.7,268.7 L 387.2,269.3 L 389.7,269.9 L 392.2,270.5 L 394.7,271.1 L 397.2,271.7 L 399.7,272.2 L 402.2,272.8 L 404.7,273.4 L 407.2,274.0 L 409.7,274.6 L 412.2,275.2 L 414.7,275.7 L 417.2,276.3 L 419.7,276.9 L 422.2,277.5 L 424.7,278.1 L 427.2,278.7 L 429.7,279.2 L 432.2,279.8 L 434.7,280.4 L 437.2,281.0 L 439.7,281.6 L 442.2,282.2 L 444.7,282.8 L 447.2,283.3 L 449.7,283.9 L 452.2,284.5 L 454.6,285.1 L 457.1,285.7 L 459.6,286.3 L 462.1,286.8 L 464.6,287.4 L 467.1,288.0 L 469.6,288.6 L 472.1,289.2 L 474.6,289.8 L 477.1,290.3 L 479.6,290.9 L 482.1,291.5 L 484.6,292.1 L 487.1,292.7 L 489.6,293.3 L 492.1,293.8 L 494.6,294.4 L 497.1,295.0 L 499.6,295.6 L 502.1,296.2 L 504.6,296.8 L 507.1,297.3 L 509.6,297.9 L 512.1,298.5 L 514.6,299.1 L 517.1,299.7 L 519.6,300.3 L 522.1,300.8 L 524.6,301.4 L 527.1,302.0 L 529.6,302.6 L 532.1,303.2 L 534.6,303.8 L 537.1,304.4 L 539.6,304.9 L 542.1,305.5 L 544.6,306.1 L 547.1,306.7 L 549.6,307.3 L 552.1,308.7 L 554.6,312.3 L 557.1,315.9 L 559.6,319.6 L 562.1,323.2 L 564.5,326.8 L 567.0,330.4 L 569.5,334.0 L 572.0,337.6 L 574.5,341.2 L 577.0,344.9 L 579.5,348.5 L 582.0,352.1 L 584.5,355.7 L 587.0,359.3 L 589.5,362.9 L 592.0,365.0 L 594.5,365.0 L 597.0,365.0 L 599.5,365.0 L 602.0,365.0 L 604.5,365.0 L 607.0,365.0 L 609.5,365.0 L 612.0,365.0 L 614.5,365.0 L 617.0,365.0" class="rho"/>
<path d="M 70.0,158.3 L 72.5,158.4 L 75.0,158.5 L 77.5,158.6 L 80.0,158.7 L 82.5,159.0 L 85.0,159.2 L 87.5,159.5 L 90.0,159.9 L 92.5,160.3 L 95.0,160.7 L 97.5,161.2 L 100.0,161.7 L 102.5,162.3 L 105.0,163.0 L 107.5,163.7 L 110.0,164.4 L 112.5,165.2 L 115.0,166.1 L 117.5,167.0 L 120.0,167.9 L 122.5,169.0 L 124.9,170.0 L 127.4,171.2 L 129.9,172.4 L 132.4,173.6 L 134.9,175.0 L 137.4,176.4 L 139.9,177.8 L 142.4,179.4 L 144.9,181.0 L 147.4,182.7 L 149.9,184.4 L 152.4,186.2 L 154.9,188.1 L 157.4,190.0 L 159.9,192.0 L 162.4,194.1 L 164.9,196.2 L 167.4,198.3 L 169.9,200.4 L 172.4,202.5 L 174.9,204.6 L 177.4,206.6 L 179.9,208.6 L 182.4,210.6 L 184.9,212.5 L 187.4,214.4 L 189.9,216.1 L 192.4,217.9 L 194.9,219.5 L 197.4,221.1 L 199.9,222.7 L 202.4,224.2 L 204.9,225.6 L 207.4,227.0 L 209.9,228.3 L 212.4,229.7 L 214.9,230.9 L 217.4,232.1 L 219.9,233.3 L 222.4,234.5 L 224.9,235.6 L 227.4,236.7 L 229.9,237.8 L 232.4,238.9 L 234.8,239.9 L 237.3,240.9 L 239.8,241.9 L 242.3,242.9 L 244.8,243.8 L 247.3,244.8 L 249.8,245.7 L 252.3,246.6 L 254.8,247.5 L 257.3,248.4 L 259.8,249.3 L 262.3,250.1 L 264.8,251.0 L 267.3,251.9 L 269.8,252.7 L 272.3,253.6 L 274.8,254.4 L 277.3,255.2 L 279.8,256.1 L 282.3,256.9 L 284.8,257.7 L 287.3,258.6 L 289.8,259.4 L 292.3,260.2 L 294.8,261.0 L 297.3,261.9 L 299.8,262.7 L 302.3,263.5 L 304.8,264.3 L 307.3,265.2 L 309.8,266.0 L 312.3,266.8 L 314.8,267.6 L 317.3,268.5 L 319.8,269.3 L 322.3,270.1 L 324.8,270.9 L 327.3,271.8 L 329.8,272.6 L 332.3,273.4 L 334.8,274.2 L 337.3,275.0 L 339.8,275.8 L 342.3,276.6 L 344.7,277.4 L 347.2,278.3 L 349.7,279.1 L 352.2,279.9 L 354.7,280.7 L 357.2,281.4 L 359.7,282.2 L 362.2,283.0 L 364.7,283.8 L 367.2,284.6 L 369.7,285.4 L 372.2,286.2 L 374.7,286.9 L 377.2,287.7 L 379.7,288.5 L 382.2,289.2 L 384.7,290.0 L 387.2,290.8 L 389.7,291.5 L 392.2,292.3 L 394.7,293.0 L 397.2,293.8 L 399.7,294.5 L 402.2,295.2 L 404.7,296.0 L 407.2,296.7 L 409.7,297.4 L 412.2,298.1 L 414.7,298.9 L 417.2,299.6 L 419.7,300.3 L 422.2,301.0 L 424.7,301.7 L 427.2,302.4 L 429.7,303.1 L 432.2,303.8 L 434.7,304.5 L 437.2,305.2 L 439.7,305.8 L 442.2,306.5 L 444.7,307.2 L 447.2,307.9 L 449.7,308.5 L 452.2,309.2 L 454.6,309.8 L 457.1,310.5 L 459.6,311.1 L 462.1,311.8 L 464.6,312.4 L 467.1,313.1 L 469.6,313.7 L 472.1,314.3 L 474.6,314.9 L 477.1,315.6 L 479.6,316.2 L 482.1,316.8 L 484.6,317.4 L 487.1,318.0 L 489.6,318.6 L 492.1,319.2 L 494.6,319.8 L 497.1,320.4 L 499.6,321.0 L 502.1,321.6 L 504.6,322.2 L 507.1,322.7 L 509.6,323.3 L 512.1,323.9 L 514.6,324.5 L 517.1,325.0 L 519.6,325.6 L 522.1,326.2 L 524.6,326.7 L 527.1,327.3 L 529.6,327.8 L 532.1,328.4 L 534.6,328.9 L 537.1,329.5 L 539.6,330.0 L 542.1,330.6 L 544.6,331.1 L 547.1,331.7 L 549.6,332.2 L 552.1,332.8 L 554.6,333.3 L 557.1,333.8 L 559.6,334.4 L 562.1,334.9 L 564.5,335.4 L 567.0,335.9 L 569.5,336.4 L 572.0,336.9 L 574.5,337.4 L 577.0,337.8 L 579.5,338.3 L 582.0,338.7 L 584.5,339.1 L 587.0,339.5 L 589.5,339.9 L 592.0,340.3 L 594.5,340.7 L 597.0,341.1 L 599.5,341.4 L 602.0,341.8 L 604.5,342.1 L 607.0,342.4 L 609.5,342.8 L 612.0,343.1 L 614.5,343.4 L 617.0,343.7" class="sig"/>
<path d="M 75.5,327.3 L 80.9,311.6 L 86.4,299.6 L 91.9,289.5 L 97.4,280.6 L 102.8,272.6 L 108.3,265.2 L 113.8,258.3 L 119.2,251.8 L 124.7,245.7 L 130.2,239.8 L 135.6,234.3 L 141.1,228.9 L 146.6,223.8 L 152.1,218.9 L 157.5,214.1 L 163.0,209.5 L 168.5,205.8 L 173.9,203.2 L 179.4,201.5 L 184.9,200.5 L 190.3,199.3 L 195.8,198.1 L 201.3,196.7 L 206.8,195.3 L 212.2,193.8 L 217.7,192.3 L 223.2,190.7 L 228.6,189.1 L 234.1,187.4 L 239.6,185.8 L 245.0,184.1 L 250.5,182.4 L 256.0,180.7 L 261.5,179.0 L 266.9,177.2 L 272.4,175.5 L 277.9,173.8 L 283.3,172.0 L 288.8,170.3 L 294.3,168.6 L 299.7,166.9 L 305.2,165.2 L 310.7,163.6 L 316.1,162.0 L 321.6,160.5 L 327.1,159.0 L 332.6,157.5 L 338.0,156.1 L 343.5,154.7 L 349.0,153.4 L 354.4,152.0 L 359.9,150.8 L 365.4,149.5 L 370.8,148.3 L 376.3,147.1 L 381.8,146.0 L 387.3,144.9 L 392.7,143.8 L 398.2,142.7 L 403.7,141.7 L 409.1,140.7 L 414.6,139.8 L 420.1,138.8 L 425.6,138.0 L 431.0,137.1 L 436.5,136.2 L 442.0,135.4 L 447.4,134.6 L 452.9,133.9 L 458.4,133.2 L 463.8,132.4 L 469.3,131.8 L 474.8,131.1 L 480.2,130.5 L 485.7,129.9 L 491.2,129.3 L 496.7,128.8 L 502.1,128.3 L 507.6,127.8 L 513.1,127.3 L 518.5,126.9 L 524.0,126.5 L 529.5,126.1 L 535.0,125.7 L 540.4,125.4 L 545.9,125.0 L 551.4,124.8 L 556.8,124.6 L 562.3,124.6 L 567.8,124.9 L 573.2,125.3 L 578.7,126.0 L 584.2,126.9 L 589.7,128.0 L 595.1,129.2 L 600.6,130.4 L 606.1,131.6 L 611.5,132.8 L 617.0,134.0" class="nt"/>
<path d="M 74.6,354.7 L 79.1,346.7 L 83.7,337.7 L 88.2,328.6 L 92.8,319.4 L 97.3,310.1 L 101.9,300.7 L 106.5,291.2 L 111.0,281.6 L 115.6,271.7 L 120.1,261.7 L 124.7,251.4 L 129.3,240.9 L 133.8,230.1 L 138.4,219.1 L 142.9,207.9 L 147.5,196.7 L 152.1,185.7 L 156.6,175.3 L 161.2,166.0 L 165.7,158.6 L 170.3,153.1 L 174.8,150.1 L 179.4,149.2 L 184.0,150.1 L 188.5,152.2 L 193.1,155.0 L 197.6,158.1 L 202.2,161.2 L 206.8,164.1 L 211.3,166.7 L 215.9,169.0 L 220.4,171.0 L 225.0,172.7 L 229.5,174.1 L 234.1,175.2 L 238.7,176.1 L 243.2,176.6 L 247.8,176.9 L 252.3,177.0 L 256.9,176.7 L 261.5,176.3 L 266.0,175.5 L 270.6,174.6 L 275.1,173.4 L 279.7,171.9 L 284.2,170.3 L 288.8,168.5 L 293.4,166.5 L 297.9,164.5 L 302.5,162.5 L 307.0,160.6 L 311.6,158.7 L 316.1,156.9 L 320.7,155.2 L 325.3,153.5 L 329.8,152.0 L 334.4,150.5 L 338.9,149.2 L 343.5,147.9 L 348.1,146.6 L 352.6,145.5 L 357.2,144.4 L 361.7,143.3 L 366.3,142.4 L 370.9,141.4 L 375.4,140.6 L 380.0,139.8 L 384.5,139.0 L 389.1,138.3 L 393.6,137.7 L 398.2,137.1 L 402.8,136.6 L 407.3,136.1 L 411.9,135.6 L 416.4,135.2 L 421.0,134.8 L 425.6,134.5 L 430.1,134.2 L 434.7,133.9 L 439.2,133.7 L 443.8,133.5 L 448.3,133.4 L 452.9,133.3 L 457.5,133.2 L 462.0,133.1 L 466.6,133.1 L 471.1,133.0 L 475.7,133.0 L 480.3,133.0 L 484.8,133.0 L 489.4,133.0 L 493.9,132.9 L 498.5,132.9 L 503.0,132.8 L 507.6,132.7 L 512.2,132.5 L 516.7,132.3 L 521.3,132.0 L 525.8,131.6 L 530.4,131.1 L 535.0,130.6 L 539.5,130.1 L 544.1,129.7 L 548.6,129.6 L 553.2,129.9 L 557.7,130.8 L 562.3,132.4 L 566.9,134.9 L 571.4,138.1 L 576.0,141.9 L 580.5,146.2 L 585.1,150.9 L 589.6,155.6 L 594.2,160.4 L 598.8,165.1 L 603.3,169.6 L 607.9,173.8 L 612.4,177.9 L 617.0,181.7" class="fw"/>
<line x1="96.96" y1="304.03" x2="96.96" y2="333.90" class="err"/>
<line x1="93.96" y1="304.03" x2="99.96" y2="304.03" class="err"/>
<line x1="93.96" y1="333.90" x2="99.96" y2="333.90" class="err"/>
<circle cx="96.96" cy="318.97" r="2.5" class="obs"/>
<line x1="114.85" y1="253.86" x2="114.85" y2="298.26" class="err"/>
<line x1="111.85" y1="253.86" x2="117.85" y2="253.86" class="err"/>
<line x1="111.85" y1="298.26" x2="117.85" y2="298.26" class="err"/>
<circle cx="114.85" cy="276.06" r="2.5" class="obs"/>
<line x1="132.74" y1="222.76" x2="132.74" y2="254.79" class="err"/>
<line x1="129.74" y1="222.76" x2="135.74" y2="222.76" class="err"/>
<line x1="129.74" y1="254.79" x2="135.74" y2="254.79" class="err"/>
<circle cx="132.74" cy="238.78" r="2.5" class="obs"/>
<line x1="144.84" y1="181.91" x2="144.84" y2="228.15" class="err"/>
<line x1="141.84" y1="181.91" x2="147.84" y2="181.91" class="err"/>
<line x1="141.84" y1="228.15" x2="147.84" y2="228.15" class="err"/>
<circle cx="144.84" cy="205.03" r="2.5" class="obs"/>
<line x1="146.60" y1="158.58" x2="146.60" y2="231.49" class="err"/>
<line x1="143.60" y1="158.58" x2="149.60" y2="158.58" class="err"/>
<line x1="143.60" y1="231.49" x2="149.60" y2="231.49" class="err"/>
<circle cx="146.60" cy="195.03" r="2.5" class="obs"/>
<line x1="150.38" y1="165.19" x2="150.38" y2="202.39" class="err"/>
<line x1="147.38" y1="165.19" x2="153.38" y2="165.19" class="err"/>
<line x1="147.38" y1="202.39" x2="153.38" y2="202.39" class="err"/>
<circle cx="150.38" cy="183.79" r="2.5" class="obs"/>
<line x1="245.12" y1="125.88" x2="245.12" y2="229.19" class="err"/>
<line x1="242.12" y1="125.88" x2="248.12" y2="125.88" class="err"/>
<line x1="242.12" y1="229.19" x2="248.12" y2="229.19" class="err"/>
<circle cx="245.12" cy="177.54" r="2.5" class="obs"/>
<line x1="286.20" y1="141.71" x2="286.20" y2="180.87" class="err"/>
<line x1="283.20" y1="141.71" x2="289.20" y2="141.71" class="err"/>
<line x1="283.20" y1="180.87" x2="289.20" y2="180.87" class="err"/>
<circle cx="286.20" cy="161.29" r="2.5" class="obs"/>
<line x1="303.33" y1="117.13" x2="303.33" y2="222.53" class="err"/>
<line x1="300.33" y1="117.13" x2="306.33" y2="117.13" class="err"/>
<line x1="300.33" y1="222.53" x2="306.33" y2="222.53" class="err"/>
<circle cx="303.33" cy="169.83" r="2.5" class="obs"/>
<line x1="319.20" y1="100.89" x2="319.20" y2="200.03" class="err"/>
<line x1="316.20" y1="100.89" x2="322.20" y2="100.89" class="err"/>
<line x1="316.20" y1="200.03" x2="322.20" y2="200.03" class="err"/>
<circle cx="319.20" cy="150.46" r="2.5" class="obs"/>
<line x1="323.99" y1="139.21" x2="323.99" y2="185.04" class="err"/>
<line x1="320.99" y1="139.21" x2="326.99" y2="139.21" class="err"/>
<line x1="320.99" y1="185.04" x2="326.99" y2="185.04" class="err"/>
<circle cx="323.99" cy="162.12" r="2.5" class="obs"/>
<line x1="368.34" y1="123.42" x2="368.34" y2="162.92" class="err"/>
<line x1="365.34" y1="123.42" x2="371.34" y2="123.42" class="err"/>
<line x1="365.34" y1="162.92" x2="371.34" y2="162.92" class="err"/>
<circle cx="368.34" cy="143.17" r="2.5" class="obs"/>
<line x1="436.88" y1="108.80" x2="436.88" y2="154.63" class="err"/>
<line x1="433.88" y1="108.80" x2="439.88" y2="108.80" class="err"/>
<line x1="433.88" y1="154.63" x2="439.88" y2="154.63" class="err"/>
<circle cx="436.88" cy="131.71" r="2.5" class="obs"/>
<line x1="458.80" y1="113.18" x2="458.80" y2="152.33" class="err"/>
<line x1="455.80" y1="113.18" x2="461.80" y2="113.18" class="err"/>
<line x1="455.80" y1="152.33" x2="461.80" y2="152.33" class="err"/>
<circle cx="458.80" cy="132.76" r="2.5" class="obs"/>
<line x1="521.79" y1="83.18" x2="521.79" y2="184.41" class="err"/>
<line x1="518.79" y1="83.18" x2="524.79" y2="83.18" class="err"/>
<line x1="518.79" y1="184.41" x2="524.79" y2="184.41" class="err"/>
<circle cx="521.79" cy="133.80" r="2.5" class="obs"/>
<line x1="549.26" y1="114.53" x2="549.26" y2="146.81" class="err"/>
<line x1="546.26" y1="114.53" x2="552.26" y2="114.53" class="err"/>
<line x1="546.26" y1="146.81" x2="552.26" y2="146.81" class="err"/>
<circle cx="549.26" cy="130.67" r="2.5" class="obs"/>
<line x1="576.47" y1="121.92" x2="576.47" y2="166.50" class="err"/>
<line x1="573.47" y1="121.92" x2="579.47" y2="121.92" class="err"/>
<line x1="573.47" y1="166.50" x2="579.47" y2="166.50" class="err"/>
<circle cx="576.47" cy="144.21" r="2.5" class="obs"/>
<g class="legend">
<line x1="82" y1="69" x2="106" y2="69" class="fw"/>
<text x="112" y="73" class="lbl-l">framework fit</text>
<line x1="82" y1="87" x2="106" y2="87" class="nt"/>
<text x="112" y="91" class="lbl-l">Newtonian (no halo)</text>
<circle cx="94" cy="105" r="2.5" class="obs"/>
<text x="112" y="109" class="lbl">observed V±err</text>
</g>
<g class="legend">
<line x1="442" y1="69" x2="466" y2="69" class="rho"/>
<text x="472" y="73" class="lbl-r">ρ(r) raw</text>
<line x1="442" y1="87" x2="466" y2="87" class="sig"/>
<text x="472" y="91" class="lbl-s">Σ(r) cumulative</text>
<text x="442" y="113" class="lbl-r">ρ peak: 112 M☉/pc²</text>
</g>
<rect x="705" y="55" width="170" height="170" class="preview-bg"/>
<defs><radialGradient id="g_F563_1" cx="0.5" cy="0.5" r="0.5">
  <stop offset="0.0000" stop-color="rgb(67,67,67)"/>
  <stop offset="0.0313" stop-color="rgb(67,67,67)"/>
  <stop offset="0.0625" stop-color="rgb(67,67,67)"/>
  <stop offset="0.0938" stop-color="rgb(67,67,67)"/>
  <stop offset="0.1250" stop-color="rgb(67,67,67)"/>
  <stop offset="0.1563" stop-color="rgb(67,67,67)"/>
  <stop offset="0.1875" stop-color="rgb(61,61,61)"/>
  <stop offset="0.2188" stop-color="rgb(41,41,41)"/>
  <stop offset="0.2500" stop-color="rgb(41,41,41)"/>
  <stop offset="0.2813" stop-color="rgb(41,41,41)"/>
  <stop offset="0.3125" stop-color="rgb(41,41,41)"/>
  <stop offset="0.3438" stop-color="rgb(41,41,41)"/>
  <stop offset="0.3750" stop-color="rgb(41,41,41)"/>
  <stop offset="0.4063" stop-color="rgb(41,41,41)"/>
  <stop offset="0.4375" stop-color="rgb(40,40,40)"/>
  <stop offset="0.4688" stop-color="rgb(39,39,39)"/>
  <stop offset="0.5000" stop-color="rgb(38,38,38)"/>
  <stop offset="0.5313" stop-color="rgb(36,36,36)"/>
  <stop offset="0.5625" stop-color="rgb(35,35,35)"/>
  <stop offset="0.5938" stop-color="rgb(34,34,34)"/>
  <stop offset="0.6250" stop-color="rgb(32,32,32)"/>
  <stop offset="0.6563" stop-color="rgb(31,31,31)"/>
  <stop offset="0.6875" stop-color="rgb(30,30,30)"/>
  <stop offset="0.7188" stop-color="rgb(28,28,28)"/>
  <stop offset="0.7500" stop-color="rgb(27,27,27)"/>
  <stop offset="0.7813" stop-color="rgb(26,26,26)"/>
  <stop offset="0.8125" stop-color="rgb(24,24,24)"/>
  <stop offset="0.8438" stop-color="rgb(23,23,23)"/>
  <stop offset="0.8750" stop-color="rgb(22,22,22)"/>
  <stop offset="0.9063" stop-color="rgb(21,21,21)"/>
  <stop offset="0.9375" stop-color="rgb(16,16,16)"/>
  <stop offset="0.9688" stop-color="rgb(8,8,8)"/>
  <stop offset="1.0000" stop-color="rgb(0,0,0)"/>
</radialGradient></defs>
<circle cx="790" cy="140" r="81" fill="url(#g_F563_1)"/>
<text x="790" y="49" text-anchor="middle" class="preview-lbl">face-on luminance from ρ(r)</text>
<text x="790" y="239" text-anchor="middle" class="preview-lbl">edge at r = 20.7 kpc</text>
</svg>