<svg xmlns="http://www.w3.org/2000/svg" viewBox="0 0 720 420" width="720" height="420" font-family="sans-serif" font-size="12">
<style>
  .ax { stroke: #333; stroke-width: 1; fill: none; }
  .grid { stroke: #ddd; stroke-width: 0.5; fill: none; }
  .lbl { fill: #333; }
  .lbl-l { fill: #0066cc; }
  .lbl-r { fill: #b03030; }
  .obs { fill: #222; }
  .err { stroke: #555; stroke-width: 0.8; fill: none; }
  .fw { stroke: #0066cc; stroke-width: 2.2; fill: none; }
  .nt { stroke: #cc6600; stroke-width: 1.6; fill: none; stroke-dasharray: 5,3; }
  .rho { stroke: #b03030; stroke-width: 2.0; fill: none; }
  .sig { stroke: #b03030; stroke-width: 1.6; fill: none; stroke-dasharray: 4,2; opacity: 0.85; }
  .title { fill: #111; font-size: 16px; font-weight: 600; }
  .subtitle { fill: #555; font-size: 11px; }
  .legend { font-size: 11px; }
</style>
<text x="360.0" y="22" text-anchor="middle" class="title">F563-1</text>
<text x="360.0" y="38" text-anchor="middle" class="subtitle">rMax=20.1 kpc, N=17, RMS=2.3 km/s (2.6%), amp=105</text>
<line x1="70" y1="365.0" x2="635" y2="365.0" class="grid"/>
<text x="64" y="369.0" text-anchor="end" class="lbl-l">0</text>
<line x1="70" y1="303.0" x2="635" y2="303.0" class="grid"/>
<text x="64" y="307.0" text-anchor="end" class="lbl-l">30</text>
<line x1="70" y1="241.00000000000003" x2="635" y2="241.00000000000003" class="grid"/>
<text x="64" y="245.00000000000003" text-anchor="end" class="lbl-l">60</text>
<line x1="70" y1="179.0" x2="635" y2="179.0" class="grid"/>
<text x="64" y="183.0" text-anchor="end" class="lbl-l">89</text>
<line x1="70" y1="117.00000000000003" x2="635" y2="117.00000000000003" class="grid"/>
<text x="64" y="121.00000000000003" text-anchor="end" class="lbl-l">119</text>
<line x1="70" y1="55.0" x2="635" y2="55.0" class="grid"/>
<text x="64" y="59.0" text-anchor="end" class="lbl-l">149</text>
<text x="641" y="369.0" text-anchor="start" class="lbl-r">0.0</text>
<text x="641" y="327.6666666666667" text-anchor="start" class="lbl-r">0.2</text>
<text x="641" y="286.33333333333337" text-anchor="start" class="lbl-r">0.4</text>
<text x="641" y="245.00000000000003" text-anchor="start" class="lbl-r">0.6</text>
<text x="641" y="203.66666666666666" text-anchor="start" class="lbl-r">0.8</text>
<text x="641" y="162.33333333333334" text-anchor="start" class="lbl-r">1.0</text>
<line x1="70.0" y1="55" x2="70.0" y2="365" class="grid"/>
<text x="70.0" y="381" text-anchor="middle" class="lbl">0.0</text>
<line x1="164.16666666666666" y1="55" x2="164.16666666666666" y2="365" class="grid"/>
<text x="164.16666666666666" y="381" text-anchor="middle" class="lbl">3.6</text>
<line x1="258.3333333333333" y1="55" x2="258.3333333333333" y2="365" class="grid"/>
<text x="258.3333333333333" y="381" text-anchor="middle" class="lbl">7.2</text>
<line x1="352.49999999999994" y1="55" x2="352.49999999999994" y2="365" class="grid"/>
<text x="352.49999999999994" y="381" text-anchor="middle" class="lbl">10.9</text>
<line x1="446.66666666666663" y1="55" x2="446.66666666666663" y2="365" class="grid"/>
<text x="446.66666666666663" y="381" text-anchor="middle" class="lbl">14.5</text>
<line x1="540.8333333333334" y1="55" x2="540.8333333333334" y2="365" class="grid"/>
<text x="540.8333333333334" y="381" text-anchor="middle" class="lbl">18.1</text>
<line x1="634.9999999999999" y1="55" x2="634.9999999999999" y2="365" class="grid"/>
<text x="634.9999999999999" y="381" text-anchor="middle" class="lbl">21.7</text>
<text x="352.5" y="408" text-anchor="middle" class="lbl">radius (kpc)</text>
<text x="16" y="210.0" text-anchor="middle" class="lbl-l" transform="rotate(-90, 16, 210.0)">velocity (km/s)</text>
<text x="704" y="210.0" text-anchor="middle" class="lbl-r" transform="rotate(-90, 704, 210.0)">mass profile (normalized to peak)</text>
<rect x="70" y="55" width="565" height="310" class="ax"/>
<path d="M 70.0,158.3 L 72.6,158.3 L 75.2,158.3 L 77.7,158.3 L 80.3,158.3 L 82.9,158.3 L 85.5,158.3 L 88.1,158.3 L 90.6,158.3 L 93.2,158.3 L 95.8,158.3 L 98.4,158.3 L 101.0,158.3 L 103.5,158.3 L 106.1,158.3 L 108.7,158.3 L 111.3,158.3 L 113.9,158.3 L 116.4,158.3 L 119.0,158.3 L 121.6,158.3 L 124.2,158.3 L 126.8,158.3 L 129.3,158.3 L 131.9,158.3 L 134.5,158.3 L 137.1,158.3 L 139.7,158.3 L 142.2,158.3 L 144.8,158.3 L 147.4,158.3 L 150.0,158.3 L 152.6,158.3 L 155.1,158.3 L 157.7,158.3 L 160.3,158.3 L 162.9,158.3 L 165.5,163.9 L 168.0,175.0 L 170.6,186.1 L 173.2,197.2 L 175.8,208.2 L 178.4,219.3 L 180.9,230.4 L 183.5,241.5 L 186.1,245.2 L 188.7,245.2 L 191.3,245.3 L 193.8,245.3 L 196.4,245.4 L 199.0,245.4 L 201.6,245.5 L 204.2,245.5 L 206.7,245.6 L 209.3,245.6 L 211.9,245.7 L 214.5,245.7 L 217.1,245.7 L 219.6,245.8 L 222.2,245.8 L 224.8,245.9 L 227.4,245.9 L 230.0,246.0 L 232.5,246.0 L 235.1,246.1 L 237.7,246.1 L 240.3,246.2 L 242.9,246.2 L 245.4,246.3 L 248.0,246.3 L 250.6,246.3 L 253.2,246.4 L 255.8,246.4 L 258.3,246.5 L 260.9,246.5 L 263.5,246.6 L 266.1,246.6 L 268.7,246.7 L 271.2,246.7 L 273.8,246.8 L 276.4,246.8 L 279.0,246.8 L 281.6,246.9 L 284.1,246.9 L 286.7,247.0 L 289.3,247.0 L 291.9,247.1 L 294.5,247.1 L 297.0,247.2 L 299.6,247.2 L 302.2,247.7 L 304.8,248.3 L 307.4,248.9 L 309.9,249.5 L 312.5,250.1 L 315.1,250.6 L 317.7,251.2 L 320.3,251.8 L 322.8,252.4 L 325.4,253.0 L 328.0,253.6 L 330.6,254.1 L 333.2,254.7 L 335.7,255.3 L 338.3,255.9 L 340.9,256.5 L 343.5,257.1 L 346.1,257.6 L 348.6,258.2 L 351.2,258.8 L 353.8,259.4 L 356.4,260.0 L 358.9,260.6 L 361.5,261.2 L 364.1,261.7 L 366.7,262.3 L 369.3,262.9 L 371.8,263.5 L 374.4,264.1 L 377.0,264.7 L 379.6,265.2 L 382.2,265.8 L 384.7,266.4 L 387.3,267.0 L 389.9,267.6 L 392.5,268.2 L 395.1,268.7 L 397.6,269.3 L 400.2,269.9 L 402.8,270.5 L 405.4,271.1 L 408.0,271.7 L 410.5,272.2 L 413.1,272.8 L 415.7,273.4 L 418.3,274.0 L 420.9,274.6 L 423.4,275.2 L 426.0,275.7 L 428.6,276.3 L 431.2,276.9 L 433.8,277.5 L 436.3,278.1 L 438.9,278.7 L 441.5,279.2 L 444.1,279.8 L 446.7,280.4 L 449.2,281.0 L 451.8,281.6 L 454.4,282.2 L 457.0,282.8 L 459.6,283.3 L 462.1,283.9 L 464.7,284.5 L 467.3,285.1 L 469.9,285.7 L 472.5,286.3 L 475.0,286.8 L 477.6,287.4 L 480.2,288.0 L 482.8,288.6 L 485.4,289.2 L 487.9,289.8 L 490.5,290.3 L 493.1,290.9 L 495.7,291.5 L 498.3,292.1 L 500.8,292.7 L 503.4,293.3 L 506.0,293.8 L 508.6,294.4 L 511.2,295.0 L 513.7,295.6 L 516.3,296.2 L 518.9,296.8 L 521.5,297.3 L 524.1,297.9 L 526.6,298.5 L 529.2,299.1 L 531.8,299.7 L 534.4,300.3 L 537.0,300.8 L 539.5,301.4 L 542.1,302.0 L 544.7,302.6 L 547.3,303.2 L 549.9,303.8 L 552.4,304.4 L 555.0,304.9 L 557.6,305.5 L 560.2,306.1 L 562.8,306.7 L 565.3,307.3 L 567.9,308.7 L 570.5,312.3 L 573.1,315.9 L 575.7,319.6 L 578.2,323.2 L 580.8,326.8 L 583.4,330.4 L 586.0,334.0 L 588.6,337.6 L 591.1,341.2 L 593.7,344.9 L 596.3,348.5 L 598.9,352.1 L 601.5,355.7 L 604.0,359.3 L 606.6,362.9 L 609.2,365.0 L 611.8,365.0 L 614.4,365.0 L 616.9,365.0 L 619.5,365.0 L 622.1,365.0 L 624.7,365.0 L 627.3,365.0 L 629.8,365.0 L 632.4,365.0 L 635.0,365.0" class="rho"/>
<path d="M 70.0,158.3 L 72.6,158.4 L 75.2,158.5 L 77.7,158.6 L 80.3,158.7 L 82.9,159.0 L 85.5,159.2 L 88.1,159.5 L 90.6,159.9 L 93.2,160.3 L 95.8,160.7 L 98.4,161.2 L 101.0,161.7 L 103.5,162.3 L 106.1,163.0 L 108.7,163.7 L 111.3,164.4 L 113.9,165.2 L 116.4,166.1 L 119.0,167.0 L 121.6,167.9 L 124.2,169.0 L 126.8,170.0 L 129.3,171.2 L 131.9,172.4 L 134.5,173.6 L 137.1,175.0 L 139.7,176.4 L 142.2,177.8 L 144.8,179.4 L 147.4,181.0 L 150.0,182.7 L 152.6,184.4 L 155.1,186.2 L 157.7,188.1 L 160.3,190.0 L 162.9,192.0 L 165.5,194.1 L 168.0,196.2 L 170.6,198.3 L 173.2,200.4 L 175.8,202.5 L 178.4,204.6 L 180.9,206.6 L 183.5,208.6 L 186.1,210.6 L 188.7,212.5 L 191.3,214.4 L 193.8,216.1 L 196.4,217.9 L 199.0,219.5 L 201.6,221.1 L 204.2,222.7 L 206.7,224.2 L 209.3,225.6 L 211.9,227.0 L 214.5,228.3 L 217.1,229.7 L 219.6,230.9 L 222.2,232.1 L 224.8,233.3 L 227.4,234.5 L 230.0,235.6 L 232.5,236.7 L 235.1,237.8 L 237.7,238.9 L 240.3,239.9 L 242.9,240.9 L 245.4,241.9 L 248.0,242.9 L 250.6,243.8 L 253.2,244.8 L 255.8,245.7 L 258.3,246.6 L 260.9,247.5 L 263.5,248.4 L 266.1,249.3 L 268.7,250.1 L 271.2,251.0 L 273.8,251.9 L 276.4,252.7 L 279.0,253.6 L 281.6,254.4 L 284.1,255.2 L 286.7,256.1 L 289.3,256.9 L 291.9,257.7 L 294.5,258.6 L 297.0,259.4 L 299.6,260.2 L 302.2,261.0 L 304.8,261.9 L 307.4,262.7 L 309.9,263.5 L 312.5,264.3 L 315.1,265.2 L 317.7,266.0 L 320.3,266.8 L 322.8,267.6 L 325.4,268.5 L 328.0,269.3 L 330.6,270.1 L 333.2,270.9 L 335.7,271.8 L 338.3,272.6 L 340.9,273.4 L 343.5,274.2 L 346.1,275.0 L 348.6,275.8 L 351.2,276.6 L 353.8,277.4 L 356.4,278.3 L 358.9,279.1 L 361.5,279.9 L 364.1,280.7 L 366.7,281.4 L 369.3,282.2 L 371.8,283.0 L 374.4,283.8 L 377.0,284.6 L 379.6,285.4 L 382.2,286.2 L 384.7,286.9 L 387.3,287.7 L 389.9,288.5 L 392.5,289.2 L 395.1,290.0 L 397.6,290.8 L 400.2,291.5 L 402.8,292.3 L 405.4,293.0 L 408.0,293.8 L 410.5,294.5 L 413.1,295.2 L 415.7,296.0 L 418.3,296.7 L 420.9,297.4 L 423.4,298.1 L 426.0,298.9 L 428.6,299.6 L 431.2,300.3 L 433.8,301.0 L 436.3,301.7 L 438.9,302.4 L 441.5,303.1 L 444.1,303.8 L 446.7,304.5 L 449.2,305.2 L 451.8,305.8 L 454.4,306.5 L 457.0,307.2 L 459.6,307.9 L 462.1,308.5 L 464.7,309.2 L 467.3,309.8 L 469.9,310.5 L 472.5,311.1 L 475.0,311.8 L 477.6,312.4 L 480.2,313.1 L 482.8,313.7 L 485.4,314.3 L 487.9,314.9 L 490.5,315.6 L 493.1,316.2 L 495.7,316.8 L 498.3,317.4 L 500.8,318.0 L 503.4,318.6 L 506.0,319.2 L 508.6,319.8 L 511.2,320.4 L 513.7,321.0 L 516.3,321.6 L 518.9,322.2 L 521.5,322.7 L 524.1,323.3 L 526.6,323.9 L 529.2,324.5 L 531.8,325.0 L 534.4,325.6 L 537.0,326.2 L 539.5,326.7 L 542.1,327.3 L 544.7,327.8 L 547.3,328.4 L 549.9,328.9 L 552.4,329.5 L 555.0,330.0 L 557.6,330.6 L 560.2,331.1 L 562.8,331.7 L 565.3,332.2 L 567.9,332.8 L 570.5,333.3 L 573.1,333.8 L 575.7,334.4 L 578.2,334.9 L 580.8,335.4 L 583.4,335.9 L 586.0,336.4 L 588.6,336.9 L 591.1,337.4 L 593.7,337.8 L 596.3,338.3 L 598.9,338.7 L 601.5,339.1 L 604.0,339.5 L 606.6,339.9 L 609.2,340.3 L 611.8,340.7 L 614.4,341.1 L 616.9,341.4 L 619.5,341.8 L 622.1,342.1 L 624.7,342.4 L 627.3,342.8 L 629.8,343.1 L 632.4,343.4 L 635.0,343.7" class="sig"/>
<path d="M 75.7,327.3 L 81.3,311.6 L 86.9,299.6 L 92.6,289.5 L 98.2,280.6 L 103.9,272.6 L 109.6,265.2 L 115.2,258.3 L 120.9,251.8 L 126.5,245.7 L 132.2,239.8 L 137.8,234.3 L 143.4,228.9 L 149.1,223.8 L 154.8,218.9 L 160.4,214.1 L 166.1,209.5 L 171.7,205.8 L 177.3,203.2 L 183.0,201.5 L 188.6,200.5 L 194.3,199.3 L 200.0,198.1 L 205.6,196.7 L 211.2,195.3 L 216.9,193.8 L 222.6,192.3 L 228.2,190.7 L 233.8,189.1 L 239.5,187.4 L 245.1,185.8 L 250.8,184.1 L 256.5,182.4 L 262.1,180.7 L 267.8,179.0 L 273.4,177.2 L 279.0,175.5 L 284.7,173.8 L 290.4,172.0 L 296.0,170.3 L 301.6,168.6 L 307.3,166.9 L 313.0,165.2 L 318.6,163.6 L 324.2,162.0 L 329.9,160.5 L 335.6,159.0 L 341.2,157.5 L 346.8,156.1 L 352.5,154.7 L 358.1,153.4 L 363.8,152.0 L 369.4,150.8 L 375.1,149.5 L 380.7,148.3 L 386.4,147.1 L 392.0,146.0 L 397.7,144.9 L 403.4,143.8 L 409.0,142.7 L 414.6,141.7 L 420.3,140.7 L 425.9,139.8 L 431.6,138.8 L 437.2,138.0 L 442.9,137.1 L 448.6,136.2 L 454.2,135.4 L 459.8,134.6 L 465.5,133.9 L 471.1,133.2 L 476.8,132.4 L 482.5,131.8 L 488.1,131.1 L 493.7,130.5 L 499.4,129.9 L 505.1,129.3 L 510.7,128.8 L 516.4,128.3 L 522.0,127.8 L 527.7,127.3 L 533.3,126.9 L 539.0,126.5 L 544.6,126.1 L 550.2,125.7 L 555.9,125.4 L 561.5,125.0 L 567.2,124.8 L 572.9,124.6 L 578.5,124.6 L 584.1,124.9 L 589.8,125.3 L 595.5,126.0 L 601.1,126.9 L 606.8,128.0 L 612.4,129.2 L 618.0,130.4 L 623.7,131.6 L 629.4,132.8 L 635.0,134.0" class="nt"/>
<path d="M 74.7,354.7 L 79.4,346.7 L 84.1,337.7 L 88.8,328.6 L 93.5,319.4 L 98.2,310.1 L 103.0,300.7 L 107.7,291.2 L 112.4,281.6 L 117.1,271.7 L 121.8,261.7 L 126.5,251.4 L 131.2,240.9 L 135.9,230.1 L 140.6,219.1 L 145.3,207.9 L 150.0,196.7 L 154.8,185.7 L 159.5,175.3 L 164.2,166.0 L 168.9,158.6 L 173.6,153.1 L 178.3,150.1 L 183.0,149.2 L 187.7,150.1 L 192.4,152.2 L 197.1,155.0 L 201.8,158.1 L 206.5,161.2 L 211.2,164.1 L 216.0,166.7 L 220.7,169.0 L 225.4,171.0 L 230.1,172.7 L 234.8,174.1 L 239.5,175.2 L 244.2,176.1 L 248.9,176.6 L 253.6,176.9 L 258.3,177.0 L 263.0,176.7 L 267.8,176.3 L 272.5,175.5 L 277.2,174.6 L 281.9,173.4 L 286.6,171.9 L 291.3,170.3 L 296.0,168.5 L 300.7,166.5 L 305.4,164.5 L 310.1,162.5 L 314.8,160.6 L 319.5,158.7 L 324.2,156.9 L 329.0,155.2 L 333.7,153.5 L 338.4,152.0 L 343.1,150.5 L 347.8,149.2 L 352.5,147.9 L 357.2,146.6 L 361.9,145.5 L 366.6,144.4 L 371.3,143.3 L 376.0,142.4 L 380.8,141.4 L 385.5,140.6 L 390.2,139.8 L 394.9,139.0 L 399.6,138.3 L 404.3,137.7 L 409.0,137.1 L 413.7,136.6 L 418.4,136.1 L 423.1,135.6 L 427.8,135.2 L 432.5,134.8 L 437.2,134.5 L 442.0,134.2 L 446.7,133.9 L 451.4,133.7 L 456.1,133.5 L 460.8,133.4 L 465.5,133.3 L 470.2,133.2 L 474.9,133.1 L 479.6,133.1 L 484.3,133.0 L 489.0,133.0 L 493.8,133.0 L 498.5,133.0 L 503.2,133.0 L 507.9,132.9 L 512.6,132.9 L 517.3,132.8 L 522.0,132.7 L 526.7,132.5 L 531.4,132.3 L 536.1,132.0 L 540.8,131.6 L 545.5,131.1 L 550.2,130.6 L 555.0,130.1 L 559.7,129.7 L 564.4,129.6 L 569.1,129.9 L 573.8,130.8 L 578.5,132.4 L 583.2,134.9 L 587.9,138.1 L 592.6,141.9 L 597.3,146.2 L 602.0,150.9 L 606.8,155.6 L 611.5,160.4 L 616.2,165.1 L 620.9,169.6 L 625.6,173.8 L 630.3,177.9 L 635.0,181.7" class="fw"/>
<line x1="97.8486579914602" y1="304.03312504199425" x2="97.8486579914602" y2="333.9021030706175" class="err"/>
<line x1="94.8486579914602" y1="304.03312504199425" x2="100.8486579914602" y2="304.03312504199425" class="err"/>
<line x1="94.8486579914602" y1="333.9021030706175" x2="100.8486579914602" y2="333.9021030706175" class="err"/>
<circle cx="97.8486579914602" cy="318.9676140563059" r="2.5" class="obs"/>
<line x1="116.32767404186838" y1="253.8557414499765" x2="116.32767404186838" y2="298.263454948599" class="err"/>
<line x1="113.32767404186838" y1="253.8557414499765" x2="119.32767404186838" y2="253.8557414499765" class="err"/>
<line x1="113.32767404186838" y1="298.263454948599" x2="119.32767404186838" y2="298.263454948599" class="err"/>
<circle cx="116.32767404186838" cy="276.05959819928773" r="2.5" class="obs"/>
<line x1="134.80669009227654" y1="222.75784452059398" x2="134.80669009227654" y2="254.79305247597932" class="err"/>
<line x1="131.80669009227654" y1="222.75784452059398" x2="137.80669009227654" y2="222.75784452059398" class="err"/>
<line x1="131.80669009227654" y1="254.79305247597932" x2="137.80669009227654" y2="254.79305247597932" class="err"/>
<circle cx="134.80669009227654" cy="238.77544849828664" r="2.5" class="obs"/>
<line x1="147.29954601367928" y1="181.91191292078213" x2="147.29954601367928" y2="228.15259020358798" class="err"/>
<line x1="144.29954601367928" y1="181.91191292078213" x2="150.29954601367928" y2="181.91191292078213" class="err"/>
<line x1="144.29954601367928" y1="228.15259020358798" x2="150.29954601367928" y2="228.15259020358798" class="err"/>
<circle cx="147.29954601367928" cy="205.03225156218508" r="2.5" class="obs"/>
<line x1="149.12142083555048" y1="158.58328294026745" x2="149.12142083555048" y2="231.48525162937582" class="err"/>
<line x1="146.12142083555048" y1="158.58328294026745" x2="152.12142083555048" y2="158.58328294026745" class="err"/>
<line x1="146.12142083555048" y1="231.48525162937582" x2="152.12142083555048" y2="231.48525162937582" class="err"/>
<circle cx="149.12142083555048" cy="195.03426728482165" r="2.5" class="obs"/>
<line x1="153.02543831098882" y1="165.18611839010953" x2="153.02543831098882" y2="202.38695155546597" class="err"/>
<line x1="150.02543831098882" y1="165.18611839010953" x2="156.02543831098882" y2="165.18611839010953" class="err"/>
<line x1="150.02543831098882" y1="202.38695155546597" x2="156.02543831098882" y2="202.38695155546597" class="err"/>
<circle cx="153.02543831098882" cy="183.78653497278776" r="2.5" class="obs"/>
<line x1="250.8861430286434" y1="125.88154269972455" x2="250.8861430286434" y2="229.19404689914668" class="err"/>
<line x1="247.8861430286434" y1="125.88154269972455" x2="253.8861430286434" y2="125.88154269972455" class="err"/>
<line x1="247.8861430286434" y1="229.19404689914668" x2="253.8861430286434" y2="229.19404689914668" class="err"/>
<circle cx="250.8861430286434" cy="177.53779479943563" r="2.5" class="obs"/>
<line x1="293.3097995950734" y1="141.71168447221663" x2="293.3097995950734" y2="180.87045622522345" class="err"/>
<line x1="290.3097995950734" y1="141.71168447221663" x2="296.3097995950734" y2="141.71168447221663" class="err"/>
<line x1="290.3097995950734" y1="180.87045622522345" x2="296.3097995950734" y2="180.87045622522345" class="err"/>
<circle cx="293.3097995950734" cy="161.29107034872004" r="2.5" class="obs"/>
<line x1="311.00801215039394" y1="117.13330645703152" x2="311.00801215039394" y2="222.52872404757107" class="err"/>
<line x1="308.00801215039394" y1="117.13330645703152" x2="314.00801215039394" y2="117.13330645703152" class="err"/>
<line x1="308.00801215039394" y1="222.52872404757107" x2="314.00801215039394" y2="222.52872404757107" class="err"/>
<circle cx="311.00801215039394" cy="169.83101525230128" r="2.5" class="obs"/>
<line x1="327.404885547235" y1="100.88658200631596" x2="327.404885547235" y2="200.03325942350335" class="err"/>
<line x1="324.404885547235" y1="100.88658200631596" x2="330.404885547235" y2="100.88658200631596" class="err"/>
<line x1="324.404885547235" y1="200.03325942350335" x2="330.404885547235" y2="200.03325942350335" class="err"/>
<circle cx="327.404885547235" cy="150.45992071490963" r="2.5" class="obs"/>
<line x1="332.3499743494569" y1="139.21218840287577" x2="332.3499743494569" y2="185.03628300745817" class="err"/>
<line x1="329.3499743494569" y1="139.21218840287577" x2="335.3499743494569" y2="139.21218840287577" class="err"/>
<line x1="329.3499743494569" y1="185.03628300745817" x2="335.3499743494569" y2="185.03628300745817" class="err"/>
<circle cx="332.3499743494569" cy="162.124235705167" r="2.5" class="obs"/>
<line x1="378.15711272793345" y1="123.42370489820601" x2="378.15711272793345" y2="162.9157427937916" class="err"/>
<line x1="375.15711272793345" y1="123.42370489820601" x2="381.15711272793345" y2="123.42370489820601" class="err"/>
<line x1="375.15711272793345" y1="162.9157427937916" x2="381.15711272793345" y2="162.9157427937916" class="err"/>
<circle cx="378.15711272793345" cy="143.16972384599882" r="2.5" class="obs"/>
<line x1="448.9499629492155" y1="108.801652892562" x2="448.9499629492155" y2="154.6257474971444" class="err"/>
<line x1="445.9499629492155" y1="108.801652892562" x2="451.9499629492155" y2="108.801652892562" class="err"/>
<line x1="445.9499629492155" y1="154.6257474971444" x2="451.9499629492155" y2="154.6257474971444" class="err"/>
<circle cx="448.9499629492155" cy="131.7137001948532" r="2.5" class="obs"/>
<line x1="471.5932643067579" y1="113.17577101390847" x2="471.5932643067579" y2="152.3345427669153" class="err"/>
<line x1="468.5932643067579" y1="113.17577101390847" x2="474.5932643067579" y2="113.17577101390847" class="err"/>
<line x1="468.5932643067579" y1="152.3345427669153" x2="474.5932643067579" y2="152.3345427669153" class="err"/>
<circle cx="471.5932643067579" cy="132.75515689041188" r="2.5" class="obs"/>
<line x1="536.6602222307304" y1="83.18181818181819" x2="536.6602222307304" y2="184.411408990123" class="err"/>
<line x1="533.6602222307304" y1="83.18181818181819" x2="539.6602222307304" y2="83.18181818181819" class="err"/>
<line x1="533.6602222307304" y1="184.411408990123" x2="539.6602222307304" y2="184.411408990123" class="err"/>
<circle cx="536.6602222307304" cy="133.7966135859706" r="2.5" class="obs"/>
<line x1="565.0294158855824" y1="114.5296647181348" x2="565.0294158855824" y2="146.81482228045422" class="err"/>
<line x1="562.0294158855824" y1="114.5296647181348" x2="568.0294158855824" y2="114.5296647181348" class="err"/>
<line x1="562.0294158855824" y1="146.81482228045422" x2="568.0294158855824" y2="146.81482228045422" class="err"/>
<circle cx="565.0294158855824" cy="130.6722434992945" r="2.5" class="obs"/>
<line x1="593.1383417087385" y1="121.9240072566015" x2="593.1383417087385" y2="166.4983538265135" class="err"/>
<line x1="590.1383417087385" y1="121.9240072566015" x2="596.1383417087385" y2="121.9240072566015" class="err"/>
<line x1="590.1383417087385" y1="166.4983538265135" x2="596.1383417087385" y2="166.4983538265135" class="err"/>
<circle cx="593.1383417087385" cy="144.2111805415575" r="2.5" class="obs"/>
<g class="legend">
<line x1="82" y1="69" x2="106" y2="69" class="fw"/>
<text x="112" y="73" class="lbl-l">framework fit</text>
<line x1="82" y1="87" x2="106" y2="87" class="nt"/>
<text x="112" y="91" class="lbl-l">Newtonian (no halo)</text>
<circle cx="94" cy="105" r="2.5" class="obs"/>
<text x="112" y="109" class="lbl">observed V±err</text>
</g>
<g class="legend">
<line x1="460" y1="69" x2="484" y2="69" class="rho"/>
<text x="490" y="73" class="lbl-r">ρ(r) raw</text>
<line x1="460" y1="87" x2="484" y2="87" class="sig"/>
<text x="490" y="91" class="lbl-r">Σ(r) smoothed</text>
<text x="460" y="113" class="lbl-r">ρ peak: 112 M☉/pc²</text>
</g>
</svg>