<svg xmlns="http://www.w3.org/2000/svg" viewBox="0 0 960 450" width="960" height="450" font-family="sans-serif" font-size="12">
<style>
  .ax { stroke: #333; stroke-width: 1; fill: none; }
  .grid { stroke: #ddd; stroke-width: 0.5; fill: none; }
  .lbl { fill: #333; }
  .lbl-l { fill: #0066cc; }
  .lbl-r { fill: #b03030; }
  .obs { fill: #222; }
  .err { stroke: #555; stroke-width: 0.8; fill: none; }
  .fw { stroke: #0066cc; stroke-width: 2.2; fill: none; }
  .nt { stroke: #cc6600; stroke-width: 1.6; fill: none; stroke-dasharray: 5,3; }
  .mond { stroke: #7b2cbf; stroke-width: 1.8; fill: none; stroke-dasharray: 7,3; }
  .lbl-p { fill: #cc7000; }
  .lbl-m { fill: #7b2cbf; }
  .rho { stroke: #b03030; stroke-width: 2.0; fill: none; }
  .phot { stroke: #cc7000; stroke-width: 1.8; fill: none; }
  .mbar { stroke: #8e44ad; stroke-width: 1.8; fill: none; opacity: 0.9; }
  .mph { stroke: #c77dff; stroke-width: 1.6; fill: none; stroke-dasharray: 4,3; opacity: 0.95; }
  .title { fill: #111; font-size: 16px; font-weight: 600; }
  .subtitle { fill: #555; font-size: 11px; }
  .preview-bg { fill: #000; }
  .preview-lbl { fill: #888; font-size: 10px; }
  .legend { font-size: 11px; }
</style>
<text x="378.5" y="22" text-anchor="middle" class="title">F563-V1</text>
<text x="378.5" y="38" text-anchor="middle" class="subtitle">rMax=7.9 kpc, N=6, FW=0.4 km/s, 1.6%, 0.09σ, MOND=29.3 km/s, 114.6%, 5.86σ, amp=104</text>
<line x1="70" y1="395.0" x2="687" y2="395.0" class="grid"/>
<text x="64" y="399.0" text-anchor="end" class="lbl-l">0</text>
<line x1="70" y1="327.0" x2="687" y2="327.0" class="grid"/>
<text x="64" y="331.0" text-anchor="end" class="lbl-l">15</text>
<line x1="70" y1="259.0" x2="687" y2="259.0" class="grid"/>
<text x="64" y="263.0" text-anchor="end" class="lbl-l">30</text>
<line x1="70" y1="191.0" x2="687" y2="191.0" class="grid"/>
<text x="64" y="195.0" text-anchor="end" class="lbl-l">46</text>
<line x1="70" y1="123.0" x2="687" y2="123.0" class="grid"/>
<text x="64" y="127.0" text-anchor="end" class="lbl-l">61</text>
<line x1="70" y1="55.0" x2="687" y2="55.0" class="grid"/>
<text x="64" y="59.0" text-anchor="end" class="lbl-l">76</text>
<text x="693" y="399.0" text-anchor="start" class="lbl-r">0.0</text>
<text x="693" y="353.7" text-anchor="start" class="lbl-r">0.2</text>
<text x="693" y="308.3" text-anchor="start" class="lbl-r">0.4</text>
<text x="693" y="263.0" text-anchor="start" class="lbl-r">0.6</text>
<text x="693" y="217.7" text-anchor="start" class="lbl-r">0.8</text>
<text x="693" y="172.3" text-anchor="start" class="lbl-r">1.0</text>
<line x1="70.0" y1="55" x2="70.0" y2="395" class="grid"/>
<text x="70.0" y="411" text-anchor="middle" class="lbl">0.0</text>
<line x1="172.8" y1="55" x2="172.8" y2="395" class="grid"/>
<text x="172.8" y="411" text-anchor="middle" class="lbl">1.4</text>
<line x1="275.7" y1="55" x2="275.7" y2="395" class="grid"/>
<text x="275.7" y="411" text-anchor="middle" class="lbl">2.8</text>
<line x1="378.5" y1="55" x2="378.5" y2="395" class="grid"/>
<text x="378.5" y="411" text-anchor="middle" class="lbl">4.3</text>
<line x1="481.3" y1="55" x2="481.3" y2="395" class="grid"/>
<text x="481.3" y="411" text-anchor="middle" class="lbl">5.7</text>
<line x1="584.2" y1="55" x2="584.2" y2="395" class="grid"/>
<text x="584.2" y="411" text-anchor="middle" class="lbl">7.1</text>
<line x1="687.0" y1="55" x2="687.0" y2="395" class="grid"/>
<text x="687.0" y="411" text-anchor="middle" class="lbl">8.5</text>
<text x="378.5" y="438" text-anchor="middle" class="lbl">radius (kpc)</text>
<text x="16" y="225" text-anchor="middle" class="lbl-l" transform="rotate(-90, 16, 225)">velocity (km/s)</text>
<text x="724" y="225" text-anchor="middle" class="lbl-r" transform="rotate(-90, 724, 225)">profiles (normalized to peak)</text>
<rect x="70" y="55" width="617" height="340" class="ax"/>
<path d="M 70.0,168.3 L 72.8,176.6 L 75.6,184.8 L 78.5,193.1 L 81.3,201.3 L 84.1,209.6 L 86.9,217.8 L 89.7,226.1 L 92.5,234.3 L 95.4,242.5 L 98.2,250.8 L 101.0,259.0 L 103.8,261.5 L 106.6,261.5 L 109.4,261.5 L 112.3,261.6 L 115.1,261.8 L 117.9,261.9 L 120.7,262.0 L 123.5,262.1 L 126.3,262.2 L 129.2,262.3 L 132.0,262.5 L 134.8,262.6 L 137.6,262.7 L 140.4,262.8 L 143.3,262.9 L 146.1,263.1 L 148.9,263.2 L 151.7,263.3 L 154.5,263.4 L 157.3,263.5 L 160.2,263.7 L 163.0,263.8 L 165.8,263.9 L 168.6,264.0 L 171.4,264.1 L 174.2,264.3 L 177.1,264.4 L 179.9,264.5 L 182.7,264.6 L 185.5,264.7 L 188.3,264.8 L 191.1,265.0 L 194.0,265.1 L 196.8,265.2 L 199.6,265.3 L 202.4,265.4 L 205.2,265.6 L 208.1,265.7 L 210.9,265.8 L 213.7,265.9 L 216.5,266.0 L 219.3,266.2 L 222.1,266.3 L 225.0,266.4 L 227.8,266.5 L 230.6,266.6 L 233.4,266.8 L 236.2,266.9 L 239.0,267.0 L 241.9,267.2 L 244.7,267.8 L 247.5,268.4 L 250.3,268.9 L 253.1,269.5 L 255.9,270.0 L 258.8,270.6 L 261.6,271.2 L 264.4,271.7 L 267.2,272.3 L 270.0,272.8 L 272.8,273.4 L 275.7,273.9 L 278.5,274.5 L 281.3,275.1 L 284.1,275.6 L 286.9,276.2 L 289.8,276.7 L 292.6,277.3 L 295.4,277.9 L 298.2,278.4 L 301.0,279.0 L 303.8,279.5 L 306.7,280.1 L 309.5,280.7 L 312.3,281.2 L 315.1,281.8 L 317.9,282.3 L 320.7,282.9 L 323.6,283.5 L 326.4,284.0 L 329.2,284.6 L 332.0,285.1 L 334.8,285.7 L 337.6,286.3 L 340.5,286.8 L 343.3,287.4 L 346.1,287.9 L 348.9,288.5 L 351.7,289.1 L 354.6,289.6 L 357.4,290.2 L 360.2,290.7 L 363.0,291.3 L 365.8,291.9 L 368.6,292.4 L 371.5,293.0 L 374.3,293.5 L 377.1,294.1 L 379.9,294.6 L 382.7,295.2 L 385.5,295.8 L 388.4,296.3 L 391.2,296.9 L 394.0,297.4 L 396.8,298.0 L 399.6,298.6 L 402.4,299.1 L 405.3,299.7 L 408.1,300.2 L 410.9,300.8 L 413.7,301.4 L 416.5,301.9 L 419.4,302.5 L 422.2,303.0 L 425.0,303.6 L 427.8,304.2 L 430.6,304.7 L 433.4,305.3 L 436.3,305.8 L 439.1,306.4 L 441.9,307.0 L 444.7,307.5 L 447.5,308.1 L 450.3,308.6 L 453.2,309.2 L 456.0,309.8 L 458.8,310.3 L 461.6,310.9 L 464.4,311.4 L 467.2,312.0 L 470.1,312.6 L 472.9,313.1 L 475.7,313.7 L 478.5,314.2 L 481.3,314.8 L 484.2,315.4 L 487.0,315.9 L 489.8,316.5 L 492.6,317.0 L 495.4,317.6 L 498.2,318.1 L 501.1,318.7 L 503.9,319.3 L 506.7,319.8 L 509.5,320.4 L 512.3,320.9 L 515.1,321.5 L 518.0,322.1 L 520.8,322.6 L 523.6,323.2 L 526.4,323.7 L 529.2,324.3 L 532.0,324.9 L 534.9,325.4 L 537.7,326.0 L 540.5,326.5 L 543.3,327.1 L 546.1,327.7 L 548.9,328.2 L 551.8,328.8 L 554.6,329.3 L 557.4,329.9 L 560.2,330.5 L 563.0,331.0 L 565.9,331.6 L 568.7,332.1 L 571.5,332.7 L 574.3,333.3 L 577.1,333.8 L 579.9,334.4 L 582.8,334.9 L 585.6,335.5 L 588.4,336.1 L 591.2,336.6 L 594.0,337.2 L 596.8,337.7 L 599.7,338.3 L 602.5,338.9 L 605.3,339.4 L 608.1,340.0 L 610.9,340.5 L 613.7,341.1 L 616.6,341.6 L 619.4,342.2 L 622.2,342.8 L 625.0,343.3 L 627.8,343.9 L 630.7,344.4 L 633.5,345.5 L 636.3,351.3 L 639.1,357.1 L 641.9,362.9 L 644.7,368.6 L 647.6,374.4 L 650.4,380.2 L 653.2,385.9 L 656.0,391.7 L 658.8,395.0 L 661.6,395.0 L 664.5,395.0 L 667.3,395.0 L 670.1,395.0 L 672.9,395.0 L 675.7,395.0 L 678.5,395.0 L 681.4,395.0 L 684.2,395.0 L 687.0,395.0" class="rho"/>
<path d="M 164.6,168.3 L 259.9,227.5 L 353.8,266.2 L 448.4,329.5 L 543.0,352.0 L 638.3,348.9" class="phot"/>
<path d="M 164.6,257.5 L 259.9,203.6 L 353.8,168.3 L 448.4,203.3 L 543.0,249.1 L 638.3,264.5" class="mbar"/>
<path d="M 164.6,216.1 L 259.9,186.8 L 353.8,168.3 L 448.4,185.6 L 543.0,208.8 L 638.3,217.6" class="mph"/>
<path d="M 76.2,373.0 L 82.3,364.8 L 88.5,359.1 L 94.7,354.9 L 100.9,351.7 L 107.0,349.0 L 113.2,346.3 L 119.4,343.6 L 125.5,341.1 L 131.7,338.5 L 137.9,336.1 L 144.0,333.8 L 150.2,331.5 L 156.4,329.3 L 162.6,327.2 L 168.7,325.1 L 174.9,323.1 L 181.1,321.1 L 187.2,319.2 L 193.4,317.4 L 199.6,315.6 L 205.7,313.8 L 211.9,312.1 L 218.1,310.4 L 224.3,308.7 L 230.4,307.1 L 236.6,305.5 L 242.8,304.0 L 248.9,302.5 L 255.1,301.0 L 261.3,299.6 L 267.4,298.2 L 273.6,296.9 L 279.8,295.6 L 285.9,294.4 L 292.1,293.2 L 298.3,292.0 L 304.5,290.9 L 310.6,289.8 L 316.8,288.7 L 323.0,287.6 L 329.1,286.6 L 335.3,285.6 L 341.5,284.6 L 347.7,283.7 L 353.8,282.8 L 360.0,281.9 L 366.2,281.0 L 372.3,280.2 L 378.5,279.4 L 384.7,278.6 L 390.8,277.8 L 397.0,277.1 L 403.2,276.3 L 409.4,275.6 L 415.5,274.9 L 421.7,274.3 L 427.9,273.6 L 434.0,273.0 L 440.2,272.4 L 446.4,271.8 L 452.5,271.2 L 458.7,270.7 L 464.9,270.1 L 471.1,269.6 L 477.2,269.1 L 483.4,268.6 L 489.6,268.1 L 495.7,267.7 L 501.9,267.2 L 508.1,266.8 L 514.2,266.4 L 520.4,266.0 L 526.6,265.7 L 532.8,265.3 L 538.9,265.0 L 545.1,264.6 L 551.3,264.3 L 557.4,264.0 L 563.6,263.7 L 569.8,263.5 L 575.9,263.2 L 582.1,263.0 L 588.3,262.7 L 594.4,262.5 L 600.6,262.3 L 606.8,262.2 L 613.0,262.0 L 619.1,261.8 L 625.3,261.7 L 631.5,261.6 L 637.6,261.5 L 643.8,261.6 L 650.0,262.0 L 656.2,262.5 L 662.3,263.2 L 668.5,263.9 L 674.7,264.6 L 680.8,265.2 L 687.0,265.9" class="nt"/>
<path d="M 164.6,278.9 L 259.9,214.6 L 353.8,157.2 L 448.4,127.4 L 543.0,105.7 L 638.3,85.9" class="mond"/>
<path d="M 75.1,384.9 L 80.3,377.7 L 85.4,370.5 L 90.6,364.4 L 95.7,359.7 L 100.8,356.2 L 106.0,353.9 L 111.1,352.5 L 116.3,351.5 L 121.4,350.7 L 126.6,350.1 L 131.7,349.3 L 136.8,348.5 L 142.0,347.5 L 147.1,346.4 L 152.3,345.2 L 157.4,343.8 L 162.6,342.3 L 167.7,340.7 L 172.8,339.0 L 178.0,337.2 L 183.1,335.3 L 188.3,333.3 L 193.4,331.2 L 198.5,329.0 L 203.7,326.7 L 208.8,324.3 L 214.0,321.8 L 219.1,319.2 L 224.3,316.5 L 229.4,313.7 L 234.5,310.8 L 239.7,307.9 L 244.8,305.1 L 250.0,302.3 L 255.1,299.6 L 260.2,297.1 L 265.4,294.7 L 270.5,292.5 L 275.7,290.4 L 280.8,288.4 L 285.9,286.5 L 291.1,284.8 L 296.2,283.1 L 301.4,281.6 L 306.5,280.1 L 311.7,278.8 L 316.8,277.5 L 321.9,276.2 L 327.1,275.1 L 332.2,274.0 L 337.4,272.9 L 342.5,272.0 L 347.7,271.1 L 352.8,270.2 L 357.9,269.4 L 363.1,268.6 L 368.2,267.9 L 373.4,267.3 L 378.5,266.7 L 383.6,266.1 L 388.8,265.6 L 393.9,265.1 L 399.1,264.7 L 404.2,264.3 L 409.4,263.9 L 414.5,263.6 L 419.6,263.4 L 424.8,263.1 L 429.9,262.9 L 435.1,262.8 L 440.2,262.6 L 445.3,262.5 L 450.5,262.5 L 455.6,262.4 L 460.8,262.4 L 465.9,262.5 L 471.1,262.5 L 476.2,262.6 L 481.3,262.7 L 486.5,262.9 L 491.6,263.1 L 496.8,263.3 L 501.9,263.5 L 507.0,263.7 L 512.2,264.0 L 517.3,264.3 L 522.5,264.6 L 527.6,265.0 L 532.8,265.3 L 537.9,265.7 L 543.0,266.0 L 548.2,266.4 L 553.3,266.8 L 558.5,267.1 L 563.6,267.5 L 568.7,267.8 L 573.9,268.2 L 579.0,268.4 L 584.2,268.7 L 589.3,268.8 L 594.4,268.9 L 599.6,268.9 L 604.7,268.8 L 609.9,268.6 L 615.0,268.3 L 620.2,268.0 L 625.3,267.9 L 630.4,268.1 L 635.6,269.0 L 640.7,270.4 L 645.9,272.7 L 651.0,275.6 L 656.1,279.0 L 661.3,282.6 L 666.4,286.3 L 671.6,289.8 L 676.7,293.1 L 681.9,296.2 L 687.0,299.0" class="fw"/>
<line x1="164.60" y1="319.13" x2="164.60" y2="363.76" class="err"/>
<line x1="161.60" y1="319.13" x2="167.60" y2="319.13" class="err"/>
<line x1="161.60" y1="363.76" x2="167.60" y2="363.76" class="err"/>
<circle cx="164.60" cy="341.44" r="2.5" class="obs"/>
<line x1="259.91" y1="275.84" x2="259.91" y2="320.47" class="err"/>
<line x1="256.91" y1="275.84" x2="262.91" y2="275.84" class="err"/>
<line x1="256.91" y1="320.47" x2="262.91" y2="320.47" class="err"/>
<circle cx="259.91" cy="298.15" r="2.5" class="obs"/>
<line x1="353.79" y1="245.04" x2="353.79" y2="289.67" class="err"/>
<line x1="350.79" y1="245.04" x2="356.79" y2="245.04" class="err"/>
<line x1="350.79" y1="289.67" x2="356.79" y2="289.67" class="err"/>
<circle cx="353.79" cy="267.36" r="2.5" class="obs"/>
<line x1="448.38" y1="241.02" x2="448.38" y2="285.65" class="err"/>
<line x1="445.38" y1="241.02" x2="451.38" y2="241.02" class="err"/>
<line x1="445.38" y1="285.65" x2="451.38" y2="285.65" class="err"/>
<circle cx="448.38" cy="263.34" r="2.5" class="obs"/>
<line x1="542.98" y1="245.04" x2="542.98" y2="289.67" class="err"/>
<line x1="539.98" y1="245.04" x2="545.98" y2="245.04" class="err"/>
<line x1="539.98" y1="289.67" x2="545.98" y2="289.67" class="err"/>
<circle cx="542.98" cy="267.36" r="2.5" class="obs"/>
<line x1="638.30" y1="250.84" x2="638.30" y2="295.47" class="err"/>
<line x1="635.30" y1="250.84" x2="641.30" y2="250.84" class="err"/>
<line x1="635.30" y1="295.47" x2="641.30" y2="295.47" class="err"/>
<circle cx="638.30" cy="273.16" r="2.5" class="obs"/>
<g class="legend">
<line x1="82" y1="69" x2="106" y2="69" class="fw"/>
<text x="112" y="73" class="lbl-l">framework: 0.4 km/s, 1.6%, 0.09σ</text>
<line x1="82" y1="87" x2="106" y2="87" class="nt"/>
<text x="112" y="91" class="lbl-l">Newtonian: 2.4 km/s, 13.3%, 0.48σ</text>
<line x1="82" y1="105" x2="106" y2="105" class="mond"/>
<text x="112" y="109" class="lbl-m">MOND/RAR: 29.3 km/s, 114.6%, 5.86σ</text>
<circle cx="94" cy="123" r="2.5" class="obs"/>
<text x="112" y="127" class="lbl">observed V±err</text>
</g>
<g class="legend">
<line x1="472" y1="69" x2="496" y2="69" class="rho"/>
<text x="502" y="73" class="lbl-r">ρ(r) raw</text>
<line x1="472" y1="87" x2="496" y2="87" class="phot"/>
<text x="502" y="91" class="lbl-p">photometric baryonic profile</text>
<line x1="472" y1="105" x2="496" y2="105" class="mbar"/>
<text x="502" y="109" class="lbl-m">MOND baryonic annulus</text>
<line x1="472" y1="123" x2="496" y2="123" class="mph"/>
<text x="502" y="127" class="lbl-m">MOND phantom annulus</text>
<text x="472" y="147" class="lbl-r">ρ peak: 22 M☉/pc²</text>
<text x="472" y="163" class="lbl-p">phot peak: 6.30 (arb.)</text>
<text x="472" y="179" class="lbl-m">Σbar peak: 8.78 M☉/pc²</text>
<text x="472" y="195" class="lbl-m">Σphantom peak: 44.94 M☉/pc²</text>
</g>
<rect x="775" y="55" width="170" height="170" class="preview-bg"/>
<defs><radialGradient id="g_F563_V1" cx="0.5" cy="0.5" r="0.5">
  <stop offset="0.0000" stop-color="rgb(80,20,20)"/>
  <stop offset="0.0313" stop-color="rgb(73,18,18)"/>
  <stop offset="0.0625" stop-color="rgb(68,17,17)"/>
  <stop offset="0.0938" stop-color="rgb(68,17,17)"/>
  <stop offset="0.1250" stop-color="rgb(68,17,17)"/>
  <stop offset="0.1563" stop-color="rgb(68,17,17)"/>
  <stop offset="0.1875" stop-color="rgb(68,17,17)"/>
  <stop offset="0.2188" stop-color="rgb(67,17,17)"/>
  <stop offset="0.2500" stop-color="rgb(67,17,17)"/>
  <stop offset="0.2813" stop-color="rgb(67,17,17)"/>
  <stop offset="0.3125" stop-color="rgb(67,17,17)"/>
  <stop offset="0.3438" stop-color="rgb(66,17,17)"/>
  <stop offset="0.3750" stop-color="rgb(66,17,17)"/>
  <stop offset="0.4063" stop-color="rgb(65,16,16)"/>
  <stop offset="0.4375" stop-color="rgb(65,16,16)"/>
  <stop offset="0.4688" stop-color="rgb(64,16,16)"/>
  <stop offset="0.5000" stop-color="rgb(64,16,16)"/>
  <stop offset="0.5313" stop-color="rgb(62,16,16)"/>
  <stop offset="0.5625" stop-color="rgb(60,15,15)"/>
  <stop offset="0.5938" stop-color="rgb(58,15,15)"/>
  <stop offset="0.6250" stop-color="rgb(56,14,14)"/>
  <stop offset="0.6563" stop-color="rgb(53,13,13)"/>
  <stop offset="0.6875" stop-color="rgb(51,13,13)"/>
  <stop offset="0.7188" stop-color="rgb(49,12,12)"/>
  <stop offset="0.7500" stop-color="rgb(46,12,12)"/>
  <stop offset="0.7813" stop-color="rgb(44,11,11)"/>
  <stop offset="0.8125" stop-color="rgb(42,11,11)"/>
  <stop offset="0.8438" stop-color="rgb(40,10,10)"/>
  <stop offset="0.8750" stop-color="rgb(37,9,9)"/>
  <stop offset="0.9063" stop-color="rgb(35,9,9)"/>
  <stop offset="0.9375" stop-color="rgb(33,8,8)"/>
  <stop offset="0.9688" stop-color="rgb(23,6,6)"/>
  <stop offset="1.0000" stop-color="rgb(0,0,0)"/>
</radialGradient></defs>
<circle cx="860" cy="140" r="81" fill="url(#g_F563_V1)"/>
<text x="860" y="49" text-anchor="middle" class="preview-lbl">face-on luminance from ρ(r)</text>
<text x="860" y="239" text-anchor="middle" class="preview-lbl">edge at r = 8.1 kpc</text>
</svg>