<svg xmlns="http://www.w3.org/2000/svg" viewBox="0 0 720 420" width="720" height="420" font-family="sans-serif" font-size="12">
<style>
  .ax { stroke: #333; stroke-width: 1; fill: none; }
  .grid { stroke: #ddd; stroke-width: 0.5; fill: none; }
  .lbl { fill: #333; }
  .lbl-l { fill: #0066cc; }
  .lbl-r { fill: #b03030; }
  .obs { fill: #222; }
  .err { stroke: #555; stroke-width: 0.8; fill: none; }
  .fw { stroke: #0066cc; stroke-width: 2.2; fill: none; }
  .nt { stroke: #cc6600; stroke-width: 1.6; fill: none; stroke-dasharray: 5,3; }
  .rho { stroke: #b03030; stroke-width: 2.0; fill: none; }
  .sig { stroke: #b03030; stroke-width: 1.6; fill: none; stroke-dasharray: 4,2; opacity: 0.85; }
  .title { fill: #111; font-size: 16px; font-weight: 600; }
  .subtitle { fill: #555; font-size: 11px; }
  .legend { font-size: 11px; }
</style>
<text x="360.0" y="22" text-anchor="middle" class="title">F565-V2</text>
<text x="360.0" y="38" text-anchor="middle" class="subtitle">rMax=8.8 kpc, N=7, RMS=1.1 km/s (1.9%), amp=102</text>
<line x1="70" y1="365.0" x2="635" y2="365.0" class="grid"/>
<text x="64" y="369.0" text-anchor="end" class="lbl-l">0</text>
<line x1="70" y1="303.0" x2="635" y2="303.0" class="grid"/>
<text x="64" y="307.0" text-anchor="end" class="lbl-l">20</text>
<line x1="70" y1="241.00000000000003" x2="635" y2="241.00000000000003" class="grid"/>
<text x="64" y="245.00000000000003" text-anchor="end" class="lbl-l">39</text>
<line x1="70" y1="179.0" x2="635" y2="179.0" class="grid"/>
<text x="64" y="183.0" text-anchor="end" class="lbl-l">59</text>
<line x1="70" y1="117.00000000000003" x2="635" y2="117.00000000000003" class="grid"/>
<text x="64" y="121.00000000000003" text-anchor="end" class="lbl-l">78</text>
<line x1="70" y1="55.0" x2="635" y2="55.0" class="grid"/>
<text x="64" y="59.0" text-anchor="end" class="lbl-l">98</text>
<text x="641" y="369.0" text-anchor="start" class="lbl-r">0.0</text>
<text x="641" y="327.6666666666667" text-anchor="start" class="lbl-r">0.2</text>
<text x="641" y="286.33333333333337" text-anchor="start" class="lbl-r">0.4</text>
<text x="641" y="245.00000000000003" text-anchor="start" class="lbl-r">0.6</text>
<text x="641" y="203.66666666666666" text-anchor="start" class="lbl-r">0.8</text>
<text x="641" y="162.33333333333334" text-anchor="start" class="lbl-r">1.0</text>
<line x1="70.0" y1="55" x2="70.0" y2="365" class="grid"/>
<text x="70.0" y="381" text-anchor="middle" class="lbl">0.0</text>
<line x1="164.16666666666666" y1="55" x2="164.16666666666666" y2="365" class="grid"/>
<text x="164.16666666666666" y="381" text-anchor="middle" class="lbl">1.6</text>
<line x1="258.3333333333333" y1="55" x2="258.3333333333333" y2="365" class="grid"/>
<text x="258.3333333333333" y="381" text-anchor="middle" class="lbl">3.1</text>
<line x1="352.5" y1="55" x2="352.5" y2="365" class="grid"/>
<text x="352.5" y="381" text-anchor="middle" class="lbl">4.7</text>
<line x1="446.66666666666663" y1="55" x2="446.66666666666663" y2="365" class="grid"/>
<text x="446.66666666666663" y="381" text-anchor="middle" class="lbl">6.2</text>
<line x1="540.8333333333334" y1="55" x2="540.8333333333334" y2="365" class="grid"/>
<text x="540.8333333333334" y="381" text-anchor="middle" class="lbl">7.8</text>
<line x1="635.0" y1="55" x2="635.0" y2="365" class="grid"/>
<text x="635.0" y="381" text-anchor="middle" class="lbl">9.3</text>
<text x="352.5" y="408" text-anchor="middle" class="lbl">radius (kpc)</text>
<text x="16" y="210.0" text-anchor="middle" class="lbl-l" transform="rotate(-90, 16, 210.0)">velocity (km/s)</text>
<text x="704" y="210.0" text-anchor="middle" class="lbl-r" transform="rotate(-90, 704, 210.0)">mass profile (normalized to peak)</text>
<rect x="70" y="55" width="565" height="310" class="ax"/>
<path d="M 70.0,158.3 L 72.6,164.8 L 75.2,171.3 L 77.7,177.7 L 80.3,184.2 L 82.9,190.7 L 85.5,197.1 L 88.1,203.6 L 90.6,210.1 L 93.2,216.5 L 95.8,223.0 L 98.4,229.5 L 101.0,229.6 L 103.5,229.7 L 106.1,229.8 L 108.7,229.9 L 111.3,229.9 L 113.9,230.0 L 116.4,230.1 L 119.0,230.2 L 121.6,230.3 L 124.2,230.4 L 126.8,230.5 L 129.3,230.6 L 131.9,230.6 L 134.5,230.7 L 137.1,230.8 L 139.7,230.9 L 142.2,231.0 L 144.8,231.1 L 147.4,231.2 L 150.0,231.3 L 152.6,231.3 L 155.1,231.4 L 157.7,231.4 L 160.3,231.4 L 162.9,231.4 L 165.5,231.4 L 168.0,231.4 L 170.6,231.4 L 173.2,231.4 L 175.8,231.4 L 178.4,231.4 L 180.9,231.4 L 183.5,231.4 L 186.1,231.4 L 188.7,231.4 L 191.3,231.4 L 193.8,231.4 L 196.4,231.4 L 199.0,231.4 L 201.6,231.4 L 204.2,231.4 L 206.7,231.4 L 209.3,231.4 L 211.9,231.4 L 214.5,231.4 L 217.1,231.4 L 219.6,231.4 L 222.2,231.6 L 224.8,232.1 L 227.4,232.5 L 230.0,233.0 L 232.5,233.4 L 235.1,233.8 L 237.7,234.3 L 240.3,234.7 L 242.9,235.2 L 245.4,235.6 L 248.0,236.1 L 250.6,236.5 L 253.2,237.0 L 255.8,237.4 L 258.3,237.9 L 260.9,238.3 L 263.5,238.8 L 266.1,239.2 L 268.7,239.7 L 271.2,240.1 L 273.8,240.6 L 276.4,241.0 L 279.0,241.5 L 281.6,241.9 L 284.1,242.4 L 286.7,242.8 L 289.3,243.3 L 291.9,243.7 L 294.5,244.2 L 297.0,244.6 L 299.6,245.1 L 302.2,245.5 L 304.8,245.9 L 307.4,246.4 L 309.9,246.8 L 312.5,247.3 L 315.1,247.7 L 317.7,248.2 L 320.3,248.6 L 322.8,249.1 L 325.4,249.5 L 328.0,250.0 L 330.6,250.4 L 333.2,250.9 L 335.7,251.3 L 338.3,251.8 L 340.9,252.2 L 343.5,252.7 L 346.1,253.1 L 348.6,253.6 L 351.2,254.0 L 353.8,254.5 L 356.4,254.9 L 358.9,255.4 L 361.5,255.8 L 364.1,256.3 L 366.7,256.7 L 369.3,257.1 L 371.8,257.6 L 374.4,258.0 L 377.0,258.5 L 379.6,258.9 L 382.2,259.4 L 384.7,259.8 L 387.3,260.3 L 389.9,260.7 L 392.5,261.2 L 395.1,261.6 L 397.6,262.1 L 400.2,262.5 L 402.8,263.0 L 405.4,263.4 L 408.0,263.9 L 410.5,264.3 L 413.1,264.8 L 415.7,265.2 L 418.3,265.7 L 420.9,266.1 L 423.4,266.6 L 426.0,267.0 L 428.6,267.5 L 431.2,267.9 L 433.8,268.4 L 436.3,268.8 L 438.9,269.2 L 441.5,269.7 L 444.1,270.1 L 446.7,270.6 L 449.2,271.0 L 451.8,271.5 L 454.4,271.9 L 457.0,272.4 L 459.6,272.8 L 462.1,273.3 L 464.7,273.7 L 467.3,274.2 L 469.9,274.6 L 472.5,275.1 L 475.0,275.5 L 477.6,276.0 L 480.2,276.4 L 482.8,276.9 L 485.4,277.3 L 487.9,277.8 L 490.5,278.2 L 493.1,278.7 L 495.7,279.1 L 498.3,279.6 L 500.8,280.0 L 503.4,280.4 L 506.0,280.9 L 508.6,281.3 L 511.2,281.8 L 513.7,282.2 L 516.3,282.7 L 518.9,283.1 L 521.5,283.6 L 524.1,284.0 L 526.6,284.5 L 529.2,284.9 L 531.8,285.4 L 534.4,285.8 L 537.0,286.3 L 539.5,286.7 L 542.1,287.2 L 544.7,287.6 L 547.3,288.1 L 549.9,288.5 L 552.4,289.0 L 555.0,289.4 L 557.6,289.9 L 560.2,290.3 L 562.8,290.8 L 565.3,291.2 L 567.9,291.7 L 570.5,292.1 L 573.1,292.5 L 575.7,293.0 L 578.2,293.4 L 580.8,293.9 L 583.4,294.3 L 586.0,294.8 L 588.6,295.2 L 591.1,295.7 L 593.7,296.1 L 596.3,298.3 L 598.9,312.9 L 601.5,327.5 L 604.0,342.1 L 606.6,356.7 L 609.2,365.0 L 611.8,365.0 L 614.4,365.0 L 616.9,365.0 L 619.5,365.0 L 622.1,365.0 L 624.7,365.0 L 627.3,365.0 L 629.8,365.0 L 632.4,365.0 L 635.0,365.0" class="rho"/>
<path d="M 70.0,158.3 L 72.6,158.4 L 75.2,158.6 L 77.7,158.8 L 80.3,159.0 L 82.9,159.4 L 85.5,159.8 L 88.1,160.2 L 90.6,160.6 L 93.2,161.1 L 95.8,161.6 L 98.4,162.1 L 101.0,162.6 L 103.5,163.1 L 106.1,163.5 L 108.7,164.0 L 111.3,164.4 L 113.9,164.9 L 116.4,165.3 L 119.0,165.7 L 121.6,166.1 L 124.2,166.5 L 126.8,166.9 L 129.3,167.3 L 131.9,167.7 L 134.5,168.1 L 137.1,168.5 L 139.7,168.9 L 142.2,169.3 L 144.8,169.7 L 147.4,170.1 L 150.0,170.5 L 152.6,170.9 L 155.1,171.3 L 157.7,171.7 L 160.3,172.1 L 162.9,172.5 L 165.5,172.9 L 168.0,173.4 L 170.6,173.8 L 173.2,174.3 L 175.8,174.7 L 178.4,175.2 L 180.9,175.7 L 183.5,176.1 L 186.1,176.6 L 188.7,177.1 L 191.3,177.7 L 193.8,178.2 L 196.4,178.7 L 199.0,179.3 L 201.6,179.8 L 204.2,180.4 L 206.7,181.0 L 209.3,181.6 L 211.9,182.2 L 214.5,182.9 L 217.1,183.5 L 219.6,184.2 L 222.2,184.9 L 224.8,185.6 L 227.4,186.3 L 230.0,187.0 L 232.5,187.8 L 235.1,188.5 L 237.7,189.3 L 240.3,190.1 L 242.9,190.9 L 245.4,191.7 L 248.0,192.5 L 250.6,193.3 L 253.2,194.2 L 255.8,195.0 L 258.3,195.9 L 260.9,196.8 L 263.5,197.6 L 266.1,198.5 L 268.7,199.4 L 271.2,200.3 L 273.8,201.2 L 276.4,202.1 L 279.0,203.0 L 281.6,204.0 L 284.1,204.9 L 286.7,205.8 L 289.3,206.8 L 291.9,207.7 L 294.5,208.6 L 297.0,209.6 L 299.6,210.5 L 302.2,211.5 L 304.8,212.4 L 307.4,213.4 L 309.9,214.4 L 312.5,215.3 L 315.1,216.3 L 317.7,217.3 L 320.3,218.2 L 322.8,219.2 L 325.4,220.2 L 328.0,221.2 L 330.6,222.1 L 333.2,223.1 L 335.7,224.1 L 338.3,225.1 L 340.9,226.1 L 343.5,227.0 L 346.1,228.0 L 348.6,229.0 L 351.2,230.0 L 353.8,231.0 L 356.4,231.9 L 358.9,232.9 L 361.5,233.9 L 364.1,234.9 L 366.7,235.9 L 369.3,236.8 L 371.8,237.8 L 374.4,238.8 L 377.0,239.8 L 379.6,240.8 L 382.2,241.7 L 384.7,242.7 L 387.3,243.7 L 389.9,244.6 L 392.5,245.6 L 395.1,246.6 L 397.6,247.5 L 400.2,248.5 L 402.8,249.5 L 405.4,250.4 L 408.0,251.4 L 410.5,252.3 L 413.1,253.3 L 415.7,254.3 L 418.3,255.2 L 420.9,256.2 L 423.4,257.1 L 426.0,258.0 L 428.6,259.0 L 431.2,259.9 L 433.8,260.9 L 436.3,261.8 L 438.9,262.7 L 441.5,263.7 L 444.1,264.6 L 446.7,265.5 L 449.2,266.4 L 451.8,267.4 L 454.4,268.3 L 457.0,269.2 L 459.6,270.1 L 462.1,271.0 L 464.7,271.9 L 467.3,272.8 L 469.9,273.7 L 472.5,274.7 L 475.0,275.6 L 477.6,276.5 L 480.2,277.3 L 482.8,278.2 L 485.4,279.1 L 487.9,280.0 L 490.5,280.9 L 493.1,281.8 L 495.7,282.7 L 498.3,283.6 L 500.8,284.4 L 503.4,285.3 L 506.0,286.2 L 508.6,287.1 L 511.2,287.9 L 513.7,288.8 L 516.3,289.7 L 518.9,290.5 L 521.5,291.4 L 524.1,292.3 L 526.6,293.1 L 529.2,294.0 L 531.8,294.9 L 534.4,295.7 L 537.0,296.6 L 539.5,297.5 L 542.1,298.3 L 544.7,299.2 L 547.3,300.1 L 549.9,301.0 L 552.4,301.8 L 555.0,302.7 L 557.6,303.6 L 560.2,304.5 L 562.8,305.4 L 565.3,306.3 L 567.9,307.2 L 570.5,308.1 L 573.1,309.0 L 575.7,309.9 L 578.2,310.8 L 580.8,311.8 L 583.4,312.7 L 586.0,313.7 L 588.6,314.6 L 591.1,315.5 L 593.7,316.5 L 596.3,317.4 L 598.9,318.4 L 601.5,319.3 L 604.0,320.2 L 606.6,321.1 L 609.2,322.0 L 611.8,322.8 L 614.4,323.7 L 616.9,324.5 L 619.5,325.2 L 622.1,326.0 L 624.7,326.7 L 627.3,327.4 L 629.8,328.1 L 632.4,328.7 L 635.0,329.3" class="sig"/>
<path d="M 75.7,328.0 L 81.3,314.0 L 86.9,304.1 L 92.6,296.6 L 98.2,290.7 L 103.9,285.5 L 109.5,280.4 L 115.2,275.4 L 120.8,270.7 L 126.5,266.1 L 132.2,261.7 L 137.8,257.5 L 143.4,253.4 L 149.1,249.4 L 154.8,245.6 L 160.4,241.9 L 166.1,238.2 L 171.7,234.7 L 177.3,231.3 L 183.0,227.9 L 188.7,224.6 L 194.3,221.4 L 200.0,218.2 L 205.6,215.1 L 211.2,212.1 L 216.9,209.1 L 222.6,206.2 L 228.2,203.4 L 233.9,200.6 L 239.5,198.0 L 245.2,195.4 L 250.8,192.9 L 256.4,190.4 L 262.1,188.0 L 267.8,185.7 L 273.4,183.5 L 279.1,181.3 L 284.7,179.1 L 290.4,177.0 L 296.0,175.0 L 301.6,173.0 L 307.3,171.0 L 313.0,169.1 L 318.6,167.2 L 324.2,165.4 L 329.9,163.6 L 335.6,161.9 L 341.2,160.2 L 346.9,158.5 L 352.5,156.9 L 358.1,155.3 L 363.8,153.8 L 369.4,152.2 L 375.1,150.8 L 380.8,149.3 L 386.4,147.9 L 392.0,146.5 L 397.7,145.1 L 403.4,143.8 L 409.0,142.5 L 414.6,141.2 L 420.3,140.0 L 426.0,138.7 L 431.6,137.5 L 437.2,136.4 L 442.9,135.2 L 448.6,134.1 L 454.2,133.0 L 459.8,132.0 L 465.5,130.9 L 471.2,129.9 L 476.8,128.9 L 482.4,128.0 L 488.1,127.0 L 493.8,126.1 L 499.4,125.2 L 505.1,124.3 L 510.7,123.5 L 516.4,122.6 L 522.0,121.8 L 527.7,121.0 L 533.3,120.3 L 539.0,119.5 L 544.6,118.8 L 550.2,118.1 L 555.9,117.4 L 561.5,116.8 L 567.2,116.1 L 572.9,115.5 L 578.5,114.9 L 584.1,114.3 L 589.8,113.7 L 595.5,113.2 L 601.1,113.0 L 606.8,113.7 L 612.4,115.0 L 618.0,116.3 L 623.7,117.6 L 629.3,118.9 L 635.0,120.0" class="nt"/>
<path d="M 74.7,353.3 L 79.4,345.0 L 84.1,336.6 L 88.8,329.3 L 93.5,323.5 L 98.2,319.2 L 103.0,315.9 L 107.7,313.4 L 112.4,311.5 L 117.1,309.7 L 121.8,307.9 L 126.5,306.1 L 131.2,304.2 L 135.9,302.1 L 140.6,299.8 L 145.3,297.4 L 150.0,294.9 L 154.8,292.2 L 159.5,289.4 L 164.2,286.4 L 168.9,283.3 L 173.6,280.0 L 178.3,276.6 L 183.0,273.0 L 187.7,269.2 L 192.4,265.3 L 197.1,261.3 L 201.8,257.1 L 206.5,252.7 L 211.2,248.2 L 216.0,243.7 L 220.7,239.1 L 225.4,234.6 L 230.1,230.2 L 234.8,225.9 L 239.5,221.7 L 244.2,217.7 L 248.9,213.9 L 253.6,210.3 L 258.3,206.8 L 263.0,203.5 L 267.8,200.3 L 272.5,197.2 L 277.2,194.3 L 281.9,191.4 L 286.6,188.7 L 291.3,186.0 L 296.0,183.4 L 300.7,181.0 L 305.4,178.6 L 310.1,176.2 L 314.8,174.0 L 319.5,171.8 L 324.2,169.7 L 329.0,167.7 L 333.7,165.7 L 338.4,163.8 L 343.1,162.0 L 347.8,160.2 L 352.5,158.4 L 357.2,156.8 L 361.9,155.1 L 366.6,153.6 L 371.3,152.0 L 376.0,150.6 L 380.7,149.1 L 385.5,147.8 L 390.2,146.4 L 394.9,145.1 L 399.6,143.9 L 404.3,142.7 L 409.0,141.5 L 413.7,140.4 L 418.4,139.3 L 423.1,138.2 L 427.8,137.2 L 432.5,136.2 L 437.2,135.2 L 442.0,134.3 L 446.7,133.4 L 451.4,132.5 L 456.1,131.6 L 460.8,130.7 L 465.5,129.9 L 470.2,129.1 L 474.9,128.2 L 479.6,127.4 L 484.3,126.6 L 489.0,125.8 L 493.8,124.9 L 498.5,124.1 L 503.2,123.2 L 507.9,122.3 L 512.6,121.4 L 517.3,120.3 L 522.0,119.3 L 526.7,118.1 L 531.4,116.9 L 536.1,115.5 L 540.8,114.0 L 545.5,112.4 L 550.2,110.6 L 555.0,108.5 L 559.7,106.3 L 564.4,103.8 L 569.1,101.1 L 573.8,98.2 L 578.5,95.3 L 583.2,92.6 L 587.9,90.5 L 592.6,89.3 L 597.3,89.6 L 602.0,91.6 L 606.8,95.2 L 611.5,100.4 L 616.2,106.5 L 620.9,113.2 L 625.6,120.1 L 630.3,126.9 L 635.0,133.4" class="fw"/>
<line x1="146.472586139378" y1="264.7347209468422" x2="146.472586139378" y2="327.9935720844812" class="err"/>
<line x1="143.472586139378" y1="264.7347209468422" x2="149.472586139378" y2="264.7347209468422" class="err"/>
<line x1="143.472586139378" y1="327.9935720844812" x2="149.472586139378" y2="327.9935720844812" class="err"/>
<circle cx="146.472586139378" cy="296.3641465156617" r="2.5" class="obs"/>
<line x1="222.3382469919355" y1="205.90398938883789" x2="222.3382469919355" y2="269.1628405264769" class="err"/>
<line x1="219.3382469919355" y1="205.90398938883789" x2="225.3382469919355" y2="205.90398938883789" class="err"/>
<line x1="219.3382469919355" y1="269.1628405264769" x2="225.3382469919355" y2="269.1628405264769" class="err"/>
<circle cx="222.3382469919355" cy="237.53341495765739" r="2.5" class="obs"/>
<line x1="299.41775841813393" y1="160.3576165697378" x2="299.41775841813393" y2="204.63881236608512" class="err"/>
<line x1="296.41775841813393" y1="160.3576165697378" x2="302.41775841813393" y2="160.3576165697378" class="err"/>
<line x1="296.41775841813393" y1="204.63881236608512" x2="302.41775841813393" y2="204.63881236608512" class="err"/>
<circle cx="299.41775841813393" cy="182.49821446791145" r="2.5" class="obs"/>
<line x1="375.28341927069147" y1="126.19783695541273" x2="375.28341927069147" y2="170.47903275176003" class="err"/>
<line x1="372.28341927069147" y1="126.19783695541273" x2="378.28341927069147" y2="126.19783695541273" class="err"/>
<line x1="372.28341927069147" y1="170.47903275176003" x2="378.28341927069147" y2="170.47903275176003" class="err"/>
<circle cx="375.28341927069147" cy="148.3384348535864" r="2.5" class="obs"/>
<line x1="451.75600541006946" y1="110.38312417100298" x2="451.75600541006946" y2="154.66431996735028" class="err"/>
<line x1="448.75600541006946" y1="110.38312417100298" x2="454.75600541006946" y2="110.38312417100298" class="err"/>
<line x1="448.75600541006946" y1="154.66431996735028" x2="454.75600541006946" y2="154.66431996735028" class="err"/>
<circle cx="451.75600541006946" cy="132.52372206917664" r="2.5" class="obs"/>
<line x1="527.6216662626271" y1="100.89429650035713" x2="527.6216662626271" y2="132.52372206917664" class="err"/>
<line x1="524.6216662626271" y1="100.89429650035713" x2="530.6216662626271" y2="100.89429650035713" class="err"/>
<line x1="524.6216662626271" y1="132.52372206917664" x2="530.6216662626271" y2="132.52372206917664" class="err"/>
<circle cx="527.6216662626271" cy="116.70900928476686" r="2.5" class="obs"/>
<line x1="604.094252402005" y1="83.18181818181823" x2="604.094252402005" y2="121.1371288644016" class="err"/>
<line x1="601.094252402005" y1="83.18181818181823" x2="607.094252402005" y2="83.18181818181823" class="err"/>
<line x1="601.094252402005" y1="121.1371288644016" x2="607.094252402005" y2="121.1371288644016" class="err"/>
<circle cx="604.094252402005" cy="102.15947352310994" r="2.5" class="obs"/>
<g class="legend">
<line x1="82" y1="69" x2="106" y2="69" class="fw"/>
<text x="112" y="73" class="lbl-l">framework fit</text>
<line x1="82" y1="87" x2="106" y2="87" class="nt"/>
<text x="112" y="91" class="lbl-l">Newtonian (no halo)</text>
<circle cx="94" cy="105" r="2.5" class="obs"/>
<text x="112" y="109" class="lbl">observed V±err</text>
</g>
<g class="legend">
<line x1="460" y1="69" x2="484" y2="69" class="rho"/>
<text x="490" y="73" class="lbl-r">ρ(r) raw</text>
<line x1="460" y1="87" x2="484" y2="87" class="sig"/>
<text x="490" y="91" class="lbl-r">Σ(r) smoothed</text>
<text x="460" y="113" class="lbl-r">ρ peak: 114 M☉/pc²</text>
</g>
</svg>