<svg xmlns="http://www.w3.org/2000/svg" viewBox="0 0 890 420" width="890" height="420" font-family="sans-serif" font-size="12">
<style>
  .ax { stroke: #333; stroke-width: 1; fill: none; }
  .grid { stroke: #ddd; stroke-width: 0.5; fill: none; }
  .lbl { fill: #333; }
  .lbl-l { fill: #0066cc; }
  .lbl-r { fill: #b03030; }
  .obs { fill: #222; }
  .err { stroke: #555; stroke-width: 0.8; fill: none; }
  .fw { stroke: #0066cc; stroke-width: 2.2; fill: none; }
  .nt { stroke: #cc6600; stroke-width: 1.6; fill: none; stroke-dasharray: 5,3; }
  .lbl-s { fill: #cc7000; }
  .rho { stroke: #b03030; stroke-width: 2.0; fill: none; }
  .sig { stroke: #cc7000; stroke-width: 1.8; fill: none; }
  .title { fill: #111; font-size: 16px; font-weight: 600; }
  .subtitle { fill: #555; font-size: 11px; }
  .preview-bg { fill: #000; }
  .preview-lbl { fill: #888; font-size: 10px; }
  .legend { font-size: 11px; }
</style>
<text x="343.5" y="22" text-anchor="middle" class="title">F565-V2</text>
<text x="343.5" y="38" text-anchor="middle" class="subtitle">rMax=8.8 kpc, N=7, RMS=1.1 km/s (1.9%), amp=102</text>
<line x1="70" y1="365.0" x2="617" y2="365.0" class="grid"/>
<text x="64" y="369.0" text-anchor="end" class="lbl-l">0</text>
<line x1="70" y1="303.0" x2="617" y2="303.0" class="grid"/>
<text x="64" y="307.0" text-anchor="end" class="lbl-l">20</text>
<line x1="70" y1="241.0" x2="617" y2="241.0" class="grid"/>
<text x="64" y="245.0" text-anchor="end" class="lbl-l">39</text>
<line x1="70" y1="179.0" x2="617" y2="179.0" class="grid"/>
<text x="64" y="183.0" text-anchor="end" class="lbl-l">59</text>
<line x1="70" y1="117.0" x2="617" y2="117.0" class="grid"/>
<text x="64" y="121.0" text-anchor="end" class="lbl-l">78</text>
<line x1="70" y1="55.0" x2="617" y2="55.0" class="grid"/>
<text x="64" y="59.0" text-anchor="end" class="lbl-l">98</text>
<text x="623" y="369.0" text-anchor="start" class="lbl-r">0.0</text>
<text x="623" y="327.7" text-anchor="start" class="lbl-r">0.2</text>
<text x="623" y="286.3" text-anchor="start" class="lbl-r">0.4</text>
<text x="623" y="245.0" text-anchor="start" class="lbl-r">0.6</text>
<text x="623" y="203.7" text-anchor="start" class="lbl-r">0.8</text>
<text x="623" y="162.3" text-anchor="start" class="lbl-r">1.0</text>
<line x1="70.0" y1="55" x2="70.0" y2="365" class="grid"/>
<text x="70.0" y="381" text-anchor="middle" class="lbl">0.0</text>
<line x1="161.2" y1="55" x2="161.2" y2="365" class="grid"/>
<text x="161.2" y="381" text-anchor="middle" class="lbl">1.6</text>
<line x1="252.3" y1="55" x2="252.3" y2="365" class="grid"/>
<text x="252.3" y="381" text-anchor="middle" class="lbl">3.1</text>
<line x1="343.5" y1="55" x2="343.5" y2="365" class="grid"/>
<text x="343.5" y="381" text-anchor="middle" class="lbl">4.7</text>
<line x1="434.7" y1="55" x2="434.7" y2="365" class="grid"/>
<text x="434.7" y="381" text-anchor="middle" class="lbl">6.2</text>
<line x1="525.8" y1="55" x2="525.8" y2="365" class="grid"/>
<text x="525.8" y="381" text-anchor="middle" class="lbl">7.8</text>
<line x1="617.0" y1="55" x2="617.0" y2="365" class="grid"/>
<text x="617.0" y="381" text-anchor="middle" class="lbl">9.3</text>
<text x="343.5" y="408" text-anchor="middle" class="lbl">radius (kpc)</text>
<text x="16" y="210" text-anchor="middle" class="lbl-l" transform="rotate(-90, 16, 210)">velocity (km/s)</text>
<text x="874" y="210" text-anchor="middle" class="lbl-r" transform="rotate(-90, 874, 210)">mass profile (normalized to peak)</text>
<rect x="70" y="55" width="547" height="310" class="ax"/>
<path d="M 70.0,158.3 L 72.5,164.8 L 75.0,171.3 L 77.5,177.7 L 80.0,184.2 L 82.5,190.7 L 85.0,197.1 L 87.5,203.6 L 90.0,210.1 L 92.5,216.5 L 95.0,223.0 L 97.5,229.5 L 100.0,229.6 L 102.5,229.7 L 105.0,229.8 L 107.5,229.9 L 110.0,229.9 L 112.5,230.0 L 115.0,230.1 L 117.5,230.2 L 120.0,230.3 L 122.5,230.4 L 124.9,230.5 L 127.4,230.6 L 129.9,230.6 L 132.4,230.7 L 134.9,230.8 L 137.4,230.9 L 139.9,231.0 L 142.4,231.1 L 144.9,231.2 L 147.4,231.3 L 149.9,231.3 L 152.4,231.4 L 154.9,231.4 L 157.4,231.4 L 159.9,231.4 L 162.4,231.4 L 164.9,231.4 L 167.4,231.4 L 169.9,231.4 L 172.4,231.4 L 174.9,231.4 L 177.4,231.4 L 179.9,231.4 L 182.4,231.4 L 184.9,231.4 L 187.4,231.4 L 189.9,231.4 L 192.4,231.4 L 194.9,231.4 L 197.4,231.4 L 199.9,231.4 L 202.4,231.4 L 204.9,231.4 L 207.4,231.4 L 209.9,231.4 L 212.4,231.4 L 214.9,231.4 L 217.4,231.6 L 219.9,232.1 L 222.4,232.5 L 224.9,233.0 L 227.4,233.4 L 229.9,233.8 L 232.4,234.3 L 234.8,234.7 L 237.3,235.2 L 239.8,235.6 L 242.3,236.1 L 244.8,236.5 L 247.3,237.0 L 249.8,237.4 L 252.3,237.9 L 254.8,238.3 L 257.3,238.8 L 259.8,239.2 L 262.3,239.7 L 264.8,240.1 L 267.3,240.6 L 269.8,241.0 L 272.3,241.5 L 274.8,241.9 L 277.3,242.4 L 279.8,242.8 L 282.3,243.3 L 284.8,243.7 L 287.3,244.2 L 289.8,244.6 L 292.3,245.1 L 294.8,245.5 L 297.3,245.9 L 299.8,246.4 L 302.3,246.8 L 304.8,247.3 L 307.3,247.7 L 309.8,248.2 L 312.3,248.6 L 314.8,249.1 L 317.3,249.5 L 319.8,250.0 L 322.3,250.4 L 324.8,250.9 L 327.3,251.3 L 329.8,251.8 L 332.3,252.2 L 334.8,252.7 L 337.3,253.1 L 339.8,253.6 L 342.3,254.0 L 344.7,254.5 L 347.2,254.9 L 349.7,255.4 L 352.2,255.8 L 354.7,256.3 L 357.2,256.7 L 359.7,257.1 L 362.2,257.6 L 364.7,258.0 L 367.2,258.5 L 369.7,258.9 L 372.2,259.4 L 374.7,259.8 L 377.2,260.3 L 379.7,260.7 L 382.2,261.2 L 384.7,261.6 L 387.2,262.1 L 389.7,262.5 L 392.2,263.0 L 394.7,263.4 L 397.2,263.9 L 399.7,264.3 L 402.2,264.8 L 404.7,265.2 L 407.2,265.7 L 409.7,266.1 L 412.2,266.6 L 414.7,267.0 L 417.2,267.5 L 419.7,267.9 L 422.2,268.4 L 424.7,268.8 L 427.2,269.2 L 429.7,269.7 L 432.2,270.1 L 434.7,270.6 L 437.2,271.0 L 439.7,271.5 L 442.2,271.9 L 444.7,272.4 L 447.2,272.8 L 449.7,273.3 L 452.2,273.7 L 454.6,274.2 L 457.1,274.6 L 459.6,275.1 L 462.1,275.5 L 464.6,276.0 L 467.1,276.4 L 469.6,276.9 L 472.1,277.3 L 474.6,277.8 L 477.1,278.2 L 479.6,278.7 L 482.1,279.1 L 484.6,279.6 L 487.1,280.0 L 489.6,280.4 L 492.1,280.9 L 494.6,281.3 L 497.1,281.8 L 499.6,282.2 L 502.1,282.7 L 504.6,283.1 L 507.1,283.6 L 509.6,284.0 L 512.1,284.5 L 514.6,284.9 L 517.1,285.4 L 519.6,285.8 L 522.1,286.3 L 524.6,286.7 L 527.1,287.2 L 529.6,287.6 L 532.1,288.1 L 534.6,288.5 L 537.1,289.0 L 539.6,289.4 L 542.1,289.9 L 544.6,290.3 L 547.1,290.8 L 549.6,291.2 L 552.1,291.7 L 554.6,292.1 L 557.1,292.5 L 559.6,293.0 L 562.1,293.4 L 564.5,293.9 L 567.0,294.3 L 569.5,294.8 L 572.0,295.2 L 574.5,295.7 L 577.0,296.1 L 579.5,298.3 L 582.0,312.9 L 584.5,327.5 L 587.0,342.1 L 589.5,356.7 L 592.0,365.0 L 594.5,365.0 L 597.0,365.0 L 599.5,365.0 L 602.0,365.0 L 604.5,365.0 L 607.0,365.0 L 609.5,365.0 L 612.0,365.0 L 614.5,365.0 L 617.0,365.0" class="rho"/>
<path d="M 70.0,158.3 L 72.5,158.4 L 75.0,158.6 L 77.5,158.8 L 80.0,159.0 L 82.5,159.4 L 85.0,159.8 L 87.5,160.2 L 90.0,160.6 L 92.5,161.1 L 95.0,161.6 L 97.5,162.1 L 100.0,162.6 L 102.5,163.1 L 105.0,163.5 L 107.5,164.0 L 110.0,164.4 L 112.5,164.9 L 115.0,165.3 L 117.5,165.7 L 120.0,166.1 L 122.5,166.5 L 124.9,166.9 L 127.4,167.3 L 129.9,167.7 L 132.4,168.1 L 134.9,168.5 L 137.4,168.9 L 139.9,169.3 L 142.4,169.7 L 144.9,170.1 L 147.4,170.5 L 149.9,170.9 L 152.4,171.3 L 154.9,171.7 L 157.4,172.1 L 159.9,172.5 L 162.4,172.9 L 164.9,173.4 L 167.4,173.8 L 169.9,174.3 L 172.4,174.7 L 174.9,175.2 L 177.4,175.7 L 179.9,176.1 L 182.4,176.6 L 184.9,177.1 L 187.4,177.7 L 189.9,178.2 L 192.4,178.7 L 194.9,179.3 L 197.4,179.8 L 199.9,180.4 L 202.4,181.0 L 204.9,181.6 L 207.4,182.2 L 209.9,182.9 L 212.4,183.5 L 214.9,184.2 L 217.4,184.9 L 219.9,185.6 L 222.4,186.3 L 224.9,187.0 L 227.4,187.8 L 229.9,188.5 L 232.4,189.3 L 234.8,190.1 L 237.3,190.9 L 239.8,191.7 L 242.3,192.5 L 244.8,193.3 L 247.3,194.2 L 249.8,195.0 L 252.3,195.9 L 254.8,196.8 L 257.3,197.6 L 259.8,198.5 L 262.3,199.4 L 264.8,200.3 L 267.3,201.2 L 269.8,202.1 L 272.3,203.0 L 274.8,204.0 L 277.3,204.9 L 279.8,205.8 L 282.3,206.8 L 284.8,207.7 L 287.3,208.6 L 289.8,209.6 L 292.3,210.5 L 294.8,211.5 L 297.3,212.4 L 299.8,213.4 L 302.3,214.4 L 304.8,215.3 L 307.3,216.3 L 309.8,217.3 L 312.3,218.2 L 314.8,219.2 L 317.3,220.2 L 319.8,221.2 L 322.3,222.1 L 324.8,223.1 L 327.3,224.1 L 329.8,225.1 L 332.3,226.1 L 334.8,227.0 L 337.3,228.0 L 339.8,229.0 L 342.3,230.0 L 344.7,231.0 L 347.2,231.9 L 349.7,232.9 L 352.2,233.9 L 354.7,234.9 L 357.2,235.9 L 359.7,236.8 L 362.2,237.8 L 364.7,238.8 L 367.2,239.8 L 369.7,240.8 L 372.2,241.7 L 374.7,242.7 L 377.2,243.7 L 379.7,244.6 L 382.2,245.6 L 384.7,246.6 L 387.2,247.5 L 389.7,248.5 L 392.2,249.5 L 394.7,250.4 L 397.2,251.4 L 399.7,252.3 L 402.2,253.3 L 404.7,254.3 L 407.2,255.2 L 409.7,256.2 L 412.2,257.1 L 414.7,258.0 L 417.2,259.0 L 419.7,259.9 L 422.2,260.9 L 424.7,261.8 L 427.2,262.7 L 429.7,263.7 L 432.2,264.6 L 434.7,265.5 L 437.2,266.4 L 439.7,267.4 L 442.2,268.3 L 444.7,269.2 L 447.2,270.1 L 449.7,271.0 L 452.2,271.9 L 454.6,272.8 L 457.1,273.7 L 459.6,274.7 L 462.1,275.6 L 464.6,276.5 L 467.1,277.3 L 469.6,278.2 L 472.1,279.1 L 474.6,280.0 L 477.1,280.9 L 479.6,281.8 L 482.1,282.7 L 484.6,283.6 L 487.1,284.4 L 489.6,285.3 L 492.1,286.2 L 494.6,287.1 L 497.1,287.9 L 499.6,288.8 L 502.1,289.7 L 504.6,290.5 L 507.1,291.4 L 509.6,292.3 L 512.1,293.1 L 514.6,294.0 L 517.1,294.9 L 519.6,295.7 L 522.1,296.6 L 524.6,297.5 L 527.1,298.3 L 529.6,299.2 L 532.1,300.1 L 534.6,301.0 L 537.1,301.8 L 539.6,302.7 L 542.1,303.6 L 544.6,304.5 L 547.1,305.4 L 549.6,306.3 L 552.1,307.2 L 554.6,308.1 L 557.1,309.0 L 559.6,309.9 L 562.1,310.8 L 564.5,311.8 L 567.0,312.7 L 569.5,313.7 L 572.0,314.6 L 574.5,315.5 L 577.0,316.5 L 579.5,317.4 L 582.0,318.4 L 584.5,319.3 L 587.0,320.2 L 589.5,321.1 L 592.0,322.0 L 594.5,322.8 L 597.0,323.7 L 599.5,324.5 L 602.0,325.2 L 604.5,326.0 L 607.0,326.7 L 609.5,327.4 L 612.0,328.1 L 614.5,328.7 L 617.0,329.3" class="sig"/>
<path d="M 75.5,328.0 L 80.9,314.0 L 86.4,304.1 L 91.9,296.6 L 97.3,290.7 L 102.8,285.5 L 108.3,280.4 L 113.8,275.4 L 119.2,270.7 L 124.7,266.1 L 130.2,261.7 L 135.6,257.5 L 141.1,253.4 L 146.6,249.4 L 152.1,245.6 L 157.5,241.9 L 163.0,238.2 L 168.5,234.7 L 173.9,231.3 L 179.4,227.9 L 184.9,224.6 L 190.3,221.4 L 195.8,218.2 L 201.3,215.1 L 206.8,212.1 L 212.2,209.1 L 217.7,206.2 L 223.2,203.4 L 228.6,200.6 L 234.1,198.0 L 239.6,195.4 L 245.0,192.9 L 250.5,190.4 L 256.0,188.0 L 261.4,185.7 L 266.9,183.5 L 272.4,181.3 L 277.9,179.1 L 283.3,177.0 L 288.8,175.0 L 294.3,173.0 L 299.7,171.0 L 305.2,169.1 L 310.7,167.2 L 316.1,165.4 L 321.6,163.6 L 327.1,161.9 L 332.6,160.2 L 338.0,158.5 L 343.5,156.9 L 349.0,155.3 L 354.4,153.8 L 359.9,152.2 L 365.4,150.8 L 370.9,149.3 L 376.3,147.9 L 381.8,146.5 L 387.3,145.1 L 392.7,143.8 L 398.2,142.5 L 403.7,141.2 L 409.1,140.0 L 414.6,138.7 L 420.1,137.5 L 425.5,136.4 L 431.0,135.2 L 436.5,134.1 L 442.0,133.0 L 447.4,132.0 L 452.9,130.9 L 458.4,129.9 L 463.8,128.9 L 469.3,128.0 L 474.8,127.0 L 480.3,126.1 L 485.7,125.2 L 491.2,124.3 L 496.7,123.5 L 502.1,122.6 L 507.6,121.8 L 513.1,121.0 L 518.5,120.3 L 524.0,119.5 L 529.5,118.8 L 535.0,118.1 L 540.4,117.4 L 545.9,116.8 L 551.4,116.1 L 556.8,115.5 L 562.3,114.9 L 567.8,114.3 L 573.2,113.7 L 578.7,113.2 L 584.2,113.0 L 589.6,113.7 L 595.1,115.0 L 600.6,116.3 L 606.1,117.6 L 611.5,118.9 L 617.0,120.0" class="nt"/>
<path d="M 74.6,353.3 L 79.1,345.0 L 83.7,336.6 L 88.2,329.3 L 92.8,323.5 L 97.3,319.2 L 101.9,315.9 L 106.5,313.4 L 111.0,311.5 L 115.6,309.7 L 120.1,307.9 L 124.7,306.1 L 129.3,304.2 L 133.8,302.1 L 138.4,299.8 L 142.9,297.4 L 147.5,294.9 L 152.1,292.2 L 156.6,289.4 L 161.2,286.4 L 165.7,283.3 L 170.3,280.0 L 174.8,276.6 L 179.4,273.0 L 184.0,269.2 L 188.5,265.3 L 193.1,261.3 L 197.6,257.1 L 202.2,252.7 L 206.8,248.2 L 211.3,243.7 L 215.9,239.1 L 220.4,234.6 L 225.0,230.2 L 229.5,225.9 L 234.1,221.7 L 238.7,217.7 L 243.2,213.9 L 247.8,210.3 L 252.3,206.8 L 256.9,203.5 L 261.5,200.3 L 266.0,197.2 L 270.6,194.3 L 275.1,191.4 L 279.7,188.7 L 284.2,186.0 L 288.8,183.4 L 293.4,181.0 L 297.9,178.6 L 302.5,176.2 L 307.0,174.0 L 311.6,171.8 L 316.1,169.7 L 320.7,167.7 L 325.3,165.7 L 329.8,163.8 L 334.4,162.0 L 338.9,160.2 L 343.5,158.4 L 348.1,156.8 L 352.6,155.1 L 357.2,153.6 L 361.7,152.0 L 366.3,150.6 L 370.8,149.1 L 375.4,147.8 L 380.0,146.4 L 384.5,145.1 L 389.1,143.9 L 393.6,142.7 L 398.2,141.5 L 402.8,140.4 L 407.3,139.3 L 411.9,138.2 L 416.4,137.2 L 421.0,136.2 L 425.5,135.2 L 430.1,134.3 L 434.7,133.4 L 439.2,132.5 L 443.8,131.6 L 448.3,130.7 L 452.9,129.9 L 457.5,129.1 L 462.0,128.2 L 466.6,127.4 L 471.1,126.6 L 475.7,125.8 L 480.3,124.9 L 484.8,124.1 L 489.4,123.2 L 493.9,122.3 L 498.5,121.4 L 503.0,120.3 L 507.6,119.3 L 512.2,118.1 L 516.7,116.9 L 521.3,115.5 L 525.8,114.0 L 530.4,112.4 L 535.0,110.6 L 539.5,108.5 L 544.1,106.3 L 548.6,103.8 L 553.2,101.1 L 557.7,98.2 L 562.3,95.3 L 566.9,92.6 L 571.4,90.5 L 576.0,89.3 L 580.5,89.6 L 585.1,91.6 L 589.6,95.2 L 594.2,100.4 L 598.8,106.5 L 603.3,113.2 L 607.9,120.1 L 612.4,126.9 L 617.0,133.4" class="fw"/>
<line x1="144.04" y1="264.73" x2="144.04" y2="327.99" class="err"/>
<line x1="141.04" y1="264.73" x2="147.04" y2="264.73" class="err"/>
<line x1="141.04" y1="327.99" x2="147.04" y2="327.99" class="err"/>
<circle cx="144.04" cy="296.36" r="2.5" class="obs"/>
<line x1="217.48" y1="205.90" x2="217.48" y2="269.16" class="err"/>
<line x1="214.48" y1="205.90" x2="220.48" y2="205.90" class="err"/>
<line x1="214.48" y1="269.16" x2="220.48" y2="269.16" class="err"/>
<circle cx="217.48" cy="237.53" r="2.5" class="obs"/>
<line x1="292.11" y1="160.36" x2="292.11" y2="204.64" class="err"/>
<line x1="289.11" y1="160.36" x2="295.11" y2="160.36" class="err"/>
<line x1="289.11" y1="204.64" x2="295.11" y2="204.64" class="err"/>
<circle cx="292.11" cy="182.50" r="2.5" class="obs"/>
<line x1="365.56" y1="126.20" x2="365.56" y2="170.48" class="err"/>
<line x1="362.56" y1="126.20" x2="368.56" y2="126.20" class="err"/>
<line x1="362.56" y1="170.48" x2="368.56" y2="170.48" class="err"/>
<circle cx="365.56" cy="148.34" r="2.5" class="obs"/>
<line x1="439.59" y1="110.38" x2="439.59" y2="154.66" class="err"/>
<line x1="436.59" y1="110.38" x2="442.59" y2="110.38" class="err"/>
<line x1="436.59" y1="154.66" x2="442.59" y2="154.66" class="err"/>
<circle cx="439.59" cy="132.52" r="2.5" class="obs"/>
<line x1="513.04" y1="100.89" x2="513.04" y2="132.52" class="err"/>
<line x1="510.04" y1="100.89" x2="516.04" y2="100.89" class="err"/>
<line x1="510.04" y1="132.52" x2="516.04" y2="132.52" class="err"/>
<circle cx="513.04" cy="116.71" r="2.5" class="obs"/>
<line x1="587.08" y1="83.18" x2="587.08" y2="121.14" class="err"/>
<line x1="584.08" y1="83.18" x2="590.08" y2="83.18" class="err"/>
<line x1="584.08" y1="121.14" x2="590.08" y2="121.14" class="err"/>
<circle cx="587.08" cy="102.16" r="2.5" class="obs"/>
<g class="legend">
<line x1="82" y1="69" x2="106" y2="69" class="fw"/>
<text x="112" y="73" class="lbl-l">framework fit</text>
<line x1="82" y1="87" x2="106" y2="87" class="nt"/>
<text x="112" y="91" class="lbl-l">Newtonian (no halo)</text>
<circle cx="94" cy="105" r="2.5" class="obs"/>
<text x="112" y="109" class="lbl">observed V±err</text>
</g>
<g class="legend">
<line x1="442" y1="69" x2="466" y2="69" class="rho"/>
<text x="472" y="73" class="lbl-r">ρ(r) raw</text>
<line x1="442" y1="87" x2="466" y2="87" class="sig"/>
<text x="472" y="91" class="lbl-s">Σ(r) cumulative</text>
<text x="442" y="113" class="lbl-r">ρ peak: 114 M☉/pc²</text>
</g>
<rect x="705" y="55" width="170" height="170" class="preview-bg"/>
<defs><radialGradient id="g_F565_V2" cx="0.5" cy="0.5" r="0.5">
  <stop offset="0.0000" stop-color="rgb(206,51.5,51.5)"/>
  <stop offset="0.0313" stop-color="rgb(174,43.5,43.5)"/>
  <stop offset="0.0625" stop-color="rgb(152,38,38)"/>
  <stop offset="0.0938" stop-color="rgb(151,37.75,37.75)"/>
  <stop offset="0.1250" stop-color="rgb(151,37.75,37.75)"/>
  <stop offset="0.1563" stop-color="rgb(151,37.75,37.75)"/>
  <stop offset="0.1875" stop-color="rgb(151,37.75,37.75)"/>
  <stop offset="0.2188" stop-color="rgb(151,37.75,37.75)"/>
  <stop offset="0.2500" stop-color="rgb(151,37.75,37.75)"/>
  <stop offset="0.2813" stop-color="rgb(151,37.75,37.75)"/>
  <stop offset="0.3125" stop-color="rgb(148,37,37)"/>
  <stop offset="0.3438" stop-color="rgb(146,36.5,36.5)"/>
  <stop offset="0.3750" stop-color="rgb(144,36,36)"/>
  <stop offset="0.4063" stop-color="rgb(142,35.5,35.5)"/>
  <stop offset="0.4375" stop-color="rgb(140,35,35)"/>
  <stop offset="0.4688" stop-color="rgb(137,34.25,34.25)"/>
  <stop offset="0.5000" stop-color="rgb(135,33.75,33.75)"/>
  <stop offset="0.5313" stop-color="rgb(133,33.25,33.25)"/>
  <stop offset="0.5625" stop-color="rgb(131,32.75,32.75)"/>
  <stop offset="0.5938" stop-color="rgb(129,32.25,32.25)"/>
  <stop offset="0.6250" stop-color="rgb(126,31.5,31.5)"/>
  <stop offset="0.6563" stop-color="rgb(124,31,31)"/>
  <stop offset="0.6875" stop-color="rgb(122,30.5,30.5)"/>
  <stop offset="0.7188" stop-color="rgb(120,30,30)"/>
  <stop offset="0.7500" stop-color="rgb(118,29.5,29.5)"/>
  <stop offset="0.7813" stop-color="rgb(115,28.75,28.75)"/>
  <stop offset="0.8125" stop-color="rgb(113,28.25,28.25)"/>
  <stop offset="0.8438" stop-color="rgb(111,27.75,27.75)"/>
  <stop offset="0.8750" stop-color="rgb(109,27.25,27.25)"/>
  <stop offset="0.9063" stop-color="rgb(107,26.75,26.75)"/>
  <stop offset="0.9375" stop-color="rgb(104,26,26)"/>
  <stop offset="0.9688" stop-color="rgb(102,25.5,25.5)"/>
  <stop offset="1.0000" stop-color="rgb(0,0,0)"/>
</radialGradient></defs>
<circle cx="790" cy="140" r="81" fill="url(#g_F565_V2)"/>
<text x="790" y="49" text-anchor="middle" class="preview-lbl">face-on luminance from ρ(r)</text>
<text x="790" y="239" text-anchor="middle" class="preview-lbl">edge at r = 8.9 kpc</text>
</svg>