<svg xmlns="http://www.w3.org/2000/svg" viewBox="0 0 960 450" width="960" height="450" font-family="sans-serif" font-size="12">
<style>
  .ax { stroke: #333; stroke-width: 1; fill: none; }
  .grid { stroke: #ddd; stroke-width: 0.5; fill: none; }
  .lbl { fill: #333; }
  .lbl-l { fill: #0066cc; }
  .lbl-r { fill: #b03030; }
  .obs { fill: #222; }
  .err { stroke: #555; stroke-width: 0.8; fill: none; }
  .fw { stroke: #0066cc; stroke-width: 2.2; fill: none; }
  .nt { stroke: #cc6600; stroke-width: 1.6; fill: none; stroke-dasharray: 5,3; }
  .mond { stroke: #7b2cbf; stroke-width: 1.8; fill: none; stroke-dasharray: 7,3; }
  .lbl-p { fill: #cc7000; }
  .lbl-m { fill: #7b2cbf; }
  .rho { stroke: #b03030; stroke-width: 2.0; fill: none; }
  .phot { stroke: #cc7000; stroke-width: 1.8; fill: none; }
  .mbar { stroke: #8e44ad; stroke-width: 1.8; fill: none; opacity: 0.9; }
  .mph { stroke: #c77dff; stroke-width: 1.6; fill: none; stroke-dasharray: 4,3; opacity: 0.95; }
  .title { fill: #111; font-size: 16px; font-weight: 600; }
  .subtitle { fill: #555; font-size: 11px; }
  .preview-bg { fill: #000; }
  .preview-lbl { fill: #888; font-size: 10px; }
  .legend { font-size: 11px; }
</style>
<text x="378.5" y="22" text-anchor="middle" class="title">F568-3</text>
<text x="378.5" y="38" text-anchor="middle" class="subtitle">rMax=18.0 kpc, N=18, FW=5.6 km/s, 15.2%, 0.82σ, MOND=8.0 km/s, 26.0%, 1.67σ, amp=680</text>
<line x1="70" y1="395.0" x2="687" y2="395.0" class="grid"/>
<text x="64" y="399.0" text-anchor="end" class="lbl-l">0</text>
<line x1="70" y1="327.0" x2="687" y2="327.0" class="grid"/>
<text x="64" y="331.0" text-anchor="end" class="lbl-l">29</text>
<line x1="70" y1="259.0" x2="687" y2="259.0" class="grid"/>
<text x="64" y="263.0" text-anchor="end" class="lbl-l">58</text>
<line x1="70" y1="191.0" x2="687" y2="191.0" class="grid"/>
<text x="64" y="195.0" text-anchor="end" class="lbl-l">87</text>
<line x1="70" y1="123.0" x2="687" y2="123.0" class="grid"/>
<text x="64" y="127.0" text-anchor="end" class="lbl-l">116</text>
<line x1="70" y1="55.0" x2="687" y2="55.0" class="grid"/>
<text x="64" y="59.0" text-anchor="end" class="lbl-l">145</text>
<text x="693" y="399.0" text-anchor="start" class="lbl-r">0.0</text>
<text x="693" y="353.7" text-anchor="start" class="lbl-r">0.2</text>
<text x="693" y="308.3" text-anchor="start" class="lbl-r">0.4</text>
<text x="693" y="263.0" text-anchor="start" class="lbl-r">0.6</text>
<text x="693" y="217.7" text-anchor="start" class="lbl-r">0.8</text>
<text x="693" y="172.3" text-anchor="start" class="lbl-r">1.0</text>
<line x1="70.0" y1="55" x2="70.0" y2="395" class="grid"/>
<text x="70.0" y="411" text-anchor="middle" class="lbl">0.0</text>
<line x1="172.8" y1="55" x2="172.8" y2="395" class="grid"/>
<text x="172.8" y="411" text-anchor="middle" class="lbl">4.1</text>
<line x1="275.7" y1="55" x2="275.7" y2="395" class="grid"/>
<text x="275.7" y="411" text-anchor="middle" class="lbl">8.2</text>
<line x1="378.5" y1="55" x2="378.5" y2="395" class="grid"/>
<text x="378.5" y="411" text-anchor="middle" class="lbl">12.3</text>
<line x1="481.3" y1="55" x2="481.3" y2="395" class="grid"/>
<text x="481.3" y="411" text-anchor="middle" class="lbl">16.4</text>
<line x1="584.2" y1="55" x2="584.2" y2="395" class="grid"/>
<text x="584.2" y="411" text-anchor="middle" class="lbl">20.5</text>
<line x1="687.0" y1="55" x2="687.0" y2="395" class="grid"/>
<text x="687.0" y="411" text-anchor="middle" class="lbl">24.6</text>
<text x="378.5" y="438" text-anchor="middle" class="lbl">radius (kpc)</text>
<text x="16" y="225" text-anchor="middle" class="lbl-l" transform="rotate(-90, 16, 225)">velocity (km/s)</text>
<text x="724" y="225" text-anchor="middle" class="lbl-r" transform="rotate(-90, 724, 225)">profiles (normalized to peak)</text>
<rect x="70" y="55" width="617" height="340" class="ax"/>
<path d="M 70.0,168.3 L 72.8,171.6 L 75.6,174.9 L 78.5,178.3 L 81.3,181.6 L 84.1,184.9 L 86.9,188.2 L 89.7,191.5 L 92.5,194.8 L 95.4,198.1 L 98.2,201.4 L 101.0,202.2 L 103.8,202.2 L 106.6,202.2 L 109.4,202.2 L 112.3,202.2 L 115.1,202.2 L 117.9,202.2 L 120.7,202.2 L 123.5,202.2 L 126.3,202.2 L 129.2,202.2 L 132.0,202.2 L 134.8,202.2 L 137.6,202.9 L 140.4,203.7 L 143.3,204.6 L 146.1,205.5 L 148.9,206.3 L 151.7,207.2 L 154.5,208.0 L 157.3,208.9 L 160.2,209.8 L 163.0,210.6 L 165.8,211.5 L 168.6,212.3 L 171.4,213.2 L 174.2,214.1 L 177.1,214.9 L 179.9,215.8 L 182.7,216.6 L 185.5,217.5 L 188.3,218.4 L 191.1,219.2 L 194.0,220.1 L 196.8,221.0 L 199.6,221.8 L 202.4,222.7 L 205.2,223.5 L 208.1,224.4 L 210.9,225.3 L 213.7,226.1 L 216.5,227.0 L 219.3,227.8 L 222.1,228.7 L 225.0,229.6 L 227.8,230.4 L 230.6,231.3 L 233.4,232.2 L 236.2,233.0 L 239.0,233.9 L 241.9,234.7 L 244.7,235.6 L 247.5,236.5 L 250.3,237.3 L 253.1,238.2 L 255.9,239.0 L 258.8,239.9 L 261.6,240.7 L 264.4,241.1 L 267.2,241.4 L 270.0,241.8 L 272.8,242.2 L 275.7,242.5 L 278.5,242.9 L 281.3,243.2 L 284.1,243.6 L 286.9,244.0 L 289.8,244.3 L 292.6,244.7 L 295.4,245.1 L 298.2,245.4 L 301.0,245.8 L 303.8,246.2 L 306.7,246.5 L 309.5,246.9 L 312.3,247.3 L 315.1,247.6 L 317.9,248.0 L 320.7,248.4 L 323.6,248.7 L 326.4,249.1 L 329.2,249.5 L 332.0,249.8 L 334.8,250.2 L 337.6,250.6 L 340.5,250.9 L 343.3,251.3 L 346.1,251.7 L 348.9,252.0 L 351.7,252.4 L 354.6,252.8 L 357.4,253.1 L 360.2,253.5 L 363.0,253.9 L 365.8,254.2 L 368.6,254.6 L 371.5,255.0 L 374.3,255.3 L 377.1,255.7 L 379.9,256.1 L 382.7,256.4 L 385.5,256.8 L 388.4,257.2 L 391.2,257.5 L 394.0,257.9 L 396.8,258.3 L 399.6,258.6 L 402.4,259.0 L 405.3,259.3 L 408.1,259.7 L 410.9,260.1 L 413.7,260.4 L 416.5,260.8 L 419.4,261.2 L 422.2,261.5 L 425.0,261.9 L 427.8,262.3 L 430.6,262.6 L 433.4,263.0 L 436.3,263.4 L 439.1,263.7 L 441.9,264.1 L 444.7,264.5 L 447.5,264.8 L 450.3,265.2 L 453.2,265.6 L 456.0,265.9 L 458.8,266.3 L 461.6,266.7 L 464.4,267.0 L 467.2,267.4 L 470.1,267.8 L 472.9,268.1 L 475.7,268.5 L 478.5,268.9 L 481.3,269.2 L 484.2,269.6 L 487.0,270.0 L 489.8,270.3 L 492.6,270.7 L 495.4,271.1 L 498.2,271.4 L 501.1,271.8 L 503.9,272.2 L 506.7,272.5 L 509.5,272.9 L 512.3,273.3 L 515.1,273.6 L 518.0,274.0 L 520.8,274.4 L 523.6,274.7 L 526.4,275.1 L 529.2,275.4 L 532.0,275.8 L 534.9,276.2 L 537.7,276.5 L 540.5,276.9 L 543.3,277.3 L 546.1,277.6 L 548.9,278.0 L 551.8,278.4 L 554.6,278.7 L 557.4,279.1 L 560.2,279.5 L 563.0,279.8 L 565.9,280.2 L 568.7,280.6 L 571.5,280.9 L 574.3,281.3 L 577.1,281.7 L 579.9,282.0 L 582.8,282.4 L 585.6,282.8 L 588.4,283.1 L 591.2,283.5 L 594.0,283.9 L 596.8,284.2 L 599.7,284.6 L 602.5,285.0 L 605.3,285.3 L 608.1,285.7 L 610.9,286.1 L 613.7,286.4 L 616.6,286.8 L 619.4,287.2 L 622.2,287.5 L 625.0,287.9 L 627.8,288.3 L 630.7,288.6 L 633.5,289.0 L 636.3,289.4 L 639.1,289.7 L 641.9,290.1 L 644.7,290.5 L 647.6,290.8 L 650.4,296.6 L 653.2,334.9 L 656.0,373.1 L 658.8,395.0 L 661.6,395.0 L 664.5,395.0 L 667.3,395.0 L 670.1,395.0 L 672.9,395.0 L 675.7,395.0 L 678.5,395.0 L 681.4,395.0 L 684.2,395.0 L 687.0,395.0" class="rho"/>
<path d="M 86.0,168.3 L 99.6,206.7 L 115.1,239.6 L 120.8,247.0 L 139.6,268.6 L 145.1,275.7 L 161.2,293.4 L 174.9,310.1 L 185.2,324.3 L 198.7,329.3 L 205.0,330.9 L 228.0,344.8 L 297.9,368.2 L 324.7,372.3 L 370.3,380.0 L 421.1,384.6 L 469.2,386.9 L 520.3,389.4" class="phot"/>
<path d="M 86.0,255.7 L 99.6,223.1 L 115.1,199.3 L 120.8,187.7 L 139.6,175.3 L 145.1,168.8 L 161.2,168.3 L 174.9,181.2 L 185.2,211.7 L 198.7,225.1 L 205.0,207.3 L 228.0,196.1 L 297.9,205.6 L 324.7,222.2 L 370.3,250.5 L 421.1,279.1 L 469.2,298.1 L 520.3,315.8" class="mbar"/>
<path d="M 86.0,212.5 L 99.6,194.4 L 115.1,182.0 L 120.8,176.8 L 139.6,171.2 L 145.1,168.4 L 161.2,168.3 L 174.9,174.1 L 185.2,187.9 L 198.7,194.2 L 205.0,186.1 L 228.0,181.0 L 297.9,185.5 L 324.7,193.6 L 370.3,208.1 L 421.1,223.7 L 469.2,235.6 L 520.3,247.2" class="mph"/>
<path d="M 76.2,356.0 L 82.3,340.4 L 88.5,328.9 L 94.7,319.5 L 100.8,311.6 L 107.0,304.3 L 113.2,297.4 L 119.4,291.0 L 125.5,284.9 L 131.7,279.2 L 137.9,273.6 L 144.0,268.4 L 150.2,263.5 L 156.4,258.9 L 162.6,254.4 L 168.7,250.2 L 174.9,246.1 L 181.1,242.3 L 187.2,238.5 L 193.4,235.0 L 199.6,231.5 L 205.7,228.2 L 211.9,225.0 L 218.1,221.9 L 224.2,218.9 L 230.4,216.0 L 236.6,213.2 L 242.8,210.5 L 248.9,207.9 L 255.1,205.3 L 261.3,202.9 L 267.4,200.5 L 273.6,198.1 L 279.8,195.8 L 285.9,193.5 L 292.1,191.2 L 298.3,189.0 L 304.5,186.8 L 310.6,184.7 L 316.8,182.5 L 323.0,180.5 L 329.1,178.4 L 335.3,176.4 L 341.5,174.4 L 347.7,172.4 L 353.8,170.5 L 360.0,168.6 L 366.2,166.7 L 372.3,164.9 L 378.5,163.1 L 384.7,161.3 L 390.8,159.5 L 397.0,157.8 L 403.2,156.1 L 409.4,154.4 L 415.5,152.7 L 421.7,151.1 L 427.9,149.5 L 434.0,147.9 L 440.2,146.3 L 446.4,144.8 L 452.5,143.3 L 458.7,141.8 L 464.9,140.3 L 471.1,138.9 L 477.2,137.4 L 483.4,136.0 L 489.6,134.6 L 495.7,133.3 L 501.9,131.9 L 508.1,130.6 L 514.2,129.3 L 520.4,128.0 L 526.6,126.7 L 532.8,125.5 L 538.9,124.3 L 545.1,123.1 L 551.3,121.9 L 557.4,120.7 L 563.6,119.5 L 569.8,118.4 L 575.9,117.3 L 582.1,116.2 L 588.3,115.1 L 594.5,114.0 L 600.6,112.9 L 606.8,111.9 L 613.0,110.9 L 619.1,109.9 L 625.3,108.9 L 631.5,107.9 L 637.6,107.0 L 643.8,106.0 L 650.0,105.1 L 656.2,105.1 L 662.3,106.5 L 668.5,108.1 L 674.7,109.7 L 680.8,111.1 L 687.0,112.5" class="nt"/>
<path d="M 86.0,341.7 L 99.6,316.9 L 115.1,295.5 L 120.8,288.7 L 139.6,267.6 L 145.1,262.1 L 161.2,247.4 L 174.9,236.0 L 185.2,230.0 L 198.7,223.1 L 205.0,219.2 L 228.0,203.9 L 297.9,168.9 L 324.7,156.6 L 370.3,141.2 L 421.1,128.9 L 469.2,117.4 L 520.3,109.5" class="mond"/>
<path d="M 75.1,378.8 L 80.3,365.3 L 85.4,352.7 L 90.6,342.0 L 95.7,333.4 L 100.8,326.2 L 106.0,320.0 L 111.1,313.8 L 116.3,307.3 L 121.4,300.2 L 126.6,292.5 L 131.7,284.2 L 136.8,275.7 L 142.0,267.2 L 147.1,259.1 L 152.3,251.3 L 157.4,244.1 L 162.6,237.3 L 167.7,231.0 L 172.8,225.1 L 178.0,219.6 L 183.1,214.5 L 188.3,209.8 L 193.4,205.3 L 198.5,201.3 L 203.7,197.5 L 208.8,194.1 L 214.0,191.0 L 219.1,188.2 L 224.3,185.8 L 229.4,183.8 L 234.5,182.2 L 239.7,181.1 L 244.8,180.4 L 250.0,180.3 L 255.1,180.6 L 260.2,181.2 L 265.4,182.1 L 270.5,182.9 L 275.7,183.6 L 280.8,184.2 L 285.9,184.4 L 291.1,184.4 L 296.2,184.3 L 301.4,183.9 L 306.5,183.4 L 311.7,182.8 L 316.8,182.0 L 321.9,181.2 L 327.1,180.3 L 332.2,179.3 L 337.4,178.3 L 342.5,177.3 L 347.7,176.2 L 352.8,175.1 L 357.9,173.9 L 363.1,172.8 L 368.2,171.6 L 373.4,170.5 L 378.5,169.3 L 383.6,168.1 L 388.8,166.9 L 393.9,165.8 L 399.1,164.6 L 404.2,163.4 L 409.4,162.2 L 414.5,161.1 L 419.6,159.9 L 424.8,158.8 L 429.9,157.6 L 435.1,156.4 L 440.2,155.3 L 445.3,154.1 L 450.5,153.0 L 455.6,151.8 L 460.8,150.7 L 465.9,149.5 L 471.1,148.4 L 476.2,147.2 L 481.3,146.0 L 486.5,144.8 L 491.6,143.6 L 496.8,142.4 L 501.9,141.1 L 507.0,139.8 L 512.2,138.4 L 517.3,137.1 L 522.5,135.6 L 527.6,134.1 L 532.8,132.5 L 537.9,130.9 L 543.0,129.1 L 548.2,127.2 L 553.3,125.2 L 558.5,123.0 L 563.6,120.5 L 568.7,117.9 L 573.9,115.0 L 579.0,111.7 L 584.2,108.1 L 589.3,104.0 L 594.4,99.3 L 599.6,93.9 L 604.7,87.6 L 609.9,80.3 L 615.0,71.9 L 620.2,62.2 L 625.3,51.1 L 630.4,38.9 L 635.6,26.6 L 640.7,15.7 L 645.9,8.1 L 651.0,5.9 L 656.1,10.3 L 661.3,20.8 L 666.4,35.5 L 671.6,52.4 L 676.7,69.5 L 681.9,85.7 L 687.0,100.6" class="fw"/>
<line x1="86.03" y1="345.83" x2="86.03" y2="386.10" class="err"/>
<line x1="83.03" y1="345.83" x2="89.03" y2="345.83" class="err"/>
<line x1="83.03" y1="386.10" x2="89.03" y2="386.10" class="err"/>
<circle cx="86.03" cy="365.96" r="2.5" class="obs"/>
<line x1="99.55" y1="329.20" x2="99.55" y2="358.24" class="err"/>
<line x1="96.55" y1="329.20" x2="102.55" y2="329.20" class="err"/>
<line x1="96.55" y1="358.24" x2="102.55" y2="358.24" class="err"/>
<circle cx="99.55" cy="343.72" r="2.5" class="obs"/>
<line x1="115.08" y1="314.96" x2="115.08" y2="323.77" class="err"/>
<line x1="112.08" y1="314.96" x2="118.08" y2="314.96" class="err"/>
<line x1="112.08" y1="323.77" x2="118.08" y2="323.77" class="err"/>
<circle cx="115.08" cy="319.37" r="2.5" class="obs"/>
<line x1="120.84" y1="291.74" x2="120.84" y2="320.77" class="err"/>
<line x1="117.84" y1="291.74" x2="123.84" y2="291.74" class="err"/>
<line x1="117.84" y1="320.77" x2="123.84" y2="320.77" class="err"/>
<circle cx="120.84" cy="306.25" r="2.5" class="obs"/>
<line x1="139.62" y1="248.42" x2="139.62" y2="292.91" class="err"/>
<line x1="136.62" y1="248.42" x2="142.62" y2="248.42" class="err"/>
<line x1="136.62" y1="292.91" x2="142.62" y2="292.91" class="err"/>
<circle cx="139.62" cy="270.66" r="2.5" class="obs"/>
<line x1="145.13" y1="223.13" x2="145.13" y2="274.64" class="err"/>
<line x1="142.13" y1="223.13" x2="148.13" y2="223.13" class="err"/>
<line x1="142.13" y1="274.64" x2="148.13" y2="274.64" class="err"/>
<circle cx="145.13" cy="248.88" r="2.5" class="obs"/>
<line x1="161.16" y1="221.25" x2="161.16" y2="250.29" class="err"/>
<line x1="158.16" y1="221.25" x2="164.16" y2="221.25" class="err"/>
<line x1="158.16" y1="250.29" x2="164.16" y2="250.29" class="err"/>
<circle cx="161.16" cy="235.77" r="2.5" class="obs"/>
<line x1="174.93" y1="193.67" x2="174.93" y2="231.04" class="err"/>
<line x1="171.93" y1="193.67" x2="177.93" y2="193.67" class="err"/>
<line x1="171.93" y1="231.04" x2="177.93" y2="231.04" class="err"/>
<circle cx="174.93" cy="212.36" r="2.5" class="obs"/>
<line x1="185.20" y1="187.77" x2="185.20" y2="216.80" class="err"/>
<line x1="182.20" y1="187.77" x2="188.20" y2="187.77" class="err"/>
<line x1="182.20" y1="216.80" x2="188.20" y2="216.80" class="err"/>
<circle cx="185.20" cy="202.29" r="2.5" class="obs"/>
<line x1="198.72" y1="179.57" x2="198.72" y2="209.08" class="err"/>
<line x1="195.72" y1="179.57" x2="201.72" y2="179.57" class="err"/>
<line x1="195.72" y1="209.08" x2="201.72" y2="209.08" class="err"/>
<circle cx="198.72" cy="194.33" r="2.5" class="obs"/>
<line x1="204.98" y1="179.55" x2="204.98" y2="210.04" class="err"/>
<line x1="201.98" y1="179.55" x2="207.98" y2="179.55" class="err"/>
<line x1="201.98" y1="210.04" x2="207.98" y2="210.04" class="err"/>
<circle cx="204.98" cy="194.79" r="2.5" class="obs"/>
<line x1="228.02" y1="148.90" x2="228.02" y2="221.96" class="err"/>
<line x1="225.02" y1="148.90" x2="231.02" y2="148.90" class="err"/>
<line x1="225.02" y1="221.96" x2="231.02" y2="221.96" class="err"/>
<circle cx="228.02" cy="185.43" r="2.5" class="obs"/>
<line x1="297.89" y1="135.79" x2="297.89" y2="208.37" class="err"/>
<line x1="294.89" y1="135.79" x2="300.89" y2="135.79" class="err"/>
<line x1="294.89" y1="208.37" x2="300.89" y2="208.37" class="err"/>
<circle cx="297.89" cy="172.08" r="2.5" class="obs"/>
<line x1="324.69" y1="152.18" x2="324.69" y2="181.21" class="err"/>
<line x1="321.69" y1="152.18" x2="327.69" y2="152.18" class="err"/>
<line x1="321.69" y1="181.21" x2="327.69" y2="181.21" class="err"/>
<circle cx="324.69" cy="166.69" r="2.5" class="obs"/>
<line x1="370.27" y1="134.61" x2="370.27" y2="182.38" class="err"/>
<line x1="367.27" y1="134.61" x2="373.27" y2="134.61" class="err"/>
<line x1="367.27" y1="182.38" x2="373.27" y2="182.38" class="err"/>
<circle cx="370.27" cy="158.50" r="2.5" class="obs"/>
<line x1="421.11" y1="119.39" x2="421.11" y2="169.50" class="err"/>
<line x1="418.11" y1="119.39" x2="424.11" y2="119.39" class="err"/>
<line x1="418.11" y1="169.50" x2="424.11" y2="169.50" class="err"/>
<circle cx="421.11" cy="144.45" r="2.5" class="obs"/>
<line x1="469.19" y1="93.64" x2="469.19" y2="148.43" class="err"/>
<line x1="466.19" y1="93.64" x2="472.19" y2="93.64" class="err"/>
<line x1="466.19" y1="148.43" x2="472.19" y2="148.43" class="err"/>
<circle cx="469.19" cy="121.03" r="2.5" class="obs"/>
<line x1="520.28" y1="85.91" x2="520.28" y2="142.11" class="err"/>
<line x1="517.28" y1="85.91" x2="523.28" y2="85.91" class="err"/>
<line x1="517.28" y1="142.11" x2="523.28" y2="142.11" class="err"/>
<circle cx="520.28" cy="114.01" r="2.5" class="obs"/>
<g class="legend">
<line x1="82" y1="69" x2="106" y2="69" class="fw"/>
<text x="112" y="73" class="lbl-l">framework: 5.6 km/s, 15.2%, 0.82σ</text>
<line x1="82" y1="87" x2="106" y2="87" class="nt"/>
<text x="112" y="91" class="lbl-l">Newtonian: 10.5 km/s, 33.1%, 1.89σ</text>
<line x1="82" y1="105" x2="106" y2="105" class="mond"/>
<text x="112" y="109" class="lbl-m">MOND/RAR: 8.0 km/s, 26.0%, 1.67σ</text>
<circle cx="94" cy="123" r="2.5" class="obs"/>
<text x="112" y="127" class="lbl">observed V±err</text>
</g>
<g class="legend">
<line x1="472" y1="69" x2="496" y2="69" class="rho"/>
<text x="502" y="73" class="lbl-r">ρ(r) raw</text>
<line x1="472" y1="87" x2="496" y2="87" class="phot"/>
<text x="502" y="91" class="lbl-p">photometric baryonic profile</text>
<line x1="472" y1="105" x2="496" y2="105" class="mbar"/>
<text x="502" y="109" class="lbl-m">MOND baryonic annulus</text>
<line x1="472" y1="123" x2="496" y2="123" class="mph"/>
<text x="502" y="127" class="lbl-m">MOND phantom annulus</text>
<text x="472" y="147" class="lbl-r">ρ peak: 85 M☉/pc²</text>
<text x="472" y="163" class="lbl-p">phot peak: 33.77 (arb.)</text>
<text x="472" y="179" class="lbl-m">Σbar peak: 19.52 M☉/pc²</text>
<text x="472" y="195" class="lbl-m">Σphantom peak: 63.86 M☉/pc²</text>
</g>
<rect x="775" y="55" width="170" height="170" class="preview-bg"/>
<defs><radialGradient id="g_F568_3" cx="0.5" cy="0.5" r="0.5">
  <stop offset="0.0000" stop-color="rgb(54,54,54)"/>
  <stop offset="0.0313" stop-color="rgb(49,49,49)"/>
  <stop offset="0.0625" stop-color="rgb(46,46,46)"/>
  <stop offset="0.0938" stop-color="rgb(46,46,46)"/>
  <stop offset="0.1250" stop-color="rgb(46,46,46)"/>
  <stop offset="0.1563" stop-color="rgb(44,44,44)"/>
  <stop offset="0.1875" stop-color="rgb(43,43,43)"/>
  <stop offset="0.2188" stop-color="rgb(42,42,42)"/>
  <stop offset="0.2500" stop-color="rgb(40,40,40)"/>
  <stop offset="0.2813" stop-color="rgb(39,39,39)"/>
  <stop offset="0.3125" stop-color="rgb(38,38,38)"/>
  <stop offset="0.3438" stop-color="rgb(37,37,37)"/>
  <stop offset="0.3750" stop-color="rgb(36,36,36)"/>
  <stop offset="0.4063" stop-color="rgb(36,36,36)"/>
  <stop offset="0.4375" stop-color="rgb(35,35,35)"/>
  <stop offset="0.4688" stop-color="rgb(34,34,34)"/>
  <stop offset="0.5000" stop-color="rgb(34,34,34)"/>
  <stop offset="0.5313" stop-color="rgb(33,33,33)"/>
  <stop offset="0.5625" stop-color="rgb(33,33,33)"/>
  <stop offset="0.5938" stop-color="rgb(32,32,32)"/>
  <stop offset="0.6250" stop-color="rgb(32,32,32)"/>
  <stop offset="0.6563" stop-color="rgb(31,31,31)"/>
  <stop offset="0.6875" stop-color="rgb(30,30,30)"/>
  <stop offset="0.7188" stop-color="rgb(30,30,30)"/>
  <stop offset="0.7500" stop-color="rgb(29,29,29)"/>
  <stop offset="0.7813" stop-color="rgb(29,29,29)"/>
  <stop offset="0.8125" stop-color="rgb(28,28,28)"/>
  <stop offset="0.8438" stop-color="rgb(28,28,28)"/>
  <stop offset="0.8750" stop-color="rgb(27,27,27)"/>
  <stop offset="0.9063" stop-color="rgb(26,26,26)"/>
  <stop offset="0.9375" stop-color="rgb(26,26,26)"/>
  <stop offset="0.9688" stop-color="rgb(25,25,25)"/>
  <stop offset="1.0000" stop-color="rgb(0,0,0)"/>
</radialGradient></defs>
<circle cx="860" cy="140" r="81" fill="url(#g_F568_3)"/>
<text x="860" y="49" text-anchor="middle" class="preview-lbl">face-on luminance from ρ(r)</text>
<text x="860" y="239" text-anchor="middle" class="preview-lbl">edge at r = 23.5 kpc</text>
</svg>