<svg xmlns="http://www.w3.org/2000/svg" viewBox="0 0 720 420" width="720" height="420" font-family="sans-serif" font-size="12">
<style>
  .ax { stroke: #333; stroke-width: 1; fill: none; }
  .grid { stroke: #ddd; stroke-width: 0.5; fill: none; }
  .lbl { fill: #333; }
  .lbl-l { fill: #0066cc; }
  .lbl-r { fill: #b03030; }
  .obs { fill: #222; }
  .err { stroke: #555; stroke-width: 0.8; fill: none; }
  .fw { stroke: #0066cc; stroke-width: 2.2; fill: none; }
  .nt { stroke: #cc6600; stroke-width: 1.6; fill: none; stroke-dasharray: 5,3; }
  .rho { stroke: #b03030; stroke-width: 2.0; fill: none; }
  .sig { stroke: #b03030; stroke-width: 1.6; fill: none; stroke-dasharray: 4,2; opacity: 0.85; }
  .title { fill: #111; font-size: 16px; font-weight: 600; }
  .subtitle { fill: #555; font-size: 11px; }
  .legend { font-size: 11px; }
</style>
<text x="360.0" y="22" text-anchor="middle" class="title">F568-1</text>
<text x="360.0" y="38" text-anchor="middle" class="subtitle">rMax=13.2 kpc, N=12, RMS=4.3 km/s (4.3%), amp=418</text>
<line x1="70" y1="365.0" x2="635" y2="365.0" class="grid"/>
<text x="64" y="369.0" text-anchor="end" class="lbl-l">0</text>
<line x1="70" y1="303.0" x2="635" y2="303.0" class="grid"/>
<text x="64" y="307.0" text-anchor="end" class="lbl-l">36</text>
<line x1="70" y1="241.0" x2="635" y2="241.0" class="grid"/>
<text x="64" y="245.0" text-anchor="end" class="lbl-l">73</text>
<line x1="70" y1="178.99999999999997" x2="635" y2="178.99999999999997" class="grid"/>
<text x="64" y="182.99999999999997" text-anchor="end" class="lbl-l">109</text>
<line x1="70" y1="116.99999999999999" x2="635" y2="116.99999999999999" class="grid"/>
<text x="64" y="120.99999999999999" text-anchor="end" class="lbl-l">146</text>
<line x1="70" y1="55.0" x2="635" y2="55.0" class="grid"/>
<text x="64" y="59.0" text-anchor="end" class="lbl-l">182</text>
<text x="641" y="369.0" text-anchor="start" class="lbl-r">0.0</text>
<text x="641" y="327.6666666666667" text-anchor="start" class="lbl-r">0.2</text>
<text x="641" y="286.33333333333337" text-anchor="start" class="lbl-r">0.4</text>
<text x="641" y="245.00000000000003" text-anchor="start" class="lbl-r">0.6</text>
<text x="641" y="203.66666666666666" text-anchor="start" class="lbl-r">0.8</text>
<text x="641" y="162.33333333333334" text-anchor="start" class="lbl-r">1.0</text>
<line x1="70.0" y1="55" x2="70.0" y2="365" class="grid"/>
<text x="70.0" y="381" text-anchor="middle" class="lbl">0.0</text>
<line x1="164.16666666666666" y1="55" x2="164.16666666666666" y2="365" class="grid"/>
<text x="164.16666666666666" y="381" text-anchor="middle" class="lbl">2.8</text>
<line x1="258.3333333333333" y1="55" x2="258.3333333333333" y2="365" class="grid"/>
<text x="258.3333333333333" y="381" text-anchor="middle" class="lbl">5.6</text>
<line x1="352.5" y1="55" x2="352.5" y2="365" class="grid"/>
<text x="352.5" y="381" text-anchor="middle" class="lbl">8.5</text>
<line x1="446.66666666666663" y1="55" x2="446.66666666666663" y2="365" class="grid"/>
<text x="446.66666666666663" y="381" text-anchor="middle" class="lbl">11.3</text>
<line x1="540.8333333333334" y1="55" x2="540.8333333333334" y2="365" class="grid"/>
<text x="540.8333333333334" y="381" text-anchor="middle" class="lbl">14.1</text>
<line x1="635.0" y1="55" x2="635.0" y2="365" class="grid"/>
<text x="635.0" y="381" text-anchor="middle" class="lbl">16.9</text>
<text x="352.5" y="408" text-anchor="middle" class="lbl">radius (kpc)</text>
<text x="16" y="210.0" text-anchor="middle" class="lbl-l" transform="rotate(-90, 16, 210.0)">velocity (km/s)</text>
<text x="704" y="210.0" text-anchor="middle" class="lbl-r" transform="rotate(-90, 704, 210.0)">mass profile (normalized to peak)</text>
<rect x="70" y="55" width="565" height="310" class="ax"/>
<path d="M 70.0,158.3 L 72.6,159.5 L 75.2,160.7 L 77.7,161.8 L 80.3,163.0 L 82.9,164.2 L 85.5,165.3 L 88.1,165.7 L 90.6,165.9 L 93.2,166.1 L 95.8,166.2 L 98.4,166.4 L 101.0,166.6 L 103.5,166.7 L 106.1,166.9 L 108.7,167.1 L 111.3,167.3 L 113.9,167.4 L 116.4,167.6 L 119.0,167.8 L 121.6,167.9 L 124.2,168.1 L 126.8,168.3 L 129.3,168.4 L 131.9,168.6 L 134.5,168.8 L 137.1,169.9 L 139.7,171.0 L 142.2,172.0 L 144.8,173.1 L 147.4,174.2 L 150.0,175.3 L 152.6,176.4 L 155.1,177.5 L 157.7,178.6 L 160.3,179.7 L 162.9,180.8 L 165.5,181.9 L 168.0,183.0 L 170.6,184.1 L 173.2,185.2 L 175.8,186.3 L 178.4,187.4 L 180.9,188.5 L 183.5,189.5 L 186.1,190.6 L 188.7,191.7 L 191.3,192.8 L 193.8,193.9 L 196.4,195.0 L 199.0,196.1 L 201.6,197.2 L 204.2,198.3 L 206.7,199.4 L 209.3,200.2 L 211.9,200.8 L 214.5,201.5 L 217.1,202.2 L 219.6,202.9 L 222.2,203.6 L 224.8,204.2 L 227.4,204.9 L 230.0,205.6 L 232.5,206.3 L 235.1,207.0 L 237.7,207.6 L 240.3,208.3 L 242.9,209.0 L 245.4,209.7 L 248.0,210.4 L 250.6,211.1 L 253.2,211.7 L 255.8,212.4 L 258.3,213.1 L 260.9,213.8 L 263.5,214.5 L 266.1,215.1 L 268.7,215.8 L 271.2,216.5 L 273.8,217.2 L 276.4,217.9 L 279.0,218.5 L 281.6,219.2 L 284.1,219.9 L 286.7,220.6 L 289.3,221.3 L 291.9,222.0 L 294.5,222.6 L 297.0,223.3 L 299.6,224.0 L 302.2,224.7 L 304.8,225.4 L 307.4,226.0 L 309.9,226.7 L 312.5,227.4 L 315.1,228.1 L 317.7,228.8 L 320.3,229.4 L 322.8,230.1 L 325.4,230.8 L 328.0,231.5 L 330.6,232.2 L 333.2,232.9 L 335.7,233.5 L 338.3,234.2 L 340.9,234.9 L 343.5,235.6 L 346.1,236.3 L 348.6,236.9 L 351.2,237.6 L 353.8,238.3 L 356.4,239.0 L 358.9,239.7 L 361.5,240.3 L 364.1,241.0 L 366.7,241.7 L 369.3,242.4 L 371.8,243.1 L 374.4,243.8 L 377.0,244.4 L 379.6,245.1 L 382.2,245.8 L 384.7,246.5 L 387.3,247.2 L 389.9,247.8 L 392.5,248.5 L 395.1,249.2 L 397.6,249.9 L 400.2,250.6 L 402.8,251.2 L 405.4,251.9 L 408.0,252.6 L 410.5,253.3 L 413.1,254.0 L 415.7,254.7 L 418.3,255.3 L 420.9,256.0 L 423.4,256.7 L 426.0,257.4 L 428.6,258.1 L 431.2,258.7 L 433.8,259.4 L 436.3,260.1 L 438.9,260.8 L 441.5,261.5 L 444.1,262.1 L 446.7,262.8 L 449.2,263.5 L 451.8,264.2 L 454.4,264.9 L 457.0,265.6 L 459.6,266.2 L 462.1,266.9 L 464.7,267.6 L 467.3,268.3 L 469.9,269.0 L 472.5,269.6 L 475.0,270.3 L 477.6,271.0 L 480.2,271.7 L 482.8,272.4 L 485.4,273.0 L 487.9,273.7 L 490.5,274.4 L 493.1,275.1 L 495.7,275.8 L 498.3,276.5 L 500.8,277.1 L 503.4,277.8 L 506.0,278.5 L 508.6,279.2 L 511.2,279.9 L 513.7,280.5 L 516.3,281.2 L 518.9,281.9 L 521.5,282.6 L 524.1,283.3 L 526.6,283.9 L 529.2,284.6 L 531.8,285.3 L 534.4,286.0 L 537.0,286.7 L 539.5,287.4 L 542.1,288.0 L 544.7,288.7 L 547.3,289.4 L 549.9,290.1 L 552.4,290.8 L 555.0,291.4 L 557.6,292.1 L 560.2,292.8 L 562.8,293.5 L 565.3,294.2 L 567.9,296.6 L 570.5,301.0 L 573.1,305.4 L 575.7,309.8 L 578.2,314.2 L 580.8,318.6 L 583.4,323.0 L 586.0,327.3 L 588.6,331.7 L 591.1,336.1 L 593.7,340.5 L 596.3,344.9 L 598.9,349.3 L 601.5,353.7 L 604.0,358.1 L 606.6,362.5 L 609.2,365.0 L 611.8,365.0 L 614.4,365.0 L 616.9,365.0 L 619.5,365.0 L 622.1,365.0 L 624.7,365.0 L 627.3,365.0 L 629.8,365.0 L 632.4,365.0 L 635.0,365.0" class="rho"/>
<path d="M 70.0,158.3 L 72.6,158.4 L 75.2,158.5 L 77.7,158.6 L 80.3,158.7 L 82.9,158.9 L 85.5,159.2 L 88.1,159.5 L 90.6,159.8 L 93.2,160.1 L 95.8,160.5 L 98.4,160.9 L 101.0,161.4 L 103.5,161.9 L 106.1,162.4 L 108.7,163.0 L 111.3,163.6 L 113.9,164.2 L 116.4,164.9 L 119.0,165.7 L 121.6,166.4 L 124.2,167.2 L 126.8,168.1 L 129.3,169.0 L 131.9,169.9 L 134.5,170.9 L 137.1,171.9 L 139.7,173.0 L 142.2,174.0 L 144.8,175.2 L 147.4,176.3 L 150.0,177.5 L 152.6,178.7 L 155.1,180.0 L 157.7,181.2 L 160.3,182.5 L 162.9,183.8 L 165.5,185.2 L 168.0,186.5 L 170.6,187.8 L 173.2,189.2 L 175.8,190.6 L 178.4,191.9 L 180.9,193.3 L 183.5,194.7 L 186.1,196.1 L 188.7,197.5 L 191.3,198.8 L 193.8,200.2 L 196.4,201.6 L 199.0,203.0 L 201.6,204.3 L 204.2,205.7 L 206.7,207.1 L 209.3,208.4 L 211.9,209.7 L 214.5,211.1 L 217.1,212.4 L 219.6,213.7 L 222.2,215.0 L 224.8,216.3 L 227.4,217.6 L 230.0,218.9 L 232.5,220.1 L 235.1,221.4 L 237.7,222.7 L 240.3,223.9 L 242.9,225.1 L 245.4,226.4 L 248.0,227.6 L 250.6,228.9 L 253.2,230.1 L 255.8,231.3 L 258.3,232.5 L 260.9,233.7 L 263.5,234.9 L 266.1,236.1 L 268.7,237.3 L 271.2,238.5 L 273.8,239.7 L 276.4,240.9 L 279.0,242.0 L 281.6,243.2 L 284.1,244.4 L 286.7,245.5 L 289.3,246.7 L 291.9,247.8 L 294.5,248.9 L 297.0,250.1 L 299.6,251.2 L 302.2,252.3 L 304.8,253.5 L 307.4,254.6 L 309.9,255.7 L 312.5,256.8 L 315.1,257.9 L 317.7,259.0 L 320.3,260.1 L 322.8,261.2 L 325.4,262.2 L 328.0,263.3 L 330.6,264.4 L 333.2,265.4 L 335.7,266.5 L 338.3,267.5 L 340.9,268.6 L 343.5,269.6 L 346.1,270.7 L 348.6,271.7 L 351.2,272.7 L 353.8,273.7 L 356.4,274.7 L 358.9,275.7 L 361.5,276.7 L 364.1,277.7 L 366.7,278.7 L 369.3,279.7 L 371.8,280.7 L 374.4,281.6 L 377.0,282.6 L 379.6,283.5 L 382.2,284.5 L 384.7,285.4 L 387.3,286.4 L 389.9,287.3 L 392.5,288.2 L 395.1,289.1 L 397.6,290.0 L 400.2,290.9 L 402.8,291.8 L 405.4,292.7 L 408.0,293.6 L 410.5,294.5 L 413.1,295.4 L 415.7,296.2 L 418.3,297.1 L 420.9,298.0 L 423.4,298.8 L 426.0,299.6 L 428.6,300.5 L 431.2,301.3 L 433.8,302.1 L 436.3,303.0 L 438.9,303.8 L 441.5,304.6 L 444.1,305.4 L 446.7,306.2 L 449.2,306.9 L 451.8,307.7 L 454.4,308.5 L 457.0,309.3 L 459.6,310.0 L 462.1,310.8 L 464.7,311.5 L 467.3,312.3 L 469.9,313.0 L 472.5,313.7 L 475.0,314.4 L 477.6,315.2 L 480.2,315.9 L 482.8,316.6 L 485.4,317.3 L 487.9,318.0 L 490.5,318.7 L 493.1,319.3 L 495.7,320.0 L 498.3,320.7 L 500.8,321.4 L 503.4,322.0 L 506.0,322.7 L 508.6,323.3 L 511.2,324.0 L 513.7,324.6 L 516.3,325.2 L 518.9,325.9 L 521.5,326.5 L 524.1,327.1 L 526.6,327.8 L 529.2,328.4 L 531.8,329.0 L 534.4,329.6 L 537.0,330.2 L 539.5,330.8 L 542.1,331.4 L 544.7,332.0 L 547.3,332.6 L 549.9,333.3 L 552.4,333.9 L 555.0,334.5 L 557.6,335.1 L 560.2,335.7 L 562.8,336.3 L 565.3,336.9 L 567.9,337.5 L 570.5,338.1 L 573.1,338.7 L 575.7,339.3 L 578.2,339.9 L 580.8,340.5 L 583.4,341.0 L 586.0,341.6 L 588.6,342.1 L 591.1,342.6 L 593.7,343.1 L 596.3,343.6 L 598.9,344.0 L 601.5,344.4 L 604.0,344.9 L 606.6,345.2 L 609.2,345.6 L 611.8,346.0 L 614.4,346.3 L 616.9,346.7 L 619.5,347.0 L 622.1,347.3 L 624.7,347.6 L 627.3,347.8 L 629.8,348.1 L 632.4,348.4 L 635.0,348.6" class="sig"/>
<path d="M 75.7,329.7 L 81.3,315.3 L 87.0,304.4 L 92.6,295.2 L 98.2,287.1 L 103.9,279.8 L 109.6,273.0 L 115.2,266.7 L 120.8,260.9 L 126.5,255.3 L 132.2,250.0 L 137.8,245.0 L 143.4,240.3 L 149.1,235.8 L 154.8,231.6 L 160.4,227.6 L 166.1,223.8 L 171.7,220.2 L 177.3,216.7 L 183.0,213.4 L 188.6,210.2 L 194.3,207.2 L 199.9,204.3 L 205.6,201.4 L 211.2,198.7 L 216.9,196.1 L 222.6,193.5 L 228.2,191.0 L 233.9,188.6 L 239.5,186.2 L 245.2,183.9 L 250.8,181.6 L 256.4,179.4 L 262.1,177.3 L 267.8,175.2 L 273.4,173.1 L 279.1,171.1 L 284.7,169.2 L 290.4,167.3 L 296.0,165.4 L 301.6,163.6 L 307.3,161.9 L 312.9,160.2 L 318.6,158.5 L 324.2,156.9 L 329.9,155.3 L 335.6,153.7 L 341.2,152.2 L 346.9,150.7 L 352.5,149.3 L 358.1,147.9 L 363.8,146.5 L 369.4,145.2 L 375.1,143.9 L 380.7,142.6 L 386.4,141.4 L 392.0,140.2 L 397.7,139.0 L 403.3,137.9 L 409.0,136.8 L 414.6,135.8 L 420.3,134.7 L 425.9,133.7 L 431.6,132.7 L 437.2,131.8 L 442.9,130.9 L 448.6,130.0 L 454.2,129.1 L 459.9,128.3 L 465.5,127.5 L 471.2,126.7 L 476.8,126.0 L 482.4,125.2 L 488.1,124.6 L 493.8,123.9 L 499.4,123.2 L 505.0,122.6 L 510.7,122.0 L 516.3,121.5 L 522.0,121.0 L 527.6,120.4 L 533.3,120.0 L 539.0,119.5 L 544.6,119.1 L 550.2,118.7 L 555.9,118.3 L 561.5,117.9 L 567.2,117.6 L 572.8,117.4 L 578.5,117.4 L 584.1,117.7 L 589.8,118.1 L 595.4,118.8 L 601.1,119.7 L 606.8,120.8 L 612.4,122.1 L 618.1,123.4 L 623.7,124.6 L 629.4,125.8 L 635.0,127.0" class="nt"/>
<path d="M 74.7,356.2 L 79.4,348.8 L 84.1,341.2 L 88.8,333.8 L 93.5,326.5 L 98.2,319.2 L 103.0,312.0 L 107.7,304.6 L 112.4,297.2 L 117.1,289.6 L 121.8,282.0 L 126.5,274.2 L 131.2,266.5 L 135.9,258.8 L 140.6,251.4 L 145.3,244.4 L 150.0,237.7 L 154.8,231.5 L 159.5,225.8 L 164.2,220.4 L 168.9,215.5 L 173.6,210.9 L 178.3,206.7 L 183.0,202.9 L 187.7,199.4 L 192.4,196.3 L 197.1,193.6 L 201.8,191.1 L 206.5,188.9 L 211.2,186.9 L 216.0,185.0 L 220.7,183.2 L 225.4,181.4 L 230.1,179.6 L 234.8,177.8 L 239.5,176.1 L 244.2,174.3 L 248.9,172.5 L 253.6,170.8 L 258.3,169.1 L 263.0,167.5 L 267.8,165.9 L 272.5,164.3 L 277.2,162.8 L 281.9,161.3 L 286.6,159.9 L 291.3,158.5 L 296.0,157.1 L 300.7,155.9 L 305.4,154.6 L 310.1,153.5 L 314.8,152.3 L 319.5,151.3 L 324.2,150.3 L 329.0,149.3 L 333.7,148.4 L 338.4,147.6 L 343.1,146.8 L 347.8,146.0 L 352.5,145.3 L 357.2,144.7 L 361.9,144.1 L 366.6,143.5 L 371.3,143.0 L 376.0,142.6 L 380.7,142.2 L 385.5,141.9 L 390.2,141.6 L 394.9,141.3 L 399.6,141.1 L 404.3,141.0 L 409.0,140.9 L 413.7,140.8 L 418.4,140.8 L 423.1,140.8 L 427.8,140.9 L 432.5,141.0 L 437.2,141.1 L 442.0,141.3 L 446.7,141.5 L 451.4,141.8 L 456.1,142.0 L 460.8,142.4 L 465.5,142.7 L 470.2,143.0 L 474.9,143.4 L 479.6,143.8 L 484.3,144.2 L 489.0,144.6 L 493.8,145.0 L 498.5,145.4 L 503.2,145.8 L 507.9,146.1 L 512.6,146.4 L 517.3,146.6 L 522.0,146.7 L 526.7,146.7 L 531.4,146.5 L 536.1,146.0 L 540.8,145.4 L 545.5,144.5 L 550.2,143.3 L 555.0,141.9 L 559.7,140.5 L 564.4,139.6 L 569.1,139.4 L 573.8,140.4 L 578.5,142.9 L 583.2,146.9 L 587.9,152.1 L 592.6,158.3 L 597.3,165.2 L 602.0,172.2 L 606.8,179.1 L 611.5,185.6 L 616.2,191.6 L 620.9,197.2 L 625.6,202.3 L 630.3,206.9 L 635.0,211.0" class="fw"/>
<line x1="84.68112543989405" y1="322.84625507182807" x2="84.68112543989405" y2="353.7816646562123" class="err"/>
<line x1="81.68112543989405" y1="322.84625507182807" x2="87.68112543989405" y2="322.84625507182807" class="err"/>
<line x1="81.68112543989405" y1="353.7816646562123" x2="87.68112543989405" y2="353.7816646562123" class="err"/>
<circle cx="84.68112543989405" cy="338.31395986402015" r="2.5" class="obs"/>
<line x1="114.04337631968215" y1="273.89351902620905" x2="114.04337631968215" y2="304.82892861059327" class="err"/>
<line x1="111.04337631968215" y1="273.89351902620905" x2="117.04337631968215" y2="273.89351902620905" class="err"/>
<line x1="111.04337631968215" y1="304.82892861059327" x2="117.04337631968215" y2="304.82892861059327" class="err"/>
<circle cx="114.04337631968215" cy="289.3612238184012" r="2.5" class="obs"/>
<line x1="143.40562719947025" y1="231.56979932010088" x2="143.40562719947025" y2="262.50520890448513" class="err"/>
<line x1="140.40562719947025" y1="231.56979932010088" x2="146.40562719947025" y2="231.56979932010088" class="err"/>
<line x1="140.40562719947025" y1="262.50520890448513" x2="146.40562719947025" y2="262.50520890448513" class="err"/>
<circle cx="143.40562719947025" cy="247.037504112293" r="2.5" class="obs"/>
<line x1="172.76787807925837" y1="192.64557517271632" x2="172.76787807925837" y2="231.39982454216474" class="err"/>
<line x1="169.76787807925837" y1="192.64557517271632" x2="175.76787807925837" y2="192.64557517271632" class="err"/>
<line x1="169.76787807925837" y1="231.39982454216474" x2="175.76787807925837" y2="231.39982454216474" class="err"/>
<circle cx="172.76787807925837" cy="212.02269985744056" r="2.5" class="obs"/>
<line x1="202.13012895904646" y1="169.73297510691964" x2="202.13012895904646" y2="203.31999122710823" class="err"/>
<line x1="199.13012895904646" y1="169.73297510691964" x2="205.13012895904646" y2="169.73297510691964" class="err"/>
<line x1="199.13012895904646" y1="203.31999122710823" x2="205.13012895904646" y2="203.31999122710823" class="err"/>
<circle cx="202.13012895904646" cy="186.52648316701396" r="2.5" class="obs"/>
<line x1="231.49237983883455" y1="145.3925869064591" x2="231.49237983883455" y2="200.4644149577805" class="err"/>
<line x1="228.49237983883455" y1="145.3925869064591" x2="234.49237983883455" y2="145.3925869064591" class="err"/>
<line x1="228.49237983883455" y1="200.4644149577805" x2="234.49237983883455" y2="200.4644149577805" class="err"/>
<circle cx="231.49237983883455" cy="172.92850093211976" r="2.5" class="obs"/>
<line x1="254.515053824123" y1="123.97576488650073" x2="254.515053824123" y2="208.28325474284463" class="err"/>
<line x1="251.515053824123" y1="123.97576488650073" x2="257.515053824123" y2="123.97576488650073" class="err"/>
<line x1="251.515053824123" y1="208.28325474284463" x2="257.515053824123" y2="208.28325474284463" class="err"/>
<circle cx="254.515053824123" cy="166.1295098146727" r="2.5" class="obs"/>
<line x1="319.57913247819886" y1="138.76357056694815" x2="319.57913247819886" y2="169.69898015133242" class="err"/>
<line x1="316.57913247819886" y1="138.76357056694815" x2="322.57913247819886" y2="138.76357056694815" class="err"/>
<line x1="316.57913247819886" y1="169.69898015133242" x2="322.57913247819886" y2="169.69898015133242" class="err"/>
<circle cx="319.57913247819886" cy="154.23127535914028" r="2.5" class="obs"/>
<line x1="349.27504529980274" y1="133.66432722886285" x2="349.27504529980274" y2="164.5997368132471" class="err"/>
<line x1="346.27504529980274" y1="133.66432722886285" x2="352.27504529980274" y2="133.66432722886285" class="err"/>
<line x1="346.27504529980274" y1="164.5997368132471" x2="352.27504529980274" y2="164.5997368132471" class="err"/>
<circle cx="349.27504529980274" cy="149.13203202105495" r="2.5" class="obs"/>
<line x1="378.30363423777504" y1="128.56508389077754" x2="378.30363423777504" y2="159.50049347516176" class="err"/>
<line x1="375.30363423777504" y1="128.56508389077754" x2="381.30363423777504" y2="128.56508389077754" class="err"/>
<line x1="375.30363423777504" y1="159.50049347516176" x2="381.30363423777504" y2="159.50049347516176" class="err"/>
<circle cx="378.30363423777504" cy="144.03278868296965" r="2.5" class="obs"/>
<line x1="407.999547059379" y1="123.46584055269221" x2="407.999547059379" y2="154.40125013707646" class="err"/>
<line x1="404.999547059379" y1="123.46584055269221" x2="410.999547059379" y2="123.46584055269221" class="err"/>
<line x1="404.999547059379" y1="154.40125013707646" x2="410.999547059379" y2="154.40125013707646" class="err"/>
<circle cx="407.999547059379" cy="138.93354534488435" r="2.5" class="obs"/>
<line x1="511.4347490222688" y1="83.18181818181819" x2="511.4347490222688" y2="164.08981247943854" class="err"/>
<line x1="508.4347490222688" y1="83.18181818181819" x2="514.4347490222688" y2="83.18181818181819" class="err"/>
<line x1="508.4347490222688" y1="164.08981247943854" x2="514.4347490222688" y2="164.08981247943854" class="err"/>
<circle cx="511.4347490222688" cy="123.63581533062839" r="2.5" class="obs"/>
<g class="legend">
<line x1="82" y1="69" x2="106" y2="69" class="fw"/>
<text x="112" y="73" class="lbl-l">framework fit</text>
<line x1="82" y1="87" x2="106" y2="87" class="nt"/>
<text x="112" y="91" class="lbl-l">Newtonian (no halo)</text>
<circle cx="94" cy="105" r="2.5" class="obs"/>
<text x="112" y="109" class="lbl">observed V±err</text>
</g>
<g class="legend">
<line x1="460" y1="69" x2="484" y2="69" class="rho"/>
<text x="490" y="73" class="lbl-r">ρ(r) raw</text>
<line x1="460" y1="87" x2="484" y2="87" class="sig"/>
<text x="490" y="91" class="lbl-r">Σ(r) smoothed</text>
<text x="460" y="113" class="lbl-r">ρ peak: 190 M☉/pc²</text>
</g>
</svg>