<svg xmlns="http://www.w3.org/2000/svg" viewBox="0 0 960 450" width="960" height="450" font-family="sans-serif" font-size="12">
<style>
  .ax { stroke: #333; stroke-width: 1; fill: none; }
  .grid { stroke: #ddd; stroke-width: 0.5; fill: none; }
  .lbl { fill: #333; }
  .lbl-l { fill: #0066cc; }
  .lbl-r { fill: #b03030; }
  .obs { fill: #222; }
  .err { stroke: #555; stroke-width: 0.8; fill: none; }
  .fw { stroke: #0066cc; stroke-width: 2.2; fill: none; }
  .nt { stroke: #cc6600; stroke-width: 1.6; fill: none; stroke-dasharray: 5,3; }
  .mond { stroke: #7b2cbf; stroke-width: 1.8; fill: none; stroke-dasharray: 7,3; }
  .lbl-p { fill: #cc7000; }
  .lbl-m { fill: #7b2cbf; }
  .rho { stroke: #b03030; stroke-width: 2.0; fill: none; }
  .phot { stroke: #cc7000; stroke-width: 1.8; fill: none; }
  .mbar { stroke: #8e44ad; stroke-width: 1.8; fill: none; opacity: 0.9; }
  .mph { stroke: #c77dff; stroke-width: 1.6; fill: none; stroke-dasharray: 4,3; opacity: 0.95; }
  .title { fill: #111; font-size: 16px; font-weight: 600; }
  .subtitle { fill: #555; font-size: 11px; }
  .preview-bg { fill: #000; }
  .preview-lbl { fill: #888; font-size: 10px; }
  .legend { font-size: 11px; }
</style>
<text x="378.5" y="22" text-anchor="middle" class="title">F568-1</text>
<text x="378.5" y="38" text-anchor="middle" class="subtitle">rMax=13.2 kpc, N=12, FW=4.3 km/s, 4.3%, 0.24σ, MOND=30.1 km/s, 28.1%, 2.63σ, amp=418</text>
<line x1="70" y1="395.0" x2="687" y2="395.0" class="grid"/>
<text x="64" y="399.0" text-anchor="end" class="lbl-l">0</text>
<line x1="70" y1="327.0" x2="687" y2="327.0" class="grid"/>
<text x="64" y="331.0" text-anchor="end" class="lbl-l">36</text>
<line x1="70" y1="259.0" x2="687" y2="259.0" class="grid"/>
<text x="64" y="263.0" text-anchor="end" class="lbl-l">73</text>
<line x1="70" y1="191.0" x2="687" y2="191.0" class="grid"/>
<text x="64" y="195.0" text-anchor="end" class="lbl-l">109</text>
<line x1="70" y1="123.0" x2="687" y2="123.0" class="grid"/>
<text x="64" y="127.0" text-anchor="end" class="lbl-l">146</text>
<line x1="70" y1="55.0" x2="687" y2="55.0" class="grid"/>
<text x="64" y="59.0" text-anchor="end" class="lbl-l">182</text>
<text x="693" y="399.0" text-anchor="start" class="lbl-r">0.0</text>
<text x="693" y="353.7" text-anchor="start" class="lbl-r">0.2</text>
<text x="693" y="308.3" text-anchor="start" class="lbl-r">0.4</text>
<text x="693" y="263.0" text-anchor="start" class="lbl-r">0.6</text>
<text x="693" y="217.7" text-anchor="start" class="lbl-r">0.8</text>
<text x="693" y="172.3" text-anchor="start" class="lbl-r">1.0</text>
<line x1="70.0" y1="55" x2="70.0" y2="395" class="grid"/>
<text x="70.0" y="411" text-anchor="middle" class="lbl">0.0</text>
<line x1="172.8" y1="55" x2="172.8" y2="395" class="grid"/>
<text x="172.8" y="411" text-anchor="middle" class="lbl">2.8</text>
<line x1="275.7" y1="55" x2="275.7" y2="395" class="grid"/>
<text x="275.7" y="411" text-anchor="middle" class="lbl">5.6</text>
<line x1="378.5" y1="55" x2="378.5" y2="395" class="grid"/>
<text x="378.5" y="411" text-anchor="middle" class="lbl">8.5</text>
<line x1="481.3" y1="55" x2="481.3" y2="395" class="grid"/>
<text x="481.3" y="411" text-anchor="middle" class="lbl">11.3</text>
<line x1="584.2" y1="55" x2="584.2" y2="395" class="grid"/>
<text x="584.2" y="411" text-anchor="middle" class="lbl">14.1</text>
<line x1="687.0" y1="55" x2="687.0" y2="395" class="grid"/>
<text x="687.0" y="411" text-anchor="middle" class="lbl">16.9</text>
<text x="378.5" y="438" text-anchor="middle" class="lbl">radius (kpc)</text>
<text x="16" y="225" text-anchor="middle" class="lbl-l" transform="rotate(-90, 16, 225)">velocity (km/s)</text>
<text x="724" y="225" text-anchor="middle" class="lbl-r" transform="rotate(-90, 724, 225)">profiles (normalized to peak)</text>
<rect x="70" y="55" width="617" height="340" class="ax"/>
<path d="M 70.0,168.3 L 72.8,169.6 L 75.6,170.9 L 78.5,172.2 L 81.3,173.4 L 84.1,174.7 L 86.9,176.0 L 89.7,176.4 L 92.5,176.6 L 95.4,176.8 L 98.2,177.0 L 101.0,177.2 L 103.8,177.4 L 106.6,177.6 L 109.4,177.7 L 112.3,177.9 L 115.1,178.1 L 117.9,178.3 L 120.7,178.5 L 123.5,178.7 L 126.3,178.9 L 129.2,179.1 L 132.0,179.2 L 134.8,179.4 L 137.6,179.6 L 140.4,179.8 L 143.3,181.0 L 146.1,182.2 L 148.9,183.4 L 151.7,184.6 L 154.5,185.8 L 157.3,187.0 L 160.2,188.2 L 163.0,189.4 L 165.8,190.6 L 168.6,191.8 L 171.4,193.0 L 174.2,194.2 L 177.1,195.4 L 179.9,196.6 L 182.7,197.8 L 185.5,199.0 L 188.3,200.2 L 191.1,201.4 L 194.0,202.6 L 196.8,203.8 L 199.6,205.0 L 202.4,206.2 L 205.2,207.4 L 208.1,208.6 L 210.9,209.8 L 213.7,211.0 L 216.5,212.2 L 219.3,213.4 L 222.1,214.2 L 225.0,214.9 L 227.8,215.7 L 230.6,216.4 L 233.4,217.2 L 236.2,217.9 L 239.0,218.7 L 241.9,219.4 L 244.7,220.2 L 247.5,220.9 L 250.3,221.7 L 253.1,222.4 L 255.9,223.2 L 258.8,223.9 L 261.6,224.7 L 264.4,225.4 L 267.2,226.2 L 270.0,226.9 L 272.8,227.7 L 275.7,228.4 L 278.5,229.1 L 281.3,229.9 L 284.1,230.6 L 286.9,231.4 L 289.8,232.1 L 292.6,232.9 L 295.4,233.6 L 298.2,234.4 L 301.0,235.1 L 303.8,235.9 L 306.7,236.6 L 309.5,237.4 L 312.3,238.1 L 315.1,238.9 L 317.9,239.6 L 320.7,240.4 L 323.6,241.1 L 326.4,241.8 L 329.2,242.6 L 332.0,243.3 L 334.8,244.1 L 337.6,244.8 L 340.5,245.6 L 343.3,246.3 L 346.1,247.1 L 348.9,247.8 L 351.7,248.6 L 354.6,249.3 L 357.4,250.1 L 360.2,250.8 L 363.0,251.6 L 365.8,252.3 L 368.6,253.1 L 371.5,253.8 L 374.3,254.5 L 377.1,255.3 L 379.9,256.0 L 382.7,256.8 L 385.5,257.5 L 388.4,258.3 L 391.2,259.0 L 394.0,259.8 L 396.8,260.5 L 399.6,261.3 L 402.4,262.0 L 405.3,262.8 L 408.1,263.5 L 410.9,264.3 L 413.7,265.0 L 416.5,265.8 L 419.4,266.5 L 422.2,267.2 L 425.0,268.0 L 427.8,268.7 L 430.6,269.5 L 433.4,270.2 L 436.3,271.0 L 439.1,271.7 L 441.9,272.5 L 444.7,273.2 L 447.5,274.0 L 450.3,274.7 L 453.2,275.5 L 456.0,276.2 L 458.8,277.0 L 461.6,277.7 L 464.4,278.5 L 467.2,279.2 L 470.1,280.0 L 472.9,280.7 L 475.7,281.4 L 478.5,282.2 L 481.3,282.9 L 484.2,283.7 L 487.0,284.4 L 489.8,285.2 L 492.6,285.9 L 495.4,286.7 L 498.2,287.4 L 501.1,288.2 L 503.9,288.9 L 506.7,289.7 L 509.5,290.4 L 512.3,291.2 L 515.1,291.9 L 518.0,292.7 L 520.8,293.4 L 523.6,294.1 L 526.4,294.9 L 529.2,295.6 L 532.0,296.4 L 534.9,297.1 L 537.7,297.9 L 540.5,298.6 L 543.3,299.4 L 546.1,300.1 L 548.9,300.9 L 551.8,301.6 L 554.6,302.4 L 557.4,303.1 L 560.2,303.9 L 563.0,304.6 L 565.9,305.4 L 568.7,306.1 L 571.5,306.8 L 574.3,307.6 L 577.1,308.3 L 579.9,309.1 L 582.8,309.8 L 585.6,310.6 L 588.4,311.3 L 591.2,312.1 L 594.0,312.8 L 596.8,313.6 L 599.7,314.3 L 602.5,315.1 L 605.3,315.8 L 608.1,316.6 L 610.9,317.3 L 613.7,320.0 L 616.6,324.8 L 619.4,329.6 L 622.2,334.4 L 625.0,339.2 L 627.8,344.1 L 630.7,348.9 L 633.5,353.7 L 636.3,358.5 L 639.1,363.3 L 641.9,368.2 L 644.7,373.0 L 647.6,377.8 L 650.4,382.6 L 653.2,387.4 L 656.0,392.2 L 658.8,395.0 L 661.6,395.0 L 664.5,395.0 L 667.3,395.0 L 670.1,395.0 L 672.9,395.0 L 675.7,395.0 L 678.5,395.0 L 681.4,395.0 L 684.2,395.0 L 687.0,395.0" class="rho"/>
<path d="M 86.0,168.3 L 118.1,261.4 L 150.2,305.3 L 182.2,338.4 L 214.3,350.0 L 246.4,358.0 L 271.5,363.1 L 342.5,370.0 L 375.0,375.4 L 406.7,379.1 L 439.1,381.8 L 552.1,387.5" class="phot"/>
<path d="M 86.0,254.8 L 118.1,210.6 L 150.2,202.3 L 182.2,234.1 L 214.3,267.5 L 246.4,269.8 L 271.5,235.8 L 342.5,190.4 L 375.0,168.3 L 406.7,175.5 L 439.1,193.3 L 552.1,209.8" class="mbar"/>
<path d="M 86.0,214.1 L 118.1,190.2 L 150.2,185.0 L 182.2,200.8 L 214.3,218.3 L 246.4,220.0 L 271.5,202.1 L 342.5,178.7 L 375.0,168.3 L 406.7,172.4 L 439.1,180.9 L 552.1,188.6" class="mph"/>
<path d="M 76.2,356.3 L 82.3,340.5 L 88.5,328.5 L 94.7,318.5 L 100.8,309.5 L 107.0,301.5 L 113.2,294.1 L 119.4,287.2 L 125.5,280.8 L 131.7,274.7 L 137.9,268.9 L 144.0,263.4 L 150.2,258.2 L 156.4,253.4 L 162.6,248.7 L 168.7,244.3 L 174.9,240.2 L 181.1,236.2 L 187.2,232.4 L 193.4,228.7 L 199.6,225.3 L 205.7,221.9 L 211.9,218.7 L 218.1,215.6 L 224.3,212.6 L 230.4,209.7 L 236.6,206.9 L 242.8,204.2 L 248.9,201.5 L 255.1,198.9 L 261.3,196.3 L 267.4,193.9 L 273.6,191.4 L 279.8,189.1 L 285.9,186.8 L 292.1,184.6 L 298.3,182.4 L 304.5,180.2 L 310.6,178.2 L 316.8,176.1 L 323.0,174.2 L 329.1,172.2 L 335.3,170.3 L 341.5,168.5 L 347.6,166.7 L 353.8,165.0 L 360.0,163.3 L 366.2,161.6 L 372.3,160.0 L 378.5,158.4 L 384.7,156.9 L 390.8,155.4 L 397.0,153.9 L 403.2,152.5 L 409.3,151.1 L 415.5,149.8 L 421.7,148.5 L 427.9,147.2 L 434.0,145.9 L 440.2,144.7 L 446.4,143.6 L 452.5,142.4 L 458.7,141.3 L 464.9,140.3 L 471.1,139.2 L 477.2,138.2 L 483.4,137.2 L 489.6,136.3 L 495.7,135.4 L 501.9,134.5 L 508.1,133.7 L 514.2,132.8 L 520.4,132.0 L 526.6,131.3 L 532.8,130.6 L 538.9,129.9 L 545.1,129.2 L 551.3,128.5 L 557.4,127.9 L 563.6,127.3 L 569.8,126.8 L 575.9,126.2 L 582.1,125.7 L 588.3,125.3 L 594.4,124.8 L 600.6,124.4 L 606.8,124.0 L 613.0,123.6 L 619.1,123.4 L 625.3,123.5 L 631.5,123.7 L 637.6,124.2 L 643.8,125.0 L 650.0,126.0 L 656.1,127.2 L 662.3,128.6 L 668.5,130.0 L 674.7,131.3 L 680.8,132.7 L 687.0,134.0" class="nt"/>
<path d="M 86.0,358.8 L 118.1,321.5 L 150.2,301.2 L 182.2,285.9 L 214.3,277.4 L 246.4,267.5 L 271.5,258.4 L 342.5,226.8 L 375.0,213.9 L 406.7,203.2 L 439.1,193.7 L 552.1,167.4" class="mond"/>
<path d="M 75.1,385.4 L 80.3,377.3 L 85.4,368.9 L 90.6,360.7 L 95.7,352.7 L 100.8,344.8 L 106.0,336.8 L 111.1,328.8 L 116.3,320.6 L 121.4,312.3 L 126.6,303.9 L 131.7,295.4 L 136.8,286.9 L 142.0,278.5 L 147.1,270.4 L 152.3,262.7 L 157.4,255.4 L 162.6,248.6 L 167.7,242.3 L 172.8,236.4 L 178.0,231.0 L 183.1,226.0 L 188.3,221.4 L 193.4,217.2 L 198.5,213.4 L 203.7,210.0 L 208.8,207.0 L 214.0,204.3 L 219.1,201.9 L 224.3,199.7 L 229.4,197.6 L 234.5,195.6 L 239.7,193.6 L 244.8,191.7 L 250.0,189.7 L 255.1,187.8 L 260.2,185.8 L 265.4,183.9 L 270.5,182.0 L 275.7,180.2 L 280.8,178.4 L 285.9,176.6 L 291.1,174.9 L 296.2,173.2 L 301.4,171.6 L 306.5,170.0 L 311.7,168.5 L 316.8,167.0 L 321.9,165.6 L 327.1,164.3 L 332.2,163.0 L 337.4,161.8 L 342.5,160.6 L 347.7,159.5 L 352.8,158.4 L 357.9,157.4 L 363.1,156.5 L 368.2,155.6 L 373.4,154.8 L 378.5,154.0 L 383.6,153.3 L 388.8,152.7 L 393.9,152.1 L 399.1,151.6 L 404.2,151.1 L 409.3,150.7 L 414.5,150.3 L 419.6,150.0 L 424.8,149.7 L 429.9,149.5 L 435.1,149.3 L 440.2,149.2 L 445.3,149.1 L 450.5,149.1 L 455.6,149.1 L 460.8,149.2 L 465.9,149.3 L 471.1,149.5 L 476.2,149.6 L 481.3,149.9 L 486.5,150.2 L 491.6,150.5 L 496.8,150.8 L 501.9,151.2 L 507.0,151.6 L 512.2,152.0 L 517.3,152.4 L 522.5,152.9 L 527.6,153.3 L 532.8,153.7 L 537.9,154.2 L 543.0,154.6 L 548.2,154.9 L 553.3,155.2 L 558.5,155.4 L 563.6,155.6 L 568.7,155.5 L 573.9,155.3 L 579.0,154.9 L 584.2,154.2 L 589.3,153.1 L 594.5,151.8 L 599.6,150.3 L 604.7,148.8 L 609.9,147.8 L 615.0,147.6 L 620.2,148.7 L 625.3,151.4 L 630.4,155.8 L 635.6,161.5 L 640.7,168.3 L 645.9,175.8 L 651.0,183.5 L 656.1,191.1 L 661.3,198.2 L 666.4,204.9 L 671.6,211.0 L 676.7,216.5 L 681.9,221.5 L 687.0,226.1" class="fw"/>
<line x1="86.03" y1="348.77" x2="86.03" y2="382.70" class="err"/>
<line x1="83.03" y1="348.77" x2="89.03" y2="348.77" class="err"/>
<line x1="83.03" y1="382.70" x2="89.03" y2="382.70" class="err"/>
<circle cx="86.03" cy="365.73" r="2.5" class="obs"/>
<line x1="118.10" y1="295.08" x2="118.10" y2="329.01" class="err"/>
<line x1="115.10" y1="295.08" x2="121.10" y2="295.08" class="err"/>
<line x1="115.10" y1="329.01" x2="121.10" y2="329.01" class="err"/>
<circle cx="118.10" cy="312.04" r="2.5" class="obs"/>
<line x1="150.16" y1="248.66" x2="150.16" y2="282.59" class="err"/>
<line x1="147.16" y1="248.66" x2="153.16" y2="248.66" class="err"/>
<line x1="147.16" y1="282.59" x2="153.16" y2="282.59" class="err"/>
<circle cx="150.16" cy="265.62" r="2.5" class="obs"/>
<line x1="182.23" y1="205.97" x2="182.23" y2="248.47" class="err"/>
<line x1="179.23" y1="205.97" x2="185.23" y2="205.97" class="err"/>
<line x1="179.23" y1="248.47" x2="185.23" y2="248.47" class="err"/>
<circle cx="182.23" cy="227.22" r="2.5" class="obs"/>
<line x1="214.29" y1="180.84" x2="214.29" y2="217.67" class="err"/>
<line x1="211.29" y1="180.84" x2="217.29" y2="180.84" class="err"/>
<line x1="211.29" y1="217.67" x2="217.29" y2="217.67" class="err"/>
<circle cx="214.29" cy="199.25" r="2.5" class="obs"/>
<line x1="246.36" y1="154.14" x2="246.36" y2="214.54" class="err"/>
<line x1="243.36" y1="154.14" x2="249.36" y2="154.14" class="err"/>
<line x1="243.36" y1="214.54" x2="249.36" y2="214.54" class="err"/>
<circle cx="246.36" cy="184.34" r="2.5" class="obs"/>
<line x1="271.50" y1="130.65" x2="271.50" y2="223.12" class="err"/>
<line x1="268.50" y1="130.65" x2="274.50" y2="130.65" class="err"/>
<line x1="268.50" y1="223.12" x2="274.50" y2="223.12" class="err"/>
<circle cx="271.50" cy="176.88" r="2.5" class="obs"/>
<line x1="342.55" y1="146.87" x2="342.55" y2="180.80" class="err"/>
<line x1="339.55" y1="146.87" x2="345.55" y2="146.87" class="err"/>
<line x1="339.55" y1="180.80" x2="345.55" y2="180.80" class="err"/>
<circle cx="342.55" cy="163.83" r="2.5" class="obs"/>
<line x1="374.98" y1="141.28" x2="374.98" y2="175.21" class="err"/>
<line x1="371.98" y1="141.28" x2="377.98" y2="141.28" class="err"/>
<line x1="371.98" y1="175.21" x2="377.98" y2="175.21" class="err"/>
<circle cx="374.98" cy="158.24" r="2.5" class="obs"/>
<line x1="406.68" y1="135.68" x2="406.68" y2="169.61" class="err"/>
<line x1="403.68" y1="135.68" x2="409.68" y2="135.68" class="err"/>
<line x1="403.68" y1="169.61" x2="409.68" y2="169.61" class="err"/>
<circle cx="406.68" cy="152.65" r="2.5" class="obs"/>
<line x1="439.11" y1="130.09" x2="439.11" y2="164.02" class="err"/>
<line x1="436.11" y1="130.09" x2="442.11" y2="130.09" class="err"/>
<line x1="436.11" y1="164.02" x2="442.11" y2="164.02" class="err"/>
<circle cx="439.11" cy="147.06" r="2.5" class="obs"/>
<line x1="552.06" y1="85.91" x2="552.06" y2="174.65" class="err"/>
<line x1="549.06" y1="85.91" x2="555.06" y2="85.91" class="err"/>
<line x1="549.06" y1="174.65" x2="555.06" y2="174.65" class="err"/>
<circle cx="552.06" cy="130.28" r="2.5" class="obs"/>
<g class="legend">
<line x1="82" y1="69" x2="106" y2="69" class="fw"/>
<text x="112" y="73" class="lbl-l">framework: 4.3 km/s, 4.3%, 0.24σ</text>
<line x1="82" y1="87" x2="106" y2="87" class="nt"/>
<text x="112" y="91" class="lbl-l">Newtonian: 8.0 km/s, 33.6%, 0.79σ</text>
<line x1="82" y1="105" x2="106" y2="105" class="mond"/>
<text x="112" y="109" class="lbl-m">MOND/RAR: 30.1 km/s, 28.1%, 2.63σ</text>
<circle cx="94" cy="123" r="2.5" class="obs"/>
<text x="112" y="127" class="lbl">observed V±err</text>
</g>
<g class="legend">
<line x1="472" y1="69" x2="496" y2="69" class="rho"/>
<text x="502" y="73" class="lbl-r">ρ(r) raw</text>
<line x1="472" y1="87" x2="496" y2="87" class="phot"/>
<text x="502" y="91" class="lbl-p">photometric baryonic profile</text>
<line x1="472" y1="105" x2="496" y2="105" class="mbar"/>
<text x="502" y="109" class="lbl-m">MOND baryonic annulus</text>
<line x1="472" y1="123" x2="496" y2="123" class="mph"/>
<text x="502" y="127" class="lbl-m">MOND phantom annulus</text>
<text x="472" y="147" class="lbl-r">ρ peak: 190 M☉/pc²</text>
<text x="472" y="163" class="lbl-p">phot peak: 49.05 (arb.)</text>
<text x="472" y="179" class="lbl-m">Σbar peak: 23.44 M☉/pc²</text>
<text x="472" y="195" class="lbl-m">Σphantom peak: 69.53 M☉/pc²</text>
</g>
<rect x="775" y="55" width="170" height="170" class="preview-bg"/>
<defs><radialGradient id="g_F568_1" cx="0.5" cy="0.5" r="0.5">
  <stop offset="0.0000" stop-color="rgb(88,88,88)"/>
  <stop offset="0.0313" stop-color="rgb(86,86,86)"/>
  <stop offset="0.0625" stop-color="rgb(86,86,86)"/>
  <stop offset="0.0938" stop-color="rgb(86,86,86)"/>
  <stop offset="0.1250" stop-color="rgb(85,85,85)"/>
  <stop offset="0.1563" stop-color="rgb(84,84,84)"/>
  <stop offset="0.1875" stop-color="rgb(82,82,82)"/>
  <stop offset="0.2188" stop-color="rgb(80,80,80)"/>
  <stop offset="0.2500" stop-color="rgb(78,78,78)"/>
  <stop offset="0.2813" stop-color="rgb(77,77,77)"/>
  <stop offset="0.3125" stop-color="rgb(76,76,76)"/>
  <stop offset="0.3438" stop-color="rgb(75,75,75)"/>
  <stop offset="0.3750" stop-color="rgb(74,74,74)"/>
  <stop offset="0.4063" stop-color="rgb(73,73,73)"/>
  <stop offset="0.4375" stop-color="rgb(71,71,71)"/>
  <stop offset="0.4688" stop-color="rgb(70,70,70)"/>
  <stop offset="0.5000" stop-color="rgb(69,69,69)"/>
  <stop offset="0.5313" stop-color="rgb(68,68,68)"/>
  <stop offset="0.5625" stop-color="rgb(67,67,67)"/>
  <stop offset="0.5938" stop-color="rgb(66,66,66)"/>
  <stop offset="0.6250" stop-color="rgb(65,65,65)"/>
  <stop offset="0.6563" stop-color="rgb(63,63,63)"/>
  <stop offset="0.6875" stop-color="rgb(61,61,61)"/>
  <stop offset="0.7188" stop-color="rgb(58,58,58)"/>
  <stop offset="0.7500" stop-color="rgb(56,56,56)"/>
  <stop offset="0.7813" stop-color="rgb(53,53,53)"/>
  <stop offset="0.8125" stop-color="rgb(50,50,50)"/>
  <stop offset="0.8438" stop-color="rgb(48,48,48)"/>
  <stop offset="0.8750" stop-color="rgb(45,45,45)"/>
  <stop offset="0.9063" stop-color="rgb(43,43,43)"/>
  <stop offset="0.9375" stop-color="rgb(34,34,34)"/>
  <stop offset="0.9688" stop-color="rgb(17,17,17)"/>
  <stop offset="1.0000" stop-color="rgb(0,0,0)"/>
</radialGradient></defs>
<circle cx="860" cy="140" r="81" fill="url(#g_F568_1)"/>
<text x="860" y="49" text-anchor="middle" class="preview-lbl">face-on luminance from ρ(r)</text>
<text x="860" y="239" text-anchor="middle" class="preview-lbl">edge at r = 16.1 kpc</text>
</svg>