<svg xmlns="http://www.w3.org/2000/svg" viewBox="0 0 890 420" width="890" height="420" font-family="sans-serif" font-size="12">
<style>
  .ax { stroke: #333; stroke-width: 1; fill: none; }
  .grid { stroke: #ddd; stroke-width: 0.5; fill: none; }
  .lbl { fill: #333; }
  .lbl-l { fill: #0066cc; }
  .lbl-r { fill: #b03030; }
  .obs { fill: #222; }
  .err { stroke: #555; stroke-width: 0.8; fill: none; }
  .fw { stroke: #0066cc; stroke-width: 2.2; fill: none; }
  .nt { stroke: #cc6600; stroke-width: 1.6; fill: none; stroke-dasharray: 5,3; }
  .lbl-s { fill: #cc7000; }
  .rho { stroke: #b03030; stroke-width: 2.0; fill: none; }
  .sig { stroke: #cc7000; stroke-width: 1.8; fill: none; }
  .title { fill: #111; font-size: 16px; font-weight: 600; }
  .subtitle { fill: #555; font-size: 11px; }
  .preview-bg { fill: #000; }
  .preview-lbl { fill: #888; font-size: 10px; }
  .legend { font-size: 11px; }
</style>
<text x="343.5" y="22" text-anchor="middle" class="title">F568-1</text>
<text x="343.5" y="38" text-anchor="middle" class="subtitle">rMax=13.2 kpc, N=12, RMS=4.3 km/s (4.3%), amp=418</text>
<line x1="70" y1="365.0" x2="617" y2="365.0" class="grid"/>
<text x="64" y="369.0" text-anchor="end" class="lbl-l">0</text>
<line x1="70" y1="303.0" x2="617" y2="303.0" class="grid"/>
<text x="64" y="307.0" text-anchor="end" class="lbl-l">36</text>
<line x1="70" y1="241.0" x2="617" y2="241.0" class="grid"/>
<text x="64" y="245.0" text-anchor="end" class="lbl-l">73</text>
<line x1="70" y1="179.0" x2="617" y2="179.0" class="grid"/>
<text x="64" y="183.0" text-anchor="end" class="lbl-l">109</text>
<line x1="70" y1="117.0" x2="617" y2="117.0" class="grid"/>
<text x="64" y="121.0" text-anchor="end" class="lbl-l">146</text>
<line x1="70" y1="55.0" x2="617" y2="55.0" class="grid"/>
<text x="64" y="59.0" text-anchor="end" class="lbl-l">182</text>
<text x="623" y="369.0" text-anchor="start" class="lbl-r">0.0</text>
<text x="623" y="327.7" text-anchor="start" class="lbl-r">0.2</text>
<text x="623" y="286.3" text-anchor="start" class="lbl-r">0.4</text>
<text x="623" y="245.0" text-anchor="start" class="lbl-r">0.6</text>
<text x="623" y="203.7" text-anchor="start" class="lbl-r">0.8</text>
<text x="623" y="162.3" text-anchor="start" class="lbl-r">1.0</text>
<line x1="70.0" y1="55" x2="70.0" y2="365" class="grid"/>
<text x="70.0" y="381" text-anchor="middle" class="lbl">0.0</text>
<line x1="161.2" y1="55" x2="161.2" y2="365" class="grid"/>
<text x="161.2" y="381" text-anchor="middle" class="lbl">2.8</text>
<line x1="252.3" y1="55" x2="252.3" y2="365" class="grid"/>
<text x="252.3" y="381" text-anchor="middle" class="lbl">5.6</text>
<line x1="343.5" y1="55" x2="343.5" y2="365" class="grid"/>
<text x="343.5" y="381" text-anchor="middle" class="lbl">8.5</text>
<line x1="434.7" y1="55" x2="434.7" y2="365" class="grid"/>
<text x="434.7" y="381" text-anchor="middle" class="lbl">11.3</text>
<line x1="525.8" y1="55" x2="525.8" y2="365" class="grid"/>
<text x="525.8" y="381" text-anchor="middle" class="lbl">14.1</text>
<line x1="617.0" y1="55" x2="617.0" y2="365" class="grid"/>
<text x="617.0" y="381" text-anchor="middle" class="lbl">16.9</text>
<text x="343.5" y="408" text-anchor="middle" class="lbl">radius (kpc)</text>
<text x="16" y="210" text-anchor="middle" class="lbl-l" transform="rotate(-90, 16, 210)">velocity (km/s)</text>
<text x="654" y="210" text-anchor="middle" class="lbl-r" transform="rotate(-90, 654, 210)">mass profile (normalized to peak)</text>
<rect x="70" y="55" width="547" height="310" class="ax"/>
<path d="M 70.0,158.3 L 72.5,159.5 L 75.0,160.7 L 77.5,161.8 L 80.0,163.0 L 82.5,164.2 L 85.0,165.3 L 87.5,165.7 L 90.0,165.9 L 92.5,166.1 L 95.0,166.2 L 97.5,166.4 L 100.0,166.6 L 102.5,166.7 L 105.0,166.9 L 107.5,167.1 L 110.0,167.3 L 112.5,167.4 L 115.0,167.6 L 117.5,167.8 L 120.0,167.9 L 122.5,168.1 L 124.9,168.3 L 127.4,168.4 L 129.9,168.6 L 132.4,168.8 L 134.9,169.9 L 137.4,171.0 L 139.9,172.0 L 142.4,173.1 L 144.9,174.2 L 147.4,175.3 L 149.9,176.4 L 152.4,177.5 L 154.9,178.6 L 157.4,179.7 L 159.9,180.8 L 162.4,181.9 L 164.9,183.0 L 167.4,184.1 L 169.9,185.2 L 172.4,186.3 L 174.9,187.4 L 177.4,188.5 L 179.9,189.5 L 182.4,190.6 L 184.9,191.7 L 187.4,192.8 L 189.9,193.9 L 192.4,195.0 L 194.9,196.1 L 197.4,197.2 L 199.9,198.3 L 202.4,199.4 L 204.9,200.2 L 207.4,200.8 L 209.9,201.5 L 212.4,202.2 L 214.9,202.9 L 217.4,203.6 L 219.9,204.2 L 222.4,204.9 L 224.9,205.6 L 227.4,206.3 L 229.9,207.0 L 232.4,207.6 L 234.8,208.3 L 237.3,209.0 L 239.8,209.7 L 242.3,210.4 L 244.8,211.1 L 247.3,211.7 L 249.8,212.4 L 252.3,213.1 L 254.8,213.8 L 257.3,214.5 L 259.8,215.1 L 262.3,215.8 L 264.8,216.5 L 267.3,217.2 L 269.8,217.9 L 272.3,218.5 L 274.8,219.2 L 277.3,219.9 L 279.8,220.6 L 282.3,221.3 L 284.8,222.0 L 287.3,222.6 L 289.8,223.3 L 292.3,224.0 L 294.8,224.7 L 297.3,225.4 L 299.8,226.0 L 302.3,226.7 L 304.8,227.4 L 307.3,228.1 L 309.8,228.8 L 312.3,229.4 L 314.8,230.1 L 317.3,230.8 L 319.8,231.5 L 322.3,232.2 L 324.8,232.9 L 327.3,233.5 L 329.8,234.2 L 332.3,234.9 L 334.8,235.6 L 337.3,236.3 L 339.8,236.9 L 342.3,237.6 L 344.7,238.3 L 347.2,239.0 L 349.7,239.7 L 352.2,240.3 L 354.7,241.0 L 357.2,241.7 L 359.7,242.4 L 362.2,243.1 L 364.7,243.8 L 367.2,244.4 L 369.7,245.1 L 372.2,245.8 L 374.7,246.5 L 377.2,247.2 L 379.7,247.8 L 382.2,248.5 L 384.7,249.2 L 387.2,249.9 L 389.7,250.6 L 392.2,251.2 L 394.7,251.9 L 397.2,252.6 L 399.7,253.3 L 402.2,254.0 L 404.7,254.7 L 407.2,255.3 L 409.7,256.0 L 412.2,256.7 L 414.7,257.4 L 417.2,258.1 L 419.7,258.7 L 422.2,259.4 L 424.7,260.1 L 427.2,260.8 L 429.7,261.5 L 432.2,262.1 L 434.7,262.8 L 437.2,263.5 L 439.7,264.2 L 442.2,264.9 L 444.7,265.6 L 447.2,266.2 L 449.7,266.9 L 452.2,267.6 L 454.6,268.3 L 457.1,269.0 L 459.6,269.6 L 462.1,270.3 L 464.6,271.0 L 467.1,271.7 L 469.6,272.4 L 472.1,273.0 L 474.6,273.7 L 477.1,274.4 L 479.6,275.1 L 482.1,275.8 L 484.6,276.5 L 487.1,277.1 L 489.6,277.8 L 492.1,278.5 L 494.6,279.2 L 497.1,279.9 L 499.6,280.5 L 502.1,281.2 L 504.6,281.9 L 507.1,282.6 L 509.6,283.3 L 512.1,283.9 L 514.6,284.6 L 517.1,285.3 L 519.6,286.0 L 522.1,286.7 L 524.6,287.4 L 527.1,288.0 L 529.6,288.7 L 532.1,289.4 L 534.6,290.1 L 537.1,290.8 L 539.6,291.4 L 542.1,292.1 L 544.6,292.8 L 547.1,293.5 L 549.6,294.2 L 552.1,296.6 L 554.6,301.0 L 557.1,305.4 L 559.6,309.8 L 562.1,314.2 L 564.5,318.6 L 567.0,323.0 L 569.5,327.3 L 572.0,331.7 L 574.5,336.1 L 577.0,340.5 L 579.5,344.9 L 582.0,349.3 L 584.5,353.7 L 587.0,358.1 L 589.5,362.5 L 592.0,365.0 L 594.5,365.0 L 597.0,365.0 L 599.5,365.0 L 602.0,365.0 L 604.5,365.0 L 607.0,365.0 L 609.5,365.0 L 612.0,365.0 L 614.5,365.0 L 617.0,365.0" class="rho"/>
<path d="M 70.0,158.3 L 72.5,158.4 L 75.0,158.5 L 77.5,158.6 L 80.0,158.7 L 82.5,158.9 L 85.0,159.2 L 87.5,159.5 L 90.0,159.8 L 92.5,160.1 L 95.0,160.5 L 97.5,160.9 L 100.0,161.4 L 102.5,161.9 L 105.0,162.4 L 107.5,163.0 L 110.0,163.6 L 112.5,164.2 L 115.0,164.9 L 117.5,165.7 L 120.0,166.4 L 122.5,167.2 L 124.9,168.1 L 127.4,169.0 L 129.9,169.9 L 132.4,170.9 L 134.9,171.9 L 137.4,173.0 L 139.9,174.0 L 142.4,175.2 L 144.9,176.3 L 147.4,177.5 L 149.9,178.7 L 152.4,180.0 L 154.9,181.2 L 157.4,182.5 L 159.9,183.8 L 162.4,185.2 L 164.9,186.5 L 167.4,187.8 L 169.9,189.2 L 172.4,190.6 L 174.9,191.9 L 177.4,193.3 L 179.9,194.7 L 182.4,196.1 L 184.9,197.5 L 187.4,198.8 L 189.9,200.2 L 192.4,201.6 L 194.9,203.0 L 197.4,204.3 L 199.9,205.7 L 202.4,207.1 L 204.9,208.4 L 207.4,209.7 L 209.9,211.1 L 212.4,212.4 L 214.9,213.7 L 217.4,215.0 L 219.9,216.3 L 222.4,217.6 L 224.9,218.9 L 227.4,220.1 L 229.9,221.4 L 232.4,222.7 L 234.8,223.9 L 237.3,225.1 L 239.8,226.4 L 242.3,227.6 L 244.8,228.9 L 247.3,230.1 L 249.8,231.3 L 252.3,232.5 L 254.8,233.7 L 257.3,234.9 L 259.8,236.1 L 262.3,237.3 L 264.8,238.5 L 267.3,239.7 L 269.8,240.9 L 272.3,242.0 L 274.8,243.2 L 277.3,244.4 L 279.8,245.5 L 282.3,246.7 L 284.8,247.8 L 287.3,248.9 L 289.8,250.1 L 292.3,251.2 L 294.8,252.3 L 297.3,253.5 L 299.8,254.6 L 302.3,255.7 L 304.8,256.8 L 307.3,257.9 L 309.8,259.0 L 312.3,260.1 L 314.8,261.2 L 317.3,262.2 L 319.8,263.3 L 322.3,264.4 L 324.8,265.4 L 327.3,266.5 L 329.8,267.5 L 332.3,268.6 L 334.8,269.6 L 337.3,270.7 L 339.8,271.7 L 342.3,272.7 L 344.7,273.7 L 347.2,274.7 L 349.7,275.7 L 352.2,276.7 L 354.7,277.7 L 357.2,278.7 L 359.7,279.7 L 362.2,280.7 L 364.7,281.6 L 367.2,282.6 L 369.7,283.5 L 372.2,284.5 L 374.7,285.4 L 377.2,286.4 L 379.7,287.3 L 382.2,288.2 L 384.7,289.1 L 387.2,290.0 L 389.7,290.9 L 392.2,291.8 L 394.7,292.7 L 397.2,293.6 L 399.7,294.5 L 402.2,295.4 L 404.7,296.2 L 407.2,297.1 L 409.7,298.0 L 412.2,298.8 L 414.7,299.6 L 417.2,300.5 L 419.7,301.3 L 422.2,302.1 L 424.7,303.0 L 427.2,303.8 L 429.7,304.6 L 432.2,305.4 L 434.7,306.2 L 437.2,306.9 L 439.7,307.7 L 442.2,308.5 L 444.7,309.3 L 447.2,310.0 L 449.7,310.8 L 452.2,311.5 L 454.6,312.3 L 457.1,313.0 L 459.6,313.7 L 462.1,314.4 L 464.6,315.2 L 467.1,315.9 L 469.6,316.6 L 472.1,317.3 L 474.6,318.0 L 477.1,318.7 L 479.6,319.3 L 482.1,320.0 L 484.6,320.7 L 487.1,321.4 L 489.6,322.0 L 492.1,322.7 L 494.6,323.3 L 497.1,324.0 L 499.6,324.6 L 502.1,325.2 L 504.6,325.9 L 507.1,326.5 L 509.6,327.1 L 512.1,327.8 L 514.6,328.4 L 517.1,329.0 L 519.6,329.6 L 522.1,330.2 L 524.6,330.8 L 527.1,331.4 L 529.6,332.0 L 532.1,332.6 L 534.6,333.3 L 537.1,333.9 L 539.6,334.5 L 542.1,335.1 L 544.6,335.7 L 547.1,336.3 L 549.6,336.9 L 552.1,337.5 L 554.6,338.1 L 557.1,338.7 L 559.6,339.3 L 562.1,339.9 L 564.5,340.5 L 567.0,341.0 L 569.5,341.6 L 572.0,342.1 L 574.5,342.6 L 577.0,343.1 L 579.5,343.6 L 582.0,344.0 L 584.5,344.4 L 587.0,344.9 L 589.5,345.2 L 592.0,345.6 L 594.5,346.0 L 597.0,346.3 L 599.5,346.7 L 602.0,347.0 L 604.5,347.3 L 607.0,347.6 L 609.5,347.8 L 612.0,348.1 L 614.5,348.4 L 617.0,348.6" class="sig"/>
<path d="M 75.5,329.7 L 80.9,315.3 L 86.4,304.4 L 91.9,295.2 L 97.3,287.1 L 102.8,279.8 L 108.3,273.0 L 113.8,266.7 L 119.2,260.9 L 124.7,255.3 L 130.2,250.0 L 135.6,245.0 L 141.1,240.3 L 146.6,235.8 L 152.1,231.6 L 157.5,227.6 L 163.0,223.8 L 168.5,220.2 L 173.9,216.7 L 179.4,213.4 L 184.9,210.2 L 190.3,207.2 L 195.8,204.3 L 201.3,201.4 L 206.8,198.7 L 212.2,196.1 L 217.7,193.5 L 223.2,191.0 L 228.6,188.6 L 234.1,186.2 L 239.6,183.9 L 245.0,181.6 L 250.5,179.4 L 256.0,177.3 L 261.4,175.2 L 266.9,173.1 L 272.4,171.1 L 277.9,169.2 L 283.3,167.3 L 288.8,165.4 L 294.3,163.6 L 299.7,161.9 L 305.2,160.2 L 310.7,158.5 L 316.1,156.9 L 321.6,155.3 L 327.1,153.7 L 332.6,152.2 L 338.0,150.7 L 343.5,149.3 L 349.0,147.9 L 354.4,146.5 L 359.9,145.2 L 365.4,143.9 L 370.8,142.6 L 376.3,141.4 L 381.8,140.2 L 387.3,139.0 L 392.7,137.9 L 398.2,136.8 L 403.7,135.8 L 409.1,134.7 L 414.6,133.7 L 420.1,132.7 L 425.6,131.8 L 431.0,130.9 L 436.5,130.0 L 442.0,129.1 L 447.4,128.3 L 452.9,127.5 L 458.4,126.7 L 463.8,126.0 L 469.3,125.2 L 474.8,124.6 L 480.3,123.9 L 485.7,123.2 L 491.2,122.6 L 496.7,122.0 L 502.1,121.5 L 507.6,121.0 L 513.1,120.4 L 518.5,120.0 L 524.0,119.5 L 529.5,119.1 L 535.0,118.7 L 540.4,118.3 L 545.9,117.9 L 551.4,117.6 L 556.8,117.4 L 562.3,117.4 L 567.8,117.7 L 573.2,118.1 L 578.7,118.8 L 584.2,119.7 L 589.6,120.8 L 595.1,122.1 L 600.6,123.4 L 606.1,124.6 L 611.5,125.8 L 617.0,127.0" class="nt"/>
<path d="M 74.6,356.2 L 79.1,348.8 L 83.7,341.2 L 88.2,333.8 L 92.8,326.5 L 97.3,319.2 L 101.9,312.0 L 106.5,304.6 L 111.0,297.2 L 115.6,289.6 L 120.1,282.0 L 124.7,274.2 L 129.3,266.5 L 133.8,258.8 L 138.4,251.4 L 142.9,244.4 L 147.5,237.7 L 152.1,231.5 L 156.6,225.8 L 161.2,220.4 L 165.7,215.5 L 170.3,210.9 L 174.8,206.7 L 179.4,202.9 L 184.0,199.4 L 188.5,196.3 L 193.1,193.6 L 197.6,191.1 L 202.2,188.9 L 206.8,186.9 L 211.3,185.0 L 215.9,183.2 L 220.4,181.4 L 225.0,179.6 L 229.5,177.8 L 234.1,176.1 L 238.7,174.3 L 243.2,172.5 L 247.8,170.8 L 252.3,169.1 L 256.9,167.5 L 261.4,165.9 L 266.0,164.3 L 270.6,162.8 L 275.1,161.3 L 279.7,159.9 L 284.2,158.5 L 288.8,157.1 L 293.4,155.9 L 297.9,154.6 L 302.5,153.5 L 307.0,152.3 L 311.6,151.3 L 316.1,150.3 L 320.7,149.3 L 325.3,148.4 L 329.8,147.6 L 334.4,146.8 L 338.9,146.0 L 343.5,145.3 L 348.1,144.7 L 352.6,144.1 L 357.2,143.5 L 361.7,143.0 L 366.3,142.6 L 370.8,142.2 L 375.4,141.9 L 380.0,141.6 L 384.5,141.3 L 389.1,141.1 L 393.6,141.0 L 398.2,140.9 L 402.8,140.8 L 407.3,140.8 L 411.9,140.8 L 416.4,140.9 L 421.0,141.0 L 425.6,141.1 L 430.1,141.3 L 434.7,141.5 L 439.2,141.8 L 443.8,142.0 L 448.3,142.4 L 452.9,142.7 L 457.5,143.0 L 462.0,143.4 L 466.6,143.8 L 471.1,144.2 L 475.7,144.6 L 480.3,145.0 L 484.8,145.4 L 489.4,145.8 L 493.9,146.1 L 498.5,146.4 L 503.0,146.6 L 507.6,146.7 L 512.2,146.7 L 516.7,146.5 L 521.3,146.0 L 525.8,145.4 L 530.4,144.5 L 535.0,143.3 L 539.5,141.9 L 544.1,140.5 L 548.6,139.6 L 553.2,139.4 L 557.7,140.4 L 562.3,142.9 L 566.9,146.9 L 571.4,152.1 L 576.0,158.3 L 580.5,165.2 L 585.1,172.2 L 589.6,179.1 L 594.2,185.6 L 598.8,191.6 L 603.3,197.2 L 607.9,202.3 L 612.4,206.9 L 617.0,211.0" class="fw"/>
<line x1="84.21" y1="322.85" x2="84.21" y2="353.78" class="err"/>
<line x1="81.21" y1="322.85" x2="87.21" y2="322.85" class="err"/>
<line x1="81.21" y1="353.78" x2="87.21" y2="353.78" class="err"/>
<circle cx="84.21" cy="338.31" r="2.5" class="obs"/>
<line x1="112.64" y1="273.89" x2="112.64" y2="304.83" class="err"/>
<line x1="109.64" y1="273.89" x2="115.64" y2="273.89" class="err"/>
<line x1="109.64" y1="304.83" x2="115.64" y2="304.83" class="err"/>
<circle cx="112.64" cy="289.36" r="2.5" class="obs"/>
<line x1="141.07" y1="231.57" x2="141.07" y2="262.51" class="err"/>
<line x1="138.07" y1="231.57" x2="144.07" y2="231.57" class="err"/>
<line x1="138.07" y1="262.51" x2="144.07" y2="262.51" class="err"/>
<circle cx="141.07" cy="247.04" r="2.5" class="obs"/>
<line x1="169.49" y1="192.65" x2="169.49" y2="231.40" class="err"/>
<line x1="166.49" y1="192.65" x2="172.49" y2="192.65" class="err"/>
<line x1="166.49" y1="231.40" x2="172.49" y2="231.40" class="err"/>
<circle cx="169.49" cy="212.02" r="2.5" class="obs"/>
<line x1="197.92" y1="169.73" x2="197.92" y2="203.32" class="err"/>
<line x1="194.92" y1="169.73" x2="200.92" y2="169.73" class="err"/>
<line x1="194.92" y1="203.32" x2="200.92" y2="203.32" class="err"/>
<circle cx="197.92" cy="186.53" r="2.5" class="obs"/>
<line x1="226.35" y1="145.39" x2="226.35" y2="200.46" class="err"/>
<line x1="223.35" y1="145.39" x2="229.35" y2="145.39" class="err"/>
<line x1="223.35" y1="200.46" x2="229.35" y2="200.46" class="err"/>
<circle cx="226.35" cy="172.93" r="2.5" class="obs"/>
<line x1="248.64" y1="123.98" x2="248.64" y2="208.28" class="err"/>
<line x1="245.64" y1="123.98" x2="251.64" y2="123.98" class="err"/>
<line x1="245.64" y1="208.28" x2="251.64" y2="208.28" class="err"/>
<circle cx="248.64" cy="166.13" r="2.5" class="obs"/>
<line x1="311.63" y1="138.76" x2="311.63" y2="169.70" class="err"/>
<line x1="308.63" y1="138.76" x2="314.63" y2="138.76" class="err"/>
<line x1="308.63" y1="169.70" x2="314.63" y2="169.70" class="err"/>
<circle cx="311.63" cy="154.23" r="2.5" class="obs"/>
<line x1="340.38" y1="133.66" x2="340.38" y2="164.60" class="err"/>
<line x1="337.38" y1="133.66" x2="343.38" y2="133.66" class="err"/>
<line x1="337.38" y1="164.60" x2="343.38" y2="164.60" class="err"/>
<circle cx="340.38" cy="149.13" r="2.5" class="obs"/>
<line x1="368.48" y1="128.57" x2="368.48" y2="159.50" class="err"/>
<line x1="365.48" y1="128.57" x2="371.48" y2="128.57" class="err"/>
<line x1="365.48" y1="159.50" x2="371.48" y2="159.50" class="err"/>
<circle cx="368.48" cy="144.03" r="2.5" class="obs"/>
<line x1="397.23" y1="123.47" x2="397.23" y2="154.40" class="err"/>
<line x1="394.23" y1="123.47" x2="400.23" y2="123.47" class="err"/>
<line x1="394.23" y1="154.40" x2="400.23" y2="154.40" class="err"/>
<circle cx="397.23" cy="138.93" r="2.5" class="obs"/>
<line x1="497.37" y1="83.18" x2="497.37" y2="164.09" class="err"/>
<line x1="494.37" y1="83.18" x2="500.37" y2="83.18" class="err"/>
<line x1="494.37" y1="164.09" x2="500.37" y2="164.09" class="err"/>
<circle cx="497.37" cy="123.64" r="2.5" class="obs"/>
<g class="legend">
<line x1="82" y1="69" x2="106" y2="69" class="fw"/>
<text x="112" y="73" class="lbl-l">framework fit</text>
<line x1="82" y1="87" x2="106" y2="87" class="nt"/>
<text x="112" y="91" class="lbl-l">Newtonian (no halo)</text>
<circle cx="94" cy="105" r="2.5" class="obs"/>
<text x="112" y="109" class="lbl">observed V±err</text>
</g>
<g class="legend">
<line x1="442" y1="69" x2="466" y2="69" class="rho"/>
<text x="472" y="73" class="lbl-r">ρ(r) raw</text>
<line x1="442" y1="87" x2="466" y2="87" class="sig"/>
<text x="472" y="91" class="lbl-s">Σ(r) cumulative</text>
<text x="442" y="113" class="lbl-r">ρ peak: 190 M☉/pc²</text>
</g>
<rect x="705" y="55" width="170" height="170" class="preview-bg"/>
<defs><radialGradient id="g_F568_1" cx="0.5" cy="0.5" r="0.5">
  <stop offset="0.0000" stop-color="rgb(88,88,88)"/>
  <stop offset="0.0313" stop-color="rgb(86,86,86)"/>
  <stop offset="0.0625" stop-color="rgb(86,86,86)"/>
  <stop offset="0.0938" stop-color="rgb(86,86,86)"/>
  <stop offset="0.1250" stop-color="rgb(85,85,85)"/>
  <stop offset="0.1563" stop-color="rgb(84,84,84)"/>
  <stop offset="0.1875" stop-color="rgb(82,82,82)"/>
  <stop offset="0.2188" stop-color="rgb(80,80,80)"/>
  <stop offset="0.2500" stop-color="rgb(78,78,78)"/>
  <stop offset="0.2813" stop-color="rgb(77,77,77)"/>
  <stop offset="0.3125" stop-color="rgb(76,76,76)"/>
  <stop offset="0.3438" stop-color="rgb(75,75,75)"/>
  <stop offset="0.3750" stop-color="rgb(74,74,74)"/>
  <stop offset="0.4063" stop-color="rgb(73,73,73)"/>
  <stop offset="0.4375" stop-color="rgb(71,71,71)"/>
  <stop offset="0.4688" stop-color="rgb(70,70,70)"/>
  <stop offset="0.5000" stop-color="rgb(69,69,69)"/>
  <stop offset="0.5313" stop-color="rgb(68,68,68)"/>
  <stop offset="0.5625" stop-color="rgb(67,67,67)"/>
  <stop offset="0.5938" stop-color="rgb(66,66,66)"/>
  <stop offset="0.6250" stop-color="rgb(65,65,65)"/>
  <stop offset="0.6563" stop-color="rgb(63,63,63)"/>
  <stop offset="0.6875" stop-color="rgb(61,61,61)"/>
  <stop offset="0.7188" stop-color="rgb(58,58,58)"/>
  <stop offset="0.7500" stop-color="rgb(56,56,56)"/>
  <stop offset="0.7813" stop-color="rgb(53,53,53)"/>
  <stop offset="0.8125" stop-color="rgb(50,50,50)"/>
  <stop offset="0.8438" stop-color="rgb(48,48,48)"/>
  <stop offset="0.8750" stop-color="rgb(45,45,45)"/>
  <stop offset="0.9063" stop-color="rgb(43,43,43)"/>
  <stop offset="0.9375" stop-color="rgb(34,34,34)"/>
  <stop offset="0.9688" stop-color="rgb(17,17,17)"/>
  <stop offset="1.0000" stop-color="rgb(0,0,0)"/>
</radialGradient></defs>
<circle cx="790" cy="140" r="81" fill="url(#g_F568_1)"/>
<text x="790" y="49" text-anchor="middle" class="preview-lbl">face-on luminance from ρ(r)</text>
<text x="790" y="239" text-anchor="middle" class="preview-lbl">edge at r = 16.1 kpc</text>
</svg>