<svg xmlns="http://www.w3.org/2000/svg" viewBox="0 0 720 420" width="720" height="420" font-family="sans-serif" font-size="12">
<style>
  .ax { stroke: #333; stroke-width: 1; fill: none; }
  .grid { stroke: #ddd; stroke-width: 0.5; fill: none; }
  .lbl { fill: #333; }
  .lbl-l { fill: #0066cc; }
  .lbl-r { fill: #b03030; }
  .obs { fill: #222; }
  .err { stroke: #555; stroke-width: 0.8; fill: none; }
  .fw { stroke: #0066cc; stroke-width: 2.2; fill: none; }
  .nt { stroke: #cc6600; stroke-width: 1.6; fill: none; stroke-dasharray: 5,3; }
  .rho { stroke: #b03030; stroke-width: 2.0; fill: none; }
  .sig { stroke: #b03030; stroke-width: 1.6; fill: none; stroke-dasharray: 4,2; opacity: 0.85; }
  .title { fill: #111; font-size: 16px; font-weight: 600; }
  .subtitle { fill: #555; font-size: 11px; }
  .legend { font-size: 11px; }
</style>
<text x="360.0" y="22" text-anchor="middle" class="title">F568-V1</text>
<text x="360.0" y="38" text-anchor="middle" class="subtitle">rMax=17.6 kpc, N=15, RMS=0.9 km/s (0.9%), amp=105</text>
<line x1="70" y1="365.0" x2="635" y2="365.0" class="grid"/>
<text x="64" y="369.0" text-anchor="end" class="lbl-l">0</text>
<line x1="70" y1="303.0" x2="635" y2="303.0" class="grid"/>
<text x="64" y="307.0" text-anchor="end" class="lbl-l">31</text>
<line x1="70" y1="241.00000000000003" x2="635" y2="241.00000000000003" class="grid"/>
<text x="64" y="245.00000000000003" text-anchor="end" class="lbl-l">61</text>
<line x1="70" y1="179.0" x2="635" y2="179.0" class="grid"/>
<text x="64" y="183.0" text-anchor="end" class="lbl-l">92</text>
<line x1="70" y1="117.00000000000003" x2="635" y2="117.00000000000003" class="grid"/>
<text x="64" y="121.00000000000003" text-anchor="end" class="lbl-l">122</text>
<line x1="70" y1="55.0" x2="635" y2="55.0" class="grid"/>
<text x="64" y="59.0" text-anchor="end" class="lbl-l">153</text>
<text x="641" y="369.0" text-anchor="start" class="lbl-r">0.0</text>
<text x="641" y="327.6666666666667" text-anchor="start" class="lbl-r">0.2</text>
<text x="641" y="286.33333333333337" text-anchor="start" class="lbl-r">0.4</text>
<text x="641" y="245.00000000000003" text-anchor="start" class="lbl-r">0.6</text>
<text x="641" y="203.66666666666666" text-anchor="start" class="lbl-r">0.8</text>
<text x="641" y="162.33333333333334" text-anchor="start" class="lbl-r">1.0</text>
<line x1="70.0" y1="55" x2="70.0" y2="365" class="grid"/>
<text x="70.0" y="381" text-anchor="middle" class="lbl">0.0</text>
<line x1="164.16666666666666" y1="55" x2="164.16666666666666" y2="365" class="grid"/>
<text x="164.16666666666666" y="381" text-anchor="middle" class="lbl">3.0</text>
<line x1="258.3333333333333" y1="55" x2="258.3333333333333" y2="365" class="grid"/>
<text x="258.3333333333333" y="381" text-anchor="middle" class="lbl">6.1</text>
<line x1="352.5" y1="55" x2="352.5" y2="365" class="grid"/>
<text x="352.5" y="381" text-anchor="middle" class="lbl">9.1</text>
<line x1="446.66666666666663" y1="55" x2="446.66666666666663" y2="365" class="grid"/>
<text x="446.66666666666663" y="381" text-anchor="middle" class="lbl">12.1</text>
<line x1="540.8333333333334" y1="55" x2="540.8333333333334" y2="365" class="grid"/>
<text x="540.8333333333334" y="381" text-anchor="middle" class="lbl">15.1</text>
<line x1="635.0" y1="55" x2="635.0" y2="365" class="grid"/>
<text x="635.0" y="381" text-anchor="middle" class="lbl">18.2</text>
<text x="352.5" y="408" text-anchor="middle" class="lbl">radius (kpc)</text>
<text x="16" y="210.0" text-anchor="middle" class="lbl-l" transform="rotate(-90, 16, 210.0)">velocity (km/s)</text>
<text x="704" y="210.0" text-anchor="middle" class="lbl-r" transform="rotate(-90, 704, 210.0)">mass profile (normalized to peak)</text>
<rect x="70" y="55" width="565" height="310" class="ax"/>
<path d="M 70.0,158.3 L 72.6,160.2 L 75.2,162.1 L 77.7,164.0 L 80.3,165.9 L 82.9,167.8 L 85.5,169.7 L 88.1,171.6 L 90.6,173.5 L 93.2,175.4 L 95.8,177.3 L 98.4,179.2 L 101.0,181.1 L 103.5,183.0 L 106.1,184.9 L 108.7,186.8 L 111.3,188.6 L 113.9,190.5 L 116.4,192.4 L 119.0,194.3 L 121.6,196.2 L 124.2,198.1 L 126.8,199.9 L 129.3,201.8 L 131.9,203.7 L 134.5,205.6 L 137.1,207.4 L 139.7,209.3 L 142.2,211.2 L 144.8,213.1 L 147.4,214.9 L 150.0,216.8 L 152.6,218.7 L 155.1,220.6 L 157.7,222.5 L 160.3,224.3 L 162.9,226.2 L 165.5,228.1 L 168.0,230.0 L 170.6,231.8 L 173.2,232.8 L 175.8,233.7 L 178.4,234.6 L 180.9,235.5 L 183.5,236.5 L 186.1,237.4 L 188.7,238.3 L 191.3,239.3 L 193.8,240.2 L 196.4,241.1 L 199.0,242.1 L 201.6,243.0 L 204.2,243.9 L 206.7,244.9 L 209.3,245.8 L 211.9,246.7 L 214.5,247.6 L 217.1,248.6 L 219.6,249.5 L 222.2,250.4 L 224.8,251.4 L 227.4,252.3 L 230.0,253.2 L 232.5,254.2 L 235.1,255.1 L 237.7,256.0 L 240.3,257.0 L 242.9,257.9 L 245.4,258.8 L 248.0,259.8 L 250.6,260.7 L 253.2,261.6 L 255.8,262.5 L 258.3,263.5 L 260.9,264.4 L 263.5,265.3 L 266.1,266.3 L 268.7,267.2 L 271.2,268.1 L 273.8,269.1 L 276.4,270.0 L 279.0,270.9 L 281.6,271.9 L 284.1,272.8 L 286.7,273.7 L 289.3,274.7 L 291.9,275.6 L 294.5,276.0 L 297.0,276.4 L 299.6,276.7 L 302.2,277.0 L 304.8,277.3 L 307.4,277.6 L 309.9,277.9 L 312.5,278.2 L 315.1,278.6 L 317.7,278.9 L 320.3,279.2 L 322.8,279.5 L 325.4,279.8 L 328.0,280.1 L 330.6,280.5 L 333.2,280.8 L 335.7,281.1 L 338.3,281.4 L 340.9,281.7 L 343.5,282.0 L 346.1,282.4 L 348.6,282.7 L 351.2,283.0 L 353.8,283.3 L 356.4,283.6 L 358.9,283.9 L 361.5,284.3 L 364.1,284.6 L 366.7,284.9 L 369.3,285.2 L 371.8,285.5 L 374.4,285.8 L 377.0,286.2 L 379.6,286.5 L 382.2,286.8 L 384.7,287.1 L 387.3,287.4 L 389.9,287.7 L 392.5,288.0 L 395.1,288.4 L 397.6,288.7 L 400.2,289.0 L 402.8,289.3 L 405.4,289.6 L 408.0,289.9 L 410.5,290.3 L 413.1,290.6 L 415.7,290.9 L 418.3,291.2 L 420.9,291.5 L 423.4,291.8 L 426.0,292.2 L 428.6,292.5 L 431.2,292.8 L 433.8,293.1 L 436.3,293.4 L 438.9,293.7 L 441.5,294.1 L 444.1,294.4 L 446.7,294.7 L 449.2,295.0 L 451.8,295.3 L 454.4,295.6 L 457.0,295.9 L 459.6,296.3 L 462.1,296.6 L 464.7,296.9 L 467.3,297.2 L 469.9,297.5 L 472.5,297.8 L 475.0,298.2 L 477.6,298.5 L 480.2,298.8 L 482.8,299.1 L 485.4,299.4 L 487.9,299.7 L 490.5,300.1 L 493.1,300.4 L 495.7,300.7 L 498.3,301.0 L 500.8,301.3 L 503.4,301.6 L 506.0,302.0 L 508.6,302.3 L 511.2,302.6 L 513.7,302.9 L 516.3,303.2 L 518.9,303.5 L 521.5,303.8 L 524.1,304.2 L 526.6,304.5 L 529.2,304.8 L 531.8,305.1 L 534.4,305.4 L 537.0,305.7 L 539.5,306.1 L 542.1,306.4 L 544.7,306.7 L 547.3,307.0 L 549.9,307.3 L 552.4,307.6 L 555.0,308.0 L 557.6,308.3 L 560.2,308.6 L 562.8,308.9 L 565.3,309.2 L 567.9,309.5 L 570.5,309.9 L 573.1,310.2 L 575.7,310.5 L 578.2,310.8 L 580.8,311.1 L 583.4,311.4 L 586.0,311.8 L 588.6,312.1 L 591.1,312.4 L 593.7,312.7 L 596.3,313.0 L 598.9,322.9 L 601.5,334.7 L 604.0,346.5 L 606.6,358.3 L 609.2,365.0 L 611.8,365.0 L 614.4,365.0 L 616.9,365.0 L 619.5,365.0 L 622.1,365.0 L 624.7,365.0 L 627.3,365.0 L 629.8,365.0 L 632.4,365.0 L 635.0,365.0" class="rho"/>
<path d="M 70.0,158.3 L 72.6,158.4 L 75.2,158.6 L 77.7,158.8 L 80.3,159.1 L 82.9,159.5 L 85.5,160.0 L 88.1,160.5 L 90.6,161.2 L 93.2,161.9 L 95.8,162.6 L 98.4,163.4 L 101.0,164.3 L 103.5,165.3 L 106.1,166.3 L 108.7,167.3 L 111.3,168.4 L 113.9,169.5 L 116.4,170.7 L 119.0,171.9 L 121.6,173.2 L 124.2,174.4 L 126.8,175.7 L 129.3,177.1 L 131.9,178.4 L 134.5,179.8 L 137.1,181.2 L 139.7,182.6 L 142.2,184.0 L 144.8,185.4 L 147.4,186.9 L 150.0,188.3 L 152.6,189.8 L 155.1,191.2 L 157.7,192.7 L 160.3,194.1 L 162.9,195.6 L 165.5,197.0 L 168.0,198.5 L 170.6,199.9 L 173.2,201.3 L 175.8,202.8 L 178.4,204.2 L 180.9,205.6 L 183.5,207.0 L 186.1,208.4 L 188.7,209.8 L 191.3,211.2 L 193.8,212.5 L 196.4,213.9 L 199.0,215.2 L 201.6,216.6 L 204.2,217.9 L 206.7,219.3 L 209.3,220.6 L 211.9,221.9 L 214.5,223.2 L 217.1,224.5 L 219.6,225.8 L 222.2,227.1 L 224.8,228.4 L 227.4,229.7 L 230.0,230.9 L 232.5,232.2 L 235.1,233.4 L 237.7,234.7 L 240.3,235.9 L 242.9,237.1 L 245.4,238.3 L 248.0,239.5 L 250.6,240.7 L 253.2,241.9 L 255.8,243.1 L 258.3,244.3 L 260.9,245.4 L 263.5,246.5 L 266.1,247.7 L 268.7,248.8 L 271.2,249.9 L 273.8,251.0 L 276.4,252.1 L 279.0,253.1 L 281.6,254.2 L 284.1,255.2 L 286.7,256.3 L 289.3,257.3 L 291.9,258.3 L 294.5,259.2 L 297.0,260.2 L 299.6,261.2 L 302.2,262.1 L 304.8,263.0 L 307.4,264.0 L 309.9,264.9 L 312.5,265.8 L 315.1,266.6 L 317.7,267.5 L 320.3,268.4 L 322.8,269.2 L 325.4,270.1 L 328.0,270.9 L 330.6,271.7 L 333.2,272.5 L 335.7,273.3 L 338.3,274.1 L 340.9,274.9 L 343.5,275.7 L 346.1,276.4 L 348.6,277.2 L 351.2,278.0 L 353.8,278.7 L 356.4,279.5 L 358.9,280.2 L 361.5,280.9 L 364.1,281.6 L 366.7,282.4 L 369.3,283.1 L 371.8,283.8 L 374.4,284.5 L 377.0,285.2 L 379.6,285.9 L 382.2,286.6 L 384.7,287.2 L 387.3,287.9 L 389.9,288.6 L 392.5,289.2 L 395.1,289.9 L 397.6,290.6 L 400.2,291.2 L 402.8,291.9 L 405.4,292.5 L 408.0,293.1 L 410.5,293.8 L 413.1,294.4 L 415.7,295.0 L 418.3,295.7 L 420.9,296.3 L 423.4,296.9 L 426.0,297.5 L 428.6,298.1 L 431.2,298.7 L 433.8,299.3 L 436.3,299.9 L 438.9,300.5 L 441.5,301.1 L 444.1,301.7 L 446.7,302.3 L 449.2,302.9 L 451.8,303.4 L 454.4,304.0 L 457.0,304.6 L 459.6,305.1 L 462.1,305.7 L 464.7,306.3 L 467.3,306.8 L 469.9,307.4 L 472.5,307.9 L 475.0,308.5 L 477.6,309.1 L 480.2,309.6 L 482.8,310.1 L 485.4,310.7 L 487.9,311.2 L 490.5,311.8 L 493.1,312.3 L 495.7,312.8 L 498.3,313.4 L 500.8,313.9 L 503.4,314.4 L 506.0,314.9 L 508.6,315.5 L 511.2,316.0 L 513.7,316.5 L 516.3,317.0 L 518.9,317.6 L 521.5,318.1 L 524.1,318.6 L 526.6,319.1 L 529.2,319.6 L 531.8,320.1 L 534.4,320.6 L 537.0,321.2 L 539.5,321.7 L 542.1,322.2 L 544.7,322.7 L 547.3,323.2 L 549.9,323.7 L 552.4,324.2 L 555.0,324.7 L 557.6,325.2 L 560.2,325.8 L 562.8,326.3 L 565.3,326.8 L 567.9,327.3 L 570.5,327.8 L 573.1,328.4 L 575.7,328.9 L 578.2,329.4 L 580.8,329.9 L 583.4,330.5 L 586.0,331.0 L 588.6,331.6 L 591.1,332.1 L 593.7,332.6 L 596.3,333.2 L 598.9,333.7 L 601.5,334.2 L 604.0,334.7 L 606.6,335.2 L 609.2,335.7 L 611.8,336.2 L 614.4,336.7 L 616.9,337.2 L 619.5,337.6 L 622.1,338.1 L 624.7,338.5 L 627.3,338.9 L 629.8,339.3 L 632.4,339.7 L 635.0,340.1" class="sig"/>
<path d="M 75.7,316.9 L 81.3,297.5 L 87.0,282.9 L 92.6,270.8 L 98.2,260.4 L 103.9,251.3 L 109.5,243.1 L 115.2,235.6 L 120.8,228.8 L 126.5,222.5 L 132.2,216.7 L 137.8,211.4 L 143.4,206.4 L 149.1,201.7 L 154.8,197.4 L 160.4,193.3 L 166.1,189.5 L 171.7,186.0 L 177.3,182.6 L 183.0,179.3 L 188.6,176.2 L 194.3,173.1 L 200.0,170.2 L 205.6,167.3 L 211.2,164.6 L 216.9,161.9 L 222.5,159.4 L 228.2,156.9 L 233.9,154.6 L 239.5,152.3 L 245.2,150.1 L 250.8,148.0 L 256.5,146.0 L 262.1,144.1 L 267.8,142.2 L 273.4,140.4 L 279.1,138.7 L 284.7,137.1 L 290.4,135.6 L 296.0,134.1 L 301.6,132.6 L 307.3,131.2 L 312.9,129.7 L 318.6,128.3 L 324.2,126.9 L 329.9,125.5 L 335.6,124.1 L 341.2,122.7 L 346.8,121.3 L 352.5,120.0 L 358.1,118.7 L 363.8,117.3 L 369.4,116.0 L 375.1,114.8 L 380.8,113.5 L 386.4,112.3 L 392.0,111.1 L 397.7,109.9 L 403.4,108.7 L 409.0,107.5 L 414.6,106.4 L 420.3,105.2 L 425.9,104.1 L 431.6,103.1 L 437.2,102.0 L 442.9,100.9 L 448.6,99.9 L 454.2,98.9 L 459.8,97.9 L 465.5,96.9 L 471.1,96.0 L 476.8,95.1 L 482.5,94.1 L 488.1,93.2 L 493.8,92.4 L 499.4,91.5 L 505.0,90.7 L 510.7,89.9 L 516.4,89.1 L 522.0,88.3 L 527.7,87.5 L 533.3,86.8 L 539.0,86.0 L 544.6,85.3 L 550.2,84.6 L 555.9,84.0 L 561.6,83.3 L 567.2,82.7 L 572.8,82.1 L 578.5,81.5 L 584.1,80.9 L 589.8,80.3 L 595.5,79.8 L 601.1,79.5 L 606.8,80.3 L 612.4,81.7 L 618.0,83.2 L 623.7,84.7 L 629.4,86.1 L 635.0,87.5" class="nt"/>
<path d="M 74.7,349.5 L 79.4,338.1 L 84.1,325.4 L 88.8,312.9 L 93.5,300.9 L 98.2,289.5 L 103.0,278.6 L 107.7,268.2 L 112.4,258.5 L 117.1,249.2 L 121.8,240.5 L 126.5,232.3 L 131.2,224.6 L 135.9,217.4 L 140.6,210.7 L 145.3,204.6 L 150.0,198.9 L 154.8,193.7 L 159.5,189.1 L 164.2,184.8 L 168.9,181.0 L 173.6,177.4 L 178.3,174.2 L 183.0,171.0 L 187.7,168.1 L 192.4,165.2 L 197.1,162.4 L 201.8,159.7 L 206.5,157.1 L 211.2,154.6 L 216.0,152.2 L 220.7,150.0 L 225.4,147.8 L 230.1,145.8 L 234.8,144.0 L 239.5,142.3 L 244.2,140.8 L 248.9,139.4 L 253.6,138.2 L 258.3,137.2 L 263.0,136.5 L 267.8,135.9 L 272.5,135.6 L 277.2,135.4 L 281.9,135.5 L 286.6,135.8 L 291.3,136.2 L 296.0,136.8 L 300.7,137.3 L 305.4,137.9 L 310.1,138.5 L 314.8,138.9 L 319.5,139.3 L 324.2,139.7 L 329.0,140.0 L 333.7,140.2 L 338.4,140.3 L 343.1,140.4 L 347.8,140.4 L 352.5,140.4 L 357.2,140.4 L 361.9,140.3 L 366.6,140.2 L 371.3,140.1 L 376.0,140.0 L 380.8,139.8 L 385.5,139.7 L 390.2,139.5 L 394.9,139.3 L 399.6,139.0 L 404.3,138.8 L 409.0,138.6 L 413.7,138.3 L 418.4,138.1 L 423.1,137.8 L 427.8,137.6 L 432.5,137.3 L 437.2,137.0 L 442.0,136.7 L 446.7,136.4 L 451.4,136.1 L 456.1,135.8 L 460.8,135.5 L 465.5,135.2 L 470.2,134.9 L 474.9,134.5 L 479.6,134.1 L 484.3,133.7 L 489.0,133.3 L 493.8,132.9 L 498.5,132.4 L 503.2,131.9 L 507.9,131.3 L 512.6,130.7 L 517.3,130.1 L 522.0,129.3 L 526.7,128.5 L 531.4,127.7 L 536.1,126.7 L 540.8,125.6 L 545.5,124.4 L 550.2,123.0 L 555.0,121.5 L 559.7,119.9 L 564.4,118.0 L 569.1,116.0 L 573.8,113.8 L 578.5,111.7 L 583.2,109.6 L 587.9,108.0 L 592.6,107.1 L 597.3,107.3 L 602.0,108.7 L 606.8,111.3 L 611.5,115.2 L 616.2,119.8 L 620.9,125.0 L 625.6,130.4 L 630.3,135.8 L 635.0,141.0" class="fw"/>
<line x1="82.12349181333134" y1="268.12876556095557" x2="82.12349181333134" y2="391.3457332156397" class="err"/>
<line x1="79.12349181333134" y1="268.12876556095557" x2="85.12349181333134" y2="268.12876556095557" class="err"/>
<line x1="79.12349181333134" y1="391.3457332156397" x2="85.12349181333134" y2="391.3457332156397" class="err"/>
<circle cx="82.12349181333134" cy="329.7372493882976" r="2.5" class="obs"/>
<line x1="106.68133420443843" y1="195.98198844735754" x2="106.68133420443843" y2="346.355327262778" class="err"/>
<line x1="103.68133420443843" y1="195.98198844735754" x2="109.68133420443843" y2="195.98198844735754" class="err"/>
<line x1="103.68133420443843" y1="346.355327262778" x2="109.68133420443843" y2="346.355327262778" class="err"/>
<circle cx="106.68133420443843" cy="271.1686578550678" r="2.5" class="obs"/>
<line x1="130.61745906665672" y1="198.4139022826474" x2="130.61745906665672" y2="251.5106876864751" class="err"/>
<line x1="127.61745906665672" y1="198.4139022826474" x2="133.61745906665672" y2="198.4139022826474" class="err"/>
<line x1="127.61745906665672" y1="251.5106876864751" x2="133.61745906665672" y2="251.5106876864751" class="err"/>
<circle cx="130.61745906665672" cy="224.96229498456123" r="2.5" class="obs"/>
<line x1="155.17530145776382" y1="179.76922954542542" x2="155.17530145776382" y2="204.89900584342024" class="err"/>
<line x1="152.17530145776382" y1="179.76922954542542" x2="158.17530145776382" y2="179.76922954542542" class="err"/>
<line x1="152.17530145776382" y1="204.89900584342024" x2="158.17530145776382" y2="204.89900584342024" class="err"/>
<circle cx="155.17530145776382" cy="192.33411769442282" r="2.5" class="obs"/>
<line x1="179.7331438488709" y1="163.5564706434933" x2="179.7331438488709" y2="188.68624694148812" class="err"/>
<line x1="176.7331438488709" y1="163.5564706434933" x2="182.7331438488709" y2="163.5564706434933" class="err"/>
<line x1="176.7331438488709" y1="188.68624694148812" x2="182.7331438488709" y2="188.68624694148812" class="err"/>
<circle cx="179.7331438488709" cy="176.1213587924907" r="2.5" class="obs"/>
<line x1="203.6692687110892" y1="137.21073742785362" x2="203.6692687110892" y2="187.47029002384323" class="err"/>
<line x1="200.6692687110892" y1="137.21073742785362" x2="206.6692687110892" y2="137.21073742785362" class="err"/>
<line x1="200.6692687110892" y1="187.47029002384323" x2="206.6692687110892" y2="187.47029002384323" class="err"/>
<circle cx="203.6692687110892" cy="162.34051372584838" r="2.5" class="obs"/>
<line x1="228.22711110219626" y1="133.5628666749189" x2="228.22711110219626" y2="158.6926429729137" class="err"/>
<line x1="225.22711110219626" y1="133.5628666749189" x2="231.22711110219626" y2="133.5628666749189" class="err"/>
<line x1="225.22711110219626" y1="158.6926429729137" x2="231.22711110219626" y2="158.6926429729137" class="err"/>
<circle cx="228.22711110219626" cy="146.1277548239163" r="2.5" class="obs"/>
<line x1="252.47409472885897" y1="125.4564872239528" x2="252.47409472885897" y2="150.58626352194761" class="err"/>
<line x1="249.47409472885897" y1="125.4564872239528" x2="255.47409472885897" y2="125.4564872239528" class="err"/>
<line x1="249.47409472885897" y1="150.58626352194761" x2="255.47409472885897" y2="150.58626352194761" class="err"/>
<circle cx="252.47409472885897" cy="138.02137537295022" r="2.5" class="obs"/>
<line x1="268.9496092444118" y1="85.53256842794492" x2="268.9496092444118" y2="186.45699259247246" class="err"/>
<line x1="265.9496092444118" y1="85.53256842794492" x2="271.9496092444118" y2="85.53256842794492" class="err"/>
<line x1="265.9496092444118" y1="186.45699259247246" x2="271.9496092444118" y2="186.45699259247246" class="err"/>
<circle cx="268.9496092444118" cy="135.99478051020873" r="2.5" class="obs"/>
<line x1="301.2789207466287" y1="104.58256013771519" x2="301.2789207466287" y2="167.4070008827022" class="err"/>
<line x1="298.2789207466287" y1="104.58256013771519" x2="304.2789207466287" y2="104.58256013771519" class="err"/>
<line x1="298.2789207466287" y1="167.4070008827022" x2="304.2789207466287" y2="167.4070008827022" class="err"/>
<circle cx="301.2789207466287" cy="135.99478051020873" r="2.5" class="obs"/>
<line x1="325.21504560884705" y1="111.47298267103636" x2="325.21504560884705" y2="164.56976807486404" class="err"/>
<line x1="322.21504560884705" y1="111.47298267103636" x2="328.21504560884705" y2="111.47298267103636" class="err"/>
<line x1="322.21504560884705" y1="164.56976807486404" x2="328.21504560884705" y2="164.56976807486404" class="err"/>
<circle cx="325.21504560884705" cy="138.02137537295022" r="2.5" class="obs"/>
<line x1="349.77288799995415" y1="86.54586585931568" x2="349.77288799995415" y2="193.55007461206776" class="err"/>
<line x1="346.77288799995415" y1="86.54586585931568" x2="352.77288799995415" y2="86.54586585931568" class="err"/>
<line x1="346.77288799995415" y1="193.55007461206776" x2="352.77288799995415" y2="193.55007461206776" class="err"/>
<circle cx="349.77288799995415" cy="140.0479702356917" r="2.5" class="obs"/>
<line x1="372.1547190399505" y1="100.73202989850631" x2="372.1547190399505" y2="179.36391057287716" class="err"/>
<line x1="369.1547190399505" y1="100.73202989850631" x2="375.1547190399505" y2="100.73202989850631" class="err"/>
<line x1="369.1547190399505" y1="179.36391057287716" x2="375.1547190399505" y2="179.36391057287716" class="err"/>
<circle cx="372.1547190399505" cy="140.0479702356917" r="2.5" class="obs"/>
<line x1="436.5024832799399" y1="110.66234472593975" x2="436.5024832799399" y2="161.32721629447764" class="err"/>
<line x1="433.5024832799399" y1="110.66234472593975" x2="439.5024832799399" y2="110.66234472593975" class="err"/>
<line x1="433.5024832799399" y1="161.32721629447764" x2="439.5024832799399" y2="161.32721629447764" class="err"/>
<circle cx="436.5024832799399" cy="135.99478051020873" r="2.5" class="obs"/>
<line x1="618.0440017154657" y1="96.27352120047502" x2="618.0440017154657" y2="155.45009119252725" class="err"/>
<line x1="615.0440017154657" y1="96.27352120047502" x2="621.0440017154657" y2="96.27352120047502" class="err"/>
<line x1="615.0440017154657" y1="155.45009119252725" x2="621.0440017154657" y2="155.45009119252725" class="err"/>
<circle cx="618.0440017154657" cy="125.8618061965011" r="2.5" class="obs"/>
<g class="legend">
<line x1="82" y1="69" x2="106" y2="69" class="fw"/>
<text x="112" y="73" class="lbl-l">framework fit</text>
<line x1="82" y1="87" x2="106" y2="87" class="nt"/>
<text x="112" y="91" class="lbl-l">Newtonian (no halo)</text>
<circle cx="94" cy="105" r="2.5" class="obs"/>
<text x="112" y="109" class="lbl">observed V±err</text>
</g>
<g class="legend">
<line x1="460" y1="69" x2="484" y2="69" class="rho"/>
<text x="490" y="73" class="lbl-r">ρ(r) raw</text>
<line x1="460" y1="87" x2="484" y2="87" class="sig"/>
<text x="490" y="91" class="lbl-r">Σ(r) smoothed</text>
<text x="460" y="113" class="lbl-r">ρ peak: 232 M☉/pc²</text>
</g>
</svg>