<svg xmlns="http://www.w3.org/2000/svg" viewBox="0 0 890 420" width="890" height="420" font-family="sans-serif" font-size="12">
<style>
  .ax { stroke: #333; stroke-width: 1; fill: none; }
  .grid { stroke: #ddd; stroke-width: 0.5; fill: none; }
  .lbl { fill: #333; }
  .lbl-l { fill: #0066cc; }
  .lbl-r { fill: #b03030; }
  .obs { fill: #222; }
  .err { stroke: #555; stroke-width: 0.8; fill: none; }
  .fw { stroke: #0066cc; stroke-width: 2.2; fill: none; }
  .nt { stroke: #cc6600; stroke-width: 1.6; fill: none; stroke-dasharray: 5,3; }
  .lbl-s { fill: #cc7000; }
  .rho { stroke: #b03030; stroke-width: 2.0; fill: none; }
  .sig { stroke: #cc7000; stroke-width: 1.8; fill: none; }
  .title { fill: #111; font-size: 16px; font-weight: 600; }
  .subtitle { fill: #555; font-size: 11px; }
  .preview-bg { fill: #000; }
  .preview-lbl { fill: #888; font-size: 10px; }
  .legend { font-size: 11px; }
</style>
<text x="343.5" y="22" text-anchor="middle" class="title">F568-V1</text>
<text x="343.5" y="38" text-anchor="middle" class="subtitle">rMax=17.6 kpc, N=15, RMS=0.9 km/s (0.9%), amp=105</text>
<line x1="70" y1="365.0" x2="617" y2="365.0" class="grid"/>
<text x="64" y="369.0" text-anchor="end" class="lbl-l">0</text>
<line x1="70" y1="303.0" x2="617" y2="303.0" class="grid"/>
<text x="64" y="307.0" text-anchor="end" class="lbl-l">31</text>
<line x1="70" y1="241.0" x2="617" y2="241.0" class="grid"/>
<text x="64" y="245.0" text-anchor="end" class="lbl-l">61</text>
<line x1="70" y1="179.0" x2="617" y2="179.0" class="grid"/>
<text x="64" y="183.0" text-anchor="end" class="lbl-l">92</text>
<line x1="70" y1="117.0" x2="617" y2="117.0" class="grid"/>
<text x="64" y="121.0" text-anchor="end" class="lbl-l">122</text>
<line x1="70" y1="55.0" x2="617" y2="55.0" class="grid"/>
<text x="64" y="59.0" text-anchor="end" class="lbl-l">153</text>
<text x="623" y="369.0" text-anchor="start" class="lbl-r">0.0</text>
<text x="623" y="327.7" text-anchor="start" class="lbl-r">0.2</text>
<text x="623" y="286.3" text-anchor="start" class="lbl-r">0.4</text>
<text x="623" y="245.0" text-anchor="start" class="lbl-r">0.6</text>
<text x="623" y="203.7" text-anchor="start" class="lbl-r">0.8</text>
<text x="623" y="162.3" text-anchor="start" class="lbl-r">1.0</text>
<line x1="70.0" y1="55" x2="70.0" y2="365" class="grid"/>
<text x="70.0" y="381" text-anchor="middle" class="lbl">0.0</text>
<line x1="161.2" y1="55" x2="161.2" y2="365" class="grid"/>
<text x="161.2" y="381" text-anchor="middle" class="lbl">3.0</text>
<line x1="252.3" y1="55" x2="252.3" y2="365" class="grid"/>
<text x="252.3" y="381" text-anchor="middle" class="lbl">6.1</text>
<line x1="343.5" y1="55" x2="343.5" y2="365" class="grid"/>
<text x="343.5" y="381" text-anchor="middle" class="lbl">9.1</text>
<line x1="434.7" y1="55" x2="434.7" y2="365" class="grid"/>
<text x="434.7" y="381" text-anchor="middle" class="lbl">12.1</text>
<line x1="525.8" y1="55" x2="525.8" y2="365" class="grid"/>
<text x="525.8" y="381" text-anchor="middle" class="lbl">15.1</text>
<line x1="617.0" y1="55" x2="617.0" y2="365" class="grid"/>
<text x="617.0" y="381" text-anchor="middle" class="lbl">18.2</text>
<text x="343.5" y="408" text-anchor="middle" class="lbl">radius (kpc)</text>
<text x="16" y="210" text-anchor="middle" class="lbl-l" transform="rotate(-90, 16, 210)">velocity (km/s)</text>
<text x="654" y="210" text-anchor="middle" class="lbl-r" transform="rotate(-90, 654, 210)">mass profile (normalized to peak)</text>
<rect x="70" y="55" width="547" height="310" class="ax"/>
<path d="M 70.0,158.3 L 72.5,160.2 L 75.0,162.1 L 77.5,164.0 L 80.0,165.9 L 82.5,167.8 L 85.0,169.7 L 87.5,171.6 L 90.0,173.5 L 92.5,175.4 L 95.0,177.3 L 97.5,179.2 L 100.0,181.1 L 102.5,183.0 L 105.0,184.9 L 107.5,186.8 L 110.0,188.6 L 112.5,190.5 L 115.0,192.4 L 117.5,194.3 L 120.0,196.2 L 122.5,198.1 L 124.9,199.9 L 127.4,201.8 L 129.9,203.7 L 132.4,205.6 L 134.9,207.4 L 137.4,209.3 L 139.9,211.2 L 142.4,213.1 L 144.9,214.9 L 147.4,216.8 L 149.9,218.7 L 152.4,220.6 L 154.9,222.5 L 157.4,224.3 L 159.9,226.2 L 162.4,228.1 L 164.9,230.0 L 167.4,231.8 L 169.9,232.8 L 172.4,233.7 L 174.9,234.6 L 177.4,235.5 L 179.9,236.5 L 182.4,237.4 L 184.9,238.3 L 187.4,239.3 L 189.9,240.2 L 192.4,241.1 L 194.9,242.1 L 197.4,243.0 L 199.9,243.9 L 202.4,244.9 L 204.9,245.8 L 207.4,246.7 L 209.9,247.6 L 212.4,248.6 L 214.9,249.5 L 217.4,250.4 L 219.9,251.4 L 222.4,252.3 L 224.9,253.2 L 227.4,254.2 L 229.9,255.1 L 232.4,256.0 L 234.8,257.0 L 237.3,257.9 L 239.8,258.8 L 242.3,259.8 L 244.8,260.7 L 247.3,261.6 L 249.8,262.5 L 252.3,263.5 L 254.8,264.4 L 257.3,265.3 L 259.8,266.3 L 262.3,267.2 L 264.8,268.1 L 267.3,269.1 L 269.8,270.0 L 272.3,270.9 L 274.8,271.9 L 277.3,272.8 L 279.8,273.7 L 282.3,274.7 L 284.8,275.6 L 287.3,276.0 L 289.8,276.4 L 292.3,276.7 L 294.8,277.0 L 297.3,277.3 L 299.8,277.6 L 302.3,277.9 L 304.8,278.2 L 307.3,278.6 L 309.8,278.9 L 312.3,279.2 L 314.8,279.5 L 317.3,279.8 L 319.8,280.1 L 322.3,280.5 L 324.8,280.8 L 327.3,281.1 L 329.8,281.4 L 332.3,281.7 L 334.8,282.0 L 337.3,282.4 L 339.8,282.7 L 342.3,283.0 L 344.7,283.3 L 347.2,283.6 L 349.7,283.9 L 352.2,284.3 L 354.7,284.6 L 357.2,284.9 L 359.7,285.2 L 362.2,285.5 L 364.7,285.8 L 367.2,286.2 L 369.7,286.5 L 372.2,286.8 L 374.7,287.1 L 377.2,287.4 L 379.7,287.7 L 382.2,288.0 L 384.7,288.4 L 387.2,288.7 L 389.7,289.0 L 392.2,289.3 L 394.7,289.6 L 397.2,289.9 L 399.7,290.3 L 402.2,290.6 L 404.7,290.9 L 407.2,291.2 L 409.7,291.5 L 412.2,291.8 L 414.7,292.2 L 417.2,292.5 L 419.7,292.8 L 422.2,293.1 L 424.7,293.4 L 427.2,293.7 L 429.7,294.1 L 432.2,294.4 L 434.7,294.7 L 437.2,295.0 L 439.7,295.3 L 442.2,295.6 L 444.7,295.9 L 447.2,296.3 L 449.7,296.6 L 452.2,296.9 L 454.6,297.2 L 457.1,297.5 L 459.6,297.8 L 462.1,298.2 L 464.6,298.5 L 467.1,298.8 L 469.6,299.1 L 472.1,299.4 L 474.6,299.7 L 477.1,300.1 L 479.6,300.4 L 482.1,300.7 L 484.6,301.0 L 487.1,301.3 L 489.6,301.6 L 492.1,302.0 L 494.6,302.3 L 497.1,302.6 L 499.6,302.9 L 502.1,303.2 L 504.6,303.5 L 507.1,303.8 L 509.6,304.2 L 512.1,304.5 L 514.6,304.8 L 517.1,305.1 L 519.6,305.4 L 522.1,305.7 L 524.6,306.1 L 527.1,306.4 L 529.6,306.7 L 532.1,307.0 L 534.6,307.3 L 537.1,307.6 L 539.6,308.0 L 542.1,308.3 L 544.6,308.6 L 547.1,308.9 L 549.6,309.2 L 552.1,309.5 L 554.6,309.9 L 557.1,310.2 L 559.6,310.5 L 562.1,310.8 L 564.5,311.1 L 567.0,311.4 L 569.5,311.8 L 572.0,312.1 L 574.5,312.4 L 577.0,312.7 L 579.5,313.0 L 582.0,322.9 L 584.5,334.7 L 587.0,346.5 L 589.5,358.3 L 592.0,365.0 L 594.5,365.0 L 597.0,365.0 L 599.5,365.0 L 602.0,365.0 L 604.5,365.0 L 607.0,365.0 L 609.5,365.0 L 612.0,365.0 L 614.5,365.0 L 617.0,365.0" class="rho"/>
<path d="M 70.0,158.3 L 72.5,158.4 L 75.0,158.6 L 77.5,158.8 L 80.0,159.1 L 82.5,159.5 L 85.0,160.0 L 87.5,160.5 L 90.0,161.2 L 92.5,161.9 L 95.0,162.6 L 97.5,163.4 L 100.0,164.3 L 102.5,165.3 L 105.0,166.3 L 107.5,167.3 L 110.0,168.4 L 112.5,169.5 L 115.0,170.7 L 117.5,171.9 L 120.0,173.2 L 122.5,174.4 L 124.9,175.7 L 127.4,177.1 L 129.9,178.4 L 132.4,179.8 L 134.9,181.2 L 137.4,182.6 L 139.9,184.0 L 142.4,185.4 L 144.9,186.9 L 147.4,188.3 L 149.9,189.8 L 152.4,191.2 L 154.9,192.7 L 157.4,194.1 L 159.9,195.6 L 162.4,197.0 L 164.9,198.5 L 167.4,199.9 L 169.9,201.3 L 172.4,202.8 L 174.9,204.2 L 177.4,205.6 L 179.9,207.0 L 182.4,208.4 L 184.9,209.8 L 187.4,211.2 L 189.9,212.5 L 192.4,213.9 L 194.9,215.2 L 197.4,216.6 L 199.9,217.9 L 202.4,219.3 L 204.9,220.6 L 207.4,221.9 L 209.9,223.2 L 212.4,224.5 L 214.9,225.8 L 217.4,227.1 L 219.9,228.4 L 222.4,229.7 L 224.9,230.9 L 227.4,232.2 L 229.9,233.4 L 232.4,234.7 L 234.8,235.9 L 237.3,237.1 L 239.8,238.3 L 242.3,239.5 L 244.8,240.7 L 247.3,241.9 L 249.8,243.1 L 252.3,244.3 L 254.8,245.4 L 257.3,246.5 L 259.8,247.7 L 262.3,248.8 L 264.8,249.9 L 267.3,251.0 L 269.8,252.1 L 272.3,253.1 L 274.8,254.2 L 277.3,255.2 L 279.8,256.3 L 282.3,257.3 L 284.8,258.3 L 287.3,259.2 L 289.8,260.2 L 292.3,261.2 L 294.8,262.1 L 297.3,263.0 L 299.8,264.0 L 302.3,264.9 L 304.8,265.8 L 307.3,266.6 L 309.8,267.5 L 312.3,268.4 L 314.8,269.2 L 317.3,270.1 L 319.8,270.9 L 322.3,271.7 L 324.8,272.5 L 327.3,273.3 L 329.8,274.1 L 332.3,274.9 L 334.8,275.7 L 337.3,276.4 L 339.8,277.2 L 342.3,278.0 L 344.7,278.7 L 347.2,279.5 L 349.7,280.2 L 352.2,280.9 L 354.7,281.6 L 357.2,282.4 L 359.7,283.1 L 362.2,283.8 L 364.7,284.5 L 367.2,285.2 L 369.7,285.9 L 372.2,286.6 L 374.7,287.2 L 377.2,287.9 L 379.7,288.6 L 382.2,289.2 L 384.7,289.9 L 387.2,290.6 L 389.7,291.2 L 392.2,291.9 L 394.7,292.5 L 397.2,293.1 L 399.7,293.8 L 402.2,294.4 L 404.7,295.0 L 407.2,295.7 L 409.7,296.3 L 412.2,296.9 L 414.7,297.5 L 417.2,298.1 L 419.7,298.7 L 422.2,299.3 L 424.7,299.9 L 427.2,300.5 L 429.7,301.1 L 432.2,301.7 L 434.7,302.3 L 437.2,302.9 L 439.7,303.4 L 442.2,304.0 L 444.7,304.6 L 447.2,305.1 L 449.7,305.7 L 452.2,306.3 L 454.6,306.8 L 457.1,307.4 L 459.6,307.9 L 462.1,308.5 L 464.6,309.1 L 467.1,309.6 L 469.6,310.1 L 472.1,310.7 L 474.6,311.2 L 477.1,311.8 L 479.6,312.3 L 482.1,312.8 L 484.6,313.4 L 487.1,313.9 L 489.6,314.4 L 492.1,314.9 L 494.6,315.5 L 497.1,316.0 L 499.6,316.5 L 502.1,317.0 L 504.6,317.6 L 507.1,318.1 L 509.6,318.6 L 512.1,319.1 L 514.6,319.6 L 517.1,320.1 L 519.6,320.6 L 522.1,321.2 L 524.6,321.7 L 527.1,322.2 L 529.6,322.7 L 532.1,323.2 L 534.6,323.7 L 537.1,324.2 L 539.6,324.7 L 542.1,325.2 L 544.6,325.8 L 547.1,326.3 L 549.6,326.8 L 552.1,327.3 L 554.6,327.8 L 557.1,328.4 L 559.6,328.9 L 562.1,329.4 L 564.5,329.9 L 567.0,330.5 L 569.5,331.0 L 572.0,331.6 L 574.5,332.1 L 577.0,332.6 L 579.5,333.2 L 582.0,333.7 L 584.5,334.2 L 587.0,334.7 L 589.5,335.2 L 592.0,335.7 L 594.5,336.2 L 597.0,336.7 L 599.5,337.2 L 602.0,337.6 L 604.5,338.1 L 607.0,338.5 L 609.5,338.9 L 612.0,339.3 L 614.5,339.7 L 617.0,340.1" class="sig"/>
<path d="M 75.5,316.9 L 80.9,297.5 L 86.4,282.9 L 91.9,270.8 L 97.3,260.4 L 102.8,251.3 L 108.3,243.1 L 113.8,235.6 L 119.2,228.8 L 124.7,222.5 L 130.2,216.7 L 135.6,211.4 L 141.1,206.4 L 146.6,201.7 L 152.1,197.4 L 157.5,193.3 L 163.0,189.5 L 168.5,186.0 L 173.9,182.6 L 179.4,179.3 L 184.9,176.2 L 190.3,173.1 L 195.8,170.2 L 201.3,167.3 L 206.8,164.6 L 212.2,161.9 L 217.7,159.4 L 223.2,156.9 L 228.6,154.6 L 234.1,152.3 L 239.6,150.1 L 245.0,148.0 L 250.5,146.0 L 256.0,144.1 L 261.4,142.2 L 266.9,140.4 L 272.4,138.7 L 277.9,137.1 L 283.3,135.6 L 288.8,134.1 L 294.3,132.6 L 299.7,131.2 L 305.2,129.7 L 310.7,128.3 L 316.1,126.9 L 321.6,125.5 L 327.1,124.1 L 332.6,122.7 L 338.0,121.3 L 343.5,120.0 L 349.0,118.7 L 354.4,117.3 L 359.9,116.0 L 365.4,114.8 L 370.9,113.5 L 376.3,112.3 L 381.8,111.1 L 387.3,109.9 L 392.7,108.7 L 398.2,107.5 L 403.7,106.4 L 409.1,105.2 L 414.6,104.1 L 420.1,103.1 L 425.6,102.0 L 431.0,100.9 L 436.5,99.9 L 442.0,98.9 L 447.4,97.9 L 452.9,96.9 L 458.4,96.0 L 463.8,95.1 L 469.3,94.1 L 474.8,93.2 L 480.3,92.4 L 485.7,91.5 L 491.2,90.7 L 496.7,89.9 L 502.1,89.1 L 507.6,88.3 L 513.1,87.5 L 518.5,86.8 L 524.0,86.0 L 529.5,85.3 L 535.0,84.6 L 540.4,84.0 L 545.9,83.3 L 551.4,82.7 L 556.8,82.1 L 562.3,81.5 L 567.8,80.9 L 573.2,80.3 L 578.7,79.8 L 584.2,79.5 L 589.6,80.3 L 595.1,81.7 L 600.6,83.2 L 606.1,84.7 L 611.5,86.1 L 617.0,87.5" class="nt"/>
<path d="M 74.6,349.5 L 79.1,338.1 L 83.7,325.4 L 88.2,312.9 L 92.8,300.9 L 97.3,289.5 L 101.9,278.6 L 106.5,268.2 L 111.0,258.5 L 115.6,249.2 L 120.1,240.5 L 124.7,232.3 L 129.3,224.6 L 133.8,217.4 L 138.4,210.7 L 142.9,204.6 L 147.5,198.9 L 152.1,193.7 L 156.6,189.1 L 161.2,184.8 L 165.7,181.0 L 170.3,177.4 L 174.8,174.2 L 179.4,171.0 L 184.0,168.1 L 188.5,165.2 L 193.1,162.4 L 197.6,159.7 L 202.2,157.1 L 206.8,154.6 L 211.3,152.2 L 215.9,150.0 L 220.4,147.8 L 225.0,145.8 L 229.5,144.0 L 234.1,142.3 L 238.7,140.8 L 243.2,139.4 L 247.8,138.2 L 252.3,137.2 L 256.9,136.5 L 261.4,135.9 L 266.0,135.6 L 270.6,135.4 L 275.1,135.5 L 279.7,135.8 L 284.2,136.2 L 288.8,136.8 L 293.4,137.3 L 297.9,137.9 L 302.5,138.5 L 307.0,138.9 L 311.6,139.3 L 316.1,139.7 L 320.7,140.0 L 325.3,140.2 L 329.8,140.3 L 334.4,140.4 L 338.9,140.4 L 343.5,140.4 L 348.1,140.4 L 352.6,140.3 L 357.2,140.2 L 361.7,140.1 L 366.3,140.0 L 370.9,139.8 L 375.4,139.7 L 380.0,139.5 L 384.5,139.3 L 389.1,139.0 L 393.6,138.8 L 398.2,138.6 L 402.8,138.3 L 407.3,138.1 L 411.9,137.8 L 416.4,137.6 L 421.0,137.3 L 425.6,137.0 L 430.1,136.7 L 434.7,136.4 L 439.2,136.1 L 443.8,135.8 L 448.3,135.5 L 452.9,135.2 L 457.5,134.9 L 462.0,134.5 L 466.6,134.1 L 471.1,133.7 L 475.7,133.3 L 480.3,132.9 L 484.8,132.4 L 489.4,131.9 L 493.9,131.3 L 498.5,130.7 L 503.0,130.1 L 507.6,129.3 L 512.2,128.5 L 516.7,127.7 L 521.3,126.7 L 525.8,125.6 L 530.4,124.4 L 535.0,123.0 L 539.5,121.5 L 544.1,119.9 L 548.6,118.0 L 553.2,116.0 L 557.7,113.8 L 562.3,111.7 L 566.9,109.6 L 571.4,108.0 L 576.0,107.1 L 580.5,107.3 L 585.1,108.7 L 589.6,111.3 L 594.2,115.2 L 598.8,119.8 L 603.3,125.0 L 607.9,130.4 L 612.4,135.8 L 617.0,141.0" class="fw"/>
<line x1="81.74" y1="268.13" x2="81.74" y2="391.35" class="err"/>
<line x1="78.74" y1="268.13" x2="84.74" y2="268.13" class="err"/>
<line x1="78.74" y1="391.35" x2="84.74" y2="391.35" class="err"/>
<circle cx="81.74" cy="329.74" r="2.5" class="obs"/>
<line x1="105.51" y1="195.98" x2="105.51" y2="346.36" class="err"/>
<line x1="102.51" y1="195.98" x2="108.51" y2="195.98" class="err"/>
<line x1="102.51" y1="346.36" x2="108.51" y2="346.36" class="err"/>
<circle cx="105.51" cy="271.17" r="2.5" class="obs"/>
<line x1="128.69" y1="198.41" x2="128.69" y2="251.51" class="err"/>
<line x1="125.69" y1="198.41" x2="131.69" y2="198.41" class="err"/>
<line x1="125.69" y1="251.51" x2="131.69" y2="251.51" class="err"/>
<circle cx="128.69" cy="224.96" r="2.5" class="obs"/>
<line x1="152.46" y1="179.77" x2="152.46" y2="204.90" class="err"/>
<line x1="149.46" y1="179.77" x2="155.46" y2="179.77" class="err"/>
<line x1="149.46" y1="204.90" x2="155.46" y2="204.90" class="err"/>
<circle cx="152.46" cy="192.33" r="2.5" class="obs"/>
<line x1="176.24" y1="163.56" x2="176.24" y2="188.69" class="err"/>
<line x1="173.24" y1="163.56" x2="179.24" y2="163.56" class="err"/>
<line x1="173.24" y1="188.69" x2="179.24" y2="188.69" class="err"/>
<circle cx="176.24" cy="176.12" r="2.5" class="obs"/>
<line x1="199.41" y1="137.21" x2="199.41" y2="187.47" class="err"/>
<line x1="196.41" y1="137.21" x2="202.41" y2="137.21" class="err"/>
<line x1="196.41" y1="187.47" x2="202.41" y2="187.47" class="err"/>
<circle cx="199.41" cy="162.34" r="2.5" class="obs"/>
<line x1="223.19" y1="133.56" x2="223.19" y2="158.69" class="err"/>
<line x1="220.19" y1="133.56" x2="226.19" y2="133.56" class="err"/>
<line x1="220.19" y1="158.69" x2="226.19" y2="158.69" class="err"/>
<circle cx="223.19" cy="146.13" r="2.5" class="obs"/>
<line x1="246.66" y1="125.46" x2="246.66" y2="150.59" class="err"/>
<line x1="243.66" y1="125.46" x2="249.66" y2="125.46" class="err"/>
<line x1="243.66" y1="150.59" x2="249.66" y2="150.59" class="err"/>
<circle cx="246.66" cy="138.02" r="2.5" class="obs"/>
<line x1="262.61" y1="85.53" x2="262.61" y2="186.46" class="err"/>
<line x1="259.61" y1="85.53" x2="265.61" y2="85.53" class="err"/>
<line x1="259.61" y1="186.46" x2="265.61" y2="186.46" class="err"/>
<circle cx="262.61" cy="135.99" r="2.5" class="obs"/>
<line x1="293.91" y1="104.58" x2="293.91" y2="167.41" class="err"/>
<line x1="290.91" y1="104.58" x2="296.91" y2="104.58" class="err"/>
<line x1="290.91" y1="167.41" x2="296.91" y2="167.41" class="err"/>
<circle cx="293.91" cy="135.99" r="2.5" class="obs"/>
<line x1="317.08" y1="111.47" x2="317.08" y2="164.57" class="err"/>
<line x1="314.08" y1="111.47" x2="320.08" y2="111.47" class="err"/>
<line x1="314.08" y1="164.57" x2="320.08" y2="164.57" class="err"/>
<circle cx="317.08" cy="138.02" r="2.5" class="obs"/>
<line x1="340.86" y1="86.55" x2="340.86" y2="193.55" class="err"/>
<line x1="337.86" y1="86.55" x2="343.86" y2="86.55" class="err"/>
<line x1="337.86" y1="193.55" x2="343.86" y2="193.55" class="err"/>
<circle cx="340.86" cy="140.05" r="2.5" class="obs"/>
<line x1="362.53" y1="100.73" x2="362.53" y2="179.36" class="err"/>
<line x1="359.53" y1="100.73" x2="365.53" y2="100.73" class="err"/>
<line x1="359.53" y1="179.36" x2="365.53" y2="179.36" class="err"/>
<circle cx="362.53" cy="140.05" r="2.5" class="obs"/>
<line x1="424.83" y1="110.66" x2="424.83" y2="161.33" class="err"/>
<line x1="421.83" y1="110.66" x2="427.83" y2="110.66" class="err"/>
<line x1="421.83" y1="161.33" x2="427.83" y2="161.33" class="err"/>
<circle cx="424.83" cy="135.99" r="2.5" class="obs"/>
<line x1="600.58" y1="96.27" x2="600.58" y2="155.45" class="err"/>
<line x1="597.58" y1="96.27" x2="603.58" y2="96.27" class="err"/>
<line x1="597.58" y1="155.45" x2="603.58" y2="155.45" class="err"/>
<circle cx="600.58" cy="125.86" r="2.5" class="obs"/>
<g class="legend">
<line x1="82" y1="69" x2="106" y2="69" class="fw"/>
<text x="112" y="73" class="lbl-l">framework fit</text>
<line x1="82" y1="87" x2="106" y2="87" class="nt"/>
<text x="112" y="91" class="lbl-l">Newtonian (no halo)</text>
<circle cx="94" cy="105" r="2.5" class="obs"/>
<text x="112" y="109" class="lbl">observed V±err</text>
</g>
<g class="legend">
<line x1="442" y1="69" x2="466" y2="69" class="rho"/>
<text x="472" y="73" class="lbl-r">ρ(r) raw</text>
<line x1="442" y1="87" x2="466" y2="87" class="sig"/>
<text x="472" y="91" class="lbl-s">Σ(r) cumulative</text>
<text x="442" y="113" class="lbl-r">ρ peak: 232 M☉/pc²</text>
</g>
<rect x="705" y="55" width="170" height="170" class="preview-bg"/>
<defs><radialGradient id="g_F568_V1" cx="0.5" cy="0.5" r="0.5">
  <stop offset="0.0000" stop-color="rgb(100,100,100)"/>
  <stop offset="0.0313" stop-color="rgb(96,96,96)"/>
  <stop offset="0.0625" stop-color="rgb(92,92,92)"/>
  <stop offset="0.0938" stop-color="rgb(89,89,89)"/>
  <stop offset="0.1250" stop-color="rgb(85,85,85)"/>
  <stop offset="0.1563" stop-color="rgb(81,81,81)"/>
  <stop offset="0.1875" stop-color="rgb(77,77,77)"/>
  <stop offset="0.2188" stop-color="rgb(75,75,75)"/>
  <stop offset="0.2500" stop-color="rgb(74,74,74)"/>
  <stop offset="0.2813" stop-color="rgb(72,72,72)"/>
  <stop offset="0.3125" stop-color="rgb(70,70,70)"/>
  <stop offset="0.3438" stop-color="rgb(68,68,68)"/>
  <stop offset="0.3750" stop-color="rgb(66,66,66)"/>
  <stop offset="0.4063" stop-color="rgb(64,64,64)"/>
  <stop offset="0.4375" stop-color="rgb(63,63,63)"/>
  <stop offset="0.4688" stop-color="rgb(61,61,61)"/>
  <stop offset="0.5000" stop-color="rgb(60,60,60)"/>
  <stop offset="0.5313" stop-color="rgb(58,58,58)"/>
  <stop offset="0.5625" stop-color="rgb(57,57,57)"/>
  <stop offset="0.5938" stop-color="rgb(55,55,55)"/>
  <stop offset="0.6250" stop-color="rgb(54,54,54)"/>
  <stop offset="0.6563" stop-color="rgb(52,52,52)"/>
  <stop offset="0.6875" stop-color="rgb(51,51,51)"/>
  <stop offset="0.7188" stop-color="rgb(49,49,49)"/>
  <stop offset="0.7500" stop-color="rgb(48,48,48)"/>
  <stop offset="0.7813" stop-color="rgb(47,47,47)"/>
  <stop offset="0.8125" stop-color="rgb(45,45,45)"/>
  <stop offset="0.8438" stop-color="rgb(44,44,44)"/>
  <stop offset="0.8750" stop-color="rgb(42,42,42)"/>
  <stop offset="0.9063" stop-color="rgb(41,41,41)"/>
  <stop offset="0.9375" stop-color="rgb(39,39,39)"/>
  <stop offset="0.9688" stop-color="rgb(38,38,38)"/>
  <stop offset="1.0000" stop-color="rgb(0,0,0)"/>
</radialGradient></defs>
<circle cx="790" cy="140" r="81" fill="url(#g_F568_V1)"/>
<text x="790" y="49" text-anchor="middle" class="preview-lbl">face-on luminance from ρ(r)</text>
<text x="790" y="239" text-anchor="middle" class="preview-lbl">edge at r = 17.3 kpc</text>
</svg>