<svg xmlns="http://www.w3.org/2000/svg" viewBox="0 0 890 420" width="890" height="420" font-family="sans-serif" font-size="12">
<style>
  .ax { stroke: #333; stroke-width: 1; fill: none; }
  .grid { stroke: #ddd; stroke-width: 0.5; fill: none; }
  .lbl { fill: #333; }
  .lbl-l { fill: #0066cc; }
  .lbl-r { fill: #b03030; }
  .lbl-s { fill: #cc7000; }
  .obs { fill: #222; }
  .err { stroke: #555; stroke-width: 0.8; fill: none; }
  .fw { stroke: #0066cc; stroke-width: 2.2; fill: none; }
  .nt { stroke: #cc6600; stroke-width: 1.6; fill: none; stroke-dasharray: 5,3; }
  .rho { stroke: #b03030; stroke-width: 2.0; fill: none; }
  .sig { stroke: #cc7000; stroke-width: 1.8; fill: none; }
  .title { fill: #111; font-size: 16px; font-weight: 600; }
  .subtitle { fill: #555; font-size: 11px; }
  .legend { font-size: 11px; }
  .preview-bg { fill: #000; }
  .preview-lbl { fill: #888; font-size: 10px; }
</style>
<text x="343.5" y="22" text-anchor="middle" class="title">F571-V1</text>
<text x="343.5" y="38" text-anchor="middle" class="subtitle">rMax=13.6 kpc, N=7, RMS=0.8 km/s (1.1%), amp=103</text>
<line x1="70" y1="365.0" x2="617" y2="365.0" class="grid"/>
<text x="64" y="369.0" text-anchor="end" class="lbl-l">0</text>
<line x1="70" y1="303.0" x2="617" y2="303.0" class="grid"/>
<text x="64" y="307.0" text-anchor="end" class="lbl-l">20</text>
<line x1="70" y1="241.0" x2="617" y2="241.0" class="grid"/>
<text x="64" y="245.0" text-anchor="end" class="lbl-l">40</text>
<line x1="70" y1="179.0" x2="617" y2="179.0" class="grid"/>
<text x="64" y="183.0" text-anchor="end" class="lbl-l">60</text>
<line x1="70" y1="116.99999999999999" x2="617" y2="116.99999999999999" class="grid"/>
<text x="64" y="120.99999999999999" text-anchor="end" class="lbl-l">79</text>
<line x1="70" y1="55.0" x2="617" y2="55.0" class="grid"/>
<text x="64" y="59.0" text-anchor="end" class="lbl-l">99</text>
<text x="623" y="369.0" text-anchor="start" class="lbl-r">0.0</text>
<text x="623" y="327.6666666666667" text-anchor="start" class="lbl-r">0.2</text>
<text x="623" y="286.33333333333337" text-anchor="start" class="lbl-r">0.4</text>
<text x="623" y="245.00000000000003" text-anchor="start" class="lbl-r">0.6</text>
<text x="623" y="203.66666666666666" text-anchor="start" class="lbl-r">0.8</text>
<text x="623" y="162.33333333333334" text-anchor="start" class="lbl-r">1.0</text>
<line x1="70.0" y1="55" x2="70.0" y2="365" class="grid"/>
<text x="70.0" y="381" text-anchor="middle" class="lbl">0.0</text>
<line x1="161.16666666666669" y1="55" x2="161.16666666666669" y2="365" class="grid"/>
<text x="161.16666666666669" y="381" text-anchor="middle" class="lbl">2.7</text>
<line x1="252.33333333333334" y1="55" x2="252.33333333333334" y2="365" class="grid"/>
<text x="252.33333333333334" y="381" text-anchor="middle" class="lbl">5.4</text>
<line x1="343.5" y1="55" x2="343.5" y2="365" class="grid"/>
<text x="343.5" y="381" text-anchor="middle" class="lbl">8.1</text>
<line x1="434.6666666666667" y1="55" x2="434.6666666666667" y2="365" class="grid"/>
<text x="434.6666666666667" y="381" text-anchor="middle" class="lbl">10.9</text>
<line x1="525.8333333333333" y1="55" x2="525.8333333333333" y2="365" class="grid"/>
<text x="525.8333333333333" y="381" text-anchor="middle" class="lbl">13.6</text>
<line x1="617.0" y1="55" x2="617.0" y2="365" class="grid"/>
<text x="617.0" y="381" text-anchor="middle" class="lbl">16.3</text>
<text x="343.5" y="397" text-anchor="middle" class="lbl">radius (kpc)</text>
<text x="16" y="210.0" text-anchor="middle" class="lbl-l" transform="rotate(-90, 16, 210.0)">velocity (km/s)</text>
<text x="661" y="210.0" text-anchor="middle" class="lbl-r" transform="rotate(-90, 661, 210.0)">mass profile (normalized to peak)</text>
<rect x="70" y="55" width="547" height="310" class="ax"/>
<path d="M 70.0,158.3 L 72.5,181.8 L 75.0,205.3 L 77.5,228.8 L 80.0,248.4 L 82.5,248.4 L 85.0,248.4 L 87.5,248.4 L 90.0,248.4 L 92.5,248.4 L 95.0,248.4 L 97.5,248.4 L 100.0,248.4 L 102.5,248.4 L 105.0,248.4 L 107.5,248.4 L 110.0,248.4 L 112.5,248.4 L 115.0,248.4 L 117.5,248.4 L 120.0,248.4 L 122.5,248.4 L 124.9,248.4 L 127.4,248.4 L 129.9,248.4 L 132.4,248.4 L 134.9,248.4 L 137.4,248.4 L 139.9,248.4 L 142.4,248.4 L 144.9,248.6 L 147.4,249.1 L 149.9,249.7 L 152.4,250.3 L 154.9,250.9 L 157.4,251.5 L 159.9,252.1 L 162.4,252.6 L 164.9,253.2 L 167.4,253.8 L 169.9,254.4 L 172.4,255.0 L 174.9,255.6 L 177.4,256.2 L 179.9,256.7 L 182.4,257.3 L 184.9,257.9 L 187.4,258.5 L 189.9,259.1 L 192.4,259.7 L 194.9,260.2 L 197.4,260.8 L 199.9,261.4 L 202.4,262.0 L 204.9,262.6 L 207.4,263.2 L 209.9,263.7 L 212.4,264.3 L 214.9,264.9 L 217.4,265.5 L 219.9,266.1 L 222.4,266.7 L 224.9,267.2 L 227.4,267.8 L 229.9,268.4 L 232.4,269.0 L 234.8,269.6 L 237.3,270.2 L 239.8,270.7 L 242.3,271.3 L 244.8,271.9 L 247.3,272.4 L 249.8,272.8 L 252.3,273.2 L 254.8,273.7 L 257.3,274.1 L 259.8,274.5 L 262.3,274.9 L 264.8,275.3 L 267.3,275.7 L 269.8,276.2 L 272.3,276.6 L 274.8,277.0 L 277.3,277.4 L 279.8,277.8 L 282.3,278.2 L 284.8,278.7 L 287.3,279.1 L 289.8,279.5 L 292.3,279.9 L 294.8,280.3 L 297.3,280.7 L 299.8,281.2 L 302.3,281.6 L 304.8,282.0 L 307.3,282.4 L 309.8,282.8 L 312.3,283.2 L 314.8,283.7 L 317.3,284.1 L 319.8,284.5 L 322.3,284.9 L 324.8,285.3 L 327.3,285.7 L 329.8,286.2 L 332.3,286.6 L 334.8,287.0 L 337.3,287.4 L 339.8,287.8 L 342.3,288.2 L 344.7,288.7 L 347.2,289.1 L 349.7,289.5 L 352.2,289.9 L 354.7,290.3 L 357.2,290.7 L 359.7,291.2 L 362.2,291.6 L 364.7,292.0 L 367.2,292.4 L 369.7,292.8 L 372.2,293.2 L 374.7,293.7 L 377.2,294.1 L 379.7,294.5 L 382.2,294.9 L 384.7,295.3 L 387.2,295.7 L 389.7,296.1 L 392.2,296.6 L 394.7,297.0 L 397.2,297.4 L 399.7,297.8 L 402.2,298.2 L 404.7,298.6 L 407.2,299.1 L 409.7,299.5 L 412.2,299.9 L 414.7,300.3 L 417.2,300.7 L 419.7,301.1 L 422.2,301.6 L 424.7,302.0 L 427.2,302.4 L 429.7,302.8 L 432.2,303.2 L 434.7,303.6 L 437.2,304.1 L 439.7,304.5 L 442.2,304.9 L 444.7,305.3 L 447.2,305.7 L 449.7,306.1 L 452.2,306.6 L 454.6,307.0 L 457.1,307.4 L 459.6,307.8 L 462.1,308.2 L 464.6,308.6 L 467.1,309.1 L 469.6,309.5 L 472.1,309.9 L 474.6,310.3 L 477.1,310.7 L 479.6,311.1 L 482.1,311.6 L 484.6,312.0 L 487.1,312.4 L 489.6,312.8 L 492.1,313.2 L 494.6,313.6 L 497.1,314.1 L 499.6,314.5 L 502.1,315.7 L 504.6,317.1 L 507.1,318.4 L 509.6,319.8 L 512.1,321.2 L 514.6,322.6 L 517.1,324.0 L 519.6,325.4 L 522.1,326.8 L 524.6,328.1 L 527.1,329.5 L 529.6,330.9 L 532.1,332.3 L 534.6,333.7 L 537.1,335.1 L 539.6,336.5 L 542.1,337.9 L 544.6,339.2 L 547.1,340.6 L 549.6,342.0 L 552.1,343.4 L 554.6,344.8 L 557.1,346.2 L 559.6,347.6 L 562.1,349.0 L 564.5,350.3 L 567.0,351.7 L 569.5,353.1 L 572.0,354.5 L 574.5,355.9 L 577.0,357.3 L 579.5,358.7 L 582.0,360.0 L 584.5,361.4 L 587.0,362.8 L 589.5,364.2 L 592.0,365.0 L 594.5,365.0 L 597.0,365.0 L 599.5,365.0 L 602.0,365.0 L 604.5,365.0 L 607.0,365.0 L 609.5,365.0 L 612.0,365.0 L 614.5,365.0 L 617.0,365.0" class="rho"/>
<path d="M 70.0,158.3 L 72.5,158.4 L 75.0,158.5 L 77.5,158.7 L 80.0,158.9 L 82.5,159.2 L 85.0,159.5 L 87.5,159.8 L 90.0,160.2 L 92.5,160.5 L 95.0,160.9 L 97.5,161.3 L 100.0,161.7 L 102.5,162.1 L 105.0,162.5 L 107.5,162.9 L 110.0,163.4 L 112.5,163.8 L 115.0,164.3 L 117.5,164.8 L 120.0,165.4 L 122.5,165.9 L 124.9,166.5 L 127.4,167.1 L 129.9,167.8 L 132.4,168.4 L 134.9,169.1 L 137.4,169.8 L 139.9,170.6 L 142.4,171.4 L 144.9,172.2 L 147.4,173.0 L 149.9,173.9 L 152.4,174.8 L 154.9,175.7 L 157.4,176.7 L 159.9,177.6 L 162.4,178.6 L 164.9,179.7 L 167.4,180.7 L 169.9,181.7 L 172.4,182.8 L 174.9,183.9 L 177.4,185.0 L 179.9,186.1 L 182.4,187.3 L 184.9,188.4 L 187.4,189.6 L 189.9,190.7 L 192.4,191.9 L 194.9,193.1 L 197.4,194.3 L 199.9,195.5 L 202.4,196.7 L 204.9,197.9 L 207.4,199.1 L 209.9,200.3 L 212.4,201.5 L 214.9,202.8 L 217.4,204.0 L 219.9,205.2 L 222.4,206.5 L 224.9,207.7 L 227.4,208.9 L 229.9,210.1 L 232.4,211.4 L 234.8,212.6 L 237.3,213.8 L 239.8,215.0 L 242.3,216.2 L 244.8,217.5 L 247.3,218.7 L 249.8,219.9 L 252.3,221.1 L 254.8,222.3 L 257.3,223.5 L 259.8,224.6 L 262.3,225.8 L 264.8,227.0 L 267.3,228.2 L 269.8,229.3 L 272.3,230.5 L 274.8,231.7 L 277.3,232.8 L 279.8,234.0 L 282.3,235.1 L 284.8,236.3 L 287.3,237.4 L 289.8,238.5 L 292.3,239.7 L 294.8,240.8 L 297.3,241.9 L 299.8,243.0 L 302.3,244.1 L 304.8,245.3 L 307.3,246.4 L 309.8,247.5 L 312.3,248.6 L 314.8,249.7 L 317.3,250.8 L 319.8,251.8 L 322.3,252.9 L 324.8,254.0 L 327.3,255.1 L 329.8,256.1 L 332.3,257.2 L 334.8,258.3 L 337.3,259.3 L 339.8,260.4 L 342.3,261.4 L 344.7,262.5 L 347.2,263.5 L 349.7,264.5 L 352.2,265.6 L 354.7,266.6 L 357.2,267.6 L 359.7,268.6 L 362.2,269.7 L 364.7,270.7 L 367.2,271.7 L 369.7,272.7 L 372.2,273.7 L 374.7,274.6 L 377.2,275.6 L 379.7,276.6 L 382.2,277.6 L 384.7,278.5 L 387.2,279.5 L 389.7,280.5 L 392.2,281.4 L 394.7,282.4 L 397.2,283.3 L 399.7,284.3 L 402.2,285.2 L 404.7,286.1 L 407.2,287.0 L 409.7,288.0 L 412.2,288.9 L 414.7,289.8 L 417.2,290.7 L 419.7,291.6 L 422.2,292.5 L 424.7,293.4 L 427.2,294.3 L 429.7,295.2 L 432.2,296.0 L 434.7,296.9 L 437.2,297.8 L 439.7,298.7 L 442.2,299.5 L 444.7,300.4 L 447.2,301.2 L 449.7,302.1 L 452.2,302.9 L 454.6,303.8 L 457.1,304.6 L 459.6,305.5 L 462.1,306.3 L 464.6,307.1 L 467.1,307.9 L 469.6,308.8 L 472.1,309.6 L 474.6,310.4 L 477.1,311.2 L 479.6,312.1 L 482.1,312.9 L 484.6,313.7 L 487.1,314.5 L 489.6,315.3 L 492.1,316.1 L 494.6,316.9 L 497.1,317.8 L 499.6,318.6 L 502.1,319.4 L 504.6,320.2 L 507.1,321.0 L 509.6,321.8 L 512.1,322.6 L 514.6,323.4 L 517.1,324.2 L 519.6,324.9 L 522.1,325.7 L 524.6,326.5 L 527.1,327.2 L 529.6,327.9 L 532.1,328.7 L 534.6,329.4 L 537.1,330.1 L 539.6,330.7 L 542.1,331.4 L 544.6,332.0 L 547.1,332.7 L 549.6,333.3 L 552.1,333.9 L 554.6,334.5 L 557.1,335.0 L 559.6,335.6 L 562.1,336.1 L 564.5,336.6 L 567.0,337.1 L 569.5,337.6 L 572.0,338.1 L 574.5,338.5 L 577.0,339.0 L 579.5,339.4 L 582.0,339.8 L 584.5,340.2 L 587.0,340.6 L 589.5,341.0 L 592.0,341.3 L 594.5,341.7 L 597.0,342.0 L 599.5,342.3 L 602.0,342.7 L 604.5,343.0 L 607.0,343.3 L 609.5,343.6 L 612.0,343.9 L 614.5,344.2 L 617.0,344.4" class="sig"/>
<path d="M 75.5,319.0 L 80.9,306.5 L 86.4,296.7 L 91.9,287.5 L 97.3,279.1 L 102.8,271.4 L 108.3,264.2 L 113.8,257.4 L 119.2,251.0 L 124.7,245.0 L 130.2,239.2 L 135.6,233.7 L 141.1,228.4 L 146.6,223.3 L 152.1,218.4 L 157.5,213.8 L 163.0,209.5 L 168.5,205.3 L 173.9,201.3 L 179.4,197.5 L 184.9,193.8 L 190.3,190.3 L 195.8,186.9 L 201.3,183.6 L 206.8,180.5 L 212.2,177.4 L 217.7,174.5 L 223.2,171.7 L 228.6,169.0 L 234.1,166.3 L 239.6,163.8 L 245.0,161.3 L 250.5,158.9 L 256.0,156.6 L 261.4,154.3 L 266.9,152.1 L 272.4,150.0 L 277.9,147.8 L 283.3,145.8 L 288.8,143.8 L 294.3,141.8 L 299.7,139.9 L 305.2,138.0 L 310.7,136.2 L 316.1,134.5 L 321.6,132.7 L 327.1,131.0 L 332.6,129.4 L 338.0,127.8 L 343.5,126.2 L 349.0,124.7 L 354.4,123.2 L 359.9,121.8 L 365.4,120.4 L 370.9,119.0 L 376.3,117.7 L 381.8,116.4 L 387.3,115.1 L 392.7,113.9 L 398.2,112.7 L 403.7,111.5 L 409.1,110.4 L 414.6,109.3 L 420.1,108.2 L 425.6,107.2 L 431.0,106.2 L 436.5,105.3 L 442.0,104.3 L 447.4,103.4 L 452.9,102.6 L 458.4,101.7 L 463.8,100.9 L 469.3,100.2 L 474.8,99.4 L 480.2,98.7 L 485.7,98.0 L 491.2,97.4 L 496.7,96.7 L 502.1,96.1 L 507.6,95.7 L 513.1,95.3 L 518.5,95.1 L 524.0,94.9 L 529.5,94.9 L 535.0,95.0 L 540.4,95.3 L 545.9,95.6 L 551.4,96.1 L 556.8,96.7 L 562.3,97.4 L 567.8,98.2 L 573.2,99.1 L 578.7,100.2 L 584.2,101.3 L 589.6,102.6 L 595.1,104.0 L 600.6,105.3 L 606.1,106.7 L 611.5,108.0 L 617.0,109.3" class="nt"/>
<path d="M 74.6,352.9 L 79.1,344.1 L 83.7,335.9 L 88.2,329.2 L 92.8,323.4 L 97.3,318.1 L 101.9,312.7 L 106.5,307.1 L 111.0,301.3 L 115.6,295.2 L 120.1,288.8 L 124.7,282.2 L 129.3,275.4 L 133.8,268.4 L 138.4,261.3 L 142.9,254.1 L 147.5,246.9 L 152.1,240.0 L 156.6,233.3 L 161.2,226.9 L 165.7,220.8 L 170.3,215.0 L 174.8,209.5 L 179.4,204.3 L 184.0,199.3 L 188.5,194.6 L 193.1,190.1 L 197.6,185.9 L 202.2,181.8 L 206.8,178.0 L 211.3,174.4 L 215.9,171.0 L 220.4,167.8 L 225.0,164.8 L 229.5,162.0 L 234.1,159.4 L 238.7,157.0 L 243.2,154.8 L 247.8,152.7 L 252.3,150.7 L 256.9,148.8 L 261.5,146.9 L 266.0,145.1 L 270.6,143.3 L 275.1,141.5 L 279.7,139.8 L 284.2,138.1 L 288.8,136.4 L 293.4,134.8 L 297.9,133.2 L 302.5,131.7 L 307.0,130.2 L 311.6,128.7 L 316.1,127.3 L 320.7,126.0 L 325.3,124.7 L 329.8,123.4 L 334.4,122.2 L 338.9,121.0 L 343.5,119.9 L 348.1,118.9 L 352.6,117.9 L 357.2,116.9 L 361.7,116.0 L 366.3,115.1 L 370.9,114.3 L 375.4,113.5 L 380.0,112.7 L 384.5,112.0 L 389.1,111.4 L 393.6,110.7 L 398.2,110.1 L 402.8,109.6 L 407.3,109.0 L 411.9,108.5 L 416.4,108.0 L 421.0,107.6 L 425.5,107.1 L 430.1,106.6 L 434.7,106.2 L 439.2,105.7 L 443.8,105.3 L 448.3,104.8 L 452.9,104.2 L 457.5,103.6 L 462.0,103.0 L 466.6,102.3 L 471.1,101.4 L 475.7,100.5 L 480.2,99.4 L 484.8,98.2 L 489.4,96.9 L 493.9,95.7 L 498.5,94.5 L 503.0,93.6 L 507.6,93.2 L 512.2,93.4 L 516.7,94.2 L 521.3,95.7 L 525.8,97.8 L 530.4,100.6 L 535.0,104.0 L 539.5,107.8 L 544.1,112.1 L 548.6,116.8 L 553.2,121.7 L 557.7,127.0 L 562.3,132.4 L 566.9,138.0 L 571.4,143.5 L 576.0,149.0 L 580.5,154.4 L 585.1,159.6 L 589.7,164.5 L 594.2,169.2 L 598.8,173.5 L 603.3,177.6 L 607.9,181.5 L 612.4,185.1 L 617.0,188.5" class="fw"/>
<line x1="135.5130075703408" y1="233.92177589852008" x2="135.5130075703408" y2="296.33997785160574" class="err"/>
<line x1="132.5130075703408" y1="233.92177589852008" x2="138.5130075703408" y2="233.92177589852008" class="err"/>
<line x1="132.5130075703408" y1="296.33997785160574" x2="138.5130075703408" y2="296.33997785160574" class="err"/>
<circle cx="135.5130075703408" cy="265.1308768750629" r="2.5" class="obs"/>
<line x1="200.35408685790884" y1="154.02647739857042" x2="200.35408685790884" y2="216.44467935165608" class="err"/>
<line x1="197.35408685790884" y1="154.02647739857042" x2="203.35408685790884" y2="154.02647739857042" class="err"/>
<line x1="197.35408685790884" y1="216.44467935165608" x2="203.35408685790884" y2="216.44467935165608" class="err"/>
<circle cx="200.35408685790884" cy="185.23557837511325" r="2.5" class="obs"/>
<line x1="265.86709442824963" y1="121.88110339273128" x2="265.86709442824963" y2="165.57384475989124" class="err"/>
<line x1="262.86709442824963" y1="121.88110339273128" x2="268.86709442824963" y2="121.88110339273128" class="err"/>
<line x1="262.86709442824963" y1="165.57384475989124" x2="268.86709442824963" y2="165.57384475989124" class="err"/>
<circle cx="265.86709442824963" cy="143.72747407631124" r="2.5" class="obs"/>
<line x1="331.3801019985905" y1="105.96446189469444" x2="331.3801019985905" y2="143.41538306654584" class="err"/>
<line x1="328.3801019985905" y1="105.96446189469444" x2="334.3801019985905" y2="105.96446189469444" class="err"/>
<line x1="328.3801019985905" y1="143.41538306654584" x2="334.3801019985905" y2="143.41538306654584" class="err"/>
<circle cx="331.3801019985905" cy="124.68992248062014" r="2.5" class="obs"/>
<line x1="396.55714542754487" y1="88.79945635759589" x2="396.55714542754487" y2="126.25037752944729" class="err"/>
<line x1="393.55714542754487" y1="88.79945635759589" x2="399.55714542754487" y2="88.79945635759589" class="err"/>
<line x1="393.55714542754487" y1="126.25037752944729" x2="399.55714542754487" y2="126.25037752944729" class="err"/>
<circle cx="396.55714542754487" cy="107.52491694352159" r="2.5" class="obs"/>
<line x1="461.7341888564993" y1="83.18181818181819" x2="461.7341888564993" y2="120.63273935366959" class="err"/>
<line x1="458.7341888564993" y1="83.18181818181819" x2="464.7341888564993" y2="83.18181818181819" class="err"/>
<line x1="458.7341888564993" y1="120.63273935366959" x2="464.7341888564993" y2="120.63273935366959" class="err"/>
<circle cx="461.7341888564993" cy="101.90727876774389" r="2.5" class="obs"/>
<line x1="526.5752681440674" y1="84.43018222087987" x2="526.5752681440674" y2="121.88110339273128" class="err"/>
<line x1="523.5752681440674" y1="84.43018222087987" x2="529.5752681440674" y2="84.43018222087987" class="err"/>
<line x1="523.5752681440674" y1="121.88110339273128" x2="529.5752681440674" y2="121.88110339273128" class="err"/>
<circle cx="526.5752681440674" cy="103.15564280680557" r="2.5" class="obs"/>
<g class="legend">
<line x1="82" y1="69" x2="106" y2="69" class="fw"/>
<text x="112" y="73" class="lbl-l">framework fit</text>
<line x1="82" y1="87" x2="106" y2="87" class="nt"/>
<text x="112" y="91" class="lbl-l">Newtonian (no halo)</text>
<circle cx="94" cy="105" r="2.5" class="obs"/>
<text x="112" y="109" class="lbl">observed V±err</text>
</g>
<g class="legend">
<line x1="472" y1="69" x2="496" y2="69" class="rho"/>
<text x="502" y="73" class="lbl-r">ρ(r) raw</text>
<line x1="472" y1="87" x2="496" y2="87" class="sig"/>
<text x="502" y="91" class="lbl-s">Σ(r) cumulative</text>
<text x="472" y="113" class="lbl-r">ρ peak: 118 M☉/pc²</text>
</g>
<rect x="705" y="55" width="170" height="170" class="preview-bg"/>
<defs><radialGradient id="g_F571_V1" cx="0.5" cy="0.5" r="0.5">
  <stop offset="0.0000" stop-color="rgb(68,68,68)"/>
  <stop offset="0.0312" stop-color="rgb(42,42,42)"/>
  <stop offset="0.0625" stop-color="rgb(42,42,42)"/>
  <stop offset="0.0938" stop-color="rgb(42,42,42)"/>
  <stop offset="0.1250" stop-color="rgb(42,42,42)"/>
  <stop offset="0.1562" stop-color="rgb(41,41,41)"/>
  <stop offset="0.1875" stop-color="rgb(40,40,40)"/>
  <stop offset="0.2188" stop-color="rgb(39,39,39)"/>
  <stop offset="0.2500" stop-color="rgb(37,37,37)"/>
  <stop offset="0.2812" stop-color="rgb(36,36,36)"/>
  <stop offset="0.3125" stop-color="rgb(34,34,34)"/>
  <stop offset="0.3438" stop-color="rgb(33,33,33)"/>
  <stop offset="0.3750" stop-color="rgb(32,32,32)"/>
  <stop offset="0.4062" stop-color="rgb(31,31,31)"/>
  <stop offset="0.4375" stop-color="rgb(30,30,30)"/>
  <stop offset="0.4688" stop-color="rgb(29,29,29)"/>
  <stop offset="0.5000" stop-color="rgb(28,28,28)"/>
  <stop offset="0.5312" stop-color="rgb(27,27,27)"/>
  <stop offset="0.5625" stop-color="rgb(26,26,26)"/>
  <stop offset="0.5938" stop-color="rgb(25,25,25)"/>
  <stop offset="0.6250" stop-color="rgb(24,24,24)"/>
  <stop offset="0.6562" stop-color="rgb(23,23,23)"/>
  <stop offset="0.6875" stop-color="rgb(22,22,22)"/>
  <stop offset="0.7188" stop-color="rgb(21,21,21)"/>
  <stop offset="0.7500" stop-color="rgb(20,20,20)"/>
  <stop offset="0.7812" stop-color="rgb(19,19,19)"/>
  <stop offset="0.8125" stop-color="rgb(18,18,18)"/>
  <stop offset="0.8438" stop-color="rgb(16,16,16)"/>
  <stop offset="0.8750" stop-color="rgb(13,13,13)"/>
  <stop offset="0.9062" stop-color="rgb(9,9,9)"/>
  <stop offset="0.9375" stop-color="rgb(6,6,6)"/>
  <stop offset="0.9688" stop-color="rgb(3,3,3)"/>
  <stop offset="1.0000" stop-color="rgb(0,0,0)"/>
</radialGradient></defs>
<circle cx="790.0" cy="140.0" r="81.0" fill="url(#g_F571_V1)"/>
<text x="790.0" y="49" text-anchor="middle" class="preview-lbl">face-on luminance from ρ(r)</text>
<text x="790.0" y="239" text-anchor="middle" class="preview-lbl">edge at r = 15.5 kpc</text>
</svg>