<svg xmlns="http://www.w3.org/2000/svg" viewBox="0 0 960 450" width="960" height="450" font-family="sans-serif" font-size="12">
<style>
  .ax { stroke: #333; stroke-width: 1; fill: none; }
  .grid { stroke: #ddd; stroke-width: 0.5; fill: none; }
  .lbl { fill: #333; }
  .lbl-l { fill: #0066cc; }
  .lbl-r { fill: #b03030; }
  .obs { fill: #222; }
  .err { stroke: #555; stroke-width: 0.8; fill: none; }
  .fw { stroke: #0066cc; stroke-width: 2.2; fill: none; }
  .nt { stroke: #cc6600; stroke-width: 1.6; fill: none; stroke-dasharray: 5,3; }
  .mond { stroke: #7b2cbf; stroke-width: 1.8; fill: none; stroke-dasharray: 7,3; }
  .lbl-p { fill: #cc7000; }
  .lbl-m { fill: #7b2cbf; }
  .rho { stroke: #b03030; stroke-width: 2.0; fill: none; }
  .phot { stroke: #cc7000; stroke-width: 1.8; fill: none; }
  .mbar { stroke: #8e44ad; stroke-width: 1.8; fill: none; opacity: 0.9; }
  .mph { stroke: #c77dff; stroke-width: 1.6; fill: none; stroke-dasharray: 4,3; opacity: 0.95; }
  .title { fill: #111; font-size: 16px; font-weight: 600; }
  .subtitle { fill: #555; font-size: 11px; }
  .preview-bg { fill: #000; }
  .preview-lbl { fill: #888; font-size: 10px; }
  .legend { font-size: 11px; }
</style>
<text x="378.5" y="22" text-anchor="middle" class="title">F571-8</text>
<text x="378.5" y="38" text-anchor="middle" class="subtitle">rMax=15.6 kpc, N=13, FW=2.9 km/s, 8.5%, 0.52σ, MOND=27.9 km/s, 63.2%, 6.37σ, amp=264</text>
<line x1="70" y1="395.0" x2="687" y2="395.0" class="grid"/>
<text x="64" y="399.0" text-anchor="end" class="lbl-l">0</text>
<line x1="70" y1="327.0" x2="687" y2="327.0" class="grid"/>
<text x="64" y="331.0" text-anchor="end" class="lbl-l">33</text>
<line x1="70" y1="259.0" x2="687" y2="259.0" class="grid"/>
<text x="64" y="263.0" text-anchor="end" class="lbl-l">66</text>
<line x1="70" y1="191.0" x2="687" y2="191.0" class="grid"/>
<text x="64" y="195.0" text-anchor="end" class="lbl-l">98</text>
<line x1="70" y1="123.0" x2="687" y2="123.0" class="grid"/>
<text x="64" y="127.0" text-anchor="end" class="lbl-l">131</text>
<line x1="70" y1="55.0" x2="687" y2="55.0" class="grid"/>
<text x="64" y="59.0" text-anchor="end" class="lbl-l">164</text>
<text x="693" y="399.0" text-anchor="start" class="lbl-r">0.0</text>
<text x="693" y="353.7" text-anchor="start" class="lbl-r">0.2</text>
<text x="693" y="308.3" text-anchor="start" class="lbl-r">0.4</text>
<text x="693" y="263.0" text-anchor="start" class="lbl-r">0.6</text>
<text x="693" y="217.7" text-anchor="start" class="lbl-r">0.8</text>
<text x="693" y="172.3" text-anchor="start" class="lbl-r">1.0</text>
<line x1="70.0" y1="55" x2="70.0" y2="395" class="grid"/>
<text x="70.0" y="411" text-anchor="middle" class="lbl">0.0</text>
<line x1="172.8" y1="55" x2="172.8" y2="395" class="grid"/>
<text x="172.8" y="411" text-anchor="middle" class="lbl">2.7</text>
<line x1="275.7" y1="55" x2="275.7" y2="395" class="grid"/>
<text x="275.7" y="411" text-anchor="middle" class="lbl">5.4</text>
<line x1="378.5" y1="55" x2="378.5" y2="395" class="grid"/>
<text x="378.5" y="411" text-anchor="middle" class="lbl">8.2</text>
<line x1="481.3" y1="55" x2="481.3" y2="395" class="grid"/>
<text x="481.3" y="411" text-anchor="middle" class="lbl">10.9</text>
<line x1="584.2" y1="55" x2="584.2" y2="395" class="grid"/>
<text x="584.2" y="411" text-anchor="middle" class="lbl">13.6</text>
<line x1="687.0" y1="55" x2="687.0" y2="395" class="grid"/>
<text x="687.0" y="411" text-anchor="middle" class="lbl">16.3</text>
<text x="378.5" y="438" text-anchor="middle" class="lbl">radius (kpc)</text>
<text x="16" y="225" text-anchor="middle" class="lbl-l" transform="rotate(-90, 16, 225)">velocity (km/s)</text>
<text x="724" y="225" text-anchor="middle" class="lbl-r" transform="rotate(-90, 724, 225)">profiles (normalized to peak)</text>
<rect x="70" y="55" width="617" height="340" class="ax"/>
<path d="M 70.0,168.3 L 72.8,182.3 L 75.6,196.4 L 78.5,210.4 L 81.3,224.4 L 84.1,238.4 L 86.9,252.4 L 89.7,266.4 L 92.5,271.2 L 95.4,272.1 L 98.2,273.1 L 101.0,274.1 L 103.8,275.1 L 106.6,276.0 L 109.4,277.0 L 112.3,278.0 L 115.1,278.9 L 117.9,279.9 L 120.7,280.9 L 123.5,281.8 L 126.3,282.8 L 129.2,283.8 L 132.0,284.3 L 134.8,284.7 L 137.6,285.1 L 140.4,285.5 L 143.3,285.9 L 146.1,286.4 L 148.9,286.8 L 151.7,287.2 L 154.5,287.6 L 157.3,288.0 L 160.2,288.4 L 163.0,288.8 L 165.8,289.3 L 168.6,289.7 L 171.4,290.1 L 174.2,290.5 L 177.1,290.9 L 179.9,291.3 L 182.7,291.7 L 185.5,292.2 L 188.3,292.6 L 191.1,293.0 L 194.0,293.4 L 196.8,293.8 L 199.6,294.2 L 202.4,294.6 L 205.2,295.1 L 208.1,295.5 L 210.9,295.9 L 213.7,296.3 L 216.5,296.7 L 219.3,297.1 L 222.1,297.5 L 225.0,298.0 L 227.8,298.4 L 230.6,298.8 L 233.4,299.2 L 236.2,299.6 L 239.0,300.0 L 241.9,300.4 L 244.7,300.9 L 247.5,301.3 L 250.3,301.7 L 253.1,302.1 L 255.9,302.5 L 258.8,302.9 L 261.6,303.3 L 264.4,303.7 L 267.2,304.1 L 270.0,304.5 L 272.8,304.8 L 275.7,305.2 L 278.5,305.5 L 281.3,305.9 L 284.1,306.3 L 286.9,306.6 L 289.8,307.0 L 292.6,307.3 L 295.4,307.7 L 298.2,308.1 L 301.0,308.4 L 303.8,308.8 L 306.7,309.1 L 309.5,309.5 L 312.3,309.9 L 315.1,310.2 L 317.9,310.6 L 320.7,310.9 L 323.6,311.3 L 326.4,311.6 L 329.2,312.0 L 332.0,312.4 L 334.8,312.7 L 337.6,313.1 L 340.5,313.4 L 343.3,313.8 L 346.1,314.2 L 348.9,314.5 L 351.7,314.9 L 354.6,315.2 L 357.4,315.6 L 360.2,316.0 L 363.0,316.3 L 365.8,316.7 L 368.6,317.0 L 371.5,317.4 L 374.3,317.7 L 377.1,318.1 L 379.9,318.5 L 382.7,318.8 L 385.5,319.2 L 388.4,319.5 L 391.2,319.9 L 394.0,320.3 L 396.8,320.6 L 399.6,321.0 L 402.4,321.3 L 405.3,321.7 L 408.1,322.1 L 410.9,322.4 L 413.7,322.8 L 416.5,323.1 L 419.4,323.5 L 422.2,323.8 L 425.0,324.2 L 427.8,324.6 L 430.6,324.9 L 433.4,325.3 L 436.3,325.6 L 439.1,326.0 L 441.9,326.4 L 444.7,326.7 L 447.5,327.1 L 450.3,327.4 L 453.2,327.8 L 456.0,328.2 L 458.8,328.5 L 461.6,328.9 L 464.4,329.2 L 467.2,329.6 L 470.1,330.0 L 472.9,330.3 L 475.7,330.7 L 478.5,331.0 L 481.3,331.4 L 484.2,331.7 L 487.0,332.1 L 489.8,332.5 L 492.6,332.8 L 495.4,333.2 L 498.2,333.5 L 501.1,333.9 L 503.9,334.3 L 506.7,334.6 L 509.5,335.0 L 512.3,335.3 L 515.1,335.7 L 518.0,336.1 L 520.8,336.4 L 523.6,336.8 L 526.4,337.1 L 529.2,337.5 L 532.0,337.8 L 534.9,338.2 L 537.7,338.6 L 540.5,338.9 L 543.3,339.3 L 546.1,339.6 L 548.9,340.0 L 551.8,340.4 L 554.6,340.7 L 557.4,341.1 L 560.2,341.4 L 563.0,341.8 L 565.9,342.2 L 568.7,342.5 L 571.5,342.9 L 574.3,343.2 L 577.1,343.6 L 579.9,343.9 L 582.8,344.3 L 585.6,344.7 L 588.4,345.0 L 591.2,345.4 L 594.0,345.7 L 596.8,346.1 L 599.7,346.5 L 602.5,346.8 L 605.3,347.2 L 608.1,347.5 L 610.9,347.9 L 613.7,348.3 L 616.6,348.6 L 619.4,349.0 L 622.2,349.3 L 625.0,349.7 L 627.8,350.0 L 630.7,350.4 L 633.5,350.8 L 636.3,351.1 L 639.1,351.5 L 641.9,351.8 L 644.7,352.2 L 647.6,352.6 L 650.4,352.9 L 653.2,354.4 L 656.0,374.5 L 658.8,394.5 L 661.6,395.0 L 664.5,395.0 L 667.3,395.0 L 670.1,395.0 L 672.9,395.0 L 675.7,395.0 L 678.5,395.0 L 681.4,395.0 L 684.2,395.0 L 687.0,395.0" class="rho"/>
<path d="M 78.3,168.3 L 99.5,308.4 L 120.3,345.5 L 158.0,380.1 L 200.0,390.6 L 212.8,391.9 L 250.3,394.0 L 275.6,394.2 L 300.9,394.2 L 342.8,394.3 L 422.6,394.7 L 489.5,394.8 L 657.6,395.0" class="phot"/>
<path d="M 78.3,194.1 L 99.5,168.3 L 120.3,198.3 L 158.0,274.5 L 200.0,342.3 L 212.8,379.2 L 250.3,391.5 L 275.6,394.0 L 300.9,393.5 L 342.8,392.7 L 422.6,392.6 L 489.5,393.3 L 657.6,394.0" class="mbar"/>
<path d="M 78.3,174.0 L 99.5,168.3 L 120.3,175.2 L 158.0,200.3 L 200.0,235.1 L 212.8,266.7 L 250.3,289.8 L 275.6,305.7 L 300.9,315.5 L 342.8,323.4 L 422.6,332.8 L 489.5,343.3 L 657.6,351.9" class="mph"/>
<path d="M 76.2,339.8 L 82.3,320.9 L 88.5,309.4 L 94.7,301.5 L 100.8,293.9 L 107.0,286.5 L 113.2,279.6 L 119.4,273.1 L 125.5,267.0 L 131.7,261.3 L 137.9,255.9 L 144.0,250.7 L 150.2,245.6 L 156.4,240.8 L 162.6,236.1 L 168.7,231.6 L 174.9,227.3 L 181.1,223.1 L 187.2,219.1 L 193.4,215.1 L 199.6,211.3 L 205.7,207.7 L 211.9,204.1 L 218.1,200.7 L 224.3,197.3 L 230.4,194.0 L 236.6,190.9 L 242.8,187.8 L 248.9,184.8 L 255.1,181.9 L 261.3,179.1 L 267.4,176.3 L 273.6,173.6 L 279.8,171.0 L 285.9,168.5 L 292.1,165.9 L 298.3,163.5 L 304.5,161.1 L 310.6,158.8 L 316.8,156.5 L 323.0,154.3 L 329.1,152.1 L 335.3,150.0 L 341.5,147.9 L 347.7,145.8 L 353.8,143.9 L 360.0,141.9 L 366.2,140.0 L 372.3,138.2 L 378.5,136.3 L 384.7,134.6 L 390.8,132.8 L 397.0,131.1 L 403.2,129.5 L 409.4,127.9 L 415.5,126.3 L 421.7,124.8 L 427.9,123.3 L 434.0,121.8 L 440.2,120.4 L 446.4,119.0 L 452.5,117.6 L 458.7,116.3 L 464.9,115.0 L 471.1,113.7 L 477.2,112.5 L 483.4,111.3 L 489.6,110.1 L 495.7,109.0 L 501.9,107.9 L 508.1,106.8 L 514.2,105.8 L 520.4,104.8 L 526.6,103.8 L 532.8,102.8 L 538.9,101.9 L 545.1,101.0 L 551.3,100.2 L 557.4,99.3 L 563.6,98.5 L 569.8,97.7 L 575.9,97.0 L 582.1,96.3 L 588.3,95.6 L 594.4,94.9 L 600.6,94.2 L 606.8,93.6 L 613.0,93.0 L 619.1,92.5 L 625.3,91.9 L 631.5,91.4 L 637.6,90.9 L 643.8,90.5 L 650.0,90.1 L 656.1,89.8 L 662.3,91.4 L 668.5,92.9 L 674.7,94.4 L 680.8,95.9 L 687.0,97.5" class="nt"/>
<path d="M 78.3,323.2 L 99.5,242.0 L 120.3,205.5 L 158.0,174.5 L 200.0,169.4 L 212.8,170.5 L 250.3,176.9 L 275.6,179.3 L 300.9,181.6 L 342.8,181.7 L 422.6,182.2 L 489.5,180.8 L 657.6,181.0" class="mond"/>
<path d="M 75.1,371.9 L 80.3,355.9 L 85.4,339.8 L 90.6,326.1 L 95.7,314.9 L 100.8,305.9 L 106.0,298.3 L 111.1,291.8 L 116.3,285.9 L 121.4,280.4 L 126.6,275.3 L 131.7,270.3 L 136.8,265.6 L 142.0,260.9 L 147.1,256.2 L 152.3,251.6 L 157.4,247.0 L 162.6,242.4 L 167.7,237.8 L 172.8,233.3 L 178.0,228.8 L 183.1,224.4 L 188.3,220.1 L 193.4,215.8 L 198.5,211.7 L 203.7,207.6 L 208.8,203.7 L 214.0,199.8 L 219.1,196.1 L 224.3,192.4 L 229.4,188.9 L 234.5,185.5 L 239.7,182.2 L 244.8,179.1 L 250.0,176.0 L 255.1,173.1 L 260.2,170.3 L 265.4,167.6 L 270.5,164.9 L 275.7,162.4 L 280.8,159.9 L 285.9,157.4 L 291.1,155.1 L 296.2,152.7 L 301.4,150.5 L 306.5,148.2 L 311.7,146.1 L 316.8,144.0 L 321.9,141.9 L 327.1,139.9 L 332.2,138.0 L 337.4,136.1 L 342.5,134.3 L 347.7,132.6 L 352.8,130.9 L 357.9,129.2 L 363.1,127.7 L 368.2,126.1 L 373.4,124.7 L 378.5,123.3 L 383.6,121.9 L 388.8,120.6 L 393.9,119.4 L 399.1,118.2 L 404.2,117.1 L 409.3,116.0 L 414.5,115.0 L 419.6,114.0 L 424.8,113.1 L 429.9,112.3 L 435.1,111.5 L 440.2,110.7 L 445.3,110.0 L 450.5,109.3 L 455.6,108.7 L 460.8,108.2 L 465.9,107.7 L 471.1,107.2 L 476.2,106.8 L 481.3,106.4 L 486.5,106.0 L 491.6,105.7 L 496.8,105.4 L 501.9,105.2 L 507.0,105.0 L 512.2,104.8 L 517.3,104.7 L 522.5,104.6 L 527.6,104.5 L 532.8,104.4 L 537.9,104.3 L 543.0,104.3 L 548.2,104.2 L 553.3,104.1 L 558.5,104.0 L 563.6,103.9 L 568.7,103.7 L 573.9,103.5 L 579.0,103.2 L 584.2,102.9 L 589.3,102.4 L 594.4,101.8 L 599.6,101.0 L 604.7,100.0 L 609.9,98.9 L 615.0,97.4 L 620.2,95.7 L 625.3,93.8 L 630.4,91.7 L 635.6,89.8 L 640.7,88.3 L 645.9,87.6 L 651.0,88.6 L 656.1,91.1 L 661.3,95.6 L 666.4,101.6 L 671.6,108.8 L 676.7,116.6 L 681.9,124.7 L 687.0,132.5" class="fw"/>
<line x1="78.31" y1="354.76" x2="78.31" y2="383.80" class="err"/>
<line x1="75.31" y1="354.76" x2="81.31" y2="354.76" class="err"/>
<line x1="75.31" y1="383.80" x2="81.31" y2="383.80" class="err"/>
<circle cx="78.31" cy="369.28" r="2.5" class="obs"/>
<line x1="99.48" y1="308.91" x2="99.48" y2="325.51" class="err"/>
<line x1="96.48" y1="308.91" x2="102.48" y2="308.91" class="err"/>
<line x1="96.48" y1="325.51" x2="102.48" y2="325.51" class="err"/>
<circle cx="99.48" cy="317.21" r="2.5" class="obs"/>
<line x1="120.26" y1="269.50" x2="120.26" y2="286.09" class="err"/>
<line x1="117.26" y1="269.50" x2="123.26" y2="269.50" class="err"/>
<line x1="117.26" y1="286.09" x2="123.26" y2="286.09" class="err"/>
<circle cx="120.26" cy="277.79" r="2.5" class="obs"/>
<line x1="158.05" y1="243.36" x2="158.05" y2="259.95" class="err"/>
<line x1="155.05" y1="243.36" x2="161.05" y2="243.36" class="err"/>
<line x1="155.05" y1="259.95" x2="161.05" y2="259.95" class="err"/>
<circle cx="158.05" cy="251.66" r="2.5" class="obs"/>
<line x1="199.99" y1="202.08" x2="199.99" y2="233.19" class="err"/>
<line x1="196.99" y1="202.08" x2="202.99" y2="202.08" class="err"/>
<line x1="196.99" y1="233.19" x2="202.99" y2="233.19" class="err"/>
<circle cx="199.99" cy="217.64" r="2.5" class="obs"/>
<line x1="212.84" y1="196.89" x2="212.84" y2="231.74" class="err"/>
<line x1="209.84" y1="196.89" x2="215.84" y2="196.89" class="err"/>
<line x1="209.84" y1="231.74" x2="215.84" y2="231.74" class="err"/>
<circle cx="212.84" cy="214.32" r="2.5" class="obs"/>
<line x1="250.25" y1="168.89" x2="250.25" y2="185.48" class="err"/>
<line x1="247.25" y1="168.89" x2="253.25" y2="168.89" class="err"/>
<line x1="247.25" y1="185.48" x2="253.25" y2="185.48" class="err"/>
<circle cx="250.25" cy="177.18" r="2.5" class="obs"/>
<line x1="275.57" y1="148.76" x2="275.57" y2="176.56" class="err"/>
<line x1="272.57" y1="148.76" x2="278.57" y2="148.76" class="err"/>
<line x1="272.57" y1="176.56" x2="278.57" y2="176.56" class="err"/>
<circle cx="275.57" cy="162.66" r="2.5" class="obs"/>
<line x1="300.89" y1="146.07" x2="300.89" y2="162.66" class="err"/>
<line x1="297.89" y1="146.07" x2="303.89" y2="146.07" class="err"/>
<line x1="297.89" y1="162.66" x2="303.89" y2="162.66" class="err"/>
<circle cx="300.89" cy="154.37" r="2.5" class="obs"/>
<line x1="342.84" y1="129.47" x2="342.84" y2="146.07" class="err"/>
<line x1="339.84" y1="129.47" x2="345.84" y2="129.47" class="err"/>
<line x1="339.84" y1="146.07" x2="345.84" y2="146.07" class="err"/>
<circle cx="342.84" cy="137.77" r="2.5" class="obs"/>
<line x1="422.57" y1="106.65" x2="422.57" y2="123.25" class="err"/>
<line x1="419.57" y1="106.65" x2="425.57" y2="106.65" class="err"/>
<line x1="419.57" y1="123.25" x2="425.57" y2="123.25" class="err"/>
<circle cx="422.57" cy="114.95" r="2.5" class="obs"/>
<line x1="489.46" y1="96.28" x2="489.46" y2="112.88" class="err"/>
<line x1="486.46" y1="96.28" x2="492.46" y2="96.28" class="err"/>
<line x1="486.46" y1="112.88" x2="492.46" y2="112.88" class="err"/>
<circle cx="489.46" cy="104.58" r="2.5" class="obs"/>
<line x1="657.62" y1="85.91" x2="657.62" y2="106.65" class="err"/>
<line x1="654.62" y1="85.91" x2="660.62" y2="85.91" class="err"/>
<line x1="654.62" y1="106.65" x2="660.62" y2="106.65" class="err"/>
<circle cx="657.62" cy="96.28" r="2.5" class="obs"/>
<g class="legend">
<line x1="82" y1="69" x2="106" y2="69" class="fw"/>
<text x="112" y="73" class="lbl-l">framework: 2.9 km/s, 8.5%, 0.52σ</text>
<line x1="82" y1="87" x2="106" y2="87" class="nt"/>
<text x="112" y="91" class="lbl-l">Newtonian: 6.9 km/s, 41.1%, 1.31σ</text>
<line x1="82" y1="105" x2="106" y2="105" class="mond"/>
<text x="112" y="109" class="lbl-m">MOND/RAR: 27.9 km/s, 63.2%, 6.37σ</text>
<circle cx="94" cy="123" r="2.5" class="obs"/>
<text x="112" y="127" class="lbl">observed V±err</text>
</g>
<g class="legend">
<line x1="472" y1="69" x2="496" y2="69" class="rho"/>
<text x="502" y="73" class="lbl-r">ρ(r) raw</text>
<line x1="472" y1="87" x2="496" y2="87" class="phot"/>
<text x="502" y="91" class="lbl-p">photometric baryonic profile</text>
<line x1="472" y1="105" x2="496" y2="105" class="mbar"/>
<text x="502" y="109" class="lbl-m">MOND baryonic annulus</text>
<line x1="472" y1="123" x2="496" y2="123" class="mph"/>
<text x="502" y="127" class="lbl-m">MOND phantom annulus</text>
<text x="472" y="147" class="lbl-r">ρ peak: 353 M☉/pc²</text>
<text x="472" y="163" class="lbl-p">phot peak: 923.28 (arb.)</text>
<text x="472" y="179" class="lbl-m">Σbar peak: 309.90 M☉/pc²</text>
<text x="472" y="195" class="lbl-m">Σphantom peak: 162.99 M☉/pc²</text>
</g>
<rect x="775" y="55" width="170" height="170" class="preview-bg"/>
<defs><radialGradient id="g_F571_8" cx="0.5" cy="0.5" r="0.5">
  <stop offset="0.0000" stop-color="rgb(133,133,133)"/>
  <stop offset="0.0313" stop-color="rgb(94,94,94)"/>
  <stop offset="0.0625" stop-color="rgb(87,87,87)"/>
  <stop offset="0.0938" stop-color="rgb(84,84,84)"/>
  <stop offset="0.1250" stop-color="rgb(83,83,83)"/>
  <stop offset="0.1563" stop-color="rgb(82,82,82)"/>
  <stop offset="0.1875" stop-color="rgb(80,80,80)"/>
  <stop offset="0.2188" stop-color="rgb(79,79,79)"/>
  <stop offset="0.2500" stop-color="rgb(78,78,78)"/>
  <stop offset="0.2813" stop-color="rgb(77,77,77)"/>
  <stop offset="0.3125" stop-color="rgb(76,76,76)"/>
  <stop offset="0.3438" stop-color="rgb(75,75,75)"/>
  <stop offset="0.3750" stop-color="rgb(74,74,74)"/>
  <stop offset="0.4063" stop-color="rgb(73,73,73)"/>
  <stop offset="0.4375" stop-color="rgb(72,72,72)"/>
  <stop offset="0.4688" stop-color="rgb(71,71,71)"/>
  <stop offset="0.5000" stop-color="rgb(70,70,70)"/>
  <stop offset="0.5313" stop-color="rgb(69,69,69)"/>
  <stop offset="0.5625" stop-color="rgb(68,68,68)"/>
  <stop offset="0.5938" stop-color="rgb(67,67,67)"/>
  <stop offset="0.6250" stop-color="rgb(66,66,66)"/>
  <stop offset="0.6563" stop-color="rgb(65,65,65)"/>
  <stop offset="0.6875" stop-color="rgb(64,64,64)"/>
  <stop offset="0.7188" stop-color="rgb(62,62,62)"/>
  <stop offset="0.7500" stop-color="rgb(59,59,59)"/>
  <stop offset="0.7813" stop-color="rgb(57,57,57)"/>
  <stop offset="0.8125" stop-color="rgb(55,55,55)"/>
  <stop offset="0.8438" stop-color="rgb(52,52,52)"/>
  <stop offset="0.8750" stop-color="rgb(50,50,50)"/>
  <stop offset="0.9063" stop-color="rgb(48,48,48)"/>
  <stop offset="0.9375" stop-color="rgb(45,45,45)"/>
  <stop offset="0.9688" stop-color="rgb(43,43,43)"/>
  <stop offset="1.0000" stop-color="rgb(9,9,9)"/>
</radialGradient></defs>
<circle cx="860" cy="140" r="81" fill="url(#g_F571_8)"/>
<text x="860" y="49" text-anchor="middle" class="preview-lbl">face-on luminance from ρ(r)</text>
<text x="860" y="239" text-anchor="middle" class="preview-lbl">edge at r = 15.6 kpc</text>
</svg>