<svg xmlns="http://www.w3.org/2000/svg" viewBox="0 0 960 450" width="960" height="450" font-family="sans-serif" font-size="12">
<style>
  .ax { stroke: #333; stroke-width: 1; fill: none; }
  .grid { stroke: #ddd; stroke-width: 0.5; fill: none; }
  .lbl { fill: #333; }
  .lbl-l { fill: #0066cc; }
  .lbl-r { fill: #b03030; }
  .obs { fill: #222; }
  .err { stroke: #555; stroke-width: 0.8; fill: none; }
  .fw { stroke: #0066cc; stroke-width: 2.2; fill: none; }
  .nt { stroke: #cc6600; stroke-width: 1.6; fill: none; stroke-dasharray: 5,3; }
  .mond { stroke: #7b2cbf; stroke-width: 1.8; fill: none; stroke-dasharray: 7,3; }
  .lbl-p { fill: #cc7000; }
  .lbl-m { fill: #7b2cbf; }
  .rho { stroke: #b03030; stroke-width: 2.0; fill: none; }
  .phot { stroke: #cc7000; stroke-width: 1.8; fill: none; }
  .mbar { stroke: #8e44ad; stroke-width: 1.8; fill: none; opacity: 0.9; }
  .mph { stroke: #c77dff; stroke-width: 1.6; fill: none; stroke-dasharray: 4,3; opacity: 0.95; }
  .title { fill: #111; font-size: 16px; font-weight: 600; }
  .subtitle { fill: #555; font-size: 11px; }
  .preview-bg { fill: #000; }
  .preview-lbl { fill: #888; font-size: 10px; }
  .legend { font-size: 11px; }
</style>
<text x="378.5" y="22" text-anchor="middle" class="title">F574-1</text>
<text x="378.5" y="38" text-anchor="middle" class="subtitle">rMax=12.6 kpc, N=14, FW=1.0 km/s, 1.1%, 0.21σ, MOND=8.8 km/s, 14.0%, 1.88σ, amp=105</text>
<line x1="70" y1="395.0" x2="687" y2="395.0" class="grid"/>
<text x="64" y="399.0" text-anchor="end" class="lbl-l">0</text>
<line x1="70" y1="327.0" x2="687" y2="327.0" class="grid"/>
<text x="64" y="331.0" text-anchor="end" class="lbl-l">23</text>
<line x1="70" y1="259.0" x2="687" y2="259.0" class="grid"/>
<text x="64" y="263.0" text-anchor="end" class="lbl-l">46</text>
<line x1="70" y1="191.0" x2="687" y2="191.0" class="grid"/>
<text x="64" y="195.0" text-anchor="end" class="lbl-l">70</text>
<line x1="70" y1="123.0" x2="687" y2="123.0" class="grid"/>
<text x="64" y="127.0" text-anchor="end" class="lbl-l">93</text>
<line x1="70" y1="55.0" x2="687" y2="55.0" class="grid"/>
<text x="64" y="59.0" text-anchor="end" class="lbl-l">116</text>
<text x="693" y="399.0" text-anchor="start" class="lbl-r">0.0</text>
<text x="693" y="353.7" text-anchor="start" class="lbl-r">0.2</text>
<text x="693" y="308.3" text-anchor="start" class="lbl-r">0.4</text>
<text x="693" y="263.0" text-anchor="start" class="lbl-r">0.6</text>
<text x="693" y="217.7" text-anchor="start" class="lbl-r">0.8</text>
<text x="693" y="172.3" text-anchor="start" class="lbl-r">1.0</text>
<line x1="70.0" y1="55" x2="70.0" y2="395" class="grid"/>
<text x="70.0" y="411" text-anchor="middle" class="lbl">0.0</text>
<line x1="172.8" y1="55" x2="172.8" y2="395" class="grid"/>
<text x="172.8" y="411" text-anchor="middle" class="lbl">2.2</text>
<line x1="275.7" y1="55" x2="275.7" y2="395" class="grid"/>
<text x="275.7" y="411" text-anchor="middle" class="lbl">4.4</text>
<line x1="378.5" y1="55" x2="378.5" y2="395" class="grid"/>
<text x="378.5" y="411" text-anchor="middle" class="lbl">6.6</text>
<line x1="481.3" y1="55" x2="481.3" y2="395" class="grid"/>
<text x="481.3" y="411" text-anchor="middle" class="lbl">8.8</text>
<line x1="584.2" y1="55" x2="584.2" y2="395" class="grid"/>
<text x="584.2" y="411" text-anchor="middle" class="lbl">11.0</text>
<line x1="687.0" y1="55" x2="687.0" y2="395" class="grid"/>
<text x="687.0" y="411" text-anchor="middle" class="lbl">13.2</text>
<text x="378.5" y="438" text-anchor="middle" class="lbl">radius (kpc)</text>
<text x="16" y="225" text-anchor="middle" class="lbl-l" transform="rotate(-90, 16, 225)">velocity (km/s)</text>
<text x="724" y="225" text-anchor="middle" class="lbl-r" transform="rotate(-90, 724, 225)">profiles (normalized to peak)</text>
<rect x="70" y="55" width="617" height="340" class="ax"/>
<path d="M 70.0,168.3 L 72.8,170.0 L 75.6,171.7 L 78.5,173.4 L 81.3,175.1 L 84.1,176.8 L 86.9,178.4 L 89.7,180.1 L 92.5,181.8 L 95.4,183.5 L 98.2,185.2 L 101.0,185.2 L 103.8,185.2 L 106.6,185.2 L 109.4,185.2 L 112.3,185.2 L 115.1,185.2 L 117.9,186.0 L 120.7,187.2 L 123.5,188.3 L 126.3,189.5 L 129.2,190.7 L 132.0,191.8 L 134.8,193.0 L 137.6,194.1 L 140.4,195.3 L 143.3,196.4 L 146.1,197.6 L 148.9,198.7 L 151.7,199.9 L 154.5,201.1 L 157.3,202.2 L 160.2,203.4 L 163.0,204.5 L 165.8,205.7 L 168.6,206.8 L 171.4,208.0 L 174.2,209.1 L 177.1,210.3 L 179.9,211.5 L 182.7,212.6 L 185.5,213.8 L 188.3,214.9 L 191.1,216.1 L 194.0,217.2 L 196.8,218.4 L 199.6,219.5 L 202.4,220.7 L 205.2,221.9 L 208.1,223.0 L 210.9,224.2 L 213.7,225.3 L 216.5,226.5 L 219.3,227.6 L 222.1,228.8 L 225.0,229.9 L 227.8,231.1 L 230.6,232.3 L 233.4,233.4 L 236.2,234.6 L 239.0,235.7 L 241.9,236.9 L 244.7,238.0 L 247.5,239.2 L 250.3,240.3 L 253.1,241.5 L 255.9,242.7 L 258.8,243.8 L 261.6,245.0 L 264.4,246.1 L 267.2,247.3 L 270.0,248.4 L 272.8,249.6 L 275.7,250.7 L 278.5,251.9 L 281.3,252.9 L 284.1,253.5 L 286.9,254.1 L 289.8,254.6 L 292.6,255.2 L 295.4,255.8 L 298.2,256.4 L 301.0,257.0 L 303.8,257.6 L 306.7,258.2 L 309.5,258.8 L 312.3,259.3 L 315.1,259.9 L 317.9,260.5 L 320.7,261.1 L 323.6,261.7 L 326.4,262.3 L 329.2,262.9 L 332.0,263.5 L 334.8,264.1 L 337.6,264.6 L 340.5,265.2 L 343.3,265.8 L 346.1,266.4 L 348.9,267.0 L 351.7,267.6 L 354.6,268.2 L 357.4,268.8 L 360.2,269.4 L 363.0,269.9 L 365.8,270.5 L 368.6,271.1 L 371.5,271.7 L 374.3,272.3 L 377.1,272.9 L 379.9,273.5 L 382.7,274.1 L 385.5,274.7 L 388.4,275.2 L 391.2,275.8 L 394.0,276.4 L 396.8,277.0 L 399.6,277.6 L 402.4,278.2 L 405.3,278.8 L 408.1,279.4 L 410.9,280.0 L 413.7,280.5 L 416.5,281.1 L 419.4,281.7 L 422.2,282.3 L 425.0,282.9 L 427.8,283.5 L 430.6,284.1 L 433.4,284.7 L 436.3,285.3 L 439.1,285.8 L 441.9,286.4 L 444.7,287.0 L 447.5,287.6 L 450.3,288.2 L 453.2,288.8 L 456.0,289.4 L 458.8,290.0 L 461.6,290.6 L 464.4,291.1 L 467.2,291.7 L 470.1,292.3 L 472.9,292.9 L 475.7,293.5 L 478.5,294.1 L 481.3,294.7 L 484.2,295.3 L 487.0,295.9 L 489.8,296.4 L 492.6,297.0 L 495.4,297.6 L 498.2,298.2 L 501.1,298.8 L 503.9,299.4 L 506.7,300.0 L 509.5,300.6 L 512.3,301.2 L 515.1,301.7 L 518.0,302.3 L 520.8,302.9 L 523.6,303.5 L 526.4,304.1 L 529.2,304.7 L 532.0,305.3 L 534.9,305.9 L 537.7,306.4 L 540.5,307.0 L 543.3,307.6 L 546.1,308.2 L 548.9,308.8 L 551.8,309.4 L 554.6,310.0 L 557.4,310.6 L 560.2,311.2 L 563.0,311.7 L 565.9,312.3 L 568.7,312.9 L 571.5,313.5 L 574.3,314.1 L 577.1,314.7 L 579.9,315.3 L 582.8,315.9 L 585.6,316.5 L 588.4,317.0 L 591.2,317.6 L 594.0,318.2 L 596.8,318.8 L 599.7,319.4 L 602.5,320.0 L 605.3,320.6 L 608.1,321.2 L 610.9,321.8 L 613.7,322.3 L 616.6,322.9 L 619.4,323.5 L 622.2,324.1 L 625.0,324.7 L 627.8,325.3 L 630.7,325.9 L 633.5,326.5 L 636.3,327.1 L 639.1,328.6 L 641.9,338.7 L 644.7,348.8 L 647.6,358.9 L 650.4,369.0 L 653.2,379.1 L 656.0,389.2 L 658.8,395.0 L 661.6,395.0 L 664.5,395.0 L 667.3,395.0 L 670.1,395.0 L 672.9,395.0 L 675.7,395.0 L 678.5,395.0 L 681.4,395.0 L 684.2,395.0 L 687.0,395.0" class="rho"/>
<path d="M 91.9,168.3 L 135.8,245.1 L 179.6,315.1 L 223.4,341.1 L 266.8,349.1 L 311.1,358.6 L 354.9,365.3 L 398.8,372.2 L 442.6,376.2 L 486.0,380.2 L 530.3,381.3 L 573.2,383.5 L 620.3,386.1 L 657.6,388.0" class="phot"/>
<path d="M 91.9,235.5 L 135.8,168.3 L 179.6,176.9 L 223.4,241.8 L 266.8,270.0 L 311.1,269.3 L 354.9,274.7 L 398.8,285.5 L 442.6,294.8 L 486.0,298.9 L 530.3,288.1 L 573.2,277.7 L 620.3,282.3 L 657.6,290.4" class="mbar"/>
<path d="M 91.9,201.8 L 135.8,168.3 L 179.6,170.2 L 223.4,200.1 L 266.8,215.0 L 311.1,216.3 L 354.9,220.3 L 398.8,227.0 L 442.6,233.2 L 486.0,236.3 L 530.3,229.6 L 573.2,223.0 L 620.3,226.0 L 657.6,231.3" class="mph"/>
<path d="M 76.2,350.5 L 82.3,332.5 L 88.5,318.8 L 94.7,307.5 L 100.8,297.7 L 107.0,288.8 L 113.2,280.5 L 119.4,272.8 L 125.5,265.7 L 131.7,259.1 L 137.9,252.9 L 144.0,247.1 L 150.2,241.6 L 156.4,236.4 L 162.6,231.4 L 168.7,226.7 L 174.9,222.2 L 181.1,217.9 L 187.2,213.8 L 193.4,209.9 L 199.6,206.1 L 205.7,202.5 L 211.9,199.0 L 218.1,195.7 L 224.3,192.5 L 230.4,189.4 L 236.6,186.4 L 242.8,183.5 L 248.9,180.8 L 255.1,178.1 L 261.3,175.6 L 267.4,173.2 L 273.6,170.8 L 279.8,168.5 L 286.0,166.3 L 292.1,164.2 L 298.3,162.1 L 304.5,160.0 L 310.6,157.9 L 316.8,155.9 L 323.0,154.0 L 329.1,152.1 L 335.3,150.2 L 341.5,148.3 L 347.7,146.5 L 353.8,144.7 L 360.0,143.0 L 366.2,141.3 L 372.3,139.6 L 378.5,138.0 L 384.7,136.4 L 390.8,134.9 L 397.0,133.3 L 403.2,131.8 L 409.3,130.4 L 415.5,129.0 L 421.7,127.6 L 427.9,126.2 L 434.0,124.9 L 440.2,123.6 L 446.4,122.3 L 452.5,121.1 L 458.7,119.9 L 464.9,118.7 L 471.1,117.6 L 477.2,116.5 L 483.4,115.4 L 489.6,114.4 L 495.7,113.3 L 501.9,112.4 L 508.1,111.4 L 514.2,110.5 L 520.4,109.5 L 526.6,108.7 L 532.8,107.8 L 538.9,107.0 L 545.1,106.2 L 551.3,105.4 L 557.4,104.7 L 563.6,104.0 L 569.8,103.3 L 575.9,102.6 L 582.1,102.0 L 588.3,101.4 L 594.4,100.8 L 600.6,100.3 L 606.8,99.7 L 613.0,99.2 L 619.1,98.7 L 625.3,98.3 L 631.5,97.9 L 637.6,97.5 L 643.8,97.3 L 650.0,97.7 L 656.2,98.8 L 662.3,100.3 L 668.5,101.9 L 674.7,103.4 L 680.8,104.9 L 687.0,106.3" class="nt"/>
<path d="M 91.9,334.5 L 135.8,265.3 L 179.6,230.4 L 223.4,214.4 L 266.8,198.5 L 311.1,182.1 L 354.9,166.4 L 398.8,154.7 L 442.6,141.9 L 486.0,133.1 L 530.3,120.1 L 573.2,107.2 L 620.3,94.5 L 657.6,85.9" class="mond"/>
<path d="M 75.1,382.7 L 80.3,373.5 L 85.4,363.3 L 90.6,353.3 L 95.7,343.5 L 100.8,334.0 L 106.0,324.7 L 111.1,315.4 L 116.3,306.3 L 121.4,297.3 L 126.6,288.5 L 131.7,280.0 L 136.8,271.8 L 142.0,263.8 L 147.1,256.2 L 152.3,248.8 L 157.4,241.8 L 162.6,235.0 L 167.7,228.5 L 172.8,222.3 L 178.0,216.3 L 183.1,210.5 L 188.3,205.0 L 193.4,199.7 L 198.5,194.7 L 203.7,189.9 L 208.8,185.3 L 214.0,181.0 L 219.1,176.9 L 224.3,173.0 L 229.4,169.4 L 234.5,166.0 L 239.7,162.9 L 244.8,159.9 L 250.0,157.3 L 255.1,154.9 L 260.2,152.8 L 265.4,150.9 L 270.5,149.3 L 275.7,147.8 L 280.8,146.6 L 285.9,145.4 L 291.1,144.4 L 296.2,143.3 L 301.4,142.3 L 306.5,141.3 L 311.7,140.2 L 316.8,139.1 L 321.9,138.0 L 327.1,136.8 L 332.2,135.7 L 337.4,134.5 L 342.5,133.4 L 347.7,132.3 L 352.8,131.2 L 357.9,130.1 L 363.1,129.0 L 368.2,128.0 L 373.4,126.9 L 378.5,125.9 L 383.6,124.9 L 388.8,124.0 L 393.9,123.1 L 399.1,122.2 L 404.2,121.3 L 409.4,120.5 L 414.5,119.7 L 419.6,119.0 L 424.8,118.2 L 429.9,117.6 L 435.1,116.9 L 440.2,116.3 L 445.3,115.7 L 450.5,115.1 L 455.6,114.6 L 460.8,114.1 L 465.9,113.7 L 471.1,113.3 L 476.2,112.9 L 481.3,112.5 L 486.5,112.2 L 491.6,111.9 L 496.8,111.6 L 501.9,111.4 L 507.0,111.1 L 512.2,110.9 L 517.3,110.7 L 522.5,110.5 L 527.6,110.3 L 532.8,110.2 L 537.9,110.0 L 543.0,109.8 L 548.2,109.6 L 553.3,109.4 L 558.5,109.2 L 563.6,108.9 L 568.7,108.5 L 573.9,108.1 L 579.0,107.7 L 584.2,107.1 L 589.3,106.4 L 594.4,105.6 L 599.6,104.6 L 604.7,103.4 L 609.9,102.1 L 615.0,100.7 L 620.2,99.2 L 625.3,97.9 L 630.4,97.0 L 635.6,96.9 L 640.7,97.8 L 645.9,100.0 L 651.0,103.7 L 656.1,108.5 L 661.3,114.3 L 666.4,120.7 L 671.6,127.2 L 676.7,133.7 L 681.9,140.1 L 687.0,146.1" class="fw"/>
<line x1="91.92" y1="337.36" x2="91.92" y2="363.11" class="err"/>
<line x1="88.92" y1="337.36" x2="94.92" y2="337.36" class="err"/>
<line x1="88.92" y1="363.11" x2="94.92" y2="363.11" class="err"/>
<circle cx="91.92" cy="350.23" r="2.5" class="obs"/>
<line x1="135.76" y1="262.28" x2="135.76" y2="287.79" class="err"/>
<line x1="132.76" y1="262.28" x2="138.76" y2="262.28" class="err"/>
<line x1="132.76" y1="287.79" x2="138.76" y2="287.79" class="err"/>
<circle cx="135.76" cy="275.04" r="2.5" class="obs"/>
<line x1="179.60" y1="204.52" x2="179.60" y2="230.27" class="err"/>
<line x1="176.60" y1="204.52" x2="182.60" y2="204.52" class="err"/>
<line x1="176.60" y1="230.27" x2="182.60" y2="230.27" class="err"/>
<circle cx="179.60" cy="217.40" r="2.5" class="obs"/>
<line x1="223.43" y1="162.97" x2="223.43" y2="188.72" class="err"/>
<line x1="220.43" y1="162.97" x2="226.43" y2="162.97" class="err"/>
<line x1="220.43" y1="188.72" x2="226.43" y2="188.72" class="err"/>
<circle cx="223.43" cy="175.85" r="2.5" class="obs"/>
<line x1="266.81" y1="133.77" x2="266.81" y2="170.52" class="err"/>
<line x1="263.81" y1="133.77" x2="269.81" y2="133.77" class="err"/>
<line x1="263.81" y1="170.52" x2="269.81" y2="170.52" class="err"/>
<circle cx="266.81" cy="152.15" r="2.5" class="obs"/>
<line x1="311.11" y1="128.15" x2="311.11" y2="153.90" class="err"/>
<line x1="308.11" y1="128.15" x2="314.11" y2="128.15" class="err"/>
<line x1="308.11" y1="153.90" x2="314.11" y2="153.90" class="err"/>
<circle cx="311.11" cy="141.03" r="2.5" class="obs"/>
<line x1="354.95" y1="120.55" x2="354.95" y2="146.30" class="err"/>
<line x1="351.95" y1="120.55" x2="357.95" y2="120.55" class="err"/>
<line x1="351.95" y1="146.30" x2="357.95" y2="146.30" class="err"/>
<circle cx="354.95" cy="133.42" r="2.5" class="obs"/>
<line x1="398.79" y1="111.48" x2="398.79" y2="137.23" class="err"/>
<line x1="395.79" y1="111.48" x2="401.79" y2="111.48" class="err"/>
<line x1="395.79" y1="137.23" x2="401.79" y2="137.23" class="err"/>
<circle cx="398.79" cy="124.35" r="2.5" class="obs"/>
<line x1="442.63" y1="105.04" x2="442.63" y2="130.79" class="err"/>
<line x1="439.63" y1="105.04" x2="445.63" y2="105.04" class="err"/>
<line x1="439.63" y1="130.79" x2="445.63" y2="130.79" class="err"/>
<circle cx="442.63" cy="117.91" r="2.5" class="obs"/>
<line x1="486.00" y1="100.36" x2="486.00" y2="126.11" class="err"/>
<line x1="483.00" y1="100.36" x2="489.00" y2="100.36" class="err"/>
<line x1="483.00" y1="126.11" x2="489.00" y2="126.11" class="err"/>
<circle cx="486.00" cy="113.23" r="2.5" class="obs"/>
<line x1="530.30" y1="95.97" x2="530.30" y2="121.72" class="err"/>
<line x1="527.30" y1="95.97" x2="533.30" y2="95.97" class="err"/>
<line x1="527.30" y1="121.72" x2="533.30" y2="121.72" class="err"/>
<circle cx="530.30" cy="108.84" r="2.5" class="obs"/>
<line x1="573.21" y1="92.40" x2="573.21" y2="119.44" class="err"/>
<line x1="570.21" y1="92.40" x2="576.21" y2="92.40" class="err"/>
<line x1="570.21" y1="119.44" x2="576.21" y2="119.44" class="err"/>
<circle cx="573.21" cy="105.92" r="2.5" class="obs"/>
<line x1="620.31" y1="91.00" x2="620.31" y2="116.74" class="err"/>
<line x1="617.31" y1="91.00" x2="623.31" y2="91.00" class="err"/>
<line x1="617.31" y1="116.74" x2="623.31" y2="116.74" class="err"/>
<circle cx="620.31" cy="103.87" r="2.5" class="obs"/>
<line x1="657.62" y1="88.25" x2="657.62" y2="118.32" class="err"/>
<line x1="654.62" y1="88.25" x2="660.62" y2="88.25" class="err"/>
<line x1="654.62" y1="118.32" x2="660.62" y2="118.32" class="err"/>
<circle cx="657.62" cy="103.28" r="2.5" class="obs"/>
<g class="legend">
<line x1="82" y1="69" x2="106" y2="69" class="fw"/>
<text x="112" y="73" class="lbl-l">framework: 1.0 km/s, 1.1%, 0.21σ</text>
<line x1="82" y1="87" x2="106" y2="87" class="nt"/>
<text x="112" y="91" class="lbl-l">Newtonian: 5.1 km/s, 23.4%, 1.12σ</text>
<line x1="82" y1="105" x2="106" y2="105" class="mond"/>
<text x="112" y="109" class="lbl-m">MOND/RAR: 8.8 km/s, 14.0%, 1.88σ</text>
<circle cx="94" cy="123" r="2.5" class="obs"/>
<text x="112" y="127" class="lbl">observed V±err</text>
</g>
<g class="legend">
<line x1="472" y1="69" x2="496" y2="69" class="rho"/>
<text x="502" y="73" class="lbl-r">ρ(r) raw</text>
<line x1="472" y1="87" x2="496" y2="87" class="phot"/>
<text x="502" y="91" class="lbl-p">photometric baryonic profile</text>
<line x1="472" y1="105" x2="496" y2="105" class="mbar"/>
<text x="502" y="109" class="lbl-m">MOND baryonic annulus</text>
<line x1="472" y1="123" x2="496" y2="123" class="mph"/>
<text x="502" y="127" class="lbl-m">MOND phantom annulus</text>
<text x="472" y="147" class="lbl-r">ρ peak: 131 M☉/pc²</text>
<text x="472" y="163" class="lbl-p">phot peak: 52.30 (arb.)</text>
<text x="472" y="179" class="lbl-m">Σbar peak: 24.93 M☉/pc²</text>
<text x="472" y="195" class="lbl-m">Σphantom peak: 70.16 M☉/pc²</text>
</g>
<rect x="775" y="55" width="170" height="170" class="preview-bg"/>
<defs><radialGradient id="g_F574_1" cx="0.5" cy="0.5" r="0.5">
  <stop offset="0.0000" stop-color="rgb(229,57,57)"/>
  <stop offset="0.0313" stop-color="rgb(220,55,55)"/>
  <stop offset="0.0625" stop-color="rgb(215,54,54)"/>
  <stop offset="0.0938" stop-color="rgb(212,53,53)"/>
  <stop offset="0.1250" stop-color="rgb(206,52,52)"/>
  <stop offset="0.1563" stop-color="rgb(200,50,50)"/>
  <stop offset="0.1875" stop-color="rgb(194,49,49)"/>
  <stop offset="0.2188" stop-color="rgb(189,47,47)"/>
  <stop offset="0.2500" stop-color="rgb(183,46,46)"/>
  <stop offset="0.2813" stop-color="rgb(177,44,44)"/>
  <stop offset="0.3125" stop-color="rgb(171,43,43)"/>
  <stop offset="0.3438" stop-color="rgb(165,41,41)"/>
  <stop offset="0.3750" stop-color="rgb(160,40,40)"/>
  <stop offset="0.4063" stop-color="rgb(157,39,39)"/>
  <stop offset="0.4375" stop-color="rgb(154,39,39)"/>
  <stop offset="0.4688" stop-color="rgb(151,38,38)"/>
  <stop offset="0.5000" stop-color="rgb(148,37,37)"/>
  <stop offset="0.5313" stop-color="rgb(145,36,36)"/>
  <stop offset="0.5625" stop-color="rgb(142,36,36)"/>
  <stop offset="0.5938" stop-color="rgb(139,35,35)"/>
  <stop offset="0.6250" stop-color="rgb(136,34,34)"/>
  <stop offset="0.6563" stop-color="rgb(133,33,33)"/>
  <stop offset="0.6875" stop-color="rgb(130,33,33)"/>
  <stop offset="0.7188" stop-color="rgb(127,32,32)"/>
  <stop offset="0.7500" stop-color="rgb(124,31,31)"/>
  <stop offset="0.7813" stop-color="rgb(121,30,30)"/>
  <stop offset="0.8125" stop-color="rgb(118,30,30)"/>
  <stop offset="0.8438" stop-color="rgb(115,29,29)"/>
  <stop offset="0.8750" stop-color="rgb(112,28,28)"/>
  <stop offset="0.9063" stop-color="rgb(109,27,27)"/>
  <stop offset="0.9375" stop-color="rgb(106,27,27)"/>
  <stop offset="0.9688" stop-color="rgb(102,26,26)"/>
  <stop offset="1.0000" stop-color="rgb(0,0,0)"/>
</radialGradient></defs>
<circle cx="860" cy="140" r="81" fill="url(#g_F574_1)"/>
<text x="860" y="49" text-anchor="middle" class="preview-lbl">face-on luminance from ρ(r)</text>
<text x="860" y="239" text-anchor="middle" class="preview-lbl">edge at r = 12.6 kpc</text>
</svg>