<svg xmlns="http://www.w3.org/2000/svg" viewBox="0 0 890 420" width="890" height="420" font-family="sans-serif" font-size="12">
<style>
  .ax { stroke: #333; stroke-width: 1; fill: none; }
  .grid { stroke: #ddd; stroke-width: 0.5; fill: none; }
  .lbl { fill: #333; }
  .lbl-l { fill: #0066cc; }
  .lbl-r { fill: #b03030; }
  .obs { fill: #222; }
  .err { stroke: #555; stroke-width: 0.8; fill: none; }
  .fw { stroke: #0066cc; stroke-width: 2.2; fill: none; }
  .nt { stroke: #cc6600; stroke-width: 1.6; fill: none; stroke-dasharray: 5,3; }
  .lbl-s { fill: #cc7000; }
  .rho { stroke: #b03030; stroke-width: 2.0; fill: none; }
  .sig { stroke: #cc7000; stroke-width: 1.8; fill: none; }
  .title { fill: #111; font-size: 16px; font-weight: 600; }
  .subtitle { fill: #555; font-size: 11px; }
  .preview-bg { fill: #000; }
  .preview-lbl { fill: #888; font-size: 10px; }
  .legend { font-size: 11px; }
</style>
<text x="343.5" y="22" text-anchor="middle" class="title">F574-1</text>
<text x="343.5" y="38" text-anchor="middle" class="subtitle">rMax=12.6 kpc, N=14, RMS=0.5 km/s (0.6%), amp=105</text>
<line x1="70" y1="365.0" x2="617" y2="365.0" class="grid"/>
<text x="64" y="369.0" text-anchor="end" class="lbl-l">0</text>
<line x1="70" y1="303.0" x2="617" y2="303.0" class="grid"/>
<text x="64" y="307.0" text-anchor="end" class="lbl-l">23</text>
<line x1="70" y1="241.0" x2="617" y2="241.0" class="grid"/>
<text x="64" y="245.0" text-anchor="end" class="lbl-l">46</text>
<line x1="70" y1="179.0" x2="617" y2="179.0" class="grid"/>
<text x="64" y="183.0" text-anchor="end" class="lbl-l">69</text>
<line x1="70" y1="117.0" x2="617" y2="117.0" class="grid"/>
<text x="64" y="121.0" text-anchor="end" class="lbl-l">92</text>
<line x1="70" y1="55.0" x2="617" y2="55.0" class="grid"/>
<text x="64" y="59.0" text-anchor="end" class="lbl-l">115</text>
<text x="623" y="369.0" text-anchor="start" class="lbl-r">0.0</text>
<text x="623" y="327.7" text-anchor="start" class="lbl-r">0.2</text>
<text x="623" y="286.3" text-anchor="start" class="lbl-r">0.4</text>
<text x="623" y="245.0" text-anchor="start" class="lbl-r">0.6</text>
<text x="623" y="203.7" text-anchor="start" class="lbl-r">0.8</text>
<text x="623" y="162.3" text-anchor="start" class="lbl-r">1.0</text>
<line x1="70.0" y1="55" x2="70.0" y2="365" class="grid"/>
<text x="70.0" y="381" text-anchor="middle" class="lbl">0.0</text>
<line x1="161.2" y1="55" x2="161.2" y2="365" class="grid"/>
<text x="161.2" y="381" text-anchor="middle" class="lbl">2.6</text>
<line x1="252.3" y1="55" x2="252.3" y2="365" class="grid"/>
<text x="252.3" y="381" text-anchor="middle" class="lbl">5.2</text>
<line x1="343.5" y1="55" x2="343.5" y2="365" class="grid"/>
<text x="343.5" y="381" text-anchor="middle" class="lbl">7.8</text>
<line x1="434.7" y1="55" x2="434.7" y2="365" class="grid"/>
<text x="434.7" y="381" text-anchor="middle" class="lbl">10.4</text>
<line x1="525.8" y1="55" x2="525.8" y2="365" class="grid"/>
<text x="525.8" y="381" text-anchor="middle" class="lbl">13.0</text>
<line x1="617.0" y1="55" x2="617.0" y2="365" class="grid"/>
<text x="617.0" y="381" text-anchor="middle" class="lbl">15.7</text>
<text x="343.5" y="408" text-anchor="middle" class="lbl">radius (kpc)</text>
<text x="16" y="210" text-anchor="middle" class="lbl-l" transform="rotate(-90, 16, 210)">velocity (km/s)</text>
<text x="654" y="210" text-anchor="middle" class="lbl-r" transform="rotate(-90, 654, 210)">mass profile (normalized to peak)</text>
<rect x="70" y="55" width="547" height="310" class="ax"/>
<path d="M 70.0,158.3 L 72.5,160.1 L 75.0,162.0 L 77.5,163.8 L 80.0,165.6 L 82.5,167.4 L 85.0,169.2 L 87.5,171.0 L 90.0,172.9 L 92.5,173.7 L 95.0,173.7 L 97.5,173.7 L 100.0,173.7 L 102.5,173.7 L 105.0,174.0 L 107.5,175.2 L 110.0,176.5 L 112.5,177.7 L 115.0,178.9 L 117.5,180.1 L 120.0,181.4 L 122.5,182.6 L 124.9,183.8 L 127.4,185.1 L 129.9,186.3 L 132.4,187.5 L 134.9,188.7 L 137.4,190.0 L 139.9,191.2 L 142.4,192.4 L 144.9,193.6 L 147.4,194.9 L 149.9,196.1 L 152.4,197.3 L 154.9,198.6 L 157.4,199.8 L 159.9,201.0 L 162.4,202.2 L 164.9,203.5 L 167.4,204.7 L 169.9,205.9 L 172.4,207.1 L 174.9,208.4 L 177.4,209.6 L 179.9,210.8 L 182.4,212.1 L 184.9,213.3 L 187.4,214.5 L 189.9,215.7 L 192.4,217.0 L 194.9,218.2 L 197.4,219.4 L 199.9,220.6 L 202.4,221.9 L 204.9,223.1 L 207.4,224.3 L 209.9,225.6 L 212.4,226.8 L 214.9,228.0 L 217.4,229.2 L 219.9,230.5 L 222.4,231.7 L 224.9,232.9 L 227.4,234.1 L 229.9,234.7 L 232.4,235.3 L 234.8,235.9 L 237.3,236.5 L 239.8,237.0 L 242.3,237.6 L 244.8,238.2 L 247.3,238.8 L 249.8,239.4 L 252.3,240.0 L 254.8,240.5 L 257.3,241.1 L 259.8,241.7 L 262.3,242.3 L 264.8,242.9 L 267.3,243.5 L 269.8,244.1 L 272.3,244.6 L 274.8,245.2 L 277.3,245.8 L 279.8,246.4 L 282.3,247.0 L 284.8,247.6 L 287.3,248.2 L 289.8,248.7 L 292.3,249.3 L 294.8,249.9 L 297.3,250.5 L 299.8,251.1 L 302.3,251.7 L 304.8,252.3 L 307.3,252.8 L 309.8,253.4 L 312.3,254.0 L 314.8,254.6 L 317.3,255.2 L 319.8,255.8 L 322.3,256.4 L 324.8,256.9 L 327.3,257.5 L 329.8,258.1 L 332.3,258.7 L 334.8,259.3 L 337.3,259.9 L 339.8,260.5 L 342.3,261.0 L 344.7,261.6 L 347.2,262.2 L 349.7,262.8 L 352.2,263.4 L 354.7,264.0 L 357.2,264.6 L 359.7,265.1 L 362.2,265.7 L 364.7,266.3 L 367.2,266.9 L 369.7,267.5 L 372.2,268.1 L 374.7,268.7 L 377.2,269.2 L 379.7,269.8 L 382.2,270.4 L 384.7,271.0 L 387.2,271.6 L 389.7,272.2 L 392.2,272.8 L 394.7,273.3 L 397.2,273.9 L 399.7,274.5 L 402.2,275.1 L 404.7,275.7 L 407.2,276.3 L 409.7,276.9 L 412.2,277.4 L 414.7,278.0 L 417.2,278.6 L 419.7,279.2 L 422.2,279.8 L 424.7,280.4 L 427.2,280.9 L 429.7,281.5 L 432.2,282.1 L 434.7,282.7 L 437.2,283.3 L 439.7,283.9 L 442.2,284.5 L 444.7,285.0 L 447.2,285.6 L 449.7,286.2 L 452.2,286.8 L 454.6,287.4 L 457.1,288.0 L 459.6,288.6 L 462.1,289.1 L 464.6,289.7 L 467.1,290.3 L 469.6,290.9 L 472.1,291.5 L 474.6,292.1 L 477.1,292.7 L 479.6,293.2 L 482.1,293.8 L 484.6,294.4 L 487.1,295.0 L 489.6,295.6 L 492.1,296.2 L 494.6,296.8 L 497.1,298.0 L 499.6,299.7 L 502.1,301.5 L 504.6,303.3 L 507.1,305.1 L 509.6,306.9 L 512.1,308.7 L 514.6,310.4 L 517.1,312.2 L 519.6,314.0 L 522.1,315.8 L 524.6,317.6 L 527.1,319.4 L 529.6,321.2 L 532.1,322.9 L 534.6,324.7 L 537.1,326.5 L 539.6,328.3 L 542.1,330.1 L 544.6,331.9 L 547.1,333.6 L 549.6,335.4 L 552.1,337.2 L 554.6,339.0 L 557.1,340.8 L 559.6,342.6 L 562.1,344.4 L 564.5,346.1 L 567.0,347.9 L 569.5,349.7 L 572.0,351.5 L 574.5,353.3 L 577.0,355.1 L 579.5,356.8 L 582.0,358.6 L 584.5,360.4 L 587.0,362.2 L 589.5,364.0 L 592.0,365.0 L 594.5,365.0 L 597.0,365.0 L 599.5,365.0 L 602.0,365.0 L 604.5,365.0 L 607.0,365.0 L 609.5,365.0 L 612.0,365.0 L 614.5,365.0 L 617.0,365.0" class="rho"/>
<path d="M 70.0,158.3 L 72.5,158.4 L 75.0,158.5 L 77.5,158.7 L 80.0,158.9 L 82.5,159.2 L 85.0,159.5 L 87.5,159.9 L 90.0,160.4 L 92.5,160.9 L 95.0,161.4 L 97.5,162.0 L 100.0,162.6 L 102.5,163.3 L 105.0,164.1 L 107.5,164.9 L 110.0,165.7 L 112.5,166.5 L 115.0,167.5 L 117.5,168.4 L 120.0,169.4 L 122.5,170.4 L 124.9,171.5 L 127.4,172.6 L 129.9,173.7 L 132.4,174.8 L 134.9,176.0 L 137.4,177.2 L 139.9,178.4 L 142.4,179.6 L 144.9,180.9 L 147.4,182.2 L 149.9,183.5 L 152.4,184.8 L 154.9,186.1 L 157.4,187.4 L 159.9,188.8 L 162.4,190.1 L 164.9,191.5 L 167.4,192.9 L 169.9,194.3 L 172.4,195.7 L 174.9,197.1 L 177.4,198.5 L 179.9,199.9 L 182.4,201.3 L 184.9,202.7 L 187.4,204.1 L 189.9,205.5 L 192.4,206.9 L 194.9,208.3 L 197.4,209.7 L 199.9,211.1 L 202.4,212.5 L 204.9,213.9 L 207.4,215.3 L 209.9,216.6 L 212.4,218.0 L 214.9,219.4 L 217.4,220.7 L 219.9,222.0 L 222.4,223.4 L 224.9,224.7 L 227.4,225.9 L 229.9,227.2 L 232.4,228.5 L 234.8,229.7 L 237.3,231.0 L 239.8,232.2 L 242.3,233.4 L 244.8,234.6 L 247.3,235.8 L 249.8,237.0 L 252.3,238.2 L 254.8,239.4 L 257.3,240.5 L 259.8,241.7 L 262.3,242.8 L 264.8,243.9 L 267.3,245.0 L 269.8,246.2 L 272.3,247.3 L 274.8,248.4 L 277.3,249.4 L 279.8,250.5 L 282.3,251.6 L 284.8,252.7 L 287.3,253.7 L 289.8,254.8 L 292.3,255.9 L 294.8,256.9 L 297.3,257.9 L 299.8,259.0 L 302.3,260.0 L 304.8,261.0 L 307.3,262.0 L 309.8,263.1 L 312.3,264.1 L 314.8,265.1 L 317.3,266.1 L 319.8,267.0 L 322.3,268.0 L 324.8,269.0 L 327.3,270.0 L 329.8,271.0 L 332.3,271.9 L 334.8,272.9 L 337.3,273.8 L 339.8,274.8 L 342.3,275.7 L 344.7,276.6 L 347.2,277.6 L 349.7,278.5 L 352.2,279.4 L 354.7,280.3 L 357.2,281.2 L 359.7,282.2 L 362.2,283.1 L 364.7,283.9 L 367.2,284.8 L 369.7,285.7 L 372.2,286.6 L 374.7,287.5 L 377.2,288.3 L 379.7,289.2 L 382.2,290.1 L 384.7,290.9 L 387.2,291.8 L 389.7,292.6 L 392.2,293.5 L 394.7,294.3 L 397.2,295.1 L 399.7,295.9 L 402.2,296.8 L 404.7,297.6 L 407.2,298.4 L 409.7,299.2 L 412.2,300.0 L 414.7,300.8 L 417.2,301.6 L 419.7,302.4 L 422.2,303.1 L 424.7,303.9 L 427.2,304.7 L 429.7,305.5 L 432.2,306.2 L 434.7,307.0 L 437.2,307.7 L 439.7,308.5 L 442.2,309.2 L 444.7,310.0 L 447.2,310.7 L 449.7,311.5 L 452.2,312.2 L 454.6,312.9 L 457.1,313.6 L 459.6,314.4 L 462.1,315.1 L 464.6,315.8 L 467.1,316.5 L 469.6,317.2 L 472.1,317.9 L 474.6,318.6 L 477.1,319.3 L 479.6,320.0 L 482.1,320.7 L 484.6,321.4 L 487.1,322.1 L 489.6,322.8 L 492.1,323.5 L 494.6,324.2 L 497.1,324.9 L 499.6,325.6 L 502.1,326.3 L 504.6,326.9 L 507.1,327.6 L 509.6,328.3 L 512.1,329.0 L 514.6,329.6 L 517.1,330.3 L 519.6,330.9 L 522.1,331.5 L 524.6,332.2 L 527.1,332.8 L 529.6,333.4 L 532.1,334.0 L 534.6,334.6 L 537.1,335.1 L 539.6,335.7 L 542.1,336.2 L 544.6,336.8 L 547.1,337.3 L 549.6,337.8 L 552.1,338.3 L 554.6,338.7 L 557.1,339.2 L 559.6,339.7 L 562.1,340.1 L 564.5,340.5 L 567.0,340.9 L 569.5,341.3 L 572.0,341.7 L 574.5,342.1 L 577.0,342.4 L 579.5,342.8 L 582.0,343.1 L 584.5,343.5 L 587.0,343.8 L 589.5,344.1 L 592.0,344.4 L 594.5,344.7 L 597.0,345.0 L 599.5,345.3 L 602.0,345.5 L 604.5,345.8 L 607.0,346.0 L 609.5,346.3 L 612.0,346.5 L 614.5,346.8 L 617.0,347.0" class="sig"/>
<path d="M 75.5,320.6 L 80.9,302.6 L 86.4,289.1 L 91.9,278.0 L 97.3,268.1 L 102.8,259.1 L 108.3,250.9 L 113.8,243.3 L 119.2,236.4 L 124.7,230.0 L 130.2,224.0 L 135.6,218.3 L 141.1,213.0 L 146.6,208.0 L 152.1,203.2 L 157.5,198.7 L 163.0,194.4 L 168.5,190.3 L 173.9,186.5 L 179.4,182.7 L 184.9,179.2 L 190.3,175.8 L 195.8,172.6 L 201.3,169.5 L 206.8,166.5 L 212.2,163.7 L 217.7,161.0 L 223.2,158.4 L 228.6,155.9 L 234.1,153.5 L 239.6,151.2 L 245.0,148.9 L 250.5,146.6 L 256.0,144.4 L 261.4,142.2 L 266.9,140.1 L 272.4,138.0 L 277.9,136.0 L 283.3,134.0 L 288.8,132.1 L 294.3,130.2 L 299.7,128.3 L 305.2,126.5 L 310.7,124.7 L 316.1,123.0 L 321.6,121.3 L 327.1,119.7 L 332.6,118.1 L 338.0,116.5 L 343.5,115.0 L 349.0,113.5 L 354.4,112.1 L 359.9,110.7 L 365.4,109.3 L 370.9,108.0 L 376.3,106.7 L 381.8,105.4 L 387.3,104.2 L 392.7,103.0 L 398.2,101.8 L 403.7,100.7 L 409.1,99.6 L 414.6,98.5 L 420.1,97.5 L 425.6,96.5 L 431.0,95.6 L 436.5,94.7 L 442.0,93.8 L 447.4,92.9 L 452.9,92.1 L 458.4,91.3 L 463.8,90.5 L 469.3,89.8 L 474.8,89.1 L 480.3,88.4 L 485.7,87.8 L 491.2,87.2 L 496.7,86.6 L 502.1,86.1 L 507.6,85.7 L 513.1,85.5 L 518.5,85.3 L 524.0,85.3 L 529.5,85.4 L 535.0,85.6 L 540.4,85.9 L 545.9,86.3 L 551.4,86.9 L 556.8,87.5 L 562.3,88.3 L 567.8,89.2 L 573.2,90.2 L 578.7,91.3 L 584.2,92.5 L 589.7,93.8 L 595.1,95.2 L 600.6,96.6 L 606.1,98.0 L 611.5,99.4 L 617.0,100.7" class="nt"/>
<path d="M 74.6,352.4 L 79.1,341.9 L 83.7,330.9 L 88.2,320.3 L 92.8,310.0 L 97.3,300.0 L 101.9,290.0 L 106.5,280.2 L 111.0,270.6 L 115.6,261.4 L 120.1,252.5 L 124.7,244.0 L 129.3,235.8 L 133.8,228.1 L 138.4,220.7 L 142.9,213.6 L 147.5,206.9 L 152.1,200.5 L 156.6,194.4 L 161.2,188.6 L 165.7,183.1 L 170.3,178.0 L 174.8,173.1 L 179.4,168.5 L 184.0,164.2 L 188.5,160.3 L 193.1,156.6 L 197.6,153.3 L 202.2,150.3 L 206.8,147.6 L 211.3,145.3 L 215.9,143.3 L 220.4,141.6 L 225.0,140.2 L 229.5,139.1 L 234.1,138.0 L 238.7,136.9 L 243.2,135.9 L 247.8,134.8 L 252.3,133.7 L 256.9,132.5 L 261.4,131.3 L 266.0,130.1 L 270.6,128.8 L 275.1,127.6 L 279.7,126.4 L 284.2,125.1 L 288.8,123.9 L 293.4,122.7 L 297.9,121.5 L 302.5,120.4 L 307.0,119.2 L 311.6,118.2 L 316.1,117.1 L 320.7,116.1 L 325.3,115.1 L 329.8,114.1 L 334.4,113.2 L 338.9,112.3 L 343.5,111.5 L 348.1,110.6 L 352.6,109.9 L 357.2,109.2 L 361.7,108.5 L 366.3,107.8 L 370.9,107.2 L 375.4,106.6 L 380.0,106.1 L 384.5,105.6 L 389.1,105.1 L 393.6,104.7 L 398.2,104.3 L 402.8,103.9 L 407.3,103.5 L 411.9,103.2 L 416.4,102.9 L 421.0,102.6 L 425.5,102.3 L 430.1,102.0 L 434.7,101.7 L 439.2,101.4 L 443.8,101.1 L 448.3,100.8 L 452.9,100.4 L 457.5,100.0 L 462.0,99.5 L 466.6,98.9 L 471.1,98.3 L 475.7,97.5 L 480.3,96.6 L 484.8,95.6 L 489.4,94.6 L 493.9,93.7 L 498.5,93.1 L 503.0,92.8 L 507.6,93.1 L 512.2,93.9 L 516.7,95.3 L 521.3,97.3 L 525.8,99.9 L 530.4,103.0 L 535.0,106.6 L 539.5,110.5 L 544.1,114.8 L 548.6,119.5 L 553.2,124.3 L 557.7,129.4 L 562.3,134.6 L 566.9,139.9 L 571.4,145.2 L 576.0,150.4 L 580.5,155.5 L 585.1,160.4 L 589.7,165.1 L 594.2,169.5 L 598.8,173.6 L 603.3,177.5 L 607.9,181.1 L 612.4,184.5 L 617.0,187.8" class="fw"/>
<line x1="86.43" y1="312.04" x2="86.43" y2="335.70" class="err"/>
<line x1="83.43" y1="312.04" x2="89.43" y2="312.04" class="err"/>
<line x1="83.43" y1="335.70" x2="89.43" y2="335.70" class="err"/>
<circle cx="86.43" cy="323.87" r="2.5" class="obs"/>
<line x1="119.28" y1="243.07" x2="119.28" y2="266.51" class="err"/>
<line x1="116.28" y1="243.07" x2="122.28" y2="243.07" class="err"/>
<line x1="116.28" y1="266.51" x2="122.28" y2="266.51" class="err"/>
<circle cx="119.28" cy="254.79" r="2.5" class="obs"/>
<line x1="152.13" y1="190.01" x2="152.13" y2="213.66" class="err"/>
<line x1="149.13" y1="190.01" x2="155.13" y2="190.01" class="err"/>
<line x1="149.13" y1="213.66" x2="155.13" y2="213.66" class="err"/>
<circle cx="152.13" cy="201.83" r="2.5" class="obs"/>
<line x1="184.98" y1="151.84" x2="184.98" y2="175.49" class="err"/>
<line x1="181.98" y1="151.84" x2="187.98" y2="151.84" class="err"/>
<line x1="181.98" y1="175.49" x2="187.98" y2="175.49" class="err"/>
<circle cx="184.98" cy="163.66" r="2.5" class="obs"/>
<line x1="217.49" y1="125.01" x2="217.49" y2="158.77" class="err"/>
<line x1="214.49" y1="125.01" x2="220.49" y2="125.01" class="err"/>
<line x1="214.49" y1="158.77" x2="220.49" y2="158.77" class="err"/>
<circle cx="217.49" cy="141.89" r="2.5" class="obs"/>
<line x1="250.69" y1="119.85" x2="250.69" y2="143.50" class="err"/>
<line x1="247.69" y1="119.85" x2="253.69" y2="119.85" class="err"/>
<line x1="247.69" y1="143.50" x2="253.69" y2="143.50" class="err"/>
<circle cx="250.69" cy="131.67" r="2.5" class="obs"/>
<line x1="283.54" y1="112.86" x2="283.54" y2="136.51" class="err"/>
<line x1="280.54" y1="112.86" x2="286.54" y2="112.86" class="err"/>
<line x1="280.54" y1="136.51" x2="286.54" y2="136.51" class="err"/>
<circle cx="283.54" cy="124.69" r="2.5" class="obs"/>
<line x1="316.39" y1="104.53" x2="316.39" y2="128.18" class="err"/>
<line x1="313.39" y1="104.53" x2="319.39" y2="104.53" class="err"/>
<line x1="313.39" y1="128.18" x2="319.39" y2="128.18" class="err"/>
<circle cx="316.39" cy="116.35" r="2.5" class="obs"/>
<line x1="349.25" y1="98.61" x2="349.25" y2="122.27" class="err"/>
<line x1="346.25" y1="98.61" x2="352.25" y2="98.61" class="err"/>
<line x1="346.25" y1="122.27" x2="352.25" y2="122.27" class="err"/>
<circle cx="349.25" cy="110.44" r="2.5" class="obs"/>
<line x1="381.75" y1="94.31" x2="381.75" y2="117.97" class="err"/>
<line x1="378.75" y1="94.31" x2="384.75" y2="94.31" class="err"/>
<line x1="378.75" y1="117.97" x2="384.75" y2="117.97" class="err"/>
<circle cx="381.75" cy="106.14" r="2.5" class="obs"/>
<line x1="414.95" y1="90.28" x2="414.95" y2="113.93" class="err"/>
<line x1="411.95" y1="90.28" x2="417.95" y2="90.28" class="err"/>
<line x1="411.95" y1="113.93" x2="417.95" y2="113.93" class="err"/>
<circle cx="414.95" cy="102.11" r="2.5" class="obs"/>
<line x1="447.11" y1="87.00" x2="447.11" y2="111.84" class="err"/>
<line x1="444.11" y1="87.00" x2="450.11" y2="87.00" class="err"/>
<line x1="444.11" y1="111.84" x2="450.11" y2="111.84" class="err"/>
<circle cx="447.11" cy="99.42" r="2.5" class="obs"/>
<line x1="482.41" y1="85.71" x2="482.41" y2="109.36" class="err"/>
<line x1="479.41" y1="85.71" x2="485.41" y2="85.71" class="err"/>
<line x1="479.41" y1="109.36" x2="485.41" y2="109.36" class="err"/>
<circle cx="482.41" cy="97.54" r="2.5" class="obs"/>
<line x1="510.37" y1="83.18" x2="510.37" y2="110.82" class="err"/>
<line x1="507.37" y1="83.18" x2="513.37" y2="83.18" class="err"/>
<line x1="507.37" y1="110.82" x2="513.37" y2="110.82" class="err"/>
<circle cx="510.37" cy="97.00" r="2.5" class="obs"/>
<g class="legend">
<line x1="82" y1="69" x2="106" y2="69" class="fw"/>
<text x="112" y="73" class="lbl-l">framework fit</text>
<line x1="82" y1="87" x2="106" y2="87" class="nt"/>
<text x="112" y="91" class="lbl-l">Newtonian (no halo)</text>
<circle cx="94" cy="105" r="2.5" class="obs"/>
<text x="112" y="109" class="lbl">observed V±err</text>
</g>
<g class="legend">
<line x1="442" y1="69" x2="466" y2="69" class="rho"/>
<text x="472" y="73" class="lbl-r">ρ(r) raw</text>
<line x1="442" y1="87" x2="466" y2="87" class="sig"/>
<text x="472" y="91" class="lbl-s">Σ(r) cumulative</text>
<text x="442" y="113" class="lbl-r">ρ peak: 131 M☉/pc²</text>
</g>
<rect x="705" y="55" width="170" height="170" class="preview-bg"/>
<defs><radialGradient id="g_F574_1" cx="0.5" cy="0.5" r="0.5">
  <stop offset="0.0000" stop-color="rgb(229,57.25,57.25)"/>
  <stop offset="0.0313" stop-color="rgb(218,54.5,54.5)"/>
  <stop offset="0.0625" stop-color="rgb(215,53.75,53.75)"/>
  <stop offset="0.0938" stop-color="rgb(209,52.25,52.25)"/>
  <stop offset="0.1250" stop-color="rgb(202,50.5,50.5)"/>
  <stop offset="0.1563" stop-color="rgb(195,48.75,48.75)"/>
  <stop offset="0.1875" stop-color="rgb(188,47,47)"/>
  <stop offset="0.2188" stop-color="rgb(181,45.25,45.25)"/>
  <stop offset="0.2500" stop-color="rgb(175,43.75,43.75)"/>
  <stop offset="0.2813" stop-color="rgb(168,42,42)"/>
  <stop offset="0.3125" stop-color="rgb(162,40.5,40.5)"/>
  <stop offset="0.3438" stop-color="rgb(159,39.75,39.75)"/>
  <stop offset="0.3750" stop-color="rgb(155,38.75,38.75)"/>
  <stop offset="0.4063" stop-color="rgb(152,38,38)"/>
  <stop offset="0.4375" stop-color="rgb(149,37.25,37.25)"/>
  <stop offset="0.4688" stop-color="rgb(146,36.5,36.5)"/>
  <stop offset="0.5000" stop-color="rgb(142,35.5,35.5)"/>
  <stop offset="0.5313" stop-color="rgb(139,34.75,34.75)"/>
  <stop offset="0.5625" stop-color="rgb(136,34,34)"/>
  <stop offset="0.5938" stop-color="rgb(132,33,33)"/>
  <stop offset="0.6250" stop-color="rgb(129,32.25,32.25)"/>
  <stop offset="0.6563" stop-color="rgb(126,31.5,31.5)"/>
  <stop offset="0.6875" stop-color="rgb(122,30.5,30.5)"/>
  <stop offset="0.7188" stop-color="rgb(119,29.75,29.75)"/>
  <stop offset="0.7500" stop-color="rgb(116,29,29)"/>
  <stop offset="0.7813" stop-color="rgb(113,28.25,28.25)"/>
  <stop offset="0.8125" stop-color="rgb(109,27.25,27.25)"/>
  <stop offset="0.8438" stop-color="rgb(100,25,25)"/>
  <stop offset="0.8750" stop-color="rgb(90,22.5,22.5)"/>
  <stop offset="0.9063" stop-color="rgb(80,20,20)"/>
  <stop offset="0.9375" stop-color="rgb(70,17.5,17.5)"/>
  <stop offset="0.9688" stop-color="rgb(47,11.75,11.75)"/>
  <stop offset="1.0000" stop-color="rgb(0,0,0)"/>
</radialGradient></defs>
<circle cx="790" cy="140" r="81" fill="url(#g_F574_1)"/>
<text x="790" y="49" text-anchor="middle" class="preview-lbl">face-on luminance from ρ(r)</text>
<text x="790" y="239" text-anchor="middle" class="preview-lbl">edge at r = 14.9 kpc</text>
</svg>