<svg xmlns="http://www.w3.org/2000/svg" viewBox="0 0 960 450" width="960" height="450" font-family="sans-serif" font-size="12">
<style>
  .ax { stroke: #333; stroke-width: 1; fill: none; }
  .grid { stroke: #ddd; stroke-width: 0.5; fill: none; }
  .lbl { fill: #333; }
  .lbl-l { fill: #0066cc; }
  .lbl-r { fill: #b03030; }
  .obs { fill: #222; }
  .err { stroke: #555; stroke-width: 0.8; fill: none; }
  .fw { stroke: #0066cc; stroke-width: 2.2; fill: none; }
  .nt { stroke: #cc6600; stroke-width: 1.6; fill: none; stroke-dasharray: 5,3; }
  .mond { stroke: #7b2cbf; stroke-width: 1.8; fill: none; stroke-dasharray: 7,3; }
  .lbl-p { fill: #cc7000; }
  .lbl-m { fill: #7b2cbf; }
  .rho { stroke: #b03030; stroke-width: 2.0; fill: none; }
  .phot { stroke: #cc7000; stroke-width: 1.8; fill: none; }
  .mbar { stroke: #8e44ad; stroke-width: 1.8; fill: none; opacity: 0.9; }
  .mph { stroke: #c77dff; stroke-width: 1.6; fill: none; stroke-dasharray: 4,3; opacity: 0.95; }
  .title { fill: #111; font-size: 16px; font-weight: 600; }
  .subtitle { fill: #555; font-size: 11px; }
  .preview-bg { fill: #000; }
  .preview-lbl { fill: #888; font-size: 10px; }
  .legend { font-size: 11px; }
</style>
<text x="378.5" y="22" text-anchor="middle" class="title">F579-V1</text>
<text x="378.5" y="38" text-anchor="middle" class="subtitle">rMax=15.2 kpc, N=14, FW=3.1 km/s, 7.0%, 0.33σ, MOND=18.5 km/s, 21.7%, 1.87σ, amp=261</text>
<line x1="70" y1="395.0" x2="687" y2="395.0" class="grid"/>
<text x="64" y="399.0" text-anchor="end" class="lbl-l">0</text>
<line x1="70" y1="327.0" x2="687" y2="327.0" class="grid"/>
<text x="64" y="331.0" text-anchor="end" class="lbl-l">30</text>
<line x1="70" y1="259.0" x2="687" y2="259.0" class="grid"/>
<text x="64" y="263.0" text-anchor="end" class="lbl-l">60</text>
<line x1="70" y1="191.0" x2="687" y2="191.0" class="grid"/>
<text x="64" y="195.0" text-anchor="end" class="lbl-l">89</text>
<line x1="70" y1="123.0" x2="687" y2="123.0" class="grid"/>
<text x="64" y="127.0" text-anchor="end" class="lbl-l">119</text>
<line x1="70" y1="55.0" x2="687" y2="55.0" class="grid"/>
<text x="64" y="59.0" text-anchor="end" class="lbl-l">149</text>
<text x="693" y="399.0" text-anchor="start" class="lbl-r">0.0</text>
<text x="693" y="353.7" text-anchor="start" class="lbl-r">0.2</text>
<text x="693" y="308.3" text-anchor="start" class="lbl-r">0.4</text>
<text x="693" y="263.0" text-anchor="start" class="lbl-r">0.6</text>
<text x="693" y="217.7" text-anchor="start" class="lbl-r">0.8</text>
<text x="693" y="172.3" text-anchor="start" class="lbl-r">1.0</text>
<line x1="70.0" y1="55" x2="70.0" y2="395" class="grid"/>
<text x="70.0" y="411" text-anchor="middle" class="lbl">0.0</text>
<line x1="172.8" y1="55" x2="172.8" y2="395" class="grid"/>
<text x="172.8" y="411" text-anchor="middle" class="lbl">3.5</text>
<line x1="275.7" y1="55" x2="275.7" y2="395" class="grid"/>
<text x="275.7" y="411" text-anchor="middle" class="lbl">6.9</text>
<line x1="378.5" y1="55" x2="378.5" y2="395" class="grid"/>
<text x="378.5" y="411" text-anchor="middle" class="lbl">10.4</text>
<line x1="481.3" y1="55" x2="481.3" y2="395" class="grid"/>
<text x="481.3" y="411" text-anchor="middle" class="lbl">13.8</text>
<line x1="584.2" y1="55" x2="584.2" y2="395" class="grid"/>
<text x="584.2" y="411" text-anchor="middle" class="lbl">17.3</text>
<line x1="687.0" y1="55" x2="687.0" y2="395" class="grid"/>
<text x="687.0" y="411" text-anchor="middle" class="lbl">20.7</text>
<text x="378.5" y="438" text-anchor="middle" class="lbl">radius (kpc)</text>
<text x="16" y="225" text-anchor="middle" class="lbl-l" transform="rotate(-90, 16, 225)">velocity (km/s)</text>
<text x="724" y="225" text-anchor="middle" class="lbl-r" transform="rotate(-90, 724, 225)">profiles (normalized to peak)</text>
<rect x="70" y="55" width="617" height="340" class="ax"/>
<path d="M 70.0,168.3 L 72.8,171.8 L 75.6,175.2 L 78.5,178.7 L 81.3,182.1 L 84.1,185.6 L 86.9,189.1 L 89.7,192.5 L 92.5,196.0 L 95.4,199.4 L 98.2,202.9 L 101.0,206.3 L 103.8,209.8 L 106.6,213.2 L 109.4,216.7 L 112.3,220.1 L 115.1,223.6 L 117.9,227.0 L 120.7,230.5 L 123.5,234.0 L 126.3,237.4 L 129.2,240.9 L 132.0,244.3 L 134.8,247.8 L 137.6,251.2 L 140.4,254.7 L 143.3,258.1 L 146.1,261.6 L 148.9,265.0 L 151.7,268.1 L 154.5,268.5 L 157.3,269.0 L 160.2,269.7 L 163.0,270.4 L 165.8,271.1 L 168.6,271.7 L 171.4,272.4 L 174.2,273.1 L 177.1,273.8 L 179.9,274.4 L 182.7,275.1 L 185.5,275.8 L 188.3,276.5 L 191.1,277.2 L 194.0,277.8 L 196.8,278.5 L 199.6,279.2 L 202.4,279.9 L 205.2,280.5 L 208.1,281.2 L 210.9,281.9 L 213.7,282.6 L 216.5,283.3 L 219.3,283.9 L 222.1,284.6 L 225.0,285.3 L 227.8,286.0 L 230.6,286.6 L 233.4,287.3 L 236.2,288.0 L 239.0,288.7 L 241.9,289.4 L 244.7,290.0 L 247.5,290.7 L 250.3,291.4 L 253.1,291.9 L 255.9,292.4 L 258.8,292.8 L 261.6,293.3 L 264.4,293.8 L 267.2,294.3 L 270.0,294.8 L 272.8,295.2 L 275.7,295.7 L 278.5,296.2 L 281.3,296.7 L 284.1,297.2 L 286.9,297.6 L 289.8,298.1 L 292.6,298.6 L 295.4,299.1 L 298.2,299.5 L 301.0,300.0 L 303.8,300.5 L 306.7,301.0 L 309.5,301.5 L 312.3,301.9 L 315.1,302.4 L 317.9,302.9 L 320.7,303.4 L 323.6,303.9 L 326.4,304.3 L 329.2,304.8 L 332.0,305.3 L 334.8,305.8 L 337.6,306.3 L 340.5,306.7 L 343.3,307.2 L 346.1,307.7 L 348.9,308.2 L 351.7,308.6 L 354.6,309.1 L 357.4,309.6 L 360.2,310.1 L 363.0,310.6 L 365.8,311.0 L 368.6,311.5 L 371.5,312.0 L 374.3,312.5 L 377.1,313.0 L 379.9,313.4 L 382.7,313.9 L 385.5,314.4 L 388.4,314.9 L 391.2,315.4 L 394.0,315.8 L 396.8,316.3 L 399.6,316.8 L 402.4,317.3 L 405.3,317.8 L 408.1,318.2 L 410.9,318.7 L 413.7,319.2 L 416.5,319.7 L 419.4,320.1 L 422.2,320.6 L 425.0,321.1 L 427.8,321.6 L 430.6,322.1 L 433.4,322.5 L 436.3,323.0 L 439.1,323.5 L 441.9,324.0 L 444.7,324.5 L 447.5,324.9 L 450.3,325.4 L 453.2,325.9 L 456.0,326.4 L 458.8,326.9 L 461.6,327.3 L 464.4,327.8 L 467.2,328.3 L 470.1,328.8 L 472.9,329.2 L 475.7,329.7 L 478.5,330.2 L 481.3,330.7 L 484.2,331.2 L 487.0,331.6 L 489.8,332.1 L 492.6,332.6 L 495.4,333.1 L 498.2,333.6 L 501.1,334.0 L 503.9,334.5 L 506.7,335.0 L 509.5,335.5 L 512.3,336.0 L 515.1,336.4 L 518.0,336.9 L 520.8,337.4 L 523.6,337.9 L 526.4,338.3 L 529.2,338.8 L 532.0,339.3 L 534.9,339.8 L 537.7,340.3 L 540.5,340.7 L 543.3,341.2 L 546.1,341.7 L 548.9,342.2 L 551.8,342.7 L 554.6,343.1 L 557.4,344.4 L 560.2,345.8 L 563.0,347.2 L 565.9,348.7 L 568.7,350.1 L 571.5,351.5 L 574.3,352.9 L 577.1,354.4 L 579.9,355.8 L 582.8,357.2 L 585.6,358.6 L 588.4,360.0 L 591.2,361.5 L 594.0,362.9 L 596.8,364.3 L 599.7,365.7 L 602.5,367.2 L 605.3,368.6 L 608.1,370.0 L 610.9,371.4 L 613.7,372.8 L 616.6,374.3 L 619.4,375.7 L 622.2,377.1 L 625.0,378.5 L 627.8,380.0 L 630.7,381.4 L 633.5,382.8 L 636.3,384.2 L 639.1,385.7 L 641.9,387.1 L 644.7,388.5 L 647.6,389.9 L 650.4,391.3 L 653.2,392.8 L 656.0,394.2 L 658.8,395.0 L 661.6,395.0 L 664.5,395.0 L 667.3,395.0 L 670.1,395.0 L 672.9,395.0 L 675.7,395.0 L 678.5,395.0 L 681.4,395.0 L 684.2,395.0 L 687.0,395.0" class="rho"/>
<path d="M 82.5,168.3 L 113.8,251.7 L 132.9,289.2 L 154.6,316.6 L 186.2,331.0 L 211.2,338.9 L 239.5,351.3 L 258.3,357.8 L 289.6,366.7 L 314.6,372.5 L 342.9,377.1 L 393.2,384.8 L 433.8,389.1 L 521.6,392.6" class="phot"/>
<path d="M 82.5,246.5 L 113.8,184.6 L 132.9,168.3 L 154.6,204.0 L 186.2,223.9 L 211.2,214.9 L 239.5,219.1 L 258.3,239.4 L 289.6,257.5 L 314.6,272.6 L 342.9,285.2 L 393.2,311.8 L 433.8,343.7 L 521.6,355.5" class="mbar"/>
<path d="M 82.5,207.5 L 113.8,177.2 L 132.9,168.3 L 154.6,183.4 L 186.2,192.2 L 211.2,188.4 L 239.5,190.6 L 258.3,200.2 L 289.6,209.4 L 314.6,217.5 L 342.9,225.0 L 393.2,241.9 L 433.8,264.1 L 521.6,275.3" class="mph"/>
<path d="M 76.2,336.5 L 82.3,313.2 L 88.5,296.0 L 94.7,282.1 L 100.8,270.3 L 107.0,260.2 L 113.2,251.2 L 119.4,243.3 L 125.5,236.3 L 131.7,230.1 L 137.9,224.5 L 144.0,219.6 L 150.2,215.2 L 156.4,211.2 L 162.6,207.2 L 168.7,203.2 L 174.9,199.4 L 181.1,195.5 L 187.2,191.8 L 193.4,188.2 L 199.6,184.7 L 205.7,181.2 L 211.9,177.9 L 218.1,174.6 L 224.3,171.5 L 230.4,168.4 L 236.6,165.4 L 242.8,162.5 L 248.9,159.7 L 255.1,157.0 L 261.3,154.3 L 267.4,151.7 L 273.6,149.2 L 279.8,146.7 L 285.9,144.2 L 292.1,141.8 L 298.3,139.5 L 304.5,137.2 L 310.6,135.0 L 316.8,132.8 L 323.0,130.7 L 329.1,128.6 L 335.3,126.6 L 341.5,124.6 L 347.6,122.7 L 353.8,120.8 L 360.0,118.9 L 366.2,117.2 L 372.3,115.4 L 378.5,113.7 L 384.7,112.1 L 390.8,110.5 L 397.0,108.9 L 403.2,107.4 L 409.4,105.9 L 415.5,104.5 L 421.7,103.1 L 427.9,101.7 L 434.0,100.4 L 440.2,99.1 L 446.4,97.9 L 452.5,96.7 L 458.7,95.5 L 464.9,94.4 L 471.1,93.3 L 477.2,92.3 L 483.4,91.3 L 489.6,90.3 L 495.7,89.4 L 501.9,88.5 L 508.1,87.7 L 514.2,86.8 L 520.4,86.1 L 526.6,85.3 L 532.8,84.6 L 538.9,83.9 L 545.1,83.3 L 551.3,82.7 L 557.4,82.1 L 563.6,81.7 L 569.8,81.4 L 575.9,81.2 L 582.1,81.1 L 588.3,81.2 L 594.4,81.4 L 600.6,81.8 L 606.8,82.2 L 613.0,82.8 L 619.1,83.5 L 625.3,84.4 L 631.5,85.4 L 637.6,86.5 L 643.8,87.7 L 650.0,89.1 L 656.1,90.6 L 662.3,92.2 L 668.5,93.7 L 674.7,95.3 L 680.8,96.8 L 687.0,98.3" class="nt"/>
<path d="M 82.5,344.7 L 113.8,280.1 L 132.9,257.0 L 154.6,239.2 L 186.2,220.4 L 211.2,201.4 L 239.5,183.8 L 258.3,174.7 L 289.6,160.8 L 314.6,152.5 L 342.9,142.4 L 393.2,130.1 L 433.8,126.4 L 521.6,116.7" class="mond"/>
<path d="M 75.1,367.8 L 80.3,344.1 L 85.4,320.5 L 90.6,298.3 L 95.7,277.8 L 100.8,259.1 L 106.0,242.1 L 111.1,226.9 L 116.3,213.5 L 121.4,201.8 L 126.6,191.8 L 131.7,183.7 L 136.8,177.4 L 142.0,172.9 L 147.1,170.0 L 152.3,168.4 L 157.4,167.6 L 162.6,167.2 L 167.7,166.7 L 172.8,166.2 L 178.0,165.4 L 183.1,164.4 L 188.3,163.3 L 193.4,162.1 L 198.5,160.8 L 203.7,159.4 L 208.8,158.0 L 214.0,156.6 L 219.1,155.3 L 224.3,154.1 L 229.4,152.9 L 234.5,151.9 L 239.7,151.0 L 244.8,150.2 L 250.0,149.6 L 255.1,149.0 L 260.2,148.4 L 265.4,147.8 L 270.5,147.1 L 275.7,146.4 L 280.8,145.7 L 286.0,144.9 L 291.1,144.1 L 296.2,143.3 L 301.4,142.5 L 306.5,141.6 L 311.7,140.8 L 316.8,140.0 L 321.9,139.3 L 327.1,138.5 L 332.2,137.8 L 337.4,137.1 L 342.5,136.4 L 347.6,135.8 L 352.8,135.2 L 357.9,134.6 L 363.1,134.1 L 368.2,133.6 L 373.4,133.1 L 378.5,132.8 L 383.6,132.4 L 388.8,132.1 L 393.9,131.8 L 399.1,131.6 L 404.2,131.4 L 409.4,131.3 L 414.5,131.2 L 419.6,131.1 L 424.8,131.1 L 429.9,131.2 L 435.1,131.2 L 440.2,131.3 L 445.3,131.5 L 450.5,131.7 L 455.6,131.9 L 460.8,132.1 L 465.9,132.4 L 471.1,132.6 L 476.2,132.9 L 481.3,133.2 L 486.5,133.5 L 491.6,133.8 L 496.8,134.1 L 501.9,134.3 L 507.0,134.5 L 512.2,134.6 L 517.3,134.6 L 522.5,134.5 L 527.6,134.2 L 532.8,133.7 L 537.9,133.0 L 543.0,132.1 L 548.2,131.1 L 553.3,130.3 L 558.5,129.7 L 563.6,129.7 L 568.7,130.5 L 573.9,132.1 L 579.0,134.5 L 584.2,137.8 L 589.3,141.7 L 594.4,146.2 L 599.6,151.3 L 604.7,156.7 L 609.9,162.5 L 615.0,168.5 L 620.2,174.6 L 625.3,180.8 L 630.4,186.9 L 635.6,192.9 L 640.7,198.7 L 645.9,204.2 L 651.0,209.3 L 656.1,214.2 L 661.3,218.6 L 666.4,222.7 L 671.6,226.5 L 676.7,230.1 L 681.9,233.3 L 687.0,236.4" class="fw"/>
<line x1="82.51" y1="292.64" x2="82.51" y2="334.23" class="err"/>
<line x1="79.51" y1="292.64" x2="85.51" y2="292.64" class="err"/>
<line x1="79.51" y1="334.23" x2="85.51" y2="334.23" class="err"/>
<circle cx="82.51" cy="313.44" r="2.5" class="obs"/>
<line x1="113.79" y1="183.44" x2="113.79" y2="225.93" class="err"/>
<line x1="110.79" y1="183.44" x2="116.79" y2="183.44" class="err"/>
<line x1="110.79" y1="225.93" x2="116.79" y2="225.93" class="err"/>
<circle cx="113.79" cy="204.68" r="2.5" class="obs"/>
<line x1="132.86" y1="156.02" x2="132.86" y2="203.54" class="err"/>
<line x1="129.86" y1="156.02" x2="135.86" y2="156.02" class="err"/>
<line x1="129.86" y1="203.54" x2="135.86" y2="203.54" class="err"/>
<circle cx="132.86" cy="179.78" r="2.5" class="obs"/>
<line x1="154.61" y1="151.22" x2="154.61" y2="192.80" class="err"/>
<line x1="151.61" y1="151.22" x2="157.61" y2="151.22" class="err"/>
<line x1="151.61" y1="192.80" x2="157.61" y2="192.80" class="err"/>
<circle cx="154.61" cy="172.01" r="2.5" class="obs"/>
<line x1="186.19" y1="143.45" x2="186.19" y2="185.03" class="err"/>
<line x1="183.19" y1="143.45" x2="189.19" y2="143.45" class="err"/>
<line x1="183.19" y1="185.03" x2="189.19" y2="185.03" class="err"/>
<circle cx="186.19" cy="164.24" r="2.5" class="obs"/>
<line x1="211.21" y1="116.95" x2="211.21" y2="193.26" class="err"/>
<line x1="208.21" y1="116.95" x2="214.21" y2="116.95" class="err"/>
<line x1="208.21" y1="193.26" x2="214.21" y2="193.26" class="err"/>
<circle cx="211.21" cy="155.11" r="2.5" class="obs"/>
<line x1="239.52" y1="132.03" x2="239.52" y2="173.61" class="err"/>
<line x1="236.52" y1="132.03" x2="242.52" y2="132.03" class="err"/>
<line x1="236.52" y1="173.61" x2="242.52" y2="173.61" class="err"/>
<circle cx="239.52" cy="152.82" r="2.5" class="obs"/>
<line x1="258.29" y1="121.98" x2="258.29" y2="174.53" class="err"/>
<line x1="255.29" y1="121.98" x2="261.29" y2="121.98" class="err"/>
<line x1="255.29" y1="174.53" x2="261.29" y2="174.53" class="err"/>
<circle cx="258.29" cy="148.25" r="2.5" class="obs"/>
<line x1="289.57" y1="91.13" x2="289.57" y2="196.23" class="err"/>
<line x1="286.57" y1="91.13" x2="292.57" y2="91.13" class="err"/>
<line x1="286.57" y1="196.23" x2="292.57" y2="196.23" class="err"/>
<circle cx="289.57" cy="143.68" r="2.5" class="obs"/>
<line x1="314.59" y1="94.10" x2="314.59" y2="184.12" class="err"/>
<line x1="311.59" y1="94.10" x2="317.59" y2="94.10" class="err"/>
<line x1="311.59" y1="184.12" x2="317.59" y2="184.12" class="err"/>
<circle cx="314.59" cy="139.11" r="2.5" class="obs"/>
<line x1="342.89" y1="116.04" x2="342.89" y2="157.62" class="err"/>
<line x1="339.89" y1="116.04" x2="345.89" y2="116.04" class="err"/>
<line x1="339.89" y1="157.62" x2="345.89" y2="157.62" class="err"/>
<circle cx="342.89" cy="136.83" r="2.5" class="obs"/>
<line x1="393.24" y1="113.75" x2="393.24" y2="155.33" class="err"/>
<line x1="390.24" y1="113.75" x2="396.24" y2="113.75" class="err"/>
<line x1="390.24" y1="155.33" x2="396.24" y2="155.33" class="err"/>
<circle cx="393.24" cy="134.54" r="2.5" class="obs"/>
<line x1="433.76" y1="113.75" x2="433.76" y2="155.33" class="err"/>
<line x1="430.76" y1="113.75" x2="436.76" y2="113.75" class="err"/>
<line x1="430.76" y1="155.33" x2="436.76" y2="155.33" class="err"/>
<circle cx="433.76" cy="134.54" r="2.5" class="obs"/>
<line x1="521.65" y1="108.95" x2="521.65" y2="160.13" class="err"/>
<line x1="518.65" y1="108.95" x2="524.65" y2="108.95" class="err"/>
<line x1="518.65" y1="160.13" x2="524.65" y2="160.13" class="err"/>
<circle cx="521.65" cy="134.54" r="2.5" class="obs"/>
<g class="legend">
<line x1="82" y1="69" x2="106" y2="69" class="fw"/>
<text x="112" y="73" class="lbl-l">framework: 3.1 km/s, 7.0%, 0.33σ</text>
<line x1="82" y1="87" x2="106" y2="87" class="nt"/>
<text x="112" y="91" class="lbl-l">Newtonian: 12.8 km/s, 12.9%, 1.29σ</text>
<line x1="82" y1="105" x2="106" y2="105" class="mond"/>
<text x="112" y="109" class="lbl-m">MOND/RAR: 18.5 km/s, 21.7%, 1.87σ</text>
<circle cx="94" cy="123" r="2.5" class="obs"/>
<text x="112" y="127" class="lbl">observed V±err</text>
</g>
<g class="legend">
<line x1="472" y1="69" x2="496" y2="69" class="rho"/>
<text x="502" y="73" class="lbl-r">ρ(r) raw</text>
<line x1="472" y1="87" x2="496" y2="87" class="phot"/>
<text x="502" y="91" class="lbl-p">photometric baryonic profile</text>
<line x1="472" y1="105" x2="496" y2="105" class="mbar"/>
<text x="502" y="109" class="lbl-m">MOND baryonic annulus</text>
<line x1="472" y1="123" x2="496" y2="123" class="mph"/>
<text x="502" y="127" class="lbl-m">MOND phantom annulus</text>
<text x="472" y="147" class="lbl-r">ρ peak: 239 M☉/pc²</text>
<text x="472" y="163" class="lbl-p">phot peak: 83.47 (arb.)</text>
<text x="472" y="179" class="lbl-m">Σbar peak: 39.56 M☉/pc²</text>
<text x="472" y="195" class="lbl-m">Σphantom peak: 85.65 M☉/pc²</text>
</g>
<rect x="775" y="55" width="170" height="170" class="preview-bg"/>
<defs><radialGradient id="g_F579_V1" cx="0.5" cy="0.5" r="0.5">
  <stop offset="0.0000" stop-color="rgb(102,102,102)"/>
  <stop offset="0.0313" stop-color="rgb(95,95,95)"/>
  <stop offset="0.0625" stop-color="rgb(89,89,89)"/>
  <stop offset="0.0938" stop-color="rgb(82,82,82)"/>
  <stop offset="0.1250" stop-color="rgb(76,76,76)"/>
  <stop offset="0.1563" stop-color="rgb(72,72,72)"/>
  <stop offset="0.1875" stop-color="rgb(71,71,71)"/>
  <stop offset="0.2188" stop-color="rgb(70,70,70)"/>
  <stop offset="0.2500" stop-color="rgb(69,69,69)"/>
  <stop offset="0.2813" stop-color="rgb(67,67,67)"/>
  <stop offset="0.3125" stop-color="rgb(66,66,66)"/>
  <stop offset="0.3438" stop-color="rgb(65,65,65)"/>
  <stop offset="0.3750" stop-color="rgb(64,64,64)"/>
  <stop offset="0.4063" stop-color="rgb(63,63,63)"/>
  <stop offset="0.4375" stop-color="rgb(61,61,61)"/>
  <stop offset="0.4688" stop-color="rgb(59,59,59)"/>
  <stop offset="0.5000" stop-color="rgb(57,57,57)"/>
  <stop offset="0.5313" stop-color="rgb(55,55,55)"/>
  <stop offset="0.5625" stop-color="rgb(53,53,53)"/>
  <stop offset="0.5938" stop-color="rgb(50,50,50)"/>
  <stop offset="0.6250" stop-color="rgb(48,48,48)"/>
  <stop offset="0.6563" stop-color="rgb(46,46,46)"/>
  <stop offset="0.6875" stop-color="rgb(44,44,44)"/>
  <stop offset="0.7188" stop-color="rgb(42,42,42)"/>
  <stop offset="0.7500" stop-color="rgb(40,40,40)"/>
  <stop offset="0.7813" stop-color="rgb(38,38,38)"/>
  <stop offset="0.8125" stop-color="rgb(36,36,36)"/>
  <stop offset="0.8438" stop-color="rgb(31,31,31)"/>
  <stop offset="0.8750" stop-color="rgb(25,25,25)"/>
  <stop offset="0.9063" stop-color="rgb(19,19,19)"/>
  <stop offset="0.9375" stop-color="rgb(12,12,12)"/>
  <stop offset="0.9688" stop-color="rgb(6,6,6)"/>
  <stop offset="1.0000" stop-color="rgb(0,0,0)"/>
</radialGradient></defs>
<circle cx="860" cy="140" r="81" fill="url(#g_F579_V1)"/>
<text x="860" y="49" text-anchor="middle" class="preview-lbl">face-on luminance from ρ(r)</text>
<text x="860" y="239" text-anchor="middle" class="preview-lbl">edge at r = 19.7 kpc</text>
</svg>