<svg xmlns="http://www.w3.org/2000/svg" viewBox="0 0 720 420" width="720" height="420" font-family="sans-serif" font-size="12">
<style>
  .ax { stroke: #333; stroke-width: 1; fill: none; }
  .grid { stroke: #ddd; stroke-width: 0.5; fill: none; }
  .lbl { fill: #333; }
  .lbl-l { fill: #0066cc; }
  .lbl-r { fill: #b03030; }
  .obs { fill: #222; }
  .err { stroke: #555; stroke-width: 0.8; fill: none; }
  .fw { stroke: #0066cc; stroke-width: 2.2; fill: none; }
  .nt { stroke: #cc6600; stroke-width: 1.6; fill: none; stroke-dasharray: 5,3; }
  .rho { stroke: #b03030; stroke-width: 2.0; fill: none; }
  .sig { stroke: #b03030; stroke-width: 1.6; fill: none; stroke-dasharray: 4,2; opacity: 0.85; }
  .title { fill: #111; font-size: 16px; font-weight: 600; }
  .subtitle { fill: #555; font-size: 11px; }
  .legend { font-size: 11px; }
</style>
<text x="360.0" y="22" text-anchor="middle" class="title">F583-4</text>
<text x="360.0" y="38" text-anchor="middle" class="subtitle">rMax=7.3 kpc, N=12, RMS=1.1 km/s (2.1%), amp=105</text>
<line x1="70" y1="365.0" x2="635" y2="365.0" class="grid"/>
<text x="64" y="369.0" text-anchor="end" class="lbl-l">0</text>
<line x1="70" y1="303.0" x2="635" y2="303.0" class="grid"/>
<text x="64" y="307.0" text-anchor="end" class="lbl-l">16</text>
<line x1="70" y1="241.0" x2="635" y2="241.0" class="grid"/>
<text x="64" y="245.0" text-anchor="end" class="lbl-l">33</text>
<line x1="70" y1="179.0" x2="635" y2="179.0" class="grid"/>
<text x="64" y="183.0" text-anchor="end" class="lbl-l">49</text>
<line x1="70" y1="116.99999999999999" x2="635" y2="116.99999999999999" class="grid"/>
<text x="64" y="120.99999999999999" text-anchor="end" class="lbl-l">66</text>
<line x1="70" y1="55.0" x2="635" y2="55.0" class="grid"/>
<text x="64" y="59.0" text-anchor="end" class="lbl-l">82</text>
<text x="641" y="369.0" text-anchor="start" class="lbl-r">0.0</text>
<text x="641" y="327.6666666666667" text-anchor="start" class="lbl-r">0.2</text>
<text x="641" y="286.33333333333337" text-anchor="start" class="lbl-r">0.4</text>
<text x="641" y="245.00000000000003" text-anchor="start" class="lbl-r">0.6</text>
<text x="641" y="203.66666666666666" text-anchor="start" class="lbl-r">0.8</text>
<text x="641" y="162.33333333333334" text-anchor="start" class="lbl-r">1.0</text>
<line x1="70.0" y1="55" x2="70.0" y2="365" class="grid"/>
<text x="70.0" y="381" text-anchor="middle" class="lbl">0.0</text>
<line x1="164.16666666666666" y1="55" x2="164.16666666666666" y2="365" class="grid"/>
<text x="164.16666666666666" y="381" text-anchor="middle" class="lbl">1.4</text>
<line x1="258.3333333333333" y1="55" x2="258.3333333333333" y2="365" class="grid"/>
<text x="258.3333333333333" y="381" text-anchor="middle" class="lbl">2.8</text>
<line x1="352.5" y1="55" x2="352.5" y2="365" class="grid"/>
<text x="352.5" y="381" text-anchor="middle" class="lbl">4.3</text>
<line x1="446.66666666666663" y1="55" x2="446.66666666666663" y2="365" class="grid"/>
<text x="446.66666666666663" y="381" text-anchor="middle" class="lbl">5.7</text>
<line x1="540.8333333333335" y1="55" x2="540.8333333333335" y2="365" class="grid"/>
<text x="540.8333333333335" y="381" text-anchor="middle" class="lbl">7.1</text>
<line x1="635.0" y1="55" x2="635.0" y2="365" class="grid"/>
<text x="635.0" y="381" text-anchor="middle" class="lbl">8.5</text>
<text x="352.5" y="408" text-anchor="middle" class="lbl">radius (kpc)</text>
<text x="16" y="210.0" text-anchor="middle" class="lbl-l" transform="rotate(-90, 16, 210.0)">velocity (km/s)</text>
<text x="704" y="210.0" text-anchor="middle" class="lbl-r" transform="rotate(-90, 704, 210.0)">mass profile (normalized to peak)</text>
<rect x="70" y="55" width="565" height="310" class="ax"/>
<path d="M 70.0,158.3 L 72.6,163.4 L 75.2,168.4 L 77.7,173.4 L 80.3,178.5 L 82.9,183.5 L 85.5,188.5 L 88.1,193.6 L 90.6,198.6 L 93.2,203.6 L 95.8,208.7 L 98.4,211.6 L 101.0,211.7 L 103.5,211.9 L 106.1,212.0 L 108.7,212.1 L 111.3,212.2 L 113.9,212.3 L 116.4,212.5 L 119.0,212.6 L 121.6,212.7 L 124.2,212.8 L 126.8,212.9 L 129.3,213.0 L 131.9,213.2 L 134.5,213.3 L 137.1,213.4 L 139.7,213.5 L 142.2,213.6 L 144.8,213.8 L 147.4,215.0 L 150.0,218.7 L 152.6,222.5 L 155.1,226.2 L 157.7,230.0 L 160.3,233.7 L 162.9,236.4 L 165.5,236.8 L 168.0,237.2 L 170.6,237.6 L 173.2,238.1 L 175.8,238.5 L 178.4,238.9 L 180.9,239.3 L 183.5,239.7 L 186.1,240.1 L 188.7,240.5 L 191.3,240.9 L 193.8,241.4 L 196.4,241.8 L 199.0,242.2 L 201.6,242.6 L 204.2,243.0 L 206.7,243.4 L 209.3,243.8 L 211.9,244.2 L 214.5,244.7 L 217.1,245.1 L 219.6,245.5 L 222.2,245.9 L 224.8,246.3 L 227.4,246.7 L 230.0,247.1 L 232.5,247.5 L 235.1,248.0 L 237.7,248.4 L 240.3,248.8 L 242.9,249.2 L 245.4,249.6 L 248.0,250.0 L 250.6,250.4 L 253.2,250.8 L 255.8,251.3 L 258.3,251.7 L 260.9,252.1 L 263.5,252.5 L 266.1,252.9 L 268.7,253.3 L 271.2,253.7 L 273.8,254.2 L 276.4,254.6 L 279.0,255.0 L 281.6,255.4 L 284.1,255.8 L 286.7,256.2 L 289.3,256.6 L 291.9,257.0 L 294.5,257.5 L 297.0,257.9 L 299.6,258.3 L 302.2,258.7 L 304.8,259.1 L 307.4,259.5 L 309.9,259.9 L 312.5,260.3 L 315.1,260.8 L 317.7,261.2 L 320.3,261.6 L 322.8,262.0 L 325.4,262.4 L 328.0,262.8 L 330.6,263.2 L 333.2,263.6 L 335.7,264.1 L 338.3,264.5 L 340.9,264.9 L 343.5,265.3 L 346.1,265.7 L 348.6,266.1 L 351.2,266.5 L 353.8,267.0 L 356.4,267.4 L 358.9,267.8 L 361.5,268.2 L 364.1,268.6 L 366.7,269.0 L 369.3,269.4 L 371.8,269.8 L 374.4,270.3 L 377.0,270.7 L 379.6,271.1 L 382.2,271.5 L 384.7,271.9 L 387.3,272.3 L 389.9,272.7 L 392.5,273.1 L 395.1,273.6 L 397.6,274.0 L 400.2,274.4 L 402.8,274.8 L 405.4,275.2 L 408.0,275.6 L 410.5,276.0 L 413.1,276.4 L 415.7,276.9 L 418.3,277.3 L 420.9,277.7 L 423.4,278.1 L 426.0,278.5 L 428.6,278.9 L 431.2,279.3 L 433.8,279.7 L 436.3,280.2 L 438.9,280.6 L 441.5,281.0 L 444.1,281.4 L 446.7,281.8 L 449.2,282.2 L 451.8,282.6 L 454.4,283.1 L 457.0,283.5 L 459.6,283.9 L 462.1,284.3 L 464.7,284.7 L 467.3,285.1 L 469.9,285.5 L 472.5,285.9 L 475.0,286.4 L 477.6,286.8 L 480.2,287.2 L 482.8,287.6 L 485.4,288.0 L 487.9,288.4 L 490.5,288.8 L 493.1,289.2 L 495.7,289.7 L 498.3,290.1 L 500.8,290.5 L 503.4,290.9 L 506.0,291.3 L 508.6,291.7 L 511.2,292.1 L 513.7,292.5 L 516.3,293.0 L 518.9,293.4 L 521.5,293.8 L 524.1,294.2 L 526.6,294.6 L 529.2,295.0 L 531.8,295.4 L 534.4,295.9 L 537.0,296.3 L 539.5,296.7 L 542.1,297.1 L 544.7,299.5 L 547.3,302.2 L 549.9,304.9 L 552.4,307.5 L 555.0,310.2 L 557.6,312.9 L 560.2,315.5 L 562.8,318.2 L 565.3,320.9 L 567.9,323.5 L 570.5,326.2 L 573.1,328.8 L 575.7,331.5 L 578.2,334.2 L 580.8,336.8 L 583.4,339.5 L 586.0,342.2 L 588.6,344.8 L 591.1,347.5 L 593.7,350.2 L 596.3,352.8 L 598.9,355.5 L 601.5,358.1 L 604.0,360.8 L 606.6,363.5 L 609.2,365.0 L 611.8,365.0 L 614.4,365.0 L 616.9,365.0 L 619.5,365.0 L 622.1,365.0 L 624.7,365.0 L 627.3,365.0 L 629.8,365.0 L 632.4,365.0 L 635.0,365.0" class="rho"/>
<path d="M 70.0,158.3 L 72.6,158.4 L 75.2,158.6 L 77.7,158.9 L 80.3,159.3 L 82.9,159.8 L 85.5,160.3 L 88.1,160.9 L 90.6,161.5 L 93.2,162.2 L 95.8,163.0 L 98.4,163.7 L 101.0,164.5 L 103.5,165.3 L 106.1,166.1 L 108.7,167.0 L 111.3,167.8 L 113.9,168.7 L 116.4,169.6 L 119.0,170.5 L 121.6,171.4 L 124.2,172.4 L 126.8,173.4 L 129.3,174.5 L 131.9,175.5 L 134.5,176.6 L 137.1,177.8 L 139.7,179.0 L 142.2,180.2 L 144.8,181.4 L 147.4,182.7 L 150.0,184.0 L 152.6,185.3 L 155.1,186.6 L 157.7,187.9 L 160.3,189.2 L 162.9,190.6 L 165.5,191.8 L 168.0,193.1 L 170.6,194.4 L 173.2,195.6 L 175.8,196.9 L 178.4,198.1 L 180.9,199.3 L 183.5,200.4 L 186.1,201.6 L 188.7,202.7 L 191.3,203.8 L 193.8,205.0 L 196.4,206.1 L 199.0,207.1 L 201.6,208.2 L 204.2,209.3 L 206.7,210.3 L 209.3,211.4 L 211.9,212.4 L 214.5,213.5 L 217.1,214.5 L 219.6,215.5 L 222.2,216.5 L 224.8,217.6 L 227.4,218.6 L 230.0,219.6 L 232.5,220.6 L 235.1,221.6 L 237.7,222.6 L 240.3,223.5 L 242.9,224.5 L 245.4,225.5 L 248.0,226.5 L 250.6,227.4 L 253.2,228.4 L 255.8,229.4 L 258.3,230.3 L 260.9,231.3 L 263.5,232.3 L 266.1,233.2 L 268.7,234.2 L 271.2,235.1 L 273.8,236.1 L 276.4,237.0 L 279.0,237.9 L 281.6,238.9 L 284.1,239.8 L 286.7,240.7 L 289.3,241.7 L 291.9,242.6 L 294.5,243.5 L 297.0,244.5 L 299.6,245.4 L 302.2,246.3 L 304.8,247.2 L 307.4,248.1 L 309.9,249.0 L 312.5,249.9 L 315.1,250.8 L 317.7,251.8 L 320.3,252.7 L 322.8,253.6 L 325.4,254.4 L 328.0,255.3 L 330.6,256.2 L 333.2,257.1 L 335.7,258.0 L 338.3,258.9 L 340.9,259.8 L 343.5,260.7 L 346.1,261.5 L 348.6,262.4 L 351.2,263.3 L 353.8,264.1 L 356.4,265.0 L 358.9,265.9 L 361.5,266.7 L 364.1,267.6 L 366.7,268.4 L 369.3,269.3 L 371.8,270.1 L 374.4,271.0 L 377.0,271.8 L 379.6,272.7 L 382.2,273.5 L 384.7,274.3 L 387.3,275.2 L 389.9,276.0 L 392.5,276.8 L 395.1,277.7 L 397.6,278.5 L 400.2,279.3 L 402.8,280.1 L 405.4,280.9 L 408.0,281.7 L 410.5,282.5 L 413.1,283.4 L 415.7,284.2 L 418.3,285.0 L 420.9,285.8 L 423.4,286.5 L 426.0,287.3 L 428.6,288.1 L 431.2,288.9 L 433.8,289.7 L 436.3,290.5 L 438.9,291.3 L 441.5,292.0 L 444.1,292.8 L 446.7,293.6 L 449.2,294.4 L 451.8,295.1 L 454.4,295.9 L 457.0,296.7 L 459.6,297.4 L 462.1,298.2 L 464.7,298.9 L 467.3,299.7 L 469.9,300.4 L 472.5,301.2 L 475.0,302.0 L 477.6,302.7 L 480.2,303.5 L 482.8,304.2 L 485.4,305.0 L 487.9,305.7 L 490.5,306.5 L 493.1,307.2 L 495.7,308.0 L 498.3,308.7 L 500.8,309.5 L 503.4,310.2 L 506.0,311.0 L 508.6,311.7 L 511.2,312.5 L 513.7,313.2 L 516.3,314.0 L 518.9,314.8 L 521.5,315.5 L 524.1,316.3 L 526.6,317.1 L 529.2,317.9 L 531.8,318.7 L 534.4,319.5 L 537.0,320.3 L 539.5,321.1 L 542.1,321.9 L 544.7,322.7 L 547.3,323.6 L 549.9,324.4 L 552.4,325.2 L 555.0,326.0 L 557.6,326.8 L 560.2,327.6 L 562.8,328.4 L 565.3,329.2 L 567.9,330.0 L 570.5,330.7 L 573.1,331.5 L 575.7,332.2 L 578.2,332.9 L 580.8,333.5 L 583.4,334.2 L 586.0,334.8 L 588.6,335.5 L 591.1,336.0 L 593.7,336.6 L 596.3,337.2 L 598.9,337.7 L 601.5,338.2 L 604.0,338.7 L 606.6,339.2 L 609.2,339.6 L 611.8,340.1 L 614.4,340.5 L 616.9,340.9 L 619.5,341.3 L 622.1,341.7 L 624.7,342.1 L 627.3,342.4 L 629.8,342.8 L 632.4,343.1 L 635.0,343.4" class="sig"/>
<path d="M 75.7,324.7 L 81.3,309.1 L 87.0,297.8 L 92.6,289.0 L 98.2,281.8 L 103.9,275.2 L 109.5,269.0 L 115.2,263.0 L 120.8,257.3 L 126.5,251.9 L 132.2,246.7 L 137.8,241.7 L 143.4,237.0 L 149.1,232.4 L 154.8,228.4 L 160.4,224.9 L 166.1,221.7 L 171.7,218.7 L 177.3,215.7 L 183.0,212.8 L 188.7,209.9 L 194.3,207.1 L 200.0,204.3 L 205.6,201.6 L 211.2,199.0 L 216.9,196.4 L 222.6,193.9 L 228.2,191.4 L 233.8,189.0 L 239.5,186.6 L 245.2,184.3 L 250.8,182.1 L 256.4,179.8 L 262.1,177.7 L 267.8,175.5 L 273.4,173.5 L 279.1,171.4 L 284.7,169.4 L 290.4,167.5 L 296.0,165.6 L 301.6,163.7 L 307.3,161.9 L 312.9,160.1 L 318.6,158.3 L 324.2,156.6 L 329.9,154.9 L 335.6,153.3 L 341.2,151.7 L 346.8,150.1 L 352.5,148.5 L 358.1,147.0 L 363.8,145.5 L 369.4,144.1 L 375.1,142.6 L 380.8,141.3 L 386.4,139.9 L 392.1,138.6 L 397.7,137.2 L 403.4,136.0 L 409.0,134.7 L 414.7,133.5 L 420.3,132.3 L 425.9,131.1 L 431.6,130.0 L 437.2,128.9 L 442.9,127.8 L 448.5,126.7 L 454.2,125.7 L 459.8,124.6 L 465.5,123.7 L 471.2,122.7 L 476.8,121.7 L 482.4,120.8 L 488.1,119.9 L 493.8,119.0 L 499.4,118.2 L 505.1,117.4 L 510.7,116.5 L 516.3,115.8 L 522.0,115.0 L 527.7,114.2 L 533.3,113.5 L 539.0,112.8 L 544.6,112.1 L 550.2,111.6 L 555.9,111.3 L 561.5,111.1 L 567.2,111.1 L 572.8,111.3 L 578.5,111.6 L 584.1,112.1 L 589.8,112.8 L 595.5,113.7 L 601.1,114.7 L 606.8,115.9 L 612.4,117.1 L 618.0,118.4 L 623.7,119.7 L 629.4,120.9 L 635.0,122.2" class="nt"/>
<path d="M 74.7,350.3 L 79.4,339.0 L 84.1,327.6 L 88.8,317.5 L 93.5,308.7 L 98.2,301.1 L 103.0,294.3 L 107.7,287.9 L 112.4,281.5 L 117.1,274.9 L 121.8,268.0 L 126.5,260.8 L 131.2,253.4 L 135.9,245.8 L 140.6,238.3 L 145.3,231.3 L 150.0,225.1 L 154.8,220.0 L 159.5,216.1 L 164.2,213.3 L 168.9,211.3 L 173.6,209.8 L 178.3,208.6 L 183.0,207.3 L 187.7,206.1 L 192.4,204.7 L 197.1,203.3 L 201.8,201.7 L 206.5,200.1 L 211.2,198.4 L 216.0,196.6 L 220.7,194.9 L 225.4,193.1 L 230.1,191.2 L 234.8,189.4 L 239.5,187.5 L 244.2,185.7 L 248.9,183.9 L 253.6,182.0 L 258.3,180.2 L 263.0,178.4 L 267.8,176.7 L 272.5,174.9 L 277.2,173.2 L 281.9,171.5 L 286.6,169.9 L 291.3,168.2 L 296.0,166.6 L 300.7,165.1 L 305.4,163.5 L 310.1,162.0 L 314.8,160.5 L 319.5,159.1 L 324.2,157.7 L 329.0,156.3 L 333.7,155.0 L 338.4,153.7 L 343.1,152.4 L 347.8,151.2 L 352.5,150.0 L 357.2,148.8 L 361.9,147.6 L 366.6,146.5 L 371.3,145.4 L 376.0,144.4 L 380.8,143.3 L 385.5,142.3 L 390.2,141.4 L 394.9,140.4 L 399.6,139.5 L 404.3,138.6 L 409.0,137.7 L 413.7,136.8 L 418.4,135.9 L 423.1,135.1 L 427.8,134.2 L 432.5,133.4 L 437.2,132.6 L 442.0,131.7 L 446.7,130.9 L 451.4,130.0 L 456.1,129.1 L 460.8,128.2 L 465.5,127.3 L 470.2,126.3 L 474.9,125.2 L 479.6,124.1 L 484.3,122.9 L 489.0,121.6 L 493.8,120.2 L 498.5,118.6 L 503.2,116.8 L 507.9,114.9 L 512.6,112.7 L 517.3,110.3 L 522.0,107.6 L 526.7,104.7 L 531.4,101.7 L 536.1,98.7 L 540.8,96.0 L 545.5,93.9 L 550.2,92.6 L 555.0,92.5 L 559.7,93.5 L 564.4,95.8 L 569.1,99.2 L 573.8,103.6 L 578.5,108.9 L 583.2,114.8 L 587.9,121.2 L 592.6,127.9 L 597.3,134.7 L 602.0,141.5 L 606.8,148.1 L 611.5,154.3 L 616.2,160.2 L 620.9,165.7 L 625.6,170.8 L 630.3,175.6 L 635.0,180.0" class="fw"/>
<line x1="84.59949574261522" y1="306.22508507535247" x2="84.59949574261522" y2="343.1477880408362" class="err"/>
<line x1="81.59949574261522" y1="306.22508507535247" x2="87.59949574261522" y2="306.22508507535247" class="err"/>
<line x1="81.59949574261522" y1="343.1477880408362" x2="87.59949574261522" y2="343.1477880408362" class="err"/>
<circle cx="84.59949574261522" cy="324.68643655809433" r="2.5" class="obs"/>
<line x1="120.43462165630712" y1="253.4783665532329" x2="120.43462165630712" y2="290.4010695187166" class="err"/>
<line x1="117.43462165630712" y1="253.4783665532329" x2="123.43462165630712" y2="253.4783665532329" class="err"/>
<line x1="117.43462165630712" y1="290.4010695187166" x2="123.43462165630712" y2="290.4010695187166" class="err"/>
<circle cx="120.43462165630712" cy="271.93971803597475" r="2.5" class="obs"/>
<line x1="156.93336101284518" y1="199.97812348079734" x2="156.93336101284518" y2="236.900826446281" class="err"/>
<line x1="153.93336101284518" y1="199.97812348079734" x2="159.93336101284518" y2="199.97812348079734" class="err"/>
<line x1="153.93336101284518" y1="236.900826446281" x2="159.93336101284518" y2="236.900826446281" class="err"/>
<circle cx="156.93336101284518" cy="218.43947496353917" r="2.5" class="obs"/>
<line x1="198.74100791215238" y1="174.3959649975693" x2="198.74100791215238" y2="233.8490520175012" class="err"/>
<line x1="195.74100791215238" y1="174.3959649975693" x2="201.74100791215238" y2="174.3959649975693" class="err"/>
<line x1="195.74100791215238" y1="233.8490520175012" x2="201.74100791215238" y2="233.8490520175012" class="err"/>
<circle cx="198.74100791215238" cy="204.1225085075353" r="2.5" class="obs"/>
<line x1="330.1364695956894" y1="139.3193971803598" x2="330.1364695956894" y2="176.2421001458435" class="err"/>
<line x1="327.1364695956894" y1="139.3193971803598" x2="333.1364695956894" y2="139.3193971803598" class="err"/>
<line x1="327.1364695956894" y1="176.2421001458435" x2="333.1364695956894" y2="176.2421001458435" class="err"/>
<circle cx="330.1364695956894" cy="157.78074866310163" r="2.5" class="obs"/>
<line x1="358.6718476380736" y1="131.03062712688387" x2="358.6718476380736" y2="167.95333009236754" class="err"/>
<line x1="355.6718476380736" y1="131.03062712688387" x2="361.6718476380736" y2="131.03062712688387" class="err"/>
<line x1="355.6718476380736" y1="167.95333009236754" x2="361.6718476380736" y2="167.95333009236754" class="err"/>
<circle cx="358.6718476380736" cy="149.4919786096257" r="2.5" class="obs"/>
<line x1="401.80672142307316" y1="121.23480797277593" x2="401.80672142307316" y2="158.15751093825963" class="err"/>
<line x1="398.80672142307316" y1="121.23480797277593" x2="404.80672142307316" y2="121.23480797277593" class="err"/>
<line x1="398.80672142307316" y1="158.15751093825963" x2="404.80672142307316" y2="158.15751093825963" class="err"/>
<circle cx="401.80672142307316" cy="139.6961594555178" r="2.5" class="obs"/>
<line x1="405.1247886373039" y1="116.60063198833254" x2="405.1247886373039" y2="142.44652406417117" class="err"/>
<line x1="402.1247886373039" y1="116.60063198833254" x2="408.1247886373039" y2="116.60063198833254" class="err"/>
<line x1="402.1247886373039" y1="142.44652406417117" x2="408.1247886373039" y2="142.44652406417117" class="err"/>
<circle cx="405.1247886373039" cy="129.52357802625187" r="2.5" class="obs"/>
<line x1="456.8866371793033" y1="117.16577540106957" x2="456.8866371793033" y2="147.15605250364615" class="err"/>
<line x1="453.8866371793033" y1="117.16577540106957" x2="459.8866371793033" y2="117.16577540106957" class="err"/>
<line x1="453.8866371793033" y1="147.15605250364615" x2="459.8866371793033" y2="147.15605250364615" class="err"/>
<circle cx="456.8866371793033" cy="132.16091395235784" r="2.5" class="obs"/>
<line x1="474.14058669330313" y1="103.90374331550801" x2="474.14058669330313" y2="140.82644628099177" class="err"/>
<line x1="471.14058669330313" y1="103.90374331550801" x2="477.14058669330313" y2="103.90374331550801" class="err"/>
<line x1="471.14058669330313" y1="140.82644628099177" x2="477.14058669330313" y2="140.82644628099177" class="err"/>
<circle cx="474.14058669330313" cy="122.36509479824991" r="2.5" class="obs"/>
<line x1="517.2754604783026" y1="93.35439961108413" x2="517.2754604783026" y2="130.27710257656784" class="err"/>
<line x1="514.2754604783026" y1="93.35439961108413" x2="520.2754604783026" y2="93.35439961108413" class="err"/>
<line x1="514.2754604783026" y1="130.27710257656784" x2="520.2754604783026" y2="130.27710257656784" class="err"/>
<circle cx="517.2754604783026" cy="111.81575109382601" r="2.5" class="obs"/>
<line x1="553.7741998348406" y1="83.18181818181819" x2="553.7741998348406" y2="120.10452114730194" class="err"/>
<line x1="550.7741998348406" y1="83.18181818181819" x2="556.7741998348406" y2="83.18181818181819" class="err"/>
<line x1="550.7741998348406" y1="120.10452114730194" x2="556.7741998348406" y2="120.10452114730194" class="err"/>
<circle cx="553.7741998348406" cy="101.64316966456006" r="2.5" class="obs"/>
<g class="legend">
<line x1="82" y1="69" x2="106" y2="69" class="fw"/>
<text x="112" y="73" class="lbl-l">framework fit</text>
<line x1="82" y1="87" x2="106" y2="87" class="nt"/>
<text x="112" y="91" class="lbl-l">Newtonian (no halo)</text>
<circle cx="94" cy="105" r="2.5" class="obs"/>
<text x="112" y="109" class="lbl">observed V±err</text>
</g>
<g class="legend">
<line x1="460" y1="69" x2="484" y2="69" class="rho"/>
<text x="490" y="73" class="lbl-r">ρ(r) raw</text>
<line x1="460" y1="87" x2="484" y2="87" class="sig"/>
<text x="490" y="91" class="lbl-r">Σ(r) smoothed</text>
<text x="460" y="113" class="lbl-r">ρ peak: 103 M☉/pc²</text>
</g>
</svg>