<svg xmlns="http://www.w3.org/2000/svg" viewBox="0 0 960 450" width="960" height="450" font-family="sans-serif" font-size="12">
<style>
  .ax { stroke: #333; stroke-width: 1; fill: none; }
  .grid { stroke: #ddd; stroke-width: 0.5; fill: none; }
  .lbl { fill: #333; }
  .lbl-l { fill: #0066cc; }
  .lbl-r { fill: #b03030; }
  .obs { fill: #222; }
  .err { stroke: #555; stroke-width: 0.8; fill: none; }
  .fw { stroke: #0066cc; stroke-width: 2.2; fill: none; }
  .nt { stroke: #cc6600; stroke-width: 1.6; fill: none; stroke-dasharray: 5,3; }
  .mond { stroke: #7b2cbf; stroke-width: 1.8; fill: none; stroke-dasharray: 7,3; }
  .lbl-p { fill: #cc7000; }
  .lbl-m { fill: #7b2cbf; }
  .rho { stroke: #b03030; stroke-width: 2.0; fill: none; }
  .phot { stroke: #cc7000; stroke-width: 1.8; fill: none; }
  .mbar { stroke: #8e44ad; stroke-width: 1.8; fill: none; opacity: 0.9; }
  .mph { stroke: #c77dff; stroke-width: 1.6; fill: none; stroke-dasharray: 4,3; opacity: 0.95; }
  .title { fill: #111; font-size: 16px; font-weight: 600; }
  .subtitle { fill: #555; font-size: 11px; }
  .preview-bg { fill: #000; }
  .preview-lbl { fill: #888; font-size: 10px; }
  .legend { font-size: 11px; }
</style>
<text x="378.5" y="22" text-anchor="middle" class="title">F583-4</text>
<text x="378.5" y="38" text-anchor="middle" class="subtitle">rMax=7.3 kpc, N=12, FW=1.1 km/s, 2.2%, 0.26σ, MOND=5.3 km/s, 9.6%, 1.14σ, amp=105</text>
<line x1="70" y1="395.0" x2="687" y2="395.0" class="grid"/>
<text x="64" y="399.0" text-anchor="end" class="lbl-l">0</text>
<line x1="70" y1="327.0" x2="687" y2="327.0" class="grid"/>
<text x="64" y="331.0" text-anchor="end" class="lbl-l">16</text>
<line x1="70" y1="259.0" x2="687" y2="259.0" class="grid"/>
<text x="64" y="263.0" text-anchor="end" class="lbl-l">33</text>
<line x1="70" y1="191.0" x2="687" y2="191.0" class="grid"/>
<text x="64" y="195.0" text-anchor="end" class="lbl-l">49</text>
<line x1="70" y1="123.0" x2="687" y2="123.0" class="grid"/>
<text x="64" y="127.0" text-anchor="end" class="lbl-l">66</text>
<line x1="70" y1="55.0" x2="687" y2="55.0" class="grid"/>
<text x="64" y="59.0" text-anchor="end" class="lbl-l">82</text>
<text x="693" y="399.0" text-anchor="start" class="lbl-r">0.0</text>
<text x="693" y="353.7" text-anchor="start" class="lbl-r">0.2</text>
<text x="693" y="308.3" text-anchor="start" class="lbl-r">0.4</text>
<text x="693" y="263.0" text-anchor="start" class="lbl-r">0.6</text>
<text x="693" y="217.7" text-anchor="start" class="lbl-r">0.8</text>
<text x="693" y="172.3" text-anchor="start" class="lbl-r">1.0</text>
<line x1="70.0" y1="55" x2="70.0" y2="395" class="grid"/>
<text x="70.0" y="411" text-anchor="middle" class="lbl">0.0</text>
<line x1="172.8" y1="55" x2="172.8" y2="395" class="grid"/>
<text x="172.8" y="411" text-anchor="middle" class="lbl">1.4</text>
<line x1="275.7" y1="55" x2="275.7" y2="395" class="grid"/>
<text x="275.7" y="411" text-anchor="middle" class="lbl">2.8</text>
<line x1="378.5" y1="55" x2="378.5" y2="395" class="grid"/>
<text x="378.5" y="411" text-anchor="middle" class="lbl">4.3</text>
<line x1="481.3" y1="55" x2="481.3" y2="395" class="grid"/>
<text x="481.3" y="411" text-anchor="middle" class="lbl">5.7</text>
<line x1="584.2" y1="55" x2="584.2" y2="395" class="grid"/>
<text x="584.2" y="411" text-anchor="middle" class="lbl">7.1</text>
<line x1="687.0" y1="55" x2="687.0" y2="395" class="grid"/>
<text x="687.0" y="411" text-anchor="middle" class="lbl">8.5</text>
<text x="378.5" y="438" text-anchor="middle" class="lbl">radius (kpc)</text>
<text x="16" y="225" text-anchor="middle" class="lbl-l" transform="rotate(-90, 16, 225)">velocity (km/s)</text>
<text x="724" y="225" text-anchor="middle" class="lbl-r" transform="rotate(-90, 724, 225)">profiles (normalized to peak)</text>
<rect x="70" y="55" width="617" height="340" class="ax"/>
<path d="M 70.0,168.3 L 72.8,173.9 L 75.6,179.4 L 78.5,184.9 L 81.3,190.4 L 84.1,195.9 L 86.9,201.5 L 89.7,207.0 L 92.5,212.5 L 95.4,218.0 L 98.2,223.5 L 101.0,226.8 L 103.8,226.9 L 106.6,227.0 L 109.4,227.2 L 112.3,227.3 L 115.1,227.4 L 117.9,227.6 L 120.7,227.7 L 123.5,227.8 L 126.3,228.0 L 129.2,228.1 L 132.0,228.2 L 134.8,228.3 L 137.6,228.5 L 140.4,228.6 L 143.3,228.7 L 146.1,228.9 L 148.9,229.0 L 151.7,229.1 L 154.5,230.5 L 157.3,234.6 L 160.2,238.7 L 163.0,242.8 L 165.8,246.9 L 168.6,251.0 L 171.4,254.0 L 174.2,254.4 L 177.1,254.9 L 179.9,255.3 L 182.7,255.8 L 185.5,256.2 L 188.3,256.7 L 191.1,257.1 L 194.0,257.6 L 196.8,258.0 L 199.6,258.5 L 202.4,258.9 L 205.2,259.4 L 208.1,259.8 L 210.9,260.3 L 213.7,260.7 L 216.5,261.2 L 219.3,261.7 L 222.1,262.1 L 225.0,262.6 L 227.8,263.0 L 230.6,263.5 L 233.4,263.9 L 236.2,264.4 L 239.0,264.8 L 241.9,265.3 L 244.7,265.7 L 247.5,266.2 L 250.3,266.6 L 253.1,267.1 L 255.9,267.5 L 258.8,268.0 L 261.6,268.4 L 264.4,268.9 L 267.2,269.3 L 270.0,269.8 L 272.8,270.3 L 275.7,270.7 L 278.5,271.2 L 281.3,271.6 L 284.1,272.1 L 286.9,272.5 L 289.8,273.0 L 292.6,273.4 L 295.4,273.9 L 298.2,274.3 L 301.0,274.8 L 303.8,275.2 L 306.7,275.7 L 309.5,276.1 L 312.3,276.6 L 315.1,277.0 L 317.9,277.5 L 320.7,278.0 L 323.6,278.4 L 326.4,278.9 L 329.2,279.3 L 332.0,279.8 L 334.8,280.2 L 337.6,280.7 L 340.5,281.1 L 343.3,281.6 L 346.1,282.0 L 348.9,282.5 L 351.7,282.9 L 354.6,283.4 L 357.4,283.8 L 360.2,284.3 L 363.0,284.7 L 365.8,285.2 L 368.6,285.7 L 371.5,286.1 L 374.3,286.6 L 377.1,287.0 L 379.9,287.5 L 382.7,287.9 L 385.5,288.4 L 388.4,288.8 L 391.2,289.3 L 394.0,289.7 L 396.8,290.2 L 399.6,290.6 L 402.4,291.1 L 405.3,291.5 L 408.1,292.0 L 410.9,292.4 L 413.7,292.9 L 416.5,293.3 L 419.4,293.8 L 422.2,294.3 L 425.0,294.7 L 427.8,295.2 L 430.6,295.6 L 433.4,296.1 L 436.3,296.5 L 439.1,297.0 L 441.9,297.4 L 444.7,297.9 L 447.5,298.3 L 450.3,298.8 L 453.2,299.2 L 456.0,299.7 L 458.8,300.1 L 461.6,300.6 L 464.4,301.0 L 467.2,301.5 L 470.1,302.0 L 472.9,302.4 L 475.7,302.9 L 478.5,303.3 L 481.3,303.8 L 484.2,304.2 L 487.0,304.7 L 489.8,305.1 L 492.6,305.6 L 495.4,306.0 L 498.2,306.5 L 501.1,306.9 L 503.9,307.4 L 506.7,307.8 L 509.5,308.3 L 512.3,308.7 L 515.1,309.2 L 518.0,309.6 L 520.8,310.1 L 523.6,310.6 L 526.4,311.0 L 529.2,311.5 L 532.0,311.9 L 534.9,312.4 L 537.7,312.8 L 540.5,313.3 L 543.3,313.7 L 546.1,314.2 L 548.9,314.6 L 551.8,315.1 L 554.6,315.5 L 557.4,316.0 L 560.2,316.4 L 563.0,316.9 L 565.9,317.3 L 568.7,317.8 L 571.5,318.3 L 574.3,318.7 L 577.1,319.2 L 579.9,319.6 L 582.8,320.1 L 585.6,320.5 L 588.4,323.2 L 591.2,326.1 L 594.0,329.0 L 596.8,332.0 L 599.7,334.9 L 602.5,337.8 L 605.3,340.7 L 608.1,343.7 L 610.9,346.6 L 613.7,349.5 L 616.6,352.4 L 619.4,355.3 L 622.2,358.3 L 625.0,361.2 L 627.8,364.1 L 630.7,367.0 L 633.5,370.0 L 636.3,372.9 L 639.1,375.8 L 641.9,378.7 L 644.7,381.6 L 647.6,384.6 L 650.4,387.5 L 653.2,390.4 L 656.0,393.3 L 658.8,395.0 L 661.6,395.0 L 664.5,395.0 L 667.3,395.0 L 670.1,395.0 L 672.9,395.0 L 675.7,395.0 L 678.5,395.0 L 681.4,395.0 L 684.2,395.0 L 687.0,395.0" class="rho"/>
<path d="M 85.9,168.3 L 125.1,198.2 L 164.9,257.3 L 210.6,293.2 L 354.1,363.4 L 385.2,366.6 L 432.3,374.1 L 436.0,374.7 L 492.5,382.9 L 511.3,383.5 L 558.4,385.5 L 598.3,395.0" class="phot"/>
<path d="M 85.9,307.4 L 125.1,228.9 L 164.9,168.3 L 210.6,183.1 L 354.1,242.3 L 385.2,285.5 L 432.3,301.0 L 436.0,313.6 L 492.5,323.4 L 511.3,316.0 L 558.4,319.8 L 598.3,356.2" class="mbar"/>
<path d="M 85.9,252.0 L 125.1,202.4 L 164.9,168.3 L 210.6,175.9 L 354.1,205.1 L 385.2,228.0 L 432.3,237.8 L 436.0,246.3 L 492.5,253.5 L 511.3,249.9 L 558.4,253.8 L 598.3,279.1" class="mph"/>
<path d="M 76.2,350.8 L 82.3,333.7 L 88.5,321.3 L 94.7,311.6 L 100.9,303.7 L 107.0,296.5 L 113.2,289.7 L 119.4,283.1 L 125.5,276.9 L 131.7,271.0 L 137.9,265.3 L 144.0,259.8 L 150.2,254.6 L 156.4,249.6 L 162.6,245.1 L 168.7,241.3 L 174.9,237.9 L 181.1,234.5 L 187.2,231.3 L 193.4,228.1 L 199.6,224.9 L 205.7,221.8 L 211.9,218.8 L 218.1,215.8 L 224.3,212.9 L 230.4,210.1 L 236.6,207.3 L 242.8,204.6 L 248.9,202.0 L 255.1,199.4 L 261.3,196.8 L 267.4,194.3 L 273.6,191.9 L 279.8,189.5 L 286.0,187.2 L 292.1,184.9 L 298.3,182.7 L 304.5,180.5 L 310.6,178.4 L 316.8,176.3 L 323.0,174.2 L 329.1,172.2 L 335.3,170.3 L 341.5,168.3 L 347.6,166.4 L 353.8,164.6 L 360.0,162.8 L 366.2,161.0 L 372.3,159.3 L 378.5,157.6 L 384.7,155.9 L 390.8,154.3 L 397.0,152.7 L 403.2,151.1 L 409.4,149.6 L 415.5,148.1 L 421.7,146.6 L 427.9,145.2 L 434.0,143.8 L 440.2,142.4 L 446.4,141.1 L 452.5,139.8 L 458.7,138.5 L 464.9,137.2 L 471.1,136.0 L 477.2,134.8 L 483.4,133.6 L 489.6,132.5 L 495.7,131.4 L 501.9,130.3 L 508.1,129.2 L 514.2,128.2 L 520.4,127.2 L 526.6,126.2 L 532.8,125.2 L 538.9,124.3 L 545.1,123.4 L 551.3,122.5 L 557.4,121.6 L 563.6,120.8 L 569.8,120.0 L 575.9,119.2 L 582.1,118.4 L 588.3,117.7 L 594.4,117.1 L 600.6,116.7 L 606.8,116.5 L 613.0,116.6 L 619.1,116.7 L 625.3,117.1 L 631.5,117.7 L 637.6,118.4 L 643.8,119.3 L 650.0,120.4 L 656.2,121.7 L 662.3,123.2 L 668.5,124.6 L 674.7,126.0 L 680.8,127.3 L 687.0,128.7" class="nt"/>
<path d="M 85.9,349.4 L 125.1,281.7 L 164.9,233.8 L 210.6,198.5 L 354.1,139.1 L 385.2,131.5 L 432.3,118.9 L 436.0,118.2 L 492.5,108.1 L 511.3,104.7 L 558.4,90.7 L 598.3,89.9" class="mond"/>
<path d="M 75.1,378.9 L 80.3,366.5 L 85.4,354.0 L 90.6,342.9 L 95.7,333.3 L 100.8,324.9 L 106.0,317.5 L 111.1,310.4 L 116.3,303.4 L 121.4,296.2 L 126.6,288.6 L 131.7,280.7 L 136.8,272.5 L 142.0,264.2 L 147.1,256.1 L 152.3,248.4 L 157.4,241.6 L 162.6,236.0 L 167.7,231.7 L 172.8,228.6 L 178.0,226.4 L 183.1,224.8 L 188.3,223.4 L 193.4,222.1 L 198.5,220.7 L 203.7,219.2 L 208.8,217.6 L 214.0,215.9 L 219.1,214.1 L 224.3,212.3 L 229.4,210.4 L 234.5,208.4 L 239.7,206.4 L 244.8,204.4 L 250.0,202.4 L 255.1,200.4 L 260.2,198.4 L 265.4,196.3 L 270.5,194.3 L 275.7,192.4 L 280.8,190.4 L 285.9,188.5 L 291.1,186.5 L 296.2,184.7 L 301.4,182.8 L 306.5,181.0 L 311.7,179.2 L 316.8,177.4 L 321.9,175.7 L 327.1,174.0 L 332.2,172.4 L 337.4,170.8 L 342.5,169.2 L 347.7,167.6 L 352.8,166.1 L 357.9,164.7 L 363.1,163.2 L 368.2,161.8 L 373.4,160.5 L 378.5,159.1 L 383.6,157.9 L 388.8,156.6 L 393.9,155.4 L 399.1,154.2 L 404.2,153.0 L 409.4,151.9 L 414.5,150.8 L 419.6,149.7 L 424.8,148.7 L 429.9,147.6 L 435.1,146.6 L 440.2,145.7 L 445.3,144.7 L 450.5,143.8 L 455.6,142.8 L 460.8,141.9 L 465.9,141.0 L 471.1,140.1 L 476.2,139.1 L 481.3,138.2 L 486.5,137.3 L 491.6,136.3 L 496.8,135.3 L 501.9,134.3 L 507.0,133.2 L 512.2,132.0 L 517.3,130.8 L 522.5,129.5 L 527.6,128.0 L 532.8,126.5 L 537.9,124.7 L 543.0,122.8 L 548.2,120.7 L 553.3,118.3 L 558.5,115.7 L 563.6,112.7 L 568.7,109.5 L 573.9,106.2 L 579.0,102.9 L 584.2,100.0 L 589.3,97.7 L 594.4,96.3 L 599.6,96.1 L 604.7,97.3 L 609.9,99.8 L 615.0,103.5 L 620.2,108.3 L 625.3,114.1 L 630.4,120.6 L 635.6,127.6 L 640.7,135.0 L 645.9,142.4 L 651.0,149.9 L 656.2,157.1 L 661.3,163.9 L 666.4,170.4 L 671.6,176.4 L 676.7,182.0 L 681.9,187.2 L 687.0,192.1" class="fw"/>
<line x1="85.94" y1="330.54" x2="85.94" y2="371.03" class="err"/>
<line x1="82.94" y1="330.54" x2="88.94" y2="330.54" class="err"/>
<line x1="82.94" y1="371.03" x2="88.94" y2="371.03" class="err"/>
<circle cx="85.94" cy="350.79" r="2.5" class="obs"/>
<line x1="125.08" y1="272.69" x2="125.08" y2="313.18" class="err"/>
<line x1="122.08" y1="272.69" x2="128.08" y2="272.69" class="err"/>
<line x1="122.08" y1="313.18" x2="128.08" y2="313.18" class="err"/>
<circle cx="125.08" cy="292.93" r="2.5" class="obs"/>
<line x1="164.93" y1="214.01" x2="164.93" y2="254.50" class="err"/>
<line x1="161.93" y1="214.01" x2="167.93" y2="214.01" class="err"/>
<line x1="161.93" y1="254.50" x2="167.93" y2="254.50" class="err"/>
<circle cx="164.93" cy="234.26" r="2.5" class="obs"/>
<line x1="210.59" y1="185.95" x2="210.59" y2="251.16" class="err"/>
<line x1="207.59" y1="185.95" x2="213.59" y2="185.95" class="err"/>
<line x1="207.59" y1="251.16" x2="213.59" y2="251.16" class="err"/>
<circle cx="210.59" cy="218.55" r="2.5" class="obs"/>
<line x1="354.08" y1="147.48" x2="354.08" y2="187.98" class="err"/>
<line x1="351.08" y1="147.48" x2="357.08" y2="147.48" class="err"/>
<line x1="351.08" y1="187.98" x2="357.08" y2="187.98" class="err"/>
<circle cx="354.08" cy="167.73" r="2.5" class="obs"/>
<line x1="385.24" y1="138.39" x2="385.24" y2="178.88" class="err"/>
<line x1="382.24" y1="138.39" x2="388.24" y2="138.39" class="err"/>
<line x1="382.24" y1="178.88" x2="388.24" y2="178.88" class="err"/>
<circle cx="385.24" cy="158.64" r="2.5" class="obs"/>
<line x1="432.34" y1="127.64" x2="432.34" y2="168.14" class="err"/>
<line x1="429.34" y1="127.64" x2="435.34" y2="127.64" class="err"/>
<line x1="429.34" y1="168.14" x2="435.34" y2="168.14" class="err"/>
<circle cx="432.34" cy="147.89" r="2.5" class="obs"/>
<line x1="435.97" y1="122.56" x2="435.97" y2="150.91" class="err"/>
<line x1="432.97" y1="122.56" x2="438.97" y2="122.56" class="err"/>
<line x1="432.97" y1="150.91" x2="438.97" y2="150.91" class="err"/>
<circle cx="435.97" cy="136.74" r="2.5" class="obs"/>
<line x1="492.49" y1="123.18" x2="492.49" y2="156.07" class="err"/>
<line x1="489.49" y1="123.18" x2="495.49" y2="123.18" class="err"/>
<line x1="489.49" y1="156.07" x2="495.49" y2="156.07" class="err"/>
<circle cx="492.49" cy="139.63" r="2.5" class="obs"/>
<line x1="511.34" y1="108.64" x2="511.34" y2="149.13" class="err"/>
<line x1="508.34" y1="108.64" x2="514.34" y2="108.64" class="err"/>
<line x1="508.34" y1="149.13" x2="514.34" y2="149.13" class="err"/>
<circle cx="511.34" cy="128.88" r="2.5" class="obs"/>
<line x1="558.44" y1="97.07" x2="558.44" y2="137.56" class="err"/>
<line x1="555.44" y1="97.07" x2="561.44" y2="97.07" class="err"/>
<line x1="555.44" y1="137.56" x2="561.44" y2="137.56" class="err"/>
<circle cx="558.44" cy="117.31" r="2.5" class="obs"/>
<line x1="598.30" y1="85.91" x2="598.30" y2="126.40" class="err"/>
<line x1="595.30" y1="85.91" x2="601.30" y2="85.91" class="err"/>
<line x1="595.30" y1="126.40" x2="601.30" y2="126.40" class="err"/>
<circle cx="598.30" cy="106.16" r="2.5" class="obs"/>
<g class="legend">
<line x1="82" y1="69" x2="106" y2="69" class="fw"/>
<text x="112" y="73" class="lbl-l">framework: 1.1 km/s, 2.2%, 0.26σ</text>
<line x1="82" y1="87" x2="106" y2="87" class="nt"/>
<text x="112" y="91" class="lbl-l">Newtonian: 2.4 km/s, 16.9%, 0.51σ</text>
<line x1="82" y1="105" x2="106" y2="105" class="mond"/>
<text x="112" y="109" class="lbl-m">MOND/RAR: 5.3 km/s, 9.6%, 1.14σ</text>
<circle cx="94" cy="123" r="2.5" class="obs"/>
<text x="112" y="127" class="lbl">observed V±err</text>
</g>
<g class="legend">
<line x1="472" y1="69" x2="496" y2="69" class="rho"/>
<text x="502" y="73" class="lbl-r">ρ(r) raw</text>
<line x1="472" y1="87" x2="496" y2="87" class="phot"/>
<text x="502" y="91" class="lbl-p">photometric baryonic profile</text>
<line x1="472" y1="105" x2="496" y2="105" class="mbar"/>
<text x="502" y="109" class="lbl-m">MOND baryonic annulus</text>
<line x1="472" y1="123" x2="496" y2="123" class="mph"/>
<text x="502" y="127" class="lbl-m">MOND phantom annulus</text>
<text x="472" y="147" class="lbl-r">ρ peak: 103 M☉/pc²</text>
<text x="472" y="163" class="lbl-p">phot peak: 34.59 (arb.)</text>
<text x="472" y="179" class="lbl-m">Σbar peak: 20.96 M☉/pc²</text>
<text x="472" y="195" class="lbl-m">Σphantom peak: 65.98 M☉/pc²</text>
</g>
<rect x="775" y="55" width="170" height="170" class="preview-bg"/>
<defs><radialGradient id="g_F583_4" cx="0.5" cy="0.5" r="0.5">
  <stop offset="0.0000" stop-color="rgb(191,48,48)"/>
  <stop offset="0.0313" stop-color="rgb(169,42,42)"/>
  <stop offset="0.0625" stop-color="rgb(154,39,39)"/>
  <stop offset="0.0938" stop-color="rgb(154,39,39)"/>
  <stop offset="0.1250" stop-color="rgb(153,38,38)"/>
  <stop offset="0.1563" stop-color="rgb(146,37,37)"/>
  <stop offset="0.1875" stop-color="rgb(137,34,34)"/>
  <stop offset="0.2188" stop-color="rgb(135,34,34)"/>
  <stop offset="0.2500" stop-color="rgb(133,33,33)"/>
  <stop offset="0.2813" stop-color="rgb(131,33,33)"/>
  <stop offset="0.3125" stop-color="rgb(130,33,33)"/>
  <stop offset="0.3438" stop-color="rgb(128,32,32)"/>
  <stop offset="0.3750" stop-color="rgb(126,32,32)"/>
  <stop offset="0.4063" stop-color="rgb(124,31,31)"/>
  <stop offset="0.4375" stop-color="rgb(122,31,31)"/>
  <stop offset="0.4688" stop-color="rgb(120,30,30)"/>
  <stop offset="0.5000" stop-color="rgb(119,30,30)"/>
  <stop offset="0.5313" stop-color="rgb(117,29,29)"/>
  <stop offset="0.5625" stop-color="rgb(115,29,29)"/>
  <stop offset="0.5938" stop-color="rgb(113,28,28)"/>
  <stop offset="0.6250" stop-color="rgb(111,28,28)"/>
  <stop offset="0.6563" stop-color="rgb(109,27,27)"/>
  <stop offset="0.6875" stop-color="rgb(108,27,27)"/>
  <stop offset="0.7188" stop-color="rgb(106,27,27)"/>
  <stop offset="0.7500" stop-color="rgb(104,26,26)"/>
  <stop offset="0.7813" stop-color="rgb(102,26,26)"/>
  <stop offset="0.8125" stop-color="rgb(100,25,25)"/>
  <stop offset="0.8438" stop-color="rgb(98,25,25)"/>
  <stop offset="0.8750" stop-color="rgb(97,24,24)"/>
  <stop offset="0.9063" stop-color="rgb(86,22,22)"/>
  <stop offset="0.9375" stop-color="rgb(74,19,19)"/>
  <stop offset="0.9688" stop-color="rgb(55,14,14)"/>
  <stop offset="1.0000" stop-color="rgb(0,0,0)"/>
</radialGradient></defs>
<circle cx="860" cy="140" r="81" fill="url(#g_F583_4)"/>
<text x="860" y="49" text-anchor="middle" class="preview-lbl">face-on luminance from ρ(r)</text>
<text x="860" y="239" text-anchor="middle" class="preview-lbl">edge at r = 8.1 kpc</text>
</svg>