<svg xmlns="http://www.w3.org/2000/svg" viewBox="0 0 960 450" width="960" height="450" font-family="sans-serif" font-size="12">
<style>
  .ax { stroke: #333; stroke-width: 1; fill: none; }
  .grid { stroke: #ddd; stroke-width: 0.5; fill: none; }
  .lbl { fill: #333; }
  .lbl-l { fill: #0066cc; }
  .lbl-r { fill: #b03030; }
  .obs { fill: #222; }
  .err { stroke: #555; stroke-width: 0.8; fill: none; }
  .fw { stroke: #0066cc; stroke-width: 2.2; fill: none; }
  .nt { stroke: #cc6600; stroke-width: 1.6; fill: none; stroke-dasharray: 5,3; }
  .mond { stroke: #7b2cbf; stroke-width: 1.8; fill: none; stroke-dasharray: 7,3; }
  .lbl-p { fill: #cc7000; }
  .lbl-m { fill: #7b2cbf; }
  .rho { stroke: #b03030; stroke-width: 2.0; fill: none; }
  .phot { stroke: #cc7000; stroke-width: 1.8; fill: none; }
  .mbar { stroke: #8e44ad; stroke-width: 1.8; fill: none; opacity: 0.9; }
  .mph { stroke: #c77dff; stroke-width: 1.6; fill: none; stroke-dasharray: 4,3; opacity: 0.95; }
  .title { fill: #111; font-size: 16px; font-weight: 600; }
  .subtitle { fill: #555; font-size: 11px; }
  .preview-bg { fill: #000; }
  .preview-lbl { fill: #888; font-size: 10px; }
  .legend { font-size: 11px; }
</style>
<text x="378.5" y="22" text-anchor="middle" class="title">IC2574</text>
<text x="378.5" y="38" text-anchor="middle" class="subtitle">rMax=10.2 kpc, N=34, FW=2.9 km/s, 12.1%, 5.46σ, MOND=13.5 km/s, 41.4%, 15.44σ, amp=283</text>
<line x1="70" y1="395.0" x2="687" y2="395.0" class="grid"/>
<text x="64" y="399.0" text-anchor="end" class="lbl-l">0</text>
<line x1="70" y1="327.0" x2="687" y2="327.0" class="grid"/>
<text x="64" y="331.0" text-anchor="end" class="lbl-l">18</text>
<line x1="70" y1="259.0" x2="687" y2="259.0" class="grid"/>
<text x="64" y="263.0" text-anchor="end" class="lbl-l">36</text>
<line x1="70" y1="191.0" x2="687" y2="191.0" class="grid"/>
<text x="64" y="195.0" text-anchor="end" class="lbl-l">54</text>
<line x1="70" y1="123.0" x2="687" y2="123.0" class="grid"/>
<text x="64" y="127.0" text-anchor="end" class="lbl-l">72</text>
<line x1="70" y1="55.0" x2="687" y2="55.0" class="grid"/>
<text x="64" y="59.0" text-anchor="end" class="lbl-l">90</text>
<text x="693" y="399.0" text-anchor="start" class="lbl-r">0.0</text>
<text x="693" y="353.7" text-anchor="start" class="lbl-r">0.2</text>
<text x="693" y="308.3" text-anchor="start" class="lbl-r">0.4</text>
<text x="693" y="263.0" text-anchor="start" class="lbl-r">0.6</text>
<text x="693" y="217.7" text-anchor="start" class="lbl-r">0.8</text>
<text x="693" y="172.3" text-anchor="start" class="lbl-r">1.0</text>
<line x1="70.0" y1="55" x2="70.0" y2="395" class="grid"/>
<text x="70.0" y="411" text-anchor="middle" class="lbl">0.0</text>
<line x1="172.8" y1="55" x2="172.8" y2="395" class="grid"/>
<text x="172.8" y="411" text-anchor="middle" class="lbl">2.6</text>
<line x1="275.7" y1="55" x2="275.7" y2="395" class="grid"/>
<text x="275.7" y="411" text-anchor="middle" class="lbl">5.2</text>
<line x1="378.5" y1="55" x2="378.5" y2="395" class="grid"/>
<text x="378.5" y="411" text-anchor="middle" class="lbl">7.8</text>
<line x1="481.3" y1="55" x2="481.3" y2="395" class="grid"/>
<text x="481.3" y="411" text-anchor="middle" class="lbl">10.5</text>
<line x1="584.2" y1="55" x2="584.2" y2="395" class="grid"/>
<text x="584.2" y="411" text-anchor="middle" class="lbl">13.1</text>
<line x1="687.0" y1="55" x2="687.0" y2="395" class="grid"/>
<text x="687.0" y="411" text-anchor="middle" class="lbl">15.7</text>
<text x="378.5" y="438" text-anchor="middle" class="lbl">radius (kpc)</text>
<text x="16" y="225" text-anchor="middle" class="lbl-l" transform="rotate(-90, 16, 225)">velocity (km/s)</text>
<text x="724" y="225" text-anchor="middle" class="lbl-r" transform="rotate(-90, 724, 225)">profiles (normalized to peak)</text>
<rect x="70" y="55" width="617" height="340" class="ax"/>
<path d="M 70.0,168.3 L 72.8,181.1 L 75.6,193.8 L 78.5,206.5 L 81.3,219.2 L 84.1,231.9 L 86.9,244.7 L 89.7,257.4 L 92.5,258.1 L 95.4,258.1 L 98.2,258.1 L 101.0,258.1 L 103.8,258.1 L 106.6,258.1 L 109.4,258.1 L 112.3,258.1 L 115.1,258.1 L 117.9,258.1 L 120.7,258.1 L 123.5,258.1 L 126.3,258.1 L 129.2,258.1 L 132.0,258.1 L 134.8,258.1 L 137.6,258.1 L 140.4,258.1 L 143.3,258.1 L 146.1,258.1 L 148.9,258.1 L 151.7,258.1 L 154.5,258.1 L 157.3,258.1 L 160.2,258.1 L 163.0,258.1 L 165.8,258.1 L 168.6,258.1 L 171.4,258.1 L 174.2,258.4 L 177.1,258.8 L 179.9,259.1 L 182.7,259.5 L 185.5,259.8 L 188.3,260.2 L 191.1,260.5 L 194.0,260.9 L 196.8,261.2 L 199.6,261.6 L 202.4,262.0 L 205.2,262.3 L 208.1,262.7 L 210.9,263.0 L 213.7,263.4 L 216.5,263.7 L 219.3,264.1 L 222.1,264.4 L 225.0,264.8 L 227.8,265.1 L 230.6,265.5 L 233.4,265.8 L 236.2,266.2 L 239.0,266.5 L 241.9,266.9 L 244.7,267.2 L 247.5,267.6 L 250.3,267.9 L 253.1,268.3 L 255.9,268.7 L 258.8,269.0 L 261.6,269.4 L 264.4,269.7 L 267.2,270.1 L 270.0,270.4 L 272.8,270.8 L 275.7,271.1 L 278.5,271.5 L 281.3,271.8 L 284.1,272.2 L 286.9,272.5 L 289.8,272.9 L 292.6,273.2 L 295.4,273.6 L 298.2,273.9 L 301.0,274.3 L 303.8,274.7 L 306.7,275.0 L 309.5,275.4 L 312.3,275.7 L 315.1,276.1 L 317.9,276.4 L 320.7,276.8 L 323.6,277.1 L 326.4,277.5 L 329.2,277.8 L 332.0,278.2 L 334.8,278.5 L 337.6,278.9 L 340.5,279.2 L 343.3,279.6 L 346.1,279.9 L 348.9,280.3 L 351.7,280.6 L 354.6,281.0 L 357.4,281.4 L 360.2,281.7 L 363.0,282.1 L 365.8,282.4 L 368.6,282.8 L 371.5,283.1 L 374.3,283.5 L 377.1,283.8 L 379.9,284.2 L 382.7,284.5 L 385.5,284.9 L 388.4,285.2 L 391.2,285.6 L 394.0,285.9 L 396.8,286.3 L 399.6,286.6 L 402.4,287.0 L 405.3,287.4 L 408.1,287.7 L 410.9,288.1 L 413.7,288.4 L 416.5,288.8 L 419.4,289.1 L 422.2,289.5 L 425.0,289.8 L 427.8,290.2 L 430.6,290.5 L 433.4,290.9 L 436.3,291.2 L 439.1,291.6 L 441.9,291.9 L 444.7,292.3 L 447.5,292.6 L 450.3,293.0 L 453.2,293.3 L 456.0,293.7 L 458.8,294.1 L 461.6,294.4 L 464.4,294.8 L 467.2,295.1 L 470.1,295.5 L 472.9,295.8 L 475.7,296.2 L 478.5,296.5 L 481.3,296.9 L 484.2,297.2 L 487.0,297.6 L 489.8,297.9 L 492.6,298.3 L 495.4,298.6 L 498.2,299.0 L 501.1,299.3 L 503.9,299.7 L 506.7,300.2 L 509.5,302.0 L 512.3,303.8 L 515.1,305.6 L 518.0,307.3 L 520.8,309.1 L 523.6,310.9 L 526.4,312.6 L 529.2,314.4 L 532.0,316.2 L 534.9,317.9 L 537.7,319.7 L 540.5,321.5 L 543.3,323.2 L 546.1,325.0 L 548.9,326.8 L 551.8,328.5 L 554.6,330.3 L 557.4,332.1 L 560.2,333.9 L 563.0,335.6 L 565.9,337.4 L 568.7,339.2 L 571.5,340.9 L 574.3,342.7 L 577.1,344.5 L 579.9,346.2 L 582.8,348.0 L 585.6,349.8 L 588.4,351.5 L 591.2,353.3 L 594.0,355.1 L 596.8,356.8 L 599.7,358.6 L 602.5,360.4 L 605.3,362.2 L 608.1,363.9 L 610.9,365.7 L 613.7,367.5 L 616.6,369.2 L 619.4,371.0 L 622.2,372.8 L 625.0,374.5 L 627.8,376.3 L 630.7,378.1 L 633.5,379.8 L 636.3,381.6 L 639.1,383.4 L 641.9,385.1 L 644.7,386.9 L 647.6,388.7 L 650.4,390.5 L 653.2,392.2 L 656.0,394.0 L 658.8,395.0 L 661.6,395.0 L 664.5,395.0 L 667.3,395.0 L 670.1,395.0 L 672.9,395.0 L 675.7,395.0 L 678.5,395.0 L 681.4,395.0 L 684.2,395.0 L 687.0,395.0" class="rho"/>
<path d="M 103.4,168.3 L 114.9,193.1 L 125.9,218.1 L 137.3,238.3 L 148.3,248.9 L 159.7,270.0 L 170.3,281.1 L 181.7,295.3 L 193.2,301.2 L 204.2,315.4 L 215.6,318.0 L 226.6,315.6 L 237.6,312.7 L 249.0,307.0 L 260.4,317.1 L 271.4,332.8 L 282.9,336.8 L 293.5,340.5 L 304.9,348.7 L 316.3,357.7 L 327.3,366.0 L 338.7,372.4 L 349.4,374.0 L 360.8,374.2 L 372.2,376.1 L 383.2,378.1 L 394.6,379.8 L 405.2,381.2 L 416.6,382.6 L 428.0,383.8 L 439.1,384.9 L 450.5,385.9 L 461.9,395.0 L 472.5,395.0" class="phot"/>
<path d="M 103.4,309.8 L 114.9,294.3 L 125.9,280.1 L 137.3,262.7 L 148.3,253.4 L 159.7,259.1 L 170.3,263.4 L 181.7,271.8 L 193.2,284.0 L 204.2,304.6 L 215.6,336.6 L 226.6,340.9 L 237.6,282.1 L 249.0,197.9 L 260.4,168.3 L 271.4,207.3 L 282.9,241.7 L 293.5,237.1 L 304.9,223.6 L 316.3,205.0 L 327.3,214.9 L 338.7,257.1 L 349.4,274.9 L 360.8,261.4 L 372.2,239.1 L 383.2,239.4 L 394.6,275.9 L 405.2,313.2 L 416.6,311.0 L 428.0,280.5 L 439.1,230.9 L 450.5,205.5 L 461.9,219.6 L 472.5,206.6" class="mbar"/>
<path d="M 103.4,258.3 L 114.9,246.8 L 125.9,237.1 L 137.3,226.2 L 148.3,220.7 L 159.7,224.7 L 170.3,227.5 L 181.7,232.6 L 193.2,240.1 L 204.2,253.2 L 215.6,274.4 L 226.6,278.0 L 237.6,239.3 L 249.0,184.8 L 260.4,168.3 L 271.4,194.0 L 282.9,215.1 L 293.5,212.6 L 304.9,205.1 L 316.3,195.1 L 327.3,200.7 L 338.7,223.9 L 349.4,233.7 L 360.8,226.3 L 372.2,214.0 L 383.2,214.2 L 394.6,234.5 L 405.2,255.4 L 416.6,254.5 L 428.0,237.4 L 439.1,209.1 L 450.5,194.7 L 461.9,202.9 L 472.5,195.8" class="mph"/>
<path d="M 76.2,358.6 L 82.3,345.9 L 88.5,337.9 L 94.7,331.9 L 100.8,326.1 L 107.0,320.5 L 113.2,315.1 L 119.4,310.1 L 125.5,305.2 L 131.7,300.6 L 137.9,296.2 L 144.0,292.0 L 150.2,287.9 L 156.4,283.9 L 162.6,280.1 L 168.7,276.4 L 174.9,272.9 L 181.1,269.4 L 187.2,266.1 L 193.4,262.9 L 199.6,259.8 L 205.7,256.8 L 211.9,253.8 L 218.1,251.0 L 224.3,248.3 L 230.4,245.6 L 236.6,243.0 L 242.8,240.4 L 248.9,238.0 L 255.1,235.5 L 261.3,233.2 L 267.4,230.9 L 273.6,228.6 L 279.8,226.4 L 286.0,224.3 L 292.1,222.2 L 298.3,220.1 L 304.5,218.1 L 310.6,216.1 L 316.8,214.2 L 323.0,212.3 L 329.1,210.4 L 335.3,208.6 L 341.5,206.8 L 347.7,205.1 L 353.8,203.3 L 360.0,201.7 L 366.2,200.0 L 372.3,198.4 L 378.5,196.8 L 384.7,195.2 L 390.8,193.7 L 397.0,192.2 L 403.2,190.7 L 409.3,189.2 L 415.5,187.8 L 421.7,186.4 L 427.9,185.0 L 434.0,183.7 L 440.2,182.4 L 446.4,181.0 L 452.5,179.8 L 458.7,178.5 L 464.9,177.3 L 471.0,176.1 L 477.2,174.9 L 483.4,173.7 L 489.6,172.5 L 495.7,171.4 L 501.9,170.3 L 508.1,169.2 L 514.2,168.2 L 520.4,167.3 L 526.6,166.5 L 532.8,165.8 L 538.9,165.2 L 545.1,164.7 L 551.3,164.3 L 557.4,164.0 L 563.6,163.8 L 569.8,163.6 L 575.9,163.6 L 582.1,163.6 L 588.3,163.8 L 594.4,164.0 L 600.6,164.3 L 606.8,164.7 L 613.0,165.2 L 619.1,165.8 L 625.3,166.4 L 631.5,167.2 L 637.6,168.0 L 643.8,168.9 L 650.0,170.0 L 656.2,171.1 L 662.3,172.2 L 668.5,173.4 L 674.7,174.5 L 680.8,175.6 L 687.0,176.7" class="nt"/>
<path d="M 103.4,319.4 L 114.9,303.9 L 125.9,291.2 L 137.3,278.1 L 148.3,265.1 L 159.7,255.8 L 170.3,246.4 L 181.7,238.6 L 193.2,231.6 L 204.2,225.7 L 215.6,223.0 L 226.6,221.1 L 237.6,215.2 L 249.0,201.8 L 260.4,188.8 L 271.4,180.1 L 282.9,174.7 L 293.5,167.4 L 304.9,161.0 L 316.3,152.9 L 327.3,145.2 L 338.7,141.4 L 349.4,137.0 L 360.8,133.0 L 372.2,126.6 L 383.2,121.5 L 394.6,116.9 L 405.2,115.5 L 416.6,112.6 L 428.0,109.1 L 439.1,103.9 L 450.5,96.1 L 461.9,92.0 L 472.5,85.9" class="mond"/>
<path d="M 75.1,374.8 L 80.3,358.6 L 85.4,346.3 L 90.6,338.9 L 95.7,335.4 L 100.8,334.4 L 106.0,334.4 L 111.1,334.7 L 116.3,334.6 L 121.4,334.0 L 126.6,332.8 L 131.7,331.0 L 136.8,328.7 L 142.0,325.8 L 147.1,322.3 L 152.3,318.4 L 157.4,313.9 L 162.6,309.0 L 167.7,303.8 L 172.8,298.4 L 178.0,293.0 L 183.1,287.9 L 188.3,283.0 L 193.4,278.4 L 198.5,274.2 L 203.7,270.1 L 208.8,266.3 L 214.0,262.7 L 219.1,259.3 L 224.3,256.0 L 229.4,252.8 L 234.5,249.7 L 239.7,246.8 L 244.8,243.9 L 250.0,241.2 L 255.1,238.5 L 260.2,235.9 L 265.4,233.4 L 270.5,231.0 L 275.7,228.6 L 280.8,226.3 L 285.9,224.0 L 291.1,221.8 L 296.2,219.6 L 301.4,217.5 L 306.5,215.5 L 311.7,213.5 L 316.8,211.5 L 321.9,209.5 L 327.1,207.6 L 332.2,205.8 L 337.4,203.9 L 342.5,202.1 L 347.7,200.3 L 352.8,198.5 L 357.9,196.8 L 363.1,195.1 L 368.2,193.3 L 373.4,191.6 L 378.5,189.9 L 383.6,188.2 L 388.8,186.5 L 393.9,184.8 L 399.1,183.1 L 404.2,181.3 L 409.3,179.5 L 414.5,177.7 L 419.6,175.8 L 424.8,173.9 L 429.9,171.9 L 435.1,169.8 L 440.2,167.5 L 445.3,165.1 L 450.5,162.6 L 455.6,159.8 L 460.8,156.8 L 465.9,153.4 L 471.0,149.7 L 476.2,145.5 L 481.3,140.7 L 486.5,135.3 L 491.6,129.3 L 496.8,122.6 L 501.9,115.6 L 507.0,108.8 L 512.2,102.8 L 517.3,98.0 L 522.5,94.8 L 527.6,93.0 L 532.8,92.7 L 537.9,93.6 L 543.0,95.6 L 548.2,98.5 L 553.3,102.2 L 558.5,106.6 L 563.6,111.6 L 568.7,117.1 L 573.9,123.1 L 579.0,129.4 L 584.2,136.0 L 589.3,142.9 L 594.5,149.9 L 599.6,157.1 L 604.7,164.4 L 609.9,171.7 L 615.0,178.9 L 620.2,186.0 L 625.3,192.9 L 630.4,199.6 L 635.6,205.9 L 640.7,212.0 L 645.9,217.6 L 651.0,222.8 L 656.2,227.7 L 661.3,232.1 L 666.4,236.2 L 671.6,240.0 L 676.7,243.5 L 681.9,246.8 L 687.0,249.8" class="fw"/>
<line x1="103.44" y1="355.53" x2="103.44" y2="357.03" class="err"/>
<line x1="100.44" y1="355.53" x2="106.44" y2="355.53" class="err"/>
<line x1="100.44" y1="357.03" x2="106.44" y2="357.03" class="err"/>
<circle cx="103.44" cy="356.28" r="2.5" class="obs"/>
<line x1="114.85" y1="336.35" x2="114.85" y2="356.65" class="err"/>
<line x1="111.85" y1="336.35" x2="117.85" y2="336.35" class="err"/>
<line x1="111.85" y1="356.65" x2="117.85" y2="356.65" class="err"/>
<circle cx="114.85" cy="346.50" r="2.5" class="obs"/>
<line x1="125.87" y1="326.58" x2="125.87" y2="340.11" class="err"/>
<line x1="122.87" y1="326.58" x2="128.87" y2="326.58" class="err"/>
<line x1="122.87" y1="340.11" x2="128.87" y2="340.11" class="err"/>
<circle cx="125.87" cy="333.34" r="2.5" class="obs"/>
<line x1="137.28" y1="317.18" x2="137.28" y2="332.97" class="err"/>
<line x1="134.28" y1="317.18" x2="140.28" y2="317.18" class="err"/>
<line x1="134.28" y1="332.97" x2="140.28" y2="332.97" class="err"/>
<circle cx="137.28" cy="325.07" r="2.5" class="obs"/>
<line x1="148.30" y1="313.04" x2="148.30" y2="328.08" class="err"/>
<line x1="145.30" y1="313.04" x2="151.30" y2="313.04" class="err"/>
<line x1="145.30" y1="328.08" x2="151.30" y2="328.08" class="err"/>
<circle cx="148.30" cy="320.56" r="2.5" class="obs"/>
<line x1="159.71" y1="294.62" x2="159.71" y2="299.13" class="err"/>
<line x1="156.71" y1="294.62" x2="162.71" y2="294.62" class="err"/>
<line x1="156.71" y1="299.13" x2="162.71" y2="299.13" class="err"/>
<circle cx="159.71" cy="296.88" r="2.5" class="obs"/>
<line x1="170.33" y1="280.71" x2="170.33" y2="301.01" class="err"/>
<line x1="167.33" y1="280.71" x2="173.33" y2="280.71" class="err"/>
<line x1="167.33" y1="301.01" x2="173.33" y2="301.01" class="err"/>
<circle cx="170.33" cy="290.86" r="2.5" class="obs"/>
<line x1="181.74" y1="273.57" x2="181.74" y2="293.12" class="err"/>
<line x1="178.74" y1="273.57" x2="184.74" y2="273.57" class="err"/>
<line x1="178.74" y1="293.12" x2="184.74" y2="293.12" class="err"/>
<circle cx="181.74" cy="283.34" r="2.5" class="obs"/>
<line x1="193.15" y1="258.15" x2="193.15" y2="283.72" class="err"/>
<line x1="190.15" y1="258.15" x2="196.15" y2="258.15" class="err"/>
<line x1="190.15" y1="283.72" x2="196.15" y2="283.72" class="err"/>
<circle cx="193.15" cy="270.94" r="2.5" class="obs"/>
<line x1="204.17" y1="259.66" x2="204.17" y2="268.68" class="err"/>
<line x1="201.17" y1="259.66" x2="207.17" y2="259.66" class="err"/>
<line x1="201.17" y1="268.68" x2="207.17" y2="268.68" class="err"/>
<circle cx="204.17" cy="264.17" r="2.5" class="obs"/>
<line x1="215.58" y1="260.03" x2="215.58" y2="266.80" class="err"/>
<line x1="212.58" y1="260.03" x2="218.58" y2="260.03" class="err"/>
<line x1="212.58" y1="266.80" x2="218.58" y2="266.80" class="err"/>
<circle cx="215.58" cy="263.42" r="2.5" class="obs"/>
<line x1="226.60" y1="210.03" x2="226.60" y2="286.73" class="err"/>
<line x1="223.60" y1="210.03" x2="229.60" y2="210.03" class="err"/>
<line x1="223.60" y1="286.73" x2="229.60" y2="286.73" class="err"/>
<circle cx="226.60" cy="248.38" r="2.5" class="obs"/>
<line x1="237.61" y1="239.73" x2="237.61" y2="280.33" class="err"/>
<line x1="234.61" y1="239.73" x2="240.61" y2="239.73" class="err"/>
<line x1="234.61" y1="280.33" x2="240.61" y2="280.33" class="err"/>
<circle cx="237.61" cy="260.03" r="2.5" class="obs"/>
<line x1="249.02" y1="229.21" x2="249.02" y2="260.03" class="err"/>
<line x1="246.02" y1="229.21" x2="252.02" y2="229.21" class="err"/>
<line x1="246.02" y1="260.03" x2="252.02" y2="260.03" class="err"/>
<circle cx="249.02" cy="244.62" r="2.5" class="obs"/>
<line x1="260.43" y1="244.24" x2="260.43" y2="254.77" class="err"/>
<line x1="257.43" y1="244.24" x2="263.43" y2="244.24" class="err"/>
<line x1="257.43" y1="254.77" x2="263.43" y2="254.77" class="err"/>
<circle cx="260.43" cy="249.51" r="2.5" class="obs"/>
<line x1="271.45" y1="235.97" x2="271.45" y2="239.73" class="err"/>
<line x1="268.45" y1="235.97" x2="274.45" y2="235.97" class="err"/>
<line x1="268.45" y1="239.73" x2="274.45" y2="239.73" class="err"/>
<circle cx="271.45" cy="237.85" r="2.5" class="obs"/>
<line x1="282.86" y1="232.21" x2="282.86" y2="235.22" class="err"/>
<line x1="279.86" y1="232.21" x2="285.86" y2="232.21" class="err"/>
<line x1="279.86" y1="235.22" x2="285.86" y2="235.22" class="err"/>
<circle cx="282.86" cy="233.72" r="2.5" class="obs"/>
<line x1="293.48" y1="221.69" x2="293.48" y2="234.47" class="err"/>
<line x1="290.48" y1="221.69" x2="296.48" y2="221.69" class="err"/>
<line x1="290.48" y1="234.47" x2="296.48" y2="234.47" class="err"/>
<circle cx="293.48" cy="228.08" r="2.5" class="obs"/>
<line x1="304.89" y1="216.80" x2="304.89" y2="226.57" class="err"/>
<line x1="301.89" y1="216.80" x2="307.89" y2="216.80" class="err"/>
<line x1="301.89" y1="226.57" x2="307.89" y2="226.57" class="err"/>
<circle cx="304.89" cy="221.69" r="2.5" class="obs"/>
<line x1="316.30" y1="207.40" x2="316.30" y2="214.17" class="err"/>
<line x1="313.30" y1="207.40" x2="319.30" y2="207.40" class="err"/>
<line x1="313.30" y1="214.17" x2="319.30" y2="214.17" class="err"/>
<circle cx="316.30" cy="210.78" r="2.5" class="obs"/>
<line x1="327.32" y1="197.63" x2="327.32" y2="202.14" class="err"/>
<line x1="324.32" y1="197.63" x2="330.32" y2="197.63" class="err"/>
<line x1="324.32" y1="202.14" x2="330.32" y2="202.14" class="err"/>
<circle cx="327.32" cy="199.88" r="2.5" class="obs"/>
<line x1="338.73" y1="187.47" x2="338.73" y2="203.26" class="err"/>
<line x1="335.73" y1="187.47" x2="341.73" y2="187.47" class="err"/>
<line x1="335.73" y1="203.26" x2="341.73" y2="203.26" class="err"/>
<circle cx="338.73" cy="195.37" r="2.5" class="obs"/>
<line x1="349.35" y1="190.11" x2="349.35" y2="193.87" class="err"/>
<line x1="346.35" y1="190.11" x2="352.35" y2="190.11" class="err"/>
<line x1="346.35" y1="193.87" x2="352.35" y2="193.87" class="err"/>
<circle cx="349.35" cy="191.99" r="2.5" class="obs"/>
<line x1="360.76" y1="180.71" x2="360.76" y2="188.98" class="err"/>
<line x1="357.76" y1="180.71" x2="363.76" y2="180.71" class="err"/>
<line x1="357.76" y1="188.98" x2="363.76" y2="188.98" class="err"/>
<circle cx="360.76" cy="184.84" r="2.5" class="obs"/>
<line x1="372.17" y1="160.41" x2="372.17" y2="187.47" class="err"/>
<line x1="369.17" y1="160.41" x2="375.17" y2="160.41" class="err"/>
<line x1="369.17" y1="187.47" x2="375.17" y2="187.47" class="err"/>
<circle cx="372.17" cy="173.94" r="2.5" class="obs"/>
<line x1="383.19" y1="162.29" x2="383.19" y2="196.87" class="err"/>
<line x1="380.19" y1="162.29" x2="386.19" y2="162.29" class="err"/>
<line x1="380.19" y1="196.87" x2="386.19" y2="196.87" class="err"/>
<circle cx="383.19" cy="179.58" r="2.5" class="obs"/>
<line x1="394.60" y1="158.15" x2="394.60" y2="225.82" class="err"/>
<line x1="391.60" y1="158.15" x2="397.60" y2="158.15" class="err"/>
<line x1="391.60" y1="225.82" x2="397.60" y2="225.82" class="err"/>
<circle cx="394.60" cy="191.99" r="2.5" class="obs"/>
<line x1="405.22" y1="110.03" x2="405.22" y2="200.26" class="err"/>
<line x1="402.22" y1="110.03" x2="408.22" y2="110.03" class="err"/>
<line x1="402.22" y1="200.26" x2="408.22" y2="200.26" class="err"/>
<circle cx="405.22" cy="155.14" r="2.5" class="obs"/>
<line x1="416.63" y1="144.24" x2="416.63" y2="190.86" class="err"/>
<line x1="413.63" y1="144.24" x2="419.63" y2="144.24" class="err"/>
<line x1="413.63" y1="190.86" x2="419.63" y2="190.86" class="err"/>
<circle cx="416.63" cy="167.55" r="2.5" class="obs"/>
<line x1="428.05" y1="144.24" x2="428.05" y2="187.10" class="err"/>
<line x1="425.05" y1="144.24" x2="431.05" y2="144.24" class="err"/>
<line x1="425.05" y1="187.10" x2="431.05" y2="187.10" class="err"/>
<circle cx="428.05" cy="165.67" r="2.5" class="obs"/>
<line x1="439.06" y1="141.98" x2="439.06" y2="151.76" class="err"/>
<line x1="436.06" y1="141.98" x2="442.06" y2="141.98" class="err"/>
<line x1="436.06" y1="151.76" x2="442.06" y2="151.76" class="err"/>
<circle cx="439.06" cy="146.87" r="2.5" class="obs"/>
<line x1="450.47" y1="137.10" x2="450.47" y2="162.66" class="err"/>
<line x1="447.47" y1="137.10" x2="453.47" y2="137.10" class="err"/>
<line x1="447.47" y1="162.66" x2="453.47" y2="162.66" class="err"/>
<circle cx="450.47" cy="149.88" r="2.5" class="obs"/>
<line x1="461.88" y1="125.07" x2="461.88" y2="160.41" class="err"/>
<line x1="458.88" y1="125.07" x2="464.88" y2="125.07" class="err"/>
<line x1="458.88" y1="160.41" x2="464.88" y2="160.41" class="err"/>
<circle cx="461.88" cy="142.74" r="2.5" class="obs"/>
<line x1="472.51" y1="106.27" x2="472.51" y2="176.20" class="err"/>
<line x1="469.51" y1="106.27" x2="475.51" y2="106.27" class="err"/>
<line x1="469.51" y1="176.20" x2="475.51" y2="176.20" class="err"/>
<circle cx="472.51" cy="141.23" r="2.5" class="obs"/>
<g class="legend">
<line x1="82" y1="69" x2="106" y2="69" class="fw"/>
<text x="112" y="73" class="lbl-l">framework: 2.9 km/s, 12.1%, 5.46σ</text>
<line x1="82" y1="87" x2="106" y2="87" class="nt"/>
<text x="112" y="91" class="lbl-l">Newtonian: 5.5 km/s, 24.1%, 8.08σ</text>
<line x1="82" y1="105" x2="106" y2="105" class="mond"/>
<text x="112" y="109" class="lbl-m">MOND/RAR: 13.5 km/s, 41.4%, 15.44σ</text>
<circle cx="94" cy="123" r="2.5" class="obs"/>
<text x="112" y="127" class="lbl">observed V±err</text>
</g>
<g class="legend">
<line x1="472" y1="69" x2="496" y2="69" class="rho"/>
<text x="502" y="73" class="lbl-r">ρ(r) raw</text>
<line x1="472" y1="87" x2="496" y2="87" class="phot"/>
<text x="502" y="91" class="lbl-p">photometric baryonic profile</text>
<line x1="472" y1="105" x2="496" y2="105" class="mbar"/>
<text x="502" y="109" class="lbl-m">MOND baryonic annulus</text>
<line x1="472" y1="123" x2="496" y2="123" class="mph"/>
<text x="502" y="127" class="lbl-m">MOND phantom annulus</text>
<text x="472" y="147" class="lbl-r">ρ peak: 48 M☉/pc²</text>
<text x="472" y="163" class="lbl-p">phot peak: 8.38 (arb.)</text>
<text x="472" y="179" class="lbl-m">Σbar peak: 11.64 M☉/pc²</text>
<text x="472" y="195" class="lbl-m">Σphantom peak: 53.83 M☉/pc²</text>
</g>
<rect x="775" y="55" width="170" height="170" class="preview-bg"/>
<defs><radialGradient id="g_IC2574" cx="0.5" cy="0.5" r="0.5">
  <stop offset="0.0000" stop-color="rgb(116,29,29)"/>
  <stop offset="0.0313" stop-color="rgb(92,23,23)"/>
  <stop offset="0.0625" stop-color="rgb(90,23,23)"/>
  <stop offset="0.0938" stop-color="rgb(90,23,23)"/>
  <stop offset="0.1250" stop-color="rgb(90,23,23)"/>
  <stop offset="0.1563" stop-color="rgb(90,23,23)"/>
  <stop offset="0.1875" stop-color="rgb(89,22,22)"/>
  <stop offset="0.2188" stop-color="rgb(89,22,22)"/>
  <stop offset="0.2500" stop-color="rgb(88,22,22)"/>
  <stop offset="0.2813" stop-color="rgb(87,22,22)"/>
  <stop offset="0.3125" stop-color="rgb(87,22,22)"/>
  <stop offset="0.3438" stop-color="rgb(86,22,22)"/>
  <stop offset="0.3750" stop-color="rgb(85,21,21)"/>
  <stop offset="0.4063" stop-color="rgb(85,21,21)"/>
  <stop offset="0.4375" stop-color="rgb(84,21,21)"/>
  <stop offset="0.4688" stop-color="rgb(83,21,21)"/>
  <stop offset="0.5000" stop-color="rgb(83,21,21)"/>
  <stop offset="0.5313" stop-color="rgb(82,21,21)"/>
  <stop offset="0.5625" stop-color="rgb(81,20,20)"/>
  <stop offset="0.5938" stop-color="rgb(81,20,20)"/>
  <stop offset="0.6250" stop-color="rgb(80,20,20)"/>
  <stop offset="0.6563" stop-color="rgb(79,20,20)"/>
  <stop offset="0.6875" stop-color="rgb(79,20,20)"/>
  <stop offset="0.7188" stop-color="rgb(78,20,20)"/>
  <stop offset="0.7500" stop-color="rgb(77,19,19)"/>
  <stop offset="0.7813" stop-color="rgb(74,19,19)"/>
  <stop offset="0.8125" stop-color="rgb(70,18,18)"/>
  <stop offset="0.8438" stop-color="rgb(67,17,17)"/>
  <stop offset="0.8750" stop-color="rgb(62,16,16)"/>
  <stop offset="0.9063" stop-color="rgb(47,12,12)"/>
  <stop offset="0.9375" stop-color="rgb(31,8,8)"/>
  <stop offset="0.9688" stop-color="rgb(16,4,4)"/>
  <stop offset="1.0000" stop-color="rgb(0,0,0)"/>
</radialGradient></defs>
<circle cx="860" cy="140" r="81" fill="url(#g_IC2574)"/>
<text x="860" y="49" text-anchor="middle" class="preview-lbl">face-on luminance from ρ(r)</text>
<text x="860" y="239" text-anchor="middle" class="preview-lbl">edge at r = 14.9 kpc</text>
</svg>