<svg xmlns="http://www.w3.org/2000/svg" viewBox="0 0 890 420" width="890" height="420" font-family="sans-serif" font-size="12">
<style>
  .ax { stroke: #333; stroke-width: 1; fill: none; }
  .grid { stroke: #ddd; stroke-width: 0.5; fill: none; }
  .lbl { fill: #333; }
  .lbl-l { fill: #0066cc; }
  .lbl-r { fill: #b03030; }
  .obs { fill: #222; }
  .err { stroke: #555; stroke-width: 0.8; fill: none; }
  .fw { stroke: #0066cc; stroke-width: 2.2; fill: none; }
  .nt { stroke: #cc6600; stroke-width: 1.6; fill: none; stroke-dasharray: 5,3; }
  .lbl-s { fill: #cc7000; }
  .rho { stroke: #b03030; stroke-width: 2.0; fill: none; }
  .sig { stroke: #cc7000; stroke-width: 1.8; fill: none; }
  .title { fill: #111; font-size: 16px; font-weight: 600; }
  .subtitle { fill: #555; font-size: 11px; }
  .preview-bg { fill: #000; }
  .preview-lbl { fill: #888; font-size: 10px; }
  .legend { font-size: 11px; }
</style>
<text x="343.5" y="22" text-anchor="middle" class="title">IC2574</text>
<text x="343.5" y="38" text-anchor="middle" class="subtitle">rMax=10.2 kpc, N=34, RMS=2.9 km/s (6.7%), amp=283</text>
<line x1="70" y1="365.0" x2="617" y2="365.0" class="grid"/>
<text x="64" y="369.0" text-anchor="end" class="lbl-l">0</text>
<line x1="70" y1="303.0" x2="617" y2="303.0" class="grid"/>
<text x="64" y="307.0" text-anchor="end" class="lbl-l">17</text>
<line x1="70" y1="241.0" x2="617" y2="241.0" class="grid"/>
<text x="64" y="245.0" text-anchor="end" class="lbl-l">34</text>
<line x1="70" y1="179.0" x2="617" y2="179.0" class="grid"/>
<text x="64" y="183.0" text-anchor="end" class="lbl-l">51</text>
<line x1="70" y1="117.0" x2="617" y2="117.0" class="grid"/>
<text x="64" y="121.0" text-anchor="end" class="lbl-l">68</text>
<line x1="70" y1="55.0" x2="617" y2="55.0" class="grid"/>
<text x="64" y="59.0" text-anchor="end" class="lbl-l">84</text>
<text x="623" y="369.0" text-anchor="start" class="lbl-r">0.0</text>
<text x="623" y="327.7" text-anchor="start" class="lbl-r">0.2</text>
<text x="623" y="286.3" text-anchor="start" class="lbl-r">0.4</text>
<text x="623" y="245.0" text-anchor="start" class="lbl-r">0.6</text>
<text x="623" y="203.7" text-anchor="start" class="lbl-r">0.8</text>
<text x="623" y="162.3" text-anchor="start" class="lbl-r">1.0</text>
<line x1="70.0" y1="55" x2="70.0" y2="365" class="grid"/>
<text x="70.0" y="381" text-anchor="middle" class="lbl">0.0</text>
<line x1="161.2" y1="55" x2="161.2" y2="365" class="grid"/>
<text x="161.2" y="381" text-anchor="middle" class="lbl">2.6</text>
<line x1="252.3" y1="55" x2="252.3" y2="365" class="grid"/>
<text x="252.3" y="381" text-anchor="middle" class="lbl">5.2</text>
<line x1="343.5" y1="55" x2="343.5" y2="365" class="grid"/>
<text x="343.5" y="381" text-anchor="middle" class="lbl">7.8</text>
<line x1="434.7" y1="55" x2="434.7" y2="365" class="grid"/>
<text x="434.7" y="381" text-anchor="middle" class="lbl">10.5</text>
<line x1="525.8" y1="55" x2="525.8" y2="365" class="grid"/>
<text x="525.8" y="381" text-anchor="middle" class="lbl">13.1</text>
<line x1="617.0" y1="55" x2="617.0" y2="365" class="grid"/>
<text x="617.0" y="381" text-anchor="middle" class="lbl">15.7</text>
<text x="343.5" y="408" text-anchor="middle" class="lbl">radius (kpc)</text>
<text x="16" y="210" text-anchor="middle" class="lbl-l" transform="rotate(-90, 16, 210)">velocity (km/s)</text>
<text x="654" y="210" text-anchor="middle" class="lbl-r" transform="rotate(-90, 654, 210)">mass profile (normalized to peak)</text>
<rect x="70" y="55" width="547" height="310" class="ax"/>
<path d="M 70.0,158.3 L 72.5,169.9 L 75.0,181.5 L 77.5,193.1 L 80.0,204.7 L 82.5,216.3 L 85.0,227.9 L 87.5,239.5 L 90.0,240.2 L 92.5,240.2 L 95.0,240.2 L 97.5,240.2 L 100.0,240.2 L 102.5,240.2 L 105.0,240.2 L 107.5,240.2 L 110.0,240.2 L 112.5,240.2 L 115.0,240.2 L 117.5,240.2 L 120.0,240.2 L 122.5,240.2 L 124.9,240.2 L 127.4,240.2 L 129.9,240.2 L 132.4,240.2 L 134.9,240.2 L 137.4,240.2 L 139.9,240.2 L 142.4,240.2 L 144.9,240.2 L 147.4,240.2 L 149.9,240.2 L 152.4,240.2 L 154.9,240.2 L 157.4,240.2 L 159.9,240.2 L 162.4,240.5 L 164.9,240.8 L 167.4,241.1 L 169.9,241.4 L 172.4,241.8 L 174.9,242.1 L 177.4,242.4 L 179.9,242.7 L 182.4,243.0 L 184.9,243.4 L 187.4,243.7 L 189.9,244.0 L 192.4,244.3 L 194.9,244.7 L 197.4,245.0 L 199.9,245.3 L 202.4,245.6 L 204.9,245.9 L 207.4,246.3 L 209.9,246.6 L 212.4,246.9 L 214.9,247.2 L 217.4,247.6 L 219.9,247.9 L 222.4,248.2 L 224.9,248.5 L 227.4,248.8 L 229.9,249.2 L 232.4,249.5 L 234.8,249.8 L 237.3,250.1 L 239.8,250.4 L 242.3,250.8 L 244.8,251.1 L 247.3,251.4 L 249.8,251.7 L 252.3,252.1 L 254.8,252.4 L 257.3,252.7 L 259.8,253.0 L 262.3,253.3 L 264.8,253.7 L 267.3,254.0 L 269.8,254.3 L 272.3,254.6 L 274.8,254.9 L 277.3,255.3 L 279.8,255.6 L 282.3,255.9 L 284.8,256.2 L 287.3,256.6 L 289.8,256.9 L 292.3,257.2 L 294.8,257.5 L 297.3,257.8 L 299.8,258.2 L 302.3,258.5 L 304.8,258.8 L 307.3,259.1 L 309.8,259.5 L 312.3,259.8 L 314.8,260.1 L 317.3,260.4 L 319.8,260.7 L 322.3,261.1 L 324.8,261.4 L 327.3,261.7 L 329.8,262.0 L 332.3,262.3 L 334.8,262.7 L 337.3,263.0 L 339.8,263.3 L 342.3,263.6 L 344.7,264.0 L 347.2,264.3 L 349.7,264.6 L 352.2,264.9 L 354.7,265.2 L 357.2,265.6 L 359.7,265.9 L 362.2,266.2 L 364.7,266.5 L 367.2,266.8 L 369.7,267.2 L 372.2,267.5 L 374.7,267.8 L 377.2,268.1 L 379.7,268.5 L 382.2,268.8 L 384.7,269.1 L 387.2,269.4 L 389.7,269.7 L 392.2,270.1 L 394.7,270.4 L 397.2,270.7 L 399.7,271.0 L 402.2,271.4 L 404.7,271.7 L 407.2,272.0 L 409.7,272.3 L 412.2,272.6 L 414.7,273.0 L 417.2,273.3 L 419.7,273.6 L 422.2,273.9 L 424.7,274.2 L 427.2,274.6 L 429.7,274.9 L 432.2,275.2 L 434.7,275.5 L 437.2,275.9 L 439.7,276.2 L 442.2,276.5 L 444.7,276.8 L 447.2,277.1 L 449.7,277.5 L 452.2,277.8 L 454.6,278.1 L 457.1,278.6 L 459.6,280.2 L 462.1,281.8 L 464.6,283.4 L 467.1,285.1 L 469.6,286.7 L 472.1,288.3 L 474.6,289.9 L 477.1,291.5 L 479.6,293.1 L 482.1,294.7 L 484.6,296.3 L 487.1,298.0 L 489.6,299.6 L 492.1,301.2 L 494.6,302.8 L 497.1,304.4 L 499.6,306.0 L 502.1,307.6 L 504.6,309.2 L 507.1,310.9 L 509.6,312.5 L 512.1,314.1 L 514.6,315.7 L 517.1,317.3 L 519.6,318.9 L 522.1,320.5 L 524.6,322.2 L 527.1,323.8 L 529.6,325.4 L 532.1,327.0 L 534.6,328.6 L 537.1,330.2 L 539.6,331.8 L 542.1,333.4 L 544.6,335.1 L 547.1,336.7 L 549.6,338.3 L 552.1,339.9 L 554.6,341.5 L 557.1,343.1 L 559.6,344.7 L 562.1,346.3 L 564.5,348.0 L 567.0,349.6 L 569.5,351.2 L 572.0,352.8 L 574.5,354.4 L 577.0,356.0 L 579.5,357.6 L 582.0,359.2 L 584.5,360.9 L 587.0,362.5 L 589.5,364.1 L 592.0,365.0 L 594.5,365.0 L 597.0,365.0 L 599.5,365.0 L 602.0,365.0 L 604.5,365.0 L 607.0,365.0 L 609.5,365.0 L 612.0,365.0 L 614.5,365.0 L 617.0,365.0" class="rho"/>
<path d="M 70.0,158.3 L 72.5,158.6 L 75.0,159.1 L 77.5,159.8 L 80.0,160.7 L 82.5,161.8 L 85.0,162.9 L 87.5,164.0 L 90.0,165.1 L 92.5,166.1 L 95.0,167.1 L 97.5,167.9 L 100.0,168.7 L 102.5,169.5 L 105.0,170.1 L 107.5,170.8 L 110.0,171.3 L 112.5,171.9 L 115.0,172.4 L 117.5,172.9 L 120.0,173.4 L 122.5,173.9 L 124.9,174.4 L 127.4,174.8 L 129.9,175.3 L 132.4,175.7 L 134.9,176.2 L 137.4,176.7 L 139.9,177.2 L 142.4,177.7 L 144.9,178.2 L 147.4,178.7 L 149.9,179.2 L 152.4,179.8 L 154.9,180.4 L 157.4,181.0 L 159.9,181.6 L 162.4,182.2 L 164.9,182.9 L 167.4,183.6 L 169.9,184.3 L 172.4,185.0 L 174.9,185.7 L 177.4,186.5 L 179.9,187.3 L 182.4,188.0 L 184.9,188.8 L 187.4,189.7 L 189.9,190.5 L 192.4,191.3 L 194.9,192.2 L 197.4,193.0 L 199.9,193.9 L 202.4,194.7 L 204.9,195.6 L 207.4,196.5 L 209.9,197.4 L 212.4,198.3 L 214.9,199.2 L 217.4,200.1 L 219.9,201.0 L 222.4,201.9 L 224.9,202.8 L 227.4,203.8 L 229.9,204.7 L 232.4,205.6 L 234.8,206.5 L 237.3,207.5 L 239.8,208.4 L 242.3,209.4 L 244.8,210.3 L 247.3,211.2 L 249.8,212.2 L 252.3,213.1 L 254.8,214.1 L 257.3,215.0 L 259.8,216.0 L 262.3,217.0 L 264.8,217.9 L 267.3,218.9 L 269.8,219.8 L 272.3,220.8 L 274.8,221.7 L 277.3,222.7 L 279.8,223.7 L 282.3,224.6 L 284.8,225.6 L 287.3,226.5 L 289.8,227.5 L 292.3,228.5 L 294.8,229.4 L 297.3,230.4 L 299.8,231.4 L 302.3,232.3 L 304.8,233.3 L 307.3,234.3 L 309.8,235.2 L 312.3,236.2 L 314.8,237.1 L 317.3,238.1 L 319.8,239.1 L 322.3,240.0 L 324.8,241.0 L 327.3,242.0 L 329.8,242.9 L 332.3,243.9 L 334.8,244.8 L 337.3,245.8 L 339.8,246.8 L 342.3,247.7 L 344.7,248.7 L 347.2,249.6 L 349.7,250.6 L 352.2,251.6 L 354.7,252.5 L 357.2,253.5 L 359.7,254.5 L 362.2,255.4 L 364.7,256.4 L 367.2,257.3 L 369.7,258.3 L 372.2,259.3 L 374.7,260.2 L 377.2,261.2 L 379.7,262.2 L 382.2,263.1 L 384.7,264.1 L 387.2,265.1 L 389.7,266.1 L 392.2,267.0 L 394.7,268.0 L 397.2,269.0 L 399.7,270.0 L 402.2,271.0 L 404.7,272.0 L 407.2,273.0 L 409.7,274.0 L 412.2,275.0 L 414.7,276.0 L 417.2,277.0 L 419.7,278.1 L 422.2,279.1 L 424.7,280.1 L 427.2,281.2 L 429.7,282.3 L 432.2,283.4 L 434.7,284.5 L 437.2,285.6 L 439.7,286.7 L 442.2,287.9 L 444.7,289.0 L 447.2,290.2 L 449.7,291.5 L 452.2,292.7 L 454.6,294.0 L 457.1,295.3 L 459.6,296.6 L 462.1,298.0 L 464.6,299.4 L 467.1,300.8 L 469.6,302.2 L 472.1,303.6 L 474.6,305.0 L 477.1,306.4 L 479.6,307.8 L 482.1,309.2 L 484.6,310.6 L 487.1,311.9 L 489.6,313.3 L 492.1,314.6 L 494.6,315.9 L 497.1,317.2 L 499.6,318.4 L 502.1,319.6 L 504.6,320.8 L 507.1,322.0 L 509.6,323.2 L 512.1,324.3 L 514.6,325.3 L 517.1,326.4 L 519.6,327.4 L 522.1,328.4 L 524.6,329.3 L 527.1,330.3 L 529.6,331.1 L 532.1,332.0 L 534.6,332.8 L 537.1,333.6 L 539.6,334.4 L 542.1,335.1 L 544.6,335.8 L 547.1,336.5 L 549.6,337.2 L 552.1,337.8 L 554.6,338.4 L 557.1,339.0 L 559.6,339.5 L 562.1,340.1 L 564.5,340.6 L 567.0,341.1 L 569.5,341.5 L 572.0,342.0 L 574.5,342.4 L 577.0,342.8 L 579.5,343.2 L 582.0,343.6 L 584.5,344.0 L 587.0,344.3 L 589.5,344.7 L 592.0,345.0 L 594.5,345.3 L 597.0,345.6 L 599.5,345.9 L 602.0,346.2 L 604.5,346.5 L 607.0,346.8 L 609.5,347.1 L 612.0,347.3 L 614.5,347.6 L 617.0,347.8" class="sig"/>
<path d="M 75.5,329.5 L 80.9,317.1 L 86.4,309.3 L 91.9,303.4 L 97.3,297.7 L 102.8,292.3 L 108.3,287.1 L 113.8,282.1 L 119.2,277.4 L 124.7,272.9 L 130.2,268.6 L 135.6,264.4 L 141.1,260.5 L 146.6,256.6 L 152.1,252.9 L 157.5,249.3 L 163.0,245.8 L 168.5,242.4 L 173.9,239.2 L 179.4,236.0 L 184.9,233.0 L 190.3,230.1 L 195.8,227.2 L 201.3,224.5 L 206.8,221.8 L 212.2,219.2 L 217.7,216.6 L 223.2,214.1 L 228.6,211.7 L 234.1,209.4 L 239.6,207.1 L 245.0,204.8 L 250.5,202.6 L 256.0,200.5 L 261.5,198.4 L 266.9,196.3 L 272.4,194.3 L 277.9,192.3 L 283.3,190.4 L 288.8,188.5 L 294.3,186.7 L 299.7,184.8 L 305.2,183.1 L 310.7,181.3 L 316.1,179.6 L 321.6,177.9 L 327.1,176.3 L 332.6,174.7 L 338.0,173.1 L 343.5,171.5 L 349.0,170.0 L 354.4,168.5 L 359.9,167.0 L 365.4,165.6 L 370.8,164.2 L 376.3,162.8 L 381.8,161.4 L 387.3,160.1 L 392.7,158.7 L 398.2,157.4 L 403.7,156.2 L 409.1,154.9 L 414.6,153.7 L 420.1,152.5 L 425.5,151.3 L 431.0,150.1 L 436.5,149.0 L 442.0,147.9 L 447.4,146.8 L 452.9,145.7 L 458.4,144.6 L 463.8,143.6 L 469.3,142.8 L 474.8,142.0 L 480.2,141.3 L 485.7,140.7 L 491.2,140.2 L 496.7,139.8 L 502.1,139.5 L 507.6,139.3 L 513.1,139.2 L 518.5,139.1 L 524.0,139.2 L 529.5,139.3 L 534.9,139.5 L 540.4,139.8 L 545.9,140.2 L 551.4,140.7 L 556.8,141.2 L 562.3,141.9 L 567.8,142.6 L 573.2,143.4 L 578.7,144.3 L 584.2,145.3 L 589.7,146.4 L 595.1,147.6 L 600.6,148.7 L 606.1,149.8 L 611.5,150.9 L 617.0,152.0" class="nt"/>
<path d="M 74.6,345.3 L 79.1,329.5 L 83.7,317.5 L 88.2,310.2 L 92.8,306.8 L 97.3,305.8 L 101.9,305.9 L 106.5,306.1 L 111.0,306.0 L 115.6,305.4 L 120.1,304.3 L 124.7,302.6 L 129.3,300.3 L 133.8,297.4 L 138.4,294.1 L 142.9,290.2 L 147.5,285.8 L 152.1,281.1 L 156.6,276.0 L 161.2,270.7 L 165.7,265.5 L 170.3,260.4 L 174.8,255.7 L 179.4,251.2 L 184.0,247.1 L 188.5,243.1 L 193.1,239.4 L 197.6,235.9 L 202.2,232.5 L 206.8,229.3 L 211.3,226.2 L 215.9,223.2 L 220.4,220.3 L 225.0,217.6 L 229.5,214.9 L 234.1,212.3 L 238.7,209.7 L 243.2,207.3 L 247.8,204.9 L 252.3,202.6 L 256.9,200.3 L 261.4,198.1 L 266.0,196.0 L 270.6,193.8 L 275.1,191.8 L 279.7,189.8 L 284.2,187.8 L 288.8,185.9 L 293.4,184.0 L 297.9,182.1 L 302.5,180.3 L 307.0,178.5 L 311.6,176.7 L 316.1,175.0 L 320.7,173.2 L 325.3,171.5 L 329.8,169.9 L 334.4,168.2 L 338.9,166.5 L 343.5,164.8 L 348.1,163.2 L 352.6,161.5 L 357.2,159.8 L 361.7,158.2 L 366.3,156.4 L 370.8,154.7 L 375.4,152.9 L 380.0,151.1 L 384.5,149.2 L 389.1,147.2 L 393.6,145.1 L 398.2,143.0 L 402.8,140.6 L 407.3,138.1 L 411.9,135.4 L 416.4,132.5 L 421.0,129.2 L 425.5,125.5 L 430.1,121.4 L 434.7,116.8 L 439.2,111.5 L 443.8,105.6 L 448.3,99.1 L 452.9,92.3 L 457.5,85.7 L 462.0,79.8 L 466.6,75.1 L 471.1,71.9 L 475.7,70.2 L 480.3,69.9 L 484.8,70.8 L 489.4,72.8 L 493.9,75.6 L 498.5,79.2 L 503.0,83.5 L 507.6,88.4 L 512.2,93.8 L 516.7,99.6 L 521.3,105.7 L 525.8,112.2 L 530.4,118.9 L 535.0,125.8 L 539.5,132.8 L 544.1,139.9 L 548.6,147.0 L 553.2,154.1 L 557.7,161.0 L 562.3,167.7 L 566.9,174.2 L 571.4,180.5 L 576.0,186.3 L 580.5,191.8 L 585.1,197.0 L 589.7,201.7 L 594.2,206.0 L 598.8,210.0 L 603.3,213.7 L 607.9,217.1 L 612.4,220.3 L 617.0,223.3" class="fw"/>
<line x1="99.65" y1="326.47" x2="99.65" y2="327.94" class="err"/>
<line x1="96.65" y1="326.47" x2="102.65" y2="326.47" class="err"/>
<line x1="96.65" y1="327.94" x2="102.65" y2="327.94" class="err"/>
<circle cx="99.65" cy="327.20" r="2.5" class="obs"/>
<line x1="109.77" y1="307.76" x2="109.77" y2="327.57" class="err"/>
<line x1="106.77" y1="307.76" x2="112.77" y2="307.76" class="err"/>
<line x1="106.77" y1="327.57" x2="112.77" y2="327.57" class="err"/>
<circle cx="109.77" cy="317.66" r="2.5" class="obs"/>
<line x1="119.53" y1="298.21" x2="119.53" y2="311.43" class="err"/>
<line x1="116.53" y1="298.21" x2="122.53" y2="298.21" class="err"/>
<line x1="116.53" y1="311.43" x2="122.53" y2="311.43" class="err"/>
<circle cx="119.53" cy="304.82" r="2.5" class="obs"/>
<line x1="129.65" y1="289.04" x2="129.65" y2="304.45" class="err"/>
<line x1="126.65" y1="289.04" x2="132.65" y2="289.04" class="err"/>
<line x1="126.65" y1="304.45" x2="132.65" y2="304.45" class="err"/>
<circle cx="129.65" cy="296.75" r="2.5" class="obs"/>
<line x1="139.41" y1="285.00" x2="139.41" y2="299.68" class="err"/>
<line x1="136.41" y1="285.00" x2="142.41" y2="285.00" class="err"/>
<line x1="136.41" y1="299.68" x2="142.41" y2="299.68" class="err"/>
<circle cx="139.41" cy="292.34" r="2.5" class="obs"/>
<line x1="149.53" y1="267.02" x2="149.53" y2="271.43" class="err"/>
<line x1="146.53" y1="267.02" x2="152.53" y2="267.02" class="err"/>
<line x1="146.53" y1="271.43" x2="152.53" y2="271.43" class="err"/>
<circle cx="149.53" cy="269.23" r="2.5" class="obs"/>
<line x1="158.95" y1="253.45" x2="158.95" y2="273.26" class="err"/>
<line x1="155.95" y1="253.45" x2="161.95" y2="253.45" class="err"/>
<line x1="155.95" y1="273.26" x2="161.95" y2="273.26" class="err"/>
<circle cx="158.95" cy="263.35" r="2.5" class="obs"/>
<line x1="169.06" y1="246.47" x2="169.06" y2="265.56" class="err"/>
<line x1="166.06" y1="246.47" x2="172.06" y2="246.47" class="err"/>
<line x1="166.06" y1="265.56" x2="172.06" y2="265.56" class="err"/>
<circle cx="169.06" cy="256.02" r="2.5" class="obs"/>
<line x1="179.18" y1="231.43" x2="179.18" y2="256.38" class="err"/>
<line x1="176.18" y1="231.43" x2="182.18" y2="231.43" class="err"/>
<line x1="176.18" y1="256.38" x2="182.18" y2="256.38" class="err"/>
<circle cx="179.18" cy="243.91" r="2.5" class="obs"/>
<line x1="188.95" y1="232.90" x2="188.95" y2="241.70" class="err"/>
<line x1="185.95" y1="232.90" x2="191.95" y2="232.90" class="err"/>
<line x1="185.95" y1="241.70" x2="191.95" y2="241.70" class="err"/>
<circle cx="188.95" cy="237.30" r="2.5" class="obs"/>
<line x1="199.06" y1="233.26" x2="199.06" y2="239.87" class="err"/>
<line x1="196.06" y1="233.26" x2="202.06" y2="233.26" class="err"/>
<line x1="196.06" y1="239.87" x2="202.06" y2="239.87" class="err"/>
<circle cx="199.06" cy="236.57" r="2.5" class="obs"/>
<line x1="208.83" y1="184.46" x2="208.83" y2="259.32" class="err"/>
<line x1="205.83" y1="184.46" x2="211.83" y2="184.46" class="err"/>
<line x1="205.83" y1="259.32" x2="211.83" y2="259.32" class="err"/>
<circle cx="208.83" cy="221.89" r="2.5" class="obs"/>
<line x1="218.60" y1="213.45" x2="218.60" y2="253.08" class="err"/>
<line x1="215.60" y1="213.45" x2="221.60" y2="213.45" class="err"/>
<line x1="215.60" y1="253.08" x2="221.60" y2="253.08" class="err"/>
<circle cx="218.60" cy="233.26" r="2.5" class="obs"/>
<line x1="228.71" y1="203.17" x2="228.71" y2="233.26" class="err"/>
<line x1="225.71" y1="203.17" x2="231.71" y2="203.17" class="err"/>
<line x1="225.71" y1="233.26" x2="231.71" y2="233.26" class="err"/>
<circle cx="228.71" cy="218.22" r="2.5" class="obs"/>
<line x1="238.83" y1="217.85" x2="238.83" y2="228.13" class="err"/>
<line x1="235.83" y1="217.85" x2="241.83" y2="217.85" class="err"/>
<line x1="235.83" y1="228.13" x2="241.83" y2="228.13" class="err"/>
<circle cx="238.83" cy="222.99" r="2.5" class="obs"/>
<line x1="248.59" y1="209.78" x2="248.59" y2="213.45" class="err"/>
<line x1="245.59" y1="209.78" x2="251.59" y2="209.78" class="err"/>
<line x1="245.59" y1="213.45" x2="251.59" y2="213.45" class="err"/>
<circle cx="248.59" cy="211.61" r="2.5" class="obs"/>
<line x1="258.71" y1="206.11" x2="258.71" y2="209.05" class="err"/>
<line x1="255.71" y1="206.11" x2="261.71" y2="206.11" class="err"/>
<line x1="255.71" y1="209.05" x2="261.71" y2="209.05" class="err"/>
<circle cx="258.71" cy="207.58" r="2.5" class="obs"/>
<line x1="268.13" y1="195.84" x2="268.13" y2="208.31" class="err"/>
<line x1="265.13" y1="195.84" x2="271.13" y2="195.84" class="err"/>
<line x1="265.13" y1="208.31" x2="271.13" y2="208.31" class="err"/>
<circle cx="268.13" cy="202.07" r="2.5" class="obs"/>
<line x1="278.24" y1="191.07" x2="278.24" y2="200.61" class="err"/>
<line x1="275.24" y1="191.07" x2="281.24" y2="191.07" class="err"/>
<line x1="275.24" y1="200.61" x2="281.24" y2="200.61" class="err"/>
<circle cx="278.24" cy="195.84" r="2.5" class="obs"/>
<line x1="288.36" y1="181.89" x2="288.36" y2="188.50" class="err"/>
<line x1="285.36" y1="181.89" x2="291.36" y2="181.89" class="err"/>
<line x1="285.36" y1="188.50" x2="291.36" y2="188.50" class="err"/>
<circle cx="288.36" cy="185.19" r="2.5" class="obs"/>
<line x1="298.13" y1="172.35" x2="298.13" y2="176.75" class="err"/>
<line x1="295.13" y1="172.35" x2="301.13" y2="172.35" class="err"/>
<line x1="295.13" y1="176.75" x2="301.13" y2="176.75" class="err"/>
<circle cx="298.13" cy="174.55" r="2.5" class="obs"/>
<line x1="308.24" y1="162.44" x2="308.24" y2="177.86" class="err"/>
<line x1="305.24" y1="162.44" x2="311.24" y2="162.44" class="err"/>
<line x1="305.24" y1="177.86" x2="311.24" y2="177.86" class="err"/>
<circle cx="308.24" cy="170.15" r="2.5" class="obs"/>
<line x1="317.66" y1="165.01" x2="317.66" y2="168.68" class="err"/>
<line x1="314.66" y1="165.01" x2="320.66" y2="165.01" class="err"/>
<line x1="314.66" y1="168.68" x2="320.66" y2="168.68" class="err"/>
<circle cx="317.66" cy="166.85" r="2.5" class="obs"/>
<line x1="327.78" y1="155.84" x2="327.78" y2="163.91" class="err"/>
<line x1="324.78" y1="155.84" x2="330.78" y2="155.84" class="err"/>
<line x1="324.78" y1="163.91" x2="330.78" y2="163.91" class="err"/>
<circle cx="327.78" cy="159.87" r="2.5" class="obs"/>
<line x1="337.89" y1="136.02" x2="337.89" y2="162.44" class="err"/>
<line x1="334.89" y1="136.02" x2="340.89" y2="136.02" class="err"/>
<line x1="334.89" y1="162.44" x2="340.89" y2="162.44" class="err"/>
<circle cx="337.89" cy="149.23" r="2.5" class="obs"/>
<line x1="347.66" y1="137.86" x2="347.66" y2="171.62" class="err"/>
<line x1="344.66" y1="137.86" x2="350.66" y2="137.86" class="err"/>
<line x1="344.66" y1="171.62" x2="350.66" y2="171.62" class="err"/>
<circle cx="347.66" cy="154.74" r="2.5" class="obs"/>
<line x1="357.77" y1="133.82" x2="357.77" y2="199.87" class="err"/>
<line x1="354.77" y1="133.82" x2="360.77" y2="133.82" class="err"/>
<line x1="354.77" y1="199.87" x2="360.77" y2="199.87" class="err"/>
<circle cx="357.77" cy="166.85" r="2.5" class="obs"/>
<line x1="367.19" y1="86.85" x2="367.19" y2="174.92" class="err"/>
<line x1="364.19" y1="86.85" x2="370.19" y2="86.85" class="err"/>
<line x1="364.19" y1="174.92" x2="370.19" y2="174.92" class="err"/>
<circle cx="367.19" cy="130.89" r="2.5" class="obs"/>
<line x1="377.31" y1="120.24" x2="377.31" y2="165.75" class="err"/>
<line x1="374.31" y1="120.24" x2="380.31" y2="120.24" class="err"/>
<line x1="374.31" y1="165.75" x2="380.31" y2="165.75" class="err"/>
<circle cx="377.31" cy="142.99" r="2.5" class="obs"/>
<line x1="387.42" y1="120.24" x2="387.42" y2="162.08" class="err"/>
<line x1="384.42" y1="120.24" x2="390.42" y2="120.24" class="err"/>
<line x1="384.42" y1="162.08" x2="390.42" y2="162.08" class="err"/>
<circle cx="387.42" cy="141.16" r="2.5" class="obs"/>
<line x1="397.19" y1="118.04" x2="397.19" y2="127.58" class="err"/>
<line x1="394.19" y1="118.04" x2="400.19" y2="118.04" class="err"/>
<line x1="394.19" y1="127.58" x2="400.19" y2="127.58" class="err"/>
<circle cx="397.19" cy="122.81" r="2.5" class="obs"/>
<line x1="407.31" y1="113.27" x2="407.31" y2="138.22" class="err"/>
<line x1="404.31" y1="113.27" x2="410.31" y2="113.27" class="err"/>
<line x1="404.31" y1="138.22" x2="410.31" y2="138.22" class="err"/>
<circle cx="407.31" cy="125.75" r="2.5" class="obs"/>
<line x1="417.42" y1="101.53" x2="417.42" y2="136.02" class="err"/>
<line x1="414.42" y1="101.53" x2="420.42" y2="101.53" class="err"/>
<line x1="414.42" y1="136.02" x2="420.42" y2="136.02" class="err"/>
<circle cx="417.42" cy="118.78" r="2.5" class="obs"/>
<line x1="426.84" y1="83.18" x2="426.84" y2="151.43" class="err"/>
<line x1="423.84" y1="83.18" x2="429.84" y2="83.18" class="err"/>
<line x1="423.84" y1="151.43" x2="429.84" y2="151.43" class="err"/>
<circle cx="426.84" cy="117.31" r="2.5" class="obs"/>
<g class="legend">
<line x1="82" y1="69" x2="106" y2="69" class="fw"/>
<text x="112" y="73" class="lbl-l">framework fit</text>
<line x1="82" y1="87" x2="106" y2="87" class="nt"/>
<text x="112" y="91" class="lbl-l">Newtonian (no halo)</text>
<circle cx="94" cy="105" r="2.5" class="obs"/>
<text x="112" y="109" class="lbl">observed V±err</text>
</g>
<g class="legend">
<line x1="442" y1="69" x2="466" y2="69" class="rho"/>
<text x="472" y="73" class="lbl-r">ρ(r) raw</text>
<line x1="442" y1="87" x2="466" y2="87" class="sig"/>
<text x="472" y="91" class="lbl-s">Σ(r) cumulative</text>
<text x="442" y="113" class="lbl-r">ρ peak: 48 M☉/pc²</text>
</g>
<rect x="705" y="55" width="170" height="170" class="preview-bg"/>
<defs><radialGradient id="g_IC2574" cx="0.5" cy="0.5" r="0.5">
  <stop offset="0.0000" stop-color="rgb(116,29,29)"/>
  <stop offset="0.0313" stop-color="rgb(92,23,23)"/>
  <stop offset="0.0625" stop-color="rgb(90,22.5,22.5)"/>
  <stop offset="0.0938" stop-color="rgb(90,22.5,22.5)"/>
  <stop offset="0.1250" stop-color="rgb(90,22.5,22.5)"/>
  <stop offset="0.1563" stop-color="rgb(90,22.5,22.5)"/>
  <stop offset="0.1875" stop-color="rgb(89,22.25,22.25)"/>
  <stop offset="0.2188" stop-color="rgb(89,22.25,22.25)"/>
  <stop offset="0.2500" stop-color="rgb(88,22,22)"/>
  <stop offset="0.2813" stop-color="rgb(87,21.75,21.75)"/>
  <stop offset="0.3125" stop-color="rgb(87,21.75,21.75)"/>
  <stop offset="0.3438" stop-color="rgb(86,21.5,21.5)"/>
  <stop offset="0.3750" stop-color="rgb(85,21.25,21.25)"/>
  <stop offset="0.4063" stop-color="rgb(85,21.25,21.25)"/>
  <stop offset="0.4375" stop-color="rgb(84,21,21)"/>
  <stop offset="0.4688" stop-color="rgb(83,20.75,20.75)"/>
  <stop offset="0.5000" stop-color="rgb(83,20.75,20.75)"/>
  <stop offset="0.5313" stop-color="rgb(82,20.5,20.5)"/>
  <stop offset="0.5625" stop-color="rgb(81,20.25,20.25)"/>
  <stop offset="0.5938" stop-color="rgb(81,20.25,20.25)"/>
  <stop offset="0.6250" stop-color="rgb(80,20,20)"/>
  <stop offset="0.6563" stop-color="rgb(79,19.75,19.75)"/>
  <stop offset="0.6875" stop-color="rgb(79,19.75,19.75)"/>
  <stop offset="0.7188" stop-color="rgb(78,19.5,19.5)"/>
  <stop offset="0.7500" stop-color="rgb(77,19.25,19.25)"/>
  <stop offset="0.7813" stop-color="rgb(74,18.5,18.5)"/>
  <stop offset="0.8125" stop-color="rgb(70,17.5,17.5)"/>
  <stop offset="0.8438" stop-color="rgb(67,16.75,16.75)"/>
  <stop offset="0.8750" stop-color="rgb(62,15.5,15.5)"/>
  <stop offset="0.9063" stop-color="rgb(47,11.75,11.75)"/>
  <stop offset="0.9375" stop-color="rgb(31,7.75,7.75)"/>
  <stop offset="0.9688" stop-color="rgb(16,4,4)"/>
  <stop offset="1.0000" stop-color="rgb(0,0,0)"/>
</radialGradient></defs>
<circle cx="790" cy="140" r="81" fill="url(#g_IC2574)"/>
<text x="790" y="49" text-anchor="middle" class="preview-lbl">face-on luminance from ρ(r)</text>
<text x="790" y="239" text-anchor="middle" class="preview-lbl">edge at r = 14.9 kpc</text>
</svg>