<svg xmlns="http://www.w3.org/2000/svg" viewBox="0 0 960 450" width="960" height="450" font-family="sans-serif" font-size="12">
<style>
  .ax { stroke: #333; stroke-width: 1; fill: none; }
  .grid { stroke: #ddd; stroke-width: 0.5; fill: none; }
  .lbl { fill: #333; }
  .lbl-l { fill: #0066cc; }
  .lbl-r { fill: #b03030; }
  .obs { fill: #222; }
  .err { stroke: #555; stroke-width: 0.8; fill: none; }
  .fw { stroke: #0066cc; stroke-width: 2.2; fill: none; }
  .nt { stroke: #cc6600; stroke-width: 1.6; fill: none; stroke-dasharray: 5,3; }
  .mond { stroke: #7b2cbf; stroke-width: 1.8; fill: none; stroke-dasharray: 7,3; }
  .lbl-p { fill: #cc7000; }
  .lbl-m { fill: #7b2cbf; }
  .rho { stroke: #b03030; stroke-width: 2.0; fill: none; }
  .phot { stroke: #cc7000; stroke-width: 1.8; fill: none; }
  .mbar { stroke: #8e44ad; stroke-width: 1.8; fill: none; opacity: 0.9; }
  .mph { stroke: #c77dff; stroke-width: 1.6; fill: none; stroke-dasharray: 4,3; opacity: 0.95; }
  .remap-x { stroke: #cc2222; stroke-width: 1.5; fill: none; }
  .remap-link { stroke: #cc2222; stroke-width: 0.8; stroke-dasharray: 3,3; fill: none; opacity: 0.7; }
  .title { fill: #111; font-size: 16px; font-weight: 600; }
  .subtitle { fill: #555; font-size: 11px; }
  .preview-bg { fill: #000; }
  .preview-lbl { fill: #888; font-size: 10px; }
  .legend { font-size: 11px; }
</style>
<text x="378.5" y="22" text-anchor="middle" class="title">KK98-251</text>
<text x="378.5" y="38" text-anchor="middle" class="subtitle">rMax=3.1 kpc, N=15, FW=0.4 km/s, 1.9%, 0.21σ, MOND=10.8 km/s, 63.7%, 5.42σ, amp=103</text>
<line x1="70" y1="395.0" x2="687" y2="395.0" class="grid"/>
<text x="64" y="399.0" text-anchor="end" class="lbl-l">0</text>
<line x1="70" y1="327.0" x2="687" y2="327.0" class="grid"/>
<text x="64" y="331.0" text-anchor="end" class="lbl-l">11</text>
<line x1="70" y1="259.0" x2="687" y2="259.0" class="grid"/>
<text x="64" y="263.0" text-anchor="end" class="lbl-l">21</text>
<line x1="70" y1="191.0" x2="687" y2="191.0" class="grid"/>
<text x="64" y="195.0" text-anchor="end" class="lbl-l">32</text>
<line x1="70" y1="123.0" x2="687" y2="123.0" class="grid"/>
<text x="64" y="127.0" text-anchor="end" class="lbl-l">42</text>
<line x1="70" y1="55.0" x2="687" y2="55.0" class="grid"/>
<text x="64" y="59.0" text-anchor="end" class="lbl-l">53</text>
<text x="693" y="399.0" text-anchor="start" class="lbl-r">0.0</text>
<text x="693" y="353.7" text-anchor="start" class="lbl-r">0.2</text>
<text x="693" y="308.3" text-anchor="start" class="lbl-r">0.4</text>
<text x="693" y="263.0" text-anchor="start" class="lbl-r">0.6</text>
<text x="693" y="217.7" text-anchor="start" class="lbl-r">0.8</text>
<text x="693" y="172.3" text-anchor="start" class="lbl-r">1.0</text>
<line x1="70.0" y1="55" x2="70.0" y2="395" class="grid"/>
<text x="70.0" y="411" text-anchor="middle" class="lbl">0.0</text>
<line x1="172.8" y1="55" x2="172.8" y2="395" class="grid"/>
<text x="172.8" y="411" text-anchor="middle" class="lbl">0.5</text>
<line x1="275.7" y1="55" x2="275.7" y2="395" class="grid"/>
<text x="275.7" y="411" text-anchor="middle" class="lbl">1.1</text>
<line x1="378.5" y1="55" x2="378.5" y2="395" class="grid"/>
<text x="378.5" y="411" text-anchor="middle" class="lbl">1.6</text>
<line x1="481.3" y1="55" x2="481.3" y2="395" class="grid"/>
<text x="481.3" y="411" text-anchor="middle" class="lbl">2.2</text>
<line x1="584.2" y1="55" x2="584.2" y2="395" class="grid"/>
<text x="584.2" y="411" text-anchor="middle" class="lbl">2.7</text>
<line x1="687.0" y1="55" x2="687.0" y2="395" class="grid"/>
<text x="687.0" y="411" text-anchor="middle" class="lbl">3.3</text>
<text x="378.5" y="438" text-anchor="middle" class="lbl">radius (kpc)</text>
<text x="16" y="225" text-anchor="middle" class="lbl-l" transform="rotate(-90, 16, 225)">velocity (km/s)</text>
<text x="724" y="225" text-anchor="middle" class="lbl-r" transform="rotate(-90, 724, 225)">profiles (normalized to peak)</text>
<rect x="70" y="55" width="617" height="340" class="ax"/>
<path d="M 70.0,168.3 L 72.8,168.9 L 75.6,169.5 L 78.5,170.0 L 81.3,170.6 L 84.1,171.2 L 86.9,171.7 L 89.7,172.3 L 92.5,172.9 L 95.4,173.5 L 98.2,174.0 L 101.0,174.6 L 103.8,175.2 L 106.6,175.7 L 109.4,175.9 L 112.3,175.9 L 115.1,175.9 L 117.9,175.9 L 120.7,175.9 L 123.5,175.9 L 126.3,175.9 L 129.2,175.9 L 132.0,175.9 L 134.8,175.9 L 137.6,175.9 L 140.4,175.9 L 143.3,175.9 L 146.1,175.9 L 148.9,175.9 L 151.7,175.9 L 154.5,175.9 L 157.3,175.9 L 160.2,175.9 L 163.0,175.9 L 165.8,175.9 L 168.6,175.9 L 171.4,175.9 L 174.2,175.9 L 177.1,175.9 L 179.9,175.9 L 182.7,175.9 L 185.5,175.9 L 188.3,176.0 L 191.1,176.3 L 194.0,176.6 L 196.8,177.0 L 199.6,177.3 L 202.4,177.6 L 205.2,178.0 L 208.1,178.3 L 210.9,178.7 L 213.7,179.0 L 216.5,179.3 L 219.3,179.7 L 222.1,180.0 L 225.0,180.4 L 227.8,180.7 L 230.6,181.0 L 233.4,181.4 L 236.2,181.7 L 239.0,182.0 L 241.9,182.4 L 244.7,182.7 L 247.5,183.1 L 250.3,183.4 L 253.1,183.7 L 255.9,184.1 L 258.8,184.4 L 261.6,184.8 L 264.4,185.1 L 267.2,185.4 L 270.0,185.8 L 272.8,186.1 L 275.7,186.4 L 278.5,186.8 L 281.3,187.1 L 284.1,187.5 L 286.9,187.8 L 289.8,188.1 L 292.6,188.5 L 295.4,188.8 L 298.2,189.1 L 301.0,189.5 L 303.8,189.8 L 306.7,190.2 L 309.5,190.5 L 312.3,190.8 L 315.1,191.2 L 317.9,191.5 L 320.7,191.9 L 323.6,192.2 L 326.4,192.5 L 329.2,192.9 L 332.0,193.2 L 334.8,193.5 L 337.6,193.9 L 340.5,194.2 L 343.3,194.6 L 346.1,194.9 L 348.9,195.2 L 351.7,195.6 L 354.6,195.9 L 357.4,196.3 L 360.2,196.6 L 363.0,196.9 L 365.8,197.3 L 368.6,197.6 L 371.5,197.9 L 374.3,198.3 L 377.1,198.6 L 379.9,199.0 L 382.7,199.3 L 385.5,199.6 L 388.4,200.0 L 391.2,200.3 L 394.0,200.6 L 396.8,201.0 L 399.6,201.4 L 402.4,202.4 L 405.3,203.3 L 408.1,204.2 L 410.9,205.2 L 413.7,206.1 L 416.5,207.0 L 419.4,207.9 L 422.2,208.9 L 425.0,209.8 L 427.8,210.7 L 430.6,211.6 L 433.4,212.6 L 436.3,213.5 L 439.1,214.4 L 441.9,215.3 L 444.7,216.3 L 447.5,217.2 L 450.3,218.1 L 453.2,219.1 L 456.0,220.0 L 458.8,220.9 L 461.6,221.8 L 464.4,222.8 L 467.2,223.7 L 470.1,224.6 L 472.9,225.5 L 475.7,226.5 L 478.5,227.4 L 481.3,228.3 L 484.2,229.3 L 487.0,230.2 L 489.8,231.1 L 492.6,232.0 L 495.4,233.0 L 498.2,233.9 L 501.1,234.8 L 503.9,235.7 L 506.7,236.7 L 509.5,237.6 L 512.3,238.5 L 515.1,239.5 L 518.0,240.4 L 520.8,241.3 L 523.6,242.2 L 526.4,243.2 L 529.2,244.1 L 532.0,245.0 L 534.9,245.9 L 537.7,246.9 L 540.5,247.8 L 543.3,248.7 L 546.1,249.7 L 548.9,250.6 L 551.8,251.5 L 554.6,252.4 L 557.4,253.4 L 560.2,254.3 L 563.0,255.2 L 565.9,256.1 L 568.7,257.1 L 571.5,258.0 L 574.3,258.9 L 577.1,259.9 L 579.9,260.8 L 582.8,261.7 L 585.6,262.6 L 588.4,263.6 L 591.2,264.5 L 594.0,265.4 L 596.8,266.3 L 599.7,267.3 L 602.5,268.2 L 605.3,269.1 L 608.1,270.1 L 610.9,271.0 L 613.7,271.9 L 616.6,272.8 L 619.4,273.8 L 622.2,274.7 L 625.0,275.6 L 627.8,276.5 L 630.7,277.5 L 633.5,278.4 L 636.3,279.3 L 639.1,288.2 L 641.9,304.5 L 644.7,320.7 L 647.6,337.0 L 650.4,353.2 L 653.2,369.5 L 656.0,385.7 L 658.8,395.0 L 661.6,395.0 L 664.5,395.0 L 667.3,395.0 L 670.1,395.0 L 672.9,395.0 L 675.7,395.0 L 678.5,395.0 L 681.4,395.0 L 684.2,395.0 L 687.0,395.0" class="rho"/>
<path d="M 116.9,168.3 L 147.0,222.6 L 177.0,213.7 L 208.9,218.2 L 239.0,246.1 L 270.9,248.1 L 302.8,278.7 L 332.8,294.1 L 364.7,305.8 L 392.9,316.2 L 424.8,326.7 L 456.7,335.5 L 531.8,350.9 L 593.8,360.0 L 657.6,395.0" class="phot"/>
<path d="M 116.9,355.2 L 147.0,336.1 L 177.0,306.7 L 208.9,272.1 L 239.0,238.2 L 270.9,205.0 L 302.8,178.0 L 332.8,168.3 L 364.7,169.1 L 392.9,171.9 L 424.8,184.4 L 456.7,212.7 L 531.8,253.2 L 593.8,304.2 L 657.6,351.3" class="mbar"/>
<path d="M 116.9,295.1 L 147.0,274.3 L 177.0,247.7 L 208.9,222.0 L 239.0,201.1 L 270.9,183.7 L 302.8,171.2 L 332.8,168.3 L 364.7,170.2 L 392.9,172.3 L 424.8,178.6 L 456.7,192.3 L 531.8,212.7 L 593.8,241.0 L 657.6,269.0" class="mph"/>
<path d="M 76.2,370.9 L 82.3,360.9 L 88.5,353.4 L 94.7,347.0 L 100.8,341.4 L 107.0,336.4 L 113.2,331.8 L 119.4,327.5 L 125.5,323.5 L 131.7,319.7 L 137.9,316.0 L 144.0,312.5 L 150.2,309.2 L 156.4,306.0 L 162.6,302.9 L 168.7,299.8 L 174.9,296.9 L 181.1,294.1 L 187.2,291.3 L 193.4,288.7 L 199.6,286.1 L 205.7,283.5 L 211.9,281.1 L 218.1,278.7 L 224.3,276.4 L 230.4,274.1 L 236.6,271.9 L 242.8,269.7 L 248.9,267.6 L 255.1,265.5 L 261.3,263.5 L 267.4,261.5 L 273.6,259.6 L 279.8,257.7 L 285.9,255.8 L 292.1,254.0 L 298.3,252.2 L 304.5,250.4 L 310.6,248.7 L 316.8,247.0 L 323.0,245.3 L 329.1,243.6 L 335.3,242.0 L 341.5,240.4 L 347.7,238.8 L 353.8,237.3 L 360.0,235.7 L 366.2,234.2 L 372.3,232.7 L 378.5,231.3 L 384.7,229.8 L 390.8,228.4 L 397.0,227.0 L 403.2,225.6 L 409.4,224.3 L 415.5,223.0 L 421.7,221.7 L 427.9,220.5 L 434.0,219.3 L 440.2,218.1 L 446.4,217.0 L 452.5,215.9 L 458.7,214.8 L 464.9,213.7 L 471.1,212.7 L 477.2,211.7 L 483.4,210.8 L 489.6,209.8 L 495.7,208.9 L 501.9,208.0 L 508.1,207.2 L 514.2,206.4 L 520.4,205.5 L 526.6,204.8 L 532.8,204.0 L 538.9,203.3 L 545.1,202.5 L 551.3,201.9 L 557.4,201.2 L 563.6,200.5 L 569.8,199.9 L 575.9,199.3 L 582.1,198.7 L 588.3,198.2 L 594.4,197.6 L 600.6,197.1 L 606.8,196.6 L 613.0,196.1 L 619.1,195.7 L 625.3,195.2 L 631.5,194.8 L 637.6,194.4 L 643.8,194.2 L 650.0,194.5 L 656.2,195.2 L 662.3,196.3 L 668.5,197.3 L 674.7,198.3 L 680.8,199.3 L 687.0,200.3" class="nt"/>
<path d="M 116.9,334.5 L 147.0,308.9 L 177.0,285.6 L 208.9,259.3 L 239.0,236.8 L 270.9,213.4 L 302.8,191.1 L 332.8,172.5 L 364.7,155.7 L 392.9,141.7 L 424.8,128.1 L 456.7,116.7 L 531.8,98.0 L 593.8,87.6 L 657.6,85.9" class="mond"/>
<path d="M 75.1,390.8 L 80.3,387.8 L 85.4,384.5 L 90.6,381.4 L 95.7,378.4 L 100.8,375.7 L 106.0,373.2 L 111.1,370.7 L 116.3,368.3 L 121.4,365.9 L 126.6,363.5 L 131.7,360.9 L 136.8,358.3 L 142.0,355.6 L 147.1,352.8 L 152.3,349.9 L 157.4,347.0 L 162.6,343.9 L 167.7,340.7 L 172.8,337.5 L 178.0,334.1 L 183.1,330.7 L 188.3,327.4 L 193.4,324.0 L 198.5,320.7 L 203.7,317.5 L 208.8,314.3 L 214.0,311.3 L 219.1,308.4 L 224.2,305.5 L 229.4,302.7 L 234.5,300.0 L 239.7,297.4 L 244.8,294.8 L 250.0,292.3 L 255.1,289.8 L 260.2,287.3 L 265.4,284.9 L 270.5,282.5 L 275.7,280.2 L 280.8,277.8 L 286.0,275.5 L 291.1,273.1 L 296.2,270.8 L 301.4,268.5 L 306.5,266.2 L 311.7,263.8 L 316.8,261.5 L 321.9,259.1 L 327.1,256.7 L 332.2,254.2 L 337.4,251.7 L 342.5,249.2 L 347.7,246.6 L 352.8,244.0 L 357.9,241.3 L 363.1,238.4 L 368.2,235.5 L 373.4,232.5 L 378.5,229.4 L 383.6,226.2 L 388.8,222.9 L 393.9,219.6 L 399.1,216.2 L 404.2,213.0 L 409.4,209.8 L 414.5,206.8 L 419.6,204.0 L 424.8,201.5 L 429.9,199.1 L 435.1,196.9 L 440.2,194.9 L 445.3,193.0 L 450.5,191.3 L 455.6,189.7 L 460.8,188.2 L 465.9,186.9 L 471.1,185.7 L 476.2,184.5 L 481.3,183.5 L 486.5,182.5 L 491.6,181.6 L 496.8,180.8 L 501.9,180.0 L 507.0,179.3 L 512.2,178.7 L 517.3,178.0 L 522.5,177.5 L 527.6,176.9 L 532.8,176.4 L 537.9,175.9 L 543.0,175.4 L 548.2,174.9 L 553.3,174.4 L 558.5,173.8 L 563.6,173.2 L 568.7,172.6 L 573.9,171.8 L 579.0,171.0 L 584.2,170.0 L 589.3,168.8 L 594.4,167.5 L 599.6,165.9 L 604.7,164.1 L 609.9,162.0 L 615.0,159.7 L 620.2,157.3 L 625.3,155.2 L 630.4,153.5 L 635.6,152.9 L 640.7,153.7 L 645.9,156.1 L 651.0,160.3 L 656.1,165.9 L 661.3,172.5 L 666.4,179.7 L 671.6,187.0 L 676.7,194.0 L 681.9,200.8 L 687.0,207.0" class="fw"/>
<line x1="116.93" y1="354.69" x2="116.93" y2="380.49" class="err"/>
<line x1="113.93" y1="354.69" x2="119.93" y2="354.69" class="err"/>
<line x1="113.93" y1="380.49" x2="119.93" y2="380.49" class="err"/>
<circle cx="116.93" cy="367.59" r="2.5" class="obs"/>
<line x1="146.97" y1="337.98" x2="146.97" y2="363.78" class="err"/>
<line x1="143.97" y1="337.98" x2="149.97" y2="337.98" class="err"/>
<line x1="143.97" y1="363.78" x2="149.97" y2="363.78" class="err"/>
<circle cx="146.97" cy="350.88" r="2.5" class="obs"/>
<line x1="177.01" y1="320.44" x2="177.01" y2="346.24" class="err"/>
<line x1="174.01" y1="320.44" x2="180.01" y2="320.44" class="err"/>
<line x1="174.01" y1="346.24" x2="180.01" y2="346.24" class="err"/>
<circle cx="177.01" cy="333.34" r="2.5" class="obs"/>
<line x1="208.93" y1="302.76" x2="208.93" y2="328.56" class="err"/>
<line x1="205.93" y1="302.76" x2="211.93" y2="302.76" class="err"/>
<line x1="205.93" y1="328.56" x2="211.93" y2="328.56" class="err"/>
<circle cx="208.93" cy="315.66" r="2.5" class="obs"/>
<line x1="238.96" y1="284.70" x2="238.96" y2="310.50" class="err"/>
<line x1="235.96" y1="284.70" x2="241.96" y2="284.70" class="err"/>
<line x1="235.96" y1="310.50" x2="241.96" y2="310.50" class="err"/>
<circle cx="238.96" cy="297.60" r="2.5" class="obs"/>
<line x1="270.88" y1="269.22" x2="270.88" y2="295.02" class="err"/>
<line x1="267.88" y1="269.22" x2="273.88" y2="269.22" class="err"/>
<line x1="267.88" y1="295.02" x2="273.88" y2="295.02" class="err"/>
<circle cx="270.88" cy="282.12" r="2.5" class="obs"/>
<line x1="302.79" y1="255.03" x2="302.79" y2="280.83" class="err"/>
<line x1="299.79" y1="255.03" x2="305.79" y2="255.03" class="err"/>
<line x1="299.79" y1="280.83" x2="305.79" y2="280.83" class="err"/>
<circle cx="302.79" cy="267.93" r="2.5" class="obs"/>
<line x1="332.83" y1="241.49" x2="332.83" y2="267.29" class="err"/>
<line x1="329.83" y1="241.49" x2="335.83" y2="241.49" class="err"/>
<line x1="329.83" y1="267.29" x2="335.83" y2="267.29" class="err"/>
<circle cx="332.83" cy="254.39" r="2.5" class="obs"/>
<line x1="364.75" y1="224.72" x2="364.75" y2="250.52" class="err"/>
<line x1="361.75" y1="224.72" x2="367.75" y2="224.72" class="err"/>
<line x1="361.75" y1="250.52" x2="367.75" y2="250.52" class="err"/>
<circle cx="364.75" cy="237.62" r="2.5" class="obs"/>
<line x1="392.91" y1="206.01" x2="392.91" y2="231.81" class="err"/>
<line x1="389.91" y1="206.01" x2="395.91" y2="206.01" class="err"/>
<line x1="389.91" y1="231.81" x2="395.91" y2="231.81" class="err"/>
<circle cx="392.91" cy="218.91" r="2.5" class="obs"/>
<line x1="424.82" y1="186.66" x2="424.82" y2="212.46" class="err"/>
<line x1="421.82" y1="186.66" x2="427.82" y2="186.66" class="err"/>
<line x1="421.82" y1="212.46" x2="427.82" y2="212.46" class="err"/>
<circle cx="424.82" cy="199.56" r="2.5" class="obs"/>
<line x1="456.74" y1="171.83" x2="456.74" y2="197.63" class="err"/>
<line x1="453.74" y1="171.83" x2="459.74" y2="171.83" class="err"/>
<line x1="453.74" y1="197.63" x2="459.74" y2="197.63" class="err"/>
<circle cx="456.74" cy="184.73" r="2.5" class="obs"/>
<line x1="531.83" y1="167.31" x2="531.83" y2="193.11" class="err"/>
<line x1="528.83" y1="167.31" x2="534.83" y2="167.31" class="err"/>
<line x1="528.83" y1="193.11" x2="534.83" y2="193.11" class="err"/>
<circle cx="531.83" cy="180.21" r="2.5" class="obs"/>
<line x1="593.79" y1="158.93" x2="593.79" y2="184.73" class="err"/>
<line x1="590.79" y1="158.93" x2="596.79" y2="158.93" class="err"/>
<line x1="590.79" y1="184.73" x2="596.79" y2="184.73" class="err"/>
<circle cx="593.79" cy="171.83" r="2.5" class="obs"/>
<line x1="657.62" y1="161.51" x2="657.62" y2="187.31" class="err"/>
<line x1="654.62" y1="161.51" x2="660.62" y2="161.51" class="err"/>
<line x1="654.62" y1="187.31" x2="660.62" y2="187.31" class="err"/>
<circle cx="657.62" cy="174.41" r="2.5" class="obs"/>
<g class="legend">
<line x1="82" y1="69" x2="106" y2="69" class="fw"/>
<text x="112" y="73" class="lbl-l">framework: 0.4 km/s, 1.9%, 0.21σ</text>
<line x1="82" y1="87" x2="106" y2="87" class="nt"/>
<text x="112" y="91" class="lbl-l">Newtonian: 4.1 km/s, 48.5%, 2.04σ</text>
<line x1="82" y1="105" x2="106" y2="105" class="mond"/>
<text x="112" y="109" class="lbl-m">MOND/RAR: 10.8 km/s, 63.7%, 5.42σ</text>
<circle cx="94" cy="123" r="2.5" class="obs"/>
<text x="112" y="127" class="lbl">observed V±err</text>
</g>
<g class="legend">
<line x1="472" y1="69" x2="496" y2="69" class="rho"/>
<text x="502" y="73" class="lbl-r">ρ(r) raw</text>
<line x1="472" y1="87" x2="496" y2="87" class="phot"/>
<text x="502" y="91" class="lbl-p">photometric baryonic profile</text>
<line x1="472" y1="105" x2="496" y2="105" class="mbar"/>
<text x="502" y="109" class="lbl-m">MOND baryonic annulus</text>
<line x1="472" y1="123" x2="496" y2="123" class="mph"/>
<text x="502" y="127" class="lbl-m">MOND phantom annulus</text>
<text x="472" y="147" class="lbl-r">ρ peak: 32 M☉/pc²</text>
<text x="472" y="163" class="lbl-p">phot peak: 4.34 (arb.)</text>
<text x="472" y="179" class="lbl-m">Σbar peak: 15.41 M☉/pc²</text>
<text x="472" y="195" class="lbl-m">Σphantom peak: 58.47 M☉/pc²</text>
</g>
<rect x="775" y="55" width="170" height="170" class="preview-bg"/>
<defs><radialGradient id="g_KK98_251" cx="0.5" cy="0.5" r="0.5">
  <stop offset="0.0000" stop-color="rgb(93,23,23)"/>
  <stop offset="0.0313" stop-color="rgb(93,23,23)"/>
  <stop offset="0.0625" stop-color="rgb(92,23,23)"/>
  <stop offset="0.0938" stop-color="rgb(92,23,23)"/>
  <stop offset="0.1250" stop-color="rgb(92,23,23)"/>
  <stop offset="0.1563" stop-color="rgb(92,23,23)"/>
  <stop offset="0.1875" stop-color="rgb(92,23,23)"/>
  <stop offset="0.2188" stop-color="rgb(92,23,23)"/>
  <stop offset="0.2500" stop-color="rgb(91,23,23)"/>
  <stop offset="0.2813" stop-color="rgb(91,23,23)"/>
  <stop offset="0.3125" stop-color="rgb(90,23,23)"/>
  <stop offset="0.3438" stop-color="rgb(90,23,23)"/>
  <stop offset="0.3750" stop-color="rgb(90,23,23)"/>
  <stop offset="0.4063" stop-color="rgb(89,22,22)"/>
  <stop offset="0.4375" stop-color="rgb(89,22,22)"/>
  <stop offset="0.4688" stop-color="rgb(88,22,22)"/>
  <stop offset="0.5000" stop-color="rgb(88,22,22)"/>
  <stop offset="0.5313" stop-color="rgb(87,22,22)"/>
  <stop offset="0.5625" stop-color="rgb(87,22,22)"/>
  <stop offset="0.5938" stop-color="rgb(86,22,22)"/>
  <stop offset="0.6250" stop-color="rgb(85,21,21)"/>
  <stop offset="0.6563" stop-color="rgb(83,21,21)"/>
  <stop offset="0.6875" stop-color="rgb(82,21,21)"/>
  <stop offset="0.7188" stop-color="rgb(81,20,20)"/>
  <stop offset="0.7500" stop-color="rgb(80,20,20)"/>
  <stop offset="0.7813" stop-color="rgb(79,20,20)"/>
  <stop offset="0.8125" stop-color="rgb(78,20,20)"/>
  <stop offset="0.8438" stop-color="rgb(77,19,19)"/>
  <stop offset="0.8750" stop-color="rgb(75,19,19)"/>
  <stop offset="0.9063" stop-color="rgb(74,19,19)"/>
  <stop offset="0.9375" stop-color="rgb(73,18,18)"/>
  <stop offset="0.9688" stop-color="rgb(70,18,18)"/>
  <stop offset="1.0000" stop-color="rgb(0,0,0)"/>
</radialGradient></defs>
<circle cx="860" cy="140" r="81" fill="url(#g_KK98_251)"/>
<text x="860" y="49" text-anchor="middle" class="preview-lbl">face-on luminance from ρ(r)</text>
<text x="860" y="239" text-anchor="middle" class="preview-lbl">edge at r = 3.1 kpc</text>
</svg>