<svg xmlns="http://www.w3.org/2000/svg" viewBox="0 0 890 420" width="890" height="420" font-family="sans-serif" font-size="12">
<style>
  .ax { stroke: #333; stroke-width: 1; fill: none; }
  .grid { stroke: #ddd; stroke-width: 0.5; fill: none; }
  .lbl { fill: #333; }
  .lbl-l { fill: #0066cc; }
  .lbl-r { fill: #b03030; }
  .obs { fill: #222; }
  .err { stroke: #555; stroke-width: 0.8; fill: none; }
  .fw { stroke: #0066cc; stroke-width: 2.2; fill: none; }
  .nt { stroke: #cc6600; stroke-width: 1.6; fill: none; stroke-dasharray: 5,3; }
  .lbl-s { fill: #cc7000; }
  .rho { stroke: #b03030; stroke-width: 2.0; fill: none; }
  .sig { stroke: #cc7000; stroke-width: 1.8; fill: none; }
  .title { fill: #111; font-size: 16px; font-weight: 600; }
  .subtitle { fill: #555; font-size: 11px; }
  .preview-bg { fill: #000; }
  .preview-lbl { fill: #888; font-size: 10px; }
  .legend { font-size: 11px; }
</style>
<text x="343.5" y="22" text-anchor="middle" class="title">MilkyWay</text>
<text x="343.5" y="38" text-anchor="middle" class="subtitle">rMax=24.0 kpc, N=21, RMS=4.7 km/s (2.2%), amp=313</text>
<line x1="70" y1="365.0" x2="617" y2="365.0" class="grid"/>
<text x="64" y="369.0" text-anchor="end" class="lbl-l">0</text>
<line x1="70" y1="303.0" x2="617" y2="303.0" class="grid"/>
<text x="64" y="307.0" text-anchor="end" class="lbl-l">59</text>
<line x1="70" y1="241.0" x2="617" y2="241.0" class="grid"/>
<text x="64" y="245.0" text-anchor="end" class="lbl-l">118</text>
<line x1="70" y1="179.0" x2="617" y2="179.0" class="grid"/>
<text x="64" y="183.0" text-anchor="end" class="lbl-l">178</text>
<line x1="70" y1="117.0" x2="617" y2="117.0" class="grid"/>
<text x="64" y="121.0" text-anchor="end" class="lbl-l">237</text>
<line x1="70" y1="55.0" x2="617" y2="55.0" class="grid"/>
<text x="64" y="59.0" text-anchor="end" class="lbl-l">296</text>
<text x="623" y="369.0" text-anchor="start" class="lbl-r">0.0</text>
<text x="623" y="327.7" text-anchor="start" class="lbl-r">0.2</text>
<text x="623" y="286.3" text-anchor="start" class="lbl-r">0.4</text>
<text x="623" y="245.0" text-anchor="start" class="lbl-r">0.6</text>
<text x="623" y="203.7" text-anchor="start" class="lbl-r">0.8</text>
<text x="623" y="162.3" text-anchor="start" class="lbl-r">1.0</text>
<line x1="70.0" y1="55" x2="70.0" y2="365" class="grid"/>
<text x="70.0" y="381" text-anchor="middle" class="lbl">0.0</text>
<line x1="161.2" y1="55" x2="161.2" y2="365" class="grid"/>
<text x="161.2" y="381" text-anchor="middle" class="lbl">4.8</text>
<line x1="252.3" y1="55" x2="252.3" y2="365" class="grid"/>
<text x="252.3" y="381" text-anchor="middle" class="lbl">9.6</text>
<line x1="343.5" y1="55" x2="343.5" y2="365" class="grid"/>
<text x="343.5" y="381" text-anchor="middle" class="lbl">14.3</text>
<line x1="434.7" y1="55" x2="434.7" y2="365" class="grid"/>
<text x="434.7" y="381" text-anchor="middle" class="lbl">19.1</text>
<line x1="525.8" y1="55" x2="525.8" y2="365" class="grid"/>
<text x="525.8" y="381" text-anchor="middle" class="lbl">23.9</text>
<line x1="617.0" y1="55" x2="617.0" y2="365" class="grid"/>
<text x="617.0" y="381" text-anchor="middle" class="lbl">28.7</text>
<text x="343.5" y="408" text-anchor="middle" class="lbl">radius (kpc)</text>
<text x="16" y="210" text-anchor="middle" class="lbl-l" transform="rotate(-90, 16, 210)">velocity (km/s)</text>
<text x="874" y="210" text-anchor="middle" class="lbl-r" transform="rotate(-90, 874, 210)">mass profile (normalized to peak)</text>
<rect x="70" y="55" width="547" height="310" class="ax"/>
<path d="M 70.0,158.3 L 72.5,158.9 L 75.0,159.5 L 77.5,160.0 L 80.0,160.6 L 82.5,161.2 L 85.0,161.8 L 87.5,162.3 L 90.0,162.9 L 92.5,163.5 L 95.0,164.1 L 97.5,164.6 L 100.0,165.2 L 102.5,165.8 L 105.0,166.3 L 107.5,166.9 L 110.0,167.5 L 112.5,182.3 L 115.0,199.3 L 117.5,216.3 L 120.0,233.2 L 122.5,248.5 L 124.9,249.5 L 127.4,250.5 L 129.9,251.6 L 132.4,252.6 L 134.9,253.6 L 137.4,254.6 L 139.9,255.7 L 142.4,256.7 L 144.9,257.7 L 147.4,258.7 L 149.9,259.8 L 152.4,260.8 L 154.9,261.8 L 157.4,262.8 L 159.9,263.9 L 162.4,264.9 L 164.9,265.9 L 167.4,266.9 L 169.9,268.0 L 172.4,269.0 L 174.9,270.0 L 177.4,271.0 L 179.9,272.0 L 182.4,273.1 L 184.9,274.1 L 187.4,275.1 L 189.9,276.1 L 192.4,277.2 L 194.9,278.2 L 197.4,279.2 L 199.9,280.2 L 202.4,281.3 L 204.9,282.3 L 207.4,283.3 L 209.9,284.3 L 212.4,285.4 L 214.9,286.4 L 217.4,287.4 L 219.9,287.8 L 222.4,288.2 L 224.9,288.5 L 227.4,288.9 L 229.9,289.3 L 232.4,289.7 L 234.8,290.0 L 237.3,290.4 L 239.8,290.8 L 242.3,291.1 L 244.8,291.5 L 247.3,291.9 L 249.8,292.2 L 252.3,292.6 L 254.8,293.0 L 257.3,293.4 L 259.8,293.7 L 262.3,294.1 L 264.8,294.5 L 267.3,294.8 L 269.8,295.2 L 272.3,295.6 L 274.8,296.0 L 277.3,296.3 L 279.8,296.7 L 282.3,297.1 L 284.8,297.4 L 287.3,297.8 L 289.8,298.2 L 292.3,298.6 L 294.8,298.9 L 297.3,299.3 L 299.8,299.7 L 302.3,300.0 L 304.8,300.4 L 307.3,300.8 L 309.8,301.1 L 312.3,301.5 L 314.8,301.9 L 317.3,302.3 L 319.8,302.6 L 322.3,303.0 L 324.8,303.4 L 327.3,303.7 L 329.8,304.1 L 332.3,304.5 L 334.8,304.9 L 337.3,305.2 L 339.8,305.6 L 342.3,306.0 L 344.7,306.3 L 347.2,306.7 L 349.7,307.1 L 352.2,307.5 L 354.7,307.8 L 357.2,308.2 L 359.7,308.6 L 362.2,308.9 L 364.7,309.3 L 367.2,309.7 L 369.7,310.0 L 372.2,310.4 L 374.7,310.8 L 377.2,311.2 L 379.7,311.5 L 382.2,311.9 L 384.7,312.3 L 387.2,312.6 L 389.7,313.0 L 392.2,313.4 L 394.7,313.8 L 397.2,314.1 L 399.7,314.5 L 402.2,314.9 L 404.7,315.2 L 407.2,315.6 L 409.7,316.0 L 412.2,316.4 L 414.7,316.7 L 417.2,317.1 L 419.7,317.5 L 422.2,317.8 L 424.7,318.2 L 427.2,318.6 L 429.7,319.0 L 432.2,319.3 L 434.7,319.7 L 437.2,320.1 L 439.7,320.4 L 442.2,320.8 L 444.7,321.2 L 447.2,321.5 L 449.7,321.9 L 452.2,322.3 L 454.6,322.7 L 457.1,323.0 L 459.6,323.4 L 462.1,323.8 L 464.6,324.1 L 467.1,324.5 L 469.6,324.9 L 472.1,325.3 L 474.6,325.6 L 477.1,326.0 L 479.6,326.4 L 482.1,326.7 L 484.6,327.1 L 487.1,327.5 L 489.6,327.9 L 492.1,328.2 L 494.6,328.6 L 497.1,329.0 L 499.6,329.3 L 502.1,329.7 L 504.6,330.1 L 507.1,330.4 L 509.6,330.8 L 512.1,331.2 L 514.6,331.6 L 517.1,331.9 L 519.6,332.3 L 522.1,332.7 L 524.6,333.0 L 527.1,333.4 L 529.6,333.8 L 532.1,334.2 L 534.6,334.5 L 537.1,334.9 L 539.6,335.3 L 542.1,335.6 L 544.6,336.0 L 547.1,336.4 L 549.6,336.8 L 552.1,337.1 L 554.6,337.5 L 557.1,337.9 L 559.6,338.2 L 562.1,338.6 L 564.5,339.0 L 567.0,339.3 L 569.5,339.7 L 572.0,340.1 L 574.5,340.5 L 577.0,340.8 L 579.5,341.2 L 582.0,341.6 L 584.5,341.9 L 587.0,345.5 L 589.5,357.9 L 592.0,365.0 L 594.5,365.0 L 597.0,365.0 L 599.5,365.0 L 602.0,365.0 L 604.5,365.0 L 607.0,365.0 L 609.5,365.0 L 612.0,365.0 L 614.5,365.0 L 617.0,365.0" class="rho"/>
<path d="M 70.0,158.3 L 72.5,158.6 L 75.0,159.0 L 77.5,159.5 L 80.0,160.3 L 82.5,161.4 L 85.0,162.6 L 87.5,164.1 L 90.0,165.7 L 92.5,167.7 L 95.0,169.8 L 97.5,172.3 L 100.0,174.9 L 102.5,177.9 L 105.0,181.0 L 107.5,184.4 L 110.0,188.1 L 112.5,191.9 L 115.0,195.8 L 117.5,199.7 L 120.0,203.5 L 122.5,207.3 L 124.9,210.8 L 127.4,214.2 L 129.9,217.5 L 132.4,220.5 L 134.9,223.4 L 137.4,226.1 L 139.9,228.7 L 142.4,231.1 L 144.9,233.5 L 147.4,235.8 L 149.9,238.0 L 152.4,240.1 L 154.9,242.2 L 157.4,244.2 L 159.9,246.1 L 162.4,248.0 L 164.9,249.9 L 167.4,251.7 L 169.9,253.4 L 172.4,255.2 L 174.9,256.9 L 177.4,258.5 L 179.9,260.1 L 182.4,261.7 L 184.9,263.3 L 187.4,264.8 L 189.9,266.3 L 192.4,267.7 L 194.9,269.2 L 197.4,270.6 L 199.9,272.0 L 202.4,273.3 L 204.9,274.6 L 207.4,275.9 L 209.9,277.2 L 212.4,278.4 L 214.9,279.6 L 217.4,280.8 L 219.9,281.9 L 222.4,283.0 L 224.9,284.1 L 227.4,285.2 L 229.9,286.2 L 232.4,287.2 L 234.8,288.2 L 237.3,289.2 L 239.8,290.2 L 242.3,291.1 L 244.8,292.0 L 247.3,292.9 L 249.8,293.8 L 252.3,294.7 L 254.8,295.5 L 257.3,296.4 L 259.8,297.2 L 262.3,298.0 L 264.8,298.8 L 267.3,299.6 L 269.8,300.4 L 272.3,301.2 L 274.8,302.0 L 277.3,302.7 L 279.8,303.5 L 282.3,304.2 L 284.8,304.9 L 287.3,305.6 L 289.8,306.3 L 292.3,307.0 L 294.8,307.7 L 297.3,308.4 L 299.8,309.1 L 302.3,309.8 L 304.8,310.4 L 307.3,311.1 L 309.8,311.7 L 312.3,312.4 L 314.8,313.0 L 317.3,313.6 L 319.8,314.3 L 322.3,314.9 L 324.8,315.5 L 327.3,316.1 L 329.8,316.7 L 332.3,317.3 L 334.8,317.8 L 337.3,318.4 L 339.8,319.0 L 342.3,319.6 L 344.7,320.1 L 347.2,320.7 L 349.7,321.2 L 352.2,321.8 L 354.7,322.3 L 357.2,322.8 L 359.7,323.4 L 362.2,323.9 L 364.7,324.4 L 367.2,324.9 L 369.7,325.4 L 372.2,325.9 L 374.7,326.4 L 377.2,326.9 L 379.7,327.4 L 382.2,327.9 L 384.7,328.4 L 387.2,328.8 L 389.7,329.3 L 392.2,329.8 L 394.7,330.2 L 397.2,330.7 L 399.7,331.1 L 402.2,331.6 L 404.7,332.0 L 407.2,332.5 L 409.7,332.9 L 412.2,333.3 L 414.7,333.8 L 417.2,334.2 L 419.7,334.6 L 422.2,335.0 L 424.7,335.4 L 427.2,335.8 L 429.7,336.2 L 432.2,336.6 L 434.7,337.0 L 437.2,337.4 L 439.7,337.8 L 442.2,338.1 L 444.7,338.5 L 447.2,338.9 L 449.7,339.3 L 452.2,339.6 L 454.6,340.0 L 457.1,340.3 L 459.6,340.7 L 462.1,341.0 L 464.6,341.4 L 467.1,341.7 L 469.6,342.0 L 472.1,342.4 L 474.6,342.7 L 477.1,343.0 L 479.6,343.3 L 482.1,343.6 L 484.6,344.0 L 487.1,344.3 L 489.6,344.6 L 492.1,344.9 L 494.6,345.2 L 497.1,345.5 L 499.6,345.7 L 502.1,346.0 L 504.6,346.3 L 507.1,346.6 L 509.6,346.9 L 512.1,347.1 L 514.6,347.4 L 517.1,347.7 L 519.6,347.9 L 522.1,348.2 L 524.6,348.4 L 527.1,348.7 L 529.6,348.9 L 532.1,349.2 L 534.6,349.4 L 537.1,349.7 L 539.6,349.9 L 542.1,350.1 L 544.6,350.4 L 547.1,350.6 L 549.6,350.8 L 552.1,351.1 L 554.6,351.3 L 557.1,351.5 L 559.6,351.7 L 562.1,351.9 L 564.5,352.1 L 567.0,352.3 L 569.5,352.6 L 572.0,352.8 L 574.5,353.0 L 577.0,353.2 L 579.5,353.4 L 582.0,353.6 L 584.5,353.8 L 587.0,354.0 L 589.5,354.2 L 592.0,354.3 L 594.5,354.5 L 597.0,354.7 L 599.5,354.9 L 602.0,355.0 L 604.5,355.2 L 607.0,355.3 L 609.5,355.5 L 612.0,355.6 L 614.5,355.8 L 617.0,355.9" class="sig"/>
<path d="M 75.5,306.2 L 80.9,282.0 L 86.4,263.6 L 91.9,248.1 L 97.3,234.6 L 102.8,222.4 L 108.3,211.3 L 113.8,201.8 L 119.2,195.9 L 124.7,192.9 L 130.2,190.1 L 135.6,187.1 L 141.1,184.0 L 146.6,180.8 L 152.1,177.7 L 157.5,174.6 L 163.0,171.6 L 168.5,168.6 L 173.9,165.8 L 179.4,163.0 L 184.9,160.4 L 190.3,157.8 L 195.8,155.4 L 201.3,153.1 L 206.8,150.9 L 212.2,148.8 L 217.7,146.8 L 223.2,144.9 L 228.6,143.0 L 234.1,141.1 L 239.6,139.2 L 245.0,137.3 L 250.5,135.5 L 256.0,133.6 L 261.4,131.8 L 266.9,130.1 L 272.4,128.3 L 277.9,126.6 L 283.3,124.9 L 288.8,123.3 L 294.3,121.6 L 299.7,120.1 L 305.2,118.5 L 310.7,117.0 L 316.1,115.5 L 321.6,114.1 L 327.1,112.7 L 332.6,111.3 L 338.0,109.9 L 343.5,108.6 L 349.0,107.4 L 354.4,106.1 L 359.9,104.9 L 365.4,103.7 L 370.8,102.6 L 376.3,101.5 L 381.8,100.4 L 387.3,99.4 L 392.7,98.4 L 398.2,97.4 L 403.7,96.5 L 409.1,95.6 L 414.6,94.7 L 420.1,93.9 L 425.6,93.1 L 431.0,92.3 L 436.5,91.5 L 442.0,90.8 L 447.4,90.2 L 452.9,89.5 L 458.4,88.9 L 463.8,88.3 L 469.3,87.8 L 474.8,87.2 L 480.3,86.7 L 485.7,86.3 L 491.2,85.9 L 496.7,85.5 L 502.1,85.1 L 507.6,84.8 L 513.1,84.5 L 518.5,84.2 L 524.0,84.0 L 529.5,83.8 L 535.0,83.6 L 540.4,83.4 L 545.9,83.3 L 551.4,83.2 L 556.8,83.2 L 562.3,83.2 L 567.8,83.2 L 573.2,83.2 L 578.7,83.3 L 584.2,83.4 L 589.7,83.8 L 595.1,85.2 L 600.6,86.7 L 606.1,88.1 L 611.5,89.5 L 617.0,90.9" class="nt"/>
<path d="M 74.6,337.2 L 79.1,314.4 L 83.7,289.7 L 88.2,264.5 L 92.8,238.9 L 97.3,212.7 L 101.9,186.2 L 106.5,160.6 L 111.0,138.6 L 115.6,122.2 L 120.1,113.8 L 124.7,111.7 L 129.3,113.7 L 133.8,117.0 L 138.4,120.1 L 142.9,122.2 L 147.5,123.5 L 152.1,124.2 L 156.6,124.4 L 161.2,124.2 L 165.7,123.8 L 170.3,123.2 L 174.8,122.7 L 179.4,122.1 L 184.0,121.6 L 188.5,121.2 L 193.1,121.1 L 197.6,121.2 L 202.2,121.6 L 206.8,122.4 L 211.3,123.6 L 215.9,125.2 L 220.4,127.0 L 225.0,128.7 L 229.5,130.2 L 234.1,131.6 L 238.7,132.7 L 243.2,133.6 L 247.8,134.3 L 252.3,135.0 L 256.9,135.5 L 261.5,135.9 L 266.0,136.2 L 270.6,136.5 L 275.1,136.7 L 279.7,136.9 L 284.2,137.0 L 288.8,137.1 L 293.4,137.2 L 297.9,137.3 L 302.5,137.4 L 307.0,137.5 L 311.6,137.5 L 316.1,137.6 L 320.7,137.7 L 325.3,137.8 L 329.8,137.9 L 334.4,138.0 L 338.9,138.1 L 343.5,138.3 L 348.1,138.5 L 352.6,138.6 L 357.2,138.9 L 361.7,139.1 L 366.3,139.4 L 370.9,139.7 L 375.4,140.0 L 380.0,140.4 L 384.5,140.7 L 389.1,141.2 L 393.6,141.6 L 398.2,142.1 L 402.8,142.6 L 407.3,143.2 L 411.9,143.7 L 416.4,144.4 L 421.0,145.0 L 425.6,145.7 L 430.1,146.4 L 434.7,147.2 L 439.2,148.0 L 443.8,148.8 L 448.3,149.6 L 452.9,150.5 L 457.5,151.5 L 462.0,152.4 L 466.6,153.4 L 471.1,154.4 L 475.7,155.5 L 480.3,156.6 L 484.8,157.7 L 489.4,158.9 L 493.9,160.0 L 498.5,161.2 L 503.0,162.5 L 507.6,163.7 L 512.2,165.0 L 516.7,166.3 L 521.3,167.6 L 525.8,168.9 L 530.4,170.1 L 535.0,171.4 L 539.5,172.6 L 544.1,173.8 L 548.6,174.9 L 553.2,175.9 L 557.7,176.8 L 562.3,177.5 L 566.9,178.0 L 571.4,178.4 L 576.0,178.8 L 580.5,179.6 L 585.1,181.2 L 589.7,184.0 L 594.2,188.0 L 598.8,192.9 L 603.3,198.1 L 607.9,203.2 L 612.4,208.0 L 617.0,212.4" class="fw"/>
<line x1="146.30" y1="115.90" x2="146.30" y2="132.64" class="err"/>
<line x1="143.30" y1="115.90" x2="149.30" y2="115.90" class="err"/>
<line x1="143.30" y1="132.64" x2="149.30" y2="132.64" class="err"/>
<circle cx="146.30" cy="124.27" r="2.5" class="obs"/>
<line x1="165.37" y1="115.90" x2="165.37" y2="128.46" class="err"/>
<line x1="162.37" y1="115.90" x2="168.37" y2="115.90" class="err"/>
<line x1="162.37" y1="128.46" x2="168.37" y2="128.46" class="err"/>
<circle cx="165.37" cy="122.18" r="2.5" class="obs"/>
<line x1="184.44" y1="120.08" x2="184.44" y2="130.55" class="err"/>
<line x1="181.44" y1="120.08" x2="187.44" y2="120.08" class="err"/>
<line x1="181.44" y1="130.55" x2="187.44" y2="130.55" class="err"/>
<circle cx="184.44" cy="125.32" r="2.5" class="obs"/>
<line x1="203.52" y1="122.18" x2="203.52" y2="130.55" class="err"/>
<line x1="200.52" y1="122.18" x2="206.52" y2="122.18" class="err"/>
<line x1="200.52" y1="130.55" x2="206.52" y2="130.55" class="err"/>
<circle cx="203.52" cy="126.36" r="2.5" class="obs"/>
<line x1="222.59" y1="121.13" x2="222.59" y2="129.50" class="err"/>
<line x1="219.59" y1="121.13" x2="225.59" y2="121.13" class="err"/>
<line x1="219.59" y1="129.50" x2="225.59" y2="129.50" class="err"/>
<circle cx="222.59" cy="125.32" r="2.5" class="obs"/>
<line x1="232.13" y1="122.18" x2="232.13" y2="128.46" class="err"/>
<line x1="229.13" y1="122.18" x2="235.13" y2="122.18" class="err"/>
<line x1="229.13" y1="128.46" x2="235.13" y2="128.46" class="err"/>
<circle cx="232.13" cy="125.32" r="2.5" class="obs"/>
<line x1="241.67" y1="123.22" x2="241.67" y2="129.50" class="err"/>
<line x1="238.67" y1="123.22" x2="244.67" y2="123.22" class="err"/>
<line x1="238.67" y1="129.50" x2="244.67" y2="129.50" class="err"/>
<circle cx="241.67" cy="126.36" r="2.5" class="obs"/>
<line x1="260.74" y1="123.22" x2="260.74" y2="131.60" class="err"/>
<line x1="257.74" y1="123.22" x2="263.74" y2="123.22" class="err"/>
<line x1="257.74" y1="131.60" x2="263.74" y2="131.60" class="err"/>
<circle cx="260.74" cy="127.41" r="2.5" class="obs"/>
<line x1="279.82" y1="124.27" x2="279.82" y2="132.64" class="err"/>
<line x1="276.82" y1="124.27" x2="282.82" y2="124.27" class="err"/>
<line x1="276.82" y1="132.64" x2="282.82" y2="132.64" class="err"/>
<circle cx="279.82" cy="128.46" r="2.5" class="obs"/>
<line x1="298.89" y1="124.27" x2="298.89" y2="134.74" class="err"/>
<line x1="295.89" y1="124.27" x2="301.89" y2="124.27" class="err"/>
<line x1="295.89" y1="134.74" x2="301.89" y2="134.74" class="err"/>
<circle cx="298.89" cy="129.50" r="2.5" class="obs"/>
<line x1="317.96" y1="125.32" x2="317.96" y2="135.78" class="err"/>
<line x1="314.96" y1="125.32" x2="320.96" y2="125.32" class="err"/>
<line x1="314.96" y1="135.78" x2="320.96" y2="135.78" class="err"/>
<circle cx="317.96" cy="130.55" r="2.5" class="obs"/>
<line x1="337.04" y1="126.36" x2="337.04" y2="138.92" class="err"/>
<line x1="334.04" y1="126.36" x2="340.04" y2="126.36" class="err"/>
<line x1="334.04" y1="138.92" x2="340.04" y2="138.92" class="err"/>
<circle cx="337.04" cy="132.64" r="2.5" class="obs"/>
<line x1="356.11" y1="128.46" x2="356.11" y2="141.02" class="err"/>
<line x1="353.11" y1="128.46" x2="359.11" y2="128.46" class="err"/>
<line x1="353.11" y1="141.02" x2="359.11" y2="141.02" class="err"/>
<circle cx="356.11" cy="134.74" r="2.5" class="obs"/>
<line x1="375.19" y1="129.50" x2="375.19" y2="144.16" class="err"/>
<line x1="372.19" y1="129.50" x2="378.19" y2="129.50" class="err"/>
<line x1="372.19" y1="144.16" x2="378.19" y2="144.16" class="err"/>
<circle cx="375.19" cy="136.83" r="2.5" class="obs"/>
<line x1="394.26" y1="132.64" x2="394.26" y2="147.30" class="err"/>
<line x1="391.26" y1="132.64" x2="397.26" y2="132.64" class="err"/>
<line x1="391.26" y1="147.30" x2="397.26" y2="147.30" class="err"/>
<circle cx="394.26" cy="139.97" r="2.5" class="obs"/>
<line x1="413.33" y1="133.69" x2="413.33" y2="150.44" class="err"/>
<line x1="410.33" y1="133.69" x2="416.33" y2="133.69" class="err"/>
<line x1="410.33" y1="150.44" x2="416.33" y2="150.44" class="err"/>
<circle cx="413.33" cy="142.06" r="2.5" class="obs"/>
<line x1="432.41" y1="136.83" x2="432.41" y2="153.58" class="err"/>
<line x1="429.41" y1="136.83" x2="435.41" y2="136.83" class="err"/>
<line x1="429.41" y1="153.58" x2="435.41" y2="153.58" class="err"/>
<circle cx="432.41" cy="145.20" r="2.5" class="obs"/>
<line x1="461.02" y1="138.92" x2="461.02" y2="159.86" class="err"/>
<line x1="458.02" y1="138.92" x2="464.02" y2="138.92" class="err"/>
<line x1="458.02" y1="159.86" x2="464.02" y2="159.86" class="err"/>
<circle cx="461.02" cy="149.39" r="2.5" class="obs"/>
<line x1="489.63" y1="144.16" x2="489.63" y2="167.18" class="err"/>
<line x1="486.63" y1="144.16" x2="492.63" y2="144.16" class="err"/>
<line x1="486.63" y1="167.18" x2="492.63" y2="167.18" class="err"/>
<circle cx="489.63" cy="155.67" r="2.5" class="obs"/>
<line x1="527.78" y1="151.48" x2="527.78" y2="176.60" class="err"/>
<line x1="524.78" y1="151.48" x2="530.78" y2="151.48" class="err"/>
<line x1="524.78" y1="176.60" x2="530.78" y2="176.60" class="err"/>
<circle cx="527.78" cy="164.04" r="2.5" class="obs"/>
<line x1="565.93" y1="158.81" x2="565.93" y2="188.12" class="err"/>
<line x1="562.93" y1="158.81" x2="568.93" y2="158.81" class="err"/>
<line x1="562.93" y1="188.12" x2="568.93" y2="188.12" class="err"/>
<circle cx="565.93" cy="173.46" r="2.5" class="obs"/>
<g class="legend">
<line x1="82" y1="69" x2="106" y2="69" class="fw"/>
<text x="112" y="73" class="lbl-l">framework fit</text>
<line x1="82" y1="87" x2="106" y2="87" class="nt"/>
<text x="112" y="91" class="lbl-l">Newtonian (no halo)</text>
<circle cx="94" cy="105" r="2.5" class="obs"/>
<text x="112" y="109" class="lbl">observed V±err</text>
</g>
<g class="legend">
<line x1="442" y1="69" x2="466" y2="69" class="rho"/>
<text x="472" y="73" class="lbl-r">ρ(r) raw</text>
<line x1="442" y1="87" x2="466" y2="87" class="sig"/>
<text x="472" y="91" class="lbl-s">Σ(r) cumulative</text>
<text x="442" y="113" class="lbl-r">ρ peak: 818 M☉/pc²</text>
</g>
<rect x="705" y="55" width="170" height="170" class="preview-bg"/>
<defs><radialGradient id="g_MilkyWay" cx="0.5" cy="0.5" r="0.5">
  <stop offset="0.0000" stop-color="rgb(255,255,255)"/>
  <stop offset="0.0313" stop-color="rgb(255,255,255)"/>
  <stop offset="0.0625" stop-color="rgb(252,252,252)"/>
  <stop offset="0.0938" stop-color="rgb(187,187,187)"/>
  <stop offset="0.1250" stop-color="rgb(157,157,157)"/>
  <stop offset="0.1563" stop-color="rgb(150,150,150)"/>
  <stop offset="0.1875" stop-color="rgb(142,142,142)"/>
  <stop offset="0.2188" stop-color="rgb(135,135,135)"/>
  <stop offset="0.2500" stop-color="rgb(128,128,128)"/>
  <stop offset="0.2813" stop-color="rgb(121,121,121)"/>
  <stop offset="0.3125" stop-color="rgb(118,118,118)"/>
  <stop offset="0.3438" stop-color="rgb(115,115,115)"/>
  <stop offset="0.3750" stop-color="rgb(113,113,113)"/>
  <stop offset="0.4063" stop-color="rgb(110,110,110)"/>
  <stop offset="0.4375" stop-color="rgb(107,107,107)"/>
  <stop offset="0.4688" stop-color="rgb(105,105,105)"/>
  <stop offset="0.5000" stop-color="rgb(102,102,102)"/>
  <stop offset="0.5313" stop-color="rgb(100,100,100)"/>
  <stop offset="0.5625" stop-color="rgb(97,97,97)"/>
  <stop offset="0.5938" stop-color="rgb(94,94,94)"/>
  <stop offset="0.6250" stop-color="rgb(92,92,92)"/>
  <stop offset="0.6563" stop-color="rgb(89,89,89)"/>
  <stop offset="0.6875" stop-color="rgb(86,86,86)"/>
  <stop offset="0.7188" stop-color="rgb(84,84,84)"/>
  <stop offset="0.7500" stop-color="rgb(81,81,81)"/>
  <stop offset="0.7813" stop-color="rgb(79,79,79)"/>
  <stop offset="0.8125" stop-color="rgb(76,76,76)"/>
  <stop offset="0.8438" stop-color="rgb(73,73,73)"/>
  <stop offset="0.8750" stop-color="rgb(71,71,71)"/>
  <stop offset="0.9063" stop-color="rgb(68,68,68)"/>
  <stop offset="0.9375" stop-color="rgb(66,66,66)"/>
  <stop offset="0.9688" stop-color="rgb(62,62,62)"/>
  <stop offset="1.0000" stop-color="rgb(0,0,0)"/>
</radialGradient></defs>
<circle cx="790" cy="140" r="81" fill="url(#g_MilkyWay)"/>
<text x="790" y="49" text-anchor="middle" class="preview-lbl">face-on luminance from ρ(r)</text>
<text x="790" y="239" text-anchor="middle" class="preview-lbl">edge at r = 27.3 kpc</text>
</svg>