<svg xmlns="http://www.w3.org/2000/svg" viewBox="0 0 960 450" width="960" height="450" font-family="sans-serif" font-size="12">
<style>
  .ax { stroke: #333; stroke-width: 1; fill: none; }
  .grid { stroke: #ddd; stroke-width: 0.5; fill: none; }
  .lbl { fill: #333; }
  .lbl-l { fill: #0066cc; }
  .lbl-r { fill: #b03030; }
  .obs { fill: #222; }
  .err { stroke: #555; stroke-width: 0.8; fill: none; }
  .fw { stroke: #0066cc; stroke-width: 2.2; fill: none; }
  .nt { stroke: #cc6600; stroke-width: 1.6; fill: none; stroke-dasharray: 5,3; }
  .mond { stroke: #7b2cbf; stroke-width: 1.8; fill: none; stroke-dasharray: 7,3; }
  .lbl-p { fill: #cc7000; }
  .lbl-m { fill: #7b2cbf; }
  .rho { stroke: #b03030; stroke-width: 2.0; fill: none; }
  .phot { stroke: #cc7000; stroke-width: 1.8; fill: none; }
  .mbar { stroke: #8e44ad; stroke-width: 1.8; fill: none; opacity: 0.9; }
  .mph { stroke: #c77dff; stroke-width: 1.6; fill: none; stroke-dasharray: 4,3; opacity: 0.95; }
  .title { fill: #111; font-size: 16px; font-weight: 600; }
  .subtitle { fill: #555; font-size: 11px; }
  .preview-bg { fill: #000; }
  .preview-lbl { fill: #888; font-size: 10px; }
  .legend { font-size: 11px; }
</style>
<text x="378.5" y="22" text-anchor="middle" class="title">MilkyWay</text>
<text x="378.5" y="38" text-anchor="middle" class="subtitle">rMax=28.0 kpc, N=21, FW=29.6 km/s, 13.0%, 5.91σ, MOND=218.8 km/s, 100.0%, 43.75σ, amp=1267</text>
<line x1="70" y1="395.0" x2="687" y2="395.0" class="grid"/>
<text x="64" y="399.0" text-anchor="end" class="lbl-l">0</text>
<line x1="70" y1="327.0" x2="687" y2="327.0" class="grid"/>
<text x="64" y="331.0" text-anchor="end" class="lbl-l">66</text>
<line x1="70" y1="259.0" x2="687" y2="259.0" class="grid"/>
<text x="64" y="263.0" text-anchor="end" class="lbl-l">133</text>
<line x1="70" y1="191.0" x2="687" y2="191.0" class="grid"/>
<text x="64" y="195.0" text-anchor="end" class="lbl-l">199</text>
<line x1="70" y1="123.0" x2="687" y2="123.0" class="grid"/>
<text x="64" y="127.0" text-anchor="end" class="lbl-l">266</text>
<line x1="70" y1="55.0" x2="687" y2="55.0" class="grid"/>
<text x="64" y="59.0" text-anchor="end" class="lbl-l">332</text>
<text x="693" y="399.0" text-anchor="start" class="lbl-r">0.0</text>
<text x="693" y="353.7" text-anchor="start" class="lbl-r">0.2</text>
<text x="693" y="308.3" text-anchor="start" class="lbl-r">0.4</text>
<text x="693" y="263.0" text-anchor="start" class="lbl-r">0.6</text>
<text x="693" y="217.7" text-anchor="start" class="lbl-r">0.8</text>
<text x="693" y="172.3" text-anchor="start" class="lbl-r">1.0</text>
<line x1="70.0" y1="55" x2="70.0" y2="395" class="grid"/>
<text x="70.0" y="411" text-anchor="middle" class="lbl">0.0</text>
<line x1="172.8" y1="55" x2="172.8" y2="395" class="grid"/>
<text x="172.8" y="411" text-anchor="middle" class="lbl">4.9</text>
<line x1="275.7" y1="55" x2="275.7" y2="395" class="grid"/>
<text x="275.7" y="411" text-anchor="middle" class="lbl">9.8</text>
<line x1="378.5" y1="55" x2="378.5" y2="395" class="grid"/>
<text x="378.5" y="411" text-anchor="middle" class="lbl">14.7</text>
<line x1="481.3" y1="55" x2="481.3" y2="395" class="grid"/>
<text x="481.3" y="411" text-anchor="middle" class="lbl">19.6</text>
<line x1="584.2" y1="55" x2="584.2" y2="395" class="grid"/>
<text x="584.2" y="411" text-anchor="middle" class="lbl">24.5</text>
<line x1="687.0" y1="55" x2="687.0" y2="395" class="grid"/>
<text x="687.0" y="411" text-anchor="middle" class="lbl">29.4</text>
<text x="378.5" y="438" text-anchor="middle" class="lbl">radius (kpc)</text>
<text x="16" y="225" text-anchor="middle" class="lbl-l" transform="rotate(-90, 16, 225)">velocity (km/s)</text>
<text x="724" y="225" text-anchor="middle" class="lbl-r" transform="rotate(-90, 724, 225)">profiles (normalized to peak)</text>
<rect x="70" y="55" width="617" height="340" class="ax"/>
<path d="M 70.0,168.3 L 72.8,202.9 L 75.6,237.5 L 78.5,272.1 L 81.3,306.8 L 84.1,320.6 L 86.9,330.1 L 89.7,339.6 L 92.5,349.1 L 95.4,358.7 L 98.2,368.2 L 101.0,372.3 L 103.8,372.5 L 106.6,372.6 L 109.4,372.8 L 112.3,372.9 L 115.1,373.0 L 117.9,373.2 L 120.7,373.3 L 123.5,373.4 L 126.3,373.6 L 129.2,373.7 L 132.0,373.8 L 134.8,374.0 L 137.6,374.1 L 140.4,374.2 L 143.3,374.4 L 146.1,374.5 L 148.9,374.6 L 151.7,374.8 L 154.5,374.9 L 157.3,375.0 L 160.2,375.2 L 163.0,375.3 L 165.8,375.5 L 168.6,375.6 L 171.4,375.7 L 174.2,375.9 L 177.1,376.0 L 179.9,376.1 L 182.7,376.3 L 185.5,376.4 L 188.3,376.5 L 191.1,376.7 L 194.0,376.8 L 196.8,376.9 L 199.6,377.1 L 202.4,377.2 L 205.2,377.3 L 208.1,377.5 L 210.9,377.6 L 213.7,377.7 L 216.5,377.9 L 219.3,378.0 L 222.1,378.2 L 225.0,378.3 L 227.8,378.4 L 230.6,378.6 L 233.4,378.7 L 236.2,378.8 L 239.0,379.0 L 241.9,379.1 L 244.7,379.1 L 247.5,379.2 L 250.3,379.3 L 253.1,379.4 L 255.9,379.4 L 258.8,379.5 L 261.6,379.6 L 264.4,379.6 L 267.2,379.7 L 270.0,379.8 L 272.8,379.9 L 275.7,379.9 L 278.5,380.0 L 281.3,380.1 L 284.1,380.2 L 286.9,380.2 L 289.8,380.3 L 292.6,380.4 L 295.4,380.4 L 298.2,380.5 L 301.0,380.6 L 303.8,380.7 L 306.7,380.7 L 309.5,380.8 L 312.3,380.9 L 315.1,380.9 L 317.9,381.0 L 320.7,381.1 L 323.6,381.2 L 326.4,381.2 L 329.2,381.3 L 332.0,381.4 L 334.8,381.5 L 337.6,381.5 L 340.5,381.6 L 343.3,381.7 L 346.1,381.7 L 348.9,381.8 L 351.7,381.9 L 354.6,382.0 L 357.4,382.0 L 360.2,382.1 L 363.0,382.2 L 365.8,382.2 L 368.6,382.3 L 371.5,382.4 L 374.3,382.5 L 377.1,382.5 L 379.9,382.6 L 382.7,382.7 L 385.5,382.8 L 388.4,382.8 L 391.2,382.9 L 394.0,383.0 L 396.8,383.0 L 399.6,383.1 L 402.4,383.2 L 405.3,383.3 L 408.1,383.3 L 410.9,383.4 L 413.7,383.5 L 416.5,383.6 L 419.4,383.6 L 422.2,383.7 L 425.0,383.8 L 427.8,383.8 L 430.6,383.9 L 433.4,384.0 L 436.3,384.1 L 439.1,384.1 L 441.9,384.2 L 444.7,384.3 L 447.5,384.3 L 450.3,384.4 L 453.2,384.5 L 456.0,384.6 L 458.8,384.6 L 461.6,384.7 L 464.4,384.8 L 467.2,384.9 L 470.1,384.9 L 472.9,385.0 L 475.7,385.1 L 478.5,385.1 L 481.3,385.2 L 484.2,385.3 L 487.0,385.4 L 489.8,385.4 L 492.6,385.5 L 495.4,385.6 L 498.2,385.7 L 501.1,385.7 L 503.9,385.8 L 506.7,385.9 L 509.5,385.9 L 512.3,386.0 L 515.1,386.1 L 518.0,386.2 L 520.8,386.2 L 523.6,386.3 L 526.4,386.4 L 529.2,386.4 L 532.0,386.5 L 534.9,386.6 L 537.7,386.7 L 540.5,386.7 L 543.3,386.8 L 546.1,386.9 L 548.9,387.0 L 551.8,387.0 L 554.6,387.1 L 557.4,387.2 L 560.2,387.2 L 563.0,387.3 L 565.9,387.4 L 568.7,387.5 L 571.5,387.5 L 574.3,387.6 L 577.1,387.7 L 579.9,387.7 L 582.8,387.8 L 585.6,387.9 L 588.4,388.0 L 591.2,388.0 L 594.0,388.1 L 596.8,388.2 L 599.7,388.3 L 602.5,388.3 L 605.3,388.4 L 608.1,388.5 L 610.9,388.5 L 613.7,388.6 L 616.6,388.7 L 619.4,388.8 L 622.2,388.8 L 625.0,388.9 L 627.8,389.0 L 630.7,389.1 L 633.5,389.1 L 636.3,389.2 L 639.1,389.3 L 641.9,389.3 L 644.7,389.4 L 647.6,389.7 L 650.4,391.2 L 653.2,392.7 L 656.0,394.2 L 658.8,395.0 L 661.6,395.0 L 664.5,395.0 L 667.3,395.0 L 670.1,395.0 L 672.9,395.0 L 675.7,395.0 L 678.5,395.0 L 681.4,395.0 L 684.2,395.0 L 687.0,395.0" class="rho"/>
<path d="M 153.9,168.3 L 174.9,212.7 L 195.9,256.0 L 216.9,289.1 L 237.9,311.7 L 248.4,318.4 L 258.9,327.5 L 279.9,339.1 L 300.9,349.4 L 321.8,358.0 L 342.8,365.4 L 363.8,371.6 L 384.8,376.5 L 405.8,381.4 L 426.8,384.5 L 447.8,387.2 L 468.7,389.3 L 500.2,391.3 L 531.7,392.8 L 573.7,393.9 L 615.6,394.5" class="phot"/>
<path d="M 153.9,395.0 L 174.9,395.0 L 195.9,395.0 L 216.9,395.0 L 237.9,395.0 L 248.4,395.0 L 258.9,395.0 L 279.9,395.0 L 300.9,395.0 L 321.8,395.0 L 342.8,395.0 L 363.8,395.0 L 384.8,395.0 L 405.8,395.0 L 426.8,395.0 L 447.8,395.0 L 468.7,395.0 L 500.2,395.0 L 531.7,395.0 L 573.7,395.0 L 615.6,395.0" class="mbar"/>
<path d="M 76.2,275.7 L 82.3,252.4 L 88.5,243.7 L 94.7,240.0 L 100.8,242.2 L 107.0,244.0 L 113.2,243.8 L 119.4,242.2 L 125.5,239.9 L 131.7,237.2 L 137.9,234.1 L 144.0,230.8 L 150.2,227.5 L 156.4,224.2 L 162.6,220.8 L 168.7,217.5 L 174.9,214.2 L 181.1,211.0 L 187.2,207.9 L 193.4,204.9 L 199.6,201.9 L 205.7,199.1 L 211.9,196.3 L 218.1,193.6 L 224.2,191.0 L 230.4,188.5 L 236.6,186.1 L 242.8,183.7 L 248.9,181.4 L 255.1,179.2 L 261.3,177.0 L 267.4,174.8 L 273.6,172.6 L 279.8,170.5 L 285.9,168.5 L 292.1,166.4 L 298.3,164.5 L 304.5,162.5 L 310.6,160.6 L 316.8,158.8 L 323.0,156.9 L 329.1,155.2 L 335.3,153.4 L 341.5,151.7 L 347.6,150.1 L 353.8,148.4 L 360.0,146.9 L 366.2,145.3 L 372.3,143.8 L 378.5,142.4 L 384.7,140.9 L 390.8,139.5 L 397.0,138.2 L 403.2,136.9 L 409.4,135.6 L 415.5,134.3 L 421.7,133.1 L 427.9,131.9 L 434.0,130.8 L 440.2,129.7 L 446.4,128.6 L 452.5,127.6 L 458.7,126.6 L 464.9,125.6 L 471.1,124.7 L 477.2,123.8 L 483.4,122.9 L 489.6,122.0 L 495.7,121.2 L 501.9,120.4 L 508.1,119.7 L 514.2,119.0 L 520.4,118.3 L 526.6,117.6 L 532.8,117.0 L 538.9,116.4 L 545.1,115.9 L 551.3,115.3 L 557.4,114.8 L 563.6,114.3 L 569.8,113.9 L 575.9,113.5 L 582.1,113.1 L 588.3,112.8 L 594.4,112.4 L 600.6,112.2 L 606.8,111.9 L 613.0,111.7 L 619.1,111.5 L 625.3,111.3 L 631.5,111.2 L 637.6,111.0 L 643.8,111.0 L 650.0,111.0 L 656.1,111.8 L 662.3,113.3 L 668.5,114.7 L 674.7,116.1 L 680.8,117.6 L 687.0,119.0" class="nt"/>
<path d="M 153.9,395.0 L 174.9,395.0 L 195.9,395.0 L 216.9,395.0 L 237.9,395.0 L 248.4,395.0 L 258.9,395.0 L 279.9,395.0 L 300.9,395.0 L 321.8,395.0 L 342.8,395.0 L 363.8,395.0 L 384.8,395.0 L 405.8,395.0 L 426.8,395.0 L 447.8,395.0 L 468.7,395.0 L 500.2,395.0 L 531.7,395.0 L 573.7,395.0 L 615.6,395.0" class="mond"/>
<path d="M 75.1,225.2 L 80.3,123.7 L 85.4,41.6 L 90.6,-6.5 L 95.7,-26.6 L 100.8,-26.7 L 106.0,-15.7 L 111.1,-0.5 L 116.3,15.7 L 121.4,30.8 L 126.6,43.4 L 131.7,54.7 L 136.8,63.8 L 142.0,71.7 L 147.1,78.5 L 152.3,84.1 L 157.4,89.1 L 162.6,93.1 L 167.7,96.8 L 172.8,99.9 L 178.0,102.6 L 183.1,105.1 L 188.3,107.2 L 193.4,109.2 L 198.5,111.0 L 203.7,112.7 L 208.8,114.4 L 214.0,116.2 L 219.1,118.0 L 224.3,119.9 L 229.4,122.0 L 234.5,124.2 L 239.7,126.6 L 244.8,129.0 L 250.0,131.3 L 255.1,133.4 L 260.2,135.4 L 265.4,137.1 L 270.5,138.7 L 275.7,140.0 L 280.8,141.2 L 286.0,142.3 L 291.1,143.3 L 296.2,144.2 L 301.4,145.1 L 306.5,145.8 L 311.7,146.5 L 316.8,147.2 L 321.9,147.8 L 327.1,148.4 L 332.2,149.0 L 337.4,149.5 L 342.5,150.1 L 347.6,150.6 L 352.8,151.1 L 357.9,151.7 L 363.1,152.2 L 368.2,152.7 L 373.4,153.2 L 378.5,153.8 L 383.6,154.3 L 388.8,154.9 L 393.9,155.5 L 399.1,156.1 L 404.2,156.7 L 409.4,157.3 L 414.5,158.0 L 419.6,158.7 L 424.8,159.4 L 429.9,160.1 L 435.1,160.9 L 440.2,161.6 L 445.3,162.4 L 450.5,163.3 L 455.6,164.1 L 460.8,165.0 L 465.9,165.9 L 471.1,166.9 L 476.2,167.8 L 481.3,168.8 L 486.5,169.9 L 491.6,170.9 L 496.8,172.0 L 501.9,173.1 L 507.0,174.2 L 512.2,175.4 L 517.3,176.6 L 522.5,177.8 L 527.6,179.0 L 532.8,180.3 L 537.9,181.6 L 543.0,182.8 L 548.2,184.2 L 553.3,185.5 L 558.5,186.8 L 563.6,188.2 L 568.7,189.5 L 573.9,190.8 L 579.0,192.1 L 584.2,193.4 L 589.3,194.6 L 594.4,195.8 L 599.6,196.9 L 604.7,197.8 L 609.9,198.6 L 615.0,199.1 L 620.2,199.3 L 625.3,199.2 L 630.4,198.9 L 635.6,198.5 L 640.7,198.7 L 645.9,199.9 L 651.0,202.8 L 656.2,207.2 L 661.3,213.0 L 666.4,219.4 L 671.6,225.8 L 676.7,231.7 L 681.9,237.1 L 687.0,241.8" class="fw"/>
<line x1="153.95" y1="151.59" x2="153.95" y2="167.95" class="err"/>
<line x1="150.95" y1="151.59" x2="156.95" y2="151.59" class="err"/>
<line x1="150.95" y1="167.95" x2="156.95" y2="167.95" class="err"/>
<circle cx="153.95" cy="159.77" r="2.5" class="obs"/>
<line x1="174.93" y1="151.59" x2="174.93" y2="163.86" class="err"/>
<line x1="171.93" y1="151.59" x2="177.93" y2="151.59" class="err"/>
<line x1="171.93" y1="163.86" x2="177.93" y2="163.86" class="err"/>
<circle cx="174.93" cy="157.73" r="2.5" class="obs"/>
<line x1="195.92" y1="155.68" x2="195.92" y2="165.91" class="err"/>
<line x1="192.92" y1="155.68" x2="198.92" y2="155.68" class="err"/>
<line x1="192.92" y1="165.91" x2="198.92" y2="165.91" class="err"/>
<circle cx="195.92" cy="160.79" r="2.5" class="obs"/>
<line x1="216.90" y1="157.73" x2="216.90" y2="165.91" class="err"/>
<line x1="213.90" y1="157.73" x2="219.90" y2="157.73" class="err"/>
<line x1="213.90" y1="165.91" x2="219.90" y2="165.91" class="err"/>
<circle cx="216.90" cy="161.82" r="2.5" class="obs"/>
<line x1="237.89" y1="156.70" x2="237.89" y2="164.88" class="err"/>
<line x1="234.89" y1="156.70" x2="240.89" y2="156.70" class="err"/>
<line x1="234.89" y1="164.88" x2="240.89" y2="164.88" class="err"/>
<circle cx="237.89" cy="160.79" r="2.5" class="obs"/>
<line x1="248.38" y1="157.73" x2="248.38" y2="163.86" class="err"/>
<line x1="245.38" y1="157.73" x2="251.38" y2="157.73" class="err"/>
<line x1="245.38" y1="163.86" x2="251.38" y2="163.86" class="err"/>
<circle cx="248.38" cy="160.79" r="2.5" class="obs"/>
<line x1="258.88" y1="158.75" x2="258.88" y2="164.88" class="err"/>
<line x1="255.88" y1="158.75" x2="261.88" y2="158.75" class="err"/>
<line x1="255.88" y1="164.88" x2="261.88" y2="164.88" class="err"/>
<circle cx="258.88" cy="161.82" r="2.5" class="obs"/>
<line x1="279.86" y1="158.75" x2="279.86" y2="166.93" class="err"/>
<line x1="276.86" y1="158.75" x2="282.86" y2="158.75" class="err"/>
<line x1="276.86" y1="166.93" x2="282.86" y2="166.93" class="err"/>
<circle cx="279.86" cy="162.84" r="2.5" class="obs"/>
<line x1="300.85" y1="159.77" x2="300.85" y2="167.95" class="err"/>
<line x1="297.85" y1="159.77" x2="303.85" y2="159.77" class="err"/>
<line x1="297.85" y1="167.95" x2="303.85" y2="167.95" class="err"/>
<circle cx="300.85" cy="163.86" r="2.5" class="obs"/>
<line x1="321.84" y1="159.77" x2="321.84" y2="170.00" class="err"/>
<line x1="318.84" y1="159.77" x2="324.84" y2="159.77" class="err"/>
<line x1="318.84" y1="170.00" x2="324.84" y2="170.00" class="err"/>
<circle cx="321.84" cy="164.88" r="2.5" class="obs"/>
<line x1="342.82" y1="160.79" x2="342.82" y2="171.02" class="err"/>
<line x1="339.82" y1="160.79" x2="345.82" y2="160.79" class="err"/>
<line x1="339.82" y1="171.02" x2="345.82" y2="171.02" class="err"/>
<circle cx="342.82" cy="165.91" r="2.5" class="obs"/>
<line x1="363.81" y1="161.82" x2="363.81" y2="174.09" class="err"/>
<line x1="360.81" y1="161.82" x2="366.81" y2="161.82" class="err"/>
<line x1="360.81" y1="174.09" x2="366.81" y2="174.09" class="err"/>
<circle cx="363.81" cy="167.95" r="2.5" class="obs"/>
<line x1="384.80" y1="163.86" x2="384.80" y2="176.13" class="err"/>
<line x1="381.80" y1="163.86" x2="387.80" y2="163.86" class="err"/>
<line x1="381.80" y1="176.13" x2="387.80" y2="176.13" class="err"/>
<circle cx="384.80" cy="170.00" r="2.5" class="obs"/>
<line x1="405.78" y1="164.88" x2="405.78" y2="179.20" class="err"/>
<line x1="402.78" y1="164.88" x2="408.78" y2="164.88" class="err"/>
<line x1="402.78" y1="179.20" x2="408.78" y2="179.20" class="err"/>
<circle cx="405.78" cy="172.04" r="2.5" class="obs"/>
<line x1="426.77" y1="167.95" x2="426.77" y2="182.27" class="err"/>
<line x1="423.77" y1="167.95" x2="429.77" y2="167.95" class="err"/>
<line x1="423.77" y1="182.27" x2="429.77" y2="182.27" class="err"/>
<circle cx="426.77" cy="175.11" r="2.5" class="obs"/>
<line x1="447.76" y1="168.98" x2="447.76" y2="185.34" class="err"/>
<line x1="444.76" y1="168.98" x2="450.76" y2="168.98" class="err"/>
<line x1="444.76" y1="185.34" x2="450.76" y2="185.34" class="err"/>
<circle cx="447.76" cy="177.16" r="2.5" class="obs"/>
<line x1="468.74" y1="172.04" x2="468.74" y2="188.41" class="err"/>
<line x1="465.74" y1="172.04" x2="471.74" y2="172.04" class="err"/>
<line x1="465.74" y1="188.41" x2="471.74" y2="188.41" class="err"/>
<circle cx="468.74" cy="180.23" r="2.5" class="obs"/>
<line x1="500.22" y1="174.09" x2="500.22" y2="194.54" class="err"/>
<line x1="497.22" y1="174.09" x2="503.22" y2="174.09" class="err"/>
<line x1="497.22" y1="194.54" x2="503.22" y2="194.54" class="err"/>
<circle cx="500.22" cy="184.32" r="2.5" class="obs"/>
<line x1="531.70" y1="179.20" x2="531.70" y2="201.70" class="err"/>
<line x1="528.70" y1="179.20" x2="534.70" y2="179.20" class="err"/>
<line x1="528.70" y1="201.70" x2="534.70" y2="201.70" class="err"/>
<circle cx="531.70" cy="190.45" r="2.5" class="obs"/>
<line x1="573.67" y1="186.36" x2="573.67" y2="210.91" class="err"/>
<line x1="570.67" y1="186.36" x2="576.67" y2="186.36" class="err"/>
<line x1="570.67" y1="210.91" x2="576.67" y2="210.91" class="err"/>
<circle cx="573.67" cy="198.64" r="2.5" class="obs"/>
<line x1="615.65" y1="193.52" x2="615.65" y2="222.16" class="err"/>
<line x1="612.65" y1="193.52" x2="618.65" y2="193.52" class="err"/>
<line x1="612.65" y1="222.16" x2="618.65" y2="222.16" class="err"/>
<circle cx="615.65" cy="207.84" r="2.5" class="obs"/>
<g class="legend">
<line x1="82" y1="69" x2="106" y2="69" class="fw"/>
<text x="112" y="73" class="lbl-l">framework: 29.6 km/s, 13.0%, 5.91σ</text>
<line x1="82" y1="87" x2="106" y2="87" class="nt"/>
<text x="112" y="91" class="lbl-l">Newtonian: 46.7 km/s, 22.8%, 6.01σ</text>
<line x1="82" y1="105" x2="106" y2="105" class="mond"/>
<text x="112" y="109" class="lbl-m">MOND/RAR: 218.8 km/s, 100.0%, 43.75σ</text>
<circle cx="94" cy="123" r="2.5" class="obs"/>
<text x="112" y="127" class="lbl">observed V±err</text>
</g>
<g class="legend">
<line x1="472" y1="69" x2="496" y2="69" class="rho"/>
<text x="502" y="73" class="lbl-r">ρ(r) raw</text>
<line x1="472" y1="87" x2="496" y2="87" class="phot"/>
<text x="502" y="91" class="lbl-p">photometric baryonic profile</text>
<line x1="472" y1="105" x2="496" y2="105" class="mbar"/>
<text x="502" y="109" class="lbl-m">MOND baryonic annulus</text>
<line x1="472" y1="123" x2="496" y2="123" class="mph"/>
<text x="502" y="127" class="lbl-m">MOND phantom annulus</text>
<text x="472" y="147" class="lbl-r">ρ peak: 4408 M☉/pc²</text>
<text x="472" y="163" class="lbl-p">phot peak: 0.92 (arb.)</text>
</g>
<rect x="775" y="55" width="170" height="170" class="preview-bg"/>
<defs><radialGradient id="g_MilkyWay" cx="0.5" cy="0.5" r="0.5">
  <stop offset="0.0000" stop-color="rgb(255,255,255)"/>
  <stop offset="0.0313" stop-color="rgb(255,255,255)"/>
  <stop offset="0.0625" stop-color="rgb(155,155,155)"/>
  <stop offset="0.0938" stop-color="rgb(151,151,151)"/>
  <stop offset="0.1250" stop-color="rgb(146,146,146)"/>
  <stop offset="0.1563" stop-color="rgb(141,141,141)"/>
  <stop offset="0.1875" stop-color="rgb(137,137,137)"/>
  <stop offset="0.2188" stop-color="rgb(132,132,132)"/>
  <stop offset="0.2500" stop-color="rgb(127,127,127)"/>
  <stop offset="0.2813" stop-color="rgb(123,123,123)"/>
  <stop offset="0.3125" stop-color="rgb(119,119,119)"/>
  <stop offset="0.3438" stop-color="rgb(117,117,117)"/>
  <stop offset="0.3750" stop-color="rgb(114,114,114)"/>
  <stop offset="0.4063" stop-color="rgb(112,112,112)"/>
  <stop offset="0.4375" stop-color="rgb(109,109,109)"/>
  <stop offset="0.4688" stop-color="rgb(107,107,107)"/>
  <stop offset="0.5000" stop-color="rgb(104,104,104)"/>
  <stop offset="0.5313" stop-color="rgb(102,102,102)"/>
  <stop offset="0.5625" stop-color="rgb(99,99,99)"/>
  <stop offset="0.5938" stop-color="rgb(97,97,97)"/>
  <stop offset="0.6250" stop-color="rgb(94,94,94)"/>
  <stop offset="0.6563" stop-color="rgb(92,92,92)"/>
  <stop offset="0.6875" stop-color="rgb(89,89,89)"/>
  <stop offset="0.7188" stop-color="rgb(87,87,87)"/>
  <stop offset="0.7500" stop-color="rgb(84,84,84)"/>
  <stop offset="0.7813" stop-color="rgb(82,82,82)"/>
  <stop offset="0.8125" stop-color="rgb(79,79,79)"/>
  <stop offset="0.8438" stop-color="rgb(77,77,77)"/>
  <stop offset="0.8750" stop-color="rgb(74,74,74)"/>
  <stop offset="0.9063" stop-color="rgb(72,72,72)"/>
  <stop offset="0.9375" stop-color="rgb(69,69,69)"/>
  <stop offset="0.9688" stop-color="rgb(67,67,67)"/>
  <stop offset="1.0000" stop-color="rgb(0,0,0)"/>
</radialGradient></defs>
<circle cx="860" cy="140" r="81" fill="url(#g_MilkyWay)"/>
<text x="860" y="49" text-anchor="middle" class="preview-lbl">face-on luminance from ρ(r)</text>
<text x="860" y="239" text-anchor="middle" class="preview-lbl">edge at r = 28.0 kpc</text>
</svg>