<svg xmlns="http://www.w3.org/2000/svg" viewBox="0 0 890 420" width="890" height="420" font-family="sans-serif" font-size="12">
<style>
  .ax { stroke: #333; stroke-width: 1; fill: none; }
  .grid { stroke: #ddd; stroke-width: 0.5; fill: none; }
  .lbl { fill: #333; }
  .lbl-l { fill: #0066cc; }
  .lbl-r { fill: #b03030; }
  .obs { fill: #222; }
  .err { stroke: #555; stroke-width: 0.8; fill: none; }
  .fw { stroke: #0066cc; stroke-width: 2.2; fill: none; }
  .nt { stroke: #cc6600; stroke-width: 1.6; fill: none; stroke-dasharray: 5,3; }
  .lbl-s { fill: #cc7000; }
  .rho { stroke: #b03030; stroke-width: 2.0; fill: none; }
  .sig { stroke: #cc7000; stroke-width: 1.8; fill: none; }
  .title { fill: #111; font-size: 16px; font-weight: 600; }
  .subtitle { fill: #555; font-size: 11px; }
  .preview-bg { fill: #000; }
  .preview-lbl { fill: #888; font-size: 10px; }
  .legend { font-size: 11px; }
</style>
<text x="343.5" y="22" text-anchor="middle" class="title">NGC0300</text>
<text x="343.5" y="38" text-anchor="middle" class="subtitle">rMax=11.8 kpc, N=25, RMS=2.0 km/s (2.5%), amp=104</text>
<line x1="70" y1="365.0" x2="617" y2="365.0" class="grid"/>
<text x="64" y="369.0" text-anchor="end" class="lbl-l">0</text>
<line x1="70" y1="303.0" x2="617" y2="303.0" class="grid"/>
<text x="64" y="307.0" text-anchor="end" class="lbl-l">23</text>
<line x1="70" y1="241.0" x2="617" y2="241.0" class="grid"/>
<text x="64" y="245.0" text-anchor="end" class="lbl-l">47</text>
<line x1="70" y1="179.0" x2="617" y2="179.0" class="grid"/>
<text x="64" y="183.0" text-anchor="end" class="lbl-l">70</text>
<line x1="70" y1="117.0" x2="617" y2="117.0" class="grid"/>
<text x="64" y="121.0" text-anchor="end" class="lbl-l">94</text>
<line x1="70" y1="55.0" x2="617" y2="55.0" class="grid"/>
<text x="64" y="59.0" text-anchor="end" class="lbl-l">117</text>
<text x="623" y="369.0" text-anchor="start" class="lbl-r">0.0</text>
<text x="623" y="327.7" text-anchor="start" class="lbl-r">0.2</text>
<text x="623" y="286.3" text-anchor="start" class="lbl-r">0.4</text>
<text x="623" y="245.0" text-anchor="start" class="lbl-r">0.6</text>
<text x="623" y="203.7" text-anchor="start" class="lbl-r">0.8</text>
<text x="623" y="162.3" text-anchor="start" class="lbl-r">1.0</text>
<line x1="70.0" y1="55" x2="70.0" y2="365" class="grid"/>
<text x="70.0" y="381" text-anchor="middle" class="lbl">0.0</text>
<line x1="161.2" y1="55" x2="161.2" y2="365" class="grid"/>
<text x="161.2" y="381" text-anchor="middle" class="lbl">2.4</text>
<line x1="252.3" y1="55" x2="252.3" y2="365" class="grid"/>
<text x="252.3" y="381" text-anchor="middle" class="lbl">4.7</text>
<line x1="343.5" y1="55" x2="343.5" y2="365" class="grid"/>
<text x="343.5" y="381" text-anchor="middle" class="lbl">7.1</text>
<line x1="434.7" y1="55" x2="434.7" y2="365" class="grid"/>
<text x="434.7" y="381" text-anchor="middle" class="lbl">9.4</text>
<line x1="525.8" y1="55" x2="525.8" y2="365" class="grid"/>
<text x="525.8" y="381" text-anchor="middle" class="lbl">11.8</text>
<line x1="617.0" y1="55" x2="617.0" y2="365" class="grid"/>
<text x="617.0" y="381" text-anchor="middle" class="lbl">14.2</text>
<text x="343.5" y="408" text-anchor="middle" class="lbl">radius (kpc)</text>
<text x="16" y="210" text-anchor="middle" class="lbl-l" transform="rotate(-90, 16, 210)">velocity (km/s)</text>
<text x="654" y="210" text-anchor="middle" class="lbl-r" transform="rotate(-90, 654, 210)">mass profile (normalized to peak)</text>
<rect x="70" y="55" width="547" height="310" class="ax"/>
<path d="M 70.0,158.3 L 72.5,160.7 L 75.0,163.0 L 77.5,165.4 L 80.0,167.7 L 82.5,170.1 L 85.0,172.4 L 87.5,174.8 L 90.0,177.1 L 92.5,179.5 L 95.0,181.8 L 97.5,184.2 L 100.0,186.5 L 102.5,188.9 L 105.0,191.2 L 107.5,193.6 L 110.0,195.9 L 112.5,198.3 L 115.0,200.6 L 117.5,203.0 L 120.0,205.3 L 122.5,207.6 L 124.9,210.0 L 127.4,212.3 L 129.9,214.7 L 132.4,217.0 L 134.9,219.4 L 137.4,221.1 L 139.9,221.5 L 142.4,221.8 L 144.9,222.1 L 147.4,222.4 L 149.9,222.7 L 152.4,223.0 L 154.9,223.3 L 157.4,223.6 L 159.9,223.9 L 162.4,224.2 L 164.9,224.5 L 167.4,224.8 L 169.9,225.1 L 172.4,225.4 L 174.9,225.8 L 177.4,226.1 L 179.9,226.4 L 182.4,226.7 L 184.9,227.0 L 187.4,227.3 L 189.9,227.6 L 192.4,227.9 L 194.9,228.2 L 197.4,228.5 L 199.9,228.8 L 202.4,230.3 L 204.9,234.0 L 207.4,237.7 L 209.9,241.4 L 212.4,245.1 L 214.9,248.8 L 217.4,250.3 L 219.9,250.8 L 222.4,251.3 L 224.9,251.8 L 227.4,252.3 L 229.9,252.7 L 232.4,253.2 L 234.8,253.7 L 237.3,254.2 L 239.8,254.7 L 242.3,255.2 L 244.8,255.6 L 247.3,256.1 L 249.8,256.6 L 252.3,257.1 L 254.8,257.6 L 257.3,258.1 L 259.8,258.5 L 262.3,259.0 L 264.8,259.5 L 267.3,260.0 L 269.8,260.5 L 272.3,261.0 L 274.8,261.4 L 277.3,261.9 L 279.8,262.4 L 282.3,262.9 L 284.8,263.4 L 287.3,263.9 L 289.8,264.3 L 292.3,264.8 L 294.8,265.3 L 297.3,265.8 L 299.8,266.3 L 302.3,266.8 L 304.8,267.2 L 307.3,267.7 L 309.8,268.2 L 312.3,268.7 L 314.8,269.2 L 317.3,269.7 L 319.8,270.1 L 322.3,270.6 L 324.8,271.1 L 327.3,271.6 L 329.8,272.1 L 332.3,272.6 L 334.8,273.0 L 337.3,273.5 L 339.8,274.0 L 342.3,274.5 L 344.7,275.0 L 347.2,275.5 L 349.7,275.9 L 352.2,276.4 L 354.7,276.9 L 357.2,277.4 L 359.7,277.9 L 362.2,278.4 L 364.7,278.9 L 367.2,279.3 L 369.7,279.8 L 372.2,280.3 L 374.7,280.8 L 377.2,281.3 L 379.7,281.8 L 382.2,282.2 L 384.7,282.7 L 387.2,283.2 L 389.7,283.7 L 392.2,284.2 L 394.7,284.7 L 397.2,285.1 L 399.7,285.6 L 402.2,286.1 L 404.7,286.6 L 407.2,287.1 L 409.7,287.6 L 412.2,288.0 L 414.7,288.5 L 417.2,289.0 L 419.7,289.5 L 422.2,290.0 L 424.7,290.5 L 427.2,290.9 L 429.7,291.4 L 432.2,291.9 L 434.7,292.4 L 437.2,292.9 L 439.7,293.4 L 442.2,293.8 L 444.7,294.3 L 447.2,294.8 L 449.7,295.3 L 452.2,295.8 L 454.6,296.3 L 457.1,296.7 L 459.6,297.2 L 462.1,297.7 L 464.6,298.2 L 467.1,299.0 L 469.6,300.3 L 472.1,301.6 L 474.6,303.0 L 477.1,304.3 L 479.6,305.6 L 482.1,306.9 L 484.6,308.3 L 487.1,309.6 L 489.6,310.9 L 492.1,312.3 L 494.6,313.6 L 497.1,314.9 L 499.6,316.3 L 502.1,317.6 L 504.6,318.9 L 507.1,320.3 L 509.6,321.6 L 512.1,322.9 L 514.6,324.3 L 517.1,325.6 L 519.6,326.9 L 522.1,328.3 L 524.6,329.6 L 527.1,330.9 L 529.6,332.3 L 532.1,333.6 L 534.6,334.9 L 537.1,336.3 L 539.6,337.6 L 542.1,338.9 L 544.6,340.3 L 547.1,341.6 L 549.6,342.9 L 552.1,344.3 L 554.6,345.6 L 557.1,346.9 L 559.6,348.3 L 562.1,349.6 L 564.5,350.9 L 567.0,352.2 L 569.5,353.6 L 572.0,354.9 L 574.5,356.2 L 577.0,357.6 L 579.5,358.9 L 582.0,360.2 L 584.5,361.6 L 587.0,362.9 L 589.5,364.2 L 592.0,365.0 L 594.5,365.0 L 597.0,365.0 L 599.5,365.0 L 602.0,365.0 L 604.5,365.0 L 607.0,365.0 L 609.5,365.0 L 612.0,365.0 L 614.5,365.0 L 617.0,365.0" class="rho"/>
<path d="M 70.0,158.3 L 72.5,158.4 L 75.0,158.6 L 77.5,158.9 L 80.0,159.3 L 82.5,159.8 L 85.0,160.3 L 87.5,161.0 L 90.0,161.7 L 92.5,162.5 L 95.0,163.4 L 97.5,164.4 L 100.0,165.4 L 102.5,166.4 L 105.0,167.5 L 107.5,168.7 L 110.0,169.9 L 112.5,171.1 L 115.0,172.3 L 117.5,173.5 L 120.0,174.8 L 122.5,176.1 L 124.9,177.4 L 127.4,178.7 L 129.9,179.9 L 132.4,181.2 L 134.9,182.5 L 137.4,183.7 L 139.9,185.0 L 142.4,186.2 L 144.9,187.5 L 147.4,188.7 L 149.9,189.9 L 152.4,191.1 L 154.9,192.4 L 157.4,193.6 L 159.9,194.8 L 162.4,196.0 L 164.9,197.2 L 167.4,198.4 L 169.9,199.7 L 172.4,200.9 L 174.9,202.2 L 177.4,203.5 L 179.9,204.7 L 182.4,206.0 L 184.9,207.4 L 187.4,208.7 L 189.9,210.0 L 192.4,211.4 L 194.9,212.8 L 197.4,214.2 L 199.9,215.6 L 202.4,217.1 L 204.9,218.5 L 207.4,219.9 L 209.9,221.4 L 212.4,222.8 L 214.9,224.3 L 217.4,225.7 L 219.9,227.1 L 222.4,228.5 L 224.9,229.8 L 227.4,231.2 L 229.9,232.5 L 232.4,233.8 L 234.8,235.1 L 237.3,236.3 L 239.8,237.6 L 242.3,238.8 L 244.8,240.0 L 247.3,241.2 L 249.8,242.4 L 252.3,243.6 L 254.8,244.7 L 257.3,245.9 L 259.8,247.0 L 262.3,248.2 L 264.8,249.3 L 267.3,250.4 L 269.8,251.5 L 272.3,252.5 L 274.8,253.6 L 277.3,254.7 L 279.8,255.7 L 282.3,256.8 L 284.8,257.8 L 287.3,258.9 L 289.8,259.9 L 292.3,260.9 L 294.8,261.9 L 297.3,262.9 L 299.8,263.9 L 302.3,264.9 L 304.8,265.9 L 307.3,266.9 L 309.8,267.8 L 312.3,268.8 L 314.8,269.7 L 317.3,270.7 L 319.8,271.6 L 322.3,272.6 L 324.8,273.5 L 327.3,274.4 L 329.8,275.4 L 332.3,276.3 L 334.8,277.2 L 337.3,278.1 L 339.8,279.0 L 342.3,279.9 L 344.7,280.8 L 347.2,281.7 L 349.7,282.6 L 352.2,283.4 L 354.7,284.3 L 357.2,285.2 L 359.7,286.1 L 362.2,286.9 L 364.7,287.8 L 367.2,288.6 L 369.7,289.5 L 372.2,290.3 L 374.7,291.1 L 377.2,292.0 L 379.7,292.8 L 382.2,293.6 L 384.7,294.4 L 387.2,295.2 L 389.7,296.1 L 392.2,296.9 L 394.7,297.7 L 397.2,298.5 L 399.7,299.3 L 402.2,300.0 L 404.7,300.8 L 407.2,301.6 L 409.7,302.4 L 412.2,303.2 L 414.7,303.9 L 417.2,304.7 L 419.7,305.5 L 422.2,306.2 L 424.7,307.0 L 427.2,307.8 L 429.7,308.5 L 432.2,309.3 L 434.7,310.0 L 437.2,310.8 L 439.7,311.5 L 442.2,312.2 L 444.7,313.0 L 447.2,313.7 L 449.7,314.5 L 452.2,315.2 L 454.6,316.0 L 457.1,316.7 L 459.6,317.4 L 462.1,318.2 L 464.6,318.9 L 467.1,319.6 L 469.6,320.4 L 472.1,321.1 L 474.6,321.8 L 477.1,322.6 L 479.6,323.3 L 482.1,324.0 L 484.6,324.7 L 487.1,325.4 L 489.6,326.1 L 492.1,326.8 L 494.6,327.5 L 497.1,328.2 L 499.6,328.9 L 502.1,329.5 L 504.6,330.2 L 507.1,330.8 L 509.6,331.5 L 512.1,332.1 L 514.6,332.7 L 517.1,333.3 L 519.6,333.9 L 522.1,334.5 L 524.6,335.0 L 527.1,335.6 L 529.6,336.1 L 532.1,336.7 L 534.6,337.2 L 537.1,337.7 L 539.6,338.2 L 542.1,338.6 L 544.6,339.1 L 547.1,339.6 L 549.6,340.0 L 552.1,340.4 L 554.6,340.8 L 557.1,341.3 L 559.6,341.6 L 562.1,342.0 L 564.5,342.4 L 567.0,342.8 L 569.5,343.1 L 572.0,343.4 L 574.5,343.8 L 577.0,344.1 L 579.5,344.4 L 582.0,344.7 L 584.5,345.0 L 587.0,345.3 L 589.5,345.6 L 592.0,345.8 L 594.5,346.1 L 597.0,346.3 L 599.5,346.6 L 602.0,346.8 L 604.5,347.1 L 607.0,347.3 L 609.5,347.5 L 612.0,347.7 L 614.5,348.0 L 617.0,348.2" class="sig"/>
<path d="M 75.5,320.6 L 80.9,302.8 L 86.4,289.5 L 91.9,278.5 L 97.3,269.2 L 102.8,261.0 L 108.3,253.7 L 113.8,247.2 L 119.2,241.2 L 124.7,235.8 L 130.2,230.8 L 135.6,226.3 L 141.1,222.1 L 146.6,217.9 L 152.1,213.8 L 157.5,209.8 L 163.0,205.8 L 168.5,202.0 L 173.9,198.3 L 179.4,194.6 L 184.9,191.0 L 190.3,187.5 L 195.8,184.1 L 201.3,180.7 L 206.8,177.6 L 212.2,175.0 L 217.7,172.7 L 223.2,170.5 L 228.6,168.3 L 234.1,166.2 L 239.6,164.1 L 245.0,162.0 L 250.5,160.0 L 256.0,158.0 L 261.5,156.1 L 266.9,154.1 L 272.4,152.3 L 277.9,150.4 L 283.3,148.6 L 288.8,146.8 L 294.3,145.1 L 299.7,143.4 L 305.2,141.8 L 310.7,140.1 L 316.1,138.5 L 321.6,137.0 L 327.1,135.5 L 332.6,134.0 L 338.0,132.5 L 343.5,131.1 L 349.0,129.7 L 354.4,128.4 L 359.9,127.1 L 365.4,125.8 L 370.8,124.5 L 376.3,123.3 L 381.8,122.1 L 387.3,121.0 L 392.7,119.9 L 398.2,118.8 L 403.7,117.7 L 409.1,116.7 L 414.6,115.6 L 420.1,114.7 L 425.6,113.7 L 431.0,112.8 L 436.5,111.9 L 442.0,111.0 L 447.4,110.2 L 452.9,109.4 L 458.4,108.6 L 463.8,107.9 L 469.3,107.2 L 474.8,106.5 L 480.3,106.0 L 485.7,105.6 L 491.2,105.2 L 496.7,105.0 L 502.1,104.8 L 507.6,104.8 L 513.1,104.8 L 518.5,104.9 L 524.0,105.1 L 529.5,105.3 L 535.0,105.7 L 540.4,106.2 L 545.9,106.7 L 551.4,107.3 L 556.8,108.0 L 562.3,108.8 L 567.8,109.7 L 573.2,110.7 L 578.7,111.8 L 584.2,112.9 L 589.7,114.2 L 595.1,115.5 L 600.6,116.8 L 606.1,118.0 L 611.5,119.3 L 617.0,120.5" class="nt"/>
<path d="M 74.6,349.4 L 79.1,336.8 L 83.7,323.6 L 88.2,311.0 L 92.8,299.2 L 97.4,288.2 L 101.9,278.0 L 106.5,268.7 L 111.0,260.3 L 115.6,252.7 L 120.1,246.0 L 124.7,240.1 L 129.3,235.1 L 133.8,230.7 L 138.4,226.8 L 142.9,223.2 L 147.5,219.6 L 152.1,215.9 L 156.6,211.9 L 161.2,207.7 L 165.7,203.2 L 170.3,198.3 L 174.8,193.2 L 179.4,187.8 L 184.0,182.1 L 188.5,176.2 L 193.1,170.4 L 197.6,164.7 L 202.2,159.7 L 206.8,155.5 L 211.3,152.4 L 215.9,150.5 L 220.4,149.4 L 225.0,149.0 L 229.5,148.8 L 234.1,148.7 L 238.7,148.5 L 243.2,148.3 L 247.8,147.9 L 252.3,147.5 L 256.9,146.9 L 261.5,146.3 L 266.0,145.6 L 270.6,144.9 L 275.1,144.1 L 279.7,143.3 L 284.2,142.5 L 288.8,141.7 L 293.4,140.8 L 297.9,140.0 L 302.5,139.1 L 307.0,138.3 L 311.6,137.4 L 316.1,136.6 L 320.7,135.8 L 325.3,135.0 L 329.8,134.2 L 334.4,133.4 L 338.9,132.6 L 343.5,131.9 L 348.1,131.2 L 352.6,130.4 L 357.2,129.8 L 361.7,129.1 L 366.3,128.4 L 370.9,127.8 L 375.4,127.1 L 380.0,126.5 L 384.5,125.9 L 389.1,125.3 L 393.6,124.7 L 398.2,124.1 L 402.8,123.5 L 407.3,122.8 L 411.9,122.2 L 416.4,121.5 L 421.0,120.8 L 425.6,120.1 L 430.1,119.3 L 434.7,118.4 L 439.2,117.4 L 443.8,116.4 L 448.3,115.2 L 452.9,114.0 L 457.5,112.7 L 462.0,111.4 L 466.6,110.2 L 471.1,109.2 L 475.7,108.6 L 480.2,108.3 L 484.8,108.6 L 489.4,109.2 L 493.9,110.3 L 498.5,111.9 L 503.0,113.8 L 507.6,116.1 L 512.2,118.7 L 516.7,121.6 L 521.3,124.8 L 525.8,128.3 L 530.4,132.0 L 535.0,135.9 L 539.5,139.9 L 544.1,144.2 L 548.6,148.6 L 553.2,153.0 L 557.7,157.5 L 562.3,162.1 L 566.9,166.6 L 571.4,171.0 L 576.0,175.4 L 580.5,179.5 L 585.1,183.5 L 589.6,187.3 L 594.2,190.9 L 598.8,194.3 L 603.3,197.5 L 607.9,200.5 L 612.4,203.4 L 617.0,206.1" class="fw"/>
<line x1="105.14" y1="267.00" x2="105.14" y2="287.66" class="err"/>
<line x1="102.14" y1="267.00" x2="108.14" y2="267.00" class="err"/>
<line x1="102.14" y1="287.66" x2="108.14" y2="287.66" class="err"/>
<circle cx="105.14" cy="277.33" r="2.5" class="obs"/>
<line x1="122.52" y1="234.16" x2="122.52" y2="248.46" class="err"/>
<line x1="119.52" y1="234.16" x2="125.52" y2="234.16" class="err"/>
<line x1="119.52" y1="248.46" x2="125.52" y2="248.46" class="err"/>
<circle cx="122.52" cy="241.31" r="2.5" class="obs"/>
<line x1="140.28" y1="209.79" x2="140.28" y2="234.69" class="err"/>
<line x1="137.28" y1="209.79" x2="143.28" y2="209.79" class="err"/>
<line x1="137.28" y1="234.69" x2="143.28" y2="234.69" class="err"/>
<circle cx="140.28" cy="222.24" r="2.5" class="obs"/>
<line x1="157.66" y1="202.64" x2="157.66" y2="215.88" class="err"/>
<line x1="154.66" y1="202.64" x2="160.66" y2="202.64" class="err"/>
<line x1="154.66" y1="215.88" x2="160.66" y2="215.88" class="err"/>
<circle cx="157.66" cy="209.26" r="2.5" class="obs"/>
<line x1="175.04" y1="184.36" x2="175.04" y2="198.13" class="err"/>
<line x1="172.04" y1="184.36" x2="178.04" y2="184.36" class="err"/>
<line x1="172.04" y1="198.13" x2="178.04" y2="198.13" class="err"/>
<circle cx="175.04" cy="191.25" r="2.5" class="obs"/>
<line x1="192.42" y1="170.32" x2="192.42" y2="184.63" class="err"/>
<line x1="189.42" y1="170.32" x2="195.42" y2="170.32" class="err"/>
<line x1="189.42" y1="184.63" x2="195.42" y2="184.63" class="err"/>
<circle cx="192.42" cy="177.47" r="2.5" class="obs"/>
<line x1="210.18" y1="134.57" x2="210.18" y2="160.52" class="err"/>
<line x1="207.18" y1="134.57" x2="213.18" y2="134.57" class="err"/>
<line x1="207.18" y1="160.52" x2="213.18" y2="160.52" class="err"/>
<circle cx="210.18" cy="147.54" r="2.5" class="obs"/>
<line x1="227.56" y1="124.77" x2="227.56" y2="159.73" class="err"/>
<line x1="224.56" y1="124.77" x2="230.56" y2="124.77" class="err"/>
<line x1="224.56" y1="159.73" x2="230.56" y2="159.73" class="err"/>
<circle cx="227.56" cy="142.25" r="2.5" class="obs"/>
<line x1="245.32" y1="127.68" x2="245.32" y2="160.52" class="err"/>
<line x1="242.32" y1="127.68" x2="248.32" y2="127.68" class="err"/>
<line x1="242.32" y1="160.52" x2="248.32" y2="160.52" class="err"/>
<circle cx="245.32" cy="144.10" r="2.5" class="obs"/>
<line x1="262.70" y1="141.98" x2="262.70" y2="156.29" class="err"/>
<line x1="259.70" y1="141.98" x2="265.70" y2="141.98" class="err"/>
<line x1="259.70" y1="156.29" x2="265.70" y2="156.29" class="err"/>
<circle cx="262.70" cy="149.13" r="2.5" class="obs"/>
<line x1="280.46" y1="140.39" x2="280.46" y2="161.58" class="err"/>
<line x1="277.46" y1="140.39" x2="283.46" y2="140.39" class="err"/>
<line x1="277.46" y1="161.58" x2="283.46" y2="161.58" class="err"/>
<circle cx="280.46" cy="150.99" r="2.5" class="obs"/>
<line x1="297.84" y1="112.85" x2="297.84" y2="178.53" class="err"/>
<line x1="294.84" y1="112.85" x2="300.84" y2="112.85" class="err"/>
<line x1="294.84" y1="178.53" x2="300.84" y2="178.53" class="err"/>
<circle cx="297.84" cy="145.69" r="2.5" class="obs"/>
<line x1="315.60" y1="100.40" x2="315.60" y2="162.38" class="err"/>
<line x1="312.60" y1="100.40" x2="318.60" y2="100.40" class="err"/>
<line x1="312.60" y1="162.38" x2="318.60" y2="162.38" class="err"/>
<circle cx="315.60" cy="131.39" r="2.5" class="obs"/>
<line x1="332.98" y1="108.08" x2="332.98" y2="153.11" class="err"/>
<line x1="329.98" y1="108.08" x2="335.98" y2="108.08" class="err"/>
<line x1="329.98" y1="153.11" x2="335.98" y2="153.11" class="err"/>
<circle cx="332.98" cy="130.59" r="2.5" class="obs"/>
<line x1="350.36" y1="107.28" x2="350.36" y2="154.43" class="err"/>
<line x1="347.36" y1="107.28" x2="353.36" y2="107.28" class="err"/>
<line x1="347.36" y1="154.43" x2="353.36" y2="154.43" class="err"/>
<circle cx="350.36" cy="130.86" r="2.5" class="obs"/>
<line x1="367.74" y1="102.78" x2="367.74" y2="159.99" class="err"/>
<line x1="364.74" y1="102.78" x2="370.74" y2="102.78" class="err"/>
<line x1="364.74" y1="159.99" x2="370.74" y2="159.99" class="err"/>
<circle cx="367.74" cy="131.39" r="2.5" class="obs"/>
<line x1="385.50" y1="119.73" x2="385.50" y2="136.16" class="err"/>
<line x1="382.50" y1="119.73" x2="388.50" y2="119.73" class="err"/>
<line x1="382.50" y1="136.16" x2="388.50" y2="136.16" class="err"/>
<circle cx="385.50" cy="127.94" r="2.5" class="obs"/>
<line x1="402.88" y1="102.25" x2="402.88" y2="152.58" class="err"/>
<line x1="399.88" y1="102.25" x2="405.88" y2="102.25" class="err"/>
<line x1="399.88" y1="152.58" x2="405.88" y2="152.58" class="err"/>
<circle cx="402.88" cy="127.41" r="2.5" class="obs"/>
<line x1="420.26" y1="97.48" x2="420.26" y2="136.16" class="err"/>
<line x1="417.26" y1="97.48" x2="423.26" y2="97.48" class="err"/>
<line x1="417.26" y1="136.16" x2="423.26" y2="136.16" class="err"/>
<circle cx="420.26" cy="116.82" r="2.5" class="obs"/>
<line x1="438.02" y1="92.98" x2="438.02" y2="123.18" class="err"/>
<line x1="435.02" y1="92.98" x2="441.02" y2="92.98" class="err"/>
<line x1="435.02" y1="123.18" x2="441.02" y2="123.18" class="err"/>
<circle cx="438.02" cy="108.08" r="2.5" class="obs"/>
<line x1="454.63" y1="106.23" x2="454.63" y2="114.17" class="err"/>
<line x1="451.63" y1="106.23" x2="457.63" y2="106.23" class="err"/>
<line x1="451.63" y1="114.17" x2="457.63" y2="114.17" class="err"/>
<circle cx="454.63" cy="110.20" r="2.5" class="obs"/>
<line x1="473.55" y1="108.34" x2="473.55" y2="119.47" class="err"/>
<line x1="470.55" y1="108.34" x2="476.55" y2="108.34" class="err"/>
<line x1="470.55" y1="119.47" x2="476.55" y2="119.47" class="err"/>
<circle cx="473.55" cy="113.91" r="2.5" class="obs"/>
<line x1="492.08" y1="83.18" x2="492.08" y2="156.81" class="err"/>
<line x1="489.08" y1="83.18" x2="495.08" y2="83.18" class="err"/>
<line x1="489.08" y1="156.81" x2="495.08" y2="156.81" class="err"/>
<circle cx="492.08" cy="120.00" r="2.5" class="obs"/>
<line x1="507.15" y1="91.13" x2="507.15" y2="147.28" class="err"/>
<line x1="504.15" y1="91.13" x2="510.15" y2="91.13" class="err"/>
<line x1="504.15" y1="147.28" x2="510.15" y2="147.28" class="err"/>
<circle cx="507.15" cy="119.20" r="2.5" class="obs"/>
<line x1="525.68" y1="85.30" x2="525.68" y2="149.40" class="err"/>
<line x1="522.68" y1="85.30" x2="528.68" y2="85.30" class="err"/>
<line x1="522.68" y1="149.40" x2="528.68" y2="149.40" class="err"/>
<circle cx="525.68" cy="117.35" r="2.5" class="obs"/>
<g class="legend">
<line x1="82" y1="69" x2="106" y2="69" class="fw"/>
<text x="112" y="73" class="lbl-l">framework fit</text>
<line x1="82" y1="87" x2="106" y2="87" class="nt"/>
<text x="112" y="91" class="lbl-l">Newtonian (no halo)</text>
<circle cx="94" cy="105" r="2.5" class="obs"/>
<text x="112" y="109" class="lbl">observed V±err</text>
</g>
<g class="legend">
<line x1="442" y1="69" x2="466" y2="69" class="rho"/>
<text x="472" y="73" class="lbl-r">ρ(r) raw</text>
<line x1="442" y1="87" x2="466" y2="87" class="sig"/>
<text x="472" y="91" class="lbl-s">Σ(r) cumulative</text>
<text x="442" y="113" class="lbl-r">ρ peak: 149 M☉/pc²</text>
</g>
<rect x="705" y="55" width="170" height="170" class="preview-bg"/>
<defs><radialGradient id="g_NGC0300" cx="0.5" cy="0.5" r="0.5">
  <stop offset="0.0000" stop-color="rgb(254,63.5,63.5)"/>
  <stop offset="0.0313" stop-color="rgb(239,59.75,59.75)"/>
  <stop offset="0.0625" stop-color="rgb(224,56,56)"/>
  <stop offset="0.0938" stop-color="rgb(208,52,52)"/>
  <stop offset="0.1250" stop-color="rgb(193,48.25,48.25)"/>
  <stop offset="0.1563" stop-color="rgb(190,47.5,47.5)"/>
  <stop offset="0.1875" stop-color="rgb(188,47,47)"/>
  <stop offset="0.2188" stop-color="rgb(186,46.5,46.5)"/>
  <stop offset="0.2500" stop-color="rgb(184,46,46)"/>
  <stop offset="0.2813" stop-color="rgb(163,40.75,40.75)"/>
  <stop offset="0.3125" stop-color="rgb(160,40,40)"/>
  <stop offset="0.3438" stop-color="rgb(157,39.25,39.25)"/>
  <stop offset="0.3750" stop-color="rgb(154,38.5,38.5)"/>
  <stop offset="0.4063" stop-color="rgb(151,37.75,37.75)"/>
  <stop offset="0.4375" stop-color="rgb(148,37,37)"/>
  <stop offset="0.4688" stop-color="rgb(145,36.25,36.25)"/>
  <stop offset="0.5000" stop-color="rgb(142,35.5,35.5)"/>
  <stop offset="0.5313" stop-color="rgb(138,34.5,34.5)"/>
  <stop offset="0.5625" stop-color="rgb(135,33.75,33.75)"/>
  <stop offset="0.5938" stop-color="rgb(132,33,33)"/>
  <stop offset="0.6250" stop-color="rgb(129,32.25,32.25)"/>
  <stop offset="0.6563" stop-color="rgb(126,31.5,31.5)"/>
  <stop offset="0.6875" stop-color="rgb(123,30.75,30.75)"/>
  <stop offset="0.7188" stop-color="rgb(120,30,30)"/>
  <stop offset="0.7500" stop-color="rgb(117,29.25,29.25)"/>
  <stop offset="0.7813" stop-color="rgb(110,27.5,27.5)"/>
  <stop offset="0.8125" stop-color="rgb(101,25.25,25.25)"/>
  <stop offset="0.8438" stop-color="rgb(93,23.25,23.25)"/>
  <stop offset="0.8750" stop-color="rgb(84,21,21)"/>
  <stop offset="0.9063" stop-color="rgb(76,19,19)"/>
  <stop offset="0.9375" stop-color="rgb(67,16.75,16.75)"/>
  <stop offset="0.9688" stop-color="rgb(40,10,10)"/>
  <stop offset="1.0000" stop-color="rgb(0,0,0)"/>
</radialGradient></defs>
<circle cx="790" cy="140" r="81" fill="url(#g_NGC0300)"/>
<text x="790" y="49" text-anchor="middle" class="preview-lbl">face-on luminance from ρ(r)</text>
<text x="790" y="239" text-anchor="middle" class="preview-lbl">edge at r = 13.5 kpc</text>
</svg>