<svg xmlns="http://www.w3.org/2000/svg" viewBox="0 0 890 420" width="890" height="420" font-family="sans-serif" font-size="12">
<style>
  .ax { stroke: #333; stroke-width: 1; fill: none; }
  .grid { stroke: #ddd; stroke-width: 0.5; fill: none; }
  .lbl { fill: #333; }
  .lbl-l { fill: #0066cc; }
  .lbl-r { fill: #b03030; }
  .obs { fill: #222; }
  .err { stroke: #555; stroke-width: 0.8; fill: none; }
  .fw { stroke: #0066cc; stroke-width: 2.2; fill: none; }
  .nt { stroke: #cc6600; stroke-width: 1.6; fill: none; stroke-dasharray: 5,3; }
  .lbl-s { fill: #cc7000; }
  .rho { stroke: #b03030; stroke-width: 2.0; fill: none; }
  .sig { stroke: #cc7000; stroke-width: 1.8; fill: none; }
  .title { fill: #111; font-size: 16px; font-weight: 600; }
  .subtitle { fill: #555; font-size: 11px; }
  .preview-bg { fill: #000; }
  .preview-lbl { fill: #888; font-size: 10px; }
  .legend { font-size: 11px; }
</style>
<text x="343.5" y="22" text-anchor="middle" class="title">NGC0024</text>
<text x="343.5" y="38" text-anchor="middle" class="subtitle">rMax=11.3 kpc, N=29, RMS=1.9 km/s (2.2%), amp=105</text>
<line x1="70" y1="365.0" x2="617" y2="365.0" class="grid"/>
<text x="64" y="369.0" text-anchor="end" class="lbl-l">0</text>
<line x1="70" y1="303.0" x2="617" y2="303.0" class="grid"/>
<text x="64" y="307.0" text-anchor="end" class="lbl-l">26</text>
<line x1="70" y1="241.0" x2="617" y2="241.0" class="grid"/>
<text x="64" y="245.0" text-anchor="end" class="lbl-l">53</text>
<line x1="70" y1="179.0" x2="617" y2="179.0" class="grid"/>
<text x="64" y="183.0" text-anchor="end" class="lbl-l">79</text>
<line x1="70" y1="117.0" x2="617" y2="117.0" class="grid"/>
<text x="64" y="121.0" text-anchor="end" class="lbl-l">105</text>
<line x1="70" y1="55.0" x2="617" y2="55.0" class="grid"/>
<text x="64" y="59.0" text-anchor="end" class="lbl-l">132</text>
<text x="623" y="369.0" text-anchor="start" class="lbl-r">0.0</text>
<text x="623" y="327.7" text-anchor="start" class="lbl-r">0.2</text>
<text x="623" y="286.3" text-anchor="start" class="lbl-r">0.4</text>
<text x="623" y="245.0" text-anchor="start" class="lbl-r">0.6</text>
<text x="623" y="203.7" text-anchor="start" class="lbl-r">0.8</text>
<text x="623" y="162.3" text-anchor="start" class="lbl-r">1.0</text>
<line x1="70.0" y1="55" x2="70.0" y2="365" class="grid"/>
<text x="70.0" y="381" text-anchor="middle" class="lbl">0.0</text>
<line x1="161.2" y1="55" x2="161.2" y2="365" class="grid"/>
<text x="161.2" y="381" text-anchor="middle" class="lbl">2.0</text>
<line x1="252.3" y1="55" x2="252.3" y2="365" class="grid"/>
<text x="252.3" y="381" text-anchor="middle" class="lbl">4.0</text>
<line x1="343.5" y1="55" x2="343.5" y2="365" class="grid"/>
<text x="343.5" y="381" text-anchor="middle" class="lbl">5.9</text>
<line x1="434.7" y1="55" x2="434.7" y2="365" class="grid"/>
<text x="434.7" y="381" text-anchor="middle" class="lbl">7.9</text>
<line x1="525.8" y1="55" x2="525.8" y2="365" class="grid"/>
<text x="525.8" y="381" text-anchor="middle" class="lbl">9.9</text>
<line x1="617.0" y1="55" x2="617.0" y2="365" class="grid"/>
<text x="617.0" y="381" text-anchor="middle" class="lbl">11.9</text>
<text x="343.5" y="408" text-anchor="middle" class="lbl">radius (kpc)</text>
<text x="16" y="210" text-anchor="middle" class="lbl-l" transform="rotate(-90, 16, 210)">velocity (km/s)</text>
<text x="874" y="210" text-anchor="middle" class="lbl-r" transform="rotate(-90, 874, 210)">mass profile (normalized to peak)</text>
<rect x="70" y="55" width="547" height="310" class="ax"/>
<path d="M 70.0,158.3 L 72.5,162.7 L 75.0,167.0 L 77.5,171.4 L 80.0,175.8 L 82.5,180.1 L 85.0,184.5 L 87.5,188.8 L 90.0,193.2 L 92.5,197.6 L 95.0,201.9 L 97.5,206.3 L 100.0,210.6 L 102.5,215.0 L 105.0,219.3 L 107.5,223.7 L 110.0,228.1 L 112.5,232.4 L 115.0,236.8 L 117.5,241.1 L 120.0,245.5 L 122.5,249.9 L 124.9,251.4 L 127.4,252.5 L 129.9,253.7 L 132.4,254.8 L 134.9,255.9 L 137.4,257.1 L 139.9,258.2 L 142.4,259.4 L 144.9,260.5 L 147.4,261.7 L 149.9,262.8 L 152.4,264.0 L 154.9,265.1 L 157.4,266.3 L 159.9,267.4 L 162.4,268.6 L 164.9,269.7 L 167.4,270.8 L 169.9,272.0 L 172.4,273.1 L 174.9,274.3 L 177.4,275.4 L 179.9,276.6 L 182.4,277.7 L 184.9,278.9 L 187.4,280.0 L 189.9,281.2 L 192.4,282.3 L 194.9,283.5 L 197.4,284.6 L 199.9,285.8 L 202.4,286.9 L 204.9,288.0 L 207.4,289.2 L 209.9,290.3 L 212.4,291.5 L 214.9,292.6 L 217.4,293.8 L 219.9,294.9 L 222.4,296.1 L 224.9,297.2 L 227.4,298.4 L 229.9,299.5 L 232.4,300.7 L 234.8,301.8 L 237.3,302.0 L 239.8,302.0 L 242.3,302.0 L 244.8,302.0 L 247.3,302.0 L 249.8,302.0 L 252.3,302.0 L 254.8,302.1 L 257.3,302.3 L 259.8,302.5 L 262.3,302.7 L 264.8,302.9 L 267.3,303.1 L 269.8,303.3 L 272.3,303.6 L 274.8,303.8 L 277.3,304.0 L 279.8,304.2 L 282.3,304.4 L 284.8,304.6 L 287.3,304.8 L 289.8,305.1 L 292.3,305.3 L 294.8,305.5 L 297.3,305.7 L 299.8,305.9 L 302.3,306.1 L 304.8,306.3 L 307.3,306.6 L 309.8,306.8 L 312.3,307.0 L 314.8,307.2 L 317.3,307.4 L 319.8,307.6 L 322.3,307.8 L 324.8,308.1 L 327.3,308.3 L 329.8,308.5 L 332.3,308.7 L 334.8,308.9 L 337.3,309.1 L 339.8,309.4 L 342.3,309.6 L 344.7,309.8 L 347.2,310.0 L 349.7,310.2 L 352.2,310.4 L 354.7,310.6 L 357.2,310.9 L 359.7,311.1 L 362.2,311.3 L 364.7,311.5 L 367.2,311.7 L 369.7,311.9 L 372.2,312.1 L 374.7,312.4 L 377.2,312.6 L 379.7,312.8 L 382.2,313.0 L 384.7,313.2 L 387.2,313.4 L 389.7,313.6 L 392.2,313.9 L 394.7,314.1 L 397.2,314.3 L 399.7,314.5 L 402.2,314.7 L 404.7,314.9 L 407.2,315.1 L 409.7,315.4 L 412.2,315.6 L 414.7,315.8 L 417.2,316.0 L 419.7,316.2 L 422.2,316.4 L 424.7,316.6 L 427.2,316.9 L 429.7,317.1 L 432.2,317.3 L 434.7,317.5 L 437.2,317.7 L 439.7,317.9 L 442.2,318.2 L 444.7,318.4 L 447.2,318.6 L 449.7,318.8 L 452.2,319.0 L 454.6,319.2 L 457.1,319.4 L 459.6,319.7 L 462.1,319.9 L 464.6,320.1 L 467.1,320.3 L 469.6,320.5 L 472.1,320.7 L 474.6,320.9 L 477.1,321.2 L 479.6,321.4 L 482.1,321.6 L 484.6,321.8 L 487.1,322.0 L 489.6,322.2 L 492.1,322.4 L 494.6,322.7 L 497.1,322.9 L 499.6,323.1 L 502.1,323.3 L 504.6,323.5 L 507.1,323.7 L 509.6,323.9 L 512.1,324.2 L 514.6,324.4 L 517.1,324.6 L 519.6,324.8 L 522.1,325.0 L 524.6,325.2 L 527.1,325.5 L 529.6,325.7 L 532.1,325.9 L 534.6,326.1 L 537.1,326.3 L 539.6,326.5 L 542.1,326.7 L 544.6,327.0 L 547.1,327.2 L 549.6,327.4 L 552.1,327.6 L 554.6,327.8 L 557.1,328.0 L 559.6,328.2 L 562.1,328.5 L 564.5,328.7 L 567.0,332.2 L 569.5,335.6 L 572.0,339.0 L 574.5,342.5 L 577.0,345.9 L 579.5,349.3 L 582.0,352.7 L 584.5,356.2 L 587.0,359.6 L 589.5,363.0 L 592.0,365.0 L 594.5,365.0 L 597.0,365.0 L 599.5,365.0 L 602.0,365.0 L 604.5,365.0 L 607.0,365.0 L 609.5,365.0 L 612.0,365.0 L 614.5,365.0 L 617.0,365.0" class="rho"/>
<path d="M 70.0,158.3 L 72.5,158.6 L 75.0,158.9 L 77.5,159.5 L 80.0,160.1 L 82.5,161.0 L 85.0,162.1 L 87.5,163.3 L 90.0,164.7 L 92.5,166.1 L 95.0,167.7 L 97.5,169.4 L 100.0,171.2 L 102.5,173.1 L 105.0,175.0 L 107.5,176.9 L 110.0,178.9 L 112.5,180.9 L 115.0,182.9 L 117.5,184.9 L 120.0,187.0 L 122.5,189.0 L 124.9,190.9 L 127.4,192.9 L 129.9,194.9 L 132.4,196.8 L 134.9,198.7 L 137.4,200.6 L 139.9,202.5 L 142.4,204.3 L 144.9,206.1 L 147.4,207.9 L 149.9,209.7 L 152.4,211.5 L 154.9,213.2 L 157.4,215.0 L 159.9,216.7 L 162.4,218.4 L 164.9,220.1 L 167.4,221.8 L 169.9,223.5 L 172.4,225.1 L 174.9,226.7 L 177.4,228.4 L 179.9,230.0 L 182.4,231.6 L 184.9,233.1 L 187.4,234.7 L 189.9,236.2 L 192.4,237.8 L 194.9,239.3 L 197.4,240.7 L 199.9,242.2 L 202.4,243.7 L 204.9,245.1 L 207.4,246.5 L 209.9,247.9 L 212.4,249.2 L 214.9,250.6 L 217.4,251.9 L 219.9,253.2 L 222.4,254.4 L 224.9,255.7 L 227.4,256.9 L 229.9,258.1 L 232.4,259.3 L 234.8,260.4 L 237.3,261.5 L 239.8,262.6 L 242.3,263.7 L 244.8,264.7 L 247.3,265.7 L 249.8,266.7 L 252.3,267.7 L 254.8,268.6 L 257.3,269.6 L 259.8,270.5 L 262.3,271.4 L 264.8,272.3 L 267.3,273.1 L 269.8,274.0 L 272.3,274.9 L 274.8,275.7 L 277.3,276.5 L 279.8,277.3 L 282.3,278.1 L 284.8,278.9 L 287.3,279.7 L 289.8,280.4 L 292.3,281.2 L 294.8,281.9 L 297.3,282.7 L 299.8,283.4 L 302.3,284.1 L 304.8,284.8 L 307.3,285.5 L 309.8,286.2 L 312.3,286.9 L 314.8,287.6 L 317.3,288.3 L 319.8,289.0 L 322.3,289.6 L 324.8,290.3 L 327.3,290.9 L 329.8,291.6 L 332.3,292.2 L 334.8,292.8 L 337.3,293.5 L 339.8,294.1 L 342.3,294.7 L 344.7,295.3 L 347.2,295.9 L 349.7,296.5 L 352.2,297.1 L 354.7,297.7 L 357.2,298.3 L 359.7,298.9 L 362.2,299.4 L 364.7,300.0 L 367.2,300.6 L 369.7,301.2 L 372.2,301.7 L 374.7,302.3 L 377.2,302.8 L 379.7,303.4 L 382.2,303.9 L 384.7,304.5 L 387.2,305.0 L 389.7,305.5 L 392.2,306.1 L 394.7,306.6 L 397.2,307.1 L 399.7,307.7 L 402.2,308.2 L 404.7,308.7 L 407.2,309.2 L 409.7,309.7 L 412.2,310.2 L 414.7,310.7 L 417.2,311.2 L 419.7,311.7 L 422.2,312.2 L 424.7,312.7 L 427.2,313.2 L 429.7,313.7 L 432.2,314.2 L 434.7,314.6 L 437.2,315.1 L 439.7,315.6 L 442.2,316.1 L 444.7,316.5 L 447.2,317.0 L 449.7,317.5 L 452.2,317.9 L 454.6,318.4 L 457.1,318.9 L 459.6,319.3 L 462.1,319.8 L 464.6,320.2 L 467.1,320.7 L 469.6,321.1 L 472.1,321.6 L 474.6,322.0 L 477.1,322.5 L 479.6,322.9 L 482.1,323.4 L 484.6,323.8 L 487.1,324.3 L 489.6,324.7 L 492.1,325.1 L 494.6,325.6 L 497.1,326.0 L 499.6,326.4 L 502.1,326.9 L 504.6,327.3 L 507.1,327.7 L 509.6,328.2 L 512.1,328.6 L 514.6,329.0 L 517.1,329.5 L 519.6,329.9 L 522.1,330.3 L 524.6,330.8 L 527.1,331.2 L 529.6,331.6 L 532.1,332.1 L 534.6,332.5 L 537.1,332.9 L 539.6,333.4 L 542.1,333.8 L 544.6,334.3 L 547.1,334.7 L 549.6,335.1 L 552.1,335.6 L 554.6,336.0 L 557.1,336.5 L 559.6,336.9 L 562.1,337.4 L 564.5,337.9 L 567.0,338.3 L 569.5,338.8 L 572.0,339.2 L 574.5,339.7 L 577.0,340.1 L 579.5,340.5 L 582.0,340.9 L 584.5,341.4 L 587.0,341.8 L 589.5,342.1 L 592.0,342.5 L 594.5,342.9 L 597.0,343.3 L 599.5,343.6 L 602.0,343.9 L 604.5,344.3 L 607.0,344.6 L 609.5,344.9 L 612.0,345.2 L 614.5,345.5 L 617.0,345.7" class="sig"/>
<path d="M 75.5,307.0 L 80.9,284.2 L 86.4,267.7 L 91.9,254.6 L 97.3,243.7 L 102.8,234.6 L 108.3,226.8 L 113.8,220.2 L 119.2,214.6 L 124.7,209.8 L 130.2,205.3 L 135.6,200.9 L 141.1,196.7 L 146.6,192.6 L 152.1,188.8 L 157.5,185.1 L 163.0,181.6 L 168.5,178.2 L 173.9,175.1 L 179.4,172.1 L 184.9,169.2 L 190.3,166.6 L 195.8,164.1 L 201.3,161.7 L 206.8,159.5 L 212.2,157.5 L 217.7,155.6 L 223.2,153.8 L 228.6,152.2 L 234.1,150.7 L 239.6,149.3 L 245.0,147.8 L 250.5,146.3 L 256.0,144.8 L 261.4,143.2 L 266.9,141.6 L 272.4,140.1 L 277.9,138.5 L 283.3,137.0 L 288.8,135.5 L 294.3,133.9 L 299.7,132.4 L 305.2,130.9 L 310.7,129.4 L 316.1,128.0 L 321.6,126.5 L 327.1,125.1 L 332.6,123.7 L 338.0,122.3 L 343.5,120.9 L 349.0,119.5 L 354.4,118.2 L 359.9,116.9 L 365.4,115.6 L 370.9,114.3 L 376.3,113.0 L 381.8,111.8 L 387.3,110.5 L 392.7,109.3 L 398.2,108.1 L 403.7,107.0 L 409.1,105.8 L 414.6,104.7 L 420.1,103.6 L 425.6,102.5 L 431.0,101.5 L 436.5,100.4 L 442.0,99.4 L 447.4,98.4 L 452.9,97.4 L 458.4,96.4 L 463.8,95.5 L 469.3,94.6 L 474.8,93.6 L 480.3,92.8 L 485.7,91.9 L 491.2,91.0 L 496.7,90.2 L 502.1,89.4 L 507.6,88.6 L 513.1,87.8 L 518.5,87.1 L 524.0,86.3 L 529.5,85.6 L 535.0,84.9 L 540.4,84.3 L 545.9,83.6 L 551.4,83.0 L 556.8,82.3 L 562.3,81.7 L 567.8,81.2 L 573.2,81.1 L 578.7,81.4 L 584.2,82.1 L 589.6,83.3 L 595.1,84.8 L 600.6,86.2 L 606.1,87.7 L 611.5,89.1 L 617.0,90.4" class="nt"/>
<path d="M 74.6,337.4 L 79.1,317.0 L 83.7,295.0 L 88.2,274.2 L 92.8,254.9 L 97.3,237.6 L 101.9,222.1 L 106.5,208.7 L 111.0,197.0 L 115.6,187.1 L 120.1,178.8 L 124.7,171.7 L 129.3,165.6 L 133.8,160.1 L 138.4,155.1 L 142.9,150.3 L 147.5,145.7 L 152.1,141.3 L 156.6,137.1 L 161.2,133.0 L 165.7,129.2 L 170.3,125.6 L 174.8,122.2 L 179.4,119.1 L 184.0,116.4 L 188.5,114.0 L 193.1,111.9 L 197.6,110.2 L 202.2,108.9 L 206.8,108.0 L 211.3,107.5 L 215.9,107.5 L 220.4,108.0 L 225.0,108.9 L 229.5,110.2 L 234.1,111.8 L 238.7,113.5 L 243.2,115.3 L 247.8,117.0 L 252.3,118.5 L 256.9,119.9 L 261.4,121.0 L 266.0,121.9 L 270.6,122.7 L 275.1,123.3 L 279.7,123.9 L 284.2,124.3 L 288.8,124.7 L 293.4,125.0 L 297.9,125.2 L 302.5,125.3 L 307.0,125.4 L 311.6,125.5 L 316.1,125.5 L 320.7,125.4 L 325.3,125.4 L 329.8,125.3 L 334.4,125.2 L 338.9,125.0 L 343.5,124.8 L 348.1,124.6 L 352.6,124.4 L 357.2,124.2 L 361.7,124.0 L 366.3,123.7 L 370.9,123.5 L 375.4,123.2 L 380.0,122.9 L 384.5,122.6 L 389.1,122.4 L 393.6,122.1 L 398.2,121.8 L 402.8,121.5 L 407.3,121.1 L 411.9,120.8 L 416.4,120.5 L 421.0,120.2 L 425.6,119.8 L 430.1,119.5 L 434.7,119.1 L 439.2,118.7 L 443.8,118.4 L 448.3,118.0 L 452.9,117.6 L 457.5,117.1 L 462.0,116.7 L 466.6,116.2 L 471.1,115.7 L 475.7,115.1 L 480.3,114.5 L 484.8,113.8 L 489.4,113.1 L 493.9,112.4 L 498.5,111.5 L 503.0,110.6 L 507.6,109.5 L 512.2,108.4 L 516.7,107.1 L 521.3,105.6 L 525.8,104.0 L 530.4,102.2 L 535.0,100.2 L 539.5,98.0 L 544.1,95.7 L 548.6,93.2 L 553.2,90.9 L 557.7,88.8 L 562.3,87.3 L 566.9,86.8 L 571.4,87.4 L 576.0,89.4 L 580.5,92.7 L 585.1,97.1 L 589.6,102.4 L 594.2,108.1 L 598.8,114.1 L 603.3,120.0 L 607.9,125.8 L 612.4,131.3 L 617.0,136.6" class="fw"/>
<line x1="79.67" y1="308.68" x2="79.67" y2="339.35" class="err"/>
<line x1="76.67" y1="308.68" x2="82.67" y2="308.68" class="err"/>
<line x1="76.67" y1="339.35" x2="82.67" y2="339.35" class="err"/>
<circle cx="79.67" cy="324.01" r="2.5" class="obs"/>
<line x1="84.74" y1="271.10" x2="84.74" y2="312.85" class="err"/>
<line x1="81.74" y1="271.10" x2="87.74" y2="271.10" class="err"/>
<line x1="81.74" y1="312.85" x2="87.74" y2="312.85" class="err"/>
<circle cx="84.74" cy="291.98" r="2.5" class="obs"/>
<line x1="89.81" y1="260.74" x2="89.81" y2="299.18" class="err"/>
<line x1="86.81" y1="260.74" x2="92.81" y2="260.74" class="err"/>
<line x1="86.81" y1="299.18" x2="92.81" y2="299.18" class="err"/>
<circle cx="89.81" cy="279.96" r="2.5" class="obs"/>
<line x1="94.87" y1="236.57" x2="94.87" y2="276.71" class="err"/>
<line x1="91.87" y1="236.57" x2="97.87" y2="236.57" class="err"/>
<line x1="91.87" y1="276.71" x2="97.87" y2="276.71" class="err"/>
<circle cx="94.87" cy="256.64" r="2.5" class="obs"/>
<line x1="99.48" y1="212.12" x2="99.48" y2="244.63" class="err"/>
<line x1="96.48" y1="212.12" x2="102.48" y2="212.12" class="err"/>
<line x1="96.48" y1="244.63" x2="102.48" y2="244.63" class="err"/>
<circle cx="99.48" cy="228.37" r="2.5" class="obs"/>
<line x1="104.09" y1="193.16" x2="104.09" y2="238.15" class="err"/>
<line x1="101.09" y1="193.16" x2="107.09" y2="193.16" class="err"/>
<line x1="101.09" y1="238.15" x2="107.09" y2="238.15" class="err"/>
<circle cx="104.09" cy="215.65" r="2.5" class="obs"/>
<line x1="109.15" y1="175.56" x2="109.15" y2="215.70" class="err"/>
<line x1="106.15" y1="175.56" x2="112.15" y2="175.56" class="err"/>
<line x1="106.15" y1="215.70" x2="112.15" y2="215.70" class="err"/>
<circle cx="109.15" cy="195.63" r="2.5" class="obs"/>
<line x1="114.22" y1="168.96" x2="114.22" y2="201.09" class="err"/>
<line x1="111.22" y1="168.96" x2="117.22" y2="168.96" class="err"/>
<line x1="111.22" y1="201.09" x2="117.22" y2="201.09" class="err"/>
<circle cx="114.22" cy="185.03" r="2.5" class="obs"/>
<line x1="119.29" y1="165.36" x2="119.29" y2="196.69" class="err"/>
<line x1="116.29" y1="165.36" x2="122.29" y2="165.36" class="err"/>
<line x1="116.29" y1="196.69" x2="122.29" y2="196.69" class="err"/>
<circle cx="119.29" cy="181.02" r="2.5" class="obs"/>
<line x1="123.90" y1="160.91" x2="123.90" y2="189.83" class="err"/>
<line x1="120.90" y1="160.91" x2="126.90" y2="160.91" class="err"/>
<line x1="120.90" y1="189.83" x2="126.90" y2="189.83" class="err"/>
<circle cx="123.90" cy="175.37" r="2.5" class="obs"/>
<line x1="128.96" y1="156.29" x2="128.96" y2="183.62" class="err"/>
<line x1="125.96" y1="156.29" x2="131.96" y2="156.29" class="err"/>
<line x1="125.96" y1="183.62" x2="131.96" y2="183.62" class="err"/>
<circle cx="128.96" cy="169.95" r="2.5" class="obs"/>
<line x1="133.57" y1="148.09" x2="133.57" y2="178.62" class="err"/>
<line x1="130.57" y1="148.09" x2="136.57" y2="148.09" class="err"/>
<line x1="130.57" y1="178.62" x2="136.57" y2="178.62" class="err"/>
<circle cx="133.57" cy="163.36" r="2.5" class="obs"/>
<line x1="138.18" y1="140.04" x2="138.18" y2="175.37" class="err"/>
<line x1="135.18" y1="140.04" x2="141.18" y2="140.04" class="err"/>
<line x1="135.18" y1="175.37" x2="141.18" y2="175.37" class="err"/>
<circle cx="138.18" cy="157.70" r="2.5" class="obs"/>
<line x1="143.24" y1="128.21" x2="143.24" y2="168.35" class="err"/>
<line x1="140.24" y1="128.21" x2="146.24" y2="128.21" class="err"/>
<line x1="140.24" y1="168.35" x2="146.24" y2="168.35" class="err"/>
<circle cx="143.24" cy="148.28" r="2.5" class="obs"/>
<line x1="148.31" y1="127.27" x2="148.31" y2="167.41" class="err"/>
<line x1="145.31" y1="127.27" x2="151.31" y2="127.27" class="err"/>
<line x1="145.31" y1="167.41" x2="151.31" y2="167.41" class="err"/>
<circle cx="148.31" cy="147.34" r="2.5" class="obs"/>
<line x1="152.92" y1="119.31" x2="152.92" y2="162.65" class="err"/>
<line x1="149.92" y1="119.31" x2="155.92" y2="119.31" class="err"/>
<line x1="149.92" y1="162.65" x2="155.92" y2="162.65" class="err"/>
<circle cx="152.92" cy="140.98" r="2.5" class="obs"/>
<line x1="157.98" y1="117.61" x2="157.98" y2="157.75" class="err"/>
<line x1="154.98" y1="117.61" x2="160.98" y2="117.61" class="err"/>
<line x1="154.98" y1="157.75" x2="160.98" y2="157.75" class="err"/>
<circle cx="157.98" cy="137.68" r="2.5" class="obs"/>
<line x1="163.05" y1="106.21" x2="163.05" y2="147.95" class="err"/>
<line x1="160.05" y1="106.21" x2="166.05" y2="106.21" class="err"/>
<line x1="160.05" y1="147.95" x2="166.05" y2="147.95" class="err"/>
<circle cx="163.05" cy="127.08" r="2.5" class="obs"/>
<line x1="168.12" y1="107.17" x2="168.12" y2="152.17" class="err"/>
<line x1="165.12" y1="107.17" x2="171.12" y2="107.17" class="err"/>
<line x1="165.12" y1="152.17" x2="171.12" y2="152.17" class="err"/>
<circle cx="168.12" cy="129.67" r="2.5" class="obs"/>
<line x1="172.72" y1="103.10" x2="172.72" y2="141.64" class="err"/>
<line x1="169.72" y1="103.10" x2="175.72" y2="103.10" class="err"/>
<line x1="169.72" y1="141.64" x2="175.72" y2="141.64" class="err"/>
<circle cx="172.72" cy="122.37" r="2.5" class="obs"/>
<line x1="177.79" y1="99.94" x2="177.79" y2="140.08" class="err"/>
<line x1="174.79" y1="99.94" x2="180.79" y2="99.94" class="err"/>
<line x1="174.79" y1="140.08" x2="180.79" y2="140.08" class="err"/>
<circle cx="177.79" cy="120.01" r="2.5" class="obs"/>
<line x1="182.40" y1="91.27" x2="182.40" y2="134.62" class="err"/>
<line x1="179.40" y1="91.27" x2="185.40" y2="91.27" class="err"/>
<line x1="179.40" y1="134.62" x2="185.40" y2="134.62" class="err"/>
<circle cx="182.40" cy="112.95" r="2.5" class="obs"/>
<line x1="187.00" y1="90.45" x2="187.00" y2="135.44" class="err"/>
<line x1="184.00" y1="90.45" x2="190.00" y2="90.45" class="err"/>
<line x1="184.00" y1="135.44" x2="190.00" y2="135.44" class="err"/>
<circle cx="187.00" cy="112.95" r="2.5" class="obs"/>
<line x1="192.07" y1="88.92" x2="192.07" y2="141.69" class="err"/>
<line x1="189.07" y1="88.92" x2="195.07" y2="88.92" class="err"/>
<line x1="189.07" y1="141.69" x2="195.07" y2="141.69" class="err"/>
<circle cx="192.07" cy="115.30" r="2.5" class="obs"/>
<line x1="197.14" y1="86.56" x2="197.14" y2="139.33" class="err"/>
<line x1="194.14" y1="86.56" x2="200.14" y2="86.56" class="err"/>
<line x1="194.14" y1="139.33" x2="200.14" y2="139.33" class="err"/>
<circle cx="197.14" cy="112.95" r="2.5" class="obs"/>
<line x1="395.68" y1="112.69" x2="395.68" y2="127.34" class="err"/>
<line x1="392.68" y1="112.69" x2="398.68" y2="112.69" class="err"/>
<line x1="392.68" y1="127.34" x2="398.68" y2="127.34" class="err"/>
<circle cx="395.68" cy="120.01" r="2.5" class="obs"/>
<line x1="461.09" y1="109.30" x2="461.09" y2="121.31" class="err"/>
<line x1="458.09" y1="109.30" x2="464.09" y2="109.30" class="err"/>
<line x1="458.09" y1="121.31" x2="464.09" y2="121.31" class="err"/>
<circle cx="461.09" cy="115.30" r="2.5" class="obs"/>
<line x1="526.50" y1="96.57" x2="526.50" y2="119.90" class="err"/>
<line x1="523.50" y1="96.57" x2="529.50" y2="96.57" class="err"/>
<line x1="523.50" y1="119.90" x2="529.50" y2="119.90" class="err"/>
<circle cx="526.50" cy="108.23" r="2.5" class="obs"/>
<line x1="589.15" y1="99.21" x2="589.15" y2="112.55" class="err"/>
<line x1="586.15" y1="99.21" x2="592.15" y2="99.21" class="err"/>
<line x1="586.15" y1="112.55" x2="592.15" y2="112.55" class="err"/>
<circle cx="589.15" cy="105.88" r="2.5" class="obs"/>
<g class="legend">
<line x1="82" y1="69" x2="106" y2="69" class="fw"/>
<text x="112" y="73" class="lbl-l">framework fit</text>
<line x1="82" y1="87" x2="106" y2="87" class="nt"/>
<text x="112" y="91" class="lbl-l">Newtonian (no halo)</text>
<circle cx="94" cy="105" r="2.5" class="obs"/>
<text x="112" y="109" class="lbl">observed V±err</text>
</g>
<g class="legend">
<line x1="442" y1="69" x2="466" y2="69" class="rho"/>
<text x="472" y="73" class="lbl-r">ρ(r) raw</text>
<line x1="442" y1="87" x2="466" y2="87" class="sig"/>
<text x="472" y="91" class="lbl-s">Σ(r) cumulative</text>
<text x="442" y="113" class="lbl-r">ρ peak: 390 M☉/pc²</text>
</g>
<rect x="705" y="55" width="170" height="170" class="preview-bg"/>
<defs><radialGradient id="g_NGC0024" cx="0.5" cy="0.5" r="0.5">
  <stop offset="0.0000" stop-color="rgb(143,143,143)"/>
  <stop offset="0.0313" stop-color="rgb(128,128,128)"/>
  <stop offset="0.0625" stop-color="rgb(114,114,114)"/>
  <stop offset="0.0938" stop-color="rgb(99,99,99)"/>
  <stop offset="0.1250" stop-color="rgb(93,93,93)"/>
  <stop offset="0.1563" stop-color="rgb(89,89,89)"/>
  <stop offset="0.1875" stop-color="rgb(85,85,85)"/>
  <stop offset="0.2188" stop-color="rgb(81,81,81)"/>
  <stop offset="0.2500" stop-color="rgb(77,77,77)"/>
  <stop offset="0.2813" stop-color="rgb(73,73,73)"/>
  <stop offset="0.3125" stop-color="rgb(70,70,70)"/>
  <stop offset="0.3438" stop-color="rgb(69,69,69)"/>
  <stop offset="0.3750" stop-color="rgb(68,68,68)"/>
  <stop offset="0.4063" stop-color="rgb(68,68,68)"/>
  <stop offset="0.4375" stop-color="rgb(67,67,67)"/>
  <stop offset="0.4688" stop-color="rgb(66,66,66)"/>
  <stop offset="0.5000" stop-color="rgb(66,66,66)"/>
  <stop offset="0.5313" stop-color="rgb(65,65,65)"/>
  <stop offset="0.5625" stop-color="rgb(64,64,64)"/>
  <stop offset="0.5938" stop-color="rgb(63,63,63)"/>
  <stop offset="0.6250" stop-color="rgb(61,61,61)"/>
  <stop offset="0.6563" stop-color="rgb(60,60,60)"/>
  <stop offset="0.6875" stop-color="rgb(58,58,58)"/>
  <stop offset="0.7188" stop-color="rgb(56,56,56)"/>
  <stop offset="0.7500" stop-color="rgb(55,55,55)"/>
  <stop offset="0.7813" stop-color="rgb(53,53,53)"/>
  <stop offset="0.8125" stop-color="rgb(51,51,51)"/>
  <stop offset="0.8438" stop-color="rgb(49,49,49)"/>
  <stop offset="0.8750" stop-color="rgb(48,48,48)"/>
  <stop offset="0.9063" stop-color="rgb(46,46,46)"/>
  <stop offset="0.9375" stop-color="rgb(44,44,44)"/>
  <stop offset="0.9688" stop-color="rgb(27,27,27)"/>
  <stop offset="1.0000" stop-color="rgb(0,0,0)"/>
</radialGradient></defs>
<circle cx="790" cy="140" r="81" fill="url(#g_NGC0024)"/>
<text x="790" y="49" text-anchor="middle" class="preview-lbl">face-on luminance from ρ(r)</text>
<text x="790" y="239" text-anchor="middle" class="preview-lbl">edge at r = 11.3 kpc</text>
</svg>