<svg xmlns="http://www.w3.org/2000/svg" viewBox="0 0 720 420" width="720" height="420" font-family="sans-serif" font-size="12">
<style>
  .ax { stroke: #333; stroke-width: 1; fill: none; }
  .grid { stroke: #ddd; stroke-width: 0.5; fill: none; }
  .lbl { fill: #333; }
  .lbl-l { fill: #0066cc; }
  .lbl-r { fill: #b03030; }
  .obs { fill: #222; }
  .err { stroke: #555; stroke-width: 0.8; fill: none; }
  .fw { stroke: #0066cc; stroke-width: 2.2; fill: none; }
  .nt { stroke: #cc6600; stroke-width: 1.6; fill: none; stroke-dasharray: 5,3; }
  .rho { stroke: #b03030; stroke-width: 2.0; fill: none; }
  .sig { stroke: #b03030; stroke-width: 1.6; fill: none; stroke-dasharray: 4,2; opacity: 0.85; }
  .title { fill: #111; font-size: 16px; font-weight: 600; }
  .subtitle { fill: #555; font-size: 11px; }
  .legend { font-size: 11px; }
</style>
<text x="360.0" y="22" text-anchor="middle" class="title">NGC0024</text>
<text x="360.0" y="38" text-anchor="middle" class="subtitle">rMax=11.3 kpc, N=29, RMS=1.9 km/s (2.2%), amp=105</text>
<line x1="70" y1="365.0" x2="635" y2="365.0" class="grid"/>
<text x="64" y="369.0" text-anchor="end" class="lbl-l">0</text>
<line x1="70" y1="303.0" x2="635" y2="303.0" class="grid"/>
<text x="64" y="307.0" text-anchor="end" class="lbl-l">26</text>
<line x1="70" y1="241.00000000000003" x2="635" y2="241.00000000000003" class="grid"/>
<text x="64" y="245.00000000000003" text-anchor="end" class="lbl-l">53</text>
<line x1="70" y1="179.0" x2="635" y2="179.0" class="grid"/>
<text x="64" y="183.0" text-anchor="end" class="lbl-l">79</text>
<line x1="70" y1="117.00000000000003" x2="635" y2="117.00000000000003" class="grid"/>
<text x="64" y="121.00000000000003" text-anchor="end" class="lbl-l">105</text>
<line x1="70" y1="55.0" x2="635" y2="55.0" class="grid"/>
<text x="64" y="59.0" text-anchor="end" class="lbl-l">132</text>
<text x="641" y="369.0" text-anchor="start" class="lbl-r">0.0</text>
<text x="641" y="327.6666666666667" text-anchor="start" class="lbl-r">0.2</text>
<text x="641" y="286.33333333333337" text-anchor="start" class="lbl-r">0.4</text>
<text x="641" y="245.00000000000003" text-anchor="start" class="lbl-r">0.6</text>
<text x="641" y="203.66666666666666" text-anchor="start" class="lbl-r">0.8</text>
<text x="641" y="162.33333333333334" text-anchor="start" class="lbl-r">1.0</text>
<line x1="70.0" y1="55" x2="70.0" y2="365" class="grid"/>
<text x="70.0" y="381" text-anchor="middle" class="lbl">0.0</text>
<line x1="164.16666666666669" y1="55" x2="164.16666666666669" y2="365" class="grid"/>
<text x="164.16666666666669" y="381" text-anchor="middle" class="lbl">2.0</text>
<line x1="258.33333333333337" y1="55" x2="258.33333333333337" y2="365" class="grid"/>
<text x="258.33333333333337" y="381" text-anchor="middle" class="lbl">4.0</text>
<line x1="352.5" y1="55" x2="352.5" y2="365" class="grid"/>
<text x="352.5" y="381" text-anchor="middle" class="lbl">5.9</text>
<line x1="446.6666666666667" y1="55" x2="446.6666666666667" y2="365" class="grid"/>
<text x="446.6666666666667" y="381" text-anchor="middle" class="lbl">7.9</text>
<line x1="540.8333333333333" y1="55" x2="540.8333333333333" y2="365" class="grid"/>
<text x="540.8333333333333" y="381" text-anchor="middle" class="lbl">9.9</text>
<line x1="635.0" y1="55" x2="635.0" y2="365" class="grid"/>
<text x="635.0" y="381" text-anchor="middle" class="lbl">11.9</text>
<text x="352.5" y="408" text-anchor="middle" class="lbl">radius (kpc)</text>
<text x="16" y="210.0" text-anchor="middle" class="lbl-l" transform="rotate(-90, 16, 210.0)">velocity (km/s)</text>
<text x="704" y="210.0" text-anchor="middle" class="lbl-r" transform="rotate(-90, 704, 210.0)">mass profile (normalized to peak)</text>
<rect x="70" y="55" width="565" height="310" class="ax"/>
<path d="M 70.0,158.3 L 72.6,162.7 L 75.2,167.0 L 77.7,171.4 L 80.3,175.8 L 82.9,180.1 L 85.5,184.5 L 88.1,188.8 L 90.6,193.2 L 93.2,197.6 L 95.8,201.9 L 98.4,206.3 L 101.0,210.6 L 103.5,215.0 L 106.1,219.3 L 108.7,223.7 L 111.3,228.1 L 113.9,232.4 L 116.4,236.8 L 119.0,241.1 L 121.6,245.5 L 124.2,249.9 L 126.8,251.4 L 129.3,252.5 L 131.9,253.7 L 134.5,254.8 L 137.1,255.9 L 139.7,257.1 L 142.2,258.2 L 144.8,259.4 L 147.4,260.5 L 150.0,261.7 L 152.6,262.8 L 155.1,264.0 L 157.7,265.1 L 160.3,266.3 L 162.9,267.4 L 165.5,268.6 L 168.0,269.7 L 170.6,270.8 L 173.2,272.0 L 175.8,273.1 L 178.4,274.3 L 180.9,275.4 L 183.5,276.6 L 186.1,277.7 L 188.7,278.9 L 191.3,280.0 L 193.8,281.2 L 196.4,282.3 L 199.0,283.5 L 201.6,284.6 L 204.2,285.8 L 206.7,286.9 L 209.3,288.0 L 211.9,289.2 L 214.5,290.3 L 217.1,291.5 L 219.6,292.6 L 222.2,293.8 L 224.8,294.9 L 227.4,296.1 L 230.0,297.2 L 232.5,298.4 L 235.1,299.5 L 237.7,300.7 L 240.3,301.8 L 242.9,302.0 L 245.4,302.0 L 248.0,302.0 L 250.6,302.0 L 253.2,302.0 L 255.8,302.0 L 258.3,302.0 L 260.9,302.1 L 263.5,302.3 L 266.1,302.5 L 268.7,302.7 L 271.2,302.9 L 273.8,303.1 L 276.4,303.3 L 279.0,303.6 L 281.6,303.8 L 284.1,304.0 L 286.7,304.2 L 289.3,304.4 L 291.9,304.6 L 294.5,304.8 L 297.0,305.1 L 299.6,305.3 L 302.2,305.5 L 304.8,305.7 L 307.4,305.9 L 309.9,306.1 L 312.5,306.3 L 315.1,306.6 L 317.7,306.8 L 320.3,307.0 L 322.8,307.2 L 325.4,307.4 L 328.0,307.6 L 330.6,307.8 L 333.2,308.1 L 335.7,308.3 L 338.3,308.5 L 340.9,308.7 L 343.5,308.9 L 346.1,309.1 L 348.6,309.4 L 351.2,309.6 L 353.8,309.8 L 356.4,310.0 L 358.9,310.2 L 361.5,310.4 L 364.1,310.6 L 366.7,310.9 L 369.3,311.1 L 371.8,311.3 L 374.4,311.5 L 377.0,311.7 L 379.6,311.9 L 382.2,312.1 L 384.7,312.4 L 387.3,312.6 L 389.9,312.8 L 392.5,313.0 L 395.1,313.2 L 397.6,313.4 L 400.2,313.6 L 402.8,313.9 L 405.4,314.1 L 408.0,314.3 L 410.5,314.5 L 413.1,314.7 L 415.7,314.9 L 418.3,315.1 L 420.9,315.4 L 423.4,315.6 L 426.0,315.8 L 428.6,316.0 L 431.2,316.2 L 433.8,316.4 L 436.3,316.6 L 438.9,316.9 L 441.5,317.1 L 444.1,317.3 L 446.7,317.5 L 449.2,317.7 L 451.8,317.9 L 454.4,318.2 L 457.0,318.4 L 459.6,318.6 L 462.1,318.8 L 464.7,319.0 L 467.3,319.2 L 469.9,319.4 L 472.5,319.7 L 475.0,319.9 L 477.6,320.1 L 480.2,320.3 L 482.8,320.5 L 485.4,320.7 L 487.9,320.9 L 490.5,321.2 L 493.1,321.4 L 495.7,321.6 L 498.3,321.8 L 500.8,322.0 L 503.4,322.2 L 506.0,322.4 L 508.6,322.7 L 511.2,322.9 L 513.7,323.1 L 516.3,323.3 L 518.9,323.5 L 521.5,323.7 L 524.1,323.9 L 526.6,324.2 L 529.2,324.4 L 531.8,324.6 L 534.4,324.8 L 537.0,325.0 L 539.5,325.2 L 542.1,325.5 L 544.7,325.7 L 547.3,325.9 L 549.9,326.1 L 552.4,326.3 L 555.0,326.5 L 557.6,326.7 L 560.2,327.0 L 562.8,327.2 L 565.3,327.4 L 567.9,327.6 L 570.5,327.8 L 573.1,328.0 L 575.7,328.2 L 578.2,328.5 L 580.8,328.7 L 583.4,332.2 L 586.0,335.6 L 588.6,339.0 L 591.1,342.5 L 593.7,345.9 L 596.3,349.3 L 598.9,352.7 L 601.5,356.2 L 604.0,359.6 L 606.6,363.0 L 609.2,365.0 L 611.8,365.0 L 614.4,365.0 L 616.9,365.0 L 619.5,365.0 L 622.1,365.0 L 624.7,365.0 L 627.3,365.0 L 629.8,365.0 L 632.4,365.0 L 635.0,365.0" class="rho"/>
<path d="M 70.0,158.3 L 72.6,158.6 L 75.2,158.9 L 77.7,159.5 L 80.3,160.1 L 82.9,161.0 L 85.5,162.1 L 88.1,163.3 L 90.6,164.7 L 93.2,166.1 L 95.8,167.7 L 98.4,169.4 L 101.0,171.2 L 103.5,173.1 L 106.1,175.0 L 108.7,176.9 L 111.3,178.9 L 113.9,180.9 L 116.4,182.9 L 119.0,184.9 L 121.6,187.0 L 124.2,189.0 L 126.8,190.9 L 129.3,192.9 L 131.9,194.9 L 134.5,196.8 L 137.1,198.7 L 139.7,200.6 L 142.2,202.5 L 144.8,204.3 L 147.4,206.1 L 150.0,207.9 L 152.6,209.7 L 155.1,211.5 L 157.7,213.2 L 160.3,215.0 L 162.9,216.7 L 165.5,218.4 L 168.0,220.1 L 170.6,221.8 L 173.2,223.5 L 175.8,225.1 L 178.4,226.7 L 180.9,228.4 L 183.5,230.0 L 186.1,231.6 L 188.7,233.1 L 191.3,234.7 L 193.8,236.2 L 196.4,237.8 L 199.0,239.3 L 201.6,240.7 L 204.2,242.2 L 206.7,243.7 L 209.3,245.1 L 211.9,246.5 L 214.5,247.9 L 217.1,249.2 L 219.6,250.6 L 222.2,251.9 L 224.8,253.2 L 227.4,254.4 L 230.0,255.7 L 232.5,256.9 L 235.1,258.1 L 237.7,259.3 L 240.3,260.4 L 242.9,261.5 L 245.4,262.6 L 248.0,263.7 L 250.6,264.7 L 253.2,265.7 L 255.8,266.7 L 258.3,267.7 L 260.9,268.6 L 263.5,269.6 L 266.1,270.5 L 268.7,271.4 L 271.2,272.3 L 273.8,273.1 L 276.4,274.0 L 279.0,274.9 L 281.6,275.7 L 284.1,276.5 L 286.7,277.3 L 289.3,278.1 L 291.9,278.9 L 294.5,279.7 L 297.0,280.4 L 299.6,281.2 L 302.2,281.9 L 304.8,282.7 L 307.4,283.4 L 309.9,284.1 L 312.5,284.8 L 315.1,285.5 L 317.7,286.2 L 320.3,286.9 L 322.8,287.6 L 325.4,288.3 L 328.0,289.0 L 330.6,289.6 L 333.2,290.3 L 335.7,290.9 L 338.3,291.6 L 340.9,292.2 L 343.5,292.8 L 346.1,293.5 L 348.6,294.1 L 351.2,294.7 L 353.8,295.3 L 356.4,295.9 L 358.9,296.5 L 361.5,297.1 L 364.1,297.7 L 366.7,298.3 L 369.3,298.9 L 371.8,299.4 L 374.4,300.0 L 377.0,300.6 L 379.6,301.2 L 382.2,301.7 L 384.7,302.3 L 387.3,302.8 L 389.9,303.4 L 392.5,303.9 L 395.1,304.5 L 397.6,305.0 L 400.2,305.5 L 402.8,306.1 L 405.4,306.6 L 408.0,307.1 L 410.5,307.7 L 413.1,308.2 L 415.7,308.7 L 418.3,309.2 L 420.9,309.7 L 423.4,310.2 L 426.0,310.7 L 428.6,311.2 L 431.2,311.7 L 433.8,312.2 L 436.3,312.7 L 438.9,313.2 L 441.5,313.7 L 444.1,314.2 L 446.7,314.6 L 449.2,315.1 L 451.8,315.6 L 454.4,316.1 L 457.0,316.5 L 459.6,317.0 L 462.1,317.5 L 464.7,317.9 L 467.3,318.4 L 469.9,318.9 L 472.5,319.3 L 475.0,319.8 L 477.6,320.2 L 480.2,320.7 L 482.8,321.1 L 485.4,321.6 L 487.9,322.0 L 490.5,322.5 L 493.1,322.9 L 495.7,323.4 L 498.3,323.8 L 500.8,324.3 L 503.4,324.7 L 506.0,325.1 L 508.6,325.6 L 511.2,326.0 L 513.7,326.4 L 516.3,326.9 L 518.9,327.3 L 521.5,327.7 L 524.1,328.2 L 526.6,328.6 L 529.2,329.0 L 531.8,329.5 L 534.4,329.9 L 537.0,330.3 L 539.5,330.8 L 542.1,331.2 L 544.7,331.6 L 547.3,332.1 L 549.9,332.5 L 552.4,332.9 L 555.0,333.4 L 557.6,333.8 L 560.2,334.3 L 562.8,334.7 L 565.3,335.1 L 567.9,335.6 L 570.5,336.0 L 573.1,336.5 L 575.7,336.9 L 578.2,337.4 L 580.8,337.9 L 583.4,338.3 L 586.0,338.8 L 588.6,339.2 L 591.1,339.7 L 593.7,340.1 L 596.3,340.5 L 598.9,340.9 L 601.5,341.4 L 604.0,341.8 L 606.6,342.1 L 609.2,342.5 L 611.8,342.9 L 614.4,343.3 L 616.9,343.6 L 619.5,343.9 L 622.1,344.3 L 624.7,344.6 L 627.3,344.9 L 629.8,345.2 L 632.4,345.5 L 635.0,345.7" class="sig"/>
<path d="M 75.7,307.0 L 81.3,284.2 L 87.0,267.7 L 92.6,254.6 L 98.2,243.7 L 103.9,234.6 L 109.6,226.8 L 115.2,220.2 L 120.8,214.6 L 126.5,209.8 L 132.2,205.3 L 137.8,200.9 L 143.4,196.7 L 149.1,192.6 L 154.8,188.8 L 160.4,185.1 L 166.1,181.6 L 171.7,178.2 L 177.3,175.1 L 183.0,172.1 L 188.6,169.2 L 194.3,166.6 L 199.9,164.1 L 205.6,161.7 L 211.2,159.5 L 216.9,157.5 L 222.5,155.6 L 228.2,153.8 L 233.8,152.2 L 239.5,150.7 L 245.2,149.3 L 250.8,147.8 L 256.5,146.3 L 262.1,144.8 L 267.8,143.2 L 273.4,141.6 L 279.1,140.1 L 284.7,138.5 L 290.4,137.0 L 296.0,135.5 L 301.6,133.9 L 307.3,132.4 L 312.9,130.9 L 318.6,129.4 L 324.2,128.0 L 329.9,126.5 L 335.6,125.1 L 341.2,123.7 L 346.9,122.3 L 352.5,120.9 L 358.1,119.5 L 363.8,118.2 L 369.4,116.9 L 375.1,115.6 L 380.8,114.3 L 386.4,113.0 L 392.0,111.8 L 397.7,110.5 L 403.4,109.3 L 409.0,108.1 L 414.6,107.0 L 420.3,105.8 L 425.9,104.7 L 431.6,103.6 L 437.2,102.5 L 442.9,101.5 L 448.6,100.4 L 454.2,99.4 L 459.8,98.4 L 465.5,97.4 L 471.2,96.4 L 476.8,95.5 L 482.4,94.6 L 488.1,93.6 L 493.8,92.8 L 499.4,91.9 L 505.1,91.0 L 510.7,90.2 L 516.4,89.4 L 522.0,88.6 L 527.6,87.8 L 533.3,87.1 L 539.0,86.3 L 544.6,85.6 L 550.2,84.9 L 555.9,84.3 L 561.5,83.6 L 567.2,83.0 L 572.9,82.3 L 578.5,81.7 L 584.1,81.2 L 589.8,81.1 L 595.5,81.4 L 601.1,82.1 L 606.8,83.3 L 612.4,84.8 L 618.0,86.2 L 623.7,87.7 L 629.4,89.1 L 635.0,90.4" class="nt"/>
<path d="M 74.7,337.4 L 79.4,317.0 L 84.1,295.0 L 88.8,274.2 L 93.5,254.9 L 98.2,237.6 L 103.0,222.1 L 107.7,208.7 L 112.4,197.0 L 117.1,187.1 L 121.8,178.8 L 126.5,171.7 L 131.2,165.6 L 135.9,160.1 L 140.6,155.1 L 145.3,150.3 L 150.0,145.7 L 154.8,141.3 L 159.5,137.1 L 164.2,133.0 L 168.9,129.2 L 173.6,125.6 L 178.3,122.2 L 183.0,119.1 L 187.7,116.4 L 192.4,114.0 L 197.1,111.9 L 201.8,110.2 L 206.5,108.9 L 211.2,108.0 L 216.0,107.5 L 220.7,107.5 L 225.4,108.0 L 230.1,108.9 L 234.8,110.2 L 239.5,111.8 L 244.2,113.5 L 248.9,115.3 L 253.6,117.0 L 258.3,118.5 L 263.0,119.9 L 267.8,121.0 L 272.5,121.9 L 277.2,122.7 L 281.9,123.3 L 286.6,123.9 L 291.3,124.3 L 296.0,124.7 L 300.7,125.0 L 305.4,125.2 L 310.1,125.3 L 314.8,125.4 L 319.5,125.5 L 324.2,125.5 L 329.0,125.4 L 333.7,125.4 L 338.4,125.3 L 343.1,125.2 L 347.8,125.0 L 352.5,124.8 L 357.2,124.6 L 361.9,124.4 L 366.6,124.2 L 371.3,124.0 L 376.0,123.7 L 380.8,123.5 L 385.5,123.2 L 390.2,122.9 L 394.9,122.6 L 399.6,122.4 L 404.3,122.1 L 409.0,121.8 L 413.7,121.5 L 418.4,121.1 L 423.1,120.8 L 427.8,120.5 L 432.5,120.2 L 437.2,119.8 L 442.0,119.5 L 446.7,119.1 L 451.4,118.7 L 456.1,118.4 L 460.8,118.0 L 465.5,117.6 L 470.2,117.1 L 474.9,116.7 L 479.6,116.2 L 484.3,115.7 L 489.0,115.1 L 493.8,114.5 L 498.5,113.8 L 503.2,113.1 L 507.9,112.4 L 512.6,111.5 L 517.3,110.6 L 522.0,109.5 L 526.7,108.4 L 531.4,107.1 L 536.1,105.6 L 540.8,104.0 L 545.5,102.2 L 550.2,100.2 L 555.0,98.0 L 559.7,95.7 L 564.4,93.2 L 569.1,90.9 L 573.8,88.8 L 578.5,87.3 L 583.2,86.8 L 587.9,87.4 L 592.6,89.4 L 597.3,92.7 L 602.0,97.1 L 606.8,102.4 L 611.5,108.1 L 616.2,114.1 L 620.9,120.0 L 625.6,125.8 L 630.3,131.3 L 635.0,136.6" class="fw"/>
<line x1="79.99188688538841" y1="308.6765909643807" x2="79.99188688538841" y2="339.34705460485594" class="err"/>
<line x1="76.99188688538841" y1="308.6765909643807" x2="82.99188688538841" y2="308.6765909643807" class="err"/>
<line x1="76.99188688538841" y1="339.34705460485594" x2="82.99188688538841" y2="339.34705460485594" class="err"/>
<circle cx="79.99188688538841" cy="324.0118227846183" r="2.5" class="obs"/>
<line x1="85.22573239678235" y1="271.1040951836141" x2="85.22573239678235" y2="312.84607795697985" class="err"/>
<line x1="82.22573239678235" y1="271.1040951836141" x2="88.22573239678235" y2="271.1040951836141" class="err"/>
<line x1="82.22573239678235" y1="312.84607795697985" x2="88.22573239678235" y2="312.84607795697985" class="err"/>
<circle cx="85.22573239678235" cy="291.975086570297" r="2.5" class="obs"/>
<line x1="90.45957790817627" y1="260.7392687613337" x2="90.45957790817627" y2="299.1833522185193" class="err"/>
<line x1="87.45957790817627" y1="260.7392687613337" x2="93.45957790817627" y2="260.7392687613337" class="err"/>
<line x1="87.45957790817627" y1="299.1833522185193" x2="93.45957790817627" y2="299.1833522185193" class="err"/>
<circle cx="90.45957790817627" cy="279.9613104899265" r="2.5" class="obs"/>
<line x1="95.69342341957021" y1="236.57037805847068" x2="95.69342341957021" y2="276.71052402112036" class="err"/>
<line x1="92.69342341957021" y1="236.57037805847068" x2="98.69342341957021" y2="236.57037805847068" class="err"/>
<line x1="92.69342341957021" y1="276.71052402112036" x2="98.69342341957021" y2="276.71052402112036" class="err"/>
<circle cx="95.69342341957021" cy="256.6404510397955" r="2.5" class="obs"/>
<line x1="100.45146479356468" y1="212.11881027136366" x2="100.45146479356468" y2="244.626674959425" class="err"/>
<line x1="97.45146479356468" y1="212.11881027136366" x2="103.45146479356468" y2="212.11881027136366" class="err"/>
<line x1="97.45146479356468" y1="244.626674959425" x2="103.45146479356468" y2="244.626674959425" class="err"/>
<circle cx="100.45146479356468" cy="228.37274261539434" r="2.5" class="obs"/>
<line x1="105.20950616755917" y1="193.1558892033279" x2="105.20950616755917" y2="238.1486584454998" class="err"/>
<line x1="102.20950616755917" y1="193.1558892033279" x2="108.20950616755917" y2="193.1558892033279" class="err"/>
<line x1="102.20950616755917" y1="238.1486584454998" x2="108.20950616755917" y2="238.1486584454998" class="err"/>
<circle cx="105.20950616755917" cy="215.6522738244138" r="2.5" class="obs"/>
<line x1="110.44335167895309" y1="175.55924070913818" x2="110.44335167895309" y2="215.6993866717878" class="err"/>
<line x1="107.44335167895309" y1="175.55924070913818" x2="113.44335167895309" y2="175.55924070913818" class="err"/>
<line x1="107.44335167895309" y1="215.6993866717878" x2="113.44335167895309" y2="215.6993866717878" class="err"/>
<circle cx="110.44335167895309" cy="195.62931369046296" r="2.5" class="obs"/>
<line x1="115.67719719034702" y1="168.96344207677788" x2="115.67719719034702" y2="201.09440398584718" class="err"/>
<line x1="112.67719719034702" y1="168.96344207677788" x2="118.67719719034702" y2="168.96344207677788" class="err"/>
<line x1="112.67719719034702" y1="201.09440398584718" x2="118.67719719034702" y2="201.09440398584718" class="err"/>
<circle cx="115.67719719034702" cy="185.02892303131256" r="2.5" class="obs"/>
<line x1="120.91104270174097" y1="165.35930925266672" x2="120.91104270174097" y2="196.68935275637807" class="err"/>
<line x1="117.91104270174097" y1="165.35930925266672" x2="123.91104270174097" y2="165.35930925266672" class="err"/>
<line x1="117.91104270174097" y1="196.68935275637807" x2="123.91104270174097" y2="196.68935275637807" class="err"/>
<circle cx="120.91104270174097" cy="181.02433100452242" r="2.5" class="obs"/>
<line x1="125.66908407573544" y1="160.9071451758236" x2="125.66908407573544" y2="189.83443346346078" class="err"/>
<line x1="122.66908407573544" y1="160.9071451758236" x2="128.66908407573544" y2="160.9071451758236" class="err"/>
<line x1="122.66908407573544" y1="189.83443346346078" x2="128.66908407573544" y2="189.83443346346078" class="err"/>
<circle cx="125.66908407573544" cy="175.37078931964217" r="2.5" class="obs"/>
<line x1="130.90292958712936" y1="156.2900861331714" x2="130.90292958712936" y2="183.6155376100925" class="err"/>
<line x1="127.90292958712936" y1="156.2900861331714" x2="133.90292958712936" y2="156.2900861331714" class="err"/>
<line x1="127.90292958712936" y1="183.6155376100925" x2="133.90292958712936" y2="183.6155376100925" class="err"/>
<circle cx="130.90292958712936" cy="169.95281187163195" r="2.5" class="obs"/>
<line x1="135.66097096112384" y1="148.09245069009506" x2="135.66097096112384" y2="178.6215757884483" class="err"/>
<line x1="132.66097096112384" y1="148.09245069009506" x2="138.66097096112384" y2="148.09245069009506" class="err"/>
<line x1="132.66097096112384" y1="178.6215757884483" x2="138.66097096112384" y2="178.6215757884483" class="err"/>
<circle cx="135.66097096112384" cy="163.35701323927168" r="2.5" class="obs"/>
<line x1="140.41901233511834" y1="140.0361537891407" x2="140.41901233511834" y2="175.37078931964217" class="err"/>
<line x1="137.41901233511834" y1="140.0361537891407" x2="143.41901233511834" y2="140.0361537891407" class="err"/>
<line x1="137.41901233511834" y1="175.37078931964217" x2="143.41901233511834" y2="175.37078931964217" class="err"/>
<circle cx="140.41901233511834" cy="157.7034715543914" r="2.5" class="obs"/>
<line x1="145.65285784651226" y1="128.21082909826623" x2="145.65285784651226" y2="168.35097506091586" class="err"/>
<line x1="142.65285784651226" y1="128.21082909826623" x2="148.65285784651226" y2="128.21082909826623" class="err"/>
<line x1="142.65285784651226" y1="168.35097506091586" x2="148.65285784651226" y2="168.35097506091586" class="err"/>
<circle cx="145.65285784651226" cy="148.28090207959102" r="2.5" class="obs"/>
<line x1="150.88670335790619" y1="127.26857215078616" x2="150.88670335790619" y2="167.4087181134358" class="err"/>
<line x1="147.88670335790619" y1="127.26857215078616" x2="153.88670335790619" y2="127.26857215078616" class="err"/>
<line x1="147.88670335790619" y1="167.4087181134358" x2="153.88670335790619" y2="167.4087181134358" class="err"/>
<circle cx="150.88670335790619" cy="147.33864513211097" r="2.5" class="obs"/>
<line x1="155.6447447319007" y1="119.30650094457984" x2="155.6447447319007" y2="162.65032052866167" class="err"/>
<line x1="152.6447447319007" y1="119.30650094457984" x2="158.6447447319007" y2="119.30650094457984" class="err"/>
<line x1="152.6447447319007" y1="162.65032052866167" x2="158.6447447319007" y2="162.65032052866167" class="err"/>
<circle cx="155.6447447319007" cy="140.97841073662076" r="2.5" class="obs"/>
<line x1="160.87859024329458" y1="117.61043843911577" x2="160.87859024329458" y2="157.75058440176542" class="err"/>
<line x1="157.87859024329458" y1="117.61043843911577" x2="163.87859024329458" y2="117.61043843911577" class="err"/>
<line x1="157.87859024329458" y1="157.75058440176542" x2="163.87859024329458" y2="157.75058440176542" class="err"/>
<circle cx="160.87859024329458" cy="137.6805114204406" r="2.5" class="obs"/>
<line x1="166.11243575468853" y1="106.2091293746073" x2="166.11243575468853" y2="147.95111214797302" class="err"/>
<line x1="163.11243575468853" y1="106.2091293746073" x2="169.11243575468853" y2="106.2091293746073" class="err"/>
<line x1="163.11243575468853" y1="147.95111214797302" x2="169.11243575468853" y2="147.95111214797302" class="err"/>
<circle cx="166.11243575468853" cy="127.08012076129015" r="2.5" class="obs"/>
<line x1="171.34628126608249" y1="107.17494274577433" x2="171.34628126608249" y2="152.16771198794618" class="err"/>
<line x1="168.34628126608249" y1="107.17494274577433" x2="174.34628126608249" y2="107.17494274577433" class="err"/>
<line x1="168.34628126608249" y1="152.16771198794618" x2="174.34628126608249" y2="152.16771198794618" class="err"/>
<circle cx="171.34628126608249" cy="129.67132736686028" r="2.5" class="obs"/>
<line x1="176.10432264007693" y1="103.09968144792316" x2="176.10432264007693" y2="141.63799059985678" class="err"/>
<line x1="173.10432264007693" y1="103.09968144792316" x2="179.10432264007693" y2="103.09968144792316" class="err"/>
<line x1="173.10432264007693" y1="141.63799059985678" x2="179.10432264007693" y2="141.63799059985678" class="err"/>
<circle cx="176.10432264007693" cy="122.36883602388997" r="2.5" class="obs"/>
<line x1="181.33816815147088" y1="99.94312067386505" x2="181.33816815147088" y2="140.08326663651468" class="err"/>
<line x1="178.33816815147088" y1="99.94312067386505" x2="184.33816815147088" y2="99.94312067386505" class="err"/>
<line x1="178.33816815147088" y1="140.08326663651468" x2="184.33816815147088" y2="140.08326663651468" class="err"/>
<circle cx="181.33816815147088" cy="120.01319365518988" r="2.5" class="obs"/>
<line x1="186.09620952546538" y1="91.27435675704868" x2="186.09620952546538" y2="134.61817634113046" class="err"/>
<line x1="183.09620952546538" y1="91.27435675704868" x2="189.09620952546538" y2="91.27435675704868" class="err"/>
<line x1="183.09620952546538" y1="134.61817634113046" x2="189.09620952546538" y2="134.61817634113046" class="err"/>
<circle cx="186.09620952546538" cy="112.94626654908959" r="2.5" class="obs"/>
<line x1="190.85425089945983" y1="90.44988192800365" x2="190.85425089945983" y2="135.4426511701755" class="err"/>
<line x1="187.85425089945983" y1="90.44988192800365" x2="193.85425089945983" y2="90.44988192800365" class="err"/>
<line x1="187.85425089945983" y1="135.4426511701755" x2="193.85425089945983" y2="135.4426511701755" class="err"/>
<circle cx="190.85425089945983" cy="112.94626654908959" r="2.5" class="obs"/>
<line x1="196.08809641085378" y1="88.91871438834856" x2="196.08809641085378" y2="141.68510344723077" class="err"/>
<line x1="193.08809641085378" y1="88.91871438834856" x2="199.08809641085378" y2="88.91871438834856" class="err"/>
<line x1="193.08809641085378" y1="141.68510344723077" x2="199.08809641085378" y2="141.68510344723077" class="err"/>
<circle cx="196.08809641085378" cy="115.30190891778966" r="2.5" class="obs"/>
<line x1="201.3219419222477" y1="86.56307201964847" x2="201.3219419222477" y2="139.3294610785307" class="err"/>
<line x1="198.3219419222477" y1="86.56307201964847" x2="204.3219419222477" y2="86.56307201964847" class="err"/>
<line x1="198.3219419222477" y1="139.3294610785307" x2="204.3219419222477" y2="139.3294610785307" class="err"/>
<circle cx="201.3219419222477" cy="112.94626654908959" r="2.5" class="obs"/>
<line x1="406.3935251414099" y1="112.68714588853257" x2="406.3935251414099" y2="127.33924142184716" class="err"/>
<line x1="403.3935251414099" y1="112.68714588853257" x2="409.3935251414099" y2="112.68714588853257" class="err"/>
<line x1="403.3935251414099" y1="127.33924142184716" x2="409.3935251414099" y2="127.33924142184716" class="err"/>
<circle cx="406.3935251414099" cy="120.01319365518988" r="2.5" class="obs"/>
<line x1="473.95771265213153" y1="109.29502087760443" x2="473.95771265213153" y2="121.3087969579749" class="err"/>
<line x1="470.95771265213153" y1="109.29502087760443" x2="476.95771265213153" y2="109.29502087760443" class="err"/>
<line x1="470.95771265213153" y1="121.3087969579749" x2="476.95771265213153" y2="121.3087969579749" class="err"/>
<circle cx="473.95771265213153" cy="115.30190891778966" r="2.5" class="obs"/>
<line x1="541.5219001628532" y1="96.57455208662388" x2="541.5219001628532" y2="119.89541153675488" class="err"/>
<line x1="538.5219001628532" y1="96.57455208662388" x2="544.5219001628532" y2="96.57455208662388" class="err"/>
<line x1="538.5219001628532" y1="119.89541153675488" x2="544.5219001628532" y2="119.89541153675488" class="err"/>
<circle cx="541.5219001628532" cy="108.23498181168941" r="2.5" class="obs"/>
<line x1="606.231262849178" y1="99.21287153956801" x2="606.231262849178" y2="112.54580734641057" class="err"/>
<line x1="603.231262849178" y1="99.21287153956801" x2="609.231262849178" y2="99.21287153956801" class="err"/>
<line x1="603.231262849178" y1="112.54580734641057" x2="609.231262849178" y2="112.54580734641057" class="err"/>
<circle cx="606.231262849178" cy="105.87933944298928" r="2.5" class="obs"/>
<g class="legend">
<line x1="82" y1="69" x2="106" y2="69" class="fw"/>
<text x="112" y="73" class="lbl-l">framework fit</text>
<line x1="82" y1="87" x2="106" y2="87" class="nt"/>
<text x="112" y="91" class="lbl-l">Newtonian (no halo)</text>
<circle cx="94" cy="105" r="2.5" class="obs"/>
<text x="112" y="109" class="lbl">observed V±err</text>
</g>
<g class="legend">
<line x1="460" y1="69" x2="484" y2="69" class="rho"/>
<text x="490" y="73" class="lbl-r">ρ(r) raw</text>
<line x1="460" y1="87" x2="484" y2="87" class="sig"/>
<text x="490" y="91" class="lbl-r">Σ(r) smoothed</text>
<text x="460" y="113" class="lbl-r">ρ peak: 390 M☉/pc²</text>
</g>
</svg>