<svg xmlns="http://www.w3.org/2000/svg" viewBox="0 0 960 450" width="960" height="450" font-family="sans-serif" font-size="12">
<style>
  .ax { stroke: #333; stroke-width: 1; fill: none; }
  .grid { stroke: #ddd; stroke-width: 0.5; fill: none; }
  .lbl { fill: #333; }
  .lbl-l { fill: #0066cc; }
  .lbl-r { fill: #b03030; }
  .obs { fill: #222; }
  .err { stroke: #555; stroke-width: 0.8; fill: none; }
  .fw { stroke: #0066cc; stroke-width: 2.2; fill: none; }
  .nt { stroke: #cc6600; stroke-width: 1.6; fill: none; stroke-dasharray: 5,3; }
  .mond { stroke: #7b2cbf; stroke-width: 1.8; fill: none; stroke-dasharray: 7,3; }
  .lbl-p { fill: #cc7000; }
  .lbl-m { fill: #7b2cbf; }
  .rho { stroke: #b03030; stroke-width: 2.0; fill: none; }
  .phot { stroke: #cc7000; stroke-width: 1.8; fill: none; }
  .mbar { stroke: #8e44ad; stroke-width: 1.8; fill: none; opacity: 0.9; }
  .mph { stroke: #c77dff; stroke-width: 1.6; fill: none; stroke-dasharray: 4,3; opacity: 0.95; }
  .title { fill: #111; font-size: 16px; font-weight: 600; }
  .subtitle { fill: #555; font-size: 11px; }
  .preview-bg { fill: #000; }
  .preview-lbl { fill: #888; font-size: 10px; }
  .legend { font-size: 11px; }
</style>
<text x="378.5" y="22" text-anchor="middle" class="title">NGC0300</text>
<text x="378.5" y="38" text-anchor="middle" class="subtitle">rMax=11.8 kpc, N=25, FW=2.0 km/s, 2.7%, 0.44σ, MOND=5.7 km/s, 7.4%, 1.55σ, amp=104</text>
<line x1="70" y1="395.0" x2="687" y2="395.0" class="grid"/>
<text x="64" y="399.0" text-anchor="end" class="lbl-l">0</text>
<line x1="70" y1="327.0" x2="687" y2="327.0" class="grid"/>
<text x="64" y="331.0" text-anchor="end" class="lbl-l">23</text>
<line x1="70" y1="259.0" x2="687" y2="259.0" class="grid"/>
<text x="64" y="263.0" text-anchor="end" class="lbl-l">47</text>
<line x1="70" y1="191.0" x2="687" y2="191.0" class="grid"/>
<text x="64" y="195.0" text-anchor="end" class="lbl-l">70</text>
<line x1="70" y1="123.0" x2="687" y2="123.0" class="grid"/>
<text x="64" y="127.0" text-anchor="end" class="lbl-l">94</text>
<line x1="70" y1="55.0" x2="687" y2="55.0" class="grid"/>
<text x="64" y="59.0" text-anchor="end" class="lbl-l">117</text>
<text x="693" y="399.0" text-anchor="start" class="lbl-r">0.0</text>
<text x="693" y="353.7" text-anchor="start" class="lbl-r">0.2</text>
<text x="693" y="308.3" text-anchor="start" class="lbl-r">0.4</text>
<text x="693" y="263.0" text-anchor="start" class="lbl-r">0.6</text>
<text x="693" y="217.7" text-anchor="start" class="lbl-r">0.8</text>
<text x="693" y="172.3" text-anchor="start" class="lbl-r">1.0</text>
<line x1="70.0" y1="55" x2="70.0" y2="395" class="grid"/>
<text x="70.0" y="411" text-anchor="middle" class="lbl">0.0</text>
<line x1="172.8" y1="55" x2="172.8" y2="395" class="grid"/>
<text x="172.8" y="411" text-anchor="middle" class="lbl">2.4</text>
<line x1="275.7" y1="55" x2="275.7" y2="395" class="grid"/>
<text x="275.7" y="411" text-anchor="middle" class="lbl">4.7</text>
<line x1="378.5" y1="55" x2="378.5" y2="395" class="grid"/>
<text x="378.5" y="411" text-anchor="middle" class="lbl">7.1</text>
<line x1="481.3" y1="55" x2="481.3" y2="395" class="grid"/>
<text x="481.3" y="411" text-anchor="middle" class="lbl">9.4</text>
<line x1="584.2" y1="55" x2="584.2" y2="395" class="grid"/>
<text x="584.2" y="411" text-anchor="middle" class="lbl">11.8</text>
<line x1="687.0" y1="55" x2="687.0" y2="395" class="grid"/>
<text x="687.0" y="411" text-anchor="middle" class="lbl">14.2</text>
<text x="378.5" y="438" text-anchor="middle" class="lbl">radius (kpc)</text>
<text x="16" y="225" text-anchor="middle" class="lbl-l" transform="rotate(-90, 16, 225)">velocity (km/s)</text>
<text x="724" y="225" text-anchor="middle" class="lbl-r" transform="rotate(-90, 724, 225)">profiles (normalized to peak)</text>
<rect x="70" y="55" width="617" height="340" class="ax"/>
<path d="M 70.0,168.3 L 72.8,170.9 L 75.6,173.5 L 78.5,176.1 L 81.3,178.6 L 84.1,181.2 L 86.9,183.8 L 89.7,186.4 L 92.5,188.9 L 95.4,191.5 L 98.2,194.1 L 101.0,196.7 L 103.8,199.2 L 106.6,201.8 L 109.4,204.4 L 112.3,207.0 L 115.1,209.5 L 117.9,212.1 L 120.7,214.7 L 123.5,217.3 L 126.3,219.8 L 129.2,222.4 L 132.0,225.0 L 134.8,227.6 L 137.6,230.1 L 140.4,232.7 L 143.3,235.3 L 146.1,237.2 L 148.9,237.6 L 151.7,237.9 L 154.5,238.2 L 157.3,238.6 L 160.2,238.9 L 163.0,239.2 L 165.8,239.6 L 168.6,239.9 L 171.4,240.3 L 174.2,240.6 L 177.1,240.9 L 179.9,241.3 L 182.7,241.6 L 185.5,241.9 L 188.3,242.3 L 191.1,242.6 L 194.0,243.0 L 196.8,243.3 L 199.6,243.6 L 202.4,244.0 L 205.2,244.3 L 208.1,244.6 L 210.9,245.0 L 213.7,245.3 L 216.5,245.7 L 219.3,247.3 L 222.1,251.3 L 225.0,255.4 L 227.8,259.5 L 230.6,263.5 L 233.4,267.6 L 236.2,269.2 L 239.0,269.8 L 241.9,270.3 L 244.7,270.8 L 247.5,271.3 L 250.3,271.9 L 253.1,272.4 L 255.9,272.9 L 258.8,273.5 L 261.6,274.0 L 264.4,274.5 L 267.2,275.1 L 270.0,275.6 L 272.8,276.1 L 275.7,276.7 L 278.5,277.2 L 281.3,277.7 L 284.1,278.2 L 286.9,278.8 L 289.8,279.3 L 292.6,279.8 L 295.4,280.4 L 298.2,280.9 L 301.0,281.4 L 303.8,282.0 L 306.7,282.5 L 309.5,283.0 L 312.3,283.5 L 315.1,284.1 L 317.9,284.6 L 320.7,285.1 L 323.6,285.7 L 326.4,286.2 L 329.2,286.7 L 332.0,287.3 L 334.8,287.8 L 337.6,288.3 L 340.5,288.8 L 343.3,289.4 L 346.1,289.9 L 348.9,290.4 L 351.7,291.0 L 354.6,291.5 L 357.4,292.0 L 360.2,292.6 L 363.0,293.1 L 365.8,293.6 L 368.6,294.1 L 371.5,294.7 L 374.3,295.2 L 377.1,295.7 L 379.9,296.3 L 382.7,296.8 L 385.5,297.3 L 388.4,297.9 L 391.2,298.4 L 394.0,298.9 L 396.8,299.5 L 399.6,300.0 L 402.4,300.5 L 405.3,301.0 L 408.1,301.6 L 410.9,302.1 L 413.7,302.6 L 416.5,303.2 L 419.4,303.7 L 422.2,304.2 L 425.0,304.8 L 427.8,305.3 L 430.6,305.8 L 433.4,306.3 L 436.3,306.9 L 439.1,307.4 L 441.9,307.9 L 444.7,308.5 L 447.5,309.0 L 450.3,309.5 L 453.2,310.1 L 456.0,310.6 L 458.8,311.1 L 461.6,311.6 L 464.4,312.2 L 467.2,312.7 L 470.1,313.2 L 472.9,313.8 L 475.7,314.3 L 478.5,314.8 L 481.3,315.4 L 484.2,315.9 L 487.0,316.4 L 489.8,317.0 L 492.6,317.5 L 495.4,318.0 L 498.2,318.5 L 501.1,319.1 L 503.9,319.6 L 506.7,320.1 L 509.5,320.7 L 512.3,321.2 L 515.1,321.7 L 518.0,322.6 L 520.8,324.0 L 523.6,325.5 L 526.4,326.9 L 529.2,328.4 L 532.0,329.9 L 534.9,331.3 L 537.7,332.8 L 540.5,334.3 L 543.3,335.7 L 546.1,337.2 L 548.9,338.6 L 551.8,340.1 L 554.6,341.6 L 557.4,343.0 L 560.2,344.5 L 563.0,345.9 L 565.9,347.4 L 568.7,348.9 L 571.5,350.3 L 574.3,351.8 L 577.1,353.3 L 579.9,354.7 L 582.8,356.2 L 585.6,357.6 L 588.4,359.1 L 591.2,360.6 L 594.0,362.0 L 596.8,363.5 L 599.7,364.9 L 602.5,366.4 L 605.3,367.9 L 608.1,369.3 L 610.9,370.8 L 613.7,372.2 L 616.6,373.7 L 619.4,375.2 L 622.2,376.6 L 625.0,378.1 L 627.8,379.6 L 630.7,381.0 L 633.5,382.5 L 636.3,383.9 L 639.1,385.4 L 641.9,386.9 L 644.7,388.3 L 647.6,389.8 L 650.4,391.2 L 653.2,392.7 L 656.0,394.2 L 658.8,395.0 L 661.6,395.0 L 664.5,395.0 L 667.3,395.0 L 670.1,395.0 L 672.9,395.0 L 675.7,395.0 L 678.5,395.0 L 681.4,395.0 L 684.2,395.0 L 687.0,395.0" class="rho"/>
<path d="M 109.6,168.3 L 129.2,226.6 L 149.3,260.3 L 168.9,290.1 L 188.5,315.0 L 208.1,333.1 L 228.1,347.4 L 247.7,358.2 L 267.8,366.7 L 287.4,373.2 L 307.4,378.2 L 327.0,382.0 L 347.0,385.0 L 366.6,387.3 L 386.2,389.0 L 405.8,390.4 L 425.9,391.5 L 445.5,392.3 L 465.1,392.9 L 485.1,393.4 L 503.8,393.7 L 525.2,394.0 L 546.1,394.3 L 563.1,394.4 L 584.0,395.0" class="phot"/>
<path d="M 109.6,168.3 L 129.2,184.5 L 149.3,199.8 L 168.9,209.5 L 188.5,229.6 L 208.1,262.0 L 228.1,291.0 L 247.7,304.9 L 267.8,313.2 L 287.4,330.1 L 307.4,342.4 L 327.0,329.0 L 347.0,300.4 L 366.6,288.8 L 386.2,304.8 L 405.8,339.3 L 425.9,374.2 L 445.5,390.6 L 465.1,390.2 L 485.1,388.8 L 503.8,392.5 L 525.2,395.0 L 546.1,395.0 L 563.1,394.4 L 584.0,393.1" class="mbar"/>
<path d="M 109.6,168.3 L 129.2,175.0 L 149.3,181.4 L 168.9,185.7 L 188.5,195.1 L 208.1,210.9 L 228.1,226.5 L 247.7,235.6 L 267.8,242.2 L 287.4,254.3 L 307.4,264.0 L 327.0,256.5 L 347.0,237.6 L 366.6,229.7 L 386.2,240.9 L 405.8,265.8 L 425.9,293.7 L 445.5,309.9 L 465.1,312.5 L 485.1,317.5 L 503.8,330.6 L 525.2,339.7 L 546.1,344.6 L 563.1,345.0 L 584.0,337.9" class="mph"/>
<path d="M 76.2,346.3 L 82.3,326.8 L 88.5,312.2 L 94.7,300.2 L 100.8,289.9 L 107.0,280.9 L 113.2,273.0 L 119.4,265.8 L 125.5,259.2 L 131.7,253.3 L 137.9,247.9 L 144.0,242.9 L 150.2,238.2 L 156.4,233.6 L 162.6,229.1 L 168.7,224.7 L 174.9,220.4 L 181.1,216.2 L 187.2,212.1 L 193.4,208.1 L 199.6,204.2 L 205.7,200.3 L 211.9,196.6 L 218.1,192.9 L 224.3,189.5 L 230.4,186.6 L 236.6,184.1 L 242.8,181.7 L 248.9,179.3 L 255.1,176.9 L 261.3,174.6 L 267.4,172.4 L 273.6,170.2 L 279.8,168.0 L 286.0,165.8 L 292.1,163.7 L 298.3,161.7 L 304.5,159.7 L 310.6,157.7 L 316.8,155.7 L 323.0,153.8 L 329.1,152.0 L 335.3,150.2 L 341.5,148.4 L 347.6,146.6 L 353.8,144.9 L 360.0,143.3 L 366.2,141.6 L 372.3,140.0 L 378.5,138.5 L 384.7,137.0 L 390.8,135.5 L 397.0,134.1 L 403.2,132.6 L 409.3,131.3 L 415.5,129.9 L 421.7,128.6 L 427.9,127.4 L 434.0,126.1 L 440.2,124.9 L 446.4,123.8 L 452.5,122.6 L 458.7,121.5 L 464.9,120.4 L 471.1,119.4 L 477.2,118.4 L 483.4,117.4 L 489.6,116.5 L 495.7,115.6 L 501.9,114.7 L 508.1,113.8 L 514.2,113.0 L 520.4,112.2 L 526.6,111.5 L 532.8,111.0 L 538.9,110.5 L 545.1,110.1 L 551.3,109.8 L 557.4,109.6 L 563.6,109.6 L 569.8,109.6 L 575.9,109.7 L 582.1,109.9 L 588.3,110.2 L 594.4,110.6 L 600.6,111.1 L 606.8,111.7 L 613.0,112.4 L 619.1,113.2 L 625.3,114.1 L 631.5,115.0 L 637.6,116.1 L 643.8,117.3 L 650.0,118.5 L 656.2,119.9 L 662.3,121.3 L 668.5,122.8 L 674.7,124.2 L 680.8,125.5 L 687.0,126.9" class="nt"/>
<path d="M 109.6,280.3 L 129.2,257.0 L 149.3,238.3 L 168.9,221.4 L 188.5,207.6 L 208.1,197.7 L 228.1,190.4 L 247.7,184.3 L 267.8,177.3 L 287.4,172.9 L 307.4,169.7 L 327.0,165.3 L 347.0,156.1 L 366.6,146.9 L 386.2,139.4 L 405.8,135.4 L 425.9,135.1 L 445.5,136.1 L 465.1,136.4 L 485.1,136.0 L 503.8,137.9 L 525.2,139.9 L 546.1,142.0 L 563.1,143.9 L 584.0,144.0" class="mond"/>
<path d="M 75.1,377.9 L 80.3,364.1 L 85.4,349.6 L 90.6,335.8 L 95.7,322.8 L 100.9,310.7 L 106.0,299.6 L 111.1,289.4 L 116.3,280.1 L 121.4,271.8 L 126.6,264.5 L 131.7,258.1 L 136.8,252.5 L 142.0,247.7 L 147.1,243.5 L 152.3,239.5 L 157.4,235.6 L 162.6,231.5 L 167.7,227.1 L 172.8,222.5 L 178.0,217.5 L 183.1,212.2 L 188.3,206.6 L 193.4,200.6 L 198.5,194.4 L 203.7,188.0 L 208.8,181.6 L 214.0,175.4 L 219.1,169.8 L 224.3,165.2 L 229.4,161.8 L 234.5,159.7 L 239.7,158.6 L 244.8,158.0 L 250.0,157.8 L 255.1,157.7 L 260.2,157.6 L 265.4,157.3 L 270.5,156.9 L 275.7,156.4 L 280.8,155.8 L 286.0,155.1 L 291.1,154.4 L 296.2,153.6 L 301.4,152.8 L 306.5,151.9 L 311.7,151.0 L 316.8,150.1 L 321.9,149.1 L 327.1,148.2 L 332.2,147.3 L 337.4,146.3 L 342.5,145.4 L 347.7,144.5 L 352.8,143.6 L 357.9,142.7 L 363.1,141.8 L 368.2,141.0 L 373.4,140.1 L 378.5,139.3 L 383.6,138.5 L 388.8,137.7 L 393.9,137.0 L 399.1,136.2 L 404.2,135.5 L 409.4,134.8 L 414.5,134.1 L 419.6,133.4 L 424.8,132.8 L 429.9,132.1 L 435.1,131.4 L 440.2,130.8 L 445.3,130.1 L 450.5,129.4 L 455.6,128.7 L 460.8,128.0 L 465.9,127.2 L 471.1,126.4 L 476.2,125.5 L 481.3,124.5 L 486.5,123.5 L 491.6,122.3 L 496.8,121.1 L 501.9,119.7 L 507.0,118.3 L 512.2,116.8 L 517.3,115.5 L 522.5,114.5 L 527.6,113.8 L 532.8,113.5 L 537.9,113.7 L 543.0,114.5 L 548.2,115.7 L 553.3,117.4 L 558.5,119.5 L 563.6,122.0 L 568.7,124.8 L 573.9,128.0 L 579.0,131.6 L 584.2,135.3 L 589.3,139.4 L 594.4,143.7 L 599.6,148.2 L 604.7,152.8 L 609.9,157.6 L 615.0,162.5 L 620.2,167.5 L 625.3,172.4 L 630.4,177.4 L 635.6,182.2 L 640.7,187.0 L 645.9,191.6 L 651.0,196.0 L 656.1,200.2 L 661.3,204.1 L 666.4,207.8 L 671.6,211.3 L 676.7,214.6 L 681.9,217.7 L 687.0,220.7" class="fw"/>
<line x1="109.64" y1="287.52" x2="109.64" y2="310.17" class="err"/>
<line x1="106.64" y1="287.52" x2="112.64" y2="287.52" class="err"/>
<line x1="106.64" y1="310.17" x2="112.64" y2="310.17" class="err"/>
<circle cx="109.64" cy="298.84" r="2.5" class="obs"/>
<line x1="129.24" y1="251.49" x2="129.24" y2="267.18" class="err"/>
<line x1="126.24" y1="251.49" x2="132.24" y2="251.49" class="err"/>
<line x1="126.24" y1="267.18" x2="132.24" y2="267.18" class="err"/>
<circle cx="129.24" cy="259.34" r="2.5" class="obs"/>
<line x1="149.28" y1="224.77" x2="149.28" y2="252.07" class="err"/>
<line x1="146.28" y1="224.77" x2="152.28" y2="224.77" class="err"/>
<line x1="146.28" y1="252.07" x2="152.28" y2="252.07" class="err"/>
<circle cx="149.28" cy="238.42" r="2.5" class="obs"/>
<line x1="168.88" y1="216.92" x2="168.88" y2="231.45" class="err"/>
<line x1="165.88" y1="216.92" x2="171.88" y2="216.92" class="err"/>
<line x1="165.88" y1="231.45" x2="171.88" y2="231.45" class="err"/>
<circle cx="168.88" cy="224.19" r="2.5" class="obs"/>
<line x1="188.48" y1="196.88" x2="188.48" y2="211.99" class="err"/>
<line x1="185.48" y1="196.88" x2="191.48" y2="196.88" class="err"/>
<line x1="185.48" y1="211.99" x2="191.48" y2="211.99" class="err"/>
<circle cx="188.48" cy="204.43" r="2.5" class="obs"/>
<line x1="208.08" y1="181.48" x2="208.08" y2="197.17" class="err"/>
<line x1="205.08" y1="181.48" x2="211.08" y2="181.48" class="err"/>
<line x1="205.08" y1="197.17" x2="211.08" y2="197.17" class="err"/>
<circle cx="208.08" cy="189.33" r="2.5" class="obs"/>
<line x1="228.12" y1="142.27" x2="228.12" y2="170.73" class="err"/>
<line x1="225.12" y1="142.27" x2="231.12" y2="142.27" class="err"/>
<line x1="225.12" y1="170.73" x2="231.12" y2="170.73" class="err"/>
<circle cx="228.12" cy="156.50" r="2.5" class="obs"/>
<line x1="247.72" y1="131.52" x2="247.72" y2="169.86" class="err"/>
<line x1="244.72" y1="131.52" x2="250.72" y2="131.52" class="err"/>
<line x1="244.72" y1="169.86" x2="250.72" y2="169.86" class="err"/>
<circle cx="247.72" cy="150.69" r="2.5" class="obs"/>
<line x1="267.76" y1="134.71" x2="267.76" y2="170.73" class="err"/>
<line x1="264.76" y1="134.71" x2="270.76" y2="134.71" class="err"/>
<line x1="264.76" y1="170.73" x2="270.76" y2="170.73" class="err"/>
<circle cx="267.76" cy="152.72" r="2.5" class="obs"/>
<line x1="287.36" y1="150.40" x2="287.36" y2="166.09" class="err"/>
<line x1="284.36" y1="150.40" x2="290.36" y2="150.40" class="err"/>
<line x1="284.36" y1="166.09" x2="290.36" y2="166.09" class="err"/>
<circle cx="287.36" cy="158.24" r="2.5" class="obs"/>
<line x1="307.40" y1="148.66" x2="307.40" y2="171.90" class="err"/>
<line x1="304.40" y1="148.66" x2="310.40" y2="148.66" class="err"/>
<line x1="304.40" y1="171.90" x2="310.40" y2="171.90" class="err"/>
<circle cx="307.40" cy="160.28" r="2.5" class="obs"/>
<line x1="327.00" y1="118.44" x2="327.00" y2="190.49" class="err"/>
<line x1="324.00" y1="118.44" x2="330.00" y2="118.44" class="err"/>
<line x1="324.00" y1="190.49" x2="330.00" y2="190.49" class="err"/>
<circle cx="327.00" cy="154.47" r="2.5" class="obs"/>
<line x1="347.03" y1="104.79" x2="347.03" y2="172.77" class="err"/>
<line x1="344.03" y1="104.79" x2="350.03" y2="104.79" class="err"/>
<line x1="344.03" y1="172.77" x2="350.03" y2="172.77" class="err"/>
<circle cx="347.03" cy="138.78" r="2.5" class="obs"/>
<line x1="366.64" y1="113.22" x2="366.64" y2="162.60" class="err"/>
<line x1="363.64" y1="113.22" x2="369.64" y2="113.22" class="err"/>
<line x1="363.64" y1="162.60" x2="369.64" y2="162.60" class="err"/>
<circle cx="366.64" cy="137.91" r="2.5" class="obs"/>
<line x1="386.24" y1="112.34" x2="386.24" y2="164.05" class="err"/>
<line x1="383.24" y1="112.34" x2="389.24" y2="112.34" class="err"/>
<line x1="383.24" y1="164.05" x2="389.24" y2="164.05" class="err"/>
<circle cx="386.24" cy="138.20" r="2.5" class="obs"/>
<line x1="405.84" y1="107.41" x2="405.84" y2="170.15" class="err"/>
<line x1="402.84" y1="107.41" x2="408.84" y2="107.41" class="err"/>
<line x1="402.84" y1="170.15" x2="408.84" y2="170.15" class="err"/>
<circle cx="405.84" cy="138.78" r="2.5" class="obs"/>
<line x1="425.88" y1="126.00" x2="425.88" y2="144.01" class="err"/>
<line x1="422.88" y1="126.00" x2="428.88" y2="126.00" class="err"/>
<line x1="422.88" y1="144.01" x2="428.88" y2="144.01" class="err"/>
<circle cx="425.88" cy="135.00" r="2.5" class="obs"/>
<line x1="445.48" y1="106.83" x2="445.48" y2="162.02" class="err"/>
<line x1="442.48" y1="106.83" x2="448.48" y2="106.83" class="err"/>
<line x1="442.48" y1="162.02" x2="448.48" y2="162.02" class="err"/>
<circle cx="445.48" cy="134.42" r="2.5" class="obs"/>
<line x1="465.08" y1="101.60" x2="465.08" y2="144.01" class="err"/>
<line x1="462.08" y1="101.60" x2="468.08" y2="101.60" class="err"/>
<line x1="462.08" y1="144.01" x2="468.08" y2="144.01" class="err"/>
<circle cx="465.08" cy="122.80" r="2.5" class="obs"/>
<line x1="485.12" y1="96.66" x2="485.12" y2="129.77" class="err"/>
<line x1="482.12" y1="96.66" x2="488.12" y2="96.66" class="err"/>
<line x1="482.12" y1="129.77" x2="488.12" y2="129.77" class="err"/>
<circle cx="485.12" cy="113.22" r="2.5" class="obs"/>
<line x1="503.85" y1="111.18" x2="503.85" y2="119.90" class="err"/>
<line x1="500.85" y1="111.18" x2="506.85" y2="111.18" class="err"/>
<line x1="500.85" y1="119.90" x2="506.85" y2="119.90" class="err"/>
<circle cx="503.85" cy="115.54" r="2.5" class="obs"/>
<line x1="525.19" y1="113.51" x2="525.19" y2="125.71" class="err"/>
<line x1="522.19" y1="113.51" x2="528.19" y2="113.51" class="err"/>
<line x1="522.19" y1="125.71" x2="528.19" y2="125.71" class="err"/>
<circle cx="525.19" cy="119.61" r="2.5" class="obs"/>
<line x1="546.10" y1="85.91" x2="546.10" y2="166.67" class="err"/>
<line x1="543.10" y1="85.91" x2="549.10" y2="85.91" class="err"/>
<line x1="543.10" y1="166.67" x2="549.10" y2="166.67" class="err"/>
<circle cx="546.10" cy="126.29" r="2.5" class="obs"/>
<line x1="563.09" y1="94.62" x2="563.09" y2="156.21" class="err"/>
<line x1="560.09" y1="94.62" x2="566.09" y2="94.62" class="err"/>
<line x1="560.09" y1="156.21" x2="566.09" y2="156.21" class="err"/>
<circle cx="563.09" cy="125.42" r="2.5" class="obs"/>
<line x1="584.00" y1="88.23" x2="584.00" y2="158.53" class="err"/>
<line x1="581.00" y1="88.23" x2="587.00" y2="88.23" class="err"/>
<line x1="581.00" y1="158.53" x2="587.00" y2="158.53" class="err"/>
<circle cx="584.00" cy="123.38" r="2.5" class="obs"/>
<g class="legend">
<line x1="82" y1="69" x2="106" y2="69" class="fw"/>
<text x="112" y="73" class="lbl-l">framework: 2.0 km/s, 2.7%, 0.44σ</text>
<line x1="82" y1="87" x2="106" y2="87" class="nt"/>
<text x="112" y="91" class="lbl-l">Newtonian: 4.3 km/s, 6.6%, 0.86σ</text>
<line x1="82" y1="105" x2="106" y2="105" class="mond"/>
<text x="112" y="109" class="lbl-m">MOND/RAR: 5.7 km/s, 7.4%, 1.55σ</text>
<circle cx="94" cy="123" r="2.5" class="obs"/>
<text x="112" y="127" class="lbl">observed V±err</text>
</g>
<g class="legend">
<line x1="472" y1="69" x2="496" y2="69" class="rho"/>
<text x="502" y="73" class="lbl-r">ρ(r) raw</text>
<line x1="472" y1="87" x2="496" y2="87" class="phot"/>
<text x="502" y="91" class="lbl-p">photometric baryonic profile</text>
<line x1="472" y1="105" x2="496" y2="105" class="mbar"/>
<text x="502" y="109" class="lbl-m">MOND baryonic annulus</text>
<line x1="472" y1="123" x2="496" y2="123" class="mph"/>
<text x="502" y="127" class="lbl-m">MOND phantom annulus</text>
<text x="472" y="147" class="lbl-r">ρ peak: 149 M☉/pc²</text>
<text x="472" y="163" class="lbl-p">phot peak: 45.25 (arb.)</text>
<text x="472" y="179" class="lbl-m">Σbar peak: 39.43 M☉/pc²</text>
<text x="472" y="195" class="lbl-m">Σphantom peak: 85.47 M☉/pc²</text>
</g>
<rect x="775" y="55" width="170" height="170" class="preview-bg"/>
<defs><radialGradient id="g_NGC0300" cx="0.5" cy="0.5" r="0.5">
  <stop offset="0.0000" stop-color="rgb(254,64,64)"/>
  <stop offset="0.0313" stop-color="rgb(239,60,60)"/>
  <stop offset="0.0625" stop-color="rgb(224,56,56)"/>
  <stop offset="0.0938" stop-color="rgb(208,52,52)"/>
  <stop offset="0.1250" stop-color="rgb(193,48,48)"/>
  <stop offset="0.1563" stop-color="rgb(190,48,48)"/>
  <stop offset="0.1875" stop-color="rgb(188,47,47)"/>
  <stop offset="0.2188" stop-color="rgb(186,47,47)"/>
  <stop offset="0.2500" stop-color="rgb(184,46,46)"/>
  <stop offset="0.2813" stop-color="rgb(163,41,41)"/>
  <stop offset="0.3125" stop-color="rgb(160,40,40)"/>
  <stop offset="0.3438" stop-color="rgb(157,39,39)"/>
  <stop offset="0.3750" stop-color="rgb(154,39,39)"/>
  <stop offset="0.4063" stop-color="rgb(151,38,38)"/>
  <stop offset="0.4375" stop-color="rgb(148,37,37)"/>
  <stop offset="0.4688" stop-color="rgb(145,36,36)"/>
  <stop offset="0.5000" stop-color="rgb(142,36,36)"/>
  <stop offset="0.5313" stop-color="rgb(138,35,35)"/>
  <stop offset="0.5625" stop-color="rgb(135,34,34)"/>
  <stop offset="0.5938" stop-color="rgb(132,33,33)"/>
  <stop offset="0.6250" stop-color="rgb(129,32,32)"/>
  <stop offset="0.6563" stop-color="rgb(126,32,32)"/>
  <stop offset="0.6875" stop-color="rgb(123,31,31)"/>
  <stop offset="0.7188" stop-color="rgb(120,30,30)"/>
  <stop offset="0.7500" stop-color="rgb(117,29,29)"/>
  <stop offset="0.7813" stop-color="rgb(110,28,28)"/>
  <stop offset="0.8125" stop-color="rgb(101,25,25)"/>
  <stop offset="0.8438" stop-color="rgb(93,23,23)"/>
  <stop offset="0.8750" stop-color="rgb(84,21,21)"/>
  <stop offset="0.9063" stop-color="rgb(76,19,19)"/>
  <stop offset="0.9375" stop-color="rgb(67,17,17)"/>
  <stop offset="0.9688" stop-color="rgb(40,10,10)"/>
  <stop offset="1.0000" stop-color="rgb(0,0,0)"/>
</radialGradient></defs>
<circle cx="860" cy="140" r="81" fill="url(#g_NGC0300)"/>
<text x="860" y="49" text-anchor="middle" class="preview-lbl">face-on luminance from ρ(r)</text>
<text x="860" y="239" text-anchor="middle" class="preview-lbl">edge at r = 13.5 kpc</text>
</svg>