<svg xmlns="http://www.w3.org/2000/svg" viewBox="0 0 720 420" width="720" height="420" font-family="sans-serif" font-size="12">
<style>
  .ax { stroke: #333; stroke-width: 1; fill: none; }
  .grid { stroke: #ddd; stroke-width: 0.5; fill: none; }
  .lbl { fill: #333; }
  .lbl-l { fill: #0066cc; }
  .lbl-r { fill: #b03030; }
  .obs { fill: #222; }
  .err { stroke: #555; stroke-width: 0.8; fill: none; }
  .fw { stroke: #0066cc; stroke-width: 2.2; fill: none; }
  .nt { stroke: #cc6600; stroke-width: 1.6; fill: none; stroke-dasharray: 5,3; }
  .rho { stroke: #b03030; stroke-width: 2.0; fill: none; }
  .sig { stroke: #b03030; stroke-width: 1.6; fill: none; stroke-dasharray: 4,2; opacity: 0.85; }
  .title { fill: #111; font-size: 16px; font-weight: 600; }
  .subtitle { fill: #555; font-size: 11px; }
  .legend { font-size: 11px; }
</style>
<text x="360.0" y="22" text-anchor="middle" class="title">NGC0247</text>
<text x="360.0" y="38" text-anchor="middle" class="subtitle">rMax=14.5 kpc, N=26, RMS=0.6 km/s (0.7%), amp=104</text>
<line x1="70" y1="365.0" x2="635" y2="365.0" class="grid"/>
<text x="64" y="369.0" text-anchor="end" class="lbl-l">0</text>
<line x1="70" y1="303.0" x2="635" y2="303.0" class="grid"/>
<text x="64" y="307.0" text-anchor="end" class="lbl-l">26</text>
<line x1="70" y1="241.00000000000003" x2="635" y2="241.00000000000003" class="grid"/>
<text x="64" y="245.00000000000003" text-anchor="end" class="lbl-l">51</text>
<line x1="70" y1="179.0" x2="635" y2="179.0" class="grid"/>
<text x="64" y="183.0" text-anchor="end" class="lbl-l">77</text>
<line x1="70" y1="117.00000000000003" x2="635" y2="117.00000000000003" class="grid"/>
<text x="64" y="121.00000000000003" text-anchor="end" class="lbl-l">102</text>
<line x1="70" y1="55.0" x2="635" y2="55.0" class="grid"/>
<text x="64" y="59.0" text-anchor="end" class="lbl-l">128</text>
<text x="641" y="369.0" text-anchor="start" class="lbl-r">0.0</text>
<text x="641" y="327.6666666666667" text-anchor="start" class="lbl-r">0.2</text>
<text x="641" y="286.33333333333337" text-anchor="start" class="lbl-r">0.4</text>
<text x="641" y="245.00000000000003" text-anchor="start" class="lbl-r">0.6</text>
<text x="641" y="203.66666666666666" text-anchor="start" class="lbl-r">0.8</text>
<text x="641" y="162.33333333333334" text-anchor="start" class="lbl-r">1.0</text>
<line x1="70.0" y1="55" x2="70.0" y2="365" class="grid"/>
<text x="70.0" y="381" text-anchor="middle" class="lbl">0.0</text>
<line x1="164.16666666666666" y1="55" x2="164.16666666666666" y2="365" class="grid"/>
<text x="164.16666666666666" y="381" text-anchor="middle" class="lbl">2.9</text>
<line x1="258.3333333333333" y1="55" x2="258.3333333333333" y2="365" class="grid"/>
<text x="258.3333333333333" y="381" text-anchor="middle" class="lbl">5.9</text>
<line x1="352.5" y1="55" x2="352.5" y2="365" class="grid"/>
<text x="352.5" y="381" text-anchor="middle" class="lbl">8.8</text>
<line x1="446.66666666666663" y1="55" x2="446.66666666666663" y2="365" class="grid"/>
<text x="446.66666666666663" y="381" text-anchor="middle" class="lbl">11.8</text>
<line x1="540.8333333333333" y1="55" x2="540.8333333333333" y2="365" class="grid"/>
<text x="540.8333333333333" y="381" text-anchor="middle" class="lbl">14.7</text>
<line x1="635.0" y1="55" x2="635.0" y2="365" class="grid"/>
<text x="635.0" y="381" text-anchor="middle" class="lbl">17.6</text>
<text x="352.5" y="408" text-anchor="middle" class="lbl">radius (kpc)</text>
<text x="16" y="210.0" text-anchor="middle" class="lbl-l" transform="rotate(-90, 16, 210.0)">velocity (km/s)</text>
<text x="704" y="210.0" text-anchor="middle" class="lbl-r" transform="rotate(-90, 704, 210.0)">mass profile (normalized to peak)</text>
<rect x="70" y="55" width="565" height="310" class="ax"/>
<path d="M 70.0,158.3 L 72.6,158.3 L 75.2,158.3 L 77.7,158.3 L 80.3,158.3 L 82.9,158.3 L 85.5,158.3 L 88.1,158.3 L 90.6,158.3 L 93.2,158.3 L 95.8,158.3 L 98.4,158.3 L 101.0,158.3 L 103.5,160.2 L 106.1,162.5 L 108.7,164.8 L 111.3,167.2 L 113.9,169.5 L 116.4,171.8 L 119.0,174.2 L 121.6,176.5 L 124.2,178.8 L 126.8,181.2 L 129.3,183.5 L 131.9,185.8 L 134.5,188.2 L 137.1,190.5 L 139.7,192.8 L 142.2,195.2 L 144.8,197.5 L 147.4,199.8 L 150.0,202.2 L 152.6,204.5 L 155.1,206.8 L 157.7,209.2 L 160.3,211.5 L 162.9,213.8 L 165.5,216.2 L 168.0,218.5 L 170.6,220.8 L 173.2,222.5 L 175.8,222.9 L 178.4,223.3 L 180.9,223.8 L 183.5,224.2 L 186.1,224.6 L 188.7,225.1 L 191.3,225.5 L 193.8,225.9 L 196.4,226.4 L 199.0,226.8 L 201.6,227.2 L 204.2,227.7 L 206.7,228.1 L 209.3,228.5 L 211.9,229.0 L 214.5,229.4 L 217.1,229.8 L 219.6,230.3 L 222.2,230.7 L 224.8,231.1 L 227.4,231.6 L 230.0,232.0 L 232.5,232.4 L 235.1,232.9 L 237.7,233.3 L 240.3,233.7 L 242.9,234.2 L 245.4,234.6 L 248.0,235.0 L 250.6,235.5 L 253.2,235.9 L 255.8,236.3 L 258.3,236.8 L 260.9,237.2 L 263.5,237.6 L 266.1,238.1 L 268.7,238.5 L 271.2,238.9 L 273.8,239.4 L 276.4,239.8 L 279.0,240.2 L 281.6,240.7 L 284.1,241.1 L 286.7,241.5 L 289.3,241.9 L 291.9,242.4 L 294.5,242.8 L 297.0,243.2 L 299.6,243.7 L 302.2,244.1 L 304.8,244.5 L 307.4,245.0 L 309.9,245.4 L 312.5,245.8 L 315.1,246.3 L 317.7,246.7 L 320.3,247.1 L 322.8,247.6 L 325.4,248.0 L 328.0,248.4 L 330.6,248.9 L 333.2,249.3 L 335.7,249.7 L 338.3,250.2 L 340.9,250.6 L 343.5,251.0 L 346.1,251.5 L 348.6,251.9 L 351.2,252.3 L 353.8,252.8 L 356.4,253.4 L 358.9,254.1 L 361.5,254.7 L 364.1,255.4 L 366.7,256.1 L 369.3,256.7 L 371.8,257.4 L 374.4,258.1 L 377.0,258.7 L 379.6,259.4 L 382.2,260.1 L 384.7,260.7 L 387.3,261.4 L 389.9,262.1 L 392.5,262.7 L 395.1,263.4 L 397.6,264.1 L 400.2,264.7 L 402.8,265.4 L 405.4,266.0 L 408.0,266.7 L 410.5,267.4 L 413.1,268.0 L 415.7,268.7 L 418.3,269.4 L 420.9,270.0 L 423.4,270.7 L 426.0,271.4 L 428.6,272.0 L 431.2,272.7 L 433.8,273.4 L 436.3,274.0 L 438.9,274.7 L 441.5,275.4 L 444.1,276.0 L 446.7,276.7 L 449.2,277.4 L 451.8,278.0 L 454.4,278.7 L 457.0,279.4 L 459.6,280.0 L 462.1,280.7 L 464.7,281.4 L 467.3,282.0 L 469.9,282.7 L 472.5,283.3 L 475.0,284.0 L 477.6,284.7 L 480.2,285.3 L 482.8,286.0 L 485.4,286.7 L 487.9,287.3 L 490.5,288.0 L 493.1,288.7 L 495.7,289.3 L 498.3,290.0 L 500.8,290.7 L 503.4,291.3 L 506.0,292.0 L 508.6,292.7 L 511.2,293.3 L 513.7,294.0 L 516.3,294.7 L 518.9,295.3 L 521.5,296.7 L 524.1,298.7 L 526.6,300.8 L 529.2,302.8 L 531.8,304.8 L 534.4,306.9 L 537.0,308.9 L 539.5,310.9 L 542.1,313.0 L 544.7,315.0 L 547.3,317.0 L 549.9,319.1 L 552.4,321.1 L 555.0,323.1 L 557.6,325.2 L 560.2,327.2 L 562.8,329.2 L 565.3,331.3 L 567.9,333.3 L 570.5,335.4 L 573.1,337.4 L 575.7,339.4 L 578.2,341.5 L 580.8,343.5 L 583.4,345.5 L 586.0,347.6 L 588.6,349.6 L 591.1,351.6 L 593.7,353.7 L 596.3,355.7 L 598.9,357.7 L 601.5,359.8 L 604.0,361.8 L 606.6,363.8 L 609.2,365.0 L 611.8,365.0 L 614.4,365.0 L 616.9,365.0 L 619.5,365.0 L 622.1,365.0 L 624.7,365.0 L 627.3,365.0 L 629.8,365.0 L 632.4,365.0 L 635.0,365.0" class="rho"/>
<path d="M 70.0,158.3 L 72.6,158.4 L 75.2,158.5 L 77.7,158.7 L 80.3,159.0 L 82.9,159.3 L 85.5,159.7 L 88.1,160.2 L 90.6,160.8 L 93.2,161.4 L 95.8,162.1 L 98.4,162.9 L 101.0,163.7 L 103.5,164.7 L 106.1,165.6 L 108.7,166.7 L 111.3,167.8 L 113.9,168.9 L 116.4,170.2 L 119.0,171.4 L 121.6,172.7 L 124.2,174.0 L 126.8,175.4 L 129.3,176.8 L 131.9,178.2 L 134.5,179.6 L 137.1,181.0 L 139.7,182.5 L 142.2,183.9 L 144.8,185.4 L 147.4,186.9 L 150.0,188.3 L 152.6,189.8 L 155.1,191.2 L 157.7,192.6 L 160.3,194.1 L 162.9,195.4 L 165.5,196.8 L 168.0,198.2 L 170.6,199.5 L 173.2,200.8 L 175.8,202.1 L 178.4,203.3 L 180.9,204.6 L 183.5,205.8 L 186.1,206.9 L 188.7,208.1 L 191.3,209.3 L 193.8,210.4 L 196.4,211.5 L 199.0,212.6 L 201.6,213.6 L 204.2,214.7 L 206.7,215.8 L 209.3,216.8 L 211.9,217.8 L 214.5,218.9 L 217.1,219.9 L 219.6,220.9 L 222.2,221.9 L 224.8,222.8 L 227.4,223.8 L 230.0,224.8 L 232.5,225.8 L 235.1,226.7 L 237.7,227.7 L 240.3,228.6 L 242.9,229.6 L 245.4,230.5 L 248.0,231.5 L 250.6,232.4 L 253.2,233.3 L 255.8,234.3 L 258.3,235.2 L 260.9,236.1 L 263.5,237.0 L 266.1,237.9 L 268.7,238.9 L 271.2,239.8 L 273.8,240.7 L 276.4,241.6 L 279.0,242.5 L 281.6,243.4 L 284.1,244.3 L 286.7,245.2 L 289.3,246.1 L 291.9,247.0 L 294.5,247.9 L 297.0,248.8 L 299.6,249.7 L 302.2,250.6 L 304.8,251.5 L 307.4,252.4 L 309.9,253.3 L 312.5,254.2 L 315.1,255.1 L 317.7,256.0 L 320.3,256.9 L 322.8,257.7 L 325.4,258.6 L 328.0,259.5 L 330.6,260.4 L 333.2,261.3 L 335.7,262.2 L 338.3,263.1 L 340.9,264.0 L 343.5,264.9 L 346.1,265.8 L 348.6,266.7 L 351.2,267.6 L 353.8,268.5 L 356.4,269.4 L 358.9,270.3 L 361.5,271.2 L 364.1,272.1 L 366.7,273.0 L 369.3,273.9 L 371.8,274.8 L 374.4,275.7 L 377.0,276.6 L 379.6,277.5 L 382.2,278.4 L 384.7,279.3 L 387.3,280.2 L 389.9,281.1 L 392.5,282.0 L 395.1,282.9 L 397.6,283.8 L 400.2,284.7 L 402.8,285.5 L 405.4,286.4 L 408.0,287.3 L 410.5,288.2 L 413.1,289.1 L 415.7,289.9 L 418.3,290.8 L 420.9,291.7 L 423.4,292.5 L 426.0,293.4 L 428.6,294.2 L 431.2,295.1 L 433.8,295.9 L 436.3,296.8 L 438.9,297.6 L 441.5,298.4 L 444.1,299.3 L 446.7,300.1 L 449.2,300.9 L 451.8,301.7 L 454.4,302.6 L 457.0,303.4 L 459.6,304.2 L 462.1,305.0 L 464.7,305.8 L 467.3,306.6 L 469.9,307.4 L 472.5,308.2 L 475.0,309.0 L 477.6,309.7 L 480.2,310.5 L 482.8,311.3 L 485.4,312.1 L 487.9,312.8 L 490.5,313.6 L 493.1,314.4 L 495.7,315.1 L 498.3,315.9 L 500.8,316.6 L 503.4,317.4 L 506.0,318.2 L 508.6,318.9 L 511.2,319.7 L 513.7,320.4 L 516.3,321.1 L 518.9,321.9 L 521.5,322.6 L 524.1,323.4 L 526.6,324.1 L 529.2,324.8 L 531.8,325.6 L 534.4,326.3 L 537.0,327.0 L 539.5,327.7 L 542.1,328.4 L 544.7,329.1 L 547.3,329.7 L 549.9,330.4 L 552.4,331.1 L 555.0,331.7 L 557.6,332.3 L 560.2,332.9 L 562.8,333.5 L 565.3,334.1 L 567.9,334.7 L 570.5,335.2 L 573.1,335.8 L 575.7,336.3 L 578.2,336.8 L 580.8,337.3 L 583.4,337.8 L 586.0,338.2 L 588.6,338.7 L 591.1,339.1 L 593.7,339.6 L 596.3,340.0 L 598.9,340.4 L 601.5,340.8 L 604.0,341.1 L 606.6,341.5 L 609.2,341.8 L 611.8,342.2 L 614.4,342.5 L 616.9,342.8 L 619.5,343.1 L 622.1,343.5 L 624.7,343.7 L 627.3,344.0 L 629.8,344.3 L 632.4,344.6 L 635.0,344.9" class="sig"/>
<path d="M 75.7,325.0 L 81.3,308.4 L 87.0,295.7 L 92.6,285.0 L 98.2,275.6 L 103.9,267.0 L 109.6,259.5 L 115.2,252.8 L 120.8,246.7 L 126.5,241.1 L 132.2,236.0 L 137.8,231.4 L 143.4,227.0 L 149.1,223.0 L 154.8,219.3 L 160.4,215.9 L 166.1,212.7 L 171.7,209.7 L 177.3,206.9 L 183.0,204.2 L 188.7,201.4 L 194.3,198.7 L 199.9,196.0 L 205.6,193.4 L 211.2,190.8 L 216.9,188.3 L 222.5,185.8 L 228.2,183.3 L 233.9,180.9 L 239.5,178.5 L 245.1,176.2 L 250.8,173.9 L 256.5,171.7 L 262.1,169.5 L 267.8,167.3 L 273.4,165.2 L 279.1,163.1 L 284.7,161.1 L 290.4,159.1 L 296.0,157.1 L 301.6,155.2 L 307.3,153.3 L 312.9,151.5 L 318.6,149.6 L 324.2,147.9 L 329.9,146.1 L 335.6,144.4 L 341.2,142.7 L 346.9,141.1 L 352.5,139.4 L 358.1,137.9 L 363.8,136.3 L 369.4,134.8 L 375.1,133.4 L 380.8,132.0 L 386.4,130.6 L 392.0,129.3 L 397.7,128.0 L 403.3,126.8 L 409.0,125.6 L 414.7,124.4 L 420.3,123.3 L 425.9,122.2 L 431.6,121.2 L 437.2,120.2 L 442.9,119.2 L 448.5,118.3 L 454.2,117.4 L 459.9,116.5 L 465.5,115.7 L 471.1,114.9 L 476.8,114.2 L 482.4,113.4 L 488.1,112.7 L 493.8,112.1 L 499.4,111.4 L 505.1,110.8 L 510.7,110.3 L 516.4,109.7 L 522.0,109.2 L 527.6,108.8 L 533.3,108.6 L 539.0,108.4 L 544.6,108.4 L 550.2,108.4 L 555.9,108.6 L 561.5,108.9 L 567.2,109.4 L 572.9,109.9 L 578.5,110.5 L 584.1,111.3 L 589.8,112.2 L 595.5,113.2 L 601.1,114.3 L 606.8,115.5 L 612.4,116.8 L 618.1,118.1 L 623.7,119.3 L 629.3,120.6 L 635.0,121.8" class="nt"/>
<path d="M 74.7,352.5 L 79.4,342.1 L 84.1,330.7 L 88.8,319.3 L 93.5,307.9 L 98.2,296.6 L 103.0,285.6 L 107.7,275.0 L 112.4,265.1 L 117.1,255.8 L 121.8,247.2 L 126.5,239.3 L 131.2,232.2 L 135.9,225.8 L 140.6,220.1 L 145.3,215.1 L 150.0,210.9 L 154.8,207.3 L 159.5,204.5 L 164.2,202.4 L 168.9,200.9 L 173.6,199.9 L 178.3,199.1 L 183.0,198.5 L 187.7,197.8 L 192.4,197.1 L 197.1,196.2 L 201.8,195.2 L 206.5,194.0 L 211.2,192.7 L 216.0,191.4 L 220.7,189.9 L 225.4,188.3 L 230.1,186.7 L 234.8,185.1 L 239.5,183.4 L 244.2,181.6 L 248.9,179.9 L 253.6,178.1 L 258.3,176.3 L 263.0,174.4 L 267.8,172.6 L 272.5,170.7 L 277.2,168.8 L 281.9,167.0 L 286.6,165.1 L 291.3,163.2 L 296.0,161.3 L 300.7,159.4 L 305.4,157.4 L 310.1,155.5 L 314.8,153.5 L 319.5,151.6 L 324.2,149.6 L 329.0,147.5 L 333.7,145.5 L 338.4,143.4 L 343.1,141.3 L 347.8,139.1 L 352.5,137.0 L 357.2,134.9 L 361.9,132.8 L 366.6,130.9 L 371.3,129.1 L 376.0,127.4 L 380.8,125.8 L 385.5,124.3 L 390.2,122.9 L 394.9,121.7 L 399.6,120.5 L 404.3,119.4 L 409.0,118.4 L 413.7,117.5 L 418.4,116.6 L 423.1,115.8 L 427.8,115.1 L 432.5,114.4 L 437.2,113.8 L 442.0,113.3 L 446.7,112.7 L 451.4,112.2 L 456.1,111.8 L 460.8,111.3 L 465.5,110.9 L 470.2,110.5 L 474.9,110.0 L 479.6,109.6 L 484.3,109.1 L 489.0,108.5 L 493.8,107.9 L 498.5,107.2 L 503.2,106.4 L 507.9,105.6 L 512.6,104.8 L 517.3,104.1 L 522.0,103.6 L 526.7,103.5 L 531.4,103.9 L 536.1,104.9 L 540.8,106.5 L 545.5,108.7 L 550.2,111.5 L 555.0,114.7 L 559.7,118.5 L 564.4,122.6 L 569.1,127.1 L 573.8,131.9 L 578.5,136.8 L 583.2,142.0 L 587.9,147.2 L 592.6,152.3 L 597.3,157.4 L 602.0,162.4 L 606.8,167.1 L 611.5,171.6 L 616.2,175.9 L 620.9,179.8 L 625.6,183.6 L 630.3,187.1 L 635.0,190.4" class="fw"/>
<line x1="104.62113439278315" y1="278.9023626975434" x2="104.62113439278315" y2="283.2678767016116" class="err"/>
<line x1="101.62113439278315" y1="278.9023626975434" x2="107.62113439278315" y2="278.9023626975434" class="err"/>
<line x1="101.62113439278315" y1="283.2678767016116" x2="107.62113439278315" y2="283.2678767016116" class="err"/>
<circle cx="104.62113439278315" cy="281.08511969957755" r="2.5" class="obs"/>
<line x1="121.61113552998228" y1="249.07135033641057" x2="121.61113552998228" y2="252.95180722891564" class="err"/>
<line x1="118.61113552998228" y1="249.07135033641057" x2="124.61113552998228" y2="249.07135033641057" class="err"/>
<line x1="118.61113552998228" y1="252.95180722891564" x2="124.61113552998228" y2="252.95180722891564" class="err"/>
<circle cx="121.61113552998228" cy="251.01157878266315" r="2.5" class="obs"/>
<line x1="138.92170272637384" y1="214.14723830386478" x2="138.92170272637384" y2="229.184008762322" class="err"/>
<line x1="135.92170272637384" y1="214.14723830386478" x2="141.92170272637384" y2="214.14723830386478" class="err"/>
<line x1="135.92170272637384" y1="229.184008762322" x2="141.92170272637384" y2="229.184008762322" class="err"/>
<circle cx="138.92170272637384" cy="221.66562353309345" r="2.5" class="obs"/>
<line x1="156.55283598195786" y1="205.41621029572838" x2="156.55283598195786" y2="212.20700985761226" class="err"/>
<line x1="153.55283598195786" y1="205.41621029572838" x2="159.55283598195786" y2="205.41621029572838" class="err"/>
<line x1="153.55283598195786" y1="212.20700985761226" x2="159.55283598195786" y2="212.20700985761226" class="err"/>
<circle cx="156.55283598195786" cy="208.81161007667032" r="2.5" class="obs"/>
<line x1="173.22227105996456" y1="195.95759662024722" x2="173.22227105996456" y2="207.11391018619932" class="err"/>
<line x1="170.22227105996456" y1="195.95759662024722" x2="176.22227105996456" y2="195.95759662024722" class="err"/>
<line x1="170.22227105996456" y1="207.11391018619932" x2="176.22227105996456" y2="207.11391018619932" class="err"/>
<circle cx="173.22227105996456" cy="201.53575340322328" r="2.5" class="obs"/>
<line x1="190.85340431554852" y1="194.0173681739947" x2="190.85340431554852" y2="197.41276795493664" class="err"/>
<line x1="187.85340431554852" y1="194.0173681739947" x2="193.85340431554852" y2="194.0173681739947" class="err"/>
<line x1="187.85340431554852" y1="197.41276795493664" x2="193.85340431554852" y2="197.41276795493664" class="err"/>
<circle cx="190.85340431554852" cy="195.7150680644657" r="2.5" class="obs"/>
<line x1="208.1639715119401" y1="189.40932561414493" x2="208.1639715119401" y2="194.74495384133937" class="err"/>
<line x1="205.1639715119401" y1="189.40932561414493" x2="211.1639715119401" y2="189.40932561414493" class="err"/>
<line x1="205.1639715119401" y1="194.74495384133937" x2="211.1639715119401" y2="194.74495384133937" class="err"/>
<circle cx="208.1639715119401" cy="192.07713972774218" r="2.5" class="obs"/>
<line x1="225.47453870833164" y1="183.3461117196057" x2="225.47453870833164" y2="191.59208261617903" class="err"/>
<line x1="222.47453870833164" y1="183.3461117196057" x2="228.47453870833164" y2="183.3461117196057" class="err"/>
<line x1="222.47453870833164" y1="191.59208261617903" x2="228.47453870833164" y2="191.59208261617903" class="err"/>
<circle cx="225.47453870833164" cy="187.46909716789236" r="2.5" class="obs"/>
<line x1="242.46453984553082" y1="175.58519793459556" x2="242.46453984553082" y2="190.13691128148963" class="err"/>
<line x1="239.46453984553082" y1="175.58519793459556" x2="245.46453984553082" y2="175.58519793459556" class="err"/>
<line x1="239.46453984553082" y1="190.13691128148963" x2="245.46453984553082" y2="190.13691128148963" class="err"/>
<circle cx="242.46453984553082" cy="182.8610546080426" r="2.5" class="obs"/>
<line x1="259.77510704192235" y1="165.3989985917697" x2="259.77510704192235" y2="183.83116883116884" class="err"/>
<line x1="256.77510704192235" y1="165.3989985917697" x2="262.77510704192235" y2="165.3989985917697" class="err"/>
<line x1="256.77510704192235" y1="183.83116883116884" x2="262.77510704192235" y2="183.83116883116884" class="err"/>
<circle cx="259.77510704192235" cy="174.61508371146925" r="2.5" class="obs"/>
<line x1="277.0856742383139" y1="155.45532780472539" x2="277.0856742383139" y2="179.70818338288217" class="err"/>
<line x1="274.0856742383139" y1="155.45532780472539" x2="280.0856742383139" y2="155.45532780472539" class="err"/>
<line x1="274.0856742383139" y1="179.70818338288217" x2="280.0856742383139" y2="179.70818338288217" class="err"/>
<circle cx="277.0856742383139" cy="167.5817555938038" r="2.5" class="obs"/>
<line x1="294.0756753755131" y1="145.51165701768113" x2="294.0756753755131" y2="179.4656548271006" class="err"/>
<line x1="291.0756753755131" y1="145.51165701768113" x2="297.0756753755131" y2="145.51165701768113" class="err"/>
<line x1="291.0756753755131" y1="179.4656548271006" x2="297.0756753755131" y2="179.4656548271006" class="err"/>
<circle cx="294.0756753755131" cy="162.48865592239088" r="2.5" class="obs"/>
<line x1="311.38624257190463" y1="136.29557189798157" x2="311.38624257190463" y2="171.21968393052737" class="err"/>
<line x1="308.38624257190463" y1="136.29557189798157" x2="314.38624257190463" y2="136.29557189798157" class="err"/>
<line x1="308.38624257190463" y1="171.21968393052737" x2="314.38624257190463" y2="171.21968393052737" class="err"/>
<circle cx="311.38624257190463" cy="153.75762791425444" r="2.5" class="obs"/>
<line x1="328.6968097682962" y1="133.38522922860275" x2="328.6968097682962" y2="156.66797058363323" class="err"/>
<line x1="325.6968097682962" y1="133.38522922860275" x2="331.6968097682962" y2="133.38522922860275" class="err"/>
<line x1="325.6968097682962" y1="156.66797058363323" x2="331.6968097682962" y2="156.66797058363323" class="err"/>
<circle cx="328.6968097682962" cy="145.026599906118" r="2.5" class="obs"/>
<line x1="346.3279430238802" y1="135.81051478641842" x2="346.3279430238802" y2="142.60131434830237" class="err"/>
<line x1="343.3279430238802" y1="135.81051478641842" x2="349.3279430238802" y2="135.81051478641842" class="err"/>
<line x1="343.3279430238802" y1="142.60131434830237" x2="349.3279430238802" y2="142.60131434830237" class="err"/>
<circle cx="346.3279430238802" cy="139.20591456736037" r="2.5" class="obs"/>
<line x1="362.99737810188697" y1="127.32201533406355" x2="362.99737810188697" y2="137.5082146768894" class="err"/>
<line x1="359.99737810188697" y1="127.32201533406355" x2="365.99737810188697" y2="127.32201533406355" class="err"/>
<line x1="359.99737810188697" y1="137.5082146768894" x2="365.99737810188697" y2="137.5082146768894" class="err"/>
<circle cx="362.99737810188697" cy="132.41511500547648" r="2.5" class="obs"/>
<line x1="380.6285113574709" y1="113.74041621029572" x2="380.6285113574709" y2="138.9633860115788" class="err"/>
<line x1="377.6285113574709" y1="113.74041621029572" x2="383.6285113574709" y2="113.74041621029572" class="err"/>
<line x1="377.6285113574709" y1="138.9633860115788" x2="383.6285113574709" y2="138.9633860115788" class="err"/>
<circle cx="380.6285113574709" cy="126.35190111093723" r="2.5" class="obs"/>
<line x1="397.9390785538625" y1="100.15881708652795" x2="397.9390785538625" y2="139.9335002347051" class="err"/>
<line x1="394.9390785538625" y1="100.15881708652795" x2="400.9390785538625" y2="100.15881708652795" class="err"/>
<line x1="394.9390785538625" y1="139.9335002347051" x2="400.9390785538625" y2="139.9335002347051" class="err"/>
<circle cx="397.9390785538625" cy="120.04615866061651" r="2.5" class="obs"/>
<line x1="414.92907969106165" y1="92.39790330151777" x2="414.92907969106165" y2="137.99327178845255" class="err"/>
<line x1="411.92907969106165" y1="92.39790330151777" x2="417.92907969106165" y2="92.39790330151777" class="err"/>
<line x1="411.92907969106165" y1="137.99327178845255" x2="417.92907969106165" y2="137.99327178845255" class="err"/>
<circle cx="414.92907969106165" cy="115.19558754498513" r="2.5" class="obs"/>
<line x1="432.2396468874532" y1="89.9726177437021" x2="432.2396468874532" y2="135.56798623063685" class="err"/>
<line x1="429.2396468874532" y1="89.9726177437021" x2="435.2396468874532" y2="89.9726177437021" class="err"/>
<line x1="429.2396468874532" y1="135.56798623063685" x2="435.2396468874532" y2="135.56798623063685" class="err"/>
<circle cx="432.2396468874532" cy="112.77030198716946" r="2.5" class="obs"/>
<line x1="449.5502140838447" y1="88.75997496479424" x2="449.5502140838447" y2="131.93005789391336" class="err"/>
<line x1="446.5502140838447" y1="88.75997496479424" x2="452.5502140838447" y2="88.75997496479424" class="err"/>
<line x1="446.5502140838447" y1="131.93005789391336" x2="452.5502140838447" y2="131.93005789391336" class="err"/>
<circle cx="449.5502140838447" cy="110.34501642935379" r="2.5" class="obs"/>
<line x1="466.8607812802363" y1="89.9726177437021" x2="466.8607812802363" y2="130.7174151150055" class="err"/>
<line x1="463.8607812802363" y1="89.9726177437021" x2="469.8607812802363" y2="89.9726177437021" class="err"/>
<line x1="463.8607812802363" y1="130.7174151150055" x2="469.8607812802363" y2="130.7174151150055" class="err"/>
<circle cx="466.8607812802363" cy="110.34501642935379" r="2.5" class="obs"/>
<line x1="483.8507824174354" y1="88.5174464090127" x2="483.8507824174354" y2="132.1725864496949" class="err"/>
<line x1="480.8507824174354" y1="88.5174464090127" x2="486.8507824174354" y2="88.5174464090127" class="err"/>
<line x1="480.8507824174354" y1="132.1725864496949" x2="486.8507824174354" y2="132.1725864496949" class="err"/>
<circle cx="483.8507824174354" cy="110.34501642935379" r="2.5" class="obs"/>
<line x1="502.12304779140436" y1="87.54733218588639" x2="502.12304779140436" y2="128.29212955718984" class="err"/>
<line x1="499.12304779140436" y1="87.54733218588639" x2="505.12304779140436" y2="87.54733218588639" class="err"/>
<line x1="499.12304779140436" y1="128.29212955718984" x2="505.12304779140436" y2="128.29212955718984" class="err"/>
<circle cx="502.12304779140436" cy="107.91973087153812" r="2.5" class="obs"/>
<line x1="519.1130489286033" y1="84.39446096072604" x2="519.1130489286033" y2="121.74385855108747" class="err"/>
<line x1="516.1130489286033" y1="84.39446096072604" x2="522.1130489286033" y2="84.39446096072604" class="err"/>
<line x1="516.1130489286033" y1="121.74385855108747" x2="522.1130489286033" y2="121.74385855108747" class="err"/>
<circle cx="519.1130489286033" cy="103.06915975590675" r="2.5" class="obs"/>
<line x1="536.1030500658026" y1="83.18181818181819" x2="536.1030500658026" y2="127.8070724456267" class="err"/>
<line x1="533.1030500658026" y1="83.18181818181819" x2="539.1030500658026" y2="83.18181818181819" class="err"/>
<line x1="533.1030500658026" y1="127.8070724456267" x2="539.1030500658026" y2="127.8070724456267" class="err"/>
<circle cx="536.1030500658026" cy="105.49444531372242" r="2.5" class="obs"/>
<g class="legend">
<line x1="82" y1="69" x2="106" y2="69" class="fw"/>
<text x="112" y="73" class="lbl-l">framework fit</text>
<line x1="82" y1="87" x2="106" y2="87" class="nt"/>
<text x="112" y="91" class="lbl-l">Newtonian (no halo)</text>
<circle cx="94" cy="105" r="2.5" class="obs"/>
<text x="112" y="109" class="lbl">observed V±err</text>
</g>
<g class="legend">
<line x1="460" y1="69" x2="484" y2="69" class="rho"/>
<text x="490" y="73" class="lbl-r">ρ(r) raw</text>
<line x1="460" y1="87" x2="484" y2="87" class="sig"/>
<text x="490" y="91" class="lbl-r">Σ(r) smoothed</text>
<text x="460" y="113" class="lbl-r">ρ peak: 114 M☉/pc²</text>
</g>
</svg>