<svg xmlns="http://www.w3.org/2000/svg" viewBox="0 0 960 450" width="960" height="450" font-family="sans-serif" font-size="12">
<style>
  .ax { stroke: #333; stroke-width: 1; fill: none; }
  .grid { stroke: #ddd; stroke-width: 0.5; fill: none; }
  .lbl { fill: #333; }
  .lbl-l { fill: #0066cc; }
  .lbl-r { fill: #b03030; }
  .obs { fill: #222; }
  .err { stroke: #555; stroke-width: 0.8; fill: none; }
  .fw { stroke: #0066cc; stroke-width: 2.2; fill: none; }
  .nt { stroke: #cc6600; stroke-width: 1.6; fill: none; stroke-dasharray: 5,3; }
  .mond { stroke: #7b2cbf; stroke-width: 1.8; fill: none; stroke-dasharray: 7,3; }
  .lbl-p { fill: #cc7000; }
  .lbl-m { fill: #7b2cbf; }
  .rho { stroke: #b03030; stroke-width: 2.0; fill: none; }
  .phot { stroke: #cc7000; stroke-width: 1.8; fill: none; }
  .mbar { stroke: #8e44ad; stroke-width: 1.8; fill: none; opacity: 0.9; }
  .mph { stroke: #c77dff; stroke-width: 1.6; fill: none; stroke-dasharray: 4,3; opacity: 0.95; }
  .remap-x { stroke: #cc2222; stroke-width: 1.5; fill: none; }
  .remap-link { stroke: #cc2222; stroke-width: 0.8; stroke-dasharray: 3,3; fill: none; opacity: 0.7; }
  .title { fill: #111; font-size: 16px; font-weight: 600; }
  .subtitle { fill: #555; font-size: 11px; }
  .preview-bg { fill: #000; }
  .preview-lbl { fill: #888; font-size: 10px; }
  .legend { font-size: 11px; }
</style>
<text x="378.5" y="22" text-anchor="middle" class="title">NGC0801</text>
<text x="378.5" y="38" text-anchor="middle" class="subtitle">rMax=59.8 kpc, N=13, FW=8.7 km/s, 4.4%, 1.49σ, MOND=35.0 km/s, 16.6%, 9.32σ, amp=239</text>
<line x1="70" y1="395.0" x2="687" y2="395.0" class="grid"/>
<text x="64" y="399.0" text-anchor="end" class="lbl-l">0</text>
<line x1="70" y1="327.0" x2="687" y2="327.0" class="grid"/>
<text x="64" y="331.0" text-anchor="end" class="lbl-l">59</text>
<line x1="70" y1="259.0" x2="687" y2="259.0" class="grid"/>
<text x="64" y="263.0" text-anchor="end" class="lbl-l">118</text>
<line x1="70" y1="191.0" x2="687" y2="191.0" class="grid"/>
<text x="64" y="195.0" text-anchor="end" class="lbl-l">177</text>
<line x1="70" y1="123.0" x2="687" y2="123.0" class="grid"/>
<text x="64" y="127.0" text-anchor="end" class="lbl-l">236</text>
<line x1="70" y1="55.0" x2="687" y2="55.0" class="grid"/>
<text x="64" y="59.0" text-anchor="end" class="lbl-l">295</text>
<text x="693" y="399.0" text-anchor="start" class="lbl-r">0.0</text>
<text x="693" y="353.7" text-anchor="start" class="lbl-r">0.2</text>
<text x="693" y="308.3" text-anchor="start" class="lbl-r">0.4</text>
<text x="693" y="263.0" text-anchor="start" class="lbl-r">0.6</text>
<text x="693" y="217.7" text-anchor="start" class="lbl-r">0.8</text>
<text x="693" y="172.3" text-anchor="start" class="lbl-r">1.0</text>
<line x1="70.0" y1="55" x2="70.0" y2="395" class="grid"/>
<text x="70.0" y="411" text-anchor="middle" class="lbl">0.0</text>
<line x1="172.8" y1="55" x2="172.8" y2="395" class="grid"/>
<text x="172.8" y="411" text-anchor="middle" class="lbl">10.6</text>
<line x1="275.7" y1="55" x2="275.7" y2="395" class="grid"/>
<text x="275.7" y="411" text-anchor="middle" class="lbl">21.1</text>
<line x1="378.5" y1="55" x2="378.5" y2="395" class="grid"/>
<text x="378.5" y="411" text-anchor="middle" class="lbl">31.7</text>
<line x1="481.3" y1="55" x2="481.3" y2="395" class="grid"/>
<text x="481.3" y="411" text-anchor="middle" class="lbl">42.3</text>
<line x1="584.2" y1="55" x2="584.2" y2="395" class="grid"/>
<text x="584.2" y="411" text-anchor="middle" class="lbl">52.9</text>
<line x1="687.0" y1="55" x2="687.0" y2="395" class="grid"/>
<text x="687.0" y="411" text-anchor="middle" class="lbl">63.4</text>
<text x="378.5" y="438" text-anchor="middle" class="lbl">radius (kpc)</text>
<text x="16" y="225" text-anchor="middle" class="lbl-l" transform="rotate(-90, 16, 225)">velocity (km/s)</text>
<text x="724" y="225" text-anchor="middle" class="lbl-r" transform="rotate(-90, 724, 225)">profiles (normalized to peak)</text>
<rect x="70" y="55" width="617" height="340" class="ax"/>
<path d="M 70.0,168.3 L 72.8,177.8 L 75.6,187.2 L 78.5,196.7 L 81.3,206.1 L 84.1,215.6 L 86.9,225.1 L 89.7,234.5 L 92.5,244.0 L 95.4,253.4 L 98.2,262.9 L 101.0,272.3 L 103.8,281.8 L 106.6,291.2 L 109.4,300.7 L 112.3,310.1 L 115.1,317.0 L 117.9,318.0 L 120.7,319.1 L 123.5,320.1 L 126.3,321.1 L 129.2,322.1 L 132.0,323.2 L 134.8,324.2 L 137.6,325.2 L 140.4,326.3 L 143.3,327.3 L 146.1,328.3 L 148.9,329.3 L 151.7,330.4 L 154.5,331.4 L 157.3,332.4 L 160.2,333.4 L 163.0,334.5 L 165.8,335.5 L 168.6,336.5 L 171.4,337.6 L 174.2,338.6 L 177.1,339.6 L 179.9,340.6 L 182.7,341.7 L 185.5,342.3 L 188.3,342.6 L 191.1,342.9 L 194.0,343.2 L 196.8,343.5 L 199.6,343.8 L 202.4,344.1 L 205.2,344.4 L 208.1,344.7 L 210.9,344.9 L 213.7,345.2 L 216.5,345.5 L 219.3,345.8 L 222.1,346.1 L 225.0,346.4 L 227.8,346.7 L 230.6,347.0 L 233.4,347.3 L 236.2,347.6 L 239.0,347.9 L 241.9,348.2 L 244.7,348.5 L 247.5,348.8 L 250.3,349.1 L 253.1,349.3 L 255.9,349.6 L 258.8,349.9 L 261.6,350.2 L 264.4,350.5 L 267.2,350.8 L 270.0,351.1 L 272.8,351.4 L 275.7,351.7 L 278.5,352.0 L 281.3,352.3 L 284.1,352.6 L 286.9,352.9 L 289.8,353.2 L 292.6,353.5 L 295.4,353.8 L 298.2,354.0 L 301.0,354.3 L 303.8,354.6 L 306.7,354.9 L 309.5,355.2 L 312.3,355.5 L 315.1,355.8 L 317.9,356.0 L 320.7,356.2 L 323.6,356.4 L 326.4,356.6 L 329.2,356.8 L 332.0,356.9 L 334.8,357.1 L 337.6,357.3 L 340.5,357.5 L 343.3,357.7 L 346.1,357.8 L 348.9,358.0 L 351.7,358.2 L 354.6,358.4 L 357.4,358.5 L 360.2,358.7 L 363.0,358.9 L 365.8,359.1 L 368.6,359.3 L 371.5,359.4 L 374.3,359.6 L 377.1,359.8 L 379.9,360.0 L 382.7,360.2 L 385.5,360.3 L 388.4,360.5 L 391.2,360.7 L 394.0,360.9 L 396.8,361.0 L 399.6,361.2 L 402.4,361.4 L 405.3,361.6 L 408.1,361.8 L 410.9,361.9 L 413.7,362.1 L 416.5,362.3 L 419.4,362.5 L 422.2,362.7 L 425.0,362.8 L 427.8,363.0 L 430.6,363.2 L 433.4,363.4 L 436.3,363.5 L 439.1,363.7 L 441.9,363.9 L 444.7,364.1 L 447.5,364.3 L 450.3,364.4 L 453.2,364.6 L 456.0,364.8 L 458.8,365.0 L 461.6,365.2 L 464.4,365.3 L 467.2,365.5 L 470.1,365.7 L 472.9,365.9 L 475.7,366.0 L 478.5,366.2 L 481.3,366.4 L 484.2,366.6 L 487.0,366.8 L 489.8,366.9 L 492.6,367.1 L 495.4,367.3 L 498.2,367.5 L 501.1,367.7 L 503.9,367.8 L 506.7,368.0 L 509.5,368.2 L 512.3,368.4 L 515.1,368.5 L 518.0,368.7 L 520.8,368.9 L 523.6,369.1 L 526.4,369.3 L 529.2,369.4 L 532.0,369.6 L 534.9,369.8 L 537.7,370.0 L 540.5,370.2 L 543.3,370.3 L 546.1,370.5 L 548.9,370.7 L 551.8,370.9 L 554.6,371.0 L 557.4,371.2 L 560.2,371.4 L 563.0,371.6 L 565.9,371.8 L 568.7,371.9 L 571.5,372.1 L 574.3,372.3 L 577.1,372.5 L 579.9,372.7 L 582.8,372.8 L 585.6,373.0 L 588.4,373.2 L 591.2,373.4 L 594.0,373.5 L 596.8,373.7 L 599.7,373.9 L 602.5,374.1 L 605.3,374.3 L 608.1,374.4 L 610.9,374.6 L 613.7,374.8 L 616.6,375.0 L 619.4,375.2 L 622.2,375.3 L 625.0,375.5 L 627.8,375.7 L 630.7,375.9 L 633.5,376.0 L 636.3,376.2 L 639.1,376.4 L 641.9,376.6 L 644.7,376.8 L 647.6,376.9 L 650.4,379.0 L 653.2,385.2 L 656.0,391.5 L 658.8,395.0 L 661.6,395.0 L 664.5,395.0 L 667.3,395.0 L 670.1,395.0 L 672.9,395.0 L 675.7,395.0 L 678.5,395.0 L 681.4,395.0 L 684.2,395.0 L 687.0,395.0" class="rho"/>
<path d="M 81.4,168.3 L 85.2,215.3 L 89.1,249.1 L 96.6,292.5 L 104.2,330.6 L 173.0,382.6 L 241.7,391.3 L 309.4,392.2 L 378.0,393.8 L 446.8,394.5 L 515.4,394.8 L 584.1,394.9 L 651.8,395.0" class="phot"/>
<path d="M 81.4,168.3 L 85.2,175.6 L 89.1,189.7 L 96.6,214.5 L 104.2,267.6 L 173.0,336.7 L 241.7,376.9 L 309.4,386.2 L 378.0,388.9 L 446.8,392.1 L 515.4,394.4 L 584.1,394.4 L 651.8,393.8" class="mbar"/>
<path d="M 81.4,173.7 L 85.2,172.7 L 89.1,170.9 L 96.6,168.3 L 104.2,173.7 L 173.0,200.7 L 241.7,240.1 L 309.4,268.6 L 378.0,286.9 L 446.8,308.3 L 515.4,327.3 L 584.1,334.4 L 651.8,334.2" class="mph"/>
<path d="M 76.2,316.6 L 82.3,287.8 L 88.5,268.4 L 94.7,254.3 L 100.8,244.2 L 107.0,237.2 L 113.2,232.9 L 119.4,230.1 L 125.5,226.8 L 131.7,223.4 L 137.9,219.9 L 144.0,216.4 L 150.2,213.0 L 156.4,209.7 L 162.6,206.6 L 168.7,203.7 L 174.9,200.9 L 181.1,198.4 L 187.2,196.0 L 193.4,193.6 L 199.6,191.2 L 205.7,188.8 L 211.9,186.4 L 218.1,184.1 L 224.3,181.7 L 230.4,179.4 L 236.6,177.2 L 242.8,175.0 L 248.9,172.8 L 255.1,170.6 L 261.3,168.6 L 267.4,166.5 L 273.6,164.5 L 279.8,162.6 L 285.9,160.7 L 292.1,158.9 L 298.3,157.1 L 304.5,155.4 L 310.6,153.7 L 316.8,152.1 L 323.0,150.5 L 329.1,148.9 L 335.3,147.4 L 341.5,145.9 L 347.7,144.4 L 353.8,142.9 L 360.0,141.5 L 366.2,140.0 L 372.3,138.7 L 378.5,137.3 L 384.7,135.9 L 390.8,134.6 L 397.0,133.3 L 403.2,132.1 L 409.4,130.8 L 415.5,129.6 L 421.7,128.5 L 427.9,127.3 L 434.0,126.2 L 440.2,125.1 L 446.4,124.0 L 452.5,123.0 L 458.7,121.9 L 464.9,121.0 L 471.1,120.0 L 477.2,119.0 L 483.4,118.1 L 489.6,117.2 L 495.7,116.4 L 501.9,115.5 L 508.1,114.7 L 514.2,113.9 L 520.4,113.2 L 526.6,112.5 L 532.8,111.8 L 538.9,111.1 L 545.1,110.4 L 551.3,109.8 L 557.4,109.2 L 563.6,108.6 L 569.8,108.1 L 575.9,107.5 L 582.1,107.0 L 588.3,106.5 L 594.4,106.1 L 600.6,105.7 L 606.8,105.3 L 613.0,104.9 L 619.1,104.5 L 625.3,104.2 L 631.5,103.9 L 637.6,103.6 L 643.8,103.4 L 650.0,103.1 L 656.1,103.6 L 662.3,105.1 L 668.5,106.7 L 674.7,108.2 L 680.8,109.7 L 687.0,111.0" class="nt"/>
<path d="M 81.4,233.8 L 85.2,209.9 L 89.1,190.2 L 96.6,160.4 L 104.2,142.4 L 173.0,114.6 L 241.7,107.4 L 309.4,99.8 L 378.0,86.4 L 446.8,85.9 L 515.4,91.9 L 584.1,93.5 L 651.8,89.8" class="mond"/>
<path d="M 75.1,320.2 L 80.3,269.3 L 85.4,219.9 L 90.6,179.0 L 95.7,147.6 L 100.8,126.1 L 106.0,113.0 L 111.1,108.5 L 116.3,109.8 L 121.4,114.3 L 126.6,119.1 L 131.7,122.9 L 136.8,125.0 L 142.0,126.3 L 147.1,126.6 L 152.3,126.6 L 157.4,126.5 L 162.6,126.5 L 167.7,126.8 L 172.8,127.6 L 178.0,129.1 L 183.1,131.0 L 188.3,133.2 L 193.4,135.3 L 198.5,137.0 L 203.7,138.2 L 208.8,139.0 L 214.0,139.5 L 219.1,139.7 L 224.3,139.7 L 229.4,139.5 L 234.5,139.3 L 239.7,138.9 L 244.8,138.5 L 250.0,138.1 L 255.1,137.6 L 260.2,137.1 L 265.4,136.7 L 270.5,136.3 L 275.7,135.9 L 280.8,135.6 L 285.9,135.4 L 291.1,135.3 L 296.2,135.3 L 301.4,135.5 L 306.5,135.8 L 311.7,136.3 L 316.8,137.0 L 321.9,137.6 L 327.1,138.2 L 332.2,138.8 L 337.4,139.2 L 342.5,139.5 L 347.7,139.7 L 352.8,139.9 L 357.9,140.1 L 363.1,140.2 L 368.2,140.2 L 373.4,140.3 L 378.5,140.4 L 383.6,140.4 L 388.8,140.4 L 393.9,140.5 L 399.1,140.5 L 404.2,140.6 L 409.3,140.6 L 414.5,140.7 L 419.6,140.8 L 424.8,140.9 L 429.9,141.0 L 435.1,141.1 L 440.2,141.2 L 445.3,141.4 L 450.5,141.5 L 455.6,141.7 L 460.8,141.9 L 465.9,142.1 L 471.1,142.4 L 476.2,142.6 L 481.3,142.9 L 486.5,143.2 L 491.6,143.5 L 496.8,143.9 L 501.9,144.2 L 507.0,144.6 L 512.2,145.0 L 517.3,145.4 L 522.5,145.8 L 527.6,146.3 L 532.8,146.7 L 537.9,147.1 L 543.0,147.6 L 548.2,148.0 L 553.3,148.5 L 558.5,148.9 L 563.6,149.3 L 568.7,149.7 L 573.9,150.0 L 579.0,150.4 L 584.2,150.6 L 589.3,150.7 L 594.4,150.8 L 599.6,150.7 L 604.7,150.4 L 609.9,149.9 L 615.0,149.2 L 620.2,148.0 L 625.3,146.6 L 630.4,144.8 L 635.6,142.9 L 640.7,141.3 L 645.9,140.9 L 651.0,142.1 L 656.1,145.7 L 661.3,151.0 L 666.4,157.8 L 671.6,165.0 L 676.7,172.2 L 681.9,178.9 L 687.0,185.0" class="fw"/>
<line x1="81.38" y1="246.19" x2="81.38" y2="260.47" class="err"/>
<line x1="78.38" y1="246.19" x2="84.38" y2="246.19" class="err"/>
<line x1="78.38" y1="260.47" x2="84.38" y2="260.47" class="err"/>
<circle cx="81.38" cy="253.33" r="2.5" class="obs"/>
<line x1="85.17" y1="224.31" x2="85.17" y2="238.59" class="err"/>
<line x1="82.17" y1="224.31" x2="88.17" y2="224.31" class="err"/>
<line x1="82.17" y1="238.59" x2="88.17" y2="238.59" class="err"/>
<circle cx="85.17" cy="231.45" r="2.5" class="obs"/>
<line x1="89.06" y1="151.75" x2="89.06" y2="166.03" class="err"/>
<line x1="86.06" y1="151.75" x2="92.06" y2="151.75" class="err"/>
<line x1="86.06" y1="166.03" x2="92.06" y2="166.03" class="err"/>
<circle cx="89.06" cy="158.89" r="2.5" class="obs"/>
<line x1="96.55" y1="125.26" x2="96.55" y2="139.54" class="err"/>
<line x1="93.55" y1="125.26" x2="99.55" y2="125.26" class="err"/>
<line x1="93.55" y1="139.54" x2="99.55" y2="139.54" class="err"/>
<circle cx="96.55" cy="132.40" r="2.5" class="obs"/>
<line x1="104.24" y1="113.74" x2="104.24" y2="128.02" class="err"/>
<line x1="101.24" y1="113.74" x2="107.24" y2="113.74" class="err"/>
<line x1="101.24" y1="128.02" x2="107.24" y2="128.02" class="err"/>
<circle cx="104.24" cy="120.88" r="2.5" class="obs"/>
<line x1="173.00" y1="126.41" x2="173.00" y2="136.08" class="err"/>
<line x1="170.00" y1="126.41" x2="176.00" y2="126.41" class="err"/>
<line x1="170.00" y1="136.08" x2="176.00" y2="136.08" class="err"/>
<circle cx="173.00" cy="131.25" r="2.5" class="obs"/>
<line x1="241.66" y1="127.91" x2="241.66" y2="143.80" class="err"/>
<line x1="238.66" y1="127.91" x2="244.66" y2="127.91" class="err"/>
<line x1="238.66" y1="143.80" x2="244.66" y2="143.80" class="err"/>
<circle cx="241.66" cy="135.85" r="2.5" class="obs"/>
<line x1="309.35" y1="137.00" x2="309.35" y2="146.22" class="err"/>
<line x1="306.35" y1="137.00" x2="312.35" y2="137.00" class="err"/>
<line x1="306.35" y1="146.22" x2="312.35" y2="146.22" class="err"/>
<circle cx="309.35" cy="141.61" r="2.5" class="obs"/>
<line x1="378.02" y1="136.54" x2="378.02" y2="142.07" class="err"/>
<line x1="375.02" y1="136.54" x2="381.02" y2="136.54" class="err"/>
<line x1="375.02" y1="142.07" x2="381.02" y2="142.07" class="err"/>
<circle cx="378.02" cy="139.31" r="2.5" class="obs"/>
<line x1="446.78" y1="138.04" x2="446.78" y2="147.49" class="err"/>
<line x1="443.78" y1="138.04" x2="449.78" y2="138.04" class="err"/>
<line x1="443.78" y1="147.49" x2="449.78" y2="147.49" class="err"/>
<circle cx="446.78" cy="142.76" r="2.5" class="obs"/>
<line x1="515.44" y1="143.11" x2="515.44" y2="153.94" class="err"/>
<line x1="512.44" y1="143.11" x2="518.44" y2="143.11" class="err"/>
<line x1="512.44" y1="153.94" x2="518.44" y2="153.94" class="err"/>
<circle cx="515.44" cy="148.52" r="2.5" class="obs"/>
<line x1="584.11" y1="143.22" x2="584.11" y2="149.21" class="err"/>
<line x1="581.11" y1="143.22" x2="587.11" y2="143.22" class="err"/>
<line x1="581.11" y1="149.21" x2="587.11" y2="149.21" class="err"/>
<circle cx="584.11" cy="146.22" r="2.5" class="obs"/>
<line x1="651.80" y1="136.08" x2="651.80" y2="156.35" class="err"/>
<line x1="648.80" y1="136.08" x2="654.80" y2="136.08" class="err"/>
<line x1="648.80" y1="156.35" x2="654.80" y2="156.35" class="err"/>
<circle cx="651.80" cy="146.22" r="2.5" class="obs"/>
<g class="legend">
<line x1="82" y1="69" x2="106" y2="69" class="fw"/>
<text x="112" y="73" class="lbl-l">framework: 8.7 km/s, 4.4%, 1.49σ</text>
<line x1="82" y1="87" x2="106" y2="87" class="nt"/>
<text x="112" y="91" class="lbl-l">Newtonian: 56.6 km/s, 26.8%, 10.18σ</text>
<line x1="82" y1="105" x2="106" y2="105" class="mond"/>
<text x="112" y="109" class="lbl-m">MOND/RAR: 35.0 km/s, 16.6%, 9.32σ</text>
<circle cx="94" cy="123" r="2.5" class="obs"/>
<text x="112" y="127" class="lbl">observed V±err</text>
</g>
<g class="legend">
<line x1="472" y1="69" x2="496" y2="69" class="rho"/>
<text x="502" y="73" class="lbl-r">ρ(r) raw</text>
<line x1="472" y1="87" x2="496" y2="87" class="phot"/>
<text x="502" y="91" class="lbl-p">photometric baryonic profile</text>
<line x1="472" y1="105" x2="496" y2="105" class="mbar"/>
<text x="502" y="109" class="lbl-m">MOND baryonic annulus</text>
<line x1="472" y1="123" x2="496" y2="123" class="mph"/>
<text x="502" y="127" class="lbl-m">MOND phantom annulus</text>
<text x="472" y="147" class="lbl-r">ρ peak: 575 M☉/pc²</text>
<text x="472" y="163" class="lbl-p">phot peak: 1452.93 (arb.)</text>
<text x="472" y="179" class="lbl-m">Σbar peak: 1059.23 M☉/pc²</text>
<text x="472" y="195" class="lbl-m">Σphantom peak: 176.62 M☉/pc²</text>
</g>
<rect x="775" y="55" width="170" height="170" class="preview-bg"/>
<defs><radialGradient id="g_NGC0801" cx="0.5" cy="0.5" r="0.5">
  <stop offset="0.0000" stop-color="rgb(194,194,194)"/>
  <stop offset="0.0313" stop-color="rgb(151,151,151)"/>
  <stop offset="0.0625" stop-color="rgb(108,108,108)"/>
  <stop offset="0.0938" stop-color="rgb(88,88,88)"/>
  <stop offset="0.1250" stop-color="rgb(83,83,83)"/>
  <stop offset="0.1563" stop-color="rgb(79,79,79)"/>
  <stop offset="0.1875" stop-color="rgb(74,74,74)"/>
  <stop offset="0.2188" stop-color="rgb(72,72,72)"/>
  <stop offset="0.2500" stop-color="rgb(71,71,71)"/>
  <stop offset="0.2813" stop-color="rgb(69,69,69)"/>
  <stop offset="0.3125" stop-color="rgb(68,68,68)"/>
  <stop offset="0.3438" stop-color="rgb(67,67,67)"/>
  <stop offset="0.3750" stop-color="rgb(65,65,65)"/>
  <stop offset="0.4063" stop-color="rgb(64,64,64)"/>
  <stop offset="0.4375" stop-color="rgb(62,62,62)"/>
  <stop offset="0.4688" stop-color="rgb(60,60,60)"/>
  <stop offset="0.5000" stop-color="rgb(58,58,58)"/>
  <stop offset="0.5313" stop-color="rgb(56,56,56)"/>
  <stop offset="0.5625" stop-color="rgb(55,55,55)"/>
  <stop offset="0.5938" stop-color="rgb(53,53,53)"/>
  <stop offset="0.6250" stop-color="rgb(51,51,51)"/>
  <stop offset="0.6563" stop-color="rgb(49,49,49)"/>
  <stop offset="0.6875" stop-color="rgb(47,47,47)"/>
  <stop offset="0.7188" stop-color="rgb(45,45,45)"/>
  <stop offset="0.7500" stop-color="rgb(43,43,43)"/>
  <stop offset="0.7813" stop-color="rgb(41,41,41)"/>
  <stop offset="0.8125" stop-color="rgb(39,39,39)"/>
  <stop offset="0.8438" stop-color="rgb(38,38,38)"/>
  <stop offset="0.8750" stop-color="rgb(36,36,36)"/>
  <stop offset="0.9063" stop-color="rgb(34,34,34)"/>
  <stop offset="0.9375" stop-color="rgb(32,32,32)"/>
  <stop offset="0.9688" stop-color="rgb(30,30,30)"/>
  <stop offset="1.0000" stop-color="rgb(0,0,0)"/>
</radialGradient></defs>
<circle cx="860" cy="140" r="81" fill="url(#g_NGC0801)"/>
<text x="860" y="49" text-anchor="middle" class="preview-lbl">face-on luminance from ρ(r)</text>
<text x="860" y="239" text-anchor="middle" class="preview-lbl">edge at r = 60.4 kpc</text>
</svg>