<svg xmlns="http://www.w3.org/2000/svg" viewBox="0 0 890 420" width="890" height="420" font-family="sans-serif" font-size="12">
<style>
  .ax { stroke: #333; stroke-width: 1; fill: none; }
  .grid { stroke: #ddd; stroke-width: 0.5; fill: none; }
  .lbl { fill: #333; }
  .lbl-l { fill: #0066cc; }
  .lbl-r { fill: #b03030; }
  .lbl-s { fill: #cc7000; }
  .obs { fill: #222; }
  .err { stroke: #555; stroke-width: 0.8; fill: none; }
  .fw { stroke: #0066cc; stroke-width: 2.2; fill: none; }
  .nt { stroke: #cc6600; stroke-width: 1.6; fill: none; stroke-dasharray: 5,3; }
  .rho { stroke: #b03030; stroke-width: 2.0; fill: none; }
  .sig { stroke: #cc7000; stroke-width: 1.8; fill: none; }
  .title { fill: #111; font-size: 16px; font-weight: 600; }
  .subtitle { fill: #555; font-size: 11px; }
  .legend { font-size: 11px; }
  .preview-bg { fill: #000; }
  .preview-lbl { fill: #888; font-size: 10px; }
</style>
<text x="343.5" y="22" text-anchor="middle" class="title">NGC0247</text>
<text x="343.5" y="38" text-anchor="middle" class="subtitle">rMax=14.5 kpc, N=26, RMS=0.6 km/s (0.7%), amp=104</text>
<line x1="70" y1="365.0" x2="617" y2="365.0" class="grid"/>
<text x="64" y="369.0" text-anchor="end" class="lbl-l">0</text>
<line x1="70" y1="303.0" x2="617" y2="303.0" class="grid"/>
<text x="64" y="307.0" text-anchor="end" class="lbl-l">26</text>
<line x1="70" y1="241.00000000000003" x2="617" y2="241.00000000000003" class="grid"/>
<text x="64" y="245.00000000000003" text-anchor="end" class="lbl-l">51</text>
<line x1="70" y1="179.0" x2="617" y2="179.0" class="grid"/>
<text x="64" y="183.0" text-anchor="end" class="lbl-l">77</text>
<line x1="70" y1="117.00000000000003" x2="617" y2="117.00000000000003" class="grid"/>
<text x="64" y="121.00000000000003" text-anchor="end" class="lbl-l">102</text>
<line x1="70" y1="55.0" x2="617" y2="55.0" class="grid"/>
<text x="64" y="59.0" text-anchor="end" class="lbl-l">128</text>
<text x="623" y="369.0" text-anchor="start" class="lbl-r">0.0</text>
<text x="623" y="327.6666666666667" text-anchor="start" class="lbl-r">0.2</text>
<text x="623" y="286.33333333333337" text-anchor="start" class="lbl-r">0.4</text>
<text x="623" y="245.00000000000003" text-anchor="start" class="lbl-r">0.6</text>
<text x="623" y="203.66666666666666" text-anchor="start" class="lbl-r">0.8</text>
<text x="623" y="162.33333333333334" text-anchor="start" class="lbl-r">1.0</text>
<line x1="70.0" y1="55" x2="70.0" y2="365" class="grid"/>
<text x="70.0" y="381" text-anchor="middle" class="lbl">0.0</text>
<line x1="161.16666666666666" y1="55" x2="161.16666666666666" y2="365" class="grid"/>
<text x="161.16666666666666" y="381" text-anchor="middle" class="lbl">2.9</text>
<line x1="252.33333333333331" y1="55" x2="252.33333333333331" y2="365" class="grid"/>
<text x="252.33333333333331" y="381" text-anchor="middle" class="lbl">5.9</text>
<line x1="343.5" y1="55" x2="343.5" y2="365" class="grid"/>
<text x="343.5" y="381" text-anchor="middle" class="lbl">8.8</text>
<line x1="434.66666666666663" y1="55" x2="434.66666666666663" y2="365" class="grid"/>
<text x="434.66666666666663" y="381" text-anchor="middle" class="lbl">11.8</text>
<line x1="525.8333333333333" y1="55" x2="525.8333333333333" y2="365" class="grid"/>
<text x="525.8333333333333" y="381" text-anchor="middle" class="lbl">14.7</text>
<line x1="617.0" y1="55" x2="617.0" y2="365" class="grid"/>
<text x="617.0" y="381" text-anchor="middle" class="lbl">17.6</text>
<text x="343.5" y="397" text-anchor="middle" class="lbl">radius (kpc)</text>
<text x="16" y="210.0" text-anchor="middle" class="lbl-l" transform="rotate(-90, 16, 210.0)">velocity (km/s)</text>
<text x="661" y="210.0" text-anchor="middle" class="lbl-r" transform="rotate(-90, 661, 210.0)">mass profile (normalized to peak)</text>
<rect x="70" y="55" width="547" height="310" class="ax"/>
<path d="M 70.0,158.3 L 72.5,158.3 L 75.0,158.3 L 77.5,158.3 L 80.0,158.3 L 82.5,158.3 L 85.0,158.3 L 87.5,158.3 L 90.0,158.3 L 92.5,158.3 L 95.0,158.3 L 97.5,158.3 L 100.0,158.3 L 102.5,160.2 L 105.0,162.5 L 107.5,164.8 L 110.0,167.2 L 112.5,169.5 L 115.0,171.8 L 117.5,174.2 L 120.0,176.5 L 122.5,178.8 L 124.9,181.2 L 127.4,183.5 L 129.9,185.8 L 132.4,188.2 L 134.9,190.5 L 137.4,192.8 L 139.9,195.2 L 142.4,197.5 L 144.9,199.8 L 147.4,202.2 L 149.9,204.5 L 152.4,206.8 L 154.9,209.2 L 157.4,211.5 L 159.9,213.8 L 162.4,216.2 L 164.9,218.5 L 167.4,220.8 L 169.9,222.5 L 172.4,222.9 L 174.9,223.3 L 177.4,223.8 L 179.9,224.2 L 182.4,224.6 L 184.9,225.1 L 187.4,225.5 L 189.9,225.9 L 192.4,226.4 L 194.9,226.8 L 197.4,227.2 L 199.9,227.7 L 202.4,228.1 L 204.9,228.5 L 207.4,229.0 L 209.9,229.4 L 212.4,229.8 L 214.9,230.3 L 217.4,230.7 L 219.9,231.1 L 222.4,231.6 L 224.9,232.0 L 227.4,232.4 L 229.9,232.9 L 232.4,233.3 L 234.8,233.7 L 237.3,234.2 L 239.8,234.6 L 242.3,235.0 L 244.8,235.5 L 247.3,235.9 L 249.8,236.3 L 252.3,236.8 L 254.8,237.2 L 257.3,237.6 L 259.8,238.1 L 262.3,238.5 L 264.8,238.9 L 267.3,239.4 L 269.8,239.8 L 272.3,240.2 L 274.8,240.7 L 277.3,241.1 L 279.8,241.5 L 282.3,241.9 L 284.8,242.4 L 287.3,242.8 L 289.8,243.2 L 292.3,243.7 L 294.8,244.1 L 297.3,244.5 L 299.8,245.0 L 302.3,245.4 L 304.8,245.8 L 307.3,246.3 L 309.8,246.7 L 312.3,247.1 L 314.8,247.6 L 317.3,248.0 L 319.8,248.4 L 322.3,248.9 L 324.8,249.3 L 327.3,249.7 L 329.8,250.2 L 332.3,250.6 L 334.8,251.0 L 337.3,251.5 L 339.8,251.9 L 342.3,252.3 L 344.7,252.8 L 347.2,253.4 L 349.7,254.1 L 352.2,254.7 L 354.7,255.4 L 357.2,256.1 L 359.7,256.7 L 362.2,257.4 L 364.7,258.1 L 367.2,258.7 L 369.7,259.4 L 372.2,260.1 L 374.7,260.7 L 377.2,261.4 L 379.7,262.1 L 382.2,262.7 L 384.7,263.4 L 387.2,264.1 L 389.7,264.7 L 392.2,265.4 L 394.7,266.0 L 397.2,266.7 L 399.7,267.4 L 402.2,268.0 L 404.7,268.7 L 407.2,269.4 L 409.7,270.0 L 412.2,270.7 L 414.7,271.4 L 417.2,272.0 L 419.7,272.7 L 422.2,273.4 L 424.7,274.0 L 427.2,274.7 L 429.7,275.4 L 432.2,276.0 L 434.7,276.7 L 437.2,277.4 L 439.7,278.0 L 442.2,278.7 L 444.7,279.4 L 447.2,280.0 L 449.7,280.7 L 452.2,281.4 L 454.6,282.0 L 457.1,282.7 L 459.6,283.3 L 462.1,284.0 L 464.6,284.7 L 467.1,285.3 L 469.6,286.0 L 472.1,286.7 L 474.6,287.3 L 477.1,288.0 L 479.6,288.7 L 482.1,289.3 L 484.6,290.0 L 487.1,290.7 L 489.6,291.3 L 492.1,292.0 L 494.6,292.7 L 497.1,293.3 L 499.6,294.0 L 502.1,294.7 L 504.6,295.3 L 507.1,296.7 L 509.6,298.7 L 512.1,300.8 L 514.6,302.8 L 517.1,304.8 L 519.6,306.9 L 522.1,308.9 L 524.6,310.9 L 527.1,313.0 L 529.6,315.0 L 532.1,317.0 L 534.6,319.1 L 537.1,321.1 L 539.6,323.1 L 542.1,325.2 L 544.6,327.2 L 547.1,329.2 L 549.6,331.3 L 552.1,333.3 L 554.6,335.4 L 557.1,337.4 L 559.6,339.4 L 562.1,341.5 L 564.5,343.5 L 567.0,345.5 L 569.5,347.6 L 572.0,349.6 L 574.5,351.6 L 577.0,353.7 L 579.5,355.7 L 582.0,357.7 L 584.5,359.8 L 587.0,361.8 L 589.5,363.8 L 592.0,365.0 L 594.5,365.0 L 597.0,365.0 L 599.5,365.0 L 602.0,365.0 L 604.5,365.0 L 607.0,365.0 L 609.5,365.0 L 612.0,365.0 L 614.5,365.0 L 617.0,365.0" class="rho"/>
<path d="M 70.0,158.3 L 72.5,158.4 L 75.0,158.5 L 77.5,158.7 L 80.0,159.0 L 82.5,159.3 L 85.0,159.7 L 87.5,160.2 L 90.0,160.8 L 92.5,161.4 L 95.0,162.1 L 97.5,162.9 L 100.0,163.7 L 102.5,164.7 L 105.0,165.6 L 107.5,166.7 L 110.0,167.8 L 112.5,168.9 L 115.0,170.2 L 117.5,171.4 L 120.0,172.7 L 122.5,174.0 L 124.9,175.4 L 127.4,176.8 L 129.9,178.2 L 132.4,179.6 L 134.9,181.0 L 137.4,182.5 L 139.9,183.9 L 142.4,185.4 L 144.9,186.9 L 147.4,188.3 L 149.9,189.8 L 152.4,191.2 L 154.9,192.6 L 157.4,194.1 L 159.9,195.4 L 162.4,196.8 L 164.9,198.2 L 167.4,199.5 L 169.9,200.8 L 172.4,202.1 L 174.9,203.3 L 177.4,204.6 L 179.9,205.8 L 182.4,206.9 L 184.9,208.1 L 187.4,209.3 L 189.9,210.4 L 192.4,211.5 L 194.9,212.6 L 197.4,213.6 L 199.9,214.7 L 202.4,215.8 L 204.9,216.8 L 207.4,217.8 L 209.9,218.9 L 212.4,219.9 L 214.9,220.9 L 217.4,221.9 L 219.9,222.8 L 222.4,223.8 L 224.9,224.8 L 227.4,225.8 L 229.9,226.7 L 232.4,227.7 L 234.8,228.6 L 237.3,229.6 L 239.8,230.5 L 242.3,231.5 L 244.8,232.4 L 247.3,233.3 L 249.8,234.3 L 252.3,235.2 L 254.8,236.1 L 257.3,237.0 L 259.8,237.9 L 262.3,238.9 L 264.8,239.8 L 267.3,240.7 L 269.8,241.6 L 272.3,242.5 L 274.8,243.4 L 277.3,244.3 L 279.8,245.2 L 282.3,246.1 L 284.8,247.0 L 287.3,247.9 L 289.8,248.8 L 292.3,249.7 L 294.8,250.6 L 297.3,251.5 L 299.8,252.4 L 302.3,253.3 L 304.8,254.2 L 307.3,255.1 L 309.8,256.0 L 312.3,256.9 L 314.8,257.7 L 317.3,258.6 L 319.8,259.5 L 322.3,260.4 L 324.8,261.3 L 327.3,262.2 L 329.8,263.1 L 332.3,264.0 L 334.8,264.9 L 337.3,265.8 L 339.8,266.7 L 342.3,267.6 L 344.7,268.5 L 347.2,269.4 L 349.7,270.3 L 352.2,271.2 L 354.7,272.1 L 357.2,273.0 L 359.7,273.9 L 362.2,274.8 L 364.7,275.7 L 367.2,276.6 L 369.7,277.5 L 372.2,278.4 L 374.7,279.3 L 377.2,280.2 L 379.7,281.1 L 382.2,282.0 L 384.7,282.9 L 387.2,283.8 L 389.7,284.7 L 392.2,285.5 L 394.7,286.4 L 397.2,287.3 L 399.7,288.2 L 402.2,289.1 L 404.7,289.9 L 407.2,290.8 L 409.7,291.7 L 412.2,292.5 L 414.7,293.4 L 417.2,294.2 L 419.7,295.1 L 422.2,295.9 L 424.7,296.8 L 427.2,297.6 L 429.7,298.4 L 432.2,299.3 L 434.7,300.1 L 437.2,300.9 L 439.7,301.7 L 442.2,302.6 L 444.7,303.4 L 447.2,304.2 L 449.7,305.0 L 452.2,305.8 L 454.6,306.6 L 457.1,307.4 L 459.6,308.2 L 462.1,309.0 L 464.6,309.7 L 467.1,310.5 L 469.6,311.3 L 472.1,312.1 L 474.6,312.8 L 477.1,313.6 L 479.6,314.4 L 482.1,315.1 L 484.6,315.9 L 487.1,316.6 L 489.6,317.4 L 492.1,318.2 L 494.6,318.9 L 497.1,319.7 L 499.6,320.4 L 502.1,321.1 L 504.6,321.9 L 507.1,322.6 L 509.6,323.4 L 512.1,324.1 L 514.6,324.8 L 517.1,325.6 L 519.6,326.3 L 522.1,327.0 L 524.6,327.7 L 527.1,328.4 L 529.6,329.1 L 532.1,329.7 L 534.6,330.4 L 537.1,331.1 L 539.6,331.7 L 542.1,332.3 L 544.6,332.9 L 547.1,333.5 L 549.6,334.1 L 552.1,334.7 L 554.6,335.2 L 557.1,335.8 L 559.6,336.3 L 562.1,336.8 L 564.5,337.3 L 567.0,337.8 L 569.5,338.2 L 572.0,338.7 L 574.5,339.1 L 577.0,339.6 L 579.5,340.0 L 582.0,340.4 L 584.5,340.8 L 587.0,341.1 L 589.5,341.5 L 592.0,341.8 L 594.5,342.2 L 597.0,342.5 L 599.5,342.8 L 602.0,343.1 L 604.5,343.5 L 607.0,343.7 L 609.5,344.0 L 612.0,344.3 L 614.5,344.6 L 617.0,344.9" class="sig"/>
<path d="M 75.5,325.0 L 80.9,308.4 L 86.4,295.7 L 91.9,285.0 L 97.3,275.6 L 102.8,267.0 L 108.3,259.5 L 113.8,252.8 L 119.2,246.7 L 124.7,241.1 L 130.2,236.0 L 135.6,231.4 L 141.1,227.0 L 146.6,223.0 L 152.1,219.3 L 157.5,215.9 L 163.0,212.7 L 168.5,209.7 L 173.9,206.9 L 179.4,204.2 L 184.9,201.4 L 190.3,198.7 L 195.8,196.0 L 201.3,193.4 L 206.8,190.8 L 212.2,188.3 L 217.7,185.8 L 223.2,183.3 L 228.6,180.9 L 234.1,178.5 L 239.6,176.2 L 245.0,173.9 L 250.5,171.7 L 256.0,169.5 L 261.5,167.3 L 266.9,165.2 L 272.4,163.1 L 277.9,161.1 L 283.3,159.1 L 288.8,157.1 L 294.3,155.2 L 299.7,153.3 L 305.2,151.5 L 310.7,149.6 L 316.1,147.9 L 321.6,146.1 L 327.1,144.4 L 332.6,142.7 L 338.0,141.1 L 343.5,139.4 L 349.0,137.9 L 354.4,136.3 L 359.9,134.8 L 365.4,133.4 L 370.9,132.0 L 376.3,130.6 L 381.8,129.3 L 387.3,128.0 L 392.7,126.8 L 398.2,125.6 L 403.7,124.4 L 409.1,123.3 L 414.6,122.2 L 420.1,121.2 L 425.6,120.2 L 431.0,119.2 L 436.5,118.3 L 442.0,117.4 L 447.4,116.5 L 452.9,115.7 L 458.4,114.9 L 463.8,114.2 L 469.3,113.4 L 474.8,112.7 L 480.3,112.1 L 485.7,111.4 L 491.2,110.8 L 496.7,110.3 L 502.1,109.7 L 507.6,109.2 L 513.1,108.8 L 518.5,108.6 L 524.0,108.4 L 529.5,108.4 L 535.0,108.4 L 540.4,108.6 L 545.9,108.9 L 551.4,109.4 L 556.8,109.9 L 562.3,110.5 L 567.8,111.3 L 573.2,112.2 L 578.7,113.2 L 584.2,114.3 L 589.7,115.5 L 595.1,116.8 L 600.6,118.1 L 606.1,119.3 L 611.5,120.6 L 617.0,121.8" class="nt"/>
<path d="M 74.6,352.5 L 79.1,342.1 L 83.7,330.7 L 88.2,319.3 L 92.8,307.9 L 97.3,296.6 L 101.9,285.6 L 106.5,275.0 L 111.0,265.1 L 115.6,255.8 L 120.1,247.2 L 124.7,239.3 L 129.3,232.2 L 133.8,225.8 L 138.4,220.1 L 142.9,215.1 L 147.5,210.9 L 152.1,207.3 L 156.6,204.5 L 161.2,202.4 L 165.7,200.9 L 170.3,199.9 L 174.8,199.1 L 179.4,198.5 L 184.0,197.8 L 188.5,197.1 L 193.1,196.2 L 197.6,195.2 L 202.2,194.0 L 206.8,192.7 L 211.3,191.4 L 215.9,189.9 L 220.4,188.3 L 225.0,186.7 L 229.5,185.1 L 234.1,183.4 L 238.7,181.6 L 243.2,179.9 L 247.8,178.1 L 252.3,176.3 L 256.9,174.4 L 261.5,172.6 L 266.0,170.7 L 270.6,168.8 L 275.1,167.0 L 279.7,165.1 L 284.2,163.2 L 288.8,161.3 L 293.4,159.4 L 297.9,157.4 L 302.5,155.5 L 307.0,153.5 L 311.6,151.6 L 316.1,149.6 L 320.7,147.5 L 325.3,145.5 L 329.8,143.4 L 334.4,141.3 L 338.9,139.1 L 343.5,137.0 L 348.1,134.9 L 352.6,132.8 L 357.2,130.9 L 361.7,129.1 L 366.3,127.4 L 370.9,125.8 L 375.4,124.3 L 380.0,122.9 L 384.5,121.7 L 389.1,120.5 L 393.6,119.4 L 398.2,118.4 L 402.8,117.5 L 407.3,116.6 L 411.9,115.8 L 416.4,115.1 L 421.0,114.4 L 425.6,113.8 L 430.1,113.3 L 434.7,112.7 L 439.2,112.2 L 443.8,111.8 L 448.3,111.3 L 452.9,110.9 L 457.5,110.5 L 462.0,110.0 L 466.6,109.6 L 471.1,109.1 L 475.7,108.5 L 480.2,107.9 L 484.8,107.2 L 489.4,106.4 L 493.9,105.6 L 498.5,104.8 L 503.0,104.1 L 507.6,103.6 L 512.2,103.5 L 516.7,103.9 L 521.3,104.9 L 525.8,106.5 L 530.4,108.7 L 535.0,111.5 L 539.5,114.7 L 544.1,118.5 L 548.6,122.6 L 553.2,127.1 L 557.7,131.9 L 562.3,136.8 L 566.9,142.0 L 571.4,147.2 L 576.0,152.3 L 580.5,157.4 L 585.1,162.4 L 589.7,167.1 L 594.2,171.6 L 598.8,175.9 L 603.3,179.8 L 607.9,183.6 L 612.4,187.1 L 617.0,190.4" class="fw"/>
<line x1="103.51816019973873" y1="278.9023626975434" x2="103.51816019973873" y2="283.2678767016116" class="err"/>
<line x1="100.51816019973873" y1="278.9023626975434" x2="106.51816019973873" y2="278.9023626975434" class="err"/>
<line x1="100.51816019973873" y1="283.2678767016116" x2="106.51816019973873" y2="283.2678767016116" class="err"/>
<circle cx="103.51816019973873" cy="281.08511969957755" r="2.5" class="obs"/>
<line x1="119.96688696442531" y1="249.07135033641057" x2="119.96688696442531" y2="252.95180722891564" class="err"/>
<line x1="116.96688696442531" y1="249.07135033641057" x2="122.96688696442531" y2="249.07135033641057" class="err"/>
<line x1="116.96688696442531" y1="252.95180722891564" x2="122.96688696442531" y2="252.95180722891564" class="err"/>
<circle cx="119.96688696442531" cy="251.01157878266315" r="2.5" class="obs"/>
<line x1="136.72596706429465" y1="214.14723830386478" x2="136.72596706429465" y2="229.184008762322" class="err"/>
<line x1="133.72596706429465" y1="214.14723830386478" x2="139.72596706429465" y2="214.14723830386478" class="err"/>
<line x1="133.72596706429465" y1="229.184008762322" x2="139.72596706429465" y2="229.184008762322" class="err"/>
<circle cx="136.72596706429465" cy="221.66562353309345" r="2.5" class="obs"/>
<line x1="153.7954004993468" y1="205.41621029572838" x2="153.7954004993468" y2="212.20700985761226" class="err"/>
<line x1="150.7954004993468" y1="205.41621029572838" x2="156.7954004993468" y2="205.41621029572838" class="err"/>
<line x1="150.7954004993468" y1="212.20700985761226" x2="156.7954004993468" y2="212.20700985761226" class="err"/>
<circle cx="153.7954004993468" cy="208.81161007667032" r="2.5" class="obs"/>
<line x1="169.93377392885063" y1="195.95759662024722" x2="169.93377392885063" y2="207.11391018619932" class="err"/>
<line x1="166.93377392885063" y1="195.95759662024722" x2="172.93377392885063" y2="195.95759662024722" class="err"/>
<line x1="166.93377392885063" y1="207.11391018619932" x2="172.93377392885063" y2="207.11391018619932" class="err"/>
<circle cx="169.93377392885063" cy="201.53575340322328" r="2.5" class="obs"/>
<line x1="187.00320736390273" y1="194.0173681739947" x2="187.00320736390273" y2="197.41276795493664" class="err"/>
<line x1="184.00320736390273" y1="194.0173681739947" x2="190.00320736390273" y2="194.0173681739947" class="err"/>
<line x1="184.00320736390273" y1="197.41276795493664" x2="190.00320736390273" y2="197.41276795493664" class="err"/>
<circle cx="187.00320736390273" cy="195.7150680644657" r="2.5" class="obs"/>
<line x1="203.76228746377208" y1="189.40932561414493" x2="203.76228746377208" y2="194.74495384133937" class="err"/>
<line x1="200.76228746377208" y1="189.40932561414493" x2="206.76228746377208" y2="189.40932561414493" class="err"/>
<line x1="200.76228746377208" y1="194.74495384133937" x2="206.76228746377208" y2="194.74495384133937" class="err"/>
<circle cx="203.76228746377208" cy="192.07713972774218" r="2.5" class="obs"/>
<line x1="220.52136756364143" y1="183.3461117196057" x2="220.52136756364143" y2="191.59208261617903" class="err"/>
<line x1="217.52136756364143" y1="183.3461117196057" x2="223.52136756364143" y2="183.3461117196057" class="err"/>
<line x1="217.52136756364143" y1="191.59208261617903" x2="223.52136756364143" y2="191.59208261617903" class="err"/>
<circle cx="220.52136756364143" cy="187.46909716789236" r="2.5" class="obs"/>
<line x1="236.97009432832806" y1="175.58519793459556" x2="236.97009432832806" y2="190.13691128148963" class="err"/>
<line x1="233.97009432832806" y1="175.58519793459556" x2="239.97009432832806" y2="175.58519793459556" class="err"/>
<line x1="233.97009432832806" y1="190.13691128148963" x2="239.97009432832806" y2="190.13691128148963" class="err"/>
<circle cx="236.97009432832806" cy="182.8610546080426" r="2.5" class="obs"/>
<line x1="253.7291744281974" y1="165.3989985917697" x2="253.7291744281974" y2="183.83116883116884" class="err"/>
<line x1="250.7291744281974" y1="165.3989985917697" x2="256.72917442819744" y2="165.3989985917697" class="err"/>
<line x1="250.7291744281974" y1="183.83116883116884" x2="256.72917442819744" y2="183.83116883116884" class="err"/>
<circle cx="253.7291744281974" cy="174.61508371146925" r="2.5" class="obs"/>
<line x1="270.48825452806676" y1="155.45532780472539" x2="270.48825452806676" y2="179.70818338288217" class="err"/>
<line x1="267.48825452806676" y1="155.45532780472539" x2="273.48825452806676" y2="155.45532780472539" class="err"/>
<line x1="267.48825452806676" y1="179.70818338288217" x2="273.48825452806676" y2="179.70818338288217" class="err"/>
<circle cx="270.48825452806676" cy="167.5817555938038" r="2.5" class="obs"/>
<line x1="286.93698129275333" y1="145.51165701768113" x2="286.93698129275333" y2="179.4656548271006" class="err"/>
<line x1="283.93698129275333" y1="145.51165701768113" x2="289.93698129275333" y2="145.51165701768113" class="err"/>
<line x1="283.93698129275333" y1="179.4656548271006" x2="289.93698129275333" y2="179.4656548271006" class="err"/>
<circle cx="286.93698129275333" cy="162.48865592239088" r="2.5" class="obs"/>
<line x1="303.6960613926227" y1="136.29557189798157" x2="303.6960613926227" y2="171.21968393052737" class="err"/>
<line x1="300.6960613926227" y1="136.29557189798157" x2="306.6960613926227" y2="136.29557189798157" class="err"/>
<line x1="300.6960613926227" y1="171.21968393052737" x2="306.6960613926227" y2="171.21968393052737" class="err"/>
<circle cx="303.6960613926227" cy="153.75762791425444" r="2.5" class="obs"/>
<line x1="320.4551414924921" y1="133.38522922860275" x2="320.4551414924921" y2="156.66797058363323" class="err"/>
<line x1="317.4551414924921" y1="133.38522922860275" x2="323.4551414924921" y2="133.38522922860275" class="err"/>
<line x1="317.4551414924921" y1="156.66797058363323" x2="323.4551414924921" y2="156.66797058363323" class="err"/>
<circle cx="320.4551414924921" cy="145.026599906118" r="2.5" class="obs"/>
<line x1="337.52457492754417" y1="135.81051478641842" x2="337.52457492754417" y2="142.60131434830237" class="err"/>
<line x1="334.52457492754417" y1="135.81051478641842" x2="340.52457492754417" y2="135.81051478641842" class="err"/>
<line x1="334.52457492754417" y1="142.60131434830237" x2="340.52457492754417" y2="142.60131434830237" class="err"/>
<circle cx="337.52457492754417" cy="139.20591456736037" r="2.5" class="obs"/>
<line x1="353.6629483570481" y1="127.32201533406355" x2="353.6629483570481" y2="137.5082146768894" class="err"/>
<line x1="350.6629483570481" y1="127.32201533406355" x2="356.6629483570481" y2="127.32201533406355" class="err"/>
<line x1="350.6629483570481" y1="137.5082146768894" x2="356.6629483570481" y2="137.5082146768894" class="err"/>
<circle cx="353.6629483570481" cy="132.41511500547648" r="2.5" class="obs"/>
<line x1="370.73238179210017" y1="113.74041621029572" x2="370.73238179210017" y2="138.9633860115788" class="err"/>
<line x1="367.73238179210017" y1="113.74041621029572" x2="373.73238179210017" y2="113.74041621029572" class="err"/>
<line x1="367.73238179210017" y1="138.9633860115788" x2="373.73238179210017" y2="138.9633860115788" class="err"/>
<circle cx="370.73238179210017" cy="126.35190111093723" r="2.5" class="obs"/>
<line x1="387.49146189196955" y1="100.15881708652795" x2="387.49146189196955" y2="139.9335002347051" class="err"/>
<line x1="384.49146189196955" y1="100.15881708652795" x2="390.49146189196955" y2="100.15881708652795" class="err"/>
<line x1="384.49146189196955" y1="139.9335002347051" x2="390.49146189196955" y2="139.9335002347051" class="err"/>
<circle cx="387.49146189196955" cy="120.04615866061651" r="2.5" class="obs"/>
<line x1="403.9401886566561" y1="92.39790330151777" x2="403.9401886566561" y2="137.99327178845255" class="err"/>
<line x1="400.9401886566561" y1="92.39790330151777" x2="406.9401886566561" y2="92.39790330151777" class="err"/>
<line x1="400.9401886566561" y1="137.99327178845255" x2="406.9401886566561" y2="137.99327178845255" class="err"/>
<circle cx="403.9401886566561" cy="115.19558754498513" r="2.5" class="obs"/>
<line x1="420.6992687565255" y1="89.9726177437021" x2="420.6992687565255" y2="135.56798623063685" class="err"/>
<line x1="417.6992687565255" y1="89.9726177437021" x2="423.6992687565255" y2="89.9726177437021" class="err"/>
<line x1="417.6992687565255" y1="135.56798623063685" x2="423.6992687565255" y2="135.56798623063685" class="err"/>
<circle cx="420.6992687565255" cy="112.77030198716946" r="2.5" class="obs"/>
<line x1="437.4583488563948" y1="88.75997496479424" x2="437.4583488563948" y2="131.93005789391336" class="err"/>
<line x1="434.4583488563948" y1="88.75997496479424" x2="440.4583488563948" y2="88.75997496479424" class="err"/>
<line x1="434.4583488563948" y1="131.93005789391336" x2="440.4583488563948" y2="131.93005789391336" class="err"/>
<circle cx="437.4583488563948" cy="110.34501642935379" r="2.5" class="obs"/>
<line x1="454.2174289562642" y1="89.9726177437021" x2="454.2174289562642" y2="130.7174151150055" class="err"/>
<line x1="451.2174289562642" y1="89.9726177437021" x2="457.2174289562642" y2="89.9726177437021" class="err"/>
<line x1="451.2174289562642" y1="130.7174151150055" x2="457.2174289562642" y2="130.7174151150055" class="err"/>
<circle cx="454.2174289562642" cy="110.34501642935379" r="2.5" class="obs"/>
<line x1="470.66615572095077" y1="88.5174464090127" x2="470.66615572095077" y2="132.1725864496949" class="err"/>
<line x1="467.66615572095077" y1="88.5174464090127" x2="473.66615572095077" y2="88.5174464090127" class="err"/>
<line x1="467.66615572095077" y1="132.1725864496949" x2="473.66615572095077" y2="132.1725864496949" class="err"/>
<circle cx="470.66615572095077" cy="110.34501642935379" r="2.5" class="obs"/>
<line x1="488.35629582636847" y1="87.54733218588639" x2="488.35629582636847" y2="128.29212955718984" class="err"/>
<line x1="485.35629582636847" y1="87.54733218588639" x2="491.35629582636847" y2="87.54733218588639" class="err"/>
<line x1="485.35629582636847" y1="128.29212955718984" x2="491.35629582636847" y2="128.29212955718984" class="err"/>
<circle cx="488.35629582636847" cy="107.91973087153812" r="2.5" class="obs"/>
<line x1="504.805022591055" y1="84.39446096072604" x2="504.805022591055" y2="121.74385855108747" class="err"/>
<line x1="501.805022591055" y1="84.39446096072604" x2="507.805022591055" y2="84.39446096072604" class="err"/>
<line x1="501.805022591055" y1="121.74385855108747" x2="507.805022591055" y2="121.74385855108747" class="err"/>
<circle cx="504.805022591055" cy="103.06915975590675" r="2.5" class="obs"/>
<line x1="521.2537493557415" y1="83.18181818181819" x2="521.2537493557415" y2="127.8070724456267" class="err"/>
<line x1="518.2537493557415" y1="83.18181818181819" x2="524.2537493557415" y2="83.18181818181819" class="err"/>
<line x1="518.2537493557415" y1="127.8070724456267" x2="524.2537493557415" y2="127.8070724456267" class="err"/>
<circle cx="521.2537493557415" cy="105.49444531372242" r="2.5" class="obs"/>
<g class="legend">
<line x1="82" y1="69" x2="106" y2="69" class="fw"/>
<text x="112" y="73" class="lbl-l">framework fit</text>
<line x1="82" y1="87" x2="106" y2="87" class="nt"/>
<text x="112" y="91" class="lbl-l">Newtonian (no halo)</text>
<circle cx="94" cy="105" r="2.5" class="obs"/>
<text x="112" y="109" class="lbl">observed V±err</text>
</g>
<g class="legend">
<line x1="472" y1="69" x2="496" y2="69" class="rho"/>
<text x="502" y="73" class="lbl-r">ρ(r) raw</text>
<line x1="472" y1="87" x2="496" y2="87" class="sig"/>
<text x="502" y="91" class="lbl-s">Σ(r) cumulative</text>
<text x="472" y="113" class="lbl-r">ρ peak: 114 M☉/pc²</text>
</g>
<rect x="705" y="55" width="170" height="170" class="preview-bg"/>
<defs><radialGradient id="g_NGC0247" cx="0.5" cy="0.5" r="0.5">
  <stop offset="0.0000" stop-color="rgb(67,67,67)"/>
  <stop offset="0.0312" stop-color="rgb(67,67,67)"/>
  <stop offset="0.0625" stop-color="rgb(67,67,67)"/>
  <stop offset="0.0938" stop-color="rgb(65,65,65)"/>
  <stop offset="0.1250" stop-color="rgb(61,61,61)"/>
  <stop offset="0.1562" stop-color="rgb(56,56,56)"/>
  <stop offset="0.1875" stop-color="rgb(50,50,50)"/>
  <stop offset="0.2188" stop-color="rgb(49,49,49)"/>
  <stop offset="0.2500" stop-color="rgb(48,48,48)"/>
  <stop offset="0.2812" stop-color="rgb(47,47,47)"/>
  <stop offset="0.3125" stop-color="rgb(46,46,46)"/>
  <stop offset="0.3438" stop-color="rgb(45,45,45)"/>
  <stop offset="0.3750" stop-color="rgb(44,44,44)"/>
  <stop offset="0.4062" stop-color="rgb(43,43,43)"/>
  <stop offset="0.4375" stop-color="rgb(42,42,42)"/>
  <stop offset="0.4688" stop-color="rgb(41,41,41)"/>
  <stop offset="0.5000" stop-color="rgb(40,40,40)"/>
  <stop offset="0.5312" stop-color="rgb(39,39,39)"/>
  <stop offset="0.5625" stop-color="rgb(37,37,37)"/>
  <stop offset="0.5938" stop-color="rgb(36,36,36)"/>
  <stop offset="0.6250" stop-color="rgb(34,34,34)"/>
  <stop offset="0.6562" stop-color="rgb(33,33,33)"/>
  <stop offset="0.6875" stop-color="rgb(31,31,31)"/>
  <stop offset="0.7188" stop-color="rgb(30,30,30)"/>
  <stop offset="0.7500" stop-color="rgb(28,28,28)"/>
  <stop offset="0.7812" stop-color="rgb(27,27,27)"/>
  <stop offset="0.8125" stop-color="rgb(25,25,25)"/>
  <stop offset="0.8438" stop-color="rgb(23,23,23)"/>
  <stop offset="0.8750" stop-color="rgb(18,18,18)"/>
  <stop offset="0.9062" stop-color="rgb(14,14,14)"/>
  <stop offset="0.9375" stop-color="rgb(9,9,9)"/>
  <stop offset="0.9688" stop-color="rgb(4,4,4)"/>
  <stop offset="1.0000" stop-color="rgb(0,0,0)"/>
</radialGradient></defs>
<circle cx="790.0" cy="140.0" r="81.0" fill="url(#g_NGC0247)"/>
<text x="790.0" y="49" text-anchor="middle" class="preview-lbl">face-on luminance from ρ(r)</text>
<text x="790.0" y="239" text-anchor="middle" class="preview-lbl">edge at r = 16.8 kpc</text>
</svg>