<svg xmlns="http://www.w3.org/2000/svg" viewBox="0 0 890 420" width="890" height="420" font-family="sans-serif" font-size="12">
<style>
  .ax { stroke: #333; stroke-width: 1; fill: none; }
  .grid { stroke: #ddd; stroke-width: 0.5; fill: none; }
  .lbl { fill: #333; }
  .lbl-l { fill: #0066cc; }
  .lbl-r { fill: #b03030; }
  .lbl-s { fill: #cc7000; }
  .obs { fill: #222; }
  .err { stroke: #555; stroke-width: 0.8; fill: none; }
  .fw { stroke: #0066cc; stroke-width: 2.2; fill: none; }
  .nt { stroke: #cc6600; stroke-width: 1.6; fill: none; stroke-dasharray: 5,3; }
  .rho { stroke: #b03030; stroke-width: 2.0; fill: none; }
  .sig { stroke: #cc7000; stroke-width: 1.8; fill: none; }
  .title { fill: #111; font-size: 16px; font-weight: 600; }
  .subtitle { fill: #555; font-size: 11px; }
  .legend { font-size: 11px; }
  .preview-bg { fill: #000; }
  .preview-lbl { fill: #888; font-size: 10px; }
</style>
<text x="343.5" y="22" text-anchor="middle" class="title">NGC1003</text>
<text x="343.5" y="38" text-anchor="middle" class="subtitle">rMax=30.2 kpc, N=36, RMS=1.5 km/s (1.5%), amp=105</text>
<line x1="70" y1="365.0" x2="617" y2="365.0" class="grid"/>
<text x="64" y="369.0" text-anchor="end" class="lbl-l">0</text>
<line x1="70" y1="303.0" x2="617" y2="303.0" class="grid"/>
<text x="64" y="307.0" text-anchor="end" class="lbl-l">26</text>
<line x1="70" y1="241.0" x2="617" y2="241.0" class="grid"/>
<text x="64" y="245.0" text-anchor="end" class="lbl-l">53</text>
<line x1="70" y1="178.99999999999997" x2="617" y2="178.99999999999997" class="grid"/>
<text x="64" y="182.99999999999997" text-anchor="end" class="lbl-l">79</text>
<line x1="70" y1="116.99999999999999" x2="617" y2="116.99999999999999" class="grid"/>
<text x="64" y="120.99999999999999" text-anchor="end" class="lbl-l">106</text>
<line x1="70" y1="55.0" x2="617" y2="55.0" class="grid"/>
<text x="64" y="59.0" text-anchor="end" class="lbl-l">132</text>
<text x="623" y="369.0" text-anchor="start" class="lbl-r">0.0</text>
<text x="623" y="327.6666666666667" text-anchor="start" class="lbl-r">0.2</text>
<text x="623" y="286.33333333333337" text-anchor="start" class="lbl-r">0.4</text>
<text x="623" y="245.00000000000003" text-anchor="start" class="lbl-r">0.6</text>
<text x="623" y="203.66666666666666" text-anchor="start" class="lbl-r">0.8</text>
<text x="623" y="162.33333333333334" text-anchor="start" class="lbl-r">1.0</text>
<line x1="70.0" y1="55" x2="70.0" y2="365" class="grid"/>
<text x="70.0" y="381" text-anchor="middle" class="lbl">0.0</text>
<line x1="161.16666666666666" y1="55" x2="161.16666666666666" y2="365" class="grid"/>
<text x="161.16666666666666" y="381" text-anchor="middle" class="lbl">5.4</text>
<line x1="252.33333333333331" y1="55" x2="252.33333333333331" y2="365" class="grid"/>
<text x="252.33333333333331" y="381" text-anchor="middle" class="lbl">10.7</text>
<line x1="343.5" y1="55" x2="343.5" y2="365" class="grid"/>
<text x="343.5" y="381" text-anchor="middle" class="lbl">16.1</text>
<line x1="434.66666666666663" y1="55" x2="434.66666666666663" y2="365" class="grid"/>
<text x="434.66666666666663" y="381" text-anchor="middle" class="lbl">21.4</text>
<line x1="525.8333333333334" y1="55" x2="525.8333333333334" y2="365" class="grid"/>
<text x="525.8333333333334" y="381" text-anchor="middle" class="lbl">26.8</text>
<line x1="617.0" y1="55" x2="617.0" y2="365" class="grid"/>
<text x="617.0" y="381" text-anchor="middle" class="lbl">32.1</text>
<text x="343.5" y="397" text-anchor="middle" class="lbl">radius (kpc)</text>
<text x="16" y="210.0" text-anchor="middle" class="lbl-l" transform="rotate(-90, 16, 210.0)">velocity (km/s)</text>
<text x="661" y="210.0" text-anchor="middle" class="lbl-r" transform="rotate(-90, 661, 210.0)">mass profile (normalized to peak)</text>
<rect x="70" y="55" width="547" height="310" class="ax"/>
<path d="M 70.0,158.3 L 72.5,168.2 L 75.0,178.1 L 77.5,188.0 L 80.0,197.9 L 82.5,207.8 L 85.0,217.7 L 87.5,227.6 L 90.0,237.5 L 92.5,247.4 L 95.0,257.3 L 97.5,267.2 L 100.0,271.1 L 102.5,271.9 L 105.0,272.8 L 107.5,273.6 L 110.0,274.4 L 112.5,275.3 L 115.0,276.1 L 117.5,276.9 L 120.0,277.8 L 122.5,278.6 L 124.9,279.4 L 127.4,280.2 L 129.9,281.1 L 132.4,281.9 L 134.9,282.7 L 137.4,283.6 L 139.9,284.4 L 142.4,285.2 L 144.9,286.0 L 147.4,286.9 L 149.9,287.7 L 152.4,288.5 L 154.9,289.4 L 157.4,290.2 L 159.9,291.0 L 162.4,291.8 L 164.9,292.7 L 167.4,293.5 L 169.9,294.3 L 172.4,295.2 L 174.9,296.0 L 177.4,296.8 L 179.9,297.6 L 182.4,298.5 L 184.9,299.3 L 187.4,300.1 L 189.9,301.0 L 192.4,301.8 L 194.9,302.6 L 197.4,303.4 L 199.9,304.3 L 202.4,305.1 L 204.9,305.9 L 207.4,306.8 L 209.9,307.6 L 212.4,308.4 L 214.9,309.2 L 217.4,310.1 L 219.9,310.9 L 222.4,311.7 L 224.9,312.6 L 227.4,313.4 L 229.9,314.2 L 232.4,315.0 L 234.8,315.4 L 237.3,315.4 L 239.8,315.4 L 242.3,315.4 L 244.8,315.4 L 247.3,315.4 L 249.8,315.4 L 252.3,315.4 L 254.8,315.4 L 257.3,315.4 L 259.8,315.4 L 262.3,315.4 L 264.8,315.4 L 267.3,315.4 L 269.8,315.4 L 272.3,315.4 L 274.8,315.4 L 277.3,315.4 L 279.8,315.4 L 282.3,315.4 L 284.8,315.4 L 287.3,315.4 L 289.8,315.4 L 292.3,315.4 L 294.8,315.4 L 297.3,315.4 L 299.8,315.5 L 302.3,315.7 L 304.8,315.9 L 307.3,316.1 L 309.8,316.3 L 312.3,316.5 L 314.8,316.7 L 317.3,316.9 L 319.8,317.1 L 322.3,317.4 L 324.8,317.6 L 327.3,317.8 L 329.8,318.0 L 332.3,318.2 L 334.8,318.4 L 337.3,318.6 L 339.8,318.8 L 342.3,319.0 L 344.7,319.3 L 347.2,319.5 L 349.7,319.7 L 352.2,319.9 L 354.7,320.1 L 357.2,320.3 L 359.7,320.5 L 362.2,320.7 L 364.7,320.9 L 367.2,321.2 L 369.7,321.4 L 372.2,321.6 L 374.7,321.8 L 377.2,322.0 L 379.7,322.2 L 382.2,322.4 L 384.7,322.6 L 387.2,322.8 L 389.7,323.1 L 392.2,323.3 L 394.7,323.5 L 397.2,323.7 L 399.7,323.9 L 402.2,324.1 L 404.7,324.3 L 407.2,324.5 L 409.7,324.7 L 412.2,325.0 L 414.7,325.2 L 417.2,325.4 L 419.7,325.6 L 422.2,325.8 L 424.7,326.0 L 427.2,326.2 L 429.7,326.4 L 432.2,326.6 L 434.7,326.9 L 437.2,327.1 L 439.7,327.3 L 442.2,327.5 L 444.7,327.7 L 447.2,327.9 L 449.7,328.1 L 452.2,328.3 L 454.6,328.5 L 457.1,328.8 L 459.6,329.0 L 462.1,329.2 L 464.6,329.4 L 467.1,329.6 L 469.6,329.8 L 472.1,330.0 L 474.6,330.2 L 477.1,330.4 L 479.6,330.6 L 482.1,330.9 L 484.6,331.1 L 487.1,331.3 L 489.6,331.5 L 492.1,331.7 L 494.6,331.9 L 497.1,332.1 L 499.6,332.3 L 502.1,332.5 L 504.6,332.8 L 507.1,333.0 L 509.6,333.2 L 512.1,333.4 L 514.6,333.6 L 517.1,333.8 L 519.6,334.0 L 522.1,334.2 L 524.6,334.4 L 527.1,334.7 L 529.6,334.9 L 532.1,335.1 L 534.6,335.3 L 537.1,335.5 L 539.6,335.7 L 542.1,335.9 L 544.6,336.1 L 547.1,336.3 L 549.6,336.6 L 552.1,336.8 L 554.6,337.0 L 557.1,337.2 L 559.6,337.4 L 562.1,337.6 L 564.5,337.8 L 567.0,338.0 L 569.5,338.2 L 572.0,338.5 L 574.5,338.7 L 577.0,338.9 L 579.5,339.1 L 582.0,339.3 L 584.5,343.7 L 587.0,352.0 L 589.5,360.3 L 592.0,365.0 L 594.5,365.0 L 597.0,365.0 L 599.5,365.0 L 602.0,365.0 L 604.5,365.0 L 607.0,365.0 L 609.5,365.0 L 612.0,365.0 L 614.5,365.0 L 617.0,365.0" class="rho"/>
<path d="M 70.0,158.3 L 72.5,158.7 L 75.0,159.2 L 77.5,160.0 L 80.0,161.0 L 82.5,162.2 L 85.0,163.7 L 87.5,165.3 L 90.0,167.0 L 92.5,168.8 L 95.0,170.7 L 97.5,172.6 L 100.0,174.5 L 102.5,176.4 L 105.0,178.3 L 107.5,180.2 L 110.0,182.0 L 112.5,183.8 L 115.0,185.6 L 117.5,187.3 L 120.0,189.1 L 122.5,190.8 L 124.9,192.4 L 127.4,194.1 L 129.9,195.7 L 132.4,197.4 L 134.9,199.0 L 137.4,200.6 L 139.9,202.2 L 142.4,203.8 L 144.9,205.4 L 147.4,207.0 L 149.9,208.5 L 152.4,210.1 L 154.9,211.6 L 157.4,213.2 L 159.9,214.7 L 162.4,216.3 L 164.9,217.8 L 167.4,219.3 L 169.9,220.8 L 172.4,222.3 L 174.9,223.8 L 177.4,225.3 L 179.9,226.7 L 182.4,228.2 L 184.9,229.6 L 187.4,231.0 L 189.9,232.4 L 192.4,233.8 L 194.9,235.2 L 197.4,236.6 L 199.9,237.9 L 202.4,239.2 L 204.9,240.5 L 207.4,241.8 L 209.9,243.1 L 212.4,244.4 L 214.9,245.6 L 217.4,246.8 L 219.9,248.0 L 222.4,249.1 L 224.9,250.3 L 227.4,251.4 L 229.9,252.4 L 232.4,253.5 L 234.8,254.5 L 237.3,255.5 L 239.8,256.5 L 242.3,257.5 L 244.8,258.4 L 247.3,259.3 L 249.8,260.2 L 252.3,261.1 L 254.8,262.0 L 257.3,262.8 L 259.8,263.6 L 262.3,264.4 L 264.8,265.2 L 267.3,266.0 L 269.8,266.8 L 272.3,267.5 L 274.8,268.3 L 277.3,269.0 L 279.8,269.8 L 282.3,270.5 L 284.8,271.2 L 287.3,271.9 L 289.8,272.6 L 292.3,273.3 L 294.8,274.0 L 297.3,274.7 L 299.8,275.4 L 302.3,276.1 L 304.8,276.8 L 307.3,277.5 L 309.8,278.2 L 312.3,278.9 L 314.8,279.5 L 317.3,280.2 L 319.8,280.9 L 322.3,281.6 L 324.8,282.2 L 327.3,282.9 L 329.8,283.6 L 332.3,284.2 L 334.8,284.9 L 337.3,285.6 L 339.8,286.2 L 342.3,286.9 L 344.7,287.5 L 347.2,288.2 L 349.7,288.8 L 352.2,289.5 L 354.7,290.1 L 357.2,290.8 L 359.7,291.4 L 362.2,292.0 L 364.7,292.7 L 367.2,293.3 L 369.7,293.9 L 372.2,294.5 L 374.7,295.2 L 377.2,295.8 L 379.7,296.4 L 382.2,297.0 L 384.7,297.6 L 387.2,298.2 L 389.7,298.8 L 392.2,299.4 L 394.7,300.0 L 397.2,300.6 L 399.7,301.2 L 402.2,301.8 L 404.7,302.4 L 407.2,303.0 L 409.7,303.6 L 412.2,304.2 L 414.7,304.7 L 417.2,305.3 L 419.7,305.9 L 422.2,306.4 L 424.7,307.0 L 427.2,307.6 L 429.7,308.1 L 432.2,308.7 L 434.7,309.3 L 437.2,309.8 L 439.7,310.4 L 442.2,310.9 L 444.7,311.4 L 447.2,312.0 L 449.7,312.5 L 452.2,313.1 L 454.6,313.6 L 457.1,314.1 L 459.6,314.7 L 462.1,315.2 L 464.6,315.7 L 467.1,316.2 L 469.6,316.7 L 472.1,317.3 L 474.6,317.8 L 477.1,318.3 L 479.6,318.8 L 482.1,319.3 L 484.6,319.8 L 487.1,320.3 L 489.6,320.8 L 492.1,321.3 L 494.6,321.8 L 497.1,322.3 L 499.6,322.7 L 502.1,323.2 L 504.6,323.7 L 507.1,324.2 L 509.6,324.7 L 512.1,325.2 L 514.6,325.6 L 517.1,326.1 L 519.6,326.6 L 522.1,327.0 L 524.6,327.5 L 527.1,328.0 L 529.6,328.4 L 532.1,328.9 L 534.6,329.4 L 537.1,329.8 L 539.6,330.3 L 542.1,330.8 L 544.6,331.2 L 547.1,331.7 L 549.6,332.1 L 552.1,332.6 L 554.6,333.1 L 557.1,333.5 L 559.6,334.0 L 562.1,334.5 L 564.5,334.9 L 567.0,335.4 L 569.5,335.8 L 572.0,336.3 L 574.5,336.8 L 577.0,337.2 L 579.5,337.7 L 582.0,338.2 L 584.5,338.6 L 587.0,339.1 L 589.5,339.5 L 592.0,339.9 L 594.5,340.4 L 597.0,340.8 L 599.5,341.2 L 602.0,341.6 L 604.5,342.0 L 607.0,342.3 L 609.5,342.7 L 612.0,343.0 L 614.5,343.4 L 617.0,343.7" class="sig"/>
<path d="M 75.5,301.8 L 80.9,279.1 L 86.4,264.1 L 91.9,253.8 L 97.3,246.8 L 102.8,241.6 L 108.3,236.2 L 113.8,230.7 L 119.2,225.4 L 124.7,220.2 L 130.2,215.3 L 135.6,210.5 L 141.1,206.1 L 146.6,201.8 L 152.1,197.8 L 157.5,193.9 L 163.0,190.3 L 168.5,186.8 L 173.9,183.6 L 179.4,180.5 L 184.9,177.6 L 190.3,174.9 L 195.8,172.3 L 201.3,169.9 L 206.8,167.6 L 212.2,165.4 L 217.7,163.5 L 223.2,161.6 L 228.6,159.9 L 234.1,158.3 L 239.6,156.7 L 245.0,155.1 L 250.5,153.5 L 256.0,151.8 L 261.5,150.1 L 266.9,148.3 L 272.4,146.6 L 277.9,144.8 L 283.3,143.0 L 288.8,141.2 L 294.3,139.4 L 299.7,137.6 L 305.2,135.8 L 310.7,134.0 L 316.1,132.3 L 321.6,130.6 L 327.1,128.9 L 332.6,127.3 L 338.0,125.7 L 343.5,124.1 L 349.0,122.6 L 354.4,121.1 L 359.9,119.6 L 365.4,118.2 L 370.9,116.8 L 376.3,115.4 L 381.8,114.1 L 387.3,112.8 L 392.7,111.5 L 398.2,110.2 L 403.7,109.0 L 409.1,107.8 L 414.6,106.7 L 420.1,105.5 L 425.5,104.4 L 431.0,103.3 L 436.5,102.3 L 442.0,101.2 L 447.4,100.2 L 452.9,99.2 L 458.4,98.3 L 463.8,97.4 L 469.3,96.5 L 474.8,95.6 L 480.2,94.8 L 485.7,93.9 L 491.2,93.1 L 496.7,92.4 L 502.1,91.6 L 507.6,90.9 L 513.1,90.2 L 518.5,89.5 L 524.0,88.9 L 529.5,88.2 L 535.0,87.6 L 540.4,87.1 L 545.9,86.5 L 551.4,86.0 L 556.8,85.5 L 562.3,85.0 L 567.8,84.5 L 573.2,84.1 L 578.7,83.7 L 584.2,83.3 L 589.7,83.7 L 595.1,85.2 L 600.6,86.7 L 606.1,88.1 L 611.5,89.5 L 617.0,90.8" class="nt"/>
<path d="M 74.6,333.1 L 79.1,310.3 L 83.7,287.0 L 88.2,266.8 L 92.8,250.0 L 97.3,236.9 L 101.9,226.5 L 106.5,218.4 L 111.0,211.6 L 115.6,205.5 L 120.1,199.9 L 124.7,194.4 L 129.3,189.0 L 133.8,183.7 L 138.4,178.4 L 142.9,173.3 L 147.5,168.3 L 152.1,163.5 L 156.6,158.9 L 161.2,154.5 L 165.7,150.4 L 170.3,146.7 L 174.8,143.2 L 179.4,140.0 L 184.0,137.2 L 188.5,134.7 L 193.1,132.6 L 197.6,130.9 L 202.2,129.7 L 206.8,128.9 L 211.3,128.5 L 215.9,128.7 L 220.4,129.3 L 225.0,130.4 L 229.5,131.9 L 234.1,133.7 L 238.7,135.6 L 243.2,137.5 L 247.8,139.3 L 252.3,140.9 L 256.9,142.2 L 261.4,143.3 L 266.0,144.0 L 270.6,144.4 L 275.1,144.5 L 279.7,144.2 L 284.2,143.7 L 288.8,142.9 L 293.4,141.9 L 297.9,140.6 L 302.5,139.2 L 307.0,137.8 L 311.6,136.3 L 316.1,134.8 L 320.7,133.4 L 325.3,132.0 L 329.8,130.6 L 334.4,129.3 L 338.9,128.1 L 343.5,126.9 L 348.1,125.8 L 352.6,124.7 L 357.2,123.7 L 361.7,122.7 L 366.3,121.7 L 370.8,120.8 L 375.4,119.9 L 380.0,119.1 L 384.5,118.3 L 389.1,117.5 L 393.6,116.8 L 398.2,116.1 L 402.8,115.5 L 407.3,114.8 L 411.9,114.3 L 416.4,113.7 L 421.0,113.2 L 425.6,112.7 L 430.1,112.2 L 434.7,111.8 L 439.2,111.3 L 443.8,110.9 L 448.3,110.6 L 452.9,110.2 L 457.5,109.9 L 462.0,109.6 L 466.6,109.3 L 471.1,109.0 L 475.7,108.7 L 480.2,108.5 L 484.8,108.2 L 489.4,107.9 L 493.9,107.6 L 498.5,107.3 L 503.0,107.0 L 507.6,106.7 L 512.2,106.3 L 516.7,105.9 L 521.3,105.4 L 525.8,104.8 L 530.4,104.2 L 535.0,103.4 L 539.5,102.6 L 544.1,101.5 L 548.6,100.4 L 553.2,99.0 L 557.7,97.6 L 562.3,96.0 L 566.9,94.5 L 571.4,93.2 L 576.0,92.5 L 580.5,92.6 L 585.1,93.9 L 589.6,96.6 L 594.2,100.5 L 598.8,105.4 L 603.3,111.0 L 607.9,116.8 L 612.4,122.7 L 617.0,128.4" class="fw"/>
<line x1="91.29977902433275" y1="237.06400031613617" x2="91.29977902433275" y2="272.67988301201035" class="err"/>
<line x1="88.29977902433275" y1="237.06400031613617" x2="94.29977902433275" y2="237.06400031613617" class="err"/>
<line x1="88.29977902433275" y1="272.67988301201035" x2="94.29977902433275" y2="272.67988301201035" class="err"/>
<circle cx="91.29977902433275" cy="254.87194166407326" r="2.5" class="obs"/>
<line x1="105.44283229648968" y1="215.03838864895081" x2="105.44283229648968" y2="236.1267402451921" class="err"/>
<line x1="102.44283229648968" y1="215.03838864895081" x2="108.44283229648968" y2="215.03838864895081" class="err"/>
<line x1="102.44283229648968" y1="236.1267402451921" x2="108.44283229648968" y2="236.1267402451921" class="err"/>
<circle cx="105.44283229648968" cy="225.58256444707146" r="2.5" class="obs"/>
<line x1="119.41548733645197" y1="188.5607916447812" x2="119.41548733645197" y2="205.90010295724628" class="err"/>
<line x1="116.41548733645197" y1="188.5607916447812" x2="122.41548733645197" y2="188.5607916447812" class="err"/>
<line x1="116.41548733645197" y1="205.90010295724628" x2="122.41548733645197" y2="205.90010295724628" class="err"/>
<circle cx="119.41548733645197" cy="197.23044730101375" r="2.5" class="obs"/>
<line x1="133.55854060860892" y1="175.90778068703648" x2="133.55854060860892" y2="190.43531178666933" class="err"/>
<line x1="130.55854060860892" y1="175.90778068703648" x2="136.55854060860892" y2="175.90778068703648" class="err"/>
<line x1="130.55854060860892" y1="190.43531178666933" x2="136.55854060860892" y2="190.43531178666933" class="err"/>
<circle cx="133.55854060860892" cy="183.1715462368529" r="2.5" class="obs"/>
<line x1="147.70159388076587" y1="161.14593456966753" x2="147.70159388076587" y2="178.01661584666056" class="err"/>
<line x1="144.70159388076587" y1="161.14593456966753" x2="150.70159388076587" y2="161.14593456966753" class="err"/>
<line x1="144.70159388076587" y1="178.01661584666056" x2="150.70159388076587" y2="178.01661584666056" class="err"/>
<circle cx="147.70159388076587" cy="169.58127520816404" r="2.5" class="obs"/>
<line x1="161.8446471529228" y1="145.9154584168266" x2="161.8446471529228" y2="163.72339976476366" class="err"/>
<line x1="158.8446471529228" y1="145.9154584168266" x2="164.8446471529228" y2="145.9154584168266" class="err"/>
<line x1="158.8446471529228" y1="163.72339976476366" x2="164.8446471529228" y2="163.72339976476366" class="err"/>
<circle cx="161.8446471529228" cy="154.81942909079513" r="2.5" class="obs"/>
<line x1="175.98770042507977" y1="139.5889529379542" x2="175.98770042507977" y2="150.83607378928292" class="err"/>
<line x1="172.98770042507977" y1="139.5889529379542" x2="178.98770042507977" y2="139.5889529379542" class="err"/>
<line x1="172.98770042507977" y1="150.83607378928292" x2="178.98770042507977" y2="150.83607378928292" class="err"/>
<circle cx="175.98770042507977" cy="145.21251336361854" r="2.5" class="obs"/>
<line x1="189.96035546504203" y1="125.99868190926539" x2="189.96035546504203" y2="140.05758297342624" class="err"/>
<line x1="186.96035546504203" y1="125.99868190926539" x2="192.96035546504203" y2="125.99868190926539" class="err"/>
<line x1="186.96035546504203" y1="140.05758297342624" x2="192.96035546504203" y2="140.05758297342624" class="err"/>
<circle cx="189.96035546504203" cy="133.0281324413458" r="2.5" class="obs"/>
<line x1="204.10340873719898" y1="117.79765628850487" x2="204.10340873719898" y2="129.5134071753056" class="err"/>
<line x1="201.10340873719898" y1="117.79765628850487" x2="207.10340873719898" y2="117.79765628850487" class="err"/>
<line x1="201.10340873719898" y1="129.5134071753056" x2="207.10340873719898" y2="129.5134071753056" class="err"/>
<circle cx="204.10340873719898" cy="123.65553173190526" r="2.5" class="obs"/>
<line x1="218.2464620093559" y1="125.29573685605735" x2="218.2464620093559" y2="136.074227671914" class="err"/>
<line x1="215.2464620093559" y1="125.29573685605735" x2="221.2464620093559" y2="125.29573685605735" class="err"/>
<line x1="215.2464620093559" y1="136.074227671914" x2="221.2464620093559" y2="136.074227671914" class="err"/>
<circle cx="218.2464620093559" cy="130.68498226398566" r="2.5" class="obs"/>
<line x1="232.5599135137075" y1="129.98203721077766" x2="232.5599135137075" y2="139.3546379202182" class="err"/>
<line x1="229.5599135137075" y1="129.98203721077766" x2="235.5599135137075" y2="129.98203721077766" class="err"/>
<line x1="229.5599135137075" y1="139.3546379202182" x2="235.5599135137075" y2="139.3546379202182" class="err"/>
<circle cx="232.5599135137075" cy="134.66833756549792" r="2.5" class="obs"/>
<line x1="246.19177208928048" y1="130.45066724624962" x2="246.19177208928048" y2="138.41737784927415" class="err"/>
<line x1="243.19177208928048" y1="130.45066724624962" x2="249.19177208928048" y2="130.45066724624962" class="err"/>
<line x1="243.19177208928048" y1="138.41737784927415" x2="249.19177208928048" y2="138.41737784927415" class="err"/>
<circle cx="246.19177208928048" cy="134.4340225477619" r="2.5" class="obs"/>
<line x1="261.01641829021605" y1="139.3546379202182" x2="261.01641829021605" y2="147.78997855871472" class="err"/>
<line x1="258.01641829021605" y1="139.3546379202182" x2="264.01641829021605" y2="139.3546379202182" class="err"/>
<line x1="258.01641829021605" y1="147.78997855871472" x2="264.01641829021605" y2="147.78997855871472" class="err"/>
<circle cx="261.01641829021605" cy="143.57230823946645" r="2.5" class="obs"/>
<line x1="274.13708216920503" y1="137.01148774285804" x2="274.13708216920503" y2="148.25860859418674" class="err"/>
<line x1="271.13708216920503" y1="137.01148774285804" x2="277.13708216920503" y2="137.01148774285804" class="err"/>
<line x1="271.13708216920503" y1="148.25860859418674" x2="277.13708216920503" y2="148.25860859418674" class="err"/>
<circle cx="274.13708216920503" cy="142.6350481685224" r="2.5" class="obs"/>
<line x1="288.96172837014063" y1="137.94874781380213" x2="288.96172837014063" y2="145.44682838135458" class="err"/>
<line x1="285.96172837014063" y1="137.94874781380213" x2="291.96172837014063" y2="137.94874781380213" class="err"/>
<line x1="285.96172837014063" y1="145.44682838135458" x2="291.96172837014063" y2="145.44682838135458" class="err"/>
<circle cx="288.96172837014063" cy="141.69778809757833" r="2.5" class="obs"/>
<line x1="303.78637457107624" y1="133.73107749455386" x2="303.78637457107624" y2="142.16641813305034" class="err"/>
<line x1="300.78637457107624" y1="133.73107749455386" x2="306.78637457107624" y2="133.73107749455386" class="err"/>
<line x1="300.78637457107624" y1="142.16641813305034" x2="306.78637457107624" y2="142.16641813305034" class="err"/>
<circle cx="303.78637457107624" cy="137.9487478138021" r="2.5" class="obs"/>
<line x1="316.9070384500652" y1="134.19970753002588" x2="316.9070384500652" y2="140.29189799116224" class="err"/>
<line x1="313.9070384500652" y1="134.19970753002588" x2="319.9070384500652" y2="134.19970753002588" class="err"/>
<line x1="313.9070384500652" y1="140.29189799116224" x2="319.9070384500652" y2="140.29189799116224" class="err"/>
<circle cx="316.9070384500652" cy="137.24580276059407" r="2.5" class="obs"/>
<line x1="331.73168465100076" y1="126.4673119447374" x2="331.73168465100076" y2="134.90265258323393" class="err"/>
<line x1="328.73168465100076" y1="126.4673119447374" x2="334.73168465100076" y2="126.4673119447374" class="err"/>
<line x1="328.73168465100076" y1="134.90265258323393" x2="334.73168465100076" y2="134.90265258323393" class="err"/>
<circle cx="331.73168465100076" cy="130.68498226398566" r="2.5" class="obs"/>
<line x1="344.85234852998974" y1="114.9858760756727" x2="344.85234852998974" y2="127.63888703341748" class="err"/>
<line x1="341.85234852998974" y1="114.9858760756727" x2="347.85234852998974" y2="114.9858760756727" class="err"/>
<line x1="341.85234852998974" y1="127.63888703341748" x2="347.85234852998974" y2="127.63888703341748" class="err"/>
<circle cx="344.85234852998974" cy="121.31238155454511" r="2.5" class="obs"/>
<line x1="359.67699473092534" y1="113.81430098699263" x2="359.67699473092534" y2="128.81046212209753" class="err"/>
<line x1="356.67699473092534" y1="113.81430098699263" x2="362.67699473092534" y2="113.81430098699263" class="err"/>
<line x1="356.67699473092534" y1="128.81046212209753" x2="362.67699473092534" y2="128.81046212209753" class="err"/>
<circle cx="359.67699473092534" cy="121.31238155454511" r="2.5" class="obs"/>
<line x1="372.968056842109" y1="111.00252077416044" x2="372.968056842109" y2="126.93594198020946" class="err"/>
<line x1="369.968056842109" y1="111.00252077416044" x2="375.968056842109" y2="111.00252077416044" class="err"/>
<line x1="369.968056842109" y1="126.93594198020946" x2="375.968056842109" y2="126.93594198020946" class="err"/>
<circle cx="372.968056842109" cy="118.96923137718494" r="2.5" class="obs"/>
<line x1="387.7927030430445" y1="100.4583449760398" x2="387.7927030430445" y2="118.73491635944895" class="err"/>
<line x1="384.7927030430445" y1="100.4583449760398" x2="390.7927030430445" y2="100.4583449760398" class="err"/>
<line x1="384.7927030430445" y1="118.73491635944895" x2="390.7927030430445" y2="118.73491635944895" class="err"/>
<circle cx="387.7927030430445" cy="109.59663066774439" r="2.5" class="obs"/>
<line x1="402.61734924398013" y1="98.34950981641572" x2="402.61734924398013" y2="116.15745116435278" class="err"/>
<line x1="399.61734924398013" y1="98.34950981641572" x2="405.61734924398013" y2="98.34950981641572" class="err"/>
<line x1="399.61734924398013" y1="116.15745116435278" x2="405.61734924398013" y2="116.15745116435278" class="err"/>
<circle cx="402.61734924398013" cy="107.25348049038425" r="2.5" class="obs"/>
<line x1="415.73801312296916" y1="105.37896034849612" x2="415.73801312296916" y2="123.1869016964332" class="err"/>
<line x1="412.73801312296916" y1="105.37896034849612" x2="418.73801312296916" y2="105.37896034849612" class="err"/>
<line x1="412.73801312296916" y1="123.1869016964332" x2="418.73801312296916" y2="123.1869016964332" class="err"/>
<circle cx="415.73801312296916" cy="114.28293102246465" r="2.5" class="obs"/>
<line x1="430.56265932390477" y1="107.72211052585627" x2="430.56265932390477" y2="125.53005187379333" class="err"/>
<line x1="427.56265932390477" y1="107.72211052585627" x2="433.56265932390477" y2="107.72211052585627" class="err"/>
<line x1="427.56265932390477" y1="125.53005187379333" x2="433.56265932390477" y2="125.53005187379333" class="err"/>
<circle cx="430.56265932390477" cy="116.6260811998248" r="2.5" class="obs"/>
<line x1="443.6833232028937" y1="107.25348049038425" x2="443.6833232028937" y2="125.99868190926539" class="err"/>
<line x1="440.6833232028937" y1="107.25348049038425" x2="446.6833232028937" y2="107.25348049038425" class="err"/>
<line x1="440.6833232028937" y1="125.99868190926539" x2="446.6833232028937" y2="125.99868190926539" class="err"/>
<circle cx="443.6833232028937" cy="116.6260811998248" r="2.5" class="obs"/>
<line x1="458.5079694038293" y1="103.97307024208004" x2="458.5079694038293" y2="119.90649144812902" class="err"/>
<line x1="455.5079694038293" y1="103.97307024208004" x2="461.5079694038293" y2="103.97307024208004" class="err"/>
<line x1="455.5079694038293" y1="119.90649144812902" x2="461.5079694038293" y2="119.90649144812902" class="err"/>
<circle cx="458.5079694038293" cy="111.93978084510452" r="2.5" class="obs"/>
<line x1="473.3326156047649" y1="102.09855010019191" x2="473.3326156047649" y2="117.09471123529686" class="err"/>
<line x1="470.3326156047649" y1="102.09855010019191" x2="476.3326156047649" y2="102.09855010019191" class="err"/>
<line x1="470.3326156047649" y1="117.09471123529686" x2="476.3326156047649" y2="117.09471123529686" class="err"/>
<circle cx="473.3326156047649" cy="109.59663066774439" r="2.5" class="obs"/>
<line x1="486.4532794837539" y1="99.52108490509579" x2="486.4532794837539" y2="114.9858760756727" class="err"/>
<line x1="483.4532794837539" y1="99.52108490509579" x2="489.4532794837539" y2="99.52108490509579" class="err"/>
<line x1="483.4532794837539" y1="114.9858760756727" x2="489.4532794837539" y2="114.9858760756727" class="err"/>
<circle cx="486.4532794837539" cy="107.25348049038425" r="2.5" class="obs"/>
<line x1="501.2779256846894" y1="100.92697501151184" x2="501.2779256846894" y2="113.57998596925661" class="err"/>
<line x1="498.2779256846894" y1="100.92697501151184" x2="504.2779256846894" y2="100.92697501151184" class="err"/>
<line x1="498.2779256846894" y1="113.57998596925661" x2="504.2779256846894" y2="113.57998596925661" class="err"/>
<circle cx="501.2779256846894" cy="107.25348049038425" r="2.5" class="obs"/>
<line x1="514.3985895636783" y1="101.6299200647199" x2="514.3985895636783" y2="112.8770409160486" class="err"/>
<line x1="511.39858956367834" y1="101.6299200647199" x2="517.3985895636783" y2="101.6299200647199" class="err"/>
<line x1="511.39858956367834" y1="112.8770409160486" x2="517.3985895636783" y2="112.8770409160486" class="err"/>
<circle cx="514.3985895636783" cy="107.25348049038425" r="2.5" class="obs"/>
<line x1="529.223235764614" y1="94.36615451490346" x2="529.223235764614" y2="106.08190540170418" class="err"/>
<line x1="526.223235764614" y1="94.36615451490346" x2="532.223235764614" y2="94.36615451490346" class="err"/>
<line x1="526.223235764614" y1="106.08190540170418" x2="532.223235764614" y2="106.08190540170418" class="err"/>
<circle cx="529.223235764614" cy="100.22402995830379" r="2.5" class="obs"/>
<line x1="542.5142978757976" y1="92.72594939075134" x2="542.5142978757976" y2="103.03581017113599" class="err"/>
<line x1="539.5142978757976" y1="92.72594939075134" x2="545.5142978757976" y2="92.72594939075134" class="err"/>
<line x1="539.5142978757976" y1="103.03581017113599" x2="545.5142978757976" y2="103.03581017113599" class="err"/>
<circle cx="542.5142978757976" cy="97.88087978094366" r="2.5" class="obs"/>
<line x1="557.3389440767332" y1="98.5838248341517" x2="557.3389440767332" y2="106.5505354371762" class="err"/>
<line x1="554.3389440767332" y1="98.5838248341517" x2="560.3389440767332" y2="98.5838248341517" class="err"/>
<line x1="554.3389440767332" y1="106.5505354371762" x2="560.3389440767332" y2="106.5505354371762" class="err"/>
<circle cx="557.3389440767332" cy="102.56718013566393" r="2.5" class="obs"/>
<line x1="572.1635902776688" y1="96.00635963905555" x2="572.1635902776688" y2="104.44170027755206" class="err"/>
<line x1="569.1635902776688" y1="96.00635963905555" x2="575.1635902776688" y2="96.00635963905555" class="err"/>
<line x1="569.1635902776688" y1="104.44170027755206" x2="575.1635902776688" y2="104.44170027755206" class="err"/>
<circle cx="572.1635902776688" cy="100.22402995830379" r="2.5" class="obs"/>
<line x1="585.2842541566578" y1="91.78868931980732" x2="585.2842541566578" y2="99.28676988735972" class="err"/>
<line x1="582.2842541566578" y1="91.78868931980732" x2="588.2842541566578" y2="91.78868931980732" class="err"/>
<line x1="582.2842541566578" y1="99.28676988735972" x2="588.2842541566578" y2="99.28676988735972" class="err"/>
<circle cx="585.2842541566578" cy="95.53772960358353" r="2.5" class="obs"/>
<g class="legend">
<line x1="82" y1="69" x2="106" y2="69" class="fw"/>
<text x="112" y="73" class="lbl-l">framework fit</text>
<line x1="82" y1="87" x2="106" y2="87" class="nt"/>
<text x="112" y="91" class="lbl-l">Newtonian (no halo)</text>
<circle cx="94" cy="105" r="2.5" class="obs"/>
<text x="112" y="109" class="lbl">observed V±err</text>
</g>
<g class="legend">
<line x1="472" y1="69" x2="496" y2="69" class="rho"/>
<text x="502" y="73" class="lbl-r">ρ(r) raw</text>
<line x1="472" y1="87" x2="496" y2="87" class="sig"/>
<text x="502" y="91" class="lbl-s">Σ(r) cumulative</text>
<text x="472" y="113" class="lbl-r">ρ peak: 180 M☉/pc²</text>
</g>
<rect x="705" y="55" width="170" height="170" class="preview-bg"/>
<defs><radialGradient id="g_NGC1003" cx="0.5" cy="0.5" r="0.5">
  <stop offset="0.0000" stop-color="rgb(85,85,85)"/>
  <stop offset="0.0312" stop-color="rgb(70,70,70)"/>
  <stop offset="0.0625" stop-color="rgb(51,51,51)"/>
  <stop offset="0.0938" stop-color="rgb(48,48,48)"/>
  <stop offset="0.1250" stop-color="rgb(45,45,45)"/>
  <stop offset="0.1562" stop-color="rgb(42,42,42)"/>
  <stop offset="0.1875" stop-color="rgb(39,39,39)"/>
  <stop offset="0.2188" stop-color="rgb(36,36,36)"/>
  <stop offset="0.2500" stop-color="rgb(33,33,33)"/>
  <stop offset="0.2812" stop-color="rgb(30,30,30)"/>
  <stop offset="0.3125" stop-color="rgb(27,27,27)"/>
  <stop offset="0.3438" stop-color="rgb(27,27,27)"/>
  <stop offset="0.3750" stop-color="rgb(27,27,27)"/>
  <stop offset="0.4062" stop-color="rgb(27,27,27)"/>
  <stop offset="0.4375" stop-color="rgb(27,27,27)"/>
  <stop offset="0.4688" stop-color="rgb(26,26,26)"/>
  <stop offset="0.5000" stop-color="rgb(26,26,26)"/>
  <stop offset="0.5312" stop-color="rgb(25,25,25)"/>
  <stop offset="0.5625" stop-color="rgb(24,24,24)"/>
  <stop offset="0.5938" stop-color="rgb(23,23,23)"/>
  <stop offset="0.6250" stop-color="rgb(23,23,23)"/>
  <stop offset="0.6562" stop-color="rgb(22,22,22)"/>
  <stop offset="0.6875" stop-color="rgb(21,21,21)"/>
  <stop offset="0.7188" stop-color="rgb(20,20,20)"/>
  <stop offset="0.7500" stop-color="rgb(19,19,19)"/>
  <stop offset="0.7812" stop-color="rgb(19,19,19)"/>
  <stop offset="0.8125" stop-color="rgb(18,18,18)"/>
  <stop offset="0.8438" stop-color="rgb(17,17,17)"/>
  <stop offset="0.8750" stop-color="rgb(16,16,16)"/>
  <stop offset="0.9062" stop-color="rgb(16,16,16)"/>
  <stop offset="0.9375" stop-color="rgb(15,15,15)"/>
  <stop offset="0.9688" stop-color="rgb(14,14,14)"/>
  <stop offset="1.0000" stop-color="rgb(0,0,0)"/>
</radialGradient></defs>
<circle cx="790.0" cy="140.0" r="81.0" fill="url(#g_NGC1003)"/>
<text x="790.0" y="49" text-anchor="middle" class="preview-lbl">face-on luminance from ρ(r)</text>
<text x="790.0" y="239" text-anchor="middle" class="preview-lbl">edge at r = 30.6 kpc</text>
</svg>