<svg xmlns="http://www.w3.org/2000/svg" viewBox="0 0 960 450" width="960" height="450" font-family="sans-serif" font-size="12">
<style>
  .ax { stroke: #333; stroke-width: 1; fill: none; }
  .grid { stroke: #ddd; stroke-width: 0.5; fill: none; }
  .lbl { fill: #333; }
  .lbl-l { fill: #0066cc; }
  .lbl-r { fill: #b03030; }
  .obs { fill: #222; }
  .err { stroke: #555; stroke-width: 0.8; fill: none; }
  .fw { stroke: #0066cc; stroke-width: 2.2; fill: none; }
  .nt { stroke: #cc6600; stroke-width: 1.6; fill: none; stroke-dasharray: 5,3; }
  .mond { stroke: #7b2cbf; stroke-width: 1.8; fill: none; stroke-dasharray: 7,3; }
  .lbl-p { fill: #cc7000; }
  .lbl-m { fill: #7b2cbf; }
  .rho { stroke: #b03030; stroke-width: 2.0; fill: none; }
  .phot { stroke: #cc7000; stroke-width: 1.8; fill: none; }
  .mbar { stroke: #8e44ad; stroke-width: 1.8; fill: none; opacity: 0.9; }
  .mph { stroke: #c77dff; stroke-width: 1.6; fill: none; stroke-dasharray: 4,3; opacity: 0.95; }
  .remap-x { stroke: #cc2222; stroke-width: 1.5; fill: none; }
  .remap-link { stroke: #cc2222; stroke-width: 0.8; stroke-dasharray: 3,3; fill: none; opacity: 0.7; }
  .title { fill: #111; font-size: 16px; font-weight: 600; }
  .subtitle { fill: #555; font-size: 11px; }
  .preview-bg { fill: #000; }
  .preview-lbl { fill: #888; font-size: 10px; }
  .legend { font-size: 11px; }
</style>
<text x="378.5" y="22" text-anchor="middle" class="title">NGC1705</text>
<text x="378.5" y="38" text-anchor="middle" class="subtitle">rMax=6.0 kpc, N=14, FW=1.4 km/s, 2.1%, 0.24σ, MOND=17.1 km/s, 24.9%, 3.81σ, amp=104</text>
<line x1="70" y1="395.0" x2="687" y2="395.0" class="grid"/>
<text x="64" y="399.0" text-anchor="end" class="lbl-l">0</text>
<line x1="70" y1="327.0" x2="687" y2="327.0" class="grid"/>
<text x="64" y="331.0" text-anchor="end" class="lbl-l">19</text>
<line x1="70" y1="259.0" x2="687" y2="259.0" class="grid"/>
<text x="64" y="263.0" text-anchor="end" class="lbl-l">38</text>
<line x1="70" y1="191.0" x2="687" y2="191.0" class="grid"/>
<text x="64" y="195.0" text-anchor="end" class="lbl-l">57</text>
<line x1="70" y1="123.0" x2="687" y2="123.0" class="grid"/>
<text x="64" y="127.0" text-anchor="end" class="lbl-l">77</text>
<line x1="70" y1="55.0" x2="687" y2="55.0" class="grid"/>
<text x="64" y="59.0" text-anchor="end" class="lbl-l">96</text>
<text x="693" y="399.0" text-anchor="start" class="lbl-r">0.0</text>
<text x="693" y="353.7" text-anchor="start" class="lbl-r">0.2</text>
<text x="693" y="308.3" text-anchor="start" class="lbl-r">0.4</text>
<text x="693" y="263.0" text-anchor="start" class="lbl-r">0.6</text>
<text x="693" y="217.7" text-anchor="start" class="lbl-r">0.8</text>
<text x="693" y="172.3" text-anchor="start" class="lbl-r">1.0</text>
<line x1="70.0" y1="55" x2="70.0" y2="395" class="grid"/>
<text x="70.0" y="411" text-anchor="middle" class="lbl">0.0</text>
<line x1="172.8" y1="55" x2="172.8" y2="395" class="grid"/>
<text x="172.8" y="411" text-anchor="middle" class="lbl">1.1</text>
<line x1="275.7" y1="55" x2="275.7" y2="395" class="grid"/>
<text x="275.7" y="411" text-anchor="middle" class="lbl">2.1</text>
<line x1="378.5" y1="55" x2="378.5" y2="395" class="grid"/>
<text x="378.5" y="411" text-anchor="middle" class="lbl">3.2</text>
<line x1="481.3" y1="55" x2="481.3" y2="395" class="grid"/>
<text x="481.3" y="411" text-anchor="middle" class="lbl">4.3</text>
<line x1="584.2" y1="55" x2="584.2" y2="395" class="grid"/>
<text x="584.2" y="411" text-anchor="middle" class="lbl">5.4</text>
<line x1="687.0" y1="55" x2="687.0" y2="395" class="grid"/>
<text x="687.0" y="411" text-anchor="middle" class="lbl">6.4</text>
<text x="378.5" y="438" text-anchor="middle" class="lbl">radius (kpc)</text>
<text x="16" y="225" text-anchor="middle" class="lbl-l" transform="rotate(-90, 16, 225)">velocity (km/s)</text>
<text x="724" y="225" text-anchor="middle" class="lbl-r" transform="rotate(-90, 724, 225)">profiles (normalized to peak)</text>
<rect x="70" y="55" width="617" height="340" class="ax"/>
<path d="M 70.0,168.3 L 72.8,169.3 L 75.6,170.4 L 78.5,171.4 L 81.3,172.4 L 84.1,195.0 L 86.9,220.0 L 89.7,245.0 L 92.5,270.0 L 95.4,295.0 L 98.2,320.0 L 101.0,325.4 L 103.8,325.9 L 106.6,326.4 L 109.4,326.9 L 112.3,327.4 L 115.1,327.9 L 117.9,328.4 L 120.7,328.9 L 123.5,329.4 L 126.3,329.9 L 129.2,330.4 L 132.0,330.9 L 134.8,331.4 L 137.6,331.9 L 140.4,332.4 L 143.3,332.9 L 146.1,333.4 L 148.9,333.9 L 151.7,334.4 L 154.5,334.9 L 157.3,335.4 L 160.2,335.9 L 163.0,336.4 L 165.8,336.9 L 168.6,337.4 L 171.4,337.9 L 174.2,338.4 L 177.1,338.9 L 179.9,339.4 L 182.7,339.9 L 185.5,340.4 L 188.3,340.9 L 191.1,341.4 L 194.0,341.9 L 196.8,342.4 L 199.6,342.9 L 202.4,343.4 L 205.2,343.9 L 208.1,344.4 L 210.9,344.9 L 213.7,345.4 L 216.5,345.9 L 219.3,346.4 L 222.1,346.9 L 225.0,347.4 L 227.8,347.9 L 230.6,348.4 L 233.4,348.9 L 236.2,349.4 L 239.0,349.9 L 241.9,350.4 L 244.7,350.9 L 247.5,351.4 L 250.3,351.9 L 253.1,352.4 L 255.9,352.9 L 258.8,353.4 L 261.6,353.9 L 264.4,354.1 L 267.2,354.3 L 270.0,354.4 L 272.8,354.6 L 275.7,354.8 L 278.5,354.9 L 281.3,355.1 L 284.1,355.2 L 286.9,355.4 L 289.8,355.6 L 292.6,355.7 L 295.4,355.9 L 298.2,356.0 L 301.0,356.2 L 303.8,356.3 L 306.7,356.5 L 309.5,356.7 L 312.3,356.8 L 315.1,357.0 L 317.9,357.1 L 320.7,357.3 L 323.6,357.5 L 326.4,357.6 L 329.2,357.8 L 332.0,357.9 L 334.8,358.1 L 337.6,358.2 L 340.5,358.4 L 343.3,358.6 L 346.1,358.7 L 348.9,358.9 L 351.7,359.0 L 354.6,359.2 L 357.4,359.3 L 360.2,359.5 L 363.0,359.7 L 365.8,359.8 L 368.6,360.0 L 371.5,360.1 L 374.3,360.3 L 377.1,360.5 L 379.9,360.6 L 382.7,360.8 L 385.5,360.9 L 388.4,361.1 L 391.2,361.2 L 394.0,361.4 L 396.8,361.6 L 399.6,361.7 L 402.4,361.9 L 405.3,362.0 L 408.1,362.2 L 410.9,362.4 L 413.7,362.5 L 416.5,362.7 L 419.4,362.8 L 422.2,363.0 L 425.0,363.1 L 427.8,363.3 L 430.6,363.5 L 433.4,363.6 L 436.3,363.8 L 439.1,363.9 L 441.9,364.1 L 444.7,364.3 L 447.5,364.4 L 450.3,364.6 L 453.2,364.7 L 456.0,364.9 L 458.8,365.0 L 461.6,365.2 L 464.4,365.4 L 467.2,365.5 L 470.1,365.7 L 472.9,365.8 L 475.7,366.0 L 478.5,366.1 L 481.3,366.3 L 484.2,366.5 L 487.0,366.6 L 489.8,366.8 L 492.6,366.9 L 495.4,367.1 L 498.2,367.3 L 501.1,367.4 L 503.9,367.6 L 506.7,367.7 L 509.5,367.9 L 512.3,368.0 L 515.1,368.2 L 518.0,368.4 L 520.8,368.5 L 523.6,368.7 L 526.4,368.8 L 529.2,369.0 L 532.0,369.2 L 534.9,369.3 L 537.7,369.5 L 540.5,369.6 L 543.3,369.8 L 546.1,369.9 L 548.9,370.1 L 551.8,370.3 L 554.6,370.4 L 557.4,370.6 L 560.2,370.7 L 563.0,370.9 L 565.9,371.0 L 568.7,371.2 L 571.5,371.4 L 574.3,371.5 L 577.1,371.7 L 579.9,371.8 L 582.8,372.0 L 585.6,372.2 L 588.4,372.3 L 591.2,372.5 L 594.0,372.6 L 596.8,372.8 L 599.7,372.9 L 602.5,373.1 L 605.3,373.3 L 608.1,373.4 L 610.9,373.6 L 613.7,373.7 L 616.6,373.9 L 619.4,374.1 L 622.2,374.6 L 625.0,376.2 L 627.8,377.8 L 630.7,379.5 L 633.5,381.1 L 636.3,382.7 L 639.1,384.3 L 641.9,386.0 L 644.7,387.6 L 647.6,389.2 L 650.4,390.8 L 653.2,392.4 L 656.0,394.1 L 658.8,395.0 L 661.6,395.0 L 664.5,395.0 L 667.3,395.0 L 670.1,395.0 L 672.9,395.0 L 675.7,395.0 L 678.5,395.0 L 681.4,395.0 L 684.2,395.0 L 687.0,395.0" class="rho"/>
<path d="M 91.1,168.3 L 133.2,357.9 L 176.3,383.8 L 218.4,391.4 L 261.5,393.7 L 304.6,394.6 L 346.8,394.9 L 389.9,395.0 L 432.0,395.0 L 474.2,395.0 L 516.3,395.0 L 559.4,395.0 L 602.5,395.0 L 644.6,395.0" class="phot"/>
<path d="M 91.1,168.3 L 133.2,235.4 L 176.3,313.8 L 218.4,363.5 L 261.5,384.0 L 304.6,391.4 L 346.8,394.4 L 389.9,395.0 L 432.0,394.6 L 474.2,393.8 L 516.3,393.3 L 559.4,393.3 L 602.5,392.8 L 644.6,391.6" class="mbar"/>
<path d="M 91.1,168.3 L 133.2,192.7 L 176.3,232.0 L 218.4,271.2 L 261.5,300.7 L 304.6,321.5 L 346.8,336.2 L 389.9,345.9 L 432.0,351.2 L 474.2,352.9 L 516.3,354.1 L 559.4,356.1 L 602.5,355.6 L 644.6,351.8" class="mph"/>
<path d="M 76.2,308.5 L 82.3,273.2 L 88.5,252.8 L 94.7,243.9 L 100.9,243.0 L 107.0,241.8 L 113.2,239.1 L 119.4,235.5 L 125.5,231.5 L 131.7,227.2 L 137.9,222.8 L 144.0,218.5 L 150.2,214.2 L 156.4,210.0 L 162.6,206.0 L 168.7,202.0 L 174.9,198.2 L 181.1,194.5 L 187.2,191.0 L 193.4,187.6 L 199.6,184.3 L 205.7,181.2 L 211.9,178.2 L 218.1,175.3 L 224.3,172.5 L 230.4,169.9 L 236.6,167.4 L 242.8,165.1 L 248.9,162.8 L 255.1,160.7 L 261.3,158.6 L 267.4,156.7 L 273.6,154.7 L 279.8,152.8 L 286.0,150.9 L 292.1,149.0 L 298.3,147.1 L 304.5,145.2 L 310.6,143.4 L 316.8,141.6 L 323.0,139.8 L 329.1,138.0 L 335.3,136.3 L 341.5,134.6 L 347.7,132.9 L 353.8,131.2 L 360.0,129.6 L 366.2,128.0 L 372.3,126.4 L 378.5,124.8 L 384.7,123.3 L 390.8,121.8 L 397.0,120.3 L 403.2,118.9 L 409.4,117.5 L 415.5,116.1 L 421.7,114.8 L 427.9,113.4 L 434.0,112.1 L 440.2,110.9 L 446.4,109.6 L 452.5,108.4 L 458.7,107.2 L 464.9,106.0 L 471.1,104.9 L 477.2,103.8 L 483.4,102.7 L 489.6,101.7 L 495.7,100.6 L 501.9,99.6 L 508.1,98.7 L 514.2,97.7 L 520.4,96.8 L 526.6,95.9 L 532.8,95.0 L 538.9,94.2 L 545.1,93.3 L 551.3,92.5 L 557.4,91.8 L 563.6,91.0 L 569.8,90.3 L 575.9,89.6 L 582.1,88.9 L 588.3,88.3 L 594.4,87.7 L 600.6,87.1 L 606.8,86.5 L 613.0,86.0 L 619.1,85.4 L 625.3,85.0 L 631.5,84.9 L 637.6,85.2 L 643.8,85.8 L 650.0,86.8 L 656.1,88.1 L 662.3,89.7 L 668.5,91.3 L 674.7,92.9 L 680.8,94.4 L 687.0,95.9" class="nt"/>
<path d="M 91.1,281.5 L 133.2,222.4 L 176.3,202.0 L 218.4,198.5 L 261.5,197.6 L 304.6,199.1 L 346.8,201.2 L 389.9,203.1 L 432.0,204.7 L 474.2,204.1 L 516.3,203.0 L 559.4,201.4 L 602.5,200.1 L 644.6,195.5" class="mond"/>
<path d="M 75.1,337.7 L 80.3,297.0 L 85.4,256.9 L 90.6,223.8 L 95.7,199.2 L 100.8,182.7 L 106.0,172.7 L 111.1,167.5 L 116.3,165.1 L 121.4,164.1 L 126.6,163.7 L 131.7,163.3 L 136.8,162.7 L 142.0,161.7 L 147.1,160.5 L 152.3,159.0 L 157.4,157.1 L 162.6,155.2 L 167.7,153.1 L 172.8,150.9 L 178.0,148.6 L 183.1,146.4 L 188.3,144.2 L 193.4,142.1 L 198.5,140.1 L 203.7,138.2 L 208.8,136.4 L 214.0,134.9 L 219.1,133.6 L 224.3,132.5 L 229.4,131.6 L 234.5,131.1 L 239.7,130.8 L 244.8,130.8 L 250.0,131.2 L 255.1,131.8 L 260.2,132.7 L 265.4,133.7 L 270.5,134.8 L 275.7,135.9 L 280.8,137.0 L 286.0,137.9 L 291.1,138.8 L 296.2,139.5 L 301.4,140.2 L 306.5,140.7 L 311.7,141.2 L 316.8,141.5 L 321.9,141.8 L 327.1,142.1 L 332.2,142.3 L 337.4,142.5 L 342.5,142.6 L 347.7,142.6 L 352.8,142.7 L 357.9,142.7 L 363.1,142.7 L 368.2,142.7 L 373.4,142.7 L 378.5,142.6 L 383.6,142.6 L 388.8,142.5 L 393.9,142.4 L 399.1,142.4 L 404.2,142.3 L 409.3,142.2 L 414.5,142.2 L 419.6,142.1 L 424.8,142.1 L 429.9,142.0 L 435.1,142.0 L 440.2,142.0 L 445.3,141.9 L 450.5,141.9 L 455.6,141.9 L 460.8,141.9 L 465.9,141.9 L 471.1,141.9 L 476.2,142.0 L 481.3,142.0 L 486.5,142.0 L 491.6,142.0 L 496.8,142.1 L 501.9,142.1 L 507.0,142.1 L 512.2,142.1 L 517.3,142.1 L 522.5,142.1 L 527.6,142.1 L 532.8,142.0 L 537.9,141.9 L 543.0,141.8 L 548.2,141.6 L 553.3,141.3 L 558.5,141.0 L 563.6,140.5 L 568.7,140.0 L 573.9,139.3 L 579.0,138.5 L 584.2,137.5 L 589.3,136.3 L 594.4,134.9 L 599.6,133.3 L 604.7,131.7 L 609.9,130.1 L 615.0,128.7 L 620.2,127.9 L 625.3,128.0 L 630.4,129.2 L 635.6,131.7 L 640.7,135.4 L 645.9,140.2 L 651.0,145.7 L 656.1,151.7 L 661.3,158.0 L 666.4,164.1 L 671.6,170.1 L 676.7,175.7 L 681.9,181.0 L 687.0,186.0" class="fw"/>
<line x1="91.07" y1="190.15" x2="91.07" y2="243.40" class="err"/>
<line x1="88.07" y1="190.15" x2="94.07" y2="190.15" class="err"/>
<line x1="88.07" y1="243.40" x2="94.07" y2="243.40" class="err"/>
<circle cx="91.07" cy="216.77" r="2.5" class="obs"/>
<line x1="133.21" y1="147.51" x2="133.21" y2="200.83" class="err"/>
<line x1="130.21" y1="147.51" x2="136.21" y2="147.51" class="err"/>
<line x1="130.21" y1="200.83" x2="136.21" y2="200.83" class="err"/>
<circle cx="133.21" cy="174.17" r="2.5" class="obs"/>
<line x1="176.31" y1="118.96" x2="176.31" y2="156.95" class="err"/>
<line x1="173.31" y1="118.96" x2="179.31" y2="118.96" class="err"/>
<line x1="173.31" y1="156.95" x2="179.31" y2="156.95" class="err"/>
<circle cx="176.31" cy="137.96" r="2.5" class="obs"/>
<line x1="218.44" y1="123.36" x2="218.44" y2="146.87" class="err"/>
<line x1="215.44" y1="123.36" x2="221.44" y2="123.36" class="err"/>
<line x1="215.44" y1="146.87" x2="221.44" y2="146.87" class="err"/>
<circle cx="218.44" cy="135.12" r="2.5" class="obs"/>
<line x1="261.54" y1="124.78" x2="261.54" y2="147.58" class="err"/>
<line x1="258.54" y1="124.78" x2="264.54" y2="124.78" class="err"/>
<line x1="258.54" y1="147.58" x2="264.54" y2="147.58" class="err"/>
<circle cx="261.54" cy="136.18" r="2.5" class="obs"/>
<line x1="304.64" y1="127.55" x2="304.64" y2="146.94" class="err"/>
<line x1="301.64" y1="127.55" x2="307.64" y2="127.55" class="err"/>
<line x1="301.64" y1="146.94" x2="307.64" y2="146.94" class="err"/>
<circle cx="304.64" cy="137.25" r="2.5" class="obs"/>
<line x1="346.78" y1="129.04" x2="346.78" y2="153.26" class="err"/>
<line x1="343.78" y1="129.04" x2="349.78" y2="129.04" class="err"/>
<line x1="343.78" y1="153.26" x2="349.78" y2="153.26" class="err"/>
<circle cx="346.78" cy="141.15" r="2.5" class="obs"/>
<line x1="389.87" y1="127.02" x2="389.87" y2="158.12" class="err"/>
<line x1="386.87" y1="127.02" x2="392.87" y2="127.02" class="err"/>
<line x1="386.87" y1="158.12" x2="392.87" y2="158.12" class="err"/>
<circle cx="389.87" cy="142.57" r="2.5" class="obs"/>
<line x1="432.01" y1="125.18" x2="432.01" y2="157.84" class="err"/>
<line x1="429.01" y1="125.18" x2="435.01" y2="125.18" class="err"/>
<line x1="429.01" y1="157.84" x2="435.01" y2="157.84" class="err"/>
<circle cx="432.01" cy="141.51" r="2.5" class="obs"/>
<line x1="474.15" y1="120.99" x2="474.15" y2="161.32" class="err"/>
<line x1="471.15" y1="120.99" x2="477.15" y2="120.99" class="err"/>
<line x1="471.15" y1="161.32" x2="477.15" y2="161.32" class="err"/>
<circle cx="474.15" cy="141.15" r="2.5" class="obs"/>
<line x1="516.29" y1="119.14" x2="516.29" y2="163.16" class="err"/>
<line x1="513.29" y1="119.14" x2="519.29" y2="119.14" class="err"/>
<line x1="513.29" y1="163.16" x2="519.29" y2="163.16" class="err"/>
<circle cx="516.29" cy="141.15" r="2.5" class="obs"/>
<line x1="559.39" y1="119.03" x2="559.39" y2="164.69" class="err"/>
<line x1="556.39" y1="119.03" x2="562.39" y2="119.03" class="err"/>
<line x1="556.39" y1="164.69" x2="562.39" y2="164.69" class="err"/>
<circle cx="559.39" cy="141.86" r="2.5" class="obs"/>
<line x1="602.49" y1="105.72" x2="602.49" y2="174.45" class="err"/>
<line x1="599.49" y1="105.72" x2="605.49" y2="105.72" class="err"/>
<line x1="599.49" y1="174.45" x2="605.49" y2="174.45" class="err"/>
<circle cx="602.49" cy="140.09" r="2.5" class="obs"/>
<line x1="644.62" y1="103.87" x2="644.62" y2="178.43" class="err"/>
<line x1="641.62" y1="103.87" x2="647.62" y2="103.87" class="err"/>
<line x1="641.62" y1="178.43" x2="647.62" y2="178.43" class="err"/>
<circle cx="644.62" cy="141.15" r="2.5" class="obs"/>
<g class="legend">
<line x1="82" y1="69" x2="106" y2="69" class="fw"/>
<text x="112" y="73" class="lbl-l">framework: 1.4 km/s, 2.1%, 0.24σ</text>
<line x1="82" y1="87" x2="106" y2="87" class="nt"/>
<text x="112" y="91" class="lbl-l">Newtonian: 11.3 km/s, 16.3%, 1.95σ</text>
<line x1="82" y1="105" x2="106" y2="105" class="mond"/>
<text x="112" y="109" class="lbl-m">MOND/RAR: 17.1 km/s, 24.9%, 3.81σ</text>
<circle cx="94" cy="123" r="2.5" class="obs"/>
<text x="112" y="127" class="lbl">observed V±err</text>
</g>
<g class="legend">
<line x1="472" y1="69" x2="496" y2="69" class="rho"/>
<text x="502" y="73" class="lbl-r">ρ(r) raw</text>
<line x1="472" y1="87" x2="496" y2="87" class="phot"/>
<text x="502" y="91" class="lbl-p">photometric baryonic profile</text>
<line x1="472" y1="105" x2="496" y2="105" class="mbar"/>
<text x="502" y="109" class="lbl-m">MOND baryonic annulus</text>
<line x1="472" y1="123" x2="496" y2="123" class="mph"/>
<text x="502" y="127" class="lbl-m">MOND phantom annulus</text>
<text x="472" y="147" class="lbl-r">ρ peak: 686 M☉/pc²</text>
<text x="472" y="163" class="lbl-p">phot peak: 256.43 (arb.)</text>
<text x="472" y="179" class="lbl-m">Σbar peak: 178.60 M☉/pc²</text>
<text x="472" y="195" class="lbl-m">Σphantom peak: 143.16 M☉/pc²</text>
</g>
<rect x="775" y="55" width="170" height="170" class="preview-bg"/>
<defs><radialGradient id="g_NGC1705" cx="0.5" cy="0.5" r="0.5">
  <stop offset="0.0000" stop-color="rgb(255,64,64)"/>
  <stop offset="0.0313" stop-color="rgb(255,64,64)"/>
  <stop offset="0.0625" stop-color="rgb(255,64,64)"/>
  <stop offset="0.0938" stop-color="rgb(255,64,64)"/>
  <stop offset="0.1250" stop-color="rgb(255,64,64)"/>
  <stop offset="0.1563" stop-color="rgb(255,64,64)"/>
  <stop offset="0.1875" stop-color="rgb(255,64,64)"/>
  <stop offset="0.2188" stop-color="rgb(255,64,64)"/>
  <stop offset="0.2500" stop-color="rgb(253,63,63)"/>
  <stop offset="0.2813" stop-color="rgb(239,60,60)"/>
  <stop offset="0.3125" stop-color="rgb(226,57,57)"/>
  <stop offset="0.3438" stop-color="rgb(217,54,54)"/>
  <stop offset="0.3750" stop-color="rgb(213,53,53)"/>
  <stop offset="0.4063" stop-color="rgb(209,52,52)"/>
  <stop offset="0.4375" stop-color="rgb(205,51,51)"/>
  <stop offset="0.4688" stop-color="rgb(200,50,50)"/>
  <stop offset="0.5000" stop-color="rgb(196,49,49)"/>
  <stop offset="0.5313" stop-color="rgb(192,48,48)"/>
  <stop offset="0.5625" stop-color="rgb(188,47,47)"/>
  <stop offset="0.5938" stop-color="rgb(183,46,46)"/>
  <stop offset="0.6250" stop-color="rgb(179,45,45)"/>
  <stop offset="0.6563" stop-color="rgb(175,44,44)"/>
  <stop offset="0.6875" stop-color="rgb(171,43,43)"/>
  <stop offset="0.7188" stop-color="rgb(166,42,42)"/>
  <stop offset="0.7500" stop-color="rgb(162,41,41)"/>
  <stop offset="0.7813" stop-color="rgb(158,40,40)"/>
  <stop offset="0.8125" stop-color="rgb(153,38,38)"/>
  <stop offset="0.8438" stop-color="rgb(149,37,37)"/>
  <stop offset="0.8750" stop-color="rgb(145,36,36)"/>
  <stop offset="0.9063" stop-color="rgb(141,35,35)"/>
  <stop offset="0.9375" stop-color="rgb(136,34,34)"/>
  <stop offset="0.9688" stop-color="rgb(94,24,24)"/>
  <stop offset="1.0000" stop-color="rgb(0,0,0)"/>
</radialGradient></defs>
<circle cx="860" cy="140" r="81" fill="url(#g_NGC1705)"/>
<text x="860" y="49" text-anchor="middle" class="preview-lbl">face-on luminance from ρ(r)</text>
<text x="860" y="239" text-anchor="middle" class="preview-lbl">edge at r = 6.1 kpc</text>
</svg>