<svg xmlns="http://www.w3.org/2000/svg" viewBox="0 0 960 450" width="960" height="450" font-family="sans-serif" font-size="12">
<style>
  .ax { stroke: #333; stroke-width: 1; fill: none; }
  .grid { stroke: #ddd; stroke-width: 0.5; fill: none; }
  .lbl { fill: #333; }
  .lbl-l { fill: #0066cc; }
  .lbl-r { fill: #b03030; }
  .obs { fill: #222; }
  .err { stroke: #555; stroke-width: 0.8; fill: none; }
  .fw { stroke: #0066cc; stroke-width: 2.2; fill: none; }
  .nt { stroke: #cc6600; stroke-width: 1.6; fill: none; stroke-dasharray: 5,3; }
  .mond { stroke: #7b2cbf; stroke-width: 1.8; fill: none; stroke-dasharray: 7,3; }
  .lbl-p { fill: #cc7000; }
  .lbl-m { fill: #7b2cbf; }
  .rho { stroke: #b03030; stroke-width: 2.0; fill: none; }
  .phot { stroke: #cc7000; stroke-width: 1.8; fill: none; }
  .mbar { stroke: #8e44ad; stroke-width: 1.8; fill: none; opacity: 0.9; }
  .mph { stroke: #c77dff; stroke-width: 1.6; fill: none; stroke-dasharray: 4,3; opacity: 0.95; }
  .remap-x { stroke: #cc2222; stroke-width: 1.5; fill: none; }
  .remap-link { stroke: #cc2222; stroke-width: 0.8; stroke-dasharray: 3,3; fill: none; opacity: 0.7; }
  .title { fill: #111; font-size: 16px; font-weight: 600; }
  .subtitle { fill: #555; font-size: 11px; }
  .preview-bg { fill: #000; }
  .preview-lbl { fill: #888; font-size: 10px; }
  .legend { font-size: 11px; }
</style>
<text x="378.5" y="22" text-anchor="middle" class="title">NGC1003</text>
<text x="378.5" y="38" text-anchor="middle" class="subtitle">rMax=30.2 kpc, N=36, FW=1.5 km/s, 1.6%, 0.60σ, MOND=8.1 km/s, 10.2%, 3.62σ, amp=105</text>
<line x1="70" y1="395.0" x2="687" y2="395.0" class="grid"/>
<text x="64" y="399.0" text-anchor="end" class="lbl-l">0</text>
<line x1="70" y1="327.0" x2="687" y2="327.0" class="grid"/>
<text x="64" y="331.0" text-anchor="end" class="lbl-l">27</text>
<line x1="70" y1="259.0" x2="687" y2="259.0" class="grid"/>
<text x="64" y="263.0" text-anchor="end" class="lbl-l">55</text>
<line x1="70" y1="191.0" x2="687" y2="191.0" class="grid"/>
<text x="64" y="195.0" text-anchor="end" class="lbl-l">82</text>
<line x1="70" y1="123.0" x2="687" y2="123.0" class="grid"/>
<text x="64" y="127.0" text-anchor="end" class="lbl-l">110</text>
<line x1="70" y1="55.0" x2="687" y2="55.0" class="grid"/>
<text x="64" y="59.0" text-anchor="end" class="lbl-l">137</text>
<text x="693" y="399.0" text-anchor="start" class="lbl-r">0.0</text>
<text x="693" y="353.7" text-anchor="start" class="lbl-r">0.2</text>
<text x="693" y="308.3" text-anchor="start" class="lbl-r">0.4</text>
<text x="693" y="263.0" text-anchor="start" class="lbl-r">0.6</text>
<text x="693" y="217.7" text-anchor="start" class="lbl-r">0.8</text>
<text x="693" y="172.3" text-anchor="start" class="lbl-r">1.0</text>
<line x1="70.0" y1="55" x2="70.0" y2="395" class="grid"/>
<text x="70.0" y="411" text-anchor="middle" class="lbl">0.0</text>
<line x1="172.8" y1="55" x2="172.8" y2="395" class="grid"/>
<text x="172.8" y="411" text-anchor="middle" class="lbl">5.4</text>
<line x1="275.7" y1="55" x2="275.7" y2="395" class="grid"/>
<text x="275.7" y="411" text-anchor="middle" class="lbl">10.7</text>
<line x1="378.5" y1="55" x2="378.5" y2="395" class="grid"/>
<text x="378.5" y="411" text-anchor="middle" class="lbl">16.1</text>
<line x1="481.3" y1="55" x2="481.3" y2="395" class="grid"/>
<text x="481.3" y="411" text-anchor="middle" class="lbl">21.4</text>
<line x1="584.2" y1="55" x2="584.2" y2="395" class="grid"/>
<text x="584.2" y="411" text-anchor="middle" class="lbl">26.8</text>
<line x1="687.0" y1="55" x2="687.0" y2="395" class="grid"/>
<text x="687.0" y="411" text-anchor="middle" class="lbl">32.1</text>
<text x="378.5" y="438" text-anchor="middle" class="lbl">radius (kpc)</text>
<text x="16" y="225" text-anchor="middle" class="lbl-l" transform="rotate(-90, 16, 225)">velocity (km/s)</text>
<text x="724" y="225" text-anchor="middle" class="lbl-r" transform="rotate(-90, 724, 225)">profiles (normalized to peak)</text>
<rect x="70" y="55" width="617" height="340" class="ax"/>
<path d="M 70.0,168.3 L 72.8,179.2 L 75.6,190.0 L 78.5,200.9 L 81.3,211.7 L 84.1,222.6 L 86.9,233.4 L 89.7,244.3 L 92.5,255.1 L 95.4,266.0 L 98.2,276.8 L 101.0,287.7 L 103.8,292.0 L 106.6,292.9 L 109.4,293.9 L 112.3,294.8 L 115.1,295.7 L 117.9,296.6 L 120.7,297.5 L 123.5,298.4 L 126.3,299.3 L 129.2,300.2 L 132.0,301.1 L 134.8,302.0 L 137.6,302.9 L 140.4,303.9 L 143.3,304.8 L 146.1,305.7 L 148.9,306.6 L 151.7,307.5 L 154.5,308.4 L 157.3,309.3 L 160.2,310.2 L 163.0,311.1 L 165.8,312.0 L 168.6,312.9 L 171.4,313.9 L 174.2,314.8 L 177.1,315.7 L 179.9,316.6 L 182.7,317.5 L 185.5,318.4 L 188.3,319.3 L 191.1,320.2 L 194.0,321.1 L 196.8,322.0 L 199.6,322.9 L 202.4,323.8 L 205.2,324.8 L 208.1,325.7 L 210.9,326.6 L 213.7,327.5 L 216.5,328.4 L 219.3,329.3 L 222.1,330.2 L 225.0,331.1 L 227.8,332.0 L 230.6,332.9 L 233.4,333.8 L 236.2,334.8 L 239.0,335.7 L 241.9,336.6 L 244.7,337.5 L 247.5,338.4 L 250.3,339.3 L 253.1,340.2 L 255.9,340.6 L 258.8,340.6 L 261.6,340.6 L 264.4,340.6 L 267.2,340.6 L 270.0,340.6 L 272.8,340.6 L 275.7,340.6 L 278.5,340.6 L 281.3,340.6 L 284.1,340.6 L 286.9,340.6 L 289.8,340.6 L 292.6,340.6 L 295.4,340.6 L 298.2,340.6 L 301.0,340.6 L 303.8,340.6 L 306.7,340.6 L 309.5,340.6 L 312.3,340.6 L 315.1,340.6 L 317.9,340.6 L 320.7,340.6 L 323.6,340.6 L 326.4,340.6 L 329.2,340.7 L 332.0,340.9 L 334.8,341.1 L 337.6,341.4 L 340.5,341.6 L 343.3,341.8 L 346.1,342.1 L 348.9,342.3 L 351.7,342.5 L 354.6,342.7 L 357.4,343.0 L 360.2,343.2 L 363.0,343.4 L 365.8,343.7 L 368.6,343.9 L 371.5,344.1 L 374.3,344.4 L 377.1,344.6 L 379.9,344.8 L 382.7,345.1 L 385.5,345.3 L 388.4,345.5 L 391.2,345.8 L 394.0,346.0 L 396.8,346.2 L 399.6,346.4 L 402.4,346.7 L 405.3,346.9 L 408.1,347.1 L 410.9,347.4 L 413.7,347.6 L 416.5,347.8 L 419.4,348.1 L 422.2,348.3 L 425.0,348.5 L 427.8,348.8 L 430.6,349.0 L 433.4,349.2 L 436.3,349.5 L 439.1,349.7 L 441.9,349.9 L 444.7,350.2 L 447.5,350.4 L 450.3,350.6 L 453.2,350.8 L 456.0,351.1 L 458.8,351.3 L 461.6,351.5 L 464.4,351.8 L 467.2,352.0 L 470.1,352.2 L 472.9,352.5 L 475.7,352.7 L 478.5,352.9 L 481.3,353.2 L 484.2,353.4 L 487.0,353.6 L 489.8,353.9 L 492.6,354.1 L 495.4,354.3 L 498.2,354.5 L 501.1,354.8 L 503.9,355.0 L 506.7,355.2 L 509.5,355.5 L 512.3,355.7 L 515.1,355.9 L 518.0,356.2 L 520.8,356.4 L 523.6,356.6 L 526.4,356.9 L 529.2,357.1 L 532.0,357.3 L 534.9,357.6 L 537.7,357.8 L 540.5,358.0 L 543.3,358.3 L 546.1,358.5 L 548.9,358.7 L 551.8,358.9 L 554.6,359.2 L 557.4,359.4 L 560.2,359.6 L 563.0,359.9 L 565.9,360.1 L 568.7,360.3 L 571.5,360.6 L 574.3,360.8 L 577.1,361.0 L 579.9,361.3 L 582.8,361.5 L 585.6,361.7 L 588.4,362.0 L 591.2,362.2 L 594.0,362.4 L 596.8,362.6 L 599.7,362.9 L 602.5,363.1 L 605.3,363.3 L 608.1,363.6 L 610.9,363.8 L 613.7,364.0 L 616.6,364.3 L 619.4,364.5 L 622.2,364.7 L 625.0,365.0 L 627.8,365.2 L 630.7,365.4 L 633.5,365.7 L 636.3,365.9 L 639.1,366.1 L 641.9,366.3 L 644.7,366.6 L 647.6,366.8 L 650.4,371.7 L 653.2,380.7 L 656.0,389.8 L 658.8,395.0 L 661.6,395.0 L 664.5,395.0 L 667.3,395.0 L 670.1,395.0 L 672.9,395.0 L 675.7,395.0 L 678.5,395.0 L 681.4,395.0 L 684.2,395.0 L 687.0,395.0" class="rho"/>
<path d="M 94.0,168.3 L 110.0,256.2 L 125.7,307.8 L 141.7,334.0 L 157.6,356.4 L 173.6,376.1 L 189.6,384.9 L 205.3,388.2 L 221.3,390.8 L 237.2,392.4 L 253.4,393.6 L 268.7,394.2 L 285.5,394.5 L 300.3,394.7 L 317.0,394.8 L 333.7,394.9 L 348.5,394.9 L 365.2,395.0 L 380.0,395.0 L 396.7,395.0 L 411.7,395.0 L 428.5,395.0 L 445.2,395.0 L 460.0,395.0 L 476.7,395.0 L 491.5,395.0 L 508.2,395.0 L 524.9,395.0 L 539.7,395.0 L 556.5,395.0 L 571.3,395.0 L 588.0,395.0 L 603.0,395.0 L 619.7,395.0 L 636.4,395.0 L 651.2,395.0" class="phot"/>
<path d="M 94.0,168.3 L 110.0,203.9 L 125.7,228.5 L 141.7,260.3 L 157.6,294.5 L 173.6,329.1 L 189.6,364.2 L 205.3,373.1 L 221.3,369.9 L 237.2,375.2 L 253.4,383.1 L 268.7,386.7 L 285.5,384.6 L 300.3,382.2 L 317.0,382.9 L 333.7,385.0 L 348.5,386.9 L 365.2,388.9 L 380.0,389.0 L 396.7,388.8 L 411.7,392.3 L 428.5,394.9 L 445.2,394.9 L 460.0,394.5 L 476.7,394.3 L 491.5,394.7 L 508.2,395.0 L 524.9,393.4 L 539.7,391.8 L 556.5,393.3 L 571.3,392.1 L 588.0,381.8 L 603.0,374.5 L 619.7,376.3 L 636.4,373.0 L 651.2,366.9" class="mbar"/>
<path d="M 94.0,168.3 L 110.0,181.0 L 125.7,191.0 L 141.7,205.9 L 157.6,223.6 L 173.6,246.0 L 189.6,272.1 L 205.3,283.6 L 221.3,287.0 L 237.2,296.0 L 253.4,307.6 L 268.7,315.2 L 285.5,316.0 L 300.3,315.7 L 317.0,318.7 L 333.7,323.2 L 348.5,327.8 L 365.2,332.6 L 380.0,334.1 L 396.7,337.3 L 411.7,347.2 L 428.5,356.0 L 445.2,360.3 L 460.0,357.6 L 476.7,357.5 L 491.5,363.9 L 508.2,368.7 L 524.9,365.3 L 539.7,357.0 L 556.5,359.6 L 571.3,357.5 L 588.0,326.2 L 603.0,303.8 L 619.7,309.9 L 636.4,302.1 L 651.2,286.3" class="mph"/>
<path d="M 76.2,328.1 L 82.3,304.0 L 88.5,288.2 L 94.7,277.2 L 100.8,269.9 L 107.0,264.4 L 113.2,258.6 L 119.4,252.8 L 125.5,247.2 L 131.7,241.7 L 137.9,236.5 L 144.0,231.5 L 150.2,226.7 L 156.4,222.2 L 162.6,218.0 L 168.7,213.9 L 174.9,210.0 L 181.1,206.4 L 187.2,202.9 L 193.4,199.7 L 199.6,196.6 L 205.7,193.7 L 211.9,191.0 L 218.1,188.4 L 224.3,186.0 L 230.4,183.7 L 236.6,181.6 L 242.8,179.7 L 248.9,177.9 L 255.1,176.2 L 261.3,174.5 L 267.4,172.8 L 273.6,171.1 L 279.8,169.3 L 286.0,167.5 L 292.1,165.6 L 298.3,163.8 L 304.5,161.9 L 310.6,160.0 L 316.8,158.1 L 323.0,156.2 L 329.1,154.2 L 335.3,152.3 L 341.5,150.5 L 347.6,148.6 L 353.8,146.8 L 360.0,145.1 L 366.2,143.4 L 372.3,141.7 L 378.5,140.0 L 384.7,138.4 L 390.8,136.8 L 397.0,135.3 L 403.2,133.7 L 409.4,132.3 L 415.5,130.8 L 421.7,129.4 L 427.9,128.0 L 434.0,126.6 L 440.2,125.3 L 446.4,124.0 L 452.5,122.7 L 458.7,121.5 L 464.9,120.3 L 471.0,119.1 L 477.2,118.0 L 483.4,116.9 L 489.6,115.8 L 495.7,114.7 L 501.9,113.7 L 508.1,112.7 L 514.2,111.7 L 520.4,110.7 L 526.6,109.8 L 532.8,108.9 L 538.9,108.0 L 545.1,107.2 L 551.3,106.4 L 557.4,105.6 L 563.6,104.8 L 569.8,104.1 L 575.9,103.4 L 582.1,102.7 L 588.3,102.0 L 594.4,101.4 L 600.6,100.8 L 606.8,100.2 L 613.0,99.6 L 619.1,99.1 L 625.3,98.6 L 631.5,98.1 L 637.6,97.6 L 643.8,97.2 L 650.0,96.7 L 656.2,97.2 L 662.3,98.8 L 668.5,100.4 L 674.7,101.9 L 680.8,103.4 L 687.0,104.8" class="nt"/>
<path d="M 94.0,245.4 L 110.0,216.1 L 125.7,184.7 L 141.7,167.2 L 157.6,153.3 L 173.6,143.6 L 189.6,144.4 L 205.3,142.4 L 221.3,138.1 L 237.2,135.7 L 253.4,134.4 L 268.7,134.6 L 285.5,132.6 L 300.3,130.1 L 317.0,127.6 L 333.7,125.5 L 348.5,124.1 L 365.2,122.8 L 380.0,122.4 L 396.7,119.4 L 411.7,121.2 L 428.5,121.7 L 445.2,125.1 L 460.0,125.3 L 476.7,125.2 L 491.5,127.2 L 508.2,128.5 L 524.9,131.4 L 539.7,128.8 L 556.5,129.0 L 571.3,129.9 L 588.0,124.2 L 603.0,111.1 L 619.7,106.8 L 636.4,96.4 L 651.2,85.9" class="mond"/>
<path d="M 75.1,361.2 L 80.3,337.1 L 85.4,312.5 L 90.6,291.0 L 95.7,273.3 L 100.8,259.4 L 106.0,248.4 L 111.1,239.8 L 116.3,232.6 L 121.4,226.2 L 126.6,220.2 L 131.7,214.4 L 136.8,208.7 L 142.0,203.0 L 147.1,197.5 L 152.3,192.0 L 157.4,186.7 L 162.6,181.7 L 167.7,176.8 L 172.8,172.2 L 178.0,167.9 L 183.1,163.9 L 188.3,160.2 L 193.4,156.8 L 198.5,153.8 L 203.7,151.2 L 208.8,149.0 L 214.0,147.2 L 219.1,145.9 L 224.3,145.0 L 229.4,144.7 L 234.5,144.9 L 239.7,145.5 L 244.8,146.7 L 250.0,148.3 L 255.1,150.1 L 260.2,152.2 L 265.4,154.2 L 270.5,156.1 L 275.7,157.8 L 280.8,159.2 L 285.9,160.3 L 291.1,161.0 L 296.2,161.5 L 301.4,161.5 L 306.5,161.3 L 311.7,160.8 L 316.8,159.9 L 321.9,158.8 L 327.1,157.5 L 332.2,156.0 L 337.4,154.5 L 342.5,152.9 L 347.7,151.3 L 352.8,149.8 L 357.9,148.3 L 363.1,146.9 L 368.2,145.5 L 373.4,144.2 L 378.5,143.0 L 383.6,141.8 L 388.8,140.6 L 393.9,139.5 L 399.1,138.5 L 404.2,137.5 L 409.3,136.5 L 414.5,135.6 L 419.6,134.7 L 424.8,133.8 L 429.9,133.0 L 435.1,132.3 L 440.2,131.5 L 445.3,130.8 L 450.5,130.2 L 455.6,129.6 L 460.8,129.0 L 465.9,128.4 L 471.1,127.9 L 476.2,127.4 L 481.3,126.9 L 486.5,126.5 L 491.6,126.1 L 496.8,125.7 L 501.9,125.3 L 507.0,124.9 L 512.2,124.6 L 517.3,124.3 L 522.5,124.0 L 527.6,123.7 L 532.8,123.4 L 537.9,123.1 L 543.0,122.8 L 548.2,122.6 L 553.3,122.2 L 558.5,121.9 L 563.6,121.5 L 568.7,121.1 L 573.9,120.7 L 579.0,120.2 L 584.2,119.6 L 589.3,118.9 L 594.5,118.1 L 599.6,117.2 L 604.7,116.1 L 609.9,114.8 L 615.0,113.4 L 620.2,111.9 L 625.3,110.2 L 630.4,108.6 L 635.6,107.2 L 640.7,106.5 L 645.9,106.6 L 651.0,108.0 L 656.1,110.9 L 661.3,115.0 L 666.4,120.2 L 671.6,126.1 L 676.7,132.3 L 681.9,138.5 L 687.0,144.5" class="fw"/>
<line x1="94.03" y1="259.56" x2="94.03" y2="297.27" class="err"/>
<line x1="91.03" y1="259.56" x2="97.03" y2="259.56" class="err"/>
<line x1="91.03" y1="297.27" x2="97.03" y2="297.27" class="err"/>
<circle cx="94.03" cy="278.42" r="2.5" class="obs"/>
<line x1="109.98" y1="236.25" x2="109.98" y2="258.57" class="err"/>
<line x1="106.98" y1="236.25" x2="112.98" y2="236.25" class="err"/>
<line x1="106.98" y1="258.57" x2="112.98" y2="258.57" class="err"/>
<circle cx="109.98" cy="247.41" r="2.5" class="obs"/>
<line x1="125.74" y1="208.22" x2="125.74" y2="226.57" class="err"/>
<line x1="122.74" y1="208.22" x2="128.74" y2="208.22" class="err"/>
<line x1="122.74" y1="226.57" x2="128.74" y2="226.57" class="err"/>
<circle cx="125.74" cy="217.40" r="2.5" class="obs"/>
<line x1="141.69" y1="194.82" x2="141.69" y2="210.20" class="err"/>
<line x1="138.69" y1="194.82" x2="144.69" y2="194.82" class="err"/>
<line x1="138.69" y1="210.20" x2="144.69" y2="210.20" class="err"/>
<circle cx="141.69" cy="202.51" r="2.5" class="obs"/>
<line x1="157.65" y1="179.20" x2="157.65" y2="197.06" class="err"/>
<line x1="154.65" y1="179.20" x2="160.65" y2="179.20" class="err"/>
<line x1="154.65" y1="197.06" x2="160.65" y2="197.06" class="err"/>
<circle cx="157.65" cy="188.13" r="2.5" class="obs"/>
<line x1="173.60" y1="163.07" x2="173.60" y2="181.93" class="err"/>
<line x1="170.60" y1="163.07" x2="176.60" y2="163.07" class="err"/>
<line x1="170.60" y1="181.93" x2="176.60" y2="181.93" class="err"/>
<circle cx="173.60" cy="172.50" r="2.5" class="obs"/>
<line x1="189.55" y1="156.38" x2="189.55" y2="168.28" class="err"/>
<line x1="186.55" y1="156.38" x2="192.55" y2="156.38" class="err"/>
<line x1="186.55" y1="168.28" x2="192.55" y2="168.28" class="err"/>
<circle cx="189.55" cy="162.33" r="2.5" class="obs"/>
<line x1="205.31" y1="141.99" x2="205.31" y2="156.87" class="err"/>
<line x1="202.31" y1="141.99" x2="208.31" y2="141.99" class="err"/>
<line x1="202.31" y1="156.87" x2="208.31" y2="156.87" class="err"/>
<circle cx="205.31" cy="149.43" r="2.5" class="obs"/>
<line x1="221.26" y1="133.31" x2="221.26" y2="145.71" class="err"/>
<line x1="218.26" y1="133.31" x2="224.26" y2="133.31" class="err"/>
<line x1="218.26" y1="145.71" x2="224.26" y2="145.71" class="err"/>
<circle cx="221.26" cy="139.51" r="2.5" class="obs"/>
<line x1="237.22" y1="141.25" x2="237.22" y2="152.66" class="err"/>
<line x1="234.22" y1="141.25" x2="240.22" y2="141.25" class="err"/>
<line x1="234.22" y1="152.66" x2="240.22" y2="152.66" class="err"/>
<circle cx="237.22" cy="146.95" r="2.5" class="obs"/>
<line x1="253.36" y1="146.21" x2="253.36" y2="156.13" class="err"/>
<line x1="250.36" y1="146.21" x2="256.36" y2="146.21" class="err"/>
<line x1="250.36" y1="156.13" x2="256.36" y2="156.13" class="err"/>
<circle cx="253.36" cy="151.17" r="2.5" class="obs"/>
<line x1="268.74" y1="146.70" x2="268.74" y2="155.14" class="err"/>
<line x1="265.74" y1="146.70" x2="271.74" y2="146.70" class="err"/>
<line x1="265.74" y1="155.14" x2="271.74" y2="155.14" class="err"/>
<circle cx="268.74" cy="150.92" r="2.5" class="obs"/>
<line x1="285.46" y1="156.13" x2="285.46" y2="165.06" class="err"/>
<line x1="282.46" y1="156.13" x2="288.46" y2="156.13" class="err"/>
<line x1="282.46" y1="165.06" x2="288.46" y2="165.06" class="err"/>
<circle cx="285.46" cy="160.59" r="2.5" class="obs"/>
<line x1="300.26" y1="153.65" x2="300.26" y2="165.55" class="err"/>
<line x1="297.26" y1="153.65" x2="303.26" y2="153.65" class="err"/>
<line x1="297.26" y1="165.55" x2="303.26" y2="165.55" class="err"/>
<circle cx="300.26" cy="159.60" r="2.5" class="obs"/>
<line x1="316.98" y1="154.64" x2="316.98" y2="162.58" class="err"/>
<line x1="313.98" y1="154.64" x2="319.98" y2="154.64" class="err"/>
<line x1="313.98" y1="162.58" x2="319.98" y2="162.58" class="err"/>
<circle cx="316.98" cy="158.61" r="2.5" class="obs"/>
<line x1="333.70" y1="150.18" x2="333.70" y2="159.10" class="err"/>
<line x1="330.70" y1="150.18" x2="336.70" y2="150.18" class="err"/>
<line x1="330.70" y1="159.10" x2="336.70" y2="159.10" class="err"/>
<circle cx="333.70" cy="154.64" r="2.5" class="obs"/>
<line x1="348.50" y1="150.67" x2="348.50" y2="157.12" class="err"/>
<line x1="345.50" y1="150.67" x2="351.50" y2="150.67" class="err"/>
<line x1="345.50" y1="157.12" x2="351.50" y2="157.12" class="err"/>
<circle cx="348.50" cy="153.90" r="2.5" class="obs"/>
<line x1="365.23" y1="142.49" x2="365.23" y2="151.42" class="err"/>
<line x1="362.23" y1="142.49" x2="368.23" y2="142.49" class="err"/>
<line x1="362.23" y1="151.42" x2="368.23" y2="151.42" class="err"/>
<circle cx="365.23" cy="146.95" r="2.5" class="obs"/>
<line x1="380.03" y1="130.33" x2="380.03" y2="143.73" class="err"/>
<line x1="377.03" y1="130.33" x2="383.03" y2="130.33" class="err"/>
<line x1="377.03" y1="143.73" x2="383.03" y2="143.73" class="err"/>
<circle cx="380.03" cy="137.03" r="2.5" class="obs"/>
<line x1="396.75" y1="129.09" x2="396.75" y2="144.97" class="err"/>
<line x1="393.75" y1="129.09" x2="399.75" y2="129.09" class="err"/>
<line x1="393.75" y1="144.97" x2="399.75" y2="144.97" class="err"/>
<circle cx="396.75" cy="137.03" r="2.5" class="obs"/>
<line x1="411.74" y1="126.11" x2="411.74" y2="142.98" class="err"/>
<line x1="408.74" y1="126.11" x2="414.74" y2="126.11" class="err"/>
<line x1="408.74" y1="142.98" x2="414.74" y2="142.98" class="err"/>
<circle cx="411.74" cy="134.55" r="2.5" class="obs"/>
<line x1="428.46" y1="114.95" x2="428.46" y2="134.30" class="err"/>
<line x1="425.46" y1="114.95" x2="431.46" y2="114.95" class="err"/>
<line x1="425.46" y1="134.30" x2="431.46" y2="134.30" class="err"/>
<circle cx="428.46" cy="124.63" r="2.5" class="obs"/>
<line x1="445.18" y1="112.72" x2="445.18" y2="131.57" class="err"/>
<line x1="442.18" y1="112.72" x2="448.18" y2="112.72" class="err"/>
<line x1="442.18" y1="131.57" x2="448.18" y2="131.57" class="err"/>
<circle cx="445.18" cy="122.15" r="2.5" class="obs"/>
<line x1="459.98" y1="120.16" x2="459.98" y2="139.01" class="err"/>
<line x1="456.98" y1="120.16" x2="462.98" y2="120.16" class="err"/>
<line x1="456.98" y1="139.01" x2="462.98" y2="139.01" class="err"/>
<circle cx="459.98" cy="129.59" r="2.5" class="obs"/>
<line x1="476.70" y1="122.64" x2="476.70" y2="141.49" class="err"/>
<line x1="473.70" y1="122.64" x2="479.70" y2="122.64" class="err"/>
<line x1="473.70" y1="141.49" x2="479.70" y2="141.49" class="err"/>
<circle cx="476.70" cy="132.07" r="2.5" class="obs"/>
<line x1="491.50" y1="122.15" x2="491.50" y2="141.99" class="err"/>
<line x1="488.50" y1="122.15" x2="494.50" y2="122.15" class="err"/>
<line x1="488.50" y1="141.99" x2="494.50" y2="141.99" class="err"/>
<circle cx="491.50" cy="132.07" r="2.5" class="obs"/>
<line x1="508.23" y1="118.67" x2="508.23" y2="135.54" class="err"/>
<line x1="505.23" y1="118.67" x2="511.23" y2="118.67" class="err"/>
<line x1="505.23" y1="135.54" x2="511.23" y2="135.54" class="err"/>
<circle cx="508.23" cy="127.11" r="2.5" class="obs"/>
<line x1="524.95" y1="116.69" x2="524.95" y2="132.56" class="err"/>
<line x1="521.95" y1="116.69" x2="527.95" y2="116.69" class="err"/>
<line x1="521.95" y1="132.56" x2="527.95" y2="132.56" class="err"/>
<circle cx="524.95" cy="124.63" r="2.5" class="obs"/>
<line x1="539.75" y1="113.96" x2="539.75" y2="130.33" class="err"/>
<line x1="536.75" y1="113.96" x2="542.75" y2="113.96" class="err"/>
<line x1="536.75" y1="130.33" x2="542.75" y2="130.33" class="err"/>
<circle cx="539.75" cy="122.15" r="2.5" class="obs"/>
<line x1="556.47" y1="115.45" x2="556.47" y2="128.84" class="err"/>
<line x1="553.47" y1="115.45" x2="559.47" y2="115.45" class="err"/>
<line x1="553.47" y1="128.84" x2="559.47" y2="128.84" class="err"/>
<circle cx="556.47" cy="122.15" r="2.5" class="obs"/>
<line x1="571.27" y1="116.19" x2="571.27" y2="128.10" class="err"/>
<line x1="568.27" y1="116.19" x2="574.27" y2="116.19" class="err"/>
<line x1="568.27" y1="128.10" x2="574.27" y2="128.10" class="err"/>
<circle cx="571.27" cy="122.15" r="2.5" class="obs"/>
<line x1="587.99" y1="108.50" x2="587.99" y2="120.91" class="err"/>
<line x1="584.99" y1="108.50" x2="590.99" y2="108.50" class="err"/>
<line x1="584.99" y1="120.91" x2="590.99" y2="120.91" class="err"/>
<circle cx="587.99" cy="114.70" r="2.5" class="obs"/>
<line x1="602.98" y1="106.77" x2="602.98" y2="117.68" class="err"/>
<line x1="599.98" y1="106.77" x2="605.98" y2="106.77" class="err"/>
<line x1="599.98" y1="117.68" x2="605.98" y2="117.68" class="err"/>
<circle cx="602.98" cy="112.22" r="2.5" class="obs"/>
<line x1="619.70" y1="112.97" x2="619.70" y2="121.40" class="err"/>
<line x1="616.70" y1="112.97" x2="622.70" y2="112.97" class="err"/>
<line x1="616.70" y1="121.40" x2="622.70" y2="121.40" class="err"/>
<circle cx="619.70" cy="117.18" r="2.5" class="obs"/>
<line x1="636.43" y1="110.24" x2="636.43" y2="119.17" class="err"/>
<line x1="633.43" y1="110.24" x2="639.43" y2="110.24" class="err"/>
<line x1="633.43" y1="119.17" x2="639.43" y2="119.17" class="err"/>
<circle cx="636.43" cy="114.70" r="2.5" class="obs"/>
<line x1="651.23" y1="105.77" x2="651.23" y2="113.71" class="err"/>
<line x1="648.23" y1="105.77" x2="654.23" y2="105.77" class="err"/>
<line x1="648.23" y1="113.71" x2="654.23" y2="113.71" class="err"/>
<circle cx="651.23" cy="109.74" r="2.5" class="obs"/>
<g class="legend">
<line x1="82" y1="69" x2="106" y2="69" class="fw"/>
<text x="112" y="73" class="lbl-l">framework: 1.5 km/s, 1.6%, 0.60σ</text>
<line x1="82" y1="87" x2="106" y2="87" class="nt"/>
<text x="112" y="91" class="lbl-l">Newtonian: 8.4 km/s, 9.0%, 3.23σ</text>
<line x1="82" y1="105" x2="106" y2="105" class="mond"/>
<text x="112" y="109" class="lbl-m">MOND/RAR: 8.1 km/s, 10.2%, 3.62σ</text>
<circle cx="94" cy="123" r="2.5" class="obs"/>
<text x="112" y="127" class="lbl">observed V±err</text>
</g>
<g class="legend">
<line x1="472" y1="69" x2="496" y2="69" class="rho"/>
<text x="502" y="73" class="lbl-r">ρ(r) raw</text>
<line x1="472" y1="87" x2="496" y2="87" class="phot"/>
<text x="502" y="91" class="lbl-p">photometric baryonic profile</text>
<line x1="472" y1="105" x2="496" y2="105" class="mbar"/>
<text x="502" y="109" class="lbl-m">MOND baryonic annulus</text>
<line x1="472" y1="123" x2="496" y2="123" class="mph"/>
<text x="502" y="127" class="lbl-m">MOND phantom annulus</text>
<text x="472" y="147" class="lbl-r">ρ peak: 180 M☉/pc²</text>
<text x="472" y="163" class="lbl-p">phot peak: 87.86 (arb.)</text>
<text x="472" y="179" class="lbl-m">Σbar peak: 88.25 M☉/pc²</text>
<text x="472" y="195" class="lbl-m">Σphantom peak: 115.29 M☉/pc²</text>
</g>
<rect x="775" y="55" width="170" height="170" class="preview-bg"/>
<defs><radialGradient id="g_NGC1003" cx="0.5" cy="0.5" r="0.5">
  <stop offset="0.0000" stop-color="rgb(86,86,86)"/>
  <stop offset="0.0313" stop-color="rgb(70,70,70)"/>
  <stop offset="0.0625" stop-color="rgb(52,52,52)"/>
  <stop offset="0.0938" stop-color="rgb(49,49,49)"/>
  <stop offset="0.1250" stop-color="rgb(46,46,46)"/>
  <stop offset="0.1563" stop-color="rgb(43,43,43)"/>
  <stop offset="0.1875" stop-color="rgb(40,40,40)"/>
  <stop offset="0.2188" stop-color="rgb(37,37,37)"/>
  <stop offset="0.2500" stop-color="rgb(34,34,34)"/>
  <stop offset="0.2813" stop-color="rgb(31,31,31)"/>
  <stop offset="0.3125" stop-color="rgb(28,28,28)"/>
  <stop offset="0.3438" stop-color="rgb(28,28,28)"/>
  <stop offset="0.3750" stop-color="rgb(28,28,28)"/>
  <stop offset="0.4063" stop-color="rgb(28,28,28)"/>
  <stop offset="0.4375" stop-color="rgb(28,28,28)"/>
  <stop offset="0.4688" stop-color="rgb(27,27,27)"/>
  <stop offset="0.5000" stop-color="rgb(26,26,26)"/>
  <stop offset="0.5313" stop-color="rgb(25,25,25)"/>
  <stop offset="0.5625" stop-color="rgb(25,25,25)"/>
  <stop offset="0.5938" stop-color="rgb(24,24,24)"/>
  <stop offset="0.6250" stop-color="rgb(23,23,23)"/>
  <stop offset="0.6563" stop-color="rgb(22,22,22)"/>
  <stop offset="0.6875" stop-color="rgb(22,22,22)"/>
  <stop offset="0.7188" stop-color="rgb(21,21,21)"/>
  <stop offset="0.7500" stop-color="rgb(20,20,20)"/>
  <stop offset="0.7813" stop-color="rgb(19,19,19)"/>
  <stop offset="0.8125" stop-color="rgb(18,18,18)"/>
  <stop offset="0.8438" stop-color="rgb(18,18,18)"/>
  <stop offset="0.8750" stop-color="rgb(17,17,17)"/>
  <stop offset="0.9063" stop-color="rgb(16,16,16)"/>
  <stop offset="0.9375" stop-color="rgb(15,15,15)"/>
  <stop offset="0.9688" stop-color="rgb(15,15,15)"/>
  <stop offset="1.0000" stop-color="rgb(0,0,0)"/>
</radialGradient></defs>
<circle cx="860" cy="140" r="81" fill="url(#g_NGC1003)"/>
<text x="860" y="49" text-anchor="middle" class="preview-lbl">face-on luminance from ρ(r)</text>
<text x="860" y="239" text-anchor="middle" class="preview-lbl">edge at r = 30.6 kpc</text>
</svg>