<svg xmlns="http://www.w3.org/2000/svg" viewBox="0 0 890 420" width="890" height="420" font-family="sans-serif" font-size="12">
<style>
  .ax { stroke: #333; stroke-width: 1; fill: none; }
  .grid { stroke: #ddd; stroke-width: 0.5; fill: none; }
  .lbl { fill: #333; }
  .lbl-l { fill: #0066cc; }
  .lbl-r { fill: #b03030; }
  .obs { fill: #222; }
  .err { stroke: #555; stroke-width: 0.8; fill: none; }
  .fw { stroke: #0066cc; stroke-width: 2.2; fill: none; }
  .nt { stroke: #cc6600; stroke-width: 1.6; fill: none; stroke-dasharray: 5,3; }
  .lbl-s { fill: #cc7000; }
  .rho { stroke: #b03030; stroke-width: 2.0; fill: none; }
  .sig { stroke: #cc7000; stroke-width: 1.8; fill: none; }
  .title { fill: #111; font-size: 16px; font-weight: 600; }
  .subtitle { fill: #555; font-size: 11px; }
  .preview-bg { fill: #000; }
  .preview-lbl { fill: #888; font-size: 10px; }
  .legend { font-size: 11px; }
</style>
<text x="343.5" y="22" text-anchor="middle" class="title">NGC2841</text>
<text x="343.5" y="38" text-anchor="middle" class="subtitle">rMax=63.6 kpc, N=50, RMS=8.1 km/s (2.7%), amp=2031</text>
<line x1="70" y1="365.0" x2="617" y2="365.0" class="grid"/>
<text x="64" y="369.0" text-anchor="end" class="lbl-l">0</text>
<line x1="70" y1="303.0" x2="617" y2="303.0" class="grid"/>
<text x="64" y="307.0" text-anchor="end" class="lbl-l">76</text>
<line x1="70" y1="241.0" x2="617" y2="241.0" class="grid"/>
<text x="64" y="245.0" text-anchor="end" class="lbl-l">152</text>
<line x1="70" y1="179.0" x2="617" y2="179.0" class="grid"/>
<text x="64" y="183.0" text-anchor="end" class="lbl-l">228</text>
<line x1="70" y1="117.0" x2="617" y2="117.0" class="grid"/>
<text x="64" y="121.0" text-anchor="end" class="lbl-l">304</text>
<line x1="70" y1="55.0" x2="617" y2="55.0" class="grid"/>
<text x="64" y="59.0" text-anchor="end" class="lbl-l">380</text>
<text x="623" y="369.0" text-anchor="start" class="lbl-r">0.0</text>
<text x="623" y="327.7" text-anchor="start" class="lbl-r">0.2</text>
<text x="623" y="286.3" text-anchor="start" class="lbl-r">0.4</text>
<text x="623" y="245.0" text-anchor="start" class="lbl-r">0.6</text>
<text x="623" y="203.7" text-anchor="start" class="lbl-r">0.8</text>
<text x="623" y="162.3" text-anchor="start" class="lbl-r">1.0</text>
<line x1="70.0" y1="55" x2="70.0" y2="365" class="grid"/>
<text x="70.0" y="381" text-anchor="middle" class="lbl">0.0</text>
<line x1="161.2" y1="55" x2="161.2" y2="365" class="grid"/>
<text x="161.2" y="381" text-anchor="middle" class="lbl">12.3</text>
<line x1="252.3" y1="55" x2="252.3" y2="365" class="grid"/>
<text x="252.3" y="381" text-anchor="middle" class="lbl">24.7</text>
<line x1="343.5" y1="55" x2="343.5" y2="365" class="grid"/>
<text x="343.5" y="381" text-anchor="middle" class="lbl">37.0</text>
<line x1="434.7" y1="55" x2="434.7" y2="365" class="grid"/>
<text x="434.7" y="381" text-anchor="middle" class="lbl">49.4</text>
<line x1="525.8" y1="55" x2="525.8" y2="365" class="grid"/>
<text x="525.8" y="381" text-anchor="middle" class="lbl">61.7</text>
<line x1="617.0" y1="55" x2="617.0" y2="365" class="grid"/>
<text x="617.0" y="381" text-anchor="middle" class="lbl">74.0</text>
<text x="343.5" y="408" text-anchor="middle" class="lbl">radius (kpc)</text>
<text x="16" y="210" text-anchor="middle" class="lbl-l" transform="rotate(-90, 16, 210)">velocity (km/s)</text>
<text x="874" y="210" text-anchor="middle" class="lbl-r" transform="rotate(-90, 874, 210)">mass profile (normalized to peak)</text>
<rect x="70" y="55" width="547" height="310" class="ax"/>
<path d="M 70.0,158.3 L 72.5,165.9 L 75.0,173.4 L 77.5,181.0 L 80.0,188.6 L 82.5,196.1 L 85.0,203.7 L 87.5,211.2 L 90.0,218.8 L 92.5,226.3 L 95.0,233.9 L 97.5,241.5 L 100.0,249.0 L 102.5,256.6 L 105.0,264.1 L 107.5,271.7 L 110.0,279.2 L 112.5,282.7 L 115.0,283.3 L 117.5,283.9 L 120.0,284.5 L 122.5,285.1 L 124.9,285.8 L 127.4,286.4 L 129.9,287.0 L 132.4,287.6 L 134.9,288.2 L 137.4,288.8 L 139.9,289.4 L 142.4,290.0 L 144.9,290.7 L 147.4,291.3 L 149.9,291.9 L 152.4,292.5 L 154.9,293.1 L 157.4,293.7 L 159.9,294.3 L 162.4,294.9 L 164.9,295.6 L 167.4,296.2 L 169.9,296.8 L 172.4,297.4 L 174.9,298.0 L 177.4,298.6 L 179.9,299.2 L 182.4,299.8 L 184.9,300.5 L 187.4,301.1 L 189.9,301.7 L 192.4,302.3 L 194.9,302.9 L 197.4,303.5 L 199.9,304.1 L 202.4,304.8 L 204.9,305.4 L 207.4,306.0 L 209.9,306.6 L 212.4,306.6 L 214.9,306.6 L 217.4,306.6 L 219.9,306.8 L 222.4,307.0 L 224.9,307.2 L 227.4,307.4 L 229.9,307.6 L 232.4,307.9 L 234.8,308.1 L 237.3,308.3 L 239.8,308.5 L 242.3,308.7 L 244.8,309.0 L 247.3,309.2 L 249.8,309.4 L 252.3,309.6 L 254.8,309.8 L 257.3,310.1 L 259.8,310.3 L 262.3,310.5 L 264.8,310.7 L 267.3,310.9 L 269.8,311.2 L 272.3,311.4 L 274.8,311.6 L 277.3,311.8 L 279.8,312.0 L 282.3,312.3 L 284.8,312.5 L 287.3,312.7 L 289.8,312.9 L 292.3,313.1 L 294.8,313.4 L 297.3,313.6 L 299.8,313.8 L 302.3,314.0 L 304.8,314.2 L 307.3,314.5 L 309.8,314.7 L 312.3,314.9 L 314.8,315.1 L 317.3,315.3 L 319.8,315.6 L 322.3,315.8 L 324.8,316.0 L 327.3,316.2 L 329.8,316.4 L 332.3,316.7 L 334.8,316.9 L 337.3,317.1 L 339.8,317.3 L 342.3,317.5 L 344.7,317.8 L 347.2,318.0 L 349.7,318.2 L 352.2,318.4 L 354.7,318.6 L 357.2,318.9 L 359.7,319.1 L 362.2,319.3 L 364.7,319.5 L 367.2,319.8 L 369.7,320.0 L 372.2,320.2 L 374.7,320.4 L 377.2,320.6 L 379.7,320.9 L 382.2,321.1 L 384.7,321.3 L 387.2,321.5 L 389.7,321.7 L 392.2,322.0 L 394.7,322.2 L 397.2,322.4 L 399.7,322.6 L 402.2,322.8 L 404.7,323.1 L 407.2,323.3 L 409.7,323.5 L 412.2,323.7 L 414.7,323.9 L 417.2,324.2 L 419.7,324.4 L 422.2,324.6 L 424.7,324.8 L 427.2,325.0 L 429.7,325.3 L 432.2,325.5 L 434.7,325.7 L 437.2,325.9 L 439.7,326.1 L 442.2,326.4 L 444.7,326.6 L 447.2,326.8 L 449.7,327.0 L 452.2,327.2 L 454.6,327.5 L 457.1,327.7 L 459.6,327.9 L 462.1,328.1 L 464.6,328.3 L 467.1,328.6 L 469.6,328.8 L 472.1,329.0 L 474.6,329.2 L 477.1,329.4 L 479.6,329.7 L 482.1,329.9 L 484.6,330.1 L 487.1,330.3 L 489.6,330.5 L 492.1,330.8 L 494.6,331.0 L 497.1,331.2 L 499.6,331.4 L 502.1,331.6 L 504.6,331.9 L 507.1,332.1 L 509.6,332.3 L 512.1,332.5 L 514.6,332.7 L 517.1,333.0 L 519.6,333.2 L 522.1,333.4 L 524.6,333.6 L 527.1,333.8 L 529.6,334.1 L 532.1,334.3 L 534.6,334.5 L 537.1,334.7 L 539.6,334.9 L 542.1,335.2 L 544.6,335.4 L 547.1,335.6 L 549.6,335.8 L 552.1,337.6 L 554.6,339.3 L 557.1,341.1 L 559.6,342.9 L 562.1,344.6 L 564.5,346.4 L 567.0,348.1 L 569.5,349.9 L 572.0,351.7 L 574.5,353.4 L 577.0,355.2 L 579.5,356.9 L 582.0,358.7 L 584.5,360.5 L 587.0,362.2 L 589.5,364.0 L 592.0,365.0 L 594.5,365.0 L 597.0,365.0 L 599.5,365.0 L 602.0,365.0 L 604.5,365.0 L 607.0,365.0 L 609.5,365.0 L 612.0,365.0 L 614.5,365.0 L 617.0,365.0" class="rho"/>
<path d="M 70.0,158.3 L 72.5,159.0 L 75.0,160.1 L 77.5,161.7 L 80.0,163.9 L 82.5,166.5 L 85.0,169.6 L 87.5,173.1 L 90.0,176.9 L 92.5,181.0 L 95.0,185.2 L 97.5,189.5 L 100.0,193.8 L 102.5,198.1 L 105.0,202.4 L 107.5,206.5 L 110.0,210.5 L 112.5,214.4 L 115.0,218.1 L 117.5,221.7 L 120.0,225.1 L 122.5,228.3 L 124.9,231.3 L 127.4,234.2 L 129.9,237.0 L 132.4,239.6 L 134.9,242.1 L 137.4,244.6 L 139.9,246.9 L 142.4,249.1 L 144.9,251.3 L 147.4,253.3 L 149.9,255.3 L 152.4,257.3 L 154.9,259.2 L 157.4,261.0 L 159.9,262.8 L 162.4,264.5 L 164.9,266.2 L 167.4,267.8 L 169.9,269.4 L 172.4,270.9 L 174.9,272.4 L 177.4,273.9 L 179.9,275.3 L 182.4,276.7 L 184.9,278.1 L 187.4,279.4 L 189.9,280.7 L 192.4,282.0 L 194.9,283.2 L 197.4,284.4 L 199.9,285.5 L 202.4,286.6 L 204.9,287.7 L 207.4,288.8 L 209.9,289.8 L 212.4,290.8 L 214.9,291.8 L 217.4,292.7 L 219.9,293.6 L 222.4,294.5 L 224.9,295.4 L 227.4,296.2 L 229.9,297.0 L 232.4,297.8 L 234.8,298.6 L 237.3,299.4 L 239.8,300.1 L 242.3,300.9 L 244.8,301.6 L 247.3,302.3 L 249.8,303.0 L 252.3,303.7 L 254.8,304.3 L 257.3,305.0 L 259.8,305.7 L 262.3,306.3 L 264.8,306.9 L 267.3,307.6 L 269.8,308.2 L 272.3,308.8 L 274.8,309.4 L 277.3,310.0 L 279.8,310.6 L 282.3,311.2 L 284.8,311.7 L 287.3,312.3 L 289.8,312.9 L 292.3,313.4 L 294.8,314.0 L 297.3,314.5 L 299.8,315.0 L 302.3,315.6 L 304.8,316.1 L 307.3,316.6 L 309.8,317.1 L 312.3,317.6 L 314.8,318.2 L 317.3,318.7 L 319.8,319.1 L 322.3,319.6 L 324.8,320.1 L 327.3,320.6 L 329.8,321.1 L 332.3,321.6 L 334.8,322.0 L 337.3,322.5 L 339.8,323.0 L 342.3,323.4 L 344.7,323.9 L 347.2,324.3 L 349.7,324.8 L 352.2,325.2 L 354.7,325.7 L 357.2,326.1 L 359.7,326.5 L 362.2,327.0 L 364.7,327.4 L 367.2,327.8 L 369.7,328.2 L 372.2,328.7 L 374.7,329.1 L 377.2,329.5 L 379.7,329.9 L 382.2,330.3 L 384.7,330.7 L 387.2,331.1 L 389.7,331.5 L 392.2,331.9 L 394.7,332.3 L 397.2,332.6 L 399.7,333.0 L 402.2,333.4 L 404.7,333.8 L 407.2,334.1 L 409.7,334.5 L 412.2,334.9 L 414.7,335.2 L 417.2,335.6 L 419.7,336.0 L 422.2,336.3 L 424.7,336.7 L 427.2,337.0 L 429.7,337.4 L 432.2,337.7 L 434.7,338.0 L 437.2,338.4 L 439.7,338.7 L 442.2,339.1 L 444.7,339.4 L 447.2,339.7 L 449.7,340.0 L 452.2,340.4 L 454.6,340.7 L 457.1,341.0 L 459.6,341.3 L 462.1,341.6 L 464.6,341.9 L 467.1,342.3 L 469.6,342.6 L 472.1,342.9 L 474.6,343.2 L 477.1,343.5 L 479.6,343.8 L 482.1,344.1 L 484.6,344.4 L 487.1,344.6 L 489.6,344.9 L 492.1,345.2 L 494.6,345.5 L 497.1,345.8 L 499.6,346.1 L 502.1,346.4 L 504.6,346.7 L 507.1,346.9 L 509.6,347.2 L 512.1,347.5 L 514.6,347.8 L 517.1,348.1 L 519.6,348.3 L 522.1,348.6 L 524.6,348.9 L 527.1,349.2 L 529.6,349.5 L 532.1,349.7 L 534.6,350.0 L 537.1,350.3 L 539.6,350.6 L 542.1,350.9 L 544.6,351.2 L 547.1,351.5 L 549.6,351.8 L 552.1,352.1 L 554.6,352.4 L 557.1,352.7 L 559.6,353.0 L 562.1,353.2 L 564.5,353.5 L 567.0,353.8 L 569.5,354.1 L 572.0,354.3 L 574.5,354.6 L 577.0,354.8 L 579.5,355.0 L 582.0,355.2 L 584.5,355.4 L 587.0,355.6 L 589.5,355.8 L 592.0,356.0 L 594.5,356.2 L 597.0,356.3 L 599.5,356.5 L 602.0,356.6 L 604.5,356.8 L 607.0,356.9 L 609.5,357.0 L 612.0,357.2 L 614.5,357.3 L 617.0,357.4" class="sig"/>
<path d="M 75.5,301.4 L 80.9,277.6 L 86.4,261.2 L 91.9,249.1 L 97.3,239.9 L 102.8,233.0 L 108.3,228.1 L 113.8,224.8 L 119.2,221.3 L 124.7,217.6 L 130.2,213.8 L 135.6,210.0 L 141.1,206.3 L 146.6,202.6 L 152.1,199.1 L 157.5,195.6 L 163.0,192.3 L 168.5,189.0 L 173.9,185.9 L 179.4,182.9 L 184.9,180.1 L 190.3,177.3 L 195.8,174.7 L 201.3,172.1 L 206.8,169.7 L 212.2,167.4 L 217.7,165.1 L 223.2,162.8 L 228.6,160.5 L 234.1,158.2 L 239.6,156.0 L 245.0,153.8 L 250.5,151.6 L 256.0,149.5 L 261.5,147.4 L 266.9,145.3 L 272.4,143.3 L 277.9,141.3 L 283.3,139.4 L 288.8,137.4 L 294.3,135.6 L 299.7,133.7 L 305.2,131.9 L 310.7,130.2 L 316.1,128.4 L 321.6,126.7 L 327.1,125.0 L 332.6,123.4 L 338.0,121.8 L 343.5,120.2 L 349.0,118.7 L 354.4,117.2 L 359.9,115.7 L 365.4,114.3 L 370.9,112.9 L 376.3,111.5 L 381.8,110.2 L 387.3,108.8 L 392.7,107.6 L 398.2,106.3 L 403.7,105.1 L 409.1,103.9 L 414.6,102.7 L 420.1,101.6 L 425.6,100.4 L 431.0,99.4 L 436.5,98.3 L 442.0,97.3 L 447.4,96.3 L 452.9,95.3 L 458.4,94.3 L 463.8,93.4 L 469.3,92.5 L 474.8,91.6 L 480.3,90.8 L 485.7,90.0 L 491.2,89.2 L 496.7,88.4 L 502.1,87.7 L 507.6,87.0 L 513.1,86.3 L 518.5,85.6 L 524.0,84.9 L 529.5,84.3 L 535.0,83.7 L 540.4,83.2 L 545.9,82.6 L 551.4,82.1 L 556.8,81.8 L 562.3,81.8 L 567.8,82.0 L 573.2,82.5 L 578.7,83.2 L 584.2,84.2 L 589.7,85.5 L 595.1,87.0 L 600.6,88.4 L 606.1,89.8 L 611.5,91.2 L 617.0,92.6" class="nt"/>
<path d="M 74.6,312.6 L 79.1,272.4 L 83.7,231.8 L 88.2,195.8 L 92.8,165.7 L 97.3,141.8 L 101.9,123.8 L 106.5,111.8 L 111.0,104.5 L 115.6,101.1 L 120.1,100.1 L 124.7,100.5 L 129.3,101.5 L 133.8,102.7 L 138.4,103.7 L 142.9,104.6 L 147.5,105.1 L 152.1,105.5 L 156.6,105.7 L 161.2,105.9 L 165.7,106.1 L 170.3,106.4 L 174.8,106.8 L 179.4,107.3 L 184.0,108.2 L 188.5,109.3 L 193.1,110.9 L 197.6,112.8 L 202.2,115.1 L 206.8,117.7 L 211.3,120.5 L 215.9,123.2 L 220.4,125.6 L 225.0,127.8 L 229.5,129.7 L 234.1,131.2 L 238.7,132.4 L 243.2,133.4 L 247.8,134.3 L 252.3,134.9 L 256.9,135.4 L 261.5,135.8 L 266.0,136.1 L 270.6,136.3 L 275.1,136.4 L 279.7,136.4 L 284.2,136.4 L 288.8,136.4 L 293.4,136.3 L 297.9,136.2 L 302.5,136.0 L 307.0,135.9 L 311.6,135.7 L 316.1,135.5 L 320.7,135.3 L 325.3,135.2 L 329.8,135.0 L 334.4,134.8 L 338.9,134.6 L 343.5,134.5 L 348.1,134.3 L 352.6,134.2 L 357.2,134.1 L 361.7,134.0 L 366.3,133.9 L 370.9,133.8 L 375.4,133.8 L 380.0,133.8 L 384.5,133.8 L 389.1,133.8 L 393.6,133.8 L 398.2,133.9 L 402.8,134.0 L 407.3,134.1 L 411.9,134.2 L 416.4,134.3 L 421.0,134.5 L 425.6,134.6 L 430.1,134.8 L 434.7,135.0 L 439.2,135.2 L 443.8,135.4 L 448.3,135.6 L 452.9,135.9 L 457.5,136.1 L 462.0,136.3 L 466.6,136.5 L 471.1,136.7 L 475.7,136.8 L 480.3,137.0 L 484.8,137.0 L 489.4,137.0 L 493.9,136.9 L 498.5,136.7 L 503.0,136.4 L 507.6,135.8 L 512.2,135.1 L 516.7,134.1 L 521.3,132.7 L 525.8,131.0 L 530.4,128.8 L 535.0,126.3 L 539.5,123.7 L 544.1,121.2 L 548.6,119.3 L 553.2,118.7 L 557.7,119.6 L 562.3,122.4 L 566.9,127.1 L 571.4,133.2 L 576.0,140.4 L 580.5,148.2 L 585.1,156.2 L 589.7,164.0 L 594.2,171.4 L 598.8,178.2 L 603.3,184.4 L 607.9,190.1 L 612.4,195.2 L 617.0,199.9" class="fw"/>
<line x1="95.41" y1="120.95" x2="95.41" y2="144.43" class="err"/>
<line x1="92.41" y1="120.95" x2="98.41" y2="120.95" class="err"/>
<line x1="92.41" y1="144.43" x2="98.41" y2="144.43" class="err"/>
<circle cx="95.41" cy="132.69" r="2.5" class="obs"/>
<line x1="97.85" y1="111.83" x2="97.85" y2="134.00" class="err"/>
<line x1="94.85" y1="111.83" x2="100.85" y2="111.83" class="err"/>
<line x1="94.85" y1="134.00" x2="100.85" y2="134.00" class="err"/>
<circle cx="97.85" cy="122.91" r="2.5" class="obs"/>
<line x1="100.51" y1="111.12" x2="100.51" y2="124.92" class="err"/>
<line x1="97.51" y1="111.12" x2="103.51" y2="111.12" class="err"/>
<line x1="97.51" y1="124.92" x2="103.51" y2="124.92" class="err"/>
<circle cx="100.51" cy="118.02" r="2.5" class="obs"/>
<line x1="103.02" y1="110.74" x2="103.02" y2="120.41" class="err"/>
<line x1="100.02" y1="110.74" x2="106.02" y2="110.74" class="err"/>
<line x1="100.02" y1="120.41" x2="106.02" y2="120.41" class="err"/>
<circle cx="103.02" cy="115.57" r="2.5" class="obs"/>
<line x1="105.46" y1="109.93" x2="105.46" y2="119.59" class="err"/>
<line x1="102.46" y1="109.93" x2="108.46" y2="109.93" class="err"/>
<line x1="102.46" y1="119.59" x2="108.46" y2="119.59" class="err"/>
<circle cx="105.46" cy="114.76" r="2.5" class="obs"/>
<line x1="107.90" y1="110.30" x2="107.90" y2="124.11" class="err"/>
<line x1="104.90" y1="110.30" x2="110.90" y2="110.30" class="err"/>
<line x1="104.90" y1="124.11" x2="110.90" y2="124.11" class="err"/>
<circle cx="107.90" cy="117.21" r="2.5" class="obs"/>
<line x1="110.49" y1="107.04" x2="110.49" y2="120.85" class="err"/>
<line x1="107.49" y1="107.04" x2="113.49" y2="107.04" class="err"/>
<line x1="107.49" y1="120.85" x2="113.49" y2="120.85" class="err"/>
<circle cx="110.49" cy="113.94" r="2.5" class="obs"/>
<line x1="113.07" y1="99.52" x2="113.07" y2="120.22" class="err"/>
<line x1="110.07" y1="99.52" x2="116.07" y2="99.52" class="err"/>
<line x1="110.07" y1="120.22" x2="116.07" y2="120.22" class="err"/>
<circle cx="113.07" cy="109.87" r="2.5" class="obs"/>
<line x1="115.51" y1="101.46" x2="115.51" y2="116.65" class="err"/>
<line x1="112.51" y1="101.46" x2="118.51" y2="101.46" class="err"/>
<line x1="112.51" y1="116.65" x2="118.51" y2="116.65" class="err"/>
<circle cx="115.51" cy="109.05" r="2.5" class="obs"/>
<line x1="118.10" y1="102.71" x2="118.10" y2="113.77" class="err"/>
<line x1="115.10" y1="102.71" x2="121.10" y2="102.71" class="err"/>
<line x1="115.10" y1="113.77" x2="121.10" y2="113.77" class="err"/>
<circle cx="118.10" cy="108.24" r="2.5" class="obs"/>
<line x1="120.68" y1="99.70" x2="120.68" y2="113.51" class="err"/>
<line x1="117.68" y1="99.70" x2="123.68" y2="99.70" class="err"/>
<line x1="117.68" y1="113.51" x2="123.68" y2="113.51" class="err"/>
<circle cx="120.68" cy="106.61" r="2.5" class="obs"/>
<line x1="123.05" y1="97.94" x2="123.05" y2="110.38" class="err"/>
<line x1="120.05" y1="97.94" x2="126.05" y2="97.94" class="err"/>
<line x1="120.05" y1="110.38" x2="126.05" y2="110.38" class="err"/>
<circle cx="123.05" cy="104.16" r="2.5" class="obs"/>
<line x1="125.48" y1="90.71" x2="125.48" y2="124.13" class="err"/>
<line x1="122.48" y1="90.71" x2="128.48" y2="90.71" class="err"/>
<line x1="122.48" y1="124.13" x2="128.48" y2="124.13" class="err"/>
<circle cx="125.48" cy="107.42" r="2.5" class="obs"/>
<line x1="128.00" y1="86.72" x2="128.00" y2="124.87" class="err"/>
<line x1="125.00" y1="86.72" x2="131.00" y2="86.72" class="err"/>
<line x1="125.00" y1="124.87" x2="131.00" y2="124.87" class="err"/>
<circle cx="128.00" cy="105.79" r="2.5" class="obs"/>
<line x1="130.66" y1="96.44" x2="130.66" y2="110.26" class="err"/>
<line x1="127.66" y1="96.44" x2="133.66" y2="96.44" class="err"/>
<line x1="127.66" y1="110.26" x2="133.66" y2="110.26" class="err"/>
<circle cx="130.66" cy="103.35" r="2.5" class="obs"/>
<line x1="133.32" y1="94.66" x2="133.32" y2="108.78" class="err"/>
<line x1="130.32" y1="94.66" x2="136.32" y2="94.66" class="err"/>
<line x1="130.32" y1="108.78" x2="136.32" y2="108.78" class="err"/>
<circle cx="133.32" cy="101.72" r="2.5" class="obs"/>
<line x1="135.75" y1="93.00" x2="135.75" y2="113.70" class="err"/>
<line x1="132.75" y1="93.00" x2="138.75" y2="93.00" class="err"/>
<line x1="132.75" y1="113.70" x2="138.75" y2="113.70" class="err"/>
<circle cx="135.75" cy="103.35" r="2.5" class="obs"/>
<line x1="138.27" y1="92.75" x2="138.27" y2="110.68" class="err"/>
<line x1="135.27" y1="92.75" x2="141.27" y2="92.75" class="err"/>
<line x1="135.27" y1="110.68" x2="141.27" y2="110.68" class="err"/>
<circle cx="138.27" cy="101.72" r="2.5" class="obs"/>
<line x1="140.92" y1="93.24" x2="140.92" y2="110.20" class="err"/>
<line x1="137.92" y1="93.24" x2="143.92" y2="93.24" class="err"/>
<line x1="137.92" y1="110.20" x2="143.92" y2="110.20" class="err"/>
<circle cx="140.92" cy="101.72" r="2.5" class="obs"/>
<line x1="143.36" y1="91.45" x2="143.36" y2="113.62" class="err"/>
<line x1="140.36" y1="91.45" x2="146.36" y2="91.45" class="err"/>
<line x1="140.36" y1="113.62" x2="146.36" y2="113.62" class="err"/>
<circle cx="143.36" cy="102.53" r="2.5" class="obs"/>
<line x1="145.87" y1="92.26" x2="145.87" y2="114.43" class="err"/>
<line x1="142.87" y1="92.26" x2="148.87" y2="92.26" class="err"/>
<line x1="142.87" y1="114.43" x2="148.87" y2="114.43" class="err"/>
<circle cx="145.87" cy="103.35" r="2.5" class="obs"/>
<line x1="148.31" y1="94.12" x2="148.31" y2="109.31" class="err"/>
<line x1="145.31" y1="94.12" x2="151.31" y2="94.12" class="err"/>
<line x1="145.31" y1="109.31" x2="151.31" y2="109.31" class="err"/>
<circle cx="148.31" cy="101.72" r="2.5" class="obs"/>
<line x1="150.75" y1="92.83" x2="150.75" y2="112.23" class="err"/>
<line x1="147.75" y1="92.83" x2="153.75" y2="92.83" class="err"/>
<line x1="147.75" y1="112.23" x2="153.75" y2="112.23" class="err"/>
<circle cx="150.75" cy="102.53" r="2.5" class="obs"/>
<line x1="153.26" y1="94.38" x2="153.26" y2="112.31" class="err"/>
<line x1="150.26" y1="94.38" x2="156.26" y2="94.38" class="err"/>
<line x1="150.26" y1="112.31" x2="156.26" y2="112.31" class="err"/>
<circle cx="153.26" cy="103.35" r="2.5" class="obs"/>
<line x1="160.95" y1="98.26" x2="160.95" y2="105.17" class="err"/>
<line x1="157.95" y1="98.26" x2="163.95" y2="98.26" class="err"/>
<line x1="157.95" y1="105.17" x2="163.95" y2="105.17" class="err"/>
<circle cx="160.95" cy="101.72" r="2.5" class="obs"/>
<line x1="176.02" y1="101.52" x2="176.02" y2="108.43" class="err"/>
<line x1="173.02" y1="101.52" x2="179.02" y2="101.52" class="err"/>
<line x1="173.02" y1="108.43" x2="179.02" y2="108.43" class="err"/>
<circle cx="176.02" cy="104.98" r="2.5" class="obs"/>
<line x1="191.16" y1="110.49" x2="191.16" y2="117.40" class="err"/>
<line x1="188.16" y1="110.49" x2="194.16" y2="110.49" class="err"/>
<line x1="188.16" y1="117.40" x2="194.16" y2="117.40" class="err"/>
<circle cx="191.16" cy="113.94" r="2.5" class="obs"/>
<line x1="206.53" y1="116.67" x2="206.53" y2="125.89" class="err"/>
<line x1="203.53" y1="116.67" x2="209.53" y2="116.67" class="err"/>
<line x1="203.53" y1="125.89" x2="209.53" y2="125.89" class="err"/>
<circle cx="206.53" cy="121.28" r="2.5" class="obs"/>
<line x1="221.97" y1="116.67" x2="221.97" y2="125.89" class="err"/>
<line x1="218.97" y1="116.67" x2="224.97" y2="116.67" class="err"/>
<line x1="218.97" y1="125.89" x2="224.97" y2="125.89" class="err"/>
<circle cx="221.97" cy="121.28" r="2.5" class="obs"/>
<line x1="236.30" y1="117.48" x2="236.30" y2="126.71" class="err"/>
<line x1="233.30" y1="117.48" x2="239.30" y2="117.48" class="err"/>
<line x1="233.30" y1="126.71" x2="239.30" y2="126.71" class="err"/>
<circle cx="236.30" cy="122.10" r="2.5" class="obs"/>
<line x1="251.67" y1="119.11" x2="251.67" y2="128.34" class="err"/>
<line x1="248.67" y1="119.11" x2="254.67" y2="119.11" class="err"/>
<line x1="248.67" y1="128.34" x2="254.67" y2="128.34" class="err"/>
<circle cx="251.67" cy="123.73" r="2.5" class="obs"/>
<line x1="267.11" y1="122.72" x2="267.11" y2="129.63" class="err"/>
<line x1="264.11" y1="122.72" x2="270.11" y2="122.72" class="err"/>
<line x1="264.11" y1="129.63" x2="270.11" y2="129.63" class="err"/>
<circle cx="267.11" cy="126.17" r="2.5" class="obs"/>
<line x1="282.55" y1="125.98" x2="282.55" y2="132.89" class="err"/>
<line x1="279.55" y1="125.98" x2="285.55" y2="125.98" class="err"/>
<line x1="279.55" y1="132.89" x2="285.55" y2="132.89" class="err"/>
<circle cx="282.55" cy="129.43" r="2.5" class="obs"/>
<line x1="296.81" y1="125.98" x2="296.81" y2="132.89" class="err"/>
<line x1="293.81" y1="125.98" x2="299.81" y2="125.98" class="err"/>
<line x1="293.81" y1="132.89" x2="299.81" y2="132.89" class="err"/>
<circle cx="296.81" cy="129.43" r="2.5" class="obs"/>
<line x1="312.25" y1="126.79" x2="312.25" y2="133.70" class="err"/>
<line x1="309.25" y1="126.79" x2="315.25" y2="126.79" class="err"/>
<line x1="309.25" y1="133.70" x2="315.25" y2="133.70" class="err"/>
<circle cx="312.25" cy="130.25" r="2.5" class="obs"/>
<line x1="327.69" y1="129.24" x2="327.69" y2="136.15" class="err"/>
<line x1="324.69" y1="129.24" x2="330.69" y2="129.24" class="err"/>
<line x1="324.69" y1="136.15" x2="330.69" y2="136.15" class="err"/>
<circle cx="327.69" cy="132.69" r="2.5" class="obs"/>
<line x1="343.06" y1="132.02" x2="343.06" y2="136.63" class="err"/>
<line x1="340.06" y1="132.02" x2="346.06" y2="132.02" class="err"/>
<line x1="340.06" y1="136.63" x2="346.06" y2="136.63" class="err"/>
<circle cx="343.06" cy="134.32" r="2.5" class="obs"/>
<line x1="357.39" y1="138.54" x2="357.39" y2="143.15" class="err"/>
<line x1="354.39" y1="138.54" x2="360.39" y2="138.54" class="err"/>
<line x1="354.39" y1="143.15" x2="360.39" y2="143.15" class="err"/>
<circle cx="357.39" cy="140.84" r="2.5" class="obs"/>
<line x1="372.83" y1="140.98" x2="372.83" y2="145.60" class="err"/>
<line x1="369.83" y1="140.98" x2="375.83" y2="140.98" class="err"/>
<line x1="369.83" y1="145.60" x2="375.83" y2="145.60" class="err"/>
<circle cx="372.83" cy="143.29" r="2.5" class="obs"/>
<line x1="388.28" y1="141.80" x2="388.28" y2="146.41" class="err"/>
<line x1="385.28" y1="141.80" x2="391.28" y2="141.80" class="err"/>
<line x1="385.28" y1="146.41" x2="391.28" y2="146.41" class="err"/>
<circle cx="388.28" cy="144.10" r="2.5" class="obs"/>
<line x1="403.64" y1="138.20" x2="403.64" y2="145.11" class="err"/>
<line x1="400.64" y1="138.20" x2="406.64" y2="138.20" class="err"/>
<line x1="400.64" y1="145.11" x2="406.64" y2="145.11" class="err"/>
<circle cx="403.64" cy="141.66" r="2.5" class="obs"/>
<line x1="417.98" y1="135.76" x2="417.98" y2="142.67" class="err"/>
<line x1="414.98" y1="135.76" x2="420.98" y2="135.76" class="err"/>
<line x1="414.98" y1="142.67" x2="420.98" y2="142.67" class="err"/>
<circle cx="417.98" cy="139.21" r="2.5" class="obs"/>
<line x1="433.42" y1="132.50" x2="433.42" y2="139.41" class="err"/>
<line x1="430.42" y1="132.50" x2="436.42" y2="132.50" class="err"/>
<line x1="430.42" y1="139.41" x2="436.42" y2="139.41" class="err"/>
<circle cx="433.42" cy="135.95" r="2.5" class="obs"/>
<line x1="448.78" y1="128.42" x2="448.78" y2="135.33" class="err"/>
<line x1="445.78" y1="128.42" x2="451.78" y2="128.42" class="err"/>
<line x1="445.78" y1="135.33" x2="451.78" y2="135.33" class="err"/>
<circle cx="448.78" cy="131.88" r="2.5" class="obs"/>
<line x1="464.22" y1="131.68" x2="464.22" y2="138.59" class="err"/>
<line x1="461.22" y1="131.68" x2="467.22" y2="131.68" class="err"/>
<line x1="461.22" y1="138.59" x2="467.22" y2="138.59" class="err"/>
<circle cx="464.22" cy="135.14" r="2.5" class="obs"/>
<line x1="478.56" y1="130.87" x2="478.56" y2="137.78" class="err"/>
<line x1="475.56" y1="130.87" x2="481.56" y2="130.87" class="err"/>
<line x1="475.56" y1="137.78" x2="481.56" y2="137.78" class="err"/>
<circle cx="478.56" cy="134.32" r="2.5" class="obs"/>
<line x1="493.92" y1="125.63" x2="493.92" y2="134.86" class="err"/>
<line x1="490.92" y1="125.63" x2="496.92" y2="125.63" class="err"/>
<line x1="490.92" y1="134.86" x2="496.92" y2="134.86" class="err"/>
<circle cx="493.92" cy="130.25" r="2.5" class="obs"/>
<line x1="509.37" y1="126.45" x2="509.37" y2="135.68" class="err"/>
<line x1="506.37" y1="126.45" x2="512.37" y2="126.45" class="err"/>
<line x1="506.37" y1="135.68" x2="512.37" y2="135.68" class="err"/>
<circle cx="509.37" cy="131.06" r="2.5" class="obs"/>
<line x1="524.81" y1="123.67" x2="524.81" y2="135.19" class="err"/>
<line x1="521.81" y1="123.67" x2="527.81" y2="123.67" class="err"/>
<line x1="521.81" y1="135.19" x2="527.81" y2="135.19" class="err"/>
<circle cx="524.81" cy="129.43" r="2.5" class="obs"/>
<line x1="540.17" y1="119.59" x2="540.17" y2="131.12" class="err"/>
<line x1="537.17" y1="119.59" x2="543.17" y2="119.59" class="err"/>
<line x1="537.17" y1="131.12" x2="543.17" y2="131.12" class="err"/>
<circle cx="540.17" cy="125.36" r="2.5" class="obs"/>
<g class="legend">
<line x1="82" y1="69" x2="106" y2="69" class="fw"/>
<text x="112" y="73" class="lbl-l">framework fit</text>
<line x1="82" y1="87" x2="106" y2="87" class="nt"/>
<text x="112" y="91" class="lbl-l">Newtonian (no halo)</text>
<circle cx="94" cy="105" r="2.5" class="obs"/>
<text x="112" y="109" class="lbl">observed V±err</text>
</g>
<g class="legend">
<line x1="442" y1="69" x2="466" y2="69" class="rho"/>
<text x="472" y="73" class="lbl-r">ρ(r) raw</text>
<line x1="442" y1="87" x2="466" y2="87" class="sig"/>
<text x="472" y="91" class="lbl-s">Σ(r) cumulative</text>
<text x="442" y="113" class="lbl-r">ρ peak: 643 M☉/pc²</text>
</g>
<rect x="705" y="55" width="170" height="170" class="preview-bg"/>
<defs><radialGradient id="g_NGC2841" cx="0.5" cy="0.5" r="0.5">
  <stop offset="0.0000" stop-color="rgb(212,212,212)"/>
  <stop offset="0.0313" stop-color="rgb(170,170,170)"/>
  <stop offset="0.0625" stop-color="rgb(128,128,128)"/>
  <stop offset="0.0938" stop-color="rgb(105,105,105)"/>
  <stop offset="0.1250" stop-color="rgb(102,102,102)"/>
  <stop offset="0.1563" stop-color="rgb(98,98,98)"/>
  <stop offset="0.1875" stop-color="rgb(95,95,95)"/>
  <stop offset="0.2188" stop-color="rgb(91,91,91)"/>
  <stop offset="0.2500" stop-color="rgb(88,88,88)"/>
  <stop offset="0.2813" stop-color="rgb(86,86,86)"/>
  <stop offset="0.3125" stop-color="rgb(85,85,85)"/>
  <stop offset="0.3438" stop-color="rgb(84,84,84)"/>
  <stop offset="0.3750" stop-color="rgb(83,83,83)"/>
  <stop offset="0.4063" stop-color="rgb(81,81,81)"/>
  <stop offset="0.4375" stop-color="rgb(80,80,80)"/>
  <stop offset="0.4688" stop-color="rgb(79,79,79)"/>
  <stop offset="0.5000" stop-color="rgb(78,78,78)"/>
  <stop offset="0.5313" stop-color="rgb(76,76,76)"/>
  <stop offset="0.5625" stop-color="rgb(75,75,75)"/>
  <stop offset="0.5938" stop-color="rgb(74,74,74)"/>
  <stop offset="0.6250" stop-color="rgb(73,73,73)"/>
  <stop offset="0.6563" stop-color="rgb(72,72,72)"/>
  <stop offset="0.6875" stop-color="rgb(70,70,70)"/>
  <stop offset="0.7188" stop-color="rgb(69,69,69)"/>
  <stop offset="0.7500" stop-color="rgb(68,68,68)"/>
  <stop offset="0.7813" stop-color="rgb(67,67,67)"/>
  <stop offset="0.8125" stop-color="rgb(65,65,65)"/>
  <stop offset="0.8438" stop-color="rgb(64,64,64)"/>
  <stop offset="0.8750" stop-color="rgb(62,62,62)"/>
  <stop offset="0.9063" stop-color="rgb(59,59,59)"/>
  <stop offset="0.9375" stop-color="rgb(46,46,46)"/>
  <stop offset="0.9688" stop-color="rgb(23,23,23)"/>
  <stop offset="1.0000" stop-color="rgb(0,0,0)"/>
</radialGradient></defs>
<circle cx="790" cy="140" r="81" fill="url(#g_NGC2841)"/>
<text x="790" y="49" text-anchor="middle" class="preview-lbl">face-on luminance from ρ(r)</text>
<text x="790" y="239" text-anchor="middle" class="preview-lbl">edge at r = 70.5 kpc</text>
</svg>