<svg xmlns="http://www.w3.org/2000/svg" viewBox="0 0 890 420" width="890" height="420" font-family="sans-serif" font-size="12">
<style>
  .ax { stroke: #333; stroke-width: 1; fill: none; }
  .grid { stroke: #ddd; stroke-width: 0.5; fill: none; }
  .lbl { fill: #333; }
  .lbl-l { fill: #0066cc; }
  .lbl-r { fill: #b03030; }
  .obs { fill: #222; }
  .err { stroke: #555; stroke-width: 0.8; fill: none; }
  .fw { stroke: #0066cc; stroke-width: 2.2; fill: none; }
  .nt { stroke: #cc6600; stroke-width: 1.6; fill: none; stroke-dasharray: 5,3; }
  .lbl-s { fill: #cc7000; }
  .rho { stroke: #b03030; stroke-width: 2.0; fill: none; }
  .sig { stroke: #cc7000; stroke-width: 1.8; fill: none; }
  .title { fill: #111; font-size: 16px; font-weight: 600; }
  .subtitle { fill: #555; font-size: 11px; }
  .preview-bg { fill: #000; }
  .preview-lbl { fill: #888; font-size: 10px; }
  .legend { font-size: 11px; }
</style>
<text x="343.5" y="22" text-anchor="middle" class="title">NGC2403</text>
<text x="343.5" y="38" text-anchor="middle" class="subtitle">rMax=20.9 kpc, N=73, RMS=5.9 km/s (5.5%), amp=920</text>
<line x1="70" y1="365.0" x2="617" y2="365.0" class="grid"/>
<text x="64" y="369.0" text-anchor="end" class="lbl-l">0</text>
<line x1="70" y1="303.0" x2="617" y2="303.0" class="grid"/>
<text x="64" y="307.0" text-anchor="end" class="lbl-l">37</text>
<line x1="70" y1="241.0" x2="617" y2="241.0" class="grid"/>
<text x="64" y="245.0" text-anchor="end" class="lbl-l">75</text>
<line x1="70" y1="179.0" x2="617" y2="179.0" class="grid"/>
<text x="64" y="183.0" text-anchor="end" class="lbl-l">112</text>
<line x1="70" y1="117.0" x2="617" y2="117.0" class="grid"/>
<text x="64" y="121.0" text-anchor="end" class="lbl-l">149</text>
<line x1="70" y1="55.0" x2="617" y2="55.0" class="grid"/>
<text x="64" y="59.0" text-anchor="end" class="lbl-l">186</text>
<text x="623" y="369.0" text-anchor="start" class="lbl-r">0.0</text>
<text x="623" y="327.7" text-anchor="start" class="lbl-r">0.2</text>
<text x="623" y="286.3" text-anchor="start" class="lbl-r">0.4</text>
<text x="623" y="245.0" text-anchor="start" class="lbl-r">0.6</text>
<text x="623" y="203.7" text-anchor="start" class="lbl-r">0.8</text>
<text x="623" y="162.3" text-anchor="start" class="lbl-r">1.0</text>
<line x1="70.0" y1="55" x2="70.0" y2="365" class="grid"/>
<text x="70.0" y="381" text-anchor="middle" class="lbl">0.0</text>
<line x1="161.2" y1="55" x2="161.2" y2="365" class="grid"/>
<text x="161.2" y="381" text-anchor="middle" class="lbl">4.9</text>
<line x1="252.3" y1="55" x2="252.3" y2="365" class="grid"/>
<text x="252.3" y="381" text-anchor="middle" class="lbl">9.7</text>
<line x1="343.5" y1="55" x2="343.5" y2="365" class="grid"/>
<text x="343.5" y="381" text-anchor="middle" class="lbl">14.6</text>
<line x1="434.7" y1="55" x2="434.7" y2="365" class="grid"/>
<text x="434.7" y="381" text-anchor="middle" class="lbl">19.5</text>
<line x1="525.8" y1="55" x2="525.8" y2="365" class="grid"/>
<text x="525.8" y="381" text-anchor="middle" class="lbl">24.3</text>
<line x1="617.0" y1="55" x2="617.0" y2="365" class="grid"/>
<text x="617.0" y="381" text-anchor="middle" class="lbl">29.2</text>
<text x="343.5" y="408" text-anchor="middle" class="lbl">radius (kpc)</text>
<text x="16" y="210" text-anchor="middle" class="lbl-l" transform="rotate(-90, 16, 210)">velocity (km/s)</text>
<text x="874" y="210" text-anchor="middle" class="lbl-r" transform="rotate(-90, 874, 210)">mass profile (normalized to peak)</text>
<rect x="70" y="55" width="547" height="310" class="ax"/>
<path d="M 70.0,158.3 L 72.5,164.2 L 75.0,170.0 L 77.5,175.9 L 80.0,181.7 L 82.5,187.6 L 85.0,193.5 L 87.5,199.3 L 90.0,205.2 L 92.5,211.0 L 95.0,216.9 L 97.5,222.7 L 100.0,228.6 L 102.5,234.4 L 105.0,240.3 L 107.5,244.6 L 110.0,244.8 L 112.5,245.0 L 115.0,245.2 L 117.5,245.4 L 120.0,245.7 L 122.5,245.9 L 124.9,246.1 L 127.4,246.3 L 129.9,246.9 L 132.4,247.9 L 134.9,248.9 L 137.4,249.8 L 139.9,250.8 L 142.4,251.7 L 144.9,252.7 L 147.4,253.7 L 149.9,254.6 L 152.4,255.6 L 154.9,256.6 L 157.4,257.5 L 159.9,258.5 L 162.4,259.4 L 164.9,260.4 L 167.4,261.4 L 169.9,262.3 L 172.4,263.3 L 174.9,264.2 L 177.4,265.2 L 179.9,266.2 L 182.4,267.1 L 184.9,268.1 L 187.4,269.0 L 189.9,269.5 L 192.4,269.9 L 194.9,270.4 L 197.4,270.8 L 199.9,271.2 L 202.4,271.7 L 204.9,272.1 L 207.4,272.5 L 209.9,273.0 L 212.4,273.4 L 214.9,273.8 L 217.4,274.3 L 219.9,274.7 L 222.4,275.2 L 224.9,275.6 L 227.4,276.0 L 229.9,276.5 L 232.4,276.9 L 234.8,277.3 L 237.3,277.8 L 239.8,278.2 L 242.3,278.7 L 244.8,279.1 L 247.3,279.5 L 249.8,280.0 L 252.3,280.4 L 254.8,280.8 L 257.3,281.3 L 259.8,281.7 L 262.3,282.1 L 264.8,282.6 L 267.3,283.0 L 269.8,283.5 L 272.3,283.9 L 274.8,284.3 L 277.3,284.8 L 279.8,285.2 L 282.3,285.6 L 284.8,286.1 L 287.3,286.5 L 289.8,287.0 L 292.3,287.4 L 294.8,287.8 L 297.3,288.3 L 299.8,288.7 L 302.3,289.1 L 304.8,289.6 L 307.3,290.0 L 309.8,290.5 L 312.3,290.9 L 314.8,291.3 L 317.3,291.8 L 319.8,292.2 L 322.3,292.6 L 324.8,293.1 L 327.3,293.5 L 329.8,293.9 L 332.3,294.4 L 334.8,294.8 L 337.3,295.3 L 339.8,295.7 L 342.3,296.1 L 344.7,296.6 L 347.2,297.0 L 349.7,297.4 L 352.2,297.9 L 354.7,298.3 L 357.2,298.8 L 359.7,299.2 L 362.2,299.6 L 364.7,300.1 L 367.2,300.5 L 369.7,300.9 L 372.2,301.4 L 374.7,301.8 L 377.2,302.2 L 379.7,302.7 L 382.2,303.1 L 384.7,303.6 L 387.2,304.0 L 389.7,304.4 L 392.2,304.9 L 394.7,305.3 L 397.2,305.7 L 399.7,306.2 L 402.2,306.6 L 404.7,307.1 L 407.2,307.5 L 409.7,307.9 L 412.2,308.4 L 414.7,308.8 L 417.2,309.2 L 419.7,309.7 L 422.2,310.1 L 424.7,310.6 L 427.2,311.0 L 429.7,311.4 L 432.2,311.9 L 434.7,312.3 L 437.2,312.7 L 439.7,313.2 L 442.2,313.6 L 444.7,314.0 L 447.2,314.5 L 449.7,314.9 L 452.2,315.4 L 454.6,315.8 L 457.1,316.4 L 459.6,317.3 L 462.1,318.2 L 464.6,319.1 L 467.1,320.0 L 469.6,320.9 L 472.1,321.8 L 474.6,322.8 L 477.1,323.7 L 479.6,324.6 L 482.1,325.5 L 484.6,326.4 L 487.1,327.3 L 489.6,328.2 L 492.1,329.1 L 494.6,330.0 L 497.1,330.9 L 499.6,331.8 L 502.1,332.7 L 504.6,333.6 L 507.1,334.5 L 509.6,335.5 L 512.1,336.4 L 514.6,337.3 L 517.1,338.2 L 519.6,339.1 L 522.1,340.0 L 524.6,340.9 L 527.1,341.8 L 529.6,342.7 L 532.1,343.6 L 534.6,344.5 L 537.1,345.4 L 539.6,346.3 L 542.1,347.2 L 544.6,348.2 L 547.1,349.1 L 549.6,350.0 L 552.1,350.9 L 554.6,351.8 L 557.1,352.7 L 559.6,353.6 L 562.1,354.5 L 564.5,355.4 L 567.0,356.3 L 569.5,357.2 L 572.0,358.1 L 574.5,359.0 L 577.0,359.9 L 579.5,360.9 L 582.0,361.8 L 584.5,362.7 L 587.0,363.6 L 589.5,364.5 L 592.0,365.0 L 594.5,365.0 L 597.0,365.0 L 599.5,365.0 L 602.0,365.0 L 604.5,365.0 L 607.0,365.0 L 609.5,365.0 L 612.0,365.0 L 614.5,365.0 L 617.0,365.0" class="rho"/>
<path d="M 70.0,158.3 L 72.5,158.7 L 75.0,159.5 L 77.5,160.7 L 80.0,162.3 L 82.5,164.2 L 85.0,166.5 L 87.5,169.0 L 90.0,171.7 L 92.5,174.6 L 95.0,177.5 L 97.5,180.5 L 100.0,183.4 L 102.5,186.4 L 105.0,189.2 L 107.5,192.0 L 110.0,194.7 L 112.5,197.2 L 115.0,199.7 L 117.5,202.1 L 120.0,204.4 L 122.5,206.6 L 124.9,208.7 L 127.4,210.8 L 129.9,212.9 L 132.4,214.9 L 134.9,216.9 L 137.4,218.9 L 139.9,220.8 L 142.4,222.7 L 144.9,224.7 L 147.4,226.6 L 149.9,228.4 L 152.4,230.3 L 154.9,232.1 L 157.4,233.9 L 159.9,235.7 L 162.4,237.5 L 164.9,239.2 L 167.4,241.0 L 169.9,242.6 L 172.4,244.3 L 174.9,246.0 L 177.4,247.6 L 179.9,249.1 L 182.4,250.7 L 184.9,252.2 L 187.4,253.6 L 189.9,255.1 L 192.4,256.5 L 194.9,257.9 L 197.4,259.2 L 199.9,260.5 L 202.4,261.8 L 204.9,263.0 L 207.4,264.3 L 209.9,265.5 L 212.4,266.7 L 214.9,267.9 L 217.4,269.0 L 219.9,270.1 L 222.4,271.3 L 224.9,272.4 L 227.4,273.5 L 229.9,274.5 L 232.4,275.6 L 234.8,276.7 L 237.3,277.7 L 239.8,278.7 L 242.3,279.7 L 244.8,280.7 L 247.3,281.7 L 249.8,282.7 L 252.3,283.7 L 254.8,284.7 L 257.3,285.6 L 259.8,286.6 L 262.3,287.5 L 264.8,288.5 L 267.3,289.4 L 269.8,290.3 L 272.3,291.2 L 274.8,292.1 L 277.3,293.0 L 279.8,293.9 L 282.3,294.8 L 284.8,295.7 L 287.3,296.5 L 289.8,297.4 L 292.3,298.3 L 294.8,299.1 L 297.3,299.9 L 299.8,300.8 L 302.3,301.6 L 304.8,302.4 L 307.3,303.2 L 309.8,304.0 L 312.3,304.8 L 314.8,305.6 L 317.3,306.4 L 319.8,307.2 L 322.3,307.9 L 324.8,308.7 L 327.3,309.5 L 329.8,310.2 L 332.3,311.0 L 334.8,311.7 L 337.3,312.4 L 339.8,313.2 L 342.3,313.9 L 344.7,314.6 L 347.2,315.3 L 349.7,316.0 L 352.2,316.7 L 354.7,317.4 L 357.2,318.1 L 359.7,318.8 L 362.2,319.4 L 364.7,320.1 L 367.2,320.7 L 369.7,321.4 L 372.2,322.0 L 374.7,322.7 L 377.2,323.3 L 379.7,323.9 L 382.2,324.6 L 384.7,325.2 L 387.2,325.8 L 389.7,326.4 L 392.2,327.0 L 394.7,327.6 L 397.2,328.2 L 399.7,328.8 L 402.2,329.3 L 404.7,329.9 L 407.2,330.5 L 409.7,331.0 L 412.2,331.6 L 414.7,332.1 L 417.2,332.7 L 419.7,333.2 L 422.2,333.8 L 424.7,334.3 L 427.2,334.8 L 429.7,335.4 L 432.2,335.9 L 434.7,336.4 L 437.2,336.9 L 439.7,337.4 L 442.2,337.9 L 444.7,338.4 L 447.2,338.9 L 449.7,339.5 L 452.2,340.0 L 454.6,340.5 L 457.1,340.9 L 459.6,341.4 L 462.1,341.9 L 464.6,342.4 L 467.1,342.9 L 469.6,343.4 L 472.1,343.9 L 474.6,344.3 L 477.1,344.8 L 479.6,345.3 L 482.1,345.7 L 484.6,346.2 L 487.1,346.6 L 489.6,347.0 L 492.1,347.4 L 494.6,347.8 L 497.1,348.2 L 499.6,348.6 L 502.1,349.0 L 504.6,349.3 L 507.1,349.7 L 509.6,350.0 L 512.1,350.4 L 514.6,350.7 L 517.1,351.0 L 519.6,351.3 L 522.1,351.6 L 524.6,351.9 L 527.1,352.2 L 529.6,352.5 L 532.1,352.7 L 534.6,353.0 L 537.1,353.2 L 539.6,353.4 L 542.1,353.7 L 544.6,353.9 L 547.1,354.1 L 549.6,354.3 L 552.1,354.5 L 554.6,354.7 L 557.1,354.9 L 559.6,355.0 L 562.1,355.2 L 564.5,355.4 L 567.0,355.5 L 569.5,355.7 L 572.0,355.8 L 574.5,356.0 L 577.0,356.1 L 579.5,356.2 L 582.0,356.4 L 584.5,356.5 L 587.0,356.6 L 589.5,356.7 L 592.0,356.9 L 594.5,357.0 L 597.0,357.1 L 599.5,357.2 L 602.0,357.3 L 604.5,357.4 L 607.0,357.5 L 609.5,357.6 L 612.0,357.7 L 614.5,357.8 L 617.0,357.9" class="sig"/>
<path d="M 75.5,309.6 L 80.9,288.4 L 86.4,273.3 L 91.9,261.6 L 97.3,252.3 L 102.8,244.8 L 108.3,238.8 L 113.8,233.0 L 119.2,227.2 L 124.7,221.5 L 130.2,215.9 L 135.6,210.6 L 141.1,205.5 L 146.6,200.7 L 152.1,196.2 L 157.5,191.9 L 163.0,187.8 L 168.5,183.9 L 173.9,180.2 L 179.4,176.7 L 184.9,173.3 L 190.3,170.1 L 195.8,167.0 L 201.3,163.9 L 206.8,161.0 L 212.2,158.1 L 217.7,155.2 L 223.2,152.4 L 228.6,149.7 L 234.1,147.1 L 239.6,144.5 L 245.0,142.0 L 250.5,139.6 L 256.0,137.2 L 261.5,134.8 L 266.9,132.6 L 272.4,130.4 L 277.9,128.2 L 283.3,126.1 L 288.8,124.1 L 294.3,122.1 L 299.7,120.1 L 305.2,118.3 L 310.7,116.4 L 316.1,114.6 L 321.6,112.9 L 327.1,111.2 L 332.6,109.6 L 338.0,108.0 L 343.5,106.4 L 349.0,104.9 L 354.4,103.5 L 359.9,102.0 L 365.4,100.7 L 370.9,99.3 L 376.3,98.1 L 381.8,96.8 L 387.3,95.6 L 392.7,94.4 L 398.2,93.3 L 403.7,92.2 L 409.1,91.2 L 414.6,90.2 L 420.1,89.2 L 425.6,88.3 L 431.0,87.4 L 436.5,86.5 L 442.0,85.7 L 447.4,84.9 L 452.9,84.2 L 458.4,83.5 L 463.8,82.9 L 469.3,82.3 L 474.8,81.9 L 480.3,81.6 L 485.7,81.3 L 491.2,81.1 L 496.7,81.0 L 502.1,81.0 L 507.6,81.1 L 513.1,81.3 L 518.5,81.5 L 524.0,81.9 L 529.5,82.3 L 535.0,82.8 L 540.4,83.4 L 545.9,84.0 L 551.4,84.8 L 556.8,85.6 L 562.3,86.5 L 567.8,87.6 L 573.2,88.7 L 578.7,89.8 L 584.2,91.1 L 589.6,92.5 L 595.1,93.9 L 600.6,95.3 L 606.1,96.7 L 611.5,98.0 L 617.0,99.4" class="nt"/>
<path d="M 74.6,332.2 L 79.1,304.1 L 83.7,277.7 L 88.2,255.0 L 92.8,236.5 L 97.3,222.3 L 101.9,212.4 L 106.5,205.9 L 111.0,202.0 L 115.6,199.2 L 120.1,196.6 L 124.7,193.6 L 129.3,190.0 L 133.8,185.9 L 138.4,181.6 L 142.9,177.4 L 147.5,173.4 L 152.1,169.7 L 156.6,166.4 L 161.2,163.5 L 165.7,161.2 L 170.3,159.4 L 174.8,158.2 L 179.4,157.6 L 184.0,157.5 L 188.5,157.8 L 193.1,158.3 L 197.6,158.8 L 202.2,159.2 L 206.8,159.3 L 211.3,159.3 L 215.9,159.0 L 220.4,158.6 L 225.0,158.1 L 229.5,157.5 L 234.1,156.7 L 238.7,156.0 L 243.2,155.2 L 247.8,154.4 L 252.3,153.5 L 256.9,152.7 L 261.5,151.9 L 266.0,151.1 L 270.6,150.3 L 275.1,149.6 L 279.7,148.8 L 284.2,148.2 L 288.8,147.5 L 293.4,146.9 L 297.9,146.3 L 302.5,145.8 L 307.0,145.4 L 311.6,144.9 L 316.1,144.6 L 320.7,144.2 L 325.3,144.0 L 329.8,143.7 L 334.4,143.6 L 338.9,143.4 L 343.5,143.3 L 348.1,143.3 L 352.6,143.3 L 357.2,143.4 L 361.7,143.5 L 366.3,143.6 L 370.9,143.8 L 375.4,144.0 L 380.0,144.2 L 384.5,144.5 L 389.1,144.8 L 393.6,145.1 L 398.2,145.5 L 402.8,145.8 L 407.3,146.2 L 411.9,146.5 L 416.4,146.8 L 421.0,147.1 L 425.6,147.3 L 430.1,147.4 L 434.7,147.3 L 439.2,147.1 L 443.8,146.7 L 448.3,146.1 L 452.9,145.5 L 457.5,144.9 L 462.0,144.7 L 466.6,145.0 L 471.1,145.9 L 475.7,147.3 L 480.3,149.3 L 484.8,151.8 L 489.4,154.7 L 493.9,158.0 L 498.5,161.5 L 503.0,165.3 L 507.6,169.3 L 512.2,173.4 L 516.7,177.7 L 521.3,182.1 L 525.8,186.6 L 530.4,191.1 L 535.0,195.6 L 539.5,200.1 L 544.1,204.5 L 548.6,208.9 L 553.2,213.2 L 557.7,217.4 L 562.3,221.4 L 566.9,225.3 L 571.4,228.9 L 576.0,232.4 L 580.5,235.6 L 585.1,238.6 L 589.7,241.5 L 594.2,244.1 L 598.8,246.5 L 603.3,248.8 L 607.9,250.9 L 612.4,252.9 L 617.0,254.8" class="fw"/>
<line x1="73.00" y1="319.56" x2="73.00" y2="328.97" class="err"/>
<line x1="70.00" y1="319.56" x2="76.00" y2="319.56" class="err"/>
<line x1="70.00" y1="328.97" x2="76.00" y2="328.97" class="err"/>
<circle cx="73.00" cy="324.27" r="2.5" class="obs"/>
<line x1="74.87" y1="302.22" x2="74.87" y2="310.40" class="err"/>
<line x1="71.87" y1="302.22" x2="77.87" y2="302.22" class="err"/>
<line x1="71.87" y1="310.40" x2="77.87" y2="310.40" class="err"/>
<circle cx="74.87" cy="306.31" r="2.5" class="obs"/>
<line x1="76.75" y1="291.31" x2="76.75" y2="295.04" class="err"/>
<line x1="73.75" y1="291.31" x2="79.75" y2="291.31" class="err"/>
<line x1="73.75" y1="295.04" x2="79.75" y2="295.04" class="err"/>
<circle cx="76.75" cy="293.18" r="2.5" class="obs"/>
<line x1="78.62" y1="276.47" x2="78.62" y2="280.62" class="err"/>
<line x1="75.62" y1="276.47" x2="81.62" y2="276.47" class="err"/>
<line x1="75.62" y1="280.62" x2="81.62" y2="280.62" class="err"/>
<circle cx="78.62" cy="278.55" r="2.5" class="obs"/>
<line x1="80.49" y1="258.88" x2="80.49" y2="268.62" class="err"/>
<line x1="77.49" y1="258.88" x2="83.49" y2="258.88" class="err"/>
<line x1="77.49" y1="268.62" x2="83.49" y2="268.62" class="err"/>
<circle cx="80.49" cy="263.75" r="2.5" class="obs"/>
<line x1="82.37" y1="253.52" x2="82.37" y2="257.68" class="err"/>
<line x1="79.37" y1="253.52" x2="85.37" y2="253.52" class="err"/>
<line x1="79.37" y1="257.68" x2="85.37" y2="257.68" class="err"/>
<circle cx="82.37" cy="255.60" r="2.5" class="obs"/>
<line x1="84.24" y1="243.71" x2="84.24" y2="247.87" class="err"/>
<line x1="81.24" y1="243.71" x2="87.24" y2="243.71" class="err"/>
<line x1="81.24" y1="247.87" x2="87.24" y2="247.87" class="err"/>
<circle cx="84.24" cy="245.79" r="2.5" class="obs"/>
<line x1="86.11" y1="238.31" x2="86.11" y2="243.63" class="err"/>
<line x1="83.11" y1="238.31" x2="89.11" y2="238.31" class="err"/>
<line x1="83.11" y1="243.63" x2="89.11" y2="243.63" class="err"/>
<circle cx="86.11" cy="240.97" r="2.5" class="obs"/>
<line x1="87.99" y1="239.26" x2="87.99" y2="242.68" class="err"/>
<line x1="84.99" y1="239.26" x2="90.99" y2="239.26" class="err"/>
<line x1="84.99" y1="242.68" x2="90.99" y2="242.68" class="err"/>
<circle cx="87.99" cy="240.97" r="2.5" class="obs"/>
<line x1="89.86" y1="235.78" x2="89.86" y2="239.51" class="err"/>
<line x1="86.86" y1="235.78" x2="92.86" y2="235.78" class="err"/>
<line x1="86.86" y1="239.51" x2="92.86" y2="239.51" class="err"/>
<circle cx="89.86" cy="237.65" r="2.5" class="obs"/>
<line x1="91.74" y1="231.83" x2="91.74" y2="237.15" class="err"/>
<line x1="88.74" y1="231.83" x2="94.74" y2="231.83" class="err"/>
<line x1="88.74" y1="237.15" x2="94.74" y2="237.15" class="err"/>
<circle cx="91.74" cy="234.49" r="2.5" class="obs"/>
<line x1="93.80" y1="223.35" x2="93.80" y2="229.33" class="err"/>
<line x1="90.80" y1="223.35" x2="96.80" y2="223.35" class="err"/>
<line x1="90.80" y1="229.33" x2="96.80" y2="229.33" class="err"/>
<circle cx="93.80" cy="226.34" r="2.5" class="obs"/>
<line x1="95.48" y1="218.69" x2="95.48" y2="224.01" class="err"/>
<line x1="92.48" y1="218.69" x2="98.48" y2="218.69" class="err"/>
<line x1="92.48" y1="224.01" x2="98.48" y2="224.01" class="err"/>
<circle cx="95.48" cy="221.35" r="2.5" class="obs"/>
<line x1="97.54" y1="217.35" x2="97.54" y2="222.03" class="err"/>
<line x1="94.54" y1="217.35" x2="100.54" y2="217.35" class="err"/>
<line x1="94.54" y1="222.03" x2="100.54" y2="222.03" class="err"/>
<circle cx="97.54" cy="219.69" r="2.5" class="obs"/>
<line x1="99.42" y1="212.52" x2="99.42" y2="217.21" class="err"/>
<line x1="96.42" y1="212.52" x2="102.42" y2="212.52" class="err"/>
<line x1="96.42" y1="217.21" x2="102.42" y2="217.21" class="err"/>
<circle cx="99.42" cy="214.87" r="2.5" class="obs"/>
<line x1="101.29" y1="207.22" x2="101.29" y2="212.54" class="err"/>
<line x1="98.29" y1="207.22" x2="104.29" y2="207.22" class="err"/>
<line x1="98.29" y1="212.54" x2="104.29" y2="212.54" class="err"/>
<circle cx="101.29" cy="209.88" r="2.5" class="obs"/>
<line x1="103.17" y1="207.54" x2="103.17" y2="212.23" class="err"/>
<line x1="100.17" y1="207.54" x2="106.17" y2="207.54" class="err"/>
<line x1="100.17" y1="212.23" x2="106.17" y2="212.23" class="err"/>
<circle cx="103.17" cy="209.88" r="2.5" class="obs"/>
<line x1="105.04" y1="204.64" x2="105.04" y2="208.80" class="err"/>
<line x1="102.04" y1="204.64" x2="108.04" y2="204.64" class="err"/>
<line x1="102.04" y1="208.80" x2="108.04" y2="208.80" class="err"/>
<circle cx="105.04" cy="206.72" r="2.5" class="obs"/>
<line x1="106.91" y1="200.74" x2="106.91" y2="206.06" class="err"/>
<line x1="103.91" y1="200.74" x2="109.91" y2="200.74" class="err"/>
<line x1="103.91" y1="206.06" x2="109.91" y2="206.06" class="err"/>
<circle cx="106.91" cy="203.40" r="2.5" class="obs"/>
<line x1="108.98" y1="196.88" x2="108.98" y2="203.60" class="err"/>
<line x1="105.98" y1="196.88" x2="111.98" y2="196.88" class="err"/>
<line x1="105.98" y1="203.60" x2="111.98" y2="203.60" class="err"/>
<circle cx="108.98" cy="200.24" r="2.5" class="obs"/>
<line x1="110.85" y1="198.38" x2="110.85" y2="205.09" class="err"/>
<line x1="107.85" y1="198.38" x2="113.85" y2="198.38" class="err"/>
<line x1="107.85" y1="205.09" x2="113.85" y2="205.09" class="err"/>
<circle cx="110.85" cy="201.73" r="2.5" class="obs"/>
<line x1="112.72" y1="199.07" x2="112.72" y2="204.39" class="err"/>
<line x1="109.72" y1="199.07" x2="115.72" y2="199.07" class="err"/>
<line x1="109.72" y1="204.39" x2="115.72" y2="204.39" class="err"/>
<circle cx="112.72" cy="201.73" r="2.5" class="obs"/>
<line x1="114.41" y1="200.07" x2="114.41" y2="203.40" class="err"/>
<line x1="111.41" y1="200.07" x2="117.41" y2="200.07" class="err"/>
<line x1="111.41" y1="203.40" x2="117.41" y2="203.40" class="err"/>
<circle cx="114.41" cy="201.73" r="2.5" class="obs"/>
<line x1="116.28" y1="201.54" x2="116.28" y2="205.26" class="err"/>
<line x1="113.28" y1="201.54" x2="119.28" y2="201.54" class="err"/>
<line x1="113.28" y1="205.26" x2="119.28" y2="205.26" class="err"/>
<circle cx="116.28" cy="203.40" r="2.5" class="obs"/>
<line x1="118.16" y1="199.39" x2="118.16" y2="204.08" class="err"/>
<line x1="115.16" y1="199.39" x2="121.16" y2="199.39" class="err"/>
<line x1="115.16" y1="204.08" x2="121.16" y2="204.08" class="err"/>
<circle cx="118.16" cy="201.73" r="2.5" class="obs"/>
<line x1="120.22" y1="199.87" x2="120.22" y2="203.60" class="err"/>
<line x1="117.22" y1="199.87" x2="123.22" y2="199.87" class="err"/>
<line x1="117.22" y1="203.60" x2="123.22" y2="203.60" class="err"/>
<circle cx="120.22" cy="201.73" r="2.5" class="obs"/>
<line x1="122.09" y1="199.07" x2="122.09" y2="204.39" class="err"/>
<line x1="119.09" y1="199.07" x2="125.09" y2="199.07" class="err"/>
<line x1="119.09" y1="204.39" x2="125.09" y2="204.39" class="err"/>
<circle cx="122.09" cy="201.73" r="2.5" class="obs"/>
<line x1="123.97" y1="195.77" x2="123.97" y2="204.71" class="err"/>
<line x1="120.97" y1="195.77" x2="126.97" y2="195.77" class="err"/>
<line x1="120.97" y1="204.71" x2="126.97" y2="204.71" class="err"/>
<circle cx="123.97" cy="200.24" r="2.5" class="obs"/>
<line x1="125.84" y1="194.27" x2="125.84" y2="203.21" class="err"/>
<line x1="122.84" y1="194.27" x2="128.84" y2="194.27" class="err"/>
<line x1="122.84" y1="203.21" x2="128.84" y2="203.21" class="err"/>
<circle cx="125.84" cy="198.74" r="2.5" class="obs"/>
<line x1="127.71" y1="190.16" x2="127.71" y2="200.67" class="err"/>
<line x1="124.71" y1="190.16" x2="130.71" y2="190.16" class="err"/>
<line x1="124.71" y1="200.67" x2="130.71" y2="200.67" class="err"/>
<circle cx="127.71" cy="195.42" r="2.5" class="obs"/>
<line x1="129.77" y1="191.43" x2="129.77" y2="202.73" class="err"/>
<line x1="126.77" y1="191.43" x2="132.77" y2="191.43" class="err"/>
<line x1="126.77" y1="202.73" x2="132.77" y2="202.73" class="err"/>
<circle cx="129.77" cy="197.08" r="2.5" class="obs"/>
<line x1="131.65" y1="191.43" x2="131.65" y2="202.73" class="err"/>
<line x1="128.65" y1="191.43" x2="134.65" y2="191.43" class="err"/>
<line x1="128.65" y1="202.73" x2="134.65" y2="202.73" class="err"/>
<circle cx="131.65" cy="197.08" r="2.5" class="obs"/>
<line x1="133.52" y1="188.88" x2="133.52" y2="198.63" class="err"/>
<line x1="130.52" y1="188.88" x2="136.52" y2="188.88" class="err"/>
<line x1="130.52" y1="198.63" x2="136.52" y2="198.63" class="err"/>
<circle cx="133.52" cy="193.75" r="2.5" class="obs"/>
<line x1="135.40" y1="183.01" x2="135.40" y2="191.19" class="err"/>
<line x1="132.40" y1="183.01" x2="138.40" y2="183.01" class="err"/>
<line x1="132.40" y1="191.19" x2="138.40" y2="191.19" class="err"/>
<circle cx="135.40" cy="187.10" r="2.5" class="obs"/>
<line x1="137.27" y1="178.03" x2="137.27" y2="186.21" class="err"/>
<line x1="134.27" y1="178.03" x2="140.27" y2="178.03" class="err"/>
<line x1="134.27" y1="186.21" x2="140.27" y2="186.21" class="err"/>
<circle cx="137.27" cy="182.12" r="2.5" class="obs"/>
<line x1="139.14" y1="173.14" x2="139.14" y2="184.44" class="err"/>
<line x1="136.14" y1="173.14" x2="142.14" y2="173.14" class="err"/>
<line x1="136.14" y1="184.44" x2="142.14" y2="184.44" class="err"/>
<circle cx="139.14" cy="178.79" r="2.5" class="obs"/>
<line x1="141.02" y1="166.99" x2="141.02" y2="183.95" class="err"/>
<line x1="138.02" y1="166.99" x2="144.02" y2="166.99" class="err"/>
<line x1="138.02" y1="183.95" x2="144.02" y2="183.95" class="err"/>
<circle cx="141.02" cy="175.47" r="2.5" class="obs"/>
<line x1="143.08" y1="160.34" x2="143.08" y2="177.29" class="err"/>
<line x1="140.08" y1="160.34" x2="146.08" y2="160.34" class="err"/>
<line x1="140.08" y1="177.29" x2="146.08" y2="177.29" class="err"/>
<circle cx="143.08" cy="168.82" r="2.5" class="obs"/>
<line x1="144.76" y1="160.75" x2="144.76" y2="176.88" class="err"/>
<line x1="141.76" y1="160.75" x2="147.76" y2="160.75" class="err"/>
<line x1="141.76" y1="176.88" x2="147.76" y2="176.88" class="err"/>
<circle cx="144.76" cy="168.82" r="2.5" class="obs"/>
<line x1="153.76" y1="159.90" x2="153.76" y2="177.73" class="err"/>
<line x1="150.76" y1="159.90" x2="156.76" y2="159.90" class="err"/>
<line x1="150.76" y1="177.73" x2="156.76" y2="177.73" class="err"/>
<circle cx="153.76" cy="168.82" r="2.5" class="obs"/>
<line x1="163.13" y1="159.56" x2="163.13" y2="168.10" class="err"/>
<line x1="160.13" y1="159.56" x2="166.13" y2="159.56" class="err"/>
<line x1="160.13" y1="168.10" x2="166.13" y2="168.10" class="err"/>
<circle cx="163.13" cy="163.83" r="2.5" class="obs"/>
<line x1="172.50" y1="158.47" x2="172.50" y2="159.21" class="err"/>
<line x1="169.50" y1="158.47" x2="175.50" y2="158.47" class="err"/>
<line x1="169.50" y1="159.21" x2="175.50" y2="159.21" class="err"/>
<circle cx="172.50" cy="158.84" r="2.5" class="obs"/>
<line x1="181.68" y1="155.71" x2="181.68" y2="158.64" class="err"/>
<line x1="178.68" y1="155.71" x2="184.68" y2="155.71" class="err"/>
<line x1="178.68" y1="158.64" x2="184.68" y2="158.64" class="err"/>
<circle cx="181.68" cy="157.18" r="2.5" class="obs"/>
<line x1="191.05" y1="154.77" x2="191.05" y2="156.26" class="err"/>
<line x1="188.05" y1="154.77" x2="194.05" y2="154.77" class="err"/>
<line x1="188.05" y1="156.26" x2="194.05" y2="156.26" class="err"/>
<circle cx="191.05" cy="155.52" r="2.5" class="obs"/>
<line x1="200.42" y1="154.60" x2="200.42" y2="156.43" class="err"/>
<line x1="197.42" y1="154.60" x2="203.42" y2="154.60" class="err"/>
<line x1="197.42" y1="156.43" x2="203.42" y2="156.43" class="err"/>
<circle cx="200.42" cy="155.52" r="2.5" class="obs"/>
<line x1="209.60" y1="154.77" x2="209.60" y2="156.26" class="err"/>
<line x1="206.60" y1="154.77" x2="212.60" y2="154.77" class="err"/>
<line x1="206.60" y1="156.26" x2="212.60" y2="156.26" class="err"/>
<circle cx="209.60" cy="155.52" r="2.5" class="obs"/>
<line x1="218.97" y1="155.12" x2="218.97" y2="155.91" class="err"/>
<line x1="215.97" y1="155.12" x2="221.97" y2="155.12" class="err"/>
<line x1="215.97" y1="155.91" x2="221.97" y2="155.91" class="err"/>
<circle cx="218.97" cy="155.52" r="2.5" class="obs"/>
<line x1="228.34" y1="151.44" x2="228.34" y2="156.26" class="err"/>
<line x1="225.34" y1="151.44" x2="231.34" y2="151.44" class="err"/>
<line x1="225.34" y1="156.26" x2="231.34" y2="156.26" class="err"/>
<circle cx="228.34" cy="153.85" r="2.5" class="obs"/>
<line x1="237.52" y1="150.33" x2="237.52" y2="154.05" class="err"/>
<line x1="234.52" y1="150.33" x2="240.52" y2="150.33" class="err"/>
<line x1="234.52" y1="154.05" x2="240.52" y2="154.05" class="err"/>
<circle cx="237.52" cy="152.19" r="2.5" class="obs"/>
<line x1="246.89" y1="149.40" x2="246.89" y2="154.98" class="err"/>
<line x1="243.89" y1="149.40" x2="249.89" y2="149.40" class="err"/>
<line x1="243.89" y1="154.98" x2="249.89" y2="154.98" class="err"/>
<circle cx="246.89" cy="152.19" r="2.5" class="obs"/>
<line x1="256.26" y1="149.60" x2="256.26" y2="158.11" class="err"/>
<line x1="253.26" y1="149.60" x2="259.26" y2="149.60" class="err"/>
<line x1="253.26" y1="158.11" x2="259.26" y2="158.11" class="err"/>
<circle cx="256.26" cy="153.85" r="2.5" class="obs"/>
<line x1="265.44" y1="151.79" x2="265.44" y2="155.91" class="err"/>
<line x1="262.44" y1="151.79" x2="268.44" y2="151.79" class="err"/>
<line x1="262.44" y1="155.91" x2="268.44" y2="155.91" class="err"/>
<circle cx="265.44" cy="153.85" r="2.5" class="obs"/>
<line x1="274.81" y1="151.84" x2="274.81" y2="152.54" class="err"/>
<line x1="271.81" y1="151.84" x2="277.81" y2="151.84" class="err"/>
<line x1="271.81" y1="152.54" x2="277.81" y2="152.54" class="err"/>
<circle cx="274.81" cy="152.19" r="2.5" class="obs"/>
<line x1="284.18" y1="146.99" x2="284.18" y2="150.74" class="err"/>
<line x1="281.18" y1="146.99" x2="287.18" y2="146.99" class="err"/>
<line x1="281.18" y1="150.74" x2="287.18" y2="150.74" class="err"/>
<circle cx="284.18" cy="148.86" r="2.5" class="obs"/>
<line x1="293.36" y1="145.16" x2="293.36" y2="152.57" class="err"/>
<line x1="290.36" y1="145.16" x2="296.36" y2="145.16" class="err"/>
<line x1="290.36" y1="152.57" x2="296.36" y2="152.57" class="err"/>
<circle cx="293.36" cy="148.86" r="2.5" class="obs"/>
<line x1="302.73" y1="141.08" x2="302.73" y2="150.00" class="err"/>
<line x1="299.73" y1="141.08" x2="305.73" y2="141.08" class="err"/>
<line x1="299.73" y1="150.00" x2="305.73" y2="150.00" class="err"/>
<circle cx="302.73" cy="145.54" r="2.5" class="obs"/>
<line x1="312.10" y1="139.42" x2="312.10" y2="148.33" class="err"/>
<line x1="309.10" y1="139.42" x2="315.10" y2="139.42" class="err"/>
<line x1="309.10" y1="148.33" x2="315.10" y2="148.33" class="err"/>
<circle cx="312.10" cy="143.88" r="2.5" class="obs"/>
<line x1="321.46" y1="138.27" x2="321.46" y2="149.48" class="err"/>
<line x1="318.46" y1="138.27" x2="324.46" y2="138.27" class="err"/>
<line x1="318.46" y1="149.48" x2="324.46" y2="149.48" class="err"/>
<circle cx="321.46" cy="143.88" r="2.5" class="obs"/>
<line x1="330.65" y1="137.54" x2="330.65" y2="150.21" class="err"/>
<line x1="327.65" y1="137.54" x2="333.65" y2="137.54" class="err"/>
<line x1="327.65" y1="150.21" x2="333.65" y2="150.21" class="err"/>
<circle cx="330.65" cy="143.88" r="2.5" class="obs"/>
<line x1="340.01" y1="139.62" x2="340.01" y2="148.13" class="err"/>
<line x1="337.01" y1="139.62" x2="343.01" y2="139.62" class="err"/>
<line x1="337.01" y1="148.13" x2="343.01" y2="148.13" class="err"/>
<circle cx="340.01" cy="143.88" r="2.5" class="obs"/>
<line x1="349.38" y1="141.28" x2="349.38" y2="143.15" class="err"/>
<line x1="346.38" y1="141.28" x2="352.38" y2="141.28" class="err"/>
<line x1="346.38" y1="143.15" x2="352.38" y2="143.15" class="err"/>
<circle cx="349.38" cy="142.21" r="2.5" class="obs"/>
<line x1="358.57" y1="140.90" x2="358.57" y2="143.53" class="err"/>
<line x1="355.57" y1="140.90" x2="361.57" y2="140.90" class="err"/>
<line x1="355.57" y1="143.53" x2="361.57" y2="143.53" class="err"/>
<circle cx="358.57" cy="142.21" r="2.5" class="obs"/>
<line x1="367.93" y1="142.76" x2="367.93" y2="144.99" class="err"/>
<line x1="364.93" y1="142.76" x2="370.93" y2="142.76" class="err"/>
<line x1="364.93" y1="144.99" x2="370.93" y2="144.99" class="err"/>
<circle cx="367.93" cy="143.88" r="2.5" class="obs"/>
<line x1="377.30" y1="138.31" x2="377.30" y2="146.12" class="err"/>
<line x1="374.30" y1="138.31" x2="380.30" y2="138.31" class="err"/>
<line x1="374.30" y1="146.12" x2="380.30" y2="146.12" class="err"/>
<circle cx="377.30" cy="142.21" r="2.5" class="obs"/>
<line x1="386.49" y1="135.35" x2="386.49" y2="149.08" class="err"/>
<line x1="383.49" y1="135.35" x2="389.49" y2="135.35" class="err"/>
<line x1="383.49" y1="149.08" x2="389.49" y2="149.08" class="err"/>
<circle cx="386.49" cy="142.21" r="2.5" class="obs"/>
<line x1="395.85" y1="132.39" x2="395.85" y2="145.39" class="err"/>
<line x1="392.85" y1="132.39" x2="398.85" y2="132.39" class="err"/>
<line x1="392.85" y1="145.39" x2="398.85" y2="145.39" class="err"/>
<circle cx="395.85" cy="138.89" r="2.5" class="obs"/>
<line x1="405.22" y1="128.28" x2="405.22" y2="149.50" class="err"/>
<line x1="402.22" y1="128.28" x2="408.22" y2="128.28" class="err"/>
<line x1="402.22" y1="149.50" x2="408.22" y2="149.50" class="err"/>
<circle cx="405.22" cy="138.89" r="2.5" class="obs"/>
<line x1="414.40" y1="126.60" x2="414.40" y2="154.50" class="err"/>
<line x1="411.40" y1="126.60" x2="417.40" y2="126.60" class="err"/>
<line x1="411.40" y1="154.50" x2="417.40" y2="154.50" class="err"/>
<circle cx="414.40" cy="140.55" r="2.5" class="obs"/>
<line x1="423.77" y1="130.86" x2="423.77" y2="156.89" class="err"/>
<line x1="420.77" y1="130.86" x2="426.77" y2="130.86" class="err"/>
<line x1="420.77" y1="156.89" x2="426.77" y2="156.89" class="err"/>
<circle cx="423.77" cy="143.88" r="2.5" class="obs"/>
<line x1="433.14" y1="131.81" x2="433.14" y2="152.62" class="err"/>
<line x1="430.14" y1="131.81" x2="436.14" y2="131.81" class="err"/>
<line x1="430.14" y1="152.62" x2="436.14" y2="152.62" class="err"/>
<circle cx="433.14" cy="142.21" r="2.5" class="obs"/>
<line x1="442.32" y1="129.58" x2="442.32" y2="148.20" class="err"/>
<line x1="439.32" y1="129.58" x2="445.32" y2="129.58" class="err"/>
<line x1="439.32" y1="148.20" x2="445.32" y2="148.20" class="err"/>
<circle cx="442.32" cy="138.89" r="2.5" class="obs"/>
<line x1="451.69" y1="131.84" x2="451.69" y2="149.26" class="err"/>
<line x1="448.69" y1="131.84" x2="454.69" y2="131.84" class="err"/>
<line x1="448.69" y1="149.26" x2="454.69" y2="149.26" class="err"/>
<circle cx="451.69" cy="140.55" r="2.5" class="obs"/>
<line x1="461.06" y1="137.03" x2="461.06" y2="147.40" class="err"/>
<line x1="458.06" y1="137.03" x2="464.06" y2="137.03" class="err"/>
<line x1="458.06" y1="147.40" x2="464.06" y2="147.40" class="err"/>
<circle cx="461.06" cy="142.21" r="2.5" class="obs"/>
<g class="legend">
<line x1="82" y1="69" x2="106" y2="69" class="fw"/>
<text x="112" y="73" class="lbl-l">framework fit</text>
<line x1="82" y1="87" x2="106" y2="87" class="nt"/>
<text x="112" y="91" class="lbl-l">Newtonian (no halo)</text>
<circle cx="94" cy="105" r="2.5" class="obs"/>
<text x="112" y="109" class="lbl">observed V±err</text>
</g>
<g class="legend">
<line x1="442" y1="69" x2="466" y2="69" class="rho"/>
<text x="472" y="73" class="lbl-r">ρ(r) raw</text>
<line x1="442" y1="87" x2="466" y2="87" class="sig"/>
<text x="472" y="91" class="lbl-s">Σ(r) cumulative</text>
<text x="442" y="113" class="lbl-r">ρ peak: 294 M☉/pc²</text>
</g>
<rect x="705" y="55" width="170" height="170" class="preview-bg"/>
<defs><radialGradient id="g_NGC2403" cx="0.5" cy="0.5" r="0.5">
  <stop offset="0.0000" stop-color="rgb(117,117,117)"/>
  <stop offset="0.0313" stop-color="rgb(102,102,102)"/>
  <stop offset="0.0625" stop-color="rgb(87,87,87)"/>
  <stop offset="0.0938" stop-color="rgb(83,83,83)"/>
  <stop offset="0.1250" stop-color="rgb(81,81,81)"/>
  <stop offset="0.1563" stop-color="rgb(79,79,79)"/>
  <stop offset="0.1875" stop-color="rgb(77,77,77)"/>
  <stop offset="0.2188" stop-color="rgb(74,74,74)"/>
  <stop offset="0.2500" stop-color="rgb(73,73,73)"/>
  <stop offset="0.2813" stop-color="rgb(72,72,72)"/>
  <stop offset="0.3125" stop-color="rgb(71,71,71)"/>
  <stop offset="0.3438" stop-color="rgb(69,69,69)"/>
  <stop offset="0.3750" stop-color="rgb(68,68,68)"/>
  <stop offset="0.4063" stop-color="rgb(67,67,67)"/>
  <stop offset="0.4375" stop-color="rgb(66,66,66)"/>
  <stop offset="0.4688" stop-color="rgb(65,65,65)"/>
  <stop offset="0.5000" stop-color="rgb(64,64,64)"/>
  <stop offset="0.5313" stop-color="rgb(62,62,62)"/>
  <stop offset="0.5625" stop-color="rgb(59,59,59)"/>
  <stop offset="0.5938" stop-color="rgb(56,56,56)"/>
  <stop offset="0.6250" stop-color="rgb(54,54,54)"/>
  <stop offset="0.6563" stop-color="rgb(51,51,51)"/>
  <stop offset="0.6875" stop-color="rgb(49,49,49)"/>
  <stop offset="0.7188" stop-color="rgb(46,46,46)"/>
  <stop offset="0.7500" stop-color="rgb(43,43,43)"/>
  <stop offset="0.7813" stop-color="rgb(37,37,37)"/>
  <stop offset="0.8125" stop-color="rgb(32,32,32)"/>
  <stop offset="0.8438" stop-color="rgb(27,27,27)"/>
  <stop offset="0.8750" stop-color="rgb(21,21,21)"/>
  <stop offset="0.9063" stop-color="rgb(16,16,16)"/>
  <stop offset="0.9375" stop-color="rgb(11,11,11)"/>
  <stop offset="0.9688" stop-color="rgb(5,5,5)"/>
  <stop offset="1.0000" stop-color="rgb(0,0,0)"/>
</radialGradient></defs>
<circle cx="790" cy="140" r="81" fill="url(#g_NGC2403)"/>
<text x="790" y="49" text-anchor="middle" class="preview-lbl">face-on luminance from ρ(r)</text>
<text x="790" y="239" text-anchor="middle" class="preview-lbl">edge at r = 27.8 kpc</text>
</svg>