<svg xmlns="http://www.w3.org/2000/svg" viewBox="0 0 960 450" width="960" height="450" font-family="sans-serif" font-size="12">
<style>
  .ax { stroke: #333; stroke-width: 1; fill: none; }
  .grid { stroke: #ddd; stroke-width: 0.5; fill: none; }
  .lbl { fill: #333; }
  .lbl-l { fill: #0066cc; }
  .lbl-r { fill: #b03030; }
  .obs { fill: #222; }
  .err { stroke: #555; stroke-width: 0.8; fill: none; }
  .fw { stroke: #0066cc; stroke-width: 2.2; fill: none; }
  .nt { stroke: #cc6600; stroke-width: 1.6; fill: none; stroke-dasharray: 5,3; }
  .mond { stroke: #7b2cbf; stroke-width: 1.8; fill: none; stroke-dasharray: 7,3; }
  .lbl-p { fill: #cc7000; }
  .lbl-m { fill: #7b2cbf; }
  .rho { stroke: #b03030; stroke-width: 2.0; fill: none; }
  .phot { stroke: #cc7000; stroke-width: 1.8; fill: none; }
  .mbar { stroke: #8e44ad; stroke-width: 1.8; fill: none; opacity: 0.9; }
  .mph { stroke: #c77dff; stroke-width: 1.6; fill: none; stroke-dasharray: 4,3; opacity: 0.95; }
  .remap-x { stroke: #cc2222; stroke-width: 1.5; fill: none; }
  .remap-link { stroke: #cc2222; stroke-width: 0.8; stroke-dasharray: 3,3; fill: none; opacity: 0.7; }
  .title { fill: #111; font-size: 16px; font-weight: 600; }
  .subtitle { fill: #555; font-size: 11px; }
  .preview-bg { fill: #000; }
  .preview-lbl { fill: #888; font-size: 10px; }
  .legend { font-size: 11px; }
</style>
<text x="378.5" y="22" text-anchor="middle" class="title">NGC2955</text>
<text x="378.5" y="38" text-anchor="middle" class="subtitle">rMax=35.4 kpc, N=24, FW=10.4 km/s, 4.6%, 1.92σ, MOND=20.8 km/s, 8.7%, 2.82σ, amp=1372</text>
<line x1="70" y1="395.0" x2="687" y2="395.0" class="grid"/>
<text x="64" y="399.0" text-anchor="end" class="lbl-l">0</text>
<line x1="70" y1="327.0" x2="687" y2="327.0" class="grid"/>
<text x="64" y="331.0" text-anchor="end" class="lbl-l">88</text>
<line x1="70" y1="259.0" x2="687" y2="259.0" class="grid"/>
<text x="64" y="263.0" text-anchor="end" class="lbl-l">175</text>
<line x1="70" y1="191.0" x2="687" y2="191.0" class="grid"/>
<text x="64" y="195.0" text-anchor="end" class="lbl-l">263</text>
<line x1="70" y1="123.0" x2="687" y2="123.0" class="grid"/>
<text x="64" y="127.0" text-anchor="end" class="lbl-l">351</text>
<line x1="70" y1="55.0" x2="687" y2="55.0" class="grid"/>
<text x="64" y="59.0" text-anchor="end" class="lbl-l">438</text>
<text x="693" y="399.0" text-anchor="start" class="lbl-r">0.0</text>
<text x="693" y="353.7" text-anchor="start" class="lbl-r">0.2</text>
<text x="693" y="308.3" text-anchor="start" class="lbl-r">0.4</text>
<text x="693" y="263.0" text-anchor="start" class="lbl-r">0.6</text>
<text x="693" y="217.7" text-anchor="start" class="lbl-r">0.8</text>
<text x="693" y="172.3" text-anchor="start" class="lbl-r">1.0</text>
<line x1="70.0" y1="55" x2="70.0" y2="395" class="grid"/>
<text x="70.0" y="411" text-anchor="middle" class="lbl">0.0</text>
<line x1="172.8" y1="55" x2="172.8" y2="395" class="grid"/>
<text x="172.8" y="411" text-anchor="middle" class="lbl">6.4</text>
<line x1="275.7" y1="55" x2="275.7" y2="395" class="grid"/>
<text x="275.7" y="411" text-anchor="middle" class="lbl">12.8</text>
<line x1="378.5" y1="55" x2="378.5" y2="395" class="grid"/>
<text x="378.5" y="411" text-anchor="middle" class="lbl">19.2</text>
<line x1="481.3" y1="55" x2="481.3" y2="395" class="grid"/>
<text x="481.3" y="411" text-anchor="middle" class="lbl">25.6</text>
<line x1="584.2" y1="55" x2="584.2" y2="395" class="grid"/>
<text x="584.2" y="411" text-anchor="middle" class="lbl">32.0</text>
<line x1="687.0" y1="55" x2="687.0" y2="395" class="grid"/>
<text x="687.0" y="411" text-anchor="middle" class="lbl">38.4</text>
<text x="378.5" y="438" text-anchor="middle" class="lbl">radius (kpc)</text>
<text x="16" y="225" text-anchor="middle" class="lbl-l" transform="rotate(-90, 16, 225)">velocity (km/s)</text>
<text x="724" y="225" text-anchor="middle" class="lbl-r" transform="rotate(-90, 724, 225)">profiles (normalized to peak)</text>
<rect x="70" y="55" width="617" height="340" class="ax"/>
<path d="M 70.0,168.3 L 72.8,190.4 L 75.6,212.6 L 78.5,234.7 L 81.3,256.8 L 84.1,278.9 L 86.9,301.0 L 89.7,311.9 L 92.5,313.0 L 95.4,314.1 L 98.2,315.3 L 101.0,316.4 L 103.8,317.5 L 106.6,318.6 L 109.4,319.7 L 112.3,320.8 L 115.1,322.0 L 117.9,323.1 L 120.7,324.2 L 123.5,325.3 L 126.3,326.4 L 129.2,327.5 L 132.0,328.7 L 134.8,329.8 L 137.6,330.9 L 140.4,332.0 L 143.3,333.1 L 146.1,334.2 L 148.9,335.3 L 151.7,336.5 L 154.5,337.6 L 157.3,338.7 L 160.2,339.2 L 163.0,339.4 L 165.8,339.7 L 168.6,340.0 L 171.4,340.3 L 174.2,340.6 L 177.1,340.9 L 179.9,341.1 L 182.7,341.4 L 185.5,341.7 L 188.3,342.0 L 191.1,342.3 L 194.0,342.6 L 196.8,342.8 L 199.6,343.1 L 202.4,343.4 L 205.2,343.7 L 208.1,344.0 L 210.9,344.3 L 213.7,344.5 L 216.5,344.8 L 219.3,345.1 L 222.1,345.4 L 225.0,345.7 L 227.8,346.0 L 230.6,346.2 L 233.4,346.5 L 236.2,346.8 L 239.0,347.1 L 241.9,347.4 L 244.7,347.6 L 247.5,347.9 L 250.3,348.1 L 253.1,348.4 L 255.9,348.6 L 258.8,348.8 L 261.6,349.0 L 264.4,349.3 L 267.2,349.5 L 270.0,349.7 L 272.8,349.9 L 275.7,350.2 L 278.5,350.4 L 281.3,350.6 L 284.1,350.8 L 286.9,351.1 L 289.8,351.3 L 292.6,351.5 L 295.4,351.7 L 298.2,352.0 L 301.0,352.2 L 303.8,352.4 L 306.7,352.6 L 309.5,352.9 L 312.3,353.1 L 315.1,353.3 L 317.9,353.5 L 320.7,353.8 L 323.6,354.0 L 326.4,354.2 L 329.2,354.4 L 332.0,354.6 L 334.8,354.9 L 337.6,355.1 L 340.5,355.3 L 343.3,355.5 L 346.1,355.8 L 348.9,356.0 L 351.7,356.2 L 354.6,356.4 L 357.4,356.7 L 360.2,356.9 L 363.0,357.1 L 365.8,357.3 L 368.6,357.6 L 371.5,357.8 L 374.3,358.0 L 377.1,358.2 L 379.9,358.5 L 382.7,358.7 L 385.5,358.9 L 388.4,359.1 L 391.2,359.4 L 394.0,359.6 L 396.8,359.8 L 399.6,360.0 L 402.4,360.3 L 405.3,360.5 L 408.1,360.7 L 410.9,360.9 L 413.7,361.2 L 416.5,361.4 L 419.4,361.6 L 422.2,361.8 L 425.0,362.0 L 427.8,362.3 L 430.6,362.5 L 433.4,362.7 L 436.3,362.9 L 439.1,363.2 L 441.9,363.4 L 444.7,363.6 L 447.5,363.8 L 450.3,364.1 L 453.2,364.3 L 456.0,364.5 L 458.8,364.7 L 461.6,365.0 L 464.4,365.2 L 467.2,365.4 L 470.1,365.6 L 472.9,365.9 L 475.7,366.1 L 478.5,366.3 L 481.3,366.5 L 484.2,366.8 L 487.0,367.0 L 489.8,367.2 L 492.6,367.4 L 495.4,367.7 L 498.2,367.9 L 501.1,368.1 L 503.9,368.3 L 506.7,368.6 L 509.5,368.8 L 512.3,369.0 L 515.1,369.2 L 518.0,369.5 L 520.8,369.7 L 523.6,369.9 L 526.4,370.1 L 529.2,370.3 L 532.0,370.6 L 534.9,370.8 L 537.7,371.0 L 540.5,371.2 L 543.3,371.5 L 546.1,371.7 L 548.9,371.9 L 551.8,372.1 L 554.6,372.4 L 557.4,372.6 L 560.2,372.8 L 563.0,373.0 L 565.9,373.3 L 568.7,373.5 L 571.5,373.7 L 574.3,373.9 L 577.1,374.2 L 579.9,374.4 L 582.8,374.6 L 585.6,374.8 L 588.4,375.1 L 591.2,375.3 L 594.0,375.5 L 596.8,375.7 L 599.7,376.0 L 602.5,376.2 L 605.3,376.4 L 608.1,376.6 L 610.9,376.9 L 613.7,377.1 L 616.6,377.3 L 619.4,377.5 L 622.2,377.7 L 625.0,378.2 L 627.8,379.6 L 630.7,381.1 L 633.5,382.5 L 636.3,384.0 L 639.1,385.4 L 641.9,386.9 L 644.7,388.3 L 647.6,389.8 L 650.4,391.3 L 653.2,392.7 L 656.0,394.2 L 658.8,395.0 L 661.6,395.0 L 664.5,395.0 L 667.3,395.0 L 670.1,395.0 L 672.9,395.0 L 675.7,395.0 L 678.5,395.0 L 681.4,395.0 L 684.2,395.0 L 687.0,395.0" class="rho"/>
<path d="M 82.1,168.3 L 94.9,272.9 L 107.0,309.8 L 119.2,338.9 L 131.9,360.9 L 144.1,371.9 L 156.1,378.1 L 168.4,381.3 L 181.1,383.5 L 193.1,385.5 L 205.3,388.0 L 212.4,389.0 L 218.0,389.6 L 243.9,391.1 L 255.8,391.7 L 269.3,391.9 L 297.7,392.6 L 341.3,393.5 L 383.2,393.9 L 426.6,394.5 L 468.6,394.6 L 512.1,394.7 L 554.1,394.8 L 639.4,394.9" class="phot"/>
<path d="M 82.1,168.3 L 94.9,197.2 L 107.0,232.3 L 119.2,258.3 L 131.9,287.9 L 144.1,318.5 L 156.1,339.6 L 168.4,351.6 L 181.1,356.9 L 193.1,361.3 L 205.3,369.0 L 212.4,376.6 L 218.0,381.1 L 243.9,383.7 L 255.8,385.4 L 269.3,385.6 L 297.7,385.4 L 341.3,386.3 L 383.2,387.9 L 426.6,390.3 L 468.6,392.6 L 512.1,393.8 L 554.1,394.2 L 639.4,394.1" class="mbar"/>
<path d="M 82.1,213.4 L 94.9,203.7 L 107.0,192.0 L 119.2,184.0 L 131.9,176.0 L 144.1,169.7 L 156.1,168.3 L 168.4,170.8 L 181.1,175.0 L 193.1,179.8 L 205.3,185.3 L 212.4,191.1 L 218.0,197.4 L 243.9,206.0 L 255.8,215.0 L 269.3,221.6 L 297.7,228.5 L 341.3,238.4 L 383.2,249.8 L 426.6,263.7 L 468.6,278.3 L 512.1,290.8 L 554.1,300.3 L 639.4,305.7" class="mph"/>
<path d="M 76.2,314.7 L 82.3,291.3 L 88.5,281.3 L 94.7,274.7 L 100.8,267.1 L 107.0,259.6 L 113.2,252.4 L 119.4,245.6 L 125.5,239.4 L 131.7,233.6 L 137.9,228.2 L 144.0,223.2 L 150.2,218.7 L 156.4,214.5 L 162.6,210.6 L 168.7,206.8 L 174.9,203.0 L 181.1,199.3 L 187.2,195.7 L 193.4,192.1 L 199.6,188.6 L 205.7,185.3 L 211.9,182.0 L 218.1,178.7 L 224.3,175.6 L 230.4,172.6 L 236.6,169.6 L 242.8,166.7 L 248.9,163.9 L 255.1,161.2 L 261.3,158.5 L 267.4,155.9 L 273.6,153.4 L 279.8,150.9 L 286.0,148.5 L 292.1,146.1 L 298.3,143.8 L 304.5,141.5 L 310.6,139.3 L 316.8,137.1 L 323.0,135.1 L 329.1,133.0 L 335.3,131.0 L 341.5,129.1 L 347.7,127.2 L 353.8,125.3 L 360.0,123.5 L 366.2,121.8 L 372.3,120.1 L 378.5,118.4 L 384.7,116.8 L 390.8,115.3 L 397.0,113.7 L 403.2,112.3 L 409.4,110.8 L 415.5,109.4 L 421.7,108.1 L 427.9,106.8 L 434.0,105.5 L 440.2,104.3 L 446.4,103.1 L 452.5,102.0 L 458.7,100.9 L 464.9,99.8 L 471.1,98.8 L 477.2,97.8 L 483.4,96.9 L 489.6,96.0 L 495.7,95.1 L 501.9,94.3 L 508.1,93.5 L 514.2,92.7 L 520.4,92.0 L 526.6,91.3 L 532.8,90.7 L 538.9,90.1 L 545.1,89.5 L 551.3,88.9 L 557.4,88.4 L 563.6,88.0 L 569.8,87.5 L 575.9,87.1 L 582.1,86.8 L 588.3,86.5 L 594.4,86.2 L 600.6,85.9 L 606.8,85.7 L 613.0,85.5 L 619.1,85.3 L 625.3,85.2 L 631.5,85.3 L 637.6,85.7 L 643.8,86.5 L 650.0,87.5 L 656.1,88.9 L 662.3,90.5 L 668.5,92.1 L 674.7,93.6 L 680.8,95.2 L 687.0,96.6" class="nt"/>
<path d="M 82.1,281.2 L 94.9,239.3 L 107.0,218.8 L 119.2,198.9 L 131.9,188.2 L 144.1,183.1 L 156.1,181.1 L 168.4,180.0 L 181.1,178.4 L 193.1,176.2 L 205.3,175.8 L 212.4,176.3 L 218.0,176.9 L 243.9,179.5 L 255.8,180.3 L 269.3,181.1 L 297.7,179.8 L 341.3,179.4 L 383.2,176.4 L 426.6,176.5 L 468.6,177.5 L 512.1,179.4 L 554.1,181.2 L 639.4,182.4" class="mond"/>
<path d="M 75.1,315.6 L 80.3,268.8 L 85.4,234.7 L 90.6,217.3 L 95.7,212.2 L 100.8,211.7 L 106.0,211.0 L 111.1,208.5 L 116.3,205.0 L 121.4,200.8 L 126.6,196.7 L 131.7,192.9 L 136.8,189.7 L 142.0,187.6 L 147.1,186.7 L 152.3,187.1 L 157.4,188.7 L 162.6,190.9 L 167.7,193.2 L 172.8,195.1 L 178.0,196.3 L 183.1,197.1 L 188.3,197.5 L 193.4,197.5 L 198.5,197.3 L 203.7,197.0 L 208.8,196.5 L 214.0,196.0 L 219.1,195.4 L 224.3,194.8 L 229.4,194.3 L 234.5,193.8 L 239.7,193.5 L 244.8,193.3 L 250.0,193.1 L 255.1,192.8 L 260.2,192.5 L 265.4,192.1 L 270.5,191.6 L 275.7,191.1 L 280.8,190.5 L 285.9,189.9 L 291.1,189.3 L 296.2,188.7 L 301.4,188.1 L 306.5,187.5 L 311.7,187.0 L 316.8,186.4 L 321.9,185.9 L 327.1,185.4 L 332.2,184.9 L 337.4,184.5 L 342.5,184.1 L 347.7,183.7 L 352.8,183.4 L 357.9,183.1 L 363.1,182.9 L 368.2,182.7 L 373.4,182.6 L 378.5,182.5 L 383.6,182.4 L 388.8,182.4 L 393.9,182.5 L 399.1,182.5 L 404.2,182.7 L 409.4,182.8 L 414.5,183.1 L 419.6,183.3 L 424.8,183.6 L 429.9,184.0 L 435.1,184.4 L 440.2,184.8 L 445.3,185.3 L 450.5,185.9 L 455.6,186.5 L 460.8,187.1 L 465.9,187.7 L 471.1,188.5 L 476.2,189.2 L 481.3,190.0 L 486.5,190.8 L 491.6,191.7 L 496.8,192.6 L 501.9,193.6 L 507.0,194.6 L 512.2,195.6 L 517.3,196.7 L 522.5,197.7 L 527.6,198.9 L 532.8,200.0 L 537.9,201.2 L 543.0,202.4 L 548.2,203.5 L 553.3,204.8 L 558.5,206.0 L 563.6,207.1 L 568.7,208.3 L 573.9,209.4 L 579.0,210.4 L 584.2,211.4 L 589.3,212.1 L 594.4,212.7 L 599.6,212.9 L 604.7,212.7 L 609.9,212.2 L 615.0,211.5 L 620.2,210.9 L 625.3,211.2 L 630.4,212.8 L 635.6,216.1 L 640.7,221.2 L 645.9,227.5 L 651.0,234.5 L 656.1,241.5 L 661.3,248.1 L 666.4,254.0 L 671.6,259.2 L 676.7,263.8 L 681.9,267.8 L 687.0,271.3" class="fw"/>
<line x1="82.05" y1="260.59" x2="82.05" y2="267.22" class="err"/>
<line x1="79.05" y1="260.59" x2="85.05" y2="260.59" class="err"/>
<line x1="79.05" y1="267.22" x2="85.05" y2="267.22" class="err"/>
<circle cx="82.05" cy="263.90" r="2.5" class="obs"/>
<line x1="94.91" y1="233.71" x2="94.91" y2="241.35" class="err"/>
<line x1="91.91" y1="233.71" x2="97.91" y2="233.71" class="err"/>
<line x1="91.91" y1="241.35" x2="97.91" y2="241.35" class="err"/>
<circle cx="94.91" cy="237.53" r="2.5" class="obs"/>
<line x1="106.96" y1="210.78" x2="106.96" y2="219.29" class="err"/>
<line x1="103.96" y1="210.78" x2="109.96" y2="210.78" class="err"/>
<line x1="103.96" y1="219.29" x2="109.96" y2="219.29" class="err"/>
<circle cx="106.96" cy="215.03" r="2.5" class="obs"/>
<line x1="119.18" y1="193.02" x2="119.18" y2="199.81" class="err"/>
<line x1="116.18" y1="193.02" x2="122.18" y2="193.02" class="err"/>
<line x1="116.18" y1="199.81" x2="122.18" y2="199.81" class="err"/>
<circle cx="119.18" cy="196.42" r="2.5" class="obs"/>
<line x1="131.87" y1="199.93" x2="131.87" y2="205.31" class="err"/>
<line x1="128.87" y1="199.93" x2="134.87" y2="199.93" class="err"/>
<line x1="128.87" y1="205.31" x2="134.87" y2="205.31" class="err"/>
<circle cx="131.87" cy="202.62" r="2.5" class="obs"/>
<line x1="144.09" y1="194.34" x2="144.09" y2="203.15" class="err"/>
<line x1="141.09" y1="194.34" x2="147.09" y2="194.34" class="err"/>
<line x1="141.09" y1="203.15" x2="147.09" y2="203.15" class="err"/>
<circle cx="144.09" cy="198.74" r="2.5" class="obs"/>
<line x1="156.14" y1="179.80" x2="156.14" y2="192.86" class="err"/>
<line x1="153.14" y1="179.80" x2="159.14" y2="179.80" class="err"/>
<line x1="153.14" y1="192.86" x2="159.14" y2="192.86" class="err"/>
<circle cx="156.14" cy="186.33" r="2.5" class="obs"/>
<line x1="168.35" y1="183.49" x2="168.35" y2="190.73" class="err"/>
<line x1="165.35" y1="183.49" x2="171.35" y2="183.49" class="err"/>
<line x1="165.35" y1="190.73" x2="171.35" y2="190.73" class="err"/>
<circle cx="168.35" cy="187.11" r="2.5" class="obs"/>
<line x1="181.05" y1="188.99" x2="181.05" y2="197.64" class="err"/>
<line x1="178.05" y1="188.99" x2="184.05" y2="188.99" class="err"/>
<line x1="178.05" y1="197.64" x2="184.05" y2="197.64" class="err"/>
<circle cx="181.05" cy="193.31" r="2.5" class="obs"/>
<line x1="193.10" y1="198.38" x2="193.10" y2="211.52" class="err"/>
<line x1="190.10" y1="198.38" x2="196.10" y2="198.38" class="err"/>
<line x1="190.10" y1="211.52" x2="196.10" y2="211.52" class="err"/>
<circle cx="193.10" cy="204.95" r="2.5" class="obs"/>
<line x1="205.32" y1="198.74" x2="205.32" y2="208.05" class="err"/>
<line x1="202.32" y1="198.74" x2="208.32" y2="198.74" class="err"/>
<line x1="202.32" y1="208.05" x2="208.32" y2="208.05" class="err"/>
<circle cx="205.32" cy="203.40" r="2.5" class="obs"/>
<line x1="212.39" y1="179.89" x2="212.39" y2="195.87" class="err"/>
<line x1="209.39" y1="179.89" x2="215.39" y2="179.89" class="err"/>
<line x1="209.39" y1="195.87" x2="215.39" y2="195.87" class="err"/>
<circle cx="212.39" cy="187.88" r="2.5" class="obs"/>
<line x1="218.01" y1="191.55" x2="218.01" y2="202.83" class="err"/>
<line x1="215.01" y1="191.55" x2="221.01" y2="191.55" class="err"/>
<line x1="215.01" y1="202.83" x2="221.01" y2="202.83" class="err"/>
<circle cx="218.01" cy="197.19" r="2.5" class="obs"/>
<line x1="243.89" y1="190.06" x2="243.89" y2="207.43" class="err"/>
<line x1="240.89" y1="190.06" x2="246.89" y2="190.06" class="err"/>
<line x1="240.89" y1="207.43" x2="246.89" y2="207.43" class="err"/>
<circle cx="243.89" cy="198.74" r="2.5" class="obs"/>
<line x1="255.78" y1="176.02" x2="255.78" y2="193.55" class="err"/>
<line x1="252.78" y1="176.02" x2="258.78" y2="176.02" class="err"/>
<line x1="252.78" y1="193.55" x2="258.78" y2="193.55" class="err"/>
<circle cx="255.78" cy="184.78" r="2.5" class="obs"/>
<line x1="269.28" y1="174.15" x2="269.28" y2="187.66" class="err"/>
<line x1="266.28" y1="174.15" x2="272.28" y2="174.15" class="err"/>
<line x1="266.28" y1="187.66" x2="272.28" y2="187.66" class="err"/>
<circle cx="269.28" cy="180.90" r="2.5" class="obs"/>
<line x1="297.73" y1="173.84" x2="297.73" y2="189.51" class="err"/>
<line x1="294.73" y1="173.84" x2="300.73" y2="173.84" class="err"/>
<line x1="294.73" y1="189.51" x2="300.73" y2="189.51" class="err"/>
<circle cx="297.73" cy="181.68" r="2.5" class="obs"/>
<line x1="341.28" y1="173.92" x2="341.28" y2="189.44" class="err"/>
<line x1="338.28" y1="173.92" x2="344.28" y2="173.92" class="err"/>
<line x1="338.28" y1="189.44" x2="344.28" y2="189.44" class="err"/>
<circle cx="341.28" cy="181.68" r="2.5" class="obs"/>
<line x1="383.23" y1="171.83" x2="383.23" y2="189.98" class="err"/>
<line x1="380.23" y1="171.83" x2="386.23" y2="171.83" class="err"/>
<line x1="380.23" y1="189.98" x2="386.23" y2="189.98" class="err"/>
<circle cx="383.23" cy="180.90" r="2.5" class="obs"/>
<line x1="426.62" y1="175.71" x2="426.62" y2="200.06" class="err"/>
<line x1="423.62" y1="175.71" x2="429.62" y2="175.71" class="err"/>
<line x1="423.62" y1="200.06" x2="429.62" y2="200.06" class="err"/>
<circle cx="426.62" cy="187.88" r="2.5" class="obs"/>
<line x1="468.56" y1="183.93" x2="468.56" y2="207.35" class="err"/>
<line x1="465.56" y1="183.93" x2="471.56" y2="183.93" class="err"/>
<line x1="465.56" y1="207.35" x2="471.56" y2="207.35" class="err"/>
<circle cx="468.56" cy="195.64" r="2.5" class="obs"/>
<line x1="512.12" y1="187.42" x2="512.12" y2="208.52" class="err"/>
<line x1="509.12" y1="187.42" x2="515.12" y2="187.42" class="err"/>
<line x1="509.12" y1="208.52" x2="515.12" y2="208.52" class="err"/>
<circle cx="512.12" cy="197.97" r="2.5" class="obs"/>
<line x1="554.06" y1="193.62" x2="554.06" y2="211.62" class="err"/>
<line x1="551.06" y1="193.62" x2="557.06" y2="193.62" class="err"/>
<line x1="551.06" y1="211.62" x2="557.06" y2="211.62" class="err"/>
<circle cx="554.06" cy="202.62" r="2.5" class="obs"/>
<line x1="639.40" y1="210.22" x2="639.40" y2="227.60" class="err"/>
<line x1="636.40" y1="210.22" x2="642.40" y2="210.22" class="err"/>
<line x1="636.40" y1="227.60" x2="642.40" y2="227.60" class="err"/>
<circle cx="639.40" cy="218.91" r="2.5" class="obs"/>
<g class="legend">
<line x1="82" y1="69" x2="106" y2="69" class="fw"/>
<text x="112" y="73" class="lbl-l">framework: 10.4 km/s, 4.6%, 1.92σ</text>
<line x1="82" y1="87" x2="106" y2="87" class="nt"/>
<text x="112" y="91" class="lbl-l">Newtonian: 73.6 km/s, 29.9%, 7.88σ</text>
<line x1="82" y1="105" x2="106" y2="105" class="mond"/>
<text x="112" y="109" class="lbl-m">MOND/RAR: 20.8 km/s, 8.7%, 2.82σ</text>
<circle cx="94" cy="123" r="2.5" class="obs"/>
<text x="112" y="127" class="lbl">observed V±err</text>
</g>
<g class="legend">
<line x1="472" y1="69" x2="496" y2="69" class="rho"/>
<text x="502" y="73" class="lbl-r">ρ(r) raw</text>
<line x1="472" y1="87" x2="496" y2="87" class="phot"/>
<text x="502" y="91" class="lbl-p">photometric baryonic profile</text>
<line x1="472" y1="105" x2="496" y2="105" class="mbar"/>
<text x="502" y="109" class="lbl-m">MOND baryonic annulus</text>
<line x1="472" y1="123" x2="496" y2="123" class="mph"/>
<text x="502" y="127" class="lbl-m">MOND phantom annulus</text>
<text x="472" y="147" class="lbl-r">ρ peak: 2410 M☉/pc²</text>
<text x="472" y="163" class="lbl-p">phot peak: 3824.51 (arb.)</text>
<text x="472" y="179" class="lbl-m">Σbar peak: 1910.98 M☉/pc²</text>
<text x="472" y="195" class="lbl-m">Σphantom peak: 183.15 M☉/pc²</text>
</g>
<rect x="775" y="55" width="170" height="170" class="preview-bg"/>
<defs><radialGradient id="g_NGC2955" cx="0.5" cy="0.5" r="0.5">
  <stop offset="0.0000" stop-color="rgb(255,255,255)"/>
  <stop offset="0.0313" stop-color="rgb(255,255,255)"/>
  <stop offset="0.0625" stop-color="rgb(255,255,255)"/>
  <stop offset="0.0938" stop-color="rgb(237,237,237)"/>
  <stop offset="0.1250" stop-color="rgb(216,216,216)"/>
  <stop offset="0.1563" stop-color="rgb(198,198,198)"/>
  <stop offset="0.1875" stop-color="rgb(193,193,193)"/>
  <stop offset="0.2188" stop-color="rgb(187,187,187)"/>
  <stop offset="0.2500" stop-color="rgb(182,182,182)"/>
  <stop offset="0.2813" stop-color="rgb(177,177,177)"/>
  <stop offset="0.3125" stop-color="rgb(172,172,172)"/>
  <stop offset="0.3438" stop-color="rgb(167,167,167)"/>
  <stop offset="0.3750" stop-color="rgb(163,163,163)"/>
  <stop offset="0.4063" stop-color="rgb(159,159,159)"/>
  <stop offset="0.4375" stop-color="rgb(155,155,155)"/>
  <stop offset="0.4688" stop-color="rgb(151,151,151)"/>
  <stop offset="0.5000" stop-color="rgb(146,146,146)"/>
  <stop offset="0.5313" stop-color="rgb(142,142,142)"/>
  <stop offset="0.5625" stop-color="rgb(138,138,138)"/>
  <stop offset="0.5938" stop-color="rgb(134,134,134)"/>
  <stop offset="0.6250" stop-color="rgb(129,129,129)"/>
  <stop offset="0.6563" stop-color="rgb(125,125,125)"/>
  <stop offset="0.6875" stop-color="rgb(121,121,121)"/>
  <stop offset="0.7188" stop-color="rgb(117,117,117)"/>
  <stop offset="0.7500" stop-color="rgb(112,112,112)"/>
  <stop offset="0.7813" stop-color="rgb(108,108,108)"/>
  <stop offset="0.8125" stop-color="rgb(104,104,104)"/>
  <stop offset="0.8438" stop-color="rgb(100,100,100)"/>
  <stop offset="0.8750" stop-color="rgb(95,95,95)"/>
  <stop offset="0.9063" stop-color="rgb(91,91,91)"/>
  <stop offset="0.9375" stop-color="rgb(87,87,87)"/>
  <stop offset="0.9688" stop-color="rgb(64,64,64)"/>
  <stop offset="1.0000" stop-color="rgb(0,0,0)"/>
</radialGradient></defs>
<circle cx="860" cy="140" r="81" fill="url(#g_NGC2955)"/>
<text x="860" y="49" text-anchor="middle" class="preview-lbl">face-on luminance from ρ(r)</text>
<text x="860" y="239" text-anchor="middle" class="preview-lbl">edge at r = 36.6 kpc</text>
</svg>