<svg xmlns="http://www.w3.org/2000/svg" viewBox="0 0 720 420" width="720" height="420" font-family="sans-serif" font-size="12">
<style>
  .ax { stroke: #333; stroke-width: 1; fill: none; }
  .grid { stroke: #ddd; stroke-width: 0.5; fill: none; }
  .lbl { fill: #333; }
  .lbl-l { fill: #0066cc; }
  .lbl-r { fill: #b03030; }
  .obs { fill: #222; }
  .err { stroke: #555; stroke-width: 0.8; fill: none; }
  .fw { stroke: #0066cc; stroke-width: 2.2; fill: none; }
  .nt { stroke: #cc6600; stroke-width: 1.6; fill: none; stroke-dasharray: 5,3; }
  .rho { stroke: #b03030; stroke-width: 2.0; fill: none; }
  .sig { stroke: #b03030; stroke-width: 1.6; fill: none; stroke-dasharray: 4,2; opacity: 0.85; }
  .title { fill: #111; font-size: 16px; font-weight: 600; }
  .subtitle { fill: #555; font-size: 11px; }
  .legend { font-size: 11px; }
</style>
<text x="360.0" y="22" text-anchor="middle" class="title">NGC2915</text>
<text x="360.0" y="38" text-anchor="middle" class="subtitle">rMax=10.0 kpc, N=30, RMS=1.9 km/s (2.6%), amp=104</text>
<line x1="70" y1="365.0" x2="635" y2="365.0" class="grid"/>
<text x="64" y="369.0" text-anchor="end" class="lbl-l">0</text>
<line x1="70" y1="303.0" x2="635" y2="303.0" class="grid"/>
<text x="64" y="307.0" text-anchor="end" class="lbl-l">21</text>
<line x1="70" y1="241.00000000000003" x2="635" y2="241.00000000000003" class="grid"/>
<text x="64" y="245.00000000000003" text-anchor="end" class="lbl-l">41</text>
<line x1="70" y1="179.0" x2="635" y2="179.0" class="grid"/>
<text x="64" y="183.0" text-anchor="end" class="lbl-l">62</text>
<line x1="70" y1="117.00000000000003" x2="635" y2="117.00000000000003" class="grid"/>
<text x="64" y="121.00000000000003" text-anchor="end" class="lbl-l">83</text>
<line x1="70" y1="55.0" x2="635" y2="55.0" class="grid"/>
<text x="64" y="59.0" text-anchor="end" class="lbl-l">103</text>
<text x="641" y="369.0" text-anchor="start" class="lbl-r">0.0</text>
<text x="641" y="327.6666666666667" text-anchor="start" class="lbl-r">0.2</text>
<text x="641" y="286.33333333333337" text-anchor="start" class="lbl-r">0.4</text>
<text x="641" y="245.00000000000003" text-anchor="start" class="lbl-r">0.6</text>
<text x="641" y="203.66666666666666" text-anchor="start" class="lbl-r">0.8</text>
<text x="641" y="162.33333333333334" text-anchor="start" class="lbl-r">1.0</text>
<line x1="70.0" y1="55" x2="70.0" y2="365" class="grid"/>
<text x="70.0" y="381" text-anchor="middle" class="lbl">0.0</text>
<line x1="164.16666666666666" y1="55" x2="164.16666666666666" y2="365" class="grid"/>
<text x="164.16666666666666" y="381" text-anchor="middle" class="lbl">1.8</text>
<line x1="258.3333333333333" y1="55" x2="258.3333333333333" y2="365" class="grid"/>
<text x="258.3333333333333" y="381" text-anchor="middle" class="lbl">3.6</text>
<line x1="352.5" y1="55" x2="352.5" y2="365" class="grid"/>
<text x="352.5" y="381" text-anchor="middle" class="lbl">5.4</text>
<line x1="446.66666666666663" y1="55" x2="446.66666666666663" y2="365" class="grid"/>
<text x="446.66666666666663" y="381" text-anchor="middle" class="lbl">7.2</text>
<line x1="540.8333333333334" y1="55" x2="540.8333333333334" y2="365" class="grid"/>
<text x="540.8333333333334" y="381" text-anchor="middle" class="lbl">9.0</text>
<line x1="635.0" y1="55" x2="635.0" y2="365" class="grid"/>
<text x="635.0" y="381" text-anchor="middle" class="lbl">10.8</text>
<text x="352.5" y="408" text-anchor="middle" class="lbl">radius (kpc)</text>
<text x="16" y="210.0" text-anchor="middle" class="lbl-l" transform="rotate(-90, 16, 210.0)">velocity (km/s)</text>
<text x="704" y="210.0" text-anchor="middle" class="lbl-r" transform="rotate(-90, 704, 210.0)">mass profile (normalized to peak)</text>
<rect x="70" y="55" width="565" height="310" class="ax"/>
<path d="M 70.0,158.3 L 72.6,160.2 L 75.2,162.0 L 77.7,163.8 L 80.3,165.6 L 82.9,167.5 L 85.5,169.3 L 88.1,171.1 L 90.6,172.9 L 93.2,174.8 L 95.8,176.6 L 98.4,178.4 L 101.0,180.2 L 103.5,182.1 L 106.1,183.9 L 108.7,185.7 L 111.3,187.6 L 113.9,188.8 L 116.4,189.5 L 119.0,190.2 L 121.6,190.9 L 124.2,191.6 L 126.8,192.3 L 129.3,193.0 L 131.9,193.7 L 134.5,194.4 L 137.1,195.1 L 139.7,195.8 L 142.2,196.5 L 144.8,197.2 L 147.4,197.9 L 150.0,198.6 L 152.6,199.3 L 155.1,200.1 L 157.7,200.8 L 160.3,201.5 L 162.9,202.2 L 165.5,202.9 L 168.0,203.6 L 170.6,204.3 L 173.2,205.0 L 175.8,205.7 L 178.4,207.2 L 180.9,209.1 L 183.5,211.0 L 186.1,212.9 L 188.7,214.7 L 191.3,216.6 L 193.8,218.5 L 196.4,220.4 L 199.0,222.3 L 201.6,224.1 L 204.2,226.0 L 206.7,227.9 L 209.3,229.8 L 211.9,231.7 L 214.5,233.5 L 217.1,235.4 L 219.6,237.3 L 222.2,239.2 L 224.8,241.1 L 227.4,242.9 L 230.0,244.8 L 232.5,246.7 L 235.1,248.6 L 237.7,250.4 L 240.3,252.3 L 242.9,254.2 L 245.4,256.1 L 248.0,258.0 L 250.6,259.6 L 253.2,260.0 L 255.8,260.4 L 258.3,260.8 L 260.9,261.2 L 263.5,261.6 L 266.1,261.9 L 268.7,262.3 L 271.2,262.7 L 273.8,263.1 L 276.4,263.5 L 279.0,263.9 L 281.6,264.2 L 284.1,264.6 L 286.7,265.0 L 289.3,265.4 L 291.9,265.8 L 294.5,266.1 L 297.0,266.5 L 299.6,266.9 L 302.2,267.3 L 304.8,267.7 L 307.4,268.1 L 309.9,268.4 L 312.5,268.8 L 315.1,269.2 L 317.7,269.6 L 320.3,270.0 L 322.8,270.4 L 325.4,270.7 L 328.0,271.1 L 330.6,271.5 L 333.2,271.9 L 335.7,272.3 L 338.3,272.7 L 340.9,273.0 L 343.5,273.4 L 346.1,273.8 L 348.6,274.2 L 351.2,274.6 L 353.8,274.9 L 356.4,275.3 L 358.9,275.7 L 361.5,276.1 L 364.1,276.5 L 366.7,276.9 L 369.3,277.2 L 371.8,277.6 L 374.4,278.0 L 377.0,278.4 L 379.6,278.8 L 382.2,279.2 L 384.7,279.5 L 387.3,279.9 L 389.9,280.3 L 392.5,280.7 L 395.1,281.1 L 397.6,281.4 L 400.2,281.8 L 402.8,282.2 L 405.4,282.6 L 408.0,283.0 L 410.5,283.4 L 413.1,283.7 L 415.7,284.1 L 418.3,284.5 L 420.9,284.9 L 423.4,285.3 L 426.0,285.7 L 428.6,286.0 L 431.2,286.4 L 433.8,286.8 L 436.3,287.2 L 438.9,287.6 L 441.5,287.9 L 444.1,288.3 L 446.7,288.7 L 449.2,289.1 L 451.8,289.5 L 454.4,289.9 L 457.0,290.2 L 459.6,290.6 L 462.1,291.0 L 464.7,291.4 L 467.3,291.8 L 469.9,292.2 L 472.5,292.5 L 475.0,292.9 L 477.6,293.3 L 480.2,293.7 L 482.8,294.1 L 485.4,294.5 L 487.9,294.8 L 490.5,295.2 L 493.1,295.6 L 495.7,296.0 L 498.3,296.4 L 500.8,296.7 L 503.4,297.1 L 506.0,297.5 L 508.6,297.9 L 511.2,298.3 L 513.7,298.7 L 516.3,299.0 L 518.9,299.4 L 521.5,299.8 L 524.1,300.2 L 526.6,300.6 L 529.2,301.0 L 531.8,301.3 L 534.4,301.7 L 537.0,302.1 L 539.5,302.5 L 542.1,302.9 L 544.7,303.2 L 547.3,303.6 L 549.9,304.0 L 552.4,304.4 L 555.0,304.8 L 557.6,305.2 L 560.2,305.5 L 562.8,305.9 L 565.3,306.3 L 567.9,306.7 L 570.5,307.1 L 573.1,310.5 L 575.7,314.5 L 578.2,318.6 L 580.8,322.6 L 583.4,326.6 L 586.0,330.6 L 588.6,334.6 L 591.1,338.6 L 593.7,342.6 L 596.3,346.7 L 598.9,350.7 L 601.5,354.7 L 604.0,358.7 L 606.6,362.7 L 609.2,365.0 L 611.8,365.0 L 614.4,365.0 L 616.9,365.0 L 619.5,365.0 L 622.1,365.0 L 624.7,365.0 L 627.3,365.0 L 629.8,365.0 L 632.4,365.0 L 635.0,365.0" class="rho"/>
<path d="M 70.0,158.3 L 72.6,158.4 L 75.2,158.5 L 77.7,158.7 L 80.3,159.0 L 82.9,159.3 L 85.5,159.7 L 88.1,160.2 L 90.6,160.7 L 93.2,161.2 L 95.8,161.9 L 98.4,162.5 L 101.0,163.3 L 103.5,164.0 L 106.1,164.8 L 108.7,165.6 L 111.3,166.5 L 113.9,167.4 L 116.4,168.3 L 119.0,169.3 L 121.6,170.3 L 124.2,171.3 L 126.8,172.3 L 129.3,173.4 L 131.9,174.5 L 134.5,175.6 L 137.1,176.7 L 139.7,177.9 L 142.2,179.1 L 144.8,180.3 L 147.4,181.6 L 150.0,182.9 L 152.6,184.2 L 155.1,185.5 L 157.7,186.9 L 160.3,188.3 L 162.9,189.7 L 165.5,191.1 L 168.0,192.6 L 170.6,194.1 L 173.2,195.6 L 175.8,197.1 L 178.4,198.7 L 180.9,200.3 L 183.5,201.9 L 186.1,203.5 L 188.7,205.2 L 191.3,206.8 L 193.8,208.5 L 196.4,210.2 L 199.0,211.9 L 201.6,213.5 L 204.2,215.2 L 206.7,216.9 L 209.3,218.6 L 211.9,220.3 L 214.5,221.9 L 217.1,223.6 L 219.6,225.2 L 222.2,226.9 L 224.8,228.5 L 227.4,230.1 L 230.0,231.7 L 232.5,233.3 L 235.1,234.8 L 237.7,236.3 L 240.3,237.8 L 242.9,239.3 L 245.4,240.7 L 248.0,242.2 L 250.6,243.5 L 253.2,244.9 L 255.8,246.2 L 258.3,247.5 L 260.9,248.8 L 263.5,250.1 L 266.1,251.3 L 268.7,252.5 L 271.2,253.7 L 273.8,254.9 L 276.4,256.0 L 279.0,257.1 L 281.6,258.2 L 284.1,259.3 L 286.7,260.4 L 289.3,261.4 L 291.9,262.4 L 294.5,263.5 L 297.0,264.5 L 299.6,265.4 L 302.2,266.4 L 304.8,267.4 L 307.4,268.3 L 309.9,269.3 L 312.5,270.2 L 315.1,271.1 L 317.7,272.0 L 320.3,272.9 L 322.8,273.8 L 325.4,274.6 L 328.0,275.5 L 330.6,276.3 L 333.2,277.2 L 335.7,278.0 L 338.3,278.9 L 340.9,279.7 L 343.5,280.5 L 346.1,281.3 L 348.6,282.1 L 351.2,282.9 L 353.8,283.6 L 356.4,284.4 L 358.9,285.2 L 361.5,285.9 L 364.1,286.7 L 366.7,287.4 L 369.3,288.2 L 371.8,288.9 L 374.4,289.6 L 377.0,290.4 L 379.6,291.1 L 382.2,291.8 L 384.7,292.5 L 387.3,293.2 L 389.9,293.9 L 392.5,294.6 L 395.1,295.3 L 397.6,295.9 L 400.2,296.6 L 402.8,297.3 L 405.4,298.0 L 408.0,298.6 L 410.5,299.3 L 413.1,299.9 L 415.7,300.6 L 418.3,301.2 L 420.9,301.8 L 423.4,302.5 L 426.0,303.1 L 428.6,303.7 L 431.2,304.4 L 433.8,305.0 L 436.3,305.6 L 438.9,306.2 L 441.5,306.8 L 444.1,307.4 L 446.7,308.0 L 449.2,308.6 L 451.8,309.2 L 454.4,309.8 L 457.0,310.4 L 459.6,311.0 L 462.1,311.5 L 464.7,312.1 L 467.3,312.7 L 469.9,313.2 L 472.5,313.8 L 475.0,314.4 L 477.6,314.9 L 480.2,315.5 L 482.8,316.0 L 485.4,316.6 L 487.9,317.1 L 490.5,317.7 L 493.1,318.2 L 495.7,318.8 L 498.3,319.3 L 500.8,319.9 L 503.4,320.4 L 506.0,320.9 L 508.6,321.5 L 511.2,322.0 L 513.7,322.5 L 516.3,323.0 L 518.9,323.6 L 521.5,324.1 L 524.1,324.6 L 526.6,325.2 L 529.2,325.7 L 531.8,326.2 L 534.4,326.7 L 537.0,327.3 L 539.5,327.8 L 542.1,328.3 L 544.7,328.8 L 547.3,329.4 L 549.9,329.9 L 552.4,330.4 L 555.0,331.0 L 557.6,331.5 L 560.2,332.0 L 562.8,332.6 L 565.3,333.1 L 567.9,333.7 L 570.5,334.2 L 573.1,334.7 L 575.7,335.3 L 578.2,335.8 L 580.8,336.4 L 583.4,336.9 L 586.0,337.4 L 588.6,337.9 L 591.1,338.4 L 593.7,338.9 L 596.3,339.4 L 598.9,339.8 L 601.5,340.3 L 604.0,340.7 L 606.6,341.1 L 609.2,341.6 L 611.8,341.9 L 614.4,342.3 L 616.9,342.7 L 619.5,343.1 L 622.1,343.4 L 624.7,343.7 L 627.3,344.1 L 629.8,344.4 L 632.4,344.7 L 635.0,345.0" class="sig"/>
<path d="M 75.7,321.1 L 81.3,303.3 L 87.0,289.9 L 92.6,278.9 L 98.2,269.4 L 103.9,261.0 L 109.6,253.4 L 115.2,246.5 L 120.9,240.1 L 126.5,234.0 L 132.2,228.2 L 137.8,222.7 L 143.4,217.5 L 149.1,212.5 L 154.8,207.7 L 160.4,203.1 L 166.1,198.7 L 171.7,194.5 L 177.4,190.4 L 183.0,186.5 L 188.6,182.9 L 194.3,179.6 L 200.0,176.4 L 205.6,173.5 L 211.2,170.8 L 216.9,168.2 L 222.6,165.9 L 228.2,163.7 L 233.8,161.6 L 239.5,159.8 L 245.2,158.0 L 250.8,156.5 L 256.4,154.9 L 262.1,153.4 L 267.8,151.9 L 273.4,150.4 L 279.1,148.9 L 284.7,147.4 L 290.4,145.9 L 296.0,144.4 L 301.6,142.9 L 307.3,141.5 L 313.0,140.0 L 318.6,138.6 L 324.2,137.2 L 329.9,135.8 L 335.6,134.5 L 341.2,133.1 L 346.9,131.8 L 352.5,130.5 L 358.1,129.2 L 363.8,128.0 L 369.4,126.7 L 375.1,125.5 L 380.7,124.3 L 386.4,123.1 L 392.1,121.9 L 397.7,120.8 L 403.3,119.7 L 409.0,118.6 L 414.6,117.5 L 420.3,116.4 L 425.9,115.4 L 431.6,114.4 L 437.2,113.4 L 442.9,112.4 L 448.6,111.5 L 454.2,110.5 L 459.8,109.6 L 465.5,108.7 L 471.1,107.8 L 476.8,107.0 L 482.5,106.2 L 488.1,105.3 L 493.8,104.6 L 499.4,103.8 L 505.0,103.0 L 510.7,102.3 L 516.4,101.6 L 522.0,100.9 L 527.7,100.2 L 533.3,99.6 L 539.0,98.9 L 544.6,98.3 L 550.2,97.7 L 555.9,97.2 L 561.5,96.6 L 567.2,96.1 L 572.9,95.5 L 578.5,95.3 L 584.1,95.3 L 589.8,95.6 L 595.4,96.2 L 601.1,97.1 L 606.8,98.3 L 612.4,99.7 L 618.1,101.1 L 623.7,102.4 L 629.3,103.8 L 635.0,105.1" class="nt"/>
<path d="M 74.7,350.4 L 79.4,339.4 L 84.1,327.4 L 88.8,315.8 L 93.5,304.7 L 98.2,294.2 L 103.0,284.3 L 107.7,275.0 L 112.4,266.1 L 117.1,257.6 L 121.8,249.4 L 126.5,241.2 L 131.2,233.2 L 135.9,225.2 L 140.6,217.3 L 145.3,209.3 L 150.0,201.4 L 154.8,193.5 L 159.5,185.6 L 164.2,177.7 L 168.9,170.0 L 173.6,162.4 L 178.3,155.0 L 183.0,148.1 L 187.7,141.6 L 192.4,135.6 L 197.1,130.3 L 201.8,125.6 L 206.5,121.4 L 211.3,117.9 L 216.0,115.0 L 220.7,112.7 L 225.4,111.0 L 230.1,109.9 L 234.8,109.4 L 239.5,109.5 L 244.2,110.2 L 248.9,111.2 L 253.6,112.5 L 258.3,114.1 L 263.0,115.6 L 267.8,117.1 L 272.5,118.5 L 277.2,119.8 L 281.9,120.9 L 286.6,121.8 L 291.3,122.7 L 296.0,123.4 L 300.7,124.0 L 305.4,124.6 L 310.1,125.0 L 314.8,125.4 L 319.5,125.6 L 324.2,125.9 L 329.0,126.1 L 333.7,126.2 L 338.4,126.3 L 343.1,126.4 L 347.8,126.4 L 352.5,126.4 L 357.2,126.4 L 361.9,126.3 L 366.6,126.3 L 371.3,126.2 L 376.0,126.1 L 380.7,126.0 L 385.5,125.9 L 390.2,125.8 L 394.9,125.7 L 399.6,125.5 L 404.3,125.4 L 409.0,125.2 L 413.7,125.1 L 418.4,125.0 L 423.1,124.8 L 427.8,124.6 L 432.5,124.5 L 437.2,124.3 L 442.0,124.1 L 446.7,124.0 L 451.4,123.8 L 456.1,123.6 L 460.8,123.4 L 465.5,123.1 L 470.2,122.9 L 474.9,122.6 L 479.6,122.3 L 484.3,122.0 L 489.0,121.6 L 493.8,121.2 L 498.5,120.7 L 503.2,120.2 L 507.9,119.6 L 512.6,118.9 L 517.3,118.1 L 522.0,117.1 L 526.7,116.1 L 531.4,114.8 L 536.1,113.4 L 540.8,111.8 L 545.5,110.0 L 550.2,108.1 L 555.0,105.9 L 559.7,103.8 L 564.4,101.9 L 569.1,100.5 L 573.8,99.9 L 578.5,100.2 L 583.2,101.9 L 587.9,104.8 L 592.6,108.8 L 597.3,113.8 L 602.0,119.4 L 606.8,125.4 L 611.5,131.5 L 616.2,137.5 L 620.9,143.4 L 625.6,148.9 L 630.3,154.1 L 635.0,159.0" class="fw"/>
<line x1="87.80523527160403" y1="294.29078151276747" x2="87.80523527160403" y2="354.81307869251737" class="err"/>
<line x1="84.80523527160403" y1="294.29078151276747" x2="90.80523527160403" y2="294.29078151276747" class="err"/>
<line x1="84.80523527160403" y1="354.81307869251737" x2="90.80523527160403" y2="354.81307869251737" class="err"/>
<circle cx="87.80523527160403" cy="324.5519301026424" r="2.5" class="obs"/>
<line x1="105.08678715286676" y1="233.76848433301765" x2="105.08678715286676" y2="308.6723174762724" class="err"/>
<line x1="102.08678715286676" y1="233.76848433301765" x2="108.08678715286676" y2="233.76848433301765" class="err"/>
<line x1="102.08678715286676" y1="308.6723174762724" x2="108.08678715286676" y2="308.6723174762724" class="err"/>
<circle cx="105.08678715286676" cy="271.220400904645" r="2.5" class="obs"/>
<line x1="122.36833903412949" y1="219.0873330369397" x2="122.36833903412949" y2="299.3842421665088" class="err"/>
<line x1="119.36833903412949" y1="219.0873330369397" x2="125.36833903412949" y2="219.0873330369397" class="err"/>
<line x1="119.36833903412949" y1="299.3842421665088" x2="125.36833903412949" y2="299.3842421665088" class="err"/>
<circle cx="122.36833903412949" cy="259.23578760172427" r="2.5" class="obs"/>
<line x1="140.17357430573352" y1="185.59033885527614" x2="140.17357430573352" y2="241.79817524597453" class="err"/>
<line x1="137.17357430573352" y1="185.59033885527614" x2="143.17357430573352" y2="185.59033885527614" class="err"/>
<line x1="137.17357430573352" y1="241.79817524597453" x2="143.17357430573352" y2="241.79817524597453" class="err"/>
<circle cx="140.17357430573352" cy="213.69425705062534" r="2.5" class="obs"/>
<line x1="157.97880957733756" y1="151.97349854058342" x2="157.97880957733756" y2="212.4957957203333" class="err"/>
<line x1="154.97880957733756" y1="151.97349854058342" x2="160.97880957733756" y2="151.97349854058342" class="err"/>
<line x1="154.97880957733756" y1="212.4957957203333" x2="160.97880957733756" y2="212.4957957203333" class="err"/>
<circle cx="157.97880957733756" cy="182.23464713045834" r="2.5" class="obs"/>
<line x1="175.2603614586003" y1="130.10157926275298" x2="175.2603614586003" y2="201.41002841513156" class="err"/>
<line x1="172.2603614586003" y1="130.10157926275298" x2="178.2603614586003" y2="130.10157926275298" class="err"/>
<line x1="172.2603614586003" y1="201.41002841513156" x2="178.2603614586003" y2="201.41002841513156" class="err"/>
<circle cx="175.2603614586003" cy="165.75580383894228" r="2.5" class="obs"/>
<line x1="192.54191333986302" y1="107.33081398720354" x2="192.54191333986302" y2="176.84157114414398" class="err"/>
<line x1="189.54191333986302" y1="107.33081398720354" x2="195.54191333986302" y2="107.33081398720354" class="err"/>
<line x1="189.54191333986302" y1="176.84157114414398" x2="195.54191333986302" y2="176.84157114414398" class="err"/>
<circle cx="192.54191333986302" cy="142.08619256567374" r="2.5" class="obs"/>
<line x1="209.82346522112576" y1="88.84454796744825" x2="209.82346522112576" y2="143.79399996133998" class="err"/>
<line x1="206.82346522112576" y1="88.84454796744825" x2="212.82346522112576" y2="88.84454796744825" class="err"/>
<line x1="206.82346522112576" y1="143.79399996133998" x2="212.82346522112576" y2="143.79399996133998" class="err"/>
<circle cx="209.82346522112576" cy="116.31927396439411" r="2.5" class="obs"/>
<line x1="227.62870049272976" y1="83.18181818181819" x2="227.62870049272976" y2="129.0828871320047" class="err"/>
<line x1="224.62870049272976" y1="83.18181818181819" x2="230.62870049272976" y2="83.18181818181819" class="err"/>
<line x1="224.62870049272976" y1="129.0828871320047" x2="230.62870049272976" y2="129.0828871320047" class="err"/>
<circle cx="227.62870049272976" cy="106.13235265691145" r="2.5" class="obs"/>
<line x1="245.4339357643338" y1="90.01304776448302" x2="245.4339357643338" y2="139.030116173429" class="err"/>
<line x1="242.4339357643338" y1="90.01304776448302" x2="248.4339357643338" y2="90.01304776448302" class="err"/>
<line x1="242.4339357643338" y1="139.030116173429" x2="248.4339357643338" y2="139.030116173429" class="err"/>
<circle cx="245.4339357643338" cy="114.52158196895601" r="2.5" class="obs"/>
<line x1="262.71548764559657" y1="102.14746873369035" x2="262.71548764559657" y2="149.66646047977116" class="err"/>
<line x1="259.71548764559657" y1="102.14746873369035" x2="265.71548764559657" y2="102.14746873369035" class="err"/>
<line x1="259.71548764559657" y1="149.66646047977116" x2="265.71548764559657" y2="149.66646047977116" class="err"/>
<circle cx="262.71548764559657" cy="125.90696460673074" r="2.5" class="obs"/>
<line x1="280.5207229172006" y1="96.09523901571535" x2="280.5207229172006" y2="137.74177024336498" class="err"/>
<line x1="277.5207229172006" y1="96.09523901571535" x2="283.5207229172006" y2="96.09523901571535" class="err"/>
<line x1="277.5207229172006" y1="137.74177024336498" x2="283.5207229172006" y2="137.74177024336498" class="err"/>
<circle cx="280.5207229172006" cy="116.91850462954017" r="2.5" class="obs"/>
<line x1="297.80227479846326" y1="93.27885488952896" x2="297.80227479846326" y2="136.36353971352912" class="err"/>
<line x1="294.80227479846326" y1="93.27885488952896" x2="300.80227479846326" y2="93.27885488952896" class="err"/>
<line x1="294.80227479846326" y1="136.36353971352912" x2="300.80227479846326" y2="136.36353971352912" class="err"/>
<circle cx="297.80227479846326" cy="114.82119730152903" r="2.5" class="obs"/>
<line x1="315.08382667972603" y1="100.58946900431062" x2="315.08382667972603" y2="147.62907621827458" class="err"/>
<line x1="312.08382667972603" y1="100.58946900431062" x2="318.08382667972603" y2="100.58946900431062" class="err"/>
<line x1="312.08382667972603" y1="147.62907621827458" x2="318.08382667972603" y2="147.62907621827458" class="err"/>
<circle cx="315.08382667972603" cy="124.1092726112926" r="2.5" class="obs"/>
<line x1="332.88906195133006" y1="101.72800726808808" x2="332.88906195133006" y2="147.0897686196432" class="err"/>
<line x1="329.88906195133006" y1="101.72800726808808" x2="335.88906195133006" y2="101.72800726808808" class="err"/>
<line x1="329.88906195133006" y1="147.0897686196432" x2="335.88906195133006" y2="147.0897686196432" class="err"/>
<circle cx="332.88906195133006" cy="124.40888794386564" r="2.5" class="obs"/>
<line x1="350.1706138325928" y1="95.2862776177682" x2="350.1706138325928" y2="142.74534629733444" class="err"/>
<line x1="347.1706138325928" y1="95.2862776177682" x2="353.1706138325928" y2="95.2862776177682" class="err"/>
<line x1="347.1706138325928" y1="142.74534629733444" x2="353.1706138325928" y2="142.74534629733444" class="err"/>
<circle cx="350.1706138325928" cy="119.01581195755132" r="2.5" class="obs"/>
<line x1="367.9758491041968" y1="93.15900875649973" x2="367.9758491041968" y2="143.07492316316473" class="err"/>
<line x1="364.9758491041968" y1="93.15900875649973" x2="370.9758491041968" y2="93.15900875649973" class="err"/>
<line x1="364.9758491041968" y1="143.07492316316473" x2="370.9758491041968" y2="143.07492316316473" class="err"/>
<circle cx="367.9758491041968" cy="118.11696595983223" r="2.5" class="obs"/>
<line x1="385.78108437580084" y1="99.0015077416736" x2="385.78108437580084" y2="146.2208841551814" class="err"/>
<line x1="382.78108437580084" y1="99.0015077416736" x2="388.78108437580084" y2="99.0015077416736" class="err"/>
<line x1="382.78108437580084" y1="146.2208841551814" x2="388.78108437580084" y2="146.2208841551814" class="err"/>
<circle cx="385.78108437580084" cy="122.6111959484275" r="2.5" class="obs"/>
<line x1="403.0626362570636" y1="109.8775443140742" x2="403.0626362570636" y2="146.73023022055557" class="err"/>
<line x1="400.0626362570636" y1="109.8775443140742" x2="406.0626362570636" y2="109.8775443140742" class="err"/>
<line x1="400.0626362570636" y1="146.73023022055557" x2="406.0626362570636" y2="146.73023022055557" class="err"/>
<circle cx="403.0626362570636" cy="128.3038872673149" r="2.5" class="obs"/>
<line x1="420.3441881383264" y1="102.80662246535096" x2="420.3441881383264" y2="139.41961610577385" class="err"/>
<line x1="417.3441881383264" y1="102.80662246535096" x2="423.3441881383264" y2="102.80662246535096" class="err"/>
<line x1="417.3441881383264" y1="139.41961610577385" x2="423.3441881383264" y2="139.41961610577385" class="err"/>
<circle cx="420.3441881383264" cy="121.11311928556239" r="2.5" class="obs"/>
<line x1="437.62574001958905" y1="109.45808284847197" x2="437.62574001958905" y2="142.95507703013553" class="err"/>
<line x1="434.62574001958905" y1="109.45808284847197" x2="440.62574001958905" y2="109.45808284847197" class="err"/>
<line x1="434.62574001958905" y1="142.95507703013553" x2="440.62574001958905" y2="142.95507703013553" class="err"/>
<circle cx="437.62574001958905" cy="126.20657993930375" r="2.5" class="obs"/>
<line x1="455.4309752911931" y1="113.83246670403805" x2="455.4309752911931" y2="151.7637678077823" class="err"/>
<line x1="452.4309752911931" y1="113.83246670403805" x2="458.4309752911931" y2="113.83246670403805" class="err"/>
<line x1="452.4309752911931" y1="151.7637678077823" x2="458.4309752911931" y2="151.7637678077823" class="err"/>
<circle cx="455.4309752911931" cy="132.79811725591017" r="2.5" class="obs"/>
<line x1="473.2362105627971" y1="106.40200645622717" x2="473.2362105627971" y2="144.81269209208818" class="err"/>
<line x1="470.2362105627971" y1="106.40200645622717" x2="476.2362105627971" y2="106.40200645622717" class="err"/>
<line x1="470.2362105627971" y1="144.81269209208818" x2="476.2362105627971" y2="144.81269209208818" class="err"/>
<circle cx="473.2362105627971" cy="125.6073492741577" r="2.5" class="obs"/>
<line x1="490.51776244405977" y1="97.26373881275009" x2="490.51776244405977" y2="144.36326909322872" class="err"/>
<line x1="487.51776244405977" y1="97.26373881275009" x2="493.51776244405977" y2="97.26373881275009" class="err"/>
<line x1="487.51776244405977" y1="144.36326909322872" x2="493.51776244405977" y2="144.36326909322872" class="err"/>
<circle cx="490.51776244405977" cy="120.81350395298942" r="2.5" class="obs"/>
<line x1="508.3229977156638" y1="95.28627761776816" x2="508.3229977156638" y2="142.14611563218838" class="err"/>
<line x1="505.3229977156638" y1="95.28627761776816" x2="511.3229977156638" y2="95.28627761776816" class="err"/>
<line x1="505.3229977156638" y1="142.14611563218838" x2="511.3229977156638" y2="142.14611563218838" class="err"/>
<circle cx="508.3229977156638" cy="118.71619662497827" r="2.5" class="obs"/>
<line x1="525.6045495969265" y1="98.07270021069723" x2="525.6045495969265" y2="140.55815436955137" class="err"/>
<line x1="522.6045495969265" y1="98.07270021069723" x2="528.6045495969265" y2="98.07270021069723" class="err"/>
<line x1="522.6045495969265" y1="140.55815436955137" x2="528.6045495969265" y2="140.55815436955137" class="err"/>
<circle cx="525.6045495969265" cy="119.31542729012432" r="2.5" class="obs"/>
<line x1="542.8861014781894" y1="94.02789322096152" x2="542.8861014781894" y2="128.42373340034405" class="err"/>
<line x1="539.8861014781894" y1="94.02789322096152" x2="545.8861014781894" y2="94.02789322096152" class="err"/>
<line x1="539.8861014781894" y1="128.42373340034405" x2="545.8861014781894" y2="128.42373340034405" class="err"/>
<circle cx="542.8861014781894" cy="111.2258133106528" r="2.5" class="obs"/>
<line x1="560.6913367497934" y1="90.43250923008526" x2="560.6913367497934" y2="123.62988807917581" class="err"/>
<line x1="557.6913367497934" y1="90.43250923008526" x2="563.6913367497934" y2="90.43250923008526" class="err"/>
<line x1="557.6913367497934" y1="123.62988807917581" x2="563.6913367497934" y2="123.62988807917581" class="err"/>
<circle cx="560.6913367497934" cy="107.03119865463053" r="2.5" class="obs"/>
<line x1="577.9728886310561" y1="93.75823942164578" x2="577.9728886310561" y2="125.0980032087836" class="err"/>
<line x1="574.9728886310561" y1="93.75823942164578" x2="580.9728886310561" y2="93.75823942164578" class="err"/>
<line x1="574.9728886310561" y1="125.0980032087836" x2="580.9728886310561" y2="125.0980032087836" class="err"/>
<circle cx="577.9728886310561" cy="109.4281213152147" r="2.5" class="obs"/>
<line x1="595.7781239026601" y1="86.50754837337871" x2="595.7781239026601" y2="125.1579262752982" class="err"/>
<line x1="592.7781239026601" y1="86.50754837337871" x2="598.7781239026601" y2="86.50754837337871" class="err"/>
<line x1="592.7781239026601" y1="125.1579262752982" x2="598.7781239026601" y2="125.1579262752982" class="err"/>
<circle cx="595.7781239026601" cy="105.83273732433844" r="2.5" class="obs"/>
<g class="legend">
<line x1="82" y1="69" x2="106" y2="69" class="fw"/>
<text x="112" y="73" class="lbl-l">framework fit</text>
<line x1="82" y1="87" x2="106" y2="87" class="nt"/>
<text x="112" y="91" class="lbl-l">Newtonian (no halo)</text>
<circle cx="94" cy="105" r="2.5" class="obs"/>
<text x="112" y="109" class="lbl">observed V±err</text>
</g>
<g class="legend">
<line x1="460" y1="69" x2="484" y2="69" class="rho"/>
<text x="490" y="73" class="lbl-r">ρ(r) raw</text>
<line x1="460" y1="87" x2="484" y2="87" class="sig"/>
<text x="490" y="91" class="lbl-r">Σ(r) smoothed</text>
<text x="460" y="113" class="lbl-r">ρ peak: 149 M☉/pc²</text>
</g>
</svg>