<svg xmlns="http://www.w3.org/2000/svg" viewBox="0 0 960 450" width="960" height="450" font-family="sans-serif" font-size="12">
<style>
  .ax { stroke: #333; stroke-width: 1; fill: none; }
  .grid { stroke: #ddd; stroke-width: 0.5; fill: none; }
  .lbl { fill: #333; }
  .lbl-l { fill: #0066cc; }
  .lbl-r { fill: #b03030; }
  .obs { fill: #222; }
  .err { stroke: #555; stroke-width: 0.8; fill: none; }
  .fw { stroke: #0066cc; stroke-width: 2.2; fill: none; }
  .nt { stroke: #cc6600; stroke-width: 1.6; fill: none; stroke-dasharray: 5,3; }
  .mond { stroke: #7b2cbf; stroke-width: 1.8; fill: none; stroke-dasharray: 7,3; }
  .lbl-p { fill: #cc7000; }
  .lbl-m { fill: #7b2cbf; }
  .rho { stroke: #b03030; stroke-width: 2.0; fill: none; }
  .phot { stroke: #cc7000; stroke-width: 1.8; fill: none; }
  .mbar { stroke: #8e44ad; stroke-width: 1.8; fill: none; opacity: 0.9; }
  .mph { stroke: #c77dff; stroke-width: 1.6; fill: none; stroke-dasharray: 4,3; opacity: 0.95; }
  .title { fill: #111; font-size: 16px; font-weight: 600; }
  .subtitle { fill: #555; font-size: 11px; }
  .preview-bg { fill: #000; }
  .preview-lbl { fill: #888; font-size: 10px; }
  .legend { font-size: 11px; }
</style>
<text x="378.5" y="22" text-anchor="middle" class="title">NGC2976</text>
<text x="378.5" y="38" text-anchor="middle" class="subtitle">rMax=2.3 kpc, N=27, FW=2.7 km/s, 11.3%, 0.75σ, MOND=5.4 km/s, 33.6%, 1.74σ, amp=636</text>
<line x1="70" y1="395.0" x2="687" y2="395.0" class="grid"/>
<text x="64" y="399.0" text-anchor="end" class="lbl-l">0</text>
<line x1="70" y1="327.0" x2="687" y2="327.0" class="grid"/>
<text x="64" y="331.0" text-anchor="end" class="lbl-l">20</text>
<line x1="70" y1="259.0" x2="687" y2="259.0" class="grid"/>
<text x="64" y="263.0" text-anchor="end" class="lbl-l">41</text>
<line x1="70" y1="191.0" x2="687" y2="191.0" class="grid"/>
<text x="64" y="195.0" text-anchor="end" class="lbl-l">61</text>
<line x1="70" y1="123.0" x2="687" y2="123.0" class="grid"/>
<text x="64" y="127.0" text-anchor="end" class="lbl-l">82</text>
<line x1="70" y1="55.0" x2="687" y2="55.0" class="grid"/>
<text x="64" y="59.0" text-anchor="end" class="lbl-l">102</text>
<text x="693" y="399.0" text-anchor="start" class="lbl-r">0.0</text>
<text x="693" y="353.7" text-anchor="start" class="lbl-r">0.2</text>
<text x="693" y="308.3" text-anchor="start" class="lbl-r">0.4</text>
<text x="693" y="263.0" text-anchor="start" class="lbl-r">0.6</text>
<text x="693" y="217.7" text-anchor="start" class="lbl-r">0.8</text>
<text x="693" y="172.3" text-anchor="start" class="lbl-r">1.0</text>
<line x1="70.0" y1="55" x2="70.0" y2="395" class="grid"/>
<text x="70.0" y="411" text-anchor="middle" class="lbl">0.0</text>
<line x1="172.8" y1="55" x2="172.8" y2="395" class="grid"/>
<text x="172.8" y="411" text-anchor="middle" class="lbl">0.5</text>
<line x1="275.7" y1="55" x2="275.7" y2="395" class="grid"/>
<text x="275.7" y="411" text-anchor="middle" class="lbl">1.1</text>
<line x1="378.5" y1="55" x2="378.5" y2="395" class="grid"/>
<text x="378.5" y="411" text-anchor="middle" class="lbl">1.6</text>
<line x1="481.3" y1="55" x2="481.3" y2="395" class="grid"/>
<text x="481.3" y="411" text-anchor="middle" class="lbl">2.2</text>
<line x1="584.2" y1="55" x2="584.2" y2="395" class="grid"/>
<text x="584.2" y="411" text-anchor="middle" class="lbl">2.7</text>
<line x1="687.0" y1="55" x2="687.0" y2="395" class="grid"/>
<text x="687.0" y="411" text-anchor="middle" class="lbl">3.2</text>
<text x="378.5" y="438" text-anchor="middle" class="lbl">radius (kpc)</text>
<text x="16" y="225" text-anchor="middle" class="lbl-l" transform="rotate(-90, 16, 225)">velocity (km/s)</text>
<text x="724" y="225" text-anchor="middle" class="lbl-r" transform="rotate(-90, 724, 225)">profiles (normalized to peak)</text>
<rect x="70" y="55" width="617" height="340" class="ax"/>
<path d="M 70.0,168.3 L 72.8,168.3 L 75.6,168.3 L 78.5,168.3 L 81.3,168.3 L 84.1,168.3 L 86.9,168.3 L 89.7,168.3 L 92.5,168.3 L 95.4,168.3 L 98.2,168.3 L 101.0,168.3 L 103.8,168.3 L 106.6,168.3 L 109.4,168.3 L 112.3,168.3 L 115.1,168.3 L 117.9,168.3 L 120.7,168.3 L 123.5,168.3 L 126.3,168.3 L 129.2,168.3 L 132.0,168.3 L 134.8,168.3 L 137.6,168.3 L 140.4,168.3 L 143.3,168.3 L 146.1,168.3 L 148.9,168.3 L 151.7,168.3 L 154.5,168.3 L 157.3,168.3 L 160.2,168.3 L 163.0,168.3 L 165.8,168.3 L 168.6,168.5 L 171.4,168.9 L 174.2,169.3 L 177.1,169.7 L 179.9,170.1 L 182.7,170.5 L 185.5,170.9 L 188.3,171.3 L 191.1,171.7 L 194.0,172.1 L 196.8,172.4 L 199.6,172.8 L 202.4,173.2 L 205.2,173.6 L 208.1,174.0 L 210.9,174.4 L 213.7,174.8 L 216.5,175.2 L 219.3,175.6 L 222.1,176.0 L 225.0,176.3 L 227.8,176.7 L 230.6,177.1 L 233.4,177.5 L 236.2,177.9 L 239.0,178.3 L 241.9,178.7 L 244.7,179.1 L 247.5,179.5 L 250.3,179.9 L 253.1,180.2 L 255.9,180.6 L 258.8,181.0 L 261.6,181.4 L 264.4,181.8 L 267.2,182.2 L 270.0,182.6 L 272.8,183.0 L 275.7,183.4 L 278.5,183.8 L 281.3,184.1 L 284.1,184.5 L 286.9,184.9 L 289.8,185.3 L 292.6,185.7 L 295.4,186.1 L 298.2,186.5 L 301.0,186.9 L 303.8,187.3 L 306.7,187.7 L 309.5,188.0 L 312.3,188.4 L 315.1,188.8 L 317.9,189.2 L 320.7,189.6 L 323.6,190.0 L 326.4,190.4 L 329.2,190.8 L 332.0,191.2 L 334.8,191.7 L 337.6,192.6 L 340.5,193.5 L 343.3,194.3 L 346.1,195.2 L 348.9,196.1 L 351.7,197.0 L 354.6,197.9 L 357.4,198.7 L 360.2,199.6 L 363.0,200.5 L 365.8,201.4 L 368.6,202.3 L 371.5,203.1 L 374.3,204.0 L 377.1,204.9 L 379.9,205.8 L 382.7,206.6 L 385.5,207.5 L 388.4,208.4 L 391.2,209.3 L 394.0,210.2 L 396.8,211.0 L 399.6,211.9 L 402.4,212.8 L 405.3,213.7 L 408.1,214.6 L 410.9,215.4 L 413.7,216.3 L 416.5,217.2 L 419.4,218.1 L 422.2,218.9 L 425.0,219.8 L 427.8,220.7 L 430.6,221.6 L 433.4,222.5 L 436.3,223.3 L 439.1,224.2 L 441.9,225.1 L 444.7,226.0 L 447.5,226.9 L 450.3,227.7 L 453.2,228.6 L 456.0,229.5 L 458.8,230.4 L 461.6,231.2 L 464.4,232.1 L 467.2,233.0 L 470.1,233.9 L 472.9,234.8 L 475.7,235.6 L 478.5,236.5 L 481.3,237.4 L 484.2,238.3 L 487.0,239.2 L 489.8,240.0 L 492.6,240.9 L 495.4,241.8 L 498.2,242.7 L 501.1,243.5 L 503.9,244.4 L 506.7,245.3 L 509.5,246.2 L 512.3,247.1 L 515.1,247.9 L 518.0,248.8 L 520.8,249.7 L 523.6,250.6 L 526.4,251.5 L 529.2,252.3 L 532.0,253.2 L 534.9,254.1 L 537.7,255.0 L 540.5,255.8 L 543.3,256.7 L 546.1,257.6 L 548.9,258.5 L 551.8,259.4 L 554.6,260.2 L 557.4,261.1 L 560.2,262.0 L 563.0,262.9 L 565.9,263.8 L 568.7,264.6 L 571.5,265.5 L 574.3,266.4 L 577.1,267.3 L 579.9,268.1 L 582.8,269.0 L 585.6,269.9 L 588.4,270.8 L 591.2,271.7 L 594.0,272.5 L 596.8,273.4 L 599.7,274.3 L 602.5,275.2 L 605.3,276.1 L 608.1,276.9 L 610.9,277.8 L 613.7,283.6 L 616.6,290.7 L 619.4,297.9 L 622.2,305.0 L 625.0,312.2 L 627.8,319.3 L 630.7,326.5 L 633.5,333.7 L 636.3,340.8 L 639.1,348.0 L 641.9,355.1 L 644.7,362.3 L 647.6,369.4 L 650.4,376.6 L 653.2,383.8 L 656.0,390.9 L 658.8,395.0 L 661.6,395.0 L 664.5,395.0 L 667.3,395.0 L 670.1,395.0 L 672.9,395.0 L 675.7,395.0 L 678.5,395.0 L 681.4,395.0 L 684.2,395.0 L 687.0,395.0" class="rho"/>
<path d="M 90.9,168.3 L 102.3,177.5 L 115.7,195.3 L 129.0,210.4 L 142.3,221.9 L 155.6,228.4 L 168.9,233.0 L 182.2,238.4 L 195.6,244.5 L 208.9,249.0 L 222.2,253.7 L 235.5,256.8 L 248.8,256.3 L 262.1,254.7 L 275.4,260.6 L 286.9,265.1 L 300.2,265.7 L 315.4,272.8 L 326.8,280.2 L 340.1,288.0 L 353.4,296.7 L 366.8,307.2 L 380.1,319.0 L 401.0,338.5 L 437.1,362.0 L 469.5,369.0 L 501.8,371.5" class="phot"/>
<path d="M 90.9,346.1 L 102.3,339.8 L 115.7,331.0 L 129.0,324.9 L 142.3,321.2 L 155.6,316.5 L 168.9,310.1 L 182.2,303.4 L 195.6,298.0 L 208.9,293.5 L 222.2,289.1 L 235.5,282.4 L 248.8,268.8 L 262.1,249.2 L 275.4,232.0 L 286.9,216.1 L 300.2,197.0 L 315.4,180.1 L 326.8,171.1 L 340.1,169.3 L 353.4,168.3 L 366.8,173.2 L 380.1,195.0 L 401.0,249.5 L 437.1,324.3 L 469.5,363.7 L 501.8,365.5" class="mbar"/>
<path d="M 90.9,260.9 L 102.3,254.6 L 115.7,246.3 L 129.0,241.1 L 142.3,238.4 L 155.6,234.9 L 168.9,230.2 L 182.2,225.7 L 195.6,222.3 L 208.9,219.7 L 222.2,217.2 L 235.5,213.4 L 248.8,205.9 L 262.1,195.7 L 275.4,187.8 L 286.9,181.7 L 300.2,174.8 L 315.4,169.8 L 326.8,168.3 L 340.1,169.5 L 353.4,170.6 L 366.8,173.3 L 380.1,181.1 L 401.0,200.3 L 437.1,228.7 L 469.5,247.9 L 501.8,253.0" class="mph"/>
<path d="M 76.2,362.6 L 82.3,349.1 L 88.5,338.8 L 94.7,330.1 L 100.8,322.5 L 107.0,315.5 L 113.2,309.2 L 119.4,303.2 L 125.5,297.7 L 131.7,292.4 L 137.9,287.4 L 144.0,282.6 L 150.2,278.0 L 156.4,273.6 L 162.6,269.4 L 168.7,265.2 L 174.9,261.3 L 181.1,257.4 L 187.2,253.7 L 193.4,250.2 L 199.6,246.7 L 205.7,243.3 L 211.9,240.0 L 218.1,236.8 L 224.3,233.7 L 230.4,230.7 L 236.6,227.7 L 242.8,224.8 L 248.9,222.0 L 255.1,219.2 L 261.3,216.5 L 267.4,213.9 L 273.6,211.3 L 279.8,208.7 L 286.0,206.2 L 292.1,203.8 L 298.3,201.4 L 304.5,199.0 L 310.6,196.7 L 316.8,194.4 L 323.0,192.2 L 329.1,190.0 L 335.3,187.8 L 341.5,185.7 L 347.7,183.6 L 353.8,181.6 L 360.0,179.7 L 366.2,177.8 L 372.3,175.9 L 378.5,174.1 L 384.7,172.4 L 390.8,170.7 L 397.0,169.0 L 403.2,167.4 L 409.3,165.8 L 415.5,164.3 L 421.7,162.8 L 427.9,161.3 L 434.0,159.9 L 440.2,158.5 L 446.4,157.1 L 452.5,155.8 L 458.7,154.5 L 464.9,153.2 L 471.1,152.0 L 477.2,150.8 L 483.4,149.7 L 489.6,148.6 L 495.7,147.5 L 501.9,146.4 L 508.1,145.4 L 514.2,144.4 L 520.4,143.4 L 526.6,142.4 L 532.8,141.5 L 538.9,140.6 L 545.1,139.8 L 551.3,138.9 L 557.4,138.1 L 563.6,137.4 L 569.8,136.6 L 575.9,135.9 L 582.1,135.2 L 588.3,134.5 L 594.4,133.8 L 600.6,133.2 L 606.8,132.6 L 613.0,132.0 L 619.1,131.7 L 625.3,131.6 L 631.5,131.7 L 637.6,132.1 L 643.8,132.8 L 650.0,133.7 L 656.1,134.9 L 662.3,136.2 L 668.5,137.5 L 674.7,138.9 L 680.8,140.2 L 687.0,141.4" class="nt"/>
<path d="M 90.9,346.8 L 102.3,333.5 L 115.7,319.0 L 129.0,306.5 L 142.3,295.4 L 155.6,285.1 L 168.9,274.9 L 182.2,264.9 L 195.6,255.2 L 208.9,246.0 L 222.2,237.1 L 235.5,228.3 L 248.8,219.2 L 262.1,208.7 L 275.4,197.9 L 286.9,188.7 L 300.2,177.1 L 315.4,164.0 L 326.8,154.3 L 340.1,143.9 L 353.4,134.1 L 366.8,124.6 L 380.1,117.0 L 401.0,107.9 L 437.1,107.0 L 469.5,108.0 L 501.8,107.6" class="mond"/>
<path d="M 75.1,390.3 L 80.3,386.2 L 85.4,382.2 L 90.6,378.3 L 95.7,374.4 L 100.8,370.4 L 106.0,366.3 L 111.1,362.1 L 116.3,357.7 L 121.4,353.2 L 126.6,348.6 L 131.7,343.8 L 136.8,338.8 L 142.0,333.5 L 147.1,328.0 L 152.3,322.2 L 157.4,316.2 L 162.6,310.0 L 167.7,303.7 L 172.8,297.6 L 178.0,291.7 L 183.1,286.1 L 188.3,280.9 L 193.4,276.0 L 198.5,271.3 L 203.7,266.9 L 208.8,262.7 L 214.0,258.6 L 219.1,254.6 L 224.3,250.8 L 229.4,247.0 L 234.5,243.3 L 239.7,239.7 L 244.8,236.1 L 250.0,232.6 L 255.1,229.1 L 260.2,225.5 L 265.4,222.0 L 270.5,218.5 L 275.7,214.9 L 280.8,211.2 L 286.0,207.5 L 291.1,203.7 L 296.2,199.7 L 301.4,195.6 L 306.5,191.3 L 311.7,186.7 L 316.8,181.9 L 321.9,176.8 L 327.1,171.4 L 332.2,165.9 L 337.4,160.4 L 342.5,155.2 L 347.7,150.4 L 352.8,146.1 L 357.9,142.2 L 363.1,138.7 L 368.2,135.6 L 373.4,132.8 L 378.5,130.2 L 383.6,127.9 L 388.8,125.8 L 393.9,123.9 L 399.1,122.2 L 404.2,120.6 L 409.4,119.2 L 414.5,117.9 L 419.6,116.6 L 424.8,115.6 L 429.9,114.6 L 435.1,113.7 L 440.2,112.9 L 445.3,112.1 L 450.5,111.5 L 455.6,110.9 L 460.8,110.4 L 465.9,110.0 L 471.1,109.6 L 476.2,109.3 L 481.3,109.0 L 486.5,108.8 L 491.6,108.6 L 496.8,108.5 L 501.9,108.3 L 507.0,108.2 L 512.2,108.2 L 517.3,108.1 L 522.5,108.0 L 527.6,107.9 L 532.8,107.7 L 537.9,107.5 L 543.0,107.2 L 548.2,106.8 L 553.3,106.3 L 558.5,105.6 L 563.6,104.6 L 568.7,103.3 L 573.9,101.6 L 579.0,99.3 L 584.2,96.4 L 589.3,92.7 L 594.4,88.2 L 599.6,83.1 L 604.7,78.0 L 609.9,73.7 L 615.0,71.3 L 620.2,71.9 L 625.3,75.9 L 630.4,83.1 L 635.6,92.9 L 640.7,104.5 L 645.9,116.9 L 651.0,129.4 L 656.2,141.4 L 661.3,152.5 L 666.4,162.5 L 671.6,171.5 L 676.7,179.6 L 681.9,186.8 L 687.0,193.3" class="fw"/>
<line x1="90.93" y1="360.42" x2="90.93" y2="384.45" class="err"/>
<line x1="87.93" y1="360.42" x2="93.93" y2="360.42" class="err"/>
<line x1="87.93" y1="384.45" x2="93.93" y2="384.45" class="err"/>
<circle cx="90.93" cy="372.43" r="2.5" class="obs"/>
<line x1="102.34" y1="349.17" x2="102.34" y2="377.78" class="err"/>
<line x1="99.34" y1="349.17" x2="105.34" y2="349.17" class="err"/>
<line x1="99.34" y1="377.78" x2="105.34" y2="377.78" class="err"/>
<circle cx="102.34" cy="363.47" r="2.5" class="obs"/>
<line x1="115.65" y1="338.22" x2="115.65" y2="358.86" class="err"/>
<line x1="112.65" y1="338.22" x2="118.65" y2="338.22" class="err"/>
<line x1="112.65" y1="358.86" x2="118.65" y2="358.86" class="err"/>
<circle cx="115.65" cy="348.54" r="2.5" class="obs"/>
<line x1="128.97" y1="311.04" x2="128.97" y2="347.54" class="err"/>
<line x1="125.97" y1="311.04" x2="131.97" y2="311.04" class="err"/>
<line x1="125.97" y1="347.54" x2="131.97" y2="347.54" class="err"/>
<circle cx="128.97" cy="329.29" r="2.5" class="obs"/>
<line x1="142.29" y1="295.44" x2="142.29" y2="321.33" class="err"/>
<line x1="139.29" y1="295.44" x2="145.29" y2="295.44" class="err"/>
<line x1="139.29" y1="321.33" x2="145.29" y2="321.33" class="err"/>
<circle cx="142.29" cy="308.39" r="2.5" class="obs"/>
<line x1="155.60" y1="288.14" x2="155.60" y2="311.37" class="err"/>
<line x1="152.60" y1="288.14" x2="158.60" y2="288.14" class="err"/>
<line x1="152.60" y1="311.37" x2="158.60" y2="311.37" class="err"/>
<circle cx="155.60" cy="299.76" r="2.5" class="obs"/>
<line x1="168.92" y1="290.80" x2="168.92" y2="308.72" class="err"/>
<line x1="165.92" y1="290.80" x2="171.92" y2="290.80" class="err"/>
<line x1="165.92" y1="308.72" x2="171.92" y2="308.72" class="err"/>
<circle cx="168.92" cy="299.76" r="2.5" class="obs"/>
<line x1="182.24" y1="281.51" x2="182.24" y2="298.10" class="err"/>
<line x1="179.24" y1="281.51" x2="185.24" y2="281.51" class="err"/>
<line x1="179.24" y1="298.10" x2="185.24" y2="298.10" class="err"/>
<circle cx="182.24" cy="289.80" r="2.5" class="obs"/>
<line x1="195.55" y1="269.56" x2="195.55" y2="284.82" class="err"/>
<line x1="192.55" y1="269.56" x2="198.55" y2="269.56" class="err"/>
<line x1="192.55" y1="284.82" x2="198.55" y2="284.82" class="err"/>
<circle cx="195.55" cy="277.19" r="2.5" class="obs"/>
<line x1="208.87" y1="257.28" x2="208.87" y2="271.22" class="err"/>
<line x1="205.87" y1="257.28" x2="211.87" y2="257.28" class="err"/>
<line x1="205.87" y1="271.22" x2="211.87" y2="271.22" class="err"/>
<circle cx="208.87" cy="264.25" r="2.5" class="obs"/>
<line x1="222.18" y1="245.00" x2="222.18" y2="260.27" class="err"/>
<line x1="219.18" y1="245.00" x2="225.18" y2="245.00" class="err"/>
<line x1="219.18" y1="260.27" x2="225.18" y2="260.27" class="err"/>
<circle cx="222.18" cy="252.63" r="2.5" class="obs"/>
<line x1="235.50" y1="233.72" x2="235.50" y2="250.97" class="err"/>
<line x1="232.50" y1="233.72" x2="238.50" y2="233.72" class="err"/>
<line x1="232.50" y1="250.97" x2="238.50" y2="250.97" class="err"/>
<circle cx="235.50" cy="242.35" r="2.5" class="obs"/>
<line x1="248.82" y1="221.77" x2="248.82" y2="242.35" class="err"/>
<line x1="245.82" y1="221.77" x2="251.82" y2="221.77" class="err"/>
<line x1="245.82" y1="242.35" x2="251.82" y2="242.35" class="err"/>
<circle cx="248.82" cy="232.06" r="2.5" class="obs"/>
<line x1="262.13" y1="221.11" x2="262.13" y2="242.35" class="err"/>
<line x1="259.13" y1="221.11" x2="265.13" y2="221.11" class="err"/>
<line x1="259.13" y1="242.35" x2="265.13" y2="242.35" class="err"/>
<circle cx="262.13" cy="231.73" r="2.5" class="obs"/>
<line x1="275.45" y1="213.81" x2="275.45" y2="235.05" class="err"/>
<line x1="272.45" y1="213.81" x2="278.45" y2="213.81" class="err"/>
<line x1="272.45" y1="235.05" x2="278.45" y2="235.05" class="err"/>
<circle cx="275.45" cy="224.43" r="2.5" class="obs"/>
<line x1="286.86" y1="194.89" x2="286.86" y2="215.47" class="err"/>
<line x1="283.86" y1="194.89" x2="289.86" y2="194.89" class="err"/>
<line x1="283.86" y1="215.47" x2="289.86" y2="215.47" class="err"/>
<circle cx="286.86" cy="205.18" r="2.5" class="obs"/>
<line x1="300.18" y1="173.65" x2="300.18" y2="192.90" class="err"/>
<line x1="297.18" y1="173.65" x2="303.18" y2="173.65" class="err"/>
<line x1="297.18" y1="192.90" x2="303.18" y2="192.90" class="err"/>
<circle cx="300.18" cy="183.28" r="2.5" class="obs"/>
<line x1="315.40" y1="160.71" x2="315.40" y2="179.29" class="err"/>
<line x1="312.40" y1="160.71" x2="318.40" y2="160.71" class="err"/>
<line x1="312.40" y1="179.29" x2="318.40" y2="179.29" class="err"/>
<circle cx="315.40" cy="170.00" r="2.5" class="obs"/>
<line x1="326.81" y1="152.41" x2="326.81" y2="174.32" class="err"/>
<line x1="323.81" y1="152.41" x2="329.81" y2="152.41" class="err"/>
<line x1="323.81" y1="174.32" x2="329.81" y2="174.32" class="err"/>
<circle cx="326.81" cy="163.36" r="2.5" class="obs"/>
<line x1="340.13" y1="144.12" x2="340.13" y2="170.00" class="err"/>
<line x1="337.13" y1="144.12" x2="343.13" y2="144.12" class="err"/>
<line x1="337.13" y1="170.00" x2="343.13" y2="170.00" class="err"/>
<circle cx="340.13" cy="157.06" r="2.5" class="obs"/>
<line x1="353.44" y1="134.49" x2="353.44" y2="163.70" class="err"/>
<line x1="350.44" y1="134.49" x2="356.44" y2="134.49" class="err"/>
<line x1="350.44" y1="163.70" x2="356.44" y2="163.70" class="err"/>
<circle cx="353.44" cy="149.09" r="2.5" class="obs"/>
<line x1="366.76" y1="124.54" x2="366.76" y2="156.40" class="err"/>
<line x1="363.76" y1="124.54" x2="369.76" y2="124.54" class="err"/>
<line x1="363.76" y1="156.40" x2="369.76" y2="156.40" class="err"/>
<circle cx="366.76" cy="140.47" r="2.5" class="obs"/>
<line x1="380.07" y1="115.25" x2="380.07" y2="144.45" class="err"/>
<line x1="377.07" y1="115.25" x2="383.07" y2="115.25" class="err"/>
<line x1="377.07" y1="144.45" x2="383.07" y2="144.45" class="err"/>
<circle cx="380.07" cy="129.85" r="2.5" class="obs"/>
<line x1="401.00" y1="106.45" x2="401.00" y2="128.69" class="err"/>
<line x1="398.00" y1="106.45" x2="404.00" y2="106.45" class="err"/>
<line x1="398.00" y1="128.69" x2="404.00" y2="128.69" class="err"/>
<circle cx="401.00" cy="117.57" r="2.5" class="obs"/>
<line x1="437.14" y1="103.46" x2="437.14" y2="129.68" class="err"/>
<line x1="434.14" y1="103.46" x2="440.14" y2="103.46" class="err"/>
<line x1="434.14" y1="129.68" x2="440.14" y2="129.68" class="err"/>
<circle cx="437.14" cy="116.57" r="2.5" class="obs"/>
<line x1="469.48" y1="85.91" x2="469.48" y2="115.38" class="err"/>
<line x1="466.48" y1="85.91" x2="472.48" y2="85.91" class="err"/>
<line x1="466.48" y1="115.38" x2="472.48" y2="115.38" class="err"/>
<circle cx="469.48" cy="100.64" r="2.5" class="obs"/>
<line x1="501.82" y1="94.14" x2="501.82" y2="129.71" class="err"/>
<line x1="498.82" y1="94.14" x2="504.82" y2="94.14" class="err"/>
<line x1="498.82" y1="129.71" x2="504.82" y2="129.71" class="err"/>
<circle cx="501.82" cy="111.93" r="2.5" class="obs"/>
<g class="legend">
<line x1="82" y1="69" x2="106" y2="69" class="fw"/>
<text x="112" y="73" class="lbl-l">framework: 2.7 km/s, 11.3%, 0.75σ</text>
<line x1="82" y1="87" x2="106" y2="87" class="nt"/>
<text x="112" y="91" class="lbl-l">Newtonian: 9.6 km/s, 48.6%, 2.74σ</text>
<line x1="82" y1="105" x2="106" y2="105" class="mond"/>
<text x="112" y="109" class="lbl-m">MOND/RAR: 5.4 km/s, 33.6%, 1.74σ</text>
<circle cx="94" cy="123" r="2.5" class="obs"/>
<text x="112" y="127" class="lbl">observed V±err</text>
</g>
<g class="legend">
<line x1="472" y1="69" x2="496" y2="69" class="rho"/>
<text x="502" y="73" class="lbl-r">ρ(r) raw</text>
<line x1="472" y1="87" x2="496" y2="87" class="phot"/>
<text x="502" y="91" class="lbl-p">photometric baryonic profile</text>
<line x1="472" y1="105" x2="496" y2="105" class="mbar"/>
<text x="502" y="109" class="lbl-m">MOND baryonic annulus</text>
<line x1="472" y1="123" x2="496" y2="123" class="mph"/>
<text x="502" y="127" class="lbl-m">MOND phantom annulus</text>
<text x="472" y="147" class="lbl-r">ρ peak: 218 M☉/pc²</text>
<text x="472" y="163" class="lbl-p">phot peak: 200.62 (arb.)</text>
<text x="472" y="179" class="lbl-m">Σbar peak: 235.63 M☉/pc²</text>
<text x="472" y="195" class="lbl-m">Σphantom peak: 159.58 M☉/pc²</text>
</g>
<rect x="775" y="55" width="170" height="170" class="preview-bg"/>
<defs><radialGradient id="g_NGC2976" cx="0.5" cy="0.5" r="0.5">
  <stop offset="0.0000" stop-color="rgb(96,96,96)"/>
  <stop offset="0.0313" stop-color="rgb(96,96,96)"/>
  <stop offset="0.0625" stop-color="rgb(96,96,96)"/>
  <stop offset="0.0938" stop-color="rgb(96,96,96)"/>
  <stop offset="0.1250" stop-color="rgb(96,96,96)"/>
  <stop offset="0.1563" stop-color="rgb(96,96,96)"/>
  <stop offset="0.1875" stop-color="rgb(96,96,96)"/>
  <stop offset="0.2188" stop-color="rgb(95,95,95)"/>
  <stop offset="0.2500" stop-color="rgb(94,94,94)"/>
  <stop offset="0.2813" stop-color="rgb(94,94,94)"/>
  <stop offset="0.3125" stop-color="rgb(93,93,93)"/>
  <stop offset="0.3438" stop-color="rgb(92,92,92)"/>
  <stop offset="0.3750" stop-color="rgb(92,92,92)"/>
  <stop offset="0.4063" stop-color="rgb(91,91,91)"/>
  <stop offset="0.4375" stop-color="rgb(90,90,90)"/>
  <stop offset="0.4688" stop-color="rgb(89,89,89)"/>
  <stop offset="0.5000" stop-color="rgb(87,87,87)"/>
  <stop offset="0.5313" stop-color="rgb(86,86,86)"/>
  <stop offset="0.5625" stop-color="rgb(84,84,84)"/>
  <stop offset="0.5938" stop-color="rgb(83,83,83)"/>
  <stop offset="0.6250" stop-color="rgb(81,81,81)"/>
  <stop offset="0.6563" stop-color="rgb(80,80,80)"/>
  <stop offset="0.6875" stop-color="rgb(78,78,78)"/>
  <stop offset="0.7188" stop-color="rgb(77,77,77)"/>
  <stop offset="0.7500" stop-color="rgb(75,75,75)"/>
  <stop offset="0.7813" stop-color="rgb(74,74,74)"/>
  <stop offset="0.8125" stop-color="rgb(72,72,72)"/>
  <stop offset="0.8438" stop-color="rgb(71,71,71)"/>
  <stop offset="0.8750" stop-color="rgb(69,69,69)"/>
  <stop offset="0.9063" stop-color="rgb(68,68,68)"/>
  <stop offset="0.9375" stop-color="rgb(57,57,57)"/>
  <stop offset="0.9688" stop-color="rgb(29,29,29)"/>
  <stop offset="1.0000" stop-color="rgb(0,0,0)"/>
</radialGradient></defs>
<circle cx="860" cy="140" r="81" fill="url(#g_NGC2976)"/>
<text x="860" y="49" text-anchor="middle" class="preview-lbl">face-on luminance from ρ(r)</text>
<text x="860" y="239" text-anchor="middle" class="preview-lbl">edge at r = 3.1 kpc</text>
</svg>