<svg xmlns="http://www.w3.org/2000/svg" viewBox="0 0 890 420" width="890" height="420" font-family="sans-serif" font-size="12">
<style>
  .ax { stroke: #333; stroke-width: 1; fill: none; }
  .grid { stroke: #ddd; stroke-width: 0.5; fill: none; }
  .lbl { fill: #333; }
  .lbl-l { fill: #0066cc; }
  .lbl-r { fill: #b03030; }
  .obs { fill: #222; }
  .err { stroke: #555; stroke-width: 0.8; fill: none; }
  .fw { stroke: #0066cc; stroke-width: 2.2; fill: none; }
  .nt { stroke: #cc6600; stroke-width: 1.6; fill: none; stroke-dasharray: 5,3; }
  .lbl-s { fill: #cc7000; }
  .rho { stroke: #b03030; stroke-width: 2.0; fill: none; }
  .sig { stroke: #cc7000; stroke-width: 1.8; fill: none; }
  .title { fill: #111; font-size: 16px; font-weight: 600; }
  .subtitle { fill: #555; font-size: 11px; }
  .preview-bg { fill: #000; }
  .preview-lbl { fill: #888; font-size: 10px; }
  .legend { font-size: 11px; }
</style>
<text x="343.5" y="22" text-anchor="middle" class="title">NGC2998</text>
<text x="343.5" y="38" text-anchor="middle" class="subtitle">rMax=42.3 kpc, N=13, RMS=16.5 km/s (8.8%), amp=694</text>
<line x1="70" y1="365.0" x2="617" y2="365.0" class="grid"/>
<text x="64" y="369.0" text-anchor="end" class="lbl-l">0</text>
<line x1="70" y1="303.0" x2="617" y2="303.0" class="grid"/>
<text x="64" y="307.0" text-anchor="end" class="lbl-l">51</text>
<line x1="70" y1="241.0" x2="617" y2="241.0" class="grid"/>
<text x="64" y="245.0" text-anchor="end" class="lbl-l">102</text>
<line x1="70" y1="179.0" x2="617" y2="179.0" class="grid"/>
<text x="64" y="183.0" text-anchor="end" class="lbl-l">153</text>
<line x1="70" y1="117.0" x2="617" y2="117.0" class="grid"/>
<text x="64" y="121.0" text-anchor="end" class="lbl-l">204</text>
<line x1="70" y1="55.0" x2="617" y2="55.0" class="grid"/>
<text x="64" y="59.0" text-anchor="end" class="lbl-l">255</text>
<text x="623" y="369.0" text-anchor="start" class="lbl-r">0.0</text>
<text x="623" y="327.7" text-anchor="start" class="lbl-r">0.2</text>
<text x="623" y="286.3" text-anchor="start" class="lbl-r">0.4</text>
<text x="623" y="245.0" text-anchor="start" class="lbl-r">0.6</text>
<text x="623" y="203.7" text-anchor="start" class="lbl-r">0.8</text>
<text x="623" y="162.3" text-anchor="start" class="lbl-r">1.0</text>
<line x1="70.0" y1="55" x2="70.0" y2="365" class="grid"/>
<text x="70.0" y="381" text-anchor="middle" class="lbl">0.0</text>
<line x1="161.2" y1="55" x2="161.2" y2="365" class="grid"/>
<text x="161.2" y="381" text-anchor="middle" class="lbl">10.1</text>
<line x1="252.3" y1="55" x2="252.3" y2="365" class="grid"/>
<text x="252.3" y="381" text-anchor="middle" class="lbl">20.3</text>
<line x1="343.5" y1="55" x2="343.5" y2="365" class="grid"/>
<text x="343.5" y="381" text-anchor="middle" class="lbl">30.4</text>
<line x1="434.7" y1="55" x2="434.7" y2="365" class="grid"/>
<text x="434.7" y="381" text-anchor="middle" class="lbl">40.5</text>
<line x1="525.8" y1="55" x2="525.8" y2="365" class="grid"/>
<text x="525.8" y="381" text-anchor="middle" class="lbl">50.7</text>
<line x1="617.0" y1="55" x2="617.0" y2="365" class="grid"/>
<text x="617.0" y="381" text-anchor="middle" class="lbl">60.8</text>
<text x="343.5" y="408" text-anchor="middle" class="lbl">radius (kpc)</text>
<text x="16" y="210" text-anchor="middle" class="lbl-l" transform="rotate(-90, 16, 210)">velocity (km/s)</text>
<text x="654" y="210" text-anchor="middle" class="lbl-r" transform="rotate(-90, 654, 210)">mass profile (normalized to peak)</text>
<rect x="70" y="55" width="547" height="310" class="ax"/>
<path d="M 70.0,158.3 L 72.5,175.2 L 75.0,192.2 L 77.5,209.1 L 80.0,226.0 L 82.5,242.9 L 85.0,259.8 L 87.5,276.7 L 90.0,283.7 L 92.5,286.3 L 95.0,288.9 L 97.5,291.5 L 100.0,294.1 L 102.5,296.7 L 105.0,299.3 L 107.5,301.8 L 110.0,304.4 L 112.5,307.0 L 115.0,309.6 L 117.5,312.2 L 120.0,313.6 L 122.5,313.9 L 124.9,314.2 L 127.4,314.5 L 129.9,314.8 L 132.4,315.0 L 134.9,315.3 L 137.4,315.6 L 139.9,315.9 L 142.4,316.2 L 144.9,316.5 L 147.4,316.8 L 149.9,317.1 L 152.4,317.3 L 154.9,317.6 L 157.4,317.9 L 159.9,318.2 L 162.4,318.5 L 164.9,318.8 L 167.4,319.1 L 169.9,319.4 L 172.4,319.6 L 174.9,319.9 L 177.4,320.2 L 179.9,320.5 L 182.4,320.8 L 184.9,321.1 L 187.4,321.4 L 189.9,321.7 L 192.4,321.9 L 194.9,322.2 L 197.4,322.5 L 199.9,322.8 L 202.4,323.1 L 204.9,323.4 L 207.4,323.7 L 209.9,324.0 L 212.4,324.2 L 214.9,324.5 L 217.4,324.8 L 219.9,325.1 L 222.4,325.4 L 224.9,325.7 L 227.4,326.0 L 229.9,326.3 L 232.4,326.5 L 234.8,326.8 L 237.3,327.1 L 239.8,327.4 L 242.3,327.7 L 244.8,328.0 L 247.3,328.3 L 249.8,328.6 L 252.3,328.8 L 254.8,329.1 L 257.3,329.4 L 259.8,329.7 L 262.3,330.0 L 264.8,330.3 L 267.3,330.6 L 269.8,330.9 L 272.3,331.1 L 274.8,331.3 L 277.3,331.5 L 279.8,331.6 L 282.3,331.8 L 284.8,332.0 L 287.3,332.2 L 289.8,332.4 L 292.3,332.6 L 294.8,332.7 L 297.3,332.9 L 299.8,333.1 L 302.3,333.3 L 304.8,333.5 L 307.3,333.7 L 309.8,333.8 L 312.3,334.0 L 314.8,334.2 L 317.3,334.4 L 319.8,334.6 L 322.3,334.8 L 324.8,334.9 L 327.3,335.1 L 329.8,335.3 L 332.3,335.5 L 334.8,335.7 L 337.3,335.9 L 339.8,336.1 L 342.3,336.2 L 344.7,336.4 L 347.2,336.6 L 349.7,336.8 L 352.2,337.0 L 354.7,337.2 L 357.2,337.3 L 359.7,337.5 L 362.2,337.7 L 364.7,337.9 L 367.2,338.1 L 369.7,338.3 L 372.2,338.4 L 374.7,338.6 L 377.2,338.8 L 379.7,339.0 L 382.2,339.3 L 384.7,339.6 L 387.2,339.9 L 389.7,340.2 L 392.2,340.5 L 394.7,340.8 L 397.2,341.2 L 399.7,341.5 L 402.2,341.8 L 404.7,342.1 L 407.2,342.4 L 409.7,342.7 L 412.2,343.0 L 414.7,343.3 L 417.2,343.6 L 419.7,343.9 L 422.2,344.2 L 424.7,344.5 L 427.2,344.8 L 429.7,345.2 L 432.2,345.5 L 434.7,345.8 L 437.2,346.1 L 439.7,346.4 L 442.2,346.7 L 444.7,347.0 L 447.2,347.3 L 449.7,347.6 L 452.2,347.9 L 454.6,348.2 L 457.1,348.5 L 459.6,348.8 L 462.1,349.1 L 464.6,349.5 L 467.1,349.8 L 469.6,350.1 L 472.1,350.4 L 474.6,350.7 L 477.1,351.0 L 479.6,351.3 L 482.1,351.6 L 484.6,351.9 L 487.1,352.2 L 489.6,352.5 L 492.1,352.8 L 494.6,353.1 L 497.1,353.5 L 499.6,353.8 L 502.1,354.1 L 504.6,354.4 L 507.1,354.7 L 509.6,355.0 L 512.1,355.3 L 514.6,355.6 L 517.1,355.9 L 519.6,356.2 L 522.1,356.5 L 524.6,356.8 L 527.1,357.1 L 529.6,357.4 L 532.1,357.8 L 534.6,358.1 L 537.1,358.4 L 539.6,358.7 L 542.1,359.0 L 544.6,359.3 L 547.1,359.6 L 549.6,359.9 L 552.1,360.2 L 554.6,360.5 L 557.1,360.8 L 559.6,361.1 L 562.1,361.4 L 564.5,361.8 L 567.0,362.1 L 569.5,362.4 L 572.0,362.7 L 574.5,363.0 L 577.0,363.3 L 579.5,363.6 L 582.0,363.9 L 584.5,364.2 L 587.0,364.5 L 589.5,364.8 L 592.0,365.0 L 594.5,365.0 L 597.0,365.0 L 599.5,365.0 L 602.0,365.0 L 604.5,365.0 L 607.0,365.0 L 609.5,365.0 L 612.0,365.0 L 614.5,365.0 L 617.0,365.0" class="rho"/>
<path d="M 70.0,158.3 L 72.5,159.3 L 75.0,161.2 L 77.5,164.0 L 80.0,167.5 L 82.5,171.7 L 85.0,176.3 L 87.5,181.1 L 90.0,186.1 L 92.5,191.0 L 95.0,195.8 L 97.5,200.4 L 100.0,204.9 L 102.5,209.3 L 105.0,213.4 L 107.5,217.3 L 110.0,221.1 L 112.5,224.7 L 115.0,228.1 L 117.5,231.3 L 120.0,234.3 L 122.5,237.2 L 124.9,239.9 L 127.4,242.4 L 129.9,244.9 L 132.4,247.2 L 134.9,249.3 L 137.4,251.4 L 139.9,253.4 L 142.4,255.4 L 144.9,257.2 L 147.4,259.0 L 149.9,260.7 L 152.4,262.4 L 154.9,264.0 L 157.4,265.5 L 159.9,267.0 L 162.4,268.5 L 164.9,270.0 L 167.4,271.4 L 169.9,272.7 L 172.4,274.1 L 174.9,275.4 L 177.4,276.7 L 179.9,278.0 L 182.4,279.2 L 184.9,280.4 L 187.4,281.6 L 189.9,282.8 L 192.4,284.0 L 194.9,285.1 L 197.4,286.3 L 199.9,287.4 L 202.4,288.5 L 204.9,289.6 L 207.4,290.6 L 209.9,291.7 L 212.4,292.7 L 214.9,293.8 L 217.4,294.8 L 219.9,295.8 L 222.4,296.8 L 224.9,297.7 L 227.4,298.7 L 229.9,299.6 L 232.4,300.6 L 234.8,301.5 L 237.3,302.4 L 239.8,303.3 L 242.3,304.2 L 244.8,305.1 L 247.3,305.9 L 249.8,306.8 L 252.3,307.6 L 254.8,308.5 L 257.3,309.3 L 259.8,310.1 L 262.3,310.9 L 264.8,311.6 L 267.3,312.4 L 269.8,313.2 L 272.3,313.9 L 274.8,314.6 L 277.3,315.3 L 279.8,316.0 L 282.3,316.7 L 284.8,317.4 L 287.3,318.1 L 289.8,318.7 L 292.3,319.4 L 294.8,320.0 L 297.3,320.6 L 299.8,321.3 L 302.3,321.9 L 304.8,322.5 L 307.3,323.1 L 309.8,323.7 L 312.3,324.2 L 314.8,324.8 L 317.3,325.4 L 319.8,325.9 L 322.3,326.5 L 324.8,327.1 L 327.3,327.6 L 329.8,328.1 L 332.3,328.7 L 334.8,329.2 L 337.3,329.7 L 339.8,330.2 L 342.3,330.8 L 344.7,331.3 L 347.2,331.8 L 349.7,332.3 L 352.2,332.8 L 354.7,333.3 L 357.2,333.8 L 359.7,334.2 L 362.2,334.7 L 364.7,335.2 L 367.2,335.7 L 369.7,336.2 L 372.2,336.6 L 374.7,337.1 L 377.2,337.6 L 379.7,338.0 L 382.2,338.5 L 384.7,339.0 L 387.2,339.4 L 389.7,339.9 L 392.2,340.3 L 394.7,340.8 L 397.2,341.2 L 399.7,341.7 L 402.2,342.1 L 404.7,342.5 L 407.2,343.0 L 409.7,343.4 L 412.2,343.8 L 414.7,344.2 L 417.2,344.6 L 419.7,345.0 L 422.2,345.4 L 424.7,345.8 L 427.2,346.2 L 429.7,346.6 L 432.2,346.9 L 434.7,347.3 L 437.2,347.7 L 439.7,348.0 L 442.2,348.4 L 444.7,348.7 L 447.2,349.0 L 449.7,349.4 L 452.2,349.7 L 454.6,350.0 L 457.1,350.3 L 459.6,350.6 L 462.1,350.9 L 464.6,351.2 L 467.1,351.5 L 469.6,351.8 L 472.1,352.0 L 474.6,352.3 L 477.1,352.6 L 479.6,352.8 L 482.1,353.1 L 484.6,353.3 L 487.1,353.5 L 489.6,353.8 L 492.1,354.0 L 494.6,354.2 L 497.1,354.4 L 499.6,354.6 L 502.1,354.8 L 504.6,355.0 L 507.1,355.2 L 509.6,355.4 L 512.1,355.6 L 514.6,355.7 L 517.1,355.9 L 519.6,356.1 L 522.1,356.2 L 524.6,356.4 L 527.1,356.5 L 529.6,356.7 L 532.1,356.8 L 534.6,357.0 L 537.1,357.1 L 539.6,357.2 L 542.1,357.4 L 544.6,357.5 L 547.1,357.6 L 549.6,357.7 L 552.1,357.8 L 554.6,357.9 L 557.1,358.0 L 559.6,358.1 L 562.1,358.2 L 564.5,358.3 L 567.0,358.4 L 569.5,358.5 L 572.0,358.6 L 574.5,358.7 L 577.0,358.8 L 579.5,358.9 L 582.0,358.9 L 584.5,359.0 L 587.0,359.1 L 589.5,359.2 L 592.0,359.2 L 594.5,359.3 L 597.0,359.4 L 599.5,359.5 L 602.0,359.5 L 604.5,359.6 L 607.0,359.6 L 609.5,359.7 L 612.0,359.8 L 614.5,359.8 L 617.0,359.9" class="sig"/>
<path d="M 75.5,282.6 L 80.9,256.7 L 86.4,243.2 L 91.9,236.2 L 97.3,229.4 L 102.8,223.0 L 108.3,217.4 L 113.8,212.6 L 119.2,208.7 L 124.7,205.0 L 130.2,201.1 L 135.6,197.1 L 141.1,193.0 L 146.6,189.1 L 152.1,185.1 L 157.5,181.3 L 163.0,177.5 L 168.5,173.8 L 173.9,170.3 L 179.4,166.8 L 184.9,163.4 L 190.3,160.1 L 195.8,157.0 L 201.3,153.9 L 206.8,150.9 L 212.2,148.0 L 217.7,145.2 L 223.2,142.5 L 228.6,139.9 L 234.1,137.4 L 239.6,135.0 L 245.0,132.6 L 250.5,130.4 L 256.0,128.2 L 261.4,126.1 L 266.9,124.1 L 272.4,122.1 L 277.9,120.2 L 283.3,118.3 L 288.8,116.5 L 294.3,114.7 L 299.7,113.0 L 305.2,111.3 L 310.7,109.6 L 316.1,108.0 L 321.6,106.4 L 327.1,104.9 L 332.6,103.4 L 338.0,101.9 L 343.5,100.5 L 349.0,99.1 L 354.4,97.8 L 359.9,96.5 L 365.4,95.2 L 370.9,94.0 L 376.3,92.8 L 381.8,91.7 L 387.3,90.6 L 392.7,89.6 L 398.2,88.7 L 403.7,87.8 L 409.1,87.0 L 414.6,86.3 L 420.1,85.6 L 425.6,85.0 L 431.0,84.5 L 436.5,84.0 L 442.0,83.7 L 447.4,83.3 L 452.9,83.1 L 458.4,82.9 L 463.8,82.7 L 469.3,82.7 L 474.8,82.6 L 480.2,82.7 L 485.7,82.8 L 491.2,83.0 L 496.7,83.2 L 502.1,83.5 L 507.6,83.9 L 513.1,84.3 L 518.5,84.8 L 524.0,85.3 L 529.5,86.0 L 535.0,86.7 L 540.4,87.4 L 545.9,88.2 L 551.4,89.1 L 556.8,90.0 L 562.3,91.0 L 567.8,92.1 L 573.2,93.3 L 578.7,94.5 L 584.2,95.7 L 589.7,97.1 L 595.1,98.5 L 600.6,99.9 L 606.1,101.2 L 611.5,102.6 L 617.0,103.9" class="nt"/>
<path d="M 74.6,297.6 L 79.1,242.8 L 83.7,196.9 L 88.2,163.3 L 92.8,140.3 L 97.3,125.0 L 101.9,114.9 L 106.5,108.4 L 111.0,104.8 L 115.6,103.7 L 120.1,104.5 L 124.7,106.5 L 129.3,109.0 L 133.8,111.4 L 138.4,113.3 L 142.9,114.7 L 147.5,115.6 L 152.1,116.0 L 156.6,116.1 L 161.2,115.9 L 165.7,115.4 L 170.3,114.7 L 174.8,113.8 L 179.4,112.9 L 184.0,111.8 L 188.5,110.7 L 193.1,109.5 L 197.6,108.4 L 202.2,107.2 L 206.8,106.1 L 211.3,105.1 L 215.9,104.1 L 220.4,103.2 L 225.0,102.4 L 229.5,101.8 L 234.1,101.2 L 238.7,100.9 L 243.2,100.6 L 247.8,100.6 L 252.3,100.8 L 256.9,101.2 L 261.4,101.9 L 266.0,102.8 L 270.6,103.8 L 275.1,105.0 L 279.7,106.1 L 284.2,107.1 L 288.8,108.0 L 293.4,108.8 L 297.9,109.4 L 302.5,110.0 L 307.0,110.5 L 311.6,110.9 L 316.1,111.2 L 320.7,111.4 L 325.3,111.6 L 329.8,111.8 L 334.4,111.8 L 338.9,111.9 L 343.5,111.8 L 348.1,111.7 L 352.6,111.4 L 357.2,111.1 L 361.7,110.6 L 366.3,110.0 L 370.9,109.3 L 375.4,108.5 L 380.0,107.6 L 384.5,106.9 L 389.1,106.5 L 393.6,106.4 L 398.2,106.6 L 402.8,107.1 L 407.3,108.0 L 411.9,109.2 L 416.4,110.6 L 421.0,112.3 L 425.6,114.2 L 430.1,116.2 L 434.7,118.5 L 439.2,120.9 L 443.8,123.5 L 448.3,126.3 L 452.9,129.2 L 457.5,132.2 L 462.0,135.3 L 466.6,138.5 L 471.1,141.9 L 475.7,145.3 L 480.3,148.8 L 484.8,152.4 L 489.4,156.1 L 493.9,159.9 L 498.5,163.6 L 503.0,167.5 L 507.6,171.4 L 512.2,175.3 L 516.7,179.2 L 521.3,183.1 L 525.8,187.0 L 530.4,190.9 L 535.0,194.7 L 539.5,198.5 L 544.1,202.2 L 548.6,205.9 L 553.2,209.4 L 557.7,212.8 L 562.3,216.1 L 566.9,219.3 L 571.4,222.3 L 576.0,225.2 L 580.5,227.9 L 585.1,230.4 L 589.6,232.8 L 594.2,235.0 L 598.8,237.2 L 603.3,239.2 L 607.9,241.1 L 612.4,242.9 L 617.0,244.6" class="fw"/>
<line x1="72.97" y1="231.15" x2="72.97" y2="279.82" class="err"/>
<line x1="69.97" y1="231.15" x2="75.97" y2="231.15" class="err"/>
<line x1="69.97" y1="279.82" x2="75.97" y2="279.82" class="err"/>
<circle cx="72.97" cy="255.49" r="2.5" class="obs"/>
<line x1="78.90" y1="194.65" x2="78.90" y2="231.15" class="err"/>
<line x1="75.90" y1="194.65" x2="81.90" y2="194.65" class="err"/>
<line x1="75.90" y1="231.15" x2="81.90" y2="231.15" class="err"/>
<circle cx="78.90" cy="212.90" r="2.5" class="obs"/>
<line x1="87.81" y1="166.66" x2="87.81" y2="203.17" class="err"/>
<line x1="84.81" y1="166.66" x2="90.81" y2="166.66" class="err"/>
<line x1="84.81" y1="203.17" x2="90.81" y2="203.17" class="err"/>
<circle cx="87.81" cy="184.91" r="2.5" class="obs"/>
<line x1="93.74" y1="125.29" x2="93.74" y2="166.66" class="err"/>
<line x1="90.74" y1="125.29" x2="96.74" y2="125.29" class="err"/>
<line x1="90.74" y1="166.66" x2="96.74" y2="166.66" class="err"/>
<circle cx="93.74" cy="145.98" r="2.5" class="obs"/>
<line x1="102.65" y1="102.17" x2="102.65" y2="138.68" class="err"/>
<line x1="99.65" y1="102.17" x2="105.65" y2="102.17" class="err"/>
<line x1="99.65" y1="138.68" x2="105.65" y2="138.68" class="err"/>
<circle cx="102.65" cy="120.42" r="2.5" class="obs"/>
<line x1="138.26" y1="102.17" x2="138.26" y2="126.51" class="err"/>
<line x1="135.26" y1="102.17" x2="141.26" y2="102.17" class="err"/>
<line x1="135.26" y1="126.51" x2="141.26" y2="126.51" class="err"/>
<circle cx="138.26" cy="114.34" r="2.5" class="obs"/>
<line x1="182.42" y1="98.52" x2="182.42" y2="110.69" class="err"/>
<line x1="179.42" y1="98.52" x2="185.42" y2="98.52" class="err"/>
<line x1="179.42" y1="110.69" x2="185.42" y2="110.69" class="err"/>
<circle cx="182.42" cy="104.61" r="2.5" class="obs"/>
<line x1="227.21" y1="100.95" x2="227.21" y2="113.12" class="err"/>
<line x1="224.21" y1="100.95" x2="230.21" y2="100.95" class="err"/>
<line x1="224.21" y1="113.12" x2="230.21" y2="113.12" class="err"/>
<circle cx="227.21" cy="107.04" r="2.5" class="obs"/>
<line x1="272.00" y1="103.39" x2="272.00" y2="108.26" class="err"/>
<line x1="269.00" y1="103.39" x2="275.00" y2="103.39" class="err"/>
<line x1="269.00" y1="108.26" x2="275.00" y2="108.26" class="err"/>
<circle cx="272.00" cy="105.82" r="2.5" class="obs"/>
<line x1="316.79" y1="102.17" x2="316.79" y2="107.04" class="err"/>
<line x1="313.79" y1="102.17" x2="319.79" y2="102.17" class="err"/>
<line x1="313.79" y1="107.04" x2="319.79" y2="107.04" class="err"/>
<circle cx="316.79" cy="104.61" r="2.5" class="obs"/>
<line x1="360.68" y1="103.39" x2="360.68" y2="108.26" class="err"/>
<line x1="357.68" y1="103.39" x2="363.68" y2="103.39" class="err"/>
<line x1="357.68" y1="108.26" x2="363.68" y2="108.26" class="err"/>
<circle cx="360.68" cy="105.82" r="2.5" class="obs"/>
<line x1="405.47" y1="102.17" x2="405.47" y2="109.47" class="err"/>
<line x1="402.47" y1="102.17" x2="408.47" y2="102.17" class="err"/>
<line x1="402.47" y1="109.47" x2="408.47" y2="109.47" class="err"/>
<circle cx="405.47" cy="105.82" r="2.5" class="obs"/>
<line x1="450.26" y1="114.34" x2="450.26" y2="121.64" class="err"/>
<line x1="447.26" y1="114.34" x2="453.26" y2="114.34" class="err"/>
<line x1="447.26" y1="121.64" x2="453.26" y2="121.64" class="err"/>
<circle cx="450.26" cy="117.99" r="2.5" class="obs"/>
<g class="legend">
<line x1="82" y1="69" x2="106" y2="69" class="fw"/>
<text x="112" y="73" class="lbl-l">framework fit</text>
<line x1="82" y1="87" x2="106" y2="87" class="nt"/>
<text x="112" y="91" class="lbl-l">Newtonian (no halo)</text>
<circle cx="94" cy="105" r="2.5" class="obs"/>
<text x="112" y="109" class="lbl">observed V±err</text>
</g>
<g class="legend">
<line x1="442" y1="69" x2="466" y2="69" class="rho"/>
<text x="472" y="73" class="lbl-r">ρ(r) raw</text>
<line x1="442" y1="87" x2="466" y2="87" class="sig"/>
<text x="472" y="91" class="lbl-s">Σ(r) cumulative</text>
<text x="442" y="113" class="lbl-r">ρ peak: 633 M☉/pc²</text>
</g>
<rect x="705" y="55" width="170" height="170" class="preview-bg"/>
<defs><radialGradient id="g_NGC2998" cx="0.5" cy="0.5" r="0.5">
  <stop offset="0.0000" stop-color="rgb(209,209,209)"/>
  <stop offset="0.0313" stop-color="rgb(117,117,117)"/>
  <stop offset="0.0625" stop-color="rgb(94,94,94)"/>
  <stop offset="0.0938" stop-color="rgb(80,80,80)"/>
  <stop offset="0.1250" stop-color="rgb(78,78,78)"/>
  <stop offset="0.1563" stop-color="rgb(76,76,76)"/>
  <stop offset="0.1875" stop-color="rgb(75,75,75)"/>
  <stop offset="0.2188" stop-color="rgb(73,73,73)"/>
  <stop offset="0.2500" stop-color="rgb(72,72,72)"/>
  <stop offset="0.2813" stop-color="rgb(70,70,70)"/>
  <stop offset="0.3125" stop-color="rgb(69,69,69)"/>
  <stop offset="0.3438" stop-color="rgb(67,67,67)"/>
  <stop offset="0.3750" stop-color="rgb(65,65,65)"/>
  <stop offset="0.4063" stop-color="rgb(64,64,64)"/>
  <stop offset="0.4375" stop-color="rgb(63,63,63)"/>
  <stop offset="0.4688" stop-color="rgb(60,60,60)"/>
  <stop offset="0.5000" stop-color="rgb(58,58,58)"/>
  <stop offset="0.5313" stop-color="rgb(56,56,56)"/>
  <stop offset="0.5625" stop-color="rgb(53,53,53)"/>
  <stop offset="0.5938" stop-color="rgb(51,51,51)"/>
  <stop offset="0.6250" stop-color="rgb(47,47,47)"/>
  <stop offset="0.6563" stop-color="rgb(43,43,43)"/>
  <stop offset="0.6875" stop-color="rgb(39,39,39)"/>
  <stop offset="0.7188" stop-color="rgb(35,35,35)"/>
  <stop offset="0.7500" stop-color="rgb(31,31,31)"/>
  <stop offset="0.7813" stop-color="rgb(27,27,27)"/>
  <stop offset="0.8125" stop-color="rgb(23,23,23)"/>
  <stop offset="0.8438" stop-color="rgb(20,20,20)"/>
  <stop offset="0.8750" stop-color="rgb(16,16,16)"/>
  <stop offset="0.9063" stop-color="rgb(12,12,12)"/>
  <stop offset="0.9375" stop-color="rgb(8,8,8)"/>
  <stop offset="0.9688" stop-color="rgb(4,4,4)"/>
  <stop offset="1.0000" stop-color="rgb(0,0,0)"/>
</radialGradient></defs>
<circle cx="790" cy="140" r="81" fill="url(#g_NGC2998)"/>
<text x="790" y="49" text-anchor="middle" class="preview-lbl">face-on luminance from ρ(r)</text>
<text x="790" y="239" text-anchor="middle" class="preview-lbl">edge at r = 57.9 kpc</text>
</svg>