<svg xmlns="http://www.w3.org/2000/svg" viewBox="0 0 890 420" width="890" height="420" font-family="sans-serif" font-size="12">
<style>
  .ax { stroke: #333; stroke-width: 1; fill: none; }
  .grid { stroke: #ddd; stroke-width: 0.5; fill: none; }
  .lbl { fill: #333; }
  .lbl-l { fill: #0066cc; }
  .lbl-r { fill: #b03030; }
  .lbl-s { fill: #cc7000; }
  .obs { fill: #222; }
  .err { stroke: #555; stroke-width: 0.8; fill: none; }
  .fw { stroke: #0066cc; stroke-width: 2.2; fill: none; }
  .nt { stroke: #cc6600; stroke-width: 1.6; fill: none; stroke-dasharray: 5,3; }
  .rho { stroke: #b03030; stroke-width: 2.0; fill: none; }
  .sig { stroke: #cc7000; stroke-width: 1.8; fill: none; }
  .title { fill: #111; font-size: 16px; font-weight: 600; }
  .subtitle { fill: #555; font-size: 11px; }
  .legend { font-size: 11px; }
  .preview-bg { fill: #000; }
  .preview-lbl { fill: #888; font-size: 10px; }
</style>
<text x="343.5" y="22" text-anchor="middle" class="title">NGC2955</text>
<text x="343.5" y="38" text-anchor="middle" class="subtitle">rMax=35.4 kpc, N=24, RMS=10.4 km/s (4.1%), amp=1372</text>
<line x1="70" y1="365.0" x2="617" y2="365.0" class="grid"/>
<text x="64" y="369.0" text-anchor="end" class="lbl-l">0</text>
<line x1="70" y1="303.0" x2="617" y2="303.0" class="grid"/>
<text x="64" y="307.0" text-anchor="end" class="lbl-l">86</text>
<line x1="70" y1="241.0" x2="617" y2="241.0" class="grid"/>
<text x="64" y="245.0" text-anchor="end" class="lbl-l">173</text>
<line x1="70" y1="179.00000000000006" x2="617" y2="179.00000000000006" class="grid"/>
<text x="64" y="183.00000000000006" text-anchor="end" class="lbl-l">259</text>
<line x1="70" y1="116.99999999999999" x2="617" y2="116.99999999999999" class="grid"/>
<text x="64" y="120.99999999999999" text-anchor="end" class="lbl-l">346</text>
<line x1="70" y1="55.000000000000036" x2="617" y2="55.000000000000036" class="grid"/>
<text x="64" y="59.000000000000036" text-anchor="end" class="lbl-l">432</text>
<text x="623" y="369.0" text-anchor="start" class="lbl-r">0.0</text>
<text x="623" y="327.6666666666667" text-anchor="start" class="lbl-r">0.2</text>
<text x="623" y="286.33333333333337" text-anchor="start" class="lbl-r">0.4</text>
<text x="623" y="245.00000000000003" text-anchor="start" class="lbl-r">0.6</text>
<text x="623" y="203.66666666666666" text-anchor="start" class="lbl-r">0.8</text>
<text x="623" y="162.33333333333334" text-anchor="start" class="lbl-r">1.0</text>
<line x1="70.0" y1="55" x2="70.0" y2="365" class="grid"/>
<text x="70.0" y="381" text-anchor="middle" class="lbl">0.0</text>
<line x1="161.16666666666666" y1="55" x2="161.16666666666666" y2="365" class="grid"/>
<text x="161.16666666666666" y="381" text-anchor="middle" class="lbl">6.4</text>
<line x1="252.33333333333331" y1="55" x2="252.33333333333331" y2="365" class="grid"/>
<text x="252.33333333333331" y="381" text-anchor="middle" class="lbl">12.8</text>
<line x1="343.5" y1="55" x2="343.5" y2="365" class="grid"/>
<text x="343.5" y="381" text-anchor="middle" class="lbl">19.2</text>
<line x1="434.66666666666663" y1="55" x2="434.66666666666663" y2="365" class="grid"/>
<text x="434.66666666666663" y="381" text-anchor="middle" class="lbl">25.6</text>
<line x1="525.8333333333334" y1="55" x2="525.8333333333334" y2="365" class="grid"/>
<text x="525.8333333333334" y="381" text-anchor="middle" class="lbl">32.0</text>
<line x1="617.0" y1="55" x2="617.0" y2="365" class="grid"/>
<text x="617.0" y="381" text-anchor="middle" class="lbl">38.4</text>
<text x="343.5" y="397" text-anchor="middle" class="lbl">radius (kpc)</text>
<text x="16" y="210.0" text-anchor="middle" class="lbl-l" transform="rotate(-90, 16, 210.0)">velocity (km/s)</text>
<text x="661" y="210.0" text-anchor="middle" class="lbl-r" transform="rotate(-90, 661, 210.0)">mass profile (normalized to peak)</text>
<rect x="70" y="55" width="547" height="310" class="ax"/>
<path d="M 70.0,158.3 L 72.5,178.5 L 75.0,198.6 L 77.5,218.8 L 80.0,239.0 L 82.5,259.1 L 85.0,279.3 L 87.5,289.2 L 90.0,290.3 L 92.5,291.3 L 95.0,292.3 L 97.5,293.3 L 100.0,294.3 L 102.5,295.3 L 105.0,296.4 L 107.5,297.4 L 110.0,298.4 L 112.5,299.4 L 115.0,300.4 L 117.5,301.5 L 120.0,302.5 L 122.5,303.5 L 124.9,304.5 L 127.4,305.5 L 129.9,306.5 L 132.4,307.6 L 134.9,308.6 L 137.4,309.6 L 139.9,310.6 L 142.4,311.6 L 144.9,312.6 L 147.4,313.7 L 149.9,314.1 L 152.4,314.3 L 154.9,314.6 L 157.4,314.9 L 159.9,315.1 L 162.4,315.4 L 164.9,315.6 L 167.4,315.9 L 169.9,316.2 L 172.4,316.4 L 174.9,316.7 L 177.4,316.9 L 179.9,317.2 L 182.4,317.4 L 184.9,317.7 L 187.4,318.0 L 189.9,318.2 L 192.4,318.5 L 194.9,318.7 L 197.4,319.0 L 199.9,319.2 L 202.4,319.5 L 204.9,319.8 L 207.4,320.0 L 209.9,320.3 L 212.4,320.5 L 214.9,320.8 L 217.4,321.1 L 219.9,321.3 L 222.4,321.6 L 224.9,321.8 L 227.4,322.1 L 229.9,322.3 L 232.4,322.5 L 234.8,322.7 L 237.3,322.9 L 239.8,323.1 L 242.3,323.3 L 244.8,323.5 L 247.3,323.7 L 249.8,323.9 L 252.3,324.1 L 254.8,324.3 L 257.3,324.5 L 259.8,324.7 L 262.3,324.9 L 264.8,325.1 L 267.3,325.3 L 269.8,325.6 L 272.3,325.8 L 274.8,326.0 L 277.3,326.2 L 279.8,326.4 L 282.3,326.6 L 284.8,326.8 L 287.3,327.0 L 289.8,327.2 L 292.3,327.4 L 294.8,327.6 L 297.3,327.8 L 299.8,328.0 L 302.3,328.2 L 304.8,328.4 L 307.3,328.6 L 309.8,328.8 L 312.3,329.0 L 314.8,329.2 L 317.3,329.4 L 319.8,329.6 L 322.3,329.8 L 324.8,330.0 L 327.3,330.3 L 329.8,330.5 L 332.3,330.7 L 334.8,330.9 L 337.3,331.1 L 339.8,331.3 L 342.3,331.5 L 344.7,331.7 L 347.2,331.9 L 349.7,332.1 L 352.2,332.3 L 354.7,332.5 L 357.2,332.7 L 359.7,332.9 L 362.2,333.1 L 364.7,333.3 L 367.2,333.5 L 369.7,333.7 L 372.2,333.9 L 374.7,334.1 L 377.2,334.3 L 379.7,334.5 L 382.2,334.8 L 384.7,335.0 L 387.2,335.2 L 389.7,335.4 L 392.2,335.6 L 394.7,335.8 L 397.2,336.0 L 399.7,336.2 L 402.2,336.4 L 404.7,336.6 L 407.2,336.8 L 409.7,337.0 L 412.2,337.2 L 414.7,337.4 L 417.2,337.6 L 419.7,337.8 L 422.2,338.0 L 424.7,338.2 L 427.2,338.4 L 429.7,338.6 L 432.2,338.8 L 434.7,339.0 L 437.2,339.3 L 439.7,339.5 L 442.2,339.7 L 444.7,339.9 L 447.2,340.1 L 449.7,340.3 L 452.2,340.5 L 454.6,340.7 L 457.1,340.9 L 459.6,341.1 L 462.1,341.3 L 464.6,341.5 L 467.1,341.7 L 469.6,341.9 L 472.1,342.1 L 474.6,342.3 L 477.1,342.5 L 479.6,342.7 L 482.1,342.9 L 484.6,343.1 L 487.1,343.3 L 489.6,343.5 L 492.1,343.7 L 494.6,344.0 L 497.1,344.2 L 499.6,344.4 L 502.1,344.6 L 504.6,344.8 L 507.1,345.0 L 509.6,345.2 L 512.1,345.4 L 514.6,345.6 L 517.1,345.8 L 519.6,346.0 L 522.1,346.2 L 524.6,346.4 L 527.1,346.6 L 529.6,346.8 L 532.1,347.0 L 534.6,347.2 L 537.1,347.4 L 539.6,347.6 L 542.1,347.8 L 544.6,348.0 L 547.1,348.2 L 549.6,348.5 L 552.1,348.7 L 554.6,348.9 L 557.1,349.1 L 559.6,349.3 L 562.1,349.6 L 564.5,351.0 L 567.0,352.3 L 569.5,353.6 L 572.0,355.0 L 574.5,356.3 L 577.0,357.6 L 579.5,358.9 L 582.0,360.3 L 584.5,361.6 L 587.0,362.9 L 589.5,364.2 L 592.0,365.0 L 594.5,365.0 L 597.0,365.0 L 599.5,365.0 L 602.0,365.0 L 604.5,365.0 L 607.0,365.0 L 609.5,365.0 L 612.0,365.0 L 614.5,365.0 L 617.0,365.0" class="rho"/>
<path d="M 70.0,158.3 L 72.5,160.9 L 75.0,164.6 L 77.5,169.4 L 80.0,175.1 L 82.5,181.4 L 85.0,187.6 L 87.5,193.4 L 90.0,198.7 L 92.5,203.6 L 95.0,208.0 L 97.5,211.8 L 100.0,215.4 L 102.5,218.7 L 105.0,221.9 L 107.5,224.8 L 110.0,227.6 L 112.5,230.4 L 115.0,233.0 L 117.5,235.5 L 120.0,238.0 L 122.5,240.4 L 124.9,242.8 L 127.4,245.1 L 129.9,247.3 L 132.4,249.5 L 134.9,251.6 L 137.4,253.6 L 139.9,255.6 L 142.4,257.5 L 144.9,259.3 L 147.4,261.1 L 149.9,262.8 L 152.4,264.4 L 154.9,265.9 L 157.4,267.4 L 159.9,268.8 L 162.4,270.1 L 164.9,271.5 L 167.4,272.7 L 169.9,274.0 L 172.4,275.2 L 174.9,276.3 L 177.4,277.5 L 179.9,278.6 L 182.4,279.7 L 184.9,280.8 L 187.4,281.8 L 189.9,282.8 L 192.4,283.9 L 194.9,284.9 L 197.4,285.8 L 199.9,286.8 L 202.4,287.7 L 204.9,288.7 L 207.4,289.6 L 209.9,290.5 L 212.4,291.4 L 214.9,292.3 L 217.4,293.1 L 219.9,294.0 L 222.4,294.8 L 224.9,295.6 L 227.4,296.4 L 229.9,297.2 L 232.4,298.0 L 234.8,298.8 L 237.3,299.6 L 239.8,300.3 L 242.3,301.1 L 244.8,301.8 L 247.3,302.6 L 249.8,303.3 L 252.3,304.0 L 254.8,304.7 L 257.3,305.4 L 259.8,306.1 L 262.3,306.8 L 264.8,307.5 L 267.3,308.1 L 269.8,308.8 L 272.3,309.5 L 274.8,310.1 L 277.3,310.8 L 279.8,311.4 L 282.3,312.0 L 284.8,312.7 L 287.3,313.3 L 289.8,313.9 L 292.3,314.5 L 294.8,315.1 L 297.3,315.7 L 299.8,316.3 L 302.3,316.9 L 304.8,317.5 L 307.3,318.1 L 309.8,318.7 L 312.3,319.3 L 314.8,319.8 L 317.3,320.4 L 319.8,321.0 L 322.3,321.5 L 324.8,322.1 L 327.3,322.6 L 329.8,323.2 L 332.3,323.7 L 334.8,324.2 L 337.3,324.8 L 339.8,325.3 L 342.3,325.8 L 344.7,326.3 L 347.2,326.8 L 349.7,327.3 L 352.2,327.8 L 354.7,328.3 L 357.2,328.8 L 359.7,329.3 L 362.2,329.8 L 364.7,330.3 L 367.2,330.8 L 369.7,331.2 L 372.2,331.7 L 374.7,332.2 L 377.2,332.6 L 379.7,333.1 L 382.2,333.5 L 384.7,334.0 L 387.2,334.4 L 389.7,334.8 L 392.2,335.3 L 394.7,335.7 L 397.2,336.1 L 399.7,336.5 L 402.2,337.0 L 404.7,337.4 L 407.2,337.8 L 409.7,338.2 L 412.2,338.6 L 414.7,339.0 L 417.2,339.4 L 419.7,339.7 L 422.2,340.1 L 424.7,340.5 L 427.2,340.9 L 429.7,341.2 L 432.2,341.6 L 434.7,342.0 L 437.2,342.3 L 439.7,342.7 L 442.2,343.0 L 444.7,343.4 L 447.2,343.7 L 449.7,344.1 L 452.2,344.4 L 454.6,344.7 L 457.1,345.0 L 459.6,345.4 L 462.1,345.7 L 464.6,346.0 L 467.1,346.3 L 469.6,346.6 L 472.1,346.9 L 474.6,347.2 L 477.1,347.5 L 479.6,347.8 L 482.1,348.1 L 484.6,348.4 L 487.1,348.7 L 489.6,348.9 L 492.1,349.2 L 494.6,349.5 L 497.1,349.7 L 499.6,350.0 L 502.1,350.3 L 504.6,350.5 L 507.1,350.8 L 509.6,351.0 L 512.1,351.3 L 514.6,351.5 L 517.1,351.8 L 519.6,352.0 L 522.1,352.2 L 524.6,352.5 L 527.1,352.7 L 529.6,352.9 L 532.1,353.2 L 534.6,353.4 L 537.1,353.6 L 539.6,353.8 L 542.1,354.0 L 544.6,354.3 L 547.1,354.5 L 549.6,354.7 L 552.1,354.9 L 554.6,355.1 L 557.1,355.3 L 559.6,355.6 L 562.1,355.8 L 564.5,356.0 L 567.0,356.2 L 569.5,356.4 L 572.0,356.6 L 574.5,356.8 L 577.0,357.0 L 579.5,357.2 L 582.0,357.3 L 584.5,357.5 L 587.0,357.7 L 589.5,357.8 L 592.0,357.9 L 594.5,358.1 L 597.0,358.2 L 599.5,358.3 L 602.0,358.4 L 604.5,358.5 L 607.0,358.6 L 609.5,358.7 L 612.0,358.8 L 614.5,358.9 L 617.0,359.0" class="sig"/>
<path d="M 75.5,291.8 L 80.9,270.4 L 86.4,261.3 L 91.9,255.3 L 97.3,248.4 L 102.8,241.5 L 108.3,235.0 L 113.8,228.8 L 119.2,223.1 L 124.7,217.8 L 130.2,212.9 L 135.6,208.4 L 141.1,204.3 L 146.6,200.5 L 152.1,196.9 L 157.5,193.4 L 163.0,190.0 L 168.5,186.6 L 173.9,183.3 L 179.4,180.0 L 184.9,176.9 L 190.3,173.8 L 195.8,170.8 L 201.3,167.8 L 206.8,165.0 L 212.2,162.2 L 217.7,159.5 L 223.2,156.9 L 228.6,154.3 L 234.1,151.8 L 239.6,149.4 L 245.0,147.0 L 250.5,144.7 L 256.0,142.4 L 261.5,140.2 L 266.9,138.1 L 272.4,135.9 L 277.9,133.9 L 283.3,131.9 L 288.8,129.9 L 294.3,128.0 L 299.7,126.1 L 305.2,124.3 L 310.7,122.5 L 316.1,120.8 L 321.6,119.1 L 327.1,117.5 L 332.6,115.9 L 338.0,114.3 L 343.5,112.8 L 349.0,111.4 L 354.4,109.9 L 359.9,108.6 L 365.4,107.2 L 370.9,105.9 L 376.3,104.6 L 381.8,103.4 L 387.3,102.2 L 392.7,101.1 L 398.2,100.0 L 403.7,98.9 L 409.1,97.8 L 414.6,96.8 L 420.1,95.9 L 425.6,94.9 L 431.0,94.0 L 436.5,93.2 L 442.0,92.4 L 447.4,91.6 L 452.9,90.8 L 458.4,90.1 L 463.8,89.4 L 469.3,88.7 L 474.8,88.1 L 480.2,87.5 L 485.7,87.0 L 491.2,86.4 L 496.7,86.0 L 502.1,85.5 L 507.6,85.1 L 513.1,84.7 L 518.5,84.3 L 524.0,84.0 L 529.5,83.7 L 535.0,83.4 L 540.4,83.2 L 545.9,83.0 L 551.4,82.8 L 556.8,82.7 L 562.3,82.6 L 567.8,82.6 L 573.2,83.0 L 578.7,83.7 L 584.2,84.6 L 589.6,85.9 L 595.1,87.3 L 600.6,88.8 L 606.1,90.2 L 611.5,91.6 L 617.0,93.0" class="nt"/>
<path d="M 74.6,291.6 L 79.1,248.3 L 83.7,216.8 L 88.2,200.8 L 92.8,196.0 L 97.3,195.5 L 101.9,194.9 L 106.5,192.6 L 111.0,189.4 L 115.6,185.5 L 120.1,181.7 L 124.7,178.1 L 129.3,175.3 L 133.8,173.3 L 138.4,172.4 L 142.9,172.8 L 147.5,174.3 L 152.1,176.4 L 156.6,178.5 L 161.2,180.2 L 165.7,181.4 L 170.3,182.1 L 174.8,182.4 L 179.4,182.5 L 184.0,182.3 L 188.5,182.0 L 193.1,181.5 L 197.6,181.0 L 202.2,180.5 L 206.8,180.0 L 211.3,179.5 L 215.9,179.1 L 220.4,178.7 L 225.0,178.5 L 229.5,178.3 L 234.1,178.1 L 238.7,177.8 L 243.2,177.5 L 247.8,177.0 L 252.3,176.5 L 256.9,176.0 L 261.4,175.5 L 266.0,174.9 L 270.6,174.3 L 275.1,173.8 L 279.7,173.2 L 284.2,172.7 L 288.8,172.2 L 293.4,171.7 L 297.9,171.2 L 302.5,170.8 L 307.0,170.4 L 311.6,170.0 L 316.1,169.7 L 320.7,169.4 L 325.3,169.2 L 329.8,169.0 L 334.4,168.8 L 338.9,168.6 L 343.5,168.6 L 348.1,168.5 L 352.6,168.5 L 357.2,168.5 L 361.7,168.6 L 366.3,168.7 L 370.9,168.9 L 375.4,169.1 L 380.0,169.3 L 384.5,169.6 L 389.1,169.9 L 393.6,170.3 L 398.2,170.7 L 402.8,171.2 L 407.3,171.7 L 411.9,172.2 L 416.4,172.8 L 421.0,173.4 L 425.6,174.1 L 430.1,174.8 L 434.7,175.5 L 439.2,176.3 L 443.8,177.1 L 448.3,177.9 L 452.9,178.8 L 457.5,179.7 L 462.0,180.7 L 466.6,181.7 L 471.1,182.7 L 475.7,183.7 L 480.2,184.8 L 484.8,185.8 L 489.4,186.9 L 493.9,188.0 L 498.5,189.1 L 503.0,190.3 L 507.6,191.3 L 512.2,192.4 L 516.7,193.4 L 521.3,194.4 L 525.8,195.3 L 530.4,196.0 L 535.0,196.4 L 539.5,196.7 L 544.1,196.5 L 548.6,196.1 L 553.2,195.4 L 557.7,194.9 L 562.3,195.1 L 566.9,196.6 L 571.4,199.6 L 576.0,204.3 L 580.5,210.2 L 585.1,216.6 L 589.6,223.1 L 594.2,229.2 L 598.8,234.7 L 603.3,239.5 L 607.9,243.7 L 612.4,247.4 L 617.0,250.7" class="fw"/>
<line x1="80.68583443590828" y1="240.75810497928194" x2="80.68583443590828" y2="246.8816450235882" class="err"/>
<line x1="77.68583443590828" y1="240.75810497928194" x2="83.68583443590828" y2="240.75810497928194" class="err"/>
<line x1="77.68583443590828" y1="246.8816450235882" x2="83.68583443590828" y2="246.8816450235882" class="err"/>
<circle cx="80.68583443590828" cy="243.81987500143504" r="2.5" class="obs"/>
<line x1="92.08405783421044" y1="215.9125941437774" x2="92.08405783421044" y2="222.96828899576485" class="err"/>
<line x1="89.08405783421044" y1="215.9125941437774" x2="95.08405783421044" y2="215.9125941437774" class="err"/>
<line x1="89.08405783421044" y1="222.96828899576485" x2="95.08405783421044" y2="222.96828899576485" class="err"/>
<circle cx="92.08405783421044" cy="219.44044156977114" r="2.5" class="obs"/>
<line x1="102.76989227011872" y1="194.70965747982729" x2="102.76989227011872" y2="202.58278039393522" class="err"/>
<line x1="99.76989227011872" y1="194.70965747982729" x2="105.76989227011872" y2="194.70965747982729" class="err"/>
<line x1="99.76989227011872" y1="202.58278039393522" x2="105.76989227011872" y2="202.58278039393522" class="err"/>
<circle cx="102.76989227011872" cy="198.64621893688124" r="2.5" class="obs"/>
<line x1="113.59820449850578" y1="178.29656244303942" x2="113.59820449850578" y2="184.57785176249163" class="err"/>
<line x1="110.59820449850578" y1="178.29656244303942" x2="116.59820449850578" y2="178.29656244303942" class="err"/>
<line x1="110.59820449850578" y1="184.57785176249163" x2="116.59820449850578" y2="184.57785176249163" class="err"/>
<circle cx="113.59820449850578" cy="181.4372071027655" r="2.5" class="obs"/>
<line x1="124.85395010432916" y1="184.68540808645486" x2="124.85395010432916" y2="189.66168067515335" class="err"/>
<line x1="121.85395010432916" y1="184.68540808645486" x2="127.85395010432916" y2="184.68540808645486" class="err"/>
<line x1="121.85395010432916" y1="189.66168067515335" x2="127.85395010432916" y2="189.66168067515335" class="err"/>
<circle cx="124.85395010432916" cy="187.17354438080412" r="2.5" class="obs"/>
<line x1="135.68226233271622" y1="179.5155341146226" x2="135.68226233271622" y2="187.6611330494374" class="err"/>
<line x1="132.68226233271622" y1="179.5155341146226" x2="138.68226233271622" y2="179.5155341146226" class="err"/>
<line x1="132.68226233271622" y1="187.6611330494374" x2="138.68226233271622" y2="187.6611330494374" class="err"/>
<circle cx="135.68226233271622" cy="183.58833358203" r="2.5" class="obs"/>
<line x1="146.3680967686245" y1="166.07816404081723" x2="146.3680967686245" y2="178.15315401108845" class="err"/>
<line x1="143.3680967686245" y1="166.07816404081723" x2="149.3680967686245" y2="166.07816404081723" class="err"/>
<line x1="143.3680967686245" y1="178.15315401108845" x2="149.3680967686245" y2="178.15315401108845" class="err"/>
<circle cx="146.3680967686245" cy="172.11565902595282" r="2.5" class="obs"/>
<line x1="157.19640899701156" y1="169.48411429965262" x2="157.19640899701156" y2="176.1812880717627" class="err"/>
<line x1="154.19640899701156" y1="169.48411429965262" x2="160.19640899701156" y2="169.48411429965262" class="err"/>
<line x1="154.19640899701156" y1="176.1812880717627" x2="160.19640899701156" y2="176.1812880717627" class="err"/>
<circle cx="157.19640899701156" cy="172.83270118570766" r="2.5" class="obs"/>
<line x1="168.45215460283492" y1="174.56794321231433" x2="168.45215460283492" y2="182.57013371517817" class="err"/>
<line x1="165.45215460283492" y1="174.56794321231433" x2="171.45215460283492" y2="174.56794321231433" class="err"/>
<line x1="165.45215460283492" y1="182.57013371517817" x2="171.45215460283492" y2="182.57013371517817" class="err"/>
<circle cx="168.45215460283492" cy="178.56903846374624" r="2.5" class="obs"/>
<line x1="179.1379890387432" y1="183.25132376694523" x2="179.1379890387432" y2="195.3980179531919" class="err"/>
<line x1="176.1379890387432" y1="183.25132376694523" x2="182.1379890387432" y2="183.25132376694523" class="err"/>
<line x1="176.1379890387432" y1="195.3980179531919" x2="182.1379890387432" y2="195.3980179531919" class="err"/>
<circle cx="179.1379890387432" cy="189.32467086006858" r="2.5" class="obs"/>
<line x1="189.96630126713026" y1="183.58833358203" x2="189.96630126713026" y2="192.19283949908785" class="err"/>
<line x1="186.96630126713026" y1="183.58833358203" x2="192.96630126713026" y2="183.58833358203" class="err"/>
<line x1="186.96630126713026" y1="192.19283949908785" x2="192.96630126713026" y2="192.19283949908785" class="err"/>
<circle cx="189.96630126713026" cy="187.89058654055896" r="2.5" class="obs"/>
<line x1="196.23532413619645" y1="166.16420909998783" x2="196.23532413619645" y2="180.93527759093718" class="err"/>
<line x1="193.23532413619645" y1="166.16420909998783" x2="199.23532413619645" y2="166.16420909998783" class="err"/>
<line x1="193.23532413619645" y1="180.93527759093718" x2="199.23532413619645" y2="180.93527759093718" class="err"/>
<circle cx="196.23532413619645" cy="173.5497433454625" r="2.5" class="obs"/>
<line x1="201.22204687295365" y1="176.9413527611028" x2="201.22204687295365" y2="187.36714576393794" class="err"/>
<line x1="198.22204687295365" y1="176.9413527611028" x2="204.22204687295365" y2="176.9413527611028" class="err"/>
<line x1="198.22204687295365" y1="187.36714576393794" x2="204.22204687295365" y2="187.36714576393794" class="err"/>
<circle cx="201.22204687295365" cy="182.15424926252035" r="2.5" class="obs"/>
<line x1="224.16097146203677" y1="175.55746139277602" x2="224.16097146203677" y2="191.61920577128402" class="err"/>
<line x1="221.16097146203677" y1="175.55746139277602" x2="227.16097146203677" y2="175.55746139277602" class="err"/>
<line x1="221.16097146203677" y1="191.61920577128402" x2="227.16097146203677" y2="191.61920577128402" class="err"/>
<circle cx="224.16097146203677" cy="183.58833358203" r="2.5" class="obs"/>
<line x1="234.70432810546626" y1="162.57899830121372" x2="234.70432810546626" y2="178.7841511116727" class="err"/>
<line x1="231.70432810546626" y1="162.57899830121372" x2="237.70432810546626" y2="162.57899830121372" class="err"/>
<line x1="231.70432810546626" y1="178.7841511116727" x2="237.70432810546626" y2="178.7841511116727" class="err"/>
<circle cx="234.70432810546626" cy="170.6815747064432" r="2.5" class="obs"/>
<line x1="246.67246267368353" y1="160.85092669620457" x2="246.67246267368353" y2="173.34180111913358" class="err"/>
<line x1="243.67246267368353" y1="160.85092669620457" x2="249.67246267368353" y2="160.85092669620457" class="err"/>
<line x1="243.67246267368353" y1="173.34180111913358" x2="249.67246267368353" y2="173.34180111913358" class="err"/>
<circle cx="246.67246267368353" cy="167.09636390766912" r="2.5" class="obs"/>
<line x1="271.89103194242705" y1="160.57128025390017" x2="271.89103194242705" y2="175.05553188094763" class="err"/>
<line x1="268.89103194242705" y1="160.57128025390017" x2="274.89103194242705" y2="160.57128025390017" class="err"/>
<line x1="268.89103194242705" y1="175.05553188094763" x2="274.89103194242705" y2="175.05553188094763" class="err"/>
<circle cx="271.89103194242705" cy="167.8134060674239" r="2.5" class="obs"/>
<line x1="310.5025137041756" y1="160.64298446987567" x2="310.5025137041756" y2="174.98382766497213" class="err"/>
<line x1="307.5025137041756" y1="160.64298446987567" x2="313.5025137041756" y2="160.64298446987567" class="err"/>
<line x1="307.5025137041756" y1="174.98382766497213" x2="313.5025137041756" y2="174.98382766497213" class="err"/>
<circle cx="310.5025137041756" cy="167.8134060674239" r="2.5" class="obs"/>
<line x1="347.68921754113643" y1="158.70697063853765" x2="347.68921754113643" y2="175.48575717680052" class="err"/>
<line x1="344.68921754113643" y1="158.70697063853765" x2="350.68921754113643" y2="158.70697063853765" class="err"/>
<line x1="344.68921754113643" y1="175.48575717680052" x2="350.68921754113643" y2="175.48575717680052" class="err"/>
<circle cx="347.68921754113643" cy="167.09636390766912" r="2.5" class="obs"/>
<line x1="386.15822151040624" y1="162.2921814373118" x2="386.15822151040624" y2="184.80730525361318" class="err"/>
<line x1="383.15822151040624" y1="162.2921814373118" x2="389.15822151040624" y2="162.2921814373118" class="err"/>
<line x1="383.15822151040624" y1="184.80730525361318" x2="389.15822151040624" y2="184.80730525361318" class="err"/>
<circle cx="386.15822151040624" cy="173.5497433454625" r="2.5" class="obs"/>
<line x1="423.34492534736705" y1="169.8928283307129" x2="423.34492534736705" y2="191.54750155530851" class="err"/>
<line x1="420.34492534736705" y1="169.8928283307129" x2="426.34492534736705" y2="169.8928283307129" class="err"/>
<line x1="420.34492534736705" y1="191.54750155530851" x2="426.34492534736705" y2="191.54750155530851" class="err"/>
<circle cx="423.34492534736705" cy="180.72016494301073" r="2.5" class="obs"/>
<line x1="461.9564071091156" y1="173.11951804960955" x2="461.9564071091156" y2="192.62306479494075" class="err"/>
<line x1="458.9564071091156" y1="173.11951804960955" x2="464.9564071091156" y2="173.11951804960955" class="err"/>
<line x1="458.9564071091156" y1="192.62306479494075" x2="464.9564071091156" y2="192.62306479494075" class="err"/>
<circle cx="461.9564071091156" cy="182.8712914222752" r="2.5" class="obs"/>
<line x1="499.14311094607643" y1="178.85585532764816" x2="499.14311094607643" y2="195.49123343396002" class="err"/>
<line x1="496.14311094607643" y1="178.85585532764816" x2="502.14311094607643" y2="178.85585532764816" class="err"/>
<line x1="496.14311094607643" y1="195.49123343396002" x2="502.14311094607643" y2="195.49123343396002" class="err"/>
<circle cx="499.14311094607643" cy="187.17354438080412" r="2.5" class="obs"/>
<line x1="574.798818752307" y1="194.2005575464014" x2="574.798818752307" y2="210.26230192490937" class="err"/>
<line x1="571.798818752307" y1="194.2005575464014" x2="577.798818752307" y2="194.2005575464014" class="err"/>
<line x1="571.798818752307" y1="210.26230192490937" x2="577.798818752307" y2="210.26230192490937" class="err"/>
<circle cx="574.798818752307" cy="202.23142973565535" r="2.5" class="obs"/>
<g class="legend">
<line x1="82" y1="69" x2="106" y2="69" class="fw"/>
<text x="112" y="73" class="lbl-l">framework fit</text>
<line x1="82" y1="87" x2="106" y2="87" class="nt"/>
<text x="112" y="91" class="lbl-l">Newtonian (no halo)</text>
<circle cx="94" cy="105" r="2.5" class="obs"/>
<text x="112" y="109" class="lbl">observed V±err</text>
</g>
<g class="legend">
<line x1="472" y1="69" x2="496" y2="69" class="rho"/>
<text x="502" y="73" class="lbl-r">ρ(r) raw</text>
<line x1="472" y1="87" x2="496" y2="87" class="sig"/>
<text x="502" y="91" class="lbl-s">Σ(r) cumulative</text>
<text x="472" y="113" class="lbl-r">ρ peak: 2344 M☉/pc²</text>
</g>
<rect x="705" y="55" width="170" height="170" class="preview-bg"/>
<defs><radialGradient id="g_NGC2955" cx="0.5" cy="0.5" r="0.5">
  <stop offset="0.0000" stop-color="rgb(255,255,255)"/>
  <stop offset="0.0312" stop-color="rgb(255,255,255)"/>
  <stop offset="0.0625" stop-color="rgb(252,252,252)"/>
  <stop offset="0.0938" stop-color="rgb(231,231,231)"/>
  <stop offset="0.1250" stop-color="rgb(211,211,211)"/>
  <stop offset="0.1562" stop-color="rgb(193,193,193)"/>
  <stop offset="0.1875" stop-color="rgb(188,188,188)"/>
  <stop offset="0.2188" stop-color="rgb(183,183,183)"/>
  <stop offset="0.2500" stop-color="rgb(178,178,178)"/>
  <stop offset="0.2812" stop-color="rgb(172,172,172)"/>
  <stop offset="0.3125" stop-color="rgb(168,168,168)"/>
  <stop offset="0.3438" stop-color="rgb(163,163,163)"/>
  <stop offset="0.3750" stop-color="rgb(159,159,159)"/>
  <stop offset="0.4062" stop-color="rgb(155,155,155)"/>
  <stop offset="0.4375" stop-color="rgb(151,151,151)"/>
  <stop offset="0.4688" stop-color="rgb(147,147,147)"/>
  <stop offset="0.5000" stop-color="rgb(143,143,143)"/>
  <stop offset="0.5312" stop-color="rgb(139,139,139)"/>
  <stop offset="0.5625" stop-color="rgb(135,135,135)"/>
  <stop offset="0.5938" stop-color="rgb(130,130,130)"/>
  <stop offset="0.6250" stop-color="rgb(126,126,126)"/>
  <stop offset="0.6562" stop-color="rgb(122,122,122)"/>
  <stop offset="0.6875" stop-color="rgb(118,118,118)"/>
  <stop offset="0.7188" stop-color="rgb(114,114,114)"/>
  <stop offset="0.7500" stop-color="rgb(110,110,110)"/>
  <stop offset="0.7812" stop-color="rgb(106,106,106)"/>
  <stop offset="0.8125" stop-color="rgb(101,101,101)"/>
  <stop offset="0.8438" stop-color="rgb(97,97,97)"/>
  <stop offset="0.8750" stop-color="rgb(93,93,93)"/>
  <stop offset="0.9062" stop-color="rgb(89,89,89)"/>
  <stop offset="0.9375" stop-color="rgb(85,85,85)"/>
  <stop offset="0.9688" stop-color="rgb(62,62,62)"/>
  <stop offset="1.0000" stop-color="rgb(0,0,0)"/>
</radialGradient></defs>
<circle cx="790.0" cy="140.0" r="81.0" fill="url(#g_NGC2955)"/>
<text x="790.0" y="49" text-anchor="middle" class="preview-lbl">face-on luminance from ρ(r)</text>
<text x="790.0" y="239" text-anchor="middle" class="preview-lbl">edge at r = 36.6 kpc</text>
</svg>