<svg xmlns="http://www.w3.org/2000/svg" viewBox="0 0 720 420" width="720" height="420" font-family="sans-serif" font-size="12">
<style>
  .ax { stroke: #333; stroke-width: 1; fill: none; }
  .grid { stroke: #ddd; stroke-width: 0.5; fill: none; }
  .lbl { fill: #333; }
  .lbl-l { fill: #0066cc; }
  .lbl-r { fill: #b03030; }
  .obs { fill: #222; }
  .err { stroke: #555; stroke-width: 0.8; fill: none; }
  .fw { stroke: #0066cc; stroke-width: 2.2; fill: none; }
  .nt { stroke: #cc6600; stroke-width: 1.6; fill: none; stroke-dasharray: 5,3; }
  .rho { stroke: #b03030; stroke-width: 2.0; fill: none; }
  .sig { stroke: #b03030; stroke-width: 1.6; fill: none; stroke-dasharray: 4,2; opacity: 0.85; }
  .title { fill: #111; font-size: 16px; font-weight: 600; }
  .subtitle { fill: #555; font-size: 11px; }
  .legend { font-size: 11px; }
</style>
<text x="360.0" y="22" text-anchor="middle" class="title">NGC2998</text>
<text x="360.0" y="38" text-anchor="middle" class="subtitle">rMax=42.3 kpc, N=13, RMS=16.5 km/s (8.8%), amp=694</text>
<line x1="70" y1="365.0" x2="635" y2="365.0" class="grid"/>
<text x="64" y="369.0" text-anchor="end" class="lbl-l">0</text>
<line x1="70" y1="303.0" x2="635" y2="303.0" class="grid"/>
<text x="64" y="307.0" text-anchor="end" class="lbl-l">95</text>
<line x1="70" y1="241.00000000000003" x2="635" y2="241.00000000000003" class="grid"/>
<text x="64" y="245.00000000000003" text-anchor="end" class="lbl-l">190</text>
<line x1="70" y1="179.00000000000006" x2="635" y2="179.00000000000006" class="grid"/>
<text x="64" y="183.00000000000006" text-anchor="end" class="lbl-l">285</text>
<line x1="70" y1="117.00000000000003" x2="635" y2="117.00000000000003" class="grid"/>
<text x="64" y="121.00000000000003" text-anchor="end" class="lbl-l">380</text>
<line x1="70" y1="55.0" x2="635" y2="55.0" class="grid"/>
<text x="64" y="59.0" text-anchor="end" class="lbl-l">475</text>
<text x="641" y="369.0" text-anchor="start" class="lbl-r">0.0</text>
<text x="641" y="327.6666666666667" text-anchor="start" class="lbl-r">0.2</text>
<text x="641" y="286.33333333333337" text-anchor="start" class="lbl-r">0.4</text>
<text x="641" y="245.00000000000003" text-anchor="start" class="lbl-r">0.6</text>
<text x="641" y="203.66666666666666" text-anchor="start" class="lbl-r">0.8</text>
<text x="641" y="162.33333333333334" text-anchor="start" class="lbl-r">1.0</text>
<line x1="70.0" y1="55" x2="70.0" y2="365" class="grid"/>
<text x="70.0" y="381" text-anchor="middle" class="lbl">0.0</text>
<line x1="164.16666666666669" y1="55" x2="164.16666666666669" y2="365" class="grid"/>
<text x="164.16666666666669" y="381" text-anchor="middle" class="lbl">10.1</text>
<line x1="258.33333333333337" y1="55" x2="258.33333333333337" y2="365" class="grid"/>
<text x="258.33333333333337" y="381" text-anchor="middle" class="lbl">20.3</text>
<line x1="352.5" y1="55" x2="352.5" y2="365" class="grid"/>
<text x="352.5" y="381" text-anchor="middle" class="lbl">30.4</text>
<line x1="446.6666666666667" y1="55" x2="446.6666666666667" y2="365" class="grid"/>
<text x="446.6666666666667" y="381" text-anchor="middle" class="lbl">40.5</text>
<line x1="540.8333333333334" y1="55" x2="540.8333333333334" y2="365" class="grid"/>
<text x="540.8333333333334" y="381" text-anchor="middle" class="lbl">50.7</text>
<line x1="635.0" y1="55" x2="635.0" y2="365" class="grid"/>
<text x="635.0" y="381" text-anchor="middle" class="lbl">60.8</text>
<text x="352.5" y="408" text-anchor="middle" class="lbl">radius (kpc)</text>
<text x="16" y="210.0" text-anchor="middle" class="lbl-l" transform="rotate(-90, 16, 210.0)">velocity (km/s)</text>
<text x="704" y="210.0" text-anchor="middle" class="lbl-r" transform="rotate(-90, 704, 210.0)">mass profile (normalized to peak)</text>
<rect x="70" y="55" width="565" height="310" class="ax"/>
<path d="M 70.0,158.3 L 72.6,175.2 L 75.2,192.2 L 77.7,209.1 L 80.3,226.0 L 82.9,242.9 L 85.5,259.8 L 88.1,276.7 L 90.6,283.7 L 93.2,286.3 L 95.8,288.9 L 98.4,291.5 L 101.0,294.1 L 103.5,296.7 L 106.1,299.3 L 108.7,301.8 L 111.3,304.4 L 113.9,307.0 L 116.4,309.6 L 119.0,312.2 L 121.6,313.6 L 124.2,313.9 L 126.8,314.2 L 129.3,314.5 L 131.9,314.8 L 134.5,315.0 L 137.1,315.3 L 139.7,315.6 L 142.2,315.9 L 144.8,316.2 L 147.4,316.5 L 150.0,316.8 L 152.6,317.1 L 155.1,317.3 L 157.7,317.6 L 160.3,317.9 L 162.9,318.2 L 165.5,318.5 L 168.0,318.8 L 170.6,319.1 L 173.2,319.4 L 175.8,319.6 L 178.4,319.9 L 180.9,320.2 L 183.5,320.5 L 186.1,320.8 L 188.7,321.1 L 191.3,321.4 L 193.8,321.7 L 196.4,321.9 L 199.0,322.2 L 201.6,322.5 L 204.2,322.8 L 206.7,323.1 L 209.3,323.4 L 211.9,323.7 L 214.5,324.0 L 217.1,324.2 L 219.6,324.5 L 222.2,324.8 L 224.8,325.1 L 227.4,325.4 L 230.0,325.7 L 232.5,326.0 L 235.1,326.3 L 237.7,326.5 L 240.3,326.8 L 242.9,327.1 L 245.4,327.4 L 248.0,327.7 L 250.6,328.0 L 253.2,328.3 L 255.8,328.6 L 258.3,328.8 L 260.9,329.1 L 263.5,329.4 L 266.1,329.7 L 268.7,330.0 L 271.2,330.3 L 273.8,330.6 L 276.4,330.9 L 279.0,331.1 L 281.6,331.3 L 284.1,331.5 L 286.7,331.6 L 289.3,331.8 L 291.9,332.0 L 294.5,332.2 L 297.0,332.4 L 299.6,332.6 L 302.2,332.7 L 304.8,332.9 L 307.4,333.1 L 309.9,333.3 L 312.5,333.5 L 315.1,333.7 L 317.7,333.8 L 320.3,334.0 L 322.8,334.2 L 325.4,334.4 L 328.0,334.6 L 330.6,334.8 L 333.2,334.9 L 335.7,335.1 L 338.3,335.3 L 340.9,335.5 L 343.5,335.7 L 346.1,335.9 L 348.6,336.1 L 351.2,336.2 L 353.8,336.4 L 356.4,336.6 L 358.9,336.8 L 361.5,337.0 L 364.1,337.2 L 366.7,337.3 L 369.3,337.5 L 371.8,337.7 L 374.4,337.9 L 377.0,338.1 L 379.6,338.3 L 382.2,338.4 L 384.7,338.6 L 387.3,338.8 L 389.9,339.0 L 392.5,339.3 L 395.1,339.6 L 397.6,339.9 L 400.2,340.2 L 402.8,340.5 L 405.4,340.8 L 408.0,341.2 L 410.5,341.5 L 413.1,341.8 L 415.7,342.1 L 418.3,342.4 L 420.9,342.7 L 423.4,343.0 L 426.0,343.3 L 428.6,343.6 L 431.2,343.9 L 433.8,344.2 L 436.3,344.5 L 438.9,344.8 L 441.5,345.2 L 444.1,345.5 L 446.7,345.8 L 449.2,346.1 L 451.8,346.4 L 454.4,346.7 L 457.0,347.0 L 459.6,347.3 L 462.1,347.6 L 464.7,347.9 L 467.3,348.2 L 469.9,348.5 L 472.5,348.8 L 475.0,349.1 L 477.6,349.5 L 480.2,349.8 L 482.8,350.1 L 485.4,350.4 L 487.9,350.7 L 490.5,351.0 L 493.1,351.3 L 495.7,351.6 L 498.3,351.9 L 500.8,352.2 L 503.4,352.5 L 506.0,352.8 L 508.6,353.1 L 511.2,353.5 L 513.7,353.8 L 516.3,354.1 L 518.9,354.4 L 521.5,354.7 L 524.1,355.0 L 526.6,355.3 L 529.2,355.6 L 531.8,355.9 L 534.4,356.2 L 537.0,356.5 L 539.5,356.8 L 542.1,357.1 L 544.7,357.4 L 547.3,357.8 L 549.9,358.1 L 552.4,358.4 L 555.0,358.7 L 557.6,359.0 L 560.2,359.3 L 562.8,359.6 L 565.3,359.9 L 567.9,360.2 L 570.5,360.5 L 573.1,360.8 L 575.7,361.1 L 578.2,361.4 L 580.8,361.8 L 583.4,362.1 L 586.0,362.4 L 588.6,362.7 L 591.1,363.0 L 593.7,363.3 L 596.3,363.6 L 598.9,363.9 L 601.5,364.2 L 604.0,364.5 L 606.6,364.8 L 609.2,365.0 L 611.8,365.0 L 614.4,365.0 L 616.9,365.0 L 619.5,365.0 L 622.1,365.0 L 624.7,365.0 L 627.3,365.0 L 629.8,365.0 L 632.4,365.0 L 635.0,365.0" class="rho"/>
<path d="M 70.0,158.3 L 72.6,159.3 L 75.2,161.2 L 77.7,164.0 L 80.3,167.5 L 82.9,171.7 L 85.5,176.3 L 88.1,181.1 L 90.6,186.1 L 93.2,191.0 L 95.8,195.8 L 98.4,200.4 L 101.0,204.9 L 103.5,209.3 L 106.1,213.4 L 108.7,217.3 L 111.3,221.1 L 113.9,224.7 L 116.4,228.1 L 119.0,231.3 L 121.6,234.3 L 124.2,237.2 L 126.8,239.9 L 129.3,242.4 L 131.9,244.9 L 134.5,247.2 L 137.1,249.3 L 139.7,251.4 L 142.2,253.4 L 144.8,255.4 L 147.4,257.2 L 150.0,259.0 L 152.6,260.7 L 155.1,262.4 L 157.7,264.0 L 160.3,265.5 L 162.9,267.0 L 165.5,268.5 L 168.0,270.0 L 170.6,271.4 L 173.2,272.7 L 175.8,274.1 L 178.4,275.4 L 180.9,276.7 L 183.5,278.0 L 186.1,279.2 L 188.7,280.4 L 191.3,281.6 L 193.8,282.8 L 196.4,284.0 L 199.0,285.1 L 201.6,286.3 L 204.2,287.4 L 206.7,288.5 L 209.3,289.6 L 211.9,290.6 L 214.5,291.7 L 217.1,292.7 L 219.6,293.8 L 222.2,294.8 L 224.8,295.8 L 227.4,296.8 L 230.0,297.7 L 232.5,298.7 L 235.1,299.6 L 237.7,300.6 L 240.3,301.5 L 242.9,302.4 L 245.4,303.3 L 248.0,304.2 L 250.6,305.1 L 253.2,305.9 L 255.8,306.8 L 258.3,307.6 L 260.9,308.5 L 263.5,309.3 L 266.1,310.1 L 268.7,310.9 L 271.2,311.6 L 273.8,312.4 L 276.4,313.2 L 279.0,313.9 L 281.6,314.6 L 284.1,315.3 L 286.7,316.0 L 289.3,316.7 L 291.9,317.4 L 294.5,318.1 L 297.0,318.7 L 299.6,319.4 L 302.2,320.0 L 304.8,320.6 L 307.4,321.3 L 309.9,321.9 L 312.5,322.5 L 315.1,323.1 L 317.7,323.7 L 320.3,324.2 L 322.8,324.8 L 325.4,325.4 L 328.0,325.9 L 330.6,326.5 L 333.2,327.1 L 335.7,327.6 L 338.3,328.1 L 340.9,328.7 L 343.5,329.2 L 346.1,329.7 L 348.6,330.2 L 351.2,330.8 L 353.8,331.3 L 356.4,331.8 L 358.9,332.3 L 361.5,332.8 L 364.1,333.3 L 366.7,333.8 L 369.3,334.2 L 371.8,334.7 L 374.4,335.2 L 377.0,335.7 L 379.6,336.2 L 382.2,336.6 L 384.7,337.1 L 387.3,337.6 L 389.9,338.0 L 392.5,338.5 L 395.1,339.0 L 397.6,339.4 L 400.2,339.9 L 402.8,340.3 L 405.4,340.8 L 408.0,341.2 L 410.5,341.7 L 413.1,342.1 L 415.7,342.5 L 418.3,343.0 L 420.9,343.4 L 423.4,343.8 L 426.0,344.2 L 428.6,344.6 L 431.2,345.0 L 433.8,345.4 L 436.3,345.8 L 438.9,346.2 L 441.5,346.6 L 444.1,346.9 L 446.7,347.3 L 449.2,347.7 L 451.8,348.0 L 454.4,348.4 L 457.0,348.7 L 459.6,349.0 L 462.1,349.4 L 464.7,349.7 L 467.3,350.0 L 469.9,350.3 L 472.5,350.6 L 475.0,350.9 L 477.6,351.2 L 480.2,351.5 L 482.8,351.8 L 485.4,352.0 L 487.9,352.3 L 490.5,352.6 L 493.1,352.8 L 495.7,353.1 L 498.3,353.3 L 500.8,353.5 L 503.4,353.8 L 506.0,354.0 L 508.6,354.2 L 511.2,354.4 L 513.7,354.6 L 516.3,354.8 L 518.9,355.0 L 521.5,355.2 L 524.1,355.4 L 526.6,355.6 L 529.2,355.7 L 531.8,355.9 L 534.4,356.1 L 537.0,356.2 L 539.5,356.4 L 542.1,356.5 L 544.7,356.7 L 547.3,356.8 L 549.9,357.0 L 552.4,357.1 L 555.0,357.2 L 557.6,357.4 L 560.2,357.5 L 562.8,357.6 L 565.3,357.7 L 567.9,357.8 L 570.5,357.9 L 573.1,358.0 L 575.7,358.1 L 578.2,358.2 L 580.8,358.3 L 583.4,358.4 L 586.0,358.5 L 588.6,358.6 L 591.1,358.7 L 593.7,358.8 L 596.3,358.9 L 598.9,358.9 L 601.5,359.0 L 604.0,359.1 L 606.6,359.2 L 609.2,359.2 L 611.8,359.3 L 614.4,359.4 L 616.9,359.5 L 619.5,359.5 L 622.1,359.6 L 624.7,359.6 L 627.3,359.7 L 629.8,359.8 L 632.4,359.8 L 635.0,359.9" class="sig"/>
<path d="M 75.7,282.6 L 81.3,256.7 L 87.0,243.2 L 92.6,236.2 L 98.2,229.4 L 103.9,223.0 L 109.5,217.4 L 115.2,212.6 L 120.9,208.7 L 126.5,205.0 L 132.1,201.1 L 137.8,197.1 L 143.4,193.0 L 149.1,189.1 L 154.8,185.1 L 160.4,181.3 L 166.1,177.5 L 171.7,173.8 L 177.4,170.3 L 183.0,166.8 L 188.6,163.4 L 194.3,160.1 L 200.0,157.0 L 205.6,153.9 L 211.2,150.9 L 216.9,148.0 L 222.6,145.2 L 228.2,142.5 L 233.8,139.9 L 239.5,137.4 L 245.2,135.0 L 250.8,132.6 L 256.5,130.4 L 262.1,128.2 L 267.8,126.1 L 273.4,124.1 L 279.1,122.1 L 284.7,120.2 L 290.3,118.3 L 296.0,116.5 L 301.6,114.7 L 307.3,113.0 L 313.0,111.3 L 318.6,109.6 L 324.2,108.0 L 329.9,106.4 L 335.6,104.9 L 341.2,103.4 L 346.8,101.9 L 352.5,100.5 L 358.1,99.1 L 363.8,97.8 L 369.4,96.5 L 375.1,95.2 L 380.8,94.0 L 386.4,92.8 L 392.1,91.7 L 397.7,90.6 L 403.3,89.6 L 409.0,88.7 L 414.7,87.8 L 420.3,87.0 L 425.9,86.3 L 431.6,85.6 L 437.2,85.0 L 442.9,84.5 L 448.6,84.0 L 454.2,83.7 L 459.8,83.3 L 465.5,83.1 L 471.2,82.9 L 476.8,82.7 L 482.4,82.7 L 488.1,82.6 L 493.7,82.7 L 499.4,82.8 L 505.1,83.0 L 510.7,83.2 L 516.3,83.5 L 522.0,83.9 L 527.7,84.3 L 533.3,84.8 L 539.0,85.3 L 544.6,86.0 L 550.2,86.7 L 555.9,87.4 L 561.5,88.2 L 567.2,89.1 L 572.8,90.0 L 578.5,91.0 L 584.1,92.1 L 589.8,93.3 L 595.4,94.5 L 601.1,95.7 L 606.8,97.1 L 612.4,98.5 L 618.0,99.9 L 623.7,101.2 L 629.4,102.6 L 635.0,103.9" class="nt"/>
<path d="M 74.7,328.8 L 79.4,299.4 L 84.1,274.8 L 88.8,256.7 L 93.5,244.4 L 98.2,236.2 L 103.0,230.8 L 107.7,227.3 L 112.4,225.4 L 117.1,224.7 L 121.8,225.2 L 126.5,226.3 L 131.2,227.6 L 135.9,228.9 L 140.6,229.9 L 145.3,230.6 L 150.0,231.1 L 154.8,231.4 L 159.5,231.4 L 164.2,231.3 L 168.9,231.0 L 173.6,230.6 L 178.3,230.2 L 183.0,229.7 L 187.7,229.1 L 192.4,228.5 L 197.1,227.9 L 201.8,227.3 L 206.5,226.6 L 211.2,226.1 L 216.0,225.5 L 220.7,225.0 L 225.4,224.5 L 230.1,224.1 L 234.8,223.7 L 239.5,223.4 L 244.2,223.2 L 248.9,223.1 L 253.6,223.1 L 258.3,223.2 L 263.0,223.4 L 267.8,223.8 L 272.5,224.3 L 277.2,224.8 L 281.9,225.4 L 286.6,226.0 L 291.3,226.6 L 296.0,227.0 L 300.7,227.5 L 305.4,227.8 L 310.1,228.1 L 314.8,228.4 L 319.5,228.6 L 324.2,228.8 L 329.0,228.9 L 333.7,229.0 L 338.4,229.1 L 343.1,229.1 L 347.8,229.1 L 352.5,229.1 L 357.2,229.0 L 361.9,228.9 L 366.6,228.7 L 371.3,228.5 L 376.0,228.1 L 380.8,227.7 L 385.5,227.3 L 390.2,226.9 L 394.9,226.5 L 399.6,226.2 L 404.3,226.2 L 409.0,226.3 L 413.7,226.6 L 418.4,227.1 L 423.1,227.7 L 427.8,228.5 L 432.5,229.3 L 437.2,230.4 L 442.0,231.5 L 446.7,232.7 L 451.4,234.0 L 456.1,235.4 L 460.8,236.9 L 465.5,238.4 L 470.2,240.0 L 474.9,241.7 L 479.6,243.4 L 484.3,245.2 L 489.0,247.1 L 493.8,249.0 L 498.5,250.9 L 503.2,252.9 L 507.9,254.9 L 512.6,256.9 L 517.3,259.0 L 522.0,261.1 L 526.7,263.2 L 531.4,265.3 L 536.1,267.4 L 540.8,269.5 L 545.5,271.5 L 550.2,273.6 L 555.0,275.6 L 559.7,277.6 L 564.4,279.6 L 569.1,281.5 L 573.8,283.3 L 578.5,285.1 L 583.2,286.8 L 587.9,288.4 L 592.6,289.9 L 597.3,291.4 L 602.0,292.8 L 606.8,294.0 L 611.5,295.2 L 616.2,296.4 L 620.9,297.5 L 625.6,298.5 L 630.3,299.4 L 635.0,300.4" class="fw"/>
<line x1="73.06561450896402" y1="293.1565844966386" x2="73.06561450896402" y2="319.2814628614973" class="err"/>
<line x1="70.06561450896402" y1="293.1565844966386" x2="76.06561450896402" y2="293.1565844966386" class="err"/>
<line x1="70.06561450896402" y1="319.2814628614973" x2="76.06561450896402" y2="319.2814628614973" class="err"/>
<circle cx="73.06561450896402" cy="306.21902367906796" r="2.5" class="obs"/>
<line x1="79.19684352689207" y1="273.5629257229946" x2="79.19684352689207" y2="293.1565844966386" class="err"/>
<line x1="76.19684352689207" y1="273.5629257229946" x2="82.19684352689207" y2="273.5629257229946" class="err"/>
<line x1="76.19684352689207" y1="293.1565844966386" x2="82.19684352689207" y2="293.1565844966386" class="err"/>
<circle cx="79.19684352689207" cy="283.3597551098166" r="2.5" class="obs"/>
<line x1="88.39368705378415" y1="258.5411206632008" x2="88.39368705378415" y2="278.13477943684484" class="err"/>
<line x1="85.39368705378415" y1="258.5411206632008" x2="91.39368705378415" y2="258.5411206632008" class="err"/>
<line x1="85.39368705378415" y1="278.13477943684484" x2="91.39368705378415" y2="278.13477943684484" class="err"/>
<circle cx="88.39368705378415" cy="268.3379500500228" r="2.5" class="obs"/>
<line x1="94.5249160717122" y1="236.33497405307094" x2="94.5249160717122" y2="258.5411206632008" class="err"/>
<line x1="91.5249160717122" y1="236.33497405307094" x2="97.5249160717122" y2="236.33497405307094" class="err"/>
<line x1="91.5249160717122" y1="258.5411206632008" x2="97.5249160717122" y2="258.5411206632008" class="err"/>
<circle cx="94.5249160717122" cy="247.43804735813586" r="2.5" class="obs"/>
<line x1="103.72175959860427" y1="223.925656829763" x2="103.72175959860427" y2="243.51931560340705" class="err"/>
<line x1="100.72175959860427" y1="223.925656829763" x2="106.72175959860427" y2="223.925656829763" class="err"/>
<line x1="100.72175959860427" y1="243.51931560340705" x2="106.72175959860427" y2="243.51931560340705" class="err"/>
<circle cx="103.72175959860427" cy="233.72248621658505" r="2.5" class="obs"/>
<line x1="140.50913370617255" y1="223.925656829763" x2="140.50913370617255" y2="236.9880960121924" class="err"/>
<line x1="137.50913370617255" y1="223.925656829763" x2="143.50913370617255" y2="223.925656829763" class="err"/>
<line x1="137.50913370617255" y1="236.9880960121924" x2="143.50913370617255" y2="236.9880960121924" class="err"/>
<circle cx="140.50913370617255" cy="230.45687642097772" r="2.5" class="obs"/>
<line x1="186.12176170318273" y1="221.96629095239862" x2="186.12176170318273" y2="228.4975105436133" class="err"/>
<line x1="183.12176170318273" y1="221.96629095239862" x2="189.12176170318273" y2="221.96629095239862" class="err"/>
<line x1="183.12176170318273" y1="228.4975105436133" x2="189.12176170318273" y2="228.4975105436133" class="err"/>
<circle cx="186.12176170318273" cy="225.23190074800598" r="2.5" class="obs"/>
<line x1="232.3846715657307" y1="223.27253487064158" x2="232.3846715657307" y2="229.80375446185627" class="err"/>
<line x1="229.3846715657307" y1="223.27253487064158" x2="235.3846715657307" y2="223.27253487064158" class="err"/>
<line x1="229.3846715657307" y1="229.80375446185627" x2="235.3846715657307" y2="229.80375446185627" class="err"/>
<circle cx="232.3846715657307" cy="226.53814466624888" r="2.5" class="obs"/>
<line x1="278.6475814282787" y1="224.5787787888845" x2="278.6475814282787" y2="227.1912666253704" class="err"/>
<line x1="275.6475814282787" y1="224.5787787888845" x2="281.6475814282787" y2="224.5787787888845" class="err"/>
<line x1="275.6475814282787" y1="227.1912666253704" x2="281.6475814282787" y2="227.1912666253704" class="err"/>
<circle cx="278.6475814282787" cy="225.88502270712743" r="2.5" class="obs"/>
<line x1="324.9104912908267" y1="223.925656829763" x2="324.9104912908267" y2="226.53814466624888" class="err"/>
<line x1="321.9104912908267" y1="223.925656829763" x2="327.9104912908267" y2="223.925656829763" class="err"/>
<line x1="321.9104912908267" y1="226.53814466624888" x2="327.9104912908267" y2="226.53814466624888" class="err"/>
<circle cx="324.9104912908267" cy="225.23190074800598" r="2.5" class="obs"/>
<line x1="370.2444270597493" y1="224.5787787888845" x2="370.2444270597493" y2="227.1912666253704" class="err"/>
<line x1="367.2444270597493" y1="224.5787787888845" x2="373.2444270597493" y2="224.5787787888845" class="err"/>
<line x1="367.2444270597493" y1="227.1912666253704" x2="373.2444270597493" y2="227.1912666253704" class="err"/>
<circle cx="370.2444270597493" cy="225.88502270712743" r="2.5" class="obs"/>
<line x1="416.50733692229727" y1="223.925656829763" x2="416.50733692229727" y2="227.84438858449184" class="err"/>
<line x1="413.50733692229727" y1="223.925656829763" x2="419.50733692229727" y2="223.925656829763" class="err"/>
<line x1="413.50733692229727" y1="227.84438858449184" x2="419.50733692229727" y2="227.84438858449184" class="err"/>
<circle cx="416.50733692229727" cy="225.88502270712743" r="2.5" class="obs"/>
<line x1="462.7702467848453" y1="230.45687642097772" x2="462.7702467848453" y2="234.37560817570653" class="err"/>
<line x1="459.7702467848453" y1="230.45687642097772" x2="465.7702467848453" y2="230.45687642097772" class="err"/>
<line x1="459.7702467848453" y1="234.37560817570653" x2="465.7702467848453" y2="234.37560817570653" class="err"/>
<circle cx="462.7702467848453" cy="232.4162422983421" r="2.5" class="obs"/>
<g class="legend">
<line x1="82" y1="69" x2="106" y2="69" class="fw"/>
<text x="112" y="73" class="lbl-l">framework fit</text>
<line x1="82" y1="87" x2="106" y2="87" class="nt"/>
<text x="112" y="91" class="lbl-l">Newtonian (no halo)</text>
<circle cx="94" cy="105" r="2.5" class="obs"/>
<text x="112" y="109" class="lbl">observed V±err</text>
</g>
<g class="legend">
<line x1="460" y1="69" x2="484" y2="69" class="rho"/>
<text x="490" y="73" class="lbl-r">ρ(r) raw</text>
<line x1="460" y1="87" x2="484" y2="87" class="sig"/>
<text x="490" y="91" class="lbl-r">Σ(r) smoothed</text>
<text x="460" y="113" class="lbl-r">ρ peak: 2198 M☉/pc²</text>
</g>
</svg>