<svg xmlns="http://www.w3.org/2000/svg" viewBox="0 0 960 450" width="960" height="450" font-family="sans-serif" font-size="12">
<style>
  .ax { stroke: #333; stroke-width: 1; fill: none; }
  .grid { stroke: #ddd; stroke-width: 0.5; fill: none; }
  .lbl { fill: #333; }
  .lbl-l { fill: #0066cc; }
  .lbl-r { fill: #b03030; }
  .obs { fill: #222; }
  .err { stroke: #555; stroke-width: 0.8; fill: none; }
  .fw { stroke: #0066cc; stroke-width: 2.2; fill: none; }
  .nt { stroke: #cc6600; stroke-width: 1.6; fill: none; stroke-dasharray: 5,3; }
  .mond { stroke: #7b2cbf; stroke-width: 1.8; fill: none; stroke-dasharray: 7,3; }
  .lbl-p { fill: #cc7000; }
  .lbl-m { fill: #7b2cbf; }
  .rho { stroke: #b03030; stroke-width: 2.0; fill: none; }
  .phot { stroke: #cc7000; stroke-width: 1.8; fill: none; }
  .mbar { stroke: #8e44ad; stroke-width: 1.8; fill: none; opacity: 0.9; }
  .mph { stroke: #c77dff; stroke-width: 1.6; fill: none; stroke-dasharray: 4,3; opacity: 0.95; }
  .title { fill: #111; font-size: 16px; font-weight: 600; }
  .subtitle { fill: #555; font-size: 11px; }
  .preview-bg { fill: #000; }
  .preview-lbl { fill: #888; font-size: 10px; }
  .legend { font-size: 11px; }
</style>
<text x="378.5" y="22" text-anchor="middle" class="title">NGC2683</text>
<text x="378.5" y="38" text-anchor="middle" class="subtitle">rMax=34.6 kpc, N=11, FW=17.4 km/s, 10.1%, 2.52σ, MOND=14.2 km/s, 9.0%, 1.46σ, amp=574</text>
<line x1="70" y1="395.0" x2="687" y2="395.0" class="grid"/>
<text x="64" y="399.0" text-anchor="end" class="lbl-l">0</text>
<line x1="70" y1="327.0" x2="687" y2="327.0" class="grid"/>
<text x="64" y="331.0" text-anchor="end" class="lbl-l">53</text>
<line x1="70" y1="259.0" x2="687" y2="259.0" class="grid"/>
<text x="64" y="263.0" text-anchor="end" class="lbl-l">106</text>
<line x1="70" y1="191.0" x2="687" y2="191.0" class="grid"/>
<text x="64" y="195.0" text-anchor="end" class="lbl-l">158</text>
<line x1="70" y1="123.0" x2="687" y2="123.0" class="grid"/>
<text x="64" y="127.0" text-anchor="end" class="lbl-l">211</text>
<line x1="70" y1="55.0" x2="687" y2="55.0" class="grid"/>
<text x="64" y="59.0" text-anchor="end" class="lbl-l">264</text>
<text x="693" y="399.0" text-anchor="start" class="lbl-r">0.0</text>
<text x="693" y="353.7" text-anchor="start" class="lbl-r">0.2</text>
<text x="693" y="308.3" text-anchor="start" class="lbl-r">0.4</text>
<text x="693" y="263.0" text-anchor="start" class="lbl-r">0.6</text>
<text x="693" y="217.7" text-anchor="start" class="lbl-r">0.8</text>
<text x="693" y="172.3" text-anchor="start" class="lbl-r">1.0</text>
<line x1="70.0" y1="55" x2="70.0" y2="395" class="grid"/>
<text x="70.0" y="411" text-anchor="middle" class="lbl">0.0</text>
<line x1="172.8" y1="55" x2="172.8" y2="395" class="grid"/>
<text x="172.8" y="411" text-anchor="middle" class="lbl">6.8</text>
<line x1="275.7" y1="55" x2="275.7" y2="395" class="grid"/>
<text x="275.7" y="411" text-anchor="middle" class="lbl">13.5</text>
<line x1="378.5" y1="55" x2="378.5" y2="395" class="grid"/>
<text x="378.5" y="411" text-anchor="middle" class="lbl">20.3</text>
<line x1="481.3" y1="55" x2="481.3" y2="395" class="grid"/>
<text x="481.3" y="411" text-anchor="middle" class="lbl">27.0</text>
<line x1="584.2" y1="55" x2="584.2" y2="395" class="grid"/>
<text x="584.2" y="411" text-anchor="middle" class="lbl">33.8</text>
<line x1="687.0" y1="55" x2="687.0" y2="395" class="grid"/>
<text x="687.0" y="411" text-anchor="middle" class="lbl">40.6</text>
<text x="378.5" y="438" text-anchor="middle" class="lbl">radius (kpc)</text>
<text x="16" y="225" text-anchor="middle" class="lbl-l" transform="rotate(-90, 16, 225)">velocity (km/s)</text>
<text x="724" y="225" text-anchor="middle" class="lbl-r" transform="rotate(-90, 724, 225)">profiles (normalized to peak)</text>
<rect x="70" y="55" width="617" height="340" class="ax"/>
<path d="M 70.0,168.3 L 72.8,178.6 L 75.6,188.8 L 78.5,199.1 L 81.3,209.3 L 84.1,219.5 L 86.9,229.8 L 89.7,240.0 L 92.5,250.3 L 95.4,260.5 L 98.2,270.7 L 101.0,281.0 L 103.8,284.7 L 106.6,286.7 L 109.4,288.7 L 112.3,290.7 L 115.1,292.7 L 117.9,294.7 L 120.7,296.7 L 123.5,298.7 L 126.3,300.7 L 129.2,302.7 L 132.0,304.7 L 134.8,306.7 L 137.6,308.7 L 140.4,310.7 L 143.3,312.7 L 146.1,314.6 L 148.9,316.6 L 151.7,318.6 L 154.5,320.6 L 157.3,322.1 L 160.2,322.4 L 163.0,322.8 L 165.8,323.1 L 168.6,323.5 L 171.4,323.9 L 174.2,324.2 L 177.1,324.6 L 179.9,324.9 L 182.7,325.3 L 185.5,325.7 L 188.3,326.0 L 191.1,326.4 L 194.0,326.7 L 196.8,327.1 L 199.6,327.5 L 202.4,327.8 L 205.2,328.2 L 208.1,328.5 L 210.9,328.9 L 213.7,329.3 L 216.5,329.6 L 219.3,330.0 L 222.1,330.3 L 225.0,330.7 L 227.8,331.1 L 230.6,331.4 L 233.4,331.8 L 236.2,332.1 L 239.0,332.5 L 241.9,332.9 L 244.7,333.2 L 247.5,333.6 L 250.3,333.9 L 253.1,334.3 L 255.9,334.7 L 258.8,335.0 L 261.6,335.4 L 264.4,335.8 L 267.2,336.1 L 270.0,336.5 L 272.8,336.8 L 275.7,337.2 L 278.5,337.6 L 281.3,337.9 L 284.1,338.3 L 286.9,338.6 L 289.8,339.0 L 292.6,339.4 L 295.4,339.7 L 298.2,340.1 L 301.0,340.4 L 303.8,340.8 L 306.7,341.2 L 309.5,341.5 L 312.3,341.9 L 315.1,342.2 L 317.9,342.6 L 320.7,343.0 L 323.6,343.3 L 326.4,343.7 L 329.2,344.0 L 332.0,344.4 L 334.8,344.8 L 337.6,345.1 L 340.5,345.5 L 343.3,345.8 L 346.1,346.2 L 348.9,346.6 L 351.7,346.9 L 354.6,347.3 L 357.4,347.6 L 360.2,348.0 L 363.0,348.4 L 365.8,348.7 L 368.6,349.1 L 371.5,349.4 L 374.3,349.8 L 377.1,350.2 L 379.9,350.5 L 382.7,350.9 L 385.5,351.2 L 388.4,351.6 L 391.2,352.0 L 394.0,352.3 L 396.8,352.7 L 399.6,353.1 L 402.4,353.4 L 405.3,353.8 L 408.1,354.1 L 410.9,354.3 L 413.7,354.5 L 416.5,354.7 L 419.4,355.0 L 422.2,355.2 L 425.0,355.4 L 427.8,355.6 L 430.6,355.9 L 433.4,356.1 L 436.3,356.3 L 439.1,356.5 L 441.9,356.7 L 444.7,357.0 L 447.5,357.2 L 450.3,357.4 L 453.2,357.6 L 456.0,357.8 L 458.8,358.1 L 461.6,358.3 L 464.4,358.5 L 467.2,358.7 L 470.1,359.0 L 472.9,359.2 L 475.7,359.4 L 478.5,359.6 L 481.3,359.8 L 484.2,360.1 L 487.0,360.3 L 489.8,360.5 L 492.6,360.7 L 495.4,360.9 L 498.2,361.2 L 501.1,361.4 L 503.9,361.6 L 506.7,361.8 L 509.5,362.1 L 512.3,362.3 L 515.1,362.5 L 518.0,362.7 L 520.8,362.9 L 523.6,363.2 L 526.4,363.4 L 529.2,363.6 L 532.0,363.8 L 534.9,364.1 L 537.7,364.3 L 540.5,364.5 L 543.3,364.7 L 546.1,364.9 L 548.9,365.2 L 551.8,365.4 L 554.6,365.6 L 557.4,365.8 L 560.2,366.0 L 563.0,366.3 L 565.9,366.5 L 568.7,366.7 L 571.5,366.9 L 574.3,367.2 L 577.1,367.4 L 579.9,367.6 L 582.8,367.8 L 585.6,368.0 L 588.4,368.7 L 591.2,369.7 L 594.0,370.8 L 596.8,371.9 L 599.7,373.0 L 602.5,374.0 L 605.3,375.1 L 608.1,376.2 L 610.9,377.2 L 613.7,378.3 L 616.6,379.4 L 619.4,380.5 L 622.2,381.5 L 625.0,382.6 L 627.8,383.7 L 630.7,384.7 L 633.5,385.8 L 636.3,386.9 L 639.1,388.0 L 641.9,389.0 L 644.7,390.1 L 647.6,391.2 L 650.4,392.2 L 653.2,393.3 L 656.0,394.4 L 658.8,395.0 L 661.6,395.0 L 664.5,395.0 L 667.3,395.0 L 670.1,395.0 L 672.9,395.0 L 675.7,395.0 L 678.5,395.0 L 681.4,395.0 L 684.2,395.0 L 687.0,395.0" class="rho"/>
<path d="M 114.0,168.3 L 157.8,350.1 L 201.7,378.1 L 245.5,390.2 L 289.5,394.2 L 333.3,394.7 L 377.2,394.9 L 421.0,395.0 L 508.8,395.0 L 552.7,395.0 L 596.5,395.0" class="phot"/>
<path d="M 114.0,168.3 L 157.8,270.7 L 201.7,357.4 L 245.5,383.9 L 289.5,391.0 L 333.3,395.0 L 377.2,395.0 L 421.0,395.0 L 508.8,395.0 L 552.7,395.0 L 596.5,395.0" class="mbar"/>
<path d="M 114.0,168.3 L 157.8,188.5 L 201.7,224.1 L 245.5,260.5 L 289.5,292.6 L 333.3,314.9 L 377.2,328.3 L 421.0,338.9 L 508.8,347.2 L 552.7,353.4 L 596.5,356.7" class="mph"/>
<path d="M 76.2,320.5 L 82.3,293.4 L 88.5,275.4 L 94.7,262.7 L 100.8,253.8 L 107.0,247.0 L 113.2,240.3 L 119.4,234.0 L 125.5,228.1 L 131.7,222.7 L 137.9,217.8 L 144.0,213.3 L 150.2,209.3 L 156.4,205.7 L 162.6,202.3 L 168.7,198.9 L 174.9,195.5 L 181.1,192.1 L 187.2,188.7 L 193.4,185.3 L 199.6,182.1 L 205.7,178.8 L 211.9,175.7 L 218.1,172.6 L 224.3,169.6 L 230.4,166.6 L 236.6,163.8 L 242.8,161.0 L 248.9,158.2 L 255.1,155.6 L 261.3,153.0 L 267.4,150.4 L 273.6,148.0 L 279.8,145.6 L 286.0,143.3 L 292.1,141.0 L 298.3,138.8 L 304.5,136.7 L 310.6,134.6 L 316.8,132.6 L 323.0,130.7 L 329.1,128.8 L 335.3,127.0 L 341.5,125.2 L 347.7,123.5 L 353.8,121.8 L 360.0,120.2 L 366.2,118.7 L 372.3,117.2 L 378.5,115.8 L 384.7,114.4 L 390.8,113.1 L 397.0,111.8 L 403.2,110.6 L 409.3,109.4 L 415.5,108.3 L 421.7,107.2 L 427.9,106.1 L 434.0,105.0 L 440.2,104.0 L 446.4,102.9 L 452.5,101.9 L 458.7,101.0 L 464.9,100.0 L 471.1,99.1 L 477.2,98.2 L 483.4,97.3 L 489.6,96.5 L 495.7,95.6 L 501.9,94.8 L 508.1,94.1 L 514.2,93.3 L 520.4,92.6 L 526.6,91.9 L 532.8,91.2 L 538.9,90.6 L 545.1,89.9 L 551.3,89.3 L 557.4,88.8 L 563.6,88.2 L 569.8,87.7 L 575.9,87.2 L 582.1,86.7 L 588.3,86.3 L 594.4,86.0 L 600.6,85.8 L 606.8,85.9 L 613.0,86.1 L 619.1,86.5 L 625.3,87.1 L 631.5,87.8 L 637.6,88.8 L 643.8,89.9 L 650.0,91.1 L 656.2,92.6 L 662.3,94.2 L 668.5,95.7 L 674.7,97.3 L 680.8,98.8 L 687.0,100.2" class="nt"/>
<path d="M 114.0,159.7 L 157.8,128.8 L 201.7,141.4 L 245.5,140.0 L 289.5,151.6 L 333.3,157.7 L 377.2,162.8 L 421.0,166.9 L 508.8,171.7 L 552.7,173.3 L 596.5,174.6" class="mond"/>
<path d="M 75.1,327.3 L 80.3,279.5 L 85.4,236.4 L 90.6,203.8 L 95.7,181.9 L 100.9,169.4 L 106.0,163.1 L 111.1,159.4 L 116.3,156.2 L 121.4,152.3 L 126.6,148.4 L 131.7,144.9 L 136.8,142.2 L 142.0,140.8 L 147.1,141.1 L 152.3,143.3 L 157.4,146.9 L 162.6,151.0 L 167.7,154.9 L 172.8,157.8 L 178.0,160.0 L 183.1,161.4 L 188.3,162.4 L 193.4,162.9 L 198.5,163.0 L 203.7,163.0 L 208.8,162.7 L 214.0,162.2 L 219.1,161.6 L 224.3,161.0 L 229.4,160.2 L 234.5,159.4 L 239.7,158.5 L 244.8,157.6 L 250.0,156.7 L 255.1,155.8 L 260.2,154.9 L 265.4,154.1 L 270.5,153.2 L 275.7,152.4 L 280.8,151.7 L 285.9,151.0 L 291.1,150.3 L 296.2,149.7 L 301.4,149.1 L 306.5,148.6 L 311.7,148.2 L 316.8,147.9 L 321.9,147.6 L 327.1,147.4 L 332.2,147.3 L 337.4,147.3 L 342.5,147.4 L 347.6,147.5 L 352.8,147.8 L 357.9,148.2 L 363.1,148.7 L 368.2,149.3 L 373.4,150.1 L 378.5,151.0 L 383.6,152.2 L 388.8,153.5 L 393.9,155.1 L 399.1,157.0 L 404.2,159.1 L 409.3,161.3 L 414.5,163.4 L 419.6,165.5 L 424.8,167.3 L 429.9,169.0 L 435.1,170.5 L 440.2,171.9 L 445.3,173.1 L 450.5,174.3 L 455.6,175.4 L 460.8,176.4 L 465.9,177.4 L 471.1,178.4 L 476.2,179.3 L 481.3,180.2 L 486.5,181.0 L 491.6,181.8 L 496.8,182.6 L 501.9,183.3 L 507.0,184.0 L 512.2,184.7 L 517.3,185.3 L 522.5,185.8 L 527.6,186.3 L 532.8,186.7 L 537.9,187.0 L 543.0,187.1 L 548.2,187.0 L 553.3,186.7 L 558.5,186.1 L 563.6,185.1 L 568.7,183.6 L 573.9,181.7 L 579.0,179.3 L 584.2,177.0 L 589.3,175.0 L 594.4,174.2 L 599.6,174.7 L 604.7,176.8 L 609.9,180.4 L 615.0,185.1 L 620.2,190.9 L 625.3,197.3 L 630.4,204.2 L 635.6,211.3 L 640.7,218.3 L 645.9,224.9 L 651.0,231.2 L 656.1,236.9 L 661.3,242.1 L 666.4,246.6 L 671.6,250.7 L 676.7,254.4 L 681.9,257.7 L 687.0,260.8" class="fw"/>
<line x1="113.95" y1="138.73" x2="113.95" y2="164.48" class="err"/>
<line x1="110.95" y1="138.73" x2="116.95" y2="138.73" class="err"/>
<line x1="110.95" y1="164.48" x2="116.95" y2="164.48" class="err"/>
<circle cx="113.95" cy="151.61" r="2.5" class="obs"/>
<line x1="157.76" y1="115.55" x2="157.76" y2="128.43" class="err"/>
<line x1="154.76" y1="115.55" x2="160.76" y2="115.55" class="err"/>
<line x1="154.76" y1="128.43" x2="160.76" y2="128.43" class="err"/>
<circle cx="157.76" cy="121.99" r="2.5" class="obs"/>
<line x1="201.71" y1="123.27" x2="201.71" y2="136.15" class="err"/>
<line x1="198.71" y1="123.27" x2="204.71" y2="123.27" class="err"/>
<line x1="198.71" y1="136.15" x2="204.71" y2="136.15" class="err"/>
<circle cx="201.71" cy="129.71" r="2.5" class="obs"/>
<line x1="245.51" y1="131.00" x2="245.51" y2="143.88" class="err"/>
<line x1="242.51" y1="131.00" x2="248.51" y2="131.00" class="err"/>
<line x1="242.51" y1="143.88" x2="248.51" y2="143.88" class="err"/>
<circle cx="245.51" cy="137.44" r="2.5" class="obs"/>
<line x1="289.47" y1="158.04" x2="289.47" y2="188.95" class="err"/>
<line x1="286.47" y1="158.04" x2="292.47" y2="158.04" class="err"/>
<line x1="286.47" y1="188.95" x2="292.47" y2="188.95" class="err"/>
<circle cx="289.47" cy="173.50" r="2.5" class="obs"/>
<line x1="333.27" y1="137.44" x2="333.27" y2="163.20" class="err"/>
<line x1="330.27" y1="137.44" x2="336.27" y2="137.44" class="err"/>
<line x1="330.27" y1="163.20" x2="336.27" y2="163.20" class="err"/>
<circle cx="333.27" cy="150.32" r="2.5" class="obs"/>
<line x1="377.22" y1="164.48" x2="377.22" y2="190.24" class="err"/>
<line x1="374.22" y1="164.48" x2="380.22" y2="164.48" class="err"/>
<line x1="374.22" y1="190.24" x2="380.22" y2="190.24" class="err"/>
<circle cx="377.22" cy="177.36" r="2.5" class="obs"/>
<line x1="421.03" y1="188.95" x2="421.03" y2="214.71" class="err"/>
<line x1="418.03" y1="188.95" x2="424.03" y2="188.95" class="err"/>
<line x1="418.03" y1="214.71" x2="424.03" y2="214.71" class="err"/>
<circle cx="421.03" cy="201.83" r="2.5" class="obs"/>
<line x1="508.78" y1="176.07" x2="508.78" y2="201.83" class="err"/>
<line x1="505.78" y1="176.07" x2="511.78" y2="176.07" class="err"/>
<line x1="505.78" y1="201.83" x2="511.78" y2="201.83" class="err"/>
<circle cx="508.78" cy="188.95" r="2.5" class="obs"/>
<line x1="552.74" y1="182.51" x2="552.74" y2="208.27" class="err"/>
<line x1="549.74" y1="182.51" x2="555.74" y2="182.51" class="err"/>
<line x1="549.74" y1="208.27" x2="555.74" y2="208.27" class="err"/>
<circle cx="552.74" cy="195.39" r="2.5" class="obs"/>
<line x1="596.54" y1="185.09" x2="596.54" y2="216.00" class="err"/>
<line x1="593.54" y1="185.09" x2="599.54" y2="185.09" class="err"/>
<line x1="593.54" y1="216.00" x2="599.54" y2="216.00" class="err"/>
<circle cx="596.54" cy="200.54" r="2.5" class="obs"/>
<g class="legend">
<line x1="82" y1="69" x2="106" y2="69" class="fw"/>
<text x="112" y="73" class="lbl-l">framework: 17.4 km/s, 10.1%, 2.52σ</text>
<line x1="82" y1="87" x2="106" y2="87" class="nt"/>
<text x="112" y="91" class="lbl-l">Newtonian: 59.9 km/s, 36.4%, 7.07σ</text>
<line x1="82" y1="105" x2="106" y2="105" class="mond"/>
<text x="112" y="109" class="lbl-m">MOND/RAR: 14.2 km/s, 9.0%, 1.46σ</text>
<circle cx="94" cy="123" r="2.5" class="obs"/>
<text x="112" y="127" class="lbl">observed V±err</text>
</g>
<g class="legend">
<line x1="472" y1="69" x2="496" y2="69" class="rho"/>
<text x="502" y="73" class="lbl-r">ρ(r) raw</text>
<line x1="472" y1="87" x2="496" y2="87" class="phot"/>
<text x="502" y="91" class="lbl-p">photometric baryonic profile</text>
<line x1="472" y1="105" x2="496" y2="105" class="mbar"/>
<text x="502" y="109" class="lbl-m">MOND baryonic annulus</text>
<line x1="472" y1="123" x2="496" y2="123" class="mph"/>
<text x="502" y="127" class="lbl-m">MOND phantom annulus</text>
<text x="472" y="147" class="lbl-r">ρ peak: 654 M☉/pc²</text>
<text x="472" y="163" class="lbl-p">phot peak: 377.69 (arb.)</text>
<text x="472" y="179" class="lbl-m">Σbar peak: 578.07 M☉/pc²</text>
<text x="472" y="195" class="lbl-m">Σphantom peak: 174.66 M☉/pc²</text>
</g>
<rect x="775" y="55" width="170" height="170" class="preview-bg"/>
<defs><radialGradient id="g_NGC2683" cx="0.5" cy="0.5" r="0.5">
  <stop offset="0.0000" stop-color="rgb(215,215,215)"/>
  <stop offset="0.0313" stop-color="rgb(162,162,162)"/>
  <stop offset="0.0625" stop-color="rgb(122,122,122)"/>
  <stop offset="0.0938" stop-color="rgb(111,111,111)"/>
  <stop offset="0.1250" stop-color="rgb(101,101,101)"/>
  <stop offset="0.1563" stop-color="rgb(93,93,93)"/>
  <stop offset="0.1875" stop-color="rgb(92,92,92)"/>
  <stop offset="0.2188" stop-color="rgb(90,90,90)"/>
  <stop offset="0.2500" stop-color="rgb(88,88,88)"/>
  <stop offset="0.2813" stop-color="rgb(86,86,86)"/>
  <stop offset="0.3125" stop-color="rgb(84,84,84)"/>
  <stop offset="0.3438" stop-color="rgb(82,82,82)"/>
  <stop offset="0.3750" stop-color="rgb(81,81,81)"/>
  <stop offset="0.4063" stop-color="rgb(79,79,79)"/>
  <stop offset="0.4375" stop-color="rgb(77,77,77)"/>
  <stop offset="0.4688" stop-color="rgb(75,75,75)"/>
  <stop offset="0.5000" stop-color="rgb(73,73,73)"/>
  <stop offset="0.5313" stop-color="rgb(71,71,71)"/>
  <stop offset="0.5625" stop-color="rgb(69,69,69)"/>
  <stop offset="0.5938" stop-color="rgb(68,68,68)"/>
  <stop offset="0.6250" stop-color="rgb(67,67,67)"/>
  <stop offset="0.6563" stop-color="rgb(66,66,66)"/>
  <stop offset="0.6875" stop-color="rgb(65,65,65)"/>
  <stop offset="0.7188" stop-color="rgb(63,63,63)"/>
  <stop offset="0.7500" stop-color="rgb(60,60,60)"/>
  <stop offset="0.7813" stop-color="rgb(58,58,58)"/>
  <stop offset="0.8125" stop-color="rgb(55,55,55)"/>
  <stop offset="0.8438" stop-color="rgb(52,52,52)"/>
  <stop offset="0.8750" stop-color="rgb(50,50,50)"/>
  <stop offset="0.9063" stop-color="rgb(39,39,39)"/>
  <stop offset="0.9375" stop-color="rgb(26,26,26)"/>
  <stop offset="0.9688" stop-color="rgb(13,13,13)"/>
  <stop offset="1.0000" stop-color="rgb(0,0,0)"/>
</radialGradient></defs>
<circle cx="860" cy="140" r="81" fill="url(#g_NGC2683)"/>
<text x="860" y="49" text-anchor="middle" class="preview-lbl">face-on luminance from ρ(r)</text>
<text x="860" y="239" text-anchor="middle" class="preview-lbl">edge at r = 38.6 kpc</text>
</svg>