<svg xmlns="http://www.w3.org/2000/svg" viewBox="0 0 960 450" width="960" height="450" font-family="sans-serif" font-size="12">
<style>
  .ax { stroke: #333; stroke-width: 1; fill: none; }
  .grid { stroke: #ddd; stroke-width: 0.5; fill: none; }
  .lbl { fill: #333; }
  .lbl-l { fill: #0066cc; }
  .lbl-r { fill: #b03030; }
  .obs { fill: #222; }
  .err { stroke: #555; stroke-width: 0.8; fill: none; }
  .fw { stroke: #0066cc; stroke-width: 2.2; fill: none; }
  .nt { stroke: #cc6600; stroke-width: 1.6; fill: none; stroke-dasharray: 5,3; }
  .mond { stroke: #7b2cbf; stroke-width: 1.8; fill: none; stroke-dasharray: 7,3; }
  .lbl-p { fill: #cc7000; }
  .lbl-m { fill: #7b2cbf; }
  .rho { stroke: #b03030; stroke-width: 2.0; fill: none; }
  .phot { stroke: #cc7000; stroke-width: 1.8; fill: none; }
  .mbar { stroke: #8e44ad; stroke-width: 1.8; fill: none; opacity: 0.9; }
  .mph { stroke: #c77dff; stroke-width: 1.6; fill: none; stroke-dasharray: 4,3; opacity: 0.95; }
  .title { fill: #111; font-size: 16px; font-weight: 600; }
  .subtitle { fill: #555; font-size: 11px; }
  .preview-bg { fill: #000; }
  .preview-lbl { fill: #888; font-size: 10px; }
  .legend { font-size: 11px; }
</style>
<text x="378.5" y="22" text-anchor="middle" class="title">NGC2998</text>
<text x="378.5" y="38" text-anchor="middle" class="subtitle">rMax=42.3 kpc, N=13, FW=16.5 km/s, 16.4%, 1.56σ, MOND=27.7 km/s, 21.4%, 3.93σ, amp=694</text>
<line x1="70" y1="395.0" x2="687" y2="395.0" class="grid"/>
<text x="64" y="399.0" text-anchor="end" class="lbl-l">0</text>
<line x1="70" y1="327.0" x2="687" y2="327.0" class="grid"/>
<text x="64" y="331.0" text-anchor="end" class="lbl-l">51</text>
<line x1="70" y1="259.0" x2="687" y2="259.0" class="grid"/>
<text x="64" y="263.0" text-anchor="end" class="lbl-l">102</text>
<line x1="70" y1="191.0" x2="687" y2="191.0" class="grid"/>
<text x="64" y="195.0" text-anchor="end" class="lbl-l">153</text>
<line x1="70" y1="123.0" x2="687" y2="123.0" class="grid"/>
<text x="64" y="127.0" text-anchor="end" class="lbl-l">204</text>
<line x1="70" y1="55.0" x2="687" y2="55.0" class="grid"/>
<text x="64" y="59.0" text-anchor="end" class="lbl-l">255</text>
<text x="693" y="399.0" text-anchor="start" class="lbl-r">0.0</text>
<text x="693" y="353.7" text-anchor="start" class="lbl-r">0.2</text>
<text x="693" y="308.3" text-anchor="start" class="lbl-r">0.4</text>
<text x="693" y="263.0" text-anchor="start" class="lbl-r">0.6</text>
<text x="693" y="217.7" text-anchor="start" class="lbl-r">0.8</text>
<text x="693" y="172.3" text-anchor="start" class="lbl-r">1.0</text>
<line x1="70.0" y1="55" x2="70.0" y2="395" class="grid"/>
<text x="70.0" y="411" text-anchor="middle" class="lbl">0.0</text>
<line x1="172.8" y1="55" x2="172.8" y2="395" class="grid"/>
<text x="172.8" y="411" text-anchor="middle" class="lbl">10.1</text>
<line x1="275.7" y1="55" x2="275.7" y2="395" class="grid"/>
<text x="275.7" y="411" text-anchor="middle" class="lbl">20.3</text>
<line x1="378.5" y1="55" x2="378.5" y2="395" class="grid"/>
<text x="378.5" y="411" text-anchor="middle" class="lbl">30.4</text>
<line x1="481.3" y1="55" x2="481.3" y2="395" class="grid"/>
<text x="481.3" y="411" text-anchor="middle" class="lbl">40.5</text>
<line x1="584.2" y1="55" x2="584.2" y2="395" class="grid"/>
<text x="584.2" y="411" text-anchor="middle" class="lbl">50.7</text>
<line x1="687.0" y1="55" x2="687.0" y2="395" class="grid"/>
<text x="687.0" y="411" text-anchor="middle" class="lbl">60.8</text>
<text x="378.5" y="438" text-anchor="middle" class="lbl">radius (kpc)</text>
<text x="16" y="225" text-anchor="middle" class="lbl-l" transform="rotate(-90, 16, 225)">velocity (km/s)</text>
<text x="724" y="225" text-anchor="middle" class="lbl-r" transform="rotate(-90, 724, 225)">profiles (normalized to peak)</text>
<rect x="70" y="55" width="617" height="340" class="ax"/>
<path d="M 70.0,168.3 L 72.8,186.9 L 75.6,205.4 L 78.5,224.0 L 81.3,242.5 L 84.1,261.1 L 86.9,279.6 L 89.7,298.2 L 92.5,305.9 L 95.4,308.7 L 98.2,311.5 L 101.0,314.4 L 103.8,317.2 L 106.6,320.1 L 109.4,322.9 L 112.3,325.7 L 115.1,328.6 L 117.9,331.4 L 120.7,334.2 L 123.5,337.1 L 126.3,338.6 L 129.2,338.9 L 132.0,339.3 L 134.8,339.6 L 137.6,339.9 L 140.4,340.2 L 143.3,340.5 L 146.1,340.8 L 148.9,341.2 L 151.7,341.5 L 154.5,341.8 L 157.3,342.1 L 160.2,342.4 L 163.0,342.7 L 165.8,343.0 L 168.6,343.4 L 171.4,343.7 L 174.2,344.0 L 177.1,344.3 L 179.9,344.6 L 182.7,344.9 L 185.5,345.3 L 188.3,345.6 L 191.1,345.9 L 194.0,346.2 L 196.8,346.5 L 199.6,346.8 L 202.4,347.1 L 205.2,347.5 L 208.1,347.8 L 210.9,348.1 L 213.7,348.4 L 216.5,348.7 L 219.3,349.0 L 222.1,349.4 L 225.0,349.7 L 227.8,350.0 L 230.6,350.3 L 233.4,350.6 L 236.2,350.9 L 239.0,351.2 L 241.9,351.6 L 244.7,351.9 L 247.5,352.2 L 250.3,352.5 L 253.1,352.8 L 255.9,353.1 L 258.8,353.5 L 261.6,353.8 L 264.4,354.1 L 267.2,354.4 L 270.0,354.7 L 272.8,355.0 L 275.7,355.4 L 278.5,355.7 L 281.3,356.0 L 284.1,356.3 L 286.9,356.6 L 289.8,356.9 L 292.6,357.2 L 295.4,357.6 L 298.2,357.8 L 301.0,358.0 L 303.8,358.2 L 306.7,358.4 L 309.5,358.6 L 312.3,358.8 L 315.1,359.0 L 317.9,359.2 L 320.7,359.4 L 323.6,359.6 L 326.4,359.8 L 329.2,360.0 L 332.0,360.2 L 334.8,360.4 L 337.6,360.6 L 340.5,360.8 L 343.3,361.0 L 346.1,361.2 L 348.9,361.4 L 351.7,361.6 L 354.6,361.8 L 357.4,362.0 L 360.2,362.2 L 363.0,362.4 L 365.8,362.6 L 368.6,362.8 L 371.5,363.0 L 374.3,363.2 L 377.1,363.5 L 379.9,363.7 L 382.7,363.9 L 385.5,364.1 L 388.4,364.3 L 391.2,364.5 L 394.0,364.7 L 396.8,364.9 L 399.6,365.1 L 402.4,365.3 L 405.3,365.5 L 408.1,365.7 L 410.9,365.9 L 413.7,366.1 L 416.5,366.3 L 419.4,366.5 L 422.2,366.8 L 425.0,367.2 L 427.8,367.5 L 430.6,367.8 L 433.4,368.2 L 436.3,368.5 L 439.1,368.8 L 441.9,369.2 L 444.7,369.5 L 447.5,369.9 L 450.3,370.2 L 453.2,370.5 L 456.0,370.9 L 458.8,371.2 L 461.6,371.5 L 464.4,371.9 L 467.2,372.2 L 470.1,372.6 L 472.9,372.9 L 475.7,373.2 L 478.5,373.6 L 481.3,373.9 L 484.2,374.2 L 487.0,374.6 L 489.8,374.9 L 492.6,375.3 L 495.4,375.6 L 498.2,375.9 L 501.1,376.3 L 503.9,376.6 L 506.7,376.9 L 509.5,377.3 L 512.3,377.6 L 515.1,377.9 L 518.0,378.3 L 520.8,378.6 L 523.6,379.0 L 526.4,379.3 L 529.2,379.6 L 532.0,380.0 L 534.9,380.3 L 537.7,380.6 L 540.5,381.0 L 543.3,381.3 L 546.1,381.7 L 548.9,382.0 L 551.8,382.3 L 554.6,382.7 L 557.4,383.0 L 560.2,383.3 L 563.0,383.7 L 565.9,384.0 L 568.7,384.4 L 571.5,384.7 L 574.3,385.0 L 577.1,385.4 L 579.9,385.7 L 582.8,386.0 L 585.6,386.4 L 588.4,386.7 L 591.2,387.1 L 594.0,387.4 L 596.8,387.7 L 599.7,388.1 L 602.5,388.4 L 605.3,388.7 L 608.1,389.1 L 610.9,389.4 L 613.7,389.7 L 616.6,390.1 L 619.4,390.4 L 622.2,390.8 L 625.0,391.1 L 627.8,391.4 L 630.7,391.8 L 633.5,392.1 L 636.3,392.4 L 639.1,392.8 L 641.9,393.1 L 644.7,393.5 L 647.6,393.8 L 650.4,394.1 L 653.2,394.5 L 656.0,394.8 L 658.8,395.0 L 661.6,395.0 L 664.5,395.0 L 667.3,395.0 L 670.1,395.0 L 672.9,395.0 L 675.7,395.0 L 678.5,395.0 L 681.4,395.0 L 684.2,395.0 L 687.0,395.0" class="rho"/>
<path d="M 73.3,168.3 L 80.0,264.7 L 90.1,297.7 L 96.8,309.2 L 106.8,318.1 L 147.0,373.9 L 196.8,388.9 L 247.3,393.1 L 297.9,393.8 L 348.4,394.4 L 397.9,394.7 L 448.4,394.9 L 498.9,395.0" class="phot"/>
<path d="M 73.3,241.4 L 80.0,207.8 L 90.1,190.4 L 96.8,168.3 L 106.8,170.7 L 147.0,251.9 L 196.8,333.7 L 247.3,368.3 L 297.9,383.3 L 348.4,387.3 L 397.9,388.5 L 448.4,391.4 L 498.9,393.6" class="mbar"/>
<path d="M 73.3,185.4 L 80.0,176.3 L 90.1,171.8 L 96.8,168.3 L 106.8,170.4 L 147.0,193.6 L 196.8,228.6 L 247.3,261.8 L 297.9,288.1 L 348.4,303.1 L 397.9,313.4 L 448.4,325.5 L 498.9,334.9" class="mph"/>
<path d="M 76.2,304.7 L 82.3,276.2 L 88.5,261.4 L 94.7,253.8 L 100.8,246.3 L 107.0,239.3 L 113.2,233.1 L 119.4,227.9 L 125.5,223.6 L 131.7,219.5 L 137.9,215.2 L 144.0,210.8 L 150.2,206.4 L 156.4,202.0 L 162.6,197.7 L 168.7,193.5 L 174.9,189.4 L 181.1,185.3 L 187.2,181.4 L 193.4,177.6 L 199.6,173.9 L 205.7,170.3 L 211.9,166.8 L 218.1,163.5 L 224.3,160.2 L 230.4,157.0 L 236.6,154.0 L 242.8,151.0 L 248.9,148.2 L 255.1,145.4 L 261.3,142.7 L 267.4,140.2 L 273.6,137.7 L 279.8,135.3 L 285.9,133.0 L 292.1,130.7 L 298.3,128.6 L 304.5,126.5 L 310.6,124.5 L 316.8,122.5 L 323.0,120.5 L 329.1,118.6 L 335.3,116.7 L 341.5,114.9 L 347.7,113.1 L 353.8,111.4 L 360.0,109.7 L 366.2,108.1 L 372.3,106.5 L 378.5,104.9 L 384.7,103.4 L 390.8,102.0 L 397.0,100.5 L 403.2,99.1 L 409.4,97.8 L 415.5,96.5 L 421.7,95.2 L 427.9,94.1 L 434.0,93.0 L 440.2,91.9 L 446.4,91.0 L 452.5,90.1 L 458.7,89.3 L 464.9,88.6 L 471.1,87.9 L 477.2,87.4 L 483.4,86.9 L 489.6,86.4 L 495.7,86.1 L 501.9,85.8 L 508.1,85.6 L 514.2,85.4 L 520.4,85.3 L 526.6,85.3 L 532.8,85.4 L 538.9,85.5 L 545.1,85.7 L 551.3,85.9 L 557.4,86.3 L 563.6,86.7 L 569.8,87.1 L 575.9,87.7 L 582.1,88.3 L 588.3,89.0 L 594.5,89.7 L 600.6,90.5 L 606.8,91.4 L 613.0,92.4 L 619.1,93.4 L 625.3,94.5 L 631.5,95.7 L 637.6,97.0 L 643.8,98.3 L 650.0,99.7 L 656.2,101.2 L 662.3,102.7 L 668.5,104.2 L 674.7,105.7 L 680.8,107.2 L 687.0,108.6" class="nt"/>
<path d="M 73.3,340.4 L 80.0,287.0 L 90.1,242.0 L 96.8,216.5 L 106.8,172.8 L 147.0,125.6 L 196.8,107.4 L 247.3,98.1 L 297.9,100.5 L 348.4,96.6 L 397.9,92.7 L 448.4,91.9 L 498.9,93.5" class="mond"/>
<path d="M 75.1,321.1 L 80.3,261.0 L 85.4,210.6 L 90.6,173.7 L 95.7,148.5 L 100.8,131.8 L 106.0,120.7 L 111.1,113.6 L 116.3,109.7 L 121.4,108.4 L 126.6,109.3 L 131.7,111.5 L 136.8,114.2 L 142.0,116.8 L 147.1,118.9 L 152.3,120.5 L 157.4,121.4 L 162.6,121.9 L 167.7,122.0 L 172.8,121.8 L 178.0,121.2 L 183.1,120.5 L 188.3,119.5 L 193.4,118.5 L 198.5,117.3 L 203.7,116.1 L 208.8,114.8 L 214.0,113.5 L 219.1,112.3 L 224.3,111.1 L 229.4,109.9 L 234.5,108.9 L 239.7,107.9 L 244.8,107.0 L 250.0,106.3 L 255.1,105.7 L 260.2,105.3 L 265.4,105.1 L 270.5,105.0 L 275.7,105.3 L 280.8,105.7 L 285.9,106.4 L 291.1,107.4 L 296.2,108.6 L 301.4,109.8 L 306.5,111.0 L 311.7,112.1 L 316.8,113.1 L 321.9,114.0 L 327.1,114.7 L 332.2,115.3 L 337.4,115.8 L 342.5,116.3 L 347.7,116.6 L 352.8,116.9 L 357.9,117.1 L 363.1,117.3 L 368.2,117.3 L 373.4,117.4 L 378.5,117.3 L 383.6,117.2 L 388.8,116.9 L 393.9,116.5 L 399.1,116.0 L 404.2,115.3 L 409.4,114.5 L 414.5,113.6 L 419.6,112.7 L 424.8,112.0 L 429.9,111.5 L 435.1,111.3 L 440.2,111.6 L 445.3,112.2 L 450.5,113.1 L 455.6,114.4 L 460.8,116.0 L 465.9,117.8 L 471.1,119.9 L 476.2,122.2 L 481.3,124.6 L 486.5,127.3 L 491.6,130.2 L 496.8,133.2 L 501.9,136.3 L 507.0,139.6 L 512.2,143.1 L 517.3,146.6 L 522.5,150.3 L 527.6,154.0 L 532.8,157.9 L 537.9,161.9 L 543.0,165.9 L 548.2,170.0 L 553.3,174.2 L 558.5,178.4 L 563.6,182.6 L 568.7,186.9 L 573.9,191.2 L 579.0,195.5 L 584.2,199.8 L 589.3,204.0 L 594.4,208.2 L 599.6,212.4 L 604.7,216.5 L 609.9,220.5 L 615.0,224.3 L 620.2,228.1 L 625.3,231.7 L 630.4,235.2 L 635.6,238.5 L 640.7,241.6 L 645.9,244.6 L 651.0,247.4 L 656.1,250.0 L 661.3,252.5 L 666.4,254.8 L 671.6,257.0 L 676.7,259.1 L 681.9,261.0 L 687.0,262.9" class="fw"/>
<line x1="73.35" y1="248.20" x2="73.35" y2="301.58" class="err"/>
<line x1="70.35" y1="248.20" x2="76.35" y2="248.20" class="err"/>
<line x1="70.35" y1="301.58" x2="76.35" y2="301.58" class="err"/>
<circle cx="73.35" cy="274.89" r="2.5" class="obs"/>
<line x1="80.04" y1="208.16" x2="80.04" y2="248.20" class="err"/>
<line x1="77.04" y1="208.16" x2="83.04" y2="208.16" class="err"/>
<line x1="77.04" y1="248.20" x2="83.04" y2="248.20" class="err"/>
<circle cx="80.04" cy="228.18" r="2.5" class="obs"/>
<line x1="90.09" y1="177.47" x2="90.09" y2="217.50" class="err"/>
<line x1="87.09" y1="177.47" x2="93.09" y2="177.47" class="err"/>
<line x1="87.09" y1="217.50" x2="93.09" y2="217.50" class="err"/>
<circle cx="90.09" cy="197.49" r="2.5" class="obs"/>
<line x1="96.78" y1="132.09" x2="96.78" y2="177.47" class="err"/>
<line x1="93.78" y1="132.09" x2="99.78" y2="132.09" class="err"/>
<line x1="93.78" y1="177.47" x2="99.78" y2="177.47" class="err"/>
<circle cx="96.78" cy="154.78" r="2.5" class="obs"/>
<line x1="106.83" y1="106.74" x2="106.83" y2="146.77" class="err"/>
<line x1="103.83" y1="106.74" x2="109.83" y2="106.74" class="err"/>
<line x1="103.83" y1="146.77" x2="109.83" y2="146.77" class="err"/>
<circle cx="106.83" cy="126.75" r="2.5" class="obs"/>
<line x1="147.00" y1="106.74" x2="147.00" y2="133.43" class="err"/>
<line x1="144.00" y1="106.74" x2="150.00" y2="106.74" class="err"/>
<line x1="144.00" y1="133.43" x2="150.00" y2="133.43" class="err"/>
<circle cx="147.00" cy="120.08" r="2.5" class="obs"/>
<line x1="196.81" y1="102.73" x2="196.81" y2="116.08" class="err"/>
<line x1="193.81" y1="102.73" x2="199.81" y2="102.73" class="err"/>
<line x1="193.81" y1="116.08" x2="199.81" y2="116.08" class="err"/>
<circle cx="196.81" cy="109.41" r="2.5" class="obs"/>
<line x1="247.33" y1="105.40" x2="247.33" y2="118.75" class="err"/>
<line x1="244.33" y1="105.40" x2="250.33" y2="105.40" class="err"/>
<line x1="244.33" y1="118.75" x2="250.33" y2="118.75" class="err"/>
<circle cx="247.33" cy="112.07" r="2.5" class="obs"/>
<line x1="297.85" y1="108.07" x2="297.85" y2="113.41" class="err"/>
<line x1="294.85" y1="108.07" x2="300.85" y2="108.07" class="err"/>
<line x1="294.85" y1="113.41" x2="300.85" y2="113.41" class="err"/>
<circle cx="297.85" cy="110.74" r="2.5" class="obs"/>
<line x1="348.37" y1="106.74" x2="348.37" y2="112.07" class="err"/>
<line x1="345.37" y1="106.74" x2="351.37" y2="106.74" class="err"/>
<line x1="345.37" y1="112.07" x2="351.37" y2="112.07" class="err"/>
<circle cx="348.37" cy="109.41" r="2.5" class="obs"/>
<line x1="397.88" y1="108.07" x2="397.88" y2="113.41" class="err"/>
<line x1="394.88" y1="108.07" x2="400.88" y2="108.07" class="err"/>
<line x1="394.88" y1="113.41" x2="400.88" y2="113.41" class="err"/>
<circle cx="397.88" cy="110.74" r="2.5" class="obs"/>
<line x1="448.40" y1="106.74" x2="448.40" y2="114.74" class="err"/>
<line x1="445.40" y1="106.74" x2="451.40" y2="106.74" class="err"/>
<line x1="445.40" y1="114.74" x2="451.40" y2="114.74" class="err"/>
<circle cx="448.40" cy="110.74" r="2.5" class="obs"/>
<line x1="498.92" y1="120.08" x2="498.92" y2="128.09" class="err"/>
<line x1="495.92" y1="120.08" x2="501.92" y2="120.08" class="err"/>
<line x1="495.92" y1="128.09" x2="501.92" y2="128.09" class="err"/>
<circle cx="498.92" cy="124.09" r="2.5" class="obs"/>
<g class="legend">
<line x1="82" y1="69" x2="106" y2="69" class="fw"/>
<text x="112" y="73" class="lbl-l">framework: 16.5 km/s, 16.4%, 1.56σ</text>
<line x1="82" y1="87" x2="106" y2="87" class="nt"/>
<text x="112" y="91" class="lbl-l">Newtonian: 45.3 km/s, 26.9%, 5.70σ</text>
<line x1="82" y1="105" x2="106" y2="105" class="mond"/>
<text x="112" y="109" class="lbl-m">MOND/RAR: 27.7 km/s, 21.4%, 3.93σ</text>
<circle cx="94" cy="123" r="2.5" class="obs"/>
<text x="112" y="127" class="lbl">observed V±err</text>
</g>
<g class="legend">
<line x1="472" y1="69" x2="496" y2="69" class="rho"/>
<text x="502" y="73" class="lbl-r">ρ(r) raw</text>
<line x1="472" y1="87" x2="496" y2="87" class="phot"/>
<text x="502" y="91" class="lbl-p">photometric baryonic profile</text>
<line x1="472" y1="105" x2="496" y2="105" class="mbar"/>
<text x="502" y="109" class="lbl-m">MOND baryonic annulus</text>
<line x1="472" y1="123" x2="496" y2="123" class="mph"/>
<text x="502" y="127" class="lbl-m">MOND phantom annulus</text>
<text x="472" y="147" class="lbl-r">ρ peak: 633 M☉/pc²</text>
<text x="472" y="163" class="lbl-p">phot peak: 1035.14 (arb.)</text>
<text x="472" y="179" class="lbl-m">Σbar peak: 370.94 M☉/pc²</text>
<text x="472" y="195" class="lbl-m">Σphantom peak: 168.42 M☉/pc²</text>
</g>
<rect x="775" y="55" width="170" height="170" class="preview-bg"/>
<defs><radialGradient id="g_NGC2998" cx="0.5" cy="0.5" r="0.5">
  <stop offset="0.0000" stop-color="rgb(209,209,209)"/>
  <stop offset="0.0313" stop-color="rgb(117,117,117)"/>
  <stop offset="0.0625" stop-color="rgb(94,94,94)"/>
  <stop offset="0.0938" stop-color="rgb(80,80,80)"/>
  <stop offset="0.1250" stop-color="rgb(78,78,78)"/>
  <stop offset="0.1563" stop-color="rgb(76,76,76)"/>
  <stop offset="0.1875" stop-color="rgb(75,75,75)"/>
  <stop offset="0.2188" stop-color="rgb(73,73,73)"/>
  <stop offset="0.2500" stop-color="rgb(72,72,72)"/>
  <stop offset="0.2813" stop-color="rgb(70,70,70)"/>
  <stop offset="0.3125" stop-color="rgb(69,69,69)"/>
  <stop offset="0.3438" stop-color="rgb(67,67,67)"/>
  <stop offset="0.3750" stop-color="rgb(65,65,65)"/>
  <stop offset="0.4063" stop-color="rgb(64,64,64)"/>
  <stop offset="0.4375" stop-color="rgb(63,63,63)"/>
  <stop offset="0.4688" stop-color="rgb(60,60,60)"/>
  <stop offset="0.5000" stop-color="rgb(58,58,58)"/>
  <stop offset="0.5313" stop-color="rgb(56,56,56)"/>
  <stop offset="0.5625" stop-color="rgb(53,53,53)"/>
  <stop offset="0.5938" stop-color="rgb(51,51,51)"/>
  <stop offset="0.6250" stop-color="rgb(47,47,47)"/>
  <stop offset="0.6563" stop-color="rgb(43,43,43)"/>
  <stop offset="0.6875" stop-color="rgb(39,39,39)"/>
  <stop offset="0.7188" stop-color="rgb(35,35,35)"/>
  <stop offset="0.7500" stop-color="rgb(31,31,31)"/>
  <stop offset="0.7813" stop-color="rgb(27,27,27)"/>
  <stop offset="0.8125" stop-color="rgb(23,23,23)"/>
  <stop offset="0.8438" stop-color="rgb(20,20,20)"/>
  <stop offset="0.8750" stop-color="rgb(16,16,16)"/>
  <stop offset="0.9063" stop-color="rgb(12,12,12)"/>
  <stop offset="0.9375" stop-color="rgb(8,8,8)"/>
  <stop offset="0.9688" stop-color="rgb(4,4,4)"/>
  <stop offset="1.0000" stop-color="rgb(0,0,0)"/>
</radialGradient></defs>
<circle cx="860" cy="140" r="81" fill="url(#g_NGC2998)"/>
<text x="860" y="49" text-anchor="middle" class="preview-lbl">face-on luminance from ρ(r)</text>
<text x="860" y="239" text-anchor="middle" class="preview-lbl">edge at r = 57.9 kpc</text>
</svg>