<svg xmlns="http://www.w3.org/2000/svg" viewBox="0 0 720 420" width="720" height="420" font-family="sans-serif" font-size="12">
<style>
  .ax { stroke: #333; stroke-width: 1; fill: none; }
  .grid { stroke: #ddd; stroke-width: 0.5; fill: none; }
  .lbl { fill: #333; }
  .lbl-l { fill: #0066cc; }
  .lbl-r { fill: #b03030; }
  .obs { fill: #222; }
  .err { stroke: #555; stroke-width: 0.8; fill: none; }
  .fw { stroke: #0066cc; stroke-width: 2.2; fill: none; }
  .nt { stroke: #cc6600; stroke-width: 1.6; fill: none; stroke-dasharray: 5,3; }
  .rho { stroke: #b03030; stroke-width: 2.0; fill: none; }
  .sig { stroke: #b03030; stroke-width: 1.6; fill: none; stroke-dasharray: 4,2; opacity: 0.85; }
  .title { fill: #111; font-size: 16px; font-weight: 600; }
  .subtitle { fill: #555; font-size: 11px; }
  .legend { font-size: 11px; }
</style>
<text x="360.0" y="22" text-anchor="middle" class="title">NGC3877</text>
<text x="360.0" y="38" text-anchor="middle" class="subtitle">rMax=11.3 kpc, N=13, RMS=5.6 km/s (3.9%), amp=1007</text>
<line x1="70" y1="365.0" x2="635" y2="365.0" class="grid"/>
<text x="64" y="369.0" text-anchor="end" class="lbl-l">0</text>
<line x1="70" y1="303.0" x2="635" y2="303.0" class="grid"/>
<text x="64" y="307.0" text-anchor="end" class="lbl-l">39</text>
<line x1="70" y1="241.0" x2="635" y2="241.0" class="grid"/>
<text x="64" y="245.0" text-anchor="end" class="lbl-l">79</text>
<line x1="70" y1="178.99999999999997" x2="635" y2="178.99999999999997" class="grid"/>
<text x="64" y="182.99999999999997" text-anchor="end" class="lbl-l">118</text>
<line x1="70" y1="116.99999999999999" x2="635" y2="116.99999999999999" class="grid"/>
<text x="64" y="120.99999999999999" text-anchor="end" class="lbl-l">157</text>
<line x1="70" y1="55.0" x2="635" y2="55.0" class="grid"/>
<text x="64" y="59.0" text-anchor="end" class="lbl-l">197</text>
<text x="641" y="369.0" text-anchor="start" class="lbl-r">0.0</text>
<text x="641" y="327.6666666666667" text-anchor="start" class="lbl-r">0.2</text>
<text x="641" y="286.33333333333337" text-anchor="start" class="lbl-r">0.4</text>
<text x="641" y="245.00000000000003" text-anchor="start" class="lbl-r">0.6</text>
<text x="641" y="203.66666666666666" text-anchor="start" class="lbl-r">0.8</text>
<text x="641" y="162.33333333333334" text-anchor="start" class="lbl-r">1.0</text>
<line x1="70.0" y1="55" x2="70.0" y2="365" class="grid"/>
<text x="70.0" y="381" text-anchor="middle" class="lbl">0.0</text>
<line x1="164.16666666666669" y1="55" x2="164.16666666666669" y2="365" class="grid"/>
<text x="164.16666666666669" y="381" text-anchor="middle" class="lbl">2.3</text>
<line x1="258.33333333333337" y1="55" x2="258.33333333333337" y2="365" class="grid"/>
<text x="258.33333333333337" y="381" text-anchor="middle" class="lbl">4.6</text>
<line x1="352.5" y1="55" x2="352.5" y2="365" class="grid"/>
<text x="352.5" y="381" text-anchor="middle" class="lbl">6.9</text>
<line x1="446.6666666666667" y1="55" x2="446.6666666666667" y2="365" class="grid"/>
<text x="446.6666666666667" y="381" text-anchor="middle" class="lbl">9.2</text>
<line x1="540.8333333333333" y1="55" x2="540.8333333333333" y2="365" class="grid"/>
<text x="540.8333333333333" y="381" text-anchor="middle" class="lbl">11.4</text>
<line x1="635.0" y1="55" x2="635.0" y2="365" class="grid"/>
<text x="635.0" y="381" text-anchor="middle" class="lbl">13.7</text>
<text x="352.5" y="408" text-anchor="middle" class="lbl">radius (kpc)</text>
<text x="16" y="210.0" text-anchor="middle" class="lbl-l" transform="rotate(-90, 16, 210.0)">velocity (km/s)</text>
<text x="704" y="210.0" text-anchor="middle" class="lbl-r" transform="rotate(-90, 704, 210.0)">mass profile (normalized to peak)</text>
<rect x="70" y="55" width="565" height="310" class="ax"/>
<path d="M 70.0,158.3 L 72.6,159.0 L 75.2,159.6 L 77.7,160.2 L 80.3,160.8 L 82.9,161.3 L 85.5,161.5 L 88.1,161.7 L 90.6,161.9 L 93.2,162.1 L 95.8,162.3 L 98.4,162.5 L 101.0,162.6 L 103.5,162.8 L 106.1,163.0 L 108.7,163.2 L 111.3,163.4 L 113.9,163.6 L 116.4,163.7 L 119.0,163.9 L 121.6,164.1 L 124.2,164.3 L 126.8,164.5 L 129.3,164.7 L 131.9,164.9 L 134.5,165.0 L 137.1,165.2 L 139.7,165.4 L 142.2,165.6 L 144.8,165.8 L 147.4,166.0 L 150.0,166.2 L 152.6,166.3 L 155.1,166.5 L 157.7,166.7 L 160.3,166.9 L 162.9,167.1 L 165.5,167.7 L 168.0,168.8 L 170.6,170.0 L 173.2,171.1 L 175.8,172.3 L 178.4,173.4 L 180.9,174.6 L 183.5,175.7 L 186.1,176.9 L 188.7,178.0 L 191.3,179.2 L 193.8,180.3 L 196.4,181.5 L 199.0,182.6 L 201.6,183.8 L 204.2,184.9 L 206.7,186.1 L 209.3,187.2 L 211.9,188.4 L 214.5,189.5 L 217.1,190.6 L 219.6,191.8 L 222.2,192.9 L 224.8,194.1 L 227.4,195.2 L 230.0,196.4 L 232.5,197.2 L 235.1,198.0 L 237.7,198.7 L 240.3,199.5 L 242.9,200.2 L 245.4,200.9 L 248.0,201.7 L 250.6,202.4 L 253.2,203.1 L 255.8,203.9 L 258.3,204.6 L 260.9,205.3 L 263.5,206.1 L 266.1,206.8 L 268.7,207.6 L 271.2,208.3 L 273.8,209.0 L 276.4,209.8 L 279.0,210.5 L 281.6,211.2 L 284.1,212.0 L 286.7,212.7 L 289.3,213.5 L 291.9,214.2 L 294.5,214.9 L 297.0,215.7 L 299.6,216.4 L 302.2,217.1 L 304.8,217.9 L 307.4,218.6 L 309.9,219.4 L 312.5,220.1 L 315.1,220.8 L 317.7,221.6 L 320.3,222.3 L 322.8,223.0 L 325.4,223.8 L 328.0,224.5 L 330.6,225.2 L 333.2,226.0 L 335.7,226.7 L 338.3,227.5 L 340.9,228.2 L 343.5,228.9 L 346.1,229.7 L 348.6,230.4 L 351.2,231.1 L 353.8,231.9 L 356.4,232.6 L 358.9,233.4 L 361.5,234.1 L 364.1,234.8 L 366.7,235.6 L 369.3,236.3 L 371.8,237.0 L 374.4,237.8 L 377.0,238.5 L 379.6,239.2 L 382.2,240.0 L 384.7,240.7 L 387.3,241.5 L 389.9,242.2 L 392.5,242.9 L 395.1,243.7 L 397.6,244.4 L 400.2,245.1 L 402.8,245.9 L 405.4,246.6 L 408.0,247.4 L 410.5,248.1 L 413.1,248.8 L 415.7,249.6 L 418.3,250.3 L 420.9,251.0 L 423.4,251.8 L 426.0,252.5 L 428.6,253.2 L 431.2,254.0 L 433.8,254.7 L 436.3,255.5 L 438.9,256.2 L 441.5,256.9 L 444.1,257.7 L 446.7,258.4 L 449.2,259.1 L 451.8,259.9 L 454.4,260.6 L 457.0,261.4 L 459.6,262.1 L 462.1,262.8 L 464.7,263.6 L 467.3,264.3 L 469.9,265.0 L 472.5,265.8 L 475.0,266.5 L 477.6,267.2 L 480.2,268.0 L 482.8,268.7 L 485.4,269.5 L 487.9,270.2 L 490.5,270.9 L 493.1,271.7 L 495.7,272.4 L 498.3,273.1 L 500.8,273.9 L 503.4,274.6 L 506.0,275.4 L 508.6,276.1 L 511.2,276.8 L 513.7,277.6 L 516.3,278.3 L 518.9,279.0 L 521.5,279.8 L 524.1,280.5 L 526.6,281.2 L 529.2,282.0 L 531.8,282.7 L 534.4,283.5 L 537.0,284.2 L 539.5,284.9 L 542.1,285.7 L 544.7,286.4 L 547.3,287.1 L 549.9,287.9 L 552.4,290.0 L 555.0,293.5 L 557.6,297.0 L 560.2,300.5 L 562.8,303.9 L 565.3,307.4 L 567.9,310.9 L 570.5,314.4 L 573.1,317.8 L 575.7,321.3 L 578.2,324.8 L 580.8,328.3 L 583.4,331.7 L 586.0,335.2 L 588.6,338.7 L 591.1,342.2 L 593.7,345.6 L 596.3,349.1 L 598.9,352.6 L 601.5,356.1 L 604.0,359.5 L 606.6,363.0 L 609.2,365.0 L 611.8,365.0 L 614.4,365.0 L 616.9,365.0 L 619.5,365.0 L 622.1,365.0 L 624.7,365.0 L 627.3,365.0 L 629.8,365.0 L 632.4,365.0 L 635.0,365.0" class="rho"/>
<path d="M 70.0,158.3 L 72.6,158.4 L 75.2,158.4 L 77.7,158.5 L 80.3,158.6 L 82.9,158.8 L 85.5,159.0 L 88.1,159.2 L 90.6,159.4 L 93.2,159.7 L 95.8,160.0 L 98.4,160.3 L 101.0,160.7 L 103.5,161.1 L 106.1,161.5 L 108.7,161.9 L 111.3,162.4 L 113.9,162.9 L 116.4,163.4 L 119.0,164.0 L 121.6,164.6 L 124.2,165.2 L 126.8,165.8 L 129.3,166.5 L 131.9,167.2 L 134.5,167.9 L 137.1,168.7 L 139.7,169.5 L 142.2,170.4 L 144.8,171.2 L 147.4,172.2 L 150.0,173.1 L 152.6,174.1 L 155.1,175.1 L 157.7,176.2 L 160.3,177.3 L 162.9,178.5 L 165.5,179.7 L 168.0,180.9 L 170.6,182.2 L 173.2,183.5 L 175.8,184.8 L 178.4,186.2 L 180.9,187.6 L 183.5,189.0 L 186.1,190.4 L 188.7,191.9 L 191.3,193.3 L 193.8,194.8 L 196.4,196.3 L 199.0,197.8 L 201.6,199.4 L 204.2,200.9 L 206.7,202.4 L 209.3,203.9 L 211.9,205.4 L 214.5,207.0 L 217.1,208.5 L 219.6,210.0 L 222.2,211.5 L 224.8,213.0 L 227.4,214.5 L 230.0,215.9 L 232.5,217.4 L 235.1,218.8 L 237.7,220.3 L 240.3,221.7 L 242.9,223.1 L 245.4,224.5 L 248.0,225.9 L 250.6,227.3 L 253.2,228.6 L 255.8,230.0 L 258.3,231.3 L 260.9,232.7 L 263.5,234.0 L 266.1,235.3 L 268.7,236.6 L 271.2,237.9 L 273.8,239.2 L 276.4,240.5 L 279.0,241.7 L 281.6,243.0 L 284.1,244.3 L 286.7,245.5 L 289.3,246.8 L 291.9,248.0 L 294.5,249.2 L 297.0,250.5 L 299.6,251.7 L 302.2,252.9 L 304.8,254.1 L 307.4,255.3 L 309.9,256.5 L 312.5,257.6 L 315.1,258.8 L 317.7,260.0 L 320.3,261.1 L 322.8,262.3 L 325.4,263.4 L 328.0,264.6 L 330.6,265.7 L 333.2,266.8 L 335.7,267.9 L 338.3,269.0 L 340.9,270.1 L 343.5,271.2 L 346.1,272.3 L 348.6,273.4 L 351.2,274.5 L 353.8,275.5 L 356.4,276.6 L 358.9,277.6 L 361.5,278.7 L 364.1,279.7 L 366.7,280.7 L 369.3,281.8 L 371.8,282.8 L 374.4,283.8 L 377.0,284.8 L 379.6,285.8 L 382.2,286.8 L 384.7,287.7 L 387.3,288.7 L 389.9,289.7 L 392.5,290.6 L 395.1,291.6 L 397.6,292.5 L 400.2,293.5 L 402.8,294.4 L 405.4,295.3 L 408.0,296.2 L 410.5,297.1 L 413.1,298.0 L 415.7,298.9 L 418.3,299.8 L 420.9,300.7 L 423.4,301.5 L 426.0,302.4 L 428.6,303.2 L 431.2,304.1 L 433.8,304.9 L 436.3,305.7 L 438.9,306.6 L 441.5,307.4 L 444.1,308.2 L 446.7,309.0 L 449.2,309.8 L 451.8,310.6 L 454.4,311.4 L 457.0,312.1 L 459.6,312.9 L 462.1,313.7 L 464.7,314.4 L 467.3,315.2 L 469.9,315.9 L 472.5,316.6 L 475.0,317.4 L 477.6,318.1 L 480.2,318.8 L 482.8,319.5 L 485.4,320.2 L 487.9,320.9 L 490.5,321.6 L 493.1,322.3 L 495.7,323.0 L 498.3,323.6 L 500.8,324.3 L 503.4,325.0 L 506.0,325.6 L 508.6,326.3 L 511.2,326.9 L 513.7,327.6 L 516.3,328.2 L 518.9,328.9 L 521.5,329.5 L 524.1,330.1 L 526.6,330.8 L 529.2,331.4 L 531.8,332.0 L 534.4,332.6 L 537.0,333.3 L 539.5,333.9 L 542.1,334.5 L 544.7,335.1 L 547.3,335.8 L 549.9,336.4 L 552.4,337.0 L 555.0,337.6 L 557.6,338.3 L 560.2,338.9 L 562.8,339.5 L 565.3,340.1 L 567.9,340.6 L 570.5,341.2 L 573.1,341.8 L 575.7,342.3 L 578.2,342.8 L 580.8,343.3 L 583.4,343.8 L 586.0,344.2 L 588.6,344.7 L 591.1,345.1 L 593.7,345.5 L 596.3,345.9 L 598.9,346.3 L 601.5,346.6 L 604.0,347.0 L 606.6,347.3 L 609.2,347.6 L 611.8,347.9 L 614.4,348.2 L 616.9,348.5 L 619.5,348.7 L 622.1,349.0 L 624.7,349.2 L 627.3,349.5 L 629.8,349.7 L 632.4,349.9 L 635.0,350.2" class="sig"/>
<path d="M 75.7,325.4 L 81.3,309.1 L 86.9,296.6 L 92.6,286.1 L 98.2,276.9 L 103.9,268.5 L 109.5,260.9 L 115.2,253.8 L 120.9,247.1 L 126.5,240.8 L 132.1,234.8 L 137.8,229.1 L 143.4,223.7 L 149.1,218.5 L 154.8,213.4 L 160.4,208.6 L 166.1,203.9 L 171.7,199.4 L 177.3,195.1 L 183.0,191.0 L 188.6,187.2 L 194.3,183.4 L 200.0,179.9 L 205.6,176.5 L 211.2,173.2 L 216.9,170.0 L 222.6,167.0 L 228.2,164.1 L 233.8,161.3 L 239.5,158.6 L 245.2,155.9 L 250.8,153.3 L 256.4,150.8 L 262.1,148.3 L 267.8,145.9 L 273.4,143.6 L 279.0,141.3 L 284.7,139.1 L 290.4,136.9 L 296.0,134.8 L 301.6,132.8 L 307.3,130.7 L 313.0,128.8 L 318.6,126.9 L 324.2,125.0 L 329.9,123.2 L 335.6,121.4 L 341.2,119.7 L 346.9,118.0 L 352.5,116.4 L 358.1,114.8 L 363.8,113.2 L 369.4,111.7 L 375.1,110.3 L 380.7,108.8 L 386.4,107.4 L 392.1,106.1 L 397.7,104.8 L 403.3,103.5 L 409.0,102.2 L 414.7,101.0 L 420.3,99.9 L 425.9,98.7 L 431.6,97.6 L 437.2,96.6 L 442.9,95.6 L 448.6,94.6 L 454.2,93.6 L 459.9,92.7 L 465.5,91.8 L 471.1,90.9 L 476.8,90.1 L 482.4,89.3 L 488.1,88.5 L 493.8,87.8 L 499.4,87.1 L 505.0,86.4 L 510.7,85.8 L 516.3,85.2 L 522.0,84.6 L 527.7,84.0 L 533.3,83.5 L 539.0,83.0 L 544.6,82.6 L 550.2,82.1 L 555.9,81.8 L 561.5,81.6 L 567.2,81.7 L 572.9,81.9 L 578.5,82.3 L 584.1,82.9 L 589.8,83.6 L 595.4,84.6 L 601.1,85.7 L 606.8,87.0 L 612.4,88.5 L 618.1,89.9 L 623.7,91.3 L 629.4,92.7 L 635.0,94.1" class="nt"/>
<path d="M 74.7,355.5 L 79.4,347.7 L 84.1,339.5 L 88.8,331.4 L 93.5,323.4 L 98.2,315.5 L 103.0,307.7 L 107.7,299.9 L 112.4,292.0 L 117.1,284.1 L 121.8,276.1 L 126.5,268.0 L 131.2,259.7 L 135.9,251.2 L 140.6,242.6 L 145.3,233.7 L 150.0,224.5 L 154.8,215.2 L 159.5,205.7 L 164.2,196.3 L 168.9,187.2 L 173.6,178.6 L 178.3,170.5 L 183.0,163.1 L 187.7,156.4 L 192.4,150.3 L 197.1,144.8 L 201.8,139.9 L 206.5,135.5 L 211.2,131.7 L 216.0,128.5 L 220.7,125.7 L 225.4,123.3 L 230.1,121.4 L 234.8,119.6 L 239.5,118.1 L 244.2,116.6 L 248.9,115.1 L 253.6,113.6 L 258.3,112.1 L 263.0,110.6 L 267.8,109.1 L 272.5,107.6 L 277.2,106.1 L 281.9,104.6 L 286.6,103.2 L 291.3,101.8 L 296.0,100.5 L 300.7,99.2 L 305.4,98.0 L 310.1,96.8 L 314.8,95.7 L 319.5,94.6 L 324.2,93.6 L 329.0,92.6 L 333.7,91.8 L 338.4,90.9 L 343.1,90.2 L 347.8,89.5 L 352.5,88.9 L 357.2,88.3 L 361.9,87.8 L 366.6,87.4 L 371.3,87.0 L 376.0,86.7 L 380.7,86.4 L 385.5,86.2 L 390.2,86.1 L 394.9,86.0 L 399.6,86.0 L 404.3,86.1 L 409.0,86.2 L 413.7,86.3 L 418.4,86.5 L 423.1,86.8 L 427.8,87.1 L 432.5,87.4 L 437.2,87.8 L 442.0,88.3 L 446.7,88.7 L 451.4,89.3 L 456.1,89.8 L 460.8,90.4 L 465.5,91.0 L 470.2,91.6 L 474.9,92.2 L 479.6,92.9 L 484.3,93.5 L 489.0,94.1 L 493.8,94.6 L 498.5,95.2 L 503.2,95.6 L 507.9,95.9 L 512.6,96.1 L 517.3,96.0 L 522.0,95.8 L 526.7,95.2 L 531.4,94.3 L 536.1,93.1 L 540.8,91.7 L 545.5,90.4 L 550.2,89.4 L 555.0,89.4 L 559.7,90.6 L 564.4,93.3 L 569.1,97.6 L 573.8,103.2 L 578.5,110.0 L 583.2,117.5 L 587.9,125.5 L 592.6,133.6 L 597.3,141.7 L 602.0,149.4 L 606.8,156.6 L 611.5,163.4 L 616.2,169.5 L 620.9,175.1 L 625.6,180.2 L 630.3,184.9 L 635.0,189.2" class="fw"/>
<line x1="105.80387735123418" y1="291.2285545874656" x2="105.80387735123418" y2="319.6021874384404" class="err"/>
<line x1="102.80387735123418" y1="291.2285545874656" x2="108.80387735123418" y2="291.2285545874656" class="err"/>
<line x1="102.80387735123418" y1="319.6021874384404" x2="108.80387735123418" y2="319.6021874384404" class="err"/>
<circle cx="105.80387735123418" cy="305.41537101295296" r="2.5" class="obs"/>
<line x1="141.60775470246836" y1="224.55051738767494" x2="141.60775470246836" y2="252.92415023864973" class="err"/>
<line x1="138.60775470246836" y1="224.55051738767494" x2="144.60775470246836" y2="224.55051738767494" class="err"/>
<line x1="138.60775470246836" y1="252.92415023864973" x2="144.60775470246836" y2="252.92415023864973" class="err"/>
<circle cx="141.60775470246836" cy="238.7373338131623" r="2.5" class="obs"/>
<line x1="177.41163205370253" y1="160.86747476659826" x2="177.41163205370253" y2="187.66479468140776" class="err"/>
<line x1="174.41163205370253" y1="160.86747476659826" x2="180.41163205370253" y2="160.86747476659826" class="err"/>
<line x1="174.41163205370253" y1="187.66479468140776" x2="180.41163205370253" y2="187.66479468140776" class="err"/>
<circle cx="177.41163205370253" cy="174.266134724003" r="2.5" class="obs"/>
<line x1="214.038587045195" y1="129.65647863052595" x2="214.038587045195" y2="152.67064749853887" class="err"/>
<line x1="211.038587045195" y1="129.65647863052595" x2="217.038587045195" y2="129.65647863052595" class="err"/>
<line x1="211.038587045195" y1="152.67064749853887" x2="217.038587045195" y2="152.67064749853887" class="err"/>
<circle cx="214.038587045195" cy="141.1635630645324" r="2.5" class="obs"/>
<line x1="249.8424643964292" y1="114.05098056248991" x2="249.8424643964292" y2="133.59726097093915" class="err"/>
<line x1="246.8424643964292" y1="114.05098056248991" x2="252.8424643964292" y2="114.05098056248991" class="err"/>
<line x1="246.8424643964292" y1="133.59726097093915" x2="252.8424643964292" y2="133.59726097093915" class="err"/>
<circle cx="249.8424643964292" cy="123.8241207667145" r="2.5" class="obs"/>
<line x1="285.64634174766337" y1="104.43547165188174" x2="285.64634174766337" y2="121.1443887752336" class="err"/>
<line x1="282.64634174766337" y1="104.43547165188174" x2="288.64634174766337" y2="104.43547165188174" class="err"/>
<line x1="282.64634174766337" y1="121.1443887752336" x2="288.64634174766337" y2="121.1443887752336" class="err"/>
<circle cx="285.64634174766337" cy="112.78993021355768" r="2.5" class="obs"/>
<line x1="321.45021909889755" y1="101.28284577955122" x2="321.45021909889755" y2="117.99176290290308" class="err"/>
<line x1="318.45021909889755" y1="101.28284577955122" x2="324.45021909889755" y2="101.28284577955122" class="err"/>
<line x1="318.45021909889755" y1="117.99176290290308" x2="324.45021909889755" y2="117.99176290290308" class="err"/>
<circle cx="321.45021909889755" cy="109.63730434122714" r="2.5" class="obs"/>
<line x1="357.2540964501317" y1="94.66233144765715" x2="357.2540964501317" y2="108.84914787314452" class="err"/>
<line x1="354.2540964501317" y1="94.66233144765715" x2="360.2540964501317" y2="94.66233144765715" class="err"/>
<line x1="354.2540964501317" y1="108.84914787314452" x2="360.2540964501317" y2="108.84914787314452" class="err"/>
<circle cx="357.2540964501317" cy="101.75573966040082" r="2.5" class="obs"/>
<line x1="393.05797380136585" y1="90.24865522639436" x2="393.05797380136585" y2="106.95757234974621" class="err"/>
<line x1="390.05797380136585" y1="90.24865522639436" x2="396.05797380136585" y2="90.24865522639436" class="err"/>
<line x1="390.05797380136585" y1="106.95757234974621" x2="396.05797380136585" y2="106.95757234974621" class="err"/>
<circle cx="393.05797380136585" cy="98.60311378807027" r="2.5" class="obs"/>
<line x1="428.86185115260014" y1="87.72655452852996" x2="428.86185115260014" y2="103.17442130294955" class="err"/>
<line x1="425.86185115260014" y1="87.72655452852996" x2="431.86185115260014" y2="87.72655452852996" class="err"/>
<line x1="425.86185115260014" y1="103.17442130294955" x2="431.86185115260014" y2="103.17442130294955" class="err"/>
<circle cx="428.86185115260014" cy="95.45048791573976" r="2.5" class="obs"/>
<line x1="465.0772673239634" y1="87.72655452852996" x2="465.0772673239634" y2="103.17442130294955" class="err"/>
<line x1="462.0772673239634" y1="87.72655452852996" x2="468.0772673239634" y2="87.72655452852996" class="err"/>
<line x1="462.0772673239634" y1="103.17442130294955" x2="468.0772673239634" y2="103.17442130294955" class="err"/>
<circle cx="465.0772673239634" cy="95.45048791573976" r="2.5" class="obs"/>
<line x1="500.88114467519756" y1="88.04181711576302" x2="500.88114467519756" y2="106.01178458804702" class="err"/>
<line x1="497.88114467519756" y1="88.04181711576302" x2="503.88114467519756" y2="88.04181711576302" class="err"/>
<line x1="497.88114467519756" y1="106.01178458804702" x2="503.88114467519756" y2="106.01178458804702" class="err"/>
<circle cx="500.88114467519756" cy="97.02680085190504" r="2.5" class="obs"/>
<line x1="537.0965608465608" y1="87.56892323491343" x2="537.0965608465608" y2="109.63730434122714" class="err"/>
<line x1="534.0965608465608" y1="87.56892323491343" x2="540.0965608465608" y2="87.56892323491343" class="err"/>
<line x1="534.0965608465608" y1="109.63730434122714" x2="540.0965608465608" y2="109.63730434122714" class="err"/>
<circle cx="537.0965608465608" cy="98.60311378807027" r="2.5" class="obs"/>
<g class="legend">
<line x1="82" y1="69" x2="106" y2="69" class="fw"/>
<text x="112" y="73" class="lbl-l">framework fit</text>
<line x1="82" y1="87" x2="106" y2="87" class="nt"/>
<text x="112" y="91" class="lbl-l">Newtonian (no halo)</text>
<circle cx="94" cy="105" r="2.5" class="obs"/>
<text x="112" y="109" class="lbl">observed V±err</text>
</g>
<g class="legend">
<line x1="460" y1="69" x2="484" y2="69" class="rho"/>
<text x="490" y="73" class="lbl-r">ρ(r) raw</text>
<line x1="460" y1="87" x2="484" y2="87" class="sig"/>
<text x="490" y="91" class="lbl-r">Σ(r) smoothed</text>
<text x="460" y="113" class="lbl-r">ρ peak: 342 M☉/pc²</text>
</g>
</svg>