<svg xmlns="http://www.w3.org/2000/svg" viewBox="0 0 960 450" width="960" height="450" font-family="sans-serif" font-size="12">
<style>
  .ax { stroke: #333; stroke-width: 1; fill: none; }
  .grid { stroke: #ddd; stroke-width: 0.5; fill: none; }
  .lbl { fill: #333; }
  .lbl-l { fill: #0066cc; }
  .lbl-r { fill: #b03030; }
  .obs { fill: #222; }
  .err { stroke: #555; stroke-width: 0.8; fill: none; }
  .fw { stroke: #0066cc; stroke-width: 2.2; fill: none; }
  .nt { stroke: #cc6600; stroke-width: 1.6; fill: none; stroke-dasharray: 5,3; }
  .mond { stroke: #7b2cbf; stroke-width: 1.8; fill: none; stroke-dasharray: 7,3; }
  .lbl-p { fill: #cc7000; }
  .lbl-m { fill: #7b2cbf; }
  .rho { stroke: #b03030; stroke-width: 2.0; fill: none; }
  .phot { stroke: #cc7000; stroke-width: 1.8; fill: none; }
  .mbar { stroke: #8e44ad; stroke-width: 1.8; fill: none; opacity: 0.9; }
  .mph { stroke: #c77dff; stroke-width: 1.6; fill: none; stroke-dasharray: 4,3; opacity: 0.95; }
  .title { fill: #111; font-size: 16px; font-weight: 600; }
  .subtitle { fill: #555; font-size: 11px; }
  .preview-bg { fill: #000; }
  .preview-lbl { fill: #888; font-size: 10px; }
  .legend { font-size: 11px; }
</style>
<text x="378.5" y="22" text-anchor="middle" class="title">NGC3877</text>
<text x="378.5" y="38" text-anchor="middle" class="subtitle">rMax=11.3 kpc, N=13, FW=2.2 km/s, 1.6%, 0.42σ, MOND=23.0 km/s, 37.0%, 3.62σ, amp=1007</text>
<line x1="70" y1="395.0" x2="687" y2="395.0" class="grid"/>
<text x="64" y="399.0" text-anchor="end" class="lbl-l">0</text>
<line x1="70" y1="327.0" x2="687" y2="327.0" class="grid"/>
<text x="64" y="331.0" text-anchor="end" class="lbl-l">44</text>
<line x1="70" y1="259.0" x2="687" y2="259.0" class="grid"/>
<text x="64" y="263.0" text-anchor="end" class="lbl-l">87</text>
<line x1="70" y1="191.0" x2="687" y2="191.0" class="grid"/>
<text x="64" y="195.0" text-anchor="end" class="lbl-l">131</text>
<line x1="70" y1="123.0" x2="687" y2="123.0" class="grid"/>
<text x="64" y="127.0" text-anchor="end" class="lbl-l">175</text>
<line x1="70" y1="55.0" x2="687" y2="55.0" class="grid"/>
<text x="64" y="59.0" text-anchor="end" class="lbl-l">218</text>
<text x="693" y="399.0" text-anchor="start" class="lbl-r">0.0</text>
<text x="693" y="353.7" text-anchor="start" class="lbl-r">0.2</text>
<text x="693" y="308.3" text-anchor="start" class="lbl-r">0.4</text>
<text x="693" y="263.0" text-anchor="start" class="lbl-r">0.6</text>
<text x="693" y="217.7" text-anchor="start" class="lbl-r">0.8</text>
<text x="693" y="172.3" text-anchor="start" class="lbl-r">1.0</text>
<line x1="70.0" y1="55" x2="70.0" y2="395" class="grid"/>
<text x="70.0" y="411" text-anchor="middle" class="lbl">0.0</text>
<line x1="172.8" y1="55" x2="172.8" y2="395" class="grid"/>
<text x="172.8" y="411" text-anchor="middle" class="lbl">2.0</text>
<line x1="275.7" y1="55" x2="275.7" y2="395" class="grid"/>
<text x="275.7" y="411" text-anchor="middle" class="lbl">4.0</text>
<line x1="378.5" y1="55" x2="378.5" y2="395" class="grid"/>
<text x="378.5" y="411" text-anchor="middle" class="lbl">6.0</text>
<line x1="481.3" y1="55" x2="481.3" y2="395" class="grid"/>
<text x="481.3" y="411" text-anchor="middle" class="lbl">7.9</text>
<line x1="584.2" y1="55" x2="584.2" y2="395" class="grid"/>
<text x="584.2" y="411" text-anchor="middle" class="lbl">9.9</text>
<line x1="687.0" y1="55" x2="687.0" y2="395" class="grid"/>
<text x="687.0" y="411" text-anchor="middle" class="lbl">11.9</text>
<text x="378.5" y="438" text-anchor="middle" class="lbl">radius (kpc)</text>
<text x="16" y="225" text-anchor="middle" class="lbl-l" transform="rotate(-90, 16, 225)">velocity (km/s)</text>
<text x="724" y="225" text-anchor="middle" class="lbl-r" transform="rotate(-90, 724, 225)">profiles (normalized to peak)</text>
<rect x="70" y="55" width="617" height="340" class="ax"/>
<path d="M 70.0,258.2 L 72.8,241.6 L 75.6,225.0 L 78.5,208.4 L 81.3,191.8 L 84.1,175.2 L 86.9,168.3 L 89.7,168.6 L 92.5,168.9 L 95.4,169.2 L 98.2,169.4 L 101.0,169.7 L 103.8,170.0 L 106.6,170.2 L 109.4,170.5 L 112.3,170.8 L 115.1,171.1 L 117.9,171.3 L 120.7,171.6 L 123.5,171.9 L 126.3,172.1 L 129.2,172.4 L 132.0,172.7 L 134.8,173.0 L 137.6,173.2 L 140.4,173.5 L 143.3,173.8 L 146.1,174.1 L 148.9,174.3 L 151.7,174.6 L 154.5,174.9 L 157.3,175.1 L 160.2,175.4 L 163.0,175.7 L 165.8,176.0 L 168.6,176.2 L 171.4,176.5 L 174.2,176.8 L 177.1,177.1 L 179.9,177.3 L 182.7,177.6 L 185.5,177.9 L 188.3,178.1 L 191.1,179.3 L 194.0,180.7 L 196.8,182.0 L 199.6,183.3 L 202.4,184.7 L 205.2,186.0 L 208.1,187.3 L 210.9,188.7 L 213.7,190.0 L 216.5,191.3 L 219.3,192.7 L 222.1,194.0 L 225.0,195.3 L 227.8,196.7 L 230.6,198.0 L 233.4,199.3 L 236.2,200.7 L 239.0,201.8 L 241.9,202.5 L 244.7,203.3 L 247.5,204.0 L 250.3,204.8 L 253.1,205.5 L 255.9,206.3 L 258.8,207.0 L 261.6,207.8 L 264.4,208.5 L 267.2,209.3 L 270.0,210.0 L 272.8,210.8 L 275.7,211.5 L 278.5,212.3 L 281.3,213.0 L 284.1,213.8 L 286.9,214.5 L 289.8,215.3 L 292.6,216.0 L 295.4,216.8 L 298.2,217.5 L 301.0,218.3 L 303.8,219.0 L 306.7,219.8 L 309.5,220.5 L 312.3,221.3 L 315.1,222.0 L 317.9,222.8 L 320.7,223.5 L 323.6,224.3 L 326.4,225.0 L 329.2,225.8 L 332.0,226.5 L 334.8,227.3 L 337.6,228.0 L 340.5,228.8 L 343.3,229.5 L 346.1,230.3 L 348.9,231.0 L 351.7,231.8 L 354.6,232.5 L 357.4,233.3 L 360.2,234.0 L 363.0,234.8 L 365.8,235.5 L 368.6,236.3 L 371.5,237.0 L 374.3,237.8 L 377.1,238.5 L 379.9,239.3 L 382.7,240.0 L 385.5,240.8 L 388.4,241.5 L 391.2,242.3 L 394.0,243.0 L 396.8,243.8 L 399.6,244.5 L 402.4,245.3 L 405.3,246.0 L 408.1,246.8 L 410.9,247.5 L 413.7,248.3 L 416.5,249.0 L 419.4,249.8 L 422.2,250.5 L 425.0,251.3 L 427.8,252.0 L 430.6,252.8 L 433.4,253.5 L 436.3,254.3 L 439.1,255.0 L 441.9,255.8 L 444.7,256.5 L 447.5,257.3 L 450.3,258.0 L 453.2,258.8 L 456.0,259.5 L 458.8,260.3 L 461.6,261.0 L 464.4,261.8 L 467.2,262.5 L 470.1,263.3 L 472.9,264.0 L 475.7,264.8 L 478.5,265.5 L 481.3,266.3 L 484.2,267.0 L 487.0,267.8 L 489.8,268.5 L 492.6,269.3 L 495.4,270.0 L 498.2,270.8 L 501.1,271.5 L 503.9,272.3 L 506.7,273.0 L 509.5,273.8 L 512.3,274.5 L 515.1,275.3 L 518.0,276.0 L 520.8,276.8 L 523.6,277.5 L 526.4,278.3 L 529.2,279.0 L 532.0,279.8 L 534.9,280.5 L 537.7,281.3 L 540.5,282.0 L 543.3,282.8 L 546.1,283.5 L 548.9,284.3 L 551.8,285.0 L 554.6,285.8 L 557.4,286.5 L 560.2,287.3 L 563.0,288.0 L 565.9,288.8 L 568.7,289.5 L 571.5,290.3 L 574.3,291.0 L 577.1,291.8 L 579.9,292.5 L 582.8,293.3 L 585.6,294.0 L 588.4,294.8 L 591.2,295.5 L 594.0,296.3 L 596.8,297.0 L 599.7,297.8 L 602.5,298.5 L 605.3,299.3 L 608.1,300.0 L 610.9,300.7 L 613.7,301.5 L 616.6,302.2 L 619.4,303.0 L 622.2,303.7 L 625.0,304.5 L 627.8,305.2 L 630.7,306.0 L 633.5,306.7 L 636.3,307.5 L 639.1,308.2 L 641.9,309.0 L 644.7,309.7 L 647.6,310.5 L 650.4,311.2 L 653.2,332.2 L 656.0,372.2 L 658.8,395.0 L 661.6,395.0 L 664.5,395.0 L 667.3,395.0 L 670.1,395.0 L 672.9,395.0 L 675.7,395.0 L 678.5,395.0 L 681.4,395.0 L 684.2,395.0 L 687.0,395.0" class="rho"/>
<path d="M 115.0,168.3 L 160.1,252.7 L 205.1,284.3 L 251.2,299.6 L 296.2,307.9 L 341.3,313.3 L 386.3,323.8 L 431.4,342.9 L 476.4,355.3 L 521.5,364.6 L 567.0,374.9 L 612.1,382.0 L 657.6,385.7" class="phot"/>
<path d="M 115.0,168.3 L 160.1,241.4 L 205.1,293.3 L 251.2,302.1 L 296.2,295.0 L 341.3,274.8 L 386.3,259.7 L 431.4,276.7 L 476.4,306.9 L 521.5,325.4 L 567.0,346.2 L 612.1,371.4 L 657.6,381.8" class="mbar"/>
<path d="M 115.0,168.3 L 160.1,184.1 L 205.1,199.7 L 251.2,205.6 L 296.2,203.4 L 341.3,194.2 L 386.3,187.3 L 431.4,195.0 L 476.4,208.8 L 521.5,218.6 L 567.0,232.2 L 612.1,250.7 L 657.6,261.2" class="mph"/>
<path d="M 76.2,363.8 L 82.3,347.6 L 88.5,333.7 L 94.7,322.8 L 100.8,313.6 L 107.0,305.4 L 113.2,298.0 L 119.4,291.2 L 125.5,284.8 L 131.7,278.9 L 137.9,273.2 L 144.0,267.8 L 150.2,262.7 L 156.4,257.8 L 162.6,253.1 L 168.7,248.5 L 174.9,244.1 L 181.1,239.9 L 187.2,235.7 L 193.4,231.7 L 199.6,227.9 L 205.7,224.3 L 211.9,220.9 L 218.1,217.6 L 224.3,214.4 L 230.4,211.3 L 236.6,208.4 L 242.8,205.6 L 248.9,202.9 L 255.1,200.2 L 261.3,197.6 L 267.4,195.1 L 273.6,192.6 L 279.8,190.2 L 285.9,187.8 L 292.1,185.5 L 298.3,183.3 L 304.5,181.1 L 310.6,178.9 L 316.8,176.9 L 323.0,174.8 L 329.1,172.8 L 335.3,170.9 L 341.5,169.0 L 347.6,167.1 L 353.8,165.3 L 360.0,163.5 L 366.2,161.8 L 372.3,160.1 L 378.5,158.4 L 384.7,156.8 L 390.8,155.2 L 397.0,153.7 L 403.2,152.2 L 409.3,150.7 L 415.5,149.3 L 421.7,147.9 L 427.9,146.5 L 434.0,145.2 L 440.2,143.9 L 446.4,142.6 L 452.5,141.4 L 458.7,140.2 L 464.9,139.0 L 471.1,137.9 L 477.2,136.8 L 483.4,135.7 L 489.6,134.7 L 495.7,133.6 L 501.9,132.7 L 508.1,131.7 L 514.2,130.8 L 520.4,129.9 L 526.6,129.0 L 532.8,128.1 L 538.9,127.3 L 545.1,126.5 L 551.3,125.7 L 557.4,125.0 L 563.6,124.3 L 569.8,123.6 L 575.9,122.9 L 582.1,122.3 L 588.3,121.7 L 594.4,121.1 L 600.6,120.6 L 606.8,120.0 L 613.0,119.5 L 619.1,119.0 L 625.3,118.6 L 631.5,118.1 L 637.6,117.7 L 643.8,117.3 L 650.0,117.0 L 656.2,117.1 L 662.3,118.5 L 668.5,119.9 L 674.7,121.3 L 680.8,122.8 L 687.0,124.1" class="nt"/>
<path d="M 115.0,262.8 L 160.1,236.4 L 205.1,219.3 L 251.2,199.5 L 296.2,180.1 L 341.3,156.9 L 386.3,128.8 L 431.4,110.4 L 476.4,100.4 L 521.5,92.0 L 567.0,85.9 L 612.1,87.8 L 657.6,88.7" class="mond"/>
<path d="M 75.1,395.0 L 80.3,395.0 L 85.4,392.9 L 90.6,381.3 L 95.7,371.8 L 100.8,362.3 L 106.0,353.1 L 111.1,344.4 L 116.3,336.0 L 121.4,327.9 L 126.6,320.1 L 131.7,312.4 L 136.8,304.8 L 142.0,297.3 L 147.1,289.8 L 152.3,282.3 L 157.4,274.8 L 162.6,267.1 L 167.7,259.4 L 172.8,251.5 L 178.0,243.6 L 183.1,235.7 L 188.3,228.0 L 193.4,220.6 L 198.5,213.6 L 203.7,207.1 L 208.8,201.3 L 214.0,196.1 L 219.1,191.5 L 224.3,187.6 L 229.4,184.2 L 234.5,181.3 L 239.7,178.8 L 244.8,176.6 L 250.0,174.5 L 255.1,172.6 L 260.2,170.7 L 265.4,168.9 L 270.5,167.0 L 275.7,165.2 L 280.8,163.4 L 285.9,161.6 L 291.1,159.8 L 296.2,158.1 L 301.4,156.4 L 306.5,154.7 L 311.7,153.1 L 316.8,151.5 L 321.9,150.0 L 327.1,148.5 L 332.2,147.1 L 337.4,145.7 L 342.5,144.4 L 347.7,143.1 L 352.8,141.9 L 357.9,140.8 L 363.1,139.7 L 368.2,138.7 L 373.4,137.7 L 378.5,136.7 L 383.6,135.9 L 388.8,135.1 L 393.9,134.3 L 399.1,133.6 L 404.2,133.0 L 409.4,132.4 L 414.5,131.8 L 419.6,131.3 L 424.8,130.9 L 429.9,130.5 L 435.1,130.2 L 440.2,129.9 L 445.3,129.7 L 450.5,129.5 L 455.6,129.3 L 460.8,129.2 L 465.9,129.2 L 471.1,129.2 L 476.2,129.2 L 481.3,129.3 L 486.5,129.5 L 491.6,129.6 L 496.8,129.8 L 501.9,130.1 L 507.0,130.3 L 512.2,130.6 L 517.3,131.0 L 522.5,131.3 L 527.6,131.7 L 532.8,132.1 L 537.9,132.5 L 543.0,133.0 L 548.2,133.4 L 553.3,133.8 L 558.5,134.2 L 563.6,134.6 L 568.7,135.0 L 573.9,135.3 L 579.0,135.5 L 584.2,135.7 L 589.3,135.7 L 594.4,135.6 L 599.6,135.3 L 604.7,134.8 L 609.9,134.0 L 615.0,132.9 L 620.2,131.4 L 625.3,129.6 L 630.4,127.6 L 635.6,125.7 L 640.7,124.4 L 645.9,124.1 L 651.0,125.6 L 656.2,129.0 L 661.3,134.6 L 666.4,141.7 L 671.6,149.9 L 676.7,158.4 L 681.9,166.9 L 687.0,174.8" class="fw"/>
<line x1="115.04" y1="322.15" x2="115.04" y2="350.17" class="err"/>
<line x1="112.04" y1="322.15" x2="118.04" y2="322.15" class="err"/>
<line x1="112.04" y1="350.17" x2="118.04" y2="350.17" class="err"/>
<circle cx="115.04" cy="336.16" r="2.5" class="obs"/>
<line x1="160.08" y1="256.30" x2="160.08" y2="284.32" class="err"/>
<line x1="157.08" y1="256.30" x2="163.08" y2="256.30" class="err"/>
<line x1="157.08" y1="284.32" x2="163.08" y2="284.32" class="err"/>
<circle cx="160.08" cy="270.31" r="2.5" class="obs"/>
<line x1="205.13" y1="193.41" x2="205.13" y2="219.88" class="err"/>
<line x1="202.13" y1="193.41" x2="208.13" y2="193.41" class="err"/>
<line x1="202.13" y1="219.88" x2="208.13" y2="219.88" class="err"/>
<circle cx="205.13" cy="206.65" r="2.5" class="obs"/>
<line x1="251.20" y1="162.59" x2="251.20" y2="185.32" class="err"/>
<line x1="248.20" y1="162.59" x2="254.20" y2="162.59" class="err"/>
<line x1="248.20" y1="185.32" x2="254.20" y2="185.32" class="err"/>
<circle cx="251.20" cy="173.96" r="2.5" class="obs"/>
<line x1="296.25" y1="147.18" x2="296.25" y2="166.48" class="err"/>
<line x1="293.25" y1="147.18" x2="299.25" y2="147.18" class="err"/>
<line x1="293.25" y1="166.48" x2="299.25" y2="166.48" class="err"/>
<circle cx="296.25" cy="156.83" r="2.5" class="obs"/>
<line x1="341.29" y1="137.69" x2="341.29" y2="154.19" class="err"/>
<line x1="338.29" y1="137.69" x2="344.29" y2="137.69" class="err"/>
<line x1="338.29" y1="154.19" x2="344.29" y2="154.19" class="err"/>
<circle cx="341.29" cy="145.94" r="2.5" class="obs"/>
<line x1="386.33" y1="134.57" x2="386.33" y2="151.07" class="err"/>
<line x1="383.33" y1="134.57" x2="389.33" y2="134.57" class="err"/>
<line x1="383.33" y1="151.07" x2="389.33" y2="151.07" class="err"/>
<circle cx="386.33" cy="142.82" r="2.5" class="obs"/>
<line x1="431.37" y1="128.03" x2="431.37" y2="142.04" class="err"/>
<line x1="428.37" y1="128.03" x2="434.37" y2="128.03" class="err"/>
<line x1="428.37" y1="142.04" x2="434.37" y2="142.04" class="err"/>
<circle cx="431.37" cy="135.04" r="2.5" class="obs"/>
<line x1="476.41" y1="123.68" x2="476.41" y2="140.18" class="err"/>
<line x1="473.41" y1="123.68" x2="479.41" y2="123.68" class="err"/>
<line x1="473.41" y1="140.18" x2="479.41" y2="140.18" class="err"/>
<circle cx="476.41" cy="131.93" r="2.5" class="obs"/>
<line x1="521.46" y1="121.19" x2="521.46" y2="136.44" class="err"/>
<line x1="518.46" y1="121.19" x2="524.46" y2="121.19" class="err"/>
<line x1="518.46" y1="136.44" x2="524.46" y2="136.44" class="err"/>
<circle cx="521.46" cy="128.81" r="2.5" class="obs"/>
<line x1="567.02" y1="121.19" x2="567.02" y2="136.44" class="err"/>
<line x1="564.02" y1="121.19" x2="570.02" y2="121.19" class="err"/>
<line x1="564.02" y1="136.44" x2="570.02" y2="136.44" class="err"/>
<circle cx="567.02" cy="128.81" r="2.5" class="obs"/>
<line x1="612.06" y1="121.50" x2="612.06" y2="139.24" class="err"/>
<line x1="609.06" y1="121.50" x2="615.06" y2="121.50" class="err"/>
<line x1="609.06" y1="139.24" x2="615.06" y2="139.24" class="err"/>
<circle cx="612.06" cy="130.37" r="2.5" class="obs"/>
<line x1="657.62" y1="121.03" x2="657.62" y2="142.82" class="err"/>
<line x1="654.62" y1="121.03" x2="660.62" y2="121.03" class="err"/>
<line x1="654.62" y1="142.82" x2="660.62" y2="142.82" class="err"/>
<circle cx="657.62" cy="131.93" r="2.5" class="obs"/>
<g class="legend">
<line x1="82" y1="69" x2="106" y2="69" class="fw"/>
<text x="112" y="73" class="lbl-l">framework: 2.2 km/s, 1.6%, 0.42σ</text>
<line x1="82" y1="87" x2="106" y2="87" class="nt"/>
<text x="112" y="91" class="lbl-l">Newtonian: 12.5 km/s, 20.4%, 1.80σ</text>
<line x1="82" y1="105" x2="106" y2="105" class="mond"/>
<text x="112" y="109" class="lbl-m">MOND/RAR: 23.0 km/s, 37.0%, 3.62σ</text>
<circle cx="94" cy="123" r="2.5" class="obs"/>
<text x="112" y="127" class="lbl">observed V±err</text>
</g>
<g class="legend">
<line x1="472" y1="69" x2="496" y2="69" class="rho"/>
<text x="502" y="73" class="lbl-r">ρ(r) raw</text>
<line x1="472" y1="87" x2="496" y2="87" class="phot"/>
<text x="502" y="91" class="lbl-p">photometric baryonic profile</text>
<line x1="472" y1="105" x2="496" y2="105" class="mbar"/>
<text x="502" y="109" class="lbl-m">MOND baryonic annulus</text>
<line x1="472" y1="123" x2="496" y2="123" class="mph"/>
<text x="502" y="127" class="lbl-m">MOND phantom annulus</text>
<text x="472" y="147" class="lbl-r">ρ peak: 352 M☉/pc²</text>
<text x="472" y="163" class="lbl-p">phot peak: 376.87 (arb.)</text>
<text x="472" y="179" class="lbl-m">Σbar peak: 387.98 M☉/pc²</text>
<text x="472" y="195" class="lbl-m">Σphantom peak: 168.49 M☉/pc²</text>
</g>
<rect x="775" y="55" width="170" height="170" class="preview-bg"/>
<defs><radialGradient id="g_NGC3877" cx="0.5" cy="0.5" r="0.5">
  <stop offset="0.0000" stop-color="rgb(94,94,94)"/>
  <stop offset="0.0313" stop-color="rgb(133,133,133)"/>
  <stop offset="0.0625" stop-color="rgb(132,132,132)"/>
  <stop offset="0.0938" stop-color="rgb(131,131,131)"/>
  <stop offset="0.1250" stop-color="rgb(130,130,130)"/>
  <stop offset="0.1563" stop-color="rgb(130,130,130)"/>
  <stop offset="0.1875" stop-color="rgb(129,129,129)"/>
  <stop offset="0.2188" stop-color="rgb(126,126,126)"/>
  <stop offset="0.2500" stop-color="rgb(123,123,123)"/>
  <stop offset="0.2813" stop-color="rgb(119,119,119)"/>
  <stop offset="0.3125" stop-color="rgb(117,117,117)"/>
  <stop offset="0.3438" stop-color="rgb(115,115,115)"/>
  <stop offset="0.3750" stop-color="rgb(113,113,113)"/>
  <stop offset="0.4063" stop-color="rgb(111,111,111)"/>
  <stop offset="0.4375" stop-color="rgb(109,109,109)"/>
  <stop offset="0.4688" stop-color="rgb(106,106,106)"/>
  <stop offset="0.5000" stop-color="rgb(104,104,104)"/>
  <stop offset="0.5313" stop-color="rgb(102,102,102)"/>
  <stop offset="0.5625" stop-color="rgb(100,100,100)"/>
  <stop offset="0.5938" stop-color="rgb(98,98,98)"/>
  <stop offset="0.6250" stop-color="rgb(96,96,96)"/>
  <stop offset="0.6563" stop-color="rgb(94,94,94)"/>
  <stop offset="0.6875" stop-color="rgb(92,92,92)"/>
  <stop offset="0.7188" stop-color="rgb(90,90,90)"/>
  <stop offset="0.7500" stop-color="rgb(88,88,88)"/>
  <stop offset="0.7813" stop-color="rgb(86,86,86)"/>
  <stop offset="0.8125" stop-color="rgb(84,84,84)"/>
  <stop offset="0.8438" stop-color="rgb(82,82,82)"/>
  <stop offset="0.8750" stop-color="rgb(79,79,79)"/>
  <stop offset="0.9063" stop-color="rgb(77,77,77)"/>
  <stop offset="0.9375" stop-color="rgb(75,75,75)"/>
  <stop offset="0.9688" stop-color="rgb(73,73,73)"/>
  <stop offset="1.0000" stop-color="rgb(0,0,0)"/>
</radialGradient></defs>
<circle cx="860" cy="140" r="81" fill="url(#g_NGC3877)"/>
<text x="860" y="49" text-anchor="middle" class="preview-lbl">face-on luminance from ρ(r)</text>
<text x="860" y="239" text-anchor="middle" class="preview-lbl">edge at r = 11.3 kpc</text>
</svg>