<svg xmlns="http://www.w3.org/2000/svg" viewBox="0 0 960 450" width="960" height="450" font-family="sans-serif" font-size="12">
<style>
  .ax { stroke: #333; stroke-width: 1; fill: none; }
  .grid { stroke: #ddd; stroke-width: 0.5; fill: none; }
  .lbl { fill: #333; }
  .lbl-l { fill: #0066cc; }
  .lbl-r { fill: #b03030; }
  .obs { fill: #222; }
  .err { stroke: #555; stroke-width: 0.8; fill: none; }
  .fw { stroke: #0066cc; stroke-width: 2.2; fill: none; }
  .nt { stroke: #cc6600; stroke-width: 1.6; fill: none; stroke-dasharray: 5,3; }
  .mond { stroke: #7b2cbf; stroke-width: 1.8; fill: none; stroke-dasharray: 7,3; }
  .lbl-p { fill: #cc7000; }
  .lbl-m { fill: #7b2cbf; }
  .rho { stroke: #b03030; stroke-width: 2.0; fill: none; }
  .phot { stroke: #cc7000; stroke-width: 1.8; fill: none; }
  .mbar { stroke: #8e44ad; stroke-width: 1.8; fill: none; opacity: 0.9; }
  .mph { stroke: #c77dff; stroke-width: 1.6; fill: none; stroke-dasharray: 4,3; opacity: 0.95; }
  .title { fill: #111; font-size: 16px; font-weight: 600; }
  .subtitle { fill: #555; font-size: 11px; }
  .preview-bg { fill: #000; }
  .preview-lbl { fill: #888; font-size: 10px; }
  .legend { font-size: 11px; }
</style>
<text x="378.5" y="22" text-anchor="middle" class="title">NGC3992</text>
<text x="378.5" y="38" text-anchor="middle" class="subtitle">rMax=46.0 kpc, N=9, FW=7.9 km/s, 3.1%, 1.37σ, MOND=19.7 km/s, 7.7%, 3.04σ, amp=1460</text>
<line x1="70" y1="395.0" x2="687" y2="395.0" class="grid"/>
<text x="64" y="399.0" text-anchor="end" class="lbl-l">0</text>
<line x1="70" y1="327.0" x2="687" y2="327.0" class="grid"/>
<text x="64" y="331.0" text-anchor="end" class="lbl-l">65</text>
<line x1="70" y1="259.0" x2="687" y2="259.0" class="grid"/>
<text x="64" y="263.0" text-anchor="end" class="lbl-l">130</text>
<line x1="70" y1="191.0" x2="687" y2="191.0" class="grid"/>
<text x="64" y="195.0" text-anchor="end" class="lbl-l">195</text>
<line x1="70" y1="123.0" x2="687" y2="123.0" class="grid"/>
<text x="64" y="127.0" text-anchor="end" class="lbl-l">260</text>
<line x1="70" y1="55.0" x2="687" y2="55.0" class="grid"/>
<text x="64" y="59.0" text-anchor="end" class="lbl-l">325</text>
<text x="693" y="399.0" text-anchor="start" class="lbl-r">0.0</text>
<text x="693" y="353.7" text-anchor="start" class="lbl-r">0.2</text>
<text x="693" y="308.3" text-anchor="start" class="lbl-r">0.4</text>
<text x="693" y="263.0" text-anchor="start" class="lbl-r">0.6</text>
<text x="693" y="217.7" text-anchor="start" class="lbl-r">0.8</text>
<text x="693" y="172.3" text-anchor="start" class="lbl-r">1.0</text>
<line x1="70.0" y1="55" x2="70.0" y2="395" class="grid"/>
<text x="70.0" y="411" text-anchor="middle" class="lbl">0.0</text>
<line x1="172.8" y1="55" x2="172.8" y2="395" class="grid"/>
<text x="172.8" y="411" text-anchor="middle" class="lbl">10.6</text>
<line x1="275.7" y1="55" x2="275.7" y2="395" class="grid"/>
<text x="275.7" y="411" text-anchor="middle" class="lbl">21.3</text>
<line x1="378.5" y1="55" x2="378.5" y2="395" class="grid"/>
<text x="378.5" y="411" text-anchor="middle" class="lbl">31.9</text>
<line x1="481.3" y1="55" x2="481.3" y2="395" class="grid"/>
<text x="481.3" y="411" text-anchor="middle" class="lbl">42.5</text>
<line x1="584.2" y1="55" x2="584.2" y2="395" class="grid"/>
<text x="584.2" y="411" text-anchor="middle" class="lbl">53.1</text>
<line x1="687.0" y1="55" x2="687.0" y2="395" class="grid"/>
<text x="687.0" y="411" text-anchor="middle" class="lbl">63.8</text>
<text x="378.5" y="438" text-anchor="middle" class="lbl">radius (kpc)</text>
<text x="16" y="225" text-anchor="middle" class="lbl-l" transform="rotate(-90, 16, 225)">velocity (km/s)</text>
<text x="724" y="225" text-anchor="middle" class="lbl-r" transform="rotate(-90, 724, 225)">profiles (normalized to peak)</text>
<rect x="70" y="55" width="617" height="340" class="ax"/>
<path d="M 70.0,168.3 L 72.8,170.2 L 75.6,172.0 L 78.5,173.8 L 81.3,175.6 L 84.1,177.4 L 86.9,179.3 L 89.7,181.1 L 92.5,182.9 L 95.4,184.7 L 98.2,186.5 L 101.0,188.4 L 103.8,190.2 L 106.6,192.0 L 109.4,193.8 L 112.3,195.6 L 115.1,198.1 L 117.9,202.9 L 120.7,207.6 L 123.5,212.4 L 126.3,217.2 L 129.2,222.0 L 132.0,226.7 L 134.8,231.5 L 137.6,236.3 L 140.4,238.7 L 143.3,239.6 L 146.1,240.6 L 148.9,241.6 L 151.7,242.5 L 154.5,243.5 L 157.3,244.5 L 160.2,245.4 L 163.0,246.4 L 165.8,247.4 L 168.6,248.4 L 171.4,249.3 L 174.2,250.3 L 177.1,251.3 L 179.9,252.2 L 182.7,253.2 L 185.5,254.2 L 188.3,255.1 L 191.1,256.1 L 194.0,257.1 L 196.8,258.0 L 199.6,259.0 L 202.4,260.0 L 205.2,260.9 L 208.1,261.9 L 210.9,262.9 L 213.7,263.8 L 216.5,264.8 L 219.3,265.8 L 222.1,266.7 L 225.0,267.7 L 227.8,268.7 L 230.6,269.6 L 233.4,270.6 L 236.2,271.6 L 239.0,272.6 L 241.9,273.5 L 244.7,274.5 L 247.5,275.5 L 250.3,276.4 L 253.1,277.4 L 255.9,278.4 L 258.8,279.3 L 261.6,280.3 L 264.4,281.3 L 267.2,282.2 L 270.0,283.2 L 272.8,284.2 L 275.7,285.1 L 278.5,286.1 L 281.3,287.1 L 284.1,288.0 L 286.9,289.0 L 289.8,290.0 L 292.6,290.9 L 295.4,291.9 L 298.2,292.9 L 301.0,293.8 L 303.8,294.8 L 306.7,295.8 L 309.5,296.7 L 312.3,297.7 L 315.1,298.6 L 317.9,299.0 L 320.7,299.3 L 323.6,299.7 L 326.4,300.1 L 329.2,300.4 L 332.0,300.8 L 334.8,301.2 L 337.6,301.6 L 340.5,301.9 L 343.3,302.3 L 346.1,302.7 L 348.9,303.1 L 351.7,303.4 L 354.6,303.8 L 357.4,304.2 L 360.2,304.6 L 363.0,304.9 L 365.8,305.3 L 368.6,305.7 L 371.5,306.0 L 374.3,306.4 L 377.1,306.8 L 379.9,307.2 L 382.7,307.5 L 385.5,307.9 L 388.4,308.3 L 391.2,308.7 L 394.0,309.0 L 396.8,309.4 L 399.6,309.8 L 402.4,310.2 L 405.3,310.5 L 408.1,310.9 L 410.9,311.3 L 413.7,311.6 L 416.5,312.0 L 419.4,312.4 L 422.2,312.8 L 425.0,313.1 L 427.8,313.5 L 430.6,313.9 L 433.4,314.3 L 436.3,314.6 L 439.1,315.0 L 441.9,315.4 L 444.7,315.8 L 447.5,316.1 L 450.3,316.5 L 453.2,316.9 L 456.0,317.2 L 458.8,317.6 L 461.6,318.0 L 464.4,318.4 L 467.2,318.7 L 470.1,319.1 L 472.9,319.5 L 475.7,319.9 L 478.5,320.2 L 481.3,320.6 L 484.2,321.0 L 487.0,321.3 L 489.8,321.7 L 492.6,322.1 L 495.4,322.5 L 498.2,322.8 L 501.1,323.2 L 503.9,323.6 L 506.7,324.0 L 509.5,324.3 L 512.3,324.7 L 515.1,325.1 L 518.0,325.5 L 520.8,325.8 L 523.6,326.2 L 526.4,326.6 L 529.2,326.9 L 532.0,327.3 L 534.9,327.7 L 537.7,328.1 L 540.5,328.4 L 543.3,328.8 L 546.1,329.2 L 548.9,329.6 L 551.8,329.9 L 554.6,330.3 L 557.4,330.7 L 560.2,331.1 L 563.0,331.4 L 565.9,331.8 L 568.7,332.2 L 571.5,332.5 L 574.3,332.9 L 577.1,333.3 L 579.9,333.7 L 582.8,334.0 L 585.6,334.4 L 588.4,334.8 L 591.2,335.2 L 594.0,335.7 L 596.8,338.3 L 599.7,340.9 L 602.5,343.6 L 605.3,346.2 L 608.1,348.8 L 610.9,351.5 L 613.7,354.1 L 616.6,356.7 L 619.4,359.3 L 622.2,362.0 L 625.0,364.6 L 627.8,367.2 L 630.7,369.8 L 633.5,372.5 L 636.3,375.1 L 639.1,377.7 L 641.9,380.4 L 644.7,383.0 L 647.6,385.6 L 650.4,388.2 L 653.2,390.9 L 656.0,393.5 L 658.8,395.0 L 661.6,395.0 L 664.5,395.0 L 667.3,395.0 L 670.1,395.0 L 672.9,395.0 L 675.7,395.0 L 678.5,395.0 L 681.4,395.0 L 684.2,395.0 L 687.0,395.0" class="rho"/>
<path d="M 158.9,168.3 L 203.5,263.1 L 247.6,341.4 L 292.0,373.0 L 336.3,389.5 L 380.8,392.4 L 425.2,393.8 L 471.1,394.5 L 515.4,395.0" class="phot"/>
<path d="M 158.9,168.3 L 203.5,222.5 L 247.6,292.3 L 292.0,346.5 L 336.3,382.0 L 380.8,395.0 L 425.2,395.0 L 471.1,395.0 L 515.4,395.0" class="mbar"/>
<path d="M 158.9,168.3 L 203.5,185.4 L 247.6,212.8 L 292.0,244.6 L 336.3,278.4 L 380.8,303.6 L 425.2,316.8 L 471.1,325.7 L 515.4,331.4" class="mph"/>
<path d="M 76.2,339.2 L 82.3,316.6 L 88.5,299.6 L 94.7,285.5 L 100.8,273.3 L 107.0,262.5 L 113.2,252.8 L 119.4,244.1 L 125.5,236.7 L 131.7,230.2 L 137.9,224.7 L 144.0,219.6 L 150.2,214.7 L 156.4,210.0 L 162.6,205.3 L 168.7,200.8 L 174.9,196.5 L 181.1,192.3 L 187.2,188.2 L 193.4,184.3 L 199.6,180.6 L 205.7,176.9 L 211.9,173.4 L 218.1,170.1 L 224.3,166.8 L 230.4,163.7 L 236.6,160.6 L 242.8,157.7 L 248.9,154.9 L 255.1,152.2 L 261.3,149.7 L 267.4,147.2 L 273.6,144.8 L 279.8,142.5 L 285.9,140.3 L 292.1,138.2 L 298.3,136.1 L 304.5,134.2 L 310.6,132.4 L 316.8,130.6 L 323.0,128.9 L 329.1,127.1 L 335.3,125.4 L 341.5,123.7 L 347.7,122.1 L 353.8,120.4 L 360.0,118.8 L 366.2,117.2 L 372.3,115.6 L 378.5,114.1 L 384.7,112.6 L 390.8,111.1 L 397.0,109.6 L 403.2,108.1 L 409.4,106.7 L 415.5,105.3 L 421.7,103.9 L 427.9,102.5 L 434.0,101.2 L 440.2,99.9 L 446.4,98.6 L 452.5,97.3 L 458.7,96.1 L 464.9,94.9 L 471.1,93.7 L 477.2,92.5 L 483.4,91.4 L 489.6,90.3 L 495.7,89.2 L 501.9,88.1 L 508.1,87.1 L 514.2,86.1 L 520.4,85.1 L 526.6,84.1 L 532.8,83.2 L 538.9,82.3 L 545.1,81.4 L 551.3,80.5 L 557.4,79.7 L 563.6,78.8 L 569.8,78.0 L 575.9,77.3 L 582.1,76.5 L 588.3,75.8 L 594.5,75.1 L 600.6,74.5 L 606.8,74.2 L 613.0,74.1 L 619.1,74.2 L 625.3,74.6 L 631.5,75.2 L 637.6,76.0 L 643.8,77.0 L 650.0,78.3 L 656.2,79.8 L 662.3,81.4 L 668.5,83.0 L 674.7,84.6 L 680.8,86.2 L 687.0,87.7" class="nt"/>
<path d="M 158.9,180.8 L 203.5,146.2 L 247.6,133.5 L 292.0,127.3 L 336.3,133.3 L 380.8,140.2 L 425.2,144.4 L 471.1,147.7 L 515.4,150.0" class="mond"/>
<path d="M 75.1,366.5 L 80.3,341.2 L 85.4,315.6 L 90.6,290.9 L 95.7,267.2 L 100.8,244.6 L 106.0,223.2 L 111.1,203.3 L 116.3,185.5 L 121.4,170.4 L 126.6,158.4 L 131.7,149.5 L 136.8,143.7 L 142.0,140.1 L 147.1,138.0 L 152.3,136.5 L 157.4,135.0 L 162.6,133.5 L 167.7,131.7 L 172.8,129.7 L 178.0,127.5 L 183.1,125.1 L 188.3,122.7 L 193.4,120.3 L 198.5,117.8 L 203.7,115.4 L 208.8,113.1 L 214.0,110.9 L 219.1,108.8 L 224.3,106.8 L 229.4,105.0 L 234.5,103.4 L 239.7,101.9 L 244.8,100.7 L 250.0,99.7 L 255.1,98.8 L 260.2,98.3 L 265.4,98.0 L 270.5,98.0 L 275.7,98.4 L 280.8,99.1 L 285.9,100.1 L 291.1,101.7 L 296.2,103.7 L 301.4,106.3 L 306.5,109.4 L 311.7,112.9 L 316.8,116.8 L 321.9,120.6 L 327.1,124.3 L 332.2,127.7 L 337.4,130.7 L 342.5,133.4 L 347.7,135.7 L 352.8,137.7 L 357.9,139.5 L 363.1,141.0 L 368.2,142.4 L 373.4,143.5 L 378.5,144.6 L 383.6,145.5 L 388.8,146.4 L 393.9,147.1 L 399.1,147.8 L 404.2,148.4 L 409.4,149.0 L 414.5,149.5 L 419.6,150.0 L 424.8,150.4 L 429.9,150.8 L 435.1,151.2 L 440.2,151.6 L 445.3,151.9 L 450.5,152.2 L 455.6,152.5 L 460.8,152.8 L 465.9,153.0 L 471.0,153.3 L 476.2,153.5 L 481.3,153.7 L 486.5,153.9 L 491.6,154.0 L 496.8,154.2 L 501.9,154.2 L 507.0,154.3 L 512.2,154.3 L 517.3,154.2 L 522.5,154.0 L 527.6,153.7 L 532.8,153.3 L 537.9,152.7 L 543.0,152.0 L 548.2,151.0 L 553.3,149.7 L 558.5,148.0 L 563.6,145.9 L 568.7,143.2 L 573.9,139.9 L 579.0,136.0 L 584.2,131.8 L 589.3,127.5 L 594.4,124.0 L 599.6,121.8 L 604.7,121.7 L 609.9,123.7 L 615.0,127.9 L 620.2,134.0 L 625.3,141.5 L 630.4,149.9 L 635.6,158.9 L 640.7,168.0 L 645.9,176.9 L 651.0,185.4 L 656.2,193.3 L 661.3,200.5 L 666.4,207.0 L 671.6,212.9 L 676.7,218.2 L 681.9,223.0 L 687.0,227.4" class="fw"/>
<line x1="158.94" y1="128.38" x2="158.94" y2="143.02" class="err"/>
<line x1="155.94" y1="128.38" x2="161.94" y2="128.38" class="err"/>
<line x1="155.94" y1="143.02" x2="161.94" y2="143.02" class="err"/>
<circle cx="158.94" cy="135.70" r="2.5" class="obs"/>
<line x1="203.47" y1="112.07" x2="203.47" y2="125.87" class="err"/>
<line x1="200.47" y1="112.07" x2="206.47" y2="112.07" class="err"/>
<line x1="200.47" y1="125.87" x2="206.47" y2="125.87" class="err"/>
<circle cx="203.47" cy="118.97" r="2.5" class="obs"/>
<line x1="247.60" y1="104.65" x2="247.60" y2="116.57" class="err"/>
<line x1="244.60" y1="104.65" x2="250.60" y2="104.65" class="err"/>
<line x1="244.60" y1="116.57" x2="250.60" y2="116.57" class="err"/>
<circle cx="247.60" cy="110.61" r="2.5" class="obs"/>
<line x1="292.02" y1="105.70" x2="292.02" y2="117.61" class="err"/>
<line x1="289.02" y1="105.70" x2="295.02" y2="105.70" class="err"/>
<line x1="289.02" y1="117.61" x2="295.02" y2="117.61" class="err"/>
<circle cx="292.02" cy="111.66" r="2.5" class="obs"/>
<line x1="336.35" y1="113.43" x2="336.35" y2="124.52" class="err"/>
<line x1="333.35" y1="113.43" x2="339.35" y2="113.43" class="err"/>
<line x1="333.35" y1="124.52" x2="339.35" y2="124.52" class="err"/>
<circle cx="336.35" cy="118.97" r="2.5" class="obs"/>
<line x1="380.77" y1="134.24" x2="380.77" y2="149.71" class="err"/>
<line x1="377.77" y1="134.24" x2="383.77" y2="134.24" class="err"/>
<line x1="377.77" y1="149.71" x2="383.77" y2="149.71" class="err"/>
<circle cx="380.77" cy="141.98" r="2.5" class="obs"/>
<line x1="425.20" y1="134.34" x2="425.20" y2="145.43" class="err"/>
<line x1="422.20" y1="134.34" x2="428.20" y2="134.34" class="err"/>
<line x1="422.20" y1="145.43" x2="428.20" y2="145.43" class="err"/>
<circle cx="425.20" cy="139.89" r="2.5" class="obs"/>
<line x1="471.07" y1="136.54" x2="471.07" y2="149.50" class="err"/>
<line x1="468.07" y1="136.54" x2="474.07" y2="136.54" class="err"/>
<line x1="468.07" y1="149.50" x2="474.07" y2="149.50" class="err"/>
<circle cx="471.07" cy="143.02" r="2.5" class="obs"/>
<line x1="515.40" y1="138.21" x2="515.40" y2="156.20" class="err"/>
<line x1="512.40" y1="138.21" x2="518.40" y2="138.21" class="err"/>
<line x1="512.40" y1="156.20" x2="518.40" y2="156.20" class="err"/>
<circle cx="515.40" cy="147.20" r="2.5" class="obs"/>
<g class="legend">
<line x1="82" y1="69" x2="106" y2="69" class="fw"/>
<text x="112" y="73" class="lbl-l">framework: 7.9 km/s, 3.1%, 1.37σ</text>
<line x1="82" y1="87" x2="106" y2="87" class="nt"/>
<text x="112" y="91" class="lbl-l">Newtonian: 44.9 km/s, 18.0%, 6.76σ</text>
<line x1="82" y1="105" x2="106" y2="105" class="mond"/>
<text x="112" y="109" class="lbl-m">MOND/RAR: 19.7 km/s, 7.7%, 3.04σ</text>
<circle cx="94" cy="123" r="2.5" class="obs"/>
<text x="112" y="127" class="lbl">observed V±err</text>
</g>
<g class="legend">
<line x1="472" y1="69" x2="496" y2="69" class="rho"/>
<text x="502" y="73" class="lbl-r">ρ(r) raw</text>
<line x1="472" y1="87" x2="496" y2="87" class="phot"/>
<text x="502" y="91" class="lbl-p">photometric baryonic profile</text>
<line x1="472" y1="105" x2="496" y2="105" class="mbar"/>
<text x="502" y="109" class="lbl-m">MOND baryonic annulus</text>
<line x1="472" y1="123" x2="496" y2="123" class="mph"/>
<text x="502" y="127" class="lbl-m">MOND phantom annulus</text>
<text x="472" y="147" class="lbl-r">ρ peak: 334 M☉/pc²</text>
<text x="472" y="163" class="lbl-p">phot peak: 106.08 (arb.)</text>
<text x="472" y="179" class="lbl-m">Σbar peak: 178.92 M☉/pc²</text>
<text x="472" y="195" class="lbl-m">Σphantom peak: 143.74 M☉/pc²</text>
</g>
<rect x="775" y="55" width="170" height="170" class="preview-bg"/>
<defs><radialGradient id="g_NGC3992" cx="0.5" cy="0.5" r="0.5">
  <stop offset="0.0000" stop-color="rgb(128,128,128)"/>
  <stop offset="0.0313" stop-color="rgb(123,123,123)"/>
  <stop offset="0.0625" stop-color="rgb(118,118,118)"/>
  <stop offset="0.0938" stop-color="rgb(109,109,109)"/>
  <stop offset="0.1250" stop-color="rgb(99,99,99)"/>
  <stop offset="0.1563" stop-color="rgb(96,96,96)"/>
  <stop offset="0.1875" stop-color="rgb(94,94,94)"/>
  <stop offset="0.2188" stop-color="rgb(91,91,91)"/>
  <stop offset="0.2500" stop-color="rgb(89,89,89)"/>
  <stop offset="0.2813" stop-color="rgb(86,86,86)"/>
  <stop offset="0.3125" stop-color="rgb(84,84,84)"/>
  <stop offset="0.3438" stop-color="rgb(81,81,81)"/>
  <stop offset="0.3750" stop-color="rgb(79,79,79)"/>
  <stop offset="0.4063" stop-color="rgb(76,76,76)"/>
  <stop offset="0.4375" stop-color="rgb(75,75,75)"/>
  <stop offset="0.4688" stop-color="rgb(74,74,74)"/>
  <stop offset="0.5000" stop-color="rgb(73,73,73)"/>
  <stop offset="0.5313" stop-color="rgb(72,72,72)"/>
  <stop offset="0.5625" stop-color="rgb(71,71,71)"/>
  <stop offset="0.5938" stop-color="rgb(70,70,70)"/>
  <stop offset="0.6250" stop-color="rgb(69,69,69)"/>
  <stop offset="0.6563" stop-color="rgb(68,68,68)"/>
  <stop offset="0.6875" stop-color="rgb(67,67,67)"/>
  <stop offset="0.7188" stop-color="rgb(66,66,66)"/>
  <stop offset="0.7500" stop-color="rgb(65,65,65)"/>
  <stop offset="0.7813" stop-color="rgb(64,64,64)"/>
  <stop offset="0.8125" stop-color="rgb(62,62,62)"/>
  <stop offset="0.8438" stop-color="rgb(59,59,59)"/>
  <stop offset="0.8750" stop-color="rgb(57,57,57)"/>
  <stop offset="0.9063" stop-color="rgb(48,48,48)"/>
  <stop offset="0.9375" stop-color="rgb(32,32,32)"/>
  <stop offset="0.9688" stop-color="rgb(16,16,16)"/>
  <stop offset="1.0000" stop-color="rgb(0,0,0)"/>
</radialGradient></defs>
<circle cx="860" cy="140" r="81" fill="url(#g_NGC3992)"/>
<text x="860" y="49" text-anchor="middle" class="preview-lbl">face-on luminance from ρ(r)</text>
<text x="860" y="239" text-anchor="middle" class="preview-lbl">edge at r = 60.7 kpc</text>
</svg>