<svg xmlns="http://www.w3.org/2000/svg" viewBox="0 0 960 450" width="960" height="450" font-family="sans-serif" font-size="12">
<style>
  .ax { stroke: #333; stroke-width: 1; fill: none; }
  .grid { stroke: #ddd; stroke-width: 0.5; fill: none; }
  .lbl { fill: #333; }
  .lbl-l { fill: #0066cc; }
  .lbl-r { fill: #b03030; }
  .obs { fill: #222; }
  .err { stroke: #555; stroke-width: 0.8; fill: none; }
  .fw { stroke: #0066cc; stroke-width: 2.2; fill: none; }
  .nt { stroke: #cc6600; stroke-width: 1.6; fill: none; stroke-dasharray: 5,3; }
  .mond { stroke: #7b2cbf; stroke-width: 1.8; fill: none; stroke-dasharray: 7,3; }
  .lbl-p { fill: #cc7000; }
  .lbl-m { fill: #7b2cbf; }
  .rho { stroke: #b03030; stroke-width: 2.0; fill: none; }
  .phot { stroke: #cc7000; stroke-width: 1.8; fill: none; }
  .mbar { stroke: #8e44ad; stroke-width: 1.8; fill: none; opacity: 0.9; }
  .mph { stroke: #c77dff; stroke-width: 1.6; fill: none; stroke-dasharray: 4,3; opacity: 0.95; }
  .title { fill: #111; font-size: 16px; font-weight: 600; }
  .subtitle { fill: #555; font-size: 11px; }
  .preview-bg { fill: #000; }
  .preview-lbl { fill: #888; font-size: 10px; }
  .legend { font-size: 11px; }
</style>
<text x="378.5" y="22" text-anchor="middle" class="title">NGC3949</text>
<text x="378.5" y="38" text-anchor="middle" class="subtitle">rMax=7.1 kpc, N=7, FW=1.4 km/s, 0.8%, 0.09σ, MOND=9.5 km/s, 6.4%, 1.50σ, amp=105</text>
<line x1="70" y1="395.0" x2="687" y2="395.0" class="grid"/>
<text x="64" y="399.0" text-anchor="end" class="lbl-l">0</text>
<line x1="70" y1="327.0" x2="687" y2="327.0" class="grid"/>
<text x="64" y="331.0" text-anchor="end" class="lbl-l">43</text>
<line x1="70" y1="259.0" x2="687" y2="259.0" class="grid"/>
<text x="64" y="263.0" text-anchor="end" class="lbl-l">86</text>
<line x1="70" y1="191.0" x2="687" y2="191.0" class="grid"/>
<text x="64" y="195.0" text-anchor="end" class="lbl-l">128</text>
<line x1="70" y1="123.0" x2="687" y2="123.0" class="grid"/>
<text x="64" y="127.0" text-anchor="end" class="lbl-l">171</text>
<line x1="70" y1="55.0" x2="687" y2="55.0" class="grid"/>
<text x="64" y="59.0" text-anchor="end" class="lbl-l">214</text>
<text x="693" y="399.0" text-anchor="start" class="lbl-r">0.0</text>
<text x="693" y="353.7" text-anchor="start" class="lbl-r">0.2</text>
<text x="693" y="308.3" text-anchor="start" class="lbl-r">0.4</text>
<text x="693" y="263.0" text-anchor="start" class="lbl-r">0.6</text>
<text x="693" y="217.7" text-anchor="start" class="lbl-r">0.8</text>
<text x="693" y="172.3" text-anchor="start" class="lbl-r">1.0</text>
<line x1="70.0" y1="55" x2="70.0" y2="395" class="grid"/>
<text x="70.0" y="411" text-anchor="middle" class="lbl">0.0</text>
<line x1="172.8" y1="55" x2="172.8" y2="395" class="grid"/>
<text x="172.8" y="411" text-anchor="middle" class="lbl">1.3</text>
<line x1="275.7" y1="55" x2="275.7" y2="395" class="grid"/>
<text x="275.7" y="411" text-anchor="middle" class="lbl">2.6</text>
<line x1="378.5" y1="55" x2="378.5" y2="395" class="grid"/>
<text x="378.5" y="411" text-anchor="middle" class="lbl">3.9</text>
<line x1="481.3" y1="55" x2="481.3" y2="395" class="grid"/>
<text x="481.3" y="411" text-anchor="middle" class="lbl">5.2</text>
<line x1="584.2" y1="55" x2="584.2" y2="395" class="grid"/>
<text x="584.2" y="411" text-anchor="middle" class="lbl">6.5</text>
<line x1="687.0" y1="55" x2="687.0" y2="395" class="grid"/>
<text x="687.0" y="411" text-anchor="middle" class="lbl">7.8</text>
<text x="378.5" y="438" text-anchor="middle" class="lbl">radius (kpc)</text>
<text x="16" y="225" text-anchor="middle" class="lbl-l" transform="rotate(-90, 16, 225)">velocity (km/s)</text>
<text x="724" y="225" text-anchor="middle" class="lbl-r" transform="rotate(-90, 724, 225)">profiles (normalized to peak)</text>
<rect x="70" y="55" width="617" height="340" class="ax"/>
<path d="M 70.0,168.3 L 72.8,175.3 L 75.6,182.2 L 78.5,189.1 L 81.3,196.1 L 84.1,203.0 L 86.9,209.9 L 89.7,216.9 L 92.5,223.8 L 95.4,230.7 L 98.2,237.7 L 101.0,241.7 L 103.8,244.2 L 106.6,246.8 L 109.4,249.3 L 112.3,251.9 L 115.1,254.5 L 117.9,257.0 L 120.7,259.6 L 123.5,262.1 L 126.3,264.7 L 129.2,267.3 L 132.0,269.8 L 134.8,272.4 L 137.6,274.7 L 140.4,275.4 L 143.3,276.1 L 146.1,276.7 L 148.9,277.4 L 151.7,278.1 L 154.5,278.8 L 157.3,279.5 L 160.2,280.1 L 163.0,280.8 L 165.8,281.5 L 168.6,282.2 L 171.4,282.9 L 174.2,283.6 L 177.1,284.2 L 179.9,284.9 L 182.7,285.6 L 185.5,286.3 L 188.3,287.0 L 191.1,287.6 L 194.0,288.3 L 196.8,289.0 L 199.6,289.7 L 202.4,290.4 L 205.2,291.0 L 208.1,291.7 L 210.9,292.4 L 213.7,293.1 L 216.5,293.8 L 219.3,294.4 L 222.1,295.1 L 225.0,295.8 L 227.8,296.5 L 230.6,297.2 L 233.4,297.8 L 236.2,298.5 L 239.0,299.2 L 241.9,299.9 L 244.7,300.6 L 247.5,301.2 L 250.3,301.9 L 253.1,302.6 L 255.9,303.3 L 258.8,304.0 L 261.6,304.6 L 264.4,305.3 L 267.2,306.0 L 270.0,306.7 L 272.8,307.4 L 275.7,308.0 L 278.5,308.7 L 281.3,309.4 L 284.1,310.1 L 286.9,310.8 L 289.8,311.5 L 292.6,312.1 L 295.4,312.8 L 298.2,313.5 L 301.0,314.2 L 303.8,314.9 L 306.7,315.5 L 309.5,316.2 L 312.3,316.9 L 315.1,317.3 L 317.9,317.6 L 320.7,317.9 L 323.6,318.2 L 326.4,318.6 L 329.2,318.9 L 332.0,319.2 L 334.8,319.5 L 337.6,319.9 L 340.5,320.2 L 343.3,320.5 L 346.1,320.9 L 348.9,321.2 L 351.7,321.5 L 354.6,321.8 L 357.4,322.2 L 360.2,322.5 L 363.0,322.8 L 365.8,323.1 L 368.6,323.5 L 371.5,323.8 L 374.3,324.1 L 377.1,324.4 L 379.9,324.8 L 382.7,325.1 L 385.5,325.4 L 388.4,325.8 L 391.2,326.1 L 394.0,326.4 L 396.8,326.7 L 399.6,327.1 L 402.4,327.4 L 405.3,327.7 L 408.1,328.0 L 410.9,328.4 L 413.7,328.7 L 416.5,329.0 L 419.4,329.3 L 422.2,329.7 L 425.0,330.0 L 427.8,330.3 L 430.6,330.6 L 433.4,331.0 L 436.3,331.3 L 439.1,331.6 L 441.9,332.0 L 444.7,332.3 L 447.5,332.6 L 450.3,332.9 L 453.2,333.3 L 456.0,333.6 L 458.8,333.9 L 461.6,334.2 L 464.4,334.6 L 467.2,334.9 L 470.1,335.2 L 472.9,335.5 L 475.7,335.9 L 478.5,336.2 L 481.3,336.5 L 484.2,336.8 L 487.0,337.2 L 489.8,337.5 L 492.6,337.8 L 495.4,338.2 L 498.2,338.5 L 501.1,338.8 L 503.9,339.1 L 506.7,339.5 L 509.5,339.8 L 512.3,340.1 L 515.1,340.4 L 518.0,340.8 L 520.8,341.1 L 523.6,341.4 L 526.4,341.7 L 529.2,342.1 L 532.0,342.4 L 534.9,342.7 L 537.7,343.0 L 540.5,343.4 L 543.3,343.7 L 546.1,344.0 L 548.9,344.4 L 551.8,344.7 L 554.6,345.0 L 557.4,345.3 L 560.2,345.7 L 563.0,346.0 L 565.9,346.3 L 568.7,346.6 L 571.5,347.0 L 574.3,347.3 L 577.1,347.6 L 579.9,347.9 L 582.8,348.3 L 585.6,348.6 L 588.4,348.9 L 591.2,349.2 L 594.0,349.6 L 596.8,349.9 L 599.7,350.2 L 602.5,350.6 L 605.3,350.9 L 608.1,351.2 L 610.9,351.5 L 613.7,352.2 L 616.6,354.9 L 619.4,357.7 L 622.2,360.4 L 625.0,363.2 L 627.8,365.9 L 630.7,368.7 L 633.5,371.4 L 636.3,374.2 L 639.1,376.9 L 641.9,379.7 L 644.7,382.4 L 647.6,385.2 L 650.4,387.9 L 653.2,390.7 L 656.0,393.4 L 658.8,395.0 L 661.6,395.0 L 664.5,395.0 L 667.3,395.0 L 670.1,395.0 L 672.9,395.0 L 675.7,395.0 L 678.5,395.0 L 681.4,395.0 L 684.2,395.0 L 687.0,395.0" class="rho"/>
<path d="M 207.3,168.3 L 276.0,232.6 L 346.3,323.5 L 414.9,362.2 L 483.6,377.1 L 552.3,385.9 L 628.0,389.3" class="phot"/>
<path d="M 207.3,168.3 L 276.0,199.6 L 346.3,255.9 L 414.9,323.0 L 483.6,362.5 L 552.3,376.3 L 628.0,381.4" class="mbar"/>
<path d="M 207.3,168.3 L 276.0,171.4 L 346.3,181.1 L 414.9,199.4 L 483.6,220.2 L 552.3,239.0 L 628.0,250.9" class="mph"/>
<path d="M 76.2,340.5 L 82.3,319.7 L 88.5,305.1 L 94.7,293.9 L 100.8,285.0 L 107.0,277.3 L 113.2,270.2 L 119.4,263.8 L 125.5,258.0 L 131.7,252.7 L 137.9,248.0 L 144.0,243.5 L 150.2,239.1 L 156.4,234.8 L 162.6,230.7 L 168.7,226.7 L 174.9,222.8 L 181.1,219.1 L 187.2,215.5 L 193.4,212.0 L 199.6,208.6 L 205.7,205.3 L 211.9,202.2 L 218.1,199.2 L 224.2,196.2 L 230.4,193.4 L 236.6,190.6 L 242.8,188.0 L 248.9,185.5 L 255.1,183.0 L 261.3,180.6 L 267.4,178.3 L 273.6,176.1 L 279.8,174.0 L 285.9,171.9 L 292.1,170.0 L 298.3,168.1 L 304.5,166.3 L 310.6,164.5 L 316.8,162.8 L 323.0,161.1 L 329.1,159.5 L 335.3,157.9 L 341.5,156.3 L 347.7,154.7 L 353.8,153.2 L 360.0,151.7 L 366.2,150.2 L 372.3,148.7 L 378.5,147.3 L 384.7,145.9 L 390.8,144.5 L 397.0,143.1 L 403.2,141.8 L 409.4,140.5 L 415.5,139.2 L 421.7,138.0 L 427.9,136.7 L 434.0,135.5 L 440.2,134.4 L 446.4,133.2 L 452.5,132.1 L 458.7,131.0 L 464.9,129.9 L 471.0,128.9 L 477.2,127.9 L 483.4,126.9 L 489.6,125.9 L 495.7,125.0 L 501.9,124.1 L 508.1,123.2 L 514.2,122.3 L 520.4,121.5 L 526.6,120.6 L 532.8,119.8 L 538.9,119.1 L 545.1,118.3 L 551.3,117.6 L 557.4,116.9 L 563.6,116.2 L 569.8,115.5 L 575.9,114.9 L 582.1,114.3 L 588.3,113.7 L 594.4,113.2 L 600.6,112.6 L 606.8,112.1 L 613.0,111.6 L 619.1,111.2 L 625.3,111.1 L 631.5,111.3 L 637.6,111.8 L 643.8,112.5 L 650.0,113.5 L 656.1,114.8 L 662.3,116.3 L 668.5,117.7 L 674.7,119.1 L 680.8,120.5 L 687.0,121.9" class="nt"/>
<path d="M 207.3,187.6 L 276.0,151.6 L 346.3,125.9 L 414.9,126.8 L 483.6,127.2 L 552.3,130.9 L 628.0,132.6" class="mond"/>
<path d="M 75.1,373.5 L 80.3,357.3 L 85.4,340.6 L 90.6,325.2 L 95.7,311.7 L 100.8,299.9 L 106.0,289.7 L 111.1,280.8 L 116.3,272.9 L 121.4,266.0 L 126.6,260.0 L 131.7,254.7 L 136.8,250.0 L 142.0,245.8 L 147.1,241.9 L 152.3,238.2 L 157.4,234.4 L 162.6,230.7 L 167.7,227.0 L 172.8,223.2 L 178.0,219.5 L 183.1,215.8 L 188.3,212.1 L 193.4,208.4 L 198.5,204.8 L 203.7,201.3 L 208.8,197.9 L 214.0,194.5 L 219.1,191.3 L 224.3,188.2 L 229.4,185.2 L 234.5,182.3 L 239.7,179.5 L 244.8,176.9 L 250.0,174.4 L 255.1,172.1 L 260.2,169.9 L 265.4,167.9 L 270.5,166.0 L 275.7,164.3 L 280.8,162.8 L 286.0,161.4 L 291.1,160.3 L 296.2,159.3 L 301.4,158.5 L 306.5,157.9 L 311.7,157.4 L 316.8,157.0 L 321.9,156.7 L 327.1,156.4 L 332.2,156.0 L 337.4,155.6 L 342.5,155.1 L 347.7,154.7 L 352.8,154.1 L 357.9,153.6 L 363.1,153.0 L 368.2,152.4 L 373.4,151.8 L 378.5,151.2 L 383.6,150.6 L 388.8,150.0 L 393.9,149.3 L 399.1,148.7 L 404.2,148.1 L 409.3,147.5 L 414.5,146.9 L 419.6,146.3 L 424.8,145.7 L 429.9,145.1 L 435.1,144.6 L 440.2,144.0 L 445.3,143.5 L 450.5,143.0 L 455.6,142.4 L 460.8,141.9 L 465.9,141.4 L 471.0,141.0 L 476.2,140.5 L 481.3,140.0 L 486.5,139.6 L 491.6,139.1 L 496.8,138.7 L 501.9,138.2 L 507.0,137.7 L 512.2,137.3 L 517.3,136.8 L 522.5,136.3 L 527.6,135.8 L 532.8,135.3 L 537.9,134.7 L 543.0,134.1 L 548.2,133.5 L 553.3,132.8 L 558.5,132.0 L 563.6,131.1 L 568.7,130.2 L 573.9,129.1 L 579.0,128.0 L 584.2,126.6 L 589.3,125.2 L 594.4,123.7 L 599.6,122.2 L 604.7,120.7 L 609.9,119.6 L 615.0,119.0 L 620.2,119.0 L 625.3,120.1 L 630.4,122.1 L 635.6,125.2 L 640.7,129.0 L 645.9,133.5 L 651.0,138.4 L 656.1,143.6 L 661.3,148.9 L 666.4,154.1 L 671.6,159.1 L 676.7,163.9 L 681.9,168.5 L 687.0,172.8" class="fw"/>
<line x1="207.34" y1="190.79" x2="207.34" y2="208.27" class="err"/>
<line x1="204.34" y1="190.79" x2="210.34" y2="190.79" class="err"/>
<line x1="204.34" y1="208.27" x2="210.34" y2="208.27" class="err"/>
<circle cx="207.34" cy="199.53" r="2.5" class="obs"/>
<line x1="276.01" y1="155.83" x2="276.01" y2="173.31" class="err"/>
<line x1="273.01" y1="155.83" x2="279.01" y2="155.83" class="err"/>
<line x1="273.01" y1="173.31" x2="279.01" y2="173.31" class="err"/>
<circle cx="276.01" cy="164.57" r="2.5" class="obs"/>
<line x1="346.25" y1="143.60" x2="346.25" y2="163.30" class="err"/>
<line x1="343.25" y1="143.60" x2="349.25" y2="143.60" class="err"/>
<line x1="343.25" y1="163.30" x2="349.25" y2="163.30" class="err"/>
<circle cx="346.25" cy="153.45" r="2.5" class="obs"/>
<line x1="414.92" y1="135.01" x2="414.92" y2="155.99" class="err"/>
<line x1="411.92" y1="135.01" x2="417.92" y2="135.01" class="err"/>
<line x1="411.92" y1="155.99" x2="417.92" y2="155.99" class="err"/>
<circle cx="414.92" cy="145.50" r="2.5" class="obs"/>
<line x1="483.59" y1="125.16" x2="483.59" y2="153.13" class="err"/>
<line x1="480.59" y1="125.16" x2="486.59" y2="125.16" class="err"/>
<line x1="480.59" y1="153.13" x2="486.59" y2="153.13" class="err"/>
<circle cx="483.59" cy="139.15" r="2.5" class="obs"/>
<line x1="552.26" y1="114.99" x2="552.26" y2="150.59" class="err"/>
<line x1="549.26" y1="114.99" x2="555.26" y2="114.99" class="err"/>
<line x1="549.26" y1="150.59" x2="555.26" y2="150.59" class="err"/>
<circle cx="552.26" cy="132.79" r="2.5" class="obs"/>
<line x1="628.03" y1="85.91" x2="628.03" y2="166.96" class="err"/>
<line x1="625.03" y1="85.91" x2="631.03" y2="85.91" class="err"/>
<line x1="625.03" y1="166.96" x2="631.03" y2="166.96" class="err"/>
<circle cx="628.03" cy="126.43" r="2.5" class="obs"/>
<g class="legend">
<line x1="82" y1="69" x2="106" y2="69" class="fw"/>
<text x="112" y="73" class="lbl-l">framework: 1.4 km/s, 0.8%, 0.09σ</text>
<line x1="82" y1="87" x2="106" y2="87" class="nt"/>
<text x="112" y="91" class="lbl-l">Newtonian: 6.7 km/s, 4.2%, 0.74σ</text>
<line x1="82" y1="105" x2="106" y2="105" class="mond"/>
<text x="112" y="109" class="lbl-m">MOND/RAR: 9.5 km/s, 6.4%, 1.50σ</text>
<circle cx="94" cy="123" r="2.5" class="obs"/>
<text x="112" y="127" class="lbl">observed V±err</text>
</g>
<g class="legend">
<line x1="472" y1="69" x2="496" y2="69" class="rho"/>
<text x="502" y="73" class="lbl-r">ρ(r) raw</text>
<line x1="472" y1="87" x2="496" y2="87" class="phot"/>
<text x="502" y="91" class="lbl-p">photometric baryonic profile</text>
<line x1="472" y1="105" x2="496" y2="105" class="mbar"/>
<text x="502" y="109" class="lbl-m">MOND baryonic annulus</text>
<line x1="472" y1="123" x2="496" y2="123" class="mph"/>
<text x="502" y="127" class="lbl-m">MOND phantom annulus</text>
<text x="472" y="147" class="lbl-r">ρ peak: 1166 M☉/pc²</text>
<text x="472" y="163" class="lbl-p">phot peak: 375.92 (arb.)</text>
<text x="472" y="179" class="lbl-m">Σbar peak: 522.33 M☉/pc²</text>
<text x="472" y="195" class="lbl-m">Σphantom peak: 175.36 M☉/pc²</text>
</g>
<rect x="775" y="55" width="170" height="170" class="preview-bg"/>
<defs><radialGradient id="g_NGC3949" cx="0.5" cy="0.5" r="0.5">
  <stop offset="0.0000" stop-color="rgb(255,255,255)"/>
  <stop offset="0.0313" stop-color="rgb(255,255,255)"/>
  <stop offset="0.0625" stop-color="rgb(245,245,245)"/>
  <stop offset="0.0938" stop-color="rgb(221,221,221)"/>
  <stop offset="0.1250" stop-color="rgb(204,204,204)"/>
  <stop offset="0.1563" stop-color="rgb(197,197,197)"/>
  <stop offset="0.1875" stop-color="rgb(191,191,191)"/>
  <stop offset="0.2188" stop-color="rgb(185,185,185)"/>
  <stop offset="0.2500" stop-color="rgb(179,179,179)"/>
  <stop offset="0.2813" stop-color="rgb(172,172,172)"/>
  <stop offset="0.3125" stop-color="rgb(166,166,166)"/>
  <stop offset="0.3438" stop-color="rgb(160,160,160)"/>
  <stop offset="0.3750" stop-color="rgb(154,154,154)"/>
  <stop offset="0.4063" stop-color="rgb(147,147,147)"/>
  <stop offset="0.4375" stop-color="rgb(144,144,144)"/>
  <stop offset="0.4688" stop-color="rgb(141,141,141)"/>
  <stop offset="0.5000" stop-color="rgb(138,138,138)"/>
  <stop offset="0.5313" stop-color="rgb(135,135,135)"/>
  <stop offset="0.5625" stop-color="rgb(132,132,132)"/>
  <stop offset="0.5938" stop-color="rgb(129,129,129)"/>
  <stop offset="0.6250" stop-color="rgb(126,126,126)"/>
  <stop offset="0.6563" stop-color="rgb(123,123,123)"/>
  <stop offset="0.6875" stop-color="rgb(120,120,120)"/>
  <stop offset="0.7188" stop-color="rgb(117,117,117)"/>
  <stop offset="0.7500" stop-color="rgb(114,114,114)"/>
  <stop offset="0.7813" stop-color="rgb(111,111,111)"/>
  <stop offset="0.8125" stop-color="rgb(108,108,108)"/>
  <stop offset="0.8438" stop-color="rgb(105,105,105)"/>
  <stop offset="0.8750" stop-color="rgb(102,102,102)"/>
  <stop offset="0.9063" stop-color="rgb(99,99,99)"/>
  <stop offset="0.9375" stop-color="rgb(87,87,87)"/>
  <stop offset="0.9688" stop-color="rgb(59,59,59)"/>
  <stop offset="1.0000" stop-color="rgb(0,0,0)"/>
</radialGradient></defs>
<circle cx="860" cy="140" r="81" fill="url(#g_NGC3949)"/>
<text x="860" y="49" text-anchor="middle" class="preview-lbl">face-on luminance from ρ(r)</text>
<text x="860" y="239" text-anchor="middle" class="preview-lbl">edge at r = 7.4 kpc</text>
</svg>