<svg xmlns="http://www.w3.org/2000/svg" viewBox="0 0 960 450" width="960" height="450" font-family="sans-serif" font-size="12">
<style>
  .ax { stroke: #333; stroke-width: 1; fill: none; }
  .grid { stroke: #ddd; stroke-width: 0.5; fill: none; }
  .lbl { fill: #333; }
  .lbl-l { fill: #0066cc; }
  .lbl-r { fill: #b03030; }
  .obs { fill: #222; }
  .err { stroke: #555; stroke-width: 0.8; fill: none; }
  .fw { stroke: #0066cc; stroke-width: 2.2; fill: none; }
  .nt { stroke: #cc6600; stroke-width: 1.6; fill: none; stroke-dasharray: 5,3; }
  .mond { stroke: #7b2cbf; stroke-width: 1.8; fill: none; stroke-dasharray: 7,3; }
  .lbl-p { fill: #cc7000; }
  .lbl-m { fill: #7b2cbf; }
  .rho { stroke: #b03030; stroke-width: 2.0; fill: none; }
  .phot { stroke: #cc7000; stroke-width: 1.8; fill: none; }
  .mbar { stroke: #8e44ad; stroke-width: 1.8; fill: none; opacity: 0.9; }
  .mph { stroke: #c77dff; stroke-width: 1.6; fill: none; stroke-dasharray: 4,3; opacity: 0.95; }
  .remap-x { stroke: #cc2222; stroke-width: 1.5; fill: none; }
  .remap-link { stroke: #cc2222; stroke-width: 0.8; stroke-dasharray: 3,3; fill: none; opacity: 0.7; }
  .title { fill: #111; font-size: 16px; font-weight: 600; }
  .subtitle { fill: #555; font-size: 11px; }
  .preview-bg { fill: #000; }
  .preview-lbl { fill: #888; font-size: 10px; }
  .legend { font-size: 11px; }
</style>
<text x="378.5" y="22" text-anchor="middle" class="title">NGC3769</text>
<text x="378.5" y="38" text-anchor="middle" class="subtitle">rMax=37.2 kpc, N=12, FW=4.4 km/s, 4.3%, 0.51σ, MOND=15.5 km/s, 14.3%, 2.16σ, amp=104</text>
<line x1="70" y1="395.0" x2="687" y2="395.0" class="grid"/>
<text x="64" y="399.0" text-anchor="end" class="lbl-l">0</text>
<line x1="70" y1="327.0" x2="687" y2="327.0" class="grid"/>
<text x="64" y="331.0" text-anchor="end" class="lbl-l">34</text>
<line x1="70" y1="259.0" x2="687" y2="259.0" class="grid"/>
<text x="64" y="263.0" text-anchor="end" class="lbl-l">69</text>
<line x1="70" y1="191.0" x2="687" y2="191.0" class="grid"/>
<text x="64" y="195.0" text-anchor="end" class="lbl-l">103</text>
<line x1="70" y1="123.0" x2="687" y2="123.0" class="grid"/>
<text x="64" y="127.0" text-anchor="end" class="lbl-l">138</text>
<line x1="70" y1="55.0" x2="687" y2="55.0" class="grid"/>
<text x="64" y="59.0" text-anchor="end" class="lbl-l">172</text>
<text x="693" y="399.0" text-anchor="start" class="lbl-r">0.0</text>
<text x="693" y="353.7" text-anchor="start" class="lbl-r">0.2</text>
<text x="693" y="308.3" text-anchor="start" class="lbl-r">0.4</text>
<text x="693" y="263.0" text-anchor="start" class="lbl-r">0.6</text>
<text x="693" y="217.7" text-anchor="start" class="lbl-r">0.8</text>
<text x="693" y="172.3" text-anchor="start" class="lbl-r">1.0</text>
<line x1="70.0" y1="55" x2="70.0" y2="395" class="grid"/>
<text x="70.0" y="411" text-anchor="middle" class="lbl">0.0</text>
<line x1="172.8" y1="55" x2="172.8" y2="395" class="grid"/>
<text x="172.8" y="411" text-anchor="middle" class="lbl">6.5</text>
<line x1="275.7" y1="55" x2="275.7" y2="395" class="grid"/>
<text x="275.7" y="411" text-anchor="middle" class="lbl">13.0</text>
<line x1="378.5" y1="55" x2="378.5" y2="395" class="grid"/>
<text x="378.5" y="411" text-anchor="middle" class="lbl">19.5</text>
<line x1="481.3" y1="55" x2="481.3" y2="395" class="grid"/>
<text x="481.3" y="411" text-anchor="middle" class="lbl">26.0</text>
<line x1="584.2" y1="55" x2="584.2" y2="395" class="grid"/>
<text x="584.2" y="411" text-anchor="middle" class="lbl">32.5</text>
<line x1="687.0" y1="55" x2="687.0" y2="395" class="grid"/>
<text x="687.0" y="411" text-anchor="middle" class="lbl">39.0</text>
<text x="378.5" y="438" text-anchor="middle" class="lbl">radius (kpc)</text>
<text x="16" y="225" text-anchor="middle" class="lbl-l" transform="rotate(-90, 16, 225)">velocity (km/s)</text>
<text x="724" y="225" text-anchor="middle" class="lbl-r" transform="rotate(-90, 724, 225)">profiles (normalized to peak)</text>
<rect x="70" y="55" width="617" height="340" class="ax"/>
<path d="M 70.0,168.3 L 72.8,168.3 L 75.6,168.3 L 78.5,168.3 L 81.3,168.3 L 84.1,168.3 L 86.9,168.3 L 89.7,168.3 L 92.5,168.3 L 95.4,168.3 L 98.2,168.3 L 101.0,168.3 L 103.8,187.3 L 106.6,228.0 L 109.4,268.7 L 112.3,281.1 L 115.1,282.3 L 117.9,283.5 L 120.7,284.7 L 123.5,285.9 L 126.3,287.1 L 129.2,288.3 L 132.0,289.5 L 134.8,290.7 L 137.6,291.9 L 140.4,293.1 L 143.3,294.3 L 146.1,295.5 L 148.9,296.7 L 151.7,297.9 L 154.5,299.1 L 157.3,300.4 L 160.2,301.6 L 163.0,302.8 L 165.8,304.0 L 168.6,305.2 L 171.4,306.4 L 174.2,307.6 L 177.1,308.8 L 179.9,310.0 L 182.7,311.2 L 185.5,312.4 L 188.3,313.6 L 191.1,314.8 L 194.0,316.0 L 196.8,317.2 L 199.6,318.4 L 202.4,319.6 L 205.2,320.8 L 208.1,322.0 L 210.9,323.2 L 213.7,324.4 L 216.5,325.6 L 219.3,326.8 L 222.1,328.0 L 225.0,329.3 L 227.8,330.5 L 230.6,331.4 L 233.4,331.6 L 236.2,331.9 L 239.0,332.1 L 241.9,332.4 L 244.7,332.6 L 247.5,332.9 L 250.3,333.1 L 253.1,333.4 L 255.9,333.6 L 258.8,333.9 L 261.6,334.1 L 264.4,334.4 L 267.2,334.6 L 270.0,334.9 L 272.8,335.1 L 275.7,335.3 L 278.5,335.6 L 281.3,335.8 L 284.1,336.1 L 286.9,336.3 L 289.8,336.6 L 292.6,336.8 L 295.4,337.1 L 298.2,337.3 L 301.0,337.6 L 303.8,337.8 L 306.7,338.1 L 309.5,338.3 L 312.3,338.6 L 315.1,338.8 L 317.9,339.0 L 320.7,339.3 L 323.6,339.5 L 326.4,339.8 L 329.2,340.0 L 332.0,340.3 L 334.8,340.5 L 337.6,340.8 L 340.5,341.0 L 343.3,341.3 L 346.1,341.5 L 348.9,341.8 L 351.7,342.0 L 354.6,342.3 L 357.4,342.5 L 360.2,342.7 L 363.0,343.0 L 365.8,343.2 L 368.6,343.5 L 371.5,343.7 L 374.3,344.0 L 377.1,344.2 L 379.9,344.5 L 382.7,344.7 L 385.5,345.0 L 388.4,345.2 L 391.2,345.5 L 394.0,345.7 L 396.8,346.0 L 399.6,346.2 L 402.4,346.5 L 405.3,346.7 L 408.1,346.9 L 410.9,347.2 L 413.7,347.4 L 416.5,347.7 L 419.4,347.9 L 422.2,348.2 L 425.0,348.4 L 427.8,348.7 L 430.6,348.9 L 433.4,349.2 L 436.3,349.4 L 439.1,349.7 L 441.9,349.9 L 444.7,350.2 L 447.5,350.4 L 450.3,350.6 L 453.2,350.9 L 456.0,351.1 L 458.8,351.4 L 461.6,351.6 L 464.4,351.9 L 467.2,352.1 L 470.1,352.4 L 472.9,352.6 L 475.7,352.9 L 478.5,353.1 L 481.3,353.4 L 484.2,353.6 L 487.0,353.9 L 489.8,354.1 L 492.6,354.3 L 495.4,354.6 L 498.2,354.8 L 501.1,355.1 L 503.9,355.3 L 506.7,355.6 L 509.5,355.8 L 512.3,356.1 L 515.1,356.3 L 518.0,356.6 L 520.8,356.8 L 523.6,357.1 L 526.4,357.3 L 529.2,357.6 L 532.0,357.8 L 534.9,358.0 L 537.7,358.3 L 540.5,358.5 L 543.3,358.8 L 546.1,359.0 L 548.9,359.3 L 551.8,359.5 L 554.6,359.8 L 557.4,360.0 L 560.2,360.3 L 563.0,360.5 L 565.9,360.8 L 568.7,361.0 L 571.5,361.3 L 574.3,361.5 L 577.1,361.7 L 579.9,362.0 L 582.8,362.2 L 585.6,362.5 L 588.4,362.7 L 591.2,363.0 L 594.0,363.2 L 596.8,363.9 L 599.7,365.3 L 602.5,366.8 L 605.3,368.2 L 608.1,369.7 L 610.9,371.1 L 613.7,372.5 L 616.6,374.0 L 619.4,375.4 L 622.2,376.9 L 625.0,378.3 L 627.8,379.8 L 630.7,381.2 L 633.5,382.6 L 636.3,384.1 L 639.1,385.5 L 641.9,387.0 L 644.7,388.4 L 647.6,389.9 L 650.4,391.3 L 653.2,392.7 L 656.0,394.2 L 658.8,395.0 L 661.6,395.0 L 664.5,395.0 L 667.3,395.0 L 670.1,395.0 L 672.9,395.0 L 675.7,395.0 L 678.5,395.0 L 681.4,395.0 L 684.2,395.0 L 687.0,395.0" class="rho"/>
<path d="M 97.5,168.3 L 125.3,328.7 L 152.9,373.6 L 180.4,388.0 L 207.9,392.5 L 235.6,393.4 L 264.7,394.1 L 299.6,394.6 L 339.9,394.7 L 573.2,395.0 L 617.3,395.0 L 657.6,395.0" class="phot"/>
<path d="M 97.5,168.3 L 125.3,259.0 L 152.9,341.3 L 180.4,375.5 L 207.9,386.3 L 235.6,391.0 L 264.7,393.1 L 299.6,393.2 L 339.9,393.0 L 573.2,393.8 L 617.3,394.6 L 657.6,394.9" class="mbar"/>
<path d="M 97.5,168.3 L 125.3,196.1 L 152.9,235.7 L 180.4,269.9 L 207.9,294.2 L 235.6,312.2 L 264.7,325.3 L 299.6,333.6 L 339.9,341.9 L 573.2,354.6 L 617.3,365.4 L 657.6,369.4" class="mph"/>
<path d="M 76.2,323.2 L 82.3,293.5 L 88.5,270.7 L 94.7,251.4 L 100.8,234.5 L 107.0,222.1 L 113.2,219.1 L 119.4,216.5 L 125.5,213.3 L 131.7,209.7 L 137.9,206.0 L 144.0,202.2 L 150.2,198.4 L 156.4,194.7 L 162.6,191.1 L 168.7,187.7 L 174.9,184.4 L 181.1,181.3 L 187.2,178.3 L 193.4,175.5 L 199.6,172.9 L 205.7,170.4 L 211.9,168.1 L 218.1,166.0 L 224.3,164.0 L 230.4,162.2 L 236.6,160.4 L 242.8,158.6 L 248.9,156.9 L 255.1,155.0 L 261.3,153.2 L 267.4,151.4 L 273.6,149.6 L 279.8,147.7 L 286.0,145.9 L 292.1,144.1 L 298.3,142.3 L 304.5,140.6 L 310.6,138.8 L 316.8,137.1 L 323.0,135.4 L 329.1,133.7 L 335.3,132.0 L 341.5,130.4 L 347.6,128.8 L 353.8,127.2 L 360.0,125.6 L 366.2,124.1 L 372.3,122.6 L 378.5,121.1 L 384.7,119.7 L 390.8,118.3 L 397.0,116.9 L 403.2,115.5 L 409.4,114.1 L 415.5,112.8 L 421.7,111.5 L 427.9,110.3 L 434.0,109.1 L 440.2,107.8 L 446.4,106.7 L 452.5,105.5 L 458.7,104.4 L 464.9,103.3 L 471.0,102.2 L 477.2,101.2 L 483.4,100.2 L 489.6,99.2 L 495.7,98.3 L 501.9,97.3 L 508.1,96.4 L 514.2,95.5 L 520.4,94.7 L 526.6,93.9 L 532.8,93.1 L 538.9,92.3 L 545.1,91.6 L 551.3,90.8 L 557.4,90.1 L 563.6,89.5 L 569.8,88.9 L 575.9,88.2 L 582.1,87.6 L 588.3,87.1 L 594.5,86.5 L 600.6,86.1 L 606.8,85.8 L 613.0,85.8 L 619.1,86.0 L 625.3,86.4 L 631.5,87.0 L 637.6,87.8 L 643.8,88.8 L 650.0,90.0 L 656.2,91.5 L 662.3,93.0 L 668.5,94.6 L 674.7,96.1 L 680.8,97.6 L 687.0,99.1" class="nt"/>
<path d="M 97.5,178.5 L 125.3,138.8 L 152.9,133.3 L 180.4,132.8 L 207.9,133.6 L 235.6,135.2 L 264.7,137.3 L 299.6,138.2 L 339.9,136.2 L 573.2,129.2 L 617.3,129.6 L 657.6,129.9" class="mond"/>
<path d="M 75.1,359.8 L 80.3,333.4 L 85.4,304.2 L 90.6,275.9 L 95.7,249.7 L 100.8,227.0 L 106.0,208.2 L 111.1,194.1 L 116.3,184.2 L 121.4,177.8 L 126.6,173.8 L 131.7,171.1 L 136.8,169.1 L 142.0,167.4 L 147.1,165.8 L 152.3,164.0 L 157.4,162.3 L 162.6,160.5 L 167.7,158.8 L 172.8,157.1 L 178.0,155.5 L 183.1,154.1 L 188.3,152.8 L 193.4,151.8 L 198.5,151.0 L 203.7,150.6 L 208.8,150.4 L 214.0,150.6 L 219.1,151.2 L 224.3,152.0 L 229.4,153.1 L 234.5,154.3 L 239.7,155.6 L 244.8,156.9 L 250.0,158.1 L 255.1,159.2 L 260.2,160.1 L 265.4,161.0 L 270.5,161.7 L 275.7,162.2 L 280.8,162.7 L 285.9,163.1 L 291.1,163.4 L 296.2,163.6 L 301.4,163.7 L 306.5,163.8 L 311.7,163.8 L 316.8,163.8 L 321.9,163.8 L 327.1,163.7 L 332.2,163.6 L 337.4,163.4 L 342.5,163.3 L 347.7,163.1 L 352.8,162.9 L 357.9,162.7 L 363.1,162.5 L 368.2,162.3 L 373.4,162.1 L 378.5,161.8 L 383.6,161.6 L 388.8,161.4 L 393.9,161.2 L 399.1,161.0 L 404.2,160.8 L 409.4,160.5 L 414.5,160.3 L 419.6,160.2 L 424.8,160.0 L 429.9,159.8 L 435.1,159.6 L 440.2,159.5 L 445.3,159.3 L 450.5,159.2 L 455.6,159.0 L 460.8,158.9 L 465.9,158.8 L 471.0,158.6 L 476.2,158.5 L 481.3,158.4 L 486.5,158.3 L 491.6,158.2 L 496.8,158.0 L 501.9,157.9 L 507.0,157.8 L 512.2,157.6 L 517.3,157.4 L 522.5,157.2 L 527.6,157.0 L 532.8,156.7 L 537.9,156.4 L 543.0,156.0 L 548.2,155.6 L 553.3,155.1 L 558.5,154.5 L 563.6,153.8 L 568.7,153.0 L 573.9,152.1 L 579.0,151.2 L 584.2,150.2 L 589.3,149.4 L 594.5,148.7 L 599.6,148.5 L 604.7,148.7 L 609.9,149.6 L 615.0,151.2 L 620.2,153.4 L 625.3,156.3 L 630.4,159.7 L 635.6,163.5 L 640.7,167.7 L 645.9,172.1 L 651.0,176.6 L 656.1,181.1 L 661.3,185.4 L 666.4,189.7 L 671.6,193.7 L 676.7,197.6 L 681.9,201.2 L 687.0,204.6" class="fw"/>
<line x1="97.51" y1="203.66" x2="97.51" y2="240.78" class="err"/>
<line x1="94.51" y1="203.66" x2="100.51" y2="203.66" class="err"/>
<line x1="94.51" y1="240.78" x2="100.51" y2="240.78" class="err"/>
<circle cx="97.51" cy="222.22" r="2.5" class="obs"/>
<line x1="125.35" y1="171.67" x2="125.35" y2="199.71" class="err"/>
<line x1="122.35" y1="171.67" x2="128.35" y2="171.67" class="err"/>
<line x1="122.35" y1="199.71" x2="128.35" y2="199.71" class="err"/>
<circle cx="125.35" cy="185.69" r="2.5" class="obs"/>
<line x1="152.86" y1="155.47" x2="152.86" y2="176.41" class="err"/>
<line x1="149.86" y1="155.47" x2="155.86" y2="155.47" class="err"/>
<line x1="149.86" y1="176.41" x2="155.86" y2="176.41" class="err"/>
<circle cx="152.86" cy="165.94" r="2.5" class="obs"/>
<line x1="180.38" y1="136.91" x2="180.38" y2="159.42" class="err"/>
<line x1="177.38" y1="136.91" x2="183.38" y2="136.91" class="err"/>
<line x1="177.38" y1="159.42" x2="183.38" y2="159.42" class="err"/>
<circle cx="180.38" cy="148.17" r="2.5" class="obs"/>
<line x1="207.89" y1="137.50" x2="207.89" y2="154.88" class="err"/>
<line x1="204.89" y1="137.50" x2="210.89" y2="137.50" class="err"/>
<line x1="204.89" y1="154.88" x2="210.89" y2="154.88" class="err"/>
<circle cx="207.89" cy="146.19" r="2.5" class="obs"/>
<line x1="235.56" y1="143.43" x2="235.56" y2="160.81" class="err"/>
<line x1="232.56" y1="143.43" x2="238.56" y2="143.43" class="err"/>
<line x1="232.56" y1="160.81" x2="238.56" y2="160.81" class="err"/>
<circle cx="235.56" cy="152.12" r="2.5" class="obs"/>
<line x1="264.66" y1="152.91" x2="264.66" y2="171.07" class="err"/>
<line x1="261.66" y1="152.91" x2="267.66" y2="152.91" class="err"/>
<line x1="261.66" y1="171.07" x2="267.66" y2="171.07" class="err"/>
<circle cx="264.66" cy="161.99" r="2.5" class="obs"/>
<line x1="299.61" y1="155.28" x2="299.61" y2="180.55" class="err"/>
<line x1="296.61" y1="155.28" x2="302.61" y2="155.28" class="err"/>
<line x1="296.61" y1="180.55" x2="302.61" y2="180.55" class="err"/>
<circle cx="299.61" cy="167.91" r="2.5" class="obs"/>
<line x1="339.93" y1="124.08" x2="339.93" y2="184.11" class="err"/>
<line x1="336.93" y1="124.08" x2="342.93" y2="124.08" class="err"/>
<line x1="336.93" y1="184.11" x2="342.93" y2="184.11" class="err"/>
<circle cx="339.93" cy="154.09" r="2.5" class="obs"/>
<line x1="573.18" y1="135.93" x2="573.18" y2="176.21" class="err"/>
<line x1="570.18" y1="135.93" x2="576.18" y2="135.93" class="err"/>
<line x1="570.18" y1="176.21" x2="576.18" y2="176.21" class="err"/>
<circle cx="573.18" cy="156.07" r="2.5" class="obs"/>
<line x1="617.30" y1="141.45" x2="617.30" y2="182.53" class="err"/>
<line x1="614.30" y1="141.45" x2="620.30" y2="141.45" class="err"/>
<line x1="614.30" y1="182.53" x2="620.30" y2="182.53" class="err"/>
<circle cx="617.30" cy="161.99" r="2.5" class="obs"/>
<line x1="657.62" y1="151.13" x2="657.62" y2="192.60" class="err"/>
<line x1="654.62" y1="151.13" x2="660.62" y2="151.13" class="err"/>
<line x1="654.62" y1="192.60" x2="660.62" y2="192.60" class="err"/>
<circle cx="657.62" cy="171.86" r="2.5" class="obs"/>
<g class="legend">
<line x1="82" y1="69" x2="106" y2="69" class="fw"/>
<text x="112" y="73" class="lbl-l">framework: 4.4 km/s, 4.3%, 0.51σ</text>
<line x1="82" y1="87" x2="106" y2="87" class="nt"/>
<text x="112" y="91" class="lbl-l">Newtonian: 21.7 km/s, 18.7%, 2.53σ</text>
<line x1="82" y1="105" x2="106" y2="105" class="mond"/>
<text x="112" y="109" class="lbl-m">MOND/RAR: 15.5 km/s, 14.3%, 2.16σ</text>
<circle cx="94" cy="123" r="2.5" class="obs"/>
<text x="112" y="127" class="lbl">observed V±err</text>
</g>
<g class="legend">
<line x1="472" y1="69" x2="496" y2="69" class="rho"/>
<text x="502" y="73" class="lbl-r">ρ(r) raw</text>
<line x1="472" y1="87" x2="496" y2="87" class="phot"/>
<text x="502" y="91" class="lbl-p">photometric baryonic profile</text>
<line x1="472" y1="105" x2="496" y2="105" class="mbar"/>
<text x="502" y="109" class="lbl-m">MOND baryonic annulus</text>
<line x1="472" y1="123" x2="496" y2="123" class="mph"/>
<text x="502" y="127" class="lbl-m">MOND phantom annulus</text>
<text x="472" y="147" class="lbl-r">ρ peak: 251 M☉/pc²</text>
<text x="472" y="163" class="lbl-p">phot peak: 181.57 (arb.)</text>
<text x="472" y="179" class="lbl-m">Σbar peak: 298.88 M☉/pc²</text>
<text x="472" y="195" class="lbl-m">Σphantom peak: 160.86 M☉/pc²</text>
</g>
<rect x="775" y="55" width="170" height="170" class="preview-bg"/>
<defs><radialGradient id="g_NGC3769" cx="0.5" cy="0.5" r="0.5">
  <stop offset="0.0000" stop-color="rgb(105,105,105)"/>
  <stop offset="0.0313" stop-color="rgb(105,105,105)"/>
  <stop offset="0.0625" stop-color="rgb(86,86,86)"/>
  <stop offset="0.0938" stop-color="rgb(69,69,69)"/>
  <stop offset="0.1250" stop-color="rgb(67,67,67)"/>
  <stop offset="0.1563" stop-color="rgb(64,64,64)"/>
  <stop offset="0.1875" stop-color="rgb(60,60,60)"/>
  <stop offset="0.2188" stop-color="rgb(54,54,54)"/>
  <stop offset="0.2500" stop-color="rgb(49,49,49)"/>
  <stop offset="0.2813" stop-color="rgb(45,45,45)"/>
  <stop offset="0.3125" stop-color="rgb(43,43,43)"/>
  <stop offset="0.3438" stop-color="rgb(42,42,42)"/>
  <stop offset="0.3750" stop-color="rgb(41,41,41)"/>
  <stop offset="0.4063" stop-color="rgb(40,40,40)"/>
  <stop offset="0.4375" stop-color="rgb(39,39,39)"/>
  <stop offset="0.4688" stop-color="rgb(38,38,38)"/>
  <stop offset="0.5000" stop-color="rgb(37,37,37)"/>
  <stop offset="0.5313" stop-color="rgb(35,35,35)"/>
  <stop offset="0.5625" stop-color="rgb(34,34,34)"/>
  <stop offset="0.5938" stop-color="rgb(33,33,33)"/>
  <stop offset="0.6250" stop-color="rgb(32,32,32)"/>
  <stop offset="0.6563" stop-color="rgb(31,31,31)"/>
  <stop offset="0.6875" stop-color="rgb(30,30,30)"/>
  <stop offset="0.7188" stop-color="rgb(29,29,29)"/>
  <stop offset="0.7500" stop-color="rgb(28,28,28)"/>
  <stop offset="0.7813" stop-color="rgb(26,26,26)"/>
  <stop offset="0.8125" stop-color="rgb(25,25,25)"/>
  <stop offset="0.8438" stop-color="rgb(24,24,24)"/>
  <stop offset="0.8750" stop-color="rgb(23,23,23)"/>
  <stop offset="0.9063" stop-color="rgb(20,20,20)"/>
  <stop offset="0.9375" stop-color="rgb(13,13,13)"/>
  <stop offset="0.9688" stop-color="rgb(7,7,7)"/>
  <stop offset="1.0000" stop-color="rgb(0,0,0)"/>
</radialGradient></defs>
<circle cx="860" cy="140" r="81" fill="url(#g_NGC3769)"/>
<text x="860" y="49" text-anchor="middle" class="preview-lbl">face-on luminance from ρ(r)</text>
<text x="860" y="239" text-anchor="middle" class="preview-lbl">edge at r = 37.2 kpc</text>
</svg>