<svg xmlns="http://www.w3.org/2000/svg" viewBox="0 0 960 450" width="960" height="450" font-family="sans-serif" font-size="12">
<style>
  .ax { stroke: #333; stroke-width: 1; fill: none; }
  .grid { stroke: #ddd; stroke-width: 0.5; fill: none; }
  .lbl { fill: #333; }
  .lbl-l { fill: #0066cc; }
  .lbl-r { fill: #b03030; }
  .obs { fill: #222; }
  .err { stroke: #555; stroke-width: 0.8; fill: none; }
  .fw { stroke: #0066cc; stroke-width: 2.2; fill: none; }
  .nt { stroke: #cc6600; stroke-width: 1.6; fill: none; stroke-dasharray: 5,3; }
  .mond { stroke: #7b2cbf; stroke-width: 1.8; fill: none; stroke-dasharray: 7,3; }
  .lbl-p { fill: #cc7000; }
  .lbl-m { fill: #7b2cbf; }
  .rho { stroke: #b03030; stroke-width: 2.0; fill: none; }
  .phot { stroke: #cc7000; stroke-width: 1.8; fill: none; }
  .mbar { stroke: #8e44ad; stroke-width: 1.8; fill: none; opacity: 0.9; }
  .mph { stroke: #c77dff; stroke-width: 1.6; fill: none; stroke-dasharray: 4,3; opacity: 0.95; }
  .remap-x { stroke: #cc2222; stroke-width: 1.5; fill: none; }
  .remap-link { stroke: #cc2222; stroke-width: 0.8; stroke-dasharray: 3,3; fill: none; opacity: 0.7; }
  .title { fill: #111; font-size: 16px; font-weight: 600; }
  .subtitle { fill: #555; font-size: 11px; }
  .preview-bg { fill: #000; }
  .preview-lbl { fill: #888; font-size: 10px; }
  .legend { font-size: 11px; }
</style>
<text x="378.5" y="22" text-anchor="middle" class="title">NGC3949</text>
<text x="378.5" y="38" text-anchor="middle" class="subtitle">rMax=7.1 kpc, N=7, FW=1.3 km/s, 0.8%, 0.09σ, MOND=9.5 km/s, 6.4%, 1.50σ, amp=105</text>
<line x1="70" y1="395.0" x2="687" y2="395.0" class="grid"/>
<text x="64" y="399.0" text-anchor="end" class="lbl-l">0</text>
<line x1="70" y1="327.0" x2="687" y2="327.0" class="grid"/>
<text x="64" y="331.0" text-anchor="end" class="lbl-l">43</text>
<line x1="70" y1="259.0" x2="687" y2="259.0" class="grid"/>
<text x="64" y="263.0" text-anchor="end" class="lbl-l">86</text>
<line x1="70" y1="191.0" x2="687" y2="191.0" class="grid"/>
<text x="64" y="195.0" text-anchor="end" class="lbl-l">128</text>
<line x1="70" y1="123.0" x2="687" y2="123.0" class="grid"/>
<text x="64" y="127.0" text-anchor="end" class="lbl-l">171</text>
<line x1="70" y1="55.0" x2="687" y2="55.0" class="grid"/>
<text x="64" y="59.0" text-anchor="end" class="lbl-l">214</text>
<text x="693" y="399.0" text-anchor="start" class="lbl-r">0.0</text>
<text x="693" y="353.7" text-anchor="start" class="lbl-r">0.2</text>
<text x="693" y="308.3" text-anchor="start" class="lbl-r">0.4</text>
<text x="693" y="263.0" text-anchor="start" class="lbl-r">0.6</text>
<text x="693" y="217.7" text-anchor="start" class="lbl-r">0.8</text>
<text x="693" y="172.3" text-anchor="start" class="lbl-r">1.0</text>
<line x1="70.0" y1="55" x2="70.0" y2="395" class="grid"/>
<text x="70.0" y="411" text-anchor="middle" class="lbl">0.0</text>
<line x1="172.8" y1="55" x2="172.8" y2="395" class="grid"/>
<text x="172.8" y="411" text-anchor="middle" class="lbl">1.2</text>
<line x1="275.7" y1="55" x2="275.7" y2="395" class="grid"/>
<text x="275.7" y="411" text-anchor="middle" class="lbl">2.5</text>
<line x1="378.5" y1="55" x2="378.5" y2="395" class="grid"/>
<text x="378.5" y="411" text-anchor="middle" class="lbl">3.7</text>
<line x1="481.3" y1="55" x2="481.3" y2="395" class="grid"/>
<text x="481.3" y="411" text-anchor="middle" class="lbl">4.9</text>
<line x1="584.2" y1="55" x2="584.2" y2="395" class="grid"/>
<text x="584.2" y="411" text-anchor="middle" class="lbl">6.2</text>
<line x1="687.0" y1="55" x2="687.0" y2="395" class="grid"/>
<text x="687.0" y="411" text-anchor="middle" class="lbl">7.4</text>
<text x="378.5" y="438" text-anchor="middle" class="lbl">radius (kpc)</text>
<text x="16" y="225" text-anchor="middle" class="lbl-l" transform="rotate(-90, 16, 225)">velocity (km/s)</text>
<text x="724" y="225" text-anchor="middle" class="lbl-r" transform="rotate(-90, 724, 225)">profiles (normalized to peak)</text>
<rect x="70" y="55" width="617" height="340" class="ax"/>
<path d="M 70.0,168.3 L 72.8,174.9 L 75.6,181.5 L 78.5,188.1 L 81.3,194.7 L 84.1,201.3 L 86.9,207.8 L 89.7,214.4 L 92.5,221.0 L 95.4,227.6 L 98.2,234.2 L 101.0,240.2 L 103.8,242.7 L 106.6,245.1 L 109.4,247.5 L 112.3,250.0 L 115.1,252.4 L 117.9,254.8 L 120.7,257.3 L 123.5,259.7 L 126.3,262.1 L 129.2,264.5 L 132.0,267.0 L 134.8,269.4 L 137.6,271.8 L 140.4,274.3 L 143.3,275.2 L 146.1,275.8 L 148.9,276.5 L 151.7,277.1 L 154.5,277.8 L 157.3,278.4 L 160.2,279.1 L 163.0,279.7 L 165.8,280.3 L 168.6,281.0 L 171.4,281.6 L 174.2,282.3 L 177.1,282.9 L 179.9,283.6 L 182.7,284.2 L 185.5,284.9 L 188.3,285.5 L 191.1,286.2 L 194.0,286.8 L 196.8,287.5 L 199.6,288.1 L 202.4,288.7 L 205.2,289.4 L 208.1,290.0 L 210.9,290.7 L 213.7,291.3 L 216.5,292.0 L 219.3,292.6 L 222.1,293.3 L 225.0,293.9 L 227.8,294.6 L 230.6,295.2 L 233.4,295.9 L 236.2,296.5 L 239.0,297.1 L 241.9,297.8 L 244.7,298.4 L 247.5,299.1 L 250.3,299.7 L 253.1,300.4 L 255.9,301.0 L 258.8,301.7 L 261.6,302.3 L 264.4,303.0 L 267.2,303.6 L 270.0,304.3 L 272.8,304.9 L 275.7,305.5 L 278.5,306.2 L 281.3,306.8 L 284.1,307.5 L 286.9,308.1 L 289.8,308.8 L 292.6,309.4 L 295.4,310.1 L 298.2,310.7 L 301.0,311.4 L 303.8,312.0 L 306.7,312.7 L 309.5,313.3 L 312.3,313.9 L 315.1,314.6 L 317.9,315.2 L 320.7,315.9 L 323.6,316.5 L 326.4,317.1 L 329.2,317.4 L 332.0,317.7 L 334.8,318.0 L 337.6,318.3 L 340.5,318.6 L 343.3,318.9 L 346.1,319.2 L 348.9,319.6 L 351.7,319.9 L 354.6,320.2 L 357.4,320.5 L 360.2,320.8 L 363.0,321.1 L 365.8,321.4 L 368.6,321.7 L 371.5,322.0 L 374.3,322.3 L 377.1,322.7 L 379.9,323.0 L 382.7,323.3 L 385.5,323.6 L 388.4,323.9 L 391.2,324.2 L 394.0,324.5 L 396.8,324.8 L 399.6,325.1 L 402.4,325.4 L 405.3,325.8 L 408.1,326.1 L 410.9,326.4 L 413.7,326.7 L 416.5,327.0 L 419.4,327.3 L 422.2,327.6 L 425.0,327.9 L 427.8,328.2 L 430.6,328.5 L 433.4,328.9 L 436.3,329.2 L 439.1,329.5 L 441.9,329.8 L 444.7,330.1 L 447.5,330.4 L 450.3,330.7 L 453.2,331.0 L 456.0,331.3 L 458.8,331.6 L 461.6,332.0 L 464.4,332.3 L 467.2,332.6 L 470.1,332.9 L 472.9,333.2 L 475.7,333.5 L 478.5,333.8 L 481.3,334.1 L 484.2,334.4 L 487.0,334.7 L 489.8,335.1 L 492.6,335.4 L 495.4,335.7 L 498.2,336.0 L 501.1,336.3 L 503.9,336.6 L 506.7,336.9 L 509.5,337.2 L 512.3,337.5 L 515.1,337.8 L 518.0,338.2 L 520.8,338.5 L 523.6,338.8 L 526.4,339.1 L 529.2,339.4 L 532.0,339.7 L 534.9,340.0 L 537.7,340.3 L 540.5,340.6 L 543.3,340.9 L 546.1,341.2 L 548.9,341.6 L 551.8,341.9 L 554.6,342.2 L 557.4,342.5 L 560.2,342.8 L 563.0,343.1 L 565.9,343.4 L 568.7,343.7 L 571.5,344.0 L 574.3,344.3 L 577.1,344.7 L 579.9,345.0 L 582.8,345.3 L 585.6,345.6 L 588.4,345.9 L 591.2,346.2 L 594.0,346.5 L 596.8,346.8 L 599.7,347.1 L 602.5,347.4 L 605.3,347.8 L 608.1,348.1 L 610.9,348.4 L 613.7,348.7 L 616.6,349.0 L 619.4,349.3 L 622.2,349.6 L 625.0,349.9 L 627.8,350.2 L 630.7,350.5 L 633.5,350.9 L 636.3,351.2 L 639.1,351.5 L 641.9,351.8 L 644.7,358.9 L 647.6,366.8 L 650.4,374.7 L 653.2,382.6 L 656.0,390.5 L 658.8,395.0 L 661.6,395.0 L 664.5,395.0 L 667.3,395.0 L 670.1,395.0 L 672.9,395.0 L 675.7,395.0 L 678.5,395.0 L 681.4,395.0 L 684.2,395.0 L 687.0,395.0" class="rho"/>
<path d="M 214.6,168.3 L 286.9,232.6 L 360.9,323.5 L 433.2,362.2 L 505.5,377.1 L 577.8,385.9 L 657.6,389.3" class="phot"/>
<path d="M 214.6,168.3 L 286.9,199.6 L 360.9,255.9 L 433.2,323.0 L 505.5,362.5 L 577.8,376.3 L 657.6,381.4" class="mbar"/>
<path d="M 214.6,168.3 L 286.9,171.4 L 360.9,181.1 L 433.2,199.4 L 505.5,220.2 L 577.8,239.0 L 657.6,250.9" class="mph"/>
<path d="M 76.2,341.8 L 82.3,321.5 L 88.5,307.1 L 94.7,295.9 L 100.9,287.1 L 107.0,279.5 L 113.2,272.6 L 119.4,266.3 L 125.5,260.5 L 131.7,255.3 L 137.9,250.6 L 144.0,246.2 L 150.2,242.0 L 156.4,237.8 L 162.6,233.8 L 168.7,229.9 L 174.9,226.1 L 181.1,222.5 L 187.2,218.9 L 193.4,215.5 L 199.6,212.2 L 205.7,209.0 L 211.9,205.9 L 218.1,202.8 L 224.3,199.9 L 230.4,197.1 L 236.6,194.4 L 242.8,191.8 L 248.9,189.2 L 255.1,186.7 L 261.3,184.4 L 267.4,182.1 L 273.6,179.8 L 279.8,177.7 L 286.0,175.6 L 292.1,173.6 L 298.3,171.7 L 304.5,169.8 L 310.6,168.0 L 316.8,166.3 L 323.0,164.6 L 329.1,163.0 L 335.3,161.4 L 341.5,159.8 L 347.6,158.3 L 353.8,156.8 L 360.0,155.3 L 366.2,153.8 L 372.3,152.4 L 378.5,150.9 L 384.7,149.5 L 390.8,148.2 L 397.0,146.8 L 403.2,145.5 L 409.4,144.2 L 415.5,142.9 L 421.7,141.6 L 427.9,140.4 L 434.0,139.2 L 440.2,138.0 L 446.4,136.8 L 452.5,135.7 L 458.7,134.6 L 464.9,133.5 L 471.1,132.4 L 477.2,131.4 L 483.4,130.3 L 489.6,129.3 L 495.7,128.4 L 501.9,127.4 L 508.1,126.5 L 514.2,125.6 L 520.4,124.7 L 526.6,123.8 L 532.8,123.0 L 538.9,122.1 L 545.1,121.3 L 551.3,120.6 L 557.4,119.8 L 563.6,119.1 L 569.8,118.4 L 575.9,117.7 L 582.1,117.0 L 588.3,116.4 L 594.4,115.7 L 600.6,115.1 L 606.8,114.5 L 613.0,114.0 L 619.1,113.4 L 625.3,112.9 L 631.5,112.4 L 637.6,111.9 L 643.8,111.5 L 650.0,111.6 L 656.1,112.5 L 662.3,114.0 L 668.5,115.4 L 674.7,116.8 L 680.8,118.3 L 687.0,119.7" class="nt"/>
<path d="M 214.6,187.6 L 286.9,151.6 L 360.9,125.9 L 433.2,126.8 L 505.5,127.2 L 577.8,130.9 L 657.6,132.6" class="mond"/>
<path d="M 75.1,374.2 L 80.3,359.0 L 85.4,343.0 L 90.6,328.2 L 95.7,314.9 L 100.8,303.4 L 106.0,293.1 L 111.1,284.2 L 116.3,276.3 L 121.4,269.4 L 126.6,263.2 L 131.7,257.8 L 136.8,253.0 L 142.0,248.8 L 147.1,244.9 L 152.3,241.2 L 157.4,237.6 L 162.6,234.1 L 167.7,230.6 L 172.8,227.0 L 178.0,223.4 L 183.1,219.9 L 188.3,216.3 L 193.4,212.8 L 198.5,209.3 L 203.7,205.9 L 208.8,202.5 L 214.0,199.2 L 219.1,196.0 L 224.3,192.9 L 229.4,189.9 L 234.5,187.0 L 239.7,184.1 L 244.8,181.4 L 250.0,178.9 L 255.1,176.4 L 260.2,174.1 L 265.4,171.8 L 270.5,169.8 L 275.7,167.8 L 280.8,166.1 L 285.9,164.4 L 291.1,162.9 L 296.2,161.6 L 301.4,160.5 L 306.5,159.5 L 311.7,158.7 L 316.8,158.1 L 321.9,157.5 L 327.1,157.1 L 332.2,156.8 L 337.4,156.4 L 342.5,156.1 L 347.7,155.7 L 352.8,155.3 L 357.9,154.9 L 363.1,154.4 L 368.2,153.9 L 373.4,153.4 L 378.5,152.8 L 383.6,152.3 L 388.8,151.7 L 393.9,151.1 L 399.1,150.5 L 404.2,149.9 L 409.4,149.3 L 414.5,148.7 L 419.6,148.1 L 424.8,147.5 L 429.9,146.9 L 435.1,146.3 L 440.2,145.7 L 445.3,145.1 L 450.5,144.6 L 455.6,144.0 L 460.8,143.5 L 465.9,142.9 L 471.1,142.4 L 476.2,141.9 L 481.3,141.4 L 486.5,140.8 L 491.6,140.3 L 496.8,139.8 L 501.9,139.4 L 507.0,138.9 L 512.2,138.4 L 517.3,137.9 L 522.5,137.4 L 527.6,136.9 L 532.8,136.3 L 537.9,135.8 L 543.0,135.2 L 548.2,134.7 L 553.3,134.0 L 558.5,133.4 L 563.6,132.7 L 568.7,131.9 L 573.9,131.1 L 579.0,130.2 L 584.2,129.2 L 589.3,128.2 L 594.4,127.0 L 599.6,125.6 L 604.7,124.2 L 609.9,122.6 L 615.0,120.8 L 620.2,119.0 L 625.3,117.3 L 630.4,115.8 L 635.6,114.8 L 640.7,114.6 L 645.9,115.5 L 651.0,117.6 L 656.1,120.9 L 661.3,125.1 L 666.4,130.0 L 671.6,135.3 L 676.7,140.6 L 681.9,145.9 L 687.0,151.0" class="fw"/>
<line x1="214.62" y1="190.79" x2="214.62" y2="208.27" class="err"/>
<line x1="211.62" y1="190.79" x2="217.62" y2="190.79" class="err"/>
<line x1="211.62" y1="208.27" x2="217.62" y2="208.27" class="err"/>
<circle cx="214.62" cy="199.53" r="2.5" class="obs"/>
<line x1="286.93" y1="155.83" x2="286.93" y2="173.31" class="err"/>
<line x1="283.93" y1="155.83" x2="289.93" y2="155.83" class="err"/>
<line x1="283.93" y1="173.31" x2="289.93" y2="173.31" class="err"/>
<circle cx="286.93" cy="164.57" r="2.5" class="obs"/>
<line x1="360.90" y1="143.60" x2="360.90" y2="163.30" class="err"/>
<line x1="357.90" y1="143.60" x2="363.90" y2="143.60" class="err"/>
<line x1="357.90" y1="163.30" x2="363.90" y2="163.30" class="err"/>
<circle cx="360.90" cy="153.45" r="2.5" class="obs"/>
<line x1="433.21" y1="135.01" x2="433.21" y2="155.99" class="err"/>
<line x1="430.21" y1="135.01" x2="436.21" y2="135.01" class="err"/>
<line x1="430.21" y1="155.99" x2="436.21" y2="155.99" class="err"/>
<circle cx="433.21" cy="145.50" r="2.5" class="obs"/>
<line x1="505.52" y1="125.16" x2="505.52" y2="153.13" class="err"/>
<line x1="502.52" y1="125.16" x2="508.52" y2="125.16" class="err"/>
<line x1="502.52" y1="153.13" x2="508.52" y2="153.13" class="err"/>
<circle cx="505.52" cy="139.15" r="2.5" class="obs"/>
<line x1="577.83" y1="114.99" x2="577.83" y2="150.59" class="err"/>
<line x1="574.83" y1="114.99" x2="580.83" y2="114.99" class="err"/>
<line x1="574.83" y1="150.59" x2="580.83" y2="150.59" class="err"/>
<circle cx="577.83" cy="132.79" r="2.5" class="obs"/>
<line x1="657.62" y1="85.91" x2="657.62" y2="166.96" class="err"/>
<line x1="654.62" y1="85.91" x2="660.62" y2="85.91" class="err"/>
<line x1="654.62" y1="166.96" x2="660.62" y2="166.96" class="err"/>
<circle cx="657.62" cy="126.43" r="2.5" class="obs"/>
<g class="legend">
<line x1="82" y1="69" x2="106" y2="69" class="fw"/>
<text x="112" y="73" class="lbl-l">framework: 1.3 km/s, 0.8%, 0.09σ</text>
<line x1="82" y1="87" x2="106" y2="87" class="nt"/>
<text x="112" y="91" class="lbl-l">Newtonian: 6.5 km/s, 4.1%, 0.74σ</text>
<line x1="82" y1="105" x2="106" y2="105" class="mond"/>
<text x="112" y="109" class="lbl-m">MOND/RAR: 9.5 km/s, 6.4%, 1.50σ</text>
<circle cx="94" cy="123" r="2.5" class="obs"/>
<text x="112" y="127" class="lbl">observed V±err</text>
</g>
<g class="legend">
<line x1="472" y1="69" x2="496" y2="69" class="rho"/>
<text x="502" y="73" class="lbl-r">ρ(r) raw</text>
<line x1="472" y1="87" x2="496" y2="87" class="phot"/>
<text x="502" y="91" class="lbl-p">photometric baryonic profile</text>
<line x1="472" y1="105" x2="496" y2="105" class="mbar"/>
<text x="502" y="109" class="lbl-m">MOND baryonic annulus</text>
<line x1="472" y1="123" x2="496" y2="123" class="mph"/>
<text x="502" y="127" class="lbl-m">MOND phantom annulus</text>
<text x="472" y="147" class="lbl-r">ρ peak: 1166 M☉/pc²</text>
<text x="472" y="163" class="lbl-p">phot peak: 375.92 (arb.)</text>
<text x="472" y="179" class="lbl-m">Σbar peak: 522.33 M☉/pc²</text>
<text x="472" y="195" class="lbl-m">Σphantom peak: 175.36 M☉/pc²</text>
</g>
<rect x="775" y="55" width="170" height="170" class="preview-bg"/>
<defs><radialGradient id="g_NGC3949" cx="0.5" cy="0.5" r="0.5">
  <stop offset="0.0000" stop-color="rgb(255,255,255)"/>
  <stop offset="0.0313" stop-color="rgb(255,255,255)"/>
  <stop offset="0.0625" stop-color="rgb(247,247,247)"/>
  <stop offset="0.0938" stop-color="rgb(225,225,225)"/>
  <stop offset="0.1250" stop-color="rgb(205,205,205)"/>
  <stop offset="0.1563" stop-color="rgb(199,199,199)"/>
  <stop offset="0.1875" stop-color="rgb(193,193,193)"/>
  <stop offset="0.2188" stop-color="rgb(187,187,187)"/>
  <stop offset="0.2500" stop-color="rgb(181,181,181)"/>
  <stop offset="0.2813" stop-color="rgb(175,175,175)"/>
  <stop offset="0.3125" stop-color="rgb(169,169,169)"/>
  <stop offset="0.3438" stop-color="rgb(163,163,163)"/>
  <stop offset="0.3750" stop-color="rgb(157,157,157)"/>
  <stop offset="0.4063" stop-color="rgb(152,152,152)"/>
  <stop offset="0.4375" stop-color="rgb(146,146,146)"/>
  <stop offset="0.4688" stop-color="rgb(143,143,143)"/>
  <stop offset="0.5000" stop-color="rgb(140,140,140)"/>
  <stop offset="0.5313" stop-color="rgb(137,137,137)"/>
  <stop offset="0.5625" stop-color="rgb(134,134,134)"/>
  <stop offset="0.5938" stop-color="rgb(132,132,132)"/>
  <stop offset="0.6250" stop-color="rgb(129,129,129)"/>
  <stop offset="0.6563" stop-color="rgb(126,126,126)"/>
  <stop offset="0.6875" stop-color="rgb(123,123,123)"/>
  <stop offset="0.7188" stop-color="rgb(120,120,120)"/>
  <stop offset="0.7500" stop-color="rgb(117,117,117)"/>
  <stop offset="0.7813" stop-color="rgb(115,115,115)"/>
  <stop offset="0.8125" stop-color="rgb(112,112,112)"/>
  <stop offset="0.8438" stop-color="rgb(109,109,109)"/>
  <stop offset="0.8750" stop-color="rgb(106,106,106)"/>
  <stop offset="0.9063" stop-color="rgb(103,103,103)"/>
  <stop offset="0.9375" stop-color="rgb(100,100,100)"/>
  <stop offset="0.9688" stop-color="rgb(98,98,98)"/>
  <stop offset="1.0000" stop-color="rgb(0,0,0)"/>
</radialGradient></defs>
<circle cx="860" cy="140" r="81" fill="url(#g_NGC3949)"/>
<text x="860" y="49" text-anchor="middle" class="preview-lbl">face-on luminance from ρ(r)</text>
<text x="860" y="239" text-anchor="middle" class="preview-lbl">edge at r = 7.1 kpc</text>
</svg>