<svg xmlns="http://www.w3.org/2000/svg" viewBox="0 0 890 420" width="890" height="420" font-family="sans-serif" font-size="12">
<style>
  .ax { stroke: #333; stroke-width: 1; fill: none; }
  .grid { stroke: #ddd; stroke-width: 0.5; fill: none; }
  .lbl { fill: #333; }
  .lbl-l { fill: #0066cc; }
  .lbl-r { fill: #b03030; }
  .obs { fill: #222; }
  .err { stroke: #555; stroke-width: 0.8; fill: none; }
  .fw { stroke: #0066cc; stroke-width: 2.2; fill: none; }
  .nt { stroke: #cc6600; stroke-width: 1.6; fill: none; stroke-dasharray: 5,3; }
  .lbl-s { fill: #cc7000; }
  .rho { stroke: #b03030; stroke-width: 2.0; fill: none; }
  .sig { stroke: #cc7000; stroke-width: 1.8; fill: none; }
  .title { fill: #111; font-size: 16px; font-weight: 600; }
  .subtitle { fill: #555; font-size: 11px; }
  .preview-bg { fill: #000; }
  .preview-lbl { fill: #888; font-size: 10px; }
  .legend { font-size: 11px; }
</style>
<text x="343.5" y="22" text-anchor="middle" class="title">NGC3972</text>
<text x="343.5" y="38" text-anchor="middle" class="subtitle">rMax=8.7 kpc, N=10, RMS=1.5 km/s (1.4%), amp=104</text>
<line x1="70" y1="365.0" x2="617" y2="365.0" class="grid"/>
<text x="64" y="369.0" text-anchor="end" class="lbl-l">0</text>
<line x1="70" y1="303.0" x2="617" y2="303.0" class="grid"/>
<text x="64" y="307.0" text-anchor="end" class="lbl-l">31</text>
<line x1="70" y1="241.0" x2="617" y2="241.0" class="grid"/>
<text x="64" y="245.0" text-anchor="end" class="lbl-l">62</text>
<line x1="70" y1="179.0" x2="617" y2="179.0" class="grid"/>
<text x="64" y="183.0" text-anchor="end" class="lbl-l">92</text>
<line x1="70" y1="117.0" x2="617" y2="117.0" class="grid"/>
<text x="64" y="121.0" text-anchor="end" class="lbl-l">123</text>
<line x1="70" y1="55.0" x2="617" y2="55.0" class="grid"/>
<text x="64" y="59.0" text-anchor="end" class="lbl-l">154</text>
<text x="623" y="369.0" text-anchor="start" class="lbl-r">0.0</text>
<text x="623" y="327.7" text-anchor="start" class="lbl-r">0.2</text>
<text x="623" y="286.3" text-anchor="start" class="lbl-r">0.4</text>
<text x="623" y="245.0" text-anchor="start" class="lbl-r">0.6</text>
<text x="623" y="203.7" text-anchor="start" class="lbl-r">0.8</text>
<text x="623" y="162.3" text-anchor="start" class="lbl-r">1.0</text>
<line x1="70.0" y1="55" x2="70.0" y2="365" class="grid"/>
<text x="70.0" y="381" text-anchor="middle" class="lbl">0.0</text>
<line x1="161.2" y1="55" x2="161.2" y2="365" class="grid"/>
<text x="161.2" y="381" text-anchor="middle" class="lbl">1.6</text>
<line x1="252.3" y1="55" x2="252.3" y2="365" class="grid"/>
<text x="252.3" y="381" text-anchor="middle" class="lbl">3.1</text>
<line x1="343.5" y1="55" x2="343.5" y2="365" class="grid"/>
<text x="343.5" y="381" text-anchor="middle" class="lbl">4.7</text>
<line x1="434.7" y1="55" x2="434.7" y2="365" class="grid"/>
<text x="434.7" y="381" text-anchor="middle" class="lbl">6.2</text>
<line x1="525.8" y1="55" x2="525.8" y2="365" class="grid"/>
<text x="525.8" y="381" text-anchor="middle" class="lbl">7.8</text>
<line x1="617.0" y1="55" x2="617.0" y2="365" class="grid"/>
<text x="617.0" y="381" text-anchor="middle" class="lbl">9.3</text>
<text x="343.5" y="408" text-anchor="middle" class="lbl">radius (kpc)</text>
<text x="16" y="210" text-anchor="middle" class="lbl-l" transform="rotate(-90, 16, 210)">velocity (km/s)</text>
<text x="874" y="210" text-anchor="middle" class="lbl-r" transform="rotate(-90, 874, 210)">mass profile (normalized to peak)</text>
<rect x="70" y="55" width="547" height="310" class="ax"/>
<path d="M 70.0,158.3 L 72.5,158.4 L 75.0,158.5 L 77.5,158.6 L 80.0,158.7 L 82.5,158.8 L 85.0,158.8 L 87.5,158.9 L 90.0,159.0 L 92.5,159.1 L 95.0,159.2 L 97.5,159.3 L 100.0,159.4 L 102.5,159.4 L 105.0,159.5 L 107.5,159.6 L 110.0,159.7 L 112.5,159.8 L 115.0,159.9 L 117.5,160.0 L 120.0,160.0 L 122.5,160.1 L 124.9,160.2 L 127.4,160.3 L 129.9,160.4 L 132.4,160.7 L 134.9,161.9 L 137.4,163.2 L 139.9,164.4 L 142.4,165.7 L 144.9,166.9 L 147.4,168.2 L 149.9,169.4 L 152.4,170.7 L 154.9,171.9 L 157.4,173.2 L 159.9,174.4 L 162.4,175.7 L 164.9,176.9 L 167.4,178.2 L 169.9,179.4 L 172.4,180.7 L 174.9,182.0 L 177.4,183.2 L 179.9,184.5 L 182.4,185.7 L 184.9,187.0 L 187.4,188.2 L 189.9,189.5 L 192.4,190.7 L 194.9,192.0 L 197.4,193.2 L 199.9,194.5 L 202.4,195.7 L 204.9,197.0 L 207.4,198.2 L 209.9,199.1 L 212.4,200.1 L 214.9,201.1 L 217.4,202.1 L 219.9,203.0 L 222.4,204.0 L 224.9,205.0 L 227.4,206.0 L 229.9,206.8 L 232.4,207.4 L 234.8,208.0 L 237.3,208.5 L 239.8,209.1 L 242.3,209.7 L 244.8,210.2 L 247.3,210.8 L 249.8,211.4 L 252.3,211.9 L 254.8,212.5 L 257.3,213.1 L 259.8,213.7 L 262.3,214.2 L 264.8,214.8 L 267.3,215.4 L 269.8,215.9 L 272.3,216.5 L 274.8,217.1 L 277.3,217.6 L 279.8,218.2 L 282.3,218.8 L 284.8,219.3 L 287.3,219.9 L 289.8,220.5 L 292.3,221.0 L 294.8,221.6 L 297.3,222.2 L 299.8,222.7 L 302.3,223.3 L 304.8,223.9 L 307.3,224.5 L 309.8,225.0 L 312.3,225.6 L 314.8,226.2 L 317.3,226.7 L 319.8,227.3 L 322.3,227.9 L 324.8,228.4 L 327.3,229.0 L 329.8,229.6 L 332.3,230.1 L 334.8,230.7 L 337.3,231.3 L 339.8,231.8 L 342.3,232.4 L 344.7,233.0 L 347.2,233.5 L 349.7,234.1 L 352.2,234.7 L 354.7,235.3 L 357.2,235.8 L 359.7,236.4 L 362.2,237.0 L 364.7,237.5 L 367.2,238.1 L 369.7,238.7 L 372.2,239.2 L 374.7,239.8 L 377.2,240.4 L 379.7,240.9 L 382.2,241.5 L 384.7,242.1 L 387.2,242.6 L 389.7,243.2 L 392.2,243.8 L 394.7,244.3 L 397.2,244.9 L 399.7,245.5 L 402.2,246.1 L 404.7,246.6 L 407.2,247.2 L 409.7,247.8 L 412.2,248.3 L 414.7,248.9 L 417.2,249.5 L 419.7,250.0 L 422.2,250.6 L 424.7,251.2 L 427.2,251.7 L 429.7,252.3 L 432.2,252.9 L 434.7,253.4 L 437.2,254.0 L 439.7,254.6 L 442.2,255.1 L 444.7,255.7 L 447.2,256.3 L 449.7,256.9 L 452.2,257.4 L 454.6,258.0 L 457.1,258.6 L 459.6,259.1 L 462.1,259.7 L 464.6,260.3 L 467.1,260.8 L 469.6,261.4 L 472.1,262.0 L 474.6,262.5 L 477.1,263.1 L 479.6,263.7 L 482.1,264.2 L 484.6,264.8 L 487.1,265.4 L 489.6,265.9 L 492.1,266.5 L 494.6,267.1 L 497.1,267.7 L 499.6,268.2 L 502.1,268.8 L 504.6,269.4 L 507.1,269.9 L 509.6,270.5 L 512.1,271.1 L 514.6,271.6 L 517.1,272.2 L 519.6,272.8 L 522.1,273.3 L 524.6,273.9 L 527.1,274.5 L 529.6,275.0 L 532.1,275.6 L 534.6,276.2 L 537.1,276.7 L 539.6,277.3 L 542.1,277.9 L 544.6,278.5 L 547.1,279.0 L 549.6,279.6 L 552.1,280.2 L 554.6,280.7 L 557.1,281.3 L 559.6,281.9 L 562.1,284.1 L 564.5,291.1 L 567.0,298.1 L 569.5,305.1 L 572.0,312.0 L 574.5,319.0 L 577.0,326.0 L 579.5,333.0 L 582.0,340.0 L 584.5,347.0 L 587.0,354.0 L 589.5,361.0 L 592.0,365.0 L 594.5,365.0 L 597.0,365.0 L 599.5,365.0 L 602.0,365.0 L 604.5,365.0 L 607.0,365.0 L 609.5,365.0 L 612.0,365.0 L 614.5,365.0 L 617.0,365.0" class="rho"/>
<path d="M 70.0,158.3 L 72.5,158.4 L 75.0,158.4 L 77.5,158.5 L 80.0,158.6 L 82.5,158.7 L 85.0,158.9 L 87.5,159.0 L 90.0,159.3 L 92.5,159.5 L 95.0,159.7 L 97.5,160.0 L 100.0,160.4 L 102.5,160.7 L 105.0,161.1 L 107.5,161.5 L 110.0,161.9 L 112.5,162.4 L 115.0,162.9 L 117.5,163.4 L 120.0,164.0 L 122.5,164.5 L 124.9,165.2 L 127.4,165.8 L 129.9,166.5 L 132.4,167.2 L 134.9,167.9 L 137.4,168.7 L 139.9,169.5 L 142.4,170.3 L 144.9,171.1 L 147.4,172.0 L 149.9,172.9 L 152.4,173.8 L 154.9,174.7 L 157.4,175.6 L 159.9,176.6 L 162.4,177.5 L 164.9,178.5 L 167.4,179.5 L 169.9,180.5 L 172.4,181.5 L 174.9,182.6 L 177.4,183.6 L 179.9,184.6 L 182.4,185.7 L 184.9,186.7 L 187.4,187.8 L 189.9,188.9 L 192.4,189.9 L 194.9,191.0 L 197.4,192.1 L 199.9,193.1 L 202.4,194.2 L 204.9,195.3 L 207.4,196.3 L 209.9,197.4 L 212.4,198.4 L 214.9,199.5 L 217.4,200.5 L 219.9,201.6 L 222.4,202.6 L 224.9,203.7 L 227.4,204.7 L 229.9,205.7 L 232.4,206.7 L 234.8,207.7 L 237.3,208.7 L 239.8,209.8 L 242.3,210.8 L 244.8,211.7 L 247.3,212.7 L 249.8,213.7 L 252.3,214.7 L 254.8,215.7 L 257.3,216.7 L 259.8,217.6 L 262.3,218.6 L 264.8,219.6 L 267.3,220.5 L 269.8,221.5 L 272.3,222.4 L 274.8,223.4 L 277.3,224.3 L 279.8,225.3 L 282.3,226.2 L 284.8,227.2 L 287.3,228.1 L 289.8,229.1 L 292.3,230.0 L 294.8,230.9 L 297.3,231.9 L 299.8,232.8 L 302.3,233.7 L 304.8,234.7 L 307.3,235.6 L 309.8,236.5 L 312.3,237.4 L 314.8,238.3 L 317.3,239.3 L 319.8,240.2 L 322.3,241.1 L 324.8,242.0 L 327.3,242.9 L 329.8,243.8 L 332.3,244.7 L 334.8,245.6 L 337.3,246.5 L 339.8,247.4 L 342.3,248.3 L 344.7,249.2 L 347.2,250.1 L 349.7,251.0 L 352.2,251.9 L 354.7,252.8 L 357.2,253.6 L 359.7,254.5 L 362.2,255.4 L 364.7,256.3 L 367.2,257.1 L 369.7,258.0 L 372.2,258.9 L 374.7,259.7 L 377.2,260.6 L 379.7,261.5 L 382.2,262.3 L 384.7,263.2 L 387.2,264.0 L 389.7,264.9 L 392.2,265.7 L 394.7,266.6 L 397.2,267.4 L 399.7,268.3 L 402.2,269.1 L 404.7,269.9 L 407.2,270.8 L 409.7,271.6 L 412.2,272.4 L 414.7,273.3 L 417.2,274.1 L 419.7,274.9 L 422.2,275.7 L 424.7,276.5 L 427.2,277.4 L 429.7,278.2 L 432.2,279.0 L 434.7,279.8 L 437.2,280.6 L 439.7,281.4 L 442.2,282.2 L 444.7,283.0 L 447.2,283.8 L 449.7,284.6 L 452.2,285.4 L 454.6,286.1 L 457.1,286.9 L 459.6,287.7 L 462.1,288.5 L 464.6,289.3 L 467.1,290.1 L 469.6,290.8 L 472.1,291.6 L 474.6,292.4 L 477.1,293.1 L 479.6,293.9 L 482.1,294.7 L 484.6,295.4 L 487.1,296.2 L 489.6,297.0 L 492.1,297.7 L 494.6,298.5 L 497.1,299.2 L 499.6,300.0 L 502.1,300.7 L 504.6,301.5 L 507.1,302.2 L 509.6,303.0 L 512.1,303.7 L 514.6,304.5 L 517.1,305.3 L 519.6,306.0 L 522.1,306.8 L 524.6,307.5 L 527.1,308.3 L 529.6,309.0 L 532.1,309.8 L 534.6,310.5 L 537.1,311.3 L 539.6,312.1 L 542.1,312.8 L 544.6,313.6 L 547.1,314.4 L 549.6,315.2 L 552.1,315.9 L 554.6,316.7 L 557.1,317.5 L 559.6,318.3 L 562.1,319.1 L 564.5,319.9 L 567.0,320.6 L 569.5,321.4 L 572.0,322.2 L 574.5,322.9 L 577.0,323.7 L 579.5,324.4 L 582.0,325.1 L 584.5,325.8 L 587.0,326.5 L 589.5,327.1 L 592.0,327.8 L 594.5,328.4 L 597.0,329.0 L 599.5,329.6 L 602.0,330.1 L 604.5,330.7 L 607.0,331.2 L 609.5,331.7 L 612.0,332.2 L 614.5,332.7 L 617.0,333.2" class="sig"/>
<path d="M 75.5,328.3 L 80.9,313.2 L 86.4,301.5 L 91.9,291.7 L 97.3,283.1 L 102.8,275.3 L 108.3,268.2 L 113.8,261.5 L 119.2,255.3 L 124.7,249.4 L 130.2,243.7 L 135.6,238.4 L 141.1,233.4 L 146.6,228.7 L 152.0,224.3 L 157.5,220.1 L 163.0,216.1 L 168.5,212.3 L 173.9,208.7 L 179.4,205.3 L 184.9,202.0 L 190.3,198.8 L 195.8,195.8 L 201.3,192.9 L 206.8,190.1 L 212.2,187.4 L 217.7,184.8 L 223.2,182.3 L 228.6,179.9 L 234.1,177.5 L 239.6,175.2 L 245.0,173.0 L 250.5,170.7 L 256.0,168.6 L 261.4,166.4 L 266.9,164.3 L 272.4,162.3 L 277.9,160.3 L 283.3,158.3 L 288.8,156.4 L 294.3,154.5 L 299.7,152.6 L 305.2,150.8 L 310.7,149.0 L 316.2,147.3 L 321.6,145.6 L 327.1,143.9 L 332.6,142.3 L 338.0,140.7 L 343.5,139.1 L 349.0,137.6 L 354.4,136.1 L 359.9,134.6 L 365.4,133.1 L 370.8,131.7 L 376.3,130.3 L 381.8,129.0 L 387.3,127.7 L 392.7,126.4 L 398.2,125.1 L 403.7,123.9 L 409.1,122.6 L 414.6,121.5 L 420.1,120.3 L 425.6,119.2 L 431.0,118.1 L 436.5,117.0 L 442.0,115.9 L 447.4,114.9 L 452.9,113.9 L 458.4,112.9 L 463.8,112.0 L 469.3,111.0 L 474.8,110.1 L 480.3,109.2 L 485.7,108.4 L 491.2,107.5 L 496.7,106.7 L 502.1,105.9 L 507.6,105.2 L 513.1,104.4 L 518.5,103.7 L 524.0,103.0 L 529.5,102.3 L 535.0,101.7 L 540.4,101.0 L 545.9,100.4 L 551.4,99.8 L 556.8,99.3 L 562.3,98.7 L 567.8,98.4 L 573.2,98.5 L 578.7,98.9 L 584.2,99.7 L 589.7,100.8 L 595.1,102.1 L 600.6,103.5 L 606.1,104.9 L 611.5,106.2 L 617.0,107.5" class="nt"/>
<path d="M 74.6,357.0 L 79.1,350.9 L 83.7,344.0 L 88.2,337.1 L 92.8,330.1 L 97.3,323.1 L 101.9,316.1 L 106.5,309.0 L 111.0,301.8 L 115.6,294.6 L 120.1,287.4 L 124.7,280.1 L 129.3,272.9 L 133.8,265.8 L 138.4,258.9 L 142.9,252.2 L 147.5,245.9 L 152.1,239.8 L 156.6,234.1 L 161.2,228.7 L 165.7,223.6 L 170.3,218.8 L 174.8,214.2 L 179.4,210.0 L 184.0,206.0 L 188.5,202.4 L 193.1,199.0 L 197.6,195.8 L 202.2,192.9 L 206.8,190.3 L 211.3,187.8 L 215.9,185.6 L 220.4,183.5 L 225.0,181.5 L 229.5,179.7 L 234.1,177.9 L 238.7,176.2 L 243.2,174.4 L 247.8,172.7 L 252.3,171.0 L 256.9,169.2 L 261.4,167.5 L 266.0,165.7 L 270.6,163.9 L 275.1,162.2 L 279.7,160.4 L 284.2,158.7 L 288.8,157.0 L 293.4,155.3 L 297.9,153.6 L 302.5,151.9 L 307.0,150.3 L 311.6,148.7 L 316.1,147.1 L 320.7,145.6 L 325.3,144.1 L 329.8,142.6 L 334.4,141.1 L 338.9,139.7 L 343.5,138.3 L 348.1,136.9 L 352.6,135.6 L 357.2,134.3 L 361.7,133.0 L 366.3,131.7 L 370.8,130.5 L 375.4,129.3 L 380.0,128.2 L 384.5,127.1 L 389.1,126.0 L 393.6,124.9 L 398.2,123.9 L 402.8,122.8 L 407.3,121.9 L 411.9,120.9 L 416.4,119.9 L 421.0,119.0 L 425.6,118.1 L 430.1,117.2 L 434.7,116.4 L 439.2,115.5 L 443.8,114.7 L 448.3,113.8 L 452.9,113.0 L 457.5,112.2 L 462.0,111.3 L 466.6,110.5 L 471.1,109.6 L 475.7,108.8 L 480.3,107.9 L 484.8,107.0 L 489.4,106.0 L 493.9,105.0 L 498.5,104.0 L 503.0,102.8 L 507.6,101.6 L 512.2,100.3 L 516.7,98.9 L 521.3,97.4 L 525.8,95.7 L 530.4,93.8 L 535.0,91.8 L 539.5,89.7 L 544.1,87.4 L 548.6,85.2 L 553.2,83.1 L 557.7,81.4 L 562.3,80.6 L 566.9,80.7 L 571.4,82.2 L 576.0,84.9 L 580.5,88.8 L 585.1,93.6 L 589.7,99.1 L 594.2,105.0 L 598.8,111.0 L 603.3,116.9 L 607.9,122.7 L 612.4,128.1 L 617.0,133.4" class="fw"/>
<line x1="120.92" y1="275.49" x2="120.92" y2="295.20" class="err"/>
<line x1="117.92" y1="275.49" x2="123.92" y2="275.49" class="err"/>
<line x1="117.92" y1="295.20" x2="123.92" y2="295.20" class="err"/>
<circle cx="120.92" cy="285.34" r="2.5" class="obs"/>
<line x1="171.83" y1="207.70" x2="171.83" y2="228.62" class="err"/>
<line x1="168.83" y1="207.70" x2="174.83" y2="207.70" class="err"/>
<line x1="168.83" y1="228.62" x2="174.83" y2="228.62" class="err"/>
<circle cx="171.83" cy="218.16" r="2.5" class="obs"/>
<line x1="222.75" y1="171.89" x2="222.75" y2="198.44" class="err"/>
<line x1="219.75" y1="171.89" x2="225.75" y2="171.89" class="err"/>
<line x1="219.75" y1="198.44" x2="225.75" y2="198.44" class="err"/>
<circle cx="222.75" cy="185.17" r="2.5" class="obs"/>
<line x1="274.83" y1="149.16" x2="274.83" y2="170.48" class="err"/>
<line x1="271.83" y1="149.16" x2="277.83" y2="149.16" class="err"/>
<line x1="271.83" y1="170.48" x2="277.83" y2="170.48" class="err"/>
<circle cx="274.83" cy="159.82" r="2.5" class="obs"/>
<line x1="325.75" y1="134.88" x2="325.75" y2="152.58" class="err"/>
<line x1="322.75" y1="134.88" x2="328.75" y2="134.88" class="err"/>
<line x1="322.75" y1="152.58" x2="328.75" y2="152.58" class="err"/>
<circle cx="325.75" cy="143.73" r="2.5" class="obs"/>
<line x1="376.66" y1="122.81" x2="376.66" y2="140.51" class="err"/>
<line x1="373.66" y1="122.81" x2="379.66" y2="122.81" class="err"/>
<line x1="373.66" y1="140.51" x2="379.66" y2="140.51" class="err"/>
<circle cx="376.66" cy="131.66" r="2.5" class="obs"/>
<line x1="427.58" y1="108.73" x2="427.58" y2="126.43" class="err"/>
<line x1="424.58" y1="108.73" x2="430.58" y2="108.73" class="err"/>
<line x1="424.58" y1="126.43" x2="430.58" y2="126.43" class="err"/>
<circle cx="427.58" cy="117.58" r="2.5" class="obs"/>
<line x1="478.49" y1="95.65" x2="478.49" y2="111.34" class="err"/>
<line x1="475.49" y1="95.65" x2="481.49" y2="95.65" class="err"/>
<line x1="475.49" y1="111.34" x2="481.49" y2="111.34" class="err"/>
<circle cx="478.49" cy="103.50" r="2.5" class="obs"/>
<line x1="529.41" y1="83.18" x2="529.41" y2="107.72" class="err"/>
<line x1="526.41" y1="83.18" x2="532.41" y2="83.18" class="err"/>
<line x1="526.41" y1="107.72" x2="532.41" y2="107.72" class="err"/>
<circle cx="529.41" cy="95.45" r="2.5" class="obs"/>
<line x1="580.32" y1="85.60" x2="580.32" y2="105.31" class="err"/>
<line x1="577.32" y1="85.60" x2="583.32" y2="85.60" class="err"/>
<line x1="577.32" y1="105.31" x2="583.32" y2="105.31" class="err"/>
<circle cx="580.32" cy="95.45" r="2.5" class="obs"/>
<g class="legend">
<line x1="82" y1="69" x2="106" y2="69" class="fw"/>
<text x="112" y="73" class="lbl-l">framework fit</text>
<line x1="82" y1="87" x2="106" y2="87" class="nt"/>
<text x="112" y="91" class="lbl-l">Newtonian (no halo)</text>
<circle cx="94" cy="105" r="2.5" class="obs"/>
<text x="112" y="109" class="lbl">observed V±err</text>
</g>
<g class="legend">
<line x1="442" y1="69" x2="466" y2="69" class="rho"/>
<text x="472" y="73" class="lbl-r">ρ(r) raw</text>
<line x1="442" y1="87" x2="466" y2="87" class="sig"/>
<text x="472" y="91" class="lbl-s">Σ(r) cumulative</text>
<text x="442" y="113" class="lbl-r">ρ peak: 263 M☉/pc²</text>
</g>
<rect x="705" y="55" width="170" height="170" class="preview-bg"/>
<defs><radialGradient id="g_NGC3972" cx="0.5" cy="0.5" r="0.5">
  <stop offset="0.0000" stop-color="rgb(108,108,108)"/>
  <stop offset="0.0313" stop-color="rgb(108,108,108)"/>
  <stop offset="0.0625" stop-color="rgb(108,108,108)"/>
  <stop offset="0.0938" stop-color="rgb(108,108,108)"/>
  <stop offset="0.1250" stop-color="rgb(107,107,107)"/>
  <stop offset="0.1563" stop-color="rgb(104,104,104)"/>
  <stop offset="0.1875" stop-color="rgb(101,101,101)"/>
  <stop offset="0.2188" stop-color="rgb(99,99,99)"/>
  <stop offset="0.2500" stop-color="rgb(96,96,96)"/>
  <stop offset="0.2813" stop-color="rgb(93,93,93)"/>
  <stop offset="0.3125" stop-color="rgb(91,91,91)"/>
  <stop offset="0.3438" stop-color="rgb(90,90,90)"/>
  <stop offset="0.3750" stop-color="rgb(89,89,89)"/>
  <stop offset="0.4063" stop-color="rgb(87,87,87)"/>
  <stop offset="0.4375" stop-color="rgb(86,86,86)"/>
  <stop offset="0.4688" stop-color="rgb(85,85,85)"/>
  <stop offset="0.5000" stop-color="rgb(84,84,84)"/>
  <stop offset="0.5313" stop-color="rgb(82,82,82)"/>
  <stop offset="0.5625" stop-color="rgb(81,81,81)"/>
  <stop offset="0.5938" stop-color="rgb(80,80,80)"/>
  <stop offset="0.6250" stop-color="rgb(78,78,78)"/>
  <stop offset="0.6563" stop-color="rgb(77,77,77)"/>
  <stop offset="0.6875" stop-color="rgb(76,76,76)"/>
  <stop offset="0.7188" stop-color="rgb(74,74,74)"/>
  <stop offset="0.7500" stop-color="rgb(73,73,73)"/>
  <stop offset="0.7813" stop-color="rgb(72,72,72)"/>
  <stop offset="0.8125" stop-color="rgb(71,71,71)"/>
  <stop offset="0.8438" stop-color="rgb(69,69,69)"/>
  <stop offset="0.8750" stop-color="rgb(68,68,68)"/>
  <stop offset="0.9063" stop-color="rgb(67,67,67)"/>
  <stop offset="0.9375" stop-color="rgb(65,65,65)"/>
  <stop offset="0.9688" stop-color="rgb(37,37,37)"/>
  <stop offset="1.0000" stop-color="rgb(0,0,0)"/>
</radialGradient></defs>
<circle cx="790" cy="140" r="81" fill="url(#g_NGC3972)"/>
<text x="790" y="49" text-anchor="middle" class="preview-lbl">face-on luminance from ρ(r)</text>
<text x="790" y="239" text-anchor="middle" class="preview-lbl">edge at r = 8.9 kpc</text>
</svg>