<svg xmlns="http://www.w3.org/2000/svg" viewBox="0 0 890 420" width="890" height="420" font-family="sans-serif" font-size="12">
<style>
  .ax { stroke: #333; stroke-width: 1; fill: none; }
  .grid { stroke: #ddd; stroke-width: 0.5; fill: none; }
  .lbl { fill: #333; }
  .lbl-l { fill: #0066cc; }
  .lbl-r { fill: #b03030; }
  .obs { fill: #222; }
  .err { stroke: #555; stroke-width: 0.8; fill: none; }
  .fw { stroke: #0066cc; stroke-width: 2.2; fill: none; }
  .nt { stroke: #cc6600; stroke-width: 1.6; fill: none; stroke-dasharray: 5,3; }
  .lbl-s { fill: #cc7000; }
  .rho { stroke: #b03030; stroke-width: 2.0; fill: none; }
  .sig { stroke: #cc7000; stroke-width: 1.8; fill: none; }
  .title { fill: #111; font-size: 16px; font-weight: 600; }
  .subtitle { fill: #555; font-size: 11px; }
  .preview-bg { fill: #000; }
  .preview-lbl { fill: #888; font-size: 10px; }
  .legend { font-size: 11px; }
</style>
<text x="343.5" y="22" text-anchor="middle" class="title">NGC3953</text>
<text x="343.5" y="38" text-anchor="middle" class="subtitle">rMax=15.7 kpc, N=8, RMS=1.3 km/s (0.6%), amp=105</text>
<line x1="70" y1="365.0" x2="617" y2="365.0" class="grid"/>
<text x="64" y="369.0" text-anchor="end" class="lbl-l">0</text>
<line x1="70" y1="303.0" x2="617" y2="303.0" class="grid"/>
<text x="64" y="307.0" text-anchor="end" class="lbl-l">52</text>
<line x1="70" y1="241.0" x2="617" y2="241.0" class="grid"/>
<text x="64" y="245.0" text-anchor="end" class="lbl-l">105</text>
<line x1="70" y1="179.0" x2="617" y2="179.0" class="grid"/>
<text x="64" y="183.0" text-anchor="end" class="lbl-l">157</text>
<line x1="70" y1="117.0" x2="617" y2="117.0" class="grid"/>
<text x="64" y="121.0" text-anchor="end" class="lbl-l">209</text>
<line x1="70" y1="55.0" x2="617" y2="55.0" class="grid"/>
<text x="64" y="59.0" text-anchor="end" class="lbl-l">261</text>
<text x="623" y="369.0" text-anchor="start" class="lbl-r">0.0</text>
<text x="623" y="327.7" text-anchor="start" class="lbl-r">0.2</text>
<text x="623" y="286.3" text-anchor="start" class="lbl-r">0.4</text>
<text x="623" y="245.0" text-anchor="start" class="lbl-r">0.6</text>
<text x="623" y="203.7" text-anchor="start" class="lbl-r">0.8</text>
<text x="623" y="162.3" text-anchor="start" class="lbl-r">1.0</text>
<line x1="70.0" y1="55" x2="70.0" y2="365" class="grid"/>
<text x="70.0" y="381" text-anchor="middle" class="lbl">0.0</text>
<line x1="161.2" y1="55" x2="161.2" y2="365" class="grid"/>
<text x="161.2" y="381" text-anchor="middle" class="lbl">2.7</text>
<line x1="252.3" y1="55" x2="252.3" y2="365" class="grid"/>
<text x="252.3" y="381" text-anchor="middle" class="lbl">5.5</text>
<line x1="343.5" y1="55" x2="343.5" y2="365" class="grid"/>
<text x="343.5" y="381" text-anchor="middle" class="lbl">8.2</text>
<line x1="434.7" y1="55" x2="434.7" y2="365" class="grid"/>
<text x="434.7" y="381" text-anchor="middle" class="lbl">11.0</text>
<line x1="525.8" y1="55" x2="525.8" y2="365" class="grid"/>
<text x="525.8" y="381" text-anchor="middle" class="lbl">13.7</text>
<line x1="617.0" y1="55" x2="617.0" y2="365" class="grid"/>
<text x="617.0" y="381" text-anchor="middle" class="lbl">16.5</text>
<text x="343.5" y="408" text-anchor="middle" class="lbl">radius (kpc)</text>
<text x="16" y="210" text-anchor="middle" class="lbl-l" transform="rotate(-90, 16, 210)">velocity (km/s)</text>
<text x="654" y="210" text-anchor="middle" class="lbl-r" transform="rotate(-90, 654, 210)">mass profile (normalized to peak)</text>
<rect x="70" y="55" width="547" height="310" class="ax"/>
<path d="M 70.0,158.3 L 72.5,158.3 L 75.0,158.3 L 77.5,158.3 L 80.0,158.3 L 82.5,158.3 L 85.0,158.3 L 87.5,158.3 L 90.0,158.3 L 92.5,158.3 L 95.0,158.3 L 97.5,158.3 L 100.0,158.3 L 102.5,158.3 L 105.0,158.3 L 107.5,158.3 L 110.0,158.3 L 112.5,158.3 L 115.0,158.3 L 117.5,158.3 L 120.0,161.5 L 122.5,167.7 L 124.9,174.0 L 127.4,180.2 L 129.9,186.5 L 132.4,192.7 L 134.9,199.0 L 137.4,205.2 L 139.9,211.5 L 142.4,217.7 L 144.9,223.9 L 147.4,230.2 L 149.9,231.1 L 152.4,231.8 L 154.9,232.6 L 157.4,233.3 L 159.9,234.1 L 162.4,234.8 L 164.9,235.5 L 167.4,236.3 L 169.9,237.0 L 172.4,237.8 L 174.9,238.5 L 177.4,239.3 L 179.9,240.0 L 182.4,240.8 L 184.9,241.5 L 187.4,242.3 L 189.9,243.0 L 192.4,243.8 L 194.9,244.5 L 197.4,245.2 L 199.9,246.0 L 202.4,246.7 L 204.9,247.5 L 207.4,248.2 L 209.9,249.0 L 212.4,249.7 L 214.9,250.5 L 217.4,251.2 L 219.9,252.0 L 222.4,252.7 L 224.9,253.4 L 227.4,254.2 L 229.9,254.9 L 232.4,255.7 L 234.8,256.4 L 237.3,257.2 L 239.8,257.9 L 242.3,258.7 L 244.8,259.4 L 247.3,260.2 L 249.8,260.9 L 252.3,261.7 L 254.8,262.4 L 257.3,263.1 L 259.8,263.9 L 262.3,264.6 L 264.8,265.4 L 267.3,266.1 L 269.8,266.9 L 272.3,267.6 L 274.8,268.4 L 277.3,269.1 L 279.8,269.9 L 282.3,270.6 L 284.8,271.4 L 287.3,272.1 L 289.8,272.8 L 292.3,273.6 L 294.8,274.3 L 297.3,275.1 L 299.8,275.8 L 302.3,276.6 L 304.8,277.3 L 307.3,278.1 L 309.8,278.6 L 312.3,279.1 L 314.8,279.5 L 317.3,279.9 L 319.8,280.4 L 322.3,280.8 L 324.8,281.3 L 327.3,281.7 L 329.8,282.1 L 332.3,282.6 L 334.8,283.0 L 337.3,283.5 L 339.8,283.9 L 342.3,284.3 L 344.7,284.8 L 347.2,285.2 L 349.7,285.6 L 352.2,286.1 L 354.7,286.5 L 357.2,287.0 L 359.7,287.4 L 362.2,287.8 L 364.7,288.3 L 367.2,288.7 L 369.7,289.1 L 372.2,289.6 L 374.7,290.0 L 377.2,290.5 L 379.7,290.9 L 382.2,291.3 L 384.7,291.8 L 387.2,292.2 L 389.7,292.7 L 392.2,293.1 L 394.7,293.5 L 397.2,294.0 L 399.7,294.4 L 402.2,294.8 L 404.7,295.3 L 407.2,295.7 L 409.7,296.2 L 412.2,296.6 L 414.7,297.0 L 417.2,297.5 L 419.7,297.9 L 422.2,298.4 L 424.7,298.8 L 427.2,299.2 L 429.7,299.7 L 432.2,300.1 L 434.7,300.5 L 437.2,301.0 L 439.7,301.4 L 442.2,301.9 L 444.7,302.3 L 447.2,302.7 L 449.7,303.2 L 452.2,303.6 L 454.6,304.1 L 457.1,304.5 L 459.6,304.9 L 462.1,305.4 L 464.6,305.8 L 467.1,306.2 L 469.6,306.7 L 472.1,307.1 L 474.6,307.6 L 477.1,308.0 L 479.6,308.4 L 482.1,308.9 L 484.6,309.3 L 487.1,309.8 L 489.6,310.2 L 492.1,310.6 L 494.6,311.1 L 497.1,311.5 L 499.6,311.9 L 502.1,312.4 L 504.6,312.8 L 507.1,313.3 L 509.6,313.7 L 512.1,314.1 L 514.6,314.6 L 517.1,315.0 L 519.6,315.5 L 522.1,315.9 L 524.6,316.3 L 527.1,316.8 L 529.6,317.2 L 532.1,317.6 L 534.6,318.1 L 537.1,318.5 L 539.6,319.0 L 542.1,319.4 L 544.6,319.8 L 547.1,320.3 L 549.6,320.7 L 552.1,321.1 L 554.6,321.6 L 557.1,322.0 L 559.6,322.5 L 562.1,322.9 L 564.5,323.3 L 567.0,323.8 L 569.5,324.2 L 572.0,324.7 L 574.5,325.1 L 577.0,327.7 L 579.5,334.4 L 582.0,341.1 L 584.5,347.8 L 587.0,354.5 L 589.5,361.2 L 592.0,365.0 L 594.5,365.0 L 597.0,365.0 L 599.5,365.0 L 602.0,365.0 L 604.5,365.0 L 607.0,365.0 L 609.5,365.0 L 612.0,365.0 L 614.5,365.0 L 617.0,365.0" class="rho"/>
<path d="M 70.0,158.3 L 72.5,158.4 L 75.0,158.6 L 77.5,158.7 L 80.0,159.0 L 82.5,159.3 L 85.0,159.8 L 87.5,160.3 L 90.0,160.8 L 92.5,161.5 L 95.0,162.2 L 97.5,163.0 L 100.0,163.9 L 102.5,164.9 L 105.0,165.9 L 107.5,167.1 L 110.0,168.3 L 112.5,169.6 L 115.0,170.9 L 117.5,172.4 L 120.0,173.9 L 122.5,175.5 L 124.9,177.1 L 127.4,178.7 L 129.9,180.4 L 132.4,182.1 L 134.9,183.8 L 137.4,185.6 L 139.9,187.3 L 142.4,189.0 L 144.9,190.7 L 147.4,192.4 L 149.9,194.0 L 152.4,195.6 L 154.9,197.2 L 157.4,198.7 L 159.9,200.2 L 162.4,201.7 L 164.9,203.2 L 167.4,204.6 L 169.9,206.0 L 172.4,207.4 L 174.9,208.7 L 177.4,210.1 L 179.9,211.4 L 182.4,212.7 L 184.9,213.9 L 187.4,215.2 L 189.9,216.5 L 192.4,217.7 L 194.9,218.9 L 197.4,220.1 L 199.9,221.3 L 202.4,222.5 L 204.9,223.7 L 207.4,224.8 L 209.9,226.0 L 212.4,227.1 L 214.9,228.3 L 217.4,229.4 L 219.9,230.5 L 222.4,231.6 L 224.9,232.8 L 227.4,233.9 L 229.9,235.0 L 232.4,236.0 L 234.8,237.1 L 237.3,238.2 L 239.8,239.3 L 242.3,240.3 L 244.8,241.4 L 247.3,242.4 L 249.8,243.5 L 252.3,244.5 L 254.8,245.5 L 257.3,246.6 L 259.8,247.6 L 262.3,248.6 L 264.8,249.6 L 267.3,250.6 L 269.8,251.6 L 272.3,252.6 L 274.8,253.5 L 277.3,254.5 L 279.8,255.5 L 282.3,256.4 L 284.8,257.4 L 287.3,258.3 L 289.8,259.3 L 292.3,260.2 L 294.8,261.1 L 297.3,262.0 L 299.8,263.0 L 302.3,263.9 L 304.8,264.7 L 307.3,265.6 L 309.8,266.5 L 312.3,267.4 L 314.8,268.2 L 317.3,269.1 L 319.8,269.9 L 322.3,270.8 L 324.8,271.6 L 327.3,272.4 L 329.8,273.3 L 332.3,274.1 L 334.8,274.9 L 337.3,275.7 L 339.8,276.5 L 342.3,277.3 L 344.7,278.0 L 347.2,278.8 L 349.7,279.6 L 352.2,280.4 L 354.7,281.1 L 357.2,281.9 L 359.7,282.6 L 362.2,283.4 L 364.7,284.1 L 367.2,284.8 L 369.7,285.6 L 372.2,286.3 L 374.7,287.0 L 377.2,287.7 L 379.7,288.4 L 382.2,289.1 L 384.7,289.9 L 387.2,290.5 L 389.7,291.2 L 392.2,291.9 L 394.7,292.6 L 397.2,293.3 L 399.7,294.0 L 402.2,294.6 L 404.7,295.3 L 407.2,296.0 L 409.7,296.6 L 412.2,297.3 L 414.7,297.9 L 417.2,298.6 L 419.7,299.2 L 422.2,299.9 L 424.7,300.5 L 427.2,301.1 L 429.7,301.8 L 432.2,302.4 L 434.7,303.0 L 437.2,303.6 L 439.7,304.2 L 442.2,304.8 L 444.7,305.4 L 447.2,306.0 L 449.7,306.6 L 452.2,307.2 L 454.6,307.8 L 457.1,308.4 L 459.6,309.0 L 462.1,309.6 L 464.6,310.1 L 467.1,310.7 L 469.6,311.3 L 472.1,311.8 L 474.6,312.4 L 477.1,312.9 L 479.6,313.5 L 482.1,314.0 L 484.6,314.6 L 487.1,315.1 L 489.6,315.7 L 492.1,316.2 L 494.6,316.7 L 497.1,317.2 L 499.6,317.8 L 502.1,318.3 L 504.6,318.8 L 507.1,319.3 L 509.6,319.8 L 512.1,320.3 L 514.6,320.8 L 517.1,321.3 L 519.6,321.8 L 522.1,322.3 L 524.6,322.8 L 527.1,323.3 L 529.6,323.8 L 532.1,324.3 L 534.6,324.8 L 537.1,325.3 L 539.6,325.7 L 542.1,326.2 L 544.6,326.7 L 547.1,327.1 L 549.6,327.6 L 552.1,328.1 L 554.6,328.5 L 557.1,329.0 L 559.6,329.5 L 562.1,329.9 L 564.5,330.4 L 567.0,330.8 L 569.5,331.3 L 572.0,331.7 L 574.5,332.2 L 577.0,332.6 L 579.5,333.1 L 582.0,333.5 L 584.5,333.9 L 587.0,334.3 L 589.5,334.7 L 592.0,335.1 L 594.5,335.5 L 597.0,335.9 L 599.5,336.3 L 602.0,336.7 L 604.5,337.0 L 607.0,337.4 L 609.5,337.7 L 612.0,338.0 L 614.5,338.4 L 617.0,338.7" class="sig"/>
<path d="M 75.5,315.2 L 80.9,294.6 L 86.4,278.8 L 91.9,265.4 L 97.3,253.7 L 102.8,243.0 L 108.3,233.3 L 113.8,224.2 L 119.2,215.6 L 124.7,208.2 L 130.2,201.9 L 135.6,196.8 L 141.1,192.5 L 146.6,189.1 L 152.1,186.1 L 157.5,183.1 L 163.0,180.1 L 168.5,177.1 L 173.9,174.2 L 179.4,171.2 L 184.9,168.4 L 190.3,165.5 L 195.8,162.8 L 201.3,160.1 L 206.8,157.4 L 212.2,154.9 L 217.7,152.3 L 223.2,149.9 L 228.6,147.5 L 234.1,145.2 L 239.6,143.0 L 245.0,140.8 L 250.5,138.7 L 256.0,136.7 L 261.4,134.7 L 266.9,132.8 L 272.4,130.9 L 277.9,129.1 L 283.3,127.4 L 288.8,125.7 L 294.3,124.1 L 299.7,122.5 L 305.2,121.0 L 310.7,119.6 L 316.1,118.2 L 321.6,116.8 L 327.1,115.4 L 332.6,114.1 L 338.0,112.8 L 343.5,111.5 L 349.0,110.2 L 354.4,109.0 L 359.9,107.8 L 365.4,106.6 L 370.8,105.5 L 376.3,104.4 L 381.8,103.3 L 387.3,102.2 L 392.7,101.1 L 398.2,100.1 L 403.7,99.1 L 409.1,98.2 L 414.6,97.3 L 420.1,96.3 L 425.6,95.5 L 431.0,94.6 L 436.5,93.8 L 442.0,93.0 L 447.4,92.2 L 452.9,91.5 L 458.4,90.8 L 463.8,90.1 L 469.3,89.4 L 474.8,88.8 L 480.3,88.1 L 485.7,87.6 L 491.2,87.0 L 496.7,86.5 L 502.1,86.0 L 507.6,85.5 L 513.1,85.0 L 518.5,84.6 L 524.0,84.2 L 529.5,83.8 L 535.0,83.4 L 540.4,83.1 L 545.9,82.8 L 551.4,82.5 L 556.8,82.3 L 562.3,82.1 L 567.8,81.9 L 573.2,81.7 L 578.7,81.6 L 584.2,82.0 L 589.7,83.1 L 595.1,84.5 L 600.6,86.0 L 606.1,87.4 L 611.5,88.9 L 617.0,90.2" class="nt"/>
<path d="M 74.6,348.9 L 79.1,336.5 L 83.7,322.6 L 88.2,308.3 L 92.8,294.0 L 97.3,279.5 L 101.9,264.9 L 106.5,250.4 L 111.0,236.1 L 115.6,222.4 L 120.1,209.5 L 124.7,197.7 L 129.3,187.7 L 133.8,179.3 L 138.4,172.7 L 142.9,167.8 L 147.5,164.2 L 152.1,161.7 L 156.6,159.9 L 161.2,158.4 L 165.7,157.0 L 170.3,155.6 L 174.8,154.2 L 179.4,152.6 L 184.0,150.8 L 188.5,149.0 L 193.1,147.1 L 197.6,145.1 L 202.2,143.0 L 206.8,140.9 L 211.3,138.9 L 215.9,136.8 L 220.4,134.7 L 225.0,132.6 L 229.5,130.6 L 234.1,128.6 L 238.7,126.6 L 243.2,124.8 L 247.8,123.0 L 252.3,121.2 L 256.9,119.6 L 261.4,118.0 L 266.0,116.5 L 270.6,115.2 L 275.1,113.9 L 279.7,112.7 L 284.2,111.7 L 288.8,110.8 L 293.4,110.0 L 297.9,109.3 L 302.5,108.7 L 307.0,108.3 L 311.6,107.8 L 316.1,107.5 L 320.7,107.1 L 325.3,106.7 L 329.8,106.4 L 334.4,106.0 L 338.9,105.6 L 343.5,105.1 L 348.1,104.7 L 352.6,104.3 L 357.2,103.9 L 361.7,103.4 L 366.3,103.0 L 370.8,102.6 L 375.4,102.2 L 380.0,101.8 L 384.5,101.4 L 389.1,101.1 L 393.6,100.7 L 398.2,100.4 L 402.8,100.1 L 407.3,99.8 L 411.9,99.6 L 416.4,99.3 L 421.0,99.1 L 425.6,98.9 L 430.1,98.8 L 434.7,98.6 L 439.2,98.5 L 443.8,98.4 L 448.3,98.4 L 452.9,98.3 L 457.5,98.3 L 462.0,98.3 L 466.6,98.3 L 471.1,98.4 L 475.7,98.5 L 480.3,98.5 L 484.8,98.6 L 489.4,98.7 L 493.9,98.8 L 498.5,99.0 L 503.0,99.1 L 507.6,99.2 L 512.2,99.3 L 516.7,99.4 L 521.3,99.5 L 525.8,99.6 L 530.4,99.6 L 535.0,99.6 L 539.5,99.5 L 544.1,99.4 L 548.6,99.2 L 553.2,99.0 L 557.7,98.8 L 562.3,98.6 L 566.9,98.7 L 571.4,99.1 L 576.0,100.1 L 580.5,101.8 L 585.1,104.2 L 589.6,107.4 L 594.2,111.1 L 598.8,115.2 L 603.3,119.4 L 607.9,123.6 L 612.4,127.7 L 617.0,131.7" class="fw"/>
<line x1="186.09" y1="141.39" x2="186.09" y2="159.18" class="err"/>
<line x1="183.09" y1="141.39" x2="189.09" y2="141.39" class="err"/>
<line x1="183.09" y1="159.18" x2="189.09" y2="159.18" class="err"/>
<circle cx="186.09" cy="150.29" r="2.5" class="obs"/>
<line x1="243.80" y1="116.48" x2="243.80" y2="131.90" class="err"/>
<line x1="240.80" y1="116.48" x2="246.80" y2="116.48" class="err"/>
<line x1="240.80" y1="131.90" x2="246.80" y2="131.90" class="err"/>
<circle cx="243.80" cy="124.19" r="2.5" class="obs"/>
<line x1="301.51" y1="102.13" x2="301.51" y2="115.41" class="err"/>
<line x1="298.51" y1="102.13" x2="304.51" y2="102.13" class="err"/>
<line x1="298.51" y1="115.41" x2="304.51" y2="115.41" class="err"/>
<circle cx="301.51" cy="108.77" r="2.5" class="obs"/>
<line x1="359.23" y1="93.23" x2="359.23" y2="107.70" class="err"/>
<line x1="356.23" y1="93.23" x2="362.23" y2="93.23" class="err"/>
<line x1="356.23" y1="107.70" x2="362.23" y2="107.70" class="err"/>
<circle cx="359.23" cy="100.46" r="2.5" class="obs"/>
<line x1="417.27" y1="92.63" x2="417.27" y2="105.92" class="err"/>
<line x1="414.27" y1="92.63" x2="420.27" y2="92.63" class="err"/>
<line x1="414.27" y1="105.92" x2="420.27" y2="105.92" class="err"/>
<circle cx="417.27" cy="99.28" r="2.5" class="obs"/>
<line x1="474.32" y1="93.23" x2="474.32" y2="107.70" class="err"/>
<line x1="471.32" y1="93.23" x2="477.32" y2="93.23" class="err"/>
<line x1="471.32" y1="107.70" x2="477.32" y2="107.70" class="err"/>
<circle cx="474.32" cy="100.46" r="2.5" class="obs"/>
<line x1="532.37" y1="92.04" x2="532.37" y2="106.51" class="err"/>
<line x1="529.37" y1="92.04" x2="535.37" y2="92.04" class="err"/>
<line x1="529.37" y1="106.51" x2="535.37" y2="106.51" class="err"/>
<circle cx="532.37" cy="99.28" r="2.5" class="obs"/>
<line x1="590.08" y1="98.45" x2="590.08" y2="121.46" class="err"/>
<line x1="587.08" y1="98.45" x2="593.08" y2="98.45" class="err"/>
<line x1="587.08" y1="121.46" x2="593.08" y2="121.46" class="err"/>
<circle cx="590.08" cy="109.95" r="2.5" class="obs"/>
<g class="legend">
<line x1="82" y1="69" x2="106" y2="69" class="fw"/>
<text x="112" y="73" class="lbl-l">framework fit</text>
<line x1="82" y1="87" x2="106" y2="87" class="nt"/>
<text x="112" y="91" class="lbl-l">Newtonian (no halo)</text>
<circle cx="94" cy="105" r="2.5" class="obs"/>
<text x="112" y="109" class="lbl">observed V±err</text>
</g>
<g class="legend">
<line x1="442" y1="69" x2="466" y2="69" class="rho"/>
<text x="472" y="73" class="lbl-r">ρ(r) raw</text>
<line x1="442" y1="87" x2="466" y2="87" class="sig"/>
<text x="472" y="91" class="lbl-s">Σ(r) cumulative</text>
<text x="442" y="113" class="lbl-r">ρ peak: 790 M☉/pc²</text>
</g>
<rect x="705" y="55" width="170" height="170" class="preview-bg"/>
<defs><radialGradient id="g_NGC3953" cx="0.5" cy="0.5" r="0.5">
  <stop offset="0.0000" stop-color="rgb(252,252,252)"/>
  <stop offset="0.0313" stop-color="rgb(252,252,252)"/>
  <stop offset="0.0625" stop-color="rgb(252,252,252)"/>
  <stop offset="0.0938" stop-color="rgb(252,252,252)"/>
  <stop offset="0.1250" stop-color="rgb(209,209,209)"/>
  <stop offset="0.1563" stop-color="rgb(176,176,176)"/>
  <stop offset="0.1875" stop-color="rgb(171,171,171)"/>
  <stop offset="0.2188" stop-color="rgb(166,166,166)"/>
  <stop offset="0.2500" stop-color="rgb(161,161,161)"/>
  <stop offset="0.2813" stop-color="rgb(156,156,156)"/>
  <stop offset="0.3125" stop-color="rgb(151,151,151)"/>
  <stop offset="0.3438" stop-color="rgb(145,145,145)"/>
  <stop offset="0.3750" stop-color="rgb(140,140,140)"/>
  <stop offset="0.4063" stop-color="rgb(135,135,135)"/>
  <stop offset="0.4375" stop-color="rgb(130,130,130)"/>
  <stop offset="0.4688" stop-color="rgb(126,126,126)"/>
  <stop offset="0.5000" stop-color="rgb(123,123,123)"/>
  <stop offset="0.5313" stop-color="rgb(120,120,120)"/>
  <stop offset="0.5625" stop-color="rgb(117,117,117)"/>
  <stop offset="0.5938" stop-color="rgb(114,114,114)"/>
  <stop offset="0.6250" stop-color="rgb(111,111,111)"/>
  <stop offset="0.6563" stop-color="rgb(108,108,108)"/>
  <stop offset="0.6875" stop-color="rgb(105,105,105)"/>
  <stop offset="0.7188" stop-color="rgb(102,102,102)"/>
  <stop offset="0.7500" stop-color="rgb(99,99,99)"/>
  <stop offset="0.7813" stop-color="rgb(96,96,96)"/>
  <stop offset="0.8125" stop-color="rgb(93,93,93)"/>
  <stop offset="0.8438" stop-color="rgb(90,90,90)"/>
  <stop offset="0.8750" stop-color="rgb(87,87,87)"/>
  <stop offset="0.9063" stop-color="rgb(84,84,84)"/>
  <stop offset="0.9375" stop-color="rgb(81,81,81)"/>
  <stop offset="0.9688" stop-color="rgb(78,78,78)"/>
  <stop offset="1.0000" stop-color="rgb(0,0,0)"/>
</radialGradient></defs>
<circle cx="790" cy="140" r="81" fill="url(#g_NGC3953)"/>
<text x="790" y="49" text-anchor="middle" class="preview-lbl">face-on luminance from ρ(r)</text>
<text x="790" y="239" text-anchor="middle" class="preview-lbl">edge at r = 15.7 kpc</text>
</svg>