<svg xmlns="http://www.w3.org/2000/svg" viewBox="0 0 960 450" width="960" height="450" font-family="sans-serif" font-size="12">
<style>
  .ax { stroke: #333; stroke-width: 1; fill: none; }
  .grid { stroke: #ddd; stroke-width: 0.5; fill: none; }
  .lbl { fill: #333; }
  .lbl-l { fill: #0066cc; }
  .lbl-r { fill: #b03030; }
  .obs { fill: #222; }
  .err { stroke: #555; stroke-width: 0.8; fill: none; }
  .fw { stroke: #0066cc; stroke-width: 2.2; fill: none; }
  .nt { stroke: #cc6600; stroke-width: 1.6; fill: none; stroke-dasharray: 5,3; }
  .mond { stroke: #7b2cbf; stroke-width: 1.8; fill: none; stroke-dasharray: 7,3; }
  .lbl-p { fill: #cc7000; }
  .lbl-m { fill: #7b2cbf; }
  .rho { stroke: #b03030; stroke-width: 2.0; fill: none; }
  .phot { stroke: #cc7000; stroke-width: 1.8; fill: none; }
  .mbar { stroke: #8e44ad; stroke-width: 1.8; fill: none; opacity: 0.9; }
  .mph { stroke: #c77dff; stroke-width: 1.6; fill: none; stroke-dasharray: 4,3; opacity: 0.95; }
  .remap-x { stroke: #cc2222; stroke-width: 1.5; fill: none; }
  .remap-link { stroke: #cc2222; stroke-width: 0.8; stroke-dasharray: 3,3; fill: none; opacity: 0.7; }
  .title { fill: #111; font-size: 16px; font-weight: 600; }
  .subtitle { fill: #555; font-size: 11px; }
  .preview-bg { fill: #000; }
  .preview-lbl { fill: #888; font-size: 10px; }
  .legend { font-size: 11px; }
</style>
<text x="378.5" y="22" text-anchor="middle" class="title">NGC3726</text>
<text x="378.5" y="38" text-anchor="middle" class="subtitle">rMax=32.5 kpc, N=12, FW=4.3 km/s, 2.8%, 0.59σ, MOND=25.5 km/s, 18.0%, 5.00σ, amp=104</text>
<line x1="70" y1="395.0" x2="687" y2="395.0" class="grid"/>
<text x="64" y="399.0" text-anchor="end" class="lbl-l">0</text>
<line x1="70" y1="327.0" x2="687" y2="327.0" class="grid"/>
<text x="64" y="331.0" text-anchor="end" class="lbl-l">42</text>
<line x1="70" y1="259.0" x2="687" y2="259.0" class="grid"/>
<text x="64" y="263.0" text-anchor="end" class="lbl-l">84</text>
<line x1="70" y1="191.0" x2="687" y2="191.0" class="grid"/>
<text x="64" y="195.0" text-anchor="end" class="lbl-l">127</text>
<line x1="70" y1="123.0" x2="687" y2="123.0" class="grid"/>
<text x="64" y="127.0" text-anchor="end" class="lbl-l">169</text>
<line x1="70" y1="55.0" x2="687" y2="55.0" class="grid"/>
<text x="64" y="59.0" text-anchor="end" class="lbl-l">211</text>
<text x="693" y="399.0" text-anchor="start" class="lbl-r">0.0</text>
<text x="693" y="353.7" text-anchor="start" class="lbl-r">0.2</text>
<text x="693" y="308.3" text-anchor="start" class="lbl-r">0.4</text>
<text x="693" y="263.0" text-anchor="start" class="lbl-r">0.6</text>
<text x="693" y="217.7" text-anchor="start" class="lbl-r">0.8</text>
<text x="693" y="172.3" text-anchor="start" class="lbl-r">1.0</text>
<line x1="70.0" y1="55" x2="70.0" y2="395" class="grid"/>
<text x="70.0" y="411" text-anchor="middle" class="lbl">0.0</text>
<line x1="172.8" y1="55" x2="172.8" y2="395" class="grid"/>
<text x="172.8" y="411" text-anchor="middle" class="lbl">5.7</text>
<line x1="275.7" y1="55" x2="275.7" y2="395" class="grid"/>
<text x="275.7" y="411" text-anchor="middle" class="lbl">11.4</text>
<line x1="378.5" y1="55" x2="378.5" y2="395" class="grid"/>
<text x="378.5" y="411" text-anchor="middle" class="lbl">17.1</text>
<line x1="481.3" y1="55" x2="481.3" y2="395" class="grid"/>
<text x="481.3" y="411" text-anchor="middle" class="lbl">22.8</text>
<line x1="584.2" y1="55" x2="584.2" y2="395" class="grid"/>
<text x="584.2" y="411" text-anchor="middle" class="lbl">28.5</text>
<line x1="687.0" y1="55" x2="687.0" y2="395" class="grid"/>
<text x="687.0" y="411" text-anchor="middle" class="lbl">34.1</text>
<text x="378.5" y="438" text-anchor="middle" class="lbl">radius (kpc)</text>
<text x="16" y="225" text-anchor="middle" class="lbl-l" transform="rotate(-90, 16, 225)">velocity (km/s)</text>
<text x="724" y="225" text-anchor="middle" class="lbl-r" transform="rotate(-90, 724, 225)">profiles (normalized to peak)</text>
<rect x="70" y="55" width="617" height="340" class="ax"/>
<path d="M 70.0,168.3 L 72.8,172.4 L 75.6,176.5 L 78.5,180.6 L 81.3,184.7 L 84.1,188.8 L 86.9,192.9 L 89.7,197.0 L 92.5,201.1 L 95.4,205.2 L 98.2,209.3 L 101.0,213.4 L 103.8,217.5 L 106.6,221.6 L 109.4,225.7 L 112.3,229.8 L 115.1,233.9 L 117.9,238.0 L 120.7,242.1 L 123.5,246.2 L 126.3,250.3 L 129.2,254.4 L 132.0,258.5 L 134.8,262.6 L 137.6,266.7 L 140.4,268.1 L 143.3,268.2 L 146.1,268.2 L 148.9,268.2 L 151.7,268.2 L 154.5,268.2 L 157.3,268.3 L 160.2,268.3 L 163.0,268.3 L 165.8,268.3 L 168.6,268.4 L 171.4,268.4 L 174.2,268.4 L 177.1,268.4 L 179.9,268.5 L 182.7,268.5 L 185.5,268.5 L 188.3,268.5 L 191.1,268.5 L 194.0,270.1 L 196.8,272.3 L 199.6,274.4 L 202.4,276.6 L 205.2,278.7 L 208.1,280.9 L 210.9,283.0 L 213.7,285.2 L 216.5,287.4 L 219.3,289.5 L 222.1,291.7 L 225.0,293.8 L 227.8,296.0 L 230.6,298.2 L 233.4,300.3 L 236.2,302.5 L 239.0,304.6 L 241.9,306.8 L 244.7,308.9 L 247.5,311.1 L 250.3,313.3 L 253.1,315.4 L 255.9,317.6 L 258.8,318.6 L 261.6,318.8 L 264.4,319.1 L 267.2,319.3 L 270.0,319.5 L 272.8,319.8 L 275.7,320.0 L 278.5,320.2 L 281.3,320.5 L 284.1,320.7 L 286.9,321.0 L 289.8,321.2 L 292.6,321.4 L 295.4,321.7 L 298.2,321.9 L 301.0,322.1 L 303.8,322.4 L 306.7,322.6 L 309.5,322.8 L 312.3,323.1 L 315.1,323.3 L 317.9,323.5 L 320.7,323.8 L 323.6,324.0 L 326.4,324.2 L 329.2,324.5 L 332.0,324.7 L 334.8,324.9 L 337.6,325.2 L 340.5,325.4 L 343.3,325.6 L 346.1,325.9 L 348.9,326.1 L 351.7,326.3 L 354.6,326.6 L 357.4,326.8 L 360.2,327.0 L 363.0,327.3 L 365.8,327.5 L 368.6,327.8 L 371.5,328.0 L 374.3,328.2 L 377.1,328.5 L 379.9,328.7 L 382.7,328.9 L 385.5,329.2 L 388.4,329.4 L 391.2,329.6 L 394.0,329.9 L 396.8,330.1 L 399.6,330.3 L 402.4,330.6 L 405.3,330.8 L 408.1,331.0 L 410.9,331.3 L 413.7,331.5 L 416.5,331.7 L 419.4,332.0 L 422.2,332.2 L 425.0,332.4 L 427.8,332.7 L 430.6,332.9 L 433.4,333.1 L 436.3,333.4 L 439.1,333.6 L 441.9,333.9 L 444.7,334.1 L 447.5,334.3 L 450.3,334.6 L 453.2,334.8 L 456.0,335.0 L 458.8,335.3 L 461.6,335.5 L 464.4,335.7 L 467.2,336.0 L 470.1,336.2 L 472.9,336.4 L 475.7,336.7 L 478.5,336.9 L 481.3,337.1 L 484.2,337.4 L 487.0,337.6 L 489.8,337.8 L 492.6,338.1 L 495.4,338.3 L 498.2,338.5 L 501.1,338.8 L 503.9,339.0 L 506.7,339.2 L 509.5,339.5 L 512.3,339.7 L 515.1,340.0 L 518.0,340.2 L 520.8,340.4 L 523.6,340.7 L 526.4,340.9 L 529.2,341.1 L 532.0,341.4 L 534.9,341.6 L 537.7,341.8 L 540.5,342.1 L 543.3,342.3 L 546.1,342.5 L 548.9,342.8 L 551.8,343.0 L 554.6,343.2 L 557.4,343.5 L 560.2,343.7 L 563.0,343.9 L 565.9,344.2 L 568.7,344.4 L 571.5,344.6 L 574.3,344.9 L 577.1,345.1 L 579.9,345.3 L 582.8,345.6 L 585.6,345.8 L 588.4,346.0 L 591.2,346.3 L 594.0,346.5 L 596.8,346.8 L 599.7,347.0 L 602.5,347.6 L 605.3,350.0 L 608.1,352.4 L 610.9,354.8 L 613.7,357.3 L 616.6,359.7 L 619.4,362.1 L 622.2,364.5 L 625.0,367.0 L 627.8,369.4 L 630.7,371.8 L 633.5,374.2 L 636.3,376.7 L 639.1,379.1 L 641.9,381.5 L 644.7,383.9 L 647.6,386.3 L 650.4,388.8 L 653.2,391.2 L 656.0,393.6 L 658.8,395.0 L 661.6,395.0 L 664.5,395.0 L 667.3,395.0 L 670.1,395.0 L 672.9,395.0 L 675.7,395.0 L 678.5,395.0 L 681.4,395.0 L 684.2,395.0 L 687.0,395.0" class="rho"/>
<path d="M 133.2,168.3 L 164.7,271.5 L 196.1,298.7 L 227.6,354.1 L 259.2,369.1 L 290.3,378.5 L 321.9,385.4 L 359.7,390.9 L 472.9,394.1 L 567.3,394.8 L 613.5,394.9 L 657.6,395.0" class="phot"/>
<path d="M 133.2,168.3 L 164.7,192.1 L 196.1,230.8 L 227.6,281.5 L 259.2,332.2 L 290.3,354.5 L 321.9,360.7 L 359.7,375.4 L 472.9,389.8 L 567.3,394.7 L 613.5,395.0 L 657.6,395.0" class="mbar"/>
<path d="M 133.2,168.3 L 164.7,174.9 L 196.1,187.0 L 227.6,206.8 L 259.2,231.8 L 290.3,248.4 L 321.9,259.6 L 359.7,279.9 L 472.9,307.9 L 567.3,330.7 L 613.5,341.9 L 657.6,345.4" class="mph"/>
<path d="M 76.2,334.7 L 82.3,310.9 L 88.5,293.4 L 94.7,279.4 L 100.8,267.7 L 107.0,257.6 L 113.2,249.0 L 119.4,241.4 L 125.5,234.9 L 131.7,229.2 L 137.9,224.2 L 144.0,219.7 L 150.2,215.0 L 156.4,210.3 L 162.6,205.6 L 168.7,200.9 L 174.9,196.2 L 181.1,191.6 L 187.2,187.0 L 193.4,182.5 L 199.6,178.3 L 205.7,174.4 L 211.9,171.0 L 218.1,167.8 L 224.3,165.0 L 230.4,162.4 L 236.6,160.2 L 242.8,158.2 L 248.9,156.4 L 255.1,155.0 L 261.3,153.7 L 267.4,152.3 L 273.6,151.0 L 279.8,149.6 L 286.0,148.1 L 292.1,146.7 L 298.3,145.3 L 304.5,143.8 L 310.6,142.4 L 316.8,140.9 L 323.0,139.4 L 329.1,138.0 L 335.3,136.5 L 341.5,135.0 L 347.7,133.6 L 353.8,132.1 L 360.0,130.7 L 366.2,129.3 L 372.3,127.9 L 378.5,126.5 L 384.7,125.1 L 390.8,123.7 L 397.0,122.4 L 403.2,121.0 L 409.4,119.7 L 415.5,118.4 L 421.7,117.1 L 427.9,115.8 L 434.0,114.5 L 440.2,113.3 L 446.4,112.1 L 452.5,110.8 L 458.7,109.6 L 464.9,108.5 L 471.1,107.3 L 477.2,106.2 L 483.4,105.0 L 489.6,103.9 L 495.7,102.8 L 501.9,101.8 L 508.1,100.7 L 514.2,99.7 L 520.4,98.7 L 526.6,97.7 L 532.8,96.7 L 538.9,95.7 L 545.1,94.8 L 551.3,93.8 L 557.4,92.9 L 563.6,92.0 L 569.8,91.2 L 575.9,90.3 L 582.1,89.5 L 588.3,88.7 L 594.4,87.9 L 600.6,87.1 L 606.8,86.4 L 613.0,85.9 L 619.1,85.8 L 625.3,85.9 L 631.5,86.3 L 637.6,86.9 L 643.8,87.8 L 650.0,88.9 L 656.2,90.3 L 662.3,91.9 L 668.5,93.5 L 674.7,95.0 L 680.8,96.5 L 687.0,98.0" class="nt"/>
<path d="M 133.2,187.7 L 164.7,146.6 L 196.1,119.6 L 227.6,101.3 L 259.2,98.9 L 290.3,95.6 L 321.9,90.4 L 359.7,89.4 L 472.9,97.7 L 567.3,105.6 L 613.5,108.4 L 657.6,110.2" class="mond"/>
<path d="M 75.1,372.1 L 80.3,355.1 L 85.4,336.8 L 90.6,319.2 L 95.7,302.9 L 100.8,288.1 L 106.0,274.6 L 111.1,262.7 L 116.3,252.3 L 121.4,243.4 L 126.6,235.9 L 131.7,229.6 L 136.8,224.3 L 142.0,219.8 L 147.1,215.5 L 152.3,211.3 L 157.4,206.8 L 162.6,201.8 L 167.7,196.3 L 172.8,190.2 L 178.0,183.7 L 183.1,176.8 L 188.3,169.6 L 193.4,162.5 L 198.5,155.7 L 203.7,149.4 L 208.8,143.7 L 214.0,138.9 L 219.1,134.8 L 224.3,131.6 L 229.4,129.2 L 234.5,127.7 L 239.7,127.0 L 244.8,127.1 L 250.0,127.9 L 255.1,129.2 L 260.2,131.0 L 265.4,133.0 L 270.5,135.1 L 275.7,137.2 L 280.8,139.1 L 285.9,140.9 L 291.1,142.5 L 296.2,143.9 L 301.4,145.1 L 306.5,146.2 L 311.7,147.1 L 316.8,147.9 L 321.9,148.6 L 327.1,149.2 L 332.2,149.7 L 337.4,150.1 L 342.5,150.4 L 347.7,150.7 L 352.8,150.8 L 357.9,151.0 L 363.1,151.0 L 368.2,151.0 L 373.4,151.0 L 378.5,150.9 L 383.6,150.8 L 388.8,150.6 L 393.9,150.4 L 399.1,150.2 L 404.2,150.0 L 409.4,149.7 L 414.5,149.4 L 419.6,149.1 L 424.8,148.7 L 429.9,148.3 L 435.1,147.9 L 440.2,147.5 L 445.3,147.0 L 450.5,146.6 L 455.6,146.1 L 460.8,145.5 L 465.9,145.0 L 471.1,144.4 L 476.2,143.8 L 481.3,143.2 L 486.5,142.5 L 491.6,141.8 L 496.8,141.1 L 501.9,140.3 L 507.0,139.4 L 512.2,138.5 L 517.3,137.6 L 522.5,136.6 L 527.6,135.5 L 532.8,134.3 L 537.9,133.1 L 543.0,131.7 L 548.2,130.3 L 553.3,128.7 L 558.5,127.0 L 563.6,125.1 L 568.7,123.0 L 573.9,120.8 L 579.0,118.5 L 584.2,116.0 L 589.3,113.5 L 594.4,111.1 L 599.6,109.0 L 604.7,107.4 L 609.9,106.5 L 615.0,106.6 L 620.2,107.5 L 625.3,109.5 L 630.4,112.4 L 635.6,116.1 L 640.7,120.4 L 645.9,125.1 L 651.0,130.2 L 656.1,135.3 L 661.3,140.5 L 666.4,145.6 L 671.6,150.5 L 676.7,155.2 L 681.9,159.6 L 687.0,163.9" class="fw"/>
<line x1="133.24" y1="219.51" x2="133.24" y2="242.05" class="err"/>
<line x1="130.24" y1="219.51" x2="136.24" y2="219.51" class="err"/>
<line x1="130.24" y1="242.05" x2="136.24" y2="242.05" class="err"/>
<circle cx="133.24" cy="230.78" r="2.5" class="obs"/>
<line x1="164.68" y1="183.92" x2="164.68" y2="203.57" class="err"/>
<line x1="161.68" y1="183.92" x2="167.68" y2="183.92" class="err"/>
<line x1="161.68" y1="203.57" x2="167.68" y2="203.57" class="err"/>
<circle cx="164.68" cy="193.75" r="2.5" class="obs"/>
<line x1="196.12" y1="153.66" x2="196.12" y2="169.43" class="err"/>
<line x1="193.12" y1="153.66" x2="199.12" y2="153.66" class="err"/>
<line x1="193.12" y1="169.43" x2="199.12" y2="169.43" class="err"/>
<circle cx="196.12" cy="161.54" r="2.5" class="obs"/>
<line x1="227.57" y1="124.67" x2="227.57" y2="137.23" class="err"/>
<line x1="224.57" y1="124.67" x2="230.57" y2="124.67" class="err"/>
<line x1="224.57" y1="137.23" x2="230.57" y2="137.23" class="err"/>
<circle cx="227.57" cy="130.95" r="2.5" class="obs"/>
<line x1="259.19" y1="126.45" x2="259.19" y2="141.90" class="err"/>
<line x1="256.19" y1="126.45" x2="262.19" y2="126.45" class="err"/>
<line x1="256.19" y1="141.90" x2="262.19" y2="141.90" class="err"/>
<circle cx="259.19" cy="134.17" r="2.5" class="obs"/>
<line x1="290.27" y1="129.67" x2="290.27" y2="145.12" class="err"/>
<line x1="287.27" y1="129.67" x2="293.27" y2="129.67" class="err"/>
<line x1="287.27" y1="145.12" x2="293.27" y2="145.12" class="err"/>
<circle cx="290.27" cy="137.39" r="2.5" class="obs"/>
<line x1="321.89" y1="136.11" x2="321.89" y2="151.56" class="err"/>
<line x1="318.89" y1="136.11" x2="324.89" y2="136.11" class="err"/>
<line x1="318.89" y1="151.56" x2="324.89" y2="151.56" class="err"/>
<circle cx="321.89" cy="143.83" r="2.5" class="obs"/>
<line x1="359.65" y1="152.13" x2="359.65" y2="167.74" class="err"/>
<line x1="356.65" y1="152.13" x2="362.65" y2="152.13" class="err"/>
<line x1="356.65" y1="167.74" x2="362.65" y2="167.74" class="err"/>
<circle cx="359.65" cy="159.93" r="2.5" class="obs"/>
<line x1="472.95" y1="132.72" x2="472.95" y2="148.50" class="err"/>
<line x1="469.95" y1="132.72" x2="475.95" y2="132.72" class="err"/>
<line x1="469.95" y1="148.50" x2="475.95" y2="148.50" class="err"/>
<circle cx="472.95" cy="140.61" r="2.5" class="obs"/>
<line x1="567.27" y1="107.45" x2="567.27" y2="141.58" class="err"/>
<line x1="564.27" y1="107.45" x2="570.27" y2="107.45" class="err"/>
<line x1="564.27" y1="141.58" x2="570.27" y2="141.58" class="err"/>
<circle cx="567.27" cy="124.51" r="2.5" class="obs"/>
<line x1="613.53" y1="105.84" x2="613.53" y2="139.97" class="err"/>
<line x1="610.53" y1="105.84" x2="616.53" y2="105.84" class="err"/>
<line x1="610.53" y1="139.97" x2="616.53" y2="139.97" class="err"/>
<circle cx="613.53" cy="122.90" r="2.5" class="obs"/>
<line x1="657.62" y1="101.65" x2="657.62" y2="150.60" class="err"/>
<line x1="654.62" y1="101.65" x2="660.62" y2="101.65" class="err"/>
<line x1="654.62" y1="150.60" x2="660.62" y2="150.60" class="err"/>
<circle cx="657.62" cy="126.12" r="2.5" class="obs"/>
<g class="legend">
<line x1="82" y1="69" x2="106" y2="69" class="fw"/>
<text x="112" y="73" class="lbl-l">framework: 4.3 km/s, 2.8%, 0.59σ</text>
<line x1="82" y1="87" x2="106" y2="87" class="nt"/>
<text x="112" y="91" class="lbl-l">Newtonian: 15.8 km/s, 9.8%, 2.66σ</text>
<line x1="82" y1="105" x2="106" y2="105" class="mond"/>
<text x="112" y="109" class="lbl-m">MOND/RAR: 25.5 km/s, 18.0%, 5.00σ</text>
<circle cx="94" cy="123" r="2.5" class="obs"/>
<text x="112" y="127" class="lbl">observed V±err</text>
</g>
<g class="legend">
<line x1="472" y1="69" x2="496" y2="69" class="rho"/>
<text x="502" y="73" class="lbl-r">ρ(r) raw</text>
<line x1="472" y1="87" x2="496" y2="87" class="phot"/>
<text x="502" y="91" class="lbl-p">photometric baryonic profile</text>
<line x1="472" y1="105" x2="496" y2="105" class="mbar"/>
<text x="502" y="109" class="lbl-m">MOND baryonic annulus</text>
<line x1="472" y1="123" x2="496" y2="123" class="mph"/>
<text x="502" y="127" class="lbl-m">MOND phantom annulus</text>
<text x="472" y="147" class="lbl-r">ρ peak: 312 M☉/pc²</text>
<text x="472" y="163" class="lbl-p">phot peak: 183.97 (arb.)</text>
<text x="472" y="179" class="lbl-m">Σbar peak: 196.55 M☉/pc²</text>
<text x="472" y="195" class="lbl-m">Σphantom peak: 147.49 M☉/pc²</text>
</g>
<rect x="775" y="55" width="170" height="170" class="preview-bg"/>
<defs><radialGradient id="g_NGC3726" cx="0.5" cy="0.5" r="0.5">
  <stop offset="0.0000" stop-color="rgb(122,122,122)"/>
  <stop offset="0.0313" stop-color="rgb(112,112,112)"/>
  <stop offset="0.0625" stop-color="rgb(102,102,102)"/>
  <stop offset="0.0938" stop-color="rgb(92,92,92)"/>
  <stop offset="0.1250" stop-color="rgb(84,84,84)"/>
  <stop offset="0.1563" stop-color="rgb(84,84,84)"/>
  <stop offset="0.1875" stop-color="rgb(84,84,84)"/>
  <stop offset="0.2188" stop-color="rgb(82,82,82)"/>
  <stop offset="0.2500" stop-color="rgb(77,77,77)"/>
  <stop offset="0.2813" stop-color="rgb(72,72,72)"/>
  <stop offset="0.3125" stop-color="rgb(66,66,66)"/>
  <stop offset="0.3438" stop-color="rgb(65,65,65)"/>
  <stop offset="0.3750" stop-color="rgb(64,64,64)"/>
  <stop offset="0.4063" stop-color="rgb(63,63,63)"/>
  <stop offset="0.4375" stop-color="rgb(62,62,62)"/>
  <stop offset="0.4688" stop-color="rgb(61,61,61)"/>
  <stop offset="0.5000" stop-color="rgb(59,59,59)"/>
  <stop offset="0.5313" stop-color="rgb(58,58,58)"/>
  <stop offset="0.5625" stop-color="rgb(57,57,57)"/>
  <stop offset="0.5938" stop-color="rgb(55,55,55)"/>
  <stop offset="0.6250" stop-color="rgb(54,54,54)"/>
  <stop offset="0.6563" stop-color="rgb(53,53,53)"/>
  <stop offset="0.6875" stop-color="rgb(51,51,51)"/>
  <stop offset="0.7188" stop-color="rgb(50,50,50)"/>
  <stop offset="0.7500" stop-color="rgb(49,49,49)"/>
  <stop offset="0.7813" stop-color="rgb(47,47,47)"/>
  <stop offset="0.8125" stop-color="rgb(46,46,46)"/>
  <stop offset="0.8438" stop-color="rgb(45,45,45)"/>
  <stop offset="0.8750" stop-color="rgb(43,43,43)"/>
  <stop offset="0.9063" stop-color="rgb(42,42,42)"/>
  <stop offset="0.9375" stop-color="rgb(28,28,28)"/>
  <stop offset="0.9688" stop-color="rgb(14,14,14)"/>
  <stop offset="1.0000" stop-color="rgb(0,0,0)"/>
</radialGradient></defs>
<circle cx="860" cy="140" r="81" fill="url(#g_NGC3726)"/>
<text x="860" y="49" text-anchor="middle" class="preview-lbl">face-on luminance from ρ(r)</text>
<text x="860" y="239" text-anchor="middle" class="preview-lbl">edge at r = 32.5 kpc</text>
</svg>