<svg xmlns="http://www.w3.org/2000/svg" viewBox="0 0 960 450" width="960" height="450" font-family="sans-serif" font-size="12">
<style>
  .ax { stroke: #333; stroke-width: 1; fill: none; }
  .grid { stroke: #ddd; stroke-width: 0.5; fill: none; }
  .lbl { fill: #333; }
  .lbl-l { fill: #0066cc; }
  .lbl-r { fill: #b03030; }
  .obs { fill: #222; }
  .err { stroke: #555; stroke-width: 0.8; fill: none; }
  .fw { stroke: #0066cc; stroke-width: 2.2; fill: none; }
  .nt { stroke: #cc6600; stroke-width: 1.6; fill: none; stroke-dasharray: 5,3; }
  .mond { stroke: #7b2cbf; stroke-width: 1.8; fill: none; stroke-dasharray: 7,3; }
  .lbl-p { fill: #cc7000; }
  .lbl-m { fill: #7b2cbf; }
  .rho { stroke: #b03030; stroke-width: 2.0; fill: none; }
  .phot { stroke: #cc7000; stroke-width: 1.8; fill: none; }
  .mbar { stroke: #8e44ad; stroke-width: 1.8; fill: none; opacity: 0.9; }
  .mph { stroke: #c77dff; stroke-width: 1.6; fill: none; stroke-dasharray: 4,3; opacity: 0.95; }
  .remap-x { stroke: #cc2222; stroke-width: 1.5; fill: none; }
  .remap-link { stroke: #cc2222; stroke-width: 0.8; stroke-dasharray: 3,3; fill: none; opacity: 0.7; }
  .title { fill: #111; font-size: 16px; font-weight: 600; }
  .subtitle { fill: #555; font-size: 11px; }
  .preview-bg { fill: #000; }
  .preview-lbl { fill: #888; font-size: 10px; }
  .legend { font-size: 11px; }
</style>
<text x="378.5" y="22" text-anchor="middle" class="title">NGC3109</text>
<text x="378.5" y="38" text-anchor="middle" class="subtitle">rMax=6.5 kpc, N=25, FW=1.4 km/s, 4.0%, 0.69σ, MOND=5.1 km/s, 14.8%, 2.32σ, amp=581</text>
<line x1="70" y1="395.0" x2="687" y2="395.0" class="grid"/>
<text x="64" y="399.0" text-anchor="end" class="lbl-l">0</text>
<line x1="70" y1="327.0" x2="687" y2="327.0" class="grid"/>
<text x="64" y="331.0" text-anchor="end" class="lbl-l">15</text>
<line x1="70" y1="259.0" x2="687" y2="259.0" class="grid"/>
<text x="64" y="263.0" text-anchor="end" class="lbl-l">31</text>
<line x1="70" y1="191.0" x2="687" y2="191.0" class="grid"/>
<text x="64" y="195.0" text-anchor="end" class="lbl-l">46</text>
<line x1="70" y1="123.0" x2="687" y2="123.0" class="grid"/>
<text x="64" y="127.0" text-anchor="end" class="lbl-l">62</text>
<line x1="70" y1="55.0" x2="687" y2="55.0" class="grid"/>
<text x="64" y="59.0" text-anchor="end" class="lbl-l">77</text>
<text x="693" y="399.0" text-anchor="start" class="lbl-r">0.0</text>
<text x="693" y="353.7" text-anchor="start" class="lbl-r">0.2</text>
<text x="693" y="308.3" text-anchor="start" class="lbl-r">0.4</text>
<text x="693" y="263.0" text-anchor="start" class="lbl-r">0.6</text>
<text x="693" y="217.7" text-anchor="start" class="lbl-r">0.8</text>
<text x="693" y="172.3" text-anchor="start" class="lbl-r">1.0</text>
<line x1="70.0" y1="55" x2="70.0" y2="395" class="grid"/>
<text x="70.0" y="411" text-anchor="middle" class="lbl">0.0</text>
<line x1="172.8" y1="55" x2="172.8" y2="395" class="grid"/>
<text x="172.8" y="411" text-anchor="middle" class="lbl">1.1</text>
<line x1="275.7" y1="55" x2="275.7" y2="395" class="grid"/>
<text x="275.7" y="411" text-anchor="middle" class="lbl">2.3</text>
<line x1="378.5" y1="55" x2="378.5" y2="395" class="grid"/>
<text x="378.5" y="411" text-anchor="middle" class="lbl">3.4</text>
<line x1="481.3" y1="55" x2="481.3" y2="395" class="grid"/>
<text x="481.3" y="411" text-anchor="middle" class="lbl">4.5</text>
<line x1="584.2" y1="55" x2="584.2" y2="395" class="grid"/>
<text x="584.2" y="411" text-anchor="middle" class="lbl">5.6</text>
<line x1="687.0" y1="55" x2="687.0" y2="395" class="grid"/>
<text x="687.0" y="411" text-anchor="middle" class="lbl">6.8</text>
<text x="378.5" y="438" text-anchor="middle" class="lbl">radius (kpc)</text>
<text x="16" y="225" text-anchor="middle" class="lbl-l" transform="rotate(-90, 16, 225)">velocity (km/s)</text>
<text x="724" y="225" text-anchor="middle" class="lbl-r" transform="rotate(-90, 724, 225)">profiles (normalized to peak)</text>
<rect x="70" y="55" width="617" height="340" class="ax"/>
<path d="M 70.0,168.3 L 72.8,168.6 L 75.6,168.9 L 78.5,169.2 L 81.3,169.5 L 84.1,169.8 L 86.9,170.1 L 89.7,170.4 L 92.5,170.7 L 95.4,171.0 L 98.2,171.3 L 101.0,171.6 L 103.8,171.9 L 106.6,172.2 L 109.4,172.4 L 112.3,172.7 L 115.1,173.0 L 117.9,173.3 L 120.7,173.6 L 123.5,173.8 L 126.3,174.0 L 129.2,174.2 L 132.0,174.4 L 134.8,174.6 L 137.6,174.8 L 140.4,175.0 L 143.3,175.2 L 146.1,175.4 L 148.9,175.6 L 151.7,175.8 L 154.5,175.9 L 157.3,176.1 L 160.2,176.3 L 163.0,176.5 L 165.8,176.7 L 168.6,176.9 L 171.4,177.1 L 174.2,177.3 L 177.1,177.5 L 179.9,177.7 L 182.7,177.9 L 185.5,178.1 L 188.3,178.3 L 191.1,178.5 L 194.0,178.7 L 196.8,178.9 L 199.6,179.4 L 202.4,180.0 L 205.2,180.6 L 208.1,181.1 L 210.9,181.7 L 213.7,182.3 L 216.5,182.9 L 219.3,183.4 L 222.1,184.0 L 225.0,184.6 L 227.8,185.2 L 230.6,185.7 L 233.4,186.3 L 236.2,186.9 L 239.0,187.5 L 241.9,188.0 L 244.7,188.6 L 247.5,189.2 L 250.3,189.8 L 253.1,190.3 L 255.9,190.9 L 258.8,191.5 L 261.6,192.1 L 264.4,192.6 L 267.2,193.2 L 270.0,193.8 L 272.8,194.4 L 275.7,194.9 L 278.5,195.5 L 281.3,196.1 L 284.1,196.7 L 286.9,197.2 L 289.8,197.8 L 292.6,198.4 L 295.4,199.0 L 298.2,199.5 L 301.0,200.1 L 303.8,200.7 L 306.7,201.2 L 309.5,201.8 L 312.3,202.4 L 315.1,203.0 L 317.9,203.5 L 320.7,204.1 L 323.6,204.7 L 326.4,205.3 L 329.2,205.8 L 332.0,206.4 L 334.8,207.0 L 337.6,207.6 L 340.5,208.1 L 343.3,208.7 L 346.1,209.3 L 348.9,209.9 L 351.7,210.4 L 354.6,211.0 L 357.4,211.6 L 360.2,212.2 L 363.0,212.7 L 365.8,213.3 L 368.6,213.9 L 371.5,214.5 L 374.3,215.0 L 377.1,215.6 L 379.9,216.2 L 382.7,216.8 L 385.5,217.3 L 388.4,217.9 L 391.2,218.5 L 394.0,219.1 L 396.8,219.6 L 399.6,220.2 L 402.4,220.8 L 405.3,221.4 L 408.1,221.9 L 410.9,222.5 L 413.7,223.1 L 416.5,223.6 L 419.4,224.2 L 422.2,224.8 L 425.0,225.4 L 427.8,225.9 L 430.6,226.5 L 433.4,227.1 L 436.3,227.7 L 439.1,228.2 L 441.9,228.8 L 444.7,229.4 L 447.5,230.0 L 450.3,230.5 L 453.2,231.1 L 456.0,231.7 L 458.8,232.3 L 461.6,232.8 L 464.4,233.4 L 467.2,234.0 L 470.1,234.6 L 472.9,235.1 L 475.7,235.7 L 478.5,236.3 L 481.3,236.9 L 484.2,237.7 L 487.0,238.6 L 489.8,239.5 L 492.6,240.3 L 495.4,241.2 L 498.2,242.1 L 501.1,243.0 L 503.9,243.8 L 506.7,244.7 L 509.5,245.6 L 512.3,246.4 L 515.1,247.3 L 518.0,248.2 L 520.8,249.1 L 523.6,249.9 L 526.4,250.8 L 529.2,251.7 L 532.0,252.5 L 534.9,253.4 L 537.7,254.3 L 540.5,255.2 L 543.3,256.0 L 546.1,256.9 L 548.9,257.8 L 551.8,258.6 L 554.6,259.5 L 557.4,260.4 L 560.2,261.3 L 563.0,262.1 L 565.9,263.0 L 568.7,263.9 L 571.5,264.7 L 574.3,265.6 L 577.1,266.5 L 579.9,267.4 L 582.8,268.2 L 585.6,269.1 L 588.4,270.0 L 591.2,270.8 L 594.0,271.7 L 596.8,272.6 L 599.7,273.5 L 602.5,274.3 L 605.3,275.2 L 608.1,276.1 L 610.9,276.9 L 613.7,277.8 L 616.6,278.7 L 619.4,279.6 L 622.2,280.4 L 625.0,281.3 L 627.8,282.2 L 630.7,283.0 L 633.5,283.9 L 636.3,284.8 L 639.1,285.7 L 641.9,286.5 L 644.7,287.4 L 647.6,288.3 L 650.4,289.2 L 653.2,315.6 L 656.0,366.1 L 658.8,395.0 L 661.6,395.0 L 664.5,395.0 L 667.3,395.0 L 670.1,395.0 L 672.9,395.0 L 675.7,395.0 L 678.5,395.0 L 681.4,395.0 L 684.2,395.0 L 687.0,395.0" class="rho"/>
<path d="M 93.7,168.3 L 117.4,206.6 L 140.1,214.3 L 163.8,224.6 L 187.5,251.7 L 211.2,283.9 L 234.9,293.8 L 257.7,313.1 L 281.4,331.2 L 305.0,342.8 L 328.7,345.6 L 352.4,343.0 L 375.2,352.7 L 398.9,368.8 L 422.6,378.2 L 446.3,380.2 L 469.0,377.6 L 492.7,378.9 L 516.4,381.2 L 540.1,384.0 L 563.8,385.8 L 586.6,387.3 L 610.2,395.0 L 633.9,395.0 L 657.6,395.0" class="phot"/>
<path d="M 93.7,359.5 L 117.4,328.5 L 140.1,276.9 L 163.8,231.9 L 187.5,198.1 L 211.2,175.9 L 234.9,168.3 L 257.7,181.4 L 281.4,212.2 L 305.0,237.5 L 328.7,248.6 L 352.4,248.1 L 375.2,243.2 L 398.9,265.6 L 422.6,313.9 L 446.3,327.4 L 469.0,302.9 L 492.7,286.7 L 516.4,282.8 L 540.1,276.6 L 563.8,266.1 L 586.6,276.8 L 610.2,317.8 L 633.9,350.8 L 657.6,360.0" class="mbar"/>
<path d="M 93.7,301.1 L 117.4,269.7 L 140.1,225.9 L 163.8,196.9 L 187.5,180.5 L 211.2,170.6 L 234.9,168.3 L 257.7,175.5 L 281.4,190.9 L 305.0,203.6 L 328.7,209.5 L 352.4,209.5 L 375.2,207.1 L 398.9,219.6 L 422.6,246.9 L 446.3,255.6 L 469.0,242.6 L 492.7,233.5 L 516.4,231.3 L 540.1,227.6 L 563.8,221.1 L 586.6,227.9 L 610.2,253.9 L 633.9,275.8 L 657.6,282.9" class="mph"/>
<path d="M 76.2,364.5 L 82.3,351.9 L 88.5,342.3 L 94.7,334.2 L 100.8,327.0 L 107.0,320.6 L 113.2,314.7 L 119.4,309.3 L 125.5,304.2 L 131.7,299.3 L 137.9,294.7 L 144.0,290.4 L 150.2,286.2 L 156.4,282.2 L 162.6,278.3 L 168.7,274.5 L 174.9,270.9 L 181.1,267.4 L 187.2,264.0 L 193.4,260.7 L 199.6,257.4 L 205.7,254.3 L 211.9,251.3 L 218.1,248.4 L 224.3,245.5 L 230.4,242.8 L 236.6,240.1 L 242.8,237.4 L 248.9,234.9 L 255.1,232.4 L 261.3,230.0 L 267.4,227.6 L 273.6,225.3 L 279.8,223.0 L 285.9,220.8 L 292.1,218.7 L 298.3,216.5 L 304.5,214.5 L 310.6,212.4 L 316.8,210.4 L 323.0,208.5 L 329.1,206.6 L 335.3,204.7 L 341.5,202.9 L 347.7,201.1 L 353.8,199.3 L 360.0,197.6 L 366.2,195.9 L 372.3,194.3 L 378.5,192.6 L 384.7,191.0 L 390.8,189.4 L 397.0,187.9 L 403.2,186.4 L 409.4,184.9 L 415.5,183.4 L 421.7,182.0 L 427.9,180.6 L 434.0,179.2 L 440.2,177.9 L 446.4,176.5 L 452.5,175.2 L 458.7,173.9 L 464.9,172.7 L 471.1,171.4 L 477.2,170.2 L 483.4,169.0 L 489.6,167.8 L 495.7,166.7 L 501.9,165.6 L 508.1,164.5 L 514.2,163.5 L 520.4,162.5 L 526.6,161.5 L 532.8,160.6 L 538.9,159.7 L 545.1,158.8 L 551.3,157.9 L 557.4,157.1 L 563.6,156.3 L 569.8,155.5 L 575.9,154.7 L 582.1,154.0 L 588.3,153.3 L 594.4,152.6 L 600.6,152.0 L 606.8,151.3 L 613.0,150.7 L 619.1,150.2 L 625.3,149.6 L 631.5,149.1 L 637.6,148.6 L 643.8,148.1 L 650.0,147.6 L 656.1,147.7 L 662.3,148.9 L 668.5,150.1 L 674.7,151.4 L 680.8,152.7 L 687.0,153.9" class="nt"/>
<path d="M 93.7,358.0 L 117.4,335.7 L 140.1,309.1 L 163.8,288.0 L 187.5,268.1 L 211.2,250.9 L 234.9,235.5 L 257.7,223.0 L 281.4,213.4 L 305.0,205.6 L 328.7,198.3 L 352.4,191.3 L 375.2,183.9 L 398.9,176.9 L 422.6,174.4 L 446.3,172.2 L 469.0,167.3 L 492.7,162.2 L 516.4,156.7 L 540.1,151.4 L 563.8,145.2 L 586.6,139.3 L 610.2,136.4 L 633.9,134.9 L 657.6,133.6" class="mond"/>
<path d="M 75.1,387.9 L 80.3,382.7 L 85.4,376.9 L 90.6,371.2 L 95.7,365.8 L 100.8,360.5 L 106.0,355.4 L 111.1,350.5 L 116.3,345.7 L 121.4,341.1 L 126.6,336.5 L 131.7,331.9 L 136.8,327.4 L 142.0,322.9 L 147.1,318.3 L 152.3,313.7 L 157.4,309.0 L 162.6,304.2 L 167.7,299.4 L 172.8,294.4 L 178.0,289.3 L 183.1,284.1 L 188.3,278.8 L 193.4,273.5 L 198.5,268.3 L 203.7,263.1 L 208.8,258.1 L 214.0,253.3 L 219.1,248.8 L 224.2,244.4 L 229.4,240.4 L 234.5,236.5 L 239.7,232.8 L 244.8,229.2 L 250.0,225.9 L 255.1,222.6 L 260.2,219.5 L 265.4,216.6 L 270.5,213.7 L 275.7,210.9 L 280.8,208.2 L 286.0,205.6 L 291.1,203.1 L 296.2,200.7 L 301.4,198.3 L 306.5,196.0 L 311.7,193.8 L 316.8,191.6 L 321.9,189.5 L 327.1,187.5 L 332.2,185.5 L 337.4,183.5 L 342.5,181.6 L 347.7,179.8 L 352.8,178.0 L 357.9,176.2 L 363.1,174.5 L 368.2,172.8 L 373.4,171.2 L 378.5,169.5 L 383.6,167.9 L 388.8,166.4 L 393.9,164.8 L 399.1,163.3 L 404.2,161.8 L 409.3,160.2 L 414.5,158.7 L 419.6,157.2 L 424.8,155.7 L 429.9,154.1 L 435.1,152.6 L 440.2,150.9 L 445.3,149.3 L 450.5,147.5 L 455.6,145.7 L 460.8,143.8 L 465.9,141.8 L 471.1,139.8 L 476.2,137.6 L 481.3,135.5 L 486.5,133.5 L 491.6,131.5 L 496.8,129.8 L 501.9,128.2 L 507.0,126.8 L 512.2,125.6 L 517.3,124.6 L 522.5,123.7 L 527.6,123.0 L 532.8,122.3 L 537.9,121.8 L 543.0,121.4 L 548.2,121.0 L 553.3,120.6 L 558.5,120.3 L 563.6,119.9 L 568.7,119.6 L 573.9,119.2 L 579.0,118.8 L 584.2,118.3 L 589.3,117.6 L 594.4,116.7 L 599.6,115.6 L 604.7,114.3 L 609.9,112.5 L 615.0,110.4 L 620.2,107.8 L 625.3,104.7 L 630.4,101.3 L 635.6,98.1 L 640.7,95.6 L 645.9,94.4 L 651.0,95.7 L 656.1,99.4 L 661.3,105.9 L 666.4,114.6 L 671.6,124.5 L 676.7,134.9 L 681.9,145.3 L 687.0,155.0" class="fw"/>
<line x1="93.69" y1="361.15" x2="93.69" y2="375.21" class="err"/>
<line x1="90.69" y1="361.15" x2="96.69" y2="361.15" class="err"/>
<line x1="90.69" y1="375.21" x2="96.69" y2="375.21" class="err"/>
<circle cx="93.69" cy="368.18" r="2.5" class="obs"/>
<line x1="117.37" y1="342.68" x2="117.37" y2="348.83" class="err"/>
<line x1="114.37" y1="342.68" x2="120.37" y2="342.68" class="err"/>
<line x1="114.37" y1="348.83" x2="120.37" y2="348.83" class="err"/>
<circle cx="117.37" cy="345.76" r="2.5" class="obs"/>
<line x1="140.15" y1="322.89" x2="140.15" y2="336.08" class="err"/>
<line x1="137.15" y1="322.89" x2="143.15" y2="322.89" class="err"/>
<line x1="137.15" y1="336.08" x2="143.15" y2="336.08" class="err"/>
<circle cx="140.15" cy="329.49" r="2.5" class="obs"/>
<line x1="163.84" y1="301.35" x2="163.84" y2="320.70" class="err"/>
<line x1="160.84" y1="301.35" x2="166.84" y2="301.35" class="err"/>
<line x1="160.84" y1="320.70" x2="166.84" y2="320.70" class="err"/>
<circle cx="163.84" cy="311.02" r="2.5" class="obs"/>
<line x1="187.52" y1="284.20" x2="187.52" y2="292.12" class="err"/>
<line x1="184.52" y1="284.20" x2="190.52" y2="284.20" class="err"/>
<line x1="184.52" y1="292.12" x2="190.52" y2="292.12" class="err"/>
<circle cx="187.52" cy="288.16" r="2.5" class="obs"/>
<line x1="211.21" y1="255.62" x2="211.21" y2="272.33" class="err"/>
<line x1="208.21" y1="255.62" x2="214.21" y2="255.62" class="err"/>
<line x1="208.21" y1="272.33" x2="214.21" y2="272.33" class="err"/>
<circle cx="211.21" cy="263.98" r="2.5" class="obs"/>
<line x1="234.90" y1="237.16" x2="234.90" y2="251.23" class="err"/>
<line x1="231.90" y1="237.16" x2="237.90" y2="237.16" class="err"/>
<line x1="231.90" y1="251.23" x2="237.90" y2="251.23" class="err"/>
<circle cx="234.90" cy="244.19" r="2.5" class="obs"/>
<line x1="257.67" y1="211.66" x2="257.67" y2="242.43" class="err"/>
<line x1="254.67" y1="211.66" x2="260.67" y2="211.66" class="err"/>
<line x1="254.67" y1="242.43" x2="260.67" y2="242.43" class="err"/>
<circle cx="257.67" cy="227.04" r="2.5" class="obs"/>
<line x1="281.36" y1="183.52" x2="281.36" y2="232.76" class="err"/>
<line x1="278.36" y1="183.52" x2="284.36" y2="183.52" class="err"/>
<line x1="278.36" y1="232.76" x2="284.36" y2="232.76" class="err"/>
<circle cx="281.36" cy="208.14" r="2.5" class="obs"/>
<line x1="305.05" y1="195.83" x2="305.05" y2="222.21" class="err"/>
<line x1="302.05" y1="195.83" x2="308.05" y2="195.83" class="err"/>
<line x1="302.05" y1="222.21" x2="308.05" y2="222.21" class="err"/>
<circle cx="305.05" cy="209.02" r="2.5" class="obs"/>
<line x1="328.73" y1="167.69" x2="328.73" y2="206.38" class="err"/>
<line x1="325.73" y1="167.69" x2="331.73" y2="167.69" class="err"/>
<line x1="325.73" y1="206.38" x2="331.73" y2="206.38" class="err"/>
<circle cx="328.73" cy="187.03" r="2.5" class="obs"/>
<line x1="352.42" y1="160.65" x2="352.42" y2="195.83" class="err"/>
<line x1="349.42" y1="160.65" x2="355.42" y2="160.65" class="err"/>
<line x1="349.42" y1="195.83" x2="355.42" y2="195.83" class="err"/>
<circle cx="352.42" cy="178.24" r="2.5" class="obs"/>
<line x1="375.20" y1="157.14" x2="375.20" y2="187.91" class="err"/>
<line x1="372.20" y1="157.14" x2="378.20" y2="157.14" class="err"/>
<line x1="372.20" y1="187.91" x2="378.20" y2="187.91" class="err"/>
<circle cx="375.20" cy="172.52" r="2.5" class="obs"/>
<line x1="398.88" y1="146.58" x2="398.88" y2="177.36" class="err"/>
<line x1="395.88" y1="146.58" x2="401.88" y2="146.58" class="err"/>
<line x1="395.88" y1="177.36" x2="401.88" y2="177.36" class="err"/>
<circle cx="398.88" cy="161.97" r="2.5" class="obs"/>
<line x1="422.57" y1="139.99" x2="422.57" y2="169.01" class="err"/>
<line x1="419.57" y1="139.99" x2="425.57" y2="139.99" class="err"/>
<line x1="419.57" y1="169.01" x2="425.57" y2="169.01" class="err"/>
<circle cx="422.57" cy="154.50" r="2.5" class="obs"/>
<line x1="446.26" y1="138.67" x2="446.26" y2="165.93" class="err"/>
<line x1="443.26" y1="138.67" x2="449.26" y2="138.67" class="err"/>
<line x1="443.26" y1="165.93" x2="449.26" y2="165.93" class="err"/>
<circle cx="446.26" cy="152.30" r="2.5" class="obs"/>
<line x1="469.03" y1="130.76" x2="469.03" y2="153.62" class="err"/>
<line x1="466.03" y1="130.76" x2="472.03" y2="130.76" class="err"/>
<line x1="466.03" y1="153.62" x2="472.03" y2="153.62" class="err"/>
<circle cx="469.03" cy="142.19" r="2.5" class="obs"/>
<line x1="492.72" y1="124.60" x2="492.72" y2="145.70" class="err"/>
<line x1="489.72" y1="124.60" x2="495.72" y2="124.60" class="err"/>
<line x1="489.72" y1="145.70" x2="495.72" y2="145.70" class="err"/>
<circle cx="492.72" cy="135.15" r="2.5" class="obs"/>
<line x1="516.41" y1="117.57" x2="516.41" y2="134.27" class="err"/>
<line x1="513.41" y1="117.57" x2="519.41" y2="117.57" class="err"/>
<line x1="513.41" y1="134.27" x2="519.41" y2="134.27" class="err"/>
<circle cx="516.41" cy="125.92" r="2.5" class="obs"/>
<line x1="540.10" y1="110.97" x2="540.10" y2="127.68" class="err"/>
<line x1="537.10" y1="110.97" x2="543.10" y2="110.97" class="err"/>
<line x1="537.10" y1="127.68" x2="543.10" y2="127.68" class="err"/>
<circle cx="540.10" cy="119.32" r="2.5" class="obs"/>
<line x1="563.78" y1="99.10" x2="563.78" y2="124.60" class="err"/>
<line x1="560.78" y1="99.10" x2="566.78" y2="99.10" class="err"/>
<line x1="560.78" y1="124.60" x2="566.78" y2="124.60" class="err"/>
<circle cx="563.78" cy="111.85" r="2.5" class="obs"/>
<line x1="586.56" y1="88.11" x2="586.56" y2="116.25" class="err"/>
<line x1="583.56" y1="88.11" x2="589.56" y2="88.11" class="err"/>
<line x1="583.56" y1="116.25" x2="589.56" y2="116.25" class="err"/>
<circle cx="586.56" cy="102.18" r="2.5" class="obs"/>
<line x1="610.25" y1="88.55" x2="610.25" y2="118.44" class="err"/>
<line x1="607.25" y1="88.55" x2="613.25" y2="88.55" class="err"/>
<line x1="607.25" y1="118.44" x2="613.25" y2="118.44" class="err"/>
<circle cx="610.25" cy="103.50" r="2.5" class="obs"/>
<line x1="633.93" y1="89.87" x2="633.93" y2="118.01" class="err"/>
<line x1="630.93" y1="89.87" x2="636.93" y2="89.87" class="err"/>
<line x1="630.93" y1="118.01" x2="636.93" y2="118.01" class="err"/>
<circle cx="633.93" cy="103.94" r="2.5" class="obs"/>
<line x1="657.62" y1="85.91" x2="657.62" y2="112.29" class="err"/>
<line x1="654.62" y1="85.91" x2="660.62" y2="85.91" class="err"/>
<line x1="654.62" y1="112.29" x2="660.62" y2="112.29" class="err"/>
<circle cx="657.62" cy="99.10" r="2.5" class="obs"/>
<g class="legend">
<line x1="82" y1="69" x2="106" y2="69" class="fw"/>
<text x="112" y="73" class="lbl-l">framework: 1.4 km/s, 4.0%, 0.69σ</text>
<line x1="82" y1="87" x2="106" y2="87" class="nt"/>
<text x="112" y="91" class="lbl-l">Newtonian: 7.2 km/s, 33.4%, 3.82σ</text>
<line x1="82" y1="105" x2="106" y2="105" class="mond"/>
<text x="112" y="109" class="lbl-m">MOND/RAR: 5.1 km/s, 14.8%, 2.32σ</text>
<circle cx="94" cy="123" r="2.5" class="obs"/>
<text x="112" y="127" class="lbl">observed V±err</text>
</g>
<g class="legend">
<line x1="472" y1="69" x2="496" y2="69" class="rho"/>
<text x="502" y="73" class="lbl-r">ρ(r) raw</text>
<line x1="472" y1="87" x2="496" y2="87" class="phot"/>
<text x="502" y="91" class="lbl-p">photometric baryonic profile</text>
<line x1="472" y1="105" x2="496" y2="105" class="mbar"/>
<text x="502" y="109" class="lbl-m">MOND baryonic annulus</text>
<line x1="472" y1="123" x2="496" y2="123" class="mph"/>
<text x="502" y="127" class="lbl-m">MOND phantom annulus</text>
<text x="472" y="147" class="lbl-r">ρ peak: 53 M☉/pc²</text>
<text x="472" y="163" class="lbl-p">phot peak: 5.28 (arb.)</text>
<text x="472" y="179" class="lbl-m">Σbar peak: 10.65 M☉/pc²</text>
<text x="472" y="195" class="lbl-m">Σphantom peak: 49.25 M☉/pc²</text>
</g>
<rect x="775" y="55" width="170" height="170" class="preview-bg"/>
<defs><radialGradient id="g_NGC3109" cx="0.5" cy="0.5" r="0.5">
  <stop offset="0.0000" stop-color="rgb(34,34,34)"/>
  <stop offset="0.0313" stop-color="rgb(33,33,33)"/>
  <stop offset="0.0625" stop-color="rgb(33,33,33)"/>
  <stop offset="0.0938" stop-color="rgb(33,33,33)"/>
  <stop offset="0.1250" stop-color="rgb(33,33,33)"/>
  <stop offset="0.1563" stop-color="rgb(32,32,32)"/>
  <stop offset="0.1875" stop-color="rgb(32,32,32)"/>
  <stop offset="0.2188" stop-color="rgb(32,32,32)"/>
  <stop offset="0.2500" stop-color="rgb(31,31,31)"/>
  <stop offset="0.2813" stop-color="rgb(31,31,31)"/>
  <stop offset="0.3125" stop-color="rgb(30,30,30)"/>
  <stop offset="0.3438" stop-color="rgb(30,30,30)"/>
  <stop offset="0.3750" stop-color="rgb(29,29,29)"/>
  <stop offset="0.4063" stop-color="rgb(29,29,29)"/>
  <stop offset="0.4375" stop-color="rgb(28,28,28)"/>
  <stop offset="0.4688" stop-color="rgb(28,28,28)"/>
  <stop offset="0.5000" stop-color="rgb(27,27,27)"/>
  <stop offset="0.5313" stop-color="rgb(26,26,26)"/>
  <stop offset="0.5625" stop-color="rgb(26,26,26)"/>
  <stop offset="0.5938" stop-color="rgb(25,25,25)"/>
  <stop offset="0.6250" stop-color="rgb(25,25,25)"/>
  <stop offset="0.6563" stop-color="rgb(24,24,24)"/>
  <stop offset="0.6875" stop-color="rgb(24,24,24)"/>
  <stop offset="0.7188" stop-color="rgb(23,23,23)"/>
  <stop offset="0.7500" stop-color="rgb(22,22,22)"/>
  <stop offset="0.7813" stop-color="rgb(21,21,21)"/>
  <stop offset="0.8125" stop-color="rgb(20,20,20)"/>
  <stop offset="0.8438" stop-color="rgb(20,20,20)"/>
  <stop offset="0.8750" stop-color="rgb(19,19,19)"/>
  <stop offset="0.9063" stop-color="rgb(18,18,18)"/>
  <stop offset="0.9375" stop-color="rgb(17,17,17)"/>
  <stop offset="0.9688" stop-color="rgb(16,16,16)"/>
  <stop offset="1.0000" stop-color="rgb(0,0,0)"/>
</radialGradient></defs>
<circle cx="860" cy="140" r="81" fill="url(#g_NGC3109)"/>
<text x="860" y="49" text-anchor="middle" class="preview-lbl">face-on luminance from ρ(r)</text>
<text x="860" y="239" text-anchor="middle" class="preview-lbl">edge at r = 6.5 kpc</text>
</svg>