<svg xmlns="http://www.w3.org/2000/svg" viewBox="0 0 720 420" width="720" height="420" font-family="sans-serif" font-size="12">
<style>
  .ax { stroke: #333; stroke-width: 1; fill: none; }
  .grid { stroke: #ddd; stroke-width: 0.5; fill: none; }
  .lbl { fill: #333; }
  .lbl-l { fill: #0066cc; }
  .lbl-r { fill: #b03030; }
  .obs { fill: #222; }
  .err { stroke: #555; stroke-width: 0.8; fill: none; }
  .fw { stroke: #0066cc; stroke-width: 2.2; fill: none; }
  .nt { stroke: #cc6600; stroke-width: 1.6; fill: none; stroke-dasharray: 5,3; }
  .rho { stroke: #b03030; stroke-width: 2.0; fill: none; }
  .sig { stroke: #b03030; stroke-width: 1.6; fill: none; stroke-dasharray: 4,2; opacity: 0.85; }
  .title { fill: #111; font-size: 16px; font-weight: 600; }
  .subtitle { fill: #555; font-size: 11px; }
  .legend { font-size: 11px; }
</style>
<text x="360.0" y="22" text-anchor="middle" class="title">NGC3109</text>
<text x="360.0" y="38" text-anchor="middle" class="subtitle">rMax=6.5 kpc, N=25, RMS=2.1 km/s (4.5%), amp=581</text>
<line x1="70" y1="365.0" x2="635" y2="365.0" class="grid"/>
<text x="64" y="369.0" text-anchor="end" class="lbl-l">0</text>
<line x1="70" y1="303.0" x2="635" y2="303.0" class="grid"/>
<text x="64" y="307.0" text-anchor="end" class="lbl-l">15</text>
<line x1="70" y1="241.00000000000003" x2="635" y2="241.00000000000003" class="grid"/>
<text x="64" y="245.00000000000003" text-anchor="end" class="lbl-l">31</text>
<line x1="70" y1="178.99999999999997" x2="635" y2="178.99999999999997" class="grid"/>
<text x="64" y="182.99999999999997" text-anchor="end" class="lbl-l">46</text>
<line x1="70" y1="117.00000000000003" x2="635" y2="117.00000000000003" class="grid"/>
<text x="64" y="121.00000000000003" text-anchor="end" class="lbl-l">62</text>
<line x1="70" y1="55.0" x2="635" y2="55.0" class="grid"/>
<text x="64" y="59.0" text-anchor="end" class="lbl-l">77</text>
<text x="641" y="369.0" text-anchor="start" class="lbl-r">0.0</text>
<text x="641" y="327.6666666666667" text-anchor="start" class="lbl-r">0.2</text>
<text x="641" y="286.33333333333337" text-anchor="start" class="lbl-r">0.4</text>
<text x="641" y="245.00000000000003" text-anchor="start" class="lbl-r">0.6</text>
<text x="641" y="203.66666666666666" text-anchor="start" class="lbl-r">0.8</text>
<text x="641" y="162.33333333333334" text-anchor="start" class="lbl-r">1.0</text>
<line x1="70.0" y1="55" x2="70.0" y2="365" class="grid"/>
<text x="70.0" y="381" text-anchor="middle" class="lbl">0.0</text>
<line x1="164.16666666666666" y1="55" x2="164.16666666666666" y2="365" class="grid"/>
<text x="164.16666666666666" y="381" text-anchor="middle" class="lbl">1.4</text>
<line x1="258.3333333333333" y1="55" x2="258.3333333333333" y2="365" class="grid"/>
<text x="258.3333333333333" y="381" text-anchor="middle" class="lbl">2.8</text>
<line x1="352.5" y1="55" x2="352.5" y2="365" class="grid"/>
<text x="352.5" y="381" text-anchor="middle" class="lbl">4.2</text>
<line x1="446.66666666666663" y1="55" x2="446.66666666666663" y2="365" class="grid"/>
<text x="446.66666666666663" y="381" text-anchor="middle" class="lbl">5.6</text>
<line x1="540.8333333333333" y1="55" x2="540.8333333333333" y2="365" class="grid"/>
<text x="540.8333333333333" y="381" text-anchor="middle" class="lbl">6.9</text>
<line x1="635.0" y1="55" x2="635.0" y2="365" class="grid"/>
<text x="635.0" y="381" text-anchor="middle" class="lbl">8.3</text>
<text x="352.5" y="408" text-anchor="middle" class="lbl">radius (kpc)</text>
<text x="16" y="210.0" text-anchor="middle" class="lbl-l" transform="rotate(-90, 16, 210.0)">velocity (km/s)</text>
<text x="704" y="210.0" text-anchor="middle" class="lbl-r" transform="rotate(-90, 704, 210.0)">mass profile (normalized to peak)</text>
<rect x="70" y="55" width="565" height="310" class="ax"/>
<path d="M 70.0,158.3 L 72.6,158.3 L 75.2,158.3 L 77.7,158.3 L 80.3,158.3 L 82.9,158.3 L 85.5,158.3 L 88.1,158.3 L 90.6,158.3 L 93.2,158.3 L 95.8,158.3 L 98.4,158.3 L 101.0,158.3 L 103.5,158.3 L 106.1,158.3 L 108.7,158.3 L 111.3,158.3 L 113.9,158.3 L 116.4,158.3 L 119.0,158.3 L 121.6,158.3 L 124.2,158.3 L 126.8,158.3 L 129.3,158.3 L 131.9,158.3 L 134.5,158.3 L 137.1,158.3 L 139.7,158.3 L 142.2,158.3 L 144.8,158.3 L 147.4,158.3 L 150.0,158.3 L 152.6,158.3 L 155.1,158.3 L 157.7,158.3 L 160.3,158.3 L 162.9,158.3 L 165.5,158.3 L 168.0,158.3 L 170.6,158.7 L 173.2,159.3 L 175.8,159.9 L 178.4,160.5 L 180.9,161.1 L 183.5,161.7 L 186.1,162.3 L 188.7,162.9 L 191.3,163.5 L 193.8,164.1 L 196.4,164.7 L 199.0,165.3 L 201.6,165.8 L 204.2,166.4 L 206.7,167.0 L 209.3,167.6 L 211.9,168.2 L 214.5,168.8 L 217.1,169.4 L 219.6,170.0 L 222.2,170.6 L 224.8,171.2 L 227.4,171.8 L 230.0,172.4 L 232.5,173.0 L 235.1,173.5 L 237.7,174.1 L 240.3,174.7 L 242.9,175.3 L 245.4,175.9 L 248.0,176.5 L 250.6,177.1 L 253.2,177.7 L 255.8,178.3 L 258.3,178.9 L 260.9,179.5 L 263.5,180.1 L 266.1,180.7 L 268.7,181.2 L 271.2,181.8 L 273.8,182.4 L 276.4,183.0 L 279.0,183.6 L 281.6,184.2 L 284.1,184.8 L 286.7,185.4 L 289.3,186.0 L 291.9,186.6 L 294.5,187.2 L 297.0,187.8 L 299.6,188.4 L 302.2,188.9 L 304.8,189.5 L 307.4,190.1 L 309.9,190.7 L 312.5,191.3 L 315.1,191.9 L 317.7,192.5 L 320.3,193.1 L 322.8,193.7 L 325.4,194.3 L 328.0,194.9 L 330.6,195.5 L 333.2,196.1 L 335.7,196.6 L 338.3,197.2 L 340.9,197.8 L 343.5,198.4 L 346.1,199.0 L 348.6,199.6 L 351.2,200.2 L 353.8,200.8 L 356.4,201.4 L 358.9,202.0 L 361.5,202.6 L 364.1,203.2 L 366.7,203.8 L 369.3,204.4 L 371.8,204.9 L 374.4,205.5 L 377.0,206.1 L 379.6,206.7 L 382.2,207.3 L 384.7,207.9 L 387.3,208.5 L 389.9,209.1 L 392.5,209.7 L 395.1,210.3 L 397.6,210.9 L 400.2,211.5 L 402.8,212.1 L 405.4,212.6 L 408.0,213.2 L 410.5,213.8 L 413.1,214.4 L 415.7,215.0 L 418.3,215.6 L 420.9,216.2 L 423.4,216.8 L 426.0,217.4 L 428.6,218.0 L 431.2,218.6 L 433.8,219.2 L 436.3,219.8 L 438.9,220.3 L 441.5,220.9 L 444.1,221.5 L 446.7,222.1 L 449.2,222.7 L 451.8,223.3 L 454.4,223.9 L 457.0,224.5 L 459.6,225.1 L 462.1,225.7 L 464.7,226.3 L 467.3,226.9 L 469.9,227.5 L 472.5,228.0 L 475.0,228.6 L 477.6,229.2 L 480.2,229.8 L 482.8,230.4 L 485.4,231.0 L 487.9,231.6 L 490.5,232.2 L 493.1,232.8 L 495.7,233.4 L 498.3,234.0 L 500.8,234.6 L 503.4,235.2 L 506.0,235.7 L 508.6,236.3 L 511.2,236.9 L 513.7,237.5 L 516.3,238.1 L 518.9,238.7 L 521.5,239.3 L 524.1,239.9 L 526.6,240.5 L 529.2,241.1 L 531.8,241.7 L 534.4,242.3 L 537.0,242.9 L 539.5,243.4 L 542.1,244.0 L 544.7,244.6 L 547.3,245.2 L 549.9,245.8 L 552.4,246.4 L 555.0,247.0 L 557.6,247.6 L 560.2,248.2 L 562.8,248.8 L 565.3,249.4 L 567.9,250.0 L 570.5,250.6 L 573.1,256.8 L 575.7,264.8 L 578.2,272.7 L 580.8,280.7 L 583.4,288.7 L 586.0,296.7 L 588.6,304.6 L 591.1,312.6 L 593.7,320.6 L 596.3,328.5 L 598.9,336.5 L 601.5,344.5 L 604.0,352.5 L 606.6,360.4 L 609.2,365.0 L 611.8,365.0 L 614.4,365.0 L 616.9,365.0 L 619.5,365.0 L 622.1,365.0 L 624.7,365.0 L 627.3,365.0 L 629.8,365.0 L 632.4,365.0 L 635.0,365.0" class="rho"/>
<path d="M 70.0,158.3 L 72.6,158.3 L 75.2,158.4 L 77.7,158.4 L 80.3,158.4 L 82.9,158.5 L 85.5,158.6 L 88.1,158.7 L 90.6,158.8 L 93.2,158.9 L 95.8,159.0 L 98.4,159.1 L 101.0,159.2 L 103.5,159.4 L 106.1,159.5 L 108.7,159.7 L 111.3,159.9 L 113.9,160.1 L 116.4,160.3 L 119.0,160.6 L 121.6,160.8 L 124.2,161.1 L 126.8,161.4 L 129.3,161.7 L 131.9,162.0 L 134.5,162.3 L 137.1,162.7 L 139.7,163.0 L 142.2,163.4 L 144.8,163.8 L 147.4,164.3 L 150.0,164.7 L 152.6,165.2 L 155.1,165.7 L 157.7,166.3 L 160.3,166.9 L 162.9,167.5 L 165.5,168.1 L 168.0,168.8 L 170.6,169.5 L 173.2,170.2 L 175.8,170.9 L 178.4,171.7 L 180.9,172.5 L 183.5,173.4 L 186.1,174.2 L 188.7,175.1 L 191.3,176.0 L 193.8,176.9 L 196.4,177.9 L 199.0,178.8 L 201.6,179.8 L 204.2,180.8 L 206.7,181.8 L 209.3,182.8 L 211.9,183.8 L 214.5,184.8 L 217.1,185.8 L 219.6,186.9 L 222.2,187.9 L 224.8,189.0 L 227.4,190.0 L 230.0,191.1 L 232.5,192.1 L 235.1,193.2 L 237.7,194.3 L 240.3,195.3 L 242.9,196.4 L 245.4,197.5 L 248.0,198.6 L 250.6,199.7 L 253.2,200.8 L 255.8,201.9 L 258.3,203.0 L 260.9,204.0 L 263.5,205.1 L 266.1,206.2 L 268.7,207.3 L 271.2,208.4 L 273.8,209.5 L 276.4,210.6 L 279.0,211.7 L 281.6,212.8 L 284.1,213.9 L 286.7,215.0 L 289.3,216.1 L 291.9,217.2 L 294.5,218.3 L 297.0,219.3 L 299.6,220.4 L 302.2,221.5 L 304.8,222.6 L 307.4,223.7 L 309.9,224.8 L 312.5,225.8 L 315.1,226.9 L 317.7,228.0 L 320.3,229.1 L 322.8,230.1 L 325.4,231.2 L 328.0,232.3 L 330.6,233.3 L 333.2,234.4 L 335.7,235.4 L 338.3,236.5 L 340.9,237.5 L 343.5,238.6 L 346.1,239.6 L 348.6,240.7 L 351.2,241.7 L 353.8,242.7 L 356.4,243.8 L 358.9,244.8 L 361.5,245.8 L 364.1,246.9 L 366.7,247.9 L 369.3,248.9 L 371.8,249.9 L 374.4,250.9 L 377.0,251.9 L 379.6,252.9 L 382.2,253.9 L 384.7,254.9 L 387.3,255.9 L 389.9,256.9 L 392.5,257.9 L 395.1,258.9 L 397.6,259.9 L 400.2,260.8 L 402.8,261.8 L 405.4,262.8 L 408.0,263.8 L 410.5,264.7 L 413.1,265.7 L 415.7,266.6 L 418.3,267.6 L 420.9,268.5 L 423.4,269.5 L 426.0,270.4 L 428.6,271.3 L 431.2,272.3 L 433.8,273.2 L 436.3,274.1 L 438.9,275.1 L 441.5,276.0 L 444.1,276.9 L 446.7,277.8 L 449.2,278.7 L 451.8,279.6 L 454.4,280.5 L 457.0,281.4 L 459.6,282.3 L 462.1,283.2 L 464.7,284.1 L 467.3,285.0 L 469.9,285.9 L 472.5,286.8 L 475.0,287.6 L 477.6,288.5 L 480.2,289.4 L 482.8,290.3 L 485.4,291.1 L 487.9,292.0 L 490.5,292.9 L 493.1,293.7 L 495.7,294.6 L 498.3,295.5 L 500.8,296.3 L 503.4,297.2 L 506.0,298.1 L 508.6,298.9 L 511.2,299.8 L 513.7,300.6 L 516.3,301.5 L 518.9,302.4 L 521.5,303.2 L 524.1,304.1 L 526.6,305.0 L 529.2,305.9 L 531.8,306.8 L 534.4,307.7 L 537.0,308.6 L 539.5,309.5 L 542.1,310.4 L 544.7,311.3 L 547.3,312.3 L 549.9,313.3 L 552.4,314.2 L 555.0,315.2 L 557.6,316.3 L 560.2,317.3 L 562.8,318.4 L 565.3,319.5 L 567.9,320.6 L 570.5,321.8 L 573.1,322.9 L 575.7,324.1 L 578.2,325.2 L 580.8,326.4 L 583.4,327.5 L 586.0,328.6 L 588.6,329.7 L 591.1,330.7 L 593.7,331.7 L 596.3,332.6 L 598.9,333.5 L 601.5,334.4 L 604.0,335.2 L 606.6,335.9 L 609.2,336.6 L 611.8,337.3 L 614.4,337.9 L 616.9,338.5 L 619.5,339.1 L 622.1,339.7 L 624.7,340.2 L 627.3,340.7 L 629.8,341.1 L 632.4,341.6 L 635.0,342.0" class="sig"/>
<path d="M 75.7,333.9 L 81.3,321.0 L 87.0,311.2 L 92.6,302.8 L 98.2,295.5 L 103.9,288.9 L 109.6,282.8 L 115.2,277.1 L 120.8,271.8 L 126.5,266.7 L 132.2,261.9 L 137.8,257.3 L 143.4,252.9 L 149.1,248.7 L 154.8,244.6 L 160.4,240.7 L 166.1,236.9 L 171.7,233.1 L 177.3,229.6 L 183.0,226.1 L 188.7,222.8 L 194.3,219.6 L 200.0,216.5 L 205.6,213.5 L 211.2,210.6 L 216.9,207.8 L 222.5,205.0 L 228.2,202.3 L 233.8,199.7 L 239.5,197.2 L 245.2,194.7 L 250.8,192.3 L 256.5,189.9 L 262.1,187.6 L 267.8,185.4 L 273.4,183.2 L 279.1,181.0 L 284.7,179.0 L 290.3,176.9 L 296.0,174.9 L 301.6,172.9 L 307.3,171.0 L 312.9,169.1 L 318.6,167.3 L 324.2,165.5 L 329.9,163.7 L 335.6,162.0 L 341.2,160.3 L 346.9,158.6 L 352.5,157.0 L 358.1,155.4 L 363.8,153.8 L 369.4,152.3 L 375.1,150.8 L 380.8,149.3 L 386.4,147.8 L 392.1,146.4 L 397.7,145.0 L 403.3,143.7 L 409.0,142.3 L 414.6,141.0 L 420.3,139.7 L 425.9,138.5 L 431.6,137.2 L 437.2,136.0 L 442.9,134.8 L 448.6,133.7 L 454.2,132.5 L 459.8,131.4 L 465.5,130.3 L 471.1,129.2 L 476.8,128.2 L 482.4,127.2 L 488.1,126.2 L 493.8,125.2 L 499.4,124.2 L 505.1,123.3 L 510.7,122.3 L 516.4,121.4 L 522.0,120.6 L 527.6,119.7 L 533.3,118.8 L 539.0,118.0 L 544.6,117.2 L 550.2,116.4 L 555.9,115.7 L 561.5,114.9 L 567.2,114.2 L 572.9,113.5 L 578.5,113.0 L 584.1,112.9 L 589.8,113.0 L 595.5,113.5 L 601.1,114.3 L 606.8,115.4 L 612.4,116.7 L 618.1,118.0 L 623.7,119.2 L 629.4,120.5 L 635.0,121.7" class="nt"/>
<path d="M 74.7,360.1 L 79.4,355.9 L 84.1,351.7 L 88.8,347.5 L 93.5,343.2 L 98.2,338.9 L 103.0,334.5 L 107.7,330.0 L 112.4,325.4 L 117.1,320.7 L 121.8,315.8 L 126.5,310.7 L 131.2,305.4 L 135.9,299.9 L 140.6,294.1 L 145.3,288.0 L 150.0,281.7 L 154.8,274.9 L 159.5,268.0 L 164.2,260.7 L 168.9,253.5 L 173.6,246.4 L 178.3,239.6 L 183.0,233.3 L 187.7,227.4 L 192.4,222.0 L 197.1,216.9 L 201.8,212.2 L 206.5,207.8 L 211.2,203.6 L 216.0,199.7 L 220.7,196.0 L 225.4,192.4 L 230.1,189.1 L 234.8,185.8 L 239.5,182.8 L 244.2,179.8 L 248.9,176.9 L 253.6,174.2 L 258.3,171.6 L 263.0,169.0 L 267.8,166.5 L 272.5,164.2 L 277.2,161.9 L 281.9,159.7 L 286.6,157.5 L 291.3,155.5 L 296.0,153.5 L 300.7,151.6 L 305.4,149.7 L 310.1,147.9 L 314.8,146.1 L 319.5,144.5 L 324.2,142.8 L 329.0,141.3 L 333.7,139.7 L 338.4,138.3 L 343.1,136.8 L 347.8,135.5 L 352.5,134.1 L 357.2,132.9 L 361.9,131.6 L 366.6,130.4 L 371.3,129.3 L 376.0,128.2 L 380.8,127.1 L 385.5,126.0 L 390.2,125.0 L 394.9,124.1 L 399.6,123.1 L 404.3,122.2 L 409.0,121.3 L 413.7,120.5 L 418.4,119.7 L 423.1,118.9 L 427.8,118.1 L 432.5,117.3 L 437.2,116.6 L 442.0,115.8 L 446.7,115.1 L 451.4,114.3 L 456.1,113.6 L 460.8,112.9 L 465.5,112.1 L 470.2,111.3 L 474.9,110.5 L 479.6,109.7 L 484.3,108.8 L 489.0,107.8 L 493.8,106.7 L 498.5,105.6 L 503.2,104.3 L 507.9,102.8 L 512.6,101.1 L 517.3,99.2 L 522.0,97.0 L 526.7,94.4 L 531.4,91.4 L 536.1,87.8 L 540.8,83.4 L 545.5,78.3 L 550.2,72.2 L 555.0,65.3 L 559.7,57.8 L 564.4,50.4 L 569.1,44.1 L 573.8,40.1 L 578.5,39.5 L 583.2,42.7 L 587.9,49.5 L 592.6,59.5 L 597.3,71.4 L 602.0,84.3 L 606.8,97.3 L 611.5,109.6 L 616.2,121.0 L 620.9,131.4 L 625.6,140.7 L 630.3,149.0 L 635.0,156.5" class="fw"/>
<line x1="87.62517870575986" y1="334.13229018492177" x2="87.62517870575986" y2="346.9604293288504" class="err"/>
<line x1="84.62517870575986" y1="334.13229018492177" x2="90.62517870575986" y2="334.13229018492177" class="err"/>
<line x1="84.62517870575986" y1="346.9604293288504" x2="90.62517870575986" y2="346.9604293288504" class="err"/>
<circle cx="87.62517870575986" cy="340.5463597568861" r="2.5" class="obs"/>
<line x1="105.25035741151973" y1="317.29535755851543" x2="105.25035741151973" y2="322.9076684339842" class="err"/>
<line x1="102.25035741151973" y1="317.29535755851543" x2="108.25035741151973" y2="317.29535755851543" class="err"/>
<line x1="102.25035741151973" y1="322.9076684339842" x2="108.25035741151973" y2="322.9076684339842" class="err"/>
<circle cx="105.25035741151973" cy="320.1015129962498" r="2.5" class="obs"/>
<line x1="122.19764462859652" y1="299.25578688736584" x2="122.19764462859652" y2="311.2821673347989" class="err"/>
<line x1="119.19764462859652" y1="299.25578688736584" x2="125.19764462859652" y2="299.25578688736584" class="err"/>
<line x1="119.19764462859652" y1="311.2821673347989" x2="125.19764462859652" y2="311.2821673347989" class="err"/>
<circle cx="122.19764462859652" cy="305.26897711108234" r="2.5" class="obs"/>
<line x1="139.8228233343564" y1="279.6126988232251" x2="139.8228233343564" y2="297.25139014612694" class="err"/>
<line x1="136.8228233343564" y1="279.6126988232251" x2="142.8228233343564" y2="279.6126988232251" class="err"/>
<line x1="136.8228233343564" y1="297.25139014612694" x2="142.8228233343564" y2="297.25139014612694" class="err"/>
<circle cx="139.8228233343564" cy="288.4320444846761" r="2.5" class="obs"/>
<line x1="157.44800204011625" y1="263.97840424156215" x2="157.44800204011625" y2="271.19423251002195" class="err"/>
<line x1="154.44800204011625" y1="263.97840424156215" x2="160.44800204011625" y2="263.97840424156215" class="err"/>
<line x1="154.44800204011625" y1="271.19423251002195" x2="160.44800204011625" y2="271.19423251002195" class="err"/>
<circle cx="157.44800204011625" cy="267.5863183757921" r="2.5" class="obs"/>
<line x1="175.07318074587613" y1="237.92124660545716" x2="175.07318074587613" y2="253.15466183887236" class="err"/>
<line x1="172.07318074587613" y1="237.92124660545716" x2="178.07318074587613" y2="237.92124660545716" class="err"/>
<line x1="172.07318074587613" y1="253.15466183887236" x2="178.07318074587613" y2="253.15466183887236" class="err"/>
<circle cx="175.07318074587613" cy="245.53795422216473" r="2.5" class="obs"/>
<line x1="192.698359451636" y1="221.08431397905082" x2="192.698359451636" y2="233.91245312297946" class="err"/>
<line x1="189.698359451636" y1="221.08431397905082" x2="195.698359451636" y2="221.08431397905082" class="err"/>
<line x1="189.698359451636" y1="233.91245312297946" x2="195.698359451636" y2="233.91245312297946" class="err"/>
<circle cx="192.698359451636" cy="227.4983835510151" r="2.5" class="obs"/>
<line x1="209.6456466687128" y1="197.83331178068016" x2="209.6456466687128" y2="225.89486615802406" class="err"/>
<line x1="206.6456466687128" y1="197.83331178068016" x2="212.6456466687128" y2="197.83331178068016" class="err"/>
<line x1="206.6456466687128" y1="225.89486615802406" x2="212.6456466687128" y2="225.89486615802406" class="err"/>
<circle cx="209.6456466687128" cy="211.8640889693521" r="2.5" class="obs"/>
<line x1="227.27082537447262" y1="172.17703349282294" x2="227.27082537447262" y2="217.07552049657312" class="err"/>
<line x1="224.27082537447262" y1="172.17703349282294" x2="230.27082537447262" y2="172.17703349282294" class="err"/>
<line x1="224.27082537447262" y1="217.07552049657312" x2="230.27082537447262" y2="217.07552049657312" class="err"/>
<circle cx="227.27082537447262" cy="194.62627699469803" r="2.5" class="obs"/>
<line x1="244.89600408023253" y1="183.40165524376053" x2="244.89600408023253" y2="207.45441613862667" class="err"/>
<line x1="241.89600408023253" y1="183.40165524376053" x2="247.89600408023253" y2="183.40165524376053" class="err"/>
<line x1="241.89600408023253" y1="207.45441613862667" x2="247.89600408023253" y2="207.45441613862667" class="err"/>
<circle cx="244.89600408023253" cy="195.4280356911936" r="2.5" class="obs"/>
<line x1="262.5211827859924" y1="157.74537695590328" x2="262.5211827859924" y2="193.02275960170698" class="err"/>
<line x1="259.5211827859924" y1="157.74537695590328" x2="265.5211827859924" y2="157.74537695590328" class="err"/>
<line x1="259.5211827859924" y1="193.02275960170698" x2="265.5211827859924" y2="193.02275960170698" class="err"/>
<circle cx="262.5211827859924" cy="175.3840682788051" r="2.5" class="obs"/>
<line x1="280.14636149175226" y1="151.33130738393896" x2="280.14636149175226" y2="183.40165524376053" class="err"/>
<line x1="277.14636149175226" y1="151.33130738393896" x2="283.14636149175226" y2="151.33130738393896" class="err"/>
<line x1="277.14636149175226" y1="183.40165524376053" x2="283.14636149175226" y2="183.40165524376053" class="err"/>
<circle cx="280.14636149175226" cy="167.36648131384973" r="2.5" class="obs"/>
<line x1="297.09364870882905" y1="148.1242725979568" x2="297.09364870882905" y2="176.18582697530064" class="err"/>
<line x1="294.09364870882905" y1="148.1242725979568" x2="300.09364870882905" y2="148.1242725979568" class="err"/>
<line x1="294.09364870882905" y1="176.18582697530064" x2="300.09364870882905" y2="176.18582697530064" class="err"/>
<circle cx="297.09364870882905" cy="162.1550497866287" r="2.5" class="obs"/>
<line x1="314.7188274145889" y1="138.50316824001035" x2="314.7188274145889" y2="166.5647226173542" class="err"/>
<line x1="311.7188274145889" y1="138.50316824001035" x2="317.7188274145889" y2="138.50316824001035" class="err"/>
<line x1="311.7188274145889" y1="166.5647226173542" x2="317.7188274145889" y2="166.5647226173542" class="err"/>
<circle cx="314.7188274145889" cy="152.53394542868227" r="2.5" class="obs"/>
<line x1="332.34400612034875" y1="132.4899780162938" x2="332.34400612034875" y2="158.94801500064654" class="err"/>
<line x1="329.34400612034875" y1="132.4899780162938" x2="335.34400612034875" y2="132.4899780162938" class="err"/>
<line x1="329.34400612034875" y1="158.94801500064654" x2="335.34400612034875" y2="158.94801500064654" class="err"/>
<circle cx="332.34400612034875" cy="145.71899650847018" r="2.5" class="obs"/>
<line x1="349.96918482610863" y1="131.2873399715505" x2="349.96918482610863" y2="156.14185956291217" class="err"/>
<line x1="346.96918482610863" y1="131.2873399715505" x2="352.96918482610863" y2="131.2873399715505" class="err"/>
<line x1="346.96918482610863" y1="156.14185956291217" x2="352.96918482610863" y2="156.14185956291217" class="err"/>
<circle cx="349.96918482610863" cy="143.71459976723133" r="2.5" class="obs"/>
<line x1="366.9164720431854" y1="124.07151170309062" x2="366.9164720431854" y2="144.91723781197464" class="err"/>
<line x1="363.9164720431854" y1="124.07151170309062" x2="369.9164720431854" y2="124.07151170309062" class="err"/>
<line x1="363.9164720431854" y1="144.91723781197464" x2="369.9164720431854" y2="144.91723781197464" class="err"/>
<circle cx="366.9164720431854" cy="134.49437475753265" r="2.5" class="obs"/>
<line x1="384.54165074894524" y1="118.45920082762186" x2="384.54165074894524" y2="137.70140954351479" class="err"/>
<line x1="381.54165074894524" y1="118.45920082762186" x2="387.54165074894524" y2="118.45920082762186" class="err"/>
<line x1="381.54165074894524" y1="137.70140954351479" x2="387.54165074894524" y2="137.70140954351479" class="err"/>
<circle cx="384.54165074894524" cy="128.0803051855683" r="2.5" class="obs"/>
<line x1="402.1668294547052" y1="112.04513125565757" x2="402.1668294547052" y2="127.2785464890728" class="err"/>
<line x1="399.1668294547052" y1="112.04513125565757" x2="405.1668294547052" y2="112.04513125565757" class="err"/>
<line x1="399.1668294547052" y1="127.2785464890728" x2="405.1668294547052" y2="127.2785464890728" class="err"/>
<circle cx="402.1668294547052" cy="119.66183887236518" r="2.5" class="obs"/>
<line x1="419.79200816046506" y1="106.03194103194099" x2="419.79200816046506" y2="121.26535626535625" class="err"/>
<line x1="416.79200816046506" y1="106.03194103194099" x2="422.79200816046506" y2="106.03194103194099" class="err"/>
<line x1="416.79200816046506" y1="121.26535626535625" x2="422.79200816046506" y2="121.26535626535625" class="err"/>
<circle cx="419.79200816046506" cy="113.64864864864863" r="2.5" class="obs"/>
<line x1="437.41718686622494" y1="95.20819862925121" x2="437.41718686622494" y2="118.45920082762183" class="err"/>
<line x1="434.41718686622494" y1="95.20819862925121" x2="440.41718686622494" y2="95.20819862925121" class="err"/>
<line x1="434.41718686622494" y1="118.45920082762183" x2="440.41718686622494" y2="118.45920082762183" class="err"/>
<circle cx="437.41718686622494" cy="106.83369972843656" r="2.5" class="obs"/>
<line x1="454.36447408330173" y1="85.18621492305704" x2="454.36447408330173" y2="110.84249321091428" class="err"/>
<line x1="451.36447408330173" y1="85.18621492305704" x2="457.36447408330173" y2="85.18621492305704" class="err"/>
<line x1="451.36447408330173" y1="110.84249321091428" x2="457.36447408330173" y2="110.84249321091428" class="err"/>
<circle cx="454.36447408330173" cy="98.01435406698566" r="2.5" class="obs"/>
<line x1="471.98965278906155" y1="85.58709427130479" x2="471.98965278906155" y2="112.8468899521531" class="err"/>
<line x1="468.98965278906155" y1="85.58709427130479" x2="474.98965278906155" y2="85.58709427130479" class="err"/>
<line x1="468.98965278906155" y1="112.8468899521531" x2="474.98965278906155" y2="112.8468899521531" class="err"/>
<circle cx="471.98965278906155" cy="99.21699211172894" r="2.5" class="obs"/>
<line x1="489.6148314948215" y1="86.78973231604807" x2="489.6148314948215" y2="112.44601060390532" class="err"/>
<line x1="486.6148314948215" y1="86.78973231604807" x2="492.6148314948215" y2="86.78973231604807" class="err"/>
<line x1="486.6148314948215" y1="112.44601060390532" x2="492.6148314948215" y2="112.44601060390532" class="err"/>
<circle cx="489.6148314948215" cy="99.6178714599767" r="2.5" class="obs"/>
<line x1="507.2400102005813" y1="83.18181818181819" x2="507.2400102005813" y2="107.23457907668434" class="err"/>
<line x1="504.2400102005813" y1="83.18181818181819" x2="510.2400102005813" y2="83.18181818181819" class="err"/>
<line x1="504.2400102005813" y1="107.23457907668434" x2="510.2400102005813" y2="107.23457907668434" class="err"/>
<circle cx="507.2400102005813" cy="95.20819862925129" r="2.5" class="obs"/>
<g class="legend">
<line x1="82" y1="69" x2="106" y2="69" class="fw"/>
<text x="112" y="73" class="lbl-l">framework fit</text>
<line x1="82" y1="87" x2="106" y2="87" class="nt"/>
<text x="112" y="91" class="lbl-l">Newtonian (no halo)</text>
<circle cx="94" cy="105" r="2.5" class="obs"/>
<text x="112" y="109" class="lbl">observed V±err</text>
</g>
<g class="legend">
<line x1="460" y1="69" x2="484" y2="69" class="rho"/>
<text x="490" y="73" class="lbl-r">ρ(r) raw</text>
<line x1="460" y1="87" x2="484" y2="87" class="sig"/>
<text x="490" y="91" class="lbl-r">Σ(r) smoothed</text>
<text x="460" y="113" class="lbl-r">ρ peak: 53 M☉/pc²</text>
</g>
</svg>