<svg xmlns="http://www.w3.org/2000/svg" viewBox="0 0 720 420" width="720" height="420" font-family="sans-serif" font-size="12">
<style>
  .ax { stroke: #333; stroke-width: 1; fill: none; }
  .grid { stroke: #ddd; stroke-width: 0.5; fill: none; }
  .lbl { fill: #333; }
  .lbl-l { fill: #0066cc; }
  .lbl-r { fill: #b03030; }
  .obs { fill: #222; }
  .err { stroke: #555; stroke-width: 0.8; fill: none; }
  .fw { stroke: #0066cc; stroke-width: 2.2; fill: none; }
  .nt { stroke: #cc6600; stroke-width: 1.6; fill: none; stroke-dasharray: 5,3; }
  .rho { stroke: #b03030; stroke-width: 2.0; fill: none; }
  .sig { stroke: #b03030; stroke-width: 1.6; fill: none; stroke-dasharray: 4,2; opacity: 0.85; }
  .title { fill: #111; font-size: 16px; font-weight: 600; }
  .subtitle { fill: #555; font-size: 11px; }
  .legend { font-size: 11px; }
</style>
<text x="360.0" y="22" text-anchor="middle" class="title">NGC4183</text>
<text x="360.0" y="38" text-anchor="middle" class="subtitle">rMax=21.0 kpc, N=23, RMS=1.4 km/s (1.3%), amp=104</text>
<line x1="70" y1="365.0" x2="635" y2="365.0" class="grid"/>
<text x="64" y="369.0" text-anchor="end" class="lbl-l">0</text>
<line x1="70" y1="303.0" x2="635" y2="303.0" class="grid"/>
<text x="64" y="307.0" text-anchor="end" class="lbl-l">27</text>
<line x1="70" y1="241.0" x2="635" y2="241.0" class="grid"/>
<text x="64" y="245.0" text-anchor="end" class="lbl-l">55</text>
<line x1="70" y1="179.0" x2="635" y2="179.0" class="grid"/>
<text x="64" y="183.0" text-anchor="end" class="lbl-l">82</text>
<line x1="70" y1="116.99999999999999" x2="635" y2="116.99999999999999" class="grid"/>
<text x="64" y="120.99999999999999" text-anchor="end" class="lbl-l">110</text>
<line x1="70" y1="55.0" x2="635" y2="55.0" class="grid"/>
<text x="64" y="59.0" text-anchor="end" class="lbl-l">137</text>
<text x="641" y="369.0" text-anchor="start" class="lbl-r">0.0</text>
<text x="641" y="327.6666666666667" text-anchor="start" class="lbl-r">0.2</text>
<text x="641" y="286.33333333333337" text-anchor="start" class="lbl-r">0.4</text>
<text x="641" y="245.00000000000003" text-anchor="start" class="lbl-r">0.6</text>
<text x="641" y="203.66666666666666" text-anchor="start" class="lbl-r">0.8</text>
<text x="641" y="162.33333333333334" text-anchor="start" class="lbl-r">1.0</text>
<line x1="70.0" y1="55" x2="70.0" y2="365" class="grid"/>
<text x="70.0" y="381" text-anchor="middle" class="lbl">0.0</text>
<line x1="164.16666666666666" y1="55" x2="164.16666666666666" y2="365" class="grid"/>
<text x="164.16666666666666" y="381" text-anchor="middle" class="lbl">3.9</text>
<line x1="258.3333333333333" y1="55" x2="258.3333333333333" y2="365" class="grid"/>
<text x="258.3333333333333" y="381" text-anchor="middle" class="lbl">7.7</text>
<line x1="352.5" y1="55" x2="352.5" y2="365" class="grid"/>
<text x="352.5" y="381" text-anchor="middle" class="lbl">11.6</text>
<line x1="446.66666666666663" y1="55" x2="446.66666666666663" y2="365" class="grid"/>
<text x="446.66666666666663" y="381" text-anchor="middle" class="lbl">15.4</text>
<line x1="540.8333333333333" y1="55" x2="540.8333333333333" y2="365" class="grid"/>
<text x="540.8333333333333" y="381" text-anchor="middle" class="lbl">19.3</text>
<line x1="635.0" y1="55" x2="635.0" y2="365" class="grid"/>
<text x="635.0" y="381" text-anchor="middle" class="lbl">23.1</text>
<text x="352.5" y="408" text-anchor="middle" class="lbl">radius (kpc)</text>
<text x="16" y="210.0" text-anchor="middle" class="lbl-l" transform="rotate(-90, 16, 210.0)">velocity (km/s)</text>
<text x="704" y="210.0" text-anchor="middle" class="lbl-r" transform="rotate(-90, 704, 210.0)">mass profile (normalized to peak)</text>
<rect x="70" y="55" width="565" height="310" class="ax"/>
<path d="M 70.0,158.3 L 72.6,167.7 L 75.2,177.1 L 77.7,186.5 L 80.3,195.8 L 82.9,205.2 L 85.5,214.6 L 88.1,224.0 L 90.6,233.3 L 93.2,242.7 L 95.8,252.1 L 98.4,261.5 L 101.0,269.4 L 103.5,270.2 L 106.1,271.0 L 108.7,271.8 L 111.3,272.6 L 113.9,273.4 L 116.4,274.2 L 119.0,275.0 L 121.6,275.7 L 124.2,276.5 L 126.8,277.3 L 129.3,278.1 L 131.9,278.9 L 134.5,279.7 L 137.1,280.5 L 139.7,281.3 L 142.2,282.1 L 144.8,282.9 L 147.4,283.7 L 150.0,284.5 L 152.6,285.3 L 155.1,286.1 L 157.7,286.9 L 160.3,287.7 L 162.9,288.5 L 165.5,289.3 L 168.0,290.1 L 170.6,290.9 L 173.2,291.7 L 175.8,292.5 L 178.4,293.0 L 180.9,293.5 L 183.5,293.9 L 186.1,294.4 L 188.7,294.9 L 191.3,295.4 L 193.8,295.8 L 196.4,296.3 L 199.0,296.8 L 201.6,297.3 L 204.2,297.7 L 206.7,298.2 L 209.3,298.7 L 211.9,299.2 L 214.5,299.6 L 217.1,300.1 L 219.6,300.6 L 222.2,301.1 L 224.8,301.5 L 227.4,302.0 L 230.0,302.5 L 232.5,302.9 L 235.1,303.4 L 237.7,303.9 L 240.3,304.4 L 242.9,304.8 L 245.4,305.3 L 248.0,305.8 L 250.6,306.3 L 253.2,306.7 L 255.8,307.2 L 258.3,307.7 L 260.9,308.2 L 263.5,308.6 L 266.1,309.1 L 268.7,309.6 L 271.2,310.1 L 273.8,310.5 L 276.4,311.0 L 279.0,311.5 L 281.6,311.9 L 284.1,312.4 L 286.7,312.9 L 289.3,313.4 L 291.9,313.8 L 294.5,314.3 L 297.0,314.8 L 299.6,315.3 L 302.2,315.7 L 304.8,316.2 L 307.4,316.7 L 309.9,317.2 L 312.5,317.6 L 315.1,318.1 L 317.7,318.6 L 320.3,318.8 L 322.8,318.9 L 325.4,319.1 L 328.0,319.3 L 330.6,319.5 L 333.2,319.7 L 335.7,319.9 L 338.3,320.1 L 340.9,320.3 L 343.5,320.5 L 346.1,320.7 L 348.6,320.9 L 351.2,321.0 L 353.8,321.2 L 356.4,321.4 L 358.9,321.6 L 361.5,321.8 L 364.1,322.0 L 366.7,322.2 L 369.3,322.4 L 371.8,322.6 L 374.4,322.8 L 377.0,323.0 L 379.6,323.1 L 382.2,323.3 L 384.7,323.5 L 387.3,323.7 L 389.9,323.9 L 392.5,324.1 L 395.1,324.3 L 397.6,324.5 L 400.2,324.7 L 402.8,324.9 L 405.4,325.1 L 408.0,325.2 L 410.5,325.4 L 413.1,325.6 L 415.7,325.8 L 418.3,326.0 L 420.9,326.2 L 423.4,326.4 L 426.0,326.6 L 428.6,326.8 L 431.2,327.0 L 433.8,327.2 L 436.3,327.4 L 438.9,327.5 L 441.5,327.7 L 444.1,327.9 L 446.7,328.1 L 449.2,328.3 L 451.8,328.5 L 454.4,328.7 L 457.0,328.9 L 459.6,329.1 L 462.1,329.3 L 464.7,329.5 L 467.3,329.6 L 469.9,329.8 L 472.5,330.0 L 475.0,330.2 L 477.6,330.4 L 480.2,330.6 L 482.8,330.8 L 485.4,331.0 L 487.9,331.2 L 490.5,331.4 L 493.1,331.6 L 495.7,331.7 L 498.3,331.9 L 500.8,332.1 L 503.4,332.3 L 506.0,332.5 L 508.6,332.7 L 511.2,332.9 L 513.7,333.1 L 516.3,333.3 L 518.9,333.5 L 521.5,333.7 L 524.1,333.8 L 526.6,334.0 L 529.2,334.2 L 531.8,334.4 L 534.4,334.6 L 537.0,334.8 L 539.5,335.0 L 542.1,335.2 L 544.7,335.4 L 547.3,335.6 L 549.9,335.8 L 552.4,336.0 L 555.0,336.1 L 557.6,336.3 L 560.2,336.5 L 562.8,336.7 L 565.3,336.9 L 567.9,337.1 L 570.5,337.3 L 573.1,337.8 L 575.7,339.8 L 578.2,341.8 L 580.8,343.8 L 583.4,345.8 L 586.0,347.8 L 588.6,349.8 L 591.1,351.8 L 593.7,353.8 L 596.3,355.8 L 598.9,357.8 L 601.5,359.8 L 604.0,361.9 L 606.6,363.9 L 609.2,365.0 L 611.8,365.0 L 614.4,365.0 L 616.9,365.0 L 619.5,365.0 L 622.1,365.0 L 624.7,365.0 L 627.3,365.0 L 629.8,365.0 L 632.4,365.0 L 635.0,365.0" class="rho"/>
<path d="M 70.0,158.3 L 72.6,158.7 L 75.2,159.2 L 77.7,160.0 L 80.3,161.0 L 82.9,162.2 L 85.5,163.6 L 88.1,165.2 L 90.6,166.9 L 93.2,168.7 L 95.8,170.6 L 98.4,172.5 L 101.0,174.3 L 103.5,176.2 L 106.1,178.1 L 108.7,179.9 L 111.3,181.7 L 113.9,183.4 L 116.4,185.1 L 119.0,186.8 L 121.6,188.5 L 124.2,190.1 L 126.8,191.7 L 129.3,193.3 L 131.9,194.8 L 134.5,196.4 L 137.1,197.9 L 139.7,199.4 L 142.2,200.9 L 144.8,202.4 L 147.4,203.9 L 150.0,205.4 L 152.6,206.8 L 155.1,208.3 L 157.7,209.7 L 160.3,211.2 L 162.9,212.6 L 165.5,214.0 L 168.0,215.4 L 170.6,216.8 L 173.2,218.2 L 175.8,219.5 L 178.4,220.9 L 180.9,222.2 L 183.5,223.6 L 186.1,224.9 L 188.7,226.2 L 191.3,227.5 L 193.8,228.8 L 196.4,230.1 L 199.0,231.4 L 201.6,232.7 L 204.2,233.9 L 206.7,235.2 L 209.3,236.4 L 211.9,237.7 L 214.5,238.9 L 217.1,240.1 L 219.6,241.4 L 222.2,242.6 L 224.8,243.8 L 227.4,245.0 L 230.0,246.2 L 232.5,247.4 L 235.1,248.5 L 237.7,249.7 L 240.3,250.9 L 242.9,252.0 L 245.4,253.2 L 248.0,254.3 L 250.6,255.5 L 253.2,256.6 L 255.8,257.7 L 258.3,258.8 L 260.9,259.9 L 263.5,261.0 L 266.1,262.1 L 268.7,263.2 L 271.2,264.2 L 273.8,265.3 L 276.4,266.4 L 279.0,267.4 L 281.6,268.4 L 284.1,269.4 L 286.7,270.5 L 289.3,271.5 L 291.9,272.4 L 294.5,273.4 L 297.0,274.4 L 299.6,275.3 L 302.2,276.3 L 304.8,277.2 L 307.4,278.1 L 309.9,279.1 L 312.5,280.0 L 315.1,280.8 L 317.7,281.7 L 320.3,282.6 L 322.8,283.4 L 325.4,284.3 L 328.0,285.1 L 330.6,285.9 L 333.2,286.7 L 335.7,287.5 L 338.3,288.3 L 340.9,289.0 L 343.5,289.8 L 346.1,290.6 L 348.6,291.3 L 351.2,292.0 L 353.8,292.8 L 356.4,293.5 L 358.9,294.2 L 361.5,294.9 L 364.1,295.6 L 366.7,296.3 L 369.3,297.0 L 371.8,297.6 L 374.4,298.3 L 377.0,299.0 L 379.6,299.6 L 382.2,300.3 L 384.7,300.9 L 387.3,301.5 L 389.9,302.2 L 392.5,302.8 L 395.1,303.4 L 397.6,304.0 L 400.2,304.6 L 402.8,305.2 L 405.4,305.8 L 408.0,306.4 L 410.5,307.0 L 413.1,307.6 L 415.7,308.2 L 418.3,308.8 L 420.9,309.3 L 423.4,309.9 L 426.0,310.4 L 428.6,311.0 L 431.2,311.6 L 433.8,312.1 L 436.3,312.7 L 438.9,313.2 L 441.5,313.7 L 444.1,314.3 L 446.7,314.8 L 449.2,315.3 L 451.8,315.8 L 454.4,316.4 L 457.0,316.9 L 459.6,317.4 L 462.1,317.9 L 464.7,318.4 L 467.3,318.9 L 469.9,319.4 L 472.5,319.9 L 475.0,320.4 L 477.6,320.9 L 480.2,321.4 L 482.8,321.8 L 485.4,322.3 L 487.9,322.8 L 490.5,323.3 L 493.1,323.8 L 495.7,324.2 L 498.3,324.7 L 500.8,325.2 L 503.4,325.6 L 506.0,326.1 L 508.6,326.5 L 511.2,327.0 L 513.7,327.5 L 516.3,327.9 L 518.9,328.4 L 521.5,328.8 L 524.1,329.3 L 526.6,329.7 L 529.2,330.2 L 531.8,330.6 L 534.4,331.1 L 537.0,331.5 L 539.5,332.0 L 542.1,332.4 L 544.7,332.9 L 547.3,333.3 L 549.9,333.7 L 552.4,334.2 L 555.0,334.6 L 557.6,335.1 L 560.2,335.5 L 562.8,336.0 L 565.3,336.4 L 567.9,336.9 L 570.5,337.4 L 573.1,337.8 L 575.7,338.3 L 578.2,338.7 L 580.8,339.2 L 583.4,339.6 L 586.0,340.0 L 588.6,340.5 L 591.1,340.9 L 593.7,341.3 L 596.3,341.7 L 598.9,342.1 L 601.5,342.5 L 604.0,342.8 L 606.6,343.2 L 609.2,343.5 L 611.8,343.9 L 614.4,344.2 L 616.9,344.5 L 619.5,344.8 L 622.1,345.1 L 624.7,345.4 L 627.3,345.7 L 629.8,346.0 L 632.4,346.2 L 635.0,346.5" class="sig"/>
<path d="M 75.7,301.4 L 81.3,278.3 L 87.0,262.9 L 92.6,252.1 L 98.2,244.6 L 103.9,239.3 L 109.6,233.9 L 115.2,228.4 L 120.9,223.0 L 126.5,217.8 L 132.2,212.7 L 137.8,207.9 L 143.4,203.3 L 149.1,199.0 L 154.8,194.8 L 160.4,190.8 L 166.1,187.1 L 171.7,183.5 L 177.3,180.1 L 183.0,176.8 L 188.6,173.7 L 194.3,170.6 L 200.0,167.6 L 205.6,164.7 L 211.2,161.9 L 216.9,159.2 L 222.6,156.6 L 228.2,154.1 L 233.8,151.6 L 239.5,149.3 L 245.2,147.0 L 250.8,144.8 L 256.5,142.7 L 262.1,140.7 L 267.8,138.7 L 273.4,136.9 L 279.1,135.0 L 284.7,133.3 L 290.4,131.6 L 296.0,130.1 L 301.6,128.5 L 307.3,127.1 L 312.9,125.7 L 318.6,124.3 L 324.2,123.0 L 329.9,121.8 L 335.6,120.5 L 341.2,119.2 L 346.9,118.0 L 352.5,116.7 L 358.1,115.5 L 363.8,114.3 L 369.4,113.2 L 375.1,112.0 L 380.7,110.9 L 386.4,109.7 L 392.1,108.6 L 397.7,107.5 L 403.3,106.5 L 409.0,105.4 L 414.6,104.4 L 420.3,103.4 L 425.9,102.4 L 431.6,101.4 L 437.2,100.4 L 442.9,99.5 L 448.6,98.6 L 454.2,97.7 L 459.8,96.8 L 465.5,96.0 L 471.1,95.1 L 476.8,94.3 L 482.5,93.5 L 488.1,92.8 L 493.8,92.0 L 499.4,91.3 L 505.0,90.6 L 510.7,89.9 L 516.3,89.2 L 522.0,88.5 L 527.7,87.9 L 533.3,87.3 L 539.0,86.7 L 544.6,86.1 L 550.2,85.6 L 555.9,85.0 L 561.5,84.5 L 567.2,84.0 L 572.9,83.5 L 578.5,83.2 L 584.1,83.2 L 589.8,83.5 L 595.5,84.2 L 601.1,85.1 L 606.8,86.3 L 612.4,87.8 L 618.1,89.2 L 623.7,90.6 L 629.3,92.0 L 635.0,93.4" class="nt"/>
<path d="M 74.7,333.8 L 79.4,310.9 L 84.1,287.9 L 88.8,267.8 L 93.5,251.6 L 98.2,238.7 L 103.0,228.9 L 107.7,221.3 L 112.4,215.1 L 117.1,209.8 L 121.8,204.8 L 126.5,199.9 L 131.2,195.1 L 135.9,190.4 L 140.6,185.7 L 145.3,181.1 L 150.0,176.7 L 154.8,172.4 L 159.5,168.4 L 164.2,164.6 L 168.9,161.0 L 173.6,157.7 L 178.3,154.5 L 183.0,151.5 L 187.7,148.5 L 192.4,145.7 L 197.1,142.9 L 201.8,140.1 L 206.5,137.4 L 211.3,134.8 L 216.0,132.3 L 220.7,129.8 L 225.4,127.4 L 230.1,125.1 L 234.8,122.9 L 239.5,120.9 L 244.2,119.0 L 248.9,117.2 L 253.6,115.5 L 258.3,114.0 L 263.0,112.6 L 267.8,111.4 L 272.5,110.4 L 277.2,109.5 L 281.9,108.8 L 286.6,108.3 L 291.3,108.1 L 296.0,108.0 L 300.7,108.1 L 305.4,108.5 L 310.1,109.0 L 314.8,109.7 L 319.5,110.6 L 324.2,111.4 L 329.0,112.3 L 333.7,113.2 L 338.4,114.0 L 343.1,114.7 L 347.8,115.3 L 352.5,115.9 L 357.2,116.4 L 361.9,116.9 L 366.6,117.2 L 371.3,117.6 L 376.0,117.9 L 380.7,118.2 L 385.5,118.4 L 390.2,118.7 L 394.9,118.8 L 399.6,119.0 L 404.3,119.2 L 409.0,119.3 L 413.7,119.4 L 418.4,119.5 L 423.1,119.6 L 427.8,119.7 L 432.5,119.8 L 437.2,119.8 L 442.0,119.9 L 446.7,119.9 L 451.4,119.9 L 456.1,119.9 L 460.8,119.9 L 465.5,119.9 L 470.2,119.8 L 474.9,119.8 L 479.6,119.7 L 484.3,119.5 L 489.0,119.4 L 493.8,119.2 L 498.5,118.9 L 503.2,118.6 L 507.9,118.2 L 512.6,117.8 L 517.3,117.3 L 522.0,116.6 L 526.7,115.9 L 531.4,115.0 L 536.1,114.0 L 540.8,112.8 L 545.5,111.4 L 550.2,109.9 L 555.0,108.2 L 559.7,106.5 L 564.4,105.0 L 569.1,103.7 L 573.8,103.1 L 578.5,103.3 L 583.2,104.6 L 587.9,107.1 L 592.6,110.6 L 597.3,115.0 L 602.0,120.0 L 606.8,125.5 L 611.5,131.1 L 616.2,136.6 L 620.9,142.0 L 625.6,147.1 L 630.3,152.0 L 635.0,156.5" class="fw"/>
<line x1="91.23360428539002" y1="240.09757090833529" x2="91.23360428539002" y2="277.13915928271683" class="err"/>
<line x1="88.23360428539002" y1="240.09757090833529" x2="94.23360428539002" y2="240.09757090833529" class="err"/>
<line x1="88.23360428539002" y1="277.13915928271683" x2="94.23360428539002" y2="277.13915928271683" class="err"/>
<circle cx="91.23360428539002" cy="258.6183650955261" r="2.5" class="obs"/>
<line x1="112.46720857078003" y1="201.24907578398387" x2="112.46720857078003" y2="231.06303715848614" class="err"/>
<line x1="109.46720857078003" y1="201.24907578398387" x2="115.46720857078003" y2="201.24907578398387" class="err"/>
<line x1="109.46720857078003" y1="231.06303715848614" x2="115.46720857078003" y2="231.06303715848614" class="err"/>
<circle cx="112.46720857078003" cy="216.156056471235" r="2.5" class="obs"/>
<line x1="133.70081285617005" y1="180.46964815933083" x2="133.70081285617005" y2="205.76634265890848" class="err"/>
<line x1="130.70081285617005" y1="180.46964815933083" x2="136.70081285617005" y2="180.46964815933083" class="err"/>
<line x1="130.70081285617005" y1="205.76634265890848" x2="136.70081285617005" y2="205.76634265890848" class="err"/>
<circle cx="133.70081285617005" cy="193.11799540911966" r="2.5" class="obs"/>
<line x1="155.42254597570695" y1="158.78676715969283" x2="155.42254597570695" y2="184.08346165927045" class="err"/>
<line x1="152.42254597570695" y1="158.78676715969283" x2="158.42254597570695" y2="158.78676715969283" class="err"/>
<line x1="152.42254597570695" y1="184.08346165927045" x2="158.42254597570695" y2="184.08346165927045" class="err"/>
<circle cx="155.42254597570695" cy="171.43511440948163" r="2.5" class="obs"/>
<line x1="176.65615026109697" y1="135.07111606633876" x2="176.65615026109697" y2="158.56090381594657" class="err"/>
<line x1="173.65615026109697" y1="135.07111606633876" x2="179.65615026109697" y2="135.07111606633876" class="err"/>
<line x1="173.65615026109697" y1="158.56090381594657" x2="179.65615026109697" y2="158.56090381594657" class="err"/>
<circle cx="176.65615026109697" cy="146.81600994114268" r="2.5" class="obs"/>
<line x1="197.889754546487" y1="128.9728057851906" x2="197.889754546487" y2="152.4625935347984" class="err"/>
<line x1="194.889754546487" y1="128.9728057851906" x2="200.889754546487" y2="128.9728057851906" class="err"/>
<line x1="194.889754546487" y1="152.4625935347984" x2="200.889754546487" y2="152.4625935347984" class="err"/>
<circle cx="197.889754546487" cy="140.71769965999448" r="2.5" class="obs"/>
<line x1="219.12335883187703" y1="120.61586206658008" x2="219.12335883187703" y2="144.1056498161879" class="err"/>
<line x1="216.12335883187703" y1="120.61586206658008" x2="222.12335883187703" y2="120.61586206658008" class="err"/>
<line x1="216.12335883187703" y1="144.1056498161879" x2="222.12335883187703" y2="144.1056498161879" class="err"/>
<circle cx="219.12335883187703" cy="132.360755941384" r="2.5" class="obs"/>
<line x1="240.35696311726704" y1="111.58132831673092" x2="240.35696311726704" y2="135.07111606633876" class="err"/>
<line x1="237.35696311726704" y1="111.58132831673092" x2="243.35696311726704" y2="111.58132831673092" class="err"/>
<line x1="237.35696311726704" y1="135.07111606633876" x2="243.35696311726704" y2="135.07111606633876" class="err"/>
<circle cx="240.35696311726704" cy="123.32622219153484" r="2.5" class="obs"/>
<line x1="261.59056740265703" y1="102.54679456688176" x2="261.59056740265703" y2="126.03658231648959" class="err"/>
<line x1="258.59056740265703" y1="102.54679456688176" x2="264.59056740265703" y2="102.54679456688176" class="err"/>
<line x1="258.59056740265703" y1="126.03658231648959" x2="264.59056740265703" y2="126.03658231648959" class="err"/>
<circle cx="261.59056740265703" cy="114.29168844168566" r="2.5" class="obs"/>
<line x1="282.82417168804704" y1="93.73812416077885" x2="282.82417168804704" y2="121.29345209781876" class="err"/>
<line x1="279.82417168804704" y1="93.73812416077885" x2="285.82417168804704" y2="93.73812416077885" class="err"/>
<line x1="279.82417168804704" y1="121.29345209781876" x2="285.82417168804704" y2="121.29345209781876" class="err"/>
<circle cx="282.82417168804704" cy="107.51578812929881" r="2.5" class="obs"/>
<line x1="304.3018403905105" y1="91.47949072331656" x2="304.3018403905105" y2="119.03481866035646" class="err"/>
<line x1="301.3018403905105" y1="91.47949072331656" x2="307.3018403905105" y2="91.47949072331656" class="err"/>
<line x1="301.3018403905105" y1="119.03481866035646" x2="307.3018403905105" y2="119.03481866035646" class="err"/>
<circle cx="304.3018403905105" cy="105.25715469183652" r="2.5" class="obs"/>
<line x1="325.5354446759006" y1="101.64334119189685" x2="325.5354446759006" y2="126.94003569147449" class="err"/>
<line x1="322.5354446759006" y1="101.64334119189685" x2="328.5354446759006" y2="101.64334119189685" class="err"/>
<line x1="322.5354446759006" y1="126.94003569147449" x2="328.5354446759006" y2="126.94003569147449" class="err"/>
<circle cx="325.5354446759006" cy="114.29168844168566" r="2.5" class="obs"/>
<line x1="347.013113378364" y1="103.90197462935916" x2="347.013113378364" y2="129.19866912893679" class="err"/>
<line x1="344.013113378364" y1="103.90197462935916" x2="350.013113378364" y2="103.90197462935916" class="err"/>
<line x1="344.013113378364" y1="129.19866912893679" x2="350.013113378364" y2="129.19866912893679" class="err"/>
<circle cx="347.013113378364" cy="116.55032187914797" r="2.5" class="obs"/>
<line x1="370.4432974174151" y1="102.54679456688176" x2="370.4432974174151" y2="126.03658231648959" class="err"/>
<line x1="367.4432974174151" y1="102.54679456688176" x2="373.4432974174151" y2="102.54679456688176" class="err"/>
<line x1="367.4432974174151" y1="126.03658231648959" x2="373.4432974174151" y2="126.03658231648959" class="err"/>
<circle cx="370.4432974174151" cy="114.29168844168566" r="2.5" class="obs"/>
<line x1="390.21251520036435" y1="107.96751481679127" x2="390.21251520036435" y2="129.65039581642924" class="err"/>
<line x1="387.21251520036435" y1="107.96751481679127" x2="393.21251520036435" y2="107.96751481679127" class="err"/>
<line x1="387.21251520036435" y1="129.65039581642924" x2="393.21251520036435" y2="129.65039581642924" class="err"/>
<circle cx="390.21251520036435" cy="118.80895531661028" r="2.5" class="obs"/>
<line x1="412.9105059881951" y1="111.12960162923846" x2="412.9105059881951" y2="131.00557587890665" class="err"/>
<line x1="409.9105059881951" y1="111.12960162923846" x2="415.9105059881951" y2="111.12960162923846" class="err"/>
<line x1="409.9105059881951" y1="131.00557587890665" x2="415.9105059881951" y2="131.00557587890665" class="err"/>
<circle cx="412.9105059881951" cy="121.06758875407253" r="2.5" class="obs"/>
<line x1="435.6084967760258" y1="107.06406144180633" x2="435.6084967760258" y2="130.5538491914142" class="err"/>
<line x1="432.6084967760258" y1="107.06406144180633" x2="438.6084967760258" y2="107.06406144180633" class="err"/>
<line x1="432.6084967760258" y1="130.5538491914142" x2="438.6084967760258" y2="130.5538491914142" class="err"/>
<circle cx="435.6084967760258" cy="118.80895531661028" r="2.5" class="obs"/>
<line x1="461.2352605687379" y1="102.32093122313553" x2="461.2352605687379" y2="126.26244566023581" class="err"/>
<line x1="458.2352605687379" y1="102.32093122313553" x2="464.2352605687379" y2="102.32093122313553" class="err"/>
<line x1="458.2352605687379" y1="126.26244566023581" x2="464.2352605687379" y2="126.26244566023581" class="err"/>
<circle cx="461.2352605687379" cy="114.29168844168566" r="2.5" class="obs"/>
<line x1="483.68918693949513" y1="105.48301803558275" x2="483.68918693949513" y2="127.61762572271321" class="err"/>
<line x1="480.68918693949513" y1="105.48301803558275" x2="486.68918693949513" y2="105.48301803558275" class="err"/>
<line x1="480.68918693949513" y1="127.61762572271321" x2="486.68918693949513" y2="127.61762572271321" class="err"/>
<circle cx="483.68918693949513" cy="116.55032187914797" r="2.5" class="obs"/>
<line x1="506.3871777273259" y1="107.74165147304504" x2="506.3871777273259" y2="129.8762591601755" class="err"/>
<line x1="503.3871777273259" y1="107.74165147304504" x2="509.3871777273259" y2="107.74165147304504" class="err"/>
<line x1="503.3871777273259" y1="129.8762591601755" x2="509.3871777273259" y2="129.8762591601755" class="err"/>
<circle cx="506.3871777273259" cy="118.80895531661028" r="2.5" class="obs"/>
<line x1="532.0139415200379" y1="104.57956466059784" x2="532.0139415200379" y2="128.52107909769813" class="err"/>
<line x1="529.0139415200379" y1="104.57956466059784" x2="535.0139415200379" y2="104.57956466059784" class="err"/>
<line x1="529.0139415200379" y1="128.52107909769813" x2="535.0139415200379" y2="128.52107909769813" class="err"/>
<circle cx="532.0139415200379" cy="116.55032187914797" r="2.5" class="obs"/>
<line x1="557.3966408956766" y1="88.994993942108" x2="557.3966408956766" y2="135.07111606633876" class="err"/>
<line x1="554.3966408956766" y1="88.994993942108" x2="560.3966408956766" y2="88.994993942108" class="err"/>
<line x1="554.3966408956766" y1="135.07111606633876" x2="560.3966408956766" y2="135.07111606633876" class="err"/>
<circle cx="557.3966408956766" cy="112.03305500422337" r="2.5" class="obs"/>
<line x1="583.0234046883886" y1="83.80013703594474" x2="583.0234046883886" y2="135.74870609757744" class="err"/>
<line x1="580.0234046883886" y1="83.80013703594474" x2="586.0234046883886" y2="83.80013703594474" class="err"/>
<line x1="580.0234046883886" y1="135.74870609757744" x2="586.0234046883886" y2="135.74870609757744" class="err"/>
<circle cx="583.0234046883886" cy="109.7744215667611" r="2.5" class="obs"/>
<g class="legend">
<line x1="82" y1="69" x2="106" y2="69" class="fw"/>
<text x="112" y="73" class="lbl-l">framework fit</text>
<line x1="82" y1="87" x2="106" y2="87" class="nt"/>
<text x="112" y="91" class="lbl-l">Newtonian (no halo)</text>
<circle cx="94" cy="105" r="2.5" class="obs"/>
<text x="112" y="109" class="lbl">observed V±err</text>
</g>
<g class="legend">
<line x1="460" y1="69" x2="484" y2="69" class="rho"/>
<text x="490" y="73" class="lbl-r">ρ(r) raw</text>
<line x1="460" y1="87" x2="484" y2="87" class="sig"/>
<text x="490" y="91" class="lbl-r">Σ(r) smoothed</text>
<text x="460" y="113" class="lbl-r">ρ peak: 272 M☉/pc²</text>
</g>
</svg>