<svg xmlns="http://www.w3.org/2000/svg" viewBox="0 0 890 420" width="890" height="420" font-family="sans-serif" font-size="12">
<style>
  .ax { stroke: #333; stroke-width: 1; fill: none; }
  .grid { stroke: #ddd; stroke-width: 0.5; fill: none; }
  .lbl { fill: #333; }
  .lbl-l { fill: #0066cc; }
  .lbl-r { fill: #b03030; }
  .obs { fill: #222; }
  .err { stroke: #555; stroke-width: 0.8; fill: none; }
  .fw { stroke: #0066cc; stroke-width: 2.2; fill: none; }
  .nt { stroke: #cc6600; stroke-width: 1.6; fill: none; stroke-dasharray: 5,3; }
  .lbl-s { fill: #cc7000; }
  .rho { stroke: #b03030; stroke-width: 2.0; fill: none; }
  .sig { stroke: #cc7000; stroke-width: 1.8; fill: none; }
  .title { fill: #111; font-size: 16px; font-weight: 600; }
  .subtitle { fill: #555; font-size: 11px; }
  .preview-bg { fill: #000; }
  .preview-lbl { fill: #888; font-size: 10px; }
  .legend { font-size: 11px; }
</style>
<text x="343.5" y="22" text-anchor="middle" class="title">NGC4068</text>
<text x="343.5" y="38" text-anchor="middle" class="subtitle">rMax=2.3 kpc, N=6, RMS=0.6 km/s (2.4%), amp=102</text>
<line x1="70" y1="365.0" x2="617" y2="365.0" class="grid"/>
<text x="64" y="369.0" text-anchor="end" class="lbl-l">0</text>
<line x1="70" y1="303.0" x2="617" y2="303.0" class="grid"/>
<text x="64" y="307.0" text-anchor="end" class="lbl-l">10</text>
<line x1="70" y1="241.0" x2="617" y2="241.0" class="grid"/>
<text x="64" y="245.0" text-anchor="end" class="lbl-l">21</text>
<line x1="70" y1="179.0" x2="617" y2="179.0" class="grid"/>
<text x="64" y="183.0" text-anchor="end" class="lbl-l">31</text>
<line x1="70" y1="117.0" x2="617" y2="117.0" class="grid"/>
<text x="64" y="121.0" text-anchor="end" class="lbl-l">41</text>
<line x1="70" y1="55.0" x2="617" y2="55.0" class="grid"/>
<text x="64" y="59.0" text-anchor="end" class="lbl-l">52</text>
<text x="623" y="369.0" text-anchor="start" class="lbl-r">0.0</text>
<text x="623" y="327.7" text-anchor="start" class="lbl-r">0.2</text>
<text x="623" y="286.3" text-anchor="start" class="lbl-r">0.4</text>
<text x="623" y="245.0" text-anchor="start" class="lbl-r">0.6</text>
<text x="623" y="203.7" text-anchor="start" class="lbl-r">0.8</text>
<text x="623" y="162.3" text-anchor="start" class="lbl-r">1.0</text>
<line x1="70.0" y1="55" x2="70.0" y2="365" class="grid"/>
<text x="70.0" y="381" text-anchor="middle" class="lbl">0.0</text>
<line x1="161.2" y1="55" x2="161.2" y2="365" class="grid"/>
<text x="161.2" y="381" text-anchor="middle" class="lbl">0.4</text>
<line x1="252.3" y1="55" x2="252.3" y2="365" class="grid"/>
<text x="252.3" y="381" text-anchor="middle" class="lbl">0.8</text>
<line x1="343.5" y1="55" x2="343.5" y2="365" class="grid"/>
<text x="343.5" y="381" text-anchor="middle" class="lbl">1.2</text>
<line x1="434.7" y1="55" x2="434.7" y2="365" class="grid"/>
<text x="434.7" y="381" text-anchor="middle" class="lbl">1.6</text>
<line x1="525.8" y1="55" x2="525.8" y2="365" class="grid"/>
<text x="525.8" y="381" text-anchor="middle" class="lbl">2.0</text>
<line x1="617.0" y1="55" x2="617.0" y2="365" class="grid"/>
<text x="617.0" y="381" text-anchor="middle" class="lbl">2.5</text>
<text x="343.5" y="408" text-anchor="middle" class="lbl">radius (kpc)</text>
<text x="16" y="210" text-anchor="middle" class="lbl-l" transform="rotate(-90, 16, 210)">velocity (km/s)</text>
<text x="654" y="210" text-anchor="middle" class="lbl-r" transform="rotate(-90, 654, 210)">mass profile (normalized to peak)</text>
<rect x="70" y="55" width="547" height="310" class="ax"/>
<path d="M 70.0,158.3 L 72.5,158.5 L 75.0,158.6 L 77.5,158.8 L 80.0,158.9 L 82.5,159.1 L 85.0,159.2 L 87.5,159.4 L 90.0,159.5 L 92.5,159.7 L 95.0,159.9 L 97.5,160.0 L 100.0,160.2 L 102.5,160.3 L 105.0,160.5 L 107.5,160.6 L 110.0,160.8 L 112.5,160.9 L 115.0,161.1 L 117.5,161.2 L 120.0,161.4 L 122.5,161.5 L 124.9,161.7 L 127.4,161.8 L 129.9,162.0 L 132.4,162.1 L 134.9,162.3 L 137.4,162.4 L 139.9,162.6 L 142.4,162.7 L 144.9,162.9 L 147.4,163.0 L 149.9,163.1 L 152.4,163.1 L 154.9,163.1 L 157.4,163.3 L 159.9,163.4 L 162.4,163.6 L 164.9,163.7 L 167.4,163.8 L 169.9,164.0 L 172.4,164.1 L 174.9,164.3 L 177.4,164.4 L 179.9,164.6 L 182.4,164.7 L 184.9,164.9 L 187.4,165.0 L 189.9,165.2 L 192.4,165.3 L 194.9,165.5 L 197.4,165.6 L 199.9,165.7 L 202.4,165.9 L 204.9,166.0 L 207.4,166.2 L 209.9,166.3 L 212.4,166.5 L 214.9,166.6 L 217.4,166.8 L 219.9,166.9 L 222.4,167.1 L 224.9,167.2 L 227.4,167.4 L 229.9,167.5 L 232.4,167.6 L 234.8,167.8 L 237.3,167.9 L 239.8,168.1 L 242.3,168.2 L 244.8,168.4 L 247.3,168.5 L 249.8,168.7 L 252.3,168.8 L 254.8,169.0 L 257.3,169.1 L 259.8,169.3 L 262.3,169.4 L 264.8,169.6 L 267.3,169.7 L 269.8,169.8 L 272.3,170.0 L 274.8,170.1 L 277.3,170.3 L 279.8,170.4 L 282.3,170.6 L 284.8,170.7 L 287.3,170.9 L 289.8,171.0 L 292.3,171.2 L 294.8,171.3 L 297.3,171.5 L 299.8,171.6 L 302.3,171.7 L 304.8,171.9 L 307.3,172.0 L 309.8,172.2 L 312.3,172.3 L 314.8,172.7 L 317.3,173.3 L 319.8,173.8 L 322.3,174.3 L 324.8,174.9 L 327.3,175.4 L 329.8,176.0 L 332.3,176.5 L 334.8,177.1 L 337.3,177.6 L 339.8,178.2 L 342.3,178.7 L 344.7,179.3 L 347.2,179.8 L 349.7,180.4 L 352.2,180.9 L 354.7,181.5 L 357.2,182.0 L 359.7,182.6 L 362.2,183.1 L 364.7,183.7 L 367.2,184.2 L 369.7,184.8 L 372.2,185.3 L 374.7,185.9 L 377.2,186.4 L 379.7,187.0 L 382.2,187.5 L 384.7,188.1 L 387.2,188.6 L 389.7,189.2 L 392.2,189.7 L 394.7,190.3 L 397.2,190.8 L 399.7,191.4 L 402.2,191.9 L 404.7,192.5 L 407.2,193.0 L 409.7,193.6 L 412.2,194.1 L 414.7,194.7 L 417.2,195.2 L 419.7,195.8 L 422.2,196.3 L 424.7,196.9 L 427.2,197.4 L 429.7,198.0 L 432.2,198.5 L 434.7,199.1 L 437.2,199.6 L 439.7,200.2 L 442.2,200.7 L 444.7,201.3 L 447.2,201.8 L 449.7,202.3 L 452.2,202.9 L 454.6,203.4 L 457.1,204.0 L 459.6,204.5 L 462.1,205.1 L 464.6,205.6 L 467.1,206.2 L 469.6,206.7 L 472.1,207.3 L 474.6,207.8 L 477.1,208.4 L 479.6,208.9 L 482.1,209.5 L 484.6,210.0 L 487.1,210.6 L 489.6,211.1 L 492.1,211.7 L 494.6,212.2 L 497.1,212.8 L 499.6,213.3 L 502.1,213.9 L 504.6,214.4 L 507.1,215.0 L 509.6,215.5 L 512.1,216.1 L 514.6,216.6 L 517.1,217.2 L 519.6,217.7 L 522.1,218.3 L 524.6,218.8 L 527.1,219.4 L 529.6,219.9 L 532.1,220.5 L 534.6,221.0 L 537.1,221.6 L 539.6,222.1 L 542.1,222.7 L 544.6,223.2 L 547.1,223.8 L 549.6,224.3 L 552.1,224.9 L 554.6,225.4 L 557.1,226.0 L 559.6,226.5 L 562.1,227.1 L 564.5,227.6 L 567.0,234.6 L 569.5,248.2 L 572.0,261.9 L 574.5,275.5 L 577.0,289.1 L 579.5,302.7 L 582.0,316.3 L 584.5,330.0 L 587.0,343.6 L 589.5,357.2 L 592.0,365.0 L 594.5,365.0 L 597.0,365.0 L 599.5,365.0 L 602.0,365.0 L 604.5,365.0 L 607.0,365.0 L 609.5,365.0 L 612.0,365.0 L 614.5,365.0 L 617.0,365.0" class="rho"/>
<path d="M 70.0,158.3 L 72.5,158.3 L 75.0,158.4 L 77.5,158.4 L 80.0,158.4 L 82.5,158.5 L 85.0,158.5 L 87.5,158.6 L 90.0,158.7 L 92.5,158.8 L 95.0,158.9 L 97.5,159.0 L 100.0,159.1 L 102.5,159.2 L 105.0,159.4 L 107.5,159.5 L 110.0,159.7 L 112.5,159.8 L 115.0,160.0 L 117.5,160.2 L 120.0,160.3 L 122.5,160.5 L 124.9,160.7 L 127.4,160.9 L 129.9,161.1 L 132.4,161.3 L 134.9,161.6 L 137.4,161.8 L 139.9,162.0 L 142.4,162.3 L 144.9,162.5 L 147.4,162.8 L 149.9,163.0 L 152.4,163.3 L 154.9,163.6 L 157.4,163.8 L 159.9,164.1 L 162.4,164.4 L 164.9,164.7 L 167.4,165.0 L 169.9,165.3 L 172.4,165.6 L 174.9,166.0 L 177.4,166.3 L 179.9,166.6 L 182.4,167.0 L 184.9,167.3 L 187.4,167.7 L 189.9,168.0 L 192.4,168.4 L 194.9,168.7 L 197.4,169.1 L 199.9,169.5 L 202.4,169.9 L 204.9,170.3 L 207.4,170.7 L 209.9,171.1 L 212.4,171.5 L 214.9,171.9 L 217.4,172.3 L 219.9,172.8 L 222.4,173.2 L 224.9,173.6 L 227.4,174.1 L 229.9,174.5 L 232.4,175.0 L 234.8,175.5 L 237.3,175.9 L 239.8,176.4 L 242.3,176.9 L 244.8,177.4 L 247.3,177.9 L 249.8,178.4 L 252.3,178.9 L 254.8,179.4 L 257.3,180.0 L 259.8,180.5 L 262.3,181.0 L 264.8,181.6 L 267.3,182.1 L 269.8,182.7 L 272.3,183.3 L 274.8,183.9 L 277.3,184.5 L 279.8,185.1 L 282.3,185.7 L 284.8,186.3 L 287.3,186.9 L 289.8,187.6 L 292.3,188.2 L 294.8,188.9 L 297.3,189.6 L 299.8,190.2 L 302.3,190.9 L 304.8,191.7 L 307.3,192.4 L 309.8,193.1 L 312.3,193.9 L 314.8,194.6 L 317.3,195.4 L 319.8,196.2 L 322.3,197.0 L 324.8,197.8 L 327.3,198.6 L 329.8,199.4 L 332.3,200.3 L 334.8,201.1 L 337.3,202.0 L 339.8,202.9 L 342.3,203.7 L 344.7,204.6 L 347.2,205.5 L 349.7,206.4 L 352.2,207.3 L 354.7,208.2 L 357.2,209.2 L 359.7,210.1 L 362.2,211.0 L 364.7,211.9 L 367.2,212.9 L 369.7,213.8 L 372.2,214.8 L 374.7,215.7 L 377.2,216.7 L 379.7,217.6 L 382.2,218.6 L 384.7,219.5 L 387.2,220.5 L 389.7,221.5 L 392.2,222.4 L 394.7,223.4 L 397.2,224.4 L 399.7,225.4 L 402.2,226.3 L 404.7,227.3 L 407.2,228.3 L 409.7,229.3 L 412.2,230.3 L 414.7,231.3 L 417.2,232.3 L 419.7,233.3 L 422.2,234.3 L 424.7,235.2 L 427.2,236.2 L 429.7,237.2 L 432.2,238.2 L 434.7,239.2 L 437.2,240.2 L 439.7,241.2 L 442.2,242.3 L 444.7,243.3 L 447.2,244.3 L 449.7,245.3 L 452.2,246.3 L 454.6,247.3 L 457.1,248.3 L 459.6,249.3 L 462.1,250.4 L 464.6,251.4 L 467.1,252.4 L 469.6,253.4 L 472.1,254.5 L 474.6,255.5 L 477.1,256.5 L 479.6,257.6 L 482.1,258.6 L 484.6,259.6 L 487.1,260.7 L 489.6,261.8 L 492.1,262.8 L 494.6,263.9 L 497.1,264.9 L 499.6,266.0 L 502.1,267.1 L 504.6,268.2 L 507.1,269.3 L 509.6,270.4 L 512.1,271.5 L 514.6,272.6 L 517.1,273.8 L 519.6,274.9 L 522.1,276.1 L 524.6,277.2 L 527.1,278.4 L 529.6,279.6 L 532.1,280.8 L 534.6,282.1 L 537.1,283.3 L 539.6,284.6 L 542.1,285.9 L 544.6,287.2 L 547.1,288.6 L 549.6,290.0 L 552.1,291.4 L 554.6,292.8 L 557.1,294.2 L 559.6,295.7 L 562.1,297.2 L 564.5,298.7 L 567.0,300.2 L 569.5,301.7 L 572.0,303.2 L 574.5,304.7 L 577.0,306.2 L 579.5,307.7 L 582.0,309.1 L 584.5,310.5 L 587.0,311.8 L 589.5,313.1 L 592.0,314.4 L 594.5,315.6 L 597.0,316.7 L 599.5,317.8 L 602.0,318.8 L 604.5,319.8 L 607.0,320.8 L 609.5,321.7 L 612.0,322.6 L 614.5,323.4 L 617.0,324.2" class="sig"/>
<path d="M 75.5,340.4 L 80.9,330.3 L 86.4,322.5 L 91.9,315.9 L 97.3,310.1 L 102.8,304.9 L 108.3,300.2 L 113.8,295.7 L 119.2,291.6 L 124.7,287.6 L 130.2,283.9 L 135.6,280.3 L 141.1,276.9 L 146.6,273.7 L 152.1,270.5 L 157.5,267.4 L 163.0,264.5 L 168.5,261.6 L 173.9,258.8 L 179.4,256.1 L 184.9,253.5 L 190.3,250.9 L 195.8,248.4 L 201.3,246.0 L 206.8,243.6 L 212.2,241.2 L 217.7,238.9 L 223.2,236.7 L 228.6,234.5 L 234.1,232.3 L 239.6,230.2 L 245.0,228.1 L 250.5,226.1 L 256.0,224.1 L 261.4,222.1 L 266.9,220.1 L 272.4,218.2 L 277.9,216.3 L 283.3,214.5 L 288.8,212.6 L 294.3,210.8 L 299.7,209.0 L 305.2,207.3 L 310.7,205.5 L 316.1,203.8 L 321.6,202.1 L 327.1,200.5 L 332.6,198.9 L 338.0,197.3 L 343.5,195.8 L 349.0,194.3 L 354.4,192.8 L 359.9,191.3 L 365.4,189.9 L 370.9,188.5 L 376.3,187.1 L 381.8,185.8 L 387.3,184.5 L 392.7,183.2 L 398.2,181.9 L 403.7,180.7 L 409.1,179.5 L 414.6,178.3 L 420.1,177.1 L 425.6,175.9 L 431.0,174.8 L 436.5,173.7 L 442.0,172.6 L 447.4,171.5 L 452.9,170.4 L 458.4,169.4 L 463.8,168.4 L 469.3,167.4 L 474.8,166.4 L 480.3,165.4 L 485.7,164.5 L 491.2,163.6 L 496.7,162.6 L 502.1,161.7 L 507.6,160.9 L 513.1,160.0 L 518.5,159.1 L 524.0,158.3 L 529.5,157.5 L 535.0,156.7 L 540.4,155.9 L 545.9,155.1 L 551.4,154.4 L 556.8,153.6 L 562.3,152.9 L 567.8,152.2 L 573.2,151.8 L 578.7,151.9 L 584.2,152.3 L 589.6,153.1 L 595.1,154.2 L 600.6,155.3 L 606.1,156.4 L 611.5,157.4 L 617.0,158.5" class="nt"/>
<path d="M 74.6,361.4 L 79.1,358.8 L 83.7,355.8 L 88.2,352.9 L 92.8,350.1 L 97.3,347.3 L 101.9,344.6 L 106.5,342.0 L 111.0,339.3 L 115.6,336.8 L 120.1,334.3 L 124.7,331.8 L 129.3,329.4 L 133.8,327.0 L 138.4,324.7 L 142.9,322.4 L 147.5,320.1 L 152.1,317.7 L 156.6,315.4 L 161.2,313.1 L 165.7,310.8 L 170.3,308.5 L 174.8,306.2 L 179.4,303.9 L 184.0,301.6 L 188.5,299.3 L 193.1,297.1 L 197.6,294.8 L 202.2,292.6 L 206.8,290.3 L 211.3,288.1 L 215.9,285.8 L 220.4,283.5 L 225.0,281.2 L 229.5,278.9 L 234.1,276.6 L 238.7,274.3 L 243.2,271.9 L 247.8,269.5 L 252.3,267.0 L 256.9,264.5 L 261.5,261.9 L 266.0,259.3 L 270.6,256.7 L 275.1,253.9 L 279.7,251.1 L 284.2,248.2 L 288.8,245.2 L 293.4,242.1 L 297.9,238.9 L 302.5,235.7 L 307.0,232.3 L 311.6,229.0 L 316.2,225.6 L 320.7,222.4 L 325.3,219.2 L 329.8,216.2 L 334.4,213.3 L 338.9,210.6 L 343.5,208.0 L 348.1,205.5 L 352.6,203.2 L 357.2,200.9 L 361.7,198.8 L 366.3,196.7 L 370.9,194.8 L 375.4,192.9 L 380.0,191.0 L 384.5,189.2 L 389.1,187.5 L 393.6,185.8 L 398.2,184.2 L 402.8,182.6 L 407.3,181.0 L 411.9,179.5 L 416.4,178.0 L 421.0,176.5 L 425.5,175.0 L 430.1,173.5 L 434.7,172.1 L 439.2,170.6 L 443.8,169.1 L 448.3,167.6 L 452.9,166.1 L 457.5,164.6 L 462.0,163.1 L 466.6,161.5 L 471.1,159.8 L 475.7,158.1 L 480.3,156.3 L 484.8,154.5 L 489.4,152.5 L 493.9,150.4 L 498.5,148.2 L 503.0,145.8 L 507.6,143.2 L 512.2,140.3 L 516.7,137.3 L 521.3,133.9 L 525.8,130.2 L 530.4,126.1 L 535.0,121.6 L 539.5,116.7 L 544.1,111.4 L 548.6,105.9 L 553.2,100.4 L 557.7,95.3 L 562.3,91.0 L 566.9,88.4 L 571.4,87.7 L 576.0,89.3 L 580.5,93.3 L 585.1,99.1 L 589.6,106.4 L 594.2,114.6 L 598.8,123.2 L 603.3,131.7 L 607.9,139.8 L 612.4,147.5 L 617.0,154.7" class="fw"/>
<line x1="116.77" y1="314.91" x2="116.77" y2="358.81" class="err"/>
<line x1="113.77" y1="314.91" x2="119.77" y2="314.91" class="err"/>
<line x1="113.77" y1="358.81" x2="119.77" y2="358.81" class="err"/>
<circle cx="116.77" cy="336.86" r="2.5" class="obs"/>
<line x1="212.55" y1="265.55" x2="212.55" y2="306.92" class="err"/>
<line x1="209.55" y1="265.55" x2="215.55" y2="265.55" class="err"/>
<line x1="209.55" y1="306.92" x2="215.55" y2="306.92" class="err"/>
<circle cx="212.55" cy="286.23" r="2.5" class="obs"/>
<line x1="306.09" y1="214.98" x2="306.09" y2="244.44" class="err"/>
<line x1="303.09" y1="214.98" x2="309.09" y2="214.98" class="err"/>
<line x1="303.09" y1="244.44" x2="309.09" y2="244.44" class="err"/>
<circle cx="306.09" cy="229.71" r="2.5" class="obs"/>
<line x1="399.64" y1="171.93" x2="399.64" y2="192.49" class="err"/>
<line x1="396.64" y1="171.93" x2="402.64" y2="171.93" class="err"/>
<line x1="396.64" y1="192.49" x2="402.64" y2="192.49" class="err"/>
<circle cx="399.64" cy="182.21" r="2.5" class="obs"/>
<line x1="495.42" y1="138.32" x2="495.42" y2="158.76" class="err"/>
<line x1="492.42" y1="138.32" x2="498.42" y2="138.32" class="err"/>
<line x1="492.42" y1="158.76" x2="498.42" y2="158.76" class="err"/>
<circle cx="495.42" cy="148.54" r="2.5" class="obs"/>
<line x1="588.96" y1="83.18" x2="588.96" y2="142.95" class="err"/>
<line x1="585.96" y1="83.18" x2="591.96" y2="83.18" class="err"/>
<line x1="585.96" y1="142.95" x2="591.96" y2="142.95" class="err"/>
<circle cx="588.96" cy="113.07" r="2.5" class="obs"/>
<g class="legend">
<line x1="82" y1="69" x2="106" y2="69" class="fw"/>
<text x="112" y="73" class="lbl-l">framework fit</text>
<line x1="82" y1="87" x2="106" y2="87" class="nt"/>
<text x="112" y="91" class="lbl-l">Newtonian (no halo)</text>
<circle cx="94" cy="105" r="2.5" class="obs"/>
<text x="112" y="109" class="lbl">observed V±err</text>
</g>
<g class="legend">
<line x1="442" y1="69" x2="466" y2="69" class="rho"/>
<text x="472" y="73" class="lbl-r">ρ(r) raw</text>
<line x1="442" y1="87" x2="466" y2="87" class="sig"/>
<text x="472" y="91" class="lbl-s">Σ(r) cumulative</text>
<text x="442" y="113" class="lbl-r">ρ peak: 50 M☉/pc²</text>
</g>
<rect x="705" y="55" width="170" height="170" class="preview-bg"/>
<defs><radialGradient id="g_NGC4068" cx="0.5" cy="0.5" r="0.5">
  <stop offset="0.0000" stop-color="rgb(119,29.75,29.75)"/>
  <stop offset="0.0313" stop-color="rgb(119,29.75,29.75)"/>
  <stop offset="0.0625" stop-color="rgb(118,29.5,29.5)"/>
  <stop offset="0.0938" stop-color="rgb(118,29.5,29.5)"/>
  <stop offset="0.1250" stop-color="rgb(118,29.5,29.5)"/>
  <stop offset="0.1563" stop-color="rgb(117,29.25,29.25)"/>
  <stop offset="0.1875" stop-color="rgb(117,29.25,29.25)"/>
  <stop offset="0.2188" stop-color="rgb(117,29.25,29.25)"/>
  <stop offset="0.2500" stop-color="rgb(117,29.25,29.25)"/>
  <stop offset="0.2813" stop-color="rgb(116,29,29)"/>
  <stop offset="0.3125" stop-color="rgb(116,29,29)"/>
  <stop offset="0.3438" stop-color="rgb(116,29,29)"/>
  <stop offset="0.3750" stop-color="rgb(115,28.75,28.75)"/>
  <stop offset="0.4063" stop-color="rgb(115,28.75,28.75)"/>
  <stop offset="0.4375" stop-color="rgb(115,28.75,28.75)"/>
  <stop offset="0.4688" stop-color="rgb(114,28.5,28.5)"/>
  <stop offset="0.5000" stop-color="rgb(113,28.25,28.25)"/>
  <stop offset="0.5313" stop-color="rgb(112,28,28)"/>
  <stop offset="0.5625" stop-color="rgb(111,27.75,27.75)"/>
  <stop offset="0.5938" stop-color="rgb(109,27.25,27.25)"/>
  <stop offset="0.6250" stop-color="rgb(108,27,27)"/>
  <stop offset="0.6563" stop-color="rgb(107,26.75,26.75)"/>
  <stop offset="0.6875" stop-color="rgb(106,26.5,26.5)"/>
  <stop offset="0.7188" stop-color="rgb(105,26.25,26.25)"/>
  <stop offset="0.7500" stop-color="rgb(104,26,26)"/>
  <stop offset="0.7813" stop-color="rgb(102,25.5,25.5)"/>
  <stop offset="0.8125" stop-color="rgb(101,25.25,25.25)"/>
  <stop offset="0.8438" stop-color="rgb(100,25,25)"/>
  <stop offset="0.8750" stop-color="rgb(99,24.75,24.75)"/>
  <stop offset="0.9063" stop-color="rgb(98,24.5,24.5)"/>
  <stop offset="0.9375" stop-color="rgb(96,24,24)"/>
  <stop offset="0.9688" stop-color="rgb(80,20,20)"/>
  <stop offset="1.0000" stop-color="rgb(0,0,0)"/>
</radialGradient></defs>
<circle cx="790" cy="140" r="81" fill="url(#g_NGC4068)"/>
<text x="790" y="49" text-anchor="middle" class="preview-lbl">face-on luminance from ρ(r)</text>
<text x="790" y="239" text-anchor="middle" class="preview-lbl">edge at r = 2.3 kpc</text>
</svg>