<svg xmlns="http://www.w3.org/2000/svg" viewBox="0 0 960 450" width="960" height="450" font-family="sans-serif" font-size="12">
<style>
  .ax { stroke: #333; stroke-width: 1; fill: none; }
  .grid { stroke: #ddd; stroke-width: 0.5; fill: none; }
  .lbl { fill: #333; }
  .lbl-l { fill: #0066cc; }
  .lbl-r { fill: #b03030; }
  .obs { fill: #222; }
  .err { stroke: #555; stroke-width: 0.8; fill: none; }
  .fw { stroke: #0066cc; stroke-width: 2.2; fill: none; }
  .nt { stroke: #cc6600; stroke-width: 1.6; fill: none; stroke-dasharray: 5,3; }
  .mond { stroke: #7b2cbf; stroke-width: 1.8; fill: none; stroke-dasharray: 7,3; }
  .lbl-p { fill: #cc7000; }
  .lbl-m { fill: #7b2cbf; }
  .rho { stroke: #b03030; stroke-width: 2.0; fill: none; }
  .phot { stroke: #cc7000; stroke-width: 1.8; fill: none; }
  .mbar { stroke: #8e44ad; stroke-width: 1.8; fill: none; opacity: 0.9; }
  .mph { stroke: #c77dff; stroke-width: 1.6; fill: none; stroke-dasharray: 4,3; opacity: 0.95; }
  .title { fill: #111; font-size: 16px; font-weight: 600; }
  .subtitle { fill: #555; font-size: 11px; }
  .preview-bg { fill: #000; }
  .preview-lbl { fill: #888; font-size: 10px; }
  .legend { font-size: 11px; }
</style>
<text x="378.5" y="22" text-anchor="middle" class="title">NGC4559</text>
<text x="378.5" y="38" text-anchor="middle" class="subtitle">rMax=21.0 kpc, N=32, FW=1.6 km/s, 1.9%, 0.29σ, MOND=18.6 km/s, 16.9%, 3.72σ, amp=105</text>
<line x1="70" y1="395.0" x2="687" y2="395.0" class="grid"/>
<text x="64" y="399.0" text-anchor="end" class="lbl-l">0</text>
<line x1="70" y1="327.0" x2="687" y2="327.0" class="grid"/>
<text x="64" y="331.0" text-anchor="end" class="lbl-l">32</text>
<line x1="70" y1="259.0" x2="687" y2="259.0" class="grid"/>
<text x="64" y="263.0" text-anchor="end" class="lbl-l">65</text>
<line x1="70" y1="191.0" x2="687" y2="191.0" class="grid"/>
<text x="64" y="195.0" text-anchor="end" class="lbl-l">97</text>
<line x1="70" y1="123.0" x2="687" y2="123.0" class="grid"/>
<text x="64" y="127.0" text-anchor="end" class="lbl-l">130</text>
<line x1="70" y1="55.0" x2="687" y2="55.0" class="grid"/>
<text x="64" y="59.0" text-anchor="end" class="lbl-l">162</text>
<text x="693" y="399.0" text-anchor="start" class="lbl-r">0.0</text>
<text x="693" y="353.7" text-anchor="start" class="lbl-r">0.2</text>
<text x="693" y="308.3" text-anchor="start" class="lbl-r">0.4</text>
<text x="693" y="263.0" text-anchor="start" class="lbl-r">0.6</text>
<text x="693" y="217.7" text-anchor="start" class="lbl-r">0.8</text>
<text x="693" y="172.3" text-anchor="start" class="lbl-r">1.0</text>
<line x1="70.0" y1="55" x2="70.0" y2="395" class="grid"/>
<text x="70.0" y="411" text-anchor="middle" class="lbl">0.0</text>
<line x1="172.8" y1="55" x2="172.8" y2="395" class="grid"/>
<text x="172.8" y="411" text-anchor="middle" class="lbl">3.6</text>
<line x1="275.7" y1="55" x2="275.7" y2="395" class="grid"/>
<text x="275.7" y="411" text-anchor="middle" class="lbl">7.2</text>
<line x1="378.5" y1="55" x2="378.5" y2="395" class="grid"/>
<text x="378.5" y="411" text-anchor="middle" class="lbl">10.9</text>
<line x1="481.3" y1="55" x2="481.3" y2="395" class="grid"/>
<text x="481.3" y="411" text-anchor="middle" class="lbl">14.5</text>
<line x1="584.2" y1="55" x2="584.2" y2="395" class="grid"/>
<text x="584.2" y="411" text-anchor="middle" class="lbl">18.1</text>
<line x1="687.0" y1="55" x2="687.0" y2="395" class="grid"/>
<text x="687.0" y="411" text-anchor="middle" class="lbl">21.7</text>
<text x="378.5" y="438" text-anchor="middle" class="lbl">radius (kpc)</text>
<text x="16" y="225" text-anchor="middle" class="lbl-l" transform="rotate(-90, 16, 225)">velocity (km/s)</text>
<text x="724" y="225" text-anchor="middle" class="lbl-r" transform="rotate(-90, 724, 225)">profiles (normalized to peak)</text>
<rect x="70" y="55" width="617" height="340" class="ax"/>
<path d="M 70.0,168.3 L 72.8,177.0 L 75.6,185.8 L 78.5,194.5 L 81.3,203.2 L 84.1,211.9 L 86.9,220.6 L 89.7,229.3 L 92.5,238.0 L 95.4,246.7 L 98.2,255.4 L 101.0,264.1 L 103.8,272.8 L 106.6,281.6 L 109.4,283.6 L 112.3,284.6 L 115.1,285.6 L 117.9,286.6 L 120.7,287.6 L 123.5,288.6 L 126.3,289.6 L 129.2,290.6 L 132.0,291.6 L 134.8,292.6 L 137.6,293.6 L 140.4,294.6 L 143.3,295.7 L 146.1,296.7 L 148.9,297.7 L 151.7,298.7 L 154.5,299.7 L 157.3,300.7 L 160.2,301.7 L 163.0,302.7 L 165.8,303.7 L 168.6,304.7 L 171.4,305.7 L 174.2,306.7 L 177.1,307.7 L 179.9,308.7 L 182.7,309.7 L 185.5,310.7 L 188.3,311.7 L 191.1,312.8 L 194.0,313.8 L 196.8,314.8 L 199.6,315.8 L 202.4,316.8 L 205.2,317.8 L 208.1,318.8 L 210.9,319.8 L 213.7,320.8 L 216.5,321.6 L 219.3,322.2 L 222.1,322.9 L 225.0,323.6 L 227.8,324.3 L 230.6,325.0 L 233.4,325.7 L 236.2,326.1 L 239.0,326.4 L 241.9,326.7 L 244.7,326.9 L 247.5,327.2 L 250.3,327.5 L 253.1,327.8 L 255.9,328.1 L 258.8,328.4 L 261.6,328.7 L 264.4,328.9 L 267.2,329.2 L 270.0,329.5 L 272.8,329.8 L 275.7,330.1 L 278.5,330.4 L 281.3,330.7 L 284.1,330.9 L 286.9,331.2 L 289.8,331.5 L 292.6,331.8 L 295.4,332.1 L 298.2,332.4 L 301.0,332.7 L 303.8,333.0 L 306.7,333.2 L 309.5,333.5 L 312.3,333.8 L 315.1,334.1 L 317.9,334.4 L 320.7,334.7 L 323.6,335.0 L 326.4,335.2 L 329.2,335.5 L 332.0,335.8 L 334.8,336.1 L 337.6,336.4 L 340.5,336.7 L 343.3,337.0 L 346.1,337.2 L 348.9,337.5 L 351.7,337.8 L 354.6,338.1 L 357.4,338.4 L 360.2,338.7 L 363.0,339.0 L 365.8,339.2 L 368.6,339.5 L 371.5,339.8 L 374.3,340.1 L 377.1,340.4 L 379.9,340.7 L 382.7,341.0 L 385.5,341.3 L 388.4,341.5 L 391.2,341.8 L 394.0,342.1 L 396.8,342.4 L 399.6,342.7 L 402.4,343.0 L 405.3,343.3 L 408.1,343.5 L 410.9,343.8 L 413.7,344.1 L 416.5,344.4 L 419.4,344.7 L 422.2,345.0 L 425.0,345.3 L 427.8,345.5 L 430.6,345.8 L 433.4,346.1 L 436.3,346.4 L 439.1,346.7 L 441.9,347.0 L 444.7,347.3 L 447.5,347.5 L 450.3,347.8 L 453.2,348.1 L 456.0,348.4 L 458.8,348.7 L 461.6,349.0 L 464.4,349.3 L 467.2,349.6 L 470.1,349.8 L 472.9,350.1 L 475.7,350.4 L 478.5,350.7 L 481.3,351.0 L 484.2,351.3 L 487.0,351.6 L 489.8,351.8 L 492.6,352.1 L 495.4,352.4 L 498.2,352.7 L 501.1,353.0 L 503.9,353.3 L 506.7,353.6 L 509.5,353.8 L 512.3,354.1 L 515.1,354.4 L 518.0,354.7 L 520.8,355.0 L 523.6,355.3 L 526.4,355.6 L 529.2,355.8 L 532.0,356.1 L 534.9,356.4 L 537.7,356.7 L 540.5,357.0 L 543.3,357.3 L 546.1,357.6 L 548.9,357.9 L 551.8,358.1 L 554.6,358.4 L 557.4,358.7 L 560.2,359.0 L 563.0,359.3 L 565.9,359.6 L 568.7,359.9 L 571.5,360.1 L 574.3,360.4 L 577.1,360.7 L 579.9,361.0 L 582.8,361.3 L 585.6,361.6 L 588.4,361.9 L 591.2,362.1 L 594.0,362.4 L 596.8,362.7 L 599.7,363.0 L 602.5,363.3 L 605.3,363.6 L 608.1,363.9 L 610.9,364.1 L 613.7,364.4 L 616.6,364.7 L 619.4,365.0 L 622.2,365.3 L 625.0,365.6 L 627.8,365.9 L 630.7,366.2 L 633.5,366.4 L 636.3,366.7 L 639.1,367.0 L 641.9,367.3 L 644.7,367.6 L 647.6,367.9 L 650.4,373.1 L 653.2,381.6 L 656.0,390.1 L 658.8,395.0 L 661.6,395.0 L 664.5,395.0 L 667.3,395.0 L 670.1,395.0 L 672.9,395.0 L 675.7,395.0 L 678.5,395.0 L 681.4,395.0 L 684.2,395.0 L 687.0,395.0" class="rho"/>
<path d="M 89.0,168.3 L 107.5,260.4 L 126.0,294.6 L 144.4,315.9 L 163.2,328.1 L 181.7,345.2 L 200.1,362.6 L 218.3,369.8 L 237.7,376.5 L 255.8,381.4 L 274.3,382.8 L 293.6,384.7 L 311.8,387.4 L 330.3,390.3 L 349.6,392.6 L 367.8,393.2 L 386.3,393.7 L 404.7,394.0 L 423.2,394.3 L 441.7,394.4 L 460.1,394.6 L 478.6,394.8 L 497.1,394.8 L 515.6,394.8 L 534.0,394.8 L 552.5,394.9 L 573.5,394.9 L 589.4,394.9 L 610.5,395.0 L 628.9,395.0 L 647.4,395.0 L 665.9,395.0" class="phot"/>
<path d="M 89.0,168.3 L 107.5,198.8 L 126.0,228.6 L 144.4,243.2 L 163.2,244.5 L 181.7,257.4 L 200.1,293.4 L 218.3,324.8 L 237.7,341.6 L 255.8,354.5 L 274.3,358.1 L 293.6,352.7 L 311.8,355.3 L 330.3,368.1 L 349.6,378.9 L 367.8,382.7 L 386.3,384.4 L 404.7,387.6 L 423.2,389.0 L 441.7,386.5 L 460.1,383.9 L 478.6,384.5 L 497.1,385.4 L 515.6,383.2 L 534.0,380.9 L 552.5,381.0 L 573.5,381.3 L 589.4,381.5 L 610.5,383.2 L 628.9,386.0 L 647.4,388.7 L 665.9,390.9" class="mbar"/>
<path d="M 89.0,168.3 L 107.5,177.2 L 126.0,187.0 L 144.4,192.6 L 163.2,193.4 L 181.7,199.2 L 200.1,215.6 L 218.3,232.2 L 237.7,244.4 L 255.8,256.0 L 274.3,261.5 L 293.6,260.4 L 311.8,264.8 L 330.3,277.4 L 349.6,289.6 L 367.8,296.4 L 386.3,301.3 L 404.7,307.9 L 423.2,312.4 L 441.7,311.8 L 460.1,310.3 L 478.6,312.8 L 497.1,315.5 L 515.6,313.3 L 534.0,310.6 L 552.5,311.3 L 573.5,312.5 L 589.4,313.3 L 610.5,316.9 L 628.9,322.4 L 647.4,328.3 L 665.9,333.1" class="mph"/>
<path d="M 76.2,333.6 L 82.3,310.8 L 88.5,295.2 L 94.7,283.7 L 100.8,275.1 L 107.0,268.9 L 113.2,263.6 L 119.4,258.2 L 125.5,252.9 L 131.7,247.8 L 137.9,242.9 L 144.0,238.2 L 150.2,233.7 L 156.4,229.4 L 162.6,225.4 L 168.7,221.5 L 174.9,217.9 L 181.1,214.4 L 187.2,211.2 L 193.4,208.1 L 199.6,205.2 L 205.7,202.4 L 211.9,199.8 L 218.1,197.4 L 224.3,195.0 L 230.4,192.8 L 236.6,190.6 L 242.8,188.4 L 248.9,186.3 L 255.1,184.2 L 261.3,182.1 L 267.4,180.1 L 273.6,178.1 L 279.8,176.1 L 285.9,174.1 L 292.1,172.2 L 298.3,170.3 L 304.5,168.5 L 310.6,166.6 L 316.8,164.9 L 323.0,163.1 L 329.1,161.4 L 335.3,159.7 L 341.5,158.0 L 347.7,156.4 L 353.8,154.8 L 360.0,153.3 L 366.2,151.8 L 372.3,150.3 L 378.5,148.8 L 384.7,147.4 L 390.8,146.0 L 397.0,144.7 L 403.2,143.3 L 409.4,142.0 L 415.5,140.8 L 421.7,139.6 L 427.9,138.4 L 434.0,137.2 L 440.2,136.1 L 446.4,135.0 L 452.5,133.9 L 458.7,132.8 L 464.9,131.8 L 471.1,130.8 L 477.2,129.9 L 483.4,128.9 L 489.6,128.0 L 495.7,127.2 L 501.9,126.3 L 508.1,125.5 L 514.2,124.7 L 520.4,124.0 L 526.6,123.2 L 532.8,122.5 L 538.9,121.8 L 545.1,121.2 L 551.3,120.6 L 557.4,120.0 L 563.6,119.4 L 569.8,118.8 L 575.9,118.3 L 582.1,117.8 L 588.3,117.4 L 594.4,116.9 L 600.6,116.5 L 606.8,116.1 L 613.0,115.8 L 619.1,115.4 L 625.3,115.1 L 631.5,114.8 L 637.6,114.6 L 643.8,114.4 L 650.0,114.2 L 656.1,114.7 L 662.3,116.2 L 668.5,117.7 L 674.7,119.1 L 680.8,120.5 L 687.0,121.8" class="nt"/>
<path d="M 89.0,279.1 L 107.5,241.2 L 126.0,213.4 L 144.4,192.3 L 163.2,169.9 L 181.7,150.4 L 200.1,140.0 L 218.3,134.4 L 237.7,128.6 L 255.8,125.9 L 274.3,123.3 L 293.6,117.3 L 311.8,112.1 L 330.3,109.7 L 349.6,109.0 L 367.8,108.6 L 386.3,107.7 L 404.7,107.8 L 423.2,108.1 L 441.7,107.5 L 460.1,105.8 L 478.6,104.3 L 497.1,103.5 L 515.6,101.5 L 534.0,98.8 L 552.5,96.2 L 573.5,93.5 L 589.4,91.1 L 610.5,88.7 L 628.9,87.1 L 647.4,86.2 L 665.9,85.9" class="mond"/>
<path d="M 75.1,365.9 L 80.3,345.1 L 85.4,323.4 L 90.6,303.9 L 95.7,287.1 L 100.8,273.5 L 106.0,262.4 L 111.1,253.5 L 116.3,246.2 L 121.4,239.9 L 126.6,234.2 L 131.7,228.8 L 136.8,223.6 L 142.0,218.5 L 147.1,213.5 L 152.3,208.7 L 157.4,204.0 L 162.6,199.6 L 167.7,195.3 L 172.8,191.3 L 178.0,187.6 L 183.1,184.2 L 188.3,181.1 L 193.4,178.3 L 198.5,175.9 L 203.7,173.9 L 208.8,172.2 L 214.0,170.9 L 219.1,169.8 L 224.3,169.0 L 229.4,168.4 L 234.5,168.0 L 239.7,167.6 L 244.8,167.2 L 250.0,166.8 L 255.1,166.3 L 260.2,165.7 L 265.4,165.1 L 270.5,164.4 L 275.7,163.6 L 280.8,162.8 L 285.9,161.9 L 291.1,161.0 L 296.2,160.1 L 301.4,159.1 L 306.5,158.1 L 311.7,157.1 L 316.8,156.1 L 321.9,155.2 L 327.1,154.2 L 332.2,153.2 L 337.4,152.2 L 342.5,151.3 L 347.6,150.3 L 352.8,149.4 L 357.9,148.5 L 363.1,147.6 L 368.2,146.8 L 373.4,145.9 L 378.5,145.1 L 383.6,144.4 L 388.8,143.6 L 393.9,142.9 L 399.1,142.2 L 404.2,141.6 L 409.4,141.0 L 414.5,140.4 L 419.6,139.9 L 424.8,139.3 L 429.9,138.9 L 435.1,138.4 L 440.2,138.0 L 445.3,137.6 L 450.5,137.3 L 455.6,137.0 L 460.8,136.7 L 465.9,136.5 L 471.1,136.3 L 476.2,136.1 L 481.3,136.0 L 486.5,135.9 L 491.6,135.8 L 496.8,135.7 L 501.9,135.7 L 507.0,135.8 L 512.2,135.8 L 517.3,135.9 L 522.5,136.0 L 527.6,136.1 L 532.8,136.2 L 537.9,136.4 L 543.0,136.5 L 548.2,136.7 L 553.3,136.9 L 558.5,137.1 L 563.6,137.3 L 568.7,137.5 L 573.9,137.6 L 579.0,137.8 L 584.2,137.9 L 589.3,137.9 L 594.5,137.9 L 599.6,137.9 L 604.7,137.7 L 609.9,137.5 L 615.0,137.1 L 620.2,136.7 L 625.3,136.3 L 630.4,135.9 L 635.6,135.7 L 640.7,136.0 L 645.9,136.9 L 651.0,138.7 L 656.1,141.5 L 661.3,145.2 L 666.4,149.6 L 671.6,154.4 L 676.7,159.5 L 681.9,164.5 L 687.0,169.4" class="fw"/>
<line x1="89.04" y1="280.49" x2="89.04" y2="326.13" class="err"/>
<line x1="86.04" y1="280.49" x2="92.04" y2="280.49" class="err"/>
<line x1="86.04" y1="326.13" x2="92.04" y2="326.13" class="err"/>
<circle cx="89.04" cy="303.31" r="2.5" class="obs"/>
<line x1="107.51" y1="244.47" x2="107.51" y2="276.75" class="err"/>
<line x1="104.51" y1="244.47" x2="110.51" y2="244.47" class="err"/>
<line x1="104.51" y1="276.75" x2="110.51" y2="276.75" class="err"/>
<circle cx="107.51" cy="260.61" r="2.5" class="obs"/>
<line x1="125.98" y1="223.51" x2="125.98" y2="259.60" class="err"/>
<line x1="122.98" y1="223.51" x2="128.98" y2="223.51" class="err"/>
<line x1="122.98" y1="259.60" x2="128.98" y2="259.60" class="err"/>
<circle cx="125.98" cy="241.56" r="2.5" class="obs"/>
<line x1="144.45" y1="201.15" x2="144.45" y2="236.32" class="err"/>
<line x1="141.45" y1="201.15" x2="147.45" y2="201.15" class="err"/>
<line x1="141.45" y1="236.32" x2="147.45" y2="236.32" class="err"/>
<circle cx="144.45" cy="218.74" r="2.5" class="obs"/>
<line x1="163.20" y1="181.75" x2="163.20" y2="205.49" class="err"/>
<line x1="160.20" y1="181.75" x2="166.20" y2="181.75" class="err"/>
<line x1="160.20" y1="205.49" x2="166.20" y2="205.49" class="err"/>
<circle cx="163.20" cy="193.62" r="2.5" class="obs"/>
<line x1="181.67" y1="171.45" x2="181.67" y2="191.50" class="err"/>
<line x1="178.67" y1="171.45" x2="184.67" y2="171.45" class="err"/>
<line x1="178.67" y1="191.50" x2="184.67" y2="191.50" class="err"/>
<circle cx="181.67" cy="181.48" r="2.5" class="obs"/>
<line x1="200.14" y1="165.42" x2="200.14" y2="189.16" class="err"/>
<line x1="197.14" y1="165.42" x2="203.14" y2="165.42" class="err"/>
<line x1="197.14" y1="189.16" x2="203.14" y2="189.16" class="err"/>
<circle cx="200.14" cy="177.29" r="2.5" class="obs"/>
<line x1="218.33" y1="161.86" x2="218.33" y2="184.34" class="err"/>
<line x1="215.33" y1="161.86" x2="221.33" y2="161.86" class="err"/>
<line x1="215.33" y1="184.34" x2="221.33" y2="184.34" class="err"/>
<circle cx="218.33" cy="173.10" r="2.5" class="obs"/>
<line x1="237.65" y1="162.13" x2="237.65" y2="184.07" class="err"/>
<line x1="234.65" y1="162.13" x2="240.65" y2="162.13" class="err"/>
<line x1="234.65" y1="184.07" x2="240.65" y2="184.07" class="err"/>
<circle cx="237.65" cy="173.10" r="2.5" class="obs"/>
<line x1="255.84" y1="157.99" x2="255.84" y2="179.84" class="err"/>
<line x1="252.84" y1="157.99" x2="258.84" y2="157.99" class="err"/>
<line x1="252.84" y1="179.84" x2="258.84" y2="179.84" class="err"/>
<circle cx="255.84" cy="168.92" r="2.5" class="obs"/>
<line x1="274.31" y1="152.84" x2="274.31" y2="172.43" class="err"/>
<line x1="271.31" y1="152.84" x2="277.31" y2="152.84" class="err"/>
<line x1="271.31" y1="172.43" x2="277.31" y2="172.43" class="err"/>
<circle cx="274.31" cy="162.64" r="2.5" class="obs"/>
<line x1="293.63" y1="146.71" x2="293.63" y2="166.01" class="err"/>
<line x1="290.63" y1="146.71" x2="296.63" y2="146.71" class="err"/>
<line x1="290.63" y1="166.01" x2="296.63" y2="166.01" class="err"/>
<circle cx="293.63" cy="156.36" r="2.5" class="obs"/>
<line x1="311.82" y1="142.81" x2="311.82" y2="161.53" class="err"/>
<line x1="308.82" y1="142.81" x2="314.82" y2="142.81" class="err"/>
<line x1="308.82" y1="161.53" x2="314.82" y2="161.53" class="err"/>
<circle cx="311.82" cy="152.17" r="2.5" class="obs"/>
<line x1="330.29" y1="139.15" x2="330.29" y2="161.00" class="err"/>
<line x1="327.29" y1="139.15" x2="333.29" y2="139.15" class="err"/>
<line x1="327.29" y1="161.00" x2="333.29" y2="161.00" class="err"/>
<circle cx="330.29" cy="150.08" r="2.5" class="obs"/>
<line x1="349.61" y1="137.05" x2="349.61" y2="158.91" class="err"/>
<line x1="346.61" y1="137.05" x2="352.61" y2="137.05" class="err"/>
<line x1="346.61" y1="158.91" x2="352.61" y2="158.91" class="err"/>
<circle cx="349.61" cy="147.98" r="2.5" class="obs"/>
<line x1="367.80" y1="134.38" x2="367.80" y2="153.22" class="err"/>
<line x1="364.80" y1="134.38" x2="370.80" y2="134.38" class="err"/>
<line x1="364.80" y1="153.22" x2="370.80" y2="153.22" class="err"/>
<circle cx="367.80" cy="143.80" r="2.5" class="obs"/>
<line x1="386.27" y1="134.12" x2="386.27" y2="149.28" class="err"/>
<line x1="383.27" y1="134.12" x2="389.27" y2="134.12" class="err"/>
<line x1="383.27" y1="149.28" x2="389.27" y2="149.28" class="err"/>
<circle cx="386.27" cy="141.70" r="2.5" class="obs"/>
<line x1="404.74" y1="132.97" x2="404.74" y2="146.24" class="err"/>
<line x1="401.74" y1="132.97" x2="407.74" y2="132.97" class="err"/>
<line x1="401.74" y1="146.24" x2="407.74" y2="146.24" class="err"/>
<circle cx="404.74" cy="139.61" r="2.5" class="obs"/>
<line x1="423.21" y1="133.87" x2="423.21" y2="145.34" class="err"/>
<line x1="420.21" y1="133.87" x2="426.21" y2="133.87" class="err"/>
<line x1="420.21" y1="145.34" x2="426.21" y2="145.34" class="err"/>
<circle cx="423.21" cy="139.61" r="2.5" class="obs"/>
<line x1="441.68" y1="132.95" x2="441.68" y2="146.27" class="err"/>
<line x1="438.68" y1="132.95" x2="444.68" y2="132.95" class="err"/>
<line x1="438.68" y1="146.27" x2="444.68" y2="146.27" class="err"/>
<circle cx="441.68" cy="139.61" r="2.5" class="obs"/>
<line x1="460.15" y1="130.06" x2="460.15" y2="144.97" class="err"/>
<line x1="457.15" y1="130.06" x2="463.15" y2="130.06" class="err"/>
<line x1="457.15" y1="144.97" x2="463.15" y2="144.97" class="err"/>
<circle cx="460.15" cy="137.52" r="2.5" class="obs"/>
<line x1="478.62" y1="126.40" x2="478.62" y2="144.44" class="err"/>
<line x1="475.62" y1="126.40" x2="481.62" y2="126.40" class="err"/>
<line x1="475.62" y1="144.44" x2="481.62" y2="144.44" class="err"/>
<circle cx="478.62" cy="135.42" r="2.5" class="obs"/>
<line x1="497.09" y1="125.46" x2="497.09" y2="145.39" class="err"/>
<line x1="494.09" y1="125.46" x2="500.09" y2="125.46" class="err"/>
<line x1="494.09" y1="145.39" x2="500.09" y2="145.39" class="err"/>
<circle cx="497.09" cy="135.42" r="2.5" class="obs"/>
<line x1="515.56" y1="126.57" x2="515.56" y2="148.46" class="err"/>
<line x1="512.56" y1="126.57" x2="518.56" y2="126.57" class="err"/>
<line x1="512.56" y1="148.46" x2="518.56" y2="148.46" class="err"/>
<circle cx="515.56" cy="137.52" r="2.5" class="obs"/>
<line x1="534.03" y1="125.67" x2="534.03" y2="149.36" class="err"/>
<line x1="531.03" y1="125.67" x2="537.03" y2="125.67" class="err"/>
<line x1="531.03" y1="149.36" x2="537.03" y2="149.36" class="err"/>
<circle cx="534.03" cy="137.52" r="2.5" class="obs"/>
<line x1="552.50" y1="125.75" x2="552.50" y2="149.28" class="err"/>
<line x1="549.50" y1="125.75" x2="555.50" y2="125.75" class="err"/>
<line x1="549.50" y1="149.28" x2="555.50" y2="149.28" class="err"/>
<circle cx="552.50" cy="137.52" r="2.5" class="obs"/>
<line x1="573.52" y1="129.83" x2="573.52" y2="153.57" class="err"/>
<line x1="570.52" y1="129.83" x2="576.52" y2="129.83" class="err"/>
<line x1="570.52" y1="153.57" x2="576.52" y2="153.57" class="err"/>
<circle cx="573.52" cy="141.70" r="2.5" class="obs"/>
<line x1="589.44" y1="126.38" x2="589.44" y2="152.84" class="err"/>
<line x1="586.44" y1="126.38" x2="592.44" y2="126.38" class="err"/>
<line x1="586.44" y1="152.84" x2="592.44" y2="152.84" class="err"/>
<circle cx="589.44" cy="139.61" r="2.5" class="obs"/>
<line x1="610.47" y1="126.32" x2="610.47" y2="152.90" class="err"/>
<line x1="607.47" y1="126.32" x2="613.47" y2="126.32" class="err"/>
<line x1="607.47" y1="152.90" x2="613.47" y2="152.90" class="err"/>
<circle cx="610.47" cy="139.61" r="2.5" class="obs"/>
<line x1="628.94" y1="129.43" x2="628.94" y2="153.97" class="err"/>
<line x1="625.94" y1="129.43" x2="631.94" y2="129.43" class="err"/>
<line x1="625.94" y1="153.97" x2="631.94" y2="153.97" class="err"/>
<circle cx="628.94" cy="141.70" r="2.5" class="obs"/>
<line x1="647.41" y1="131.36" x2="647.41" y2="156.23" class="err"/>
<line x1="644.41" y1="131.36" x2="650.41" y2="131.36" class="err"/>
<line x1="644.41" y1="156.23" x2="650.41" y2="156.23" class="err"/>
<circle cx="647.41" cy="143.80" r="2.5" class="obs"/>
<line x1="665.88" y1="133.06" x2="665.88" y2="158.72" class="err"/>
<line x1="662.88" y1="133.06" x2="668.88" y2="133.06" class="err"/>
<line x1="662.88" y1="158.72" x2="668.88" y2="158.72" class="err"/>
<circle cx="665.88" cy="145.89" r="2.5" class="obs"/>
<g class="legend">
<line x1="82" y1="69" x2="106" y2="69" class="fw"/>
<text x="112" y="73" class="lbl-l">framework: 1.6 km/s, 1.9%, 0.29σ</text>
<line x1="82" y1="87" x2="106" y2="87" class="nt"/>
<text x="112" y="91" class="lbl-l">Newtonian: 8.6 km/s, 8.1%, 1.55σ</text>
<line x1="82" y1="105" x2="106" y2="105" class="mond"/>
<text x="112" y="109" class="lbl-m">MOND/RAR: 18.6 km/s, 16.9%, 3.72σ</text>
<circle cx="94" cy="123" r="2.5" class="obs"/>
<text x="112" y="127" class="lbl">observed V±err</text>
</g>
<g class="legend">
<line x1="472" y1="69" x2="496" y2="69" class="rho"/>
<text x="502" y="73" class="lbl-r">ρ(r) raw</text>
<line x1="472" y1="87" x2="496" y2="87" class="phot"/>
<text x="502" y="91" class="lbl-p">photometric baryonic profile</text>
<line x1="472" y1="105" x2="496" y2="105" class="mbar"/>
<text x="502" y="109" class="lbl-m">MOND baryonic annulus</text>
<line x1="472" y1="123" x2="496" y2="123" class="mph"/>
<text x="502" y="127" class="lbl-m">MOND phantom annulus</text>
<text x="472" y="147" class="lbl-r">ρ peak: 311 M☉/pc²</text>
<text x="472" y="163" class="lbl-p">phot peak: 261.99 (arb.)</text>
<text x="472" y="179" class="lbl-m">Σbar peak: 182.18 M☉/pc²</text>
<text x="472" y="195" class="lbl-m">Σphantom peak: 144.45 M☉/pc²</text>
</g>
<rect x="775" y="55" width="170" height="170" class="preview-bg"/>
<defs><radialGradient id="g_NGC4559" cx="0.5" cy="0.5" r="0.5">
  <stop offset="0.0000" stop-color="rgb(121,121,121)"/>
  <stop offset="0.0313" stop-color="rgb(100,100,100)"/>
  <stop offset="0.0625" stop-color="rgb(79,79,79)"/>
  <stop offset="0.0938" stop-color="rgb(76,76,76)"/>
  <stop offset="0.1250" stop-color="rgb(74,74,74)"/>
  <stop offset="0.1563" stop-color="rgb(71,71,71)"/>
  <stop offset="0.1875" stop-color="rgb(69,69,69)"/>
  <stop offset="0.2188" stop-color="rgb(66,66,66)"/>
  <stop offset="0.2500" stop-color="rgb(64,64,64)"/>
  <stop offset="0.2813" stop-color="rgb(60,60,60)"/>
  <stop offset="0.3125" stop-color="rgb(59,59,59)"/>
  <stop offset="0.3438" stop-color="rgb(57,57,57)"/>
  <stop offset="0.3750" stop-color="rgb(55,55,55)"/>
  <stop offset="0.4063" stop-color="rgb(54,54,54)"/>
  <stop offset="0.4375" stop-color="rgb(52,52,52)"/>
  <stop offset="0.4688" stop-color="rgb(51,51,51)"/>
  <stop offset="0.5000" stop-color="rgb(49,49,49)"/>
  <stop offset="0.5313" stop-color="rgb(47,47,47)"/>
  <stop offset="0.5625" stop-color="rgb(46,46,46)"/>
  <stop offset="0.5938" stop-color="rgb(44,44,44)"/>
  <stop offset="0.6250" stop-color="rgb(42,42,42)"/>
  <stop offset="0.6563" stop-color="rgb(41,41,41)"/>
  <stop offset="0.6875" stop-color="rgb(39,39,39)"/>
  <stop offset="0.7188" stop-color="rgb(37,37,37)"/>
  <stop offset="0.7500" stop-color="rgb(36,36,36)"/>
  <stop offset="0.7813" stop-color="rgb(34,34,34)"/>
  <stop offset="0.8125" stop-color="rgb(33,33,33)"/>
  <stop offset="0.8438" stop-color="rgb(31,31,31)"/>
  <stop offset="0.8750" stop-color="rgb(29,29,29)"/>
  <stop offset="0.9063" stop-color="rgb(28,28,28)"/>
  <stop offset="0.9375" stop-color="rgb(26,26,26)"/>
  <stop offset="0.9688" stop-color="rgb(24,24,24)"/>
  <stop offset="1.0000" stop-color="rgb(0,0,0)"/>
</radialGradient></defs>
<circle cx="860" cy="140" r="81" fill="url(#g_NGC4559)"/>
<text x="860" y="49" text-anchor="middle" class="preview-lbl">face-on luminance from ρ(r)</text>
<text x="860" y="239" text-anchor="middle" class="preview-lbl">edge at r = 20.7 kpc</text>
</svg>