<svg xmlns="http://www.w3.org/2000/svg" viewBox="0 0 890 420" width="890" height="420" font-family="sans-serif" font-size="12">
<style>
  .ax { stroke: #333; stroke-width: 1; fill: none; }
  .grid { stroke: #ddd; stroke-width: 0.5; fill: none; }
  .lbl { fill: #333; }
  .lbl-l { fill: #0066cc; }
  .lbl-r { fill: #b03030; }
  .obs { fill: #222; }
  .err { stroke: #555; stroke-width: 0.8; fill: none; }
  .fw { stroke: #0066cc; stroke-width: 2.2; fill: none; }
  .nt { stroke: #cc6600; stroke-width: 1.6; fill: none; stroke-dasharray: 5,3; }
  .lbl-s { fill: #cc7000; }
  .rho { stroke: #b03030; stroke-width: 2.0; fill: none; }
  .sig { stroke: #cc7000; stroke-width: 1.8; fill: none; }
  .title { fill: #111; font-size: 16px; font-weight: 600; }
  .subtitle { fill: #555; font-size: 11px; }
  .preview-bg { fill: #000; }
  .preview-lbl { fill: #888; font-size: 10px; }
  .legend { font-size: 11px; }
</style>
<text x="343.5" y="22" text-anchor="middle" class="title">NGC4138</text>
<text x="343.5" y="38" text-anchor="middle" class="subtitle">rMax=18.6 kpc, N=7, RMS=1.2 km/s (0.7%), amp=103</text>
<line x1="70" y1="365.0" x2="617" y2="365.0" class="grid"/>
<text x="64" y="369.0" text-anchor="end" class="lbl-l">0</text>
<line x1="70" y1="303.0" x2="617" y2="303.0" class="grid"/>
<text x="64" y="307.0" text-anchor="end" class="lbl-l">44</text>
<line x1="70" y1="241.0" x2="617" y2="241.0" class="grid"/>
<text x="64" y="245.0" text-anchor="end" class="lbl-l">89</text>
<line x1="70" y1="179.0" x2="617" y2="179.0" class="grid"/>
<text x="64" y="183.0" text-anchor="end" class="lbl-l">133</text>
<line x1="70" y1="117.0" x2="617" y2="117.0" class="grid"/>
<text x="64" y="121.0" text-anchor="end" class="lbl-l">178</text>
<line x1="70" y1="55.0" x2="617" y2="55.0" class="grid"/>
<text x="64" y="59.0" text-anchor="end" class="lbl-l">222</text>
<text x="623" y="369.0" text-anchor="start" class="lbl-r">0.0</text>
<text x="623" y="327.7" text-anchor="start" class="lbl-r">0.2</text>
<text x="623" y="286.3" text-anchor="start" class="lbl-r">0.4</text>
<text x="623" y="245.0" text-anchor="start" class="lbl-r">0.6</text>
<text x="623" y="203.7" text-anchor="start" class="lbl-r">0.8</text>
<text x="623" y="162.3" text-anchor="start" class="lbl-r">1.0</text>
<line x1="70.0" y1="55" x2="70.0" y2="365" class="grid"/>
<text x="70.0" y="381" text-anchor="middle" class="lbl">0.0</text>
<line x1="161.2" y1="55" x2="161.2" y2="365" class="grid"/>
<text x="161.2" y="381" text-anchor="middle" class="lbl">3.2</text>
<line x1="252.3" y1="55" x2="252.3" y2="365" class="grid"/>
<text x="252.3" y="381" text-anchor="middle" class="lbl">6.4</text>
<line x1="343.5" y1="55" x2="343.5" y2="365" class="grid"/>
<text x="343.5" y="381" text-anchor="middle" class="lbl">9.6</text>
<line x1="434.7" y1="55" x2="434.7" y2="365" class="grid"/>
<text x="434.7" y="381" text-anchor="middle" class="lbl">12.8</text>
<line x1="525.8" y1="55" x2="525.8" y2="365" class="grid"/>
<text x="525.8" y="381" text-anchor="middle" class="lbl">16.0</text>
<line x1="617.0" y1="55" x2="617.0" y2="365" class="grid"/>
<text x="617.0" y="381" text-anchor="middle" class="lbl">19.2</text>
<text x="343.5" y="408" text-anchor="middle" class="lbl">radius (kpc)</text>
<text x="16" y="210" text-anchor="middle" class="lbl-l" transform="rotate(-90, 16, 210)">velocity (km/s)</text>
<text x="654" y="210" text-anchor="middle" class="lbl-r" transform="rotate(-90, 654, 210)">mass profile (normalized to peak)</text>
<rect x="70" y="55" width="547" height="310" class="ax"/>
<path d="M 70.0,158.3 L 72.5,158.3 L 75.0,158.3 L 77.5,158.3 L 80.0,158.3 L 82.5,158.3 L 85.0,158.3 L 87.5,158.3 L 90.0,158.3 L 92.5,158.3 L 95.0,158.3 L 97.5,158.3 L 100.0,158.3 L 102.5,158.3 L 105.0,158.3 L 107.5,158.3 L 110.0,158.3 L 112.5,158.3 L 115.0,160.7 L 117.5,164.7 L 120.0,168.7 L 122.5,172.8 L 124.9,176.8 L 127.4,180.8 L 129.9,184.9 L 132.4,188.9 L 134.9,192.9 L 137.4,197.0 L 139.9,201.0 L 142.4,205.0 L 144.9,209.0 L 147.4,213.1 L 149.9,217.1 L 152.4,221.1 L 154.9,225.2 L 157.4,229.2 L 159.9,233.2 L 162.4,237.3 L 164.9,241.3 L 167.4,245.3 L 169.9,249.4 L 172.4,253.4 L 174.9,257.4 L 177.4,261.5 L 179.9,265.5 L 182.4,269.5 L 184.9,273.6 L 187.4,277.6 L 189.9,281.6 L 192.4,283.6 L 194.9,284.2 L 197.4,284.7 L 199.9,285.3 L 202.4,285.9 L 204.9,286.5 L 207.4,287.1 L 209.9,287.6 L 212.4,288.2 L 214.9,288.8 L 217.4,289.4 L 219.9,290.0 L 222.4,290.5 L 224.9,291.1 L 227.4,291.7 L 229.9,292.3 L 232.4,292.9 L 234.8,293.4 L 237.3,294.0 L 239.8,294.6 L 242.3,295.2 L 244.8,295.8 L 247.3,296.3 L 249.8,296.9 L 252.3,297.5 L 254.8,298.1 L 257.3,298.7 L 259.8,299.2 L 262.3,299.8 L 264.8,300.4 L 267.3,301.0 L 269.8,301.6 L 272.3,302.2 L 274.8,302.7 L 277.3,303.3 L 279.8,303.9 L 282.3,304.5 L 284.8,305.1 L 287.3,305.6 L 289.8,306.2 L 292.3,306.8 L 294.8,307.4 L 297.3,308.0 L 299.8,308.5 L 302.3,309.1 L 304.8,309.7 L 307.3,310.3 L 309.8,310.9 L 312.3,311.4 L 314.8,312.0 L 317.3,312.6 L 319.8,313.2 L 322.3,313.8 L 324.8,314.3 L 327.3,314.9 L 329.8,315.5 L 332.3,316.1 L 334.8,316.7 L 337.3,317.2 L 339.8,317.8 L 342.3,318.4 L 344.7,319.0 L 347.2,319.6 L 349.7,320.1 L 352.2,320.7 L 354.7,321.3 L 357.2,321.9 L 359.7,322.5 L 362.2,322.6 L 364.7,322.7 L 367.2,322.8 L 369.7,322.8 L 372.2,322.9 L 374.7,323.0 L 377.2,323.0 L 379.7,323.1 L 382.2,323.1 L 384.7,323.2 L 387.2,323.3 L 389.7,323.3 L 392.2,323.4 L 394.7,323.5 L 397.2,323.5 L 399.7,323.6 L 402.2,323.7 L 404.7,323.7 L 407.2,323.8 L 409.7,323.9 L 412.2,323.9 L 414.7,324.0 L 417.2,324.0 L 419.7,324.1 L 422.2,324.2 L 424.7,324.2 L 427.2,324.3 L 429.7,324.4 L 432.2,324.4 L 434.7,324.5 L 437.2,324.6 L 439.7,324.6 L 442.2,324.7 L 444.7,324.7 L 447.2,324.8 L 449.7,324.9 L 452.2,324.9 L 454.6,325.0 L 457.1,325.1 L 459.6,325.1 L 462.1,325.2 L 464.6,325.3 L 467.1,325.3 L 469.6,325.4 L 472.1,325.4 L 474.6,325.5 L 477.1,325.6 L 479.6,325.6 L 482.1,325.7 L 484.6,325.8 L 487.1,325.8 L 489.6,325.9 L 492.1,326.0 L 494.6,326.0 L 497.1,326.1 L 499.6,326.1 L 502.1,326.2 L 504.6,326.3 L 507.1,326.3 L 509.6,326.4 L 512.1,326.5 L 514.6,326.5 L 517.1,326.6 L 519.6,326.7 L 522.1,326.7 L 524.6,326.8 L 527.1,326.9 L 529.6,326.9 L 532.1,327.0 L 534.6,327.0 L 537.1,327.1 L 539.6,327.2 L 542.1,327.2 L 544.6,327.3 L 547.1,327.4 L 549.6,327.4 L 552.1,327.5 L 554.6,327.6 L 557.1,327.6 L 559.6,327.7 L 562.1,327.7 L 564.5,327.8 L 567.0,327.9 L 569.5,327.9 L 572.0,328.5 L 574.5,333.4 L 577.0,338.2 L 579.5,343.0 L 582.0,347.8 L 584.5,352.6 L 587.0,357.4 L 589.5,362.2 L 592.0,365.0 L 594.5,365.0 L 597.0,365.0 L 599.5,365.0 L 602.0,365.0 L 604.5,365.0 L 607.0,365.0 L 609.5,365.0 L 612.0,365.0 L 614.5,365.0 L 617.0,365.0" class="rho"/>
<path d="M 70.0,158.3 L 72.5,158.5 L 75.0,158.6 L 77.5,158.9 L 80.0,159.3 L 82.5,159.7 L 85.0,160.3 L 87.5,161.0 L 90.0,161.8 L 92.5,162.7 L 95.0,163.7 L 97.5,164.8 L 100.0,166.0 L 102.5,167.4 L 105.0,168.8 L 107.5,170.4 L 110.0,172.1 L 112.5,173.8 L 115.0,175.7 L 117.5,177.6 L 120.0,179.7 L 122.5,181.8 L 124.9,184.0 L 127.4,186.3 L 129.9,188.6 L 132.4,191.0 L 134.9,193.4 L 137.4,195.9 L 139.9,198.4 L 142.4,200.9 L 144.9,203.4 L 147.4,205.9 L 149.9,208.5 L 152.4,211.0 L 154.9,213.5 L 157.4,216.0 L 159.9,218.5 L 162.4,221.0 L 164.9,223.4 L 167.4,225.8 L 169.9,228.2 L 172.4,230.5 L 174.9,232.8 L 177.4,235.0 L 179.9,237.2 L 182.4,239.4 L 184.9,241.5 L 187.4,243.5 L 189.9,245.5 L 192.4,247.4 L 194.9,249.3 L 197.4,251.1 L 199.9,252.9 L 202.4,254.6 L 204.9,256.3 L 207.4,257.9 L 209.9,259.5 L 212.4,261.1 L 214.9,262.6 L 217.4,264.1 L 219.9,265.5 L 222.4,266.9 L 224.9,268.3 L 227.4,269.6 L 229.9,270.9 L 232.4,272.2 L 234.8,273.4 L 237.3,274.7 L 239.8,275.9 L 242.3,277.1 L 244.8,278.2 L 247.3,279.4 L 249.8,280.5 L 252.3,281.6 L 254.8,282.7 L 257.3,283.7 L 259.8,284.8 L 262.3,285.8 L 264.8,286.8 L 267.3,287.8 L 269.8,288.8 L 272.3,289.7 L 274.8,290.6 L 277.3,291.6 L 279.8,292.5 L 282.3,293.4 L 284.8,294.3 L 287.3,295.2 L 289.8,296.0 L 292.3,296.9 L 294.8,297.7 L 297.3,298.5 L 299.8,299.3 L 302.3,300.1 L 304.8,300.9 L 307.3,301.7 L 309.8,302.4 L 312.3,303.2 L 314.8,303.9 L 317.3,304.7 L 319.8,305.4 L 322.3,306.1 L 324.8,306.8 L 327.3,307.4 L 329.8,308.1 L 332.3,308.8 L 334.8,309.4 L 337.3,310.1 L 339.8,310.7 L 342.3,311.3 L 344.7,311.9 L 347.2,312.5 L 349.7,313.1 L 352.2,313.7 L 354.7,314.2 L 357.2,314.8 L 359.7,315.3 L 362.2,315.9 L 364.7,316.4 L 367.2,316.9 L 369.7,317.4 L 372.2,317.9 L 374.7,318.4 L 377.2,318.9 L 379.7,319.3 L 382.2,319.8 L 384.7,320.2 L 387.2,320.7 L 389.7,321.1 L 392.2,321.5 L 394.7,322.0 L 397.2,322.4 L 399.7,322.8 L 402.2,323.2 L 404.7,323.6 L 407.2,324.0 L 409.7,324.4 L 412.2,324.7 L 414.7,325.1 L 417.2,325.5 L 419.7,325.8 L 422.2,326.2 L 424.7,326.6 L 427.2,326.9 L 429.7,327.2 L 432.2,327.6 L 434.7,327.9 L 437.2,328.3 L 439.7,328.6 L 442.2,328.9 L 444.7,329.2 L 447.2,329.6 L 449.7,329.9 L 452.2,330.2 L 454.6,330.5 L 457.1,330.8 L 459.6,331.1 L 462.1,331.4 L 464.6,331.7 L 467.1,332.0 L 469.6,332.3 L 472.1,332.6 L 474.6,332.9 L 477.1,333.1 L 479.6,333.4 L 482.1,333.7 L 484.6,334.0 L 487.1,334.3 L 489.6,334.5 L 492.1,334.8 L 494.6,335.1 L 497.1,335.4 L 499.6,335.6 L 502.1,335.9 L 504.6,336.2 L 507.1,336.4 L 509.6,336.7 L 512.1,337.0 L 514.6,337.2 L 517.1,337.5 L 519.6,337.8 L 522.1,338.0 L 524.6,338.3 L 527.1,338.6 L 529.6,338.8 L 532.1,339.1 L 534.6,339.4 L 537.1,339.6 L 539.6,339.9 L 542.1,340.2 L 544.6,340.5 L 547.1,340.7 L 549.6,341.0 L 552.1,341.3 L 554.6,341.6 L 557.1,341.8 L 559.6,342.1 L 562.1,342.4 L 564.5,342.7 L 567.0,343.0 L 569.5,343.3 L 572.0,343.5 L 574.5,343.8 L 577.0,344.1 L 579.5,344.4 L 582.0,344.7 L 584.5,345.0 L 587.0,345.2 L 589.5,345.5 L 592.0,345.8 L 594.5,346.0 L 597.0,346.3 L 599.5,346.5 L 602.0,346.7 L 604.5,347.0 L 607.0,347.2 L 609.5,347.4 L 612.0,347.6 L 614.5,347.8 L 617.0,348.0" class="sig"/>
<path d="M 75.5,307.3 L 80.9,283.3 L 86.4,265.0 L 91.9,249.5 L 97.3,235.9 L 102.8,223.6 L 108.3,212.2 L 113.8,201.7 L 119.2,192.2 L 124.7,183.9 L 130.2,176.7 L 135.6,170.2 L 141.1,164.5 L 146.6,159.5 L 152.1,155.1 L 157.5,151.3 L 163.0,148.0 L 168.5,145.2 L 173.9,142.9 L 179.4,141.0 L 184.9,139.6 L 190.3,138.7 L 195.8,137.9 L 201.3,137.1 L 206.8,136.2 L 212.2,135.2 L 217.7,134.2 L 223.2,133.2 L 228.6,132.2 L 234.1,131.1 L 239.6,130.1 L 245.0,129.0 L 250.5,128.0 L 256.0,127.0 L 261.5,126.0 L 266.9,125.0 L 272.4,124.0 L 277.9,123.1 L 283.3,122.2 L 288.8,121.3 L 294.3,120.5 L 299.7,119.7 L 305.2,118.9 L 310.7,118.1 L 316.1,117.4 L 321.6,116.8 L 327.1,116.2 L 332.6,115.6 L 338.0,115.0 L 343.5,114.5 L 349.0,114.1 L 354.4,113.7 L 359.9,113.3 L 365.4,112.9 L 370.9,112.5 L 376.3,112.1 L 381.8,111.7 L 387.3,111.3 L 392.7,110.8 L 398.2,110.3 L 403.7,109.8 L 409.1,109.2 L 414.6,108.7 L 420.1,108.2 L 425.6,107.6 L 431.0,107.0 L 436.5,106.4 L 442.0,105.8 L 447.4,105.2 L 452.9,104.6 L 458.4,104.0 L 463.8,103.3 L 469.3,102.7 L 474.8,102.1 L 480.3,101.4 L 485.7,100.8 L 491.2,100.1 L 496.7,99.4 L 502.1,98.8 L 507.6,98.1 L 513.1,97.4 L 518.5,96.8 L 524.0,96.1 L 529.5,95.4 L 535.0,94.7 L 540.4,94.1 L 545.9,93.4 L 551.4,92.7 L 556.8,92.0 L 562.3,91.4 L 567.8,90.7 L 573.2,90.0 L 578.7,89.8 L 584.2,90.2 L 589.6,91.2 L 595.1,92.6 L 600.6,94.0 L 606.1,95.4 L 611.5,96.8 L 617.0,98.2" class="nt"/>
<path d="M 74.6,345.1 L 79.1,330.1 L 83.7,313.0 L 88.2,295.5 L 92.8,278.0 L 97.3,260.3 L 101.9,242.7 L 106.5,225.1 L 111.0,207.9 L 115.6,191.3 L 120.1,175.5 L 124.7,160.8 L 129.3,147.2 L 133.8,135.0 L 138.4,123.9 L 142.9,114.3 L 147.5,105.8 L 152.1,98.6 L 156.6,92.6 L 161.2,87.7 L 165.7,83.9 L 170.3,81.3 L 174.8,79.7 L 179.4,79.2 L 184.0,79.5 L 188.5,80.6 L 193.1,82.3 L 197.6,84.4 L 202.2,86.7 L 206.8,88.9 L 211.3,91.1 L 215.9,93.1 L 220.4,95.0 L 225.0,96.7 L 229.5,98.2 L 234.1,99.6 L 238.7,100.9 L 243.2,102.0 L 247.8,103.1 L 252.3,104.1 L 256.9,105.1 L 261.4,105.9 L 266.0,106.8 L 270.6,107.7 L 275.1,108.5 L 279.7,109.4 L 284.2,110.2 L 288.8,111.1 L 293.4,112.0 L 297.9,113.0 L 302.5,114.0 L 307.0,115.0 L 311.6,116.1 L 316.1,117.3 L 320.7,118.6 L 325.3,120.0 L 329.8,121.4 L 334.4,123.0 L 338.9,124.7 L 343.5,126.5 L 348.1,128.4 L 352.6,130.4 L 357.2,132.6 L 361.7,134.7 L 366.3,136.9 L 370.9,139.1 L 375.4,141.2 L 380.0,143.2 L 384.5,145.2 L 389.1,147.0 L 393.6,148.7 L 398.2,150.4 L 402.8,151.9 L 407.3,153.4 L 411.9,154.7 L 416.4,156.0 L 421.0,157.2 L 425.6,158.3 L 430.1,159.4 L 434.7,160.3 L 439.2,161.2 L 443.8,162.0 L 448.3,162.8 L 452.9,163.4 L 457.5,164.0 L 462.0,164.5 L 466.6,164.9 L 471.1,165.3 L 475.7,165.5 L 480.3,165.7 L 484.8,165.8 L 489.4,165.7 L 493.9,165.6 L 498.5,165.3 L 503.0,165.0 L 507.6,164.5 L 512.2,163.9 L 516.7,163.1 L 521.3,162.1 L 525.8,161.0 L 530.4,159.7 L 535.0,158.3 L 539.5,156.6 L 544.1,154.7 L 548.6,152.6 L 553.2,150.4 L 557.7,148.1 L 562.3,146.0 L 566.9,144.3 L 571.4,143.1 L 576.0,143.0 L 580.5,143.7 L 585.1,145.5 L 589.6,148.2 L 594.2,151.5 L 598.8,155.2 L 603.3,159.1 L 607.9,163.0 L 612.4,166.8 L 617.0,170.5" class="fw"/>
<line x1="144.25" y1="94.49" x2="144.25" y2="135.55" class="err"/>
<line x1="141.25" y1="94.49" x2="147.25" y2="94.49" class="err"/>
<line x1="141.25" y1="135.55" x2="147.25" y2="135.55" class="err"/>
<circle cx="144.25" cy="115.02" r="2.5" class="obs"/>
<line x1="219.06" y1="83.18" x2="219.06" y2="102.17" class="err"/>
<line x1="216.06" y1="83.18" x2="222.06" y2="83.18" class="err"/>
<line x1="216.06" y1="102.17" x2="222.06" y2="102.17" class="err"/>
<circle cx="219.06" cy="92.68" r="2.5" class="obs"/>
<line x1="293.31" y1="98.54" x2="293.31" y2="125.92" class="err"/>
<line x1="290.31" y1="98.54" x2="296.31" y2="98.54" class="err"/>
<line x1="290.31" y1="125.92" x2="296.31" y2="125.92" class="err"/>
<circle cx="293.31" cy="112.23" r="2.5" class="obs"/>
<line x1="372.97" y1="110.27" x2="372.97" y2="167.25" class="err"/>
<line x1="369.97" y1="110.27" x2="375.97" y2="110.27" class="err"/>
<line x1="369.97" y1="167.25" x2="375.97" y2="167.25" class="err"/>
<circle cx="372.97" cy="138.76" r="2.5" class="obs"/>
<line x1="453.19" y1="149.10" x2="453.19" y2="175.91" class="err"/>
<line x1="450.19" y1="149.10" x2="456.19" y2="149.10" class="err"/>
<line x1="450.19" y1="175.91" x2="456.19" y2="175.91" class="err"/>
<circle cx="453.19" cy="162.50" r="2.5" class="obs"/>
<line x1="526.01" y1="134.71" x2="526.01" y2="184.71" class="err"/>
<line x1="523.01" y1="134.71" x2="529.01" y2="134.71" class="err"/>
<line x1="523.01" y1="184.71" x2="529.01" y2="184.71" class="err"/>
<circle cx="526.01" cy="159.71" r="2.5" class="obs"/>
<line x1="598.55" y1="126.19" x2="598.55" y2="184.85" class="err"/>
<line x1="595.55" y1="126.19" x2="601.55" y2="126.19" class="err"/>
<line x1="595.55" y1="184.85" x2="601.55" y2="184.85" class="err"/>
<circle cx="598.55" cy="155.52" r="2.5" class="obs"/>
<g class="legend">
<line x1="82" y1="69" x2="106" y2="69" class="fw"/>
<text x="112" y="73" class="lbl-l">framework fit</text>
<line x1="82" y1="87" x2="106" y2="87" class="nt"/>
<text x="112" y="91" class="lbl-l">Newtonian (no halo)</text>
<circle cx="94" cy="105" r="2.5" class="obs"/>
<text x="112" y="109" class="lbl">observed V±err</text>
</g>
<g class="legend">
<line x1="442" y1="69" x2="466" y2="69" class="rho"/>
<text x="472" y="73" class="lbl-r">ρ(r) raw</text>
<line x1="442" y1="87" x2="466" y2="87" class="sig"/>
<text x="472" y="91" class="lbl-s">Σ(r) cumulative</text>
<text x="442" y="113" class="lbl-r">ρ peak: 658 M☉/pc²</text>
</g>
<rect x="705" y="55" width="170" height="170" class="preview-bg"/>
<defs><radialGradient id="g_NGC4138" cx="0.5" cy="0.5" r="0.5">
  <stop offset="0.0000" stop-color="rgb(216,216,216)"/>
  <stop offset="0.0313" stop-color="rgb(216,216,216)"/>
  <stop offset="0.0625" stop-color="rgb(216,216,216)"/>
  <stop offset="0.0938" stop-color="rgb(209,209,209)"/>
  <stop offset="0.1250" stop-color="rgb(186,186,186)"/>
  <stop offset="0.1563" stop-color="rgb(163,163,163)"/>
  <stop offset="0.1875" stop-color="rgb(140,140,140)"/>
  <stop offset="0.2188" stop-color="rgb(117,117,117)"/>
  <stop offset="0.2500" stop-color="rgb(106,106,106)"/>
  <stop offset="0.2813" stop-color="rgb(102,102,102)"/>
  <stop offset="0.3125" stop-color="rgb(99,99,99)"/>
  <stop offset="0.3438" stop-color="rgb(96,96,96)"/>
  <stop offset="0.3750" stop-color="rgb(92,92,92)"/>
  <stop offset="0.4063" stop-color="rgb(89,89,89)"/>
  <stop offset="0.4375" stop-color="rgb(86,86,86)"/>
  <stop offset="0.4688" stop-color="rgb(83,83,83)"/>
  <stop offset="0.5000" stop-color="rgb(79,79,79)"/>
  <stop offset="0.5313" stop-color="rgb(76,76,76)"/>
  <stop offset="0.5625" stop-color="rgb(73,73,73)"/>
  <stop offset="0.5938" stop-color="rgb(73,73,73)"/>
  <stop offset="0.6250" stop-color="rgb(73,73,73)"/>
  <stop offset="0.6563" stop-color="rgb(72,72,72)"/>
  <stop offset="0.6875" stop-color="rgb(72,72,72)"/>
  <stop offset="0.7188" stop-color="rgb(71,71,71)"/>
  <stop offset="0.7500" stop-color="rgb(71,71,71)"/>
  <stop offset="0.7813" stop-color="rgb(71,71,71)"/>
  <stop offset="0.8125" stop-color="rgb(70,70,70)"/>
  <stop offset="0.8438" stop-color="rgb(70,70,70)"/>
  <stop offset="0.8750" stop-color="rgb(70,70,70)"/>
  <stop offset="0.9063" stop-color="rgb(69,69,69)"/>
  <stop offset="0.9375" stop-color="rgb(69,69,69)"/>
  <stop offset="0.9688" stop-color="rgb(64,64,64)"/>
  <stop offset="1.0000" stop-color="rgb(0,0,0)"/>
</radialGradient></defs>
<circle cx="790" cy="140" r="81" fill="url(#g_NGC4138)"/>
<text x="790" y="49" text-anchor="middle" class="preview-lbl">face-on luminance from ρ(r)</text>
<text x="790" y="239" text-anchor="middle" class="preview-lbl">edge at r = 18.3 kpc</text>
</svg>