<svg xmlns="http://www.w3.org/2000/svg" viewBox="0 0 720 420" width="720" height="420" font-family="sans-serif" font-size="12">
<style>
  .ax { stroke: #333; stroke-width: 1; fill: none; }
  .grid { stroke: #ddd; stroke-width: 0.5; fill: none; }
  .lbl { fill: #333; }
  .lbl-l { fill: #0066cc; }
  .lbl-r { fill: #b03030; }
  .obs { fill: #222; }
  .err { stroke: #555; stroke-width: 0.8; fill: none; }
  .fw { stroke: #0066cc; stroke-width: 2.2; fill: none; }
  .nt { stroke: #cc6600; stroke-width: 1.6; fill: none; stroke-dasharray: 5,3; }
  .rho { stroke: #b03030; stroke-width: 2.0; fill: none; }
  .sig { stroke: #b03030; stroke-width: 1.6; fill: none; stroke-dasharray: 4,2; opacity: 0.85; }
  .title { fill: #111; font-size: 16px; font-weight: 600; }
  .subtitle { fill: #555; font-size: 11px; }
  .legend { font-size: 11px; }
</style>
<text x="360.0" y="22" text-anchor="middle" class="title">NGC4013</text>
<text x="360.0" y="38" text-anchor="middle" class="subtitle">rMax=31.0 kpc, N=36, RMS=3.6 km/s (2.0%), amp=105</text>
<line x1="70" y1="365.0" x2="635" y2="365.0" class="grid"/>
<text x="64" y="369.0" text-anchor="end" class="lbl-l">0</text>
<line x1="70" y1="303.0" x2="635" y2="303.0" class="grid"/>
<text x="64" y="307.0" text-anchor="end" class="lbl-l">46</text>
<line x1="70" y1="241.0" x2="635" y2="241.0" class="grid"/>
<text x="64" y="245.0" text-anchor="end" class="lbl-l">92</text>
<line x1="70" y1="178.99999999999997" x2="635" y2="178.99999999999997" class="grid"/>
<text x="64" y="182.99999999999997" text-anchor="end" class="lbl-l">137</text>
<line x1="70" y1="116.99999999999999" x2="635" y2="116.99999999999999" class="grid"/>
<text x="64" y="120.99999999999999" text-anchor="end" class="lbl-l">183</text>
<line x1="70" y1="55.0" x2="635" y2="55.0" class="grid"/>
<text x="64" y="59.0" text-anchor="end" class="lbl-l">229</text>
<text x="641" y="369.0" text-anchor="start" class="lbl-r">0.0</text>
<text x="641" y="327.6666666666667" text-anchor="start" class="lbl-r">0.2</text>
<text x="641" y="286.33333333333337" text-anchor="start" class="lbl-r">0.4</text>
<text x="641" y="245.00000000000003" text-anchor="start" class="lbl-r">0.6</text>
<text x="641" y="203.66666666666666" text-anchor="start" class="lbl-r">0.8</text>
<text x="641" y="162.33333333333334" text-anchor="start" class="lbl-r">1.0</text>
<line x1="70.0" y1="55" x2="70.0" y2="365" class="grid"/>
<text x="70.0" y="381" text-anchor="middle" class="lbl">0.0</text>
<line x1="164.16666666666669" y1="55" x2="164.16666666666669" y2="365" class="grid"/>
<text x="164.16666666666669" y="381" text-anchor="middle" class="lbl">5.8</text>
<line x1="258.33333333333337" y1="55" x2="258.33333333333337" y2="365" class="grid"/>
<text x="258.33333333333337" y="381" text-anchor="middle" class="lbl">11.6</text>
<line x1="352.5" y1="55" x2="352.5" y2="365" class="grid"/>
<text x="352.5" y="381" text-anchor="middle" class="lbl">17.4</text>
<line x1="446.6666666666667" y1="55" x2="446.6666666666667" y2="365" class="grid"/>
<text x="446.6666666666667" y="381" text-anchor="middle" class="lbl">23.2</text>
<line x1="540.8333333333333" y1="55" x2="540.8333333333333" y2="365" class="grid"/>
<text x="540.8333333333333" y="381" text-anchor="middle" class="lbl">29.0</text>
<line x1="635.0" y1="55" x2="635.0" y2="365" class="grid"/>
<text x="635.0" y="381" text-anchor="middle" class="lbl">34.9</text>
<text x="352.5" y="408" text-anchor="middle" class="lbl">radius (kpc)</text>
<text x="16" y="210.0" text-anchor="middle" class="lbl-l" transform="rotate(-90, 16, 210.0)">velocity (km/s)</text>
<text x="704" y="210.0" text-anchor="middle" class="lbl-r" transform="rotate(-90, 704, 210.0)">mass profile (normalized to peak)</text>
<rect x="70" y="55" width="565" height="310" class="ax"/>
<path d="M 70.0,158.3 L 72.6,159.2 L 75.2,160.0 L 77.7,160.8 L 80.3,161.7 L 82.9,162.5 L 85.5,163.4 L 88.1,164.2 L 90.6,165.0 L 93.2,165.9 L 95.8,166.7 L 98.4,167.5 L 101.0,168.4 L 103.5,169.2 L 106.1,170.1 L 108.7,170.9 L 111.3,171.7 L 113.9,172.6 L 116.4,173.4 L 119.0,174.2 L 121.6,175.1 L 124.2,175.9 L 126.8,176.8 L 129.3,177.6 L 131.9,178.4 L 134.5,179.3 L 137.1,180.1 L 139.7,180.9 L 142.2,191.9 L 144.8,212.7 L 147.4,233.5 L 150.0,254.4 L 152.6,257.6 L 155.1,258.5 L 157.7,259.5 L 160.3,260.4 L 162.9,261.4 L 165.5,262.4 L 168.0,263.3 L 170.6,264.3 L 173.2,265.3 L 175.8,266.2 L 178.4,267.2 L 180.9,268.1 L 183.5,269.1 L 186.1,270.1 L 188.7,271.0 L 191.3,272.0 L 193.8,272.9 L 196.4,273.9 L 199.0,274.9 L 201.6,275.8 L 204.2,276.8 L 206.7,277.8 L 209.3,278.7 L 211.9,279.7 L 214.5,280.6 L 217.1,281.6 L 219.6,282.6 L 222.2,283.5 L 224.8,284.5 L 227.4,285.4 L 230.0,286.4 L 232.5,287.4 L 235.1,288.3 L 237.7,289.3 L 240.3,290.3 L 242.9,291.2 L 245.4,292.2 L 248.0,293.1 L 250.6,294.1 L 253.2,295.1 L 255.8,296.0 L 258.3,297.0 L 260.9,297.9 L 263.5,298.9 L 266.1,299.9 L 268.7,300.8 L 271.2,301.8 L 273.8,302.8 L 276.4,303.2 L 279.0,303.3 L 281.6,303.5 L 284.1,303.7 L 286.7,303.9 L 289.3,304.0 L 291.9,304.2 L 294.5,304.4 L 297.0,304.6 L 299.6,304.7 L 302.2,304.9 L 304.8,305.1 L 307.4,305.3 L 309.9,305.4 L 312.5,305.6 L 315.1,305.8 L 317.7,306.0 L 320.3,306.1 L 322.8,306.3 L 325.4,306.5 L 328.0,306.7 L 330.6,306.8 L 333.2,307.0 L 335.7,307.2 L 338.3,307.4 L 340.9,307.5 L 343.5,307.7 L 346.1,307.9 L 348.6,308.1 L 351.2,308.2 L 353.8,308.4 L 356.4,308.6 L 358.9,308.8 L 361.5,308.9 L 364.1,309.1 L 366.7,309.3 L 369.3,309.5 L 371.8,309.6 L 374.4,309.8 L 377.0,310.0 L 379.6,310.2 L 382.2,310.3 L 384.7,310.5 L 387.3,310.7 L 389.9,310.9 L 392.5,311.0 L 395.1,311.2 L 397.6,311.4 L 400.2,311.6 L 402.8,311.7 L 405.4,311.9 L 408.0,312.1 L 410.5,312.3 L 413.1,312.4 L 415.7,312.6 L 418.3,312.8 L 420.9,313.0 L 423.4,313.2 L 426.0,313.3 L 428.6,313.5 L 431.2,313.7 L 433.8,313.9 L 436.3,314.0 L 438.9,314.2 L 441.5,314.4 L 444.1,314.6 L 446.7,314.7 L 449.2,314.9 L 451.8,315.1 L 454.4,315.3 L 457.0,315.4 L 459.6,315.6 L 462.1,315.8 L 464.7,316.0 L 467.3,316.1 L 469.9,316.3 L 472.5,316.5 L 475.0,316.7 L 477.6,316.8 L 480.2,317.0 L 482.8,317.2 L 485.4,317.4 L 487.9,317.5 L 490.5,317.7 L 493.1,317.9 L 495.7,318.1 L 498.3,318.2 L 500.8,318.4 L 503.4,319.0 L 506.0,320.1 L 508.6,321.3 L 511.2,322.4 L 513.7,323.5 L 516.3,324.7 L 518.9,325.8 L 521.5,326.9 L 524.1,328.1 L 526.6,329.2 L 529.2,330.3 L 531.8,331.5 L 534.4,332.6 L 537.0,333.7 L 539.5,334.9 L 542.1,336.0 L 544.7,337.1 L 547.3,338.3 L 549.9,339.4 L 552.4,340.5 L 555.0,341.7 L 557.6,342.8 L 560.2,343.9 L 562.8,345.1 L 565.3,346.2 L 567.9,347.3 L 570.5,348.5 L 573.1,349.6 L 575.7,350.7 L 578.2,351.9 L 580.8,353.0 L 583.4,354.1 L 586.0,355.3 L 588.6,356.4 L 591.1,357.5 L 593.7,358.7 L 596.3,359.8 L 598.9,360.9 L 601.5,362.1 L 604.0,363.2 L 606.6,364.4 L 609.2,365.0 L 611.8,365.0 L 614.4,365.0 L 616.9,365.0 L 619.5,365.0 L 622.1,365.0 L 624.7,365.0 L 627.3,365.0 L 629.8,365.0 L 632.4,365.0 L 635.0,365.0" class="rho"/>
<path d="M 70.0,158.3 L 72.6,158.5 L 75.2,158.6 L 77.7,158.9 L 80.3,159.3 L 82.9,159.8 L 85.5,160.4 L 88.1,161.2 L 90.6,162.0 L 93.2,163.0 L 95.8,164.0 L 98.4,165.1 L 101.0,166.4 L 103.5,167.8 L 106.1,169.2 L 108.7,170.8 L 111.3,172.4 L 113.9,174.2 L 116.4,176.1 L 119.0,178.0 L 121.6,180.1 L 124.2,182.3 L 126.8,184.5 L 129.3,186.9 L 131.9,189.3 L 134.5,191.9 L 137.1,194.5 L 139.7,197.1 L 142.2,199.8 L 144.8,202.5 L 147.4,205.2 L 150.0,207.9 L 152.6,210.5 L 155.1,213.1 L 157.7,215.6 L 160.3,218.1 L 162.9,220.5 L 165.5,222.8 L 168.0,225.1 L 170.6,227.3 L 173.2,229.4 L 175.8,231.5 L 178.4,233.4 L 180.9,235.4 L 183.5,237.3 L 186.1,239.1 L 188.7,240.9 L 191.3,242.7 L 193.8,244.4 L 196.4,246.1 L 199.0,247.7 L 201.6,249.3 L 204.2,250.9 L 206.7,252.4 L 209.3,253.9 L 211.9,255.4 L 214.5,256.8 L 217.1,258.2 L 219.6,259.6 L 222.2,261.0 L 224.8,262.3 L 227.4,263.7 L 230.0,265.0 L 232.5,266.2 L 235.1,267.5 L 237.7,268.7 L 240.3,269.9 L 242.9,271.1 L 245.4,272.2 L 248.0,273.4 L 250.6,274.5 L 253.2,275.6 L 255.8,276.7 L 258.3,277.7 L 260.9,278.8 L 263.5,279.8 L 266.1,280.8 L 268.7,281.8 L 271.2,282.7 L 273.8,283.6 L 276.4,284.6 L 279.0,285.4 L 281.6,286.3 L 284.1,287.2 L 286.7,288.0 L 289.3,288.8 L 291.9,289.6 L 294.5,290.4 L 297.0,291.2 L 299.6,292.0 L 302.2,292.7 L 304.8,293.4 L 307.4,294.2 L 309.9,294.9 L 312.5,295.6 L 315.1,296.3 L 317.7,296.9 L 320.3,297.6 L 322.8,298.2 L 325.4,298.9 L 328.0,299.5 L 330.6,300.1 L 333.2,300.8 L 335.7,301.4 L 338.3,302.0 L 340.9,302.6 L 343.5,303.1 L 346.1,303.7 L 348.6,304.3 L 351.2,304.9 L 353.8,305.4 L 356.4,306.0 L 358.9,306.5 L 361.5,307.1 L 364.1,307.6 L 366.7,308.1 L 369.3,308.6 L 371.8,309.2 L 374.4,309.7 L 377.0,310.2 L 379.6,310.7 L 382.2,311.2 L 384.7,311.7 L 387.3,312.2 L 389.9,312.6 L 392.5,313.1 L 395.1,313.6 L 397.6,314.1 L 400.2,314.5 L 402.8,315.0 L 405.4,315.5 L 408.0,315.9 L 410.5,316.4 L 413.1,316.9 L 415.7,317.3 L 418.3,317.8 L 420.9,318.2 L 423.4,318.6 L 426.0,319.1 L 428.6,319.5 L 431.2,320.0 L 433.8,320.4 L 436.3,320.8 L 438.9,321.3 L 441.5,321.7 L 444.1,322.1 L 446.7,322.6 L 449.2,323.0 L 451.8,323.4 L 454.4,323.8 L 457.0,324.2 L 459.6,324.7 L 462.1,325.1 L 464.7,325.5 L 467.3,325.9 L 469.9,326.4 L 472.5,326.8 L 475.0,327.2 L 477.6,327.6 L 480.2,328.0 L 482.8,328.5 L 485.4,328.9 L 487.9,329.3 L 490.5,329.7 L 493.1,330.2 L 495.7,330.6 L 498.3,331.0 L 500.8,331.4 L 503.4,331.9 L 506.0,332.3 L 508.6,332.7 L 511.2,333.2 L 513.7,333.6 L 516.3,334.0 L 518.9,334.5 L 521.5,334.9 L 524.1,335.3 L 526.6,335.7 L 529.2,336.2 L 531.8,336.6 L 534.4,337.0 L 537.0,337.4 L 539.5,337.8 L 542.1,338.2 L 544.7,338.6 L 547.3,339.0 L 549.9,339.4 L 552.4,339.7 L 555.0,340.1 L 557.6,340.5 L 560.2,340.8 L 562.8,341.2 L 565.3,341.5 L 567.9,341.9 L 570.5,342.2 L 573.1,342.5 L 575.7,342.8 L 578.2,343.1 L 580.8,343.4 L 583.4,343.7 L 586.0,344.0 L 588.6,344.3 L 591.1,344.6 L 593.7,344.9 L 596.3,345.1 L 598.9,345.4 L 601.5,345.6 L 604.0,345.9 L 606.6,346.1 L 609.2,346.3 L 611.8,346.5 L 614.4,346.8 L 616.9,347.0 L 619.5,347.2 L 622.1,347.4 L 624.7,347.6 L 627.3,347.8 L 629.8,348.0 L 632.4,348.2 L 635.0,348.4" class="sig"/>
<path d="M 75.7,309.1 L 81.3,286.2 L 87.0,268.8 L 92.6,254.2 L 98.2,241.5 L 103.9,230.1 L 109.6,219.8 L 115.2,210.2 L 120.8,201.4 L 126.5,193.1 L 132.2,185.2 L 137.8,177.8 L 143.4,171.1 L 149.1,167.5 L 154.8,166.0 L 160.4,164.4 L 166.1,162.7 L 171.7,160.9 L 177.3,159.1 L 183.0,157.3 L 188.6,155.4 L 194.3,153.6 L 199.9,151.8 L 205.6,150.1 L 211.2,148.4 L 216.9,146.7 L 222.6,145.2 L 228.2,143.6 L 233.8,142.2 L 239.5,140.8 L 245.2,139.5 L 250.8,138.2 L 256.4,137.1 L 262.1,136.0 L 267.8,135.0 L 273.4,134.0 L 279.1,133.1 L 284.7,132.2 L 290.4,131.2 L 296.0,130.3 L 301.6,129.3 L 307.3,128.3 L 312.9,127.2 L 318.6,126.2 L 324.2,125.1 L 329.9,124.1 L 335.6,123.0 L 341.2,122.0 L 346.9,120.9 L 352.5,119.9 L 358.1,118.8 L 363.8,117.7 L 369.4,116.7 L 375.1,115.6 L 380.7,114.6 L 386.4,113.5 L 392.1,112.5 L 397.7,111.5 L 403.3,110.4 L 409.0,109.4 L 414.7,108.4 L 420.3,107.4 L 425.9,106.4 L 431.6,105.4 L 437.2,104.5 L 442.9,103.5 L 448.5,102.5 L 454.2,101.6 L 459.9,100.7 L 465.5,99.7 L 471.1,98.8 L 476.8,98.0 L 482.4,97.1 L 488.1,96.2 L 493.8,95.3 L 499.4,94.5 L 505.1,93.6 L 510.7,92.9 L 516.3,92.4 L 522.0,91.9 L 527.7,91.5 L 533.3,91.3 L 539.0,91.2 L 544.6,91.3 L 550.2,91.4 L 555.9,91.6 L 561.6,92.0 L 567.2,92.5 L 572.9,93.1 L 578.5,93.8 L 584.1,94.6 L 589.8,95.6 L 595.5,96.7 L 601.1,97.9 L 606.8,99.2 L 612.4,100.5 L 618.1,101.9 L 623.7,103.3 L 629.3,104.6 L 635.0,105.9" class="nt"/>
<path d="M 74.7,345.0 L 79.4,329.3 L 84.1,311.8 L 88.8,294.4 L 93.5,277.2 L 98.2,260.0 L 103.0,243.0 L 107.7,226.0 L 112.4,209.1 L 117.1,192.2 L 121.8,175.5 L 126.5,159.1 L 131.2,143.5 L 135.9,129.2 L 140.6,117.2 L 145.3,107.9 L 150.0,101.8 L 154.8,98.5 L 159.5,97.3 L 164.2,97.6 L 168.9,98.5 L 173.6,99.6 L 178.3,100.7 L 183.0,101.7 L 187.7,102.5 L 192.4,103.2 L 197.1,103.7 L 201.8,104.1 L 206.5,104.4 L 211.2,104.7 L 216.0,105.0 L 220.7,105.3 L 225.4,105.7 L 230.1,106.1 L 234.8,106.6 L 239.5,107.3 L 244.2,108.0 L 248.9,109.0 L 253.6,110.1 L 258.3,111.5 L 263.0,113.0 L 267.8,114.7 L 272.5,116.6 L 277.2,118.6 L 281.9,120.6 L 286.6,122.5 L 291.3,124.4 L 296.0,126.1 L 300.7,127.7 L 305.4,129.2 L 310.1,130.5 L 314.8,131.8 L 319.5,132.9 L 324.2,133.9 L 329.0,134.8 L 333.7,135.7 L 338.4,136.4 L 343.1,137.1 L 347.8,137.7 L 352.5,138.2 L 357.2,138.7 L 361.9,139.0 L 366.6,139.4 L 371.3,139.7 L 376.0,139.9 L 380.7,140.0 L 385.5,140.1 L 390.2,140.2 L 394.9,140.2 L 399.6,140.1 L 404.3,140.0 L 409.0,139.8 L 413.7,139.6 L 418.4,139.3 L 423.1,138.9 L 427.8,138.4 L 432.5,137.9 L 437.2,137.4 L 442.0,136.7 L 446.7,135.9 L 451.4,135.1 L 456.1,134.1 L 460.8,133.1 L 465.5,131.9 L 470.2,130.6 L 474.9,129.1 L 479.6,127.5 L 484.3,125.7 L 489.0,123.8 L 493.8,121.9 L 498.5,119.9 L 503.2,118.0 L 507.9,116.4 L 512.6,115.2 L 517.3,114.4 L 522.0,114.0 L 526.7,114.2 L 531.4,114.8 L 536.1,115.9 L 540.8,117.4 L 545.5,119.3 L 550.2,121.5 L 555.0,124.0 L 559.7,126.8 L 564.4,129.9 L 569.1,133.2 L 573.8,136.7 L 578.5,140.3 L 583.2,144.0 L 587.9,147.8 L 592.6,151.6 L 597.3,155.3 L 602.0,159.0 L 606.8,162.6 L 611.5,166.1 L 616.2,169.4 L 620.9,172.6 L 625.6,175.6 L 630.3,178.4 L 635.0,181.2" class="fw"/>
<line x1="158.99481704806777" y1="83.18181818181819" x2="158.99481704806777" y2="110.27972027972028" class="err"/>
<line x1="155.99481704806777" y1="83.18181818181819" x2="161.99481704806777" y2="83.18181818181819" class="err"/>
<line x1="155.99481704806777" y1="110.27972027972028" x2="161.99481704806777" y2="110.27972027972028" class="err"/>
<circle cx="158.99481704806777" cy="96.73076923076925" r="2.5" class="obs"/>
<line x1="170.01785449664447" y1="94.02097902097904" x2="170.01785449664447" y2="107.56993006993008" class="err"/>
<line x1="167.01785449664447" y1="94.02097902097904" x2="173.01785449664447" y2="94.02097902097904" class="err"/>
<line x1="167.01785449664447" y1="107.56993006993008" x2="173.01785449664447" y2="107.56993006993008" class="err"/>
<circle cx="170.01785449664447" cy="100.79545454545458" r="2.5" class="obs"/>
<line x1="182.17561638845703" y1="96.73076923076925" x2="182.17561638845703" y2="107.56993006993008" class="err"/>
<line x1="179.17561638845703" y1="96.73076923076925" x2="185.17561638845703" y2="96.73076923076925" class="err"/>
<line x1="179.17561638845703" y1="107.56993006993008" x2="185.17561638845703" y2="107.56993006993008" class="err"/>
<circle cx="182.17561638845703" cy="102.15034965034968" r="2.5" class="obs"/>
<line x1="194.65758526405125" y1="96.73076923076925" x2="194.65758526405125" y2="104.86013986013987" class="err"/>
<line x1="191.65758526405125" y1="96.73076923076925" x2="197.65758526405125" y2="96.73076923076925" class="err"/>
<line x1="191.65758526405125" y1="104.86013986013987" x2="197.65758526405125" y2="104.86013986013987" class="err"/>
<circle cx="194.65758526405125" cy="100.79545454545458" r="2.5" class="obs"/>
<line x1="205.5185192207371" y1="96.73076923076925" x2="205.5185192207371" y2="104.86013986013987" class="err"/>
<line x1="202.5185192207371" y1="96.73076923076925" x2="208.5185192207371" y2="96.73076923076925" class="err"/>
<line x1="202.5185192207371" y1="104.86013986013987" x2="208.5185192207371" y2="104.86013986013987" class="err"/>
<circle cx="205.5185192207371" cy="100.79545454545458" r="2.5" class="obs"/>
<line x1="217.83838460444048" y1="96.73076923076925" x2="217.83838460444048" y2="104.86013986013987" class="err"/>
<line x1="214.83838460444048" y1="96.73076923076925" x2="220.83838460444048" y2="96.73076923076925" class="err"/>
<line x1="214.83838460444048" y1="104.86013986013987" x2="220.83838460444048" y2="104.86013986013987" class="err"/>
<circle cx="217.83838460444048" cy="100.79545454545458" r="2.5" class="obs"/>
<line x1="230.15824998814384" y1="95.37587412587415" x2="230.15824998814384" y2="114.3444055944056" class="err"/>
<line x1="227.15824998814384" y1="95.37587412587415" x2="233.15824998814384" y2="95.37587412587415" class="err"/>
<line x1="227.15824998814384" y1="114.3444055944056" x2="233.15824998814384" y2="114.3444055944056" class="err"/>
<circle cx="230.15824998814384" cy="104.86013986013987" r="2.5" class="obs"/>
<line x1="241.18128743672057" y1="99.44055944055947" x2="241.18128743672057" y2="121.11888111888113" class="err"/>
<line x1="238.18128743672057" y1="99.44055944055947" x2="244.18128743672057" y2="99.44055944055947" class="err"/>
<line x1="238.18128743672057" y1="121.11888111888113" x2="244.18128743672057" y2="121.11888111888113" class="err"/>
<circle cx="241.18128743672057" cy="110.27972027972028" r="2.5" class="obs"/>
<line x1="253.3390493285331" y1="103.50524475524475" x2="253.3390493285331" y2="122.47377622377624" class="err"/>
<line x1="250.3390493285331" y1="103.50524475524475" x2="256.33904932853306" y2="103.50524475524475" class="err"/>
<line x1="250.3390493285331" y1="122.47377622377624" x2="256.33904932853306" y2="122.47377622377624" class="err"/>
<circle cx="253.3390493285331" cy="112.9895104895105" r="2.5" class="obs"/>
<line x1="265.8210182041273" y1="104.86013986013987" x2="265.8210182041273" y2="121.11888111888113" class="err"/>
<line x1="262.8210182041273" y1="104.86013986013987" x2="268.8210182041273" y2="104.86013986013987" class="err"/>
<line x1="262.8210182041273" y1="121.11888111888113" x2="268.8210182041273" y2="121.11888111888113" class="err"/>
<circle cx="265.8210182041273" cy="112.9895104895105" r="2.5" class="obs"/>
<line x1="277.0061591445948" y1="106.21503496503496" x2="277.0061591445948" y2="119.76398601398603" class="err"/>
<line x1="274.0061591445948" y1="106.21503496503496" x2="280.0061591445948" y2="106.21503496503496" class="err"/>
<line x1="274.0061591445948" y1="119.76398601398603" x2="280.0061591445948" y2="119.76398601398603" class="err"/>
<circle cx="277.0061591445948" cy="112.9895104895105" r="2.5" class="obs"/>
<line x1="288.35340357695316" y1="106.21503496503496" x2="288.35340357695316" y2="122.47377622377624" class="err"/>
<line x1="285.35340357695316" y1="106.21503496503496" x2="291.35340357695316" y2="106.21503496503496" class="err"/>
<line x1="285.35340357695316" y1="122.47377622377624" x2="291.35340357695316" y2="122.47377622377624" class="err"/>
<circle cx="288.35340357695316" cy="114.3444055944056" r="2.5" class="obs"/>
<line x1="299.7006480093115" y1="107.56993006993008" x2="299.7006480093115" y2="134.66783216783216" class="err"/>
<line x1="296.7006480093115" y1="107.56993006993008" x2="302.7006480093115" y2="107.56993006993008" class="err"/>
<line x1="296.7006480093115" y1="134.66783216783216" x2="302.7006480093115" y2="134.66783216783216" class="err"/>
<circle cx="299.7006480093115" cy="121.11888111888113" r="2.5" class="obs"/>
<line x1="312.8310308524691" y1="133.3129370629371" x2="312.8310308524691" y2="154.99125874125878" class="err"/>
<line x1="309.8310308524691" y1="133.3129370629371" x2="315.8310308524691" y2="133.3129370629371" class="err"/>
<line x1="309.8310308524691" y1="154.99125874125878" x2="315.8310308524691" y2="154.99125874125878" class="err"/>
<circle cx="312.8310308524691" cy="144.15209790209792" r="2.5" class="obs"/>
<line x1="324.17827528482746" y1="137.37762237762237" x2="324.17827528482746" y2="153.63636363636365" class="err"/>
<line x1="321.17827528482746" y1="137.37762237762237" x2="327.17827528482746" y2="137.37762237762237" class="err"/>
<line x1="321.17827528482746" y1="153.63636363636365" x2="327.17827528482746" y2="153.63636363636365" class="err"/>
<circle cx="324.17827528482746" cy="145.506993006993" r="2.5" class="obs"/>
<line x1="335.363416225295" y1="136.02272727272725" x2="335.363416225295" y2="149.57167832167835" class="err"/>
<line x1="332.363416225295" y1="136.02272727272725" x2="338.363416225295" y2="136.02272727272725" class="err"/>
<line x1="332.363416225295" y1="149.57167832167835" x2="338.363416225295" y2="149.57167832167835" class="err"/>
<circle cx="335.363416225295" cy="142.7972027972028" r="2.5" class="obs"/>
<line x1="348.6559025603434" y1="133.3129370629371" x2="348.6559025603434" y2="146.8618881118881" class="err"/>
<line x1="345.6559025603434" y1="133.3129370629371" x2="351.6559025603434" y2="133.3129370629371" class="err"/>
<line x1="345.6559025603434" y1="146.8618881118881" x2="351.6559025603434" y2="146.8618881118881" class="err"/>
<circle cx="348.6559025603434" cy="140.0874125874126" r="2.5" class="obs"/>
<line x1="359.84104350081094" y1="133.3129370629371" x2="359.84104350081094" y2="146.8618881118881" class="err"/>
<line x1="356.84104350081094" y1="133.3129370629371" x2="362.84104350081094" y2="133.3129370629371" class="err"/>
<line x1="356.84104350081094" y1="146.8618881118881" x2="362.84104350081094" y2="146.8618881118881" class="err"/>
<circle cx="359.84104350081094" cy="140.0874125874126" r="2.5" class="obs"/>
<line x1="371.18828793316925" y1="133.3129370629371" x2="371.18828793316925" y2="146.8618881118881" class="err"/>
<line x1="368.18828793316925" y1="133.3129370629371" x2="374.18828793316925" y2="133.3129370629371" class="err"/>
<line x1="368.18828793316925" y1="146.8618881118881" x2="374.18828793316925" y2="146.8618881118881" class="err"/>
<circle cx="371.18828793316925" cy="140.0874125874126" r="2.5" class="obs"/>
<line x1="384.3186707763268" y1="133.3129370629371" x2="384.3186707763268" y2="146.8618881118881" class="err"/>
<line x1="381.3186707763268" y1="133.3129370629371" x2="387.3186707763268" y2="133.3129370629371" class="err"/>
<line x1="381.3186707763268" y1="146.8618881118881" x2="387.3186707763268" y2="146.8618881118881" class="err"/>
<circle cx="384.3186707763268" cy="140.0874125874126" r="2.5" class="obs"/>
<line x1="395.6659152086852" y1="130.60314685314688" x2="395.6659152086852" y2="144.15209790209792" class="err"/>
<line x1="392.6659152086852" y1="130.60314685314688" x2="398.6659152086852" y2="130.60314685314688" class="err"/>
<line x1="392.6659152086852" y1="144.15209790209792" x2="398.6659152086852" y2="144.15209790209792" class="err"/>
<circle cx="395.6659152086852" cy="137.37762237762237" r="2.5" class="obs"/>
<line x1="407.01315964104356" y1="125.18356643356645" x2="407.01315964104356" y2="138.7325174825175" class="err"/>
<line x1="404.01315964104356" y1="125.18356643356645" x2="410.01315964104356" y2="125.18356643356645" class="err"/>
<line x1="404.01315964104356" y1="138.7325174825175" x2="410.01315964104356" y2="138.7325174825175" class="err"/>
<circle cx="407.01315964104356" cy="131.95804195804197" r="2.5" class="obs"/>
<line x1="418.1983005815111" y1="123.82867132867135" x2="418.1983005815111" y2="137.37762237762237" class="err"/>
<line x1="415.1983005815111" y1="123.82867132867135" x2="421.1983005815111" y2="123.82867132867135" class="err"/>
<line x1="415.1983005815111" y1="137.37762237762237" x2="421.1983005815111" y2="137.37762237762237" class="err"/>
<circle cx="418.1983005815111" cy="130.60314685314688" r="2.5" class="obs"/>
<line x1="431.4907869165595" y1="126.53846153846156" x2="431.4907869165595" y2="140.0874125874126" class="err"/>
<line x1="428.4907869165595" y1="126.53846153846156" x2="434.4907869165595" y2="126.53846153846156" class="err"/>
<line x1="428.4907869165595" y1="140.0874125874126" x2="434.4907869165595" y2="140.0874125874126" class="err"/>
<circle cx="431.4907869165595" cy="133.3129370629371" r="2.5" class="obs"/>
<line x1="442.67592785702703" y1="127.89335664335667" x2="442.67592785702703" y2="141.44230769230768" class="err"/>
<line x1="439.67592785702703" y1="127.89335664335667" x2="445.67592785702703" y2="127.89335664335667" class="err"/>
<line x1="439.67592785702703" y1="141.44230769230768" x2="445.67592785702703" y2="141.44230769230768" class="err"/>
<circle cx="442.67592785702703" cy="134.66783216783216" r="2.5" class="obs"/>
<line x1="454.0231722893854" y1="125.18356643356645" x2="454.0231722893854" y2="138.7325174825175" class="err"/>
<line x1="451.0231722893854" y1="125.18356643356645" x2="457.0231722893854" y2="125.18356643356645" class="err"/>
<line x1="451.0231722893854" y1="138.7325174825175" x2="457.0231722893854" y2="138.7325174825175" class="err"/>
<circle cx="454.0231722893854" cy="131.95804195804197" r="2.5" class="obs"/>
<line x1="465.37041672174377" y1="123.82867132867135" x2="465.37041672174377" y2="137.37762237762237" class="err"/>
<line x1="462.37041672174377" y1="123.82867132867135" x2="468.37041672174377" y2="123.82867132867135" class="err"/>
<line x1="462.37041672174377" y1="137.37762237762237" x2="468.37041672174377" y2="137.37762237762237" class="err"/>
<circle cx="465.37041672174377" cy="130.60314685314688" r="2.5" class="obs"/>
<line x1="478.5007995649013" y1="119.76398601398603" x2="478.5007995649013" y2="133.3129370629371" class="err"/>
<line x1="475.5007995649013" y1="119.76398601398603" x2="481.5007995649013" y2="119.76398601398603" class="err"/>
<line x1="475.5007995649013" y1="133.3129370629371" x2="481.5007995649013" y2="133.3129370629371" class="err"/>
<circle cx="478.5007995649013" cy="126.53846153846156" r="2.5" class="obs"/>
<line x1="489.84804399725965" y1="117.05419580419581" x2="489.84804399725965" y2="130.60314685314688" class="err"/>
<line x1="486.84804399725965" y1="117.05419580419581" x2="492.84804399725965" y2="117.05419580419581" class="err"/>
<line x1="486.84804399725965" y1="130.60314685314688" x2="492.84804399725965" y2="130.60314685314688" class="err"/>
<circle cx="489.84804399725965" cy="123.82867132867135" r="2.5" class="obs"/>
<line x1="501.0331849377272" y1="112.9895104895105" x2="501.0331849377272" y2="129.2482517482518" class="err"/>
<line x1="498.0331849377272" y1="112.9895104895105" x2="504.0331849377272" y2="112.9895104895105" class="err"/>
<line x1="498.0331849377272" y1="129.2482517482518" x2="504.0331849377272" y2="129.2482517482518" class="err"/>
<circle cx="501.0331849377272" cy="121.11888111888113" r="2.5" class="obs"/>
<line x1="514.3256712727756" y1="110.27972027972028" x2="514.3256712727756" y2="131.95804195804197" class="err"/>
<line x1="511.3256712727756" y1="110.27972027972028" x2="517.3256712727756" y2="110.27972027972028" class="err"/>
<line x1="511.3256712727756" y1="131.95804195804197" x2="517.3256712727756" y2="131.95804195804197" class="err"/>
<circle cx="514.3256712727756" cy="121.11888111888113" r="2.5" class="obs"/>
<line x1="525.5108122132431" y1="114.3444055944056" x2="525.5108122132431" y2="127.89335664335667" class="err"/>
<line x1="522.5108122132431" y1="114.3444055944056" x2="528.5108122132431" y2="114.3444055944056" class="err"/>
<line x1="522.5108122132431" y1="127.89335664335667" x2="528.5108122132431" y2="127.89335664335667" class="err"/>
<circle cx="525.5108122132431" cy="121.11888111888113" r="2.5" class="obs"/>
<line x1="536.8580566456014" y1="114.3444055944056" x2="536.8580566456014" y2="127.89335664335667" class="err"/>
<line x1="533.8580566456014" y1="114.3444055944056" x2="539.8580566456014" y2="114.3444055944056" class="err"/>
<line x1="533.8580566456014" y1="127.89335664335667" x2="539.8580566456014" y2="127.89335664335667" class="err"/>
<circle cx="536.8580566456014" cy="121.11888111888113" r="2.5" class="obs"/>
<line x1="549.988439488759" y1="117.05419580419581" x2="549.988439488759" y2="130.60314685314688" class="err"/>
<line x1="546.988439488759" y1="117.05419580419581" x2="552.988439488759" y2="117.05419580419581" class="err"/>
<line x1="546.988439488759" y1="130.60314685314688" x2="552.988439488759" y2="130.60314685314688" class="err"/>
<circle cx="549.988439488759" cy="123.82867132867135" r="2.5" class="obs"/>
<line x1="561.3356839211174" y1="122.47377622377624" x2="561.3356839211174" y2="136.02272727272725" class="err"/>
<line x1="558.3356839211174" y1="122.47377622377624" x2="564.3356839211174" y2="122.47377622377624" class="err"/>
<line x1="558.3356839211174" y1="136.02272727272725" x2="564.3356839211174" y2="136.02272727272725" class="err"/>
<circle cx="561.3356839211174" cy="129.2482517482518" r="2.5" class="obs"/>
<line x1="572.6829283534757" y1="121.11888111888113" x2="572.6829283534757" y2="148.21678321678323" class="err"/>
<line x1="569.6829283534757" y1="121.11888111888113" x2="575.6829283534757" y2="121.11888111888113" class="err"/>
<line x1="569.6829283534757" y1="148.21678321678323" x2="575.6829283534757" y2="148.21678321678323" class="err"/>
<circle cx="572.6829283534757" cy="134.66783216783216" r="2.5" class="obs"/>
<g class="legend">
<line x1="82" y1="69" x2="106" y2="69" class="fw"/>
<text x="112" y="73" class="lbl-l">framework fit</text>
<line x1="82" y1="87" x2="106" y2="87" class="nt"/>
<text x="112" y="91" class="lbl-l">Newtonian (no halo)</text>
<circle cx="94" cy="105" r="2.5" class="obs"/>
<text x="112" y="109" class="lbl">observed V±err</text>
</g>
<g class="legend">
<line x1="460" y1="69" x2="484" y2="69" class="rho"/>
<text x="490" y="73" class="lbl-r">ρ(r) raw</text>
<line x1="460" y1="87" x2="484" y2="87" class="sig"/>
<text x="490" y="91" class="lbl-r">Σ(r) smoothed</text>
<text x="460" y="113" class="lbl-r">ρ peak: 363 M☉/pc²</text>
</g>
</svg>