<svg xmlns="http://www.w3.org/2000/svg" viewBox="0 0 890 420" width="890" height="420" font-family="sans-serif" font-size="12">
<style>
  .ax { stroke: #333; stroke-width: 1; fill: none; }
  .grid { stroke: #ddd; stroke-width: 0.5; fill: none; }
  .lbl { fill: #333; }
  .lbl-l { fill: #0066cc; }
  .lbl-r { fill: #b03030; }
  .obs { fill: #222; }
  .err { stroke: #555; stroke-width: 0.8; fill: none; }
  .fw { stroke: #0066cc; stroke-width: 2.2; fill: none; }
  .nt { stroke: #cc6600; stroke-width: 1.6; fill: none; stroke-dasharray: 5,3; }
  .lbl-s { fill: #cc7000; }
  .rho { stroke: #b03030; stroke-width: 2.0; fill: none; }
  .sig { stroke: #cc7000; stroke-width: 1.8; fill: none; }
  .title { fill: #111; font-size: 16px; font-weight: 600; }
  .subtitle { fill: #555; font-size: 11px; }
  .preview-bg { fill: #000; }
  .preview-lbl { fill: #888; font-size: 10px; }
  .legend { font-size: 11px; }
</style>
<text x="343.5" y="22" text-anchor="middle" class="title">NGC4088</text>
<text x="343.5" y="38" text-anchor="middle" class="subtitle">rMax=21.5 kpc, N=12, RMS=1.5 km/s (0.9%), amp=104</text>
<line x1="70" y1="365.0" x2="617" y2="365.0" class="grid"/>
<text x="64" y="369.0" text-anchor="end" class="lbl-l">0</text>
<line x1="70" y1="303.0" x2="617" y2="303.0" class="grid"/>
<text x="64" y="307.0" text-anchor="end" class="lbl-l">42</text>
<line x1="70" y1="241.0" x2="617" y2="241.0" class="grid"/>
<text x="64" y="245.0" text-anchor="end" class="lbl-l">84</text>
<line x1="70" y1="179.0" x2="617" y2="179.0" class="grid"/>
<text x="64" y="183.0" text-anchor="end" class="lbl-l">126</text>
<line x1="70" y1="117.0" x2="617" y2="117.0" class="grid"/>
<text x="64" y="121.0" text-anchor="end" class="lbl-l">168</text>
<line x1="70" y1="55.0" x2="617" y2="55.0" class="grid"/>
<text x="64" y="59.0" text-anchor="end" class="lbl-l">210</text>
<text x="623" y="369.0" text-anchor="start" class="lbl-r">0.0</text>
<text x="623" y="327.7" text-anchor="start" class="lbl-r">0.2</text>
<text x="623" y="286.3" text-anchor="start" class="lbl-r">0.4</text>
<text x="623" y="245.0" text-anchor="start" class="lbl-r">0.6</text>
<text x="623" y="203.7" text-anchor="start" class="lbl-r">0.8</text>
<text x="623" y="162.3" text-anchor="start" class="lbl-r">1.0</text>
<line x1="70.0" y1="55" x2="70.0" y2="365" class="grid"/>
<text x="70.0" y="381" text-anchor="middle" class="lbl">0.0</text>
<line x1="161.2" y1="55" x2="161.2" y2="365" class="grid"/>
<text x="161.2" y="381" text-anchor="middle" class="lbl">3.8</text>
<line x1="252.3" y1="55" x2="252.3" y2="365" class="grid"/>
<text x="252.3" y="381" text-anchor="middle" class="lbl">7.6</text>
<line x1="343.5" y1="55" x2="343.5" y2="365" class="grid"/>
<text x="343.5" y="381" text-anchor="middle" class="lbl">11.3</text>
<line x1="434.7" y1="55" x2="434.7" y2="365" class="grid"/>
<text x="434.7" y="381" text-anchor="middle" class="lbl">15.1</text>
<line x1="525.8" y1="55" x2="525.8" y2="365" class="grid"/>
<text x="525.8" y="381" text-anchor="middle" class="lbl">18.9</text>
<line x1="617.0" y1="55" x2="617.0" y2="365" class="grid"/>
<text x="617.0" y="381" text-anchor="middle" class="lbl">22.7</text>
<text x="343.5" y="408" text-anchor="middle" class="lbl">radius (kpc)</text>
<text x="16" y="210" text-anchor="middle" class="lbl-l" transform="rotate(-90, 16, 210)">velocity (km/s)</text>
<text x="654" y="210" text-anchor="middle" class="lbl-r" transform="rotate(-90, 654, 210)">mass profile (normalized to peak)</text>
<rect x="70" y="55" width="547" height="310" class="ax"/>
<path d="M 70.0,158.3 L 72.5,162.1 L 75.0,165.9 L 77.5,169.7 L 80.0,173.5 L 82.5,177.3 L 85.0,181.1 L 87.5,183.7 L 90.0,185.6 L 92.5,187.4 L 95.0,189.2 L 97.5,191.1 L 100.0,192.9 L 102.5,194.7 L 105.0,196.6 L 107.5,198.4 L 110.0,200.2 L 112.5,202.1 L 115.0,203.9 L 117.5,205.7 L 120.0,207.6 L 122.5,209.4 L 124.9,211.2 L 127.4,213.0 L 129.9,214.9 L 132.4,216.7 L 134.9,218.5 L 137.4,220.4 L 139.9,222.2 L 142.4,224.0 L 144.9,225.9 L 147.4,227.7 L 149.9,229.5 L 152.4,231.4 L 154.9,233.2 L 157.4,235.0 L 159.9,236.9 L 162.4,238.7 L 164.9,240.5 L 167.4,242.3 L 169.9,244.2 L 172.4,246.0 L 174.9,247.0 L 177.4,247.9 L 179.9,248.8 L 182.4,249.8 L 184.9,250.7 L 187.4,251.6 L 189.9,252.6 L 192.4,253.5 L 194.9,254.4 L 197.4,255.4 L 199.9,256.3 L 202.4,257.2 L 204.9,258.2 L 207.4,259.1 L 209.9,260.0 L 212.4,261.0 L 214.9,261.9 L 217.4,262.8 L 219.9,263.8 L 222.4,264.7 L 224.9,265.6 L 227.4,266.6 L 229.9,267.5 L 232.4,268.4 L 234.8,269.4 L 237.3,270.3 L 239.8,271.2 L 242.3,272.2 L 244.8,273.1 L 247.3,274.0 L 249.8,275.0 L 252.3,275.9 L 254.8,276.8 L 257.3,277.8 L 259.8,278.7 L 262.3,279.6 L 264.8,280.6 L 267.3,281.5 L 269.8,282.4 L 272.3,283.4 L 274.8,284.3 L 277.3,285.2 L 279.8,286.2 L 282.3,287.1 L 284.8,288.0 L 287.3,289.0 L 289.8,289.9 L 292.3,290.8 L 294.8,291.8 L 297.3,292.7 L 299.8,293.6 L 302.3,294.6 L 304.8,295.5 L 307.3,296.4 L 309.8,297.4 L 312.3,298.3 L 314.8,298.6 L 317.3,298.9 L 319.8,299.2 L 322.3,299.4 L 324.8,299.7 L 327.3,299.9 L 329.8,300.2 L 332.3,300.4 L 334.8,300.7 L 337.3,300.9 L 339.8,301.2 L 342.3,301.5 L 344.7,301.7 L 347.2,302.0 L 349.7,302.2 L 352.2,302.5 L 354.7,302.7 L 357.2,303.0 L 359.7,303.2 L 362.2,303.5 L 364.7,303.8 L 367.2,304.0 L 369.7,304.3 L 372.2,304.5 L 374.7,304.8 L 377.2,305.0 L 379.7,305.3 L 382.2,305.5 L 384.7,305.8 L 387.2,306.1 L 389.7,306.3 L 392.2,306.6 L 394.7,306.8 L 397.2,307.1 L 399.7,307.3 L 402.2,307.6 L 404.7,307.8 L 407.2,308.1 L 409.7,308.4 L 412.2,308.6 L 414.7,308.9 L 417.2,309.1 L 419.7,309.4 L 422.2,309.6 L 424.7,309.9 L 427.2,310.1 L 429.7,310.4 L 432.2,310.7 L 434.7,310.9 L 437.2,311.2 L 439.7,311.4 L 442.2,311.7 L 444.7,311.9 L 447.2,312.2 L 449.7,312.4 L 452.2,312.7 L 454.6,313.0 L 457.1,313.2 L 459.6,313.5 L 462.1,313.7 L 464.6,314.0 L 467.1,314.2 L 469.6,314.5 L 472.1,314.7 L 474.6,315.0 L 477.1,315.3 L 479.6,315.5 L 482.1,315.8 L 484.6,316.0 L 487.1,316.3 L 489.6,316.5 L 492.1,316.8 L 494.6,317.0 L 497.1,317.3 L 499.6,317.6 L 502.1,317.8 L 504.6,318.1 L 507.1,318.3 L 509.6,318.6 L 512.1,318.8 L 514.6,319.1 L 517.1,319.4 L 519.6,319.6 L 522.1,319.9 L 524.6,320.1 L 527.1,320.4 L 529.6,320.6 L 532.1,320.9 L 534.6,321.1 L 537.1,321.4 L 539.6,321.7 L 542.1,321.9 L 544.6,322.2 L 547.1,322.4 L 549.6,322.7 L 552.1,322.9 L 554.6,323.2 L 557.1,323.4 L 559.6,323.7 L 562.1,324.0 L 564.5,324.2 L 567.0,324.5 L 569.5,324.7 L 572.0,325.0 L 574.5,325.2 L 577.0,325.5 L 579.5,325.7 L 582.0,326.0 L 584.5,335.8 L 587.0,347.1 L 589.5,358.5 L 592.0,365.0 L 594.5,365.0 L 597.0,365.0 L 599.5,365.0 L 602.0,365.0 L 604.5,365.0 L 607.0,365.0 L 609.5,365.0 L 612.0,365.0 L 614.5,365.0 L 617.0,365.0" class="rho"/>
<path d="M 70.0,158.3 L 72.5,158.4 L 75.0,158.6 L 77.5,158.9 L 80.0,159.2 L 82.5,159.6 L 85.0,160.2 L 87.5,160.8 L 90.0,161.4 L 92.5,162.2 L 95.0,163.0 L 97.5,163.9 L 100.0,164.8 L 102.5,165.8 L 105.0,166.9 L 107.5,168.0 L 110.0,169.1 L 112.5,170.3 L 115.0,171.5 L 117.5,172.8 L 120.0,174.1 L 122.5,175.4 L 124.9,176.8 L 127.4,178.2 L 129.9,179.6 L 132.4,181.0 L 134.9,182.5 L 137.4,184.0 L 139.9,185.4 L 142.4,186.9 L 144.9,188.5 L 147.4,190.0 L 149.9,191.5 L 152.4,193.0 L 154.9,194.6 L 157.4,196.1 L 159.9,197.6 L 162.4,199.2 L 164.9,200.7 L 167.4,202.2 L 169.9,203.7 L 172.4,205.2 L 174.9,206.7 L 177.4,208.2 L 179.9,209.7 L 182.4,211.2 L 184.9,212.7 L 187.4,214.1 L 189.9,215.6 L 192.4,217.0 L 194.9,218.4 L 197.4,219.8 L 199.9,221.3 L 202.4,222.7 L 204.9,224.1 L 207.4,225.5 L 209.9,226.8 L 212.4,228.2 L 214.9,229.6 L 217.4,230.9 L 219.9,232.3 L 222.4,233.6 L 224.9,235.0 L 227.4,236.3 L 229.9,237.6 L 232.4,238.9 L 234.8,240.2 L 237.3,241.5 L 239.8,242.8 L 242.3,244.1 L 244.8,245.3 L 247.3,246.6 L 249.8,247.9 L 252.3,249.1 L 254.8,250.3 L 257.3,251.5 L 259.8,252.7 L 262.3,253.9 L 264.8,255.1 L 267.3,256.3 L 269.8,257.5 L 272.3,258.6 L 274.8,259.8 L 277.3,260.9 L 279.8,262.0 L 282.3,263.1 L 284.8,264.2 L 287.3,265.3 L 289.8,266.4 L 292.3,267.4 L 294.8,268.5 L 297.3,269.5 L 299.8,270.5 L 302.3,271.5 L 304.8,272.5 L 307.3,273.4 L 309.8,274.4 L 312.3,275.3 L 314.8,276.3 L 317.3,277.2 L 319.8,278.1 L 322.3,278.9 L 324.8,279.8 L 327.3,280.7 L 329.8,281.5 L 332.3,282.3 L 334.8,283.1 L 337.3,283.9 L 339.8,284.7 L 342.3,285.5 L 344.7,286.3 L 347.2,287.0 L 349.7,287.8 L 352.2,288.5 L 354.7,289.3 L 357.2,290.0 L 359.7,290.7 L 362.2,291.4 L 364.7,292.1 L 367.2,292.8 L 369.7,293.5 L 372.2,294.1 L 374.7,294.8 L 377.2,295.5 L 379.7,296.1 L 382.2,296.8 L 384.7,297.4 L 387.2,298.0 L 389.7,298.7 L 392.2,299.3 L 394.7,299.9 L 397.2,300.5 L 399.7,301.1 L 402.2,301.7 L 404.7,302.3 L 407.2,302.9 L 409.7,303.5 L 412.2,304.0 L 414.7,304.6 L 417.2,305.2 L 419.7,305.7 L 422.2,306.3 L 424.7,306.8 L 427.2,307.4 L 429.7,307.9 L 432.2,308.5 L 434.7,309.0 L 437.2,309.6 L 439.7,310.1 L 442.2,310.6 L 444.7,311.1 L 447.2,311.6 L 449.7,312.2 L 452.2,312.7 L 454.6,313.2 L 457.1,313.7 L 459.6,314.2 L 462.1,314.7 L 464.6,315.2 L 467.1,315.6 L 469.6,316.1 L 472.1,316.6 L 474.6,317.1 L 477.1,317.6 L 479.6,318.0 L 482.1,318.5 L 484.6,319.0 L 487.1,319.4 L 489.6,319.9 L 492.1,320.4 L 494.6,320.8 L 497.1,321.3 L 499.6,321.7 L 502.1,322.2 L 504.6,322.6 L 507.1,323.1 L 509.6,323.5 L 512.1,324.0 L 514.6,324.4 L 517.1,324.8 L 519.6,325.3 L 522.1,325.7 L 524.6,326.1 L 527.1,326.6 L 529.6,327.0 L 532.1,327.4 L 534.6,327.9 L 537.1,328.3 L 539.6,328.7 L 542.1,329.2 L 544.6,329.6 L 547.1,330.0 L 549.6,330.4 L 552.1,330.9 L 554.6,331.3 L 557.1,331.7 L 559.6,332.1 L 562.1,332.6 L 564.5,333.0 L 567.0,333.4 L 569.5,333.9 L 572.0,334.3 L 574.5,334.7 L 577.0,335.1 L 579.5,335.6 L 582.0,336.0 L 584.5,336.4 L 587.0,336.8 L 589.5,337.2 L 592.0,337.6 L 594.5,338.0 L 597.0,338.4 L 599.5,338.8 L 602.0,339.2 L 604.5,339.5 L 607.0,339.9 L 609.5,340.2 L 612.0,340.6 L 614.5,340.9 L 617.0,341.2" class="sig"/>
<path d="M 75.5,312.5 L 80.9,291.7 L 86.4,276.5 L 91.9,264.1 L 97.3,253.2 L 102.8,243.6 L 108.3,234.9 L 113.8,227.1 L 119.2,219.9 L 124.7,213.3 L 130.2,207.2 L 135.6,201.6 L 141.1,196.3 L 146.6,191.4 L 152.1,186.9 L 157.5,182.7 L 163.0,178.7 L 168.5,175.1 L 173.9,171.7 L 179.4,168.4 L 184.9,165.2 L 190.3,162.2 L 195.8,159.3 L 201.3,156.4 L 206.8,153.7 L 212.2,151.1 L 217.7,148.6 L 223.2,146.2 L 228.6,143.9 L 234.1,141.7 L 239.6,139.5 L 245.0,137.5 L 250.5,135.6 L 256.0,133.7 L 261.4,132.0 L 266.9,130.3 L 272.4,128.7 L 277.9,127.2 L 283.3,125.8 L 288.8,124.4 L 294.3,123.2 L 299.7,122.0 L 305.2,120.9 L 310.7,119.9 L 316.1,118.9 L 321.6,118.0 L 327.1,117.0 L 332.6,116.0 L 338.0,115.1 L 343.5,114.1 L 349.0,113.1 L 354.4,112.2 L 359.9,111.2 L 365.4,110.3 L 370.9,109.4 L 376.3,108.4 L 381.8,107.5 L 387.3,106.6 L 392.7,105.7 L 398.2,104.8 L 403.7,104.0 L 409.1,103.1 L 414.6,102.2 L 420.1,101.4 L 425.5,100.6 L 431.0,99.8 L 436.5,99.0 L 442.0,98.2 L 447.4,97.4 L 452.9,96.6 L 458.4,95.9 L 463.8,95.2 L 469.3,94.4 L 474.8,93.7 L 480.2,93.1 L 485.7,92.4 L 491.2,91.7 L 496.7,91.1 L 502.1,90.5 L 507.6,89.8 L 513.1,89.2 L 518.5,88.7 L 524.0,88.1 L 529.5,87.5 L 535.0,87.0 L 540.4,86.5 L 545.9,86.0 L 551.4,85.5 L 556.8,85.0 L 562.3,84.6 L 567.8,84.1 L 573.2,83.7 L 578.7,83.3 L 584.2,82.9 L 589.6,83.5 L 595.1,85.0 L 600.6,86.4 L 606.1,87.9 L 611.5,89.3 L 617.0,90.6" class="nt"/>
<path d="M 74.6,346.6 L 79.1,332.9 L 83.7,317.9 L 88.2,303.4 L 92.8,289.6 L 97.4,276.5 L 101.9,264.0 L 106.5,252.2 L 111.0,241.0 L 115.6,230.3 L 120.1,220.3 L 124.7,210.8 L 129.3,201.9 L 133.8,193.5 L 138.4,185.6 L 142.9,178.4 L 147.5,171.6 L 152.1,165.5 L 156.6,159.8 L 161.2,154.7 L 165.7,150.0 L 170.3,145.8 L 174.8,142.0 L 179.4,138.4 L 184.0,135.0 L 188.5,131.7 L 193.1,128.6 L 197.6,125.5 L 202.2,122.5 L 206.8,119.7 L 211.3,116.9 L 215.9,114.2 L 220.4,111.7 L 225.0,109.2 L 229.5,107.0 L 234.1,104.8 L 238.7,102.8 L 243.2,101.0 L 247.8,99.3 L 252.3,97.9 L 256.9,96.5 L 261.4,95.4 L 266.0,94.5 L 270.6,93.8 L 275.1,93.2 L 279.7,93.0 L 284.2,92.9 L 288.8,93.1 L 293.4,93.5 L 297.9,94.2 L 302.5,95.1 L 307.0,96.2 L 311.6,97.5 L 316.1,98.9 L 320.7,100.3 L 325.3,101.7 L 329.8,103.1 L 334.4,104.4 L 338.9,105.5 L 343.5,106.6 L 348.1,107.6 L 352.6,108.5 L 357.2,109.3 L 361.7,110.1 L 366.3,110.8 L 370.9,111.4 L 375.4,112.0 L 380.0,112.5 L 384.5,113.0 L 389.1,113.5 L 393.6,113.9 L 398.2,114.3 L 402.8,114.6 L 407.3,115.0 L 411.9,115.3 L 416.4,115.5 L 421.0,115.8 L 425.6,116.0 L 430.1,116.3 L 434.7,116.5 L 439.2,116.6 L 443.8,116.8 L 448.3,116.9 L 452.9,117.1 L 457.5,117.2 L 462.0,117.3 L 466.6,117.3 L 471.1,117.4 L 475.7,117.4 L 480.3,117.4 L 484.8,117.3 L 489.4,117.2 L 493.9,117.1 L 498.5,117.0 L 503.0,116.8 L 507.6,116.5 L 512.2,116.2 L 516.7,115.8 L 521.3,115.4 L 525.8,114.9 L 530.4,114.2 L 535.0,113.5 L 539.5,112.6 L 544.1,111.6 L 548.6,110.5 L 553.2,109.2 L 557.7,107.8 L 562.3,106.3 L 566.9,104.9 L 571.4,103.7 L 576.0,103.0 L 580.5,103.1 L 585.1,104.2 L 589.6,106.4 L 594.2,109.6 L 598.8,113.6 L 603.3,118.1 L 607.9,122.8 L 612.4,127.5 L 617.0,132.2" class="fw"/>
<line x1="111.94" y1="222.78" x2="111.94" y2="256.19" class="err"/>
<line x1="108.94" y1="222.78" x2="114.94" y2="222.78" class="err"/>
<line x1="108.94" y1="256.19" x2="114.94" y2="256.19" class="err"/>
<circle cx="111.94" cy="239.48" r="2.5" class="obs"/>
<line x1="154.35" y1="149.30" x2="154.35" y2="178.57" class="err"/>
<line x1="151.35" y1="149.30" x2="157.35" y2="149.30" class="err"/>
<line x1="151.35" y1="178.57" x2="157.35" y2="178.57" class="err"/>
<circle cx="154.35" cy="163.94" r="2.5" class="obs"/>
<line x1="196.29" y1="113.67" x2="196.29" y2="137.32" class="err"/>
<line x1="193.29" y1="113.67" x2="199.29" y2="113.67" class="err"/>
<line x1="193.29" y1="137.32" x2="199.29" y2="137.32" class="err"/>
<circle cx="196.29" cy="125.50" r="2.5" class="obs"/>
<line x1="238.23" y1="90.75" x2="238.23" y2="109.97" class="err"/>
<line x1="235.23" y1="90.75" x2="241.23" y2="90.75" class="err"/>
<line x1="235.23" y1="109.97" x2="241.23" y2="109.97" class="err"/>
<circle cx="238.23" cy="100.36" r="2.5" class="obs"/>
<line x1="280.16" y1="86.91" x2="280.16" y2="104.95" class="err"/>
<line x1="277.16" y1="86.91" x2="283.16" y2="86.91" class="err"/>
<line x1="277.16" y1="104.95" x2="283.16" y2="104.95" class="err"/>
<circle cx="280.16" cy="95.93" r="2.5" class="obs"/>
<line x1="322.34" y1="90.01" x2="322.34" y2="110.71" class="err"/>
<line x1="319.34" y1="90.01" x2="325.34" y2="90.01" class="err"/>
<line x1="319.34" y1="110.71" x2="325.34" y2="110.71" class="err"/>
<circle cx="322.34" cy="100.36" r="2.5" class="obs"/>
<line x1="363.79" y1="98.59" x2="363.79" y2="116.92" class="err"/>
<line x1="360.79" y1="98.59" x2="366.79" y2="98.59" class="err"/>
<line x1="360.79" y1="116.92" x2="366.79" y2="116.92" class="err"/>
<circle cx="363.79" cy="107.76" r="2.5" class="obs"/>
<line x1="405.97" y1="101.55" x2="405.97" y2="122.84" class="err"/>
<line x1="402.97" y1="101.55" x2="408.97" y2="101.55" class="err"/>
<line x1="402.97" y1="122.84" x2="408.97" y2="122.84" class="err"/>
<circle cx="405.97" cy="112.19" r="2.5" class="obs"/>
<line x1="447.91" y1="107.61" x2="447.91" y2="125.64" class="err"/>
<line x1="444.91" y1="107.61" x2="450.91" y2="107.61" class="err"/>
<line x1="444.91" y1="125.64" x2="450.91" y2="125.64" class="err"/>
<circle cx="447.91" cy="116.63" r="2.5" class="obs"/>
<line x1="489.84" y1="112.78" x2="489.84" y2="129.34" class="err"/>
<line x1="486.84" y1="112.78" x2="492.84" y2="112.78" class="err"/>
<line x1="486.84" y1="129.34" x2="492.84" y2="129.34" class="err"/>
<circle cx="489.84" cy="121.06" r="2.5" class="obs"/>
<line x1="534.67" y1="99.48" x2="534.67" y2="124.91" class="err"/>
<line x1="531.67" y1="99.48" x2="537.67" y2="99.48" class="err"/>
<line x1="531.67" y1="124.91" x2="537.67" y2="124.91" class="err"/>
<circle cx="534.67" cy="112.19" r="2.5" class="obs"/>
<line x1="587.69" y1="96.52" x2="587.69" y2="118.99" class="err"/>
<line x1="584.69" y1="96.52" x2="590.69" y2="96.52" class="err"/>
<line x1="584.69" y1="118.99" x2="590.69" y2="118.99" class="err"/>
<circle cx="587.69" cy="107.76" r="2.5" class="obs"/>
<g class="legend">
<line x1="82" y1="69" x2="106" y2="69" class="fw"/>
<text x="112" y="73" class="lbl-l">framework fit</text>
<line x1="82" y1="87" x2="106" y2="87" class="nt"/>
<text x="112" y="91" class="lbl-l">Newtonian (no halo)</text>
<circle cx="94" cy="105" r="2.5" class="obs"/>
<text x="112" y="109" class="lbl">observed V±err</text>
</g>
<g class="legend">
<line x1="442" y1="69" x2="466" y2="69" class="rho"/>
<text x="472" y="73" class="lbl-r">ρ(r) raw</text>
<line x1="442" y1="87" x2="466" y2="87" class="sig"/>
<text x="472" y="91" class="lbl-s">Σ(r) cumulative</text>
<text x="442" y="113" class="lbl-r">ρ peak: 423 M☉/pc²</text>
</g>
<rect x="705" y="55" width="170" height="170" class="preview-bg"/>
<defs><radialGradient id="g_NGC4088" cx="0.5" cy="0.5" r="0.5">
  <stop offset="0.0000" stop-color="rgb(152,152,152)"/>
  <stop offset="0.0313" stop-color="rgb(138,138,138)"/>
  <stop offset="0.0625" stop-color="rgb(132,132,132)"/>
  <stop offset="0.0938" stop-color="rgb(125,125,125)"/>
  <stop offset="0.1250" stop-color="rgb(118,118,118)"/>
  <stop offset="0.1563" stop-color="rgb(112,112,112)"/>
  <stop offset="0.1875" stop-color="rgb(105,105,105)"/>
  <stop offset="0.2188" stop-color="rgb(101,101,101)"/>
  <stop offset="0.2500" stop-color="rgb(97,97,97)"/>
  <stop offset="0.2813" stop-color="rgb(94,94,94)"/>
  <stop offset="0.3125" stop-color="rgb(90,90,90)"/>
  <stop offset="0.3438" stop-color="rgb(87,87,87)"/>
  <stop offset="0.3750" stop-color="rgb(84,84,84)"/>
  <stop offset="0.4063" stop-color="rgb(80,80,80)"/>
  <stop offset="0.4375" stop-color="rgb(77,77,77)"/>
  <stop offset="0.4688" stop-color="rgb(74,74,74)"/>
  <stop offset="0.5000" stop-color="rgb(73,73,73)"/>
  <stop offset="0.5313" stop-color="rgb(72,72,72)"/>
  <stop offset="0.5625" stop-color="rgb(71,71,71)"/>
  <stop offset="0.5938" stop-color="rgb(70,70,70)"/>
  <stop offset="0.6250" stop-color="rgb(69,69,69)"/>
  <stop offset="0.6563" stop-color="rgb(68,68,68)"/>
  <stop offset="0.6875" stop-color="rgb(67,67,67)"/>
  <stop offset="0.7188" stop-color="rgb(66,66,66)"/>
  <stop offset="0.7500" stop-color="rgb(65,65,65)"/>
  <stop offset="0.7813" stop-color="rgb(64,64,64)"/>
  <stop offset="0.8125" stop-color="rgb(63,63,63)"/>
  <stop offset="0.8438" stop-color="rgb(61,61,61)"/>
  <stop offset="0.8750" stop-color="rgb(58,58,58)"/>
  <stop offset="0.9063" stop-color="rgb(56,56,56)"/>
  <stop offset="0.9375" stop-color="rgb(54,54,54)"/>
  <stop offset="0.9688" stop-color="rgb(52,52,52)"/>
  <stop offset="1.0000" stop-color="rgb(0,0,0)"/>
</radialGradient></defs>
<circle cx="790" cy="140" r="81" fill="url(#g_NGC4088)"/>
<text x="790" y="49" text-anchor="middle" class="preview-lbl">face-on luminance from ρ(r)</text>
<text x="790" y="239" text-anchor="middle" class="preview-lbl">edge at r = 21.6 kpc</text>
</svg>