<svg xmlns="http://www.w3.org/2000/svg" viewBox="0 0 890 420" width="890" height="420" font-family="sans-serif" font-size="12">
<style>
  .ax { stroke: #333; stroke-width: 1; fill: none; }
  .grid { stroke: #ddd; stroke-width: 0.5; fill: none; }
  .lbl { fill: #333; }
  .lbl-l { fill: #0066cc; }
  .lbl-r { fill: #b03030; }
  .obs { fill: #222; }
  .err { stroke: #555; stroke-width: 0.8; fill: none; }
  .fw { stroke: #0066cc; stroke-width: 2.2; fill: none; }
  .nt { stroke: #cc6600; stroke-width: 1.6; fill: none; stroke-dasharray: 5,3; }
  .lbl-s { fill: #cc7000; }
  .rho { stroke: #b03030; stroke-width: 2.0; fill: none; }
  .sig { stroke: #cc7000; stroke-width: 1.8; fill: none; }
  .title { fill: #111; font-size: 16px; font-weight: 600; }
  .subtitle { fill: #555; font-size: 11px; }
  .preview-bg { fill: #000; }
  .preview-lbl { fill: #888; font-size: 10px; }
  .legend { font-size: 11px; }
</style>
<text x="343.5" y="22" text-anchor="middle" class="title">NGC4183</text>
<text x="343.5" y="38" text-anchor="middle" class="subtitle">rMax=21.0 kpc, N=23, RMS=1.4 km/s (1.3%), amp=104</text>
<line x1="70" y1="365.0" x2="617" y2="365.0" class="grid"/>
<text x="64" y="369.0" text-anchor="end" class="lbl-l">0</text>
<line x1="70" y1="303.0" x2="617" y2="303.0" class="grid"/>
<text x="64" y="307.0" text-anchor="end" class="lbl-l">27</text>
<line x1="70" y1="241.0" x2="617" y2="241.0" class="grid"/>
<text x="64" y="245.0" text-anchor="end" class="lbl-l">55</text>
<line x1="70" y1="179.0" x2="617" y2="179.0" class="grid"/>
<text x="64" y="183.0" text-anchor="end" class="lbl-l">82</text>
<line x1="70" y1="117.0" x2="617" y2="117.0" class="grid"/>
<text x="64" y="121.0" text-anchor="end" class="lbl-l">110</text>
<line x1="70" y1="55.0" x2="617" y2="55.0" class="grid"/>
<text x="64" y="59.0" text-anchor="end" class="lbl-l">137</text>
<text x="623" y="369.0" text-anchor="start" class="lbl-r">0.0</text>
<text x="623" y="327.7" text-anchor="start" class="lbl-r">0.2</text>
<text x="623" y="286.3" text-anchor="start" class="lbl-r">0.4</text>
<text x="623" y="245.0" text-anchor="start" class="lbl-r">0.6</text>
<text x="623" y="203.7" text-anchor="start" class="lbl-r">0.8</text>
<text x="623" y="162.3" text-anchor="start" class="lbl-r">1.0</text>
<line x1="70.0" y1="55" x2="70.0" y2="365" class="grid"/>
<text x="70.0" y="381" text-anchor="middle" class="lbl">0.0</text>
<line x1="161.2" y1="55" x2="161.2" y2="365" class="grid"/>
<text x="161.2" y="381" text-anchor="middle" class="lbl">3.9</text>
<line x1="252.3" y1="55" x2="252.3" y2="365" class="grid"/>
<text x="252.3" y="381" text-anchor="middle" class="lbl">7.7</text>
<line x1="343.5" y1="55" x2="343.5" y2="365" class="grid"/>
<text x="343.5" y="381" text-anchor="middle" class="lbl">11.6</text>
<line x1="434.7" y1="55" x2="434.7" y2="365" class="grid"/>
<text x="434.7" y="381" text-anchor="middle" class="lbl">15.4</text>
<line x1="525.8" y1="55" x2="525.8" y2="365" class="grid"/>
<text x="525.8" y="381" text-anchor="middle" class="lbl">19.3</text>
<line x1="617.0" y1="55" x2="617.0" y2="365" class="grid"/>
<text x="617.0" y="381" text-anchor="middle" class="lbl">23.1</text>
<text x="343.5" y="408" text-anchor="middle" class="lbl">radius (kpc)</text>
<text x="16" y="210" text-anchor="middle" class="lbl-l" transform="rotate(-90, 16, 210)">velocity (km/s)</text>
<text x="874" y="210" text-anchor="middle" class="lbl-r" transform="rotate(-90, 874, 210)">mass profile (normalized to peak)</text>
<rect x="70" y="55" width="547" height="310" class="ax"/>
<path d="M 70.0,158.3 L 72.5,167.7 L 75.0,177.1 L 77.5,186.5 L 80.0,195.8 L 82.5,205.2 L 85.0,214.6 L 87.5,224.0 L 90.0,233.3 L 92.5,242.7 L 95.0,252.1 L 97.5,261.5 L 100.0,269.4 L 102.5,270.2 L 105.0,271.0 L 107.5,271.8 L 110.0,272.6 L 112.5,273.4 L 115.0,274.2 L 117.5,275.0 L 120.0,275.7 L 122.5,276.5 L 124.9,277.3 L 127.4,278.1 L 129.9,278.9 L 132.4,279.7 L 134.9,280.5 L 137.4,281.3 L 139.9,282.1 L 142.4,282.9 L 144.9,283.7 L 147.4,284.5 L 149.9,285.3 L 152.4,286.1 L 154.9,286.9 L 157.4,287.7 L 159.9,288.5 L 162.4,289.3 L 164.9,290.1 L 167.4,290.9 L 169.9,291.7 L 172.4,292.5 L 174.9,293.0 L 177.4,293.5 L 179.9,293.9 L 182.4,294.4 L 184.9,294.9 L 187.4,295.4 L 189.9,295.8 L 192.4,296.3 L 194.9,296.8 L 197.4,297.3 L 199.9,297.7 L 202.4,298.2 L 204.9,298.7 L 207.4,299.2 L 209.9,299.6 L 212.4,300.1 L 214.9,300.6 L 217.4,301.1 L 219.9,301.5 L 222.4,302.0 L 224.9,302.5 L 227.4,302.9 L 229.9,303.4 L 232.4,303.9 L 234.8,304.4 L 237.3,304.8 L 239.8,305.3 L 242.3,305.8 L 244.8,306.3 L 247.3,306.7 L 249.8,307.2 L 252.3,307.7 L 254.8,308.2 L 257.3,308.6 L 259.8,309.1 L 262.3,309.6 L 264.8,310.1 L 267.3,310.5 L 269.8,311.0 L 272.3,311.5 L 274.8,311.9 L 277.3,312.4 L 279.8,312.9 L 282.3,313.4 L 284.8,313.8 L 287.3,314.3 L 289.8,314.8 L 292.3,315.3 L 294.8,315.7 L 297.3,316.2 L 299.8,316.7 L 302.3,317.2 L 304.8,317.6 L 307.3,318.1 L 309.8,318.6 L 312.3,318.8 L 314.8,318.9 L 317.3,319.1 L 319.8,319.3 L 322.3,319.5 L 324.8,319.7 L 327.3,319.9 L 329.8,320.1 L 332.3,320.3 L 334.8,320.5 L 337.3,320.7 L 339.8,320.9 L 342.3,321.0 L 344.7,321.2 L 347.2,321.4 L 349.7,321.6 L 352.2,321.8 L 354.7,322.0 L 357.2,322.2 L 359.7,322.4 L 362.2,322.6 L 364.7,322.8 L 367.2,323.0 L 369.7,323.1 L 372.2,323.3 L 374.7,323.5 L 377.2,323.7 L 379.7,323.9 L 382.2,324.1 L 384.7,324.3 L 387.2,324.5 L 389.7,324.7 L 392.2,324.9 L 394.7,325.1 L 397.2,325.2 L 399.7,325.4 L 402.2,325.6 L 404.7,325.8 L 407.2,326.0 L 409.7,326.2 L 412.2,326.4 L 414.7,326.6 L 417.2,326.8 L 419.7,327.0 L 422.2,327.2 L 424.7,327.4 L 427.2,327.5 L 429.7,327.7 L 432.2,327.9 L 434.7,328.1 L 437.2,328.3 L 439.7,328.5 L 442.2,328.7 L 444.7,328.9 L 447.2,329.1 L 449.7,329.3 L 452.2,329.5 L 454.6,329.6 L 457.1,329.8 L 459.6,330.0 L 462.1,330.2 L 464.6,330.4 L 467.1,330.6 L 469.6,330.8 L 472.1,331.0 L 474.6,331.2 L 477.1,331.4 L 479.6,331.6 L 482.1,331.7 L 484.6,331.9 L 487.1,332.1 L 489.6,332.3 L 492.1,332.5 L 494.6,332.7 L 497.1,332.9 L 499.6,333.1 L 502.1,333.3 L 504.6,333.5 L 507.1,333.7 L 509.6,333.8 L 512.1,334.0 L 514.6,334.2 L 517.1,334.4 L 519.6,334.6 L 522.1,334.8 L 524.6,335.0 L 527.1,335.2 L 529.6,335.4 L 532.1,335.6 L 534.6,335.8 L 537.1,336.0 L 539.6,336.1 L 542.1,336.3 L 544.6,336.5 L 547.1,336.7 L 549.6,336.9 L 552.1,337.1 L 554.6,337.3 L 557.1,337.8 L 559.6,339.8 L 562.1,341.8 L 564.5,343.8 L 567.0,345.8 L 569.5,347.8 L 572.0,349.8 L 574.5,351.8 L 577.0,353.8 L 579.5,355.8 L 582.0,357.8 L 584.5,359.8 L 587.0,361.9 L 589.5,363.9 L 592.0,365.0 L 594.5,365.0 L 597.0,365.0 L 599.5,365.0 L 602.0,365.0 L 604.5,365.0 L 607.0,365.0 L 609.5,365.0 L 612.0,365.0 L 614.5,365.0 L 617.0,365.0" class="rho"/>
<path d="M 70.0,158.3 L 72.5,158.7 L 75.0,159.2 L 77.5,160.0 L 80.0,161.0 L 82.5,162.2 L 85.0,163.6 L 87.5,165.2 L 90.0,166.9 L 92.5,168.7 L 95.0,170.6 L 97.5,172.5 L 100.0,174.3 L 102.5,176.2 L 105.0,178.1 L 107.5,179.9 L 110.0,181.7 L 112.5,183.4 L 115.0,185.1 L 117.5,186.8 L 120.0,188.5 L 122.5,190.1 L 124.9,191.7 L 127.4,193.3 L 129.9,194.8 L 132.4,196.4 L 134.9,197.9 L 137.4,199.4 L 139.9,200.9 L 142.4,202.4 L 144.9,203.9 L 147.4,205.4 L 149.9,206.8 L 152.4,208.3 L 154.9,209.7 L 157.4,211.2 L 159.9,212.6 L 162.4,214.0 L 164.9,215.4 L 167.4,216.8 L 169.9,218.2 L 172.4,219.5 L 174.9,220.9 L 177.4,222.2 L 179.9,223.6 L 182.4,224.9 L 184.9,226.2 L 187.4,227.5 L 189.9,228.8 L 192.4,230.1 L 194.9,231.4 L 197.4,232.7 L 199.9,233.9 L 202.4,235.2 L 204.9,236.4 L 207.4,237.7 L 209.9,238.9 L 212.4,240.1 L 214.9,241.4 L 217.4,242.6 L 219.9,243.8 L 222.4,245.0 L 224.9,246.2 L 227.4,247.4 L 229.9,248.5 L 232.4,249.7 L 234.8,250.9 L 237.3,252.0 L 239.8,253.2 L 242.3,254.3 L 244.8,255.5 L 247.3,256.6 L 249.8,257.7 L 252.3,258.8 L 254.8,259.9 L 257.3,261.0 L 259.8,262.1 L 262.3,263.2 L 264.8,264.2 L 267.3,265.3 L 269.8,266.4 L 272.3,267.4 L 274.8,268.4 L 277.3,269.4 L 279.8,270.5 L 282.3,271.5 L 284.8,272.4 L 287.3,273.4 L 289.8,274.4 L 292.3,275.3 L 294.8,276.3 L 297.3,277.2 L 299.8,278.1 L 302.3,279.1 L 304.8,280.0 L 307.3,280.8 L 309.8,281.7 L 312.3,282.6 L 314.8,283.4 L 317.3,284.3 L 319.8,285.1 L 322.3,285.9 L 324.8,286.7 L 327.3,287.5 L 329.8,288.3 L 332.3,289.0 L 334.8,289.8 L 337.3,290.6 L 339.8,291.3 L 342.3,292.0 L 344.7,292.8 L 347.2,293.5 L 349.7,294.2 L 352.2,294.9 L 354.7,295.6 L 357.2,296.3 L 359.7,297.0 L 362.2,297.6 L 364.7,298.3 L 367.2,299.0 L 369.7,299.6 L 372.2,300.3 L 374.7,300.9 L 377.2,301.5 L 379.7,302.2 L 382.2,302.8 L 384.7,303.4 L 387.2,304.0 L 389.7,304.6 L 392.2,305.2 L 394.7,305.8 L 397.2,306.4 L 399.7,307.0 L 402.2,307.6 L 404.7,308.2 L 407.2,308.8 L 409.7,309.3 L 412.2,309.9 L 414.7,310.4 L 417.2,311.0 L 419.7,311.6 L 422.2,312.1 L 424.7,312.7 L 427.2,313.2 L 429.7,313.7 L 432.2,314.3 L 434.7,314.8 L 437.2,315.3 L 439.7,315.8 L 442.2,316.4 L 444.7,316.9 L 447.2,317.4 L 449.7,317.9 L 452.2,318.4 L 454.6,318.9 L 457.1,319.4 L 459.6,319.9 L 462.1,320.4 L 464.6,320.9 L 467.1,321.4 L 469.6,321.8 L 472.1,322.3 L 474.6,322.8 L 477.1,323.3 L 479.6,323.8 L 482.1,324.2 L 484.6,324.7 L 487.1,325.2 L 489.6,325.6 L 492.1,326.1 L 494.6,326.5 L 497.1,327.0 L 499.6,327.5 L 502.1,327.9 L 504.6,328.4 L 507.1,328.8 L 509.6,329.3 L 512.1,329.7 L 514.6,330.2 L 517.1,330.6 L 519.6,331.1 L 522.1,331.5 L 524.6,332.0 L 527.1,332.4 L 529.6,332.9 L 532.1,333.3 L 534.6,333.7 L 537.1,334.2 L 539.6,334.6 L 542.1,335.1 L 544.6,335.5 L 547.1,336.0 L 549.6,336.4 L 552.1,336.9 L 554.6,337.4 L 557.1,337.8 L 559.6,338.3 L 562.1,338.7 L 564.5,339.2 L 567.0,339.6 L 569.5,340.0 L 572.0,340.5 L 574.5,340.9 L 577.0,341.3 L 579.5,341.7 L 582.0,342.1 L 584.5,342.5 L 587.0,342.8 L 589.5,343.2 L 592.0,343.5 L 594.5,343.9 L 597.0,344.2 L 599.5,344.5 L 602.0,344.8 L 604.5,345.1 L 607.0,345.4 L 609.5,345.7 L 612.0,346.0 L 614.5,346.2 L 617.0,346.5" class="sig"/>
<path d="M 75.5,301.4 L 80.9,278.3 L 86.4,262.9 L 91.9,252.1 L 97.3,244.6 L 102.8,239.3 L 108.3,233.9 L 113.8,228.4 L 119.2,223.0 L 124.7,217.8 L 130.2,212.7 L 135.6,207.9 L 141.1,203.3 L 146.6,199.0 L 152.1,194.8 L 157.5,190.8 L 163.0,187.1 L 168.5,183.5 L 173.9,180.1 L 179.4,176.8 L 184.9,173.7 L 190.3,170.6 L 195.8,167.6 L 201.3,164.7 L 206.8,161.9 L 212.2,159.2 L 217.7,156.6 L 223.2,154.1 L 228.6,151.6 L 234.1,149.3 L 239.6,147.0 L 245.0,144.8 L 250.5,142.7 L 256.0,140.7 L 261.4,138.7 L 266.9,136.9 L 272.4,135.0 L 277.9,133.3 L 283.3,131.6 L 288.8,130.1 L 294.3,128.5 L 299.7,127.1 L 305.2,125.7 L 310.7,124.3 L 316.1,123.0 L 321.6,121.8 L 327.1,120.5 L 332.6,119.2 L 338.0,118.0 L 343.5,116.7 L 349.0,115.5 L 354.4,114.3 L 359.9,113.2 L 365.4,112.0 L 370.8,110.9 L 376.3,109.7 L 381.8,108.6 L 387.3,107.5 L 392.7,106.5 L 398.2,105.4 L 403.7,104.4 L 409.1,103.4 L 414.6,102.4 L 420.1,101.4 L 425.6,100.4 L 431.0,99.5 L 436.5,98.6 L 442.0,97.7 L 447.4,96.8 L 452.9,96.0 L 458.4,95.1 L 463.8,94.3 L 469.3,93.5 L 474.8,92.8 L 480.3,92.0 L 485.7,91.3 L 491.2,90.6 L 496.7,89.9 L 502.1,89.2 L 507.6,88.5 L 513.1,87.9 L 518.5,87.3 L 524.0,86.7 L 529.5,86.1 L 535.0,85.6 L 540.4,85.0 L 545.9,84.5 L 551.4,84.0 L 556.8,83.5 L 562.3,83.2 L 567.8,83.2 L 573.2,83.5 L 578.7,84.2 L 584.2,85.1 L 589.6,86.3 L 595.1,87.8 L 600.6,89.2 L 606.1,90.6 L 611.5,92.0 L 617.0,93.4" class="nt"/>
<path d="M 74.6,333.8 L 79.1,310.9 L 83.7,287.9 L 88.2,267.8 L 92.8,251.6 L 97.3,238.7 L 101.9,228.9 L 106.5,221.3 L 111.0,215.1 L 115.6,209.8 L 120.1,204.8 L 124.7,199.9 L 129.3,195.1 L 133.8,190.4 L 138.4,185.7 L 142.9,181.1 L 147.5,176.7 L 152.1,172.4 L 156.6,168.4 L 161.2,164.6 L 165.7,161.0 L 170.3,157.7 L 174.8,154.5 L 179.4,151.5 L 184.0,148.5 L 188.5,145.7 L 193.1,142.9 L 197.6,140.1 L 202.2,137.4 L 206.8,134.8 L 211.3,132.3 L 215.9,129.8 L 220.4,127.4 L 225.0,125.1 L 229.5,122.9 L 234.1,120.9 L 238.7,119.0 L 243.2,117.2 L 247.8,115.5 L 252.3,114.0 L 256.9,112.6 L 261.4,111.4 L 266.0,110.4 L 270.6,109.5 L 275.1,108.8 L 279.7,108.3 L 284.2,108.1 L 288.8,108.0 L 293.4,108.1 L 297.9,108.5 L 302.5,109.0 L 307.0,109.7 L 311.6,110.6 L 316.2,111.4 L 320.7,112.3 L 325.3,113.2 L 329.8,114.0 L 334.4,114.7 L 338.9,115.3 L 343.5,115.9 L 348.1,116.4 L 352.6,116.9 L 357.2,117.2 L 361.7,117.6 L 366.3,117.9 L 370.8,118.2 L 375.4,118.4 L 380.0,118.7 L 384.5,118.8 L 389.1,119.0 L 393.6,119.2 L 398.2,119.3 L 402.8,119.4 L 407.3,119.5 L 411.9,119.6 L 416.4,119.7 L 421.0,119.8 L 425.6,119.8 L 430.1,119.9 L 434.7,119.9 L 439.2,119.9 L 443.8,119.9 L 448.3,119.9 L 452.9,119.9 L 457.5,119.8 L 462.0,119.8 L 466.6,119.7 L 471.1,119.5 L 475.7,119.4 L 480.3,119.2 L 484.8,118.9 L 489.4,118.6 L 493.9,118.2 L 498.5,117.8 L 503.0,117.3 L 507.6,116.6 L 512.2,115.9 L 516.7,115.0 L 521.3,114.0 L 525.8,112.8 L 530.4,111.4 L 535.0,109.9 L 539.5,108.2 L 544.1,106.5 L 548.6,105.0 L 553.2,103.7 L 557.7,103.1 L 562.3,103.3 L 566.9,104.6 L 571.4,107.1 L 576.0,110.6 L 580.5,115.0 L 585.1,120.0 L 589.7,125.5 L 594.2,131.1 L 598.8,136.6 L 603.3,142.0 L 607.9,147.1 L 612.4,152.0 L 617.0,156.5" class="fw"/>
<line x1="90.56" y1="240.10" x2="90.56" y2="277.14" class="err"/>
<line x1="87.56" y1="240.10" x2="93.56" y2="240.10" class="err"/>
<line x1="87.56" y1="277.14" x2="93.56" y2="277.14" class="err"/>
<circle cx="90.56" cy="258.62" r="2.5" class="obs"/>
<line x1="111.11" y1="201.25" x2="111.11" y2="231.06" class="err"/>
<line x1="108.11" y1="201.25" x2="114.11" y2="201.25" class="err"/>
<line x1="108.11" y1="231.06" x2="114.11" y2="231.06" class="err"/>
<circle cx="111.11" cy="216.16" r="2.5" class="obs"/>
<line x1="131.67" y1="180.47" x2="131.67" y2="205.77" class="err"/>
<line x1="128.67" y1="180.47" x2="134.67" y2="180.47" class="err"/>
<line x1="128.67" y1="205.77" x2="134.67" y2="205.77" class="err"/>
<circle cx="131.67" cy="193.12" r="2.5" class="obs"/>
<line x1="152.70" y1="158.79" x2="152.70" y2="184.08" class="err"/>
<line x1="149.70" y1="158.79" x2="155.70" y2="158.79" class="err"/>
<line x1="149.70" y1="184.08" x2="155.70" y2="184.08" class="err"/>
<circle cx="152.70" cy="171.44" r="2.5" class="obs"/>
<line x1="173.26" y1="135.07" x2="173.26" y2="158.56" class="err"/>
<line x1="170.26" y1="135.07" x2="176.26" y2="135.07" class="err"/>
<line x1="170.26" y1="158.56" x2="176.26" y2="158.56" class="err"/>
<circle cx="173.26" cy="146.82" r="2.5" class="obs"/>
<line x1="193.82" y1="128.97" x2="193.82" y2="152.46" class="err"/>
<line x1="190.82" y1="128.97" x2="196.82" y2="128.97" class="err"/>
<line x1="190.82" y1="152.46" x2="196.82" y2="152.46" class="err"/>
<circle cx="193.82" cy="140.72" r="2.5" class="obs"/>
<line x1="214.37" y1="120.62" x2="214.37" y2="144.11" class="err"/>
<line x1="211.37" y1="120.62" x2="217.37" y2="120.62" class="err"/>
<line x1="211.37" y1="144.11" x2="217.37" y2="144.11" class="err"/>
<circle cx="214.37" cy="132.36" r="2.5" class="obs"/>
<line x1="234.93" y1="111.58" x2="234.93" y2="135.07" class="err"/>
<line x1="231.93" y1="111.58" x2="237.93" y2="111.58" class="err"/>
<line x1="231.93" y1="135.07" x2="237.93" y2="135.07" class="err"/>
<circle cx="234.93" cy="123.33" r="2.5" class="obs"/>
<line x1="255.49" y1="102.55" x2="255.49" y2="126.04" class="err"/>
<line x1="252.49" y1="102.55" x2="258.49" y2="102.55" class="err"/>
<line x1="252.49" y1="126.04" x2="258.49" y2="126.04" class="err"/>
<circle cx="255.49" cy="114.29" r="2.5" class="obs"/>
<line x1="276.04" y1="93.74" x2="276.04" y2="121.29" class="err"/>
<line x1="273.04" y1="93.74" x2="279.04" y2="93.74" class="err"/>
<line x1="273.04" y1="121.29" x2="279.04" y2="121.29" class="err"/>
<circle cx="276.04" cy="107.52" r="2.5" class="obs"/>
<line x1="296.84" y1="91.48" x2="296.84" y2="119.03" class="err"/>
<line x1="293.84" y1="91.48" x2="299.84" y2="91.48" class="err"/>
<line x1="293.84" y1="119.03" x2="299.84" y2="119.03" class="err"/>
<circle cx="296.84" cy="105.26" r="2.5" class="obs"/>
<line x1="317.39" y1="101.64" x2="317.39" y2="126.94" class="err"/>
<line x1="314.39" y1="101.64" x2="320.39" y2="101.64" class="err"/>
<line x1="314.39" y1="126.94" x2="320.39" y2="126.94" class="err"/>
<circle cx="317.39" cy="114.29" r="2.5" class="obs"/>
<line x1="338.19" y1="103.90" x2="338.19" y2="129.20" class="err"/>
<line x1="335.19" y1="103.90" x2="341.19" y2="103.90" class="err"/>
<line x1="335.19" y1="129.20" x2="341.19" y2="129.20" class="err"/>
<circle cx="338.19" cy="116.55" r="2.5" class="obs"/>
<line x1="360.87" y1="102.55" x2="360.87" y2="126.04" class="err"/>
<line x1="357.87" y1="102.55" x2="363.87" y2="102.55" class="err"/>
<line x1="357.87" y1="126.04" x2="363.87" y2="126.04" class="err"/>
<circle cx="360.87" cy="114.29" r="2.5" class="obs"/>
<line x1="380.01" y1="107.97" x2="380.01" y2="129.65" class="err"/>
<line x1="377.01" y1="107.97" x2="383.01" y2="107.97" class="err"/>
<line x1="377.01" y1="129.65" x2="383.01" y2="129.65" class="err"/>
<circle cx="380.01" cy="118.81" r="2.5" class="obs"/>
<line x1="401.99" y1="111.13" x2="401.99" y2="131.01" class="err"/>
<line x1="398.99" y1="111.13" x2="404.99" y2="111.13" class="err"/>
<line x1="398.99" y1="131.01" x2="404.99" y2="131.01" class="err"/>
<circle cx="401.99" cy="121.07" r="2.5" class="obs"/>
<line x1="423.96" y1="107.06" x2="423.96" y2="130.55" class="err"/>
<line x1="420.96" y1="107.06" x2="426.96" y2="107.06" class="err"/>
<line x1="420.96" y1="130.55" x2="426.96" y2="130.55" class="err"/>
<circle cx="423.96" cy="118.81" r="2.5" class="obs"/>
<line x1="448.77" y1="102.32" x2="448.77" y2="126.26" class="err"/>
<line x1="445.77" y1="102.32" x2="451.77" y2="102.32" class="err"/>
<line x1="445.77" y1="126.26" x2="451.77" y2="126.26" class="err"/>
<circle cx="448.77" cy="114.29" r="2.5" class="obs"/>
<line x1="470.51" y1="105.48" x2="470.51" y2="127.62" class="err"/>
<line x1="467.51" y1="105.48" x2="473.51" y2="105.48" class="err"/>
<line x1="467.51" y1="127.62" x2="473.51" y2="127.62" class="err"/>
<circle cx="470.51" cy="116.55" r="2.5" class="obs"/>
<line x1="492.48" y1="107.74" x2="492.48" y2="129.88" class="err"/>
<line x1="489.48" y1="107.74" x2="495.48" y2="107.74" class="err"/>
<line x1="489.48" y1="129.88" x2="495.48" y2="129.88" class="err"/>
<circle cx="492.48" cy="118.81" r="2.5" class="obs"/>
<line x1="517.29" y1="104.58" x2="517.29" y2="128.52" class="err"/>
<line x1="514.29" y1="104.58" x2="520.29" y2="104.58" class="err"/>
<line x1="514.29" y1="128.52" x2="520.29" y2="128.52" class="err"/>
<circle cx="517.29" cy="116.55" r="2.5" class="obs"/>
<line x1="541.87" y1="88.99" x2="541.87" y2="135.07" class="err"/>
<line x1="538.87" y1="88.99" x2="544.87" y2="88.99" class="err"/>
<line x1="538.87" y1="135.07" x2="544.87" y2="135.07" class="err"/>
<circle cx="541.87" cy="112.03" r="2.5" class="obs"/>
<line x1="566.68" y1="83.80" x2="566.68" y2="135.75" class="err"/>
<line x1="563.68" y1="83.80" x2="569.68" y2="83.80" class="err"/>
<line x1="563.68" y1="135.75" x2="569.68" y2="135.75" class="err"/>
<circle cx="566.68" cy="109.77" r="2.5" class="obs"/>
<g class="legend">
<line x1="82" y1="69" x2="106" y2="69" class="fw"/>
<text x="112" y="73" class="lbl-l">framework fit</text>
<line x1="82" y1="87" x2="106" y2="87" class="nt"/>
<text x="112" y="91" class="lbl-l">Newtonian (no halo)</text>
<circle cx="94" cy="105" r="2.5" class="obs"/>
<text x="112" y="109" class="lbl">observed V±err</text>
</g>
<g class="legend">
<line x1="442" y1="69" x2="466" y2="69" class="rho"/>
<text x="472" y="73" class="lbl-r">ρ(r) raw</text>
<line x1="442" y1="87" x2="466" y2="87" class="sig"/>
<text x="472" y="91" class="lbl-s">Σ(r) cumulative</text>
<text x="442" y="113" class="lbl-r">ρ peak: 272 M☉/pc²</text>
</g>
<rect x="705" y="55" width="170" height="170" class="preview-bg"/>
<defs><radialGradient id="g_NGC4183" cx="0.5" cy="0.5" r="0.5">
  <stop offset="0.0000" stop-color="rgb(111,111,111)"/>
  <stop offset="0.0313" stop-color="rgb(89,89,89)"/>
  <stop offset="0.0625" stop-color="rgb(70,70,70)"/>
  <stop offset="0.0938" stop-color="rgb(69,69,69)"/>
  <stop offset="0.1250" stop-color="rgb(67,67,67)"/>
  <stop offset="0.1563" stop-color="rgb(65,65,65)"/>
  <stop offset="0.1875" stop-color="rgb(62,62,62)"/>
  <stop offset="0.2188" stop-color="rgb(59,59,59)"/>
  <stop offset="0.2500" stop-color="rgb(56,56,56)"/>
  <stop offset="0.2813" stop-color="rgb(54,54,54)"/>
  <stop offset="0.3125" stop-color="rgb(51,51,51)"/>
  <stop offset="0.3438" stop-color="rgb(49,49,49)"/>
  <stop offset="0.3750" stop-color="rgb(46,46,46)"/>
  <stop offset="0.4063" stop-color="rgb(43,43,43)"/>
  <stop offset="0.4375" stop-color="rgb(41,41,41)"/>
  <stop offset="0.4688" stop-color="rgb(39,39,39)"/>
  <stop offset="0.5000" stop-color="rgb(38,38,38)"/>
  <stop offset="0.5313" stop-color="rgb(37,37,37)"/>
  <stop offset="0.5625" stop-color="rgb(35,35,35)"/>
  <stop offset="0.5938" stop-color="rgb(34,34,34)"/>
  <stop offset="0.6250" stop-color="rgb(33,33,33)"/>
  <stop offset="0.6563" stop-color="rgb(32,32,32)"/>
  <stop offset="0.6875" stop-color="rgb(31,31,31)"/>
  <stop offset="0.7188" stop-color="rgb(30,30,30)"/>
  <stop offset="0.7500" stop-color="rgb(29,29,29)"/>
  <stop offset="0.7813" stop-color="rgb(28,28,28)"/>
  <stop offset="0.8125" stop-color="rgb(27,27,27)"/>
  <stop offset="0.8438" stop-color="rgb(26,26,26)"/>
  <stop offset="0.8750" stop-color="rgb(25,25,25)"/>
  <stop offset="0.9063" stop-color="rgb(24,24,24)"/>
  <stop offset="0.9375" stop-color="rgb(22,22,22)"/>
  <stop offset="0.9688" stop-color="rgb(11,11,11)"/>
  <stop offset="1.0000" stop-color="rgb(0,0,0)"/>
</radialGradient></defs>
<circle cx="790" cy="140" r="81" fill="url(#g_NGC4183)"/>
<text x="790" y="49" text-anchor="middle" class="preview-lbl">face-on luminance from ρ(r)</text>
<text x="790" y="239" text-anchor="middle" class="preview-lbl">edge at r = 22.0 kpc</text>
</svg>