<svg xmlns="http://www.w3.org/2000/svg" viewBox="0 0 890 420" width="890" height="420" font-family="sans-serif" font-size="12">
<style>
  .ax { stroke: #333; stroke-width: 1; fill: none; }
  .grid { stroke: #ddd; stroke-width: 0.5; fill: none; }
  .lbl { fill: #333; }
  .lbl-l { fill: #0066cc; }
  .lbl-r { fill: #b03030; }
  .obs { fill: #222; }
  .err { stroke: #555; stroke-width: 0.8; fill: none; }
  .fw { stroke: #0066cc; stroke-width: 2.2; fill: none; }
  .nt { stroke: #cc6600; stroke-width: 1.6; fill: none; stroke-dasharray: 5,3; }
  .lbl-s { fill: #cc7000; }
  .rho { stroke: #b03030; stroke-width: 2.0; fill: none; }
  .sig { stroke: #cc7000; stroke-width: 1.8; fill: none; }
  .title { fill: #111; font-size: 16px; font-weight: 600; }
  .subtitle { fill: #555; font-size: 11px; }
  .preview-bg { fill: #000; }
  .preview-lbl { fill: #888; font-size: 10px; }
  .legend { font-size: 11px; }
</style>
<text x="343.5" y="22" text-anchor="middle" class="title">NGC4214</text>
<text x="343.5" y="38" text-anchor="middle" class="subtitle">rMax=5.6 kpc, N=14, RMS=1.4 km/s (1.9%), amp=105</text>
<line x1="70" y1="365.0" x2="617" y2="365.0" class="grid"/>
<text x="64" y="369.0" text-anchor="end" class="lbl-l">0</text>
<line x1="70" y1="303.0" x2="617" y2="303.0" class="grid"/>
<text x="64" y="307.0" text-anchor="end" class="lbl-l">21</text>
<line x1="70" y1="241.0" x2="617" y2="241.0" class="grid"/>
<text x="64" y="245.0" text-anchor="end" class="lbl-l">41</text>
<line x1="70" y1="179.0" x2="617" y2="179.0" class="grid"/>
<text x="64" y="183.0" text-anchor="end" class="lbl-l">62</text>
<line x1="70" y1="117.0" x2="617" y2="117.0" class="grid"/>
<text x="64" y="121.0" text-anchor="end" class="lbl-l">82</text>
<line x1="70" y1="55.0" x2="617" y2="55.0" class="grid"/>
<text x="64" y="59.0" text-anchor="end" class="lbl-l">103</text>
<text x="623" y="369.0" text-anchor="start" class="lbl-r">0.0</text>
<text x="623" y="327.7" text-anchor="start" class="lbl-r">0.2</text>
<text x="623" y="286.3" text-anchor="start" class="lbl-r">0.4</text>
<text x="623" y="245.0" text-anchor="start" class="lbl-r">0.6</text>
<text x="623" y="203.7" text-anchor="start" class="lbl-r">0.8</text>
<text x="623" y="162.3" text-anchor="start" class="lbl-r">1.0</text>
<line x1="70.0" y1="55" x2="70.0" y2="365" class="grid"/>
<text x="70.0" y="381" text-anchor="middle" class="lbl">0.0</text>
<line x1="161.2" y1="55" x2="161.2" y2="365" class="grid"/>
<text x="161.2" y="381" text-anchor="middle" class="lbl">1.0</text>
<line x1="252.3" y1="55" x2="252.3" y2="365" class="grid"/>
<text x="252.3" y="381" text-anchor="middle" class="lbl">2.0</text>
<line x1="343.5" y1="55" x2="343.5" y2="365" class="grid"/>
<text x="343.5" y="381" text-anchor="middle" class="lbl">3.0</text>
<line x1="434.7" y1="55" x2="434.7" y2="365" class="grid"/>
<text x="434.7" y="381" text-anchor="middle" class="lbl">3.9</text>
<line x1="525.8" y1="55" x2="525.8" y2="365" class="grid"/>
<text x="525.8" y="381" text-anchor="middle" class="lbl">4.9</text>
<line x1="617.0" y1="55" x2="617.0" y2="365" class="grid"/>
<text x="617.0" y="381" text-anchor="middle" class="lbl">5.9</text>
<text x="343.5" y="408" text-anchor="middle" class="lbl">radius (kpc)</text>
<text x="16" y="210" text-anchor="middle" class="lbl-l" transform="rotate(-90, 16, 210)">velocity (km/s)</text>
<text x="874" y="210" text-anchor="middle" class="lbl-r" transform="rotate(-90, 874, 210)">mass profile (normalized to peak)</text>
<rect x="70" y="55" width="547" height="310" class="ax"/>
<path d="M 70.0,158.3 L 72.5,158.3 L 75.0,158.3 L 77.5,158.3 L 80.0,158.3 L 82.5,158.3 L 85.0,170.8 L 87.5,201.5 L 90.0,232.1 L 92.5,262.7 L 95.0,293.3 L 97.5,307.1 L 100.0,307.3 L 102.5,307.6 L 105.0,307.8 L 107.5,308.0 L 110.0,308.3 L 112.5,308.5 L 115.0,308.7 L 117.5,309.0 L 120.0,309.2 L 122.5,309.5 L 124.9,309.7 L 127.4,309.9 L 129.9,310.2 L 132.4,310.4 L 134.9,310.6 L 137.4,310.9 L 139.9,311.1 L 142.4,311.4 L 144.9,311.6 L 147.4,311.8 L 149.9,312.1 L 152.4,312.3 L 154.9,312.5 L 157.4,312.8 L 159.9,313.0 L 162.4,313.3 L 164.9,313.5 L 167.4,313.7 L 169.9,314.0 L 172.4,314.2 L 174.9,314.4 L 177.4,314.7 L 179.9,314.9 L 182.4,315.2 L 184.9,315.4 L 187.4,315.6 L 189.9,315.9 L 192.4,316.1 L 194.9,316.3 L 197.4,316.6 L 199.9,316.8 L 202.4,317.1 L 204.9,317.3 L 207.4,317.5 L 209.9,317.8 L 212.4,318.0 L 214.9,318.3 L 217.4,318.5 L 219.9,318.7 L 222.4,319.0 L 224.9,319.2 L 227.4,319.4 L 229.9,319.7 L 232.4,319.9 L 234.8,320.2 L 237.3,320.4 L 239.8,320.6 L 242.3,320.9 L 244.8,321.1 L 247.3,321.3 L 249.8,321.6 L 252.3,321.8 L 254.8,322.1 L 257.3,322.3 L 259.8,322.5 L 262.3,322.8 L 264.8,323.0 L 267.3,323.2 L 269.8,323.5 L 272.3,323.7 L 274.8,324.0 L 277.3,324.2 L 279.8,324.4 L 282.3,324.7 L 284.8,324.9 L 287.3,325.1 L 289.8,325.4 L 292.3,325.6 L 294.8,325.9 L 297.3,326.1 L 299.8,326.3 L 302.3,326.6 L 304.8,326.8 L 307.3,327.0 L 309.8,327.3 L 312.3,327.5 L 314.8,327.8 L 317.3,328.0 L 319.8,328.2 L 322.3,328.5 L 324.8,328.7 L 327.3,328.9 L 329.8,329.2 L 332.3,329.4 L 334.8,329.7 L 337.3,329.9 L 339.8,330.1 L 342.3,330.2 L 344.7,330.4 L 347.2,330.6 L 349.7,330.7 L 352.2,330.9 L 354.7,331.0 L 357.2,331.2 L 359.7,331.3 L 362.2,331.5 L 364.7,331.6 L 367.2,331.8 L 369.7,332.0 L 372.2,332.1 L 374.7,332.3 L 377.2,332.4 L 379.7,332.6 L 382.2,332.7 L 384.7,332.9 L 387.2,333.0 L 389.7,333.2 L 392.2,333.3 L 394.7,333.5 L 397.2,333.7 L 399.7,333.8 L 402.2,334.0 L 404.7,334.1 L 407.2,334.3 L 409.7,334.4 L 412.2,334.6 L 414.7,334.7 L 417.2,334.9 L 419.7,335.0 L 422.2,335.2 L 424.7,335.4 L 427.2,335.5 L 429.7,335.7 L 432.2,335.8 L 434.7,336.0 L 437.2,336.1 L 439.7,336.3 L 442.2,336.4 L 444.7,336.6 L 447.2,336.7 L 449.7,336.9 L 452.2,337.1 L 454.6,337.2 L 457.1,337.4 L 459.6,337.5 L 462.1,337.7 L 464.6,337.8 L 467.1,338.0 L 469.6,338.1 L 472.1,338.3 L 474.6,338.5 L 477.1,338.6 L 479.6,338.8 L 482.1,338.9 L 484.6,339.1 L 487.1,339.2 L 489.6,339.4 L 492.1,339.5 L 494.6,339.7 L 497.1,339.8 L 499.6,340.0 L 502.1,340.2 L 504.6,340.3 L 507.1,340.5 L 509.6,340.6 L 512.1,340.8 L 514.6,340.9 L 517.1,341.1 L 519.6,341.2 L 522.1,341.4 L 524.6,341.5 L 527.1,341.7 L 529.6,341.9 L 532.1,342.0 L 534.6,342.2 L 537.1,342.3 L 539.6,342.5 L 542.1,342.6 L 544.6,342.8 L 547.1,342.9 L 549.6,343.1 L 552.1,343.3 L 554.6,343.4 L 557.1,343.6 L 559.6,343.7 L 562.1,343.9 L 564.5,344.0 L 567.0,344.2 L 569.5,344.3 L 572.0,344.5 L 574.5,344.6 L 577.0,344.8 L 579.5,345.0 L 582.0,348.9 L 584.5,353.4 L 587.0,357.9 L 589.5,362.4 L 592.0,365.0 L 594.5,365.0 L 597.0,365.0 L 599.5,365.0 L 602.0,365.0 L 604.5,365.0 L 607.0,365.0 L 609.5,365.0 L 612.0,365.0 L 614.5,365.0 L 617.0,365.0" class="rho"/>
<path d="M 70.0,158.3 L 72.5,159.1 L 75.0,160.4 L 77.5,162.1 L 80.0,164.4 L 82.5,167.3 L 85.0,170.6 L 87.5,174.2 L 90.0,178.1 L 92.5,182.0 L 95.0,186.1 L 97.5,190.0 L 100.0,193.9 L 102.5,197.7 L 105.0,201.2 L 107.5,204.5 L 110.0,207.6 L 112.5,210.6 L 115.0,213.4 L 117.5,216.0 L 120.0,218.4 L 122.5,220.7 L 124.9,222.9 L 127.4,224.9 L 129.9,226.8 L 132.4,228.7 L 134.9,230.5 L 137.4,232.1 L 139.9,233.7 L 142.4,235.3 L 144.9,236.8 L 147.4,238.2 L 149.9,239.6 L 152.4,240.9 L 154.9,242.2 L 157.4,243.5 L 159.9,244.7 L 162.4,245.9 L 164.9,247.1 L 167.4,248.3 L 169.9,249.4 L 172.4,250.5 L 174.9,251.6 L 177.4,252.6 L 179.9,253.7 L 182.4,254.7 L 184.9,255.7 L 187.4,256.7 L 189.9,257.7 L 192.4,258.7 L 194.9,259.6 L 197.4,260.6 L 199.9,261.5 L 202.4,262.4 L 204.9,263.4 L 207.4,264.3 L 209.9,265.2 L 212.4,266.1 L 214.9,266.9 L 217.4,267.8 L 219.9,268.7 L 222.4,269.5 L 224.9,270.4 L 227.4,271.2 L 229.9,272.1 L 232.4,272.9 L 234.8,273.7 L 237.3,274.6 L 239.8,275.4 L 242.3,276.2 L 244.8,277.0 L 247.3,277.8 L 249.8,278.6 L 252.3,279.4 L 254.8,280.2 L 257.3,280.9 L 259.8,281.7 L 262.3,282.5 L 264.8,283.3 L 267.3,284.0 L 269.8,284.8 L 272.3,285.5 L 274.8,286.3 L 277.3,287.0 L 279.8,287.7 L 282.3,288.4 L 284.8,289.2 L 287.3,289.9 L 289.8,290.6 L 292.3,291.3 L 294.8,292.0 L 297.3,292.7 L 299.8,293.4 L 302.3,294.1 L 304.8,294.8 L 307.3,295.4 L 309.8,296.1 L 312.3,296.8 L 314.8,297.4 L 317.3,298.1 L 319.8,298.7 L 322.3,299.4 L 324.8,300.0 L 327.3,300.6 L 329.8,301.3 L 332.3,301.9 L 334.8,302.5 L 337.3,303.1 L 339.8,303.7 L 342.3,304.3 L 344.7,304.9 L 347.2,305.5 L 349.7,306.0 L 352.2,306.6 L 354.7,307.2 L 357.2,307.7 L 359.7,308.3 L 362.2,308.9 L 364.7,309.4 L 367.2,309.9 L 369.7,310.5 L 372.2,311.0 L 374.7,311.5 L 377.2,312.1 L 379.7,312.6 L 382.2,313.1 L 384.7,313.6 L 387.2,314.1 L 389.7,314.6 L 392.2,315.1 L 394.7,315.6 L 397.2,316.1 L 399.7,316.6 L 402.2,317.1 L 404.7,317.5 L 407.2,318.0 L 409.7,318.5 L 412.2,319.0 L 414.7,319.4 L 417.2,319.9 L 419.7,320.4 L 422.2,320.8 L 424.7,321.3 L 427.2,321.7 L 429.7,322.2 L 432.2,322.6 L 434.7,323.0 L 437.2,323.5 L 439.7,323.9 L 442.2,324.3 L 444.7,324.8 L 447.2,325.2 L 449.7,325.6 L 452.2,326.0 L 454.6,326.4 L 457.1,326.9 L 459.6,327.3 L 462.1,327.7 L 464.6,328.1 L 467.1,328.5 L 469.6,328.9 L 472.1,329.3 L 474.6,329.7 L 477.1,330.1 L 479.6,330.5 L 482.1,330.9 L 484.6,331.2 L 487.1,331.6 L 489.6,332.0 L 492.1,332.4 L 494.6,332.8 L 497.1,333.1 L 499.6,333.5 L 502.1,333.9 L 504.6,334.2 L 507.1,334.6 L 509.6,335.0 L 512.1,335.3 L 514.6,335.7 L 517.1,336.1 L 519.6,336.4 L 522.1,336.8 L 524.6,337.1 L 527.1,337.5 L 529.6,337.8 L 532.1,338.2 L 534.6,338.5 L 537.1,338.9 L 539.6,339.2 L 542.1,339.6 L 544.6,339.9 L 547.1,340.3 L 549.6,340.6 L 552.1,341.0 L 554.6,341.4 L 557.1,341.7 L 559.6,342.1 L 562.1,342.4 L 564.5,342.8 L 567.0,343.1 L 569.5,343.5 L 572.0,343.8 L 574.5,344.2 L 577.0,344.5 L 579.5,344.9 L 582.0,345.2 L 584.5,345.6 L 587.0,345.9 L 589.5,346.2 L 592.0,346.6 L 594.5,346.9 L 597.0,347.2 L 599.5,347.5 L 602.0,347.8 L 604.5,348.1 L 607.0,348.3 L 609.5,348.6 L 612.0,348.8 L 614.5,349.1 L 617.0,349.3" class="sig"/>
<path d="M 75.5,290.0 L 80.9,259.0 L 86.4,236.5 L 91.9,226.7 L 97.3,226.9 L 102.8,228.0 L 108.3,227.3 L 113.8,225.4 L 119.2,222.9 L 124.7,219.9 L 130.2,216.7 L 135.6,213.3 L 141.1,209.9 L 146.6,206.4 L 152.1,202.9 L 157.5,199.5 L 163.0,196.1 L 168.5,192.8 L 173.9,189.5 L 179.4,186.3 L 184.9,183.2 L 190.3,180.1 L 195.8,177.2 L 201.3,174.2 L 206.8,171.4 L 212.2,168.6 L 217.7,165.9 L 223.2,163.3 L 228.6,160.7 L 234.1,158.2 L 239.6,155.8 L 245.0,153.4 L 250.5,151.1 L 256.0,148.9 L 261.5,146.7 L 266.9,144.6 L 272.4,142.5 L 277.9,140.5 L 283.3,138.6 L 288.8,136.6 L 294.3,134.8 L 299.7,133.0 L 305.2,131.3 L 310.7,129.6 L 316.1,127.9 L 321.6,126.3 L 327.1,124.8 L 332.6,123.2 L 338.0,121.8 L 343.5,120.4 L 349.0,119.0 L 354.4,117.6 L 359.9,116.3 L 365.4,114.9 L 370.9,113.6 L 376.3,112.4 L 381.8,111.1 L 387.3,109.9 L 392.7,108.7 L 398.2,107.5 L 403.7,106.4 L 409.1,105.3 L 414.6,104.2 L 420.1,103.1 L 425.6,102.0 L 431.0,101.0 L 436.5,100.0 L 442.0,99.0 L 447.4,98.1 L 452.9,97.1 L 458.4,96.2 L 463.8,95.3 L 469.3,94.5 L 474.8,93.7 L 480.3,92.8 L 485.7,92.1 L 491.2,91.3 L 496.7,90.5 L 502.1,89.8 L 507.6,89.1 L 513.1,88.4 L 518.5,87.8 L 524.0,87.1 L 529.5,86.5 L 535.0,85.9 L 540.4,85.3 L 545.9,84.8 L 551.4,84.3 L 556.8,83.8 L 562.3,83.3 L 567.8,82.8 L 573.2,82.4 L 578.7,82.0 L 584.2,81.8 L 589.6,82.6 L 595.1,84.0 L 600.6,85.5 L 606.1,87.0 L 611.5,88.4 L 617.0,89.8" class="nt"/>
<path d="M 74.6,313.3 L 79.1,276.7 L 83.7,239.7 L 88.2,208.6 L 92.8,184.8 L 97.3,169.2 L 101.9,159.9 L 106.5,155.7 L 111.0,154.8 L 115.6,155.9 L 120.1,157.6 L 124.7,159.7 L 129.3,161.6 L 133.8,163.2 L 138.4,164.5 L 142.9,165.3 L 147.5,165.9 L 152.1,166.1 L 156.6,166.0 L 161.2,165.6 L 165.7,164.9 L 170.3,164.1 L 174.8,163.1 L 179.4,162.0 L 184.0,160.7 L 188.5,159.3 L 193.1,157.8 L 197.6,156.3 L 202.2,154.7 L 206.8,153.1 L 211.3,151.5 L 215.9,149.8 L 220.4,148.2 L 225.0,146.5 L 229.5,144.9 L 234.1,143.3 L 238.7,141.7 L 243.2,140.1 L 247.8,138.6 L 252.3,137.2 L 256.9,135.8 L 261.5,134.4 L 266.0,133.1 L 270.6,131.9 L 275.1,130.7 L 279.7,129.6 L 284.2,128.6 L 288.8,127.6 L 293.4,126.7 L 297.9,126.0 L 302.5,125.3 L 307.0,124.7 L 311.6,124.2 L 316.1,123.8 L 320.7,123.5 L 325.3,123.3 L 329.8,123.2 L 334.4,123.3 L 338.9,123.3 L 343.5,123.5 L 348.1,123.6 L 352.6,123.8 L 357.2,123.9 L 361.7,124.0 L 366.3,124.1 L 370.9,124.2 L 375.4,124.2 L 380.0,124.3 L 384.5,124.3 L 389.1,124.3 L 393.6,124.4 L 398.2,124.4 L 402.8,124.4 L 407.3,124.4 L 411.9,124.4 L 416.4,124.4 L 421.0,124.4 L 425.6,124.4 L 430.1,124.5 L 434.7,124.5 L 439.2,124.5 L 443.8,124.5 L 448.3,124.6 L 452.9,124.6 L 457.5,124.7 L 462.0,124.7 L 466.6,124.7 L 471.1,124.7 L 475.7,124.8 L 480.3,124.8 L 484.8,124.8 L 489.4,124.7 L 493.9,124.7 L 498.5,124.6 L 503.0,124.5 L 507.6,124.3 L 512.2,124.1 L 516.7,123.8 L 521.3,123.4 L 525.8,123.0 L 530.4,122.4 L 535.0,121.7 L 539.5,120.8 L 544.1,119.7 L 548.6,118.5 L 553.2,117.1 L 557.7,115.6 L 562.3,114.0 L 566.9,112.5 L 571.4,111.4 L 576.0,111.1 L 580.5,111.8 L 585.1,113.8 L 589.6,117.1 L 594.2,121.5 L 598.8,126.8 L 603.3,132.4 L 607.9,138.2 L 612.4,144.0 L 617.0,149.5" class="fw"/>
<line x1="89.46" y1="175.63" x2="89.46" y2="219.17" class="err"/>
<line x1="86.46" y1="175.63" x2="92.46" y2="175.63" class="err"/>
<line x1="86.46" y1="219.17" x2="92.46" y2="219.17" class="err"/>
<circle cx="89.46" cy="197.40" r="2.5" class="obs"/>
<line x1="128.39" y1="158.39" x2="128.39" y2="189.91" class="err"/>
<line x1="125.39" y1="158.39" x2="131.39" y2="158.39" class="err"/>
<line x1="125.39" y1="189.91" x2="131.39" y2="189.91" class="err"/>
<circle cx="128.39" cy="174.15" r="2.5" class="obs"/>
<line x1="166.39" y1="139.81" x2="166.39" y2="187.95" class="err"/>
<line x1="163.39" y1="139.81" x2="169.39" y2="139.81" class="err"/>
<line x1="163.39" y1="187.95" x2="169.39" y2="187.95" class="err"/>
<circle cx="166.39" cy="163.88" r="2.5" class="obs"/>
<line x1="205.31" y1="138.15" x2="205.31" y2="166.06" class="err"/>
<line x1="202.31" y1="138.15" x2="208.31" y2="138.15" class="err"/>
<line x1="202.31" y1="166.06" x2="208.31" y2="166.06" class="err"/>
<circle cx="205.31" cy="152.10" r="2.5" class="obs"/>
<line x1="244.24" y1="121.03" x2="244.24" y2="149.36" class="err"/>
<line x1="241.24" y1="121.03" x2="247.24" y2="121.03" class="err"/>
<line x1="241.24" y1="149.36" x2="247.24" y2="149.36" class="err"/>
<circle cx="244.24" cy="135.19" r="2.5" class="obs"/>
<line x1="283.17" y1="113.39" x2="283.17" y2="140.69" class="err"/>
<line x1="280.17" y1="113.39" x2="286.17" y2="113.39" class="err"/>
<line x1="280.17" y1="140.69" x2="286.17" y2="140.69" class="err"/>
<circle cx="283.17" cy="127.04" r="2.5" class="obs"/>
<line x1="321.16" y1="103.03" x2="321.16" y2="143.20" class="err"/>
<line x1="318.16" y1="103.03" x2="324.16" y2="103.03" class="err"/>
<line x1="318.16" y1="143.20" x2="324.16" y2="143.20" class="err"/>
<circle cx="321.16" cy="123.11" r="2.5" class="obs"/>
<line x1="361.02" y1="104.15" x2="361.02" y2="142.08" class="err"/>
<line x1="358.02" y1="104.15" x2="364.02" y2="104.15" class="err"/>
<line x1="358.02" y1="142.08" x2="364.02" y2="142.08" class="err"/>
<circle cx="361.02" cy="123.11" r="2.5" class="obs"/>
<line x1="399.02" y1="107.74" x2="399.02" y2="138.48" class="err"/>
<line x1="396.02" y1="107.74" x2="402.02" y2="107.74" class="err"/>
<line x1="396.02" y1="138.48" x2="402.02" y2="138.48" class="err"/>
<circle cx="399.02" cy="123.11" r="2.5" class="obs"/>
<line x1="437.01" y1="105.90" x2="437.01" y2="138.51" class="err"/>
<line x1="434.01" y1="105.90" x2="440.01" y2="105.90" class="err"/>
<line x1="434.01" y1="138.51" x2="440.01" y2="138.51" class="err"/>
<circle cx="437.01" cy="122.21" r="2.5" class="obs"/>
<line x1="475.94" y1="100.22" x2="475.94" y2="146.00" class="err"/>
<line x1="472.94" y1="100.22" x2="478.94" y2="100.22" class="err"/>
<line x1="472.94" y1="146.00" x2="478.94" y2="146.00" class="err"/>
<circle cx="475.94" cy="123.11" r="2.5" class="obs"/>
<line x1="514.87" y1="95.33" x2="514.87" y2="149.08" class="err"/>
<line x1="511.87" y1="95.33" x2="517.87" y2="95.33" class="err"/>
<line x1="511.87" y1="149.08" x2="517.87" y2="149.08" class="err"/>
<circle cx="514.87" cy="122.21" r="2.5" class="obs"/>
<line x1="553.79" y1="93.31" x2="553.79" y2="149.90" class="err"/>
<line x1="550.79" y1="93.31" x2="556.79" y2="93.31" class="err"/>
<line x1="550.79" y1="149.90" x2="556.79" y2="149.90" class="err"/>
<circle cx="553.79" cy="121.60" r="2.5" class="obs"/>
<line x1="591.79" y1="93.31" x2="591.79" y2="149.90" class="err"/>
<line x1="588.79" y1="93.31" x2="594.79" y2="93.31" class="err"/>
<line x1="588.79" y1="149.90" x2="594.79" y2="149.90" class="err"/>
<circle cx="591.79" cy="121.60" r="2.5" class="obs"/>
<g class="legend">
<line x1="82" y1="69" x2="106" y2="69" class="fw"/>
<text x="112" y="73" class="lbl-l">framework fit</text>
<line x1="82" y1="87" x2="106" y2="87" class="nt"/>
<text x="112" y="91" class="lbl-l">Newtonian (no halo)</text>
<circle cx="94" cy="105" r="2.5" class="obs"/>
<text x="112" y="109" class="lbl">observed V±err</text>
</g>
<g class="legend">
<line x1="442" y1="69" x2="466" y2="69" class="rho"/>
<text x="472" y="73" class="lbl-r">ρ(r) raw</text>
<line x1="442" y1="87" x2="466" y2="87" class="sig"/>
<text x="472" y="91" class="lbl-s">Σ(r) cumulative</text>
<text x="442" y="113" class="lbl-r">ρ peak: 773 M☉/pc²</text>
</g>
<rect x="705" y="55" width="170" height="170" class="preview-bg"/>
<defs><radialGradient id="g_NGC4214" cx="0.5" cy="0.5" r="0.5">
  <stop offset="0.0000" stop-color="rgb(255,63.75,63.75)"/>
  <stop offset="0.0313" stop-color="rgb(255,63.75,63.75)"/>
  <stop offset="0.0625" stop-color="rgb(255,63.75,63.75)"/>
  <stop offset="0.0938" stop-color="rgb(255,63.75,63.75)"/>
  <stop offset="0.1250" stop-color="rgb(255,63.75,63.75)"/>
  <stop offset="0.1563" stop-color="rgb(255,63.75,63.75)"/>
  <stop offset="0.1875" stop-color="rgb(255,63.75,63.75)"/>
  <stop offset="0.2188" stop-color="rgb(255,63.75,63.75)"/>
  <stop offset="0.2500" stop-color="rgb(255,63.75,63.75)"/>
  <stop offset="0.2813" stop-color="rgb(255,63.75,63.75)"/>
  <stop offset="0.3125" stop-color="rgb(255,63.75,63.75)"/>
  <stop offset="0.3438" stop-color="rgb(255,63.75,63.75)"/>
  <stop offset="0.3750" stop-color="rgb(255,63.75,63.75)"/>
  <stop offset="0.4063" stop-color="rgb(255,63.75,63.75)"/>
  <stop offset="0.4375" stop-color="rgb(249,62.25,62.25)"/>
  <stop offset="0.4688" stop-color="rgb(241,60.25,60.25)"/>
  <stop offset="0.5000" stop-color="rgb(233,58.25,58.25)"/>
  <stop offset="0.5313" stop-color="rgb(226,56.5,56.5)"/>
  <stop offset="0.5625" stop-color="rgb(221,55.25,55.25)"/>
  <stop offset="0.5938" stop-color="rgb(216,54,54)"/>
  <stop offset="0.6250" stop-color="rgb(211,52.75,52.75)"/>
  <stop offset="0.6563" stop-color="rgb(206,51.5,51.5)"/>
  <stop offset="0.6875" stop-color="rgb(200,50,50)"/>
  <stop offset="0.7188" stop-color="rgb(195,48.75,48.75)"/>
  <stop offset="0.7500" stop-color="rgb(190,47.5,47.5)"/>
  <stop offset="0.7813" stop-color="rgb(185,46.25,46.25)"/>
  <stop offset="0.8125" stop-color="rgb(180,45,45)"/>
  <stop offset="0.8438" stop-color="rgb(175,43.75,43.75)"/>
  <stop offset="0.8750" stop-color="rgb(170,42.5,42.5)"/>
  <stop offset="0.9063" stop-color="rgb(164,41,41)"/>
  <stop offset="0.9375" stop-color="rgb(159,39.75,39.75)"/>
  <stop offset="0.9688" stop-color="rgb(154,38.5,38.5)"/>
  <stop offset="1.0000" stop-color="rgb(0,0,0)"/>
</radialGradient></defs>
<circle cx="790" cy="140" r="81" fill="url(#g_NGC4214)"/>
<text x="790" y="49" text-anchor="middle" class="preview-lbl">face-on luminance from ρ(r)</text>
<text x="790" y="239" text-anchor="middle" class="preview-lbl">edge at r = 5.6 kpc</text>
</svg>