<svg xmlns="http://www.w3.org/2000/svg" viewBox="0 0 960 450" width="960" height="450" font-family="sans-serif" font-size="12">
<style>
  .ax { stroke: #333; stroke-width: 1; fill: none; }
  .grid { stroke: #ddd; stroke-width: 0.5; fill: none; }
  .lbl { fill: #333; }
  .lbl-l { fill: #0066cc; }
  .lbl-r { fill: #b03030; }
  .obs { fill: #222; }
  .err { stroke: #555; stroke-width: 0.8; fill: none; }
  .fw { stroke: #0066cc; stroke-width: 2.2; fill: none; }
  .nt { stroke: #cc6600; stroke-width: 1.6; fill: none; stroke-dasharray: 5,3; }
  .mond { stroke: #7b2cbf; stroke-width: 1.8; fill: none; stroke-dasharray: 7,3; }
  .lbl-p { fill: #cc7000; }
  .lbl-m { fill: #7b2cbf; }
  .rho { stroke: #b03030; stroke-width: 2.0; fill: none; }
  .phot { stroke: #cc7000; stroke-width: 1.8; fill: none; }
  .mbar { stroke: #8e44ad; stroke-width: 1.8; fill: none; opacity: 0.9; }
  .mph { stroke: #c77dff; stroke-width: 1.6; fill: none; stroke-dasharray: 4,3; opacity: 0.95; }
  .title { fill: #111; font-size: 16px; font-weight: 600; }
  .subtitle { fill: #555; font-size: 11px; }
  .preview-bg { fill: #000; }
  .preview-lbl { fill: #888; font-size: 10px; }
  .legend { font-size: 11px; }
</style>
<text x="378.5" y="22" text-anchor="middle" class="title">NGC4217</text>
<text x="378.5" y="38" text-anchor="middle" class="subtitle">rMax=16.7 kpc, N=19, FW=1.8 km/s, 1.2%, 0.28σ, MOND=52.3 km/s, 54.5%, 7.46σ, amp=104</text>
<line x1="70" y1="395.0" x2="687" y2="395.0" class="grid"/>
<text x="64" y="399.0" text-anchor="end" class="lbl-l">0</text>
<line x1="70" y1="327.0" x2="687" y2="327.0" class="grid"/>
<text x="64" y="331.0" text-anchor="end" class="lbl-l">55</text>
<line x1="70" y1="259.0" x2="687" y2="259.0" class="grid"/>
<text x="64" y="263.0" text-anchor="end" class="lbl-l">110</text>
<line x1="70" y1="191.0" x2="687" y2="191.0" class="grid"/>
<text x="64" y="195.0" text-anchor="end" class="lbl-l">166</text>
<line x1="70" y1="123.0" x2="687" y2="123.0" class="grid"/>
<text x="64" y="127.0" text-anchor="end" class="lbl-l">221</text>
<line x1="70" y1="55.0" x2="687" y2="55.0" class="grid"/>
<text x="64" y="59.0" text-anchor="end" class="lbl-l">276</text>
<text x="693" y="399.0" text-anchor="start" class="lbl-r">0.0</text>
<text x="693" y="353.7" text-anchor="start" class="lbl-r">0.2</text>
<text x="693" y="308.3" text-anchor="start" class="lbl-r">0.4</text>
<text x="693" y="263.0" text-anchor="start" class="lbl-r">0.6</text>
<text x="693" y="217.7" text-anchor="start" class="lbl-r">0.8</text>
<text x="693" y="172.3" text-anchor="start" class="lbl-r">1.0</text>
<line x1="70.0" y1="55" x2="70.0" y2="395" class="grid"/>
<text x="70.0" y="411" text-anchor="middle" class="lbl">0.0</text>
<line x1="172.8" y1="55" x2="172.8" y2="395" class="grid"/>
<text x="172.8" y="411" text-anchor="middle" class="lbl">3.0</text>
<line x1="275.7" y1="55" x2="275.7" y2="395" class="grid"/>
<text x="275.7" y="411" text-anchor="middle" class="lbl">6.0</text>
<line x1="378.5" y1="55" x2="378.5" y2="395" class="grid"/>
<text x="378.5" y="411" text-anchor="middle" class="lbl">9.0</text>
<line x1="481.3" y1="55" x2="481.3" y2="395" class="grid"/>
<text x="481.3" y="411" text-anchor="middle" class="lbl">12.0</text>
<line x1="584.2" y1="55" x2="584.2" y2="395" class="grid"/>
<text x="584.2" y="411" text-anchor="middle" class="lbl">15.0</text>
<line x1="687.0" y1="55" x2="687.0" y2="395" class="grid"/>
<text x="687.0" y="411" text-anchor="middle" class="lbl">18.0</text>
<text x="378.5" y="438" text-anchor="middle" class="lbl">radius (kpc)</text>
<text x="16" y="225" text-anchor="middle" class="lbl-l" transform="rotate(-90, 16, 225)">velocity (km/s)</text>
<text x="724" y="225" text-anchor="middle" class="lbl-r" transform="rotate(-90, 724, 225)">profiles (normalized to peak)</text>
<rect x="70" y="55" width="617" height="340" class="ax"/>
<path d="M 70.0,168.3 L 72.8,168.4 L 75.6,168.4 L 78.5,168.5 L 81.3,168.5 L 84.1,168.6 L 86.9,168.6 L 89.7,168.7 L 92.5,168.7 L 95.4,168.8 L 98.2,168.8 L 101.0,168.9 L 103.8,168.9 L 106.6,169.0 L 109.4,169.0 L 112.3,169.1 L 115.1,169.1 L 117.9,169.2 L 120.7,169.2 L 123.5,169.3 L 126.3,169.3 L 129.2,169.4 L 132.0,169.4 L 134.8,169.5 L 137.6,169.5 L 140.4,169.6 L 143.3,170.5 L 146.1,174.9 L 148.9,179.3 L 151.7,183.7 L 154.5,188.0 L 157.3,192.4 L 160.2,196.8 L 163.0,201.1 L 165.8,205.5 L 168.6,209.9 L 171.4,214.3 L 174.2,218.6 L 177.1,223.0 L 179.9,227.4 L 182.7,231.8 L 185.5,236.1 L 188.3,240.5 L 191.1,244.9 L 194.0,249.0 L 196.8,249.8 L 199.6,250.6 L 202.4,251.4 L 205.2,252.2 L 208.1,253.0 L 210.9,253.8 L 213.7,254.6 L 216.5,255.4 L 219.3,256.2 L 222.1,257.0 L 225.0,257.8 L 227.8,258.6 L 230.6,259.4 L 233.4,260.2 L 236.2,261.0 L 239.0,261.8 L 241.9,262.6 L 244.7,263.5 L 247.5,264.3 L 250.3,265.1 L 253.1,265.9 L 255.9,266.7 L 258.8,267.5 L 261.6,268.3 L 264.4,269.1 L 267.2,269.9 L 270.0,270.7 L 272.8,271.5 L 275.7,272.3 L 278.5,273.1 L 281.3,273.9 L 284.1,274.7 L 286.9,275.5 L 289.8,276.3 L 292.6,277.1 L 295.4,277.9 L 298.2,278.7 L 301.0,279.5 L 303.8,280.4 L 306.7,281.2 L 309.5,282.0 L 312.3,282.8 L 315.1,283.6 L 317.9,284.4 L 320.7,285.2 L 323.6,286.0 L 326.4,286.8 L 329.2,287.6 L 332.0,288.4 L 334.8,289.2 L 337.6,290.0 L 340.5,290.8 L 343.3,291.6 L 346.1,292.4 L 348.9,293.2 L 351.7,294.0 L 354.6,294.8 L 357.4,295.6 L 360.2,296.5 L 363.0,297.3 L 365.8,298.1 L 368.6,298.9 L 371.5,299.7 L 374.3,300.5 L 377.1,301.3 L 379.9,302.1 L 382.7,302.9 L 385.5,303.7 L 388.4,304.5 L 391.2,305.3 L 394.0,306.1 L 396.8,306.9 L 399.6,307.7 L 402.4,308.5 L 405.3,309.3 L 408.1,310.1 L 410.9,310.9 L 413.7,311.7 L 416.5,312.4 L 419.4,312.9 L 422.2,313.3 L 425.0,313.8 L 427.8,314.2 L 430.6,314.7 L 433.4,315.1 L 436.3,315.6 L 439.1,316.0 L 441.9,316.5 L 444.7,316.9 L 447.5,317.4 L 450.3,317.9 L 453.2,318.3 L 456.0,318.8 L 458.8,319.2 L 461.6,319.7 L 464.4,320.1 L 467.2,320.6 L 470.1,321.0 L 472.9,321.5 L 475.7,321.9 L 478.5,322.4 L 481.3,322.8 L 484.2,323.3 L 487.0,323.7 L 489.8,324.2 L 492.6,324.7 L 495.4,325.1 L 498.2,325.6 L 501.1,326.0 L 503.9,326.5 L 506.7,326.9 L 509.5,327.4 L 512.3,327.8 L 515.1,328.3 L 518.0,328.7 L 520.8,329.2 L 523.6,329.6 L 526.4,330.1 L 529.2,330.6 L 532.0,331.0 L 534.9,331.5 L 537.7,331.9 L 540.5,332.4 L 543.3,332.8 L 546.1,333.3 L 548.9,333.7 L 551.8,334.2 L 554.6,334.6 L 557.4,335.1 L 560.2,335.5 L 563.0,336.0 L 565.9,336.5 L 568.7,336.9 L 571.5,337.4 L 574.3,337.8 L 577.1,338.3 L 579.9,338.7 L 582.8,339.2 L 585.6,339.6 L 588.4,340.1 L 591.2,340.5 L 594.0,341.0 L 596.8,341.4 L 599.7,341.9 L 602.5,342.3 L 605.3,342.8 L 608.1,343.3 L 610.9,343.7 L 613.7,344.2 L 616.6,344.6 L 619.4,345.1 L 622.2,345.5 L 625.0,346.0 L 627.8,346.4 L 630.7,346.9 L 633.5,347.3 L 636.3,347.8 L 639.1,348.2 L 641.9,348.7 L 644.7,349.2 L 647.6,349.6 L 650.4,350.1 L 653.2,361.7 L 656.0,382.9 L 658.8,395.0 L 661.6,395.0 L 664.5,395.0 L 667.3,395.0 L 670.1,395.0 L 672.9,395.0 L 675.7,395.0 L 678.5,395.0 L 681.4,395.0 L 684.2,395.0 L 687.0,395.0" class="rho"/>
<path d="M 99.8,168.3 L 129.6,251.7 L 159.4,322.2 L 189.9,376.2 L 219.6,389.1 L 249.4,391.5 L 279.2,392.3 L 309.0,393.0 L 338.8,393.8 L 368.6,394.7 L 398.7,394.8 L 428.5,394.8 L 458.7,394.9 L 487.4,394.9 L 519.3,394.9 L 547.4,395.0 L 578.9,395.0 L 610.7,395.0 L 642.6,395.0" class="phot"/>
<path d="M 99.8,168.3 L 129.6,170.7 L 159.4,197.1 L 189.9,262.8 L 219.6,336.7 L 249.4,373.5 L 279.2,381.3 L 309.0,383.3 L 338.8,386.1 L 368.6,391.7 L 398.7,394.9 L 428.5,394.7 L 458.7,394.5 L 487.4,394.8 L 519.3,394.9 L 547.4,395.0 L 578.9,394.9 L 610.7,394.5 L 642.6,394.1" class="mbar"/>
<path d="M 99.8,194.6 L 129.6,194.0 L 159.4,188.0 L 189.9,175.7 L 219.6,168.3 L 249.4,175.5 L 279.2,190.6 L 309.0,204.6 L 338.8,218.6 L 368.6,235.1 L 398.7,250.0 L 428.5,260.5 L 458.7,269.5 L 487.4,278.1 L 519.3,286.0 L 547.4,293.2 L 578.9,298.7 L 610.7,302.3 L 642.6,304.2" class="mph"/>
<path d="M 76.2,352.4 L 82.3,334.7 L 88.5,321.2 L 94.7,309.8 L 100.8,299.7 L 107.0,290.6 L 113.2,282.3 L 119.4,274.5 L 125.5,267.2 L 131.7,260.4 L 137.9,253.8 L 144.0,247.6 L 150.2,241.9 L 156.4,236.9 L 162.6,232.5 L 168.7,228.5 L 174.9,225.0 L 181.1,222.0 L 187.2,219.3 L 193.4,216.9 L 199.6,214.8 L 205.7,212.7 L 211.9,210.5 L 218.1,208.4 L 224.3,206.3 L 230.4,204.3 L 236.6,202.3 L 242.8,200.3 L 248.9,198.3 L 255.1,196.4 L 261.3,194.6 L 267.4,192.7 L 273.6,191.0 L 279.8,189.2 L 285.9,187.5 L 292.1,185.9 L 298.3,184.3 L 304.5,182.7 L 310.6,181.2 L 316.8,179.8 L 323.0,178.3 L 329.1,177.0 L 335.3,175.6 L 341.5,174.3 L 347.6,173.1 L 353.8,171.9 L 360.0,170.7 L 366.2,169.6 L 372.3,168.5 L 378.5,167.5 L 384.7,166.5 L 390.8,165.5 L 397.0,164.6 L 403.2,163.8 L 409.4,162.9 L 415.5,162.1 L 421.7,161.4 L 427.9,160.6 L 434.0,159.9 L 440.2,159.1 L 446.4,158.4 L 452.5,157.8 L 458.7,157.1 L 464.9,156.4 L 471.0,155.8 L 477.2,155.1 L 483.4,154.5 L 489.6,153.9 L 495.7,153.4 L 501.9,152.8 L 508.1,152.3 L 514.2,151.7 L 520.4,151.2 L 526.6,150.7 L 532.8,150.3 L 538.9,149.8 L 545.1,149.4 L 551.3,149.0 L 557.4,148.6 L 563.6,148.2 L 569.8,147.8 L 575.9,147.5 L 582.1,147.1 L 588.3,146.8 L 594.5,146.5 L 600.6,146.3 L 606.8,146.0 L 613.0,145.8 L 619.1,145.6 L 625.3,145.4 L 631.5,145.2 L 637.6,145.0 L 643.8,144.9 L 650.0,144.8 L 656.1,145.1 L 662.3,146.3 L 668.5,147.6 L 674.7,148.9 L 680.8,150.2 L 687.0,151.4" class="nt"/>
<path d="M 99.8,226.9 L 129.6,155.3 L 159.4,107.5 L 189.9,85.9 L 219.6,94.5 L 249.4,104.1 L 279.2,110.5 L 309.0,115.5 L 338.8,117.5 L 368.6,123.5 L 398.7,129.1 L 428.5,133.1 L 458.7,136.2 L 487.4,139.1 L 519.3,141.8 L 547.4,144.1 L 578.9,146.3 L 610.7,147.9 L 642.6,148.8" class="mond"/>
<path d="M 75.1,383.3 L 80.3,374.2 L 85.4,364.1 L 90.6,353.7 L 95.7,343.3 L 100.8,332.8 L 106.0,322.1 L 111.1,311.3 L 116.3,300.4 L 121.4,289.3 L 126.6,278.2 L 131.7,267.0 L 136.8,255.9 L 142.0,245.1 L 147.1,234.9 L 152.3,225.5 L 157.4,217.1 L 162.6,209.7 L 167.7,203.5 L 172.8,198.3 L 178.0,194.3 L 183.1,191.2 L 188.3,189.0 L 193.4,187.6 L 198.5,186.6 L 203.7,186.0 L 208.8,185.5 L 214.0,185.0 L 219.1,184.4 L 224.3,183.7 L 229.4,182.9 L 234.5,182.1 L 239.7,181.1 L 244.8,180.1 L 250.0,179.0 L 255.1,177.8 L 260.2,176.7 L 265.4,175.5 L 270.5,174.3 L 275.7,173.1 L 280.8,172.0 L 285.9,170.8 L 291.1,169.7 L 296.2,168.6 L 301.4,167.5 L 306.5,166.5 L 311.7,165.5 L 316.8,164.5 L 321.9,163.7 L 327.1,162.8 L 332.2,162.1 L 337.4,161.4 L 342.5,160.7 L 347.6,160.1 L 352.8,159.6 L 357.9,159.2 L 363.1,158.9 L 368.2,158.6 L 373.4,158.4 L 378.5,158.4 L 383.6,158.4 L 388.8,158.5 L 393.9,158.7 L 399.1,159.0 L 404.2,159.4 L 409.4,159.9 L 414.5,160.5 L 419.6,161.1 L 424.8,161.7 L 429.9,162.3 L 435.1,162.9 L 440.2,163.5 L 445.3,164.1 L 450.5,164.6 L 455.6,165.2 L 460.8,165.7 L 465.9,166.1 L 471.1,166.6 L 476.2,167.1 L 481.3,167.5 L 486.5,168.0 L 491.6,168.4 L 496.8,168.8 L 501.9,169.3 L 507.0,169.7 L 512.2,170.1 L 517.3,170.5 L 522.5,171.0 L 527.6,171.4 L 532.8,171.8 L 537.9,172.2 L 543.0,172.6 L 548.2,173.0 L 553.3,173.4 L 558.5,173.8 L 563.6,174.2 L 568.7,174.6 L 573.9,174.9 L 579.0,175.2 L 584.2,175.5 L 589.3,175.7 L 594.4,175.9 L 599.6,176.1 L 604.7,176.1 L 609.9,176.1 L 615.0,176.1 L 620.2,175.9 L 625.3,175.7 L 630.4,175.5 L 635.6,175.4 L 640.7,175.5 L 645.9,176.1 L 651.0,177.3 L 656.1,179.1 L 661.3,181.7 L 666.4,184.8 L 671.6,188.3 L 676.7,192.0 L 681.9,195.7 L 687.0,199.4" class="fw"/>
<line x1="99.79" y1="326.05" x2="99.79" y2="346.24" class="err"/>
<line x1="96.79" y1="326.05" x2="102.79" y2="326.05" class="err"/>
<line x1="96.79" y1="346.24" x2="102.79" y2="346.24" class="err"/>
<circle cx="99.79" cy="336.15" r="2.5" class="obs"/>
<line x1="129.58" y1="263.14" x2="129.58" y2="283.33" class="err"/>
<line x1="126.58" y1="263.14" x2="132.58" y2="263.14" class="err"/>
<line x1="126.58" y1="283.33" x2="132.58" y2="283.33" class="err"/>
<circle cx="129.58" cy="273.23" r="2.5" class="obs"/>
<line x1="159.38" y1="205.76" x2="159.38" y2="224.72" class="err"/>
<line x1="156.38" y1="205.76" x2="162.38" y2="205.76" class="err"/>
<line x1="156.38" y1="224.72" x2="162.38" y2="224.72" class="err"/>
<circle cx="159.38" cy="215.24" r="2.5" class="obs"/>
<line x1="189.85" y1="185.20" x2="189.85" y2="200.96" class="err"/>
<line x1="186.85" y1="185.20" x2="192.85" y2="185.20" class="err"/>
<line x1="186.85" y1="200.96" x2="192.85" y2="200.96" class="err"/>
<circle cx="189.85" cy="193.08" r="2.5" class="obs"/>
<line x1="219.64" y1="173.44" x2="219.64" y2="188.10" class="err"/>
<line x1="216.64" y1="173.44" x2="222.64" y2="173.44" class="err"/>
<line x1="216.64" y1="188.10" x2="222.64" y2="188.10" class="err"/>
<circle cx="219.64" cy="180.77" r="2.5" class="obs"/>
<line x1="249.44" y1="172.15" x2="249.44" y2="186.93" class="err"/>
<line x1="246.44" y1="172.15" x2="252.44" y2="172.15" class="err"/>
<line x1="246.44" y1="186.93" x2="252.44" y2="186.93" class="err"/>
<circle cx="249.44" cy="179.54" r="2.5" class="obs"/>
<line x1="279.23" y1="160.58" x2="279.23" y2="176.34" class="err"/>
<line x1="276.23" y1="160.58" x2="282.23" y2="160.58" class="err"/>
<line x1="276.23" y1="176.34" x2="282.23" y2="176.34" class="err"/>
<circle cx="279.23" cy="168.46" r="2.5" class="obs"/>
<line x1="309.02" y1="159.35" x2="309.02" y2="175.11" class="err"/>
<line x1="306.02" y1="159.35" x2="312.02" y2="159.35" class="err"/>
<line x1="306.02" y1="175.11" x2="312.02" y2="175.11" class="err"/>
<circle cx="309.02" cy="167.23" r="2.5" class="obs"/>
<line x1="338.81" y1="155.34" x2="338.81" y2="171.72" class="err"/>
<line x1="335.81" y1="155.34" x2="341.81" y2="155.34" class="err"/>
<line x1="335.81" y1="171.72" x2="341.81" y2="171.72" class="err"/>
<circle cx="338.81" cy="163.53" r="2.5" class="obs"/>
<line x1="368.60" y1="152.02" x2="368.60" y2="170.12" class="err"/>
<line x1="365.60" y1="152.02" x2="371.60" y2="152.02" class="err"/>
<line x1="365.60" y1="170.12" x2="371.60" y2="170.12" class="err"/>
<circle cx="368.60" cy="161.07" r="2.5" class="obs"/>
<line x1="398.74" y1="151.96" x2="398.74" y2="167.72" class="err"/>
<line x1="395.74" y1="151.96" x2="401.74" y2="151.96" class="err"/>
<line x1="395.74" y1="167.72" x2="401.74" y2="167.72" class="err"/>
<circle cx="398.74" cy="159.84" r="2.5" class="obs"/>
<line x1="428.53" y1="153.01" x2="428.53" y2="166.67" class="err"/>
<line x1="425.53" y1="153.01" x2="431.53" y2="153.01" class="err"/>
<line x1="425.53" y1="166.67" x2="431.53" y2="166.67" class="err"/>
<circle cx="428.53" cy="159.84" r="2.5" class="obs"/>
<line x1="458.66" y1="154.98" x2="458.66" y2="169.63" class="err"/>
<line x1="455.66" y1="154.98" x2="461.66" y2="154.98" class="err"/>
<line x1="455.66" y1="169.63" x2="461.66" y2="169.63" class="err"/>
<circle cx="458.66" cy="162.30" r="2.5" class="obs"/>
<line x1="487.43" y1="157.56" x2="487.43" y2="174.43" class="err"/>
<line x1="484.43" y1="157.56" x2="490.43" y2="157.56" class="err"/>
<line x1="484.43" y1="174.43" x2="490.43" y2="174.43" class="err"/>
<circle cx="487.43" cy="165.99" r="2.5" class="obs"/>
<line x1="519.28" y1="161.81" x2="519.28" y2="177.57" class="err"/>
<line x1="516.28" y1="161.81" x2="522.28" y2="161.81" class="err"/>
<line x1="516.28" y1="177.57" x2="522.28" y2="177.57" class="err"/>
<circle cx="519.28" cy="169.69" r="2.5" class="obs"/>
<line x1="547.36" y1="166.18" x2="547.36" y2="183.05" class="err"/>
<line x1="544.36" y1="166.18" x2="550.36" y2="166.18" class="err"/>
<line x1="544.36" y1="183.05" x2="550.36" y2="183.05" class="err"/>
<circle cx="547.36" cy="174.61" r="2.5" class="obs"/>
<line x1="578.86" y1="168.15" x2="578.86" y2="186.00" class="err"/>
<line x1="575.86" y1="168.15" x2="581.86" y2="168.15" class="err"/>
<line x1="575.86" y1="186.00" x2="581.86" y2="186.00" class="err"/>
<circle cx="578.86" cy="177.08" r="2.5" class="obs"/>
<line x1="610.71" y1="166.55" x2="610.71" y2="187.60" class="err"/>
<line x1="607.71" y1="166.55" x2="613.71" y2="166.55" class="err"/>
<line x1="607.71" y1="187.60" x2="613.71" y2="187.60" class="err"/>
<circle cx="610.71" cy="177.08" r="2.5" class="obs"/>
<line x1="642.55" y1="161.07" x2="642.55" y2="190.62" class="err"/>
<line x1="639.55" y1="161.07" x2="645.55" y2="161.07" class="err"/>
<line x1="639.55" y1="190.62" x2="645.55" y2="190.62" class="err"/>
<circle cx="642.55" cy="175.84" r="2.5" class="obs"/>
<g class="legend">
<line x1="82" y1="69" x2="106" y2="69" class="fw"/>
<text x="112" y="73" class="lbl-l">framework: 1.8 km/s, 1.2%, 0.28σ</text>
<line x1="82" y1="87" x2="106" y2="87" class="nt"/>
<text x="112" y="91" class="lbl-l">Newtonian: 16.9 km/s, 16.3%, 2.32σ</text>
<line x1="82" y1="105" x2="106" y2="105" class="mond"/>
<text x="112" y="109" class="lbl-m">MOND/RAR: 52.3 km/s, 54.5%, 7.46σ</text>
<circle cx="94" cy="123" r="2.5" class="obs"/>
<text x="112" y="127" class="lbl">observed V±err</text>
</g>
<g class="legend">
<line x1="472" y1="69" x2="496" y2="69" class="rho"/>
<text x="502" y="73" class="lbl-r">ρ(r) raw</text>
<line x1="472" y1="87" x2="496" y2="87" class="phot"/>
<text x="502" y="91" class="lbl-p">photometric baryonic profile</text>
<line x1="472" y1="105" x2="496" y2="105" class="mbar"/>
<text x="502" y="109" class="lbl-m">MOND baryonic annulus</text>
<line x1="472" y1="123" x2="496" y2="123" class="mph"/>
<text x="502" y="127" class="lbl-m">MOND phantom annulus</text>
<text x="472" y="147" class="lbl-r">ρ peak: 493 M☉/pc²</text>
<text x="472" y="163" class="lbl-p">phot peak: 2847.96 (arb.)</text>
<text x="472" y="179" class="lbl-m">Σbar peak: 1432.82 M☉/pc²</text>
<text x="472" y="195" class="lbl-m">Σphantom peak: 183.26 M☉/pc²</text>
</g>
<rect x="775" y="55" width="170" height="170" class="preview-bg"/>
<defs><radialGradient id="g_NGC4217" cx="0.5" cy="0.5" r="0.5">
  <stop offset="0.0000" stop-color="rgb(171,171,171)"/>
  <stop offset="0.0313" stop-color="rgb(171,171,171)"/>
  <stop offset="0.0625" stop-color="rgb(171,171,171)"/>
  <stop offset="0.0938" stop-color="rgb(170,170,170)"/>
  <stop offset="0.1250" stop-color="rgb(170,170,170)"/>
  <stop offset="0.1563" stop-color="rgb(153,153,153)"/>
  <stop offset="0.1875" stop-color="rgb(136,136,136)"/>
  <stop offset="0.2188" stop-color="rgb(122,122,122)"/>
  <stop offset="0.2500" stop-color="rgb(119,119,119)"/>
  <stop offset="0.2813" stop-color="rgb(116,116,116)"/>
  <stop offset="0.3125" stop-color="rgb(113,113,113)"/>
  <stop offset="0.3438" stop-color="rgb(110,110,110)"/>
  <stop offset="0.3750" stop-color="rgb(107,107,107)"/>
  <stop offset="0.4063" stop-color="rgb(104,104,104)"/>
  <stop offset="0.4375" stop-color="rgb(101,101,101)"/>
  <stop offset="0.4688" stop-color="rgb(97,97,97)"/>
  <stop offset="0.5000" stop-color="rgb(94,94,94)"/>
  <stop offset="0.5313" stop-color="rgb(91,91,91)"/>
  <stop offset="0.5625" stop-color="rgb(88,88,88)"/>
  <stop offset="0.5938" stop-color="rgb(85,85,85)"/>
  <stop offset="0.6250" stop-color="rgb(84,84,84)"/>
  <stop offset="0.6563" stop-color="rgb(82,82,82)"/>
  <stop offset="0.6875" stop-color="rgb(80,80,80)"/>
  <stop offset="0.7188" stop-color="rgb(78,78,78)"/>
  <stop offset="0.7500" stop-color="rgb(76,76,76)"/>
  <stop offset="0.7813" stop-color="rgb(75,75,75)"/>
  <stop offset="0.8125" stop-color="rgb(73,73,73)"/>
  <stop offset="0.8438" stop-color="rgb(71,71,71)"/>
  <stop offset="0.8750" stop-color="rgb(69,69,69)"/>
  <stop offset="0.9063" stop-color="rgb(68,68,68)"/>
  <stop offset="0.9375" stop-color="rgb(66,66,66)"/>
  <stop offset="0.9688" stop-color="rgb(64,64,64)"/>
  <stop offset="1.0000" stop-color="rgb(0,0,0)"/>
</radialGradient></defs>
<circle cx="860" cy="140" r="81" fill="url(#g_NGC4217)"/>
<text x="860" y="49" text-anchor="middle" class="preview-lbl">face-on luminance from ρ(r)</text>
<text x="860" y="239" text-anchor="middle" class="preview-lbl">edge at r = 17.2 kpc</text>
</svg>