<svg xmlns="http://www.w3.org/2000/svg" viewBox="0 0 720 420" width="720" height="420" font-family="sans-serif" font-size="12">
<style>
  .ax { stroke: #333; stroke-width: 1; fill: none; }
  .grid { stroke: #ddd; stroke-width: 0.5; fill: none; }
  .lbl { fill: #333; }
  .lbl-l { fill: #0066cc; }
  .lbl-r { fill: #b03030; }
  .obs { fill: #222; }
  .err { stroke: #555; stroke-width: 0.8; fill: none; }
  .fw { stroke: #0066cc; stroke-width: 2.2; fill: none; }
  .nt { stroke: #cc6600; stroke-width: 1.6; fill: none; stroke-dasharray: 5,3; }
  .rho { stroke: #b03030; stroke-width: 2.0; fill: none; }
  .sig { stroke: #b03030; stroke-width: 1.6; fill: none; stroke-dasharray: 4,2; opacity: 0.85; }
  .title { fill: #111; font-size: 16px; font-weight: 600; }
  .subtitle { fill: #555; font-size: 11px; }
  .legend { font-size: 11px; }
</style>
<text x="360.0" y="22" text-anchor="middle" class="title">NGC4157</text>
<text x="360.0" y="38" text-anchor="middle" class="subtitle">rMax=29.6 kpc, N=17, RMS=3.6 km/s (2.0%), amp=105</text>
<line x1="70" y1="365.0" x2="635" y2="365.0" class="grid"/>
<text x="64" y="369.0" text-anchor="end" class="lbl-l">0</text>
<line x1="70" y1="303.0" x2="635" y2="303.0" class="grid"/>
<text x="64" y="307.0" text-anchor="end" class="lbl-l">47</text>
<line x1="70" y1="241.0" x2="635" y2="241.0" class="grid"/>
<text x="64" y="245.0" text-anchor="end" class="lbl-l">94</text>
<line x1="70" y1="178.99999999999997" x2="635" y2="178.99999999999997" class="grid"/>
<text x="64" y="182.99999999999997" text-anchor="end" class="lbl-l">142</text>
<line x1="70" y1="116.99999999999999" x2="635" y2="116.99999999999999" class="grid"/>
<text x="64" y="120.99999999999999" text-anchor="end" class="lbl-l">189</text>
<line x1="70" y1="55.0" x2="635" y2="55.0" class="grid"/>
<text x="64" y="59.0" text-anchor="end" class="lbl-l">236</text>
<text x="641" y="369.0" text-anchor="start" class="lbl-r">0.0</text>
<text x="641" y="327.6666666666667" text-anchor="start" class="lbl-r">0.2</text>
<text x="641" y="286.33333333333337" text-anchor="start" class="lbl-r">0.4</text>
<text x="641" y="245.00000000000003" text-anchor="start" class="lbl-r">0.6</text>
<text x="641" y="203.66666666666666" text-anchor="start" class="lbl-r">0.8</text>
<text x="641" y="162.33333333333334" text-anchor="start" class="lbl-r">1.0</text>
<line x1="70.0" y1="55" x2="70.0" y2="365" class="grid"/>
<text x="70.0" y="381" text-anchor="middle" class="lbl">0.0</text>
<line x1="164.16666666666666" y1="55" x2="164.16666666666666" y2="365" class="grid"/>
<text x="164.16666666666666" y="381" text-anchor="middle" class="lbl">5.4</text>
<line x1="258.3333333333333" y1="55" x2="258.3333333333333" y2="365" class="grid"/>
<text x="258.3333333333333" y="381" text-anchor="middle" class="lbl">10.8</text>
<line x1="352.5" y1="55" x2="352.5" y2="365" class="grid"/>
<text x="352.5" y="381" text-anchor="middle" class="lbl">16.2</text>
<line x1="446.66666666666663" y1="55" x2="446.66666666666663" y2="365" class="grid"/>
<text x="446.66666666666663" y="381" text-anchor="middle" class="lbl">21.5</text>
<line x1="540.8333333333334" y1="55" x2="540.8333333333334" y2="365" class="grid"/>
<text x="540.8333333333334" y="381" text-anchor="middle" class="lbl">26.9</text>
<line x1="635.0" y1="55" x2="635.0" y2="365" class="grid"/>
<text x="635.0" y="381" text-anchor="middle" class="lbl">32.3</text>
<text x="352.5" y="408" text-anchor="middle" class="lbl">radius (kpc)</text>
<text x="16" y="210.0" text-anchor="middle" class="lbl-l" transform="rotate(-90, 16, 210.0)">velocity (km/s)</text>
<text x="704" y="210.0" text-anchor="middle" class="lbl-r" transform="rotate(-90, 704, 210.0)">mass profile (normalized to peak)</text>
<rect x="70" y="55" width="565" height="310" class="ax"/>
<path d="M 70.0,158.3 L 72.6,158.3 L 75.2,158.3 L 77.7,158.3 L 80.3,158.3 L 82.9,158.3 L 85.5,158.3 L 88.1,158.3 L 90.6,158.3 L 93.2,158.3 L 95.8,158.3 L 98.4,158.3 L 101.0,158.3 L 103.5,158.3 L 106.1,158.3 L 108.7,158.3 L 111.3,158.3 L 113.9,158.3 L 116.4,158.3 L 119.0,158.3 L 121.6,158.3 L 124.2,158.3 L 126.8,175.5 L 129.3,199.2 L 131.9,216.1 L 134.5,217.9 L 137.1,219.7 L 139.7,221.5 L 142.2,223.3 L 144.8,225.1 L 147.4,226.9 L 150.0,228.6 L 152.6,230.4 L 155.1,232.2 L 157.7,234.0 L 160.3,235.8 L 162.9,237.6 L 165.5,239.4 L 168.0,241.2 L 170.6,243.0 L 173.2,244.8 L 175.8,246.6 L 178.4,248.4 L 180.9,250.2 L 183.5,252.0 L 186.1,253.8 L 188.7,255.6 L 191.3,257.4 L 193.8,259.2 L 196.4,261.0 L 199.0,262.8 L 201.6,264.6 L 204.2,266.4 L 206.7,268.2 L 209.3,270.0 L 211.9,271.8 L 214.5,273.6 L 217.1,275.4 L 219.6,277.2 L 222.2,279.0 L 224.8,280.8 L 227.4,282.6 L 230.0,284.4 L 232.5,286.2 L 235.1,288.0 L 237.7,289.2 L 240.3,289.5 L 242.9,289.8 L 245.4,290.1 L 248.0,290.4 L 250.6,290.7 L 253.2,291.0 L 255.8,291.2 L 258.3,291.5 L 260.9,291.8 L 263.5,292.1 L 266.1,292.4 L 268.7,292.7 L 271.2,293.0 L 273.8,293.2 L 276.4,293.5 L 279.0,293.8 L 281.6,294.1 L 284.1,294.4 L 286.7,294.7 L 289.3,295.0 L 291.9,295.3 L 294.5,295.5 L 297.0,295.8 L 299.6,296.1 L 302.2,296.4 L 304.8,296.7 L 307.4,297.0 L 309.9,297.3 L 312.5,297.6 L 315.1,297.8 L 317.7,298.1 L 320.3,298.4 L 322.8,298.7 L 325.4,299.0 L 328.0,299.3 L 330.6,299.6 L 333.2,299.9 L 335.7,300.1 L 338.3,300.4 L 340.9,300.7 L 343.5,301.0 L 346.1,301.3 L 348.6,301.6 L 351.2,301.9 L 353.8,302.1 L 356.4,302.4 L 358.9,302.7 L 361.5,303.0 L 364.1,303.3 L 366.7,303.6 L 369.3,303.9 L 371.8,304.2 L 374.4,304.4 L 377.0,304.7 L 379.6,305.0 L 382.2,305.3 L 384.7,305.6 L 387.3,305.9 L 389.9,306.2 L 392.5,306.5 L 395.1,306.7 L 397.6,307.0 L 400.2,307.3 L 402.8,307.6 L 405.4,307.9 L 408.0,308.2 L 410.5,308.5 L 413.1,308.7 L 415.7,309.0 L 418.3,309.3 L 420.9,309.6 L 423.4,309.9 L 426.0,310.2 L 428.6,310.5 L 431.2,310.8 L 433.8,311.0 L 436.3,311.3 L 438.9,311.6 L 441.5,311.9 L 444.1,312.2 L 446.7,312.5 L 449.2,312.8 L 451.8,313.1 L 454.4,313.3 L 457.0,313.6 L 459.6,313.9 L 462.1,314.2 L 464.7,314.5 L 467.3,314.8 L 469.9,315.1 L 472.5,315.3 L 475.0,315.6 L 477.6,315.9 L 480.2,316.2 L 482.8,316.5 L 485.4,316.8 L 487.9,317.1 L 490.5,317.4 L 493.1,317.6 L 495.7,317.9 L 498.3,318.2 L 500.8,318.5 L 503.4,318.8 L 506.0,319.1 L 508.6,319.4 L 511.2,319.7 L 513.7,319.9 L 516.3,320.2 L 518.9,320.5 L 521.5,320.8 L 524.1,321.1 L 526.6,321.4 L 529.2,321.7 L 531.8,321.9 L 534.4,322.2 L 537.0,322.5 L 539.5,322.8 L 542.1,323.1 L 544.7,323.4 L 547.3,323.7 L 549.9,324.0 L 552.4,324.2 L 555.0,324.5 L 557.6,324.8 L 560.2,325.1 L 562.8,325.4 L 565.3,325.7 L 567.9,326.0 L 570.5,326.3 L 573.1,326.5 L 575.7,326.8 L 578.2,327.1 L 580.8,327.4 L 583.4,327.7 L 586.0,328.0 L 588.6,328.3 L 591.1,328.6 L 593.7,328.8 L 596.3,329.1 L 598.9,336.0 L 601.5,344.1 L 604.0,352.3 L 606.6,360.4 L 609.2,365.0 L 611.8,365.0 L 614.4,365.0 L 616.9,365.0 L 619.5,365.0 L 622.1,365.0 L 624.7,365.0 L 627.3,365.0 L 629.8,365.0 L 632.4,365.0 L 635.0,365.0" class="rho"/>
<path d="M 70.0,158.3 L 72.6,158.4 L 75.2,158.6 L 77.7,158.9 L 80.3,159.2 L 82.9,159.7 L 85.5,160.3 L 88.1,161.0 L 90.6,161.8 L 93.2,162.6 L 95.8,163.6 L 98.4,164.7 L 101.0,166.0 L 103.5,167.3 L 106.1,168.7 L 108.7,170.3 L 111.3,172.0 L 113.9,173.7 L 116.4,175.6 L 119.0,177.6 L 121.6,179.6 L 124.2,181.8 L 126.8,183.9 L 129.3,186.2 L 131.9,188.4 L 134.5,190.7 L 137.1,192.9 L 139.7,195.2 L 142.2,197.4 L 144.8,199.6 L 147.4,201.8 L 150.0,204.0 L 152.6,206.1 L 155.1,208.2 L 157.7,210.2 L 160.3,212.2 L 162.9,214.2 L 165.5,216.2 L 168.0,218.2 L 170.6,220.1 L 173.2,222.0 L 175.8,223.8 L 178.4,225.7 L 180.9,227.5 L 183.5,229.3 L 186.1,231.1 L 188.7,232.8 L 191.3,234.5 L 193.8,236.2 L 196.4,237.9 L 199.0,239.6 L 201.6,241.2 L 204.2,242.8 L 206.7,244.4 L 209.3,245.9 L 211.9,247.4 L 214.5,248.9 L 217.1,250.4 L 219.6,251.8 L 222.2,253.2 L 224.8,254.6 L 227.4,256.0 L 230.0,257.3 L 232.5,258.6 L 235.1,259.9 L 237.7,261.1 L 240.3,262.3 L 242.9,263.5 L 245.4,264.6 L 248.0,265.8 L 250.6,266.9 L 253.2,267.9 L 255.8,269.0 L 258.3,270.0 L 260.9,271.0 L 263.5,272.0 L 266.1,273.0 L 268.7,273.9 L 271.2,274.9 L 273.8,275.8 L 276.4,276.7 L 279.0,277.6 L 281.6,278.4 L 284.1,279.3 L 286.7,280.1 L 289.3,281.0 L 291.9,281.8 L 294.5,282.6 L 297.0,283.4 L 299.6,284.2 L 302.2,284.9 L 304.8,285.7 L 307.4,286.4 L 309.9,287.2 L 312.5,287.9 L 315.1,288.6 L 317.7,289.3 L 320.3,290.0 L 322.8,290.7 L 325.4,291.4 L 328.0,292.1 L 330.6,292.8 L 333.2,293.5 L 335.7,294.1 L 338.3,294.8 L 340.9,295.4 L 343.5,296.0 L 346.1,296.7 L 348.6,297.3 L 351.2,297.9 L 353.8,298.5 L 356.4,299.1 L 358.9,299.7 L 361.5,300.3 L 364.1,300.9 L 366.7,301.5 L 369.3,302.1 L 371.8,302.7 L 374.4,303.2 L 377.0,303.8 L 379.6,304.4 L 382.2,304.9 L 384.7,305.5 L 387.3,306.0 L 389.9,306.6 L 392.5,307.1 L 395.1,307.6 L 397.6,308.2 L 400.2,308.7 L 402.8,309.2 L 405.4,309.7 L 408.0,310.2 L 410.5,310.7 L 413.1,311.3 L 415.7,311.8 L 418.3,312.3 L 420.9,312.7 L 423.4,313.2 L 426.0,313.7 L 428.6,314.2 L 431.2,314.7 L 433.8,315.2 L 436.3,315.6 L 438.9,316.1 L 441.5,316.6 L 444.1,317.0 L 446.7,317.5 L 449.2,318.0 L 451.8,318.4 L 454.4,318.9 L 457.0,319.3 L 459.6,319.7 L 462.1,320.2 L 464.7,320.6 L 467.3,321.1 L 469.9,321.5 L 472.5,321.9 L 475.0,322.3 L 477.6,322.8 L 480.2,323.2 L 482.8,323.6 L 485.4,324.0 L 487.9,324.4 L 490.5,324.9 L 493.1,325.3 L 495.7,325.7 L 498.3,326.1 L 500.8,326.5 L 503.4,326.9 L 506.0,327.3 L 508.6,327.7 L 511.2,328.1 L 513.7,328.4 L 516.3,328.8 L 518.9,329.2 L 521.5,329.6 L 524.1,330.0 L 526.6,330.4 L 529.2,330.7 L 531.8,331.1 L 534.4,331.5 L 537.0,331.9 L 539.5,332.2 L 542.1,332.6 L 544.7,333.0 L 547.3,333.3 L 549.9,333.7 L 552.4,334.1 L 555.0,334.4 L 557.6,334.8 L 560.2,335.1 L 562.8,335.5 L 565.3,335.9 L 567.9,336.2 L 570.5,336.6 L 573.1,336.9 L 575.7,337.3 L 578.2,337.7 L 580.8,338.0 L 583.4,338.4 L 586.0,338.7 L 588.6,339.1 L 591.1,339.4 L 593.7,339.8 L 596.3,340.2 L 598.9,340.5 L 601.5,340.8 L 604.0,341.2 L 606.6,341.5 L 609.2,341.9 L 611.8,342.2 L 614.4,342.5 L 616.9,342.8 L 619.5,343.1 L 622.1,343.4 L 624.7,343.7 L 627.3,344.0 L 629.8,344.2 L 632.4,344.5 L 635.0,344.7" class="sig"/>
<path d="M 75.7,310.3 L 81.3,287.7 L 87.0,270.3 L 92.6,255.7 L 98.2,242.8 L 103.9,231.1 L 109.5,220.4 L 115.2,210.4 L 120.8,201.0 L 126.5,192.3 L 132.2,186.9 L 137.8,183.0 L 143.4,179.1 L 149.1,175.4 L 154.8,171.8 L 160.4,168.3 L 166.1,165.1 L 171.7,162.0 L 177.3,159.1 L 183.0,156.4 L 188.7,153.8 L 194.3,151.4 L 199.9,149.2 L 205.6,147.2 L 211.2,145.3 L 216.9,143.7 L 222.5,142.1 L 228.2,140.8 L 233.8,139.6 L 239.5,138.5 L 245.2,137.4 L 250.8,136.3 L 256.5,135.2 L 262.1,134.0 L 267.8,132.8 L 273.4,131.6 L 279.1,130.4 L 284.7,129.2 L 290.3,128.0 L 296.0,126.8 L 301.6,125.5 L 307.3,124.3 L 313.0,123.1 L 318.6,121.9 L 324.2,120.7 L 329.9,119.5 L 335.6,118.3 L 341.2,117.1 L 346.9,116.0 L 352.5,114.8 L 358.1,113.7 L 363.8,112.6 L 369.4,111.5 L 375.1,110.4 L 380.8,109.3 L 386.4,108.3 L 392.0,107.2 L 397.7,106.2 L 403.3,105.2 L 409.0,104.2 L 414.6,103.3 L 420.3,102.3 L 425.9,101.4 L 431.6,100.5 L 437.2,99.6 L 442.9,98.7 L 448.6,97.9 L 454.2,97.0 L 459.8,96.2 L 465.5,95.5 L 471.1,94.7 L 476.8,93.9 L 482.4,93.2 L 488.1,92.5 L 493.8,91.8 L 499.4,91.1 L 505.1,90.5 L 510.7,89.8 L 516.3,89.2 L 522.0,88.6 L 527.6,88.0 L 533.3,87.5 L 539.0,87.0 L 544.6,86.5 L 550.2,86.0 L 555.9,85.5 L 561.5,85.0 L 567.2,84.6 L 572.9,84.2 L 578.5,83.8 L 584.1,83.4 L 589.8,83.1 L 595.5,82.7 L 601.1,82.7 L 606.8,83.5 L 612.4,84.9 L 618.0,86.4 L 623.7,87.9 L 629.3,89.3 L 635.0,90.6" class="nt"/>
<path d="M 74.7,345.5 L 79.4,330.2 L 84.1,313.1 L 88.8,295.6 L 93.5,278.0 L 98.2,260.2 L 103.0,242.3 L 107.7,224.4 L 112.4,206.8 L 117.1,190.1 L 121.8,174.7 L 126.5,161.5 L 131.2,150.4 L 135.9,141.9 L 140.6,135.2 L 145.3,130.1 L 150.0,125.8 L 154.8,122.0 L 159.5,118.6 L 164.2,115.4 L 168.9,112.4 L 173.6,109.6 L 178.3,107.0 L 183.0,104.6 L 187.7,102.6 L 192.4,100.8 L 197.1,99.3 L 201.8,98.2 L 206.5,97.5 L 211.2,97.2 L 216.0,97.2 L 220.7,97.8 L 225.4,98.7 L 230.1,100.0 L 234.8,101.7 L 239.5,103.5 L 244.2,105.5 L 248.9,107.5 L 253.6,109.4 L 258.3,111.1 L 263.0,112.8 L 267.8,114.2 L 272.5,115.5 L 277.2,116.7 L 281.9,117.7 L 286.6,118.6 L 291.3,119.4 L 296.0,120.1 L 300.7,120.7 L 305.4,121.2 L 310.1,121.7 L 314.8,122.1 L 319.5,122.5 L 324.2,122.8 L 329.0,123.1 L 333.7,123.3 L 338.4,123.5 L 343.1,123.7 L 347.8,123.8 L 352.5,123.9 L 357.2,124.0 L 361.9,124.1 L 366.6,124.1 L 371.3,124.2 L 376.0,124.2 L 380.8,124.2 L 385.5,124.3 L 390.2,124.3 L 394.9,124.3 L 399.6,124.3 L 404.3,124.3 L 409.0,124.3 L 413.7,124.3 L 418.4,124.3 L 423.1,124.3 L 427.8,124.3 L 432.5,124.4 L 437.2,124.4 L 442.0,124.4 L 446.7,124.4 L 451.4,124.4 L 456.1,124.5 L 460.8,124.5 L 465.5,124.5 L 470.2,124.6 L 474.9,124.6 L 479.6,124.6 L 484.3,124.6 L 489.0,124.6 L 493.8,124.7 L 498.5,124.6 L 503.2,124.6 L 507.9,124.6 L 512.6,124.5 L 517.3,124.5 L 522.0,124.4 L 526.7,124.2 L 531.4,124.0 L 536.1,123.8 L 540.8,123.5 L 545.5,123.1 L 550.2,122.6 L 555.0,122.1 L 559.7,121.4 L 564.4,120.7 L 569.1,119.8 L 573.8,118.8 L 578.5,117.8 L 583.2,116.9 L 587.9,116.3 L 592.6,116.2 L 597.3,116.8 L 602.0,118.4 L 606.8,121.0 L 611.5,124.4 L 616.2,128.4 L 620.9,132.7 L 625.6,137.1 L 630.3,141.5 L 635.0,145.7" class="fw"/>
<line x1="100.43367805487098" y1="222.42567426480636" x2="100.43367805487098" y2="254.22566212463755" class="err"/>
<line x1="97.43367805487098" y1="222.42567426480636" x2="103.43367805487098" y2="222.42567426480636" class="err"/>
<line x1="97.43367805487098" y1="254.22566212463755" x2="103.43367805487098" y2="254.22566212463755" class="err"/>
<circle cx="100.43367805487098" cy="238.32566819472194" r="2.5" class="obs"/>
<line x1="131.21716850117727" y1="144.8967782429038" x2="131.21716850117727" y2="172.49180903036066" class="err"/>
<line x1="128.21716850117727" y1="144.8967782429038" x2="134.21716850117727" y2="144.8967782429038" class="err"/>
<line x1="128.21716850117727" y1="172.49180903036066" x2="134.21716850117727" y2="172.49180903036066" class="err"/>
<circle cx="131.21716850117727" cy="158.69429363663224" r="2.5" class="obs"/>
<line x1="161.65084655604824" y1="101.66456334255477" x2="161.65084655604824" y2="123.74058797252026" class="err"/>
<line x1="158.65084655604824" y1="101.66456334255477" x2="164.65084655604824" y2="101.66456334255477" class="err"/>
<line x1="158.65084655604824" y1="123.74058797252026" x2="164.65084655604824" y2="123.74058797252026" class="err"/>
<circle cx="161.65084655604824" cy="112.70257565753751" r="2.5" class="obs"/>
<line x1="192.08452461091923" y1="91.80919520417731" x2="192.08452461091923" y2="109.9430725787918" class="err"/>
<line x1="189.08452461091923" y1="91.80919520417731" x2="195.08452461091923" y2="91.80919520417731" class="err"/>
<line x1="189.08452461091923" y1="109.9430725787918" x2="195.08452461091923" y2="109.9430725787918" class="err"/>
<circle cx="192.08452461091923" cy="100.87613389148459" r="2.5" class="obs"/>
<line x1="222.51820266579023" y1="91.28357557013052" x2="222.51820266579023" y2="110.46869221283862" class="err"/>
<line x1="219.51820266579023" y1="91.28357557013052" x2="225.51820266579023" y2="91.28357557013052" class="err"/>
<line x1="219.51820266579023" y1="110.46869221283862" x2="225.51820266579023" y2="110.46869221283862" class="err"/>
<circle cx="222.51820266579023" cy="100.87613389148459" r="2.5" class="obs"/>
<line x1="253.12678691637888" y1="101.66456334255477" x2="253.12678691637888" y2="118.48439163205227" class="err"/>
<line x1="250.12678691637888" y1="101.66456334255477" x2="256.1267869163789" y2="101.66456334255477" class="err"/>
<line x1="250.12678691637888" y1="118.48439163205227" x2="256.1267869163789" y2="118.48439163205227" class="err"/>
<circle cx="253.12678691637888" cy="110.0744774873035" r="2.5" class="obs"/>
<line x1="283.2106525798145" y1="107.44637931706953" x2="283.2106525798145" y2="123.21496833847345" class="err"/>
<line x1="280.2106525798145" y1="107.44637931706953" x2="286.2106525798145" y2="107.44637931706953" class="err"/>
<line x1="280.2106525798145" y1="123.21496833847345" x2="286.2106525798145" y2="123.21496833847345" class="err"/>
<circle cx="283.2106525798145" cy="115.33067382777148" r="2.5" class="obs"/>
<line x1="313.81923683040316" y1="112.1769560234907" x2="313.81923683040316" y2="128.9967843129882" class="err"/>
<line x1="310.81923683040316" y1="112.1769560234907" x2="316.81923683040316" y2="112.1769560234907" class="err"/>
<line x1="310.81923683040316" y1="128.9967843129882" x2="316.81923683040316" y2="128.9967843129882" class="err"/>
<circle cx="313.81923683040316" cy="120.58687016823944" r="2.5" class="obs"/>
<line x1="344.25291488527415" y1="114.80505419372469" x2="344.25291488527415" y2="131.62488248322217" class="err"/>
<line x1="341.25291488527415" y1="114.80505419372469" x2="347.25291488527415" y2="114.80505419372469" class="err"/>
<line x1="341.25291488527415" y1="131.62488248322217" x2="347.25291488527415" y2="131.62488248322217" class="err"/>
<circle cx="344.25291488527415" cy="123.21496833847345" r="2.5" class="obs"/>
<line x1="374.6865929401452" y1="116.25050818735338" x2="374.6865929401452" y2="135.4356248300615" class="err"/>
<line x1="371.6865929401452" y1="116.25050818735338" x2="377.6865929401452" y2="116.25050818735338" class="err"/>
<line x1="371.6865929401452" y1="135.4356248300615" x2="377.6865929401452" y2="135.4356248300615" class="err"/>
<circle cx="374.6865929401452" cy="125.84306650870742" r="2.5" class="obs"/>
<line x1="405.1202709950161" y1="118.48439163205227" x2="405.1202709950161" y2="135.82983955559655" class="err"/>
<line x1="402.1202709950161" y1="118.48439163205227" x2="408.1202709950161" y2="118.48439163205227" class="err"/>
<line x1="402.1202709950161" y1="135.82983955559655" x2="408.1202709950161" y2="135.82983955559655" class="err"/>
<circle cx="405.1202709950161" cy="127.15711559382441" r="2.5" class="obs"/>
<line x1="435.553949049887" y1="115.98769837032998" x2="435.553949049887" y2="133.07033647685085" class="err"/>
<line x1="432.553949049887" y1="115.98769837032998" x2="438.553949049887" y2="115.98769837032998" class="err"/>
<line x1="432.553949049887" y1="133.07033647685085" x2="438.553949049887" y2="133.07033647685085" class="err"/>
<circle cx="435.553949049887" cy="124.52901742359045" r="2.5" class="obs"/>
<line x1="466.1625333004757" y1="113.359600200096" x2="466.1625333004757" y2="130.4422383066169" class="err"/>
<line x1="463.1625333004757" y1="113.359600200096" x2="469.1625333004757" y2="113.359600200096" class="err"/>
<line x1="463.1625333004757" y1="130.4422383066169" x2="469.1625333004757" y2="130.4422383066169" class="err"/>
<circle cx="466.1625333004757" cy="121.90091925335643" r="2.5" class="obs"/>
<line x1="496.5962113553467" y1="108.62902349367482" x2="496.5962113553467" y2="132.54471684280406" class="err"/>
<line x1="493.5962113553467" y1="108.62902349367482" x2="499.5962113553467" y2="108.62902349367482" class="err"/>
<line x1="493.5962113553467" y1="132.54471684280406" x2="499.5962113553467" y2="132.54471684280406" class="err"/>
<circle cx="496.5962113553467" cy="120.58687016823944" r="2.5" class="obs"/>
<line x1="527.0298894102177" y1="105.60671059790573" x2="527.0298894102177" y2="135.56702973857318" class="err"/>
<line x1="524.0298894102177" y1="105.60671059790573" x2="530.0298894102177" y2="105.60671059790573" class="err"/>
<line x1="524.0298894102177" y1="135.56702973857318" x2="530.0298894102177" y2="135.56702973857318" class="err"/>
<circle cx="527.0298894102177" cy="120.58687016823944" r="2.5" class="obs"/>
<line x1="557.4635674650888" y1="105.34390078088235" x2="557.4635674650888" y2="141.08603589606452" class="err"/>
<line x1="554.4635674650888" y1="105.34390078088235" x2="560.4635674650888" y2="105.34390078088235" class="err"/>
<line x1="554.4635674650888" y1="141.08603589606452" x2="560.4635674650888" y2="141.08603589606452" class="err"/>
<circle cx="557.4635674650888" cy="123.21496833847345" r="2.5" class="obs"/>
<line x1="587.8972455199597" y1="104.02985169576536" x2="587.8972455199597" y2="139.77198681094754" class="err"/>
<line x1="584.8972455199597" y1="104.02985169576536" x2="590.8972455199597" y2="104.02985169576536" class="err"/>
<line x1="584.8972455199597" y1="139.77198681094754" x2="590.8972455199597" y2="139.77198681094754" class="err"/>
<circle cx="587.8972455199597" cy="121.90091925335643" r="2.5" class="obs"/>
<g class="legend">
<line x1="82" y1="69" x2="106" y2="69" class="fw"/>
<text x="112" y="73" class="lbl-l">framework fit</text>
<line x1="82" y1="87" x2="106" y2="87" class="nt"/>
<text x="112" y="91" class="lbl-l">Newtonian (no halo)</text>
<circle cx="94" cy="105" r="2.5" class="obs"/>
<text x="112" y="109" class="lbl">observed V±err</text>
</g>
<g class="legend">
<line x1="460" y1="69" x2="484" y2="69" class="rho"/>
<text x="490" y="73" class="lbl-r">ρ(r) raw</text>
<line x1="460" y1="87" x2="484" y2="87" class="sig"/>
<text x="490" y="91" class="lbl-r">Σ(r) smoothed</text>
<text x="460" y="113" class="lbl-r">ρ peak: 397 M☉/pc²</text>
</g>
</svg>