<svg xmlns="http://www.w3.org/2000/svg" viewBox="0 0 960 450" width="960" height="450" font-family="sans-serif" font-size="12">
<style>
  .ax { stroke: #333; stroke-width: 1; fill: none; }
  .grid { stroke: #ddd; stroke-width: 0.5; fill: none; }
  .lbl { fill: #333; }
  .lbl-l { fill: #0066cc; }
  .lbl-r { fill: #b03030; }
  .obs { fill: #222; }
  .err { stroke: #555; stroke-width: 0.8; fill: none; }
  .fw { stroke: #0066cc; stroke-width: 2.2; fill: none; }
  .nt { stroke: #cc6600; stroke-width: 1.6; fill: none; stroke-dasharray: 5,3; }
  .mond { stroke: #7b2cbf; stroke-width: 1.8; fill: none; stroke-dasharray: 7,3; }
  .lbl-p { fill: #cc7000; }
  .lbl-m { fill: #7b2cbf; }
  .rho { stroke: #b03030; stroke-width: 2.0; fill: none; }
  .phot { stroke: #cc7000; stroke-width: 1.8; fill: none; }
  .mbar { stroke: #8e44ad; stroke-width: 1.8; fill: none; opacity: 0.9; }
  .mph { stroke: #c77dff; stroke-width: 1.6; fill: none; stroke-dasharray: 4,3; opacity: 0.95; }
  .title { fill: #111; font-size: 16px; font-weight: 600; }
  .subtitle { fill: #555; font-size: 11px; }
  .preview-bg { fill: #000; }
  .preview-lbl { fill: #888; font-size: 10px; }
  .legend { font-size: 11px; }
</style>
<text x="378.5" y="22" text-anchor="middle" class="title">NGC5033</text>
<text x="378.5" y="38" text-anchor="middle" class="subtitle">rMax=44.6 kpc, N=22, FW=16.1 km/s, 7.8%, 1.57σ, MOND=14.1 km/s, 6.7%, 3.72σ, amp=478</text>
<line x1="70" y1="395.0" x2="687" y2="395.0" class="grid"/>
<text x="64" y="399.0" text-anchor="end" class="lbl-l">0</text>
<line x1="70" y1="327.0" x2="687" y2="327.0" class="grid"/>
<text x="64" y="331.0" text-anchor="end" class="lbl-l">54</text>
<line x1="70" y1="259.0" x2="687" y2="259.0" class="grid"/>
<text x="64" y="263.0" text-anchor="end" class="lbl-l">109</text>
<line x1="70" y1="191.0" x2="687" y2="191.0" class="grid"/>
<text x="64" y="195.0" text-anchor="end" class="lbl-l">163</text>
<line x1="70" y1="123.0" x2="687" y2="123.0" class="grid"/>
<text x="64" y="127.0" text-anchor="end" class="lbl-l">218</text>
<line x1="70" y1="55.0" x2="687" y2="55.0" class="grid"/>
<text x="64" y="59.0" text-anchor="end" class="lbl-l">272</text>
<text x="693" y="399.0" text-anchor="start" class="lbl-r">0.0</text>
<text x="693" y="353.7" text-anchor="start" class="lbl-r">0.2</text>
<text x="693" y="308.3" text-anchor="start" class="lbl-r">0.4</text>
<text x="693" y="263.0" text-anchor="start" class="lbl-r">0.6</text>
<text x="693" y="217.7" text-anchor="start" class="lbl-r">0.8</text>
<text x="693" y="172.3" text-anchor="start" class="lbl-r">1.0</text>
<line x1="70.0" y1="55" x2="70.0" y2="395" class="grid"/>
<text x="70.0" y="411" text-anchor="middle" class="lbl">0.0</text>
<line x1="172.8" y1="55" x2="172.8" y2="395" class="grid"/>
<text x="172.8" y="411" text-anchor="middle" class="lbl">8.4</text>
<line x1="275.7" y1="55" x2="275.7" y2="395" class="grid"/>
<text x="275.7" y="411" text-anchor="middle" class="lbl">16.9</text>
<line x1="378.5" y1="55" x2="378.5" y2="395" class="grid"/>
<text x="378.5" y="411" text-anchor="middle" class="lbl">25.3</text>
<line x1="481.3" y1="55" x2="481.3" y2="395" class="grid"/>
<text x="481.3" y="411" text-anchor="middle" class="lbl">33.8</text>
<line x1="584.2" y1="55" x2="584.2" y2="395" class="grid"/>
<text x="584.2" y="411" text-anchor="middle" class="lbl">42.2</text>
<line x1="687.0" y1="55" x2="687.0" y2="395" class="grid"/>
<text x="687.0" y="411" text-anchor="middle" class="lbl">50.7</text>
<text x="378.5" y="438" text-anchor="middle" class="lbl">radius (kpc)</text>
<text x="16" y="225" text-anchor="middle" class="lbl-l" transform="rotate(-90, 16, 225)">velocity (km/s)</text>
<text x="724" y="225" text-anchor="middle" class="lbl-r" transform="rotate(-90, 724, 225)">profiles (normalized to peak)</text>
<rect x="70" y="55" width="617" height="340" class="ax"/>
<path d="M 70.0,168.3 L 72.8,186.2 L 75.6,204.1 L 78.5,222.0 L 81.3,239.9 L 84.1,257.8 L 86.9,275.7 L 89.7,293.5 L 92.5,311.4 L 95.4,320.6 L 98.2,321.8 L 101.0,322.9 L 103.8,324.0 L 106.6,325.1 L 109.4,326.2 L 112.3,327.4 L 115.1,328.5 L 117.9,329.6 L 120.7,330.7 L 123.5,331.8 L 126.3,333.0 L 129.2,334.1 L 132.0,335.2 L 134.8,336.3 L 137.6,337.5 L 140.4,338.6 L 143.3,339.7 L 146.1,340.8 L 148.9,341.9 L 151.7,343.1 L 154.5,344.2 L 157.3,345.3 L 160.2,346.4 L 163.0,347.5 L 165.8,348.7 L 168.6,349.5 L 171.4,349.7 L 174.2,350.0 L 177.1,350.2 L 179.9,350.4 L 182.7,350.6 L 185.5,350.8 L 188.3,351.1 L 191.1,351.3 L 194.0,351.5 L 196.8,351.7 L 199.6,352.0 L 202.4,352.2 L 205.2,352.4 L 208.1,352.6 L 210.9,352.9 L 213.7,353.1 L 216.5,353.3 L 219.3,353.5 L 222.1,353.7 L 225.0,354.0 L 227.8,354.2 L 230.6,354.4 L 233.4,354.6 L 236.2,354.9 L 239.0,355.1 L 241.9,355.3 L 244.7,355.5 L 247.5,355.7 L 250.3,356.0 L 253.1,356.2 L 255.9,356.4 L 258.8,356.6 L 261.6,356.9 L 264.4,357.1 L 267.2,357.3 L 270.0,357.5 L 272.8,357.7 L 275.7,358.0 L 278.5,358.2 L 281.3,358.4 L 284.1,358.6 L 286.9,358.9 L 289.8,359.1 L 292.6,359.3 L 295.4,359.5 L 298.2,359.7 L 301.0,360.0 L 303.8,360.2 L 306.7,360.4 L 309.5,360.6 L 312.3,360.9 L 315.1,361.1 L 317.9,361.3 L 320.7,361.5 L 323.6,361.7 L 326.4,362.0 L 329.2,362.2 L 332.0,362.4 L 334.8,362.6 L 337.6,362.9 L 340.5,363.1 L 343.3,363.3 L 346.1,363.5 L 348.9,363.8 L 351.7,364.0 L 354.6,364.2 L 357.4,364.4 L 360.2,364.6 L 363.0,364.9 L 365.8,365.1 L 368.6,365.3 L 371.5,365.5 L 374.3,365.8 L 377.1,366.0 L 379.9,366.2 L 382.7,366.4 L 385.5,366.6 L 388.4,366.9 L 391.2,367.1 L 394.0,367.3 L 396.8,367.5 L 399.6,367.8 L 402.4,368.0 L 405.3,368.2 L 408.1,368.4 L 410.9,368.6 L 413.7,368.9 L 416.5,369.0 L 419.4,369.2 L 422.2,369.3 L 425.0,369.4 L 427.8,369.6 L 430.6,369.7 L 433.4,369.8 L 436.3,370.0 L 439.1,370.1 L 441.9,370.2 L 444.7,370.4 L 447.5,370.5 L 450.3,370.6 L 453.2,370.8 L 456.0,370.9 L 458.8,371.0 L 461.6,371.2 L 464.4,371.3 L 467.2,371.4 L 470.1,371.6 L 472.9,371.7 L 475.7,371.9 L 478.5,372.0 L 481.3,372.1 L 484.2,372.3 L 487.0,372.4 L 489.8,372.5 L 492.6,372.7 L 495.4,372.8 L 498.2,372.9 L 501.1,373.1 L 503.9,373.2 L 506.7,373.3 L 509.5,373.5 L 512.3,373.6 L 515.1,373.7 L 518.0,373.9 L 520.8,374.0 L 523.6,374.1 L 526.4,374.3 L 529.2,374.4 L 532.0,374.5 L 534.9,374.7 L 537.7,374.8 L 540.5,374.9 L 543.3,375.1 L 546.1,375.2 L 548.9,375.4 L 551.8,375.5 L 554.6,375.6 L 557.4,375.8 L 560.2,375.9 L 563.0,376.0 L 565.9,376.2 L 568.7,376.3 L 571.5,376.4 L 574.3,376.6 L 577.1,376.7 L 579.9,376.8 L 582.8,377.0 L 585.6,377.1 L 588.4,377.2 L 591.2,377.4 L 594.0,377.5 L 596.8,377.6 L 599.7,377.8 L 602.5,377.9 L 605.3,378.0 L 608.1,378.2 L 610.9,378.3 L 613.7,378.5 L 616.6,378.6 L 619.4,378.7 L 622.2,379.0 L 625.0,380.3 L 627.8,381.6 L 630.7,382.8 L 633.5,384.1 L 636.3,385.4 L 639.1,386.6 L 641.9,387.9 L 644.7,389.2 L 647.6,390.5 L 650.4,391.7 L 653.2,393.0 L 656.0,394.3 L 658.8,395.0 L 661.6,395.0 L 664.5,395.0 L 667.3,395.0 L 670.1,395.0 L 672.9,395.0 L 675.7,395.0 L 678.5,395.0 L 681.4,395.0 L 684.2,395.0 L 687.0,395.0" class="rho"/>
<path d="M 79.3,168.3 L 97.8,356.3 L 116.3,385.4 L 134.9,390.7 L 153.4,393.0 L 167.4,393.5 L 195.2,393.8 L 223.0,394.4 L 251.6,394.6 L 278.9,394.7 L 306.2,394.8 L 333.6,394.8 L 362.4,394.9 L 389.7,395.0 L 417.1,395.0 L 446.0,395.0 L 473.4,395.0 L 500.7,395.0 L 529.5,395.0 L 557.0,395.0 L 584.2,395.0 L 613.1,395.0" class="phot"/>
<path d="M 79.3,168.3 L 97.8,286.4 L 116.3,365.9 L 134.9,385.4 L 153.4,391.6 L 167.4,393.5 L 195.2,393.7 L 223.0,393.8 L 251.6,394.1 L 278.9,394.3 L 306.2,394.2 L 333.6,394.0 L 362.4,394.3 L 389.7,394.7 L 417.1,394.9 L 446.0,395.0 L 473.4,395.0 L 500.7,395.0 L 529.5,395.0 L 557.0,395.0 L 584.2,395.0 L 613.1,395.0" class="mbar"/>
<path d="M 79.3,286.8 L 97.8,214.3 L 116.3,168.3 L 134.9,174.3 L 153.4,199.4 L 167.4,224.7 L 195.2,245.6 L 223.0,264.6 L 251.6,281.4 L 278.9,293.0 L 306.2,298.3 L 333.6,301.2 L 362.4,309.2 L 389.7,321.2 L 417.1,332.0 L 446.0,339.4 L 473.4,344.1 L 500.7,348.1 L 529.5,351.0 L 557.0,353.0 L 584.2,355.0 L 613.1,356.5" class="mph"/>
<path d="M 76.2,305.4 L 82.3,276.8 L 88.5,261.5 L 94.7,255.0 L 100.8,250.2 L 107.0,244.4 L 113.2,238.4 L 119.4,232.5 L 125.5,226.8 L 131.7,221.5 L 137.9,216.5 L 144.0,211.9 L 150.2,207.7 L 156.4,203.9 L 162.6,200.4 L 168.7,197.2 L 174.9,194.2 L 181.1,191.1 L 187.2,188.0 L 193.4,185.0 L 199.6,181.9 L 205.7,178.9 L 211.9,176.0 L 218.1,173.1 L 224.3,170.2 L 230.4,167.4 L 236.6,164.7 L 242.8,162.0 L 248.9,159.4 L 255.1,156.8 L 261.3,154.3 L 267.4,151.9 L 273.6,149.5 L 279.8,147.2 L 285.9,144.9 L 292.1,142.7 L 298.3,140.6 L 304.5,138.5 L 310.6,136.5 L 316.8,134.5 L 323.0,132.6 L 329.1,130.7 L 335.3,129.0 L 341.5,127.2 L 347.7,125.5 L 353.8,123.9 L 360.0,122.3 L 366.2,120.8 L 372.3,119.3 L 378.5,117.8 L 384.7,116.5 L 390.8,115.1 L 397.0,113.8 L 403.2,112.6 L 409.3,111.4 L 415.5,110.3 L 421.7,109.2 L 427.9,108.1 L 434.0,107.0 L 440.2,106.0 L 446.4,105.0 L 452.5,104.0 L 458.7,103.0 L 464.9,102.0 L 471.1,101.1 L 477.2,100.2 L 483.4,99.3 L 489.6,98.4 L 495.7,97.6 L 501.9,96.8 L 508.1,96.0 L 514.2,95.2 L 520.4,94.4 L 526.6,93.7 L 532.8,93.0 L 538.9,92.3 L 545.1,91.6 L 551.3,91.0 L 557.4,90.4 L 563.6,89.8 L 569.8,89.2 L 575.9,88.7 L 582.1,88.2 L 588.3,87.7 L 594.4,87.2 L 600.6,86.8 L 606.8,86.3 L 613.0,85.9 L 619.1,85.5 L 625.3,85.2 L 631.5,85.2 L 637.6,85.6 L 643.8,86.2 L 650.0,87.3 L 656.2,88.6 L 662.3,90.2 L 668.5,91.8 L 674.7,93.3 L 680.8,94.9 L 687.0,96.4" class="nt"/>
<path d="M 79.3,91.3 L 97.8,86.6 L 116.3,95.9 L 134.9,109.8 L 153.4,120.1 L 167.4,128.1 L 195.2,133.5 L 223.0,135.7 L 251.6,137.8 L 278.9,138.6 L 306.2,137.9 L 333.6,133.7 L 362.4,131.4 L 389.7,131.8 L 417.1,133.6 L 446.0,136.3 L 473.4,138.0 L 500.7,140.1 L 529.5,141.7 L 557.0,142.9 L 584.2,143.9 L 613.1,144.8" class="mond"/>
<path d="M 75.1,285.1 L 80.3,214.4 L 85.4,159.1 L 90.6,126.6 L 95.7,115.3 L 100.8,115.7 L 106.0,119.6 L 111.1,122.3 L 116.3,122.3 L 121.4,120.5 L 126.6,117.7 L 131.7,114.4 L 136.8,111.3 L 142.0,108.6 L 147.1,106.6 L 152.3,105.7 L 157.4,106.2 L 162.6,108.2 L 167.7,111.6 L 172.8,115.4 L 178.0,119.2 L 183.1,122.2 L 188.3,124.5 L 193.4,126.0 L 198.5,127.0 L 203.7,127.6 L 208.8,127.9 L 214.0,127.9 L 219.1,127.7 L 224.3,127.4 L 229.4,126.9 L 234.5,126.3 L 239.7,125.7 L 244.8,124.9 L 250.0,124.2 L 255.1,123.4 L 260.2,122.6 L 265.4,121.7 L 270.5,120.9 L 275.7,120.1 L 280.8,119.4 L 285.9,118.6 L 291.1,117.9 L 296.2,117.3 L 301.4,116.7 L 306.5,116.1 L 311.7,115.7 L 316.8,115.2 L 321.9,114.9 L 327.1,114.6 L 332.2,114.4 L 337.4,114.2 L 342.5,114.2 L 347.7,114.2 L 352.8,114.4 L 357.9,114.6 L 363.1,115.0 L 368.2,115.4 L 373.4,116.0 L 378.5,116.7 L 383.6,117.6 L 388.8,118.7 L 393.9,120.0 L 399.1,121.4 L 404.2,123.2 L 409.3,125.2 L 414.5,127.3 L 419.6,129.5 L 424.8,131.6 L 429.9,133.5 L 435.1,135.3 L 440.2,136.9 L 445.3,138.4 L 450.5,139.8 L 455.6,141.0 L 460.8,142.3 L 465.9,143.4 L 471.1,144.5 L 476.2,145.5 L 481.3,146.5 L 486.5,147.5 L 491.6,148.5 L 496.8,149.4 L 501.9,150.3 L 507.0,151.1 L 512.2,151.9 L 517.3,152.8 L 522.5,153.5 L 527.6,154.3 L 532.8,155.0 L 537.9,155.7 L 543.0,156.3 L 548.2,156.8 L 553.3,157.3 L 558.5,157.7 L 563.6,158.0 L 568.7,158.1 L 573.9,158.1 L 579.0,157.8 L 584.2,157.2 L 589.3,156.3 L 594.5,154.9 L 599.6,152.9 L 604.7,150.4 L 609.9,147.4 L 615.0,144.3 L 620.2,141.8 L 625.3,140.7 L 630.4,141.9 L 635.6,145.5 L 640.7,151.5 L 645.9,159.3 L 651.0,168.1 L 656.2,177.2 L 661.3,185.8 L 666.4,193.9 L 671.6,201.0 L 676.7,207.3 L 681.9,212.9 L 687.0,218.0" class="fw"/>
<line x1="79.26" y1="117.43" x2="79.26" y2="157.44" class="err"/>
<line x1="76.26" y1="117.43" x2="82.26" y2="117.43" class="err"/>
<line x1="76.26" y1="157.44" x2="82.26" y2="157.44" class="err"/>
<circle cx="79.26" cy="137.43" r="2.5" class="obs"/>
<line x1="97.77" y1="114.93" x2="97.77" y2="139.93" class="err"/>
<line x1="94.77" y1="114.93" x2="100.77" y2="114.93" class="err"/>
<line x1="94.77" y1="139.93" x2="100.77" y2="139.93" class="err"/>
<circle cx="97.77" cy="127.43" r="2.5" class="obs"/>
<line x1="116.28" y1="107.42" x2="116.28" y2="127.43" class="err"/>
<line x1="113.28" y1="107.42" x2="119.28" y2="107.42" class="err"/>
<line x1="113.28" y1="127.43" x2="119.28" y2="127.43" class="err"/>
<circle cx="116.28" cy="117.43" r="2.5" class="obs"/>
<line x1="134.92" y1="104.92" x2="134.92" y2="124.93" class="err"/>
<line x1="131.92" y1="104.92" x2="137.92" y2="104.92" class="err"/>
<line x1="131.92" y1="124.93" x2="137.92" y2="124.93" class="err"/>
<circle cx="134.92" cy="114.93" r="2.5" class="obs"/>
<line x1="153.43" y1="103.67" x2="153.43" y2="123.68" class="err"/>
<line x1="150.43" y1="103.67" x2="156.43" y2="103.67" class="err"/>
<line x1="150.43" y1="123.68" x2="156.43" y2="123.68" class="err"/>
<circle cx="153.43" cy="113.67" r="2.5" class="obs"/>
<line x1="167.44" y1="109.92" x2="167.44" y2="124.93" class="err"/>
<line x1="164.44" y1="109.92" x2="170.44" y2="109.92" class="err"/>
<line x1="164.44" y1="124.93" x2="170.44" y2="124.93" class="err"/>
<circle cx="167.44" cy="117.43" r="2.5" class="obs"/>
<line x1="195.21" y1="116.18" x2="195.21" y2="123.68" class="err"/>
<line x1="192.21" y1="116.18" x2="198.21" y2="116.18" class="err"/>
<line x1="192.21" y1="123.68" x2="198.21" y2="123.68" class="err"/>
<circle cx="195.21" cy="119.93" r="2.5" class="obs"/>
<line x1="222.98" y1="119.93" x2="222.98" y2="124.93" class="err"/>
<line x1="219.98" y1="119.93" x2="225.98" y2="119.93" class="err"/>
<line x1="219.98" y1="124.93" x2="225.98" y2="124.93" class="err"/>
<circle cx="222.98" cy="122.43" r="2.5" class="obs"/>
<line x1="251.60" y1="118.68" x2="251.60" y2="123.68" class="err"/>
<line x1="248.60" y1="118.68" x2="254.60" y2="118.68" class="err"/>
<line x1="248.60" y1="123.68" x2="254.60" y2="123.68" class="err"/>
<circle cx="251.60" cy="121.18" r="2.5" class="obs"/>
<line x1="278.88" y1="121.18" x2="278.88" y2="126.18" class="err"/>
<line x1="275.88" y1="121.18" x2="281.88" y2="121.18" class="err"/>
<line x1="275.88" y1="126.18" x2="281.88" y2="126.18" class="err"/>
<circle cx="278.88" cy="123.68" r="2.5" class="obs"/>
<line x1="306.17" y1="119.93" x2="306.17" y2="124.93" class="err"/>
<line x1="303.17" y1="119.93" x2="309.17" y2="119.93" class="err"/>
<line x1="303.17" y1="124.93" x2="309.17" y2="124.93" class="err"/>
<circle cx="306.17" cy="122.43" r="2.5" class="obs"/>
<line x1="333.57" y1="117.43" x2="333.57" y2="122.43" class="err"/>
<line x1="330.57" y1="117.43" x2="336.57" y2="117.43" class="err"/>
<line x1="330.57" y1="122.43" x2="336.57" y2="122.43" class="err"/>
<circle cx="333.57" cy="119.93" r="2.5" class="obs"/>
<line x1="362.44" y1="114.93" x2="362.44" y2="119.93" class="err"/>
<line x1="359.44" y1="114.93" x2="365.44" y2="114.93" class="err"/>
<line x1="359.44" y1="119.93" x2="365.44" y2="119.93" class="err"/>
<circle cx="362.44" cy="117.43" r="2.5" class="obs"/>
<line x1="389.72" y1="118.68" x2="389.72" y2="126.18" class="err"/>
<line x1="386.72" y1="118.68" x2="392.72" y2="118.68" class="err"/>
<line x1="386.72" y1="126.18" x2="392.72" y2="126.18" class="err"/>
<circle cx="389.72" cy="122.43" r="2.5" class="obs"/>
<line x1="417.13" y1="119.93" x2="417.13" y2="127.43" class="err"/>
<line x1="414.13" y1="119.93" x2="420.13" y2="119.93" class="err"/>
<line x1="414.13" y1="127.43" x2="420.13" y2="127.43" class="err"/>
<circle cx="417.13" cy="123.68" r="2.5" class="obs"/>
<line x1="445.99" y1="132.43" x2="445.99" y2="139.93" class="err"/>
<line x1="442.99" y1="132.43" x2="448.99" y2="132.43" class="err"/>
<line x1="442.99" y1="139.93" x2="448.99" y2="139.93" class="err"/>
<circle cx="445.99" cy="136.18" r="2.5" class="obs"/>
<line x1="473.40" y1="142.43" x2="473.40" y2="149.93" class="err"/>
<line x1="470.40" y1="142.43" x2="476.40" y2="142.43" class="err"/>
<line x1="470.40" y1="149.93" x2="476.40" y2="149.93" class="err"/>
<circle cx="473.40" cy="146.18" r="2.5" class="obs"/>
<line x1="500.68" y1="152.44" x2="500.68" y2="159.94" class="err"/>
<line x1="497.68" y1="152.44" x2="503.68" y2="152.44" class="err"/>
<line x1="497.68" y1="159.94" x2="503.68" y2="159.94" class="err"/>
<circle cx="500.68" cy="156.19" r="2.5" class="obs"/>
<line x1="529.55" y1="149.93" x2="529.55" y2="157.44" class="err"/>
<line x1="526.55" y1="149.93" x2="532.55" y2="149.93" class="err"/>
<line x1="526.55" y1="157.44" x2="532.55" y2="157.44" class="err"/>
<circle cx="529.55" cy="153.69" r="2.5" class="obs"/>
<line x1="556.95" y1="151.18" x2="556.95" y2="158.69" class="err"/>
<line x1="553.95" y1="151.18" x2="559.95" y2="151.18" class="err"/>
<line x1="553.95" y1="158.69" x2="559.95" y2="158.69" class="err"/>
<circle cx="556.95" cy="154.94" r="2.5" class="obs"/>
<line x1="584.23" y1="147.43" x2="584.23" y2="157.44" class="err"/>
<line x1="581.23" y1="147.43" x2="587.23" y2="147.43" class="err"/>
<line x1="581.23" y1="157.44" x2="587.23" y2="157.44" class="err"/>
<circle cx="584.23" cy="152.44" r="2.5" class="obs"/>
<line x1="613.10" y1="143.68" x2="613.10" y2="156.19" class="err"/>
<line x1="610.10" y1="143.68" x2="616.10" y2="143.68" class="err"/>
<line x1="610.10" y1="156.19" x2="616.10" y2="156.19" class="err"/>
<circle cx="613.10" cy="149.93" r="2.5" class="obs"/>
<g class="legend">
<line x1="82" y1="69" x2="106" y2="69" class="fw"/>
<text x="112" y="73" class="lbl-l">framework: 16.1 km/s, 7.8%, 1.57σ</text>
<line x1="82" y1="87" x2="106" y2="87" class="nt"/>
<text x="112" y="91" class="lbl-l">Newtonian: 56.5 km/s, 26.8%, 11.57σ</text>
<line x1="82" y1="105" x2="106" y2="105" class="mond"/>
<text x="112" y="109" class="lbl-m">MOND/RAR: 14.1 km/s, 6.7%, 3.72σ</text>
<circle cx="94" cy="123" r="2.5" class="obs"/>
<text x="112" y="127" class="lbl">observed V±err</text>
</g>
<g class="legend">
<line x1="472" y1="69" x2="496" y2="69" class="rho"/>
<text x="502" y="73" class="lbl-r">ρ(r) raw</text>
<line x1="472" y1="87" x2="496" y2="87" class="phot"/>
<text x="502" y="91" class="lbl-p">photometric baryonic profile</text>
<line x1="472" y1="105" x2="496" y2="105" class="mbar"/>
<text x="502" y="109" class="lbl-m">MOND baryonic annulus</text>
<line x1="472" y1="123" x2="496" y2="123" class="mph"/>
<text x="502" y="127" class="lbl-m">MOND phantom annulus</text>
<text x="472" y="147" class="lbl-r">ρ peak: 848 M☉/pc²</text>
<text x="472" y="163" class="lbl-p">phot peak: 3614.38 (arb.)</text>
<text x="472" y="179" class="lbl-m">Σbar peak: 4599.74 M☉/pc²</text>
<text x="472" y="195" class="lbl-m">Σphantom peak: 179.07 M☉/pc²</text>
</g>
<rect x="775" y="55" width="170" height="170" class="preview-bg"/>
<defs><radialGradient id="g_NGC5033" cx="0.5" cy="0.5" r="0.5">
  <stop offset="0.0000" stop-color="rgb(255,255,255)"/>
  <stop offset="0.0313" stop-color="rgb(149,149,149)"/>
  <stop offset="0.0625" stop-color="rgb(108,108,108)"/>
  <stop offset="0.0938" stop-color="rgb(100,100,100)"/>
  <stop offset="0.1250" stop-color="rgb(93,93,93)"/>
  <stop offset="0.1563" stop-color="rgb(85,85,85)"/>
  <stop offset="0.1875" stop-color="rgb(82,82,82)"/>
  <stop offset="0.2188" stop-color="rgb(81,81,81)"/>
  <stop offset="0.2500" stop-color="rgb(79,79,79)"/>
  <stop offset="0.2813" stop-color="rgb(78,78,78)"/>
  <stop offset="0.3125" stop-color="rgb(76,76,76)"/>
  <stop offset="0.3438" stop-color="rgb(75,75,75)"/>
  <stop offset="0.3750" stop-color="rgb(73,73,73)"/>
  <stop offset="0.4063" stop-color="rgb(72,72,72)"/>
  <stop offset="0.4375" stop-color="rgb(70,70,70)"/>
  <stop offset="0.4688" stop-color="rgb(69,69,69)"/>
  <stop offset="0.5000" stop-color="rgb(67,67,67)"/>
  <stop offset="0.5313" stop-color="rgb(66,66,66)"/>
  <stop offset="0.5625" stop-color="rgb(64,64,64)"/>
  <stop offset="0.5938" stop-color="rgb(62,62,62)"/>
  <stop offset="0.6250" stop-color="rgb(60,60,60)"/>
  <stop offset="0.6563" stop-color="rgb(58,58,58)"/>
  <stop offset="0.6875" stop-color="rgb(55,55,55)"/>
  <stop offset="0.7188" stop-color="rgb(53,53,53)"/>
  <stop offset="0.7500" stop-color="rgb(51,51,51)"/>
  <stop offset="0.7813" stop-color="rgb(49,49,49)"/>
  <stop offset="0.8125" stop-color="rgb(47,47,47)"/>
  <stop offset="0.8438" stop-color="rgb(45,45,45)"/>
  <stop offset="0.8750" stop-color="rgb(43,43,43)"/>
  <stop offset="0.9063" stop-color="rgb(41,41,41)"/>
  <stop offset="0.9375" stop-color="rgb(39,39,39)"/>
  <stop offset="0.9688" stop-color="rgb(20,20,20)"/>
  <stop offset="1.0000" stop-color="rgb(0,0,0)"/>
</radialGradient></defs>
<circle cx="860" cy="140" r="81" fill="url(#g_NGC5033)"/>
<text x="860" y="49" text-anchor="middle" class="preview-lbl">face-on luminance from ρ(r)</text>
<text x="860" y="239" text-anchor="middle" class="preview-lbl">edge at r = 48.2 kpc</text>
</svg>