<svg xmlns="http://www.w3.org/2000/svg" viewBox="0 0 960 450" width="960" height="450" font-family="sans-serif" font-size="12">
<style>
  .ax { stroke: #333; stroke-width: 1; fill: none; }
  .grid { stroke: #ddd; stroke-width: 0.5; fill: none; }
  .lbl { fill: #333; }
  .lbl-l { fill: #0066cc; }
  .lbl-r { fill: #b03030; }
  .obs { fill: #222; }
  .err { stroke: #555; stroke-width: 0.8; fill: none; }
  .fw { stroke: #0066cc; stroke-width: 2.2; fill: none; }
  .nt { stroke: #cc6600; stroke-width: 1.6; fill: none; stroke-dasharray: 5,3; }
  .mond { stroke: #7b2cbf; stroke-width: 1.8; fill: none; stroke-dasharray: 7,3; }
  .lbl-p { fill: #cc7000; }
  .lbl-m { fill: #7b2cbf; }
  .rho { stroke: #b03030; stroke-width: 2.0; fill: none; }
  .phot { stroke: #cc7000; stroke-width: 1.8; fill: none; }
  .mbar { stroke: #8e44ad; stroke-width: 1.8; fill: none; opacity: 0.9; }
  .mph { stroke: #c77dff; stroke-width: 1.6; fill: none; stroke-dasharray: 4,3; opacity: 0.95; }
  .title { fill: #111; font-size: 16px; font-weight: 600; }
  .subtitle { fill: #555; font-size: 11px; }
  .preview-bg { fill: #000; }
  .preview-lbl { fill: #888; font-size: 10px; }
  .legend { font-size: 11px; }
</style>
<text x="378.5" y="22" text-anchor="middle" class="title">NGC5371</text>
<text x="378.5" y="38" text-anchor="middle" class="subtitle">rMax=46.2 kpc, N=19, FW=8.6 km/s, 4.0%, 2.27σ, MOND=44.1 km/s, 20.1%, 13.06σ, amp=212</text>
<line x1="70" y1="395.0" x2="687" y2="395.0" class="grid"/>
<text x="64" y="399.0" text-anchor="end" class="lbl-l">0</text>
<line x1="70" y1="327.0" x2="687" y2="327.0" class="grid"/>
<text x="64" y="331.0" text-anchor="end" class="lbl-l">64</text>
<line x1="70" y1="259.0" x2="687" y2="259.0" class="grid"/>
<text x="64" y="263.0" text-anchor="end" class="lbl-l">129</text>
<line x1="70" y1="191.0" x2="687" y2="191.0" class="grid"/>
<text x="64" y="195.0" text-anchor="end" class="lbl-l">193</text>
<line x1="70" y1="123.0" x2="687" y2="123.0" class="grid"/>
<text x="64" y="127.0" text-anchor="end" class="lbl-l">258</text>
<line x1="70" y1="55.0" x2="687" y2="55.0" class="grid"/>
<text x="64" y="59.0" text-anchor="end" class="lbl-l">322</text>
<text x="693" y="399.0" text-anchor="start" class="lbl-r">0.0</text>
<text x="693" y="353.7" text-anchor="start" class="lbl-r">0.2</text>
<text x="693" y="308.3" text-anchor="start" class="lbl-r">0.4</text>
<text x="693" y="263.0" text-anchor="start" class="lbl-r">0.6</text>
<text x="693" y="217.7" text-anchor="start" class="lbl-r">0.8</text>
<text x="693" y="172.3" text-anchor="start" class="lbl-r">1.0</text>
<line x1="70.0" y1="55" x2="70.0" y2="395" class="grid"/>
<text x="70.0" y="411" text-anchor="middle" class="lbl">0.0</text>
<line x1="172.8" y1="55" x2="172.8" y2="395" class="grid"/>
<text x="172.8" y="411" text-anchor="middle" class="lbl">8.7</text>
<line x1="275.7" y1="55" x2="275.7" y2="395" class="grid"/>
<text x="275.7" y="411" text-anchor="middle" class="lbl">17.5</text>
<line x1="378.5" y1="55" x2="378.5" y2="395" class="grid"/>
<text x="378.5" y="411" text-anchor="middle" class="lbl">26.2</text>
<line x1="481.3" y1="55" x2="481.3" y2="395" class="grid"/>
<text x="481.3" y="411" text-anchor="middle" class="lbl">35.0</text>
<line x1="584.2" y1="55" x2="584.2" y2="395" class="grid"/>
<text x="584.2" y="411" text-anchor="middle" class="lbl">43.7</text>
<line x1="687.0" y1="55" x2="687.0" y2="395" class="grid"/>
<text x="687.0" y="411" text-anchor="middle" class="lbl">52.4</text>
<text x="378.5" y="438" text-anchor="middle" class="lbl">radius (kpc)</text>
<text x="16" y="225" text-anchor="middle" class="lbl-l" transform="rotate(-90, 16, 225)">velocity (km/s)</text>
<text x="724" y="225" text-anchor="middle" class="lbl-r" transform="rotate(-90, 724, 225)">profiles (normalized to peak)</text>
<rect x="70" y="55" width="617" height="340" class="ax"/>
<path d="M 70.0,168.3 L 72.8,185.5 L 75.6,202.7 L 78.5,219.9 L 81.3,237.1 L 84.1,254.3 L 86.9,271.5 L 89.7,288.7 L 92.5,305.9 L 95.4,313.1 L 98.2,319.0 L 101.0,324.9 L 103.8,330.9 L 106.6,336.8 L 109.4,338.0 L 112.3,338.4 L 115.1,338.9 L 117.9,339.3 L 120.7,339.8 L 123.5,340.2 L 126.3,340.6 L 129.2,341.1 L 132.0,341.5 L 134.8,342.0 L 137.6,342.4 L 140.4,342.9 L 143.3,343.3 L 146.1,343.8 L 148.9,344.2 L 151.7,344.6 L 154.5,345.1 L 157.3,345.5 L 160.2,346.0 L 163.0,346.4 L 165.8,346.9 L 168.6,347.3 L 171.4,347.8 L 174.2,348.2 L 177.1,348.6 L 179.9,349.1 L 182.7,349.5 L 185.5,350.0 L 188.3,350.4 L 191.1,350.9 L 194.0,351.3 L 196.8,351.8 L 199.6,352.2 L 202.4,352.7 L 205.2,353.1 L 208.1,353.5 L 210.9,354.0 L 213.7,354.4 L 216.5,354.9 L 219.3,355.3 L 222.1,355.8 L 225.0,356.2 L 227.8,356.7 L 230.6,357.1 L 233.4,357.5 L 236.2,358.0 L 239.0,358.4 L 241.9,358.9 L 244.7,359.3 L 247.5,359.8 L 250.3,360.2 L 253.1,360.7 L 255.9,361.1 L 258.8,361.5 L 261.6,362.0 L 264.4,362.4 L 267.2,362.9 L 270.0,363.3 L 272.8,363.8 L 275.7,364.2 L 278.5,364.6 L 281.3,364.7 L 284.1,364.9 L 286.9,365.0 L 289.8,365.2 L 292.6,365.3 L 295.4,365.5 L 298.2,365.6 L 301.0,365.8 L 303.8,365.9 L 306.7,366.1 L 309.5,366.2 L 312.3,366.4 L 315.1,366.5 L 317.9,366.7 L 320.7,366.8 L 323.6,366.9 L 326.4,367.1 L 329.2,367.2 L 332.0,367.4 L 334.8,367.5 L 337.6,367.7 L 340.5,367.8 L 343.3,368.0 L 346.1,368.1 L 348.9,368.3 L 351.7,368.4 L 354.6,368.6 L 357.4,368.7 L 360.2,368.9 L 363.0,369.0 L 365.8,369.2 L 368.6,369.3 L 371.5,369.4 L 374.3,369.6 L 377.1,369.7 L 379.9,369.9 L 382.7,370.0 L 385.5,370.2 L 388.4,370.3 L 391.2,370.5 L 394.0,370.6 L 396.8,370.8 L 399.6,370.9 L 402.4,371.1 L 405.3,371.2 L 408.1,371.4 L 410.9,371.5 L 413.7,371.7 L 416.5,371.8 L 419.4,371.9 L 422.2,372.1 L 425.0,372.2 L 427.8,372.4 L 430.6,372.5 L 433.4,372.7 L 436.3,372.8 L 439.1,373.0 L 441.9,373.1 L 444.7,373.3 L 447.5,373.4 L 450.3,373.6 L 453.2,373.7 L 456.0,373.9 L 458.8,374.0 L 461.6,374.2 L 464.4,374.3 L 467.2,374.4 L 470.1,374.6 L 472.9,374.7 L 475.7,374.9 L 478.5,375.0 L 481.3,375.2 L 484.2,375.3 L 487.0,375.5 L 489.8,375.6 L 492.6,375.8 L 495.4,375.9 L 498.2,376.1 L 501.1,376.2 L 503.9,376.4 L 506.7,376.5 L 509.5,376.7 L 512.3,376.8 L 515.1,376.9 L 518.0,377.1 L 520.8,377.2 L 523.6,377.4 L 526.4,377.5 L 529.2,377.7 L 532.0,377.8 L 534.9,378.0 L 537.7,378.1 L 540.5,378.3 L 543.3,378.4 L 546.1,378.6 L 548.9,378.7 L 551.8,378.9 L 554.6,379.0 L 557.4,379.2 L 560.2,379.3 L 563.0,379.4 L 565.9,379.6 L 568.7,379.7 L 571.5,379.9 L 574.3,380.0 L 577.1,380.2 L 579.9,380.3 L 582.8,380.5 L 585.6,380.6 L 588.4,380.8 L 591.2,380.9 L 594.0,381.1 L 596.8,381.2 L 599.7,381.4 L 602.5,381.5 L 605.3,381.9 L 608.1,382.6 L 610.9,383.3 L 613.7,384.0 L 616.6,384.7 L 619.4,385.4 L 622.2,386.1 L 625.0,386.8 L 627.8,387.5 L 630.7,388.2 L 633.5,388.9 L 636.3,389.6 L 639.1,390.4 L 641.9,391.1 L 644.7,391.8 L 647.6,392.5 L 650.4,393.2 L 653.2,393.9 L 656.0,394.6 L 658.8,395.0 L 661.6,395.0 L 664.5,395.0 L 667.3,395.0 L 670.1,395.0 L 672.9,395.0 L 675.7,395.0 L 678.5,395.0 L 681.4,395.0 L 684.2,395.0 L 687.0,395.0" class="rho"/>
<path d="M 87.1,168.3 L 103.9,290.9 L 120.9,310.8 L 138.0,333.1 L 154.9,343.9 L 171.9,347.9 L 205.9,358.7 L 240.4,373.0 L 273.3,380.9 L 307.7,385.6 L 342.0,390.3 L 376.4,393.0 L 409.3,394.0 L 443.7,394.4 L 478.0,394.8 L 511.0,395.0 L 545.3,395.0 L 579.7,395.0 L 614.0,395.0" class="phot"/>
<path d="M 87.1,168.3 L 103.9,272.3 L 120.9,335.1 L 138.0,348.5 L 154.9,357.1 L 171.9,357.8 L 205.9,355.4 L 240.4,361.4 L 273.3,372.1 L 307.7,378.9 L 342.0,385.5 L 376.4,392.5 L 409.3,395.0 L 443.7,395.0 L 478.0,395.0 L 511.0,395.0 L 545.3,395.0 L 579.7,395.0 L 614.0,395.0" class="mbar"/>
<path d="M 87.1,179.1 L 103.9,168.3 L 120.9,171.4 L 138.0,183.9 L 154.9,193.9 L 171.9,197.6 L 205.9,197.9 L 240.4,206.2 L 273.3,221.2 L 307.7,234.6 L 342.0,252.7 L 376.4,276.9 L 409.3,296.0 L 443.7,306.6 L 478.0,316.3 L 511.0,327.3 L 545.3,333.5 L 579.7,336.2 L 614.0,338.2" class="mph"/>
<path d="M 76.2,309.2 L 82.3,281.4 L 88.5,266.2 L 94.7,258.9 L 100.8,254.1 L 107.0,250.7 L 113.2,247.7 L 119.4,243.9 L 125.5,239.8 L 131.7,235.5 L 137.9,231.2 L 144.0,227.0 L 150.2,222.8 L 156.4,218.8 L 162.6,214.8 L 168.7,211.0 L 174.9,207.4 L 181.1,203.9 L 187.2,200.5 L 193.4,197.3 L 199.6,194.2 L 205.7,191.3 L 211.9,188.5 L 218.1,185.8 L 224.3,183.3 L 230.4,180.8 L 236.6,178.5 L 242.8,176.4 L 248.9,174.3 L 255.1,172.4 L 261.3,170.6 L 267.4,168.9 L 273.6,167.3 L 279.8,165.8 L 286.0,164.3 L 292.1,162.9 L 298.3,161.4 L 304.5,160.0 L 310.6,158.6 L 316.8,157.2 L 323.0,155.8 L 329.1,154.4 L 335.3,153.1 L 341.5,151.7 L 347.6,150.4 L 353.8,149.2 L 360.0,147.9 L 366.2,146.7 L 372.3,145.5 L 378.5,144.3 L 384.7,143.2 L 390.8,142.0 L 397.0,140.9 L 403.2,139.9 L 409.4,138.8 L 415.5,137.8 L 421.7,136.8 L 427.9,135.8 L 434.0,134.9 L 440.2,134.0 L 446.4,133.1 L 452.5,132.2 L 458.7,131.4 L 464.9,130.6 L 471.1,129.8 L 477.2,129.0 L 483.4,128.3 L 489.6,127.6 L 495.7,127.0 L 501.9,126.3 L 508.1,125.7 L 514.2,125.1 L 520.4,124.5 L 526.6,124.0 L 532.8,123.5 L 538.9,123.0 L 545.1,122.6 L 551.3,122.1 L 557.4,121.7 L 563.6,121.3 L 569.8,121.0 L 575.9,120.7 L 582.1,120.4 L 588.3,120.1 L 594.4,119.9 L 600.6,119.6 L 606.8,119.5 L 613.0,119.4 L 619.1,119.6 L 625.3,120.0 L 631.5,120.5 L 637.6,121.2 L 643.8,122.1 L 650.0,123.2 L 656.1,124.5 L 662.3,125.9 L 668.5,127.3 L 674.7,128.7 L 680.8,130.1 L 687.0,131.4" class="nt"/>
<path d="M 87.1,205.8 L 103.9,200.7 L 120.9,189.6 L 138.0,176.5 L 154.9,168.7 L 171.9,157.6 L 205.9,127.6 L 240.4,104.6 L 273.3,97.6 L 307.7,88.9 L 342.0,85.9 L 376.4,91.4 L 409.3,98.2 L 443.7,103.5 L 478.0,107.3 L 511.0,113.4 L 545.3,117.7 L 579.7,121.0 L 614.0,123.4" class="mond"/>
<path d="M 75.1,302.6 L 80.3,242.5 L 85.4,194.0 L 90.6,163.3 L 95.7,150.0 L 100.8,147.8 L 106.0,152.1 L 111.1,159.2 L 116.3,166.2 L 121.4,171.7 L 126.6,175.2 L 131.7,176.8 L 136.8,177.2 L 142.0,176.5 L 147.1,175.2 L 152.3,173.2 L 157.4,171.0 L 162.6,168.4 L 167.7,165.6 L 172.8,162.8 L 178.0,159.9 L 183.1,157.0 L 188.3,154.2 L 193.4,151.4 L 198.5,148.8 L 203.7,146.3 L 208.8,143.9 L 214.0,141.7 L 219.1,139.7 L 224.3,137.9 L 229.4,136.4 L 234.5,135.1 L 239.7,134.1 L 244.8,133.4 L 250.0,133.0 L 255.1,132.9 L 260.2,133.4 L 265.4,134.3 L 270.5,135.7 L 275.7,137.6 L 280.8,139.8 L 286.0,142.0 L 291.1,143.8 L 296.2,145.5 L 301.4,146.8 L 306.5,147.9 L 311.7,148.8 L 316.8,149.6 L 321.9,150.3 L 327.1,150.9 L 332.2,151.4 L 337.4,151.8 L 342.5,152.2 L 347.6,152.6 L 352.8,152.9 L 357.9,153.2 L 363.1,153.5 L 368.2,153.8 L 373.4,154.0 L 378.5,154.3 L 383.6,154.5 L 388.8,154.8 L 393.9,155.0 L 399.1,155.3 L 404.2,155.6 L 409.4,155.8 L 414.5,156.1 L 419.6,156.4 L 424.8,156.7 L 429.9,157.1 L 435.1,157.4 L 440.2,157.8 L 445.3,158.2 L 450.5,158.6 L 455.6,159.0 L 460.8,159.4 L 465.9,159.9 L 471.1,160.4 L 476.2,160.8 L 481.3,161.4 L 486.5,161.9 L 491.6,162.4 L 496.8,163.0 L 501.9,163.6 L 507.0,164.2 L 512.2,164.7 L 517.3,165.3 L 522.5,165.9 L 527.6,166.5 L 532.8,167.1 L 537.9,167.7 L 543.0,168.3 L 548.2,168.8 L 553.3,169.3 L 558.5,169.7 L 563.6,170.1 L 568.7,170.3 L 573.9,170.4 L 579.0,170.3 L 584.2,170.0 L 589.3,169.6 L 594.4,168.9 L 599.6,168.3 L 604.7,168.0 L 609.9,168.2 L 615.0,169.4 L 620.2,171.5 L 625.3,174.7 L 630.4,178.6 L 635.6,183.3 L 640.7,188.5 L 645.9,193.8 L 651.0,199.2 L 656.2,204.5 L 661.3,209.4 L 666.4,214.0 L 671.6,218.2 L 676.7,222.1 L 681.9,225.6 L 687.0,228.8" class="fw"/>
<line x1="87.06" y1="156.63" x2="87.06" y2="177.73" class="err"/>
<line x1="84.06" y1="156.63" x2="90.06" y2="156.63" class="err"/>
<line x1="84.06" y1="177.73" x2="90.06" y2="177.73" class="err"/>
<circle cx="87.06" cy="167.18" r="2.5" class="obs"/>
<line x1="103.89" y1="160.85" x2="103.89" y2="175.62" class="err"/>
<line x1="100.89" y1="160.85" x2="106.89" y2="160.85" class="err"/>
<line x1="100.89" y1="175.62" x2="106.89" y2="175.62" class="err"/>
<circle cx="103.89" cy="168.24" r="2.5" class="obs"/>
<line x1="120.95" y1="162.96" x2="120.95" y2="173.51" class="err"/>
<line x1="117.95" y1="162.96" x2="123.95" y2="162.96" class="err"/>
<line x1="117.95" y1="173.51" x2="123.95" y2="173.51" class="err"/>
<circle cx="120.95" cy="168.24" r="2.5" class="obs"/>
<line x1="138.01" y1="165.07" x2="138.01" y2="173.51" class="err"/>
<line x1="135.01" y1="165.07" x2="141.01" y2="165.07" class="err"/>
<line x1="135.01" y1="173.51" x2="141.01" y2="173.51" class="err"/>
<circle cx="138.01" cy="169.29" r="2.5" class="obs"/>
<line x1="154.95" y1="164.02" x2="154.95" y2="172.45" class="err"/>
<line x1="151.95" y1="164.02" x2="157.95" y2="164.02" class="err"/>
<line x1="151.95" y1="172.45" x2="157.95" y2="172.45" class="err"/>
<circle cx="154.95" cy="168.24" r="2.5" class="obs"/>
<line x1="171.89" y1="158.74" x2="171.89" y2="165.07" class="err"/>
<line x1="168.89" y1="158.74" x2="174.89" y2="158.74" class="err"/>
<line x1="168.89" y1="165.07" x2="174.89" y2="165.07" class="err"/>
<circle cx="171.89" cy="161.91" r="2.5" class="obs"/>
<line x1="205.89" y1="146.09" x2="205.89" y2="152.42" class="err"/>
<line x1="202.89" y1="146.09" x2="208.89" y2="146.09" class="err"/>
<line x1="202.89" y1="152.42" x2="208.89" y2="152.42" class="err"/>
<circle cx="205.89" cy="149.25" r="2.5" class="obs"/>
<line x1="240.37" y1="141.87" x2="240.37" y2="148.20" class="err"/>
<line x1="237.37" y1="141.87" x2="243.37" y2="141.87" class="err"/>
<line x1="237.37" y1="148.20" x2="243.37" y2="148.20" class="err"/>
<circle cx="240.37" cy="145.03" r="2.5" class="obs"/>
<line x1="273.31" y1="136.59" x2="273.31" y2="142.92" class="err"/>
<line x1="270.31" y1="136.59" x2="276.31" y2="136.59" class="err"/>
<line x1="270.31" y1="142.92" x2="276.31" y2="142.92" class="err"/>
<circle cx="273.31" cy="139.76" r="2.5" class="obs"/>
<line x1="307.67" y1="137.65" x2="307.67" y2="143.98" class="err"/>
<line x1="304.67" y1="137.65" x2="310.67" y2="137.65" class="err"/>
<line x1="304.67" y1="143.98" x2="310.67" y2="143.98" class="err"/>
<circle cx="307.67" cy="140.81" r="2.5" class="obs"/>
<line x1="342.02" y1="138.70" x2="342.02" y2="145.03" class="err"/>
<line x1="339.02" y1="138.70" x2="345.02" y2="138.70" class="err"/>
<line x1="339.02" y1="145.03" x2="345.02" y2="145.03" class="err"/>
<circle cx="342.02" cy="141.87" r="2.5" class="obs"/>
<line x1="376.38" y1="145.03" x2="376.38" y2="151.36" class="err"/>
<line x1="373.38" y1="145.03" x2="379.38" y2="145.03" class="err"/>
<line x1="373.38" y1="151.36" x2="379.38" y2="151.36" class="err"/>
<circle cx="376.38" cy="148.20" r="2.5" class="obs"/>
<line x1="409.32" y1="153.47" x2="409.32" y2="159.80" class="err"/>
<line x1="406.32" y1="153.47" x2="412.32" y2="153.47" class="err"/>
<line x1="406.32" y1="159.80" x2="412.32" y2="159.80" class="err"/>
<circle cx="409.32" cy="156.63" r="2.5" class="obs"/>
<line x1="443.68" y1="167.18" x2="443.68" y2="173.51" class="err"/>
<line x1="440.68" y1="167.18" x2="446.68" y2="167.18" class="err"/>
<line x1="440.68" y1="173.51" x2="446.68" y2="173.51" class="err"/>
<circle cx="443.68" cy="170.35" r="2.5" class="obs"/>
<line x1="478.03" y1="173.51" x2="478.03" y2="179.84" class="err"/>
<line x1="475.03" y1="173.51" x2="481.03" y2="173.51" class="err"/>
<line x1="475.03" y1="179.84" x2="481.03" y2="179.84" class="err"/>
<circle cx="478.03" cy="176.67" r="2.5" class="obs"/>
<line x1="510.98" y1="171.40" x2="510.98" y2="179.84" class="err"/>
<line x1="507.98" y1="171.40" x2="513.98" y2="171.40" class="err"/>
<line x1="507.98" y1="179.84" x2="513.98" y2="179.84" class="err"/>
<circle cx="510.98" cy="175.62" r="2.5" class="obs"/>
<line x1="545.33" y1="170.35" x2="545.33" y2="178.78" class="err"/>
<line x1="542.33" y1="170.35" x2="548.33" y2="170.35" class="err"/>
<line x1="542.33" y1="178.78" x2="548.33" y2="178.78" class="err"/>
<circle cx="545.33" cy="174.56" r="2.5" class="obs"/>
<line x1="579.69" y1="172.45" x2="579.69" y2="180.89" class="err"/>
<line x1="576.69" y1="172.45" x2="582.69" y2="172.45" class="err"/>
<line x1="576.69" y1="180.89" x2="582.69" y2="180.89" class="err"/>
<circle cx="579.69" cy="176.67" r="2.5" class="obs"/>
<line x1="614.05" y1="164.02" x2="614.05" y2="176.67" class="err"/>
<line x1="611.05" y1="164.02" x2="617.05" y2="164.02" class="err"/>
<line x1="611.05" y1="176.67" x2="617.05" y2="176.67" class="err"/>
<circle cx="614.05" cy="170.35" r="2.5" class="obs"/>
<g class="legend">
<line x1="82" y1="69" x2="106" y2="69" class="fw"/>
<text x="112" y="73" class="lbl-l">framework: 8.6 km/s, 4.0%, 2.27σ</text>
<line x1="82" y1="87" x2="106" y2="87" class="nt"/>
<text x="112" y="91" class="lbl-l">Newtonian: 48.9 km/s, 22.7%, 11.10σ</text>
<line x1="82" y1="105" x2="106" y2="105" class="mond"/>
<text x="112" y="109" class="lbl-m">MOND/RAR: 44.1 km/s, 20.1%, 13.06σ</text>
<circle cx="94" cy="123" r="2.5" class="obs"/>
<text x="112" y="127" class="lbl">observed V±err</text>
</g>
<g class="legend">
<line x1="472" y1="69" x2="496" y2="69" class="rho"/>
<text x="502" y="73" class="lbl-r">ρ(r) raw</text>
<line x1="472" y1="87" x2="496" y2="87" class="phot"/>
<text x="502" y="91" class="lbl-p">photometric baryonic profile</text>
<line x1="472" y1="105" x2="496" y2="105" class="mbar"/>
<text x="502" y="109" class="lbl-m">MOND baryonic annulus</text>
<line x1="472" y1="123" x2="496" y2="123" class="mph"/>
<text x="502" y="127" class="lbl-m">MOND phantom annulus</text>
<text x="472" y="147" class="lbl-r">ρ peak: 1051 M☉/pc²</text>
<text x="472" y="163" class="lbl-p">phot peak: 789.73 (arb.)</text>
<text x="472" y="179" class="lbl-m">Σbar peak: 1217.75 M☉/pc²</text>
<text x="472" y="195" class="lbl-m">Σphantom peak: 174.52 M☉/pc²</text>
</g>
<rect x="775" y="55" width="170" height="170" class="preview-bg"/>
<defs><radialGradient id="g_NGC5371" cx="0.5" cy="0.5" r="0.5">
  <stop offset="0.0000" stop-color="rgb(255,255,255)"/>
  <stop offset="0.0313" stop-color="rgb(182,182,182)"/>
  <stop offset="0.0625" stop-color="rgb(110,110,110)"/>
  <stop offset="0.0938" stop-color="rgb(106,106,106)"/>
  <stop offset="0.1250" stop-color="rgb(102,102,102)"/>
  <stop offset="0.1563" stop-color="rgb(98,98,98)"/>
  <stop offset="0.1875" stop-color="rgb(95,95,95)"/>
  <stop offset="0.2188" stop-color="rgb(91,91,91)"/>
  <stop offset="0.2500" stop-color="rgb(87,87,87)"/>
  <stop offset="0.2813" stop-color="rgb(84,84,84)"/>
  <stop offset="0.3125" stop-color="rgb(80,80,80)"/>
  <stop offset="0.3438" stop-color="rgb(76,76,76)"/>
  <stop offset="0.3750" stop-color="rgb(74,74,74)"/>
  <stop offset="0.4063" stop-color="rgb(73,73,73)"/>
  <stop offset="0.4375" stop-color="rgb(72,72,72)"/>
  <stop offset="0.4688" stop-color="rgb(71,71,71)"/>
  <stop offset="0.5000" stop-color="rgb(69,69,69)"/>
  <stop offset="0.5313" stop-color="rgb(68,68,68)"/>
  <stop offset="0.5625" stop-color="rgb(67,67,67)"/>
  <stop offset="0.5938" stop-color="rgb(66,66,66)"/>
  <stop offset="0.6250" stop-color="rgb(64,64,64)"/>
  <stop offset="0.6563" stop-color="rgb(63,63,63)"/>
  <stop offset="0.6875" stop-color="rgb(60,60,60)"/>
  <stop offset="0.7188" stop-color="rgb(57,57,57)"/>
  <stop offset="0.7500" stop-color="rgb(54,54,54)"/>
  <stop offset="0.7813" stop-color="rgb(51,51,51)"/>
  <stop offset="0.8125" stop-color="rgb(48,48,48)"/>
  <stop offset="0.8438" stop-color="rgb(46,46,46)"/>
  <stop offset="0.8750" stop-color="rgb(43,43,43)"/>
  <stop offset="0.9063" stop-color="rgb(40,40,40)"/>
  <stop offset="0.9375" stop-color="rgb(27,27,27)"/>
  <stop offset="0.9688" stop-color="rgb(14,14,14)"/>
  <stop offset="1.0000" stop-color="rgb(0,0,0)"/>
</radialGradient></defs>
<circle cx="860" cy="140" r="81" fill="url(#g_NGC5371)"/>
<text x="860" y="49" text-anchor="middle" class="preview-lbl">face-on luminance from ρ(r)</text>
<text x="860" y="239" text-anchor="middle" class="preview-lbl">edge at r = 49.9 kpc</text>
</svg>