<svg xmlns="http://www.w3.org/2000/svg" viewBox="0 0 960 450" width="960" height="450" font-family="sans-serif" font-size="12">
<style>
  .ax { stroke: #333; stroke-width: 1; fill: none; }
  .grid { stroke: #ddd; stroke-width: 0.5; fill: none; }
  .lbl { fill: #333; }
  .lbl-l { fill: #0066cc; }
  .lbl-r { fill: #b03030; }
  .obs { fill: #222; }
  .err { stroke: #555; stroke-width: 0.8; fill: none; }
  .fw { stroke: #0066cc; stroke-width: 2.2; fill: none; }
  .nt { stroke: #cc6600; stroke-width: 1.6; fill: none; stroke-dasharray: 5,3; }
  .mond { stroke: #7b2cbf; stroke-width: 1.8; fill: none; stroke-dasharray: 7,3; }
  .lbl-p { fill: #cc7000; }
  .lbl-m { fill: #7b2cbf; }
  .rho { stroke: #b03030; stroke-width: 2.0; fill: none; }
  .phot { stroke: #cc7000; stroke-width: 1.8; fill: none; }
  .mbar { stroke: #8e44ad; stroke-width: 1.8; fill: none; opacity: 0.9; }
  .mph { stroke: #c77dff; stroke-width: 1.6; fill: none; stroke-dasharray: 4,3; opacity: 0.95; }
  .title { fill: #111; font-size: 16px; font-weight: 600; }
  .subtitle { fill: #555; font-size: 11px; }
  .preview-bg { fill: #000; }
  .preview-lbl { fill: #888; font-size: 10px; }
  .legend { font-size: 11px; }
</style>
<text x="378.5" y="22" text-anchor="middle" class="title">NGC5005</text>
<text x="378.5" y="38" text-anchor="middle" class="subtitle">rMax=11.5 kpc, N=18, FW=11.7 km/s, 5.3%, 0.44σ, MOND=10.9 km/s, 4.6%, 0.74σ, amp=405</text>
<line x1="70" y1="395.0" x2="687" y2="395.0" class="grid"/>
<text x="64" y="399.0" text-anchor="end" class="lbl-l">0</text>
<line x1="70" y1="327.0" x2="687" y2="327.0" class="grid"/>
<text x="64" y="331.0" text-anchor="end" class="lbl-l">74</text>
<line x1="70" y1="259.0" x2="687" y2="259.0" class="grid"/>
<text x="64" y="263.0" text-anchor="end" class="lbl-l">148</text>
<line x1="70" y1="191.0" x2="687" y2="191.0" class="grid"/>
<text x="64" y="195.0" text-anchor="end" class="lbl-l">223</text>
<line x1="70" y1="123.0" x2="687" y2="123.0" class="grid"/>
<text x="64" y="127.0" text-anchor="end" class="lbl-l">297</text>
<line x1="70" y1="55.0" x2="687" y2="55.0" class="grid"/>
<text x="64" y="59.0" text-anchor="end" class="lbl-l">371</text>
<text x="693" y="399.0" text-anchor="start" class="lbl-r">0.0</text>
<text x="693" y="353.7" text-anchor="start" class="lbl-r">0.2</text>
<text x="693" y="308.3" text-anchor="start" class="lbl-r">0.4</text>
<text x="693" y="263.0" text-anchor="start" class="lbl-r">0.6</text>
<text x="693" y="217.7" text-anchor="start" class="lbl-r">0.8</text>
<text x="693" y="172.3" text-anchor="start" class="lbl-r">1.0</text>
<line x1="70.0" y1="55" x2="70.0" y2="395" class="grid"/>
<text x="70.0" y="411" text-anchor="middle" class="lbl">0.0</text>
<line x1="172.8" y1="55" x2="172.8" y2="395" class="grid"/>
<text x="172.8" y="411" text-anchor="middle" class="lbl">2.8</text>
<line x1="275.7" y1="55" x2="275.7" y2="395" class="grid"/>
<text x="275.7" y="411" text-anchor="middle" class="lbl">5.6</text>
<line x1="378.5" y1="55" x2="378.5" y2="395" class="grid"/>
<text x="378.5" y="411" text-anchor="middle" class="lbl">8.4</text>
<line x1="481.3" y1="55" x2="481.3" y2="395" class="grid"/>
<text x="481.3" y="411" text-anchor="middle" class="lbl">11.2</text>
<line x1="584.2" y1="55" x2="584.2" y2="395" class="grid"/>
<text x="584.2" y="411" text-anchor="middle" class="lbl">14.0</text>
<line x1="687.0" y1="55" x2="687.0" y2="395" class="grid"/>
<text x="687.0" y="411" text-anchor="middle" class="lbl">16.8</text>
<text x="378.5" y="438" text-anchor="middle" class="lbl">radius (kpc)</text>
<text x="16" y="225" text-anchor="middle" class="lbl-l" transform="rotate(-90, 16, 225)">velocity (km/s)</text>
<text x="724" y="225" text-anchor="middle" class="lbl-r" transform="rotate(-90, 724, 225)">profiles (normalized to peak)</text>
<rect x="70" y="55" width="617" height="340" class="ax"/>
<path d="M 70.0,168.3 L 72.8,185.9 L 75.6,203.4 L 78.5,220.9 L 81.3,238.4 L 84.1,255.9 L 86.9,273.5 L 89.7,291.0 L 92.5,308.5 L 95.4,326.0 L 98.2,331.5 L 101.0,331.5 L 103.8,331.5 L 106.6,331.5 L 109.4,331.5 L 112.3,331.5 L 115.1,331.5 L 117.9,331.5 L 120.7,331.7 L 123.5,332.3 L 126.3,332.9 L 129.2,333.4 L 132.0,334.0 L 134.8,334.6 L 137.6,335.2 L 140.4,335.8 L 143.3,336.4 L 146.1,337.0 L 148.9,337.6 L 151.7,338.2 L 154.5,338.8 L 157.3,339.4 L 160.2,340.0 L 163.0,340.6 L 165.8,341.2 L 168.6,341.7 L 171.4,342.3 L 174.2,342.9 L 177.1,343.5 L 179.9,344.1 L 182.7,344.7 L 185.5,345.3 L 188.3,345.9 L 191.1,346.5 L 194.0,347.1 L 196.8,347.7 L 199.6,348.3 L 202.4,348.9 L 205.2,349.4 L 208.1,350.0 L 210.9,350.6 L 213.7,351.2 L 216.5,351.8 L 219.3,352.4 L 222.1,352.8 L 225.0,353.0 L 227.8,353.2 L 230.6,353.4 L 233.4,353.6 L 236.2,353.8 L 239.0,354.1 L 241.9,354.3 L 244.7,354.5 L 247.5,354.7 L 250.3,354.9 L 253.1,355.1 L 255.9,355.3 L 258.8,355.5 L 261.6,355.7 L 264.4,355.9 L 267.2,356.1 L 270.0,356.3 L 272.8,356.5 L 275.7,356.7 L 278.5,356.9 L 281.3,357.1 L 284.1,357.3 L 286.9,357.5 L 289.8,357.7 L 292.6,357.9 L 295.4,358.1 L 298.2,358.4 L 301.0,358.6 L 303.8,358.8 L 306.7,359.0 L 309.5,359.2 L 312.3,359.4 L 315.1,359.6 L 317.9,359.8 L 320.7,360.0 L 323.6,360.2 L 326.4,360.4 L 329.2,360.6 L 332.0,360.8 L 334.8,361.0 L 337.6,361.2 L 340.5,361.4 L 343.3,361.6 L 346.1,361.8 L 348.9,362.0 L 351.7,362.2 L 354.6,362.4 L 357.4,362.6 L 360.2,362.9 L 363.0,363.1 L 365.8,363.3 L 368.6,363.5 L 371.5,363.7 L 374.3,363.9 L 377.1,364.1 L 379.9,364.3 L 382.7,364.5 L 385.5,364.7 L 388.4,364.9 L 391.2,365.1 L 394.0,365.3 L 396.8,365.5 L 399.6,365.7 L 402.4,365.9 L 405.3,366.1 L 408.1,366.3 L 410.9,366.5 L 413.7,366.7 L 416.5,366.9 L 419.4,367.1 L 422.2,367.4 L 425.0,367.6 L 427.8,367.8 L 430.6,368.0 L 433.4,368.2 L 436.3,368.4 L 439.1,368.6 L 441.9,368.8 L 444.7,369.0 L 447.5,369.2 L 450.3,369.4 L 453.2,369.6 L 456.0,369.8 L 458.8,370.0 L 461.6,370.2 L 464.4,370.4 L 467.2,370.6 L 470.1,370.8 L 472.9,371.0 L 475.7,371.2 L 478.5,371.4 L 481.3,371.6 L 484.2,371.9 L 487.0,372.1 L 489.8,372.3 L 492.6,372.5 L 495.4,372.7 L 498.2,372.9 L 501.1,373.1 L 503.9,373.3 L 506.7,373.5 L 509.5,373.7 L 512.3,373.9 L 515.1,374.1 L 518.0,374.3 L 520.8,374.5 L 523.6,374.7 L 526.4,374.9 L 529.2,375.1 L 532.0,375.3 L 534.9,375.5 L 537.7,375.7 L 540.5,375.9 L 543.3,376.2 L 546.1,376.7 L 548.9,377.2 L 551.8,377.6 L 554.6,378.1 L 557.4,378.5 L 560.2,379.0 L 563.0,379.5 L 565.9,379.9 L 568.7,380.4 L 571.5,380.9 L 574.3,381.3 L 577.1,381.8 L 579.9,382.2 L 582.8,382.7 L 585.6,383.2 L 588.4,383.6 L 591.2,384.1 L 594.0,384.6 L 596.8,385.0 L 599.7,385.5 L 602.5,385.9 L 605.3,386.4 L 608.1,386.9 L 610.9,387.3 L 613.7,387.8 L 616.6,388.3 L 619.4,388.7 L 622.2,389.2 L 625.0,389.6 L 627.8,390.1 L 630.7,390.6 L 633.5,391.0 L 636.3,391.5 L 639.1,392.0 L 641.9,392.4 L 644.7,392.9 L 647.6,393.3 L 650.4,393.8 L 653.2,394.3 L 656.0,394.7 L 658.8,395.0 L 661.6,395.0 L 664.5,395.0 L 667.3,395.0 L 670.1,395.0 L 672.9,395.0 L 675.7,395.0 L 678.5,395.0 L 681.4,395.0 L 684.2,395.0 L 687.0,395.0" class="rho"/>
<path d="M 88.0,168.3 L 105.9,334.9 L 123.9,365.3 L 142.3,370.6 L 160.2,375.5 L 178.2,380.6 L 196.2,384.2 L 214.1,387.0 L 232.1,388.0 L 250.4,389.0 L 280.5,390.2 L 310.6,391.5 L 340.3,392.4 L 370.4,392.9 L 400.4,393.5 L 430.5,394.0 L 460.6,394.4 L 490.7,394.6" class="phot"/>
<path d="M 88.0,168.3 L 105.9,237.0 L 123.9,315.1 L 142.3,352.4 L 160.2,359.0 L 178.2,361.8 L 196.2,368.1 L 214.1,376.2 L 232.1,381.3 L 250.4,382.5 L 280.5,383.4 L 310.6,385.3 L 340.3,387.5 L 370.4,388.7 L 400.4,389.6 L 430.5,391.5 L 460.6,393.6 L 490.7,394.7" class="mbar"/>
<path d="M 88.0,328.7 L 105.9,290.9 L 123.9,234.0 L 142.3,195.0 L 160.2,182.8 L 178.2,179.1 L 196.2,174.0 L 214.1,168.9 L 232.1,168.3 L 250.4,172.2 L 280.5,177.5 L 310.6,183.6 L 340.3,190.6 L 370.4,197.4 L 400.4,204.8 L 430.5,214.9 L 460.6,227.7 L 490.7,237.8" class="mph"/>
<path d="M 76.2,303.8 L 82.3,274.6 L 88.5,258.7 L 94.7,251.6 L 100.8,249.2 L 107.0,245.0 L 113.2,239.5 L 119.4,233.6 L 125.5,227.4 L 131.7,221.5 L 137.9,215.7 L 144.0,210.2 L 150.2,205.0 L 156.4,200.0 L 162.6,195.3 L 168.7,190.7 L 174.9,186.5 L 181.1,182.4 L 187.2,178.6 L 193.4,175.0 L 199.6,171.5 L 205.7,168.3 L 211.9,165.3 L 218.1,162.4 L 224.3,159.7 L 230.4,157.1 L 236.6,154.4 L 242.8,151.8 L 248.9,149.3 L 255.1,146.8 L 261.3,144.3 L 267.4,141.9 L 273.6,139.5 L 279.8,137.2 L 286.0,134.9 L 292.1,132.7 L 298.3,130.5 L 304.5,128.4 L 310.6,126.3 L 316.8,124.3 L 323.0,122.3 L 329.1,120.4 L 335.3,118.5 L 341.5,116.7 L 347.7,114.9 L 353.8,113.1 L 360.0,111.4 L 366.2,109.8 L 372.3,108.2 L 378.5,106.6 L 384.7,105.1 L 390.8,103.7 L 397.0,102.2 L 403.2,100.9 L 409.3,99.5 L 415.5,98.2 L 421.7,97.0 L 427.9,95.8 L 434.0,94.6 L 440.2,93.5 L 446.4,92.4 L 452.5,91.4 L 458.7,90.4 L 464.9,89.4 L 471.1,88.5 L 477.2,87.7 L 483.4,86.8 L 489.6,86.0 L 495.7,85.3 L 501.9,84.6 L 508.1,83.9 L 514.2,83.3 L 520.4,82.7 L 526.6,82.1 L 532.8,81.6 L 538.9,81.1 L 545.1,80.7 L 551.3,80.4 L 557.4,80.1 L 563.6,80.0 L 569.8,80.0 L 575.9,80.1 L 582.1,80.3 L 588.3,80.6 L 594.4,81.1 L 600.6,81.6 L 606.8,82.3 L 613.0,83.0 L 619.1,83.9 L 625.3,84.8 L 631.5,85.9 L 637.6,87.1 L 643.8,88.4 L 650.0,89.8 L 656.2,91.3 L 662.3,92.8 L 668.5,94.4 L 674.7,95.9 L 680.8,97.5 L 687.0,99.0" class="nt"/>
<path d="M 88.0,199.8 L 105.9,157.3 L 123.9,161.4 L 142.3,166.6 L 160.2,163.2 L 178.2,158.3 L 196.2,154.2 L 214.1,155.0 L 232.1,156.7 L 250.4,156.6 L 280.5,155.5 L 310.6,154.0 L 340.3,154.5 L 370.4,154.1 L 400.4,153.3 L 430.5,154.4 L 460.6,157.4 L 490.7,161.2" class="mond"/>
<path d="M 75.1,337.9 L 80.3,290.8 L 85.4,252.0 L 90.6,224.9 L 95.7,208.8 L 100.8,201.0 L 106.0,198.1 L 111.1,197.3 L 116.3,196.5 L 121.4,195.1 L 126.6,192.9 L 131.7,190.0 L 136.8,186.6 L 142.0,183.0 L 147.1,179.2 L 152.3,175.5 L 157.4,171.7 L 162.6,168.1 L 167.7,164.8 L 172.8,161.6 L 178.0,158.7 L 183.1,156.2 L 188.3,154.0 L 193.4,152.3 L 198.5,151.0 L 203.7,150.2 L 208.8,150.0 L 214.0,150.2 L 219.1,150.9 L 224.3,151.9 L 229.4,153.0 L 234.5,154.0 L 239.7,154.9 L 244.8,155.6 L 250.0,156.2 L 255.1,156.6 L 260.2,156.8 L 265.4,157.0 L 270.5,157.1 L 275.7,157.1 L 280.8,157.0 L 286.0,156.9 L 291.1,156.7 L 296.2,156.5 L 301.4,156.3 L 306.5,156.1 L 311.7,155.9 L 316.8,155.7 L 321.9,155.5 L 327.1,155.2 L 332.2,155.1 L 337.4,154.9 L 342.5,154.7 L 347.7,154.6 L 352.8,154.4 L 357.9,154.4 L 363.1,154.3 L 368.2,154.3 L 373.4,154.3 L 378.5,154.3 L 383.6,154.4 L 388.8,154.5 L 393.9,154.6 L 399.1,154.8 L 404.2,155.0 L 409.3,155.3 L 414.5,155.5 L 419.6,155.9 L 424.8,156.2 L 429.9,156.6 L 435.1,157.1 L 440.2,157.5 L 445.3,158.0 L 450.5,158.6 L 455.6,159.1 L 460.8,159.7 L 465.9,160.4 L 471.1,161.0 L 476.2,161.7 L 481.3,162.3 L 486.5,163.0 L 491.6,163.6 L 496.8,164.3 L 501.9,164.9 L 507.0,165.5 L 512.2,166.0 L 517.3,166.4 L 522.5,166.8 L 527.6,167.0 L 532.8,167.1 L 537.9,167.3 L 543.0,167.5 L 548.2,168.0 L 553.3,168.8 L 558.5,170.2 L 563.6,172.0 L 568.7,174.3 L 573.9,177.0 L 579.0,180.1 L 584.2,183.6 L 589.3,187.4 L 594.4,191.4 L 599.6,195.6 L 604.7,200.0 L 609.9,204.5 L 615.0,209.1 L 620.2,213.6 L 625.3,218.2 L 630.4,222.6 L 635.6,226.9 L 640.7,231.1 L 645.9,235.0 L 651.0,238.7 L 656.2,242.1 L 661.3,245.3 L 666.4,248.3 L 671.6,251.0 L 676.7,253.6 L 681.9,256.0 L 687.0,258.3" class="fw"/>
<line x1="87.97" y1="164.86" x2="87.97" y2="238.37" class="err"/>
<line x1="84.97" y1="164.86" x2="90.97" y2="164.86" class="err"/>
<line x1="84.97" y1="238.37" x2="90.97" y2="238.37" class="err"/>
<circle cx="87.97" cy="201.62" r="2.5" class="obs"/>
<line x1="105.94" y1="165.50" x2="105.94" y2="197.40" class="err"/>
<line x1="102.94" y1="165.50" x2="108.94" y2="165.50" class="err"/>
<line x1="102.94" y1="197.40" x2="108.94" y2="197.40" class="err"/>
<circle cx="105.94" cy="181.45" r="2.5" class="obs"/>
<line x1="123.91" y1="173.75" x2="123.91" y2="200.15" class="err"/>
<line x1="120.91" y1="173.75" x2="126.91" y2="173.75" class="err"/>
<line x1="120.91" y1="200.15" x2="126.91" y2="200.15" class="err"/>
<circle cx="123.91" cy="186.95" r="2.5" class="obs"/>
<line x1="142.25" y1="170.64" x2="142.25" y2="190.43" class="err"/>
<line x1="139.25" y1="170.64" x2="145.25" y2="170.64" class="err"/>
<line x1="139.25" y1="190.43" x2="145.25" y2="190.43" class="err"/>
<circle cx="142.25" cy="180.54" r="2.5" class="obs"/>
<line x1="160.22" y1="163.42" x2="160.22" y2="177.48" class="err"/>
<line x1="157.22" y1="163.42" x2="163.22" y2="163.42" class="err"/>
<line x1="157.22" y1="177.48" x2="163.22" y2="177.48" class="err"/>
<circle cx="160.22" cy="170.45" r="2.5" class="obs"/>
<line x1="178.19" y1="150.02" x2="178.19" y2="192.73" class="err"/>
<line x1="175.19" y1="150.02" x2="181.19" y2="150.02" class="err"/>
<line x1="175.19" y1="192.73" x2="181.19" y2="192.73" class="err"/>
<circle cx="178.19" cy="171.37" r="2.5" class="obs"/>
<line x1="196.16" y1="134.43" x2="196.16" y2="177.14" class="err"/>
<line x1="193.16" y1="134.43" x2="199.16" y2="134.43" class="err"/>
<line x1="193.16" y1="177.14" x2="199.16" y2="177.14" class="err"/>
<circle cx="196.16" cy="155.79" r="2.5" class="obs"/>
<line x1="214.14" y1="136.82" x2="214.14" y2="178.43" class="err"/>
<line x1="211.14" y1="136.82" x2="217.14" y2="136.82" class="err"/>
<line x1="211.14" y1="178.43" x2="217.14" y2="178.43" class="err"/>
<circle cx="214.14" cy="157.62" r="2.5" class="obs"/>
<line x1="232.11" y1="137.73" x2="232.11" y2="179.34" class="err"/>
<line x1="229.11" y1="137.73" x2="235.11" y2="137.73" class="err"/>
<line x1="229.11" y1="179.34" x2="235.11" y2="179.34" class="err"/>
<circle cx="232.11" cy="158.54" r="2.5" class="obs"/>
<line x1="250.44" y1="137.92" x2="250.44" y2="179.16" class="err"/>
<line x1="247.44" y1="137.92" x2="253.44" y2="137.92" class="err"/>
<line x1="247.44" y1="179.16" x2="253.44" y2="179.16" class="err"/>
<circle cx="250.44" cy="158.54" r="2.5" class="obs"/>
<line x1="280.52" y1="135.26" x2="280.52" y2="176.32" class="err"/>
<line x1="277.52" y1="135.26" x2="283.52" y2="135.26" class="err"/>
<line x1="277.52" y1="176.32" x2="283.52" y2="176.32" class="err"/>
<circle cx="280.52" cy="155.79" r="2.5" class="obs"/>
<line x1="310.59" y1="133.43" x2="310.59" y2="174.49" class="err"/>
<line x1="307.59" y1="133.43" x2="313.59" y2="133.43" class="err"/>
<line x1="307.59" y1="174.49" x2="313.59" y2="174.49" class="err"/>
<circle cx="310.59" cy="153.96" r="2.5" class="obs"/>
<line x1="340.30" y1="132.60" x2="340.30" y2="173.48" class="err"/>
<line x1="337.30" y1="132.60" x2="343.30" y2="132.60" class="err"/>
<line x1="337.30" y1="173.48" x2="343.30" y2="173.48" class="err"/>
<circle cx="340.30" cy="153.04" r="2.5" class="obs"/>
<line x1="370.37" y1="131.78" x2="370.37" y2="172.47" class="err"/>
<line x1="367.37" y1="131.78" x2="373.37" y2="131.78" class="err"/>
<line x1="367.37" y1="172.47" x2="373.37" y2="172.47" class="err"/>
<circle cx="370.37" cy="152.12" r="2.5" class="obs"/>
<line x1="400.45" y1="131.78" x2="400.45" y2="172.47" class="err"/>
<line x1="397.45" y1="131.78" x2="403.45" y2="131.78" class="err"/>
<line x1="397.45" y1="172.47" x2="403.45" y2="172.47" class="err"/>
<circle cx="400.45" cy="152.12" r="2.5" class="obs"/>
<line x1="430.52" y1="132.88" x2="430.52" y2="173.20" class="err"/>
<line x1="427.52" y1="132.88" x2="433.52" y2="132.88" class="err"/>
<line x1="427.52" y1="173.20" x2="433.52" y2="173.20" class="err"/>
<circle cx="430.52" cy="153.04" r="2.5" class="obs"/>
<line x1="460.60" y1="132.97" x2="460.60" y2="173.11" class="err"/>
<line x1="457.60" y1="132.97" x2="463.60" y2="132.97" class="err"/>
<line x1="457.60" y1="173.11" x2="463.60" y2="173.11" class="err"/>
<circle cx="460.60" cy="153.04" r="2.5" class="obs"/>
<line x1="490.67" y1="131.96" x2="490.67" y2="172.29" class="err"/>
<line x1="487.67" y1="131.96" x2="493.67" y2="131.96" class="err"/>
<line x1="487.67" y1="172.29" x2="493.67" y2="172.29" class="err"/>
<circle cx="490.67" cy="152.12" r="2.5" class="obs"/>
<g class="legend">
<line x1="82" y1="69" x2="106" y2="69" class="fw"/>
<text x="112" y="73" class="lbl-l">framework: 11.7 km/s, 5.3%, 0.44σ</text>
<line x1="82" y1="87" x2="106" y2="87" class="nt"/>
<text x="112" y="91" class="lbl-l">Newtonian: 44.6 km/s, 18.0%, 2.36σ</text>
<line x1="82" y1="105" x2="106" y2="105" class="mond"/>
<text x="112" y="109" class="lbl-m">MOND/RAR: 10.9 km/s, 4.6%, 0.74σ</text>
<circle cx="94" cy="123" r="2.5" class="obs"/>
<text x="112" y="127" class="lbl">observed V±err</text>
</g>
<g class="legend">
<line x1="472" y1="69" x2="496" y2="69" class="rho"/>
<text x="502" y="73" class="lbl-r">ρ(r) raw</text>
<line x1="472" y1="87" x2="496" y2="87" class="phot"/>
<text x="502" y="91" class="lbl-p">photometric baryonic profile</text>
<line x1="472" y1="105" x2="496" y2="105" class="mbar"/>
<text x="502" y="109" class="lbl-m">MOND baryonic annulus</text>
<line x1="472" y1="123" x2="496" y2="123" class="mph"/>
<text x="502" y="127" class="lbl-m">MOND phantom annulus</text>
<text x="472" y="147" class="lbl-r">ρ peak: 4906 M☉/pc²</text>
<text x="472" y="163" class="lbl-p">phot peak: 9128.44 (arb.)</text>
<text x="472" y="179" class="lbl-m">Σbar peak: 6208.61 M☉/pc²</text>
<text x="472" y="195" class="lbl-m">Σphantom peak: 187.54 M☉/pc²</text>
</g>
<rect x="775" y="55" width="170" height="170" class="preview-bg"/>
<defs><radialGradient id="g_NGC5005" cx="0.5" cy="0.5" r="0.5">
  <stop offset="0.0000" stop-color="rgb(255,255,255)"/>
  <stop offset="0.0313" stop-color="rgb(255,255,255)"/>
  <stop offset="0.0625" stop-color="rgb(255,255,255)"/>
  <stop offset="0.0938" stop-color="rgb(255,255,255)"/>
  <stop offset="0.1250" stop-color="rgb(255,255,255)"/>
  <stop offset="0.1563" stop-color="rgb(255,255,255)"/>
  <stop offset="0.1875" stop-color="rgb(255,255,255)"/>
  <stop offset="0.2188" stop-color="rgb(255,255,255)"/>
  <stop offset="0.2500" stop-color="rgb(255,255,255)"/>
  <stop offset="0.2813" stop-color="rgb(255,255,255)"/>
  <stop offset="0.3125" stop-color="rgb(255,255,255)"/>
  <stop offset="0.3438" stop-color="rgb(255,255,255)"/>
  <stop offset="0.3750" stop-color="rgb(255,255,255)"/>
  <stop offset="0.4063" stop-color="rgb(249,249,249)"/>
  <stop offset="0.4375" stop-color="rgb(241,241,241)"/>
  <stop offset="0.4688" stop-color="rgb(233,233,233)"/>
  <stop offset="0.5000" stop-color="rgb(225,225,225)"/>
  <stop offset="0.5313" stop-color="rgb(217,217,217)"/>
  <stop offset="0.5625" stop-color="rgb(209,209,209)"/>
  <stop offset="0.5938" stop-color="rgb(201,201,201)"/>
  <stop offset="0.6250" stop-color="rgb(193,193,193)"/>
  <stop offset="0.6563" stop-color="rgb(186,186,186)"/>
  <stop offset="0.6875" stop-color="rgb(178,178,178)"/>
  <stop offset="0.7188" stop-color="rgb(170,170,170)"/>
  <stop offset="0.7500" stop-color="rgb(162,162,162)"/>
  <stop offset="0.7813" stop-color="rgb(154,154,154)"/>
  <stop offset="0.8125" stop-color="rgb(143,143,143)"/>
  <stop offset="0.8438" stop-color="rgb(126,126,126)"/>
  <stop offset="0.8750" stop-color="rgb(108,108,108)"/>
  <stop offset="0.9063" stop-color="rgb(90,90,90)"/>
  <stop offset="0.9375" stop-color="rgb(72,72,72)"/>
  <stop offset="0.9688" stop-color="rgb(42,42,42)"/>
  <stop offset="1.0000" stop-color="rgb(0,0,0)"/>
</radialGradient></defs>
<circle cx="860" cy="140" r="81" fill="url(#g_NGC5005)"/>
<text x="860" y="49" text-anchor="middle" class="preview-lbl">face-on luminance from ρ(r)</text>
<text x="860" y="239" text-anchor="middle" class="preview-lbl">edge at r = 16.0 kpc</text>
</svg>