<svg xmlns="http://www.w3.org/2000/svg" viewBox="0 0 890 420" width="890" height="420" font-family="sans-serif" font-size="12">
<style>
  .ax { stroke: #333; stroke-width: 1; fill: none; }
  .grid { stroke: #ddd; stroke-width: 0.5; fill: none; }
  .lbl { fill: #333; }
  .lbl-l { fill: #0066cc; }
  .lbl-r { fill: #b03030; }
  .obs { fill: #222; }
  .err { stroke: #555; stroke-width: 0.8; fill: none; }
  .fw { stroke: #0066cc; stroke-width: 2.2; fill: none; }
  .nt { stroke: #cc6600; stroke-width: 1.6; fill: none; stroke-dasharray: 5,3; }
  .lbl-s { fill: #cc7000; }
  .rho { stroke: #b03030; stroke-width: 2.0; fill: none; }
  .sig { stroke: #cc7000; stroke-width: 1.8; fill: none; }
  .title { fill: #111; font-size: 16px; font-weight: 600; }
  .subtitle { fill: #555; font-size: 11px; }
  .preview-bg { fill: #000; }
  .preview-lbl { fill: #888; font-size: 10px; }
  .legend { font-size: 11px; }
</style>
<text x="343.5" y="22" text-anchor="middle" class="title">NGC5371</text>
<text x="343.5" y="38" text-anchor="middle" class="subtitle">rMax=46.2 kpc, N=19, RMS=8.6 km/s (3.9%), amp=212</text>
<line x1="70" y1="365.0" x2="617" y2="365.0" class="grid"/>
<text x="64" y="369.0" text-anchor="end" class="lbl-l">0</text>
<line x1="70" y1="303.0" x2="617" y2="303.0" class="grid"/>
<text x="64" y="307.0" text-anchor="end" class="lbl-l">57</text>
<line x1="70" y1="241.0" x2="617" y2="241.0" class="grid"/>
<text x="64" y="245.0" text-anchor="end" class="lbl-l">115</text>
<line x1="70" y1="179.0" x2="617" y2="179.0" class="grid"/>
<text x="64" y="183.0" text-anchor="end" class="lbl-l">172</text>
<line x1="70" y1="117.0" x2="617" y2="117.0" class="grid"/>
<text x="64" y="121.0" text-anchor="end" class="lbl-l">230</text>
<line x1="70" y1="55.0" x2="617" y2="55.0" class="grid"/>
<text x="64" y="59.0" text-anchor="end" class="lbl-l">287</text>
<text x="623" y="369.0" text-anchor="start" class="lbl-r">0.0</text>
<text x="623" y="327.7" text-anchor="start" class="lbl-r">0.2</text>
<text x="623" y="286.3" text-anchor="start" class="lbl-r">0.4</text>
<text x="623" y="245.0" text-anchor="start" class="lbl-r">0.6</text>
<text x="623" y="203.7" text-anchor="start" class="lbl-r">0.8</text>
<text x="623" y="162.3" text-anchor="start" class="lbl-r">1.0</text>
<line x1="70.0" y1="55" x2="70.0" y2="365" class="grid"/>
<text x="70.0" y="381" text-anchor="middle" class="lbl">0.0</text>
<line x1="161.2" y1="55" x2="161.2" y2="365" class="grid"/>
<text x="161.2" y="381" text-anchor="middle" class="lbl">8.7</text>
<line x1="252.3" y1="55" x2="252.3" y2="365" class="grid"/>
<text x="252.3" y="381" text-anchor="middle" class="lbl">17.5</text>
<line x1="343.5" y1="55" x2="343.5" y2="365" class="grid"/>
<text x="343.5" y="381" text-anchor="middle" class="lbl">26.2</text>
<line x1="434.7" y1="55" x2="434.7" y2="365" class="grid"/>
<text x="434.7" y="381" text-anchor="middle" class="lbl">35.0</text>
<line x1="525.8" y1="55" x2="525.8" y2="365" class="grid"/>
<text x="525.8" y="381" text-anchor="middle" class="lbl">43.7</text>
<line x1="617.0" y1="55" x2="617.0" y2="365" class="grid"/>
<text x="617.0" y="381" text-anchor="middle" class="lbl">52.4</text>
<text x="343.5" y="408" text-anchor="middle" class="lbl">radius (kpc)</text>
<text x="16" y="210" text-anchor="middle" class="lbl-l" transform="rotate(-90, 16, 210)">velocity (km/s)</text>
<text x="654" y="210" text-anchor="middle" class="lbl-r" transform="rotate(-90, 654, 210)">mass profile (normalized to peak)</text>
<rect x="70" y="55" width="547" height="310" class="ax"/>
<path d="M 70.0,158.3 L 72.5,174.0 L 75.0,189.7 L 77.5,205.4 L 80.0,221.1 L 82.5,236.7 L 85.0,252.4 L 87.5,268.1 L 90.0,283.8 L 92.5,290.3 L 95.0,295.7 L 97.5,301.1 L 100.0,306.5 L 102.5,311.9 L 105.0,313.0 L 107.5,313.4 L 110.0,313.8 L 112.5,314.2 L 115.0,314.6 L 117.5,315.0 L 120.0,315.4 L 122.5,315.8 L 124.9,316.3 L 127.4,316.7 L 129.9,317.1 L 132.4,317.5 L 134.9,317.9 L 137.4,318.3 L 139.9,318.7 L 142.4,319.1 L 144.9,319.5 L 147.4,319.9 L 149.9,320.3 L 152.4,320.7 L 154.9,321.1 L 157.4,321.5 L 159.9,321.9 L 162.4,322.3 L 164.9,322.7 L 167.4,323.1 L 169.9,323.6 L 172.4,324.0 L 174.9,324.4 L 177.4,324.8 L 179.9,325.2 L 182.4,325.6 L 184.9,326.0 L 187.4,326.4 L 189.9,326.8 L 192.4,327.2 L 194.9,327.6 L 197.4,328.0 L 199.9,328.4 L 202.4,328.8 L 204.9,329.2 L 207.4,329.6 L 209.9,330.0 L 212.4,330.4 L 214.9,330.8 L 217.4,331.3 L 219.9,331.7 L 222.4,332.1 L 224.9,332.5 L 227.4,332.9 L 229.9,333.3 L 232.4,333.7 L 234.8,334.1 L 237.3,334.5 L 239.8,334.9 L 242.3,335.3 L 244.8,335.7 L 247.3,336.1 L 249.8,336.5 L 252.3,336.9 L 254.8,337.3 L 257.3,337.4 L 259.8,337.5 L 262.3,337.7 L 264.8,337.8 L 267.3,337.9 L 269.8,338.1 L 272.3,338.2 L 274.8,338.3 L 277.3,338.5 L 279.8,338.6 L 282.3,338.7 L 284.8,338.9 L 287.3,339.0 L 289.8,339.2 L 292.3,339.3 L 294.8,339.4 L 297.3,339.6 L 299.8,339.7 L 302.3,339.8 L 304.8,340.0 L 307.3,340.1 L 309.8,340.2 L 312.3,340.4 L 314.8,340.5 L 317.3,340.6 L 319.8,340.8 L 322.3,340.9 L 324.8,341.0 L 327.3,341.2 L 329.8,341.3 L 332.3,341.4 L 334.8,341.6 L 337.3,341.7 L 339.8,341.8 L 342.3,342.0 L 344.7,342.1 L 347.2,342.2 L 349.7,342.4 L 352.2,342.5 L 354.7,342.6 L 357.2,342.8 L 359.7,342.9 L 362.2,343.0 L 364.7,343.2 L 367.2,343.3 L 369.7,343.4 L 372.2,343.6 L 374.7,343.7 L 377.2,343.8 L 379.7,344.0 L 382.2,344.1 L 384.7,344.2 L 387.2,344.4 L 389.7,344.5 L 392.2,344.7 L 394.7,344.8 L 397.2,344.9 L 399.7,345.1 L 402.2,345.2 L 404.7,345.3 L 407.2,345.5 L 409.7,345.6 L 412.2,345.7 L 414.7,345.9 L 417.2,346.0 L 419.7,346.1 L 422.2,346.3 L 424.7,346.4 L 427.2,346.5 L 429.7,346.7 L 432.2,346.8 L 434.7,346.9 L 437.2,347.1 L 439.7,347.2 L 442.2,347.3 L 444.7,347.5 L 447.2,347.6 L 449.7,347.7 L 452.2,347.9 L 454.6,348.0 L 457.1,348.1 L 459.6,348.3 L 462.1,348.4 L 464.6,348.5 L 467.1,348.7 L 469.6,348.8 L 472.1,348.9 L 474.6,349.1 L 477.1,349.2 L 479.6,349.3 L 482.1,349.5 L 484.6,349.6 L 487.1,349.7 L 489.6,349.9 L 492.1,350.0 L 494.6,350.1 L 497.1,350.3 L 499.6,350.4 L 502.1,350.6 L 504.6,350.7 L 507.1,350.8 L 509.6,351.0 L 512.1,351.1 L 514.6,351.2 L 517.1,351.4 L 519.6,351.5 L 522.1,351.6 L 524.6,351.8 L 527.1,351.9 L 529.6,352.0 L 532.1,352.2 L 534.6,352.3 L 537.1,352.4 L 539.6,352.6 L 542.1,352.7 L 544.6,353.0 L 547.1,353.7 L 549.6,354.3 L 552.1,355.0 L 554.6,355.6 L 557.1,356.2 L 559.6,356.9 L 562.1,357.5 L 564.5,358.2 L 567.0,358.8 L 569.5,359.5 L 572.0,360.1 L 574.5,360.8 L 577.0,361.4 L 579.5,362.1 L 582.0,362.7 L 584.5,363.3 L 587.0,364.0 L 589.5,364.6 L 592.0,365.0 L 594.5,365.0 L 597.0,365.0 L 599.5,365.0 L 602.0,365.0 L 604.5,365.0 L 607.0,365.0 L 609.5,365.0 L 612.0,365.0 L 614.5,365.0 L 617.0,365.0" class="rho"/>
<path d="M 70.0,158.3 L 72.5,160.5 L 75.0,163.8 L 77.5,168.4 L 80.0,173.9 L 82.5,180.1 L 85.0,186.6 L 87.5,193.2 L 90.0,199.5 L 92.5,205.3 L 95.0,210.8 L 97.5,215.7 L 100.0,220.2 L 102.5,224.2 L 105.0,227.7 L 107.5,230.9 L 110.0,233.8 L 112.5,236.5 L 115.0,238.9 L 117.5,241.1 L 120.0,243.2 L 122.5,245.2 L 124.9,247.0 L 127.4,248.8 L 129.9,250.5 L 132.4,252.1 L 134.9,253.7 L 137.4,255.2 L 139.9,256.7 L 142.4,258.2 L 144.9,259.6 L 147.4,261.0 L 149.9,262.3 L 152.4,263.6 L 154.9,264.9 L 157.4,266.2 L 159.9,267.5 L 162.4,268.7 L 164.9,270.0 L 167.4,271.2 L 169.9,272.4 L 172.4,273.6 L 174.9,274.8 L 177.4,275.9 L 179.9,277.1 L 182.4,278.2 L 184.9,279.3 L 187.4,280.4 L 189.9,281.5 L 192.4,282.6 L 194.9,283.7 L 197.4,284.8 L 199.9,285.8 L 202.4,286.9 L 204.9,287.9 L 207.4,288.9 L 209.9,290.0 L 212.4,291.0 L 214.9,291.9 L 217.4,292.9 L 219.9,293.9 L 222.4,294.8 L 224.9,295.8 L 227.4,296.7 L 229.9,297.6 L 232.4,298.5 L 234.8,299.4 L 237.3,300.3 L 239.8,301.1 L 242.3,302.0 L 244.8,302.8 L 247.3,303.6 L 249.8,304.4 L 252.3,305.2 L 254.8,305.9 L 257.3,306.7 L 259.8,307.4 L 262.3,308.1 L 264.8,308.8 L 267.3,309.5 L 269.8,310.2 L 272.3,310.8 L 274.8,311.4 L 277.3,312.1 L 279.8,312.7 L 282.3,313.3 L 284.8,313.9 L 287.3,314.5 L 289.8,315.1 L 292.3,315.7 L 294.8,316.2 L 297.3,316.8 L 299.8,317.3 L 302.3,317.9 L 304.8,318.4 L 307.3,318.9 L 309.8,319.5 L 312.3,320.0 L 314.8,320.5 L 317.3,321.0 L 319.8,321.5 L 322.3,322.0 L 324.8,322.5 L 327.3,323.0 L 329.8,323.4 L 332.3,323.9 L 334.8,324.4 L 337.3,324.8 L 339.8,325.3 L 342.3,325.7 L 344.7,326.2 L 347.2,326.6 L 349.7,327.1 L 352.2,327.5 L 354.7,327.9 L 357.2,328.4 L 359.7,328.8 L 362.2,329.2 L 364.7,329.6 L 367.2,330.0 L 369.7,330.4 L 372.2,330.8 L 374.7,331.2 L 377.2,331.6 L 379.7,332.0 L 382.2,332.4 L 384.7,332.8 L 387.2,333.2 L 389.7,333.5 L 392.2,333.9 L 394.7,334.3 L 397.2,334.6 L 399.7,335.0 L 402.2,335.4 L 404.7,335.7 L 407.2,336.1 L 409.7,336.4 L 412.2,336.8 L 414.7,337.1 L 417.2,337.4 L 419.7,337.8 L 422.2,338.1 L 424.7,338.4 L 427.2,338.8 L 429.7,339.1 L 432.2,339.4 L 434.7,339.7 L 437.2,340.0 L 439.7,340.3 L 442.2,340.7 L 444.7,341.0 L 447.2,341.3 L 449.7,341.6 L 452.2,341.9 L 454.6,342.2 L 457.1,342.5 L 459.6,342.7 L 462.1,343.0 L 464.6,343.3 L 467.1,343.6 L 469.6,343.9 L 472.1,344.1 L 474.6,344.4 L 477.1,344.7 L 479.6,345.0 L 482.1,345.2 L 484.6,345.5 L 487.1,345.8 L 489.6,346.0 L 492.1,346.3 L 494.6,346.5 L 497.1,346.8 L 499.6,347.0 L 502.1,347.3 L 504.6,347.5 L 507.1,347.8 L 509.6,348.0 L 512.1,348.3 L 514.6,348.5 L 517.1,348.7 L 519.6,349.0 L 522.1,349.2 L 524.6,349.4 L 527.1,349.7 L 529.6,349.9 L 532.1,350.1 L 534.6,350.4 L 537.1,350.6 L 539.6,350.8 L 542.1,351.1 L 544.6,351.3 L 547.1,351.5 L 549.6,351.8 L 552.1,352.0 L 554.6,352.2 L 557.1,352.4 L 559.6,352.6 L 562.1,352.9 L 564.5,353.1 L 567.0,353.3 L 569.5,353.5 L 572.0,353.7 L 574.5,353.8 L 577.0,354.0 L 579.5,354.2 L 582.0,354.4 L 584.5,354.5 L 587.0,354.7 L 589.5,354.8 L 592.0,355.0 L 594.5,355.1 L 597.0,355.2 L 599.5,355.4 L 602.0,355.5 L 604.5,355.6 L 607.0,355.7 L 609.5,355.9 L 612.0,356.0 L 614.5,356.1 L 617.0,356.2" class="sig"/>
<path d="M 75.5,277.2 L 80.9,248.8 L 86.4,233.2 L 91.9,225.8 L 97.3,220.8 L 102.8,217.4 L 108.3,214.3 L 113.8,210.5 L 119.2,206.3 L 124.7,201.9 L 130.2,197.5 L 135.6,193.2 L 141.1,188.9 L 146.6,184.8 L 152.1,180.7 L 157.5,176.9 L 163.0,173.1 L 168.5,169.5 L 173.9,166.1 L 179.4,162.8 L 184.9,159.6 L 190.3,156.6 L 195.8,153.8 L 201.3,151.0 L 206.8,148.4 L 212.2,146.0 L 217.7,143.6 L 223.2,141.4 L 228.6,139.3 L 234.1,137.3 L 239.6,135.5 L 245.0,133.7 L 250.5,132.1 L 256.0,130.5 L 261.5,129.1 L 266.9,127.6 L 272.4,126.1 L 277.9,124.6 L 283.3,123.2 L 288.8,121.7 L 294.3,120.3 L 299.7,118.9 L 305.2,117.6 L 310.7,116.2 L 316.1,114.9 L 321.6,113.6 L 327.1,112.3 L 332.6,111.0 L 338.0,109.8 L 343.5,108.6 L 349.0,107.4 L 354.4,106.3 L 359.9,105.1 L 365.4,104.0 L 370.9,103.0 L 376.3,101.9 L 381.8,100.9 L 387.3,99.9 L 392.7,99.0 L 398.2,98.0 L 403.7,97.1 L 409.1,96.2 L 414.6,95.4 L 420.1,94.6 L 425.6,93.8 L 431.0,93.0 L 436.5,92.2 L 442.0,91.5 L 447.4,90.9 L 452.9,90.2 L 458.4,89.6 L 463.8,88.9 L 469.3,88.4 L 474.8,87.8 L 480.3,87.3 L 485.7,86.8 L 491.2,86.3 L 496.7,85.9 L 502.1,85.5 L 507.6,85.1 L 513.1,84.8 L 518.5,84.4 L 524.0,84.1 L 529.5,83.8 L 535.0,83.6 L 540.4,83.4 L 545.9,83.2 L 551.4,83.2 L 556.8,83.3 L 562.3,83.7 L 567.8,84.3 L 573.2,85.0 L 578.7,85.9 L 584.2,87.0 L 589.6,88.4 L 595.1,89.8 L 600.6,91.2 L 606.1,92.6 L 611.5,94.0 L 617.0,95.4" class="nt"/>
<path d="M 74.6,270.5 L 79.1,209.0 L 83.7,159.4 L 88.2,128.0 L 92.8,114.4 L 97.3,112.1 L 101.9,116.5 L 106.5,123.8 L 111.0,131.0 L 115.6,136.6 L 120.1,140.1 L 124.7,141.9 L 129.3,142.2 L 133.8,141.6 L 138.4,140.2 L 142.9,138.2 L 147.5,135.8 L 152.1,133.2 L 156.6,130.4 L 161.2,127.5 L 165.7,124.5 L 170.3,121.6 L 174.8,118.7 L 179.4,115.9 L 184.0,113.2 L 188.5,110.6 L 193.1,108.2 L 197.6,105.9 L 202.2,103.9 L 206.8,102.1 L 211.3,100.5 L 215.9,99.2 L 220.4,98.1 L 225.0,97.4 L 229.5,97.0 L 234.1,97.0 L 238.7,97.4 L 243.2,98.3 L 247.8,99.8 L 252.3,101.8 L 256.9,104.0 L 261.5,106.2 L 266.0,108.1 L 270.6,109.8 L 275.1,111.1 L 279.7,112.3 L 284.2,113.2 L 288.8,114.0 L 293.4,114.7 L 297.9,115.3 L 302.5,115.8 L 307.0,116.3 L 311.6,116.7 L 316.1,117.1 L 320.7,117.4 L 325.3,117.7 L 329.8,118.0 L 334.4,118.3 L 338.9,118.5 L 343.5,118.8 L 348.1,119.1 L 352.6,119.3 L 357.2,119.6 L 361.7,119.8 L 366.3,120.1 L 370.9,120.4 L 375.4,120.7 L 380.0,121.0 L 384.5,121.3 L 389.1,121.7 L 393.6,122.0 L 398.2,122.4 L 402.8,122.8 L 407.3,123.2 L 411.9,123.6 L 416.4,124.1 L 421.0,124.5 L 425.6,125.0 L 430.1,125.5 L 434.7,126.0 L 439.2,126.6 L 443.8,127.1 L 448.3,127.7 L 452.9,128.3 L 457.5,128.9 L 462.0,129.5 L 466.6,130.1 L 471.1,130.7 L 475.7,131.3 L 480.3,132.0 L 484.8,132.5 L 489.4,133.1 L 493.9,133.7 L 498.5,134.1 L 503.0,134.6 L 507.6,134.9 L 512.2,135.2 L 516.7,135.3 L 521.3,135.2 L 525.8,134.9 L 530.4,134.4 L 535.0,133.8 L 539.5,133.1 L 544.1,132.8 L 548.6,133.0 L 553.2,134.2 L 557.7,136.4 L 562.3,139.6 L 566.9,143.7 L 571.4,148.5 L 576.0,153.8 L 580.5,159.3 L 585.1,164.8 L 589.7,170.1 L 594.2,175.2 L 598.8,179.9 L 603.3,184.2 L 607.9,188.1 L 612.4,191.7 L 617.0,195.0" class="fw"/>
<line x1="85.12" y1="121.20" x2="85.12" y2="142.78" class="err"/>
<line x1="82.12" y1="121.20" x2="88.12" y2="121.20" class="err"/>
<line x1="82.12" y1="142.78" x2="88.12" y2="142.78" class="err"/>
<circle cx="85.12" cy="131.99" r="2.5" class="obs"/>
<line x1="100.04" y1="125.52" x2="100.04" y2="140.62" class="err"/>
<line x1="97.04" y1="125.52" x2="103.04" y2="125.52" class="err"/>
<line x1="97.04" y1="140.62" x2="103.04" y2="140.62" class="err"/>
<circle cx="100.04" cy="133.07" r="2.5" class="obs"/>
<line x1="115.17" y1="127.68" x2="115.17" y2="138.46" class="err"/>
<line x1="112.17" y1="127.68" x2="118.17" y2="127.68" class="err"/>
<line x1="112.17" y1="138.46" x2="118.17" y2="138.46" class="err"/>
<circle cx="115.17" cy="133.07" r="2.5" class="obs"/>
<line x1="130.29" y1="129.83" x2="130.29" y2="138.46" class="err"/>
<line x1="127.29" y1="129.83" x2="133.29" y2="129.83" class="err"/>
<line x1="127.29" y1="138.46" x2="133.29" y2="138.46" class="err"/>
<circle cx="130.29" cy="134.15" r="2.5" class="obs"/>
<line x1="145.31" y1="128.75" x2="145.31" y2="137.38" class="err"/>
<line x1="142.31" y1="128.75" x2="148.31" y2="128.75" class="err"/>
<line x1="142.31" y1="137.38" x2="148.31" y2="137.38" class="err"/>
<circle cx="145.31" cy="133.07" r="2.5" class="obs"/>
<line x1="160.33" y1="123.36" x2="160.33" y2="129.83" class="err"/>
<line x1="157.33" y1="123.36" x2="163.33" y2="123.36" class="err"/>
<line x1="157.33" y1="129.83" x2="163.33" y2="129.83" class="err"/>
<circle cx="160.33" cy="126.60" r="2.5" class="obs"/>
<line x1="190.48" y1="110.42" x2="190.48" y2="116.89" class="err"/>
<line x1="187.48" y1="110.42" x2="193.48" y2="110.42" class="err"/>
<line x1="187.48" y1="116.89" x2="193.48" y2="116.89" class="err"/>
<circle cx="190.48" cy="113.65" r="2.5" class="obs"/>
<line x1="221.04" y1="106.10" x2="221.04" y2="112.57" class="err"/>
<line x1="218.04" y1="106.10" x2="224.04" y2="106.10" class="err"/>
<line x1="218.04" y1="112.57" x2="224.04" y2="112.57" class="err"/>
<circle cx="221.04" cy="109.34" r="2.5" class="obs"/>
<line x1="250.25" y1="100.71" x2="250.25" y2="107.18" class="err"/>
<line x1="247.25" y1="100.71" x2="253.25" y2="100.71" class="err"/>
<line x1="247.25" y1="107.18" x2="253.25" y2="107.18" class="err"/>
<circle cx="250.25" cy="103.94" r="2.5" class="obs"/>
<line x1="280.70" y1="101.79" x2="280.70" y2="108.26" class="err"/>
<line x1="277.70" y1="101.79" x2="283.70" y2="101.79" class="err"/>
<line x1="277.70" y1="108.26" x2="283.70" y2="108.26" class="err"/>
<circle cx="280.70" cy="105.02" r="2.5" class="obs"/>
<line x1="311.16" y1="102.86" x2="311.16" y2="109.34" class="err"/>
<line x1="308.16" y1="102.86" x2="314.16" y2="102.86" class="err"/>
<line x1="308.16" y1="109.34" x2="314.16" y2="109.34" class="err"/>
<circle cx="311.16" cy="106.10" r="2.5" class="obs"/>
<line x1="341.62" y1="109.34" x2="341.62" y2="115.81" class="err"/>
<line x1="338.62" y1="109.34" x2="344.62" y2="109.34" class="err"/>
<line x1="338.62" y1="115.81" x2="344.62" y2="115.81" class="err"/>
<circle cx="341.62" cy="112.57" r="2.5" class="obs"/>
<line x1="370.83" y1="117.97" x2="370.83" y2="124.44" class="err"/>
<line x1="367.83" y1="117.97" x2="373.83" y2="117.97" class="err"/>
<line x1="367.83" y1="124.44" x2="373.83" y2="124.44" class="err"/>
<circle cx="370.83" cy="121.20" r="2.5" class="obs"/>
<line x1="401.28" y1="131.99" x2="401.28" y2="138.46" class="err"/>
<line x1="398.28" y1="131.99" x2="404.28" y2="131.99" class="err"/>
<line x1="398.28" y1="138.46" x2="404.28" y2="138.46" class="err"/>
<circle cx="401.28" cy="135.23" r="2.5" class="obs"/>
<line x1="431.74" y1="138.46" x2="431.74" y2="144.94" class="err"/>
<line x1="428.74" y1="138.46" x2="434.74" y2="138.46" class="err"/>
<line x1="428.74" y1="144.94" x2="434.74" y2="144.94" class="err"/>
<circle cx="431.74" cy="141.70" r="2.5" class="obs"/>
<line x1="460.95" y1="136.31" x2="460.95" y2="144.94" class="err"/>
<line x1="457.95" y1="136.31" x2="463.95" y2="136.31" class="err"/>
<line x1="457.95" y1="144.94" x2="463.95" y2="144.94" class="err"/>
<circle cx="460.95" cy="140.62" r="2.5" class="obs"/>
<line x1="491.41" y1="135.23" x2="491.41" y2="143.86" class="err"/>
<line x1="488.41" y1="135.23" x2="494.41" y2="135.23" class="err"/>
<line x1="488.41" y1="143.86" x2="494.41" y2="143.86" class="err"/>
<circle cx="491.41" cy="139.54" r="2.5" class="obs"/>
<line x1="521.86" y1="137.38" x2="521.86" y2="146.01" class="err"/>
<line x1="518.86" y1="137.38" x2="524.86" y2="137.38" class="err"/>
<line x1="518.86" y1="146.01" x2="524.86" y2="146.01" class="err"/>
<circle cx="521.86" cy="141.70" r="2.5" class="obs"/>
<line x1="552.32" y1="128.75" x2="552.32" y2="141.70" class="err"/>
<line x1="549.32" y1="128.75" x2="555.32" y2="128.75" class="err"/>
<line x1="549.32" y1="141.70" x2="555.32" y2="141.70" class="err"/>
<circle cx="552.32" cy="135.23" r="2.5" class="obs"/>
<g class="legend">
<line x1="82" y1="69" x2="106" y2="69" class="fw"/>
<text x="112" y="73" class="lbl-l">framework fit</text>
<line x1="82" y1="87" x2="106" y2="87" class="nt"/>
<text x="112" y="91" class="lbl-l">Newtonian (no halo)</text>
<circle cx="94" cy="105" r="2.5" class="obs"/>
<text x="112" y="109" class="lbl">observed V±err</text>
</g>
<g class="legend">
<line x1="442" y1="69" x2="466" y2="69" class="rho"/>
<text x="472" y="73" class="lbl-r">ρ(r) raw</text>
<line x1="442" y1="87" x2="466" y2="87" class="sig"/>
<text x="472" y="91" class="lbl-s">Σ(r) cumulative</text>
<text x="442" y="113" class="lbl-r">ρ peak: 1051 M☉/pc²</text>
</g>
<rect x="705" y="55" width="170" height="170" class="preview-bg"/>
<defs><radialGradient id="g_NGC5371" cx="0.5" cy="0.5" r="0.5">
  <stop offset="0.0000" stop-color="rgb(255,255,255)"/>
  <stop offset="0.0313" stop-color="rgb(182,182,182)"/>
  <stop offset="0.0625" stop-color="rgb(110,110,110)"/>
  <stop offset="0.0938" stop-color="rgb(106,106,106)"/>
  <stop offset="0.1250" stop-color="rgb(102,102,102)"/>
  <stop offset="0.1563" stop-color="rgb(98,98,98)"/>
  <stop offset="0.1875" stop-color="rgb(95,95,95)"/>
  <stop offset="0.2188" stop-color="rgb(91,91,91)"/>
  <stop offset="0.2500" stop-color="rgb(87,87,87)"/>
  <stop offset="0.2813" stop-color="rgb(84,84,84)"/>
  <stop offset="0.3125" stop-color="rgb(80,80,80)"/>
  <stop offset="0.3438" stop-color="rgb(76,76,76)"/>
  <stop offset="0.3750" stop-color="rgb(74,74,74)"/>
  <stop offset="0.4063" stop-color="rgb(73,73,73)"/>
  <stop offset="0.4375" stop-color="rgb(72,72,72)"/>
  <stop offset="0.4688" stop-color="rgb(71,71,71)"/>
  <stop offset="0.5000" stop-color="rgb(69,69,69)"/>
  <stop offset="0.5313" stop-color="rgb(68,68,68)"/>
  <stop offset="0.5625" stop-color="rgb(67,67,67)"/>
  <stop offset="0.5938" stop-color="rgb(66,66,66)"/>
  <stop offset="0.6250" stop-color="rgb(64,64,64)"/>
  <stop offset="0.6563" stop-color="rgb(63,63,63)"/>
  <stop offset="0.6875" stop-color="rgb(60,60,60)"/>
  <stop offset="0.7188" stop-color="rgb(57,57,57)"/>
  <stop offset="0.7500" stop-color="rgb(54,54,54)"/>
  <stop offset="0.7813" stop-color="rgb(51,51,51)"/>
  <stop offset="0.8125" stop-color="rgb(48,48,48)"/>
  <stop offset="0.8438" stop-color="rgb(46,46,46)"/>
  <stop offset="0.8750" stop-color="rgb(43,43,43)"/>
  <stop offset="0.9063" stop-color="rgb(40,40,40)"/>
  <stop offset="0.9375" stop-color="rgb(27,27,27)"/>
  <stop offset="0.9688" stop-color="rgb(14,14,14)"/>
  <stop offset="1.0000" stop-color="rgb(0,0,0)"/>
</radialGradient></defs>
<circle cx="790" cy="140" r="81" fill="url(#g_NGC5371)"/>
<text x="790" y="49" text-anchor="middle" class="preview-lbl">face-on luminance from ρ(r)</text>
<text x="790" y="239" text-anchor="middle" class="preview-lbl">edge at r = 49.9 kpc</text>
</svg>