<svg xmlns="http://www.w3.org/2000/svg" viewBox="0 0 720 420" width="720" height="420" font-family="sans-serif" font-size="12">
<style>
  .ax { stroke: #333; stroke-width: 1; fill: none; }
  .grid { stroke: #ddd; stroke-width: 0.5; fill: none; }
  .lbl { fill: #333; }
  .lbl-l { fill: #0066cc; }
  .lbl-r { fill: #b03030; }
  .obs { fill: #222; }
  .err { stroke: #555; stroke-width: 0.8; fill: none; }
  .fw { stroke: #0066cc; stroke-width: 2.2; fill: none; }
  .nt { stroke: #cc6600; stroke-width: 1.6; fill: none; stroke-dasharray: 5,3; }
  .rho { stroke: #b03030; stroke-width: 2.0; fill: none; }
  .sig { stroke: #b03030; stroke-width: 1.6; fill: none; stroke-dasharray: 4,2; opacity: 0.85; }
  .title { fill: #111; font-size: 16px; font-weight: 600; }
  .subtitle { fill: #555; font-size: 11px; }
  .legend { font-size: 11px; }
</style>
<text x="360.0" y="22" text-anchor="middle" class="title">NGC5371</text>
<text x="360.0" y="38" text-anchor="middle" class="subtitle">rMax=46.2 kpc, N=19, RMS=8.6 km/s (3.9%), amp=212</text>
<line x1="70" y1="365.0" x2="635" y2="365.0" class="grid"/>
<text x="64" y="369.0" text-anchor="end" class="lbl-l">0</text>
<line x1="70" y1="303.0" x2="635" y2="303.0" class="grid"/>
<text x="64" y="307.0" text-anchor="end" class="lbl-l">202</text>
<line x1="70" y1="241.0" x2="635" y2="241.0" class="grid"/>
<text x="64" y="245.0" text-anchor="end" class="lbl-l">404</text>
<line x1="70" y1="178.99999999999997" x2="635" y2="178.99999999999997" class="grid"/>
<text x="64" y="182.99999999999997" text-anchor="end" class="lbl-l">606</text>
<line x1="70" y1="116.99999999999999" x2="635" y2="116.99999999999999" class="grid"/>
<text x="64" y="120.99999999999999" text-anchor="end" class="lbl-l">808</text>
<line x1="70" y1="55.0" x2="635" y2="55.0" class="grid"/>
<text x="64" y="59.0" text-anchor="end" class="lbl-l">1010</text>
<text x="641" y="369.0" text-anchor="start" class="lbl-r">0.0</text>
<text x="641" y="327.6666666666667" text-anchor="start" class="lbl-r">0.2</text>
<text x="641" y="286.33333333333337" text-anchor="start" class="lbl-r">0.4</text>
<text x="641" y="245.00000000000003" text-anchor="start" class="lbl-r">0.6</text>
<text x="641" y="203.66666666666666" text-anchor="start" class="lbl-r">0.8</text>
<text x="641" y="162.33333333333334" text-anchor="start" class="lbl-r">1.0</text>
<line x1="70.0" y1="55" x2="70.0" y2="365" class="grid"/>
<text x="70.0" y="381" text-anchor="middle" class="lbl">0.0</text>
<line x1="164.16666666666666" y1="55" x2="164.16666666666666" y2="365" class="grid"/>
<text x="164.16666666666666" y="381" text-anchor="middle" class="lbl">8.7</text>
<line x1="258.3333333333333" y1="55" x2="258.3333333333333" y2="365" class="grid"/>
<text x="258.3333333333333" y="381" text-anchor="middle" class="lbl">17.5</text>
<line x1="352.5" y1="55" x2="352.5" y2="365" class="grid"/>
<text x="352.5" y="381" text-anchor="middle" class="lbl">26.2</text>
<line x1="446.66666666666663" y1="55" x2="446.66666666666663" y2="365" class="grid"/>
<text x="446.66666666666663" y="381" text-anchor="middle" class="lbl">35.0</text>
<line x1="540.8333333333333" y1="55" x2="540.8333333333333" y2="365" class="grid"/>
<text x="540.8333333333333" y="381" text-anchor="middle" class="lbl">43.7</text>
<line x1="635.0" y1="55" x2="635.0" y2="365" class="grid"/>
<text x="635.0" y="381" text-anchor="middle" class="lbl">52.4</text>
<text x="352.5" y="408" text-anchor="middle" class="lbl">radius (kpc)</text>
<text x="16" y="210.0" text-anchor="middle" class="lbl-l" transform="rotate(-90, 16, 210.0)">velocity (km/s)</text>
<text x="704" y="210.0" text-anchor="middle" class="lbl-r" transform="rotate(-90, 704, 210.0)">mass profile (normalized to peak)</text>
<rect x="70" y="55" width="565" height="310" class="ax"/>
<path d="M 70.0,158.3 L 72.6,174.0 L 75.2,189.7 L 77.7,205.4 L 80.3,221.1 L 82.9,236.7 L 85.5,252.4 L 88.1,268.1 L 90.6,283.8 L 93.2,290.3 L 95.8,295.7 L 98.4,301.1 L 101.0,306.5 L 103.5,311.9 L 106.1,313.0 L 108.7,313.4 L 111.3,313.8 L 113.9,314.2 L 116.4,314.6 L 119.0,315.0 L 121.6,315.4 L 124.2,315.8 L 126.8,316.3 L 129.3,316.7 L 131.9,317.1 L 134.5,317.5 L 137.1,317.9 L 139.7,318.3 L 142.2,318.7 L 144.8,319.1 L 147.4,319.5 L 150.0,319.9 L 152.6,320.3 L 155.1,320.7 L 157.7,321.1 L 160.3,321.5 L 162.9,321.9 L 165.5,322.3 L 168.0,322.7 L 170.6,323.1 L 173.2,323.6 L 175.8,324.0 L 178.4,324.4 L 180.9,324.8 L 183.5,325.2 L 186.1,325.6 L 188.7,326.0 L 191.3,326.4 L 193.8,326.8 L 196.4,327.2 L 199.0,327.6 L 201.6,328.0 L 204.2,328.4 L 206.7,328.8 L 209.3,329.2 L 211.9,329.6 L 214.5,330.0 L 217.1,330.4 L 219.6,330.8 L 222.2,331.3 L 224.8,331.7 L 227.4,332.1 L 230.0,332.5 L 232.5,332.9 L 235.1,333.3 L 237.7,333.7 L 240.3,334.1 L 242.9,334.5 L 245.4,334.9 L 248.0,335.3 L 250.6,335.7 L 253.2,336.1 L 255.8,336.5 L 258.3,336.9 L 260.9,337.3 L 263.5,337.4 L 266.1,337.5 L 268.7,337.7 L 271.2,337.8 L 273.8,337.9 L 276.4,338.1 L 279.0,338.2 L 281.6,338.3 L 284.1,338.5 L 286.7,338.6 L 289.3,338.7 L 291.9,338.9 L 294.5,339.0 L 297.0,339.2 L 299.6,339.3 L 302.2,339.4 L 304.8,339.6 L 307.4,339.7 L 309.9,339.8 L 312.5,340.0 L 315.1,340.1 L 317.7,340.2 L 320.3,340.4 L 322.8,340.5 L 325.4,340.6 L 328.0,340.8 L 330.6,340.9 L 333.2,341.0 L 335.7,341.2 L 338.3,341.3 L 340.9,341.4 L 343.5,341.6 L 346.1,341.7 L 348.6,341.8 L 351.2,342.0 L 353.8,342.1 L 356.4,342.2 L 358.9,342.4 L 361.5,342.5 L 364.1,342.6 L 366.7,342.8 L 369.3,342.9 L 371.8,343.0 L 374.4,343.2 L 377.0,343.3 L 379.6,343.4 L 382.2,343.6 L 384.7,343.7 L 387.3,343.8 L 389.9,344.0 L 392.5,344.1 L 395.1,344.2 L 397.6,344.4 L 400.2,344.5 L 402.8,344.7 L 405.4,344.8 L 408.0,344.9 L 410.5,345.1 L 413.1,345.2 L 415.7,345.3 L 418.3,345.5 L 420.9,345.6 L 423.4,345.7 L 426.0,345.9 L 428.6,346.0 L 431.2,346.1 L 433.8,346.3 L 436.3,346.4 L 438.9,346.5 L 441.5,346.7 L 444.1,346.8 L 446.7,346.9 L 449.2,347.1 L 451.8,347.2 L 454.4,347.3 L 457.0,347.5 L 459.6,347.6 L 462.1,347.7 L 464.7,347.9 L 467.3,348.0 L 469.9,348.1 L 472.5,348.3 L 475.0,348.4 L 477.6,348.5 L 480.2,348.7 L 482.8,348.8 L 485.4,348.9 L 487.9,349.1 L 490.5,349.2 L 493.1,349.3 L 495.7,349.5 L 498.3,349.6 L 500.8,349.7 L 503.4,349.9 L 506.0,350.0 L 508.6,350.1 L 511.2,350.3 L 513.7,350.4 L 516.3,350.6 L 518.9,350.7 L 521.5,350.8 L 524.1,351.0 L 526.6,351.1 L 529.2,351.2 L 531.8,351.4 L 534.4,351.5 L 537.0,351.6 L 539.5,351.8 L 542.1,351.9 L 544.7,352.0 L 547.3,352.2 L 549.9,352.3 L 552.4,352.4 L 555.0,352.6 L 557.6,352.7 L 560.2,353.0 L 562.8,353.7 L 565.3,354.3 L 567.9,355.0 L 570.5,355.6 L 573.1,356.2 L 575.7,356.9 L 578.2,357.5 L 580.8,358.2 L 583.4,358.8 L 586.0,359.5 L 588.6,360.1 L 591.1,360.8 L 593.7,361.4 L 596.3,362.1 L 598.9,362.7 L 601.5,363.3 L 604.0,364.0 L 606.6,364.6 L 609.2,365.0 L 611.8,365.0 L 614.4,365.0 L 616.9,365.0 L 619.5,365.0 L 622.1,365.0 L 624.7,365.0 L 627.3,365.0 L 629.8,365.0 L 632.4,365.0 L 635.0,365.0" class="rho"/>
<path d="M 70.0,158.3 L 72.6,160.5 L 75.2,163.8 L 77.7,168.4 L 80.3,173.9 L 82.9,180.1 L 85.5,186.6 L 88.1,193.2 L 90.6,199.5 L 93.2,205.3 L 95.8,210.8 L 98.4,215.7 L 101.0,220.2 L 103.5,224.2 L 106.1,227.7 L 108.7,230.9 L 111.3,233.8 L 113.9,236.5 L 116.4,238.9 L 119.0,241.1 L 121.6,243.2 L 124.2,245.2 L 126.8,247.0 L 129.3,248.8 L 131.9,250.5 L 134.5,252.1 L 137.1,253.7 L 139.7,255.2 L 142.2,256.7 L 144.8,258.2 L 147.4,259.6 L 150.0,261.0 L 152.6,262.3 L 155.1,263.6 L 157.7,264.9 L 160.3,266.2 L 162.9,267.5 L 165.5,268.7 L 168.0,270.0 L 170.6,271.2 L 173.2,272.4 L 175.8,273.6 L 178.4,274.8 L 180.9,275.9 L 183.5,277.1 L 186.1,278.2 L 188.7,279.3 L 191.3,280.4 L 193.8,281.5 L 196.4,282.6 L 199.0,283.7 L 201.6,284.8 L 204.2,285.8 L 206.7,286.9 L 209.3,287.9 L 211.9,288.9 L 214.5,290.0 L 217.1,291.0 L 219.6,291.9 L 222.2,292.9 L 224.8,293.9 L 227.4,294.8 L 230.0,295.8 L 232.5,296.7 L 235.1,297.6 L 237.7,298.5 L 240.3,299.4 L 242.9,300.3 L 245.4,301.1 L 248.0,302.0 L 250.6,302.8 L 253.2,303.6 L 255.8,304.4 L 258.3,305.2 L 260.9,305.9 L 263.5,306.7 L 266.1,307.4 L 268.7,308.1 L 271.2,308.8 L 273.8,309.5 L 276.4,310.2 L 279.0,310.8 L 281.6,311.4 L 284.1,312.1 L 286.7,312.7 L 289.3,313.3 L 291.9,313.9 L 294.5,314.5 L 297.0,315.1 L 299.6,315.7 L 302.2,316.2 L 304.8,316.8 L 307.4,317.3 L 309.9,317.9 L 312.5,318.4 L 315.1,318.9 L 317.7,319.5 L 320.3,320.0 L 322.8,320.5 L 325.4,321.0 L 328.0,321.5 L 330.6,322.0 L 333.2,322.5 L 335.7,323.0 L 338.3,323.4 L 340.9,323.9 L 343.5,324.4 L 346.1,324.8 L 348.6,325.3 L 351.2,325.7 L 353.8,326.2 L 356.4,326.6 L 358.9,327.1 L 361.5,327.5 L 364.1,327.9 L 366.7,328.4 L 369.3,328.8 L 371.8,329.2 L 374.4,329.6 L 377.0,330.0 L 379.6,330.4 L 382.2,330.8 L 384.7,331.2 L 387.3,331.6 L 389.9,332.0 L 392.5,332.4 L 395.1,332.8 L 397.6,333.2 L 400.2,333.5 L 402.8,333.9 L 405.4,334.3 L 408.0,334.6 L 410.5,335.0 L 413.1,335.4 L 415.7,335.7 L 418.3,336.1 L 420.9,336.4 L 423.4,336.8 L 426.0,337.1 L 428.6,337.4 L 431.2,337.8 L 433.8,338.1 L 436.3,338.4 L 438.9,338.8 L 441.5,339.1 L 444.1,339.4 L 446.7,339.7 L 449.2,340.0 L 451.8,340.3 L 454.4,340.7 L 457.0,341.0 L 459.6,341.3 L 462.1,341.6 L 464.7,341.9 L 467.3,342.2 L 469.9,342.5 L 472.5,342.7 L 475.0,343.0 L 477.6,343.3 L 480.2,343.6 L 482.8,343.9 L 485.4,344.1 L 487.9,344.4 L 490.5,344.7 L 493.1,345.0 L 495.7,345.2 L 498.3,345.5 L 500.8,345.8 L 503.4,346.0 L 506.0,346.3 L 508.6,346.5 L 511.2,346.8 L 513.7,347.0 L 516.3,347.3 L 518.9,347.5 L 521.5,347.8 L 524.1,348.0 L 526.6,348.3 L 529.2,348.5 L 531.8,348.7 L 534.4,349.0 L 537.0,349.2 L 539.5,349.4 L 542.1,349.7 L 544.7,349.9 L 547.3,350.1 L 549.9,350.4 L 552.4,350.6 L 555.0,350.8 L 557.6,351.1 L 560.2,351.3 L 562.8,351.5 L 565.3,351.8 L 567.9,352.0 L 570.5,352.2 L 573.1,352.4 L 575.7,352.6 L 578.2,352.9 L 580.8,353.1 L 583.4,353.3 L 586.0,353.5 L 588.6,353.7 L 591.1,353.8 L 593.7,354.0 L 596.3,354.2 L 598.9,354.4 L 601.5,354.5 L 604.0,354.7 L 606.6,354.8 L 609.2,355.0 L 611.8,355.1 L 614.4,355.2 L 616.9,355.4 L 619.5,355.5 L 622.1,355.6 L 624.7,355.7 L 627.3,355.9 L 629.8,356.0 L 632.4,356.1 L 635.0,356.2" class="sig"/>
<path d="M 75.7,277.2 L 81.3,248.8 L 87.0,233.2 L 92.6,225.8 L 98.2,220.8 L 103.9,217.4 L 109.5,214.3 L 115.2,210.5 L 120.8,206.3 L 126.5,201.9 L 132.2,197.5 L 137.8,193.2 L 143.4,188.9 L 149.1,184.8 L 154.8,180.7 L 160.4,176.9 L 166.1,173.1 L 171.7,169.5 L 177.3,166.1 L 183.0,162.8 L 188.6,159.6 L 194.3,156.6 L 199.9,153.8 L 205.6,151.0 L 211.2,148.4 L 216.9,146.0 L 222.5,143.6 L 228.2,141.4 L 233.9,139.3 L 239.5,137.3 L 245.2,135.5 L 250.8,133.7 L 256.4,132.1 L 262.1,130.5 L 267.8,129.1 L 273.4,127.6 L 279.1,126.1 L 284.7,124.6 L 290.3,123.2 L 296.0,121.7 L 301.6,120.3 L 307.3,118.9 L 312.9,117.6 L 318.6,116.2 L 324.2,114.9 L 329.9,113.6 L 335.6,112.3 L 341.2,111.0 L 346.8,109.8 L 352.5,108.6 L 358.1,107.4 L 363.8,106.3 L 369.4,105.1 L 375.1,104.0 L 380.8,103.0 L 386.4,101.9 L 392.0,100.9 L 397.7,99.9 L 403.3,99.0 L 409.0,98.0 L 414.6,97.1 L 420.3,96.2 L 425.9,95.4 L 431.6,94.6 L 437.2,93.8 L 442.9,93.0 L 448.6,92.2 L 454.2,91.5 L 459.8,90.9 L 465.5,90.2 L 471.2,89.6 L 476.8,88.9 L 482.4,88.4 L 488.1,87.8 L 493.8,87.3 L 499.4,86.8 L 505.1,86.3 L 510.7,85.9 L 516.3,85.5 L 522.0,85.1 L 527.6,84.8 L 533.3,84.4 L 539.0,84.1 L 544.6,83.8 L 550.2,83.6 L 555.9,83.4 L 561.5,83.2 L 567.2,83.2 L 572.8,83.3 L 578.5,83.7 L 584.1,84.3 L 589.8,85.0 L 595.4,85.9 L 601.1,87.0 L 606.8,88.4 L 612.4,89.8 L 618.0,91.2 L 623.7,92.6 L 629.4,94.0 L 635.0,95.4" class="nt"/>
<path d="M 74.7,338.1 L 79.4,320.6 L 84.1,306.5 L 88.8,297.6 L 93.5,293.7 L 98.2,293.0 L 103.0,294.3 L 107.7,296.4 L 112.4,298.4 L 117.1,300.0 L 121.8,301.0 L 126.5,301.5 L 131.2,301.6 L 135.9,301.4 L 140.6,301.0 L 145.3,300.5 L 150.0,299.8 L 154.8,299.0 L 159.5,298.2 L 164.2,297.4 L 168.9,296.6 L 173.6,295.7 L 178.3,294.9 L 183.0,294.1 L 187.7,293.3 L 192.4,292.6 L 197.1,291.9 L 201.8,291.3 L 206.5,290.7 L 211.2,290.2 L 216.0,289.7 L 220.7,289.4 L 225.4,289.1 L 230.1,288.8 L 234.8,288.7 L 239.5,288.7 L 244.2,288.9 L 248.9,289.1 L 253.6,289.5 L 258.3,290.1 L 263.0,290.7 L 267.8,291.4 L 272.5,291.9 L 277.2,292.4 L 281.9,292.8 L 286.6,293.1 L 291.3,293.3 L 296.0,293.6 L 300.7,293.8 L 305.4,293.9 L 310.1,294.1 L 314.8,294.2 L 319.5,294.3 L 324.2,294.4 L 329.0,294.5 L 333.7,294.6 L 338.4,294.7 L 343.1,294.8 L 347.8,294.9 L 352.5,294.9 L 357.2,295.0 L 361.9,295.1 L 366.6,295.2 L 371.3,295.2 L 376.0,295.3 L 380.8,295.4 L 385.5,295.5 L 390.2,295.6 L 394.9,295.7 L 399.6,295.8 L 404.3,295.9 L 409.0,296.0 L 413.7,296.1 L 418.4,296.2 L 423.1,296.3 L 427.8,296.4 L 432.5,296.6 L 437.2,296.7 L 442.0,296.9 L 446.7,297.0 L 451.4,297.2 L 456.1,297.3 L 460.8,297.5 L 465.5,297.6 L 470.2,297.8 L 474.9,298.0 L 479.6,298.2 L 484.3,298.3 L 489.0,298.5 L 493.8,298.7 L 498.5,298.9 L 503.2,299.0 L 507.9,299.2 L 512.6,299.3 L 517.3,299.4 L 522.0,299.5 L 526.7,299.6 L 531.4,299.6 L 536.1,299.6 L 540.8,299.5 L 545.5,299.4 L 550.2,299.2 L 555.0,299.0 L 559.7,298.9 L 564.4,299.0 L 569.1,299.3 L 573.8,299.9 L 578.5,300.9 L 583.2,302.0 L 587.9,303.4 L 592.6,304.9 L 597.3,306.5 L 602.0,308.0 L 606.8,309.6 L 611.5,311.0 L 616.2,312.3 L 620.9,313.5 L 625.6,314.7 L 630.3,315.7 L 635.0,316.6" class="fw"/>
<line x1="85.62243890225744" y1="295.6245097711019" x2="85.62243890225744" y2="301.76393368516364" class="err"/>
<line x1="82.62243890225744" y1="295.6245097711019" x2="88.62243890225744" y2="295.6245097711019" class="err"/>
<line x1="82.62243890225744" y1="301.76393368516364" x2="88.62243890225744" y2="301.76393368516364" class="err"/>
<circle cx="85.62243890225744" cy="298.69422172813273" r="2.5" class="obs"/>
<line x1="101.02939588862168" y1="296.8523945539142" x2="101.02939588862168" y2="301.14999129375747" class="err"/>
<line x1="98.02939588862168" y1="296.8523945539142" x2="104.02939588862168" y2="296.8523945539142" class="err"/>
<line x1="98.02939588862168" y1="301.14999129375747" x2="104.02939588862168" y2="301.14999129375747" class="err"/>
<circle cx="101.02939588862168" cy="299.00119292383584" r="2.5" class="obs"/>
<line x1="116.65183479087912" y1="297.46633694532045" x2="116.65183479087912" y2="300.5360489023513" class="err"/>
<line x1="113.65183479087912" y1="297.46633694532045" x2="119.65183479087912" y2="297.46633694532045" class="err"/>
<line x1="113.65183479087912" y1="300.5360489023513" x2="119.65183479087912" y2="300.5360489023513" class="err"/>
<circle cx="116.65183479087912" cy="299.00119292383584" r="2.5" class="obs"/>
<line x1="132.27427369313656" y1="298.08027933672656" x2="132.27427369313656" y2="300.5360489023513" class="err"/>
<line x1="129.27427369313656" y1="298.08027933672656" x2="135.27427369313656" y2="298.08027933672656" class="err"/>
<line x1="129.27427369313656" y1="300.5360489023513" x2="135.27427369313656" y2="300.5360489023513" class="err"/>
<circle cx="132.27427369313656" cy="299.3081641195389" r="2.5" class="obs"/>
<line x1="147.7889716374474" y1="297.7733081410235" x2="147.7889716374474" y2="300.2290777066482" class="err"/>
<line x1="144.7889716374474" y1="297.7733081410235" x2="150.7889716374474" y2="297.7733081410235" class="err"/>
<line x1="144.7889716374474" y1="300.2290777066482" x2="150.7889716374474" y2="300.2290777066482" class="err"/>
<circle cx="147.7889716374474" cy="299.00119292383584" r="2.5" class="obs"/>
<line x1="163.30366958175824" y1="296.238452162508" x2="163.30366958175824" y2="298.08027933672656" class="err"/>
<line x1="160.30366958175824" y1="296.238452162508" x2="166.30366958175824" y2="296.238452162508" class="err"/>
<line x1="160.30366958175824" y1="298.08027933672656" x2="166.30366958175824" y2="298.08027933672656" class="err"/>
<circle cx="163.30366958175824" cy="297.15936574961734" r="2.5" class="obs"/>
<line x1="194.4408064283265" y1="292.554797814071" x2="194.4408064283265" y2="294.3966249882895" class="err"/>
<line x1="191.4408064283265" y1="292.554797814071" x2="197.4408064283265" y2="292.554797814071" class="err"/>
<line x1="191.4408064283265" y1="294.3966249882895" x2="197.4408064283265" y2="294.3966249882895" class="err"/>
<circle cx="194.4408064283265" cy="293.4757114011802" r="2.5" class="obs"/>
<line x1="226.0089071066812" y1="291.32691303125864" x2="226.0089071066812" y2="293.1687402054771" class="err"/>
<line x1="223.0089071066812" y1="291.32691303125864" x2="229.0089071066812" y2="291.32691303125864" class="err"/>
<line x1="223.0089071066812" y1="293.1687402054771" x2="229.0089071066812" y2="293.1687402054771" class="err"/>
<circle cx="226.0089071066812" cy="292.24782661836787" r="2.5" class="obs"/>
<line x1="256.17637533173007" y1="289.7920570527432" x2="256.17637533173007" y2="291.6338842269617" class="err"/>
<line x1="253.17637533173007" y1="289.7920570527432" x2="259.17637533173007" y2="289.7920570527432" class="err"/>
<line x1="253.17637533173007" y1="291.6338842269617" x2="259.17637533173007" y2="291.6338842269617" class="err"/>
<circle cx="256.17637533173007" cy="290.7129706398524" r="2.5" class="obs"/>
<line x1="287.63673505213814" y1="290.09902824844625" x2="287.63673505213814" y2="291.9408554226648" class="err"/>
<line x1="284.63673505213814" y1="290.09902824844625" x2="290.63673505213814" y2="290.09902824844625" class="err"/>
<line x1="284.63673505213814" y1="291.9408554226648" x2="290.63673505213814" y2="291.9408554226648" class="err"/>
<circle cx="287.63673505213814" cy="291.0199418355555" r="2.5" class="obs"/>
<line x1="319.09709477254626" y1="290.40599944414936" x2="319.09709477254626" y2="292.24782661836787" class="err"/>
<line x1="316.09709477254626" y1="290.40599944414936" x2="322.09709477254626" y2="290.40599944414936" class="err"/>
<line x1="316.09709477254626" y1="292.24782661836787" x2="322.09709477254626" y2="292.24782661836787" class="err"/>
<circle cx="319.09709477254626" cy="291.32691303125864" r="2.5" class="obs"/>
<line x1="350.55745449295426" y1="292.24782661836787" x2="350.55745449295426" y2="294.08965379258643" class="err"/>
<line x1="347.55745449295426" y1="292.24782661836787" x2="353.55745449295426" y2="292.24782661836787" class="err"/>
<line x1="347.55745449295426" y1="294.08965379258643" x2="353.55745449295426" y2="294.08965379258643" class="err"/>
<circle cx="350.55745449295426" cy="293.1687402054771" r="2.5" class="obs"/>
<line x1="380.72492271800314" y1="294.70359618399254" x2="380.72492271800314" y2="296.5454233582111" class="err"/>
<line x1="377.72492271800314" y1="294.70359618399254" x2="383.72492271800314" y2="294.70359618399254" class="err"/>
<line x1="377.72492271800314" y1="296.5454233582111" x2="383.72492271800314" y2="296.5454233582111" class="err"/>
<circle cx="380.72492271800314" cy="295.6245097711019" r="2.5" class="obs"/>
<line x1="412.1852824384112" y1="298.69422172813273" x2="412.1852824384112" y2="300.5360489023513" class="err"/>
<line x1="409.1852824384112" y1="298.69422172813273" x2="415.1852824384112" y2="298.69422172813273" class="err"/>
<line x1="409.1852824384112" y1="300.5360489023513" x2="415.1852824384112" y2="300.5360489023513" class="err"/>
<circle cx="412.1852824384112" cy="299.615135315242" r="2.5" class="obs"/>
<line x1="443.64564215881927" y1="300.5360489023513" x2="443.64564215881927" y2="302.3778760765698" class="err"/>
<line x1="440.64564215881927" y1="300.5360489023513" x2="446.64564215881927" y2="300.5360489023513" class="err"/>
<line x1="440.64564215881927" y1="302.3778760765698" x2="446.64564215881927" y2="302.3778760765698" class="err"/>
<circle cx="443.64564215881927" cy="301.4569624894606" r="2.5" class="obs"/>
<line x1="473.81311038386815" y1="299.9221065109451" x2="473.81311038386815" y2="302.3778760765698" class="err"/>
<line x1="470.81311038386815" y1="299.9221065109451" x2="476.81311038386815" y2="299.9221065109451" class="err"/>
<line x1="470.81311038386815" y1="302.3778760765698" x2="476.81311038386815" y2="302.3778760765698" class="err"/>
<circle cx="473.81311038386815" cy="301.14999129375747" r="2.5" class="obs"/>
<line x1="505.27347010427627" y1="299.615135315242" x2="505.27347010427627" y2="302.07090488086675" class="err"/>
<line x1="502.27347010427627" y1="299.615135315242" x2="508.27347010427627" y2="299.615135315242" class="err"/>
<line x1="502.27347010427627" y1="302.07090488086675" x2="508.27347010427627" y2="302.07090488086675" class="err"/>
<circle cx="505.27347010427627" cy="300.84302009805435" r="2.5" class="obs"/>
<line x1="536.7338298246843" y1="300.2290777066482" x2="536.7338298246843" y2="302.6848472722729" class="err"/>
<line x1="533.7338298246843" y1="300.2290777066482" x2="539.7338298246843" y2="300.2290777066482" class="err"/>
<line x1="533.7338298246843" y1="302.6848472722729" x2="539.7338298246843" y2="302.6848472722729" class="err"/>
<circle cx="536.7338298246843" cy="301.4569624894606" r="2.5" class="obs"/>
<line x1="568.1941895450925" y1="297.7733081410235" x2="568.1941895450925" y2="301.4569624894606" class="err"/>
<line x1="565.1941895450925" y1="297.7733081410235" x2="571.1941895450925" y2="297.7733081410235" class="err"/>
<line x1="565.1941895450925" y1="301.4569624894606" x2="571.1941895450925" y2="301.4569624894606" class="err"/>
<circle cx="568.1941895450925" cy="299.615135315242" r="2.5" class="obs"/>
<g class="legend">
<line x1="82" y1="69" x2="106" y2="69" class="fw"/>
<text x="112" y="73" class="lbl-l">framework fit</text>
<line x1="82" y1="87" x2="106" y2="87" class="nt"/>
<text x="112" y="91" class="lbl-l">Newtonian (no halo)</text>
<circle cx="94" cy="105" r="2.5" class="obs"/>
<text x="112" y="109" class="lbl">observed V±err</text>
</g>
<g class="legend">
<line x1="460" y1="69" x2="484" y2="69" class="rho"/>
<text x="490" y="73" class="lbl-r">ρ(r) raw</text>
<line x1="460" y1="87" x2="484" y2="87" class="sig"/>
<text x="490" y="91" class="lbl-r">Σ(r) smoothed</text>
<text x="460" y="113" class="lbl-r">ρ peak: 12979 M☉/pc²</text>
</g>
</svg>