<svg xmlns="http://www.w3.org/2000/svg" viewBox="0 0 960 450" width="960" height="450" font-family="sans-serif" font-size="12">
<style>
  .ax { stroke: #333; stroke-width: 1; fill: none; }
  .grid { stroke: #ddd; stroke-width: 0.5; fill: none; }
  .lbl { fill: #333; }
  .lbl-l { fill: #0066cc; }
  .lbl-r { fill: #b03030; }
  .obs { fill: #222; }
  .err { stroke: #555; stroke-width: 0.8; fill: none; }
  .fw { stroke: #0066cc; stroke-width: 2.2; fill: none; }
  .nt { stroke: #cc6600; stroke-width: 1.6; fill: none; stroke-dasharray: 5,3; }
  .mond { stroke: #7b2cbf; stroke-width: 1.8; fill: none; stroke-dasharray: 7,3; }
  .lbl-p { fill: #cc7000; }
  .lbl-m { fill: #7b2cbf; }
  .rho { stroke: #b03030; stroke-width: 2.0; fill: none; }
  .phot { stroke: #cc7000; stroke-width: 1.8; fill: none; }
  .mbar { stroke: #8e44ad; stroke-width: 1.8; fill: none; opacity: 0.9; }
  .mph { stroke: #c77dff; stroke-width: 1.6; fill: none; stroke-dasharray: 4,3; opacity: 0.95; }
  .title { fill: #111; font-size: 16px; font-weight: 600; }
  .subtitle { fill: #555; font-size: 11px; }
  .preview-bg { fill: #000; }
  .preview-lbl { fill: #888; font-size: 10px; }
  .legend { font-size: 11px; }
</style>
<text x="378.5" y="22" text-anchor="middle" class="title">NGC5055</text>
<text x="378.5" y="38" text-anchor="middle" class="subtitle">rMax=54.6 kpc, N=28, FW=6.4 km/s, 4.0%, 5.22σ, MOND=27.6 km/s, 14.9%, 27.75σ, amp=940</text>
<line x1="70" y1="395.0" x2="687" y2="395.0" class="grid"/>
<text x="64" y="399.0" text-anchor="end" class="lbl-l">0</text>
<line x1="70" y1="327.0" x2="687" y2="327.0" class="grid"/>
<text x="64" y="331.0" text-anchor="end" class="lbl-l">61</text>
<line x1="70" y1="259.0" x2="687" y2="259.0" class="grid"/>
<text x="64" y="263.0" text-anchor="end" class="lbl-l">122</text>
<line x1="70" y1="191.0" x2="687" y2="191.0" class="grid"/>
<text x="64" y="195.0" text-anchor="end" class="lbl-l">183</text>
<line x1="70" y1="123.0" x2="687" y2="123.0" class="grid"/>
<text x="64" y="127.0" text-anchor="end" class="lbl-l">244</text>
<line x1="70" y1="55.0" x2="687" y2="55.0" class="grid"/>
<text x="64" y="59.0" text-anchor="end" class="lbl-l">306</text>
<text x="693" y="399.0" text-anchor="start" class="lbl-r">0.0</text>
<text x="693" y="353.7" text-anchor="start" class="lbl-r">0.2</text>
<text x="693" y="308.3" text-anchor="start" class="lbl-r">0.4</text>
<text x="693" y="263.0" text-anchor="start" class="lbl-r">0.6</text>
<text x="693" y="217.7" text-anchor="start" class="lbl-r">0.8</text>
<text x="693" y="172.3" text-anchor="start" class="lbl-r">1.0</text>
<line x1="70.0" y1="55" x2="70.0" y2="395" class="grid"/>
<text x="70.0" y="411" text-anchor="middle" class="lbl">0.0</text>
<line x1="172.8" y1="55" x2="172.8" y2="395" class="grid"/>
<text x="172.8" y="411" text-anchor="middle" class="lbl">9.6</text>
<line x1="275.7" y1="55" x2="275.7" y2="395" class="grid"/>
<text x="275.7" y="411" text-anchor="middle" class="lbl">19.1</text>
<line x1="378.5" y1="55" x2="378.5" y2="395" class="grid"/>
<text x="378.5" y="411" text-anchor="middle" class="lbl">28.7</text>
<line x1="481.3" y1="55" x2="481.3" y2="395" class="grid"/>
<text x="481.3" y="411" text-anchor="middle" class="lbl">38.2</text>
<line x1="584.2" y1="55" x2="584.2" y2="395" class="grid"/>
<text x="584.2" y="411" text-anchor="middle" class="lbl">47.8</text>
<line x1="687.0" y1="55" x2="687.0" y2="395" class="grid"/>
<text x="687.0" y="411" text-anchor="middle" class="lbl">57.3</text>
<text x="378.5" y="438" text-anchor="middle" class="lbl">radius (kpc)</text>
<text x="16" y="225" text-anchor="middle" class="lbl-l" transform="rotate(-90, 16, 225)">velocity (km/s)</text>
<text x="724" y="225" text-anchor="middle" class="lbl-r" transform="rotate(-90, 724, 225)">profiles (normalized to peak)</text>
<rect x="70" y="55" width="617" height="340" class="ax"/>
<path d="M 70.0,168.3 L 72.8,190.4 L 75.6,212.5 L 78.5,234.5 L 81.3,256.6 L 84.1,278.6 L 86.9,300.7 L 89.7,322.8 L 92.5,325.5 L 95.4,326.2 L 98.2,327.0 L 101.0,327.7 L 103.8,328.5 L 106.6,329.2 L 109.4,330.0 L 112.3,330.7 L 115.1,331.5 L 117.9,332.2 L 120.7,333.0 L 123.5,333.7 L 126.3,334.5 L 129.2,335.2 L 132.0,336.0 L 134.8,336.7 L 137.6,337.5 L 140.4,338.2 L 143.3,339.0 L 146.1,339.7 L 148.9,340.5 L 151.7,341.2 L 154.5,342.0 L 157.3,342.7 L 160.2,343.5 L 163.0,344.2 L 165.8,345.0 L 168.6,345.7 L 171.4,346.5 L 174.2,347.2 L 177.1,348.0 L 179.9,348.7 L 182.7,349.1 L 185.5,349.3 L 188.3,349.5 L 191.1,349.8 L 194.0,350.0 L 196.8,350.3 L 199.6,350.5 L 202.4,350.7 L 205.2,351.0 L 208.1,351.2 L 210.9,351.5 L 213.7,351.7 L 216.5,352.0 L 219.3,352.2 L 222.1,352.4 L 225.0,352.7 L 227.8,352.9 L 230.6,353.2 L 233.4,353.4 L 236.2,353.6 L 239.0,353.9 L 241.9,354.1 L 244.7,354.4 L 247.5,354.6 L 250.3,354.9 L 253.1,355.1 L 255.9,355.3 L 258.8,355.6 L 261.6,355.8 L 264.4,356.1 L 267.2,356.3 L 270.0,356.5 L 272.8,356.8 L 275.7,357.0 L 278.5,357.3 L 281.3,357.5 L 284.1,357.8 L 286.9,358.0 L 289.8,358.2 L 292.6,358.5 L 295.4,358.7 L 298.2,359.0 L 301.0,359.2 L 303.8,359.4 L 306.7,359.7 L 309.5,359.9 L 312.3,360.2 L 315.1,360.4 L 317.9,360.7 L 320.7,360.9 L 323.6,361.1 L 326.4,361.4 L 329.2,361.6 L 332.0,361.7 L 334.8,361.9 L 337.6,362.0 L 340.5,362.2 L 343.3,362.3 L 346.1,362.5 L 348.9,362.6 L 351.7,362.8 L 354.6,362.9 L 357.4,363.1 L 360.2,363.2 L 363.0,363.4 L 365.8,363.5 L 368.6,363.6 L 371.5,363.8 L 374.3,363.9 L 377.1,364.1 L 379.9,364.2 L 382.7,364.4 L 385.5,364.5 L 388.4,364.7 L 391.2,364.8 L 394.0,365.0 L 396.8,365.1 L 399.6,365.2 L 402.4,365.4 L 405.3,365.5 L 408.1,365.7 L 410.9,365.8 L 413.7,366.0 L 416.5,366.1 L 419.4,366.3 L 422.2,366.4 L 425.0,366.6 L 427.8,366.7 L 430.6,366.8 L 433.4,367.0 L 436.3,367.1 L 439.1,367.3 L 441.9,367.4 L 444.7,367.6 L 447.5,367.7 L 450.3,367.9 L 453.2,368.0 L 456.0,368.2 L 458.8,368.3 L 461.6,368.5 L 464.4,368.6 L 467.2,368.7 L 470.1,368.9 L 472.9,369.0 L 475.7,369.2 L 478.5,369.3 L 481.3,369.5 L 484.2,369.6 L 487.0,369.8 L 489.8,369.9 L 492.6,370.1 L 495.4,370.2 L 498.2,370.3 L 501.1,370.5 L 503.9,370.6 L 506.7,370.8 L 509.5,370.9 L 512.3,371.1 L 515.1,371.2 L 518.0,371.4 L 520.8,371.5 L 523.6,371.7 L 526.4,371.8 L 529.2,371.9 L 532.0,372.1 L 534.9,372.2 L 537.7,372.4 L 540.5,372.5 L 543.3,372.7 L 546.1,372.8 L 548.9,373.0 L 551.8,373.1 L 554.6,373.3 L 557.4,373.4 L 560.2,373.6 L 563.0,373.7 L 565.9,373.8 L 568.7,374.0 L 571.5,374.1 L 574.3,374.3 L 577.1,374.4 L 579.9,374.6 L 582.8,374.7 L 585.6,374.9 L 588.4,375.0 L 591.2,375.2 L 594.0,375.3 L 596.8,375.4 L 599.7,375.6 L 602.5,375.7 L 605.3,375.9 L 608.1,376.0 L 610.9,376.2 L 613.7,376.3 L 616.6,376.5 L 619.4,376.6 L 622.2,376.8 L 625.0,376.9 L 627.8,377.0 L 630.7,377.2 L 633.5,377.3 L 636.3,377.5 L 639.1,377.6 L 641.9,377.8 L 644.7,377.9 L 647.6,378.1 L 650.4,378.2 L 653.2,382.4 L 656.0,390.4 L 658.8,395.0 L 661.6,395.0 L 664.5,395.0 L 667.3,395.0 L 670.1,395.0 L 672.9,395.0 L 675.7,395.0 L 678.5,395.0 L 681.4,395.0 L 684.2,395.0 L 687.0,395.0" class="rho"/>
<path d="M 77.8,168.3 L 85.4,279.0 L 93.3,311.8 L 100.9,345.1 L 108.6,360.7 L 116.3,366.2 L 124.1,371.8 L 131.9,375.7 L 139.5,380.4 L 147.3,383.6 L 155.1,386.1 L 162.8,387.8 L 193.7,392.1 L 223.9,393.6 L 255.0,394.5 L 286.0,394.8 L 317.1,394.9 L 348.3,395.0 L 379.4,395.0 L 410.4,395.0 L 441.5,395.0 L 472.6,395.0 L 503.7,395.0 L 534.7,395.0 L 564.3,395.0 L 595.4,395.0 L 626.5,395.0 L 657.6,395.0" class="phot"/>
<path d="M 77.8,168.3 L 85.4,226.3 L 93.3,275.4 L 100.9,308.8 L 108.6,341.1 L 116.3,355.4 L 124.1,356.8 L 131.9,358.4 L 139.5,363.4 L 147.3,372.4 L 155.1,378.6 L 162.8,382.4 L 193.7,387.2 L 223.9,390.8 L 255.0,393.0 L 286.0,394.5 L 317.1,395.0 L 348.3,395.0 L 379.4,394.9 L 410.4,394.8 L 441.5,394.8 L 472.6,394.8 L 503.7,394.8 L 534.7,394.7 L 564.3,394.7 L 595.4,394.8 L 626.5,394.9 L 657.6,395.0" class="mbar"/>
<path d="M 77.8,210.4 L 85.4,191.3 L 93.3,176.5 L 100.9,170.3 L 108.6,168.3 L 116.3,172.2 L 124.1,178.0 L 131.9,182.3 L 139.5,187.8 L 147.3,196.0 L 155.1,204.4 L 162.8,215.6 L 193.7,234.4 L 223.9,257.0 L 255.0,279.8 L 286.0,301.5 L 317.1,317.4 L 348.3,326.5 L 379.4,331.5 L 410.4,334.8 L 441.5,339.5 L 472.6,344.6 L 503.7,346.6 L 534.7,347.1 L 564.3,349.2 L 595.4,353.3 L 626.5,358.2 L 657.6,361.9" class="mph"/>
<path d="M 76.2,310.4 L 82.3,285.7 L 88.5,275.2 L 94.7,271.1 L 100.8,265.4 L 107.0,259.1 L 113.2,252.6 L 119.4,246.4 L 125.5,240.3 L 131.7,234.6 L 137.9,229.2 L 144.0,224.2 L 150.2,219.4 L 156.4,214.9 L 162.6,210.8 L 168.7,206.9 L 174.9,203.2 L 181.1,199.9 L 187.2,196.6 L 193.4,193.4 L 199.6,190.2 L 205.7,187.2 L 211.9,184.1 L 218.1,181.2 L 224.3,178.3 L 230.4,175.4 L 236.6,172.7 L 242.8,170.0 L 248.9,167.4 L 255.1,164.8 L 261.3,162.3 L 267.4,159.9 L 273.6,157.5 L 279.8,155.3 L 286.0,153.0 L 292.1,150.9 L 298.3,148.8 L 304.5,146.8 L 310.6,144.8 L 316.8,142.9 L 323.0,141.0 L 329.1,139.3 L 335.3,137.5 L 341.5,135.8 L 347.6,134.1 L 353.8,132.4 L 360.0,130.8 L 366.2,129.2 L 372.3,127.6 L 378.5,126.1 L 384.7,124.5 L 390.8,123.1 L 397.0,121.6 L 403.2,120.2 L 409.3,118.8 L 415.5,117.4 L 421.7,116.0 L 427.9,114.7 L 434.0,113.4 L 440.2,112.2 L 446.4,111.0 L 452.5,109.7 L 458.7,108.6 L 464.9,107.4 L 471.1,106.3 L 477.2,105.2 L 483.4,104.2 L 489.6,103.1 L 495.7,102.1 L 501.9,101.1 L 508.1,100.2 L 514.2,99.3 L 520.4,98.4 L 526.6,97.5 L 532.8,96.6 L 538.9,95.8 L 545.1,95.0 L 551.3,94.3 L 557.4,93.5 L 563.6,92.8 L 569.8,92.1 L 575.9,91.4 L 582.1,90.8 L 588.3,90.2 L 594.4,89.6 L 600.6,89.0 L 606.8,88.5 L 613.0,88.0 L 619.1,87.5 L 625.3,87.0 L 631.5,86.6 L 637.6,86.2 L 643.8,85.8 L 650.0,85.4 L 656.2,85.6 L 662.3,87.2 L 668.5,88.7 L 674.7,90.3 L 680.8,91.9 L 687.0,93.4" class="nt"/>
<path d="M 77.8,231.2 L 85.4,196.1 L 93.3,173.5 L 100.9,155.9 L 108.6,156.4 L 116.3,152.8 L 124.1,147.4 L 131.9,141.4 L 139.5,135.0 L 147.3,134.0 L 155.1,133.2 L 162.8,132.7 L 193.7,135.7 L 223.9,137.8 L 255.0,140.6 L 286.0,147.2 L 317.1,152.9 L 348.3,157.2 L 379.4,159.3 L 410.4,160.4 L 441.5,160.5 L 472.6,162.3 L 503.7,162.3 L 534.7,162.0 L 564.3,161.1 L 595.4,161.2 L 626.5,161.7 L 657.6,162.9" class="mond"/>
<path d="M 75.1,300.6 L 80.3,245.7 L 85.4,203.8 L 90.6,182.9 L 95.7,177.9 L 100.8,180.7 L 106.0,184.9 L 111.1,186.8 L 116.3,186.7 L 121.4,185.1 L 126.6,182.3 L 131.7,179.1 L 136.8,175.7 L 142.0,172.4 L 147.1,169.3 L 152.3,166.6 L 157.4,164.5 L 162.6,163.1 L 167.7,162.6 L 172.8,163.1 L 178.0,164.5 L 183.1,166.6 L 188.3,168.8 L 193.4,170.8 L 198.5,172.3 L 203.7,173.3 L 208.8,174.0 L 214.0,174.4 L 219.1,174.5 L 224.2,174.5 L 229.4,174.3 L 234.5,174.1 L 239.7,173.8 L 244.8,173.5 L 250.0,173.1 L 255.1,172.7 L 260.2,172.3 L 265.4,172.0 L 270.5,171.7 L 275.7,171.5 L 280.8,171.3 L 286.0,171.3 L 291.1,171.3 L 296.2,171.5 L 301.4,171.8 L 306.5,172.3 L 311.7,173.1 L 316.8,174.1 L 321.9,175.3 L 327.1,176.8 L 332.2,178.4 L 337.4,179.9 L 342.5,181.3 L 347.6,182.5 L 352.8,183.5 L 357.9,184.3 L 363.1,185.0 L 368.2,185.7 L 373.4,186.2 L 378.5,186.7 L 383.6,187.1 L 388.8,187.5 L 393.9,187.9 L 399.1,188.2 L 404.2,188.6 L 409.4,188.9 L 414.5,189.2 L 419.6,189.5 L 424.8,189.8 L 429.9,190.1 L 435.1,190.4 L 440.2,190.7 L 445.3,191.1 L 450.5,191.4 L 455.6,191.8 L 460.8,192.1 L 465.9,192.5 L 471.0,192.9 L 476.2,193.3 L 481.3,193.7 L 486.5,194.1 L 491.6,194.6 L 496.8,195.0 L 501.9,195.5 L 507.0,196.0 L 512.2,196.5 L 517.3,197.0 L 522.5,197.5 L 527.6,198.1 L 532.8,198.6 L 537.9,199.1 L 543.0,199.7 L 548.2,200.2 L 553.3,200.7 L 558.5,201.2 L 563.6,201.7 L 568.7,202.2 L 573.9,202.6 L 579.0,203.0 L 584.2,203.2 L 589.3,203.4 L 594.5,203.5 L 599.6,203.3 L 604.7,202.9 L 609.9,202.2 L 615.0,201.1 L 620.2,199.4 L 625.3,197.1 L 630.4,194.1 L 635.6,190.6 L 640.7,187.2 L 645.9,184.9 L 651.0,185.1 L 656.2,188.1 L 661.3,194.3 L 666.4,202.6 L 671.6,211.8 L 676.7,220.8 L 681.9,229.2 L 687.0,236.4" class="fw"/>
<line x1="77.75" y1="236.31" x2="77.75" y2="275.48" class="err"/>
<line x1="74.75" y1="236.31" x2="80.75" y2="236.31" class="err"/>
<line x1="74.75" y1="275.48" x2="80.75" y2="275.48" class="err"/>
<circle cx="77.75" cy="255.89" r="2.5" class="obs"/>
<line x1="85.39" y1="205.26" x2="85.39" y2="224.18" class="err"/>
<line x1="82.39" y1="205.26" x2="88.39" y2="205.26" class="err"/>
<line x1="82.39" y1="224.18" x2="88.39" y2="224.18" class="err"/>
<circle cx="85.39" cy="214.72" r="2.5" class="obs"/>
<line x1="93.25" y1="191.10" x2="93.25" y2="202.72" class="err"/>
<line x1="90.25" y1="191.10" x2="96.25" y2="191.10" class="err"/>
<line x1="90.25" y1="202.72" x2="96.25" y2="202.72" class="err"/>
<circle cx="93.25" cy="196.91" r="2.5" class="obs"/>
<line x1="100.89" y1="178.13" x2="100.89" y2="182.31" class="err"/>
<line x1="97.89" y1="178.13" x2="103.89" y2="178.13" class="err"/>
<line x1="97.89" y1="182.31" x2="103.89" y2="182.31" class="err"/>
<circle cx="100.89" cy="180.22" r="2.5" class="obs"/>
<line x1="108.64" y1="177.34" x2="108.64" y2="185.33" class="err"/>
<line x1="105.64" y1="177.34" x2="111.64" y2="177.34" class="err"/>
<line x1="105.64" y1="185.33" x2="111.64" y2="185.33" class="err"/>
<circle cx="108.64" cy="181.33" r="2.5" class="obs"/>
<line x1="116.29" y1="182.48" x2="116.29" y2="184.64" class="err"/>
<line x1="113.29" y1="182.48" x2="119.29" y2="182.48" class="err"/>
<line x1="113.29" y1="184.64" x2="119.29" y2="184.64" class="err"/>
<circle cx="116.29" cy="183.56" r="2.5" class="obs"/>
<line x1="124.14" y1="176.89" x2="124.14" y2="179.10" class="err"/>
<line x1="121.14" y1="176.89" x2="127.14" y2="176.89" class="err"/>
<line x1="121.14" y1="179.10" x2="127.14" y2="179.10" class="err"/>
<circle cx="124.14" cy="178.00" r="2.5" class="obs"/>
<line x1="131.89" y1="170.82" x2="131.89" y2="171.82" class="err"/>
<line x1="128.89" y1="170.82" x2="134.89" y2="170.82" class="err"/>
<line x1="128.89" y1="171.82" x2="134.89" y2="171.82" class="err"/>
<circle cx="131.89" cy="171.32" r="2.5" class="obs"/>
<line x1="139.54" y1="167.08" x2="139.54" y2="168.88" class="err"/>
<line x1="136.54" y1="167.08" x2="142.54" y2="167.08" class="err"/>
<line x1="136.54" y1="168.88" x2="142.54" y2="168.88" class="err"/>
<circle cx="139.54" cy="167.98" r="2.5" class="obs"/>
<line x1="147.29" y1="167.26" x2="147.29" y2="168.70" class="err"/>
<line x1="144.29" y1="167.26" x2="150.29" y2="167.26" class="err"/>
<line x1="144.29" y1="168.70" x2="150.29" y2="168.70" class="err"/>
<circle cx="147.29" cy="167.98" r="2.5" class="obs"/>
<line x1="155.15" y1="165.02" x2="155.15" y2="166.49" class="err"/>
<line x1="152.15" y1="165.02" x2="158.15" y2="165.02" class="err"/>
<line x1="152.15" y1="166.49" x2="158.15" y2="166.49" class="err"/>
<circle cx="155.15" cy="165.75" r="2.5" class="obs"/>
<line x1="162.79" y1="164.04" x2="162.79" y2="167.47" class="err"/>
<line x1="159.79" y1="164.04" x2="165.79" y2="164.04" class="err"/>
<line x1="159.79" y1="167.47" x2="165.79" y2="167.47" class="err"/>
<circle cx="162.79" cy="165.75" r="2.5" class="obs"/>
<line x1="193.68" y1="163.64" x2="193.68" y2="167.87" class="err"/>
<line x1="190.68" y1="163.64" x2="196.68" y2="163.64" class="err"/>
<line x1="190.68" y1="167.87" x2="196.68" y2="167.87" class="err"/>
<circle cx="193.68" cy="165.75" r="2.5" class="obs"/>
<line x1="223.93" y1="165.29" x2="223.93" y2="166.22" class="err"/>
<line x1="220.93" y1="165.29" x2="226.93" y2="165.29" class="err"/>
<line x1="220.93" y1="166.22" x2="226.93" y2="166.22" class="err"/>
<circle cx="223.93" cy="165.75" r="2.5" class="obs"/>
<line x1="255.04" y1="164.43" x2="255.04" y2="173.76" class="err"/>
<line x1="252.04" y1="164.43" x2="258.04" y2="164.43" class="err"/>
<line x1="252.04" y1="173.76" x2="258.04" y2="173.76" class="err"/>
<circle cx="255.04" cy="169.09" r="2.5" class="obs"/>
<line x1="286.04" y1="171.06" x2="286.04" y2="173.80" class="err"/>
<line x1="283.04" y1="171.06" x2="289.04" y2="171.06" class="err"/>
<line x1="283.04" y1="173.80" x2="289.04" y2="173.80" class="err"/>
<circle cx="286.04" cy="172.43" r="2.5" class="obs"/>
<line x1="317.15" y1="174.56" x2="317.15" y2="183.66" class="err"/>
<line x1="314.15" y1="174.56" x2="320.15" y2="174.56" class="err"/>
<line x1="314.15" y1="183.66" x2="320.15" y2="183.66" class="err"/>
<circle cx="317.15" cy="179.11" r="2.5" class="obs"/>
<line x1="348.26" y1="180.00" x2="348.26" y2="191.57" class="err"/>
<line x1="345.26" y1="180.00" x2="351.26" y2="180.00" class="err"/>
<line x1="345.26" y1="191.57" x2="351.26" y2="191.57" class="err"/>
<circle cx="348.26" cy="185.79" r="2.5" class="obs"/>
<line x1="379.36" y1="188.95" x2="379.36" y2="191.53" class="err"/>
<line x1="376.36" y1="188.95" x2="382.36" y2="188.95" class="err"/>
<line x1="376.36" y1="191.53" x2="382.36" y2="191.53" class="err"/>
<circle cx="379.36" cy="190.24" r="2.5" class="obs"/>
<line x1="410.36" y1="189.71" x2="410.36" y2="195.21" class="err"/>
<line x1="407.36" y1="189.71" x2="413.36" y2="189.71" class="err"/>
<line x1="407.36" y1="195.21" x2="413.36" y2="195.21" class="err"/>
<circle cx="410.36" cy="192.46" r="2.5" class="obs"/>
<line x1="441.47" y1="190.40" x2="441.47" y2="198.97" class="err"/>
<line x1="438.47" y1="190.40" x2="444.47" y2="190.40" class="err"/>
<line x1="438.47" y1="198.97" x2="444.47" y2="198.97" class="err"/>
<circle cx="441.47" cy="194.69" r="2.5" class="obs"/>
<line x1="472.58" y1="184.19" x2="472.58" y2="202.96" class="err"/>
<line x1="469.58" y1="184.19" x2="475.58" y2="184.19" class="err"/>
<line x1="469.58" y1="202.96" x2="475.58" y2="202.96" class="err"/>
<circle cx="472.58" cy="193.58" r="2.5" class="obs"/>
<line x1="503.69" y1="189.62" x2="503.69" y2="199.75" class="err"/>
<line x1="500.69" y1="189.62" x2="506.69" y2="189.62" class="err"/>
<line x1="500.69" y1="199.75" x2="506.69" y2="199.75" class="err"/>
<circle cx="503.69" cy="194.69" r="2.5" class="obs"/>
<line x1="534.69" y1="195.31" x2="534.69" y2="196.29" class="err"/>
<line x1="531.69" y1="195.31" x2="537.69" y2="195.31" class="err"/>
<line x1="531.69" y1="196.29" x2="537.69" y2="196.29" class="err"/>
<circle cx="534.69" cy="195.80" r="2.5" class="obs"/>
<line x1="564.29" y1="193.62" x2="564.29" y2="197.98" class="err"/>
<line x1="561.29" y1="193.62" x2="567.29" y2="193.62" class="err"/>
<line x1="561.29" y1="197.98" x2="567.29" y2="197.98" class="err"/>
<circle cx="564.29" cy="195.80" r="2.5" class="obs"/>
<line x1="595.40" y1="192.47" x2="595.40" y2="199.13" class="err"/>
<line x1="592.40" y1="192.47" x2="598.40" y2="192.47" class="err"/>
<line x1="592.40" y1="199.13" x2="598.40" y2="199.13" class="err"/>
<circle cx="595.40" cy="195.80" r="2.5" class="obs"/>
<line x1="626.51" y1="197.59" x2="626.51" y2="205.14" class="err"/>
<line x1="623.51" y1="197.59" x2="629.51" y2="197.59" class="err"/>
<line x1="623.51" y1="205.14" x2="629.51" y2="205.14" class="err"/>
<circle cx="626.51" cy="201.37" r="2.5" class="obs"/>
<line x1="657.62" y1="198.20" x2="657.62" y2="208.98" class="err"/>
<line x1="654.62" y1="198.20" x2="660.62" y2="198.20" class="err"/>
<line x1="654.62" y1="208.98" x2="660.62" y2="208.98" class="err"/>
<circle cx="657.62" cy="203.59" r="2.5" class="obs"/>
<g class="legend">
<line x1="82" y1="69" x2="106" y2="69" class="fw"/>
<text x="112" y="73" class="lbl-l">framework: 6.4 km/s, 4.0%, 5.22σ</text>
<line x1="82" y1="87" x2="106" y2="87" class="nt"/>
<text x="112" y="91" class="lbl-l">Newtonian: 64.7 km/s, 35.8%, 57.19σ</text>
<line x1="82" y1="105" x2="106" y2="105" class="mond"/>
<text x="112" y="109" class="lbl-m">MOND/RAR: 27.6 km/s, 14.9%, 27.75σ</text>
<circle cx="94" cy="123" r="2.5" class="obs"/>
<text x="112" y="127" class="lbl">observed V±err</text>
</g>
<g class="legend">
<line x1="472" y1="69" x2="496" y2="69" class="rho"/>
<text x="502" y="73" class="lbl-r">ρ(r) raw</text>
<line x1="472" y1="87" x2="496" y2="87" class="phot"/>
<text x="502" y="91" class="lbl-p">photometric baryonic profile</text>
<line x1="472" y1="105" x2="496" y2="105" class="mbar"/>
<text x="502" y="109" class="lbl-m">MOND baryonic annulus</text>
<line x1="472" y1="123" x2="496" y2="123" class="mph"/>
<text x="502" y="127" class="lbl-m">MOND phantom annulus</text>
<text x="472" y="147" class="lbl-r">ρ peak: 870 M☉/pc²</text>
<text x="472" y="163" class="lbl-p">phot peak: 2039.96 (arb.)</text>
<text x="472" y="179" class="lbl-m">Σbar peak: 1887.90 M☉/pc²</text>
<text x="472" y="195" class="lbl-m">Σphantom peak: 181.04 M☉/pc²</text>
</g>
<rect x="775" y="55" width="170" height="170" class="preview-bg"/>
<defs><radialGradient id="g_NGC5055" cx="0.5" cy="0.5" r="0.5">
  <stop offset="0.0000" stop-color="rgb(255,255,255)"/>
  <stop offset="0.0313" stop-color="rgb(123,123,123)"/>
  <stop offset="0.0625" stop-color="rgb(105,105,105)"/>
  <stop offset="0.0938" stop-color="rgb(100,100,100)"/>
  <stop offset="0.1250" stop-color="rgb(95,95,95)"/>
  <stop offset="0.1563" stop-color="rgb(90,90,90)"/>
  <stop offset="0.1875" stop-color="rgb(85,85,85)"/>
  <stop offset="0.2188" stop-color="rgb(83,83,83)"/>
  <stop offset="0.2500" stop-color="rgb(82,82,82)"/>
  <stop offset="0.2813" stop-color="rgb(80,80,80)"/>
  <stop offset="0.3125" stop-color="rgb(78,78,78)"/>
  <stop offset="0.3438" stop-color="rgb(77,77,77)"/>
  <stop offset="0.3750" stop-color="rgb(75,75,75)"/>
  <stop offset="0.4063" stop-color="rgb(73,73,73)"/>
  <stop offset="0.4375" stop-color="rgb(72,72,72)"/>
  <stop offset="0.4688" stop-color="rgb(71,71,71)"/>
  <stop offset="0.5000" stop-color="rgb(70,70,70)"/>
  <stop offset="0.5313" stop-color="rgb(69,69,69)"/>
  <stop offset="0.5625" stop-color="rgb(68,68,68)"/>
  <stop offset="0.5938" stop-color="rgb(67,67,67)"/>
  <stop offset="0.6250" stop-color="rgb(66,66,66)"/>
  <stop offset="0.6563" stop-color="rgb(65,65,65)"/>
  <stop offset="0.6875" stop-color="rgb(63,63,63)"/>
  <stop offset="0.7188" stop-color="rgb(61,61,61)"/>
  <stop offset="0.7500" stop-color="rgb(59,59,59)"/>
  <stop offset="0.7813" stop-color="rgb(56,56,56)"/>
  <stop offset="0.8125" stop-color="rgb(54,54,54)"/>
  <stop offset="0.8438" stop-color="rgb(52,52,52)"/>
  <stop offset="0.8750" stop-color="rgb(49,49,49)"/>
  <stop offset="0.9063" stop-color="rgb(47,47,47)"/>
  <stop offset="0.9375" stop-color="rgb(45,45,45)"/>
  <stop offset="0.9688" stop-color="rgb(42,42,42)"/>
  <stop offset="1.0000" stop-color="rgb(0,0,0)"/>
</radialGradient></defs>
<circle cx="860" cy="140" r="81" fill="url(#g_NGC5055)"/>
<text x="860" y="49" text-anchor="middle" class="preview-lbl">face-on luminance from ρ(r)</text>
<text x="860" y="239" text-anchor="middle" class="preview-lbl">edge at r = 54.6 kpc</text>
</svg>