<svg xmlns="http://www.w3.org/2000/svg" viewBox="0 0 720 420" width="720" height="420" font-family="sans-serif" font-size="12">
<style>
  .ax { stroke: #333; stroke-width: 1; fill: none; }
  .grid { stroke: #ddd; stroke-width: 0.5; fill: none; }
  .lbl { fill: #333; }
  .lbl-l { fill: #0066cc; }
  .lbl-r { fill: #b03030; }
  .obs { fill: #222; }
  .err { stroke: #555; stroke-width: 0.8; fill: none; }
  .fw { stroke: #0066cc; stroke-width: 2.2; fill: none; }
  .nt { stroke: #cc6600; stroke-width: 1.6; fill: none; stroke-dasharray: 5,3; }
  .rho { stroke: #b03030; stroke-width: 2.0; fill: none; }
  .sig { stroke: #b03030; stroke-width: 1.6; fill: none; stroke-dasharray: 4,2; opacity: 0.85; }
  .title { fill: #111; font-size: 16px; font-weight: 600; }
  .subtitle { fill: #555; font-size: 11px; }
  .legend { font-size: 11px; }
</style>
<text x="360.0" y="22" text-anchor="middle" class="title">NGC5985</text>
<text x="360.0" y="38" text-anchor="middle" class="subtitle">rMax=34.7 kpc, N=33, RMS=4.9 km/s (1.7%), amp=572</text>
<line x1="70" y1="365.0" x2="635" y2="365.0" class="grid"/>
<text x="64" y="369.0" text-anchor="end" class="lbl-l">0</text>
<line x1="70" y1="303.0" x2="635" y2="303.0" class="grid"/>
<text x="64" y="307.0" text-anchor="end" class="lbl-l">74</text>
<line x1="70" y1="241.00000000000003" x2="635" y2="241.00000000000003" class="grid"/>
<text x="64" y="245.00000000000003" text-anchor="end" class="lbl-l">149</text>
<line x1="70" y1="179.0" x2="635" y2="179.0" class="grid"/>
<text x="64" y="183.0" text-anchor="end" class="lbl-l">223</text>
<line x1="70" y1="117.00000000000003" x2="635" y2="117.00000000000003" class="grid"/>
<text x="64" y="121.00000000000003" text-anchor="end" class="lbl-l">297</text>
<line x1="70" y1="55.0" x2="635" y2="55.0" class="grid"/>
<text x="64" y="59.0" text-anchor="end" class="lbl-l">372</text>
<text x="641" y="369.0" text-anchor="start" class="lbl-r">0.0</text>
<text x="641" y="327.6666666666667" text-anchor="start" class="lbl-r">0.2</text>
<text x="641" y="286.33333333333337" text-anchor="start" class="lbl-r">0.4</text>
<text x="641" y="245.00000000000003" text-anchor="start" class="lbl-r">0.6</text>
<text x="641" y="203.66666666666666" text-anchor="start" class="lbl-r">0.8</text>
<text x="641" y="162.33333333333334" text-anchor="start" class="lbl-r">1.0</text>
<line x1="70.0" y1="55" x2="70.0" y2="365" class="grid"/>
<text x="70.0" y="381" text-anchor="middle" class="lbl">0.0</text>
<line x1="164.16666666666669" y1="55" x2="164.16666666666669" y2="365" class="grid"/>
<text x="164.16666666666669" y="381" text-anchor="middle" class="lbl">7.2</text>
<line x1="258.33333333333337" y1="55" x2="258.33333333333337" y2="365" class="grid"/>
<text x="258.33333333333337" y="381" text-anchor="middle" class="lbl">14.4</text>
<line x1="352.5" y1="55" x2="352.5" y2="365" class="grid"/>
<text x="352.5" y="381" text-anchor="middle" class="lbl">21.5</text>
<line x1="446.6666666666667" y1="55" x2="446.6666666666667" y2="365" class="grid"/>
<text x="446.6666666666667" y="381" text-anchor="middle" class="lbl">28.7</text>
<line x1="540.8333333333333" y1="55" x2="540.8333333333333" y2="365" class="grid"/>
<text x="540.8333333333333" y="381" text-anchor="middle" class="lbl">35.9</text>
<line x1="635.0" y1="55" x2="635.0" y2="365" class="grid"/>
<text x="635.0" y="381" text-anchor="middle" class="lbl">43.1</text>
<text x="352.5" y="408" text-anchor="middle" class="lbl">radius (kpc)</text>
<text x="16" y="210.0" text-anchor="middle" class="lbl-l" transform="rotate(-90, 16, 210.0)">velocity (km/s)</text>
<text x="704" y="210.0" text-anchor="middle" class="lbl-r" transform="rotate(-90, 704, 210.0)">mass profile (normalized to peak)</text>
<rect x="70" y="55" width="565" height="310" class="ax"/>
<path d="M 70.0,158.3 L 72.6,164.3 L 75.2,170.3 L 77.7,176.3 L 80.3,182.3 L 82.9,188.3 L 85.5,194.3 L 88.1,200.3 L 90.6,206.3 L 93.2,212.3 L 95.8,218.3 L 98.4,224.3 L 101.0,227.8 L 103.5,229.5 L 106.1,231.3 L 108.7,233.0 L 111.3,234.7 L 113.9,236.4 L 116.4,238.1 L 119.0,239.9 L 121.6,241.6 L 124.2,243.3 L 126.8,245.0 L 129.3,246.7 L 131.9,248.5 L 134.5,250.2 L 137.1,251.9 L 139.7,253.6 L 142.2,255.3 L 144.8,257.0 L 147.4,258.8 L 150.0,260.5 L 152.6,262.2 L 155.1,263.9 L 157.7,265.4 L 160.3,266.2 L 162.9,267.0 L 165.5,267.8 L 168.0,268.7 L 170.6,269.5 L 173.2,270.3 L 175.8,271.1 L 178.4,272.0 L 180.9,272.8 L 183.5,273.6 L 186.1,274.4 L 188.7,275.2 L 191.3,276.1 L 193.8,276.9 L 196.4,277.7 L 199.0,278.5 L 201.6,279.4 L 204.2,280.2 L 206.7,281.0 L 209.3,281.8 L 211.9,282.6 L 214.5,283.5 L 217.1,284.3 L 219.6,285.1 L 222.2,285.9 L 224.8,286.8 L 227.4,287.6 L 230.0,288.4 L 232.5,289.2 L 235.1,289.8 L 237.7,290.1 L 240.3,290.4 L 242.9,290.7 L 245.4,291.0 L 248.0,291.3 L 250.6,291.6 L 253.2,291.9 L 255.8,292.3 L 258.3,292.6 L 260.9,292.9 L 263.5,293.2 L 266.1,293.5 L 268.7,293.8 L 271.2,294.1 L 273.8,294.4 L 276.4,294.7 L 279.0,295.0 L 281.6,295.4 L 284.1,295.7 L 286.7,296.0 L 289.3,296.3 L 291.9,296.6 L 294.5,296.9 L 297.0,297.2 L 299.6,297.5 L 302.2,297.8 L 304.8,298.1 L 307.4,298.5 L 309.9,298.8 L 312.5,299.1 L 315.1,299.4 L 317.7,299.7 L 320.3,300.0 L 322.8,300.3 L 325.4,300.6 L 328.0,300.9 L 330.6,301.2 L 333.2,301.6 L 335.7,301.9 L 338.3,302.2 L 340.9,302.5 L 343.5,302.8 L 346.1,303.1 L 348.6,303.4 L 351.2,303.7 L 353.8,304.0 L 356.4,304.3 L 358.9,304.7 L 361.5,305.0 L 364.1,305.3 L 366.7,305.6 L 369.3,305.9 L 371.8,306.2 L 374.4,306.5 L 377.0,306.8 L 379.6,307.1 L 382.2,307.4 L 384.7,307.8 L 387.3,308.1 L 389.9,308.4 L 392.5,308.7 L 395.1,309.0 L 397.6,309.3 L 400.2,309.6 L 402.8,309.9 L 405.4,310.2 L 408.0,310.5 L 410.5,310.9 L 413.1,311.2 L 415.7,311.5 L 418.3,311.8 L 420.9,312.1 L 423.4,312.4 L 426.0,312.7 L 428.6,313.0 L 431.2,313.3 L 433.8,313.6 L 436.3,314.0 L 438.9,314.3 L 441.5,314.6 L 444.1,314.9 L 446.7,315.2 L 449.2,315.5 L 451.8,315.8 L 454.4,316.1 L 457.0,316.4 L 459.6,316.7 L 462.1,317.1 L 464.7,317.4 L 467.3,317.7 L 469.9,318.0 L 472.5,318.3 L 475.0,318.6 L 477.6,318.9 L 480.2,319.2 L 482.8,319.5 L 485.4,319.8 L 487.9,320.2 L 490.5,320.5 L 493.1,320.8 L 495.7,321.1 L 498.3,321.4 L 500.8,321.7 L 503.4,322.0 L 506.0,322.3 L 508.6,322.6 L 511.2,322.9 L 513.7,323.3 L 516.3,323.6 L 518.9,323.9 L 521.5,324.2 L 524.1,324.5 L 526.6,324.8 L 529.2,325.1 L 531.8,325.4 L 534.4,325.7 L 537.0,326.0 L 539.5,326.4 L 542.1,326.7 L 544.7,327.0 L 547.3,327.3 L 549.9,327.6 L 552.4,327.9 L 555.0,328.2 L 557.6,328.5 L 560.2,328.8 L 562.8,329.1 L 565.3,329.5 L 567.9,329.8 L 570.5,330.1 L 573.1,330.4 L 575.7,332.2 L 578.2,334.8 L 580.8,337.4 L 583.4,340.0 L 586.0,342.7 L 588.6,345.3 L 591.1,347.9 L 593.7,350.5 L 596.3,353.1 L 598.9,355.7 L 601.5,358.3 L 604.0,360.9 L 606.6,363.5 L 609.2,365.0 L 611.8,365.0 L 614.4,365.0 L 616.9,365.0 L 619.5,365.0 L 622.1,365.0 L 624.7,365.0 L 627.3,365.0 L 629.8,365.0 L 632.4,365.0 L 635.0,365.0" class="rho"/>
<path d="M 70.0,158.3 L 72.6,158.6 L 75.2,159.0 L 77.7,159.7 L 80.3,160.6 L 82.9,161.7 L 85.5,163.1 L 88.1,164.5 L 90.6,166.1 L 93.2,167.8 L 95.8,169.7 L 98.4,171.5 L 101.0,173.5 L 103.5,175.4 L 106.1,177.4 L 108.7,179.5 L 111.3,181.5 L 113.9,183.5 L 116.4,185.6 L 119.0,187.7 L 121.6,189.7 L 124.2,191.8 L 126.8,193.9 L 129.3,196.0 L 131.9,198.0 L 134.5,200.1 L 137.1,202.1 L 139.7,204.2 L 142.2,206.2 L 144.8,208.2 L 147.4,210.2 L 150.0,212.2 L 152.6,214.1 L 155.1,216.1 L 157.7,218.0 L 160.3,219.8 L 162.9,221.7 L 165.5,223.5 L 168.0,225.3 L 170.6,227.0 L 173.2,228.8 L 175.8,230.5 L 178.4,232.2 L 180.9,233.9 L 183.5,235.5 L 186.1,237.1 L 188.7,238.7 L 191.3,240.3 L 193.8,241.9 L 196.4,243.4 L 199.0,244.9 L 201.6,246.4 L 204.2,247.9 L 206.7,249.4 L 209.3,250.8 L 211.9,252.2 L 214.5,253.6 L 217.1,255.0 L 219.6,256.3 L 222.2,257.6 L 224.8,258.9 L 227.4,260.2 L 230.0,261.4 L 232.5,262.7 L 235.1,263.9 L 237.7,265.0 L 240.3,266.2 L 242.9,267.3 L 245.4,268.4 L 248.0,269.5 L 250.6,270.6 L 253.2,271.6 L 255.8,272.6 L 258.3,273.7 L 260.9,274.6 L 263.5,275.6 L 266.1,276.6 L 268.7,277.5 L 271.2,278.5 L 273.8,279.4 L 276.4,280.3 L 279.0,281.2 L 281.6,282.1 L 284.1,283.0 L 286.7,283.8 L 289.3,284.7 L 291.9,285.5 L 294.5,286.4 L 297.0,287.2 L 299.6,288.0 L 302.2,288.8 L 304.8,289.6 L 307.4,290.4 L 309.9,291.2 L 312.5,291.9 L 315.1,292.7 L 317.7,293.5 L 320.3,294.2 L 322.8,295.0 L 325.4,295.7 L 328.0,296.4 L 330.6,297.2 L 333.2,297.9 L 335.7,298.6 L 338.3,299.3 L 340.9,300.0 L 343.5,300.7 L 346.1,301.4 L 348.6,302.1 L 351.2,302.7 L 353.8,303.4 L 356.4,304.1 L 358.9,304.7 L 361.5,305.4 L 364.1,306.0 L 366.7,306.7 L 369.3,307.3 L 371.8,307.9 L 374.4,308.6 L 377.0,309.2 L 379.6,309.8 L 382.2,310.4 L 384.7,311.0 L 387.3,311.6 L 389.9,312.2 L 392.5,312.8 L 395.1,313.4 L 397.6,314.0 L 400.2,314.6 L 402.8,315.1 L 405.4,315.7 L 408.0,316.3 L 410.5,316.8 L 413.1,317.4 L 415.7,318.0 L 418.3,318.5 L 420.9,319.1 L 423.4,319.6 L 426.0,320.1 L 428.6,320.7 L 431.2,321.2 L 433.8,321.7 L 436.3,322.2 L 438.9,322.7 L 441.5,323.3 L 444.1,323.8 L 446.7,324.3 L 449.2,324.8 L 451.8,325.3 L 454.4,325.8 L 457.0,326.2 L 459.6,326.7 L 462.1,327.2 L 464.7,327.7 L 467.3,328.2 L 469.9,328.6 L 472.5,329.1 L 475.0,329.6 L 477.6,330.0 L 480.2,330.5 L 482.8,330.9 L 485.4,331.4 L 487.9,331.8 L 490.5,332.3 L 493.1,332.7 L 495.7,333.1 L 498.3,333.6 L 500.8,334.0 L 503.4,334.4 L 506.0,334.8 L 508.6,335.2 L 511.2,335.7 L 513.7,336.1 L 516.3,336.5 L 518.9,336.9 L 521.5,337.3 L 524.1,337.7 L 526.6,338.1 L 529.2,338.5 L 531.8,338.9 L 534.4,339.3 L 537.0,339.7 L 539.5,340.1 L 542.1,340.5 L 544.7,340.9 L 547.3,341.3 L 549.9,341.7 L 552.4,342.0 L 555.0,342.4 L 557.6,342.8 L 560.2,343.2 L 562.8,343.6 L 565.3,344.0 L 567.9,344.4 L 570.5,344.8 L 573.1,345.2 L 575.7,345.6 L 578.2,346.0 L 580.8,346.4 L 583.4,346.7 L 586.0,347.1 L 588.6,347.5 L 591.1,347.8 L 593.7,348.2 L 596.3,348.5 L 598.9,348.8 L 601.5,349.2 L 604.0,349.5 L 606.6,349.8 L 609.2,350.0 L 611.8,350.3 L 614.4,350.6 L 616.9,350.8 L 619.5,351.0 L 622.1,351.3 L 624.7,351.5 L 627.3,351.7 L 629.8,351.9 L 632.4,352.1 L 635.0,352.3" class="sig"/>
<path d="M 75.7,308.2 L 81.3,286.5 L 87.0,271.1 L 92.6,259.2 L 98.2,249.8 L 103.9,241.8 L 109.6,234.5 L 115.2,227.6 L 120.8,221.3 L 126.5,215.5 L 132.1,210.1 L 137.8,205.0 L 143.4,200.4 L 149.1,196.1 L 154.8,192.2 L 160.4,188.5 L 166.1,184.9 L 171.7,181.5 L 177.3,178.2 L 183.0,175.1 L 188.6,172.0 L 194.3,169.1 L 200.0,166.3 L 205.6,163.6 L 211.2,161.0 L 216.9,158.5 L 222.6,156.2 L 228.2,153.9 L 233.8,151.8 L 239.5,149.7 L 245.2,147.7 L 250.8,145.6 L 256.5,143.6 L 262.1,141.6 L 267.8,139.7 L 273.4,137.8 L 279.1,135.9 L 284.7,134.0 L 290.4,132.2 L 296.0,130.4 L 301.6,128.6 L 307.3,126.8 L 312.9,125.1 L 318.6,123.5 L 324.2,121.8 L 329.9,120.2 L 335.5,118.6 L 341.2,117.1 L 346.9,115.6 L 352.5,114.1 L 358.1,112.7 L 363.8,111.3 L 369.4,109.9 L 375.1,108.5 L 380.7,107.2 L 386.4,105.9 L 392.0,104.6 L 397.7,103.4 L 403.3,102.2 L 409.0,101.0 L 414.6,99.9 L 420.3,98.8 L 425.9,97.7 L 431.6,96.6 L 437.2,95.6 L 442.9,94.6 L 448.6,93.7 L 454.2,92.7 L 459.9,91.8 L 465.5,90.9 L 471.2,90.1 L 476.8,89.2 L 482.4,88.4 L 488.1,87.7 L 493.8,86.9 L 499.4,86.2 L 505.1,85.5 L 510.7,84.8 L 516.3,84.2 L 522.0,83.6 L 527.7,83.0 L 533.3,82.4 L 539.0,81.9 L 544.6,81.4 L 550.2,80.9 L 555.9,80.4 L 561.5,80.0 L 567.2,79.6 L 572.9,79.2 L 578.5,78.9 L 584.1,79.0 L 589.8,79.3 L 595.4,80.0 L 601.1,80.9 L 606.8,82.2 L 612.4,83.6 L 618.0,85.1 L 623.7,86.5 L 629.4,88.0 L 635.0,89.3" class="nt"/>
<path d="M 74.7,335.8 L 79.4,312.3 L 84.1,288.8 L 88.8,267.9 L 93.5,249.7 L 98.2,234.1 L 103.0,220.8 L 107.7,209.0 L 112.4,198.4 L 117.1,188.7 L 121.8,179.8 L 126.5,171.5 L 131.2,163.9 L 135.9,157.0 L 140.6,150.9 L 145.3,145.6 L 150.0,141.1 L 154.8,137.2 L 159.5,133.8 L 164.2,130.9 L 168.9,128.3 L 173.6,125.9 L 178.3,123.6 L 183.0,121.4 L 187.7,119.4 L 192.4,117.7 L 197.1,116.1 L 201.8,114.8 L 206.5,113.7 L 211.2,113.0 L 216.0,112.6 L 220.7,112.6 L 225.4,113.0 L 230.1,113.6 L 234.8,114.5 L 239.5,115.5 L 244.2,116.5 L 248.9,117.5 L 253.6,118.4 L 258.3,119.1 L 263.0,119.6 L 267.8,120.1 L 272.5,120.4 L 277.2,120.7 L 281.9,120.8 L 286.6,120.9 L 291.3,121.0 L 296.0,120.9 L 300.7,120.9 L 305.4,120.7 L 310.1,120.6 L 314.8,120.5 L 319.5,120.3 L 324.2,120.1 L 329.0,119.9 L 333.7,119.7 L 338.4,119.5 L 343.1,119.3 L 347.8,119.1 L 352.5,118.9 L 357.2,118.7 L 361.9,118.6 L 366.6,118.4 L 371.3,118.3 L 376.0,118.2 L 380.8,118.1 L 385.5,118.0 L 390.2,117.9 L 394.9,117.9 L 399.6,117.9 L 404.3,117.9 L 409.0,118.0 L 413.7,118.0 L 418.4,118.1 L 423.1,118.2 L 427.8,118.4 L 432.5,118.5 L 437.2,118.7 L 442.0,118.9 L 446.7,119.1 L 451.4,119.4 L 456.1,119.6 L 460.8,119.9 L 465.5,120.2 L 470.2,120.5 L 474.9,120.8 L 479.6,121.1 L 484.3,121.5 L 489.0,121.8 L 493.8,122.1 L 498.5,122.4 L 503.2,122.6 L 507.9,122.8 L 512.6,123.0 L 517.3,123.1 L 522.0,123.1 L 526.7,123.0 L 531.4,122.8 L 536.1,122.4 L 540.8,121.8 L 545.5,121.0 L 550.2,119.9 L 555.0,118.6 L 559.7,117.1 L 564.4,115.5 L 569.1,114.2 L 573.8,113.6 L 578.5,114.1 L 583.2,116.1 L 587.9,119.5 L 592.6,124.4 L 597.3,130.4 L 602.0,137.2 L 606.8,144.2 L 611.5,151.2 L 616.2,158.0 L 620.9,164.3 L 625.6,170.1 L 630.3,175.4 L 635.0,180.4" class="fw"/>
<line x1="116.45560436785159" y1="172.27882002367608" x2="116.45560436785159" y2="185.62747318220934" class="err"/>
<line x1="113.45560436785159" y1="172.27882002367608" x2="119.45560436785159" y2="172.27882002367608" class="err"/>
<line x1="113.45560436785159" y1="185.62747318220934" x2="119.45560436785159" y2="185.62747318220934" class="err"/>
<circle cx="116.45560436785159" cy="178.95314660294275" r="2.5" class="obs"/>
<line x1="125.51051030395827" y1="167.99890810472135" x2="125.51051030395827" y2="178.2273135874475" class="err"/>
<line x1="122.51051030395827" y1="167.99890810472135" x2="128.51051030395826" y2="167.99890810472135" class="err"/>
<line x1="122.51051030395827" y1="178.2273135874475" x2="128.51051030395826" y2="178.2273135874475" class="err"/>
<circle cx="125.51051030395827" cy="173.11311084608445" r="2.5" class="obs"/>
<line x1="135.22156884413062" y1="153.84099284845206" x2="135.22156884413062" y2="162.35075923701697" class="err"/>
<line x1="132.22156884413062" y1="153.84099284845206" x2="138.22156884413062" y2="153.84099284845206" class="err"/>
<line x1="132.22156884413062" y1="162.35075923701697" x2="138.22156884413062" y2="162.35075923701697" class="err"/>
<circle cx="135.22156884413062" cy="158.09587604273452" r="2.5" class="obs"/>
<line x1="145.32631894674242" y1="144.24664839075623" x2="145.32631894674242" y2="155.2592872465462" class="err"/>
<line x1="142.32631894674242" y1="144.24664839075623" x2="148.32631894674242" y2="144.24664839075623" class="err"/>
<line x1="142.32631894674242" y1="155.2592872465462" x2="148.32631894674242" y2="155.2592872465462" class="err"/>
<circle cx="145.32631894674242" cy="149.75296781865126" r="2.5" class="obs"/>
<line x1="154.90614696610166" y1="139.7414779497513" x2="154.90614696610166" y2="151.42154946346787" class="err"/>
<line x1="151.90614696610166" y1="139.7414779497513" x2="157.90614696610166" y2="139.7414779497513" class="err"/>
<line x1="151.90614696610166" y1="151.42154946346787" x2="157.90614696610166" y2="151.42154946346787" class="err"/>
<circle cx="154.90614696610166" cy="145.5815137066096" r="2.5" class="obs"/>
<line x1="164.74843602708717" y1="132.8585786648826" x2="164.74843602708717" y2="143.28721394498666" class="err"/>
<line x1="161.74843602708717" y1="132.8585786648826" x2="167.74843602708717" y2="132.8585786648826" class="err"/>
<line x1="161.74843602708717" y1="143.28721394498666" x2="167.74843602708717" y2="143.28721394498666" class="err"/>
<circle cx="164.74843602708717" cy="138.07289630493466" r="2.5" class="obs"/>
<line x1="175.24687769213836" y1="122.21302777095232" x2="175.24687769213836" y2="128.9040401666671" class="err"/>
<line x1="172.24687769213836" y1="122.21302777095232" x2="178.24687769213836" y2="122.21302777095232" class="err"/>
<line x1="172.24687769213836" y1="128.9040401666671" x2="178.24687769213836" y2="128.9040401666671" class="err"/>
<circle cx="175.24687769213836" cy="125.55853396880971" r="2.5" class="obs"/>
<line x1="185.35162779475013" y1="117.84134386153266" x2="185.35162779475013" y2="129.93856078645342" class="err"/>
<line x1="182.35162779475013" y1="117.84134386153266" x2="188.35162779475013" y2="117.84134386153266" class="err"/>
<line x1="182.35162779475013" y1="129.93856078645342" x2="188.35162779475013" y2="129.93856078645342" class="err"/>
<circle cx="185.35162779475013" cy="123.88995232399304" r="2.5" class="obs"/>
<line x1="194.6689947724831" y1="115.60544445747834" x2="194.6689947724831" y2="127.16871525605778" class="err"/>
<line x1="191.6689947724831" y1="115.60544445747834" x2="197.6689947724831" y2="115.60544445747834" class="err"/>
<line x1="191.6689947724831" y1="127.16871525605778" x2="197.6689947724831" y2="127.16871525605778" class="err"/>
<circle cx="194.6689947724831" cy="121.38707985676805" r="2.5" class="obs"/>
<line x1="204.77374487509488" y1="104.3675470796382" x2="204.77374487509488" y2="121.72079618573137" class="err"/>
<line x1="201.77374487509488" y1="104.3675470796382" x2="207.77374487509488" y2="104.3675470796382" class="err"/>
<line x1="201.77374487509488" y1="121.72079618573137" x2="207.77374487509488" y2="121.72079618573137" class="err"/>
<circle cx="204.77374487509488" cy="113.04417163268477" r="2.5" class="obs"/>
<line x1="215.40341706095924" y1="104.45097616187897" x2="215.40341706095924" y2="121.63736710349056" class="err"/>
<line x1="212.40341706095924" y1="104.45097616187897" x2="218.40341706095924" y2="104.45097616187897" class="err"/>
<line x1="212.40341706095924" y1="121.63736710349056" x2="218.40341706095924" y2="121.63736710349056" class="err"/>
<circle cx="215.40341706095924" cy="113.04417163268477" r="2.5" class="obs"/>
<line x1="225.1144756011316" y1="102.69896543482153" x2="225.1144756011316" y2="120.0522145409147" class="err"/>
<line x1="222.1144756011316" y1="102.69896543482153" x2="228.1144756011316" y2="102.69896543482153" class="err"/>
<line x1="222.1144756011316" y1="120.0522145409147" x2="228.1144756011316" y2="120.0522145409147" class="err"/>
<circle cx="225.1144756011316" cy="111.37558998786812" r="2.5" class="obs"/>
<line x1="234.82553414130396" y1="103.53325625722985" x2="234.82553414130396" y2="120.88650536332307" class="err"/>
<line x1="231.82553414130396" y1="103.53325625722985" x2="237.82553414130396" y2="103.53325625722985" class="err"/>
<line x1="231.82553414130396" y1="120.88650536332307" x2="237.82553414130396" y2="120.88650536332307" class="err"/>
<circle cx="234.82553414130396" cy="112.20988081027645" r="2.5" class="obs"/>
<line x1="245.7176673687946" y1="102.11496185913565" x2="245.7176673687946" y2="118.96763647178392" class="err"/>
<line x1="242.7176673687946" y1="102.11496185913565" x2="248.7176673687946" y2="102.11496185913565" class="err"/>
<line x1="242.7176673687946" y1="118.96763647178392" x2="248.7176673687946" y2="118.96763647178392" class="err"/>
<circle cx="245.7176673687946" cy="110.54129916545978" r="2.5" class="obs"/>
<line x1="255.03503434652754" y1="107.38767985675634" x2="255.03503434652754" y2="122.03782669824653" class="err"/>
<line x1="252.03503434652754" y1="107.38767985675634" x2="258.03503434652754" y2="107.38767985675634" class="err"/>
<line x1="252.03503434652754" y1="122.03782669824653" x2="258.03503434652754" y2="122.03782669824653" class="err"/>
<circle cx="255.03503434652754" cy="114.71275327750143" r="2.5" class="obs"/>
<line x1="265.9271675740182" y1="110.7749005957341" x2="265.9271675740182" y2="126.99351418335203" class="err"/>
<line x1="262.9271675740182" y1="110.7749005957341" x2="268.9271675740182" y2="110.7749005957341" class="err"/>
<line x1="262.9271675740182" y1="126.99351418335203" x2="268.9271675740182" y2="126.99351418335203" class="err"/>
<circle cx="265.9271675740182" cy="118.88420738954306" r="2.5" class="obs"/>
<line x1="275.24453455175114" y1="115.28007103673912" x2="275.24453455175114" y2="124.15692538716372" class="err"/>
<line x1="272.24453455175114" y1="115.28007103673912" x2="278.24453455175114" y2="115.28007103673912" class="err"/>
<line x1="272.24453455175114" y1="124.15692538716372" x2="278.24453455175114" y2="124.15692538716372" class="err"/>
<circle cx="275.24453455175114" cy="119.71849821195141" r="2.5" class="obs"/>
<line x1="284.5619015294841" y1="118.61723432637241" x2="284.5619015294841" y2="127.49408867679703" class="err"/>
<line x1="281.5619015294841" y1="118.61723432637241" x2="287.5619015294841" y2="118.61723432637241" class="err"/>
<line x1="281.5619015294841" y1="127.49408867679703" x2="287.5619015294841" y2="127.49408867679703" class="err"/>
<circle cx="284.5619015294841" cy="123.05566150158472" r="2.5" class="obs"/>
<line x1="295.4540347569747" y1="118.85917866487084" x2="295.4540347569747" y2="125.58356269348192" class="err"/>
<line x1="292.4540347569747" y1="118.85917866487084" x2="298.4540347569747" y2="118.85917866487084" class="err"/>
<line x1="292.4540347569747" y1="125.58356269348192" x2="298.4540347569747" y2="125.58356269348192" class="err"/>
<circle cx="295.4540347569747" cy="122.2213706791764" r="2.5" class="obs"/>
<line x1="304.77140173470764" y1="123.68137961839095" x2="304.77140173470764" y2="129.1042699640451" class="err"/>
<line x1="301.77140173470764" y1="123.68137961839095" x2="307.77140173470764" y2="123.68137961839095" class="err"/>
<line x1="301.77140173470764" y1="129.1042699640451" x2="307.77140173470764" y2="129.1042699640451" class="err"/>
<circle cx="304.77140173470764" cy="126.39282479121803" r="2.5" class="obs"/>
<line x1="315.66353496219824" y1="122.54674409991561" x2="315.66353496219824" y2="128.57032383770377" class="err"/>
<line x1="312.66353496219824" y1="122.54674409991561" x2="318.66353496219824" y2="122.54674409991561" class="err"/>
<line x1="312.66353496219824" y1="128.57032383770377" x2="318.66353496219824" y2="128.57032383770377" class="err"/>
<circle cx="315.66353496219824" cy="125.55853396880971" r="2.5" class="obs"/>
<line x1="325.11213246074436" y1="116.92362395688349" x2="325.11213246074436" y2="122.51337246701934" class="err"/>
<line x1="322.11213246074436" y1="116.92362395688349" x2="328.11213246074436" y2="116.92362395688349" class="err"/>
<line x1="322.11213246074436" y1="122.51337246701934" x2="328.11213246074436" y2="122.51337246701934" class="err"/>
<circle cx="325.11213246074436" cy="119.71849821195141" r="2.5" class="obs"/>
<line x1="335.8730351674219" y1="119.92707091755351" x2="335.8730351674219" y2="126.18425208561594" class="err"/>
<line x1="332.8730351674219" y1="119.92707091755351" x2="338.8730351674219" y2="119.92707091755351" class="err"/>
<line x1="332.8730351674219" y1="126.18425208561594" x2="338.8730351674219" y2="126.18425208561594" class="err"/>
<circle cx="335.8730351674219" cy="123.05566150158472" r="2.5" class="obs"/>
<line x1="345.32163266596797" y1="122.18799904628003" x2="345.32163266596797" y2="127.26048724652271" class="err"/>
<line x1="342.32163266596797" y1="122.18799904628003" x2="348.32163266596797" y2="122.18799904628003" class="err"/>
<line x1="342.32163266596797" y1="127.26048724652271" x2="348.32163266596797" y2="127.26048724652271" class="err"/>
<circle cx="345.32163266596797" cy="124.72424314640139" r="2.5" class="obs"/>
<line x1="354.6389996437009" y1="117.71620023817145" x2="354.6389996437009" y2="128.395122764998" class="err"/>
<line x1="351.6389996437009" y1="117.71620023817145" x2="357.6389996437009" y2="117.71620023817145" class="err"/>
<line x1="351.6389996437009" y1="128.395122764998" x2="357.6389996437009" y2="128.395122764998" class="err"/>
<circle cx="354.6389996437009" cy="123.05566150158472" r="2.5" class="obs"/>
<line x1="365.5311328711915" y1="116.2228196660605" x2="365.5311328711915" y2="123.2141767578423" class="err"/>
<line x1="362.5311328711915" y1="116.2228196660605" x2="368.5311328711915" y2="116.2228196660605" class="err"/>
<line x1="362.5311328711915" y1="123.2141767578423" x2="368.5311328711915" y2="123.2141767578423" class="err"/>
<circle cx="365.5311328711915" cy="119.71849821195141" r="2.5" class="obs"/>
<line x1="374.84849984892446" y1="113.7783475564041" x2="374.84849984892446" y2="120.65290393304875" class="err"/>
<line x1="371.84849984892446" y1="113.7783475564041" x2="377.84849984892446" y2="113.7783475564041" class="err"/>
<line x1="371.84849984892446" y1="120.65290393304875" x2="377.84849984892446" y2="120.65290393304875" class="err"/>
<circle cx="374.84849984892446" cy="117.21562574472642" r="2.5" class="obs"/>
<line x1="385.74063307641507" y1="116.25619129895688" x2="385.74063307641507" y2="124.84938676976259" class="err"/>
<line x1="382.74063307641507" y1="116.25619129895688" x2="388.74063307641507" y2="116.25619129895688" class="err"/>
<line x1="382.74063307641507" y1="124.84938676976259" x2="388.74063307641507" y2="124.84938676976259" class="err"/>
<circle cx="385.74063307641507" cy="120.55278903435973" r="2.5" class="obs"/>
<line x1="395.05800005414807" y1="117.04042467202068" x2="395.05800005414807" y2="127.4023166863321" class="err"/>
<line x1="392.05800005414807" y1="117.04042467202068" x2="398.05800005414807" y2="117.04042467202068" class="err"/>
<line x1="392.05800005414807" y1="127.4023166863321" x2="398.05800005414807" y2="127.4023166863321" class="err"/>
<circle cx="395.05800005414807" cy="122.2213706791764" r="2.5" class="obs"/>
<line x1="410.5432015100986" y1="113.87846245509311" x2="410.5432015100986" y2="120.55278903435973" class="err"/>
<line x1="407.5432015100986" y1="113.87846245509311" x2="413.5432015100986" y2="113.87846245509311" class="err"/>
<line x1="407.5432015100986" y1="120.55278903435973" x2="413.5432015100986" y2="120.55278903435973" class="err"/>
<circle cx="410.5432015100986" cy="117.21562574472642" r="2.5" class="obs"/>
<line x1="449.5186661916012" y1="118.04991656713474" x2="449.5186661916012" y2="124.72424314640139" class="err"/>
<line x1="446.5186661916012" y1="118.04991656713474" x2="452.5186661916012" y2="118.04991656713474" class="err"/>
<line x1="446.5186661916012" y1="124.72424314640139" x2="452.5186661916012" y2="124.72424314640139" class="err"/>
<circle cx="449.5186661916012" cy="121.38707985676805" r="2.5" class="obs"/>
<line x1="486.788134102533" y1="121.38707985676805" x2="486.788134102533" y2="128.0614064360347" class="err"/>
<line x1="483.788134102533" y1="121.38707985676805" x2="489.788134102533" y2="121.38707985676805" class="err"/>
<line x1="483.788134102533" y1="128.0614064360347" x2="489.788134102533" y2="128.0614064360347" class="err"/>
<circle cx="486.788134102533" cy="124.72424314640139" r="2.5" class="obs"/>
<line x1="525.6323682632224" y1="123.88995232399304" x2="525.6323682632224" y2="130.5642789032597" class="err"/>
<line x1="522.6323682632224" y1="123.88995232399304" x2="528.6323682632224" y2="123.88995232399304" class="err"/>
<line x1="522.6323682632224" y1="130.5642789032597" x2="528.6323682632224" y2="130.5642789032597" class="err"/>
<circle cx="525.6323682632224" cy="127.22711561362634" r="2.5" class="obs"/>
<g class="legend">
<line x1="82" y1="69" x2="106" y2="69" class="fw"/>
<text x="112" y="73" class="lbl-l">framework fit</text>
<line x1="82" y1="87" x2="106" y2="87" class="nt"/>
<text x="112" y="91" class="lbl-l">Newtonian (no halo)</text>
<circle cx="94" cy="105" r="2.5" class="obs"/>
<text x="112" y="109" class="lbl">observed V±err</text>
</g>
<g class="legend">
<line x1="460" y1="69" x2="484" y2="69" class="rho"/>
<text x="490" y="73" class="lbl-r">ρ(r) raw</text>
<line x1="460" y1="87" x2="484" y2="87" class="sig"/>
<text x="490" y="91" class="lbl-r">Σ(r) smoothed</text>
<text x="460" y="113" class="lbl-r">ρ peak: 832 M☉/pc²</text>
</g>
</svg>