<svg xmlns="http://www.w3.org/2000/svg" viewBox="0 0 890 420" width="890" height="420" font-family="sans-serif" font-size="12">
<style>
  .ax { stroke: #333; stroke-width: 1; fill: none; }
  .grid { stroke: #ddd; stroke-width: 0.5; fill: none; }
  .lbl { fill: #333; }
  .lbl-l { fill: #0066cc; }
  .lbl-r { fill: #b03030; }
  .obs { fill: #222; }
  .err { stroke: #555; stroke-width: 0.8; fill: none; }
  .fw { stroke: #0066cc; stroke-width: 2.2; fill: none; }
  .nt { stroke: #cc6600; stroke-width: 1.6; fill: none; stroke-dasharray: 5,3; }
  .lbl-s { fill: #cc7000; }
  .rho { stroke: #b03030; stroke-width: 2.0; fill: none; }
  .sig { stroke: #cc7000; stroke-width: 1.8; fill: none; }
  .title { fill: #111; font-size: 16px; font-weight: 600; }
  .subtitle { fill: #555; font-size: 11px; }
  .preview-bg { fill: #000; }
  .preview-lbl { fill: #888; font-size: 10px; }
  .legend { font-size: 11px; }
</style>
<text x="343.5" y="22" text-anchor="middle" class="title">NGC5033</text>
<text x="343.5" y="38" text-anchor="middle" class="subtitle">rMax=44.6 kpc, N=22, RMS=16.1 km/s (7.6%), amp=478</text>
<line x1="70" y1="365.0" x2="617" y2="365.0" class="grid"/>
<text x="64" y="369.0" text-anchor="end" class="lbl-l">0</text>
<line x1="70" y1="303.0" x2="617" y2="303.0" class="grid"/>
<text x="64" y="307.0" text-anchor="end" class="lbl-l">54</text>
<line x1="70" y1="241.0" x2="617" y2="241.0" class="grid"/>
<text x="64" y="245.0" text-anchor="end" class="lbl-l">109</text>
<line x1="70" y1="179.0" x2="617" y2="179.0" class="grid"/>
<text x="64" y="183.0" text-anchor="end" class="lbl-l">163</text>
<line x1="70" y1="117.0" x2="617" y2="117.0" class="grid"/>
<text x="64" y="121.0" text-anchor="end" class="lbl-l">218</text>
<line x1="70" y1="55.0" x2="617" y2="55.0" class="grid"/>
<text x="64" y="59.0" text-anchor="end" class="lbl-l">272</text>
<text x="623" y="369.0" text-anchor="start" class="lbl-r">0.0</text>
<text x="623" y="327.7" text-anchor="start" class="lbl-r">0.2</text>
<text x="623" y="286.3" text-anchor="start" class="lbl-r">0.4</text>
<text x="623" y="245.0" text-anchor="start" class="lbl-r">0.6</text>
<text x="623" y="203.7" text-anchor="start" class="lbl-r">0.8</text>
<text x="623" y="162.3" text-anchor="start" class="lbl-r">1.0</text>
<line x1="70.0" y1="55" x2="70.0" y2="365" class="grid"/>
<text x="70.0" y="381" text-anchor="middle" class="lbl">0.0</text>
<line x1="161.2" y1="55" x2="161.2" y2="365" class="grid"/>
<text x="161.2" y="381" text-anchor="middle" class="lbl">8.4</text>
<line x1="252.3" y1="55" x2="252.3" y2="365" class="grid"/>
<text x="252.3" y="381" text-anchor="middle" class="lbl">16.9</text>
<line x1="343.5" y1="55" x2="343.5" y2="365" class="grid"/>
<text x="343.5" y="381" text-anchor="middle" class="lbl">25.3</text>
<line x1="434.7" y1="55" x2="434.7" y2="365" class="grid"/>
<text x="434.7" y="381" text-anchor="middle" class="lbl">33.8</text>
<line x1="525.8" y1="55" x2="525.8" y2="365" class="grid"/>
<text x="525.8" y="381" text-anchor="middle" class="lbl">42.2</text>
<line x1="617.0" y1="55" x2="617.0" y2="365" class="grid"/>
<text x="617.0" y="381" text-anchor="middle" class="lbl">50.7</text>
<text x="343.5" y="408" text-anchor="middle" class="lbl">radius (kpc)</text>
<text x="16" y="210" text-anchor="middle" class="lbl-l" transform="rotate(-90, 16, 210)">velocity (km/s)</text>
<text x="654" y="210" text-anchor="middle" class="lbl-r" transform="rotate(-90, 654, 210)">mass profile (normalized to peak)</text>
<rect x="70" y="55" width="547" height="310" class="ax"/>
<path d="M 70.0,158.3 L 72.5,174.6 L 75.0,191.0 L 77.5,207.3 L 80.0,223.6 L 82.5,239.9 L 85.0,256.2 L 87.5,272.5 L 90.0,288.8 L 92.5,297.2 L 95.0,298.2 L 97.5,299.2 L 100.0,300.3 L 102.5,301.3 L 105.0,302.3 L 107.5,303.3 L 110.0,304.4 L 112.5,305.4 L 115.0,306.4 L 117.5,307.4 L 120.0,308.4 L 122.5,309.5 L 124.9,310.5 L 127.4,311.5 L 129.9,312.5 L 132.4,313.6 L 134.9,314.6 L 137.4,315.6 L 139.9,316.6 L 142.4,317.6 L 144.9,318.7 L 147.4,319.7 L 149.9,320.7 L 152.4,321.7 L 154.9,322.8 L 157.4,323.5 L 159.9,323.7 L 162.4,323.9 L 164.9,324.1 L 167.4,324.3 L 169.9,324.5 L 172.4,324.7 L 174.9,324.9 L 177.4,325.1 L 179.9,325.4 L 182.4,325.6 L 184.9,325.8 L 187.4,326.0 L 189.9,326.2 L 192.4,326.4 L 194.9,326.6 L 197.4,326.8 L 199.9,327.0 L 202.4,327.2 L 204.9,327.4 L 207.4,327.6 L 209.9,327.8 L 212.4,328.0 L 214.9,328.2 L 217.4,328.4 L 219.9,328.6 L 222.4,328.8 L 224.9,329.0 L 227.4,329.2 L 229.9,329.4 L 232.4,329.6 L 234.8,329.8 L 237.3,330.0 L 239.8,330.2 L 242.3,330.4 L 244.8,330.6 L 247.3,330.8 L 249.8,331.0 L 252.3,331.2 L 254.8,331.4 L 257.3,331.6 L 259.8,331.8 L 262.3,332.0 L 264.8,332.2 L 267.3,332.5 L 269.8,332.7 L 272.3,332.9 L 274.8,333.1 L 277.3,333.3 L 279.8,333.5 L 282.3,333.7 L 284.8,333.9 L 287.3,334.1 L 289.8,334.3 L 292.3,334.5 L 294.8,334.7 L 297.3,334.9 L 299.8,335.1 L 302.3,335.3 L 304.8,335.5 L 307.3,335.7 L 309.8,335.9 L 312.3,336.1 L 314.8,336.3 L 317.3,336.5 L 319.8,336.7 L 322.3,336.9 L 324.8,337.1 L 327.3,337.3 L 329.8,337.5 L 332.3,337.7 L 334.8,337.9 L 337.3,338.1 L 339.8,338.3 L 342.3,338.5 L 344.7,338.7 L 347.2,338.9 L 349.7,339.1 L 352.2,339.3 L 354.7,339.6 L 357.2,339.8 L 359.7,340.0 L 362.2,340.2 L 364.7,340.4 L 367.2,340.6 L 369.7,340.8 L 372.2,341.0 L 374.7,341.2 L 377.2,341.3 L 379.7,341.4 L 382.2,341.6 L 384.7,341.7 L 387.2,341.8 L 389.7,341.9 L 392.2,342.1 L 394.7,342.2 L 397.2,342.3 L 399.7,342.4 L 402.2,342.5 L 404.7,342.7 L 407.2,342.8 L 409.7,342.9 L 412.2,343.0 L 414.7,343.2 L 417.2,343.3 L 419.7,343.4 L 422.2,343.5 L 424.7,343.6 L 427.2,343.8 L 429.7,343.9 L 432.2,344.0 L 434.7,344.1 L 437.2,344.3 L 439.7,344.4 L 442.2,344.5 L 444.7,344.6 L 447.2,344.8 L 449.7,344.9 L 452.2,345.0 L 454.6,345.1 L 457.1,345.2 L 459.6,345.4 L 462.1,345.5 L 464.6,345.6 L 467.1,345.7 L 469.6,345.9 L 472.1,346.0 L 474.6,346.1 L 477.1,346.2 L 479.6,346.3 L 482.1,346.5 L 484.6,346.6 L 487.1,346.7 L 489.6,346.8 L 492.1,347.0 L 494.6,347.1 L 497.1,347.2 L 499.6,347.3 L 502.1,347.5 L 504.6,347.6 L 507.1,347.7 L 509.6,347.8 L 512.1,347.9 L 514.6,348.1 L 517.1,348.2 L 519.6,348.3 L 522.1,348.4 L 524.6,348.6 L 527.1,348.7 L 529.6,348.8 L 532.1,348.9 L 534.6,349.1 L 537.1,349.2 L 539.6,349.3 L 542.1,349.4 L 544.6,349.5 L 547.1,349.7 L 549.6,349.8 L 552.1,349.9 L 554.6,350.0 L 557.1,350.2 L 559.6,350.4 L 562.1,351.6 L 564.5,352.7 L 567.0,353.9 L 569.5,355.1 L 572.0,356.2 L 574.5,357.4 L 577.0,358.5 L 579.5,359.7 L 582.0,360.9 L 584.5,362.0 L 587.0,363.2 L 589.5,364.3 L 592.0,365.0 L 594.5,365.0 L 597.0,365.0 L 599.5,365.0 L 602.0,365.0 L 604.5,365.0 L 607.0,365.0 L 609.5,365.0 L 612.0,365.0 L 614.5,365.0 L 617.0,365.0" class="rho"/>
<path d="M 70.0,158.3 L 72.5,160.7 L 75.0,164.3 L 77.5,169.2 L 80.0,175.1 L 82.5,181.7 L 85.0,188.7 L 87.5,195.5 L 90.0,201.9 L 92.5,207.7 L 95.0,213.1 L 97.5,217.9 L 100.0,222.2 L 102.5,226.0 L 105.0,229.5 L 107.5,232.8 L 110.0,235.8 L 112.5,238.7 L 115.0,241.4 L 117.5,244.1 L 120.0,246.6 L 122.5,249.0 L 124.9,251.3 L 127.4,253.6 L 129.9,255.8 L 132.4,257.9 L 134.9,260.0 L 137.4,262.0 L 139.9,264.0 L 142.4,265.9 L 144.9,267.7 L 147.4,269.5 L 149.9,271.2 L 152.4,272.8 L 154.9,274.4 L 157.4,275.9 L 159.9,277.3 L 162.4,278.7 L 164.9,280.0 L 167.4,281.3 L 169.9,282.5 L 172.4,283.7 L 174.9,284.8 L 177.4,285.9 L 179.9,287.0 L 182.4,288.0 L 184.9,289.1 L 187.4,290.0 L 189.9,291.0 L 192.4,292.0 L 194.9,292.9 L 197.4,293.8 L 199.9,294.7 L 202.4,295.6 L 204.9,296.4 L 207.4,297.3 L 209.9,298.1 L 212.4,298.9 L 214.9,299.7 L 217.4,300.5 L 219.9,301.3 L 222.4,302.1 L 224.9,302.9 L 227.4,303.6 L 229.9,304.3 L 232.4,305.1 L 234.8,305.8 L 237.3,306.5 L 239.8,307.2 L 242.3,307.9 L 244.8,308.6 L 247.3,309.3 L 249.8,310.0 L 252.3,310.7 L 254.8,311.3 L 257.3,312.0 L 259.8,312.6 L 262.3,313.3 L 264.8,313.9 L 267.3,314.5 L 269.8,315.2 L 272.3,315.8 L 274.8,316.4 L 277.3,317.0 L 279.8,317.6 L 282.3,318.2 L 284.8,318.8 L 287.3,319.4 L 289.8,319.9 L 292.3,320.5 L 294.8,321.1 L 297.3,321.6 L 299.8,322.2 L 302.3,322.7 L 304.8,323.3 L 307.3,323.8 L 309.8,324.4 L 312.3,324.9 L 314.8,325.4 L 317.3,325.9 L 319.8,326.4 L 322.3,326.9 L 324.8,327.4 L 327.3,327.9 L 329.8,328.4 L 332.3,328.9 L 334.8,329.4 L 337.3,329.9 L 339.8,330.3 L 342.3,330.8 L 344.7,331.2 L 347.2,331.7 L 349.7,332.1 L 352.2,332.6 L 354.7,333.0 L 357.2,333.4 L 359.7,333.9 L 362.2,334.3 L 364.7,334.7 L 367.2,335.1 L 369.7,335.5 L 372.2,335.9 L 374.7,336.3 L 377.2,336.6 L 379.7,337.0 L 382.2,337.4 L 384.7,337.7 L 387.2,338.1 L 389.7,338.4 L 392.2,338.8 L 394.7,339.1 L 397.2,339.4 L 399.7,339.8 L 402.2,340.1 L 404.7,340.4 L 407.2,340.7 L 409.7,341.0 L 412.2,341.3 L 414.7,341.6 L 417.2,341.9 L 419.7,342.2 L 422.2,342.5 L 424.7,342.8 L 427.2,343.1 L 429.7,343.4 L 432.2,343.6 L 434.7,343.9 L 437.2,344.2 L 439.7,344.4 L 442.2,344.7 L 444.7,345.0 L 447.2,345.2 L 449.7,345.5 L 452.2,345.7 L 454.6,346.0 L 457.1,346.2 L 459.6,346.5 L 462.1,346.7 L 464.6,347.0 L 467.1,347.2 L 469.6,347.5 L 472.1,347.7 L 474.6,347.9 L 477.1,348.2 L 479.6,348.4 L 482.1,348.6 L 484.6,348.8 L 487.1,349.0 L 489.6,349.3 L 492.1,349.5 L 494.6,349.7 L 497.1,349.9 L 499.6,350.1 L 502.1,350.3 L 504.6,350.5 L 507.1,350.8 L 509.6,351.0 L 512.1,351.2 L 514.6,351.4 L 517.1,351.6 L 519.6,351.8 L 522.1,352.0 L 524.6,352.2 L 527.1,352.4 L 529.6,352.6 L 532.1,352.8 L 534.6,353.0 L 537.1,353.2 L 539.6,353.4 L 542.1,353.6 L 544.6,353.8 L 547.1,354.0 L 549.6,354.2 L 552.1,354.4 L 554.6,354.6 L 557.1,354.8 L 559.6,355.0 L 562.1,355.2 L 564.5,355.5 L 567.0,355.7 L 569.5,355.9 L 572.0,356.1 L 574.5,356.3 L 577.0,356.5 L 579.5,356.6 L 582.0,356.8 L 584.5,357.0 L 587.0,357.1 L 589.5,357.3 L 592.0,357.4 L 594.5,357.6 L 597.0,357.7 L 599.5,357.8 L 602.0,357.9 L 604.5,358.1 L 607.0,358.2 L 609.5,358.3 L 612.0,358.4 L 614.5,358.5 L 617.0,358.6" class="sig"/>
<path d="M 75.5,283.3 L 80.9,257.2 L 86.4,243.3 L 91.9,237.4 L 97.3,233.0 L 102.8,227.7 L 108.3,222.2 L 113.8,216.8 L 119.2,211.6 L 124.7,206.8 L 130.2,202.3 L 135.6,198.1 L 141.1,194.2 L 146.6,190.7 L 152.1,187.5 L 157.5,184.7 L 163.0,181.9 L 168.5,179.1 L 173.9,176.3 L 179.4,173.5 L 184.9,170.7 L 190.3,168.0 L 195.8,165.3 L 201.3,162.7 L 206.8,160.1 L 212.2,157.5 L 217.7,155.0 L 223.2,152.6 L 228.6,150.2 L 234.1,147.8 L 239.6,145.6 L 245.0,143.3 L 250.5,141.2 L 256.0,139.1 L 261.4,137.0 L 266.9,135.0 L 272.4,133.0 L 277.9,131.1 L 283.3,129.3 L 288.8,127.5 L 294.3,125.8 L 299.7,124.1 L 305.2,122.4 L 310.7,120.8 L 316.1,119.3 L 321.6,117.8 L 327.1,116.4 L 332.6,115.0 L 338.0,113.6 L 343.5,112.3 L 349.0,111.0 L 354.4,109.8 L 359.9,108.7 L 365.4,107.5 L 370.8,106.5 L 376.3,105.4 L 381.8,104.4 L 387.3,103.4 L 392.7,102.4 L 398.2,101.5 L 403.7,100.6 L 409.1,99.6 L 414.6,98.7 L 420.1,97.9 L 425.6,97.0 L 431.0,96.2 L 436.5,95.4 L 442.0,94.6 L 447.4,93.8 L 452.9,93.1 L 458.4,92.3 L 463.8,91.6 L 469.3,90.9 L 474.8,90.3 L 480.3,89.6 L 485.7,89.0 L 491.2,88.4 L 496.7,87.8 L 502.1,87.3 L 507.6,86.7 L 513.1,86.2 L 518.5,85.7 L 524.0,85.2 L 529.5,84.8 L 535.0,84.4 L 540.4,84.0 L 545.9,83.6 L 551.4,83.2 L 556.8,82.8 L 562.3,82.6 L 567.8,82.6 L 573.2,82.9 L 578.7,83.5 L 584.2,84.4 L 589.7,85.7 L 595.1,87.1 L 600.6,88.5 L 606.1,90.0 L 611.5,91.4 L 617.0,92.7" class="nt"/>
<path d="M 74.6,264.8 L 79.1,200.3 L 83.7,149.9 L 88.2,120.3 L 92.8,110.0 L 97.3,110.4 L 101.9,113.9 L 106.5,116.3 L 111.0,116.4 L 115.6,114.8 L 120.1,112.2 L 124.7,109.2 L 129.3,106.3 L 133.8,103.8 L 138.4,102.0 L 142.9,101.3 L 147.5,101.7 L 152.1,103.5 L 156.6,106.6 L 161.2,110.1 L 165.7,113.5 L 170.3,116.2 L 174.8,118.3 L 179.4,119.7 L 184.0,120.7 L 188.5,121.2 L 193.1,121.5 L 197.6,121.5 L 202.2,121.3 L 206.8,121.0 L 211.3,120.6 L 215.9,120.0 L 220.4,119.4 L 225.0,118.8 L 229.5,118.1 L 234.1,117.3 L 238.7,116.6 L 243.2,115.9 L 247.8,115.1 L 252.3,114.4 L 256.9,113.7 L 261.4,113.0 L 266.0,112.4 L 270.6,111.8 L 275.1,111.2 L 279.7,110.7 L 284.2,110.3 L 288.8,109.9 L 293.4,109.6 L 297.9,109.3 L 302.5,109.1 L 307.0,109.0 L 311.6,109.0 L 316.1,109.0 L 320.7,109.1 L 325.3,109.4 L 329.8,109.7 L 334.4,110.1 L 338.9,110.6 L 343.5,111.3 L 348.1,112.1 L 352.6,113.1 L 357.2,114.2 L 361.7,115.6 L 366.3,117.2 L 370.8,119.0 L 375.4,120.9 L 380.0,122.9 L 384.5,124.8 L 389.1,126.6 L 393.6,128.2 L 398.2,129.7 L 402.8,131.0 L 407.3,132.3 L 411.9,133.4 L 416.4,134.6 L 421.0,135.6 L 425.6,136.6 L 430.1,137.5 L 434.7,138.5 L 439.2,139.4 L 443.8,140.2 L 448.3,141.0 L 452.9,141.8 L 457.5,142.6 L 462.0,143.4 L 466.6,144.1 L 471.1,144.8 L 475.7,145.5 L 480.3,146.2 L 484.8,146.8 L 489.4,147.3 L 493.9,147.8 L 498.5,148.3 L 503.0,148.6 L 507.6,148.9 L 512.2,149.0 L 516.7,149.0 L 521.3,148.7 L 525.8,148.2 L 530.4,147.4 L 535.0,146.1 L 539.5,144.3 L 544.1,142.0 L 548.6,139.3 L 553.2,136.4 L 557.7,134.2 L 562.3,133.1 L 566.9,134.2 L 571.4,137.5 L 576.0,143.0 L 580.5,150.1 L 585.1,158.1 L 589.7,166.4 L 594.2,174.3 L 598.8,181.6 L 603.3,188.1 L 607.9,193.9 L 612.4,199.0 L 617.0,203.6" class="fw"/>
<line x1="78.21" y1="111.92" x2="78.21" y2="148.40" class="err"/>
<line x1="75.21" y1="111.92" x2="81.21" y2="111.92" class="err"/>
<line x1="75.21" y1="148.40" x2="81.21" y2="148.40" class="err"/>
<circle cx="78.21" cy="130.16" r="2.5" class="obs"/>
<line x1="94.62" y1="109.64" x2="94.62" y2="132.44" class="err"/>
<line x1="91.62" y1="109.64" x2="97.62" y2="109.64" class="err"/>
<line x1="91.62" y1="132.44" x2="97.62" y2="132.44" class="err"/>
<circle cx="94.62" cy="121.04" r="2.5" class="obs"/>
<line x1="111.03" y1="102.80" x2="111.03" y2="121.04" class="err"/>
<line x1="108.03" y1="102.80" x2="114.03" y2="102.80" class="err"/>
<line x1="108.03" y1="121.04" x2="114.03" y2="121.04" class="err"/>
<circle cx="111.03" cy="111.92" r="2.5" class="obs"/>
<line x1="127.55" y1="100.52" x2="127.55" y2="118.76" class="err"/>
<line x1="124.55" y1="100.52" x2="130.55" y2="100.52" class="err"/>
<line x1="124.55" y1="118.76" x2="130.55" y2="118.76" class="err"/>
<circle cx="127.55" cy="109.64" r="2.5" class="obs"/>
<line x1="143.97" y1="99.38" x2="143.97" y2="117.62" class="err"/>
<line x1="140.97" y1="99.38" x2="146.97" y2="99.38" class="err"/>
<line x1="140.97" y1="117.62" x2="146.97" y2="117.62" class="err"/>
<circle cx="143.97" cy="108.50" r="2.5" class="obs"/>
<line x1="156.38" y1="105.08" x2="156.38" y2="118.76" class="err"/>
<line x1="153.38" y1="105.08" x2="159.38" y2="105.08" class="err"/>
<line x1="153.38" y1="118.76" x2="159.38" y2="118.76" class="err"/>
<circle cx="156.38" cy="111.92" r="2.5" class="obs"/>
<line x1="181.00" y1="110.78" x2="181.00" y2="117.62" class="err"/>
<line x1="178.00" y1="110.78" x2="184.00" y2="110.78" class="err"/>
<line x1="178.00" y1="117.62" x2="184.00" y2="117.62" class="err"/>
<circle cx="181.00" cy="114.20" r="2.5" class="obs"/>
<line x1="205.62" y1="114.20" x2="205.62" y2="118.76" class="err"/>
<line x1="202.62" y1="114.20" x2="208.62" y2="114.20" class="err"/>
<line x1="202.62" y1="118.76" x2="208.62" y2="118.76" class="err"/>
<circle cx="205.62" cy="116.48" r="2.5" class="obs"/>
<line x1="231.00" y1="113.06" x2="231.00" y2="117.62" class="err"/>
<line x1="228.00" y1="113.06" x2="234.00" y2="113.06" class="err"/>
<line x1="228.00" y1="117.62" x2="234.00" y2="117.62" class="err"/>
<circle cx="231.00" cy="115.34" r="2.5" class="obs"/>
<line x1="255.19" y1="115.34" x2="255.19" y2="119.90" class="err"/>
<line x1="252.19" y1="115.34" x2="258.19" y2="115.34" class="err"/>
<line x1="252.19" y1="119.90" x2="258.19" y2="119.90" class="err"/>
<circle cx="255.19" cy="117.62" r="2.5" class="obs"/>
<line x1="279.37" y1="114.20" x2="279.37" y2="118.76" class="err"/>
<line x1="276.37" y1="114.20" x2="282.37" y2="114.20" class="err"/>
<line x1="276.37" y1="118.76" x2="282.37" y2="118.76" class="err"/>
<circle cx="279.37" cy="116.48" r="2.5" class="obs"/>
<line x1="303.67" y1="111.92" x2="303.67" y2="116.48" class="err"/>
<line x1="300.67" y1="111.92" x2="306.67" y2="111.92" class="err"/>
<line x1="300.67" y1="116.48" x2="306.67" y2="116.48" class="err"/>
<circle cx="303.67" cy="114.20" r="2.5" class="obs"/>
<line x1="329.26" y1="109.64" x2="329.26" y2="114.20" class="err"/>
<line x1="326.26" y1="109.64" x2="332.26" y2="109.64" class="err"/>
<line x1="326.26" y1="114.20" x2="332.26" y2="114.20" class="err"/>
<circle cx="329.26" cy="111.92" r="2.5" class="obs"/>
<line x1="353.45" y1="113.06" x2="353.45" y2="119.90" class="err"/>
<line x1="350.45" y1="113.06" x2="356.45" y2="113.06" class="err"/>
<line x1="350.45" y1="119.90" x2="356.45" y2="119.90" class="err"/>
<circle cx="353.45" cy="116.48" r="2.5" class="obs"/>
<line x1="377.74" y1="114.20" x2="377.74" y2="121.04" class="err"/>
<line x1="374.74" y1="114.20" x2="380.74" y2="114.20" class="err"/>
<line x1="374.74" y1="121.04" x2="380.74" y2="121.04" class="err"/>
<circle cx="377.74" cy="117.62" r="2.5" class="obs"/>
<line x1="403.33" y1="125.60" x2="403.33" y2="132.44" class="err"/>
<line x1="400.33" y1="125.60" x2="406.33" y2="125.60" class="err"/>
<line x1="400.33" y1="132.44" x2="406.33" y2="132.44" class="err"/>
<circle cx="403.33" cy="129.02" r="2.5" class="obs"/>
<line x1="427.63" y1="134.72" x2="427.63" y2="141.56" class="err"/>
<line x1="424.63" y1="134.72" x2="430.63" y2="134.72" class="err"/>
<line x1="424.63" y1="141.56" x2="430.63" y2="141.56" class="err"/>
<circle cx="427.63" cy="138.14" r="2.5" class="obs"/>
<line x1="451.82" y1="143.84" x2="451.82" y2="150.68" class="err"/>
<line x1="448.82" y1="143.84" x2="454.82" y2="143.84" class="err"/>
<line x1="448.82" y1="150.68" x2="454.82" y2="150.68" class="err"/>
<circle cx="451.82" cy="147.26" r="2.5" class="obs"/>
<line x1="477.41" y1="141.56" x2="477.41" y2="148.40" class="err"/>
<line x1="474.41" y1="141.56" x2="480.41" y2="141.56" class="err"/>
<line x1="474.41" y1="148.40" x2="480.41" y2="148.40" class="err"/>
<circle cx="477.41" cy="144.98" r="2.5" class="obs"/>
<line x1="501.70" y1="142.70" x2="501.70" y2="149.54" class="err"/>
<line x1="498.70" y1="142.70" x2="504.70" y2="142.70" class="err"/>
<line x1="498.70" y1="149.54" x2="504.70" y2="149.54" class="err"/>
<circle cx="501.70" cy="146.12" r="2.5" class="obs"/>
<line x1="525.89" y1="139.28" x2="525.89" y2="148.40" class="err"/>
<line x1="522.89" y1="139.28" x2="528.89" y2="139.28" class="err"/>
<line x1="522.89" y1="148.40" x2="528.89" y2="148.40" class="err"/>
<circle cx="525.89" cy="143.84" r="2.5" class="obs"/>
<line x1="551.48" y1="135.86" x2="551.48" y2="147.26" class="err"/>
<line x1="548.48" y1="135.86" x2="554.48" y2="135.86" class="err"/>
<line x1="548.48" y1="147.26" x2="554.48" y2="147.26" class="err"/>
<circle cx="551.48" cy="141.56" r="2.5" class="obs"/>
<g class="legend">
<line x1="82" y1="69" x2="106" y2="69" class="fw"/>
<text x="112" y="73" class="lbl-l">framework fit</text>
<line x1="82" y1="87" x2="106" y2="87" class="nt"/>
<text x="112" y="91" class="lbl-l">Newtonian (no halo)</text>
<circle cx="94" cy="105" r="2.5" class="obs"/>
<text x="112" y="109" class="lbl">observed V±err</text>
</g>
<g class="legend">
<line x1="442" y1="69" x2="466" y2="69" class="rho"/>
<text x="472" y="73" class="lbl-r">ρ(r) raw</text>
<line x1="442" y1="87" x2="466" y2="87" class="sig"/>
<text x="472" y="91" class="lbl-s">Σ(r) cumulative</text>
<text x="442" y="113" class="lbl-r">ρ peak: 848 M☉/pc²</text>
</g>
<rect x="705" y="55" width="170" height="170" class="preview-bg"/>
<defs><radialGradient id="g_NGC5033" cx="0.5" cy="0.5" r="0.5">
  <stop offset="0.0000" stop-color="rgb(255,255,255)"/>
  <stop offset="0.0313" stop-color="rgb(149,149,149)"/>
  <stop offset="0.0625" stop-color="rgb(108,108,108)"/>
  <stop offset="0.0938" stop-color="rgb(100,100,100)"/>
  <stop offset="0.1250" stop-color="rgb(93,93,93)"/>
  <stop offset="0.1563" stop-color="rgb(85,85,85)"/>
  <stop offset="0.1875" stop-color="rgb(82,82,82)"/>
  <stop offset="0.2188" stop-color="rgb(81,81,81)"/>
  <stop offset="0.2500" stop-color="rgb(79,79,79)"/>
  <stop offset="0.2813" stop-color="rgb(78,78,78)"/>
  <stop offset="0.3125" stop-color="rgb(76,76,76)"/>
  <stop offset="0.3438" stop-color="rgb(75,75,75)"/>
  <stop offset="0.3750" stop-color="rgb(73,73,73)"/>
  <stop offset="0.4063" stop-color="rgb(72,72,72)"/>
  <stop offset="0.4375" stop-color="rgb(70,70,70)"/>
  <stop offset="0.4688" stop-color="rgb(69,69,69)"/>
  <stop offset="0.5000" stop-color="rgb(67,67,67)"/>
  <stop offset="0.5313" stop-color="rgb(66,66,66)"/>
  <stop offset="0.5625" stop-color="rgb(64,64,64)"/>
  <stop offset="0.5938" stop-color="rgb(62,62,62)"/>
  <stop offset="0.6250" stop-color="rgb(60,60,60)"/>
  <stop offset="0.6563" stop-color="rgb(58,58,58)"/>
  <stop offset="0.6875" stop-color="rgb(55,55,55)"/>
  <stop offset="0.7188" stop-color="rgb(53,53,53)"/>
  <stop offset="0.7500" stop-color="rgb(51,51,51)"/>
  <stop offset="0.7813" stop-color="rgb(49,49,49)"/>
  <stop offset="0.8125" stop-color="rgb(47,47,47)"/>
  <stop offset="0.8438" stop-color="rgb(45,45,45)"/>
  <stop offset="0.8750" stop-color="rgb(43,43,43)"/>
  <stop offset="0.9063" stop-color="rgb(41,41,41)"/>
  <stop offset="0.9375" stop-color="rgb(39,39,39)"/>
  <stop offset="0.9688" stop-color="rgb(20,20,20)"/>
  <stop offset="1.0000" stop-color="rgb(0,0,0)"/>
</radialGradient></defs>
<circle cx="790" cy="140" r="81" fill="url(#g_NGC5033)"/>
<text x="790" y="49" text-anchor="middle" class="preview-lbl">face-on luminance from ρ(r)</text>
<text x="790" y="239" text-anchor="middle" class="preview-lbl">edge at r = 48.2 kpc</text>
</svg>