<svg xmlns="http://www.w3.org/2000/svg" viewBox="0 0 890 420" width="890" height="420" font-family="sans-serif" font-size="12">
<style>
  .ax { stroke: #333; stroke-width: 1; fill: none; }
  .grid { stroke: #ddd; stroke-width: 0.5; fill: none; }
  .lbl { fill: #333; }
  .lbl-l { fill: #0066cc; }
  .lbl-r { fill: #b03030; }
  .obs { fill: #222; }
  .err { stroke: #555; stroke-width: 0.8; fill: none; }
  .fw { stroke: #0066cc; stroke-width: 2.2; fill: none; }
  .nt { stroke: #cc6600; stroke-width: 1.6; fill: none; stroke-dasharray: 5,3; }
  .lbl-s { fill: #cc7000; }
  .rho { stroke: #b03030; stroke-width: 2.0; fill: none; }
  .sig { stroke: #cc7000; stroke-width: 1.8; fill: none; }
  .title { fill: #111; font-size: 16px; font-weight: 600; }
  .subtitle { fill: #555; font-size: 11px; }
  .preview-bg { fill: #000; }
  .preview-lbl { fill: #888; font-size: 10px; }
  .legend { font-size: 11px; }
</style>
<text x="343.5" y="22" text-anchor="middle" class="title">NGC5985</text>
<text x="343.5" y="38" text-anchor="middle" class="subtitle">rMax=34.7 kpc, N=33, RMS=4.9 km/s (1.7%), amp=572</text>
<line x1="70" y1="365.0" x2="617" y2="365.0" class="grid"/>
<text x="64" y="369.0" text-anchor="end" class="lbl-l">0</text>
<line x1="70" y1="303.0" x2="617" y2="303.0" class="grid"/>
<text x="64" y="307.0" text-anchor="end" class="lbl-l">74</text>
<line x1="70" y1="241.0" x2="617" y2="241.0" class="grid"/>
<text x="64" y="245.0" text-anchor="end" class="lbl-l">149</text>
<line x1="70" y1="179.0" x2="617" y2="179.0" class="grid"/>
<text x="64" y="183.0" text-anchor="end" class="lbl-l">223</text>
<line x1="70" y1="117.0" x2="617" y2="117.0" class="grid"/>
<text x="64" y="121.0" text-anchor="end" class="lbl-l">297</text>
<line x1="70" y1="55.0" x2="617" y2="55.0" class="grid"/>
<text x="64" y="59.0" text-anchor="end" class="lbl-l">372</text>
<text x="623" y="369.0" text-anchor="start" class="lbl-r">0.0</text>
<text x="623" y="327.7" text-anchor="start" class="lbl-r">0.2</text>
<text x="623" y="286.3" text-anchor="start" class="lbl-r">0.4</text>
<text x="623" y="245.0" text-anchor="start" class="lbl-r">0.6</text>
<text x="623" y="203.7" text-anchor="start" class="lbl-r">0.8</text>
<text x="623" y="162.3" text-anchor="start" class="lbl-r">1.0</text>
<line x1="70.0" y1="55" x2="70.0" y2="365" class="grid"/>
<text x="70.0" y="381" text-anchor="middle" class="lbl">0.0</text>
<line x1="161.2" y1="55" x2="161.2" y2="365" class="grid"/>
<text x="161.2" y="381" text-anchor="middle" class="lbl">7.2</text>
<line x1="252.3" y1="55" x2="252.3" y2="365" class="grid"/>
<text x="252.3" y="381" text-anchor="middle" class="lbl">14.4</text>
<line x1="343.5" y1="55" x2="343.5" y2="365" class="grid"/>
<text x="343.5" y="381" text-anchor="middle" class="lbl">21.5</text>
<line x1="434.7" y1="55" x2="434.7" y2="365" class="grid"/>
<text x="434.7" y="381" text-anchor="middle" class="lbl">28.7</text>
<line x1="525.8" y1="55" x2="525.8" y2="365" class="grid"/>
<text x="525.8" y="381" text-anchor="middle" class="lbl">35.9</text>
<line x1="617.0" y1="55" x2="617.0" y2="365" class="grid"/>
<text x="617.0" y="381" text-anchor="middle" class="lbl">43.1</text>
<text x="343.5" y="408" text-anchor="middle" class="lbl">radius (kpc)</text>
<text x="16" y="210" text-anchor="middle" class="lbl-l" transform="rotate(-90, 16, 210)">velocity (km/s)</text>
<text x="654" y="210" text-anchor="middle" class="lbl-r" transform="rotate(-90, 654, 210)">mass profile (normalized to peak)</text>
<rect x="70" y="55" width="547" height="310" class="ax"/>
<path d="M 70.0,158.3 L 72.5,164.3 L 75.0,170.3 L 77.5,176.3 L 80.0,182.3 L 82.5,188.3 L 85.0,194.3 L 87.5,200.3 L 90.0,206.3 L 92.5,212.3 L 95.0,218.3 L 97.5,224.3 L 100.0,227.8 L 102.5,229.5 L 105.0,231.3 L 107.5,233.0 L 110.0,234.7 L 112.5,236.4 L 115.0,238.1 L 117.5,239.9 L 120.0,241.6 L 122.5,243.3 L 124.9,245.0 L 127.4,246.7 L 129.9,248.5 L 132.4,250.2 L 134.9,251.9 L 137.4,253.6 L 139.9,255.3 L 142.4,257.0 L 144.9,258.8 L 147.4,260.5 L 149.9,262.2 L 152.4,263.9 L 154.9,265.4 L 157.4,266.2 L 159.9,267.0 L 162.4,267.8 L 164.9,268.7 L 167.4,269.5 L 169.9,270.3 L 172.4,271.1 L 174.9,272.0 L 177.4,272.8 L 179.9,273.6 L 182.4,274.4 L 184.9,275.2 L 187.4,276.1 L 189.9,276.9 L 192.4,277.7 L 194.9,278.5 L 197.4,279.4 L 199.9,280.2 L 202.4,281.0 L 204.9,281.8 L 207.4,282.6 L 209.9,283.5 L 212.4,284.3 L 214.9,285.1 L 217.4,285.9 L 219.9,286.8 L 222.4,287.6 L 224.9,288.4 L 227.4,289.2 L 229.9,289.8 L 232.4,290.1 L 234.8,290.4 L 237.3,290.7 L 239.8,291.0 L 242.3,291.3 L 244.8,291.6 L 247.3,291.9 L 249.8,292.3 L 252.3,292.6 L 254.8,292.9 L 257.3,293.2 L 259.8,293.5 L 262.3,293.8 L 264.8,294.1 L 267.3,294.4 L 269.8,294.7 L 272.3,295.0 L 274.8,295.4 L 277.3,295.7 L 279.8,296.0 L 282.3,296.3 L 284.8,296.6 L 287.3,296.9 L 289.8,297.2 L 292.3,297.5 L 294.8,297.8 L 297.3,298.1 L 299.8,298.5 L 302.3,298.8 L 304.8,299.1 L 307.3,299.4 L 309.8,299.7 L 312.3,300.0 L 314.8,300.3 L 317.3,300.6 L 319.8,300.9 L 322.3,301.2 L 324.8,301.6 L 327.3,301.9 L 329.8,302.2 L 332.3,302.5 L 334.8,302.8 L 337.3,303.1 L 339.8,303.4 L 342.3,303.7 L 344.7,304.0 L 347.2,304.3 L 349.7,304.7 L 352.2,305.0 L 354.7,305.3 L 357.2,305.6 L 359.7,305.9 L 362.2,306.2 L 364.7,306.5 L 367.2,306.8 L 369.7,307.1 L 372.2,307.4 L 374.7,307.8 L 377.2,308.1 L 379.7,308.4 L 382.2,308.7 L 384.7,309.0 L 387.2,309.3 L 389.7,309.6 L 392.2,309.9 L 394.7,310.2 L 397.2,310.5 L 399.7,310.9 L 402.2,311.2 L 404.7,311.5 L 407.2,311.8 L 409.7,312.1 L 412.2,312.4 L 414.7,312.7 L 417.2,313.0 L 419.7,313.3 L 422.2,313.6 L 424.7,314.0 L 427.2,314.3 L 429.7,314.6 L 432.2,314.9 L 434.7,315.2 L 437.2,315.5 L 439.7,315.8 L 442.2,316.1 L 444.7,316.4 L 447.2,316.7 L 449.7,317.1 L 452.2,317.4 L 454.6,317.7 L 457.1,318.0 L 459.6,318.3 L 462.1,318.6 L 464.6,318.9 L 467.1,319.2 L 469.6,319.5 L 472.1,319.8 L 474.6,320.2 L 477.1,320.5 L 479.6,320.8 L 482.1,321.1 L 484.6,321.4 L 487.1,321.7 L 489.6,322.0 L 492.1,322.3 L 494.6,322.6 L 497.1,322.9 L 499.6,323.3 L 502.1,323.6 L 504.6,323.9 L 507.1,324.2 L 509.6,324.5 L 512.1,324.8 L 514.6,325.1 L 517.1,325.4 L 519.6,325.7 L 522.1,326.0 L 524.6,326.4 L 527.1,326.7 L 529.6,327.0 L 532.1,327.3 L 534.6,327.6 L 537.1,327.9 L 539.6,328.2 L 542.1,328.5 L 544.6,328.8 L 547.1,329.1 L 549.6,329.5 L 552.1,329.8 L 554.6,330.1 L 557.1,330.4 L 559.6,332.2 L 562.1,334.8 L 564.5,337.4 L 567.0,340.0 L 569.5,342.7 L 572.0,345.3 L 574.5,347.9 L 577.0,350.5 L 579.5,353.1 L 582.0,355.7 L 584.5,358.3 L 587.0,360.9 L 589.5,363.5 L 592.0,365.0 L 594.5,365.0 L 597.0,365.0 L 599.5,365.0 L 602.0,365.0 L 604.5,365.0 L 607.0,365.0 L 609.5,365.0 L 612.0,365.0 L 614.5,365.0 L 617.0,365.0" class="rho"/>
<path d="M 70.0,158.3 L 72.5,158.6 L 75.0,159.0 L 77.5,159.7 L 80.0,160.6 L 82.5,161.7 L 85.0,163.1 L 87.5,164.5 L 90.0,166.1 L 92.5,167.8 L 95.0,169.7 L 97.5,171.5 L 100.0,173.5 L 102.5,175.4 L 105.0,177.4 L 107.5,179.5 L 110.0,181.5 L 112.5,183.5 L 115.0,185.6 L 117.5,187.7 L 120.0,189.7 L 122.5,191.8 L 124.9,193.9 L 127.4,196.0 L 129.9,198.0 L 132.4,200.1 L 134.9,202.1 L 137.4,204.2 L 139.9,206.2 L 142.4,208.2 L 144.9,210.2 L 147.4,212.2 L 149.9,214.1 L 152.4,216.1 L 154.9,218.0 L 157.4,219.8 L 159.9,221.7 L 162.4,223.5 L 164.9,225.3 L 167.4,227.0 L 169.9,228.8 L 172.4,230.5 L 174.9,232.2 L 177.4,233.9 L 179.9,235.5 L 182.4,237.1 L 184.9,238.7 L 187.4,240.3 L 189.9,241.9 L 192.4,243.4 L 194.9,244.9 L 197.4,246.4 L 199.9,247.9 L 202.4,249.4 L 204.9,250.8 L 207.4,252.2 L 209.9,253.6 L 212.4,255.0 L 214.9,256.3 L 217.4,257.6 L 219.9,258.9 L 222.4,260.2 L 224.9,261.4 L 227.4,262.7 L 229.9,263.9 L 232.4,265.0 L 234.8,266.2 L 237.3,267.3 L 239.8,268.4 L 242.3,269.5 L 244.8,270.6 L 247.3,271.6 L 249.8,272.6 L 252.3,273.7 L 254.8,274.6 L 257.3,275.6 L 259.8,276.6 L 262.3,277.5 L 264.8,278.5 L 267.3,279.4 L 269.8,280.3 L 272.3,281.2 L 274.8,282.1 L 277.3,283.0 L 279.8,283.8 L 282.3,284.7 L 284.8,285.5 L 287.3,286.4 L 289.8,287.2 L 292.3,288.0 L 294.8,288.8 L 297.3,289.6 L 299.8,290.4 L 302.3,291.2 L 304.8,291.9 L 307.3,292.7 L 309.8,293.5 L 312.3,294.2 L 314.8,295.0 L 317.3,295.7 L 319.8,296.4 L 322.3,297.2 L 324.8,297.9 L 327.3,298.6 L 329.8,299.3 L 332.3,300.0 L 334.8,300.7 L 337.3,301.4 L 339.8,302.1 L 342.3,302.7 L 344.7,303.4 L 347.2,304.1 L 349.7,304.7 L 352.2,305.4 L 354.7,306.0 L 357.2,306.7 L 359.7,307.3 L 362.2,307.9 L 364.7,308.6 L 367.2,309.2 L 369.7,309.8 L 372.2,310.4 L 374.7,311.0 L 377.2,311.6 L 379.7,312.2 L 382.2,312.8 L 384.7,313.4 L 387.2,314.0 L 389.7,314.6 L 392.2,315.1 L 394.7,315.7 L 397.2,316.3 L 399.7,316.8 L 402.2,317.4 L 404.7,318.0 L 407.2,318.5 L 409.7,319.1 L 412.2,319.6 L 414.7,320.1 L 417.2,320.7 L 419.7,321.2 L 422.2,321.7 L 424.7,322.2 L 427.2,322.7 L 429.7,323.3 L 432.2,323.8 L 434.7,324.3 L 437.2,324.8 L 439.7,325.3 L 442.2,325.8 L 444.7,326.2 L 447.2,326.7 L 449.7,327.2 L 452.2,327.7 L 454.6,328.2 L 457.1,328.6 L 459.6,329.1 L 462.1,329.6 L 464.6,330.0 L 467.1,330.5 L 469.6,330.9 L 472.1,331.4 L 474.6,331.8 L 477.1,332.3 L 479.6,332.7 L 482.1,333.1 L 484.6,333.6 L 487.1,334.0 L 489.6,334.4 L 492.1,334.8 L 494.6,335.2 L 497.1,335.7 L 499.6,336.1 L 502.1,336.5 L 504.6,336.9 L 507.1,337.3 L 509.6,337.7 L 512.1,338.1 L 514.6,338.5 L 517.1,338.9 L 519.6,339.3 L 522.1,339.7 L 524.6,340.1 L 527.1,340.5 L 529.6,340.9 L 532.1,341.3 L 534.6,341.7 L 537.1,342.0 L 539.6,342.4 L 542.1,342.8 L 544.6,343.2 L 547.1,343.6 L 549.6,344.0 L 552.1,344.4 L 554.6,344.8 L 557.1,345.2 L 559.6,345.6 L 562.1,346.0 L 564.5,346.4 L 567.0,346.7 L 569.5,347.1 L 572.0,347.5 L 574.5,347.8 L 577.0,348.2 L 579.5,348.5 L 582.0,348.8 L 584.5,349.2 L 587.0,349.5 L 589.5,349.8 L 592.0,350.0 L 594.5,350.3 L 597.0,350.6 L 599.5,350.8 L 602.0,351.0 L 604.5,351.3 L 607.0,351.5 L 609.5,351.7 L 612.0,351.9 L 614.5,352.1 L 617.0,352.3" class="sig"/>
<path d="M 75.5,308.2 L 80.9,286.5 L 86.4,271.1 L 91.9,259.2 L 97.3,249.8 L 102.8,241.8 L 108.3,234.5 L 113.8,227.6 L 119.2,221.3 L 124.7,215.5 L 130.2,210.1 L 135.6,205.0 L 141.1,200.4 L 146.6,196.1 L 152.1,192.2 L 157.5,188.5 L 163.0,184.9 L 168.5,181.5 L 173.9,178.2 L 179.4,175.1 L 184.9,172.0 L 190.3,169.1 L 195.8,166.3 L 201.3,163.6 L 206.8,161.0 L 212.2,158.5 L 217.7,156.2 L 223.2,153.9 L 228.6,151.8 L 234.1,149.7 L 239.6,147.7 L 245.0,145.6 L 250.5,143.6 L 256.0,141.6 L 261.5,139.7 L 266.9,137.8 L 272.4,135.9 L 277.9,134.0 L 283.3,132.2 L 288.8,130.4 L 294.3,128.6 L 299.7,126.8 L 305.2,125.1 L 310.7,123.5 L 316.1,121.8 L 321.6,120.2 L 327.1,118.6 L 332.6,117.1 L 338.0,115.6 L 343.5,114.1 L 349.0,112.7 L 354.4,111.3 L 359.9,109.9 L 365.4,108.5 L 370.8,107.2 L 376.3,105.9 L 381.8,104.6 L 387.3,103.4 L 392.7,102.2 L 398.2,101.0 L 403.7,99.9 L 409.1,98.8 L 414.6,97.7 L 420.1,96.6 L 425.6,95.6 L 431.0,94.6 L 436.5,93.7 L 442.0,92.7 L 447.4,91.8 L 452.9,90.9 L 458.4,90.1 L 463.8,89.2 L 469.3,88.4 L 474.8,87.7 L 480.3,86.9 L 485.7,86.2 L 491.2,85.5 L 496.7,84.8 L 502.1,84.2 L 507.6,83.6 L 513.1,83.0 L 518.5,82.4 L 524.0,81.9 L 529.5,81.4 L 535.0,80.9 L 540.4,80.4 L 545.9,80.0 L 551.4,79.6 L 556.8,79.2 L 562.3,78.9 L 567.8,79.0 L 573.2,79.3 L 578.7,80.0 L 584.2,80.9 L 589.6,82.2 L 595.1,83.6 L 600.6,85.1 L 606.1,86.5 L 611.5,88.0 L 617.0,89.3" class="nt"/>
<path d="M 74.6,335.8 L 79.1,312.3 L 83.7,288.8 L 88.2,268.0 L 92.8,249.8 L 97.3,234.2 L 101.9,220.8 L 106.5,209.1 L 111.0,198.5 L 115.6,188.8 L 120.1,179.9 L 124.7,171.6 L 129.3,164.0 L 133.8,157.1 L 138.4,151.0 L 142.9,145.7 L 147.5,141.2 L 152.1,137.3 L 156.6,134.0 L 161.2,131.1 L 165.7,128.4 L 170.3,126.0 L 174.8,123.7 L 179.4,121.6 L 184.0,119.6 L 188.5,117.8 L 193.1,116.2 L 197.6,114.9 L 202.2,113.9 L 206.8,113.1 L 211.3,112.8 L 215.9,112.8 L 220.4,113.1 L 225.0,113.7 L 229.5,114.6 L 234.1,115.7 L 238.7,116.7 L 243.2,117.6 L 247.8,118.5 L 252.3,119.2 L 256.9,119.8 L 261.4,120.2 L 266.0,120.6 L 270.6,120.8 L 275.1,121.0 L 279.7,121.1 L 284.2,121.1 L 288.8,121.1 L 293.4,121.0 L 297.9,120.9 L 302.5,120.7 L 307.0,120.6 L 311.6,120.4 L 316.1,120.2 L 320.7,120.0 L 325.3,119.8 L 329.8,119.6 L 334.4,119.4 L 338.9,119.2 L 343.5,119.0 L 348.1,118.9 L 352.6,118.7 L 357.2,118.5 L 361.7,118.4 L 366.3,118.3 L 370.9,118.2 L 375.4,118.1 L 380.0,118.1 L 384.5,118.0 L 389.1,118.0 L 393.6,118.0 L 398.2,118.1 L 402.8,118.1 L 407.3,118.2 L 411.9,118.3 L 416.4,118.5 L 421.0,118.6 L 425.6,118.8 L 430.1,119.0 L 434.7,119.2 L 439.2,119.5 L 443.8,119.7 L 448.3,120.0 L 452.9,120.3 L 457.5,120.6 L 462.0,120.9 L 466.6,121.3 L 471.1,121.6 L 475.7,121.9 L 480.3,122.2 L 484.8,122.5 L 489.4,122.7 L 493.9,123.0 L 498.5,123.1 L 503.0,123.2 L 507.6,123.3 L 512.2,123.2 L 516.7,122.9 L 521.3,122.6 L 525.8,122.0 L 530.4,121.1 L 535.0,120.0 L 539.5,118.7 L 544.1,117.2 L 548.6,115.6 L 553.2,114.4 L 557.7,113.8 L 562.3,114.2 L 566.9,116.2 L 571.4,119.6 L 576.0,124.5 L 580.5,130.5 L 585.1,137.3 L 589.6,144.3 L 594.2,151.3 L 598.8,158.1 L 603.3,164.4 L 607.9,170.2 L 612.4,175.5 L 617.0,180.5" class="fw"/>
<line x1="114.98" y1="172.38" x2="114.98" y2="185.72" class="err"/>
<line x1="111.98" y1="172.38" x2="117.98" y2="172.38" class="err"/>
<line x1="111.98" y1="185.72" x2="117.98" y2="185.72" class="err"/>
<circle cx="114.98" cy="179.05" r="2.5" class="obs"/>
<line x1="123.74" y1="168.10" x2="123.74" y2="178.32" class="err"/>
<line x1="120.74" y1="168.10" x2="126.74" y2="168.10" class="err"/>
<line x1="120.74" y1="178.32" x2="126.74" y2="178.32" class="err"/>
<circle cx="123.74" cy="173.21" r="2.5" class="obs"/>
<line x1="133.14" y1="153.95" x2="133.14" y2="162.45" class="err"/>
<line x1="130.14" y1="153.95" x2="136.14" y2="153.95" class="err"/>
<line x1="130.14" y1="162.45" x2="136.14" y2="162.45" class="err"/>
<circle cx="133.14" cy="158.20" r="2.5" class="obs"/>
<line x1="142.93" y1="144.36" x2="142.93" y2="155.36" class="err"/>
<line x1="139.93" y1="144.36" x2="145.93" y2="144.36" class="err"/>
<line x1="139.93" y1="155.36" x2="145.93" y2="155.36" class="err"/>
<circle cx="142.93" cy="149.86" r="2.5" class="obs"/>
<line x1="152.20" y1="139.85" x2="152.20" y2="151.53" class="err"/>
<line x1="149.20" y1="139.85" x2="155.20" y2="139.85" class="err"/>
<line x1="149.20" y1="151.53" x2="155.20" y2="151.53" class="err"/>
<circle cx="152.20" cy="145.69" r="2.5" class="obs"/>
<line x1="161.73" y1="132.98" x2="161.73" y2="143.40" class="err"/>
<line x1="158.73" y1="132.98" x2="164.73" y2="132.98" class="err"/>
<line x1="158.73" y1="143.40" x2="164.73" y2="143.40" class="err"/>
<circle cx="161.73" cy="138.19" r="2.5" class="obs"/>
<line x1="171.89" y1="122.34" x2="171.89" y2="129.02" class="err"/>
<line x1="168.89" y1="122.34" x2="174.89" y2="122.34" class="err"/>
<line x1="168.89" y1="129.02" x2="174.89" y2="129.02" class="err"/>
<circle cx="171.89" cy="125.68" r="2.5" class="obs"/>
<line x1="181.68" y1="117.97" x2="181.68" y2="130.06" class="err"/>
<line x1="178.68" y1="117.97" x2="184.68" y2="117.97" class="err"/>
<line x1="178.68" y1="130.06" x2="184.68" y2="130.06" class="err"/>
<circle cx="181.68" cy="124.01" r="2.5" class="obs"/>
<line x1="190.70" y1="115.73" x2="190.70" y2="127.29" class="err"/>
<line x1="187.70" y1="115.73" x2="193.70" y2="115.73" class="err"/>
<line x1="187.70" y1="127.29" x2="193.70" y2="127.29" class="err"/>
<circle cx="190.70" cy="121.51" r="2.5" class="obs"/>
<line x1="200.48" y1="104.50" x2="200.48" y2="121.84" class="err"/>
<line x1="197.48" y1="104.50" x2="203.48" y2="104.50" class="err"/>
<line x1="197.48" y1="121.84" x2="203.48" y2="121.84" class="err"/>
<circle cx="200.48" cy="113.17" r="2.5" class="obs"/>
<line x1="210.77" y1="104.58" x2="210.77" y2="121.76" class="err"/>
<line x1="207.77" y1="104.58" x2="213.77" y2="104.58" class="err"/>
<line x1="207.77" y1="121.76" x2="213.77" y2="121.76" class="err"/>
<circle cx="210.77" cy="113.17" r="2.5" class="obs"/>
<line x1="220.17" y1="102.83" x2="220.17" y2="120.18" class="err"/>
<line x1="217.17" y1="102.83" x2="223.17" y2="102.83" class="err"/>
<line x1="217.17" y1="120.18" x2="223.17" y2="120.18" class="err"/>
<circle cx="220.17" cy="111.50" r="2.5" class="obs"/>
<line x1="229.57" y1="103.66" x2="229.57" y2="121.01" class="err"/>
<line x1="226.57" y1="103.66" x2="232.57" y2="103.66" class="err"/>
<line x1="226.57" y1="121.01" x2="232.57" y2="121.01" class="err"/>
<circle cx="229.57" cy="112.34" r="2.5" class="obs"/>
<line x1="240.12" y1="102.25" x2="240.12" y2="119.09" class="err"/>
<line x1="237.12" y1="102.25" x2="243.12" y2="102.25" class="err"/>
<line x1="237.12" y1="119.09" x2="243.12" y2="119.09" class="err"/>
<circle cx="240.12" cy="110.67" r="2.5" class="obs"/>
<line x1="249.14" y1="107.52" x2="249.14" y2="122.16" class="err"/>
<line x1="246.14" y1="107.52" x2="252.14" y2="107.52" class="err"/>
<line x1="246.14" y1="122.16" x2="252.14" y2="122.16" class="err"/>
<circle cx="249.14" cy="114.84" r="2.5" class="obs"/>
<line x1="259.69" y1="110.90" x2="259.69" y2="127.11" class="err"/>
<line x1="256.69" y1="110.90" x2="262.69" y2="110.90" class="err"/>
<line x1="256.69" y1="127.11" x2="262.69" y2="127.11" class="err"/>
<circle cx="259.69" cy="119.01" r="2.5" class="obs"/>
<line x1="268.71" y1="115.41" x2="268.71" y2="124.28" class="err"/>
<line x1="265.71" y1="115.41" x2="271.71" y2="115.41" class="err"/>
<line x1="265.71" y1="124.28" x2="271.71" y2="124.28" class="err"/>
<circle cx="268.71" cy="119.84" r="2.5" class="obs"/>
<line x1="277.73" y1="118.74" x2="277.73" y2="127.61" class="err"/>
<line x1="274.73" y1="118.74" x2="280.73" y2="118.74" class="err"/>
<line x1="274.73" y1="127.61" x2="280.73" y2="127.61" class="err"/>
<circle cx="277.73" cy="123.18" r="2.5" class="obs"/>
<line x1="288.27" y1="118.98" x2="288.27" y2="125.70" class="err"/>
<line x1="285.27" y1="118.98" x2="291.27" y2="118.98" class="err"/>
<line x1="285.27" y1="125.70" x2="291.27" y2="125.70" class="err"/>
<circle cx="288.27" cy="122.34" r="2.5" class="obs"/>
<line x1="297.29" y1="123.80" x2="297.29" y2="129.22" class="err"/>
<line x1="294.29" y1="123.80" x2="300.29" y2="123.80" class="err"/>
<line x1="294.29" y1="129.22" x2="300.29" y2="129.22" class="err"/>
<circle cx="297.29" cy="126.51" r="2.5" class="obs"/>
<line x1="307.84" y1="122.67" x2="307.84" y2="128.69" class="err"/>
<line x1="304.84" y1="122.67" x2="310.84" y2="122.67" class="err"/>
<line x1="304.84" y1="128.69" x2="310.84" y2="128.69" class="err"/>
<circle cx="307.84" cy="125.68" r="2.5" class="obs"/>
<line x1="316.98" y1="117.05" x2="316.98" y2="122.64" class="err"/>
<line x1="313.98" y1="117.05" x2="319.98" y2="117.05" class="err"/>
<line x1="313.98" y1="122.64" x2="319.98" y2="122.64" class="err"/>
<circle cx="316.98" cy="119.84" r="2.5" class="obs"/>
<line x1="327.40" y1="120.05" x2="327.40" y2="126.30" class="err"/>
<line x1="324.40" y1="120.05" x2="330.40" y2="120.05" class="err"/>
<line x1="324.40" y1="126.30" x2="330.40" y2="126.30" class="err"/>
<circle cx="327.40" cy="123.18" r="2.5" class="obs"/>
<line x1="336.55" y1="122.31" x2="336.55" y2="127.38" class="err"/>
<line x1="333.55" y1="122.31" x2="339.55" y2="122.31" class="err"/>
<line x1="333.55" y1="127.38" x2="339.55" y2="127.38" class="err"/>
<circle cx="336.55" cy="124.84" r="2.5" class="obs"/>
<line x1="345.57" y1="117.84" x2="345.57" y2="128.51" class="err"/>
<line x1="342.57" y1="117.84" x2="348.57" y2="117.84" class="err"/>
<line x1="342.57" y1="128.51" x2="348.57" y2="128.51" class="err"/>
<circle cx="345.57" cy="123.18" r="2.5" class="obs"/>
<line x1="356.12" y1="116.35" x2="356.12" y2="123.34" class="err"/>
<line x1="353.12" y1="116.35" x2="359.12" y2="116.35" class="err"/>
<line x1="353.12" y1="123.34" x2="359.12" y2="123.34" class="err"/>
<circle cx="356.12" cy="119.84" r="2.5" class="obs"/>
<line x1="365.14" y1="113.90" x2="365.14" y2="120.78" class="err"/>
<line x1="362.14" y1="113.90" x2="368.14" y2="113.90" class="err"/>
<line x1="362.14" y1="120.78" x2="368.14" y2="120.78" class="err"/>
<circle cx="365.14" cy="117.34" r="2.5" class="obs"/>
<line x1="375.68" y1="116.38" x2="375.68" y2="124.97" class="err"/>
<line x1="372.68" y1="116.38" x2="378.68" y2="116.38" class="err"/>
<line x1="372.68" y1="124.97" x2="378.68" y2="124.97" class="err"/>
<circle cx="375.68" cy="120.68" r="2.5" class="obs"/>
<line x1="384.70" y1="117.17" x2="384.70" y2="127.52" class="err"/>
<line x1="381.70" y1="117.17" x2="387.70" y2="117.17" class="err"/>
<line x1="381.70" y1="127.52" x2="387.70" y2="127.52" class="err"/>
<circle cx="384.70" cy="122.34" r="2.5" class="obs"/>
<line x1="399.69" y1="114.00" x2="399.69" y2="120.68" class="err"/>
<line x1="396.69" y1="114.00" x2="402.69" y2="114.00" class="err"/>
<line x1="396.69" y1="120.68" x2="402.69" y2="120.68" class="err"/>
<circle cx="399.69" cy="117.34" r="2.5" class="obs"/>
<line x1="437.43" y1="118.17" x2="437.43" y2="124.84" class="err"/>
<line x1="434.43" y1="118.17" x2="440.43" y2="118.17" class="err"/>
<line x1="434.43" y1="124.84" x2="440.43" y2="124.84" class="err"/>
<circle cx="437.43" cy="121.51" r="2.5" class="obs"/>
<line x1="473.51" y1="121.51" x2="473.51" y2="128.18" class="err"/>
<line x1="470.51" y1="121.51" x2="476.51" y2="121.51" class="err"/>
<line x1="470.51" y1="128.18" x2="476.51" y2="128.18" class="err"/>
<circle cx="473.51" cy="124.84" r="2.5" class="obs"/>
<line x1="511.12" y1="124.01" x2="511.12" y2="130.68" class="err"/>
<line x1="508.12" y1="124.01" x2="514.12" y2="124.01" class="err"/>
<line x1="508.12" y1="130.68" x2="514.12" y2="130.68" class="err"/>
<circle cx="511.12" cy="127.35" r="2.5" class="obs"/>
<g class="legend">
<line x1="82" y1="69" x2="106" y2="69" class="fw"/>
<text x="112" y="73" class="lbl-l">framework fit</text>
<line x1="82" y1="87" x2="106" y2="87" class="nt"/>
<text x="112" y="91" class="lbl-l">Newtonian (no halo)</text>
<circle cx="94" cy="105" r="2.5" class="obs"/>
<text x="112" y="109" class="lbl">observed V±err</text>
</g>
<g class="legend">
<line x1="442" y1="69" x2="466" y2="69" class="rho"/>
<text x="472" y="73" class="lbl-r">ρ(r) raw</text>
<line x1="442" y1="87" x2="466" y2="87" class="sig"/>
<text x="472" y="91" class="lbl-s">Σ(r) cumulative</text>
<text x="442" y="113" class="lbl-r">ρ peak: 833 M☉/pc²</text>
</g>
<rect x="705" y="55" width="170" height="170" class="preview-bg"/>
<defs><radialGradient id="g_NGC5985" cx="0.5" cy="0.5" r="0.5">
  <stop offset="0.0000" stop-color="rgb(255,255,255)"/>
  <stop offset="0.0313" stop-color="rgb(221,221,221)"/>
  <stop offset="0.0625" stop-color="rgb(186,186,186)"/>
  <stop offset="0.0938" stop-color="rgb(173,173,173)"/>
  <stop offset="0.1250" stop-color="rgb(161,161,161)"/>
  <stop offset="0.1563" stop-color="rgb(149,149,149)"/>
  <stop offset="0.1875" stop-color="rgb(142,142,142)"/>
  <stop offset="0.2188" stop-color="rgb(136,136,136)"/>
  <stop offset="0.2500" stop-color="rgb(130,130,130)"/>
  <stop offset="0.2813" stop-color="rgb(124,124,124)"/>
  <stop offset="0.3125" stop-color="rgb(119,119,119)"/>
  <stop offset="0.3438" stop-color="rgb(117,117,117)"/>
  <stop offset="0.3750" stop-color="rgb(114,114,114)"/>
  <stop offset="0.4063" stop-color="rgb(112,112,112)"/>
  <stop offset="0.4375" stop-color="rgb(110,110,110)"/>
  <stop offset="0.4688" stop-color="rgb(108,108,108)"/>
  <stop offset="0.5000" stop-color="rgb(106,106,106)"/>
  <stop offset="0.5313" stop-color="rgb(103,103,103)"/>
  <stop offset="0.5625" stop-color="rgb(101,101,101)"/>
  <stop offset="0.5938" stop-color="rgb(99,99,99)"/>
  <stop offset="0.6250" stop-color="rgb(97,97,97)"/>
  <stop offset="0.6563" stop-color="rgb(94,94,94)"/>
  <stop offset="0.6875" stop-color="rgb(92,92,92)"/>
  <stop offset="0.7188" stop-color="rgb(90,90,90)"/>
  <stop offset="0.7500" stop-color="rgb(88,88,88)"/>
  <stop offset="0.7813" stop-color="rgb(85,85,85)"/>
  <stop offset="0.8125" stop-color="rgb(83,83,83)"/>
  <stop offset="0.8438" stop-color="rgb(81,81,81)"/>
  <stop offset="0.8750" stop-color="rgb(79,79,79)"/>
  <stop offset="0.9063" stop-color="rgb(77,77,77)"/>
  <stop offset="0.9375" stop-color="rgb(74,74,74)"/>
  <stop offset="0.9688" stop-color="rgb(44,44,44)"/>
  <stop offset="1.0000" stop-color="rgb(0,0,0)"/>
</radialGradient></defs>
<circle cx="790" cy="140" r="81" fill="url(#g_NGC5985)"/>
<text x="790" y="49" text-anchor="middle" class="preview-lbl">face-on luminance from ρ(r)</text>
<text x="790" y="239" text-anchor="middle" class="preview-lbl">edge at r = 41.0 kpc</text>
</svg>