<svg xmlns="http://www.w3.org/2000/svg" viewBox="0 0 960 450" width="960" height="450" font-family="sans-serif" font-size="12">
<style>
  .ax { stroke: #333; stroke-width: 1; fill: none; }
  .grid { stroke: #ddd; stroke-width: 0.5; fill: none; }
  .lbl { fill: #333; }
  .lbl-l { fill: #0066cc; }
  .lbl-r { fill: #b03030; }
  .obs { fill: #222; }
  .err { stroke: #555; stroke-width: 0.8; fill: none; }
  .fw { stroke: #0066cc; stroke-width: 2.2; fill: none; }
  .nt { stroke: #cc6600; stroke-width: 1.6; fill: none; stroke-dasharray: 5,3; }
  .mond { stroke: #7b2cbf; stroke-width: 1.8; fill: none; stroke-dasharray: 7,3; }
  .lbl-p { fill: #cc7000; }
  .lbl-m { fill: #7b2cbf; }
  .rho { stroke: #b03030; stroke-width: 2.0; fill: none; }
  .phot { stroke: #cc7000; stroke-width: 1.8; fill: none; }
  .mbar { stroke: #8e44ad; stroke-width: 1.8; fill: none; opacity: 0.9; }
  .mph { stroke: #c77dff; stroke-width: 1.6; fill: none; stroke-dasharray: 4,3; opacity: 0.95; }
  .title { fill: #111; font-size: 16px; font-weight: 600; }
  .subtitle { fill: #555; font-size: 11px; }
  .preview-bg { fill: #000; }
  .preview-lbl { fill: #888; font-size: 10px; }
  .legend { font-size: 11px; }
</style>
<text x="378.5" y="22" text-anchor="middle" class="title">NGC5907</text>
<text x="378.5" y="38" text-anchor="middle" class="subtitle">rMax=50.3 kpc, N=19, FW=4.7 km/s, 2.1%, 1.75σ, MOND=18.9 km/s, 8.7%, 5.79σ, amp=287</text>
<line x1="70" y1="395.0" x2="687" y2="395.0" class="grid"/>
<text x="64" y="399.0" text-anchor="end" class="lbl-l">0</text>
<line x1="70" y1="327.0" x2="687" y2="327.0" class="grid"/>
<text x="64" y="331.0" text-anchor="end" class="lbl-l">53</text>
<line x1="70" y1="259.0" x2="687" y2="259.0" class="grid"/>
<text x="64" y="263.0" text-anchor="end" class="lbl-l">106</text>
<line x1="70" y1="191.0" x2="687" y2="191.0" class="grid"/>
<text x="64" y="195.0" text-anchor="end" class="lbl-l">160</text>
<line x1="70" y1="123.0" x2="687" y2="123.0" class="grid"/>
<text x="64" y="127.0" text-anchor="end" class="lbl-l">213</text>
<line x1="70" y1="55.0" x2="687" y2="55.0" class="grid"/>
<text x="64" y="59.0" text-anchor="end" class="lbl-l">266</text>
<text x="693" y="399.0" text-anchor="start" class="lbl-r">0.0</text>
<text x="693" y="353.7" text-anchor="start" class="lbl-r">0.2</text>
<text x="693" y="308.3" text-anchor="start" class="lbl-r">0.4</text>
<text x="693" y="263.0" text-anchor="start" class="lbl-r">0.6</text>
<text x="693" y="217.7" text-anchor="start" class="lbl-r">0.8</text>
<text x="693" y="172.3" text-anchor="start" class="lbl-r">1.0</text>
<line x1="70.0" y1="55" x2="70.0" y2="395" class="grid"/>
<text x="70.0" y="411" text-anchor="middle" class="lbl">0.0</text>
<line x1="172.8" y1="55" x2="172.8" y2="395" class="grid"/>
<text x="172.8" y="411" text-anchor="middle" class="lbl">8.8</text>
<line x1="275.7" y1="55" x2="275.7" y2="395" class="grid"/>
<text x="275.7" y="411" text-anchor="middle" class="lbl">17.6</text>
<line x1="378.5" y1="55" x2="378.5" y2="395" class="grid"/>
<text x="378.5" y="411" text-anchor="middle" class="lbl">26.4</text>
<line x1="481.3" y1="55" x2="481.3" y2="395" class="grid"/>
<text x="481.3" y="411" text-anchor="middle" class="lbl">35.2</text>
<line x1="584.2" y1="55" x2="584.2" y2="395" class="grid"/>
<text x="584.2" y="411" text-anchor="middle" class="lbl">44.0</text>
<line x1="687.0" y1="55" x2="687.0" y2="395" class="grid"/>
<text x="687.0" y="411" text-anchor="middle" class="lbl">52.8</text>
<text x="378.5" y="438" text-anchor="middle" class="lbl">radius (kpc)</text>
<text x="16" y="225" text-anchor="middle" class="lbl-l" transform="rotate(-90, 16, 225)">velocity (km/s)</text>
<text x="724" y="225" text-anchor="middle" class="lbl-r" transform="rotate(-90, 724, 225)">profiles (normalized to peak)</text>
<rect x="70" y="55" width="617" height="340" class="ax"/>
<path d="M 70.0,168.3 L 72.8,209.9 L 75.6,251.4 L 78.5,293.0 L 81.3,334.5 L 84.1,350.6 L 86.9,351.2 L 89.7,351.7 L 92.5,352.3 L 95.4,352.8 L 98.2,353.4 L 101.0,353.9 L 103.8,354.4 L 106.6,355.0 L 109.4,355.5 L 112.3,356.1 L 115.1,356.6 L 117.9,357.2 L 120.7,357.7 L 123.5,358.3 L 126.3,358.8 L 129.2,359.3 L 132.0,359.9 L 134.8,360.4 L 137.6,361.0 L 140.4,361.5 L 143.3,362.1 L 146.1,362.6 L 148.9,363.2 L 151.7,363.7 L 154.5,364.2 L 157.3,364.8 L 160.2,365.3 L 163.0,365.9 L 165.8,366.4 L 168.6,367.0 L 171.4,367.5 L 174.2,368.1 L 177.1,368.6 L 179.9,369.1 L 182.7,369.7 L 185.5,370.0 L 188.3,370.2 L 191.1,370.4 L 194.0,370.5 L 196.8,370.7 L 199.6,370.9 L 202.4,371.1 L 205.2,371.2 L 208.1,371.4 L 210.9,371.6 L 213.7,371.7 L 216.5,371.9 L 219.3,372.1 L 222.1,372.3 L 225.0,372.4 L 227.8,372.6 L 230.6,372.8 L 233.4,372.9 L 236.2,373.1 L 239.0,373.3 L 241.9,373.4 L 244.7,373.6 L 247.5,373.8 L 250.3,374.0 L 253.1,374.1 L 255.9,374.3 L 258.8,374.5 L 261.6,374.6 L 264.4,374.8 L 267.2,375.0 L 270.0,375.2 L 272.8,375.3 L 275.7,375.5 L 278.5,375.7 L 281.3,375.8 L 284.1,376.0 L 286.9,376.2 L 289.8,376.4 L 292.6,376.5 L 295.4,376.7 L 298.2,376.9 L 301.0,377.0 L 303.8,377.1 L 306.7,377.2 L 309.5,377.2 L 312.3,377.3 L 315.1,377.4 L 317.9,377.5 L 320.7,377.6 L 323.6,377.6 L 326.4,377.7 L 329.2,377.8 L 332.0,377.9 L 334.8,378.0 L 337.6,378.0 L 340.5,378.1 L 343.3,378.2 L 346.1,378.3 L 348.9,378.4 L 351.7,378.4 L 354.6,378.5 L 357.4,378.6 L 360.2,378.7 L 363.0,378.7 L 365.8,378.8 L 368.6,378.9 L 371.5,379.0 L 374.3,379.1 L 377.1,379.1 L 379.9,379.2 L 382.7,379.3 L 385.5,379.4 L 388.4,379.5 L 391.2,379.5 L 394.0,379.6 L 396.8,379.7 L 399.6,379.8 L 402.4,379.8 L 405.3,379.9 L 408.1,380.0 L 410.9,380.1 L 413.7,380.2 L 416.5,380.2 L 419.4,380.3 L 422.2,380.4 L 425.0,380.5 L 427.8,380.6 L 430.6,380.6 L 433.4,380.7 L 436.3,380.8 L 439.1,380.9 L 441.9,380.9 L 444.7,381.0 L 447.5,381.1 L 450.3,381.2 L 453.2,381.3 L 456.0,381.3 L 458.8,381.4 L 461.6,381.5 L 464.4,381.6 L 467.2,381.7 L 470.1,381.7 L 472.9,381.8 L 475.7,381.9 L 478.5,382.0 L 481.3,382.1 L 484.2,382.1 L 487.0,382.2 L 489.8,382.3 L 492.6,382.4 L 495.4,382.4 L 498.2,382.5 L 501.1,382.6 L 503.9,382.7 L 506.7,382.8 L 509.5,382.8 L 512.3,382.9 L 515.1,383.0 L 518.0,383.1 L 520.8,383.2 L 523.6,383.2 L 526.4,383.3 L 529.2,383.4 L 532.0,383.5 L 534.9,383.5 L 537.7,383.6 L 540.5,383.7 L 543.3,383.8 L 546.1,383.9 L 548.9,383.9 L 551.8,384.0 L 554.6,384.1 L 557.4,384.2 L 560.2,384.3 L 563.0,384.3 L 565.9,384.4 L 568.7,384.5 L 571.5,384.6 L 574.3,384.7 L 577.1,384.7 L 579.9,384.8 L 582.8,384.9 L 585.6,385.0 L 588.4,385.0 L 591.2,385.1 L 594.0,385.2 L 596.8,385.3 L 599.7,385.4 L 602.5,385.4 L 605.3,385.5 L 608.1,385.6 L 610.9,385.7 L 613.7,385.8 L 616.6,385.8 L 619.4,385.9 L 622.2,386.0 L 625.0,386.1 L 627.8,386.1 L 630.7,386.2 L 633.5,386.3 L 636.3,386.4 L 639.1,386.5 L 641.9,386.5 L 644.7,386.6 L 647.6,386.7 L 650.4,386.8 L 653.2,388.8 L 656.0,392.8 L 658.8,395.0 L 661.6,395.0 L 664.5,395.0 L 667.3,395.0 L 670.1,395.0 L 672.9,395.0 L 675.7,395.0 L 678.5,395.0 L 681.4,395.0 L 684.2,395.0 L 687.0,395.0" class="rho"/>
<path d="M 128.7,168.3 L 158.1,247.3 L 187.6,293.5 L 216.9,340.1 L 246.3,361.8 L 275.6,373.1 L 305.0,382.1 L 334.4,387.6 L 363.8,390.5 L 393.2,392.1 L 422.6,393.1 L 451.9,393.7 L 481.3,394.2 L 510.7,394.5 L 540.0,394.7 L 569.5,394.8 L 598.8,394.9 L 628.2,394.9 L 657.6,395.0" class="phot"/>
<path d="M 128.7,168.3 L 158.1,198.0 L 187.6,236.9 L 216.9,286.0 L 246.3,333.0 L 275.6,355.0 L 305.0,362.3 L 334.4,374.2 L 363.8,386.7 L 393.2,385.9 L 422.6,383.1 L 451.9,387.9 L 481.3,390.6 L 510.7,391.7 L 540.0,392.9 L 569.5,393.6 L 598.8,394.0 L 628.2,392.5 L 657.6,390.0" class="mbar"/>
<path d="M 128.7,168.3 L 158.1,176.0 L 187.6,187.8 L 216.9,206.9 L 246.3,230.1 L 275.6,246.9 L 305.0,258.3 L 334.4,274.4 L 363.8,291.9 L 393.2,296.2 L 422.6,298.8 L 451.9,309.2 L 481.3,317.4 L 510.7,324.1 L 540.0,329.5 L 569.5,334.2 L 598.8,336.9 L 628.2,335.3 L 657.6,331.6" class="mph"/>
<path d="M 76.2,286.0 L 82.3,272.2 L 88.5,271.3 L 94.7,265.2 L 100.8,257.7 L 107.0,250.0 L 113.2,242.5 L 119.4,235.4 L 125.5,228.8 L 131.7,222.6 L 137.9,216.8 L 144.0,211.5 L 150.2,206.6 L 156.4,202.0 L 162.6,197.8 L 168.7,193.9 L 174.9,190.4 L 181.1,187.2 L 187.2,184.3 L 193.4,181.4 L 199.6,178.6 L 205.7,175.8 L 211.9,173.0 L 218.1,170.3 L 224.3,167.7 L 230.4,165.2 L 236.6,162.7 L 242.8,160.3 L 248.9,158.0 L 255.1,155.7 L 261.3,153.6 L 267.4,151.5 L 273.6,149.4 L 279.8,147.4 L 286.0,145.6 L 292.1,143.7 L 298.3,142.0 L 304.5,140.3 L 310.6,138.6 L 316.8,137.0 L 323.0,135.4 L 329.1,133.7 L 335.3,132.2 L 341.5,130.6 L 347.6,129.0 L 353.8,127.5 L 360.0,126.0 L 366.2,124.5 L 372.3,123.1 L 378.5,121.7 L 384.7,120.3 L 390.8,118.9 L 397.0,117.6 L 403.2,116.3 L 409.4,115.0 L 415.5,113.7 L 421.7,112.5 L 427.9,111.2 L 434.0,110.1 L 440.2,108.9 L 446.4,107.8 L 452.5,106.7 L 458.7,105.6 L 464.9,104.6 L 471.1,103.5 L 477.2,102.5 L 483.4,101.6 L 489.6,100.6 L 495.7,99.7 L 501.9,98.8 L 508.1,98.0 L 514.2,97.1 L 520.4,96.3 L 526.6,95.5 L 532.8,94.8 L 538.9,94.1 L 545.1,93.3 L 551.3,92.7 L 557.4,92.0 L 563.6,91.4 L 569.8,90.8 L 575.9,90.2 L 582.1,89.7 L 588.3,89.2 L 594.4,88.7 L 600.6,88.2 L 606.8,87.7 L 613.0,87.3 L 619.1,86.9 L 625.3,86.6 L 631.5,86.2 L 637.6,85.9 L 643.8,85.6 L 650.0,85.3 L 656.1,85.6 L 662.3,87.2 L 668.5,88.7 L 674.7,90.3 L 680.8,91.9 L 687.0,93.4" class="nt"/>
<path d="M 128.7,187.0 L 158.1,149.6 L 187.6,121.8 L 216.9,105.8 L 246.3,102.4 L 275.6,99.1 L 305.0,95.5 L 334.4,93.1 L 363.8,97.7 L 393.2,98.0 L 422.6,94.3 L 451.9,97.0 L 481.3,95.8 L 510.7,98.7 L 540.0,98.5 L 569.5,100.9 L 598.8,101.4 L 628.2,101.9 L 657.6,99.9" class="mond"/>
<path d="M 75.1,255.6 L 80.3,186.0 L 85.4,144.3 L 90.6,133.7 L 95.7,139.1 L 100.8,145.2 L 106.0,148.7 L 111.1,147.9 L 116.3,144.7 L 121.4,140.1 L 126.6,134.5 L 131.7,128.5 L 136.8,122.5 L 142.0,116.6 L 147.1,111.2 L 152.3,106.3 L 157.4,102.0 L 162.6,98.6 L 167.7,96.1 L 172.8,94.8 L 178.0,94.6 L 183.1,95.5 L 188.3,96.8 L 193.4,98.2 L 198.5,99.2 L 203.7,99.7 L 208.8,99.8 L 214.0,99.6 L 219.1,99.2 L 224.3,98.6 L 229.4,98.0 L 234.5,97.3 L 239.7,96.6 L 244.8,95.9 L 250.0,95.3 L 255.1,94.9 L 260.2,94.5 L 265.4,94.3 L 270.5,94.2 L 275.7,94.4 L 280.8,94.9 L 286.0,95.6 L 291.1,96.7 L 296.2,98.1 L 301.4,99.8 L 306.5,101.5 L 311.7,103.0 L 316.8,104.4 L 321.9,105.5 L 327.1,106.5 L 332.2,107.3 L 337.4,107.9 L 342.5,108.5 L 347.7,109.0 L 352.8,109.5 L 357.9,109.9 L 363.1,110.2 L 368.2,110.5 L 373.4,110.8 L 378.5,111.0 L 383.6,111.3 L 388.8,111.5 L 393.9,111.7 L 399.1,111.9 L 404.2,112.1 L 409.4,112.3 L 414.5,112.5 L 419.6,112.7 L 424.8,113.0 L 429.9,113.2 L 435.1,113.4 L 440.2,113.7 L 445.3,114.0 L 450.5,114.2 L 455.6,114.5 L 460.8,114.9 L 465.9,115.2 L 471.1,115.5 L 476.2,115.9 L 481.3,116.3 L 486.5,116.7 L 491.6,117.1 L 496.8,117.6 L 501.9,118.0 L 507.0,118.5 L 512.2,119.0 L 517.3,119.5 L 522.5,120.0 L 527.6,120.5 L 532.8,121.0 L 537.9,121.6 L 543.0,122.1 L 548.2,122.6 L 553.3,123.1 L 558.5,123.6 L 563.6,124.1 L 568.7,124.6 L 573.9,125.0 L 579.0,125.3 L 584.2,125.6 L 589.3,125.8 L 594.4,125.8 L 599.6,125.7 L 604.7,125.4 L 609.9,124.8 L 615.0,123.8 L 620.2,122.6 L 625.3,120.8 L 630.4,118.6 L 635.6,116.1 L 640.7,113.9 L 645.9,112.6 L 651.0,113.4 L 656.1,116.5 L 661.3,122.3 L 666.4,129.8 L 671.6,138.3 L 676.7,146.7 L 681.9,154.8 L 687.0,162.2" class="fw"/>
<line x1="128.73" y1="113.71" x2="128.73" y2="129.05" class="err"/>
<line x1="125.73" y1="113.71" x2="131.73" y2="113.71" class="err"/>
<line x1="125.73" y1="129.05" x2="131.73" y2="129.05" class="err"/>
<circle cx="128.73" cy="121.38" r="2.5" class="obs"/>
<line x1="158.15" y1="106.03" x2="158.15" y2="121.38" class="err"/>
<line x1="155.15" y1="106.03" x2="161.15" y2="106.03" class="err"/>
<line x1="155.15" y1="121.38" x2="161.15" y2="121.38" class="err"/>
<circle cx="158.15" cy="113.71" r="2.5" class="obs"/>
<line x1="187.57" y1="89.41" x2="187.57" y2="99.64" class="err"/>
<line x1="184.57" y1="89.41" x2="190.57" y2="89.41" class="err"/>
<line x1="184.57" y1="99.64" x2="190.57" y2="99.64" class="err"/>
<circle cx="187.57" cy="94.53" r="2.5" class="obs"/>
<line x1="216.88" y1="89.41" x2="216.88" y2="99.64" class="err"/>
<line x1="213.88" y1="89.41" x2="219.88" y2="89.41" class="err"/>
<line x1="213.88" y1="99.64" x2="219.88" y2="99.64" class="err"/>
<circle cx="216.88" cy="94.53" r="2.5" class="obs"/>
<line x1="246.30" y1="98.36" x2="246.30" y2="103.48" class="err"/>
<line x1="243.30" y1="98.36" x2="249.30" y2="98.36" class="err"/>
<line x1="243.30" y1="103.48" x2="249.30" y2="103.48" class="err"/>
<circle cx="246.30" cy="100.92" r="2.5" class="obs"/>
<line x1="275.60" y1="97.08" x2="275.60" y2="102.20" class="err"/>
<line x1="272.60" y1="97.08" x2="278.60" y2="97.08" class="err"/>
<line x1="272.60" y1="102.20" x2="278.60" y2="102.20" class="err"/>
<circle cx="275.60" cy="99.64" r="2.5" class="obs"/>
<line x1="305.02" y1="95.80" x2="305.02" y2="100.92" class="err"/>
<line x1="302.02" y1="95.80" x2="308.02" y2="95.80" class="err"/>
<line x1="302.02" y1="100.92" x2="308.02" y2="100.92" class="err"/>
<circle cx="305.02" cy="98.36" r="2.5" class="obs"/>
<line x1="334.45" y1="98.36" x2="334.45" y2="116.26" class="err"/>
<line x1="331.45" y1="98.36" x2="337.45" y2="98.36" class="err"/>
<line x1="331.45" y1="116.26" x2="337.45" y2="116.26" class="err"/>
<circle cx="334.45" cy="107.31" r="2.5" class="obs"/>
<line x1="363.75" y1="99.64" x2="363.75" y2="117.54" class="err"/>
<line x1="360.75" y1="99.64" x2="366.75" y2="99.64" class="err"/>
<line x1="360.75" y1="117.54" x2="366.75" y2="117.54" class="err"/>
<circle cx="363.75" cy="108.59" r="2.5" class="obs"/>
<line x1="393.17" y1="99.64" x2="393.17" y2="104.76" class="err"/>
<line x1="390.17" y1="99.64" x2="396.17" y2="99.64" class="err"/>
<line x1="390.17" y1="104.76" x2="396.17" y2="104.76" class="err"/>
<circle cx="393.17" cy="102.20" r="2.5" class="obs"/>
<line x1="422.59" y1="113.71" x2="422.59" y2="118.82" class="err"/>
<line x1="419.59" y1="113.71" x2="425.59" y2="113.71" class="err"/>
<line x1="419.59" y1="118.82" x2="425.59" y2="118.82" class="err"/>
<circle cx="422.59" cy="116.26" r="2.5" class="obs"/>
<line x1="451.90" y1="118.82" x2="451.90" y2="123.93" class="err"/>
<line x1="448.90" y1="118.82" x2="454.90" y2="118.82" class="err"/>
<line x1="448.90" y1="123.93" x2="454.90" y2="123.93" class="err"/>
<circle cx="451.90" cy="121.38" r="2.5" class="obs"/>
<line x1="481.32" y1="120.10" x2="481.32" y2="125.21" class="err"/>
<line x1="478.32" y1="120.10" x2="484.32" y2="120.10" class="err"/>
<line x1="478.32" y1="125.21" x2="484.32" y2="125.21" class="err"/>
<circle cx="481.32" cy="122.66" r="2.5" class="obs"/>
<line x1="510.74" y1="122.66" x2="510.74" y2="127.77" class="err"/>
<line x1="507.74" y1="122.66" x2="513.74" y2="122.66" class="err"/>
<line x1="507.74" y1="127.77" x2="513.74" y2="127.77" class="err"/>
<circle cx="510.74" cy="125.21" r="2.5" class="obs"/>
<line x1="540.05" y1="114.98" x2="540.05" y2="120.10" class="err"/>
<line x1="537.05" y1="114.98" x2="543.05" y2="114.98" class="err"/>
<line x1="537.05" y1="120.10" x2="543.05" y2="120.10" class="err"/>
<circle cx="540.05" cy="117.54" r="2.5" class="obs"/>
<line x1="569.47" y1="114.98" x2="569.47" y2="122.66" class="err"/>
<line x1="566.47" y1="114.98" x2="572.47" y2="114.98" class="err"/>
<line x1="566.47" y1="122.66" x2="572.47" y2="122.66" class="err"/>
<circle cx="569.47" cy="118.82" r="2.5" class="obs"/>
<line x1="598.78" y1="116.26" x2="598.78" y2="123.93" class="err"/>
<line x1="595.78" y1="116.26" x2="601.78" y2="116.26" class="err"/>
<line x1="595.78" y1="123.93" x2="601.78" y2="123.93" class="err"/>
<circle cx="598.78" cy="120.10" r="2.5" class="obs"/>
<line x1="628.20" y1="111.15" x2="628.20" y2="123.93" class="err"/>
<line x1="625.20" y1="111.15" x2="631.20" y2="111.15" class="err"/>
<line x1="625.20" y1="123.93" x2="631.20" y2="123.93" class="err"/>
<circle cx="628.20" cy="117.54" r="2.5" class="obs"/>
<line x1="657.62" y1="114.98" x2="657.62" y2="127.77" class="err"/>
<line x1="654.62" y1="114.98" x2="660.62" y2="114.98" class="err"/>
<line x1="654.62" y1="127.77" x2="660.62" y2="127.77" class="err"/>
<circle cx="657.62" cy="121.38" r="2.5" class="obs"/>
<g class="legend">
<line x1="82" y1="69" x2="106" y2="69" class="fw"/>
<text x="112" y="73" class="lbl-l">framework: 4.7 km/s, 2.1%, 1.75σ</text>
<line x1="82" y1="87" x2="106" y2="87" class="nt"/>
<text x="112" y="91" class="lbl-l">Newtonian: 38.9 km/s, 17.4%, 11.53σ</text>
<line x1="82" y1="105" x2="106" y2="105" class="mond"/>
<text x="112" y="109" class="lbl-m">MOND/RAR: 18.9 km/s, 8.7%, 5.79σ</text>
<circle cx="94" cy="123" r="2.5" class="obs"/>
<text x="112" y="127" class="lbl">observed V±err</text>
</g>
<g class="legend">
<line x1="472" y1="69" x2="496" y2="69" class="rho"/>
<text x="502" y="73" class="lbl-r">ρ(r) raw</text>
<line x1="472" y1="87" x2="496" y2="87" class="phot"/>
<text x="502" y="91" class="lbl-p">photometric baryonic profile</text>
<line x1="472" y1="105" x2="496" y2="105" class="mbar"/>
<text x="502" y="109" class="lbl-m">MOND baryonic annulus</text>
<line x1="472" y1="123" x2="496" y2="123" class="mph"/>
<text x="502" y="127" class="lbl-m">MOND phantom annulus</text>
<text x="472" y="147" class="lbl-r">ρ peak: 1389 M☉/pc²</text>
<text x="472" y="163" class="lbl-p">phot peak: 187.32 (arb.)</text>
<text x="472" y="179" class="lbl-m">Σbar peak: 224.32 M☉/pc²</text>
<text x="472" y="195" class="lbl-m">Σphantom peak: 152.39 M☉/pc²</text>
</g>
<rect x="775" y="55" width="170" height="170" class="preview-bg"/>
<defs><radialGradient id="g_NGC5907" cx="0.5" cy="0.5" r="0.5">
  <stop offset="0.0000" stop-color="rgb(255,255,255)"/>
  <stop offset="0.0313" stop-color="rgb(109,109,109)"/>
  <stop offset="0.0625" stop-color="rgb(103,103,103)"/>
  <stop offset="0.0938" stop-color="rgb(97,97,97)"/>
  <stop offset="0.1250" stop-color="rgb(92,92,92)"/>
  <stop offset="0.1563" stop-color="rgb(86,86,86)"/>
  <stop offset="0.1875" stop-color="rgb(80,80,80)"/>
  <stop offset="0.2188" stop-color="rgb(77,77,77)"/>
  <stop offset="0.2500" stop-color="rgb(75,75,75)"/>
  <stop offset="0.2813" stop-color="rgb(73,73,73)"/>
  <stop offset="0.3125" stop-color="rgb(71,71,71)"/>
  <stop offset="0.3438" stop-color="rgb(69,69,69)"/>
  <stop offset="0.3750" stop-color="rgb(68,68,68)"/>
  <stop offset="0.4063" stop-color="rgb(66,66,66)"/>
  <stop offset="0.4375" stop-color="rgb(65,65,65)"/>
  <stop offset="0.4688" stop-color="rgb(64,64,64)"/>
  <stop offset="0.5000" stop-color="rgb(63,63,63)"/>
  <stop offset="0.5313" stop-color="rgb(61,61,61)"/>
  <stop offset="0.5625" stop-color="rgb(59,59,59)"/>
  <stop offset="0.5938" stop-color="rgb(57,57,57)"/>
  <stop offset="0.6250" stop-color="rgb(55,55,55)"/>
  <stop offset="0.6563" stop-color="rgb(53,53,53)"/>
  <stop offset="0.6875" stop-color="rgb(51,51,51)"/>
  <stop offset="0.7188" stop-color="rgb(49,49,49)"/>
  <stop offset="0.7500" stop-color="rgb(47,47,47)"/>
  <stop offset="0.7813" stop-color="rgb(45,45,45)"/>
  <stop offset="0.8125" stop-color="rgb(43,43,43)"/>
  <stop offset="0.8438" stop-color="rgb(41,41,41)"/>
  <stop offset="0.8750" stop-color="rgb(39,39,39)"/>
  <stop offset="0.9063" stop-color="rgb(37,37,37)"/>
  <stop offset="0.9375" stop-color="rgb(35,35,35)"/>
  <stop offset="0.9688" stop-color="rgb(33,33,33)"/>
  <stop offset="1.0000" stop-color="rgb(0,0,0)"/>
</radialGradient></defs>
<circle cx="860" cy="140" r="81" fill="url(#g_NGC5907)"/>
<text x="860" y="49" text-anchor="middle" class="preview-lbl">face-on luminance from ρ(r)</text>
<text x="860" y="239" text-anchor="middle" class="preview-lbl">edge at r = 50.3 kpc</text>
</svg>