<svg xmlns="http://www.w3.org/2000/svg" viewBox="0 0 720 420" width="720" height="420" font-family="sans-serif" font-size="12">
<style>
  .ax { stroke: #333; stroke-width: 1; fill: none; }
  .grid { stroke: #ddd; stroke-width: 0.5; fill: none; }
  .lbl { fill: #333; }
  .lbl-l { fill: #0066cc; }
  .lbl-r { fill: #b03030; }
  .obs { fill: #222; }
  .err { stroke: #555; stroke-width: 0.8; fill: none; }
  .fw { stroke: #0066cc; stroke-width: 2.2; fill: none; }
  .nt { stroke: #cc6600; stroke-width: 1.6; fill: none; stroke-dasharray: 5,3; }
  .rho { stroke: #b03030; stroke-width: 2.0; fill: none; }
  .sig { stroke: #b03030; stroke-width: 1.6; fill: none; stroke-dasharray: 4,2; opacity: 0.85; }
  .title { fill: #111; font-size: 16px; font-weight: 600; }
  .subtitle { fill: #555; font-size: 11px; }
  .legend { font-size: 11px; }
</style>
<text x="360.0" y="22" text-anchor="middle" class="title">NGC5585</text>
<text x="360.0" y="38" text-anchor="middle" class="subtitle">rMax=11.0 kpc, N=24, RMS=2.4 km/s (3.8%), amp=104</text>
<line x1="70" y1="365.0" x2="635" y2="365.0" class="grid"/>
<text x="64" y="369.0" text-anchor="end" class="lbl-l">0</text>
<line x1="70" y1="303.0" x2="635" y2="303.0" class="grid"/>
<text x="64" y="307.0" text-anchor="end" class="lbl-l">21</text>
<line x1="70" y1="241.00000000000003" x2="635" y2="241.00000000000003" class="grid"/>
<text x="64" y="245.00000000000003" text-anchor="end" class="lbl-l">41</text>
<line x1="70" y1="179.0" x2="635" y2="179.0" class="grid"/>
<text x="64" y="183.0" text-anchor="end" class="lbl-l">62</text>
<line x1="70" y1="117.00000000000003" x2="635" y2="117.00000000000003" class="grid"/>
<text x="64" y="121.00000000000003" text-anchor="end" class="lbl-l">83</text>
<line x1="70" y1="55.000000000000036" x2="635" y2="55.000000000000036" class="grid"/>
<text x="64" y="59.000000000000036" text-anchor="end" class="lbl-l">104</text>
<text x="641" y="369.0" text-anchor="start" class="lbl-r">0.0</text>
<text x="641" y="327.6666666666667" text-anchor="start" class="lbl-r">0.2</text>
<text x="641" y="286.33333333333337" text-anchor="start" class="lbl-r">0.4</text>
<text x="641" y="245.00000000000003" text-anchor="start" class="lbl-r">0.6</text>
<text x="641" y="203.66666666666666" text-anchor="start" class="lbl-r">0.8</text>
<text x="641" y="162.33333333333334" text-anchor="start" class="lbl-r">1.0</text>
<line x1="70.0" y1="55" x2="70.0" y2="365" class="grid"/>
<text x="70.0" y="381" text-anchor="middle" class="lbl">0.0</text>
<line x1="164.16666666666666" y1="55" x2="164.16666666666666" y2="365" class="grid"/>
<text x="164.16666666666666" y="381" text-anchor="middle" class="lbl">2.0</text>
<line x1="258.3333333333333" y1="55" x2="258.3333333333333" y2="365" class="grid"/>
<text x="258.3333333333333" y="381" text-anchor="middle" class="lbl">3.9</text>
<line x1="352.5" y1="55" x2="352.5" y2="365" class="grid"/>
<text x="352.5" y="381" text-anchor="middle" class="lbl">5.9</text>
<line x1="446.66666666666663" y1="55" x2="446.66666666666663" y2="365" class="grid"/>
<text x="446.66666666666663" y="381" text-anchor="middle" class="lbl">7.9</text>
<line x1="540.8333333333334" y1="55" x2="540.8333333333334" y2="365" class="grid"/>
<text x="540.8333333333334" y="381" text-anchor="middle" class="lbl">9.8</text>
<line x1="635.0" y1="55" x2="635.0" y2="365" class="grid"/>
<text x="635.0" y="381" text-anchor="middle" class="lbl">11.8</text>
<text x="352.5" y="408" text-anchor="middle" class="lbl">radius (kpc)</text>
<text x="16" y="210.0" text-anchor="middle" class="lbl-l" transform="rotate(-90, 16, 210.0)">velocity (km/s)</text>
<text x="704" y="210.0" text-anchor="middle" class="lbl-r" transform="rotate(-90, 704, 210.0)">mass profile (normalized to peak)</text>
<rect x="70" y="55" width="565" height="310" class="ax"/>
<path d="M 70.0,158.3 L 72.6,169.7 L 75.2,181.1 L 77.7,192.5 L 80.3,203.9 L 82.9,215.3 L 85.5,226.7 L 88.1,238.1 L 90.6,249.5 L 93.2,260.9 L 95.8,272.3 L 98.4,282.3 L 101.0,282.3 L 103.5,282.3 L 106.1,282.3 L 108.7,282.3 L 111.3,282.3 L 113.9,282.3 L 116.4,282.3 L 119.0,282.3 L 121.6,282.3 L 124.2,282.3 L 126.8,282.3 L 129.3,282.3 L 131.9,282.3 L 134.5,282.3 L 137.1,282.3 L 139.7,282.3 L 142.2,282.3 L 144.8,282.3 L 147.4,282.3 L 150.0,282.3 L 152.6,282.3 L 155.1,282.3 L 157.7,282.3 L 160.3,282.3 L 162.9,282.3 L 165.5,282.3 L 168.0,282.3 L 170.6,282.3 L 173.2,282.3 L 175.8,282.3 L 178.4,282.7 L 180.9,283.4 L 183.5,284.1 L 186.1,284.8 L 188.7,285.5 L 191.3,286.2 L 193.8,286.9 L 196.4,287.6 L 199.0,288.3 L 201.6,289.0 L 204.2,289.7 L 206.7,290.4 L 209.3,291.1 L 211.9,291.8 L 214.5,292.5 L 217.1,293.2 L 219.6,293.9 L 222.2,294.5 L 224.8,294.8 L 227.4,295.0 L 230.0,295.3 L 232.5,295.6 L 235.1,295.9 L 237.7,296.2 L 240.3,296.5 L 242.9,296.8 L 245.4,297.1 L 248.0,297.4 L 250.6,297.6 L 253.2,297.9 L 255.8,298.2 L 258.3,298.5 L 260.9,298.8 L 263.5,299.1 L 266.1,299.4 L 268.7,299.7 L 271.2,300.0 L 273.8,300.2 L 276.4,300.5 L 279.0,300.8 L 281.6,301.1 L 284.1,301.4 L 286.7,301.7 L 289.3,302.0 L 291.9,302.3 L 294.5,302.6 L 297.0,302.8 L 299.6,303.1 L 302.2,303.4 L 304.8,303.7 L 307.4,304.0 L 309.9,304.3 L 312.5,304.6 L 315.1,304.9 L 317.7,305.2 L 320.3,305.4 L 322.8,305.7 L 325.4,306.0 L 328.0,306.3 L 330.6,306.6 L 333.2,306.9 L 335.7,307.2 L 338.3,307.5 L 340.9,307.8 L 343.5,308.0 L 346.1,308.3 L 348.6,308.6 L 351.2,308.9 L 353.8,309.2 L 356.4,309.5 L 358.9,309.8 L 361.5,310.1 L 364.1,310.4 L 366.7,310.7 L 369.3,310.9 L 371.8,311.2 L 374.4,311.5 L 377.0,311.8 L 379.6,312.1 L 382.2,312.4 L 384.7,312.7 L 387.3,313.0 L 389.9,313.3 L 392.5,313.5 L 395.1,313.8 L 397.6,314.1 L 400.2,314.4 L 402.8,314.7 L 405.4,315.0 L 408.0,315.3 L 410.5,315.6 L 413.1,315.9 L 415.7,316.1 L 418.3,316.4 L 420.9,316.7 L 423.4,317.0 L 426.0,317.3 L 428.6,317.6 L 431.2,317.9 L 433.8,318.2 L 436.3,318.5 L 438.9,318.7 L 441.5,319.0 L 444.1,319.3 L 446.7,319.6 L 449.2,319.9 L 451.8,320.2 L 454.4,320.5 L 457.0,320.8 L 459.6,321.1 L 462.1,321.3 L 464.7,321.6 L 467.3,321.9 L 469.9,322.2 L 472.5,322.5 L 475.0,322.8 L 477.6,323.1 L 480.2,323.4 L 482.8,323.7 L 485.4,323.9 L 487.9,324.2 L 490.5,324.5 L 493.1,324.8 L 495.7,325.1 L 498.3,325.4 L 500.8,325.7 L 503.4,326.0 L 506.0,326.3 L 508.6,326.6 L 511.2,326.8 L 513.7,327.1 L 516.3,327.4 L 518.9,327.7 L 521.5,328.0 L 524.1,328.3 L 526.6,328.6 L 529.2,328.9 L 531.8,329.2 L 534.4,329.4 L 537.0,329.7 L 539.5,330.0 L 542.1,330.3 L 544.7,330.6 L 547.3,330.9 L 549.9,331.2 L 552.4,331.5 L 555.0,331.8 L 557.6,332.0 L 560.2,332.3 L 562.8,332.6 L 565.3,332.9 L 567.9,333.2 L 570.5,333.5 L 573.1,333.8 L 575.7,334.7 L 578.2,337.1 L 580.8,339.5 L 583.4,342.0 L 586.0,344.4 L 588.6,346.8 L 591.1,349.2 L 593.7,351.6 L 596.3,354.0 L 598.9,356.4 L 601.5,358.8 L 604.0,361.2 L 606.6,363.6 L 609.2,365.0 L 611.8,365.0 L 614.4,365.0 L 616.9,365.0 L 619.5,365.0 L 622.1,365.0 L 624.7,365.0 L 627.3,365.0 L 629.8,365.0 L 632.4,365.0 L 635.0,365.0" class="rho"/>
<path d="M 70.0,158.3 L 72.6,158.6 L 75.2,159.1 L 77.7,159.8 L 80.3,160.6 L 82.9,161.7 L 85.5,162.9 L 88.1,164.2 L 90.6,165.6 L 93.2,167.0 L 95.8,168.5 L 98.4,169.9 L 101.0,171.3 L 103.5,172.6 L 106.1,173.9 L 108.7,175.2 L 111.3,176.4 L 113.9,177.5 L 116.4,178.6 L 119.0,179.6 L 121.6,180.7 L 124.2,181.6 L 126.8,182.6 L 129.3,183.5 L 131.9,184.4 L 134.5,185.3 L 137.1,186.2 L 139.7,187.1 L 142.2,187.9 L 144.8,188.8 L 147.4,189.7 L 150.0,190.5 L 152.6,191.4 L 155.1,192.3 L 157.7,193.2 L 160.3,194.1 L 162.9,195.0 L 165.5,195.9 L 168.0,196.9 L 170.6,197.8 L 173.2,198.8 L 175.8,199.8 L 178.4,200.8 L 180.9,201.9 L 183.5,202.9 L 186.1,204.0 L 188.7,205.0 L 191.3,206.1 L 193.8,207.2 L 196.4,208.3 L 199.0,209.4 L 201.6,210.5 L 204.2,211.6 L 206.7,212.8 L 209.3,213.9 L 211.9,215.0 L 214.5,216.1 L 217.1,217.2 L 219.6,218.3 L 222.2,219.4 L 224.8,220.5 L 227.4,221.6 L 230.0,222.7 L 232.5,223.8 L 235.1,224.8 L 237.7,225.9 L 240.3,227.0 L 242.9,228.0 L 245.4,229.0 L 248.0,230.1 L 250.6,231.1 L 253.2,232.2 L 255.8,233.2 L 258.3,234.2 L 260.9,235.2 L 263.5,236.2 L 266.1,237.2 L 268.7,238.2 L 271.2,239.2 L 273.8,240.2 L 276.4,241.2 L 279.0,242.2 L 281.6,243.2 L 284.1,244.2 L 286.7,245.2 L 289.3,246.1 L 291.9,247.1 L 294.5,248.1 L 297.0,249.0 L 299.6,250.0 L 302.2,250.9 L 304.8,251.9 L 307.4,252.9 L 309.9,253.8 L 312.5,254.7 L 315.1,255.7 L 317.7,256.6 L 320.3,257.6 L 322.8,258.5 L 325.4,259.4 L 328.0,260.3 L 330.6,261.3 L 333.2,262.2 L 335.7,263.1 L 338.3,264.0 L 340.9,264.9 L 343.5,265.8 L 346.1,266.7 L 348.6,267.6 L 351.2,268.5 L 353.8,269.4 L 356.4,270.3 L 358.9,271.1 L 361.5,272.0 L 364.1,272.9 L 366.7,273.8 L 369.3,274.6 L 371.8,275.5 L 374.4,276.3 L 377.0,277.2 L 379.6,278.0 L 382.2,278.9 L 384.7,279.7 L 387.3,280.6 L 389.9,281.4 L 392.5,282.2 L 395.1,283.1 L 397.6,283.9 L 400.2,284.7 L 402.8,285.5 L 405.4,286.3 L 408.0,287.1 L 410.5,287.9 L 413.1,288.7 L 415.7,289.5 L 418.3,290.3 L 420.9,291.1 L 423.4,291.9 L 426.0,292.7 L 428.6,293.5 L 431.2,294.2 L 433.8,295.0 L 436.3,295.7 L 438.9,296.5 L 441.5,297.3 L 444.1,298.0 L 446.7,298.8 L 449.2,299.5 L 451.8,300.2 L 454.4,301.0 L 457.0,301.7 L 459.6,302.4 L 462.1,303.1 L 464.7,303.8 L 467.3,304.6 L 469.9,305.3 L 472.5,306.0 L 475.0,306.7 L 477.6,307.4 L 480.2,308.0 L 482.8,308.7 L 485.4,309.4 L 487.9,310.1 L 490.5,310.8 L 493.1,311.4 L 495.7,312.1 L 498.3,312.8 L 500.8,313.4 L 503.4,314.1 L 506.0,314.7 L 508.6,315.4 L 511.2,316.0 L 513.7,316.7 L 516.3,317.3 L 518.9,317.9 L 521.5,318.6 L 524.1,319.2 L 526.6,319.8 L 529.2,320.5 L 531.8,321.1 L 534.4,321.7 L 537.0,322.3 L 539.5,322.9 L 542.1,323.6 L 544.7,324.2 L 547.3,324.8 L 549.9,325.4 L 552.4,326.0 L 555.0,326.6 L 557.6,327.2 L 560.2,327.8 L 562.8,328.4 L 565.3,329.0 L 567.9,329.6 L 570.5,330.2 L 573.1,330.8 L 575.7,331.4 L 578.2,332.0 L 580.8,332.6 L 583.4,333.2 L 586.0,333.8 L 588.6,334.4 L 591.1,334.9 L 593.7,335.5 L 596.3,336.0 L 598.9,336.5 L 601.5,337.0 L 604.0,337.5 L 606.6,338.0 L 609.2,338.4 L 611.8,338.9 L 614.4,339.3 L 616.9,339.7 L 619.5,340.1 L 622.1,340.5 L 624.7,340.9 L 627.3,341.2 L 629.8,341.6 L 632.4,341.9 L 635.0,342.3" class="sig"/>
<path d="M 75.7,307.5 L 81.3,287.3 L 87.0,274.5 L 92.6,266.2 L 98.2,261.3 L 103.9,257.3 L 109.5,252.7 L 115.2,247.8 L 120.9,242.8 L 126.5,237.8 L 132.2,232.9 L 137.8,228.0 L 143.4,223.3 L 149.1,218.6 L 154.8,214.0 L 160.4,209.6 L 166.1,205.2 L 171.7,201.0 L 177.3,196.8 L 183.0,192.8 L 188.6,189.0 L 194.3,185.4 L 199.9,182.0 L 205.6,178.8 L 211.2,175.8 L 216.9,172.9 L 222.6,170.1 L 228.2,167.5 L 233.8,164.9 L 239.5,162.3 L 245.2,159.8 L 250.8,157.4 L 256.5,155.0 L 262.1,152.7 L 267.8,150.4 L 273.4,148.2 L 279.0,146.0 L 284.7,143.9 L 290.3,141.9 L 296.0,139.8 L 301.6,137.9 L 307.3,135.9 L 313.0,134.0 L 318.6,132.2 L 324.2,130.4 L 329.9,128.6 L 335.6,126.9 L 341.2,125.2 L 346.8,123.6 L 352.5,122.0 L 358.1,120.4 L 363.8,118.9 L 369.4,117.4 L 375.1,116.0 L 380.8,114.6 L 386.4,113.2 L 392.1,111.9 L 397.7,110.5 L 403.4,109.3 L 409.0,108.0 L 414.6,106.8 L 420.3,105.7 L 425.9,104.5 L 431.6,103.4 L 437.2,102.3 L 442.9,101.3 L 448.5,100.3 L 454.2,99.3 L 459.8,98.4 L 465.5,97.4 L 471.1,96.5 L 476.8,95.7 L 482.4,94.9 L 488.1,94.0 L 493.8,93.3 L 499.4,92.5 L 505.1,91.8 L 510.7,91.1 L 516.4,90.5 L 522.0,89.8 L 527.7,89.2 L 533.3,88.7 L 539.0,88.1 L 544.6,87.6 L 550.2,87.1 L 555.9,86.6 L 561.5,86.2 L 567.2,85.8 L 572.8,85.4 L 578.5,85.1 L 584.1,85.1 L 589.8,85.3 L 595.4,86.0 L 601.1,86.9 L 606.8,88.1 L 612.4,89.5 L 618.0,91.0 L 623.7,92.4 L 629.4,93.8 L 635.0,95.1" class="nt"/>
<path d="M 74.7,337.7 L 79.4,318.2 L 84.1,299.1 L 88.8,283.2 L 93.5,271.1 L 98.2,262.7 L 103.0,257.2 L 107.7,253.8 L 112.4,251.6 L 117.1,249.8 L 121.8,248.2 L 126.5,246.1 L 131.2,243.7 L 135.9,240.7 L 140.6,237.2 L 145.3,233.2 L 150.0,228.7 L 154.8,223.8 L 159.5,218.4 L 164.2,212.6 L 168.9,206.5 L 173.6,200.3 L 178.3,194.1 L 183.0,188.1 L 187.7,182.3 L 192.4,177.0 L 197.1,172.2 L 201.8,167.9 L 206.5,164.1 L 211.2,160.8 L 216.0,157.9 L 220.7,155.4 L 225.4,153.2 L 230.1,151.1 L 234.8,149.2 L 239.5,147.3 L 244.2,145.4 L 248.9,143.5 L 253.6,141.5 L 258.3,139.6 L 263.0,137.7 L 267.8,135.8 L 272.5,133.9 L 277.2,132.1 L 281.9,130.2 L 286.6,128.4 L 291.3,126.6 L 296.0,124.9 L 300.7,123.2 L 305.4,121.5 L 310.1,119.9 L 314.8,118.3 L 319.5,116.7 L 324.2,115.2 L 329.0,113.8 L 333.7,112.4 L 338.4,111.0 L 343.1,109.7 L 347.8,108.4 L 352.5,107.2 L 357.2,106.1 L 361.9,105.0 L 366.6,103.9 L 371.3,102.9 L 376.0,101.9 L 380.8,101.0 L 385.5,100.1 L 390.2,99.3 L 394.9,98.5 L 399.6,97.8 L 404.3,97.1 L 409.0,96.5 L 413.7,95.9 L 418.4,95.3 L 423.1,94.8 L 427.8,94.3 L 432.5,93.9 L 437.2,93.5 L 442.0,93.2 L 446.7,92.9 L 451.4,92.6 L 456.1,92.4 L 460.8,92.2 L 465.5,92.0 L 470.2,91.8 L 474.9,91.7 L 479.6,91.5 L 484.3,91.4 L 489.0,91.3 L 493.8,91.2 L 498.5,91.1 L 503.2,91.0 L 507.9,90.9 L 512.6,90.7 L 517.3,90.5 L 522.0,90.2 L 526.7,89.9 L 531.4,89.4 L 536.1,88.9 L 540.8,88.2 L 545.5,87.4 L 550.2,86.5 L 555.0,85.4 L 559.7,84.3 L 564.4,83.2 L 569.1,82.5 L 573.8,82.2 L 578.5,82.9 L 583.2,84.5 L 587.9,87.3 L 592.6,91.3 L 597.3,96.3 L 602.0,102.0 L 606.8,108.1 L 611.5,114.4 L 616.2,120.7 L 620.9,126.8 L 625.6,132.6 L 630.3,138.1 L 635.0,143.2" class="fw"/>
<line x1="74.30335607520622" y1="325.4497201312488" x2="74.30335607520622" y2="337.53618992472497" class="err"/>
<line x1="71.30335607520622" y1="325.4497201312488" x2="77.30335607520622" y2="325.4497201312488" class="err"/>
<line x1="71.30335607520622" y1="337.53618992472497" x2="77.30335607520622" y2="337.53618992472497" class="err"/>
<circle cx="74.30335607520622" cy="331.49295502798685" r="2.5" class="obs"/>
<line x1="82.43191755059576" y1="282.63848677861415" x2="82.43191755059576" y2="288.8013896931094" class="err"/>
<line x1="79.43191755059576" y1="282.63848677861415" x2="85.43191755059576" y2="282.63848677861415" class="err"/>
<line x1="79.43191755059576" y1="288.8013896931094" x2="85.43191755059576" y2="288.8013896931094" class="err"/>
<circle cx="82.43191755059576" cy="285.71993823586183" r="2.5" class="obs"/>
<line x1="90.56047902598529" y1="261.09824358232004" x2="90.56047902598529" y2="267.2611464968153" class="err"/>
<line x1="87.56047902598529" y1="261.09824358232004" x2="93.56047902598529" y2="261.09824358232004" class="err"/>
<line x1="87.56047902598529" y1="267.2611464968153" x2="93.56047902598529" y2="267.2611464968153" class="err"/>
<circle cx="90.56047902598529" cy="264.17969503956766" r="2.5" class="obs"/>
<line x1="98.68904050137482" y1="263.8206909862961" x2="98.68904050137482" y2="270.52209998069867" class="err"/>
<line x1="95.68904050137482" y1="263.8206909862961" x2="101.68904050137482" y2="263.8206909862961" class="err"/>
<line x1="95.68904050137482" y1="270.52209998069867" x2="101.68904050137482" y2="270.52209998069867" class="err"/>
<circle cx="98.68904050137482" cy="267.17139548349735" r="2.5" class="obs"/>
<line x1="106.81760197676434" y1="261.09824358232004" x2="106.81760197676434" y2="267.2611464968153" class="err"/>
<line x1="103.81760197676434" y1="261.09824358232004" x2="109.81760197676434" y2="261.09824358232004" class="err"/>
<line x1="103.81760197676434" y1="267.2611464968153" x2="109.81760197676434" y2="267.2611464968153" class="err"/>
<circle cx="106.81760197676434" cy="264.17969503956766" r="2.5" class="obs"/>
<line x1="114.94616345215388" y1="251.4948851573055" x2="114.94616345215388" y2="264.89770314611076" class="err"/>
<line x1="111.94616345215388" y1="251.4948851573055" x2="117.94616345215388" y2="251.4948851573055" class="err"/>
<line x1="111.94616345215388" y1="264.89770314611076" x2="117.94616345215388" y2="264.89770314611076" class="err"/>
<circle cx="114.94616345215388" cy="258.1962941517081" r="2.5" class="obs"/>
<line x1="123.07472492754341" y1="241.89152673229106" x2="123.07472492754341" y2="261.9359197066203" class="err"/>
<line x1="120.07472492754341" y1="241.89152673229106" x2="126.07472492754341" y2="241.89152673229106" class="err"/>
<line x1="120.07472492754341" y1="261.9359197066203" x2="126.07472492754341" y2="261.9359197066203" class="err"/>
<circle cx="123.07472492754341" cy="251.91372321945568" r="2.5" class="obs"/>
<line x1="131.20328640293295" y1="229.92472495657208" x2="131.20328640293295" y2="249.96911793090138" class="err"/>
<line x1="128.20328640293295" y1="229.92472495657208" x2="134.20328640293295" y2="229.92472495657208" class="err"/>
<line x1="128.20328640293295" y1="249.96911793090138" x2="134.20328640293295" y2="249.96911793090138" class="err"/>
<circle cx="131.20328640293295" cy="239.94692144373673" r="2.5" class="obs"/>
<line x1="139.8099985533454" y1="227.2621115614746" x2="139.8099985533454" y2="240.0665894614939" class="err"/>
<line x1="136.8099985533454" y1="227.2621115614746" x2="142.8099985533454" y2="227.2621115614746" class="err"/>
<line x1="136.8099985533454" y1="240.0665894614939" x2="142.8099985533454" y2="240.0665894614939" class="err"/>
<circle cx="139.8099985533454" cy="233.66435051148423" r="2.5" class="obs"/>
<line x1="147.9385600287349" y1="226.93302451264236" x2="147.9385600287349" y2="234.41227562246667" class="err"/>
<line x1="144.9385600287349" y1="226.93302451264236" x2="150.9385600287349" y2="226.93302451264236" class="err"/>
<line x1="144.9385600287349" y1="234.41227562246667" x2="150.9385600287349" y2="234.41227562246667" class="err"/>
<circle cx="147.9385600287349" cy="230.6726500675545" r="2.5" class="obs"/>
<line x1="168.02088837969728" y1="201.05481567265002" x2="168.02088837969728" y2="210.62825709322522" class="err"/>
<line x1="165.02088837969728" y1="201.05481567265002" x2="171.02088837969728" y2="201.05481567265002" class="err"/>
<line x1="165.02088837969728" y1="210.62825709322522" x2="171.02088837969728" y2="210.62825709322522" class="err"/>
<circle cx="168.02088837969728" cy="205.84153638293765" r="2.5" class="obs"/>
<line x1="201.01328495627834" y1="169.94113105578072" x2="201.01328495627834" y2="175.32619185485424" class="err"/>
<line x1="198.01328495627834" y1="169.94113105578072" x2="204.01328495627834" y2="169.94113105578072" class="err"/>
<line x1="198.01328495627834" y1="175.32619185485424" x2="204.01328495627834" y2="175.32619185485424" class="err"/>
<circle cx="201.01328495627834" cy="172.63366145531748" r="2.5" class="obs"/>
<line x1="233.52753085783647" y1="139.12661648330436" x2="233.52753085783647" y2="153.48677861416718" class="err"/>
<line x1="230.52753085783647" y1="139.12661648330436" x2="236.52753085783647" y2="139.12661648330436" class="err"/>
<line x1="230.52753085783647" y1="153.48677861416718" x2="236.52753085783647" y2="153.48677861416718" class="err"/>
<circle cx="233.52753085783647" cy="146.30669754873577" r="2.5" class="obs"/>
<line x1="266.51992743441747" y1="123.86894421926264" x2="266.51992743441747" y2="150.19590812584443" class="err"/>
<line x1="263.51992743441747" y1="123.86894421926264" x2="269.51992743441747" y2="123.86894421926264" class="err"/>
<line x1="263.51992743441747" y1="150.19590812584443" x2="269.51992743441747" y2="150.19590812584443" class="err"/>
<circle cx="266.51992743441747" cy="137.03242617255353" r="2.5" class="obs"/>
<line x1="299.03417333597565" y1="119.08222350897506" x2="299.03417333597565" y2="141.8191468828411" class="err"/>
<line x1="296.03417333597565" y1="119.08222350897506" x2="302.03417333597565" y2="119.08222350897506" class="err"/>
<line x1="296.03417333597565" y1="141.8191468828411" x2="302.03417333597565" y2="141.8191468828411" class="err"/>
<circle cx="299.03417333597565" cy="130.45068519590808" r="2.5" class="obs"/>
<line x1="332.0265699125567" y1="107.11542173325614" x2="332.0265699125567" y2="125.66396448562053" class="err"/>
<line x1="329.0265699125567" y1="107.11542173325614" x2="335.0265699125567" y2="107.11542173325614" class="err"/>
<line x1="329.0265699125567" y1="125.66396448562053" x2="335.0265699125567" y2="125.66396448562053" class="err"/>
<circle cx="332.0265699125567" cy="116.38969310943831" r="2.5" class="obs"/>
<line x1="364.54081581411475" y1="92.75525960239332" x2="364.54081581411475" y2="110.7054622659718" class="err"/>
<line x1="361.54081581411475" y1="92.75525960239332" x2="367.54081581411475" y2="92.75525960239332" class="err"/>
<line x1="361.54081581411475" y1="110.7054622659718" x2="367.54081581411475" y2="110.7054622659718" class="err"/>
<circle cx="364.54081581411475" cy="101.73036093418258" r="2.5" class="obs"/>
<line x1="397.5332123906958" y1="88.86604902528464" x2="397.5332123906958" y2="103.22621115614744" class="err"/>
<line x1="394.5332123906958" y1="88.86604902528464" x2="400.5332123906958" y2="88.86604902528464" class="err"/>
<line x1="394.5332123906958" y1="103.22621115614744" x2="400.5332123906958" y2="103.22621115614744" class="err"/>
<circle cx="397.5332123906958" cy="96.04613009071605" r="2.5" class="obs"/>
<line x1="430.04745829225396" y1="85.57517853696199" x2="430.04745829225396" y2="102.32870102296852" class="err"/>
<line x1="427.04745829225396" y1="85.57517853696199" x2="433.04745829225396" y2="85.57517853696199" class="err"/>
<line x1="427.04745829225396" y1="102.32870102296852" x2="433.04745829225396" y2="102.32870102296852" class="err"/>
<circle cx="430.04745829225396" cy="93.95193977996524" r="2.5" class="obs"/>
<line x1="462.56170419381215" y1="83.18181818181819" x2="462.56170419381215" y2="98.73866049025281" class="err"/>
<line x1="459.56170419381215" y1="83.18181818181819" x2="465.56170419381215" y2="83.18181818181819" class="err"/>
<line x1="459.56170419381215" y1="98.73866049025281" x2="465.56170419381215" y2="98.73866049025281" class="err"/>
<circle cx="462.56170419381215" cy="90.9602393360355" r="2.5" class="obs"/>
<line x1="495.5541007703932" y1="84.67766840378303" x2="495.5541007703932" y2="93.05442964678633" class="err"/>
<line x1="492.5541007703932" y1="84.67766840378303" x2="498.5541007703932" y2="84.67766840378303" class="err"/>
<line x1="492.5541007703932" y1="93.05442964678633" x2="498.5541007703932" y2="93.05442964678633" class="err"/>
<circle cx="495.5541007703932" cy="88.86604902528467" r="2.5" class="obs"/>
<line x1="527.5901959969283" y1="90.06272920285654" x2="527.5901959969283" y2="96.04613009071605" class="err"/>
<line x1="524.5901959969283" y1="90.06272920285654" x2="530.5901959969283" y2="90.06272920285654" class="err"/>
<line x1="524.5901959969283" y1="96.04613009071605" x2="530.5901959969283" y2="96.04613009071605" class="err"/>
<circle cx="527.5901959969283" cy="93.0544296467863" r="2.5" class="obs"/>
<line x1="562.973345948624" y1="88.86604902528467" x2="562.973345948624" y2="105.0212314225053" class="err"/>
<line x1="559.973345948624" y1="88.86604902528467" x2="565.973345948624" y2="88.86604902528467" class="err"/>
<line x1="559.973345948624" y1="105.0212314225053" x2="565.973345948624" y2="105.0212314225053" class="err"/>
<circle cx="562.973345948624" cy="96.94364022389499" r="2.5" class="obs"/>
<line x1="594.0531398251134" y1="89.4643891140706" x2="594.0531398251134" y2="105.61957151129124" class="err"/>
<line x1="591.0531398251134" y1="89.4643891140706" x2="597.0531398251134" y2="89.4643891140706" class="err"/>
<line x1="591.0531398251134" y1="105.61957151129124" x2="597.0531398251134" y2="105.61957151129124" class="err"/>
<circle cx="594.0531398251134" cy="97.5419803126809" r="2.5" class="obs"/>
<g class="legend">
<line x1="82" y1="69" x2="106" y2="69" class="fw"/>
<text x="112" y="73" class="lbl-l">framework fit</text>
<line x1="82" y1="87" x2="106" y2="87" class="nt"/>
<text x="112" y="91" class="lbl-l">Newtonian (no halo)</text>
<circle cx="94" cy="105" r="2.5" class="obs"/>
<text x="112" y="109" class="lbl">observed V±err</text>
</g>
<g class="legend">
<line x1="460" y1="69" x2="484" y2="69" class="rho"/>
<text x="490" y="73" class="lbl-r">ρ(r) raw</text>
<line x1="460" y1="87" x2="484" y2="87" class="sig"/>
<text x="490" y="91" class="lbl-r">Σ(r) smoothed</text>
<text x="460" y="113" class="lbl-r">ρ peak: 252 M☉/pc²</text>
</g>
</svg>