<svg xmlns="http://www.w3.org/2000/svg" viewBox="0 0 960 450" width="960" height="450" font-family="sans-serif" font-size="12">
<style>
  .ax { stroke: #333; stroke-width: 1; fill: none; }
  .grid { stroke: #ddd; stroke-width: 0.5; fill: none; }
  .lbl { fill: #333; }
  .lbl-l { fill: #0066cc; }
  .lbl-r { fill: #b03030; }
  .obs { fill: #222; }
  .err { stroke: #555; stroke-width: 0.8; fill: none; }
  .fw { stroke: #0066cc; stroke-width: 2.2; fill: none; }
  .nt { stroke: #cc6600; stroke-width: 1.6; fill: none; stroke-dasharray: 5,3; }
  .mond { stroke: #7b2cbf; stroke-width: 1.8; fill: none; stroke-dasharray: 7,3; }
  .lbl-p { fill: #cc7000; }
  .lbl-m { fill: #7b2cbf; }
  .rho { stroke: #b03030; stroke-width: 2.0; fill: none; }
  .phot { stroke: #cc7000; stroke-width: 1.8; fill: none; }
  .mbar { stroke: #8e44ad; stroke-width: 1.8; fill: none; opacity: 0.9; }
  .mph { stroke: #c77dff; stroke-width: 1.6; fill: none; stroke-dasharray: 4,3; opacity: 0.95; }
  .remap-x { stroke: #cc2222; stroke-width: 1.5; fill: none; }
  .remap-link { stroke: #cc2222; stroke-width: 0.8; stroke-dasharray: 3,3; fill: none; opacity: 0.7; }
  .title { fill: #111; font-size: 16px; font-weight: 600; }
  .subtitle { fill: #555; font-size: 11px; }
  .preview-bg { fill: #000; }
  .preview-lbl { fill: #888; font-size: 10px; }
  .legend { font-size: 11px; }
</style>
<text x="378.5" y="22" text-anchor="middle" class="title">NGC5985</text>
<text x="378.5" y="38" text-anchor="middle" class="subtitle">rMax=34.7 kpc, N=33, FW=4.9 km/s, 1.8%, 0.99σ, MOND=70.8 km/s, 25.2%, 12.67σ, amp=572</text>
<line x1="70" y1="395.0" x2="687" y2="395.0" class="grid"/>
<text x="64" y="399.0" text-anchor="end" class="lbl-l">0</text>
<line x1="70" y1="327.0" x2="687" y2="327.0" class="grid"/>
<text x="64" y="331.0" text-anchor="end" class="lbl-l">71</text>
<line x1="70" y1="259.0" x2="687" y2="259.0" class="grid"/>
<text x="64" y="263.0" text-anchor="end" class="lbl-l">142</text>
<line x1="70" y1="191.0" x2="687" y2="191.0" class="grid"/>
<text x="64" y="195.0" text-anchor="end" class="lbl-l">212</text>
<line x1="70" y1="123.0" x2="687" y2="123.0" class="grid"/>
<text x="64" y="127.0" text-anchor="end" class="lbl-l">283</text>
<line x1="70" y1="55.0" x2="687" y2="55.0" class="grid"/>
<text x="64" y="59.0" text-anchor="end" class="lbl-l">354</text>
<text x="693" y="399.0" text-anchor="start" class="lbl-r">0.0</text>
<text x="693" y="353.7" text-anchor="start" class="lbl-r">0.2</text>
<text x="693" y="308.3" text-anchor="start" class="lbl-r">0.4</text>
<text x="693" y="263.0" text-anchor="start" class="lbl-r">0.6</text>
<text x="693" y="217.7" text-anchor="start" class="lbl-r">0.8</text>
<text x="693" y="172.3" text-anchor="start" class="lbl-r">1.0</text>
<line x1="70.0" y1="55" x2="70.0" y2="395" class="grid"/>
<text x="70.0" y="411" text-anchor="middle" class="lbl">0.0</text>
<line x1="172.8" y1="55" x2="172.8" y2="395" class="grid"/>
<text x="172.8" y="411" text-anchor="middle" class="lbl">6.1</text>
<line x1="275.7" y1="55" x2="275.7" y2="395" class="grid"/>
<text x="275.7" y="411" text-anchor="middle" class="lbl">12.2</text>
<line x1="378.5" y1="55" x2="378.5" y2="395" class="grid"/>
<text x="378.5" y="411" text-anchor="middle" class="lbl">18.2</text>
<line x1="481.3" y1="55" x2="481.3" y2="395" class="grid"/>
<text x="481.3" y="411" text-anchor="middle" class="lbl">24.3</text>
<line x1="584.2" y1="55" x2="584.2" y2="395" class="grid"/>
<text x="584.2" y="411" text-anchor="middle" class="lbl">30.4</text>
<line x1="687.0" y1="55" x2="687.0" y2="395" class="grid"/>
<text x="687.0" y="411" text-anchor="middle" class="lbl">36.5</text>
<text x="378.5" y="438" text-anchor="middle" class="lbl">radius (kpc)</text>
<text x="16" y="225" text-anchor="middle" class="lbl-l" transform="rotate(-90, 16, 225)">velocity (km/s)</text>
<text x="724" y="225" text-anchor="middle" class="lbl-r" transform="rotate(-90, 724, 225)">profiles (normalized to peak)</text>
<rect x="70" y="55" width="617" height="340" class="ax"/>
<path d="M 70.0,168.3 L 72.8,174.4 L 75.6,180.4 L 78.5,186.4 L 81.3,192.5 L 84.1,198.5 L 86.9,204.5 L 89.7,210.5 L 92.5,216.6 L 95.4,222.6 L 98.2,228.6 L 101.0,234.7 L 103.8,240.7 L 106.6,246.7 L 109.4,250.8 L 112.3,252.4 L 115.1,254.0 L 117.9,255.6 L 120.7,257.2 L 123.5,258.8 L 126.3,260.4 L 129.2,262.0 L 132.0,263.6 L 134.8,265.2 L 137.6,266.8 L 140.4,268.4 L 143.3,270.0 L 146.1,271.6 L 148.9,273.1 L 151.7,274.7 L 154.5,276.3 L 157.3,277.9 L 160.2,279.5 L 163.0,281.1 L 165.8,282.7 L 168.6,284.3 L 171.4,285.9 L 174.2,287.5 L 177.1,289.1 L 179.9,290.7 L 182.7,292.1 L 185.5,292.9 L 188.3,293.6 L 191.1,294.3 L 194.0,295.1 L 196.8,295.8 L 199.6,296.5 L 202.4,297.3 L 205.2,298.0 L 208.1,298.8 L 210.9,299.5 L 213.7,300.2 L 216.5,301.0 L 219.3,301.7 L 222.1,302.4 L 225.0,303.2 L 227.8,303.9 L 230.6,304.6 L 233.4,305.4 L 236.2,306.1 L 239.0,306.9 L 241.9,307.6 L 244.7,308.3 L 247.5,309.1 L 250.3,309.8 L 253.1,310.5 L 255.9,311.3 L 258.8,312.0 L 261.6,312.8 L 264.4,313.5 L 267.2,314.2 L 270.0,315.0 L 272.8,315.7 L 275.7,316.4 L 278.5,317.2 L 281.3,317.9 L 284.1,318.2 L 286.9,318.5 L 289.8,318.9 L 292.6,319.2 L 295.4,319.5 L 298.2,319.8 L 301.0,320.2 L 303.8,320.5 L 306.7,320.8 L 309.5,321.1 L 312.3,321.5 L 315.1,321.8 L 317.9,322.1 L 320.7,322.4 L 323.6,322.8 L 326.4,323.1 L 329.2,323.4 L 332.0,323.7 L 334.8,324.0 L 337.6,324.4 L 340.5,324.7 L 343.3,325.0 L 346.1,325.3 L 348.9,325.7 L 351.7,326.0 L 354.6,326.3 L 357.4,326.6 L 360.2,327.0 L 363.0,327.3 L 365.8,327.6 L 368.6,327.9 L 371.5,328.3 L 374.3,328.6 L 377.1,328.9 L 379.9,329.2 L 382.7,329.5 L 385.5,329.9 L 388.4,330.2 L 391.2,330.5 L 394.0,330.8 L 396.8,331.2 L 399.6,331.5 L 402.4,331.8 L 405.3,332.1 L 408.1,332.5 L 410.9,332.8 L 413.7,333.1 L 416.5,333.4 L 419.4,333.8 L 422.2,334.1 L 425.0,334.4 L 427.8,334.7 L 430.6,335.0 L 433.4,335.4 L 436.3,335.7 L 439.1,336.0 L 441.9,336.3 L 444.7,336.7 L 447.5,337.0 L 450.3,337.3 L 453.2,337.6 L 456.0,338.0 L 458.8,338.3 L 461.6,338.6 L 464.4,338.9 L 467.2,339.3 L 470.1,339.6 L 472.9,339.9 L 475.7,340.2 L 478.5,340.5 L 481.3,340.9 L 484.2,341.2 L 487.0,341.5 L 489.8,341.8 L 492.6,342.2 L 495.4,342.5 L 498.2,342.8 L 501.1,343.1 L 503.9,343.5 L 506.7,343.8 L 509.5,344.1 L 512.3,344.4 L 515.1,344.8 L 518.0,345.1 L 520.8,345.4 L 523.6,345.7 L 526.4,346.0 L 529.2,346.4 L 532.0,346.7 L 534.9,347.0 L 537.7,347.3 L 540.5,347.7 L 543.3,348.0 L 546.1,348.3 L 548.9,348.6 L 551.8,349.0 L 554.6,349.3 L 557.4,349.6 L 560.2,349.9 L 563.0,350.2 L 565.9,350.6 L 568.7,350.9 L 571.5,351.2 L 574.3,351.5 L 577.1,351.9 L 579.9,352.2 L 582.8,352.5 L 585.6,352.8 L 588.4,353.2 L 591.2,353.5 L 594.0,353.8 L 596.8,354.1 L 599.7,354.5 L 602.5,354.8 L 605.3,355.1 L 608.1,355.4 L 610.9,355.7 L 613.7,356.1 L 616.6,356.4 L 619.4,356.7 L 622.2,357.0 L 625.0,357.4 L 627.8,357.7 L 630.7,358.0 L 633.5,358.3 L 636.3,358.7 L 639.1,359.0 L 641.9,359.3 L 644.7,359.6 L 647.6,360.0 L 650.4,360.3 L 653.2,369.0 L 656.0,385.5 L 658.8,395.0 L 661.6,395.0 L 664.5,395.0 L 667.3,395.0 L 670.1,395.0 L 672.9,395.0 L 675.7,395.0 L 678.5,395.0 L 681.4,395.0 L 684.2,395.0 L 687.0,395.0" class="rho"/>
<path d="M 129.9,168.3 L 141.6,196.2 L 154.1,204.2 L 167.1,213.6 L 179.5,222.0 L 192.2,231.6 L 205.7,247.8 L 218.8,257.2 L 230.8,264.6 L 243.8,273.3 L 257.5,290.5 L 270.0,303.1 L 282.6,313.8 L 296.6,323.2 L 308.6,332.2 L 322.7,342.4 L 334.7,347.8 L 346.7,351.5 L 360.8,358.2 L 372.8,364.4 L 386.8,368.3 L 399.0,370.0 L 412.9,372.1 L 425.1,374.3 L 437.1,376.3 L 451.1,378.0 L 463.2,379.2 L 477.2,380.4 L 489.2,381.3 L 509.2,382.7 L 559.5,388.3 L 607.5,390.8 L 657.6,392.6" class="phot"/>
<path d="M 129.9,168.3 L 141.6,257.9 L 154.1,300.2 L 167.1,290.1 L 179.5,277.9 L 192.2,270.9 L 205.7,273.1 L 218.8,275.5 L 230.8,268.3 L 243.8,260.1 L 257.5,266.8 L 270.0,285.8 L 282.6,300.7 L 296.6,308.3 L 308.6,318.0 L 322.7,333.6 L 334.7,344.3 L 346.7,345.6 L 360.8,350.4 L 372.8,364.4 L 386.8,375.9 L 399.0,375.8 L 412.9,371.0 L 425.1,370.8 L 437.1,373.7 L 451.1,375.8 L 463.2,376.1 L 477.2,375.3 L 489.2,374.7 L 509.2,376.4 L 559.5,382.1 L 607.5,386.7 L 657.6,385.6" class="mbar"/>
<path d="M 129.9,168.3 L 141.6,187.4 L 154.1,200.3 L 167.1,202.2 L 179.5,200.6 L 192.2,199.1 L 205.7,200.4 L 218.8,201.6 L 230.8,198.9 L 243.8,195.6 L 257.5,198.4 L 270.0,206.5 L 282.6,213.3 L 296.6,217.3 L 308.6,222.7 L 322.7,231.5 L 334.7,238.4 L 346.7,240.6 L 360.8,245.1 L 372.8,255.5 L 386.8,265.1 L 399.0,267.5 L 412.9,266.4 L 425.1,268.1 L 437.1,272.1 L 451.1,275.6 L 463.2,277.5 L 477.2,278.3 L 489.2,279.1 L 509.2,282.7 L 559.5,292.3 L 607.5,301.8 L 657.6,303.8" class="mph"/>
<path d="M 76.2,333.6 L 82.3,309.9 L 88.5,293.0 L 94.7,279.8 L 100.8,269.2 L 107.0,260.6 L 113.2,253.1 L 119.4,246.1 L 125.5,239.5 L 131.7,233.3 L 137.9,227.5 L 144.0,222.0 L 150.2,216.9 L 156.4,212.1 L 162.6,207.7 L 168.7,203.5 L 174.9,199.6 L 181.1,196.0 L 187.2,192.6 L 193.4,189.2 L 199.6,186.0 L 205.7,182.9 L 211.9,179.8 L 218.1,176.9 L 224.3,174.0 L 230.4,171.3 L 236.6,168.6 L 242.8,166.1 L 248.9,163.6 L 255.1,161.2 L 261.3,159.0 L 267.4,156.8 L 273.6,154.7 L 279.8,152.6 L 285.9,150.7 L 292.1,148.8 L 298.3,146.9 L 304.5,145.0 L 310.6,143.1 L 316.8,141.3 L 323.0,139.5 L 329.1,137.7 L 335.3,136.0 L 341.5,134.2 L 347.6,132.6 L 353.8,130.9 L 360.0,129.3 L 366.2,127.7 L 372.3,126.1 L 378.5,124.6 L 384.7,123.1 L 390.8,121.6 L 397.0,120.1 L 403.2,118.7 L 409.4,117.3 L 415.5,116.0 L 421.7,114.7 L 427.9,113.4 L 434.0,112.1 L 440.2,110.9 L 446.4,109.7 L 452.5,108.5 L 458.7,107.3 L 464.9,106.2 L 471.1,105.1 L 477.2,104.1 L 483.4,103.0 L 489.6,102.0 L 495.7,101.0 L 501.9,100.1 L 508.1,99.2 L 514.2,98.3 L 520.4,97.4 L 526.6,96.6 L 532.8,95.8 L 538.9,95.0 L 545.1,94.2 L 551.3,93.5 L 557.4,92.8 L 563.6,92.1 L 569.8,91.5 L 575.9,90.8 L 582.1,90.2 L 588.3,89.7 L 594.4,89.1 L 600.6,88.6 L 606.8,88.1 L 613.0,87.6 L 619.1,87.2 L 625.3,86.8 L 631.5,86.4 L 637.6,86.0 L 643.8,85.7 L 650.0,85.4 L 656.1,85.6 L 662.3,87.2 L 668.5,88.7 L 674.7,90.3 L 680.8,91.9 L 687.0,93.4" class="nt"/>
<path d="M 129.9,248.1 L 141.6,246.3 L 154.1,243.6 L 167.1,238.2 L 179.5,232.2 L 192.2,224.7 L 205.7,217.7 L 218.8,211.4 L 230.8,205.1 L 243.8,197.3 L 257.5,189.9 L 270.0,185.1 L 282.6,181.2 L 296.6,177.2 L 308.6,174.0 L 322.7,171.7 L 334.7,170.4 L 346.7,168.7 L 360.8,166.8 L 372.8,166.3 L 386.8,166.6 L 399.0,166.6 L 412.9,165.8 L 425.1,165.2 L 437.1,164.8 L 451.1,164.3 L 463.2,163.9 L 477.2,163.2 L 489.2,162.6 L 509.2,161.3 L 559.5,160.0 L 607.5,160.8 L 657.6,159.1" class="mond"/>
<path d="M 75.1,363.5 L 80.3,340.6 L 85.4,316.2 L 90.6,293.6 L 95.7,273.3 L 100.8,255.8 L 106.0,240.4 L 111.1,227.1 L 116.3,215.4 L 121.4,204.9 L 126.6,195.2 L 131.7,186.3 L 136.8,177.9 L 142.0,170.1 L 147.1,162.8 L 152.3,156.2 L 157.4,150.1 L 162.6,144.7 L 167.7,139.9 L 172.8,135.7 L 178.0,132.1 L 183.1,129.0 L 188.3,126.3 L 193.4,123.8 L 198.5,121.6 L 203.7,119.4 L 208.8,117.4 L 214.0,115.4 L 219.1,113.6 L 224.3,111.9 L 229.4,110.3 L 234.5,108.9 L 239.7,107.6 L 244.8,106.6 L 250.0,105.8 L 255.1,105.3 L 260.2,105.0 L 265.4,104.9 L 270.5,105.2 L 275.7,105.6 L 280.8,106.3 L 285.9,107.0 L 291.1,107.8 L 296.2,108.7 L 301.4,109.4 L 306.5,110.1 L 311.7,110.6 L 316.8,111.1 L 321.9,111.5 L 327.1,111.9 L 332.2,112.1 L 337.4,112.3 L 342.5,112.5 L 347.6,112.6 L 352.8,112.7 L 357.9,112.8 L 363.1,112.8 L 368.2,112.8 L 373.4,112.8 L 378.5,112.8 L 383.6,112.8 L 388.8,112.8 L 393.9,112.8 L 399.1,112.8 L 404.2,112.8 L 409.3,112.8 L 414.5,112.8 L 419.6,112.8 L 424.8,112.9 L 429.9,112.9 L 435.1,113.0 L 440.2,113.1 L 445.3,113.3 L 450.5,113.4 L 455.6,113.6 L 460.8,113.7 L 465.9,114.0 L 471.0,114.2 L 476.2,114.4 L 481.3,114.7 L 486.5,115.0 L 491.6,115.3 L 496.8,115.7 L 501.9,116.0 L 507.0,116.4 L 512.2,116.8 L 517.3,117.2 L 522.5,117.6 L 527.6,118.1 L 532.8,118.5 L 537.9,119.0 L 543.0,119.4 L 548.2,119.9 L 553.3,120.3 L 558.5,120.8 L 563.6,121.2 L 568.7,121.5 L 573.9,121.9 L 579.0,122.1 L 584.2,122.3 L 589.3,122.4 L 594.4,122.4 L 599.6,122.3 L 604.7,121.9 L 609.9,121.4 L 615.0,120.7 L 620.2,119.8 L 625.3,118.6 L 630.4,117.4 L 635.6,116.4 L 640.7,115.8 L 645.9,116.0 L 651.0,117.6 L 656.1,120.5 L 661.3,125.1 L 666.4,130.8 L 671.6,137.4 L 676.7,144.4 L 681.9,151.3 L 687.0,158.1" class="fw"/>
<line x1="129.91" y1="173.01" x2="129.91" y2="188.38" class="err"/>
<line x1="126.91" y1="173.01" x2="132.91" y2="173.01" class="err"/>
<line x1="126.91" y1="188.38" x2="132.91" y2="188.38" class="err"/>
<circle cx="129.91" cy="180.69" r="2.5" class="obs"/>
<line x1="141.59" y1="168.08" x2="141.59" y2="179.86" class="err"/>
<line x1="138.59" y1="168.08" x2="144.59" y2="168.08" class="err"/>
<line x1="138.59" y1="179.86" x2="144.59" y2="179.86" class="err"/>
<circle cx="141.59" cy="173.97" r="2.5" class="obs"/>
<line x1="154.11" y1="151.77" x2="154.11" y2="161.57" class="err"/>
<line x1="151.11" y1="151.77" x2="157.11" y2="151.77" class="err"/>
<line x1="151.11" y1="161.57" x2="157.11" y2="161.57" class="err"/>
<circle cx="154.11" cy="156.67" r="2.5" class="obs"/>
<line x1="167.15" y1="140.72" x2="167.15" y2="153.40" class="err"/>
<line x1="164.15" y1="140.72" x2="170.15" y2="140.72" class="err"/>
<line x1="164.15" y1="153.40" x2="170.15" y2="153.40" class="err"/>
<circle cx="167.15" cy="147.06" r="2.5" class="obs"/>
<line x1="179.50" y1="135.53" x2="179.50" y2="148.98" class="err"/>
<line x1="176.50" y1="135.53" x2="182.50" y2="135.53" class="err"/>
<line x1="176.50" y1="148.98" x2="182.50" y2="148.98" class="err"/>
<circle cx="179.50" cy="142.25" r="2.5" class="obs"/>
<line x1="192.19" y1="127.60" x2="192.19" y2="139.61" class="err"/>
<line x1="189.19" y1="127.60" x2="195.19" y2="127.60" class="err"/>
<line x1="189.19" y1="139.61" x2="195.19" y2="139.61" class="err"/>
<circle cx="192.19" cy="133.60" r="2.5" class="obs"/>
<line x1="205.73" y1="115.34" x2="205.73" y2="123.04" class="err"/>
<line x1="202.73" y1="115.34" x2="208.73" y2="115.34" class="err"/>
<line x1="202.73" y1="123.04" x2="208.73" y2="123.04" class="err"/>
<circle cx="205.73" cy="119.19" r="2.5" class="obs"/>
<line x1="218.77" y1="110.30" x2="218.77" y2="124.24" class="err"/>
<line x1="215.77" y1="110.30" x2="221.77" y2="110.30" class="err"/>
<line x1="215.77" y1="124.24" x2="221.77" y2="124.24" class="err"/>
<circle cx="218.77" cy="117.27" r="2.5" class="obs"/>
<line x1="230.78" y1="107.72" x2="230.78" y2="121.04" class="err"/>
<line x1="227.78" y1="107.72" x2="233.78" y2="107.72" class="err"/>
<line x1="227.78" y1="121.04" x2="233.78" y2="121.04" class="err"/>
<circle cx="230.78" cy="114.38" r="2.5" class="obs"/>
<line x1="243.81" y1="94.78" x2="243.81" y2="114.77" class="err"/>
<line x1="240.81" y1="94.78" x2="246.81" y2="94.78" class="err"/>
<line x1="240.81" y1="114.77" x2="246.81" y2="114.77" class="err"/>
<circle cx="243.81" cy="104.77" r="2.5" class="obs"/>
<line x1="257.52" y1="94.88" x2="257.52" y2="114.67" class="err"/>
<line x1="254.52" y1="94.88" x2="260.52" y2="94.88" class="err"/>
<line x1="254.52" y1="114.67" x2="260.52" y2="114.67" class="err"/>
<circle cx="257.52" cy="104.77" r="2.5" class="obs"/>
<line x1="270.05" y1="92.86" x2="270.05" y2="112.85" class="err"/>
<line x1="267.05" y1="92.86" x2="273.05" y2="92.86" class="err"/>
<line x1="267.05" y1="112.85" x2="273.05" y2="112.85" class="err"/>
<circle cx="270.05" cy="102.85" r="2.5" class="obs"/>
<line x1="282.57" y1="93.82" x2="282.57" y2="113.81" class="err"/>
<line x1="279.57" y1="93.82" x2="285.57" y2="93.82" class="err"/>
<line x1="279.57" y1="113.81" x2="285.57" y2="113.81" class="err"/>
<circle cx="282.57" cy="103.81" r="2.5" class="obs"/>
<line x1="296.62" y1="92.19" x2="296.62" y2="111.60" class="err"/>
<line x1="293.62" y1="92.19" x2="299.62" y2="92.19" class="err"/>
<line x1="293.62" y1="111.60" x2="299.62" y2="111.60" class="err"/>
<circle cx="296.62" cy="101.89" r="2.5" class="obs"/>
<line x1="308.64" y1="98.26" x2="308.64" y2="115.13" class="err"/>
<line x1="305.64" y1="98.26" x2="311.64" y2="98.26" class="err"/>
<line x1="305.64" y1="115.13" x2="311.64" y2="115.13" class="err"/>
<circle cx="308.64" cy="106.70" r="2.5" class="obs"/>
<line x1="322.68" y1="102.16" x2="322.68" y2="120.84" class="err"/>
<line x1="319.68" y1="102.16" x2="325.68" y2="102.16" class="err"/>
<line x1="319.68" y1="120.84" x2="325.68" y2="120.84" class="err"/>
<circle cx="322.68" cy="111.50" r="2.5" class="obs"/>
<line x1="334.70" y1="107.35" x2="334.70" y2="117.58" class="err"/>
<line x1="331.70" y1="107.35" x2="337.70" y2="107.35" class="err"/>
<line x1="331.70" y1="117.58" x2="337.70" y2="117.58" class="err"/>
<circle cx="334.70" cy="112.46" r="2.5" class="obs"/>
<line x1="346.72" y1="111.19" x2="346.72" y2="121.42" class="err"/>
<line x1="343.72" y1="111.19" x2="349.72" y2="111.19" class="err"/>
<line x1="343.72" y1="121.42" x2="349.72" y2="121.42" class="err"/>
<circle cx="346.72" cy="116.31" r="2.5" class="obs"/>
<line x1="360.76" y1="111.47" x2="360.76" y2="119.22" class="err"/>
<line x1="357.76" y1="111.47" x2="363.76" y2="111.47" class="err"/>
<line x1="357.76" y1="119.22" x2="363.76" y2="119.22" class="err"/>
<circle cx="360.76" cy="115.35" r="2.5" class="obs"/>
<line x1="372.78" y1="117.03" x2="372.78" y2="123.27" class="err"/>
<line x1="369.78" y1="117.03" x2="375.78" y2="117.03" class="err"/>
<line x1="369.78" y1="123.27" x2="375.78" y2="123.27" class="err"/>
<circle cx="372.78" cy="120.15" r="2.5" class="obs"/>
<line x1="386.83" y1="115.72" x2="386.83" y2="122.66" class="err"/>
<line x1="383.83" y1="115.72" x2="389.83" y2="115.72" class="err"/>
<line x1="383.83" y1="122.66" x2="389.83" y2="122.66" class="err"/>
<circle cx="386.83" cy="119.19" r="2.5" class="obs"/>
<line x1="399.01" y1="109.24" x2="399.01" y2="115.68" class="err"/>
<line x1="396.01" y1="109.24" x2="402.01" y2="109.24" class="err"/>
<line x1="396.01" y1="115.68" x2="402.01" y2="115.68" class="err"/>
<circle cx="399.01" cy="112.46" r="2.5" class="obs"/>
<line x1="412.89" y1="112.70" x2="412.89" y2="119.91" class="err"/>
<line x1="409.89" y1="112.70" x2="415.89" y2="112.70" class="err"/>
<line x1="409.89" y1="119.91" x2="415.89" y2="119.91" class="err"/>
<circle cx="412.89" cy="116.31" r="2.5" class="obs"/>
<line x1="425.08" y1="115.31" x2="425.08" y2="121.15" class="err"/>
<line x1="422.08" y1="115.31" x2="428.08" y2="115.31" class="err"/>
<line x1="422.08" y1="121.15" x2="428.08" y2="121.15" class="err"/>
<circle cx="425.08" cy="118.23" r="2.5" class="obs"/>
<line x1="437.09" y1="110.16" x2="437.09" y2="122.46" class="err"/>
<line x1="434.09" y1="110.16" x2="440.09" y2="110.16" class="err"/>
<line x1="434.09" y1="122.46" x2="440.09" y2="122.46" class="err"/>
<circle cx="437.09" cy="116.31" r="2.5" class="obs"/>
<line x1="451.14" y1="108.44" x2="451.14" y2="116.49" class="err"/>
<line x1="448.14" y1="108.44" x2="454.14" y2="108.44" class="err"/>
<line x1="448.14" y1="116.49" x2="454.14" y2="116.49" class="err"/>
<circle cx="451.14" cy="112.46" r="2.5" class="obs"/>
<line x1="463.16" y1="105.62" x2="463.16" y2="113.54" class="err"/>
<line x1="460.16" y1="105.62" x2="466.16" y2="105.62" class="err"/>
<line x1="460.16" y1="113.54" x2="466.16" y2="113.54" class="err"/>
<circle cx="463.16" cy="109.58" r="2.5" class="obs"/>
<line x1="477.20" y1="108.47" x2="477.20" y2="118.37" class="err"/>
<line x1="474.20" y1="108.47" x2="480.20" y2="108.47" class="err"/>
<line x1="474.20" y1="118.37" x2="480.20" y2="118.37" class="err"/>
<circle cx="477.20" cy="113.42" r="2.5" class="obs"/>
<line x1="489.22" y1="109.38" x2="489.22" y2="121.31" class="err"/>
<line x1="486.22" y1="109.38" x2="492.22" y2="109.38" class="err"/>
<line x1="486.22" y1="121.31" x2="492.22" y2="121.31" class="err"/>
<circle cx="489.22" cy="115.35" r="2.5" class="obs"/>
<line x1="509.19" y1="105.74" x2="509.19" y2="113.42" class="err"/>
<line x1="506.19" y1="105.74" x2="512.19" y2="105.74" class="err"/>
<line x1="506.19" y1="113.42" x2="512.19" y2="113.42" class="err"/>
<circle cx="509.19" cy="109.58" r="2.5" class="obs"/>
<line x1="559.46" y1="110.54" x2="559.46" y2="118.23" class="err"/>
<line x1="556.46" y1="110.54" x2="562.46" y2="110.54" class="err"/>
<line x1="556.46" y1="118.23" x2="562.46" y2="118.23" class="err"/>
<circle cx="559.46" cy="114.38" r="2.5" class="obs"/>
<line x1="607.52" y1="114.38" x2="607.52" y2="122.07" class="err"/>
<line x1="604.52" y1="114.38" x2="610.52" y2="114.38" class="err"/>
<line x1="604.52" y1="122.07" x2="610.52" y2="122.07" class="err"/>
<circle cx="607.52" cy="118.23" r="2.5" class="obs"/>
<line x1="657.62" y1="117.27" x2="657.62" y2="124.96" class="err"/>
<line x1="654.62" y1="117.27" x2="660.62" y2="117.27" class="err"/>
<line x1="654.62" y1="124.96" x2="660.62" y2="124.96" class="err"/>
<circle cx="657.62" cy="121.11" r="2.5" class="obs"/>
<g class="legend">
<line x1="82" y1="69" x2="106" y2="69" class="fw"/>
<text x="112" y="73" class="lbl-l">framework: 4.9 km/s, 1.8%, 0.99σ</text>
<line x1="82" y1="87" x2="106" y2="87" class="nt"/>
<text x="112" y="91" class="lbl-l">Newtonian: 40.2 km/s, 14.6%, 6.36σ</text>
<line x1="82" y1="105" x2="106" y2="105" class="mond"/>
<text x="112" y="109" class="lbl-m">MOND/RAR: 70.8 km/s, 25.2%, 12.67σ</text>
<circle cx="94" cy="123" r="2.5" class="obs"/>
<text x="112" y="127" class="lbl">observed V±err</text>
</g>
<g class="legend">
<line x1="472" y1="69" x2="496" y2="69" class="rho"/>
<text x="502" y="73" class="lbl-r">ρ(r) raw</text>
<line x1="472" y1="87" x2="496" y2="87" class="phot"/>
<text x="502" y="91" class="lbl-p">photometric baryonic profile</text>
<line x1="472" y1="105" x2="496" y2="105" class="mbar"/>
<text x="502" y="109" class="lbl-m">MOND baryonic annulus</text>
<line x1="472" y1="123" x2="496" y2="123" class="mph"/>
<text x="502" y="127" class="lbl-m">MOND phantom annulus</text>
<text x="472" y="147" class="lbl-r">ρ peak: 863 M☉/pc²</text>
<text x="472" y="163" class="lbl-p">phot peak: 170.20 (arb.)</text>
<text x="472" y="179" class="lbl-m">Σbar peak: 271.37 M☉/pc²</text>
<text x="472" y="195" class="lbl-m">Σphantom peak: 158.98 M☉/pc²</text>
</g>
<rect x="775" y="55" width="170" height="170" class="preview-bg"/>
<defs><radialGradient id="g_NGC5985" cx="0.5" cy="0.5" r="0.5">
  <stop offset="0.0000" stop-color="rgb(255,255,255)"/>
  <stop offset="0.0313" stop-color="rgb(231,231,231)"/>
  <stop offset="0.0625" stop-color="rgb(191,191,191)"/>
  <stop offset="0.0938" stop-color="rgb(177,177,177)"/>
  <stop offset="0.1250" stop-color="rgb(166,166,166)"/>
  <stop offset="0.1563" stop-color="rgb(156,156,156)"/>
  <stop offset="0.1875" stop-color="rgb(145,145,145)"/>
  <stop offset="0.2188" stop-color="rgb(139,139,139)"/>
  <stop offset="0.2500" stop-color="rgb(134,134,134)"/>
  <stop offset="0.2813" stop-color="rgb(129,129,129)"/>
  <stop offset="0.3125" stop-color="rgb(124,124,124)"/>
  <stop offset="0.3438" stop-color="rgb(119,119,119)"/>
  <stop offset="0.3750" stop-color="rgb(116,116,116)"/>
  <stop offset="0.4063" stop-color="rgb(113,113,113)"/>
  <stop offset="0.4375" stop-color="rgb(111,111,111)"/>
  <stop offset="0.4688" stop-color="rgb(109,109,109)"/>
  <stop offset="0.5000" stop-color="rgb(107,107,107)"/>
  <stop offset="0.5313" stop-color="rgb(105,105,105)"/>
  <stop offset="0.5625" stop-color="rgb(102,102,102)"/>
  <stop offset="0.5938" stop-color="rgb(100,100,100)"/>
  <stop offset="0.6250" stop-color="rgb(98,98,98)"/>
  <stop offset="0.6563" stop-color="rgb(96,96,96)"/>
  <stop offset="0.6875" stop-color="rgb(94,94,94)"/>
  <stop offset="0.7188" stop-color="rgb(91,91,91)"/>
  <stop offset="0.7500" stop-color="rgb(89,89,89)"/>
  <stop offset="0.7813" stop-color="rgb(87,87,87)"/>
  <stop offset="0.8125" stop-color="rgb(85,85,85)"/>
  <stop offset="0.8438" stop-color="rgb(83,83,83)"/>
  <stop offset="0.8750" stop-color="rgb(80,80,80)"/>
  <stop offset="0.9063" stop-color="rgb(78,78,78)"/>
  <stop offset="0.9375" stop-color="rgb(76,76,76)"/>
  <stop offset="0.9688" stop-color="rgb(74,74,74)"/>
  <stop offset="1.0000" stop-color="rgb(0,0,0)"/>
</radialGradient></defs>
<circle cx="860" cy="140" r="81" fill="url(#g_NGC5985)"/>
<text x="860" y="49" text-anchor="middle" class="preview-lbl">face-on luminance from ρ(r)</text>
<text x="860" y="239" text-anchor="middle" class="preview-lbl">edge at r = 34.7 kpc</text>
</svg>