<svg xmlns="http://www.w3.org/2000/svg" viewBox="0 0 960 450" width="960" height="450" font-family="sans-serif" font-size="12">
<style>
  .ax { stroke: #333; stroke-width: 1; fill: none; }
  .grid { stroke: #ddd; stroke-width: 0.5; fill: none; }
  .lbl { fill: #333; }
  .lbl-l { fill: #0066cc; }
  .lbl-r { fill: #b03030; }
  .obs { fill: #222; }
  .err { stroke: #555; stroke-width: 0.8; fill: none; }
  .fw { stroke: #0066cc; stroke-width: 2.2; fill: none; }
  .nt { stroke: #cc6600; stroke-width: 1.6; fill: none; stroke-dasharray: 5,3; }
  .mond { stroke: #7b2cbf; stroke-width: 1.8; fill: none; stroke-dasharray: 7,3; }
  .lbl-p { fill: #cc7000; }
  .lbl-m { fill: #7b2cbf; }
  .rho { stroke: #b03030; stroke-width: 2.0; fill: none; }
  .phot { stroke: #cc7000; stroke-width: 1.8; fill: none; }
  .mbar { stroke: #8e44ad; stroke-width: 1.8; fill: none; opacity: 0.9; }
  .mph { stroke: #c77dff; stroke-width: 1.6; fill: none; stroke-dasharray: 4,3; opacity: 0.95; }
  .title { fill: #111; font-size: 16px; font-weight: 600; }
  .subtitle { fill: #555; font-size: 11px; }
  .preview-bg { fill: #000; }
  .preview-lbl { fill: #888; font-size: 10px; }
  .legend { font-size: 11px; }
</style>
<text x="378.5" y="22" text-anchor="middle" class="title">NGC5585</text>
<text x="378.5" y="38" text-anchor="middle" class="subtitle">rMax=11.0 kpc, N=24, FW=2.4 km/s, 8.2%, 1.90σ, MOND=8.2 km/s, 20.8%, 5.12σ, amp=104</text>
<line x1="70" y1="395.0" x2="687" y2="395.0" class="grid"/>
<text x="64" y="399.0" text-anchor="end" class="lbl-l">0</text>
<line x1="70" y1="327.0" x2="687" y2="327.0" class="grid"/>
<text x="64" y="331.0" text-anchor="end" class="lbl-l">21</text>
<line x1="70" y1="259.0" x2="687" y2="259.0" class="grid"/>
<text x="64" y="263.0" text-anchor="end" class="lbl-l">42</text>
<line x1="70" y1="191.0" x2="687" y2="191.0" class="grid"/>
<text x="64" y="195.0" text-anchor="end" class="lbl-l">63</text>
<line x1="70" y1="123.0" x2="687" y2="123.0" class="grid"/>
<text x="64" y="127.0" text-anchor="end" class="lbl-l">84</text>
<line x1="70" y1="55.0" x2="687" y2="55.0" class="grid"/>
<text x="64" y="59.0" text-anchor="end" class="lbl-l">105</text>
<text x="693" y="399.0" text-anchor="start" class="lbl-r">0.0</text>
<text x="693" y="353.7" text-anchor="start" class="lbl-r">0.2</text>
<text x="693" y="308.3" text-anchor="start" class="lbl-r">0.4</text>
<text x="693" y="263.0" text-anchor="start" class="lbl-r">0.6</text>
<text x="693" y="217.7" text-anchor="start" class="lbl-r">0.8</text>
<text x="693" y="172.3" text-anchor="start" class="lbl-r">1.0</text>
<line x1="70.0" y1="55" x2="70.0" y2="395" class="grid"/>
<text x="70.0" y="411" text-anchor="middle" class="lbl">0.0</text>
<line x1="172.8" y1="55" x2="172.8" y2="395" class="grid"/>
<text x="172.8" y="411" text-anchor="middle" class="lbl">2.0</text>
<line x1="275.7" y1="55" x2="275.7" y2="395" class="grid"/>
<text x="275.7" y="411" text-anchor="middle" class="lbl">3.9</text>
<line x1="378.5" y1="55" x2="378.5" y2="395" class="grid"/>
<text x="378.5" y="411" text-anchor="middle" class="lbl">5.9</text>
<line x1="481.3" y1="55" x2="481.3" y2="395" class="grid"/>
<text x="481.3" y="411" text-anchor="middle" class="lbl">7.9</text>
<line x1="584.2" y1="55" x2="584.2" y2="395" class="grid"/>
<text x="584.2" y="411" text-anchor="middle" class="lbl">9.8</text>
<line x1="687.0" y1="55" x2="687.0" y2="395" class="grid"/>
<text x="687.0" y="411" text-anchor="middle" class="lbl">11.8</text>
<text x="378.5" y="438" text-anchor="middle" class="lbl">radius (kpc)</text>
<text x="16" y="225" text-anchor="middle" class="lbl-l" transform="rotate(-90, 16, 225)">velocity (km/s)</text>
<text x="724" y="225" text-anchor="middle" class="lbl-r" transform="rotate(-90, 724, 225)">profiles (normalized to peak)</text>
<rect x="70" y="55" width="617" height="340" class="ax"/>
<path d="M 70.0,168.3 L 72.8,180.8 L 75.6,193.3 L 78.5,205.8 L 81.3,218.3 L 84.1,230.8 L 86.9,243.3 L 89.7,255.8 L 92.5,268.3 L 95.4,280.8 L 98.2,293.3 L 101.0,304.3 L 103.8,304.3 L 106.6,304.3 L 109.4,304.3 L 112.3,304.3 L 115.1,304.3 L 117.9,304.3 L 120.7,304.3 L 123.5,304.3 L 126.3,304.3 L 129.2,304.3 L 132.0,304.3 L 134.8,304.3 L 137.6,304.3 L 140.4,304.3 L 143.3,304.3 L 146.1,304.3 L 148.9,304.3 L 151.7,304.3 L 154.5,304.3 L 157.3,304.3 L 160.2,304.3 L 163.0,304.3 L 165.8,304.3 L 168.6,304.3 L 171.4,304.3 L 174.2,304.3 L 177.1,304.3 L 179.9,304.3 L 182.7,304.3 L 185.5,304.3 L 188.3,304.7 L 191.1,305.5 L 194.0,306.3 L 196.8,307.1 L 199.6,307.8 L 202.4,308.6 L 205.2,309.4 L 208.1,310.1 L 210.9,310.9 L 213.7,311.7 L 216.5,312.4 L 219.3,313.2 L 222.1,314.0 L 225.0,314.8 L 227.8,315.5 L 230.6,316.3 L 233.4,317.1 L 236.2,317.6 L 239.0,318.0 L 241.9,318.3 L 244.7,318.6 L 247.5,318.9 L 250.3,319.2 L 253.1,319.5 L 255.9,319.9 L 258.8,320.2 L 261.6,320.5 L 264.4,320.8 L 267.2,321.1 L 270.0,321.4 L 272.8,321.8 L 275.7,322.1 L 278.5,322.4 L 281.3,322.7 L 284.1,323.0 L 286.9,323.3 L 289.8,323.7 L 292.6,324.0 L 295.4,324.3 L 298.2,324.6 L 301.0,324.9 L 303.8,325.2 L 306.7,325.6 L 309.5,325.9 L 312.3,326.2 L 315.1,326.5 L 317.9,326.8 L 320.7,327.1 L 323.6,327.5 L 326.4,327.8 L 329.2,328.1 L 332.0,328.4 L 334.8,328.7 L 337.6,329.0 L 340.5,329.4 L 343.3,329.7 L 346.1,330.0 L 348.9,330.3 L 351.7,330.6 L 354.6,331.0 L 357.4,331.3 L 360.2,331.6 L 363.0,331.9 L 365.8,332.2 L 368.6,332.5 L 371.5,332.9 L 374.3,333.2 L 377.1,333.5 L 379.9,333.8 L 382.7,334.1 L 385.5,334.4 L 388.4,334.8 L 391.2,335.1 L 394.0,335.4 L 396.8,335.7 L 399.6,336.0 L 402.4,336.3 L 405.3,336.7 L 408.1,337.0 L 410.9,337.3 L 413.7,337.6 L 416.5,337.9 L 419.4,338.2 L 422.2,338.6 L 425.0,338.9 L 427.8,339.2 L 430.6,339.5 L 433.4,339.8 L 436.3,340.1 L 439.1,340.5 L 441.9,340.8 L 444.7,341.1 L 447.5,341.4 L 450.3,341.7 L 453.2,342.0 L 456.0,342.4 L 458.8,342.7 L 461.6,343.0 L 464.4,343.3 L 467.2,343.6 L 470.1,344.0 L 472.9,344.3 L 475.7,344.6 L 478.5,344.9 L 481.3,345.2 L 484.2,345.5 L 487.0,345.9 L 489.8,346.2 L 492.6,346.5 L 495.4,346.8 L 498.2,347.1 L 501.1,347.4 L 503.9,347.8 L 506.7,348.1 L 509.5,348.4 L 512.3,348.7 L 515.1,349.0 L 518.0,349.3 L 520.8,349.7 L 523.6,350.0 L 526.4,350.3 L 529.2,350.6 L 532.0,350.9 L 534.9,351.2 L 537.7,351.6 L 540.5,351.9 L 543.3,352.2 L 546.1,352.5 L 548.9,352.8 L 551.8,353.1 L 554.6,353.5 L 557.4,353.8 L 560.2,354.1 L 563.0,354.4 L 565.9,354.7 L 568.7,355.0 L 571.5,355.4 L 574.3,355.7 L 577.1,356.0 L 579.9,356.3 L 582.8,356.6 L 585.6,357.0 L 588.4,357.3 L 591.2,357.6 L 594.0,357.9 L 596.8,358.2 L 599.7,358.5 L 602.5,358.9 L 605.3,359.2 L 608.1,359.5 L 610.9,359.8 L 613.7,360.1 L 616.6,360.4 L 619.4,360.8 L 622.2,361.8 L 625.0,364.4 L 627.8,367.1 L 630.7,369.7 L 633.5,372.4 L 636.3,375.0 L 639.1,377.6 L 641.9,380.3 L 644.7,382.9 L 647.6,385.6 L 650.4,388.2 L 653.2,390.8 L 656.0,393.5 L 658.8,395.0 L 661.6,395.0 L 664.5,395.0 L 667.3,395.0 L 670.1,395.0 L 672.9,395.0 L 675.7,395.0 L 678.5,395.0 L 681.4,395.0 L 684.2,395.0 L 687.0,395.0" class="rho"/>
<path d="M 74.7,168.3 L 83.6,260.2 L 92.5,302.4 L 101.3,331.1 L 110.2,343.9 L 119.1,350.6 L 128.0,360.3 L 136.8,365.0 L 146.2,367.9 L 155.1,371.4 L 177.0,376.2 L 213.1,383.3 L 248.6,387.1 L 284.6,389.8 L 320.1,392.0 L 356.1,393.8 L 391.6,394.5 L 427.7,395.0 L 463.2,395.0 L 498.7,395.0 L 534.7,395.0 L 569.7,395.0 L 608.3,395.0 L 642.3,395.0" class="phot"/>
<path d="M 74.7,228.5 L 83.6,182.2 L 92.5,168.3 L 101.3,196.0 L 110.2,225.2 L 119.1,243.8 L 128.0,262.7 L 136.8,283.5 L 146.2,294.4 L 155.1,299.6 L 177.0,307.6 L 213.1,321.6 L 248.6,335.3 L 284.6,341.3 L 320.1,350.6 L 356.1,363.4 L 391.6,372.2 L 427.7,379.0 L 463.2,380.3 L 498.7,378.1 L 534.7,380.0 L 569.7,383.6 L 608.3,386.1 L 642.3,388.6" class="mbar"/>
<path d="M 74.7,192.6 L 83.6,174.1 L 92.5,168.3 L 101.3,178.1 L 110.2,188.9 L 119.1,196.8 L 128.0,205.8 L 136.8,216.2 L 146.2,222.6 L 155.1,226.8 L 177.0,232.9 L 213.1,243.8 L 248.6,255.1 L 284.6,261.4 L 320.1,271.2 L 356.1,284.7 L 391.6,296.0 L 427.7,306.3 L 463.2,310.3 L 498.7,309.8 L 534.7,314.1 L 569.7,320.8 L 608.3,326.2 L 642.3,331.7" class="mph"/>
<path d="M 76.2,332.6 L 82.3,310.7 L 88.5,296.9 L 94.7,287.9 L 100.8,282.5 L 107.0,278.2 L 113.2,273.2 L 119.4,267.9 L 125.5,262.5 L 131.7,257.1 L 137.9,251.7 L 144.0,246.4 L 150.2,241.3 L 156.4,236.2 L 162.6,231.3 L 168.7,226.5 L 174.9,221.7 L 181.1,217.1 L 187.2,212.6 L 193.4,208.2 L 199.6,204.1 L 205.7,200.2 L 211.9,196.6 L 218.1,193.1 L 224.3,189.8 L 230.4,186.7 L 236.6,183.7 L 242.8,180.8 L 248.9,178.0 L 255.1,175.2 L 261.3,172.5 L 267.4,169.9 L 273.6,167.3 L 279.8,164.8 L 286.0,162.3 L 292.1,159.9 L 298.3,157.5 L 304.5,155.2 L 310.6,153.0 L 316.8,150.8 L 323.0,148.7 L 329.1,146.6 L 335.3,144.5 L 341.5,142.5 L 347.7,140.6 L 353.8,138.6 L 360.0,136.8 L 366.2,135.0 L 372.3,133.2 L 378.5,131.5 L 384.7,129.8 L 390.8,128.1 L 397.0,126.5 L 403.2,124.9 L 409.4,123.4 L 415.5,121.9 L 421.7,120.5 L 427.9,119.0 L 434.0,117.7 L 440.2,116.3 L 446.4,115.0 L 452.5,113.7 L 458.7,112.5 L 464.9,111.3 L 471.1,110.1 L 477.2,109.0 L 483.4,107.9 L 489.6,106.9 L 495.7,105.8 L 501.9,104.8 L 508.1,103.9 L 514.2,102.9 L 520.4,102.0 L 526.6,101.2 L 532.8,100.3 L 538.9,99.5 L 545.1,98.7 L 551.3,98.0 L 557.4,97.3 L 563.6,96.6 L 569.8,95.9 L 575.9,95.3 L 582.1,94.7 L 588.3,94.1 L 594.4,93.6 L 600.6,93.1 L 606.8,92.6 L 613.0,92.2 L 619.1,91.7 L 625.3,91.4 L 631.5,91.4 L 637.6,91.7 L 643.8,92.4 L 650.0,93.4 L 656.2,94.7 L 662.3,96.3 L 668.5,97.8 L 674.7,99.3 L 680.8,100.8 L 687.0,102.3" class="nt"/>
<path d="M 74.7,348.2 L 83.6,303.7 L 92.5,276.0 L 101.3,258.0 L 110.2,244.3 L 119.1,232.6 L 128.0,222.3 L 136.8,215.3 L 146.2,207.7 L 155.1,201.0 L 177.0,185.8 L 213.1,164.5 L 248.6,151.4 L 284.6,134.9 L 320.1,123.0 L 356.1,116.2 L 391.6,109.8 L 427.7,107.1 L 463.2,103.9 L 498.7,97.9 L 534.7,93.2 L 569.7,90.5 L 608.3,87.0 L 642.3,85.9" class="mond"/>
<path d="M 75.1,365.4 L 80.3,344.3 L 85.4,323.5 L 90.6,306.2 L 95.7,293.2 L 100.8,284.1 L 106.0,278.1 L 111.1,274.4 L 116.3,272.0 L 121.4,270.1 L 126.6,268.3 L 131.7,266.0 L 136.8,263.4 L 142.0,260.2 L 147.1,256.4 L 152.3,252.1 L 157.4,247.2 L 162.6,241.8 L 167.7,236.0 L 172.8,229.7 L 178.0,223.2 L 183.1,216.4 L 188.3,209.7 L 193.4,203.1 L 198.5,196.9 L 203.7,191.1 L 208.8,185.9 L 214.0,181.2 L 219.1,177.1 L 224.3,173.5 L 229.4,170.4 L 234.5,167.7 L 239.7,165.3 L 244.8,163.1 L 250.0,160.9 L 255.1,158.9 L 260.2,156.8 L 265.4,154.7 L 270.5,152.7 L 275.7,150.6 L 280.8,148.5 L 286.0,146.4 L 291.1,144.4 L 296.2,142.4 L 301.4,140.4 L 306.5,138.4 L 311.7,136.5 L 316.8,134.6 L 321.9,132.7 L 327.1,130.9 L 332.2,129.1 L 337.4,127.4 L 342.5,125.7 L 347.7,124.1 L 352.8,122.5 L 357.9,121.0 L 363.1,119.6 L 368.2,118.1 L 373.4,116.8 L 378.5,115.5 L 383.6,114.2 L 388.8,113.0 L 393.9,111.8 L 399.1,110.7 L 404.2,109.7 L 409.4,108.7 L 414.5,107.7 L 419.6,106.8 L 424.8,106.0 L 429.9,105.2 L 435.1,104.5 L 440.2,103.8 L 445.3,103.1 L 450.5,102.5 L 455.6,102.0 L 460.8,101.5 L 465.9,101.0 L 471.1,100.6 L 476.2,100.2 L 481.3,99.9 L 486.5,99.6 L 491.6,99.3 L 496.8,99.1 L 501.9,98.9 L 507.0,98.7 L 512.2,98.6 L 517.3,98.4 L 522.5,98.3 L 527.6,98.2 L 532.8,98.1 L 537.9,98.0 L 543.0,97.9 L 548.2,97.7 L 553.3,97.5 L 558.5,97.3 L 563.6,97.0 L 568.7,96.6 L 573.9,96.1 L 579.0,95.6 L 584.2,94.8 L 589.3,94.0 L 594.4,92.9 L 599.6,91.8 L 604.7,90.6 L 609.9,89.4 L 615.0,88.6 L 620.2,88.3 L 625.3,89.0 L 630.4,90.8 L 635.6,93.9 L 640.7,98.2 L 645.9,103.5 L 651.0,109.7 L 656.2,116.4 L 661.3,123.2 L 666.4,130.1 L 671.6,136.6 L 676.7,143.0 L 681.9,148.9 L 687.0,154.5" class="fw"/>
<line x1="74.70" y1="352.11" x2="74.70" y2="365.22" class="err"/>
<line x1="71.70" y1="352.11" x2="77.70" y2="352.11" class="err"/>
<line x1="71.70" y1="365.22" x2="77.70" y2="365.22" class="err"/>
<circle cx="74.70" cy="358.66" r="2.5" class="obs"/>
<line x1="83.58" y1="305.68" x2="83.58" y2="312.36" class="err"/>
<line x1="80.58" y1="305.68" x2="86.58" y2="305.68" class="err"/>
<line x1="80.58" y1="312.36" x2="86.58" y2="312.36" class="err"/>
<circle cx="83.58" cy="309.02" r="2.5" class="obs"/>
<line x1="92.45" y1="282.32" x2="92.45" y2="289.00" class="err"/>
<line x1="89.45" y1="282.32" x2="95.45" y2="282.32" class="err"/>
<line x1="89.45" y1="289.00" x2="95.45" y2="289.00" class="err"/>
<circle cx="92.45" cy="285.66" r="2.5" class="obs"/>
<line x1="101.33" y1="285.27" x2="101.33" y2="292.54" class="err"/>
<line x1="98.33" y1="285.27" x2="104.33" y2="285.27" class="err"/>
<line x1="98.33" y1="292.54" x2="104.33" y2="292.54" class="err"/>
<circle cx="101.33" cy="288.90" r="2.5" class="obs"/>
<line x1="110.21" y1="282.32" x2="110.21" y2="289.00" class="err"/>
<line x1="107.21" y1="282.32" x2="113.21" y2="282.32" class="err"/>
<line x1="107.21" y1="289.00" x2="113.21" y2="289.00" class="err"/>
<circle cx="110.21" cy="285.66" r="2.5" class="obs"/>
<line x1="119.08" y1="271.90" x2="119.08" y2="286.44" class="err"/>
<line x1="116.08" y1="271.90" x2="122.08" y2="271.90" class="err"/>
<line x1="116.08" y1="286.44" x2="122.08" y2="286.44" class="err"/>
<circle cx="119.08" cy="279.17" r="2.5" class="obs"/>
<line x1="127.96" y1="261.49" x2="127.96" y2="283.23" class="err"/>
<line x1="124.96" y1="261.49" x2="130.96" y2="261.49" class="err"/>
<line x1="124.96" y1="283.23" x2="130.96" y2="283.23" class="err"/>
<circle cx="127.96" cy="272.36" r="2.5" class="obs"/>
<line x1="136.84" y1="248.51" x2="136.84" y2="270.25" class="err"/>
<line x1="133.84" y1="248.51" x2="139.84" y2="248.51" class="err"/>
<line x1="133.84" y1="270.25" x2="139.84" y2="270.25" class="err"/>
<circle cx="136.84" cy="259.38" r="2.5" class="obs"/>
<line x1="146.23" y1="245.62" x2="146.23" y2="259.51" class="err"/>
<line x1="143.23" y1="245.62" x2="149.23" y2="245.62" class="err"/>
<line x1="143.23" y1="259.51" x2="149.23" y2="259.51" class="err"/>
<circle cx="146.23" cy="252.57" r="2.5" class="obs"/>
<line x1="155.11" y1="245.27" x2="155.11" y2="253.38" class="err"/>
<line x1="152.11" y1="245.27" x2="158.11" y2="245.27" class="err"/>
<line x1="152.11" y1="253.38" x2="158.11" y2="253.38" class="err"/>
<circle cx="155.11" cy="249.32" r="2.5" class="obs"/>
<line x1="177.04" y1="217.20" x2="177.04" y2="227.58" class="err"/>
<line x1="174.04" y1="217.20" x2="180.04" y2="217.20" class="err"/>
<line x1="174.04" y1="227.58" x2="180.04" y2="227.58" class="err"/>
<circle cx="177.04" cy="222.39" r="2.5" class="obs"/>
<line x1="213.07" y1="183.46" x2="213.07" y2="189.30" class="err"/>
<line x1="210.07" y1="183.46" x2="216.07" y2="183.46" class="err"/>
<line x1="210.07" y1="189.30" x2="216.07" y2="189.30" class="err"/>
<circle cx="213.07" cy="186.38" r="2.5" class="obs"/>
<line x1="248.58" y1="150.04" x2="248.58" y2="165.61" class="err"/>
<line x1="245.58" y1="150.04" x2="251.58" y2="150.04" class="err"/>
<line x1="245.58" y1="165.61" x2="251.58" y2="165.61" class="err"/>
<circle cx="248.58" cy="157.83" r="2.5" class="obs"/>
<line x1="284.61" y1="133.49" x2="284.61" y2="162.04" class="err"/>
<line x1="281.61" y1="133.49" x2="287.61" y2="133.49" class="err"/>
<line x1="281.61" y1="162.04" x2="287.61" y2="162.04" class="err"/>
<circle cx="284.61" cy="147.77" r="2.5" class="obs"/>
<line x1="320.11" y1="128.30" x2="320.11" y2="152.96" class="err"/>
<line x1="317.11" y1="128.30" x2="323.11" y2="128.30" class="err"/>
<line x1="317.11" y1="152.96" x2="323.11" y2="152.96" class="err"/>
<circle cx="320.11" cy="140.63" r="2.5" class="obs"/>
<line x1="356.14" y1="115.32" x2="356.14" y2="135.44" class="err"/>
<line x1="353.14" y1="115.32" x2="359.14" y2="115.32" class="err"/>
<line x1="353.14" y1="135.44" x2="359.14" y2="135.44" class="err"/>
<circle cx="356.14" cy="125.38" r="2.5" class="obs"/>
<line x1="391.65" y1="99.75" x2="391.65" y2="119.22" class="err"/>
<line x1="388.65" y1="99.75" x2="394.65" y2="99.75" class="err"/>
<line x1="388.65" y1="119.22" x2="394.65" y2="119.22" class="err"/>
<circle cx="391.65" cy="109.48" r="2.5" class="obs"/>
<line x1="427.68" y1="95.53" x2="427.68" y2="111.10" class="err"/>
<line x1="424.68" y1="95.53" x2="430.68" y2="95.53" class="err"/>
<line x1="424.68" y1="111.10" x2="430.68" y2="111.10" class="err"/>
<circle cx="427.68" cy="103.32" r="2.5" class="obs"/>
<line x1="463.18" y1="91.96" x2="463.18" y2="110.13" class="err"/>
<line x1="460.18" y1="91.96" x2="466.18" y2="91.96" class="err"/>
<line x1="460.18" y1="110.13" x2="466.18" y2="110.13" class="err"/>
<circle cx="463.18" cy="101.05" r="2.5" class="obs"/>
<line x1="498.69" y1="89.37" x2="498.69" y2="106.24" class="err"/>
<line x1="495.69" y1="89.37" x2="501.69" y2="89.37" class="err"/>
<line x1="495.69" y1="106.24" x2="501.69" y2="106.24" class="err"/>
<circle cx="498.69" cy="97.80" r="2.5" class="obs"/>
<line x1="534.72" y1="90.99" x2="534.72" y2="100.07" class="err"/>
<line x1="531.72" y1="90.99" x2="537.72" y2="90.99" class="err"/>
<line x1="531.72" y1="100.07" x2="537.72" y2="100.07" class="err"/>
<circle cx="534.72" cy="95.53" r="2.5" class="obs"/>
<line x1="569.70" y1="96.83" x2="569.70" y2="103.32" class="err"/>
<line x1="566.70" y1="96.83" x2="572.70" y2="96.83" class="err"/>
<line x1="566.70" y1="103.32" x2="572.70" y2="103.32" class="err"/>
<circle cx="569.70" cy="100.07" r="2.5" class="obs"/>
<line x1="608.34" y1="95.53" x2="608.34" y2="113.05" class="err"/>
<line x1="605.34" y1="95.53" x2="611.34" y2="95.53" class="err"/>
<line x1="605.34" y1="113.05" x2="611.34" y2="113.05" class="err"/>
<circle cx="608.34" cy="104.29" r="2.5" class="obs"/>
<line x1="642.28" y1="96.18" x2="642.28" y2="113.70" class="err"/>
<line x1="639.28" y1="96.18" x2="645.28" y2="96.18" class="err"/>
<line x1="639.28" y1="113.70" x2="645.28" y2="113.70" class="err"/>
<circle cx="642.28" cy="104.94" r="2.5" class="obs"/>
<g class="legend">
<line x1="82" y1="69" x2="106" y2="69" class="fw"/>
<text x="112" y="73" class="lbl-l">framework: 2.4 km/s, 8.2%, 1.90σ</text>
<line x1="82" y1="87" x2="106" y2="87" class="nt"/>
<text x="112" y="91" class="lbl-l">Newtonian: 3.5 km/s, 11.9%, 1.76σ</text>
<line x1="82" y1="105" x2="106" y2="105" class="mond"/>
<text x="112" y="109" class="lbl-m">MOND/RAR: 8.2 km/s, 20.8%, 5.12σ</text>
<circle cx="94" cy="123" r="2.5" class="obs"/>
<text x="112" y="127" class="lbl">observed V±err</text>
</g>
<g class="legend">
<line x1="472" y1="69" x2="496" y2="69" class="rho"/>
<text x="502" y="73" class="lbl-r">ρ(r) raw</text>
<line x1="472" y1="87" x2="496" y2="87" class="phot"/>
<text x="502" y="91" class="lbl-p">photometric baryonic profile</text>
<line x1="472" y1="105" x2="496" y2="105" class="mbar"/>
<text x="502" y="109" class="lbl-m">MOND baryonic annulus</text>
<line x1="472" y1="123" x2="496" y2="123" class="mph"/>
<text x="502" y="127" class="lbl-m">MOND phantom annulus</text>
<text x="472" y="147" class="lbl-r">ρ peak: 252 M☉/pc²</text>
<text x="472" y="163" class="lbl-p">phot peak: 329.42 (arb.)</text>
<text x="472" y="179" class="lbl-m">Σbar peak: 104.99 M☉/pc²</text>
<text x="472" y="195" class="lbl-m">Σphantom peak: 122.58 M☉/pc²</text>
</g>
<rect x="775" y="55" width="170" height="170" class="preview-bg"/>
<defs><radialGradient id="g_NGC5585" cx="0.5" cy="0.5" r="0.5">
  <stop offset="0.0000" stop-color="rgb(255,64,64)"/>
  <stop offset="0.0313" stop-color="rgb(255,64,64)"/>
  <stop offset="0.0625" stop-color="rgb(188,47,47)"/>
  <stop offset="0.0938" stop-color="rgb(188,47,47)"/>
  <stop offset="0.1250" stop-color="rgb(188,47,47)"/>
  <stop offset="0.1563" stop-color="rgb(188,47,47)"/>
  <stop offset="0.1875" stop-color="rgb(188,47,47)"/>
  <stop offset="0.2188" stop-color="rgb(183,46,46)"/>
  <stop offset="0.2500" stop-color="rgb(175,44,44)"/>
  <stop offset="0.2813" stop-color="rgb(168,42,42)"/>
  <stop offset="0.3125" stop-color="rgb(165,41,41)"/>
  <stop offset="0.3438" stop-color="rgb(161,40,40)"/>
  <stop offset="0.3750" stop-color="rgb(158,40,40)"/>
  <stop offset="0.4063" stop-color="rgb(155,39,39)"/>
  <stop offset="0.4375" stop-color="rgb(152,38,38)"/>
  <stop offset="0.4688" stop-color="rgb(149,37,37)"/>
  <stop offset="0.5000" stop-color="rgb(146,37,37)"/>
  <stop offset="0.5313" stop-color="rgb(143,36,36)"/>
  <stop offset="0.5625" stop-color="rgb(139,35,35)"/>
  <stop offset="0.5938" stop-color="rgb(136,34,34)"/>
  <stop offset="0.6250" stop-color="rgb(133,33,33)"/>
  <stop offset="0.6563" stop-color="rgb(130,33,33)"/>
  <stop offset="0.6875" stop-color="rgb(127,32,32)"/>
  <stop offset="0.7188" stop-color="rgb(124,31,31)"/>
  <stop offset="0.7500" stop-color="rgb(121,30,30)"/>
  <stop offset="0.7813" stop-color="rgb(117,29,29)"/>
  <stop offset="0.8125" stop-color="rgb(114,29,29)"/>
  <stop offset="0.8438" stop-color="rgb(111,28,28)"/>
  <stop offset="0.8750" stop-color="rgb(108,27,27)"/>
  <stop offset="0.9063" stop-color="rgb(105,26,26)"/>
  <stop offset="0.9375" stop-color="rgb(102,26,26)"/>
  <stop offset="0.9688" stop-color="rgb(76,19,19)"/>
  <stop offset="1.0000" stop-color="rgb(0,0,0)"/>
</radialGradient></defs>
<circle cx="860" cy="140" r="81" fill="url(#g_NGC5585)"/>
<text x="860" y="49" text-anchor="middle" class="preview-lbl">face-on luminance from ρ(r)</text>
<text x="860" y="239" text-anchor="middle" class="preview-lbl">edge at r = 11.3 kpc</text>
</svg>