<svg xmlns="http://www.w3.org/2000/svg" viewBox="0 0 720 420" width="720" height="420" font-family="sans-serif" font-size="12">
<style>
  .ax { stroke: #333; stroke-width: 1; fill: none; }
  .grid { stroke: #ddd; stroke-width: 0.5; fill: none; }
  .lbl { fill: #333; }
  .lbl-l { fill: #0066cc; }
  .lbl-r { fill: #b03030; }
  .obs { fill: #222; }
  .err { stroke: #555; stroke-width: 0.8; fill: none; }
  .fw { stroke: #0066cc; stroke-width: 2.2; fill: none; }
  .nt { stroke: #cc6600; stroke-width: 1.6; fill: none; stroke-dasharray: 5,3; }
  .rho { stroke: #b03030; stroke-width: 2.0; fill: none; }
  .sig { stroke: #b03030; stroke-width: 1.6; fill: none; stroke-dasharray: 4,2; opacity: 0.85; }
  .title { fill: #111; font-size: 16px; font-weight: 600; }
  .subtitle { fill: #555; font-size: 11px; }
  .legend { font-size: 11px; }
</style>
<text x="360.0" y="22" text-anchor="middle" class="title">NGC5005</text>
<text x="360.0" y="38" text-anchor="middle" class="subtitle">rMax=11.5 kpc, N=18, RMS=11.7 km/s (4.6%), amp=405</text>
<line x1="70" y1="365.0" x2="635" y2="365.0" class="grid"/>
<text x="64" y="369.0" text-anchor="end" class="lbl-l">0</text>
<line x1="70" y1="303.0" x2="635" y2="303.0" class="grid"/>
<text x="64" y="307.0" text-anchor="end" class="lbl-l">74</text>
<line x1="70" y1="241.00000000000003" x2="635" y2="241.00000000000003" class="grid"/>
<text x="64" y="245.00000000000003" text-anchor="end" class="lbl-l">148</text>
<line x1="70" y1="179.0" x2="635" y2="179.0" class="grid"/>
<text x="64" y="183.0" text-anchor="end" class="lbl-l">223</text>
<line x1="70" y1="117.00000000000003" x2="635" y2="117.00000000000003" class="grid"/>
<text x="64" y="121.00000000000003" text-anchor="end" class="lbl-l">297</text>
<line x1="70" y1="55.0" x2="635" y2="55.0" class="grid"/>
<text x="64" y="59.0" text-anchor="end" class="lbl-l">371</text>
<text x="641" y="369.0" text-anchor="start" class="lbl-r">0.0</text>
<text x="641" y="327.6666666666667" text-anchor="start" class="lbl-r">0.2</text>
<text x="641" y="286.33333333333337" text-anchor="start" class="lbl-r">0.4</text>
<text x="641" y="245.00000000000003" text-anchor="start" class="lbl-r">0.6</text>
<text x="641" y="203.66666666666666" text-anchor="start" class="lbl-r">0.8</text>
<text x="641" y="162.33333333333334" text-anchor="start" class="lbl-r">1.0</text>
<line x1="70.0" y1="55" x2="70.0" y2="365" class="grid"/>
<text x="70.0" y="381" text-anchor="middle" class="lbl">0.0</text>
<line x1="164.16666666666666" y1="55" x2="164.16666666666666" y2="365" class="grid"/>
<text x="164.16666666666666" y="381" text-anchor="middle" class="lbl">2.8</text>
<line x1="258.3333333333333" y1="55" x2="258.3333333333333" y2="365" class="grid"/>
<text x="258.3333333333333" y="381" text-anchor="middle" class="lbl">5.6</text>
<line x1="352.5" y1="55" x2="352.5" y2="365" class="grid"/>
<text x="352.5" y="381" text-anchor="middle" class="lbl">8.4</text>
<line x1="446.66666666666663" y1="55" x2="446.66666666666663" y2="365" class="grid"/>
<text x="446.66666666666663" y="381" text-anchor="middle" class="lbl">11.2</text>
<line x1="540.8333333333334" y1="55" x2="540.8333333333334" y2="365" class="grid"/>
<text x="540.8333333333334" y="381" text-anchor="middle" class="lbl">14.0</text>
<line x1="635.0" y1="55" x2="635.0" y2="365" class="grid"/>
<text x="635.0" y="381" text-anchor="middle" class="lbl">16.8</text>
<text x="352.5" y="408" text-anchor="middle" class="lbl">radius (kpc)</text>
<text x="16" y="210.0" text-anchor="middle" class="lbl-l" transform="rotate(-90, 16, 210.0)">velocity (km/s)</text>
<text x="704" y="210.0" text-anchor="middle" class="lbl-r" transform="rotate(-90, 704, 210.0)">mass profile (normalized to peak)</text>
<rect x="70" y="55" width="565" height="310" class="ax"/>
<path d="M 70.0,158.3 L 72.6,174.3 L 75.2,190.3 L 77.7,206.3 L 80.3,222.2 L 82.9,238.2 L 85.5,254.2 L 88.1,270.2 L 90.6,286.1 L 93.2,302.1 L 95.8,307.1 L 98.4,307.1 L 101.0,307.1 L 103.5,307.1 L 106.1,307.1 L 108.7,307.1 L 111.3,307.1 L 113.9,307.1 L 116.4,307.3 L 119.0,307.8 L 121.6,308.3 L 124.2,308.9 L 126.8,309.4 L 129.3,310.0 L 131.9,310.5 L 134.5,311.0 L 137.1,311.6 L 139.7,312.1 L 142.2,312.7 L 144.8,313.2 L 147.4,313.7 L 150.0,314.3 L 152.6,314.8 L 155.1,315.4 L 157.7,315.9 L 160.3,316.4 L 162.9,317.0 L 165.5,317.5 L 168.0,318.1 L 170.6,318.6 L 173.2,319.1 L 175.8,319.7 L 178.4,320.2 L 180.9,320.8 L 183.5,321.3 L 186.1,321.8 L 188.7,322.4 L 191.3,322.9 L 193.8,323.5 L 196.4,324.0 L 199.0,324.5 L 201.6,325.1 L 204.2,325.6 L 206.7,326.2 L 209.3,326.5 L 211.9,326.7 L 214.5,326.9 L 217.1,327.1 L 219.6,327.3 L 222.2,327.5 L 224.8,327.7 L 227.4,327.9 L 230.0,328.0 L 232.5,328.2 L 235.1,328.4 L 237.7,328.6 L 240.3,328.8 L 242.9,329.0 L 245.4,329.2 L 248.0,329.3 L 250.6,329.5 L 253.2,329.7 L 255.8,329.9 L 258.3,330.1 L 260.9,330.3 L 263.5,330.5 L 266.1,330.7 L 268.7,330.8 L 271.2,331.0 L 273.8,331.2 L 276.4,331.4 L 279.0,331.6 L 281.6,331.8 L 284.1,332.0 L 286.7,332.1 L 289.3,332.3 L 291.9,332.5 L 294.5,332.7 L 297.0,332.9 L 299.6,333.1 L 302.2,333.3 L 304.8,333.5 L 307.4,333.6 L 309.9,333.8 L 312.5,334.0 L 315.1,334.2 L 317.7,334.4 L 320.3,334.6 L 322.8,334.8 L 325.4,334.9 L 328.0,335.1 L 330.6,335.3 L 333.2,335.5 L 335.7,335.7 L 338.3,335.9 L 340.9,336.1 L 343.5,336.2 L 346.1,336.4 L 348.6,336.6 L 351.2,336.8 L 353.8,337.0 L 356.4,337.2 L 358.9,337.4 L 361.5,337.6 L 364.1,337.7 L 366.7,337.9 L 369.3,338.1 L 371.8,338.3 L 374.4,338.5 L 377.0,338.7 L 379.6,338.9 L 382.2,339.0 L 384.7,339.2 L 387.3,339.4 L 389.9,339.6 L 392.5,339.8 L 395.1,340.0 L 397.6,340.2 L 400.2,340.4 L 402.8,340.5 L 405.4,340.7 L 408.0,340.9 L 410.5,341.1 L 413.1,341.3 L 415.7,341.5 L 418.3,341.7 L 420.9,341.8 L 423.4,342.0 L 426.0,342.2 L 428.6,342.4 L 431.2,342.6 L 433.8,342.8 L 436.3,343.0 L 438.9,343.2 L 441.5,343.3 L 444.1,343.5 L 446.7,343.7 L 449.2,343.9 L 451.8,344.1 L 454.4,344.3 L 457.0,344.5 L 459.6,344.6 L 462.1,344.8 L 464.7,345.0 L 467.3,345.2 L 469.9,345.4 L 472.5,345.6 L 475.0,345.8 L 477.6,345.9 L 480.2,346.1 L 482.8,346.3 L 485.4,346.5 L 487.9,346.7 L 490.5,346.9 L 493.1,347.1 L 495.7,347.3 L 498.3,347.4 L 500.8,347.6 L 503.4,347.9 L 506.0,348.3 L 508.6,348.7 L 511.2,349.1 L 513.7,349.6 L 516.3,350.0 L 518.9,350.4 L 521.5,350.8 L 524.1,351.3 L 526.6,351.7 L 529.2,352.1 L 531.8,352.5 L 534.4,352.9 L 537.0,353.4 L 539.5,353.8 L 542.1,354.2 L 544.7,354.6 L 547.3,355.1 L 549.9,355.5 L 552.4,355.9 L 555.0,356.3 L 557.6,356.7 L 560.2,357.2 L 562.8,357.6 L 565.3,358.0 L 567.9,358.4 L 570.5,358.9 L 573.1,359.3 L 575.7,359.7 L 578.2,360.1 L 580.8,360.5 L 583.4,361.0 L 586.0,361.4 L 588.6,361.8 L 591.1,362.2 L 593.7,362.6 L 596.3,363.1 L 598.9,363.5 L 601.5,363.9 L 604.0,364.3 L 606.6,364.8 L 609.2,365.0 L 611.8,365.0 L 614.4,365.0 L 616.9,365.0 L 619.5,365.0 L 622.1,365.0 L 624.7,365.0 L 627.3,365.0 L 629.8,365.0 L 632.4,365.0 L 635.0,365.0" class="rho"/>
<path d="M 70.0,158.3 L 72.6,159.2 L 75.2,160.9 L 77.7,163.4 L 80.3,166.7 L 82.9,170.5 L 85.5,174.6 L 88.1,179.0 L 90.6,183.4 L 93.2,187.7 L 95.8,191.8 L 98.4,195.6 L 101.0,199.3 L 103.5,202.6 L 106.1,205.8 L 108.7,208.7 L 111.3,211.4 L 113.9,214.0 L 116.4,216.5 L 119.0,218.8 L 121.6,221.1 L 124.2,223.3 L 126.8,225.4 L 129.3,227.4 L 131.9,229.5 L 134.5,231.4 L 137.1,233.3 L 139.7,235.2 L 142.2,237.1 L 144.8,238.9 L 147.4,240.7 L 150.0,242.4 L 152.6,244.2 L 155.1,245.9 L 157.7,247.6 L 160.3,249.3 L 162.9,250.9 L 165.5,252.5 L 168.0,254.1 L 170.6,255.7 L 173.2,257.3 L 175.8,258.8 L 178.4,260.4 L 180.9,261.9 L 183.5,263.3 L 186.1,264.8 L 188.7,266.2 L 191.3,267.6 L 193.8,269.0 L 196.4,270.3 L 199.0,271.7 L 201.6,273.0 L 204.2,274.2 L 206.7,275.5 L 209.3,276.7 L 211.9,277.9 L 214.5,279.0 L 217.1,280.2 L 219.6,281.3 L 222.2,282.3 L 224.8,283.4 L 227.4,284.4 L 230.0,285.5 L 232.5,286.5 L 235.1,287.4 L 237.7,288.4 L 240.3,289.3 L 242.9,290.3 L 245.4,291.2 L 248.0,292.1 L 250.6,293.0 L 253.2,293.9 L 255.8,294.7 L 258.3,295.6 L 260.9,296.4 L 263.5,297.2 L 266.1,298.1 L 268.7,298.9 L 271.2,299.7 L 273.8,300.5 L 276.4,301.2 L 279.0,302.0 L 281.6,302.8 L 284.1,303.5 L 286.7,304.3 L 289.3,305.0 L 291.9,305.7 L 294.5,306.5 L 297.0,307.2 L 299.6,307.9 L 302.2,308.6 L 304.8,309.3 L 307.4,310.0 L 309.9,310.6 L 312.5,311.3 L 315.1,312.0 L 317.7,312.6 L 320.3,313.3 L 322.8,313.9 L 325.4,314.6 L 328.0,315.2 L 330.6,315.8 L 333.2,316.5 L 335.7,317.1 L 338.3,317.7 L 340.9,318.3 L 343.5,318.9 L 346.1,319.5 L 348.6,320.1 L 351.2,320.6 L 353.8,321.2 L 356.4,321.8 L 358.9,322.4 L 361.5,322.9 L 364.1,323.5 L 366.7,324.0 L 369.3,324.6 L 371.8,325.1 L 374.4,325.7 L 377.0,326.2 L 379.6,326.7 L 382.2,327.2 L 384.7,327.7 L 387.3,328.3 L 389.9,328.8 L 392.5,329.3 L 395.1,329.8 L 397.6,330.3 L 400.2,330.7 L 402.8,331.2 L 405.4,331.7 L 408.0,332.2 L 410.5,332.6 L 413.1,333.1 L 415.7,333.6 L 418.3,334.0 L 420.9,334.5 L 423.4,334.9 L 426.0,335.3 L 428.6,335.8 L 431.2,336.2 L 433.8,336.6 L 436.3,337.1 L 438.9,337.5 L 441.5,337.9 L 444.1,338.3 L 446.7,338.7 L 449.2,339.1 L 451.8,339.5 L 454.4,339.9 L 457.0,340.3 L 459.6,340.7 L 462.1,341.1 L 464.7,341.5 L 467.3,341.8 L 469.9,342.2 L 472.5,342.6 L 475.0,342.9 L 477.6,343.3 L 480.2,343.7 L 482.8,344.0 L 485.4,344.4 L 487.9,344.7 L 490.5,345.1 L 493.1,345.4 L 495.7,345.8 L 498.3,346.1 L 500.8,346.4 L 503.4,346.8 L 506.0,347.1 L 508.6,347.4 L 511.2,347.8 L 513.7,348.1 L 516.3,348.4 L 518.9,348.7 L 521.5,349.1 L 524.1,349.4 L 526.6,349.7 L 529.2,350.0 L 531.8,350.3 L 534.4,350.5 L 537.0,350.8 L 539.5,351.1 L 542.1,351.4 L 544.7,351.6 L 547.3,351.9 L 549.9,352.1 L 552.4,352.4 L 555.0,352.6 L 557.6,352.8 L 560.2,353.0 L 562.8,353.3 L 565.3,353.5 L 567.9,353.7 L 570.5,353.9 L 573.1,354.1 L 575.7,354.2 L 578.2,354.4 L 580.8,354.6 L 583.4,354.7 L 586.0,354.9 L 588.6,355.1 L 591.1,355.2 L 593.7,355.4 L 596.3,355.5 L 598.9,355.6 L 601.5,355.8 L 604.0,355.9 L 606.6,356.0 L 609.2,356.1 L 611.8,356.3 L 614.4,356.4 L 616.9,356.5 L 619.5,356.6 L 622.1,356.7 L 624.7,356.8 L 627.3,356.9 L 629.8,357.0 L 632.4,357.1 L 635.0,357.2" class="sig"/>
<path d="M 75.7,281.9 L 81.3,255.2 L 87.0,240.7 L 92.6,234.3 L 98.2,232.1 L 103.9,228.2 L 109.5,223.3 L 115.2,217.8 L 120.8,212.2 L 126.5,206.8 L 132.2,201.5 L 137.8,196.5 L 143.4,191.8 L 149.1,187.2 L 154.8,182.9 L 160.4,178.8 L 166.1,174.9 L 171.7,171.2 L 177.3,167.7 L 183.0,164.4 L 188.6,161.3 L 194.3,158.3 L 200.0,155.5 L 205.6,152.9 L 211.2,150.5 L 216.9,148.1 L 222.6,145.7 L 228.2,143.3 L 233.8,141.0 L 239.5,138.7 L 245.2,136.4 L 250.8,134.2 L 256.5,132.1 L 262.1,130.0 L 267.8,127.9 L 273.4,125.8 L 279.1,123.9 L 284.7,121.9 L 290.4,120.0 L 296.0,118.2 L 301.6,116.4 L 307.3,114.6 L 312.9,112.9 L 318.6,111.2 L 324.2,109.6 L 329.9,108.0 L 335.6,106.5 L 341.2,105.0 L 346.9,103.5 L 352.5,102.1 L 358.1,100.7 L 363.8,99.4 L 369.4,98.1 L 375.1,96.8 L 380.7,95.6 L 386.4,94.4 L 392.1,93.3 L 397.7,92.2 L 403.3,91.1 L 409.0,90.1 L 414.6,89.1 L 420.3,88.2 L 425.9,87.3 L 431.6,86.4 L 437.2,85.6 L 442.9,84.8 L 448.6,84.0 L 454.2,83.3 L 459.9,82.6 L 465.5,82.0 L 471.1,81.4 L 476.8,80.8 L 482.5,80.2 L 488.1,79.7 L 493.8,79.3 L 499.4,78.8 L 505.0,78.4 L 510.7,78.1 L 516.4,77.9 L 522.0,77.8 L 527.6,77.8 L 533.3,77.9 L 539.0,78.1 L 544.6,78.4 L 550.2,78.8 L 555.9,79.3 L 561.5,79.8 L 567.2,80.5 L 572.9,81.3 L 578.5,82.2 L 584.1,83.2 L 589.8,84.2 L 595.4,85.4 L 601.1,86.7 L 606.8,88.1 L 612.4,89.5 L 618.1,90.9 L 623.7,92.3 L 629.4,93.7 L 635.0,95.1" class="nt"/>
<path d="M 74.7,312.9 L 79.4,270.0 L 84.1,234.6 L 88.8,209.9 L 93.5,195.2 L 98.2,188.1 L 103.0,185.5 L 107.7,184.7 L 112.4,184.0 L 117.1,182.7 L 121.8,180.7 L 126.5,178.1 L 131.2,175.0 L 135.9,171.7 L 140.6,168.3 L 145.3,164.8 L 150.0,161.4 L 154.8,158.2 L 159.5,155.1 L 164.2,152.2 L 168.9,149.6 L 173.6,147.3 L 178.3,145.3 L 183.0,143.7 L 187.7,142.5 L 192.4,141.8 L 197.1,141.6 L 201.8,141.8 L 206.5,142.5 L 211.2,143.4 L 216.0,144.3 L 220.7,145.3 L 225.4,146.1 L 230.1,146.8 L 234.8,147.3 L 239.5,147.6 L 244.2,147.9 L 248.9,148.0 L 253.6,148.1 L 258.3,148.1 L 263.0,148.0 L 267.8,147.9 L 272.5,147.8 L 277.2,147.6 L 281.9,147.4 L 286.6,147.2 L 291.3,147.0 L 296.0,146.8 L 300.7,146.6 L 305.4,146.4 L 310.1,146.2 L 314.8,146.1 L 319.5,145.9 L 324.2,145.8 L 329.0,145.7 L 333.7,145.6 L 338.4,145.5 L 343.1,145.5 L 347.8,145.5 L 352.5,145.5 L 357.2,145.6 L 361.9,145.7 L 366.6,145.8 L 371.3,146.0 L 376.0,146.2 L 380.7,146.4 L 385.5,146.7 L 390.2,147.0 L 394.9,147.3 L 399.6,147.7 L 404.3,148.1 L 409.0,148.5 L 413.7,149.0 L 418.4,149.4 L 423.1,150.0 L 427.8,150.5 L 432.5,151.1 L 437.2,151.6 L 442.0,152.2 L 446.7,152.8 L 451.4,153.5 L 456.1,154.1 L 460.8,154.6 L 465.5,155.2 L 470.2,155.7 L 474.9,156.2 L 479.6,156.6 L 484.3,156.9 L 489.0,157.1 L 493.8,157.2 L 498.5,157.4 L 503.2,157.6 L 507.9,158.0 L 512.6,158.8 L 517.3,160.0 L 522.0,161.7 L 526.7,163.8 L 531.4,166.3 L 536.1,169.1 L 540.8,172.3 L 545.5,175.7 L 550.2,179.4 L 555.0,183.2 L 559.7,187.2 L 564.4,191.3 L 569.1,195.5 L 573.8,199.6 L 578.5,203.8 L 583.2,207.8 L 587.9,211.8 L 592.6,215.5 L 597.3,219.1 L 602.0,222.5 L 606.8,225.6 L 611.5,228.5 L 616.2,231.2 L 620.9,233.7 L 625.6,236.1 L 630.3,238.3 L 635.0,240.4" class="fw"/>
<line x1="86.45653899687277" y1="155.16924399137744" x2="86.45653899687277" y2="222.18806769464916" class="err"/>
<line x1="83.45653899687277" y1="155.16924399137744" x2="89.45653899687277" y2="155.16924399137744" class="err"/>
<line x1="83.45653899687277" y1="222.18806769464916" x2="89.45653899687277" y2="222.18806769464916" class="err"/>
<circle cx="86.45653899687277" cy="188.6786558430133" r="2.5" class="obs"/>
<line x1="102.91307799374553" y1="155.7541963179646" x2="102.91307799374553" y2="184.83468341115483" class="err"/>
<line x1="99.91307799374553" y1="155.7541963179646" x2="105.91307799374553" y2="155.7541963179646" class="err"/>
<line x1="99.91307799374553" y1="184.83468341115483" x2="105.91307799374553" y2="184.83468341115483" class="err"/>
<circle cx="102.91307799374553" cy="170.2944398645597" r="2.5" class="obs"/>
<line x1="119.36961699061828" y1="163.2750119455138" x2="119.36961699061828" y2="187.34162195367122" class="err"/>
<line x1="116.36961699061828" y1="163.2750119455138" x2="122.36961699061828" y2="163.2750119455138" class="err"/>
<line x1="116.36961699061828" y1="187.34162195367122" x2="122.36961699061828" y2="187.34162195367122" class="err"/>
<circle cx="119.36961699061828" cy="175.3083169495925" r="2.5" class="obs"/>
<line x1="136.1620037221211" y1="160.43381493066187" x2="136.1620037221211" y2="178.48377243677993" class="err"/>
<line x1="133.1620037221211" y1="160.43381493066187" x2="139.1620037221211" y2="160.43381493066187" class="err"/>
<line x1="133.1620037221211" y1="178.48377243677993" x2="139.1620037221211" y2="178.48377243677993" class="err"/>
<circle cx="136.1620037221211" cy="169.4587936837209" r="2.5" class="obs"/>
<line x1="152.61854271899387" y1="153.85727948746052" x2="152.61854271899387" y2="166.67609190152768" class="err"/>
<line x1="149.61854271899387" y1="153.85727948746052" x2="155.61854271899387" y2="153.85727948746052" class="err"/>
<line x1="149.61854271899387" y1="166.67609190152768" x2="155.61854271899387" y2="166.67609190152768" class="err"/>
<circle cx="152.61854271899387" cy="160.2666856944941" r="2.5" class="obs"/>
<line x1="169.07508171586665" y1="141.63177586178887" x2="169.07508171586665" y2="180.57288788887695" class="err"/>
<line x1="166.07508171586665" y1="141.63177586178887" x2="172.07508171586665" y2="141.63177586178887" class="err"/>
<line x1="166.07508171586665" y1="180.57288788887695" x2="172.07508171586665" y2="180.57288788887695" class="err"/>
<circle cx="169.07508171586665" cy="161.10233187533288" r="2.5" class="obs"/>
<line x1="185.5316207127394" y1="127.42579078752928" x2="185.5316207127394" y2="166.36690281461736" class="err"/>
<line x1="182.5316207127394" y1="127.42579078752928" x2="188.5316207127394" y2="127.42579078752928" class="err"/>
<line x1="182.5316207127394" y1="166.36690281461736" x2="188.5316207127394" y2="166.36690281461736" class="err"/>
<circle cx="185.5316207127394" cy="146.89634680107332" r="2.5" class="obs"/>
<line x1="201.98815970961218" y1="129.59847085771017" x2="201.98815970961218" y2="167.53680746779165" class="err"/>
<line x1="198.98815970961218" y1="129.59847085771017" x2="204.98815970961218" y2="129.59847085771017" class="err"/>
<line x1="198.98815970961218" y1="167.53680746779165" x2="204.98815970961218" y2="167.53680746779165" class="err"/>
<circle cx="201.98815970961218" cy="148.5676391627509" r="2.5" class="obs"/>
<line x1="218.44469870648493" y1="130.43411703854898" x2="218.44469870648493" y2="168.37245364863045" class="err"/>
<line x1="215.44469870648493" y1="130.43411703854898" x2="221.44469870648493" y2="130.43411703854898" class="err"/>
<line x1="215.44469870648493" y1="168.37245364863045" x2="221.44469870648493" y2="168.37245364863045" class="err"/>
<circle cx="218.44469870648493" cy="149.40328534358972" r="2.5" class="obs"/>
<line x1="235.23708543798776" y1="130.60124627471671" x2="235.23708543798776" y2="168.20532441246272" class="err"/>
<line x1="232.23708543798776" y1="130.60124627471671" x2="238.23708543798776" y2="130.60124627471671" class="err"/>
<line x1="232.23708543798776" y1="168.20532441246272" x2="238.23708543798776" y2="168.20532441246272" class="err"/>
<circle cx="235.23708543798776" cy="149.40328534358972" r="2.5" class="obs"/>
<line x1="262.77659967765237" y1="128.1778723502842" x2="262.77659967765237" y2="165.61482125186245" class="err"/>
<line x1="259.77659967765237" y1="128.1778723502842" x2="265.77659967765237" y2="128.1778723502842" class="err"/>
<line x1="259.77659967765237" y1="165.61482125186245" x2="265.77659967765237" y2="165.61482125186245" class="err"/>
<circle cx="262.77659967765237" cy="146.89634680107332" r="2.5" class="obs"/>
<line x1="290.31611391731695" y1="126.50657998860663" x2="290.31611391731695" y2="163.94352889018484" class="err"/>
<line x1="287.31611391731695" y1="126.50657998860663" x2="293.31611391731695" y2="126.50657998860663" class="err"/>
<line x1="287.31611391731695" y1="163.94352889018484" x2="293.31611391731695" y2="163.94352889018484" class="err"/>
<circle cx="290.31611391731695" cy="145.22505443939573" r="2.5" class="obs"/>
<line x1="317.5197804223516" y1="125.75449842585166" x2="317.5197804223516" y2="163.02431809126216" class="err"/>
<line x1="314.5197804223516" y1="125.75449842585166" x2="320.5197804223516" y2="125.75449842585166" class="err"/>
<line x1="314.5197804223516" y1="163.02431809126216" x2="320.5197804223516" y2="163.02431809126216" class="err"/>
<circle cx="317.5197804223516" cy="144.38940825855693" r="2.5" class="obs"/>
<line x1="345.05929466201616" y1="125.00241686309677" x2="345.05929466201616" y2="162.10510729233943" class="err"/>
<line x1="342.05929466201616" y1="125.00241686309677" x2="348.05929466201616" y2="125.00241686309677" class="err"/>
<line x1="342.05929466201616" y1="162.10510729233943" x2="348.05929466201616" y2="162.10510729233943" class="err"/>
<circle cx="345.05929466201616" cy="143.55376207771812" r="2.5" class="obs"/>
<line x1="372.5988089016808" y1="125.00241686309677" x2="372.5988089016808" y2="162.10510729233943" class="err"/>
<line x1="369.5988089016808" y1="125.00241686309677" x2="375.5988089016808" y2="125.00241686309677" class="err"/>
<line x1="369.5988089016808" y1="162.10510729233943" x2="375.5988089016808" y2="162.10510729233943" class="err"/>
<circle cx="372.5988089016808" cy="143.55376207771812" r="2.5" class="obs"/>
<line x1="400.13832314134544" y1="126.00519228010332" x2="400.13832314134544" y2="162.7736242370105" class="err"/>
<line x1="397.13832314134544" y1="126.00519228010332" x2="403.13832314134544" y2="126.00519228010332" class="err"/>
<line x1="397.13832314134544" y1="162.7736242370105" x2="403.13832314134544" y2="162.7736242370105" class="err"/>
<circle cx="400.13832314134544" cy="144.38940825855693" r="2.5" class="obs"/>
<line x1="427.67783738101" y1="126.08875689818721" x2="427.67783738101" y2="162.69005961892663" class="err"/>
<line x1="424.67783738101" y1="126.08875689818721" x2="430.67783738101" y2="126.08875689818721" class="err"/>
<line x1="424.67783738101" y1="162.69005961892663" x2="430.67783738101" y2="162.69005961892663" class="err"/>
<circle cx="427.67783738101" cy="144.38940825855693" r="2.5" class="obs"/>
<line x1="455.21735162067466" y1="125.16954609926454" x2="455.21735162067466" y2="161.9379780561717" class="err"/>
<line x1="452.21735162067466" y1="125.16954609926454" x2="458.21735162067466" y2="125.16954609926454" class="err"/>
<line x1="452.21735162067466" y1="161.9379780561717" x2="458.21735162067466" y2="161.9379780561717" class="err"/>
<circle cx="455.21735162067466" cy="143.55376207771812" r="2.5" class="obs"/>
<g class="legend">
<line x1="82" y1="69" x2="106" y2="69" class="fw"/>
<text x="112" y="73" class="lbl-l">framework fit</text>
<line x1="82" y1="87" x2="106" y2="87" class="nt"/>
<text x="112" y="91" class="lbl-l">Newtonian (no halo)</text>
<circle cx="94" cy="105" r="2.5" class="obs"/>
<text x="112" y="109" class="lbl">observed V±err</text>
</g>
<g class="legend">
<line x1="460" y1="69" x2="484" y2="69" class="rho"/>
<text x="490" y="73" class="lbl-r">ρ(r) raw</text>
<line x1="460" y1="87" x2="484" y2="87" class="sig"/>
<text x="490" y="91" class="lbl-r">Σ(r) smoothed</text>
<text x="460" y="113" class="lbl-r">ρ peak: 4906 M☉/pc²</text>
</g>
</svg>