<svg xmlns="http://www.w3.org/2000/svg" viewBox="0 0 960 450" width="960" height="450" font-family="sans-serif" font-size="12">
<style>
  .ax { stroke: #333; stroke-width: 1; fill: none; }
  .grid { stroke: #ddd; stroke-width: 0.5; fill: none; }
  .lbl { fill: #333; }
  .lbl-l { fill: #0066cc; }
  .lbl-r { fill: #b03030; }
  .obs { fill: #222; }
  .err { stroke: #555; stroke-width: 0.8; fill: none; }
  .fw { stroke: #0066cc; stroke-width: 2.2; fill: none; }
  .nt { stroke: #cc6600; stroke-width: 1.6; fill: none; stroke-dasharray: 5,3; }
  .mond { stroke: #7b2cbf; stroke-width: 1.8; fill: none; stroke-dasharray: 7,3; }
  .lbl-p { fill: #cc7000; }
  .lbl-m { fill: #7b2cbf; }
  .rho { stroke: #b03030; stroke-width: 2.0; fill: none; }
  .phot { stroke: #cc7000; stroke-width: 1.8; fill: none; }
  .mbar { stroke: #8e44ad; stroke-width: 1.8; fill: none; opacity: 0.9; }
  .mph { stroke: #c77dff; stroke-width: 1.6; fill: none; stroke-dasharray: 4,3; opacity: 0.95; }
  .title { fill: #111; font-size: 16px; font-weight: 600; }
  .subtitle { fill: #555; font-size: 11px; }
  .preview-bg { fill: #000; }
  .preview-lbl { fill: #888; font-size: 10px; }
  .legend { font-size: 11px; }
</style>
<text x="378.5" y="22" text-anchor="middle" class="title">NGC6195</text>
<text x="378.5" y="38" text-anchor="middle" class="subtitle">rMax=36.4 kpc, N=23, FW=14.1 km/s, 6.3%, 2.55σ, MOND=33.3 km/s, 13.8%, 5.15σ, amp=382</text>
<line x1="70" y1="395.0" x2="687" y2="395.0" class="grid"/>
<text x="64" y="399.0" text-anchor="end" class="lbl-l">0</text>
<line x1="70" y1="327.0" x2="687" y2="327.0" class="grid"/>
<text x="64" y="331.0" text-anchor="end" class="lbl-l">77</text>
<line x1="70" y1="259.0" x2="687" y2="259.0" class="grid"/>
<text x="64" y="263.0" text-anchor="end" class="lbl-l">154</text>
<line x1="70" y1="191.0" x2="687" y2="191.0" class="grid"/>
<text x="64" y="195.0" text-anchor="end" class="lbl-l">231</text>
<line x1="70" y1="123.0" x2="687" y2="123.0" class="grid"/>
<text x="64" y="127.0" text-anchor="end" class="lbl-l">308</text>
<line x1="70" y1="55.0" x2="687" y2="55.0" class="grid"/>
<text x="64" y="59.0" text-anchor="end" class="lbl-l">385</text>
<text x="693" y="399.0" text-anchor="start" class="lbl-r">0.0</text>
<text x="693" y="353.7" text-anchor="start" class="lbl-r">0.2</text>
<text x="693" y="308.3" text-anchor="start" class="lbl-r">0.4</text>
<text x="693" y="263.0" text-anchor="start" class="lbl-r">0.6</text>
<text x="693" y="217.7" text-anchor="start" class="lbl-r">0.8</text>
<text x="693" y="172.3" text-anchor="start" class="lbl-r">1.0</text>
<line x1="70.0" y1="55" x2="70.0" y2="395" class="grid"/>
<text x="70.0" y="411" text-anchor="middle" class="lbl">0.0</text>
<line x1="172.8" y1="55" x2="172.8" y2="395" class="grid"/>
<text x="172.8" y="411" text-anchor="middle" class="lbl">8.1</text>
<line x1="275.7" y1="55" x2="275.7" y2="395" class="grid"/>
<text x="275.7" y="411" text-anchor="middle" class="lbl">16.2</text>
<line x1="378.5" y1="55" x2="378.5" y2="395" class="grid"/>
<text x="378.5" y="411" text-anchor="middle" class="lbl">24.3</text>
<line x1="481.3" y1="55" x2="481.3" y2="395" class="grid"/>
<text x="481.3" y="411" text-anchor="middle" class="lbl">32.5</text>
<line x1="584.2" y1="55" x2="584.2" y2="395" class="grid"/>
<text x="584.2" y="411" text-anchor="middle" class="lbl">40.6</text>
<line x1="687.0" y1="55" x2="687.0" y2="395" class="grid"/>
<text x="687.0" y="411" text-anchor="middle" class="lbl">48.7</text>
<text x="378.5" y="438" text-anchor="middle" class="lbl">radius (kpc)</text>
<text x="16" y="225" text-anchor="middle" class="lbl-l" transform="rotate(-90, 16, 225)">velocity (km/s)</text>
<text x="724" y="225" text-anchor="middle" class="lbl-r" transform="rotate(-90, 724, 225)">profiles (normalized to peak)</text>
<rect x="70" y="55" width="617" height="340" class="ax"/>
<path d="M 70.0,168.3 L 72.8,177.8 L 75.6,187.2 L 78.5,196.7 L 81.3,206.1 L 84.1,215.5 L 86.9,225.0 L 89.7,234.4 L 92.5,243.9 L 95.4,253.3 L 98.2,262.8 L 101.0,272.2 L 103.8,281.6 L 106.6,291.1 L 109.4,300.5 L 112.3,310.0 L 115.1,319.4 L 117.9,328.5 L 120.7,328.5 L 123.5,328.5 L 126.3,328.5 L 129.2,328.5 L 132.0,328.5 L 134.8,328.5 L 137.6,328.5 L 140.4,328.5 L 143.3,328.5 L 146.1,328.5 L 148.9,328.5 L 151.7,328.5 L 154.5,328.5 L 157.3,328.5 L 160.2,328.5 L 163.0,328.5 L 165.8,328.7 L 168.6,329.1 L 171.4,329.4 L 174.2,329.8 L 177.1,330.1 L 179.9,330.5 L 182.7,330.8 L 185.5,331.2 L 188.3,331.5 L 191.1,331.8 L 194.0,332.2 L 196.8,332.5 L 199.6,332.9 L 202.4,333.2 L 205.2,333.6 L 208.1,333.9 L 210.9,334.3 L 213.7,334.6 L 216.5,335.0 L 219.3,335.3 L 222.1,335.7 L 225.0,336.0 L 227.8,336.3 L 230.6,336.7 L 233.4,337.0 L 236.2,337.4 L 239.0,337.7 L 241.9,338.1 L 244.7,338.4 L 247.5,338.8 L 250.3,339.1 L 253.1,339.5 L 255.9,339.8 L 258.8,340.2 L 261.6,340.5 L 264.4,340.9 L 267.2,341.2 L 270.0,341.5 L 272.8,341.9 L 275.7,342.2 L 278.5,342.6 L 281.3,342.9 L 284.1,343.3 L 286.9,343.6 L 289.8,344.0 L 292.6,344.3 L 295.4,344.7 L 298.2,345.0 L 301.0,345.3 L 303.8,345.4 L 306.7,345.5 L 309.5,345.6 L 312.3,345.7 L 315.1,345.8 L 317.9,346.0 L 320.7,346.1 L 323.6,346.2 L 326.4,346.3 L 329.2,346.4 L 332.0,346.5 L 334.8,346.6 L 337.6,346.7 L 340.5,346.8 L 343.3,346.9 L 346.1,347.1 L 348.9,347.2 L 351.7,347.3 L 354.6,347.4 L 357.4,347.5 L 360.2,347.6 L 363.0,347.7 L 365.8,347.8 L 368.6,347.9 L 371.5,348.1 L 374.3,348.2 L 377.1,348.3 L 379.9,348.4 L 382.7,348.5 L 385.5,348.6 L 388.4,348.7 L 391.2,348.8 L 394.0,348.9 L 396.8,349.0 L 399.6,349.2 L 402.4,349.3 L 405.3,349.4 L 408.1,349.5 L 410.9,349.6 L 413.7,349.7 L 416.5,349.8 L 419.4,349.9 L 422.2,350.0 L 425.0,350.2 L 427.8,350.3 L 430.6,350.4 L 433.4,350.5 L 436.3,350.6 L 439.1,350.7 L 441.9,350.8 L 444.7,350.9 L 447.5,351.0 L 450.3,351.2 L 453.2,351.3 L 456.0,351.4 L 458.8,351.5 L 461.6,351.6 L 464.4,351.7 L 467.2,351.8 L 470.1,351.9 L 472.9,352.0 L 475.7,352.1 L 478.5,352.3 L 481.3,352.4 L 484.2,352.5 L 487.0,352.6 L 489.8,352.7 L 492.6,352.8 L 495.4,352.9 L 498.2,353.0 L 501.1,353.1 L 503.9,353.3 L 506.7,353.4 L 509.5,353.5 L 512.3,353.6 L 515.1,353.7 L 518.0,353.8 L 520.8,353.9 L 523.6,354.0 L 526.4,354.1 L 529.2,354.3 L 532.0,354.4 L 534.9,354.5 L 537.7,354.6 L 540.5,354.7 L 543.3,354.8 L 546.1,354.9 L 548.9,355.0 L 551.8,355.1 L 554.6,355.2 L 557.4,355.4 L 560.2,355.5 L 563.0,355.6 L 565.9,355.7 L 568.7,355.8 L 571.5,355.9 L 574.3,356.0 L 577.1,356.1 L 579.9,356.2 L 582.8,356.4 L 585.6,356.5 L 588.4,356.6 L 591.2,356.7 L 594.0,356.8 L 596.8,357.0 L 599.7,358.7 L 602.5,360.5 L 605.3,362.2 L 608.1,364.0 L 610.9,365.8 L 613.7,367.5 L 616.6,369.3 L 619.4,371.1 L 622.2,372.8 L 625.0,374.6 L 627.8,376.4 L 630.7,378.1 L 633.5,379.9 L 636.3,381.6 L 639.1,383.4 L 641.9,385.2 L 644.7,386.9 L 647.6,388.7 L 650.4,390.5 L 653.2,392.2 L 656.0,394.0 L 658.8,395.0 L 661.6,395.0 L 664.5,395.0 L 667.3,395.0 L 670.1,395.0 L 672.9,395.0 L 675.7,395.0 L 678.5,395.0 L 681.4,395.0 L 684.2,395.0 L 687.0,395.0" class="rho"/>
<path d="M 86.9,168.3 L 99.7,288.5 L 112.2,327.0 L 125.0,350.3 L 137.8,361.4 L 150.4,370.1 L 163.0,377.1 L 175.4,381.9 L 188.4,384.0 L 201.6,385.6 L 214.0,387.1 L 226.4,388.0 L 238.8,388.3 L 251.2,388.7 L 266.1,389.5 L 277.2,390.3 L 297.1,391.0 L 312.1,391.6 L 355.4,393.3 L 400.2,394.2 L 443.6,394.5 L 488.2,394.6 L 531.7,394.7" class="phot"/>
<path d="M 86.9,168.3 L 99.7,238.0 L 112.2,299.6 L 125.0,329.1 L 137.8,344.5 L 150.4,353.2 L 163.0,361.0 L 175.4,369.4 L 188.4,374.8 L 201.6,377.0 L 214.0,379.1 L 226.4,380.8 L 238.8,380.2 L 251.2,378.8 L 266.1,379.0 L 277.2,381.2 L 297.1,383.1 L 312.1,385.0 L 355.4,388.9 L 400.2,393.0 L 443.6,394.8 L 488.2,394.7 L 531.7,394.2" class="mbar"/>
<path d="M 86.9,216.7 L 99.7,192.5 L 112.2,173.2 L 125.0,168.3 L 137.8,170.2 L 150.4,174.5 L 163.0,180.2 L 175.4,187.3 L 188.4,194.7 L 201.6,201.3 L 214.0,207.9 L 226.4,213.6 L 238.8,216.2 L 251.2,217.0 L 266.1,219.4 L 277.2,224.9 L 297.1,230.5 L 312.1,237.7 L 355.4,253.3 L 400.2,275.2 L 443.6,293.8 L 488.2,303.4 L 531.7,305.6" class="mph"/>
<path d="M 76.2,320.3 L 82.3,292.8 L 88.5,274.3 L 94.7,260.9 L 100.9,251.2 L 107.0,244.5 L 113.2,240.5 L 119.4,238.7 L 125.5,236.8 L 131.7,234.3 L 137.9,231.3 L 144.0,227.9 L 150.2,224.3 L 156.4,220.6 L 162.6,216.8 L 168.7,213.0 L 174.9,209.2 L 181.1,205.5 L 187.2,201.9 L 193.4,198.4 L 199.6,195.0 L 205.7,191.7 L 211.9,188.4 L 218.1,185.3 L 224.3,182.2 L 230.4,179.2 L 236.6,176.3 L 242.8,173.5 L 248.9,170.8 L 255.1,168.1 L 261.3,165.6 L 267.4,163.1 L 273.6,160.7 L 279.8,158.3 L 286.0,156.0 L 292.1,153.8 L 298.3,151.7 L 304.5,149.6 L 310.6,147.6 L 316.8,145.5 L 323.0,143.5 L 329.1,141.5 L 335.3,139.5 L 341.5,137.5 L 347.6,135.5 L 353.8,133.6 L 360.0,131.7 L 366.2,129.8 L 372.3,127.9 L 378.5,126.0 L 384.7,124.2 L 390.8,122.3 L 397.0,120.5 L 403.2,118.7 L 409.4,117.0 L 415.5,115.2 L 421.7,113.5 L 427.9,111.8 L 434.0,110.1 L 440.2,108.4 L 446.4,106.8 L 452.5,105.1 L 458.7,103.5 L 464.9,101.9 L 471.1,100.4 L 477.2,98.8 L 483.4,97.3 L 489.6,95.8 L 495.7,94.3 L 501.9,92.8 L 508.1,91.3 L 514.2,89.9 L 520.4,88.5 L 526.6,87.1 L 532.8,85.7 L 538.9,84.3 L 545.1,82.9 L 551.3,81.6 L 557.4,80.3 L 563.6,79.0 L 569.8,77.7 L 575.9,76.4 L 582.1,75.2 L 588.3,74.0 L 594.4,72.7 L 600.6,71.6 L 606.8,70.7 L 613.0,70.2 L 619.1,69.9 L 625.3,69.9 L 631.5,70.2 L 637.6,70.9 L 643.8,71.8 L 650.0,72.9 L 656.2,74.4 L 662.3,76.1 L 668.5,77.7 L 674.7,79.3 L 680.8,80.9 L 687.0,82.5" class="nt"/>
<path d="M 86.9,211.8 L 99.7,187.4 L 112.2,177.7 L 125.0,170.4 L 137.8,165.8 L 150.4,160.4 L 163.0,156.5 L 175.4,154.7 L 188.4,154.1 L 201.6,152.2 L 214.0,150.9 L 226.4,150.0 L 238.8,147.8 L 251.2,144.6 L 266.1,140.2 L 277.2,138.1 L 297.1,134.9 L 312.1,132.5 L 355.4,130.6 L 400.2,135.1 L 443.6,140.6 L 488.2,144.7 L 531.7,145.2" class="mond"/>
<path d="M 75.1,349.7 L 80.3,312.1 L 85.4,276.1 L 90.6,245.1 L 95.7,219.9 L 100.8,200.8 L 106.0,187.5 L 111.1,179.6 L 116.3,176.4 L 121.4,176.8 L 126.6,179.4 L 131.7,182.9 L 136.8,186.5 L 142.0,189.7 L 147.1,192.2 L 152.3,193.9 L 157.4,194.8 L 162.6,195.1 L 167.7,194.8 L 172.8,194.0 L 178.0,192.9 L 183.1,191.7 L 188.3,190.3 L 193.4,188.9 L 198.5,187.4 L 203.7,185.9 L 208.8,184.4 L 214.0,182.9 L 219.1,181.5 L 224.3,180.1 L 229.4,178.8 L 234.5,177.6 L 239.7,176.4 L 244.8,175.4 L 250.0,174.6 L 255.1,173.8 L 260.2,173.3 L 265.4,172.9 L 270.5,172.7 L 275.7,172.7 L 280.8,173.0 L 286.0,173.5 L 291.1,174.3 L 296.2,175.3 L 301.4,176.5 L 306.5,177.7 L 311.7,178.8 L 316.8,179.9 L 321.9,180.9 L 327.1,181.7 L 332.2,182.3 L 337.4,182.8 L 342.5,183.2 L 347.7,183.5 L 352.8,183.7 L 357.9,183.7 L 363.1,183.7 L 368.2,183.6 L 373.4,183.5 L 378.5,183.2 L 383.6,182.9 L 388.8,182.6 L 393.9,182.2 L 399.1,181.7 L 404.2,181.1 L 409.3,180.5 L 414.5,179.9 L 419.6,179.2 L 424.8,178.5 L 429.9,177.7 L 435.1,176.8 L 440.2,175.9 L 445.3,175.0 L 450.5,174.0 L 455.6,172.9 L 460.8,171.8 L 465.9,170.6 L 471.1,169.3 L 476.2,168.0 L 481.3,166.6 L 486.5,165.1 L 491.6,163.5 L 496.8,161.8 L 501.9,160.0 L 507.0,158.0 L 512.2,156.0 L 517.3,153.7 L 522.5,151.3 L 527.6,148.7 L 532.8,145.8 L 537.9,142.7 L 543.0,139.4 L 548.2,135.7 L 553.3,131.6 L 558.5,127.1 L 563.6,122.2 L 568.7,116.8 L 573.9,110.8 L 579.0,104.4 L 584.2,97.6 L 589.3,90.8 L 594.4,84.4 L 599.6,79.0 L 604.7,75.2 L 609.9,73.4 L 615.0,73.8 L 620.2,76.2 L 625.3,80.6 L 630.4,86.7 L 635.6,94.0 L 640.7,102.2 L 645.9,111.0 L 651.0,120.1 L 656.1,129.1 L 661.3,137.7 L 666.4,145.9 L 671.6,153.5 L 676.7,160.6 L 681.9,167.1 L 687.0,173.1" class="fw"/>
<line x1="86.86" y1="228.58" x2="86.86" y2="252.58" class="err"/>
<line x1="83.86" y1="228.58" x2="89.86" y2="228.58" class="err"/>
<line x1="83.86" y1="252.58" x2="89.86" y2="252.58" class="err"/>
<circle cx="86.86" cy="240.58" r="2.5" class="obs"/>
<line x1="99.66" y1="182.65" x2="99.66" y2="189.09" class="err"/>
<line x1="96.66" y1="182.65" x2="102.66" y2="182.65" class="err"/>
<line x1="96.66" y1="189.09" x2="102.66" y2="189.09" class="err"/>
<circle cx="99.66" cy="185.87" r="2.5" class="obs"/>
<line x1="112.20" y1="173.68" x2="112.20" y2="180.40" class="err"/>
<line x1="109.20" y1="173.68" x2="115.20" y2="173.68" class="err"/>
<line x1="109.20" y1="180.40" x2="115.20" y2="180.40" class="err"/>
<circle cx="112.20" cy="177.04" r="2.5" class="obs"/>
<line x1="125.01" y1="178.31" x2="125.01" y2="184.60" class="err"/>
<line x1="122.01" y1="178.31" x2="128.01" y2="178.31" class="err"/>
<line x1="122.01" y1="184.60" x2="128.01" y2="184.60" class="err"/>
<circle cx="125.01" cy="181.45" r="2.5" class="obs"/>
<line x1="137.81" y1="179.51" x2="137.81" y2="186.93" class="err"/>
<line x1="134.81" y1="179.51" x2="140.81" y2="179.51" class="err"/>
<line x1="134.81" y1="186.93" x2="140.81" y2="186.93" class="err"/>
<circle cx="137.81" cy="183.22" r="2.5" class="obs"/>
<line x1="150.35" y1="185.35" x2="150.35" y2="193.45" class="err"/>
<line x1="147.35" y1="185.35" x2="153.35" y2="185.35" class="err"/>
<line x1="147.35" y1="193.45" x2="153.35" y2="193.45" class="err"/>
<circle cx="150.35" cy="189.40" r="2.5" class="obs"/>
<line x1="163.03" y1="185.31" x2="163.03" y2="193.48" class="err"/>
<line x1="160.03" y1="185.31" x2="166.03" y2="185.31" class="err"/>
<line x1="160.03" y1="193.48" x2="166.03" y2="193.48" class="err"/>
<circle cx="163.03" cy="189.40" r="2.5" class="obs"/>
<line x1="175.45" y1="171.39" x2="175.45" y2="182.70" class="err"/>
<line x1="172.45" y1="171.39" x2="178.45" y2="171.39" class="err"/>
<line x1="172.45" y1="182.70" x2="178.45" y2="182.70" class="err"/>
<circle cx="175.45" cy="177.04" r="2.5" class="obs"/>
<line x1="188.38" y1="169.42" x2="188.38" y2="182.90" class="err"/>
<line x1="185.38" y1="169.42" x2="191.38" y2="169.42" class="err"/>
<line x1="185.38" y1="182.90" x2="191.38" y2="182.90" class="err"/>
<circle cx="188.38" cy="176.16" r="2.5" class="obs"/>
<line x1="201.56" y1="173.47" x2="201.56" y2="189.44" class="err"/>
<line x1="198.56" y1="173.47" x2="204.56" y2="173.47" class="err"/>
<line x1="198.56" y1="189.44" x2="204.56" y2="189.44" class="err"/>
<circle cx="201.56" cy="181.45" r="2.5" class="obs"/>
<line x1="213.98" y1="161.60" x2="213.98" y2="183.66" class="err"/>
<line x1="210.98" y1="161.60" x2="216.98" y2="161.60" class="err"/>
<line x1="210.98" y1="183.66" x2="216.98" y2="183.66" class="err"/>
<circle cx="213.98" cy="172.63" r="2.5" class="obs"/>
<line x1="226.40" y1="171.11" x2="226.40" y2="186.50" class="err"/>
<line x1="223.40" y1="171.11" x2="229.40" y2="171.11" class="err"/>
<line x1="223.40" y1="186.50" x2="229.40" y2="186.50" class="err"/>
<circle cx="226.40" cy="178.81" r="2.5" class="obs"/>
<line x1="238.82" y1="173.12" x2="238.82" y2="180.96" class="err"/>
<line x1="235.82" y1="173.12" x2="241.82" y2="173.12" class="err"/>
<line x1="235.82" y1="180.96" x2="241.82" y2="180.96" class="err"/>
<circle cx="238.82" cy="177.04" r="2.5" class="obs"/>
<line x1="251.24" y1="176.79" x2="251.24" y2="193.18" class="err"/>
<line x1="248.24" y1="176.79" x2="254.24" y2="176.79" class="err"/>
<line x1="248.24" y1="193.18" x2="254.24" y2="193.18" class="err"/>
<circle cx="251.24" cy="184.98" r="2.5" class="obs"/>
<line x1="266.07" y1="166.47" x2="266.07" y2="184.08" class="err"/>
<line x1="263.07" y1="166.47" x2="269.07" y2="166.47" class="err"/>
<line x1="263.07" y1="184.08" x2="269.07" y2="184.08" class="err"/>
<circle cx="266.07" cy="175.28" r="2.5" class="obs"/>
<line x1="277.22" y1="168.97" x2="277.22" y2="179.82" class="err"/>
<line x1="274.22" y1="168.97" x2="280.22" y2="168.97" class="err"/>
<line x1="274.22" y1="179.82" x2="280.22" y2="179.82" class="err"/>
<circle cx="277.22" cy="174.40" r="2.5" class="obs"/>
<line x1="297.12" y1="165.61" x2="297.12" y2="177.89" class="err"/>
<line x1="294.12" y1="165.61" x2="300.12" y2="165.61" class="err"/>
<line x1="294.12" y1="177.89" x2="300.12" y2="177.89" class="err"/>
<circle cx="297.12" cy="171.75" r="2.5" class="obs"/>
<line x1="312.07" y1="153.75" x2="312.07" y2="180.92" class="err"/>
<line x1="309.07" y1="153.75" x2="315.07" y2="153.75" class="err"/>
<line x1="309.07" y1="180.92" x2="315.07" y2="180.92" class="err"/>
<circle cx="312.07" cy="167.34" r="2.5" class="obs"/>
<line x1="355.42" y1="165.12" x2="355.42" y2="176.61" class="err"/>
<line x1="352.42" y1="165.12" x2="358.42" y2="165.12" class="err"/>
<line x1="352.42" y1="176.61" x2="358.42" y2="176.61" class="err"/>
<circle cx="355.42" cy="170.87" r="2.5" class="obs"/>
<line x1="400.16" y1="162.28" x2="400.16" y2="175.92" class="err"/>
<line x1="397.16" y1="162.28" x2="403.16" y2="162.28" class="err"/>
<line x1="397.16" y1="175.92" x2="403.16" y2="175.92" class="err"/>
<circle cx="400.16" cy="169.10" r="2.5" class="obs"/>
<line x1="443.63" y1="162.48" x2="443.63" y2="177.48" class="err"/>
<line x1="440.63" y1="162.48" x2="446.63" y2="162.48" class="err"/>
<line x1="440.63" y1="177.48" x2="446.63" y2="177.48" class="err"/>
<circle cx="443.63" cy="169.98" r="2.5" class="obs"/>
<line x1="488.24" y1="174.62" x2="488.24" y2="184.76" class="err"/>
<line x1="485.24" y1="174.62" x2="491.24" y2="174.62" class="err"/>
<line x1="485.24" y1="184.76" x2="491.24" y2="184.76" class="err"/>
<circle cx="488.24" cy="179.69" r="2.5" class="obs"/>
<line x1="531.71" y1="174.18" x2="531.71" y2="181.67" class="err"/>
<line x1="528.71" y1="174.18" x2="534.71" y2="174.18" class="err"/>
<line x1="528.71" y1="181.67" x2="534.71" y2="181.67" class="err"/>
<circle cx="531.71" cy="177.92" r="2.5" class="obs"/>
<g class="legend">
<line x1="82" y1="69" x2="106" y2="69" class="fw"/>
<text x="112" y="73" class="lbl-l">framework: 14.1 km/s, 6.3%, 2.55σ</text>
<line x1="82" y1="87" x2="106" y2="87" class="nt"/>
<text x="112" y="91" class="lbl-l">Newtonian: 49.6 km/s, 20.5%, 10.47σ</text>
<line x1="82" y1="105" x2="106" y2="105" class="mond"/>
<text x="112" y="109" class="lbl-m">MOND/RAR: 33.3 km/s, 13.8%, 5.15σ</text>
<circle cx="94" cy="123" r="2.5" class="obs"/>
<text x="112" y="127" class="lbl">observed V±err</text>
</g>
<g class="legend">
<line x1="472" y1="69" x2="496" y2="69" class="rho"/>
<text x="502" y="73" class="lbl-r">ρ(r) raw</text>
<line x1="472" y1="87" x2="496" y2="87" class="phot"/>
<text x="502" y="91" class="lbl-p">photometric baryonic profile</text>
<line x1="472" y1="105" x2="496" y2="105" class="mbar"/>
<text x="502" y="109" class="lbl-m">MOND baryonic annulus</text>
<line x1="472" y1="123" x2="496" y2="123" class="mph"/>
<text x="502" y="127" class="lbl-m">MOND phantom annulus</text>
<text x="472" y="147" class="lbl-r">ρ peak: 1160 M☉/pc²</text>
<text x="472" y="163" class="lbl-p">phot peak: 2385.14 (arb.)</text>
<text x="472" y="179" class="lbl-m">Σbar peak: 2015.54 M☉/pc²</text>
<text x="472" y="195" class="lbl-m">Σphantom peak: 182.38 M☉/pc²</text>
</g>
<rect x="775" y="55" width="170" height="170" class="preview-bg"/>
<defs><radialGradient id="g_NGC6195" cx="0.5" cy="0.5" r="0.5">
  <stop offset="0.0000" stop-color="rgb(255,255,255)"/>
  <stop offset="0.0313" stop-color="rgb(255,255,255)"/>
  <stop offset="0.0625" stop-color="rgb(181,181,181)"/>
  <stop offset="0.0938" stop-color="rgb(129,129,129)"/>
  <stop offset="0.1250" stop-color="rgb(129,129,129)"/>
  <stop offset="0.1563" stop-color="rgb(129,129,129)"/>
  <stop offset="0.1875" stop-color="rgb(127,127,127)"/>
  <stop offset="0.2188" stop-color="rgb(123,123,123)"/>
  <stop offset="0.2500" stop-color="rgb(120,120,120)"/>
  <stop offset="0.2813" stop-color="rgb(117,117,117)"/>
  <stop offset="0.3125" stop-color="rgb(114,114,114)"/>
  <stop offset="0.3438" stop-color="rgb(111,111,111)"/>
  <stop offset="0.3750" stop-color="rgb(108,108,108)"/>
  <stop offset="0.4063" stop-color="rgb(106,106,106)"/>
  <stop offset="0.4375" stop-color="rgb(105,105,105)"/>
  <stop offset="0.4688" stop-color="rgb(103,103,103)"/>
  <stop offset="0.5000" stop-color="rgb(102,102,102)"/>
  <stop offset="0.5313" stop-color="rgb(101,101,101)"/>
  <stop offset="0.5625" stop-color="rgb(100,100,100)"/>
  <stop offset="0.5938" stop-color="rgb(99,99,99)"/>
  <stop offset="0.6250" stop-color="rgb(98,98,98)"/>
  <stop offset="0.6563" stop-color="rgb(97,97,97)"/>
  <stop offset="0.6875" stop-color="rgb(96,96,96)"/>
  <stop offset="0.7188" stop-color="rgb(95,95,95)"/>
  <stop offset="0.7500" stop-color="rgb(94,94,94)"/>
  <stop offset="0.7813" stop-color="rgb(93,93,93)"/>
  <stop offset="0.8125" stop-color="rgb(92,92,92)"/>
  <stop offset="0.8438" stop-color="rgb(91,91,91)"/>
  <stop offset="0.8750" stop-color="rgb(90,90,90)"/>
  <stop offset="0.9063" stop-color="rgb(85,85,85)"/>
  <stop offset="0.9375" stop-color="rgb(69,69,69)"/>
  <stop offset="0.9688" stop-color="rgb(38,38,38)"/>
  <stop offset="1.0000" stop-color="rgb(0,0,0)"/>
</radialGradient></defs>
<circle cx="860" cy="140" r="81" fill="url(#g_NGC6195)"/>
<text x="860" y="49" text-anchor="middle" class="preview-lbl">face-on luminance from ρ(r)</text>
<text x="860" y="239" text-anchor="middle" class="preview-lbl">edge at r = 46.4 kpc</text>
</svg>