<svg xmlns="http://www.w3.org/2000/svg" viewBox="0 0 890 420" width="890" height="420" font-family="sans-serif" font-size="12">
<style>
  .ax { stroke: #333; stroke-width: 1; fill: none; }
  .grid { stroke: #ddd; stroke-width: 0.5; fill: none; }
  .lbl { fill: #333; }
  .lbl-l { fill: #0066cc; }
  .lbl-r { fill: #b03030; }
  .obs { fill: #222; }
  .err { stroke: #555; stroke-width: 0.8; fill: none; }
  .fw { stroke: #0066cc; stroke-width: 2.2; fill: none; }
  .nt { stroke: #cc6600; stroke-width: 1.6; fill: none; stroke-dasharray: 5,3; }
  .lbl-s { fill: #cc7000; }
  .rho { stroke: #b03030; stroke-width: 2.0; fill: none; }
  .sig { stroke: #cc7000; stroke-width: 1.8; fill: none; }
  .title { fill: #111; font-size: 16px; font-weight: 600; }
  .subtitle { fill: #555; font-size: 11px; }
  .preview-bg { fill: #000; }
  .preview-lbl { fill: #888; font-size: 10px; }
  .legend { font-size: 11px; }
</style>
<text x="343.5" y="22" text-anchor="middle" class="title">NGC6674</text>
<text x="343.5" y="38" text-anchor="middle" class="subtitle">rMax=72.4 kpc, N=15, RMS=9.4 km/s (3.8%), amp=1217</text>
<line x1="70" y1="365.0" x2="617" y2="365.0" class="grid"/>
<text x="64" y="369.0" text-anchor="end" class="lbl-l">0</text>
<line x1="70" y1="303.0" x2="617" y2="303.0" class="grid"/>
<text x="64" y="307.0" text-anchor="end" class="lbl-l">66</text>
<line x1="70" y1="241.0" x2="617" y2="241.0" class="grid"/>
<text x="64" y="245.0" text-anchor="end" class="lbl-l">131</text>
<line x1="70" y1="179.0" x2="617" y2="179.0" class="grid"/>
<text x="64" y="183.0" text-anchor="end" class="lbl-l">197</text>
<line x1="70" y1="117.0" x2="617" y2="117.0" class="grid"/>
<text x="64" y="121.0" text-anchor="end" class="lbl-l">262</text>
<line x1="70" y1="55.0" x2="617" y2="55.0" class="grid"/>
<text x="64" y="59.0" text-anchor="end" class="lbl-l">328</text>
<text x="623" y="369.0" text-anchor="start" class="lbl-r">0.0</text>
<text x="623" y="327.7" text-anchor="start" class="lbl-r">0.2</text>
<text x="623" y="286.3" text-anchor="start" class="lbl-r">0.4</text>
<text x="623" y="245.0" text-anchor="start" class="lbl-r">0.6</text>
<text x="623" y="203.7" text-anchor="start" class="lbl-r">0.8</text>
<text x="623" y="162.3" text-anchor="start" class="lbl-r">1.0</text>
<line x1="70.0" y1="55" x2="70.0" y2="365" class="grid"/>
<text x="70.0" y="381" text-anchor="middle" class="lbl">0.0</text>
<line x1="161.2" y1="55" x2="161.2" y2="365" class="grid"/>
<text x="161.2" y="381" text-anchor="middle" class="lbl">13.8</text>
<line x1="252.3" y1="55" x2="252.3" y2="365" class="grid"/>
<text x="252.3" y="381" text-anchor="middle" class="lbl">27.6</text>
<line x1="343.5" y1="55" x2="343.5" y2="365" class="grid"/>
<text x="343.5" y="381" text-anchor="middle" class="lbl">41.4</text>
<line x1="434.7" y1="55" x2="434.7" y2="365" class="grid"/>
<text x="434.7" y="381" text-anchor="middle" class="lbl">55.2</text>
<line x1="525.8" y1="55" x2="525.8" y2="365" class="grid"/>
<text x="525.8" y="381" text-anchor="middle" class="lbl">69.1</text>
<line x1="617.0" y1="55" x2="617.0" y2="365" class="grid"/>
<text x="617.0" y="381" text-anchor="middle" class="lbl">82.9</text>
<text x="343.5" y="408" text-anchor="middle" class="lbl">radius (kpc)</text>
<text x="16" y="210" text-anchor="middle" class="lbl-l" transform="rotate(-90, 16, 210)">velocity (km/s)</text>
<text x="654" y="210" text-anchor="middle" class="lbl-r" transform="rotate(-90, 654, 210)">mass profile (normalized to peak)</text>
<rect x="70" y="55" width="547" height="310" class="ax"/>
<path d="M 70.0,158.3 L 72.5,172.6 L 75.0,187.0 L 77.5,201.3 L 80.0,215.6 L 82.5,229.9 L 85.0,244.2 L 87.5,258.5 L 90.0,272.9 L 92.5,287.2 L 95.0,289.9 L 97.5,291.1 L 100.0,292.2 L 102.5,293.4 L 105.0,294.6 L 107.5,295.8 L 110.0,296.9 L 112.5,298.1 L 115.0,299.3 L 117.5,300.5 L 120.0,301.6 L 122.5,302.8 L 124.9,304.0 L 127.4,305.1 L 129.9,306.3 L 132.4,307.5 L 134.9,308.7 L 137.4,309.8 L 139.9,311.0 L 142.4,312.2 L 144.9,313.4 L 147.4,314.5 L 149.9,315.7 L 152.4,316.9 L 154.9,318.0 L 157.4,319.2 L 159.9,319.8 L 162.4,320.0 L 164.9,320.3 L 167.4,320.5 L 169.9,320.8 L 172.4,321.1 L 174.9,321.3 L 177.4,321.6 L 179.9,321.8 L 182.4,322.1 L 184.9,322.4 L 187.4,322.6 L 189.9,322.9 L 192.4,323.1 L 194.9,323.4 L 197.4,323.7 L 199.9,323.9 L 202.4,324.2 L 204.9,324.4 L 207.4,324.7 L 209.9,325.0 L 212.4,325.2 L 214.9,325.5 L 217.4,325.7 L 219.9,326.0 L 222.4,326.3 L 224.9,326.5 L 227.4,326.8 L 229.9,327.0 L 232.4,327.3 L 234.8,327.4 L 237.3,327.6 L 239.8,327.7 L 242.3,327.9 L 244.8,328.0 L 247.3,328.2 L 249.8,328.3 L 252.3,328.5 L 254.8,328.7 L 257.3,328.8 L 259.8,329.0 L 262.3,329.1 L 264.8,329.3 L 267.3,329.4 L 269.8,329.6 L 272.3,329.7 L 274.8,329.9 L 277.3,330.0 L 279.8,330.2 L 282.3,330.3 L 284.8,330.5 L 287.3,330.6 L 289.8,330.8 L 292.3,330.9 L 294.8,331.1 L 297.3,331.2 L 299.8,331.4 L 302.3,331.5 L 304.8,331.7 L 307.3,331.8 L 309.8,332.0 L 312.3,332.2 L 314.8,332.3 L 317.3,332.5 L 319.8,332.6 L 322.3,332.8 L 324.8,332.9 L 327.3,333.1 L 329.8,333.2 L 332.3,333.4 L 334.8,333.5 L 337.3,333.7 L 339.8,333.8 L 342.3,334.0 L 344.7,334.1 L 347.2,334.3 L 349.7,334.4 L 352.2,334.6 L 354.7,334.7 L 357.2,334.9 L 359.7,335.0 L 362.2,335.2 L 364.7,335.3 L 367.2,335.5 L 369.7,335.7 L 372.2,335.8 L 374.7,336.0 L 377.2,336.1 L 379.7,336.3 L 382.2,336.4 L 384.7,336.6 L 387.2,336.7 L 389.7,336.9 L 392.2,337.0 L 394.7,337.2 L 397.2,337.3 L 399.7,337.5 L 402.2,337.6 L 404.7,337.8 L 407.2,337.9 L 409.7,338.1 L 412.2,338.2 L 414.7,338.4 L 417.2,338.5 L 419.7,338.7 L 422.2,338.8 L 424.7,339.0 L 427.2,339.1 L 429.7,339.3 L 432.2,339.5 L 434.7,339.6 L 437.2,339.8 L 439.7,339.9 L 442.2,340.1 L 444.7,340.2 L 447.2,340.4 L 449.7,340.5 L 452.2,340.7 L 454.6,340.8 L 457.1,341.0 L 459.6,341.1 L 462.1,341.3 L 464.6,341.4 L 467.1,341.6 L 469.6,341.7 L 472.1,341.9 L 474.6,342.0 L 477.1,342.2 L 479.6,342.3 L 482.1,342.5 L 484.6,342.6 L 487.1,342.8 L 489.6,343.0 L 492.1,343.1 L 494.6,343.3 L 497.1,343.4 L 499.6,343.6 L 502.1,343.7 L 504.6,343.9 L 507.1,344.0 L 509.6,344.2 L 512.1,344.3 L 514.6,344.5 L 517.1,344.6 L 519.6,344.8 L 522.1,344.9 L 524.6,345.1 L 527.1,345.2 L 529.6,345.4 L 532.1,345.5 L 534.6,345.7 L 537.1,345.8 L 539.6,346.0 L 542.1,346.1 L 544.6,346.3 L 547.1,346.5 L 549.6,347.5 L 552.1,348.6 L 554.6,349.6 L 557.1,350.7 L 559.6,351.7 L 562.1,352.8 L 564.5,353.9 L 567.0,354.9 L 569.5,356.0 L 572.0,357.0 L 574.5,358.1 L 577.0,359.1 L 579.5,360.2 L 582.0,361.2 L 584.5,362.3 L 587.0,363.3 L 589.5,364.4 L 592.0,365.0 L 594.5,365.0 L 597.0,365.0 L 599.5,365.0 L 602.0,365.0 L 604.5,365.0 L 607.0,365.0 L 609.5,365.0 L 612.0,365.0 L 614.5,365.0 L 617.0,365.0" class="rho"/>
<path d="M 70.0,158.3 L 72.5,159.2 L 75.0,160.6 L 77.5,162.7 L 80.0,165.3 L 82.5,168.4 L 85.0,172.0 L 87.5,176.0 L 90.0,180.1 L 92.5,184.3 L 95.0,188.5 L 97.5,192.6 L 100.0,196.7 L 102.5,200.7 L 105.0,204.5 L 107.5,208.2 L 110.0,211.8 L 112.5,215.3 L 115.0,218.7 L 117.5,222.0 L 120.0,225.2 L 122.5,228.3 L 124.9,231.3 L 127.4,234.2 L 129.9,237.1 L 132.4,239.9 L 134.9,242.6 L 137.4,245.2 L 139.9,247.7 L 142.4,250.2 L 144.9,252.6 L 147.4,254.9 L 149.9,257.2 L 152.4,259.4 L 154.9,261.5 L 157.4,263.5 L 159.9,265.4 L 162.4,267.3 L 164.9,269.1 L 167.4,270.9 L 169.9,272.5 L 172.4,274.2 L 174.9,275.7 L 177.4,277.2 L 179.9,278.7 L 182.4,280.1 L 184.9,281.5 L 187.4,282.8 L 189.9,284.1 L 192.4,285.3 L 194.9,286.5 L 197.4,287.7 L 199.9,288.9 L 202.4,290.0 L 204.9,291.1 L 207.4,292.1 L 209.9,293.2 L 212.4,294.2 L 214.9,295.1 L 217.4,296.1 L 219.9,297.0 L 222.4,298.0 L 224.9,298.9 L 227.4,299.7 L 229.9,300.6 L 232.4,301.4 L 234.8,302.2 L 237.3,303.0 L 239.8,303.8 L 242.3,304.6 L 244.8,305.3 L 247.3,306.0 L 249.8,306.8 L 252.3,307.5 L 254.8,308.1 L 257.3,308.8 L 259.8,309.5 L 262.3,310.1 L 264.8,310.8 L 267.3,311.4 L 269.8,312.0 L 272.3,312.6 L 274.8,313.3 L 277.3,313.8 L 279.8,314.4 L 282.3,315.0 L 284.8,315.6 L 287.3,316.1 L 289.8,316.7 L 292.3,317.2 L 294.8,317.8 L 297.3,318.3 L 299.8,318.8 L 302.3,319.4 L 304.8,319.9 L 307.3,320.4 L 309.8,320.9 L 312.3,321.4 L 314.8,321.9 L 317.3,322.4 L 319.8,322.8 L 322.3,323.3 L 324.8,323.8 L 327.3,324.3 L 329.8,324.7 L 332.3,325.2 L 334.8,325.6 L 337.3,326.1 L 339.8,326.5 L 342.3,327.0 L 344.7,327.4 L 347.2,327.8 L 349.7,328.2 L 352.2,328.7 L 354.7,329.1 L 357.2,329.5 L 359.7,329.9 L 362.2,330.3 L 364.7,330.7 L 367.2,331.1 L 369.7,331.5 L 372.2,331.9 L 374.7,332.3 L 377.2,332.7 L 379.7,333.1 L 382.2,333.5 L 384.7,333.8 L 387.2,334.2 L 389.7,334.6 L 392.2,334.9 L 394.7,335.3 L 397.2,335.7 L 399.7,336.0 L 402.2,336.4 L 404.7,336.7 L 407.2,337.1 L 409.7,337.4 L 412.2,337.7 L 414.7,338.1 L 417.2,338.4 L 419.7,338.7 L 422.2,339.1 L 424.7,339.4 L 427.2,339.7 L 429.7,340.0 L 432.2,340.4 L 434.7,340.7 L 437.2,341.0 L 439.7,341.3 L 442.2,341.6 L 444.7,341.9 L 447.2,342.2 L 449.7,342.5 L 452.2,342.8 L 454.6,343.1 L 457.1,343.4 L 459.6,343.7 L 462.1,344.0 L 464.6,344.3 L 467.1,344.5 L 469.6,344.8 L 472.1,345.1 L 474.6,345.4 L 477.1,345.6 L 479.6,345.9 L 482.1,346.2 L 484.6,346.5 L 487.1,346.7 L 489.6,347.0 L 492.1,347.2 L 494.6,347.5 L 497.1,347.8 L 499.6,348.0 L 502.1,348.3 L 504.6,348.5 L 507.1,348.8 L 509.6,349.0 L 512.1,349.3 L 514.6,349.5 L 517.1,349.8 L 519.6,350.0 L 522.1,350.3 L 524.6,350.5 L 527.1,350.8 L 529.6,351.0 L 532.1,351.3 L 534.6,351.5 L 537.1,351.8 L 539.6,352.1 L 542.1,352.3 L 544.6,352.6 L 547.1,352.8 L 549.6,353.1 L 552.1,353.3 L 554.6,353.6 L 557.1,353.8 L 559.6,354.1 L 562.1,354.3 L 564.5,354.5 L 567.0,354.8 L 569.5,355.0 L 572.0,355.2 L 574.5,355.4 L 577.0,355.6 L 579.5,355.8 L 582.0,356.0 L 584.5,356.1 L 587.0,356.3 L 589.5,356.5 L 592.0,356.6 L 594.5,356.8 L 597.0,356.9 L 599.5,357.0 L 602.0,357.2 L 604.5,357.3 L 607.0,357.4 L 609.5,357.5 L 612.0,357.6 L 614.5,357.8 L 617.0,357.9" class="sig"/>
<path d="M 75.5,294.4 L 80.9,271.0 L 86.4,257.4 L 91.9,250.1 L 97.3,245.8 L 102.8,240.9 L 108.3,235.8 L 113.8,230.8 L 119.2,226.1 L 124.7,221.7 L 130.2,217.6 L 135.6,213.8 L 141.1,210.3 L 146.6,207.1 L 152.1,204.3 L 157.5,201.7 L 163.0,199.3 L 168.5,196.9 L 173.9,194.5 L 179.4,192.1 L 184.9,189.8 L 190.3,187.4 L 195.8,185.1 L 201.3,182.9 L 206.8,180.7 L 212.2,178.5 L 217.7,176.4 L 223.2,174.4 L 228.6,172.4 L 234.1,170.4 L 239.6,168.5 L 245.0,166.6 L 250.5,164.7 L 256.0,162.8 L 261.5,161.0 L 266.9,159.2 L 272.4,157.5 L 277.9,155.7 L 283.3,154.0 L 288.8,152.3 L 294.3,150.7 L 299.7,149.1 L 305.2,147.5 L 310.7,145.9 L 316.1,144.4 L 321.6,142.9 L 327.1,141.4 L 332.6,140.0 L 338.0,138.6 L 343.5,137.2 L 349.0,135.8 L 354.4,134.5 L 359.9,133.2 L 365.4,132.0 L 370.9,130.7 L 376.3,129.5 L 381.8,128.3 L 387.3,127.2 L 392.7,126.1 L 398.2,125.0 L 403.7,123.9 L 409.1,122.9 L 414.6,121.8 L 420.1,120.8 L 425.6,119.9 L 431.0,118.9 L 436.5,118.0 L 442.0,117.1 L 447.4,116.3 L 452.9,115.4 L 458.4,114.6 L 463.8,113.8 L 469.3,113.1 L 474.8,112.3 L 480.3,111.6 L 485.7,110.9 L 491.2,110.3 L 496.7,109.6 L 502.1,109.0 L 507.6,108.4 L 513.1,107.8 L 518.5,107.3 L 524.0,106.7 L 529.5,106.2 L 535.0,105.7 L 540.4,105.3 L 545.9,104.9 L 551.4,104.5 L 556.8,104.4 L 562.3,104.5 L 567.8,104.8 L 573.2,105.3 L 578.7,106.1 L 584.2,107.0 L 589.6,108.2 L 595.1,109.5 L 600.6,110.9 L 606.1,112.2 L 611.5,113.5 L 617.0,114.7" class="nt"/>
<path d="M 74.6,305.3 L 79.1,261.6 L 83.7,220.1 L 88.2,186.1 L 92.8,161.0 L 97.4,142.8 L 101.9,130.0 L 106.5,120.6 L 111.0,113.2 L 115.6,107.0 L 120.1,101.6 L 124.7,96.9 L 129.3,92.9 L 133.8,89.7 L 138.4,87.4 L 142.9,86.0 L 147.5,85.7 L 152.1,86.4 L 156.6,87.9 L 161.2,90.2 L 165.7,92.8 L 170.3,95.6 L 174.8,98.4 L 179.4,101.0 L 184.0,103.4 L 188.5,105.6 L 193.1,107.6 L 197.6,109.5 L 202.2,111.2 L 206.8,112.9 L 211.3,114.5 L 215.9,116.2 L 220.4,117.8 L 225.0,119.5 L 229.5,121.2 L 234.1,122.8 L 238.7,124.4 L 243.2,125.9 L 247.8,127.3 L 252.3,128.5 L 256.9,129.6 L 261.4,130.5 L 266.0,131.4 L 270.6,132.1 L 275.1,132.7 L 279.7,133.2 L 284.2,133.6 L 288.8,134.0 L 293.4,134.3 L 297.9,134.6 L 302.5,134.8 L 307.0,135.0 L 311.6,135.2 L 316.1,135.4 L 320.7,135.5 L 325.3,135.6 L 329.8,135.7 L 334.4,135.8 L 338.9,135.9 L 343.5,136.0 L 348.1,136.1 L 352.6,136.3 L 357.2,136.4 L 361.7,136.5 L 366.3,136.6 L 370.9,136.8 L 375.4,137.0 L 380.0,137.1 L 384.5,137.3 L 389.1,137.5 L 393.6,137.8 L 398.2,138.0 L 402.8,138.3 L 407.3,138.5 L 411.9,138.8 L 416.4,139.1 L 421.0,139.4 L 425.6,139.8 L 430.1,140.1 L 434.7,140.5 L 439.2,140.8 L 443.8,141.2 L 448.3,141.6 L 452.9,142.0 L 457.5,142.4 L 462.0,142.8 L 466.6,143.1 L 471.1,143.5 L 475.7,143.8 L 480.3,144.1 L 484.8,144.3 L 489.4,144.5 L 493.9,144.6 L 498.5,144.6 L 503.0,144.5 L 507.6,144.3 L 512.2,143.8 L 516.7,143.1 L 521.3,142.2 L 525.8,140.9 L 530.4,139.3 L 535.0,137.6 L 539.5,135.9 L 544.1,134.5 L 548.6,133.8 L 553.2,134.2 L 557.7,136.0 L 562.3,139.2 L 566.9,143.8 L 571.4,149.5 L 576.0,155.9 L 580.5,162.7 L 585.1,169.5 L 589.6,176.1 L 594.2,182.4 L 598.8,188.2 L 603.3,193.6 L 607.9,198.5 L 612.4,203.0 L 617.0,207.0" class="fw"/>
<line x1="86.50" y1="99.26" x2="86.50" y2="241.11" class="err"/>
<line x1="83.50" y1="99.26" x2="89.50" y2="99.26" class="err"/>
<line x1="83.50" y1="241.11" x2="89.50" y2="241.11" class="err"/>
<circle cx="86.50" cy="170.19" r="2.5" class="obs"/>
<line x1="119.44" y1="87.91" x2="119.44" y2="103.04" class="err"/>
<line x1="116.44" y1="87.91" x2="122.44" y2="87.91" class="err"/>
<line x1="116.44" y1="103.04" x2="122.44" y2="103.04" class="err"/>
<circle cx="119.44" cy="95.48" r="2.5" class="obs"/>
<line x1="152.77" y1="83.18" x2="152.77" y2="96.42" class="err"/>
<line x1="149.77" y1="83.18" x2="155.77" y2="83.18" class="err"/>
<line x1="149.77" y1="96.42" x2="155.77" y2="96.42" class="err"/>
<circle cx="152.77" cy="89.80" r="2.5" class="obs"/>
<line x1="185.18" y1="101.15" x2="185.18" y2="110.61" class="err"/>
<line x1="182.18" y1="101.15" x2="188.18" y2="101.15" class="err"/>
<line x1="182.18" y1="110.61" x2="188.18" y2="110.61" class="err"/>
<circle cx="185.18" cy="105.88" r="2.5" class="obs"/>
<line x1="218.31" y1="109.66" x2="218.31" y2="117.23" class="err"/>
<line x1="215.31" y1="109.66" x2="221.31" y2="109.66" class="err"/>
<line x1="215.31" y1="117.23" x2="221.31" y2="117.23" class="err"/>
<circle cx="218.31" cy="113.44" r="2.5" class="obs"/>
<line x1="251.38" y1="121.96" x2="251.38" y2="125.74" class="err"/>
<line x1="248.38" y1="121.96" x2="254.38" y2="121.96" class="err"/>
<line x1="248.38" y1="125.74" x2="254.38" y2="125.74" class="err"/>
<circle cx="251.38" cy="123.85" r="2.5" class="obs"/>
<line x1="284.51" y1="126.68" x2="284.51" y2="130.47" class="err"/>
<line x1="281.51" y1="126.68" x2="287.51" y2="126.68" class="err"/>
<line x1="281.51" y1="130.47" x2="287.51" y2="130.47" class="err"/>
<circle cx="284.51" cy="128.58" r="2.5" class="obs"/>
<line x1="317.58" y1="134.25" x2="317.58" y2="138.03" class="err"/>
<line x1="314.58" y1="134.25" x2="320.58" y2="134.25" class="err"/>
<line x1="314.58" y1="138.03" x2="320.58" y2="138.03" class="err"/>
<circle cx="317.58" cy="136.14" r="2.5" class="obs"/>
<line x1="349.99" y1="138.98" x2="349.99" y2="142.76" class="err"/>
<line x1="346.99" y1="138.98" x2="352.99" y2="138.98" class="err"/>
<line x1="346.99" y1="142.76" x2="352.99" y2="142.76" class="err"/>
<circle cx="349.99" cy="140.87" r="2.5" class="obs"/>
<line x1="383.12" y1="140.87" x2="383.12" y2="144.65" class="err"/>
<line x1="380.12" y1="140.87" x2="386.12" y2="140.87" class="err"/>
<line x1="380.12" y1="144.65" x2="386.12" y2="144.65" class="err"/>
<circle cx="383.12" cy="142.76" r="2.5" class="obs"/>
<line x1="416.19" y1="139.92" x2="416.19" y2="143.71" class="err"/>
<line x1="413.19" y1="139.92" x2="419.19" y2="139.92" class="err"/>
<line x1="413.19" y1="143.71" x2="419.19" y2="143.71" class="err"/>
<circle cx="416.19" cy="141.82" r="2.5" class="obs"/>
<line x1="449.33" y1="134.25" x2="449.33" y2="138.03" class="err"/>
<line x1="446.33" y1="134.25" x2="452.33" y2="134.25" class="err"/>
<line x1="446.33" y1="138.03" x2="452.33" y2="138.03" class="err"/>
<circle cx="449.33" cy="136.14" r="2.5" class="obs"/>
<line x1="482.40" y1="130.47" x2="482.40" y2="134.25" class="err"/>
<line x1="479.40" y1="130.47" x2="485.40" y2="130.47" class="err"/>
<line x1="479.40" y1="134.25" x2="485.40" y2="134.25" class="err"/>
<circle cx="482.40" cy="132.36" r="2.5" class="obs"/>
<line x1="514.87" y1="132.36" x2="514.87" y2="139.92" class="err"/>
<line x1="511.87" y1="132.36" x2="517.87" y2="132.36" class="err"/>
<line x1="511.87" y1="139.92" x2="517.87" y2="139.92" class="err"/>
<circle cx="514.87" cy="136.14" r="2.5" class="obs"/>
<line x1="547.94" y1="131.41" x2="547.94" y2="140.87" class="err"/>
<line x1="544.94" y1="131.41" x2="550.94" y2="131.41" class="err"/>
<line x1="544.94" y1="140.87" x2="550.94" y2="140.87" class="err"/>
<circle cx="547.94" cy="136.14" r="2.5" class="obs"/>
<g class="legend">
<line x1="82" y1="69" x2="106" y2="69" class="fw"/>
<text x="112" y="73" class="lbl-l">framework fit</text>
<line x1="82" y1="87" x2="106" y2="87" class="nt"/>
<text x="112" y="91" class="lbl-l">Newtonian (no halo)</text>
<circle cx="94" cy="105" r="2.5" class="obs"/>
<text x="112" y="109" class="lbl">observed V±err</text>
</g>
<g class="legend">
<line x1="442" y1="69" x2="466" y2="69" class="rho"/>
<text x="472" y="73" class="lbl-r">ρ(r) raw</text>
<line x1="442" y1="87" x2="466" y2="87" class="sig"/>
<text x="472" y="91" class="lbl-s">Σ(r) cumulative</text>
<text x="442" y="113" class="lbl-r">ρ peak: 553 M☉/pc²</text>
</g>
<rect x="705" y="55" width="170" height="170" class="preview-bg"/>
<defs><radialGradient id="g_NGC6674" cx="0.5" cy="0.5" r="0.5">
  <stop offset="0.0000" stop-color="rgb(188,188,188)"/>
  <stop offset="0.0313" stop-color="rgb(119,119,119)"/>
  <stop offset="0.0625" stop-color="rgb(89,89,89)"/>
  <stop offset="0.0938" stop-color="rgb(83,83,83)"/>
  <stop offset="0.1250" stop-color="rgb(78,78,78)"/>
  <stop offset="0.1563" stop-color="rgb(72,72,72)"/>
  <stop offset="0.1875" stop-color="rgb(69,69,69)"/>
  <stop offset="0.2188" stop-color="rgb(68,68,68)"/>
  <stop offset="0.2500" stop-color="rgb(66,66,66)"/>
  <stop offset="0.2813" stop-color="rgb(65,65,65)"/>
  <stop offset="0.3125" stop-color="rgb(64,64,64)"/>
  <stop offset="0.3438" stop-color="rgb(63,63,63)"/>
  <stop offset="0.3750" stop-color="rgb(61,61,61)"/>
  <stop offset="0.4063" stop-color="rgb(59,59,59)"/>
  <stop offset="0.4375" stop-color="rgb(58,58,58)"/>
  <stop offset="0.4688" stop-color="rgb(56,56,56)"/>
  <stop offset="0.5000" stop-color="rgb(54,54,54)"/>
  <stop offset="0.5313" stop-color="rgb(52,52,52)"/>
  <stop offset="0.5625" stop-color="rgb(51,51,51)"/>
  <stop offset="0.5938" stop-color="rgb(49,49,49)"/>
  <stop offset="0.6250" stop-color="rgb(47,47,47)"/>
  <stop offset="0.6563" stop-color="rgb(46,46,46)"/>
  <stop offset="0.6875" stop-color="rgb(44,44,44)"/>
  <stop offset="0.7188" stop-color="rgb(42,42,42)"/>
  <stop offset="0.7500" stop-color="rgb(41,41,41)"/>
  <stop offset="0.7813" stop-color="rgb(39,39,39)"/>
  <stop offset="0.8125" stop-color="rgb(37,37,37)"/>
  <stop offset="0.8438" stop-color="rgb(36,36,36)"/>
  <stop offset="0.8750" stop-color="rgb(34,34,34)"/>
  <stop offset="0.9063" stop-color="rgb(32,32,32)"/>
  <stop offset="0.9375" stop-color="rgb(23,23,23)"/>
  <stop offset="0.9688" stop-color="rgb(12,12,12)"/>
  <stop offset="1.0000" stop-color="rgb(0,0,0)"/>
</radialGradient></defs>
<circle cx="790" cy="140" r="81" fill="url(#g_NGC6674)"/>
<text x="790" y="49" text-anchor="middle" class="preview-lbl">face-on luminance from ρ(r)</text>
<text x="790" y="239" text-anchor="middle" class="preview-lbl">edge at r = 78.9 kpc</text>
</svg>