<svg xmlns="http://www.w3.org/2000/svg" viewBox="0 0 720 420" width="720" height="420" font-family="sans-serif" font-size="12">
<style>
  .ax { stroke: #333; stroke-width: 1; fill: none; }
  .grid { stroke: #ddd; stroke-width: 0.5; fill: none; }
  .lbl { fill: #333; }
  .lbl-l { fill: #0066cc; }
  .lbl-r { fill: #b03030; }
  .obs { fill: #222; }
  .err { stroke: #555; stroke-width: 0.8; fill: none; }
  .fw { stroke: #0066cc; stroke-width: 2.2; fill: none; }
  .nt { stroke: #cc6600; stroke-width: 1.6; fill: none; stroke-dasharray: 5,3; }
  .rho { stroke: #b03030; stroke-width: 2.0; fill: none; }
  .sig { stroke: #b03030; stroke-width: 1.6; fill: none; stroke-dasharray: 4,2; opacity: 0.85; }
  .title { fill: #111; font-size: 16px; font-weight: 600; }
  .subtitle { fill: #555; font-size: 11px; }
  .legend { font-size: 11px; }
</style>
<text x="360.0" y="22" text-anchor="middle" class="title">NGC6503</text>
<text x="360.0" y="38" text-anchor="middle" class="subtitle">rMax=23.5 kpc, N=31, RMS=2.6 km/s (2.3%), amp=445</text>
<line x1="70" y1="365.0" x2="635" y2="365.0" class="grid"/>
<text x="64" y="369.0" text-anchor="end" class="lbl-l">0</text>
<line x1="70" y1="303.0" x2="635" y2="303.0" class="grid"/>
<text x="64" y="307.0" text-anchor="end" class="lbl-l">29</text>
<line x1="70" y1="241.0" x2="635" y2="241.0" class="grid"/>
<text x="64" y="245.0" text-anchor="end" class="lbl-l">59</text>
<line x1="70" y1="179.0" x2="635" y2="179.0" class="grid"/>
<text x="64" y="183.0" text-anchor="end" class="lbl-l">88</text>
<line x1="70" y1="116.99999999999999" x2="635" y2="116.99999999999999" class="grid"/>
<text x="64" y="120.99999999999999" text-anchor="end" class="lbl-l">117</text>
<line x1="70" y1="55.0" x2="635" y2="55.0" class="grid"/>
<text x="64" y="59.0" text-anchor="end" class="lbl-l">146</text>
<text x="641" y="369.0" text-anchor="start" class="lbl-r">0.0</text>
<text x="641" y="327.6666666666667" text-anchor="start" class="lbl-r">0.2</text>
<text x="641" y="286.33333333333337" text-anchor="start" class="lbl-r">0.4</text>
<text x="641" y="245.00000000000003" text-anchor="start" class="lbl-r">0.6</text>
<text x="641" y="203.66666666666666" text-anchor="start" class="lbl-r">0.8</text>
<text x="641" y="162.33333333333334" text-anchor="start" class="lbl-r">1.0</text>
<line x1="70.0" y1="55" x2="70.0" y2="365" class="grid"/>
<text x="70.0" y="381" text-anchor="middle" class="lbl">0.0</text>
<line x1="164.16666666666666" y1="55" x2="164.16666666666666" y2="365" class="grid"/>
<text x="164.16666666666666" y="381" text-anchor="middle" class="lbl">4.7</text>
<line x1="258.3333333333333" y1="55" x2="258.3333333333333" y2="365" class="grid"/>
<text x="258.3333333333333" y="381" text-anchor="middle" class="lbl">9.4</text>
<line x1="352.5" y1="55" x2="352.5" y2="365" class="grid"/>
<text x="352.5" y="381" text-anchor="middle" class="lbl">14.0</text>
<line x1="446.66666666666663" y1="55" x2="446.66666666666663" y2="365" class="grid"/>
<text x="446.66666666666663" y="381" text-anchor="middle" class="lbl">18.7</text>
<line x1="540.8333333333333" y1="55" x2="540.8333333333333" y2="365" class="grid"/>
<text x="540.8333333333333" y="381" text-anchor="middle" class="lbl">23.4</text>
<line x1="635.0" y1="55" x2="635.0" y2="365" class="grid"/>
<text x="635.0" y="381" text-anchor="middle" class="lbl">28.1</text>
<text x="352.5" y="408" text-anchor="middle" class="lbl">radius (kpc)</text>
<text x="16" y="210.0" text-anchor="middle" class="lbl-l" transform="rotate(-90, 16, 210.0)">velocity (km/s)</text>
<text x="704" y="210.0" text-anchor="middle" class="lbl-r" transform="rotate(-90, 704, 210.0)">mass profile (normalized to peak)</text>
<rect x="70" y="55" width="565" height="310" class="ax"/>
<path d="M 70.0,158.3 L 72.6,164.5 L 75.2,170.6 L 77.7,176.7 L 80.3,182.8 L 82.9,189.0 L 85.5,195.1 L 88.1,201.2 L 90.6,207.3 L 93.2,213.5 L 95.8,219.6 L 98.4,225.7 L 101.0,231.9 L 103.5,238.0 L 106.1,243.8 L 108.7,245.8 L 111.3,247.8 L 113.9,249.8 L 116.4,251.8 L 119.0,253.8 L 121.6,255.8 L 124.2,257.8 L 126.8,259.8 L 129.3,261.8 L 131.9,263.8 L 134.5,265.8 L 137.1,267.8 L 139.7,269.7 L 142.2,271.7 L 144.8,273.7 L 147.4,275.7 L 150.0,276.9 L 152.6,277.3 L 155.1,277.8 L 157.7,278.3 L 160.3,278.8 L 162.9,279.3 L 165.5,279.8 L 168.0,280.3 L 170.6,280.8 L 173.2,281.3 L 175.8,281.7 L 178.4,282.2 L 180.9,282.7 L 183.5,283.2 L 186.1,283.7 L 188.7,284.2 L 191.3,284.7 L 193.8,285.2 L 196.4,285.7 L 199.0,286.1 L 201.6,286.6 L 204.2,287.1 L 206.7,287.6 L 209.3,288.1 L 211.9,288.6 L 214.5,289.1 L 217.1,289.6 L 219.6,290.1 L 222.2,290.5 L 224.8,291.0 L 227.4,291.5 L 230.0,292.0 L 232.5,292.5 L 235.1,293.0 L 237.7,293.5 L 240.3,294.0 L 242.9,294.5 L 245.4,294.9 L 248.0,295.4 L 250.6,295.9 L 253.2,296.3 L 255.8,296.6 L 258.3,297.0 L 260.9,297.3 L 263.5,297.6 L 266.1,297.9 L 268.7,298.2 L 271.2,298.6 L 273.8,298.9 L 276.4,299.2 L 279.0,299.5 L 281.6,299.9 L 284.1,300.2 L 286.7,300.5 L 289.3,300.8 L 291.9,301.2 L 294.5,301.5 L 297.0,301.8 L 299.6,302.1 L 302.2,302.4 L 304.8,302.8 L 307.4,303.1 L 309.9,303.4 L 312.5,303.7 L 315.1,304.1 L 317.7,304.4 L 320.3,304.7 L 322.8,305.0 L 325.4,305.4 L 328.0,305.7 L 330.6,306.0 L 333.2,306.3 L 335.7,306.6 L 338.3,307.0 L 340.9,307.3 L 343.5,307.6 L 346.1,307.9 L 348.6,308.3 L 351.2,308.6 L 353.8,308.9 L 356.4,309.2 L 358.9,309.5 L 361.5,309.9 L 364.1,310.2 L 366.7,310.5 L 369.3,310.8 L 371.8,311.2 L 374.4,311.5 L 377.0,311.8 L 379.6,312.1 L 382.2,312.5 L 384.7,312.8 L 387.3,313.1 L 389.9,313.4 L 392.5,313.7 L 395.1,314.1 L 397.6,314.4 L 400.2,314.7 L 402.8,315.0 L 405.4,315.4 L 408.0,315.7 L 410.5,316.0 L 413.1,316.3 L 415.7,316.7 L 418.3,317.0 L 420.9,317.3 L 423.4,317.6 L 426.0,317.9 L 428.6,318.3 L 431.2,318.6 L 433.8,318.9 L 436.3,319.2 L 438.9,319.6 L 441.5,319.9 L 444.1,320.2 L 446.7,320.5 L 449.2,320.9 L 451.8,321.2 L 454.4,321.5 L 457.0,321.8 L 459.6,322.1 L 462.1,322.5 L 464.7,322.8 L 467.3,323.1 L 469.9,323.4 L 472.5,323.8 L 475.0,324.1 L 477.6,324.4 L 480.2,324.7 L 482.8,325.0 L 485.4,325.4 L 487.9,325.7 L 490.5,326.0 L 493.1,326.3 L 495.7,326.7 L 498.3,327.0 L 500.8,327.3 L 503.4,327.6 L 506.0,328.0 L 508.6,328.3 L 511.2,328.6 L 513.7,328.9 L 516.3,329.7 L 518.9,330.7 L 521.5,331.7 L 524.1,332.7 L 526.6,333.7 L 529.2,334.7 L 531.8,335.7 L 534.4,336.7 L 537.0,337.7 L 539.5,338.7 L 542.1,339.6 L 544.7,340.6 L 547.3,341.6 L 549.9,342.6 L 552.4,343.6 L 555.0,344.6 L 557.6,345.6 L 560.2,346.6 L 562.8,347.6 L 565.3,348.6 L 567.9,349.6 L 570.5,350.6 L 573.1,351.5 L 575.7,352.5 L 578.2,353.5 L 580.8,354.5 L 583.4,355.5 L 586.0,356.5 L 588.6,357.5 L 591.1,358.5 L 593.7,359.5 L 596.3,360.5 L 598.9,361.5 L 601.5,362.5 L 604.0,363.4 L 606.6,364.4 L 609.2,365.0 L 611.8,365.0 L 614.4,365.0 L 616.9,365.0 L 619.5,365.0 L 622.1,365.0 L 624.7,365.0 L 627.3,365.0 L 629.8,365.0 L 632.4,365.0 L 635.0,365.0" class="rho"/>
<path d="M 70.0,158.3 L 72.6,159.1 L 75.2,160.4 L 77.7,162.3 L 80.3,164.7 L 82.9,167.5 L 85.5,170.7 L 88.1,174.2 L 90.6,178.0 L 93.2,181.8 L 95.8,185.8 L 98.4,189.7 L 101.0,193.6 L 103.5,197.5 L 106.1,201.2 L 108.7,204.8 L 111.3,208.2 L 113.9,211.5 L 116.4,214.7 L 119.0,217.7 L 121.6,220.7 L 124.2,223.6 L 126.8,226.4 L 129.3,229.2 L 131.9,231.8 L 134.5,234.4 L 137.1,236.9 L 139.7,239.3 L 142.2,241.6 L 144.8,243.9 L 147.4,246.0 L 150.0,248.1 L 152.6,250.0 L 155.1,251.9 L 157.7,253.6 L 160.3,255.3 L 162.9,257.0 L 165.5,258.6 L 168.0,260.1 L 170.6,261.6 L 173.2,263.0 L 175.8,264.5 L 178.4,265.8 L 180.9,267.2 L 183.5,268.5 L 186.1,269.8 L 188.7,271.0 L 191.3,272.3 L 193.8,273.5 L 196.4,274.7 L 199.0,275.9 L 201.6,277.0 L 204.2,278.2 L 206.7,279.3 L 209.3,280.4 L 211.9,281.5 L 214.5,282.5 L 217.1,283.6 L 219.6,284.6 L 222.2,285.6 L 224.8,286.7 L 227.4,287.6 L 230.0,288.6 L 232.5,289.6 L 235.1,290.5 L 237.7,291.5 L 240.3,292.4 L 242.9,293.3 L 245.4,294.2 L 248.0,295.1 L 250.6,295.9 L 253.2,296.8 L 255.8,297.6 L 258.3,298.4 L 260.9,299.2 L 263.5,300.0 L 266.1,300.8 L 268.7,301.6 L 271.2,302.3 L 273.8,303.1 L 276.4,303.8 L 279.0,304.5 L 281.6,305.3 L 284.1,306.0 L 286.7,306.7 L 289.3,307.4 L 291.9,308.0 L 294.5,308.7 L 297.0,309.4 L 299.6,310.1 L 302.2,310.7 L 304.8,311.4 L 307.4,312.0 L 309.9,312.6 L 312.5,313.3 L 315.1,313.9 L 317.7,314.5 L 320.3,315.1 L 322.8,315.7 L 325.4,316.3 L 328.0,316.9 L 330.6,317.5 L 333.2,318.1 L 335.7,318.7 L 338.3,319.3 L 340.9,319.8 L 343.5,320.4 L 346.1,321.0 L 348.6,321.5 L 351.2,322.1 L 353.8,322.6 L 356.4,323.2 L 358.9,323.7 L 361.5,324.2 L 364.1,324.8 L 366.7,325.3 L 369.3,325.8 L 371.8,326.3 L 374.4,326.8 L 377.0,327.3 L 379.6,327.8 L 382.2,328.3 L 384.7,328.8 L 387.3,329.3 L 389.9,329.8 L 392.5,330.3 L 395.1,330.7 L 397.6,331.2 L 400.2,331.7 L 402.8,332.1 L 405.4,332.6 L 408.0,333.0 L 410.5,333.5 L 413.1,333.9 L 415.7,334.4 L 418.3,334.8 L 420.9,335.2 L 423.4,335.7 L 426.0,336.1 L 428.6,336.5 L 431.2,336.9 L 433.8,337.4 L 436.3,337.8 L 438.9,338.2 L 441.5,338.6 L 444.1,339.0 L 446.7,339.4 L 449.2,339.8 L 451.8,340.1 L 454.4,340.5 L 457.0,340.9 L 459.6,341.3 L 462.1,341.7 L 464.7,342.0 L 467.3,342.4 L 469.9,342.8 L 472.5,343.1 L 475.0,343.5 L 477.6,343.8 L 480.2,344.2 L 482.8,344.6 L 485.4,344.9 L 487.9,345.3 L 490.5,345.6 L 493.1,346.0 L 495.7,346.3 L 498.3,346.6 L 500.8,347.0 L 503.4,347.3 L 506.0,347.7 L 508.6,348.0 L 511.2,348.4 L 513.7,348.7 L 516.3,349.1 L 518.9,349.4 L 521.5,349.8 L 524.1,350.1 L 526.6,350.5 L 529.2,350.8 L 531.8,351.2 L 534.4,351.5 L 537.0,351.8 L 539.5,352.2 L 542.1,352.5 L 544.7,352.8 L 547.3,353.1 L 549.9,353.4 L 552.4,353.6 L 555.0,353.9 L 557.6,354.2 L 560.2,354.4 L 562.8,354.7 L 565.3,354.9 L 567.9,355.1 L 570.5,355.3 L 573.1,355.5 L 575.7,355.7 L 578.2,355.9 L 580.8,356.1 L 583.4,356.3 L 586.0,356.4 L 588.6,356.6 L 591.1,356.7 L 593.7,356.9 L 596.3,357.0 L 598.9,357.2 L 601.5,357.3 L 604.0,357.4 L 606.6,357.5 L 609.2,357.6 L 611.8,357.8 L 614.4,357.9 L 616.9,358.0 L 619.5,358.1 L 622.1,358.2 L 624.7,358.3 L 627.3,358.3 L 629.8,358.4 L 632.4,358.5 L 635.0,358.6" class="sig"/>
<path d="M 75.7,305.4 L 81.3,282.7 L 87.0,266.6 L 92.6,254.2 L 98.2,244.4 L 103.9,236.6 L 109.5,230.2 L 115.2,224.2 L 120.9,218.7 L 126.5,213.5 L 132.1,208.8 L 137.8,204.5 L 143.4,200.5 L 149.1,197.0 L 154.8,193.5 L 160.4,190.1 L 166.1,186.8 L 171.7,183.5 L 177.3,180.2 L 183.0,177.1 L 188.6,174.0 L 194.3,171.0 L 199.9,168.0 L 205.6,165.2 L 211.2,162.4 L 216.9,159.7 L 222.6,157.1 L 228.2,154.6 L 233.9,152.1 L 239.5,149.7 L 245.2,147.4 L 250.8,145.2 L 256.5,143.0 L 262.1,140.8 L 267.8,138.7 L 273.4,136.7 L 279.0,134.7 L 284.7,132.7 L 290.4,130.8 L 296.0,128.9 L 301.6,127.0 L 307.3,125.2 L 312.9,123.5 L 318.6,121.7 L 324.2,120.1 L 329.9,118.4 L 335.6,116.8 L 341.2,115.3 L 346.9,113.7 L 352.5,112.2 L 358.1,110.8 L 363.8,109.4 L 369.4,108.0 L 375.1,106.7 L 380.8,105.3 L 386.4,104.1 L 392.0,102.8 L 397.7,101.6 L 403.3,100.5 L 409.0,99.4 L 414.6,98.3 L 420.3,97.2 L 425.9,96.2 L 431.6,95.2 L 437.2,94.2 L 442.9,93.3 L 448.6,92.4 L 454.2,91.5 L 459.9,90.7 L 465.5,89.9 L 471.1,89.1 L 476.8,88.4 L 482.4,87.7 L 488.1,87.0 L 493.8,86.4 L 499.4,85.7 L 505.1,85.2 L 510.7,84.6 L 516.3,84.1 L 522.0,83.7 L 527.7,83.4 L 533.3,83.2 L 539.0,83.2 L 544.6,83.2 L 550.2,83.4 L 555.9,83.7 L 561.6,84.1 L 567.2,84.6 L 572.9,85.3 L 578.5,86.0 L 584.1,86.9 L 589.8,87.9 L 595.4,89.0 L 601.1,90.2 L 606.8,91.6 L 612.4,93.0 L 618.1,94.4 L 623.7,95.8 L 629.4,97.2 L 635.0,98.5" class="nt"/>
<path d="M 74.7,310.7 L 79.4,270.8 L 84.1,232.9 L 88.8,201.2 L 93.5,175.7 L 98.2,157.0 L 103.0,143.9 L 107.7,135.5 L 112.4,129.8 L 117.1,125.1 L 121.8,120.5 L 126.5,116.3 L 131.2,113.0 L 135.9,111.0 L 140.6,110.5 L 145.3,111.9 L 150.0,114.6 L 154.8,117.8 L 159.5,120.4 L 164.2,122.4 L 168.9,123.5 L 173.6,124.0 L 178.3,124.2 L 183.0,124.0 L 187.7,123.6 L 192.4,123.0 L 197.1,122.3 L 201.8,121.5 L 206.5,120.7 L 211.2,120.0 L 216.0,119.2 L 220.7,118.6 L 225.4,118.0 L 230.1,117.6 L 234.8,117.4 L 239.5,117.5 L 244.2,117.8 L 248.9,118.5 L 253.6,119.3 L 258.3,120.1 L 263.0,120.7 L 267.8,121.1 L 272.5,121.4 L 277.2,121.5 L 281.9,121.5 L 286.6,121.4 L 291.3,121.2 L 296.0,121.1 L 300.7,120.8 L 305.4,120.6 L 310.1,120.4 L 314.8,120.1 L 319.5,119.9 L 324.2,119.7 L 329.0,119.5 L 333.7,119.3 L 338.4,119.1 L 343.1,119.0 L 347.8,118.9 L 352.5,118.8 L 357.2,118.7 L 361.9,118.7 L 366.6,118.7 L 371.3,118.8 L 376.0,118.8 L 380.8,119.0 L 385.5,119.1 L 390.2,119.3 L 394.9,119.5 L 399.6,119.8 L 404.3,120.0 L 409.0,120.4 L 413.7,120.7 L 418.4,121.1 L 423.1,121.5 L 427.8,121.9 L 432.5,122.3 L 437.2,122.8 L 442.0,123.3 L 446.7,123.7 L 451.4,124.2 L 456.1,124.6 L 460.8,125.1 L 465.5,125.4 L 470.2,125.7 L 474.9,125.9 L 479.6,126.0 L 484.3,125.9 L 489.0,125.5 L 493.8,124.8 L 498.5,123.7 L 503.2,122.1 L 507.9,120.2 L 512.6,118.2 L 517.3,116.5 L 522.0,115.7 L 526.7,116.0 L 531.4,117.6 L 536.1,120.4 L 540.8,124.2 L 545.5,128.8 L 550.2,134.1 L 555.0,140.0 L 559.7,146.3 L 564.4,152.9 L 569.1,159.7 L 573.8,166.6 L 578.5,173.4 L 583.2,180.1 L 587.9,186.5 L 592.6,192.7 L 597.3,198.4 L 602.0,203.6 L 606.8,208.4 L 611.5,212.7 L 616.2,216.6 L 620.9,220.1 L 625.6,223.3 L 630.3,226.3 L 635.0,229.0" class="fw"/>
<line x1="85.29194110430322" y1="180.81078108903608" x2="85.29194110430322" y2="223.1531302639703" class="err"/>
<line x1="82.29194110430322" y1="180.81078108903608" x2="88.29194110430322" y2="180.81078108903608" class="err"/>
<line x1="82.29194110430322" y1="223.1531302639703" x2="88.29194110430322" y2="223.1531302639703" class="err"/>
<circle cx="85.29194110430322" cy="201.9819556765032" r="2.5" class="obs"/>
<line x1="100.58388220860644" y1="142.70266683159522" x2="100.58388220860644" y2="163.8738414190624" class="err"/>
<line x1="97.58388220860644" y1="142.70266683159522" x2="103.58388220860644" y2="142.70266683159522" class="err"/>
<line x1="97.58388220860644" y1="163.8738414190624" x2="103.58388220860644" y2="163.8738414190624" class="err"/>
<circle cx="100.58388220860644" cy="153.28825412532882" r="2.5" class="obs"/>
<line x1="115.87582331290966" y1="127.88284462036827" x2="115.87582331290966" y2="136.35131445535512" class="err"/>
<line x1="112.87582331290966" y1="127.88284462036827" x2="118.87582331290966" y2="127.88284462036827" class="err"/>
<line x1="112.87582331290966" y1="136.35131445535512" x2="118.87582331290966" y2="136.35131445535512" class="err"/>
<circle cx="115.87582331290966" cy="132.11707953786168" r="2.5" class="obs"/>
<line x1="131.16776441721288" y1="110.94590495039458" x2="131.16776441721288" y2="119.41437478538141" class="err"/>
<line x1="128.16776441721288" y1="110.94590495039458" x2="134.16776441721288" y2="110.94590495039458" class="err"/>
<line x1="128.16776441721288" y1="119.41437478538141" x2="134.16776441721288" y2="119.41437478538141" class="err"/>
<circle cx="131.16776441721288" cy="115.18013986788799" r="2.5" class="obs"/>
<line x1="146.25849577014367" y1="104.59455257415442" x2="146.25849577014367" y2="113.06302240914128" class="err"/>
<line x1="143.25849577014367" y1="104.59455257415442" x2="149.25849577014367" y2="104.59455257415442" class="err"/>
<line x1="143.25849577014367" y1="113.06302240914128" x2="149.25849577014367" y2="113.06302240914128" class="err"/>
<circle cx="146.25849577014367" cy="108.82878749164783" r="2.5" class="obs"/>
<line x1="161.55043687444692" y1="104.59455257415442" x2="161.55043687444692" y2="113.06302240914128" class="err"/>
<line x1="158.55043687444692" y1="104.59455257415442" x2="164.55043687444692" y2="104.59455257415442" class="err"/>
<line x1="158.55043687444692" y1="113.06302240914128" x2="164.55043687444692" y2="113.06302240914128" class="err"/>
<circle cx="161.55043687444692" cy="108.82878749164783" r="2.5" class="obs"/>
<line x1="176.8423779787501" y1="113.06302240914128" x2="176.8423779787501" y2="121.53149224412812" class="err"/>
<line x1="173.8423779787501" y1="113.06302240914128" x2="179.8423779787501" y2="113.06302240914128" class="err"/>
<line x1="173.8423779787501" y1="121.53149224412812" x2="179.8423779787501" y2="121.53149224412812" class="err"/>
<circle cx="176.8423779787501" cy="117.2972573266347" r="2.5" class="obs"/>
<line x1="192.13431908305336" y1="115.18013986788799" x2="192.13431908305336" y2="123.64860970287482" class="err"/>
<line x1="189.13431908305336" y1="115.18013986788799" x2="195.13431908305336" y2="115.18013986788799" class="err"/>
<line x1="189.13431908305336" y1="123.64860970287482" x2="195.13431908305336" y2="123.64860970287482" class="err"/>
<circle cx="192.13431908305336" cy="119.41437478538141" r="2.5" class="obs"/>
<line x1="207.42626018735655" y1="115.18013986788799" x2="207.42626018735655" y2="123.64860970287482" class="err"/>
<line x1="204.42626018735655" y1="115.18013986788799" x2="210.42626018735655" y2="115.18013986788799" class="err"/>
<line x1="204.42626018735655" y1="123.64860970287482" x2="210.42626018735655" y2="123.64860970287482" class="err"/>
<circle cx="207.42626018735655" cy="119.41437478538141" r="2.5" class="obs"/>
<line x1="222.71820129165977" y1="115.18013986788799" x2="222.71820129165977" y2="123.64860970287482" class="err"/>
<line x1="219.71820129165977" y1="115.18013986788799" x2="225.71820129165977" y2="115.18013986788799" class="err"/>
<line x1="219.71820129165977" y1="123.64860970287482" x2="225.71820129165977" y2="123.64860970287482" class="err"/>
<circle cx="222.71820129165977" cy="119.41437478538141" r="2.5" class="obs"/>
<line x1="238.010142395963" y1="119.41437478538141" x2="238.010142395963" y2="123.64860970287482" class="err"/>
<line x1="235.010142395963" y1="119.41437478538141" x2="241.010142395963" y2="119.41437478538141" class="err"/>
<line x1="235.010142395963" y1="123.64860970287482" x2="241.010142395963" y2="123.64860970287482" class="err"/>
<circle cx="238.010142395963" cy="121.53149224412812" r="2.5" class="obs"/>
<line x1="253.3020835002662" y1="119.41437478538141" x2="253.3020835002662" y2="123.64860970287482" class="err"/>
<line x1="250.3020835002662" y1="119.41437478538141" x2="256.30208350026624" y2="119.41437478538141" class="err"/>
<line x1="250.3020835002662" y1="123.64860970287482" x2="256.30208350026624" y2="123.64860970287482" class="err"/>
<circle cx="253.3020835002662" cy="121.53149224412812" r="2.5" class="obs"/>
<line x1="268.392814853197" y1="117.2972573266347" x2="268.392814853197" y2="121.53149224412812" class="err"/>
<line x1="265.392814853197" y1="117.2972573266347" x2="271.392814853197" y2="117.2972573266347" class="err"/>
<line x1="265.392814853197" y1="121.53149224412812" x2="271.392814853197" y2="121.53149224412812" class="err"/>
<circle cx="268.392814853197" cy="119.41437478538141" r="2.5" class="obs"/>
<line x1="284.0871754602451" y1="115.18013986788799" x2="284.0871754602451" y2="119.41437478538141" class="err"/>
<line x1="281.0871754602451" y1="115.18013986788799" x2="287.0871754602451" y2="115.18013986788799" class="err"/>
<line x1="281.0871754602451" y1="119.41437478538141" x2="287.0871754602451" y2="119.41437478538141" class="err"/>
<circle cx="284.0871754602451" cy="117.2972573266347" r="2.5" class="obs"/>
<line x1="298.97669706180346" y1="115.18013986788799" x2="298.97669706180346" y2="119.41437478538141" class="err"/>
<line x1="295.97669706180346" y1="115.18013986788799" x2="301.97669706180346" y2="115.18013986788799" class="err"/>
<line x1="295.97669706180346" y1="119.41437478538141" x2="301.97669706180346" y2="119.41437478538141" class="err"/>
<circle cx="298.97669706180346" cy="117.2972573266347" r="2.5" class="obs"/>
<line x1="313.86621866336185" y1="113.06302240914128" x2="313.86621866336185" y2="117.2972573266347" class="err"/>
<line x1="310.86621866336185" y1="113.06302240914128" x2="316.86621866336185" y2="113.06302240914128" class="err"/>
<line x1="310.86621866336185" y1="117.2972573266347" x2="316.86621866336185" y2="117.2972573266347" class="err"/>
<circle cx="313.86621866336185" cy="115.18013986788799" r="2.5" class="obs"/>
<line x1="328.75574026492023" y1="115.18013986788799" x2="328.75574026492023" y2="119.41437478538141" class="err"/>
<line x1="325.75574026492023" y1="115.18013986788799" x2="331.75574026492023" y2="115.18013986788799" class="err"/>
<line x1="325.75574026492023" y1="119.41437478538141" x2="331.75574026492023" y2="119.41437478538141" class="err"/>
<circle cx="328.75574026492023" cy="117.2972573266347" r="2.5" class="obs"/>
<line x1="345.65735938020276" y1="117.2972573266347" x2="345.65735938020276" y2="121.53149224412812" class="err"/>
<line x1="342.65735938020276" y1="117.2972573266347" x2="348.65735938020276" y2="117.2972573266347" class="err"/>
<line x1="342.65735938020276" y1="121.53149224412812" x2="348.65735938020276" y2="121.53149224412812" class="err"/>
<circle cx="345.65735938020276" cy="119.41437478538141" r="2.5" class="obs"/>
<line x1="360.5468809817611" y1="119.41437478538141" x2="360.5468809817611" y2="123.64860970287482" class="err"/>
<line x1="357.5468809817611" y1="119.41437478538141" x2="363.5468809817611" y2="119.41437478538141" class="err"/>
<line x1="357.5468809817611" y1="123.64860970287482" x2="363.5468809817611" y2="123.64860970287482" class="err"/>
<circle cx="360.5468809817611" cy="121.53149224412812" r="2.5" class="obs"/>
<line x1="375.43640258331953" y1="115.18013986788799" x2="375.43640258331953" y2="119.41437478538141" class="err"/>
<line x1="372.43640258331953" y1="115.18013986788799" x2="378.43640258331953" y2="115.18013986788799" class="err"/>
<line x1="372.43640258331953" y1="119.41437478538141" x2="378.43640258331953" y2="119.41437478538141" class="err"/>
<circle cx="375.43640258331953" cy="117.2972573266347" r="2.5" class="obs"/>
<line x1="390.1247144335055" y1="117.2972573266347" x2="390.1247144335055" y2="121.53149224412812" class="err"/>
<line x1="387.1247144335055" y1="117.2972573266347" x2="393.1247144335055" y2="117.2972573266347" class="err"/>
<line x1="387.1247144335055" y1="121.53149224412812" x2="393.1247144335055" y2="121.53149224412812" class="err"/>
<circle cx="390.1247144335055" cy="119.41437478538141" r="2.5" class="obs"/>
<line x1="405.0142360350639" y1="117.2972573266347" x2="405.0142360350639" y2="125.76572716162153" class="err"/>
<line x1="402.0142360350639" y1="117.2972573266347" x2="408.0142360350639" y2="117.2972573266347" class="err"/>
<line x1="402.0142360350639" y1="125.76572716162153" x2="408.0142360350639" y2="125.76572716162153" class="err"/>
<circle cx="405.0142360350639" cy="121.53149224412812" r="2.5" class="obs"/>
<line x1="421.9158551503464" y1="117.2972573266347" x2="421.9158551503464" y2="125.76572716162153" class="err"/>
<line x1="418.9158551503464" y1="117.2972573266347" x2="424.9158551503464" y2="117.2972573266347" class="err"/>
<line x1="418.9158551503464" y1="125.76572716162153" x2="424.9158551503464" y2="125.76572716162153" class="err"/>
<circle cx="421.9158551503464" cy="121.53149224412812" r="2.5" class="obs"/>
<line x1="436.8053767519049" y1="117.2972573266347" x2="436.8053767519049" y2="125.76572716162153" class="err"/>
<line x1="433.8053767519049" y1="117.2972573266347" x2="439.8053767519049" y2="117.2972573266347" class="err"/>
<line x1="433.8053767519049" y1="125.76572716162153" x2="439.8053767519049" y2="125.76572716162153" class="err"/>
<circle cx="436.8053767519049" cy="121.53149224412812" r="2.5" class="obs"/>
<line x1="451.6948983534632" y1="119.41437478538141" x2="451.6948983534632" y2="127.88284462036827" class="err"/>
<line x1="448.6948983534632" y1="119.41437478538141" x2="454.6948983534632" y2="119.41437478538141" class="err"/>
<line x1="448.6948983534632" y1="127.88284462036827" x2="454.6948983534632" y2="127.88284462036827" class="err"/>
<circle cx="451.6948983534632" cy="123.64860970287482" r="2.5" class="obs"/>
<line x1="466.58441995502164" y1="117.2972573266347" x2="466.58441995502164" y2="125.76572716162153" class="err"/>
<line x1="463.58441995502164" y1="117.2972573266347" x2="469.58441995502164" y2="117.2972573266347" class="err"/>
<line x1="463.58441995502164" y1="125.76572716162153" x2="469.58441995502164" y2="125.76572716162153" class="err"/>
<circle cx="466.58441995502164" cy="121.53149224412812" r="2.5" class="obs"/>
<line x1="481.47394155658" y1="119.41437478538141" x2="481.47394155658" y2="127.88284462036827" class="err"/>
<line x1="478.47394155658" y1="119.41437478538141" x2="484.47394155658" y2="119.41437478538141" class="err"/>
<line x1="478.47394155658" y1="127.88284462036827" x2="484.47394155658" y2="127.88284462036827" class="err"/>
<circle cx="481.47394155658" cy="123.64860970287482" r="2.5" class="obs"/>
<line x1="498.37556067186244" y1="115.18013986788799" x2="498.37556067186244" y2="123.64860970287482" class="err"/>
<line x1="495.37556067186244" y1="115.18013986788799" x2="501.37556067186244" y2="115.18013986788799" class="err"/>
<line x1="495.37556067186244" y1="123.64860970287482" x2="501.37556067186244" y2="123.64860970287482" class="err"/>
<circle cx="498.37556067186244" cy="119.41437478538141" r="2.5" class="obs"/>
<line x1="513.265082273421" y1="115.18013986788799" x2="513.265082273421" y2="127.88284462036827" class="err"/>
<line x1="510.26508227342094" y1="115.18013986788799" x2="516.265082273421" y2="115.18013986788799" class="err"/>
<line x1="510.26508227342094" y1="127.88284462036827" x2="516.265082273421" y2="127.88284462036827" class="err"/>
<circle cx="513.265082273421" cy="121.53149224412812" r="2.5" class="obs"/>
<line x1="527.9533941236069" y1="106.71167003290113" x2="527.9533941236069" y2="123.64860970287482" class="err"/>
<line x1="524.9533941236069" y1="106.71167003290113" x2="530.9533941236069" y2="106.71167003290113" class="err"/>
<line x1="524.9533941236069" y1="123.64860970287482" x2="530.9533941236069" y2="123.64860970287482" class="err"/>
<circle cx="527.9533941236069" cy="115.18013986788799" r="2.5" class="obs"/>
<line x1="542.8429157251653" y1="100.36031765666101" x2="542.8429157251653" y2="142.70266683159522" class="err"/>
<line x1="539.8429157251653" y1="100.36031765666101" x2="545.8429157251653" y2="100.36031765666101" class="err"/>
<line x1="539.8429157251653" y1="142.70266683159522" x2="545.8429157251653" y2="142.70266683159522" class="err"/>
<circle cx="542.8429157251653" cy="121.53149224412812" r="2.5" class="obs"/>
<g class="legend">
<line x1="82" y1="69" x2="106" y2="69" class="fw"/>
<text x="112" y="73" class="lbl-l">framework fit</text>
<line x1="82" y1="87" x2="106" y2="87" class="nt"/>
<text x="112" y="91" class="lbl-l">Newtonian (no halo)</text>
<circle cx="94" cy="105" r="2.5" class="obs"/>
<text x="112" y="109" class="lbl">observed V±err</text>
</g>
<g class="legend">
<line x1="460" y1="69" x2="484" y2="69" class="rho"/>
<text x="490" y="73" class="lbl-r">ρ(r) raw</text>
<line x1="460" y1="87" x2="484" y2="87" class="sig"/>
<text x="490" y="91" class="lbl-r">Σ(r) smoothed</text>
<text x="460" y="113" class="lbl-r">ρ peak: 218 M☉/pc²</text>
</g>
</svg>