<svg xmlns="http://www.w3.org/2000/svg" viewBox="0 0 890 420" width="890" height="420" font-family="sans-serif" font-size="12">
<style>
  .ax { stroke: #333; stroke-width: 1; fill: none; }
  .grid { stroke: #ddd; stroke-width: 0.5; fill: none; }
  .lbl { fill: #333; }
  .lbl-l { fill: #0066cc; }
  .lbl-r { fill: #b03030; }
  .obs { fill: #222; }
  .err { stroke: #555; stroke-width: 0.8; fill: none; }
  .fw { stroke: #0066cc; stroke-width: 2.2; fill: none; }
  .nt { stroke: #cc6600; stroke-width: 1.6; fill: none; stroke-dasharray: 5,3; }
  .lbl-s { fill: #cc7000; }
  .rho { stroke: #b03030; stroke-width: 2.0; fill: none; }
  .sig { stroke: #cc7000; stroke-width: 1.8; fill: none; }
  .title { fill: #111; font-size: 16px; font-weight: 600; }
  .subtitle { fill: #555; font-size: 11px; }
  .preview-bg { fill: #000; }
  .preview-lbl { fill: #888; font-size: 10px; }
  .legend { font-size: 11px; }
</style>
<text x="343.5" y="22" text-anchor="middle" class="title">NGC6015</text>
<text x="343.5" y="38" text-anchor="middle" class="subtitle">rMax=29.2 kpc, N=44, RMS=4.4 km/s (3.1%), amp=2383</text>
<line x1="70" y1="365.0" x2="617" y2="365.0" class="grid"/>
<text x="64" y="369.0" text-anchor="end" class="lbl-l">0</text>
<line x1="70" y1="303.0" x2="617" y2="303.0" class="grid"/>
<text x="64" y="307.0" text-anchor="end" class="lbl-l">50</text>
<line x1="70" y1="241.0" x2="617" y2="241.0" class="grid"/>
<text x="64" y="245.0" text-anchor="end" class="lbl-l">100</text>
<line x1="70" y1="179.0" x2="617" y2="179.0" class="grid"/>
<text x="64" y="183.0" text-anchor="end" class="lbl-l">150</text>
<line x1="70" y1="117.0" x2="617" y2="117.0" class="grid"/>
<text x="64" y="121.0" text-anchor="end" class="lbl-l">200</text>
<line x1="70" y1="55.0" x2="617" y2="55.0" class="grid"/>
<text x="64" y="59.0" text-anchor="end" class="lbl-l">250</text>
<text x="623" y="369.0" text-anchor="start" class="lbl-r">0.0</text>
<text x="623" y="327.7" text-anchor="start" class="lbl-r">0.2</text>
<text x="623" y="286.3" text-anchor="start" class="lbl-r">0.4</text>
<text x="623" y="245.0" text-anchor="start" class="lbl-r">0.6</text>
<text x="623" y="203.7" text-anchor="start" class="lbl-r">0.8</text>
<text x="623" y="162.3" text-anchor="start" class="lbl-r">1.0</text>
<line x1="70.0" y1="55" x2="70.0" y2="365" class="grid"/>
<text x="70.0" y="381" text-anchor="middle" class="lbl">0.0</text>
<line x1="161.2" y1="55" x2="161.2" y2="365" class="grid"/>
<text x="161.2" y="381" text-anchor="middle" class="lbl">5.9</text>
<line x1="252.3" y1="55" x2="252.3" y2="365" class="grid"/>
<text x="252.3" y="381" text-anchor="middle" class="lbl">11.7</text>
<line x1="343.5" y1="55" x2="343.5" y2="365" class="grid"/>
<text x="343.5" y="381" text-anchor="middle" class="lbl">17.6</text>
<line x1="434.7" y1="55" x2="434.7" y2="365" class="grid"/>
<text x="434.7" y="381" text-anchor="middle" class="lbl">23.4</text>
<line x1="525.8" y1="55" x2="525.8" y2="365" class="grid"/>
<text x="525.8" y="381" text-anchor="middle" class="lbl">29.3</text>
<line x1="617.0" y1="55" x2="617.0" y2="365" class="grid"/>
<text x="617.0" y="381" text-anchor="middle" class="lbl">35.2</text>
<text x="343.5" y="408" text-anchor="middle" class="lbl">radius (kpc)</text>
<text x="16" y="210" text-anchor="middle" class="lbl-l" transform="rotate(-90, 16, 210)">velocity (km/s)</text>
<text x="874" y="210" text-anchor="middle" class="lbl-r" transform="rotate(-90, 874, 210)">mass profile (normalized to peak)</text>
<rect x="70" y="55" width="547" height="310" class="ax"/>
<path d="M 70.0,158.3 L 72.5,163.0 L 75.0,167.8 L 77.5,172.5 L 80.0,177.2 L 82.5,181.9 L 85.0,186.6 L 87.5,191.3 L 90.0,196.0 L 92.5,200.8 L 95.0,203.1 L 97.5,205.1 L 100.0,207.2 L 102.5,209.2 L 105.0,211.3 L 107.5,213.3 L 110.0,215.4 L 112.5,217.4 L 115.0,219.5 L 117.5,221.5 L 120.0,223.6 L 122.5,225.6 L 124.9,227.7 L 127.4,229.7 L 129.9,231.8 L 132.4,233.8 L 134.9,235.9 L 137.4,237.0 L 139.9,237.9 L 142.4,238.7 L 144.9,239.6 L 147.4,240.4 L 149.9,241.3 L 152.4,242.1 L 154.9,243.0 L 157.4,243.9 L 159.9,244.7 L 162.4,245.6 L 164.9,246.4 L 167.4,247.3 L 169.9,248.1 L 172.4,249.0 L 174.9,249.9 L 177.4,250.7 L 179.9,251.6 L 182.4,252.2 L 184.9,252.7 L 187.4,253.2 L 189.9,253.7 L 192.4,254.2 L 194.9,254.7 L 197.4,255.2 L 199.9,255.7 L 202.4,256.2 L 204.9,256.7 L 207.4,257.1 L 209.9,257.6 L 212.4,258.1 L 214.9,258.6 L 217.4,259.1 L 219.9,259.6 L 222.4,260.1 L 224.9,260.6 L 227.4,261.1 L 229.9,261.6 L 232.4,262.1 L 234.8,262.6 L 237.3,263.1 L 239.8,263.6 L 242.3,264.1 L 244.8,264.5 L 247.3,265.0 L 249.8,265.5 L 252.3,266.0 L 254.8,266.5 L 257.3,267.0 L 259.8,267.5 L 262.3,268.0 L 264.8,268.5 L 267.3,269.0 L 269.8,269.5 L 272.3,270.0 L 274.8,270.5 L 277.3,271.0 L 279.8,271.5 L 282.3,271.9 L 284.8,272.4 L 287.3,272.9 L 289.8,273.4 L 292.3,273.9 L 294.8,274.4 L 297.3,274.9 L 299.8,275.4 L 302.3,275.9 L 304.8,276.4 L 307.3,276.9 L 309.8,277.4 L 312.3,277.9 L 314.8,278.4 L 317.3,278.9 L 319.8,279.3 L 322.3,279.8 L 324.8,280.3 L 327.3,280.8 L 329.8,281.3 L 332.3,281.8 L 334.8,282.3 L 337.3,282.8 L 339.8,283.3 L 342.3,283.8 L 344.7,284.3 L 347.2,284.8 L 349.7,285.3 L 352.2,285.8 L 354.7,286.3 L 357.2,286.7 L 359.7,287.2 L 362.2,287.7 L 364.7,288.2 L 367.2,288.7 L 369.7,289.2 L 372.2,289.7 L 374.7,290.2 L 377.2,290.7 L 379.7,291.2 L 382.2,291.7 L 384.7,292.2 L 387.2,292.7 L 389.7,293.2 L 392.2,293.7 L 394.7,294.1 L 397.2,294.6 L 399.7,295.1 L 402.2,295.6 L 404.7,296.1 L 407.2,296.6 L 409.7,297.1 L 412.2,297.6 L 414.7,298.1 L 417.2,298.6 L 419.7,299.1 L 422.2,299.6 L 424.7,300.1 L 427.2,300.6 L 429.7,301.1 L 432.2,301.6 L 434.7,302.0 L 437.2,302.5 L 439.7,303.0 L 442.2,303.5 L 444.7,304.0 L 447.2,304.5 L 449.7,305.0 L 452.2,305.5 L 454.6,306.0 L 457.1,306.5 L 459.6,307.0 L 462.1,307.5 L 464.6,308.0 L 467.1,308.5 L 469.6,309.0 L 472.1,309.4 L 474.6,309.9 L 477.1,310.4 L 479.6,310.9 L 482.1,311.4 L 484.6,311.9 L 487.1,312.4 L 489.6,312.9 L 492.1,313.4 L 494.6,313.9 L 497.1,314.5 L 499.6,315.8 L 502.1,317.2 L 504.6,318.5 L 507.1,319.9 L 509.6,321.2 L 512.1,322.6 L 514.6,323.9 L 517.1,325.3 L 519.6,326.6 L 522.1,327.9 L 524.6,329.3 L 527.1,330.6 L 529.6,332.0 L 532.1,333.3 L 534.6,334.7 L 537.1,336.0 L 539.6,337.3 L 542.1,338.7 L 544.6,340.0 L 547.1,341.4 L 549.6,342.7 L 552.1,344.1 L 554.6,345.4 L 557.1,346.8 L 559.6,348.1 L 562.1,349.4 L 564.5,350.8 L 567.0,352.1 L 569.5,353.5 L 572.0,354.8 L 574.5,356.2 L 577.0,357.5 L 579.5,358.9 L 582.0,360.2 L 584.5,361.5 L 587.0,362.9 L 589.5,364.2 L 592.0,365.0 L 594.5,365.0 L 597.0,365.0 L 599.5,365.0 L 602.0,365.0 L 604.5,365.0 L 607.0,365.0 L 609.5,365.0 L 612.0,365.0 L 614.5,365.0 L 617.0,365.0" class="rho"/>
<path d="M 70.0,158.3 L 72.5,159.0 L 75.0,160.2 L 77.5,161.9 L 80.0,164.0 L 82.5,166.4 L 85.0,169.1 L 87.5,172.1 L 90.0,175.1 L 92.5,178.2 L 95.0,181.3 L 97.5,184.4 L 100.0,187.5 L 102.5,190.5 L 105.0,193.6 L 107.5,196.6 L 110.0,199.6 L 112.5,202.5 L 115.0,205.5 L 117.5,208.4 L 120.0,211.2 L 122.5,214.0 L 124.9,216.8 L 127.4,219.5 L 129.9,222.1 L 132.4,224.6 L 134.9,227.0 L 137.4,229.3 L 139.9,231.5 L 142.4,233.6 L 144.9,235.7 L 147.4,237.6 L 149.9,239.5 L 152.4,241.4 L 154.9,243.2 L 157.4,244.9 L 159.9,246.6 L 162.4,248.3 L 164.9,249.9 L 167.4,251.5 L 169.9,253.0 L 172.4,254.5 L 174.9,256.0 L 177.4,257.4 L 179.9,258.8 L 182.4,260.1 L 184.9,261.4 L 187.4,262.7 L 189.9,263.9 L 192.4,265.1 L 194.9,266.3 L 197.4,267.5 L 199.9,268.6 L 202.4,269.7 L 204.9,270.8 L 207.4,271.9 L 209.9,273.0 L 212.4,274.1 L 214.9,275.1 L 217.4,276.1 L 219.9,277.2 L 222.4,278.2 L 224.9,279.2 L 227.4,280.2 L 229.9,281.2 L 232.4,282.1 L 234.8,283.1 L 237.3,284.1 L 239.8,285.0 L 242.3,286.0 L 244.8,286.9 L 247.3,287.8 L 249.8,288.7 L 252.3,289.6 L 254.8,290.6 L 257.3,291.5 L 259.8,292.4 L 262.3,293.2 L 264.8,294.1 L 267.3,295.0 L 269.8,295.9 L 272.3,296.7 L 274.8,297.6 L 277.3,298.4 L 279.8,299.3 L 282.3,300.1 L 284.8,300.9 L 287.3,301.7 L 289.8,302.6 L 292.3,303.4 L 294.8,304.2 L 297.3,305.0 L 299.8,305.8 L 302.3,306.5 L 304.8,307.3 L 307.3,308.1 L 309.8,308.9 L 312.3,309.6 L 314.8,310.4 L 317.3,311.1 L 319.8,311.9 L 322.3,312.6 L 324.8,313.3 L 327.3,314.0 L 329.8,314.8 L 332.3,315.5 L 334.8,316.2 L 337.3,316.9 L 339.8,317.5 L 342.3,318.2 L 344.7,318.9 L 347.2,319.6 L 349.7,320.2 L 352.2,320.9 L 354.7,321.6 L 357.2,322.2 L 359.7,322.8 L 362.2,323.5 L 364.7,324.1 L 367.2,324.7 L 369.7,325.3 L 372.2,325.9 L 374.7,326.5 L 377.2,327.1 L 379.7,327.7 L 382.2,328.3 L 384.7,328.9 L 387.2,329.5 L 389.7,330.0 L 392.2,330.6 L 394.7,331.1 L 397.2,331.7 L 399.7,332.2 L 402.2,332.8 L 404.7,333.3 L 407.2,333.8 L 409.7,334.3 L 412.2,334.8 L 414.7,335.3 L 417.2,335.8 L 419.7,336.3 L 422.2,336.8 L 424.7,337.3 L 427.2,337.8 L 429.7,338.3 L 432.2,338.7 L 434.7,339.2 L 437.2,339.6 L 439.7,340.1 L 442.2,340.5 L 444.7,341.0 L 447.2,341.4 L 449.7,341.8 L 452.2,342.3 L 454.6,342.7 L 457.1,343.1 L 459.6,343.5 L 462.1,343.9 L 464.6,344.3 L 467.1,344.7 L 469.6,345.1 L 472.1,345.5 L 474.6,345.9 L 477.1,346.3 L 479.6,346.7 L 482.1,347.0 L 484.6,347.4 L 487.1,347.8 L 489.6,348.2 L 492.1,348.6 L 494.6,349.0 L 497.1,349.3 L 499.6,349.7 L 502.1,350.1 L 504.6,350.5 L 507.1,350.9 L 509.6,351.3 L 512.1,351.6 L 514.6,352.0 L 517.1,352.3 L 519.6,352.7 L 522.1,353.0 L 524.6,353.4 L 527.1,353.7 L 529.6,354.0 L 532.1,354.3 L 534.6,354.5 L 537.1,354.8 L 539.6,355.1 L 542.1,355.3 L 544.6,355.6 L 547.1,355.8 L 549.6,356.0 L 552.1,356.2 L 554.6,356.4 L 557.1,356.6 L 559.6,356.8 L 562.1,356.9 L 564.5,357.1 L 567.0,357.3 L 569.5,357.4 L 572.0,357.6 L 574.5,357.7 L 577.0,357.8 L 579.5,357.9 L 582.0,358.1 L 584.5,358.2 L 587.0,358.3 L 589.5,358.4 L 592.0,358.5 L 594.5,358.6 L 597.0,358.7 L 599.5,358.8 L 602.0,358.9 L 604.5,359.0 L 607.0,359.0 L 609.5,359.1 L 612.0,359.2 L 614.5,359.3 L 617.0,359.4" class="sig"/>
<path d="M 75.5,314.6 L 80.9,294.9 L 86.4,280.7 L 91.9,269.5 L 97.3,260.1 L 102.8,251.6 L 108.3,244.0 L 113.8,237.1 L 119.2,230.8 L 124.7,225.1 L 130.2,219.8 L 135.6,215.0 L 141.1,210.4 L 146.6,206.0 L 152.1,201.8 L 157.5,197.7 L 163.0,193.8 L 168.5,190.0 L 173.9,186.4 L 179.4,183.0 L 184.9,179.6 L 190.3,176.4 L 195.8,173.2 L 201.3,170.1 L 206.8,167.1 L 212.2,164.2 L 217.7,161.3 L 223.2,158.5 L 228.6,155.8 L 234.1,153.1 L 239.6,150.5 L 245.0,148.0 L 250.5,145.5 L 256.0,143.1 L 261.5,140.8 L 266.9,138.5 L 272.4,136.3 L 277.9,134.1 L 283.3,132.0 L 288.8,129.9 L 294.3,127.9 L 299.7,126.0 L 305.2,124.1 L 310.7,122.2 L 316.1,120.4 L 321.6,118.7 L 327.1,117.0 L 332.6,115.3 L 338.0,113.7 L 343.5,112.1 L 349.0,110.6 L 354.4,109.1 L 359.9,107.7 L 365.4,106.3 L 370.9,105.0 L 376.3,103.6 L 381.8,102.4 L 387.3,101.1 L 392.7,99.9 L 398.2,98.8 L 403.7,97.7 L 409.1,96.6 L 414.6,95.6 L 420.1,94.6 L 425.5,93.6 L 431.0,92.7 L 436.5,91.8 L 442.0,90.9 L 447.4,90.1 L 452.9,89.3 L 458.4,88.5 L 463.8,87.8 L 469.3,87.1 L 474.8,86.5 L 480.3,85.9 L 485.7,85.3 L 491.2,84.7 L 496.7,84.2 L 502.1,83.8 L 507.6,83.5 L 513.1,83.3 L 518.5,83.2 L 524.0,83.2 L 529.5,83.3 L 535.0,83.5 L 540.4,83.9 L 545.9,84.3 L 551.4,84.9 L 556.8,85.6 L 562.3,86.4 L 567.8,87.3 L 573.2,88.3 L 578.7,89.4 L 584.2,90.6 L 589.7,92.0 L 595.1,93.4 L 600.6,94.8 L 606.1,96.2 L 611.5,97.6 L 617.0,98.9" class="nt"/>
<path d="M 74.6,327.0 L 79.1,299.7 L 83.7,274.6 L 88.2,254.7 L 92.8,239.3 L 97.3,227.4 L 101.9,217.1 L 106.5,207.9 L 111.0,199.6 L 115.6,192.4 L 120.1,186.6 L 124.7,182.4 L 129.3,179.9 L 133.8,179.4 L 138.4,179.9 L 142.9,180.8 L 147.5,181.4 L 152.1,181.4 L 156.6,181.1 L 161.2,180.6 L 165.7,180.2 L 170.3,180.1 L 174.8,180.4 L 179.4,181.3 L 184.0,182.3 L 188.5,183.2 L 193.1,183.6 L 197.6,183.6 L 202.2,183.2 L 206.8,182.6 L 211.3,181.7 L 215.9,180.8 L 220.4,179.7 L 225.0,178.6 L 229.5,177.5 L 234.1,176.3 L 238.7,175.1 L 243.2,174.0 L 247.8,172.9 L 252.3,171.8 L 256.9,170.8 L 261.5,169.8 L 266.0,168.8 L 270.6,167.9 L 275.1,167.0 L 279.7,166.2 L 284.2,165.5 L 288.8,164.8 L 293.4,164.2 L 297.9,163.6 L 302.5,163.1 L 307.0,162.6 L 311.6,162.2 L 316.1,161.9 L 320.7,161.6 L 325.3,161.4 L 329.8,161.2 L 334.4,161.1 L 338.9,161.0 L 343.5,161.0 L 348.1,161.1 L 352.6,161.2 L 357.2,161.4 L 361.7,161.6 L 366.3,161.9 L 370.8,162.2 L 375.4,162.6 L 380.0,163.0 L 384.5,163.5 L 389.1,164.0 L 393.6,164.6 L 398.2,165.2 L 402.8,165.8 L 407.3,166.5 L 411.9,167.3 L 416.4,168.0 L 421.0,168.8 L 425.6,169.6 L 430.1,170.5 L 434.7,171.3 L 439.2,172.2 L 443.8,173.0 L 448.3,173.9 L 452.9,174.7 L 457.5,175.5 L 462.0,176.1 L 466.6,176.7 L 471.1,177.0 L 475.7,177.1 L 480.2,176.8 L 484.8,176.1 L 489.4,174.8 L 493.9,173.4 L 498.5,172.2 L 503.0,171.8 L 507.6,172.5 L 512.2,174.4 L 516.7,177.4 L 521.3,181.2 L 525.8,185.7 L 530.4,190.7 L 535.0,196.0 L 539.5,201.5 L 544.1,207.1 L 548.6,212.7 L 553.2,218.3 L 557.7,223.9 L 562.3,229.2 L 566.9,234.3 L 571.4,239.1 L 576.0,243.5 L 580.5,247.7 L 585.1,251.4 L 589.6,254.8 L 594.2,257.8 L 598.8,260.6 L 603.3,263.1 L 607.9,265.3 L 612.4,267.4 L 617.0,269.4" class="fw"/>
<line x1="75.29" y1="318.34" x2="75.29" y2="323.55" class="err"/>
<line x1="72.29" y1="318.34" x2="78.29" y2="318.34" class="err"/>
<line x1="72.29" y1="323.55" x2="78.29" y2="323.55" class="err"/>
<circle cx="75.29" cy="320.95" r="2.5" class="obs"/>
<line x1="80.42" y1="282.36" x2="80.42" y2="292.78" class="err"/>
<line x1="77.42" y1="282.36" x2="83.42" y2="282.36" class="err"/>
<line x1="77.42" y1="292.78" x2="83.42" y2="292.78" class="err"/>
<circle cx="80.42" cy="287.57" r="2.5" class="obs"/>
<line x1="85.55" y1="247.74" x2="85.55" y2="257.17" class="err"/>
<line x1="82.55" y1="247.74" x2="88.55" y2="247.74" class="err"/>
<line x1="82.55" y1="257.17" x2="88.55" y2="257.17" class="err"/>
<circle cx="85.55" cy="252.45" r="2.5" class="obs"/>
<line x1="90.53" y1="233.46" x2="90.53" y2="238.43" class="err"/>
<line x1="87.53" y1="233.46" x2="93.53" y2="233.46" class="err"/>
<line x1="87.53" y1="238.43" x2="93.53" y2="238.43" class="err"/>
<circle cx="90.53" cy="235.95" r="2.5" class="obs"/>
<line x1="95.66" y1="231.73" x2="95.66" y2="237.68" class="err"/>
<line x1="92.66" y1="231.73" x2="98.66" y2="231.73" class="err"/>
<line x1="92.66" y1="237.68" x2="98.66" y2="237.68" class="err"/>
<circle cx="95.66" cy="234.71" r="2.5" class="obs"/>
<line x1="100.79" y1="228.50" x2="100.79" y2="233.46" class="err"/>
<line x1="97.79" y1="228.50" x2="103.79" y2="228.50" class="err"/>
<line x1="97.79" y1="233.46" x2="103.79" y2="233.46" class="err"/>
<circle cx="100.79" cy="230.98" r="2.5" class="obs"/>
<line x1="105.92" y1="218.20" x2="105.92" y2="223.91" class="err"/>
<line x1="102.92" y1="218.20" x2="108.92" y2="218.20" class="err"/>
<line x1="102.92" y1="223.91" x2="108.92" y2="223.91" class="err"/>
<circle cx="105.92" cy="221.06" r="2.5" class="obs"/>
<line x1="110.90" y1="199.59" x2="110.90" y2="207.78" class="err"/>
<line x1="107.90" y1="199.59" x2="113.90" y2="199.59" class="err"/>
<line x1="107.90" y1="207.78" x2="113.90" y2="207.78" class="err"/>
<circle cx="110.90" cy="203.68" r="2.5" class="obs"/>
<line x1="116.03" y1="187.30" x2="116.03" y2="192.76" class="err"/>
<line x1="113.03" y1="187.30" x2="119.03" y2="187.30" class="err"/>
<line x1="113.03" y1="192.76" x2="119.03" y2="192.76" class="err"/>
<circle cx="116.03" cy="190.03" r="2.5" class="obs"/>
<line x1="121.01" y1="181.84" x2="121.01" y2="185.81" class="err"/>
<line x1="118.01" y1="181.84" x2="124.01" y2="181.84" class="err"/>
<line x1="118.01" y1="185.81" x2="124.01" y2="185.81" class="err"/>
<circle cx="121.01" cy="183.83" r="2.5" class="obs"/>
<line x1="126.14" y1="177.13" x2="126.14" y2="180.60" class="err"/>
<line x1="123.14" y1="177.13" x2="129.14" y2="177.13" class="err"/>
<line x1="123.14" y1="180.60" x2="129.14" y2="180.60" class="err"/>
<circle cx="126.14" cy="178.87" r="2.5" class="obs"/>
<line x1="131.27" y1="175.02" x2="131.27" y2="177.75" class="err"/>
<line x1="128.27" y1="175.02" x2="134.27" y2="175.02" class="err"/>
<line x1="128.27" y1="177.75" x2="134.27" y2="177.75" class="err"/>
<circle cx="131.27" cy="176.38" r="2.5" class="obs"/>
<line x1="136.41" y1="171.05" x2="136.41" y2="174.27" class="err"/>
<line x1="133.41" y1="171.05" x2="139.41" y2="171.05" class="err"/>
<line x1="133.41" y1="174.27" x2="139.41" y2="174.27" class="err"/>
<circle cx="136.41" cy="172.66" r="2.5" class="obs"/>
<line x1="141.54" y1="174.15" x2="141.54" y2="178.62" class="err"/>
<line x1="138.54" y1="174.15" x2="144.54" y2="174.15" class="err"/>
<line x1="138.54" y1="178.62" x2="144.54" y2="178.62" class="err"/>
<circle cx="141.54" cy="176.38" r="2.5" class="obs"/>
<line x1="146.83" y1="175.89" x2="146.83" y2="181.84" class="err"/>
<line x1="143.83" y1="175.89" x2="149.83" y2="175.89" class="err"/>
<line x1="143.83" y1="181.84" x2="149.83" y2="181.84" class="err"/>
<circle cx="146.83" cy="178.87" r="2.5" class="obs"/>
<line x1="152.43" y1="175.76" x2="152.43" y2="189.41" class="err"/>
<line x1="149.43" y1="175.76" x2="155.43" y2="175.76" class="err"/>
<line x1="149.43" y1="189.41" x2="155.43" y2="189.41" class="err"/>
<circle cx="152.43" cy="182.59" r="2.5" class="obs"/>
<line x1="157.56" y1="180.35" x2="157.56" y2="189.79" class="err"/>
<line x1="154.56" y1="180.35" x2="160.56" y2="180.35" class="err"/>
<line x1="154.56" y1="189.79" x2="160.56" y2="189.79" class="err"/>
<circle cx="157.56" cy="185.07" r="2.5" class="obs"/>
<line x1="162.69" y1="171.30" x2="162.69" y2="181.47" class="err"/>
<line x1="159.69" y1="171.30" x2="165.69" y2="171.30" class="err"/>
<line x1="159.69" y1="181.47" x2="165.69" y2="181.47" class="err"/>
<circle cx="162.69" cy="176.38" r="2.5" class="obs"/>
<line x1="167.51" y1="178.37" x2="167.51" y2="181.84" class="err"/>
<line x1="164.51" y1="178.37" x2="170.51" y2="178.37" class="err"/>
<line x1="164.51" y1="181.84" x2="170.51" y2="181.84" class="err"/>
<circle cx="167.51" cy="180.11" r="2.5" class="obs"/>
<line x1="198.15" y1="175.14" x2="198.15" y2="185.07" class="err"/>
<line x1="195.15" y1="175.14" x2="201.15" y2="175.14" class="err"/>
<line x1="195.15" y1="185.07" x2="201.15" y2="185.07" class="err"/>
<circle cx="198.15" cy="180.11" r="2.5" class="obs"/>
<line x1="230.18" y1="178.87" x2="230.18" y2="188.79" class="err"/>
<line x1="227.18" y1="178.87" x2="233.18" y2="178.87" class="err"/>
<line x1="227.18" y1="188.79" x2="233.18" y2="188.79" class="err"/>
<circle cx="230.18" cy="183.83" r="2.5" class="obs"/>
<line x1="243.09" y1="176.14" x2="243.09" y2="184.08" class="err"/>
<line x1="240.09" y1="176.14" x2="246.09" y2="176.14" class="err"/>
<line x1="240.09" y1="184.08" x2="246.09" y2="184.08" class="err"/>
<circle cx="243.09" cy="180.11" r="2.5" class="obs"/>
<line x1="255.85" y1="172.91" x2="255.85" y2="179.86" class="err"/>
<line x1="252.85" y1="172.91" x2="258.85" y2="172.91" class="err"/>
<line x1="252.85" y1="179.86" x2="258.85" y2="179.86" class="err"/>
<circle cx="255.85" cy="176.38" r="2.5" class="obs"/>
<line x1="267.82" y1="172.16" x2="267.82" y2="178.12" class="err"/>
<line x1="264.82" y1="172.16" x2="270.82" y2="172.16" class="err"/>
<line x1="264.82" y1="178.12" x2="270.82" y2="178.12" class="err"/>
<circle cx="267.82" cy="175.14" r="2.5" class="obs"/>
<line x1="281.20" y1="168.69" x2="281.20" y2="174.15" class="err"/>
<line x1="278.20" y1="168.69" x2="284.20" y2="168.69" class="err"/>
<line x1="278.20" y1="174.15" x2="284.20" y2="174.15" class="err"/>
<circle cx="281.20" cy="171.42" r="2.5" class="obs"/>
<line x1="294.41" y1="165.46" x2="294.41" y2="172.41" class="err"/>
<line x1="291.41" y1="165.46" x2="297.41" y2="165.46" class="err"/>
<line x1="291.41" y1="172.41" x2="297.41" y2="172.41" class="err"/>
<circle cx="294.41" cy="168.94" r="2.5" class="obs"/>
<line x1="307.79" y1="165.09" x2="307.79" y2="172.78" class="err"/>
<line x1="304.79" y1="165.09" x2="310.79" y2="165.09" class="err"/>
<line x1="304.79" y1="172.78" x2="310.79" y2="172.78" class="err"/>
<circle cx="307.79" cy="168.94" r="2.5" class="obs"/>
<line x1="319.14" y1="162.98" x2="319.14" y2="172.41" class="err"/>
<line x1="316.14" y1="162.98" x2="322.14" y2="162.98" class="err"/>
<line x1="316.14" y1="172.41" x2="322.14" y2="172.41" class="err"/>
<circle cx="319.14" cy="167.70" r="2.5" class="obs"/>
<line x1="332.52" y1="160.75" x2="332.52" y2="169.68" class="err"/>
<line x1="329.52" y1="160.75" x2="335.52" y2="160.75" class="err"/>
<line x1="329.52" y1="169.68" x2="335.52" y2="169.68" class="err"/>
<circle cx="332.52" cy="165.22" r="2.5" class="obs"/>
<line x1="345.74" y1="157.77" x2="345.74" y2="167.70" class="err"/>
<line x1="342.74" y1="157.77" x2="348.74" y2="157.77" class="err"/>
<line x1="342.74" y1="167.70" x2="348.74" y2="167.70" class="err"/>
<circle cx="345.74" cy="162.73" r="2.5" class="obs"/>
<line x1="359.11" y1="158.02" x2="359.11" y2="169.93" class="err"/>
<line x1="356.11" y1="158.02" x2="362.11" y2="158.02" class="err"/>
<line x1="356.11" y1="169.93" x2="362.11" y2="169.93" class="err"/>
<circle cx="359.11" cy="163.97" r="2.5" class="obs"/>
<line x1="370.46" y1="154.42" x2="370.46" y2="168.57" class="err"/>
<line x1="367.46" y1="154.42" x2="373.46" y2="154.42" class="err"/>
<line x1="367.46" y1="168.57" x2="373.46" y2="168.57" class="err"/>
<circle cx="370.46" cy="161.49" r="2.5" class="obs"/>
<line x1="383.84" y1="151.57" x2="383.84" y2="168.94" class="err"/>
<line x1="380.84" y1="151.57" x2="386.84" y2="151.57" class="err"/>
<line x1="380.84" y1="168.94" x2="386.84" y2="168.94" class="err"/>
<circle cx="383.84" cy="160.25" r="2.5" class="obs"/>
<line x1="397.21" y1="151.19" x2="397.21" y2="166.83" class="err"/>
<line x1="394.21" y1="151.19" x2="400.21" y2="151.19" class="err"/>
<line x1="394.21" y1="166.83" x2="400.21" y2="166.83" class="err"/>
<circle cx="397.21" cy="159.01" r="2.5" class="obs"/>
<line x1="410.43" y1="154.05" x2="410.43" y2="171.42" class="err"/>
<line x1="407.43" y1="154.05" x2="413.43" y2="154.05" class="err"/>
<line x1="407.43" y1="171.42" x2="413.43" y2="171.42" class="err"/>
<circle cx="410.43" cy="162.73" r="2.5" class="obs"/>
<line x1="421.94" y1="157.15" x2="421.94" y2="178.24" class="err"/>
<line x1="418.94" y1="157.15" x2="424.94" y2="157.15" class="err"/>
<line x1="418.94" y1="178.24" x2="424.94" y2="178.24" class="err"/>
<circle cx="421.94" cy="167.70" r="2.5" class="obs"/>
<line x1="435.16" y1="161.37" x2="435.16" y2="183.95" class="err"/>
<line x1="432.16" y1="161.37" x2="438.16" y2="161.37" class="err"/>
<line x1="432.16" y1="183.95" x2="438.16" y2="183.95" class="err"/>
<circle cx="435.16" cy="172.66" r="2.5" class="obs"/>
<line x1="448.53" y1="163.97" x2="448.53" y2="183.83" class="err"/>
<line x1="445.53" y1="163.97" x2="451.53" y2="163.97" class="err"/>
<line x1="445.53" y1="183.83" x2="451.53" y2="183.83" class="err"/>
<circle cx="448.53" cy="173.90" r="2.5" class="obs"/>
<line x1="461.75" y1="173.41" x2="461.75" y2="186.81" class="err"/>
<line x1="458.75" y1="173.41" x2="464.75" y2="173.41" class="err"/>
<line x1="458.75" y1="186.81" x2="464.75" y2="186.81" class="err"/>
<circle cx="461.75" cy="180.11" r="2.5" class="obs"/>
<line x1="473.26" y1="171.30" x2="473.26" y2="178.99" class="err"/>
<line x1="470.26" y1="171.30" x2="476.26" y2="171.30" class="err"/>
<line x1="470.26" y1="178.99" x2="476.26" y2="178.99" class="err"/>
<circle cx="473.26" cy="175.14" r="2.5" class="obs"/>
<line x1="486.48" y1="167.70" x2="486.48" y2="175.14" class="err"/>
<line x1="483.48" y1="167.70" x2="489.48" y2="167.70" class="err"/>
<line x1="483.48" y1="175.14" x2="489.48" y2="175.14" class="err"/>
<circle cx="486.48" cy="171.42" r="2.5" class="obs"/>
<line x1="499.86" y1="165.96" x2="499.86" y2="189.29" class="err"/>
<line x1="496.86" y1="165.96" x2="502.86" y2="165.96" class="err"/>
<line x1="496.86" y1="189.29" x2="502.86" y2="189.29" class="err"/>
<circle cx="499.86" cy="177.62" r="2.5" class="obs"/>
<line x1="511.21" y1="159.38" x2="511.21" y2="178.49" class="err"/>
<line x1="508.21" y1="159.38" x2="514.21" y2="159.38" class="err"/>
<line x1="508.21" y1="178.49" x2="514.21" y2="178.49" class="err"/>
<circle cx="511.21" cy="168.94" r="2.5" class="obs"/>
<line x1="524.58" y1="172.16" x2="524.58" y2="180.60" class="err"/>
<line x1="521.58" y1="172.16" x2="527.58" y2="172.16" class="err"/>
<line x1="521.58" y1="180.60" x2="527.58" y2="180.60" class="err"/>
<circle cx="524.58" cy="176.38" r="2.5" class="obs"/>
<g class="legend">
<line x1="82" y1="69" x2="106" y2="69" class="fw"/>
<text x="112" y="73" class="lbl-l">framework fit</text>
<line x1="82" y1="87" x2="106" y2="87" class="nt"/>
<text x="112" y="91" class="lbl-l">Newtonian (no halo)</text>
<circle cx="94" cy="105" r="2.5" class="obs"/>
<text x="112" y="109" class="lbl">observed V±err</text>
</g>
<g class="legend">
<line x1="442" y1="69" x2="466" y2="69" class="rho"/>
<text x="472" y="73" class="lbl-r">ρ(r) raw</text>
<line x1="442" y1="87" x2="466" y2="87" class="sig"/>
<text x="472" y="91" class="lbl-s">Σ(r) cumulative</text>
<text x="442" y="113" class="lbl-r">ρ peak: 359 M☉/pc²</text>
</g>
<rect x="705" y="55" width="170" height="170" class="preview-bg"/>
<defs><radialGradient id="g_NGC6015" cx="0.5" cy="0.5" r="0.5">
  <stop offset="0.0000" stop-color="rgb(135,135,135)"/>
  <stop offset="0.0313" stop-color="rgb(120,120,120)"/>
  <stop offset="0.0625" stop-color="rgb(110,110,110)"/>
  <stop offset="0.0938" stop-color="rgb(104,104,104)"/>
  <stop offset="0.1250" stop-color="rgb(98,98,98)"/>
  <stop offset="0.1563" stop-color="rgb(95,95,95)"/>
  <stop offset="0.1875" stop-color="rgb(92,92,92)"/>
  <stop offset="0.2188" stop-color="rgb(90,90,90)"/>
  <stop offset="0.2500" stop-color="rgb(88,88,88)"/>
  <stop offset="0.2813" stop-color="rgb(87,87,87)"/>
  <stop offset="0.3125" stop-color="rgb(85,85,85)"/>
  <stop offset="0.3438" stop-color="rgb(84,84,84)"/>
  <stop offset="0.3750" stop-color="rgb(82,82,82)"/>
  <stop offset="0.4063" stop-color="rgb(81,81,81)"/>
  <stop offset="0.4375" stop-color="rgb(79,79,79)"/>
  <stop offset="0.4688" stop-color="rgb(78,78,78)"/>
  <stop offset="0.5000" stop-color="rgb(76,76,76)"/>
  <stop offset="0.5313" stop-color="rgb(75,75,75)"/>
  <stop offset="0.5625" stop-color="rgb(73,73,73)"/>
  <stop offset="0.5938" stop-color="rgb(72,72,72)"/>
  <stop offset="0.6250" stop-color="rgb(70,70,70)"/>
  <stop offset="0.6563" stop-color="rgb(68,68,68)"/>
  <stop offset="0.6875" stop-color="rgb(67,67,67)"/>
  <stop offset="0.7188" stop-color="rgb(65,65,65)"/>
  <stop offset="0.7500" stop-color="rgb(64,64,64)"/>
  <stop offset="0.7813" stop-color="rgb(61,61,61)"/>
  <stop offset="0.8125" stop-color="rgb(57,57,57)"/>
  <stop offset="0.8438" stop-color="rgb(49,49,49)"/>
  <stop offset="0.8750" stop-color="rgb(39,39,39)"/>
  <stop offset="0.9063" stop-color="rgb(29,29,29)"/>
  <stop offset="0.9375" stop-color="rgb(19,19,19)"/>
  <stop offset="0.9688" stop-color="rgb(10,10,10)"/>
  <stop offset="1.0000" stop-color="rgb(0,0,0)"/>
</radialGradient></defs>
<circle cx="790" cy="140" r="81" fill="url(#g_NGC6015)"/>
<text x="790" y="49" text-anchor="middle" class="preview-lbl">face-on luminance from ρ(r)</text>
<text x="790" y="239" text-anchor="middle" class="preview-lbl">edge at r = 33.5 kpc</text>
</svg>