<svg xmlns="http://www.w3.org/2000/svg" viewBox="0 0 890 420" width="890" height="420" font-family="sans-serif" font-size="12">
<style>
  .ax { stroke: #333; stroke-width: 1; fill: none; }
  .grid { stroke: #ddd; stroke-width: 0.5; fill: none; }
  .lbl { fill: #333; }
  .lbl-l { fill: #0066cc; }
  .lbl-r { fill: #b03030; }
  .lbl-s { fill: #cc7000; }
  .obs { fill: #222; }
  .err { stroke: #555; stroke-width: 0.8; fill: none; }
  .fw { stroke: #0066cc; stroke-width: 2.2; fill: none; }
  .nt { stroke: #cc6600; stroke-width: 1.6; fill: none; stroke-dasharray: 5,3; }
  .rho { stroke: #b03030; stroke-width: 2.0; fill: none; }
  .sig { stroke: #cc7000; stroke-width: 1.8; fill: none; }
  .title { fill: #111; font-size: 16px; font-weight: 600; }
  .subtitle { fill: #555; font-size: 11px; }
  .legend { font-size: 11px; }
  .preview-bg { fill: #000; }
  .preview-lbl { fill: #888; font-size: 10px; }
</style>
<text x="343.5" y="22" text-anchor="middle" class="title">NGC6503</text>
<text x="343.5" y="38" text-anchor="middle" class="subtitle">rMax=23.5 kpc, N=31, RMS=2.6 km/s (2.3%), amp=445</text>
<line x1="70" y1="365.0" x2="617" y2="365.0" class="grid"/>
<text x="64" y="369.0" text-anchor="end" class="lbl-l">0</text>
<line x1="70" y1="303.0" x2="617" y2="303.0" class="grid"/>
<text x="64" y="307.0" text-anchor="end" class="lbl-l">29</text>
<line x1="70" y1="241.0" x2="617" y2="241.0" class="grid"/>
<text x="64" y="245.0" text-anchor="end" class="lbl-l">59</text>
<line x1="70" y1="179.0" x2="617" y2="179.0" class="grid"/>
<text x="64" y="183.0" text-anchor="end" class="lbl-l">88</text>
<line x1="70" y1="116.99999999999999" x2="617" y2="116.99999999999999" class="grid"/>
<text x="64" y="120.99999999999999" text-anchor="end" class="lbl-l">117</text>
<line x1="70" y1="55.0" x2="617" y2="55.0" class="grid"/>
<text x="64" y="59.0" text-anchor="end" class="lbl-l">146</text>
<text x="623" y="369.0" text-anchor="start" class="lbl-r">0.0</text>
<text x="623" y="327.6666666666667" text-anchor="start" class="lbl-r">0.2</text>
<text x="623" y="286.33333333333337" text-anchor="start" class="lbl-r">0.4</text>
<text x="623" y="245.00000000000003" text-anchor="start" class="lbl-r">0.6</text>
<text x="623" y="203.66666666666666" text-anchor="start" class="lbl-r">0.8</text>
<text x="623" y="162.33333333333334" text-anchor="start" class="lbl-r">1.0</text>
<line x1="70.0" y1="55" x2="70.0" y2="365" class="grid"/>
<text x="70.0" y="381" text-anchor="middle" class="lbl">0.0</text>
<line x1="161.16666666666666" y1="55" x2="161.16666666666666" y2="365" class="grid"/>
<text x="161.16666666666666" y="381" text-anchor="middle" class="lbl">4.7</text>
<line x1="252.33333333333331" y1="55" x2="252.33333333333331" y2="365" class="grid"/>
<text x="252.33333333333331" y="381" text-anchor="middle" class="lbl">9.4</text>
<line x1="343.5" y1="55" x2="343.5" y2="365" class="grid"/>
<text x="343.5" y="381" text-anchor="middle" class="lbl">14.0</text>
<line x1="434.66666666666663" y1="55" x2="434.66666666666663" y2="365" class="grid"/>
<text x="434.66666666666663" y="381" text-anchor="middle" class="lbl">18.7</text>
<line x1="525.8333333333333" y1="55" x2="525.8333333333333" y2="365" class="grid"/>
<text x="525.8333333333333" y="381" text-anchor="middle" class="lbl">23.4</text>
<line x1="617.0" y1="55" x2="617.0" y2="365" class="grid"/>
<text x="617.0" y="381" text-anchor="middle" class="lbl">28.1</text>
<text x="343.5" y="397" text-anchor="middle" class="lbl">radius (kpc)</text>
<text x="16" y="210.0" text-anchor="middle" class="lbl-l" transform="rotate(-90, 16, 210.0)">velocity (km/s)</text>
<text x="661" y="210.0" text-anchor="middle" class="lbl-r" transform="rotate(-90, 661, 210.0)">mass profile (normalized to peak)</text>
<rect x="70" y="55" width="547" height="310" class="ax"/>
<path d="M 70.0,158.3 L 72.5,164.5 L 75.0,170.6 L 77.5,176.7 L 80.0,182.8 L 82.5,189.0 L 85.0,195.1 L 87.5,201.2 L 90.0,207.3 L 92.5,213.5 L 95.0,219.6 L 97.5,225.7 L 100.0,231.9 L 102.5,238.0 L 105.0,243.8 L 107.5,245.8 L 110.0,247.8 L 112.5,249.8 L 115.0,251.8 L 117.5,253.8 L 120.0,255.8 L 122.5,257.8 L 124.9,259.8 L 127.4,261.8 L 129.9,263.8 L 132.4,265.8 L 134.9,267.8 L 137.4,269.7 L 139.9,271.7 L 142.4,273.7 L 144.9,275.7 L 147.4,276.9 L 149.9,277.3 L 152.4,277.8 L 154.9,278.3 L 157.4,278.8 L 159.9,279.3 L 162.4,279.8 L 164.9,280.3 L 167.4,280.8 L 169.9,281.3 L 172.4,281.7 L 174.9,282.2 L 177.4,282.7 L 179.9,283.2 L 182.4,283.7 L 184.9,284.2 L 187.4,284.7 L 189.9,285.2 L 192.4,285.7 L 194.9,286.1 L 197.4,286.6 L 199.9,287.1 L 202.4,287.6 L 204.9,288.1 L 207.4,288.6 L 209.9,289.1 L 212.4,289.6 L 214.9,290.1 L 217.4,290.5 L 219.9,291.0 L 222.4,291.5 L 224.9,292.0 L 227.4,292.5 L 229.9,293.0 L 232.4,293.5 L 234.8,294.0 L 237.3,294.5 L 239.8,294.9 L 242.3,295.4 L 244.8,295.9 L 247.3,296.3 L 249.8,296.6 L 252.3,297.0 L 254.8,297.3 L 257.3,297.6 L 259.8,297.9 L 262.3,298.2 L 264.8,298.6 L 267.3,298.9 L 269.8,299.2 L 272.3,299.5 L 274.8,299.9 L 277.3,300.2 L 279.8,300.5 L 282.3,300.8 L 284.8,301.2 L 287.3,301.5 L 289.8,301.8 L 292.3,302.1 L 294.8,302.4 L 297.3,302.8 L 299.8,303.1 L 302.3,303.4 L 304.8,303.7 L 307.3,304.1 L 309.8,304.4 L 312.3,304.7 L 314.8,305.0 L 317.3,305.4 L 319.8,305.7 L 322.3,306.0 L 324.8,306.3 L 327.3,306.6 L 329.8,307.0 L 332.3,307.3 L 334.8,307.6 L 337.3,307.9 L 339.8,308.3 L 342.3,308.6 L 344.7,308.9 L 347.2,309.2 L 349.7,309.5 L 352.2,309.9 L 354.7,310.2 L 357.2,310.5 L 359.7,310.8 L 362.2,311.2 L 364.7,311.5 L 367.2,311.8 L 369.7,312.1 L 372.2,312.5 L 374.7,312.8 L 377.2,313.1 L 379.7,313.4 L 382.2,313.7 L 384.7,314.1 L 387.2,314.4 L 389.7,314.7 L 392.2,315.0 L 394.7,315.4 L 397.2,315.7 L 399.7,316.0 L 402.2,316.3 L 404.7,316.7 L 407.2,317.0 L 409.7,317.3 L 412.2,317.6 L 414.7,317.9 L 417.2,318.3 L 419.7,318.6 L 422.2,318.9 L 424.7,319.2 L 427.2,319.6 L 429.7,319.9 L 432.2,320.2 L 434.7,320.5 L 437.2,320.9 L 439.7,321.2 L 442.2,321.5 L 444.7,321.8 L 447.2,322.1 L 449.7,322.5 L 452.2,322.8 L 454.6,323.1 L 457.1,323.4 L 459.6,323.8 L 462.1,324.1 L 464.6,324.4 L 467.1,324.7 L 469.6,325.0 L 472.1,325.4 L 474.6,325.7 L 477.1,326.0 L 479.6,326.3 L 482.1,326.7 L 484.6,327.0 L 487.1,327.3 L 489.6,327.6 L 492.1,328.0 L 494.6,328.3 L 497.1,328.6 L 499.6,328.9 L 502.1,329.7 L 504.6,330.7 L 507.1,331.7 L 509.6,332.7 L 512.1,333.7 L 514.6,334.7 L 517.1,335.7 L 519.6,336.7 L 522.1,337.7 L 524.6,338.7 L 527.1,339.6 L 529.6,340.6 L 532.1,341.6 L 534.6,342.6 L 537.1,343.6 L 539.6,344.6 L 542.1,345.6 L 544.6,346.6 L 547.1,347.6 L 549.6,348.6 L 552.1,349.6 L 554.6,350.6 L 557.1,351.5 L 559.6,352.5 L 562.1,353.5 L 564.5,354.5 L 567.0,355.5 L 569.5,356.5 L 572.0,357.5 L 574.5,358.5 L 577.0,359.5 L 579.5,360.5 L 582.0,361.5 L 584.5,362.5 L 587.0,363.4 L 589.5,364.4 L 592.0,365.0 L 594.5,365.0 L 597.0,365.0 L 599.5,365.0 L 602.0,365.0 L 604.5,365.0 L 607.0,365.0 L 609.5,365.0 L 612.0,365.0 L 614.5,365.0 L 617.0,365.0" class="rho"/>
<path d="M 70.0,158.3 L 72.5,159.1 L 75.0,160.4 L 77.5,162.3 L 80.0,164.7 L 82.5,167.5 L 85.0,170.7 L 87.5,174.2 L 90.0,178.0 L 92.5,181.8 L 95.0,185.8 L 97.5,189.7 L 100.0,193.6 L 102.5,197.5 L 105.0,201.2 L 107.5,204.8 L 110.0,208.2 L 112.5,211.5 L 115.0,214.7 L 117.5,217.7 L 120.0,220.7 L 122.5,223.6 L 124.9,226.4 L 127.4,229.2 L 129.9,231.8 L 132.4,234.4 L 134.9,236.9 L 137.4,239.3 L 139.9,241.6 L 142.4,243.9 L 144.9,246.0 L 147.4,248.1 L 149.9,250.0 L 152.4,251.9 L 154.9,253.6 L 157.4,255.3 L 159.9,257.0 L 162.4,258.6 L 164.9,260.1 L 167.4,261.6 L 169.9,263.0 L 172.4,264.5 L 174.9,265.8 L 177.4,267.2 L 179.9,268.5 L 182.4,269.8 L 184.9,271.0 L 187.4,272.3 L 189.9,273.5 L 192.4,274.7 L 194.9,275.9 L 197.4,277.0 L 199.9,278.2 L 202.4,279.3 L 204.9,280.4 L 207.4,281.5 L 209.9,282.5 L 212.4,283.6 L 214.9,284.6 L 217.4,285.6 L 219.9,286.7 L 222.4,287.6 L 224.9,288.6 L 227.4,289.6 L 229.9,290.5 L 232.4,291.5 L 234.8,292.4 L 237.3,293.3 L 239.8,294.2 L 242.3,295.1 L 244.8,295.9 L 247.3,296.8 L 249.8,297.6 L 252.3,298.4 L 254.8,299.2 L 257.3,300.0 L 259.8,300.8 L 262.3,301.6 L 264.8,302.3 L 267.3,303.1 L 269.8,303.8 L 272.3,304.5 L 274.8,305.3 L 277.3,306.0 L 279.8,306.7 L 282.3,307.4 L 284.8,308.0 L 287.3,308.7 L 289.8,309.4 L 292.3,310.1 L 294.8,310.7 L 297.3,311.4 L 299.8,312.0 L 302.3,312.6 L 304.8,313.3 L 307.3,313.9 L 309.8,314.5 L 312.3,315.1 L 314.8,315.7 L 317.3,316.3 L 319.8,316.9 L 322.3,317.5 L 324.8,318.1 L 327.3,318.7 L 329.8,319.3 L 332.3,319.8 L 334.8,320.4 L 337.3,321.0 L 339.8,321.5 L 342.3,322.1 L 344.7,322.6 L 347.2,323.2 L 349.7,323.7 L 352.2,324.2 L 354.7,324.8 L 357.2,325.3 L 359.7,325.8 L 362.2,326.3 L 364.7,326.8 L 367.2,327.3 L 369.7,327.8 L 372.2,328.3 L 374.7,328.8 L 377.2,329.3 L 379.7,329.8 L 382.2,330.3 L 384.7,330.7 L 387.2,331.2 L 389.7,331.7 L 392.2,332.1 L 394.7,332.6 L 397.2,333.0 L 399.7,333.5 L 402.2,333.9 L 404.7,334.4 L 407.2,334.8 L 409.7,335.2 L 412.2,335.7 L 414.7,336.1 L 417.2,336.5 L 419.7,336.9 L 422.2,337.4 L 424.7,337.8 L 427.2,338.2 L 429.7,338.6 L 432.2,339.0 L 434.7,339.4 L 437.2,339.8 L 439.7,340.1 L 442.2,340.5 L 444.7,340.9 L 447.2,341.3 L 449.7,341.7 L 452.2,342.0 L 454.6,342.4 L 457.1,342.8 L 459.6,343.1 L 462.1,343.5 L 464.6,343.8 L 467.1,344.2 L 469.6,344.6 L 472.1,344.9 L 474.6,345.3 L 477.1,345.6 L 479.6,346.0 L 482.1,346.3 L 484.6,346.6 L 487.1,347.0 L 489.6,347.3 L 492.1,347.7 L 494.6,348.0 L 497.1,348.4 L 499.6,348.7 L 502.1,349.1 L 504.6,349.4 L 507.1,349.8 L 509.6,350.1 L 512.1,350.5 L 514.6,350.8 L 517.1,351.2 L 519.6,351.5 L 522.1,351.8 L 524.6,352.2 L 527.1,352.5 L 529.6,352.8 L 532.1,353.1 L 534.6,353.4 L 537.1,353.6 L 539.6,353.9 L 542.1,354.2 L 544.6,354.4 L 547.1,354.7 L 549.6,354.9 L 552.1,355.1 L 554.6,355.3 L 557.1,355.5 L 559.6,355.7 L 562.1,355.9 L 564.5,356.1 L 567.0,356.3 L 569.5,356.4 L 572.0,356.6 L 574.5,356.7 L 577.0,356.9 L 579.5,357.0 L 582.0,357.2 L 584.5,357.3 L 587.0,357.4 L 589.5,357.5 L 592.0,357.6 L 594.5,357.8 L 597.0,357.9 L 599.5,358.0 L 602.0,358.1 L 604.5,358.2 L 607.0,358.3 L 609.5,358.3 L 612.0,358.4 L 614.5,358.5 L 617.0,358.6" class="sig"/>
<path d="M 75.5,305.4 L 80.9,282.7 L 86.4,266.6 L 91.9,254.2 L 97.3,244.4 L 102.8,236.6 L 108.3,230.2 L 113.8,224.2 L 119.2,218.7 L 124.7,213.5 L 130.2,208.8 L 135.6,204.5 L 141.1,200.5 L 146.6,197.0 L 152.1,193.5 L 157.5,190.1 L 163.0,186.8 L 168.5,183.5 L 173.9,180.2 L 179.4,177.1 L 184.9,174.0 L 190.3,171.0 L 195.8,168.0 L 201.3,165.2 L 206.8,162.4 L 212.2,159.7 L 217.7,157.1 L 223.2,154.6 L 228.6,152.1 L 234.1,149.7 L 239.6,147.4 L 245.0,145.2 L 250.5,143.0 L 256.0,140.8 L 261.5,138.7 L 266.9,136.7 L 272.4,134.7 L 277.9,132.7 L 283.3,130.8 L 288.8,128.9 L 294.3,127.0 L 299.7,125.2 L 305.2,123.5 L 310.7,121.7 L 316.1,120.1 L 321.6,118.4 L 327.1,116.8 L 332.6,115.3 L 338.0,113.7 L 343.5,112.2 L 349.0,110.8 L 354.4,109.4 L 359.9,108.0 L 365.4,106.7 L 370.9,105.3 L 376.3,104.1 L 381.8,102.8 L 387.3,101.6 L 392.7,100.5 L 398.2,99.4 L 403.7,98.3 L 409.1,97.2 L 414.6,96.2 L 420.1,95.2 L 425.6,94.2 L 431.0,93.3 L 436.5,92.4 L 442.0,91.5 L 447.4,90.7 L 452.9,89.9 L 458.4,89.1 L 463.8,88.4 L 469.3,87.7 L 474.8,87.0 L 480.2,86.4 L 485.7,85.7 L 491.2,85.2 L 496.7,84.6 L 502.1,84.1 L 507.6,83.7 L 513.1,83.4 L 518.5,83.2 L 524.0,83.2 L 529.5,83.2 L 535.0,83.4 L 540.4,83.7 L 545.9,84.1 L 551.4,84.6 L 556.8,85.3 L 562.3,86.0 L 567.8,86.9 L 573.2,87.9 L 578.7,89.0 L 584.2,90.2 L 589.7,91.6 L 595.1,93.0 L 600.6,94.4 L 606.1,95.8 L 611.5,97.2 L 617.0,98.5" class="nt"/>
<path d="M 74.6,310.7 L 79.1,270.8 L 83.7,232.9 L 88.2,201.2 L 92.8,175.7 L 97.3,157.0 L 101.9,143.9 L 106.5,135.5 L 111.0,129.8 L 115.6,125.1 L 120.1,120.5 L 124.7,116.3 L 129.3,113.0 L 133.8,111.0 L 138.4,110.5 L 142.9,111.9 L 147.5,114.6 L 152.1,117.8 L 156.6,120.4 L 161.2,122.4 L 165.7,123.5 L 170.3,124.0 L 174.8,124.2 L 179.4,124.0 L 184.0,123.6 L 188.5,123.0 L 193.1,122.3 L 197.6,121.5 L 202.2,120.7 L 206.8,120.0 L 211.3,119.2 L 215.9,118.6 L 220.4,118.0 L 225.0,117.6 L 229.5,117.4 L 234.1,117.5 L 238.7,117.8 L 243.2,118.5 L 247.8,119.3 L 252.3,120.1 L 256.9,120.7 L 261.5,121.1 L 266.0,121.4 L 270.6,121.5 L 275.1,121.5 L 279.7,121.4 L 284.2,121.2 L 288.8,121.1 L 293.4,120.8 L 297.9,120.6 L 302.5,120.4 L 307.0,120.1 L 311.6,119.9 L 316.1,119.7 L 320.7,119.5 L 325.3,119.3 L 329.8,119.1 L 334.4,119.0 L 338.9,118.9 L 343.5,118.8 L 348.1,118.7 L 352.6,118.7 L 357.2,118.7 L 361.7,118.8 L 366.3,118.8 L 370.9,119.0 L 375.4,119.1 L 380.0,119.3 L 384.5,119.5 L 389.1,119.8 L 393.6,120.0 L 398.2,120.4 L 402.8,120.7 L 407.3,121.1 L 411.9,121.5 L 416.4,121.9 L 421.0,122.3 L 425.5,122.8 L 430.1,123.3 L 434.7,123.7 L 439.2,124.2 L 443.8,124.6 L 448.3,125.1 L 452.9,125.4 L 457.5,125.7 L 462.0,125.9 L 466.6,126.0 L 471.1,125.9 L 475.7,125.5 L 480.2,124.8 L 484.8,123.7 L 489.4,122.1 L 493.9,120.2 L 498.5,118.2 L 503.0,116.5 L 507.6,115.7 L 512.2,116.0 L 516.7,117.6 L 521.3,120.4 L 525.8,124.2 L 530.4,128.8 L 535.0,134.1 L 539.5,140.0 L 544.1,146.3 L 548.6,152.9 L 553.2,159.7 L 557.7,166.6 L 562.3,173.4 L 566.9,180.1 L 571.4,186.5 L 576.0,192.7 L 580.5,198.4 L 585.1,203.6 L 589.7,208.4 L 594.2,212.7 L 598.8,216.6 L 603.3,220.1 L 607.9,223.3 L 612.4,226.3 L 617.0,229.0" class="fw"/>
<line x1="84.80476421956436" y1="180.81078108903608" x2="84.80476421956436" y2="223.1531302639703" class="err"/>
<line x1="81.80476421956436" y1="180.81078108903608" x2="87.80476421956436" y2="180.81078108903608" class="err"/>
<line x1="81.80476421956436" y1="223.1531302639703" x2="87.80476421956436" y2="223.1531302639703" class="err"/>
<circle cx="84.80476421956436" cy="201.9819556765032" r="2.5" class="obs"/>
<line x1="99.60952843912871" y1="142.70266683159522" x2="99.60952843912871" y2="163.8738414190624" class="err"/>
<line x1="96.60952843912871" y1="142.70266683159522" x2="102.60952843912871" y2="142.70266683159522" class="err"/>
<line x1="96.60952843912871" y1="163.8738414190624" x2="102.60952843912871" y2="163.8738414190624" class="err"/>
<circle cx="99.60952843912871" cy="153.28825412532882" r="2.5" class="obs"/>
<line x1="114.41429265869306" y1="127.88284462036827" x2="114.41429265869306" y2="136.35131445535512" class="err"/>
<line x1="111.41429265869306" y1="127.88284462036827" x2="117.41429265869306" y2="127.88284462036827" class="err"/>
<line x1="111.41429265869306" y1="136.35131445535512" x2="117.41429265869306" y2="136.35131445535512" class="err"/>
<circle cx="114.41429265869306" cy="132.11707953786168" r="2.5" class="obs"/>
<line x1="129.21905687825742" y1="110.94590495039458" x2="129.21905687825742" y2="119.41437478538141" class="err"/>
<line x1="126.21905687825742" y1="110.94590495039458" x2="132.21905687825742" y2="110.94590495039458" class="err"/>
<line x1="126.21905687825742" y1="119.41437478538141" x2="132.21905687825742" y2="119.41437478538141" class="err"/>
<circle cx="129.21905687825742" cy="115.18013986788799" r="2.5" class="obs"/>
<line x1="143.82902156861698" y1="104.59455257415442" x2="143.82902156861698" y2="113.06302240914128" class="err"/>
<line x1="140.82902156861698" y1="104.59455257415442" x2="146.82902156861698" y2="104.59455257415442" class="err"/>
<line x1="140.82902156861698" y1="113.06302240914128" x2="146.82902156861698" y2="113.06302240914128" class="err"/>
<circle cx="143.82902156861698" cy="108.82878749164783" r="2.5" class="obs"/>
<line x1="158.63378578818134" y1="104.59455257415442" x2="158.63378578818134" y2="113.06302240914128" class="err"/>
<line x1="155.63378578818134" y1="104.59455257415442" x2="161.63378578818134" y2="104.59455257415442" class="err"/>
<line x1="155.63378578818134" y1="113.06302240914128" x2="161.63378578818134" y2="113.06302240914128" class="err"/>
<circle cx="158.63378578818134" cy="108.82878749164783" r="2.5" class="obs"/>
<line x1="173.43855000774568" y1="113.06302240914128" x2="173.43855000774568" y2="121.53149224412812" class="err"/>
<line x1="170.43855000774568" y1="113.06302240914128" x2="176.43855000774568" y2="113.06302240914128" class="err"/>
<line x1="170.43855000774568" y1="121.53149224412812" x2="176.43855000774568" y2="121.53149224412812" class="err"/>
<circle cx="173.43855000774568" cy="117.2972573266347" r="2.5" class="obs"/>
<line x1="188.24331422731004" y1="115.18013986788799" x2="188.24331422731004" y2="123.64860970287482" class="err"/>
<line x1="185.24331422731004" y1="115.18013986788799" x2="191.24331422731004" y2="115.18013986788799" class="err"/>
<line x1="185.24331422731004" y1="123.64860970287482" x2="191.24331422731004" y2="123.64860970287482" class="err"/>
<circle cx="188.24331422731004" cy="119.41437478538141" r="2.5" class="obs"/>
<line x1="203.0480784468744" y1="115.18013986788799" x2="203.0480784468744" y2="123.64860970287482" class="err"/>
<line x1="200.0480784468744" y1="115.18013986788799" x2="206.0480784468744" y2="115.18013986788799" class="err"/>
<line x1="200.0480784468744" y1="123.64860970287482" x2="206.0480784468744" y2="123.64860970287482" class="err"/>
<circle cx="203.0480784468744" cy="119.41437478538141" r="2.5" class="obs"/>
<line x1="217.85284266643873" y1="115.18013986788799" x2="217.85284266643873" y2="123.64860970287482" class="err"/>
<line x1="214.85284266643873" y1="115.18013986788799" x2="220.85284266643873" y2="115.18013986788799" class="err"/>
<line x1="214.85284266643873" y1="123.64860970287482" x2="220.85284266643873" y2="123.64860970287482" class="err"/>
<circle cx="217.85284266643873" cy="119.41437478538141" r="2.5" class="obs"/>
<line x1="232.65760688600312" y1="119.41437478538141" x2="232.65760688600312" y2="123.64860970287482" class="err"/>
<line x1="229.65760688600312" y1="119.41437478538141" x2="235.65760688600312" y2="119.41437478538141" class="err"/>
<line x1="229.65760688600312" y1="123.64860970287482" x2="235.65760688600312" y2="123.64860970287482" class="err"/>
<circle cx="232.65760688600312" cy="121.53149224412812" r="2.5" class="obs"/>
<line x1="247.46237110556746" y1="119.41437478538141" x2="247.46237110556746" y2="123.64860970287482" class="err"/>
<line x1="244.46237110556746" y1="119.41437478538141" x2="250.46237110556746" y2="119.41437478538141" class="err"/>
<line x1="244.46237110556746" y1="123.64860970287482" x2="250.46237110556746" y2="123.64860970287482" class="err"/>
<circle cx="247.46237110556746" cy="121.53149224412812" r="2.5" class="obs"/>
<line x1="262.072335795927" y1="117.2972573266347" x2="262.072335795927" y2="121.53149224412812" class="err"/>
<line x1="259.072335795927" y1="117.2972573266347" x2="265.072335795927" y2="117.2972573266347" class="err"/>
<line x1="259.072335795927" y1="121.53149224412812" x2="265.072335795927" y2="121.53149224412812" class="err"/>
<circle cx="262.072335795927" cy="119.41437478538141" r="2.5" class="obs"/>
<line x1="277.266699073901" y1="115.18013986788799" x2="277.266699073901" y2="119.41437478538141" class="err"/>
<line x1="274.266699073901" y1="115.18013986788799" x2="280.266699073901" y2="115.18013986788799" class="err"/>
<line x1="274.266699073901" y1="119.41437478538141" x2="280.266699073901" y2="119.41437478538141" class="err"/>
<circle cx="277.266699073901" cy="117.2972573266347" r="2.5" class="obs"/>
<line x1="291.68186423505574" y1="115.18013986788799" x2="291.68186423505574" y2="119.41437478538141" class="err"/>
<line x1="288.68186423505574" y1="115.18013986788799" x2="294.68186423505574" y2="115.18013986788799" class="err"/>
<line x1="288.68186423505574" y1="119.41437478538141" x2="294.68186423505574" y2="119.41437478538141" class="err"/>
<circle cx="291.68186423505574" cy="117.2972573266347" r="2.5" class="obs"/>
<line x1="306.0970293962105" y1="113.06302240914128" x2="306.0970293962105" y2="117.2972573266347" class="err"/>
<line x1="303.0970293962105" y1="113.06302240914128" x2="309.0970293962105" y2="113.06302240914128" class="err"/>
<line x1="303.0970293962105" y1="117.2972573266347" x2="309.0970293962105" y2="117.2972573266347" class="err"/>
<circle cx="306.0970293962105" cy="115.18013986788799" r="2.5" class="obs"/>
<line x1="320.51219455736526" y1="115.18013986788799" x2="320.51219455736526" y2="119.41437478538141" class="err"/>
<line x1="317.51219455736526" y1="115.18013986788799" x2="323.51219455736526" y2="115.18013986788799" class="err"/>
<line x1="317.51219455736526" y1="119.41437478538141" x2="323.51219455736526" y2="119.41437478538141" class="err"/>
<circle cx="320.51219455736526" cy="117.2972573266347" r="2.5" class="obs"/>
<line x1="336.87535501056794" y1="117.2972573266347" x2="336.87535501056794" y2="121.53149224412812" class="err"/>
<line x1="333.87535501056794" y1="117.2972573266347" x2="339.87535501056794" y2="117.2972573266347" class="err"/>
<line x1="333.87535501056794" y1="121.53149224412812" x2="339.87535501056794" y2="121.53149224412812" class="err"/>
<circle cx="336.87535501056794" cy="119.41437478538141" r="2.5" class="obs"/>
<line x1="351.29052017172273" y1="119.41437478538141" x2="351.29052017172273" y2="123.64860970287482" class="err"/>
<line x1="348.29052017172273" y1="119.41437478538141" x2="354.29052017172273" y2="119.41437478538141" class="err"/>
<line x1="348.29052017172273" y1="123.64860970287482" x2="354.29052017172273" y2="123.64860970287482" class="err"/>
<circle cx="351.29052017172273" cy="121.53149224412812" r="2.5" class="obs"/>
<line x1="365.70568533287747" y1="115.18013986788799" x2="365.70568533287747" y2="119.41437478538141" class="err"/>
<line x1="362.70568533287747" y1="115.18013986788799" x2="368.70568533287747" y2="115.18013986788799" class="err"/>
<line x1="362.70568533287747" y1="119.41437478538141" x2="368.70568533287747" y2="119.41437478538141" class="err"/>
<circle cx="365.70568533287747" cy="117.2972573266347" r="2.5" class="obs"/>
<line x1="379.9260509648275" y1="117.2972573266347" x2="379.9260509648275" y2="121.53149224412812" class="err"/>
<line x1="376.9260509648275" y1="117.2972573266347" x2="382.9260509648275" y2="117.2972573266347" class="err"/>
<line x1="376.9260509648275" y1="121.53149224412812" x2="382.9260509648275" y2="121.53149224412812" class="err"/>
<circle cx="379.9260509648275" cy="119.41437478538141" r="2.5" class="obs"/>
<line x1="394.3412161259822" y1="117.2972573266347" x2="394.3412161259822" y2="125.76572716162153" class="err"/>
<line x1="391.3412161259822" y1="117.2972573266347" x2="397.3412161259822" y2="117.2972573266347" class="err"/>
<line x1="391.3412161259822" y1="125.76572716162153" x2="397.3412161259822" y2="125.76572716162153" class="err"/>
<circle cx="394.3412161259822" cy="121.53149224412812" r="2.5" class="obs"/>
<line x1="410.7043765791849" y1="117.2972573266347" x2="410.7043765791849" y2="125.76572716162153" class="err"/>
<line x1="407.7043765791849" y1="117.2972573266347" x2="413.7043765791849" y2="117.2972573266347" class="err"/>
<line x1="407.7043765791849" y1="125.76572716162153" x2="413.7043765791849" y2="125.76572716162153" class="err"/>
<circle cx="410.7043765791849" cy="121.53149224412812" r="2.5" class="obs"/>
<line x1="425.11954174033974" y1="117.2972573266347" x2="425.11954174033974" y2="125.76572716162153" class="err"/>
<line x1="422.11954174033974" y1="117.2972573266347" x2="428.11954174033974" y2="117.2972573266347" class="err"/>
<line x1="422.11954174033974" y1="125.76572716162153" x2="428.11954174033974" y2="125.76572716162153" class="err"/>
<circle cx="425.11954174033974" cy="121.53149224412812" r="2.5" class="obs"/>
<line x1="439.5347069014945" y1="119.41437478538141" x2="439.5347069014945" y2="127.88284462036827" class="err"/>
<line x1="436.5347069014945" y1="119.41437478538141" x2="442.5347069014945" y2="119.41437478538141" class="err"/>
<line x1="436.5347069014945" y1="127.88284462036827" x2="442.5347069014945" y2="127.88284462036827" class="err"/>
<circle cx="439.5347069014945" cy="123.64860970287482" r="2.5" class="obs"/>
<line x1="453.94987206264926" y1="117.2972573266347" x2="453.94987206264926" y2="125.76572716162153" class="err"/>
<line x1="450.94987206264926" y1="117.2972573266347" x2="456.94987206264926" y2="117.2972573266347" class="err"/>
<line x1="450.94987206264926" y1="125.76572716162153" x2="456.94987206264926" y2="125.76572716162153" class="err"/>
<circle cx="453.94987206264926" cy="121.53149224412812" r="2.5" class="obs"/>
<line x1="468.365037223804" y1="119.41437478538141" x2="468.365037223804" y2="127.88284462036827" class="err"/>
<line x1="465.365037223804" y1="119.41437478538141" x2="471.365037223804" y2="119.41437478538141" class="err"/>
<line x1="465.365037223804" y1="127.88284462036827" x2="471.365037223804" y2="127.88284462036827" class="err"/>
<circle cx="468.365037223804" cy="123.64860970287482" r="2.5" class="obs"/>
<line x1="484.7281976770067" y1="115.18013986788799" x2="484.7281976770067" y2="123.64860970287482" class="err"/>
<line x1="481.7281976770067" y1="115.18013986788799" x2="487.7281976770067" y2="115.18013986788799" class="err"/>
<line x1="481.7281976770067" y1="123.64860970287482" x2="487.7281976770067" y2="123.64860970287482" class="err"/>
<circle cx="484.7281976770067" cy="119.41437478538141" r="2.5" class="obs"/>
<line x1="499.1433628381615" y1="115.18013986788799" x2="499.1433628381615" y2="127.88284462036827" class="err"/>
<line x1="496.1433628381615" y1="115.18013986788799" x2="502.1433628381615" y2="115.18013986788799" class="err"/>
<line x1="496.1433628381615" y1="127.88284462036827" x2="502.1433628381615" y2="127.88284462036827" class="err"/>
<circle cx="499.1433628381615" cy="121.53149224412812" r="2.5" class="obs"/>
<line x1="513.3637284701115" y1="106.71167003290113" x2="513.3637284701115" y2="123.64860970287482" class="err"/>
<line x1="510.3637284701115" y1="106.71167003290113" x2="516.3637284701115" y2="106.71167003290113" class="err"/>
<line x1="510.3637284701115" y1="123.64860970287482" x2="516.3637284701115" y2="123.64860970287482" class="err"/>
<circle cx="513.3637284701115" cy="115.18013986788799" r="2.5" class="obs"/>
<line x1="527.7788936312662" y1="100.36031765666101" x2="527.7788936312662" y2="142.70266683159522" class="err"/>
<line x1="524.7788936312662" y1="100.36031765666101" x2="530.7788936312662" y2="100.36031765666101" class="err"/>
<line x1="524.7788936312662" y1="142.70266683159522" x2="530.7788936312662" y2="142.70266683159522" class="err"/>
<circle cx="527.7788936312662" cy="121.53149224412812" r="2.5" class="obs"/>
<g class="legend">
<line x1="82" y1="69" x2="106" y2="69" class="fw"/>
<text x="112" y="73" class="lbl-l">framework fit</text>
<line x1="82" y1="87" x2="106" y2="87" class="nt"/>
<text x="112" y="91" class="lbl-l">Newtonian (no halo)</text>
<circle cx="94" cy="105" r="2.5" class="obs"/>
<text x="112" y="109" class="lbl">observed V±err</text>
</g>
<g class="legend">
<line x1="472" y1="69" x2="496" y2="69" class="rho"/>
<text x="502" y="73" class="lbl-r">ρ(r) raw</text>
<line x1="472" y1="87" x2="496" y2="87" class="sig"/>
<text x="502" y="91" class="lbl-s">Σ(r) cumulative</text>
<text x="472" y="113" class="lbl-r">ρ peak: 218 M☉/pc²</text>
</g>
<rect x="705" y="55" width="170" height="170" class="preview-bg"/>
<defs><radialGradient id="g_NGC6503" cx="0.5" cy="0.5" r="0.5">
  <stop offset="0.0000" stop-color="rgb(96,96,96)"/>
  <stop offset="0.0312" stop-color="rgb(84,84,84)"/>
  <stop offset="0.0625" stop-color="rgb(73,73,73)"/>
  <stop offset="0.0938" stop-color="rgb(68,68,68)"/>
  <stop offset="0.1250" stop-color="rgb(64,64,64)"/>
  <stop offset="0.1562" stop-color="rgb(58,58,58)"/>
  <stop offset="0.1875" stop-color="rgb(56,56,56)"/>
  <stop offset="0.2188" stop-color="rgb(54,54,54)"/>
  <stop offset="0.2500" stop-color="rgb(52,52,52)"/>
  <stop offset="0.2812" stop-color="rgb(50,50,50)"/>
  <stop offset="0.3125" stop-color="rgb(48,48,48)"/>
  <stop offset="0.3438" stop-color="rgb(46,46,46)"/>
  <stop offset="0.3750" stop-color="rgb(44,44,44)"/>
  <stop offset="0.4062" stop-color="rgb(43,43,43)"/>
  <stop offset="0.4375" stop-color="rgb(41,41,41)"/>
  <stop offset="0.4688" stop-color="rgb(40,40,40)"/>
  <stop offset="0.5000" stop-color="rgb(39,39,39)"/>
  <stop offset="0.5312" stop-color="rgb(37,37,37)"/>
  <stop offset="0.5625" stop-color="rgb(36,36,36)"/>
  <stop offset="0.5938" stop-color="rgb(34,34,34)"/>
  <stop offset="0.6250" stop-color="rgb(33,33,33)"/>
  <stop offset="0.6562" stop-color="rgb(31,31,31)"/>
  <stop offset="0.6875" stop-color="rgb(30,30,30)"/>
  <stop offset="0.7188" stop-color="rgb(29,29,29)"/>
  <stop offset="0.7500" stop-color="rgb(27,27,27)"/>
  <stop offset="0.7812" stop-color="rgb(26,26,26)"/>
  <stop offset="0.8125" stop-color="rgb(24,24,24)"/>
  <stop offset="0.8438" stop-color="rgb(21,21,21)"/>
  <stop offset="0.8750" stop-color="rgb(17,17,17)"/>
  <stop offset="0.9062" stop-color="rgb(13,13,13)"/>
  <stop offset="0.9375" stop-color="rgb(8,8,8)"/>
  <stop offset="0.9688" stop-color="rgb(4,4,4)"/>
  <stop offset="1.0000" stop-color="rgb(0,0,0)"/>
</radialGradient></defs>
<circle cx="790.0" cy="140.0" r="81.0" fill="url(#g_NGC6503)"/>
<text x="790.0" y="49" text-anchor="middle" class="preview-lbl">face-on luminance from ρ(r)</text>
<text x="790.0" y="239" text-anchor="middle" class="preview-lbl">edge at r = 26.7 kpc</text>
</svg>