<svg xmlns="http://www.w3.org/2000/svg" viewBox="0 0 960 450" width="960" height="450" font-family="sans-serif" font-size="12">
<style>
  .ax { stroke: #333; stroke-width: 1; fill: none; }
  .grid { stroke: #ddd; stroke-width: 0.5; fill: none; }
  .lbl { fill: #333; }
  .lbl-l { fill: #0066cc; }
  .lbl-r { fill: #b03030; }
  .obs { fill: #222; }
  .err { stroke: #555; stroke-width: 0.8; fill: none; }
  .fw { stroke: #0066cc; stroke-width: 2.2; fill: none; }
  .nt { stroke: #cc6600; stroke-width: 1.6; fill: none; stroke-dasharray: 5,3; }
  .mond { stroke: #7b2cbf; stroke-width: 1.8; fill: none; stroke-dasharray: 7,3; }
  .lbl-p { fill: #cc7000; }
  .lbl-m { fill: #7b2cbf; }
  .rho { stroke: #b03030; stroke-width: 2.0; fill: none; }
  .phot { stroke: #cc7000; stroke-width: 1.8; fill: none; }
  .mbar { stroke: #8e44ad; stroke-width: 1.8; fill: none; opacity: 0.9; }
  .mph { stroke: #c77dff; stroke-width: 1.6; fill: none; stroke-dasharray: 4,3; opacity: 0.95; }
  .remap-x { stroke: #cc2222; stroke-width: 1.5; fill: none; }
  .remap-link { stroke: #cc2222; stroke-width: 0.8; stroke-dasharray: 3,3; fill: none; opacity: 0.7; }
  .title { fill: #111; font-size: 16px; font-weight: 600; }
  .subtitle { fill: #555; font-size: 11px; }
  .preview-bg { fill: #000; }
  .preview-lbl { fill: #888; font-size: 10px; }
  .legend { font-size: 11px; }
</style>
<text x="378.5" y="22" text-anchor="middle" class="title">NGC6015</text>
<text x="378.5" y="38" text-anchor="middle" class="subtitle">rMax=29.2 kpc, N=44, FW=4.7 km/s, 3.9%, 1.84σ, MOND=11.3 km/s, 9.1%, 5.81σ, amp=2383</text>
<line x1="70" y1="395.0" x2="687" y2="395.0" class="grid"/>
<text x="64" y="399.0" text-anchor="end" class="lbl-l">0</text>
<line x1="70" y1="327.0" x2="687" y2="327.0" class="grid"/>
<text x="64" y="331.0" text-anchor="end" class="lbl-l">50</text>
<line x1="70" y1="259.0" x2="687" y2="259.0" class="grid"/>
<text x="64" y="263.0" text-anchor="end" class="lbl-l">99</text>
<line x1="70" y1="191.0" x2="687" y2="191.0" class="grid"/>
<text x="64" y="195.0" text-anchor="end" class="lbl-l">149</text>
<line x1="70" y1="123.0" x2="687" y2="123.0" class="grid"/>
<text x="64" y="127.0" text-anchor="end" class="lbl-l">198</text>
<line x1="70" y1="55.0" x2="687" y2="55.0" class="grid"/>
<text x="64" y="59.0" text-anchor="end" class="lbl-l">248</text>
<text x="693" y="399.0" text-anchor="start" class="lbl-r">0.0</text>
<text x="693" y="353.7" text-anchor="start" class="lbl-r">0.2</text>
<text x="693" y="308.3" text-anchor="start" class="lbl-r">0.4</text>
<text x="693" y="263.0" text-anchor="start" class="lbl-r">0.6</text>
<text x="693" y="217.7" text-anchor="start" class="lbl-r">0.8</text>
<text x="693" y="172.3" text-anchor="start" class="lbl-r">1.0</text>
<line x1="70.0" y1="55" x2="70.0" y2="395" class="grid"/>
<text x="70.0" y="411" text-anchor="middle" class="lbl">0.0</text>
<line x1="172.8" y1="55" x2="172.8" y2="395" class="grid"/>
<text x="172.8" y="411" text-anchor="middle" class="lbl">5.1</text>
<line x1="275.7" y1="55" x2="275.7" y2="395" class="grid"/>
<text x="275.7" y="411" text-anchor="middle" class="lbl">10.2</text>
<line x1="378.5" y1="55" x2="378.5" y2="395" class="grid"/>
<text x="378.5" y="411" text-anchor="middle" class="lbl">15.3</text>
<line x1="481.3" y1="55" x2="481.3" y2="395" class="grid"/>
<text x="481.3" y="411" text-anchor="middle" class="lbl">20.5</text>
<line x1="584.2" y1="55" x2="584.2" y2="395" class="grid"/>
<text x="584.2" y="411" text-anchor="middle" class="lbl">25.6</text>
<line x1="687.0" y1="55" x2="687.0" y2="395" class="grid"/>
<text x="687.0" y="411" text-anchor="middle" class="lbl">30.7</text>
<text x="378.5" y="438" text-anchor="middle" class="lbl">radius (kpc)</text>
<text x="16" y="225" text-anchor="middle" class="lbl-l" transform="rotate(-90, 16, 225)">velocity (km/s)</text>
<text x="724" y="225" text-anchor="middle" class="lbl-r" transform="rotate(-90, 724, 225)">profiles (normalized to peak)</text>
<rect x="70" y="55" width="617" height="340" class="ax"/>
<path d="M 70.0,168.3 L 72.8,172.8 L 75.6,177.4 L 78.5,181.9 L 81.3,186.4 L 84.1,190.9 L 86.9,195.4 L 89.7,199.9 L 92.5,204.4 L 95.4,208.9 L 98.2,213.4 L 101.0,216.5 L 103.8,218.5 L 106.6,220.4 L 109.4,222.4 L 112.3,224.4 L 115.1,226.3 L 117.9,228.3 L 120.7,230.2 L 123.5,232.2 L 126.3,234.2 L 129.2,236.1 L 132.0,238.1 L 134.8,240.1 L 137.6,242.0 L 140.4,244.0 L 143.3,245.9 L 146.1,247.9 L 148.9,249.9 L 151.7,251.8 L 154.5,253.8 L 157.3,254.7 L 160.2,255.5 L 163.0,256.3 L 165.8,257.1 L 168.6,257.9 L 171.4,258.8 L 174.2,259.6 L 177.1,260.4 L 179.9,261.2 L 182.7,262.0 L 185.5,262.9 L 188.3,263.7 L 191.1,264.5 L 194.0,265.3 L 196.8,266.1 L 199.6,267.0 L 202.4,267.8 L 205.2,268.6 L 208.1,269.4 L 210.9,270.2 L 213.7,271.0 L 216.5,271.5 L 219.3,272.0 L 222.1,272.5 L 225.0,273.0 L 227.8,273.5 L 230.6,274.0 L 233.4,274.5 L 236.2,274.9 L 239.0,275.4 L 241.9,275.9 L 244.7,276.4 L 247.5,276.9 L 250.3,277.4 L 253.1,277.9 L 255.9,278.4 L 258.8,278.8 L 261.6,279.3 L 264.4,279.8 L 267.2,280.3 L 270.0,280.8 L 272.8,281.3 L 275.7,281.8 L 278.5,282.3 L 281.3,282.8 L 284.1,283.2 L 286.9,283.7 L 289.8,284.2 L 292.6,284.7 L 295.4,285.2 L 298.2,285.7 L 301.0,286.2 L 303.8,286.7 L 306.7,287.2 L 309.5,287.6 L 312.3,288.1 L 315.1,288.6 L 317.9,289.1 L 320.7,289.6 L 323.6,290.1 L 326.4,290.6 L 329.2,291.1 L 332.0,291.6 L 334.8,292.0 L 337.6,292.5 L 340.5,293.0 L 343.3,293.5 L 346.1,294.0 L 348.9,294.5 L 351.7,295.0 L 354.6,295.5 L 357.4,296.0 L 360.2,296.4 L 363.0,296.9 L 365.8,297.4 L 368.6,297.9 L 371.5,298.4 L 374.3,298.9 L 377.1,299.4 L 379.9,299.9 L 382.7,300.4 L 385.5,300.8 L 388.4,301.3 L 391.2,301.8 L 394.0,302.3 L 396.8,302.8 L 399.6,303.3 L 402.4,303.8 L 405.3,304.3 L 408.1,304.8 L 410.9,305.2 L 413.7,305.7 L 416.5,306.2 L 419.4,306.7 L 422.2,307.2 L 425.0,307.7 L 427.8,308.2 L 430.6,308.7 L 433.4,309.2 L 436.3,309.6 L 439.1,310.1 L 441.9,310.6 L 444.7,311.1 L 447.5,311.6 L 450.3,312.1 L 453.2,312.6 L 456.0,313.1 L 458.8,313.6 L 461.6,314.0 L 464.4,314.5 L 467.2,315.0 L 470.1,315.5 L 472.9,316.0 L 475.7,316.5 L 478.5,317.0 L 481.3,317.5 L 484.2,318.0 L 487.0,318.4 L 489.8,318.9 L 492.6,319.4 L 495.4,319.9 L 498.2,320.4 L 501.1,320.9 L 503.9,321.4 L 506.7,321.9 L 509.5,322.4 L 512.3,322.8 L 515.1,323.3 L 518.0,323.8 L 520.8,324.3 L 523.6,324.8 L 526.4,325.3 L 529.2,325.8 L 532.0,326.3 L 534.9,326.8 L 537.7,327.2 L 540.5,327.7 L 543.3,328.2 L 546.1,328.7 L 548.9,329.2 L 551.8,329.7 L 554.6,330.2 L 557.4,330.7 L 560.2,331.2 L 563.0,331.6 L 565.9,332.1 L 568.7,332.6 L 571.5,333.1 L 574.3,333.6 L 577.1,334.1 L 579.9,334.6 L 582.8,335.1 L 585.6,335.6 L 588.4,336.0 L 591.2,336.5 L 594.0,337.0 L 596.8,337.5 L 599.7,338.0 L 602.5,338.5 L 605.3,339.0 L 608.1,339.5 L 610.9,340.0 L 613.7,340.4 L 616.6,340.9 L 619.4,341.4 L 622.2,341.9 L 625.0,342.4 L 627.8,342.9 L 630.7,343.4 L 633.5,343.9 L 636.3,344.4 L 639.1,344.8 L 641.9,345.3 L 644.7,346.0 L 647.6,356.7 L 650.4,367.4 L 653.2,378.2 L 656.0,388.9 L 658.8,395.0 L 661.6,395.0 L 664.5,395.0 L 667.3,395.0 L 670.1,395.0 L 672.9,395.0 L 675.7,395.0 L 678.5,395.0 L 681.4,395.0 L 684.2,395.0 L 687.0,395.0" class="rho"/>
<path d="M 76.8,168.3 L 83.5,216.7 L 90.1,257.8 L 96.5,291.5 L 103.2,302.9 L 109.8,308.5 L 116.4,316.3 L 122.9,319.0 L 129.5,324.3 L 135.9,330.1 L 142.6,337.5 L 149.2,345.6 L 155.8,354.3 L 162.5,362.2 L 169.3,368.7 L 176.5,373.6 L 183.2,375.5 L 189.8,377.2 L 196.0,379.7 L 235.7,389.2 L 277.1,392.3 L 293.7,392.9 L 310.2,393.5 L 325.7,394.1 L 343.0,394.3 L 360.1,394.5 L 377.4,394.7 L 392.1,394.8 L 409.3,394.9 L 426.4,394.9 L 443.7,394.9 L 458.4,394.9 L 475.7,395.0 L 493.0,395.0 L 510.1,395.0 L 524.9,395.0 L 542.0,395.0 L 559.3,395.0 L 576.4,395.0 L 591.3,395.0 L 608.4,395.0 L 625.7,395.0 L 640.3,395.0 L 657.6,395.0" class="phot"/>
<path d="M 76.8,196.8 L 83.5,172.6 L 90.1,168.3 L 96.5,207.4 L 103.2,238.7 L 109.8,239.6 L 116.4,229.1 L 122.9,213.3 L 129.5,195.4 L 135.9,183.3 L 142.6,184.0 L 149.2,198.2 L 155.8,226.8 L 162.5,265.9 L 169.3,304.4 L 176.5,332.0 L 183.2,337.7 L 189.8,329.3 L 196.0,333.7 L 235.7,354.2 L 277.1,370.9 L 293.7,374.7 L 310.2,375.2 L 325.7,379.6 L 343.0,384.4 L 360.1,387.3 L 377.4,389.4 L 392.1,391.4 L 409.3,393.1 L 426.4,394.0 L 443.7,394.3 L 458.4,393.7 L 475.7,393.2 L 493.0,393.7 L 510.1,394.1 L 524.9,393.6 L 542.0,393.5 L 559.3,393.6 L 576.4,390.8 L 591.3,388.7 L 608.4,392.1 L 625.7,395.0 L 640.3,395.0 L 657.6,395.0" class="mbar"/>
<path d="M 76.8,175.8 L 83.5,169.5 L 90.1,168.3 L 96.5,178.5 L 103.2,187.6 L 109.8,188.7 L 116.4,185.7 L 122.9,180.6 L 129.5,174.9 L 135.9,171.3 L 142.6,171.7 L 149.2,176.1 L 155.8,184.7 L 162.5,197.4 L 169.3,211.4 L 176.5,223.8 L 183.2,228.7 L 189.8,227.7 L 196.0,233.5 L 235.7,251.6 L 277.1,271.3 L 293.7,280.8 L 310.2,285.3 L 325.7,292.6 L 343.0,300.6 L 360.1,307.0 L 377.4,312.7 L 392.1,318.3 L 409.3,323.7 L 426.4,328.1 L 443.7,331.3 L 458.4,332.6 L 475.7,333.9 L 493.0,337.0 L 510.1,339.6 L 524.9,340.3 L 542.0,341.5 L 559.3,343.3 L 576.4,337.4 L 591.3,341.6 L 608.4,364.0 L 625.7,371.0 L 640.3,365.0 L 657.6,362.5" class="mph"/>
<path d="M 76.2,342.8 L 82.3,322.3 L 88.5,307.4 L 94.7,295.4 L 100.8,285.5 L 107.0,276.7 L 113.2,268.7 L 119.4,261.4 L 125.5,254.7 L 131.7,248.5 L 137.9,242.8 L 144.0,237.5 L 150.2,232.6 L 156.4,228.0 L 162.6,223.6 L 168.7,219.4 L 174.9,215.3 L 181.1,211.4 L 187.2,207.5 L 193.4,203.9 L 199.6,200.3 L 205.7,196.9 L 211.9,193.5 L 218.1,190.3 L 224.3,187.2 L 230.4,184.1 L 236.6,181.1 L 242.8,178.1 L 248.9,175.3 L 255.1,172.4 L 261.3,169.7 L 267.4,167.0 L 273.6,164.4 L 279.8,161.8 L 286.0,159.3 L 292.1,156.9 L 298.3,154.5 L 304.5,152.1 L 310.6,149.8 L 316.8,147.6 L 323.0,145.4 L 329.1,143.3 L 335.3,141.2 L 341.5,139.1 L 347.7,137.2 L 353.8,135.2 L 360.0,133.3 L 366.2,131.5 L 372.3,129.6 L 378.5,127.9 L 384.7,126.2 L 390.8,124.5 L 397.0,122.8 L 403.2,121.2 L 409.3,119.7 L 415.5,118.2 L 421.7,116.7 L 427.9,115.2 L 434.0,113.8 L 440.2,112.4 L 446.4,111.1 L 452.5,109.8 L 458.7,108.6 L 464.9,107.3 L 471.0,106.1 L 477.2,105.0 L 483.4,103.9 L 489.6,102.8 L 495.7,101.7 L 501.9,100.7 L 508.1,99.7 L 514.2,98.7 L 520.4,97.8 L 526.6,96.9 L 532.8,96.1 L 538.9,95.2 L 545.1,94.4 L 551.3,93.7 L 557.4,92.9 L 563.6,92.2 L 569.8,91.5 L 575.9,90.9 L 582.1,90.3 L 588.3,89.7 L 594.4,89.1 L 600.6,88.6 L 606.8,88.1 L 613.0,87.6 L 619.1,87.2 L 625.3,86.8 L 631.5,86.4 L 637.6,86.1 L 643.8,85.7 L 650.0,85.8 L 656.1,86.7 L 662.3,88.2 L 668.5,89.9 L 674.7,91.5 L 680.8,93.0 L 687.0,94.5" class="nt"/>
<path d="M 76.8,341.0 L 83.5,316.4 L 90.1,295.2 L 96.5,285.3 L 103.2,276.6 L 109.8,268.0 L 116.4,258.6 L 122.9,249.1 L 129.5,238.6 L 135.9,228.4 L 142.6,218.7 L 149.2,210.5 L 155.8,203.9 L 162.5,199.8 L 169.3,197.4 L 176.5,196.5 L 183.2,195.8 L 189.8,193.6 L 196.0,191.8 L 235.7,186.3 L 277.1,185.2 L 293.7,183.6 L 310.2,181.6 L 325.7,180.6 L 343.0,180.2 L 360.1,180.0 L 377.4,180.0 L 392.1,180.2 L 409.3,180.8 L 426.4,181.4 L 443.7,182.1 L 458.4,182.4 L 475.7,182.5 L 493.0,182.8 L 510.1,183.2 L 524.9,183.3 L 542.0,183.3 L 559.3,183.5 L 576.4,183.3 L 591.3,180.9 L 608.4,184.9 L 625.7,186.7 L 640.3,188.1 L 657.6,188.9" class="mond"/>
<path d="M 75.1,356.8 L 80.3,330.8 L 85.4,305.3 L 90.6,283.8 L 95.7,266.4 L 100.8,252.8 L 106.0,241.6 L 111.1,231.8 L 116.3,222.8 L 121.4,214.6 L 126.6,207.3 L 131.7,200.9 L 136.8,195.9 L 142.0,192.3 L 147.1,190.2 L 152.3,189.6 L 157.4,190.1 L 162.6,190.9 L 167.7,191.6 L 172.8,191.8 L 178.0,191.6 L 183.1,191.2 L 188.3,190.7 L 193.4,190.2 L 198.5,190.0 L 203.7,190.1 L 208.8,190.5 L 214.0,191.3 L 219.1,192.1 L 224.3,192.7 L 229.4,192.9 L 234.5,192.8 L 239.7,192.4 L 244.8,191.8 L 250.0,191.0 L 255.1,190.1 L 260.2,189.1 L 265.4,188.0 L 270.5,186.9 L 275.7,185.8 L 280.8,184.7 L 286.0,183.6 L 291.1,182.5 L 296.2,181.4 L 301.4,180.4 L 306.5,179.3 L 311.7,178.4 L 316.8,177.4 L 321.9,176.5 L 327.1,175.7 L 332.2,174.9 L 337.4,174.1 L 342.5,173.4 L 347.7,172.8 L 352.8,172.1 L 357.9,171.6 L 363.1,171.1 L 368.2,170.6 L 373.4,170.2 L 378.5,169.9 L 383.6,169.6 L 388.8,169.3 L 393.9,169.1 L 399.1,169.0 L 404.2,168.9 L 409.4,168.9 L 414.5,168.9 L 419.6,168.9 L 424.8,169.0 L 429.9,169.2 L 435.1,169.4 L 440.2,169.7 L 445.3,170.0 L 450.5,170.3 L 455.6,170.7 L 460.8,171.1 L 465.9,171.6 L 471.0,172.1 L 476.2,172.7 L 481.3,173.3 L 486.5,174.0 L 491.6,174.7 L 496.8,175.4 L 501.9,176.2 L 507.0,177.0 L 512.2,177.8 L 517.3,178.6 L 522.5,179.5 L 527.6,180.5 L 532.8,181.4 L 537.9,182.3 L 543.0,183.3 L 548.2,184.3 L 553.3,185.3 L 558.5,186.3 L 563.6,187.2 L 568.7,188.2 L 573.9,189.1 L 579.0,189.9 L 584.2,190.6 L 589.3,191.3 L 594.5,191.7 L 599.6,192.0 L 604.7,191.9 L 609.9,191.3 L 615.0,190.2 L 620.2,188.4 L 625.3,185.6 L 630.4,182.3 L 635.6,179.1 L 640.7,177.2 L 645.9,177.8 L 651.0,182.1 L 656.1,189.6 L 661.3,199.4 L 666.4,210.1 L 671.6,220.5 L 676.7,229.6 L 681.9,237.7 L 687.0,244.4" class="fw"/>
<line x1="76.84" y1="343.42" x2="76.84" y2="349.18" class="err"/>
<line x1="73.84" y1="343.42" x2="79.84" y2="343.42" class="err"/>
<line x1="73.84" y1="349.18" x2="79.84" y2="349.18" class="err"/>
<circle cx="76.84" cy="346.30" r="2.5" class="obs"/>
<line x1="83.47" y1="303.64" x2="83.47" y2="315.16" class="err"/>
<line x1="80.47" y1="303.64" x2="86.47" y2="303.64" class="err"/>
<line x1="80.47" y1="315.16" x2="86.47" y2="315.16" class="err"/>
<circle cx="83.47" cy="309.40" r="2.5" class="obs"/>
<line x1="90.10" y1="265.37" x2="90.10" y2="275.80" class="err"/>
<line x1="87.10" y1="265.37" x2="93.10" y2="265.37" class="err"/>
<line x1="87.10" y1="275.80" x2="93.10" y2="275.80" class="err"/>
<circle cx="90.10" cy="270.58" r="2.5" class="obs"/>
<line x1="96.54" y1="249.60" x2="96.54" y2="255.08" class="err"/>
<line x1="93.54" y1="249.60" x2="99.54" y2="249.60" class="err"/>
<line x1="93.54" y1="255.08" x2="99.54" y2="255.08" class="err"/>
<circle cx="96.54" cy="252.34" r="2.5" class="obs"/>
<line x1="103.17" y1="247.68" x2="103.17" y2="254.26" class="err"/>
<line x1="100.17" y1="247.68" x2="106.17" y2="247.68" class="err"/>
<line x1="100.17" y1="254.26" x2="106.17" y2="254.26" class="err"/>
<circle cx="103.17" cy="250.97" r="2.5" class="obs"/>
<line x1="109.80" y1="244.11" x2="109.80" y2="249.60" class="err"/>
<line x1="106.80" y1="244.11" x2="112.80" y2="244.11" class="err"/>
<line x1="106.80" y1="249.60" x2="112.80" y2="249.60" class="err"/>
<circle cx="109.80" cy="246.85" r="2.5" class="obs"/>
<line x1="116.44" y1="232.72" x2="116.44" y2="239.03" class="err"/>
<line x1="113.44" y1="232.72" x2="119.44" y2="232.72" class="err"/>
<line x1="113.44" y1="239.03" x2="119.44" y2="239.03" class="err"/>
<circle cx="116.44" cy="235.88" r="2.5" class="obs"/>
<line x1="122.87" y1="212.15" x2="122.87" y2="221.20" class="err"/>
<line x1="119.87" y1="212.15" x2="125.87" y2="212.15" class="err"/>
<line x1="119.87" y1="221.20" x2="125.87" y2="221.20" class="err"/>
<circle cx="122.87" cy="216.67" r="2.5" class="obs"/>
<line x1="129.51" y1="198.57" x2="129.51" y2="204.60" class="err"/>
<line x1="126.51" y1="198.57" x2="132.51" y2="198.57" class="err"/>
<line x1="126.51" y1="204.60" x2="132.51" y2="204.60" class="err"/>
<circle cx="129.51" cy="201.58" r="2.5" class="obs"/>
<line x1="135.94" y1="192.53" x2="135.94" y2="196.92" class="err"/>
<line x1="132.94" y1="192.53" x2="138.94" y2="192.53" class="err"/>
<line x1="132.94" y1="196.92" x2="138.94" y2="196.92" class="err"/>
<circle cx="135.94" cy="194.73" r="2.5" class="obs"/>
<line x1="142.57" y1="187.32" x2="142.57" y2="191.16" class="err"/>
<line x1="139.57" y1="187.32" x2="145.57" y2="187.32" class="err"/>
<line x1="139.57" y1="191.16" x2="145.57" y2="191.16" class="err"/>
<circle cx="142.57" cy="189.24" r="2.5" class="obs"/>
<line x1="149.21" y1="184.99" x2="149.21" y2="188.00" class="err"/>
<line x1="146.21" y1="184.99" x2="152.21" y2="184.99" class="err"/>
<line x1="146.21" y1="188.00" x2="152.21" y2="188.00" class="err"/>
<circle cx="149.21" cy="186.50" r="2.5" class="obs"/>
<line x1="155.84" y1="180.60" x2="155.84" y2="184.16" class="err"/>
<line x1="152.84" y1="180.60" x2="158.84" y2="180.60" class="err"/>
<line x1="152.84" y1="184.16" x2="158.84" y2="184.16" class="err"/>
<circle cx="155.84" cy="182.38" r="2.5" class="obs"/>
<line x1="162.48" y1="184.03" x2="162.48" y2="188.96" class="err"/>
<line x1="159.48" y1="184.03" x2="165.48" y2="184.03" class="err"/>
<line x1="159.48" y1="188.96" x2="165.48" y2="188.96" class="err"/>
<circle cx="162.48" cy="186.50" r="2.5" class="obs"/>
<line x1="169.31" y1="185.95" x2="169.31" y2="192.53" class="err"/>
<line x1="166.31" y1="185.95" x2="172.31" y2="185.95" class="err"/>
<line x1="166.31" y1="192.53" x2="172.31" y2="192.53" class="err"/>
<circle cx="169.31" cy="189.24" r="2.5" class="obs"/>
<line x1="176.55" y1="185.81" x2="176.55" y2="200.90" class="err"/>
<line x1="173.55" y1="185.81" x2="179.55" y2="185.81" class="err"/>
<line x1="173.55" y1="200.90" x2="179.55" y2="200.90" class="err"/>
<circle cx="176.55" cy="193.35" r="2.5" class="obs"/>
<line x1="183.18" y1="190.89" x2="183.18" y2="201.31" class="err"/>
<line x1="180.18" y1="190.89" x2="186.18" y2="190.89" class="err"/>
<line x1="180.18" y1="201.31" x2="186.18" y2="201.31" class="err"/>
<circle cx="183.18" cy="196.10" r="2.5" class="obs"/>
<line x1="189.82" y1="180.87" x2="189.82" y2="192.12" class="err"/>
<line x1="186.82" y1="180.87" x2="192.82" y2="180.87" class="err"/>
<line x1="186.82" y1="192.12" x2="192.82" y2="192.12" class="err"/>
<circle cx="189.82" cy="186.50" r="2.5" class="obs"/>
<line x1="196.05" y1="188.69" x2="196.05" y2="192.53" class="err"/>
<line x1="193.05" y1="188.69" x2="199.05" y2="188.69" class="err"/>
<line x1="193.05" y1="192.53" x2="199.05" y2="192.53" class="err"/>
<circle cx="196.05" cy="190.61" r="2.5" class="obs"/>
<line x1="235.65" y1="185.12" x2="235.65" y2="196.10" class="err"/>
<line x1="232.65" y1="185.12" x2="238.65" y2="185.12" class="err"/>
<line x1="232.65" y1="196.10" x2="238.65" y2="196.10" class="err"/>
<circle cx="235.65" cy="190.61" r="2.5" class="obs"/>
<line x1="277.06" y1="189.24" x2="277.06" y2="200.21" class="err"/>
<line x1="274.06" y1="189.24" x2="280.06" y2="189.24" class="err"/>
<line x1="274.06" y1="200.21" x2="280.06" y2="200.21" class="err"/>
<circle cx="277.06" cy="194.73" r="2.5" class="obs"/>
<line x1="293.75" y1="186.22" x2="293.75" y2="195.00" class="err"/>
<line x1="290.75" y1="186.22" x2="296.75" y2="186.22" class="err"/>
<line x1="290.75" y1="195.00" x2="296.75" y2="195.00" class="err"/>
<circle cx="293.75" cy="190.61" r="2.5" class="obs"/>
<line x1="310.23" y1="182.65" x2="310.23" y2="190.34" class="err"/>
<line x1="307.23" y1="182.65" x2="313.23" y2="182.65" class="err"/>
<line x1="307.23" y1="190.34" x2="313.23" y2="190.34" class="err"/>
<circle cx="310.23" cy="186.50" r="2.5" class="obs"/>
<line x1="325.71" y1="181.83" x2="325.71" y2="188.42" class="err"/>
<line x1="322.71" y1="181.83" x2="328.71" y2="181.83" class="err"/>
<line x1="322.71" y1="188.42" x2="328.71" y2="188.42" class="err"/>
<circle cx="325.71" cy="185.12" r="2.5" class="obs"/>
<line x1="343.00" y1="177.99" x2="343.00" y2="184.03" class="err"/>
<line x1="340.00" y1="177.99" x2="346.00" y2="177.99" class="err"/>
<line x1="340.00" y1="184.03" x2="346.00" y2="184.03" class="err"/>
<circle cx="343.00" cy="181.01" r="2.5" class="obs"/>
<line x1="360.09" y1="174.42" x2="360.09" y2="182.11" class="err"/>
<line x1="357.09" y1="174.42" x2="363.09" y2="174.42" class="err"/>
<line x1="357.09" y1="182.11" x2="363.09" y2="182.11" class="err"/>
<circle cx="360.09" cy="178.27" r="2.5" class="obs"/>
<line x1="377.38" y1="174.01" x2="377.38" y2="182.52" class="err"/>
<line x1="374.38" y1="174.01" x2="380.38" y2="174.01" class="err"/>
<line x1="374.38" y1="182.52" x2="380.38" y2="182.52" class="err"/>
<circle cx="377.38" cy="178.27" r="2.5" class="obs"/>
<line x1="392.05" y1="171.68" x2="392.05" y2="182.11" class="err"/>
<line x1="389.05" y1="171.68" x2="395.05" y2="171.68" class="err"/>
<line x1="389.05" y1="182.11" x2="395.05" y2="182.11" class="err"/>
<circle cx="392.05" cy="176.89" r="2.5" class="obs"/>
<line x1="409.34" y1="169.21" x2="409.34" y2="179.09" class="err"/>
<line x1="406.34" y1="169.21" x2="412.34" y2="169.21" class="err"/>
<line x1="406.34" y1="179.09" x2="412.34" y2="179.09" class="err"/>
<circle cx="409.34" cy="174.15" r="2.5" class="obs"/>
<line x1="426.43" y1="165.92" x2="426.43" y2="176.89" class="err"/>
<line x1="423.43" y1="165.92" x2="429.43" y2="165.92" class="err"/>
<line x1="423.43" y1="176.89" x2="429.43" y2="176.89" class="err"/>
<circle cx="426.43" cy="171.41" r="2.5" class="obs"/>
<line x1="443.72" y1="166.19" x2="443.72" y2="179.36" class="err"/>
<line x1="440.72" y1="166.19" x2="446.72" y2="166.19" class="err"/>
<line x1="440.72" y1="179.36" x2="446.72" y2="179.36" class="err"/>
<circle cx="443.72" cy="172.78" r="2.5" class="obs"/>
<line x1="458.40" y1="162.22" x2="458.40" y2="177.85" class="err"/>
<line x1="455.40" y1="162.22" x2="461.40" y2="162.22" class="err"/>
<line x1="455.40" y1="177.85" x2="461.40" y2="177.85" class="err"/>
<circle cx="458.40" cy="170.03" r="2.5" class="obs"/>
<line x1="475.68" y1="159.06" x2="475.68" y2="178.27" class="err"/>
<line x1="472.68" y1="159.06" x2="478.68" y2="159.06" class="err"/>
<line x1="472.68" y1="178.27" x2="478.68" y2="178.27" class="err"/>
<circle cx="475.68" cy="168.66" r="2.5" class="obs"/>
<line x1="492.97" y1="158.65" x2="492.97" y2="175.93" class="err"/>
<line x1="489.97" y1="158.65" x2="495.97" y2="158.65" class="err"/>
<line x1="489.97" y1="175.93" x2="495.97" y2="175.93" class="err"/>
<circle cx="492.97" cy="167.29" r="2.5" class="obs"/>
<line x1="510.06" y1="161.80" x2="510.06" y2="181.01" class="err"/>
<line x1="507.06" y1="161.80" x2="513.06" y2="161.80" class="err"/>
<line x1="507.06" y1="181.01" x2="513.06" y2="181.01" class="err"/>
<circle cx="510.06" cy="171.41" r="2.5" class="obs"/>
<line x1="524.94" y1="165.23" x2="524.94" y2="188.55" class="err"/>
<line x1="521.94" y1="165.23" x2="527.94" y2="165.23" class="err"/>
<line x1="521.94" y1="188.55" x2="527.94" y2="188.55" class="err"/>
<circle cx="524.94" cy="176.89" r="2.5" class="obs"/>
<line x1="542.03" y1="169.90" x2="542.03" y2="194.86" class="err"/>
<line x1="539.03" y1="169.90" x2="545.03" y2="169.90" class="err"/>
<line x1="539.03" y1="194.86" x2="545.03" y2="194.86" class="err"/>
<circle cx="542.03" cy="182.38" r="2.5" class="obs"/>
<line x1="559.31" y1="172.78" x2="559.31" y2="194.73" class="err"/>
<line x1="556.31" y1="172.78" x2="562.31" y2="172.78" class="err"/>
<line x1="556.31" y1="194.73" x2="562.31" y2="194.73" class="err"/>
<circle cx="559.31" cy="183.75" r="2.5" class="obs"/>
<line x1="576.40" y1="183.20" x2="576.40" y2="198.02" class="err"/>
<line x1="573.40" y1="183.20" x2="579.40" y2="183.20" class="err"/>
<line x1="573.40" y1="198.02" x2="579.40" y2="198.02" class="err"/>
<circle cx="576.40" cy="190.61" r="2.5" class="obs"/>
<line x1="591.28" y1="180.87" x2="591.28" y2="189.38" class="err"/>
<line x1="588.28" y1="180.87" x2="594.28" y2="180.87" class="err"/>
<line x1="588.28" y1="189.38" x2="594.28" y2="189.38" class="err"/>
<circle cx="591.28" cy="185.12" r="2.5" class="obs"/>
<line x1="608.37" y1="176.89" x2="608.37" y2="185.12" class="err"/>
<line x1="605.37" y1="176.89" x2="611.37" y2="176.89" class="err"/>
<line x1="605.37" y1="185.12" x2="611.37" y2="185.12" class="err"/>
<circle cx="608.37" cy="181.01" r="2.5" class="obs"/>
<line x1="625.65" y1="174.97" x2="625.65" y2="200.76" class="err"/>
<line x1="622.65" y1="174.97" x2="628.65" y2="174.97" class="err"/>
<line x1="622.65" y1="200.76" x2="628.65" y2="200.76" class="err"/>
<circle cx="625.65" cy="187.87" r="2.5" class="obs"/>
<line x1="640.33" y1="167.70" x2="640.33" y2="188.83" class="err"/>
<line x1="637.33" y1="167.70" x2="643.33" y2="167.70" class="err"/>
<line x1="637.33" y1="188.83" x2="643.33" y2="188.83" class="err"/>
<circle cx="640.33" cy="178.27" r="2.5" class="obs"/>
<line x1="657.62" y1="181.83" x2="657.62" y2="191.16" class="err"/>
<line x1="654.62" y1="181.83" x2="660.62" y2="181.83" class="err"/>
<line x1="654.62" y1="191.16" x2="660.62" y2="191.16" class="err"/>
<circle cx="657.62" cy="186.50" r="2.5" class="obs"/>
<g class="legend">
<line x1="82" y1="69" x2="106" y2="69" class="fw"/>
<text x="112" y="73" class="lbl-l">framework: 4.7 km/s, 3.9%, 1.84σ</text>
<line x1="82" y1="87" x2="106" y2="87" class="nt"/>
<text x="112" y="91" class="lbl-l">Newtonian: 41.4 km/s, 27.5%, 13.02σ</text>
<line x1="82" y1="105" x2="106" y2="105" class="mond"/>
<text x="112" y="109" class="lbl-m">MOND/RAR: 11.3 km/s, 9.1%, 5.81σ</text>
<circle cx="94" cy="123" r="2.5" class="obs"/>
<text x="112" y="127" class="lbl">observed V±err</text>
</g>
<g class="legend">
<line x1="472" y1="69" x2="496" y2="69" class="rho"/>
<text x="502" y="73" class="lbl-r">ρ(r) raw</text>
<line x1="472" y1="87" x2="496" y2="87" class="phot"/>
<text x="502" y="91" class="lbl-p">photometric baryonic profile</text>
<line x1="472" y1="105" x2="496" y2="105" class="mbar"/>
<text x="502" y="109" class="lbl-m">MOND baryonic annulus</text>
<line x1="472" y1="123" x2="496" y2="123" class="mph"/>
<text x="502" y="127" class="lbl-m">MOND phantom annulus</text>
<text x="472" y="147" class="lbl-r">ρ peak: 359 M☉/pc²</text>
<text x="472" y="163" class="lbl-p">phot peak: 467.31 (arb.)</text>
<text x="472" y="179" class="lbl-m">Σbar peak: 226.40 M☉/pc²</text>
<text x="472" y="195" class="lbl-m">Σphantom peak: 152.74 M☉/pc²</text>
</g>
<rect x="775" y="55" width="170" height="170" class="preview-bg"/>
<defs><radialGradient id="g_NGC6015" cx="0.5" cy="0.5" r="0.5">
  <stop offset="0.0000" stop-color="rgb(135,135,135)"/>
  <stop offset="0.0313" stop-color="rgb(122,122,122)"/>
  <stop offset="0.0625" stop-color="rgb(112,112,112)"/>
  <stop offset="0.0938" stop-color="rgb(106,106,106)"/>
  <stop offset="0.1250" stop-color="rgb(101,101,101)"/>
  <stop offset="0.1563" stop-color="rgb(97,97,97)"/>
  <stop offset="0.1875" stop-color="rgb(94,94,94)"/>
  <stop offset="0.2188" stop-color="rgb(92,92,92)"/>
  <stop offset="0.2500" stop-color="rgb(90,90,90)"/>
  <stop offset="0.2813" stop-color="rgb(88,88,88)"/>
  <stop offset="0.3125" stop-color="rgb(87,87,87)"/>
  <stop offset="0.3438" stop-color="rgb(86,86,86)"/>
  <stop offset="0.3750" stop-color="rgb(84,84,84)"/>
  <stop offset="0.4063" stop-color="rgb(83,83,83)"/>
  <stop offset="0.4375" stop-color="rgb(82,82,82)"/>
  <stop offset="0.4688" stop-color="rgb(80,80,80)"/>
  <stop offset="0.5000" stop-color="rgb(79,79,79)"/>
  <stop offset="0.5313" stop-color="rgb(77,77,77)"/>
  <stop offset="0.5625" stop-color="rgb(76,76,76)"/>
  <stop offset="0.5938" stop-color="rgb(75,75,75)"/>
  <stop offset="0.6250" stop-color="rgb(73,73,73)"/>
  <stop offset="0.6563" stop-color="rgb(72,72,72)"/>
  <stop offset="0.6875" stop-color="rgb(71,71,71)"/>
  <stop offset="0.7188" stop-color="rgb(69,69,69)"/>
  <stop offset="0.7500" stop-color="rgb(68,68,68)"/>
  <stop offset="0.7813" stop-color="rgb(66,66,66)"/>
  <stop offset="0.8125" stop-color="rgb(65,65,65)"/>
  <stop offset="0.8438" stop-color="rgb(64,64,64)"/>
  <stop offset="0.8750" stop-color="rgb(60,60,60)"/>
  <stop offset="0.9063" stop-color="rgb(57,57,57)"/>
  <stop offset="0.9375" stop-color="rgb(54,54,54)"/>
  <stop offset="0.9688" stop-color="rgb(51,51,51)"/>
  <stop offset="1.0000" stop-color="rgb(0,0,0)"/>
</radialGradient></defs>
<circle cx="860" cy="140" r="81" fill="url(#g_NGC6015)"/>
<text x="860" y="49" text-anchor="middle" class="preview-lbl">face-on luminance from ρ(r)</text>
<text x="860" y="239" text-anchor="middle" class="preview-lbl">edge at r = 29.2 kpc</text>
</svg>