<svg xmlns="http://www.w3.org/2000/svg" viewBox="0 0 890 420" width="890" height="420" font-family="sans-serif" font-size="12">
<style>
  .ax { stroke: #333; stroke-width: 1; fill: none; }
  .grid { stroke: #ddd; stroke-width: 0.5; fill: none; }
  .lbl { fill: #333; }
  .lbl-l { fill: #0066cc; }
  .lbl-r { fill: #b03030; }
  .obs { fill: #222; }
  .err { stroke: #555; stroke-width: 0.8; fill: none; }
  .fw { stroke: #0066cc; stroke-width: 2.2; fill: none; }
  .nt { stroke: #cc6600; stroke-width: 1.6; fill: none; stroke-dasharray: 5,3; }
  .lbl-s { fill: #cc7000; }
  .rho { stroke: #b03030; stroke-width: 2.0; fill: none; }
  .sig { stroke: #cc7000; stroke-width: 1.8; fill: none; }
  .title { fill: #111; font-size: 16px; font-weight: 600; }
  .subtitle { fill: #555; font-size: 11px; }
  .preview-bg { fill: #000; }
  .preview-lbl { fill: #888; font-size: 10px; }
  .legend { font-size: 11px; }
</style>
<text x="343.5" y="22" text-anchor="middle" class="title">NGC6946</text>
<text x="343.5" y="38" text-anchor="middle" class="subtitle">rMax=20.4 kpc, N=58, RMS=10.8 km/s (6.6%), amp=686</text>
<line x1="70" y1="365.0" x2="617" y2="365.0" class="grid"/>
<text x="64" y="369.0" text-anchor="end" class="lbl-l">0</text>
<line x1="70" y1="303.0" x2="617" y2="303.0" class="grid"/>
<text x="64" y="307.0" text-anchor="end" class="lbl-l">49</text>
<line x1="70" y1="241.0" x2="617" y2="241.0" class="grid"/>
<text x="64" y="245.0" text-anchor="end" class="lbl-l">97</text>
<line x1="70" y1="179.0" x2="617" y2="179.0" class="grid"/>
<text x="64" y="183.0" text-anchor="end" class="lbl-l">146</text>
<line x1="70" y1="117.0" x2="617" y2="117.0" class="grid"/>
<text x="64" y="121.0" text-anchor="end" class="lbl-l">195</text>
<line x1="70" y1="55.0" x2="617" y2="55.0" class="grid"/>
<text x="64" y="59.0" text-anchor="end" class="lbl-l">243</text>
<text x="623" y="369.0" text-anchor="start" class="lbl-r">0.0</text>
<text x="623" y="327.7" text-anchor="start" class="lbl-r">0.2</text>
<text x="623" y="286.3" text-anchor="start" class="lbl-r">0.4</text>
<text x="623" y="245.0" text-anchor="start" class="lbl-r">0.6</text>
<text x="623" y="203.7" text-anchor="start" class="lbl-r">0.8</text>
<text x="623" y="162.3" text-anchor="start" class="lbl-r">1.0</text>
<line x1="70.0" y1="55" x2="70.0" y2="365" class="grid"/>
<text x="70.0" y="381" text-anchor="middle" class="lbl">0.0</text>
<line x1="161.2" y1="55" x2="161.2" y2="365" class="grid"/>
<text x="161.2" y="381" text-anchor="middle" class="lbl">3.8</text>
<line x1="252.3" y1="55" x2="252.3" y2="365" class="grid"/>
<text x="252.3" y="381" text-anchor="middle" class="lbl">7.7</text>
<line x1="343.5" y1="55" x2="343.5" y2="365" class="grid"/>
<text x="343.5" y="381" text-anchor="middle" class="lbl">11.5</text>
<line x1="434.7" y1="55" x2="434.7" y2="365" class="grid"/>
<text x="434.7" y="381" text-anchor="middle" class="lbl">15.3</text>
<line x1="525.8" y1="55" x2="525.8" y2="365" class="grid"/>
<text x="525.8" y="381" text-anchor="middle" class="lbl">19.2</text>
<line x1="617.0" y1="55" x2="617.0" y2="365" class="grid"/>
<text x="617.0" y="381" text-anchor="middle" class="lbl">23.0</text>
<text x="343.5" y="408" text-anchor="middle" class="lbl">radius (kpc)</text>
<text x="16" y="210" text-anchor="middle" class="lbl-l" transform="rotate(-90, 16, 210)">velocity (km/s)</text>
<text x="654" y="210" text-anchor="middle" class="lbl-r" transform="rotate(-90, 654, 210)">mass profile (normalized to peak)</text>
<rect x="70" y="55" width="547" height="310" class="ax"/>
<path d="M 70.0,158.3 L 72.5,189.4 L 75.0,220.5 L 77.5,251.5 L 80.0,282.6 L 82.5,313.7 L 85.0,315.5 L 87.5,315.8 L 90.0,316.1 L 92.5,316.4 L 95.0,316.7 L 97.5,317.0 L 100.0,317.3 L 102.5,317.6 L 105.0,317.9 L 107.5,318.2 L 110.0,318.5 L 112.5,318.8 L 115.0,319.1 L 117.5,319.5 L 120.0,319.8 L 122.5,320.1 L 124.9,320.4 L 127.4,320.7 L 129.9,321.0 L 132.4,321.3 L 134.9,321.6 L 137.4,321.9 L 139.9,322.2 L 142.4,322.4 L 144.9,322.7 L 147.4,323.0 L 149.9,323.3 L 152.4,323.6 L 154.9,323.9 L 157.4,324.2 L 159.9,324.4 L 162.4,324.7 L 164.9,325.0 L 167.4,325.3 L 169.9,325.6 L 172.4,325.9 L 174.9,326.2 L 177.4,326.4 L 179.9,326.7 L 182.4,327.0 L 184.9,327.3 L 187.4,327.6 L 189.9,327.9 L 192.4,328.1 L 194.9,328.4 L 197.4,328.7 L 199.9,329.0 L 202.4,329.3 L 204.9,329.6 L 207.4,329.9 L 209.9,330.1 L 212.4,330.4 L 214.9,330.7 L 217.4,331.0 L 219.9,331.3 L 222.4,331.6 L 224.9,331.8 L 227.4,332.1 L 229.9,332.4 L 232.4,332.7 L 234.8,333.0 L 237.3,333.3 L 239.8,333.6 L 242.3,333.8 L 244.8,334.1 L 247.3,334.4 L 249.8,334.7 L 252.3,335.0 L 254.8,335.2 L 257.3,335.4 L 259.8,335.5 L 262.3,335.6 L 264.8,335.8 L 267.3,335.9 L 269.8,336.0 L 272.3,336.2 L 274.8,336.3 L 277.3,336.4 L 279.8,336.6 L 282.3,336.7 L 284.8,336.8 L 287.3,337.0 L 289.8,337.1 L 292.3,337.2 L 294.8,337.4 L 297.3,337.5 L 299.8,337.6 L 302.3,337.8 L 304.8,337.9 L 307.3,338.0 L 309.8,338.2 L 312.3,338.3 L 314.8,338.4 L 317.3,338.6 L 319.8,338.7 L 322.3,338.8 L 324.8,339.0 L 327.3,339.1 L 329.8,339.2 L 332.3,339.4 L 334.8,339.5 L 337.3,339.6 L 339.8,339.8 L 342.3,339.9 L 344.7,340.0 L 347.2,340.2 L 349.7,340.3 L 352.2,340.4 L 354.7,340.6 L 357.2,340.7 L 359.7,340.8 L 362.2,341.0 L 364.7,341.1 L 367.2,341.2 L 369.7,341.4 L 372.2,341.5 L 374.7,341.6 L 377.2,341.8 L 379.7,341.9 L 382.2,342.0 L 384.7,342.2 L 387.2,342.3 L 389.7,342.4 L 392.2,342.6 L 394.7,342.7 L 397.2,342.8 L 399.7,343.0 L 402.2,343.1 L 404.7,343.2 L 407.2,343.4 L 409.7,343.5 L 412.2,343.6 L 414.7,343.8 L 417.2,343.9 L 419.7,344.0 L 422.2,344.2 L 424.7,344.3 L 427.2,344.4 L 429.7,344.6 L 432.2,344.7 L 434.7,344.8 L 437.2,345.0 L 439.7,345.1 L 442.2,345.2 L 444.7,345.4 L 447.2,345.5 L 449.7,345.6 L 452.2,345.8 L 454.6,345.9 L 457.1,346.0 L 459.6,346.2 L 462.1,346.3 L 464.6,346.4 L 467.1,346.6 L 469.6,346.7 L 472.1,346.8 L 474.6,347.0 L 477.1,347.1 L 479.6,347.2 L 482.1,347.4 L 484.6,347.5 L 487.1,347.6 L 489.6,347.8 L 492.1,347.9 L 494.6,348.0 L 497.1,348.2 L 499.6,348.3 L 502.1,348.4 L 504.6,348.6 L 507.1,348.7 L 509.6,348.8 L 512.1,349.0 L 514.6,349.1 L 517.1,349.2 L 519.6,349.4 L 522.1,349.5 L 524.6,349.6 L 527.1,349.8 L 529.6,349.9 L 532.1,350.0 L 534.6,350.2 L 537.1,350.3 L 539.6,350.4 L 542.1,350.6 L 544.6,350.7 L 547.1,350.8 L 549.6,350.9 L 552.1,351.1 L 554.6,351.2 L 557.1,351.3 L 559.6,351.5 L 562.1,351.6 L 564.5,351.7 L 567.0,351.9 L 569.5,352.0 L 572.0,352.1 L 574.5,352.3 L 577.0,352.4 L 579.5,352.5 L 582.0,352.7 L 584.5,352.8 L 587.0,355.2 L 589.5,361.4 L 592.0,365.0 L 594.5,365.0 L 597.0,365.0 L 599.5,365.0 L 602.0,365.0 L 604.5,365.0 L 607.0,365.0 L 609.5,365.0 L 612.0,365.0 L 614.5,365.0 L 617.0,365.0" class="rho"/>
<path d="M 70.0,158.3 L 72.5,162.1 L 75.0,167.5 L 77.5,174.3 L 80.0,181.8 L 82.5,189.4 L 85.0,196.5 L 87.5,202.5 L 90.0,207.6 L 92.5,211.9 L 95.0,215.6 L 97.5,218.8 L 100.0,221.6 L 102.5,224.0 L 105.0,226.3 L 107.5,228.4 L 110.0,230.3 L 112.5,232.2 L 115.0,233.9 L 117.5,235.6 L 120.0,237.2 L 122.5,238.8 L 124.9,240.3 L 127.4,241.8 L 129.9,243.3 L 132.4,244.7 L 134.9,246.1 L 137.4,247.5 L 139.9,248.9 L 142.4,250.2 L 144.9,251.6 L 147.4,252.9 L 149.9,254.2 L 152.4,255.5 L 154.9,256.8 L 157.4,258.1 L 159.9,259.4 L 162.4,260.6 L 164.9,261.9 L 167.4,263.2 L 169.9,264.4 L 172.4,265.6 L 174.9,266.9 L 177.4,268.1 L 179.9,269.3 L 182.4,270.5 L 184.9,271.7 L 187.4,272.9 L 189.9,274.1 L 192.4,275.2 L 194.9,276.4 L 197.4,277.5 L 199.9,278.7 L 202.4,279.8 L 204.9,280.9 L 207.4,282.1 L 209.9,283.2 L 212.4,284.3 L 214.9,285.3 L 217.4,286.4 L 219.9,287.5 L 222.4,288.5 L 224.9,289.6 L 227.4,290.6 L 229.9,291.6 L 232.4,292.6 L 234.8,293.6 L 237.3,294.5 L 239.8,295.5 L 242.3,296.4 L 244.8,297.4 L 247.3,298.3 L 249.8,299.1 L 252.3,300.0 L 254.8,300.8 L 257.3,301.7 L 259.8,302.5 L 262.3,303.3 L 264.8,304.0 L 267.3,304.8 L 269.8,305.5 L 272.3,306.2 L 274.8,306.9 L 277.3,307.6 L 279.8,308.3 L 282.3,309.0 L 284.8,309.7 L 287.3,310.3 L 289.8,311.0 L 292.3,311.6 L 294.8,312.2 L 297.3,312.8 L 299.8,313.5 L 302.3,314.1 L 304.8,314.7 L 307.3,315.3 L 309.8,315.8 L 312.3,316.4 L 314.8,317.0 L 317.3,317.6 L 319.8,318.1 L 322.3,318.7 L 324.8,319.2 L 327.3,319.8 L 329.8,320.3 L 332.3,320.8 L 334.8,321.3 L 337.3,321.9 L 339.8,322.4 L 342.3,322.9 L 344.7,323.4 L 347.2,323.9 L 349.7,324.4 L 352.2,324.9 L 354.7,325.4 L 357.2,325.9 L 359.7,326.3 L 362.2,326.8 L 364.7,327.3 L 367.2,327.8 L 369.7,328.2 L 372.2,328.7 L 374.7,329.1 L 377.2,329.6 L 379.7,330.0 L 382.2,330.5 L 384.7,330.9 L 387.2,331.3 L 389.7,331.8 L 392.2,332.2 L 394.7,332.6 L 397.2,333.0 L 399.7,333.4 L 402.2,333.8 L 404.7,334.2 L 407.2,334.6 L 409.7,335.0 L 412.2,335.4 L 414.7,335.8 L 417.2,336.2 L 419.7,336.6 L 422.2,337.0 L 424.7,337.4 L 427.2,337.7 L 429.7,338.1 L 432.2,338.5 L 434.7,338.8 L 437.2,339.2 L 439.7,339.5 L 442.2,339.9 L 444.7,340.2 L 447.2,340.6 L 449.7,340.9 L 452.2,341.3 L 454.6,341.6 L 457.1,341.9 L 459.6,342.3 L 462.1,342.6 L 464.6,342.9 L 467.1,343.2 L 469.6,343.5 L 472.1,343.8 L 474.6,344.1 L 477.1,344.4 L 479.6,344.8 L 482.1,345.1 L 484.6,345.3 L 487.1,345.6 L 489.6,345.9 L 492.1,346.2 L 494.6,346.5 L 497.1,346.8 L 499.6,347.1 L 502.1,347.3 L 504.6,347.6 L 507.1,347.9 L 509.6,348.1 L 512.1,348.4 L 514.6,348.7 L 517.1,348.9 L 519.6,349.2 L 522.1,349.4 L 524.6,349.7 L 527.1,349.9 L 529.6,350.2 L 532.1,350.4 L 534.6,350.6 L 537.1,350.9 L 539.6,351.1 L 542.1,351.4 L 544.6,351.6 L 547.1,351.8 L 549.6,352.0 L 552.1,352.3 L 554.6,352.5 L 557.1,352.7 L 559.6,353.0 L 562.1,353.2 L 564.5,353.4 L 567.0,353.6 L 569.5,353.9 L 572.0,354.1 L 574.5,354.3 L 577.0,354.6 L 579.5,354.8 L 582.0,355.0 L 584.5,355.3 L 587.0,355.5 L 589.5,355.7 L 592.0,356.0 L 594.5,356.2 L 597.0,356.4 L 599.5,356.6 L 602.0,356.8 L 604.5,356.9 L 607.0,357.1 L 609.5,357.2 L 612.0,357.4 L 614.5,357.5 L 617.0,357.7" class="sig"/>
<path d="M 75.5,285.7 L 80.9,269.9 L 86.4,267.9 L 91.9,262.9 L 97.3,256.7 L 102.8,250.2 L 108.3,243.7 L 113.8,237.5 L 119.2,231.5 L 124.7,225.8 L 130.2,220.4 L 135.6,215.2 L 141.1,210.3 L 146.6,205.6 L 152.1,201.1 L 157.5,196.8 L 163.0,192.7 L 168.5,188.7 L 173.9,184.9 L 179.4,181.3 L 184.9,177.8 L 190.3,174.5 L 195.8,171.3 L 201.3,168.2 L 206.8,165.3 L 212.2,162.4 L 217.7,159.7 L 223.2,157.1 L 228.6,154.6 L 234.1,152.2 L 239.6,150.0 L 245.0,147.8 L 250.5,145.7 L 256.0,143.7 L 261.5,141.7 L 266.9,139.8 L 272.4,137.9 L 277.9,136.0 L 283.3,134.2 L 288.8,132.4 L 294.3,130.6 L 299.7,128.9 L 305.2,127.2 L 310.7,125.5 L 316.1,123.9 L 321.6,122.3 L 327.1,120.7 L 332.6,119.2 L 338.0,117.7 L 343.5,116.3 L 349.0,114.9 L 354.4,113.5 L 359.9,112.1 L 365.4,110.8 L 370.9,109.5 L 376.3,108.2 L 381.8,107.0 L 387.3,105.8 L 392.7,104.6 L 398.2,103.5 L 403.7,102.4 L 409.1,101.3 L 414.6,100.3 L 420.1,99.3 L 425.5,98.3 L 431.0,97.3 L 436.5,96.4 L 442.0,95.5 L 447.4,94.6 L 452.9,93.8 L 458.4,93.0 L 463.8,92.2 L 469.3,91.4 L 474.8,90.7 L 480.3,90.0 L 485.7,89.3 L 491.2,88.7 L 496.7,88.1 L 502.1,87.5 L 507.6,86.9 L 513.1,86.4 L 518.5,85.9 L 524.0,85.4 L 529.5,85.0 L 535.0,84.5 L 540.4,84.1 L 545.9,83.7 L 551.4,83.4 L 556.8,83.1 L 562.3,82.8 L 567.8,82.5 L 573.2,82.3 L 578.7,82.1 L 584.2,81.9 L 589.6,82.1 L 595.1,83.5 L 600.6,84.9 L 606.1,86.4 L 611.5,87.9 L 617.0,89.2" class="nt"/>
<path d="M 74.6,268.9 L 79.1,217.2 L 83.7,188.3 L 88.2,181.7 L 92.8,187.5 L 97.3,195.7 L 101.9,200.6 L 106.5,203.1 L 111.0,203.2 L 115.6,201.9 L 120.1,199.6 L 124.7,196.6 L 129.3,193.2 L 133.8,189.6 L 138.4,185.8 L 142.9,181.9 L 147.5,178.0 L 152.1,174.1 L 156.6,170.2 L 161.2,166.4 L 165.7,162.7 L 170.3,159.2 L 174.8,155.8 L 179.4,152.5 L 184.0,149.5 L 188.5,146.6 L 193.1,143.9 L 197.6,141.4 L 202.2,139.1 L 206.8,137.1 L 211.3,135.3 L 215.9,133.8 L 220.4,132.5 L 225.0,131.6 L 229.5,131.0 L 234.1,130.7 L 238.7,130.9 L 243.2,131.7 L 247.8,133.0 L 252.3,134.7 L 256.9,136.8 L 261.4,138.8 L 266.0,140.6 L 270.6,142.1 L 275.1,143.2 L 279.7,144.2 L 284.2,144.9 L 288.8,145.5 L 293.4,145.9 L 297.9,146.3 L 302.5,146.5 L 307.0,146.8 L 311.6,146.9 L 316.1,147.1 L 320.7,147.2 L 325.3,147.3 L 329.8,147.3 L 334.4,147.4 L 338.9,147.5 L 343.5,147.6 L 348.1,147.6 L 352.6,147.7 L 357.2,147.8 L 361.7,148.0 L 366.3,148.1 L 370.9,148.3 L 375.4,148.4 L 380.0,148.7 L 384.5,148.9 L 389.1,149.2 L 393.6,149.4 L 398.2,149.8 L 402.8,150.1 L 407.3,150.5 L 411.9,150.9 L 416.4,151.3 L 421.0,151.8 L 425.6,152.3 L 430.1,152.8 L 434.7,153.3 L 439.2,153.9 L 443.8,154.5 L 448.3,155.1 L 452.9,155.8 L 457.5,156.5 L 462.0,157.2 L 466.6,158.0 L 471.1,158.7 L 475.7,159.5 L 480.3,160.3 L 484.8,161.2 L 489.4,162.0 L 493.9,162.9 L 498.5,163.8 L 503.0,164.6 L 507.6,165.5 L 512.2,166.4 L 516.7,167.2 L 521.3,168.1 L 525.8,168.8 L 530.4,169.6 L 535.0,170.2 L 539.5,170.7 L 544.1,171.1 L 548.6,171.2 L 553.2,171.0 L 557.7,170.5 L 562.3,169.3 L 566.9,167.7 L 571.4,165.5 L 576.0,163.3 L 580.5,162.0 L 585.1,162.5 L 589.6,165.6 L 594.2,171.5 L 598.8,179.3 L 603.3,187.8 L 607.9,196.2 L 612.4,203.7 L 617.0,210.4" class="fw"/>
<line x1="74.52" y1="159.75" x2="74.52" y2="180.15" class="err"/>
<line x1="71.52" y1="159.75" x2="77.52" y2="159.75" class="err"/>
<line x1="71.52" y1="180.15" x2="77.52" y2="180.15" class="err"/>
<circle cx="74.52" cy="169.95" r="2.5" class="obs"/>
<line x1="83.32" y1="187.80" x2="83.32" y2="210.74" class="err"/>
<line x1="80.32" y1="187.80" x2="86.32" y2="187.80" class="err"/>
<line x1="80.32" y1="210.74" x2="86.32" y2="210.74" class="err"/>
<circle cx="83.32" cy="199.27" r="2.5" class="obs"/>
<line x1="92.35" y1="198.00" x2="92.35" y2="205.65" class="err"/>
<line x1="89.35" y1="198.00" x2="95.35" y2="198.00" class="err"/>
<line x1="89.35" y1="205.65" x2="95.35" y2="205.65" class="err"/>
<circle cx="92.35" cy="201.82" r="2.5" class="obs"/>
<line x1="99.01" y1="190.35" x2="99.01" y2="198.00" class="err"/>
<line x1="96.01" y1="190.35" x2="102.01" y2="190.35" class="err"/>
<line x1="96.01" y1="198.00" x2="102.01" y2="198.00" class="err"/>
<circle cx="99.01" cy="194.17" r="2.5" class="obs"/>
<line x1="107.81" y1="195.45" x2="107.81" y2="205.65" class="err"/>
<line x1="104.81" y1="195.45" x2="110.81" y2="195.45" class="err"/>
<line x1="104.81" y1="205.65" x2="110.81" y2="205.65" class="err"/>
<circle cx="107.81" cy="200.55" r="2.5" class="obs"/>
<line x1="116.60" y1="189.07" x2="116.60" y2="206.92" class="err"/>
<line x1="113.60" y1="189.07" x2="119.60" y2="189.07" class="err"/>
<line x1="113.60" y1="206.92" x2="119.60" y2="206.92" class="err"/>
<circle cx="116.60" cy="198.00" r="2.5" class="obs"/>
<line x1="125.64" y1="178.87" x2="125.64" y2="199.27" class="err"/>
<line x1="122.64" y1="178.87" x2="128.64" y2="178.87" class="err"/>
<line x1="122.64" y1="199.27" x2="128.64" y2="199.27" class="err"/>
<circle cx="125.64" cy="189.07" r="2.5" class="obs"/>
<line x1="134.44" y1="181.42" x2="134.44" y2="194.17" class="err"/>
<line x1="131.44" y1="181.42" x2="137.44" y2="181.42" class="err"/>
<line x1="131.44" y1="194.17" x2="137.44" y2="194.17" class="err"/>
<circle cx="134.44" cy="187.80" r="2.5" class="obs"/>
<line x1="141.09" y1="178.87" x2="141.09" y2="186.52" class="err"/>
<line x1="138.09" y1="178.87" x2="144.09" y2="178.87" class="err"/>
<line x1="138.09" y1="186.52" x2="144.09" y2="186.52" class="err"/>
<circle cx="141.09" cy="182.70" r="2.5" class="obs"/>
<line x1="150.13" y1="176.32" x2="150.13" y2="181.42" class="err"/>
<line x1="147.13" y1="176.32" x2="153.13" y2="176.32" class="err"/>
<line x1="147.13" y1="181.42" x2="153.13" y2="181.42" class="err"/>
<circle cx="150.13" cy="178.87" r="2.5" class="obs"/>
<line x1="158.93" y1="166.13" x2="158.93" y2="171.22" class="err"/>
<line x1="155.93" y1="166.13" x2="161.93" y2="166.13" class="err"/>
<line x1="155.93" y1="171.22" x2="161.93" y2="171.22" class="err"/>
<circle cx="158.93" cy="168.68" r="2.5" class="obs"/>
<line x1="167.96" y1="158.48" x2="167.96" y2="161.03" class="err"/>
<line x1="164.96" y1="158.48" x2="170.96" y2="158.48" class="err"/>
<line x1="164.96" y1="161.03" x2="170.96" y2="161.03" class="err"/>
<circle cx="167.96" cy="159.75" r="2.5" class="obs"/>
<line x1="174.62" y1="149.55" x2="174.62" y2="154.65" class="err"/>
<line x1="171.62" y1="149.55" x2="177.62" y2="149.55" class="err"/>
<line x1="171.62" y1="154.65" x2="177.62" y2="154.65" class="err"/>
<circle cx="174.62" cy="152.10" r="2.5" class="obs"/>
<line x1="183.42" y1="141.90" x2="183.42" y2="147.00" class="err"/>
<line x1="180.42" y1="141.90" x2="186.42" y2="141.90" class="err"/>
<line x1="180.42" y1="147.00" x2="186.42" y2="147.00" class="err"/>
<circle cx="183.42" cy="144.45" r="2.5" class="obs"/>
<line x1="192.45" y1="135.53" x2="192.45" y2="145.73" class="err"/>
<line x1="189.45" y1="135.53" x2="195.45" y2="135.53" class="err"/>
<line x1="189.45" y1="145.73" x2="195.45" y2="145.73" class="err"/>
<circle cx="192.45" cy="140.63" r="2.5" class="obs"/>
<line x1="201.25" y1="131.70" x2="201.25" y2="144.45" class="err"/>
<line x1="198.25" y1="131.70" x2="204.25" y2="131.70" class="err"/>
<line x1="198.25" y1="144.45" x2="204.25" y2="144.45" class="err"/>
<circle cx="201.25" cy="138.08" r="2.5" class="obs"/>
<line x1="210.05" y1="131.70" x2="210.05" y2="139.35" class="err"/>
<line x1="207.05" y1="131.70" x2="213.05" y2="131.70" class="err"/>
<line x1="207.05" y1="139.35" x2="213.05" y2="139.35" class="err"/>
<circle cx="210.05" cy="135.53" r="2.5" class="obs"/>
<line x1="216.71" y1="131.70" x2="216.71" y2="141.90" class="err"/>
<line x1="213.71" y1="131.70" x2="219.71" y2="131.70" class="err"/>
<line x1="213.71" y1="141.90" x2="219.71" y2="141.90" class="err"/>
<circle cx="216.71" cy="136.80" r="2.5" class="obs"/>
<line x1="225.74" y1="129.16" x2="225.74" y2="141.90" class="err"/>
<line x1="222.74" y1="129.16" x2="228.74" y2="129.16" class="err"/>
<line x1="222.74" y1="141.90" x2="228.74" y2="141.90" class="err"/>
<circle cx="225.74" cy="135.53" r="2.5" class="obs"/>
<line x1="234.54" y1="129.16" x2="234.54" y2="139.35" class="err"/>
<line x1="231.54" y1="129.16" x2="237.54" y2="129.16" class="err"/>
<line x1="231.54" y1="139.35" x2="237.54" y2="139.35" class="err"/>
<circle cx="234.54" cy="134.25" r="2.5" class="obs"/>
<line x1="243.57" y1="131.70" x2="243.57" y2="141.90" class="err"/>
<line x1="240.57" y1="131.70" x2="246.57" y2="131.70" class="err"/>
<line x1="240.57" y1="141.90" x2="246.57" y2="141.90" class="err"/>
<circle cx="243.57" cy="136.80" r="2.5" class="obs"/>
<line x1="250.23" y1="134.25" x2="250.23" y2="139.35" class="err"/>
<line x1="247.23" y1="134.25" x2="253.23" y2="134.25" class="err"/>
<line x1="247.23" y1="139.35" x2="253.23" y2="139.35" class="err"/>
<circle cx="250.23" cy="136.80" r="2.5" class="obs"/>
<line x1="259.03" y1="135.53" x2="259.03" y2="138.08" class="err"/>
<line x1="256.03" y1="135.53" x2="262.03" y2="135.53" class="err"/>
<line x1="256.03" y1="138.08" x2="262.03" y2="138.08" class="err"/>
<circle cx="259.03" cy="136.80" r="2.5" class="obs"/>
<line x1="268.07" y1="136.80" x2="268.07" y2="139.35" class="err"/>
<line x1="265.07" y1="136.80" x2="271.07" y2="136.80" class="err"/>
<line x1="265.07" y1="139.35" x2="271.07" y2="139.35" class="err"/>
<circle cx="268.07" cy="138.08" r="2.5" class="obs"/>
<line x1="276.86" y1="136.80" x2="276.86" y2="141.90" class="err"/>
<line x1="273.86" y1="136.80" x2="279.86" y2="136.80" class="err"/>
<line x1="273.86" y1="141.90" x2="279.86" y2="141.90" class="err"/>
<circle cx="276.86" cy="139.35" r="2.5" class="obs"/>
<line x1="285.90" y1="138.08" x2="285.90" y2="143.18" class="err"/>
<line x1="282.90" y1="138.08" x2="288.90" y2="138.08" class="err"/>
<line x1="282.90" y1="143.18" x2="288.90" y2="143.18" class="err"/>
<circle cx="285.90" cy="140.63" r="2.5" class="obs"/>
<line x1="292.56" y1="140.63" x2="292.56" y2="148.28" class="err"/>
<line x1="289.56" y1="140.63" x2="295.56" y2="140.63" class="err"/>
<line x1="289.56" y1="148.28" x2="295.56" y2="148.28" class="err"/>
<circle cx="292.56" cy="144.45" r="2.5" class="obs"/>
<line x1="301.35" y1="143.18" x2="301.35" y2="148.28" class="err"/>
<line x1="298.35" y1="143.18" x2="304.35" y2="143.18" class="err"/>
<line x1="298.35" y1="148.28" x2="304.35" y2="148.28" class="err"/>
<circle cx="301.35" cy="145.73" r="2.5" class="obs"/>
<line x1="310.15" y1="143.18" x2="310.15" y2="148.28" class="err"/>
<line x1="307.15" y1="143.18" x2="313.15" y2="143.18" class="err"/>
<line x1="307.15" y1="148.28" x2="313.15" y2="148.28" class="err"/>
<circle cx="310.15" cy="145.73" r="2.5" class="obs"/>
<line x1="319.19" y1="145.73" x2="319.19" y2="150.83" class="err"/>
<line x1="316.19" y1="145.73" x2="322.19" y2="145.73" class="err"/>
<line x1="316.19" y1="150.83" x2="322.19" y2="150.83" class="err"/>
<circle cx="319.19" cy="148.28" r="2.5" class="obs"/>
<line x1="325.84" y1="144.45" x2="325.84" y2="149.55" class="err"/>
<line x1="322.84" y1="144.45" x2="328.84" y2="144.45" class="err"/>
<line x1="322.84" y1="149.55" x2="328.84" y2="149.55" class="err"/>
<circle cx="325.84" cy="147.00" r="2.5" class="obs"/>
<line x1="334.64" y1="140.63" x2="334.64" y2="145.73" class="err"/>
<line x1="331.64" y1="140.63" x2="337.64" y2="140.63" class="err"/>
<line x1="331.64" y1="145.73" x2="337.64" y2="145.73" class="err"/>
<circle cx="334.64" cy="143.18" r="2.5" class="obs"/>
<line x1="343.68" y1="140.63" x2="343.68" y2="145.73" class="err"/>
<line x1="340.68" y1="140.63" x2="346.68" y2="140.63" class="err"/>
<line x1="340.68" y1="145.73" x2="346.68" y2="145.73" class="err"/>
<circle cx="343.68" cy="143.18" r="2.5" class="obs"/>
<line x1="352.48" y1="139.35" x2="352.48" y2="144.45" class="err"/>
<line x1="349.48" y1="139.35" x2="355.48" y2="139.35" class="err"/>
<line x1="349.48" y1="144.45" x2="355.48" y2="144.45" class="err"/>
<circle cx="352.48" cy="141.90" r="2.5" class="obs"/>
<line x1="361.51" y1="140.63" x2="361.51" y2="145.73" class="err"/>
<line x1="358.51" y1="140.63" x2="364.51" y2="140.63" class="err"/>
<line x1="358.51" y1="145.73" x2="364.51" y2="145.73" class="err"/>
<circle cx="361.51" cy="143.18" r="2.5" class="obs"/>
<line x1="368.17" y1="136.80" x2="368.17" y2="152.10" class="err"/>
<line x1="365.17" y1="136.80" x2="371.17" y2="136.80" class="err"/>
<line x1="365.17" y1="152.10" x2="371.17" y2="152.10" class="err"/>
<circle cx="368.17" cy="144.45" r="2.5" class="obs"/>
<line x1="376.97" y1="136.80" x2="376.97" y2="152.10" class="err"/>
<line x1="373.97" y1="136.80" x2="379.97" y2="136.80" class="err"/>
<line x1="373.97" y1="152.10" x2="379.97" y2="152.10" class="err"/>
<circle cx="376.97" cy="144.45" r="2.5" class="obs"/>
<line x1="386.00" y1="134.25" x2="386.00" y2="154.65" class="err"/>
<line x1="383.00" y1="134.25" x2="389.00" y2="134.25" class="err"/>
<line x1="383.00" y1="154.65" x2="389.00" y2="154.65" class="err"/>
<circle cx="386.00" cy="144.45" r="2.5" class="obs"/>
<line x1="394.80" y1="130.43" x2="394.80" y2="153.38" class="err"/>
<line x1="391.80" y1="130.43" x2="397.80" y2="130.43" class="err"/>
<line x1="391.80" y1="153.38" x2="397.80" y2="153.38" class="err"/>
<circle cx="394.80" cy="141.90" r="2.5" class="obs"/>
<line x1="403.60" y1="131.70" x2="403.60" y2="154.65" class="err"/>
<line x1="400.60" y1="131.70" x2="406.60" y2="131.70" class="err"/>
<line x1="400.60" y1="154.65" x2="406.60" y2="154.65" class="err"/>
<circle cx="403.60" cy="143.18" r="2.5" class="obs"/>
<line x1="410.25" y1="135.53" x2="410.25" y2="158.48" class="err"/>
<line x1="407.25" y1="135.53" x2="413.25" y2="135.53" class="err"/>
<line x1="407.25" y1="158.48" x2="413.25" y2="158.48" class="err"/>
<circle cx="410.25" cy="147.00" r="2.5" class="obs"/>
<line x1="419.29" y1="141.90" x2="419.29" y2="162.30" class="err"/>
<line x1="416.29" y1="141.90" x2="422.29" y2="141.90" class="err"/>
<line x1="416.29" y1="162.30" x2="422.29" y2="162.30" class="err"/>
<circle cx="419.29" cy="152.10" r="2.5" class="obs"/>
<line x1="428.09" y1="145.73" x2="428.09" y2="163.58" class="err"/>
<line x1="425.09" y1="145.73" x2="431.09" y2="145.73" class="err"/>
<line x1="425.09" y1="163.58" x2="431.09" y2="163.58" class="err"/>
<circle cx="428.09" cy="154.65" r="2.5" class="obs"/>
<line x1="437.12" y1="147.00" x2="437.12" y2="167.40" class="err"/>
<line x1="434.12" y1="147.00" x2="440.12" y2="147.00" class="err"/>
<line x1="434.12" y1="167.40" x2="440.12" y2="167.40" class="err"/>
<circle cx="437.12" cy="157.20" r="2.5" class="obs"/>
<line x1="443.78" y1="148.28" x2="443.78" y2="168.68" class="err"/>
<line x1="440.78" y1="148.28" x2="446.78" y2="148.28" class="err"/>
<line x1="440.78" y1="168.68" x2="446.78" y2="168.68" class="err"/>
<circle cx="443.78" cy="158.48" r="2.5" class="obs"/>
<line x1="452.58" y1="148.28" x2="452.58" y2="171.22" class="err"/>
<line x1="449.58" y1="148.28" x2="455.58" y2="148.28" class="err"/>
<line x1="449.58" y1="171.22" x2="455.58" y2="171.22" class="err"/>
<circle cx="452.58" cy="159.75" r="2.5" class="obs"/>
<line x1="461.61" y1="149.55" x2="461.61" y2="175.05" class="err"/>
<line x1="458.61" y1="149.55" x2="464.61" y2="149.55" class="err"/>
<line x1="458.61" y1="175.05" x2="464.61" y2="175.05" class="err"/>
<circle cx="461.61" cy="162.30" r="2.5" class="obs"/>
<line x1="470.41" y1="150.83" x2="470.41" y2="176.32" class="err"/>
<line x1="467.41" y1="150.83" x2="473.41" y2="150.83" class="err"/>
<line x1="467.41" y1="176.32" x2="473.41" y2="176.32" class="err"/>
<circle cx="470.41" cy="163.58" r="2.5" class="obs"/>
<line x1="479.21" y1="152.10" x2="479.21" y2="177.60" class="err"/>
<line x1="476.21" y1="152.10" x2="482.21" y2="152.10" class="err"/>
<line x1="476.21" y1="177.60" x2="482.21" y2="177.60" class="err"/>
<circle cx="479.21" cy="164.85" r="2.5" class="obs"/>
<line x1="486.10" y1="152.10" x2="486.10" y2="177.60" class="err"/>
<line x1="483.10" y1="152.10" x2="489.10" y2="152.10" class="err"/>
<line x1="483.10" y1="177.60" x2="489.10" y2="177.60" class="err"/>
<circle cx="486.10" cy="164.85" r="2.5" class="obs"/>
<line x1="494.90" y1="153.38" x2="494.90" y2="176.32" class="err"/>
<line x1="491.90" y1="153.38" x2="497.90" y2="153.38" class="err"/>
<line x1="491.90" y1="176.32" x2="497.90" y2="176.32" class="err"/>
<circle cx="494.90" cy="164.85" r="2.5" class="obs"/>
<line x1="503.70" y1="147.00" x2="503.70" y2="175.05" class="err"/>
<line x1="500.70" y1="147.00" x2="506.70" y2="147.00" class="err"/>
<line x1="500.70" y1="175.05" x2="506.70" y2="175.05" class="err"/>
<circle cx="503.70" cy="161.03" r="2.5" class="obs"/>
<line x1="512.73" y1="147.00" x2="512.73" y2="177.60" class="err"/>
<line x1="509.73" y1="147.00" x2="515.73" y2="147.00" class="err"/>
<line x1="509.73" y1="177.60" x2="515.73" y2="177.60" class="err"/>
<circle cx="512.73" cy="162.30" r="2.5" class="obs"/>
<line x1="519.39" y1="143.18" x2="519.39" y2="178.87" class="err"/>
<line x1="516.39" y1="143.18" x2="522.39" y2="143.18" class="err"/>
<line x1="516.39" y1="178.87" x2="522.39" y2="178.87" class="err"/>
<circle cx="519.39" cy="161.03" r="2.5" class="obs"/>
<line x1="528.19" y1="143.18" x2="528.19" y2="183.97" class="err"/>
<line x1="525.19" y1="143.18" x2="531.19" y2="143.18" class="err"/>
<line x1="525.19" y1="183.97" x2="531.19" y2="183.97" class="err"/>
<circle cx="528.19" cy="163.58" r="2.5" class="obs"/>
<line x1="537.23" y1="144.45" x2="537.23" y2="190.35" class="err"/>
<line x1="534.23" y1="144.45" x2="540.23" y2="144.45" class="err"/>
<line x1="534.23" y1="190.35" x2="540.23" y2="190.35" class="err"/>
<circle cx="537.23" cy="167.40" r="2.5" class="obs"/>
<line x1="546.02" y1="140.63" x2="546.02" y2="189.07" class="err"/>
<line x1="543.02" y1="140.63" x2="549.02" y2="140.63" class="err"/>
<line x1="543.02" y1="189.07" x2="549.02" y2="189.07" class="err"/>
<circle cx="546.02" cy="164.85" r="2.5" class="obs"/>
<line x1="555.06" y1="141.90" x2="555.06" y2="195.45" class="err"/>
<line x1="552.06" y1="141.90" x2="558.06" y2="141.90" class="err"/>
<line x1="552.06" y1="195.45" x2="558.06" y2="195.45" class="err"/>
<circle cx="555.06" cy="168.68" r="2.5" class="obs"/>
<g class="legend">
<line x1="82" y1="69" x2="106" y2="69" class="fw"/>
<text x="112" y="73" class="lbl-l">framework fit</text>
<line x1="82" y1="87" x2="106" y2="87" class="nt"/>
<text x="112" y="91" class="lbl-l">Newtonian (no halo)</text>
<circle cx="94" cy="105" r="2.5" class="obs"/>
<text x="112" y="109" class="lbl">observed V±err</text>
</g>
<g class="legend">
<line x1="442" y1="69" x2="466" y2="69" class="rho"/>
<text x="472" y="73" class="lbl-r">ρ(r) raw</text>
<line x1="442" y1="87" x2="466" y2="87" class="sig"/>
<text x="472" y="91" class="lbl-s">Σ(r) cumulative</text>
<text x="442" y="113" class="lbl-r">ρ peak: 1596 M☉/pc²</text>
</g>
<rect x="705" y="55" width="170" height="170" class="preview-bg"/>
<defs><radialGradient id="g_NGC6946" cx="0.5" cy="0.5" r="0.5">
  <stop offset="0.0000" stop-color="rgb(255,255,255)"/>
  <stop offset="0.0313" stop-color="rgb(141,141,141)"/>
  <stop offset="0.0625" stop-color="rgb(136,136,136)"/>
  <stop offset="0.0938" stop-color="rgb(132,132,132)"/>
  <stop offset="0.1250" stop-color="rgb(128,128,128)"/>
  <stop offset="0.1563" stop-color="rgb(124,124,124)"/>
  <stop offset="0.1875" stop-color="rgb(120,120,120)"/>
  <stop offset="0.2188" stop-color="rgb(116,116,116)"/>
  <stop offset="0.2500" stop-color="rgb(112,112,112)"/>
  <stop offset="0.2813" stop-color="rgb(108,108,108)"/>
  <stop offset="0.3125" stop-color="rgb(104,104,104)"/>
  <stop offset="0.3438" stop-color="rgb(101,101,101)"/>
  <stop offset="0.3750" stop-color="rgb(98,98,98)"/>
  <stop offset="0.4063" stop-color="rgb(96,96,96)"/>
  <stop offset="0.4375" stop-color="rgb(94,94,94)"/>
  <stop offset="0.4688" stop-color="rgb(93,93,93)"/>
  <stop offset="0.5000" stop-color="rgb(91,91,91)"/>
  <stop offset="0.5313" stop-color="rgb(89,89,89)"/>
  <stop offset="0.5625" stop-color="rgb(87,87,87)"/>
  <stop offset="0.5938" stop-color="rgb(85,85,85)"/>
  <stop offset="0.6250" stop-color="rgb(83,83,83)"/>
  <stop offset="0.6563" stop-color="rgb(82,82,82)"/>
  <stop offset="0.6875" stop-color="rgb(80,80,80)"/>
  <stop offset="0.7188" stop-color="rgb(78,78,78)"/>
  <stop offset="0.7500" stop-color="rgb(76,76,76)"/>
  <stop offset="0.7813" stop-color="rgb(74,74,74)"/>
  <stop offset="0.8125" stop-color="rgb(72,72,72)"/>
  <stop offset="0.8438" stop-color="rgb(71,71,71)"/>
  <stop offset="0.8750" stop-color="rgb(69,69,69)"/>
  <stop offset="0.9063" stop-color="rgb(67,67,67)"/>
  <stop offset="0.9375" stop-color="rgb(65,65,65)"/>
  <stop offset="0.9688" stop-color="rgb(63,63,63)"/>
  <stop offset="1.0000" stop-color="rgb(0,0,0)"/>
</radialGradient></defs>
<circle cx="790" cy="140" r="81" fill="url(#g_NGC6946)"/>
<text x="790" y="49" text-anchor="middle" class="preview-lbl">face-on luminance from ρ(r)</text>
<text x="790" y="239" text-anchor="middle" class="preview-lbl">edge at r = 21.9 kpc</text>
</svg>