<svg xmlns="http://www.w3.org/2000/svg" viewBox="0 0 890 420" width="890" height="420" font-family="sans-serif" font-size="12">
<style>
  .ax { stroke: #333; stroke-width: 1; fill: none; }
  .grid { stroke: #ddd; stroke-width: 0.5; fill: none; }
  .lbl { fill: #333; }
  .lbl-l { fill: #0066cc; }
  .lbl-r { fill: #b03030; }
  .obs { fill: #222; }
  .err { stroke: #555; stroke-width: 0.8; fill: none; }
  .fw { stroke: #0066cc; stroke-width: 2.2; fill: none; }
  .nt { stroke: #cc6600; stroke-width: 1.6; fill: none; stroke-dasharray: 5,3; }
  .lbl-s { fill: #cc7000; }
  .rho { stroke: #b03030; stroke-width: 2.0; fill: none; }
  .sig { stroke: #cc7000; stroke-width: 1.8; fill: none; }
  .title { fill: #111; font-size: 16px; font-weight: 600; }
  .subtitle { fill: #555; font-size: 11px; }
  .preview-bg { fill: #000; }
  .preview-lbl { fill: #888; font-size: 10px; }
  .legend { font-size: 11px; }
</style>
<text x="343.5" y="22" text-anchor="middle" class="title">NGC6789</text>
<text x="343.5" y="38" text-anchor="middle" class="subtitle">rMax=0.7 kpc, N=4, RMS=0.8 km/s (2.0%), amp=104</text>
<line x1="70" y1="365.0" x2="617" y2="365.0" class="grid"/>
<text x="64" y="369.0" text-anchor="end" class="lbl-l">0</text>
<line x1="70" y1="303.0" x2="617" y2="303.0" class="grid"/>
<text x="64" y="307.0" text-anchor="end" class="lbl-l">15</text>
<line x1="70" y1="241.0" x2="617" y2="241.0" class="grid"/>
<text x="64" y="245.0" text-anchor="end" class="lbl-l">31</text>
<line x1="70" y1="179.0" x2="617" y2="179.0" class="grid"/>
<text x="64" y="183.0" text-anchor="end" class="lbl-l">46</text>
<line x1="70" y1="117.0" x2="617" y2="117.0" class="grid"/>
<text x="64" y="121.0" text-anchor="end" class="lbl-l">61</text>
<line x1="70" y1="55.0" x2="617" y2="55.0" class="grid"/>
<text x="64" y="59.0" text-anchor="end" class="lbl-l">77</text>
<text x="623" y="369.0" text-anchor="start" class="lbl-r">0.0</text>
<text x="623" y="327.7" text-anchor="start" class="lbl-r">0.2</text>
<text x="623" y="286.3" text-anchor="start" class="lbl-r">0.4</text>
<text x="623" y="245.0" text-anchor="start" class="lbl-r">0.6</text>
<text x="623" y="203.7" text-anchor="start" class="lbl-r">0.8</text>
<text x="623" y="162.3" text-anchor="start" class="lbl-r">1.0</text>
<line x1="70.0" y1="55" x2="70.0" y2="365" class="grid"/>
<text x="70.0" y="381" text-anchor="middle" class="lbl">0.0</text>
<line x1="161.2" y1="55" x2="161.2" y2="365" class="grid"/>
<text x="161.2" y="381" text-anchor="middle" class="lbl">0.1</text>
<line x1="252.3" y1="55" x2="252.3" y2="365" class="grid"/>
<text x="252.3" y="381" text-anchor="middle" class="lbl">0.3</text>
<line x1="343.5" y1="55" x2="343.5" y2="365" class="grid"/>
<text x="343.5" y="381" text-anchor="middle" class="lbl">0.4</text>
<line x1="434.7" y1="55" x2="434.7" y2="365" class="grid"/>
<text x="434.7" y="381" text-anchor="middle" class="lbl">0.5</text>
<line x1="525.8" y1="55" x2="525.8" y2="365" class="grid"/>
<text x="525.8" y="381" text-anchor="middle" class="lbl">0.7</text>
<line x1="617.0" y1="55" x2="617.0" y2="365" class="grid"/>
<text x="617.0" y="381" text-anchor="middle" class="lbl">0.8</text>
<text x="343.5" y="408" text-anchor="middle" class="lbl">radius (kpc)</text>
<text x="16" y="210" text-anchor="middle" class="lbl-l" transform="rotate(-90, 16, 210)">velocity (km/s)</text>
<text x="654" y="210" text-anchor="middle" class="lbl-r" transform="rotate(-90, 654, 210)">mass profile (normalized to peak)</text>
<rect x="70" y="55" width="547" height="310" class="ax"/>
<path d="M 70.0,158.3 L 72.5,163.3 L 75.0,168.3 L 77.5,173.2 L 80.0,178.2 L 82.5,183.2 L 85.0,188.1 L 87.5,193.1 L 90.0,198.1 L 92.5,203.0 L 95.0,208.0 L 97.5,213.0 L 100.0,217.9 L 102.5,222.9 L 105.0,227.9 L 107.5,232.8 L 110.0,234.9 L 112.5,234.9 L 115.0,234.9 L 117.5,234.9 L 120.0,234.9 L 122.5,234.9 L 124.9,235.0 L 127.4,235.0 L 129.9,235.0 L 132.4,235.0 L 134.9,235.0 L 137.4,235.1 L 139.9,235.1 L 142.4,235.1 L 144.9,235.1 L 147.4,235.1 L 149.9,235.1 L 152.4,235.1 L 154.9,235.1 L 157.4,235.1 L 159.9,235.1 L 162.4,235.1 L 164.9,235.1 L 167.4,235.1 L 169.9,235.1 L 172.4,235.1 L 174.9,235.1 L 177.4,235.1 L 179.9,235.1 L 182.4,235.1 L 184.9,235.1 L 187.4,235.1 L 189.9,235.1 L 192.4,235.1 L 194.9,235.1 L 197.4,235.1 L 199.9,235.1 L 202.4,235.1 L 204.9,235.1 L 207.4,235.1 L 209.9,235.1 L 212.4,235.1 L 214.9,235.1 L 217.4,235.1 L 219.9,235.1 L 222.4,235.1 L 224.9,235.1 L 227.4,235.1 L 229.9,235.1 L 232.4,235.1 L 234.8,235.1 L 237.3,235.1 L 239.8,235.1 L 242.3,235.1 L 244.8,235.1 L 247.3,235.1 L 249.8,235.1 L 252.3,235.1 L 254.8,235.1 L 257.3,235.1 L 259.8,235.1 L 262.3,235.1 L 264.8,235.1 L 267.3,235.1 L 269.8,235.4 L 272.3,235.7 L 274.8,236.1 L 277.3,236.4 L 279.8,236.7 L 282.3,237.1 L 284.8,237.4 L 287.3,237.8 L 289.8,238.1 L 292.3,238.4 L 294.8,238.8 L 297.3,239.1 L 299.8,239.4 L 302.3,239.8 L 304.8,240.1 L 307.3,240.4 L 309.8,240.8 L 312.3,241.1 L 314.8,241.4 L 317.3,241.8 L 319.8,242.1 L 322.3,242.4 L 324.8,242.8 L 327.3,243.1 L 329.8,243.4 L 332.3,243.8 L 334.8,244.1 L 337.3,244.4 L 339.8,244.8 L 342.3,245.1 L 344.7,245.5 L 347.2,245.8 L 349.7,246.1 L 352.2,246.5 L 354.7,246.8 L 357.2,247.1 L 359.7,247.5 L 362.2,247.8 L 364.7,248.1 L 367.2,248.5 L 369.7,248.8 L 372.2,249.1 L 374.7,249.5 L 377.2,249.8 L 379.7,250.1 L 382.2,250.5 L 384.7,250.8 L 387.2,251.1 L 389.7,251.5 L 392.2,251.8 L 394.7,252.2 L 397.2,252.5 L 399.7,252.8 L 402.2,253.2 L 404.7,253.5 L 407.2,253.8 L 409.7,254.2 L 412.2,254.5 L 414.7,254.8 L 417.2,255.2 L 419.7,255.5 L 422.2,255.8 L 424.7,256.2 L 427.2,256.5 L 429.7,256.8 L 432.2,257.2 L 434.7,257.5 L 437.2,257.8 L 439.7,258.2 L 442.2,258.5 L 444.7,258.8 L 447.2,259.2 L 449.7,259.5 L 452.2,259.9 L 454.6,260.2 L 457.1,260.5 L 459.6,260.9 L 462.1,261.2 L 464.6,261.5 L 467.1,261.9 L 469.6,262.2 L 472.1,262.5 L 474.6,262.9 L 477.1,263.2 L 479.6,263.5 L 482.1,263.9 L 484.6,264.2 L 487.1,264.5 L 489.6,264.9 L 492.1,265.2 L 494.6,265.5 L 497.1,265.9 L 499.6,266.2 L 502.1,266.5 L 504.6,266.9 L 507.1,267.2 L 509.6,267.6 L 512.1,267.9 L 514.6,268.2 L 517.1,268.6 L 519.6,268.9 L 522.1,269.2 L 524.6,269.6 L 527.1,271.6 L 529.6,275.2 L 532.1,278.9 L 534.6,282.5 L 537.1,286.2 L 539.6,289.8 L 542.1,293.5 L 544.6,297.1 L 547.1,300.8 L 549.6,304.4 L 552.1,308.1 L 554.6,311.8 L 557.1,315.4 L 559.6,319.1 L 562.1,322.7 L 564.5,326.4 L 567.0,330.0 L 569.5,333.7 L 572.0,337.3 L 574.5,341.0 L 577.0,344.6 L 579.5,348.3 L 582.0,351.9 L 584.5,355.6 L 587.0,359.3 L 589.5,362.9 L 592.0,365.0 L 594.5,365.0 L 597.0,365.0 L 599.5,365.0 L 602.0,365.0 L 604.5,365.0 L 607.0,365.0 L 609.5,365.0 L 612.0,365.0 L 614.5,365.0 L 617.0,365.0" class="rho"/>
<path d="M 70.0,158.3 L 72.5,158.5 L 75.0,158.7 L 77.5,159.0 L 80.0,159.4 L 82.5,159.9 L 85.0,160.5 L 87.5,161.2 L 90.0,162.0 L 92.5,162.8 L 95.0,163.6 L 97.5,164.4 L 100.0,165.2 L 102.5,166.1 L 105.0,166.9 L 107.5,167.7 L 110.0,168.5 L 112.5,169.2 L 115.0,169.9 L 117.5,170.5 L 120.0,171.2 L 122.5,171.8 L 124.9,172.3 L 127.4,172.9 L 129.9,173.4 L 132.4,173.9 L 134.9,174.3 L 137.4,174.8 L 139.9,175.2 L 142.4,175.6 L 144.9,176.0 L 147.4,176.4 L 149.9,176.8 L 152.4,177.1 L 154.9,177.5 L 157.4,177.8 L 159.9,178.2 L 162.4,178.5 L 164.9,178.9 L 167.4,179.2 L 169.9,179.5 L 172.4,179.9 L 174.9,180.2 L 177.4,180.5 L 179.9,180.9 L 182.4,181.2 L 184.9,181.5 L 187.4,181.9 L 189.9,182.2 L 192.4,182.5 L 194.9,182.9 L 197.4,183.2 L 199.9,183.6 L 202.4,183.9 L 204.9,184.3 L 207.4,184.6 L 209.9,185.0 L 212.4,185.4 L 214.9,185.8 L 217.4,186.2 L 219.9,186.5 L 222.4,186.9 L 224.9,187.4 L 227.4,187.8 L 229.9,188.2 L 232.4,188.6 L 234.8,189.1 L 237.3,189.5 L 239.8,190.0 L 242.3,190.5 L 244.8,190.9 L 247.3,191.4 L 249.8,191.9 L 252.3,192.4 L 254.8,193.0 L 257.3,193.5 L 259.8,194.1 L 262.3,194.6 L 264.8,195.2 L 267.3,195.8 L 269.8,196.4 L 272.3,197.1 L 274.8,197.7 L 277.3,198.4 L 279.8,199.0 L 282.3,199.7 L 284.8,200.4 L 287.3,201.1 L 289.8,201.8 L 292.3,202.5 L 294.8,203.2 L 297.3,204.0 L 299.8,204.7 L 302.3,205.5 L 304.8,206.3 L 307.3,207.0 L 309.8,207.8 L 312.3,208.6 L 314.8,209.4 L 317.3,210.2 L 319.8,211.0 L 322.3,211.8 L 324.8,212.6 L 327.3,213.4 L 329.8,214.3 L 332.3,215.1 L 334.8,215.9 L 337.3,216.8 L 339.8,217.6 L 342.3,218.5 L 344.7,219.3 L 347.2,220.2 L 349.7,221.0 L 352.2,221.9 L 354.7,222.8 L 357.2,223.6 L 359.7,224.5 L 362.2,225.4 L 364.7,226.3 L 367.2,227.2 L 369.7,228.0 L 372.2,228.9 L 374.7,229.8 L 377.2,230.7 L 379.7,231.6 L 382.2,232.5 L 384.7,233.4 L 387.2,234.3 L 389.7,235.2 L 392.2,236.1 L 394.7,237.0 L 397.2,238.0 L 399.7,238.9 L 402.2,239.8 L 404.7,240.7 L 407.2,241.6 L 409.7,242.6 L 412.2,243.5 L 414.7,244.4 L 417.2,245.4 L 419.7,246.3 L 422.2,247.2 L 424.7,248.2 L 427.2,249.1 L 429.7,250.1 L 432.2,251.0 L 434.7,252.0 L 437.2,253.0 L 439.7,253.9 L 442.2,254.9 L 444.7,255.9 L 447.2,256.8 L 449.7,257.8 L 452.2,258.8 L 454.6,259.8 L 457.1,260.8 L 459.6,261.8 L 462.1,262.8 L 464.6,263.8 L 467.1,264.9 L 469.6,265.9 L 472.1,266.9 L 474.6,268.0 L 477.1,269.1 L 479.6,270.1 L 482.1,271.2 L 484.6,272.3 L 487.1,273.4 L 489.6,274.5 L 492.1,275.6 L 494.6,276.8 L 497.1,277.9 L 499.6,279.1 L 502.1,280.3 L 504.6,281.5 L 507.1,282.8 L 509.6,284.0 L 512.1,285.3 L 514.6,286.6 L 517.1,287.9 L 519.6,289.2 L 522.1,290.6 L 524.6,292.0 L 527.1,293.4 L 529.6,294.8 L 532.1,296.2 L 534.6,297.7 L 537.1,299.1 L 539.6,300.5 L 542.1,302.0 L 544.6,303.4 L 547.1,304.8 L 549.6,306.2 L 552.1,307.6 L 554.6,308.9 L 557.1,310.2 L 559.6,311.5 L 562.1,312.8 L 564.5,314.0 L 567.0,315.1 L 569.5,316.3 L 572.0,317.4 L 574.5,318.4 L 577.0,319.5 L 579.5,320.4 L 582.0,321.4 L 584.5,322.3 L 587.0,323.2 L 589.5,324.0 L 592.0,324.8 L 594.5,325.6 L 597.0,326.3 L 599.5,327.1 L 602.0,327.7 L 604.5,328.4 L 607.0,329.1 L 609.5,329.7 L 612.0,330.3 L 614.5,330.9 L 617.0,331.4" class="sig"/>
<path d="M 75.5,337.6 L 80.9,327.0 L 86.4,319.4 L 91.9,313.3 L 97.3,308.4 L 102.8,304.4 L 108.3,301.0 L 113.8,297.9 L 119.2,294.8 L 124.7,291.8 L 130.2,288.8 L 135.6,285.9 L 141.1,283.1 L 146.6,280.3 L 152.1,277.6 L 157.5,275.0 L 163.0,272.4 L 168.5,269.9 L 173.9,267.4 L 179.4,265.0 L 184.9,262.7 L 190.3,260.4 L 195.8,258.1 L 201.3,255.9 L 206.8,253.7 L 212.2,251.6 L 217.7,249.5 L 223.2,247.4 L 228.6,245.4 L 234.1,243.4 L 239.6,241.4 L 245.0,239.5 L 250.5,237.6 L 256.0,235.7 L 261.5,233.8 L 266.9,232.0 L 272.4,230.2 L 277.9,228.4 L 283.3,226.7 L 288.8,225.0 L 294.3,223.4 L 299.7,221.8 L 305.2,220.2 L 310.7,218.7 L 316.1,217.2 L 321.6,215.7 L 327.1,214.3 L 332.6,212.8 L 338.0,211.4 L 343.5,210.1 L 349.0,208.7 L 354.4,207.4 L 359.9,206.1 L 365.4,204.9 L 370.9,203.6 L 376.3,202.4 L 381.8,201.2 L 387.3,200.0 L 392.7,198.9 L 398.2,197.7 L 403.7,196.6 L 409.1,195.5 L 414.6,194.4 L 420.1,193.4 L 425.6,192.3 L 431.0,191.3 L 436.5,190.3 L 442.0,189.3 L 447.4,188.3 L 452.9,187.4 L 458.4,186.4 L 463.8,185.5 L 469.3,184.6 L 474.8,183.7 L 480.3,182.8 L 485.7,181.9 L 491.2,181.1 L 496.7,180.2 L 502.1,179.4 L 507.6,178.6 L 513.1,177.8 L 518.5,177.0 L 524.0,176.3 L 529.5,175.5 L 535.0,175.0 L 540.4,174.5 L 545.9,174.3 L 551.4,174.1 L 556.8,174.1 L 562.3,174.3 L 567.8,174.6 L 573.2,175.1 L 578.7,175.6 L 584.2,176.4 L 589.6,177.3 L 595.1,178.2 L 600.6,179.2 L 606.1,180.2 L 611.5,181.1 L 617.0,182.0" class="nt"/>
<path d="M 74.6,353.4 L 79.1,344.8 L 83.7,336.0 L 88.2,328.0 L 92.8,321.6 L 97.3,316.4 L 101.9,312.7 L 106.5,310.3 L 111.0,309.0 L 115.6,308.5 L 120.1,308.5 L 124.7,308.8 L 129.3,309.1 L 133.8,309.4 L 138.4,309.6 L 142.9,309.6 L 147.5,309.4 L 152.1,309.0 L 156.6,308.5 L 161.2,307.8 L 165.7,307.0 L 170.3,305.9 L 174.8,304.8 L 179.4,303.5 L 184.0,302.0 L 188.5,300.4 L 193.1,298.7 L 197.6,296.9 L 202.2,294.9 L 206.8,292.8 L 211.3,290.6 L 215.9,288.3 L 220.4,285.9 L 225.0,283.3 L 229.5,280.6 L 234.1,277.8 L 238.7,274.8 L 243.2,271.7 L 247.8,268.5 L 252.3,265.1 L 256.9,261.7 L 261.5,258.1 L 266.0,254.5 L 270.6,250.9 L 275.1,247.3 L 279.7,243.9 L 284.2,240.7 L 288.8,237.6 L 293.4,234.6 L 297.9,231.8 L 302.5,229.1 L 307.0,226.5 L 311.6,224.0 L 316.1,221.6 L 320.7,219.3 L 325.3,217.1 L 329.8,215.0 L 334.4,212.9 L 338.9,210.9 L 343.5,208.9 L 348.1,207.0 L 352.6,205.1 L 357.2,203.3 L 361.7,201.5 L 366.3,199.7 L 370.9,197.9 L 375.4,196.2 L 380.0,194.5 L 384.5,192.8 L 389.1,191.1 L 393.6,189.5 L 398.2,187.8 L 402.8,186.1 L 407.3,184.4 L 411.9,182.7 L 416.4,181.0 L 421.0,179.3 L 425.6,177.5 L 430.1,175.7 L 434.7,173.8 L 439.2,171.9 L 443.8,170.0 L 448.3,167.9 L 452.9,165.8 L 457.5,163.6 L 462.0,161.2 L 466.6,158.7 L 471.1,156.1 L 475.7,153.2 L 480.3,150.2 L 484.8,146.9 L 489.4,143.4 L 493.9,139.6 L 498.5,135.5 L 503.0,131.1 L 507.6,126.3 L 512.2,121.4 L 516.7,116.3 L 521.3,111.5 L 525.8,107.0 L 530.4,103.5 L 535.0,101.0 L 539.5,99.9 L 544.1,100.1 L 548.6,101.9 L 553.2,104.8 L 557.7,108.9 L 562.3,113.9 L 566.9,119.8 L 571.4,126.2 L 576.0,133.0 L 580.5,140.0 L 585.1,147.0 L 589.6,153.8 L 594.2,160.4 L 598.8,166.6 L 603.3,172.4 L 607.9,177.8 L 612.4,182.9 L 617.0,187.6" class="fw"/>
<line x1="139.48" y1="293.37" x2="139.48" y2="324.38" class="err"/>
<line x1="136.48" y1="293.37" x2="142.48" y2="293.37" class="err"/>
<line x1="136.48" y1="324.38" x2="142.48" y2="324.38" class="err"/>
<circle cx="139.48" cy="308.88" r="2.5" class="obs"/>
<line x1="278.45" y1="228.45" x2="278.45" y2="260.11" class="err"/>
<line x1="275.45" y1="228.45" x2="281.45" y2="228.45" class="err"/>
<line x1="275.45" y1="260.11" x2="281.45" y2="260.11" class="err"/>
<circle cx="278.45" cy="244.28" r="2.5" class="obs"/>
<line x1="424.36" y1="159.89" x2="424.36" y2="193.00" class="err"/>
<line x1="421.36" y1="159.89" x2="427.36" y2="159.89" class="err"/>
<line x1="421.36" y1="193.00" x2="427.36" y2="193.00" class="err"/>
<circle cx="424.36" cy="176.45" r="2.5" class="obs"/>
<line x1="563.33" y1="83.18" x2="563.33" y2="159.09" class="err"/>
<line x1="560.33" y1="83.18" x2="566.33" y2="83.18" class="err"/>
<line x1="560.33" y1="159.09" x2="566.33" y2="159.09" class="err"/>
<circle cx="563.33" cy="121.13" r="2.5" class="obs"/>
<g class="legend">
<line x1="82" y1="69" x2="106" y2="69" class="fw"/>
<text x="112" y="73" class="lbl-l">framework fit</text>
<line x1="82" y1="87" x2="106" y2="87" class="nt"/>
<text x="112" y="91" class="lbl-l">Newtonian (no halo)</text>
<circle cx="94" cy="105" r="2.5" class="obs"/>
<text x="112" y="109" class="lbl">observed V±err</text>
</g>
<g class="legend">
<line x1="442" y1="69" x2="466" y2="69" class="rho"/>
<text x="472" y="73" class="lbl-r">ρ(r) raw</text>
<line x1="442" y1="87" x2="466" y2="87" class="sig"/>
<text x="472" y="91" class="lbl-s">Σ(r) cumulative</text>
<text x="442" y="113" class="lbl-r">ρ peak: 447 M☉/pc²</text>
</g>
<rect x="705" y="55" width="170" height="170" class="preview-bg"/>
<defs><radialGradient id="g_NGC6789" cx="0.5" cy="0.5" r="0.5">
  <stop offset="0.0000" stop-color="rgb(255,63.75,63.75)"/>
  <stop offset="0.0313" stop-color="rgb(255,63.75,63.75)"/>
  <stop offset="0.0625" stop-color="rgb(255,63.75,63.75)"/>
  <stop offset="0.0938" stop-color="rgb(255,63.75,63.75)"/>
  <stop offset="0.1250" stop-color="rgb(255,63.75,63.75)"/>
  <stop offset="0.1563" stop-color="rgb(255,63.75,63.75)"/>
  <stop offset="0.1875" stop-color="rgb(255,63.75,63.75)"/>
  <stop offset="0.2188" stop-color="rgb(255,63.75,63.75)"/>
  <stop offset="0.2500" stop-color="rgb(255,63.75,63.75)"/>
  <stop offset="0.2813" stop-color="rgb(255,63.75,63.75)"/>
  <stop offset="0.3125" stop-color="rgb(255,63.75,63.75)"/>
  <stop offset="0.3438" stop-color="rgb(255,63.75,63.75)"/>
  <stop offset="0.3750" stop-color="rgb(255,63.75,63.75)"/>
  <stop offset="0.4063" stop-color="rgb(255,63.75,63.75)"/>
  <stop offset="0.4375" stop-color="rgb(255,63.75,63.75)"/>
  <stop offset="0.4688" stop-color="rgb(255,63.75,63.75)"/>
  <stop offset="0.5000" stop-color="rgb(255,63.75,63.75)"/>
  <stop offset="0.5313" stop-color="rgb(255,63.75,63.75)"/>
  <stop offset="0.5625" stop-color="rgb(255,63.75,63.75)"/>
  <stop offset="0.5938" stop-color="rgb(255,63.75,63.75)"/>
  <stop offset="0.6250" stop-color="rgb(255,63.75,63.75)"/>
  <stop offset="0.6563" stop-color="rgb(255,63.75,63.75)"/>
  <stop offset="0.6875" stop-color="rgb(255,63.75,63.75)"/>
  <stop offset="0.7188" stop-color="rgb(255,63.75,63.75)"/>
  <stop offset="0.7500" stop-color="rgb(255,63.75,63.75)"/>
  <stop offset="0.7813" stop-color="rgb(255,63.75,63.75)"/>
  <stop offset="0.8125" stop-color="rgb(255,63.75,63.75)"/>
  <stop offset="0.8438" stop-color="rgb(255,63.75,63.75)"/>
  <stop offset="0.8750" stop-color="rgb(255,63.75,63.75)"/>
  <stop offset="0.9063" stop-color="rgb(255,63.75,63.75)"/>
  <stop offset="0.9375" stop-color="rgb(191,47.75,47.75)"/>
  <stop offset="0.9688" stop-color="rgb(121,30.25,30.25)"/>
  <stop offset="1.0000" stop-color="rgb(0,0,0)"/>
</radialGradient></defs>
<circle cx="790" cy="140" r="81" fill="url(#g_NGC6789)"/>
<text x="790" y="49" text-anchor="middle" class="preview-lbl">face-on luminance from ρ(r)</text>
<text x="790" y="239" text-anchor="middle" class="preview-lbl">edge at r = 0.7 kpc</text>
</svg>