<svg xmlns="http://www.w3.org/2000/svg" viewBox="0 0 720 420" width="720" height="420" font-family="sans-serif" font-size="12">
<style>
  .ax { stroke: #333; stroke-width: 1; fill: none; }
  .grid { stroke: #ddd; stroke-width: 0.5; fill: none; }
  .lbl { fill: #333; }
  .lbl-l { fill: #0066cc; }
  .lbl-r { fill: #b03030; }
  .obs { fill: #222; }
  .err { stroke: #555; stroke-width: 0.8; fill: none; }
  .fw { stroke: #0066cc; stroke-width: 2.2; fill: none; }
  .nt { stroke: #cc6600; stroke-width: 1.6; fill: none; stroke-dasharray: 5,3; }
  .rho { stroke: #b03030; stroke-width: 2.0; fill: none; }
  .sig { stroke: #b03030; stroke-width: 1.6; fill: none; stroke-dasharray: 4,2; opacity: 0.85; }
  .title { fill: #111; font-size: 16px; font-weight: 600; }
  .subtitle { fill: #555; font-size: 11px; }
  .legend { font-size: 11px; }
</style>
<text x="360.0" y="22" text-anchor="middle" class="title">NGC6015</text>
<text x="360.0" y="38" text-anchor="middle" class="subtitle">rMax=29.2 kpc, N=44, RMS=4.4 km/s (3.1%), amp=2383</text>
<line x1="70" y1="365.0" x2="635" y2="365.0" class="grid"/>
<text x="64" y="369.0" text-anchor="end" class="lbl-l">0</text>
<line x1="70" y1="303.0" x2="635" y2="303.0" class="grid"/>
<text x="64" y="307.0" text-anchor="end" class="lbl-l">47</text>
<line x1="70" y1="241.0" x2="635" y2="241.0" class="grid"/>
<text x="64" y="245.0" text-anchor="end" class="lbl-l">95</text>
<line x1="70" y1="178.99999999999997" x2="635" y2="178.99999999999997" class="grid"/>
<text x="64" y="182.99999999999997" text-anchor="end" class="lbl-l">142</text>
<line x1="70" y1="116.99999999999999" x2="635" y2="116.99999999999999" class="grid"/>
<text x="64" y="120.99999999999999" text-anchor="end" class="lbl-l">190</text>
<line x1="70" y1="55.0" x2="635" y2="55.0" class="grid"/>
<text x="64" y="59.0" text-anchor="end" class="lbl-l">237</text>
<text x="641" y="369.0" text-anchor="start" class="lbl-r">0.0</text>
<text x="641" y="327.6666666666667" text-anchor="start" class="lbl-r">0.2</text>
<text x="641" y="286.33333333333337" text-anchor="start" class="lbl-r">0.4</text>
<text x="641" y="245.00000000000003" text-anchor="start" class="lbl-r">0.6</text>
<text x="641" y="203.66666666666666" text-anchor="start" class="lbl-r">0.8</text>
<text x="641" y="162.33333333333334" text-anchor="start" class="lbl-r">1.0</text>
<line x1="70.0" y1="55" x2="70.0" y2="365" class="grid"/>
<text x="70.0" y="381" text-anchor="middle" class="lbl">0.0</text>
<line x1="164.16666666666666" y1="55" x2="164.16666666666666" y2="365" class="grid"/>
<text x="164.16666666666666" y="381" text-anchor="middle" class="lbl">5.9</text>
<line x1="258.3333333333333" y1="55" x2="258.3333333333333" y2="365" class="grid"/>
<text x="258.3333333333333" y="381" text-anchor="middle" class="lbl">11.7</text>
<line x1="352.5" y1="55" x2="352.5" y2="365" class="grid"/>
<text x="352.5" y="381" text-anchor="middle" class="lbl">17.6</text>
<line x1="446.66666666666663" y1="55" x2="446.66666666666663" y2="365" class="grid"/>
<text x="446.66666666666663" y="381" text-anchor="middle" class="lbl">23.4</text>
<line x1="540.8333333333334" y1="55" x2="540.8333333333334" y2="365" class="grid"/>
<text x="540.8333333333334" y="381" text-anchor="middle" class="lbl">29.3</text>
<line x1="635.0" y1="55" x2="635.0" y2="365" class="grid"/>
<text x="635.0" y="381" text-anchor="middle" class="lbl">35.2</text>
<text x="352.5" y="408" text-anchor="middle" class="lbl">radius (kpc)</text>
<text x="16" y="210.0" text-anchor="middle" class="lbl-l" transform="rotate(-90, 16, 210.0)">velocity (km/s)</text>
<text x="704" y="210.0" text-anchor="middle" class="lbl-r" transform="rotate(-90, 704, 210.0)">mass profile (normalized to peak)</text>
<rect x="70" y="55" width="565" height="310" class="ax"/>
<path d="M 70.0,158.3 L 72.6,163.0 L 75.2,167.8 L 77.7,172.5 L 80.3,177.2 L 82.9,181.9 L 85.5,186.6 L 88.1,191.3 L 90.6,196.0 L 93.2,200.8 L 95.8,203.1 L 98.4,205.1 L 101.0,207.2 L 103.5,209.2 L 106.1,211.3 L 108.7,213.3 L 111.3,215.4 L 113.9,217.4 L 116.4,219.5 L 119.0,221.5 L 121.6,223.6 L 124.2,225.6 L 126.8,227.7 L 129.3,229.7 L 131.9,231.8 L 134.5,233.8 L 137.1,235.9 L 139.7,237.0 L 142.2,237.9 L 144.8,238.7 L 147.4,239.6 L 150.0,240.4 L 152.6,241.3 L 155.1,242.1 L 157.7,243.0 L 160.3,243.9 L 162.9,244.7 L 165.5,245.6 L 168.0,246.4 L 170.6,247.3 L 173.2,248.1 L 175.8,249.0 L 178.4,249.9 L 180.9,250.7 L 183.5,251.6 L 186.1,252.2 L 188.7,252.7 L 191.3,253.2 L 193.8,253.7 L 196.4,254.2 L 199.0,254.7 L 201.6,255.2 L 204.2,255.7 L 206.7,256.2 L 209.3,256.7 L 211.9,257.1 L 214.5,257.6 L 217.1,258.1 L 219.6,258.6 L 222.2,259.1 L 224.8,259.6 L 227.4,260.1 L 230.0,260.6 L 232.5,261.1 L 235.1,261.6 L 237.7,262.1 L 240.3,262.6 L 242.9,263.1 L 245.4,263.6 L 248.0,264.1 L 250.6,264.5 L 253.2,265.0 L 255.8,265.5 L 258.3,266.0 L 260.9,266.5 L 263.5,267.0 L 266.1,267.5 L 268.7,268.0 L 271.2,268.5 L 273.8,269.0 L 276.4,269.5 L 279.0,270.0 L 281.6,270.5 L 284.1,271.0 L 286.7,271.5 L 289.3,271.9 L 291.9,272.4 L 294.5,272.9 L 297.0,273.4 L 299.6,273.9 L 302.2,274.4 L 304.8,274.9 L 307.4,275.4 L 309.9,275.9 L 312.5,276.4 L 315.1,276.9 L 317.7,277.4 L 320.3,277.9 L 322.8,278.4 L 325.4,278.9 L 328.0,279.3 L 330.6,279.8 L 333.2,280.3 L 335.7,280.8 L 338.3,281.3 L 340.9,281.8 L 343.5,282.3 L 346.1,282.8 L 348.6,283.3 L 351.2,283.8 L 353.8,284.3 L 356.4,284.8 L 358.9,285.3 L 361.5,285.8 L 364.1,286.3 L 366.7,286.7 L 369.3,287.2 L 371.8,287.7 L 374.4,288.2 L 377.0,288.7 L 379.6,289.2 L 382.2,289.7 L 384.7,290.2 L 387.3,290.7 L 389.9,291.2 L 392.5,291.7 L 395.1,292.2 L 397.6,292.7 L 400.2,293.2 L 402.8,293.7 L 405.4,294.1 L 408.0,294.6 L 410.5,295.1 L 413.1,295.6 L 415.7,296.1 L 418.3,296.6 L 420.9,297.1 L 423.4,297.6 L 426.0,298.1 L 428.6,298.6 L 431.2,299.1 L 433.8,299.6 L 436.3,300.1 L 438.9,300.6 L 441.5,301.1 L 444.1,301.6 L 446.7,302.0 L 449.2,302.5 L 451.8,303.0 L 454.4,303.5 L 457.0,304.0 L 459.6,304.5 L 462.1,305.0 L 464.7,305.5 L 467.3,306.0 L 469.9,306.5 L 472.5,307.0 L 475.0,307.5 L 477.6,308.0 L 480.2,308.5 L 482.8,309.0 L 485.4,309.4 L 487.9,309.9 L 490.5,310.4 L 493.1,310.9 L 495.7,311.4 L 498.3,311.9 L 500.8,312.4 L 503.4,312.9 L 506.0,313.4 L 508.6,313.9 L 511.2,314.5 L 513.7,315.8 L 516.3,317.2 L 518.9,318.5 L 521.5,319.9 L 524.1,321.2 L 526.6,322.6 L 529.2,323.9 L 531.8,325.3 L 534.4,326.6 L 537.0,327.9 L 539.5,329.3 L 542.1,330.6 L 544.7,332.0 L 547.3,333.3 L 549.9,334.7 L 552.4,336.0 L 555.0,337.3 L 557.6,338.7 L 560.2,340.0 L 562.8,341.4 L 565.3,342.7 L 567.9,344.1 L 570.5,345.4 L 573.1,346.8 L 575.7,348.1 L 578.2,349.4 L 580.8,350.8 L 583.4,352.1 L 586.0,353.5 L 588.6,354.8 L 591.1,356.2 L 593.7,357.5 L 596.3,358.9 L 598.9,360.2 L 601.5,361.5 L 604.0,362.9 L 606.6,364.2 L 609.2,365.0 L 611.8,365.0 L 614.4,365.0 L 616.9,365.0 L 619.5,365.0 L 622.1,365.0 L 624.7,365.0 L 627.3,365.0 L 629.8,365.0 L 632.4,365.0 L 635.0,365.0" class="rho"/>
<path d="M 70.0,158.3 L 72.6,159.0 L 75.2,160.2 L 77.7,161.9 L 80.3,164.0 L 82.9,166.4 L 85.5,169.1 L 88.1,172.1 L 90.6,175.1 L 93.2,178.2 L 95.8,181.3 L 98.4,184.4 L 101.0,187.5 L 103.5,190.5 L 106.1,193.6 L 108.7,196.6 L 111.3,199.6 L 113.9,202.5 L 116.4,205.5 L 119.0,208.4 L 121.6,211.2 L 124.2,214.0 L 126.8,216.8 L 129.3,219.5 L 131.9,222.1 L 134.5,224.6 L 137.1,227.0 L 139.7,229.3 L 142.2,231.5 L 144.8,233.6 L 147.4,235.7 L 150.0,237.6 L 152.6,239.5 L 155.1,241.4 L 157.7,243.2 L 160.3,244.9 L 162.9,246.6 L 165.5,248.3 L 168.0,249.9 L 170.6,251.5 L 173.2,253.0 L 175.8,254.5 L 178.4,256.0 L 180.9,257.4 L 183.5,258.8 L 186.1,260.1 L 188.7,261.4 L 191.3,262.7 L 193.8,263.9 L 196.4,265.1 L 199.0,266.3 L 201.6,267.5 L 204.2,268.6 L 206.7,269.7 L 209.3,270.8 L 211.9,271.9 L 214.5,273.0 L 217.1,274.1 L 219.6,275.1 L 222.2,276.1 L 224.8,277.2 L 227.4,278.2 L 230.0,279.2 L 232.5,280.2 L 235.1,281.2 L 237.7,282.1 L 240.3,283.1 L 242.9,284.1 L 245.4,285.0 L 248.0,286.0 L 250.6,286.9 L 253.2,287.8 L 255.8,288.7 L 258.3,289.6 L 260.9,290.6 L 263.5,291.5 L 266.1,292.4 L 268.7,293.2 L 271.2,294.1 L 273.8,295.0 L 276.4,295.9 L 279.0,296.7 L 281.6,297.6 L 284.1,298.4 L 286.7,299.3 L 289.3,300.1 L 291.9,300.9 L 294.5,301.7 L 297.0,302.6 L 299.6,303.4 L 302.2,304.2 L 304.8,305.0 L 307.4,305.8 L 309.9,306.5 L 312.5,307.3 L 315.1,308.1 L 317.7,308.9 L 320.3,309.6 L 322.8,310.4 L 325.4,311.1 L 328.0,311.9 L 330.6,312.6 L 333.2,313.3 L 335.7,314.0 L 338.3,314.8 L 340.9,315.5 L 343.5,316.2 L 346.1,316.9 L 348.6,317.5 L 351.2,318.2 L 353.8,318.9 L 356.4,319.6 L 358.9,320.2 L 361.5,320.9 L 364.1,321.6 L 366.7,322.2 L 369.3,322.8 L 371.8,323.5 L 374.4,324.1 L 377.0,324.7 L 379.6,325.3 L 382.2,325.9 L 384.7,326.5 L 387.3,327.1 L 389.9,327.7 L 392.5,328.3 L 395.1,328.9 L 397.6,329.5 L 400.2,330.0 L 402.8,330.6 L 405.4,331.1 L 408.0,331.7 L 410.5,332.2 L 413.1,332.8 L 415.7,333.3 L 418.3,333.8 L 420.9,334.3 L 423.4,334.8 L 426.0,335.3 L 428.6,335.8 L 431.2,336.3 L 433.8,336.8 L 436.3,337.3 L 438.9,337.8 L 441.5,338.3 L 444.1,338.7 L 446.7,339.2 L 449.2,339.6 L 451.8,340.1 L 454.4,340.5 L 457.0,341.0 L 459.6,341.4 L 462.1,341.8 L 464.7,342.3 L 467.3,342.7 L 469.9,343.1 L 472.5,343.5 L 475.0,343.9 L 477.6,344.3 L 480.2,344.7 L 482.8,345.1 L 485.4,345.5 L 487.9,345.9 L 490.5,346.3 L 493.1,346.7 L 495.7,347.0 L 498.3,347.4 L 500.8,347.8 L 503.4,348.2 L 506.0,348.6 L 508.6,349.0 L 511.2,349.3 L 513.7,349.7 L 516.3,350.1 L 518.9,350.5 L 521.5,350.9 L 524.1,351.3 L 526.6,351.6 L 529.2,352.0 L 531.8,352.3 L 534.4,352.7 L 537.0,353.0 L 539.5,353.4 L 542.1,353.7 L 544.7,354.0 L 547.3,354.3 L 549.9,354.5 L 552.4,354.8 L 555.0,355.1 L 557.6,355.3 L 560.2,355.6 L 562.8,355.8 L 565.3,356.0 L 567.9,356.2 L 570.5,356.4 L 573.1,356.6 L 575.7,356.8 L 578.2,356.9 L 580.8,357.1 L 583.4,357.3 L 586.0,357.4 L 588.6,357.6 L 591.1,357.7 L 593.7,357.8 L 596.3,357.9 L 598.9,358.1 L 601.5,358.2 L 604.0,358.3 L 606.6,358.4 L 609.2,358.5 L 611.8,358.6 L 614.4,358.7 L 616.9,358.8 L 619.5,358.9 L 622.1,359.0 L 624.7,359.0 L 627.3,359.1 L 629.8,359.2 L 632.4,359.3 L 635.0,359.4" class="sig"/>
<path d="M 75.7,314.6 L 81.3,294.9 L 87.0,280.7 L 92.6,269.5 L 98.2,260.1 L 103.9,251.6 L 109.5,244.0 L 115.2,237.1 L 120.8,230.8 L 126.5,225.1 L 132.2,219.8 L 137.8,215.0 L 143.4,210.4 L 149.1,206.0 L 154.8,201.8 L 160.4,197.7 L 166.1,193.8 L 171.7,190.0 L 177.3,186.4 L 183.0,183.0 L 188.6,179.6 L 194.3,176.4 L 200.0,173.2 L 205.6,170.1 L 211.2,167.1 L 216.9,164.2 L 222.6,161.3 L 228.2,158.5 L 233.8,155.8 L 239.5,153.1 L 245.2,150.5 L 250.8,148.0 L 256.4,145.5 L 262.1,143.1 L 267.8,140.8 L 273.4,138.5 L 279.0,136.3 L 284.7,134.1 L 290.4,132.0 L 296.0,129.9 L 301.6,127.9 L 307.3,126.0 L 313.0,124.1 L 318.6,122.2 L 324.2,120.4 L 329.9,118.7 L 335.6,117.0 L 341.2,115.3 L 346.9,113.7 L 352.5,112.1 L 358.1,110.6 L 363.8,109.1 L 369.4,107.7 L 375.1,106.3 L 380.8,105.0 L 386.4,103.6 L 392.0,102.4 L 397.7,101.1 L 403.4,99.9 L 409.0,98.8 L 414.6,97.7 L 420.3,96.6 L 425.9,95.6 L 431.6,94.6 L 437.2,93.6 L 442.9,92.7 L 448.6,91.8 L 454.2,90.9 L 459.8,90.1 L 465.5,89.3 L 471.1,88.5 L 476.8,87.8 L 482.4,87.1 L 488.1,86.5 L 493.8,85.9 L 499.4,85.3 L 505.1,84.7 L 510.7,84.2 L 516.4,83.8 L 522.0,83.5 L 527.6,83.3 L 533.3,83.2 L 539.0,83.2 L 544.6,83.3 L 550.2,83.5 L 555.9,83.9 L 561.6,84.3 L 567.2,84.9 L 572.8,85.6 L 578.5,86.4 L 584.1,87.3 L 589.8,88.3 L 595.4,89.4 L 601.1,90.6 L 606.8,92.0 L 612.4,93.4 L 618.0,94.8 L 623.7,96.2 L 629.4,97.6 L 635.0,98.9" class="nt"/>
<path d="M 74.7,325.0 L 79.4,296.2 L 84.1,269.8 L 88.8,248.9 L 93.5,232.7 L 98.2,220.1 L 103.0,209.3 L 107.7,199.6 L 112.4,190.9 L 117.1,183.3 L 121.8,177.2 L 126.5,172.7 L 131.2,170.2 L 135.9,169.5 L 140.6,170.1 L 145.3,171.1 L 150.0,171.7 L 154.8,171.7 L 159.5,171.3 L 164.2,170.8 L 168.9,170.4 L 173.6,170.3 L 178.3,170.7 L 183.0,171.6 L 187.7,172.6 L 192.4,173.6 L 197.1,174.0 L 201.8,174.0 L 206.5,173.6 L 211.2,172.9 L 216.0,172.1 L 220.7,171.0 L 225.4,169.9 L 230.1,168.8 L 234.8,167.5 L 239.5,166.3 L 244.2,165.1 L 248.9,163.9 L 253.6,162.8 L 258.3,161.6 L 263.0,160.5 L 267.8,159.5 L 272.5,158.4 L 277.2,157.5 L 281.9,156.6 L 286.6,155.7 L 291.3,155.0 L 296.0,154.2 L 300.7,153.6 L 305.4,153.0 L 310.1,152.4 L 314.8,151.9 L 319.5,151.5 L 324.2,151.1 L 329.0,150.8 L 333.7,150.6 L 338.4,150.4 L 343.1,150.3 L 347.8,150.3 L 352.5,150.3 L 357.2,150.3 L 361.9,150.4 L 366.6,150.6 L 371.3,150.9 L 376.0,151.1 L 380.7,151.5 L 385.5,151.9 L 390.2,152.3 L 394.9,152.8 L 399.6,153.4 L 404.3,154.0 L 409.0,154.6 L 413.7,155.3 L 418.4,156.0 L 423.1,156.8 L 427.8,157.6 L 432.5,158.4 L 437.2,159.3 L 442.0,160.2 L 446.7,161.1 L 451.4,162.0 L 456.1,162.9 L 460.8,163.8 L 465.5,164.6 L 470.2,165.4 L 474.9,166.2 L 479.6,166.7 L 484.3,167.1 L 489.0,167.2 L 493.7,166.9 L 498.5,166.1 L 503.2,164.8 L 507.9,163.3 L 512.6,162.0 L 517.3,161.6 L 522.0,162.3 L 526.7,164.3 L 531.4,167.5 L 536.1,171.5 L 540.8,176.2 L 545.5,181.5 L 550.2,187.0 L 555.0,192.8 L 559.7,198.7 L 564.4,204.7 L 569.1,210.6 L 573.8,216.4 L 578.5,222.0 L 583.2,227.4 L 587.9,232.4 L 592.6,237.1 L 597.3,241.5 L 602.0,245.4 L 606.8,249.0 L 611.5,252.2 L 616.2,255.1 L 620.9,257.7 L 625.6,260.1 L 630.3,262.3 L 635.0,264.3" class="fw"/>
<line x1="75.46165964682766" y1="315.87757369695174" x2="75.46165964682766" y2="321.3646532308029" class="err"/>
<line x1="72.46165964682766" y1="315.87757369695174" x2="78.46165964682766" y2="315.87757369695174" class="err"/>
<line x1="72.46165964682766" y1="321.3646532308029" x2="78.46165964682766" y2="321.3646532308029" class="err"/>
<circle cx="75.46165964682766" cy="318.6211134638773" r="2.5" class="obs"/>
<line x1="80.7626822452192" y1="277.9905959632177" x2="80.7626822452192" y2="288.96475503091995" class="err"/>
<line x1="77.7626822452192" y1="277.9905959632177" x2="83.7626822452192" y2="277.9905959632177" class="err"/>
<line x1="77.7626822452192" y1="288.96475503091995" x2="83.7626822452192" y2="288.96475503091995" class="err"/>
<circle cx="80.7626822452192" cy="283.47767549706884" r="2.5" class="obs"/>
<line x1="86.06370484361074" y1="241.54071048834942" x2="86.06370484361074" y2="251.46971154960386" class="err"/>
<line x1="83.06370484361074" y1="241.54071048834942" x2="89.06370484361074" y2="241.54071048834942" class="err"/>
<line x1="83.06370484361074" y1="251.46971154960386" x2="89.06370484361074" y2="251.46971154960386" class="err"/>
<circle cx="86.06370484361074" cy="246.50521101897664" r="2.5" class="obs"/>
<line x1="91.20409039356618" y1="226.5165641456618" x2="91.20409039356618" y2="231.74235417790098" class="err"/>
<line x1="88.20409039356618" y1="226.5165641456618" x2="94.20409039356618" y2="226.5165641456618" class="err"/>
<line x1="88.20409039356618" y1="231.74235417790098" x2="94.20409039356618" y2="231.74235417790098" class="err"/>
<circle cx="91.20409039356618" cy="229.12945916178137" r="2.5" class="obs"/>
<line x1="96.5051129919577" y1="224.68753763437806" x2="96.5051129919577" y2="230.95848567306507" class="err"/>
<line x1="93.5051129919577" y1="224.68753763437806" x2="99.5051129919577" y2="224.68753763437806" class="err"/>
<line x1="93.5051129919577" y1="230.95848567306507" x2="99.5051129919577" y2="230.95848567306507" class="err"/>
<circle cx="96.5051129919577" cy="227.82301165372155" r="2.5" class="obs"/>
<line x1="101.80613559034924" y1="221.29077411342263" x2="101.80613559034924" y2="226.5165641456618" class="err"/>
<line x1="98.80613559034924" y1="221.29077411342263" x2="104.80613559034924" y2="221.29077411342263" class="err"/>
<line x1="98.80613559034924" y1="226.5165641456618" x2="104.80613559034924" y2="226.5165641456618" class="err"/>
<circle cx="101.80613559034924" cy="223.90366912954218" r="2.5" class="obs"/>
<line x1="107.1071581887408" y1="210.44725979652628" x2="107.1071581887408" y2="216.45691833360138" class="err"/>
<line x1="104.1071581887408" y1="210.44725979652628" x2="110.1071581887408" y2="210.44725979652628" class="err"/>
<line x1="104.1071581887408" y1="216.45691833360138" x2="110.1071581887408" y2="216.45691833360138" class="err"/>
<circle cx="107.1071581887408" cy="213.45208906506386" r="2.5" class="obs"/>
<line x1="112.24754373869624" y1="190.8505471756294" x2="112.24754373869624" y2="199.47310072882402" class="err"/>
<line x1="109.24754373869624" y1="190.8505471756294" x2="115.24754373869624" y2="190.8505471756294" class="err"/>
<line x1="109.24754373869624" y1="199.47310072882402" x2="115.24754373869624" y2="199.47310072882402" class="err"/>
<circle cx="112.24754373869624" cy="195.16182395222674" r="2.5" class="obs"/>
<line x1="117.54856633708778" y1="177.91671684583747" x2="117.54856633708778" y2="183.6650858813005" class="err"/>
<line x1="114.54856633708778" y1="177.91671684583747" x2="120.54856633708778" y2="177.91671684583747" class="err"/>
<line x1="114.54856633708778" y1="183.6650858813005" x2="120.54856633708778" y2="183.6650858813005" class="err"/>
<circle cx="117.54856633708778" cy="180.790901363569" r="2.5" class="obs"/>
<line x1="122.6889518870432" y1="172.16834781037434" x2="122.6889518870432" y2="176.34897983616565" class="err"/>
<line x1="119.6889518870432" y1="172.16834781037434" x2="125.6889518870432" y2="172.16834781037434" class="err"/>
<line x1="119.6889518870432" y1="176.34897983616565" x2="125.6889518870432" y2="176.34897983616565" class="err"/>
<circle cx="122.6889518870432" cy="174.25866382326998" r="2.5" class="obs"/>
<line x1="127.98997448543474" y1="167.2038472797471" x2="127.98997448543474" y2="170.86190030231455" class="err"/>
<line x1="124.98997448543474" y1="167.2038472797471" x2="130.98997448543474" y2="167.2038472797471" class="err"/>
<line x1="124.98997448543474" y1="170.86190030231455" x2="130.98997448543474" y2="170.86190030231455" class="err"/>
<circle cx="127.98997448543474" cy="169.03287379103085" r="2.5" class="obs"/>
<line x1="133.29099708382628" y1="164.98288651604548" x2="133.29099708382628" y2="167.857071033777" class="err"/>
<line x1="130.29099708382628" y1="164.98288651604548" x2="136.29099708382628" y2="164.98288651604548" class="err"/>
<line x1="130.29099708382628" y1="167.857071033777" x2="136.29099708382628" y2="167.857071033777" class="err"/>
<circle cx="133.29099708382628" cy="166.41997877491124" r="2.5" class="obs"/>
<line x1="138.59201968221782" y1="160.8022544902541" x2="138.59201968221782" y2="164.1990180112096" class="err"/>
<line x1="135.59201968221782" y1="160.8022544902541" x2="141.59201968221782" y2="160.8022544902541" class="err"/>
<line x1="135.59201968221782" y1="164.1990180112096" x2="141.59201968221782" y2="164.1990180112096" class="err"/>
<circle cx="138.59201968221782" cy="162.50063625073187" r="2.5" class="obs"/>
<line x1="143.89304228060936" y1="164.06837326040358" x2="143.89304228060936" y2="168.7715842894189" class="err"/>
<line x1="140.89304228060936" y1="164.06837326040358" x2="146.89304228060936" y2="164.06837326040358" class="err"/>
<line x1="140.89304228060936" y1="168.7715842894189" x2="146.89304228060936" y2="168.7715842894189" class="err"/>
<circle cx="143.89304228060936" cy="166.41997877491124" r="2.5" class="obs"/>
<line x1="149.35470192743702" y1="165.89739977168733" x2="149.35470192743702" y2="172.16834781037434" class="err"/>
<line x1="146.35470192743702" y1="165.89739977168733" x2="152.35470192743702" y2="165.89739977168733" class="err"/>
<line x1="146.35470192743702" y1="172.16834781037434" x2="152.35470192743702" y2="172.16834781037434" class="err"/>
<circle cx="149.35470192743702" cy="169.03287379103085" r="2.5" class="obs"/>
<line x1="155.13763567113688" y1="165.76675502088133" x2="155.13763567113688" y2="180.13767760953908" class="err"/>
<line x1="152.13763567113688" y1="165.76675502088133" x2="158.13763567113688" y2="165.76675502088133" class="err"/>
<line x1="152.13763567113688" y1="180.13767760953908" x2="158.13763567113688" y2="180.13767760953908" class="err"/>
<circle cx="155.13763567113688" cy="172.9522163152102" r="2.5" class="obs"/>
<line x1="160.43865826952845" y1="170.60061080070255" x2="160.43865826952845" y2="180.52961186195705" class="err"/>
<line x1="157.43865826952845" y1="170.60061080070255" x2="163.43865826952845" y2="170.60061080070255" class="err"/>
<line x1="157.43865826952845" y1="180.52961186195705" x2="163.43865826952845" y2="180.52961186195705" class="err"/>
<circle cx="160.43865826952845" cy="175.5651113313298" r="2.5" class="obs"/>
<line x1="165.73968086791996" y1="161.0635439918661" x2="165.73968086791996" y2="171.7764135579564" class="err"/>
<line x1="162.73968086791996" y1="161.0635439918661" x2="168.73968086791996" y2="161.0635439918661" class="err"/>
<line x1="162.73968086791996" y1="171.7764135579564" x2="168.73968086791996" y2="171.7764135579564" class="err"/>
<circle cx="165.73968086791996" cy="166.41997877491124" r="2.5" class="obs"/>
<line x1="170.7194293694393" y1="168.5102947878069" x2="170.7194293694393" y2="172.16834781037434" class="err"/>
<line x1="167.7194293694393" y1="168.5102947878069" x2="173.7194293694393" y2="168.5102947878069" class="err"/>
<line x1="167.7194293694393" y1="172.16834781037434" x2="173.7194293694393" y2="172.16834781037434" class="err"/>
<circle cx="170.7194293694393" cy="170.3393212990906" r="2.5" class="obs"/>
<line x1="202.36492791135245" y1="165.11353126685142" x2="202.36492791135245" y2="175.5651113313298" class="err"/>
<line x1="199.36492791135245" y1="165.11353126685142" x2="205.36492791135245" y2="165.11353126685142" class="err"/>
<line x1="199.36492791135245" y1="175.5651113313298" x2="205.36492791135245" y2="175.5651113313298" class="err"/>
<circle cx="202.36492791135245" cy="170.3393212990906" r="2.5" class="obs"/>
<line x1="235.45615988919056" y1="169.03287379103085" x2="235.45615988919056" y2="179.48445385550917" class="err"/>
<line x1="232.45615988919056" y1="169.03287379103085" x2="238.45615988919056" y2="169.03287379103085" class="err"/>
<line x1="232.45615988919056" y1="179.48445385550917" x2="238.45615988919056" y2="179.48445385550917" class="err"/>
<circle cx="235.45615988919056" cy="174.25866382326998" r="2.5" class="obs"/>
<line x1="248.78903490938748" y1="166.1586892732993" x2="248.78903490938748" y2="174.51995332488195" class="err"/>
<line x1="245.78903490938748" y1="166.1586892732993" x2="251.78903490938748" y2="166.1586892732993" class="err"/>
<line x1="245.78903490938748" y1="174.51995332488195" x2="251.78903490938748" y2="174.51995332488195" class="err"/>
<circle cx="248.78903490938748" cy="170.3393212990906" r="2.5" class="obs"/>
<line x1="261.96127288114826" y1="162.7619257523438" x2="261.96127288114826" y2="170.07803179747867" class="err"/>
<line x1="258.96127288114826" y1="162.7619257523438" x2="264.96127288114826" y2="162.7619257523438" class="err"/>
<line x1="258.96127288114826" y1="170.07803179747867" x2="264.96127288114826" y2="170.07803179747867" class="err"/>
<circle cx="261.96127288114826" cy="166.41997877491124" r="2.5" class="obs"/>
<line x1="274.33032561072855" y1="161.97805724750793" x2="274.33032561072855" y2="168.24900528619494" class="err"/>
<line x1="271.33032561072855" y1="161.97805724750793" x2="277.33032561072855" y2="161.97805724750793" class="err"/>
<line x1="271.33032561072855" y1="168.24900528619494" x2="277.33032561072855" y2="168.24900528619494" class="err"/>
<circle cx="274.33032561072855" cy="165.11353126685142" r="2.5" class="obs"/>
<line x1="288.14511177623376" y1="158.32000422494053" x2="288.14511177623376" y2="164.06837326040358" class="err"/>
<line x1="285.14511177623376" y1="158.32000422494053" x2="291.14511177623376" y2="158.32000422494053" class="err"/>
<line x1="285.14511177623376" y1="164.06837326040358" x2="291.14511177623376" y2="164.06837326040358" class="err"/>
<circle cx="288.14511177623376" cy="161.19418874267205" r="2.5" class="obs"/>
<line x1="301.79926089330286" y1="154.92324070398502" x2="301.79926089330286" y2="162.23934674911987" class="err"/>
<line x1="298.79926089330286" y1="154.92324070398502" x2="304.79926089330286" y2="154.92324070398502" class="err"/>
<line x1="298.79926089330286" y1="162.23934674911987" x2="304.79926089330286" y2="162.23934674911987" class="err"/>
<circle cx="301.79926089330286" cy="158.58129372655247" r="2.5" class="obs"/>
<line x1="315.61404705880807" y1="154.5313064515671" x2="315.61404705880807" y2="162.63128100153784" class="err"/>
<line x1="312.61404705880807" y1="154.5313064515671" x2="318.61404705880807" y2="154.5313064515671" class="err"/>
<line x1="312.61404705880807" y1="162.63128100153784" x2="318.61404705880807" y2="162.63128100153784" class="err"/>
<circle cx="315.61404705880807" cy="158.58129372655247" r="2.5" class="obs"/>
<line x1="327.34055159464396" y1="152.31034568786544" x2="327.34055159464396" y2="162.23934674911987" class="err"/>
<line x1="324.34055159464396" y1="152.31034568786544" x2="330.34055159464396" y2="152.31034568786544" class="err"/>
<line x1="324.34055159464396" y1="162.23934674911987" x2="330.34055159464396" y2="162.23934674911987" class="err"/>
<circle cx="327.34055159464396" cy="157.27484621849268" r="2.5" class="obs"/>
<line x1="341.15533776014917" y1="149.95874017335782" x2="341.15533776014917" y2="159.36516223138833" class="err"/>
<line x1="338.15533776014917" y1="149.95874017335782" x2="344.15533776014917" y2="149.95874017335782" class="err"/>
<line x1="338.15533776014917" y1="159.36516223138833" x2="344.15533776014917" y2="159.36516223138833" class="err"/>
<circle cx="341.15533776014917" cy="154.66195120237307" r="2.5" class="obs"/>
<line x1="354.8094868772183" y1="146.82326615401433" x2="354.8094868772183" y2="157.27484621849268" class="err"/>
<line x1="351.8094868772183" y1="146.82326615401433" x2="357.8094868772183" y2="146.82326615401433" class="err"/>
<line x1="351.8094868772183" y1="157.27484621849268" x2="357.8094868772183" y2="157.27484621849268" class="err"/>
<circle cx="354.8094868772183" cy="152.0490561862535" r="2.5" class="obs"/>
<line x1="368.6242730427236" y1="147.08455565562627" x2="368.6242730427236" y2="159.62645173300035" class="err"/>
<line x1="365.6242730427236" y1="147.08455565562627" x2="371.6242730427236" y2="147.08455565562627" class="err"/>
<line x1="365.6242730427236" y1="159.62645173300035" x2="371.6242730427236" y2="159.62645173300035" class="err"/>
<circle cx="368.6242730427236" cy="153.35550369431328" r="2.5" class="obs"/>
<line x1="380.35077757855936" y1="143.2958578822529" x2="380.35077757855936" y2="158.18935947413453" class="err"/>
<line x1="377.35077757855936" y1="143.2958578822529" x2="383.35077757855936" y2="143.2958578822529" class="err"/>
<line x1="377.35077757855936" y1="158.18935947413453" x2="383.35077757855936" y2="158.18935947413453" class="err"/>
<circle cx="380.35077757855936" cy="150.74260867819373" r="2.5" class="obs"/>
<line x1="394.1655637440646" y1="140.29102861371535" x2="394.1655637440646" y2="158.58129372655247" class="err"/>
<line x1="391.1655637440646" y1="140.29102861371535" x2="397.1655637440646" y2="140.29102861371535" class="err"/>
<line x1="391.1655637440646" y1="158.58129372655247" x2="397.1655637440646" y2="158.58129372655247" class="err"/>
<circle cx="394.1655637440646" cy="149.43616117013391" r="2.5" class="obs"/>
<line x1="407.98034990956984" y1="139.8990943612974" x2="407.98034990956984" y2="156.36033296285083" class="err"/>
<line x1="404.98034990956984" y1="139.8990943612974" x2="410.98034990956984" y2="139.8990943612974" class="err"/>
<line x1="404.98034990956984" y1="156.36033296285083" x2="410.98034990956984" y2="156.36033296285083" class="err"/>
<circle cx="407.98034990956984" cy="148.12971366207412" r="2.5" class="obs"/>
<line x1="421.63449902663893" y1="142.90392362983494" x2="421.63449902663893" y2="161.19418874267205" class="err"/>
<line x1="418.63449902663893" y1="142.90392362983494" x2="424.63449902663893" y2="142.90392362983494" class="err"/>
<line x1="418.63449902663893" y1="161.19418874267205" x2="424.63449902663893" y2="161.19418874267205" class="err"/>
<circle cx="421.63449902663893" cy="152.0490561862535" r="2.5" class="obs"/>
<line x1="433.5216406109109" y1="146.17004239998442" x2="433.5216406109109" y2="168.37965003700094" class="err"/>
<line x1="430.5216406109109" y1="146.17004239998442" x2="436.5216406109109" y2="146.17004239998442" class="err"/>
<line x1="430.5216406109109" y1="168.37965003700094" x2="436.5216406109109" y2="168.37965003700094" class="err"/>
<circle cx="433.5216406109109" cy="157.27484621849268" r="2.5" class="obs"/>
<line x1="447.17578972798003" y1="150.61196392738773" x2="447.17578972798003" y2="174.38930857407598" class="err"/>
<line x1="444.17578972798003" y1="150.61196392738773" x2="450.17578972798003" y2="150.61196392738773" class="err"/>
<line x1="444.17578972798003" y1="174.38930857407598" x2="450.17578972798003" y2="174.38930857407598" class="err"/>
<circle cx="447.17578972798003" cy="162.50063625073187" r="2.5" class="obs"/>
<line x1="460.9905758934853" y1="153.35550369431328" x2="460.9905758934853" y2="174.25866382326998" class="err"/>
<line x1="457.9905758934853" y1="153.35550369431328" x2="463.9905758934853" y2="153.35550369431328" class="err"/>
<line x1="457.9905758934853" y1="174.25866382326998" x2="463.9905758934853" y2="174.25866382326998" class="err"/>
<circle cx="460.9905758934853" cy="163.80708375879163" r="2.5" class="obs"/>
<line x1="474.6447250105544" y1="163.28450475556775" x2="474.6447250105544" y2="177.39413784261353" class="err"/>
<line x1="471.6447250105544" y1="163.28450475556775" x2="477.6447250105544" y2="163.28450475556775" class="err"/>
<line x1="471.6447250105544" y1="177.39413784261353" x2="477.6447250105544" y2="177.39413784261353" class="err"/>
<circle cx="474.6447250105544" cy="170.3393212990906" r="2.5" class="obs"/>
<line x1="486.53186659482634" y1="161.0635439918661" x2="486.53186659482634" y2="169.1635185418368" class="err"/>
<line x1="483.53186659482634" y1="161.0635439918661" x2="489.53186659482634" y2="161.0635439918661" class="err"/>
<line x1="483.53186659482634" y1="169.1635185418368" x2="489.53186659482634" y2="169.1635185418368" class="err"/>
<circle cx="486.53186659482634" cy="165.11353126685142" r="2.5" class="obs"/>
<line x1="500.1860157118955" y1="157.27484621849268" x2="500.1860157118955" y2="165.11353126685142" class="err"/>
<line x1="497.1860157118955" y1="157.27484621849268" x2="503.1860157118955" y2="157.27484621849268" class="err"/>
<line x1="497.1860157118955" y1="165.11353126685142" x2="503.1860157118955" y2="165.11353126685142" class="err"/>
<circle cx="500.1860157118955" cy="161.19418874267205" r="2.5" class="obs"/>
<line x1="514.0008018774007" y1="155.44581970720895" x2="514.0008018774007" y2="180.0070328587331" class="err"/>
<line x1="511.0008018774007" y1="155.44581970720895" x2="517.0008018774007" y2="155.44581970720895" class="err"/>
<line x1="511.0008018774007" y1="180.0070328587331" x2="517.0008018774007" y2="180.0070328587331" class="err"/>
<circle cx="514.0008018774007" cy="167.72642628297103" r="2.5" class="obs"/>
<line x1="525.7273064132365" y1="148.52164791449206" x2="525.7273064132365" y2="168.64093953861288" class="err"/>
<line x1="522.7273064132365" y1="148.52164791449206" x2="528.7273064132365" y2="148.52164791449206" class="err"/>
<line x1="522.7273064132365" y1="168.64093953861288" x2="528.7273064132365" y2="168.64093953861288" class="err"/>
<circle cx="525.7273064132365" cy="158.58129372655247" r="2.5" class="obs"/>
<line x1="539.5420925787417" y1="161.97805724750793" x2="539.5420925787417" y2="170.86190030231455" class="err"/>
<line x1="536.5420925787417" y1="161.97805724750793" x2="542.5420925787417" y2="161.97805724750793" class="err"/>
<line x1="536.5420925787417" y1="170.86190030231455" x2="542.5420925787417" y2="170.86190030231455" class="err"/>
<circle cx="539.5420925787417" cy="166.41997877491124" r="2.5" class="obs"/>
<g class="legend">
<line x1="82" y1="69" x2="106" y2="69" class="fw"/>
<text x="112" y="73" class="lbl-l">framework fit</text>
<line x1="82" y1="87" x2="106" y2="87" class="nt"/>
<text x="112" y="91" class="lbl-l">Newtonian (no halo)</text>
<circle cx="94" cy="105" r="2.5" class="obs"/>
<text x="112" y="109" class="lbl">observed V±err</text>
</g>
<g class="legend">
<line x1="460" y1="69" x2="484" y2="69" class="rho"/>
<text x="490" y="73" class="lbl-r">ρ(r) raw</text>
<line x1="460" y1="87" x2="484" y2="87" class="sig"/>
<text x="490" y="91" class="lbl-r">Σ(r) smoothed</text>
<text x="460" y="113" class="lbl-r">ρ peak: 324 M☉/pc²</text>
</g>
</svg>