<svg xmlns="http://www.w3.org/2000/svg" viewBox="0 0 720 420" width="720" height="420" font-family="sans-serif" font-size="12">
<style>
  .ax { stroke: #333; stroke-width: 1; fill: none; }
  .grid { stroke: #ddd; stroke-width: 0.5; fill: none; }
  .lbl { fill: #333; }
  .lbl-l { fill: #0066cc; }
  .lbl-r { fill: #b03030; }
  .obs { fill: #222; }
  .err { stroke: #555; stroke-width: 0.8; fill: none; }
  .fw { stroke: #0066cc; stroke-width: 2.2; fill: none; }
  .nt { stroke: #cc6600; stroke-width: 1.6; fill: none; stroke-dasharray: 5,3; }
  .rho { stroke: #b03030; stroke-width: 2.0; fill: none; }
  .sig { stroke: #b03030; stroke-width: 1.6; fill: none; stroke-dasharray: 4,2; opacity: 0.85; }
  .title { fill: #111; font-size: 16px; font-weight: 600; }
  .subtitle { fill: #555; font-size: 11px; }
  .legend { font-size: 11px; }
</style>
<text x="360.0" y="22" text-anchor="middle" class="title">NGC6946</text>
<text x="360.0" y="38" text-anchor="middle" class="subtitle">rMax=20.4 kpc, N=58, RMS=10.8 km/s (6.6%), amp=686</text>
<line x1="70" y1="365.0" x2="635" y2="365.0" class="grid"/>
<text x="64" y="369.0" text-anchor="end" class="lbl-l">0</text>
<line x1="70" y1="303.0" x2="635" y2="303.0" class="grid"/>
<text x="64" y="307.0" text-anchor="end" class="lbl-l">56</text>
<line x1="70" y1="241.00000000000003" x2="635" y2="241.00000000000003" class="grid"/>
<text x="64" y="245.00000000000003" text-anchor="end" class="lbl-l">113</text>
<line x1="70" y1="179.0" x2="635" y2="179.0" class="grid"/>
<text x="64" y="183.0" text-anchor="end" class="lbl-l">169</text>
<line x1="70" y1="117.00000000000003" x2="635" y2="117.00000000000003" class="grid"/>
<text x="64" y="121.00000000000003" text-anchor="end" class="lbl-l">226</text>
<line x1="70" y1="55.0" x2="635" y2="55.0" class="grid"/>
<text x="64" y="59.0" text-anchor="end" class="lbl-l">282</text>
<text x="641" y="369.0" text-anchor="start" class="lbl-r">0.0</text>
<text x="641" y="327.6666666666667" text-anchor="start" class="lbl-r">0.2</text>
<text x="641" y="286.33333333333337" text-anchor="start" class="lbl-r">0.4</text>
<text x="641" y="245.00000000000003" text-anchor="start" class="lbl-r">0.6</text>
<text x="641" y="203.66666666666666" text-anchor="start" class="lbl-r">0.8</text>
<text x="641" y="162.33333333333334" text-anchor="start" class="lbl-r">1.0</text>
<line x1="70.0" y1="55" x2="70.0" y2="365" class="grid"/>
<text x="70.0" y="381" text-anchor="middle" class="lbl">0.0</text>
<line x1="164.16666666666666" y1="55" x2="164.16666666666666" y2="365" class="grid"/>
<text x="164.16666666666666" y="381" text-anchor="middle" class="lbl">3.8</text>
<line x1="258.3333333333333" y1="55" x2="258.3333333333333" y2="365" class="grid"/>
<text x="258.3333333333333" y="381" text-anchor="middle" class="lbl">7.7</text>
<line x1="352.5" y1="55" x2="352.5" y2="365" class="grid"/>
<text x="352.5" y="381" text-anchor="middle" class="lbl">11.5</text>
<line x1="446.66666666666663" y1="55" x2="446.66666666666663" y2="365" class="grid"/>
<text x="446.66666666666663" y="381" text-anchor="middle" class="lbl">15.3</text>
<line x1="540.8333333333334" y1="55" x2="540.8333333333334" y2="365" class="grid"/>
<text x="540.8333333333334" y="381" text-anchor="middle" class="lbl">19.2</text>
<line x1="635.0" y1="55" x2="635.0" y2="365" class="grid"/>
<text x="635.0" y="381" text-anchor="middle" class="lbl">23.0</text>
<text x="352.5" y="408" text-anchor="middle" class="lbl">radius (kpc)</text>
<text x="16" y="210.0" text-anchor="middle" class="lbl-l" transform="rotate(-90, 16, 210.0)">velocity (km/s)</text>
<text x="704" y="210.0" text-anchor="middle" class="lbl-r" transform="rotate(-90, 704, 210.0)">mass profile (normalized to peak)</text>
<rect x="70" y="55" width="565" height="310" class="ax"/>
<path d="M 70.0,158.3 L 72.6,189.4 L 75.2,220.5 L 77.7,251.5 L 80.3,282.6 L 82.9,313.7 L 85.5,315.5 L 88.1,315.8 L 90.6,316.1 L 93.2,316.4 L 95.8,316.7 L 98.4,317.0 L 101.0,317.3 L 103.5,317.6 L 106.1,317.9 L 108.7,318.2 L 111.3,318.5 L 113.9,318.8 L 116.4,319.1 L 119.0,319.5 L 121.6,319.8 L 124.2,320.1 L 126.8,320.4 L 129.3,320.7 L 131.9,321.0 L 134.5,321.3 L 137.1,321.6 L 139.7,321.9 L 142.2,322.2 L 144.8,322.4 L 147.4,322.7 L 150.0,323.0 L 152.6,323.3 L 155.1,323.6 L 157.7,323.9 L 160.3,324.2 L 162.9,324.4 L 165.5,324.7 L 168.0,325.0 L 170.6,325.3 L 173.2,325.6 L 175.8,325.9 L 178.4,326.2 L 180.9,326.4 L 183.5,326.7 L 186.1,327.0 L 188.7,327.3 L 191.3,327.6 L 193.8,327.9 L 196.4,328.1 L 199.0,328.4 L 201.6,328.7 L 204.2,329.0 L 206.7,329.3 L 209.3,329.6 L 211.9,329.9 L 214.5,330.1 L 217.1,330.4 L 219.6,330.7 L 222.2,331.0 L 224.8,331.3 L 227.4,331.6 L 230.0,331.8 L 232.5,332.1 L 235.1,332.4 L 237.7,332.7 L 240.3,333.0 L 242.9,333.3 L 245.4,333.6 L 248.0,333.8 L 250.6,334.1 L 253.2,334.4 L 255.8,334.7 L 258.3,335.0 L 260.9,335.2 L 263.5,335.4 L 266.1,335.5 L 268.7,335.6 L 271.2,335.8 L 273.8,335.9 L 276.4,336.0 L 279.0,336.2 L 281.6,336.3 L 284.1,336.4 L 286.7,336.6 L 289.3,336.7 L 291.9,336.8 L 294.5,337.0 L 297.0,337.1 L 299.6,337.2 L 302.2,337.4 L 304.8,337.5 L 307.4,337.6 L 309.9,337.8 L 312.5,337.9 L 315.1,338.0 L 317.7,338.2 L 320.3,338.3 L 322.8,338.4 L 325.4,338.6 L 328.0,338.7 L 330.6,338.8 L 333.2,339.0 L 335.7,339.1 L 338.3,339.2 L 340.9,339.4 L 343.5,339.5 L 346.1,339.6 L 348.6,339.8 L 351.2,339.9 L 353.8,340.0 L 356.4,340.2 L 358.9,340.3 L 361.5,340.4 L 364.1,340.6 L 366.7,340.7 L 369.3,340.8 L 371.8,341.0 L 374.4,341.1 L 377.0,341.2 L 379.6,341.4 L 382.2,341.5 L 384.7,341.6 L 387.3,341.8 L 389.9,341.9 L 392.5,342.0 L 395.1,342.2 L 397.6,342.3 L 400.2,342.4 L 402.8,342.6 L 405.4,342.7 L 408.0,342.8 L 410.5,343.0 L 413.1,343.1 L 415.7,343.2 L 418.3,343.4 L 420.9,343.5 L 423.4,343.6 L 426.0,343.8 L 428.6,343.9 L 431.2,344.0 L 433.8,344.2 L 436.3,344.3 L 438.9,344.4 L 441.5,344.6 L 444.1,344.7 L 446.7,344.8 L 449.2,345.0 L 451.8,345.1 L 454.4,345.2 L 457.0,345.4 L 459.6,345.5 L 462.1,345.6 L 464.7,345.8 L 467.3,345.9 L 469.9,346.0 L 472.5,346.2 L 475.0,346.3 L 477.6,346.4 L 480.2,346.6 L 482.8,346.7 L 485.4,346.8 L 487.9,347.0 L 490.5,347.1 L 493.1,347.2 L 495.7,347.4 L 498.3,347.5 L 500.8,347.6 L 503.4,347.8 L 506.0,347.9 L 508.6,348.0 L 511.2,348.2 L 513.7,348.3 L 516.3,348.4 L 518.9,348.6 L 521.5,348.7 L 524.1,348.8 L 526.6,349.0 L 529.2,349.1 L 531.8,349.2 L 534.4,349.4 L 537.0,349.5 L 539.5,349.6 L 542.1,349.8 L 544.7,349.9 L 547.3,350.0 L 549.9,350.2 L 552.4,350.3 L 555.0,350.4 L 557.6,350.6 L 560.2,350.7 L 562.8,350.8 L 565.3,350.9 L 567.9,351.1 L 570.5,351.2 L 573.1,351.3 L 575.7,351.5 L 578.2,351.6 L 580.8,351.7 L 583.4,351.9 L 586.0,352.0 L 588.6,352.1 L 591.1,352.3 L 593.7,352.4 L 596.3,352.5 L 598.9,352.7 L 601.5,352.8 L 604.0,355.2 L 606.6,361.4 L 609.2,365.0 L 611.8,365.0 L 614.4,365.0 L 616.9,365.0 L 619.5,365.0 L 622.1,365.0 L 624.7,365.0 L 627.3,365.0 L 629.8,365.0 L 632.4,365.0 L 635.0,365.0" class="rho"/>
<path d="M 70.0,158.3 L 72.6,162.1 L 75.2,167.5 L 77.7,174.3 L 80.3,181.8 L 82.9,189.4 L 85.5,196.5 L 88.1,202.5 L 90.6,207.6 L 93.2,211.9 L 95.8,215.6 L 98.4,218.8 L 101.0,221.6 L 103.5,224.0 L 106.1,226.3 L 108.7,228.4 L 111.3,230.3 L 113.9,232.2 L 116.4,233.9 L 119.0,235.6 L 121.6,237.2 L 124.2,238.8 L 126.8,240.3 L 129.3,241.8 L 131.9,243.3 L 134.5,244.7 L 137.1,246.1 L 139.7,247.5 L 142.2,248.9 L 144.8,250.2 L 147.4,251.6 L 150.0,252.9 L 152.6,254.2 L 155.1,255.5 L 157.7,256.8 L 160.3,258.1 L 162.9,259.4 L 165.5,260.6 L 168.0,261.9 L 170.6,263.2 L 173.2,264.4 L 175.8,265.6 L 178.4,266.9 L 180.9,268.1 L 183.5,269.3 L 186.1,270.5 L 188.7,271.7 L 191.3,272.9 L 193.8,274.1 L 196.4,275.2 L 199.0,276.4 L 201.6,277.5 L 204.2,278.7 L 206.7,279.8 L 209.3,280.9 L 211.9,282.1 L 214.5,283.2 L 217.1,284.3 L 219.6,285.3 L 222.2,286.4 L 224.8,287.5 L 227.4,288.5 L 230.0,289.6 L 232.5,290.6 L 235.1,291.6 L 237.7,292.6 L 240.3,293.6 L 242.9,294.5 L 245.4,295.5 L 248.0,296.4 L 250.6,297.4 L 253.2,298.3 L 255.8,299.1 L 258.3,300.0 L 260.9,300.8 L 263.5,301.7 L 266.1,302.5 L 268.7,303.3 L 271.2,304.0 L 273.8,304.8 L 276.4,305.5 L 279.0,306.2 L 281.6,306.9 L 284.1,307.6 L 286.7,308.3 L 289.3,309.0 L 291.9,309.7 L 294.5,310.3 L 297.0,311.0 L 299.6,311.6 L 302.2,312.2 L 304.8,312.8 L 307.4,313.5 L 309.9,314.1 L 312.5,314.7 L 315.1,315.3 L 317.7,315.8 L 320.3,316.4 L 322.8,317.0 L 325.4,317.6 L 328.0,318.1 L 330.6,318.7 L 333.2,319.2 L 335.7,319.8 L 338.3,320.3 L 340.9,320.8 L 343.5,321.3 L 346.1,321.9 L 348.6,322.4 L 351.2,322.9 L 353.8,323.4 L 356.4,323.9 L 358.9,324.4 L 361.5,324.9 L 364.1,325.4 L 366.7,325.9 L 369.3,326.3 L 371.8,326.8 L 374.4,327.3 L 377.0,327.8 L 379.6,328.2 L 382.2,328.7 L 384.7,329.1 L 387.3,329.6 L 389.9,330.0 L 392.5,330.5 L 395.1,330.9 L 397.6,331.3 L 400.2,331.8 L 402.8,332.2 L 405.4,332.6 L 408.0,333.0 L 410.5,333.4 L 413.1,333.8 L 415.7,334.2 L 418.3,334.6 L 420.9,335.0 L 423.4,335.4 L 426.0,335.8 L 428.6,336.2 L 431.2,336.6 L 433.8,337.0 L 436.3,337.4 L 438.9,337.7 L 441.5,338.1 L 444.1,338.5 L 446.7,338.8 L 449.2,339.2 L 451.8,339.5 L 454.4,339.9 L 457.0,340.2 L 459.6,340.6 L 462.1,340.9 L 464.7,341.3 L 467.3,341.6 L 469.9,341.9 L 472.5,342.3 L 475.0,342.6 L 477.6,342.9 L 480.2,343.2 L 482.8,343.5 L 485.4,343.8 L 487.9,344.1 L 490.5,344.4 L 493.1,344.8 L 495.7,345.1 L 498.3,345.3 L 500.8,345.6 L 503.4,345.9 L 506.0,346.2 L 508.6,346.5 L 511.2,346.8 L 513.7,347.1 L 516.3,347.3 L 518.9,347.6 L 521.5,347.9 L 524.1,348.1 L 526.6,348.4 L 529.2,348.7 L 531.8,348.9 L 534.4,349.2 L 537.0,349.4 L 539.5,349.7 L 542.1,349.9 L 544.7,350.2 L 547.3,350.4 L 549.9,350.6 L 552.4,350.9 L 555.0,351.1 L 557.6,351.4 L 560.2,351.6 L 562.8,351.8 L 565.3,352.0 L 567.9,352.3 L 570.5,352.5 L 573.1,352.7 L 575.7,353.0 L 578.2,353.2 L 580.8,353.4 L 583.4,353.6 L 586.0,353.9 L 588.6,354.1 L 591.1,354.3 L 593.7,354.6 L 596.3,354.8 L 598.9,355.0 L 601.5,355.3 L 604.0,355.5 L 606.6,355.7 L 609.2,356.0 L 611.8,356.2 L 614.4,356.4 L 616.9,356.6 L 619.5,356.8 L 622.1,356.9 L 624.7,357.1 L 627.3,357.2 L 629.8,357.4 L 632.4,357.5 L 635.0,357.7" class="sig"/>
<path d="M 75.7,285.7 L 81.3,269.9 L 87.0,267.9 L 92.6,262.9 L 98.2,256.7 L 103.9,250.2 L 109.6,243.7 L 115.2,237.5 L 120.8,231.5 L 126.5,225.8 L 132.1,220.4 L 137.8,215.2 L 143.4,210.3 L 149.1,205.6 L 154.8,201.1 L 160.4,196.8 L 166.1,192.7 L 171.7,188.7 L 177.3,184.9 L 183.0,181.3 L 188.6,177.8 L 194.3,174.5 L 199.9,171.3 L 205.6,168.2 L 211.2,165.3 L 216.9,162.4 L 222.6,159.7 L 228.2,157.1 L 233.8,154.6 L 239.5,152.2 L 245.2,150.0 L 250.8,147.8 L 256.5,145.7 L 262.1,143.7 L 267.8,141.7 L 273.4,139.8 L 279.0,137.9 L 284.7,136.0 L 290.4,134.2 L 296.0,132.4 L 301.6,130.6 L 307.3,128.9 L 312.9,127.2 L 318.6,125.5 L 324.2,123.9 L 329.9,122.3 L 335.6,120.7 L 341.2,119.2 L 346.9,117.7 L 352.5,116.3 L 358.1,114.9 L 363.8,113.5 L 369.4,112.1 L 375.1,110.8 L 380.8,109.5 L 386.4,108.2 L 392.0,107.0 L 397.7,105.8 L 403.3,104.6 L 409.0,103.5 L 414.7,102.4 L 420.3,101.3 L 425.9,100.3 L 431.6,99.3 L 437.2,98.3 L 442.9,97.3 L 448.6,96.4 L 454.2,95.5 L 459.8,94.6 L 465.5,93.8 L 471.1,93.0 L 476.8,92.2 L 482.5,91.4 L 488.1,90.7 L 493.8,90.0 L 499.4,89.3 L 505.1,88.7 L 510.7,88.1 L 516.3,87.5 L 522.0,86.9 L 527.7,86.4 L 533.3,85.9 L 539.0,85.4 L 544.6,85.0 L 550.2,84.5 L 555.9,84.1 L 561.5,83.7 L 567.2,83.4 L 572.9,83.1 L 578.5,82.8 L 584.1,82.5 L 589.8,82.3 L 595.5,82.1 L 601.1,81.9 L 606.8,82.1 L 612.4,83.5 L 618.0,84.9 L 623.7,86.4 L 629.4,87.9 L 635.0,89.2" class="nt"/>
<path d="M 74.7,282.1 L 79.4,237.5 L 84.1,212.6 L 88.8,206.9 L 93.5,211.9 L 98.2,219.0 L 103.0,223.2 L 107.7,225.4 L 112.4,225.4 L 117.1,224.3 L 121.8,222.3 L 126.5,219.8 L 131.2,216.8 L 135.9,213.7 L 140.6,210.4 L 145.3,207.1 L 150.0,203.7 L 154.8,200.3 L 159.5,197.0 L 164.2,193.7 L 168.9,190.5 L 173.6,187.5 L 178.3,184.5 L 183.0,181.7 L 187.7,179.1 L 192.4,176.6 L 197.1,174.3 L 201.8,172.1 L 206.5,170.2 L 211.2,168.4 L 216.0,166.9 L 220.7,165.6 L 225.4,164.5 L 230.1,163.7 L 234.8,163.1 L 239.5,162.9 L 244.2,163.1 L 248.9,163.7 L 253.6,164.8 L 258.3,166.4 L 263.0,168.2 L 267.8,169.9 L 272.5,171.5 L 277.2,172.7 L 281.9,173.7 L 286.6,174.5 L 291.3,175.1 L 296.0,175.6 L 300.7,176.0 L 305.4,176.3 L 310.1,176.6 L 314.8,176.7 L 319.5,176.9 L 324.2,177.0 L 329.0,177.1 L 333.7,177.2 L 338.4,177.2 L 343.1,177.3 L 347.8,177.4 L 352.5,177.4 L 357.2,177.5 L 361.9,177.6 L 366.6,177.7 L 371.3,177.8 L 376.0,177.9 L 380.8,178.1 L 385.5,178.2 L 390.2,178.4 L 394.9,178.6 L 399.6,178.8 L 404.3,179.1 L 409.0,179.3 L 413.7,179.6 L 418.4,180.0 L 423.1,180.3 L 427.8,180.7 L 432.5,181.1 L 437.2,181.5 L 442.0,181.9 L 446.7,182.4 L 451.4,182.9 L 456.1,183.4 L 460.8,184.0 L 465.5,184.6 L 470.2,185.2 L 474.9,185.8 L 479.6,186.4 L 484.3,187.1 L 489.0,187.8 L 493.8,188.5 L 498.5,189.2 L 503.2,189.9 L 507.9,190.7 L 512.6,191.4 L 517.3,192.2 L 522.0,192.9 L 526.7,193.7 L 531.4,194.4 L 536.1,195.1 L 540.8,195.8 L 545.5,196.4 L 550.2,197.0 L 555.0,197.4 L 559.7,197.7 L 564.4,197.9 L 569.1,197.7 L 573.8,197.2 L 578.5,196.2 L 583.2,194.8 L 587.9,192.9 L 592.6,191.1 L 597.3,189.9 L 602.0,190.3 L 606.8,193.0 L 611.5,198.1 L 616.2,204.8 L 620.9,212.2 L 625.6,219.4 L 630.3,225.9 L 635.0,231.7" class="fw"/>
<line x1="74.66636064730051" y1="187.95959386785228" x2="74.66636064730051" y2="205.5536714958918" class="err"/>
<line x1="71.66636064730051" y1="187.95959386785228" x2="77.66636064730051" y2="187.95959386785228" class="err"/>
<line x1="71.66636064730051" y1="205.5536714958918" x2="77.66636064730051" y2="205.5536714958918" class="err"/>
<circle cx="74.66636064730051" cy="196.75663268187205" r="2.5" class="obs"/>
<line x1="83.75348401309624" y1="212.15145060640663" x2="83.75348401309624" y2="231.9447879379511" class="err"/>
<line x1="80.75348401309624" y1="212.15145060640663" x2="86.75348401309624" y2="212.15145060640663" class="err"/>
<line x1="80.75348401309624" y1="231.9447879379511" x2="86.75348401309624" y2="231.9447879379511" class="err"/>
<circle cx="83.75348401309624" cy="222.04811927217887" r="2.5" class="obs"/>
<line x1="93.08620530769726" y1="220.9484894204264" x2="93.08620530769726" y2="227.5462685309412" class="err"/>
<line x1="90.08620530769726" y1="220.9484894204264" x2="96.08620530769726" y2="220.9484894204264" class="err"/>
<line x1="90.08620530769726" y1="227.5462685309412" x2="96.08620530769726" y2="227.5462685309412" class="err"/>
<circle cx="93.08620530769726" cy="224.24737897568377" r="2.5" class="obs"/>
<line x1="99.96294731424537" y1="214.35071030991156" x2="99.96294731424537" y2="220.9484894204264" class="err"/>
<line x1="96.96294731424537" y1="214.35071030991156" x2="102.96294731424537" y2="214.35071030991156" class="err"/>
<line x1="96.96294731424537" y1="220.9484894204264" x2="102.96294731424537" y2="220.9484894204264" class="err"/>
<circle cx="99.96294731424537" cy="217.64959986516897" r="2.5" class="obs"/>
<line x1="109.0500706800411" y1="218.74922971692143" x2="109.0500706800411" y2="227.5462685309412" class="err"/>
<line x1="106.0500706800411" y1="218.74922971692143" x2="112.0500706800411" y2="218.74922971692143" class="err"/>
<line x1="106.0500706800411" y1="227.5462685309412" x2="112.0500706800411" y2="227.5462685309412" class="err"/>
<circle cx="109.0500706800411" cy="223.14774912393133" r="2.5" class="obs"/>
<line x1="118.13719404583682" y1="213.2510804581591" x2="118.13719404583682" y2="228.64589838269364" class="err"/>
<line x1="115.13719404583682" y1="213.2510804581591" x2="121.13719404583682" y2="213.2510804581591" class="err"/>
<line x1="115.13719404583682" y1="228.64589838269364" x2="121.13719404583682" y2="228.64589838269364" class="err"/>
<circle cx="118.13719404583682" cy="220.9484894204264" r="2.5" class="obs"/>
<line x1="127.46991534043784" y1="204.45404164413932" x2="127.46991534043784" y2="222.04811927217887" class="err"/>
<line x1="124.46991534043784" y1="204.45404164413932" x2="130.46991534043784" y2="204.45404164413932" class="err"/>
<line x1="124.46991534043784" y1="222.04811927217887" x2="130.46991534043784" y2="222.04811927217887" class="err"/>
<circle cx="127.46991534043784" cy="213.2510804581591" r="2.5" class="obs"/>
<line x1="136.55703870623358" y1="206.65330134764426" x2="136.55703870623358" y2="217.64959986516897" class="err"/>
<line x1="133.55703870623358" y1="206.65330134764426" x2="139.55703870623358" y2="206.65330134764426" class="err"/>
<line x1="133.55703870623358" y1="217.64959986516897" x2="139.55703870623358" y2="217.64959986516897" class="err"/>
<circle cx="136.55703870623358" cy="212.15145060640663" r="2.5" class="obs"/>
<line x1="143.4337807127817" y1="204.45404164413932" x2="143.4337807127817" y2="211.05182075465413" class="err"/>
<line x1="140.4337807127817" y1="204.45404164413932" x2="146.4337807127817" y2="204.45404164413932" class="err"/>
<line x1="140.4337807127817" y1="211.05182075465413" x2="146.4337807127817" y2="211.05182075465413" class="err"/>
<circle cx="143.4337807127817" cy="207.75293119939673" r="2.5" class="obs"/>
<line x1="152.7665020073827" y1="202.25478194063436" x2="152.7665020073827" y2="206.65330134764426" class="err"/>
<line x1="149.7665020073827" y1="202.25478194063436" x2="155.7665020073827" y2="202.25478194063436" class="err"/>
<line x1="149.7665020073827" y1="206.65330134764426" x2="155.7665020073827" y2="206.65330134764426" class="err"/>
<circle cx="152.7665020073827" cy="204.45404164413932" r="2.5" class="obs"/>
<line x1="161.85362537317843" y1="193.45774312661464" x2="161.85362537317843" y2="197.85626253362452" class="err"/>
<line x1="158.85362537317843" y1="193.45774312661464" x2="164.85362537317843" y2="193.45774312661464" class="err"/>
<line x1="158.85362537317843" y1="197.85626253362452" x2="164.85362537317843" y2="197.85626253362452" class="err"/>
<circle cx="161.85362537317843" cy="195.65700283011958" r="2.5" class="obs"/>
<line x1="171.18634666777945" y1="186.8599640160998" x2="171.18634666777945" y2="189.05922371960474" class="err"/>
<line x1="168.18634666777945" y1="186.8599640160998" x2="174.18634666777945" y2="186.8599640160998" class="err"/>
<line x1="168.18634666777945" y1="189.05922371960474" x2="174.18634666777945" y2="189.05922371960474" class="err"/>
<circle cx="171.18634666777945" cy="187.95959386785228" r="2.5" class="obs"/>
<line x1="178.06308867432756" y1="179.1625550538325" x2="178.06308867432756" y2="183.56107446084238" class="err"/>
<line x1="175.06308867432756" y1="179.1625550538325" x2="181.06308867432756" y2="179.1625550538325" class="err"/>
<line x1="175.06308867432756" y1="183.56107446084238" x2="181.06308867432756" y2="183.56107446084238" class="err"/>
<circle cx="178.06308867432756" cy="181.36181475733744" r="2.5" class="obs"/>
<line x1="187.15021204012328" y1="172.56477594331767" x2="187.15021204012328" y2="176.96329535032754" class="err"/>
<line x1="184.15021204012328" y1="172.56477594331767" x2="190.15021204012328" y2="172.56477594331767" class="err"/>
<line x1="184.15021204012328" y1="176.96329535032754" x2="190.15021204012328" y2="176.96329535032754" class="err"/>
<circle cx="187.15021204012328" cy="174.7640356468226" r="2.5" class="obs"/>
<line x1="196.48293333472435" y1="167.06662668455533" x2="196.48293333472435" y2="175.86366549857507" class="err"/>
<line x1="193.48293333472435" y1="167.06662668455533" x2="199.48293333472435" y2="167.06662668455533" class="err"/>
<line x1="193.48293333472435" y1="175.86366549857507" x2="199.48293333472435" y2="175.86366549857507" class="err"/>
<circle cx="196.48293333472435" cy="171.4651460915652" r="2.5" class="obs"/>
<line x1="205.57005670052" y1="163.76773712929793" x2="205.57005670052" y2="174.7640356468226" class="err"/>
<line x1="202.57005670052" y1="163.76773712929793" x2="208.57005670052" y2="163.76773712929793" class="err"/>
<line x1="202.57005670052" y1="174.7640356468226" x2="208.57005670052" y2="174.7640356468226" class="err"/>
<circle cx="205.57005670052" cy="169.2658863880603" r="2.5" class="obs"/>
<line x1="214.65718006631576" y1="163.76773712929793" x2="214.65718006631576" y2="170.36551623981273" class="err"/>
<line x1="211.65718006631576" y1="163.76773712929793" x2="217.65718006631576" y2="163.76773712929793" class="err"/>
<line x1="211.65718006631576" y1="170.36551623981273" x2="217.65718006631576" y2="170.36551623981273" class="err"/>
<circle cx="214.65718006631576" cy="167.06662668455533" r="2.5" class="obs"/>
<line x1="221.53392207286387" y1="163.76773712929793" x2="221.53392207286387" y2="172.56477594331767" class="err"/>
<line x1="218.53392207286387" y1="163.76773712929793" x2="224.53392207286387" y2="163.76773712929793" class="err"/>
<line x1="218.53392207286387" y1="172.56477594331767" x2="224.53392207286387" y2="172.56477594331767" class="err"/>
<circle cx="221.53392207286387" cy="168.1662565363078" r="2.5" class="obs"/>
<line x1="230.8666433674649" y1="161.568477425793" x2="230.8666433674649" y2="172.56477594331767" class="err"/>
<line x1="227.8666433674649" y1="161.568477425793" x2="233.8666433674649" y2="161.568477425793" class="err"/>
<line x1="227.8666433674649" y1="172.56477594331767" x2="233.8666433674649" y2="172.56477594331767" class="err"/>
<circle cx="230.8666433674649" cy="167.06662668455533" r="2.5" class="obs"/>
<line x1="239.95376673326064" y1="161.568477425793" x2="239.95376673326064" y2="170.36551623981273" class="err"/>
<line x1="236.95376673326064" y1="161.568477425793" x2="242.95376673326064" y2="161.568477425793" class="err"/>
<line x1="236.95376673326064" y1="170.36551623981273" x2="242.95376673326064" y2="170.36551623981273" class="err"/>
<circle cx="239.95376673326064" cy="165.96699683280286" r="2.5" class="obs"/>
<line x1="249.28648802786165" y1="163.76773712929793" x2="249.28648802786165" y2="172.56477594331767" class="err"/>
<line x1="246.28648802786165" y1="163.76773712929793" x2="252.28648802786165" y2="163.76773712929793" class="err"/>
<line x1="246.28648802786165" y1="172.56477594331767" x2="252.28648802786165" y2="172.56477594331767" class="err"/>
<circle cx="249.28648802786165" cy="168.1662565363078" r="2.5" class="obs"/>
<line x1="256.16323003440976" y1="165.96699683280286" x2="256.16323003440976" y2="170.36551623981273" class="err"/>
<line x1="253.16323003440976" y1="165.96699683280286" x2="259.16323003440976" y2="165.96699683280286" class="err"/>
<line x1="253.16323003440976" y1="170.36551623981273" x2="259.16323003440976" y2="170.36551623981273" class="err"/>
<circle cx="256.16323003440976" cy="168.1662565363078" r="2.5" class="obs"/>
<line x1="265.2503534002055" y1="167.06662668455533" x2="265.2503534002055" y2="169.2658863880603" class="err"/>
<line x1="262.2503534002055" y1="167.06662668455533" x2="268.2503534002055" y2="167.06662668455533" class="err"/>
<line x1="262.2503534002055" y1="169.2658863880603" x2="268.2503534002055" y2="169.2658863880603" class="err"/>
<circle cx="265.2503534002055" cy="168.1662565363078" r="2.5" class="obs"/>
<line x1="274.58307469480656" y1="168.1662565363078" x2="274.58307469480656" y2="170.36551623981273" class="err"/>
<line x1="271.58307469480656" y1="168.1662565363078" x2="277.58307469480656" y2="168.1662565363078" class="err"/>
<line x1="271.58307469480656" y1="170.36551623981273" x2="277.58307469480656" y2="170.36551623981273" class="err"/>
<circle cx="274.58307469480656" cy="169.2658863880603" r="2.5" class="obs"/>
<line x1="283.6701980606022" y1="168.1662565363078" x2="283.6701980606022" y2="172.56477594331767" class="err"/>
<line x1="280.6701980606022" y1="168.1662565363078" x2="286.6701980606022" y2="168.1662565363078" class="err"/>
<line x1="280.6701980606022" y1="172.56477594331767" x2="286.6701980606022" y2="172.56477594331767" class="err"/>
<circle cx="283.6701980606022" cy="170.36551623981273" r="2.5" class="obs"/>
<line x1="293.00291935520323" y1="169.2658863880603" x2="293.00291935520323" y2="173.66440579507014" class="err"/>
<line x1="290.00291935520323" y1="169.2658863880603" x2="296.00291935520323" y2="169.2658863880603" class="err"/>
<line x1="290.00291935520323" y1="173.66440579507014" x2="296.00291935520323" y2="173.66440579507014" class="err"/>
<circle cx="293.00291935520323" cy="171.4651460915652" r="2.5" class="obs"/>
<line x1="299.87966136175135" y1="171.4651460915652" x2="299.87966136175135" y2="178.06292520208" class="err"/>
<line x1="296.87966136175135" y1="171.4651460915652" x2="302.87966136175135" y2="171.4651460915652" class="err"/>
<line x1="296.87966136175135" y1="178.06292520208" x2="302.87966136175135" y2="178.06292520208" class="err"/>
<circle cx="299.87966136175135" cy="174.7640356468226" r="2.5" class="obs"/>
<line x1="308.9667847275471" y1="173.66440579507014" x2="308.9667847275471" y2="178.06292520208" class="err"/>
<line x1="305.9667847275471" y1="173.66440579507014" x2="311.9667847275471" y2="173.66440579507014" class="err"/>
<line x1="305.9667847275471" y1="178.06292520208" x2="311.9667847275471" y2="178.06292520208" class="err"/>
<circle cx="308.9667847275471" cy="175.86366549857507" r="2.5" class="obs"/>
<line x1="318.0539080933428" y1="173.66440579507014" x2="318.0539080933428" y2="178.06292520208" class="err"/>
<line x1="315.0539080933428" y1="173.66440579507014" x2="321.0539080933428" y2="173.66440579507014" class="err"/>
<line x1="315.0539080933428" y1="178.06292520208" x2="321.0539080933428" y2="178.06292520208" class="err"/>
<circle cx="318.0539080933428" cy="175.86366549857507" r="2.5" class="obs"/>
<line x1="327.38662938794386" y1="175.86366549857507" x2="327.38662938794386" y2="180.26218490558497" class="err"/>
<line x1="324.38662938794386" y1="175.86366549857507" x2="330.38662938794386" y2="175.86366549857507" class="err"/>
<line x1="324.38662938794386" y1="180.26218490558497" x2="330.38662938794386" y2="180.26218490558497" class="err"/>
<circle cx="327.38662938794386" cy="178.06292520208" r="2.5" class="obs"/>
<line x1="334.26337139449197" y1="174.7640356468226" x2="334.26337139449197" y2="179.1625550538325" class="err"/>
<line x1="331.26337139449197" y1="174.7640356468226" x2="337.26337139449197" y2="174.7640356468226" class="err"/>
<line x1="331.26337139449197" y1="179.1625550538325" x2="337.26337139449197" y2="179.1625550538325" class="err"/>
<circle cx="334.26337139449197" cy="176.96329535032754" r="2.5" class="obs"/>
<line x1="343.35049476028775" y1="171.4651460915652" x2="343.35049476028775" y2="175.86366549857507" class="err"/>
<line x1="340.35049476028775" y1="171.4651460915652" x2="346.35049476028775" y2="171.4651460915652" class="err"/>
<line x1="340.35049476028775" y1="175.86366549857507" x2="346.35049476028775" y2="175.86366549857507" class="err"/>
<circle cx="343.35049476028775" cy="173.66440579507014" r="2.5" class="obs"/>
<line x1="352.6832160548887" y1="171.4651460915652" x2="352.6832160548887" y2="175.86366549857507" class="err"/>
<line x1="349.6832160548887" y1="171.4651460915652" x2="355.6832160548887" y2="171.4651460915652" class="err"/>
<line x1="349.6832160548887" y1="175.86366549857507" x2="355.6832160548887" y2="175.86366549857507" class="err"/>
<circle cx="352.6832160548887" cy="173.66440579507014" r="2.5" class="obs"/>
<line x1="361.7703394206844" y1="170.36551623981273" x2="361.7703394206844" y2="174.7640356468226" class="err"/>
<line x1="358.7703394206844" y1="170.36551623981273" x2="364.7703394206844" y2="170.36551623981273" class="err"/>
<line x1="358.7703394206844" y1="174.7640356468226" x2="364.7703394206844" y2="174.7640356468226" class="err"/>
<circle cx="361.7703394206844" cy="172.56477594331767" r="2.5" class="obs"/>
<line x1="371.10306071528544" y1="171.4651460915652" x2="371.10306071528544" y2="175.86366549857507" class="err"/>
<line x1="368.10306071528544" y1="171.4651460915652" x2="374.10306071528544" y2="171.4651460915652" class="err"/>
<line x1="368.10306071528544" y1="175.86366549857507" x2="374.10306071528544" y2="175.86366549857507" class="err"/>
<circle cx="371.10306071528544" cy="173.66440579507014" r="2.5" class="obs"/>
<line x1="377.97980272183355" y1="168.1662565363078" x2="377.97980272183355" y2="181.36181475733744" class="err"/>
<line x1="374.97980272183355" y1="168.1662565363078" x2="380.97980272183355" y2="168.1662565363078" class="err"/>
<line x1="374.97980272183355" y1="181.36181475733744" x2="380.97980272183355" y2="181.36181475733744" class="err"/>
<circle cx="377.97980272183355" cy="174.7640356468226" r="2.5" class="obs"/>
<line x1="387.06692608762927" y1="168.1662565363078" x2="387.06692608762927" y2="181.36181475733744" class="err"/>
<line x1="384.06692608762927" y1="168.1662565363078" x2="390.06692608762927" y2="168.1662565363078" class="err"/>
<line x1="384.06692608762927" y1="181.36181475733744" x2="390.06692608762927" y2="181.36181475733744" class="err"/>
<circle cx="387.06692608762927" cy="174.7640356468226" r="2.5" class="obs"/>
<line x1="396.3996473822303" y1="165.96699683280286" x2="396.3996473822303" y2="183.56107446084238" class="err"/>
<line x1="393.3996473822303" y1="165.96699683280286" x2="399.3996473822303" y2="165.96699683280286" class="err"/>
<line x1="393.3996473822303" y1="183.56107446084238" x2="399.3996473822303" y2="183.56107446084238" class="err"/>
<circle cx="396.3996473822303" cy="174.7640356468226" r="2.5" class="obs"/>
<line x1="405.48677074802606" y1="162.66810727754546" x2="405.48677074802606" y2="182.4614446090899" class="err"/>
<line x1="402.48677074802606" y1="162.66810727754546" x2="408.48677074802606" y2="162.66810727754546" class="err"/>
<line x1="402.48677074802606" y1="182.4614446090899" x2="408.48677074802606" y2="182.4614446090899" class="err"/>
<circle cx="405.48677074802606" cy="172.56477594331767" r="2.5" class="obs"/>
<line x1="414.5738941138218" y1="163.76773712929793" x2="414.5738941138218" y2="183.56107446084238" class="err"/>
<line x1="411.5738941138218" y1="163.76773712929793" x2="417.5738941138218" y2="163.76773712929793" class="err"/>
<line x1="411.5738941138218" y1="183.56107446084238" x2="417.5738941138218" y2="183.56107446084238" class="err"/>
<circle cx="414.5738941138218" cy="173.66440579507014" r="2.5" class="obs"/>
<line x1="421.4506361203699" y1="167.06662668455533" x2="421.4506361203699" y2="186.8599640160998" class="err"/>
<line x1="418.4506361203699" y1="167.06662668455533" x2="424.4506361203699" y2="167.06662668455533" class="err"/>
<line x1="418.4506361203699" y1="186.8599640160998" x2="424.4506361203699" y2="186.8599640160998" class="err"/>
<circle cx="421.4506361203699" cy="176.96329535032754" r="2.5" class="obs"/>
<line x1="430.78335741497085" y1="172.56477594331767" x2="430.78335741497085" y2="190.1588535713572" class="err"/>
<line x1="427.78335741497085" y1="172.56477594331767" x2="433.78335741497085" y2="172.56477594331767" class="err"/>
<line x1="427.78335741497085" y1="190.1588535713572" x2="433.78335741497085" y2="190.1588535713572" class="err"/>
<circle cx="430.78335741497085" cy="181.36181475733744" r="2.5" class="obs"/>
<line x1="439.8704807807667" y1="175.86366549857507" x2="439.8704807807667" y2="191.25848342310968" class="err"/>
<line x1="436.8704807807667" y1="175.86366549857507" x2="442.8704807807667" y2="175.86366549857507" class="err"/>
<line x1="436.8704807807667" y1="191.25848342310968" x2="442.8704807807667" y2="191.25848342310968" class="err"/>
<circle cx="439.8704807807667" cy="183.56107446084238" r="2.5" class="obs"/>
<line x1="449.20320207536764" y1="176.96329535032754" x2="449.20320207536764" y2="194.5573729783671" class="err"/>
<line x1="446.20320207536764" y1="176.96329535032754" x2="452.20320207536764" y2="176.96329535032754" class="err"/>
<line x1="446.20320207536764" y1="194.5573729783671" x2="452.20320207536764" y2="194.5573729783671" class="err"/>
<circle cx="449.20320207536764" cy="185.76033416434734" r="2.5" class="obs"/>
<line x1="456.07994408191576" y1="178.06292520208" x2="456.07994408191576" y2="195.65700283011958" class="err"/>
<line x1="453.07994408191576" y1="178.06292520208" x2="459.07994408191576" y2="178.06292520208" class="err"/>
<line x1="453.07994408191576" y1="195.65700283011958" x2="459.07994408191576" y2="195.65700283011958" class="err"/>
<circle cx="456.07994408191576" cy="186.8599640160998" r="2.5" class="obs"/>
<line x1="465.16706744771153" y1="178.06292520208" x2="465.16706744771153" y2="197.85626253362452" class="err"/>
<line x1="462.16706744771153" y1="178.06292520208" x2="468.16706744771153" y2="178.06292520208" class="err"/>
<line x1="462.16706744771153" y1="197.85626253362452" x2="468.16706744771153" y2="197.85626253362452" class="err"/>
<circle cx="465.16706744771153" cy="187.95959386785228" r="2.5" class="obs"/>
<line x1="474.4997887423125" y1="179.1625550538325" x2="474.4997887423125" y2="201.1551520888819" class="err"/>
<line x1="471.4997887423125" y1="179.1625550538325" x2="477.4997887423125" y2="179.1625550538325" class="err"/>
<line x1="471.4997887423125" y1="201.1551520888819" x2="477.4997887423125" y2="201.1551520888819" class="err"/>
<circle cx="474.4997887423125" cy="190.1588535713572" r="2.5" class="obs"/>
<line x1="483.58691210810827" y1="180.26218490558497" x2="483.58691210810827" y2="202.25478194063436" class="err"/>
<line x1="480.58691210810827" y1="180.26218490558497" x2="486.58691210810827" y2="180.26218490558497" class="err"/>
<line x1="480.58691210810827" y1="202.25478194063436" x2="486.58691210810827" y2="202.25478194063436" class="err"/>
<circle cx="483.58691210810827" cy="191.25848342310968" r="2.5" class="obs"/>
<line x1="492.674035473904" y1="181.36181475733744" x2="492.674035473904" y2="203.35441179238686" class="err"/>
<line x1="489.674035473904" y1="181.36181475733744" x2="495.674035473904" y2="181.36181475733744" class="err"/>
<line x1="489.674035473904" y1="203.35441179238686" x2="495.674035473904" y2="203.35441179238686" class="err"/>
<circle cx="492.674035473904" cy="192.35811327486215" r="2.5" class="obs"/>
<line x1="499.7963754092574" y1="181.36181475733744" x2="499.7963754092574" y2="203.35441179238686" class="err"/>
<line x1="496.7963754092574" y1="181.36181475733744" x2="502.7963754092574" y2="181.36181475733744" class="err"/>
<line x1="496.7963754092574" y1="203.35441179238686" x2="502.7963754092574" y2="203.35441179238686" class="err"/>
<circle cx="499.7963754092574" cy="192.35811327486215" r="2.5" class="obs"/>
<line x1="508.88349877505317" y1="182.4614446090899" x2="508.88349877505317" y2="202.25478194063436" class="err"/>
<line x1="505.88349877505317" y1="182.4614446090899" x2="511.88349877505317" y2="182.4614446090899" class="err"/>
<line x1="505.88349877505317" y1="202.25478194063436" x2="511.88349877505317" y2="202.25478194063436" class="err"/>
<circle cx="508.88349877505317" cy="192.35811327486215" r="2.5" class="obs"/>
<line x1="517.9706221408488" y1="176.96329535032754" x2="517.9706221408488" y2="201.1551520888819" class="err"/>
<line x1="514.9706221408488" y1="176.96329535032754" x2="520.9706221408488" y2="176.96329535032754" class="err"/>
<line x1="514.9706221408488" y1="201.1551520888819" x2="520.9706221408488" y2="201.1551520888819" class="err"/>
<circle cx="517.9706221408488" cy="189.05922371960474" r="2.5" class="obs"/>
<line x1="527.3033434354498" y1="176.96329535032754" x2="527.3033434354498" y2="203.35441179238686" class="err"/>
<line x1="524.3033434354498" y1="176.96329535032754" x2="530.3033434354498" y2="176.96329535032754" class="err"/>
<line x1="524.3033434354498" y1="203.35441179238686" x2="530.3033434354498" y2="203.35441179238686" class="err"/>
<circle cx="527.3033434354498" cy="190.1588535713572" r="2.5" class="obs"/>
<line x1="534.180085441998" y1="173.66440579507014" x2="534.180085441998" y2="204.45404164413932" class="err"/>
<line x1="531.180085441998" y1="173.66440579507014" x2="537.180085441998" y2="173.66440579507014" class="err"/>
<line x1="531.180085441998" y1="204.45404164413932" x2="537.180085441998" y2="204.45404164413932" class="err"/>
<circle cx="534.180085441998" cy="189.05922371960474" r="2.5" class="obs"/>
<line x1="543.2672088077936" y1="173.66440579507014" x2="543.2672088077936" y2="208.8525610511492" class="err"/>
<line x1="540.2672088077936" y1="173.66440579507014" x2="546.2672088077936" y2="173.66440579507014" class="err"/>
<line x1="540.2672088077936" y1="208.8525610511492" x2="546.2672088077936" y2="208.8525610511492" class="err"/>
<circle cx="543.2672088077936" cy="191.25848342310968" r="2.5" class="obs"/>
<line x1="552.5999301023946" y1="174.7640356468226" x2="552.5999301023946" y2="214.35071030991156" class="err"/>
<line x1="549.5999301023946" y1="174.7640356468226" x2="555.5999301023946" y2="174.7640356468226" class="err"/>
<line x1="549.5999301023946" y1="214.35071030991156" x2="555.5999301023946" y2="214.35071030991156" class="err"/>
<circle cx="552.5999301023946" cy="194.5573729783671" r="2.5" class="obs"/>
<line x1="561.6870534681905" y1="171.4651460915652" x2="561.6870534681905" y2="213.2510804581591" class="err"/>
<line x1="558.6870534681905" y1="171.4651460915652" x2="564.6870534681905" y2="171.4651460915652" class="err"/>
<line x1="558.6870534681905" y1="213.2510804581591" x2="564.6870534681905" y2="213.2510804581591" class="err"/>
<circle cx="561.6870534681905" cy="192.35811327486215" r="2.5" class="obs"/>
<line x1="571.0197747627915" y1="172.56477594331767" x2="571.0197747627915" y2="218.74922971692143" class="err"/>
<line x1="568.0197747627915" y1="172.56477594331767" x2="574.0197747627915" y2="172.56477594331767" class="err"/>
<line x1="568.0197747627915" y1="218.74922971692143" x2="574.0197747627915" y2="218.74922971692143" class="err"/>
<circle cx="571.0197747627915" cy="195.65700283011958" r="2.5" class="obs"/>
<g class="legend">
<line x1="82" y1="69" x2="106" y2="69" class="fw"/>
<text x="112" y="73" class="lbl-l">framework fit</text>
<line x1="82" y1="87" x2="106" y2="87" class="nt"/>
<text x="112" y="91" class="lbl-l">Newtonian (no halo)</text>
<circle cx="94" cy="105" r="2.5" class="obs"/>
<text x="112" y="109" class="lbl">observed V±err</text>
</g>
<g class="legend">
<line x1="460" y1="69" x2="484" y2="69" class="rho"/>
<text x="490" y="73" class="lbl-r">ρ(r) raw</text>
<line x1="460" y1="87" x2="484" y2="87" class="sig"/>
<text x="490" y="91" class="lbl-r">Σ(r) smoothed</text>
<text x="460" y="113" class="lbl-r">ρ peak: 2145 M☉/pc²</text>
</g>
</svg>