<svg xmlns="http://www.w3.org/2000/svg" viewBox="0 0 890 420" width="890" height="420" font-family="sans-serif" font-size="12">
<style>
  .ax { stroke: #333; stroke-width: 1; fill: none; }
  .grid { stroke: #ddd; stroke-width: 0.5; fill: none; }
  .lbl { fill: #333; }
  .lbl-l { fill: #0066cc; }
  .lbl-r { fill: #b03030; }
  .lbl-s { fill: #cc7000; }
  .obs { fill: #222; }
  .err { stroke: #555; stroke-width: 0.8; fill: none; }
  .fw { stroke: #0066cc; stroke-width: 2.2; fill: none; }
  .nt { stroke: #cc6600; stroke-width: 1.6; fill: none; stroke-dasharray: 5,3; }
  .rho { stroke: #b03030; stroke-width: 2.0; fill: none; }
  .sig { stroke: #cc7000; stroke-width: 1.8; fill: none; }
  .title { fill: #111; font-size: 16px; font-weight: 600; }
  .subtitle { fill: #555; font-size: 11px; }
  .legend { font-size: 11px; }
  .preview-bg { fill: #000; }
  .preview-lbl { fill: #888; font-size: 10px; }
</style>
<text x="343.5" y="22" text-anchor="middle" class="title">NGC6946</text>
<text x="343.5" y="38" text-anchor="middle" class="subtitle">rMax=20.4 kpc, N=58, RMS=10.8 km/s (6.6%), amp=686</text>
<line x1="70" y1="365.0" x2="617" y2="365.0" class="grid"/>
<text x="64" y="369.0" text-anchor="end" class="lbl-l">0</text>
<line x1="70" y1="303.0" x2="617" y2="303.0" class="grid"/>
<text x="64" y="307.0" text-anchor="end" class="lbl-l">56</text>
<line x1="70" y1="241.00000000000003" x2="617" y2="241.00000000000003" class="grid"/>
<text x="64" y="245.00000000000003" text-anchor="end" class="lbl-l">113</text>
<line x1="70" y1="179.0" x2="617" y2="179.0" class="grid"/>
<text x="64" y="183.0" text-anchor="end" class="lbl-l">169</text>
<line x1="70" y1="117.00000000000003" x2="617" y2="117.00000000000003" class="grid"/>
<text x="64" y="121.00000000000003" text-anchor="end" class="lbl-l">226</text>
<line x1="70" y1="55.0" x2="617" y2="55.0" class="grid"/>
<text x="64" y="59.0" text-anchor="end" class="lbl-l">282</text>
<text x="623" y="369.0" text-anchor="start" class="lbl-r">0.0</text>
<text x="623" y="327.6666666666667" text-anchor="start" class="lbl-r">0.2</text>
<text x="623" y="286.33333333333337" text-anchor="start" class="lbl-r">0.4</text>
<text x="623" y="245.00000000000003" text-anchor="start" class="lbl-r">0.6</text>
<text x="623" y="203.66666666666666" text-anchor="start" class="lbl-r">0.8</text>
<text x="623" y="162.33333333333334" text-anchor="start" class="lbl-r">1.0</text>
<line x1="70.0" y1="55" x2="70.0" y2="365" class="grid"/>
<text x="70.0" y="381" text-anchor="middle" class="lbl">0.0</text>
<line x1="161.16666666666666" y1="55" x2="161.16666666666666" y2="365" class="grid"/>
<text x="161.16666666666666" y="381" text-anchor="middle" class="lbl">3.8</text>
<line x1="252.33333333333331" y1="55" x2="252.33333333333331" y2="365" class="grid"/>
<text x="252.33333333333331" y="381" text-anchor="middle" class="lbl">7.7</text>
<line x1="343.5" y1="55" x2="343.5" y2="365" class="grid"/>
<text x="343.5" y="381" text-anchor="middle" class="lbl">11.5</text>
<line x1="434.66666666666663" y1="55" x2="434.66666666666663" y2="365" class="grid"/>
<text x="434.66666666666663" y="381" text-anchor="middle" class="lbl">15.3</text>
<line x1="525.8333333333334" y1="55" x2="525.8333333333334" y2="365" class="grid"/>
<text x="525.8333333333334" y="381" text-anchor="middle" class="lbl">19.2</text>
<line x1="617.0" y1="55" x2="617.0" y2="365" class="grid"/>
<text x="617.0" y="381" text-anchor="middle" class="lbl">23.0</text>
<text x="343.5" y="397" text-anchor="middle" class="lbl">radius (kpc)</text>
<text x="16" y="210.0" text-anchor="middle" class="lbl-l" transform="rotate(-90, 16, 210.0)">velocity (km/s)</text>
<text x="661" y="210.0" text-anchor="middle" class="lbl-r" transform="rotate(-90, 661, 210.0)">mass profile (normalized to peak)</text>
<rect x="70" y="55" width="547" height="310" class="ax"/>
<path d="M 70.0,158.3 L 72.5,189.4 L 75.0,220.5 L 77.5,251.5 L 80.0,282.6 L 82.5,313.7 L 85.0,315.5 L 87.5,315.8 L 90.0,316.1 L 92.5,316.4 L 95.0,316.7 L 97.5,317.0 L 100.0,317.3 L 102.5,317.6 L 105.0,317.9 L 107.5,318.2 L 110.0,318.5 L 112.5,318.8 L 115.0,319.1 L 117.5,319.5 L 120.0,319.8 L 122.5,320.1 L 124.9,320.4 L 127.4,320.7 L 129.9,321.0 L 132.4,321.3 L 134.9,321.6 L 137.4,321.9 L 139.9,322.2 L 142.4,322.4 L 144.9,322.7 L 147.4,323.0 L 149.9,323.3 L 152.4,323.6 L 154.9,323.9 L 157.4,324.2 L 159.9,324.4 L 162.4,324.7 L 164.9,325.0 L 167.4,325.3 L 169.9,325.6 L 172.4,325.9 L 174.9,326.2 L 177.4,326.4 L 179.9,326.7 L 182.4,327.0 L 184.9,327.3 L 187.4,327.6 L 189.9,327.9 L 192.4,328.1 L 194.9,328.4 L 197.4,328.7 L 199.9,329.0 L 202.4,329.3 L 204.9,329.6 L 207.4,329.9 L 209.9,330.1 L 212.4,330.4 L 214.9,330.7 L 217.4,331.0 L 219.9,331.3 L 222.4,331.6 L 224.9,331.8 L 227.4,332.1 L 229.9,332.4 L 232.4,332.7 L 234.8,333.0 L 237.3,333.3 L 239.8,333.6 L 242.3,333.8 L 244.8,334.1 L 247.3,334.4 L 249.8,334.7 L 252.3,335.0 L 254.8,335.2 L 257.3,335.4 L 259.8,335.5 L 262.3,335.6 L 264.8,335.8 L 267.3,335.9 L 269.8,336.0 L 272.3,336.2 L 274.8,336.3 L 277.3,336.4 L 279.8,336.6 L 282.3,336.7 L 284.8,336.8 L 287.3,337.0 L 289.8,337.1 L 292.3,337.2 L 294.8,337.4 L 297.3,337.5 L 299.8,337.6 L 302.3,337.8 L 304.8,337.9 L 307.3,338.0 L 309.8,338.2 L 312.3,338.3 L 314.8,338.4 L 317.3,338.6 L 319.8,338.7 L 322.3,338.8 L 324.8,339.0 L 327.3,339.1 L 329.8,339.2 L 332.3,339.4 L 334.8,339.5 L 337.3,339.6 L 339.8,339.8 L 342.3,339.9 L 344.7,340.0 L 347.2,340.2 L 349.7,340.3 L 352.2,340.4 L 354.7,340.6 L 357.2,340.7 L 359.7,340.8 L 362.2,341.0 L 364.7,341.1 L 367.2,341.2 L 369.7,341.4 L 372.2,341.5 L 374.7,341.6 L 377.2,341.8 L 379.7,341.9 L 382.2,342.0 L 384.7,342.2 L 387.2,342.3 L 389.7,342.4 L 392.2,342.6 L 394.7,342.7 L 397.2,342.8 L 399.7,343.0 L 402.2,343.1 L 404.7,343.2 L 407.2,343.4 L 409.7,343.5 L 412.2,343.6 L 414.7,343.8 L 417.2,343.9 L 419.7,344.0 L 422.2,344.2 L 424.7,344.3 L 427.2,344.4 L 429.7,344.6 L 432.2,344.7 L 434.7,344.8 L 437.2,345.0 L 439.7,345.1 L 442.2,345.2 L 444.7,345.4 L 447.2,345.5 L 449.7,345.6 L 452.2,345.8 L 454.6,345.9 L 457.1,346.0 L 459.6,346.2 L 462.1,346.3 L 464.6,346.4 L 467.1,346.6 L 469.6,346.7 L 472.1,346.8 L 474.6,347.0 L 477.1,347.1 L 479.6,347.2 L 482.1,347.4 L 484.6,347.5 L 487.1,347.6 L 489.6,347.8 L 492.1,347.9 L 494.6,348.0 L 497.1,348.2 L 499.6,348.3 L 502.1,348.4 L 504.6,348.6 L 507.1,348.7 L 509.6,348.8 L 512.1,349.0 L 514.6,349.1 L 517.1,349.2 L 519.6,349.4 L 522.1,349.5 L 524.6,349.6 L 527.1,349.8 L 529.6,349.9 L 532.1,350.0 L 534.6,350.2 L 537.1,350.3 L 539.6,350.4 L 542.1,350.6 L 544.6,350.7 L 547.1,350.8 L 549.6,350.9 L 552.1,351.1 L 554.6,351.2 L 557.1,351.3 L 559.6,351.5 L 562.1,351.6 L 564.5,351.7 L 567.0,351.9 L 569.5,352.0 L 572.0,352.1 L 574.5,352.3 L 577.0,352.4 L 579.5,352.5 L 582.0,352.7 L 584.5,352.8 L 587.0,355.2 L 589.5,361.4 L 592.0,365.0 L 594.5,365.0 L 597.0,365.0 L 599.5,365.0 L 602.0,365.0 L 604.5,365.0 L 607.0,365.0 L 609.5,365.0 L 612.0,365.0 L 614.5,365.0 L 617.0,365.0" class="rho"/>
<path d="M 70.0,158.3 L 72.5,162.1 L 75.0,167.5 L 77.5,174.3 L 80.0,181.8 L 82.5,189.4 L 85.0,196.5 L 87.5,202.5 L 90.0,207.6 L 92.5,211.9 L 95.0,215.6 L 97.5,218.8 L 100.0,221.6 L 102.5,224.0 L 105.0,226.3 L 107.5,228.4 L 110.0,230.3 L 112.5,232.2 L 115.0,233.9 L 117.5,235.6 L 120.0,237.2 L 122.5,238.8 L 124.9,240.3 L 127.4,241.8 L 129.9,243.3 L 132.4,244.7 L 134.9,246.1 L 137.4,247.5 L 139.9,248.9 L 142.4,250.2 L 144.9,251.6 L 147.4,252.9 L 149.9,254.2 L 152.4,255.5 L 154.9,256.8 L 157.4,258.1 L 159.9,259.4 L 162.4,260.6 L 164.9,261.9 L 167.4,263.2 L 169.9,264.4 L 172.4,265.6 L 174.9,266.9 L 177.4,268.1 L 179.9,269.3 L 182.4,270.5 L 184.9,271.7 L 187.4,272.9 L 189.9,274.1 L 192.4,275.2 L 194.9,276.4 L 197.4,277.5 L 199.9,278.7 L 202.4,279.8 L 204.9,280.9 L 207.4,282.1 L 209.9,283.2 L 212.4,284.3 L 214.9,285.3 L 217.4,286.4 L 219.9,287.5 L 222.4,288.5 L 224.9,289.6 L 227.4,290.6 L 229.9,291.6 L 232.4,292.6 L 234.8,293.6 L 237.3,294.5 L 239.8,295.5 L 242.3,296.4 L 244.8,297.4 L 247.3,298.3 L 249.8,299.1 L 252.3,300.0 L 254.8,300.8 L 257.3,301.7 L 259.8,302.5 L 262.3,303.3 L 264.8,304.0 L 267.3,304.8 L 269.8,305.5 L 272.3,306.2 L 274.8,306.9 L 277.3,307.6 L 279.8,308.3 L 282.3,309.0 L 284.8,309.7 L 287.3,310.3 L 289.8,311.0 L 292.3,311.6 L 294.8,312.2 L 297.3,312.8 L 299.8,313.5 L 302.3,314.1 L 304.8,314.7 L 307.3,315.3 L 309.8,315.8 L 312.3,316.4 L 314.8,317.0 L 317.3,317.6 L 319.8,318.1 L 322.3,318.7 L 324.8,319.2 L 327.3,319.8 L 329.8,320.3 L 332.3,320.8 L 334.8,321.3 L 337.3,321.9 L 339.8,322.4 L 342.3,322.9 L 344.7,323.4 L 347.2,323.9 L 349.7,324.4 L 352.2,324.9 L 354.7,325.4 L 357.2,325.9 L 359.7,326.3 L 362.2,326.8 L 364.7,327.3 L 367.2,327.8 L 369.7,328.2 L 372.2,328.7 L 374.7,329.1 L 377.2,329.6 L 379.7,330.0 L 382.2,330.5 L 384.7,330.9 L 387.2,331.3 L 389.7,331.8 L 392.2,332.2 L 394.7,332.6 L 397.2,333.0 L 399.7,333.4 L 402.2,333.8 L 404.7,334.2 L 407.2,334.6 L 409.7,335.0 L 412.2,335.4 L 414.7,335.8 L 417.2,336.2 L 419.7,336.6 L 422.2,337.0 L 424.7,337.4 L 427.2,337.7 L 429.7,338.1 L 432.2,338.5 L 434.7,338.8 L 437.2,339.2 L 439.7,339.5 L 442.2,339.9 L 444.7,340.2 L 447.2,340.6 L 449.7,340.9 L 452.2,341.3 L 454.6,341.6 L 457.1,341.9 L 459.6,342.3 L 462.1,342.6 L 464.6,342.9 L 467.1,343.2 L 469.6,343.5 L 472.1,343.8 L 474.6,344.1 L 477.1,344.4 L 479.6,344.8 L 482.1,345.1 L 484.6,345.3 L 487.1,345.6 L 489.6,345.9 L 492.1,346.2 L 494.6,346.5 L 497.1,346.8 L 499.6,347.1 L 502.1,347.3 L 504.6,347.6 L 507.1,347.9 L 509.6,348.1 L 512.1,348.4 L 514.6,348.7 L 517.1,348.9 L 519.6,349.2 L 522.1,349.4 L 524.6,349.7 L 527.1,349.9 L 529.6,350.2 L 532.1,350.4 L 534.6,350.6 L 537.1,350.9 L 539.6,351.1 L 542.1,351.4 L 544.6,351.6 L 547.1,351.8 L 549.6,352.0 L 552.1,352.3 L 554.6,352.5 L 557.1,352.7 L 559.6,353.0 L 562.1,353.2 L 564.5,353.4 L 567.0,353.6 L 569.5,353.9 L 572.0,354.1 L 574.5,354.3 L 577.0,354.6 L 579.5,354.8 L 582.0,355.0 L 584.5,355.3 L 587.0,355.5 L 589.5,355.7 L 592.0,356.0 L 594.5,356.2 L 597.0,356.4 L 599.5,356.6 L 602.0,356.8 L 604.5,356.9 L 607.0,357.1 L 609.5,357.2 L 612.0,357.4 L 614.5,357.5 L 617.0,357.7" class="sig"/>
<path d="M 75.5,285.7 L 80.9,269.9 L 86.4,267.9 L 91.9,262.9 L 97.3,256.7 L 102.8,250.2 L 108.3,243.7 L 113.8,237.5 L 119.2,231.5 L 124.7,225.8 L 130.2,220.4 L 135.6,215.2 L 141.1,210.3 L 146.6,205.6 L 152.1,201.1 L 157.5,196.8 L 163.0,192.7 L 168.5,188.7 L 173.9,184.9 L 179.4,181.3 L 184.9,177.8 L 190.3,174.5 L 195.8,171.3 L 201.3,168.2 L 206.8,165.3 L 212.2,162.4 L 217.7,159.7 L 223.2,157.1 L 228.6,154.6 L 234.1,152.2 L 239.6,150.0 L 245.0,147.8 L 250.5,145.7 L 256.0,143.7 L 261.5,141.7 L 266.9,139.8 L 272.4,137.9 L 277.9,136.0 L 283.3,134.2 L 288.8,132.4 L 294.3,130.6 L 299.7,128.9 L 305.2,127.2 L 310.7,125.5 L 316.1,123.9 L 321.6,122.3 L 327.1,120.7 L 332.6,119.2 L 338.0,117.7 L 343.5,116.3 L 349.0,114.9 L 354.4,113.5 L 359.9,112.1 L 365.4,110.8 L 370.9,109.5 L 376.3,108.2 L 381.8,107.0 L 387.3,105.8 L 392.7,104.6 L 398.2,103.5 L 403.7,102.4 L 409.1,101.3 L 414.6,100.3 L 420.1,99.3 L 425.5,98.3 L 431.0,97.3 L 436.5,96.4 L 442.0,95.5 L 447.4,94.6 L 452.9,93.8 L 458.4,93.0 L 463.8,92.2 L 469.3,91.4 L 474.8,90.7 L 480.2,90.0 L 485.7,89.3 L 491.2,88.7 L 496.7,88.1 L 502.1,87.5 L 507.6,86.9 L 513.1,86.4 L 518.5,85.9 L 524.0,85.4 L 529.5,85.0 L 535.0,84.5 L 540.4,84.1 L 545.9,83.7 L 551.4,83.4 L 556.8,83.1 L 562.3,82.8 L 567.8,82.5 L 573.2,82.3 L 578.7,82.1 L 584.2,81.9 L 589.6,82.1 L 595.1,83.5 L 600.6,84.9 L 606.1,86.4 L 611.5,87.9 L 617.0,89.2" class="nt"/>
<path d="M 74.6,282.1 L 79.1,237.5 L 83.7,212.6 L 88.2,206.9 L 92.8,211.9 L 97.3,219.0 L 101.9,223.2 L 106.5,225.4 L 111.0,225.4 L 115.6,224.3 L 120.1,222.3 L 124.7,219.8 L 129.3,216.8 L 133.8,213.7 L 138.4,210.4 L 142.9,207.1 L 147.5,203.7 L 152.1,200.3 L 156.6,197.0 L 161.2,193.7 L 165.7,190.5 L 170.3,187.5 L 174.8,184.5 L 179.4,181.7 L 184.0,179.1 L 188.5,176.6 L 193.1,174.3 L 197.6,172.1 L 202.2,170.2 L 206.8,168.4 L 211.3,166.9 L 215.9,165.6 L 220.4,164.5 L 225.0,163.7 L 229.5,163.1 L 234.1,162.9 L 238.7,163.1 L 243.2,163.7 L 247.8,164.8 L 252.3,166.4 L 256.9,168.2 L 261.4,169.9 L 266.0,171.5 L 270.6,172.7 L 275.1,173.7 L 279.7,174.5 L 284.2,175.1 L 288.8,175.6 L 293.4,176.0 L 297.9,176.3 L 302.5,176.6 L 307.0,176.7 L 311.6,176.9 L 316.1,177.0 L 320.7,177.1 L 325.3,177.2 L 329.8,177.2 L 334.4,177.3 L 338.9,177.4 L 343.5,177.4 L 348.1,177.5 L 352.6,177.6 L 357.2,177.7 L 361.7,177.8 L 366.3,177.9 L 370.9,178.1 L 375.4,178.2 L 380.0,178.4 L 384.5,178.6 L 389.1,178.8 L 393.6,179.1 L 398.2,179.3 L 402.8,179.6 L 407.3,180.0 L 411.9,180.3 L 416.4,180.7 L 421.0,181.1 L 425.6,181.5 L 430.1,181.9 L 434.7,182.4 L 439.2,182.9 L 443.8,183.4 L 448.3,184.0 L 452.9,184.6 L 457.5,185.2 L 462.0,185.8 L 466.6,186.4 L 471.1,187.1 L 475.7,187.8 L 480.2,188.5 L 484.8,189.2 L 489.4,189.9 L 493.9,190.7 L 498.5,191.4 L 503.0,192.2 L 507.6,192.9 L 512.2,193.7 L 516.7,194.4 L 521.3,195.1 L 525.8,195.8 L 530.4,196.4 L 535.0,197.0 L 539.5,197.4 L 544.1,197.7 L 548.6,197.9 L 553.2,197.7 L 557.7,197.2 L 562.3,196.2 L 566.9,194.8 L 571.4,192.9 L 576.0,191.1 L 580.5,189.9 L 585.1,190.3 L 589.6,193.0 L 594.2,198.1 L 598.8,204.8 L 603.3,212.2 L 607.9,219.4 L 612.4,225.9 L 617.0,231.7" class="fw"/>
<line x1="74.51769783021837" y1="187.95959386785228" x2="74.51769783021837" y2="205.5536714958918" class="err"/>
<line x1="71.51769783021837" y1="187.95959386785228" x2="77.51769783021837" y2="187.95959386785228" class="err"/>
<line x1="71.51769783021837" y1="205.5536714958918" x2="77.51769783021837" y2="205.5536714958918" class="err"/>
<circle cx="74.51769783021837" cy="196.75663268187205" r="2.5" class="obs"/>
<line x1="83.31531992064362" y1="212.15145060640663" x2="83.31531992064362" y2="231.9447879379511" class="err"/>
<line x1="80.31531992064362" y1="212.15145060640663" x2="86.31531992064362" y2="212.15145060640663" class="err"/>
<line x1="80.31531992064362" y1="231.9447879379511" x2="86.31531992064362" y2="231.9447879379511" class="err"/>
<circle cx="83.31531992064362" cy="222.04811927217887" r="2.5" class="obs"/>
<line x1="92.35071558108035" y1="220.9484894204264" x2="92.35071558108035" y2="227.5462685309412" class="err"/>
<line x1="89.35071558108035" y1="220.9484894204264" x2="95.35071558108035" y2="220.9484894204264" class="err"/>
<line x1="89.35071558108035" y1="227.5462685309412" x2="95.35071558108035" y2="227.5462685309412" class="err"/>
<circle cx="92.35071558108035" cy="224.24737897568377" r="2.5" class="obs"/>
<line x1="99.00837554140216" y1="214.35071030991156" x2="99.00837554140216" y2="220.9484894204264" class="err"/>
<line x1="96.00837554140216" y1="214.35071030991156" x2="102.00837554140216" y2="214.35071030991156" class="err"/>
<line x1="96.00837554140216" y1="220.9484894204264" x2="102.00837554140216" y2="220.9484894204264" class="err"/>
<circle cx="99.00837554140216" cy="217.64959986516897" r="2.5" class="obs"/>
<line x1="107.80599763182741" y1="218.74922971692143" x2="107.80599763182741" y2="227.5462685309412" class="err"/>
<line x1="104.80599763182741" y1="218.74922971692143" x2="110.80599763182741" y2="218.74922971692143" class="err"/>
<line x1="104.80599763182741" y1="227.5462685309412" x2="110.80599763182741" y2="227.5462685309412" class="err"/>
<circle cx="107.80599763182741" cy="223.14774912393133" r="2.5" class="obs"/>
<line x1="116.60361972225263" y1="213.2510804581591" x2="116.60361972225263" y2="228.64589838269364" class="err"/>
<line x1="113.60361972225263" y1="213.2510804581591" x2="119.60361972225263" y2="213.2510804581591" class="err"/>
<line x1="113.60361972225263" y1="228.64589838269364" x2="119.60361972225263" y2="228.64589838269364" class="err"/>
<circle cx="116.60361972225263" cy="220.9484894204264" r="2.5" class="obs"/>
<line x1="125.63901538268938" y1="204.45404164413932" x2="125.63901538268938" y2="222.04811927217887" class="err"/>
<line x1="122.63901538268938" y1="204.45404164413932" x2="128.63901538268937" y2="204.45404164413932" class="err"/>
<line x1="122.63901538268938" y1="222.04811927217887" x2="128.63901538268937" y2="222.04811927217887" class="err"/>
<circle cx="125.63901538268938" cy="213.2510804581591" r="2.5" class="obs"/>
<line x1="134.43663747311462" y1="206.65330134764426" x2="134.43663747311462" y2="217.64959986516897" class="err"/>
<line x1="131.43663747311462" y1="206.65330134764426" x2="137.43663747311462" y2="206.65330134764426" class="err"/>
<line x1="131.43663747311462" y1="217.64959986516897" x2="137.43663747311462" y2="217.64959986516897" class="err"/>
<circle cx="134.43663747311462" cy="212.15145060640663" r="2.5" class="obs"/>
<line x1="141.09429743343645" y1="204.45404164413932" x2="141.09429743343645" y2="211.05182075465413" class="err"/>
<line x1="138.09429743343645" y1="204.45404164413932" x2="144.09429743343645" y2="204.45404164413932" class="err"/>
<line x1="138.09429743343645" y1="211.05182075465413" x2="144.09429743343645" y2="211.05182075465413" class="err"/>
<circle cx="141.09429743343645" cy="207.75293119939673" r="2.5" class="obs"/>
<line x1="150.1296930938732" y1="202.25478194063436" x2="150.1296930938732" y2="206.65330134764426" class="err"/>
<line x1="147.1296930938732" y1="202.25478194063436" x2="153.1296930938732" y2="202.25478194063436" class="err"/>
<line x1="147.1296930938732" y1="206.65330134764426" x2="153.1296930938732" y2="206.65330134764426" class="err"/>
<circle cx="150.1296930938732" cy="204.45404164413932" r="2.5" class="obs"/>
<line x1="158.9273151842984" y1="193.45774312661464" x2="158.9273151842984" y2="197.85626253362452" class="err"/>
<line x1="155.9273151842984" y1="193.45774312661464" x2="161.9273151842984" y2="193.45774312661464" class="err"/>
<line x1="155.9273151842984" y1="197.85626253362452" x2="161.9273151842984" y2="197.85626253362452" class="err"/>
<circle cx="158.9273151842984" cy="195.65700283011958" r="2.5" class="obs"/>
<line x1="167.96271084473517" y1="186.8599640160998" x2="167.96271084473517" y2="189.05922371960474" class="err"/>
<line x1="164.96271084473517" y1="186.8599640160998" x2="170.96271084473517" y2="186.8599640160998" class="err"/>
<line x1="164.96271084473517" y1="189.05922371960474" x2="170.96271084473517" y2="189.05922371960474" class="err"/>
<circle cx="167.96271084473517" cy="187.95959386785228" r="2.5" class="obs"/>
<line x1="174.62037080505695" y1="179.1625550538325" x2="174.62037080505695" y2="183.56107446084238" class="err"/>
<line x1="171.62037080505695" y1="179.1625550538325" x2="177.62037080505695" y2="179.1625550538325" class="err"/>
<line x1="171.62037080505695" y1="183.56107446084238" x2="177.62037080505695" y2="183.56107446084238" class="err"/>
<circle cx="174.62037080505695" cy="181.36181475733744" r="2.5" class="obs"/>
<line x1="183.4179928954822" y1="172.56477594331767" x2="183.4179928954822" y2="176.96329535032754" class="err"/>
<line x1="180.4179928954822" y1="172.56477594331767" x2="186.4179928954822" y2="172.56477594331767" class="err"/>
<line x1="180.4179928954822" y1="176.96329535032754" x2="186.4179928954822" y2="176.96329535032754" class="err"/>
<circle cx="183.4179928954822" cy="174.7640356468226" r="2.5" class="obs"/>
<line x1="192.45338855591893" y1="167.06662668455533" x2="192.45338855591893" y2="175.86366549857507" class="err"/>
<line x1="189.45338855591893" y1="167.06662668455533" x2="195.45338855591893" y2="167.06662668455533" class="err"/>
<line x1="189.45338855591893" y1="175.86366549857507" x2="195.45338855591893" y2="175.86366549857507" class="err"/>
<circle cx="192.45338855591893" cy="171.4651460915652" r="2.5" class="obs"/>
<line x1="201.25101064634416" y1="163.76773712929793" x2="201.25101064634416" y2="174.7640356468226" class="err"/>
<line x1="198.25101064634416" y1="163.76773712929793" x2="204.25101064634416" y2="163.76773712929793" class="err"/>
<line x1="198.25101064634416" y1="174.7640356468226" x2="204.25101064634416" y2="174.7640356468226" class="err"/>
<circle cx="201.25101064634416" cy="169.2658863880603" r="2.5" class="obs"/>
<line x1="210.0486327367694" y1="163.76773712929793" x2="210.0486327367694" y2="170.36551623981273" class="err"/>
<line x1="207.0486327367694" y1="163.76773712929793" x2="213.0486327367694" y2="163.76773712929793" class="err"/>
<line x1="207.0486327367694" y1="170.36551623981273" x2="213.0486327367694" y2="170.36551623981273" class="err"/>
<circle cx="210.0486327367694" cy="167.06662668455533" r="2.5" class="obs"/>
<line x1="216.70629269709121" y1="163.76773712929793" x2="216.70629269709121" y2="172.56477594331767" class="err"/>
<line x1="213.70629269709121" y1="163.76773712929793" x2="219.70629269709121" y2="163.76773712929793" class="err"/>
<line x1="213.70629269709121" y1="172.56477594331767" x2="219.70629269709121" y2="172.56477594331767" class="err"/>
<circle cx="216.70629269709121" cy="168.1662565363078" r="2.5" class="obs"/>
<line x1="225.74168835752795" y1="161.568477425793" x2="225.74168835752795" y2="172.56477594331767" class="err"/>
<line x1="222.74168835752795" y1="161.568477425793" x2="228.74168835752795" y2="161.568477425793" class="err"/>
<line x1="222.74168835752795" y1="172.56477594331767" x2="228.74168835752795" y2="172.56477594331767" class="err"/>
<circle cx="225.74168835752795" cy="167.06662668455533" r="2.5" class="obs"/>
<line x1="234.5393104479532" y1="161.568477425793" x2="234.5393104479532" y2="170.36551623981273" class="err"/>
<line x1="231.5393104479532" y1="161.568477425793" x2="237.5393104479532" y2="161.568477425793" class="err"/>
<line x1="231.5393104479532" y1="170.36551623981273" x2="237.5393104479532" y2="170.36551623981273" class="err"/>
<circle cx="234.5393104479532" cy="165.96699683280286" r="2.5" class="obs"/>
<line x1="243.57470610838996" y1="163.76773712929793" x2="243.57470610838996" y2="172.56477594331767" class="err"/>
<line x1="240.57470610838996" y1="163.76773712929793" x2="246.57470610838996" y2="163.76773712929793" class="err"/>
<line x1="240.57470610838996" y1="172.56477594331767" x2="246.57470610838996" y2="172.56477594331767" class="err"/>
<circle cx="243.57470610838996" cy="168.1662565363078" r="2.5" class="obs"/>
<line x1="250.23236606871177" y1="165.96699683280286" x2="250.23236606871177" y2="170.36551623981273" class="err"/>
<line x1="247.23236606871177" y1="165.96699683280286" x2="253.23236606871177" y2="165.96699683280286" class="err"/>
<line x1="247.23236606871177" y1="170.36551623981273" x2="253.23236606871177" y2="170.36551623981273" class="err"/>
<circle cx="250.23236606871177" cy="168.1662565363078" r="2.5" class="obs"/>
<line x1="259.029988159137" y1="167.06662668455533" x2="259.029988159137" y2="169.2658863880603" class="err"/>
<line x1="256.029988159137" y1="167.06662668455533" x2="262.029988159137" y2="167.06662668455533" class="err"/>
<line x1="256.029988159137" y1="169.2658863880603" x2="262.029988159137" y2="169.2658863880603" class="err"/>
<circle cx="259.029988159137" cy="168.1662565363078" r="2.5" class="obs"/>
<line x1="268.06538381957375" y1="168.1662565363078" x2="268.06538381957375" y2="170.36551623981273" class="err"/>
<line x1="265.06538381957375" y1="168.1662565363078" x2="271.06538381957375" y2="168.1662565363078" class="err"/>
<line x1="265.06538381957375" y1="170.36551623981273" x2="271.06538381957375" y2="170.36551623981273" class="err"/>
<circle cx="268.06538381957375" cy="169.2658863880603" r="2.5" class="obs"/>
<line x1="276.86300590999895" y1="168.1662565363078" x2="276.86300590999895" y2="172.56477594331767" class="err"/>
<line x1="273.86300590999895" y1="168.1662565363078" x2="279.86300590999895" y2="168.1662565363078" class="err"/>
<line x1="273.86300590999895" y1="172.56477594331767" x2="279.86300590999895" y2="172.56477594331767" class="err"/>
<circle cx="276.86300590999895" cy="170.36551623981273" r="2.5" class="obs"/>
<line x1="285.8984015704357" y1="169.2658863880603" x2="285.8984015704357" y2="173.66440579507014" class="err"/>
<line x1="282.8984015704357" y1="169.2658863880603" x2="288.8984015704357" y2="169.2658863880603" class="err"/>
<line x1="282.8984015704357" y1="173.66440579507014" x2="288.8984015704357" y2="173.66440579507014" class="err"/>
<circle cx="285.8984015704357" cy="171.4651460915652" r="2.5" class="obs"/>
<line x1="292.5560615307575" y1="171.4651460915652" x2="292.5560615307575" y2="178.06292520208" class="err"/>
<line x1="289.5560615307575" y1="171.4651460915652" x2="295.5560615307575" y2="171.4651460915652" class="err"/>
<line x1="289.5560615307575" y1="178.06292520208" x2="295.5560615307575" y2="178.06292520208" class="err"/>
<circle cx="292.5560615307575" cy="174.7640356468226" r="2.5" class="obs"/>
<line x1="301.35368362118277" y1="173.66440579507014" x2="301.35368362118277" y2="178.06292520208" class="err"/>
<line x1="298.35368362118277" y1="173.66440579507014" x2="304.35368362118277" y2="173.66440579507014" class="err"/>
<line x1="298.35368362118277" y1="178.06292520208" x2="304.35368362118277" y2="178.06292520208" class="err"/>
<circle cx="301.35368362118277" cy="175.86366549857507" r="2.5" class="obs"/>
<line x1="310.15130571160796" y1="173.66440579507014" x2="310.15130571160796" y2="178.06292520208" class="err"/>
<line x1="307.15130571160796" y1="173.66440579507014" x2="313.15130571160796" y2="173.66440579507014" class="err"/>
<line x1="307.15130571160796" y1="178.06292520208" x2="313.15130571160796" y2="178.06292520208" class="err"/>
<circle cx="310.15130571160796" cy="175.86366549857507" r="2.5" class="obs"/>
<line x1="319.18670137204475" y1="175.86366549857507" x2="319.18670137204475" y2="180.26218490558497" class="err"/>
<line x1="316.18670137204475" y1="175.86366549857507" x2="322.18670137204475" y2="175.86366549857507" class="err"/>
<line x1="316.18670137204475" y1="180.26218490558497" x2="322.18670137204475" y2="180.26218490558497" class="err"/>
<circle cx="319.18670137204475" cy="178.06292520208" r="2.5" class="obs"/>
<line x1="325.8443613323666" y1="174.7640356468226" x2="325.8443613323666" y2="179.1625550538325" class="err"/>
<line x1="322.8443613323666" y1="174.7640356468226" x2="328.8443613323666" y2="174.7640356468226" class="err"/>
<line x1="322.8443613323666" y1="179.1625550538325" x2="328.8443613323666" y2="179.1625550538325" class="err"/>
<circle cx="325.8443613323666" cy="176.96329535032754" r="2.5" class="obs"/>
<line x1="334.64198342279184" y1="171.4651460915652" x2="334.64198342279184" y2="175.86366549857507" class="err"/>
<line x1="331.64198342279184" y1="171.4651460915652" x2="337.64198342279184" y2="171.4651460915652" class="err"/>
<line x1="331.64198342279184" y1="175.86366549857507" x2="337.64198342279184" y2="175.86366549857507" class="err"/>
<circle cx="334.64198342279184" cy="173.66440579507014" r="2.5" class="obs"/>
<line x1="343.6773790832285" y1="171.4651460915652" x2="343.6773790832285" y2="175.86366549857507" class="err"/>
<line x1="340.6773790832285" y1="171.4651460915652" x2="346.6773790832285" y2="171.4651460915652" class="err"/>
<line x1="340.6773790832285" y1="175.86366549857507" x2="346.6773790832285" y2="175.86366549857507" class="err"/>
<circle cx="343.6773790832285" cy="173.66440579507014" r="2.5" class="obs"/>
<line x1="352.47500117365377" y1="170.36551623981273" x2="352.47500117365377" y2="174.7640356468226" class="err"/>
<line x1="349.47500117365377" y1="170.36551623981273" x2="355.47500117365377" y2="170.36551623981273" class="err"/>
<line x1="349.47500117365377" y1="174.7640356468226" x2="355.47500117365377" y2="174.7640356468226" class="err"/>
<circle cx="352.47500117365377" cy="172.56477594331767" r="2.5" class="obs"/>
<line x1="361.51039683409056" y1="171.4651460915652" x2="361.51039683409056" y2="175.86366549857507" class="err"/>
<line x1="358.51039683409056" y1="171.4651460915652" x2="364.51039683409056" y2="171.4651460915652" class="err"/>
<line x1="358.51039683409056" y1="175.86366549857507" x2="364.51039683409056" y2="175.86366549857507" class="err"/>
<circle cx="361.51039683409056" cy="173.66440579507014" r="2.5" class="obs"/>
<line x1="368.1680567944123" y1="168.1662565363078" x2="368.1680567944123" y2="181.36181475733744" class="err"/>
<line x1="365.1680567944123" y1="168.1662565363078" x2="371.1680567944123" y2="168.1662565363078" class="err"/>
<line x1="365.1680567944123" y1="181.36181475733744" x2="371.1680567944123" y2="181.36181475733744" class="err"/>
<circle cx="368.1680567944123" cy="174.7640356468226" r="2.5" class="obs"/>
<line x1="376.96567888483753" y1="168.1662565363078" x2="376.96567888483753" y2="181.36181475733744" class="err"/>
<line x1="373.96567888483753" y1="168.1662565363078" x2="379.96567888483753" y2="168.1662565363078" class="err"/>
<line x1="373.96567888483753" y1="181.36181475733744" x2="379.96567888483753" y2="181.36181475733744" class="err"/>
<circle cx="376.96567888483753" cy="174.7640356468226" r="2.5" class="obs"/>
<line x1="386.0010745452743" y1="165.96699683280286" x2="386.0010745452743" y2="183.56107446084238" class="err"/>
<line x1="383.0010745452743" y1="165.96699683280286" x2="389.0010745452743" y2="165.96699683280286" class="err"/>
<line x1="383.0010745452743" y1="183.56107446084238" x2="389.0010745452743" y2="183.56107446084238" class="err"/>
<circle cx="386.0010745452743" cy="174.7640356468226" r="2.5" class="obs"/>
<line x1="394.7986966356995" y1="162.66810727754546" x2="394.7986966356995" y2="182.4614446090899" class="err"/>
<line x1="391.7986966356995" y1="162.66810727754546" x2="397.7986966356995" y2="162.66810727754546" class="err"/>
<line x1="391.7986966356995" y1="182.4614446090899" x2="397.7986966356995" y2="182.4614446090899" class="err"/>
<circle cx="394.7986966356995" cy="172.56477594331767" r="2.5" class="obs"/>
<line x1="403.59631872612476" y1="163.76773712929793" x2="403.59631872612476" y2="183.56107446084238" class="err"/>
<line x1="400.59631872612476" y1="163.76773712929793" x2="406.59631872612476" y2="163.76773712929793" class="err"/>
<line x1="400.59631872612476" y1="183.56107446084238" x2="406.59631872612476" y2="183.56107446084238" class="err"/>
<circle cx="403.59631872612476" cy="173.66440579507014" r="2.5" class="obs"/>
<line x1="410.2539786864466" y1="167.06662668455533" x2="410.2539786864466" y2="186.8599640160998" class="err"/>
<line x1="407.2539786864466" y1="167.06662668455533" x2="413.2539786864466" y2="167.06662668455533" class="err"/>
<line x1="407.2539786864466" y1="186.8599640160998" x2="413.2539786864466" y2="186.8599640160998" class="err"/>
<circle cx="410.2539786864466" cy="176.96329535032754" r="2.5" class="obs"/>
<line x1="419.2893743468833" y1="172.56477594331767" x2="419.2893743468833" y2="190.1588535713572" class="err"/>
<line x1="416.2893743468833" y1="172.56477594331767" x2="422.2893743468833" y2="172.56477594331767" class="err"/>
<line x1="416.2893743468833" y1="190.1588535713572" x2="422.2893743468833" y2="190.1588535713572" class="err"/>
<circle cx="419.2893743468833" cy="181.36181475733744" r="2.5" class="obs"/>
<line x1="428.0869964373086" y1="175.86366549857507" x2="428.0869964373086" y2="191.25848342310968" class="err"/>
<line x1="425.0869964373086" y1="175.86366549857507" x2="431.0869964373086" y2="175.86366549857507" class="err"/>
<line x1="425.0869964373086" y1="191.25848342310968" x2="431.0869964373086" y2="191.25848342310968" class="err"/>
<circle cx="428.0869964373086" cy="183.56107446084238" r="2.5" class="obs"/>
<line x1="437.1223920977453" y1="176.96329535032754" x2="437.1223920977453" y2="194.5573729783671" class="err"/>
<line x1="434.1223920977453" y1="176.96329535032754" x2="440.1223920977453" y2="176.96329535032754" class="err"/>
<line x1="434.1223920977453" y1="194.5573729783671" x2="440.1223920977453" y2="194.5573729783671" class="err"/>
<circle cx="437.1223920977453" cy="185.76033416434734" r="2.5" class="obs"/>
<line x1="443.78005205806716" y1="178.06292520208" x2="443.78005205806716" y2="195.65700283011958" class="err"/>
<line x1="440.78005205806716" y1="178.06292520208" x2="446.78005205806716" y2="178.06292520208" class="err"/>
<line x1="440.78005205806716" y1="195.65700283011958" x2="446.78005205806716" y2="195.65700283011958" class="err"/>
<circle cx="443.78005205806716" cy="186.8599640160998" r="2.5" class="obs"/>
<line x1="452.57767414849235" y1="178.06292520208" x2="452.57767414849235" y2="197.85626253362452" class="err"/>
<line x1="449.57767414849235" y1="178.06292520208" x2="455.57767414849235" y2="178.06292520208" class="err"/>
<line x1="449.57767414849235" y1="197.85626253362452" x2="455.57767414849235" y2="197.85626253362452" class="err"/>
<circle cx="452.57767414849235" cy="187.95959386785228" r="2.5" class="obs"/>
<line x1="461.6130698089291" y1="179.1625550538325" x2="461.6130698089291" y2="201.1551520888819" class="err"/>
<line x1="458.6130698089291" y1="179.1625550538325" x2="464.6130698089291" y2="179.1625550538325" class="err"/>
<line x1="458.6130698089291" y1="201.1551520888819" x2="464.6130698089291" y2="201.1551520888819" class="err"/>
<circle cx="461.6130698089291" cy="190.1588535713572" r="2.5" class="obs"/>
<line x1="470.4106918993544" y1="180.26218490558497" x2="470.4106918993544" y2="202.25478194063436" class="err"/>
<line x1="467.4106918993544" y1="180.26218490558497" x2="473.4106918993544" y2="180.26218490558497" class="err"/>
<line x1="467.4106918993544" y1="202.25478194063436" x2="473.4106918993544" y2="202.25478194063436" class="err"/>
<circle cx="470.4106918993544" cy="191.25848342310968" r="2.5" class="obs"/>
<line x1="479.2083139897796" y1="181.36181475733744" x2="479.2083139897796" y2="203.35441179238686" class="err"/>
<line x1="476.2083139897796" y1="181.36181475733744" x2="482.2083139897796" y2="181.36181475733744" class="err"/>
<line x1="476.2083139897796" y1="203.35441179238686" x2="482.2083139897796" y2="203.35441179238686" class="err"/>
<circle cx="479.2083139897796" cy="192.35811327486215" r="2.5" class="obs"/>
<line x1="486.1037475201129" y1="181.36181475733744" x2="486.1037475201129" y2="203.35441179238686" class="err"/>
<line x1="483.1037475201129" y1="181.36181475733744" x2="489.1037475201129" y2="181.36181475733744" class="err"/>
<line x1="483.1037475201129" y1="203.35441179238686" x2="489.1037475201129" y2="203.35441179238686" class="err"/>
<circle cx="486.1037475201129" cy="192.35811327486215" r="2.5" class="obs"/>
<line x1="494.9013696105382" y1="182.4614446090899" x2="494.9013696105382" y2="202.25478194063436" class="err"/>
<line x1="491.9013696105382" y1="182.4614446090899" x2="497.9013696105382" y2="182.4614446090899" class="err"/>
<line x1="491.9013696105382" y1="202.25478194063436" x2="497.9013696105382" y2="202.25478194063436" class="err"/>
<circle cx="494.9013696105382" cy="192.35811327486215" r="2.5" class="obs"/>
<line x1="503.69899170096335" y1="176.96329535032754" x2="503.69899170096335" y2="201.1551520888819" class="err"/>
<line x1="500.69899170096335" y1="176.96329535032754" x2="506.69899170096335" y2="176.96329535032754" class="err"/>
<line x1="500.69899170096335" y1="201.1551520888819" x2="506.69899170096335" y2="201.1551520888819" class="err"/>
<circle cx="503.69899170096335" cy="189.05922371960474" r="2.5" class="obs"/>
<line x1="512.7343873614002" y1="176.96329535032754" x2="512.7343873614002" y2="203.35441179238686" class="err"/>
<line x1="509.7343873614002" y1="176.96329535032754" x2="515.7343873614002" y2="176.96329535032754" class="err"/>
<line x1="509.7343873614002" y1="203.35441179238686" x2="515.7343873614002" y2="203.35441179238686" class="err"/>
<circle cx="512.7343873614002" cy="190.1588535713572" r="2.5" class="obs"/>
<line x1="519.392047321722" y1="173.66440579507014" x2="519.392047321722" y2="204.45404164413932" class="err"/>
<line x1="516.392047321722" y1="173.66440579507014" x2="522.392047321722" y2="173.66440579507014" class="err"/>
<line x1="516.392047321722" y1="204.45404164413932" x2="522.392047321722" y2="204.45404164413932" class="err"/>
<circle cx="519.392047321722" cy="189.05922371960474" r="2.5" class="obs"/>
<line x1="528.1896694121472" y1="173.66440579507014" x2="528.1896694121472" y2="208.8525610511492" class="err"/>
<line x1="525.1896694121472" y1="173.66440579507014" x2="531.1896694121472" y2="173.66440579507014" class="err"/>
<line x1="525.1896694121472" y1="208.8525610511492" x2="531.1896694121472" y2="208.8525610511492" class="err"/>
<circle cx="528.1896694121472" cy="191.25848342310968" r="2.5" class="obs"/>
<line x1="537.2250650725839" y1="174.7640356468226" x2="537.2250650725839" y2="214.35071030991156" class="err"/>
<line x1="534.2250650725839" y1="174.7640356468226" x2="540.2250650725839" y2="174.7640356468226" class="err"/>
<line x1="534.2250650725839" y1="214.35071030991156" x2="540.2250650725839" y2="214.35071030991156" class="err"/>
<circle cx="537.2250650725839" cy="194.5573729783671" r="2.5" class="obs"/>
<line x1="546.0226871630091" y1="171.4651460915652" x2="546.0226871630091" y2="213.2510804581591" class="err"/>
<line x1="543.0226871630091" y1="171.4651460915652" x2="549.0226871630091" y2="171.4651460915652" class="err"/>
<line x1="543.0226871630091" y1="213.2510804581591" x2="549.0226871630091" y2="213.2510804581591" class="err"/>
<circle cx="546.0226871630091" cy="192.35811327486215" r="2.5" class="obs"/>
<line x1="555.0580828234458" y1="172.56477594331767" x2="555.0580828234458" y2="218.74922971692143" class="err"/>
<line x1="552.0580828234458" y1="172.56477594331767" x2="558.0580828234458" y2="172.56477594331767" class="err"/>
<line x1="552.0580828234458" y1="218.74922971692143" x2="558.0580828234458" y2="218.74922971692143" class="err"/>
<circle cx="555.0580828234458" cy="195.65700283011958" r="2.5" class="obs"/>
<g class="legend">
<line x1="82" y1="69" x2="106" y2="69" class="fw"/>
<text x="112" y="73" class="lbl-l">framework fit</text>
<line x1="82" y1="87" x2="106" y2="87" class="nt"/>
<text x="112" y="91" class="lbl-l">Newtonian (no halo)</text>
<circle cx="94" cy="105" r="2.5" class="obs"/>
<text x="112" y="109" class="lbl">observed V±err</text>
</g>
<g class="legend">
<line x1="472" y1="69" x2="496" y2="69" class="rho"/>
<text x="502" y="73" class="lbl-r">ρ(r) raw</text>
<line x1="472" y1="87" x2="496" y2="87" class="sig"/>
<text x="502" y="91" class="lbl-s">Σ(r) cumulative</text>
<text x="472" y="113" class="lbl-r">ρ peak: 2145 M☉/pc²</text>
</g>
<rect x="705" y="55" width="170" height="170" class="preview-bg"/>
<defs><radialGradient id="g_NGC6946" cx="0.5" cy="0.5" r="0.5">
  <stop offset="0.0000" stop-color="rgb(255,255,255)"/>
  <stop offset="0.0312" stop-color="rgb(176,176,176)"/>
  <stop offset="0.0625" stop-color="rgb(170,170,170)"/>
  <stop offset="0.0938" stop-color="rgb(165,165,165)"/>
  <stop offset="0.1250" stop-color="rgb(159,159,159)"/>
  <stop offset="0.1562" stop-color="rgb(154,154,154)"/>
  <stop offset="0.1875" stop-color="rgb(148,148,148)"/>
  <stop offset="0.2188" stop-color="rgb(143,143,143)"/>
  <stop offset="0.2500" stop-color="rgb(138,138,138)"/>
  <stop offset="0.2812" stop-color="rgb(133,133,133)"/>
  <stop offset="0.3125" stop-color="rgb(127,127,127)"/>
  <stop offset="0.3438" stop-color="rgb(122,122,122)"/>
  <stop offset="0.3750" stop-color="rgb(119,119,119)"/>
  <stop offset="0.4062" stop-color="rgb(116,116,116)"/>
  <stop offset="0.4375" stop-color="rgb(114,114,114)"/>
  <stop offset="0.4688" stop-color="rgb(111,111,111)"/>
  <stop offset="0.5000" stop-color="rgb(109,109,109)"/>
  <stop offset="0.5312" stop-color="rgb(106,106,106)"/>
  <stop offset="0.5625" stop-color="rgb(104,104,104)"/>
  <stop offset="0.5938" stop-color="rgb(102,102,102)"/>
  <stop offset="0.6250" stop-color="rgb(99,99,99)"/>
  <stop offset="0.6562" stop-color="rgb(97,97,97)"/>
  <stop offset="0.6875" stop-color="rgb(94,94,94)"/>
  <stop offset="0.7188" stop-color="rgb(92,92,92)"/>
  <stop offset="0.7500" stop-color="rgb(89,89,89)"/>
  <stop offset="0.7812" stop-color="rgb(87,87,87)"/>
  <stop offset="0.8125" stop-color="rgb(84,84,84)"/>
  <stop offset="0.8438" stop-color="rgb(82,82,82)"/>
  <stop offset="0.8750" stop-color="rgb(79,79,79)"/>
  <stop offset="0.9062" stop-color="rgb(77,77,77)"/>
  <stop offset="0.9375" stop-color="rgb(74,74,74)"/>
  <stop offset="0.9688" stop-color="rgb(72,72,72)"/>
  <stop offset="1.0000" stop-color="rgb(0,0,0)"/>
</radialGradient></defs>
<circle cx="790.0" cy="140.0" r="81.0" fill="url(#g_NGC6946)"/>
<text x="790.0" y="49" text-anchor="middle" class="preview-lbl">face-on luminance from ρ(r)</text>
<text x="790.0" y="239" text-anchor="middle" class="preview-lbl">edge at r = 21.9 kpc</text>
</svg>