<svg xmlns="http://www.w3.org/2000/svg" viewBox="0 0 960 450" width="960" height="450" font-family="sans-serif" font-size="12">
<style>
  .ax { stroke: #333; stroke-width: 1; fill: none; }
  .grid { stroke: #ddd; stroke-width: 0.5; fill: none; }
  .lbl { fill: #333; }
  .lbl-l { fill: #0066cc; }
  .lbl-r { fill: #b03030; }
  .obs { fill: #222; }
  .err { stroke: #555; stroke-width: 0.8; fill: none; }
  .fw { stroke: #0066cc; stroke-width: 2.2; fill: none; }
  .nt { stroke: #cc6600; stroke-width: 1.6; fill: none; stroke-dasharray: 5,3; }
  .mond { stroke: #7b2cbf; stroke-width: 1.8; fill: none; stroke-dasharray: 7,3; }
  .lbl-p { fill: #cc7000; }
  .lbl-m { fill: #7b2cbf; }
  .rho { stroke: #b03030; stroke-width: 2.0; fill: none; }
  .phot { stroke: #cc7000; stroke-width: 1.8; fill: none; }
  .mbar { stroke: #8e44ad; stroke-width: 1.8; fill: none; opacity: 0.9; }
  .mph { stroke: #c77dff; stroke-width: 1.6; fill: none; stroke-dasharray: 4,3; opacity: 0.95; }
  .title { fill: #111; font-size: 16px; font-weight: 600; }
  .subtitle { fill: #555; font-size: 11px; }
  .preview-bg { fill: #000; }
  .preview-lbl { fill: #888; font-size: 10px; }
  .legend { font-size: 11px; }
</style>
<text x="378.5" y="22" text-anchor="middle" class="title">NGC6946</text>
<text x="378.5" y="38" text-anchor="middle" class="subtitle">rMax=20.4 kpc, N=58, FW=10.8 km/s, 7.1%, 1.65σ, MOND=16.5 km/s, 10.4%, 5.06σ, amp=686</text>
<line x1="70" y1="395.0" x2="687" y2="395.0" class="grid"/>
<text x="64" y="399.0" text-anchor="end" class="lbl-l">0</text>
<line x1="70" y1="327.0" x2="687" y2="327.0" class="grid"/>
<text x="64" y="331.0" text-anchor="end" class="lbl-l">49</text>
<line x1="70" y1="259.0" x2="687" y2="259.0" class="grid"/>
<text x="64" y="263.0" text-anchor="end" class="lbl-l">97</text>
<line x1="70" y1="191.0" x2="687" y2="191.0" class="grid"/>
<text x="64" y="195.0" text-anchor="end" class="lbl-l">146</text>
<line x1="70" y1="123.0" x2="687" y2="123.0" class="grid"/>
<text x="64" y="127.0" text-anchor="end" class="lbl-l">195</text>
<line x1="70" y1="55.0" x2="687" y2="55.0" class="grid"/>
<text x="64" y="59.0" text-anchor="end" class="lbl-l">243</text>
<text x="693" y="399.0" text-anchor="start" class="lbl-r">0.0</text>
<text x="693" y="353.7" text-anchor="start" class="lbl-r">0.2</text>
<text x="693" y="308.3" text-anchor="start" class="lbl-r">0.4</text>
<text x="693" y="263.0" text-anchor="start" class="lbl-r">0.6</text>
<text x="693" y="217.7" text-anchor="start" class="lbl-r">0.8</text>
<text x="693" y="172.3" text-anchor="start" class="lbl-r">1.0</text>
<line x1="70.0" y1="55" x2="70.0" y2="395" class="grid"/>
<text x="70.0" y="411" text-anchor="middle" class="lbl">0.0</text>
<line x1="172.8" y1="55" x2="172.8" y2="395" class="grid"/>
<text x="172.8" y="411" text-anchor="middle" class="lbl">3.8</text>
<line x1="275.7" y1="55" x2="275.7" y2="395" class="grid"/>
<text x="275.7" y="411" text-anchor="middle" class="lbl">7.7</text>
<line x1="378.5" y1="55" x2="378.5" y2="395" class="grid"/>
<text x="378.5" y="411" text-anchor="middle" class="lbl">11.5</text>
<line x1="481.3" y1="55" x2="481.3" y2="395" class="grid"/>
<text x="481.3" y="411" text-anchor="middle" class="lbl">15.3</text>
<line x1="584.2" y1="55" x2="584.2" y2="395" class="grid"/>
<text x="584.2" y="411" text-anchor="middle" class="lbl">19.2</text>
<line x1="687.0" y1="55" x2="687.0" y2="395" class="grid"/>
<text x="687.0" y="411" text-anchor="middle" class="lbl">23.0</text>
<text x="378.5" y="438" text-anchor="middle" class="lbl">radius (kpc)</text>
<text x="16" y="225" text-anchor="middle" class="lbl-l" transform="rotate(-90, 16, 225)">velocity (km/s)</text>
<text x="724" y="225" text-anchor="middle" class="lbl-r" transform="rotate(-90, 724, 225)">profiles (normalized to peak)</text>
<rect x="70" y="55" width="617" height="340" class="ax"/>
<path d="M 70.0,168.3 L 72.8,202.4 L 75.6,236.5 L 78.5,270.6 L 81.3,304.6 L 84.1,338.7 L 86.9,340.7 L 89.7,341.0 L 92.5,341.4 L 95.4,341.7 L 98.2,342.0 L 101.0,342.4 L 103.8,342.7 L 106.6,343.0 L 109.4,343.4 L 112.3,343.7 L 115.1,344.0 L 117.9,344.4 L 120.7,344.7 L 123.5,345.0 L 126.3,345.4 L 129.2,345.7 L 132.0,346.0 L 134.8,346.4 L 137.6,346.7 L 140.4,347.1 L 143.3,347.4 L 146.1,347.7 L 148.9,348.0 L 151.7,348.3 L 154.5,348.6 L 157.3,349.0 L 160.2,349.3 L 163.0,349.6 L 165.8,349.9 L 168.6,350.2 L 171.4,350.5 L 174.2,350.8 L 177.1,351.1 L 179.9,351.5 L 182.7,351.8 L 185.5,352.1 L 188.3,352.4 L 191.1,352.7 L 194.0,353.0 L 196.8,353.3 L 199.6,353.6 L 202.4,354.0 L 205.2,354.3 L 208.1,354.6 L 210.9,354.9 L 213.7,355.2 L 216.5,355.5 L 219.3,355.8 L 222.1,356.1 L 225.0,356.5 L 227.8,356.8 L 230.6,357.1 L 233.4,357.4 L 236.2,357.7 L 239.0,358.0 L 241.9,358.3 L 244.7,358.6 L 247.5,359.0 L 250.3,359.3 L 253.1,359.6 L 255.9,359.9 L 258.8,360.2 L 261.6,360.5 L 264.4,360.8 L 267.2,361.1 L 270.0,361.5 L 272.8,361.8 L 275.7,362.1 L 278.5,362.4 L 281.3,362.5 L 284.1,362.6 L 286.9,362.8 L 289.8,362.9 L 292.6,363.1 L 295.4,363.2 L 298.2,363.4 L 301.0,363.5 L 303.8,363.7 L 306.7,363.8 L 309.5,364.0 L 312.3,364.1 L 315.1,364.3 L 317.9,364.4 L 320.7,364.5 L 323.6,364.7 L 326.4,364.8 L 329.2,365.0 L 332.0,365.1 L 334.8,365.3 L 337.6,365.4 L 340.5,365.6 L 343.3,365.7 L 346.1,365.9 L 348.9,366.0 L 351.7,366.2 L 354.6,366.3 L 357.4,366.4 L 360.2,366.6 L 363.0,366.7 L 365.8,366.9 L 368.6,367.0 L 371.5,367.2 L 374.3,367.3 L 377.1,367.5 L 379.9,367.6 L 382.7,367.8 L 385.5,367.9 L 388.4,368.1 L 391.2,368.2 L 394.0,368.3 L 396.8,368.5 L 399.6,368.6 L 402.4,368.8 L 405.3,368.9 L 408.1,369.1 L 410.9,369.2 L 413.7,369.4 L 416.5,369.5 L 419.4,369.7 L 422.2,369.8 L 425.0,370.0 L 427.8,370.1 L 430.6,370.2 L 433.4,370.4 L 436.3,370.5 L 439.1,370.7 L 441.9,370.8 L 444.7,371.0 L 447.5,371.1 L 450.3,371.3 L 453.2,371.4 L 456.0,371.6 L 458.8,371.7 L 461.6,371.8 L 464.4,372.0 L 467.2,372.1 L 470.1,372.3 L 472.9,372.4 L 475.7,372.6 L 478.5,372.7 L 481.3,372.9 L 484.2,373.0 L 487.0,373.2 L 489.8,373.3 L 492.6,373.5 L 495.4,373.6 L 498.2,373.7 L 501.1,373.9 L 503.9,374.0 L 506.7,374.2 L 509.5,374.3 L 512.3,374.5 L 515.1,374.6 L 518.0,374.8 L 520.8,374.9 L 523.6,375.1 L 526.4,375.2 L 529.2,375.4 L 532.0,375.5 L 534.9,375.6 L 537.7,375.8 L 540.5,375.9 L 543.3,376.1 L 546.1,376.2 L 548.9,376.4 L 551.8,376.5 L 554.6,376.7 L 557.4,376.8 L 560.2,377.0 L 563.0,377.1 L 565.9,377.3 L 568.7,377.4 L 571.5,377.5 L 574.3,377.7 L 577.1,377.8 L 579.9,378.0 L 582.8,378.1 L 585.6,378.3 L 588.4,378.4 L 591.2,378.6 L 594.0,378.7 L 596.8,378.9 L 599.7,379.0 L 602.5,379.2 L 605.3,379.3 L 608.1,379.4 L 610.9,379.6 L 613.7,379.7 L 616.6,379.9 L 619.4,380.0 L 622.2,380.2 L 625.0,380.3 L 627.8,380.5 L 630.7,380.6 L 633.5,380.8 L 636.3,380.9 L 639.1,381.1 L 641.9,381.2 L 644.7,381.3 L 647.6,381.5 L 650.4,381.6 L 653.2,384.3 L 656.0,391.1 L 658.8,395.0 L 661.6,395.0 L 664.5,395.0 L 667.3,395.0 L 670.1,395.0 L 672.9,395.0 L 675.7,395.0 L 678.5,395.0 L 681.4,395.0 L 684.2,395.0 L 687.0,395.0" class="rho"/>
<path d="M 75.1,168.3 L 85.0,342.1 L 95.2,366.0 L 102.7,369.3 L 112.6,374.1 L 122.6,377.3 L 132.8,378.3 L 142.7,381.2 L 150.2,382.7 L 160.4,384.4 L 170.3,385.9 L 180.5,386.7 L 188.0,387.2 L 197.9,388.0 L 208.1,388.7 L 218.0,389.6 L 228.0,391.3 L 235.5,391.7 L 245.7,391.8 L 255.6,392.4 L 265.8,393.1 L 273.3,393.4 L 283.2,393.7 L 293.4,393.8 L 303.3,393.8 L 313.5,393.9 L 321.0,394.1 L 331.0,394.2 L 340.9,394.3 L 351.1,394.4 L 358.6,394.5 L 368.5,394.6 L 378.7,394.6 L 388.6,394.7 L 398.8,394.7 L 406.3,394.7 L 416.2,394.8 L 426.4,394.8 L 436.4,394.8 L 446.3,394.9 L 453.8,394.9 L 464.0,394.9 L 473.9,394.9 L 484.1,394.9 L 491.6,394.9 L 501.5,394.9 L 511.7,394.9 L 521.7,395.0 L 531.6,395.0 L 539.4,395.0 L 549.3,395.0 L 559.2,395.0 L 569.4,395.0 L 576.9,395.0 L 586.8,395.0 L 597.0,395.0 L 606.9,395.0 L 617.1,395.0" class="phot"/>
<path d="M 75.1,168.3 L 85.0,306.0 L 95.2,381.2 L 102.7,386.3 L 112.6,387.4 L 122.6,388.0 L 132.8,387.7 L 142.7,387.7 L 150.2,388.8 L 160.4,389.7 L 170.3,390.1 L 180.5,390.4 L 188.0,390.2 L 197.9,390.1 L 208.1,389.9 L 218.0,390.2 L 228.0,391.8 L 235.5,393.1 L 245.7,392.8 L 255.6,392.6 L 265.8,393.5 L 273.3,394.4 L 283.2,394.8 L 293.4,394.7 L 303.3,394.2 L 313.5,394.1 L 321.0,394.4 L 331.0,394.6 L 340.9,394.7 L 351.1,394.8 L 358.6,394.8 L 368.5,394.9 L 378.7,394.9 L 388.6,394.8 L 398.8,394.8 L 406.3,394.7 L 416.2,394.7 L 426.4,394.7 L 436.4,394.7 L 446.3,394.7 L 453.8,394.8 L 464.0,394.9 L 473.9,395.0 L 484.1,395.0 L 491.6,395.0 L 501.5,395.0 L 511.7,395.0 L 521.7,395.0 L 531.6,395.0 L 539.4,395.0 L 549.3,395.0 L 559.2,395.0 L 569.4,395.0 L 576.9,395.0 L 586.8,395.0 L 597.0,395.0 L 606.9,395.0 L 617.1,395.0" class="mbar"/>
<path d="M 75.1,347.0 L 85.0,255.6 L 95.2,183.5 L 102.7,168.3 L 112.6,174.6 L 122.6,181.3 L 132.8,185.1 L 142.7,187.8 L 150.2,191.7 L 160.4,195.6 L 170.3,199.5 L 180.5,202.3 L 188.0,202.9 L 197.9,203.3 L 208.1,202.9 L 218.0,205.0 L 228.0,216.0 L 235.5,226.6 L 245.7,226.8 L 255.6,227.8 L 265.8,238.1 L 273.3,250.4 L 283.2,258.9 L 293.4,261.3 L 303.3,259.0 L 313.5,260.1 L 321.0,266.8 L 331.0,273.4 L 340.9,277.8 L 351.1,281.8 L 358.6,286.1 L 368.5,289.7 L 378.7,291.7 L 388.6,293.2 L 398.8,294.4 L 406.3,295.4 L 416.2,296.3 L 426.4,296.7 L 436.4,297.7 L 446.3,299.9 L 453.8,304.8 L 464.0,314.1 L 473.9,320.6 L 484.1,320.0 L 491.6,335.1 L 501.5,354.2 L 511.7,341.2 L 521.7,326.7 L 531.6,328.2 L 539.4,329.7 L 549.3,330.7 L 559.2,331.6 L 569.4,332.8 L 576.9,333.6 L 586.8,333.4 L 597.0,335.3 L 606.9,339.7 L 617.1,341.9" class="mph"/>
<path d="M 76.2,308.0 L 82.3,290.7 L 88.5,288.5 L 94.7,283.0 L 100.8,276.2 L 107.0,269.1 L 113.2,262.0 L 119.4,255.2 L 125.5,248.6 L 131.7,242.4 L 137.9,236.4 L 144.0,230.7 L 150.2,225.3 L 156.4,220.2 L 162.6,215.2 L 168.7,210.5 L 174.9,206.0 L 181.1,201.6 L 187.2,197.5 L 193.4,193.5 L 199.6,189.7 L 205.7,186.1 L 211.9,182.5 L 218.1,179.2 L 224.3,175.9 L 230.4,172.8 L 236.6,169.9 L 242.8,167.0 L 248.9,164.3 L 255.1,161.7 L 261.3,159.1 L 267.4,156.7 L 273.6,154.4 L 279.8,152.2 L 286.0,150.1 L 292.1,148.0 L 298.3,145.9 L 304.5,143.8 L 310.6,141.8 L 316.8,139.8 L 323.0,137.9 L 329.1,136.0 L 335.3,134.2 L 341.5,132.3 L 347.7,130.6 L 353.8,128.8 L 360.0,127.1 L 366.2,125.4 L 372.3,123.8 L 378.5,122.2 L 384.7,120.6 L 390.8,119.1 L 397.0,117.6 L 403.2,116.2 L 409.4,114.8 L 415.5,113.4 L 421.7,112.0 L 427.9,110.7 L 434.0,109.4 L 440.2,108.2 L 446.4,107.0 L 452.5,105.8 L 458.7,104.6 L 464.9,103.5 L 471.0,102.5 L 477.2,101.4 L 483.4,100.4 L 489.6,99.4 L 495.7,98.4 L 501.9,97.5 L 508.1,96.6 L 514.2,95.8 L 520.4,95.0 L 526.6,94.2 L 532.8,93.4 L 538.9,92.7 L 545.1,92.0 L 551.3,91.3 L 557.4,90.6 L 563.6,90.0 L 569.8,89.4 L 575.9,88.9 L 582.1,88.3 L 588.3,87.9 L 594.4,87.4 L 600.6,86.9 L 606.8,86.5 L 613.0,86.1 L 619.1,85.8 L 625.3,85.5 L 631.5,85.2 L 637.6,84.9 L 643.8,84.7 L 650.0,84.5 L 656.1,84.7 L 662.3,86.3 L 668.5,87.8 L 674.7,89.4 L 680.8,91.0 L 687.0,92.5" class="nt"/>
<path d="M 75.1,121.1 L 85.0,184.2 L 95.2,199.9 L 102.7,202.1 L 112.6,198.2 L 122.6,194.2 L 132.8,186.1 L 142.7,174.4 L 150.2,170.7 L 160.4,164.3 L 170.3,159.6 L 180.5,155.0 L 188.0,150.5 L 197.9,144.4 L 208.1,138.1 L 218.0,130.4 L 228.0,127.7 L 235.5,128.7 L 245.7,126.9 L 255.6,123.9 L 265.8,123.8 L 273.3,125.0 L 283.2,127.2 L 293.4,129.2 L 303.3,128.8 L 313.5,128.4 L 321.0,128.6 L 331.0,129.6 L 340.9,130.3 L 351.1,131.2 L 358.6,131.9 L 368.5,133.1 L 378.7,133.8 L 388.6,134.4 L 398.8,134.9 L 406.3,135.1 L 416.2,135.3 L 426.4,135.2 L 436.4,135.1 L 446.3,135.0 L 453.8,134.9 L 464.0,136.0 L 473.9,137.4 L 484.1,138.3 L 491.6,138.6 L 501.5,144.4 L 511.7,145.1 L 521.7,145.7 L 531.6,146.2 L 539.4,146.7 L 549.3,147.2 L 559.2,147.7 L 569.4,148.1 L 576.9,148.5 L 586.8,148.8 L 597.0,149.0 L 606.9,149.7 L 617.1,150.3" class="mond"/>
<path d="M 75.1,289.6 L 80.3,232.9 L 85.4,201.2 L 90.6,194.0 L 95.7,200.4 L 100.8,209.3 L 106.0,214.7 L 111.1,217.4 L 116.3,217.5 L 121.4,216.2 L 126.6,213.6 L 131.7,210.4 L 136.8,206.6 L 142.0,202.6 L 147.1,198.5 L 152.3,194.2 L 157.4,189.9 L 162.6,185.6 L 167.7,181.4 L 172.8,177.2 L 178.0,173.2 L 183.1,169.3 L 188.3,165.5 L 193.4,162.0 L 198.5,158.6 L 203.7,155.4 L 208.8,152.5 L 214.0,149.8 L 219.1,147.3 L 224.3,145.0 L 229.4,143.1 L 234.5,141.4 L 239.7,140.0 L 244.8,139.0 L 250.0,138.3 L 255.1,138.1 L 260.2,138.3 L 265.4,139.1 L 270.5,140.5 L 275.7,142.5 L 280.8,144.7 L 285.9,146.9 L 291.1,148.9 L 296.2,150.5 L 301.4,151.8 L 306.5,152.8 L 311.7,153.6 L 316.8,154.2 L 321.9,154.7 L 327.1,155.1 L 332.2,155.4 L 337.4,155.6 L 342.5,155.8 L 347.7,156.0 L 352.8,156.1 L 357.9,156.2 L 363.1,156.3 L 368.2,156.3 L 373.4,156.4 L 378.5,156.5 L 383.6,156.6 L 388.8,156.7 L 393.9,156.8 L 399.1,157.0 L 404.2,157.1 L 409.4,157.3 L 414.5,157.5 L 419.6,157.7 L 424.8,158.0 L 429.9,158.3 L 435.1,158.6 L 440.2,158.9 L 445.3,159.3 L 450.5,159.7 L 455.6,160.2 L 460.8,160.6 L 465.9,161.1 L 471.1,161.7 L 476.2,162.2 L 481.3,162.8 L 486.5,163.5 L 491.6,164.1 L 496.8,164.8 L 501.9,165.6 L 507.0,166.3 L 512.2,167.1 L 517.3,167.9 L 522.5,168.8 L 527.6,169.6 L 532.8,170.5 L 537.9,171.4 L 543.0,172.4 L 548.2,173.3 L 553.3,174.3 L 558.5,175.2 L 563.6,176.2 L 568.7,177.2 L 573.9,178.1 L 579.0,179.0 L 584.2,179.9 L 589.3,180.7 L 594.5,181.4 L 599.6,181.9 L 604.7,182.3 L 609.9,182.5 L 615.0,182.3 L 620.2,181.6 L 625.3,180.4 L 630.4,178.6 L 635.6,176.2 L 640.7,173.8 L 645.9,172.3 L 651.0,172.9 L 656.1,176.3 L 661.3,182.8 L 666.4,191.3 L 671.6,200.7 L 676.7,209.8 L 681.9,218.1 L 687.0,225.5" class="fw"/>
<line x1="75.10" y1="169.89" x2="75.10" y2="192.26" class="err"/>
<line x1="72.10" y1="169.89" x2="78.10" y2="169.89" class="err"/>
<line x1="72.10" y1="192.26" x2="78.10" y2="192.26" class="err"/>
<circle cx="75.10" cy="181.07" r="2.5" class="obs"/>
<line x1="85.02" y1="200.65" x2="85.02" y2="225.82" class="err"/>
<line x1="82.02" y1="200.65" x2="88.02" y2="200.65" class="err"/>
<line x1="82.02" y1="225.82" x2="88.02" y2="225.82" class="err"/>
<circle cx="85.02" cy="213.23" r="2.5" class="obs"/>
<line x1="95.21" y1="211.83" x2="95.21" y2="220.22" class="err"/>
<line x1="92.21" y1="211.83" x2="98.21" y2="211.83" class="err"/>
<line x1="92.21" y1="220.22" x2="98.21" y2="220.22" class="err"/>
<circle cx="95.21" cy="216.03" r="2.5" class="obs"/>
<line x1="102.72" y1="203.45" x2="102.72" y2="211.83" class="err"/>
<line x1="99.72" y1="203.45" x2="105.72" y2="203.45" class="err"/>
<line x1="99.72" y1="211.83" x2="105.72" y2="211.83" class="err"/>
<circle cx="102.72" cy="207.64" r="2.5" class="obs"/>
<line x1="112.64" y1="209.04" x2="112.64" y2="220.22" class="err"/>
<line x1="109.64" y1="209.04" x2="115.64" y2="209.04" class="err"/>
<line x1="109.64" y1="220.22" x2="115.64" y2="220.22" class="err"/>
<circle cx="112.64" cy="214.63" r="2.5" class="obs"/>
<line x1="122.57" y1="202.05" x2="122.57" y2="221.62" class="err"/>
<line x1="119.57" y1="202.05" x2="125.57" y2="202.05" class="err"/>
<line x1="119.57" y1="221.62" x2="125.57" y2="221.62" class="err"/>
<circle cx="122.57" cy="211.83" r="2.5" class="obs"/>
<line x1="132.76" y1="190.86" x2="132.76" y2="213.23" class="err"/>
<line x1="129.76" y1="190.86" x2="135.76" y2="190.86" class="err"/>
<line x1="129.76" y1="213.23" x2="135.76" y2="213.23" class="err"/>
<circle cx="132.76" cy="202.05" r="2.5" class="obs"/>
<line x1="142.68" y1="193.66" x2="142.68" y2="207.64" class="err"/>
<line x1="139.68" y1="193.66" x2="145.68" y2="193.66" class="err"/>
<line x1="139.68" y1="207.64" x2="145.68" y2="207.64" class="err"/>
<circle cx="142.68" cy="200.65" r="2.5" class="obs"/>
<line x1="150.19" y1="190.86" x2="150.19" y2="199.25" class="err"/>
<line x1="147.19" y1="190.86" x2="153.19" y2="190.86" class="err"/>
<line x1="147.19" y1="199.25" x2="153.19" y2="199.25" class="err"/>
<circle cx="150.19" cy="195.06" r="2.5" class="obs"/>
<line x1="160.38" y1="188.07" x2="160.38" y2="193.66" class="err"/>
<line x1="157.38" y1="188.07" x2="163.38" y2="188.07" class="err"/>
<line x1="157.38" y1="193.66" x2="163.38" y2="193.66" class="err"/>
<circle cx="160.38" cy="190.86" r="2.5" class="obs"/>
<line x1="170.31" y1="176.88" x2="170.31" y2="182.47" class="err"/>
<line x1="167.31" y1="176.88" x2="173.31" y2="176.88" class="err"/>
<line x1="167.31" y1="182.47" x2="173.31" y2="182.47" class="err"/>
<circle cx="170.31" cy="179.68" r="2.5" class="obs"/>
<line x1="180.50" y1="168.49" x2="180.50" y2="171.29" class="err"/>
<line x1="177.50" y1="168.49" x2="183.50" y2="168.49" class="err"/>
<line x1="177.50" y1="171.29" x2="183.50" y2="171.29" class="err"/>
<circle cx="180.50" cy="169.89" r="2.5" class="obs"/>
<line x1="188.01" y1="158.70" x2="188.01" y2="164.30" class="err"/>
<line x1="185.01" y1="158.70" x2="191.01" y2="158.70" class="err"/>
<line x1="185.01" y1="164.30" x2="191.01" y2="164.30" class="err"/>
<circle cx="188.01" cy="161.50" r="2.5" class="obs"/>
<line x1="197.93" y1="150.31" x2="197.93" y2="155.91" class="err"/>
<line x1="194.93" y1="150.31" x2="200.93" y2="150.31" class="err"/>
<line x1="194.93" y1="155.91" x2="200.93" y2="155.91" class="err"/>
<circle cx="197.93" cy="153.11" r="2.5" class="obs"/>
<line x1="208.12" y1="143.32" x2="208.12" y2="154.51" class="err"/>
<line x1="205.12" y1="143.32" x2="211.12" y2="143.32" class="err"/>
<line x1="205.12" y1="154.51" x2="211.12" y2="154.51" class="err"/>
<circle cx="208.12" cy="148.92" r="2.5" class="obs"/>
<line x1="218.05" y1="139.13" x2="218.05" y2="153.11" class="err"/>
<line x1="215.05" y1="139.13" x2="221.05" y2="139.13" class="err"/>
<line x1="215.05" y1="153.11" x2="221.05" y2="153.11" class="err"/>
<circle cx="218.05" cy="146.12" r="2.5" class="obs"/>
<line x1="227.97" y1="139.13" x2="227.97" y2="147.52" class="err"/>
<line x1="224.97" y1="139.13" x2="230.97" y2="139.13" class="err"/>
<line x1="224.97" y1="147.52" x2="230.97" y2="147.52" class="err"/>
<circle cx="227.97" cy="143.32" r="2.5" class="obs"/>
<line x1="235.48" y1="139.13" x2="235.48" y2="150.31" class="err"/>
<line x1="232.48" y1="139.13" x2="238.48" y2="139.13" class="err"/>
<line x1="232.48" y1="150.31" x2="238.48" y2="150.31" class="err"/>
<circle cx="235.48" cy="144.72" r="2.5" class="obs"/>
<line x1="245.67" y1="136.33" x2="245.67" y2="150.31" class="err"/>
<line x1="242.67" y1="136.33" x2="248.67" y2="136.33" class="err"/>
<line x1="242.67" y1="150.31" x2="248.67" y2="150.31" class="err"/>
<circle cx="245.67" cy="143.32" r="2.5" class="obs"/>
<line x1="255.60" y1="136.33" x2="255.60" y2="147.52" class="err"/>
<line x1="252.60" y1="136.33" x2="258.60" y2="136.33" class="err"/>
<line x1="252.60" y1="147.52" x2="258.60" y2="147.52" class="err"/>
<circle cx="255.60" cy="141.92" r="2.5" class="obs"/>
<line x1="265.79" y1="139.13" x2="265.79" y2="150.31" class="err"/>
<line x1="262.79" y1="139.13" x2="268.79" y2="139.13" class="err"/>
<line x1="262.79" y1="150.31" x2="268.79" y2="150.31" class="err"/>
<circle cx="265.79" cy="144.72" r="2.5" class="obs"/>
<line x1="273.30" y1="141.92" x2="273.30" y2="147.52" class="err"/>
<line x1="270.30" y1="141.92" x2="276.30" y2="141.92" class="err"/>
<line x1="270.30" y1="147.52" x2="276.30" y2="147.52" class="err"/>
<circle cx="273.30" cy="144.72" r="2.5" class="obs"/>
<line x1="283.22" y1="143.32" x2="283.22" y2="146.12" class="err"/>
<line x1="280.22" y1="143.32" x2="286.22" y2="143.32" class="err"/>
<line x1="280.22" y1="146.12" x2="286.22" y2="146.12" class="err"/>
<circle cx="283.22" cy="144.72" r="2.5" class="obs"/>
<line x1="293.41" y1="144.72" x2="293.41" y2="147.52" class="err"/>
<line x1="290.41" y1="144.72" x2="296.41" y2="144.72" class="err"/>
<line x1="290.41" y1="147.52" x2="296.41" y2="147.52" class="err"/>
<circle cx="293.41" cy="146.12" r="2.5" class="obs"/>
<line x1="303.34" y1="144.72" x2="303.34" y2="150.31" class="err"/>
<line x1="300.34" y1="144.72" x2="306.34" y2="144.72" class="err"/>
<line x1="300.34" y1="150.31" x2="306.34" y2="150.31" class="err"/>
<circle cx="303.34" cy="147.52" r="2.5" class="obs"/>
<line x1="313.53" y1="146.12" x2="313.53" y2="151.71" class="err"/>
<line x1="310.53" y1="146.12" x2="316.53" y2="146.12" class="err"/>
<line x1="310.53" y1="151.71" x2="316.53" y2="151.71" class="err"/>
<circle cx="313.53" cy="148.92" r="2.5" class="obs"/>
<line x1="321.04" y1="148.92" x2="321.04" y2="157.30" class="err"/>
<line x1="318.04" y1="148.92" x2="324.04" y2="148.92" class="err"/>
<line x1="318.04" y1="157.30" x2="324.04" y2="157.30" class="err"/>
<circle cx="321.04" cy="153.11" r="2.5" class="obs"/>
<line x1="330.96" y1="151.71" x2="330.96" y2="157.30" class="err"/>
<line x1="327.96" y1="151.71" x2="333.96" y2="151.71" class="err"/>
<line x1="327.96" y1="157.30" x2="333.96" y2="157.30" class="err"/>
<circle cx="330.96" cy="154.51" r="2.5" class="obs"/>
<line x1="340.88" y1="151.71" x2="340.88" y2="157.30" class="err"/>
<line x1="337.88" y1="151.71" x2="343.88" y2="151.71" class="err"/>
<line x1="337.88" y1="157.30" x2="343.88" y2="157.30" class="err"/>
<circle cx="340.88" cy="154.51" r="2.5" class="obs"/>
<line x1="351.08" y1="154.51" x2="351.08" y2="160.10" class="err"/>
<line x1="348.08" y1="154.51" x2="354.08" y2="154.51" class="err"/>
<line x1="348.08" y1="160.10" x2="354.08" y2="160.10" class="err"/>
<circle cx="351.08" cy="157.30" r="2.5" class="obs"/>
<line x1="358.58" y1="153.11" x2="358.58" y2="158.70" class="err"/>
<line x1="355.58" y1="153.11" x2="361.58" y2="153.11" class="err"/>
<line x1="355.58" y1="158.70" x2="361.58" y2="158.70" class="err"/>
<circle cx="358.58" cy="155.91" r="2.5" class="obs"/>
<line x1="368.51" y1="148.92" x2="368.51" y2="154.51" class="err"/>
<line x1="365.51" y1="148.92" x2="371.51" y2="148.92" class="err"/>
<line x1="365.51" y1="154.51" x2="371.51" y2="154.51" class="err"/>
<circle cx="368.51" cy="151.71" r="2.5" class="obs"/>
<line x1="378.70" y1="148.92" x2="378.70" y2="154.51" class="err"/>
<line x1="375.70" y1="148.92" x2="381.70" y2="148.92" class="err"/>
<line x1="375.70" y1="154.51" x2="381.70" y2="154.51" class="err"/>
<circle cx="378.70" cy="151.71" r="2.5" class="obs"/>
<line x1="388.62" y1="147.52" x2="388.62" y2="153.11" class="err"/>
<line x1="385.62" y1="147.52" x2="391.62" y2="147.52" class="err"/>
<line x1="385.62" y1="153.11" x2="391.62" y2="153.11" class="err"/>
<circle cx="388.62" cy="150.31" r="2.5" class="obs"/>
<line x1="398.82" y1="148.92" x2="398.82" y2="154.51" class="err"/>
<line x1="395.82" y1="148.92" x2="401.82" y2="148.92" class="err"/>
<line x1="395.82" y1="154.51" x2="401.82" y2="154.51" class="err"/>
<circle cx="398.82" cy="151.71" r="2.5" class="obs"/>
<line x1="406.32" y1="144.72" x2="406.32" y2="161.50" class="err"/>
<line x1="403.32" y1="144.72" x2="409.32" y2="144.72" class="err"/>
<line x1="403.32" y1="161.50" x2="409.32" y2="161.50" class="err"/>
<circle cx="406.32" cy="153.11" r="2.5" class="obs"/>
<line x1="416.25" y1="144.72" x2="416.25" y2="161.50" class="err"/>
<line x1="413.25" y1="144.72" x2="419.25" y2="144.72" class="err"/>
<line x1="413.25" y1="161.50" x2="419.25" y2="161.50" class="err"/>
<circle cx="416.25" cy="153.11" r="2.5" class="obs"/>
<line x1="426.44" y1="141.92" x2="426.44" y2="164.30" class="err"/>
<line x1="423.44" y1="141.92" x2="429.44" y2="141.92" class="err"/>
<line x1="423.44" y1="164.30" x2="429.44" y2="164.30" class="err"/>
<circle cx="426.44" cy="153.11" r="2.5" class="obs"/>
<line x1="436.36" y1="137.73" x2="436.36" y2="162.90" class="err"/>
<line x1="433.36" y1="137.73" x2="439.36" y2="137.73" class="err"/>
<line x1="433.36" y1="162.90" x2="439.36" y2="162.90" class="err"/>
<circle cx="436.36" cy="150.31" r="2.5" class="obs"/>
<line x1="446.29" y1="139.13" x2="446.29" y2="164.30" class="err"/>
<line x1="443.29" y1="139.13" x2="449.29" y2="139.13" class="err"/>
<line x1="443.29" y1="164.30" x2="449.29" y2="164.30" class="err"/>
<circle cx="446.29" cy="151.71" r="2.5" class="obs"/>
<line x1="453.80" y1="143.32" x2="453.80" y2="168.49" class="err"/>
<line x1="450.80" y1="143.32" x2="456.80" y2="143.32" class="err"/>
<line x1="450.80" y1="168.49" x2="456.80" y2="168.49" class="err"/>
<circle cx="453.80" cy="155.91" r="2.5" class="obs"/>
<line x1="463.99" y1="150.31" x2="463.99" y2="172.68" class="err"/>
<line x1="460.99" y1="150.31" x2="466.99" y2="150.31" class="err"/>
<line x1="460.99" y1="172.68" x2="466.99" y2="172.68" class="err"/>
<circle cx="463.99" cy="161.50" r="2.5" class="obs"/>
<line x1="473.91" y1="154.51" x2="473.91" y2="174.08" class="err"/>
<line x1="470.91" y1="154.51" x2="476.91" y2="154.51" class="err"/>
<line x1="470.91" y1="174.08" x2="476.91" y2="174.08" class="err"/>
<circle cx="473.91" cy="164.30" r="2.5" class="obs"/>
<line x1="484.10" y1="155.91" x2="484.10" y2="178.28" class="err"/>
<line x1="481.10" y1="155.91" x2="487.10" y2="155.91" class="err"/>
<line x1="481.10" y1="178.28" x2="487.10" y2="178.28" class="err"/>
<circle cx="484.10" cy="167.09" r="2.5" class="obs"/>
<line x1="491.61" y1="157.30" x2="491.61" y2="179.68" class="err"/>
<line x1="488.61" y1="157.30" x2="494.61" y2="157.30" class="err"/>
<line x1="488.61" y1="179.68" x2="494.61" y2="179.68" class="err"/>
<circle cx="491.61" cy="168.49" r="2.5" class="obs"/>
<line x1="501.54" y1="157.30" x2="501.54" y2="182.47" class="err"/>
<line x1="498.54" y1="157.30" x2="504.54" y2="157.30" class="err"/>
<line x1="498.54" y1="182.47" x2="504.54" y2="182.47" class="err"/>
<circle cx="501.54" cy="169.89" r="2.5" class="obs"/>
<line x1="511.73" y1="158.70" x2="511.73" y2="186.67" class="err"/>
<line x1="508.73" y1="158.70" x2="514.73" y2="158.70" class="err"/>
<line x1="508.73" y1="186.67" x2="514.73" y2="186.67" class="err"/>
<circle cx="511.73" cy="172.68" r="2.5" class="obs"/>
<line x1="521.65" y1="160.10" x2="521.65" y2="188.07" class="err"/>
<line x1="518.65" y1="160.10" x2="524.65" y2="160.10" class="err"/>
<line x1="518.65" y1="188.07" x2="524.65" y2="188.07" class="err"/>
<circle cx="521.65" cy="174.08" r="2.5" class="obs"/>
<line x1="531.58" y1="161.50" x2="531.58" y2="189.46" class="err"/>
<line x1="528.58" y1="161.50" x2="534.58" y2="161.50" class="err"/>
<line x1="528.58" y1="189.46" x2="534.58" y2="189.46" class="err"/>
<circle cx="531.58" cy="175.48" r="2.5" class="obs"/>
<line x1="539.35" y1="161.50" x2="539.35" y2="189.46" class="err"/>
<line x1="536.35" y1="161.50" x2="542.35" y2="161.50" class="err"/>
<line x1="536.35" y1="189.46" x2="542.35" y2="189.46" class="err"/>
<circle cx="539.35" cy="175.48" r="2.5" class="obs"/>
<line x1="549.28" y1="162.90" x2="549.28" y2="188.07" class="err"/>
<line x1="546.28" y1="162.90" x2="552.28" y2="162.90" class="err"/>
<line x1="546.28" y1="188.07" x2="552.28" y2="188.07" class="err"/>
<circle cx="549.28" cy="175.48" r="2.5" class="obs"/>
<line x1="559.20" y1="155.91" x2="559.20" y2="186.67" class="err"/>
<line x1="556.20" y1="155.91" x2="562.20" y2="155.91" class="err"/>
<line x1="556.20" y1="186.67" x2="562.20" y2="186.67" class="err"/>
<circle cx="559.20" cy="171.29" r="2.5" class="obs"/>
<line x1="569.39" y1="155.91" x2="569.39" y2="189.46" class="err"/>
<line x1="566.39" y1="155.91" x2="572.39" y2="155.91" class="err"/>
<line x1="566.39" y1="189.46" x2="572.39" y2="189.46" class="err"/>
<circle cx="569.39" cy="172.68" r="2.5" class="obs"/>
<line x1="576.90" y1="151.71" x2="576.90" y2="190.86" class="err"/>
<line x1="573.90" y1="151.71" x2="579.90" y2="151.71" class="err"/>
<line x1="573.90" y1="190.86" x2="579.90" y2="190.86" class="err"/>
<circle cx="576.90" cy="171.29" r="2.5" class="obs"/>
<line x1="586.82" y1="151.71" x2="586.82" y2="196.45" class="err"/>
<line x1="583.82" y1="151.71" x2="589.82" y2="151.71" class="err"/>
<line x1="583.82" y1="196.45" x2="589.82" y2="196.45" class="err"/>
<circle cx="586.82" cy="174.08" r="2.5" class="obs"/>
<line x1="597.02" y1="153.11" x2="597.02" y2="203.45" class="err"/>
<line x1="594.02" y1="153.11" x2="600.02" y2="153.11" class="err"/>
<line x1="594.02" y1="203.45" x2="600.02" y2="203.45" class="err"/>
<circle cx="597.02" cy="178.28" r="2.5" class="obs"/>
<line x1="606.94" y1="148.92" x2="606.94" y2="202.05" class="err"/>
<line x1="603.94" y1="148.92" x2="609.94" y2="148.92" class="err"/>
<line x1="603.94" y1="202.05" x2="609.94" y2="202.05" class="err"/>
<circle cx="606.94" cy="175.48" r="2.5" class="obs"/>
<line x1="617.13" y1="150.31" x2="617.13" y2="209.04" class="err"/>
<line x1="614.13" y1="150.31" x2="620.13" y2="150.31" class="err"/>
<line x1="614.13" y1="209.04" x2="620.13" y2="209.04" class="err"/>
<circle cx="617.13" cy="179.68" r="2.5" class="obs"/>
<g class="legend">
<line x1="82" y1="69" x2="106" y2="69" class="fw"/>
<text x="112" y="73" class="lbl-l">framework: 10.8 km/s, 7.1%, 1.65σ</text>
<line x1="82" y1="87" x2="106" y2="87" class="nt"/>
<text x="112" y="91" class="lbl-l">Newtonian: 39.3 km/s, 25.3%, 7.77σ</text>
<line x1="82" y1="105" x2="106" y2="105" class="mond"/>
<text x="112" y="109" class="lbl-m">MOND/RAR: 16.5 km/s, 10.4%, 5.06σ</text>
<circle cx="94" cy="123" r="2.5" class="obs"/>
<text x="112" y="127" class="lbl">observed V±err</text>
</g>
<g class="legend">
<line x1="472" y1="69" x2="496" y2="69" class="rho"/>
<text x="502" y="73" class="lbl-r">ρ(r) raw</text>
<line x1="472" y1="87" x2="496" y2="87" class="phot"/>
<text x="502" y="91" class="lbl-p">photometric baryonic profile</text>
<line x1="472" y1="105" x2="496" y2="105" class="mbar"/>
<text x="502" y="109" class="lbl-m">MOND baryonic annulus</text>
<line x1="472" y1="123" x2="496" y2="123" class="mph"/>
<text x="502" y="127" class="lbl-m">MOND phantom annulus</text>
<text x="472" y="147" class="lbl-r">ρ peak: 1596 M☉/pc²</text>
<text x="472" y="163" class="lbl-p">phot peak: 4341.86 (arb.)</text>
<text x="472" y="179" class="lbl-m">Σbar peak: 11535.07 M☉/pc²</text>
<text x="472" y="195" class="lbl-m">Σphantom peak: 187.45 M☉/pc²</text>
</g>
<rect x="775" y="55" width="170" height="170" class="preview-bg"/>
<defs><radialGradient id="g_NGC6946" cx="0.5" cy="0.5" r="0.5">
  <stop offset="0.0000" stop-color="rgb(255,255,255)"/>
  <stop offset="0.0313" stop-color="rgb(141,141,141)"/>
  <stop offset="0.0625" stop-color="rgb(136,136,136)"/>
  <stop offset="0.0938" stop-color="rgb(132,132,132)"/>
  <stop offset="0.1250" stop-color="rgb(128,128,128)"/>
  <stop offset="0.1563" stop-color="rgb(124,124,124)"/>
  <stop offset="0.1875" stop-color="rgb(120,120,120)"/>
  <stop offset="0.2188" stop-color="rgb(116,116,116)"/>
  <stop offset="0.2500" stop-color="rgb(112,112,112)"/>
  <stop offset="0.2813" stop-color="rgb(108,108,108)"/>
  <stop offset="0.3125" stop-color="rgb(104,104,104)"/>
  <stop offset="0.3438" stop-color="rgb(101,101,101)"/>
  <stop offset="0.3750" stop-color="rgb(98,98,98)"/>
  <stop offset="0.4063" stop-color="rgb(96,96,96)"/>
  <stop offset="0.4375" stop-color="rgb(94,94,94)"/>
  <stop offset="0.4688" stop-color="rgb(93,93,93)"/>
  <stop offset="0.5000" stop-color="rgb(91,91,91)"/>
  <stop offset="0.5313" stop-color="rgb(89,89,89)"/>
  <stop offset="0.5625" stop-color="rgb(87,87,87)"/>
  <stop offset="0.5938" stop-color="rgb(85,85,85)"/>
  <stop offset="0.6250" stop-color="rgb(83,83,83)"/>
  <stop offset="0.6563" stop-color="rgb(82,82,82)"/>
  <stop offset="0.6875" stop-color="rgb(80,80,80)"/>
  <stop offset="0.7188" stop-color="rgb(78,78,78)"/>
  <stop offset="0.7500" stop-color="rgb(76,76,76)"/>
  <stop offset="0.7813" stop-color="rgb(74,74,74)"/>
  <stop offset="0.8125" stop-color="rgb(72,72,72)"/>
  <stop offset="0.8438" stop-color="rgb(71,71,71)"/>
  <stop offset="0.8750" stop-color="rgb(69,69,69)"/>
  <stop offset="0.9063" stop-color="rgb(67,67,67)"/>
  <stop offset="0.9375" stop-color="rgb(65,65,65)"/>
  <stop offset="0.9688" stop-color="rgb(63,63,63)"/>
  <stop offset="1.0000" stop-color="rgb(0,0,0)"/>
</radialGradient></defs>
<circle cx="860" cy="140" r="81" fill="url(#g_NGC6946)"/>
<text x="860" y="49" text-anchor="middle" class="preview-lbl">face-on luminance from ρ(r)</text>
<text x="860" y="239" text-anchor="middle" class="preview-lbl">edge at r = 21.9 kpc</text>
</svg>