<svg xmlns="http://www.w3.org/2000/svg" viewBox="0 0 720 420" width="720" height="420" font-family="sans-serif" font-size="12">
<style>
  .ax { stroke: #333; stroke-width: 1; fill: none; }
  .grid { stroke: #ddd; stroke-width: 0.5; fill: none; }
  .lbl { fill: #333; }
  .lbl-l { fill: #0066cc; }
  .lbl-r { fill: #b03030; }
  .obs { fill: #222; }
  .err { stroke: #555; stroke-width: 0.8; fill: none; }
  .fw { stroke: #0066cc; stroke-width: 2.2; fill: none; }
  .nt { stroke: #cc6600; stroke-width: 1.6; fill: none; stroke-dasharray: 5,3; }
  .rho { stroke: #b03030; stroke-width: 2.0; fill: none; }
  .sig { stroke: #b03030; stroke-width: 1.6; fill: none; stroke-dasharray: 4,2; opacity: 0.85; }
  .title { fill: #111; font-size: 16px; font-weight: 600; }
  .subtitle { fill: #555; font-size: 11px; }
  .legend { font-size: 11px; }
</style>
<text x="360.0" y="22" text-anchor="middle" class="title">NGC6195</text>
<text x="360.0" y="38" text-anchor="middle" class="subtitle">rMax=36.4 kpc, N=23, RMS=14.1 km/s (5.8%), amp=382</text>
<line x1="70" y1="365.0" x2="635" y2="365.0" class="grid"/>
<text x="64" y="369.0" text-anchor="end" class="lbl-l">0</text>
<line x1="70" y1="303.0" x2="635" y2="303.0" class="grid"/>
<text x="64" y="307.0" text-anchor="end" class="lbl-l">77</text>
<line x1="70" y1="241.0" x2="635" y2="241.0" class="grid"/>
<text x="64" y="245.0" text-anchor="end" class="lbl-l">154</text>
<line x1="70" y1="179.0" x2="635" y2="179.0" class="grid"/>
<text x="64" y="183.0" text-anchor="end" class="lbl-l">231</text>
<line x1="70" y1="116.99999999999999" x2="635" y2="116.99999999999999" class="grid"/>
<text x="64" y="120.99999999999999" text-anchor="end" class="lbl-l">308</text>
<line x1="70" y1="55.0" x2="635" y2="55.0" class="grid"/>
<text x="64" y="59.0" text-anchor="end" class="lbl-l">385</text>
<text x="641" y="369.0" text-anchor="start" class="lbl-r">0.0</text>
<text x="641" y="327.6666666666667" text-anchor="start" class="lbl-r">0.2</text>
<text x="641" y="286.33333333333337" text-anchor="start" class="lbl-r">0.4</text>
<text x="641" y="245.00000000000003" text-anchor="start" class="lbl-r">0.6</text>
<text x="641" y="203.66666666666666" text-anchor="start" class="lbl-r">0.8</text>
<text x="641" y="162.33333333333334" text-anchor="start" class="lbl-r">1.0</text>
<line x1="70.0" y1="55" x2="70.0" y2="365" class="grid"/>
<text x="70.0" y="381" text-anchor="middle" class="lbl">0.0</text>
<line x1="164.16666666666666" y1="55" x2="164.16666666666666" y2="365" class="grid"/>
<text x="164.16666666666666" y="381" text-anchor="middle" class="lbl">8.1</text>
<line x1="258.3333333333333" y1="55" x2="258.3333333333333" y2="365" class="grid"/>
<text x="258.3333333333333" y="381" text-anchor="middle" class="lbl">16.2</text>
<line x1="352.49999999999994" y1="55" x2="352.49999999999994" y2="365" class="grid"/>
<text x="352.49999999999994" y="381" text-anchor="middle" class="lbl">24.3</text>
<line x1="446.66666666666663" y1="55" x2="446.66666666666663" y2="365" class="grid"/>
<text x="446.66666666666663" y="381" text-anchor="middle" class="lbl">32.5</text>
<line x1="540.8333333333334" y1="55" x2="540.8333333333334" y2="365" class="grid"/>
<text x="540.8333333333334" y="381" text-anchor="middle" class="lbl">40.6</text>
<line x1="634.9999999999999" y1="55" x2="634.9999999999999" y2="365" class="grid"/>
<text x="634.9999999999999" y="381" text-anchor="middle" class="lbl">48.7</text>
<text x="352.5" y="408" text-anchor="middle" class="lbl">radius (kpc)</text>
<text x="16" y="210.0" text-anchor="middle" class="lbl-l" transform="rotate(-90, 16, 210.0)">velocity (km/s)</text>
<text x="704" y="210.0" text-anchor="middle" class="lbl-r" transform="rotate(-90, 704, 210.0)">mass profile (normalized to peak)</text>
<rect x="70" y="55" width="565" height="310" class="ax"/>
<path d="M 70.0,158.3 L 72.6,166.9 L 75.2,175.6 L 77.7,184.2 L 80.3,192.8 L 82.9,201.4 L 85.5,210.0 L 88.1,218.6 L 90.6,227.2 L 93.2,235.8 L 95.8,244.4 L 98.4,253.0 L 101.0,261.6 L 103.5,270.3 L 106.1,278.9 L 108.7,287.5 L 111.3,296.1 L 113.9,304.3 L 116.4,304.3 L 119.0,304.3 L 121.6,304.3 L 124.2,304.3 L 126.8,304.3 L 129.3,304.3 L 131.9,304.3 L 134.5,304.3 L 137.1,304.3 L 139.7,304.3 L 142.2,304.3 L 144.8,304.3 L 147.4,304.3 L 150.0,304.3 L 152.6,304.3 L 155.1,304.3 L 157.7,304.6 L 160.3,304.9 L 162.9,305.2 L 165.5,305.5 L 168.0,305.8 L 170.6,306.2 L 173.2,306.5 L 175.8,306.8 L 178.4,307.1 L 180.9,307.4 L 183.5,307.7 L 186.1,308.1 L 188.7,308.4 L 191.3,308.7 L 193.8,309.0 L 196.4,309.3 L 199.0,309.6 L 201.6,309.9 L 204.2,310.3 L 206.7,310.6 L 209.3,310.9 L 211.9,311.2 L 214.5,311.5 L 217.1,311.8 L 219.6,312.2 L 222.2,312.5 L 224.8,312.8 L 227.4,313.1 L 230.0,313.4 L 232.5,313.7 L 235.1,314.1 L 237.7,314.4 L 240.3,314.7 L 242.9,315.0 L 245.4,315.3 L 248.0,315.6 L 250.6,315.9 L 253.2,316.3 L 255.8,316.6 L 258.3,316.9 L 260.9,317.2 L 263.5,317.5 L 266.1,317.8 L 268.7,318.2 L 271.2,318.5 L 273.8,318.8 L 276.4,319.1 L 279.0,319.4 L 281.6,319.7 L 284.1,319.8 L 286.7,319.9 L 289.3,320.0 L 291.9,320.1 L 294.5,320.2 L 297.0,320.3 L 299.6,320.4 L 302.2,320.5 L 304.8,320.6 L 307.4,320.7 L 309.9,320.8 L 312.5,320.9 L 315.1,321.0 L 317.7,321.1 L 320.3,321.2 L 322.8,321.3 L 325.4,321.4 L 328.0,321.5 L 330.6,321.6 L 333.2,321.7 L 335.7,321.8 L 338.3,321.9 L 340.9,322.0 L 343.5,322.1 L 346.1,322.2 L 348.6,322.3 L 351.2,322.4 L 353.8,322.5 L 356.4,322.6 L 358.9,322.7 L 361.5,322.8 L 364.1,322.9 L 366.7,323.0 L 369.3,323.1 L 371.8,323.2 L 374.4,323.3 L 377.0,323.4 L 379.6,323.5 L 382.2,323.6 L 384.7,323.7 L 387.3,323.8 L 389.9,323.9 L 392.5,324.0 L 395.1,324.1 L 397.6,324.2 L 400.2,324.3 L 402.8,324.4 L 405.4,324.5 L 408.0,324.6 L 410.5,324.7 L 413.1,324.8 L 415.7,324.9 L 418.3,325.0 L 420.9,325.1 L 423.4,325.2 L 426.0,325.3 L 428.6,325.4 L 431.2,325.5 L 433.8,325.6 L 436.3,325.7 L 438.9,325.8 L 441.5,325.9 L 444.1,326.0 L 446.7,326.1 L 449.2,326.2 L 451.8,326.3 L 454.4,326.4 L 457.0,326.5 L 459.6,326.6 L 462.1,326.7 L 464.7,326.8 L 467.3,326.9 L 469.9,327.0 L 472.5,327.1 L 475.0,327.2 L 477.6,327.3 L 480.2,327.4 L 482.8,327.5 L 485.4,327.6 L 487.9,327.7 L 490.5,327.8 L 493.1,327.9 L 495.7,328.0 L 498.3,328.1 L 500.8,328.3 L 503.4,328.4 L 506.0,328.5 L 508.6,328.6 L 511.2,328.7 L 513.7,328.8 L 516.3,328.9 L 518.9,329.0 L 521.5,329.1 L 524.1,329.2 L 526.6,329.3 L 529.2,329.4 L 531.8,329.5 L 534.4,329.6 L 537.0,329.7 L 539.5,329.8 L 542.1,329.9 L 544.7,330.0 L 547.3,330.1 L 549.9,330.2 L 552.4,330.3 L 555.0,331.9 L 557.6,333.5 L 560.2,335.1 L 562.8,336.7 L 565.3,338.4 L 567.9,340.0 L 570.5,341.6 L 573.1,343.2 L 575.7,344.8 L 578.2,346.4 L 580.8,348.0 L 583.4,349.6 L 586.0,351.2 L 588.6,352.8 L 591.1,354.4 L 593.7,356.0 L 596.3,357.6 L 598.9,359.3 L 601.5,360.9 L 604.0,362.5 L 606.6,364.1 L 609.2,365.0 L 611.8,365.0 L 614.4,365.0 L 616.9,365.0 L 619.5,365.0 L 622.1,365.0 L 624.7,365.0 L 627.3,365.0 L 629.8,365.0 L 632.4,365.0 L 635.0,365.0" class="rho"/>
<path d="M 70.0,158.3 L 72.6,158.9 L 75.2,159.9 L 77.7,161.4 L 80.3,163.5 L 82.9,166.0 L 85.5,169.0 L 88.1,172.3 L 90.6,175.8 L 93.2,179.5 L 95.8,183.3 L 98.4,187.2 L 101.0,191.0 L 103.5,194.8 L 106.1,198.5 L 108.7,202.1 L 111.3,205.5 L 113.9,208.7 L 116.4,211.8 L 119.0,214.6 L 121.6,217.3 L 124.2,219.8 L 126.8,222.2 L 129.3,224.3 L 131.9,226.4 L 134.5,228.3 L 137.1,230.2 L 139.7,231.9 L 142.2,233.6 L 144.8,235.2 L 147.4,236.7 L 150.0,238.1 L 152.6,239.6 L 155.1,240.9 L 157.7,242.2 L 160.3,243.5 L 162.9,244.8 L 165.5,246.0 L 168.0,247.2 L 170.6,248.4 L 173.2,249.6 L 175.8,250.7 L 178.4,251.8 L 180.9,252.9 L 183.5,254.0 L 186.1,255.1 L 188.7,256.1 L 191.3,257.2 L 193.8,258.2 L 196.4,259.2 L 199.0,260.2 L 201.6,261.2 L 204.2,262.2 L 206.7,263.1 L 209.3,264.1 L 211.9,265.0 L 214.5,266.0 L 217.1,266.9 L 219.6,267.8 L 222.2,268.7 L 224.8,269.6 L 227.4,270.5 L 230.0,271.3 L 232.5,272.2 L 235.1,273.1 L 237.7,273.9 L 240.3,274.7 L 242.9,275.5 L 245.4,276.4 L 248.0,277.2 L 250.6,278.0 L 253.2,278.7 L 255.8,279.5 L 258.3,280.3 L 260.9,281.0 L 263.5,281.7 L 266.1,282.5 L 268.7,283.2 L 271.2,283.9 L 273.8,284.6 L 276.4,285.3 L 279.0,285.9 L 281.6,286.6 L 284.1,287.2 L 286.7,287.9 L 289.3,288.5 L 291.9,289.1 L 294.5,289.7 L 297.0,290.3 L 299.6,290.9 L 302.2,291.4 L 304.8,292.0 L 307.4,292.5 L 309.9,293.1 L 312.5,293.6 L 315.1,294.2 L 317.7,294.7 L 320.3,295.2 L 322.8,295.7 L 325.4,296.2 L 328.0,296.7 L 330.6,297.2 L 333.2,297.7 L 335.7,298.2 L 338.3,298.7 L 340.9,299.1 L 343.5,299.6 L 346.1,300.1 L 348.6,300.5 L 351.2,301.0 L 353.8,301.5 L 356.4,301.9 L 358.9,302.4 L 361.5,302.8 L 364.1,303.2 L 366.7,303.7 L 369.3,304.1 L 371.8,304.6 L 374.4,305.0 L 377.0,305.4 L 379.6,305.8 L 382.2,306.3 L 384.7,306.7 L 387.3,307.1 L 389.9,307.5 L 392.5,307.9 L 395.1,308.4 L 397.6,308.8 L 400.2,309.2 L 402.8,309.6 L 405.4,310.0 L 408.0,310.4 L 410.5,310.8 L 413.1,311.2 L 415.7,311.6 L 418.3,312.0 L 420.9,312.4 L 423.4,312.8 L 426.0,313.2 L 428.6,313.6 L 431.2,314.0 L 433.8,314.4 L 436.3,314.8 L 438.9,315.2 L 441.5,315.6 L 444.1,316.0 L 446.7,316.4 L 449.2,316.8 L 451.8,317.2 L 454.4,317.6 L 457.0,318.0 L 459.6,318.4 L 462.1,318.8 L 464.7,319.2 L 467.3,319.6 L 469.9,320.0 L 472.5,320.4 L 475.0,320.8 L 477.6,321.2 L 480.2,321.6 L 482.8,322.1 L 485.4,322.5 L 487.9,322.9 L 490.5,323.3 L 493.1,323.7 L 495.7,324.1 L 498.3,324.6 L 500.8,325.0 L 503.4,325.4 L 506.0,325.9 L 508.6,326.3 L 511.2,326.7 L 513.7,327.2 L 516.3,327.6 L 518.9,328.1 L 521.5,328.6 L 524.1,329.1 L 526.6,329.5 L 529.2,330.0 L 531.8,330.5 L 534.4,331.0 L 537.0,331.6 L 539.5,332.1 L 542.1,332.6 L 544.7,333.2 L 547.3,333.7 L 549.9,334.3 L 552.4,334.9 L 555.0,335.5 L 557.6,336.1 L 560.2,336.7 L 562.8,337.3 L 565.3,337.9 L 567.9,338.5 L 570.5,339.1 L 573.1,339.7 L 575.7,340.2 L 578.2,340.8 L 580.8,341.4 L 583.4,341.9 L 586.0,342.4 L 588.6,342.9 L 591.1,343.4 L 593.7,343.9 L 596.3,344.3 L 598.9,344.8 L 601.5,345.2 L 604.0,345.6 L 606.6,346.0 L 609.2,346.4 L 611.8,346.7 L 614.4,347.1 L 616.9,347.4 L 619.5,347.7 L 622.1,348.0 L 624.7,348.3 L 627.3,348.6 L 629.8,348.9 L 632.4,349.1 L 635.0,349.4" class="sig"/>
<path d="M 75.7,296.9 L 81.3,271.9 L 87.0,254.9 L 92.6,242.7 L 98.2,233.9 L 103.9,227.8 L 109.5,224.1 L 115.2,222.5 L 120.8,220.8 L 126.5,218.5 L 132.2,215.7 L 137.8,212.7 L 143.4,209.4 L 149.1,206.0 L 154.8,202.5 L 160.4,199.0 L 166.1,195.6 L 171.7,192.2 L 177.3,189.0 L 183.0,185.8 L 188.7,182.6 L 194.3,179.6 L 200.0,176.6 L 205.6,173.8 L 211.2,171.0 L 216.9,168.3 L 222.6,165.6 L 228.2,163.1 L 233.9,160.6 L 239.5,158.2 L 245.2,155.8 L 250.8,153.5 L 256.4,151.3 L 262.1,149.2 L 267.8,147.1 L 273.4,145.1 L 279.1,143.2 L 284.7,141.3 L 290.4,139.4 L 296.0,137.5 L 301.6,135.7 L 307.3,133.8 L 312.9,132.0 L 318.6,130.2 L 324.2,128.4 L 329.9,126.7 L 335.6,124.9 L 341.2,123.2 L 346.8,121.4 L 352.5,119.7 L 358.1,118.1 L 363.8,116.4 L 369.4,114.7 L 375.1,113.1 L 380.8,111.5 L 386.4,109.9 L 392.0,108.3 L 397.7,106.8 L 403.3,105.2 L 409.0,103.7 L 414.6,102.2 L 420.3,100.7 L 425.9,99.2 L 431.6,97.8 L 437.2,96.4 L 442.9,94.9 L 448.5,93.6 L 454.2,92.2 L 459.9,90.8 L 465.5,89.5 L 471.1,88.1 L 476.8,86.8 L 482.4,85.5 L 488.1,84.2 L 493.8,83.0 L 499.4,81.7 L 505.1,80.5 L 510.7,79.3 L 516.4,78.1 L 522.0,76.9 L 527.6,75.7 L 533.3,74.6 L 539.0,73.4 L 544.6,72.3 L 550.2,71.2 L 555.9,70.1 L 561.5,69.3 L 567.2,68.8 L 572.8,68.6 L 578.5,68.6 L 584.1,68.9 L 589.8,69.5 L 595.5,70.3 L 601.1,71.4 L 606.8,72.7 L 612.4,74.2 L 618.0,75.7 L 623.7,77.2 L 629.4,78.7 L 635.0,80.1" class="nt"/>
<path d="M 74.7,323.7 L 79.4,289.4 L 84.1,256.6 L 88.8,228.3 L 93.5,205.3 L 98.2,187.9 L 103.0,175.8 L 107.7,168.6 L 112.4,165.7 L 117.1,166.0 L 121.8,168.4 L 126.5,171.6 L 131.2,174.9 L 135.9,177.8 L 140.6,180.1 L 145.3,181.6 L 150.0,182.5 L 154.8,182.7 L 159.5,182.4 L 164.2,181.7 L 168.9,180.8 L 173.6,179.6 L 178.3,178.4 L 183.0,177.1 L 187.7,175.7 L 192.4,174.3 L 197.1,173.0 L 201.8,171.6 L 206.5,170.3 L 211.2,169.1 L 216.0,167.9 L 220.7,166.7 L 225.4,165.7 L 230.1,164.8 L 234.8,164.0 L 239.5,163.3 L 244.2,162.8 L 248.9,162.5 L 253.6,162.3 L 258.3,162.3 L 263.0,162.6 L 267.8,163.1 L 272.5,163.8 L 277.2,164.7 L 281.9,165.7 L 286.6,166.8 L 291.3,167.9 L 296.0,168.9 L 300.7,169.8 L 305.4,170.5 L 310.1,171.1 L 314.8,171.5 L 319.5,171.9 L 324.2,172.2 L 329.0,172.3 L 333.7,172.4 L 338.4,172.4 L 343.1,172.3 L 347.8,172.1 L 352.5,171.9 L 357.2,171.7 L 361.9,171.3 L 366.6,170.9 L 371.3,170.5 L 376.0,170.0 L 380.7,169.5 L 385.5,168.9 L 390.2,168.3 L 394.9,167.6 L 399.6,166.9 L 404.3,166.1 L 409.0,165.3 L 413.7,164.4 L 418.4,163.5 L 423.1,162.5 L 427.8,161.5 L 432.5,160.4 L 437.2,159.3 L 442.0,158.0 L 446.7,156.7 L 451.4,155.4 L 456.1,153.9 L 460.8,152.4 L 465.5,150.7 L 470.2,148.9 L 474.9,147.0 L 479.6,145.0 L 484.3,142.8 L 489.0,140.4 L 493.7,137.8 L 498.5,135.0 L 503.2,131.9 L 507.9,128.6 L 512.6,124.8 L 517.3,120.8 L 522.0,116.3 L 526.7,111.3 L 531.4,105.9 L 536.1,100.0 L 540.8,93.8 L 545.5,87.6 L 550.2,81.8 L 555.0,76.8 L 559.7,73.4 L 564.4,71.8 L 569.1,72.1 L 573.8,74.4 L 578.5,78.3 L 583.2,83.9 L 587.9,90.5 L 592.6,98.0 L 597.3,106.1 L 602.0,114.4 L 606.8,122.5 L 611.5,130.4 L 616.2,137.9 L 620.9,144.8 L 625.6,151.3 L 630.3,157.2 L 635.0,162.7" class="fw"/>
<line x1="85.43580330346464" y1="213.26011491105353" x2="85.43580330346464" y2="235.14412803098642" class="err"/>
<line x1="82.43580330346464" y1="213.26011491105353" x2="88.43580330346464" y2="213.26011491105353" class="err"/>
<line x1="82.43580330346464" y1="235.14412803098642" x2="88.43580330346464" y2="235.14412803098642" class="err"/>
<circle cx="85.43580330346464" cy="224.20212147101995" r="2.5" class="obs"/>
<line x1="97.15772912038139" y1="171.38280304000548" x2="97.15772912038139" y2="177.25608597292864" class="err"/>
<line x1="94.15772912038139" y1="171.38280304000548" x2="100.15772912038139" y2="171.38280304000548" class="err"/>
<line x1="94.15772912038139" y1="177.25608597292864" x2="100.15772912038139" y2="177.25608597292864" class="err"/>
<circle cx="97.15772912038139" cy="174.31944450646705" r="2.5" class="obs"/>
<line x1="108.64753759438891" y1="163.20848049226583" x2="108.64753759438891" y2="169.33922240307055" class="err"/>
<line x1="105.64753759438891" y1="163.20848049226583" x2="111.64753759438891" y2="163.20848049226583" class="err"/>
<line x1="105.64753759438891" y1="169.33922240307055" x2="111.64753759438891" y2="169.33922240307055" class="err"/>
<circle cx="108.64753759438891" cy="166.2738514476682" r="2.5" class="obs"/>
<line x1="120.36946341130566" y1="167.43241684813523" x2="120.36946341130566" y2="173.160879106" class="err"/>
<line x1="117.36946341130566" y1="167.43241684813523" x2="123.36946341130566" y2="167.43241684813523" class="err"/>
<line x1="117.36946341130566" y1="173.160879106" x2="123.36946341130566" y2="173.160879106" class="err"/>
<circle cx="120.36946341130566" cy="170.29664797706764" r="2.5" class="obs"/>
<line x1="132.0913892282224" y1="168.52661750413188" x2="132.0913892282224" y2="175.2849156735229" class="err"/>
<line x1="129.0913892282224" y1="168.52661750413188" x2="135.0913892282224" y2="168.52661750413188" class="err"/>
<line x1="129.0913892282224" y1="175.2849156735229" x2="135.0913892282224" y2="175.2849156735229" class="err"/>
<circle cx="132.0913892282224" cy="171.90576658882742" r="2.5" class="obs"/>
<line x1="143.58119770222993" y1="173.84475451599792" x2="143.58119770222993" y2="181.23060894397526" class="err"/>
<line x1="140.58119770222993" y1="173.84475451599792" x2="146.58119770222993" y2="173.84475451599792" class="err"/>
<line x1="140.58119770222993" y1="181.23060894397526" x2="146.58119770222993" y2="181.23060894397526" class="err"/>
<circle cx="143.58119770222993" cy="177.53768172998662" r="2.5" class="obs"/>
<line x1="155.18706484769206" y1="173.81257214376274" x2="155.18706484769206" y2="181.26279131621047" class="err"/>
<line x1="152.18706484769206" y1="173.81257214376274" x2="158.18706484769206" y2="173.81257214376274" class="err"/>
<line x1="152.18706484769206" y1="181.26279131621047" x2="158.18706484769206" y2="181.26279131621047" class="err"/>
<circle cx="155.18706484769206" cy="177.53768172998662" r="2.5" class="obs"/>
<line x1="166.56081465024496" y1="161.11662629697813" x2="166.56081465024496" y2="171.43107659835826" class="err"/>
<line x1="163.56081465024496" y1="161.11662629697813" x2="169.56081465024496" y2="161.11662629697813" class="err"/>
<line x1="163.56081465024496" y1="171.43107659835826" x2="169.56081465024496" y2="171.43107659835826" class="err"/>
<circle cx="166.56081465024496" cy="166.2738514476682" r="2.5" class="obs"/>
<line x1="178.3987991386163" y1="159.32245904486598" x2="178.3987991386163" y2="171.61612523871062" class="err"/>
<line x1="175.3987991386163" y1="159.32245904486598" x2="181.3987991386163" y2="159.32245904486598" class="err"/>
<line x1="175.3987991386163" y1="171.61612523871062" x2="181.3987991386163" y2="171.61612523871062" class="err"/>
<circle cx="178.3987991386163" cy="165.46929214178832" r="2.5" class="obs"/>
<line x1="190.46890096989696" y1="163.01538625885462" x2="190.46890096989696" y2="177.5779096952806" class="err"/>
<line x1="187.46890096989696" y1="163.01538625885462" x2="193.46890096989696" y2="163.01538625885462" class="err"/>
<line x1="187.46890096989696" y1="177.5779096952806" x2="193.46890096989696" y2="177.5779096952806" class="err"/>
<circle cx="190.46890096989696" cy="170.29664797706764" r="2.5" class="obs"/>
<line x1="201.84265077244982" y1="152.1940635947702" x2="201.84265077244982" y2="172.30804624176733" class="err"/>
<line x1="198.84265077244982" y1="152.1940635947702" x2="204.84265077244982" y2="152.1940635947702" class="err"/>
<line x1="198.84265077244982" y1="172.30804624176733" x2="204.84265077244982" y2="172.30804624176733" class="err"/>
<circle cx="201.84265077244982" cy="162.25105491826875" r="2.5" class="obs"/>
<line x1="213.21640057500272" y1="160.86721291215537" x2="213.21640057500272" y2="174.89872720670058" class="err"/>
<line x1="210.21640057500272" y1="160.86721291215537" x2="216.21640057500272" y2="160.86721291215537" class="err"/>
<line x1="210.21640057500272" y1="174.89872720670058" x2="216.21640057500272" y2="174.89872720670058" class="err"/>
<circle cx="213.21640057500272" cy="167.88297005942798" r="2.5" class="obs"/>
<line x1="224.59015037755563" y1="162.70160812956152" x2="224.59015037755563" y2="169.84609476577486" class="err"/>
<line x1="221.59015037755563" y1="162.70160812956152" x2="227.59015037755563" y2="162.70160812956152" class="err"/>
<line x1="221.59015037755563" y1="169.84609476577486" x2="227.59015037755563" y2="169.84609476577486" class="err"/>
<circle cx="224.59015037755563" cy="166.2738514476682" r="2.5" class="obs"/>
<line x1="235.9639001801085" y1="166.04052924896303" x2="235.9639001801085" y2="180.98924115221132" class="err"/>
<line x1="232.9639001801085" y1="166.04052924896303" x2="238.9639001801085" y2="166.04052924896303" class="err"/>
<line x1="232.9639001801085" y1="180.98924115221132" x2="238.9639001801085" y2="180.98924115221132" class="err"/>
<circle cx="235.9639001801085" cy="173.51488520058717" r="2.5" class="obs"/>
<line x1="249.54276474029922" y1="156.63523096322712" x2="249.54276474029922" y2="172.69423470858965" class="err"/>
<line x1="246.54276474029922" y1="156.63523096322712" x2="252.54276474029922" y2="156.63523096322712" class="err"/>
<line x1="246.54276474029922" y1="172.69423470858965" x2="252.54276474029922" y2="172.69423470858965" class="err"/>
<circle cx="249.54276474029922" cy="164.66473283590844" r="2.5" class="obs"/>
<line x1="259.7559278283059" y1="158.91213379886725" x2="259.7559278283059" y2="168.80821326118982" class="err"/>
<line x1="256.7559278283059" y1="158.91213379886725" x2="262.7559278283059" y2="158.91213379886725" class="err"/>
<line x1="256.7559278283059" y1="168.80821326118982" x2="262.7559278283059" y2="168.80821326118982" class="err"/>
<circle cx="259.7559278283059" cy="163.86017353002853" r="2.5" class="obs"/>
<line x1="277.9771392466814" y1="155.8467628434649" x2="277.9771392466814" y2="167.04622838131286" class="err"/>
<line x1="274.9771392466814" y1="155.8467628434649" x2="280.9771392466814" y2="155.8467628434649" class="err"/>
<line x1="274.9771392466814" y1="167.04622838131286" x2="280.9771392466814" y2="167.04622838131286" class="err"/>
<circle cx="277.9771392466814" cy="161.44649561238887" r="2.5" class="obs"/>
<line x1="291.6720624783268" y1="145.03348577243924" x2="291.6720624783268" y2="169.8139123935397" class="err"/>
<line x1="288.6720624783268" y1="145.03348577243924" x2="294.6720624783268" y2="145.03348577243924" class="err"/>
<line x1="288.6720624783268" y1="169.8139123935397" x2="294.6720624783268" y2="169.8139123935397" class="err"/>
<circle cx="291.6720624783268" cy="157.42369908298946" r="2.5" class="obs"/>
<line x1="331.36412811580726" y1="155.40425522523094" x2="331.36412811580726" y2="165.87961738778705" class="err"/>
<line x1="328.36412811580726" y1="155.40425522523094" x2="334.36412811580726" y2="155.40425522523094" class="err"/>
<line x1="328.36412811580726" y1="165.87961738778705" x2="334.36412811580726" y2="165.87961738778705" class="err"/>
<circle cx="331.36412811580726" cy="160.641936306509" r="2.5" class="obs"/>
<line x1="372.33283913928864" y1="152.81357426029768" x2="372.33283913928864" y2="165.25206112920074" class="err"/>
<line x1="369.33283913928864" y1="152.81357426029768" x2="375.33283913928864" y2="152.81357426029768" class="err"/>
<line x1="369.33283913928864" y1="165.25206112920074" x2="375.33283913928864" y2="165.25206112920074" class="err"/>
<circle cx="372.33283913928864" cy="159.0328176947492" r="2.5" class="obs"/>
<line x1="412.1409634482237" y1="152.99862290065008" x2="412.1409634482237" y2="166.67613110060813" class="err"/>
<line x1="409.1409634482237" y1="152.99862290065008" x2="415.1409634482237" y2="152.99862290065008" class="err"/>
<line x1="409.1409634482237" y1="166.67613110060813" x2="415.1409634482237" y2="166.67613110060813" class="err"/>
<circle cx="412.1409634482237" cy="159.8373770006291" r="2.5" class="obs"/>
<line x1="452.99361580025044" y1="164.06131335649852" x2="452.99361580025044" y2="173.3137453741172" class="err"/>
<line x1="449.99361580025044" y1="164.06131335649852" x2="455.99361580025044" y2="164.06131335649852" class="err"/>
<line x1="449.99361580025044" y1="173.3137453741172" x2="455.99361580025044" y2="173.3137453741172" class="err"/>
<circle cx="452.99361580025044" cy="168.68752936530785" r="2.5" class="obs"/>
<line x1="492.8017401091856" y1="163.66707929661737" x2="492.8017401091856" y2="170.48974221047882" class="err"/>
<line x1="489.8017401091856" y1="163.66707929661737" x2="495.8017401091856" y2="163.66707929661737" class="err"/>
<line x1="489.8017401091856" y1="170.48974221047882" x2="495.8017401091856" y2="170.48974221047882" class="err"/>
<circle cx="492.8017401091856" cy="167.07841075354807" r="2.5" class="obs"/>
<g class="legend">
<line x1="82" y1="69" x2="106" y2="69" class="fw"/>
<text x="112" y="73" class="lbl-l">framework fit</text>
<line x1="82" y1="87" x2="106" y2="87" class="nt"/>
<text x="112" y="91" class="lbl-l">Newtonian (no halo)</text>
<circle cx="94" cy="105" r="2.5" class="obs"/>
<text x="112" y="109" class="lbl">observed V±err</text>
</g>
<g class="legend">
<line x1="460" y1="69" x2="484" y2="69" class="rho"/>
<text x="490" y="73" class="lbl-r">ρ(r) raw</text>
<line x1="460" y1="87" x2="484" y2="87" class="sig"/>
<text x="490" y="91" class="lbl-r">Σ(r) smoothed</text>
<text x="460" y="113" class="lbl-r">ρ peak: 1160 M☉/pc²</text>
</g>
</svg>