<svg xmlns="http://www.w3.org/2000/svg" viewBox="0 0 720 420" width="720" height="420" font-family="sans-serif" font-size="12">
<style>
  .ax { stroke: #333; stroke-width: 1; fill: none; }
  .grid { stroke: #ddd; stroke-width: 0.5; fill: none; }
  .lbl { fill: #333; }
  .lbl-l { fill: #0066cc; }
  .lbl-r { fill: #b03030; }
  .obs { fill: #222; }
  .err { stroke: #555; stroke-width: 0.8; fill: none; }
  .fw { stroke: #0066cc; stroke-width: 2.2; fill: none; }
  .nt { stroke: #cc6600; stroke-width: 1.6; fill: none; stroke-dasharray: 5,3; }
  .rho { stroke: #b03030; stroke-width: 2.0; fill: none; }
  .sig { stroke: #b03030; stroke-width: 1.6; fill: none; stroke-dasharray: 4,2; opacity: 0.85; }
  .title { fill: #111; font-size: 16px; font-weight: 600; }
  .subtitle { fill: #555; font-size: 11px; }
  .legend { font-size: 11px; }
</style>
<text x="360.0" y="22" text-anchor="middle" class="title">NGC7331</text>
<text x="360.0" y="38" text-anchor="middle" class="subtitle">rMax=36.3 kpc, N=36, RMS=5.1 km/s (2.1%), amp=444</text>
<line x1="70" y1="365.0" x2="635" y2="365.0" class="grid"/>
<text x="64" y="369.0" text-anchor="end" class="lbl-l">0</text>
<line x1="70" y1="303.0" x2="635" y2="303.0" class="grid"/>
<text x="64" y="307.0" text-anchor="end" class="lbl-l">58</text>
<line x1="70" y1="241.00000000000003" x2="635" y2="241.00000000000003" class="grid"/>
<text x="64" y="245.00000000000003" text-anchor="end" class="lbl-l">115</text>
<line x1="70" y1="178.99999999999997" x2="635" y2="178.99999999999997" class="grid"/>
<text x="64" y="182.99999999999997" text-anchor="end" class="lbl-l">173</text>
<line x1="70" y1="117.00000000000003" x2="635" y2="117.00000000000003" class="grid"/>
<text x="64" y="121.00000000000003" text-anchor="end" class="lbl-l">231</text>
<line x1="70" y1="55.0" x2="635" y2="55.0" class="grid"/>
<text x="64" y="59.0" text-anchor="end" class="lbl-l">289</text>
<text x="641" y="369.0" text-anchor="start" class="lbl-r">0.0</text>
<text x="641" y="327.6666666666667" text-anchor="start" class="lbl-r">0.2</text>
<text x="641" y="286.33333333333337" text-anchor="start" class="lbl-r">0.4</text>
<text x="641" y="245.00000000000003" text-anchor="start" class="lbl-r">0.6</text>
<text x="641" y="203.66666666666666" text-anchor="start" class="lbl-r">0.8</text>
<text x="641" y="162.33333333333334" text-anchor="start" class="lbl-r">1.0</text>
<line x1="70.0" y1="55" x2="70.0" y2="365" class="grid"/>
<text x="70.0" y="381" text-anchor="middle" class="lbl">0.0</text>
<line x1="164.16666666666666" y1="55" x2="164.16666666666666" y2="365" class="grid"/>
<text x="164.16666666666666" y="381" text-anchor="middle" class="lbl">6.7</text>
<line x1="258.3333333333333" y1="55" x2="258.3333333333333" y2="365" class="grid"/>
<text x="258.3333333333333" y="381" text-anchor="middle" class="lbl">13.3</text>
<line x1="352.5" y1="55" x2="352.5" y2="365" class="grid"/>
<text x="352.5" y="381" text-anchor="middle" class="lbl">20.0</text>
<line x1="446.66666666666663" y1="55" x2="446.66666666666663" y2="365" class="grid"/>
<text x="446.66666666666663" y="381" text-anchor="middle" class="lbl">26.7</text>
<line x1="540.8333333333334" y1="55" x2="540.8333333333334" y2="365" class="grid"/>
<text x="540.8333333333334" y="381" text-anchor="middle" class="lbl">33.4</text>
<line x1="635.0" y1="55" x2="635.0" y2="365" class="grid"/>
<text x="635.0" y="381" text-anchor="middle" class="lbl">40.0</text>
<text x="352.5" y="408" text-anchor="middle" class="lbl">radius (kpc)</text>
<text x="16" y="210.0" text-anchor="middle" class="lbl-l" transform="rotate(-90, 16, 210.0)">velocity (km/s)</text>
<text x="704" y="210.0" text-anchor="middle" class="lbl-r" transform="rotate(-90, 704, 210.0)">mass profile (normalized to peak)</text>
<rect x="70" y="55" width="565" height="310" class="ax"/>
<path d="M 70.0,158.3 L 72.6,164.8 L 75.2,171.3 L 77.7,177.8 L 80.3,184.3 L 82.9,190.7 L 85.5,197.2 L 88.1,203.7 L 90.6,210.2 L 93.2,216.7 L 95.8,223.1 L 98.4,229.6 L 101.0,236.1 L 103.5,242.6 L 106.1,249.1 L 108.7,255.5 L 111.3,262.0 L 113.9,268.5 L 116.4,275.0 L 119.0,281.5 L 121.6,288.1 L 124.2,294.8 L 126.8,298.2 L 129.3,298.6 L 131.9,299.0 L 134.5,299.4 L 137.1,299.8 L 139.7,300.2 L 142.2,300.6 L 144.8,301.0 L 147.4,301.4 L 150.0,301.9 L 152.6,302.3 L 155.1,302.7 L 157.7,303.1 L 160.3,303.5 L 162.9,303.9 L 165.5,304.3 L 168.0,304.7 L 170.6,305.1 L 173.2,305.5 L 175.8,305.9 L 178.4,306.3 L 180.9,306.7 L 183.5,307.1 L 186.1,307.5 L 188.7,307.9 L 191.3,308.3 L 193.8,308.8 L 196.4,309.2 L 199.0,309.6 L 201.6,310.0 L 204.2,310.4 L 206.7,310.8 L 209.3,311.2 L 211.9,311.6 L 214.5,312.0 L 217.1,312.4 L 219.6,312.8 L 222.2,313.2 L 224.8,313.6 L 227.4,314.0 L 230.0,314.4 L 232.5,314.8 L 235.1,315.2 L 237.7,315.7 L 240.3,316.1 L 242.9,316.5 L 245.4,316.9 L 248.0,317.3 L 250.6,317.7 L 253.2,317.9 L 255.8,318.1 L 258.3,318.3 L 260.9,318.5 L 263.5,318.7 L 266.1,318.9 L 268.7,319.1 L 271.2,319.3 L 273.8,319.5 L 276.4,319.7 L 279.0,319.9 L 281.6,320.1 L 284.1,320.3 L 286.7,320.5 L 289.3,320.7 L 291.9,320.9 L 294.5,321.1 L 297.0,321.3 L 299.6,321.5 L 302.2,321.7 L 304.8,321.9 L 307.4,322.1 L 309.9,322.3 L 312.5,322.5 L 315.1,322.7 L 317.7,322.9 L 320.3,323.1 L 322.8,323.3 L 325.4,323.5 L 328.0,323.7 L 330.6,323.9 L 333.2,324.1 L 335.7,324.3 L 338.3,324.5 L 340.9,324.7 L 343.5,324.9 L 346.1,325.1 L 348.6,325.3 L 351.2,325.5 L 353.8,325.7 L 356.4,325.9 L 358.9,326.1 L 361.5,326.3 L 364.1,326.5 L 366.7,326.6 L 369.3,326.8 L 371.8,327.0 L 374.4,327.2 L 377.0,327.4 L 379.6,327.6 L 382.2,327.8 L 384.7,328.0 L 387.3,328.2 L 389.9,328.4 L 392.5,328.6 L 395.1,328.8 L 397.6,329.0 L 400.2,329.2 L 402.8,329.4 L 405.4,329.6 L 408.0,329.8 L 410.5,330.0 L 413.1,330.2 L 415.7,330.4 L 418.3,330.6 L 420.9,330.8 L 423.4,331.0 L 426.0,331.2 L 428.6,331.4 L 431.2,331.6 L 433.8,331.8 L 436.3,332.0 L 438.9,332.2 L 441.5,332.4 L 444.1,332.6 L 446.7,332.8 L 449.2,333.0 L 451.8,333.2 L 454.4,333.4 L 457.0,333.6 L 459.6,333.8 L 462.1,334.0 L 464.7,334.2 L 467.3,334.4 L 469.9,334.6 L 472.5,334.8 L 475.0,335.0 L 477.6,335.1 L 480.2,335.3 L 482.8,335.5 L 485.4,335.7 L 487.9,335.9 L 490.5,336.1 L 493.1,336.3 L 495.7,336.5 L 498.3,336.7 L 500.8,336.9 L 503.4,337.1 L 506.0,337.3 L 508.6,337.5 L 511.2,337.7 L 513.7,337.9 L 516.3,338.1 L 518.9,338.3 L 521.5,338.5 L 524.1,338.7 L 526.6,338.9 L 529.2,339.1 L 531.8,339.3 L 534.4,339.5 L 537.0,339.7 L 539.5,339.9 L 542.1,340.1 L 544.7,340.3 L 547.3,340.5 L 549.9,340.7 L 552.4,340.9 L 555.0,341.1 L 557.6,341.3 L 560.2,341.5 L 562.8,341.7 L 565.3,341.9 L 567.9,342.1 L 570.5,342.3 L 573.1,342.9 L 575.7,344.6 L 578.2,346.2 L 580.8,347.8 L 583.4,349.4 L 586.0,351.1 L 588.6,352.7 L 591.1,354.3 L 593.7,355.9 L 596.3,357.6 L 598.9,359.2 L 601.5,360.8 L 604.0,362.4 L 606.6,364.1 L 609.2,365.0 L 611.8,365.0 L 614.4,365.0 L 616.9,365.0 L 619.5,365.0 L 622.1,365.0 L 624.7,365.0 L 627.3,365.0 L 629.8,365.0 L 632.4,365.0 L 635.0,365.0" class="rho"/>
<path d="M 70.0,158.3 L 72.6,158.8 L 75.2,159.6 L 77.7,160.8 L 80.3,162.3 L 82.9,164.2 L 85.5,166.5 L 88.1,169.0 L 90.6,171.9 L 93.2,174.9 L 95.8,178.2 L 98.4,181.6 L 101.0,185.1 L 103.5,188.7 L 106.1,192.3 L 108.7,195.9 L 111.3,199.5 L 113.9,203.1 L 116.4,206.6 L 119.0,209.9 L 121.6,213.2 L 124.2,216.4 L 126.8,219.5 L 129.3,222.4 L 131.9,225.2 L 134.5,227.8 L 137.1,230.4 L 139.7,232.9 L 142.2,235.2 L 144.8,237.4 L 147.4,239.5 L 150.0,241.6 L 152.6,243.6 L 155.1,245.5 L 157.7,247.3 L 160.3,249.1 L 162.9,250.8 L 165.5,252.5 L 168.0,254.1 L 170.6,255.7 L 173.2,257.2 L 175.8,258.7 L 178.4,260.2 L 180.9,261.6 L 183.5,263.0 L 186.1,264.3 L 188.7,265.7 L 191.3,267.0 L 193.8,268.2 L 196.4,269.5 L 199.0,270.7 L 201.6,271.9 L 204.2,273.1 L 206.7,274.3 L 209.3,275.4 L 211.9,276.5 L 214.5,277.6 L 217.1,278.7 L 219.6,279.8 L 222.2,280.8 L 224.8,281.8 L 227.4,282.8 L 230.0,283.8 L 232.5,284.8 L 235.1,285.8 L 237.7,286.7 L 240.3,287.6 L 242.9,288.6 L 245.4,289.5 L 248.0,290.3 L 250.6,291.2 L 253.2,292.0 L 255.8,292.9 L 258.3,293.7 L 260.9,294.5 L 263.5,295.3 L 266.1,296.1 L 268.7,296.8 L 271.2,297.6 L 273.8,298.3 L 276.4,299.1 L 279.0,299.8 L 281.6,300.5 L 284.1,301.2 L 286.7,301.9 L 289.3,302.6 L 291.9,303.3 L 294.5,303.9 L 297.0,304.6 L 299.6,305.2 L 302.2,305.9 L 304.8,306.5 L 307.4,307.1 L 309.9,307.7 L 312.5,308.3 L 315.1,308.9 L 317.7,309.5 L 320.3,310.1 L 322.8,310.7 L 325.4,311.3 L 328.0,311.9 L 330.6,312.4 L 333.2,313.0 L 335.7,313.5 L 338.3,314.1 L 340.9,314.6 L 343.5,315.2 L 346.1,315.7 L 348.6,316.2 L 351.2,316.8 L 353.8,317.3 L 356.4,317.8 L 358.9,318.3 L 361.5,318.8 L 364.1,319.3 L 366.7,319.8 L 369.3,320.3 L 371.8,320.8 L 374.4,321.3 L 377.0,321.7 L 379.6,322.2 L 382.2,322.7 L 384.7,323.1 L 387.3,323.6 L 389.9,324.1 L 392.5,324.5 L 395.1,325.0 L 397.6,325.4 L 400.2,325.8 L 402.8,326.3 L 405.4,326.7 L 408.0,327.2 L 410.5,327.6 L 413.1,328.0 L 415.7,328.4 L 418.3,328.8 L 420.9,329.3 L 423.4,329.7 L 426.0,330.1 L 428.6,330.5 L 431.2,330.9 L 433.8,331.3 L 436.3,331.7 L 438.9,332.1 L 441.5,332.4 L 444.1,332.8 L 446.7,333.2 L 449.2,333.6 L 451.8,334.0 L 454.4,334.3 L 457.0,334.7 L 459.6,335.1 L 462.1,335.4 L 464.7,335.8 L 467.3,336.2 L 469.9,336.5 L 472.5,336.9 L 475.0,337.2 L 477.6,337.6 L 480.2,337.9 L 482.8,338.2 L 485.4,338.6 L 487.9,338.9 L 490.5,339.2 L 493.1,339.6 L 495.7,339.9 L 498.3,340.2 L 500.8,340.6 L 503.4,340.9 L 506.0,341.2 L 508.6,341.5 L 511.2,341.8 L 513.7,342.1 L 516.3,342.4 L 518.9,342.8 L 521.5,343.1 L 524.1,343.4 L 526.6,343.7 L 529.2,344.0 L 531.8,344.3 L 534.4,344.6 L 537.0,344.9 L 539.5,345.2 L 542.1,345.5 L 544.7,345.8 L 547.3,346.1 L 549.9,346.4 L 552.4,346.7 L 555.0,346.9 L 557.6,347.2 L 560.2,347.5 L 562.8,347.8 L 565.3,348.1 L 567.9,348.4 L 570.5,348.7 L 573.1,349.0 L 575.7,349.3 L 578.2,349.6 L 580.8,349.9 L 583.4,350.2 L 586.0,350.4 L 588.6,350.7 L 591.1,351.0 L 593.7,351.2 L 596.3,351.5 L 598.9,351.7 L 601.5,351.9 L 604.0,352.2 L 606.6,352.4 L 609.2,352.6 L 611.8,352.8 L 614.4,353.0 L 616.9,353.2 L 619.5,353.4 L 622.1,353.5 L 624.7,353.7 L 627.3,353.9 L 629.8,354.0 L 632.4,354.2 L 635.0,354.4" class="sig"/>
<path d="M 75.7,295.7 L 81.3,269.3 L 86.9,250.8 L 92.6,236.7 L 98.2,225.6 L 103.9,216.9 L 109.6,210.2 L 115.2,205.2 L 120.8,201.7 L 126.5,199.7 L 132.2,197.9 L 137.8,195.7 L 143.4,193.3 L 149.1,190.7 L 154.8,188.1 L 160.4,185.4 L 166.1,182.6 L 171.7,179.9 L 177.3,177.2 L 183.0,174.5 L 188.6,171.9 L 194.3,169.3 L 199.9,166.8 L 205.6,164.3 L 211.2,161.9 L 216.9,159.6 L 222.6,157.3 L 228.2,155.1 L 233.9,153.0 L 239.5,151.0 L 245.2,149.0 L 250.8,147.1 L 256.4,145.2 L 262.1,143.4 L 267.8,141.5 L 273.4,139.7 L 279.1,137.9 L 284.7,136.2 L 290.4,134.4 L 296.0,132.7 L 301.6,131.1 L 307.3,129.4 L 313.0,127.8 L 318.6,126.2 L 324.2,124.6 L 329.9,123.1 L 335.6,121.6 L 341.2,120.1 L 346.9,118.7 L 352.5,117.3 L 358.2,115.9 L 363.8,114.5 L 369.4,113.2 L 375.1,111.9 L 380.8,110.6 L 386.4,109.4 L 392.1,108.2 L 397.7,107.0 L 403.3,105.8 L 409.0,104.7 L 414.6,103.6 L 420.3,102.5 L 425.9,101.4 L 431.6,100.4 L 437.2,99.4 L 442.9,98.5 L 448.6,97.5 L 454.2,96.6 L 459.8,95.7 L 465.5,94.9 L 471.1,94.0 L 476.8,93.2 L 482.5,92.4 L 488.1,91.7 L 493.8,90.9 L 499.4,90.2 L 505.1,89.6 L 510.7,88.9 L 516.4,88.3 L 522.0,87.7 L 527.7,87.1 L 533.3,86.5 L 539.0,86.0 L 544.6,85.5 L 550.2,85.0 L 555.9,84.6 L 561.6,84.1 L 567.2,83.7 L 572.9,83.3 L 578.5,83.1 L 584.1,83.2 L 589.8,83.6 L 595.4,84.3 L 601.1,85.3 L 606.8,86.5 L 612.4,88.0 L 618.1,89.4 L 623.7,90.8 L 629.4,92.2 L 635.0,93.6" class="nt"/>
<path d="M 74.7,318.1 L 79.4,282.7 L 84.1,245.7 L 88.8,211.5 L 93.5,181.5 L 98.2,155.5 L 103.0,134.2 L 107.7,117.0 L 112.4,104.2 L 117.1,95.3 L 121.8,90.0 L 126.5,87.7 L 131.2,87.4 L 135.9,88.5 L 140.6,90.3 L 145.3,92.2 L 150.0,94.0 L 154.8,95.5 L 159.5,96.7 L 164.2,97.6 L 168.9,98.3 L 173.6,98.6 L 178.3,98.8 L 183.0,98.8 L 187.7,98.7 L 192.4,98.5 L 197.1,98.3 L 201.8,98.0 L 206.5,97.7 L 211.2,97.5 L 216.0,97.3 L 220.7,97.2 L 225.4,97.3 L 230.1,97.4 L 234.8,97.7 L 239.5,98.2 L 244.2,98.8 L 248.9,99.5 L 253.6,100.3 L 258.3,101.2 L 263.0,102.0 L 267.8,102.7 L 272.5,103.4 L 277.2,104.1 L 281.9,104.6 L 286.6,105.0 L 291.3,105.4 L 296.0,105.8 L 300.7,106.0 L 305.4,106.3 L 310.1,106.4 L 314.8,106.6 L 319.5,106.7 L 324.2,106.8 L 329.0,106.9 L 333.7,107.0 L 338.4,107.0 L 343.1,107.1 L 347.8,107.1 L 352.5,107.2 L 357.2,107.2 L 361.9,107.3 L 366.6,107.3 L 371.3,107.4 L 376.0,107.4 L 380.8,107.5 L 385.5,107.6 L 390.2,107.7 L 394.9,107.8 L 399.6,107.9 L 404.3,108.1 L 409.0,108.3 L 413.7,108.4 L 418.4,108.6 L 423.1,108.8 L 427.8,109.1 L 432.5,109.3 L 437.2,109.6 L 442.0,109.9 L 446.7,110.1 L 451.4,110.4 L 456.1,110.8 L 460.8,111.1 L 465.5,111.4 L 470.2,111.7 L 474.9,112.1 L 479.6,112.4 L 484.3,112.8 L 489.0,113.1 L 493.8,113.4 L 498.5,113.7 L 503.2,113.9 L 507.9,114.1 L 512.6,114.2 L 517.3,114.3 L 522.0,114.3 L 526.7,114.2 L 531.4,113.9 L 536.1,113.5 L 540.8,113.0 L 545.5,112.2 L 550.2,111.2 L 555.0,110.1 L 559.7,108.9 L 564.4,107.9 L 569.1,107.2 L 573.8,107.2 L 578.5,108.2 L 583.2,110.4 L 587.9,113.8 L 592.6,118.4 L 597.3,123.9 L 602.0,129.9 L 606.8,136.2 L 611.5,142.6 L 616.2,148.7 L 620.9,154.5 L 625.6,160.0 L 630.3,165.0 L 635.0,169.7" class="fw"/>
<line x1="107.6838149195233" y1="106.2132214850935" x2="107.6838149195233" y2="149.16538389420663" class="err"/>
<line x1="104.6838149195233" y1="106.2132214850935" x2="110.6838149195233" y2="106.2132214850935" class="err"/>
<line x1="104.6838149195233" y1="149.16538389420663" x2="110.6838149195233" y2="149.16538389420663" class="err"/>
<circle cx="107.6838149195233" cy="127.68930268965003" r="2.5" class="obs"/>
<line x1="115.3052606335842" y1="96.54898494304302" x2="115.3052606335842" y2="124.46789050896658" class="err"/>
<line x1="112.3052606335842" y1="96.54898494304302" x2="118.3052606335842" y2="96.54898494304302" class="err"/>
<line x1="112.3052606335842" y1="124.46789050896658" x2="118.3052606335842" y2="124.46789050896658" class="err"/>
<circle cx="115.3052606335842" cy="110.5084377260048" r="2.5" class="obs"/>
<line x1="122.78556846405137" y1="89.03235652144826" x2="122.78556846405137" y2="106.2132214850935" class="err"/>
<line x1="119.78556846405137" y1="89.03235652144826" x2="125.78556846405137" y2="89.03235652144826" class="err"/>
<line x1="119.78556846405137" y1="106.2132214850935" x2="125.78556846405137" y2="106.2132214850935" class="err"/>
<circle cx="122.78556846405137" cy="97.62278900327088" r="2.5" class="obs"/>
<line x1="130.26587629451853" y1="91.17996464190392" x2="130.26587629451853" y2="101.91800524418218" class="err"/>
<line x1="127.26587629451853" y1="91.17996464190392" x2="133.26587629451853" y2="91.17996464190392" class="err"/>
<line x1="127.26587629451853" y1="101.91800524418218" x2="133.26587629451853" y2="101.91800524418218" class="err"/>
<circle cx="130.26587629451853" cy="96.54898494304302" r="2.5" class="obs"/>
<line x1="137.88732200857942" y1="87.95855246122042" x2="137.88732200857942" y2="98.69659306349868" class="err"/>
<line x1="134.88732200857942" y1="87.95855246122042" x2="140.88732200857942" y2="87.95855246122042" class="err"/>
<line x1="134.88732200857942" y1="98.69659306349868" x2="140.88732200857942" y2="98.69659306349868" class="err"/>
<circle cx="137.88732200857942" cy="93.32757276235958" r="2.5" class="obs"/>
<line x1="145.5087677226403" y1="83.6633362203091" x2="145.5087677226403" y2="94.40137682258738" class="err"/>
<line x1="142.5087677226403" y1="83.6633362203091" x2="148.5087677226403" y2="83.6633362203091" class="err"/>
<line x1="142.5087677226403" y1="94.40137682258738" x2="148.5087677226403" y2="94.40137682258738" class="err"/>
<circle cx="145.5087677226403" cy="89.03235652144826" r="2.5" class="obs"/>
<line x1="152.9890755531075" y1="83.6633362203091" x2="152.9890755531075" y2="94.40137682258738" class="err"/>
<line x1="149.9890755531075" y1="83.6633362203091" x2="155.9890755531075" y2="83.6633362203091" class="err"/>
<line x1="149.9890755531075" y1="94.40137682258738" x2="155.9890755531075" y2="94.40137682258738" class="err"/>
<circle cx="152.9890755531075" cy="89.03235652144826" r="2.5" class="obs"/>
<line x1="160.46938338357467" y1="83.6633362203091" x2="160.46938338357467" y2="94.40137682258738" class="err"/>
<line x1="157.46938338357467" y1="83.6633362203091" x2="163.46938338357467" y2="83.6633362203091" class="err"/>
<line x1="157.46938338357467" y1="94.40137682258738" x2="163.46938338357467" y2="94.40137682258738" class="err"/>
<circle cx="160.46938338357467" cy="89.03235652144826" r="2.5" class="obs"/>
<line x1="175.57113692810273" y1="83.6633362203091" x2="175.57113692810273" y2="94.40137682258738" class="err"/>
<line x1="172.57113692810273" y1="83.6633362203091" x2="178.57113692810273" y2="83.6633362203091" class="err"/>
<line x1="172.57113692810273" y1="94.40137682258738" x2="178.57113692810273" y2="94.40137682258738" class="err"/>
<circle cx="175.57113692810273" cy="89.03235652144826" r="2.5" class="obs"/>
<line x1="190.6728904726308" y1="85.81094434076476" x2="190.6728904726308" y2="96.54898494304302" class="err"/>
<line x1="187.6728904726308" y1="85.81094434076476" x2="193.6728904726308" y2="85.81094434076476" class="err"/>
<line x1="187.6728904726308" y1="96.54898494304302" x2="193.6728904726308" y2="96.54898494304302" class="err"/>
<circle cx="190.6728904726308" cy="91.17996464190392" r="2.5" class="obs"/>
<line x1="205.77464401715886" y1="92.25376870213172" x2="205.77464401715886" y2="105.13941742486568" class="err"/>
<line x1="202.77464401715886" y1="92.25376870213172" x2="208.77464401715886" y2="92.25376870213172" class="err"/>
<line x1="202.77464401715886" y1="105.13941742486568" x2="208.77464401715886" y2="105.13941742486568" class="err"/>
<circle cx="205.77464401715886" cy="98.69659306349868" r="2.5" class="obs"/>
<line x1="220.45298391090577" y1="93.32757276235958" x2="220.45298391090577" y2="106.2132214850935" class="err"/>
<line x1="217.45298391090577" y1="93.32757276235958" x2="223.45298391090577" y2="93.32757276235958" class="err"/>
<line x1="217.45298391090577" y1="106.2132214850935" x2="223.45298391090577" y2="106.2132214850935" class="err"/>
<circle cx="220.45298391090577" cy="99.77039712372653" r="2.5" class="obs"/>
<line x1="235.69587533902757" y1="94.40137682258738" x2="235.69587533902757" y2="107.28702554532134" class="err"/>
<line x1="232.69587533902757" y1="94.40137682258738" x2="238.69587533902757" y2="94.40137682258738" class="err"/>
<line x1="232.69587533902757" y1="107.28702554532134" x2="238.69587533902757" y2="107.28702554532134" class="err"/>
<circle cx="235.69587533902757" cy="100.84420118395434" r="2.5" class="obs"/>
<line x1="251.07990465074303" y1="96.54898494304302" x2="251.07990465074303" y2="109.434633665777" class="err"/>
<line x1="248.07990465074303" y1="96.54898494304302" x2="254.07990465074303" y2="96.54898494304302" class="err"/>
<line x1="248.07990465074303" y1="109.434633665777" x2="254.07990465074303" y2="109.434633665777" class="err"/>
<circle cx="251.07990465074303" cy="102.99180930441" r="2.5" class="obs"/>
<line x1="266.3227960788648" y1="100.84420118395434" x2="266.3227960788648" y2="109.434633665777" class="err"/>
<line x1="263.3227960788648" y1="100.84420118395434" x2="269.3227960788648" y2="100.84420118395434" class="err"/>
<line x1="263.3227960788648" y1="109.434633665777" x2="269.3227960788648" y2="109.434633665777" class="err"/>
<circle cx="266.3227960788648" cy="105.13941742486568" r="2.5" class="obs"/>
<line x1="281.7068253905803" y1="106.2132214850935" x2="281.7068253905803" y2="112.65604584646046" class="err"/>
<line x1="278.7068253905803" y1="106.2132214850935" x2="284.7068253905803" y2="106.2132214850935" class="err"/>
<line x1="278.7068253905803" y1="112.65604584646046" x2="284.7068253905803" y2="112.65604584646046" class="err"/>
<circle cx="281.7068253905803" cy="109.434633665777" r="2.5" class="obs"/>
<line x1="296.9497168187021" y1="108.36082960554916" x2="296.9497168187021" y2="114.8036539669161" class="err"/>
<line x1="293.9497168187021" y1="108.36082960554916" x2="299.9497168187021" y2="108.36082960554916" class="err"/>
<line x1="293.9497168187021" y1="114.8036539669161" x2="299.9497168187021" y2="114.8036539669161" class="err"/>
<circle cx="296.9497168187021" cy="111.58224178623264" r="2.5" class="obs"/>
<line x1="310.9223672944804" y1="111.58224178623264" x2="310.9223672944804" y2="118.0250661475996" class="err"/>
<line x1="307.9223672944804" y1="111.58224178623264" x2="313.9223672944804" y2="111.58224178623264" class="err"/>
<line x1="307.9223672944804" y1="118.0250661475996" x2="313.9223672944804" y2="118.0250661475996" class="err"/>
<circle cx="310.9223672944804" cy="114.8036539669161" r="2.5" class="obs"/>
<line x1="326.1652587226022" y1="110.5084377260048" x2="326.1652587226022" y2="116.95126208737176" class="err"/>
<line x1="323.1652587226022" y1="110.5084377260048" x2="329.1652587226022" y2="110.5084377260048" class="err"/>
<line x1="323.1652587226022" y1="116.95126208737176" x2="329.1652587226022" y2="116.95126208737176" class="err"/>
<circle cx="326.1652587226022" cy="113.7298499066883" r="2.5" class="obs"/>
<line x1="341.5492880343177" y1="108.36082960554916" x2="341.5492880343177" y2="114.8036539669161" class="err"/>
<line x1="338.5492880343177" y1="108.36082960554916" x2="344.5492880343177" y2="108.36082960554916" class="err"/>
<line x1="338.5492880343177" y1="114.8036539669161" x2="344.5492880343177" y2="114.8036539669161" class="err"/>
<circle cx="341.5492880343177" cy="111.58224178623264" r="2.5" class="obs"/>
<line x1="356.7921794624395" y1="107.28702554532134" x2="356.7921794624395" y2="113.7298499066883" class="err"/>
<line x1="353.7921794624395" y1="107.28702554532134" x2="359.7921794624395" y2="107.28702554532134" class="err"/>
<line x1="353.7921794624395" y1="113.7298499066883" x2="359.7921794624395" y2="113.7298499066883" class="err"/>
<circle cx="356.7921794624395" cy="110.5084377260048" r="2.5" class="obs"/>
<line x1="372.17620877415504" y1="106.2132214850935" x2="372.17620877415504" y2="112.65604584646046" class="err"/>
<line x1="369.17620877415504" y1="106.2132214850935" x2="375.17620877415504" y2="106.2132214850935" class="err"/>
<line x1="369.17620877415504" y1="112.65604584646046" x2="375.17620877415504" y2="112.65604584646046" class="err"/>
<circle cx="372.17620877415504" cy="109.434633665777" r="2.5" class="obs"/>
<line x1="387.41910020227675" y1="104.06561336463784" x2="387.41910020227675" y2="110.5084377260048" class="err"/>
<line x1="384.41910020227675" y1="104.06561336463784" x2="390.41910020227675" y2="104.06561336463784" class="err"/>
<line x1="384.41910020227675" y1="110.5084377260048" x2="390.41910020227675" y2="110.5084377260048" class="err"/>
<circle cx="387.41910020227675" cy="107.28702554532134" r="2.5" class="obs"/>
<line x1="401.39175067805513" y1="106.2132214850935" x2="401.39175067805513" y2="112.65604584646046" class="err"/>
<line x1="398.39175067805513" y1="106.2132214850935" x2="404.39175067805513" y2="106.2132214850935" class="err"/>
<line x1="398.39175067805513" y1="112.65604584646046" x2="404.39175067805513" y2="112.65604584646046" class="err"/>
<circle cx="401.39175067805513" cy="109.434633665777" r="2.5" class="obs"/>
<line x1="416.77577998977057" y1="107.28702554532134" x2="416.77577998977057" y2="113.7298499066883" class="err"/>
<line x1="413.77577998977057" y1="107.28702554532134" x2="419.77577998977057" y2="107.28702554532134" class="err"/>
<line x1="413.77577998977057" y1="113.7298499066883" x2="419.77577998977057" y2="113.7298499066883" class="err"/>
<circle cx="416.77577998977057" cy="110.5084377260048" r="2.5" class="obs"/>
<line x1="432.0186714178924" y1="108.36082960554916" x2="432.0186714178924" y2="114.8036539669161" class="err"/>
<line x1="429.0186714178924" y1="108.36082960554916" x2="435.0186714178924" y2="108.36082960554916" class="err"/>
<line x1="429.0186714178924" y1="114.8036539669161" x2="435.0186714178924" y2="114.8036539669161" class="err"/>
<circle cx="432.0186714178924" cy="111.58224178623264" r="2.5" class="obs"/>
<line x1="447.4027007296079" y1="106.2132214850935" x2="447.4027007296079" y2="112.65604584646046" class="err"/>
<line x1="444.4027007296079" y1="106.2132214850935" x2="450.4027007296079" y2="106.2132214850935" class="err"/>
<line x1="444.4027007296079" y1="112.65604584646046" x2="450.4027007296079" y2="112.65604584646046" class="err"/>
<circle cx="447.4027007296079" cy="109.434633665777" r="2.5" class="obs"/>
<line x1="462.64559215772965" y1="105.13941742486568" x2="462.64559215772965" y2="111.58224178623264" class="err"/>
<line x1="459.64559215772965" y1="105.13941742486568" x2="465.64559215772965" y2="105.13941742486568" class="err"/>
<line x1="459.64559215772965" y1="111.58224178623264" x2="465.64559215772965" y2="111.58224178623264" class="err"/>
<circle cx="462.64559215772965" cy="108.36082960554916" r="2.5" class="obs"/>
<line x1="478.0296214694452" y1="105.13941742486568" x2="478.0296214694452" y2="111.58224178623264" class="err"/>
<line x1="475.0296214694452" y1="105.13941742486568" x2="481.0296214694452" y2="105.13941742486568" class="err"/>
<line x1="475.0296214694452" y1="111.58224178623264" x2="481.0296214694452" y2="111.58224178623264" class="err"/>
<circle cx="478.0296214694452" cy="108.36082960554916" r="2.5" class="obs"/>
<line x1="491.8611340616298" y1="101.91800524418218" x2="491.8611340616298" y2="110.5084377260048" class="err"/>
<line x1="488.8611340616298" y1="101.91800524418218" x2="494.8611340616298" y2="101.91800524418218" class="err"/>
<line x1="488.8611340616298" y1="110.5084377260048" x2="494.8611340616298" y2="110.5084377260048" class="err"/>
<circle cx="491.8611340616298" cy="106.2132214850935" r="2.5" class="obs"/>
<line x1="507.24516337334524" y1="107.28702554532134" x2="507.24516337334524" y2="115.87745802714394" class="err"/>
<line x1="504.24516337334524" y1="107.28702554532134" x2="510.24516337334524" y2="107.28702554532134" class="err"/>
<line x1="504.24516337334524" y1="115.87745802714394" x2="510.24516337334524" y2="115.87745802714394" class="err"/>
<circle cx="507.24516337334524" cy="111.58224178623264" r="2.5" class="obs"/>
<line x1="522.4880548014671" y1="106.2132214850935" x2="522.4880548014671" y2="116.95126208737176" class="err"/>
<line x1="519.4880548014671" y1="106.2132214850935" x2="525.4880548014671" y2="106.2132214850935" class="err"/>
<line x1="519.4880548014671" y1="116.95126208737176" x2="525.4880548014671" y2="116.95126208737176" class="err"/>
<circle cx="522.4880548014671" cy="111.58224178623264" r="2.5" class="obs"/>
<line x1="537.8720841131826" y1="102.99180930441" x2="537.8720841131826" y2="113.7298499066883" class="err"/>
<line x1="534.8720841131826" y1="102.99180930441" x2="540.8720841131826" y2="102.99180930441" class="err"/>
<line x1="534.8720841131826" y1="113.7298499066883" x2="540.8720841131826" y2="113.7298499066883" class="err"/>
<circle cx="537.8720841131826" cy="108.36082960554916" r="2.5" class="obs"/>
<line x1="553.1149755413044" y1="105.13941742486568" x2="553.1149755413044" y2="115.87745802714394" class="err"/>
<line x1="550.1149755413044" y1="105.13941742486568" x2="556.1149755413044" y2="105.13941742486568" class="err"/>
<line x1="550.1149755413044" y1="115.87745802714394" x2="556.1149755413044" y2="115.87745802714394" class="err"/>
<circle cx="553.1149755413044" cy="110.5084377260048" r="2.5" class="obs"/>
<line x1="568.4990048530199" y1="98.69659306349868" x2="568.4990048530199" y2="113.7298499066883" class="err"/>
<line x1="565.4990048530199" y1="98.69659306349868" x2="571.4990048530199" y2="98.69659306349868" class="err"/>
<line x1="565.4990048530199" y1="113.7298499066883" x2="571.4990048530199" y2="113.7298499066883" class="err"/>
<circle cx="568.4990048530199" cy="106.2132214850935" r="2.5" class="obs"/>
<line x1="582.4716553287982" y1="99.77039712372653" x2="582.4716553287982" y2="119.09887020782742" class="err"/>
<line x1="579.4716553287982" y1="99.77039712372653" x2="585.4716553287982" y2="99.77039712372653" class="err"/>
<line x1="579.4716553287982" y1="119.09887020782742" x2="585.4716553287982" y2="119.09887020782742" class="err"/>
<circle cx="582.4716553287982" cy="109.434633665777" r="2.5" class="obs"/>
<g class="legend">
<line x1="82" y1="69" x2="106" y2="69" class="fw"/>
<text x="112" y="73" class="lbl-l">framework fit</text>
<line x1="82" y1="87" x2="106" y2="87" class="nt"/>
<text x="112" y="91" class="lbl-l">Newtonian (no halo)</text>
<circle cx="94" cy="105" r="2.5" class="obs"/>
<text x="112" y="109" class="lbl">observed V±err</text>
</g>
<g class="legend">
<line x1="460" y1="69" x2="484" y2="69" class="rho"/>
<text x="490" y="73" class="lbl-r">ρ(r) raw</text>
<line x1="460" y1="87" x2="484" y2="87" class="sig"/>
<text x="490" y="91" class="lbl-r">Σ(r) smoothed</text>
<text x="460" y="113" class="lbl-r">ρ peak: 808 M☉/pc²</text>
</g>
</svg>