<svg xmlns="http://www.w3.org/2000/svg" viewBox="0 0 890 420" width="890" height="420" font-family="sans-serif" font-size="12">
<style>
  .ax { stroke: #333; stroke-width: 1; fill: none; }
  .grid { stroke: #ddd; stroke-width: 0.5; fill: none; }
  .lbl { fill: #333; }
  .lbl-l { fill: #0066cc; }
  .lbl-r { fill: #b03030; }
  .lbl-s { fill: #cc7000; }
  .obs { fill: #222; }
  .err { stroke: #555; stroke-width: 0.8; fill: none; }
  .fw { stroke: #0066cc; stroke-width: 2.2; fill: none; }
  .nt { stroke: #cc6600; stroke-width: 1.6; fill: none; stroke-dasharray: 5,3; }
  .rho { stroke: #b03030; stroke-width: 2.0; fill: none; }
  .sig { stroke: #cc7000; stroke-width: 1.8; fill: none; }
  .title { fill: #111; font-size: 16px; font-weight: 600; }
  .subtitle { fill: #555; font-size: 11px; }
  .legend { font-size: 11px; }
  .preview-bg { fill: #000; }
  .preview-lbl { fill: #888; font-size: 10px; }
</style>
<text x="343.5" y="22" text-anchor="middle" class="title">NGC7331</text>
<text x="343.5" y="38" text-anchor="middle" class="subtitle">rMax=36.3 kpc, N=36, RMS=5.1 km/s (2.1%), amp=444</text>
<line x1="70" y1="365.0" x2="617" y2="365.0" class="grid"/>
<text x="64" y="369.0" text-anchor="end" class="lbl-l">0</text>
<line x1="70" y1="303.0" x2="617" y2="303.0" class="grid"/>
<text x="64" y="307.0" text-anchor="end" class="lbl-l">58</text>
<line x1="70" y1="241.00000000000003" x2="617" y2="241.00000000000003" class="grid"/>
<text x="64" y="245.00000000000003" text-anchor="end" class="lbl-l">115</text>
<line x1="70" y1="178.99999999999997" x2="617" y2="178.99999999999997" class="grid"/>
<text x="64" y="182.99999999999997" text-anchor="end" class="lbl-l">173</text>
<line x1="70" y1="117.00000000000003" x2="617" y2="117.00000000000003" class="grid"/>
<text x="64" y="121.00000000000003" text-anchor="end" class="lbl-l">231</text>
<line x1="70" y1="55.0" x2="617" y2="55.0" class="grid"/>
<text x="64" y="59.0" text-anchor="end" class="lbl-l">289</text>
<text x="623" y="369.0" text-anchor="start" class="lbl-r">0.0</text>
<text x="623" y="327.6666666666667" text-anchor="start" class="lbl-r">0.2</text>
<text x="623" y="286.33333333333337" text-anchor="start" class="lbl-r">0.4</text>
<text x="623" y="245.00000000000003" text-anchor="start" class="lbl-r">0.6</text>
<text x="623" y="203.66666666666666" text-anchor="start" class="lbl-r">0.8</text>
<text x="623" y="162.33333333333334" text-anchor="start" class="lbl-r">1.0</text>
<line x1="70.0" y1="55" x2="70.0" y2="365" class="grid"/>
<text x="70.0" y="381" text-anchor="middle" class="lbl">0.0</text>
<line x1="161.16666666666666" y1="55" x2="161.16666666666666" y2="365" class="grid"/>
<text x="161.16666666666666" y="381" text-anchor="middle" class="lbl">6.7</text>
<line x1="252.33333333333331" y1="55" x2="252.33333333333331" y2="365" class="grid"/>
<text x="252.33333333333331" y="381" text-anchor="middle" class="lbl">13.3</text>
<line x1="343.5" y1="55" x2="343.5" y2="365" class="grid"/>
<text x="343.5" y="381" text-anchor="middle" class="lbl">20.0</text>
<line x1="434.66666666666663" y1="55" x2="434.66666666666663" y2="365" class="grid"/>
<text x="434.66666666666663" y="381" text-anchor="middle" class="lbl">26.7</text>
<line x1="525.8333333333334" y1="55" x2="525.8333333333334" y2="365" class="grid"/>
<text x="525.8333333333334" y="381" text-anchor="middle" class="lbl">33.4</text>
<line x1="617.0" y1="55" x2="617.0" y2="365" class="grid"/>
<text x="617.0" y="381" text-anchor="middle" class="lbl">40.0</text>
<text x="343.5" y="397" text-anchor="middle" class="lbl">radius (kpc)</text>
<text x="16" y="210.0" text-anchor="middle" class="lbl-l" transform="rotate(-90, 16, 210.0)">velocity (km/s)</text>
<text x="661" y="210.0" text-anchor="middle" class="lbl-r" transform="rotate(-90, 661, 210.0)">mass profile (normalized to peak)</text>
<rect x="70" y="55" width="547" height="310" class="ax"/>
<path d="M 70.0,158.3 L 72.5,164.8 L 75.0,171.3 L 77.5,177.8 L 80.0,184.3 L 82.5,190.7 L 85.0,197.2 L 87.5,203.7 L 90.0,210.2 L 92.5,216.7 L 95.0,223.1 L 97.5,229.6 L 100.0,236.1 L 102.5,242.6 L 105.0,249.1 L 107.5,255.5 L 110.0,262.0 L 112.5,268.5 L 115.0,275.0 L 117.5,281.5 L 120.0,288.1 L 122.5,294.8 L 124.9,298.2 L 127.4,298.6 L 129.9,299.0 L 132.4,299.4 L 134.9,299.8 L 137.4,300.2 L 139.9,300.6 L 142.4,301.0 L 144.9,301.4 L 147.4,301.9 L 149.9,302.3 L 152.4,302.7 L 154.9,303.1 L 157.4,303.5 L 159.9,303.9 L 162.4,304.3 L 164.9,304.7 L 167.4,305.1 L 169.9,305.5 L 172.4,305.9 L 174.9,306.3 L 177.4,306.7 L 179.9,307.1 L 182.4,307.5 L 184.9,307.9 L 187.4,308.3 L 189.9,308.8 L 192.4,309.2 L 194.9,309.6 L 197.4,310.0 L 199.9,310.4 L 202.4,310.8 L 204.9,311.2 L 207.4,311.6 L 209.9,312.0 L 212.4,312.4 L 214.9,312.8 L 217.4,313.2 L 219.9,313.6 L 222.4,314.0 L 224.9,314.4 L 227.4,314.8 L 229.9,315.2 L 232.4,315.7 L 234.8,316.1 L 237.3,316.5 L 239.8,316.9 L 242.3,317.3 L 244.8,317.7 L 247.3,317.9 L 249.8,318.1 L 252.3,318.3 L 254.8,318.5 L 257.3,318.7 L 259.8,318.9 L 262.3,319.1 L 264.8,319.3 L 267.3,319.5 L 269.8,319.7 L 272.3,319.9 L 274.8,320.1 L 277.3,320.3 L 279.8,320.5 L 282.3,320.7 L 284.8,320.9 L 287.3,321.1 L 289.8,321.3 L 292.3,321.5 L 294.8,321.7 L 297.3,321.9 L 299.8,322.1 L 302.3,322.3 L 304.8,322.5 L 307.3,322.7 L 309.8,322.9 L 312.3,323.1 L 314.8,323.3 L 317.3,323.5 L 319.8,323.7 L 322.3,323.9 L 324.8,324.1 L 327.3,324.3 L 329.8,324.5 L 332.3,324.7 L 334.8,324.9 L 337.3,325.1 L 339.8,325.3 L 342.3,325.5 L 344.7,325.7 L 347.2,325.9 L 349.7,326.1 L 352.2,326.3 L 354.7,326.5 L 357.2,326.6 L 359.7,326.8 L 362.2,327.0 L 364.7,327.2 L 367.2,327.4 L 369.7,327.6 L 372.2,327.8 L 374.7,328.0 L 377.2,328.2 L 379.7,328.4 L 382.2,328.6 L 384.7,328.8 L 387.2,329.0 L 389.7,329.2 L 392.2,329.4 L 394.7,329.6 L 397.2,329.8 L 399.7,330.0 L 402.2,330.2 L 404.7,330.4 L 407.2,330.6 L 409.7,330.8 L 412.2,331.0 L 414.7,331.2 L 417.2,331.4 L 419.7,331.6 L 422.2,331.8 L 424.7,332.0 L 427.2,332.2 L 429.7,332.4 L 432.2,332.6 L 434.7,332.8 L 437.2,333.0 L 439.7,333.2 L 442.2,333.4 L 444.7,333.6 L 447.2,333.8 L 449.7,334.0 L 452.2,334.2 L 454.6,334.4 L 457.1,334.6 L 459.6,334.8 L 462.1,335.0 L 464.6,335.1 L 467.1,335.3 L 469.6,335.5 L 472.1,335.7 L 474.6,335.9 L 477.1,336.1 L 479.6,336.3 L 482.1,336.5 L 484.6,336.7 L 487.1,336.9 L 489.6,337.1 L 492.1,337.3 L 494.6,337.5 L 497.1,337.7 L 499.6,337.9 L 502.1,338.1 L 504.6,338.3 L 507.1,338.5 L 509.6,338.7 L 512.1,338.9 L 514.6,339.1 L 517.1,339.3 L 519.6,339.5 L 522.1,339.7 L 524.6,339.9 L 527.1,340.1 L 529.6,340.3 L 532.1,340.5 L 534.6,340.7 L 537.1,340.9 L 539.6,341.1 L 542.1,341.3 L 544.6,341.5 L 547.1,341.7 L 549.6,341.9 L 552.1,342.1 L 554.6,342.3 L 557.1,342.9 L 559.6,344.6 L 562.1,346.2 L 564.5,347.8 L 567.0,349.4 L 569.5,351.1 L 572.0,352.7 L 574.5,354.3 L 577.0,355.9 L 579.5,357.6 L 582.0,359.2 L 584.5,360.8 L 587.0,362.4 L 589.5,364.1 L 592.0,365.0 L 594.5,365.0 L 597.0,365.0 L 599.5,365.0 L 602.0,365.0 L 604.5,365.0 L 607.0,365.0 L 609.5,365.0 L 612.0,365.0 L 614.5,365.0 L 617.0,365.0" class="rho"/>
<path d="M 70.0,158.3 L 72.5,158.8 L 75.0,159.6 L 77.5,160.8 L 80.0,162.3 L 82.5,164.2 L 85.0,166.5 L 87.5,169.0 L 90.0,171.9 L 92.5,174.9 L 95.0,178.2 L 97.5,181.6 L 100.0,185.1 L 102.5,188.7 L 105.0,192.3 L 107.5,195.9 L 110.0,199.5 L 112.5,203.1 L 115.0,206.6 L 117.5,209.9 L 120.0,213.2 L 122.5,216.4 L 124.9,219.5 L 127.4,222.4 L 129.9,225.2 L 132.4,227.8 L 134.9,230.4 L 137.4,232.9 L 139.9,235.2 L 142.4,237.4 L 144.9,239.5 L 147.4,241.6 L 149.9,243.6 L 152.4,245.5 L 154.9,247.3 L 157.4,249.1 L 159.9,250.8 L 162.4,252.5 L 164.9,254.1 L 167.4,255.7 L 169.9,257.2 L 172.4,258.7 L 174.9,260.2 L 177.4,261.6 L 179.9,263.0 L 182.4,264.3 L 184.9,265.7 L 187.4,267.0 L 189.9,268.2 L 192.4,269.5 L 194.9,270.7 L 197.4,271.9 L 199.9,273.1 L 202.4,274.3 L 204.9,275.4 L 207.4,276.5 L 209.9,277.6 L 212.4,278.7 L 214.9,279.8 L 217.4,280.8 L 219.9,281.8 L 222.4,282.8 L 224.9,283.8 L 227.4,284.8 L 229.9,285.8 L 232.4,286.7 L 234.8,287.6 L 237.3,288.6 L 239.8,289.5 L 242.3,290.3 L 244.8,291.2 L 247.3,292.0 L 249.8,292.9 L 252.3,293.7 L 254.8,294.5 L 257.3,295.3 L 259.8,296.1 L 262.3,296.8 L 264.8,297.6 L 267.3,298.3 L 269.8,299.1 L 272.3,299.8 L 274.8,300.5 L 277.3,301.2 L 279.8,301.9 L 282.3,302.6 L 284.8,303.3 L 287.3,303.9 L 289.8,304.6 L 292.3,305.2 L 294.8,305.9 L 297.3,306.5 L 299.8,307.1 L 302.3,307.7 L 304.8,308.3 L 307.3,308.9 L 309.8,309.5 L 312.3,310.1 L 314.8,310.7 L 317.3,311.3 L 319.8,311.9 L 322.3,312.4 L 324.8,313.0 L 327.3,313.5 L 329.8,314.1 L 332.3,314.6 L 334.8,315.2 L 337.3,315.7 L 339.8,316.2 L 342.3,316.8 L 344.7,317.3 L 347.2,317.8 L 349.7,318.3 L 352.2,318.8 L 354.7,319.3 L 357.2,319.8 L 359.7,320.3 L 362.2,320.8 L 364.7,321.3 L 367.2,321.7 L 369.7,322.2 L 372.2,322.7 L 374.7,323.1 L 377.2,323.6 L 379.7,324.1 L 382.2,324.5 L 384.7,325.0 L 387.2,325.4 L 389.7,325.8 L 392.2,326.3 L 394.7,326.7 L 397.2,327.2 L 399.7,327.6 L 402.2,328.0 L 404.7,328.4 L 407.2,328.8 L 409.7,329.3 L 412.2,329.7 L 414.7,330.1 L 417.2,330.5 L 419.7,330.9 L 422.2,331.3 L 424.7,331.7 L 427.2,332.1 L 429.7,332.4 L 432.2,332.8 L 434.7,333.2 L 437.2,333.6 L 439.7,334.0 L 442.2,334.3 L 444.7,334.7 L 447.2,335.1 L 449.7,335.4 L 452.2,335.8 L 454.6,336.2 L 457.1,336.5 L 459.6,336.9 L 462.1,337.2 L 464.6,337.6 L 467.1,337.9 L 469.6,338.2 L 472.1,338.6 L 474.6,338.9 L 477.1,339.2 L 479.6,339.6 L 482.1,339.9 L 484.6,340.2 L 487.1,340.6 L 489.6,340.9 L 492.1,341.2 L 494.6,341.5 L 497.1,341.8 L 499.6,342.1 L 502.1,342.4 L 504.6,342.8 L 507.1,343.1 L 509.6,343.4 L 512.1,343.7 L 514.6,344.0 L 517.1,344.3 L 519.6,344.6 L 522.1,344.9 L 524.6,345.2 L 527.1,345.5 L 529.6,345.8 L 532.1,346.1 L 534.6,346.4 L 537.1,346.7 L 539.6,346.9 L 542.1,347.2 L 544.6,347.5 L 547.1,347.8 L 549.6,348.1 L 552.1,348.4 L 554.6,348.7 L 557.1,349.0 L 559.6,349.3 L 562.1,349.6 L 564.5,349.9 L 567.0,350.2 L 569.5,350.4 L 572.0,350.7 L 574.5,351.0 L 577.0,351.2 L 579.5,351.5 L 582.0,351.7 L 584.5,351.9 L 587.0,352.2 L 589.5,352.4 L 592.0,352.6 L 594.5,352.8 L 597.0,353.0 L 599.5,353.2 L 602.0,353.4 L 604.5,353.5 L 607.0,353.7 L 609.5,353.9 L 612.0,354.0 L 614.5,354.2 L 617.0,354.4" class="sig"/>
<path d="M 75.5,295.7 L 80.9,269.3 L 86.4,250.8 L 91.9,236.7 L 97.3,225.6 L 102.8,216.9 L 108.3,210.2 L 113.8,205.2 L 119.2,201.7 L 124.7,199.7 L 130.2,197.9 L 135.6,195.7 L 141.1,193.3 L 146.6,190.7 L 152.1,188.1 L 157.5,185.4 L 163.0,182.6 L 168.5,179.9 L 173.9,177.2 L 179.4,174.5 L 184.9,171.9 L 190.3,169.3 L 195.8,166.8 L 201.3,164.3 L 206.8,161.9 L 212.2,159.6 L 217.7,157.3 L 223.2,155.1 L 228.6,153.0 L 234.1,151.0 L 239.6,149.0 L 245.0,147.1 L 250.5,145.2 L 256.0,143.4 L 261.4,141.5 L 266.9,139.7 L 272.4,137.9 L 277.9,136.2 L 283.3,134.4 L 288.8,132.7 L 294.3,131.1 L 299.7,129.4 L 305.2,127.8 L 310.7,126.2 L 316.1,124.6 L 321.6,123.1 L 327.1,121.6 L 332.6,120.1 L 338.0,118.7 L 343.5,117.3 L 349.0,115.9 L 354.4,114.5 L 359.9,113.2 L 365.4,111.9 L 370.9,110.6 L 376.3,109.4 L 381.8,108.2 L 387.3,107.0 L 392.7,105.8 L 398.2,104.7 L 403.7,103.6 L 409.1,102.5 L 414.6,101.4 L 420.1,100.4 L 425.6,99.4 L 431.0,98.5 L 436.5,97.5 L 442.0,96.6 L 447.4,95.7 L 452.9,94.9 L 458.4,94.0 L 463.8,93.2 L 469.3,92.4 L 474.8,91.7 L 480.2,90.9 L 485.7,90.2 L 491.2,89.6 L 496.7,88.9 L 502.1,88.3 L 507.6,87.7 L 513.1,87.1 L 518.5,86.5 L 524.0,86.0 L 529.5,85.5 L 535.0,85.0 L 540.4,84.6 L 545.9,84.1 L 551.4,83.7 L 556.8,83.3 L 562.3,83.1 L 567.8,83.2 L 573.2,83.6 L 578.7,84.3 L 584.2,85.3 L 589.6,86.5 L 595.1,88.0 L 600.6,89.4 L 606.1,90.8 L 611.5,92.2 L 617.0,93.6" class="nt"/>
<path d="M 74.6,318.1 L 79.1,282.7 L 83.7,245.7 L 88.2,211.5 L 92.8,181.5 L 97.3,155.5 L 101.9,134.2 L 106.5,117.0 L 111.0,104.2 L 115.6,95.3 L 120.1,90.0 L 124.7,87.7 L 129.3,87.4 L 133.8,88.5 L 138.4,90.3 L 142.9,92.2 L 147.5,94.0 L 152.1,95.5 L 156.6,96.7 L 161.2,97.6 L 165.7,98.3 L 170.3,98.6 L 174.8,98.8 L 179.4,98.8 L 184.0,98.7 L 188.5,98.5 L 193.1,98.3 L 197.6,98.0 L 202.2,97.7 L 206.8,97.5 L 211.3,97.3 L 215.9,97.2 L 220.4,97.3 L 225.0,97.4 L 229.5,97.7 L 234.1,98.2 L 238.7,98.8 L 243.2,99.5 L 247.8,100.3 L 252.3,101.2 L 256.9,102.0 L 261.4,102.7 L 266.0,103.4 L 270.6,104.1 L 275.1,104.6 L 279.7,105.0 L 284.2,105.4 L 288.8,105.8 L 293.4,106.0 L 297.9,106.3 L 302.5,106.4 L 307.0,106.6 L 311.6,106.7 L 316.1,106.8 L 320.7,106.9 L 325.3,107.0 L 329.8,107.0 L 334.4,107.1 L 338.9,107.1 L 343.5,107.2 L 348.1,107.2 L 352.6,107.3 L 357.2,107.3 L 361.7,107.4 L 366.3,107.4 L 370.9,107.5 L 375.4,107.6 L 380.0,107.7 L 384.5,107.8 L 389.1,107.9 L 393.6,108.1 L 398.2,108.3 L 402.8,108.4 L 407.3,108.6 L 411.9,108.8 L 416.4,109.1 L 421.0,109.3 L 425.6,109.6 L 430.1,109.9 L 434.7,110.1 L 439.2,110.4 L 443.8,110.8 L 448.3,111.1 L 452.9,111.4 L 457.5,111.7 L 462.0,112.1 L 466.6,112.4 L 471.1,112.8 L 475.7,113.1 L 480.2,113.4 L 484.8,113.7 L 489.4,113.9 L 493.9,114.1 L 498.5,114.2 L 503.0,114.3 L 507.6,114.3 L 512.2,114.2 L 516.7,113.9 L 521.3,113.5 L 525.8,113.0 L 530.4,112.2 L 535.0,111.2 L 539.5,110.1 L 544.1,108.9 L 548.6,107.9 L 553.2,107.2 L 557.7,107.2 L 562.3,108.2 L 566.9,110.4 L 571.4,113.8 L 576.0,118.4 L 580.5,123.9 L 585.1,129.9 L 589.7,136.2 L 594.2,142.6 L 598.8,148.7 L 603.3,154.5 L 607.9,160.0 L 612.4,165.0 L 617.0,169.7" class="fw"/>
<line x1="106.48326860350309" y1="106.2132214850935" x2="106.48326860350309" y2="149.16538389420663" class="err"/>
<line x1="103.48326860350309" y1="106.2132214850935" x2="109.48326860350309" y2="106.2132214850935" class="err"/>
<line x1="103.48326860350309" y1="149.16538389420663" x2="109.48326860350309" y2="149.16538389420663" class="err"/>
<circle cx="106.48326860350309" cy="127.68930268965003" r="2.5" class="obs"/>
<line x1="113.86190719747" y1="96.54898494304302" x2="113.86190719747" y2="124.46789050896658" class="err"/>
<line x1="110.86190719747" y1="96.54898494304302" x2="116.86190719747" y2="96.54898494304302" class="err"/>
<line x1="110.86190719747" y1="124.46789050896658" x2="116.86190719747" y2="124.46789050896658" class="err"/>
<circle cx="113.86190719747" cy="110.5084377260048" r="2.5" class="obs"/>
<line x1="121.1039043359931" y1="89.03235652144826" x2="121.1039043359931" y2="106.2132214850935" class="err"/>
<line x1="118.1039043359931" y1="89.03235652144826" x2="124.1039043359931" y2="89.03235652144826" class="err"/>
<line x1="118.1039043359931" y1="106.2132214850935" x2="124.1039043359931" y2="106.2132214850935" class="err"/>
<circle cx="121.1039043359931" cy="97.62278900327088" r="2.5" class="obs"/>
<line x1="128.34590147451615" y1="91.17996464190392" x2="128.34590147451615" y2="101.91800524418218" class="err"/>
<line x1="125.34590147451615" y1="91.17996464190392" x2="131.34590147451615" y2="91.17996464190392" class="err"/>
<line x1="125.34590147451615" y1="101.91800524418218" x2="131.34590147451615" y2="101.91800524418218" class="err"/>
<circle cx="128.34590147451615" cy="96.54898494304302" r="2.5" class="obs"/>
<line x1="135.7245400684831" y1="87.95855246122042" x2="135.7245400684831" y2="98.69659306349868" class="err"/>
<line x1="132.7245400684831" y1="87.95855246122042" x2="138.7245400684831" y2="87.95855246122042" class="err"/>
<line x1="132.7245400684831" y1="98.69659306349868" x2="138.7245400684831" y2="98.69659306349868" class="err"/>
<circle cx="135.7245400684831" cy="93.32757276235958" r="2.5" class="obs"/>
<line x1="143.10317866245" y1="83.6633362203091" x2="143.10317866245" y2="94.40137682258738" class="err"/>
<line x1="140.10317866245" y1="83.6633362203091" x2="146.10317866245" y2="83.6633362203091" class="err"/>
<line x1="140.10317866245" y1="94.40137682258738" x2="146.10317866245" y2="94.40137682258738" class="err"/>
<circle cx="143.10317866245" cy="89.03235652144826" r="2.5" class="obs"/>
<line x1="150.3451758009731" y1="83.6633362203091" x2="150.3451758009731" y2="94.40137682258738" class="err"/>
<line x1="147.3451758009731" y1="83.6633362203091" x2="153.3451758009731" y2="83.6633362203091" class="err"/>
<line x1="147.3451758009731" y1="94.40137682258738" x2="153.3451758009731" y2="94.40137682258738" class="err"/>
<circle cx="150.3451758009731" cy="89.03235652144826" r="2.5" class="obs"/>
<line x1="157.58717293949618" y1="83.6633362203091" x2="157.58717293949618" y2="94.40137682258738" class="err"/>
<line x1="154.58717293949618" y1="83.6633362203091" x2="160.58717293949618" y2="83.6633362203091" class="err"/>
<line x1="154.58717293949618" y1="94.40137682258738" x2="160.58717293949618" y2="94.40137682258738" class="err"/>
<circle cx="157.58717293949618" cy="89.03235652144826" r="2.5" class="obs"/>
<line x1="172.2078086719862" y1="83.6633362203091" x2="172.2078086719862" y2="94.40137682258738" class="err"/>
<line x1="169.2078086719862" y1="83.6633362203091" x2="175.2078086719862" y2="83.6633362203091" class="err"/>
<line x1="169.2078086719862" y1="94.40137682258738" x2="175.2078086719862" y2="94.40137682258738" class="err"/>
<circle cx="172.2078086719862" cy="89.03235652144826" r="2.5" class="obs"/>
<line x1="186.8284444044762" y1="85.81094434076476" x2="186.8284444044762" y2="96.54898494304302" class="err"/>
<line x1="183.8284444044762" y1="85.81094434076476" x2="189.8284444044762" y2="85.81094434076476" class="err"/>
<line x1="183.8284444044762" y1="96.54898494304302" x2="189.8284444044762" y2="96.54898494304302" class="err"/>
<circle cx="186.8284444044762" cy="91.17996464190392" r="2.5" class="obs"/>
<line x1="201.4490801369662" y1="92.25376870213172" x2="201.4490801369662" y2="105.13941742486568" class="err"/>
<line x1="198.4490801369662" y1="92.25376870213172" x2="204.4490801369662" y2="92.25376870213172" class="err"/>
<line x1="198.4490801369662" y1="105.13941742486568" x2="204.4490801369662" y2="105.13941742486568" class="err"/>
<circle cx="201.4490801369662" cy="98.69659306349868" r="2.5" class="obs"/>
<line x1="215.6597915031247" y1="93.32757276235958" x2="215.6597915031247" y2="106.2132214850935" class="err"/>
<line x1="212.6597915031247" y1="93.32757276235958" x2="218.6597915031247" y2="93.32757276235958" class="err"/>
<line x1="212.6597915031247" y1="106.2132214850935" x2="218.6597915031247" y2="106.2132214850935" class="err"/>
<circle cx="215.6597915031247" cy="99.77039712372653" r="2.5" class="obs"/>
<line x1="230.41706869105855" y1="94.40137682258738" x2="230.41706869105855" y2="107.28702554532134" class="err"/>
<line x1="227.41706869105855" y1="94.40137682258738" x2="233.41706869105855" y2="94.40137682258738" class="err"/>
<line x1="227.41706869105855" y1="107.28702554532134" x2="233.41706869105855" y2="107.28702554532134" class="err"/>
<circle cx="230.41706869105855" cy="100.84420118395434" r="2.5" class="obs"/>
<line x1="245.3109873344362" y1="96.54898494304302" x2="245.3109873344362" y2="109.434633665777" class="err"/>
<line x1="242.3109873344362" y1="96.54898494304302" x2="248.3109873344362" y2="96.54898494304302" class="err"/>
<line x1="242.3109873344362" y1="109.434633665777" x2="248.3109873344362" y2="109.434633665777" class="err"/>
<circle cx="245.3109873344362" cy="102.99180930441" r="2.5" class="obs"/>
<line x1="260.06826452237" y1="100.84420118395434" x2="260.06826452237" y2="109.434633665777" class="err"/>
<line x1="257.06826452237" y1="100.84420118395434" x2="263.06826452237" y2="100.84420118395434" class="err"/>
<line x1="257.06826452237" y1="109.434633665777" x2="263.06826452237" y2="109.434633665777" class="err"/>
<circle cx="260.06826452237" cy="105.13941742486568" r="2.5" class="obs"/>
<line x1="274.96218316574766" y1="106.2132214850935" x2="274.96218316574766" y2="112.65604584646046" class="err"/>
<line x1="271.96218316574766" y1="106.2132214850935" x2="277.96218316574766" y2="106.2132214850935" class="err"/>
<line x1="271.96218316574766" y1="112.65604584646046" x2="277.96218316574766" y2="112.65604584646046" class="err"/>
<circle cx="274.96218316574766" cy="109.434633665777" r="2.5" class="obs"/>
<line x1="289.7194603536815" y1="108.36082960554916" x2="289.7194603536815" y2="114.8036539669161" class="err"/>
<line x1="286.7194603536815" y1="108.36082960554916" x2="292.7194603536815" y2="108.36082960554916" class="err"/>
<line x1="286.7194603536815" y1="114.8036539669161" x2="292.7194603536815" y2="114.8036539669161" class="err"/>
<circle cx="289.7194603536815" cy="111.58224178623264" r="2.5" class="obs"/>
<line x1="303.2469644426209" y1="111.58224178623264" x2="303.2469644426209" y2="118.0250661475996" class="err"/>
<line x1="300.2469644426209" y1="111.58224178623264" x2="306.2469644426209" y2="111.58224178623264" class="err"/>
<line x1="300.2469644426209" y1="118.0250661475996" x2="306.2469644426209" y2="118.0250661475996" class="err"/>
<circle cx="303.2469644426209" cy="114.8036539669161" r="2.5" class="obs"/>
<line x1="318.0042416305547" y1="110.5084377260048" x2="318.0042416305547" y2="116.95126208737176" class="err"/>
<line x1="315.0042416305547" y1="110.5084377260048" x2="321.0042416305547" y2="110.5084377260048" class="err"/>
<line x1="315.0042416305547" y1="116.95126208737176" x2="321.0042416305547" y2="116.95126208737176" class="err"/>
<circle cx="318.0042416305547" cy="113.7298499066883" r="2.5" class="obs"/>
<line x1="332.8981602739324" y1="108.36082960554916" x2="332.8981602739324" y2="114.8036539669161" class="err"/>
<line x1="329.8981602739324" y1="108.36082960554916" x2="335.8981602739324" y2="108.36082960554916" class="err"/>
<line x1="329.8981602739324" y1="114.8036539669161" x2="335.8981602739324" y2="114.8036539669161" class="err"/>
<circle cx="332.8981602739324" cy="111.58224178623264" r="2.5" class="obs"/>
<line x1="347.6554374618662" y1="107.28702554532134" x2="347.6554374618662" y2="113.7298499066883" class="err"/>
<line x1="344.6554374618662" y1="107.28702554532134" x2="350.6554374618662" y2="107.28702554532134" class="err"/>
<line x1="344.6554374618662" y1="113.7298499066883" x2="350.6554374618662" y2="113.7298499066883" class="err"/>
<circle cx="347.6554374618662" cy="110.5084377260048" r="2.5" class="obs"/>
<line x1="362.54935610524393" y1="106.2132214850935" x2="362.54935610524393" y2="112.65604584646046" class="err"/>
<line x1="359.54935610524393" y1="106.2132214850935" x2="365.54935610524393" y2="106.2132214850935" class="err"/>
<line x1="359.54935610524393" y1="112.65604584646046" x2="365.54935610524393" y2="112.65604584646046" class="err"/>
<circle cx="362.54935610524393" cy="109.434633665777" r="2.5" class="obs"/>
<line x1="377.3066332931777" y1="104.06561336463784" x2="377.3066332931777" y2="110.5084377260048" class="err"/>
<line x1="374.3066332931777" y1="104.06561336463784" x2="380.3066332931777" y2="104.06561336463784" class="err"/>
<line x1="374.3066332931777" y1="110.5084377260048" x2="380.3066332931777" y2="110.5084377260048" class="err"/>
<circle cx="377.3066332931777" cy="107.28702554532134" r="2.5" class="obs"/>
<line x1="390.8341373821171" y1="106.2132214850935" x2="390.8341373821171" y2="112.65604584646046" class="err"/>
<line x1="387.8341373821171" y1="106.2132214850935" x2="393.8341373821171" y2="106.2132214850935" class="err"/>
<line x1="387.8341373821171" y1="112.65604584646046" x2="393.8341373821171" y2="112.65604584646046" class="err"/>
<circle cx="390.8341373821171" cy="109.434633665777" r="2.5" class="obs"/>
<line x1="405.7280560254947" y1="107.28702554532134" x2="405.7280560254947" y2="113.7298499066883" class="err"/>
<line x1="402.7280560254947" y1="107.28702554532134" x2="408.7280560254947" y2="107.28702554532134" class="err"/>
<line x1="402.7280560254947" y1="113.7298499066883" x2="408.7280560254947" y2="113.7298499066883" class="err"/>
<circle cx="405.7280560254947" cy="110.5084377260048" r="2.5" class="obs"/>
<line x1="420.48533321342853" y1="108.36082960554916" x2="420.48533321342853" y2="114.8036539669161" class="err"/>
<line x1="417.48533321342853" y1="108.36082960554916" x2="423.48533321342853" y2="108.36082960554916" class="err"/>
<line x1="417.48533321342853" y1="114.8036539669161" x2="423.48533321342853" y2="114.8036539669161" class="err"/>
<circle cx="420.48533321342853" cy="111.58224178623264" r="2.5" class="obs"/>
<line x1="435.3792518568062" y1="106.2132214850935" x2="435.3792518568062" y2="112.65604584646046" class="err"/>
<line x1="432.3792518568062" y1="106.2132214850935" x2="438.3792518568062" y2="106.2132214850935" class="err"/>
<line x1="432.3792518568062" y1="112.65604584646046" x2="438.3792518568062" y2="112.65604584646046" class="err"/>
<circle cx="435.3792518568062" cy="109.434633665777" r="2.5" class="obs"/>
<line x1="450.13652904474003" y1="105.13941742486568" x2="450.13652904474003" y2="111.58224178623264" class="err"/>
<line x1="447.13652904474003" y1="105.13941742486568" x2="453.13652904474003" y2="105.13941742486568" class="err"/>
<line x1="447.13652904474003" y1="111.58224178623264" x2="453.13652904474003" y2="111.58224178623264" class="err"/>
<circle cx="450.13652904474003" cy="108.36082960554916" r="2.5" class="obs"/>
<line x1="465.03044768811776" y1="105.13941742486568" x2="465.03044768811776" y2="111.58224178623264" class="err"/>
<line x1="462.03044768811776" y1="105.13941742486568" x2="468.03044768811776" y2="105.13941742486568" class="err"/>
<line x1="462.03044768811776" y1="111.58224178623264" x2="468.03044768811776" y2="111.58224178623264" class="err"/>
<circle cx="465.03044768811776" cy="108.36082960554916" r="2.5" class="obs"/>
<line x1="478.42131032161325" y1="101.91800524418218" x2="478.42131032161325" y2="110.5084377260048" class="err"/>
<line x1="475.42131032161325" y1="101.91800524418218" x2="481.42131032161325" y2="101.91800524418218" class="err"/>
<line x1="475.42131032161325" y1="110.5084377260048" x2="481.42131032161325" y2="110.5084377260048" class="err"/>
<circle cx="478.42131032161325" cy="106.2132214850935" r="2.5" class="obs"/>
<line x1="493.3152289649909" y1="107.28702554532134" x2="493.3152289649909" y2="115.87745802714394" class="err"/>
<line x1="490.3152289649909" y1="107.28702554532134" x2="496.3152289649909" y2="107.28702554532134" class="err"/>
<line x1="490.3152289649909" y1="115.87745802714394" x2="496.3152289649909" y2="115.87745802714394" class="err"/>
<circle cx="493.3152289649909" cy="111.58224178623264" r="2.5" class="obs"/>
<line x1="508.0725061529248" y1="106.2132214850935" x2="508.0725061529248" y2="116.95126208737176" class="err"/>
<line x1="505.0725061529248" y1="106.2132214850935" x2="511.0725061529248" y2="106.2132214850935" class="err"/>
<line x1="505.0725061529248" y1="116.95126208737176" x2="511.0725061529248" y2="116.95126208737176" class="err"/>
<circle cx="508.0725061529248" cy="111.58224178623264" r="2.5" class="obs"/>
<line x1="522.9664247963024" y1="102.99180930441" x2="522.9664247963024" y2="113.7298499066883" class="err"/>
<line x1="519.9664247963024" y1="102.99180930441" x2="525.9664247963024" y2="102.99180930441" class="err"/>
<line x1="519.9664247963024" y1="113.7298499066883" x2="525.9664247963024" y2="113.7298499066883" class="err"/>
<circle cx="522.9664247963024" cy="108.36082960554916" r="2.5" class="obs"/>
<line x1="537.7237019842362" y1="105.13941742486568" x2="537.7237019842362" y2="115.87745802714394" class="err"/>
<line x1="534.7237019842362" y1="105.13941742486568" x2="540.7237019842362" y2="105.13941742486568" class="err"/>
<line x1="534.7237019842362" y1="115.87745802714394" x2="540.7237019842362" y2="115.87745802714394" class="err"/>
<circle cx="537.7237019842362" cy="110.5084377260048" r="2.5" class="obs"/>
<line x1="552.6176206276139" y1="98.69659306349868" x2="552.6176206276139" y2="113.7298499066883" class="err"/>
<line x1="549.6176206276139" y1="98.69659306349868" x2="555.6176206276139" y2="98.69659306349868" class="err"/>
<line x1="549.6176206276139" y1="113.7298499066883" x2="555.6176206276139" y2="113.7298499066883" class="err"/>
<circle cx="552.6176206276139" cy="106.2132214850935" r="2.5" class="obs"/>
<line x1="566.1451247165533" y1="99.77039712372653" x2="566.1451247165533" y2="119.09887020782742" class="err"/>
<line x1="563.1451247165533" y1="99.77039712372653" x2="569.1451247165533" y2="99.77039712372653" class="err"/>
<line x1="563.1451247165533" y1="119.09887020782742" x2="569.1451247165533" y2="119.09887020782742" class="err"/>
<circle cx="566.1451247165533" cy="109.434633665777" r="2.5" class="obs"/>
<g class="legend">
<line x1="82" y1="69" x2="106" y2="69" class="fw"/>
<text x="112" y="73" class="lbl-l">framework fit</text>
<line x1="82" y1="87" x2="106" y2="87" class="nt"/>
<text x="112" y="91" class="lbl-l">Newtonian (no halo)</text>
<circle cx="94" cy="105" r="2.5" class="obs"/>
<text x="112" y="109" class="lbl">observed V±err</text>
</g>
<g class="legend">
<line x1="472" y1="69" x2="496" y2="69" class="rho"/>
<text x="502" y="73" class="lbl-r">ρ(r) raw</text>
<line x1="472" y1="87" x2="496" y2="87" class="sig"/>
<text x="502" y="91" class="lbl-s">Σ(r) cumulative</text>
<text x="472" y="113" class="lbl-r">ρ peak: 808 M☉/pc²</text>
</g>
<rect x="705" y="55" width="170" height="170" class="preview-bg"/>
<defs><radialGradient id="g_NGC7331" cx="0.5" cy="0.5" r="0.5">
  <stop offset="0.0000" stop-color="rgb(255,255,255)"/>
  <stop offset="0.0312" stop-color="rgb(211,211,211)"/>
  <stop offset="0.0625" stop-color="rgb(166,166,166)"/>
  <stop offset="0.0938" stop-color="rgb(121,121,121)"/>
  <stop offset="0.1250" stop-color="rgb(105,105,105)"/>
  <stop offset="0.1562" stop-color="rgb(103,103,103)"/>
  <stop offset="0.1875" stop-color="rgb(100,100,100)"/>
  <stop offset="0.2188" stop-color="rgb(97,97,97)"/>
  <stop offset="0.2500" stop-color="rgb(94,94,94)"/>
  <stop offset="0.2812" stop-color="rgb(91,91,91)"/>
  <stop offset="0.3125" stop-color="rgb(89,89,89)"/>
  <stop offset="0.3438" stop-color="rgb(86,86,86)"/>
  <stop offset="0.3750" stop-color="rgb(85,85,85)"/>
  <stop offset="0.4062" stop-color="rgb(83,83,83)"/>
  <stop offset="0.4375" stop-color="rgb(82,82,82)"/>
  <stop offset="0.4688" stop-color="rgb(81,81,81)"/>
  <stop offset="0.5000" stop-color="rgb(79,79,79)"/>
  <stop offset="0.5312" stop-color="rgb(78,78,78)"/>
  <stop offset="0.5625" stop-color="rgb(76,76,76)"/>
  <stop offset="0.5938" stop-color="rgb(75,75,75)"/>
  <stop offset="0.6250" stop-color="rgb(74,74,74)"/>
  <stop offset="0.6562" stop-color="rgb(72,72,72)"/>
  <stop offset="0.6875" stop-color="rgb(71,71,71)"/>
  <stop offset="0.7188" stop-color="rgb(70,70,70)"/>
  <stop offset="0.7500" stop-color="rgb(68,68,68)"/>
  <stop offset="0.7812" stop-color="rgb(67,67,67)"/>
  <stop offset="0.8125" stop-color="rgb(65,65,65)"/>
  <stop offset="0.8438" stop-color="rgb(64,64,64)"/>
  <stop offset="0.8750" stop-color="rgb(62,62,62)"/>
  <stop offset="0.9062" stop-color="rgb(59,59,59)"/>
  <stop offset="0.9375" stop-color="rgb(52,52,52)"/>
  <stop offset="0.9688" stop-color="rgb(26,26,26)"/>
  <stop offset="1.0000" stop-color="rgb(0,0,0)"/>
</radialGradient></defs>
<circle cx="790.0" cy="140.0" r="81.0" fill="url(#g_NGC7331)"/>
<text x="790.0" y="49" text-anchor="middle" class="preview-lbl">face-on luminance from ρ(r)</text>
<text x="790.0" y="239" text-anchor="middle" class="preview-lbl">edge at r = 38.1 kpc</text>
</svg>