<svg xmlns="http://www.w3.org/2000/svg" viewBox="0 0 890 420" width="890" height="420" font-family="sans-serif" font-size="12">
<style>
  .ax { stroke: #333; stroke-width: 1; fill: none; }
  .grid { stroke: #ddd; stroke-width: 0.5; fill: none; }
  .lbl { fill: #333; }
  .lbl-l { fill: #0066cc; }
  .lbl-r { fill: #b03030; }
  .lbl-s { fill: #cc7000; }
  .obs { fill: #222; }
  .err { stroke: #555; stroke-width: 0.8; fill: none; }
  .fw { stroke: #0066cc; stroke-width: 2.2; fill: none; }
  .nt { stroke: #cc6600; stroke-width: 1.6; fill: none; stroke-dasharray: 5,3; }
  .rho { stroke: #b03030; stroke-width: 2.0; fill: none; }
  .sig { stroke: #cc7000; stroke-width: 1.8; fill: none; }
  .title { fill: #111; font-size: 16px; font-weight: 600; }
  .subtitle { fill: #555; font-size: 11px; }
  .legend { font-size: 11px; }
  .preview-bg { fill: #000; }
  .preview-lbl { fill: #888; font-size: 10px; }
</style>
<text x="343.5" y="22" text-anchor="middle" class="title">NGC7814</text>
<text x="343.5" y="38" text-anchor="middle" class="subtitle">rMax=19.5 kpc, N=18, RMS=7.2 km/s (3.2%), amp=734</text>
<line x1="70" y1="365.0" x2="617" y2="365.0" class="grid"/>
<text x="64" y="369.0" text-anchor="end" class="lbl-l">0</text>
<line x1="70" y1="303.0" x2="617" y2="303.0" class="grid"/>
<text x="64" y="307.0" text-anchor="end" class="lbl-l">63</text>
<line x1="70" y1="241.0" x2="617" y2="241.0" class="grid"/>
<text x="64" y="245.0" text-anchor="end" class="lbl-l">126</text>
<line x1="70" y1="179.0" x2="617" y2="179.0" class="grid"/>
<text x="64" y="183.0" text-anchor="end" class="lbl-l">188</text>
<line x1="70" y1="116.99999999999999" x2="617" y2="116.99999999999999" class="grid"/>
<text x="64" y="120.99999999999999" text-anchor="end" class="lbl-l">251</text>
<line x1="70" y1="55.0" x2="617" y2="55.0" class="grid"/>
<text x="64" y="59.0" text-anchor="end" class="lbl-l">314</text>
<text x="623" y="369.0" text-anchor="start" class="lbl-r">0.0</text>
<text x="623" y="327.6666666666667" text-anchor="start" class="lbl-r">0.2</text>
<text x="623" y="286.33333333333337" text-anchor="start" class="lbl-r">0.4</text>
<text x="623" y="245.00000000000003" text-anchor="start" class="lbl-r">0.6</text>
<text x="623" y="203.66666666666666" text-anchor="start" class="lbl-r">0.8</text>
<text x="623" y="162.33333333333334" text-anchor="start" class="lbl-r">1.0</text>
<line x1="70.0" y1="55" x2="70.0" y2="365" class="grid"/>
<text x="70.0" y="381" text-anchor="middle" class="lbl">0.0</text>
<line x1="161.16666666666666" y1="55" x2="161.16666666666666" y2="365" class="grid"/>
<text x="161.16666666666666" y="381" text-anchor="middle" class="lbl">3.7</text>
<line x1="252.33333333333331" y1="55" x2="252.33333333333331" y2="365" class="grid"/>
<text x="252.33333333333331" y="381" text-anchor="middle" class="lbl">7.5</text>
<line x1="343.5" y1="55" x2="343.5" y2="365" class="grid"/>
<text x="343.5" y="381" text-anchor="middle" class="lbl">11.2</text>
<line x1="434.66666666666663" y1="55" x2="434.66666666666663" y2="365" class="grid"/>
<text x="434.66666666666663" y="381" text-anchor="middle" class="lbl">15.0</text>
<line x1="525.8333333333334" y1="55" x2="525.8333333333334" y2="365" class="grid"/>
<text x="525.8333333333334" y="381" text-anchor="middle" class="lbl">18.7</text>
<line x1="617.0" y1="55" x2="617.0" y2="365" class="grid"/>
<text x="617.0" y="381" text-anchor="middle" class="lbl">22.4</text>
<text x="343.5" y="397" text-anchor="middle" class="lbl">radius (kpc)</text>
<text x="16" y="210.0" text-anchor="middle" class="lbl-l" transform="rotate(-90, 16, 210.0)">velocity (km/s)</text>
<text x="661" y="210.0" text-anchor="middle" class="lbl-r" transform="rotate(-90, 661, 210.0)">mass profile (normalized to peak)</text>
<rect x="70" y="55" width="547" height="310" class="ax"/>
<path d="M 70.0,158.3 L 72.5,204.9 L 75.0,251.5 L 77.5,298.1 L 80.0,336.1 L 82.5,336.4 L 85.0,336.8 L 87.5,337.1 L 90.0,337.5 L 92.5,337.8 L 95.0,338.2 L 97.5,338.5 L 100.0,338.9 L 102.5,339.2 L 105.0,339.6 L 107.5,339.9 L 110.0,340.2 L 112.5,340.6 L 115.0,340.9 L 117.5,341.3 L 120.0,341.6 L 122.5,342.0 L 124.9,342.3 L 127.4,342.7 L 129.9,343.0 L 132.4,343.4 L 134.9,343.7 L 137.4,344.1 L 139.9,344.4 L 142.4,344.8 L 144.9,345.1 L 147.4,345.5 L 149.9,345.8 L 152.4,346.2 L 154.9,346.3 L 157.4,346.4 L 159.9,346.5 L 162.4,346.6 L 164.9,346.7 L 167.4,346.8 L 169.9,347.0 L 172.4,347.1 L 174.9,347.2 L 177.4,347.3 L 179.9,347.4 L 182.4,347.5 L 184.9,347.6 L 187.4,347.7 L 189.9,347.8 L 192.4,347.9 L 194.9,348.1 L 197.4,348.2 L 199.9,348.3 L 202.4,348.4 L 204.9,348.5 L 207.4,348.6 L 209.9,348.7 L 212.4,348.8 L 214.9,348.9 L 217.4,349.0 L 219.9,349.1 L 222.4,349.3 L 224.9,349.4 L 227.4,349.5 L 229.9,349.6 L 232.4,349.7 L 234.8,349.8 L 237.3,349.9 L 239.8,350.0 L 242.3,350.1 L 244.8,350.1 L 247.3,350.2 L 249.8,350.3 L 252.3,350.3 L 254.8,350.4 L 257.3,350.4 L 259.8,350.5 L 262.3,350.5 L 264.8,350.6 L 267.3,350.7 L 269.8,350.7 L 272.3,350.8 L 274.8,350.8 L 277.3,350.9 L 279.8,351.0 L 282.3,351.0 L 284.8,351.1 L 287.3,351.1 L 289.8,351.2 L 292.3,351.3 L 294.8,351.3 L 297.3,351.4 L 299.8,351.4 L 302.3,351.5 L 304.8,351.6 L 307.3,351.6 L 309.8,351.7 L 312.3,351.7 L 314.8,351.8 L 317.3,351.8 L 319.8,351.9 L 322.3,352.0 L 324.8,352.0 L 327.3,352.1 L 329.8,352.1 L 332.3,352.2 L 334.8,352.3 L 337.3,352.3 L 339.8,352.4 L 342.3,352.4 L 344.7,352.5 L 347.2,352.6 L 349.7,352.6 L 352.2,352.7 L 354.7,352.7 L 357.2,352.8 L 359.7,352.9 L 362.2,352.9 L 364.7,353.0 L 367.2,353.0 L 369.7,353.1 L 372.2,353.1 L 374.7,353.2 L 377.2,353.3 L 379.7,353.3 L 382.2,353.4 L 384.7,353.4 L 387.2,353.5 L 389.7,353.6 L 392.2,353.6 L 394.7,353.7 L 397.2,353.7 L 399.7,353.8 L 402.2,353.9 L 404.7,353.9 L 407.2,354.0 L 409.7,354.0 L 412.2,354.1 L 414.7,354.2 L 417.2,354.2 L 419.7,354.3 L 422.2,354.3 L 424.7,354.4 L 427.2,354.4 L 429.7,354.5 L 432.2,354.6 L 434.7,354.6 L 437.2,354.7 L 439.7,354.7 L 442.2,354.8 L 444.7,354.9 L 447.2,354.9 L 449.7,355.0 L 452.2,355.0 L 454.6,355.1 L 457.1,355.2 L 459.6,355.2 L 462.1,355.3 L 464.6,355.3 L 467.1,355.4 L 469.6,355.4 L 472.1,355.5 L 474.6,355.6 L 477.1,355.6 L 479.6,355.7 L 482.1,355.7 L 484.6,355.8 L 487.1,355.9 L 489.6,355.9 L 492.1,356.0 L 494.6,356.0 L 497.1,356.1 L 499.6,356.2 L 502.1,356.2 L 504.6,356.3 L 507.1,356.3 L 509.6,356.4 L 512.1,356.5 L 514.6,356.5 L 517.1,356.6 L 519.6,356.6 L 522.1,356.7 L 524.6,356.7 L 527.1,356.8 L 529.6,356.9 L 532.1,356.9 L 534.6,357.0 L 537.1,357.0 L 539.6,357.1 L 542.1,357.2 L 544.6,357.2 L 547.1,357.3 L 549.6,357.3 L 552.1,357.4 L 554.6,357.5 L 557.1,357.5 L 559.6,357.6 L 562.1,357.6 L 564.5,357.7 L 567.0,357.8 L 569.5,357.8 L 572.0,357.9 L 574.5,357.9 L 577.0,358.0 L 579.5,358.0 L 582.0,358.1 L 584.5,358.2 L 587.0,359.4 L 589.5,363.0 L 592.0,365.0 L 594.5,365.0 L 597.0,365.0 L 599.5,365.0 L 602.0,365.0 L 604.5,365.0 L 607.0,365.0 L 609.5,365.0 L 612.0,365.0 L 614.5,365.0 L 617.0,365.0" class="rho"/>
<path d="M 70.0,158.3 L 72.5,165.3 L 75.0,175.2 L 77.5,186.9 L 80.0,199.2 L 82.5,210.9 L 85.0,221.2 L 87.5,229.5 L 90.0,236.3 L 92.5,241.9 L 95.0,246.6 L 97.5,250.7 L 100.0,254.3 L 102.5,257.5 L 105.0,260.3 L 107.5,262.9 L 110.0,265.4 L 112.5,267.7 L 115.0,269.8 L 117.5,271.9 L 120.0,273.8 L 122.5,275.7 L 124.9,277.5 L 127.4,279.2 L 129.9,280.9 L 132.4,282.5 L 134.9,284.1 L 137.4,285.6 L 139.9,287.0 L 142.4,288.4 L 144.9,289.8 L 147.4,291.1 L 149.9,292.4 L 152.4,293.6 L 154.9,294.7 L 157.4,295.8 L 159.9,296.9 L 162.4,297.9 L 164.9,298.9 L 167.4,299.9 L 169.9,300.8 L 172.4,301.8 L 174.9,302.6 L 177.4,303.5 L 179.9,304.3 L 182.4,305.2 L 184.9,306.0 L 187.4,306.7 L 189.9,307.5 L 192.4,308.3 L 194.9,309.0 L 197.4,309.7 L 199.9,310.4 L 202.4,311.1 L 204.9,311.8 L 207.4,312.5 L 209.9,313.1 L 212.4,313.8 L 214.9,314.4 L 217.4,315.1 L 219.9,315.7 L 222.4,316.3 L 224.9,316.9 L 227.4,317.5 L 229.9,318.0 L 232.4,318.6 L 234.8,319.1 L 237.3,319.7 L 239.8,320.2 L 242.3,320.7 L 244.8,321.2 L 247.3,321.7 L 249.8,322.2 L 252.3,322.7 L 254.8,323.1 L 257.3,323.6 L 259.8,324.0 L 262.3,324.5 L 264.8,324.9 L 267.3,325.3 L 269.8,325.8 L 272.3,326.2 L 274.8,326.6 L 277.3,327.0 L 279.8,327.4 L 282.3,327.8 L 284.8,328.2 L 287.3,328.6 L 289.8,329.0 L 292.3,329.3 L 294.8,329.7 L 297.3,330.1 L 299.8,330.5 L 302.3,330.8 L 304.8,331.2 L 307.3,331.5 L 309.8,331.9 L 312.3,332.2 L 314.8,332.6 L 317.3,332.9 L 319.8,333.3 L 322.3,333.6 L 324.8,333.9 L 327.3,334.3 L 329.8,334.6 L 332.3,334.9 L 334.8,335.2 L 337.3,335.5 L 339.8,335.9 L 342.3,336.2 L 344.7,336.5 L 347.2,336.8 L 349.7,337.1 L 352.2,337.4 L 354.7,337.7 L 357.2,338.0 L 359.7,338.3 L 362.2,338.6 L 364.7,338.9 L 367.2,339.2 L 369.7,339.5 L 372.2,339.7 L 374.7,340.0 L 377.2,340.3 L 379.7,340.6 L 382.2,340.8 L 384.7,341.1 L 387.2,341.4 L 389.7,341.7 L 392.2,341.9 L 394.7,342.2 L 397.2,342.4 L 399.7,342.7 L 402.2,343.0 L 404.7,343.2 L 407.2,343.5 L 409.7,343.7 L 412.2,344.0 L 414.7,344.2 L 417.2,344.5 L 419.7,344.7 L 422.2,344.9 L 424.7,345.2 L 427.2,345.4 L 429.7,345.7 L 432.2,345.9 L 434.7,346.1 L 437.2,346.4 L 439.7,346.6 L 442.2,346.8 L 444.7,347.0 L 447.2,347.3 L 449.7,347.5 L 452.2,347.7 L 454.6,347.9 L 457.1,348.1 L 459.6,348.3 L 462.1,348.5 L 464.6,348.8 L 467.1,349.0 L 469.6,349.2 L 472.1,349.4 L 474.6,349.6 L 477.1,349.8 L 479.6,350.0 L 482.1,350.2 L 484.6,350.4 L 487.1,350.6 L 489.6,350.8 L 492.1,350.9 L 494.6,351.1 L 497.1,351.3 L 499.6,351.5 L 502.1,351.7 L 504.6,351.9 L 507.1,352.1 L 509.6,352.2 L 512.1,352.4 L 514.6,352.6 L 517.1,352.8 L 519.6,352.9 L 522.1,353.1 L 524.6,353.3 L 527.1,353.5 L 529.6,353.6 L 532.1,353.8 L 534.6,354.0 L 537.1,354.1 L 539.6,354.3 L 542.1,354.5 L 544.6,354.6 L 547.1,354.8 L 549.6,355.0 L 552.1,355.1 L 554.6,355.3 L 557.1,355.5 L 559.6,355.6 L 562.1,355.8 L 564.5,356.0 L 567.0,356.2 L 569.5,356.3 L 572.0,356.5 L 574.5,356.7 L 577.0,356.9 L 579.5,357.0 L 582.0,357.2 L 584.5,357.4 L 587.0,357.6 L 589.5,357.8 L 592.0,358.0 L 594.5,358.1 L 597.0,358.3 L 599.5,358.5 L 602.0,358.6 L 604.5,358.7 L 607.0,358.9 L 609.5,359.0 L 612.0,359.1 L 614.5,359.2 L 617.0,359.3" class="sig"/>
<path d="M 75.5,261.2 L 80.9,257.9 L 86.4,258.6 L 91.9,254.3 L 97.3,248.6 L 102.8,242.4 L 108.3,236.4 L 113.8,230.7 L 119.2,225.2 L 124.7,220.1 L 130.2,215.3 L 135.6,210.9 L 141.1,206.8 L 146.6,203.0 L 152.1,199.5 L 157.5,196.2 L 163.0,193.0 L 168.5,189.8 L 173.9,186.6 L 179.4,183.6 L 184.9,180.6 L 190.3,177.7 L 195.8,174.9 L 201.3,172.2 L 206.8,169.5 L 212.2,166.9 L 217.7,164.4 L 223.2,162.0 L 228.6,159.6 L 234.1,157.4 L 239.6,155.2 L 245.0,153.0 L 250.5,150.9 L 256.0,148.8 L 261.4,146.8 L 266.9,144.7 L 272.4,142.8 L 277.9,140.8 L 283.3,138.9 L 288.8,137.0 L 294.3,135.2 L 299.7,133.3 L 305.2,131.6 L 310.7,129.8 L 316.1,128.1 L 321.6,126.5 L 327.1,124.8 L 332.6,123.2 L 338.0,121.6 L 343.5,120.1 L 349.0,118.6 L 354.4,117.1 L 359.9,115.6 L 365.4,114.2 L 370.8,112.8 L 376.3,111.5 L 381.8,110.2 L 387.3,108.9 L 392.7,107.6 L 398.2,106.4 L 403.7,105.2 L 409.1,104.0 L 414.6,102.8 L 420.1,101.7 L 425.6,100.6 L 431.0,99.5 L 436.5,98.5 L 442.0,97.5 L 447.4,96.5 L 452.9,95.5 L 458.4,94.6 L 463.8,93.7 L 469.3,92.8 L 474.8,92.0 L 480.2,91.2 L 485.7,90.4 L 491.2,89.6 L 496.7,88.8 L 502.1,88.1 L 507.6,87.4 L 513.1,86.7 L 518.5,86.1 L 524.0,85.5 L 529.5,84.9 L 535.0,84.3 L 540.4,83.7 L 545.9,83.2 L 551.4,82.7 L 556.8,82.2 L 562.3,81.8 L 567.8,81.3 L 573.2,80.9 L 578.7,80.5 L 584.2,80.2 L 589.7,80.2 L 595.1,81.7 L 600.6,83.1 L 606.1,84.5 L 611.5,86.0 L 617.0,87.4" class="nt"/>
<path d="M 74.6,206.1 L 79.1,128.7 L 83.7,94.3 L 88.2,95.4 L 92.8,110.1 L 97.3,123.6 L 101.9,132.0 L 106.5,136.4 L 111.0,138.3 L 115.6,138.3 L 120.1,137.6 L 124.7,136.2 L 129.3,134.8 L 133.8,133.5 L 138.4,132.7 L 142.9,132.6 L 147.5,133.4 L 152.1,135.1 L 156.6,137.1 L 161.2,139.2 L 165.7,140.8 L 170.3,142.0 L 174.8,142.6 L 179.4,143.0 L 184.0,143.2 L 188.5,143.2 L 193.1,143.1 L 197.6,143.0 L 202.2,142.8 L 206.8,142.7 L 211.3,142.7 L 215.9,142.7 L 220.4,142.9 L 225.0,143.4 L 229.5,144.1 L 234.1,145.1 L 238.7,146.3 L 243.2,147.6 L 247.8,148.9 L 252.3,149.9 L 256.9,150.7 L 261.4,151.3 L 266.0,151.8 L 270.6,152.1 L 275.1,152.3 L 279.7,152.4 L 284.2,152.5 L 288.8,152.5 L 293.4,152.4 L 297.9,152.4 L 302.5,152.3 L 307.0,152.1 L 311.6,152.0 L 316.1,151.8 L 320.7,151.7 L 325.3,151.5 L 329.8,151.3 L 334.4,151.2 L 338.9,151.0 L 343.5,150.9 L 348.1,150.8 L 352.6,150.7 L 357.2,150.6 L 361.7,150.5 L 366.3,150.4 L 370.9,150.4 L 375.4,150.3 L 380.0,150.3 L 384.5,150.3 L 389.1,150.4 L 393.6,150.4 L 398.2,150.5 L 402.8,150.6 L 407.3,150.8 L 411.9,150.9 L 416.4,151.1 L 421.0,151.3 L 425.5,151.5 L 430.1,151.8 L 434.7,152.0 L 439.2,152.3 L 443.8,152.6 L 448.3,153.0 L 452.9,153.3 L 457.5,153.7 L 462.0,154.1 L 466.6,154.5 L 471.1,154.9 L 475.7,155.3 L 480.2,155.7 L 484.8,156.2 L 489.4,156.6 L 493.9,157.1 L 498.5,157.5 L 503.0,157.9 L 507.6,158.3 L 512.2,158.7 L 516.7,159.0 L 521.3,159.3 L 525.8,159.5 L 530.4,159.6 L 535.0,159.5 L 539.5,159.3 L 544.1,158.8 L 548.6,158.0 L 553.2,156.8 L 557.7,155.0 L 562.3,152.6 L 566.9,149.5 L 571.4,145.8 L 576.0,142.1 L 580.5,139.2 L 585.1,138.8 L 589.7,141.3 L 594.2,147.5 L 598.8,156.0 L 603.3,165.6 L 607.9,175.1 L 612.4,183.8 L 617.0,191.6" class="fw"/>
<line x1="85.36098310291858" y1="88.50243127143062" x2="85.36098310291858" y2="118.12717077806306" class="err"/>
<line x1="82.36098310291858" y1="88.50243127143062" x2="88.36098310291858" y2="88.50243127143062" class="err"/>
<line x1="82.36098310291858" y1="118.12717077806306" x2="88.36098310291858" y2="118.12717077806306" class="err"/>
<circle cx="85.36098310291858" cy="103.31480102474683" r="2.5" class="obs"/>
<line x1="111.93792212225392" y1="103.31480102474683" x2="111.93792212225392" y2="132.93954053137924" class="err"/>
<line x1="108.93792212225392" y1="103.31480102474683" x2="114.93792212225392" y2="103.31480102474683" class="err"/>
<line x1="108.93792212225392" y1="132.93954053137924" x2="114.93792212225392" y2="132.93954053137924" class="err"/>
<circle cx="111.93792212225392" cy="118.12717077806306" r="2.5" class="obs"/>
<line x1="138.02721088435374" y1="127.7157114650431" x2="138.02721088435374" y2="142.11333486526644" class="err"/>
<line x1="135.02721088435374" y1="127.7157114650431" x2="141.02721088435374" y2="127.7157114650431" class="err"/>
<line x1="135.02721088435374" y1="142.11333486526644" x2="141.02721088435374" y2="142.11333486526644" class="err"/>
<circle cx="138.02721088435374" cy="134.91452316515475" r="2.5" class="obs"/>
<line x1="165.33562528954232" y1="131.507678121892" x2="165.33562528954232" y2="144.24631610974396" class="err"/>
<line x1="162.33562528954232" y1="131.507678121892" x2="168.33562528954232" y2="131.507678121892" class="err"/>
<line x1="162.33562528954232" y1="144.24631610974396" x2="168.33562528954232" y2="144.24631610974396" class="err"/>
<circle cx="165.33562528954232" cy="137.876997115818" r="2.5" class="obs"/>
<line x1="192.6440396947309" y1="134.5491513779063" x2="192.6440396947309" y2="145.15480812128072" class="err"/>
<line x1="189.6440396947309" y1="134.5491513779063" x2="195.6440396947309" y2="134.5491513779063" class="err"/>
<line x1="189.6440396947309" y1="145.15480812128072" x2="195.6440396947309" y2="145.15480812128072" class="err"/>
<circle cx="192.6440396947309" cy="139.8519797495935" r="2.5" class="obs"/>
<line x1="219.70862897130175" y1="134.7565245544527" x2="219.70862897130175" y2="144.94743494473425" class="err"/>
<line x1="216.70862897130175" y1="134.7565245544527" x2="222.70862897130175" y2="134.7565245544527" class="err"/>
<line x1="216.70862897130175" y1="144.94743494473425" x2="222.70862897130175" y2="144.94743494473425" class="err"/>
<circle cx="219.70862897130175" cy="139.8519797495935" r="2.5" class="obs"/>
<line x1="247.01704337649034" y1="134.97377264416804" x2="247.01704337649034" y2="146.70516948879447" class="err"/>
<line x1="244.01704337649034" y1="134.97377264416804" x2="250.01704337649034" y2="134.97377264416804" class="err"/>
<line x1="244.01704337649034" y1="146.70516948879447" x2="250.01704337649034" y2="146.70516948879447" class="err"/>
<circle cx="247.01704337649034" cy="140.83947106648122" r="2.5" class="obs"/>
<line x1="274.08163265306115" y1="138.86448843270574" x2="274.08163265306115" y2="144.78943633403225" class="err"/>
<line x1="271.08163265306115" y1="138.86448843270574" x2="277.08163265306115" y2="138.86448843270574" class="err"/>
<line x1="271.08163265306115" y1="144.78943633403225" x2="277.08163265306115" y2="144.78943633403225" class="err"/>
<circle cx="274.08163265306115" cy="141.826962383369" r="2.5" class="obs"/>
<line x1="301.6338721868675" y1="140.91847037183229" x2="301.6338721868675" y2="148.6604022962322" class="err"/>
<line x1="298.6338721868675" y1="140.91847037183229" x2="304.6338721868675" y2="140.91847037183229" class="err"/>
<line x1="298.6338721868675" y1="148.6604022962322" x2="304.6338721868675" y2="148.6604022962322" class="err"/>
<circle cx="301.6338721868675" cy="144.78943633403225" r="2.5" class="obs"/>
<line x1="329.6737619779094" y1="145.87567678260876" x2="329.6737619779094" y2="151.60312642055771" class="err"/>
<line x1="326.6737619779094" y1="145.87567678260876" x2="332.6737619779094" y2="145.87567678260876" class="err"/>
<line x1="326.6737619779094" y1="151.60312642055771" x2="332.6737619779094" y2="151.60312642055771" class="err"/>
<circle cx="329.6737619779094" cy="148.7394016015832" r="2.5" class="obs"/>
<line x1="356.25070099724473" y1="149.18377269418272" x2="356.25070099724473" y2="154.21997841031026" class="err"/>
<line x1="353.25070099724473" y1="149.18377269418272" x2="359.25070099724473" y2="149.18377269418272" class="err"/>
<line x1="353.25070099724473" y1="154.21997841031026" x2="359.25070099724473" y2="154.21997841031026" class="err"/>
<circle cx="356.25070099724473" cy="151.70187555224646" r="2.5" class="obs"/>
<line x1="382.58381488796226" y1="151.1587553279582" x2="382.58381488796226" y2="156.19496104408574" class="err"/>
<line x1="379.58381488796226" y1="151.1587553279582" x2="385.58381488796226" y2="151.1587553279582" class="err"/>
<line x1="379.58381488796226" y1="156.19496104408574" x2="385.58381488796226" y2="156.19496104408574" class="err"/>
<circle cx="382.58381488796226" cy="153.67685818602197" r="2.5" class="obs"/>
<line x1="411.59900519347514" y1="150.6452598431766" x2="411.59900519347514" y2="156.70845652886734" class="err"/>
<line x1="408.59900519347514" y1="150.6452598431766" x2="414.59900519347514" y2="150.6452598431766" class="err"/>
<line x1="408.59900519347514" y1="156.70845652886734" x2="414.59900519347514" y2="156.70845652886734" class="err"/>
<circle cx="411.59900519347514" cy="153.67685818602197" r="2.5" class="obs"/>
<line x1="437.9321190841927" y1="150.11201453205717" x2="437.9321190841927" y2="157.24170183998677" class="err"/>
<line x1="434.9321190841927" y1="150.11201453205717" x2="440.9321190841927" y2="150.11201453205717" class="err"/>
<line x1="434.9321190841927" y1="157.24170183998677" x2="440.9321190841927" y2="157.24170183998677" class="err"/>
<circle cx="437.9321190841927" cy="153.67685818602197" r="2.5" class="obs"/>
<line x1="464.5090581035281" y1="149.2726469127026" x2="464.5090581035281" y2="158.08106945934134" class="err"/>
<line x1="461.5090581035281" y1="149.2726469127026" x2="467.5090581035281" y2="149.2726469127026" class="err"/>
<line x1="461.5090581035281" y1="158.08106945934134" x2="467.5090581035281" y2="158.08106945934134" class="err"/>
<circle cx="464.5090581035281" cy="153.67685818602197" r="2.5" class="obs"/>
<line x1="493.2804232804232" y1="148.6702772094011" x2="493.2804232804232" y2="158.68343916264286" class="err"/>
<line x1="490.2804232804232" y1="148.6702772094011" x2="496.2804232804232" y2="148.6702772094011" class="err"/>
<line x1="490.2804232804232" y1="158.68343916264286" x2="496.2804232804232" y2="158.68343916264286" class="err"/>
<circle cx="493.2804232804232" cy="153.67685818602197" r="2.5" class="obs"/>
<line x1="519.6135371711408" y1="148.95664969129854" x2="519.6135371711408" y2="158.3970666807454" class="err"/>
<line x1="516.6135371711408" y1="148.95664969129854" x2="522.6135371711408" y2="148.95664969129854" class="err"/>
<line x1="516.6135371711408" y1="158.3970666807454" x2="522.6135371711408" y2="158.3970666807454" class="err"/>
<circle cx="519.6135371711408" cy="153.67685818602197" r="2.5" class="obs"/>
<line x1="546.1904761904761" y1="148.86777547277865" x2="546.1904761904761" y2="158.4859408992653" class="err"/>
<line x1="543.1904761904761" y1="148.86777547277865" x2="549.1904761904761" y2="148.86777547277865" class="err"/>
<line x1="543.1904761904761" y1="158.4859408992653" x2="549.1904761904761" y2="158.4859408992653" class="err"/>
<circle cx="546.1904761904761" cy="153.67685818602197" r="2.5" class="obs"/>
<g class="legend">
<line x1="82" y1="69" x2="106" y2="69" class="fw"/>
<text x="112" y="73" class="lbl-l">framework fit</text>
<line x1="82" y1="87" x2="106" y2="87" class="nt"/>
<text x="112" y="91" class="lbl-l">Newtonian (no halo)</text>
<circle cx="94" cy="105" r="2.5" class="obs"/>
<text x="112" y="109" class="lbl">observed V±err</text>
</g>
<g class="legend">
<line x1="472" y1="69" x2="496" y2="69" class="rho"/>
<text x="502" y="73" class="lbl-r">ρ(r) raw</text>
<line x1="472" y1="87" x2="496" y2="87" class="sig"/>
<text x="502" y="91" class="lbl-s">Σ(r) cumulative</text>
<text x="472" y="113" class="lbl-r">ρ peak: 5433 M☉/pc²</text>
</g>
<rect x="705" y="55" width="170" height="170" class="preview-bg"/>
<defs><radialGradient id="g_NGC7814" cx="0.5" cy="0.5" r="0.5">
  <stop offset="0.0000" stop-color="rgb(255,255,255)"/>
  <stop offset="0.0312" stop-color="rgb(237,237,237)"/>
  <stop offset="0.0625" stop-color="rgb(221,221,221)"/>
  <stop offset="0.0938" stop-color="rgb(205,205,205)"/>
  <stop offset="0.1250" stop-color="rgb(189,189,189)"/>
  <stop offset="0.1562" stop-color="rgb(172,172,172)"/>
  <stop offset="0.1875" stop-color="rgb(166,166,166)"/>
  <stop offset="0.2188" stop-color="rgb(161,161,161)"/>
  <stop offset="0.2500" stop-color="rgb(156,156,156)"/>
  <stop offset="0.2812" stop-color="rgb(151,151,151)"/>
  <stop offset="0.3125" stop-color="rgb(146,146,146)"/>
  <stop offset="0.3438" stop-color="rgb(142,142,142)"/>
  <stop offset="0.3750" stop-color="rgb(139,139,139)"/>
  <stop offset="0.4062" stop-color="rgb(136,136,136)"/>
  <stop offset="0.4375" stop-color="rgb(134,134,134)"/>
  <stop offset="0.4688" stop-color="rgb(131,131,131)"/>
  <stop offset="0.5000" stop-color="rgb(128,128,128)"/>
  <stop offset="0.5312" stop-color="rgb(125,125,125)"/>
  <stop offset="0.5625" stop-color="rgb(123,123,123)"/>
  <stop offset="0.5938" stop-color="rgb(120,120,120)"/>
  <stop offset="0.6250" stop-color="rgb(117,117,117)"/>
  <stop offset="0.6562" stop-color="rgb(114,114,114)"/>
  <stop offset="0.6875" stop-color="rgb(112,112,112)"/>
  <stop offset="0.7188" stop-color="rgb(109,109,109)"/>
  <stop offset="0.7500" stop-color="rgb(106,106,106)"/>
  <stop offset="0.7812" stop-color="rgb(103,103,103)"/>
  <stop offset="0.8125" stop-color="rgb(101,101,101)"/>
  <stop offset="0.8438" stop-color="rgb(98,98,98)"/>
  <stop offset="0.8750" stop-color="rgb(95,95,95)"/>
  <stop offset="0.9062" stop-color="rgb(92,92,92)"/>
  <stop offset="0.9375" stop-color="rgb(89,89,89)"/>
  <stop offset="0.9688" stop-color="rgb(87,87,87)"/>
  <stop offset="1.0000" stop-color="rgb(0,0,0)"/>
</radialGradient></defs>
<circle cx="790.0" cy="140.0" r="81.0" fill="url(#g_NGC7814)"/>
<text x="790.0" y="49" text-anchor="middle" class="preview-lbl">face-on luminance from ρ(r)</text>
<text x="790.0" y="239" text-anchor="middle" class="preview-lbl">edge at r = 21.4 kpc</text>
</svg>