<svg xmlns="http://www.w3.org/2000/svg" viewBox="0 0 720 420" width="720" height="420" font-family="sans-serif" font-size="12">
<style>
  .ax { stroke: #333; stroke-width: 1; fill: none; }
  .grid { stroke: #ddd; stroke-width: 0.5; fill: none; }
  .lbl { fill: #333; }
  .lbl-l { fill: #0066cc; }
  .lbl-r { fill: #b03030; }
  .obs { fill: #222; }
  .err { stroke: #555; stroke-width: 0.8; fill: none; }
  .fw { stroke: #0066cc; stroke-width: 2.2; fill: none; }
  .nt { stroke: #cc6600; stroke-width: 1.6; fill: none; stroke-dasharray: 5,3; }
  .rho { stroke: #b03030; stroke-width: 2.0; fill: none; }
  .sig { stroke: #b03030; stroke-width: 1.6; fill: none; stroke-dasharray: 4,2; opacity: 0.85; }
  .title { fill: #111; font-size: 16px; font-weight: 600; }
  .subtitle { fill: #555; font-size: 11px; }
  .legend { font-size: 11px; }
</style>
<text x="360.0" y="22" text-anchor="middle" class="title">NGC7793</text>
<text x="360.0" y="38" text-anchor="middle" class="subtitle">rMax=7.9 kpc, N=46, RMS=2.4 km/s (3.3%), amp=105</text>
<line x1="70" y1="365.0" x2="635" y2="365.0" class="grid"/>
<text x="64" y="369.0" text-anchor="end" class="lbl-l">0</text>
<line x1="70" y1="303.0" x2="635" y2="303.0" class="grid"/>
<text x="64" y="307.0" text-anchor="end" class="lbl-l">28</text>
<line x1="70" y1="241.00000000000003" x2="635" y2="241.00000000000003" class="grid"/>
<text x="64" y="245.00000000000003" text-anchor="end" class="lbl-l">55</text>
<line x1="70" y1="179.0" x2="635" y2="179.0" class="grid"/>
<text x="64" y="183.0" text-anchor="end" class="lbl-l">83</text>
<line x1="70" y1="117.00000000000003" x2="635" y2="117.00000000000003" class="grid"/>
<text x="64" y="121.00000000000003" text-anchor="end" class="lbl-l">110</text>
<line x1="70" y1="55.0" x2="635" y2="55.0" class="grid"/>
<text x="64" y="59.0" text-anchor="end" class="lbl-l">138</text>
<text x="641" y="369.0" text-anchor="start" class="lbl-r">0.0</text>
<text x="641" y="327.6666666666667" text-anchor="start" class="lbl-r">0.2</text>
<text x="641" y="286.33333333333337" text-anchor="start" class="lbl-r">0.4</text>
<text x="641" y="245.00000000000003" text-anchor="start" class="lbl-r">0.6</text>
<text x="641" y="203.66666666666666" text-anchor="start" class="lbl-r">0.8</text>
<text x="641" y="162.33333333333334" text-anchor="start" class="lbl-r">1.0</text>
<line x1="70.0" y1="55" x2="70.0" y2="365" class="grid"/>
<text x="70.0" y="381" text-anchor="middle" class="lbl">0.0</text>
<line x1="164.16666666666666" y1="55" x2="164.16666666666666" y2="365" class="grid"/>
<text x="164.16666666666666" y="381" text-anchor="middle" class="lbl">1.4</text>
<line x1="258.3333333333333" y1="55" x2="258.3333333333333" y2="365" class="grid"/>
<text x="258.3333333333333" y="381" text-anchor="middle" class="lbl">2.8</text>
<line x1="352.5" y1="55" x2="352.5" y2="365" class="grid"/>
<text x="352.5" y="381" text-anchor="middle" class="lbl">4.3</text>
<line x1="446.66666666666663" y1="55" x2="446.66666666666663" y2="365" class="grid"/>
<text x="446.66666666666663" y="381" text-anchor="middle" class="lbl">5.7</text>
<line x1="540.8333333333333" y1="55" x2="540.8333333333333" y2="365" class="grid"/>
<text x="540.8333333333333" y="381" text-anchor="middle" class="lbl">7.1</text>
<line x1="635.0" y1="55" x2="635.0" y2="365" class="grid"/>
<text x="635.0" y="381" text-anchor="middle" class="lbl">8.5</text>
<text x="352.5" y="408" text-anchor="middle" class="lbl">radius (kpc)</text>
<text x="16" y="210.0" text-anchor="middle" class="lbl-l" transform="rotate(-90, 16, 210.0)">velocity (km/s)</text>
<text x="704" y="210.0" text-anchor="middle" class="lbl-r" transform="rotate(-90, 704, 210.0)">mass profile (normalized to peak)</text>
<rect x="70" y="55" width="565" height="310" class="ax"/>
<path d="M 70.0,158.3 L 72.6,159.9 L 75.2,161.5 L 77.7,163.1 L 80.3,164.7 L 82.9,166.3 L 85.5,167.8 L 88.1,169.4 L 90.6,171.0 L 93.2,172.6 L 95.8,174.2 L 98.4,189.5 L 101.0,211.9 L 103.5,234.4 L 106.1,256.9 L 108.7,257.0 L 111.3,257.0 L 113.9,257.0 L 116.4,257.0 L 119.0,257.0 L 121.6,257.0 L 124.2,257.0 L 126.8,257.0 L 129.3,257.0 L 131.9,257.0 L 134.5,257.0 L 137.1,257.0 L 139.7,257.0 L 142.2,257.0 L 144.8,257.0 L 147.4,257.0 L 150.0,257.0 L 152.6,257.0 L 155.1,257.5 L 157.7,258.1 L 160.3,258.6 L 162.9,259.1 L 165.5,259.7 L 168.0,260.2 L 170.6,260.7 L 173.2,261.3 L 175.8,261.8 L 178.4,262.3 L 180.9,262.9 L 183.5,263.4 L 186.1,263.9 L 188.7,264.5 L 191.3,265.0 L 193.8,265.6 L 196.4,266.1 L 199.0,266.6 L 201.6,267.2 L 204.2,267.7 L 206.7,268.2 L 209.3,268.8 L 211.9,269.3 L 214.5,269.8 L 217.1,270.4 L 219.6,270.9 L 222.2,271.4 L 224.8,272.0 L 227.4,272.5 L 230.0,273.0 L 232.5,273.6 L 235.1,274.1 L 237.7,274.7 L 240.3,275.2 L 242.9,275.7 L 245.4,276.3 L 248.0,276.8 L 250.6,277.3 L 253.2,277.9 L 255.8,278.4 L 258.3,278.9 L 260.9,279.5 L 263.5,280.0 L 266.1,280.5 L 268.7,281.1 L 271.2,281.6 L 273.8,282.2 L 276.4,282.7 L 279.0,283.2 L 281.6,283.8 L 284.1,284.3 L 286.7,284.8 L 289.3,285.4 L 291.9,285.9 L 294.5,286.4 L 297.0,287.0 L 299.6,287.5 L 302.2,288.0 L 304.8,288.6 L 307.4,289.1 L 309.9,289.7 L 312.5,290.2 L 315.1,290.7 L 317.7,291.3 L 320.3,291.8 L 322.8,292.3 L 325.4,292.9 L 328.0,293.4 L 330.6,293.9 L 333.2,294.5 L 335.7,295.0 L 338.3,295.5 L 340.9,296.1 L 343.5,296.6 L 346.1,297.1 L 348.6,297.7 L 351.2,298.2 L 353.8,298.8 L 356.4,299.3 L 358.9,299.8 L 361.5,300.4 L 364.1,300.9 L 366.7,301.4 L 369.3,302.0 L 371.8,302.5 L 374.4,303.0 L 377.0,303.6 L 379.6,304.1 L 382.2,304.6 L 384.7,305.2 L 387.3,305.7 L 389.9,306.3 L 392.5,306.8 L 395.1,307.3 L 397.6,307.9 L 400.2,308.4 L 402.8,308.9 L 405.4,309.5 L 408.0,310.0 L 410.5,310.5 L 413.1,311.1 L 415.7,311.6 L 418.3,312.1 L 420.9,312.7 L 423.4,313.2 L 426.0,313.8 L 428.6,314.3 L 431.2,314.8 L 433.8,315.4 L 436.3,315.9 L 438.9,316.4 L 441.5,317.0 L 444.1,317.5 L 446.7,318.0 L 449.2,318.6 L 451.8,319.1 L 454.4,319.6 L 457.0,320.2 L 459.6,320.7 L 462.1,321.2 L 464.7,321.8 L 467.3,322.3 L 469.9,322.9 L 472.5,323.4 L 475.0,323.9 L 477.6,324.5 L 480.2,325.0 L 482.8,325.5 L 485.4,326.1 L 487.9,326.6 L 490.5,327.1 L 493.1,327.7 L 495.7,328.2 L 498.3,328.7 L 500.8,329.3 L 503.4,329.8 L 506.0,330.4 L 508.6,330.9 L 511.2,331.4 L 513.7,332.0 L 516.3,332.5 L 518.9,333.0 L 521.5,333.6 L 524.1,334.1 L 526.6,334.6 L 529.2,335.5 L 531.8,336.5 L 534.4,337.4 L 537.0,338.4 L 539.5,339.4 L 542.1,340.3 L 544.7,341.3 L 547.3,342.3 L 549.9,343.2 L 552.4,344.2 L 555.0,345.1 L 557.6,346.1 L 560.2,347.1 L 562.8,348.0 L 565.3,349.0 L 567.9,350.0 L 570.5,350.9 L 573.1,351.9 L 575.7,352.9 L 578.2,353.8 L 580.8,354.8 L 583.4,355.8 L 586.0,356.7 L 588.6,357.7 L 591.1,358.7 L 593.7,359.6 L 596.3,360.6 L 598.9,361.6 L 601.5,362.5 L 604.0,363.5 L 606.6,364.4 L 609.2,365.0 L 611.8,365.0 L 614.4,365.0 L 616.9,365.0 L 619.5,365.0 L 622.1,365.0 L 624.7,365.0 L 627.3,365.0 L 629.8,365.0 L 632.4,365.0 L 635.0,365.0" class="rho"/>
<path d="M 70.0,158.3 L 72.6,158.6 L 75.2,159.0 L 77.7,159.5 L 80.3,160.3 L 82.9,161.2 L 85.5,162.4 L 88.1,163.8 L 90.6,165.3 L 93.2,166.9 L 95.8,168.6 L 98.4,170.4 L 101.0,172.3 L 103.5,174.2 L 106.1,176.1 L 108.7,177.9 L 111.3,179.7 L 113.9,181.5 L 116.4,183.2 L 119.0,184.8 L 121.6,186.4 L 124.2,187.9 L 126.8,189.3 L 129.3,190.7 L 131.9,192.0 L 134.5,193.3 L 137.1,194.6 L 139.7,195.8 L 142.2,197.0 L 144.8,198.2 L 147.4,199.4 L 150.0,200.5 L 152.6,201.7 L 155.1,202.8 L 157.7,203.9 L 160.3,205.0 L 162.9,206.2 L 165.5,207.3 L 168.0,208.4 L 170.6,209.5 L 173.2,210.6 L 175.8,211.7 L 178.4,212.8 L 180.9,213.9 L 183.5,215.1 L 186.1,216.2 L 188.7,217.3 L 191.3,218.4 L 193.8,219.5 L 196.4,220.6 L 199.0,221.7 L 201.6,222.9 L 204.2,224.0 L 206.7,225.1 L 209.3,226.2 L 211.9,227.3 L 214.5,228.4 L 217.1,229.6 L 219.6,230.7 L 222.2,231.8 L 224.8,232.9 L 227.4,234.0 L 230.0,235.2 L 232.5,236.3 L 235.1,237.4 L 237.7,238.5 L 240.3,239.6 L 242.9,240.7 L 245.4,241.9 L 248.0,243.0 L 250.6,244.1 L 253.2,245.2 L 255.8,246.3 L 258.3,247.4 L 260.9,248.5 L 263.5,249.6 L 266.1,250.7 L 268.7,251.8 L 271.2,252.9 L 273.8,254.0 L 276.4,255.1 L 279.0,256.2 L 281.6,257.3 L 284.1,258.4 L 286.7,259.4 L 289.3,260.5 L 291.9,261.6 L 294.5,262.6 L 297.0,263.7 L 299.6,264.8 L 302.2,265.8 L 304.8,266.9 L 307.4,267.9 L 309.9,269.0 L 312.5,270.0 L 315.1,271.1 L 317.7,272.1 L 320.3,273.1 L 322.8,274.1 L 325.4,275.1 L 328.0,276.2 L 330.6,277.2 L 333.2,278.2 L 335.7,279.2 L 338.3,280.2 L 340.9,281.1 L 343.5,282.1 L 346.1,283.1 L 348.6,284.1 L 351.2,285.0 L 353.8,286.0 L 356.4,286.9 L 358.9,287.9 L 361.5,288.8 L 364.1,289.8 L 366.7,290.7 L 369.3,291.6 L 371.8,292.5 L 374.4,293.4 L 377.0,294.3 L 379.6,295.2 L 382.2,296.1 L 384.7,297.0 L 387.3,297.9 L 389.9,298.8 L 392.5,299.6 L 395.1,300.5 L 397.6,301.3 L 400.2,302.2 L 402.8,303.0 L 405.4,303.8 L 408.0,304.6 L 410.5,305.5 L 413.1,306.3 L 415.7,307.1 L 418.3,307.9 L 420.9,308.7 L 423.4,309.4 L 426.0,310.2 L 428.6,311.0 L 431.2,311.7 L 433.8,312.5 L 436.3,313.2 L 438.9,313.9 L 441.5,314.7 L 444.1,315.4 L 446.7,316.1 L 449.2,316.8 L 451.8,317.5 L 454.4,318.2 L 457.0,318.9 L 459.6,319.6 L 462.1,320.2 L 464.7,320.9 L 467.3,321.5 L 469.9,322.2 L 472.5,322.8 L 475.0,323.5 L 477.6,324.1 L 480.2,324.7 L 482.8,325.3 L 485.4,325.9 L 487.9,326.5 L 490.5,327.1 L 493.1,327.7 L 495.7,328.2 L 498.3,328.8 L 500.8,329.4 L 503.4,329.9 L 506.0,330.5 L 508.6,331.0 L 511.2,331.5 L 513.7,332.1 L 516.3,332.6 L 518.9,333.1 L 521.5,333.6 L 524.1,334.1 L 526.6,334.6 L 529.2,335.1 L 531.8,335.5 L 534.4,336.0 L 537.0,336.5 L 539.5,336.9 L 542.1,337.4 L 544.7,337.8 L 547.3,338.3 L 549.9,338.7 L 552.4,339.1 L 555.0,339.5 L 557.6,339.9 L 560.2,340.3 L 562.8,340.7 L 565.3,341.0 L 567.9,341.4 L 570.5,341.8 L 573.1,342.1 L 575.7,342.4 L 578.2,342.8 L 580.8,343.1 L 583.4,343.4 L 586.0,343.7 L 588.6,344.0 L 591.1,344.3 L 593.7,344.6 L 596.3,344.9 L 598.9,345.1 L 601.5,345.4 L 604.0,345.7 L 606.6,345.9 L 609.2,346.1 L 611.8,346.4 L 614.4,346.6 L 616.9,346.8 L 619.5,347.1 L 622.1,347.3 L 624.7,347.5 L 627.3,347.7 L 629.8,347.9 L 632.4,348.1 L 635.0,348.3" class="sig"/>
<path d="M 75.7,313.6 L 81.3,292.8 L 87.0,277.0 L 92.6,264.0 L 98.2,253.0 L 103.9,246.5 L 109.6,243.7 L 115.2,240.5 L 120.8,236.9 L 126.5,233.0 L 132.2,229.0 L 137.8,224.9 L 143.4,220.8 L 149.1,216.7 L 154.8,212.6 L 160.4,208.6 L 166.1,204.8 L 171.7,201.1 L 177.3,197.5 L 183.0,194.0 L 188.7,190.7 L 194.3,187.4 L 200.0,184.3 L 205.6,181.3 L 211.2,178.3 L 216.9,175.5 L 222.5,172.7 L 228.2,170.0 L 233.8,167.4 L 239.5,164.9 L 245.2,162.5 L 250.8,160.1 L 256.5,157.8 L 262.1,155.6 L 267.8,153.5 L 273.4,151.4 L 279.0,149.4 L 284.7,147.4 L 290.3,145.5 L 296.0,143.7 L 301.6,141.9 L 307.3,140.2 L 313.0,138.6 L 318.6,137.0 L 324.2,135.4 L 329.9,133.9 L 335.6,132.5 L 341.2,131.1 L 346.9,129.7 L 352.5,128.5 L 358.1,127.2 L 363.8,126.0 L 369.4,124.9 L 375.1,123.8 L 380.7,122.7 L 386.4,121.7 L 392.1,120.8 L 397.7,119.8 L 403.3,119.0 L 409.0,118.1 L 414.6,117.3 L 420.3,116.6 L 425.9,115.9 L 431.6,115.2 L 437.2,114.6 L 442.9,114.0 L 448.6,113.5 L 454.2,113.0 L 459.9,112.5 L 465.5,112.1 L 471.2,111.8 L 476.8,111.4 L 482.4,111.1 L 488.1,110.9 L 493.8,110.7 L 499.4,110.5 L 505.1,110.4 L 510.7,110.3 L 516.4,110.2 L 522.0,110.2 L 527.7,110.2 L 533.3,110.3 L 539.0,110.5 L 544.6,110.8 L 550.2,111.1 L 555.9,111.5 L 561.5,112.1 L 567.2,112.7 L 572.8,113.4 L 578.5,114.1 L 584.1,115.0 L 589.8,116.0 L 595.4,117.0 L 601.1,118.1 L 606.7,119.4 L 612.4,120.6 L 618.1,121.9 L 623.7,123.1 L 629.4,124.4 L 635.0,125.6" class="nt"/>
<path d="M 74.7,340.8 L 79.4,322.5 L 84.1,302.8 L 88.8,284.2 L 93.5,267.7 L 98.2,254.0 L 103.0,243.4 L 107.7,236.0 L 112.4,231.3 L 117.1,228.7 L 121.8,227.2 L 126.5,226.0 L 131.2,224.9 L 135.9,223.4 L 140.6,221.5 L 145.3,219.1 L 150.0,216.3 L 154.8,213.2 L 159.5,209.7 L 164.2,206.1 L 168.9,202.4 L 173.6,198.7 L 178.3,194.9 L 183.0,191.2 L 187.7,187.5 L 192.4,183.9 L 197.1,180.3 L 201.8,176.8 L 206.5,173.4 L 211.2,170.1 L 216.0,166.8 L 220.7,163.6 L 225.4,160.5 L 230.1,157.5 L 234.8,154.5 L 239.5,151.7 L 244.2,148.9 L 248.9,146.3 L 253.6,143.7 L 258.3,141.2 L 263.0,138.8 L 267.8,136.5 L 272.5,134.3 L 277.2,132.1 L 281.9,130.1 L 286.6,128.1 L 291.3,126.3 L 296.0,124.5 L 300.7,122.8 L 305.4,121.2 L 310.1,119.7 L 314.8,118.2 L 319.5,116.9 L 324.2,115.6 L 329.0,114.5 L 333.7,113.4 L 338.4,112.4 L 343.1,111.5 L 347.8,110.6 L 352.5,109.9 L 357.2,109.2 L 361.9,108.6 L 366.6,108.1 L 371.3,107.7 L 376.0,107.4 L 380.8,107.1 L 385.5,106.9 L 390.2,106.8 L 394.9,106.8 L 399.6,106.9 L 404.3,107.0 L 409.0,107.2 L 413.7,107.5 L 418.4,107.9 L 423.1,108.3 L 427.8,108.8 L 432.5,109.4 L 437.2,110.1 L 442.0,110.8 L 446.7,111.6 L 451.4,112.4 L 456.1,113.4 L 460.8,114.4 L 465.5,115.4 L 470.2,116.5 L 474.9,117.7 L 479.6,118.9 L 484.3,120.2 L 489.0,121.5 L 493.8,122.9 L 498.5,124.3 L 503.2,125.7 L 507.9,127.2 L 512.6,128.7 L 517.3,130.3 L 522.0,131.9 L 526.7,133.7 L 531.4,135.6 L 536.1,137.7 L 540.8,140.0 L 545.5,142.5 L 550.2,145.2 L 555.0,148.2 L 559.7,151.4 L 564.4,154.7 L 569.1,158.2 L 573.8,161.8 L 578.5,165.4 L 583.2,169.1 L 587.9,172.8 L 592.6,176.4 L 597.3,180.0 L 602.0,183.4 L 606.8,186.7 L 611.5,189.9 L 616.2,192.8 L 620.9,195.7 L 625.6,198.4 L 630.3,201.0 L 635.0,203.4" class="fw"/>
<line x1="77.30216189208619" y1="325.4465709728868" x2="77.30216189208619" y2="363.65158764680297" class="err"/>
<line x1="74.30216189208619" y1="325.4465709728868" x2="80.30216189208619" y2="325.4465709728868" class="err"/>
<line x1="74.30216189208619" y1="363.65158764680297" x2="80.30216189208619" y2="363.65158764680297" class="err"/>
<circle cx="77.30216189208619" cy="344.54907930984484" r="2.5" class="obs"/>
<line x1="79.29366058992788" y1="308.8161519501233" x2="79.29366058992788" y2="342.07698999565025" class="err"/>
<line x1="76.29366058992788" y1="308.8161519501233" x2="82.29366058992788" y2="308.8161519501233" class="err"/>
<line x1="76.29366058992788" y1="342.07698999565025" x2="82.29366058992788" y2="342.07698999565025" class="err"/>
<circle cx="79.29366058992788" cy="325.4465709728868" r="2.5" class="obs"/>
<line x1="81.28515928776957" y1="304.9956502827316" x2="81.28515928776957" y2="338.2564883282587" class="err"/>
<line x1="78.28515928776957" y1="304.9956502827316" x2="84.28515928776957" y2="304.9956502827316" class="err"/>
<line x1="78.28515928776957" y1="338.2564883282587" x2="84.28515928776957" y2="338.2564883282587" class="err"/>
<circle cx="81.28515928776957" cy="321.62606930549515" r="2.5" class="obs"/>
<line x1="83.94049088489183" y1="294.8825576337538" x2="83.94049088489183" y2="323.64868783529073" class="err"/>
<line x1="80.94049088489183" y1="294.8825576337538" x2="86.94049088489183" y2="294.8825576337538" class="err"/>
<line x1="80.94049088489183" y1="323.64868783529073" x2="86.94049088489183" y2="323.64868783529073" class="err"/>
<circle cx="83.94049088489183" cy="309.26562273452225" r="2.5" class="obs"/>
<line x1="85.93198958273351" y1="281.3984341017834" x2="85.93198958273351" y2="313.7603305785124" class="err"/>
<line x1="82.93198958273351" y1="281.3984341017834" x2="88.93198958273351" y2="281.3984341017834" class="err"/>
<line x1="82.93198958273351" y1="313.7603305785124" x2="88.93198958273351" y2="313.7603305785124" class="err"/>
<circle cx="85.93198958273351" cy="297.5793823401479" r="2.5" class="obs"/>
<line x1="88.58732117985576" y1="269.9369290996085" x2="88.58732117985576" y2="302.74829636073656" class="err"/>
<line x1="85.58732117985576" y1="269.9369290996085" x2="91.58732117985576" y2="269.9369290996085" class="err"/>
<line x1="85.58732117985576" y1="302.74829636073656" x2="91.58732117985576" y2="302.74829636073656" class="err"/>
<circle cx="88.58732117985576" cy="286.3426127301725" r="2.5" class="obs"/>
<line x1="91.24265277697802" y1="261.8464549804263" x2="91.24265277697802" y2="296.00623459475133" class="err"/>
<line x1="88.24265277697802" y1="261.8464549804263" x2="94.24265277697802" y2="261.8464549804263" class="err"/>
<line x1="88.24265277697802" y1="296.00623459475133" x2="94.24265277697802" y2="296.00623459475133" class="err"/>
<circle cx="91.24265277697802" cy="278.92634478758885" r="2.5" class="obs"/>
<line x1="93.2341514748197" y1="249.2612730172539" x2="93.2341514748197" y2="288.8147020443671" class="err"/>
<line x1="90.2341514748197" y1="249.2612730172539" x2="96.2341514748197" y2="249.2612730172539" class="err"/>
<line x1="90.2341514748197" y1="288.8147020443671" x2="96.2341514748197" y2="288.8147020443671" class="err"/>
<circle cx="93.2341514748197" cy="269.03798753081054" r="2.5" class="obs"/>
<line x1="95.88948307194195" y1="247.46338987965783" x2="95.88948307194195" y2="271.2853414528056" class="err"/>
<line x1="92.88948307194195" y1="247.46338987965783" x2="98.88948307194195" y2="247.46338987965783" class="err"/>
<line x1="92.88948307194195" y1="271.2853414528056" x2="98.88948307194195" y2="271.2853414528056" class="err"/>
<circle cx="95.88948307194195" cy="259.3743656662317" r="2.5" class="obs"/>
<line x1="97.88098176978365" y1="240.49659272147312" x2="97.88098176978365" y2="265.6669566478179" class="err"/>
<line x1="94.88098176978365" y1="240.49659272147312" x2="100.88098176978365" y2="240.49659272147312" class="err"/>
<line x1="94.88098176978365" y1="265.6669566478179" x2="100.88098176978365" y2="265.6669566478179" class="err"/>
<circle cx="97.88098176978365" cy="253.0817746846455" r="2.5" class="obs"/>
<line x1="100.5363133669059" y1="233.75453095548792" x2="100.5363133669059" y2="261.6217195882268" class="err"/>
<line x1="97.5363133669059" y1="233.75453095548792" x2="103.5363133669059" y2="233.75453095548792" class="err"/>
<line x1="97.5363133669059" y1="261.6217195882268" x2="103.5363133669059" y2="261.6217195882268" class="err"/>
<circle cx="100.5363133669059" cy="247.68812527185736" r="2.5" class="obs"/>
<line x1="102.5278120647476" y1="230.83297085689432" x2="102.5278120647476" y2="259.14963027403223" class="err"/>
<line x1="99.5278120647476" y1="230.83297085689432" x2="105.5278120647476" y2="230.83297085689432" class="err"/>
<line x1="99.5278120647476" y1="259.14963027403223" x2="105.5278120647476" y2="259.14963027403223" class="err"/>
<circle cx="102.5278120647476" cy="244.99130056546326" r="2.5" class="obs"/>
<line x1="105.18314366186985" y1="229.03508771929828" x2="105.18314366186985" y2="255.5538639988401" class="err"/>
<line x1="102.18314366186985" y1="229.03508771929828" x2="108.18314366186985" y2="229.03508771929828" class="err"/>
<line x1="102.18314366186985" y1="255.5538639988401" x2="108.18314366186985" y2="255.5538639988401" class="err"/>
<circle cx="105.18314366186985" cy="242.2944758590692" r="2.5" class="obs"/>
<line x1="107.17464235971153" y1="224.76511526750767" x2="107.17464235971153" y2="255.7785993910396" class="err"/>
<line x1="104.17464235971153" y1="224.76511526750767" x2="110.17464235971153" y2="224.76511526750767" class="err"/>
<line x1="104.17464235971153" y1="255.7785993910396" x2="110.17464235971153" y2="255.7785993910396" class="err"/>
<circle cx="107.17464235971153" cy="240.27185732927362" r="2.5" class="obs"/>
<line x1="109.82997395683378" y1="222.51776134551255" x2="109.82997395683378" y2="256.2280701754386" class="err"/>
<line x1="106.82997395683378" y1="222.51776134551255" x2="112.82997395683378" y2="222.51776134551255" class="err"/>
<line x1="106.82997395683378" y1="256.2280701754386" x2="112.82997395683378" y2="256.2280701754386" class="err"/>
<circle cx="109.82997395683378" cy="239.3729157604756" r="2.5" class="obs"/>
<line x1="111.82147265467546" y1="217.34884732492392" x2="111.82147265467546" y2="250.60968537045093" class="err"/>
<line x1="108.82147265467546" y1="217.34884732492392" x2="114.82147265467546" y2="217.34884732492392" class="err"/>
<line x1="108.82147265467546" y1="250.60968537045093" x2="114.82147265467546" y2="250.60968537045093" class="err"/>
<circle cx="111.82147265467546" cy="233.97926634768743" r="2.5" class="obs"/>
<line x1="113.81297135251715" y1="217.5735827171234" x2="113.81297135251715" y2="245.89024213426129" class="err"/>
<line x1="110.81297135251715" y1="217.5735827171234" x2="116.81297135251715" y2="217.5735827171234" class="err"/>
<line x1="110.81297135251715" y1="245.89024213426129" x2="116.81297135251715" y2="245.89024213426129" class="err"/>
<circle cx="113.81297135251715" cy="231.73191242569237" r="2.5" class="obs"/>
<line x1="116.4683029496394" y1="216.22517036392637" x2="116.4683029496394" y2="246.33971291866033" class="err"/>
<line x1="113.4683029496394" y1="216.22517036392637" x2="119.4683029496394" y2="216.22517036392637" class="err"/>
<line x1="113.4683029496394" y1="246.33971291866033" x2="119.4683029496394" y2="246.33971291866033" class="err"/>
<circle cx="116.4683029496394" cy="231.28244164129333" r="2.5" class="obs"/>
<line x1="127.75346223740897" y1="220.7198782079165" x2="127.75346223740897" y2="243.64288821226623" class="err"/>
<line x1="124.75346223740897" y1="220.7198782079165" x2="130.75346223740897" y2="220.7198782079165" class="err"/>
<line x1="124.75346223740897" y1="243.64288821226623" x2="130.75346223740897" y2="243.64288821226623" class="err"/>
<circle cx="127.75346223740897" cy="232.18138321009135" r="2.5" class="obs"/>
<line x1="139.70245442445912" y1="211.95519791213573" x2="139.70245442445912" y2="236.67609105408152" class="err"/>
<line x1="136.70245442445912" y1="211.95519791213573" x2="142.70245442445912" y2="211.95519791213573" class="err"/>
<line x1="136.70245442445912" y1="236.67609105408152" x2="142.70245442445912" y2="236.67609105408152" class="err"/>
<circle cx="139.70245442445912" cy="224.31564448310863" r="2.5" class="obs"/>
<line x1="150.98761371222867" y1="206.7862838915471" x2="150.98761371222867" y2="228.36088154269976" class="err"/>
<line x1="147.98761371222867" y1="206.7862838915471" x2="153.98761371222867" y2="206.7862838915471" class="err"/>
<line x1="147.98761371222867" y1="228.36088154269976" x2="153.98761371222867" y2="228.36088154269976" class="err"/>
<circle cx="150.98761371222867" cy="217.5735827171234" r="2.5" class="obs"/>
<line x1="162.9366058992788" y1="195.77424967377124" x2="162.9366058992788" y2="216.44990575612587" class="err"/>
<line x1="159.9366058992788" y1="195.77424967377124" x2="165.9366058992788" y2="195.77424967377124" class="err"/>
<line x1="159.9366058992788" y1="216.44990575612587" x2="165.9366058992788" y2="216.44990575612587" class="err"/>
<circle cx="162.9366058992788" cy="206.11207771494855" r="2.5" class="obs"/>
<line x1="174.2217651870484" y1="189.93112947658403" x2="174.2217651870484" y2="207.9099608525446" class="err"/>
<line x1="171.2217651870484" y1="189.93112947658403" x2="177.2217651870484" y2="189.93112947658403" class="err"/>
<line x1="171.2217651870484" y1="207.9099608525446" x2="177.2217651870484" y2="207.9099608525446" class="err"/>
<circle cx="174.2217651870484" cy="198.92054516456432" r="2.5" class="obs"/>
<line x1="186.1707573740985" y1="179.14383065100773" x2="186.1707573740985" y2="198.02160359576632" class="err"/>
<line x1="183.1707573740985" y1="179.14383065100773" x2="189.1707573740985" y2="179.14383065100773" class="err"/>
<line x1="183.1707573740985" y1="198.02160359576632" x2="189.1707573740985" y2="198.02160359576632" class="err"/>
<circle cx="186.1707573740985" cy="188.582717123387" r="2.5" class="obs"/>
<line x1="197.45591666186806" y1="169.48020878642893" x2="197.45591666186806" y2="190.15586486878354" class="err"/>
<line x1="194.45591666186806" y1="169.48020878642893" x2="200.45591666186806" y2="169.48020878642893" class="err"/>
<line x1="194.45591666186806" y1="190.15586486878354" x2="200.45591666186806" y2="190.15586486878354" class="err"/>
<circle cx="197.45591666186806" cy="179.8180368276062" r="2.5" class="obs"/>
<line x1="209.40490884891824" y1="158.2434391764536" x2="209.40490884891824" y2="180.26750761200526" class="err"/>
<line x1="206.40490884891824" y1="158.2434391764536" x2="212.40490884891824" y2="158.2434391764536" class="err"/>
<line x1="206.40490884891824" y1="180.26750761200526" x2="212.40490884891824" y2="180.26750761200526" class="err"/>
<circle cx="209.40490884891824" cy="169.2554733942294" r="2.5" class="obs"/>
<line x1="220.6900681366878" y1="151.50137741046836" x2="220.6900681366878" y2="175.77279976801515" class="err"/>
<line x1="217.6900681366878" y1="151.50137741046836" x2="223.6900681366878" y2="151.50137741046836" class="err"/>
<line x1="217.6900681366878" y1="175.77279976801515" x2="223.6900681366878" y2="175.77279976801515" class="err"/>
<circle cx="220.6900681366878" cy="163.63708858924173" r="2.5" class="obs"/>
<line x1="232.63906032373794" y1="138.91619544729593" x2="232.63906032373794" y2="164.53603015803978" class="err"/>
<line x1="229.63906032373794" y1="138.91619544729593" x2="235.63906032373794" y2="138.91619544729593" class="err"/>
<line x1="229.63906032373794" y1="164.53603015803978" x2="235.63906032373794" y2="164.53603015803978" class="err"/>
<circle cx="232.63906032373794" cy="151.72611280266784" r="2.5" class="obs"/>
<line x1="243.9242196115075" y1="133.29781064230832" x2="243.9242196115075" y2="155.771349862259" class="err"/>
<line x1="240.9242196115075" y1="133.29781064230832" x2="246.9242196115075" y2="133.29781064230832" class="err"/>
<line x1="240.9242196115075" y1="155.771349862259" x2="246.9242196115075" y2="155.771349862259" class="err"/>
<circle cx="243.9242196115075" cy="144.53458025228366" r="2.5" class="obs"/>
<line x1="255.20937889927706" y1="129.02783819051768" x2="255.20937889927706" y2="154.64767290126144" class="err"/>
<line x1="252.20937889927706" y1="129.02783819051768" x2="258.20937889927706" y2="129.02783819051768" class="err"/>
<line x1="252.20937889927706" y1="154.64767290126144" x2="258.20937889927706" y2="154.64767290126144" class="err"/>
<circle cx="255.20937889927706" cy="141.83775554588956" r="2.5" class="obs"/>
<line x1="267.1583710863272" y1="127.22995505292161" x2="267.1583710863272" y2="159.59185152965063" class="err"/>
<line x1="264.1583710863272" y1="127.22995505292161" x2="270.1583710863272" y2="127.22995505292161" class="err"/>
<line x1="264.1583710863272" y1="159.59185152965063" x2="270.1583710863272" y2="159.59185152965063" class="err"/>
<circle cx="267.1583710863272" cy="143.4109032912861" r="2.5" class="obs"/>
<line x1="279.77119617265794" y1="118.4652747571408" x2="279.77119617265794" y2="157.56923299985507" class="err"/>
<line x1="276.77119617265794" y1="118.4652747571408" x2="282.77119617265794" y2="118.4652747571408" class="err"/>
<line x1="276.77119617265794" y1="157.56923299985507" x2="282.77119617265794" y2="157.56923299985507" class="err"/>
<circle cx="279.77119617265794" cy="138.01725387849797" r="2.5" class="obs"/>
<line x1="291.0563554604274" y1="112.39741916775414" x2="291.0563554604274" y2="154.64767290126144" class="err"/>
<line x1="288.0563554604274" y1="112.39741916775414" x2="294.0563554604274" y2="112.39741916775414" class="err"/>
<line x1="288.0563554604274" y1="154.64767290126144" x2="294.0563554604274" y2="154.64767290126144" class="err"/>
<circle cx="291.0563554604274" cy="133.5225460345078" r="2.5" class="obs"/>
<line x1="303.0053476474776" y1="104.08220965637241" x2="303.0053476474776" y2="144.98405103668267" class="err"/>
<line x1="300.0053476474776" y1="104.08220965637241" x2="306.0053476474776" y2="104.08220965637241" class="err"/>
<line x1="300.0053476474776" y1="144.98405103668267" x2="306.0053476474776" y2="144.98405103668267" class="err"/>
<circle cx="303.0053476474776" cy="124.53313034652751" r="2.5" class="obs"/>
<line x1="314.2905069352472" y1="92.1712338697985" x2="314.2905069352472" y2="125.43207191532555" class="err"/>
<line x1="311.2905069352472" y1="92.1712338697985" x2="317.2905069352472" y2="92.1712338697985" class="err"/>
<line x1="311.2905069352472" y1="125.43207191532555" x2="317.2905069352472" y2="125.43207191532555" class="err"/>
<circle cx="314.2905069352472" cy="108.80165289256205" r="2.5" class="obs"/>
<line x1="325.57566622301675" y1="95.09279396839213" x2="325.57566622301675" y2="131.49992750471222" class="err"/>
<line x1="322.57566622301675" y1="95.09279396839213" x2="328.57566622301675" y2="95.09279396839213" class="err"/>
<line x1="322.57566622301675" y1="131.49992750471222" x2="328.57566622301675" y2="131.49992750471222" class="err"/>
<circle cx="325.57566622301675" cy="113.29636073655217" r="2.5" class="obs"/>
<line x1="337.5246584100669" y1="91.72176308539952" x2="337.5246584100669" y2="125.88154269972455" class="err"/>
<line x1="334.5246584100669" y1="91.72176308539952" x2="340.5246584100669" y2="91.72176308539952" class="err"/>
<line x1="334.5246584100669" y1="125.88154269972455" x2="340.5246584100669" y2="125.88154269972455" class="err"/>
<circle cx="337.5246584100669" cy="108.80165289256205" r="2.5" class="obs"/>
<line x1="348.8098176978365" y1="88.12599681020738" x2="348.8098176978365" y2="120.48789328693638" class="err"/>
<line x1="345.8098176978365" y1="88.12599681020738" x2="351.8098176978365" y2="88.12599681020738" class="err"/>
<line x1="345.8098176978365" y1="120.48789328693638" x2="351.8098176978365" y2="120.48789328693638" class="err"/>
<circle cx="348.8098176978365" cy="104.30694504857189" r="2.5" class="obs"/>
<line x1="360.7588098848866" y1="91.27229230100048" x2="360.7588098848866" y2="126.33101348412357" class="err"/>
<line x1="357.7588098848866" y1="91.27229230100048" x2="363.7588098848866" y2="91.27229230100048" class="err"/>
<line x1="357.7588098848866" y1="126.33101348412357" x2="363.7588098848866" y2="126.33101348412357" class="err"/>
<circle cx="360.7588098848866" cy="108.80165289256205" r="2.5" class="obs"/>
<line x1="383.99296135970627" y1="83.18181818181823" x2="383.99296135970627" y2="134.42148760330582" class="err"/>
<line x1="380.99296135970627" y1="83.18181818181823" x2="386.99296135970627" y2="83.18181818181823" class="err"/>
<line x1="380.99296135970627" y1="134.42148760330582" x2="386.99296135970627" y2="134.42148760330582" class="err"/>
<circle cx="383.99296135970627" cy="108.80165289256205" r="2.5" class="obs"/>
<line x1="418.51227212229554" y1="97.78961867478618" x2="418.51227212229554" y2="142.2872263302886" class="err"/>
<line x1="415.51227212229554" y1="97.78961867478618" x2="421.51227212229554" y2="97.78961867478618" class="err"/>
<line x1="415.51227212229554" y1="142.2872263302886" x2="421.51227212229554" y2="142.2872263302886" class="err"/>
<circle cx="418.51227212229554" cy="120.03842250253739" r="2.5" class="obs"/>
<line x1="453.69541578416545" y1="96.21647092938967" x2="453.69541578416545" y2="152.8497897636654" class="err"/>
<line x1="450.69541578416545" y1="96.21647092938967" x2="456.69541578416545" y2="96.21647092938967" class="err"/>
<line x1="450.69541578416545" y1="152.8497897636654" x2="456.69541578416545" y2="152.8497897636654" class="err"/>
<circle cx="453.69541578416545" cy="124.53313034652751" r="2.5" class="obs"/>
<line x1="488.21472654675466" y1="100.93591416557928" x2="488.21472654675466" y2="157.11976221545603" class="err"/>
<line x1="485.21472654675466" y1="100.93591416557928" x2="491.21472654675466" y2="100.93591416557928" class="err"/>
<line x1="485.21472654675466" y1="157.11976221545603" x2="491.21472654675466" y2="157.11976221545603" class="err"/>
<circle cx="488.21472654675466" cy="129.02783819051768" r="2.5" class="obs"/>
<line x1="522.7340373093439" y1="126.33101348412357" x2="522.7340373093439" y2="149.70349427287232" class="err"/>
<line x1="519.7340373093439" y1="126.33101348412357" x2="525.7340373093439" y2="126.33101348412357" class="err"/>
<line x1="519.7340373093439" y1="149.70349427287232" x2="525.7340373093439" y2="149.70349427287232" class="err"/>
<circle cx="522.7340373093439" cy="138.01725387849797" r="2.5" class="obs"/>
<line x1="557.9171809712137" y1="142.2872263302886" x2="557.9171809712137" y2="162.96288241264318" class="err"/>
<line x1="554.9171809712137" y1="142.2872263302886" x2="560.9171809712137" y2="142.2872263302886" class="err"/>
<line x1="554.9171809712137" y1="162.96288241264318" x2="560.9171809712137" y2="162.96288241264318" class="err"/>
<circle cx="557.9171809712137" cy="152.62505437146586" r="2.5" class="obs"/>
<line x1="592.4364917338031" y1="147.23140495867776" x2="592.4364917338031" y2="174.6491228070176" class="err"/>
<line x1="589.4364917338031" y1="147.23140495867776" x2="595.4364917338031" y2="147.23140495867776" class="err"/>
<line x1="589.4364917338031" y1="174.6491228070176" x2="595.4364917338031" y2="174.6491228070176" class="err"/>
<circle cx="592.4364917338031" cy="160.94026388284766" r="2.5" class="obs"/>
<g class="legend">
<line x1="82" y1="69" x2="106" y2="69" class="fw"/>
<text x="112" y="73" class="lbl-l">framework fit</text>
<line x1="82" y1="87" x2="106" y2="87" class="nt"/>
<text x="112" y="91" class="lbl-l">Newtonian (no halo)</text>
<circle cx="94" cy="105" r="2.5" class="obs"/>
<text x="112" y="109" class="lbl">observed V±err</text>
</g>
<g class="legend">
<line x1="460" y1="69" x2="484" y2="69" class="rho"/>
<text x="490" y="73" class="lbl-r">ρ(r) raw</text>
<line x1="460" y1="87" x2="484" y2="87" class="sig"/>
<text x="490" y="91" class="lbl-r">Σ(r) smoothed</text>
<text x="460" y="113" class="lbl-r">ρ peak: 460 M☉/pc²</text>
</g>
</svg>