<svg xmlns="http://www.w3.org/2000/svg" viewBox="0 0 890 420" width="890" height="420" font-family="sans-serif" font-size="12">
<style>
  .ax { stroke: #333; stroke-width: 1; fill: none; }
  .grid { stroke: #ddd; stroke-width: 0.5; fill: none; }
  .lbl { fill: #333; }
  .lbl-l { fill: #0066cc; }
  .lbl-r { fill: #b03030; }
  .obs { fill: #222; }
  .err { stroke: #555; stroke-width: 0.8; fill: none; }
  .fw { stroke: #0066cc; stroke-width: 2.2; fill: none; }
  .nt { stroke: #cc6600; stroke-width: 1.6; fill: none; stroke-dasharray: 5,3; }
  .lbl-s { fill: #cc7000; }
  .rho { stroke: #b03030; stroke-width: 2.0; fill: none; }
  .sig { stroke: #cc7000; stroke-width: 1.8; fill: none; }
  .title { fill: #111; font-size: 16px; font-weight: 600; }
  .subtitle { fill: #555; font-size: 11px; }
  .preview-bg { fill: #000; }
  .preview-lbl { fill: #888; font-size: 10px; }
  .legend { font-size: 11px; }
</style>
<text x="343.5" y="22" text-anchor="middle" class="title">NGC7793</text>
<text x="343.5" y="38" text-anchor="middle" class="subtitle">rMax=7.9 kpc, N=46, RMS=2.4 km/s (3.3%), amp=105</text>
<line x1="70" y1="365.0" x2="617" y2="365.0" class="grid"/>
<text x="64" y="369.0" text-anchor="end" class="lbl-l">0</text>
<line x1="70" y1="303.0" x2="617" y2="303.0" class="grid"/>
<text x="64" y="307.0" text-anchor="end" class="lbl-l">28</text>
<line x1="70" y1="241.0" x2="617" y2="241.0" class="grid"/>
<text x="64" y="245.0" text-anchor="end" class="lbl-l">55</text>
<line x1="70" y1="179.0" x2="617" y2="179.0" class="grid"/>
<text x="64" y="183.0" text-anchor="end" class="lbl-l">83</text>
<line x1="70" y1="117.0" x2="617" y2="117.0" class="grid"/>
<text x="64" y="121.0" text-anchor="end" class="lbl-l">110</text>
<line x1="70" y1="55.0" x2="617" y2="55.0" class="grid"/>
<text x="64" y="59.0" text-anchor="end" class="lbl-l">138</text>
<text x="623" y="369.0" text-anchor="start" class="lbl-r">0.0</text>
<text x="623" y="327.7" text-anchor="start" class="lbl-r">0.2</text>
<text x="623" y="286.3" text-anchor="start" class="lbl-r">0.4</text>
<text x="623" y="245.0" text-anchor="start" class="lbl-r">0.6</text>
<text x="623" y="203.7" text-anchor="start" class="lbl-r">0.8</text>
<text x="623" y="162.3" text-anchor="start" class="lbl-r">1.0</text>
<line x1="70.0" y1="55" x2="70.0" y2="365" class="grid"/>
<text x="70.0" y="381" text-anchor="middle" class="lbl">0.0</text>
<line x1="161.2" y1="55" x2="161.2" y2="365" class="grid"/>
<text x="161.2" y="381" text-anchor="middle" class="lbl">1.4</text>
<line x1="252.3" y1="55" x2="252.3" y2="365" class="grid"/>
<text x="252.3" y="381" text-anchor="middle" class="lbl">2.8</text>
<line x1="343.5" y1="55" x2="343.5" y2="365" class="grid"/>
<text x="343.5" y="381" text-anchor="middle" class="lbl">4.3</text>
<line x1="434.7" y1="55" x2="434.7" y2="365" class="grid"/>
<text x="434.7" y="381" text-anchor="middle" class="lbl">5.7</text>
<line x1="525.8" y1="55" x2="525.8" y2="365" class="grid"/>
<text x="525.8" y="381" text-anchor="middle" class="lbl">7.1</text>
<line x1="617.0" y1="55" x2="617.0" y2="365" class="grid"/>
<text x="617.0" y="381" text-anchor="middle" class="lbl">8.5</text>
<text x="343.5" y="408" text-anchor="middle" class="lbl">radius (kpc)</text>
<text x="16" y="210" text-anchor="middle" class="lbl-l" transform="rotate(-90, 16, 210)">velocity (km/s)</text>
<text x="874" y="210" text-anchor="middle" class="lbl-r" transform="rotate(-90, 874, 210)">mass profile (normalized to peak)</text>
<rect x="70" y="55" width="547" height="310" class="ax"/>
<path d="M 70.0,158.3 L 72.5,159.9 L 75.0,161.5 L 77.5,163.1 L 80.0,164.7 L 82.5,166.3 L 85.0,167.8 L 87.5,169.4 L 90.0,171.0 L 92.5,172.6 L 95.0,174.2 L 97.5,189.5 L 100.0,211.9 L 102.5,234.4 L 105.0,256.9 L 107.5,257.0 L 110.0,257.0 L 112.5,257.0 L 115.0,257.0 L 117.5,257.0 L 120.0,257.0 L 122.5,257.0 L 124.9,257.0 L 127.4,257.0 L 129.9,257.0 L 132.4,257.0 L 134.9,257.0 L 137.4,257.0 L 139.9,257.0 L 142.4,257.0 L 144.9,257.0 L 147.4,257.0 L 149.9,257.0 L 152.4,257.5 L 154.9,258.1 L 157.4,258.6 L 159.9,259.1 L 162.4,259.7 L 164.9,260.2 L 167.4,260.7 L 169.9,261.3 L 172.4,261.8 L 174.9,262.3 L 177.4,262.9 L 179.9,263.4 L 182.4,263.9 L 184.9,264.5 L 187.4,265.0 L 189.9,265.6 L 192.4,266.1 L 194.9,266.6 L 197.4,267.2 L 199.9,267.7 L 202.4,268.2 L 204.9,268.8 L 207.4,269.3 L 209.9,269.8 L 212.4,270.4 L 214.9,270.9 L 217.4,271.4 L 219.9,272.0 L 222.4,272.5 L 224.9,273.0 L 227.4,273.6 L 229.9,274.1 L 232.4,274.7 L 234.8,275.2 L 237.3,275.7 L 239.8,276.3 L 242.3,276.8 L 244.8,277.3 L 247.3,277.9 L 249.8,278.4 L 252.3,278.9 L 254.8,279.5 L 257.3,280.0 L 259.8,280.5 L 262.3,281.1 L 264.8,281.6 L 267.3,282.2 L 269.8,282.7 L 272.3,283.2 L 274.8,283.8 L 277.3,284.3 L 279.8,284.8 L 282.3,285.4 L 284.8,285.9 L 287.3,286.4 L 289.8,287.0 L 292.3,287.5 L 294.8,288.0 L 297.3,288.6 L 299.8,289.1 L 302.3,289.7 L 304.8,290.2 L 307.3,290.7 L 309.8,291.3 L 312.3,291.8 L 314.8,292.3 L 317.3,292.9 L 319.8,293.4 L 322.3,293.9 L 324.8,294.5 L 327.3,295.0 L 329.8,295.5 L 332.3,296.1 L 334.8,296.6 L 337.3,297.1 L 339.8,297.7 L 342.3,298.2 L 344.7,298.8 L 347.2,299.3 L 349.7,299.8 L 352.2,300.4 L 354.7,300.9 L 357.2,301.4 L 359.7,302.0 L 362.2,302.5 L 364.7,303.0 L 367.2,303.6 L 369.7,304.1 L 372.2,304.6 L 374.7,305.2 L 377.2,305.7 L 379.7,306.3 L 382.2,306.8 L 384.7,307.3 L 387.2,307.9 L 389.7,308.4 L 392.2,308.9 L 394.7,309.5 L 397.2,310.0 L 399.7,310.5 L 402.2,311.1 L 404.7,311.6 L 407.2,312.1 L 409.7,312.7 L 412.2,313.2 L 414.7,313.8 L 417.2,314.3 L 419.7,314.8 L 422.2,315.4 L 424.7,315.9 L 427.2,316.4 L 429.7,317.0 L 432.2,317.5 L 434.7,318.0 L 437.2,318.6 L 439.7,319.1 L 442.2,319.6 L 444.7,320.2 L 447.2,320.7 L 449.7,321.2 L 452.2,321.8 L 454.6,322.3 L 457.1,322.9 L 459.6,323.4 L 462.1,323.9 L 464.6,324.5 L 467.1,325.0 L 469.6,325.5 L 472.1,326.1 L 474.6,326.6 L 477.1,327.1 L 479.6,327.7 L 482.1,328.2 L 484.6,328.7 L 487.1,329.3 L 489.6,329.8 L 492.1,330.4 L 494.6,330.9 L 497.1,331.4 L 499.6,332.0 L 502.1,332.5 L 504.6,333.0 L 507.1,333.6 L 509.6,334.1 L 512.1,334.6 L 514.6,335.5 L 517.1,336.5 L 519.6,337.4 L 522.1,338.4 L 524.6,339.4 L 527.1,340.3 L 529.6,341.3 L 532.1,342.3 L 534.6,343.2 L 537.1,344.2 L 539.6,345.1 L 542.1,346.1 L 544.6,347.1 L 547.1,348.0 L 549.6,349.0 L 552.1,350.0 L 554.6,350.9 L 557.1,351.9 L 559.6,352.9 L 562.1,353.8 L 564.5,354.8 L 567.0,355.8 L 569.5,356.7 L 572.0,357.7 L 574.5,358.7 L 577.0,359.6 L 579.5,360.6 L 582.0,361.6 L 584.5,362.5 L 587.0,363.5 L 589.5,364.4 L 592.0,365.0 L 594.5,365.0 L 597.0,365.0 L 599.5,365.0 L 602.0,365.0 L 604.5,365.0 L 607.0,365.0 L 609.5,365.0 L 612.0,365.0 L 614.5,365.0 L 617.0,365.0" class="rho"/>
<path d="M 70.0,158.3 L 72.5,158.6 L 75.0,159.0 L 77.5,159.5 L 80.0,160.3 L 82.5,161.2 L 85.0,162.4 L 87.5,163.8 L 90.0,165.3 L 92.5,166.9 L 95.0,168.6 L 97.5,170.4 L 100.0,172.3 L 102.5,174.2 L 105.0,176.1 L 107.5,177.9 L 110.0,179.7 L 112.5,181.5 L 115.0,183.2 L 117.5,184.8 L 120.0,186.4 L 122.5,187.9 L 124.9,189.3 L 127.4,190.7 L 129.9,192.0 L 132.4,193.3 L 134.9,194.6 L 137.4,195.8 L 139.9,197.0 L 142.4,198.2 L 144.9,199.4 L 147.4,200.5 L 149.9,201.7 L 152.4,202.8 L 154.9,203.9 L 157.4,205.0 L 159.9,206.2 L 162.4,207.3 L 164.9,208.4 L 167.4,209.5 L 169.9,210.6 L 172.4,211.7 L 174.9,212.8 L 177.4,213.9 L 179.9,215.1 L 182.4,216.2 L 184.9,217.3 L 187.4,218.4 L 189.9,219.5 L 192.4,220.6 L 194.9,221.7 L 197.4,222.9 L 199.9,224.0 L 202.4,225.1 L 204.9,226.2 L 207.4,227.3 L 209.9,228.4 L 212.4,229.6 L 214.9,230.7 L 217.4,231.8 L 219.9,232.9 L 222.4,234.0 L 224.9,235.2 L 227.4,236.3 L 229.9,237.4 L 232.4,238.5 L 234.8,239.6 L 237.3,240.7 L 239.8,241.9 L 242.3,243.0 L 244.8,244.1 L 247.3,245.2 L 249.8,246.3 L 252.3,247.4 L 254.8,248.5 L 257.3,249.6 L 259.8,250.7 L 262.3,251.8 L 264.8,252.9 L 267.3,254.0 L 269.8,255.1 L 272.3,256.2 L 274.8,257.3 L 277.3,258.4 L 279.8,259.4 L 282.3,260.5 L 284.8,261.6 L 287.3,262.6 L 289.8,263.7 L 292.3,264.8 L 294.8,265.8 L 297.3,266.9 L 299.8,267.9 L 302.3,269.0 L 304.8,270.0 L 307.3,271.1 L 309.8,272.1 L 312.3,273.1 L 314.8,274.1 L 317.3,275.1 L 319.8,276.2 L 322.3,277.2 L 324.8,278.2 L 327.3,279.2 L 329.8,280.2 L 332.3,281.1 L 334.8,282.1 L 337.3,283.1 L 339.8,284.1 L 342.3,285.0 L 344.7,286.0 L 347.2,286.9 L 349.7,287.9 L 352.2,288.8 L 354.7,289.8 L 357.2,290.7 L 359.7,291.6 L 362.2,292.5 L 364.7,293.4 L 367.2,294.3 L 369.7,295.2 L 372.2,296.1 L 374.7,297.0 L 377.2,297.9 L 379.7,298.8 L 382.2,299.6 L 384.7,300.5 L 387.2,301.3 L 389.7,302.2 L 392.2,303.0 L 394.7,303.8 L 397.2,304.6 L 399.7,305.5 L 402.2,306.3 L 404.7,307.1 L 407.2,307.9 L 409.7,308.7 L 412.2,309.4 L 414.7,310.2 L 417.2,311.0 L 419.7,311.7 L 422.2,312.5 L 424.7,313.2 L 427.2,313.9 L 429.7,314.7 L 432.2,315.4 L 434.7,316.1 L 437.2,316.8 L 439.7,317.5 L 442.2,318.2 L 444.7,318.9 L 447.2,319.6 L 449.7,320.2 L 452.2,320.9 L 454.6,321.5 L 457.1,322.2 L 459.6,322.8 L 462.1,323.5 L 464.6,324.1 L 467.1,324.7 L 469.6,325.3 L 472.1,325.9 L 474.6,326.5 L 477.1,327.1 L 479.6,327.7 L 482.1,328.2 L 484.6,328.8 L 487.1,329.4 L 489.6,329.9 L 492.1,330.5 L 494.6,331.0 L 497.1,331.5 L 499.6,332.1 L 502.1,332.6 L 504.6,333.1 L 507.1,333.6 L 509.6,334.1 L 512.1,334.6 L 514.6,335.1 L 517.1,335.5 L 519.6,336.0 L 522.1,336.5 L 524.6,336.9 L 527.1,337.4 L 529.6,337.8 L 532.1,338.3 L 534.6,338.7 L 537.1,339.1 L 539.6,339.5 L 542.1,339.9 L 544.6,340.3 L 547.1,340.7 L 549.6,341.0 L 552.1,341.4 L 554.6,341.8 L 557.1,342.1 L 559.6,342.4 L 562.1,342.8 L 564.5,343.1 L 567.0,343.4 L 569.5,343.7 L 572.0,344.0 L 574.5,344.3 L 577.0,344.6 L 579.5,344.9 L 582.0,345.1 L 584.5,345.4 L 587.0,345.7 L 589.5,345.9 L 592.0,346.1 L 594.5,346.4 L 597.0,346.6 L 599.5,346.8 L 602.0,347.1 L 604.5,347.3 L 607.0,347.5 L 609.5,347.7 L 612.0,347.9 L 614.5,348.1 L 617.0,348.3" class="sig"/>
<path d="M 75.5,313.6 L 80.9,292.8 L 86.4,277.0 L 91.9,264.0 L 97.3,253.0 L 102.8,246.5 L 108.3,243.7 L 113.8,240.5 L 119.2,236.9 L 124.7,233.0 L 130.2,229.0 L 135.6,224.9 L 141.1,220.8 L 146.6,216.7 L 152.1,212.6 L 157.5,208.6 L 163.0,204.8 L 168.5,201.1 L 173.9,197.5 L 179.4,194.0 L 184.9,190.7 L 190.3,187.4 L 195.8,184.3 L 201.3,181.3 L 206.8,178.3 L 212.2,175.5 L 217.7,172.7 L 223.2,170.0 L 228.6,167.4 L 234.1,164.9 L 239.6,162.5 L 245.0,160.1 L 250.5,157.8 L 256.0,155.6 L 261.4,153.5 L 266.9,151.4 L 272.4,149.4 L 277.9,147.4 L 283.3,145.5 L 288.8,143.7 L 294.3,141.9 L 299.7,140.2 L 305.2,138.6 L 310.7,137.0 L 316.1,135.4 L 321.6,133.9 L 327.1,132.5 L 332.6,131.1 L 338.0,129.7 L 343.5,128.5 L 349.0,127.2 L 354.4,126.0 L 359.9,124.9 L 365.4,123.8 L 370.8,122.7 L 376.3,121.7 L 381.8,120.8 L 387.3,119.8 L 392.7,119.0 L 398.2,118.1 L 403.7,117.3 L 409.1,116.6 L 414.6,115.9 L 420.1,115.2 L 425.6,114.6 L 431.0,114.0 L 436.5,113.5 L 442.0,113.0 L 447.4,112.5 L 452.9,112.1 L 458.4,111.8 L 463.8,111.4 L 469.3,111.1 L 474.8,110.9 L 480.3,110.7 L 485.7,110.5 L 491.2,110.4 L 496.7,110.3 L 502.1,110.2 L 507.6,110.2 L 513.1,110.2 L 518.5,110.3 L 524.0,110.5 L 529.5,110.8 L 535.0,111.1 L 540.4,111.5 L 545.9,112.1 L 551.4,112.7 L 556.8,113.4 L 562.3,114.1 L 567.8,115.0 L 573.2,116.0 L 578.7,117.0 L 584.2,118.1 L 589.6,119.4 L 595.1,120.6 L 600.6,121.9 L 606.1,123.1 L 611.5,124.4 L 617.0,125.6" class="nt"/>
<path d="M 74.6,340.8 L 79.1,322.5 L 83.7,302.8 L 88.2,284.2 L 92.8,267.7 L 97.3,254.0 L 101.9,243.4 L 106.5,236.0 L 111.0,231.3 L 115.6,228.7 L 120.1,227.2 L 124.7,226.0 L 129.3,224.9 L 133.8,223.4 L 138.4,221.5 L 142.9,219.1 L 147.5,216.3 L 152.1,213.2 L 156.6,209.7 L 161.2,206.1 L 165.7,202.4 L 170.3,198.7 L 174.8,194.9 L 179.4,191.2 L 184.0,187.5 L 188.5,183.9 L 193.1,180.3 L 197.6,176.8 L 202.2,173.4 L 206.8,170.1 L 211.3,166.8 L 215.9,163.6 L 220.4,160.5 L 225.0,157.5 L 229.5,154.5 L 234.1,151.7 L 238.7,148.9 L 243.2,146.3 L 247.8,143.7 L 252.3,141.2 L 256.9,138.8 L 261.5,136.5 L 266.0,134.3 L 270.6,132.1 L 275.1,130.1 L 279.7,128.1 L 284.2,126.3 L 288.8,124.5 L 293.4,122.8 L 297.9,121.2 L 302.5,119.7 L 307.0,118.2 L 311.6,116.9 L 316.1,115.6 L 320.7,114.5 L 325.3,113.4 L 329.8,112.4 L 334.4,111.5 L 338.9,110.6 L 343.5,109.9 L 348.1,109.2 L 352.6,108.6 L 357.2,108.1 L 361.7,107.7 L 366.3,107.4 L 370.9,107.1 L 375.4,106.9 L 380.0,106.8 L 384.5,106.8 L 389.1,106.9 L 393.6,107.0 L 398.2,107.2 L 402.8,107.5 L 407.3,107.9 L 411.9,108.3 L 416.4,108.8 L 421.0,109.4 L 425.5,110.1 L 430.1,110.8 L 434.7,111.6 L 439.2,112.4 L 443.8,113.4 L 448.3,114.4 L 452.9,115.4 L 457.5,116.5 L 462.0,117.7 L 466.6,118.9 L 471.1,120.2 L 475.7,121.5 L 480.3,122.9 L 484.8,124.3 L 489.4,125.7 L 493.9,127.2 L 498.5,128.7 L 503.0,130.3 L 507.6,131.9 L 512.2,133.7 L 516.7,135.6 L 521.3,137.7 L 525.8,140.0 L 530.4,142.5 L 535.0,145.2 L 539.5,148.2 L 544.1,151.4 L 548.6,154.7 L 553.2,158.2 L 557.7,161.8 L 562.3,165.4 L 566.9,169.1 L 571.4,172.8 L 576.0,176.4 L 580.5,180.0 L 585.1,183.4 L 589.7,186.7 L 594.2,189.9 L 598.8,192.8 L 603.3,195.7 L 607.9,198.4 L 612.4,201.0 L 617.0,203.4" class="fw"/>
<line x1="77.07" y1="325.45" x2="77.07" y2="363.65" class="err"/>
<line x1="74.07" y1="325.45" x2="80.07" y2="325.45" class="err"/>
<line x1="74.07" y1="363.65" x2="80.07" y2="363.65" class="err"/>
<circle cx="77.07" cy="344.55" r="2.5" class="obs"/>
<line x1="79.00" y1="308.82" x2="79.00" y2="342.08" class="err"/>
<line x1="76.00" y1="308.82" x2="82.00" y2="308.82" class="err"/>
<line x1="76.00" y1="342.08" x2="82.00" y2="342.08" class="err"/>
<circle cx="79.00" cy="325.45" r="2.5" class="obs"/>
<line x1="80.93" y1="305.00" x2="80.93" y2="338.26" class="err"/>
<line x1="77.93" y1="305.00" x2="83.93" y2="305.00" class="err"/>
<line x1="77.93" y1="338.26" x2="83.93" y2="338.26" class="err"/>
<circle cx="80.93" cy="321.63" r="2.5" class="obs"/>
<line x1="83.50" y1="294.88" x2="83.50" y2="323.65" class="err"/>
<line x1="80.50" y1="294.88" x2="86.50" y2="294.88" class="err"/>
<line x1="80.50" y1="323.65" x2="86.50" y2="323.65" class="err"/>
<circle cx="83.50" cy="309.27" r="2.5" class="obs"/>
<line x1="85.42" y1="281.40" x2="85.42" y2="313.76" class="err"/>
<line x1="82.42" y1="281.40" x2="88.42" y2="281.40" class="err"/>
<line x1="82.42" y1="313.76" x2="88.42" y2="313.76" class="err"/>
<circle cx="85.42" cy="297.58" r="2.5" class="obs"/>
<line x1="88.00" y1="269.94" x2="88.00" y2="302.75" class="err"/>
<line x1="85.00" y1="269.94" x2="91.00" y2="269.94" class="err"/>
<line x1="85.00" y1="302.75" x2="91.00" y2="302.75" class="err"/>
<circle cx="88.00" cy="286.34" r="2.5" class="obs"/>
<line x1="90.57" y1="261.85" x2="90.57" y2="296.01" class="err"/>
<line x1="87.57" y1="261.85" x2="93.57" y2="261.85" class="err"/>
<line x1="87.57" y1="296.01" x2="93.57" y2="296.01" class="err"/>
<circle cx="90.57" cy="278.93" r="2.5" class="obs"/>
<line x1="92.49" y1="249.26" x2="92.49" y2="288.81" class="err"/>
<line x1="89.49" y1="249.26" x2="95.49" y2="249.26" class="err"/>
<line x1="89.49" y1="288.81" x2="95.49" y2="288.81" class="err"/>
<circle cx="92.49" cy="269.04" r="2.5" class="obs"/>
<line x1="95.06" y1="247.46" x2="95.06" y2="271.29" class="err"/>
<line x1="92.06" y1="247.46" x2="98.06" y2="247.46" class="err"/>
<line x1="92.06" y1="271.29" x2="98.06" y2="271.29" class="err"/>
<circle cx="95.06" cy="259.37" r="2.5" class="obs"/>
<line x1="96.99" y1="240.50" x2="96.99" y2="265.67" class="err"/>
<line x1="93.99" y1="240.50" x2="99.99" y2="240.50" class="err"/>
<line x1="93.99" y1="265.67" x2="99.99" y2="265.67" class="err"/>
<circle cx="96.99" cy="253.08" r="2.5" class="obs"/>
<line x1="99.56" y1="233.75" x2="99.56" y2="261.62" class="err"/>
<line x1="96.56" y1="233.75" x2="102.56" y2="233.75" class="err"/>
<line x1="96.56" y1="261.62" x2="102.56" y2="261.62" class="err"/>
<circle cx="99.56" cy="247.69" r="2.5" class="obs"/>
<line x1="101.49" y1="230.83" x2="101.49" y2="259.15" class="err"/>
<line x1="98.49" y1="230.83" x2="104.49" y2="230.83" class="err"/>
<line x1="98.49" y1="259.15" x2="104.49" y2="259.15" class="err"/>
<circle cx="101.49" cy="244.99" r="2.5" class="obs"/>
<line x1="104.06" y1="229.04" x2="104.06" y2="255.55" class="err"/>
<line x1="101.06" y1="229.04" x2="107.06" y2="229.04" class="err"/>
<line x1="101.06" y1="255.55" x2="107.06" y2="255.55" class="err"/>
<circle cx="104.06" cy="242.29" r="2.5" class="obs"/>
<line x1="105.99" y1="224.77" x2="105.99" y2="255.78" class="err"/>
<line x1="102.99" y1="224.77" x2="108.99" y2="224.77" class="err"/>
<line x1="102.99" y1="255.78" x2="108.99" y2="255.78" class="err"/>
<circle cx="105.99" cy="240.27" r="2.5" class="obs"/>
<line x1="108.56" y1="222.52" x2="108.56" y2="256.23" class="err"/>
<line x1="105.56" y1="222.52" x2="111.56" y2="222.52" class="err"/>
<line x1="105.56" y1="256.23" x2="111.56" y2="256.23" class="err"/>
<circle cx="108.56" cy="239.37" r="2.5" class="obs"/>
<line x1="110.49" y1="217.35" x2="110.49" y2="250.61" class="err"/>
<line x1="107.49" y1="217.35" x2="113.49" y2="217.35" class="err"/>
<line x1="107.49" y1="250.61" x2="113.49" y2="250.61" class="err"/>
<circle cx="110.49" cy="233.98" r="2.5" class="obs"/>
<line x1="112.42" y1="217.57" x2="112.42" y2="245.89" class="err"/>
<line x1="109.42" y1="217.57" x2="115.42" y2="217.57" class="err"/>
<line x1="109.42" y1="245.89" x2="115.42" y2="245.89" class="err"/>
<circle cx="112.42" cy="231.73" r="2.5" class="obs"/>
<line x1="114.99" y1="216.23" x2="114.99" y2="246.34" class="err"/>
<line x1="111.99" y1="216.23" x2="117.99" y2="216.23" class="err"/>
<line x1="111.99" y1="246.34" x2="117.99" y2="246.34" class="err"/>
<circle cx="114.99" cy="231.28" r="2.5" class="obs"/>
<line x1="125.91" y1="220.72" x2="125.91" y2="243.64" class="err"/>
<line x1="122.91" y1="220.72" x2="128.91" y2="220.72" class="err"/>
<line x1="122.91" y1="243.64" x2="128.91" y2="243.64" class="err"/>
<circle cx="125.91" cy="232.18" r="2.5" class="obs"/>
<line x1="137.48" y1="211.96" x2="137.48" y2="236.68" class="err"/>
<line x1="134.48" y1="211.96" x2="140.48" y2="211.96" class="err"/>
<line x1="134.48" y1="236.68" x2="140.48" y2="236.68" class="err"/>
<circle cx="137.48" cy="224.32" r="2.5" class="obs"/>
<line x1="148.41" y1="206.79" x2="148.41" y2="228.36" class="err"/>
<line x1="145.41" y1="206.79" x2="151.41" y2="206.79" class="err"/>
<line x1="145.41" y1="228.36" x2="151.41" y2="228.36" class="err"/>
<circle cx="148.41" cy="217.57" r="2.5" class="obs"/>
<line x1="159.98" y1="195.77" x2="159.98" y2="216.45" class="err"/>
<line x1="156.98" y1="195.77" x2="162.98" y2="195.77" class="err"/>
<line x1="156.98" y1="216.45" x2="162.98" y2="216.45" class="err"/>
<circle cx="159.98" cy="206.11" r="2.5" class="obs"/>
<line x1="170.90" y1="189.93" x2="170.90" y2="207.91" class="err"/>
<line x1="167.90" y1="189.93" x2="173.90" y2="189.93" class="err"/>
<line x1="167.90" y1="207.91" x2="173.90" y2="207.91" class="err"/>
<circle cx="170.90" cy="198.92" r="2.5" class="obs"/>
<line x1="182.47" y1="179.14" x2="182.47" y2="198.02" class="err"/>
<line x1="179.47" y1="179.14" x2="185.47" y2="179.14" class="err"/>
<line x1="179.47" y1="198.02" x2="185.47" y2="198.02" class="err"/>
<circle cx="182.47" cy="188.58" r="2.5" class="obs"/>
<line x1="193.40" y1="169.48" x2="193.40" y2="190.16" class="err"/>
<line x1="190.40" y1="169.48" x2="196.40" y2="169.48" class="err"/>
<line x1="190.40" y1="190.16" x2="196.40" y2="190.16" class="err"/>
<circle cx="193.40" cy="179.82" r="2.5" class="obs"/>
<line x1="204.96" y1="158.24" x2="204.96" y2="180.27" class="err"/>
<line x1="201.96" y1="158.24" x2="207.96" y2="158.24" class="err"/>
<line x1="201.96" y1="180.27" x2="207.96" y2="180.27" class="err"/>
<circle cx="204.96" cy="169.26" r="2.5" class="obs"/>
<line x1="215.89" y1="151.50" x2="215.89" y2="175.77" class="err"/>
<line x1="212.89" y1="151.50" x2="218.89" y2="151.50" class="err"/>
<line x1="212.89" y1="175.77" x2="218.89" y2="175.77" class="err"/>
<circle cx="215.89" cy="163.64" r="2.5" class="obs"/>
<line x1="227.46" y1="138.92" x2="227.46" y2="164.54" class="err"/>
<line x1="224.46" y1="138.92" x2="230.46" y2="138.92" class="err"/>
<line x1="224.46" y1="164.54" x2="230.46" y2="164.54" class="err"/>
<circle cx="227.46" cy="151.73" r="2.5" class="obs"/>
<line x1="238.38" y1="133.30" x2="238.38" y2="155.77" class="err"/>
<line x1="235.38" y1="133.30" x2="241.38" y2="133.30" class="err"/>
<line x1="235.38" y1="155.77" x2="241.38" y2="155.77" class="err"/>
<circle cx="238.38" cy="144.53" r="2.5" class="obs"/>
<line x1="249.31" y1="129.03" x2="249.31" y2="154.65" class="err"/>
<line x1="246.31" y1="129.03" x2="252.31" y2="129.03" class="err"/>
<line x1="246.31" y1="154.65" x2="252.31" y2="154.65" class="err"/>
<circle cx="249.31" cy="141.84" r="2.5" class="obs"/>
<line x1="260.88" y1="127.23" x2="260.88" y2="159.59" class="err"/>
<line x1="257.88" y1="127.23" x2="263.88" y2="127.23" class="err"/>
<line x1="257.88" y1="159.59" x2="263.88" y2="159.59" class="err"/>
<circle cx="260.88" cy="143.41" r="2.5" class="obs"/>
<line x1="273.09" y1="118.47" x2="273.09" y2="157.57" class="err"/>
<line x1="270.09" y1="118.47" x2="276.09" y2="118.47" class="err"/>
<line x1="270.09" y1="157.57" x2="276.09" y2="157.57" class="err"/>
<circle cx="273.09" cy="138.02" r="2.5" class="obs"/>
<line x1="284.01" y1="112.40" x2="284.01" y2="154.65" class="err"/>
<line x1="281.01" y1="112.40" x2="287.01" y2="112.40" class="err"/>
<line x1="281.01" y1="154.65" x2="287.01" y2="154.65" class="err"/>
<circle cx="284.01" cy="133.52" r="2.5" class="obs"/>
<line x1="295.58" y1="104.08" x2="295.58" y2="144.98" class="err"/>
<line x1="292.58" y1="104.08" x2="298.58" y2="104.08" class="err"/>
<line x1="292.58" y1="144.98" x2="298.58" y2="144.98" class="err"/>
<circle cx="295.58" cy="124.53" r="2.5" class="obs"/>
<line x1="306.51" y1="92.17" x2="306.51" y2="125.43" class="err"/>
<line x1="303.51" y1="92.17" x2="309.51" y2="92.17" class="err"/>
<line x1="303.51" y1="125.43" x2="309.51" y2="125.43" class="err"/>
<circle cx="306.51" cy="108.80" r="2.5" class="obs"/>
<line x1="317.43" y1="95.09" x2="317.43" y2="131.50" class="err"/>
<line x1="314.43" y1="95.09" x2="320.43" y2="95.09" class="err"/>
<line x1="314.43" y1="131.50" x2="320.43" y2="131.50" class="err"/>
<circle cx="317.43" cy="113.30" r="2.5" class="obs"/>
<line x1="329.00" y1="91.72" x2="329.00" y2="125.88" class="err"/>
<line x1="326.00" y1="91.72" x2="332.00" y2="91.72" class="err"/>
<line x1="326.00" y1="125.88" x2="332.00" y2="125.88" class="err"/>
<circle cx="329.00" cy="108.80" r="2.5" class="obs"/>
<line x1="339.93" y1="88.13" x2="339.93" y2="120.49" class="err"/>
<line x1="336.93" y1="88.13" x2="342.93" y2="88.13" class="err"/>
<line x1="336.93" y1="120.49" x2="342.93" y2="120.49" class="err"/>
<circle cx="339.93" cy="104.31" r="2.5" class="obs"/>
<line x1="351.50" y1="91.27" x2="351.50" y2="126.33" class="err"/>
<line x1="348.50" y1="91.27" x2="354.50" y2="91.27" class="err"/>
<line x1="348.50" y1="126.33" x2="354.50" y2="126.33" class="err"/>
<circle cx="351.50" cy="108.80" r="2.5" class="obs"/>
<line x1="373.99" y1="83.18" x2="373.99" y2="134.42" class="err"/>
<line x1="370.99" y1="83.18" x2="376.99" y2="83.18" class="err"/>
<line x1="370.99" y1="134.42" x2="376.99" y2="134.42" class="err"/>
<circle cx="373.99" cy="108.80" r="2.5" class="obs"/>
<line x1="407.41" y1="97.79" x2="407.41" y2="142.29" class="err"/>
<line x1="404.41" y1="97.79" x2="410.41" y2="97.79" class="err"/>
<line x1="404.41" y1="142.29" x2="410.41" y2="142.29" class="err"/>
<circle cx="407.41" cy="120.04" r="2.5" class="obs"/>
<line x1="441.47" y1="96.22" x2="441.47" y2="152.85" class="err"/>
<line x1="438.47" y1="96.22" x2="444.47" y2="96.22" class="err"/>
<line x1="438.47" y1="152.85" x2="444.47" y2="152.85" class="err"/>
<circle cx="441.47" cy="124.53" r="2.5" class="obs"/>
<line x1="474.89" y1="100.94" x2="474.89" y2="157.12" class="err"/>
<line x1="471.89" y1="100.94" x2="477.89" y2="100.94" class="err"/>
<line x1="471.89" y1="157.12" x2="477.89" y2="157.12" class="err"/>
<circle cx="474.89" cy="129.03" r="2.5" class="obs"/>
<line x1="508.31" y1="126.33" x2="508.31" y2="149.70" class="err"/>
<line x1="505.31" y1="126.33" x2="511.31" y2="126.33" class="err"/>
<line x1="505.31" y1="149.70" x2="511.31" y2="149.70" class="err"/>
<circle cx="508.31" cy="138.02" r="2.5" class="obs"/>
<line x1="542.37" y1="142.29" x2="542.37" y2="162.96" class="err"/>
<line x1="539.37" y1="142.29" x2="545.37" y2="142.29" class="err"/>
<line x1="539.37" y1="162.96" x2="545.37" y2="162.96" class="err"/>
<circle cx="542.37" cy="152.63" r="2.5" class="obs"/>
<line x1="575.79" y1="147.23" x2="575.79" y2="174.65" class="err"/>
<line x1="572.79" y1="147.23" x2="578.79" y2="147.23" class="err"/>
<line x1="572.79" y1="174.65" x2="578.79" y2="174.65" class="err"/>
<circle cx="575.79" cy="160.94" r="2.5" class="obs"/>
<g class="legend">
<line x1="82" y1="69" x2="106" y2="69" class="fw"/>
<text x="112" y="73" class="lbl-l">framework fit</text>
<line x1="82" y1="87" x2="106" y2="87" class="nt"/>
<text x="112" y="91" class="lbl-l">Newtonian (no halo)</text>
<circle cx="94" cy="105" r="2.5" class="obs"/>
<text x="112" y="109" class="lbl">observed V±err</text>
</g>
<g class="legend">
<line x1="442" y1="69" x2="466" y2="69" class="rho"/>
<text x="472" y="73" class="lbl-r">ρ(r) raw</text>
<line x1="442" y1="87" x2="466" y2="87" class="sig"/>
<text x="472" y="91" class="lbl-s">Σ(r) cumulative</text>
<text x="442" y="113" class="lbl-r">ρ peak: 460 M☉/pc²</text>
</g>
<rect x="705" y="55" width="170" height="170" class="preview-bg"/>
<defs><radialGradient id="g_NGC7793" cx="0.5" cy="0.5" r="0.5">
  <stop offset="0.0000" stop-color="rgb(162,162,162)"/>
  <stop offset="0.0313" stop-color="rgb(156,156,156)"/>
  <stop offset="0.0625" stop-color="rgb(115,115,115)"/>
  <stop offset="0.0938" stop-color="rgb(102,102,102)"/>
  <stop offset="0.1250" stop-color="rgb(102,102,102)"/>
  <stop offset="0.1563" stop-color="rgb(102,102,102)"/>
  <stop offset="0.1875" stop-color="rgb(100,100,100)"/>
  <stop offset="0.2188" stop-color="rgb(98,98,98)"/>
  <stop offset="0.2500" stop-color="rgb(95,95,95)"/>
  <stop offset="0.2813" stop-color="rgb(93,93,93)"/>
  <stop offset="0.3125" stop-color="rgb(91,91,91)"/>
  <stop offset="0.3438" stop-color="rgb(89,89,89)"/>
  <stop offset="0.3750" stop-color="rgb(87,87,87)"/>
  <stop offset="0.4063" stop-color="rgb(85,85,85)"/>
  <stop offset="0.4375" stop-color="rgb(83,83,83)"/>
  <stop offset="0.4688" stop-color="rgb(81,81,81)"/>
  <stop offset="0.5000" stop-color="rgb(79,79,79)"/>
  <stop offset="0.5313" stop-color="rgb(76,76,76)"/>
  <stop offset="0.5625" stop-color="rgb(74,74,74)"/>
  <stop offset="0.5938" stop-color="rgb(72,72,72)"/>
  <stop offset="0.6250" stop-color="rgb(70,70,70)"/>
  <stop offset="0.6563" stop-color="rgb(68,68,68)"/>
  <stop offset="0.6875" stop-color="rgb(66,66,66)"/>
  <stop offset="0.7188" stop-color="rgb(64,64,64)"/>
  <stop offset="0.7500" stop-color="rgb(59,59,59)"/>
  <stop offset="0.7813" stop-color="rgb(54,54,54)"/>
  <stop offset="0.8125" stop-color="rgb(49,49,49)"/>
  <stop offset="0.8438" stop-color="rgb(44,44,44)"/>
  <stop offset="0.8750" stop-color="rgb(36,36,36)"/>
  <stop offset="0.9063" stop-color="rgb(27,27,27)"/>
  <stop offset="0.9375" stop-color="rgb(18,18,18)"/>
  <stop offset="0.9688" stop-color="rgb(9,9,9)"/>
  <stop offset="1.0000" stop-color="rgb(0,0,0)"/>
</radialGradient></defs>
<circle cx="790" cy="140" r="81" fill="url(#g_NGC7793)"/>
<text x="790" y="49" text-anchor="middle" class="preview-lbl">face-on luminance from ρ(r)</text>
<text x="790" y="239" text-anchor="middle" class="preview-lbl">edge at r = 8.1 kpc</text>
</svg>