<svg xmlns="http://www.w3.org/2000/svg" viewBox="0 0 890 420" width="890" height="420" font-family="sans-serif" font-size="12">
<style>
  .ax { stroke: #333; stroke-width: 1; fill: none; }
  .grid { stroke: #ddd; stroke-width: 0.5; fill: none; }
  .lbl { fill: #333; }
  .lbl-l { fill: #0066cc; }
  .lbl-r { fill: #b03030; }
  .lbl-s { fill: #cc7000; }
  .obs { fill: #222; }
  .err { stroke: #555; stroke-width: 0.8; fill: none; }
  .fw { stroke: #0066cc; stroke-width: 2.2; fill: none; }
  .nt { stroke: #cc6600; stroke-width: 1.6; fill: none; stroke-dasharray: 5,3; }
  .rho { stroke: #b03030; stroke-width: 2.0; fill: none; }
  .sig { stroke: #cc7000; stroke-width: 1.8; fill: none; }
  .title { fill: #111; font-size: 16px; font-weight: 600; }
  .subtitle { fill: #555; font-size: 11px; }
  .legend { font-size: 11px; }
  .preview-bg { fill: #000; }
  .preview-lbl { fill: #888; font-size: 10px; }
</style>
<text x="343.5" y="22" text-anchor="middle" class="title">UGC03580</text>
<text x="343.5" y="38" text-anchor="middle" class="subtitle">rMax=27.1 kpc, N=47, RMS=8.3 km/s (9.0%), amp=767</text>
<line x1="70" y1="365.0" x2="617" y2="365.0" class="grid"/>
<text x="64" y="369.0" text-anchor="end" class="lbl-l">0</text>
<line x1="70" y1="303.0" x2="617" y2="303.0" class="grid"/>
<text x="64" y="307.0" text-anchor="end" class="lbl-l">33</text>
<line x1="70" y1="241.00000000000003" x2="617" y2="241.00000000000003" class="grid"/>
<text x="64" y="245.00000000000003" text-anchor="end" class="lbl-l">65</text>
<line x1="70" y1="178.99999999999997" x2="617" y2="178.99999999999997" class="grid"/>
<text x="64" y="182.99999999999997" text-anchor="end" class="lbl-l">98</text>
<line x1="70" y1="117.00000000000003" x2="617" y2="117.00000000000003" class="grid"/>
<text x="64" y="121.00000000000003" text-anchor="end" class="lbl-l">131</text>
<line x1="70" y1="55.0" x2="617" y2="55.0" class="grid"/>
<text x="64" y="59.0" text-anchor="end" class="lbl-l">163</text>
<text x="623" y="369.0" text-anchor="start" class="lbl-r">0.0</text>
<text x="623" y="327.6666666666667" text-anchor="start" class="lbl-r">0.2</text>
<text x="623" y="286.33333333333337" text-anchor="start" class="lbl-r">0.4</text>
<text x="623" y="245.00000000000003" text-anchor="start" class="lbl-r">0.6</text>
<text x="623" y="203.66666666666666" text-anchor="start" class="lbl-r">0.8</text>
<text x="623" y="162.33333333333334" text-anchor="start" class="lbl-r">1.0</text>
<line x1="70.0" y1="55" x2="70.0" y2="365" class="grid"/>
<text x="70.0" y="381" text-anchor="middle" class="lbl">0.0</text>
<line x1="161.16666666666666" y1="55" x2="161.16666666666666" y2="365" class="grid"/>
<text x="161.16666666666666" y="381" text-anchor="middle" class="lbl">5.4</text>
<line x1="252.33333333333331" y1="55" x2="252.33333333333331" y2="365" class="grid"/>
<text x="252.33333333333331" y="381" text-anchor="middle" class="lbl">10.7</text>
<line x1="343.5" y1="55" x2="343.5" y2="365" class="grid"/>
<text x="343.5" y="381" text-anchor="middle" class="lbl">16.1</text>
<line x1="434.66666666666663" y1="55" x2="434.66666666666663" y2="365" class="grid"/>
<text x="434.66666666666663" y="381" text-anchor="middle" class="lbl">21.4</text>
<line x1="525.8333333333335" y1="55" x2="525.8333333333335" y2="365" class="grid"/>
<text x="525.8333333333335" y="381" text-anchor="middle" class="lbl">26.8</text>
<line x1="617.0" y1="55" x2="617.0" y2="365" class="grid"/>
<text x="617.0" y="381" text-anchor="middle" class="lbl">32.1</text>
<text x="343.5" y="397" text-anchor="middle" class="lbl">radius (kpc)</text>
<text x="16" y="210.0" text-anchor="middle" class="lbl-l" transform="rotate(-90, 16, 210.0)">velocity (km/s)</text>
<text x="661" y="210.0" text-anchor="middle" class="lbl-r" transform="rotate(-90, 661, 210.0)">mass profile (normalized to peak)</text>
<rect x="70" y="55" width="547" height="310" class="ax"/>
<path d="M 70.0,158.3 L 72.5,197.2 L 75.0,236.1 L 77.5,275.0 L 80.0,302.0 L 82.5,302.5 L 85.0,303.0 L 87.5,303.5 L 90.0,304.1 L 92.5,304.6 L 95.0,305.1 L 97.5,305.6 L 100.0,306.1 L 102.5,306.6 L 105.0,307.1 L 107.5,307.6 L 110.0,308.2 L 112.5,308.7 L 115.0,309.2 L 117.5,309.7 L 120.0,310.2 L 122.5,310.7 L 124.9,311.2 L 127.4,311.8 L 129.9,312.3 L 132.4,312.8 L 134.9,313.3 L 137.4,313.8 L 139.9,314.3 L 142.4,314.8 L 144.9,315.3 L 147.4,315.9 L 149.9,316.4 L 152.4,316.9 L 154.9,317.4 L 157.4,317.9 L 159.9,318.4 L 162.4,318.9 L 164.9,319.2 L 167.4,319.4 L 169.9,319.5 L 172.4,319.7 L 174.9,319.9 L 177.4,320.0 L 179.9,320.2 L 182.4,320.4 L 184.9,320.5 L 187.4,320.7 L 189.9,320.9 L 192.4,321.0 L 194.9,321.2 L 197.4,321.4 L 199.9,321.5 L 202.4,321.7 L 204.9,321.9 L 207.4,322.1 L 209.9,322.2 L 212.4,322.4 L 214.9,322.6 L 217.4,322.7 L 219.9,322.9 L 222.4,323.1 L 224.9,323.2 L 227.4,323.4 L 229.9,323.6 L 232.4,323.7 L 234.8,323.9 L 237.3,324.1 L 239.8,324.2 L 242.3,324.4 L 244.8,324.6 L 247.3,324.7 L 249.8,324.9 L 252.3,325.1 L 254.8,325.2 L 257.3,325.4 L 259.8,325.6 L 262.3,325.7 L 264.8,325.9 L 267.3,326.1 L 269.8,326.3 L 272.3,326.4 L 274.8,326.6 L 277.3,326.8 L 279.8,326.9 L 282.3,327.1 L 284.8,327.3 L 287.3,327.4 L 289.8,327.6 L 292.3,327.8 L 294.8,327.9 L 297.3,328.1 L 299.8,328.3 L 302.3,328.4 L 304.8,328.6 L 307.3,328.8 L 309.8,328.9 L 312.3,329.1 L 314.8,329.3 L 317.3,329.4 L 319.8,329.6 L 322.3,329.8 L 324.8,329.9 L 327.3,330.1 L 329.8,330.3 L 332.3,330.5 L 334.8,330.6 L 337.3,330.8 L 339.8,331.0 L 342.3,331.1 L 344.7,331.3 L 347.2,331.5 L 349.7,331.6 L 352.2,331.8 L 354.7,332.0 L 357.2,332.1 L 359.7,332.3 L 362.2,332.5 L 364.7,332.6 L 367.2,332.8 L 369.7,333.0 L 372.2,333.1 L 374.7,333.3 L 377.2,333.5 L 379.7,333.6 L 382.2,333.8 L 384.7,334.0 L 387.2,334.2 L 389.7,334.4 L 392.2,334.6 L 394.7,334.8 L 397.2,335.0 L 399.7,335.2 L 402.2,335.4 L 404.7,335.6 L 407.2,335.8 L 409.7,336.0 L 412.2,336.2 L 414.7,336.4 L 417.2,336.6 L 419.7,336.8 L 422.2,337.0 L 424.7,337.2 L 427.2,337.4 L 429.7,337.6 L 432.2,337.8 L 434.7,338.0 L 437.2,338.2 L 439.7,338.4 L 442.2,338.6 L 444.7,338.8 L 447.2,339.0 L 449.7,339.2 L 452.2,339.4 L 454.6,339.6 L 457.1,339.8 L 459.6,340.0 L 462.1,340.2 L 464.6,340.4 L 467.1,340.6 L 469.6,340.8 L 472.1,340.9 L 474.6,341.1 L 477.1,341.3 L 479.6,341.5 L 482.1,341.7 L 484.6,341.9 L 487.1,342.1 L 489.6,342.3 L 492.1,342.5 L 494.6,342.7 L 497.1,342.9 L 499.6,343.1 L 502.1,343.3 L 504.6,343.5 L 507.1,343.7 L 509.6,343.9 L 512.1,344.1 L 514.6,344.3 L 517.1,344.5 L 519.6,344.7 L 522.1,344.9 L 524.6,345.1 L 527.1,345.3 L 529.6,345.5 L 532.1,345.7 L 534.6,345.9 L 537.1,346.1 L 539.6,346.9 L 542.1,347.8 L 544.6,348.6 L 547.1,349.5 L 549.6,350.4 L 552.1,351.3 L 554.6,352.2 L 557.1,353.0 L 559.6,353.9 L 562.1,354.8 L 564.5,355.7 L 567.0,356.6 L 569.5,357.4 L 572.0,358.3 L 574.5,359.2 L 577.0,360.1 L 579.5,361.0 L 582.0,361.9 L 584.5,362.7 L 587.0,363.6 L 589.5,364.5 L 592.0,365.0 L 594.5,365.0 L 597.0,365.0 L 599.5,365.0 L 602.0,365.0 L 604.5,365.0 L 607.0,365.0 L 609.5,365.0 L 612.0,365.0 L 614.5,365.0 L 617.0,365.0" class="rho"/>
<path d="M 70.0,158.3 L 72.5,161.5 L 75.0,166.0 L 77.5,171.5 L 80.0,177.4 L 82.5,182.9 L 85.0,187.9 L 87.5,192.2 L 90.0,195.8 L 92.5,198.9 L 95.0,201.7 L 97.5,204.2 L 100.0,206.5 L 102.5,208.8 L 105.0,210.9 L 107.5,213.0 L 110.0,215.0 L 112.5,216.9 L 115.0,218.8 L 117.5,220.7 L 120.0,222.6 L 122.5,224.4 L 124.9,226.2 L 127.4,228.0 L 129.9,229.8 L 132.4,231.5 L 134.9,233.3 L 137.4,235.0 L 139.9,236.7 L 142.4,238.3 L 144.9,239.9 L 147.4,241.5 L 149.9,243.1 L 152.4,244.7 L 154.9,246.1 L 157.4,247.6 L 159.9,249.0 L 162.4,250.4 L 164.9,251.7 L 167.4,252.9 L 169.9,254.2 L 172.4,255.3 L 174.9,256.5 L 177.4,257.6 L 179.9,258.7 L 182.4,259.7 L 184.9,260.8 L 187.4,261.8 L 189.9,262.8 L 192.4,263.7 L 194.9,264.7 L 197.4,265.7 L 199.9,266.6 L 202.4,267.5 L 204.9,268.4 L 207.4,269.3 L 209.9,270.2 L 212.4,271.1 L 214.9,272.0 L 217.4,272.8 L 219.9,273.7 L 222.4,274.6 L 224.9,275.4 L 227.4,276.2 L 229.9,277.1 L 232.4,277.9 L 234.8,278.7 L 237.3,279.5 L 239.8,280.3 L 242.3,281.2 L 244.8,282.0 L 247.3,282.7 L 249.8,283.5 L 252.3,284.3 L 254.8,285.1 L 257.3,285.9 L 259.8,286.7 L 262.3,287.4 L 264.8,288.2 L 267.3,289.0 L 269.8,289.7 L 272.3,290.5 L 274.8,291.2 L 277.3,292.0 L 279.8,292.7 L 282.3,293.4 L 284.8,294.2 L 287.3,294.9 L 289.8,295.6 L 292.3,296.3 L 294.8,297.1 L 297.3,297.8 L 299.8,298.5 L 302.3,299.2 L 304.8,299.9 L 307.3,300.6 L 309.8,301.3 L 312.3,302.0 L 314.8,302.7 L 317.3,303.3 L 319.8,304.0 L 322.3,304.7 L 324.8,305.4 L 327.3,306.0 L 329.8,306.7 L 332.3,307.4 L 334.8,308.0 L 337.3,308.7 L 339.8,309.3 L 342.3,310.0 L 344.7,310.6 L 347.2,311.2 L 349.7,311.9 L 352.2,312.5 L 354.7,313.1 L 357.2,313.8 L 359.7,314.4 L 362.2,315.0 L 364.7,315.6 L 367.2,316.2 L 369.7,316.8 L 372.2,317.4 L 374.7,318.0 L 377.2,318.6 L 379.7,319.2 L 382.2,319.8 L 384.7,320.4 L 387.2,321.0 L 389.7,321.6 L 392.2,322.2 L 394.7,322.8 L 397.2,323.4 L 399.7,323.9 L 402.2,324.5 L 404.7,325.1 L 407.2,325.7 L 409.7,326.2 L 412.2,326.8 L 414.7,327.3 L 417.2,327.9 L 419.7,328.4 L 422.2,329.0 L 424.7,329.5 L 427.2,330.0 L 429.7,330.6 L 432.2,331.1 L 434.7,331.6 L 437.2,332.1 L 439.7,332.6 L 442.2,333.1 L 444.7,333.6 L 447.2,334.1 L 449.7,334.6 L 452.2,335.1 L 454.6,335.6 L 457.1,336.0 L 459.6,336.5 L 462.1,337.0 L 464.6,337.4 L 467.1,337.9 L 469.6,338.3 L 472.1,338.8 L 474.6,339.2 L 477.1,339.7 L 479.6,340.1 L 482.1,340.5 L 484.6,340.9 L 487.1,341.4 L 489.6,341.8 L 492.1,342.2 L 494.6,342.6 L 497.1,343.0 L 499.6,343.4 L 502.1,343.8 L 504.6,344.2 L 507.1,344.6 L 509.6,345.0 L 512.1,345.4 L 514.6,345.8 L 517.1,346.2 L 519.6,346.5 L 522.1,346.9 L 524.6,347.3 L 527.1,347.7 L 529.6,348.1 L 532.1,348.5 L 534.6,348.9 L 537.1,349.3 L 539.6,349.7 L 542.1,350.1 L 544.6,350.5 L 547.1,350.9 L 549.6,351.2 L 552.1,351.6 L 554.6,352.0 L 557.1,352.3 L 559.6,352.7 L 562.1,353.0 L 564.5,353.3 L 567.0,353.6 L 569.5,353.9 L 572.0,354.2 L 574.5,354.4 L 577.0,354.6 L 579.5,354.9 L 582.0,355.1 L 584.5,355.3 L 587.0,355.5 L 589.5,355.7 L 592.0,355.8 L 594.5,356.0 L 597.0,356.2 L 599.5,356.3 L 602.0,356.4 L 604.5,356.6 L 607.0,356.7 L 609.5,356.8 L 612.0,357.0 L 614.5,357.1 L 617.0,357.2" class="sig"/>
<path d="M 75.5,297.7 L 80.9,288.4 L 86.4,281.1 L 91.9,272.7 L 97.3,264.7 L 102.8,257.1 L 108.3,250.0 L 113.8,243.4 L 119.2,237.3 L 124.7,231.6 L 130.2,226.3 L 135.6,221.3 L 141.1,216.6 L 146.6,212.1 L 152.1,208.0 L 157.5,204.1 L 163.0,200.4 L 168.5,196.8 L 173.9,193.3 L 179.4,189.9 L 184.9,186.6 L 190.3,183.4 L 195.8,180.2 L 201.3,177.1 L 206.8,174.1 L 212.2,171.1 L 217.7,168.3 L 223.2,165.4 L 228.6,162.7 L 234.1,160.0 L 239.6,157.4 L 245.0,154.8 L 250.5,152.3 L 256.0,149.9 L 261.4,147.5 L 266.9,145.2 L 272.4,142.9 L 277.9,140.7 L 283.3,138.5 L 288.8,136.4 L 294.3,134.3 L 299.7,132.3 L 305.2,130.3 L 310.7,128.4 L 316.1,126.5 L 321.6,124.7 L 327.1,122.9 L 332.6,121.1 L 338.0,119.4 L 343.5,117.7 L 349.0,116.1 L 354.4,114.5 L 359.9,112.9 L 365.4,111.4 L 370.9,109.9 L 376.3,108.5 L 381.8,107.1 L 387.3,105.7 L 392.7,104.4 L 398.2,103.1 L 403.7,101.8 L 409.1,100.6 L 414.6,99.5 L 420.1,98.3 L 425.6,97.2 L 431.0,96.2 L 436.5,95.2 L 442.0,94.2 L 447.4,93.2 L 452.9,92.3 L 458.4,91.5 L 463.8,90.6 L 469.3,89.8 L 474.8,89.1 L 480.2,88.3 L 485.7,87.7 L 491.2,87.0 L 496.7,86.4 L 502.1,85.8 L 507.6,85.2 L 513.1,84.7 L 518.5,84.2 L 524.0,83.7 L 529.5,83.3 L 535.0,82.9 L 540.4,82.6 L 545.9,82.4 L 551.4,82.4 L 556.8,82.6 L 562.3,83.0 L 567.8,83.6 L 573.2,84.3 L 578.7,85.3 L 584.2,86.4 L 589.6,87.7 L 595.1,89.2 L 600.6,90.6 L 606.1,92.0 L 611.5,93.4 L 617.0,94.7" class="nt"/>
<path d="M 74.6,282.1 L 79.1,240.2 L 83.7,219.6 L 88.2,216.2 L 92.8,218.3 L 97.3,217.9 L 101.9,215.2 L 106.5,210.7 L 111.0,205.3 L 115.6,199.6 L 120.1,193.7 L 124.7,188.1 L 129.3,182.9 L 133.8,178.1 L 138.4,173.9 L 142.9,170.5 L 147.5,167.9 L 152.1,166.4 L 156.6,166.0 L 161.2,166.9 L 165.7,168.4 L 170.3,170.1 L 174.8,171.3 L 179.4,171.9 L 184.0,172.0 L 188.5,171.6 L 193.1,171.0 L 197.6,170.0 L 202.2,168.9 L 206.8,167.6 L 211.3,166.3 L 215.9,164.8 L 220.4,163.3 L 225.0,161.7 L 229.5,160.1 L 234.1,158.5 L 238.7,156.9 L 243.2,155.3 L 247.8,153.7 L 252.3,152.2 L 256.9,150.6 L 261.5,149.1 L 266.0,147.7 L 270.6,146.2 L 275.1,144.8 L 279.7,143.5 L 284.2,142.2 L 288.8,140.9 L 293.4,139.7 L 297.9,138.6 L 302.5,137.4 L 307.0,136.3 L 311.6,135.3 L 316.1,134.3 L 320.7,133.4 L 325.3,132.5 L 329.8,131.6 L 334.4,130.8 L 338.9,129.9 L 343.5,129.2 L 348.1,128.4 L 352.6,127.7 L 357.2,126.9 L 361.7,126.2 L 366.3,125.4 L 370.9,124.6 L 375.4,123.7 L 380.0,122.8 L 384.5,121.9 L 389.1,121.1 L 393.6,120.5 L 398.2,120.1 L 402.8,119.8 L 407.3,119.7 L 411.9,119.7 L 416.4,119.8 L 421.0,120.0 L 425.6,120.3 L 430.1,120.7 L 434.7,121.2 L 439.2,121.7 L 443.8,122.3 L 448.3,123.0 L 452.9,123.7 L 457.5,124.5 L 462.0,125.3 L 466.6,126.1 L 471.1,126.9 L 475.7,127.7 L 480.2,128.6 L 484.8,129.4 L 489.4,130.1 L 493.9,130.8 L 498.5,131.4 L 503.0,131.8 L 507.6,132.0 L 512.2,131.8 L 516.7,131.1 L 521.3,129.9 L 525.8,128.1 L 530.4,125.8 L 535.0,123.6 L 539.5,122.2 L 544.1,122.3 L 548.6,124.5 L 553.2,128.8 L 557.7,135.1 L 562.3,142.8 L 566.9,151.5 L 571.4,160.6 L 576.0,169.8 L 580.5,178.5 L 585.1,186.8 L 589.6,194.2 L 594.2,200.8 L 598.8,206.7 L 603.3,211.8 L 607.9,216.4 L 612.4,220.4 L 617.0,224.1" class="fw"/>
<line x1="71.87406425265264" y1="204.12654396505886" x2="71.87406425265264" y2="312.38849194607" class="err"/>
<line x1="68.87406425265264" y1="204.12654396505886" x2="74.87406425265264" y2="204.12654396505886" class="err"/>
<line x1="68.87406425265264" y1="312.38849194607" x2="74.87406425265264" y2="312.38849194607" class="err"/>
<circle cx="71.87406425265264" cy="258.2575179555645" r="2.5" class="obs"/>
<line x1="73.91849798281916" y1="199.18827967118818" x2="73.91849798281916" y2="285.41797157185323" class="err"/>
<line x1="70.91849798281916" y1="199.18827967118818" x2="76.91849798281916" y2="199.18827967118818" class="err"/>
<line x1="70.91849798281916" y1="285.41797157185323" x2="76.91849798281916" y2="285.41797157185323" class="err"/>
<circle cx="73.91849798281916" cy="242.3031256215207" r="2.5" class="obs"/>
<line x1="75.79256223547179" y1="198.99834642911625" x2="75.79256223547179" y2="264.3353817018668" class="err"/>
<line x1="72.79256223547179" y1="198.99834642911625" x2="78.79256223547179" y2="198.99834642911625" class="err"/>
<line x1="72.79256223547179" y1="264.3353817018668" x2="78.79256223547179" y2="264.3353817018668" class="err"/>
<circle cx="75.79256223547179" cy="231.66686406549152" r="2.5" class="obs"/>
<line x1="77.83699596563831" y1="206.78560935406617" x2="77.83699596563831" y2="251.22998799890232" class="err"/>
<line x1="74.83699596563831" y1="206.78560935406617" x2="80.83699596563831" y2="206.78560935406617" class="err"/>
<line x1="74.83699596563831" y1="251.22998799890232" x2="80.83699596563831" y2="251.22998799890232" class="err"/>
<circle cx="77.83699596563831" cy="229.00779867648427" r="2.5" class="obs"/>
<line x1="79.71106021829095" y1="208.68494177478567" x2="79.71106021829095" y2="251.6098544830462" class="err"/>
<line x1="76.71106021829095" y1="208.68494177478567" x2="82.71106021829095" y2="208.68494177478567" class="err"/>
<line x1="76.71106021829095" y1="251.6098544830462" x2="82.71106021829095" y2="251.6098544830462" class="err"/>
<circle cx="79.71106021829095" cy="230.14739812891594" r="2.5" class="obs"/>
<line x1="81.75549394845747" y1="216.14931818821327" x2="81.75549394845747" y2="251.74280775249656" class="err"/>
<line x1="78.75549394845747" y1="216.14931818821327" x2="84.75549394845747" y2="216.14931818821327" class="err"/>
<line x1="78.75549394845747" y1="251.74280775249656" x2="84.75549394845747" y2="251.74280775249656" class="err"/>
<circle cx="81.75549394845747" cy="233.94606297035494" r="2.5" class="obs"/>
<line x1="83.62955820111011" y1="224.5823541362078" x2="83.62955820111011" y2="248.2480360983727" class="err"/>
<line x1="80.62955820111011" y1="224.5823541362078" x2="86.62955820111011" y2="224.5823541362078" class="err"/>
<line x1="80.62955820111011" y1="248.2480360983727" x2="86.62955820111011" y2="248.2480360983727" class="err"/>
<circle cx="83.62955820111011" cy="236.41519511729024" r="2.5" class="obs"/>
<line x1="85.67399193127663" y1="230.33733137098787" x2="85.67399193127663" y2="245.53199073674384" class="err"/>
<line x1="82.67399193127663" y1="230.33733137098787" x2="88.67399193127663" y2="230.33733137098787" class="err"/>
<line x1="82.67399193127663" y1="245.53199073674384" x2="88.67399193127663" y2="245.53199073674384" class="err"/>
<circle cx="85.67399193127663" cy="237.93466105386585" r="2.5" class="obs"/>
<line x1="87.54805618392928" y1="232.61653027585132" x2="87.54805618392928" y2="244.39239128431217" class="err"/>
<line x1="84.54805618392928" y1="232.61653027585132" x2="90.54805618392928" y2="232.61653027585132" class="err"/>
<line x1="84.54805618392928" y1="244.39239128431217" x2="90.54805618392928" y2="244.39239128431217" class="err"/>
<circle cx="87.54805618392928" cy="238.50446078008173" r="2.5" class="obs"/>
<line x1="89.4221204365819" y1="232.38861038536496" x2="89.4221204365819" y2="243.8605782065107" class="err"/>
<line x1="86.4221204365819" y1="232.38861038536496" x2="92.4221204365819" y2="232.38861038536496" class="err"/>
<line x1="86.4221204365819" y1="243.8605782065107" x2="92.4221204365819" y2="243.8605782065107" class="err"/>
<circle cx="89.4221204365819" cy="238.12459429593784" r="2.5" class="obs"/>
<line x1="91.46655416674842" y1="231.11605766348288" x2="91.46655416674842" y2="242.85393202352932" class="err"/>
<line x1="88.46655416674842" y1="231.11605766348288" x2="94.46655416674842" y2="231.11605766348288" class="err"/>
<line x1="88.46655416674842" y1="242.85393202352932" x2="94.46655416674842" y2="242.85393202352932" class="err"/>
<circle cx="91.46655416674842" cy="236.98499484350612" r="2.5" class="obs"/>
<line x1="93.34061841940107" y1="230.12840480470877" x2="93.34061841940107" y2="240.4227865250084" class="err"/>
<line x1="90.34061841940107" y1="230.12840480470877" x2="96.34061841940107" y2="230.12840480470877" class="err"/>
<line x1="90.34061841940107" y1="240.4227865250084" x2="96.34061841940107" y2="240.4227865250084" class="err"/>
<circle cx="93.34061841940107" cy="235.27559566485857" r="2.5" class="obs"/>
<line x1="95.38505214956758" y1="227.5832993609446" x2="95.38505214956758" y2="238.02962767490183" class="err"/>
<line x1="92.38505214956758" y1="227.5832993609446" x2="98.38505214956758" y2="227.5832993609446" class="err"/>
<line x1="92.38505214956758" y1="238.02962767490183" x2="98.38505214956758" y2="238.02962767490183" class="err"/>
<circle cx="95.38505214956758" cy="232.80646351792322" r="2.5" class="obs"/>
<line x1="97.4294858797341" y1="224.81027402669417" x2="97.4294858797341" y2="234.7247892628499" class="err"/>
<line x1="94.4294858797341" y1="224.81027402669417" x2="100.4294858797341" y2="224.81027402669417" class="err"/>
<line x1="94.4294858797341" y1="234.7247892628499" x2="100.4294858797341" y2="234.7247892628499" class="err"/>
<circle cx="97.4294858797341" cy="229.76753164477202" r="2.5" class="obs"/>
<line x1="99.13318065487286" y1="218.77039692880615" x2="99.13318065487286" y2="234.3069361302916" class="err"/>
<line x1="96.13318065487286" y1="218.77039692880615" x2="102.13318065487286" y2="218.77039692880615" class="err"/>
<line x1="96.13318065487286" y1="234.3069361302916" x2="102.13318065487286" y2="234.3069361302916" class="err"/>
<circle cx="99.13318065487286" cy="226.53866652954892" r="2.5" class="obs"/>
<line x1="101.17761438503938" y1="211.0211206522706" x2="101.17761438503938" y2="234.45888272394922" class="err"/>
<line x1="98.17761438503938" y1="211.0211206522706" x2="104.17761438503938" y2="211.0211206522706" class="err"/>
<line x1="98.17761438503938" y1="234.45888272394922" x2="104.17761438503938" y2="234.45888272394922" class="err"/>
<circle cx="101.17761438503938" cy="222.7400016881099" r="2.5" class="obs"/>
<line x1="103.05167863769202" y1="204.05057066823008" x2="103.05167863769202" y2="233.45223654096785" class="err"/>
<line x1="100.05167863769202" y1="204.05057066823008" x2="106.05167863769202" y2="204.05057066823008" class="err"/>
<line x1="100.05167863769202" y1="233.45223654096785" x2="106.05167863769202" y2="233.45223654096785" class="err"/>
<circle cx="103.05167863769202" cy="218.75140360459898" r="2.5" class="obs"/>
<line x1="105.09611236785854" y1="204.39245050395962" x2="105.09611236785854" y2="224.75329405407257" class="err"/>
<line x1="102.09611236785854" y1="204.39245050395962" x2="108.09611236785854" y2="204.39245050395962" class="err"/>
<line x1="102.09611236785854" y1="224.75329405407257" x2="108.09611236785854" y2="224.75329405407257" class="err"/>
<circle cx="105.09611236785854" cy="214.57287227901608" r="2.5" class="obs"/>
<line x1="107.14054609802506" y1="198.3525734060716" x2="107.14054609802506" y2="222.43610850079477" class="err"/>
<line x1="104.14054609802506" y1="198.3525734060716" x2="110.14054609802506" y2="198.3525734060716" class="err"/>
<line x1="104.14054609802506" y1="222.43610850079477" x2="110.14054609802506" y2="222.43610850079477" class="err"/>
<circle cx="107.14054609802506" cy="210.3943409534332" r="2.5" class="obs"/>
<line x1="109.01461035067769" y1="202.36016481378977" x2="109.01461035067769" y2="210.0714544419109" class="err"/>
<line x1="106.01461035067769" y1="202.36016481378977" x2="112.01461035067769" y2="202.36016481378977" class="err"/>
<line x1="106.01461035067769" y1="210.0714544419109" x2="112.01461035067769" y2="210.0714544419109" class="err"/>
<circle cx="109.01461035067769" cy="206.21580962785035" r="2.5" class="obs"/>
<line x1="110.88867460333034" y1="198.5425066481436" x2="110.88867460333034" y2="205.91191644053518" class="err"/>
<line x1="107.88867460333034" y1="198.5425066481436" x2="113.88867460333034" y2="198.5425066481436" class="err"/>
<line x1="107.88867460333034" y1="205.91191644053518" x2="113.88867460333034" y2="205.91191644053518" class="err"/>
<circle cx="110.88867460333034" cy="202.22721154433938" r="2.5" class="obs"/>
<line x1="112.93310833349685" y1="195.00974834560532" x2="112.93310833349685" y2="201.4674785760516" class="err"/>
<line x1="109.93310833349685" y1="195.00974834560532" x2="115.93310833349685" y2="195.00974834560532" class="err"/>
<line x1="109.93310833349685" y1="201.4674785760516" x2="115.93310833349685" y2="201.4674785760516" class="err"/>
<circle cx="112.93310833349685" cy="198.23861346082845" r="2.5" class="obs"/>
<line x1="114.80717258614949" y1="190.5273238327073" x2="114.80717258614949" y2="198.7324398902155" class="err"/>
<line x1="111.80717258614949" y1="190.5273238327073" x2="117.80717258614949" y2="190.5273238327073" class="err"/>
<line x1="111.80717258614949" y1="198.7324398902155" x2="117.80717258614949" y2="198.7324398902155" class="err"/>
<circle cx="114.80717258614949" cy="194.6298818614614" r="2.5" class="obs"/>
<line x1="116.85160631631601" y1="187.83027179528563" x2="116.85160631631601" y2="194.9717616971909" class="err"/>
<line x1="113.85160631631601" y1="187.83027179528563" x2="119.85160631631601" y2="187.83027179528563" class="err"/>
<line x1="113.85160631631601" y1="194.9717616971909" x2="119.85160631631601" y2="194.9717616971909" class="err"/>
<circle cx="116.85160631631601" cy="191.40101674623827" r="2.5" class="obs"/>
<line x1="118.72567056896864" y1="182.3601944236135" x2="118.72567056896864" y2="195.12370829084847" class="err"/>
<line x1="115.72567056896864" y1="182.3601944236135" x2="121.72567056896864" y2="182.3601944236135" class="err"/>
<line x1="115.72567056896864" y1="195.12370829084847" x2="121.72567056896864" y2="195.12370829084847" class="err"/>
<circle cx="118.72567056896864" cy="188.741951357231" r="2.5" class="obs"/>
<line x1="120.77010429913517" y1="183.61375382128836" x2="120.77010429913517" y2="188.93188459930295" class="err"/>
<line x1="117.77010429913517" y1="183.61375382128836" x2="123.77010429913517" y2="183.61375382128836" class="err"/>
<line x1="117.77010429913517" y1="188.93188459930295" x2="123.77010429913517" y2="188.93188459930295" class="err"/>
<circle cx="120.77010429913517" cy="186.27281921029564" r="2.5" class="obs"/>
<line x1="122.6441685517878" y1="173.71823190933978" x2="122.6441685517878" y2="194.6488751856686" class="err"/>
<line x1="119.6441685517878" y1="173.71823190933978" x2="125.6441685517878" y2="173.71823190933978" class="err"/>
<line x1="119.6441685517878" y1="194.6488751856686" x2="125.6441685517878" y2="194.6488751856686" class="err"/>
<circle cx="122.6441685517878" cy="184.1835535475042" r="2.5" class="obs"/>
<line x1="124.51823280444044" y1="170.64131338777418" x2="124.51823280444044" y2="194.30699534993914" class="err"/>
<line x1="121.51823280444044" y1="170.64131338777418" x2="127.51823280444044" y2="170.64131338777418" class="err"/>
<line x1="121.51823280444044" y1="194.30699534993914" x2="127.51823280444044" y2="194.30699534993914" class="err"/>
<circle cx="124.51823280444044" cy="182.47415436885666" r="2.5" class="obs"/>
<line x1="147.00700383627213" y1="175.63655765426648" x2="147.00700383627213" y2="184.3734867895761" class="err"/>
<line x1="144.00700383627213" y1="175.63655765426648" x2="150.00700383627213" y2="175.63655765426648" class="err"/>
<line x1="144.00700383627213" y1="184.3734867895761" x2="150.00700383627213" y2="184.3734867895761" class="err"/>
<circle cx="147.00700383627213" cy="180.0050222219213" r="2.5" class="obs"/>
<line x1="149.90328495400803" y1="158.73249910986297" x2="149.90328495400803" y2="203.17687775469912" class="err"/>
<line x1="146.90328495400803" y1="158.73249910986297" x2="152.90328495400803" y2="158.73249910986297" class="err"/>
<line x1="146.90328495400803" y1="203.17687775469912" x2="152.90328495400803" y2="203.17687775469912" class="err"/>
<circle cx="149.90328495400803" cy="180.95468843228105" r="2.5" class="obs"/>
<line x1="172.73279494086745" y1="176.77615710669818" x2="172.73279494086745" y2="185.51308624200786" class="err"/>
<line x1="169.73279494086745" y1="176.77615710669818" x2="175.73279494086745" y2="176.77615710669818" class="err"/>
<line x1="169.73279494086745" y1="185.51308624200786" x2="175.73279494086745" y2="185.51308624200786" class="err"/>
<circle cx="172.73279494086745" cy="181.144621674353" r="2.5" class="obs"/>
<line x1="198.28821656794892" y1="163.63277675531924" x2="198.28821656794892" y2="167.50741489358703" class="err"/>
<line x1="195.28821656794892" y1="163.63277675531924" x2="201.28821656794892" y2="163.63277675531924" class="err"/>
<line x1="195.28821656794892" y1="167.50741489358703" x2="201.28821656794892" y2="167.50741489358703" class="err"/>
<circle cx="198.28821656794892" cy="165.57009582445315" r="2.5" class="obs"/>
<line x1="216.17701170690594" y1="142.55018688533286" x2="216.17701170690594" y2="169.5966805563785" class="err"/>
<line x1="213.17701170690594" y1="142.55018688533286" x2="219.17701170690594" y2="142.55018688533286" class="err"/>
<line x1="213.17701170690594" y1="169.5966805563785" x2="219.17701170690594" y2="169.5966805563785" class="err"/>
<circle cx="216.17701170690594" cy="156.0734337208557" r="2.5" class="obs"/>
<line x1="218.22144543707245" y1="146.08294518787113" x2="218.22144543707245" y2="166.06392225384025" class="err"/>
<line x1="215.22144543707245" y1="146.08294518787113" x2="221.22144543707245" y2="146.08294518787113" class="err"/>
<line x1="215.22144543707245" y1="166.06392225384025" x2="221.22144543707245" y2="166.06392225384025" class="err"/>
<circle cx="218.22144543707245" cy="156.0734337208557" r="2.5" class="obs"/>
<line x1="220.26587916723898" y1="146.2728784299431" x2="220.26587916723898" y2="165.8739890117683" class="err"/>
<line x1="217.26587916723898" y1="146.2728784299431" x2="223.26587916723898" y2="146.2728784299431" class="err"/>
<line x1="217.26587916723898" y1="165.8739890117683" x2="223.26587916723898" y2="165.8739890117683" class="err"/>
<circle cx="220.26587916723898" cy="156.0734337208557" r="2.5" class="obs"/>
<line x1="223.84363819503037" y1="152.61664871514623" x2="223.84363819503037" y2="155.73155388512617" class="err"/>
<line x1="220.84363819503037" y1="152.61664871514623" x2="226.84363819503037" y2="152.61664871514623" class="err"/>
<line x1="220.84363819503037" y1="155.73155388512617" x2="226.84363819503037" y2="155.73155388512617" class="err"/>
<circle cx="223.84363819503037" cy="154.17410130013621" r="2.5" class="obs"/>
<line x1="224.18437715005817" y1="139.34031509431694" x2="224.18437715005817" y2="169.00788750595544" class="err"/>
<line x1="221.18437715005817" y1="139.34031509431694" x2="227.18437715005817" y2="139.34031509431694" class="err"/>
<line x1="221.18437715005817" y1="169.00788750595544" x2="227.18437715005817" y2="169.00788750595544" class="err"/>
<circle cx="224.18437715005817" cy="154.17410130013621" r="2.5" class="obs"/>
<line x1="249.39905982211184" y1="149.5587235177878" x2="249.39905982211184" y2="154.9908142410456" class="err"/>
<line x1="246.39905982211184" y1="149.5587235177878" x2="252.39905982211184" y2="149.5587235177878" class="err"/>
<line x1="246.39905982211184" y1="154.9908142410456" x2="252.39905982211184" y2="154.9908142410456" class="err"/>
<circle cx="249.39905982211184" cy="152.27476887941668" r="2.5" class="obs"/>
<line x1="275.6359593592488" y1="149.9765766503461" x2="275.6359593592488" y2="154.57296110848728" class="err"/>
<line x1="272.6359593592488" y1="149.9765766503461" x2="278.6359593592488" y2="149.9765766503461" class="err"/>
<line x1="272.6359593592488" y1="154.57296110848728" x2="278.6359593592488" y2="154.57296110848728" class="err"/>
<circle cx="275.6359593592488" cy="152.27476887941668" r="2.5" class="obs"/>
<line x1="301.36175046384415" y1="145.91200527000638" x2="301.36175046384415" y2="151.040202805949" class="err"/>
<line x1="298.36175046384415" y1="145.91200527000638" x2="304.36175046384415" y2="145.91200527000638" class="err"/>
<line x1="298.36175046384415" y1="151.040202805949" x2="304.36175046384415" y2="151.040202805949" class="err"/>
<circle cx="301.36175046384415" cy="148.4761040379777" r="2.5" class="obs"/>
<line x1="327.08754156843946" y1="138.29568226292122" x2="327.08754156843946" y2="143.46186644727823" class="err"/>
<line x1="324.08754156843946" y1="138.29568226292122" x2="330.08754156843946" y2="138.29568226292122" class="err"/>
<line x1="324.08754156843946" y1="143.46186644727823" x2="330.08754156843946" y2="143.46186644727823" class="err"/>
<circle cx="327.08754156843946" cy="140.87877435509972" r="2.5" class="obs"/>
<line x1="352.8133326730348" y1="130.5464059863857" x2="352.8133326730348" y2="136.01648335805783" class="err"/>
<line x1="349.8133326730348" y1="130.5464059863857" x2="355.8133326730348" y2="130.5464059863857" class="err"/>
<line x1="349.8133326730348" y1="136.01648335805783" x2="355.8133326730348" y2="136.01648335805783" class="err"/>
<circle cx="352.8133326730348" cy="133.28144467222177" r="2.5" class="obs"/>
<line x1="378.53912377763015" y1="124.46854224008332" x2="378.53912377763015" y2="130.69835258004326" class="err"/>
<line x1="375.53912377763015" y1="124.46854224008332" x2="381.53912377763015" y2="124.46854224008332" class="err"/>
<line x1="375.53912377763015" y1="130.69835258004326" x2="381.53912377763015" y2="130.69835258004326" class="err"/>
<circle cx="378.53912377763015" cy="127.58344741006329" r="2.5" class="obs"/>
<line x1="404.2649148822255" y1="118.14376527908738" x2="404.2649148822255" y2="125.6271350167222" class="err"/>
<line x1="401.2649148822255" y1="118.14376527908738" x2="407.2649148822255" y2="118.14376527908738" class="err"/>
<line x1="401.2649148822255" y1="125.6271350167222" x2="407.2649148822255" y2="125.6271350167222" class="err"/>
<circle cx="404.2649148822255" cy="121.88545014790478" r="2.5" class="obs"/>
<line x1="428.1166417341681" y1="112.749661204244" x2="428.1166417341681" y2="119.6252445672486" class="err"/>
<line x1="425.1166417341681" y1="112.749661204244" x2="431.1166417341681" y2="112.749661204244" class="err"/>
<line x1="425.1166417341681" y1="119.6252445672486" x2="431.1166417341681" y2="119.6252445672486" class="err"/>
<circle cx="428.1166417341681" cy="116.18745288574631" r="2.5" class="obs"/>
<line x1="479.5682239433588" y1="120.11907099663566" x2="479.5682239433588" y2="127.4504941406129" class="err"/>
<line x1="476.5682239433588" y1="120.11907099663566" x2="482.5682239433588" y2="120.11907099663566" class="err"/>
<line x1="476.5682239433588" y1="127.4504941406129" x2="482.5682239433588" y2="127.4504941406129" class="err"/>
<circle cx="479.5682239433588" cy="123.78478256862428" r="2.5" class="obs"/>
<line x1="531.0198061525494" y1="125.83606158300135" x2="531.0198061525494" y2="133.12949807856418" class="err"/>
<line x1="528.0198061525494" y1="125.83606158300135" x2="534.0198061525494" y2="125.83606158300135" class="err"/>
<line x1="528.0198061525494" y1="133.12949807856418" x2="534.0198061525494" y2="133.12949807856418" class="err"/>
<circle cx="531.0198061525494" cy="129.4827798307828" r="2.5" class="obs"/>
<g class="legend">
<line x1="82" y1="69" x2="106" y2="69" class="fw"/>
<text x="112" y="73" class="lbl-l">framework fit</text>
<line x1="82" y1="87" x2="106" y2="87" class="nt"/>
<text x="112" y="91" class="lbl-l">Newtonian (no halo)</text>
<circle cx="94" cy="105" r="2.5" class="obs"/>
<text x="112" y="109" class="lbl">observed V±err</text>
</g>
<g class="legend">
<line x1="472" y1="69" x2="496" y2="69" class="rho"/>
<text x="502" y="73" class="lbl-r">ρ(r) raw</text>
<line x1="472" y1="87" x2="496" y2="87" class="sig"/>
<text x="502" y="91" class="lbl-s">Σ(r) cumulative</text>
<text x="472" y="113" class="lbl-r">ρ peak: 399 M☉/pc²</text>
</g>
<rect x="705" y="55" width="170" height="170" class="preview-bg"/>
<defs><radialGradient id="g_UGC03580" cx="0.5" cy="0.5" r="0.5">
  <stop offset="0.0000" stop-color="rgb(145,145,145)"/>
  <stop offset="0.0312" stop-color="rgb(68,68,68)"/>
  <stop offset="0.0625" stop-color="rgb(67,67,67)"/>
  <stop offset="0.0938" stop-color="rgb(65,65,65)"/>
  <stop offset="0.1250" stop-color="rgb(63,63,63)"/>
  <stop offset="0.1562" stop-color="rgb(59,59,59)"/>
  <stop offset="0.1875" stop-color="rgb(56,56,56)"/>
  <stop offset="0.2188" stop-color="rgb(54,54,54)"/>
  <stop offset="0.2500" stop-color="rgb(53,53,53)"/>
  <stop offset="0.2812" stop-color="rgb(52,52,52)"/>
  <stop offset="0.3125" stop-color="rgb(50,50,50)"/>
  <stop offset="0.3438" stop-color="rgb(49,49,49)"/>
  <stop offset="0.3750" stop-color="rgb(48,48,48)"/>
  <stop offset="0.4062" stop-color="rgb(46,46,46)"/>
  <stop offset="0.4375" stop-color="rgb(45,45,45)"/>
  <stop offset="0.4688" stop-color="rgb(44,44,44)"/>
  <stop offset="0.5000" stop-color="rgb(42,42,42)"/>
  <stop offset="0.5312" stop-color="rgb(41,41,41)"/>
  <stop offset="0.5625" stop-color="rgb(39,39,39)"/>
  <stop offset="0.5938" stop-color="rgb(38,38,38)"/>
  <stop offset="0.6250" stop-color="rgb(37,37,37)"/>
  <stop offset="0.6562" stop-color="rgb(35,35,35)"/>
  <stop offset="0.6875" stop-color="rgb(33,33,33)"/>
  <stop offset="0.7188" stop-color="rgb(32,32,32)"/>
  <stop offset="0.7500" stop-color="rgb(30,30,30)"/>
  <stop offset="0.7812" stop-color="rgb(29,29,29)"/>
  <stop offset="0.8125" stop-color="rgb(27,27,27)"/>
  <stop offset="0.8438" stop-color="rgb(25,25,25)"/>
  <stop offset="0.8750" stop-color="rgb(24,24,24)"/>
  <stop offset="0.9062" stop-color="rgb(21,21,21)"/>
  <stop offset="0.9375" stop-color="rgb(14,14,14)"/>
  <stop offset="0.9688" stop-color="rgb(7,7,7)"/>
  <stop offset="1.0000" stop-color="rgb(0,0,0)"/>
</radialGradient></defs>
<circle cx="790.0" cy="140.0" r="81.0" fill="url(#g_UGC03580)"/>
<text x="790.0" y="49" text-anchor="middle" class="preview-lbl">face-on luminance from ρ(r)</text>
<text x="790.0" y="239" text-anchor="middle" class="preview-lbl">edge at r = 30.6 kpc</text>
</svg>