<svg xmlns="http://www.w3.org/2000/svg" viewBox="0 0 960 450" width="960" height="450" font-family="sans-serif" font-size="12">
<style>
  .ax { stroke: #333; stroke-width: 1; fill: none; }
  .grid { stroke: #ddd; stroke-width: 0.5; fill: none; }
  .lbl { fill: #333; }
  .lbl-l { fill: #0066cc; }
  .lbl-r { fill: #b03030; }
  .obs { fill: #222; }
  .err { stroke: #555; stroke-width: 0.8; fill: none; }
  .fw { stroke: #0066cc; stroke-width: 2.2; fill: none; }
  .nt { stroke: #cc6600; stroke-width: 1.6; fill: none; stroke-dasharray: 5,3; }
  .mond { stroke: #7b2cbf; stroke-width: 1.8; fill: none; stroke-dasharray: 7,3; }
  .lbl-p { fill: #cc7000; }
  .lbl-m { fill: #7b2cbf; }
  .rho { stroke: #b03030; stroke-width: 2.0; fill: none; }
  .phot { stroke: #cc7000; stroke-width: 1.8; fill: none; }
  .mbar { stroke: #8e44ad; stroke-width: 1.8; fill: none; opacity: 0.9; }
  .mph { stroke: #c77dff; stroke-width: 1.6; fill: none; stroke-dasharray: 4,3; opacity: 0.95; }
  .remap-x { stroke: #cc2222; stroke-width: 1.5; fill: none; }
  .remap-link { stroke: #cc2222; stroke-width: 0.8; stroke-dasharray: 3,3; fill: none; opacity: 0.7; }
  .title { fill: #111; font-size: 16px; font-weight: 600; }
  .subtitle { fill: #555; font-size: 11px; }
  .preview-bg { fill: #000; }
  .preview-lbl { fill: #888; font-size: 10px; }
  .legend { font-size: 11px; }
</style>
<text x="378.5" y="22" text-anchor="middle" class="title">UGC05986</text>
<text x="378.5" y="38" text-anchor="middle" class="subtitle">rMax=9.4 kpc, N=15, FW=3.1 km/s, 4.7%, 0.96σ, MOND=15.2 km/s, 15.3%, 5.48σ, amp=504</text>
<line x1="70" y1="395.0" x2="687" y2="395.0" class="grid"/>
<text x="64" y="399.0" text-anchor="end" class="lbl-l">0</text>
<line x1="70" y1="327.0" x2="687" y2="327.0" class="grid"/>
<text x="64" y="331.0" text-anchor="end" class="lbl-l">27</text>
<line x1="70" y1="259.0" x2="687" y2="259.0" class="grid"/>
<text x="64" y="263.0" text-anchor="end" class="lbl-l">54</text>
<line x1="70" y1="191.0" x2="687" y2="191.0" class="grid"/>
<text x="64" y="195.0" text-anchor="end" class="lbl-l">81</text>
<line x1="70" y1="123.0" x2="687" y2="123.0" class="grid"/>
<text x="64" y="127.0" text-anchor="end" class="lbl-l">109</text>
<line x1="70" y1="55.0" x2="687" y2="55.0" class="grid"/>
<text x="64" y="59.0" text-anchor="end" class="lbl-l">136</text>
<text x="693" y="399.0" text-anchor="start" class="lbl-r">0.0</text>
<text x="693" y="353.7" text-anchor="start" class="lbl-r">0.2</text>
<text x="693" y="308.3" text-anchor="start" class="lbl-r">0.4</text>
<text x="693" y="263.0" text-anchor="start" class="lbl-r">0.6</text>
<text x="693" y="217.7" text-anchor="start" class="lbl-r">0.8</text>
<text x="693" y="172.3" text-anchor="start" class="lbl-r">1.0</text>
<line x1="70.0" y1="55" x2="70.0" y2="395" class="grid"/>
<text x="70.0" y="411" text-anchor="middle" class="lbl">0.0</text>
<line x1="172.8" y1="55" x2="172.8" y2="395" class="grid"/>
<text x="172.8" y="411" text-anchor="middle" class="lbl">1.6</text>
<line x1="275.7" y1="55" x2="275.7" y2="395" class="grid"/>
<text x="275.7" y="411" text-anchor="middle" class="lbl">3.3</text>
<line x1="378.5" y1="55" x2="378.5" y2="395" class="grid"/>
<text x="378.5" y="411" text-anchor="middle" class="lbl">4.9</text>
<line x1="481.3" y1="55" x2="481.3" y2="395" class="grid"/>
<text x="481.3" y="411" text-anchor="middle" class="lbl">6.6</text>
<line x1="584.2" y1="55" x2="584.2" y2="395" class="grid"/>
<text x="584.2" y="411" text-anchor="middle" class="lbl">8.2</text>
<line x1="687.0" y1="55" x2="687.0" y2="395" class="grid"/>
<text x="687.0" y="411" text-anchor="middle" class="lbl">9.9</text>
<text x="378.5" y="438" text-anchor="middle" class="lbl">radius (kpc)</text>
<text x="16" y="225" text-anchor="middle" class="lbl-l" transform="rotate(-90, 16, 225)">velocity (km/s)</text>
<text x="724" y="225" text-anchor="middle" class="lbl-r" transform="rotate(-90, 724, 225)">profiles (normalized to peak)</text>
<rect x="70" y="55" width="617" height="340" class="ax"/>
<path d="M 70.0,168.3 L 72.8,168.3 L 75.6,168.3 L 78.5,168.3 L 81.3,168.3 L 84.1,168.3 L 86.9,168.3 L 89.7,168.3 L 92.5,168.3 L 95.4,168.3 L 98.2,168.3 L 101.0,168.3 L 103.8,168.3 L 106.6,168.3 L 109.4,168.3 L 112.3,168.3 L 115.1,168.3 L 117.9,168.3 L 120.7,168.3 L 123.5,168.3 L 126.3,168.3 L 129.2,168.3 L 132.0,168.7 L 134.8,170.1 L 137.6,171.5 L 140.4,172.9 L 143.3,174.4 L 146.1,175.8 L 148.9,177.2 L 151.7,178.6 L 154.5,180.1 L 157.3,181.5 L 160.2,182.9 L 163.0,184.3 L 165.8,185.8 L 168.6,187.2 L 171.4,188.6 L 174.2,190.0 L 177.1,191.5 L 179.9,192.9 L 182.7,194.3 L 185.5,195.7 L 188.3,197.2 L 191.1,198.6 L 194.0,200.0 L 196.8,201.4 L 199.6,202.9 L 202.4,203.4 L 205.2,203.4 L 208.1,203.4 L 210.9,203.4 L 213.7,203.4 L 216.5,203.4 L 219.3,203.4 L 222.1,203.4 L 225.0,203.4 L 227.8,203.4 L 230.6,203.4 L 233.4,203.4 L 236.2,203.9 L 239.0,204.7 L 241.9,205.5 L 244.7,206.3 L 247.5,207.1 L 250.3,207.9 L 253.1,208.6 L 255.9,209.4 L 258.8,210.2 L 261.6,211.0 L 264.4,211.8 L 267.2,212.6 L 270.0,213.3 L 272.8,214.1 L 275.7,214.9 L 278.5,215.7 L 281.3,216.5 L 284.1,217.2 L 286.9,218.0 L 289.8,218.8 L 292.6,219.6 L 295.4,220.4 L 298.2,221.2 L 301.0,221.9 L 303.8,222.7 L 306.7,223.5 L 309.5,224.3 L 312.3,225.1 L 315.1,225.9 L 317.9,226.6 L 320.7,227.4 L 323.6,228.2 L 326.4,229.0 L 329.2,229.8 L 332.0,230.6 L 334.8,231.3 L 337.6,232.1 L 340.5,232.9 L 343.3,233.7 L 346.1,234.5 L 348.9,235.3 L 351.7,236.0 L 354.6,236.8 L 357.4,237.6 L 360.2,238.4 L 363.0,239.2 L 365.8,239.9 L 368.6,240.7 L 371.5,241.5 L 374.3,242.3 L 377.1,243.1 L 379.9,243.9 L 382.7,244.6 L 385.5,245.4 L 388.4,246.2 L 391.2,247.0 L 394.0,247.8 L 396.8,248.6 L 399.6,249.3 L 402.4,250.1 L 405.3,250.9 L 408.1,251.7 L 410.9,252.5 L 413.7,253.3 L 416.5,254.0 L 419.4,254.8 L 422.2,255.6 L 425.0,256.4 L 427.8,257.2 L 430.6,258.0 L 433.4,258.7 L 436.3,259.5 L 439.1,260.3 L 441.9,261.1 L 444.7,261.9 L 447.5,262.6 L 450.3,263.4 L 453.2,264.2 L 456.0,265.0 L 458.8,265.8 L 461.6,266.6 L 464.4,267.3 L 467.2,268.1 L 470.1,268.9 L 472.9,269.7 L 475.7,270.5 L 478.5,271.3 L 481.3,272.0 L 484.2,272.8 L 487.0,273.6 L 489.8,274.4 L 492.6,275.2 L 495.4,276.0 L 498.2,276.7 L 501.1,277.5 L 503.9,278.3 L 506.7,279.1 L 509.5,279.9 L 512.3,280.7 L 515.1,281.4 L 518.0,282.2 L 520.8,283.0 L 523.6,283.8 L 526.4,284.6 L 529.2,285.3 L 532.0,286.1 L 534.9,286.9 L 537.7,287.7 L 540.5,288.5 L 543.3,289.3 L 546.1,290.0 L 548.9,290.8 L 551.8,291.6 L 554.6,292.4 L 557.4,293.2 L 560.2,294.0 L 563.0,294.7 L 565.9,295.5 L 568.7,296.3 L 571.5,297.1 L 574.3,297.9 L 577.1,298.7 L 579.9,299.4 L 582.8,300.2 L 585.6,301.0 L 588.4,301.8 L 591.2,302.6 L 594.0,303.4 L 596.8,304.1 L 599.7,304.9 L 602.5,305.7 L 605.3,306.5 L 608.1,307.3 L 610.9,308.1 L 613.7,308.8 L 616.6,309.6 L 619.4,310.4 L 622.2,311.2 L 625.0,312.0 L 627.8,312.7 L 630.7,313.5 L 633.5,314.3 L 636.3,315.1 L 639.1,315.9 L 641.9,316.7 L 644.7,317.4 L 647.6,318.2 L 650.4,319.0 L 653.2,338.0 L 656.0,374.3 L 658.8,395.0 L 661.6,395.0 L 664.5,395.0 L 667.3,395.0 L 670.1,395.0 L 672.9,395.0 L 675.7,395.0 L 678.5,395.0 L 681.4,395.0 L 684.2,395.0 L 687.0,395.0" class="rho"/>
<path d="M 109.3,168.3 L 148.7,250.2 L 187.4,270.4 L 226.7,302.2 L 265.5,337.5 L 305.4,355.4 L 344.1,366.2 L 383.5,380.1 L 422.8,387.2 L 462.2,391.6 L 500.9,395.0 L 540.8,395.0 L 579.6,395.0 L 618.9,395.0 L 657.6,395.0" class="phot"/>
<path d="M 109.3,199.5 L 148.7,211.0 L 187.4,186.2 L 226.7,168.3 L 265.5,208.6 L 305.4,251.0 L 344.1,265.3 L 383.5,297.8 L 422.8,350.0 L 462.2,379.1 L 500.9,385.3 L 540.8,391.2 L 579.6,393.5 L 618.9,383.0 L 657.6,366.4" class="mbar"/>
<path d="M 109.3,181.0 L 148.7,185.8 L 187.4,175.6 L 226.7,168.3 L 265.5,184.6 L 305.4,202.4 L 344.1,209.9 L 383.5,227.8 L 422.8,258.6 L 462.2,281.0 L 500.9,294.9 L 540.8,311.9 L 579.6,321.2 L 618.9,311.3 L 657.6,294.3" class="mph"/>
<path d="M 76.2,352.8 L 82.3,335.3 L 88.5,321.8 L 94.7,310.5 L 100.8,300.6 L 107.0,291.5 L 113.2,283.3 L 119.4,275.5 L 125.5,268.3 L 131.7,261.4 L 137.9,255.0 L 144.0,249.0 L 150.2,243.4 L 156.4,238.1 L 162.6,233.1 L 168.7,228.4 L 174.9,223.9 L 181.1,219.6 L 187.2,215.6 L 193.4,211.7 L 199.6,208.0 L 205.7,204.4 L 211.9,200.8 L 218.1,197.3 L 224.3,193.8 L 230.4,190.3 L 236.6,186.9 L 242.8,183.6 L 248.9,180.4 L 255.1,177.3 L 261.3,174.2 L 267.4,171.3 L 273.6,168.4 L 279.8,165.6 L 286.0,162.9 L 292.1,160.2 L 298.3,157.6 L 304.5,155.1 L 310.6,152.6 L 316.8,150.2 L 323.0,147.9 L 329.1,145.6 L 335.3,143.4 L 341.5,141.2 L 347.7,139.1 L 353.8,137.1 L 360.0,135.1 L 366.2,133.1 L 372.3,131.2 L 378.5,129.4 L 384.7,127.6 L 390.8,125.8 L 397.0,124.1 L 403.2,122.4 L 409.4,120.8 L 415.5,119.2 L 421.7,117.6 L 427.9,116.1 L 434.0,114.7 L 440.2,113.2 L 446.4,111.9 L 452.5,110.5 L 458.7,109.2 L 464.9,107.9 L 471.1,106.7 L 477.2,105.5 L 483.4,104.3 L 489.6,103.2 L 495.7,102.1 L 501.9,101.1 L 508.1,100.0 L 514.2,99.0 L 520.4,98.1 L 526.6,97.2 L 532.8,96.3 L 538.9,95.4 L 545.1,94.6 L 551.3,93.8 L 557.4,93.1 L 563.6,92.3 L 569.8,91.6 L 575.9,91.0 L 582.1,90.3 L 588.3,89.7 L 594.4,89.2 L 600.6,88.6 L 606.8,88.1 L 613.0,87.6 L 619.1,87.2 L 625.3,86.8 L 631.5,86.4 L 637.6,86.0 L 643.8,85.7 L 650.0,85.4 L 656.1,85.6 L 662.3,87.2 L 668.5,88.7 L 674.7,90.3 L 680.8,91.9 L 687.0,93.4" class="nt"/>
<path d="M 109.3,301.8 L 148.7,270.2 L 187.4,237.7 L 226.7,204.9 L 265.5,187.4 L 305.4,175.6 L 344.1,162.5 L 383.5,153.1 L 422.8,151.9 L 462.2,153.0 L 500.9,152.8 L 540.8,155.9 L 579.6,159.1 L 618.9,159.1 L 657.6,153.9" class="mond"/>
<path d="M 75.1,384.4 L 80.3,376.2 L 85.4,367.0 L 90.6,357.7 L 95.7,348.2 L 100.8,338.6 L 106.0,328.9 L 111.1,319.0 L 116.3,309.0 L 121.4,298.9 L 126.6,288.9 L 131.7,279.0 L 136.8,269.5 L 142.0,260.5 L 147.1,252.0 L 152.3,244.3 L 157.4,237.2 L 162.6,230.8 L 167.7,225.2 L 172.8,220.2 L 178.0,216.0 L 183.1,212.4 L 188.3,209.4 L 193.4,207.0 L 198.5,204.9 L 203.7,203.0 L 208.8,201.0 L 214.0,198.8 L 219.1,196.1 L 224.3,193.0 L 229.4,189.3 L 234.5,185.3 L 239.7,181.1 L 244.8,176.7 L 250.0,172.4 L 255.1,168.2 L 260.2,164.1 L 265.4,160.2 L 270.5,156.5 L 275.7,153.0 L 280.8,149.6 L 285.9,146.4 L 291.1,143.4 L 296.2,140.5 L 301.4,137.7 L 306.5,135.1 L 311.7,132.6 L 316.8,130.2 L 321.9,127.9 L 327.1,125.8 L 332.2,123.7 L 337.4,121.8 L 342.5,119.9 L 347.6,118.2 L 352.8,116.5 L 357.9,115.0 L 363.1,113.5 L 368.2,112.1 L 373.4,110.8 L 378.5,109.6 L 383.6,108.5 L 388.8,107.5 L 393.9,106.5 L 399.1,105.6 L 404.2,104.8 L 409.3,104.1 L 414.5,103.4 L 419.6,102.8 L 424.8,102.3 L 429.9,101.8 L 435.1,101.5 L 440.2,101.1 L 445.3,100.9 L 450.5,100.7 L 455.6,100.6 L 460.8,100.5 L 465.9,100.5 L 471.1,100.6 L 476.2,100.7 L 481.3,100.9 L 486.5,101.1 L 491.6,101.4 L 496.8,101.7 L 501.9,102.1 L 507.0,102.5 L 512.2,103.0 L 517.3,103.5 L 522.5,104.1 L 527.6,104.7 L 532.8,105.3 L 537.9,106.0 L 543.0,106.7 L 548.2,107.4 L 553.3,108.1 L 558.5,108.8 L 563.6,109.5 L 568.7,110.2 L 573.9,110.9 L 579.0,111.5 L 584.2,112.1 L 589.3,112.6 L 594.4,112.9 L 599.6,113.1 L 604.7,113.2 L 609.9,113.0 L 615.0,112.5 L 620.2,111.7 L 625.3,110.7 L 630.4,109.5 L 635.6,108.5 L 640.7,107.9 L 645.9,108.3 L 651.0,110.4 L 656.1,114.3 L 661.3,120.0 L 666.4,127.2 L 671.6,135.4 L 676.7,143.8 L 681.9,152.2 L 687.0,160.2" class="fw"/>
<line x1="109.34" y1="314.73" x2="109.34" y2="327.41" class="err"/>
<line x1="106.34" y1="314.73" x2="112.34" y2="314.73" class="err"/>
<line x1="106.34" y1="327.41" x2="112.34" y2="327.41" class="err"/>
<circle cx="109.34" cy="321.07" r="2.5" class="obs"/>
<line x1="148.68" y1="258.27" x2="148.68" y2="277.12" class="err"/>
<line x1="145.68" y1="258.27" x2="151.68" y2="258.27" class="err"/>
<line x1="145.68" y1="277.12" x2="151.68" y2="277.12" class="err"/>
<circle cx="148.68" cy="267.69" r="2.5" class="obs"/>
<line x1="187.40" y1="217.62" x2="187.40" y2="230.56" class="err"/>
<line x1="184.40" y1="217.62" x2="190.40" y2="217.62" class="err"/>
<line x1="184.40" y1="230.56" x2="190.40" y2="230.56" class="err"/>
<circle cx="187.40" cy="224.09" r="2.5" class="obs"/>
<line x1="226.74" y1="178.03" x2="226.74" y2="189.46" class="err"/>
<line x1="223.74" y1="178.03" x2="229.74" y2="178.03" class="err"/>
<line x1="223.74" y1="189.46" x2="229.74" y2="189.46" class="err"/>
<circle cx="226.74" cy="183.74" r="2.5" class="obs"/>
<line x1="265.46" y1="151.14" x2="265.46" y2="161.21" class="err"/>
<line x1="262.46" y1="151.14" x2="268.46" y2="151.14" class="err"/>
<line x1="262.46" y1="161.21" x2="268.46" y2="161.21" class="err"/>
<circle cx="265.46" cy="156.18" r="2.5" class="obs"/>
<line x1="305.42" y1="120.39" x2="305.42" y2="138.33" class="err"/>
<line x1="302.42" y1="120.39" x2="308.42" y2="120.39" class="err"/>
<line x1="302.42" y1="138.33" x2="308.42" y2="138.33" class="err"/>
<circle cx="305.42" cy="129.36" r="2.5" class="obs"/>
<line x1="344.14" y1="103.68" x2="344.14" y2="124.98" class="err"/>
<line x1="341.14" y1="103.68" x2="347.14" y2="103.68" class="err"/>
<line x1="341.14" y1="124.98" x2="347.14" y2="124.98" class="err"/>
<circle cx="344.14" cy="114.33" r="2.5" class="obs"/>
<line x1="383.48" y1="98.84" x2="383.48" y2="114.78" class="err"/>
<line x1="380.48" y1="98.84" x2="386.48" y2="98.84" class="err"/>
<line x1="380.48" y1="114.78" x2="386.48" y2="114.78" class="err"/>
<circle cx="383.48" cy="106.81" r="2.5" class="obs"/>
<line x1="422.82" y1="98.49" x2="422.82" y2="110.12" class="err"/>
<line x1="419.82" y1="98.49" x2="425.82" y2="98.49" class="err"/>
<line x1="419.82" y1="110.12" x2="425.82" y2="110.12" class="err"/>
<circle cx="422.82" cy="104.30" r="2.5" class="obs"/>
<line x1="462.16" y1="99.27" x2="462.16" y2="109.34" class="err"/>
<line x1="459.16" y1="99.27" x2="465.16" y2="99.27" class="err"/>
<line x1="459.16" y1="109.34" x2="465.16" y2="109.34" class="err"/>
<circle cx="462.16" cy="104.30" r="2.5" class="obs"/>
<line x1="500.88" y1="98.59" x2="500.88" y2="110.02" class="err"/>
<line x1="497.88" y1="98.59" x2="503.88" y2="98.59" class="err"/>
<line x1="497.88" y1="110.02" x2="503.88" y2="110.02" class="err"/>
<circle cx="500.88" cy="104.30" r="2.5" class="obs"/>
<line x1="540.84" y1="101.67" x2="540.84" y2="116.96" class="err"/>
<line x1="537.84" y1="101.67" x2="543.84" y2="101.67" class="err"/>
<line x1="537.84" y1="116.96" x2="543.84" y2="116.96" class="err"/>
<circle cx="540.84" cy="109.31" r="2.5" class="obs"/>
<line x1="579.56" y1="105.08" x2="579.56" y2="123.57" class="err"/>
<line x1="576.56" y1="105.08" x2="582.56" y2="105.08" class="err"/>
<line x1="576.56" y1="123.57" x2="582.56" y2="123.57" class="err"/>
<circle cx="579.56" cy="114.33" r="2.5" class="obs"/>
<line x1="618.90" y1="109.06" x2="618.90" y2="134.62" class="err"/>
<line x1="615.90" y1="109.06" x2="621.90" y2="109.06" class="err"/>
<line x1="615.90" y1="134.62" x2="621.90" y2="134.62" class="err"/>
<circle cx="618.90" cy="121.84" r="2.5" class="obs"/>
<line x1="657.62" y1="110.84" x2="657.62" y2="142.87" class="err"/>
<line x1="654.62" y1="110.84" x2="660.62" y2="110.84" class="err"/>
<line x1="654.62" y1="142.87" x2="660.62" y2="142.87" class="err"/>
<circle cx="657.62" cy="126.86" r="2.5" class="obs"/>
<g class="legend">
<line x1="82" y1="69" x2="106" y2="69" class="fw"/>
<text x="112" y="73" class="lbl-l">framework: 3.1 km/s, 4.7%, 0.96σ</text>
<line x1="82" y1="87" x2="106" y2="87" class="nt"/>
<text x="112" y="91" class="lbl-l">Newtonian: 9.0 km/s, 14.4%, 2.55σ</text>
<line x1="82" y1="105" x2="106" y2="105" class="mond"/>
<text x="112" y="109" class="lbl-m">MOND/RAR: 15.2 km/s, 15.3%, 5.48σ</text>
<circle cx="94" cy="123" r="2.5" class="obs"/>
<text x="112" y="127" class="lbl">observed V±err</text>
</g>
<g class="legend">
<line x1="472" y1="69" x2="496" y2="69" class="rho"/>
<text x="502" y="73" class="lbl-r">ρ(r) raw</text>
<line x1="472" y1="87" x2="496" y2="87" class="phot"/>
<text x="502" y="91" class="lbl-p">photometric baryonic profile</text>
<line x1="472" y1="105" x2="496" y2="105" class="mbar"/>
<text x="502" y="109" class="lbl-m">MOND baryonic annulus</text>
<line x1="472" y1="123" x2="496" y2="123" class="mph"/>
<text x="502" y="127" class="lbl-m">MOND phantom annulus</text>
<text x="472" y="147" class="lbl-r">ρ peak: 213 M☉/pc²</text>
<text x="472" y="163" class="lbl-p">phot peak: 95.45 (arb.)</text>
<text x="472" y="179" class="lbl-m">Σbar peak: 67.11 M☉/pc²</text>
<text x="472" y="195" class="lbl-m">Σphantom peak: 105.00 M☉/pc²</text>
</g>
<rect x="775" y="55" width="170" height="170" class="preview-bg"/>
<defs><radialGradient id="g_UGC05986" cx="0.5" cy="0.5" r="0.5">
  <stop offset="0.0000" stop-color="rgb(95,95,95)"/>
  <stop offset="0.0313" stop-color="rgb(95,95,95)"/>
  <stop offset="0.0625" stop-color="rgb(95,95,95)"/>
  <stop offset="0.0938" stop-color="rgb(95,95,95)"/>
  <stop offset="0.1250" stop-color="rgb(93,93,93)"/>
  <stop offset="0.1563" stop-color="rgb(91,91,91)"/>
  <stop offset="0.1875" stop-color="rgb(88,88,88)"/>
  <stop offset="0.2188" stop-color="rgb(86,86,86)"/>
  <stop offset="0.2500" stop-color="rgb(86,86,86)"/>
  <stop offset="0.2813" stop-color="rgb(85,85,85)"/>
  <stop offset="0.3125" stop-color="rgb(84,84,84)"/>
  <stop offset="0.3438" stop-color="rgb(83,83,83)"/>
  <stop offset="0.3750" stop-color="rgb(82,82,82)"/>
  <stop offset="0.4063" stop-color="rgb(80,80,80)"/>
  <stop offset="0.4375" stop-color="rgb(79,79,79)"/>
  <stop offset="0.4688" stop-color="rgb(78,78,78)"/>
  <stop offset="0.5000" stop-color="rgb(76,76,76)"/>
  <stop offset="0.5313" stop-color="rgb(75,75,75)"/>
  <stop offset="0.5625" stop-color="rgb(74,74,74)"/>
  <stop offset="0.5938" stop-color="rgb(72,72,72)"/>
  <stop offset="0.6250" stop-color="rgb(71,71,71)"/>
  <stop offset="0.6563" stop-color="rgb(70,70,70)"/>
  <stop offset="0.6875" stop-color="rgb(68,68,68)"/>
  <stop offset="0.7188" stop-color="rgb(67,67,67)"/>
  <stop offset="0.7500" stop-color="rgb(66,66,66)"/>
  <stop offset="0.7813" stop-color="rgb(65,65,65)"/>
  <stop offset="0.8125" stop-color="rgb(63,63,63)"/>
  <stop offset="0.8438" stop-color="rgb(60,60,60)"/>
  <stop offset="0.8750" stop-color="rgb(56,56,56)"/>
  <stop offset="0.9063" stop-color="rgb(53,53,53)"/>
  <stop offset="0.9375" stop-color="rgb(50,50,50)"/>
  <stop offset="0.9688" stop-color="rgb(47,47,47)"/>
  <stop offset="1.0000" stop-color="rgb(0,0,0)"/>
</radialGradient></defs>
<circle cx="860" cy="140" r="81" fill="url(#g_UGC05986)"/>
<text x="860" y="49" text-anchor="middle" class="preview-lbl">face-on luminance from ρ(r)</text>
<text x="860" y="239" text-anchor="middle" class="preview-lbl">edge at r = 9.4 kpc</text>
</svg>