<svg xmlns="http://www.w3.org/2000/svg" viewBox="0 0 890 420" width="890" height="420" font-family="sans-serif" font-size="12">
<style>
  .ax { stroke: #333; stroke-width: 1; fill: none; }
  .grid { stroke: #ddd; stroke-width: 0.5; fill: none; }
  .lbl { fill: #333; }
  .lbl-l { fill: #0066cc; }
  .lbl-r { fill: #b03030; }
  .lbl-s { fill: #cc7000; }
  .obs { fill: #222; }
  .err { stroke: #555; stroke-width: 0.8; fill: none; }
  .fw { stroke: #0066cc; stroke-width: 2.2; fill: none; }
  .nt { stroke: #cc6600; stroke-width: 1.6; fill: none; stroke-dasharray: 5,3; }
  .rho { stroke: #b03030; stroke-width: 2.0; fill: none; }
  .sig { stroke: #cc7000; stroke-width: 1.8; fill: none; }
  .title { fill: #111; font-size: 16px; font-weight: 600; }
  .subtitle { fill: #555; font-size: 11px; }
  .legend { font-size: 11px; }
  .preview-bg { fill: #000; }
  .preview-lbl { fill: #888; font-size: 10px; }
</style>
<text x="343.5" y="22" text-anchor="middle" class="title">UGC07559</text>
<text x="343.5" y="38" text-anchor="middle" class="subtitle">rMax=2.5 kpc, N=7, RMS=0.5 km/s (2.0%), amp=104</text>
<line x1="70" y1="365.0" x2="617" y2="365.0" class="grid"/>
<text x="64" y="369.0" text-anchor="end" class="lbl-l">0</text>
<line x1="70" y1="303.0" x2="617" y2="303.0" class="grid"/>
<text x="64" y="307.0" text-anchor="end" class="lbl-l">8</text>
<line x1="70" y1="241.00000000000003" x2="617" y2="241.00000000000003" class="grid"/>
<text x="64" y="245.00000000000003" text-anchor="end" class="lbl-l">16</text>
<line x1="70" y1="179.0" x2="617" y2="179.0" class="grid"/>
<text x="64" y="183.0" text-anchor="end" class="lbl-l">23</text>
<line x1="70" y1="117.00000000000003" x2="617" y2="117.00000000000003" class="grid"/>
<text x="64" y="121.00000000000003" text-anchor="end" class="lbl-l">31</text>
<line x1="70" y1="55.0" x2="617" y2="55.0" class="grid"/>
<text x="64" y="59.0" text-anchor="end" class="lbl-l">39</text>
<text x="623" y="369.0" text-anchor="start" class="lbl-r">0.0</text>
<text x="623" y="327.6666666666667" text-anchor="start" class="lbl-r">0.2</text>
<text x="623" y="286.33333333333337" text-anchor="start" class="lbl-r">0.4</text>
<text x="623" y="245.00000000000003" text-anchor="start" class="lbl-r">0.6</text>
<text x="623" y="203.66666666666666" text-anchor="start" class="lbl-r">0.8</text>
<text x="623" y="162.33333333333334" text-anchor="start" class="lbl-r">1.0</text>
<line x1="70.0" y1="55" x2="70.0" y2="365" class="grid"/>
<text x="70.0" y="381" text-anchor="middle" class="lbl">0.0</text>
<line x1="161.16666666666666" y1="55" x2="161.16666666666666" y2="365" class="grid"/>
<text x="161.16666666666666" y="381" text-anchor="middle" class="lbl">0.4</text>
<line x1="252.33333333333331" y1="55" x2="252.33333333333331" y2="365" class="grid"/>
<text x="252.33333333333331" y="381" text-anchor="middle" class="lbl">0.9</text>
<line x1="343.5" y1="55" x2="343.5" y2="365" class="grid"/>
<text x="343.5" y="381" text-anchor="middle" class="lbl">1.3</text>
<line x1="434.66666666666663" y1="55" x2="434.66666666666663" y2="365" class="grid"/>
<text x="434.66666666666663" y="381" text-anchor="middle" class="lbl">1.8</text>
<line x1="525.8333333333334" y1="55" x2="525.8333333333334" y2="365" class="grid"/>
<text x="525.8333333333334" y="381" text-anchor="middle" class="lbl">2.2</text>
<line x1="617.0" y1="55" x2="617.0" y2="365" class="grid"/>
<text x="617.0" y="381" text-anchor="middle" class="lbl">2.7</text>
<text x="343.5" y="397" text-anchor="middle" class="lbl">radius (kpc)</text>
<text x="16" y="210.0" text-anchor="middle" class="lbl-l" transform="rotate(-90, 16, 210.0)">velocity (km/s)</text>
<text x="661" y="210.0" text-anchor="middle" class="lbl-r" transform="rotate(-90, 661, 210.0)">mass profile (normalized to peak)</text>
<rect x="70" y="55" width="547" height="310" class="ax"/>
<path d="M 70.0,158.3 L 72.5,159.4 L 75.0,160.4 L 77.5,161.4 L 80.0,162.5 L 82.5,163.5 L 85.0,164.5 L 87.5,165.6 L 90.0,166.6 L 92.5,167.6 L 95.0,168.7 L 97.5,169.7 L 100.0,170.5 L 102.5,170.5 L 105.0,170.5 L 107.5,170.5 L 110.0,170.5 L 112.5,170.5 L 115.0,170.5 L 117.5,170.5 L 120.0,170.5 L 122.5,170.5 L 124.9,170.5 L 127.4,170.5 L 129.9,170.5 L 132.4,170.5 L 134.9,170.7 L 137.4,171.1 L 139.9,171.5 L 142.4,171.9 L 144.9,172.3 L 147.4,172.7 L 149.9,173.1 L 152.4,173.5 L 154.9,174.0 L 157.4,174.4 L 159.9,174.8 L 162.4,175.2 L 164.9,175.6 L 167.4,176.0 L 169.9,176.4 L 172.4,176.8 L 174.9,177.3 L 177.4,177.7 L 179.9,178.1 L 182.4,178.5 L 184.9,178.9 L 187.4,179.3 L 189.9,179.7 L 192.4,180.2 L 194.9,180.6 L 197.4,181.0 L 199.9,181.4 L 202.4,181.8 L 204.9,182.2 L 207.4,182.6 L 209.9,183.0 L 212.4,183.5 L 214.9,183.9 L 217.4,184.3 L 219.9,184.7 L 222.4,185.1 L 224.9,185.5 L 227.4,185.9 L 229.9,186.4 L 232.4,186.8 L 234.8,187.2 L 237.3,187.6 L 239.8,188.0 L 242.3,188.4 L 244.8,188.8 L 247.3,189.2 L 249.8,189.7 L 252.3,190.1 L 254.8,190.5 L 257.3,190.9 L 259.8,191.3 L 262.3,191.7 L 264.8,192.1 L 267.3,192.6 L 269.8,193.0 L 272.3,193.4 L 274.8,193.8 L 277.3,194.2 L 279.8,194.6 L 282.3,195.0 L 284.8,195.4 L 287.3,195.9 L 289.8,196.3 L 292.3,196.7 L 294.8,197.1 L 297.3,197.5 L 299.8,197.9 L 302.3,198.3 L 304.8,198.7 L 307.3,199.2 L 309.8,199.6 L 312.3,200.0 L 314.8,200.4 L 317.3,200.8 L 319.8,201.2 L 322.3,201.6 L 324.8,202.1 L 327.3,202.5 L 329.8,202.9 L 332.3,203.3 L 334.8,203.7 L 337.3,204.1 L 339.8,204.5 L 342.3,204.9 L 344.7,205.4 L 347.2,205.8 L 349.7,206.2 L 352.2,206.6 L 354.7,207.0 L 357.2,207.4 L 359.7,207.8 L 362.2,208.3 L 364.7,208.7 L 367.2,209.3 L 369.7,210.0 L 372.2,210.8 L 374.7,211.5 L 377.2,212.2 L 379.7,212.9 L 382.2,213.6 L 384.7,214.3 L 387.2,215.0 L 389.7,215.7 L 392.2,216.4 L 394.7,217.1 L 397.2,217.8 L 399.7,218.5 L 402.2,219.2 L 404.7,220.0 L 407.2,220.7 L 409.7,221.4 L 412.2,222.1 L 414.7,222.8 L 417.2,223.5 L 419.7,224.2 L 422.2,224.9 L 424.7,225.6 L 427.2,226.3 L 429.7,227.0 L 432.2,227.7 L 434.7,228.4 L 437.2,229.2 L 439.7,229.9 L 442.2,230.6 L 444.7,231.3 L 447.2,232.0 L 449.7,232.7 L 452.2,233.4 L 454.6,234.1 L 457.1,234.8 L 459.6,235.5 L 462.1,236.2 L 464.6,236.9 L 467.1,237.6 L 469.6,238.4 L 472.1,239.1 L 474.6,239.8 L 477.1,240.5 L 479.6,241.2 L 482.1,241.9 L 484.6,242.6 L 487.1,243.3 L 489.6,244.0 L 492.1,244.7 L 494.6,245.4 L 497.1,246.1 L 499.6,246.8 L 502.1,247.6 L 504.6,248.3 L 507.1,249.0 L 509.6,249.7 L 512.1,250.4 L 514.6,251.1 L 517.1,251.8 L 519.6,252.5 L 522.1,253.2 L 524.6,253.9 L 527.1,254.6 L 529.6,255.3 L 532.1,256.0 L 534.6,256.8 L 537.1,257.5 L 539.6,258.2 L 542.1,258.9 L 544.6,259.6 L 547.1,260.3 L 549.6,261.0 L 552.1,261.7 L 554.6,262.4 L 557.1,263.1 L 559.6,263.8 L 562.1,264.5 L 564.5,265.2 L 567.0,266.0 L 569.5,266.7 L 572.0,276.0 L 574.5,287.8 L 577.0,299.5 L 579.5,311.3 L 582.0,323.0 L 584.5,334.8 L 587.0,346.5 L 589.5,358.3 L 592.0,365.0 L 594.5,365.0 L 597.0,365.0 L 599.5,365.0 L 602.0,365.0 L 604.5,365.0 L 607.0,365.0 L 609.5,365.0 L 612.0,365.0 L 614.5,365.0 L 617.0,365.0" class="rho"/>
<path d="M 70.0,158.3 L 72.5,158.4 L 75.0,158.4 L 77.5,158.5 L 80.0,158.6 L 82.5,158.7 L 85.0,158.9 L 87.5,159.0 L 90.0,159.2 L 92.5,159.4 L 95.0,159.6 L 97.5,159.9 L 100.0,160.1 L 102.5,160.4 L 105.0,160.6 L 107.5,160.9 L 110.0,161.2 L 112.5,161.5 L 115.0,161.8 L 117.5,162.2 L 120.0,162.5 L 122.5,162.9 L 124.9,163.3 L 127.4,163.7 L 129.9,164.1 L 132.4,164.5 L 134.9,165.0 L 137.4,165.4 L 139.9,165.9 L 142.4,166.4 L 144.9,166.9 L 147.4,167.4 L 149.9,168.0 L 152.4,168.5 L 154.9,169.1 L 157.4,169.7 L 159.9,170.3 L 162.4,170.9 L 164.9,171.5 L 167.4,172.1 L 169.9,172.7 L 172.4,173.4 L 174.9,174.0 L 177.4,174.7 L 179.9,175.4 L 182.4,176.1 L 184.9,176.8 L 187.4,177.5 L 189.9,178.2 L 192.4,178.9 L 194.9,179.6 L 197.4,180.3 L 199.9,181.1 L 202.4,181.8 L 204.9,182.6 L 207.4,183.3 L 209.9,184.1 L 212.4,184.8 L 214.9,185.6 L 217.4,186.4 L 219.9,187.2 L 222.4,188.0 L 224.9,188.7 L 227.4,189.5 L 229.9,190.3 L 232.4,191.1 L 234.8,192.0 L 237.3,192.8 L 239.8,193.6 L 242.3,194.4 L 244.8,195.2 L 247.3,196.1 L 249.8,196.9 L 252.3,197.7 L 254.8,198.6 L 257.3,199.4 L 259.8,200.2 L 262.3,201.1 L 264.8,201.9 L 267.3,202.8 L 269.8,203.6 L 272.3,204.5 L 274.8,205.4 L 277.3,206.2 L 279.8,207.1 L 282.3,208.0 L 284.8,208.8 L 287.3,209.7 L 289.8,210.6 L 292.3,211.5 L 294.8,212.4 L 297.3,213.3 L 299.8,214.1 L 302.3,215.0 L 304.8,215.9 L 307.3,216.8 L 309.8,217.7 L 312.3,218.6 L 314.8,219.5 L 317.3,220.5 L 319.8,221.4 L 322.3,222.3 L 324.8,223.2 L 327.3,224.1 L 329.8,225.1 L 332.3,226.0 L 334.8,226.9 L 337.3,227.9 L 339.8,228.8 L 342.3,229.8 L 344.7,230.7 L 347.2,231.7 L 349.7,232.6 L 352.2,233.6 L 354.7,234.6 L 357.2,235.6 L 359.7,236.5 L 362.2,237.5 L 364.7,238.5 L 367.2,239.5 L 369.7,240.5 L 372.2,241.6 L 374.7,242.6 L 377.2,243.6 L 379.7,244.6 L 382.2,245.6 L 384.7,246.7 L 387.2,247.7 L 389.7,248.8 L 392.2,249.8 L 394.7,250.8 L 397.2,251.9 L 399.7,252.9 L 402.2,254.0 L 404.7,255.0 L 407.2,256.0 L 409.7,257.1 L 412.2,258.1 L 414.7,259.2 L 417.2,260.2 L 419.7,261.3 L 422.2,262.3 L 424.7,263.3 L 427.2,264.4 L 429.7,265.4 L 432.2,266.4 L 434.7,267.4 L 437.2,268.5 L 439.7,269.5 L 442.2,270.5 L 444.7,271.5 L 447.2,272.5 L 449.7,273.6 L 452.2,274.6 L 454.6,275.6 L 457.1,276.6 L 459.6,277.6 L 462.1,278.6 L 464.6,279.6 L 467.1,280.5 L 469.6,281.5 L 472.1,282.5 L 474.6,283.5 L 477.1,284.5 L 479.6,285.4 L 482.1,286.4 L 484.6,287.4 L 487.1,288.3 L 489.6,289.3 L 492.1,290.2 L 494.6,291.2 L 497.1,292.2 L 499.6,293.1 L 502.1,294.0 L 504.6,295.0 L 507.1,295.9 L 509.6,296.9 L 512.1,297.8 L 514.6,298.8 L 517.1,299.7 L 519.6,300.6 L 522.1,301.6 L 524.6,302.5 L 527.1,303.5 L 529.6,304.4 L 532.1,305.3 L 534.6,306.3 L 537.1,307.2 L 539.6,308.2 L 542.1,309.2 L 544.6,310.1 L 547.1,311.1 L 549.6,312.1 L 552.1,313.1 L 554.6,314.1 L 557.1,315.1 L 559.6,316.1 L 562.1,317.1 L 564.5,318.1 L 567.0,319.2 L 569.5,320.2 L 572.0,321.2 L 574.5,322.2 L 577.0,323.3 L 579.5,324.2 L 582.0,325.2 L 584.5,326.1 L 587.0,327.1 L 589.5,327.9 L 592.0,328.8 L 594.5,329.6 L 597.0,330.4 L 599.5,331.1 L 602.0,331.8 L 604.5,332.5 L 607.0,333.2 L 609.5,333.8 L 612.0,334.4 L 614.5,335.0 L 617.0,335.5" class="sig"/>
<path d="M 75.5,334.4 L 80.9,321.9 L 86.4,312.4 L 91.9,304.5 L 97.3,297.6 L 102.8,291.4 L 108.3,285.7 L 113.8,280.3 L 119.2,275.3 L 124.7,270.5 L 130.2,265.9 L 135.6,261.6 L 141.1,257.4 L 146.6,253.4 L 152.1,249.6 L 157.5,245.9 L 163.0,242.4 L 168.5,239.0 L 173.9,235.7 L 179.4,232.5 L 184.9,229.5 L 190.3,226.5 L 195.8,223.5 L 201.3,220.7 L 206.8,218.0 L 212.2,215.3 L 217.7,212.6 L 223.2,210.1 L 228.6,207.6 L 234.1,205.1 L 239.6,202.7 L 245.0,200.4 L 250.5,198.1 L 256.0,195.9 L 261.4,193.7 L 266.9,191.5 L 272.4,189.4 L 277.9,187.3 L 283.3,185.3 L 288.8,183.3 L 294.3,181.4 L 299.7,179.4 L 305.2,177.6 L 310.7,175.7 L 316.1,173.9 L 321.6,172.1 L 327.1,170.3 L 332.6,168.6 L 338.0,166.9 L 343.5,165.2 L 349.0,163.6 L 354.4,162.0 L 359.9,160.4 L 365.4,158.8 L 370.9,157.3 L 376.3,155.8 L 381.8,154.4 L 387.3,152.9 L 392.7,151.5 L 398.2,150.2 L 403.7,148.9 L 409.1,147.6 L 414.6,146.3 L 420.1,145.1 L 425.6,143.9 L 431.0,142.8 L 436.5,141.7 L 442.0,140.6 L 447.4,139.5 L 452.9,138.4 L 458.4,137.4 L 463.8,136.4 L 469.3,135.5 L 474.8,134.5 L 480.3,133.6 L 485.7,132.7 L 491.2,131.9 L 496.7,131.0 L 502.1,130.2 L 507.6,129.4 L 513.1,128.7 L 518.5,127.9 L 524.0,127.2 L 529.5,126.5 L 535.0,125.9 L 540.4,125.2 L 545.9,124.6 L 551.4,124.0 L 556.8,123.4 L 562.3,122.9 L 567.8,122.3 L 573.2,121.9 L 578.7,121.9 L 584.2,122.3 L 589.6,123.2 L 595.1,124.5 L 600.6,125.7 L 606.1,127.0 L 611.5,128.2 L 617.0,129.4" class="nt"/>
<path d="M 74.6,358.3 L 79.1,353.3 L 83.7,348.0 L 88.2,343.0 L 92.8,338.3 L 97.3,334.0 L 101.9,329.8 L 106.5,325.8 L 111.0,321.8 L 115.6,317.7 L 120.1,313.4 L 124.7,309.1 L 129.3,304.7 L 133.8,300.2 L 138.4,295.7 L 142.9,291.3 L 147.5,287.0 L 152.1,282.8 L 156.6,278.8 L 161.2,274.8 L 165.7,271.1 L 170.3,267.4 L 174.8,263.8 L 179.4,260.4 L 184.0,257.0 L 188.5,253.8 L 193.1,250.6 L 197.6,247.5 L 202.2,244.5 L 206.8,241.5 L 211.3,238.6 L 215.9,235.8 L 220.4,233.0 L 225.0,230.3 L 229.5,227.7 L 234.1,225.0 L 238.7,222.5 L 243.2,220.0 L 247.8,217.5 L 252.3,215.0 L 256.9,212.6 L 261.5,210.2 L 266.0,207.9 L 270.6,205.6 L 275.1,203.3 L 279.7,201.0 L 284.2,198.7 L 288.8,196.5 L 293.4,194.2 L 297.9,192.0 L 302.5,189.8 L 307.0,187.5 L 311.6,185.3 L 316.2,183.0 L 320.7,180.7 L 325.3,178.4 L 329.8,176.1 L 334.4,173.7 L 338.9,171.3 L 343.5,168.8 L 348.1,166.2 L 352.6,163.6 L 357.2,160.9 L 361.7,158.3 L 366.3,155.6 L 370.9,153.0 L 375.4,150.5 L 380.0,148.2 L 384.5,146.0 L 389.1,143.9 L 393.6,142.0 L 398.2,140.3 L 402.8,138.6 L 407.3,137.1 L 411.9,135.7 L 416.4,134.4 L 421.0,133.2 L 425.6,132.0 L 430.1,131.0 L 434.7,130.0 L 439.2,129.1 L 443.8,128.2 L 448.3,127.4 L 452.9,126.6 L 457.5,125.9 L 462.0,125.2 L 466.6,124.6 L 471.1,123.9 L 475.7,123.3 L 480.2,122.6 L 484.8,122.0 L 489.4,121.4 L 493.9,120.7 L 498.5,119.9 L 503.0,119.1 L 507.6,118.2 L 512.2,117.3 L 516.7,116.1 L 521.3,114.8 L 525.8,113.3 L 530.4,111.6 L 535.0,109.6 L 539.5,107.2 L 544.1,104.5 L 548.6,101.5 L 553.2,98.2 L 557.7,95.0 L 562.3,92.3 L 566.9,90.4 L 571.4,90.1 L 576.0,91.7 L 580.5,95.3 L 585.1,101.0 L 589.6,108.1 L 594.2,116.3 L 598.8,124.8 L 603.3,133.2 L 607.9,141.4 L 612.4,149.0 L 617.0,156.0" class="fw"/>
<line x1="143.1410913356763" y1="264.9716954429663" x2="143.1410913356763" y2="316.5014280935594" class="err"/>
<line x1="140.1410913356763" y1="264.9716954429663" x2="146.1410913356763" y2="264.9716954429663" class="err"/>
<line x1="140.1410913356763" y1="316.5014280935594" x2="146.1410913356763" y2="316.5014280935594" class="err"/>
<circle cx="143.1410913356763" cy="290.73656176826285" r="2.5" class="obs"/>
<line x1="216.2821826713526" y1="212.40498674832105" x2="216.2821826713526" y2="263.9347193989141" class="err"/>
<line x1="213.2821826713526" y1="212.40498674832105" x2="219.2821826713526" y2="212.40498674832105" class="err"/>
<line x1="213.2821826713526" y1="263.9347193989141" x2="219.2821826713526" y2="263.9347193989141" class="err"/>
<circle cx="216.2821826713526" cy="238.16985307361756" r="2.5" class="obs"/>
<line x1="289.4232740070289" y1="168.53292334611325" x2="289.4232740070289" y2="220.0626559967064" class="err"/>
<line x1="286.4232740070289" y1="168.53292334611325" x2="292.4232740070289" y2="168.53292334611325" class="err"/>
<line x1="286.4232740070289" y1="220.0626559967064" x2="292.4232740070289" y2="220.0626559967064" class="err"/>
<circle cx="289.4232740070289" cy="194.29778967140984" r="2.5" class="obs"/>
<line x1="364.59606232425176" y1="131.04225098422665" x2="364.59606232425176" y2="182.57198363481973" class="err"/>
<line x1="361.59606232425176" y1="131.04225098422665" x2="367.59606232425176" y2="131.04225098422665" class="err"/>
<line x1="361.59606232425176" y1="182.57198363481973" x2="367.59606232425176" y2="182.57198363481973" class="err"/>
<circle cx="364.59606232425176" cy="156.80711730952316" r="2.5" class="obs"/>
<line x1="435.7054566783815" y1="102.32599130278155" x2="435.7054566783815" y2="153.8557239533747" class="err"/>
<line x1="432.7054566783815" y1="102.32599130278155" x2="438.7054566783815" y2="102.32599130278155" class="err"/>
<line x1="432.7054566783815" y1="153.8557239533747" x2="438.7054566783815" y2="153.8557239533747" class="err"/>
<circle cx="435.7054566783815" cy="128.09085762807814" r="2.5" class="obs"/>
<line x1="510.87824499560435" y1="91.15855698221961" x2="510.87824499560435" y2="142.68828963281268" class="err"/>
<line x1="507.87824499560435" y1="91.15855698221961" x2="513.8782449956043" y2="91.15855698221961" class="err"/>
<line x1="507.87824499560435" y1="142.68828963281268" x2="513.8782449956043" y2="142.68828963281268" class="err"/>
<circle cx="510.87824499560435" cy="116.92342330751612" r="2.5" class="obs"/>
<line x1="584.0193363312806" y1="83.18181818181819" x2="584.0193363312806" y2="134.71155083241126" class="err"/>
<line x1="581.0193363312806" y1="83.18181818181819" x2="587.0193363312806" y2="83.18181818181819" class="err"/>
<line x1="581.0193363312806" y1="134.71155083241126" x2="587.0193363312806" y2="134.71155083241126" class="err"/>
<circle cx="584.0193363312806" cy="108.94668450711472" r="2.5" class="obs"/>
<g class="legend">
<line x1="82" y1="69" x2="106" y2="69" class="fw"/>
<text x="112" y="73" class="lbl-l">framework fit</text>
<line x1="82" y1="87" x2="106" y2="87" class="nt"/>
<text x="112" y="91" class="lbl-l">Newtonian (no halo)</text>
<circle cx="94" cy="105" r="2.5" class="obs"/>
<text x="112" y="109" class="lbl">observed V±err</text>
</g>
<g class="legend">
<line x1="472" y1="69" x2="496" y2="69" class="rho"/>
<text x="502" y="73" class="lbl-r">ρ(r) raw</text>
<line x1="472" y1="87" x2="496" y2="87" class="sig"/>
<text x="502" y="91" class="lbl-s">Σ(r) cumulative</text>
<text x="472" y="113" class="lbl-r">ρ peak: 41 M☉/pc²</text>
</g>
<rect x="705" y="55" width="170" height="170" class="preview-bg"/>
<defs><radialGradient id="g_UGC07559" cx="0.5" cy="0.5" r="0.5">
  <stop offset="0.0000" stop-color="rgb(25,25,25)"/>
  <stop offset="0.0312" stop-color="rgb(25,25,25)"/>
  <stop offset="0.0625" stop-color="rgb(24,24,24)"/>
  <stop offset="0.0938" stop-color="rgb(24,24,24)"/>
  <stop offset="0.1250" stop-color="rgb(24,24,24)"/>
  <stop offset="0.1562" stop-color="rgb(24,24,24)"/>
  <stop offset="0.1875" stop-color="rgb(23,23,23)"/>
  <stop offset="0.2188" stop-color="rgb(23,23,23)"/>
  <stop offset="0.2500" stop-color="rgb(23,23,23)"/>
  <stop offset="0.2812" stop-color="rgb(22,22,22)"/>
  <stop offset="0.3125" stop-color="rgb(22,22,22)"/>
  <stop offset="0.3438" stop-color="rgb(22,22,22)"/>
  <stop offset="0.3750" stop-color="rgb(21,21,21)"/>
  <stop offset="0.4062" stop-color="rgb(21,21,21)"/>
  <stop offset="0.4375" stop-color="rgb(21,21,21)"/>
  <stop offset="0.4688" stop-color="rgb(20,20,20)"/>
  <stop offset="0.5000" stop-color="rgb(20,20,20)"/>
  <stop offset="0.5312" stop-color="rgb(20,20,20)"/>
  <stop offset="0.5625" stop-color="rgb(19,19,19)"/>
  <stop offset="0.5938" stop-color="rgb(19,19,19)"/>
  <stop offset="0.6250" stop-color="rgb(18,18,18)"/>
  <stop offset="0.6562" stop-color="rgb(17,17,17)"/>
  <stop offset="0.6875" stop-color="rgb(17,17,17)"/>
  <stop offset="0.7188" stop-color="rgb(16,16,16)"/>
  <stop offset="0.7500" stop-color="rgb(16,16,16)"/>
  <stop offset="0.7812" stop-color="rgb(15,15,15)"/>
  <stop offset="0.8125" stop-color="rgb(15,15,15)"/>
  <stop offset="0.8438" stop-color="rgb(14,14,14)"/>
  <stop offset="0.8750" stop-color="rgb(13,13,13)"/>
  <stop offset="0.9062" stop-color="rgb(13,13,13)"/>
  <stop offset="0.9375" stop-color="rgb(12,12,12)"/>
  <stop offset="0.9688" stop-color="rgb(9,9,9)"/>
  <stop offset="1.0000" stop-color="rgb(0,0,0)"/>
</radialGradient></defs>
<circle cx="790.0" cy="140.0" r="81.0" fill="url(#g_UGC07559)"/>
<text x="790.0" y="49" text-anchor="middle" class="preview-lbl">face-on luminance from ρ(r)</text>
<text x="790.0" y="239" text-anchor="middle" class="preview-lbl">edge at r = 2.6 kpc</text>
</svg>