<svg xmlns="http://www.w3.org/2000/svg" viewBox="0 0 890 420" width="890" height="420" font-family="sans-serif" font-size="12">
<style>
  .ax { stroke: #333; stroke-width: 1; fill: none; }
  .grid { stroke: #ddd; stroke-width: 0.5; fill: none; }
  .lbl { fill: #333; }
  .lbl-l { fill: #0066cc; }
  .lbl-r { fill: #b03030; }
  .obs { fill: #222; }
  .err { stroke: #555; stroke-width: 0.8; fill: none; }
  .fw { stroke: #0066cc; stroke-width: 2.2; fill: none; }
  .nt { stroke: #cc6600; stroke-width: 1.6; fill: none; stroke-dasharray: 5,3; }
  .lbl-s { fill: #cc7000; }
  .rho { stroke: #b03030; stroke-width: 2.0; fill: none; }
  .sig { stroke: #cc7000; stroke-width: 1.8; fill: none; }
  .title { fill: #111; font-size: 16px; font-weight: 600; }
  .subtitle { fill: #555; font-size: 11px; }
  .preview-bg { fill: #000; }
  .preview-lbl { fill: #888; font-size: 10px; }
  .legend { font-size: 11px; }
</style>
<text x="343.5" y="22" text-anchor="middle" class="title">UGC08286</text>
<text x="343.5" y="38" text-anchor="middle" class="subtitle">rMax=8.0 kpc, N=17, RMS=0.5 km/s (0.7%), amp=105</text>
<line x1="70" y1="365.0" x2="617" y2="365.0" class="grid"/>
<text x="64" y="369.0" text-anchor="end" class="lbl-l">0</text>
<line x1="70" y1="303.0" x2="617" y2="303.0" class="grid"/>
<text x="64" y="307.0" text-anchor="end" class="lbl-l">20</text>
<line x1="70" y1="241.0" x2="617" y2="241.0" class="grid"/>
<text x="64" y="245.0" text-anchor="end" class="lbl-l">40</text>
<line x1="70" y1="179.0" x2="617" y2="179.0" class="grid"/>
<text x="64" y="183.0" text-anchor="end" class="lbl-l">60</text>
<line x1="70" y1="117.0" x2="617" y2="117.0" class="grid"/>
<text x="64" y="121.0" text-anchor="end" class="lbl-l">79</text>
<line x1="70" y1="55.0" x2="617" y2="55.0" class="grid"/>
<text x="64" y="59.0" text-anchor="end" class="lbl-l">99</text>
<text x="623" y="369.0" text-anchor="start" class="lbl-r">0.0</text>
<text x="623" y="327.7" text-anchor="start" class="lbl-r">0.2</text>
<text x="623" y="286.3" text-anchor="start" class="lbl-r">0.4</text>
<text x="623" y="245.0" text-anchor="start" class="lbl-r">0.6</text>
<text x="623" y="203.7" text-anchor="start" class="lbl-r">0.8</text>
<text x="623" y="162.3" text-anchor="start" class="lbl-r">1.0</text>
<line x1="70.0" y1="55" x2="70.0" y2="365" class="grid"/>
<text x="70.0" y="381" text-anchor="middle" class="lbl">0.0</text>
<line x1="161.2" y1="55" x2="161.2" y2="365" class="grid"/>
<text x="161.2" y="381" text-anchor="middle" class="lbl">1.5</text>
<line x1="252.3" y1="55" x2="252.3" y2="365" class="grid"/>
<text x="252.3" y="381" text-anchor="middle" class="lbl">3.1</text>
<line x1="343.5" y1="55" x2="343.5" y2="365" class="grid"/>
<text x="343.5" y="381" text-anchor="middle" class="lbl">4.6</text>
<line x1="434.7" y1="55" x2="434.7" y2="365" class="grid"/>
<text x="434.7" y="381" text-anchor="middle" class="lbl">6.1</text>
<line x1="525.8" y1="55" x2="525.8" y2="365" class="grid"/>
<text x="525.8" y="381" text-anchor="middle" class="lbl">7.6</text>
<line x1="617.0" y1="55" x2="617.0" y2="365" class="grid"/>
<text x="617.0" y="381" text-anchor="middle" class="lbl">9.2</text>
<text x="343.5" y="408" text-anchor="middle" class="lbl">radius (kpc)</text>
<text x="16" y="210" text-anchor="middle" class="lbl-l" transform="rotate(-90, 16, 210)">velocity (km/s)</text>
<text x="874" y="210" text-anchor="middle" class="lbl-r" transform="rotate(-90, 874, 210)">mass profile (normalized to peak)</text>
<rect x="70" y="55" width="547" height="310" class="ax"/>
<path d="M 70.0,158.3 L 72.5,161.7 L 75.0,165.1 L 77.5,168.6 L 80.0,172.0 L 82.5,173.4 L 85.0,173.5 L 87.5,173.6 L 90.0,173.7 L 92.5,173.8 L 95.0,173.9 L 97.5,174.0 L 100.0,174.1 L 102.5,174.2 L 105.0,174.3 L 107.5,174.4 L 110.0,174.5 L 112.5,174.6 L 115.0,174.6 L 117.5,174.7 L 120.0,176.4 L 122.5,178.1 L 124.9,179.8 L 127.4,181.6 L 129.9,183.3 L 132.4,185.0 L 134.9,186.7 L 137.4,188.4 L 139.9,190.1 L 142.4,191.8 L 144.9,193.5 L 147.4,195.2 L 149.9,196.9 L 152.4,198.6 L 154.9,200.3 L 157.4,202.0 L 159.9,203.7 L 162.4,205.4 L 164.9,207.1 L 167.4,208.8 L 169.9,210.5 L 172.4,212.2 L 174.9,213.9 L 177.4,215.6 L 179.9,217.3 L 182.4,219.0 L 184.9,220.7 L 187.4,222.4 L 189.9,224.1 L 192.4,225.8 L 194.9,227.5 L 197.4,229.2 L 199.9,230.9 L 202.4,232.6 L 204.9,234.3 L 207.4,236.0 L 209.9,237.2 L 212.4,237.8 L 214.9,238.3 L 217.4,238.8 L 219.9,239.3 L 222.4,239.8 L 224.9,240.4 L 227.4,240.9 L 229.9,241.4 L 232.4,241.9 L 234.8,242.4 L 237.3,243.0 L 239.8,243.5 L 242.3,244.0 L 244.8,244.5 L 247.3,245.1 L 249.8,245.6 L 252.3,246.1 L 254.8,246.6 L 257.3,247.1 L 259.8,247.7 L 262.3,248.2 L 264.8,248.7 L 267.3,249.2 L 269.8,249.7 L 272.3,250.3 L 274.8,250.8 L 277.3,251.3 L 279.8,251.8 L 282.3,252.3 L 284.8,252.9 L 287.3,253.4 L 289.8,253.9 L 292.3,254.4 L 294.8,254.9 L 297.3,255.5 L 299.8,256.0 L 302.3,256.5 L 304.8,257.0 L 307.3,257.6 L 309.8,258.1 L 312.3,258.6 L 314.8,259.1 L 317.3,259.6 L 319.8,260.2 L 322.3,260.7 L 324.8,261.2 L 327.3,261.7 L 329.8,262.2 L 332.3,262.8 L 334.8,263.3 L 337.3,263.8 L 339.8,264.3 L 342.3,264.8 L 344.7,265.4 L 347.2,265.9 L 349.7,266.4 L 352.2,266.9 L 354.7,267.4 L 357.2,268.0 L 359.7,268.5 L 362.2,269.0 L 364.7,269.5 L 367.2,270.1 L 369.7,270.6 L 372.2,271.1 L 374.7,271.6 L 377.2,272.1 L 379.7,272.7 L 382.2,273.2 L 384.7,273.7 L 387.2,274.2 L 389.7,274.7 L 392.2,275.3 L 394.7,275.8 L 397.2,276.3 L 399.7,276.8 L 402.2,277.3 L 404.7,277.9 L 407.2,278.4 L 409.7,278.9 L 412.2,279.4 L 414.7,279.9 L 417.2,280.5 L 419.7,281.0 L 422.2,281.5 L 424.7,282.0 L 427.2,282.6 L 429.7,283.1 L 432.2,283.6 L 434.7,284.1 L 437.2,284.6 L 439.7,285.2 L 442.2,285.7 L 444.7,286.2 L 447.2,286.7 L 449.7,287.2 L 452.2,287.8 L 454.6,288.3 L 457.1,288.8 L 459.6,289.3 L 462.1,289.8 L 464.6,290.4 L 467.1,290.9 L 469.6,291.4 L 472.1,291.9 L 474.6,292.4 L 477.1,293.0 L 479.6,293.5 L 482.1,294.0 L 484.6,294.5 L 487.1,295.1 L 489.6,295.6 L 492.1,296.1 L 494.6,296.6 L 497.1,297.1 L 499.6,297.7 L 502.1,298.2 L 504.6,298.7 L 507.1,299.2 L 509.6,299.7 L 512.1,300.3 L 514.6,300.8 L 517.1,301.3 L 519.6,301.8 L 522.1,302.3 L 524.6,302.9 L 527.1,303.4 L 529.6,303.9 L 532.1,304.4 L 534.6,304.9 L 537.1,305.5 L 539.6,306.0 L 542.1,306.5 L 544.6,308.1 L 547.1,311.2 L 549.6,314.2 L 552.1,317.3 L 554.6,320.4 L 557.1,323.4 L 559.6,326.5 L 562.1,329.6 L 564.5,332.6 L 567.0,335.7 L 569.5,338.7 L 572.0,341.8 L 574.5,344.9 L 577.0,347.9 L 579.5,351.0 L 582.0,354.1 L 584.5,357.1 L 587.0,360.2 L 589.5,363.2 L 592.0,365.0 L 594.5,365.0 L 597.0,365.0 L 599.5,365.0 L 602.0,365.0 L 604.5,365.0 L 607.0,365.0 L 609.5,365.0 L 612.0,365.0 L 614.5,365.0 L 617.0,365.0" class="rho"/>
<path d="M 70.0,158.3 L 72.5,158.4 L 75.0,158.5 L 77.5,158.7 L 80.0,158.9 L 82.5,159.1 L 85.0,159.4 L 87.5,159.8 L 90.0,160.2 L 92.5,160.7 L 95.0,161.2 L 97.5,161.8 L 100.0,162.5 L 102.5,163.2 L 105.0,163.9 L 107.5,164.7 L 110.0,165.6 L 112.5,166.5 L 115.0,167.5 L 117.5,168.5 L 120.0,169.6 L 122.5,170.7 L 124.9,171.9 L 127.4,173.1 L 129.9,174.4 L 132.4,175.7 L 134.9,177.0 L 137.4,178.4 L 139.9,179.8 L 142.4,181.2 L 144.9,182.7 L 147.4,184.2 L 149.9,185.7 L 152.4,187.2 L 154.9,188.8 L 157.4,190.3 L 159.9,191.9 L 162.4,193.4 L 164.9,195.0 L 167.4,196.6 L 169.9,198.2 L 172.4,199.8 L 174.9,201.3 L 177.4,202.9 L 179.9,204.5 L 182.4,206.1 L 184.9,207.6 L 187.4,209.2 L 189.9,210.7 L 192.4,212.2 L 194.9,213.7 L 197.4,215.2 L 199.9,216.7 L 202.4,218.2 L 204.9,219.6 L 207.4,221.0 L 209.9,222.4 L 212.4,223.8 L 214.9,225.1 L 217.4,226.4 L 219.9,227.7 L 222.4,229.0 L 224.9,230.3 L 227.4,231.6 L 229.9,232.8 L 232.4,234.0 L 234.8,235.2 L 237.3,236.4 L 239.8,237.6 L 242.3,238.7 L 244.8,239.9 L 247.3,241.0 L 249.8,242.1 L 252.3,243.2 L 254.8,244.4 L 257.3,245.4 L 259.8,246.5 L 262.3,247.6 L 264.8,248.7 L 267.3,249.7 L 269.8,250.8 L 272.3,251.8 L 274.8,252.8 L 277.3,253.8 L 279.8,254.9 L 282.3,255.9 L 284.8,256.9 L 287.3,257.9 L 289.8,258.8 L 292.3,259.8 L 294.8,260.8 L 297.3,261.8 L 299.8,262.7 L 302.3,263.7 L 304.8,264.6 L 307.3,265.6 L 309.8,266.5 L 312.3,267.4 L 314.8,268.4 L 317.3,269.3 L 319.8,270.2 L 322.3,271.1 L 324.8,272.0 L 327.3,272.9 L 329.8,273.8 L 332.3,274.7 L 334.8,275.6 L 337.3,276.4 L 339.8,277.3 L 342.3,278.2 L 344.7,279.0 L 347.2,279.9 L 349.7,280.7 L 352.2,281.6 L 354.7,282.4 L 357.2,283.3 L 359.7,284.1 L 362.2,284.9 L 364.7,285.7 L 367.2,286.6 L 369.7,287.4 L 372.2,288.2 L 374.7,289.0 L 377.2,289.8 L 379.7,290.6 L 382.2,291.3 L 384.7,292.1 L 387.2,292.9 L 389.7,293.7 L 392.2,294.4 L 394.7,295.2 L 397.2,296.0 L 399.7,296.7 L 402.2,297.5 L 404.7,298.2 L 407.2,299.0 L 409.7,299.7 L 412.2,300.4 L 414.7,301.1 L 417.2,301.9 L 419.7,302.6 L 422.2,303.3 L 424.7,304.0 L 427.2,304.7 L 429.7,305.4 L 432.2,306.1 L 434.7,306.8 L 437.2,307.5 L 439.7,308.2 L 442.2,308.8 L 444.7,309.5 L 447.2,310.2 L 449.7,310.8 L 452.2,311.5 L 454.6,312.2 L 457.1,312.8 L 459.6,313.5 L 462.1,314.1 L 464.6,314.7 L 467.1,315.4 L 469.6,316.0 L 472.1,316.6 L 474.6,317.2 L 477.1,317.9 L 479.6,318.5 L 482.1,319.1 L 484.6,319.7 L 487.1,320.3 L 489.6,320.9 L 492.1,321.5 L 494.6,322.1 L 497.1,322.7 L 499.6,323.3 L 502.1,323.9 L 504.6,324.5 L 507.1,325.1 L 509.6,325.6 L 512.1,326.2 L 514.6,326.8 L 517.1,327.4 L 519.6,327.9 L 522.1,328.5 L 524.6,329.1 L 527.1,329.7 L 529.6,330.2 L 532.1,330.8 L 534.6,331.4 L 537.1,332.0 L 539.6,332.5 L 542.1,333.1 L 544.6,333.7 L 547.1,334.2 L 549.6,334.8 L 552.1,335.3 L 554.6,335.9 L 557.1,336.4 L 559.6,337.0 L 562.1,337.5 L 564.5,338.0 L 567.0,338.5 L 569.5,339.0 L 572.0,339.5 L 574.5,340.0 L 577.0,340.4 L 579.5,340.8 L 582.0,341.3 L 584.5,341.7 L 587.0,342.1 L 589.5,342.5 L 592.0,342.8 L 594.5,343.2 L 597.0,343.5 L 599.5,343.9 L 602.0,344.2 L 604.5,344.5 L 607.0,344.8 L 609.5,345.1 L 612.0,345.4 L 614.5,345.7 L 617.0,345.9" class="sig"/>
<path d="M 75.5,320.4 L 80.9,302.7 L 86.4,289.3 L 91.9,277.8 L 97.3,267.7 L 102.8,258.5 L 108.3,250.1 L 113.8,242.2 L 119.2,234.8 L 124.7,228.1 L 130.2,221.8 L 135.6,216.1 L 141.1,210.7 L 146.6,205.7 L 152.1,201.0 L 157.5,196.6 L 163.0,192.4 L 168.5,188.5 L 173.9,184.9 L 179.4,181.4 L 184.9,178.1 L 190.3,175.1 L 195.8,172.2 L 201.3,169.4 L 206.8,166.9 L 212.2,164.5 L 217.7,162.1 L 223.2,159.7 L 228.6,157.4 L 234.1,155.1 L 239.6,152.9 L 245.0,150.7 L 250.5,148.5 L 256.0,146.4 L 261.5,144.3 L 266.9,142.2 L 272.4,140.2 L 277.9,138.3 L 283.3,136.3 L 288.8,134.4 L 294.3,132.6 L 299.7,130.8 L 305.2,129.0 L 310.7,127.2 L 316.1,125.5 L 321.6,123.9 L 327.1,122.2 L 332.6,120.6 L 338.0,119.1 L 343.5,117.6 L 349.0,116.1 L 354.4,114.6 L 359.9,113.2 L 365.4,111.8 L 370.8,110.5 L 376.3,109.2 L 381.8,107.9 L 387.3,106.6 L 392.7,105.4 L 398.2,104.2 L 403.7,103.1 L 409.1,101.9 L 414.6,100.8 L 420.1,99.8 L 425.6,98.7 L 431.0,97.7 L 436.5,96.8 L 442.0,95.8 L 447.4,94.9 L 452.9,94.0 L 458.4,93.2 L 463.8,92.4 L 469.3,91.6 L 474.8,90.8 L 480.3,90.1 L 485.7,89.3 L 491.2,88.7 L 496.7,88.0 L 502.1,87.4 L 507.6,86.8 L 513.1,86.2 L 518.5,85.7 L 524.0,85.1 L 529.5,84.6 L 535.0,84.2 L 540.4,83.7 L 545.9,83.3 L 551.4,83.1 L 556.8,83.1 L 562.3,83.4 L 567.8,83.8 L 573.2,84.5 L 578.7,85.3 L 584.2,86.4 L 589.6,87.7 L 595.1,89.2 L 600.6,90.6 L 606.1,92.0 L 611.5,93.4 L 617.0,94.7" class="nt"/>
<path d="M 74.6,352.2 L 79.1,342.1 L 83.7,331.1 L 88.2,320.1 L 92.8,309.1 L 97.3,298.2 L 101.9,287.1 L 106.5,276.1 L 111.0,264.9 L 115.6,254.0 L 120.1,243.2 L 124.7,232.8 L 129.3,222.9 L 133.8,213.6 L 138.4,204.8 L 142.9,196.6 L 147.5,189.0 L 152.1,182.0 L 156.6,175.5 L 161.2,169.5 L 165.7,164.0 L 170.3,159.0 L 174.8,154.6 L 179.4,150.7 L 184.0,147.3 L 188.5,144.4 L 193.1,142.1 L 197.6,140.3 L 202.2,139.0 L 206.8,138.1 L 211.3,137.5 L 215.9,137.1 L 220.4,136.8 L 225.0,136.5 L 229.5,136.0 L 234.1,135.5 L 238.7,134.9 L 243.2,134.2 L 247.8,133.5 L 252.3,132.6 L 256.9,131.8 L 261.5,130.8 L 266.0,129.9 L 270.6,128.9 L 275.1,127.9 L 279.7,126.9 L 284.2,125.9 L 288.8,124.9 L 293.4,123.9 L 297.9,122.9 L 302.5,121.9 L 307.0,120.9 L 311.6,120.0 L 316.1,119.1 L 320.7,118.2 L 325.3,117.3 L 329.8,116.4 L 334.4,115.6 L 338.9,114.8 L 343.5,114.1 L 348.1,113.4 L 352.6,112.7 L 357.2,112.0 L 361.7,111.4 L 366.3,110.8 L 370.8,110.3 L 375.4,109.7 L 380.0,109.3 L 384.5,108.8 L 389.1,108.4 L 393.6,108.0 L 398.2,107.7 L 402.8,107.4 L 407.3,107.1 L 411.9,106.8 L 416.4,106.6 L 421.0,106.4 L 425.6,106.3 L 430.1,106.1 L 434.7,106.0 L 439.2,105.9 L 443.8,105.9 L 448.3,105.8 L 452.9,105.8 L 457.5,105.7 L 462.0,105.7 L 466.6,105.7 L 471.1,105.7 L 475.7,105.6 L 480.3,105.5 L 484.8,105.4 L 489.4,105.3 L 493.9,105.1 L 498.5,104.8 L 503.0,104.4 L 507.6,104.0 L 512.2,103.3 L 516.7,102.6 L 521.3,101.7 L 525.8,100.6 L 530.4,99.5 L 535.0,98.3 L 539.5,97.4 L 544.1,96.9 L 548.6,97.1 L 553.2,98.3 L 557.7,100.4 L 562.3,103.6 L 566.9,107.7 L 571.4,112.7 L 576.0,118.3 L 580.5,124.2 L 585.1,130.4 L 589.6,136.5 L 594.2,142.4 L 598.8,148.2 L 603.3,153.5 L 607.9,158.6 L 612.4,163.3 L 617.0,167.7" class="fw"/>
<line x1="98.02" y1="286.85" x2="98.02" y2="304.41" class="err"/>
<line x1="95.02" y1="286.85" x2="101.02" y2="286.85" class="err"/>
<line x1="95.02" y1="304.41" x2="101.02" y2="304.41" class="err"/>
<circle cx="98.02" cy="295.63" r="2.5" class="obs"/>
<line x1="126.63" y1="218.54" x2="126.63" y2="240.23" class="err"/>
<line x1="123.63" y1="218.54" x2="129.63" y2="218.54" class="err"/>
<line x1="123.63" y1="240.23" x2="129.63" y2="240.23" class="err"/>
<circle cx="126.63" cy="229.38" r="2.5" class="obs"/>
<line x1="154.64" y1="167.39" x2="154.64" y2="186.39" class="err"/>
<line x1="151.64" y1="167.39" x2="157.64" y2="167.39" class="err"/>
<line x1="151.64" y1="186.39" x2="157.64" y2="186.39" class="err"/>
<circle cx="154.64" cy="176.89" r="2.5" class="obs"/>
<line x1="183.26" y1="141.11" x2="183.26" y2="153.92" class="err"/>
<line x1="180.26" y1="141.11" x2="186.26" y2="141.11" class="err"/>
<line x1="180.26" y1="153.92" x2="186.26" y2="153.92" class="err"/>
<circle cx="183.26" cy="147.52" r="2.5" class="obs"/>
<line x1="211.27" y1="132.20" x2="211.27" y2="144.70" class="err"/>
<line x1="208.27" y1="132.20" x2="214.27" y2="132.20" class="err"/>
<line x1="208.27" y1="144.70" x2="214.27" y2="144.70" class="err"/>
<circle cx="211.27" cy="138.45" r="2.5" class="obs"/>
<line x1="239.29" y1="126.52" x2="239.29" y2="139.14" class="err"/>
<line x1="236.29" y1="126.52" x2="242.29" y2="126.52" class="err"/>
<line x1="236.29" y1="139.14" x2="242.29" y2="139.14" class="err"/>
<circle cx="239.29" cy="132.83" r="2.5" class="obs"/>
<line x1="266.71" y1="121.86" x2="266.71" y2="134.42" class="err"/>
<line x1="263.71" y1="121.86" x2="269.71" y2="121.86" class="err"/>
<line x1="263.71" y1="134.42" x2="269.71" y2="134.42" class="err"/>
<circle cx="266.71" cy="128.14" r="2.5" class="obs"/>
<line x1="295.32" y1="117.36" x2="295.32" y2="130.17" class="err"/>
<line x1="292.32" y1="117.36" x2="298.32" y2="117.36" class="err"/>
<line x1="292.32" y1="130.17" x2="298.32" y2="130.17" class="err"/>
<circle cx="295.32" cy="123.77" r="2.5" class="obs"/>
<line x1="323.34" y1="110.71" x2="323.34" y2="123.70" class="err"/>
<line x1="320.34" y1="110.71" x2="326.34" y2="110.71" class="err"/>
<line x1="320.34" y1="123.70" x2="326.34" y2="123.70" class="err"/>
<circle cx="323.34" cy="117.21" r="2.5" class="obs"/>
<line x1="351.95" y1="104.46" x2="351.95" y2="117.46" class="err"/>
<line x1="348.95" y1="104.46" x2="354.95" y2="104.46" class="err"/>
<line x1="348.95" y1="117.46" x2="354.95" y2="117.46" class="err"/>
<circle cx="351.95" cy="110.96" r="2.5" class="obs"/>
<line x1="379.97" y1="103.68" x2="379.97" y2="116.36" class="err"/>
<line x1="376.97" y1="103.68" x2="382.97" y2="103.68" class="err"/>
<line x1="376.97" y1="116.36" x2="382.97" y2="116.36" class="err"/>
<circle cx="379.97" cy="110.02" r="2.5" class="obs"/>
<line x1="407.98" y1="102.14" x2="407.98" y2="114.77" class="err"/>
<line x1="404.98" y1="102.14" x2="410.98" y2="102.14" class="err"/>
<line x1="404.98" y1="114.77" x2="410.98" y2="114.77" class="err"/>
<circle cx="407.98" cy="108.46" r="2.5" class="obs"/>
<line x1="436.60" y1="99.71" x2="436.60" y2="112.21" class="err"/>
<line x1="433.60" y1="99.71" x2="439.60" y2="99.71" class="err"/>
<line x1="433.60" y1="112.21" x2="439.60" y2="112.21" class="err"/>
<circle cx="436.60" cy="105.96" r="2.5" class="obs"/>
<line x1="464.61" y1="98.77" x2="464.61" y2="111.27" class="err"/>
<line x1="461.61" y1="98.77" x2="467.61" y2="98.77" class="err"/>
<line x1="461.61" y1="111.27" x2="467.61" y2="111.27" class="err"/>
<circle cx="464.61" cy="105.02" r="2.5" class="obs"/>
<line x1="493.22" y1="97.77" x2="493.22" y2="110.39" class="err"/>
<line x1="490.22" y1="97.77" x2="496.22" y2="97.77" class="err"/>
<line x1="490.22" y1="110.39" x2="496.22" y2="110.39" class="err"/>
<circle cx="493.22" cy="104.08" r="2.5" class="obs"/>
<line x1="521.24" y1="96.89" x2="521.24" y2="109.39" class="err"/>
<line x1="518.24" y1="96.89" x2="524.24" y2="96.89" class="err"/>
<line x1="518.24" y1="109.39" x2="524.24" y2="109.39" class="err"/>
<circle cx="521.24" cy="103.14" r="2.5" class="obs"/>
<line x1="549.26" y1="95.33" x2="549.26" y2="107.83" class="err"/>
<line x1="546.26" y1="95.33" x2="552.26" y2="95.33" class="err"/>
<line x1="546.26" y1="107.83" x2="552.26" y2="107.83" class="err"/>
<circle cx="549.26" cy="101.58" r="2.5" class="obs"/>
<g class="legend">
<line x1="82" y1="69" x2="106" y2="69" class="fw"/>
<text x="112" y="73" class="lbl-l">framework fit</text>
<line x1="82" y1="87" x2="106" y2="87" class="nt"/>
<text x="112" y="91" class="lbl-l">Newtonian (no halo)</text>
<circle cx="94" cy="105" r="2.5" class="obs"/>
<text x="112" y="109" class="lbl">observed V±err</text>
</g>
<g class="legend">
<line x1="442" y1="69" x2="466" y2="69" class="rho"/>
<text x="472" y="73" class="lbl-r">ρ(r) raw</text>
<line x1="442" y1="87" x2="466" y2="87" class="sig"/>
<text x="472" y="91" class="lbl-s">Σ(r) cumulative</text>
<text x="442" y="113" class="lbl-r">ρ peak: 168 M☉/pc²</text>
</g>
<rect x="705" y="55" width="170" height="170" class="preview-bg"/>
<defs><radialGradient id="g_UGC08286" cx="0.5" cy="0.5" r="0.5">
  <stop offset="0.0000" stop-color="rgb(255,63.75,63.75)"/>
  <stop offset="0.0313" stop-color="rgb(255,63.75,63.75)"/>
  <stop offset="0.0625" stop-color="rgb(255,63.75,63.75)"/>
  <stop offset="0.0938" stop-color="rgb(255,63.75,63.75)"/>
  <stop offset="0.1250" stop-color="rgb(248,62,62)"/>
  <stop offset="0.1563" stop-color="rgb(236,59,59)"/>
  <stop offset="0.1875" stop-color="rgb(224,56,56)"/>
  <stop offset="0.2188" stop-color="rgb(211,52.75,52.75)"/>
  <stop offset="0.2500" stop-color="rgb(199,49.75,49.75)"/>
  <stop offset="0.2813" stop-color="rgb(191,47.75,47.75)"/>
  <stop offset="0.3125" stop-color="rgb(187,46.75,46.75)"/>
  <stop offset="0.3438" stop-color="rgb(183,45.75,45.75)"/>
  <stop offset="0.3750" stop-color="rgb(179,44.75,44.75)"/>
  <stop offset="0.4063" stop-color="rgb(176,44,44)"/>
  <stop offset="0.4375" stop-color="rgb(172,43,43)"/>
  <stop offset="0.4688" stop-color="rgb(168,42,42)"/>
  <stop offset="0.5000" stop-color="rgb(164,41,41)"/>
  <stop offset="0.5313" stop-color="rgb(160,40,40)"/>
  <stop offset="0.5625" stop-color="rgb(157,39.25,39.25)"/>
  <stop offset="0.5938" stop-color="rgb(153,38.25,38.25)"/>
  <stop offset="0.6250" stop-color="rgb(149,37.25,37.25)"/>
  <stop offset="0.6563" stop-color="rgb(145,36.25,36.25)"/>
  <stop offset="0.6875" stop-color="rgb(142,35.5,35.5)"/>
  <stop offset="0.7188" stop-color="rgb(138,34.5,34.5)"/>
  <stop offset="0.7500" stop-color="rgb(134,33.5,33.5)"/>
  <stop offset="0.7813" stop-color="rgb(130,32.5,32.5)"/>
  <stop offset="0.8125" stop-color="rgb(126,31.5,31.5)"/>
  <stop offset="0.8438" stop-color="rgb(123,30.75,30.75)"/>
  <stop offset="0.8750" stop-color="rgb(119,29.75,29.75)"/>
  <stop offset="0.9063" stop-color="rgb(115,28.75,28.75)"/>
  <stop offset="0.9375" stop-color="rgb(94,23.5,23.5)"/>
  <stop offset="0.9688" stop-color="rgb(72,18,18)"/>
  <stop offset="1.0000" stop-color="rgb(0,0,0)"/>
</radialGradient></defs>
<circle cx="790" cy="140" r="81" fill="url(#g_UGC08286)"/>
<text x="790" y="49" text-anchor="middle" class="preview-lbl">face-on luminance from ρ(r)</text>
<text x="790" y="239" text-anchor="middle" class="preview-lbl">edge at r = 8.7 kpc</text>
</svg>