<svg xmlns="http://www.w3.org/2000/svg" viewBox="0 0 890 420" width="890" height="420" font-family="sans-serif" font-size="12">
<style>
  .ax { stroke: #333; stroke-width: 1; fill: none; }
  .grid { stroke: #ddd; stroke-width: 0.5; fill: none; }
  .lbl { fill: #333; }
  .lbl-l { fill: #0066cc; }
  .lbl-r { fill: #b03030; }
  .obs { fill: #222; }
  .err { stroke: #555; stroke-width: 0.8; fill: none; }
  .fw { stroke: #0066cc; stroke-width: 2.2; fill: none; }
  .nt { stroke: #cc6600; stroke-width: 1.6; fill: none; stroke-dasharray: 5,3; }
  .lbl-s { fill: #cc7000; }
  .rho { stroke: #b03030; stroke-width: 2.0; fill: none; }
  .sig { stroke: #cc7000; stroke-width: 1.8; fill: none; }
  .title { fill: #111; font-size: 16px; font-weight: 600; }
  .subtitle { fill: #555; font-size: 11px; }
  .preview-bg { fill: #000; }
  .preview-lbl { fill: #888; font-size: 10px; }
  .legend { font-size: 11px; }
</style>
<text x="343.5" y="22" text-anchor="middle" class="title">UGC07399</text>
<text x="343.5" y="38" text-anchor="middle" class="subtitle">rMax=6.1 kpc, N=10, RMS=1.1 km/s (1.2%), amp=103</text>
<line x1="70" y1="365.0" x2="617" y2="365.0" class="grid"/>
<text x="64" y="369.0" text-anchor="end" class="lbl-l">0</text>
<line x1="70" y1="303.0" x2="617" y2="303.0" class="grid"/>
<text x="64" y="307.0" text-anchor="end" class="lbl-l">24</text>
<line x1="70" y1="241.0" x2="617" y2="241.0" class="grid"/>
<text x="64" y="245.0" text-anchor="end" class="lbl-l">49</text>
<line x1="70" y1="179.0" x2="617" y2="179.0" class="grid"/>
<text x="64" y="183.0" text-anchor="end" class="lbl-l">73</text>
<line x1="70" y1="117.0" x2="617" y2="117.0" class="grid"/>
<text x="64" y="121.0" text-anchor="end" class="lbl-l">98</text>
<line x1="70" y1="55.0" x2="617" y2="55.0" class="grid"/>
<text x="64" y="59.0" text-anchor="end" class="lbl-l">122</text>
<text x="623" y="369.0" text-anchor="start" class="lbl-r">0.0</text>
<text x="623" y="327.7" text-anchor="start" class="lbl-r">0.2</text>
<text x="623" y="286.3" text-anchor="start" class="lbl-r">0.4</text>
<text x="623" y="245.0" text-anchor="start" class="lbl-r">0.6</text>
<text x="623" y="203.7" text-anchor="start" class="lbl-r">0.8</text>
<text x="623" y="162.3" text-anchor="start" class="lbl-r">1.0</text>
<line x1="70.0" y1="55" x2="70.0" y2="365" class="grid"/>
<text x="70.0" y="381" text-anchor="middle" class="lbl">0.0</text>
<line x1="161.2" y1="55" x2="161.2" y2="365" class="grid"/>
<text x="161.2" y="381" text-anchor="middle" class="lbl">1.1</text>
<line x1="252.3" y1="55" x2="252.3" y2="365" class="grid"/>
<text x="252.3" y="381" text-anchor="middle" class="lbl">2.2</text>
<line x1="343.5" y1="55" x2="343.5" y2="365" class="grid"/>
<text x="343.5" y="381" text-anchor="middle" class="lbl">3.3</text>
<line x1="434.7" y1="55" x2="434.7" y2="365" class="grid"/>
<text x="434.7" y="381" text-anchor="middle" class="lbl">4.3</text>
<line x1="525.8" y1="55" x2="525.8" y2="365" class="grid"/>
<text x="525.8" y="381" text-anchor="middle" class="lbl">5.4</text>
<line x1="617.0" y1="55" x2="617.0" y2="365" class="grid"/>
<text x="617.0" y="381" text-anchor="middle" class="lbl">6.5</text>
<text x="343.5" y="408" text-anchor="middle" class="lbl">radius (kpc)</text>
<text x="16" y="210" text-anchor="middle" class="lbl-l" transform="rotate(-90, 16, 210)">velocity (km/s)</text>
<text x="654" y="210" text-anchor="middle" class="lbl-r" transform="rotate(-90, 654, 210)">mass profile (normalized to peak)</text>
<rect x="70" y="55" width="547" height="310" class="ax"/>
<path d="M 70.0,158.3 L 72.5,161.7 L 75.0,165.1 L 77.5,168.5 L 80.0,171.8 L 82.5,175.2 L 85.0,178.6 L 87.5,182.0 L 90.0,186.4 L 92.5,191.3 L 95.0,196.3 L 97.5,201.2 L 100.0,206.1 L 102.5,211.0 L 105.0,215.9 L 107.5,218.3 L 110.0,219.1 L 112.5,220.0 L 115.0,220.9 L 117.5,221.7 L 120.0,222.6 L 122.5,223.5 L 124.9,224.3 L 127.4,225.2 L 129.9,226.1 L 132.4,226.9 L 134.9,227.8 L 137.4,228.7 L 139.9,229.5 L 142.4,230.4 L 144.9,231.3 L 147.4,232.1 L 149.9,233.0 L 152.4,233.9 L 154.9,234.8 L 157.4,235.6 L 159.9,236.5 L 162.4,237.4 L 164.9,238.2 L 167.4,239.1 L 169.9,240.0 L 172.4,240.8 L 174.9,241.7 L 177.4,242.6 L 179.9,243.4 L 182.4,244.3 L 184.9,245.2 L 187.4,246.0 L 189.9,246.9 L 192.4,247.8 L 194.9,248.6 L 197.4,249.5 L 199.9,250.4 L 202.4,251.2 L 204.9,252.1 L 207.4,253.0 L 209.9,253.8 L 212.4,254.7 L 214.9,255.6 L 217.4,256.4 L 219.9,257.3 L 222.4,258.2 L 224.9,259.0 L 227.4,259.9 L 229.9,260.8 L 232.4,261.6 L 234.8,262.5 L 237.3,263.4 L 239.8,264.2 L 242.3,265.1 L 244.8,266.0 L 247.3,266.8 L 249.8,267.7 L 252.3,268.6 L 254.8,269.4 L 257.3,269.8 L 259.8,270.2 L 262.3,270.5 L 264.8,270.9 L 267.3,271.2 L 269.8,271.6 L 272.3,271.9 L 274.8,272.3 L 277.3,272.6 L 279.8,273.0 L 282.3,273.3 L 284.8,273.7 L 287.3,274.0 L 289.8,274.3 L 292.3,274.7 L 294.8,275.0 L 297.3,275.4 L 299.8,275.7 L 302.3,276.1 L 304.8,276.4 L 307.3,276.8 L 309.8,277.1 L 312.3,277.5 L 314.8,277.8 L 317.3,278.2 L 319.8,278.5 L 322.3,278.8 L 324.8,279.2 L 327.3,279.5 L 329.8,279.9 L 332.3,280.2 L 334.8,280.6 L 337.3,280.9 L 339.8,281.3 L 342.3,281.6 L 344.7,282.0 L 347.2,282.3 L 349.7,282.7 L 352.2,283.0 L 354.7,283.3 L 357.2,283.7 L 359.7,284.0 L 362.2,284.4 L 364.7,284.7 L 367.2,285.1 L 369.7,285.4 L 372.2,285.8 L 374.7,286.1 L 377.2,286.5 L 379.7,286.8 L 382.2,287.2 L 384.7,287.5 L 387.2,287.8 L 389.7,288.2 L 392.2,288.5 L 394.7,288.9 L 397.2,289.2 L 399.7,289.6 L 402.2,289.9 L 404.7,290.3 L 407.2,290.6 L 409.7,291.0 L 412.2,291.3 L 414.7,291.7 L 417.2,292.0 L 419.7,292.3 L 422.2,292.7 L 424.7,293.0 L 427.2,293.4 L 429.7,293.7 L 432.2,294.1 L 434.7,294.4 L 437.2,294.8 L 439.7,295.1 L 442.2,295.5 L 444.7,295.8 L 447.2,296.2 L 449.7,296.5 L 452.2,296.8 L 454.6,297.2 L 457.1,297.5 L 459.6,297.9 L 462.1,298.2 L 464.6,298.6 L 467.1,298.9 L 469.6,299.3 L 472.1,299.6 L 474.6,300.0 L 477.1,300.3 L 479.6,300.7 L 482.1,301.0 L 484.6,301.3 L 487.1,301.7 L 489.6,302.0 L 492.1,302.4 L 494.6,302.7 L 497.1,303.1 L 499.6,303.4 L 502.1,303.8 L 504.6,304.1 L 507.1,304.5 L 509.6,304.8 L 512.1,305.2 L 514.6,305.5 L 517.1,305.8 L 519.6,306.2 L 522.1,306.5 L 524.6,306.9 L 527.1,307.2 L 529.6,307.6 L 532.1,307.9 L 534.6,308.3 L 537.1,308.6 L 539.6,309.0 L 542.1,309.3 L 544.6,309.7 L 547.1,310.0 L 549.6,310.3 L 552.1,310.7 L 554.6,311.0 L 557.1,311.4 L 559.6,311.7 L 562.1,312.1 L 564.5,312.4 L 567.0,312.8 L 569.5,313.1 L 572.0,313.5 L 574.5,313.8 L 577.0,314.2 L 579.5,314.5 L 582.0,319.8 L 584.5,332.4 L 587.0,345.1 L 589.5,357.8 L 592.0,365.0 L 594.5,365.0 L 597.0,365.0 L 599.5,365.0 L 602.0,365.0 L 604.5,365.0 L 607.0,365.0 L 609.5,365.0 L 612.0,365.0 L 614.5,365.0 L 617.0,365.0" class="rho"/>
<path d="M 70.0,158.3 L 72.5,158.5 L 75.0,158.7 L 77.5,159.0 L 80.0,159.4 L 82.5,159.9 L 85.0,160.5 L 87.5,161.2 L 90.0,162.0 L 92.5,162.8 L 95.0,163.7 L 97.5,164.7 L 100.0,165.7 L 102.5,166.7 L 105.0,167.7 L 107.5,168.8 L 110.0,169.9 L 112.5,170.9 L 115.0,172.0 L 117.5,173.1 L 120.0,174.2 L 122.5,175.3 L 124.9,176.4 L 127.4,177.6 L 129.9,178.7 L 132.4,179.8 L 134.9,181.0 L 137.4,182.1 L 139.9,183.3 L 142.4,184.4 L 144.9,185.6 L 147.4,186.7 L 149.9,187.9 L 152.4,189.1 L 154.9,190.3 L 157.4,191.5 L 159.9,192.7 L 162.4,193.9 L 164.9,195.1 L 167.4,196.3 L 169.9,197.5 L 172.4,198.8 L 174.9,200.0 L 177.4,201.2 L 179.9,202.4 L 182.4,203.7 L 184.9,204.9 L 187.4,206.1 L 189.9,207.4 L 192.4,208.6 L 194.9,209.8 L 197.4,211.1 L 199.9,212.3 L 202.4,213.5 L 204.9,214.8 L 207.4,216.0 L 209.9,217.2 L 212.4,218.4 L 214.9,219.6 L 217.4,220.8 L 219.9,222.0 L 222.4,223.2 L 224.9,224.4 L 227.4,225.6 L 229.9,226.8 L 232.4,227.9 L 234.8,229.1 L 237.3,230.2 L 239.8,231.3 L 242.3,232.5 L 244.8,233.6 L 247.3,234.7 L 249.8,235.8 L 252.3,236.8 L 254.8,237.9 L 257.3,239.0 L 259.8,240.0 L 262.3,241.0 L 264.8,242.0 L 267.3,243.0 L 269.8,244.0 L 272.3,245.0 L 274.8,246.0 L 277.3,247.0 L 279.8,247.9 L 282.3,248.9 L 284.8,249.8 L 287.3,250.7 L 289.8,251.6 L 292.3,252.5 L 294.8,253.5 L 297.3,254.3 L 299.8,255.2 L 302.3,256.1 L 304.8,257.0 L 307.3,257.9 L 309.8,258.7 L 312.3,259.6 L 314.8,260.4 L 317.3,261.3 L 319.8,262.1 L 322.3,262.9 L 324.8,263.8 L 327.3,264.6 L 329.8,265.4 L 332.3,266.2 L 334.8,267.0 L 337.3,267.8 L 339.8,268.6 L 342.3,269.4 L 344.7,270.2 L 347.2,271.0 L 349.7,271.8 L 352.2,272.6 L 354.7,273.3 L 357.2,274.1 L 359.7,274.9 L 362.2,275.6 L 364.7,276.4 L 367.2,277.1 L 369.7,277.9 L 372.2,278.6 L 374.7,279.4 L 377.2,280.1 L 379.7,280.9 L 382.2,281.6 L 384.7,282.3 L 387.2,283.0 L 389.7,283.8 L 392.2,284.5 L 394.7,285.2 L 397.2,285.9 L 399.7,286.6 L 402.2,287.3 L 404.7,288.0 L 407.2,288.7 L 409.7,289.4 L 412.2,290.1 L 414.7,290.8 L 417.2,291.4 L 419.7,292.1 L 422.2,292.8 L 424.7,293.5 L 427.2,294.1 L 429.7,294.8 L 432.2,295.5 L 434.7,296.1 L 437.2,296.8 L 439.7,297.4 L 442.2,298.1 L 444.7,298.7 L 447.2,299.4 L 449.7,300.0 L 452.2,300.7 L 454.6,301.3 L 457.1,301.9 L 459.6,302.6 L 462.1,303.2 L 464.6,303.8 L 467.1,304.4 L 469.6,305.1 L 472.1,305.7 L 474.6,306.3 L 477.1,306.9 L 479.6,307.5 L 482.1,308.1 L 484.6,308.7 L 487.1,309.3 L 489.6,309.9 L 492.1,310.5 L 494.6,311.1 L 497.1,311.7 L 499.6,312.3 L 502.1,312.9 L 504.6,313.5 L 507.1,314.1 L 509.6,314.7 L 512.1,315.3 L 514.6,315.9 L 517.1,316.4 L 519.6,317.0 L 522.1,317.6 L 524.6,318.2 L 527.1,318.8 L 529.6,319.3 L 532.1,319.9 L 534.6,320.5 L 537.1,321.1 L 539.6,321.7 L 542.1,322.2 L 544.6,322.8 L 547.1,323.4 L 549.6,324.0 L 552.1,324.6 L 554.6,325.2 L 557.1,325.8 L 559.6,326.4 L 562.1,327.0 L 564.5,327.6 L 567.0,328.2 L 569.5,328.8 L 572.0,329.4 L 574.5,330.0 L 577.0,330.6 L 579.5,331.2 L 582.0,331.8 L 584.5,332.4 L 587.0,333.0 L 589.5,333.5 L 592.0,334.1 L 594.5,334.7 L 597.0,335.2 L 599.5,335.7 L 602.0,336.2 L 604.5,336.7 L 607.0,337.2 L 609.5,337.6 L 612.0,338.1 L 614.5,338.5 L 617.0,338.9" class="sig"/>
<path d="M 75.5,317.8 L 80.9,299.1 L 86.4,285.3 L 91.9,274.3 L 97.3,265.3 L 102.8,257.8 L 108.3,251.4 L 113.8,245.4 L 119.2,239.7 L 124.7,234.2 L 130.2,229.0 L 135.6,224.1 L 141.1,219.3 L 146.6,214.8 L 152.1,210.5 L 157.5,206.4 L 163.0,202.4 L 168.5,198.6 L 173.9,195.0 L 179.4,191.5 L 184.9,188.2 L 190.3,185.0 L 195.8,181.9 L 201.3,179.0 L 206.8,176.1 L 212.2,173.4 L 217.7,170.8 L 223.2,168.3 L 228.6,165.9 L 234.1,163.6 L 239.6,161.3 L 245.0,159.2 L 250.5,157.2 L 256.0,155.2 L 261.5,153.3 L 266.9,151.4 L 272.4,149.5 L 277.9,147.7 L 283.3,145.9 L 288.8,144.1 L 294.3,142.3 L 299.7,140.6 L 305.2,138.9 L 310.7,137.2 L 316.1,135.6 L 321.6,134.0 L 327.1,132.4 L 332.6,130.8 L 338.0,129.3 L 343.5,127.8 L 349.0,126.3 L 354.4,124.8 L 359.9,123.4 L 365.4,122.0 L 370.9,120.6 L 376.3,119.3 L 381.8,117.9 L 387.3,116.6 L 392.7,115.4 L 398.2,114.1 L 403.7,112.9 L 409.1,111.7 L 414.6,110.5 L 420.1,109.4 L 425.6,108.3 L 431.0,107.2 L 436.5,106.1 L 442.0,105.0 L 447.4,104.0 L 452.9,103.0 L 458.4,102.0 L 463.8,101.1 L 469.3,100.1 L 474.8,99.2 L 480.3,98.3 L 485.7,97.4 L 491.2,96.6 L 496.7,95.8 L 502.1,95.0 L 507.6,94.2 L 513.1,93.4 L 518.5,92.7 L 524.0,92.0 L 529.5,91.3 L 535.0,90.6 L 540.4,89.9 L 545.9,89.3 L 551.4,88.7 L 556.8,88.1 L 562.3,87.5 L 567.8,87.0 L 573.2,86.5 L 578.7,85.9 L 584.2,85.6 L 589.7,86.3 L 595.1,87.7 L 600.6,89.1 L 606.1,90.6 L 611.5,92.0 L 617.0,93.4" class="nt"/>
<path d="M 74.6,347.0 L 79.1,333.7 L 83.7,319.5 L 88.2,306.1 L 92.8,294.0 L 97.3,283.5 L 101.9,274.1 L 106.5,266.1 L 111.0,258.9 L 115.6,252.4 L 120.1,246.3 L 124.7,240.5 L 129.3,234.8 L 133.8,229.2 L 138.4,223.7 L 142.9,218.3 L 147.5,213.0 L 152.1,207.9 L 156.6,202.8 L 161.2,198.0 L 165.7,193.2 L 170.3,188.7 L 174.8,184.3 L 179.4,180.1 L 184.0,176.1 L 188.5,172.3 L 193.1,168.7 L 197.6,165.3 L 202.2,162.1 L 206.8,159.1 L 211.3,156.3 L 215.9,153.8 L 220.4,151.5 L 225.0,149.4 L 229.5,147.6 L 234.1,146.1 L 238.7,144.8 L 243.2,143.8 L 247.8,143.0 L 252.3,142.4 L 256.9,141.9 L 261.5,141.6 L 266.0,141.3 L 270.6,141.0 L 275.1,140.6 L 279.7,140.2 L 284.2,139.7 L 288.8,139.2 L 293.4,138.6 L 297.9,138.0 L 302.5,137.3 L 307.0,136.7 L 311.6,136.0 L 316.1,135.2 L 320.7,134.5 L 325.3,133.8 L 329.8,133.0 L 334.4,132.2 L 338.9,131.5 L 343.5,130.7 L 348.1,130.0 L 352.6,129.2 L 357.2,128.5 L 361.7,127.8 L 366.3,127.1 L 370.8,126.4 L 375.4,125.7 L 380.0,125.0 L 384.5,124.4 L 389.1,123.7 L 393.6,123.1 L 398.2,122.5 L 402.8,121.9 L 407.3,121.3 L 411.9,120.7 L 416.4,120.1 L 421.0,119.6 L 425.6,119.1 L 430.1,118.5 L 434.7,118.0 L 439.2,117.5 L 443.8,117.0 L 448.3,116.5 L 452.9,116.1 L 457.5,115.6 L 462.0,115.1 L 466.6,114.6 L 471.1,114.2 L 475.7,113.7 L 480.3,113.2 L 484.8,112.6 L 489.4,112.1 L 493.9,111.5 L 498.5,110.9 L 503.0,110.2 L 507.6,109.5 L 512.2,108.7 L 516.7,107.9 L 521.3,106.9 L 525.8,105.8 L 530.4,104.6 L 535.0,103.3 L 539.5,101.8 L 544.1,100.1 L 548.6,98.2 L 553.2,96.0 L 557.7,93.8 L 562.3,91.5 L 566.9,89.3 L 571.4,87.4 L 576.0,86.4 L 580.5,86.5 L 585.1,88.1 L 589.6,91.2 L 594.2,95.6 L 598.8,101.1 L 603.3,107.1 L 607.9,113.4 L 612.4,119.7 L 617.0,125.8" class="fw"/>
<line x1="121.26" y1="237.84" x2="121.26" y2="251.91" class="err"/>
<line x1="118.26" y1="237.84" x2="124.26" y2="237.84" class="err"/>
<line x1="118.26" y1="251.91" x2="124.26" y2="251.91" class="err"/>
<circle cx="121.26" cy="244.88" r="2.5" class="obs"/>
<line x1="172.51" y1="177.91" x2="172.51" y2="194.52" class="err"/>
<line x1="169.51" y1="177.91" x2="175.51" y2="177.91" class="err"/>
<line x1="169.51" y1="194.52" x2="175.51" y2="194.52" class="err"/>
<circle cx="172.51" cy="186.21" r="2.5" class="obs"/>
<line x1="224.61" y1="146.09" x2="224.61" y2="158.79" class="err"/>
<line x1="221.61" y1="146.09" x2="227.61" y2="146.09" class="err"/>
<line x1="221.61" y1="158.79" x2="227.61" y2="158.79" class="err"/>
<circle cx="224.61" cy="152.44" r="2.5" class="obs"/>
<line x1="275.87" y1="132.50" x2="275.87" y2="144.94" class="err"/>
<line x1="272.87" y1="132.50" x2="278.87" y2="132.50" class="err"/>
<line x1="272.87" y1="144.94" x2="278.87" y2="144.94" class="err"/>
<circle cx="275.87" cy="138.72" r="2.5" class="obs"/>
<line x1="327.96" y1="125.82" x2="327.96" y2="138.42" class="err"/>
<line x1="324.96" y1="125.82" x2="330.96" y2="125.82" class="err"/>
<line x1="324.96" y1="138.42" x2="330.96" y2="138.42" class="err"/>
<circle cx="327.96" cy="132.12" r="2.5" class="obs"/>
<line x1="379.22" y1="115.84" x2="379.22" y2="131.13" class="err"/>
<line x1="376.22" y1="115.84" x2="382.22" y2="115.84" class="err"/>
<line x1="376.22" y1="131.13" x2="382.22" y2="131.13" class="err"/>
<circle cx="379.22" cy="123.49" r="2.5" class="obs"/>
<line x1="431.32" y1="109.72" x2="431.32" y2="128.11" class="err"/>
<line x1="428.32" y1="109.72" x2="434.32" y2="109.72" class="err"/>
<line x1="428.32" y1="128.11" x2="434.32" y2="128.11" class="err"/>
<circle cx="431.32" cy="118.91" r="2.5" class="obs"/>
<line x1="482.57" y1="101.14" x2="482.57" y2="120.95" class="err"/>
<line x1="479.57" y1="101.14" x2="485.57" y2="101.14" class="err"/>
<line x1="479.57" y1="120.95" x2="485.57" y2="120.95" class="err"/>
<circle cx="482.57" cy="111.04" r="2.5" class="obs"/>
<line x1="533.83" y1="91.18" x2="533.83" y2="115.66" class="err"/>
<line x1="530.83" y1="91.18" x2="536.83" y2="91.18" class="err"/>
<line x1="530.83" y1="115.66" x2="536.83" y2="115.66" class="err"/>
<circle cx="533.83" cy="103.42" r="2.5" class="obs"/>
<line x1="585.09" y1="83.18" x2="585.09" y2="108.43" class="err"/>
<line x1="582.09" y1="83.18" x2="588.09" y2="83.18" class="err"/>
<line x1="582.09" y1="108.43" x2="588.09" y2="108.43" class="err"/>
<circle cx="585.09" cy="95.80" r="2.5" class="obs"/>
<g class="legend">
<line x1="82" y1="69" x2="106" y2="69" class="fw"/>
<text x="112" y="73" class="lbl-l">framework fit</text>
<line x1="82" y1="87" x2="106" y2="87" class="nt"/>
<text x="112" y="91" class="lbl-l">Newtonian (no halo)</text>
<circle cx="94" cy="105" r="2.5" class="obs"/>
<text x="112" y="109" class="lbl">observed V±err</text>
</g>
<g class="legend">
<line x1="442" y1="69" x2="466" y2="69" class="rho"/>
<text x="472" y="73" class="lbl-r">ρ(r) raw</text>
<line x1="442" y1="87" x2="466" y2="87" class="sig"/>
<text x="472" y="91" class="lbl-s">Σ(r) cumulative</text>
<text x="442" y="113" class="lbl-r">ρ peak: 402 M☉/pc²</text>
</g>
<rect x="705" y="55" width="170" height="170" class="preview-bg"/>
<defs><radialGradient id="g_UGC07399" cx="0.5" cy="0.5" r="0.5">
  <stop offset="0.0000" stop-color="rgb(146,146,146)"/>
  <stop offset="0.0313" stop-color="rgb(135,135,135)"/>
  <stop offset="0.0625" stop-color="rgb(118,118,118)"/>
  <stop offset="0.0938" stop-color="rgb(112,112,112)"/>
  <stop offset="0.1250" stop-color="rgb(109,109,109)"/>
  <stop offset="0.1563" stop-color="rgb(106,106,106)"/>
  <stop offset="0.1875" stop-color="rgb(103,103,103)"/>
  <stop offset="0.2188" stop-color="rgb(100,100,100)"/>
  <stop offset="0.2500" stop-color="rgb(97,97,97)"/>
  <stop offset="0.2813" stop-color="rgb(94,94,94)"/>
  <stop offset="0.3125" stop-color="rgb(91,91,91)"/>
  <stop offset="0.3438" stop-color="rgb(88,88,88)"/>
  <stop offset="0.3750" stop-color="rgb(86,86,86)"/>
  <stop offset="0.4063" stop-color="rgb(85,85,85)"/>
  <stop offset="0.4375" stop-color="rgb(84,84,84)"/>
  <stop offset="0.4688" stop-color="rgb(83,83,83)"/>
  <stop offset="0.5000" stop-color="rgb(82,82,82)"/>
  <stop offset="0.5313" stop-color="rgb(80,80,80)"/>
  <stop offset="0.5625" stop-color="rgb(79,79,79)"/>
  <stop offset="0.5938" stop-color="rgb(78,78,78)"/>
  <stop offset="0.6250" stop-color="rgb(77,77,77)"/>
  <stop offset="0.6563" stop-color="rgb(76,76,76)"/>
  <stop offset="0.6875" stop-color="rgb(74,74,74)"/>
  <stop offset="0.7188" stop-color="rgb(73,73,73)"/>
  <stop offset="0.7500" stop-color="rgb(72,72,72)"/>
  <stop offset="0.7813" stop-color="rgb(71,71,71)"/>
  <stop offset="0.8125" stop-color="rgb(70,70,70)"/>
  <stop offset="0.8438" stop-color="rgb(68,68,68)"/>
  <stop offset="0.8750" stop-color="rgb(67,67,67)"/>
  <stop offset="0.9063" stop-color="rgb(66,66,66)"/>
  <stop offset="0.9375" stop-color="rgb(65,65,65)"/>
  <stop offset="0.9688" stop-color="rgb(63,63,63)"/>
  <stop offset="1.0000" stop-color="rgb(0,0,0)"/>
</radialGradient></defs>
<circle cx="790" cy="140" r="81" fill="url(#g_UGC07399)"/>
<text x="790" y="49" text-anchor="middle" class="preview-lbl">face-on luminance from ρ(r)</text>
<text x="790" y="239" text-anchor="middle" class="preview-lbl">edge at r = 6.2 kpc</text>
</svg>