<svg xmlns="http://www.w3.org/2000/svg" viewBox="0 0 960 450" width="960" height="450" font-family="sans-serif" font-size="12">
<style>
  .ax { stroke: #333; stroke-width: 1; fill: none; }
  .grid { stroke: #ddd; stroke-width: 0.5; fill: none; }
  .lbl { fill: #333; }
  .lbl-l { fill: #0066cc; }
  .lbl-r { fill: #b03030; }
  .obs { fill: #222; }
  .err { stroke: #555; stroke-width: 0.8; fill: none; }
  .fw { stroke: #0066cc; stroke-width: 2.2; fill: none; }
  .nt { stroke: #cc6600; stroke-width: 1.6; fill: none; stroke-dasharray: 5,3; }
  .mond { stroke: #7b2cbf; stroke-width: 1.8; fill: none; stroke-dasharray: 7,3; }
  .lbl-p { fill: #cc7000; }
  .lbl-m { fill: #7b2cbf; }
  .rho { stroke: #b03030; stroke-width: 2.0; fill: none; }
  .phot { stroke: #cc7000; stroke-width: 1.8; fill: none; }
  .mbar { stroke: #8e44ad; stroke-width: 1.8; fill: none; opacity: 0.9; }
  .mph { stroke: #c77dff; stroke-width: 1.6; fill: none; stroke-dasharray: 4,3; opacity: 0.95; }
  .remap-x { stroke: #cc2222; stroke-width: 1.5; fill: none; }
  .remap-link { stroke: #cc2222; stroke-width: 0.8; stroke-dasharray: 3,3; fill: none; opacity: 0.7; }
  .title { fill: #111; font-size: 16px; font-weight: 600; }
  .subtitle { fill: #555; font-size: 11px; }
  .preview-bg { fill: #000; }
  .preview-lbl { fill: #888; font-size: 10px; }
  .legend { font-size: 11px; }
</style>
<text x="378.5" y="22" text-anchor="middle" class="title">UGC01281</text>
<text x="378.5" y="38" text-anchor="middle" class="subtitle">rMax=5.0 kpc, N=25, FW=0.8 km/s, 12.3%, 0.18σ, MOND=2.6 km/s, 33.0%, 0.61σ, amp=100</text>
<line x1="70" y1="395.0" x2="687" y2="395.0" class="grid"/>
<text x="64" y="399.0" text-anchor="end" class="lbl-l">0</text>
<line x1="70" y1="327.0" x2="687" y2="327.0" class="grid"/>
<text x="64" y="331.0" text-anchor="end" class="lbl-l">13</text>
<line x1="70" y1="259.0" x2="687" y2="259.0" class="grid"/>
<text x="64" y="263.0" text-anchor="end" class="lbl-l">27</text>
<line x1="70" y1="191.0" x2="687" y2="191.0" class="grid"/>
<text x="64" y="195.0" text-anchor="end" class="lbl-l">40</text>
<line x1="70" y1="123.0" x2="687" y2="123.0" class="grid"/>
<text x="64" y="127.0" text-anchor="end" class="lbl-l">54</text>
<line x1="70" y1="55.0" x2="687" y2="55.0" class="grid"/>
<text x="64" y="59.0" text-anchor="end" class="lbl-l">67</text>
<text x="693" y="399.0" text-anchor="start" class="lbl-r">0.0</text>
<text x="693" y="353.7" text-anchor="start" class="lbl-r">0.2</text>
<text x="693" y="308.3" text-anchor="start" class="lbl-r">0.4</text>
<text x="693" y="263.0" text-anchor="start" class="lbl-r">0.6</text>
<text x="693" y="217.7" text-anchor="start" class="lbl-r">0.8</text>
<text x="693" y="172.3" text-anchor="start" class="lbl-r">1.0</text>
<line x1="70.0" y1="55" x2="70.0" y2="395" class="grid"/>
<text x="70.0" y="411" text-anchor="middle" class="lbl">0.0</text>
<line x1="172.8" y1="55" x2="172.8" y2="395" class="grid"/>
<text x="172.8" y="411" text-anchor="middle" class="lbl">0.9</text>
<line x1="275.7" y1="55" x2="275.7" y2="395" class="grid"/>
<text x="275.7" y="411" text-anchor="middle" class="lbl">1.7</text>
<line x1="378.5" y1="55" x2="378.5" y2="395" class="grid"/>
<text x="378.5" y="411" text-anchor="middle" class="lbl">2.6</text>
<line x1="481.3" y1="55" x2="481.3" y2="395" class="grid"/>
<text x="481.3" y="411" text-anchor="middle" class="lbl">3.5</text>
<line x1="584.2" y1="55" x2="584.2" y2="395" class="grid"/>
<text x="584.2" y="411" text-anchor="middle" class="lbl">4.4</text>
<line x1="687.0" y1="55" x2="687.0" y2="395" class="grid"/>
<text x="687.0" y="411" text-anchor="middle" class="lbl">5.2</text>
<text x="378.5" y="438" text-anchor="middle" class="lbl">radius (kpc)</text>
<text x="16" y="225" text-anchor="middle" class="lbl-l" transform="rotate(-90, 16, 225)">velocity (km/s)</text>
<text x="724" y="225" text-anchor="middle" class="lbl-r" transform="rotate(-90, 724, 225)">profiles (normalized to peak)</text>
<rect x="70" y="55" width="617" height="340" class="ax"/>
<path d="M 70.0,168.3 L 72.8,168.6 L 75.6,168.9 L 78.5,169.2 L 81.3,169.4 L 84.1,169.7 L 86.9,170.0 L 89.7,170.2 L 92.5,170.5 L 95.4,170.8 L 98.2,171.1 L 101.0,171.3 L 103.8,171.6 L 106.6,171.9 L 109.4,172.1 L 112.3,172.4 L 115.1,172.7 L 117.9,173.0 L 120.7,173.2 L 123.5,173.5 L 126.3,173.8 L 129.2,174.1 L 132.0,174.3 L 134.8,174.6 L 137.6,174.9 L 140.4,175.1 L 143.3,175.4 L 146.1,175.7 L 148.9,176.0 L 151.7,176.2 L 154.5,176.5 L 157.3,176.8 L 160.2,177.0 L 163.0,177.3 L 165.8,177.6 L 168.6,177.9 L 171.4,178.1 L 174.2,178.4 L 177.1,178.6 L 179.9,178.7 L 182.7,178.8 L 185.5,178.8 L 188.3,178.9 L 191.1,179.0 L 194.0,179.1 L 196.8,179.2 L 199.6,179.3 L 202.4,179.3 L 205.2,179.4 L 208.1,179.5 L 210.9,179.6 L 213.7,179.7 L 216.5,179.8 L 219.3,179.8 L 222.1,179.9 L 225.0,180.0 L 227.8,180.1 L 230.6,180.2 L 233.4,180.3 L 236.2,180.8 L 239.0,181.4 L 241.9,181.9 L 244.7,182.5 L 247.5,183.1 L 250.3,183.6 L 253.1,184.2 L 255.9,184.7 L 258.8,185.3 L 261.6,185.8 L 264.4,186.4 L 267.2,186.9 L 270.0,187.5 L 272.8,188.1 L 275.7,188.6 L 278.5,189.2 L 281.3,189.7 L 284.1,190.3 L 286.9,190.8 L 289.8,191.4 L 292.6,191.9 L 295.4,192.5 L 298.2,193.1 L 301.0,193.6 L 303.8,194.2 L 306.7,194.7 L 309.5,195.3 L 312.3,195.8 L 315.1,196.4 L 317.9,196.9 L 320.7,197.5 L 323.6,198.1 L 326.4,198.6 L 329.2,199.2 L 332.0,199.7 L 334.8,200.3 L 337.6,200.8 L 340.5,201.4 L 343.3,201.9 L 346.1,202.5 L 348.9,203.1 L 351.7,203.6 L 354.6,204.2 L 357.4,204.7 L 360.2,205.3 L 363.0,205.8 L 365.8,206.4 L 368.6,206.9 L 371.5,207.5 L 374.3,208.1 L 377.1,208.6 L 379.9,209.2 L 382.7,210.1 L 385.5,211.0 L 388.4,212.0 L 391.2,212.9 L 394.0,213.9 L 396.8,214.8 L 399.6,215.8 L 402.4,216.7 L 405.3,217.7 L 408.1,218.6 L 410.9,219.6 L 413.7,220.5 L 416.5,221.5 L 419.4,222.5 L 422.2,223.4 L 425.0,224.4 L 427.8,225.3 L 430.6,226.3 L 433.4,227.2 L 436.3,228.2 L 439.1,229.1 L 441.9,230.1 L 444.7,231.0 L 447.5,232.0 L 450.3,232.9 L 453.2,233.9 L 456.0,234.8 L 458.8,235.8 L 461.6,236.7 L 464.4,237.7 L 467.2,238.6 L 470.1,239.6 L 472.9,240.6 L 475.7,241.5 L 478.5,242.5 L 481.3,243.4 L 484.2,244.4 L 487.0,245.3 L 489.8,246.3 L 492.6,247.2 L 495.4,248.2 L 498.2,249.1 L 501.1,250.1 L 503.9,251.0 L 506.7,252.0 L 509.5,252.9 L 512.3,253.9 L 515.1,254.8 L 518.0,255.8 L 520.8,256.8 L 523.6,257.7 L 526.4,258.7 L 529.2,259.6 L 532.0,260.6 L 534.9,261.5 L 537.7,262.5 L 540.5,263.4 L 543.3,264.4 L 546.1,265.3 L 548.9,266.3 L 551.8,267.2 L 554.6,268.2 L 557.4,269.1 L 560.2,270.1 L 563.0,271.0 L 565.9,272.0 L 568.7,272.9 L 571.5,273.9 L 574.3,274.9 L 577.1,275.8 L 579.9,276.8 L 582.8,277.7 L 585.6,278.7 L 588.4,279.6 L 591.2,280.6 L 594.0,281.5 L 596.8,282.5 L 599.7,283.4 L 602.5,284.4 L 605.3,285.3 L 608.1,286.3 L 610.9,287.2 L 613.7,288.2 L 616.6,289.1 L 619.4,290.1 L 622.2,291.0 L 625.0,292.0 L 627.8,293.0 L 630.7,293.9 L 633.5,294.9 L 636.3,295.8 L 639.1,296.8 L 641.9,297.7 L 644.7,313.1 L 647.6,331.0 L 650.4,348.9 L 653.2,366.9 L 656.0,384.8 L 658.8,395.0 L 661.6,395.0 L 664.5,395.0 L 667.3,395.0 L 670.1,395.0 L 672.9,395.0 L 675.7,395.0 L 678.5,395.0 L 681.4,395.0 L 684.2,395.0 L 687.0,395.0" class="rho"/>
<path d="M 79.4,168.3 L 97.1,199.7 L 114.7,191.4 L 133.6,208.5 L 151.3,211.2 L 168.9,227.5 L 187.8,239.5 L 205.4,256.7 L 223.1,271.7 L 241.9,288.5 L 259.6,306.5 L 277.3,321.1 L 296.1,332.0 L 313.8,340.2 L 331.4,347.1 L 350.3,351.5 L 367.9,357.3 L 385.6,363.0 L 395.0,365.3 L 431.5,371.4 L 477.4,376.3 L 521.0,380.5 L 568.1,382.8 L 614.0,384.4 L 657.6,386.4" class="phot"/>
<path d="M 79.4,395.0 L 97.1,379.5 L 114.7,343.5 L 133.6,319.8 L 151.3,316.0 L 168.9,309.5 L 187.8,300.8 L 205.4,260.0 L 223.1,205.4 L 241.9,195.4 L 259.6,189.4 L 277.3,173.0 L 296.1,168.3 L 313.8,168.9 L 331.4,171.7 L 350.3,184.8 L 367.9,203.5 L 385.6,220.3 L 395.0,239.1 L 431.5,247.6 L 477.4,262.2 L 521.0,303.8 L 568.1,316.6 L 614.0,284.8 L 657.6,271.5" class="mbar"/>
<path d="M 79.4,395.0 L 97.1,355.7 L 114.7,280.1 L 133.6,249.4 L 151.3,255.2 L 168.9,250.8 L 187.8,244.0 L 205.4,215.6 L 223.1,178.6 L 241.9,175.6 L 259.6,176.7 L 277.3,169.2 L 296.1,168.3 L 313.8,169.7 L 331.4,171.8 L 350.3,178.5 L 367.9,187.8 L 385.6,196.1 L 395.0,205.4 L 431.5,209.8 L 477.4,217.9 L 521.0,241.4 L 568.1,249.5 L 614.0,232.2 L 657.6,224.8" class="mph"/>
<path d="M 76.2,361.5 L 82.3,347.6 L 88.5,337.0 L 94.7,328.1 L 100.8,320.3 L 107.0,313.3 L 113.2,306.8 L 119.4,300.8 L 125.5,295.1 L 131.7,289.8 L 137.9,284.8 L 144.0,280.0 L 150.2,275.4 L 156.4,271.0 L 162.6,266.8 L 168.7,262.7 L 174.9,258.8 L 181.1,254.9 L 187.2,251.2 L 193.4,247.6 L 199.6,244.0 L 205.7,240.6 L 211.9,237.2 L 218.1,233.9 L 224.3,230.6 L 230.4,227.5 L 236.6,224.3 L 242.8,221.3 L 248.9,218.4 L 255.1,215.5 L 261.3,212.7 L 267.4,210.0 L 273.6,207.3 L 279.8,204.7 L 286.0,202.2 L 292.1,199.7 L 298.3,197.3 L 304.5,194.9 L 310.6,192.6 L 316.8,190.3 L 323.0,188.1 L 329.1,185.9 L 335.3,183.8 L 341.5,181.7 L 347.7,179.6 L 353.8,177.6 L 360.0,175.6 L 366.2,173.7 L 372.3,171.8 L 378.5,169.9 L 384.7,168.0 L 390.8,166.3 L 397.0,164.5 L 403.2,162.9 L 409.4,161.2 L 415.5,159.6 L 421.7,158.1 L 427.9,156.6 L 434.0,155.1 L 440.2,153.7 L 446.4,152.3 L 452.5,151.0 L 458.7,149.7 L 464.9,148.4 L 471.1,147.2 L 477.2,146.0 L 483.4,144.9 L 489.6,143.8 L 495.7,142.7 L 501.9,141.7 L 508.1,140.7 L 514.2,139.7 L 520.4,138.7 L 526.6,137.8 L 532.8,137.0 L 538.9,136.1 L 545.1,135.3 L 551.3,134.5 L 557.4,133.8 L 563.6,133.0 L 569.8,132.3 L 575.9,131.7 L 582.1,131.0 L 588.3,130.4 L 594.4,129.9 L 600.6,129.3 L 606.8,128.8 L 613.0,128.3 L 619.1,127.8 L 625.3,127.4 L 631.5,127.0 L 637.6,126.6 L 643.8,126.2 L 650.0,126.4 L 656.2,127.3 L 662.3,128.7 L 668.5,130.1 L 674.7,131.4 L 680.8,132.8 L 687.0,134.1" class="nt"/>
<path d="M 79.4,395.0 L 97.1,395.0 L 114.7,334.4 L 133.6,314.0 L 151.3,301.3 L 168.9,289.3 L 187.8,276.4 L 205.4,266.3 L 223.1,244.2 L 241.9,232.2 L 259.6,218.1 L 277.3,206.5 L 296.1,193.6 L 313.8,183.8 L 331.4,173.7 L 350.3,164.7 L 367.9,157.5 L 385.6,150.9 L 395.0,148.0 L 431.5,137.6 L 477.4,123.9 L 521.0,117.5 L 568.1,113.9 L 614.0,101.0 L 657.6,91.0" class="mond"/>
<path d="M 75.1,387.9 L 80.3,383.1 L 85.4,378.0 L 90.6,373.2 L 95.7,368.5 L 100.8,363.9 L 106.0,359.4 L 111.1,355.0 L 116.3,350.7 L 121.4,346.5 L 126.6,342.4 L 131.7,338.4 L 136.8,334.5 L 142.0,330.7 L 147.1,326.9 L 152.3,323.3 L 157.4,319.7 L 162.6,316.3 L 167.7,312.9 L 172.8,309.6 L 178.0,306.3 L 183.1,303.0 L 188.3,299.4 L 193.4,295.7 L 198.5,291.8 L 203.7,287.6 L 208.8,283.3 L 214.0,278.6 L 219.1,273.8 L 224.3,268.6 L 229.4,263.3 L 234.5,257.8 L 239.7,252.4 L 244.8,247.2 L 250.0,242.4 L 255.1,237.9 L 260.2,233.6 L 265.4,229.5 L 270.5,225.5 L 275.7,221.7 L 280.8,218.1 L 286.0,214.5 L 291.1,211.0 L 296.2,207.6 L 301.4,204.3 L 306.5,201.0 L 311.7,197.8 L 316.8,194.6 L 321.9,191.4 L 327.1,188.3 L 332.2,185.1 L 337.4,182.0 L 342.5,178.9 L 347.7,175.7 L 352.8,172.5 L 357.9,169.2 L 363.1,165.8 L 368.2,162.3 L 373.4,158.6 L 378.5,154.9 L 383.6,151.3 L 388.8,147.9 L 393.9,144.6 L 399.1,141.7 L 404.2,139.1 L 409.4,136.7 L 414.5,134.4 L 419.6,132.4 L 424.8,130.6 L 429.9,128.9 L 435.1,127.3 L 440.2,125.8 L 445.3,124.5 L 450.5,123.3 L 455.6,122.2 L 460.8,121.2 L 465.9,120.3 L 471.1,119.5 L 476.2,118.8 L 481.3,118.1 L 486.5,117.6 L 491.6,117.1 L 496.8,116.7 L 501.9,116.3 L 507.0,116.0 L 512.2,115.8 L 517.3,115.6 L 522.5,115.5 L 527.6,115.4 L 532.8,115.3 L 537.9,115.3 L 543.0,115.3 L 548.2,115.3 L 553.3,115.3 L 558.5,115.3 L 563.6,115.3 L 568.7,115.3 L 573.9,115.2 L 579.0,115.0 L 584.2,114.7 L 589.3,114.2 L 594.5,113.5 L 599.6,112.6 L 604.7,111.3 L 609.9,109.5 L 615.0,107.2 L 620.2,104.4 L 625.3,101.0 L 630.4,97.5 L 635.6,94.6 L 640.7,93.4 L 645.9,94.7 L 651.0,99.6 L 656.2,107.2 L 661.3,117.1 L 666.4,127.8 L 671.6,138.6 L 676.7,148.6 L 681.9,157.8 L 687.0,166.0" class="fw"/>
<line x1="79.42" y1="367.54" x2="79.42" y2="395.00" class="err"/>
<line x1="76.42" y1="367.54" x2="82.42" y2="367.54" class="err"/>
<line x1="76.42" y1="395.00" x2="82.42" y2="395.00" class="err"/>
<circle cx="79.42" cy="387.84" r="2.5" class="obs"/>
<line x1="97.08" y1="352.06" x2="97.08" y2="392.67" class="err"/>
<line x1="94.08" y1="352.06" x2="100.08" y2="352.06" class="err"/>
<line x1="94.08" y1="392.67" x2="100.08" y2="392.67" class="err"/>
<circle cx="97.08" cy="372.36" r="2.5" class="obs"/>
<line x1="114.75" y1="335.57" x2="114.75" y2="376.17" class="err"/>
<line x1="111.75" y1="335.57" x2="117.75" y2="335.57" class="err"/>
<line x1="111.75" y1="376.17" x2="117.75" y2="376.17" class="err"/>
<circle cx="114.75" cy="355.87" r="2.5" class="obs"/>
<line x1="133.59" y1="318.87" x2="133.59" y2="359.47" class="err"/>
<line x1="130.59" y1="318.87" x2="136.59" y2="318.87" class="err"/>
<line x1="130.59" y1="359.47" x2="136.59" y2="359.47" class="err"/>
<circle cx="133.59" cy="339.17" r="2.5" class="obs"/>
<line x1="151.25" y1="302.63" x2="151.25" y2="343.23" class="err"/>
<line x1="148.25" y1="302.63" x2="154.25" y2="302.63" class="err"/>
<line x1="148.25" y1="343.23" x2="154.25" y2="343.23" class="err"/>
<circle cx="151.25" cy="322.93" r="2.5" class="obs"/>
<line x1="168.92" y1="278.37" x2="168.92" y2="337.04" class="err"/>
<line x1="165.92" y1="278.37" x2="171.92" y2="278.37" class="err"/>
<line x1="165.92" y1="337.04" x2="171.92" y2="337.04" class="err"/>
<circle cx="168.92" cy="307.70" r="2.5" class="obs"/>
<line x1="187.76" y1="268.42" x2="187.76" y2="316.53" class="err"/>
<line x1="184.76" y1="268.42" x2="190.76" y2="268.42" class="err"/>
<line x1="184.76" y1="316.53" x2="190.76" y2="316.53" class="err"/>
<circle cx="187.76" cy="292.48" r="2.5" class="obs"/>
<line x1="205.42" y1="256.95" x2="205.42" y2="297.55" class="err"/>
<line x1="202.42" y1="256.95" x2="208.42" y2="256.95" class="err"/>
<line x1="202.42" y1="297.55" x2="208.42" y2="297.55" class="err"/>
<circle cx="205.42" cy="277.25" r="2.5" class="obs"/>
<line x1="223.09" y1="224.82" x2="223.09" y2="297.20" class="err"/>
<line x1="220.09" y1="224.82" x2="226.09" y2="224.82" class="err"/>
<line x1="220.09" y1="297.20" x2="226.09" y2="297.20" class="err"/>
<circle cx="223.09" cy="261.01" r="2.5" class="obs"/>
<line x1="241.93" y1="224.06" x2="241.93" y2="268.52" class="err"/>
<line x1="238.93" y1="224.06" x2="244.93" y2="224.06" class="err"/>
<line x1="238.93" y1="268.52" x2="244.93" y2="268.52" class="err"/>
<circle cx="241.93" cy="246.29" r="2.5" class="obs"/>
<line x1="259.59" y1="209.55" x2="259.59" y2="259.69" class="err"/>
<line x1="256.59" y1="209.55" x2="262.59" y2="209.55" class="err"/>
<line x1="256.59" y1="259.69" x2="262.59" y2="259.69" class="err"/>
<circle cx="259.59" cy="234.62" r="2.5" class="obs"/>
<line x1="277.26" y1="199.09" x2="277.26" y2="239.69" class="err"/>
<line x1="274.26" y1="199.09" x2="280.26" y2="199.09" class="err"/>
<line x1="274.26" y1="239.69" x2="280.26" y2="239.69" class="err"/>
<circle cx="277.26" cy="219.39" r="2.5" class="obs"/>
<line x1="296.10" y1="169.20" x2="296.10" y2="241.17" class="err"/>
<line x1="293.10" y1="169.20" x2="299.10" y2="169.20" class="err"/>
<line x1="293.10" y1="241.17" x2="299.10" y2="241.17" class="err"/>
<circle cx="296.10" cy="205.18" r="2.5" class="obs"/>
<line x1="313.76" y1="172.19" x2="313.76" y2="212.79" class="err"/>
<line x1="310.76" y1="172.19" x2="316.76" y2="172.19" class="err"/>
<line x1="310.76" y1="212.79" x2="316.76" y2="212.79" class="err"/>
<circle cx="313.76" cy="192.49" r="2.5" class="obs"/>
<line x1="331.43" y1="158.64" x2="331.43" y2="203.00" class="err"/>
<line x1="328.43" y1="158.64" x2="334.43" y2="158.64" class="err"/>
<line x1="328.43" y1="203.00" x2="334.43" y2="203.00" class="err"/>
<circle cx="331.43" cy="180.82" r="2.5" class="obs"/>
<line x1="350.27" y1="146.41" x2="350.27" y2="192.90" class="err"/>
<line x1="347.27" y1="146.41" x2="353.27" y2="146.41" class="err"/>
<line x1="347.27" y1="192.90" x2="353.27" y2="192.90" class="err"/>
<circle cx="350.27" cy="169.65" r="2.5" class="obs"/>
<line x1="367.93" y1="127.98" x2="367.93" y2="187.98" class="err"/>
<line x1="364.93" y1="127.98" x2="370.93" y2="127.98" class="err"/>
<line x1="364.93" y1="187.98" x2="370.93" y2="187.98" class="err"/>
<circle cx="367.93" cy="157.98" r="2.5" class="obs"/>
<line x1="385.59" y1="109.66" x2="385.59" y2="188.03" class="err"/>
<line x1="382.59" y1="109.66" x2="388.59" y2="109.66" class="err"/>
<line x1="382.59" y1="188.03" x2="388.59" y2="188.03" class="err"/>
<circle cx="385.59" cy="148.84" r="2.5" class="obs"/>
<line x1="395.02" y1="95.40" x2="395.02" y2="194.17" class="err"/>
<line x1="392.02" y1="95.40" x2="398.02" y2="95.40" class="err"/>
<line x1="392.02" y1="194.17" x2="398.02" y2="194.17" class="err"/>
<circle cx="395.02" cy="144.78" r="2.5" class="obs"/>
<line x1="431.52" y1="105.70" x2="431.52" y2="146.31" class="err"/>
<line x1="428.52" y1="105.70" x2="434.52" y2="105.70" class="err"/>
<line x1="428.52" y1="146.31" x2="434.52" y2="146.31" class="err"/>
<circle cx="431.52" cy="126.00" r="2.5" class="obs"/>
<line x1="477.45" y1="100.12" x2="477.45" y2="140.72" class="err"/>
<line x1="474.45" y1="100.12" x2="480.45" y2="100.12" class="err"/>
<line x1="474.45" y1="140.72" x2="480.45" y2="140.72" class="err"/>
<circle cx="477.45" cy="120.42" r="2.5" class="obs"/>
<line x1="521.02" y1="95.55" x2="521.02" y2="136.16" class="err"/>
<line x1="518.02" y1="95.55" x2="524.02" y2="95.55" class="err"/>
<line x1="518.02" y1="136.16" x2="524.02" y2="136.16" class="err"/>
<circle cx="521.02" cy="115.85" r="2.5" class="obs"/>
<line x1="568.12" y1="92.00" x2="568.12" y2="132.60" class="err"/>
<line x1="565.12" y1="92.00" x2="571.12" y2="92.00" class="err"/>
<line x1="565.12" y1="132.60" x2="571.12" y2="132.60" class="err"/>
<circle cx="568.12" cy="112.30" r="2.5" class="obs"/>
<line x1="614.05" y1="88.45" x2="614.05" y2="129.05" class="err"/>
<line x1="611.05" y1="88.45" x2="617.05" y2="88.45" class="err"/>
<line x1="611.05" y1="129.05" x2="617.05" y2="129.05" class="err"/>
<circle cx="614.05" cy="108.75" r="2.5" class="obs"/>
<line x1="657.62" y1="85.91" x2="657.62" y2="126.51" class="err"/>
<line x1="654.62" y1="85.91" x2="660.62" y2="85.91" class="err"/>
<line x1="654.62" y1="126.51" x2="660.62" y2="126.51" class="err"/>
<circle cx="657.62" cy="106.21" r="2.5" class="obs"/>
<g class="legend">
<line x1="82" y1="69" x2="106" y2="69" class="fw"/>
<text x="112" y="73" class="lbl-l">framework: 0.8 km/s, 12.3%, 0.18σ</text>
<line x1="82" y1="87" x2="106" y2="87" class="nt"/>
<text x="112" y="91" class="lbl-l">Newtonian: 5.9 km/s, 111.2%, 1.37σ</text>
<line x1="82" y1="105" x2="106" y2="105" class="mond"/>
<text x="112" y="109" class="lbl-m">MOND/RAR: 2.6 km/s, 33.0%, 0.61σ</text>
<circle cx="94" cy="123" r="2.5" class="obs"/>
<text x="112" y="127" class="lbl">observed V±err</text>
</g>
<g class="legend">
<line x1="472" y1="69" x2="496" y2="69" class="rho"/>
<text x="502" y="73" class="lbl-r">ρ(r) raw</text>
<line x1="472" y1="87" x2="496" y2="87" class="phot"/>
<text x="502" y="91" class="lbl-p">photometric baryonic profile</text>
<line x1="472" y1="105" x2="496" y2="105" class="mbar"/>
<text x="502" y="109" class="lbl-m">MOND baryonic annulus</text>
<line x1="472" y1="123" x2="496" y2="123" class="mph"/>
<text x="502" y="127" class="lbl-m">MOND phantom annulus</text>
<text x="472" y="147" class="lbl-r">ρ peak: 62 M☉/pc²</text>
<text x="472" y="163" class="lbl-p">phot peak: 12.70 (arb.)</text>
<text x="472" y="179" class="lbl-m">Σbar peak: 14.73 M☉/pc²</text>
<text x="472" y="195" class="lbl-m">Σphantom peak: 57.34 M☉/pc²</text>
</g>
<rect x="775" y="55" width="170" height="170" class="preview-bg"/>
<defs><radialGradient id="g_UGC01281" cx="0.5" cy="0.5" r="0.5">
  <stop offset="0.0000" stop-color="rgb(134,34,34)"/>
  <stop offset="0.0313" stop-color="rgb(134,34,34)"/>
  <stop offset="0.0625" stop-color="rgb(133,33,33)"/>
  <stop offset="0.0938" stop-color="rgb(132,33,33)"/>
  <stop offset="0.1250" stop-color="rgb(132,33,33)"/>
  <stop offset="0.1563" stop-color="rgb(131,33,33)"/>
  <stop offset="0.1875" stop-color="rgb(131,33,33)"/>
  <stop offset="0.2188" stop-color="rgb(130,33,33)"/>
  <stop offset="0.2500" stop-color="rgb(130,33,33)"/>
  <stop offset="0.2813" stop-color="rgb(130,33,33)"/>
  <stop offset="0.3125" stop-color="rgb(128,32,32)"/>
  <stop offset="0.3438" stop-color="rgb(127,32,32)"/>
  <stop offset="0.3750" stop-color="rgb(126,32,32)"/>
  <stop offset="0.4063" stop-color="rgb(124,31,31)"/>
  <stop offset="0.4375" stop-color="rgb(123,31,31)"/>
  <stop offset="0.4688" stop-color="rgb(122,31,31)"/>
  <stop offset="0.5000" stop-color="rgb(120,30,30)"/>
  <stop offset="0.5313" stop-color="rgb(119,30,30)"/>
  <stop offset="0.5625" stop-color="rgb(117,29,29)"/>
  <stop offset="0.5938" stop-color="rgb(114,29,29)"/>
  <stop offset="0.6250" stop-color="rgb(112,28,28)"/>
  <stop offset="0.6563" stop-color="rgb(110,28,28)"/>
  <stop offset="0.6875" stop-color="rgb(107,27,27)"/>
  <stop offset="0.7188" stop-color="rgb(105,26,26)"/>
  <stop offset="0.7500" stop-color="rgb(103,26,26)"/>
  <stop offset="0.7813" stop-color="rgb(100,25,25)"/>
  <stop offset="0.8125" stop-color="rgb(98,25,25)"/>
  <stop offset="0.8438" stop-color="rgb(96,24,24)"/>
  <stop offset="0.8750" stop-color="rgb(94,24,24)"/>
  <stop offset="0.9063" stop-color="rgb(91,23,23)"/>
  <stop offset="0.9375" stop-color="rgb(89,22,22)"/>
  <stop offset="0.9688" stop-color="rgb(87,22,22)"/>
  <stop offset="1.0000" stop-color="rgb(0,0,0)"/>
</radialGradient></defs>
<circle cx="860" cy="140" r="81" fill="url(#g_UGC01281)"/>
<text x="860" y="49" text-anchor="middle" class="preview-lbl">face-on luminance from ρ(r)</text>
<text x="860" y="239" text-anchor="middle" class="preview-lbl">edge at r = 5.0 kpc</text>
</svg>