<svg xmlns="http://www.w3.org/2000/svg" viewBox="0 0 960 450" width="960" height="450" font-family="sans-serif" font-size="12">
<style>
  .ax { stroke: #333; stroke-width: 1; fill: none; }
  .grid { stroke: #ddd; stroke-width: 0.5; fill: none; }
  .lbl { fill: #333; }
  .lbl-l { fill: #0066cc; }
  .lbl-r { fill: #b03030; }
  .obs { fill: #222; }
  .err { stroke: #555; stroke-width: 0.8; fill: none; }
  .fw { stroke: #0066cc; stroke-width: 2.2; fill: none; }
  .nt { stroke: #cc6600; stroke-width: 1.6; fill: none; stroke-dasharray: 5,3; }
  .mond { stroke: #7b2cbf; stroke-width: 1.8; fill: none; stroke-dasharray: 7,3; }
  .lbl-p { fill: #cc7000; }
  .lbl-m { fill: #7b2cbf; }
  .rho { stroke: #b03030; stroke-width: 2.0; fill: none; }
  .phot { stroke: #cc7000; stroke-width: 1.8; fill: none; }
  .mbar { stroke: #8e44ad; stroke-width: 1.8; fill: none; opacity: 0.9; }
  .mph { stroke: #c77dff; stroke-width: 1.6; fill: none; stroke-dasharray: 4,3; opacity: 0.95; }
  .title { fill: #111; font-size: 16px; font-weight: 600; }
  .subtitle { fill: #555; font-size: 11px; }
  .preview-bg { fill: #000; }
  .preview-lbl { fill: #888; font-size: 10px; }
  .legend { font-size: 11px; }
</style>
<text x="378.5" y="22" text-anchor="middle" class="title">UGC05918</text>
<text x="378.5" y="38" text-anchor="middle" class="subtitle">rMax=4.5 kpc, N=8, FW=0.9 km/s, 2.1%, 0.22σ, MOND=4.3 km/s, 10.8%, 1.10σ, amp=104</text>
<line x1="70" y1="395.0" x2="687" y2="395.0" class="grid"/>
<text x="64" y="399.0" text-anchor="end" class="lbl-l">0</text>
<line x1="70" y1="327.0" x2="687" y2="327.0" class="grid"/>
<text x="64" y="331.0" text-anchor="end" class="lbl-l">12</text>
<line x1="70" y1="259.0" x2="687" y2="259.0" class="grid"/>
<text x="64" y="263.0" text-anchor="end" class="lbl-l">23</text>
<line x1="70" y1="191.0" x2="687" y2="191.0" class="grid"/>
<text x="64" y="195.0" text-anchor="end" class="lbl-l">35</text>
<line x1="70" y1="123.0" x2="687" y2="123.0" class="grid"/>
<text x="64" y="127.0" text-anchor="end" class="lbl-l">46</text>
<line x1="70" y1="55.0" x2="687" y2="55.0" class="grid"/>
<text x="64" y="59.0" text-anchor="end" class="lbl-l">58</text>
<text x="693" y="399.0" text-anchor="start" class="lbl-r">0.0</text>
<text x="693" y="353.7" text-anchor="start" class="lbl-r">0.2</text>
<text x="693" y="308.3" text-anchor="start" class="lbl-r">0.4</text>
<text x="693" y="263.0" text-anchor="start" class="lbl-r">0.6</text>
<text x="693" y="217.7" text-anchor="start" class="lbl-r">0.8</text>
<text x="693" y="172.3" text-anchor="start" class="lbl-r">1.0</text>
<line x1="70.0" y1="55" x2="70.0" y2="395" class="grid"/>
<text x="70.0" y="411" text-anchor="middle" class="lbl">0.0</text>
<line x1="172.8" y1="55" x2="172.8" y2="395" class="grid"/>
<text x="172.8" y="411" text-anchor="middle" class="lbl">0.8</text>
<line x1="275.7" y1="55" x2="275.7" y2="395" class="grid"/>
<text x="275.7" y="411" text-anchor="middle" class="lbl">1.6</text>
<line x1="378.5" y1="55" x2="378.5" y2="395" class="grid"/>
<text x="378.5" y="411" text-anchor="middle" class="lbl">2.3</text>
<line x1="481.3" y1="55" x2="481.3" y2="395" class="grid"/>
<text x="481.3" y="411" text-anchor="middle" class="lbl">3.1</text>
<line x1="584.2" y1="55" x2="584.2" y2="395" class="grid"/>
<text x="584.2" y="411" text-anchor="middle" class="lbl">3.9</text>
<line x1="687.0" y1="55" x2="687.0" y2="395" class="grid"/>
<text x="687.0" y="411" text-anchor="middle" class="lbl">4.7</text>
<text x="378.5" y="438" text-anchor="middle" class="lbl">radius (kpc)</text>
<text x="16" y="225" text-anchor="middle" class="lbl-l" transform="rotate(-90, 16, 225)">velocity (km/s)</text>
<text x="724" y="225" text-anchor="middle" class="lbl-r" transform="rotate(-90, 724, 225)">profiles (normalized to peak)</text>
<rect x="70" y="55" width="617" height="340" class="ax"/>
<path d="M 70.0,168.3 L 72.8,180.5 L 75.6,192.7 L 78.5,204.9 L 81.3,217.1 L 84.1,229.3 L 86.9,241.5 L 89.7,243.7 L 92.5,244.1 L 95.4,244.4 L 98.2,244.8 L 101.0,245.2 L 103.8,245.6 L 106.6,246.0 L 109.4,246.4 L 112.3,246.8 L 115.1,247.1 L 117.9,247.5 L 120.7,247.9 L 123.5,248.3 L 126.3,248.8 L 129.2,249.3 L 132.0,249.8 L 134.8,250.4 L 137.6,250.9 L 140.4,251.4 L 143.3,251.9 L 146.1,252.5 L 148.9,253.0 L 151.7,253.5 L 154.5,254.1 L 157.3,254.6 L 160.2,255.1 L 163.0,255.7 L 165.8,256.2 L 168.6,256.7 L 171.4,257.3 L 174.2,257.8 L 177.1,258.3 L 179.9,258.8 L 182.7,259.4 L 185.5,259.9 L 188.3,260.4 L 191.1,261.0 L 194.0,261.5 L 196.8,262.0 L 199.6,262.6 L 202.4,263.1 L 205.2,263.6 L 208.1,264.1 L 210.9,264.7 L 213.7,265.2 L 216.5,265.7 L 219.3,266.3 L 222.1,266.8 L 225.0,267.3 L 227.8,267.9 L 230.6,268.4 L 233.4,268.9 L 236.2,269.5 L 239.0,270.0 L 241.9,270.5 L 244.7,271.0 L 247.5,271.6 L 250.3,272.1 L 253.1,272.6 L 255.9,273.2 L 258.8,273.7 L 261.6,274.2 L 264.4,274.8 L 267.2,275.3 L 270.0,275.8 L 272.8,276.3 L 275.7,276.8 L 278.5,277.2 L 281.3,277.6 L 284.1,278.0 L 286.9,278.4 L 289.8,278.8 L 292.6,279.2 L 295.4,279.7 L 298.2,280.1 L 301.0,280.5 L 303.8,280.9 L 306.7,281.3 L 309.5,281.7 L 312.3,282.1 L 315.1,282.6 L 317.9,283.0 L 320.7,283.4 L 323.6,283.8 L 326.4,284.2 L 329.2,284.6 L 332.0,285.0 L 334.8,285.4 L 337.6,285.9 L 340.5,286.3 L 343.3,286.7 L 346.1,287.1 L 348.9,287.5 L 351.7,287.9 L 354.6,288.3 L 357.4,288.8 L 360.2,289.2 L 363.0,289.6 L 365.8,290.0 L 368.6,290.4 L 371.5,290.8 L 374.3,291.2 L 377.1,291.6 L 379.9,292.1 L 382.7,292.5 L 385.5,292.9 L 388.4,293.3 L 391.2,293.7 L 394.0,294.1 L 396.8,294.5 L 399.6,295.0 L 402.4,295.4 L 405.3,295.8 L 408.1,296.2 L 410.9,296.6 L 413.7,297.0 L 416.5,297.4 L 419.4,297.8 L 422.2,298.3 L 425.0,298.7 L 427.8,299.1 L 430.6,299.5 L 433.4,299.9 L 436.3,300.3 L 439.1,300.7 L 441.9,301.2 L 444.7,301.6 L 447.5,302.0 L 450.3,302.4 L 453.2,302.8 L 456.0,303.2 L 458.8,303.6 L 461.6,304.0 L 464.4,304.5 L 467.2,304.9 L 470.1,305.3 L 472.9,305.7 L 475.7,306.1 L 478.5,306.5 L 481.3,306.9 L 484.2,307.4 L 487.0,307.8 L 489.8,308.2 L 492.6,308.6 L 495.4,309.0 L 498.2,309.4 L 501.1,309.8 L 503.9,310.2 L 506.7,310.7 L 509.5,311.1 L 512.3,311.5 L 515.1,311.9 L 518.0,312.3 L 520.8,312.7 L 523.6,313.1 L 526.4,313.6 L 529.2,314.0 L 532.0,314.4 L 534.9,314.8 L 537.7,315.2 L 540.5,315.6 L 543.3,316.0 L 546.1,316.5 L 548.9,316.9 L 551.8,317.3 L 554.6,317.7 L 557.4,318.1 L 560.2,318.5 L 563.0,318.9 L 565.9,319.3 L 568.7,319.8 L 571.5,320.2 L 574.3,320.6 L 577.1,321.0 L 579.9,321.4 L 582.8,321.8 L 585.6,322.2 L 588.4,322.7 L 591.2,323.1 L 594.0,323.5 L 596.8,323.9 L 599.7,324.3 L 602.5,324.7 L 605.3,325.1 L 608.1,325.5 L 610.9,326.0 L 613.7,326.4 L 616.6,326.8 L 619.4,327.2 L 622.2,327.6 L 625.0,328.0 L 627.8,328.4 L 630.7,328.9 L 633.5,329.3 L 636.3,329.7 L 639.1,330.1 L 641.9,330.5 L 644.7,330.9 L 647.6,331.3 L 650.4,331.7 L 653.2,347.4 L 656.0,377.7 L 658.8,395.0 L 661.6,395.0 L 664.5,395.0 L 667.3,395.0 L 670.1,395.0 L 672.9,395.0 L 675.7,395.0 L 678.5,395.0 L 681.4,395.0 L 684.2,395.0 L 687.0,395.0" class="rho"/>
<path d="M 143.6,168.3 L 216.0,237.8 L 289.6,286.2 L 363.3,315.9 L 436.9,350.8 L 509.2,357.4 L 582.9,359.9 L 656.5,395.0" class="phot"/>
<path d="M 143.6,255.8 L 216.0,255.9 L 289.6,227.4 L 363.3,168.3 L 436.9,179.0 L 509.2,233.8 L 582.9,231.0 L 656.5,208.7" class="mbar"/>
<path d="M 143.6,215.3 L 216.0,215.4 L 289.6,200.0 L 363.3,168.3 L 436.9,173.8 L 509.2,201.9 L 582.9,200.4 L 656.5,189.3" class="mph"/>
<path d="M 76.2,354.3 L 82.3,340.0 L 88.5,330.8 L 94.7,323.0 L 100.8,315.7 L 107.0,308.9 L 113.2,302.6 L 119.4,296.7 L 125.5,291.2 L 131.7,285.9 L 137.9,281.0 L 144.0,276.3 L 150.2,271.8 L 156.4,267.5 L 162.6,263.4 L 168.7,259.5 L 174.9,255.7 L 181.1,252.1 L 187.2,248.6 L 193.4,245.2 L 199.6,242.0 L 205.7,238.8 L 211.9,235.7 L 218.1,232.8 L 224.3,229.9 L 230.4,227.1 L 236.6,224.4 L 242.8,221.8 L 248.9,219.2 L 255.1,216.8 L 261.3,214.3 L 267.4,212.0 L 273.6,209.7 L 279.8,207.5 L 286.0,205.3 L 292.1,203.1 L 298.3,201.1 L 304.5,199.0 L 310.6,197.0 L 316.8,195.0 L 323.0,193.1 L 329.1,191.2 L 335.3,189.4 L 341.5,187.6 L 347.7,185.8 L 353.8,184.1 L 360.0,182.4 L 366.2,180.7 L 372.3,179.1 L 378.5,177.5 L 384.7,175.9 L 390.8,174.4 L 397.0,172.9 L 403.2,171.4 L 409.3,170.0 L 415.5,168.6 L 421.7,167.2 L 427.9,165.8 L 434.0,164.5 L 440.2,163.2 L 446.4,162.0 L 452.5,160.7 L 458.7,159.5 L 464.9,158.3 L 471.1,157.1 L 477.2,156.0 L 483.4,154.9 L 489.6,153.8 L 495.7,152.7 L 501.9,151.7 L 508.1,150.7 L 514.2,149.7 L 520.4,148.7 L 526.6,147.8 L 532.8,146.8 L 538.9,145.9 L 545.1,145.0 L 551.3,144.2 L 557.4,143.3 L 563.6,142.5 L 569.8,141.7 L 575.9,141.0 L 582.1,140.2 L 588.3,139.5 L 594.4,138.8 L 600.6,138.1 L 606.8,137.4 L 613.0,136.8 L 619.1,136.1 L 625.3,135.5 L 631.5,134.9 L 637.6,134.4 L 643.8,133.8 L 650.0,133.3 L 656.1,133.2 L 662.3,134.6 L 668.5,135.8 L 674.7,137.2 L 680.8,138.6 L 687.0,139.9" class="nt"/>
<path d="M 143.6,293.6 L 216.0,250.3 L 289.6,220.7 L 363.3,172.7 L 436.9,140.9 L 509.2,127.8 L 582.9,107.0 L 656.5,85.9" class="mond"/>
<path d="M 75.1,381.2 L 80.3,371.6 L 85.4,361.8 L 90.6,353.3 L 95.7,345.8 L 100.8,339.4 L 106.0,333.4 L 111.1,327.7 L 116.3,322.0 L 121.4,316.5 L 126.6,310.9 L 131.7,305.5 L 136.8,300.1 L 142.0,294.8 L 147.1,289.7 L 152.3,284.7 L 157.4,279.8 L 162.6,275.0 L 167.7,270.4 L 172.8,265.9 L 178.0,261.6 L 183.1,257.4 L 188.3,253.3 L 193.4,249.4 L 198.5,245.6 L 203.7,241.9 L 208.8,238.4 L 214.0,235.0 L 219.1,231.7 L 224.3,228.6 L 229.4,225.6 L 234.5,222.7 L 239.7,219.9 L 244.8,217.3 L 250.0,214.8 L 255.1,212.5 L 260.2,210.3 L 265.4,208.2 L 270.5,206.2 L 275.7,204.3 L 280.8,202.4 L 285.9,200.6 L 291.1,198.9 L 296.2,197.2 L 301.4,195.5 L 306.5,193.8 L 311.7,192.2 L 316.8,190.6 L 321.9,189.0 L 327.1,187.4 L 332.2,185.9 L 337.4,184.4 L 342.5,183.0 L 347.7,181.5 L 352.8,180.2 L 357.9,178.8 L 363.1,177.5 L 368.2,176.2 L 373.4,175.0 L 378.5,173.7 L 383.6,172.6 L 388.8,171.4 L 393.9,170.3 L 399.1,169.3 L 404.2,168.2 L 409.3,167.2 L 414.5,166.3 L 419.6,165.4 L 424.8,164.5 L 429.9,163.6 L 435.1,162.8 L 440.2,162.0 L 445.3,161.2 L 450.5,160.5 L 455.6,159.8 L 460.8,159.1 L 465.9,158.4 L 471.1,157.8 L 476.2,157.2 L 481.3,156.6 L 486.5,156.1 L 491.6,155.5 L 496.8,155.0 L 501.9,154.5 L 507.0,154.0 L 512.2,153.5 L 517.3,153.0 L 522.5,152.5 L 527.6,152.1 L 532.8,151.6 L 537.9,151.0 L 543.0,150.5 L 548.2,149.9 L 553.3,149.3 L 558.5,148.7 L 563.6,148.0 L 568.7,147.2 L 573.9,146.3 L 579.0,145.3 L 584.2,144.1 L 589.3,142.8 L 594.5,141.3 L 599.6,139.6 L 604.7,137.6 L 609.9,135.2 L 615.0,132.6 L 620.2,129.5 L 625.3,126.3 L 630.4,122.9 L 635.6,119.7 L 640.7,117.0 L 645.9,115.7 L 651.0,116.0 L 656.2,118.3 L 661.3,122.8 L 666.4,128.9 L 671.6,136.3 L 676.7,144.2 L 681.9,152.3 L 687.0,160.2" class="fw"/>
<line x1="143.64" y1="271.84" x2="143.64" y2="318.32" class="err"/>
<line x1="140.64" y1="271.84" x2="146.64" y2="271.84" class="err"/>
<line x1="140.64" y1="318.32" x2="146.64" y2="318.32" class="err"/>
<circle cx="143.64" cy="295.08" r="2.5" class="obs"/>
<line x1="215.97" y1="209.76" x2="215.97" y2="256.24" class="err"/>
<line x1="212.97" y1="209.76" x2="218.97" y2="209.76" class="err"/>
<line x1="212.97" y1="256.24" x2="218.97" y2="256.24" class="err"/>
<circle cx="215.97" cy="233.00" r="2.5" class="obs"/>
<line x1="289.62" y1="173.70" x2="289.62" y2="220.17" class="err"/>
<line x1="286.62" y1="173.70" x2="292.62" y2="173.70" class="err"/>
<line x1="286.62" y1="220.17" x2="292.62" y2="220.17" class="err"/>
<circle cx="289.62" cy="196.93" r="2.5" class="obs"/>
<line x1="363.26" y1="156.55" x2="363.26" y2="203.02" class="err"/>
<line x1="360.26" y1="156.55" x2="366.26" y2="156.55" class="err"/>
<line x1="360.26" y1="203.02" x2="366.26" y2="203.02" class="err"/>
<circle cx="363.26" cy="179.79" r="2.5" class="obs"/>
<line x1="436.90" y1="136.45" x2="436.90" y2="182.92" class="err"/>
<line x1="433.90" y1="136.45" x2="439.90" y2="136.45" class="err"/>
<line x1="433.90" y1="182.92" x2="439.90" y2="182.92" class="err"/>
<circle cx="436.90" cy="159.68" r="2.5" class="obs"/>
<line x1="509.23" y1="128.17" x2="509.23" y2="174.64" class="err"/>
<line x1="506.23" y1="128.17" x2="512.23" y2="128.17" class="err"/>
<line x1="506.23" y1="174.64" x2="512.23" y2="174.64" class="err"/>
<circle cx="509.23" cy="151.41" r="2.5" class="obs"/>
<line x1="582.88" y1="119.89" x2="582.88" y2="166.37" class="err"/>
<line x1="579.88" y1="119.89" x2="585.88" y2="119.89" class="err"/>
<line x1="579.88" y1="166.37" x2="585.88" y2="166.37" class="err"/>
<circle cx="582.88" cy="143.13" r="2.5" class="obs"/>
<line x1="656.52" y1="108.66" x2="656.52" y2="155.13" class="err"/>
<line x1="653.52" y1="108.66" x2="659.52" y2="108.66" class="err"/>
<line x1="653.52" y1="155.13" x2="659.52" y2="155.13" class="err"/>
<circle cx="656.52" cy="131.90" r="2.5" class="obs"/>
<g class="legend">
<line x1="82" y1="69" x2="106" y2="69" class="fw"/>
<text x="112" y="73" class="lbl-l">framework: 0.9 km/s, 2.1%, 0.22σ</text>
<line x1="82" y1="87" x2="106" y2="87" class="nt"/>
<text x="112" y="91" class="lbl-l">Newtonian: 1.2 km/s, 6.7%, 0.31σ</text>
<line x1="82" y1="105" x2="106" y2="105" class="mond"/>
<text x="112" y="109" class="lbl-m">MOND/RAR: 4.3 km/s, 10.8%, 1.10σ</text>
<circle cx="94" cy="123" r="2.5" class="obs"/>
<text x="112" y="127" class="lbl">observed V±err</text>
</g>
<g class="legend">
<line x1="472" y1="69" x2="496" y2="69" class="rho"/>
<text x="502" y="73" class="lbl-r">ρ(r) raw</text>
<line x1="472" y1="87" x2="496" y2="87" class="phot"/>
<text x="502" y="91" class="lbl-p">photometric baryonic profile</text>
<line x1="472" y1="105" x2="496" y2="105" class="mbar"/>
<text x="502" y="109" class="lbl-m">MOND baryonic annulus</text>
<line x1="472" y1="123" x2="496" y2="123" class="mph"/>
<text x="502" y="127" class="lbl-m">MOND phantom annulus</text>
<text x="472" y="147" class="lbl-r">ρ peak: 81 M☉/pc²</text>
<text x="472" y="163" class="lbl-p">phot peak: 6.69 (arb.)</text>
<text x="472" y="179" class="lbl-m">Σbar peak: 8.02 M☉/pc²</text>
<text x="472" y="195" class="lbl-m">Σphantom peak: 43.30 M☉/pc²</text>
</g>
<rect x="775" y="55" width="170" height="170" class="preview-bg"/>
<defs><radialGradient id="g_UGC05918" cx="0.5" cy="0.5" r="0.5">
  <stop offset="0.0000" stop-color="rgb(161,40,40)"/>
  <stop offset="0.0313" stop-color="rgb(124,31,31)"/>
  <stop offset="0.0625" stop-color="rgb(123,31,31)"/>
  <stop offset="0.0938" stop-color="rgb(122,31,31)"/>
  <stop offset="0.1250" stop-color="rgb(120,30,30)"/>
  <stop offset="0.1563" stop-color="rgb(118,30,30)"/>
  <stop offset="0.1875" stop-color="rgb(117,29,29)"/>
  <stop offset="0.2188" stop-color="rgb(115,29,29)"/>
  <stop offset="0.2500" stop-color="rgb(113,28,28)"/>
  <stop offset="0.2813" stop-color="rgb(111,28,28)"/>
  <stop offset="0.3125" stop-color="rgb(110,28,28)"/>
  <stop offset="0.3438" stop-color="rgb(108,27,27)"/>
  <stop offset="0.3750" stop-color="rgb(107,27,27)"/>
  <stop offset="0.4063" stop-color="rgb(105,26,26)"/>
  <stop offset="0.4375" stop-color="rgb(104,26,26)"/>
  <stop offset="0.4688" stop-color="rgb(103,26,26)"/>
  <stop offset="0.5000" stop-color="rgb(101,25,25)"/>
  <stop offset="0.5313" stop-color="rgb(100,25,25)"/>
  <stop offset="0.5625" stop-color="rgb(99,25,25)"/>
  <stop offset="0.5938" stop-color="rgb(98,25,25)"/>
  <stop offset="0.6250" stop-color="rgb(96,24,24)"/>
  <stop offset="0.6563" stop-color="rgb(95,24,24)"/>
  <stop offset="0.6875" stop-color="rgb(94,24,24)"/>
  <stop offset="0.7188" stop-color="rgb(92,23,23)"/>
  <stop offset="0.7500" stop-color="rgb(91,23,23)"/>
  <stop offset="0.7813" stop-color="rgb(90,23,23)"/>
  <stop offset="0.8125" stop-color="rgb(88,22,22)"/>
  <stop offset="0.8438" stop-color="rgb(87,22,22)"/>
  <stop offset="0.8750" stop-color="rgb(86,22,22)"/>
  <stop offset="0.9063" stop-color="rgb(84,21,21)"/>
  <stop offset="0.9375" stop-color="rgb(83,21,21)"/>
  <stop offset="0.9688" stop-color="rgb(82,21,21)"/>
  <stop offset="1.0000" stop-color="rgb(0,0,0)"/>
</radialGradient></defs>
<circle cx="860" cy="140" r="81" fill="url(#g_UGC05918)"/>
<text x="860" y="49" text-anchor="middle" class="preview-lbl">face-on luminance from ρ(r)</text>
<text x="860" y="239" text-anchor="middle" class="preview-lbl">edge at r = 4.5 kpc</text>
</svg>