<svg xmlns="http://www.w3.org/2000/svg" viewBox="0 0 720 420" width="720" height="420" font-family="sans-serif" font-size="12">
<style>
  .ax { stroke: #333; stroke-width: 1; fill: none; }
  .grid { stroke: #ddd; stroke-width: 0.5; fill: none; }
  .lbl { fill: #333; }
  .lbl-l { fill: #0066cc; }
  .lbl-r { fill: #b03030; }
  .obs { fill: #222; }
  .err { stroke: #555; stroke-width: 0.8; fill: none; }
  .fw { stroke: #0066cc; stroke-width: 2.2; fill: none; }
  .nt { stroke: #cc6600; stroke-width: 1.6; fill: none; stroke-dasharray: 5,3; }
  .rho { stroke: #b03030; stroke-width: 2.0; fill: none; }
  .sig { stroke: #b03030; stroke-width: 1.6; fill: none; stroke-dasharray: 4,2; opacity: 0.85; }
  .title { fill: #111; font-size: 16px; font-weight: 600; }
  .subtitle { fill: #555; font-size: 11px; }
  .legend { font-size: 11px; }
</style>
<text x="360.0" y="22" text-anchor="middle" class="title">UGC07323</text>
<text x="360.0" y="38" text-anchor="middle" class="subtitle">rMax=5.8 kpc, N=10, RMS=0.9 km/s (1.5%), amp=104</text>
<line x1="70" y1="365.0" x2="635" y2="365.0" class="grid"/>
<text x="64" y="369.0" text-anchor="end" class="lbl-l">0</text>
<line x1="70" y1="303.0" x2="635" y2="303.0" class="grid"/>
<text x="64" y="307.0" text-anchor="end" class="lbl-l">20</text>
<line x1="70" y1="241.00000000000003" x2="635" y2="241.00000000000003" class="grid"/>
<text x="64" y="245.00000000000003" text-anchor="end" class="lbl-l">39</text>
<line x1="70" y1="179.0" x2="635" y2="179.0" class="grid"/>
<text x="64" y="183.0" text-anchor="end" class="lbl-l">59</text>
<line x1="70" y1="117.00000000000003" x2="635" y2="117.00000000000003" class="grid"/>
<text x="64" y="121.00000000000003" text-anchor="end" class="lbl-l">79</text>
<line x1="70" y1="55.0" x2="635" y2="55.0" class="grid"/>
<text x="64" y="59.0" text-anchor="end" class="lbl-l">98</text>
<text x="641" y="369.0" text-anchor="start" class="lbl-r">0.0</text>
<text x="641" y="327.6666666666667" text-anchor="start" class="lbl-r">0.2</text>
<text x="641" y="286.33333333333337" text-anchor="start" class="lbl-r">0.4</text>
<text x="641" y="245.00000000000003" text-anchor="start" class="lbl-r">0.6</text>
<text x="641" y="203.66666666666666" text-anchor="start" class="lbl-r">0.8</text>
<text x="641" y="162.33333333333334" text-anchor="start" class="lbl-r">1.0</text>
<line x1="70.0" y1="55" x2="70.0" y2="365" class="grid"/>
<text x="70.0" y="381" text-anchor="middle" class="lbl">0.0</text>
<line x1="164.16666666666669" y1="55" x2="164.16666666666669" y2="365" class="grid"/>
<text x="164.16666666666669" y="381" text-anchor="middle" class="lbl">1.1</text>
<line x1="258.33333333333337" y1="55" x2="258.33333333333337" y2="365" class="grid"/>
<text x="258.33333333333337" y="381" text-anchor="middle" class="lbl">2.1</text>
<line x1="352.49999999999994" y1="55" x2="352.49999999999994" y2="365" class="grid"/>
<text x="352.49999999999994" y="381" text-anchor="middle" class="lbl">3.2</text>
<line x1="446.6666666666667" y1="55" x2="446.6666666666667" y2="365" class="grid"/>
<text x="446.6666666666667" y="381" text-anchor="middle" class="lbl">4.2</text>
<line x1="540.8333333333335" y1="55" x2="540.8333333333335" y2="365" class="grid"/>
<text x="540.8333333333335" y="381" text-anchor="middle" class="lbl">5.3</text>
<line x1="634.9999999999999" y1="55" x2="634.9999999999999" y2="365" class="grid"/>
<text x="634.9999999999999" y="381" text-anchor="middle" class="lbl">6.4</text>
<text x="352.5" y="408" text-anchor="middle" class="lbl">radius (kpc)</text>
<text x="16" y="210.0" text-anchor="middle" class="lbl-l" transform="rotate(-90, 16, 210.0)">velocity (km/s)</text>
<text x="704" y="210.0" text-anchor="middle" class="lbl-r" transform="rotate(-90, 704, 210.0)">mass profile (normalized to peak)</text>
<rect x="70" y="55" width="565" height="310" class="ax"/>
<path d="M 70.0,158.3 L 72.6,171.4 L 75.2,184.4 L 77.7,197.5 L 80.3,210.5 L 82.9,211.5 L 85.5,212.3 L 88.1,213.2 L 90.6,214.1 L 93.2,214.9 L 95.8,215.8 L 98.4,216.6 L 101.0,217.5 L 103.5,218.4 L 106.1,219.2 L 108.7,220.1 L 111.3,220.9 L 113.9,221.8 L 116.4,222.7 L 119.0,223.5 L 121.6,224.4 L 124.2,225.2 L 126.8,226.1 L 129.3,227.0 L 131.9,227.8 L 134.5,228.7 L 137.1,229.5 L 139.7,230.4 L 142.2,231.2 L 144.8,232.1 L 147.4,233.0 L 150.0,233.8 L 152.6,234.7 L 155.1,235.5 L 157.7,236.4 L 160.3,237.3 L 162.9,238.1 L 165.5,238.3 L 168.0,238.6 L 170.6,238.9 L 173.2,239.1 L 175.8,239.4 L 178.4,239.7 L 180.9,239.9 L 183.5,240.2 L 186.1,240.5 L 188.7,240.7 L 191.3,241.0 L 193.8,241.3 L 196.4,241.5 L 199.0,241.8 L 201.6,242.1 L 204.2,242.3 L 206.7,242.6 L 209.3,242.9 L 211.9,243.1 L 214.5,243.4 L 217.1,243.7 L 219.6,243.9 L 222.2,244.2 L 224.8,244.5 L 227.4,244.7 L 230.0,245.0 L 232.5,245.3 L 235.1,245.5 L 237.7,245.8 L 240.3,246.1 L 242.9,246.4 L 245.4,246.6 L 248.0,246.9 L 250.6,247.2 L 253.2,247.4 L 255.8,247.7 L 258.3,248.0 L 260.9,248.2 L 263.5,248.5 L 266.1,248.8 L 268.7,249.0 L 271.2,249.3 L 273.8,249.6 L 276.4,249.8 L 279.0,250.1 L 281.6,250.4 L 284.1,250.6 L 286.7,250.9 L 289.3,251.2 L 291.9,251.4 L 294.5,251.7 L 297.0,252.0 L 299.6,252.2 L 302.2,252.5 L 304.8,252.8 L 307.4,253.0 L 309.9,253.3 L 312.5,253.6 L 315.1,253.8 L 317.7,254.1 L 320.3,254.4 L 322.8,254.6 L 325.4,254.9 L 328.0,255.2 L 330.6,255.4 L 333.2,255.7 L 335.7,256.0 L 338.3,256.3 L 340.9,256.5 L 343.5,256.8 L 346.1,257.1 L 348.6,257.3 L 351.2,257.6 L 353.8,257.9 L 356.4,258.1 L 358.9,258.4 L 361.5,258.7 L 364.1,258.9 L 366.7,259.2 L 369.3,259.5 L 371.8,259.7 L 374.4,260.0 L 377.0,260.3 L 379.6,260.5 L 382.2,260.8 L 384.7,261.1 L 387.3,261.3 L 389.9,261.6 L 392.5,262.2 L 395.1,262.7 L 397.6,263.2 L 400.2,263.7 L 402.8,264.2 L 405.4,264.8 L 408.0,265.3 L 410.5,265.8 L 413.1,266.3 L 415.7,266.8 L 418.3,267.4 L 420.9,267.9 L 423.4,268.4 L 426.0,268.9 L 428.6,269.4 L 431.2,270.0 L 433.8,270.5 L 436.3,271.0 L 438.9,271.5 L 441.5,272.0 L 444.1,272.6 L 446.7,273.1 L 449.2,273.6 L 451.8,274.1 L 454.4,274.6 L 457.0,275.2 L 459.6,275.7 L 462.1,276.2 L 464.7,276.7 L 467.3,277.2 L 469.9,277.7 L 472.5,278.3 L 475.0,278.8 L 477.6,279.3 L 480.2,279.8 L 482.8,280.3 L 485.4,280.9 L 487.9,281.4 L 490.5,281.9 L 493.1,282.4 L 495.7,282.9 L 498.3,283.5 L 500.8,284.0 L 503.4,284.5 L 506.0,285.0 L 508.6,285.5 L 511.2,286.1 L 513.7,286.6 L 516.3,287.1 L 518.9,287.6 L 521.5,288.1 L 524.1,288.7 L 526.6,289.2 L 529.2,289.7 L 531.8,290.2 L 534.4,290.7 L 537.0,291.3 L 539.5,291.8 L 542.1,292.3 L 544.7,292.8 L 547.3,293.3 L 549.9,293.9 L 552.4,294.4 L 555.0,294.9 L 557.6,295.4 L 560.2,295.9 L 562.8,296.5 L 565.3,297.0 L 567.9,297.5 L 570.5,298.0 L 573.1,298.5 L 575.7,299.1 L 578.2,299.6 L 580.8,300.1 L 583.4,300.6 L 586.0,301.1 L 588.6,308.2 L 591.1,315.7 L 593.7,323.2 L 596.3,330.7 L 598.9,338.2 L 601.5,345.7 L 604.0,353.2 L 606.6,360.7 L 609.2,365.0 L 611.8,365.0 L 614.4,365.0 L 616.9,365.0 L 619.5,365.0 L 622.1,365.0 L 624.7,365.0 L 627.3,365.0 L 629.8,365.0 L 632.4,365.0 L 635.0,365.0" class="rho"/>
<path d="M 70.0,158.3 L 72.6,158.4 L 75.2,158.5 L 77.7,158.7 L 80.3,158.9 L 82.9,159.2 L 85.5,159.5 L 88.1,159.8 L 90.6,160.2 L 93.2,160.6 L 95.8,161.1 L 98.4,161.6 L 101.0,162.1 L 103.5,162.6 L 106.1,163.2 L 108.7,163.8 L 111.3,164.4 L 113.9,165.0 L 116.4,165.6 L 119.0,166.3 L 121.6,167.0 L 124.2,167.6 L 126.8,168.3 L 129.3,169.0 L 131.9,169.8 L 134.5,170.5 L 137.1,171.2 L 139.7,172.0 L 142.2,172.7 L 144.8,173.5 L 147.4,174.2 L 150.0,175.0 L 152.6,175.7 L 155.1,176.5 L 157.7,177.2 L 160.3,178.0 L 162.9,178.7 L 165.5,179.5 L 168.0,180.2 L 170.6,180.9 L 173.2,181.7 L 175.8,182.4 L 178.4,183.1 L 180.9,183.8 L 183.5,184.6 L 186.1,185.3 L 188.7,186.0 L 191.3,186.7 L 193.8,187.4 L 196.4,188.1 L 199.0,188.9 L 201.6,189.6 L 204.2,190.3 L 206.7,191.0 L 209.3,191.7 L 211.9,192.4 L 214.5,193.2 L 217.1,193.9 L 219.6,194.6 L 222.2,195.3 L 224.8,196.0 L 227.4,196.8 L 230.0,197.5 L 232.5,198.2 L 235.1,198.9 L 237.7,199.7 L 240.3,200.4 L 242.9,201.1 L 245.4,201.9 L 248.0,202.6 L 250.6,203.4 L 253.2,204.1 L 255.8,204.8 L 258.3,205.6 L 260.9,206.3 L 263.5,207.1 L 266.1,207.9 L 268.7,208.6 L 271.2,209.4 L 273.8,210.1 L 276.4,210.9 L 279.0,211.6 L 281.6,212.4 L 284.1,213.2 L 286.7,214.0 L 289.3,214.7 L 291.9,215.5 L 294.5,216.3 L 297.0,217.1 L 299.6,217.8 L 302.2,218.6 L 304.8,219.4 L 307.4,220.2 L 309.9,221.0 L 312.5,221.8 L 315.1,222.6 L 317.7,223.4 L 320.3,224.2 L 322.8,225.0 L 325.4,225.8 L 328.0,226.6 L 330.6,227.4 L 333.2,228.3 L 335.7,229.1 L 338.3,229.9 L 340.9,230.7 L 343.5,231.6 L 346.1,232.4 L 348.6,233.2 L 351.2,234.1 L 353.8,234.9 L 356.4,235.8 L 358.9,236.6 L 361.5,237.5 L 364.1,238.3 L 366.7,239.2 L 369.3,240.1 L 371.8,240.9 L 374.4,241.8 L 377.0,242.7 L 379.6,243.6 L 382.2,244.5 L 384.7,245.4 L 387.3,246.3 L 389.9,247.2 L 392.5,248.1 L 395.1,249.0 L 397.6,249.9 L 400.2,250.9 L 402.8,251.8 L 405.4,252.7 L 408.0,253.7 L 410.5,254.6 L 413.1,255.6 L 415.7,256.5 L 418.3,257.5 L 420.9,258.4 L 423.4,259.4 L 426.0,260.3 L 428.6,261.3 L 431.2,262.2 L 433.8,263.2 L 436.3,264.1 L 438.9,265.1 L 441.5,266.1 L 444.1,267.0 L 446.7,268.0 L 449.2,268.9 L 451.8,269.9 L 454.4,270.8 L 457.0,271.8 L 459.6,272.7 L 462.1,273.7 L 464.7,274.6 L 467.3,275.6 L 469.9,276.5 L 472.5,277.5 L 475.0,278.4 L 477.6,279.4 L 480.2,280.3 L 482.8,281.2 L 485.4,282.2 L 487.9,283.1 L 490.5,284.0 L 493.1,285.0 L 495.7,285.9 L 498.3,286.8 L 500.8,287.7 L 503.4,288.6 L 506.0,289.6 L 508.6,290.5 L 511.2,291.4 L 513.7,292.3 L 516.3,293.2 L 518.9,294.1 L 521.5,295.0 L 524.1,295.9 L 526.6,296.8 L 529.2,297.7 L 531.8,298.6 L 534.4,299.5 L 537.0,300.4 L 539.5,301.3 L 542.1,302.2 L 544.7,303.1 L 547.3,304.0 L 549.9,305.0 L 552.4,305.9 L 555.0,306.8 L 557.6,307.7 L 560.2,308.6 L 562.8,309.5 L 565.3,310.4 L 567.9,311.3 L 570.5,312.3 L 573.1,313.2 L 575.7,314.1 L 578.2,315.1 L 580.8,316.0 L 583.4,316.9 L 586.0,317.9 L 588.6,318.8 L 591.1,319.7 L 593.7,320.6 L 596.3,321.5 L 598.9,322.4 L 601.5,323.3 L 604.0,324.1 L 606.6,324.9 L 609.2,325.7 L 611.8,326.5 L 614.4,327.2 L 616.9,327.9 L 619.5,328.6 L 622.1,329.3 L 624.7,329.9 L 627.3,330.5 L 629.8,331.1 L 632.4,331.7 L 635.0,332.2" class="sig"/>
<path d="M 75.7,328.4 L 81.3,315.9 L 86.9,306.5 L 92.6,298.3 L 98.2,291.0 L 103.9,284.4 L 109.6,278.4 L 115.2,272.9 L 120.9,267.8 L 126.5,263.0 L 132.2,258.6 L 137.8,254.3 L 143.4,250.4 L 149.1,246.6 L 154.8,243.0 L 160.4,239.6 L 166.1,236.3 L 171.7,233.1 L 177.3,230.0 L 183.0,227.0 L 188.6,224.0 L 194.3,221.1 L 199.9,218.3 L 205.6,215.5 L 211.2,212.8 L 216.9,210.2 L 222.6,207.6 L 228.2,205.1 L 233.9,202.6 L 239.5,200.2 L 245.2,197.8 L 250.8,195.5 L 256.4,193.2 L 262.1,191.0 L 267.8,188.8 L 273.4,186.6 L 279.1,184.5 L 284.7,182.4 L 290.3,180.4 L 296.0,178.4 L 301.6,176.4 L 307.3,174.5 L 312.9,172.5 L 318.6,170.7 L 324.2,168.8 L 329.9,167.0 L 335.6,165.2 L 341.2,163.5 L 346.9,161.8 L 352.5,160.1 L 358.1,158.4 L 363.8,156.8 L 369.4,155.1 L 375.1,153.6 L 380.8,152.0 L 386.4,150.4 L 392.0,148.9 L 397.7,147.4 L 403.3,146.0 L 409.0,144.6 L 414.6,143.2 L 420.3,141.9 L 425.9,140.6 L 431.6,139.4 L 437.2,138.1 L 442.9,137.0 L 448.6,135.8 L 454.2,134.7 L 459.8,133.6 L 465.5,132.5 L 471.1,131.5 L 476.8,130.5 L 482.4,129.5 L 488.1,128.6 L 493.8,127.7 L 499.4,126.8 L 505.0,126.0 L 510.7,125.1 L 516.4,124.3 L 522.0,123.6 L 527.7,122.8 L 533.3,122.1 L 539.0,121.4 L 544.6,120.8 L 550.2,120.1 L 555.9,119.5 L 561.5,118.9 L 567.2,118.3 L 572.9,117.8 L 578.5,117.3 L 584.1,116.8 L 589.8,116.4 L 595.4,116.5 L 601.1,117.0 L 606.8,117.9 L 612.4,119.2 L 618.0,120.5 L 623.7,121.8 L 629.4,123.0 L 635.0,124.2" class="nt"/>
<path d="M 74.7,354.5 L 79.4,346.7 L 84.1,338.6 L 88.8,331.0 L 93.5,324.1 L 98.2,317.6 L 103.0,311.4 L 107.7,305.6 L 112.4,300.0 L 117.1,294.8 L 121.8,289.8 L 126.5,285.1 L 131.2,280.8 L 135.9,276.7 L 140.6,273.0 L 145.3,269.6 L 150.0,266.5 L 154.8,263.8 L 159.5,261.3 L 164.2,259.0 L 168.9,256.8 L 173.6,254.7 L 178.3,252.6 L 183.0,250.5 L 187.7,248.4 L 192.4,246.2 L 197.1,244.0 L 201.8,241.8 L 206.5,239.6 L 211.2,237.3 L 216.0,235.0 L 220.7,232.7 L 225.4,230.4 L 230.1,228.1 L 234.8,225.8 L 239.5,223.5 L 244.2,221.2 L 248.9,218.9 L 253.6,216.7 L 258.3,214.4 L 263.0,212.1 L 267.8,209.9 L 272.5,207.6 L 277.2,205.4 L 281.9,203.1 L 286.6,200.9 L 291.3,198.7 L 296.0,196.5 L 300.7,194.2 L 305.4,192.0 L 310.1,189.8 L 314.8,187.6 L 319.5,185.3 L 324.2,183.1 L 329.0,180.8 L 333.7,178.5 L 338.4,176.2 L 343.1,173.9 L 347.8,171.5 L 352.5,169.1 L 357.2,166.6 L 361.9,164.2 L 366.6,161.6 L 371.3,159.0 L 376.0,156.4 L 380.7,153.7 L 385.5,150.9 L 390.2,148.2 L 394.9,145.6 L 399.6,143.0 L 404.3,140.6 L 409.0,138.3 L 413.7,136.1 L 418.4,134.1 L 423.1,132.1 L 427.8,130.3 L 432.5,128.7 L 437.2,127.1 L 442.0,125.6 L 446.7,124.2 L 451.4,122.9 L 456.1,121.6 L 460.8,120.5 L 465.5,119.3 L 470.2,118.3 L 474.9,117.3 L 479.6,116.3 L 484.3,115.4 L 489.0,114.5 L 493.7,113.6 L 498.5,112.8 L 503.2,111.9 L 507.9,111.0 L 512.6,110.1 L 517.3,109.2 L 522.0,108.3 L 526.7,107.3 L 531.4,106.2 L 536.1,104.9 L 540.8,103.6 L 545.5,102.1 L 550.2,100.5 L 555.0,98.7 L 559.7,96.6 L 564.4,94.4 L 569.1,92.1 L 573.8,90.0 L 578.5,88.2 L 583.2,87.1 L 587.9,87.2 L 592.6,88.7 L 597.3,91.9 L 602.0,96.4 L 606.8,102.3 L 611.5,108.8 L 616.2,115.8 L 620.9,122.8 L 625.6,129.6 L 630.3,136.2 L 635.0,142.3" class="fw"/>
<line x1="121.51887066145065" y1="277.5283233587693" x2="121.51887066145065" y2="301.9082577197029" class="err"/>
<line x1="118.51887066145065" y1="277.5283233587693" x2="124.51887066145065" y2="277.5283233587693" class="err"/>
<line x1="118.51887066145065" y1="301.9082577197029" x2="124.51887066145065" y2="301.9082577197029" class="err"/>
<circle cx="121.51887066145065" cy="289.71829053923614" r="2.5" class="obs"/>
<line x1="173.92599771361594" y1="243.50981029700154" x2="173.92599771361594" y2="267.8897446579351" class="err"/>
<line x1="170.92599771361594" y1="243.50981029700154" x2="176.92599771361594" y2="243.50981029700154" class="err"/>
<line x1="170.92599771361594" y1="267.8897446579351" x2="176.92599771361594" y2="267.8897446579351" class="err"/>
<circle cx="173.92599771361594" cy="255.6997774774683" r="2.5" class="obs"/>
<line x1="225.4448683750666" y1="217.99592550067572" x2="225.4448683750666" y2="242.37585986160929" class="err"/>
<line x1="222.4448683750666" y1="217.99592550067572" x2="228.4448683750666" y2="217.99592550067572" class="err"/>
<line x1="222.4448683750666" y1="242.37585986160929" x2="228.4448683750666" y2="242.37585986160929" class="err"/>
<circle cx="225.4448683750666" cy="230.1858926811425" r="2.5" class="obs"/>
<line x1="276.96373903651727" y1="191.22209577613626" x2="276.96373903651727" y2="215.60203013706985" class="err"/>
<line x1="273.96373903651727" y1="191.22209577613626" x2="279.96373903651727" y2="191.22209577613626" class="err"/>
<line x1="273.96373903651727" y1="215.60203013706985" x2="279.96373903651727" y2="215.60203013706985" class="err"/>
<circle cx="276.96373903651727" cy="203.41206295660302" r="2.5" class="obs"/>
<line x1="328.4826096979679" y1="171.06297692471833" x2="328.4826096979679" y2="195.44291128565186" class="err"/>
<line x1="325.4826096979679" y1="171.06297692471833" x2="331.4826096979679" y2="171.06297692471833" class="err"/>
<line x1="325.4826096979679" y1="195.44291128565186" x2="331.4826096979679" y2="195.44291128565186" class="err"/>
<circle cx="328.4826096979679" cy="183.2529441051851" r="2.5" class="obs"/>
<line x1="380.8897367501332" y1="140.82429864759138" x2="380.8897367501332" y2="165.20423300852497" class="err"/>
<line x1="377.8897367501332" y1="140.82429864759138" x2="383.8897367501332" y2="140.82429864759138" class="err"/>
<line x1="377.8897367501332" y1="165.20423300852497" x2="383.8897367501332" y2="165.20423300852497" class="err"/>
<circle cx="380.8897367501332" cy="153.01426582805817" r="2.5" class="obs"/>
<line x1="431.52035102086916" y1="115.31041385126548" x2="431.52035102086916" y2="139.69034821219913" class="err"/>
<line x1="428.52035102086916" y1="115.31041385126548" x2="434.52035102086916" y2="115.31041385126548" class="err"/>
<line x1="428.52035102086916" y1="139.69034821219913" x2="434.52035102086916" y2="139.69034821219913" class="err"/>
<circle cx="431.52035102086916" cy="127.5003810317323" r="2.5" class="obs"/>
<line x1="483.03922168231986" y1="102.39597833707589" x2="483.03922168231986" y2="126.7759126980095" class="err"/>
<line x1="480.03922168231986" y1="102.39597833707589" x2="486.03922168231986" y2="102.39597833707589" class="err"/>
<line x1="480.03922168231986" y1="126.7759126980095" x2="486.03922168231986" y2="126.7759126980095" class="err"/>
<circle cx="483.03922168231986" cy="114.58594551754271" r="2.5" class="obs"/>
<line x1="534.5580923437706" y1="92.00143267931352" x2="534.5580923437706" y2="116.38136704024714" class="err"/>
<line x1="531.5580923437706" y1="92.00143267931352" x2="537.5580923437706" y2="92.00143267931352" class="err"/>
<line x1="531.5580923437706" y1="116.38136704024714" x2="537.5580923437706" y2="116.38136704024714" class="err"/>
<circle cx="534.5580923437706" cy="104.19139985978035" r="2.5" class="obs"/>
<line x1="586.9652193959358" y1="83.18181818181819" x2="586.9652193959358" y2="107.5617525427518" class="err"/>
<line x1="583.9652193959358" y1="83.18181818181819" x2="589.9652193959358" y2="83.18181818181819" class="err"/>
<line x1="583.9652193959358" y1="107.5617525427518" x2="589.9652193959358" y2="107.5617525427518" class="err"/>
<circle cx="586.9652193959358" cy="95.37178536228501" r="2.5" class="obs"/>
<g class="legend">
<line x1="82" y1="69" x2="106" y2="69" class="fw"/>
<text x="112" y="73" class="lbl-l">framework fit</text>
<line x1="82" y1="87" x2="106" y2="87" class="nt"/>
<text x="112" y="91" class="lbl-l">Newtonian (no halo)</text>
<circle cx="94" cy="105" r="2.5" class="obs"/>
<text x="112" y="109" class="lbl">observed V±err</text>
</g>
<g class="legend">
<line x1="460" y1="69" x2="484" y2="69" class="rho"/>
<text x="490" y="73" class="lbl-r">ρ(r) raw</text>
<line x1="460" y1="87" x2="484" y2="87" class="sig"/>
<text x="490" y="91" class="lbl-r">Σ(r) smoothed</text>
<text x="460" y="113" class="lbl-r">ρ peak: 173 M☉/pc²</text>
</g>
</svg>