<svg xmlns="http://www.w3.org/2000/svg" viewBox="0 0 960 450" width="960" height="450" font-family="sans-serif" font-size="12">
<style>
  .ax { stroke: #333; stroke-width: 1; fill: none; }
  .grid { stroke: #ddd; stroke-width: 0.5; fill: none; }
  .lbl { fill: #333; }
  .lbl-l { fill: #0066cc; }
  .lbl-r { fill: #b03030; }
  .obs { fill: #222; }
  .err { stroke: #555; stroke-width: 0.8; fill: none; }
  .fw { stroke: #0066cc; stroke-width: 2.2; fill: none; }
  .nt { stroke: #cc6600; stroke-width: 1.6; fill: none; stroke-dasharray: 5,3; }
  .mond { stroke: #7b2cbf; stroke-width: 1.8; fill: none; stroke-dasharray: 7,3; }
  .lbl-p { fill: #cc7000; }
  .lbl-m { fill: #7b2cbf; }
  .rho { stroke: #b03030; stroke-width: 2.0; fill: none; }
  .phot { stroke: #cc7000; stroke-width: 1.8; fill: none; }
  .mbar { stroke: #8e44ad; stroke-width: 1.8; fill: none; opacity: 0.9; }
  .mph { stroke: #c77dff; stroke-width: 1.6; fill: none; stroke-dasharray: 4,3; opacity: 0.95; }
  .title { fill: #111; font-size: 16px; font-weight: 600; }
  .subtitle { fill: #555; font-size: 11px; }
  .preview-bg { fill: #000; }
  .preview-lbl { fill: #888; font-size: 10px; }
  .legend { font-size: 11px; }
</style>
<text x="378.5" y="22" text-anchor="middle" class="title">UGC07559</text>
<text x="378.5" y="38" text-anchor="middle" class="subtitle">rMax=2.5 kpc, N=7, FW=0.5 km/s, 1.7%, 0.15σ, MOND=10.5 km/s, 52.3%, 3.24σ, amp=104</text>
<line x1="70" y1="395.0" x2="687" y2="395.0" class="grid"/>
<text x="64" y="399.0" text-anchor="end" class="lbl-l">0</text>
<line x1="70" y1="327.0" x2="687" y2="327.0" class="grid"/>
<text x="64" y="331.0" text-anchor="end" class="lbl-l">10</text>
<line x1="70" y1="259.0" x2="687" y2="259.0" class="grid"/>
<text x="64" y="263.0" text-anchor="end" class="lbl-l">20</text>
<line x1="70" y1="191.0" x2="687" y2="191.0" class="grid"/>
<text x="64" y="195.0" text-anchor="end" class="lbl-l">30</text>
<line x1="70" y1="123.0" x2="687" y2="123.0" class="grid"/>
<text x="64" y="127.0" text-anchor="end" class="lbl-l">40</text>
<line x1="70" y1="55.0" x2="687" y2="55.0" class="grid"/>
<text x="64" y="59.0" text-anchor="end" class="lbl-l">51</text>
<text x="693" y="399.0" text-anchor="start" class="lbl-r">0.0</text>
<text x="693" y="353.7" text-anchor="start" class="lbl-r">0.2</text>
<text x="693" y="308.3" text-anchor="start" class="lbl-r">0.4</text>
<text x="693" y="263.0" text-anchor="start" class="lbl-r">0.6</text>
<text x="693" y="217.7" text-anchor="start" class="lbl-r">0.8</text>
<text x="693" y="172.3" text-anchor="start" class="lbl-r">1.0</text>
<line x1="70.0" y1="55" x2="70.0" y2="395" class="grid"/>
<text x="70.0" y="411" text-anchor="middle" class="lbl">0.0</text>
<line x1="172.8" y1="55" x2="172.8" y2="395" class="grid"/>
<text x="172.8" y="411" text-anchor="middle" class="lbl">0.4</text>
<line x1="275.7" y1="55" x2="275.7" y2="395" class="grid"/>
<text x="275.7" y="411" text-anchor="middle" class="lbl">0.9</text>
<line x1="378.5" y1="55" x2="378.5" y2="395" class="grid"/>
<text x="378.5" y="411" text-anchor="middle" class="lbl">1.3</text>
<line x1="481.3" y1="55" x2="481.3" y2="395" class="grid"/>
<text x="481.3" y="411" text-anchor="middle" class="lbl">1.8</text>
<line x1="584.2" y1="55" x2="584.2" y2="395" class="grid"/>
<text x="584.2" y="411" text-anchor="middle" class="lbl">2.2</text>
<line x1="687.0" y1="55" x2="687.0" y2="395" class="grid"/>
<text x="687.0" y="411" text-anchor="middle" class="lbl">2.7</text>
<text x="378.5" y="438" text-anchor="middle" class="lbl">radius (kpc)</text>
<text x="16" y="225" text-anchor="middle" class="lbl-l" transform="rotate(-90, 16, 225)">velocity (km/s)</text>
<text x="724" y="225" text-anchor="middle" class="lbl-r" transform="rotate(-90, 724, 225)">profiles (normalized to peak)</text>
<rect x="70" y="55" width="617" height="340" class="ax"/>
<path d="M 70.0,168.3 L 72.8,169.5 L 75.6,170.6 L 78.5,171.7 L 81.3,172.9 L 84.1,174.0 L 86.9,175.1 L 89.7,176.3 L 92.5,177.4 L 95.4,178.5 L 98.2,179.7 L 101.0,180.8 L 103.8,181.7 L 106.6,181.7 L 109.4,181.7 L 112.3,181.7 L 115.1,181.7 L 117.9,181.7 L 120.7,181.7 L 123.5,181.7 L 126.3,181.7 L 129.2,181.7 L 132.0,181.7 L 134.8,181.7 L 137.6,181.7 L 140.4,181.7 L 143.3,181.8 L 146.1,182.3 L 148.9,182.8 L 151.7,183.2 L 154.5,183.7 L 157.3,184.1 L 160.2,184.6 L 163.0,185.0 L 165.8,185.5 L 168.6,185.9 L 171.4,186.4 L 174.2,186.8 L 177.1,187.3 L 179.9,187.7 L 182.7,188.2 L 185.5,188.6 L 188.3,189.1 L 191.1,189.5 L 194.0,190.0 L 196.8,190.5 L 199.6,190.9 L 202.4,191.4 L 205.2,191.8 L 208.1,192.3 L 210.9,192.7 L 213.7,193.2 L 216.5,193.6 L 219.3,194.1 L 222.1,194.5 L 225.0,195.0 L 227.8,195.4 L 230.6,195.9 L 233.4,196.3 L 236.2,196.8 L 239.0,197.3 L 241.9,197.7 L 244.7,198.2 L 247.5,198.6 L 250.3,199.1 L 253.1,199.5 L 255.9,200.0 L 258.8,200.4 L 261.6,200.9 L 264.4,201.3 L 267.2,201.8 L 270.0,202.2 L 272.8,202.7 L 275.7,203.1 L 278.5,203.6 L 281.3,204.0 L 284.1,204.5 L 286.9,205.0 L 289.8,205.4 L 292.6,205.9 L 295.4,206.3 L 298.2,206.8 L 301.0,207.2 L 303.8,207.7 L 306.7,208.1 L 309.5,208.6 L 312.3,209.0 L 315.1,209.5 L 317.9,209.9 L 320.7,210.4 L 323.6,210.8 L 326.4,211.3 L 329.2,211.8 L 332.0,212.2 L 334.8,212.7 L 337.6,213.1 L 340.5,213.6 L 343.3,214.0 L 346.1,214.5 L 348.9,214.9 L 351.7,215.4 L 354.6,215.8 L 357.4,216.3 L 360.2,216.7 L 363.0,217.2 L 365.8,217.6 L 368.6,218.1 L 371.5,218.6 L 374.3,219.0 L 377.1,219.5 L 379.9,219.9 L 382.7,220.4 L 385.5,220.8 L 388.4,221.3 L 391.2,221.7 L 394.0,222.2 L 396.8,222.6 L 399.6,223.1 L 402.4,223.5 L 405.3,224.3 L 408.1,225.1 L 410.9,225.8 L 413.7,226.6 L 416.5,227.4 L 419.4,228.2 L 422.2,228.9 L 425.0,229.7 L 427.8,230.5 L 430.6,231.3 L 433.4,232.0 L 436.3,232.8 L 439.1,233.6 L 441.9,234.4 L 444.7,235.1 L 447.5,235.9 L 450.3,236.7 L 453.2,237.5 L 456.0,238.2 L 458.8,239.0 L 461.6,239.8 L 464.4,240.6 L 467.2,241.4 L 470.1,242.1 L 472.9,242.9 L 475.7,243.7 L 478.5,244.5 L 481.3,245.2 L 484.2,246.0 L 487.0,246.8 L 489.8,247.6 L 492.6,248.3 L 495.4,249.1 L 498.2,249.9 L 501.1,250.7 L 503.9,251.4 L 506.7,252.2 L 509.5,253.0 L 512.3,253.8 L 515.1,254.5 L 518.0,255.3 L 520.8,256.1 L 523.6,256.9 L 526.4,257.7 L 529.2,258.4 L 532.0,259.2 L 534.9,260.0 L 537.7,260.8 L 540.5,261.5 L 543.3,262.3 L 546.1,263.1 L 548.9,263.9 L 551.8,264.6 L 554.6,265.4 L 557.4,266.2 L 560.2,267.0 L 563.0,267.7 L 565.9,268.5 L 568.7,269.3 L 571.5,270.1 L 574.3,270.8 L 577.1,271.6 L 579.9,272.4 L 582.8,273.2 L 585.6,274.0 L 588.4,274.7 L 591.2,275.5 L 594.0,276.3 L 596.8,277.1 L 599.7,277.8 L 602.5,278.6 L 605.3,279.4 L 608.1,280.2 L 610.9,280.9 L 613.7,281.7 L 616.6,282.5 L 619.4,283.3 L 622.2,284.0 L 625.0,284.8 L 627.8,285.6 L 630.7,286.4 L 633.5,287.1 L 636.3,297.4 L 639.1,310.3 L 641.9,323.2 L 644.7,336.1 L 647.6,349.0 L 650.4,361.9 L 653.2,374.7 L 656.0,387.6 L 658.8,395.0 L 661.6,395.0 L 664.5,395.0 L 667.3,395.0 L 670.1,395.0 L 672.9,395.0 L 675.7,395.0 L 678.5,395.0 L 681.4,395.0 L 684.2,395.0 L 687.0,395.0" class="rho"/>
<path d="M 152.5,168.3 L 235.0,270.5 L 317.5,329.0 L 402.3,359.0 L 482.5,380.1 L 567.3,384.8 L 649.8,395.0" class="phot"/>
<path d="M 152.5,196.2 L 235.0,168.3 L 317.5,184.9 L 402.3,218.9 L 482.5,230.1 L 567.3,220.6 L 649.8,205.9" class="mbar"/>
<path d="M 152.5,181.6 L 235.0,168.3 L 317.5,175.6 L 402.3,191.6 L 482.5,197.4 L 567.3,193.0 L 649.8,185.6" class="mph"/>
<path d="M 76.2,369.2 L 82.3,358.7 L 88.5,350.7 L 94.7,344.0 L 100.8,338.2 L 107.0,333.0 L 113.2,328.1 L 119.4,323.6 L 125.5,319.4 L 131.7,315.3 L 137.9,311.5 L 144.0,307.8 L 150.2,304.3 L 156.4,301.0 L 162.6,297.7 L 168.7,294.7 L 174.9,291.7 L 181.1,288.8 L 187.2,286.1 L 193.4,283.4 L 199.6,280.8 L 205.7,278.2 L 211.9,275.8 L 218.1,273.4 L 224.3,271.1 L 230.4,268.8 L 236.6,266.6 L 242.8,264.4 L 248.9,262.3 L 255.1,260.3 L 261.3,258.2 L 267.4,256.3 L 273.6,254.3 L 279.8,252.5 L 285.9,250.6 L 292.1,248.8 L 298.3,247.0 L 304.5,245.3 L 310.6,243.6 L 316.8,241.9 L 323.0,240.2 L 329.1,238.6 L 335.3,237.0 L 341.5,235.5 L 347.7,233.9 L 353.8,232.4 L 360.0,230.9 L 366.2,229.5 L 372.3,228.0 L 378.5,226.6 L 384.7,225.3 L 390.8,223.9 L 397.0,222.6 L 403.2,221.2 L 409.4,219.9 L 415.5,218.7 L 421.7,217.5 L 427.9,216.3 L 434.0,215.1 L 440.2,214.0 L 446.4,212.9 L 452.5,211.8 L 458.7,210.7 L 464.9,209.7 L 471.1,208.7 L 477.2,207.7 L 483.4,206.8 L 489.6,205.8 L 495.7,204.9 L 501.9,204.1 L 508.1,203.2 L 514.2,202.4 L 520.4,201.6 L 526.6,200.8 L 532.8,200.0 L 538.9,199.3 L 545.1,198.5 L 551.3,197.8 L 557.4,197.1 L 563.6,196.5 L 569.8,195.8 L 575.9,195.2 L 582.1,194.6 L 588.3,194.0 L 594.4,193.5 L 600.6,192.9 L 606.8,192.4 L 613.0,191.9 L 619.1,191.4 L 625.3,190.9 L 631.5,190.5 L 637.6,190.1 L 643.8,190.1 L 650.0,190.5 L 656.1,191.2 L 662.3,192.3 L 668.5,193.4 L 674.7,194.4 L 680.8,195.4 L 687.0,196.4" class="nt"/>
<path d="M 152.5,279.7 L 235.0,217.2 L 317.5,183.0 L 402.3,156.0 L 482.5,134.4 L 567.3,110.3 L 649.8,85.9" class="mond"/>
<path d="M 75.1,389.4 L 80.3,385.2 L 85.4,380.7 L 90.6,376.5 L 95.7,372.5 L 100.8,368.9 L 106.0,365.4 L 111.1,362.0 L 116.3,358.6 L 121.4,355.1 L 126.6,351.5 L 131.7,347.9 L 136.8,344.1 L 142.0,340.4 L 147.1,336.6 L 152.3,332.9 L 157.4,329.3 L 162.6,325.7 L 167.7,322.3 L 172.8,319.0 L 178.0,315.8 L 183.1,312.7 L 188.3,309.7 L 193.4,306.8 L 198.5,304.0 L 203.7,301.3 L 208.8,298.6 L 214.0,296.0 L 219.1,293.4 L 224.3,290.9 L 229.4,288.5 L 234.5,286.1 L 239.7,283.8 L 244.8,281.5 L 250.0,279.2 L 255.1,277.0 L 260.2,274.9 L 265.4,272.8 L 270.5,270.7 L 275.7,268.6 L 280.8,266.6 L 286.0,264.6 L 291.1,262.6 L 296.2,260.6 L 301.4,258.7 L 306.5,256.8 L 311.7,254.9 L 316.8,253.0 L 321.9,251.1 L 327.1,249.2 L 332.2,247.3 L 337.4,245.4 L 342.5,243.5 L 347.7,241.6 L 352.8,239.7 L 357.9,237.8 L 363.1,235.8 L 368.2,233.8 L 373.4,231.7 L 378.5,229.6 L 383.6,227.5 L 388.8,225.3 L 393.9,223.0 L 399.1,220.8 L 404.2,218.5 L 409.4,216.4 L 414.5,214.3 L 419.6,212.3 L 424.8,210.4 L 429.9,208.7 L 435.1,207.1 L 440.2,205.6 L 445.3,204.2 L 450.5,202.9 L 455.6,201.7 L 460.8,200.6 L 465.9,199.6 L 471.1,198.7 L 476.2,197.8 L 481.3,196.9 L 486.5,196.2 L 491.6,195.4 L 496.8,194.8 L 501.9,194.1 L 507.0,193.5 L 512.2,192.9 L 517.3,192.4 L 522.5,191.8 L 527.6,191.3 L 532.8,190.7 L 537.9,190.2 L 543.0,189.7 L 548.2,189.1 L 553.3,188.5 L 558.5,187.8 L 563.6,187.0 L 568.7,186.2 L 573.9,185.3 L 579.0,184.2 L 584.2,182.9 L 589.3,181.4 L 594.4,179.7 L 599.6,177.7 L 604.7,175.4 L 609.9,172.9 L 615.0,170.2 L 620.2,167.5 L 625.3,165.2 L 630.4,163.6 L 635.6,163.3 L 640.7,164.6 L 645.9,167.7 L 651.0,172.5 L 656.1,178.5 L 661.3,185.4 L 666.4,192.6 L 671.6,199.7 L 676.7,206.5 L 681.9,213.0 L 687.0,218.9" class="fw"/>
<line x1="152.50" y1="310.70" x2="152.50" y2="354.13" class="err"/>
<line x1="149.50" y1="310.70" x2="155.50" y2="310.70" class="err"/>
<line x1="149.50" y1="354.13" x2="155.50" y2="354.13" class="err"/>
<circle cx="152.50" cy="332.41" r="2.5" class="obs"/>
<line x1="235.00" y1="266.39" x2="235.00" y2="309.82" class="err"/>
<line x1="232.00" y1="266.39" x2="238.00" y2="266.39" class="err"/>
<line x1="232.00" y1="309.82" x2="238.00" y2="309.82" class="err"/>
<circle cx="235.00" cy="288.11" r="2.5" class="obs"/>
<line x1="317.50" y1="229.42" x2="317.50" y2="272.85" class="err"/>
<line x1="314.50" y1="229.42" x2="320.50" y2="229.42" class="err"/>
<line x1="314.50" y1="272.85" x2="320.50" y2="272.85" class="err"/>
<circle cx="317.50" cy="251.13" r="2.5" class="obs"/>
<line x1="402.30" y1="197.82" x2="402.30" y2="241.25" class="err"/>
<line x1="399.30" y1="197.82" x2="405.30" y2="197.82" class="err"/>
<line x1="399.30" y1="241.25" x2="405.30" y2="241.25" class="err"/>
<circle cx="402.30" cy="219.53" r="2.5" class="obs"/>
<line x1="482.51" y1="173.62" x2="482.51" y2="217.05" class="err"/>
<line x1="479.51" y1="173.62" x2="485.51" y2="173.62" class="err"/>
<line x1="479.51" y1="217.05" x2="485.51" y2="217.05" class="err"/>
<circle cx="482.51" cy="195.33" r="2.5" class="obs"/>
<line x1="567.30" y1="164.21" x2="567.30" y2="207.64" class="err"/>
<line x1="564.30" y1="164.21" x2="570.30" y2="164.21" class="err"/>
<line x1="564.30" y1="207.64" x2="570.30" y2="207.64" class="err"/>
<circle cx="567.30" cy="185.92" r="2.5" class="obs"/>
<line x1="649.80" y1="157.48" x2="649.80" y2="200.91" class="err"/>
<line x1="646.80" y1="157.48" x2="652.80" y2="157.48" class="err"/>
<line x1="646.80" y1="200.91" x2="652.80" y2="200.91" class="err"/>
<circle cx="649.80" cy="179.20" r="2.5" class="obs"/>
<g class="legend">
<line x1="82" y1="69" x2="106" y2="69" class="fw"/>
<text x="112" y="73" class="lbl-l">framework: 0.5 km/s, 1.7%, 0.15σ</text>
<line x1="82" y1="87" x2="106" y2="87" class="nt"/>
<text x="112" y="91" class="lbl-l">Newtonian: 2.4 km/s, 19.7%, 0.73σ</text>
<line x1="82" y1="105" x2="106" y2="105" class="mond"/>
<text x="112" y="109" class="lbl-m">MOND/RAR: 10.5 km/s, 52.3%, 3.24σ</text>
<circle cx="94" cy="123" r="2.5" class="obs"/>
<text x="112" y="127" class="lbl">observed V±err</text>
</g>
<g class="legend">
<line x1="472" y1="69" x2="496" y2="69" class="rho"/>
<text x="502" y="73" class="lbl-r">ρ(r) raw</text>
<line x1="472" y1="87" x2="496" y2="87" class="phot"/>
<text x="502" y="91" class="lbl-p">photometric baryonic profile</text>
<line x1="472" y1="105" x2="496" y2="105" class="mbar"/>
<text x="502" y="109" class="lbl-m">MOND baryonic annulus</text>
<line x1="472" y1="123" x2="496" y2="123" class="mph"/>
<text x="502" y="127" class="lbl-m">MOND phantom annulus</text>
<text x="472" y="147" class="lbl-r">ρ peak: 41 M☉/pc²</text>
<text x="472" y="163" class="lbl-p">phot peak: 15.45 (arb.)</text>
<text x="472" y="179" class="lbl-m">Σbar peak: 14.04 M☉/pc²</text>
<text x="472" y="195" class="lbl-m">Σphantom peak: 55.22 M☉/pc²</text>
</g>
<rect x="775" y="55" width="170" height="170" class="preview-bg"/>
<defs><radialGradient id="g_UGC07559" cx="0.5" cy="0.5" r="0.5">
  <stop offset="0.0000" stop-color="rgb(106,27,27)"/>
  <stop offset="0.0313" stop-color="rgb(104,26,26)"/>
  <stop offset="0.0625" stop-color="rgb(103,26,26)"/>
  <stop offset="0.0938" stop-color="rgb(103,26,26)"/>
  <stop offset="0.1250" stop-color="rgb(102,26,26)"/>
  <stop offset="0.1563" stop-color="rgb(102,26,26)"/>
  <stop offset="0.1875" stop-color="rgb(101,25,25)"/>
  <stop offset="0.2188" stop-color="rgb(100,25,25)"/>
  <stop offset="0.2500" stop-color="rgb(100,25,25)"/>
  <stop offset="0.2813" stop-color="rgb(99,25,25)"/>
  <stop offset="0.3125" stop-color="rgb(98,25,25)"/>
  <stop offset="0.3438" stop-color="rgb(97,24,24)"/>
  <stop offset="0.3750" stop-color="rgb(97,24,24)"/>
  <stop offset="0.4063" stop-color="rgb(96,24,24)"/>
  <stop offset="0.4375" stop-color="rgb(95,24,24)"/>
  <stop offset="0.4688" stop-color="rgb(94,24,24)"/>
  <stop offset="0.5000" stop-color="rgb(94,24,24)"/>
  <stop offset="0.5313" stop-color="rgb(93,23,23)"/>
  <stop offset="0.5625" stop-color="rgb(92,23,23)"/>
  <stop offset="0.5938" stop-color="rgb(91,23,23)"/>
  <stop offset="0.6250" stop-color="rgb(90,23,23)"/>
  <stop offset="0.6563" stop-color="rgb(89,22,22)"/>
  <stop offset="0.6875" stop-color="rgb(87,22,22)"/>
  <stop offset="0.7188" stop-color="rgb(86,22,22)"/>
  <stop offset="0.7500" stop-color="rgb(85,21,21)"/>
  <stop offset="0.7813" stop-color="rgb(84,21,21)"/>
  <stop offset="0.8125" stop-color="rgb(82,21,21)"/>
  <stop offset="0.8438" stop-color="rgb(81,20,20)"/>
  <stop offset="0.8750" stop-color="rgb(80,20,20)"/>
  <stop offset="0.9063" stop-color="rgb(79,20,20)"/>
  <stop offset="0.9375" stop-color="rgb(77,19,19)"/>
  <stop offset="0.9688" stop-color="rgb(71,18,18)"/>
  <stop offset="1.0000" stop-color="rgb(0,0,0)"/>
</radialGradient></defs>
<circle cx="860" cy="140" r="81" fill="url(#g_UGC07559)"/>
<text x="860" y="49" text-anchor="middle" class="preview-lbl">face-on luminance from ρ(r)</text>
<text x="860" y="239" text-anchor="middle" class="preview-lbl">edge at r = 2.6 kpc</text>
</svg>