<svg xmlns="http://www.w3.org/2000/svg" viewBox="0 0 890 420" width="890" height="420" font-family="sans-serif" font-size="12">
<style>
  .ax { stroke: #333; stroke-width: 1; fill: none; }
  .grid { stroke: #ddd; stroke-width: 0.5; fill: none; }
  .lbl { fill: #333; }
  .lbl-l { fill: #0066cc; }
  .lbl-r { fill: #b03030; }
  .obs { fill: #222; }
  .err { stroke: #555; stroke-width: 0.8; fill: none; }
  .fw { stroke: #0066cc; stroke-width: 2.2; fill: none; }
  .nt { stroke: #cc6600; stroke-width: 1.6; fill: none; stroke-dasharray: 5,3; }
  .lbl-s { fill: #cc7000; }
  .rho { stroke: #b03030; stroke-width: 2.0; fill: none; }
  .sig { stroke: #cc7000; stroke-width: 1.8; fill: none; }
  .title { fill: #111; font-size: 16px; font-weight: 600; }
  .subtitle { fill: #555; font-size: 11px; }
  .preview-bg { fill: #000; }
  .preview-lbl { fill: #888; font-size: 10px; }
  .legend { font-size: 11px; }
</style>
<text x="343.5" y="22" text-anchor="middle" class="title">UGC09133</text>
<text x="343.5" y="38" text-anchor="middle" class="subtitle">rMax=108.3 kpc, N=68, RMS=42.7 km/s (16.1%), amp=1270</text>
<line x1="70" y1="365.0" x2="617" y2="365.0" class="grid"/>
<text x="64" y="369.0" text-anchor="end" class="lbl-l">0</text>
<line x1="70" y1="303.0" x2="617" y2="303.0" class="grid"/>
<text x="64" y="307.0" text-anchor="end" class="lbl-l">70</text>
<line x1="70" y1="241.0" x2="617" y2="241.0" class="grid"/>
<text x="64" y="245.0" text-anchor="end" class="lbl-l">140</text>
<line x1="70" y1="179.0" x2="617" y2="179.0" class="grid"/>
<text x="64" y="183.0" text-anchor="end" class="lbl-l">210</text>
<line x1="70" y1="117.0" x2="617" y2="117.0" class="grid"/>
<text x="64" y="121.0" text-anchor="end" class="lbl-l">280</text>
<line x1="70" y1="55.0" x2="617" y2="55.0" class="grid"/>
<text x="64" y="59.0" text-anchor="end" class="lbl-l">351</text>
<text x="623" y="369.0" text-anchor="start" class="lbl-r">0.0</text>
<text x="623" y="327.7" text-anchor="start" class="lbl-r">0.2</text>
<text x="623" y="286.3" text-anchor="start" class="lbl-r">0.4</text>
<text x="623" y="245.0" text-anchor="start" class="lbl-r">0.6</text>
<text x="623" y="203.7" text-anchor="start" class="lbl-r">0.8</text>
<text x="623" y="162.3" text-anchor="start" class="lbl-r">1.0</text>
<line x1="70.0" y1="55" x2="70.0" y2="365" class="grid"/>
<text x="70.0" y="381" text-anchor="middle" class="lbl">0.0</text>
<line x1="161.2" y1="55" x2="161.2" y2="365" class="grid"/>
<text x="161.2" y="381" text-anchor="middle" class="lbl">20.3</text>
<line x1="252.3" y1="55" x2="252.3" y2="365" class="grid"/>
<text x="252.3" y="381" text-anchor="middle" class="lbl">40.6</text>
<line x1="343.5" y1="55" x2="343.5" y2="365" class="grid"/>
<text x="343.5" y="381" text-anchor="middle" class="lbl">60.8</text>
<line x1="434.7" y1="55" x2="434.7" y2="365" class="grid"/>
<text x="434.7" y="381" text-anchor="middle" class="lbl">81.1</text>
<line x1="525.8" y1="55" x2="525.8" y2="365" class="grid"/>
<text x="525.8" y="381" text-anchor="middle" class="lbl">101.4</text>
<line x1="617.0" y1="55" x2="617.0" y2="365" class="grid"/>
<text x="617.0" y="381" text-anchor="middle" class="lbl">121.7</text>
<text x="343.5" y="408" text-anchor="middle" class="lbl">radius (kpc)</text>
<text x="16" y="210" text-anchor="middle" class="lbl-l" transform="rotate(-90, 16, 210)">velocity (km/s)</text>
<text x="874" y="210" text-anchor="middle" class="lbl-r" transform="rotate(-90, 874, 210)">mass profile (normalized to peak)</text>
<rect x="70" y="55" width="547" height="310" class="ax"/>
<path d="M 70.0,158.3 L 72.5,189.0 L 75.0,219.7 L 77.5,250.4 L 80.0,281.1 L 82.5,311.8 L 85.0,314.7 L 87.5,315.5 L 90.0,316.3 L 92.5,317.1 L 95.0,317.9 L 97.5,318.7 L 100.0,319.5 L 102.5,320.3 L 105.0,321.1 L 107.5,321.9 L 110.0,322.8 L 112.5,323.6 L 115.0,324.4 L 117.5,325.2 L 120.0,326.0 L 122.5,326.8 L 124.9,327.6 L 127.4,328.4 L 129.9,329.2 L 132.4,330.0 L 134.9,330.9 L 137.4,331.7 L 139.9,332.5 L 142.4,333.3 L 144.9,333.9 L 147.4,334.1 L 149.9,334.3 L 152.4,334.5 L 154.9,334.7 L 157.4,335.0 L 159.9,335.2 L 162.4,335.4 L 164.9,335.6 L 167.4,335.8 L 169.9,336.0 L 172.4,336.2 L 174.9,336.5 L 177.4,336.7 L 179.9,336.9 L 182.4,337.1 L 184.9,337.3 L 187.4,337.5 L 189.9,337.8 L 192.4,338.0 L 194.9,338.2 L 197.4,338.4 L 199.9,338.6 L 202.4,338.8 L 204.9,339.0 L 207.4,339.3 L 209.9,339.5 L 212.4,339.7 L 214.9,339.8 L 217.4,339.9 L 219.9,340.0 L 222.4,340.1 L 224.9,340.2 L 227.4,340.3 L 229.9,340.4 L 232.4,340.5 L 234.8,340.6 L 237.3,340.7 L 239.8,340.9 L 242.3,341.0 L 244.8,341.1 L 247.3,341.2 L 249.8,341.3 L 252.3,341.4 L 254.8,341.5 L 257.3,341.6 L 259.8,341.7 L 262.3,341.8 L 264.8,341.9 L 267.3,342.0 L 269.8,342.1 L 272.3,342.2 L 274.8,342.3 L 277.3,342.4 L 279.8,342.5 L 282.3,342.7 L 284.8,342.8 L 287.3,342.9 L 289.8,343.0 L 292.3,343.1 L 294.8,343.2 L 297.3,343.3 L 299.8,343.4 L 302.3,343.5 L 304.8,343.6 L 307.3,343.7 L 309.8,343.8 L 312.3,343.9 L 314.8,344.0 L 317.3,344.1 L 319.8,344.2 L 322.3,344.4 L 324.8,344.5 L 327.3,344.6 L 329.8,344.7 L 332.3,344.8 L 334.8,344.9 L 337.3,345.0 L 339.8,345.1 L 342.3,345.2 L 344.7,345.3 L 347.2,345.4 L 349.7,345.5 L 352.2,345.6 L 354.7,345.7 L 357.2,345.8 L 359.7,345.9 L 362.2,346.0 L 364.7,346.2 L 367.2,346.3 L 369.7,346.4 L 372.2,346.5 L 374.7,346.6 L 377.2,346.7 L 379.7,346.8 L 382.2,346.9 L 384.7,347.0 L 387.2,347.1 L 389.7,347.2 L 392.2,347.3 L 394.7,347.4 L 397.2,347.5 L 399.7,347.6 L 402.2,347.7 L 404.7,347.9 L 407.2,348.0 L 409.7,348.1 L 412.2,348.2 L 414.7,348.3 L 417.2,348.4 L 419.7,348.5 L 422.2,348.6 L 424.7,348.7 L 427.2,348.8 L 429.7,348.9 L 432.2,349.0 L 434.7,349.1 L 437.2,349.2 L 439.7,349.3 L 442.2,349.4 L 444.7,349.5 L 447.2,349.7 L 449.7,349.8 L 452.2,349.9 L 454.6,350.0 L 457.1,350.1 L 459.6,350.2 L 462.1,350.3 L 464.6,350.4 L 467.1,350.5 L 469.6,350.6 L 472.1,350.7 L 474.6,350.8 L 477.1,350.9 L 479.6,351.0 L 482.1,351.1 L 484.6,351.2 L 487.1,351.4 L 489.6,351.5 L 492.1,351.6 L 494.6,351.7 L 497.1,351.8 L 499.6,351.9 L 502.1,352.0 L 504.6,352.1 L 507.1,352.2 L 509.6,352.3 L 512.1,352.4 L 514.6,352.5 L 517.1,352.6 L 519.6,352.7 L 522.1,352.8 L 524.6,352.9 L 527.1,353.0 L 529.6,353.2 L 532.1,353.3 L 534.6,353.4 L 537.1,353.5 L 539.6,353.6 L 542.1,353.7 L 544.6,354.2 L 547.1,354.8 L 549.6,355.4 L 552.1,356.0 L 554.6,356.5 L 557.1,357.1 L 559.6,357.7 L 562.1,358.3 L 564.5,358.9 L 567.0,359.4 L 569.5,360.0 L 572.0,360.6 L 574.5,361.2 L 577.0,361.8 L 579.5,362.3 L 582.0,362.9 L 584.5,363.5 L 587.0,364.1 L 589.5,364.7 L 592.0,365.0 L 594.5,365.0 L 597.0,365.0 L 599.5,365.0 L 602.0,365.0 L 604.5,365.0 L 607.0,365.0 L 609.5,365.0 L 612.0,365.0 L 614.5,365.0 L 617.0,365.0" class="rho"/>
<path d="M 70.0,158.3 L 72.5,162.9 L 75.0,169.6 L 77.5,177.9 L 80.0,187.3 L 82.5,196.8 L 85.0,205.8 L 87.5,213.5 L 90.0,220.2 L 92.5,226.1 L 95.0,231.2 L 97.5,235.8 L 100.0,239.8 L 102.5,243.5 L 105.0,246.9 L 107.5,250.2 L 110.0,253.2 L 112.5,256.1 L 115.0,258.9 L 117.5,261.6 L 120.0,264.2 L 122.5,266.6 L 124.9,269.0 L 127.4,271.4 L 129.9,273.6 L 132.4,275.7 L 134.9,277.8 L 137.4,279.8 L 139.9,281.7 L 142.4,283.5 L 144.9,285.2 L 147.4,286.8 L 149.9,288.4 L 152.4,289.9 L 154.9,291.3 L 157.4,292.7 L 159.9,294.0 L 162.4,295.2 L 164.9,296.4 L 167.4,297.6 L 169.9,298.8 L 172.4,299.9 L 174.9,300.9 L 177.4,302.0 L 179.9,303.0 L 182.4,304.0 L 184.9,304.9 L 187.4,305.8 L 189.9,306.8 L 192.4,307.6 L 194.9,308.5 L 197.4,309.3 L 199.9,310.2 L 202.4,311.0 L 204.9,311.7 L 207.4,312.5 L 209.9,313.2 L 212.4,313.9 L 214.9,314.6 L 217.4,315.3 L 219.9,316.0 L 222.4,316.6 L 224.9,317.2 L 227.4,317.8 L 229.9,318.4 L 232.4,319.0 L 234.8,319.6 L 237.3,320.1 L 239.8,320.7 L 242.3,321.2 L 244.8,321.8 L 247.3,322.3 L 249.8,322.8 L 252.3,323.3 L 254.8,323.8 L 257.3,324.3 L 259.8,324.8 L 262.3,325.2 L 264.8,325.7 L 267.3,326.2 L 269.8,326.6 L 272.3,327.1 L 274.8,327.5 L 277.3,327.9 L 279.8,328.4 L 282.3,328.8 L 284.8,329.2 L 287.3,329.6 L 289.8,330.1 L 292.3,330.5 L 294.8,330.9 L 297.3,331.3 L 299.8,331.7 L 302.3,332.1 L 304.8,332.5 L 307.3,332.8 L 309.8,333.2 L 312.3,333.6 L 314.8,334.0 L 317.3,334.4 L 319.8,334.7 L 322.3,335.1 L 324.8,335.4 L 327.3,335.8 L 329.8,336.2 L 332.3,336.5 L 334.8,336.9 L 337.3,337.2 L 339.8,337.5 L 342.3,337.9 L 344.7,338.2 L 347.2,338.5 L 349.7,338.9 L 352.2,339.2 L 354.7,339.5 L 357.2,339.8 L 359.7,340.2 L 362.2,340.5 L 364.7,340.8 L 367.2,341.1 L 369.7,341.4 L 372.2,341.7 L 374.7,342.0 L 377.2,342.3 L 379.7,342.6 L 382.2,342.9 L 384.7,343.2 L 387.2,343.5 L 389.7,343.7 L 392.2,344.0 L 394.7,344.3 L 397.2,344.6 L 399.7,344.8 L 402.2,345.1 L 404.7,345.4 L 407.2,345.7 L 409.7,345.9 L 412.2,346.2 L 414.7,346.4 L 417.2,346.7 L 419.7,346.9 L 422.2,347.2 L 424.7,347.4 L 427.2,347.7 L 429.7,347.9 L 432.2,348.2 L 434.7,348.4 L 437.2,348.7 L 439.7,348.9 L 442.2,349.1 L 444.7,349.3 L 447.2,349.6 L 449.7,349.8 L 452.2,350.0 L 454.6,350.2 L 457.1,350.5 L 459.6,350.7 L 462.1,350.9 L 464.6,351.1 L 467.1,351.3 L 469.6,351.5 L 472.1,351.7 L 474.6,351.9 L 477.1,352.1 L 479.6,352.3 L 482.1,352.5 L 484.6,352.7 L 487.1,352.9 L 489.6,353.1 L 492.1,353.3 L 494.6,353.5 L 497.1,353.7 L 499.6,353.9 L 502.1,354.1 L 504.6,354.3 L 507.1,354.4 L 509.6,354.6 L 512.1,354.8 L 514.6,355.0 L 517.1,355.2 L 519.6,355.3 L 522.1,355.5 L 524.6,355.7 L 527.1,355.9 L 529.6,356.1 L 532.1,356.2 L 534.6,356.4 L 537.1,356.6 L 539.6,356.8 L 542.1,357.0 L 544.6,357.2 L 547.1,357.4 L 549.6,357.6 L 552.1,357.7 L 554.6,357.9 L 557.1,358.1 L 559.6,358.3 L 562.1,358.5 L 564.5,358.6 L 567.0,358.8 L 569.5,358.9 L 572.0,359.1 L 574.5,359.2 L 577.0,359.3 L 579.5,359.4 L 582.0,359.6 L 584.5,359.7 L 587.0,359.8 L 589.5,359.9 L 592.0,360.0 L 594.5,360.0 L 597.0,360.1 L 599.5,360.2 L 602.0,360.3 L 604.5,360.4 L 607.0,360.4 L 609.5,360.5 L 612.0,360.6 L 614.5,360.6 L 617.0,360.7" class="sig"/>
<path d="M 75.5,283.9 L 80.9,267.5 L 86.4,265.2 L 91.9,260.4 L 97.3,254.5 L 102.8,248.6 L 108.3,242.9 L 113.8,237.6 L 119.2,232.7 L 124.7,228.2 L 130.2,224.1 L 135.6,220.4 L 141.1,217.1 L 146.6,214.1 L 152.1,211.2 L 157.5,208.3 L 163.0,205.4 L 168.5,202.6 L 173.9,199.9 L 179.4,197.2 L 184.9,194.6 L 190.3,192.1 L 195.8,189.7 L 201.3,187.4 L 206.8,185.1 L 212.2,182.9 L 217.7,180.8 L 223.2,178.7 L 228.6,176.6 L 234.1,174.6 L 239.6,172.5 L 245.0,170.6 L 250.5,168.6 L 256.0,166.7 L 261.5,164.8 L 266.9,163.0 L 272.4,161.2 L 277.9,159.4 L 283.3,157.7 L 288.8,156.0 L 294.3,154.4 L 299.7,152.7 L 305.2,151.1 L 310.7,149.6 L 316.1,148.1 L 321.6,146.6 L 327.1,145.1 L 332.6,143.7 L 338.0,142.3 L 343.5,141.0 L 349.0,139.6 L 354.4,138.3 L 359.9,137.1 L 365.4,135.9 L 370.8,134.7 L 376.3,133.5 L 381.8,132.3 L 387.3,131.2 L 392.7,130.2 L 398.2,129.1 L 403.7,128.1 L 409.1,127.1 L 414.6,126.1 L 420.1,125.2 L 425.6,124.3 L 431.0,123.4 L 436.5,122.6 L 442.0,121.7 L 447.4,120.9 L 452.9,120.2 L 458.4,119.4 L 463.8,118.7 L 469.3,118.0 L 474.8,117.4 L 480.3,116.7 L 485.7,116.1 L 491.2,115.5 L 496.7,115.0 L 502.1,114.4 L 507.6,113.9 L 513.1,113.4 L 518.5,113.0 L 524.0,112.5 L 529.5,112.1 L 535.0,111.7 L 540.4,111.4 L 545.9,111.1 L 551.4,111.0 L 556.8,111.0 L 562.3,111.3 L 567.8,111.7 L 573.2,112.3 L 578.7,113.1 L 584.2,114.1 L 589.6,115.3 L 595.1,116.6 L 600.6,117.9 L 606.1,119.1 L 611.5,120.4 L 617.0,121.6" class="nt"/>
<path d="M 74.6,236.7 L 79.1,166.6 L 83.7,125.5 L 88.2,112.8 L 92.8,115.8 L 97.3,121.7 L 101.9,123.7 L 106.5,123.4 L 111.0,121.0 L 115.6,118.1 L 120.1,115.0 L 124.7,112.4 L 129.3,110.7 L 133.8,110.3 L 138.4,111.4 L 142.9,114.0 L 147.5,117.5 L 152.1,121.2 L 156.6,124.3 L 161.2,126.8 L 165.7,128.7 L 170.3,130.2 L 174.8,131.4 L 179.4,132.4 L 184.0,133.3 L 188.5,134.2 L 193.1,135.3 L 197.6,136.5 L 202.2,138.0 L 206.8,139.8 L 211.3,142.0 L 215.9,144.2 L 220.4,146.3 L 225.0,148.1 L 229.5,149.5 L 234.1,150.7 L 238.7,151.5 L 243.2,152.2 L 247.8,152.7 L 252.3,153.1 L 256.9,153.4 L 261.5,153.6 L 266.0,153.7 L 270.6,153.7 L 275.1,153.7 L 279.7,153.7 L 284.2,153.6 L 288.8,153.5 L 293.4,153.4 L 297.9,153.3 L 302.5,153.1 L 307.0,153.0 L 311.6,152.9 L 316.1,152.8 L 320.7,152.7 L 325.3,152.6 L 329.8,152.6 L 334.4,152.5 L 338.9,152.5 L 343.5,152.5 L 348.1,152.5 L 352.6,152.5 L 357.2,152.6 L 361.7,152.7 L 366.3,152.8 L 370.9,153.0 L 375.4,153.2 L 380.0,153.4 L 384.5,153.6 L 389.1,153.9 L 393.6,154.2 L 398.2,154.5 L 402.8,154.8 L 407.3,155.2 L 411.9,155.6 L 416.4,156.1 L 421.0,156.5 L 425.6,157.0 L 430.1,157.6 L 434.7,158.1 L 439.2,158.7 L 443.8,159.2 L 448.3,159.8 L 452.9,160.5 L 457.5,161.1 L 462.0,161.7 L 466.6,162.4 L 471.1,163.0 L 475.7,163.6 L 480.3,164.2 L 484.8,164.8 L 489.4,165.3 L 493.9,165.8 L 498.5,166.1 L 503.0,166.3 L 507.6,166.4 L 512.2,166.2 L 516.7,165.6 L 521.3,164.6 L 525.8,163.2 L 530.4,161.1 L 535.0,158.8 L 539.5,156.4 L 544.1,154.8 L 548.6,154.7 L 553.2,156.2 L 557.7,159.9 L 562.3,165.2 L 566.9,171.9 L 571.4,179.4 L 576.0,187.2 L 580.5,195.0 L 585.1,202.4 L 589.6,209.2 L 594.2,215.2 L 598.8,220.6 L 603.3,225.3 L 607.9,229.5 L 612.4,233.2 L 617.0,236.6" class="fw"/>
<line x1="71.44" y1="83.18" x2="71.44" y2="144.55" class="err"/>
<line x1="68.44" y1="83.18" x2="74.44" y2="83.18" class="err"/>
<line x1="68.44" y1="144.55" x2="74.44" y2="144.55" class="err"/>
<circle cx="71.44" cy="113.87" r="2.5" class="obs"/>
<line x1="72.83" y1="99.01" x2="72.83" y2="132.26" class="err"/>
<line x1="69.83" y1="99.01" x2="75.83" y2="99.01" class="err"/>
<line x1="69.83" y1="132.26" x2="75.83" y2="132.26" class="err"/>
<circle cx="72.83" cy="115.63" r="2.5" class="obs"/>
<line x1="74.27" y1="105.38" x2="74.27" y2="127.66" class="err"/>
<line x1="71.27" y1="105.38" x2="77.27" y2="105.38" class="err"/>
<line x1="71.27" y1="127.66" x2="77.27" y2="127.66" class="err"/>
<circle cx="74.27" cy="116.52" r="2.5" class="obs"/>
<line x1="75.66" y1="108.03" x2="75.66" y2="126.78" class="err"/>
<line x1="72.66" y1="108.03" x2="78.66" y2="108.03" class="err"/>
<line x1="72.66" y1="126.78" x2="78.66" y2="126.78" class="err"/>
<circle cx="75.66" cy="117.40" r="2.5" class="obs"/>
<line x1="77.10" y1="107.85" x2="77.10" y2="126.95" class="err"/>
<line x1="74.10" y1="107.85" x2="80.10" y2="107.85" class="err"/>
<line x1="74.10" y1="126.95" x2="80.10" y2="126.95" class="err"/>
<circle cx="77.10" cy="117.40" r="2.5" class="obs"/>
<line x1="78.50" y1="111.51" x2="78.50" y2="125.07" class="err"/>
<line x1="75.50" y1="111.51" x2="81.50" y2="111.51" class="err"/>
<line x1="75.50" y1="125.07" x2="81.50" y2="125.07" class="err"/>
<circle cx="78.50" cy="118.29" r="2.5" class="obs"/>
<line x1="79.93" y1="108.38" x2="79.93" y2="128.19" class="err"/>
<line x1="76.93" y1="108.38" x2="82.93" y2="108.38" class="err"/>
<line x1="76.93" y1="128.19" x2="82.93" y2="128.19" class="err"/>
<circle cx="79.93" cy="118.29" r="2.5" class="obs"/>
<line x1="81.33" y1="114.35" x2="81.33" y2="122.22" class="err"/>
<line x1="78.33" y1="114.35" x2="84.33" y2="114.35" class="err"/>
<line x1="78.33" y1="122.22" x2="84.33" y2="122.22" class="err"/>
<circle cx="81.33" cy="118.29" r="2.5" class="obs"/>
<line x1="82.77" y1="113.84" x2="82.77" y2="122.74" class="err"/>
<line x1="79.77" y1="113.84" x2="85.77" y2="113.84" class="err"/>
<line x1="79.77" y1="122.74" x2="85.77" y2="122.74" class="err"/>
<circle cx="82.77" cy="118.29" r="2.5" class="obs"/>
<line x1="84.16" y1="114.52" x2="84.16" y2="122.05" class="err"/>
<line x1="81.16" y1="114.52" x2="87.16" y2="114.52" class="err"/>
<line x1="81.16" y1="122.05" x2="87.16" y2="122.05" class="err"/>
<circle cx="84.16" cy="118.29" r="2.5" class="obs"/>
<line x1="85.60" y1="114.63" x2="85.60" y2="121.95" class="err"/>
<line x1="82.60" y1="114.63" x2="88.60" y2="114.63" class="err"/>
<line x1="82.60" y1="121.95" x2="88.60" y2="121.95" class="err"/>
<circle cx="85.60" cy="118.29" r="2.5" class="obs"/>
<line x1="87.04" y1="113.22" x2="87.04" y2="123.35" class="err"/>
<line x1="84.04" y1="113.22" x2="90.04" y2="113.22" class="err"/>
<line x1="84.04" y1="123.35" x2="90.04" y2="123.35" class="err"/>
<circle cx="87.04" cy="118.29" r="2.5" class="obs"/>
<line x1="88.43" y1="113.41" x2="88.43" y2="121.40" class="err"/>
<line x1="85.43" y1="113.41" x2="91.43" y2="113.41" class="err"/>
<line x1="85.43" y1="121.40" x2="91.43" y2="121.40" class="err"/>
<circle cx="88.43" cy="117.40" r="2.5" class="obs"/>
<line x1="89.87" y1="113.11" x2="89.87" y2="121.70" class="err"/>
<line x1="86.87" y1="113.11" x2="92.87" y2="113.11" class="err"/>
<line x1="86.87" y1="121.70" x2="92.87" y2="121.70" class="err"/>
<circle cx="89.87" cy="117.40" r="2.5" class="obs"/>
<line x1="91.26" y1="116.00" x2="91.26" y2="118.81" class="err"/>
<line x1="88.26" y1="116.00" x2="94.26" y2="116.00" class="err"/>
<line x1="88.26" y1="118.81" x2="94.26" y2="118.81" class="err"/>
<circle cx="91.26" cy="117.40" r="2.5" class="obs"/>
<line x1="92.70" y1="114.88" x2="92.70" y2="118.15" class="err"/>
<line x1="89.70" y1="114.88" x2="95.70" y2="114.88" class="err"/>
<line x1="89.70" y1="118.15" x2="95.70" y2="118.15" class="err"/>
<circle cx="92.70" cy="116.52" r="2.5" class="obs"/>
<line x1="94.09" y1="111.38" x2="94.09" y2="119.89" class="err"/>
<line x1="91.09" y1="111.38" x2="97.09" y2="111.38" class="err"/>
<line x1="91.09" y1="119.89" x2="97.09" y2="119.89" class="err"/>
<circle cx="94.09" cy="115.63" r="2.5" class="obs"/>
<line x1="95.53" y1="97.68" x2="95.53" y2="133.59" class="err"/>
<line x1="92.53" y1="97.68" x2="98.53" y2="97.68" class="err"/>
<line x1="92.53" y1="133.59" x2="98.53" y2="133.59" class="err"/>
<circle cx="95.53" cy="115.63" r="2.5" class="obs"/>
<line x1="96.93" y1="103.43" x2="96.93" y2="126.07" class="err"/>
<line x1="93.93" y1="103.43" x2="99.93" y2="103.43" class="err"/>
<line x1="93.93" y1="126.07" x2="99.93" y2="126.07" class="err"/>
<circle cx="96.93" cy="114.75" r="2.5" class="obs"/>
<line x1="98.36" y1="106.72" x2="98.36" y2="121.01" class="err"/>
<line x1="95.36" y1="106.72" x2="101.36" y2="106.72" class="err"/>
<line x1="95.36" y1="121.01" x2="101.36" y2="121.01" class="err"/>
<circle cx="98.36" cy="113.87" r="2.5" class="obs"/>
<line x1="99.76" y1="106.96" x2="99.76" y2="120.77" class="err"/>
<line x1="96.76" y1="106.96" x2="102.76" y2="106.96" class="err"/>
<line x1="96.76" y1="120.77" x2="102.76" y2="120.77" class="err"/>
<circle cx="99.76" cy="113.87" r="2.5" class="obs"/>
<line x1="101.20" y1="103.79" x2="101.20" y2="122.18" class="err"/>
<line x1="98.20" y1="103.79" x2="104.20" y2="103.79" class="err"/>
<line x1="98.20" y1="122.18" x2="104.20" y2="122.18" class="err"/>
<circle cx="101.20" cy="112.98" r="2.5" class="obs"/>
<line x1="104.03" y1="106.07" x2="104.03" y2="118.13" class="err"/>
<line x1="101.03" y1="106.07" x2="107.03" y2="106.07" class="err"/>
<line x1="101.03" y1="118.13" x2="107.03" y2="118.13" class="err"/>
<circle cx="104.03" cy="112.10" r="2.5" class="obs"/>
<line x1="105.47" y1="99.36" x2="105.47" y2="123.06" class="err"/>
<line x1="102.47" y1="99.36" x2="108.47" y2="99.36" class="err"/>
<line x1="102.47" y1="123.06" x2="108.47" y2="123.06" class="err"/>
<circle cx="105.47" cy="111.21" r="2.5" class="obs"/>
<line x1="106.86" y1="101.93" x2="106.86" y2="120.50" class="err"/>
<line x1="103.86" y1="101.93" x2="109.86" y2="101.93" class="err"/>
<line x1="103.86" y1="120.50" x2="109.86" y2="120.50" class="err"/>
<circle cx="106.86" cy="111.21" r="2.5" class="obs"/>
<line x1="107.35" y1="107.74" x2="107.35" y2="112.92" class="err"/>
<line x1="104.35" y1="107.74" x2="110.35" y2="107.74" class="err"/>
<line x1="104.35" y1="112.92" x2="110.35" y2="112.92" class="err"/>
<circle cx="107.35" cy="110.33" r="2.5" class="obs"/>
<line x1="108.30" y1="105.39" x2="108.30" y2="115.26" class="err"/>
<line x1="105.30" y1="105.39" x2="111.30" y2="105.39" class="err"/>
<line x1="105.30" y1="115.26" x2="111.30" y2="115.26" class="err"/>
<circle cx="108.30" cy="110.33" r="2.5" class="obs"/>
<line x1="109.69" y1="105.25" x2="109.69" y2="115.40" class="err"/>
<line x1="106.69" y1="105.25" x2="112.69" y2="105.25" class="err"/>
<line x1="106.69" y1="115.40" x2="112.69" y2="115.40" class="err"/>
<circle cx="109.69" cy="110.33" r="2.5" class="obs"/>
<line x1="111.13" y1="104.14" x2="111.13" y2="116.52" class="err"/>
<line x1="108.13" y1="104.14" x2="114.13" y2="104.14" class="err"/>
<line x1="108.13" y1="116.52" x2="114.13" y2="116.52" class="err"/>
<circle cx="111.13" cy="110.33" r="2.5" class="obs"/>
<line x1="113.96" y1="98.21" x2="113.96" y2="120.68" class="err"/>
<line x1="110.96" y1="98.21" x2="116.96" y2="98.21" class="err"/>
<line x1="110.96" y1="120.68" x2="116.96" y2="120.68" class="err"/>
<circle cx="113.96" cy="109.44" r="2.5" class="obs"/>
<line x1="115.40" y1="106.00" x2="115.40" y2="112.88" class="err"/>
<line x1="112.40" y1="106.00" x2="118.40" y2="106.00" class="err"/>
<line x1="112.40" y1="112.88" x2="118.40" y2="112.88" class="err"/>
<circle cx="115.40" cy="109.44" r="2.5" class="obs"/>
<line x1="119.63" y1="105.89" x2="119.63" y2="114.77" class="err"/>
<line x1="116.63" y1="105.89" x2="122.63" y2="105.89" class="err"/>
<line x1="116.63" y1="114.77" x2="122.63" y2="114.77" class="err"/>
<circle cx="119.63" cy="110.33" r="2.5" class="obs"/>
<line x1="121.07" y1="107.33" x2="121.07" y2="113.33" class="err"/>
<line x1="118.07" y1="107.33" x2="124.07" y2="107.33" class="err"/>
<line x1="118.07" y1="113.33" x2="124.07" y2="113.33" class="err"/>
<circle cx="121.07" cy="110.33" r="2.5" class="obs"/>
<line x1="122.46" y1="100.87" x2="122.46" y2="119.79" class="err"/>
<line x1="119.46" y1="100.87" x2="125.46" y2="100.87" class="err"/>
<line x1="119.46" y1="119.79" x2="125.46" y2="119.79" class="err"/>
<circle cx="122.46" cy="110.33" r="2.5" class="obs"/>
<line x1="131.00" y1="109.38" x2="131.00" y2="116.58" class="err"/>
<line x1="128.00" y1="109.38" x2="134.00" y2="109.38" class="err"/>
<line x1="128.00" y1="116.58" x2="134.00" y2="116.58" class="err"/>
<circle cx="131.00" cy="112.98" r="2.5" class="obs"/>
<line x1="132.39" y1="105.98" x2="132.39" y2="121.75" class="err"/>
<line x1="129.39" y1="105.98" x2="135.39" y2="105.98" class="err"/>
<line x1="129.39" y1="121.75" x2="135.39" y2="121.75" class="err"/>
<circle cx="132.39" cy="113.87" r="2.5" class="obs"/>
<line x1="133.83" y1="108.83" x2="133.83" y2="118.90" class="err"/>
<line x1="130.83" y1="108.83" x2="136.83" y2="108.83" class="err"/>
<line x1="130.83" y1="118.90" x2="136.83" y2="118.90" class="err"/>
<circle cx="133.83" cy="113.87" r="2.5" class="obs"/>
<line x1="144.66" y1="111.09" x2="144.66" y2="127.25" class="err"/>
<line x1="141.66" y1="111.09" x2="147.66" y2="111.09" class="err"/>
<line x1="141.66" y1="127.25" x2="147.66" y2="127.25" class="err"/>
<circle cx="144.66" cy="119.17" r="2.5" class="obs"/>
<line x1="156.98" y1="118.20" x2="156.98" y2="128.99" class="err"/>
<line x1="153.98" y1="118.20" x2="159.98" y2="118.20" class="err"/>
<line x1="153.98" y1="128.99" x2="159.98" y2="128.99" class="err"/>
<circle cx="156.98" cy="123.59" r="2.5" class="obs"/>
<line x1="169.75" y1="125.13" x2="169.75" y2="129.13" class="err"/>
<line x1="166.75" y1="125.13" x2="172.75" y2="125.13" class="err"/>
<line x1="166.75" y1="129.13" x2="172.75" y2="129.13" class="err"/>
<circle cx="169.75" cy="127.13" r="2.5" class="obs"/>
<line x1="182.02" y1="129.50" x2="182.02" y2="131.83" class="err"/>
<line x1="179.02" y1="129.50" x2="185.02" y2="129.50" class="err"/>
<line x1="179.02" y1="131.83" x2="185.02" y2="131.83" class="err"/>
<circle cx="182.02" cy="130.67" r="2.5" class="obs"/>
<line x1="194.34" y1="130.53" x2="194.34" y2="136.11" class="err"/>
<line x1="191.34" y1="130.53" x2="197.34" y2="130.53" class="err"/>
<line x1="191.34" y1="136.11" x2="197.34" y2="136.11" class="err"/>
<circle cx="194.34" cy="133.32" r="2.5" class="obs"/>
<line x1="207.10" y1="133.58" x2="207.10" y2="141.91" class="err"/>
<line x1="204.10" y1="133.58" x2="210.10" y2="133.58" class="err"/>
<line x1="204.10" y1="141.91" x2="210.10" y2="141.91" class="err"/>
<circle cx="207.10" cy="137.74" r="2.5" class="obs"/>
<line x1="219.37" y1="137.78" x2="219.37" y2="146.55" class="err"/>
<line x1="216.37" y1="137.78" x2="222.37" y2="137.78" class="err"/>
<line x1="216.37" y1="146.55" x2="222.37" y2="146.55" class="err"/>
<circle cx="219.37" cy="142.16" r="2.5" class="obs"/>
<line x1="231.65" y1="144.30" x2="231.65" y2="148.87" class="err"/>
<line x1="228.65" y1="144.30" x2="234.65" y2="144.30" class="err"/>
<line x1="228.65" y1="148.87" x2="234.65" y2="148.87" class="err"/>
<circle cx="231.65" cy="146.58" r="2.5" class="obs"/>
<line x1="244.41" y1="148.78" x2="244.41" y2="153.23" class="err"/>
<line x1="241.41" y1="148.78" x2="247.41" y2="148.78" class="err"/>
<line x1="241.41" y1="153.23" x2="247.41" y2="153.23" class="err"/>
<circle cx="244.41" cy="151.01" r="2.5" class="obs"/>
<line x1="256.73" y1="152.51" x2="256.73" y2="156.58" class="err"/>
<line x1="253.73" y1="152.51" x2="259.73" y2="152.51" class="err"/>
<line x1="253.73" y1="156.58" x2="259.73" y2="156.58" class="err"/>
<circle cx="256.73" cy="154.54" r="2.5" class="obs"/>
<line x1="269.00" y1="156.64" x2="269.00" y2="157.75" class="err"/>
<line x1="266.00" y1="156.64" x2="272.00" y2="156.64" class="err"/>
<line x1="266.00" y1="157.75" x2="272.00" y2="157.75" class="err"/>
<circle cx="269.00" cy="157.20" r="2.5" class="obs"/>
<line x1="281.77" y1="155.07" x2="281.77" y2="157.55" class="err"/>
<line x1="278.77" y1="155.07" x2="284.77" y2="155.07" class="err"/>
<line x1="278.77" y1="157.55" x2="284.77" y2="157.55" class="err"/>
<circle cx="281.77" cy="156.31" r="2.5" class="obs"/>
<line x1="294.04" y1="151.83" x2="294.04" y2="155.49" class="err"/>
<line x1="291.04" y1="151.83" x2="297.04" y2="151.83" class="err"/>
<line x1="291.04" y1="155.49" x2="297.04" y2="155.49" class="err"/>
<circle cx="294.04" cy="153.66" r="2.5" class="obs"/>
<line x1="306.36" y1="148.68" x2="306.36" y2="153.33" class="err"/>
<line x1="303.36" y1="148.68" x2="309.36" y2="148.68" class="err"/>
<line x1="303.36" y1="153.33" x2="309.36" y2="153.33" class="err"/>
<circle cx="306.36" cy="151.01" r="2.5" class="obs"/>
<line x1="319.12" y1="146.90" x2="319.12" y2="149.80" class="err"/>
<line x1="316.12" y1="146.90" x2="322.12" y2="146.90" class="err"/>
<line x1="316.12" y1="149.80" x2="322.12" y2="149.80" class="err"/>
<circle cx="319.12" cy="148.35" r="2.5" class="obs"/>
<line x1="331.39" y1="145.43" x2="331.39" y2="147.74" class="err"/>
<line x1="328.39" y1="145.43" x2="334.39" y2="145.43" class="err"/>
<line x1="328.39" y1="147.74" x2="334.39" y2="147.74" class="err"/>
<circle cx="331.39" cy="146.58" r="2.5" class="obs"/>
<line x1="343.71" y1="145.58" x2="343.71" y2="149.36" class="err"/>
<line x1="340.71" y1="145.58" x2="346.71" y2="145.58" class="err"/>
<line x1="340.71" y1="149.36" x2="346.71" y2="149.36" class="err"/>
<circle cx="343.71" cy="147.47" r="2.5" class="obs"/>
<line x1="355.98" y1="146.58" x2="355.98" y2="153.66" class="err"/>
<line x1="352.98" y1="146.58" x2="358.98" y2="146.58" class="err"/>
<line x1="352.98" y1="153.66" x2="358.98" y2="153.66" class="err"/>
<circle cx="355.98" cy="150.12" r="2.5" class="obs"/>
<line x1="368.75" y1="149.53" x2="368.75" y2="157.79" class="err"/>
<line x1="365.75" y1="149.53" x2="371.75" y2="149.53" class="err"/>
<line x1="365.75" y1="157.79" x2="371.75" y2="157.79" class="err"/>
<circle cx="368.75" cy="153.66" r="2.5" class="obs"/>
<line x1="381.02" y1="153.55" x2="381.02" y2="162.61" class="err"/>
<line x1="378.02" y1="153.55" x2="384.02" y2="153.55" class="err"/>
<line x1="378.02" y1="162.61" x2="384.02" y2="162.61" class="err"/>
<circle cx="381.02" cy="158.08" r="2.5" class="obs"/>
<line x1="393.34" y1="159.76" x2="393.34" y2="163.47" class="err"/>
<line x1="390.34" y1="159.76" x2="396.34" y2="159.76" class="err"/>
<line x1="390.34" y1="163.47" x2="396.34" y2="163.47" class="err"/>
<circle cx="393.34" cy="161.62" r="2.5" class="obs"/>
<line x1="406.10" y1="162.22" x2="406.10" y2="164.55" class="err"/>
<line x1="403.10" y1="162.22" x2="409.10" y2="162.22" class="err"/>
<line x1="403.10" y1="164.55" x2="409.10" y2="164.55" class="err"/>
<circle cx="406.10" cy="163.39" r="2.5" class="obs"/>
<line x1="418.38" y1="161.97" x2="418.38" y2="164.80" class="err"/>
<line x1="415.38" y1="161.97" x2="421.38" y2="161.97" class="err"/>
<line x1="415.38" y1="164.80" x2="421.38" y2="164.80" class="err"/>
<circle cx="418.38" cy="163.39" r="2.5" class="obs"/>
<line x1="430.65" y1="161.48" x2="430.65" y2="167.06" class="err"/>
<line x1="427.65" y1="161.48" x2="433.65" y2="161.48" class="err"/>
<line x1="427.65" y1="167.06" x2="433.65" y2="167.06" class="err"/>
<circle cx="430.65" cy="164.27" r="2.5" class="obs"/>
<line x1="443.41" y1="162.08" x2="443.41" y2="168.23" class="err"/>
<line x1="440.41" y1="162.08" x2="446.41" y2="162.08" class="err"/>
<line x1="440.41" y1="168.23" x2="446.41" y2="168.23" class="err"/>
<circle cx="443.41" cy="165.15" r="2.5" class="obs"/>
<line x1="455.73" y1="163.64" x2="455.73" y2="170.20" class="err"/>
<line x1="452.73" y1="163.64" x2="458.73" y2="163.64" class="err"/>
<line x1="452.73" y1="170.20" x2="458.73" y2="170.20" class="err"/>
<circle cx="455.73" cy="166.92" r="2.5" class="obs"/>
<line x1="468.00" y1="167.37" x2="468.00" y2="170.01" class="err"/>
<line x1="465.00" y1="167.37" x2="471.00" y2="167.37" class="err"/>
<line x1="465.00" y1="170.01" x2="471.00" y2="170.01" class="err"/>
<circle cx="468.00" cy="168.69" r="2.5" class="obs"/>
<line x1="480.77" y1="167.65" x2="480.77" y2="169.73" class="err"/>
<line x1="477.77" y1="167.65" x2="483.77" y2="167.65" class="err"/>
<line x1="477.77" y1="169.73" x2="483.77" y2="169.73" class="err"/>
<circle cx="480.77" cy="168.69" r="2.5" class="obs"/>
<line x1="493.08" y1="165.84" x2="493.08" y2="168.00" class="err"/>
<line x1="490.08" y1="165.84" x2="496.08" y2="165.84" class="err"/>
<line x1="490.08" y1="168.00" x2="496.08" y2="168.00" class="err"/>
<circle cx="493.08" cy="166.92" r="2.5" class="obs"/>
<line x1="518.12" y1="161.79" x2="518.12" y2="166.75" class="err"/>
<line x1="515.12" y1="161.79" x2="521.12" y2="161.79" class="err"/>
<line x1="515.12" y1="166.75" x2="521.12" y2="166.75" class="err"/>
<circle cx="518.12" cy="164.27" r="2.5" class="obs"/>
<line x1="556.87" y1="158.86" x2="556.87" y2="166.14" class="err"/>
<line x1="553.87" y1="158.86" x2="559.87" y2="158.86" class="err"/>
<line x1="553.87" y1="166.14" x2="559.87" y2="166.14" class="err"/>
<circle cx="556.87" cy="162.50" r="2.5" class="obs"/>
<g class="legend">
<line x1="82" y1="69" x2="106" y2="69" class="fw"/>
<text x="112" y="73" class="lbl-l">framework fit</text>
<line x1="82" y1="87" x2="106" y2="87" class="nt"/>
<text x="112" y="91" class="lbl-l">Newtonian (no halo)</text>
<circle cx="94" cy="105" r="2.5" class="obs"/>
<text x="112" y="109" class="lbl">observed V±err</text>
</g>
<g class="legend">
<line x1="442" y1="69" x2="466" y2="69" class="rho"/>
<text x="472" y="73" class="lbl-r">ρ(r) raw</text>
<line x1="442" y1="87" x2="466" y2="87" class="sig"/>
<text x="472" y="91" class="lbl-s">Σ(r) cumulative</text>
<text x="442" y="113" class="lbl-r">ρ peak: 653 M☉/pc²</text>
</g>
<rect x="705" y="55" width="170" height="170" class="preview-bg"/>
<defs><radialGradient id="g_UGC09133" cx="0.5" cy="0.5" r="0.5">
  <stop offset="0.0000" stop-color="rgb(215,215,215)"/>
  <stop offset="0.0313" stop-color="rgb(80,80,80)"/>
  <stop offset="0.0625" stop-color="rgb(75,75,75)"/>
  <stop offset="0.0938" stop-color="rgb(70,70,70)"/>
  <stop offset="0.1250" stop-color="rgb(66,66,66)"/>
  <stop offset="0.1563" stop-color="rgb(62,62,62)"/>
  <stop offset="0.1875" stop-color="rgb(59,59,59)"/>
  <stop offset="0.2188" stop-color="rgb(56,56,56)"/>
  <stop offset="0.2500" stop-color="rgb(53,53,53)"/>
  <stop offset="0.2813" stop-color="rgb(51,51,51)"/>
  <stop offset="0.3125" stop-color="rgb(49,49,49)"/>
  <stop offset="0.3438" stop-color="rgb(48,48,48)"/>
  <stop offset="0.3750" stop-color="rgb(46,46,46)"/>
  <stop offset="0.4063" stop-color="rgb(45,45,45)"/>
  <stop offset="0.4375" stop-color="rgb(44,44,44)"/>
  <stop offset="0.4688" stop-color="rgb(42,42,42)"/>
  <stop offset="0.5000" stop-color="rgb(41,41,41)"/>
  <stop offset="0.5313" stop-color="rgb(39,39,39)"/>
  <stop offset="0.5625" stop-color="rgb(38,38,38)"/>
  <stop offset="0.5938" stop-color="rgb(37,37,37)"/>
  <stop offset="0.6250" stop-color="rgb(35,35,35)"/>
  <stop offset="0.6563" stop-color="rgb(34,34,34)"/>
  <stop offset="0.6875" stop-color="rgb(33,33,33)"/>
  <stop offset="0.7188" stop-color="rgb(31,31,31)"/>
  <stop offset="0.7500" stop-color="rgb(30,30,30)"/>
  <stop offset="0.7813" stop-color="rgb(28,28,28)"/>
  <stop offset="0.8125" stop-color="rgb(27,27,27)"/>
  <stop offset="0.8438" stop-color="rgb(26,26,26)"/>
  <stop offset="0.8750" stop-color="rgb(24,24,24)"/>
  <stop offset="0.9063" stop-color="rgb(23,23,23)"/>
  <stop offset="0.9375" stop-color="rgb(15,15,15)"/>
  <stop offset="0.9688" stop-color="rgb(8,8,8)"/>
  <stop offset="1.0000" stop-color="rgb(0,0,0)"/>
</radialGradient></defs>
<circle cx="790" cy="140" r="81" fill="url(#g_UGC09133)"/>
<text x="790" y="49" text-anchor="middle" class="preview-lbl">face-on luminance from ρ(r)</text>
<text x="790" y="239" text-anchor="middle" class="preview-lbl">edge at r = 115.9 kpc</text>
</svg>