<svg xmlns="http://www.w3.org/2000/svg" viewBox="0 0 890 420" width="890" height="420" font-family="sans-serif" font-size="12">
<style>
  .ax { stroke: #333; stroke-width: 1; fill: none; }
  .grid { stroke: #ddd; stroke-width: 0.5; fill: none; }
  .lbl { fill: #333; }
  .lbl-l { fill: #0066cc; }
  .lbl-r { fill: #b03030; }
  .lbl-s { fill: #cc7000; }
  .obs { fill: #222; }
  .err { stroke: #555; stroke-width: 0.8; fill: none; }
  .fw { stroke: #0066cc; stroke-width: 2.2; fill: none; }
  .nt { stroke: #cc6600; stroke-width: 1.6; fill: none; stroke-dasharray: 5,3; }
  .rho { stroke: #b03030; stroke-width: 2.0; fill: none; }
  .sig { stroke: #cc7000; stroke-width: 1.8; fill: none; }
  .title { fill: #111; font-size: 16px; font-weight: 600; }
  .subtitle { fill: #555; font-size: 11px; }
  .legend { font-size: 11px; }
  .preview-bg { fill: #000; }
  .preview-lbl { fill: #888; font-size: 10px; }
</style>
<text x="343.5" y="22" text-anchor="middle" class="title">UGC00634</text>
<text x="343.5" y="38" text-anchor="middle" class="subtitle">rMax=18.0 kpc, N=4, RMS=1.5 km/s (1.5%), amp=343</text>
<line x1="70" y1="365.0" x2="617" y2="365.0" class="grid"/>
<text x="64" y="369.0" text-anchor="end" class="lbl-l">0</text>
<line x1="70" y1="303.0" x2="617" y2="303.0" class="grid"/>
<text x="64" y="307.0" text-anchor="end" class="lbl-l">25</text>
<line x1="70" y1="241.0" x2="617" y2="241.0" class="grid"/>
<text x="64" y="245.0" text-anchor="end" class="lbl-l">51</text>
<line x1="70" y1="178.99999999999997" x2="617" y2="178.99999999999997" class="grid"/>
<text x="64" y="182.99999999999997" text-anchor="end" class="lbl-l">76</text>
<line x1="70" y1="116.99999999999999" x2="617" y2="116.99999999999999" class="grid"/>
<text x="64" y="120.99999999999999" text-anchor="end" class="lbl-l">102</text>
<line x1="70" y1="54.99999999999993" x2="617" y2="54.99999999999993" class="grid"/>
<text x="64" y="58.99999999999993" text-anchor="end" class="lbl-l">127</text>
<text x="623" y="369.0" text-anchor="start" class="lbl-r">0.0</text>
<text x="623" y="327.6666666666667" text-anchor="start" class="lbl-r">0.2</text>
<text x="623" y="286.33333333333337" text-anchor="start" class="lbl-r">0.4</text>
<text x="623" y="245.00000000000003" text-anchor="start" class="lbl-r">0.6</text>
<text x="623" y="203.66666666666666" text-anchor="start" class="lbl-r">0.8</text>
<text x="623" y="162.33333333333334" text-anchor="start" class="lbl-r">1.0</text>
<line x1="70.0" y1="55" x2="70.0" y2="365" class="grid"/>
<text x="70.0" y="381" text-anchor="middle" class="lbl">0.0</text>
<line x1="161.16666666666666" y1="55" x2="161.16666666666666" y2="365" class="grid"/>
<text x="161.16666666666666" y="381" text-anchor="middle" class="lbl">4.3</text>
<line x1="252.33333333333331" y1="55" x2="252.33333333333331" y2="365" class="grid"/>
<text x="252.33333333333331" y="381" text-anchor="middle" class="lbl">8.5</text>
<line x1="343.5" y1="55" x2="343.5" y2="365" class="grid"/>
<text x="343.5" y="381" text-anchor="middle" class="lbl">12.8</text>
<line x1="434.66666666666663" y1="55" x2="434.66666666666663" y2="365" class="grid"/>
<text x="434.66666666666663" y="381" text-anchor="middle" class="lbl">17.1</text>
<line x1="525.8333333333333" y1="55" x2="525.8333333333333" y2="365" class="grid"/>
<text x="525.8333333333333" y="381" text-anchor="middle" class="lbl">21.3</text>
<line x1="617.0" y1="55" x2="617.0" y2="365" class="grid"/>
<text x="617.0" y="381" text-anchor="middle" class="lbl">25.6</text>
<text x="343.5" y="397" text-anchor="middle" class="lbl">radius (kpc)</text>
<text x="16" y="210.0" text-anchor="middle" class="lbl-l" transform="rotate(-90, 16, 210.0)">velocity (km/s)</text>
<text x="661" y="210.0" text-anchor="middle" class="lbl-r" transform="rotate(-90, 661, 210.0)">mass profile (normalized to peak)</text>
<rect x="70" y="55" width="547" height="310" class="ax"/>
<path d="M 70.0,158.3 L 72.5,191.3 L 75.0,224.3 L 77.5,257.2 L 80.0,283.6 L 82.5,284.3 L 85.0,285.0 L 87.5,285.6 L 90.0,286.3 L 92.5,286.9 L 95.0,287.6 L 97.5,288.3 L 100.0,288.9 L 102.5,289.6 L 105.0,290.3 L 107.5,290.9 L 110.0,291.6 L 112.5,292.2 L 115.0,292.9 L 117.5,293.6 L 120.0,294.2 L 122.5,294.9 L 124.9,295.6 L 127.4,296.2 L 129.9,296.9 L 132.4,297.5 L 134.9,298.2 L 137.4,298.9 L 139.9,299.5 L 142.4,300.2 L 144.9,300.9 L 147.4,301.5 L 149.9,302.2 L 152.4,302.8 L 154.9,303.5 L 157.4,304.2 L 159.9,304.8 L 162.4,305.5 L 164.9,305.5 L 167.4,305.5 L 169.9,305.5 L 172.4,305.5 L 174.9,305.5 L 177.4,305.5 L 179.9,305.5 L 182.4,305.5 L 184.9,305.5 L 187.4,305.5 L 189.9,305.5 L 192.4,305.5 L 194.9,305.5 L 197.4,305.5 L 199.9,305.7 L 202.4,306.0 L 204.9,306.3 L 207.4,306.5 L 209.9,306.8 L 212.4,307.1 L 214.9,307.4 L 217.4,307.6 L 219.9,307.9 L 222.4,308.2 L 224.9,308.4 L 227.4,308.7 L 229.9,309.0 L 232.4,309.3 L 234.8,309.5 L 237.3,309.8 L 239.8,310.1 L 242.3,310.4 L 244.8,310.6 L 247.3,310.9 L 249.8,311.2 L 252.3,311.5 L 254.8,311.7 L 257.3,312.0 L 259.8,312.3 L 262.3,312.6 L 264.8,312.8 L 267.3,313.1 L 269.8,313.4 L 272.3,313.7 L 274.8,313.9 L 277.3,314.2 L 279.8,314.5 L 282.3,314.8 L 284.8,315.0 L 287.3,315.3 L 289.8,315.6 L 292.3,315.9 L 294.8,316.1 L 297.3,316.4 L 299.8,316.7 L 302.3,317.0 L 304.8,317.2 L 307.3,317.5 L 309.8,317.8 L 312.3,318.1 L 314.8,318.3 L 317.3,318.6 L 319.8,318.9 L 322.3,319.2 L 324.8,319.4 L 327.3,319.7 L 329.8,320.0 L 332.3,320.3 L 334.8,320.5 L 337.3,320.8 L 339.8,321.1 L 342.3,321.3 L 344.7,321.6 L 347.2,321.9 L 349.7,322.2 L 352.2,322.4 L 354.7,322.7 L 357.2,323.0 L 359.7,323.3 L 362.2,323.5 L 364.7,323.8 L 367.2,324.1 L 369.7,324.4 L 372.2,324.6 L 374.7,324.9 L 377.2,325.2 L 379.7,325.5 L 382.2,325.7 L 384.7,326.0 L 387.2,326.3 L 389.7,326.6 L 392.2,326.8 L 394.7,327.1 L 397.2,327.4 L 399.7,327.7 L 402.2,327.9 L 404.7,328.2 L 407.2,328.5 L 409.7,328.8 L 412.2,329.0 L 414.7,329.3 L 417.2,329.6 L 419.7,329.9 L 422.2,330.1 L 424.7,330.4 L 427.2,330.7 L 429.7,331.0 L 432.2,331.2 L 434.7,331.5 L 437.2,331.8 L 439.7,332.1 L 442.2,332.3 L 444.7,332.6 L 447.2,332.9 L 449.7,333.2 L 452.2,333.4 L 454.6,333.7 L 457.1,334.0 L 459.6,334.2 L 462.1,334.5 L 464.6,335.0 L 467.1,335.6 L 469.6,336.2 L 472.1,336.8 L 474.6,337.4 L 477.1,338.0 L 479.6,338.6 L 482.1,339.2 L 484.6,339.8 L 487.1,340.3 L 489.6,340.9 L 492.1,341.5 L 494.6,342.1 L 497.1,342.7 L 499.6,343.3 L 502.1,343.9 L 504.6,344.5 L 507.1,345.1 L 509.6,345.7 L 512.1,346.3 L 514.6,346.9 L 517.1,347.5 L 519.6,348.1 L 522.1,348.6 L 524.6,349.2 L 527.1,349.8 L 529.6,350.4 L 532.1,351.0 L 534.6,351.6 L 537.1,352.2 L 539.6,352.8 L 542.1,353.4 L 544.6,354.0 L 547.1,354.6 L 549.6,355.2 L 552.1,355.8 L 554.6,356.4 L 557.1,357.0 L 559.6,357.5 L 562.1,358.1 L 564.5,358.7 L 567.0,359.3 L 569.5,359.9 L 572.0,360.5 L 574.5,361.1 L 577.0,361.7 L 579.5,362.3 L 582.0,362.9 L 584.5,363.5 L 587.0,364.1 L 589.5,364.7 L 592.0,365.0 L 594.5,365.0 L 597.0,365.0 L 599.5,365.0 L 602.0,365.0 L 604.5,365.0 L 607.0,365.0 L 609.5,365.0 L 612.0,365.0 L 614.5,365.0 L 617.0,365.0" class="rho"/>
<path d="M 70.0,158.3 L 72.5,158.8 L 75.0,159.6 L 77.5,160.7 L 80.0,162.1 L 82.5,163.7 L 85.0,165.4 L 87.5,167.2 L 90.0,168.9 L 92.5,170.7 L 95.0,172.4 L 97.5,174.1 L 100.0,175.8 L 102.5,177.5 L 105.0,179.2 L 107.5,180.8 L 110.0,182.5 L 112.5,184.2 L 115.0,185.8 L 117.5,187.5 L 120.0,189.2 L 122.5,190.8 L 124.9,192.5 L 127.4,194.1 L 129.9,195.8 L 132.4,197.4 L 134.9,199.0 L 137.4,200.6 L 139.9,202.2 L 142.4,203.8 L 144.9,205.3 L 147.4,206.8 L 149.9,208.3 L 152.4,209.7 L 154.9,211.1 L 157.4,212.5 L 159.9,213.9 L 162.4,215.2 L 164.9,216.4 L 167.4,217.7 L 169.9,218.8 L 172.4,220.0 L 174.9,221.1 L 177.4,222.2 L 179.9,223.3 L 182.4,224.4 L 184.9,225.5 L 187.4,226.5 L 189.9,227.6 L 192.4,228.6 L 194.9,229.7 L 197.4,230.7 L 199.9,231.8 L 202.4,232.9 L 204.9,233.9 L 207.4,235.0 L 209.9,236.1 L 212.4,237.2 L 214.9,238.3 L 217.4,239.4 L 219.9,240.5 L 222.4,241.6 L 224.9,242.7 L 227.4,243.8 L 229.9,245.0 L 232.4,246.1 L 234.8,247.2 L 237.3,248.3 L 239.8,249.4 L 242.3,250.5 L 244.8,251.7 L 247.3,252.8 L 249.8,253.9 L 252.3,255.0 L 254.8,256.1 L 257.3,257.2 L 259.8,258.3 L 262.3,259.4 L 264.8,260.5 L 267.3,261.6 L 269.8,262.7 L 272.3,263.8 L 274.8,264.9 L 277.3,266.0 L 279.8,267.0 L 282.3,268.1 L 284.8,269.2 L 287.3,270.3 L 289.8,271.3 L 292.3,272.4 L 294.8,273.4 L 297.3,274.5 L 299.8,275.5 L 302.3,276.5 L 304.8,277.6 L 307.3,278.6 L 309.8,279.6 L 312.3,280.6 L 314.8,281.6 L 317.3,282.6 L 319.8,283.6 L 322.3,284.6 L 324.8,285.6 L 327.3,286.6 L 329.8,287.6 L 332.3,288.6 L 334.8,289.5 L 337.3,290.5 L 339.8,291.4 L 342.3,292.4 L 344.7,293.3 L 347.2,294.2 L 349.7,295.2 L 352.2,296.1 L 354.7,297.0 L 357.2,297.9 L 359.7,298.8 L 362.2,299.7 L 364.7,300.6 L 367.2,301.5 L 369.7,302.3 L 372.2,303.2 L 374.7,304.1 L 377.2,304.9 L 379.7,305.8 L 382.2,306.6 L 384.7,307.4 L 387.2,308.3 L 389.7,309.1 L 392.2,309.9 L 394.7,310.7 L 397.2,311.5 L 399.7,312.3 L 402.2,313.1 L 404.7,313.9 L 407.2,314.7 L 409.7,315.4 L 412.2,316.2 L 414.7,317.0 L 417.2,317.7 L 419.7,318.5 L 422.2,319.2 L 424.7,319.9 L 427.2,320.7 L 429.7,321.4 L 432.2,322.1 L 434.7,322.8 L 437.2,323.5 L 439.7,324.3 L 442.2,325.0 L 444.7,325.7 L 447.2,326.4 L 449.7,327.1 L 452.2,327.7 L 454.6,328.4 L 457.1,329.1 L 459.6,329.8 L 462.1,330.5 L 464.6,331.2 L 467.1,331.9 L 469.6,332.5 L 472.1,333.2 L 474.6,333.9 L 477.1,334.5 L 479.6,335.2 L 482.1,335.8 L 484.6,336.5 L 487.1,337.1 L 489.6,337.7 L 492.1,338.3 L 494.6,338.9 L 497.1,339.5 L 499.6,340.1 L 502.1,340.6 L 504.6,341.2 L 507.1,341.7 L 509.6,342.3 L 512.1,342.8 L 514.6,343.3 L 517.1,343.7 L 519.6,344.2 L 522.1,344.7 L 524.6,345.1 L 527.1,345.5 L 529.6,345.9 L 532.1,346.3 L 534.6,346.7 L 537.1,347.1 L 539.6,347.5 L 542.1,347.8 L 544.6,348.2 L 547.1,348.5 L 549.6,348.8 L 552.1,349.1 L 554.6,349.4 L 557.1,349.7 L 559.6,349.9 L 562.1,350.2 L 564.5,350.5 L 567.0,350.7 L 569.5,351.0 L 572.0,351.2 L 574.5,351.4 L 577.0,351.6 L 579.5,351.8 L 582.0,352.0 L 584.5,352.2 L 587.0,352.4 L 589.5,352.6 L 592.0,352.8 L 594.5,352.9 L 597.0,353.1 L 599.5,353.3 L 602.0,353.4 L 604.5,353.6 L 607.0,353.7 L 609.5,353.9 L 612.0,354.0 L 614.5,354.2 L 617.0,354.3" class="sig"/>
<path d="M 75.5,302.2 L 80.9,290.1 L 86.4,280.9 L 91.9,271.5 L 97.3,262.7 L 102.8,254.6 L 108.3,247.1 L 113.8,240.2 L 119.2,233.8 L 124.7,227.8 L 130.2,222.3 L 135.6,217.1 L 141.1,212.2 L 146.6,207.6 L 152.1,203.3 L 157.5,199.2 L 163.0,195.4 L 168.5,191.6 L 173.9,187.9 L 179.4,184.2 L 184.9,180.5 L 190.3,176.9 L 195.8,173.3 L 201.3,169.8 L 206.8,166.4 L 212.2,163.1 L 217.7,159.9 L 223.2,156.7 L 228.6,153.7 L 234.1,150.8 L 239.6,148.0 L 245.0,145.2 L 250.5,142.5 L 256.0,139.9 L 261.5,137.4 L 266.9,134.9 L 272.4,132.5 L 277.9,130.2 L 283.3,128.0 L 288.8,125.8 L 294.3,123.6 L 299.7,121.6 L 305.2,119.5 L 310.7,117.6 L 316.1,115.7 L 321.6,113.8 L 327.1,112.0 L 332.6,110.3 L 338.0,108.6 L 343.5,107.0 L 349.0,105.4 L 354.4,103.8 L 359.9,102.3 L 365.4,100.9 L 370.9,99.5 L 376.3,98.1 L 381.8,96.8 L 387.3,95.5 L 392.7,94.3 L 398.2,93.1 L 403.7,92.0 L 409.1,90.8 L 414.6,89.8 L 420.1,88.8 L 425.6,87.8 L 431.0,86.8 L 436.5,85.9 L 442.0,85.0 L 447.4,84.2 L 452.9,83.4 L 458.4,82.7 L 463.8,82.0 L 469.3,81.3 L 474.8,80.8 L 480.2,80.3 L 485.7,80.0 L 491.2,79.7 L 496.7,79.5 L 502.1,79.5 L 507.6,79.5 L 513.1,79.6 L 518.5,79.8 L 524.0,80.1 L 529.5,80.4 L 534.9,80.9 L 540.4,81.4 L 545.9,82.1 L 551.4,82.8 L 556.8,83.6 L 562.3,84.5 L 567.8,85.5 L 573.2,86.6 L 578.7,87.8 L 584.2,89.1 L 589.6,90.5 L 595.1,91.9 L 600.6,93.3 L 606.1,94.7 L 611.5,96.1 L 617.0,97.4" class="nt"/>
<path d="M 74.6,332.2 L 79.1,307.1 L 83.7,287.5 L 88.2,273.5 L 92.8,263.0 L 97.3,254.2 L 101.9,246.0 L 106.5,238.2 L 111.0,230.7 L 115.6,223.6 L 120.1,216.9 L 124.7,210.7 L 129.3,205.1 L 133.8,200.3 L 138.4,196.1 L 142.9,192.8 L 147.5,190.4 L 152.1,188.9 L 156.6,188.2 L 161.2,188.3 L 165.7,188.7 L 170.3,189.0 L 174.8,188.8 L 179.4,187.9 L 184.0,186.2 L 188.5,183.6 L 193.1,180.2 L 197.6,176.3 L 202.2,172.0 L 206.8,167.7 L 211.3,163.4 L 215.9,159.4 L 220.4,155.5 L 225.0,151.9 L 229.5,148.5 L 234.1,145.3 L 238.7,142.2 L 243.2,139.3 L 247.8,136.6 L 252.3,134.0 L 256.9,131.6 L 261.4,129.3 L 266.0,127.1 L 270.6,125.0 L 275.1,123.0 L 279.7,121.2 L 284.2,119.4 L 288.8,117.8 L 293.4,116.2 L 297.9,114.8 L 302.5,113.4 L 307.0,112.2 L 311.6,111.0 L 316.1,109.9 L 320.7,108.9 L 325.3,108.0 L 329.8,107.1 L 334.4,106.4 L 338.9,105.7 L 343.5,105.1 L 348.1,104.5 L 352.6,104.0 L 357.2,103.6 L 361.7,103.3 L 366.3,103.0 L 370.9,102.8 L 375.4,102.6 L 380.0,102.5 L 384.5,102.5 L 389.1,102.4 L 393.6,102.5 L 398.2,102.5 L 402.8,102.6 L 407.3,102.7 L 411.9,102.8 L 416.4,102.9 L 421.0,103.0 L 425.6,103.0 L 430.1,103.0 L 434.7,102.9 L 439.2,102.7 L 443.8,102.3 L 448.3,101.7 L 452.9,100.9 L 457.5,100.1 L 462.0,99.3 L 466.6,98.7 L 471.1,98.6 L 475.7,99.1 L 480.2,100.3 L 484.8,102.1 L 489.4,104.5 L 493.9,107.5 L 498.5,110.9 L 503.0,114.8 L 507.6,119.0 L 512.2,123.5 L 516.7,128.3 L 521.3,133.3 L 525.8,138.5 L 530.4,143.9 L 535.0,149.3 L 539.5,154.8 L 544.1,160.4 L 548.6,165.9 L 553.2,171.3 L 557.7,176.6 L 562.3,181.8 L 566.9,186.8 L 571.4,191.6 L 576.0,196.2 L 580.5,200.4 L 585.1,204.4 L 589.6,208.1 L 594.2,211.6 L 598.8,214.8 L 603.3,217.8 L 607.9,220.6 L 612.4,223.2 L 617.0,225.6" class="fw"/>
<line x1="166.31514626804997" y1="184.97272050704518" x2="166.31514626804997" y2="205.1922931699887" class="err"/>
<line x1="163.31514626804997" y1="184.97272050704518" x2="169.31514626804997" y2="184.97272050704518" class="err"/>
<line x1="163.31514626804997" y1="205.1922931699887" x2="169.31514626804997" y2="205.1922931699887" class="err"/>
<circle cx="166.31514626804997" cy="195.08250683851696" r="2.5" class="obs"/>
<line x1="262.4167334534657" y1="123.02287317949661" x2="262.4167334534657" y2="130.96453665915874" class="err"/>
<line x1="259.4167334534657" y1="123.02287317949661" x2="265.4167334534657" y2="123.02287317949661" class="err"/>
<line x1="259.4167334534657" y1="130.96453665915874" x2="265.4167334534657" y2="130.96453665915874" class="err"/>
<circle cx="262.4167334534657" cy="126.99370491932767" r="2.5" class="obs"/>
<line x1="358.5183206388814" y1="99.49021391154065" x2="358.5183206388814" y2="104.31367823354405" class="err"/>
<line x1="355.5183206388814" y1="99.49021391154065" x2="361.5183206388814" y2="99.49021391154065" class="err"/>
<line x1="355.5183206388814" y1="104.31367823354405" x2="361.5183206388814" y2="104.31367823354405" class="err"/>
<circle cx="358.5183206388814" cy="101.90194607254236" r="2.5" class="obs"/>
<line x1="454.6199078242972" y1="97.46825664524631" x2="454.6199078242972" y2="108.77172859175928" class="err"/>
<line x1="451.6199078242972" y1="97.46825664524631" x2="457.6199078242972" y2="97.46825664524631" class="err"/>
<line x1="451.6199078242972" y1="108.77172859175928" x2="457.6199078242972" y2="108.77172859175928" class="err"/>
<circle cx="454.6199078242972" cy="103.1199926185028" r="2.5" class="obs"/>
<g class="legend">
<line x1="82" y1="69" x2="106" y2="69" class="fw"/>
<text x="112" y="73" class="lbl-l">framework fit</text>
<line x1="82" y1="87" x2="106" y2="87" class="nt"/>
<text x="112" y="91" class="lbl-l">Newtonian (no halo)</text>
<circle cx="94" cy="105" r="2.5" class="obs"/>
<text x="112" y="109" class="lbl">observed V±err</text>
</g>
<g class="legend">
<line x1="472" y1="69" x2="496" y2="69" class="rho"/>
<text x="502" y="73" class="lbl-r">ρ(r) raw</text>
<line x1="472" y1="87" x2="496" y2="87" class="sig"/>
<text x="502" y="91" class="lbl-s">Σ(r) cumulative</text>
<text x="472" y="113" class="lbl-r">ρ peak: 250 M☉/pc²</text>
</g>
<rect x="705" y="55" width="170" height="170" class="preview-bg"/>
<defs><radialGradient id="g_UGC00634" cx="0.5" cy="0.5" r="0.5">
  <stop offset="0.0000" stop-color="rgb(104,104,104)"/>
  <stop offset="0.0312" stop-color="rgb(61,61,61)"/>
  <stop offset="0.0625" stop-color="rgb(58,58,58)"/>
  <stop offset="0.0938" stop-color="rgb(54,54,54)"/>
  <stop offset="0.1250" stop-color="rgb(51,51,51)"/>
  <stop offset="0.1562" stop-color="rgb(48,48,48)"/>
  <stop offset="0.1875" stop-color="rgb(46,46,46)"/>
  <stop offset="0.2188" stop-color="rgb(46,46,46)"/>
  <stop offset="0.2500" stop-color="rgb(45,45,45)"/>
  <stop offset="0.2812" stop-color="rgb(44,44,44)"/>
  <stop offset="0.3125" stop-color="rgb(43,43,43)"/>
  <stop offset="0.3438" stop-color="rgb(41,41,41)"/>
  <stop offset="0.3750" stop-color="rgb(40,40,40)"/>
  <stop offset="0.4062" stop-color="rgb(38,38,38)"/>
  <stop offset="0.4375" stop-color="rgb(37,37,37)"/>
  <stop offset="0.4688" stop-color="rgb(36,36,36)"/>
  <stop offset="0.5000" stop-color="rgb(34,34,34)"/>
  <stop offset="0.5312" stop-color="rgb(33,33,33)"/>
  <stop offset="0.5625" stop-color="rgb(31,31,31)"/>
  <stop offset="0.5938" stop-color="rgb(30,30,30)"/>
  <stop offset="0.6250" stop-color="rgb(29,29,29)"/>
  <stop offset="0.6562" stop-color="rgb(27,27,27)"/>
  <stop offset="0.6875" stop-color="rgb(26,26,26)"/>
  <stop offset="0.7188" stop-color="rgb(25,25,25)"/>
  <stop offset="0.7500" stop-color="rgb(23,23,23)"/>
  <stop offset="0.7812" stop-color="rgb(20,20,20)"/>
  <stop offset="0.8125" stop-color="rgb(17,17,17)"/>
  <stop offset="0.8438" stop-color="rgb(14,14,14)"/>
  <stop offset="0.8750" stop-color="rgb(11,11,11)"/>
  <stop offset="0.9062" stop-color="rgb(8,8,8)"/>
  <stop offset="0.9375" stop-color="rgb(5,5,5)"/>
  <stop offset="0.9688" stop-color="rgb(2,2,2)"/>
  <stop offset="1.0000" stop-color="rgb(0,0,0)"/>
</radialGradient></defs>
<circle cx="790.0" cy="140.0" r="81.0" fill="url(#g_UGC00634)"/>
<text x="790.0" y="49" text-anchor="middle" class="preview-lbl">face-on luminance from ρ(r)</text>
<text x="790.0" y="239" text-anchor="middle" class="preview-lbl">edge at r = 24.4 kpc</text>
</svg>