<svg xmlns="http://www.w3.org/2000/svg" viewBox="0 0 890 420" width="890" height="420" font-family="sans-serif" font-size="12">
<style>
  .ax { stroke: #333; stroke-width: 1; fill: none; }
  .grid { stroke: #ddd; stroke-width: 0.5; fill: none; }
  .lbl { fill: #333; }
  .lbl-l { fill: #0066cc; }
  .lbl-r { fill: #b03030; }
  .obs { fill: #222; }
  .err { stroke: #555; stroke-width: 0.8; fill: none; }
  .fw { stroke: #0066cc; stroke-width: 2.2; fill: none; }
  .nt { stroke: #cc6600; stroke-width: 1.6; fill: none; stroke-dasharray: 5,3; }
  .lbl-s { fill: #cc7000; }
  .rho { stroke: #b03030; stroke-width: 2.0; fill: none; }
  .sig { stroke: #cc7000; stroke-width: 1.8; fill: none; }
  .title { fill: #111; font-size: 16px; font-weight: 600; }
  .subtitle { fill: #555; font-size: 11px; }
  .preview-bg { fill: #000; }
  .preview-lbl { fill: #888; font-size: 10px; }
  .legend { font-size: 11px; }
</style>
<text x="343.5" y="22" text-anchor="middle" class="title">UGC07603</text>
<text x="343.5" y="38" text-anchor="middle" class="subtitle">rMax=4.1 kpc, N=12, RMS=1.0 km/s (1.9%), amp=104</text>
<line x1="70" y1="365.0" x2="617" y2="365.0" class="grid"/>
<text x="64" y="369.0" text-anchor="end" class="lbl-l">0</text>
<line x1="70" y1="303.0" x2="617" y2="303.0" class="grid"/>
<text x="64" y="307.0" text-anchor="end" class="lbl-l">15</text>
<line x1="70" y1="241.0" x2="617" y2="241.0" class="grid"/>
<text x="64" y="245.0" text-anchor="end" class="lbl-l">29</text>
<line x1="70" y1="179.0" x2="617" y2="179.0" class="grid"/>
<text x="64" y="183.0" text-anchor="end" class="lbl-l">44</text>
<line x1="70" y1="117.0" x2="617" y2="117.0" class="grid"/>
<text x="64" y="121.0" text-anchor="end" class="lbl-l">59</text>
<line x1="70" y1="55.0" x2="617" y2="55.0" class="grid"/>
<text x="64" y="59.0" text-anchor="end" class="lbl-l">74</text>
<text x="623" y="369.0" text-anchor="start" class="lbl-r">0.0</text>
<text x="623" y="327.7" text-anchor="start" class="lbl-r">0.2</text>
<text x="623" y="286.3" text-anchor="start" class="lbl-r">0.4</text>
<text x="623" y="245.0" text-anchor="start" class="lbl-r">0.6</text>
<text x="623" y="203.7" text-anchor="start" class="lbl-r">0.8</text>
<text x="623" y="162.3" text-anchor="start" class="lbl-r">1.0</text>
<line x1="70.0" y1="55" x2="70.0" y2="365" class="grid"/>
<text x="70.0" y="381" text-anchor="middle" class="lbl">0.0</text>
<line x1="161.2" y1="55" x2="161.2" y2="365" class="grid"/>
<text x="161.2" y="381" text-anchor="middle" class="lbl">0.7</text>
<line x1="252.3" y1="55" x2="252.3" y2="365" class="grid"/>
<text x="252.3" y="381" text-anchor="middle" class="lbl">1.5</text>
<line x1="343.5" y1="55" x2="343.5" y2="365" class="grid"/>
<text x="343.5" y="381" text-anchor="middle" class="lbl">2.2</text>
<line x1="434.7" y1="55" x2="434.7" y2="365" class="grid"/>
<text x="434.7" y="381" text-anchor="middle" class="lbl">2.9</text>
<line x1="525.8" y1="55" x2="525.8" y2="365" class="grid"/>
<text x="525.8" y="381" text-anchor="middle" class="lbl">3.7</text>
<line x1="617.0" y1="55" x2="617.0" y2="365" class="grid"/>
<text x="617.0" y="381" text-anchor="middle" class="lbl">4.4</text>
<text x="343.5" y="408" text-anchor="middle" class="lbl">radius (kpc)</text>
<text x="16" y="210" text-anchor="middle" class="lbl-l" transform="rotate(-90, 16, 210)">velocity (km/s)</text>
<text x="874" y="210" text-anchor="middle" class="lbl-r" transform="rotate(-90, 874, 210)">mass profile (normalized to peak)</text>
<rect x="70" y="55" width="547" height="310" class="ax"/>
<path d="M 70.0,158.3 L 72.5,160.9 L 75.0,163.5 L 77.5,166.1 L 80.0,168.7 L 82.5,171.3 L 85.0,173.9 L 87.5,176.5 L 90.0,179.1 L 92.5,181.7 L 95.0,184.3 L 97.5,186.9 L 100.0,189.5 L 102.5,192.1 L 105.0,194.7 L 107.5,195.8 L 110.0,196.1 L 112.5,196.4 L 115.0,196.8 L 117.5,197.1 L 120.0,197.5 L 122.5,197.8 L 124.9,198.1 L 127.4,198.5 L 129.9,198.8 L 132.4,199.1 L 134.9,199.5 L 137.4,199.8 L 139.9,200.2 L 142.4,200.7 L 144.9,201.4 L 147.4,202.1 L 149.9,202.7 L 152.4,203.4 L 154.9,204.1 L 157.4,204.8 L 159.9,205.5 L 162.4,206.1 L 164.9,206.8 L 167.4,207.5 L 169.9,208.2 L 172.4,208.8 L 174.9,209.5 L 177.4,210.2 L 179.9,210.9 L 182.4,211.6 L 184.9,212.2 L 187.4,212.9 L 189.9,213.6 L 192.4,214.3 L 194.9,214.9 L 197.4,215.6 L 199.9,216.3 L 202.4,217.0 L 204.9,217.7 L 207.4,218.3 L 209.9,219.0 L 212.4,219.7 L 214.9,220.4 L 217.4,221.1 L 219.9,221.7 L 222.4,222.4 L 224.9,223.1 L 227.4,223.8 L 229.9,224.4 L 232.4,225.1 L 234.8,225.8 L 237.3,226.5 L 239.8,227.2 L 242.3,227.8 L 244.8,228.5 L 247.3,229.2 L 249.8,229.9 L 252.3,230.5 L 254.8,231.2 L 257.3,231.9 L 259.8,232.6 L 262.3,233.3 L 264.8,233.9 L 267.3,234.6 L 269.8,235.3 L 272.3,236.0 L 274.8,236.7 L 277.3,237.3 L 279.8,238.0 L 282.3,238.7 L 284.8,239.4 L 287.3,240.0 L 289.8,240.7 L 292.3,241.4 L 294.8,242.1 L 297.3,242.8 L 299.8,243.4 L 302.3,244.1 L 304.8,244.8 L 307.3,245.5 L 309.8,246.1 L 312.3,246.8 L 314.8,247.5 L 317.3,248.2 L 319.8,248.9 L 322.3,249.5 L 324.8,250.2 L 327.3,250.9 L 329.8,251.6 L 332.3,252.2 L 334.8,252.9 L 337.3,253.6 L 339.8,254.3 L 342.3,255.0 L 344.7,255.6 L 347.2,256.3 L 349.7,257.0 L 352.2,257.7 L 354.7,258.4 L 357.2,259.0 L 359.7,259.7 L 362.2,260.4 L 364.7,260.8 L 367.2,261.3 L 369.7,261.7 L 372.2,262.2 L 374.7,262.6 L 377.2,263.1 L 379.7,263.5 L 382.2,264.0 L 384.7,264.4 L 387.2,264.9 L 389.7,265.3 L 392.2,265.8 L 394.7,266.2 L 397.2,266.7 L 399.7,267.1 L 402.2,267.6 L 404.7,268.0 L 407.2,268.5 L 409.7,268.9 L 412.2,269.4 L 414.7,269.8 L 417.2,270.3 L 419.7,270.7 L 422.2,271.2 L 424.7,271.6 L 427.2,272.1 L 429.7,272.5 L 432.2,273.0 L 434.7,273.4 L 437.2,273.9 L 439.7,274.3 L 442.2,274.8 L 444.7,275.2 L 447.2,275.7 L 449.7,276.1 L 452.2,276.6 L 454.6,277.0 L 457.1,277.5 L 459.6,277.9 L 462.1,278.3 L 464.6,278.8 L 467.1,279.2 L 469.6,279.7 L 472.1,280.1 L 474.6,280.6 L 477.1,281.0 L 479.6,281.5 L 482.1,281.9 L 484.6,282.4 L 487.1,282.8 L 489.6,283.3 L 492.1,283.7 L 494.6,284.2 L 497.1,284.6 L 499.6,285.1 L 502.1,285.5 L 504.6,286.0 L 507.1,286.4 L 509.6,286.9 L 512.1,287.3 L 514.6,287.8 L 517.1,288.2 L 519.6,288.7 L 522.1,289.1 L 524.6,289.6 L 527.1,290.0 L 529.6,290.5 L 532.1,290.9 L 534.6,291.4 L 537.1,291.8 L 539.6,292.3 L 542.1,292.7 L 544.6,293.2 L 547.1,293.6 L 549.6,294.1 L 552.1,294.5 L 554.6,295.0 L 557.1,295.4 L 559.6,295.8 L 562.1,296.3 L 564.5,296.7 L 567.0,297.2 L 569.5,297.6 L 572.0,298.1 L 574.5,302.0 L 577.0,311.6 L 579.5,321.1 L 582.0,330.7 L 584.5,340.3 L 587.0,349.9 L 589.5,359.5 L 592.0,365.0 L 594.5,365.0 L 597.0,365.0 L 599.5,365.0 L 602.0,365.0 L 604.5,365.0 L 607.0,365.0 L 609.5,365.0 L 612.0,365.0 L 614.5,365.0 L 617.0,365.0" class="rho"/>
<path d="M 70.0,158.3 L 72.5,158.4 L 75.0,158.5 L 77.5,158.7 L 80.0,158.9 L 82.5,159.2 L 85.0,159.6 L 87.5,160.0 L 90.0,160.4 L 92.5,160.9 L 95.0,161.4 L 97.5,162.0 L 100.0,162.6 L 102.5,163.2 L 105.0,163.8 L 107.5,164.5 L 110.0,165.1 L 112.5,165.8 L 115.0,166.5 L 117.5,167.1 L 120.0,167.9 L 122.5,168.6 L 124.9,169.3 L 127.4,170.1 L 129.9,170.8 L 132.4,171.6 L 134.9,172.4 L 137.4,173.2 L 139.9,174.0 L 142.4,174.9 L 144.9,175.7 L 147.4,176.6 L 149.9,177.5 L 152.4,178.4 L 154.9,179.3 L 157.4,180.2 L 159.9,181.2 L 162.4,182.1 L 164.9,183.1 L 167.4,184.1 L 169.9,185.1 L 172.4,186.1 L 174.9,187.1 L 177.4,188.2 L 179.9,189.2 L 182.4,190.2 L 184.9,191.3 L 187.4,192.4 L 189.9,193.4 L 192.4,194.5 L 194.9,195.6 L 197.4,196.7 L 199.9,197.8 L 202.4,198.9 L 204.9,200.0 L 207.4,201.1 L 209.9,202.2 L 212.4,203.3 L 214.9,204.5 L 217.4,205.6 L 219.9,206.7 L 222.4,207.9 L 224.9,209.0 L 227.4,210.1 L 229.9,211.3 L 232.4,212.4 L 234.8,213.6 L 237.3,214.7 L 239.8,215.9 L 242.3,217.0 L 244.8,218.2 L 247.3,219.3 L 249.8,220.5 L 252.3,221.6 L 254.8,222.8 L 257.3,223.9 L 259.8,225.1 L 262.3,226.2 L 264.8,227.4 L 267.3,228.5 L 269.8,229.7 L 272.3,230.8 L 274.8,231.9 L 277.3,233.1 L 279.8,234.2 L 282.3,235.3 L 284.8,236.5 L 287.3,237.6 L 289.8,238.7 L 292.3,239.8 L 294.8,240.9 L 297.3,242.1 L 299.8,243.2 L 302.3,244.3 L 304.8,245.4 L 307.3,246.5 L 309.8,247.5 L 312.3,248.6 L 314.8,249.7 L 317.3,250.8 L 319.8,251.8 L 322.3,252.9 L 324.8,254.0 L 327.3,255.0 L 329.8,256.0 L 332.3,257.1 L 334.8,258.1 L 337.3,259.1 L 339.8,260.1 L 342.3,261.2 L 344.7,262.2 L 347.2,263.1 L 349.7,264.1 L 352.2,265.1 L 354.7,266.1 L 357.2,267.0 L 359.7,268.0 L 362.2,268.9 L 364.7,269.9 L 367.2,270.8 L 369.7,271.7 L 372.2,272.6 L 374.7,273.5 L 377.2,274.4 L 379.7,275.3 L 382.2,276.2 L 384.7,277.0 L 387.2,277.9 L 389.7,278.8 L 392.2,279.6 L 394.7,280.5 L 397.2,281.3 L 399.7,282.1 L 402.2,282.9 L 404.7,283.8 L 407.2,284.6 L 409.7,285.4 L 412.2,286.2 L 414.7,287.0 L 417.2,287.8 L 419.7,288.5 L 422.2,289.3 L 424.7,290.1 L 427.2,290.9 L 429.7,291.6 L 432.2,292.4 L 434.7,293.1 L 437.2,293.9 L 439.7,294.6 L 442.2,295.4 L 444.7,296.1 L 447.2,296.8 L 449.7,297.6 L 452.2,298.3 L 454.6,299.0 L 457.1,299.7 L 459.6,300.4 L 462.1,301.1 L 464.6,301.8 L 467.1,302.5 L 469.6,303.2 L 472.1,303.9 L 474.6,304.6 L 477.1,305.3 L 479.6,305.9 L 482.1,306.6 L 484.6,307.3 L 487.1,308.0 L 489.6,308.6 L 492.1,309.3 L 494.6,310.0 L 497.1,310.6 L 499.6,311.3 L 502.1,311.9 L 504.6,312.6 L 507.1,313.2 L 509.6,313.9 L 512.1,314.5 L 514.6,315.2 L 517.1,315.8 L 519.6,316.5 L 522.1,317.1 L 524.6,317.7 L 527.1,318.4 L 529.6,319.0 L 532.1,319.7 L 534.6,320.3 L 537.1,320.9 L 539.6,321.6 L 542.1,322.2 L 544.6,322.9 L 547.1,323.5 L 549.6,324.2 L 552.1,324.9 L 554.6,325.5 L 557.1,326.2 L 559.6,326.9 L 562.1,327.5 L 564.5,328.2 L 567.0,328.9 L 569.5,329.6 L 572.0,330.3 L 574.5,330.9 L 577.0,331.6 L 579.5,332.3 L 582.0,332.9 L 584.5,333.6 L 587.0,334.2 L 589.5,334.8 L 592.0,335.4 L 594.5,336.0 L 597.0,336.6 L 599.5,337.1 L 602.0,337.6 L 604.5,338.1 L 607.0,338.6 L 609.5,339.1 L 612.0,339.5 L 614.5,339.9 L 617.0,340.4" class="sig"/>
<path d="M 75.5,323.5 L 80.9,306.9 L 86.4,294.5 L 91.9,284.4 L 97.4,275.7 L 102.8,268.2 L 108.3,261.5 L 113.8,255.2 L 119.2,249.2 L 124.7,243.5 L 130.2,238.0 L 135.6,232.8 L 141.1,227.8 L 146.6,223.0 L 152.1,218.4 L 157.5,214.0 L 163.0,209.8 L 168.5,205.8 L 173.9,201.9 L 179.4,198.2 L 184.9,194.5 L 190.3,191.1 L 195.8,187.7 L 201.3,184.4 L 206.8,181.3 L 212.2,178.2 L 217.7,175.2 L 223.2,172.4 L 228.6,169.6 L 234.1,166.9 L 239.6,164.2 L 245.0,161.7 L 250.5,159.2 L 256.0,156.8 L 261.4,154.4 L 266.9,152.2 L 272.4,149.9 L 277.9,147.8 L 283.3,145.7 L 288.8,143.6 L 294.3,141.7 L 299.7,139.7 L 305.2,137.9 L 310.7,136.0 L 316.1,134.3 L 321.6,132.6 L 327.1,130.9 L 332.6,129.3 L 338.0,127.7 L 343.5,126.1 L 349.0,124.7 L 354.4,123.2 L 359.9,121.8 L 365.4,120.5 L 370.9,119.1 L 376.3,117.8 L 381.8,116.5 L 387.3,115.3 L 392.7,114.0 L 398.2,112.8 L 403.7,111.6 L 409.1,110.5 L 414.6,109.3 L 420.1,108.2 L 425.5,107.1 L 431.0,106.0 L 436.5,105.0 L 442.0,103.9 L 447.4,102.9 L 452.9,102.0 L 458.4,101.0 L 463.8,100.1 L 469.3,99.1 L 474.8,98.3 L 480.3,97.4 L 485.7,96.5 L 491.2,95.7 L 496.7,94.9 L 502.1,94.1 L 507.6,93.3 L 513.1,92.6 L 518.5,91.9 L 524.0,91.2 L 529.5,90.5 L 535.0,89.8 L 540.4,89.2 L 545.9,88.6 L 551.4,88.0 L 556.8,87.4 L 562.3,86.8 L 567.8,86.3 L 573.2,85.8 L 578.7,85.5 L 584.2,85.9 L 589.7,86.9 L 595.1,88.4 L 600.6,89.8 L 606.1,91.2 L 611.5,92.6 L 617.0,93.9" class="nt"/>
<path d="M 74.6,351.9 L 79.1,342.1 L 83.7,331.6 L 88.2,321.8 L 92.8,312.8 L 97.3,304.7 L 101.9,297.4 L 106.5,290.8 L 111.0,284.7 L 115.6,278.8 L 120.1,273.0 L 124.7,267.3 L 129.3,261.5 L 133.8,255.6 L 138.4,249.7 L 142.9,243.8 L 147.5,238.0 L 152.1,232.3 L 156.6,226.7 L 161.2,221.3 L 165.7,216.0 L 170.3,210.9 L 174.8,205.9 L 179.4,201.1 L 184.0,196.5 L 188.5,192.0 L 193.1,187.6 L 197.6,183.4 L 202.2,179.3 L 206.8,175.3 L 211.3,171.5 L 215.9,167.8 L 220.4,164.2 L 225.0,160.8 L 229.5,157.4 L 234.1,154.2 L 238.7,151.1 L 243.2,148.1 L 247.8,145.2 L 252.3,142.5 L 256.9,139.8 L 261.4,137.3 L 266.0,134.9 L 270.6,132.6 L 275.1,130.4 L 279.7,128.3 L 284.2,126.3 L 288.8,124.4 L 293.4,122.6 L 297.9,121.0 L 302.5,119.4 L 307.0,118.0 L 311.6,116.7 L 316.1,115.5 L 320.7,114.4 L 325.3,113.5 L 329.8,112.6 L 334.4,111.9 L 338.9,111.4 L 343.5,111.0 L 348.1,110.7 L 352.6,110.5 L 357.2,110.5 L 361.7,110.5 L 366.3,110.7 L 370.9,110.8 L 375.4,110.9 L 380.0,111.1 L 384.5,111.2 L 389.1,111.3 L 393.6,111.3 L 398.2,111.3 L 402.8,111.3 L 407.3,111.3 L 411.9,111.2 L 416.4,111.2 L 421.0,111.1 L 425.6,111.0 L 430.1,110.9 L 434.7,110.8 L 439.2,110.7 L 443.8,110.5 L 448.3,110.4 L 452.9,110.3 L 457.5,110.1 L 462.0,109.9 L 466.6,109.7 L 471.1,109.5 L 475.7,109.2 L 480.3,108.9 L 484.8,108.6 L 489.4,108.2 L 493.9,107.8 L 498.5,107.3 L 503.0,106.8 L 507.6,106.1 L 512.2,105.4 L 516.7,104.5 L 521.3,103.4 L 525.8,102.2 L 530.4,100.8 L 535.0,99.2 L 539.5,97.2 L 544.1,95.1 L 548.6,92.6 L 553.2,89.9 L 557.7,87.2 L 562.3,84.6 L 566.9,82.5 L 571.4,81.4 L 576.0,81.6 L 580.5,83.8 L 585.1,87.6 L 589.6,93.0 L 594.2,99.5 L 598.8,106.7 L 603.3,114.2 L 607.9,121.5 L 612.4,128.5 L 617.0,135.2" class="fw"/>
<line x1="112.21" y1="270.25" x2="112.21" y2="294.60" class="err"/>
<line x1="109.21" y1="270.25" x2="115.21" y2="270.25" class="err"/>
<line x1="109.21" y1="294.60" x2="115.21" y2="294.60" class="err"/>
<circle cx="112.21" cy="282.42" r="2.5" class="obs"/>
<line x1="154.42" y1="215.90" x2="154.42" y2="240.25" class="err"/>
<line x1="151.42" y1="215.90" x2="157.42" y2="215.90" class="err"/>
<line x1="151.42" y1="240.25" x2="157.42" y2="240.25" class="err"/>
<circle cx="154.42" cy="228.07" r="2.5" class="obs"/>
<line x1="196.63" y1="176.29" x2="196.63" y2="200.64" class="err"/>
<line x1="193.63" y1="176.29" x2="199.63" y2="176.29" class="err"/>
<line x1="193.63" y1="200.64" x2="199.63" y2="200.64" class="err"/>
<circle cx="196.63" cy="188.47" r="2.5" class="obs"/>
<line x1="240.08" y1="139.64" x2="240.08" y2="163.99" class="err"/>
<line x1="237.08" y1="139.64" x2="243.08" y2="139.64" class="err"/>
<line x1="237.08" y1="163.99" x2="243.08" y2="163.99" class="err"/>
<circle cx="240.08" cy="151.81" r="2.5" class="obs"/>
<line x1="282.29" y1="112.67" x2="282.29" y2="137.03" class="err"/>
<line x1="279.29" y1="112.67" x2="285.29" y2="112.67" class="err"/>
<line x1="279.29" y1="137.03" x2="285.29" y2="137.03" class="err"/>
<circle cx="282.29" cy="124.85" r="2.5" class="obs"/>
<line x1="324.50" y1="97.93" x2="324.50" y2="122.28" class="err"/>
<line x1="321.50" y1="97.93" x2="327.50" y2="97.93" class="err"/>
<line x1="321.50" y1="122.28" x2="327.50" y2="122.28" class="err"/>
<circle cx="324.50" cy="110.10" r="2.5" class="obs"/>
<line x1="366.71" y1="97.93" x2="366.71" y2="122.28" class="err"/>
<line x1="363.71" y1="97.93" x2="369.71" y2="97.93" class="err"/>
<line x1="363.71" y1="122.28" x2="369.71" y2="122.28" class="err"/>
<circle cx="366.71" cy="110.10" r="2.5" class="obs"/>
<line x1="410.16" y1="100.03" x2="410.16" y2="124.39" class="err"/>
<line x1="407.16" y1="100.03" x2="413.16" y2="100.03" class="err"/>
<line x1="407.16" y1="124.39" x2="413.16" y2="124.39" class="err"/>
<circle cx="410.16" cy="112.21" r="2.5" class="obs"/>
<line x1="452.37" y1="93.71" x2="452.37" y2="118.07" class="err"/>
<line x1="449.37" y1="93.71" x2="455.37" y2="93.71" class="err"/>
<line x1="449.37" y1="118.07" x2="455.37" y2="118.07" class="err"/>
<circle cx="452.37" cy="105.89" r="2.5" class="obs"/>
<line x1="494.58" y1="93.71" x2="494.58" y2="118.07" class="err"/>
<line x1="491.58" y1="93.71" x2="497.58" y2="93.71" class="err"/>
<line x1="491.58" y1="118.07" x2="497.58" y2="118.07" class="err"/>
<circle cx="494.58" cy="105.89" r="2.5" class="obs"/>
<line x1="536.79" y1="87.39" x2="536.79" y2="111.75" class="err"/>
<line x1="533.79" y1="87.39" x2="539.79" y2="87.39" class="err"/>
<line x1="533.79" y1="111.75" x2="539.79" y2="111.75" class="err"/>
<circle cx="536.79" cy="99.57" r="2.5" class="obs"/>
<line x1="580.24" y1="83.18" x2="580.24" y2="107.53" class="err"/>
<line x1="577.24" y1="83.18" x2="583.24" y2="83.18" class="err"/>
<line x1="577.24" y1="107.53" x2="583.24" y2="107.53" class="err"/>
<circle cx="580.24" cy="95.36" r="2.5" class="obs"/>
<g class="legend">
<line x1="82" y1="69" x2="106" y2="69" class="fw"/>
<text x="112" y="73" class="lbl-l">framework fit</text>
<line x1="82" y1="87" x2="106" y2="87" class="nt"/>
<text x="112" y="91" class="lbl-l">Newtonian (no halo)</text>
<circle cx="94" cy="105" r="2.5" class="obs"/>
<text x="112" y="109" class="lbl">observed V±err</text>
</g>
<g class="legend">
<line x1="442" y1="69" x2="466" y2="69" class="rho"/>
<text x="472" y="73" class="lbl-r">ρ(r) raw</text>
<line x1="442" y1="87" x2="466" y2="87" class="sig"/>
<text x="472" y="91" class="lbl-s">Σ(r) cumulative</text>
<text x="442" y="113" class="lbl-r">ρ peak: 166 M☉/pc²</text>
</g>
<rect x="705" y="55" width="170" height="170" class="preview-bg"/>
<defs><radialGradient id="g_UGC07603" cx="0.5" cy="0.5" r="0.5">
  <stop offset="0.0000" stop-color="rgb(255,63.75,63.75)"/>
  <stop offset="0.0313" stop-color="rgb(255,63.75,63.75)"/>
  <stop offset="0.0625" stop-color="rgb(240,60,60)"/>
  <stop offset="0.0938" stop-color="rgb(234,58.5,58.5)"/>
  <stop offset="0.1250" stop-color="rgb(232,58,58)"/>
  <stop offset="0.1563" stop-color="rgb(228,57,57)"/>
  <stop offset="0.1875" stop-color="rgb(223,55.75,55.75)"/>
  <stop offset="0.2188" stop-color="rgb(218,54.5,54.5)"/>
  <stop offset="0.2500" stop-color="rgb(213,53.25,53.25)"/>
  <stop offset="0.2813" stop-color="rgb(208,52,52)"/>
  <stop offset="0.3125" stop-color="rgb(203,50.75,50.75)"/>
  <stop offset="0.3438" stop-color="rgb(199,49.75,49.75)"/>
  <stop offset="0.3750" stop-color="rgb(194,48.5,48.5)"/>
  <stop offset="0.4063" stop-color="rgb(189,47.25,47.25)"/>
  <stop offset="0.4375" stop-color="rgb(184,46,46)"/>
  <stop offset="0.4688" stop-color="rgb(179,44.75,44.75)"/>
  <stop offset="0.5000" stop-color="rgb(174,43.5,43.5)"/>
  <stop offset="0.5313" stop-color="rgb(169,42.25,42.25)"/>
  <stop offset="0.5625" stop-color="rgb(165,41.25,41.25)"/>
  <stop offset="0.5938" stop-color="rgb(161,40.25,40.25)"/>
  <stop offset="0.6250" stop-color="rgb(158,39.5,39.5)"/>
  <stop offset="0.6563" stop-color="rgb(155,38.75,38.75)"/>
  <stop offset="0.6875" stop-color="rgb(152,38,38)"/>
  <stop offset="0.7188" stop-color="rgb(149,37.25,37.25)"/>
  <stop offset="0.7500" stop-color="rgb(145,36.25,36.25)"/>
  <stop offset="0.7813" stop-color="rgb(142,35.5,35.5)"/>
  <stop offset="0.8125" stop-color="rgb(139,34.75,34.75)"/>
  <stop offset="0.8438" stop-color="rgb(136,34,34)"/>
  <stop offset="0.8750" stop-color="rgb(133,33.25,33.25)"/>
  <stop offset="0.9063" stop-color="rgb(129,32.25,32.25)"/>
  <stop offset="0.9375" stop-color="rgb(126,31.5,31.5)"/>
  <stop offset="0.9688" stop-color="rgb(119,29.75,29.75)"/>
  <stop offset="1.0000" stop-color="rgb(0,0,0)"/>
</radialGradient></defs>
<circle cx="790" cy="140" r="81" fill="url(#g_UGC07603)"/>
<text x="790" y="49" text-anchor="middle" class="preview-lbl">face-on luminance from ρ(r)</text>
<text x="790" y="239" text-anchor="middle" class="preview-lbl">edge at r = 4.2 kpc</text>
</svg>