<svg xmlns="http://www.w3.org/2000/svg" viewBox="0 0 890 420" width="890" height="420" font-family="sans-serif" font-size="12">
<style>
  .ax { stroke: #333; stroke-width: 1; fill: none; }
  .grid { stroke: #ddd; stroke-width: 0.5; fill: none; }
  .lbl { fill: #333; }
  .lbl-l { fill: #0066cc; }
  .lbl-r { fill: #b03030; }
  .lbl-s { fill: #cc7000; }
  .obs { fill: #222; }
  .err { stroke: #555; stroke-width: 0.8; fill: none; }
  .fw { stroke: #0066cc; stroke-width: 2.2; fill: none; }
  .nt { stroke: #cc6600; stroke-width: 1.6; fill: none; stroke-dasharray: 5,3; }
  .rho { stroke: #b03030; stroke-width: 2.0; fill: none; }
  .sig { stroke: #cc7000; stroke-width: 1.8; fill: none; }
  .title { fill: #111; font-size: 16px; font-weight: 600; }
  .subtitle { fill: #555; font-size: 11px; }
  .legend { font-size: 11px; }
  .preview-bg { fill: #000; }
  .preview-lbl { fill: #888; font-size: 10px; }
</style>
<text x="343.5" y="22" text-anchor="middle" class="title">UGC00128</text>
<text x="343.5" y="38" text-anchor="middle" class="subtitle">rMax=53.8 kpc, N=22, RMS=1.9 km/s (1.6%), amp=105</text>
<line x1="70" y1="365.0" x2="617" y2="365.0" class="grid"/>
<text x="64" y="369.0" text-anchor="end" class="lbl-l">0</text>
<line x1="70" y1="303.0" x2="617" y2="303.0" class="grid"/>
<text x="64" y="307.0" text-anchor="end" class="lbl-l">33</text>
<line x1="70" y1="241.0" x2="617" y2="241.0" class="grid"/>
<text x="64" y="245.0" text-anchor="end" class="lbl-l">66</text>
<line x1="70" y1="179.0" x2="617" y2="179.0" class="grid"/>
<text x="64" y="183.0" text-anchor="end" class="lbl-l">98</text>
<line x1="70" y1="116.99999999999999" x2="617" y2="116.99999999999999" class="grid"/>
<text x="64" y="120.99999999999999" text-anchor="end" class="lbl-l">131</text>
<line x1="70" y1="55.0" x2="617" y2="55.0" class="grid"/>
<text x="64" y="59.0" text-anchor="end" class="lbl-l">164</text>
<text x="623" y="369.0" text-anchor="start" class="lbl-r">0.0</text>
<text x="623" y="327.6666666666667" text-anchor="start" class="lbl-r">0.2</text>
<text x="623" y="286.33333333333337" text-anchor="start" class="lbl-r">0.4</text>
<text x="623" y="245.00000000000003" text-anchor="start" class="lbl-r">0.6</text>
<text x="623" y="203.66666666666666" text-anchor="start" class="lbl-r">0.8</text>
<text x="623" y="162.33333333333334" text-anchor="start" class="lbl-r">1.0</text>
<line x1="70.0" y1="55" x2="70.0" y2="365" class="grid"/>
<text x="70.0" y="381" text-anchor="middle" class="lbl">0.0</text>
<line x1="161.16666666666666" y1="55" x2="161.16666666666666" y2="365" class="grid"/>
<text x="161.16666666666666" y="381" text-anchor="middle" class="lbl">9.1</text>
<line x1="252.33333333333331" y1="55" x2="252.33333333333331" y2="365" class="grid"/>
<text x="252.33333333333331" y="381" text-anchor="middle" class="lbl">18.3</text>
<line x1="343.5" y1="55" x2="343.5" y2="365" class="grid"/>
<text x="343.5" y="381" text-anchor="middle" class="lbl">27.4</text>
<line x1="434.66666666666663" y1="55" x2="434.66666666666663" y2="365" class="grid"/>
<text x="434.66666666666663" y="381" text-anchor="middle" class="lbl">36.6</text>
<line x1="525.8333333333334" y1="55" x2="525.8333333333334" y2="365" class="grid"/>
<text x="525.8333333333334" y="381" text-anchor="middle" class="lbl">45.7</text>
<line x1="617.0" y1="55" x2="617.0" y2="365" class="grid"/>
<text x="617.0" y="381" text-anchor="middle" class="lbl">54.8</text>
<text x="343.5" y="397" text-anchor="middle" class="lbl">radius (kpc)</text>
<text x="16" y="210.0" text-anchor="middle" class="lbl-l" transform="rotate(-90, 16, 210.0)">velocity (km/s)</text>
<text x="661" y="210.0" text-anchor="middle" class="lbl-r" transform="rotate(-90, 661, 210.0)">mass profile (normalized to peak)</text>
<rect x="70" y="55" width="547" height="310" class="ax"/>
<path d="M 70.0,158.3 L 72.5,164.3 L 75.0,170.2 L 77.5,176.2 L 80.0,182.2 L 82.5,188.1 L 85.0,194.1 L 87.5,200.0 L 90.0,206.0 L 92.5,211.9 L 95.0,217.9 L 97.5,223.9 L 100.0,229.8 L 102.5,235.8 L 105.0,240.9 L 107.5,243.0 L 110.0,245.0 L 112.5,247.1 L 115.0,249.1 L 117.5,251.2 L 120.0,253.3 L 122.5,255.3 L 124.9,257.4 L 127.4,259.5 L 129.9,261.5 L 132.4,263.6 L 134.9,265.7 L 137.4,267.7 L 139.9,269.8 L 142.4,271.9 L 144.9,273.9 L 147.4,276.0 L 149.9,278.1 L 152.4,280.1 L 154.9,282.2 L 157.4,283.3 L 159.9,283.7 L 162.4,284.2 L 164.9,284.6 L 167.4,285.0 L 169.9,285.5 L 172.4,285.9 L 174.9,286.4 L 177.4,286.8 L 179.9,287.3 L 182.4,287.7 L 184.9,288.1 L 187.4,288.6 L 189.9,289.0 L 192.4,289.5 L 194.9,289.9 L 197.4,290.3 L 199.9,290.8 L 202.4,291.2 L 204.9,291.7 L 207.4,292.1 L 209.9,292.5 L 212.4,293.0 L 214.9,293.4 L 217.4,293.9 L 219.9,294.3 L 222.4,294.7 L 224.9,295.2 L 227.4,295.6 L 229.9,296.1 L 232.4,296.5 L 234.8,297.0 L 237.3,297.4 L 239.8,297.8 L 242.3,298.3 L 244.8,298.7 L 247.3,299.2 L 249.8,299.6 L 252.3,300.0 L 254.8,300.5 L 257.3,300.9 L 259.8,301.4 L 262.3,301.8 L 264.8,302.2 L 267.3,302.7 L 269.8,303.1 L 272.3,303.6 L 274.8,304.0 L 277.3,304.4 L 279.8,304.9 L 282.3,305.3 L 284.8,305.8 L 287.3,306.2 L 289.8,306.7 L 292.3,307.1 L 294.8,307.5 L 297.3,308.0 L 299.8,308.4 L 302.3,308.9 L 304.8,309.3 L 307.3,309.7 L 309.8,310.2 L 312.3,310.6 L 314.8,311.1 L 317.3,311.5 L 319.8,311.8 L 322.3,312.0 L 324.8,312.3 L 327.3,312.5 L 329.8,312.7 L 332.3,313.0 L 334.8,313.2 L 337.3,313.4 L 339.8,313.7 L 342.3,313.9 L 344.7,314.1 L 347.2,314.4 L 349.7,314.6 L 352.2,314.8 L 354.7,315.1 L 357.2,315.3 L 359.7,315.6 L 362.2,315.8 L 364.7,316.0 L 367.2,316.3 L 369.7,316.5 L 372.2,316.7 L 374.7,317.0 L 377.2,317.2 L 379.7,317.4 L 382.2,317.7 L 384.7,317.9 L 387.2,318.2 L 389.7,318.4 L 392.2,318.6 L 394.7,318.9 L 397.2,319.1 L 399.7,319.3 L 402.2,319.6 L 404.7,319.8 L 407.2,320.0 L 409.7,320.3 L 412.2,320.5 L 414.7,320.8 L 417.2,321.0 L 419.7,321.2 L 422.2,321.5 L 424.7,321.7 L 427.2,321.9 L 429.7,322.2 L 432.2,322.4 L 434.7,322.6 L 437.2,322.9 L 439.7,323.1 L 442.2,323.3 L 444.7,323.6 L 447.2,323.8 L 449.7,324.1 L 452.2,324.3 L 454.6,324.5 L 457.1,324.8 L 459.6,325.0 L 462.1,325.2 L 464.6,325.5 L 467.1,325.7 L 469.6,325.9 L 472.1,326.2 L 474.6,326.4 L 477.1,326.7 L 479.6,326.9 L 482.1,327.1 L 484.6,327.4 L 487.1,327.6 L 489.6,327.8 L 492.1,328.1 L 494.6,328.3 L 497.1,328.5 L 499.6,328.8 L 502.1,329.0 L 504.6,329.3 L 507.1,329.5 L 509.6,329.7 L 512.1,330.0 L 514.6,330.2 L 517.1,330.4 L 519.6,330.7 L 522.1,330.9 L 524.6,331.1 L 527.1,331.4 L 529.6,331.6 L 532.1,331.9 L 534.6,332.1 L 537.1,332.3 L 539.6,332.6 L 542.1,332.8 L 544.6,333.0 L 547.1,333.3 L 549.6,333.5 L 552.1,333.7 L 554.6,334.0 L 557.1,334.2 L 559.6,334.4 L 562.1,334.7 L 564.5,334.9 L 567.0,335.2 L 569.5,335.4 L 572.0,335.6 L 574.5,335.9 L 577.0,336.1 L 579.5,336.3 L 582.0,336.6 L 584.5,339.2 L 587.0,349.2 L 589.5,359.3 L 592.0,365.0 L 594.5,365.0 L 597.0,365.0 L 599.5,365.0 L 602.0,365.0 L 604.5,365.0 L 607.0,365.0 L 609.5,365.0 L 612.0,365.0 L 614.5,365.0 L 617.0,365.0" class="rho"/>
<path d="M 70.0,158.3 L 72.5,158.6 L 75.0,159.0 L 77.5,159.5 L 80.0,160.2 L 82.5,161.2 L 85.0,162.3 L 87.5,163.5 L 90.0,164.9 L 92.5,166.4 L 95.0,168.0 L 97.5,169.7 L 100.0,171.4 L 102.5,173.2 L 105.0,175.0 L 107.5,176.8 L 110.0,178.7 L 112.5,180.6 L 115.0,182.4 L 117.5,184.3 L 120.0,186.2 L 122.5,188.1 L 124.9,189.9 L 127.4,191.8 L 129.9,193.6 L 132.4,195.4 L 134.9,197.2 L 137.4,199.0 L 139.9,200.7 L 142.4,202.5 L 144.9,204.2 L 147.4,205.8 L 149.9,207.5 L 152.4,209.1 L 154.9,210.7 L 157.4,212.2 L 159.9,213.8 L 162.4,215.2 L 164.9,216.7 L 167.4,218.1 L 169.9,219.5 L 172.4,220.9 L 174.9,222.3 L 177.4,223.6 L 179.9,224.9 L 182.4,226.2 L 184.9,227.5 L 187.4,228.7 L 189.9,230.0 L 192.4,231.2 L 194.9,232.4 L 197.4,233.6 L 199.9,234.7 L 202.4,235.9 L 204.9,237.1 L 207.4,238.2 L 209.9,239.3 L 212.4,240.5 L 214.9,241.6 L 217.4,242.7 L 219.9,243.8 L 222.4,244.9 L 224.9,245.9 L 227.4,247.0 L 229.9,248.1 L 232.4,249.1 L 234.8,250.2 L 237.3,251.2 L 239.8,252.2 L 242.3,253.2 L 244.8,254.3 L 247.3,255.3 L 249.8,256.3 L 252.3,257.3 L 254.8,258.2 L 257.3,259.2 L 259.8,260.2 L 262.3,261.2 L 264.8,262.1 L 267.3,263.1 L 269.8,264.0 L 272.3,265.0 L 274.8,265.9 L 277.3,266.8 L 279.8,267.7 L 282.3,268.6 L 284.8,269.5 L 287.3,270.4 L 289.8,271.3 L 292.3,272.2 L 294.8,273.1 L 297.3,273.9 L 299.8,274.8 L 302.3,275.6 L 304.8,276.5 L 307.3,277.3 L 309.8,278.1 L 312.3,278.9 L 314.8,279.7 L 317.3,280.5 L 319.8,281.3 L 322.3,282.1 L 324.8,282.9 L 327.3,283.6 L 329.8,284.4 L 332.3,285.2 L 334.8,285.9 L 337.3,286.6 L 339.8,287.4 L 342.3,288.1 L 344.7,288.8 L 347.2,289.5 L 349.7,290.2 L 352.2,290.9 L 354.7,291.6 L 357.2,292.3 L 359.7,292.9 L 362.2,293.6 L 364.7,294.3 L 367.2,294.9 L 369.7,295.6 L 372.2,296.2 L 374.7,296.9 L 377.2,297.5 L 379.7,298.2 L 382.2,298.8 L 384.7,299.4 L 387.2,300.0 L 389.7,300.7 L 392.2,301.3 L 394.7,301.9 L 397.2,302.5 L 399.7,303.1 L 402.2,303.7 L 404.7,304.3 L 407.2,304.8 L 409.7,305.4 L 412.2,306.0 L 414.7,306.6 L 417.2,307.1 L 419.7,307.7 L 422.2,308.3 L 424.7,308.8 L 427.2,309.4 L 429.7,309.9 L 432.2,310.5 L 434.7,311.0 L 437.2,311.6 L 439.7,312.1 L 442.2,312.6 L 444.7,313.1 L 447.2,313.7 L 449.7,314.2 L 452.2,314.7 L 454.6,315.2 L 457.1,315.7 L 459.6,316.2 L 462.1,316.8 L 464.6,317.3 L 467.1,317.8 L 469.6,318.3 L 472.1,318.7 L 474.6,319.2 L 477.1,319.7 L 479.6,320.2 L 482.1,320.7 L 484.6,321.2 L 487.1,321.6 L 489.6,322.1 L 492.1,322.6 L 494.6,323.0 L 497.1,323.5 L 499.6,324.0 L 502.1,324.4 L 504.6,324.9 L 507.1,325.3 L 509.6,325.8 L 512.1,326.2 L 514.6,326.7 L 517.1,327.1 L 519.6,327.6 L 522.1,328.0 L 524.6,328.5 L 527.1,328.9 L 529.6,329.3 L 532.1,329.8 L 534.6,330.2 L 537.1,330.6 L 539.6,331.1 L 542.1,331.5 L 544.6,331.9 L 547.1,332.3 L 549.6,332.8 L 552.1,333.2 L 554.6,333.6 L 557.1,334.0 L 559.6,334.5 L 562.1,334.9 L 564.5,335.3 L 567.0,335.7 L 569.5,336.2 L 572.0,336.6 L 574.5,337.0 L 577.0,337.4 L 579.5,337.8 L 582.0,338.3 L 584.5,338.7 L 587.0,339.1 L 589.5,339.5 L 592.0,339.9 L 594.5,340.3 L 597.0,340.6 L 599.5,341.0 L 602.0,341.4 L 604.5,341.7 L 607.0,342.1 L 609.5,342.4 L 612.0,342.7 L 614.5,343.0 L 617.0,343.3" class="sig"/>
<path d="M 75.5,305.1 L 80.9,282.1 L 86.4,265.8 L 91.9,253.3 L 97.3,243.3 L 102.8,235.3 L 108.3,228.6 L 113.8,222.4 L 119.2,216.7 L 124.7,211.4 L 130.2,206.6 L 135.6,202.1 L 141.1,198.1 L 146.6,194.5 L 152.1,191.2 L 157.5,188.2 L 163.0,185.4 L 168.5,182.5 L 173.9,179.6 L 179.4,176.8 L 184.9,174.0 L 190.3,171.3 L 195.8,168.6 L 201.3,166.0 L 206.8,163.4 L 212.2,160.9 L 217.7,158.5 L 223.2,156.1 L 228.6,153.7 L 234.1,151.5 L 239.6,149.3 L 245.0,147.1 L 250.5,145.0 L 256.0,143.0 L 261.4,141.0 L 266.9,139.1 L 272.4,137.3 L 277.9,135.5 L 283.3,133.8 L 288.8,132.1 L 294.3,130.5 L 299.7,128.9 L 305.2,127.4 L 310.7,125.9 L 316.1,124.5 L 321.6,123.1 L 327.1,121.8 L 332.6,120.5 L 338.0,119.2 L 343.5,117.9 L 349.0,116.6 L 354.4,115.4 L 359.9,114.2 L 365.4,113.0 L 370.8,111.8 L 376.3,110.6 L 381.8,109.5 L 387.3,108.4 L 392.7,107.3 L 398.2,106.2 L 403.7,105.2 L 409.1,104.2 L 414.6,103.2 L 420.1,102.2 L 425.6,101.2 L 431.0,100.3 L 436.5,99.4 L 442.0,98.5 L 447.4,97.6 L 452.9,96.8 L 458.4,96.0 L 463.8,95.2 L 469.3,94.4 L 474.8,93.6 L 480.2,92.9 L 485.7,92.2 L 491.2,91.5 L 496.7,90.8 L 502.1,90.2 L 507.6,89.5 L 513.1,88.9 L 518.5,88.3 L 524.0,87.8 L 529.5,87.2 L 535.0,86.7 L 540.4,86.2 L 545.9,85.8 L 551.4,85.3 L 556.8,84.9 L 562.3,84.5 L 567.8,84.1 L 573.2,83.7 L 578.7,83.3 L 584.2,83.0 L 589.6,83.4 L 595.1,84.8 L 600.6,86.3 L 606.1,87.8 L 611.5,89.3 L 617.0,90.6" class="nt"/>
<path d="M 74.6,338.1 L 79.1,318.8 L 83.7,298.1 L 88.2,278.8 L 92.8,261.5 L 97.3,246.3 L 101.9,233.2 L 106.5,221.7 L 111.0,211.9 L 115.6,203.3 L 120.1,195.7 L 124.7,189.0 L 129.3,183.0 L 133.8,177.8 L 138.4,173.4 L 142.9,169.7 L 147.5,166.7 L 152.1,164.3 L 156.6,162.5 L 161.2,161.0 L 165.7,159.7 L 170.3,158.5 L 174.8,157.3 L 179.4,156.0 L 184.0,154.6 L 188.5,153.1 L 193.1,151.6 L 197.6,149.9 L 202.2,148.2 L 206.8,146.5 L 211.3,144.7 L 215.9,143.0 L 220.4,141.2 L 225.0,139.5 L 229.5,137.8 L 234.1,136.1 L 238.7,134.5 L 243.2,132.9 L 247.8,131.4 L 252.3,129.9 L 256.9,128.5 L 261.4,127.2 L 266.0,126.0 L 270.6,124.9 L 275.1,123.9 L 279.7,123.0 L 284.2,122.1 L 288.8,121.5 L 293.4,120.9 L 297.9,120.4 L 302.5,120.1 L 307.0,119.9 L 311.6,119.9 L 316.1,119.9 L 320.7,120.0 L 325.3,120.1 L 329.8,120.2 L 334.4,120.3 L 338.9,120.4 L 343.5,120.5 L 348.1,120.5 L 352.6,120.5 L 357.2,120.5 L 361.7,120.5 L 366.3,120.4 L 370.9,120.3 L 375.4,120.3 L 380.0,120.2 L 384.5,120.1 L 389.1,120.0 L 393.6,119.9 L 398.2,119.8 L 402.8,119.7 L 407.3,119.6 L 411.9,119.5 L 416.4,119.5 L 421.0,119.4 L 425.6,119.3 L 430.1,119.3 L 434.7,119.2 L 439.2,119.2 L 443.8,119.2 L 448.3,119.1 L 452.9,119.1 L 457.5,119.1 L 462.0,119.1 L 466.6,119.1 L 471.1,119.1 L 475.7,119.1 L 480.2,119.0 L 484.8,119.0 L 489.4,119.0 L 493.9,119.0 L 498.5,118.9 L 503.0,118.8 L 507.6,118.7 L 512.2,118.6 L 516.7,118.4 L 521.3,118.2 L 525.8,117.9 L 530.4,117.5 L 535.0,117.1 L 539.5,116.5 L 544.1,115.9 L 548.6,115.1 L 553.2,114.2 L 557.7,113.2 L 562.3,112.2 L 566.9,111.2 L 571.4,110.4 L 576.0,110.0 L 580.5,110.4 L 585.1,111.6 L 589.7,113.9 L 594.2,117.1 L 598.8,121.1 L 603.3,125.7 L 607.9,130.5 L 612.4,135.4 L 617.0,140.2" class="fw"/>
<line x1="82.46851018951565" y1="264.87643646147524" x2="82.46851018951565" y2="336.0417670673076" class="err"/>
<line x1="79.46851018951565" y1="264.87643646147524" x2="85.46851018951565" y2="264.87643646147524" class="err"/>
<line x1="79.46851018951565" y1="336.0417670673076" x2="85.46851018951565" y2="336.0417670673076" class="err"/>
<circle cx="82.46851018951565" cy="300.45910176439145" r="2.5" class="obs"/>
<line x1="107.40553056854695" y1="204.23448984948402" x2="107.40553056854695" y2="228.9909399644917" class="err"/>
<line x1="104.40553056854695" y1="204.23448984948402" x2="110.40553056854695" y2="204.23448984948402" class="err"/>
<line x1="104.40553056854695" y1="228.9909399644917" x2="110.40553056854695" y2="228.9909399644917" class="err"/>
<circle cx="107.40553056854695" cy="216.61271490698786" r="2.5" class="obs"/>
<line x1="132.34255094757825" y1="176.9796823834206" x2="132.34255094757825" y2="186.21603380247544" class="err"/>
<line x1="129.34255094757825" y1="176.9796823834206" x2="135.34255094757825" y2="176.9796823834206" class="err"/>
<line x1="129.34255094757825" y1="186.21603380247544" x2="135.34255094757825" y2="186.21603380247544" class="err"/>
<circle cx="132.34255094757825" cy="181.59785809294803" r="2.5" class="obs"/>
<line x1="157.3793194081257" y1="158.20414835124353" x2="157.3793194081257" y2="162.97373965780469" class="err"/>
<line x1="154.3793194081257" y1="158.20414835124353" x2="160.3793194081257" y2="158.20414835124353" class="err"/>
<line x1="154.3793194081257" y1="162.97373965780469" x2="160.3793194081257" y2="162.97373965780469" class="err"/>
<circle cx="157.3793194081257" cy="160.58894400452414" r="2.5" class="obs"/>
<line x1="182.21659170564087" y1="149.23277422699766" x2="182.21659170564087" y2="153.0181641528398" class="err"/>
<line x1="179.21659170564087" y1="149.23277422699766" x2="185.21659170564087" y2="149.23277422699766" class="err"/>
<line x1="179.21659170564087" y1="153.0181641528398" x2="185.21659170564087" y2="153.0181641528398" class="err"/>
<circle cx="182.21659170564087" cy="151.12546918991876" r="2.5" class="obs"/>
<line x1="207.05386400315604" y1="147.60505655888554" x2="207.05386400315604" y2="150.8604918951098" class="err"/>
<line x1="204.05386400315604" y1="147.60505655888554" x2="210.05386400315604" y2="147.60505655888554" class="err"/>
<line x1="204.05386400315604" y1="150.8604918951098" x2="210.05386400315604" y2="150.8604918951098" class="err"/>
<circle cx="207.05386400315604" cy="149.23277422699766" r="2.5" class="obs"/>
<line x1="231.79138821915507" y1="134.6968769117638" x2="231.79138821915507" y2="137.27094206133648" class="err"/>
<line x1="228.79138821915507" y1="134.6968769117638" x2="234.79138821915507" y2="134.6968769117638" class="err"/>
<line x1="228.79138821915507" y1="137.27094206133648" x2="234.79138821915507" y2="137.27094206133648" class="err"/>
<circle cx="231.79138821915507" cy="135.98390948655017" r="2.5" class="obs"/>
<line x1="256.62866051667027" y1="125.47945244233821" x2="256.62866051667027" y2="127.56141690155138" class="err"/>
<line x1="253.62866051667027" y1="125.47945244233821" x2="259.62866051667027" y2="125.47945244233821" class="err"/>
<line x1="253.62866051667027" y1="127.56141690155138" x2="259.62866051667027" y2="127.56141690155138" class="err"/>
<circle cx="256.62866051667027" cy="126.5204346719448" r="2.5" class="obs"/>
<line x1="282.4634136293467" y1="121.54264691946237" x2="282.4634136293467" y2="123.92744257274292" class="err"/>
<line x1="279.4634136293467" y1="121.54264691946237" x2="285.4634136293467" y2="121.54264691946237" class="err"/>
<line x1="279.4634136293467" y1="123.92744257274292" x2="285.4634136293467" y2="123.92744257274292" class="err"/>
<circle cx="282.4634136293467" cy="122.73504474610264" r="2.5" class="obs"/>
<line x1="307.3006859268619" y1="119.6878058557997" x2="307.3006859268619" y2="121.99689371056346" class="err"/>
<line x1="304.3006859268619" y1="119.6878058557997" x2="310.3006859268619" y2="119.6878058557997" class="err"/>
<line x1="304.3006859268619" y1="121.99689371056346" x2="310.3006859268619" y2="121.99689371056346" class="err"/>
<circle cx="307.3006859268619" cy="120.84234978318159" r="2.5" class="obs"/>
<line x1="332.13795822437703" y1="119.61209805728286" x2="332.13795822437703" y2="122.07260150908027" class="err"/>
<line x1="329.13795822437703" y1="119.61209805728286" x2="335.13795822437703" y2="119.61209805728286" class="err"/>
<line x1="329.13795822437703" y1="122.07260150908027" x2="335.13795822437703" y2="122.07260150908027" class="err"/>
<circle cx="332.13795822437703" cy="120.84234978318159" r="2.5" class="obs"/>
<line x1="356.97523052189223" y1="115.67529253440705" x2="356.97523052189223" y2="118.43862718027178" class="err"/>
<line x1="353.97523052189223" y1="115.67529253440705" x2="359.97523052189223" y2="115.67529253440705" class="err"/>
<line x1="353.97523052189223" y1="118.43862718027178" x2="359.97523052189223" y2="118.43862718027178" class="err"/>
<circle cx="356.97523052189223" cy="117.05695985733944" r="2.5" class="obs"/>
<line x1="381.71275473789126" y1="115.48602303811492" x2="381.71275473789126" y2="118.62789667656395" class="err"/>
<line x1="378.71275473789126" y1="115.48602303811492" x2="384.71275473789126" y2="115.48602303811492" class="err"/>
<line x1="378.71275473789126" y1="118.62789667656395" x2="384.71275473789126" y2="118.62789667656395" class="err"/>
<circle cx="381.71275473789126" cy="117.05695985733944" r="2.5" class="obs"/>
<line x1="406.55002703540646" y1="115.63743863514861" x2="406.55002703540646" y2="118.47648107953023" class="err"/>
<line x1="403.55002703540646" y1="115.63743863514861" x2="409.55002703540646" y2="115.63743863514861" class="err"/>
<line x1="403.55002703540646" y1="118.47648107953023" x2="409.55002703540646" y2="118.47648107953023" class="err"/>
<circle cx="406.55002703540646" cy="117.05695985733944" r="2.5" class="obs"/>
<line x1="431.3872993329216" y1="122.28079795500157" x2="431.3872993329216" y2="126.97468146304584" class="err"/>
<line x1="428.3872993329216" y1="122.28079795500157" x2="434.3872993329216" y2="122.28079795500157" class="err"/>
<line x1="428.3872993329216" y1="126.97468146304584" x2="434.3872993329216" y2="126.97468146304584" class="err"/>
<circle cx="431.3872993329216" cy="124.62773970902371" r="2.5" class="obs"/>
<line x1="457.222052445598" y1="123.87066172385529" x2="457.222052445598" y2="129.17020762003432" class="err"/>
<line x1="454.222052445598" y1="123.87066172385529" x2="460.222052445598" y2="123.87066172385529" class="err"/>
<line x1="454.222052445598" y1="129.17020762003432" x2="460.222052445598" y2="129.17020762003432" class="err"/>
<circle cx="457.222052445598" cy="126.5204346719448" r="2.5" class="obs"/>
<line x1="482.0593247431133" y1="115.88348898032835" x2="482.0593247431133" y2="122.01582066019265" class="err"/>
<line x1="479.0593247431133" y1="115.88348898032835" x2="485.0593247431133" y2="115.88348898032835" class="err"/>
<line x1="479.0593247431133" y1="122.01582066019265" x2="485.0593247431133" y2="122.01582066019265" class="err"/>
<circle cx="482.0593247431133" cy="118.94965482026049" r="2.5" class="obs"/>
<line x1="506.89659704062836" y1="111.359948018947" x2="506.89659704062836" y2="118.96858176988968" class="err"/>
<line x1="503.89659704062836" y1="111.359948018947" x2="509.89659704062836" y2="111.359948018947" class="err"/>
<line x1="503.89659704062836" y1="118.96858176988968" x2="509.89659704062836" y2="118.96858176988968" class="err"/>
<circle cx="506.89659704062836" cy="115.16426489441834" r="2.5" class="obs"/>
<line x1="531.6341212566275" y1="107.40421554644196" x2="531.6341212566275" y2="115.35353439071045" class="err"/>
<line x1="528.6341212566275" y1="107.40421554644196" x2="534.6341212566275" y2="107.40421554644196" class="err"/>
<line x1="528.6341212566275" y1="115.35353439071045" x2="534.6341212566275" y2="115.35353439071045" class="err"/>
<circle cx="531.6341212566275" cy="111.37887496857621" r="2.5" class="obs"/>
<line x1="556.4713935541427" y1="115.80778118181152" x2="556.4713935541427" y2="125.87691838455163" class="err"/>
<line x1="553.4713935541427" y1="115.80778118181152" x2="559.4713935541427" y2="115.80778118181152" class="err"/>
<line x1="553.4713935541427" y1="125.87691838455163" x2="559.4713935541427" y2="125.87691838455163" class="err"/>
<circle cx="556.4713935541427" cy="120.84234978318159" r="2.5" class="obs"/>
<line x1="581.3086658516578" y1="106.32537941757695" x2="581.3086658516578" y2="124.00315037125975" class="err"/>
<line x1="578.3086658516578" y1="106.32537941757695" x2="584.3086658516578" y2="106.32537941757695" class="err"/>
<line x1="578.3086658516578" y1="124.00315037125975" x2="584.3086658516578" y2="124.00315037125975" class="err"/>
<circle cx="581.3086658516578" cy="115.16426489441834" r="2.5" class="obs"/>
<line x1="606.1459381491729" y1="117.15159460548549" x2="606.1459381491729" y2="139.67466466424622" class="err"/>
<line x1="603.1459381491729" y1="117.15159460548549" x2="609.1459381491729" y2="117.15159460548549" class="err"/>
<line x1="603.1459381491729" y1="139.67466466424622" x2="609.1459381491729" y2="139.67466466424622" class="err"/>
<circle cx="606.1459381491729" cy="128.41312963486587" r="2.5" class="obs"/>
<g class="legend">
<line x1="82" y1="69" x2="106" y2="69" class="fw"/>
<text x="112" y="73" class="lbl-l">framework fit</text>
<line x1="82" y1="87" x2="106" y2="87" class="nt"/>
<text x="112" y="91" class="lbl-l">Newtonian (no halo)</text>
<circle cx="94" cy="105" r="2.5" class="obs"/>
<text x="112" y="109" class="lbl">observed V±err</text>
</g>
<g class="legend">
<line x1="472" y1="69" x2="496" y2="69" class="rho"/>
<text x="502" y="73" class="lbl-r">ρ(r) raw</text>
<line x1="472" y1="87" x2="496" y2="87" class="sig"/>
<text x="502" y="91" class="lbl-s">Σ(r) cumulative</text>
<text x="472" y="113" class="lbl-r">ρ peak: 141 M☉/pc²</text>
</g>
<rect x="705" y="55" width="170" height="170" class="preview-bg"/>
<defs><radialGradient id="g_UGC00128" cx="0.5" cy="0.5" r="0.5">
  <stop offset="0.0000" stop-color="rgb(75,75,75)"/>
  <stop offset="0.0312" stop-color="rgb(67,67,67)"/>
  <stop offset="0.0625" stop-color="rgb(56,56,56)"/>
  <stop offset="0.0938" stop-color="rgb(49,49,49)"/>
  <stop offset="0.1250" stop-color="rgb(43,43,43)"/>
  <stop offset="0.1562" stop-color="rgb(37,37,37)"/>
  <stop offset="0.1875" stop-color="rgb(34,34,34)"/>
  <stop offset="0.2188" stop-color="rgb(33,33,33)"/>
  <stop offset="0.2500" stop-color="rgb(32,32,32)"/>
  <stop offset="0.2812" stop-color="rgb(31,31,31)"/>
  <stop offset="0.3125" stop-color="rgb(29,29,29)"/>
  <stop offset="0.3438" stop-color="rgb(28,28,28)"/>
  <stop offset="0.3750" stop-color="rgb(27,27,27)"/>
  <stop offset="0.4062" stop-color="rgb(26,26,26)"/>
  <stop offset="0.4375" stop-color="rgb(24,24,24)"/>
  <stop offset="0.4688" stop-color="rgb(23,23,23)"/>
  <stop offset="0.5000" stop-color="rgb(22,22,22)"/>
  <stop offset="0.5312" stop-color="rgb(22,22,22)"/>
  <stop offset="0.5625" stop-color="rgb(21,21,21)"/>
  <stop offset="0.5938" stop-color="rgb(20,20,20)"/>
  <stop offset="0.6250" stop-color="rgb(20,20,20)"/>
  <stop offset="0.6562" stop-color="rgb(19,19,19)"/>
  <stop offset="0.6875" stop-color="rgb(18,18,18)"/>
  <stop offset="0.7188" stop-color="rgb(18,18,18)"/>
  <stop offset="0.7500" stop-color="rgb(17,17,17)"/>
  <stop offset="0.7812" stop-color="rgb(16,16,16)"/>
  <stop offset="0.8125" stop-color="rgb(16,16,16)"/>
  <stop offset="0.8438" stop-color="rgb(15,15,15)"/>
  <stop offset="0.8750" stop-color="rgb(14,14,14)"/>
  <stop offset="0.9062" stop-color="rgb(14,14,14)"/>
  <stop offset="0.9375" stop-color="rgb(13,13,13)"/>
  <stop offset="0.9688" stop-color="rgb(12,12,12)"/>
  <stop offset="1.0000" stop-color="rgb(0,0,0)"/>
</radialGradient></defs>
<circle cx="790.0" cy="140.0" r="81.0" fill="url(#g_UGC00128)"/>
<text x="790.0" y="49" text-anchor="middle" class="preview-lbl">face-on luminance from ρ(r)</text>
<text x="790.0" y="239" text-anchor="middle" class="preview-lbl">edge at r = 52.2 kpc</text>
</svg>