<svg xmlns="http://www.w3.org/2000/svg" viewBox="0 0 960 450" width="960" height="450" font-family="sans-serif" font-size="12">
<style>
  .ax { stroke: #333; stroke-width: 1; fill: none; }
  .grid { stroke: #ddd; stroke-width: 0.5; fill: none; }
  .lbl { fill: #333; }
  .lbl-l { fill: #0066cc; }
  .lbl-r { fill: #b03030; }
  .obs { fill: #222; }
  .err { stroke: #555; stroke-width: 0.8; fill: none; }
  .fw { stroke: #0066cc; stroke-width: 2.2; fill: none; }
  .nt { stroke: #cc6600; stroke-width: 1.6; fill: none; stroke-dasharray: 5,3; }
  .mond { stroke: #7b2cbf; stroke-width: 1.8; fill: none; stroke-dasharray: 7,3; }
  .lbl-p { fill: #cc7000; }
  .lbl-m { fill: #7b2cbf; }
  .rho { stroke: #b03030; stroke-width: 2.0; fill: none; }
  .phot { stroke: #cc7000; stroke-width: 1.8; fill: none; }
  .mbar { stroke: #8e44ad; stroke-width: 1.8; fill: none; opacity: 0.9; }
  .mph { stroke: #c77dff; stroke-width: 1.6; fill: none; stroke-dasharray: 4,3; opacity: 0.95; }
  .title { fill: #111; font-size: 16px; font-weight: 600; }
  .subtitle { fill: #555; font-size: 11px; }
  .preview-bg { fill: #000; }
  .preview-lbl { fill: #888; font-size: 10px; }
  .legend { font-size: 11px; }
</style>
<text x="378.5" y="22" text-anchor="middle" class="title">UGC05986</text>
<text x="378.5" y="38" text-anchor="middle" class="subtitle">rMax=9.4 kpc, N=15, FW=3.5 km/s, 4.9%, 1.13σ, MOND=15.2 km/s, 15.3%, 5.48σ, amp=504</text>
<line x1="70" y1="395.0" x2="687" y2="395.0" class="grid"/>
<text x="64" y="399.0" text-anchor="end" class="lbl-l">0</text>
<line x1="70" y1="327.0" x2="687" y2="327.0" class="grid"/>
<text x="64" y="331.0" text-anchor="end" class="lbl-l">28</text>
<line x1="70" y1="259.0" x2="687" y2="259.0" class="grid"/>
<text x="64" y="263.0" text-anchor="end" class="lbl-l">55</text>
<line x1="70" y1="191.0" x2="687" y2="191.0" class="grid"/>
<text x="64" y="195.0" text-anchor="end" class="lbl-l">83</text>
<line x1="70" y1="123.0" x2="687" y2="123.0" class="grid"/>
<text x="64" y="127.0" text-anchor="end" class="lbl-l">111</text>
<line x1="70" y1="55.0" x2="687" y2="55.0" class="grid"/>
<text x="64" y="59.0" text-anchor="end" class="lbl-l">138</text>
<text x="693" y="399.0" text-anchor="start" class="lbl-r">0.0</text>
<text x="693" y="353.7" text-anchor="start" class="lbl-r">0.2</text>
<text x="693" y="308.3" text-anchor="start" class="lbl-r">0.4</text>
<text x="693" y="263.0" text-anchor="start" class="lbl-r">0.6</text>
<text x="693" y="217.7" text-anchor="start" class="lbl-r">0.8</text>
<text x="693" y="172.3" text-anchor="start" class="lbl-r">1.0</text>
<line x1="70.0" y1="55" x2="70.0" y2="395" class="grid"/>
<text x="70.0" y="411" text-anchor="middle" class="lbl">0.0</text>
<line x1="172.8" y1="55" x2="172.8" y2="395" class="grid"/>
<text x="172.8" y="411" text-anchor="middle" class="lbl">1.8</text>
<line x1="275.7" y1="55" x2="275.7" y2="395" class="grid"/>
<text x="275.7" y="411" text-anchor="middle" class="lbl">3.6</text>
<line x1="378.5" y1="55" x2="378.5" y2="395" class="grid"/>
<text x="378.5" y="411" text-anchor="middle" class="lbl">5.4</text>
<line x1="481.3" y1="55" x2="481.3" y2="395" class="grid"/>
<text x="481.3" y="411" text-anchor="middle" class="lbl">7.2</text>
<line x1="584.2" y1="55" x2="584.2" y2="395" class="grid"/>
<text x="584.2" y="411" text-anchor="middle" class="lbl">9.0</text>
<line x1="687.0" y1="55" x2="687.0" y2="395" class="grid"/>
<text x="687.0" y="411" text-anchor="middle" class="lbl">10.8</text>
<text x="378.5" y="438" text-anchor="middle" class="lbl">radius (kpc)</text>
<text x="16" y="225" text-anchor="middle" class="lbl-l" transform="rotate(-90, 16, 225)">velocity (km/s)</text>
<text x="724" y="225" text-anchor="middle" class="lbl-r" transform="rotate(-90, 724, 225)">profiles (normalized to peak)</text>
<rect x="70" y="55" width="617" height="340" class="ax"/>
<path d="M 70.0,168.3 L 72.8,168.3 L 75.6,168.3 L 78.5,168.3 L 81.3,168.3 L 84.1,168.3 L 86.9,168.3 L 89.7,168.3 L 92.5,168.3 L 95.4,168.3 L 98.2,168.3 L 101.0,168.3 L 103.8,168.3 L 106.6,168.3 L 109.4,168.3 L 112.3,168.3 L 115.1,168.3 L 117.9,168.3 L 120.7,168.3 L 123.5,168.3 L 126.3,168.6 L 129.2,170.1 L 132.0,171.7 L 134.8,173.2 L 137.6,174.8 L 140.4,176.4 L 143.3,177.9 L 146.1,179.5 L 148.9,181.1 L 151.7,182.6 L 154.5,184.2 L 157.3,185.7 L 160.2,187.3 L 163.0,188.9 L 165.8,190.4 L 168.6,192.0 L 171.4,193.6 L 174.2,195.1 L 177.1,196.7 L 179.9,198.2 L 182.7,199.8 L 185.5,201.4 L 188.3,202.9 L 191.1,203.4 L 194.0,203.4 L 196.8,203.4 L 199.6,203.4 L 202.4,203.4 L 205.2,203.4 L 208.1,203.4 L 210.9,203.4 L 213.7,203.4 L 216.5,203.4 L 219.3,203.4 L 222.1,204.1 L 225.0,204.8 L 227.8,205.6 L 230.6,206.4 L 233.4,207.2 L 236.2,208.0 L 239.0,208.8 L 241.9,209.6 L 244.7,210.4 L 247.5,211.2 L 250.3,212.0 L 253.1,212.8 L 255.9,213.6 L 258.8,214.4 L 261.6,215.2 L 264.4,216.0 L 267.2,216.8 L 270.0,217.6 L 272.8,218.4 L 275.7,219.2 L 278.5,220.0 L 281.3,220.8 L 284.1,221.6 L 286.9,222.4 L 289.8,223.2 L 292.6,224.0 L 295.4,224.8 L 298.2,225.6 L 301.0,226.4 L 303.8,227.2 L 306.7,227.9 L 309.5,228.7 L 312.3,229.5 L 315.1,230.3 L 317.9,231.1 L 320.7,231.9 L 323.6,232.7 L 326.4,233.5 L 329.2,234.3 L 332.0,235.1 L 334.8,235.9 L 337.6,236.7 L 340.5,237.5 L 343.3,238.3 L 346.1,239.1 L 348.9,239.9 L 351.7,240.7 L 354.6,241.5 L 357.4,242.3 L 360.2,243.1 L 363.0,243.9 L 365.8,244.7 L 368.6,245.5 L 371.5,246.3 L 374.3,247.1 L 377.1,247.9 L 379.9,248.7 L 382.7,249.5 L 385.5,250.3 L 388.4,251.0 L 391.2,251.8 L 394.0,252.6 L 396.8,253.4 L 399.6,254.2 L 402.4,255.0 L 405.3,255.8 L 408.1,256.6 L 410.9,257.4 L 413.7,258.2 L 416.5,259.0 L 419.4,259.8 L 422.2,260.6 L 425.0,261.4 L 427.8,262.2 L 430.6,263.0 L 433.4,263.8 L 436.3,264.6 L 439.1,265.4 L 441.9,266.2 L 444.7,267.0 L 447.5,267.8 L 450.3,268.6 L 453.2,269.4 L 456.0,270.2 L 458.8,271.0 L 461.6,271.8 L 464.4,272.6 L 467.2,273.4 L 470.1,274.2 L 472.9,274.9 L 475.7,275.7 L 478.5,276.5 L 481.3,277.3 L 484.2,278.1 L 487.0,278.9 L 489.8,279.7 L 492.6,280.5 L 495.4,281.3 L 498.2,282.1 L 501.1,282.9 L 503.9,283.7 L 506.7,284.5 L 509.5,285.3 L 512.3,286.1 L 515.1,286.9 L 518.0,287.7 L 520.8,288.5 L 523.6,289.3 L 526.4,290.1 L 529.2,290.9 L 532.0,291.7 L 534.9,292.5 L 537.7,293.3 L 540.5,294.1 L 543.3,294.9 L 546.1,295.7 L 548.9,296.5 L 551.8,297.3 L 554.6,298.0 L 557.4,298.8 L 560.2,299.6 L 563.0,300.4 L 565.9,301.2 L 568.7,302.0 L 571.5,302.8 L 574.3,303.6 L 577.1,304.4 L 579.9,305.2 L 582.8,306.0 L 585.6,306.8 L 588.4,307.6 L 591.2,308.4 L 594.0,309.2 L 596.8,310.0 L 599.7,310.8 L 602.5,311.6 L 605.3,312.4 L 608.1,313.2 L 610.9,314.0 L 613.7,314.8 L 616.6,315.6 L 619.4,316.4 L 622.2,317.2 L 625.0,318.0 L 627.8,318.8 L 630.7,321.0 L 633.5,328.7 L 636.3,336.5 L 639.1,344.2 L 641.9,351.9 L 644.7,359.7 L 647.6,367.4 L 650.4,375.1 L 653.2,382.9 L 656.0,390.6 L 658.8,395.0 L 661.6,395.0 L 664.5,395.0 L 667.3,395.0 L 670.1,395.0 L 672.9,395.0 L 675.7,395.0 L 678.5,395.0 L 681.4,395.0 L 684.2,395.0 L 687.0,395.0" class="rho"/>
<path d="M 105.9,168.3 L 141.8,250.2 L 177.1,270.4 L 213.0,302.2 L 248.3,337.5 L 284.7,355.4 L 320.0,366.2 L 355.9,380.1 L 391.8,387.2 L 427.7,391.6 L 463.0,395.0 L 499.5,395.0 L 534.8,395.0 L 570.7,395.0 L 606.0,395.0" class="phot"/>
<path d="M 105.9,199.5 L 141.8,211.0 L 177.1,186.2 L 213.0,168.3 L 248.3,208.6 L 284.7,251.0 L 320.0,265.3 L 355.9,297.8 L 391.8,350.0 L 427.7,379.1 L 463.0,385.3 L 499.5,391.2 L 534.8,393.5 L 570.7,383.0 L 606.0,366.4" class="mbar"/>
<path d="M 105.9,181.0 L 141.8,185.8 L 177.1,175.6 L 213.0,168.3 L 248.3,184.6 L 284.7,202.4 L 320.0,209.9 L 355.9,227.8 L 391.8,258.6 L 427.7,281.0 L 463.0,294.9 L 499.5,311.9 L 534.8,321.2 L 570.7,311.3 L 606.0,294.3" class="mph"/>
<path d="M 76.2,351.7 L 82.3,333.7 L 88.5,320.0 L 94.7,308.4 L 100.8,298.1 L 107.0,288.9 L 113.2,280.4 L 119.4,272.5 L 125.5,265.0 L 131.7,258.1 L 137.9,251.7 L 144.0,245.7 L 150.2,240.1 L 156.4,234.8 L 162.6,229.8 L 168.7,225.1 L 174.9,220.6 L 181.1,216.4 L 187.2,212.4 L 193.4,208.5 L 199.6,204.7 L 205.7,200.9 L 211.9,197.1 L 218.1,193.5 L 224.3,189.8 L 230.4,186.3 L 236.6,182.9 L 242.8,179.6 L 248.9,176.3 L 255.1,173.2 L 261.3,170.2 L 267.4,167.2 L 273.6,164.3 L 279.8,161.5 L 286.0,158.8 L 292.1,156.2 L 298.3,153.6 L 304.5,151.1 L 310.6,148.6 L 316.8,146.2 L 323.0,143.9 L 329.1,141.6 L 335.3,139.4 L 341.5,137.3 L 347.7,135.2 L 353.8,133.1 L 360.0,131.2 L 366.2,129.2 L 372.3,127.3 L 378.5,125.5 L 384.7,123.7 L 390.8,122.0 L 397.0,120.3 L 403.2,118.6 L 409.4,117.0 L 415.5,115.4 L 421.7,113.9 L 427.9,112.4 L 434.0,111.0 L 440.2,109.6 L 446.4,108.3 L 452.5,107.0 L 458.7,105.7 L 464.9,104.4 L 471.1,103.2 L 477.2,102.1 L 483.4,101.0 L 489.6,99.9 L 495.7,98.8 L 501.9,97.8 L 508.1,96.8 L 514.2,95.9 L 520.4,95.0 L 526.6,94.1 L 532.8,93.3 L 538.9,92.5 L 545.1,91.7 L 551.3,91.0 L 557.4,90.3 L 563.6,89.6 L 569.8,89.0 L 575.9,88.4 L 582.1,87.8 L 588.3,87.3 L 594.4,86.8 L 600.6,86.3 L 606.8,85.9 L 613.0,85.4 L 619.1,85.1 L 625.3,84.7 L 631.5,84.4 L 637.6,84.4 L 643.8,84.9 L 650.0,85.7 L 656.2,87.0 L 662.3,88.6 L 668.5,90.2 L 674.7,91.8 L 680.8,93.3 L 687.0,94.8" class="nt"/>
<path d="M 105.9,303.7 L 141.8,272.7 L 177.1,240.9 L 213.0,208.7 L 248.3,191.6 L 284.7,180.1 L 320.0,167.2 L 355.9,158.0 L 391.8,156.8 L 427.7,157.9 L 463.0,157.7 L 499.5,160.7 L 534.8,163.9 L 570.7,163.9 L 606.0,158.8" class="mond"/>
<path d="M 75.1,383.9 L 80.3,375.0 L 85.4,365.1 L 90.6,355.0 L 95.7,344.8 L 100.8,334.5 L 106.0,324.0 L 111.1,313.3 L 116.3,302.6 L 121.4,291.9 L 126.6,281.3 L 131.7,271.2 L 136.8,261.7 L 142.0,252.9 L 147.1,244.9 L 152.3,237.8 L 157.4,231.5 L 162.6,226.1 L 167.7,221.5 L 172.8,217.7 L 178.0,214.6 L 183.1,212.2 L 188.3,210.2 L 193.4,208.4 L 198.5,206.5 L 203.7,204.1 L 208.8,201.3 L 214.0,197.8 L 219.1,193.9 L 224.3,189.7 L 229.4,185.3 L 234.5,180.9 L 239.7,176.6 L 244.8,172.4 L 250.0,168.4 L 255.1,164.7 L 260.2,161.1 L 265.4,157.6 L 270.5,154.4 L 275.7,151.3 L 280.8,148.3 L 285.9,145.5 L 291.1,142.8 L 296.2,140.2 L 301.4,137.8 L 306.5,135.5 L 311.7,133.3 L 316.8,131.2 L 321.9,129.2 L 327.1,127.3 L 332.2,125.5 L 337.4,123.8 L 342.5,122.2 L 347.7,120.7 L 352.8,119.3 L 357.9,118.0 L 363.1,116.7 L 368.2,115.6 L 373.4,114.5 L 378.5,113.5 L 383.6,112.6 L 388.8,111.8 L 393.9,111.1 L 399.1,110.4 L 404.2,109.8 L 409.4,109.2 L 414.5,108.8 L 419.6,108.4 L 424.8,108.1 L 429.9,107.8 L 435.1,107.7 L 440.2,107.6 L 445.3,107.5 L 450.5,107.5 L 455.6,107.6 L 460.8,107.7 L 465.9,107.9 L 471.1,108.2 L 476.2,108.5 L 481.3,108.9 L 486.5,109.3 L 491.6,109.8 L 496.8,110.3 L 501.9,110.8 L 507.0,111.5 L 512.2,112.1 L 517.3,112.8 L 522.5,113.5 L 527.6,114.3 L 532.8,115.0 L 537.9,115.8 L 543.0,116.6 L 548.2,117.4 L 553.3,118.2 L 558.5,119.0 L 563.6,119.7 L 568.7,120.4 L 573.9,120.9 L 579.0,121.4 L 584.2,121.7 L 589.3,121.8 L 594.4,121.7 L 599.6,121.3 L 604.7,120.6 L 609.9,119.5 L 615.0,118.4 L 620.2,117.4 L 625.3,116.9 L 630.4,117.6 L 635.6,119.9 L 640.7,124.1 L 645.9,130.1 L 651.0,137.5 L 656.1,145.8 L 661.3,154.5 L 666.4,162.9 L 671.6,171.0 L 676.7,178.3 L 681.9,185.1 L 687.0,191.3" class="fw"/>
<line x1="105.88" y1="316.36" x2="105.88" y2="328.79" class="err"/>
<line x1="102.88" y1="316.36" x2="108.88" y2="316.36" class="err"/>
<line x1="102.88" y1="328.79" x2="108.88" y2="328.79" class="err"/>
<circle cx="105.88" cy="322.57" r="2.5" class="obs"/>
<line x1="141.77" y1="261.05" x2="141.77" y2="279.51" class="err"/>
<line x1="138.77" y1="261.05" x2="144.77" y2="261.05" class="err"/>
<line x1="138.77" y1="279.51" x2="144.77" y2="279.51" class="err"/>
<circle cx="141.77" cy="270.28" r="2.5" class="obs"/>
<line x1="177.08" y1="221.23" x2="177.08" y2="233.89" class="err"/>
<line x1="174.08" y1="221.23" x2="180.08" y2="221.23" class="err"/>
<line x1="174.08" y1="233.89" x2="180.08" y2="233.89" class="err"/>
<circle cx="177.08" cy="227.56" r="2.5" class="obs"/>
<line x1="212.96" y1="182.43" x2="212.96" y2="193.63" class="err"/>
<line x1="209.96" y1="182.43" x2="215.96" y2="182.43" class="err"/>
<line x1="209.96" y1="193.63" x2="215.96" y2="193.63" class="err"/>
<circle cx="212.96" cy="188.03" r="2.5" class="obs"/>
<line x1="248.28" y1="156.09" x2="248.28" y2="165.96" class="err"/>
<line x1="245.28" y1="156.09" x2="251.28" y2="156.09" class="err"/>
<line x1="245.28" y1="165.96" x2="251.28" y2="165.96" class="err"/>
<circle cx="248.28" cy="161.03" r="2.5" class="obs"/>
<line x1="284.73" y1="125.97" x2="284.73" y2="143.55" class="err"/>
<line x1="281.73" y1="125.97" x2="287.73" y2="125.97" class="err"/>
<line x1="281.73" y1="143.55" x2="287.73" y2="143.55" class="err"/>
<circle cx="284.73" cy="134.76" r="2.5" class="obs"/>
<line x1="320.05" y1="109.59" x2="320.05" y2="130.46" class="err"/>
<line x1="317.05" y1="109.59" x2="323.05" y2="109.59" class="err"/>
<line x1="317.05" y1="130.46" x2="323.05" y2="130.46" class="err"/>
<circle cx="320.05" cy="120.02" r="2.5" class="obs"/>
<line x1="355.93" y1="104.85" x2="355.93" y2="120.47" class="err"/>
<line x1="352.93" y1="104.85" x2="358.93" y2="104.85" class="err"/>
<line x1="352.93" y1="120.47" x2="358.93" y2="120.47" class="err"/>
<circle cx="355.93" cy="112.66" r="2.5" class="obs"/>
<line x1="391.81" y1="104.51" x2="391.81" y2="115.90" class="err"/>
<line x1="388.81" y1="104.51" x2="394.81" y2="104.51" class="err"/>
<line x1="388.81" y1="115.90" x2="394.81" y2="115.90" class="err"/>
<circle cx="391.81" cy="110.20" r="2.5" class="obs"/>
<line x1="427.70" y1="105.27" x2="427.70" y2="115.14" class="err"/>
<line x1="424.70" y1="105.27" x2="430.70" y2="105.27" class="err"/>
<line x1="424.70" y1="115.14" x2="430.70" y2="115.14" class="err"/>
<circle cx="427.70" cy="110.20" r="2.5" class="obs"/>
<line x1="463.01" y1="104.61" x2="463.01" y2="115.80" class="err"/>
<line x1="460.01" y1="104.61" x2="466.01" y2="104.61" class="err"/>
<line x1="460.01" y1="115.80" x2="466.01" y2="115.80" class="err"/>
<circle cx="463.01" cy="110.20" r="2.5" class="obs"/>
<line x1="499.46" y1="107.63" x2="499.46" y2="122.60" class="err"/>
<line x1="496.46" y1="107.63" x2="502.46" y2="107.63" class="err"/>
<line x1="496.46" y1="122.60" x2="502.46" y2="122.60" class="err"/>
<circle cx="499.46" cy="115.11" r="2.5" class="obs"/>
<line x1="534.78" y1="110.97" x2="534.78" y2="129.08" class="err"/>
<line x1="531.78" y1="110.97" x2="537.78" y2="110.97" class="err"/>
<line x1="531.78" y1="129.08" x2="537.78" y2="129.08" class="err"/>
<circle cx="534.78" cy="120.02" r="2.5" class="obs"/>
<line x1="570.66" y1="114.87" x2="570.66" y2="139.91" class="err"/>
<line x1="567.66" y1="114.87" x2="573.66" y2="114.87" class="err"/>
<line x1="567.66" y1="139.91" x2="573.66" y2="139.91" class="err"/>
<circle cx="570.66" cy="127.39" r="2.5" class="obs"/>
<line x1="605.97" y1="116.61" x2="605.97" y2="147.99" class="err"/>
<line x1="602.97" y1="116.61" x2="608.97" y2="116.61" class="err"/>
<line x1="602.97" y1="147.99" x2="608.97" y2="147.99" class="err"/>
<circle cx="605.97" cy="132.30" r="2.5" class="obs"/>
<g class="legend">
<line x1="82" y1="69" x2="106" y2="69" class="fw"/>
<text x="112" y="73" class="lbl-l">framework: 3.5 km/s, 4.9%, 1.13σ</text>
<line x1="82" y1="87" x2="106" y2="87" class="nt"/>
<text x="112" y="91" class="lbl-l">Newtonian: 9.6 km/s, 14.7%, 2.63σ</text>
<line x1="82" y1="105" x2="106" y2="105" class="mond"/>
<text x="112" y="109" class="lbl-m">MOND/RAR: 15.2 km/s, 15.3%, 5.48σ</text>
<circle cx="94" cy="123" r="2.5" class="obs"/>
<text x="112" y="127" class="lbl">observed V±err</text>
</g>
<g class="legend">
<line x1="472" y1="69" x2="496" y2="69" class="rho"/>
<text x="502" y="73" class="lbl-r">ρ(r) raw</text>
<line x1="472" y1="87" x2="496" y2="87" class="phot"/>
<text x="502" y="91" class="lbl-p">photometric baryonic profile</text>
<line x1="472" y1="105" x2="496" y2="105" class="mbar"/>
<text x="502" y="109" class="lbl-m">MOND baryonic annulus</text>
<line x1="472" y1="123" x2="496" y2="123" class="mph"/>
<text x="502" y="127" class="lbl-m">MOND phantom annulus</text>
<text x="472" y="147" class="lbl-r">ρ peak: 213 M☉/pc²</text>
<text x="472" y="163" class="lbl-p">phot peak: 95.45 (arb.)</text>
<text x="472" y="179" class="lbl-m">Σbar peak: 67.11 M☉/pc²</text>
<text x="472" y="195" class="lbl-m">Σphantom peak: 105.00 M☉/pc²</text>
</g>
<rect x="775" y="55" width="170" height="170" class="preview-bg"/>
<defs><radialGradient id="g_UGC05986" cx="0.5" cy="0.5" r="0.5">
  <stop offset="0.0000" stop-color="rgb(95,95,95)"/>
  <stop offset="0.0313" stop-color="rgb(95,95,95)"/>
  <stop offset="0.0625" stop-color="rgb(95,95,95)"/>
  <stop offset="0.0938" stop-color="rgb(95,95,95)"/>
  <stop offset="0.1250" stop-color="rgb(92,92,92)"/>
  <stop offset="0.1563" stop-color="rgb(89,89,89)"/>
  <stop offset="0.1875" stop-color="rgb(87,87,87)"/>
  <stop offset="0.2188" stop-color="rgb(86,86,86)"/>
  <stop offset="0.2500" stop-color="rgb(86,86,86)"/>
  <stop offset="0.2813" stop-color="rgb(84,84,84)"/>
  <stop offset="0.3125" stop-color="rgb(83,83,83)"/>
  <stop offset="0.3438" stop-color="rgb(82,82,82)"/>
  <stop offset="0.3750" stop-color="rgb(80,80,80)"/>
  <stop offset="0.4063" stop-color="rgb(79,79,79)"/>
  <stop offset="0.4375" stop-color="rgb(78,78,78)"/>
  <stop offset="0.4688" stop-color="rgb(76,76,76)"/>
  <stop offset="0.5000" stop-color="rgb(75,75,75)"/>
  <stop offset="0.5313" stop-color="rgb(74,74,74)"/>
  <stop offset="0.5625" stop-color="rgb(72,72,72)"/>
  <stop offset="0.5938" stop-color="rgb(71,71,71)"/>
  <stop offset="0.6250" stop-color="rgb(70,70,70)"/>
  <stop offset="0.6563" stop-color="rgb(68,68,68)"/>
  <stop offset="0.6875" stop-color="rgb(67,67,67)"/>
  <stop offset="0.7188" stop-color="rgb(66,66,66)"/>
  <stop offset="0.7500" stop-color="rgb(64,64,64)"/>
  <stop offset="0.7813" stop-color="rgb(62,62,62)"/>
  <stop offset="0.8125" stop-color="rgb(59,59,59)"/>
  <stop offset="0.8438" stop-color="rgb(56,56,56)"/>
  <stop offset="0.8750" stop-color="rgb(53,53,53)"/>
  <stop offset="0.9063" stop-color="rgb(50,50,50)"/>
  <stop offset="0.9375" stop-color="rgb(47,47,47)"/>
  <stop offset="0.9688" stop-color="rgb(30,30,30)"/>
  <stop offset="1.0000" stop-color="rgb(0,0,0)"/>
</radialGradient></defs>
<circle cx="860" cy="140" r="81" fill="url(#g_UGC05986)"/>
<text x="860" y="49" text-anchor="middle" class="preview-lbl">face-on luminance from ρ(r)</text>
<text x="860" y="239" text-anchor="middle" class="preview-lbl">edge at r = 10.3 kpc</text>
</svg>