<svg xmlns="http://www.w3.org/2000/svg" viewBox="0 0 890 420" width="890" height="420" font-family="sans-serif" font-size="12">
<style>
  .ax { stroke: #333; stroke-width: 1; fill: none; }
  .grid { stroke: #ddd; stroke-width: 0.5; fill: none; }
  .lbl { fill: #333; }
  .lbl-l { fill: #0066cc; }
  .lbl-r { fill: #b03030; }
  .obs { fill: #222; }
  .err { stroke: #555; stroke-width: 0.8; fill: none; }
  .fw { stroke: #0066cc; stroke-width: 2.2; fill: none; }
  .nt { stroke: #cc6600; stroke-width: 1.6; fill: none; stroke-dasharray: 5,3; }
  .lbl-s { fill: #cc7000; }
  .rho { stroke: #b03030; stroke-width: 2.0; fill: none; }
  .sig { stroke: #cc7000; stroke-width: 1.8; fill: none; }
  .title { fill: #111; font-size: 16px; font-weight: 600; }
  .subtitle { fill: #555; font-size: 11px; }
  .preview-bg { fill: #000; }
  .preview-lbl { fill: #888; font-size: 10px; }
  .legend { font-size: 11px; }
</style>
<text x="343.5" y="22" text-anchor="middle" class="title">UGC06917</text>
<text x="343.5" y="38" text-anchor="middle" class="subtitle">rMax=10.5 kpc, N=11, RMS=1.0 km/s (1.1%), amp=105</text>
<line x1="70" y1="365.0" x2="617" y2="365.0" class="grid"/>
<text x="64" y="369.0" text-anchor="end" class="lbl-l">0</text>
<line x1="70" y1="303.0" x2="617" y2="303.0" class="grid"/>
<text x="64" y="307.0" text-anchor="end" class="lbl-l">26</text>
<line x1="70" y1="241.0" x2="617" y2="241.0" class="grid"/>
<text x="64" y="245.0" text-anchor="end" class="lbl-l">51</text>
<line x1="70" y1="179.0" x2="617" y2="179.0" class="grid"/>
<text x="64" y="183.0" text-anchor="end" class="lbl-l">77</text>
<line x1="70" y1="117.0" x2="617" y2="117.0" class="grid"/>
<text x="64" y="121.0" text-anchor="end" class="lbl-l">103</text>
<line x1="70" y1="55.0" x2="617" y2="55.0" class="grid"/>
<text x="64" y="59.0" text-anchor="end" class="lbl-l">129</text>
<text x="623" y="369.0" text-anchor="start" class="lbl-r">0.0</text>
<text x="623" y="327.7" text-anchor="start" class="lbl-r">0.2</text>
<text x="623" y="286.3" text-anchor="start" class="lbl-r">0.4</text>
<text x="623" y="245.0" text-anchor="start" class="lbl-r">0.6</text>
<text x="623" y="203.7" text-anchor="start" class="lbl-r">0.8</text>
<text x="623" y="162.3" text-anchor="start" class="lbl-r">1.0</text>
<line x1="70.0" y1="55" x2="70.0" y2="365" class="grid"/>
<text x="70.0" y="381" text-anchor="middle" class="lbl">0.0</text>
<line x1="161.2" y1="55" x2="161.2" y2="365" class="grid"/>
<text x="161.2" y="381" text-anchor="middle" class="lbl">1.8</text>
<line x1="252.3" y1="55" x2="252.3" y2="365" class="grid"/>
<text x="252.3" y="381" text-anchor="middle" class="lbl">3.7</text>
<line x1="343.5" y1="55" x2="343.5" y2="365" class="grid"/>
<text x="343.5" y="381" text-anchor="middle" class="lbl">5.5</text>
<line x1="434.7" y1="55" x2="434.7" y2="365" class="grid"/>
<text x="434.7" y="381" text-anchor="middle" class="lbl">7.3</text>
<line x1="525.8" y1="55" x2="525.8" y2="365" class="grid"/>
<text x="525.8" y="381" text-anchor="middle" class="lbl">9.2</text>
<line x1="617.0" y1="55" x2="617.0" y2="365" class="grid"/>
<text x="617.0" y="381" text-anchor="middle" class="lbl">11.0</text>
<text x="343.5" y="408" text-anchor="middle" class="lbl">radius (kpc)</text>
<text x="16" y="210" text-anchor="middle" class="lbl-l" transform="rotate(-90, 16, 210)">velocity (km/s)</text>
<text x="874" y="210" text-anchor="middle" class="lbl-r" transform="rotate(-90, 874, 210)">mass profile (normalized to peak)</text>
<rect x="70" y="55" width="547" height="310" class="ax"/>
<path d="M 70.0,158.3 L 72.5,168.5 L 75.0,178.6 L 77.5,188.7 L 80.0,198.8 L 82.5,208.6 L 85.0,212.3 L 87.5,216.0 L 90.0,219.6 L 92.5,223.3 L 95.0,227.0 L 97.5,230.7 L 100.0,234.3 L 102.5,238.0 L 105.0,241.7 L 107.5,245.4 L 110.0,249.0 L 112.5,252.7 L 115.0,256.4 L 117.5,258.1 L 120.0,258.5 L 122.5,258.9 L 124.9,259.3 L 127.4,259.7 L 129.9,260.2 L 132.4,260.6 L 134.9,261.0 L 137.4,261.4 L 139.9,261.8 L 142.4,262.2 L 144.9,262.6 L 147.4,263.0 L 149.9,263.5 L 152.4,263.9 L 154.9,264.3 L 157.4,264.7 L 159.9,265.1 L 162.4,265.5 L 164.9,265.9 L 167.4,266.4 L 169.9,266.8 L 172.4,267.2 L 174.9,267.6 L 177.4,268.0 L 179.9,268.4 L 182.4,268.8 L 184.9,269.2 L 187.4,269.7 L 189.9,270.1 L 192.4,270.5 L 194.9,270.9 L 197.4,271.3 L 199.9,271.7 L 202.4,272.1 L 204.9,272.6 L 207.4,273.0 L 209.9,273.4 L 212.4,273.8 L 214.9,274.2 L 217.4,274.6 L 219.9,275.0 L 222.4,275.4 L 224.9,275.9 L 227.4,276.3 L 229.9,276.7 L 232.4,277.1 L 234.8,277.5 L 237.3,277.9 L 239.8,278.3 L 242.3,278.7 L 244.8,279.2 L 247.3,279.6 L 249.8,280.0 L 252.3,280.4 L 254.8,280.8 L 257.3,281.2 L 259.8,281.6 L 262.3,282.1 L 264.8,282.5 L 267.3,282.9 L 269.8,283.3 L 272.3,283.7 L 274.8,284.1 L 277.3,284.5 L 279.8,284.9 L 282.3,285.4 L 284.8,285.8 L 287.3,286.2 L 289.8,286.6 L 292.3,287.0 L 294.8,287.4 L 297.3,287.8 L 299.8,288.3 L 302.3,288.7 L 304.8,289.1 L 307.3,289.5 L 309.8,289.9 L 312.3,290.3 L 314.8,290.7 L 317.3,291.1 L 319.8,291.6 L 322.3,292.0 L 324.8,292.4 L 327.3,292.8 L 329.8,293.2 L 332.3,293.6 L 334.8,294.0 L 337.3,294.5 L 339.8,294.9 L 342.3,295.3 L 344.7,295.7 L 347.2,296.1 L 349.7,296.5 L 352.2,296.9 L 354.7,297.3 L 357.2,297.8 L 359.7,298.2 L 362.2,298.6 L 364.7,298.8 L 367.2,299.1 L 369.7,299.4 L 372.2,299.7 L 374.7,299.9 L 377.2,300.2 L 379.7,300.5 L 382.2,300.8 L 384.7,301.0 L 387.2,301.3 L 389.7,301.6 L 392.2,301.8 L 394.7,302.1 L 397.2,302.4 L 399.7,302.7 L 402.2,302.9 L 404.7,303.2 L 407.2,303.5 L 409.7,303.8 L 412.2,304.0 L 414.7,304.3 L 417.2,304.6 L 419.7,304.8 L 422.2,305.1 L 424.7,305.4 L 427.2,305.7 L 429.7,305.9 L 432.2,306.2 L 434.7,306.5 L 437.2,306.8 L 439.7,307.0 L 442.2,307.3 L 444.7,307.6 L 447.2,307.8 L 449.7,308.1 L 452.2,308.4 L 454.6,308.7 L 457.1,308.9 L 459.6,309.2 L 462.1,309.5 L 464.6,309.7 L 467.1,310.0 L 469.6,310.3 L 472.1,310.6 L 474.6,310.8 L 477.1,311.1 L 479.6,311.4 L 482.1,311.7 L 484.6,311.9 L 487.1,312.2 L 489.6,312.5 L 492.1,312.7 L 494.6,313.0 L 497.1,313.3 L 499.6,313.6 L 502.1,313.8 L 504.6,314.1 L 507.1,314.4 L 509.6,314.7 L 512.1,314.9 L 514.6,315.2 L 517.1,315.5 L 519.6,315.7 L 522.1,316.0 L 524.6,316.3 L 527.1,316.6 L 529.6,316.8 L 532.1,317.1 L 534.6,317.4 L 537.1,317.7 L 539.6,317.9 L 542.1,318.2 L 544.6,318.5 L 547.1,318.7 L 549.6,319.0 L 552.1,319.3 L 554.6,319.6 L 557.1,319.8 L 559.6,320.1 L 562.1,320.4 L 564.5,320.7 L 567.0,320.9 L 569.5,321.2 L 572.0,321.5 L 574.5,321.7 L 577.0,322.0 L 579.5,322.3 L 582.0,324.2 L 584.5,335.6 L 587.0,347.1 L 589.5,358.5 L 592.0,365.0 L 594.5,365.0 L 597.0,365.0 L 599.5,365.0 L 602.0,365.0 L 604.5,365.0 L 607.0,365.0 L 609.5,365.0 L 612.0,365.0 L 614.5,365.0 L 617.0,365.0" class="rho"/>
<path d="M 70.0,158.3 L 72.5,158.5 L 75.0,158.8 L 77.5,159.2 L 80.0,159.6 L 82.5,160.3 L 85.0,161.0 L 87.5,161.9 L 90.0,162.8 L 92.5,163.8 L 95.0,164.8 L 97.5,165.9 L 100.0,167.0 L 102.5,168.2 L 105.0,169.4 L 107.5,170.5 L 110.0,171.7 L 112.5,172.9 L 115.0,174.0 L 117.5,175.2 L 120.0,176.3 L 122.5,177.4 L 124.9,178.5 L 127.4,179.6 L 129.9,180.7 L 132.4,181.7 L 134.9,182.8 L 137.4,183.8 L 139.9,184.8 L 142.4,185.8 L 144.9,186.8 L 147.4,187.8 L 149.9,188.8 L 152.4,189.8 L 154.9,190.7 L 157.4,191.7 L 159.9,192.7 L 162.4,193.6 L 164.9,194.6 L 167.4,195.6 L 169.9,196.5 L 172.4,197.5 L 174.9,198.5 L 177.4,199.4 L 179.9,200.4 L 182.4,201.4 L 184.9,202.4 L 187.4,203.3 L 189.9,204.3 L 192.4,205.3 L 194.9,206.2 L 197.4,207.2 L 199.9,208.2 L 202.4,209.2 L 204.9,210.2 L 207.4,211.1 L 209.9,212.1 L 212.4,213.1 L 214.9,214.1 L 217.4,215.1 L 219.9,216.1 L 222.4,217.0 L 224.9,218.0 L 227.4,219.0 L 229.9,220.0 L 232.4,221.0 L 234.8,222.0 L 237.3,223.0 L 239.8,224.0 L 242.3,224.9 L 244.8,225.9 L 247.3,226.9 L 249.8,227.9 L 252.3,228.9 L 254.8,229.9 L 257.3,230.9 L 259.8,231.8 L 262.3,232.8 L 264.8,233.8 L 267.3,234.8 L 269.8,235.8 L 272.3,236.7 L 274.8,237.7 L 277.3,238.7 L 279.8,239.7 L 282.3,240.6 L 284.8,241.6 L 287.3,242.6 L 289.8,243.5 L 292.3,244.5 L 294.8,245.4 L 297.3,246.4 L 299.8,247.3 L 302.3,248.3 L 304.8,249.2 L 307.3,250.2 L 309.8,251.1 L 312.3,252.0 L 314.8,253.0 L 317.3,253.9 L 319.8,254.8 L 322.3,255.7 L 324.8,256.7 L 327.3,257.6 L 329.8,258.5 L 332.3,259.4 L 334.8,260.3 L 337.3,261.2 L 339.8,262.0 L 342.3,262.9 L 344.7,263.8 L 347.2,264.7 L 349.7,265.5 L 352.2,266.4 L 354.7,267.2 L 357.2,268.1 L 359.7,268.9 L 362.2,269.8 L 364.7,270.6 L 367.2,271.4 L 369.7,272.2 L 372.2,273.0 L 374.7,273.8 L 377.2,274.6 L 379.7,275.4 L 382.2,276.2 L 384.7,277.0 L 387.2,277.8 L 389.7,278.5 L 392.2,279.3 L 394.7,280.1 L 397.2,280.8 L 399.7,281.6 L 402.2,282.3 L 404.7,283.1 L 407.2,283.8 L 409.7,284.5 L 412.2,285.3 L 414.7,286.0 L 417.2,286.7 L 419.7,287.4 L 422.2,288.1 L 424.7,288.9 L 427.2,289.6 L 429.7,290.3 L 432.2,291.0 L 434.7,291.7 L 437.2,292.3 L 439.7,293.0 L 442.2,293.7 L 444.7,294.4 L 447.2,295.1 L 449.7,295.8 L 452.2,296.4 L 454.6,297.1 L 457.1,297.8 L 459.6,298.4 L 462.1,299.1 L 464.6,299.7 L 467.1,300.4 L 469.6,301.0 L 472.1,301.7 L 474.6,302.3 L 477.1,303.0 L 479.6,303.6 L 482.1,304.3 L 484.6,304.9 L 487.1,305.5 L 489.6,306.2 L 492.1,306.8 L 494.6,307.4 L 497.1,308.0 L 499.6,308.7 L 502.1,309.3 L 504.6,309.9 L 507.1,310.5 L 509.6,311.1 L 512.1,311.7 L 514.6,312.4 L 517.1,313.0 L 519.6,313.6 L 522.1,314.2 L 524.6,314.8 L 527.1,315.4 L 529.6,316.0 L 532.1,316.6 L 534.6,317.3 L 537.1,317.9 L 539.6,318.5 L 542.1,319.1 L 544.6,319.7 L 547.1,320.3 L 549.6,321.0 L 552.1,321.6 L 554.6,322.2 L 557.1,322.8 L 559.6,323.5 L 562.1,324.1 L 564.5,324.7 L 567.0,325.4 L 569.5,326.0 L 572.0,326.7 L 574.5,327.3 L 577.0,328.0 L 579.5,328.6 L 582.0,329.2 L 584.5,329.9 L 587.0,330.5 L 589.5,331.1 L 592.0,331.7 L 594.5,332.3 L 597.0,332.9 L 599.5,333.5 L 602.0,334.0 L 604.5,334.5 L 607.0,335.0 L 609.5,335.5 L 612.0,336.0 L 614.5,336.5 L 617.0,336.9" class="sig"/>
<path d="M 75.5,316.2 L 80.9,298.7 L 86.4,286.7 L 91.9,276.8 L 97.3,268.5 L 102.8,261.5 L 108.3,255.4 L 113.8,250.3 L 119.2,245.7 L 124.7,241.3 L 130.2,236.9 L 135.6,232.7 L 141.1,228.5 L 146.6,224.4 L 152.1,220.5 L 157.5,216.7 L 163.0,213.0 L 168.5,209.4 L 173.9,206.0 L 179.4,202.6 L 184.9,199.3 L 190.3,196.1 L 195.8,193.1 L 201.3,190.1 L 206.8,187.2 L 212.2,184.3 L 217.7,181.6 L 223.2,178.9 L 228.6,176.3 L 234.1,173.8 L 239.6,171.3 L 245.0,168.9 L 250.5,166.6 L 256.0,164.3 L 261.5,162.1 L 266.9,160.0 L 272.4,157.9 L 277.9,155.8 L 283.3,153.8 L 288.8,151.9 L 294.3,150.0 L 299.7,148.2 L 305.2,146.4 L 310.7,144.7 L 316.1,143.0 L 321.6,141.3 L 327.1,139.7 L 332.6,138.2 L 338.0,136.7 L 343.5,135.2 L 349.0,133.7 L 354.4,132.4 L 359.9,131.0 L 365.4,129.7 L 370.9,128.4 L 376.3,127.1 L 381.8,125.9 L 387.3,124.7 L 392.7,123.4 L 398.2,122.3 L 403.7,121.1 L 409.1,120.0 L 414.6,118.9 L 420.1,117.8 L 425.6,116.7 L 431.0,115.6 L 436.5,114.6 L 442.0,113.6 L 447.4,112.6 L 452.9,111.6 L 458.4,110.7 L 463.8,109.8 L 469.3,108.9 L 474.8,108.0 L 480.3,107.1 L 485.7,106.3 L 491.2,105.4 L 496.7,104.6 L 502.1,103.8 L 507.6,103.1 L 513.1,102.3 L 518.5,101.6 L 524.0,100.9 L 529.5,100.2 L 535.0,99.5 L 540.4,98.9 L 545.9,98.2 L 551.4,97.6 L 556.8,97.0 L 562.3,96.5 L 567.8,95.9 L 573.2,95.4 L 578.7,94.8 L 584.2,94.4 L 589.6,95.0 L 595.1,96.4 L 600.6,97.8 L 606.1,99.2 L 611.5,100.5 L 617.0,101.9" class="nt"/>
<path d="M 74.6,345.5 L 79.1,331.4 L 83.7,316.6 L 88.2,303.0 L 92.8,291.0 L 97.3,280.6 L 101.9,271.7 L 106.5,264.4 L 111.0,258.4 L 115.6,253.5 L 120.1,249.4 L 124.7,246.0 L 129.3,242.8 L 133.8,239.7 L 138.4,236.7 L 142.9,233.5 L 147.5,230.3 L 152.1,227.0 L 156.6,223.7 L 161.2,220.3 L 165.7,216.8 L 170.3,213.4 L 174.8,209.9 L 179.4,206.5 L 184.0,203.1 L 188.5,199.7 L 193.1,196.3 L 197.6,193.0 L 202.2,189.8 L 206.8,186.6 L 211.3,183.5 L 215.9,180.4 L 220.4,177.5 L 225.0,174.5 L 229.5,171.7 L 234.1,168.9 L 238.7,166.2 L 243.2,163.6 L 247.8,161.0 L 252.3,158.5 L 256.9,156.1 L 261.4,153.8 L 266.0,151.6 L 270.6,149.4 L 275.1,147.4 L 279.7,145.4 L 284.2,143.5 L 288.8,141.6 L 293.4,139.9 L 297.9,138.2 L 302.5,136.7 L 307.0,135.2 L 311.6,133.8 L 316.1,132.5 L 320.7,131.3 L 325.3,130.2 L 329.8,129.2 L 334.4,128.3 L 338.9,127.5 L 343.5,126.8 L 348.1,126.3 L 352.6,125.8 L 357.2,125.4 L 361.7,125.1 L 366.3,124.8 L 370.9,124.6 L 375.4,124.4 L 380.0,124.1 L 384.5,123.9 L 389.1,123.6 L 393.6,123.3 L 398.2,123.0 L 402.8,122.7 L 407.3,122.3 L 411.9,122.0 L 416.4,121.6 L 421.0,121.3 L 425.6,120.9 L 430.1,120.5 L 434.7,120.1 L 439.2,119.7 L 443.8,119.4 L 448.3,118.9 L 452.9,118.5 L 457.5,118.1 L 462.0,117.7 L 466.6,117.2 L 471.1,116.8 L 475.7,116.3 L 480.2,115.8 L 484.8,115.2 L 489.4,114.7 L 493.9,114.0 L 498.5,113.4 L 503.0,112.7 L 507.6,111.9 L 512.2,111.0 L 516.7,110.1 L 521.3,109.0 L 525.8,107.9 L 530.4,106.6 L 535.0,105.1 L 539.5,103.4 L 544.1,101.6 L 548.6,99.6 L 553.2,97.3 L 557.7,94.9 L 562.3,92.5 L 566.9,90.1 L 571.4,88.1 L 576.0,86.8 L 580.5,86.7 L 585.1,88.0 L 589.6,90.9 L 594.2,95.1 L 598.8,100.3 L 603.3,106.2 L 607.9,112.4 L 612.4,118.6 L 617.0,124.7" class="fw"/>
<line x1="156.38" y1="213.97" x2="156.38" y2="230.84" class="err"/>
<line x1="153.38" y1="213.97" x2="159.38" y2="213.97" class="err"/>
<line x1="153.38" y1="230.84" x2="159.38" y2="230.84" class="err"/>
<circle cx="156.38" cy="222.40" r="2.5" class="obs"/>
<line x1="199.57" y1="183.87" x2="199.57" y2="203.14" class="err"/>
<line x1="196.57" y1="183.87" x2="202.57" y2="183.87" class="err"/>
<line x1="196.57" y1="203.14" x2="202.57" y2="203.14" class="err"/>
<circle cx="199.57" cy="193.50" r="2.5" class="obs"/>
<line x1="243.75" y1="150.87" x2="243.75" y2="172.06" class="err"/>
<line x1="240.75" y1="150.87" x2="246.75" y2="150.87" class="err"/>
<line x1="240.75" y1="172.06" x2="246.75" y2="172.06" class="err"/>
<circle cx="243.75" cy="161.46" r="2.5" class="obs"/>
<line x1="286.94" y1="128.95" x2="286.94" y2="150.63" class="err"/>
<line x1="283.94" y1="128.95" x2="289.94" y2="128.95" class="err"/>
<line x1="283.94" y1="150.63" x2="289.94" y2="150.63" class="err"/>
<circle cx="286.94" cy="139.79" r="2.5" class="obs"/>
<line x1="330.13" y1="121.72" x2="330.13" y2="138.58" class="err"/>
<line x1="327.13" y1="121.72" x2="333.13" y2="121.72" class="err"/>
<line x1="327.13" y1="138.58" x2="333.13" y2="138.58" class="err"/>
<circle cx="330.13" cy="130.15" r="2.5" class="obs"/>
<line x1="373.32" y1="115.70" x2="373.32" y2="132.56" class="err"/>
<line x1="370.32" y1="115.70" x2="376.32" y2="115.70" class="err"/>
<line x1="370.32" y1="132.56" x2="376.32" y2="132.56" class="err"/>
<circle cx="373.32" cy="124.13" r="2.5" class="obs"/>
<line x1="416.51" y1="112.09" x2="416.51" y2="131.36" class="err"/>
<line x1="413.51" y1="112.09" x2="419.51" y2="112.09" class="err"/>
<line x1="413.51" y1="131.36" x2="419.51" y2="131.36" class="err"/>
<circle cx="416.51" cy="121.72" r="2.5" class="obs"/>
<line x1="459.70" y1="108.47" x2="459.70" y2="125.33" class="err"/>
<line x1="456.70" y1="108.47" x2="462.70" y2="108.47" class="err"/>
<line x1="456.70" y1="125.33" x2="462.70" y2="125.33" class="err"/>
<circle cx="459.70" cy="116.90" r="2.5" class="obs"/>
<line x1="502.89" y1="102.45" x2="502.89" y2="121.72" class="err"/>
<line x1="499.89" y1="102.45" x2="505.89" y2="102.45" class="err"/>
<line x1="499.89" y1="121.72" x2="505.89" y2="121.72" class="err"/>
<circle cx="502.89" cy="112.09" r="2.5" class="obs"/>
<line x1="546.58" y1="88.24" x2="546.58" y2="111.85" class="err"/>
<line x1="543.58" y1="88.24" x2="549.58" y2="88.24" class="err"/>
<line x1="543.58" y1="111.85" x2="549.58" y2="111.85" class="err"/>
<circle cx="546.58" cy="100.04" r="2.5" class="obs"/>
<line x1="589.77" y1="83.18" x2="589.77" y2="112.09" class="err"/>
<line x1="586.77" y1="83.18" x2="592.77" y2="83.18" class="err"/>
<line x1="586.77" y1="112.09" x2="592.77" y2="112.09" class="err"/>
<circle cx="589.77" cy="97.63" r="2.5" class="obs"/>
<g class="legend">
<line x1="82" y1="69" x2="106" y2="69" class="fw"/>
<text x="112" y="73" class="lbl-l">framework fit</text>
<line x1="82" y1="87" x2="106" y2="87" class="nt"/>
<text x="112" y="91" class="lbl-l">Newtonian (no halo)</text>
<circle cx="94" cy="105" r="2.5" class="obs"/>
<text x="112" y="109" class="lbl">observed V±err</text>
</g>
<g class="legend">
<line x1="442" y1="69" x2="466" y2="69" class="rho"/>
<text x="472" y="73" class="lbl-r">ρ(r) raw</text>
<line x1="442" y1="87" x2="466" y2="87" class="sig"/>
<text x="472" y="91" class="lbl-s">Σ(r) cumulative</text>
<text x="442" y="113" class="lbl-r">ρ peak: 297 M☉/pc²</text>
</g>
<rect x="705" y="55" width="170" height="170" class="preview-bg"/>
<defs><radialGradient id="g_UGC06917" cx="0.5" cy="0.5" r="0.5">
  <stop offset="0.0000" stop-color="rgb(117,117,117)"/>
  <stop offset="0.0313" stop-color="rgb(96,96,96)"/>
  <stop offset="0.0625" stop-color="rgb(86,86,86)"/>
  <stop offset="0.0938" stop-color="rgb(78,78,78)"/>
  <stop offset="0.1250" stop-color="rgb(77,77,77)"/>
  <stop offset="0.1563" stop-color="rgb(76,76,76)"/>
  <stop offset="0.1875" stop-color="rgb(75,75,75)"/>
  <stop offset="0.2188" stop-color="rgb(74,74,74)"/>
  <stop offset="0.2500" stop-color="rgb(73,73,73)"/>
  <stop offset="0.2813" stop-color="rgb(72,72,72)"/>
  <stop offset="0.3125" stop-color="rgb(71,71,71)"/>
  <stop offset="0.3438" stop-color="rgb(70,70,70)"/>
  <stop offset="0.3750" stop-color="rgb(69,69,69)"/>
  <stop offset="0.4063" stop-color="rgb(68,68,68)"/>
  <stop offset="0.4375" stop-color="rgb(67,67,67)"/>
  <stop offset="0.4688" stop-color="rgb(66,66,66)"/>
  <stop offset="0.5000" stop-color="rgb(65,65,65)"/>
  <stop offset="0.5313" stop-color="rgb(63,63,63)"/>
  <stop offset="0.5625" stop-color="rgb(61,61,61)"/>
  <stop offset="0.5938" stop-color="rgb(59,59,59)"/>
  <stop offset="0.6250" stop-color="rgb(57,57,57)"/>
  <stop offset="0.6563" stop-color="rgb(56,56,56)"/>
  <stop offset="0.6875" stop-color="rgb(54,54,54)"/>
  <stop offset="0.7188" stop-color="rgb(53,53,53)"/>
  <stop offset="0.7500" stop-color="rgb(51,51,51)"/>
  <stop offset="0.7813" stop-color="rgb(49,49,49)"/>
  <stop offset="0.8125" stop-color="rgb(48,48,48)"/>
  <stop offset="0.8438" stop-color="rgb(46,46,46)"/>
  <stop offset="0.8750" stop-color="rgb(44,44,44)"/>
  <stop offset="0.9063" stop-color="rgb(43,43,43)"/>
  <stop offset="0.9375" stop-color="rgb(41,41,41)"/>
  <stop offset="0.9688" stop-color="rgb(40,40,40)"/>
  <stop offset="1.0000" stop-color="rgb(0,0,0)"/>
</radialGradient></defs>
<circle cx="790" cy="140" r="81" fill="url(#g_UGC06917)"/>
<text x="790" y="49" text-anchor="middle" class="preview-lbl">face-on luminance from ρ(r)</text>
<text x="790" y="239" text-anchor="middle" class="preview-lbl">edge at r = 10.5 kpc</text>
</svg>