<svg xmlns="http://www.w3.org/2000/svg" viewBox="0 0 960 450" width="960" height="450" font-family="sans-serif" font-size="12">
<style>
  .ax { stroke: #333; stroke-width: 1; fill: none; }
  .grid { stroke: #ddd; stroke-width: 0.5; fill: none; }
  .lbl { fill: #333; }
  .lbl-l { fill: #0066cc; }
  .lbl-r { fill: #b03030; }
  .obs { fill: #222; }
  .err { stroke: #555; stroke-width: 0.8; fill: none; }
  .fw { stroke: #0066cc; stroke-width: 2.2; fill: none; }
  .nt { stroke: #cc6600; stroke-width: 1.6; fill: none; stroke-dasharray: 5,3; }
  .mond { stroke: #7b2cbf; stroke-width: 1.8; fill: none; stroke-dasharray: 7,3; }
  .lbl-p { fill: #cc7000; }
  .lbl-m { fill: #7b2cbf; }
  .rho { stroke: #b03030; stroke-width: 2.0; fill: none; }
  .phot { stroke: #cc7000; stroke-width: 1.8; fill: none; }
  .mbar { stroke: #8e44ad; stroke-width: 1.8; fill: none; opacity: 0.9; }
  .mph { stroke: #c77dff; stroke-width: 1.6; fill: none; stroke-dasharray: 4,3; opacity: 0.95; }
  .title { fill: #111; font-size: 16px; font-weight: 600; }
  .subtitle { fill: #555; font-size: 11px; }
  .preview-bg { fill: #000; }
  .preview-lbl { fill: #888; font-size: 10px; }
  .legend { font-size: 11px; }
</style>
<text x="378.5" y="22" text-anchor="middle" class="title">UGC05999</text>
<text x="378.5" y="38" text-anchor="middle" class="subtitle">rMax=16.2 kpc, N=5, FW=1.2 km/s, 1.2%, 0.23σ, MOND=12.0 km/s, 18.7%, 2.41σ, amp=104</text>
<line x1="70" y1="395.0" x2="687" y2="395.0" class="grid"/>
<text x="64" y="399.0" text-anchor="end" class="lbl-l">0</text>
<line x1="70" y1="327.0" x2="687" y2="327.0" class="grid"/>
<text x="64" y="331.0" text-anchor="end" class="lbl-l">26</text>
<line x1="70" y1="259.0" x2="687" y2="259.0" class="grid"/>
<text x="64" y="263.0" text-anchor="end" class="lbl-l">53</text>
<line x1="70" y1="191.0" x2="687" y2="191.0" class="grid"/>
<text x="64" y="195.0" text-anchor="end" class="lbl-l">79</text>
<line x1="70" y1="123.0" x2="687" y2="123.0" class="grid"/>
<text x="64" y="127.0" text-anchor="end" class="lbl-l">105</text>
<line x1="70" y1="55.0" x2="687" y2="55.0" class="grid"/>
<text x="64" y="59.0" text-anchor="end" class="lbl-l">132</text>
<text x="693" y="399.0" text-anchor="start" class="lbl-r">0.0</text>
<text x="693" y="353.7" text-anchor="start" class="lbl-r">0.2</text>
<text x="693" y="308.3" text-anchor="start" class="lbl-r">0.4</text>
<text x="693" y="263.0" text-anchor="start" class="lbl-r">0.6</text>
<text x="693" y="217.7" text-anchor="start" class="lbl-r">0.8</text>
<text x="693" y="172.3" text-anchor="start" class="lbl-r">1.0</text>
<line x1="70.0" y1="55" x2="70.0" y2="395" class="grid"/>
<text x="70.0" y="411" text-anchor="middle" class="lbl">0.0</text>
<line x1="172.8" y1="55" x2="172.8" y2="395" class="grid"/>
<text x="172.8" y="411" text-anchor="middle" class="lbl">2.8</text>
<line x1="275.7" y1="55" x2="275.7" y2="395" class="grid"/>
<text x="275.7" y="411" text-anchor="middle" class="lbl">5.6</text>
<line x1="378.5" y1="55" x2="378.5" y2="395" class="grid"/>
<text x="378.5" y="411" text-anchor="middle" class="lbl">8.4</text>
<line x1="481.3" y1="55" x2="481.3" y2="395" class="grid"/>
<text x="481.3" y="411" text-anchor="middle" class="lbl">11.2</text>
<line x1="584.2" y1="55" x2="584.2" y2="395" class="grid"/>
<text x="584.2" y="411" text-anchor="middle" class="lbl">14.0</text>
<line x1="687.0" y1="55" x2="687.0" y2="395" class="grid"/>
<text x="687.0" y="411" text-anchor="middle" class="lbl">16.9</text>
<text x="378.5" y="438" text-anchor="middle" class="lbl">radius (kpc)</text>
<text x="16" y="225" text-anchor="middle" class="lbl-l" transform="rotate(-90, 16, 225)">velocity (km/s)</text>
<text x="724" y="225" text-anchor="middle" class="lbl-r" transform="rotate(-90, 724, 225)">profiles (normalized to peak)</text>
<rect x="70" y="55" width="617" height="340" class="ax"/>
<path d="M 70.0,168.3 L 72.8,185.0 L 75.6,201.7 L 78.5,218.3 L 81.3,235.0 L 84.1,245.4 L 86.9,245.4 L 89.7,245.4 L 92.5,245.4 L 95.4,245.4 L 98.2,245.4 L 101.0,245.4 L 103.8,245.5 L 106.6,245.5 L 109.4,245.5 L 112.3,245.5 L 115.1,245.5 L 117.9,245.5 L 120.7,245.5 L 123.5,245.5 L 126.3,245.5 L 129.2,245.5 L 132.0,245.5 L 134.8,245.5 L 137.6,245.5 L 140.4,245.5 L 143.3,245.5 L 146.1,245.5 L 148.9,245.5 L 151.7,245.5 L 154.5,245.5 L 157.3,245.5 L 160.2,245.5 L 163.0,245.5 L 165.8,245.5 L 168.6,245.5 L 171.4,245.5 L 174.2,245.5 L 177.1,245.5 L 179.9,245.5 L 182.7,245.5 L 185.5,245.5 L 188.3,245.5 L 191.1,245.5 L 194.0,245.5 L 196.8,245.5 L 199.6,245.5 L 202.4,245.5 L 205.2,245.5 L 208.1,245.5 L 210.9,245.5 L 213.7,245.5 L 216.5,245.5 L 219.3,245.5 L 222.1,245.5 L 225.0,245.5 L 227.8,245.5 L 230.6,245.5 L 233.4,246.5 L 236.2,247.7 L 239.0,248.8 L 241.9,249.9 L 244.7,251.0 L 247.5,252.2 L 250.3,253.3 L 253.1,254.4 L 255.9,255.5 L 258.8,256.7 L 261.6,257.8 L 264.4,258.9 L 267.2,260.0 L 270.0,261.2 L 272.8,262.3 L 275.7,263.4 L 278.5,264.5 L 281.3,265.7 L 284.1,266.8 L 286.9,267.9 L 289.8,269.0 L 292.6,270.1 L 295.4,271.2 L 298.2,271.7 L 301.0,272.1 L 303.8,272.6 L 306.7,273.0 L 309.5,273.5 L 312.3,273.9 L 315.1,274.4 L 317.9,274.9 L 320.7,275.3 L 323.6,275.8 L 326.4,276.2 L 329.2,276.7 L 332.0,277.1 L 334.8,277.6 L 337.6,278.0 L 340.5,278.5 L 343.3,278.9 L 346.1,279.4 L 348.9,279.9 L 351.7,280.3 L 354.6,280.8 L 357.4,281.2 L 360.2,281.7 L 363.0,282.1 L 365.8,282.6 L 368.6,283.0 L 371.5,283.5 L 374.3,283.9 L 377.1,284.4 L 379.9,284.9 L 382.7,285.3 L 385.5,285.8 L 388.4,286.2 L 391.2,286.7 L 394.0,287.1 L 396.8,287.6 L 399.6,288.0 L 402.4,288.5 L 405.3,288.9 L 408.1,289.4 L 410.9,289.9 L 413.7,290.3 L 416.5,290.8 L 419.4,291.2 L 422.2,291.7 L 425.0,292.1 L 427.8,292.6 L 430.6,293.0 L 433.4,293.5 L 436.3,293.9 L 439.1,294.4 L 441.9,294.9 L 444.7,295.3 L 447.5,295.8 L 450.3,296.2 L 453.2,296.7 L 456.0,297.1 L 458.8,297.6 L 461.6,298.0 L 464.4,298.5 L 467.2,299.0 L 470.1,299.4 L 472.9,299.9 L 475.7,300.3 L 478.5,300.8 L 481.3,301.2 L 484.2,301.7 L 487.0,302.1 L 489.8,302.6 L 492.6,303.0 L 495.4,303.5 L 498.2,304.0 L 501.1,304.4 L 503.9,304.9 L 506.7,305.3 L 509.5,305.8 L 512.3,306.2 L 515.1,306.7 L 518.0,307.1 L 520.8,307.6 L 523.6,308.0 L 526.4,308.5 L 529.2,309.0 L 532.0,309.4 L 534.9,309.9 L 537.7,310.3 L 540.5,310.8 L 543.3,311.2 L 546.1,311.7 L 548.9,312.1 L 551.8,312.6 L 554.6,313.0 L 557.4,313.5 L 560.2,314.0 L 563.0,314.4 L 565.9,314.9 L 568.7,315.3 L 571.5,315.8 L 574.3,316.2 L 577.1,316.7 L 579.9,317.1 L 582.8,317.6 L 585.6,318.0 L 588.4,318.5 L 591.2,319.0 L 594.0,319.4 L 596.8,319.9 L 599.7,320.3 L 602.5,320.8 L 605.3,321.2 L 608.1,321.7 L 610.9,322.1 L 613.7,322.6 L 616.6,323.1 L 619.4,323.5 L 622.2,324.0 L 625.0,324.4 L 627.8,324.9 L 630.7,325.3 L 633.5,325.8 L 636.3,326.2 L 639.1,326.7 L 641.9,327.1 L 644.7,327.6 L 647.6,328.1 L 650.4,333.9 L 653.2,357.7 L 656.0,381.4 L 658.8,395.0 L 661.6,395.0 L 664.5,395.0 L 667.3,395.0 L 670.1,395.0 L 672.9,395.0 L 675.7,395.0 L 678.5,395.0 L 681.4,395.0 L 684.2,395.0 L 687.0,395.0" class="rho"/>
<path d="M 197.4,168.3 L 324.1,323.4 L 451.5,367.7 L 578.6,387.4 L 663.9,395.0" class="phot"/>
<path d="M 197.4,168.3 L 324.1,218.0 L 451.5,262.7 L 578.6,254.0 L 663.9,188.1" class="mbar"/>
<path d="M 197.4,168.3 L 324.1,191.4 L 451.5,215.0 L 578.6,210.7 L 663.9,172.7" class="mph"/>
<path d="M 76.2,357.1 L 82.3,344.7 L 88.5,336.2 L 94.7,328.3 L 100.8,321.1 L 107.0,314.4 L 113.2,308.1 L 119.4,302.3 L 125.5,296.8 L 131.7,291.6 L 137.9,286.6 L 144.0,281.9 L 150.2,277.3 L 156.4,272.9 L 162.6,268.6 L 168.7,264.5 L 174.9,260.5 L 181.1,256.6 L 187.2,252.9 L 193.4,249.2 L 199.6,245.6 L 205.7,242.1 L 211.9,238.7 L 218.1,235.3 L 224.3,232.1 L 230.4,228.8 L 236.6,225.7 L 242.8,222.8 L 248.9,219.9 L 255.1,217.3 L 261.3,214.7 L 267.4,212.3 L 273.6,209.9 L 279.8,207.7 L 285.9,205.6 L 292.1,203.6 L 298.3,201.6 L 304.5,199.7 L 310.6,197.9 L 316.8,196.1 L 323.0,194.3 L 329.1,192.5 L 335.3,190.8 L 341.5,189.1 L 347.6,187.5 L 353.8,185.8 L 360.0,184.3 L 366.2,182.7 L 372.3,181.2 L 378.5,179.7 L 384.7,178.2 L 390.8,176.8 L 397.0,175.3 L 403.2,174.0 L 409.4,172.6 L 415.5,171.3 L 421.7,170.0 L 427.9,168.7 L 434.0,167.5 L 440.2,166.2 L 446.4,165.0 L 452.5,163.9 L 458.7,162.7 L 464.9,161.6 L 471.1,160.5 L 477.2,159.4 L 483.4,158.4 L 489.6,157.4 L 495.7,156.4 L 501.9,155.4 L 508.1,154.4 L 514.2,153.5 L 520.4,152.6 L 526.6,151.7 L 532.8,150.8 L 538.9,150.0 L 545.1,149.2 L 551.3,148.4 L 557.4,147.6 L 563.6,146.8 L 569.8,146.1 L 575.9,145.4 L 582.1,144.7 L 588.3,144.0 L 594.4,143.3 L 600.6,142.7 L 606.8,142.1 L 613.0,141.5 L 619.1,140.9 L 625.3,140.3 L 631.5,139.8 L 637.6,139.3 L 643.8,138.8 L 650.0,138.3 L 656.1,138.5 L 662.3,139.8 L 668.5,141.2 L 674.7,142.6 L 680.8,143.9 L 687.0,145.0" class="nt"/>
<path d="M 197.4,232.9 L 324.1,185.5 L 451.5,147.5 L 578.6,125.8 L 663.9,85.9" class="mond"/>
<path d="M 75.1,386.8 L 80.3,381.2 L 85.4,375.6 L 90.6,370.7 L 95.7,366.4 L 100.8,362.5 L 106.0,358.8 L 111.1,355.1 L 116.3,351.3 L 121.4,347.4 L 126.6,343.3 L 131.7,339.2 L 136.8,334.9 L 142.0,330.5 L 147.1,326.0 L 152.3,321.4 L 157.4,316.7 L 162.6,311.9 L 167.7,307.0 L 172.8,302.0 L 178.0,296.9 L 183.1,291.6 L 188.3,286.2 L 193.4,280.7 L 198.5,275.1 L 203.7,269.2 L 208.8,263.3 L 214.0,257.1 L 219.1,250.9 L 224.3,244.7 L 229.4,238.5 L 234.5,232.5 L 239.7,226.8 L 244.8,221.4 L 250.0,216.5 L 255.1,212.0 L 260.2,208.0 L 265.4,204.4 L 270.5,201.3 L 275.7,198.7 L 280.8,196.4 L 286.0,194.5 L 291.1,192.8 L 296.2,191.5 L 301.4,190.3 L 306.5,189.3 L 311.7,188.2 L 316.8,187.2 L 321.9,186.2 L 327.1,185.2 L 332.2,184.1 L 337.4,183.0 L 342.5,181.9 L 347.7,180.8 L 352.8,179.7 L 357.9,178.6 L 363.1,177.5 L 368.2,176.4 L 373.4,175.3 L 378.5,174.2 L 383.6,173.1 L 388.8,172.1 L 393.9,171.0 L 399.1,170.0 L 404.2,169.0 L 409.4,168.1 L 414.5,167.1 L 419.6,166.2 L 424.8,165.3 L 429.9,164.4 L 435.1,163.5 L 440.2,162.7 L 445.3,161.8 L 450.5,161.0 L 455.6,160.2 L 460.8,159.5 L 465.9,158.7 L 471.1,158.0 L 476.2,157.3 L 481.3,156.6 L 486.5,155.9 L 491.6,155.3 L 496.8,154.6 L 501.9,154.0 L 507.0,153.4 L 512.2,152.7 L 517.3,152.1 L 522.5,151.5 L 527.6,150.9 L 532.8,150.2 L 537.9,149.6 L 543.0,148.9 L 548.2,148.2 L 553.3,147.5 L 558.5,146.7 L 563.6,145.9 L 568.7,145.0 L 573.9,144.1 L 579.0,143.0 L 584.2,141.9 L 589.3,140.6 L 594.4,139.2 L 599.6,137.7 L 604.7,135.9 L 609.9,134.0 L 615.0,131.9 L 620.2,129.6 L 625.3,127.1 L 630.4,124.8 L 635.6,122.7 L 640.7,121.2 L 645.9,120.7 L 651.0,121.6 L 656.1,123.9 L 661.3,127.7 L 666.4,132.7 L 671.6,138.4 L 676.7,144.6 L 681.9,150.9 L 687.0,157.0" class="fw"/>
<line x1="197.43" y1="262.75" x2="197.43" y2="288.58" class="err"/>
<line x1="194.43" y1="262.75" x2="200.43" y2="262.75" class="err"/>
<line x1="194.43" y1="288.58" x2="200.43" y2="288.58" class="err"/>
<circle cx="197.43" cy="275.67" r="2.5" class="obs"/>
<line x1="324.12" y1="172.61" x2="324.12" y2="198.44" class="err"/>
<line x1="321.12" y1="172.61" x2="327.12" y2="172.61" class="err"/>
<line x1="321.12" y1="198.44" x2="327.12" y2="198.44" class="err"/>
<circle cx="324.12" cy="185.52" r="2.5" class="obs"/>
<line x1="451.54" y1="146.52" x2="451.54" y2="172.35" class="err"/>
<line x1="448.54" y1="146.52" x2="454.54" y2="146.52" class="err"/>
<line x1="448.54" y1="172.35" x2="454.54" y2="172.35" class="err"/>
<circle cx="451.54" cy="159.43" r="2.5" class="obs"/>
<line x1="578.60" y1="129.73" x2="578.60" y2="155.56" class="err"/>
<line x1="575.60" y1="129.73" x2="581.60" y2="129.73" class="err"/>
<line x1="575.60" y1="155.56" x2="581.60" y2="155.56" class="err"/>
<circle cx="578.60" cy="142.64" r="2.5" class="obs"/>
<line x1="663.92" y1="123.79" x2="663.92" y2="149.62" class="err"/>
<line x1="660.92" y1="123.79" x2="666.92" y2="123.79" class="err"/>
<line x1="660.92" y1="149.62" x2="666.92" y2="149.62" class="err"/>
<circle cx="663.92" cy="136.70" r="2.5" class="obs"/>
<g class="legend">
<line x1="82" y1="69" x2="106" y2="69" class="fw"/>
<text x="112" y="73" class="lbl-l">framework: 1.2 km/s, 1.2%, 0.23σ</text>
<line x1="82" y1="87" x2="106" y2="87" class="nt"/>
<text x="112" y="91" class="lbl-l">Newtonian: 5.3 km/s, 11.0%, 1.06σ</text>
<line x1="82" y1="105" x2="106" y2="105" class="mond"/>
<text x="112" y="109" class="lbl-m">MOND/RAR: 12.0 km/s, 18.7%, 2.41σ</text>
<circle cx="94" cy="123" r="2.5" class="obs"/>
<text x="112" y="127" class="lbl">observed V±err</text>
</g>
<g class="legend">
<line x1="472" y1="69" x2="496" y2="69" class="rho"/>
<text x="502" y="73" class="lbl-r">ρ(r) raw</text>
<line x1="472" y1="87" x2="496" y2="87" class="phot"/>
<text x="502" y="91" class="lbl-p">photometric baryonic profile</text>
<line x1="472" y1="105" x2="496" y2="105" class="mbar"/>
<text x="502" y="109" class="lbl-m">MOND baryonic annulus</text>
<line x1="472" y1="123" x2="496" y2="123" class="mph"/>
<text x="502" y="127" class="lbl-m">MOND phantom annulus</text>
<text x="472" y="147" class="lbl-r">ρ peak: 106 M☉/pc²</text>
<text x="472" y="163" class="lbl-p">phot peak: 9.27 (arb.)</text>
<text x="472" y="179" class="lbl-m">Σbar peak: 17.92 M☉/pc²</text>
<text x="472" y="195" class="lbl-m">Σphantom peak: 61.31 M☉/pc²</text>
</g>
<rect x="775" y="55" width="170" height="170" class="preview-bg"/>
<defs><radialGradient id="g_UGC05999" cx="0.5" cy="0.5" r="0.5">
  <stop offset="0.0000" stop-color="rgb(195,49,49)"/>
  <stop offset="0.0313" stop-color="rgb(146,37,37)"/>
  <stop offset="0.0625" stop-color="rgb(146,37,37)"/>
  <stop offset="0.0938" stop-color="rgb(146,37,37)"/>
  <stop offset="0.1250" stop-color="rgb(145,36,36)"/>
  <stop offset="0.1563" stop-color="rgb(145,36,36)"/>
  <stop offset="0.1875" stop-color="rgb(145,36,36)"/>
  <stop offset="0.2188" stop-color="rgb(145,36,36)"/>
  <stop offset="0.2500" stop-color="rgb(145,36,36)"/>
  <stop offset="0.2813" stop-color="rgb(144,36,36)"/>
  <stop offset="0.3125" stop-color="rgb(140,35,35)"/>
  <stop offset="0.3438" stop-color="rgb(135,34,34)"/>
  <stop offset="0.3750" stop-color="rgb(130,33,33)"/>
  <stop offset="0.4063" stop-color="rgb(128,32,32)"/>
  <stop offset="0.4375" stop-color="rgb(126,32,32)"/>
  <stop offset="0.4688" stop-color="rgb(124,31,31)"/>
  <stop offset="0.5000" stop-color="rgb(122,31,31)"/>
  <stop offset="0.5313" stop-color="rgb(120,30,30)"/>
  <stop offset="0.5625" stop-color="rgb(118,30,30)"/>
  <stop offset="0.5938" stop-color="rgb(116,29,29)"/>
  <stop offset="0.6250" stop-color="rgb(114,29,29)"/>
  <stop offset="0.6563" stop-color="rgb(113,28,28)"/>
  <stop offset="0.6875" stop-color="rgb(111,28,28)"/>
  <stop offset="0.7188" stop-color="rgb(109,27,27)"/>
  <stop offset="0.7500" stop-color="rgb(107,27,27)"/>
  <stop offset="0.7813" stop-color="rgb(105,26,26)"/>
  <stop offset="0.8125" stop-color="rgb(103,26,26)"/>
  <stop offset="0.8438" stop-color="rgb(101,25,25)"/>
  <stop offset="0.8750" stop-color="rgb(99,25,25)"/>
  <stop offset="0.9063" stop-color="rgb(97,24,24)"/>
  <stop offset="0.9375" stop-color="rgb(96,24,24)"/>
  <stop offset="0.9688" stop-color="rgb(94,24,24)"/>
  <stop offset="1.0000" stop-color="rgb(0,0,0)"/>
</radialGradient></defs>
<circle cx="860" cy="140" r="81" fill="url(#g_UGC05999)"/>
<text x="860" y="49" text-anchor="middle" class="preview-lbl">face-on luminance from ρ(r)</text>
<text x="860" y="239" text-anchor="middle" class="preview-lbl">edge at r = 16.0 kpc</text>
</svg>