<svg xmlns="http://www.w3.org/2000/svg" viewBox="0 0 960 450" width="960" height="450" font-family="sans-serif" font-size="12">
<style>
  .ax { stroke: #333; stroke-width: 1; fill: none; }
  .grid { stroke: #ddd; stroke-width: 0.5; fill: none; }
  .lbl { fill: #333; }
  .lbl-l { fill: #0066cc; }
  .lbl-r { fill: #b03030; }
  .obs { fill: #222; }
  .err { stroke: #555; stroke-width: 0.8; fill: none; }
  .fw { stroke: #0066cc; stroke-width: 2.2; fill: none; }
  .nt { stroke: #cc6600; stroke-width: 1.6; fill: none; stroke-dasharray: 5,3; }
  .mond { stroke: #7b2cbf; stroke-width: 1.8; fill: none; stroke-dasharray: 7,3; }
  .lbl-p { fill: #cc7000; }
  .lbl-m { fill: #7b2cbf; }
  .rho { stroke: #b03030; stroke-width: 2.0; fill: none; }
  .phot { stroke: #cc7000; stroke-width: 1.8; fill: none; }
  .mbar { stroke: #8e44ad; stroke-width: 1.8; fill: none; opacity: 0.9; }
  .mph { stroke: #c77dff; stroke-width: 1.6; fill: none; stroke-dasharray: 4,3; opacity: 0.95; }
  .title { fill: #111; font-size: 16px; font-weight: 600; }
  .subtitle { fill: #555; font-size: 11px; }
  .preview-bg { fill: #000; }
  .preview-lbl { fill: #888; font-size: 10px; }
  .legend { font-size: 11px; }
</style>
<text x="378.5" y="22" text-anchor="middle" class="title">UGC04278</text>
<text x="378.5" y="38" text-anchor="middle" class="subtitle">rMax=6.7 kpc, N=25, FW=1.7 km/s, 3.7%, 0.36σ, MOND=7.6 km/s, 17.0%, 1.79σ, amp=104</text>
<line x1="70" y1="395.0" x2="687" y2="395.0" class="grid"/>
<text x="64" y="399.0" text-anchor="end" class="lbl-l">0</text>
<line x1="70" y1="327.0" x2="687" y2="327.0" class="grid"/>
<text x="64" y="331.0" text-anchor="end" class="lbl-l">23</text>
<line x1="70" y1="259.0" x2="687" y2="259.0" class="grid"/>
<text x="64" y="263.0" text-anchor="end" class="lbl-l">45</text>
<line x1="70" y1="191.0" x2="687" y2="191.0" class="grid"/>
<text x="64" y="195.0" text-anchor="end" class="lbl-l">68</text>
<line x1="70" y1="123.0" x2="687" y2="123.0" class="grid"/>
<text x="64" y="127.0" text-anchor="end" class="lbl-l">91</text>
<line x1="70" y1="55.0" x2="687" y2="55.0" class="grid"/>
<text x="64" y="59.0" text-anchor="end" class="lbl-l">113</text>
<text x="693" y="399.0" text-anchor="start" class="lbl-r">0.0</text>
<text x="693" y="353.7" text-anchor="start" class="lbl-r">0.2</text>
<text x="693" y="308.3" text-anchor="start" class="lbl-r">0.4</text>
<text x="693" y="263.0" text-anchor="start" class="lbl-r">0.6</text>
<text x="693" y="217.7" text-anchor="start" class="lbl-r">0.8</text>
<text x="693" y="172.3" text-anchor="start" class="lbl-r">1.0</text>
<line x1="70.0" y1="55" x2="70.0" y2="395" class="grid"/>
<text x="70.0" y="411" text-anchor="middle" class="lbl">0.0</text>
<line x1="172.8" y1="55" x2="172.8" y2="395" class="grid"/>
<text x="172.8" y="411" text-anchor="middle" class="lbl">1.2</text>
<line x1="275.7" y1="55" x2="275.7" y2="395" class="grid"/>
<text x="275.7" y="411" text-anchor="middle" class="lbl">2.3</text>
<line x1="378.5" y1="55" x2="378.5" y2="395" class="grid"/>
<text x="378.5" y="411" text-anchor="middle" class="lbl">3.5</text>
<line x1="481.3" y1="55" x2="481.3" y2="395" class="grid"/>
<text x="481.3" y="411" text-anchor="middle" class="lbl">4.7</text>
<line x1="584.2" y1="55" x2="584.2" y2="395" class="grid"/>
<text x="584.2" y="411" text-anchor="middle" class="lbl">5.9</text>
<line x1="687.0" y1="55" x2="687.0" y2="395" class="grid"/>
<text x="687.0" y="411" text-anchor="middle" class="lbl">7.0</text>
<text x="378.5" y="438" text-anchor="middle" class="lbl">radius (kpc)</text>
<text x="16" y="225" text-anchor="middle" class="lbl-l" transform="rotate(-90, 16, 225)">velocity (km/s)</text>
<text x="724" y="225" text-anchor="middle" class="lbl-r" transform="rotate(-90, 724, 225)">profiles (normalized to peak)</text>
<rect x="70" y="55" width="617" height="340" class="ax"/>
<path d="M 70.0,168.3 L 72.8,174.6 L 75.6,180.8 L 78.5,187.0 L 81.3,193.2 L 84.1,197.3 L 86.9,198.1 L 89.7,199.0 L 92.5,199.9 L 95.4,200.7 L 98.2,201.6 L 101.0,202.5 L 103.8,203.3 L 106.6,204.2 L 109.4,205.1 L 112.3,205.9 L 115.1,206.8 L 117.9,207.7 L 120.7,208.5 L 123.5,209.4 L 126.3,210.3 L 129.2,211.1 L 132.0,212.0 L 134.8,212.9 L 137.6,213.7 L 140.4,214.6 L 143.3,215.5 L 146.1,216.3 L 148.9,217.2 L 151.7,218.1 L 154.5,218.9 L 157.3,219.8 L 160.2,220.7 L 163.0,221.5 L 165.8,222.4 L 168.6,223.3 L 171.4,224.1 L 174.2,225.0 L 177.1,225.9 L 179.9,226.7 L 182.7,227.6 L 185.5,228.5 L 188.3,229.3 L 191.1,230.2 L 194.0,231.1 L 196.8,231.9 L 199.6,232.8 L 202.4,233.7 L 205.2,234.5 L 208.1,235.4 L 210.9,236.3 L 213.7,237.1 L 216.5,238.0 L 219.3,238.9 L 222.1,239.7 L 225.0,240.6 L 227.8,241.5 L 230.6,241.7 L 233.4,241.9 L 236.2,242.1 L 239.0,242.3 L 241.9,242.5 L 244.7,242.7 L 247.5,242.9 L 250.3,243.1 L 253.1,243.3 L 255.9,243.5 L 258.8,243.7 L 261.6,243.9 L 264.4,244.0 L 267.2,244.2 L 270.0,244.4 L 272.8,244.6 L 275.7,244.8 L 278.5,245.0 L 281.3,245.2 L 284.1,245.4 L 286.9,245.6 L 289.8,245.8 L 292.6,246.0 L 295.4,246.2 L 298.2,246.4 L 301.0,246.6 L 303.8,246.8 L 306.7,247.0 L 309.5,247.1 L 312.3,247.3 L 315.1,247.5 L 317.9,247.7 L 320.7,247.9 L 323.6,248.1 L 326.4,248.3 L 329.2,248.5 L 332.0,248.7 L 334.8,248.9 L 337.6,249.1 L 340.5,249.3 L 343.3,249.5 L 346.1,249.7 L 348.9,249.9 L 351.7,250.1 L 354.6,250.2 L 357.4,250.4 L 360.2,250.6 L 363.0,250.8 L 365.8,251.0 L 368.6,251.2 L 371.5,251.4 L 374.3,251.6 L 377.1,251.8 L 379.9,252.0 L 382.7,252.2 L 385.5,252.4 L 388.4,252.6 L 391.2,252.8 L 394.0,253.0 L 396.8,253.2 L 399.6,253.3 L 402.4,253.5 L 405.3,253.7 L 408.1,253.9 L 410.9,254.1 L 413.7,254.3 L 416.5,254.5 L 419.4,254.7 L 422.2,254.9 L 425.0,255.1 L 427.8,255.3 L 430.6,255.5 L 433.4,255.7 L 436.3,255.9 L 439.1,256.1 L 441.9,256.2 L 444.7,256.4 L 447.5,256.6 L 450.3,256.8 L 453.2,257.0 L 456.0,257.2 L 458.8,257.4 L 461.6,257.6 L 464.4,257.8 L 467.2,258.4 L 470.1,259.1 L 472.9,259.8 L 475.7,260.4 L 478.5,261.1 L 481.3,261.8 L 484.2,262.5 L 487.0,263.1 L 489.8,263.8 L 492.6,264.5 L 495.4,265.2 L 498.2,265.9 L 501.1,266.5 L 503.9,267.2 L 506.7,267.9 L 509.5,268.6 L 512.3,269.2 L 515.1,269.9 L 518.0,270.6 L 520.8,271.3 L 523.6,272.0 L 526.4,272.6 L 529.2,273.3 L 532.0,274.0 L 534.9,274.7 L 537.7,275.3 L 540.5,276.0 L 543.3,276.7 L 546.1,277.4 L 548.9,278.1 L 551.8,278.7 L 554.6,279.4 L 557.4,280.1 L 560.2,280.8 L 563.0,281.4 L 565.9,282.1 L 568.7,282.8 L 571.5,283.5 L 574.3,284.2 L 577.1,284.8 L 579.9,285.5 L 582.8,286.2 L 585.6,286.9 L 588.4,287.5 L 591.2,288.2 L 594.0,288.9 L 596.8,289.6 L 599.7,290.3 L 602.5,290.9 L 605.3,291.6 L 608.1,292.3 L 610.9,293.0 L 613.7,293.7 L 616.6,294.3 L 619.4,295.0 L 622.2,295.7 L 625.0,296.4 L 627.8,297.0 L 630.7,297.7 L 633.5,298.4 L 636.3,299.1 L 639.1,299.8 L 641.9,300.4 L 644.7,301.1 L 647.6,301.8 L 650.4,302.5 L 653.2,303.1 L 656.0,333.2 L 658.8,377.2 L 661.6,395.0 L 664.5,395.0 L 667.3,395.0 L 670.1,395.0 L 672.9,395.0 L 675.7,395.0 L 678.5,395.0 L 681.4,395.0 L 684.2,395.0 L 687.0,395.0" class="rho"/>
<path d="M 82.3,168.3 L 106.9,203.9 L 130.6,213.8 L 155.2,244.9 L 179.8,278.6 L 203.5,319.4 L 228.1,334.1 L 251.8,344.4 L 276.4,350.1 L 301.0,354.1 L 325.6,357.4 L 350.2,361.2 L 373.9,365.1 L 398.5,369.2 L 422.2,372.6 L 446.8,374.3 L 471.4,376.1 L 496.0,378.3 L 520.6,381.5 L 544.3,383.6 L 568.9,384.8 L 584.7,386.2 L 628.6,390.8 L 641.8,391.7 L 657.6,392.7" class="phot"/>
<path d="M 82.3,366.4 L 106.9,337.8 L 130.6,299.9 L 155.2,276.2 L 179.8,287.5 L 203.5,332.0 L 228.1,365.4 L 251.8,361.3 L 276.4,347.8 L 301.0,345.4 L 325.6,351.4 L 350.2,361.1 L 373.9,369.4 L 398.5,374.7 L 422.2,378.5 L 446.8,373.1 L 471.4,350.2 L 496.0,325.4 L 520.6,298.3 L 544.3,250.3 L 568.9,208.2 L 584.7,185.1 L 628.6,168.3 L 641.8,220.8 L 657.6,332.6" class="mbar"/>
<path d="M 82.3,315.1 L 106.9,285.6 L 130.6,254.3 L 155.2,239.4 L 179.8,247.2 L 203.5,276.1 L 228.1,300.2 L 251.8,299.7 L 276.4,290.8 L 301.0,289.2 L 325.6,294.8 L 350.2,303.9 L 373.9,312.6 L 398.5,319.0 L 422.2,324.1 L 446.8,319.0 L 471.4,294.1 L 496.0,267.7 L 520.6,242.9 L 544.3,204.1 L 568.9,176.1 L 584.7,169.4 L 628.6,168.3 L 641.8,205.7 L 657.6,273.8" class="mph"/>
<path d="M 76.2,363.9 L 82.3,351.9 L 88.5,343.0 L 94.7,335.4 L 100.8,328.7 L 107.0,322.7 L 113.2,317.2 L 119.4,312.2 L 125.5,307.5 L 131.7,303.1 L 137.9,298.9 L 144.0,295.0 L 150.2,291.3 L 156.4,287.7 L 162.6,284.4 L 168.7,281.1 L 174.9,278.0 L 181.1,275.1 L 187.2,272.2 L 193.4,269.5 L 199.6,266.9 L 205.7,264.3 L 211.9,261.9 L 218.1,259.5 L 224.3,257.2 L 230.4,255.0 L 236.6,252.8 L 242.8,250.7 L 248.9,248.6 L 255.1,246.5 L 261.3,244.4 L 267.4,242.4 L 273.6,240.4 L 279.8,238.4 L 285.9,236.5 L 292.1,234.6 L 298.3,232.7 L 304.5,230.8 L 310.6,229.0 L 316.8,227.1 L 323.0,225.3 L 329.1,223.6 L 335.3,221.8 L 341.5,220.1 L 347.7,218.4 L 353.8,216.7 L 360.0,215.0 L 366.2,213.4 L 372.3,211.7 L 378.5,210.1 L 384.7,208.5 L 390.8,207.0 L 397.0,205.4 L 403.2,203.9 L 409.3,202.4 L 415.5,200.9 L 421.7,199.4 L 427.9,197.9 L 434.0,196.5 L 440.2,195.0 L 446.4,193.6 L 452.5,192.2 L 458.7,190.8 L 464.9,189.4 L 471.0,188.1 L 477.2,186.8 L 483.4,185.5 L 489.6,184.3 L 495.7,183.1 L 501.9,181.9 L 508.1,180.7 L 514.2,179.6 L 520.4,178.6 L 526.6,177.5 L 532.8,176.5 L 538.9,175.5 L 545.1,174.5 L 551.3,173.6 L 557.4,172.7 L 563.6,171.8 L 569.8,170.9 L 575.9,170.1 L 582.1,169.3 L 588.3,168.5 L 594.5,167.8 L 600.6,167.1 L 606.8,166.3 L 613.0,165.7 L 619.1,165.0 L 625.3,164.4 L 631.5,163.8 L 637.6,163.2 L 643.8,162.6 L 650.0,162.1 L 656.2,161.5 L 662.3,162.6 L 668.5,163.8 L 674.7,164.9 L 680.8,166.0 L 687.0,167.2" class="nt"/>
<path d="M 82.3,369.9 L 106.9,338.9 L 130.6,313.2 L 155.2,291.0 L 179.8,274.7 L 203.5,268.4 L 228.1,268.0 L 251.8,263.5 L 276.4,256.5 L 301.0,249.7 L 325.6,243.8 L 350.2,239.8 L 373.9,236.9 L 398.5,234.6 L 422.2,232.6 L 446.8,231.1 L 471.4,224.6 L 496.0,214.2 L 520.6,204.3 L 544.3,188.5 L 568.9,169.9 L 584.7,159.5 L 628.6,129.6 L 641.8,122.5 L 657.6,122.7" class="mond"/>
<path d="M 75.1,386.4 L 80.3,380.0 L 85.4,373.1 L 90.6,366.4 L 95.7,360.1 L 100.8,354.1 L 106.0,348.3 L 111.1,342.8 L 116.3,337.4 L 121.4,332.3 L 126.6,327.4 L 131.7,322.6 L 136.8,318.1 L 142.0,313.7 L 147.1,309.5 L 152.3,305.6 L 157.4,301.8 L 162.6,298.2 L 167.7,294.9 L 172.8,291.7 L 178.0,288.7 L 183.1,286.0 L 188.3,283.5 L 193.4,281.2 L 198.5,279.1 L 203.7,277.3 L 208.8,275.7 L 214.0,274.4 L 219.1,273.3 L 224.3,272.4 L 229.4,271.6 L 234.5,271.0 L 239.7,270.3 L 244.8,269.7 L 250.0,269.0 L 255.1,268.2 L 260.2,267.3 L 265.4,266.3 L 270.5,265.3 L 275.7,264.2 L 280.8,263.0 L 286.0,261.7 L 291.1,260.4 L 296.2,259.0 L 301.4,257.6 L 306.5,256.1 L 311.7,254.6 L 316.8,253.1 L 321.9,251.4 L 327.1,249.8 L 332.2,248.1 L 337.4,246.4 L 342.5,244.6 L 347.7,242.7 L 352.8,240.9 L 357.9,239.0 L 363.1,237.0 L 368.2,235.0 L 373.4,233.0 L 378.5,230.9 L 383.6,228.7 L 388.8,226.5 L 393.9,224.2 L 399.1,221.9 L 404.2,219.5 L 409.3,217.0 L 414.5,214.4 L 419.6,211.8 L 424.8,209.0 L 429.9,206.2 L 435.1,203.2 L 440.2,200.2 L 445.3,197.0 L 450.5,193.7 L 455.6,190.3 L 460.8,186.9 L 465.9,183.5 L 471.1,180.2 L 476.2,176.9 L 481.3,173.8 L 486.5,170.9 L 491.6,168.1 L 496.8,165.5 L 501.9,163.0 L 507.0,160.7 L 512.2,158.5 L 517.3,156.4 L 522.5,154.4 L 527.6,152.5 L 532.8,150.7 L 537.9,149.0 L 543.0,147.3 L 548.2,145.6 L 553.3,144.0 L 558.5,142.3 L 563.6,140.7 L 568.7,139.1 L 573.9,137.5 L 579.0,135.8 L 584.2,134.0 L 589.3,132.2 L 594.4,130.2 L 599.6,128.1 L 604.7,125.9 L 609.9,123.4 L 615.0,120.8 L 620.2,118.0 L 625.3,115.0 L 630.4,111.9 L 635.6,109.0 L 640.7,106.5 L 645.9,104.9 L 651.0,104.7 L 656.2,106.0 L 661.3,109.2 L 666.4,114.0 L 671.6,120.1 L 676.7,126.9 L 681.9,134.1 L 687.0,141.2" class="fw"/>
<line x1="82.30" y1="363.40" x2="82.30" y2="395.00" class="err"/>
<line x1="79.30" y1="363.40" x2="85.30" y2="363.40" class="err"/>
<line x1="79.30" y1="395.00" x2="85.30" y2="395.00" class="err"/>
<circle cx="82.30" cy="379.32" r="2.5" class="obs"/>
<line x1="106.89" y1="325.51" x2="106.89" y2="372.16" class="err"/>
<line x1="103.89" y1="325.51" x2="109.89" y2="325.51" class="err"/>
<line x1="103.89" y1="372.16" x2="109.89" y2="372.16" class="err"/>
<circle cx="106.89" cy="348.83" r="2.5" class="obs"/>
<line x1="130.61" y1="309.86" x2="130.61" y2="333.84" class="err"/>
<line x1="127.61" y1="309.86" x2="133.61" y2="309.86" class="err"/>
<line x1="127.61" y1="333.84" x2="133.61" y2="333.84" class="err"/>
<circle cx="130.61" cy="321.85" r="2.5" class="obs"/>
<line x1="155.20" y1="286.77" x2="155.20" y2="310.76" class="err"/>
<line x1="152.20" y1="286.77" x2="158.20" y2="286.77" class="err"/>
<line x1="152.20" y1="310.76" x2="158.20" y2="310.76" class="err"/>
<circle cx="155.20" cy="298.77" r="2.5" class="obs"/>
<line x1="179.79" y1="279.28" x2="179.79" y2="303.26" class="err"/>
<line x1="176.79" y1="279.28" x2="182.79" y2="279.28" class="err"/>
<line x1="176.79" y1="303.26" x2="182.79" y2="303.26" class="err"/>
<circle cx="179.79" cy="291.27" r="2.5" class="obs"/>
<line x1="203.51" y1="269.38" x2="203.51" y2="293.37" class="err"/>
<line x1="200.51" y1="269.38" x2="206.51" y2="269.38" class="err"/>
<line x1="200.51" y1="293.37" x2="206.51" y2="293.37" class="err"/>
<circle cx="203.51" cy="281.38" r="2.5" class="obs"/>
<line x1="228.10" y1="261.59" x2="228.10" y2="285.57" class="err"/>
<line x1="225.10" y1="261.59" x2="231.10" y2="261.59" class="err"/>
<line x1="225.10" y1="285.57" x2="231.10" y2="285.57" class="err"/>
<circle cx="228.10" cy="273.58" r="2.5" class="obs"/>
<line x1="251.82" y1="254.10" x2="251.82" y2="278.08" class="err"/>
<line x1="248.82" y1="254.10" x2="254.82" y2="254.10" class="err"/>
<line x1="248.82" y1="278.08" x2="254.82" y2="278.08" class="err"/>
<circle cx="251.82" cy="266.09" r="2.5" class="obs"/>
<line x1="276.41" y1="247.80" x2="276.41" y2="271.78" class="err"/>
<line x1="273.41" y1="247.80" x2="279.41" y2="247.80" class="err"/>
<line x1="273.41" y1="271.78" x2="279.41" y2="271.78" class="err"/>
<circle cx="276.41" cy="259.79" r="2.5" class="obs"/>
<line x1="301.01" y1="246.30" x2="301.01" y2="270.28" class="err"/>
<line x1="298.01" y1="246.30" x2="304.01" y2="246.30" class="err"/>
<line x1="298.01" y1="270.28" x2="304.01" y2="270.28" class="err"/>
<circle cx="301.01" cy="258.29" r="2.5" class="obs"/>
<line x1="325.60" y1="208.53" x2="325.60" y2="286.47" class="err"/>
<line x1="322.60" y1="208.53" x2="328.60" y2="208.53" class="err"/>
<line x1="322.60" y1="286.47" x2="328.60" y2="286.47" class="err"/>
<circle cx="325.60" cy="247.50" r="2.5" class="obs"/>
<line x1="350.20" y1="232.21" x2="350.20" y2="256.19" class="err"/>
<line x1="347.20" y1="232.21" x2="353.20" y2="232.21" class="err"/>
<line x1="347.20" y1="256.19" x2="353.20" y2="256.19" class="err"/>
<circle cx="350.20" cy="244.20" r="2.5" class="obs"/>
<line x1="373.91" y1="221.45" x2="373.91" y2="246.57" class="err"/>
<line x1="370.91" y1="221.45" x2="376.91" y2="221.45" class="err"/>
<line x1="370.91" y1="246.57" x2="376.91" y2="246.57" class="err"/>
<circle cx="373.91" cy="234.01" r="2.5" class="obs"/>
<line x1="398.50" y1="198.54" x2="398.50" y2="243.69" class="err"/>
<line x1="395.50" y1="198.54" x2="401.50" y2="198.54" class="err"/>
<line x1="395.50" y1="243.69" x2="401.50" y2="243.69" class="err"/>
<circle cx="398.50" cy="221.12" r="2.5" class="obs"/>
<line x1="422.22" y1="189.94" x2="422.22" y2="213.92" class="err"/>
<line x1="419.22" y1="189.94" x2="425.22" y2="189.94" class="err"/>
<line x1="419.22" y1="213.92" x2="425.22" y2="213.92" class="err"/>
<circle cx="422.22" cy="201.93" r="2.5" class="obs"/>
<line x1="446.81" y1="180.65" x2="446.81" y2="204.63" class="err"/>
<line x1="443.81" y1="180.65" x2="449.81" y2="180.65" class="err"/>
<line x1="443.81" y1="204.63" x2="449.81" y2="204.63" class="err"/>
<circle cx="446.81" cy="192.64" r="2.5" class="obs"/>
<line x1="471.41" y1="169.25" x2="471.41" y2="193.24" class="err"/>
<line x1="468.41" y1="169.25" x2="474.41" y2="169.25" class="err"/>
<line x1="468.41" y1="193.24" x2="474.41" y2="193.24" class="err"/>
<circle cx="471.41" cy="181.24" r="2.5" class="obs"/>
<line x1="496.00" y1="156.36" x2="496.00" y2="180.35" class="err"/>
<line x1="493.00" y1="156.36" x2="499.00" y2="156.36" class="err"/>
<line x1="493.00" y1="180.35" x2="499.00" y2="180.35" class="err"/>
<circle cx="496.00" cy="168.35" r="2.5" class="obs"/>
<line x1="520.60" y1="143.17" x2="520.60" y2="167.15" class="err"/>
<line x1="517.60" y1="143.17" x2="523.60" y2="143.17" class="err"/>
<line x1="517.60" y1="167.15" x2="523.60" y2="167.15" class="err"/>
<circle cx="520.60" cy="155.16" r="2.5" class="obs"/>
<line x1="544.31" y1="134.78" x2="544.31" y2="158.76" class="err"/>
<line x1="541.31" y1="134.78" x2="547.31" y2="134.78" class="err"/>
<line x1="541.31" y1="158.76" x2="547.31" y2="158.76" class="err"/>
<circle cx="544.31" cy="146.77" r="2.5" class="obs"/>
<line x1="568.91" y1="93.70" x2="568.91" y2="187.84" class="err"/>
<line x1="565.91" y1="93.70" x2="571.91" y2="93.70" class="err"/>
<line x1="565.91" y1="187.84" x2="571.91" y2="187.84" class="err"/>
<circle cx="568.91" cy="140.77" r="2.5" class="obs"/>
<line x1="584.72" y1="85.91" x2="584.72" y2="186.64" class="err"/>
<line x1="581.72" y1="85.91" x2="587.72" y2="85.91" class="err"/>
<line x1="581.72" y1="186.64" x2="587.72" y2="186.64" class="err"/>
<circle cx="584.72" cy="136.28" r="2.5" class="obs"/>
<line x1="628.63" y1="100.39" x2="628.63" y2="148.78" class="err"/>
<line x1="625.63" y1="100.39" x2="631.63" y2="100.39" class="err"/>
<line x1="625.63" y1="148.78" x2="631.63" y2="148.78" class="err"/>
<circle cx="628.63" cy="124.58" r="2.5" class="obs"/>
<line x1="641.81" y1="109.29" x2="641.81" y2="133.28" class="err"/>
<line x1="638.81" y1="109.29" x2="644.81" y2="109.29" class="err"/>
<line x1="638.81" y1="133.28" x2="644.81" y2="133.28" class="err"/>
<circle cx="641.81" cy="121.29" r="2.5" class="obs"/>
<line x1="657.62" y1="90.56" x2="657.62" y2="143.02" class="err"/>
<line x1="654.62" y1="90.56" x2="660.62" y2="90.56" class="err"/>
<line x1="654.62" y1="143.02" x2="660.62" y2="143.02" class="err"/>
<circle cx="657.62" cy="116.79" r="2.5" class="obs"/>
<g class="legend">
<line x1="82" y1="69" x2="106" y2="69" class="fw"/>
<text x="112" y="73" class="lbl-l">framework: 1.7 km/s, 3.7%, 0.36σ</text>
<line x1="82" y1="87" x2="106" y2="87" class="nt"/>
<text x="112" y="91" class="lbl-l">Newtonian: 8.2 km/s, 38.9%, 1.57σ</text>
<line x1="82" y1="105" x2="106" y2="105" class="mond"/>
<text x="112" y="109" class="lbl-m">MOND/RAR: 7.6 km/s, 17.0%, 1.79σ</text>
<circle cx="94" cy="123" r="2.5" class="obs"/>
<text x="112" y="127" class="lbl">observed V±err</text>
</g>
<g class="legend">
<line x1="472" y1="69" x2="496" y2="69" class="rho"/>
<text x="502" y="73" class="lbl-r">ρ(r) raw</text>
<line x1="472" y1="87" x2="496" y2="87" class="phot"/>
<text x="502" y="91" class="lbl-p">photometric baryonic profile</text>
<line x1="472" y1="105" x2="496" y2="105" class="mbar"/>
<text x="502" y="109" class="lbl-m">MOND baryonic annulus</text>
<line x1="472" y1="123" x2="496" y2="123" class="mph"/>
<text x="502" y="127" class="lbl-m">MOND phantom annulus</text>
<text x="472" y="147" class="lbl-r">ρ peak: 118 M☉/pc²</text>
<text x="472" y="163" class="lbl-p">phot peak: 39.67 (arb.)</text>
<text x="472" y="179" class="lbl-m">Σbar peak: 50.48 M☉/pc²</text>
<text x="472" y="195" class="lbl-m">Σphantom peak: 106.83 M☉/pc²</text>
</g>
<rect x="775" y="55" width="170" height="170" class="preview-bg"/>
<defs><radialGradient id="g_UGC04278" cx="0.5" cy="0.5" r="0.5">
  <stop offset="0.0000" stop-color="rgb(212,53,53)"/>
  <stop offset="0.0313" stop-color="rgb(190,48,48)"/>
  <stop offset="0.0625" stop-color="rgb(186,47,47)"/>
  <stop offset="0.0938" stop-color="rgb(182,46,46)"/>
  <stop offset="0.1250" stop-color="rgb(178,45,45)"/>
  <stop offset="0.1563" stop-color="rgb(174,44,44)"/>
  <stop offset="0.1875" stop-color="rgb(170,43,43)"/>
  <stop offset="0.2188" stop-color="rgb(166,42,42)"/>
  <stop offset="0.2500" stop-color="rgb(162,41,41)"/>
  <stop offset="0.2813" stop-color="rgb(159,40,40)"/>
  <stop offset="0.3125" stop-color="rgb(158,40,40)"/>
  <stop offset="0.3438" stop-color="rgb(157,39,39)"/>
  <stop offset="0.3750" stop-color="rgb(156,39,39)"/>
  <stop offset="0.4063" stop-color="rgb(156,39,39)"/>
  <stop offset="0.4375" stop-color="rgb(155,39,39)"/>
  <stop offset="0.4688" stop-color="rgb(154,39,39)"/>
  <stop offset="0.5000" stop-color="rgb(153,38,38)"/>
  <stop offset="0.5313" stop-color="rgb(152,38,38)"/>
  <stop offset="0.5625" stop-color="rgb(151,38,38)"/>
  <stop offset="0.5938" stop-color="rgb(150,38,38)"/>
  <stop offset="0.6250" stop-color="rgb(149,37,37)"/>
  <stop offset="0.6563" stop-color="rgb(148,37,37)"/>
  <stop offset="0.6875" stop-color="rgb(146,37,37)"/>
  <stop offset="0.7188" stop-color="rgb(143,36,36)"/>
  <stop offset="0.7500" stop-color="rgb(140,35,35)"/>
  <stop offset="0.7813" stop-color="rgb(137,34,34)"/>
  <stop offset="0.8125" stop-color="rgb(134,34,34)"/>
  <stop offset="0.8438" stop-color="rgb(131,33,33)"/>
  <stop offset="0.8750" stop-color="rgb(127,32,32)"/>
  <stop offset="0.9063" stop-color="rgb(124,31,31)"/>
  <stop offset="0.9375" stop-color="rgb(121,30,30)"/>
  <stop offset="0.9688" stop-color="rgb(118,30,30)"/>
  <stop offset="1.0000" stop-color="rgb(76,19,19)"/>
</radialGradient></defs>
<circle cx="860" cy="140" r="81" fill="url(#g_UGC04278)"/>
<text x="860" y="49" text-anchor="middle" class="preview-lbl">face-on luminance from ρ(r)</text>
<text x="860" y="239" text-anchor="middle" class="preview-lbl">edge at r = 6.7 kpc</text>
</svg>