<svg xmlns="http://www.w3.org/2000/svg" viewBox="0 0 960 450" width="960" height="450" font-family="sans-serif" font-size="12">
<style>
  .ax { stroke: #333; stroke-width: 1; fill: none; }
  .grid { stroke: #ddd; stroke-width: 0.5; fill: none; }
  .lbl { fill: #333; }
  .lbl-l { fill: #0066cc; }
  .lbl-r { fill: #b03030; }
  .obs { fill: #222; }
  .err { stroke: #555; stroke-width: 0.8; fill: none; }
  .fw { stroke: #0066cc; stroke-width: 2.2; fill: none; }
  .nt { stroke: #cc6600; stroke-width: 1.6; fill: none; stroke-dasharray: 5,3; }
  .mond { stroke: #7b2cbf; stroke-width: 1.8; fill: none; stroke-dasharray: 7,3; }
  .lbl-p { fill: #cc7000; }
  .lbl-m { fill: #7b2cbf; }
  .rho { stroke: #b03030; stroke-width: 2.0; fill: none; }
  .phot { stroke: #cc7000; stroke-width: 1.8; fill: none; }
  .mbar { stroke: #8e44ad; stroke-width: 1.8; fill: none; opacity: 0.9; }
  .mph { stroke: #c77dff; stroke-width: 1.6; fill: none; stroke-dasharray: 4,3; opacity: 0.95; }
  .title { fill: #111; font-size: 16px; font-weight: 600; }
  .subtitle { fill: #555; font-size: 11px; }
  .preview-bg { fill: #000; }
  .preview-lbl { fill: #888; font-size: 10px; }
  .legend { font-size: 11px; }
</style>
<text x="378.5" y="22" text-anchor="middle" class="title">UGC07151</text>
<text x="378.5" y="38" text-anchor="middle" class="subtitle">rMax=5.5 kpc, N=11, FW=0.6 km/s, 1.1%, 0.24σ, MOND=5.5 km/s, 10.7%, 1.96σ, amp=104</text>
<line x1="70" y1="395.0" x2="687" y2="395.0" class="grid"/>
<text x="64" y="399.0" text-anchor="end" class="lbl-l">0</text>
<line x1="70" y1="327.0" x2="687" y2="327.0" class="grid"/>
<text x="64" y="331.0" text-anchor="end" class="lbl-l">19</text>
<line x1="70" y1="259.0" x2="687" y2="259.0" class="grid"/>
<text x="64" y="263.0" text-anchor="end" class="lbl-l">38</text>
<line x1="70" y1="191.0" x2="687" y2="191.0" class="grid"/>
<text x="64" y="195.0" text-anchor="end" class="lbl-l">56</text>
<line x1="70" y1="123.0" x2="687" y2="123.0" class="grid"/>
<text x="64" y="127.0" text-anchor="end" class="lbl-l">75</text>
<line x1="70" y1="55.0" x2="687" y2="55.0" class="grid"/>
<text x="64" y="59.0" text-anchor="end" class="lbl-l">94</text>
<text x="693" y="399.0" text-anchor="start" class="lbl-r">0.0</text>
<text x="693" y="353.7" text-anchor="start" class="lbl-r">0.2</text>
<text x="693" y="308.3" text-anchor="start" class="lbl-r">0.4</text>
<text x="693" y="263.0" text-anchor="start" class="lbl-r">0.6</text>
<text x="693" y="217.7" text-anchor="start" class="lbl-r">0.8</text>
<text x="693" y="172.3" text-anchor="start" class="lbl-r">1.0</text>
<line x1="70.0" y1="55" x2="70.0" y2="395" class="grid"/>
<text x="70.0" y="411" text-anchor="middle" class="lbl">0.0</text>
<line x1="172.8" y1="55" x2="172.8" y2="395" class="grid"/>
<text x="172.8" y="411" text-anchor="middle" class="lbl">1.1</text>
<line x1="275.7" y1="55" x2="275.7" y2="395" class="grid"/>
<text x="275.7" y="411" text-anchor="middle" class="lbl">2.3</text>
<line x1="378.5" y1="55" x2="378.5" y2="395" class="grid"/>
<text x="378.5" y="411" text-anchor="middle" class="lbl">3.4</text>
<line x1="481.3" y1="55" x2="481.3" y2="395" class="grid"/>
<text x="481.3" y="411" text-anchor="middle" class="lbl">4.5</text>
<line x1="584.2" y1="55" x2="584.2" y2="395" class="grid"/>
<text x="584.2" y="411" text-anchor="middle" class="lbl">5.7</text>
<line x1="687.0" y1="55" x2="687.0" y2="395" class="grid"/>
<text x="687.0" y="411" text-anchor="middle" class="lbl">6.8</text>
<text x="378.5" y="438" text-anchor="middle" class="lbl">radius (kpc)</text>
<text x="16" y="225" text-anchor="middle" class="lbl-l" transform="rotate(-90, 16, 225)">velocity (km/s)</text>
<text x="724" y="225" text-anchor="middle" class="lbl-r" transform="rotate(-90, 724, 225)">profiles (normalized to peak)</text>
<rect x="70" y="55" width="617" height="340" class="ax"/>
<path d="M 70.0,168.3 L 72.8,169.8 L 75.6,171.3 L 78.5,172.8 L 81.3,174.3 L 84.1,175.8 L 86.9,177.2 L 89.7,178.7 L 92.5,180.2 L 95.4,181.7 L 98.2,183.2 L 101.0,184.7 L 103.8,186.2 L 106.6,187.6 L 109.4,189.1 L 112.3,190.6 L 115.1,192.1 L 117.9,193.6 L 120.7,195.1 L 123.5,196.6 L 126.3,198.0 L 129.2,199.5 L 132.0,201.0 L 134.8,202.5 L 137.6,202.9 L 140.4,202.9 L 143.3,202.9 L 146.1,202.9 L 148.9,202.9 L 151.7,202.9 L 154.5,203.0 L 157.3,203.0 L 160.2,203.0 L 163.0,203.0 L 165.8,203.0 L 168.6,203.0 L 171.4,203.1 L 174.2,203.1 L 177.1,203.1 L 179.9,203.1 L 182.7,203.1 L 185.5,205.3 L 188.3,207.6 L 191.1,210.0 L 194.0,212.3 L 196.8,214.6 L 199.6,216.9 L 202.4,219.2 L 205.2,221.6 L 208.1,223.9 L 210.9,226.2 L 213.7,228.5 L 216.5,230.9 L 219.3,233.2 L 222.1,235.5 L 225.0,237.8 L 227.8,240.1 L 230.6,242.5 L 233.4,244.4 L 236.2,245.0 L 239.0,245.6 L 241.9,246.2 L 244.7,246.8 L 247.5,247.4 L 250.3,248.0 L 253.1,248.6 L 255.9,249.2 L 258.8,249.8 L 261.6,250.4 L 264.4,251.0 L 267.2,251.6 L 270.0,252.2 L 272.8,252.8 L 275.7,253.5 L 278.5,254.1 L 281.3,254.7 L 284.1,255.3 L 286.9,255.9 L 289.8,256.5 L 292.6,257.1 L 295.4,257.7 L 298.2,258.3 L 301.0,258.9 L 303.8,259.5 L 306.7,260.1 L 309.5,260.7 L 312.3,261.3 L 315.1,261.9 L 317.9,262.5 L 320.7,263.1 L 323.6,263.7 L 326.4,264.3 L 329.2,264.9 L 332.0,265.5 L 334.8,266.1 L 337.6,266.7 L 340.5,267.3 L 343.3,268.0 L 346.1,268.6 L 348.9,269.2 L 351.7,269.8 L 354.6,270.4 L 357.4,271.0 L 360.2,271.6 L 363.0,272.2 L 365.8,272.8 L 368.6,273.4 L 371.5,274.0 L 374.3,274.6 L 377.1,275.2 L 379.9,275.8 L 382.7,276.4 L 385.5,277.0 L 388.4,277.6 L 391.2,278.2 L 394.0,278.8 L 396.8,279.4 L 399.6,280.0 L 402.4,280.6 L 405.3,281.2 L 408.1,281.8 L 410.9,282.5 L 413.7,283.1 L 416.5,283.7 L 419.4,284.3 L 422.2,284.9 L 425.0,285.5 L 427.8,286.1 L 430.6,286.7 L 433.4,287.3 L 436.3,287.9 L 439.1,288.5 L 441.9,289.1 L 444.7,289.7 L 447.5,290.3 L 450.3,290.9 L 453.2,291.5 L 456.0,292.1 L 458.8,292.7 L 461.6,293.3 L 464.4,293.9 L 467.2,294.5 L 470.1,295.1 L 472.9,295.7 L 475.7,296.3 L 478.5,297.0 L 481.3,297.6 L 484.2,298.2 L 487.0,298.8 L 489.8,299.4 L 492.6,300.0 L 495.4,300.6 L 498.2,301.2 L 501.1,301.8 L 503.9,302.4 L 506.7,303.0 L 509.5,303.6 L 512.3,304.2 L 515.1,304.8 L 518.0,305.4 L 520.8,306.0 L 523.6,306.6 L 526.4,307.2 L 529.2,307.8 L 532.0,308.4 L 534.9,309.0 L 537.7,309.6 L 540.5,310.2 L 543.3,310.8 L 546.1,311.5 L 548.9,312.1 L 551.8,312.7 L 554.6,313.3 L 557.4,313.9 L 560.2,315.9 L 563.0,318.2 L 565.9,320.5 L 568.7,322.8 L 571.5,325.0 L 574.3,327.3 L 577.1,329.6 L 579.9,331.9 L 582.8,334.2 L 585.6,336.5 L 588.4,338.8 L 591.2,341.1 L 594.0,343.3 L 596.8,345.6 L 599.7,347.9 L 602.5,350.2 L 605.3,352.5 L 608.1,354.8 L 610.9,357.1 L 613.7,359.4 L 616.6,361.7 L 619.4,363.9 L 622.2,366.2 L 625.0,368.5 L 627.8,370.8 L 630.7,373.1 L 633.5,375.4 L 636.3,377.7 L 639.1,380.0 L 641.9,382.3 L 644.7,384.5 L 647.6,386.8 L 650.4,389.1 L 653.2,391.4 L 656.0,393.7 L 658.8,395.0 L 661.6,395.0 L 664.5,395.0 L 667.3,395.0 L 670.1,395.0 L 672.9,395.0 L 675.7,395.0 L 678.5,395.0 L 681.4,395.0 L 684.2,395.0 L 687.0,395.0" class="rho"/>
<path d="M 115.3,168.3 L 160.5,258.2 L 205.8,304.2 L 251.0,347.3 L 295.4,361.3 L 341.5,370.3 L 385.9,377.3 L 432.0,378.6 L 476.4,380.1 L 523.5,384.5 L 567.8,388.2" class="phot"/>
<path d="M 115.3,183.1 L 160.5,168.3 L 205.8,181.3 L 251.0,209.8 L 295.4,243.0 L 341.5,283.6 L 385.9,302.5 L 432.0,294.2 L 476.4,298.1 L 523.5,305.3 L 567.8,301.1" class="mbar"/>
<path d="M 115.3,174.3 L 160.5,168.3 L 205.8,173.3 L 251.0,185.1 L 295.4,200.1 L 341.5,220.7 L 385.9,231.8 L 432.0,229.0 L 476.4,232.6 L 523.5,237.4 L 567.8,235.4" class="mph"/>
<path d="M 76.2,350.8 L 82.3,332.8 L 88.5,319.2 L 94.7,307.9 L 100.8,298.1 L 107.0,289.4 L 113.2,281.5 L 119.4,274.3 L 125.5,267.6 L 131.7,261.4 L 137.9,255.6 L 144.0,250.0 L 150.2,244.6 L 156.4,239.4 L 162.6,234.3 L 168.7,229.3 L 174.9,224.4 L 181.1,219.7 L 187.2,215.2 L 193.4,211.0 L 199.6,207.0 L 205.7,203.4 L 211.9,200.0 L 218.1,196.9 L 224.3,194.0 L 230.4,191.3 L 236.6,188.7 L 242.8,186.2 L 248.9,183.8 L 255.1,181.4 L 261.3,179.0 L 267.4,176.7 L 273.6,174.4 L 279.8,172.2 L 285.9,170.0 L 292.1,167.8 L 298.3,165.7 L 304.5,163.6 L 310.6,161.6 L 316.8,159.6 L 323.0,157.7 L 329.1,155.8 L 335.3,153.9 L 341.5,152.1 L 347.7,150.3 L 353.8,148.5 L 360.0,146.8 L 366.2,145.2 L 372.3,143.5 L 378.5,141.9 L 384.7,140.4 L 390.8,138.8 L 397.0,137.3 L 403.2,135.9 L 409.3,134.5 L 415.5,133.1 L 421.7,131.7 L 427.9,130.4 L 434.0,129.1 L 440.2,127.9 L 446.4,126.6 L 452.5,125.5 L 458.7,124.3 L 464.9,123.2 L 471.1,122.1 L 477.2,121.0 L 483.4,120.0 L 489.6,119.0 L 495.7,118.0 L 501.9,117.1 L 508.1,116.2 L 514.2,115.3 L 520.4,114.4 L 526.6,113.6 L 532.8,112.8 L 538.9,112.0 L 545.1,111.3 L 551.3,110.6 L 557.4,109.9 L 563.6,109.3 L 569.8,108.8 L 575.9,108.5 L 582.1,108.2 L 588.3,108.2 L 594.4,108.2 L 600.6,108.4 L 606.8,108.8 L 613.0,109.2 L 619.1,109.8 L 625.3,110.5 L 631.5,111.4 L 637.6,112.3 L 643.8,113.4 L 650.0,114.7 L 656.2,116.0 L 662.3,117.5 L 668.5,118.9 L 674.7,120.3 L 680.8,121.7 L 687.0,123.1" class="nt"/>
<path d="M 115.3,285.5 L 160.5,231.5 L 205.8,199.6 L 251.0,173.0 L 295.4,155.0 L 341.5,141.0 L 385.9,134.8 L 432.0,118.0 L 476.4,108.2 L 523.5,97.2 L 567.8,85.9" class="mond"/>
<path d="M 75.1,382.1 L 80.3,371.5 L 85.4,360.4 L 90.6,349.7 L 95.7,339.5 L 100.8,329.9 L 106.0,320.9 L 111.1,312.5 L 116.3,304.6 L 121.4,297.3 L 126.6,290.4 L 131.7,283.9 L 136.8,277.5 L 142.0,271.2 L 147.1,264.6 L 152.3,257.7 L 157.4,250.4 L 162.6,242.6 L 167.7,234.3 L 172.8,225.8 L 178.0,217.0 L 183.1,208.4 L 188.3,200.1 L 193.4,192.5 L 198.5,185.8 L 203.7,180.1 L 208.8,175.3 L 214.0,171.5 L 219.1,168.7 L 224.3,166.8 L 229.4,165.6 L 234.5,165.1 L 239.7,164.9 L 244.8,164.8 L 250.0,164.8 L 255.1,164.6 L 260.2,164.4 L 265.4,164.0 L 270.5,163.5 L 275.7,162.9 L 280.8,162.2 L 286.0,161.4 L 291.1,160.6 L 296.2,159.8 L 301.4,158.9 L 306.5,158.0 L 311.7,157.0 L 316.8,156.1 L 321.9,155.2 L 327.1,154.2 L 332.2,153.3 L 337.4,152.3 L 342.5,151.4 L 347.7,150.5 L 352.8,149.6 L 357.9,148.8 L 363.1,147.9 L 368.2,147.1 L 373.4,146.3 L 378.5,145.5 L 383.6,144.7 L 388.8,144.0 L 393.9,143.3 L 399.1,142.6 L 404.2,142.0 L 409.4,141.4 L 414.5,140.8 L 419.6,140.2 L 424.8,139.7 L 429.9,139.1 L 435.1,138.6 L 440.2,138.1 L 445.3,137.7 L 450.5,137.2 L 455.6,136.8 L 460.8,136.3 L 465.9,135.9 L 471.1,135.5 L 476.2,135.0 L 481.3,134.5 L 486.5,134.0 L 491.6,133.5 L 496.8,133.0 L 501.9,132.3 L 507.0,131.6 L 512.2,130.8 L 517.3,129.9 L 522.5,128.9 L 527.6,127.7 L 532.8,126.3 L 537.9,124.7 L 543.0,123.0 L 548.2,121.2 L 553.3,119.4 L 558.5,117.8 L 563.6,116.6 L 568.7,116.1 L 573.9,116.4 L 579.0,117.5 L 584.2,119.4 L 589.3,122.0 L 594.4,125.4 L 599.6,129.4 L 604.7,134.0 L 609.9,139.0 L 615.0,144.4 L 620.2,150.1 L 625.3,156.0 L 630.4,162.1 L 635.6,168.2 L 640.7,174.2 L 645.9,180.1 L 651.0,185.7 L 656.2,191.0 L 661.3,196.0 L 666.4,200.7 L 671.6,205.1 L 676.7,209.1 L 681.9,212.9 L 687.0,216.5" class="fw"/>
<line x1="115.25" y1="299.68" x2="115.25" y2="315.43" class="err"/>
<line x1="112.25" y1="299.68" x2="118.25" y2="299.68" class="err"/>
<line x1="112.25" y1="315.43" x2="118.25" y2="315.43" class="err"/>
<circle cx="115.25" cy="307.55" r="2.5" class="obs"/>
<line x1="160.51" y1="232.72" x2="160.51" y2="253.75" class="err"/>
<line x1="157.51" y1="232.72" x2="163.51" y2="232.72" class="err"/>
<line x1="157.51" y1="253.75" x2="163.51" y2="253.75" class="err"/>
<circle cx="160.51" cy="243.23" r="2.5" class="obs"/>
<line x1="205.76" y1="171.69" x2="205.76" y2="189.03" class="err"/>
<line x1="202.76" y1="171.69" x2="208.76" y2="171.69" class="err"/>
<line x1="202.76" y1="189.03" x2="208.76" y2="189.03" class="err"/>
<circle cx="205.76" cy="180.36" r="2.5" class="obs"/>
<line x1="251.02" y1="156.83" x2="251.02" y2="171.36" class="err"/>
<line x1="248.02" y1="156.83" x2="254.02" y2="156.83" class="err"/>
<line x1="248.02" y1="171.36" x2="254.02" y2="171.36" class="err"/>
<circle cx="251.02" cy="164.10" r="2.5" class="obs"/>
<line x1="295.37" y1="149.28" x2="295.37" y2="163.74" class="err"/>
<line x1="292.37" y1="149.28" x2="298.37" y2="149.28" class="err"/>
<line x1="292.37" y1="163.74" x2="298.37" y2="163.74" class="err"/>
<circle cx="295.37" cy="156.51" r="2.5" class="obs"/>
<line x1="341.53" y1="144.69" x2="341.53" y2="159.65" class="err"/>
<line x1="338.53" y1="144.69" x2="344.53" y2="144.69" class="err"/>
<line x1="338.53" y1="159.65" x2="344.53" y2="159.65" class="err"/>
<circle cx="341.53" cy="152.17" r="2.5" class="obs"/>
<line x1="385.88" y1="138.15" x2="385.88" y2="155.35" class="err"/>
<line x1="382.88" y1="138.15" x2="388.88" y2="138.15" class="err"/>
<line x1="382.88" y1="155.35" x2="388.88" y2="155.35" class="err"/>
<circle cx="385.88" cy="146.75" r="2.5" class="obs"/>
<line x1="432.04" y1="126.84" x2="432.04" y2="147.87" class="err"/>
<line x1="429.04" y1="126.84" x2="435.04" y2="126.84" class="err"/>
<line x1="429.04" y1="147.87" x2="435.04" y2="147.87" class="err"/>
<circle cx="432.04" cy="137.36" r="2.5" class="obs"/>
<line x1="476.39" y1="121.42" x2="476.39" y2="144.62" class="err"/>
<line x1="473.39" y1="121.42" x2="479.39" y2="121.42" class="err"/>
<line x1="473.39" y1="144.62" x2="479.39" y2="144.62" class="err"/>
<circle cx="476.39" cy="133.02" r="2.5" class="obs"/>
<line x1="523.45" y1="115.28" x2="523.45" y2="139.92" class="err"/>
<line x1="520.45" y1="115.28" x2="526.45" y2="115.28" class="err"/>
<line x1="520.45" y1="139.92" x2="526.45" y2="139.92" class="err"/>
<circle cx="523.45" cy="127.60" r="2.5" class="obs"/>
<line x1="567.80" y1="108.20" x2="567.80" y2="131.11" class="err"/>
<line x1="564.80" y1="108.20" x2="570.80" y2="108.20" class="err"/>
<line x1="564.80" y1="131.11" x2="570.80" y2="131.11" class="err"/>
<circle cx="567.80" cy="119.65" r="2.5" class="obs"/>
<g class="legend">
<line x1="82" y1="69" x2="106" y2="69" class="fw"/>
<text x="112" y="73" class="lbl-l">framework: 0.6 km/s, 1.1%, 0.24σ</text>
<line x1="82" y1="87" x2="106" y2="87" class="nt"/>
<text x="112" y="91" class="lbl-l">Newtonian: 4.1 km/s, 11.2%, 1.75σ</text>
<line x1="82" y1="105" x2="106" y2="105" class="mond"/>
<text x="112" y="109" class="lbl-m">MOND/RAR: 5.5 km/s, 10.7%, 1.96σ</text>
<circle cx="94" cy="123" r="2.5" class="obs"/>
<text x="112" y="127" class="lbl">observed V±err</text>
</g>
<g class="legend">
<line x1="472" y1="69" x2="496" y2="69" class="rho"/>
<text x="502" y="73" class="lbl-r">ρ(r) raw</text>
<line x1="472" y1="87" x2="496" y2="87" class="phot"/>
<text x="502" y="91" class="lbl-p">photometric baryonic profile</text>
<line x1="472" y1="105" x2="496" y2="105" class="mbar"/>
<text x="502" y="109" class="lbl-m">MOND baryonic annulus</text>
<line x1="472" y1="123" x2="496" y2="123" class="mph"/>
<text x="502" y="127" class="lbl-m">MOND phantom annulus</text>
<text x="472" y="147" class="lbl-r">ρ peak: 164 M☉/pc²</text>
<text x="472" y="163" class="lbl-p">phot peak: 83.79 (arb.)</text>
<text x="472" y="179" class="lbl-m">Σbar peak: 51.84 M☉/pc²</text>
<text x="472" y="195" class="lbl-m">Σphantom peak: 95.10 M☉/pc²</text>
</g>
<rect x="775" y="55" width="170" height="170" class="preview-bg"/>
<defs><radialGradient id="g_UGC07151" cx="0.5" cy="0.5" r="0.5">
  <stop offset="0.0000" stop-color="rgb(255,64,64)"/>
  <stop offset="0.0313" stop-color="rgb(255,64,64)"/>
  <stop offset="0.0625" stop-color="rgb(255,64,64)"/>
  <stop offset="0.0938" stop-color="rgb(245,61,61)"/>
  <stop offset="0.1250" stop-color="rgb(240,60,60)"/>
  <stop offset="0.1563" stop-color="rgb(240,60,60)"/>
  <stop offset="0.1875" stop-color="rgb(240,60,60)"/>
  <stop offset="0.2188" stop-color="rgb(227,57,57)"/>
  <stop offset="0.2500" stop-color="rgb(212,53,53)"/>
  <stop offset="0.2813" stop-color="rgb(199,50,50)"/>
  <stop offset="0.3125" stop-color="rgb(195,49,49)"/>
  <stop offset="0.3438" stop-color="rgb(191,48,48)"/>
  <stop offset="0.3750" stop-color="rgb(187,47,47)"/>
  <stop offset="0.4063" stop-color="rgb(183,46,46)"/>
  <stop offset="0.4375" stop-color="rgb(179,45,45)"/>
  <stop offset="0.4688" stop-color="rgb(175,44,44)"/>
  <stop offset="0.5000" stop-color="rgb(171,43,43)"/>
  <stop offset="0.5313" stop-color="rgb(167,42,42)"/>
  <stop offset="0.5625" stop-color="rgb(164,41,41)"/>
  <stop offset="0.5938" stop-color="rgb(160,40,40)"/>
  <stop offset="0.6250" stop-color="rgb(156,39,39)"/>
  <stop offset="0.6563" stop-color="rgb(152,38,38)"/>
  <stop offset="0.6875" stop-color="rgb(148,37,37)"/>
  <stop offset="0.7188" stop-color="rgb(144,36,36)"/>
  <stop offset="0.7500" stop-color="rgb(140,35,35)"/>
  <stop offset="0.7813" stop-color="rgb(136,34,34)"/>
  <stop offset="0.8125" stop-color="rgb(132,33,33)"/>
  <stop offset="0.8438" stop-color="rgb(124,31,31)"/>
  <stop offset="0.8750" stop-color="rgb(109,27,27)"/>
  <stop offset="0.9063" stop-color="rgb(94,24,24)"/>
  <stop offset="0.9375" stop-color="rgb(80,20,20)"/>
  <stop offset="0.9688" stop-color="rgb(65,16,16)"/>
  <stop offset="1.0000" stop-color="rgb(0,0,0)"/>
</radialGradient></defs>
<circle cx="860" cy="140" r="81" fill="url(#g_UGC07151)"/>
<text x="860" y="49" text-anchor="middle" class="preview-lbl">face-on luminance from ρ(r)</text>
<text x="860" y="239" text-anchor="middle" class="preview-lbl">edge at r = 6.5 kpc</text>
</svg>