<svg xmlns="http://www.w3.org/2000/svg" viewBox="0 0 960 450" width="960" height="450" font-family="sans-serif" font-size="12">
<style>
  .ax { stroke: #333; stroke-width: 1; fill: none; }
  .grid { stroke: #ddd; stroke-width: 0.5; fill: none; }
  .lbl { fill: #333; }
  .lbl-l { fill: #0066cc; }
  .lbl-r { fill: #b03030; }
  .obs { fill: #222; }
  .err { stroke: #555; stroke-width: 0.8; fill: none; }
  .fw { stroke: #0066cc; stroke-width: 2.2; fill: none; }
  .nt { stroke: #cc6600; stroke-width: 1.6; fill: none; stroke-dasharray: 5,3; }
  .mond { stroke: #7b2cbf; stroke-width: 1.8; fill: none; stroke-dasharray: 7,3; }
  .lbl-p { fill: #cc7000; }
  .lbl-m { fill: #7b2cbf; }
  .rho { stroke: #b03030; stroke-width: 2.0; fill: none; }
  .phot { stroke: #cc7000; stroke-width: 1.8; fill: none; }
  .mbar { stroke: #8e44ad; stroke-width: 1.8; fill: none; opacity: 0.9; }
  .mph { stroke: #c77dff; stroke-width: 1.6; fill: none; stroke-dasharray: 4,3; opacity: 0.95; }
  .title { fill: #111; font-size: 16px; font-weight: 600; }
  .subtitle { fill: #555; font-size: 11px; }
  .preview-bg { fill: #000; }
  .preview-lbl { fill: #888; font-size: 10px; }
  .legend { font-size: 11px; }
</style>
<text x="378.5" y="22" text-anchor="middle" class="title">UGC02259</text>
<text x="378.5" y="38" text-anchor="middle" class="subtitle">rMax=8.1 kpc, N=8, FW=0.8 km/s, 1.0%, 0.31σ, MOND=13.7 km/s, 19.7%, 6.75σ, amp=101</text>
<line x1="70" y1="395.0" x2="687" y2="395.0" class="grid"/>
<text x="64" y="399.0" text-anchor="end" class="lbl-l">0</text>
<line x1="70" y1="327.0" x2="687" y2="327.0" class="grid"/>
<text x="64" y="331.0" text-anchor="end" class="lbl-l">21</text>
<line x1="70" y1="259.0" x2="687" y2="259.0" class="grid"/>
<text x="64" y="263.0" text-anchor="end" class="lbl-l">42</text>
<line x1="70" y1="191.0" x2="687" y2="191.0" class="grid"/>
<text x="64" y="195.0" text-anchor="end" class="lbl-l">63</text>
<line x1="70" y1="123.0" x2="687" y2="123.0" class="grid"/>
<text x="64" y="127.0" text-anchor="end" class="lbl-l">83</text>
<line x1="70" y1="55.0" x2="687" y2="55.0" class="grid"/>
<text x="64" y="59.0" text-anchor="end" class="lbl-l">104</text>
<text x="693" y="399.0" text-anchor="start" class="lbl-r">0.0</text>
<text x="693" y="353.7" text-anchor="start" class="lbl-r">0.2</text>
<text x="693" y="308.3" text-anchor="start" class="lbl-r">0.4</text>
<text x="693" y="263.0" text-anchor="start" class="lbl-r">0.6</text>
<text x="693" y="217.7" text-anchor="start" class="lbl-r">0.8</text>
<text x="693" y="172.3" text-anchor="start" class="lbl-r">1.0</text>
<line x1="70.0" y1="55" x2="70.0" y2="395" class="grid"/>
<text x="70.0" y="411" text-anchor="middle" class="lbl">0.0</text>
<line x1="172.8" y1="55" x2="172.8" y2="395" class="grid"/>
<text x="172.8" y="411" text-anchor="middle" class="lbl">1.4</text>
<line x1="275.7" y1="55" x2="275.7" y2="395" class="grid"/>
<text x="275.7" y="411" text-anchor="middle" class="lbl">2.8</text>
<line x1="378.5" y1="55" x2="378.5" y2="395" class="grid"/>
<text x="378.5" y="411" text-anchor="middle" class="lbl">4.3</text>
<line x1="481.3" y1="55" x2="481.3" y2="395" class="grid"/>
<text x="481.3" y="411" text-anchor="middle" class="lbl">5.7</text>
<line x1="584.2" y1="55" x2="584.2" y2="395" class="grid"/>
<text x="584.2" y="411" text-anchor="middle" class="lbl">7.1</text>
<line x1="687.0" y1="55" x2="687.0" y2="395" class="grid"/>
<text x="687.0" y="411" text-anchor="middle" class="lbl">8.5</text>
<text x="378.5" y="438" text-anchor="middle" class="lbl">radius (kpc)</text>
<text x="16" y="225" text-anchor="middle" class="lbl-l" transform="rotate(-90, 16, 225)">velocity (km/s)</text>
<text x="724" y="225" text-anchor="middle" class="lbl-r" transform="rotate(-90, 724, 225)">profiles (normalized to peak)</text>
<rect x="70" y="55" width="617" height="340" class="ax"/>
<path d="M 70.0,168.3 L 72.8,178.1 L 75.6,187.8 L 78.5,197.5 L 81.3,207.3 L 84.1,216.8 L 86.9,223.4 L 89.7,230.0 L 92.5,236.6 L 95.4,243.2 L 98.2,249.8 L 101.0,256.4 L 103.8,263.0 L 106.6,269.6 L 109.4,276.2 L 112.3,282.8 L 115.1,289.4 L 117.9,294.4 L 120.7,294.9 L 123.5,295.4 L 126.3,295.9 L 129.2,296.4 L 132.0,296.9 L 134.8,297.4 L 137.6,297.9 L 140.4,298.4 L 143.3,298.9 L 146.1,299.4 L 148.9,299.9 L 151.7,300.4 L 154.5,300.9 L 157.3,301.4 L 160.2,301.9 L 163.0,302.4 L 165.8,302.9 L 168.6,303.4 L 171.4,303.9 L 174.2,304.4 L 177.1,304.9 L 179.9,305.4 L 182.7,305.9 L 185.5,306.4 L 188.3,306.9 L 191.1,307.4 L 194.0,307.9 L 196.8,308.4 L 199.6,308.9 L 202.4,309.4 L 205.2,309.9 L 208.1,310.4 L 210.9,310.9 L 213.7,311.4 L 216.5,311.9 L 219.3,312.4 L 222.1,312.9 L 225.0,313.4 L 227.8,313.9 L 230.6,314.4 L 233.4,314.9 L 236.2,315.4 L 239.0,315.9 L 241.9,316.4 L 244.7,316.9 L 247.5,317.4 L 250.3,317.9 L 253.1,318.4 L 255.9,318.8 L 258.8,319.3 L 261.6,319.8 L 264.4,320.3 L 267.2,320.8 L 270.0,321.3 L 272.8,321.8 L 275.7,322.3 L 278.5,322.8 L 281.3,323.3 L 284.1,323.8 L 286.9,324.3 L 289.8,324.8 L 292.6,325.3 L 295.4,325.8 L 298.2,326.3 L 301.0,326.8 L 303.8,327.3 L 306.7,327.8 L 309.5,328.3 L 312.3,328.8 L 315.1,329.3 L 317.9,329.8 L 320.7,330.3 L 323.6,330.8 L 326.4,331.2 L 329.2,331.5 L 332.0,331.7 L 334.8,332.0 L 337.6,332.2 L 340.5,332.5 L 343.3,332.7 L 346.1,332.9 L 348.9,333.2 L 351.7,333.4 L 354.6,333.7 L 357.4,333.9 L 360.2,334.1 L 363.0,334.4 L 365.8,334.6 L 368.6,334.9 L 371.5,335.1 L 374.3,335.3 L 377.1,335.6 L 379.9,335.8 L 382.7,336.1 L 385.5,336.3 L 388.4,336.6 L 391.2,336.8 L 394.0,337.0 L 396.8,337.3 L 399.6,337.5 L 402.4,337.8 L 405.3,338.0 L 408.1,338.2 L 410.9,338.5 L 413.7,338.7 L 416.5,339.0 L 419.4,339.2 L 422.2,339.4 L 425.0,339.7 L 427.8,339.9 L 430.6,340.2 L 433.4,340.4 L 436.3,340.7 L 439.1,340.9 L 441.9,341.1 L 444.7,341.4 L 447.5,341.6 L 450.3,341.9 L 453.2,342.1 L 456.0,342.3 L 458.8,342.6 L 461.6,342.8 L 464.4,343.1 L 467.2,343.3 L 470.1,343.5 L 472.9,343.8 L 475.7,344.0 L 478.5,344.3 L 481.3,344.5 L 484.2,344.8 L 487.0,345.0 L 489.8,345.2 L 492.6,345.5 L 495.4,345.7 L 498.2,346.0 L 501.1,346.2 L 503.9,346.4 L 506.7,346.7 L 509.5,346.9 L 512.3,347.2 L 515.1,347.4 L 518.0,347.6 L 520.8,347.9 L 523.6,348.1 L 526.4,348.4 L 529.2,348.6 L 532.0,348.9 L 534.9,349.1 L 537.7,349.3 L 540.5,349.6 L 543.3,349.8 L 546.1,350.1 L 548.9,350.3 L 551.8,350.5 L 554.6,350.8 L 557.4,351.0 L 560.2,351.3 L 563.0,351.5 L 565.9,351.7 L 568.7,352.0 L 571.5,352.2 L 574.3,352.5 L 577.1,352.7 L 579.9,353.0 L 582.8,353.2 L 585.6,353.4 L 588.4,353.7 L 591.2,353.9 L 594.0,354.2 L 596.8,354.4 L 599.7,354.6 L 602.5,354.9 L 605.3,355.1 L 608.1,355.4 L 610.9,355.6 L 613.7,355.8 L 616.6,356.1 L 619.4,356.3 L 622.2,356.6 L 625.0,356.8 L 627.8,357.1 L 630.7,357.3 L 633.5,357.5 L 636.3,357.8 L 639.1,359.2 L 641.9,364.6 L 644.7,370.1 L 647.6,375.5 L 650.4,381.0 L 653.2,386.4 L 656.0,391.9 L 658.8,395.0 L 661.6,395.0 L 664.5,395.0 L 667.3,395.0 L 670.1,395.0 L 672.9,395.0 L 675.7,395.0 L 678.5,395.0 L 681.4,395.0 L 684.2,395.0 L 687.0,395.0" class="rho"/>
<path d="M 143.6,168.3 L 217.3,266.7 L 290.2,320.3 L 363.8,361.0 L 437.4,376.5 L 511.1,384.6 L 584.7,389.5 L 657.6,395.0" class="phot"/>
<path d="M 143.6,178.6 L 217.3,168.3 L 290.2,181.3 L 363.8,227.4 L 437.4,279.2 L 511.1,302.3 L 584.7,327.3 L 657.6,367.1" class="mbar"/>
<path d="M 143.6,172.8 L 217.3,168.3 L 290.2,173.9 L 363.8,195.4 L 437.4,221.5 L 511.1,235.9 L 584.7,254.8 L 657.6,282.9" class="mph"/>
<path d="M 76.2,331.4 L 82.3,308.1 L 88.5,292.2 L 94.7,279.8 L 100.8,270.1 L 107.0,262.4 L 113.2,256.4 L 119.4,251.8 L 125.5,247.3 L 131.7,242.7 L 137.9,238.1 L 144.0,233.5 L 150.2,228.9 L 156.4,224.5 L 162.6,220.2 L 168.7,216.0 L 174.9,211.9 L 181.1,208.0 L 187.2,204.1 L 193.4,200.4 L 199.6,196.8 L 205.7,193.3 L 211.9,189.9 L 218.1,186.6 L 224.3,183.5 L 230.4,180.4 L 236.6,177.4 L 242.8,174.5 L 248.9,171.7 L 255.1,169.0 L 261.3,166.4 L 267.4,163.9 L 273.6,161.4 L 279.8,159.1 L 286.0,156.8 L 292.1,154.6 L 298.3,152.4 L 304.5,150.3 L 310.6,148.3 L 316.8,146.4 L 323.0,144.5 L 329.1,142.7 L 335.3,141.0 L 341.5,139.2 L 347.7,137.5 L 353.8,135.8 L 360.0,134.1 L 366.2,132.5 L 372.3,130.8 L 378.5,129.2 L 384.7,127.7 L 390.8,126.1 L 397.0,124.6 L 403.2,123.1 L 409.3,121.6 L 415.5,120.2 L 421.7,118.8 L 427.9,117.4 L 434.0,116.0 L 440.2,114.7 L 446.4,113.3 L 452.5,112.0 L 458.7,110.8 L 464.9,109.5 L 471.1,108.3 L 477.2,107.1 L 483.4,106.0 L 489.6,104.8 L 495.7,103.7 L 501.9,102.6 L 508.1,101.5 L 514.2,100.5 L 520.4,99.5 L 526.6,98.5 L 532.8,97.5 L 538.9,96.5 L 545.1,95.6 L 551.3,94.7 L 557.4,93.8 L 563.6,93.0 L 569.8,92.1 L 575.9,91.3 L 582.1,90.5 L 588.3,89.7 L 594.4,89.0 L 600.6,88.3 L 606.8,87.6 L 613.0,86.9 L 619.1,86.2 L 625.3,85.6 L 631.5,85.0 L 637.6,84.4 L 643.8,84.1 L 650.0,84.4 L 656.1,85.5 L 662.3,87.1 L 668.5,88.7 L 674.7,90.3 L 680.8,91.9 L 687.0,93.3" class="nt"/>
<path d="M 143.6,279.1 L 217.3,225.7 L 290.2,190.5 L 363.8,164.4 L 437.4,153.0 L 511.1,139.1 L 584.7,128.1 L 657.6,128.1" class="mond"/>
<path d="M 75.1,363.8 L 80.3,341.3 L 85.4,317.7 L 90.6,296.3 L 95.7,277.7 L 100.8,262.4 L 106.0,249.9 L 111.1,240.3 L 116.3,233.2 L 121.4,227.9 L 126.6,223.9 L 131.7,220.7 L 136.8,217.8 L 142.0,215.0 L 147.1,212.1 L 152.3,209.1 L 157.4,205.9 L 162.6,202.5 L 167.7,199.1 L 172.8,195.5 L 178.0,191.9 L 183.1,188.3 L 188.3,184.6 L 193.4,181.0 L 198.5,177.4 L 203.7,173.8 L 208.8,170.3 L 214.0,166.9 L 219.1,163.6 L 224.3,160.4 L 229.4,157.2 L 234.5,154.2 L 239.7,151.4 L 244.8,148.6 L 250.0,146.0 L 255.1,143.5 L 260.2,141.1 L 265.4,138.9 L 270.5,136.9 L 275.7,135.0 L 280.8,133.3 L 286.0,131.8 L 291.1,130.5 L 296.2,129.4 L 301.4,128.4 L 306.5,127.7 L 311.7,127.2 L 316.8,126.9 L 321.9,126.7 L 327.1,126.7 L 332.2,126.7 L 337.4,126.7 L 342.5,126.8 L 347.7,126.8 L 352.8,126.8 L 357.9,126.7 L 363.1,126.5 L 368.2,126.4 L 373.4,126.1 L 378.5,125.9 L 383.6,125.6 L 388.8,125.2 L 393.9,124.9 L 399.1,124.5 L 404.2,124.2 L 409.4,123.8 L 414.5,123.4 L 419.6,123.0 L 424.8,122.6 L 429.9,122.2 L 435.1,121.8 L 440.2,121.4 L 445.3,120.9 L 450.5,120.5 L 455.6,120.1 L 460.8,119.7 L 465.9,119.3 L 471.1,118.9 L 476.2,118.5 L 481.3,118.1 L 486.5,117.7 L 491.6,117.3 L 496.8,116.9 L 501.9,116.5 L 507.0,116.1 L 512.2,115.6 L 517.3,115.2 L 522.5,114.7 L 527.6,114.2 L 532.8,113.7 L 537.9,113.1 L 543.0,112.5 L 548.2,111.8 L 553.3,111.1 L 558.5,110.3 L 563.6,109.4 L 568.7,108.4 L 573.9,107.3 L 579.0,106.1 L 584.2,104.7 L 589.3,103.1 L 594.4,101.3 L 599.6,99.3 L 604.7,97.0 L 609.9,94.5 L 615.0,91.8 L 620.2,89.1 L 625.3,86.6 L 630.4,84.5 L 635.6,83.4 L 640.7,83.6 L 645.9,85.3 L 651.0,88.8 L 656.1,93.8 L 661.3,99.9 L 666.4,106.8 L 671.6,113.9 L 676.7,121.0 L 681.9,128.0 L 687.0,134.6" class="fw"/>
<line x1="143.63" y1="201.07" x2="143.63" y2="223.23" class="err"/>
<line x1="140.63" y1="201.07" x2="146.63" y2="201.07" class="err"/>
<line x1="140.63" y1="223.23" x2="146.63" y2="223.23" class="err"/>
<circle cx="143.63" cy="212.15" r="2.5" class="obs"/>
<line x1="217.27" y1="153.49" x2="217.27" y2="173.04" class="err"/>
<line x1="214.27" y1="153.49" x2="220.27" y2="153.49" class="err"/>
<line x1="214.27" y1="173.04" x2="220.27" y2="173.04" class="err"/>
<circle cx="217.27" cy="163.26" r="2.5" class="obs"/>
<line x1="290.18" y1="127.09" x2="290.18" y2="136.86" class="err"/>
<line x1="287.18" y1="127.09" x2="293.18" y2="127.09" class="err"/>
<line x1="287.18" y1="136.86" x2="293.18" y2="136.86" class="err"/>
<circle cx="290.18" cy="131.97" r="2.5" class="obs"/>
<line x1="363.81" y1="120.24" x2="363.81" y2="130.02" class="err"/>
<line x1="360.81" y1="120.24" x2="366.81" y2="120.24" class="err"/>
<line x1="360.81" y1="130.02" x2="366.81" y2="130.02" class="err"/>
<circle cx="363.81" cy="125.13" r="2.5" class="obs"/>
<line x1="437.44" y1="117.31" x2="437.44" y2="127.09" class="err"/>
<line x1="434.44" y1="117.31" x2="440.44" y2="117.31" class="err"/>
<line x1="434.44" y1="127.09" x2="440.44" y2="127.09" class="err"/>
<circle cx="437.44" cy="122.20" r="2.5" class="obs"/>
<line x1="511.08" y1="109.81" x2="511.08" y2="119.59" class="err"/>
<line x1="508.08" y1="109.81" x2="514.08" y2="109.81" class="err"/>
<line x1="508.08" y1="119.59" x2="514.08" y2="119.59" class="err"/>
<circle cx="511.08" cy="114.70" r="2.5" class="obs"/>
<line x1="584.71" y1="99.71" x2="584.71" y2="114.70" class="err"/>
<line x1="581.71" y1="99.71" x2="587.71" y2="99.71" class="err"/>
<line x1="581.71" y1="114.70" x2="587.71" y2="114.70" class="err"/>
<circle cx="584.71" cy="107.20" r="2.5" class="obs"/>
<line x1="657.62" y1="91.88" x2="657.62" y2="111.44" class="err"/>
<line x1="654.62" y1="91.88" x2="660.62" y2="91.88" class="err"/>
<line x1="654.62" y1="111.44" x2="660.62" y2="111.44" class="err"/>
<circle cx="657.62" cy="101.66" r="2.5" class="obs"/>
<g class="legend">
<line x1="82" y1="69" x2="106" y2="69" class="fw"/>
<text x="112" y="73" class="lbl-l">framework: 0.8 km/s, 1.0%, 0.31σ</text>
<line x1="82" y1="87" x2="106" y2="87" class="nt"/>
<text x="112" y="91" class="lbl-l">Newtonian: 5.3 km/s, 7.3%, 2.57σ</text>
<line x1="82" y1="105" x2="106" y2="105" class="mond"/>
<text x="112" y="109" class="lbl-m">MOND/RAR: 13.7 km/s, 19.7%, 6.75σ</text>
<circle cx="94" cy="123" r="2.5" class="obs"/>
<text x="112" y="127" class="lbl">observed V±err</text>
</g>
<g class="legend">
<line x1="472" y1="69" x2="496" y2="69" class="rho"/>
<text x="502" y="73" class="lbl-r">ρ(r) raw</text>
<line x1="472" y1="87" x2="496" y2="87" class="phot"/>
<text x="502" y="91" class="lbl-p">photometric baryonic profile</text>
<line x1="472" y1="105" x2="496" y2="105" class="mbar"/>
<text x="502" y="109" class="lbl-m">MOND baryonic annulus</text>
<line x1="472" y1="123" x2="496" y2="123" class="mph"/>
<text x="502" y="127" class="lbl-m">MOND phantom annulus</text>
<text x="472" y="147" class="lbl-r">ρ peak: 352 M☉/pc²</text>
<text x="472" y="163" class="lbl-p">phot peak: 27.20 (arb.)</text>
<text x="472" y="179" class="lbl-m">Σbar peak: 25.18 M☉/pc²</text>
<text x="472" y="195" class="lbl-m">Σphantom peak: 71.11 M☉/pc²</text>
</g>
<rect x="775" y="55" width="170" height="170" class="preview-bg"/>
<defs><radialGradient id="g_UGC02259" cx="0.5" cy="0.5" r="0.5">
  <stop offset="0.0000" stop-color="rgb(255,64,64)"/>
  <stop offset="0.0313" stop-color="rgb(255,64,64)"/>
  <stop offset="0.0625" stop-color="rgb(255,64,64)"/>
  <stop offset="0.0938" stop-color="rgb(255,64,64)"/>
  <stop offset="0.1250" stop-color="rgb(254,64,64)"/>
  <stop offset="0.1563" stop-color="rgb(247,62,62)"/>
  <stop offset="0.1875" stop-color="rgb(240,60,60)"/>
  <stop offset="0.2188" stop-color="rgb(233,58,58)"/>
  <stop offset="0.2500" stop-color="rgb(226,57,57)"/>
  <stop offset="0.2813" stop-color="rgb(219,55,55)"/>
  <stop offset="0.3125" stop-color="rgb(212,53,53)"/>
  <stop offset="0.3438" stop-color="rgb(205,51,51)"/>
  <stop offset="0.3750" stop-color="rgb(199,50,50)"/>
  <stop offset="0.4063" stop-color="rgb(192,48,48)"/>
  <stop offset="0.4375" stop-color="rgb(185,46,46)"/>
  <stop offset="0.4688" stop-color="rgb(182,46,46)"/>
  <stop offset="0.5000" stop-color="rgb(178,45,45)"/>
  <stop offset="0.5313" stop-color="rgb(175,44,44)"/>
  <stop offset="0.5625" stop-color="rgb(172,43,43)"/>
  <stop offset="0.5938" stop-color="rgb(168,42,42)"/>
  <stop offset="0.6250" stop-color="rgb(165,41,41)"/>
  <stop offset="0.6563" stop-color="rgb(162,41,41)"/>
  <stop offset="0.6875" stop-color="rgb(158,40,40)"/>
  <stop offset="0.7188" stop-color="rgb(155,39,39)"/>
  <stop offset="0.7500" stop-color="rgb(152,38,38)"/>
  <stop offset="0.7813" stop-color="rgb(148,37,37)"/>
  <stop offset="0.8125" stop-color="rgb(145,36,36)"/>
  <stop offset="0.8438" stop-color="rgb(142,36,36)"/>
  <stop offset="0.8750" stop-color="rgb(138,35,35)"/>
  <stop offset="0.9063" stop-color="rgb(135,34,34)"/>
  <stop offset="0.9375" stop-color="rgb(132,33,33)"/>
  <stop offset="0.9688" stop-color="rgb(125,31,31)"/>
  <stop offset="1.0000" stop-color="rgb(0,0,0)"/>
</radialGradient></defs>
<circle cx="860" cy="140" r="81" fill="url(#g_UGC02259)"/>
<text x="860" y="49" text-anchor="middle" class="preview-lbl">face-on luminance from ρ(r)</text>
<text x="860" y="239" text-anchor="middle" class="preview-lbl">edge at r = 8.1 kpc</text>
</svg>