<svg xmlns="http://www.w3.org/2000/svg" viewBox="0 0 960 450" width="960" height="450" font-family="sans-serif" font-size="12">
<style>
  .ax { stroke: #333; stroke-width: 1; fill: none; }
  .grid { stroke: #ddd; stroke-width: 0.5; fill: none; }
  .lbl { fill: #333; }
  .lbl-l { fill: #0066cc; }
  .lbl-r { fill: #b03030; }
  .obs { fill: #222; }
  .err { stroke: #555; stroke-width: 0.8; fill: none; }
  .fw { stroke: #0066cc; stroke-width: 2.2; fill: none; }
  .nt { stroke: #cc6600; stroke-width: 1.6; fill: none; stroke-dasharray: 5,3; }
  .mond { stroke: #7b2cbf; stroke-width: 1.8; fill: none; stroke-dasharray: 7,3; }
  .lbl-p { fill: #cc7000; }
  .lbl-m { fill: #7b2cbf; }
  .rho { stroke: #b03030; stroke-width: 2.0; fill: none; }
  .phot { stroke: #cc7000; stroke-width: 1.8; fill: none; }
  .mbar { stroke: #8e44ad; stroke-width: 1.8; fill: none; opacity: 0.9; }
  .mph { stroke: #c77dff; stroke-width: 1.6; fill: none; stroke-dasharray: 4,3; opacity: 0.95; }
  .title { fill: #111; font-size: 16px; font-weight: 600; }
  .subtitle { fill: #555; font-size: 11px; }
  .preview-bg { fill: #000; }
  .preview-lbl { fill: #888; font-size: 10px; }
  .legend { font-size: 11px; }
</style>
<text x="378.5" y="22" text-anchor="middle" class="title">UGC02885</text>
<text x="378.5" y="38" text-anchor="middle" class="subtitle">rMax=74.1 kpc, N=19, FW=14.4 km/s, 5.2%, 1.44σ, MOND=16.8 km/s, 5.6%, 1.68σ, amp=1262</text>
<line x1="70" y1="395.0" x2="687" y2="395.0" class="grid"/>
<text x="64" y="399.0" text-anchor="end" class="lbl-l">0</text>
<line x1="70" y1="327.0" x2="687" y2="327.0" class="grid"/>
<text x="64" y="331.0" text-anchor="end" class="lbl-l">75</text>
<line x1="70" y1="259.0" x2="687" y2="259.0" class="grid"/>
<text x="64" y="263.0" text-anchor="end" class="lbl-l">150</text>
<line x1="70" y1="191.0" x2="687" y2="191.0" class="grid"/>
<text x="64" y="195.0" text-anchor="end" class="lbl-l">225</text>
<line x1="70" y1="123.0" x2="687" y2="123.0" class="grid"/>
<text x="64" y="127.0" text-anchor="end" class="lbl-l">300</text>
<line x1="70" y1="55.0" x2="687" y2="55.0" class="grid"/>
<text x="64" y="59.0" text-anchor="end" class="lbl-l">375</text>
<text x="693" y="399.0" text-anchor="start" class="lbl-r">0.0</text>
<text x="693" y="353.7" text-anchor="start" class="lbl-r">0.2</text>
<text x="693" y="308.3" text-anchor="start" class="lbl-r">0.4</text>
<text x="693" y="263.0" text-anchor="start" class="lbl-r">0.6</text>
<text x="693" y="217.7" text-anchor="start" class="lbl-r">0.8</text>
<text x="693" y="172.3" text-anchor="start" class="lbl-r">1.0</text>
<line x1="70.0" y1="55" x2="70.0" y2="395" class="grid"/>
<text x="70.0" y="411" text-anchor="middle" class="lbl">0.0</text>
<line x1="172.8" y1="55" x2="172.8" y2="395" class="grid"/>
<text x="172.8" y="411" text-anchor="middle" class="lbl">13.0</text>
<line x1="275.7" y1="55" x2="275.7" y2="395" class="grid"/>
<text x="275.7" y="411" text-anchor="middle" class="lbl">26.0</text>
<line x1="378.5" y1="55" x2="378.5" y2="395" class="grid"/>
<text x="378.5" y="411" text-anchor="middle" class="lbl">39.0</text>
<line x1="481.3" y1="55" x2="481.3" y2="395" class="grid"/>
<text x="481.3" y="411" text-anchor="middle" class="lbl">52.0</text>
<line x1="584.2" y1="55" x2="584.2" y2="395" class="grid"/>
<text x="584.2" y="411" text-anchor="middle" class="lbl">64.9</text>
<line x1="687.0" y1="55" x2="687.0" y2="395" class="grid"/>
<text x="687.0" y="411" text-anchor="middle" class="lbl">77.9</text>
<text x="378.5" y="438" text-anchor="middle" class="lbl">radius (kpc)</text>
<text x="16" y="225" text-anchor="middle" class="lbl-l" transform="rotate(-90, 16, 225)">velocity (km/s)</text>
<text x="724" y="225" text-anchor="middle" class="lbl-r" transform="rotate(-90, 724, 225)">profiles (normalized to peak)</text>
<rect x="70" y="55" width="617" height="340" class="ax"/>
<path d="M 70.0,168.3 L 72.8,194.9 L 75.6,221.4 L 78.5,247.9 L 81.3,274.4 L 84.1,301.0 L 86.9,327.5 L 89.7,345.1 L 92.5,345.4 L 95.4,345.7 L 98.2,346.0 L 101.0,346.3 L 103.8,346.5 L 106.6,346.8 L 109.4,347.1 L 112.3,347.4 L 115.1,347.7 L 117.9,348.0 L 120.7,348.2 L 123.5,348.5 L 126.3,348.8 L 129.2,349.1 L 132.0,349.4 L 134.8,349.7 L 137.6,349.9 L 140.4,350.2 L 143.3,350.5 L 146.1,350.8 L 148.9,351.1 L 151.7,351.4 L 154.5,351.6 L 157.3,351.9 L 160.2,352.2 L 163.0,352.5 L 165.8,352.8 L 168.6,353.1 L 171.4,353.4 L 174.2,353.6 L 177.1,353.9 L 179.9,354.2 L 182.7,354.5 L 185.5,354.8 L 188.3,355.1 L 191.1,355.3 L 194.0,355.6 L 196.8,355.9 L 199.6,356.2 L 202.4,356.5 L 205.2,356.8 L 208.1,357.0 L 210.9,357.3 L 213.7,357.6 L 216.5,357.9 L 219.3,358.2 L 222.1,358.5 L 225.0,358.7 L 227.8,359.0 L 230.6,359.3 L 233.4,359.6 L 236.2,359.9 L 239.0,360.2 L 241.9,360.4 L 244.7,360.7 L 247.5,361.0 L 250.3,361.3 L 253.1,361.6 L 255.9,361.9 L 258.8,362.1 L 261.6,362.2 L 264.4,362.3 L 267.2,362.4 L 270.0,362.5 L 272.8,362.6 L 275.7,362.7 L 278.5,362.9 L 281.3,363.0 L 284.1,363.1 L 286.9,363.2 L 289.8,363.3 L 292.6,363.4 L 295.4,363.5 L 298.2,363.6 L 301.0,363.8 L 303.8,363.9 L 306.7,364.0 L 309.5,364.1 L 312.3,364.2 L 315.1,364.3 L 317.9,364.4 L 320.7,364.5 L 323.6,364.7 L 326.4,364.8 L 329.2,364.9 L 332.0,365.0 L 334.8,365.1 L 337.6,365.2 L 340.5,365.3 L 343.3,365.4 L 346.1,365.6 L 348.9,365.7 L 351.7,365.8 L 354.6,365.9 L 357.4,366.0 L 360.2,366.1 L 363.0,366.2 L 365.8,366.3 L 368.6,366.5 L 371.5,366.6 L 374.3,366.7 L 377.1,366.8 L 379.9,366.9 L 382.7,367.0 L 385.5,367.1 L 388.4,367.2 L 391.2,367.4 L 394.0,367.5 L 396.8,367.6 L 399.6,367.7 L 402.4,367.8 L 405.3,367.9 L 408.1,368.0 L 410.9,368.1 L 413.7,368.3 L 416.5,368.4 L 419.4,368.5 L 422.2,368.6 L 425.0,368.7 L 427.8,368.8 L 430.6,368.9 L 433.4,369.0 L 436.3,369.2 L 439.1,369.3 L 441.9,369.4 L 444.7,369.5 L 447.5,369.6 L 450.3,369.7 L 453.2,369.9 L 456.0,370.0 L 458.8,370.2 L 461.6,370.3 L 464.4,370.5 L 467.2,370.6 L 470.1,370.8 L 472.9,370.9 L 475.7,371.1 L 478.5,371.2 L 481.3,371.4 L 484.2,371.5 L 487.0,371.7 L 489.8,371.8 L 492.6,372.0 L 495.4,372.1 L 498.2,372.3 L 501.1,372.4 L 503.9,372.6 L 506.7,372.8 L 509.5,372.9 L 512.3,373.1 L 515.1,373.2 L 518.0,373.4 L 520.8,373.5 L 523.6,373.7 L 526.4,373.8 L 529.2,374.0 L 532.0,374.1 L 534.9,374.3 L 537.7,374.4 L 540.5,374.6 L 543.3,374.7 L 546.1,374.9 L 548.9,375.0 L 551.8,375.2 L 554.6,375.3 L 557.4,375.5 L 560.2,375.6 L 563.0,375.8 L 565.9,375.9 L 568.7,376.1 L 571.5,376.2 L 574.3,376.4 L 577.1,376.6 L 579.9,376.7 L 582.8,376.9 L 585.6,377.0 L 588.4,377.2 L 591.2,377.3 L 594.0,377.5 L 596.8,377.6 L 599.7,377.8 L 602.5,377.9 L 605.3,378.1 L 608.1,378.2 L 610.9,378.4 L 613.7,378.5 L 616.6,378.7 L 619.4,378.8 L 622.2,379.0 L 625.0,379.1 L 627.8,379.3 L 630.7,379.4 L 633.5,379.6 L 636.3,379.7 L 639.1,379.9 L 641.9,380.0 L 644.7,380.2 L 647.6,380.3 L 650.4,380.5 L 653.2,384.1 L 656.0,391.0 L 658.8,395.0 L 661.6,395.0 L 664.5,395.0 L 667.3,395.0 L 670.1,395.0 L 672.9,395.0 L 675.7,395.0 L 678.5,395.0 L 681.4,395.0 L 684.2,395.0 L 687.0,395.0" class="rho"/>
<path d="M 83.5,168.3 L 97.0,315.8 L 124.0,362.4 L 178.2,383.7 L 224.3,389.5 L 255.0,390.7 L 285.7,392.2 L 317.2,393.3 L 347.9,393.7 L 378.5,394.1 L 409.3,394.4 L 440.0,394.5 L 471.5,394.6 L 502.1,394.7 L 532.9,394.8 L 563.6,394.9 L 594.2,394.9 L 625.7,394.9 L 656.4,395.0" class="phot"/>
<path d="M 83.5,168.3 L 97.0,276.7 L 124.0,353.4 L 178.2,377.0 L 224.3,386.2 L 255.0,389.0 L 285.7,390.7 L 317.2,392.3 L 347.9,392.9 L 378.5,393.0 L 409.3,393.5 L 440.0,394.1 L 471.5,393.4 L 502.1,393.0 L 532.9,393.7 L 563.6,394.4 L 594.2,394.5 L 625.7,394.3 L 656.4,394.5" class="mbar"/>
<path d="M 83.5,200.5 L 97.0,169.3 L 124.0,168.3 L 178.2,201.5 L 224.3,234.0 L 255.0,253.4 L 285.7,268.2 L 317.2,282.7 L 347.9,292.0 L 378.5,297.0 L 409.3,306.4 L 440.0,315.1 L 471.5,311.5 L 502.1,308.7 L 532.9,317.9 L 563.6,329.2 L 594.2,332.2 L 625.7,331.8 L 656.4,335.5" class="mph"/>
<path d="M 76.2,306.9 L 82.3,284.0 L 88.5,278.0 L 94.7,277.2 L 100.8,273.6 L 107.0,268.7 L 113.2,263.3 L 119.4,257.8 L 125.5,252.3 L 131.7,246.9 L 137.9,241.6 L 144.0,236.5 L 150.2,231.7 L 156.4,227.0 L 162.6,222.4 L 168.7,218.1 L 174.9,213.9 L 181.1,209.9 L 187.2,206.0 L 193.4,202.3 L 199.6,198.7 L 205.7,195.3 L 211.9,192.0 L 218.1,188.8 L 224.3,185.8 L 230.4,182.8 L 236.6,180.0 L 242.8,177.3 L 248.9,174.7 L 255.1,172.2 L 261.3,169.8 L 267.4,167.4 L 273.6,165.1 L 279.8,162.8 L 285.9,160.5 L 292.1,158.2 L 298.3,156.0 L 304.5,153.9 L 310.6,151.7 L 316.8,149.6 L 323.0,147.5 L 329.1,145.5 L 335.3,143.5 L 341.5,141.5 L 347.7,139.6 L 353.8,137.7 L 360.0,135.8 L 366.2,134.0 L 372.3,132.2 L 378.5,130.4 L 384.7,128.7 L 390.8,127.0 L 397.0,125.3 L 403.2,123.7 L 409.3,122.1 L 415.5,120.5 L 421.7,119.0 L 427.9,117.4 L 434.0,115.9 L 440.2,114.5 L 446.4,113.1 L 452.5,111.7 L 458.7,110.3 L 464.9,109.0 L 471.1,107.7 L 477.2,106.4 L 483.4,105.2 L 489.6,104.1 L 495.7,102.9 L 501.9,101.8 L 508.1,100.8 L 514.2,99.7 L 520.4,98.7 L 526.6,97.8 L 532.8,96.9 L 538.9,96.0 L 545.1,95.1 L 551.3,94.3 L 557.4,93.5 L 563.6,92.8 L 569.8,92.1 L 575.9,91.4 L 582.1,90.7 L 588.3,90.1 L 594.4,89.5 L 600.6,89.0 L 606.8,88.4 L 613.0,87.9 L 619.1,87.5 L 625.3,87.1 L 631.5,86.6 L 637.6,86.3 L 643.8,85.9 L 650.0,85.6 L 656.2,85.8 L 662.3,87.4 L 668.5,88.9 L 674.7,90.5 L 680.8,92.2 L 687.0,93.7" class="nt"/>
<path d="M 83.5,179.0 L 97.0,175.4 L 124.0,169.2 L 178.2,157.2 L 224.3,152.3 L 255.0,146.3 L 285.7,142.8 L 317.2,142.0 L 347.9,141.4 L 378.5,138.8 L 409.3,136.9 L 440.0,139.3 L 471.5,135.9 L 502.1,131.0 L 532.9,128.8 L 563.6,129.3 L 594.2,129.6 L 625.7,127.5 L 656.4,127.3" class="mond"/>
<path d="M 75.1,265.1 L 80.3,192.4 L 85.4,140.9 L 90.6,120.3 L 95.7,122.3 L 100.8,134.1 L 106.0,147.5 L 111.1,157.0 L 116.3,163.5 L 121.4,167.5 L 126.6,169.2 L 131.7,169.8 L 136.8,169.1 L 142.0,167.7 L 147.1,165.7 L 152.3,163.3 L 157.4,160.7 L 162.6,157.8 L 167.7,154.9 L 172.8,151.9 L 178.0,148.9 L 183.1,146.1 L 188.3,143.3 L 193.4,140.6 L 198.5,138.1 L 203.7,135.8 L 208.8,133.7 L 214.0,131.9 L 219.1,130.4 L 224.3,129.2 L 229.4,128.4 L 234.5,128.0 L 239.7,128.2 L 244.8,128.9 L 250.0,130.3 L 255.1,132.4 L 260.2,134.7 L 265.4,137.1 L 270.5,139.2 L 275.7,140.9 L 280.8,142.3 L 285.9,143.2 L 291.1,143.9 L 296.2,144.4 L 301.4,144.7 L 306.5,144.9 L 311.7,144.9 L 316.8,144.8 L 321.9,144.6 L 327.1,144.3 L 332.2,144.0 L 337.4,143.7 L 342.5,143.2 L 347.7,142.8 L 352.8,142.3 L 357.9,141.8 L 363.1,141.2 L 368.2,140.7 L 373.4,140.1 L 378.5,139.5 L 383.6,138.9 L 388.8,138.2 L 393.9,137.6 L 399.1,136.9 L 404.2,136.2 L 409.4,135.5 L 414.5,134.7 L 419.6,133.9 L 424.8,133.0 L 429.9,132.0 L 435.1,130.9 L 440.2,129.8 L 445.3,128.5 L 450.5,127.2 L 455.6,125.9 L 460.8,124.7 L 465.9,123.7 L 471.1,123.0 L 476.2,122.4 L 481.3,122.0 L 486.5,121.7 L 491.6,121.6 L 496.8,121.6 L 501.9,121.7 L 507.0,121.9 L 512.2,122.2 L 517.3,122.5 L 522.5,122.9 L 527.6,123.4 L 532.8,124.0 L 537.9,124.6 L 543.0,125.2 L 548.2,125.9 L 553.3,126.6 L 558.5,127.3 L 563.6,128.0 L 568.7,128.8 L 573.9,129.5 L 579.0,130.2 L 584.2,130.8 L 589.3,131.3 L 594.4,131.7 L 599.6,131.9 L 604.7,131.8 L 609.9,131.4 L 615.0,130.6 L 620.2,129.1 L 625.3,127.0 L 630.4,124.0 L 635.6,120.6 L 640.7,117.3 L 645.9,115.5 L 651.0,116.3 L 656.1,120.8 L 661.3,129.0 L 666.4,139.6 L 671.6,151.4 L 676.7,163.0 L 681.9,173.6 L 687.0,183.0" class="fw"/>
<line x1="83.46" y1="109.42" x2="83.46" y2="127.55" class="err"/>
<line x1="80.46" y1="109.42" x2="86.46" y2="109.42" class="err"/>
<line x1="80.46" y1="127.55" x2="86.46" y2="127.55" class="err"/>
<circle cx="83.46" cy="118.48" r="2.5" class="obs"/>
<line x1="97.00" y1="152.94" x2="97.00" y2="171.07" class="err"/>
<line x1="94.00" y1="152.94" x2="100.00" y2="152.94" class="err"/>
<line x1="94.00" y1="171.07" x2="100.00" y2="171.07" class="err"/>
<circle cx="97.00" cy="162.00" r="2.5" class="obs"/>
<line x1="124.00" y1="153.84" x2="124.00" y2="171.97" class="err"/>
<line x1="121.00" y1="153.84" x2="127.00" y2="153.84" class="err"/>
<line x1="121.00" y1="171.97" x2="127.00" y2="171.97" class="err"/>
<circle cx="124.00" cy="162.91" r="2.5" class="obs"/>
<line x1="178.23" y1="140.24" x2="178.23" y2="158.38" class="err"/>
<line x1="175.23" y1="140.24" x2="181.23" y2="140.24" class="err"/>
<line x1="175.23" y1="158.38" x2="181.23" y2="158.38" class="err"/>
<circle cx="178.23" cy="149.31" r="2.5" class="obs"/>
<line x1="224.31" y1="130.27" x2="224.31" y2="148.40" class="err"/>
<line x1="221.31" y1="130.27" x2="227.31" y2="130.27" class="err"/>
<line x1="221.31" y1="148.40" x2="227.31" y2="148.40" class="err"/>
<circle cx="224.31" cy="139.34" r="2.5" class="obs"/>
<line x1="254.95" y1="125.74" x2="254.95" y2="143.87" class="err"/>
<line x1="251.95" y1="125.74" x2="257.95" y2="125.74" class="err"/>
<line x1="251.95" y1="143.87" x2="257.95" y2="143.87" class="err"/>
<circle cx="254.95" cy="134.80" r="2.5" class="obs"/>
<line x1="285.67" y1="129.36" x2="285.67" y2="147.50" class="err"/>
<line x1="282.67" y1="129.36" x2="288.67" y2="129.36" class="err"/>
<line x1="282.67" y1="147.50" x2="288.67" y2="147.50" class="err"/>
<circle cx="285.67" cy="138.43" r="2.5" class="obs"/>
<line x1="317.18" y1="132.08" x2="317.18" y2="150.22" class="err"/>
<line x1="314.18" y1="132.08" x2="320.18" y2="132.08" class="err"/>
<line x1="314.18" y1="150.22" x2="320.18" y2="150.22" class="err"/>
<circle cx="317.18" cy="141.15" r="2.5" class="obs"/>
<line x1="347.90" y1="132.08" x2="347.90" y2="150.22" class="err"/>
<line x1="344.90" y1="132.08" x2="350.90" y2="132.08" class="err"/>
<line x1="344.90" y1="150.22" x2="350.90" y2="150.22" class="err"/>
<circle cx="347.90" cy="141.15" r="2.5" class="obs"/>
<line x1="378.54" y1="131.18" x2="378.54" y2="149.31" class="err"/>
<line x1="375.54" y1="131.18" x2="381.54" y2="131.18" class="err"/>
<line x1="375.54" y1="149.31" x2="381.54" y2="149.31" class="err"/>
<circle cx="378.54" cy="140.24" r="2.5" class="obs"/>
<line x1="409.26" y1="130.27" x2="409.26" y2="148.40" class="err"/>
<line x1="406.26" y1="130.27" x2="412.26" y2="130.27" class="err"/>
<line x1="406.26" y1="148.40" x2="412.26" y2="148.40" class="err"/>
<circle cx="409.26" cy="139.34" r="2.5" class="obs"/>
<line x1="439.98" y1="125.74" x2="439.98" y2="143.87" class="err"/>
<line x1="436.98" y1="125.74" x2="442.98" y2="125.74" class="err"/>
<line x1="436.98" y1="143.87" x2="442.98" y2="143.87" class="err"/>
<circle cx="439.98" cy="134.80" r="2.5" class="obs"/>
<line x1="471.49" y1="121.20" x2="471.49" y2="139.34" class="err"/>
<line x1="468.49" y1="121.20" x2="474.49" y2="121.20" class="err"/>
<line x1="468.49" y1="139.34" x2="474.49" y2="139.34" class="err"/>
<circle cx="471.49" cy="130.27" r="2.5" class="obs"/>
<line x1="502.13" y1="115.77" x2="502.13" y2="133.90" class="err"/>
<line x1="499.13" y1="115.77" x2="505.13" y2="115.77" class="err"/>
<line x1="499.13" y1="133.90" x2="505.13" y2="133.90" class="err"/>
<circle cx="502.13" cy="124.83" r="2.5" class="obs"/>
<line x1="532.85" y1="115.77" x2="532.85" y2="133.90" class="err"/>
<line x1="529.85" y1="115.77" x2="535.85" y2="115.77" class="err"/>
<line x1="529.85" y1="133.90" x2="535.85" y2="133.90" class="err"/>
<circle cx="532.85" cy="124.83" r="2.5" class="obs"/>
<line x1="563.57" y1="115.77" x2="563.57" y2="133.90" class="err"/>
<line x1="560.57" y1="115.77" x2="566.57" y2="115.77" class="err"/>
<line x1="560.57" y1="133.90" x2="566.57" y2="133.90" class="err"/>
<circle cx="563.57" cy="124.83" r="2.5" class="obs"/>
<line x1="594.21" y1="115.77" x2="594.21" y2="133.90" class="err"/>
<line x1="591.21" y1="115.77" x2="597.21" y2="115.77" class="err"/>
<line x1="591.21" y1="133.90" x2="597.21" y2="133.90" class="err"/>
<circle cx="594.21" cy="124.83" r="2.5" class="obs"/>
<line x1="625.73" y1="115.77" x2="625.73" y2="133.90" class="err"/>
<line x1="622.73" y1="115.77" x2="628.73" y2="115.77" class="err"/>
<line x1="622.73" y1="133.90" x2="628.73" y2="133.90" class="err"/>
<circle cx="625.73" cy="124.83" r="2.5" class="obs"/>
<line x1="656.45" y1="115.77" x2="656.45" y2="133.90" class="err"/>
<line x1="653.45" y1="115.77" x2="659.45" y2="115.77" class="err"/>
<line x1="653.45" y1="133.90" x2="659.45" y2="133.90" class="err"/>
<circle cx="656.45" cy="124.83" r="2.5" class="obs"/>
<g class="legend">
<line x1="82" y1="69" x2="106" y2="69" class="fw"/>
<text x="112" y="73" class="lbl-l">framework: 14.4 km/s, 5.2%, 1.44σ</text>
<line x1="82" y1="87" x2="106" y2="87" class="nt"/>
<text x="112" y="91" class="lbl-l">Newtonian: 63.9 km/s, 22.7%, 6.39σ</text>
<line x1="82" y1="105" x2="106" y2="105" class="mond"/>
<text x="112" y="109" class="lbl-m">MOND/RAR: 16.8 km/s, 5.6%, 1.68σ</text>
<circle cx="94" cy="123" r="2.5" class="obs"/>
<text x="112" y="127" class="lbl">observed V±err</text>
</g>
<g class="legend">
<line x1="472" y1="69" x2="496" y2="69" class="rho"/>
<text x="502" y="73" class="lbl-r">ρ(r) raw</text>
<line x1="472" y1="87" x2="496" y2="87" class="phot"/>
<text x="502" y="91" class="lbl-p">photometric baryonic profile</text>
<line x1="472" y1="105" x2="496" y2="105" class="mbar"/>
<text x="502" y="109" class="lbl-m">MOND baryonic annulus</text>
<line x1="472" y1="123" x2="496" y2="123" class="mph"/>
<text x="502" y="127" class="lbl-m">MOND phantom annulus</text>
<text x="472" y="147" class="lbl-r">ρ peak: 1082 M☉/pc²</text>
<text x="472" y="163" class="lbl-p">phot peak: 1261.37 (arb.)</text>
<text x="472" y="179" class="lbl-m">Σbar peak: 1927.67 M☉/pc²</text>
<text x="472" y="195" class="lbl-m">Σphantom peak: 170.02 M☉/pc²</text>
</g>
<rect x="775" y="55" width="170" height="170" class="preview-bg"/>
<defs><radialGradient id="g_UGC02885" cx="0.5" cy="0.5" r="0.5">
  <stop offset="0.0000" stop-color="rgb(255,255,255)"/>
  <stop offset="0.0313" stop-color="rgb(107,107,107)"/>
  <stop offset="0.0625" stop-color="rgb(99,99,99)"/>
  <stop offset="0.0938" stop-color="rgb(97,97,97)"/>
  <stop offset="0.1250" stop-color="rgb(94,94,94)"/>
  <stop offset="0.1563" stop-color="rgb(92,92,92)"/>
  <stop offset="0.1875" stop-color="rgb(90,90,90)"/>
  <stop offset="0.2188" stop-color="rgb(87,87,87)"/>
  <stop offset="0.2500" stop-color="rgb(85,85,85)"/>
  <stop offset="0.2813" stop-color="rgb(82,82,82)"/>
  <stop offset="0.3125" stop-color="rgb(80,80,80)"/>
  <stop offset="0.3438" stop-color="rgb(79,79,79)"/>
  <stop offset="0.3750" stop-color="rgb(78,78,78)"/>
  <stop offset="0.4063" stop-color="rgb(77,77,77)"/>
  <stop offset="0.4375" stop-color="rgb(76,76,76)"/>
  <stop offset="0.4688" stop-color="rgb(75,75,75)"/>
  <stop offset="0.5000" stop-color="rgb(74,74,74)"/>
  <stop offset="0.5313" stop-color="rgb(73,73,73)"/>
  <stop offset="0.5625" stop-color="rgb(72,72,72)"/>
  <stop offset="0.5938" stop-color="rgb(71,71,71)"/>
  <stop offset="0.6250" stop-color="rgb(70,70,70)"/>
  <stop offset="0.6563" stop-color="rgb(69,69,69)"/>
  <stop offset="0.6875" stop-color="rgb(68,68,68)"/>
  <stop offset="0.7188" stop-color="rgb(66,66,66)"/>
  <stop offset="0.7500" stop-color="rgb(65,65,65)"/>
  <stop offset="0.7813" stop-color="rgb(64,64,64)"/>
  <stop offset="0.8125" stop-color="rgb(61,61,61)"/>
  <stop offset="0.8438" stop-color="rgb(58,58,58)"/>
  <stop offset="0.8750" stop-color="rgb(55,55,55)"/>
  <stop offset="0.9063" stop-color="rgb(52,52,52)"/>
  <stop offset="0.9375" stop-color="rgb(49,49,49)"/>
  <stop offset="0.9688" stop-color="rgb(46,46,46)"/>
  <stop offset="1.0000" stop-color="rgb(0,0,0)"/>
</radialGradient></defs>
<circle cx="860" cy="140" r="81" fill="url(#g_UGC02885)"/>
<text x="860" y="49" text-anchor="middle" class="preview-lbl">face-on luminance from ρ(r)</text>
<text x="860" y="239" text-anchor="middle" class="preview-lbl">edge at r = 74.2 kpc</text>
</svg>