<svg xmlns="http://www.w3.org/2000/svg" viewBox="0 0 890 420" width="890" height="420" font-family="sans-serif" font-size="12">
<style>
  .ax { stroke: #333; stroke-width: 1; fill: none; }
  .grid { stroke: #ddd; stroke-width: 0.5; fill: none; }
  .lbl { fill: #333; }
  .lbl-l { fill: #0066cc; }
  .lbl-r { fill: #b03030; }
  .obs { fill: #222; }
  .err { stroke: #555; stroke-width: 0.8; fill: none; }
  .fw { stroke: #0066cc; stroke-width: 2.2; fill: none; }
  .nt { stroke: #cc6600; stroke-width: 1.6; fill: none; stroke-dasharray: 5,3; }
  .lbl-s { fill: #cc7000; }
  .rho { stroke: #b03030; stroke-width: 2.0; fill: none; }
  .sig { stroke: #cc7000; stroke-width: 1.8; fill: none; }
  .title { fill: #111; font-size: 16px; font-weight: 600; }
  .subtitle { fill: #555; font-size: 11px; }
  .preview-bg { fill: #000; }
  .preview-lbl { fill: #888; font-size: 10px; }
  .legend { font-size: 11px; }
</style>
<text x="343.5" y="22" text-anchor="middle" class="title">UGC06923</text>
<text x="343.5" y="38" text-anchor="middle" class="subtitle">rMax=5.2 kpc, N=6, RMS=0.6 km/s (0.9%), amp=104</text>
<line x1="70" y1="365.0" x2="617" y2="365.0" class="grid"/>
<text x="64" y="369.0" text-anchor="end" class="lbl-l">0</text>
<line x1="70" y1="303.0" x2="617" y2="303.0" class="grid"/>
<text x="64" y="307.0" text-anchor="end" class="lbl-l">19</text>
<line x1="70" y1="241.0" x2="617" y2="241.0" class="grid"/>
<text x="64" y="245.0" text-anchor="end" class="lbl-l">38</text>
<line x1="70" y1="179.0" x2="617" y2="179.0" class="grid"/>
<text x="64" y="183.0" text-anchor="end" class="lbl-l">57</text>
<line x1="70" y1="117.0" x2="617" y2="117.0" class="grid"/>
<text x="64" y="121.0" text-anchor="end" class="lbl-l">76</text>
<line x1="70" y1="55.0" x2="617" y2="55.0" class="grid"/>
<text x="64" y="59.0" text-anchor="end" class="lbl-l">95</text>
<text x="623" y="369.0" text-anchor="start" class="lbl-r">0.0</text>
<text x="623" y="327.7" text-anchor="start" class="lbl-r">0.2</text>
<text x="623" y="286.3" text-anchor="start" class="lbl-r">0.4</text>
<text x="623" y="245.0" text-anchor="start" class="lbl-r">0.6</text>
<text x="623" y="203.7" text-anchor="start" class="lbl-r">0.8</text>
<text x="623" y="162.3" text-anchor="start" class="lbl-r">1.0</text>
<line x1="70.0" y1="55" x2="70.0" y2="365" class="grid"/>
<text x="70.0" y="381" text-anchor="middle" class="lbl">0.0</text>
<line x1="161.2" y1="55" x2="161.2" y2="365" class="grid"/>
<text x="161.2" y="381" text-anchor="middle" class="lbl">1.0</text>
<line x1="252.3" y1="55" x2="252.3" y2="365" class="grid"/>
<text x="252.3" y="381" text-anchor="middle" class="lbl">1.9</text>
<line x1="343.5" y1="55" x2="343.5" y2="365" class="grid"/>
<text x="343.5" y="381" text-anchor="middle" class="lbl">2.9</text>
<line x1="434.7" y1="55" x2="434.7" y2="365" class="grid"/>
<text x="434.7" y="381" text-anchor="middle" class="lbl">3.8</text>
<line x1="525.8" y1="55" x2="525.8" y2="365" class="grid"/>
<text x="525.8" y="381" text-anchor="middle" class="lbl">4.8</text>
<line x1="617.0" y1="55" x2="617.0" y2="365" class="grid"/>
<text x="617.0" y="381" text-anchor="middle" class="lbl">5.7</text>
<text x="343.5" y="408" text-anchor="middle" class="lbl">radius (kpc)</text>
<text x="16" y="210" text-anchor="middle" class="lbl-l" transform="rotate(-90, 16, 210)">velocity (km/s)</text>
<text x="874" y="210" text-anchor="middle" class="lbl-r" transform="rotate(-90, 874, 210)">mass profile (normalized to peak)</text>
<rect x="70" y="55" width="547" height="310" class="ax"/>
<path d="M 70.0,158.3 L 72.5,162.6 L 75.0,166.8 L 77.5,171.0 L 80.0,175.3 L 82.5,179.5 L 85.0,183.7 L 87.5,188.0 L 90.0,192.2 L 92.5,196.5 L 95.0,200.7 L 97.5,204.9 L 100.0,209.2 L 102.5,213.4 L 105.0,217.6 L 107.5,221.9 L 110.0,226.1 L 112.5,230.3 L 115.0,234.6 L 117.5,238.8 L 120.0,243.0 L 122.5,247.3 L 124.9,251.5 L 127.4,255.7 L 129.9,260.0 L 132.4,263.4 L 134.9,263.4 L 137.4,263.4 L 139.9,263.4 L 142.4,263.4 L 144.9,263.4 L 147.4,263.4 L 149.9,263.4 L 152.4,263.4 L 154.9,263.4 L 157.4,263.4 L 159.9,263.4 L 162.4,263.4 L 164.9,263.4 L 167.4,263.4 L 169.9,263.4 L 172.4,263.4 L 174.9,263.4 L 177.4,263.4 L 179.9,263.4 L 182.4,263.4 L 184.9,263.4 L 187.4,263.4 L 189.9,263.4 L 192.4,263.4 L 194.9,263.4 L 197.4,263.4 L 199.9,263.4 L 202.4,263.4 L 204.9,263.4 L 207.4,263.4 L 209.9,263.4 L 212.4,263.4 L 214.9,263.4 L 217.4,263.4 L 219.9,263.4 L 222.4,263.4 L 224.9,263.4 L 227.4,263.4 L 229.9,263.4 L 232.4,263.4 L 234.8,263.4 L 237.3,263.4 L 239.8,263.4 L 242.3,263.4 L 244.8,263.4 L 247.3,263.4 L 249.8,263.4 L 252.3,263.4 L 254.8,263.4 L 257.3,263.8 L 259.8,264.3 L 262.3,264.7 L 264.8,265.2 L 267.3,265.6 L 269.8,266.0 L 272.3,266.5 L 274.8,266.9 L 277.3,267.4 L 279.8,267.8 L 282.3,268.2 L 284.8,268.7 L 287.3,269.1 L 289.8,269.5 L 292.3,270.0 L 294.8,270.4 L 297.3,270.9 L 299.8,271.3 L 302.3,271.7 L 304.8,272.2 L 307.3,272.6 L 309.8,273.1 L 312.3,273.5 L 314.8,273.9 L 317.3,274.4 L 319.8,274.8 L 322.3,275.2 L 324.8,275.7 L 327.3,276.1 L 329.8,276.6 L 332.3,277.0 L 334.8,277.4 L 337.3,277.9 L 339.8,278.3 L 342.3,278.7 L 344.7,279.2 L 347.2,279.6 L 349.7,280.1 L 352.2,280.5 L 354.7,280.9 L 357.2,281.4 L 359.7,281.8 L 362.2,282.3 L 364.7,282.7 L 367.2,283.1 L 369.7,283.6 L 372.2,284.0 L 374.7,284.4 L 377.2,284.9 L 379.7,285.3 L 382.2,285.8 L 384.7,286.2 L 387.2,286.6 L 389.7,287.1 L 392.2,287.5 L 394.7,288.0 L 397.2,288.4 L 399.7,288.8 L 402.2,289.3 L 404.7,289.7 L 407.2,290.1 L 409.7,290.6 L 412.2,291.0 L 414.7,291.5 L 417.2,291.9 L 419.7,292.3 L 422.2,292.8 L 424.7,293.2 L 427.2,293.6 L 429.7,294.1 L 432.2,294.5 L 434.7,295.0 L 437.2,295.4 L 439.7,295.8 L 442.2,296.3 L 444.7,296.7 L 447.2,297.2 L 449.7,297.6 L 452.2,298.0 L 454.6,298.5 L 457.1,298.9 L 459.6,299.3 L 462.1,299.8 L 464.6,300.2 L 467.1,300.7 L 469.6,301.1 L 472.1,301.5 L 474.6,302.0 L 477.1,302.4 L 479.6,302.9 L 482.1,303.3 L 484.6,303.7 L 487.1,304.2 L 489.6,304.6 L 492.1,305.0 L 494.6,305.5 L 497.1,305.9 L 499.6,306.4 L 502.1,306.8 L 504.6,307.2 L 507.1,307.7 L 509.6,308.1 L 512.1,308.5 L 514.6,309.0 L 517.1,309.4 L 519.6,309.9 L 522.1,310.3 L 524.6,310.7 L 527.1,311.2 L 529.6,311.6 L 532.1,312.1 L 534.6,312.5 L 537.1,312.9 L 539.6,313.4 L 542.1,313.8 L 544.6,314.2 L 547.1,314.7 L 549.6,315.1 L 552.1,315.6 L 554.6,316.0 L 557.1,316.4 L 559.6,316.9 L 562.1,317.3 L 564.5,317.8 L 567.0,318.2 L 569.5,318.6 L 572.0,319.1 L 574.5,321.5 L 577.0,328.1 L 579.5,334.7 L 582.0,341.4 L 584.5,348.0 L 587.0,354.6 L 589.5,361.2 L 592.0,365.0 L 594.5,365.0 L 597.0,365.0 L 599.5,365.0 L 602.0,365.0 L 604.5,365.0 L 607.0,365.0 L 609.5,365.0 L 612.0,365.0 L 614.5,365.0 L 617.0,365.0" class="rho"/>
<path d="M 70.0,158.3 L 72.5,158.5 L 75.0,158.9 L 77.5,159.3 L 80.0,159.9 L 82.5,160.7 L 85.0,161.7 L 87.5,162.8 L 90.0,164.0 L 92.5,165.3 L 95.0,166.7 L 97.5,168.1 L 100.0,169.7 L 102.5,171.3 L 105.0,172.9 L 107.5,174.6 L 110.0,176.3 L 112.5,177.9 L 115.0,179.6 L 117.5,181.3 L 120.0,182.9 L 122.5,184.5 L 124.9,186.1 L 127.4,187.6 L 129.9,189.0 L 132.4,190.4 L 134.9,191.7 L 137.4,193.0 L 139.9,194.2 L 142.4,195.4 L 144.9,196.5 L 147.4,197.6 L 149.9,198.6 L 152.4,199.6 L 154.9,200.5 L 157.4,201.4 L 159.9,202.3 L 162.4,203.1 L 164.9,203.9 L 167.4,204.7 L 169.9,205.5 L 172.4,206.2 L 174.9,206.9 L 177.4,207.6 L 179.9,208.3 L 182.4,209.0 L 184.9,209.7 L 187.4,210.4 L 189.9,211.0 L 192.4,211.7 L 194.9,212.3 L 197.4,212.9 L 199.9,213.6 L 202.4,214.2 L 204.9,214.8 L 207.4,215.5 L 209.9,216.1 L 212.4,216.7 L 214.9,217.4 L 217.4,218.0 L 219.9,218.6 L 222.4,219.3 L 224.9,219.9 L 227.4,220.6 L 229.9,221.2 L 232.4,221.9 L 234.8,222.5 L 237.3,223.2 L 239.8,223.9 L 242.3,224.6 L 244.8,225.3 L 247.3,226.0 L 249.8,226.8 L 252.3,227.5 L 254.8,228.2 L 257.3,229.0 L 259.8,229.8 L 262.3,230.6 L 264.8,231.4 L 267.3,232.2 L 269.8,233.0 L 272.3,233.8 L 274.8,234.6 L 277.3,235.5 L 279.8,236.3 L 282.3,237.2 L 284.8,238.0 L 287.3,238.9 L 289.8,239.8 L 292.3,240.7 L 294.8,241.5 L 297.3,242.4 L 299.8,243.3 L 302.3,244.2 L 304.8,245.1 L 307.3,246.0 L 309.8,246.9 L 312.3,247.8 L 314.8,248.8 L 317.3,249.7 L 319.8,250.6 L 322.3,251.5 L 324.8,252.4 L 327.3,253.3 L 329.8,254.2 L 332.3,255.2 L 334.8,256.1 L 337.3,257.0 L 339.8,257.9 L 342.3,258.8 L 344.7,259.8 L 347.2,260.7 L 349.7,261.6 L 352.2,262.5 L 354.7,263.4 L 357.2,264.3 L 359.7,265.2 L 362.2,266.1 L 364.7,267.0 L 367.2,268.0 L 369.7,268.9 L 372.2,269.8 L 374.7,270.7 L 377.2,271.5 L 379.7,272.4 L 382.2,273.3 L 384.7,274.2 L 387.2,275.1 L 389.7,276.0 L 392.2,276.9 L 394.7,277.7 L 397.2,278.6 L 399.7,279.5 L 402.2,280.4 L 404.7,281.2 L 407.2,282.1 L 409.7,282.9 L 412.2,283.8 L 414.7,284.6 L 417.2,285.5 L 419.7,286.3 L 422.2,287.2 L 424.7,288.0 L 427.2,288.8 L 429.7,289.7 L 432.2,290.5 L 434.7,291.3 L 437.2,292.1 L 439.7,292.9 L 442.2,293.7 L 444.7,294.5 L 447.2,295.3 L 449.7,296.1 L 452.2,296.9 L 454.6,297.7 L 457.1,298.5 L 459.6,299.3 L 462.1,300.0 L 464.6,300.8 L 467.1,301.6 L 469.6,302.3 L 472.1,303.1 L 474.6,303.8 L 477.1,304.6 L 479.6,305.3 L 482.1,306.1 L 484.6,306.8 L 487.1,307.5 L 489.6,308.3 L 492.1,309.0 L 494.6,309.7 L 497.1,310.4 L 499.6,311.1 L 502.1,311.8 L 504.6,312.5 L 507.1,313.2 L 509.6,313.9 L 512.1,314.6 L 514.6,315.3 L 517.1,316.0 L 519.6,316.7 L 522.1,317.4 L 524.6,318.1 L 527.1,318.7 L 529.6,319.4 L 532.1,320.1 L 534.6,320.7 L 537.1,321.4 L 539.6,322.1 L 542.1,322.7 L 544.6,323.4 L 547.1,324.1 L 549.6,324.7 L 552.1,325.4 L 554.6,326.0 L 557.1,326.7 L 559.6,327.4 L 562.1,328.0 L 564.5,328.7 L 567.0,329.4 L 569.5,330.0 L 572.0,330.7 L 574.5,331.3 L 577.0,332.0 L 579.5,332.6 L 582.0,333.2 L 584.5,333.8 L 587.0,334.4 L 589.5,335.0 L 592.0,335.6 L 594.5,336.1 L 597.0,336.7 L 599.5,337.2 L 602.0,337.7 L 604.5,338.2 L 607.0,338.6 L 609.5,339.1 L 612.0,339.5 L 614.5,339.9 L 617.0,340.3" class="sig"/>
<path d="M 75.5,318.8 L 80.9,300.7 L 86.4,287.5 L 91.9,277.0 L 97.3,268.3 L 102.8,260.9 L 108.3,254.7 L 113.8,249.3 L 119.2,244.7 L 124.7,240.8 L 130.2,237.6 L 135.6,234.8 L 141.1,231.8 L 146.6,228.8 L 152.1,225.7 L 157.5,222.6 L 163.0,219.4 L 168.5,216.3 L 173.9,213.1 L 179.4,210.0 L 184.9,206.9 L 190.3,203.9 L 195.8,200.9 L 201.3,197.8 L 206.8,194.9 L 212.2,191.9 L 217.7,189.0 L 223.2,186.2 L 228.6,183.3 L 234.1,180.5 L 239.6,177.8 L 245.0,175.0 L 250.5,172.3 L 256.0,169.6 L 261.5,167.0 L 266.9,164.5 L 272.4,162.0 L 277.9,159.7 L 283.3,157.3 L 288.8,155.1 L 294.3,152.9 L 299.7,150.8 L 305.2,148.7 L 310.7,146.7 L 316.1,144.7 L 321.6,142.8 L 327.1,140.9 L 332.6,139.1 L 338.0,137.3 L 343.5,135.6 L 349.0,133.9 L 354.4,132.3 L 359.9,130.7 L 365.4,129.2 L 370.8,127.7 L 376.3,126.2 L 381.8,124.8 L 387.3,123.4 L 392.7,122.0 L 398.2,120.7 L 403.7,119.4 L 409.1,118.2 L 414.6,117.0 L 420.1,115.8 L 425.6,114.7 L 431.0,113.6 L 436.5,112.5 L 442.0,111.5 L 447.4,110.5 L 452.9,109.5 L 458.4,108.5 L 463.8,107.6 L 469.3,106.8 L 474.8,105.9 L 480.3,105.1 L 485.7,104.3 L 491.2,103.5 L 496.7,102.8 L 502.1,102.1 L 507.6,101.4 L 513.1,100.8 L 518.5,100.1 L 524.0,99.5 L 529.5,99.0 L 535.0,98.4 L 540.4,97.9 L 545.9,97.4 L 551.4,97.0 L 556.8,96.5 L 562.3,96.1 L 567.8,95.8 L 573.2,95.4 L 578.7,95.3 L 584.2,95.7 L 589.7,96.7 L 595.1,98.1 L 600.6,99.5 L 606.1,100.9 L 611.5,102.2 L 617.0,103.5" class="nt"/>
<path d="M 74.6,344.4 L 79.1,328.7 L 83.7,312.0 L 88.2,296.4 L 92.8,282.2 L 97.3,269.5 L 101.9,258.5 L 106.5,249.1 L 111.0,241.5 L 115.6,235.5 L 120.1,231.3 L 124.7,228.7 L 129.3,227.5 L 133.8,227.5 L 138.4,228.4 L 142.9,229.7 L 147.5,231.1 L 152.1,232.5 L 156.6,233.7 L 161.2,234.6 L 165.7,235.2 L 170.3,235.5 L 174.8,235.4 L 179.4,235.0 L 184.0,234.3 L 188.5,233.4 L 193.1,232.1 L 197.6,230.5 L 202.2,228.7 L 206.8,226.6 L 211.3,224.3 L 215.9,221.6 L 220.4,218.7 L 225.0,215.6 L 229.5,212.1 L 234.1,208.4 L 238.7,204.5 L 243.2,200.3 L 247.8,195.9 L 252.3,191.4 L 256.9,186.8 L 261.5,182.3 L 266.0,177.9 L 270.6,173.6 L 275.1,169.6 L 279.7,165.8 L 284.2,162.2 L 288.8,158.7 L 293.4,155.5 L 297.9,152.4 L 302.5,149.5 L 307.0,146.8 L 311.6,144.1 L 316.1,141.6 L 320.7,139.2 L 325.3,137.0 L 329.8,134.8 L 334.4,132.7 L 338.9,130.8 L 343.5,128.9 L 348.1,127.2 L 352.6,125.5 L 357.2,123.9 L 361.7,122.4 L 366.3,120.9 L 370.8,119.6 L 375.4,118.3 L 380.0,117.1 L 384.5,115.9 L 389.1,114.9 L 393.6,113.9 L 398.2,112.9 L 402.8,112.1 L 407.3,111.3 L 411.9,110.5 L 416.4,109.8 L 421.0,109.2 L 425.6,108.6 L 430.1,108.1 L 434.7,107.6 L 439.2,107.2 L 443.8,106.8 L 448.3,106.5 L 452.9,106.2 L 457.5,105.9 L 462.0,105.7 L 466.6,105.5 L 471.1,105.4 L 475.7,105.2 L 480.3,105.1 L 484.8,105.0 L 489.4,105.0 L 493.9,104.9 L 498.5,104.8 L 503.0,104.7 L 507.6,104.6 L 512.2,104.4 L 516.7,104.2 L 521.3,103.9 L 525.8,103.5 L 530.4,103.0 L 535.0,102.4 L 539.5,101.6 L 544.1,100.7 L 548.6,99.6 L 553.2,98.3 L 557.7,97.0 L 562.3,95.8 L 566.9,94.9 L 571.4,94.9 L 576.0,96.0 L 580.5,98.6 L 585.1,102.5 L 589.7,107.8 L 594.2,113.9 L 598.8,120.5 L 603.3,127.2 L 607.9,133.8 L 612.4,140.1 L 617.0,146.0" class="fw"/>
<line x1="158.66" y1="208.56" x2="158.66" y2="256.62" class="err"/>
<line x1="155.66" y1="208.56" x2="161.66" y2="208.56" class="err"/>
<line x1="155.66" y1="256.62" x2="161.66" y2="256.62" class="err"/>
<circle cx="158.66" cy="232.59" r="2.5" class="obs"/>
<line x1="254.95" y1="169.49" x2="254.95" y2="208.07" class="err"/>
<line x1="251.95" y1="169.49" x2="257.95" y2="169.49" class="err"/>
<line x1="251.95" y1="208.07" x2="257.95" y2="208.07" class="err"/>
<circle cx="254.95" cy="188.78" r="2.5" class="obs"/>
<line x1="343.61" y1="110.97" x2="343.61" y2="141.70" class="err"/>
<line x1="340.61" y1="110.97" x2="346.61" y2="110.97" class="err"/>
<line x1="340.61" y1="141.70" x2="346.61" y2="141.70" class="err"/>
<circle cx="343.61" cy="126.34" r="2.5" class="obs"/>
<line x1="424.65" y1="95.93" x2="424.65" y2="121.43" class="err"/>
<line x1="421.65" y1="95.93" x2="427.65" y2="95.93" class="err"/>
<line x1="421.65" y1="121.43" x2="427.65" y2="121.43" class="err"/>
<circle cx="424.65" cy="108.68" r="2.5" class="obs"/>
<line x1="496.15" y1="88.41" x2="496.15" y2="123.07" class="err"/>
<line x1="493.15" y1="88.41" x2="499.15" y2="88.41" class="err"/>
<line x1="493.15" y1="123.07" x2="499.15" y2="123.07" class="err"/>
<circle cx="496.15" cy="105.74" r="2.5" class="obs"/>
<line x1="561.93" y1="83.18" x2="561.93" y2="116.53" class="err"/>
<line x1="558.93" y1="83.18" x2="564.93" y2="83.18" class="err"/>
<line x1="558.93" y1="116.53" x2="564.93" y2="116.53" class="err"/>
<circle cx="561.93" cy="99.86" r="2.5" class="obs"/>
<g class="legend">
<line x1="82" y1="69" x2="106" y2="69" class="fw"/>
<text x="112" y="73" class="lbl-l">framework fit</text>
<line x1="82" y1="87" x2="106" y2="87" class="nt"/>
<text x="112" y="91" class="lbl-l">Newtonian (no halo)</text>
<circle cx="94" cy="105" r="2.5" class="obs"/>
<text x="112" y="109" class="lbl">observed V±err</text>
</g>
<g class="legend">
<line x1="442" y1="69" x2="466" y2="69" class="rho"/>
<text x="472" y="73" class="lbl-r">ρ(r) raw</text>
<line x1="442" y1="87" x2="466" y2="87" class="sig"/>
<text x="472" y="91" class="lbl-s">Σ(r) cumulative</text>
<text x="442" y="113" class="lbl-r">ρ peak: 265 M☉/pc²</text>
</g>
<rect x="705" y="55" width="170" height="170" class="preview-bg"/>
<defs><radialGradient id="g_UGC06923" cx="0.5" cy="0.5" r="0.5">
  <stop offset="0.0000" stop-color="rgb(255,63.75,63.75)"/>
  <stop offset="0.0313" stop-color="rgb(255,63.75,63.75)"/>
  <stop offset="0.0625" stop-color="rgb(255,63.75,63.75)"/>
  <stop offset="0.0938" stop-color="rgb(255,63.75,63.75)"/>
  <stop offset="0.1250" stop-color="rgb(228,57,57)"/>
  <stop offset="0.1563" stop-color="rgb(228,57,57)"/>
  <stop offset="0.1875" stop-color="rgb(228,57,57)"/>
  <stop offset="0.2188" stop-color="rgb(228,57,57)"/>
  <stop offset="0.2500" stop-color="rgb(228,57,57)"/>
  <stop offset="0.2813" stop-color="rgb(228,57,57)"/>
  <stop offset="0.3125" stop-color="rgb(228,57,57)"/>
  <stop offset="0.3438" stop-color="rgb(228,57,57)"/>
  <stop offset="0.3750" stop-color="rgb(225,56.25,56.25)"/>
  <stop offset="0.4063" stop-color="rgb(220,55,55)"/>
  <stop offset="0.4375" stop-color="rgb(215,53.75,53.75)"/>
  <stop offset="0.4688" stop-color="rgb(210,52.5,52.5)"/>
  <stop offset="0.5000" stop-color="rgb(205,51.25,51.25)"/>
  <stop offset="0.5313" stop-color="rgb(200,50,50)"/>
  <stop offset="0.5625" stop-color="rgb(195,48.75,48.75)"/>
  <stop offset="0.5938" stop-color="rgb(190,47.5,47.5)"/>
  <stop offset="0.6250" stop-color="rgb(185,46.25,46.25)"/>
  <stop offset="0.6563" stop-color="rgb(180,45,45)"/>
  <stop offset="0.6875" stop-color="rgb(175,43.75,43.75)"/>
  <stop offset="0.7188" stop-color="rgb(170,42.5,42.5)"/>
  <stop offset="0.7500" stop-color="rgb(165,41.25,41.25)"/>
  <stop offset="0.7813" stop-color="rgb(160,40,40)"/>
  <stop offset="0.8125" stop-color="rgb(155,38.75,38.75)"/>
  <stop offset="0.8438" stop-color="rgb(150,37.5,37.5)"/>
  <stop offset="0.8750" stop-color="rgb(145,36.25,36.25)"/>
  <stop offset="0.9063" stop-color="rgb(140,35,35)"/>
  <stop offset="0.9375" stop-color="rgb(135,33.75,33.75)"/>
  <stop offset="0.9688" stop-color="rgb(126,31.5,31.5)"/>
  <stop offset="1.0000" stop-color="rgb(0,0,0)"/>
</radialGradient></defs>
<circle cx="790" cy="140" r="81" fill="url(#g_UGC06923)"/>
<text x="790" y="49" text-anchor="middle" class="preview-lbl">face-on luminance from ρ(r)</text>
<text x="790" y="239" text-anchor="middle" class="preview-lbl">edge at r = 5.5 kpc</text>
</svg>