<svg xmlns="http://www.w3.org/2000/svg" viewBox="0 0 960 450" width="960" height="450" font-family="sans-serif" font-size="12">
<style>
  .ax { stroke: #333; stroke-width: 1; fill: none; }
  .grid { stroke: #ddd; stroke-width: 0.5; fill: none; }
  .lbl { fill: #333; }
  .lbl-l { fill: #0066cc; }
  .lbl-r { fill: #b03030; }
  .obs { fill: #222; }
  .err { stroke: #555; stroke-width: 0.8; fill: none; }
  .fw { stroke: #0066cc; stroke-width: 2.2; fill: none; }
  .nt { stroke: #cc6600; stroke-width: 1.6; fill: none; stroke-dasharray: 5,3; }
  .mond { stroke: #7b2cbf; stroke-width: 1.8; fill: none; stroke-dasharray: 7,3; }
  .lbl-p { fill: #cc7000; }
  .lbl-m { fill: #7b2cbf; }
  .rho { stroke: #b03030; stroke-width: 2.0; fill: none; }
  .phot { stroke: #cc7000; stroke-width: 1.8; fill: none; }
  .mbar { stroke: #8e44ad; stroke-width: 1.8; fill: none; opacity: 0.9; }
  .mph { stroke: #c77dff; stroke-width: 1.6; fill: none; stroke-dasharray: 4,3; opacity: 0.95; }
  .title { fill: #111; font-size: 16px; font-weight: 600; }
  .subtitle { fill: #555; font-size: 11px; }
  .preview-bg { fill: #000; }
  .preview-lbl { fill: #888; font-size: 10px; }
  .legend { font-size: 11px; }
</style>
<text x="378.5" y="22" text-anchor="middle" class="title">UGC02259</text>
<text x="378.5" y="38" text-anchor="middle" class="subtitle">rMax=8.1 kpc, N=8, FW=1.0 km/s, 1.2%, 0.39σ, MOND=13.7 km/s, 19.7%, 6.75σ, amp=101</text>
<line x1="70" y1="395.0" x2="687" y2="395.0" class="grid"/>
<text x="64" y="399.0" text-anchor="end" class="lbl-l">0</text>
<line x1="70" y1="327.0" x2="687" y2="327.0" class="grid"/>
<text x="64" y="331.0" text-anchor="end" class="lbl-l">21</text>
<line x1="70" y1="259.0" x2="687" y2="259.0" class="grid"/>
<text x="64" y="263.0" text-anchor="end" class="lbl-l">42</text>
<line x1="70" y1="191.0" x2="687" y2="191.0" class="grid"/>
<text x="64" y="195.0" text-anchor="end" class="lbl-l">63</text>
<line x1="70" y1="123.0" x2="687" y2="123.0" class="grid"/>
<text x="64" y="127.0" text-anchor="end" class="lbl-l">84</text>
<line x1="70" y1="55.0" x2="687" y2="55.0" class="grid"/>
<text x="64" y="59.0" text-anchor="end" class="lbl-l">105</text>
<text x="693" y="399.0" text-anchor="start" class="lbl-r">0.0</text>
<text x="693" y="353.7" text-anchor="start" class="lbl-r">0.2</text>
<text x="693" y="308.3" text-anchor="start" class="lbl-r">0.4</text>
<text x="693" y="263.0" text-anchor="start" class="lbl-r">0.6</text>
<text x="693" y="217.7" text-anchor="start" class="lbl-r">0.8</text>
<text x="693" y="172.3" text-anchor="start" class="lbl-r">1.0</text>
<line x1="70.0" y1="55" x2="70.0" y2="395" class="grid"/>
<text x="70.0" y="411" text-anchor="middle" class="lbl">0.0</text>
<line x1="172.8" y1="55" x2="172.8" y2="395" class="grid"/>
<text x="172.8" y="411" text-anchor="middle" class="lbl">1.5</text>
<line x1="275.7" y1="55" x2="275.7" y2="395" class="grid"/>
<text x="275.7" y="411" text-anchor="middle" class="lbl">3.0</text>
<line x1="378.5" y1="55" x2="378.5" y2="395" class="grid"/>
<text x="378.5" y="411" text-anchor="middle" class="lbl">4.5</text>
<line x1="481.3" y1="55" x2="481.3" y2="395" class="grid"/>
<text x="481.3" y="411" text-anchor="middle" class="lbl">6.1</text>
<line x1="584.2" y1="55" x2="584.2" y2="395" class="grid"/>
<text x="584.2" y="411" text-anchor="middle" class="lbl">7.6</text>
<line x1="687.0" y1="55" x2="687.0" y2="395" class="grid"/>
<text x="687.0" y="411" text-anchor="middle" class="lbl">9.1</text>
<text x="378.5" y="438" text-anchor="middle" class="lbl">radius (kpc)</text>
<text x="16" y="225" text-anchor="middle" class="lbl-l" transform="rotate(-90, 16, 225)">velocity (km/s)</text>
<text x="724" y="225" text-anchor="middle" class="lbl-r" transform="rotate(-90, 724, 225)">profiles (normalized to peak)</text>
<rect x="70" y="55" width="617" height="340" class="ax"/>
<path d="M 70.0,168.3 L 72.8,178.7 L 75.6,189.1 L 78.5,199.4 L 81.3,209.8 L 84.1,219.0 L 86.9,226.0 L 89.7,233.0 L 92.5,240.0 L 95.4,247.1 L 98.2,254.1 L 101.0,261.1 L 103.8,268.1 L 106.6,275.2 L 109.4,282.2 L 112.3,289.2 L 115.1,294.5 L 117.9,295.0 L 120.7,295.5 L 123.5,296.1 L 126.3,296.6 L 129.2,297.1 L 132.0,297.6 L 134.8,298.2 L 137.6,298.7 L 140.4,299.2 L 143.3,299.8 L 146.1,300.3 L 148.9,300.8 L 151.7,301.4 L 154.5,301.9 L 157.3,302.4 L 160.2,302.9 L 163.0,303.5 L 165.8,304.0 L 168.6,304.5 L 171.4,305.1 L 174.2,305.6 L 177.1,306.1 L 179.9,306.7 L 182.7,307.2 L 185.5,307.7 L 188.3,308.3 L 191.1,308.8 L 194.0,309.3 L 196.8,309.8 L 199.6,310.4 L 202.4,310.9 L 205.2,311.4 L 208.1,312.0 L 210.9,312.5 L 213.7,313.0 L 216.5,313.6 L 219.3,314.1 L 222.1,314.6 L 225.0,315.1 L 227.8,315.7 L 230.6,316.2 L 233.4,316.7 L 236.2,317.3 L 239.0,317.8 L 241.9,318.3 L 244.7,318.9 L 247.5,319.4 L 250.3,319.9 L 253.1,320.4 L 255.9,321.0 L 258.8,321.5 L 261.6,322.0 L 264.4,322.6 L 267.2,323.1 L 270.0,323.6 L 272.8,324.2 L 275.7,324.7 L 278.5,325.2 L 281.3,325.7 L 284.1,326.3 L 286.9,326.8 L 289.8,327.3 L 292.6,327.9 L 295.4,328.4 L 298.2,328.9 L 301.0,329.5 L 303.8,330.0 L 306.7,330.5 L 309.5,331.1 L 312.3,331.4 L 315.1,331.6 L 317.9,331.9 L 320.7,332.2 L 323.6,332.4 L 326.4,332.7 L 329.2,332.9 L 332.0,333.2 L 334.8,333.4 L 337.6,333.7 L 340.5,333.9 L 343.3,334.2 L 346.1,334.5 L 348.9,334.7 L 351.7,335.0 L 354.6,335.2 L 357.4,335.5 L 360.2,335.7 L 363.0,336.0 L 365.8,336.3 L 368.6,336.5 L 371.5,336.8 L 374.3,337.0 L 377.1,337.3 L 379.9,337.5 L 382.7,337.8 L 385.5,338.1 L 388.4,338.3 L 391.2,338.6 L 394.0,338.8 L 396.8,339.1 L 399.6,339.3 L 402.4,339.6 L 405.3,339.9 L 408.1,340.1 L 410.9,340.4 L 413.7,340.6 L 416.5,340.9 L 419.4,341.1 L 422.2,341.4 L 425.0,341.7 L 427.8,341.9 L 430.6,342.2 L 433.4,342.4 L 436.3,342.7 L 439.1,342.9 L 441.9,343.2 L 444.7,343.5 L 447.5,343.7 L 450.3,344.0 L 453.2,344.2 L 456.0,344.5 L 458.8,344.7 L 461.6,345.0 L 464.4,345.2 L 467.2,345.5 L 470.1,345.8 L 472.9,346.0 L 475.7,346.3 L 478.5,346.5 L 481.3,346.8 L 484.2,347.0 L 487.0,347.3 L 489.8,347.6 L 492.6,347.8 L 495.4,348.1 L 498.2,348.3 L 501.1,348.6 L 503.9,348.8 L 506.7,349.1 L 509.5,349.4 L 512.3,349.6 L 515.1,349.9 L 518.0,350.1 L 520.8,350.4 L 523.6,350.6 L 526.4,350.9 L 529.2,351.2 L 532.0,351.4 L 534.9,351.7 L 537.7,351.9 L 540.5,352.2 L 543.3,352.4 L 546.1,352.7 L 548.9,353.0 L 551.8,353.2 L 554.6,353.5 L 557.4,353.7 L 560.2,354.0 L 563.0,354.2 L 565.9,354.5 L 568.7,354.8 L 571.5,355.0 L 574.3,355.3 L 577.1,355.5 L 579.9,355.8 L 582.8,356.0 L 585.6,356.3 L 588.4,356.5 L 591.2,356.8 L 594.0,357.1 L 596.8,357.3 L 599.7,357.6 L 602.5,357.8 L 605.3,358.9 L 608.1,360.8 L 610.9,362.8 L 613.7,364.7 L 616.6,366.7 L 619.4,368.6 L 622.2,370.6 L 625.0,372.5 L 627.8,374.5 L 630.7,376.4 L 633.5,378.3 L 636.3,380.3 L 639.1,382.2 L 641.9,384.2 L 644.7,386.1 L 647.6,388.1 L 650.4,390.0 L 653.2,391.9 L 656.0,393.9 L 658.8,395.0 L 661.6,395.0 L 664.5,395.0 L 667.3,395.0 L 670.1,395.0 L 672.9,395.0 L 675.7,395.0 L 678.5,395.0 L 681.4,395.0 L 684.2,395.0 L 687.0,395.0" class="rho"/>
<path d="M 139.2,168.3 L 208.3,266.7 L 276.8,320.3 L 346.0,361.0 L 415.1,376.5 L 484.3,384.6 L 553.4,389.5 L 621.9,395.0" class="phot"/>
<path d="M 139.2,178.6 L 208.3,168.3 L 276.8,181.3 L 346.0,227.4 L 415.1,279.2 L 484.3,302.3 L 553.4,327.3 L 621.9,367.1" class="mbar"/>
<path d="M 139.2,172.8 L 208.3,168.3 L 276.8,173.9 L 346.0,195.4 L 415.1,221.5 L 484.3,235.9 L 553.4,254.8 L 621.9,282.9" class="mph"/>
<path d="M 76.2,330.0 L 82.3,306.5 L 88.5,290.3 L 94.7,278.0 L 100.8,268.3 L 107.0,260.9 L 113.2,255.2 L 119.4,250.6 L 125.5,245.7 L 131.7,240.8 L 137.9,236.0 L 144.0,231.2 L 150.2,226.5 L 156.4,221.9 L 162.6,217.4 L 168.7,213.1 L 174.9,209.0 L 181.1,204.9 L 187.2,201.0 L 193.4,197.2 L 199.6,193.6 L 205.7,190.1 L 211.9,186.6 L 218.1,183.3 L 224.3,180.2 L 230.4,177.1 L 236.6,174.1 L 242.8,171.2 L 248.9,168.4 L 255.1,165.8 L 261.3,163.2 L 267.4,160.7 L 273.6,158.2 L 279.8,155.9 L 286.0,153.7 L 292.1,151.5 L 298.3,149.4 L 304.5,147.4 L 310.6,145.5 L 316.8,143.6 L 323.0,141.7 L 329.1,139.9 L 335.3,138.1 L 341.5,136.3 L 347.6,134.6 L 353.8,132.8 L 360.0,131.1 L 366.2,129.5 L 372.3,127.8 L 378.5,126.2 L 384.7,124.7 L 390.8,123.1 L 397.0,121.6 L 403.2,120.1 L 409.4,118.7 L 415.5,117.2 L 421.7,115.8 L 427.9,114.5 L 434.0,113.1 L 440.2,111.8 L 446.4,110.5 L 452.5,109.3 L 458.7,108.0 L 464.9,106.8 L 471.1,105.6 L 477.2,104.5 L 483.4,103.4 L 489.6,102.3 L 495.7,101.2 L 501.9,100.2 L 508.1,99.1 L 514.2,98.1 L 520.4,97.2 L 526.6,96.2 L 532.8,95.3 L 538.9,94.4 L 545.1,93.6 L 551.3,92.7 L 557.4,91.9 L 563.6,91.1 L 569.8,90.4 L 575.9,89.6 L 582.1,88.9 L 588.3,88.2 L 594.4,87.6 L 600.6,86.9 L 606.8,86.3 L 613.0,86.0 L 619.1,85.9 L 625.3,86.0 L 631.5,86.4 L 637.6,87.1 L 643.8,88.0 L 650.0,89.1 L 656.2,90.5 L 662.3,92.1 L 668.5,93.7 L 674.7,95.3 L 680.8,96.8 L 687.0,98.3" class="nt"/>
<path d="M 139.2,280.0 L 208.3,227.0 L 276.8,192.0 L 346.0,166.1 L 415.1,154.8 L 484.3,141.0 L 553.4,130.1 L 621.9,130.1" class="mond"/>
<path d="M 75.1,362.8 L 80.3,338.6 L 85.4,314.0 L 90.6,291.9 L 95.7,273.4 L 100.8,258.1 L 106.0,246.4 L 111.1,237.4 L 116.3,231.1 L 121.4,226.4 L 126.6,222.8 L 131.7,219.7 L 136.8,216.7 L 142.0,213.7 L 147.1,210.5 L 152.3,207.1 L 157.4,203.6 L 162.6,199.9 L 167.7,196.1 L 172.8,192.3 L 178.0,188.5 L 183.1,184.6 L 188.3,180.8 L 193.4,177.0 L 198.5,173.3 L 203.7,169.7 L 208.8,166.1 L 214.0,162.7 L 219.1,159.4 L 224.3,156.2 L 229.4,153.2 L 234.5,150.3 L 239.7,147.5 L 244.8,144.9 L 250.0,142.5 L 255.1,140.2 L 260.2,138.1 L 265.4,136.2 L 270.5,134.5 L 275.7,133.0 L 280.8,131.8 L 286.0,130.7 L 291.1,129.9 L 296.2,129.3 L 301.4,129.0 L 306.5,128.8 L 311.7,128.8 L 316.8,128.8 L 321.9,128.9 L 327.1,129.0 L 332.2,129.0 L 337.4,128.9 L 342.5,128.8 L 347.7,128.6 L 352.8,128.4 L 357.9,128.2 L 363.1,127.9 L 368.2,127.6 L 373.4,127.2 L 378.5,126.9 L 383.6,126.5 L 388.8,126.1 L 393.9,125.7 L 399.1,125.3 L 404.2,124.9 L 409.3,124.5 L 414.5,124.1 L 419.6,123.7 L 424.8,123.3 L 429.9,122.9 L 435.1,122.5 L 440.2,122.1 L 445.3,121.8 L 450.5,121.4 L 455.6,121.0 L 460.8,120.7 L 465.9,120.3 L 471.1,119.9 L 476.2,119.6 L 481.3,119.2 L 486.5,118.8 L 491.6,118.5 L 496.8,118.1 L 501.9,117.7 L 507.0,117.2 L 512.2,116.8 L 517.3,116.3 L 522.5,115.8 L 527.6,115.2 L 532.8,114.5 L 537.9,113.8 L 543.0,113.0 L 548.2,112.1 L 553.3,111.0 L 558.5,109.8 L 563.6,108.5 L 568.7,106.9 L 573.9,105.2 L 579.0,103.2 L 584.2,101.0 L 589.3,98.8 L 594.4,96.5 L 599.6,94.6 L 604.7,93.1 L 609.9,92.5 L 615.0,93.0 L 620.2,94.8 L 625.3,97.7 L 630.4,101.9 L 635.6,107.1 L 640.7,113.0 L 645.9,119.5 L 651.0,126.3 L 656.2,133.1 L 661.3,139.9 L 666.4,146.3 L 671.6,152.5 L 676.7,158.3 L 681.9,163.7 L 687.0,168.8" class="fw"/>
<line x1="139.16" y1="202.51" x2="139.16" y2="224.51" class="err"/>
<line x1="136.16" y1="202.51" x2="142.16" y2="202.51" class="err"/>
<line x1="136.16" y1="224.51" x2="142.16" y2="224.51" class="err"/>
<circle cx="139.16" cy="213.51" r="2.5" class="obs"/>
<line x1="208.32" y1="155.28" x2="208.32" y2="174.69" class="err"/>
<line x1="205.32" y1="155.28" x2="211.32" y2="155.28" class="err"/>
<line x1="205.32" y1="174.69" x2="211.32" y2="174.69" class="err"/>
<circle cx="208.32" cy="164.99" r="2.5" class="obs"/>
<line x1="276.80" y1="129.08" x2="276.80" y2="138.78" class="err"/>
<line x1="273.80" y1="129.08" x2="279.80" y2="129.08" class="err"/>
<line x1="273.80" y1="138.78" x2="279.80" y2="138.78" class="err"/>
<circle cx="276.80" cy="133.93" r="2.5" class="obs"/>
<line x1="345.96" y1="122.28" x2="345.96" y2="131.99" class="err"/>
<line x1="342.96" y1="122.28" x2="348.96" y2="122.28" class="err"/>
<line x1="342.96" y1="131.99" x2="348.96" y2="131.99" class="err"/>
<circle cx="345.96" cy="127.14" r="2.5" class="obs"/>
<line x1="415.11" y1="119.37" x2="415.11" y2="129.08" class="err"/>
<line x1="412.11" y1="119.37" x2="418.11" y2="119.37" class="err"/>
<line x1="412.11" y1="129.08" x2="418.11" y2="129.08" class="err"/>
<circle cx="415.11" cy="124.22" r="2.5" class="obs"/>
<line x1="484.27" y1="111.93" x2="484.27" y2="121.64" class="err"/>
<line x1="481.27" y1="111.93" x2="487.27" y2="111.93" class="err"/>
<line x1="481.27" y1="121.64" x2="487.27" y2="121.64" class="err"/>
<circle cx="484.27" cy="116.78" r="2.5" class="obs"/>
<line x1="553.43" y1="101.90" x2="553.43" y2="116.78" class="err"/>
<line x1="550.43" y1="101.90" x2="556.43" y2="101.90" class="err"/>
<line x1="550.43" y1="116.78" x2="556.43" y2="116.78" class="err"/>
<circle cx="553.43" cy="109.34" r="2.5" class="obs"/>
<line x1="621.91" y1="94.14" x2="621.91" y2="113.55" class="err"/>
<line x1="618.91" y1="94.14" x2="624.91" y2="94.14" class="err"/>
<line x1="618.91" y1="113.55" x2="624.91" y2="113.55" class="err"/>
<circle cx="621.91" cy="103.84" r="2.5" class="obs"/>
<g class="legend">
<line x1="82" y1="69" x2="106" y2="69" class="fw"/>
<text x="112" y="73" class="lbl-l">framework: 1.0 km/s, 1.2%, 0.39σ</text>
<line x1="82" y1="87" x2="106" y2="87" class="nt"/>
<text x="112" y="91" class="lbl-l">Newtonian: 5.4 km/s, 7.4%, 2.58σ</text>
<line x1="82" y1="105" x2="106" y2="105" class="mond"/>
<text x="112" y="109" class="lbl-m">MOND/RAR: 13.7 km/s, 19.7%, 6.75σ</text>
<circle cx="94" cy="123" r="2.5" class="obs"/>
<text x="112" y="127" class="lbl">observed V±err</text>
</g>
<g class="legend">
<line x1="472" y1="69" x2="496" y2="69" class="rho"/>
<text x="502" y="73" class="lbl-r">ρ(r) raw</text>
<line x1="472" y1="87" x2="496" y2="87" class="phot"/>
<text x="502" y="91" class="lbl-p">photometric baryonic profile</text>
<line x1="472" y1="105" x2="496" y2="105" class="mbar"/>
<text x="502" y="109" class="lbl-m">MOND baryonic annulus</text>
<line x1="472" y1="123" x2="496" y2="123" class="mph"/>
<text x="502" y="127" class="lbl-m">MOND phantom annulus</text>
<text x="472" y="147" class="lbl-r">ρ peak: 352 M☉/pc²</text>
<text x="472" y="163" class="lbl-p">phot peak: 27.20 (arb.)</text>
<text x="472" y="179" class="lbl-m">Σbar peak: 25.18 M☉/pc²</text>
<text x="472" y="195" class="lbl-m">Σphantom peak: 71.11 M☉/pc²</text>
</g>
<rect x="775" y="55" width="170" height="170" class="preview-bg"/>
<defs><radialGradient id="g_UGC02259" cx="0.5" cy="0.5" r="0.5">
  <stop offset="0.0000" stop-color="rgb(255,64,64)"/>
  <stop offset="0.0313" stop-color="rgb(255,64,64)"/>
  <stop offset="0.0625" stop-color="rgb(255,64,64)"/>
  <stop offset="0.0938" stop-color="rgb(255,64,64)"/>
  <stop offset="0.1250" stop-color="rgb(252,63,63)"/>
  <stop offset="0.1563" stop-color="rgb(244,61,61)"/>
  <stop offset="0.1875" stop-color="rgb(237,59,59)"/>
  <stop offset="0.2188" stop-color="rgb(230,58,58)"/>
  <stop offset="0.2500" stop-color="rgb(222,56,56)"/>
  <stop offset="0.2813" stop-color="rgb(215,54,54)"/>
  <stop offset="0.3125" stop-color="rgb(208,52,52)"/>
  <stop offset="0.3438" stop-color="rgb(201,50,50)"/>
  <stop offset="0.3750" stop-color="rgb(193,48,48)"/>
  <stop offset="0.4063" stop-color="rgb(186,47,47)"/>
  <stop offset="0.4375" stop-color="rgb(182,46,46)"/>
  <stop offset="0.4688" stop-color="rgb(178,45,45)"/>
  <stop offset="0.5000" stop-color="rgb(175,44,44)"/>
  <stop offset="0.5313" stop-color="rgb(171,43,43)"/>
  <stop offset="0.5625" stop-color="rgb(168,42,42)"/>
  <stop offset="0.5938" stop-color="rgb(164,41,41)"/>
  <stop offset="0.6250" stop-color="rgb(161,40,40)"/>
  <stop offset="0.6563" stop-color="rgb(157,39,39)"/>
  <stop offset="0.6875" stop-color="rgb(154,39,39)"/>
  <stop offset="0.7188" stop-color="rgb(150,38,38)"/>
  <stop offset="0.7500" stop-color="rgb(147,37,37)"/>
  <stop offset="0.7813" stop-color="rgb(143,36,36)"/>
  <stop offset="0.8125" stop-color="rgb(139,35,35)"/>
  <stop offset="0.8438" stop-color="rgb(136,34,34)"/>
  <stop offset="0.8750" stop-color="rgb(132,33,33)"/>
  <stop offset="0.9063" stop-color="rgb(129,32,32)"/>
  <stop offset="0.9375" stop-color="rgb(104,26,26)"/>
  <stop offset="0.9688" stop-color="rgb(77,19,19)"/>
  <stop offset="1.0000" stop-color="rgb(0,0,0)"/>
</radialGradient></defs>
<circle cx="860" cy="140" r="81" fill="url(#g_UGC02259)"/>
<text x="860" y="49" text-anchor="middle" class="preview-lbl">face-on luminance from ρ(r)</text>
<text x="860" y="239" text-anchor="middle" class="preview-lbl">edge at r = 8.7 kpc</text>
</svg>