<svg xmlns="http://www.w3.org/2000/svg" viewBox="0 0 720 420" width="720" height="420" font-family="sans-serif" font-size="12">
<style>
  .ax { stroke: #333; stroke-width: 1; fill: none; }
  .grid { stroke: #ddd; stroke-width: 0.5; fill: none; }
  .lbl { fill: #333; }
  .lbl-l { fill: #0066cc; }
  .lbl-r { fill: #b03030; }
  .obs { fill: #222; }
  .err { stroke: #555; stroke-width: 0.8; fill: none; }
  .fw { stroke: #0066cc; stroke-width: 2.2; fill: none; }
  .nt { stroke: #cc6600; stroke-width: 1.6; fill: none; stroke-dasharray: 5,3; }
  .rho { stroke: #b03030; stroke-width: 2.0; fill: none; }
  .sig { stroke: #b03030; stroke-width: 1.6; fill: none; stroke-dasharray: 4,2; opacity: 0.85; }
  .title { fill: #111; font-size: 16px; font-weight: 600; }
  .subtitle { fill: #555; font-size: 11px; }
  .legend { font-size: 11px; }
</style>
<text x="360.0" y="22" text-anchor="middle" class="title">UGC04325</text>
<text x="360.0" y="38" text-anchor="middle" class="subtitle">rMax=5.6 kpc, N=8, RMS=0.7 km/s (0.9%), amp=104</text>
<line x1="70" y1="365.0" x2="635" y2="365.0" class="grid"/>
<text x="64" y="369.0" text-anchor="end" class="lbl-l">0</text>
<line x1="70" y1="303.0" x2="635" y2="303.0" class="grid"/>
<text x="64" y="307.0" text-anchor="end" class="lbl-l">22</text>
<line x1="70" y1="241.0" x2="635" y2="241.0" class="grid"/>
<text x="64" y="245.0" text-anchor="end" class="lbl-l">43</text>
<line x1="70" y1="179.0" x2="635" y2="179.0" class="grid"/>
<text x="64" y="183.0" text-anchor="end" class="lbl-l">65</text>
<line x1="70" y1="116.99999999999999" x2="635" y2="116.99999999999999" class="grid"/>
<text x="64" y="120.99999999999999" text-anchor="end" class="lbl-l">86</text>
<line x1="70" y1="55.000000000000036" x2="635" y2="55.000000000000036" class="grid"/>
<text x="64" y="59.000000000000036" text-anchor="end" class="lbl-l">108</text>
<text x="641" y="369.0" text-anchor="start" class="lbl-r">0.0</text>
<text x="641" y="327.6666666666667" text-anchor="start" class="lbl-r">0.2</text>
<text x="641" y="286.33333333333337" text-anchor="start" class="lbl-r">0.4</text>
<text x="641" y="245.00000000000003" text-anchor="start" class="lbl-r">0.6</text>
<text x="641" y="203.66666666666666" text-anchor="start" class="lbl-r">0.8</text>
<text x="641" y="162.33333333333334" text-anchor="start" class="lbl-r">1.0</text>
<line x1="70.0" y1="55" x2="70.0" y2="365" class="grid"/>
<text x="70.0" y="381" text-anchor="middle" class="lbl">0.0</text>
<line x1="164.16666666666666" y1="55" x2="164.16666666666666" y2="365" class="grid"/>
<text x="164.16666666666666" y="381" text-anchor="middle" class="lbl">1.1</text>
<line x1="258.3333333333333" y1="55" x2="258.3333333333333" y2="365" class="grid"/>
<text x="258.3333333333333" y="381" text-anchor="middle" class="lbl">2.1</text>
<line x1="352.49999999999994" y1="55" x2="352.49999999999994" y2="365" class="grid"/>
<text x="352.49999999999994" y="381" text-anchor="middle" class="lbl">3.2</text>
<line x1="446.66666666666663" y1="55" x2="446.66666666666663" y2="365" class="grid"/>
<text x="446.66666666666663" y="381" text-anchor="middle" class="lbl">4.3</text>
<line x1="540.8333333333334" y1="55" x2="540.8333333333334" y2="365" class="grid"/>
<text x="540.8333333333334" y="381" text-anchor="middle" class="lbl">5.4</text>
<line x1="634.9999999999999" y1="55" x2="634.9999999999999" y2="365" class="grid"/>
<text x="634.9999999999999" y="381" text-anchor="middle" class="lbl">6.4</text>
<text x="352.5" y="408" text-anchor="middle" class="lbl">radius (kpc)</text>
<text x="16" y="210.0" text-anchor="middle" class="lbl-l" transform="rotate(-90, 16, 210.0)">velocity (km/s)</text>
<text x="704" y="210.0" text-anchor="middle" class="lbl-r" transform="rotate(-90, 704, 210.0)">mass profile (normalized to peak)</text>
<rect x="70" y="55" width="565" height="310" class="ax"/>
<path d="M 70.0,158.3 L 72.6,163.3 L 75.2,168.2 L 77.7,173.1 L 80.3,178.0 L 82.9,182.9 L 85.5,187.8 L 88.1,192.8 L 90.6,197.7 L 93.2,202.6 L 95.8,207.5 L 98.4,212.4 L 101.0,217.4 L 103.5,222.3 L 106.1,223.1 L 108.7,223.4 L 111.3,223.7 L 113.9,224.0 L 116.4,224.3 L 119.0,224.6 L 121.6,224.9 L 124.2,225.1 L 126.8,225.4 L 129.3,225.7 L 131.9,226.0 L 134.5,226.3 L 137.1,226.6 L 139.7,226.9 L 142.2,227.2 L 144.8,227.4 L 147.4,227.7 L 150.0,228.0 L 152.6,228.3 L 155.1,228.6 L 157.7,228.9 L 160.3,229.2 L 162.9,229.8 L 165.5,230.6 L 168.0,231.5 L 170.6,232.3 L 173.2,233.1 L 175.8,233.9 L 178.4,234.7 L 180.9,235.6 L 183.5,236.4 L 186.1,237.2 L 188.7,238.0 L 191.3,238.8 L 193.8,239.7 L 196.4,240.5 L 199.0,241.3 L 201.6,242.1 L 204.2,243.0 L 206.7,243.8 L 209.3,244.6 L 211.9,245.4 L 214.5,246.2 L 217.1,247.1 L 219.6,247.9 L 222.2,248.7 L 224.8,249.5 L 227.4,250.3 L 230.0,251.2 L 232.5,252.0 L 235.1,252.8 L 237.7,253.6 L 240.3,254.5 L 242.9,255.3 L 245.4,256.1 L 248.0,256.9 L 250.6,257.7 L 253.2,258.6 L 255.8,259.4 L 258.3,260.2 L 260.9,261.0 L 263.5,261.8 L 266.1,262.7 L 268.7,263.5 L 271.2,264.3 L 273.8,265.1 L 276.4,266.0 L 279.0,266.8 L 281.6,267.6 L 284.1,268.4 L 286.7,269.2 L 289.3,270.1 L 291.9,270.5 L 294.5,271.0 L 297.0,271.4 L 299.6,271.8 L 302.2,272.3 L 304.8,272.7 L 307.4,273.2 L 309.9,273.6 L 312.5,274.1 L 315.1,274.5 L 317.7,275.0 L 320.3,275.4 L 322.8,275.9 L 325.4,276.3 L 328.0,276.8 L 330.6,277.2 L 333.2,277.7 L 335.7,278.1 L 338.3,278.6 L 340.9,279.0 L 343.5,279.5 L 346.1,279.9 L 348.6,280.3 L 351.2,280.8 L 353.8,281.2 L 356.4,281.7 L 358.9,282.1 L 361.5,282.6 L 364.1,283.0 L 366.7,283.5 L 369.3,283.9 L 371.8,284.4 L 374.4,284.8 L 377.0,285.3 L 379.6,285.7 L 382.2,286.2 L 384.7,286.6 L 387.3,287.1 L 389.9,287.5 L 392.5,288.0 L 395.1,288.4 L 397.6,288.8 L 400.2,289.3 L 402.8,289.7 L 405.4,290.2 L 408.0,290.6 L 410.5,291.1 L 413.1,291.5 L 415.7,292.0 L 418.3,292.4 L 420.9,292.9 L 423.4,293.3 L 426.0,293.8 L 428.6,294.2 L 431.2,294.7 L 433.8,295.1 L 436.3,295.6 L 438.9,296.0 L 441.5,296.5 L 444.1,296.9 L 446.7,297.3 L 449.2,297.8 L 451.8,298.2 L 454.4,298.7 L 457.0,299.1 L 459.6,299.6 L 462.1,300.0 L 464.7,300.5 L 467.3,300.9 L 469.9,301.4 L 472.5,301.8 L 475.0,302.3 L 477.6,302.7 L 480.2,303.2 L 482.8,303.6 L 485.4,304.1 L 487.9,304.5 L 490.5,305.0 L 493.1,305.4 L 495.7,305.8 L 498.3,306.3 L 500.8,306.7 L 503.4,307.2 L 506.0,307.6 L 508.6,308.1 L 511.2,308.5 L 513.7,309.0 L 516.3,309.4 L 518.9,309.9 L 521.5,310.3 L 524.1,310.8 L 526.6,311.2 L 529.2,311.7 L 531.8,312.1 L 534.4,312.6 L 537.0,313.0 L 539.5,313.5 L 542.1,313.9 L 544.7,315.8 L 547.3,317.8 L 549.9,319.8 L 552.4,321.8 L 555.0,323.8 L 557.6,325.8 L 560.2,327.8 L 562.8,329.8 L 565.3,331.8 L 567.9,333.8 L 570.5,335.8 L 573.1,337.8 L 575.7,339.8 L 578.2,341.8 L 580.8,343.8 L 583.4,345.8 L 586.0,347.8 L 588.6,349.8 L 591.1,351.8 L 593.7,353.8 L 596.3,355.8 L 598.9,357.8 L 601.5,359.8 L 604.0,361.9 L 606.6,363.9 L 609.2,365.0 L 611.8,365.0 L 614.4,365.0 L 616.9,365.0 L 619.5,365.0 L 622.1,365.0 L 624.7,365.0 L 627.3,365.0 L 629.8,365.0 L 632.4,365.0 L 635.0,365.0" class="rho"/>
<path d="M 70.0,158.3 L 72.6,158.5 L 75.2,158.7 L 77.7,159.0 L 80.3,159.4 L 82.9,159.9 L 85.5,160.4 L 88.1,161.1 L 90.6,161.8 L 93.2,162.6 L 95.8,163.4 L 98.4,164.2 L 101.0,165.1 L 103.5,165.9 L 106.1,166.8 L 108.7,167.7 L 111.3,168.5 L 113.9,169.4 L 116.4,170.3 L 119.0,171.1 L 121.6,172.0 L 124.2,172.9 L 126.8,173.8 L 129.3,174.6 L 131.9,175.5 L 134.5,176.4 L 137.1,177.4 L 139.7,178.3 L 142.2,179.2 L 144.8,180.2 L 147.4,181.2 L 150.0,182.2 L 152.6,183.2 L 155.1,184.2 L 157.7,185.3 L 160.3,186.3 L 162.9,187.4 L 165.5,188.5 L 168.0,189.7 L 170.6,190.8 L 173.2,192.0 L 175.8,193.1 L 178.4,194.3 L 180.9,195.5 L 183.5,196.8 L 186.1,198.0 L 188.7,199.2 L 191.3,200.5 L 193.8,201.7 L 196.4,203.0 L 199.0,204.3 L 201.6,205.6 L 204.2,206.9 L 206.7,208.2 L 209.3,209.5 L 211.9,210.8 L 214.5,212.1 L 217.1,213.4 L 219.6,214.7 L 222.2,216.0 L 224.8,217.3 L 227.4,218.6 L 230.0,219.9 L 232.5,221.3 L 235.1,222.6 L 237.7,223.9 L 240.3,225.2 L 242.9,226.5 L 245.4,227.8 L 248.0,229.1 L 250.6,230.4 L 253.2,231.7 L 255.8,232.9 L 258.3,234.2 L 260.9,235.5 L 263.5,236.7 L 266.1,238.0 L 268.7,239.2 L 271.2,240.5 L 273.8,241.7 L 276.4,242.9 L 279.0,244.1 L 281.6,245.3 L 284.1,246.5 L 286.7,247.7 L 289.3,248.8 L 291.9,250.0 L 294.5,251.1 L 297.0,252.2 L 299.6,253.4 L 302.2,254.5 L 304.8,255.6 L 307.4,256.6 L 309.9,257.7 L 312.5,258.8 L 315.1,259.8 L 317.7,260.9 L 320.3,261.9 L 322.8,262.9 L 325.4,264.0 L 328.0,265.0 L 330.6,266.0 L 333.2,267.0 L 335.7,267.9 L 338.3,268.9 L 340.9,269.9 L 343.5,270.9 L 346.1,271.8 L 348.6,272.8 L 351.2,273.7 L 353.8,274.6 L 356.4,275.6 L 358.9,276.5 L 361.5,277.4 L 364.1,278.3 L 366.7,279.2 L 369.3,280.1 L 371.8,281.0 L 374.4,281.9 L 377.0,282.8 L 379.6,283.7 L 382.2,284.5 L 384.7,285.4 L 387.3,286.2 L 389.9,287.1 L 392.5,287.9 L 395.1,288.8 L 397.6,289.6 L 400.2,290.4 L 402.8,291.3 L 405.4,292.1 L 408.0,292.9 L 410.5,293.7 L 413.1,294.5 L 415.7,295.3 L 418.3,296.1 L 420.9,296.9 L 423.4,297.7 L 426.0,298.4 L 428.6,299.2 L 431.2,300.0 L 433.8,300.7 L 436.3,301.5 L 438.9,302.2 L 441.5,303.0 L 444.1,303.7 L 446.7,304.4 L 449.2,305.2 L 451.8,305.9 L 454.4,306.6 L 457.0,307.3 L 459.6,308.1 L 462.1,308.8 L 464.7,309.5 L 467.3,310.2 L 469.9,310.9 L 472.5,311.5 L 475.0,312.2 L 477.6,312.9 L 480.2,313.6 L 482.8,314.3 L 485.4,314.9 L 487.9,315.6 L 490.5,316.3 L 493.1,316.9 L 495.7,317.6 L 498.3,318.2 L 500.8,318.9 L 503.4,319.5 L 506.0,320.2 L 508.6,320.8 L 511.2,321.4 L 513.7,322.1 L 516.3,322.7 L 518.9,323.4 L 521.5,324.0 L 524.1,324.6 L 526.6,325.2 L 529.2,325.9 L 531.8,326.5 L 534.4,327.1 L 537.0,327.8 L 539.5,328.4 L 542.1,329.0 L 544.7,329.6 L 547.3,330.2 L 549.9,330.9 L 552.4,331.5 L 555.0,332.1 L 557.6,332.7 L 560.2,333.3 L 562.8,333.9 L 565.3,334.4 L 567.9,335.0 L 570.5,335.5 L 573.1,336.1 L 575.7,336.6 L 578.2,337.1 L 580.8,337.6 L 583.4,338.1 L 586.0,338.6 L 588.6,339.0 L 591.1,339.5 L 593.7,339.9 L 596.3,340.3 L 598.9,340.7 L 601.5,341.1 L 604.0,341.5 L 606.6,341.9 L 609.2,342.2 L 611.8,342.6 L 614.4,342.9 L 616.9,343.2 L 619.5,343.5 L 622.1,343.8 L 624.7,344.1 L 627.3,344.4 L 629.8,344.7 L 632.4,345.0 L 635.0,345.3" class="sig"/>
<path d="M 75.7,316.6 L 81.3,297.8 L 86.9,284.2 L 92.6,273.6 L 98.2,264.8 L 103.9,257.6 L 109.5,251.1 L 115.2,244.7 L 120.8,238.6 L 126.5,232.7 L 132.2,227.0 L 137.8,221.6 L 143.4,216.3 L 149.1,211.2 L 154.8,206.3 L 160.4,201.6 L 166.1,197.1 L 171.7,192.7 L 177.3,188.6 L 183.0,184.6 L 188.7,180.8 L 194.3,177.2 L 199.9,173.7 L 205.6,170.3 L 211.2,167.1 L 216.9,164.0 L 222.6,161.0 L 228.2,158.2 L 233.8,155.4 L 239.5,152.8 L 245.2,150.2 L 250.8,147.8 L 256.4,145.4 L 262.1,143.2 L 267.8,141.0 L 273.4,138.9 L 279.1,136.9 L 284.7,134.9 L 290.4,133.1 L 296.0,131.3 L 301.6,129.5 L 307.3,127.7 L 313.0,126.0 L 318.6,124.4 L 324.2,122.7 L 329.9,121.1 L 335.6,119.6 L 341.2,118.0 L 346.8,116.5 L 352.5,115.1 L 358.1,113.6 L 363.8,112.2 L 369.4,110.9 L 375.1,109.5 L 380.8,108.2 L 386.4,107.0 L 392.0,105.7 L 397.7,104.5 L 403.3,103.4 L 409.0,102.2 L 414.6,101.1 L 420.3,100.0 L 425.9,99.0 L 431.6,98.0 L 437.3,97.0 L 442.9,96.0 L 448.6,95.1 L 454.2,94.2 L 459.8,93.3 L 465.5,92.5 L 471.2,91.6 L 476.8,90.9 L 482.4,90.1 L 488.1,89.4 L 493.8,88.7 L 499.4,88.0 L 505.1,87.3 L 510.7,86.7 L 516.3,86.1 L 522.0,85.6 L 527.7,85.0 L 533.3,84.5 L 539.0,84.1 L 544.6,83.6 L 550.2,83.3 L 555.9,83.2 L 561.5,83.2 L 567.2,83.4 L 572.8,83.8 L 578.5,84.3 L 584.1,84.9 L 589.8,85.8 L 595.5,86.8 L 601.1,87.9 L 606.8,89.3 L 612.4,90.7 L 618.1,92.1 L 623.7,93.5 L 629.3,94.9 L 635.0,96.3" class="nt"/>
<path d="M 74.7,347.4 L 79.4,333.8 L 84.1,320.1 L 88.8,307.7 L 93.5,297.0 L 98.2,288.1 L 103.0,280.7 L 107.7,274.4 L 112.4,268.9 L 117.1,263.6 L 121.8,258.4 L 126.5,253.0 L 131.2,247.4 L 135.9,241.5 L 140.6,235.5 L 145.3,229.2 L 150.0,222.8 L 154.8,216.3 L 159.5,209.7 L 164.2,203.2 L 168.9,196.8 L 173.6,190.5 L 178.3,184.6 L 183.0,178.8 L 187.7,173.4 L 192.4,168.2 L 197.1,163.3 L 201.8,158.6 L 206.5,154.1 L 211.2,149.9 L 216.0,145.9 L 220.7,142.1 L 225.4,138.6 L 230.1,135.2 L 234.8,132.1 L 239.5,129.2 L 244.2,126.6 L 248.9,124.1 L 253.6,121.9 L 258.3,119.9 L 263.0,118.2 L 267.8,116.6 L 272.5,115.4 L 277.2,114.4 L 281.9,113.6 L 286.6,113.0 L 291.3,112.6 L 296.0,112.2 L 300.7,111.9 L 305.4,111.6 L 310.1,111.2 L 314.8,110.8 L 319.5,110.4 L 324.2,110.0 L 329.0,109.5 L 333.7,109.1 L 338.4,108.6 L 343.1,108.1 L 347.8,107.6 L 352.5,107.2 L 357.2,106.7 L 361.9,106.3 L 366.6,105.8 L 371.3,105.4 L 376.0,105.0 L 380.7,104.6 L 385.5,104.3 L 390.2,104.0 L 394.9,103.6 L 399.6,103.4 L 404.3,103.1 L 409.0,102.8 L 413.7,102.6 L 418.4,102.4 L 423.1,102.3 L 427.8,102.1 L 432.5,102.0 L 437.2,101.9 L 442.0,101.8 L 446.7,101.7 L 451.4,101.6 L 456.1,101.5 L 460.8,101.5 L 465.5,101.4 L 470.2,101.3 L 474.9,101.3 L 479.6,101.1 L 484.3,101.0 L 489.0,100.8 L 493.8,100.6 L 498.5,100.3 L 503.2,99.9 L 507.9,99.4 L 512.6,98.8 L 517.3,98.1 L 522.0,97.3 L 526.7,96.3 L 531.4,95.3 L 536.1,94.3 L 540.8,93.5 L 545.5,93.1 L 550.2,93.4 L 555.0,94.4 L 559.7,96.1 L 564.4,98.8 L 569.1,102.1 L 573.8,106.3 L 578.5,110.9 L 583.2,116.1 L 587.9,121.6 L 592.6,127.3 L 597.3,133.0 L 602.0,138.7 L 606.8,144.3 L 611.5,149.6 L 616.2,154.6 L 620.9,159.3 L 625.6,163.8 L 630.3,167.9 L 635.0,171.8" class="fw"/>
<line x1="131.42409313849393" y1="237.33952330335694" x2="131.42409313849393" y2="254.89823599443974" class="err"/>
<line x1="128.42409313849393" y1="237.33952330335694" x2="134.42409313849393" y2="237.33952330335694" class="err"/>
<line x1="128.42409313849393" y1="254.89823599443974" x2="134.42409313849393" y2="254.89823599443974" class="err"/>
<circle cx="131.42409313849393" cy="246.11887964889837" r="2.5" class="obs"/>
<line x1="192.84818627698786" y1="158.41167051819454" x2="192.84818627698786" y2="176.08552230889097" class="err"/>
<line x1="189.84818627698786" y1="158.41167051819454" x2="195.84818627698786" y2="158.41167051819454" class="err"/>
<line x1="189.84818627698786" y1="176.08552230889097" x2="195.84818627698786" y2="176.08552230889097" class="err"/>
<circle cx="192.84818627698786" cy="167.2485964135427" r="2.5" class="obs"/>
<line x1="253.39479237064614" y1="115.00422996384556" x2="253.39479237064614" y2="132.56294265492835" class="err"/>
<line x1="250.39479237064614" y1="115.00422996384556" x2="256.39479237064614" y2="115.00422996384556" class="err"/>
<line x1="250.39479237064614" y1="132.56294265492835" x2="256.39479237064614" y2="132.56294265492835" class="err"/>
<circle cx="253.39479237064614" cy="123.78358630938695" r="2.5" class="obs"/>
<line x1="314.81888550914005" y1="100.89969026117247" x2="314.81888550914005" y2="118.45840295225523" class="err"/>
<line x1="311.81888550914005" y1="100.89969026117247" x2="317.81888550914005" y2="100.89969026117247" class="err"/>
<line x1="311.81888550914005" y1="118.45840295225523" x2="317.81888550914005" y2="118.45840295225523" class="err"/>
<circle cx="314.81888550914005" cy="109.67904660671385" r="2.5" class="obs"/>
<line x1="376.242978647634" y1="96.86982177469446" x2="376.242978647634" y2="114.42853446577726" class="err"/>
<line x1="373.242978647634" y1="96.86982177469446" x2="379.242978647634" y2="96.86982177469446" class="err"/>
<line x1="373.242978647634" y1="114.42853446577726" x2="379.242978647634" y2="114.42853446577726" class="err"/>
<circle cx="376.242978647634" cy="105.64917812023585" r="2.5" class="obs"/>
<line x1="437.66707178612796" y1="92.55210553918229" x2="437.66707178612796" y2="110.1108182302651" class="err"/>
<line x1="434.66707178612796" y1="92.55210553918229" x2="440.66707178612796" y2="92.55210553918229" class="err"/>
<line x1="434.66707178612796" y1="110.1108182302651" x2="440.66707178612796" y2="110.1108182302651" class="err"/>
<circle cx="437.66707178612796" cy="101.3314618847237" r="2.5" class="obs"/>
<line x1="499.09116492462186" y1="89.38578029980667" x2="499.09116492462186" y2="106.94449299088947" class="err"/>
<line x1="496.09116492462186" y1="89.38578029980667" x2="502.09116492462186" y2="89.38578029980667" class="err"/>
<line x1="496.09116492462186" y1="106.94449299088947" x2="502.09116492462186" y2="106.94449299088947" class="err"/>
<circle cx="499.09116492462186" cy="98.16513664534807" r="2.5" class="obs"/>
<line x1="560.5152580631158" y1="92.83995328821642" x2="560.5152580631158" y2="110.39866597929921" class="err"/>
<line x1="557.5152580631158" y1="92.83995328821642" x2="563.5152580631158" y2="92.83995328821642" class="err"/>
<line x1="557.5152580631158" y1="110.39866597929921" x2="563.5152580631158" y2="110.39866597929921" class="err"/>
<circle cx="560.5152580631158" cy="101.61930963375781" r="2.5" class="obs"/>
<g class="legend">
<line x1="82" y1="69" x2="106" y2="69" class="fw"/>
<text x="112" y="73" class="lbl-l">framework fit</text>
<line x1="82" y1="87" x2="106" y2="87" class="nt"/>
<text x="112" y="91" class="lbl-l">Newtonian (no halo)</text>
<circle cx="94" cy="105" r="2.5" class="obs"/>
<text x="112" y="109" class="lbl">observed V±err</text>
</g>
<g class="legend">
<line x1="460" y1="69" x2="484" y2="69" class="rho"/>
<text x="490" y="73" class="lbl-r">ρ(r) raw</text>
<line x1="460" y1="87" x2="484" y2="87" class="sig"/>
<text x="490" y="91" class="lbl-r">Σ(r) smoothed</text>
<text x="460" y="113" class="lbl-r">ρ peak: 337 M☉/pc²</text>
</g>
</svg>