<svg xmlns="http://www.w3.org/2000/svg" viewBox="0 0 960 450" width="960" height="450" font-family="sans-serif" font-size="12">
<style>
  .ax { stroke: #333; stroke-width: 1; fill: none; }
  .grid { stroke: #ddd; stroke-width: 0.5; fill: none; }
  .lbl { fill: #333; }
  .lbl-l { fill: #0066cc; }
  .lbl-r { fill: #b03030; }
  .obs { fill: #222; }
  .err { stroke: #555; stroke-width: 0.8; fill: none; }
  .fw { stroke: #0066cc; stroke-width: 2.2; fill: none; }
  .nt { stroke: #cc6600; stroke-width: 1.6; fill: none; stroke-dasharray: 5,3; }
  .mond { stroke: #7b2cbf; stroke-width: 1.8; fill: none; stroke-dasharray: 7,3; }
  .lbl-p { fill: #cc7000; }
  .lbl-m { fill: #7b2cbf; }
  .rho { stroke: #b03030; stroke-width: 2.0; fill: none; }
  .phot { stroke: #cc7000; stroke-width: 1.8; fill: none; }
  .mbar { stroke: #8e44ad; stroke-width: 1.8; fill: none; opacity: 0.9; }
  .mph { stroke: #c77dff; stroke-width: 1.6; fill: none; stroke-dasharray: 4,3; opacity: 0.95; }
  .remap-x { stroke: #cc2222; stroke-width: 1.5; fill: none; }
  .remap-link { stroke: #cc2222; stroke-width: 0.8; stroke-dasharray: 3,3; fill: none; opacity: 0.7; }
  .title { fill: #111; font-size: 16px; font-weight: 600; }
  .subtitle { fill: #555; font-size: 11px; }
  .preview-bg { fill: #000; }
  .preview-lbl { fill: #888; font-size: 10px; }
  .legend { font-size: 11px; }
</style>
<text x="378.5" y="22" text-anchor="middle" class="title">UGC05005</text>
<text x="378.5" y="38" text-anchor="middle" class="subtitle">rMax=28.6 kpc, N=11, FW=1.2 km/s, 4.3%, 0.12σ, MOND=15.3 km/s, 34.5%, 1.57σ, amp=203</text>
<line x1="70" y1="395.0" x2="687" y2="395.0" class="grid"/>
<text x="64" y="399.0" text-anchor="end" class="lbl-l">0</text>
<line x1="70" y1="327.0" x2="687" y2="327.0" class="grid"/>
<text x="64" y="331.0" text-anchor="end" class="lbl-l">27</text>
<line x1="70" y1="259.0" x2="687" y2="259.0" class="grid"/>
<text x="64" y="263.0" text-anchor="end" class="lbl-l">54</text>
<line x1="70" y1="191.0" x2="687" y2="191.0" class="grid"/>
<text x="64" y="195.0" text-anchor="end" class="lbl-l">81</text>
<line x1="70" y1="123.0" x2="687" y2="123.0" class="grid"/>
<text x="64" y="127.0" text-anchor="end" class="lbl-l">108</text>
<line x1="70" y1="55.0" x2="687" y2="55.0" class="grid"/>
<text x="64" y="59.0" text-anchor="end" class="lbl-l">135</text>
<text x="693" y="399.0" text-anchor="start" class="lbl-r">0.0</text>
<text x="693" y="353.7" text-anchor="start" class="lbl-r">0.2</text>
<text x="693" y="308.3" text-anchor="start" class="lbl-r">0.4</text>
<text x="693" y="263.0" text-anchor="start" class="lbl-r">0.6</text>
<text x="693" y="217.7" text-anchor="start" class="lbl-r">0.8</text>
<text x="693" y="172.3" text-anchor="start" class="lbl-r">1.0</text>
<line x1="70.0" y1="55" x2="70.0" y2="395" class="grid"/>
<text x="70.0" y="411" text-anchor="middle" class="lbl">0.0</text>
<line x1="172.8" y1="55" x2="172.8" y2="395" class="grid"/>
<text x="172.8" y="411" text-anchor="middle" class="lbl">5.0</text>
<line x1="275.7" y1="55" x2="275.7" y2="395" class="grid"/>
<text x="275.7" y="411" text-anchor="middle" class="lbl">10.0</text>
<line x1="378.5" y1="55" x2="378.5" y2="395" class="grid"/>
<text x="378.5" y="411" text-anchor="middle" class="lbl">15.0</text>
<line x1="481.3" y1="55" x2="481.3" y2="395" class="grid"/>
<text x="481.3" y="411" text-anchor="middle" class="lbl">20.0</text>
<line x1="584.2" y1="55" x2="584.2" y2="395" class="grid"/>
<text x="584.2" y="411" text-anchor="middle" class="lbl">25.0</text>
<line x1="687.0" y1="55" x2="687.0" y2="395" class="grid"/>
<text x="687.0" y="411" text-anchor="middle" class="lbl">30.0</text>
<text x="378.5" y="438" text-anchor="middle" class="lbl">radius (kpc)</text>
<text x="16" y="225" text-anchor="middle" class="lbl-l" transform="rotate(-90, 16, 225)">velocity (km/s)</text>
<text x="724" y="225" text-anchor="middle" class="lbl-r" transform="rotate(-90, 724, 225)">profiles (normalized to peak)</text>
<rect x="70" y="55" width="617" height="340" class="ax"/>
<path d="M 70.0,168.3 L 72.8,201.3 L 75.6,234.3 L 78.5,267.3 L 81.3,300.3 L 84.1,306.0 L 86.9,306.2 L 89.7,306.3 L 92.5,306.4 L 95.4,306.5 L 98.2,306.6 L 101.0,306.7 L 103.8,306.8 L 106.6,306.9 L 109.4,307.0 L 112.3,307.1 L 115.1,307.3 L 117.9,307.4 L 120.7,307.5 L 123.5,307.6 L 126.3,307.7 L 129.2,307.8 L 132.0,307.9 L 134.8,308.0 L 137.6,308.1 L 140.4,308.2 L 143.3,308.4 L 146.1,308.5 L 148.9,308.6 L 151.7,308.7 L 154.5,308.8 L 157.3,309.6 L 160.2,311.0 L 163.0,312.4 L 165.8,313.8 L 168.6,315.1 L 171.4,315.5 L 174.2,315.8 L 177.1,316.1 L 179.9,316.3 L 182.7,316.6 L 185.5,316.9 L 188.3,317.2 L 191.1,317.5 L 194.0,317.8 L 196.8,318.1 L 199.6,318.3 L 202.4,318.6 L 205.2,318.9 L 208.1,319.2 L 210.9,319.5 L 213.7,319.8 L 216.5,320.1 L 219.3,320.4 L 222.1,320.6 L 225.0,320.9 L 227.8,321.2 L 230.6,321.5 L 233.4,321.8 L 236.2,322.1 L 239.0,322.4 L 241.9,322.6 L 244.7,322.9 L 247.5,323.2 L 250.3,323.5 L 253.1,323.8 L 255.9,324.1 L 258.8,324.4 L 261.6,324.7 L 264.4,324.9 L 267.2,325.2 L 270.0,325.5 L 272.8,325.8 L 275.7,326.1 L 278.5,326.4 L 281.3,326.7 L 284.1,326.9 L 286.9,327.2 L 289.8,327.5 L 292.6,327.8 L 295.4,328.1 L 298.2,328.4 L 301.0,328.7 L 303.8,329.0 L 306.7,329.2 L 309.5,329.5 L 312.3,329.8 L 315.1,330.1 L 317.9,330.4 L 320.7,330.7 L 323.6,331.0 L 326.4,331.2 L 329.2,331.5 L 332.0,331.8 L 334.8,332.1 L 337.6,332.4 L 340.5,332.7 L 343.3,333.0 L 346.1,333.3 L 348.9,333.5 L 351.7,333.8 L 354.6,334.1 L 357.4,334.4 L 360.2,334.7 L 363.0,335.0 L 365.8,335.3 L 368.6,335.5 L 371.5,335.8 L 374.3,336.1 L 377.1,336.4 L 379.9,336.7 L 382.7,337.0 L 385.5,337.3 L 388.4,337.6 L 391.2,337.8 L 394.0,338.1 L 396.8,338.4 L 399.6,338.7 L 402.4,339.0 L 405.3,339.3 L 408.1,339.6 L 410.9,339.8 L 413.7,340.1 L 416.5,340.4 L 419.4,340.7 L 422.2,341.0 L 425.0,341.3 L 427.8,341.6 L 430.6,341.9 L 433.4,342.1 L 436.3,342.4 L 439.1,342.7 L 441.9,343.0 L 444.7,343.3 L 447.5,343.6 L 450.3,343.9 L 453.2,344.1 L 456.0,344.4 L 458.8,344.7 L 461.6,345.0 L 464.4,345.3 L 467.2,345.6 L 470.1,345.9 L 472.9,346.2 L 475.7,346.4 L 478.5,346.7 L 481.3,347.0 L 484.2,347.3 L 487.0,347.6 L 489.8,347.9 L 492.6,348.2 L 495.4,348.4 L 498.2,348.7 L 501.1,349.0 L 503.9,349.3 L 506.7,349.6 L 509.5,349.9 L 512.3,350.2 L 515.1,350.5 L 518.0,350.7 L 520.8,351.0 L 523.6,351.3 L 526.4,351.6 L 529.2,351.9 L 532.0,352.2 L 534.9,352.5 L 537.7,352.7 L 540.5,353.0 L 543.3,353.3 L 546.1,353.6 L 548.9,353.9 L 551.8,354.2 L 554.6,354.5 L 557.4,354.8 L 560.2,355.0 L 563.0,355.3 L 565.9,355.6 L 568.7,355.9 L 571.5,356.2 L 574.3,356.5 L 577.1,356.8 L 579.9,357.0 L 582.8,357.3 L 585.6,357.6 L 588.4,357.9 L 591.2,358.2 L 594.0,358.5 L 596.8,358.8 L 599.7,359.1 L 602.5,359.3 L 605.3,359.6 L 608.1,359.9 L 610.9,360.2 L 613.7,360.5 L 616.6,360.8 L 619.4,361.1 L 622.2,361.3 L 625.0,361.6 L 627.8,361.9 L 630.7,362.2 L 633.5,362.5 L 636.3,362.8 L 639.1,363.1 L 641.9,363.4 L 644.7,363.6 L 647.6,363.9 L 650.4,364.2 L 653.2,371.9 L 656.0,386.6 L 658.8,395.0 L 661.6,395.0 L 664.5,395.0 L 667.3,395.0 L 670.1,395.0 L 672.9,395.0 L 675.7,395.0 L 678.5,395.0 L 681.4,395.0 L 684.2,395.0 L 687.0,395.0" class="rho"/>
<path d="M 86.0,168.3 L 118.1,279.1 L 150.3,304.5 L 182.3,345.2 L 214.6,363.4 L 246.6,376.9 L 278.9,382.8 L 439.1,394.0 L 502.8,394.6 L 536.6,394.8 L 657.6,395.0" class="phot"/>
<path d="M 86.0,215.1 L 118.1,183.7 L 150.3,168.3 L 182.3,204.6 L 214.6,255.8 L 246.6,278.6 L 278.9,292.7 L 439.1,318.3 L 502.8,342.9 L 536.6,354.2 L 657.6,356.2" class="mbar"/>
<path d="M 86.0,190.5 L 118.1,175.6 L 150.3,168.3 L 182.3,185.2 L 214.6,210.2 L 246.6,223.3 L 278.9,233.9 L 439.1,253.6 L 502.8,274.0 L 536.6,285.1 L 657.6,288.6" class="mph"/>
<path d="M 76.2,345.2 L 82.3,334.7 L 88.5,328.1 L 94.7,320.7 L 100.8,313.6 L 107.0,306.9 L 113.2,300.5 L 119.4,294.5 L 125.5,288.8 L 131.7,283.4 L 137.9,278.3 L 144.0,273.3 L 150.2,268.6 L 156.4,264.1 L 162.6,259.8 L 168.7,256.0 L 174.9,252.4 L 181.1,249.0 L 187.2,245.6 L 193.4,242.3 L 199.6,239.2 L 205.7,236.1 L 211.9,233.1 L 218.1,230.2 L 224.3,227.3 L 230.4,224.6 L 236.6,221.9 L 242.8,219.3 L 248.9,216.7 L 255.1,214.3 L 261.3,211.8 L 267.4,209.5 L 273.6,207.2 L 279.8,205.0 L 285.9,202.8 L 292.1,200.6 L 298.3,198.5 L 304.5,196.5 L 310.6,194.5 L 316.8,192.6 L 323.0,190.7 L 329.1,188.9 L 335.3,187.0 L 341.5,185.3 L 347.6,183.6 L 353.8,181.9 L 360.0,180.2 L 366.2,178.6 L 372.3,177.1 L 378.5,175.6 L 384.7,174.1 L 390.8,172.6 L 397.0,171.2 L 403.2,169.8 L 409.3,168.5 L 415.5,167.1 L 421.7,165.9 L 427.9,164.6 L 434.0,163.4 L 440.2,162.2 L 446.4,161.0 L 452.5,159.9 L 458.7,158.8 L 464.9,157.7 L 471.0,156.7 L 477.2,155.7 L 483.4,154.7 L 489.6,153.7 L 495.7,152.8 L 501.9,151.9 L 508.1,151.0 L 514.2,150.2 L 520.4,149.4 L 526.6,148.6 L 532.8,147.8 L 538.9,147.1 L 545.1,146.3 L 551.3,145.6 L 557.4,145.0 L 563.6,144.3 L 569.8,143.7 L 575.9,143.1 L 582.1,142.6 L 588.3,142.0 L 594.5,141.5 L 600.6,141.0 L 606.8,140.5 L 613.0,140.1 L 619.1,139.7 L 625.3,139.2 L 631.5,138.9 L 637.6,138.5 L 643.8,138.2 L 650.0,137.9 L 656.2,138.0 L 662.3,139.3 L 668.5,140.6 L 674.7,141.9 L 680.8,143.3 L 687.0,144.5" class="nt"/>
<path d="M 86.0,328.6 L 118.1,272.7 L 150.3,232.0 L 182.3,206.4 L 214.6,192.3 L 246.6,177.9 L 278.9,165.3 L 439.1,119.1 L 502.8,108.8 L 536.6,103.9 L 657.6,85.9" class="mond"/>
<path d="M 75.1,377.5 L 80.3,365.8 L 85.4,354.6 L 90.6,345.5 L 95.7,338.2 L 100.8,332.1 L 106.0,326.6 L 111.1,321.2 L 116.3,315.7 L 121.4,309.9 L 126.6,303.9 L 131.7,297.7 L 136.8,291.3 L 142.0,284.8 L 147.1,278.4 L 152.3,272.1 L 157.4,266.2 L 162.6,260.9 L 167.7,256.1 L 172.8,251.8 L 178.0,248.1 L 183.1,244.6 L 188.3,241.3 L 193.4,238.1 L 198.5,235.0 L 203.7,232.0 L 208.8,229.0 L 214.0,225.9 L 219.1,223.0 L 224.3,220.0 L 229.4,217.2 L 234.5,214.3 L 239.7,211.5 L 244.8,208.8 L 250.0,206.1 L 255.1,203.5 L 260.2,200.9 L 265.4,198.4 L 270.5,196.0 L 275.7,193.6 L 280.8,191.2 L 285.9,189.0 L 291.1,186.8 L 296.2,184.6 L 301.4,182.6 L 306.5,180.6 L 311.7,178.6 L 316.8,176.7 L 321.9,174.9 L 327.1,173.1 L 332.2,171.4 L 337.4,169.8 L 342.5,168.2 L 347.7,166.7 L 352.8,165.2 L 357.9,163.8 L 363.1,162.5 L 368.2,161.2 L 373.4,159.9 L 378.5,158.7 L 383.6,157.6 L 388.8,156.5 L 393.9,155.5 L 399.1,154.6 L 404.2,153.7 L 409.3,152.8 L 414.5,152.0 L 419.6,151.2 L 424.8,150.5 L 429.9,149.9 L 435.1,149.3 L 440.2,148.7 L 445.3,148.2 L 450.5,147.7 L 455.6,147.3 L 460.8,147.0 L 465.9,146.6 L 471.0,146.3 L 476.2,146.1 L 481.3,145.9 L 486.5,145.7 L 491.6,145.6 L 496.8,145.5 L 501.9,145.5 L 507.0,145.4 L 512.2,145.4 L 517.3,145.5 L 522.5,145.5 L 527.6,145.6 L 532.8,145.7 L 537.9,145.9 L 543.0,146.0 L 548.2,146.1 L 553.3,146.3 L 558.5,146.4 L 563.6,146.5 L 568.7,146.6 L 573.9,146.7 L 579.0,146.7 L 584.2,146.6 L 589.3,146.5 L 594.5,146.2 L 599.6,145.8 L 604.7,145.3 L 609.9,144.6 L 615.0,143.6 L 620.2,142.5 L 625.3,141.2 L 630.4,139.8 L 635.6,138.6 L 640.7,137.8 L 645.9,137.8 L 651.0,139.2 L 656.2,142.0 L 661.3,146.3 L 666.4,151.8 L 671.6,158.1 L 676.7,164.8 L 681.9,171.6 L 687.0,178.1" class="fw"/>
<line x1="86.02" y1="337.91" x2="86.02" y2="378.83" class="err"/>
<line x1="83.02" y1="337.91" x2="89.02" y2="337.91" class="err"/>
<line x1="83.02" y1="378.83" x2="89.02" y2="378.83" class="err"/>
<circle cx="86.02" cy="358.37" r="2.5" class="obs"/>
<line x1="118.06" y1="244.94" x2="118.06" y2="380.35" class="err"/>
<line x1="115.06" y1="244.94" x2="121.06" y2="244.94" class="err"/>
<line x1="115.06" y1="380.35" x2="121.06" y2="380.35" class="err"/>
<circle cx="118.06" cy="312.64" r="2.5" class="obs"/>
<line x1="150.31" y1="243.68" x2="150.31" y2="300.77" class="err"/>
<line x1="147.31" y1="243.68" x2="153.31" y2="243.68" class="err"/>
<line x1="147.31" y1="300.77" x2="153.31" y2="300.77" class="err"/>
<circle cx="150.31" cy="272.23" r="2.5" class="obs"/>
<line x1="182.35" y1="232.82" x2="182.35" y2="263.64" class="err"/>
<line x1="179.35" y1="232.82" x2="185.35" y2="232.82" class="err"/>
<line x1="179.35" y1="263.64" x2="185.35" y2="263.64" class="err"/>
<circle cx="182.35" cy="248.23" r="2.5" class="obs"/>
<line x1="214.59" y1="206.52" x2="214.59" y2="250.52" class="err"/>
<line x1="211.59" y1="206.52" x2="217.59" y2="206.52" class="err"/>
<line x1="211.59" y1="250.52" x2="217.59" y2="250.52" class="err"/>
<circle cx="214.59" cy="228.52" r="2.5" class="obs"/>
<line x1="246.63" y1="181.03" x2="246.63" y2="242.67" class="err"/>
<line x1="243.63" y1="181.03" x2="249.63" y2="181.03" class="err"/>
<line x1="243.63" y1="242.67" x2="249.63" y2="242.67" class="err"/>
<circle cx="246.63" cy="211.85" r="2.5" class="obs"/>
<line x1="278.88" y1="124.69" x2="278.88" y2="268.18" class="err"/>
<line x1="275.88" y1="124.69" x2="281.88" y2="124.69" class="err"/>
<line x1="275.88" y1="268.18" x2="281.88" y2="268.18" class="err"/>
<circle cx="278.88" cy="196.44" r="2.5" class="obs"/>
<line x1="439.08" y1="124.44" x2="439.08" y2="174.97" class="err"/>
<line x1="436.08" y1="124.44" x2="442.08" y2="124.44" class="err"/>
<line x1="436.08" y1="174.97" x2="442.08" y2="174.97" class="err"/>
<circle cx="439.08" cy="149.70" r="2.5" class="obs"/>
<line x1="502.76" y1="118.63" x2="502.76" y2="169.15" class="err"/>
<line x1="499.76" y1="118.63" x2="505.76" y2="118.63" class="err"/>
<line x1="499.76" y1="169.15" x2="505.76" y2="169.15" class="err"/>
<circle cx="502.76" cy="143.89" r="2.5" class="obs"/>
<line x1="536.64" y1="117.11" x2="536.64" y2="167.64" class="err"/>
<line x1="533.64" y1="117.11" x2="539.64" y2="117.11" class="err"/>
<line x1="533.64" y1="167.64" x2="539.64" y2="167.64" class="err"/>
<circle cx="536.64" cy="142.38" r="2.5" class="obs"/>
<line x1="657.62" y1="119.39" x2="657.62" y2="169.91" class="err"/>
<line x1="654.62" y1="119.39" x2="660.62" y2="119.39" class="err"/>
<line x1="654.62" y1="169.91" x2="660.62" y2="169.91" class="err"/>
<circle cx="657.62" cy="144.65" r="2.5" class="obs"/>
<g class="legend">
<line x1="82" y1="69" x2="106" y2="69" class="fw"/>
<text x="112" y="73" class="lbl-l">framework: 1.2 km/s, 4.3%, 0.12σ</text>
<line x1="82" y1="87" x2="106" y2="87" class="nt"/>
<text x="112" y="91" class="lbl-l">Newtonian: 4.6 km/s, 23.6%, 0.47σ</text>
<line x1="82" y1="105" x2="106" y2="105" class="mond"/>
<text x="112" y="109" class="lbl-m">MOND/RAR: 15.3 km/s, 34.5%, 1.57σ</text>
<circle cx="94" cy="123" r="2.5" class="obs"/>
<text x="112" y="127" class="lbl">observed V±err</text>
</g>
<g class="legend">
<line x1="472" y1="69" x2="496" y2="69" class="rho"/>
<text x="502" y="73" class="lbl-r">ρ(r) raw</text>
<line x1="472" y1="87" x2="496" y2="87" class="phot"/>
<text x="502" y="91" class="lbl-p">photometric baryonic profile</text>
<line x1="472" y1="105" x2="496" y2="105" class="mbar"/>
<text x="502" y="109" class="lbl-m">MOND baryonic annulus</text>
<line x1="472" y1="123" x2="496" y2="123" class="mph"/>
<text x="502" y="127" class="lbl-m">MOND phantom annulus</text>
<text x="472" y="147" class="lbl-r">ρ peak: 122 M☉/pc²</text>
<text x="472" y="163" class="lbl-p">phot peak: 26.75 (arb.)</text>
<text x="472" y="179" class="lbl-m">Σbar peak: 17.14 M☉/pc²</text>
<text x="472" y="195" class="lbl-m">Σphantom peak: 60.32 M☉/pc²</text>
</g>
<rect x="775" y="55" width="170" height="170" class="preview-bg"/>
<defs><radialGradient id="g_UGC05005" cx="0.5" cy="0.5" r="0.5">
  <stop offset="0.0000" stop-color="rgb(70,70,70)"/>
  <stop offset="0.0313" stop-color="rgb(30,30,30)"/>
  <stop offset="0.0625" stop-color="rgb(30,30,30)"/>
  <stop offset="0.0938" stop-color="rgb(30,30,30)"/>
  <stop offset="0.1250" stop-color="rgb(30,30,30)"/>
  <stop offset="0.1563" stop-color="rgb(28,28,28)"/>
  <stop offset="0.1875" stop-color="rgb(27,27,27)"/>
  <stop offset="0.2188" stop-color="rgb(26,26,26)"/>
  <stop offset="0.2500" stop-color="rgb(26,26,26)"/>
  <stop offset="0.2813" stop-color="rgb(25,25,25)"/>
  <stop offset="0.3125" stop-color="rgb(24,24,24)"/>
  <stop offset="0.3438" stop-color="rgb(24,24,24)"/>
  <stop offset="0.3750" stop-color="rgb(23,23,23)"/>
  <stop offset="0.4063" stop-color="rgb(22,22,22)"/>
  <stop offset="0.4375" stop-color="rgb(22,22,22)"/>
  <stop offset="0.4688" stop-color="rgb(21,21,21)"/>
  <stop offset="0.5000" stop-color="rgb(21,21,21)"/>
  <stop offset="0.5313" stop-color="rgb(20,20,20)"/>
  <stop offset="0.5625" stop-color="rgb(19,19,19)"/>
  <stop offset="0.5938" stop-color="rgb(19,19,19)"/>
  <stop offset="0.6250" stop-color="rgb(18,18,18)"/>
  <stop offset="0.6563" stop-color="rgb(17,17,17)"/>
  <stop offset="0.6875" stop-color="rgb(17,17,17)"/>
  <stop offset="0.7188" stop-color="rgb(16,16,16)"/>
  <stop offset="0.7500" stop-color="rgb(15,15,15)"/>
  <stop offset="0.7813" stop-color="rgb(15,15,15)"/>
  <stop offset="0.8125" stop-color="rgb(14,14,14)"/>
  <stop offset="0.8438" stop-color="rgb(13,13,13)"/>
  <stop offset="0.8750" stop-color="rgb(13,13,13)"/>
  <stop offset="0.9063" stop-color="rgb(12,12,12)"/>
  <stop offset="0.9375" stop-color="rgb(12,12,12)"/>
  <stop offset="0.9688" stop-color="rgb(11,11,11)"/>
  <stop offset="1.0000" stop-color="rgb(0,0,0)"/>
</radialGradient></defs>
<circle cx="860" cy="140" r="81" fill="url(#g_UGC05005)"/>
<text x="860" y="49" text-anchor="middle" class="preview-lbl">face-on luminance from ρ(r)</text>
<text x="860" y="239" text-anchor="middle" class="preview-lbl">edge at r = 28.6 kpc</text>
</svg>