<svg xmlns="http://www.w3.org/2000/svg" viewBox="0 0 720 420" width="720" height="420" font-family="sans-serif" font-size="12">
<style>
  .ax { stroke: #333; stroke-width: 1; fill: none; }
  .grid { stroke: #ddd; stroke-width: 0.5; fill: none; }
  .lbl { fill: #333; }
  .lbl-l { fill: #0066cc; }
  .lbl-r { fill: #b03030; }
  .obs { fill: #222; }
  .err { stroke: #555; stroke-width: 0.8; fill: none; }
  .fw { stroke: #0066cc; stroke-width: 2.2; fill: none; }
  .nt { stroke: #cc6600; stroke-width: 1.6; fill: none; stroke-dasharray: 5,3; }
  .rho { stroke: #b03030; stroke-width: 2.0; fill: none; }
  .sig { stroke: #b03030; stroke-width: 1.6; fill: none; stroke-dasharray: 4,2; opacity: 0.85; }
  .title { fill: #111; font-size: 16px; font-weight: 600; }
  .subtitle { fill: #555; font-size: 11px; }
  .legend { font-size: 11px; }
</style>
<text x="360.0" y="22" text-anchor="middle" class="title">UGC07690</text>
<text x="360.0" y="38" text-anchor="middle" class="subtitle">rMax=4.1 kpc, N=7, RMS=0.6 km/s (1.0%), amp=103</text>
<line x1="70" y1="365.0" x2="635" y2="365.0" class="grid"/>
<text x="64" y="369.0" text-anchor="end" class="lbl-l">0</text>
<line x1="70" y1="303.0" x2="635" y2="303.0" class="grid"/>
<text x="64" y="307.0" text-anchor="end" class="lbl-l">14</text>
<line x1="70" y1="241.00000000000003" x2="635" y2="241.00000000000003" class="grid"/>
<text x="64" y="245.00000000000003" text-anchor="end" class="lbl-l">29</text>
<line x1="70" y1="179.0" x2="635" y2="179.0" class="grid"/>
<text x="64" y="183.0" text-anchor="end" class="lbl-l">43</text>
<line x1="70" y1="117.00000000000003" x2="635" y2="117.00000000000003" class="grid"/>
<text x="64" y="121.00000000000003" text-anchor="end" class="lbl-l">57</text>
<line x1="70" y1="55.0" x2="635" y2="55.0" class="grid"/>
<text x="64" y="59.0" text-anchor="end" class="lbl-l">72</text>
<text x="641" y="369.0" text-anchor="start" class="lbl-r">0.0</text>
<text x="641" y="327.6666666666667" text-anchor="start" class="lbl-r">0.2</text>
<text x="641" y="286.33333333333337" text-anchor="start" class="lbl-r">0.4</text>
<text x="641" y="245.00000000000003" text-anchor="start" class="lbl-r">0.6</text>
<text x="641" y="203.66666666666666" text-anchor="start" class="lbl-r">0.8</text>
<text x="641" y="162.33333333333334" text-anchor="start" class="lbl-r">1.0</text>
<line x1="70.0" y1="55" x2="70.0" y2="365" class="grid"/>
<text x="70.0" y="381" text-anchor="middle" class="lbl">0.0</text>
<line x1="164.16666666666669" y1="55" x2="164.16666666666669" y2="365" class="grid"/>
<text x="164.16666666666669" y="381" text-anchor="middle" class="lbl">0.7</text>
<line x1="258.33333333333337" y1="55" x2="258.33333333333337" y2="365" class="grid"/>
<text x="258.33333333333337" y="381" text-anchor="middle" class="lbl">1.5</text>
<line x1="352.5" y1="55" x2="352.5" y2="365" class="grid"/>
<text x="352.5" y="381" text-anchor="middle" class="lbl">2.2</text>
<line x1="446.6666666666667" y1="55" x2="446.6666666666667" y2="365" class="grid"/>
<text x="446.6666666666667" y="381" text-anchor="middle" class="lbl">3.0</text>
<line x1="540.8333333333334" y1="55" x2="540.8333333333334" y2="365" class="grid"/>
<text x="540.8333333333334" y="381" text-anchor="middle" class="lbl">3.7</text>
<line x1="635.0" y1="55" x2="635.0" y2="365" class="grid"/>
<text x="635.0" y="381" text-anchor="middle" class="lbl">4.5</text>
<text x="352.5" y="408" text-anchor="middle" class="lbl">radius (kpc)</text>
<text x="16" y="210.0" text-anchor="middle" class="lbl-l" transform="rotate(-90, 16, 210.0)">velocity (km/s)</text>
<text x="704" y="210.0" text-anchor="middle" class="lbl-r" transform="rotate(-90, 704, 210.0)">mass profile (normalized to peak)</text>
<rect x="70" y="55" width="565" height="310" class="ax"/>
<path d="M 70.0,158.3 L 72.6,172.2 L 75.2,186.2 L 77.7,200.1 L 80.3,214.0 L 82.9,227.9 L 85.5,241.8 L 88.1,249.4 L 90.6,253.0 L 93.2,256.6 L 95.8,260.2 L 98.4,263.7 L 101.0,267.3 L 103.5,270.9 L 106.1,274.5 L 108.7,278.1 L 111.3,280.1 L 113.9,280.7 L 116.4,281.3 L 119.0,281.8 L 121.6,282.4 L 124.2,283.0 L 126.8,283.5 L 129.3,284.1 L 131.9,284.7 L 134.5,285.2 L 137.1,285.8 L 139.7,286.4 L 142.2,286.9 L 144.8,287.5 L 147.4,288.0 L 150.0,288.6 L 152.6,289.2 L 155.1,289.7 L 157.7,290.3 L 160.3,290.9 L 162.9,291.4 L 165.5,292.0 L 168.0,292.6 L 170.6,293.1 L 173.2,293.7 L 175.8,294.3 L 178.4,294.8 L 180.9,295.4 L 183.5,296.0 L 186.1,296.5 L 188.7,297.1 L 191.3,297.7 L 193.8,298.2 L 196.4,298.8 L 199.0,299.4 L 201.6,299.9 L 204.2,300.5 L 206.7,301.1 L 209.3,301.6 L 211.9,302.2 L 214.5,302.7 L 217.1,303.3 L 219.6,303.9 L 222.2,304.4 L 224.8,305.0 L 227.4,305.6 L 230.0,306.1 L 232.5,306.7 L 235.1,307.3 L 237.7,307.8 L 240.3,308.4 L 242.9,309.0 L 245.4,309.5 L 248.0,310.1 L 250.6,310.7 L 253.2,311.2 L 255.8,311.8 L 258.3,312.4 L 260.9,312.9 L 263.5,313.5 L 266.1,314.1 L 268.7,314.6 L 271.2,315.2 L 273.8,315.8 L 276.4,316.3 L 279.0,316.5 L 281.6,316.7 L 284.1,316.9 L 286.7,317.1 L 289.3,317.3 L 291.9,317.5 L 294.5,317.7 L 297.0,317.9 L 299.6,318.1 L 302.2,318.3 L 304.8,318.5 L 307.4,318.7 L 309.9,318.9 L 312.5,319.1 L 315.1,319.3 L 317.7,319.5 L 320.3,319.8 L 322.8,320.0 L 325.4,320.2 L 328.0,320.4 L 330.6,320.6 L 333.2,320.8 L 335.7,321.0 L 338.3,321.2 L 340.9,321.4 L 343.5,321.6 L 346.1,321.8 L 348.6,322.0 L 351.2,322.2 L 353.8,322.4 L 356.4,322.6 L 358.9,322.8 L 361.5,323.0 L 364.1,323.2 L 366.7,323.5 L 369.3,323.7 L 371.8,323.9 L 374.4,324.1 L 377.0,324.3 L 379.6,324.5 L 382.2,324.7 L 384.7,324.9 L 387.3,325.1 L 389.9,325.3 L 392.5,325.5 L 395.1,325.7 L 397.6,325.9 L 400.2,326.1 L 402.8,326.3 L 405.4,326.5 L 408.0,326.7 L 410.5,326.9 L 413.1,327.2 L 415.7,327.4 L 418.3,327.6 L 420.9,327.8 L 423.4,328.0 L 426.0,328.2 L 428.6,328.4 L 431.2,328.6 L 433.8,328.8 L 436.3,329.0 L 438.9,329.2 L 441.5,329.4 L 444.1,329.6 L 446.7,329.8 L 449.2,330.0 L 451.8,330.2 L 454.4,330.4 L 457.0,330.6 L 459.6,330.9 L 462.1,331.1 L 464.7,331.3 L 467.3,331.5 L 469.9,331.7 L 472.5,331.9 L 475.0,332.1 L 477.6,332.3 L 480.2,332.5 L 482.8,332.7 L 485.4,332.9 L 487.9,333.1 L 490.5,333.3 L 493.1,333.5 L 495.7,333.7 L 498.3,333.9 L 500.8,334.1 L 503.4,334.4 L 506.0,334.6 L 508.6,334.8 L 511.2,335.0 L 513.7,335.2 L 516.3,335.4 L 518.9,335.6 L 521.5,335.8 L 524.1,336.0 L 526.6,336.2 L 529.2,336.4 L 531.8,336.6 L 534.4,336.8 L 537.0,337.0 L 539.5,337.2 L 542.1,337.4 L 544.7,337.6 L 547.3,337.8 L 549.9,338.1 L 552.4,338.3 L 555.0,338.5 L 557.6,338.7 L 560.2,338.9 L 562.8,339.1 L 565.3,339.3 L 567.9,339.5 L 570.5,339.7 L 573.1,339.9 L 575.7,340.2 L 578.2,342.2 L 580.8,344.2 L 583.4,346.1 L 586.0,348.1 L 588.6,350.1 L 591.1,352.0 L 593.7,354.0 L 596.3,356.0 L 598.9,358.0 L 601.5,359.9 L 604.0,361.9 L 606.6,363.9 L 609.2,365.0 L 611.8,365.0 L 614.4,365.0 L 616.9,365.0 L 619.5,365.0 L 622.1,365.0 L 624.7,365.0 L 627.3,365.0 L 629.8,365.0 L 632.4,365.0 L 635.0,365.0" class="rho"/>
<path d="M 70.0,158.3 L 72.6,158.7 L 75.2,159.3 L 77.7,160.1 L 80.3,161.1 L 82.9,162.3 L 85.5,163.8 L 88.1,165.4 L 90.6,167.2 L 93.2,169.0 L 95.8,170.9 L 98.4,172.8 L 101.0,174.7 L 103.5,176.6 L 106.1,178.5 L 108.7,180.4 L 111.3,182.3 L 113.9,184.1 L 116.4,186.0 L 119.0,187.7 L 121.6,189.5 L 124.2,191.2 L 126.8,192.9 L 129.3,194.6 L 131.9,196.2 L 134.5,197.8 L 137.1,199.4 L 139.7,201.0 L 142.2,202.6 L 144.8,204.2 L 147.4,205.8 L 150.0,207.3 L 152.6,208.9 L 155.1,210.4 L 157.7,212.0 L 160.3,213.5 L 162.9,215.0 L 165.5,216.6 L 168.0,218.1 L 170.6,219.6 L 173.2,221.1 L 175.8,222.6 L 178.4,224.1 L 180.9,225.6 L 183.5,227.1 L 186.1,228.6 L 188.7,230.1 L 191.3,231.5 L 193.8,233.0 L 196.4,234.5 L 199.0,235.9 L 201.6,237.4 L 204.2,238.8 L 206.7,240.2 L 209.3,241.7 L 211.9,243.1 L 214.5,244.5 L 217.1,245.9 L 219.6,247.3 L 222.2,248.7 L 224.8,250.1 L 227.4,251.4 L 230.0,252.8 L 232.5,254.1 L 235.1,255.4 L 237.7,256.7 L 240.3,258.0 L 242.9,259.3 L 245.4,260.6 L 248.0,261.9 L 250.6,263.1 L 253.2,264.3 L 255.8,265.5 L 258.3,266.7 L 260.9,267.9 L 263.5,269.1 L 266.1,270.2 L 268.7,271.3 L 271.2,272.4 L 273.8,273.5 L 276.4,274.6 L 279.0,275.6 L 281.6,276.7 L 284.1,277.7 L 286.7,278.7 L 289.3,279.7 L 291.9,280.6 L 294.5,281.6 L 297.0,282.5 L 299.6,283.4 L 302.2,284.3 L 304.8,285.2 L 307.4,286.1 L 309.9,287.0 L 312.5,287.8 L 315.1,288.6 L 317.7,289.5 L 320.3,290.3 L 322.8,291.1 L 325.4,291.9 L 328.0,292.7 L 330.6,293.4 L 333.2,294.2 L 335.7,295.0 L 338.3,295.7 L 340.9,296.5 L 343.5,297.2 L 346.1,297.9 L 348.6,298.6 L 351.2,299.4 L 353.8,300.1 L 356.4,300.7 L 358.9,301.4 L 361.5,302.1 L 364.1,302.8 L 366.7,303.5 L 369.3,304.1 L 371.8,304.8 L 374.4,305.4 L 377.0,306.1 L 379.6,306.7 L 382.2,307.3 L 384.7,308.0 L 387.3,308.6 L 389.9,309.2 L 392.5,309.8 L 395.1,310.4 L 397.6,311.0 L 400.2,311.6 L 402.8,312.2 L 405.4,312.8 L 408.0,313.3 L 410.5,313.9 L 413.1,314.5 L 415.7,315.0 L 418.3,315.6 L 420.9,316.2 L 423.4,316.7 L 426.0,317.3 L 428.6,317.8 L 431.2,318.3 L 433.8,318.9 L 436.3,319.4 L 438.9,319.9 L 441.5,320.4 L 444.1,320.9 L 446.7,321.5 L 449.2,322.0 L 451.8,322.5 L 454.4,323.0 L 457.0,323.5 L 459.6,324.0 L 462.1,324.4 L 464.7,324.9 L 467.3,325.4 L 469.9,325.9 L 472.5,326.3 L 475.0,326.8 L 477.6,327.3 L 480.2,327.7 L 482.8,328.2 L 485.4,328.7 L 487.9,329.1 L 490.5,329.6 L 493.1,330.0 L 495.7,330.5 L 498.3,330.9 L 500.8,331.3 L 503.4,331.8 L 506.0,332.2 L 508.6,332.6 L 511.2,333.0 L 513.7,333.5 L 516.3,333.9 L 518.9,334.3 L 521.5,334.7 L 524.1,335.1 L 526.6,335.6 L 529.2,336.0 L 531.8,336.4 L 534.4,336.8 L 537.0,337.2 L 539.5,337.6 L 542.1,338.0 L 544.7,338.4 L 547.3,338.8 L 549.9,339.2 L 552.4,339.6 L 555.0,340.0 L 557.6,340.4 L 560.2,340.8 L 562.8,341.2 L 565.3,341.6 L 567.9,342.0 L 570.5,342.4 L 573.1,342.8 L 575.7,343.2 L 578.2,343.6 L 580.8,344.0 L 583.4,344.4 L 586.0,344.8 L 588.6,345.2 L 591.1,345.6 L 593.7,345.9 L 596.3,346.3 L 598.9,346.6 L 601.5,347.0 L 604.0,347.3 L 606.6,347.6 L 609.2,347.9 L 611.8,348.2 L 614.4,348.5 L 616.9,348.8 L 619.5,349.0 L 622.1,349.3 L 624.7,349.5 L 627.3,349.8 L 629.8,350.0 L 632.4,350.2 L 635.0,350.4" class="sig"/>
<path d="M 75.7,300.7 L 81.3,279.1 L 87.0,266.4 L 92.6,256.9 L 98.2,248.6 L 103.9,241.5 L 109.5,235.5 L 115.2,230.1 L 120.8,224.7 L 126.5,219.5 L 132.2,214.4 L 137.8,209.5 L 143.4,204.8 L 149.1,200.2 L 154.8,195.9 L 160.4,191.7 L 166.1,187.7 L 171.7,183.9 L 177.3,180.2 L 183.0,176.7 L 188.6,173.3 L 194.3,170.1 L 200.0,167.0 L 205.6,164.0 L 211.2,161.1 L 216.9,158.4 L 222.6,155.8 L 228.2,153.3 L 233.9,150.9 L 239.5,148.7 L 245.2,146.5 L 250.8,144.4 L 256.4,142.4 L 262.1,140.6 L 267.8,138.8 L 273.4,137.1 L 279.1,135.5 L 284.7,133.9 L 290.3,132.3 L 296.0,130.8 L 301.6,129.2 L 307.3,127.7 L 313.0,126.2 L 318.6,124.7 L 324.2,123.3 L 329.9,121.8 L 335.6,120.4 L 341.2,119.0 L 346.9,117.7 L 352.5,116.3 L 358.2,115.0 L 363.8,113.7 L 369.4,112.5 L 375.1,111.2 L 380.8,110.0 L 386.4,108.8 L 392.1,107.7 L 397.7,106.5 L 403.4,105.4 L 409.0,104.3 L 414.6,103.2 L 420.3,102.2 L 425.9,101.2 L 431.6,100.2 L 437.3,99.2 L 442.9,98.3 L 448.6,97.3 L 454.2,96.4 L 459.8,95.6 L 465.5,94.7 L 471.2,93.9 L 476.8,93.1 L 482.4,92.3 L 488.1,91.6 L 493.8,90.8 L 499.4,90.1 L 505.1,89.4 L 510.7,88.8 L 516.4,88.1 L 522.0,87.5 L 527.6,86.9 L 533.3,86.4 L 539.0,85.8 L 544.6,85.3 L 550.2,84.8 L 555.9,84.3 L 561.5,83.9 L 567.2,83.5 L 572.9,83.0 L 578.5,82.7 L 584.1,82.7 L 589.8,82.9 L 595.4,83.5 L 601.1,84.4 L 606.8,85.7 L 612.4,87.1 L 618.0,88.5 L 623.7,90.0 L 629.4,91.4 L 635.0,92.7" class="nt"/>
<path d="M 74.7,331.8 L 79.4,308.0 L 84.1,284.2 L 88.8,263.5 L 93.5,246.5 L 98.2,232.8 L 103.0,221.8 L 107.7,213.0 L 112.4,205.7 L 117.1,199.6 L 121.8,194.2 L 126.5,189.0 L 131.2,184.0 L 135.9,178.9 L 140.6,173.9 L 145.3,168.8 L 150.0,163.8 L 154.8,158.7 L 159.5,153.8 L 164.2,149.0 L 168.9,144.2 L 173.6,139.7 L 178.3,135.2 L 183.0,131.0 L 187.7,126.9 L 192.4,123.1 L 197.1,119.5 L 201.8,116.0 L 206.5,112.8 L 211.2,109.9 L 216.0,107.2 L 220.7,104.7 L 225.4,102.5 L 230.1,100.6 L 234.8,99.0 L 239.5,97.6 L 244.2,96.6 L 248.9,95.9 L 253.6,95.5 L 258.3,95.5 L 263.0,95.8 L 267.8,96.4 L 272.5,97.4 L 277.2,98.5 L 281.9,99.7 L 286.6,101.0 L 291.3,102.2 L 296.0,103.4 L 300.7,104.5 L 305.4,105.5 L 310.1,106.3 L 314.8,107.1 L 319.5,107.8 L 324.2,108.4 L 329.0,109.0 L 333.7,109.4 L 338.4,109.9 L 343.1,110.3 L 347.8,110.6 L 352.5,110.9 L 357.2,111.2 L 361.9,111.5 L 366.6,111.7 L 371.3,112.0 L 376.0,112.2 L 380.7,112.4 L 385.5,112.6 L 390.2,112.8 L 394.9,113.0 L 399.6,113.2 L 404.3,113.4 L 409.0,113.5 L 413.7,113.8 L 418.4,114.0 L 423.1,114.2 L 427.8,114.4 L 432.5,114.6 L 437.2,114.8 L 442.0,115.1 L 446.7,115.3 L 451.4,115.6 L 456.1,115.8 L 460.8,116.1 L 465.5,116.3 L 470.2,116.6 L 474.9,116.8 L 479.6,117.1 L 484.3,117.3 L 489.0,117.5 L 493.8,117.7 L 498.5,117.9 L 503.2,118.0 L 507.9,118.1 L 512.6,118.1 L 517.3,118.0 L 522.0,117.9 L 526.7,117.6 L 531.4,117.3 L 536.1,116.7 L 540.8,116.0 L 545.5,115.2 L 550.2,114.1 L 555.0,112.8 L 559.7,111.4 L 564.4,110.0 L 569.1,108.9 L 573.8,108.3 L 578.5,108.5 L 583.2,110.0 L 587.9,112.6 L 592.6,116.5 L 597.3,121.4 L 602.0,127.2 L 606.8,133.4 L 611.5,139.7 L 616.2,146.0 L 620.9,152.0 L 625.6,157.6 L 630.3,162.9 L 635.0,167.8" class="fw"/>
<line x1="144.65933504561627" y1="150.00928057589977" x2="144.65933504561627" y2="187.36505565019417" class="err"/>
<line x1="141.65933504561627" y1="150.00928057589977" x2="147.65933504561627" y2="150.00928057589977" class="err"/>
<line x1="141.65933504561627" y1="187.36505565019417" x2="147.65933504561627" y2="187.36505565019417" class="err"/>
<circle cx="144.65933504561627" cy="168.68716811304694" r="2.5" class="obs"/>
<line x1="219.31867009123252" y1="87.17183990568296" x2="219.31867009123252" y2="124.52761497997737" class="err"/>
<line x1="216.31867009123252" y1="87.17183990568296" x2="222.31867009123252" y2="87.17183990568296" class="err"/>
<line x1="216.31867009123252" y1="124.52761497997737" x2="222.31867009123252" y2="124.52761497997737" class="err"/>
<circle cx="219.31867009123252" cy="105.84972744283016" r="2.5" class="obs"/>
<line x1="293.97800513684876" y1="83.27158496753157" x2="293.97800513684876" y2="120.62736004182598" class="err"/>
<line x1="290.97800513684876" y1="83.27158496753157" x2="296.97800513684876" y2="83.27158496753157" class="err"/>
<line x1="290.97800513684876" y1="120.62736004182598" x2="296.97800513684876" y2="120.62736004182598" class="err"/>
<circle cx="293.97800513684876" cy="101.94947250467877" r="2.5" class="obs"/>
<line x1="368.63734018246504" y1="91.50545650362896" x2="368.63734018246504" y2="128.86123157792338" class="err"/>
<line x1="365.63734018246504" y1="91.50545650362896" x2="371.63734018246504" y2="91.50545650362896" class="err"/>
<line x1="365.63734018246504" y1="128.86123157792338" x2="371.63734018246504" y2="128.86123157792338" class="err"/>
<circle cx="368.63734018246504" cy="110.18334404077616" r="2.5" class="obs"/>
<line x1="443.29667522808137" y1="95.40571144178035" x2="443.29667522808137" y2="132.76148651607474" class="err"/>
<line x1="440.29667522808137" y1="95.40571144178035" x2="446.29667522808137" y2="95.40571144178035" class="err"/>
<line x1="440.29667522808137" y1="132.76148651607474" x2="446.29667522808137" y2="132.76148651607474" class="err"/>
<circle cx="443.29667522808137" cy="114.08359897892755" r="2.5" class="obs"/>
<line x1="517.9560102736975" y1="99.73932803972632" x2="517.9560102736975" y2="137.09510311402073" class="err"/>
<line x1="514.9560102736975" y1="99.73932803972632" x2="520.9560102736975" y2="99.73932803972632" class="err"/>
<line x1="514.9560102736975" y1="137.09510311402073" x2="520.9560102736975" y2="137.09510311402073" class="err"/>
<circle cx="517.9560102736975" cy="118.41721557687352" r="2.5" class="obs"/>
<line x1="592.6153453193139" y1="104.07294463767232" x2="592.6153453193139" y2="141.42871971196672" class="err"/>
<line x1="589.6153453193139" y1="104.07294463767232" x2="595.6153453193139" y2="104.07294463767232" class="err"/>
<line x1="589.6153453193139" y1="141.42871971196672" x2="595.6153453193139" y2="141.42871971196672" class="err"/>
<circle cx="592.6153453193139" cy="122.75083217481952" r="2.5" class="obs"/>
<g class="legend">
<line x1="82" y1="69" x2="106" y2="69" class="fw"/>
<text x="112" y="73" class="lbl-l">framework fit</text>
<line x1="82" y1="87" x2="106" y2="87" class="nt"/>
<text x="112" y="91" class="lbl-l">Newtonian (no halo)</text>
<circle cx="94" cy="105" r="2.5" class="obs"/>
<text x="112" y="109" class="lbl">observed V±err</text>
</g>
<g class="legend">
<line x1="460" y1="69" x2="484" y2="69" class="rho"/>
<text x="490" y="73" class="lbl-r">ρ(r) raw</text>
<line x1="460" y1="87" x2="484" y2="87" class="sig"/>
<text x="490" y="91" class="lbl-r">Σ(r) smoothed</text>
<text x="460" y="113" class="lbl-r">ρ peak: 405 M☉/pc²</text>
</g>
</svg>