<svg xmlns="http://www.w3.org/2000/svg" viewBox="0 0 720 420" width="720" height="420" font-family="sans-serif" font-size="12">
<style>
  .ax { stroke: #333; stroke-width: 1; fill: none; }
  .grid { stroke: #ddd; stroke-width: 0.5; fill: none; }
  .lbl { fill: #333; }
  .lbl-l { fill: #0066cc; }
  .lbl-r { fill: #b03030; }
  .obs { fill: #222; }
  .err { stroke: #555; stroke-width: 0.8; fill: none; }
  .fw { stroke: #0066cc; stroke-width: 2.2; fill: none; }
  .nt { stroke: #cc6600; stroke-width: 1.6; fill: none; stroke-dasharray: 5,3; }
  .rho { stroke: #b03030; stroke-width: 2.0; fill: none; }
  .sig { stroke: #b03030; stroke-width: 1.6; fill: none; stroke-dasharray: 4,2; opacity: 0.85; }
  .title { fill: #111; font-size: 16px; font-weight: 600; }
  .subtitle { fill: #555; font-size: 11px; }
  .legend { font-size: 11px; }
</style>
<text x="360.0" y="22" text-anchor="middle" class="title">UGC02885</text>
<text x="360.0" y="38" text-anchor="middle" class="subtitle">rMax=74.1 kpc, N=19, RMS=15.0 km/s (5.2%), amp=1262</text>
<line x1="70" y1="365.0" x2="635" y2="365.0" class="grid"/>
<text x="64" y="369.0" text-anchor="end" class="lbl-l">0</text>
<line x1="70" y1="303.0" x2="635" y2="303.0" class="grid"/>
<text x="64" y="307.0" text-anchor="end" class="lbl-l">136</text>
<line x1="70" y1="241.0" x2="635" y2="241.0" class="grid"/>
<text x="64" y="245.0" text-anchor="end" class="lbl-l">272</text>
<line x1="70" y1="179.0" x2="635" y2="179.0" class="grid"/>
<text x="64" y="183.0" text-anchor="end" class="lbl-l">407</text>
<line x1="70" y1="116.99999999999999" x2="635" y2="116.99999999999999" class="grid"/>
<text x="64" y="120.99999999999999" text-anchor="end" class="lbl-l">543</text>
<line x1="70" y1="55.0" x2="635" y2="55.0" class="grid"/>
<text x="64" y="59.0" text-anchor="end" class="lbl-l">679</text>
<text x="641" y="369.0" text-anchor="start" class="lbl-r">0.0</text>
<text x="641" y="327.6666666666667" text-anchor="start" class="lbl-r">0.2</text>
<text x="641" y="286.33333333333337" text-anchor="start" class="lbl-r">0.4</text>
<text x="641" y="245.00000000000003" text-anchor="start" class="lbl-r">0.6</text>
<text x="641" y="203.66666666666666" text-anchor="start" class="lbl-r">0.8</text>
<text x="641" y="162.33333333333334" text-anchor="start" class="lbl-r">1.0</text>
<line x1="70.0" y1="55" x2="70.0" y2="365" class="grid"/>
<text x="70.0" y="381" text-anchor="middle" class="lbl">0.0</text>
<line x1="164.16666666666669" y1="55" x2="164.16666666666669" y2="365" class="grid"/>
<text x="164.16666666666669" y="381" text-anchor="middle" class="lbl">14.7</text>
<line x1="258.33333333333337" y1="55" x2="258.33333333333337" y2="365" class="grid"/>
<text x="258.33333333333337" y="381" text-anchor="middle" class="lbl">29.5</text>
<line x1="352.5" y1="55" x2="352.5" y2="365" class="grid"/>
<text x="352.5" y="381" text-anchor="middle" class="lbl">44.2</text>
<line x1="446.6666666666667" y1="55" x2="446.6666666666667" y2="365" class="grid"/>
<text x="446.6666666666667" y="381" text-anchor="middle" class="lbl">58.9</text>
<line x1="540.8333333333333" y1="55" x2="540.8333333333333" y2="365" class="grid"/>
<text x="540.8333333333333" y="381" text-anchor="middle" class="lbl">73.6</text>
<line x1="635.0" y1="55" x2="635.0" y2="365" class="grid"/>
<text x="635.0" y="381" text-anchor="middle" class="lbl">88.4</text>
<text x="352.5" y="408" text-anchor="middle" class="lbl">radius (kpc)</text>
<text x="16" y="210.0" text-anchor="middle" class="lbl-l" transform="rotate(-90, 16, 210.0)">velocity (km/s)</text>
<text x="704" y="210.0" text-anchor="middle" class="lbl-r" transform="rotate(-90, 704, 210.0)">mass profile (normalized to peak)</text>
<rect x="70" y="55" width="565" height="310" class="ax"/>
<path d="M 70.0,158.3 L 72.6,185.9 L 75.2,213.4 L 77.7,240.9 L 80.3,268.4 L 82.9,295.9 L 85.5,320.0 L 88.1,320.3 L 90.6,320.6 L 93.2,320.8 L 95.8,321.1 L 98.4,321.3 L 101.0,321.6 L 103.5,321.9 L 106.1,322.1 L 108.7,322.4 L 111.3,322.7 L 113.9,322.9 L 116.4,323.2 L 119.0,323.4 L 121.6,323.7 L 124.2,324.0 L 126.8,324.2 L 129.3,324.5 L 131.9,324.7 L 134.5,325.0 L 137.1,325.3 L 139.7,325.5 L 142.2,325.8 L 144.8,326.0 L 147.4,326.3 L 150.0,326.6 L 152.6,326.8 L 155.1,327.1 L 157.7,327.3 L 160.3,327.6 L 162.9,327.9 L 165.5,328.1 L 168.0,328.4 L 170.6,328.6 L 173.2,328.9 L 175.8,329.5 L 178.4,330.2 L 180.9,330.8 L 183.5,331.5 L 186.1,332.1 L 188.7,332.7 L 191.3,332.8 L 193.8,332.9 L 196.4,333.1 L 199.0,333.2 L 201.6,333.3 L 204.2,333.5 L 206.7,333.6 L 209.3,333.7 L 211.9,333.9 L 214.5,334.0 L 217.1,334.1 L 219.6,334.3 L 222.2,334.4 L 224.8,334.5 L 227.4,334.7 L 230.0,334.8 L 232.5,334.9 L 235.1,335.0 L 237.7,335.2 L 240.3,335.3 L 242.9,335.4 L 245.4,335.6 L 248.0,335.7 L 250.6,335.8 L 253.2,336.0 L 255.8,336.1 L 258.3,336.2 L 260.9,336.4 L 263.5,336.5 L 266.1,336.6 L 268.7,336.8 L 271.2,336.9 L 273.8,337.0 L 276.4,337.2 L 279.0,337.3 L 281.6,337.4 L 284.1,337.6 L 286.7,337.7 L 289.3,337.8 L 291.9,337.9 L 294.5,338.1 L 297.0,338.2 L 299.6,338.3 L 302.2,338.5 L 304.8,338.6 L 307.4,338.7 L 309.9,338.9 L 312.5,339.0 L 315.1,339.1 L 317.7,339.3 L 320.3,339.4 L 322.8,339.5 L 325.4,339.7 L 328.0,339.8 L 330.6,339.9 L 333.2,340.1 L 335.7,340.2 L 338.3,340.3 L 340.9,340.5 L 343.5,340.6 L 346.1,340.7 L 348.6,340.8 L 351.2,341.0 L 353.8,341.1 L 356.4,341.2 L 358.9,341.4 L 361.5,341.5 L 364.1,341.6 L 366.7,341.8 L 369.3,341.9 L 371.8,342.0 L 374.4,342.2 L 377.0,342.3 L 379.6,342.4 L 382.2,342.6 L 384.7,342.7 L 387.3,342.8 L 389.9,343.0 L 392.5,343.1 L 395.1,343.2 L 397.6,343.4 L 400.2,343.5 L 402.8,343.6 L 405.4,343.7 L 408.0,343.9 L 410.5,344.0 L 413.1,344.1 L 415.7,344.3 L 418.3,344.4 L 420.9,344.5 L 423.4,344.7 L 426.0,344.8 L 428.6,344.9 L 431.2,345.1 L 433.8,345.2 L 436.3,345.3 L 438.9,345.5 L 441.5,345.6 L 444.1,345.7 L 446.7,345.9 L 449.2,346.0 L 451.8,346.1 L 454.4,346.2 L 457.0,346.4 L 459.6,346.5 L 462.1,346.6 L 464.7,346.8 L 467.3,346.9 L 469.9,347.0 L 472.5,347.2 L 475.0,347.3 L 477.6,347.4 L 480.2,347.6 L 482.8,347.7 L 485.4,347.8 L 487.9,348.0 L 490.5,348.1 L 493.1,348.2 L 495.7,348.4 L 498.3,348.5 L 500.8,348.6 L 503.4,348.8 L 506.0,348.9 L 508.6,349.0 L 511.2,349.3 L 513.7,349.7 L 516.3,350.2 L 518.9,350.6 L 521.5,351.0 L 524.1,351.4 L 526.6,351.8 L 529.2,352.2 L 531.8,352.7 L 534.4,353.1 L 537.0,353.5 L 539.5,353.9 L 542.1,354.3 L 544.7,354.7 L 547.3,355.2 L 549.9,355.6 L 552.4,356.0 L 555.0,356.4 L 557.6,356.8 L 560.2,357.3 L 562.8,357.7 L 565.3,358.1 L 567.9,358.5 L 570.5,358.9 L 573.1,359.3 L 575.7,359.8 L 578.2,360.2 L 580.8,360.6 L 583.4,361.0 L 586.0,361.4 L 588.6,361.8 L 591.1,362.3 L 593.7,362.7 L 596.3,363.1 L 598.9,363.5 L 601.5,363.9 L 604.0,364.3 L 606.6,364.8 L 609.2,365.0 L 611.8,365.0 L 614.4,365.0 L 616.9,365.0 L 619.5,365.0 L 622.1,365.0 L 624.7,365.0 L 627.3,365.0 L 629.8,365.0 L 632.4,365.0 L 635.0,365.0" class="rho"/>
<path d="M 70.0,158.3 L 72.6,162.7 L 75.2,169.4 L 77.7,178.0 L 80.3,187.7 L 82.9,197.5 L 85.5,206.7 L 88.1,214.9 L 90.6,221.7 L 93.2,227.4 L 95.8,232.1 L 98.4,236.1 L 101.0,239.5 L 103.5,242.6 L 106.1,245.3 L 108.7,247.7 L 111.3,250.0 L 113.9,252.0 L 116.4,253.9 L 119.0,255.8 L 121.6,257.5 L 124.2,259.1 L 126.8,260.7 L 129.3,262.2 L 131.9,263.7 L 134.5,265.1 L 137.1,266.5 L 139.7,267.9 L 142.2,269.2 L 144.8,270.5 L 147.4,271.8 L 150.0,273.1 L 152.6,274.4 L 155.1,275.6 L 157.7,276.8 L 160.3,278.1 L 162.9,279.3 L 165.5,280.5 L 168.0,281.7 L 170.6,282.9 L 173.2,284.1 L 175.8,285.3 L 178.4,286.5 L 180.9,287.6 L 183.5,288.8 L 186.1,289.9 L 188.7,290.9 L 191.3,292.0 L 193.8,293.0 L 196.4,293.9 L 199.0,294.9 L 201.6,295.7 L 204.2,296.6 L 206.7,297.4 L 209.3,298.3 L 211.9,299.1 L 214.5,299.8 L 217.1,300.6 L 219.6,301.4 L 222.2,302.1 L 224.8,302.8 L 227.4,303.5 L 230.0,304.2 L 232.5,304.9 L 235.1,305.6 L 237.7,306.2 L 240.3,306.9 L 242.9,307.5 L 245.4,308.2 L 248.0,308.8 L 250.6,309.4 L 253.2,310.0 L 255.8,310.6 L 258.3,311.2 L 260.9,311.8 L 263.5,312.4 L 266.1,313.0 L 268.7,313.6 L 271.2,314.1 L 273.8,314.7 L 276.4,315.2 L 279.0,315.8 L 281.6,316.3 L 284.1,316.9 L 286.7,317.4 L 289.3,318.0 L 291.9,318.5 L 294.5,319.0 L 297.0,319.5 L 299.6,320.1 L 302.2,320.6 L 304.8,321.1 L 307.4,321.6 L 309.9,322.1 L 312.5,322.6 L 315.1,323.1 L 317.7,323.6 L 320.3,324.0 L 322.8,324.5 L 325.4,325.0 L 328.0,325.5 L 330.6,325.9 L 333.2,326.4 L 335.7,326.9 L 338.3,327.3 L 340.9,327.8 L 343.5,328.2 L 346.1,328.7 L 348.6,329.1 L 351.2,329.6 L 353.8,330.0 L 356.4,330.4 L 358.9,330.9 L 361.5,331.3 L 364.1,331.7 L 366.7,332.1 L 369.3,332.5 L 371.8,333.0 L 374.4,333.4 L 377.0,333.8 L 379.6,334.2 L 382.2,334.6 L 384.7,335.0 L 387.3,335.4 L 389.9,335.8 L 392.5,336.1 L 395.1,336.5 L 397.6,336.9 L 400.2,337.3 L 402.8,337.7 L 405.4,338.0 L 408.0,338.4 L 410.5,338.8 L 413.1,339.1 L 415.7,339.5 L 418.3,339.8 L 420.9,340.2 L 423.4,340.5 L 426.0,340.9 L 428.6,341.2 L 431.2,341.6 L 433.8,341.9 L 436.3,342.3 L 438.9,342.6 L 441.5,342.9 L 444.1,343.2 L 446.7,343.6 L 449.2,343.9 L 451.8,344.2 L 454.4,344.5 L 457.0,344.8 L 459.6,345.2 L 462.1,345.5 L 464.7,345.8 L 467.3,346.1 L 469.9,346.4 L 472.5,346.7 L 475.0,347.0 L 477.6,347.3 L 480.2,347.6 L 482.8,347.9 L 485.4,348.2 L 487.9,348.5 L 490.5,348.8 L 493.1,349.1 L 495.7,349.4 L 498.3,349.7 L 500.8,350.0 L 503.4,350.3 L 506.0,350.6 L 508.6,350.9 L 511.2,351.2 L 513.7,351.5 L 516.3,351.8 L 518.9,352.1 L 521.5,352.4 L 524.1,352.7 L 526.6,353.0 L 529.2,353.3 L 531.8,353.6 L 534.4,353.9 L 537.0,354.2 L 539.5,354.4 L 542.1,354.7 L 544.7,355.0 L 547.3,355.2 L 549.9,355.4 L 552.4,355.7 L 555.0,355.9 L 557.6,356.1 L 560.2,356.3 L 562.8,356.5 L 565.3,356.7 L 567.9,356.9 L 570.5,357.1 L 573.1,357.3 L 575.7,357.4 L 578.2,357.6 L 580.8,357.7 L 583.4,357.9 L 586.0,358.0 L 588.6,358.1 L 591.1,358.3 L 593.7,358.4 L 596.3,358.5 L 598.9,358.6 L 601.5,358.7 L 604.0,358.8 L 606.6,358.9 L 609.2,359.0 L 611.8,359.1 L 614.4,359.2 L 616.9,359.3 L 619.5,359.3 L 622.1,359.4 L 624.7,359.5 L 627.3,359.6 L 629.8,359.7 L 632.4,359.7 L 635.0,359.8" class="sig"/>
<path d="M 75.7,280.9 L 81.3,261.4 L 87.0,259.0 L 92.6,256.7 L 98.2,252.1 L 103.9,246.7 L 109.5,241.0 L 115.2,235.3 L 120.8,229.7 L 126.5,224.3 L 132.1,219.1 L 137.8,214.2 L 143.4,209.4 L 149.1,204.8 L 154.8,200.4 L 160.4,196.1 L 166.1,192.1 L 171.7,188.2 L 177.3,184.5 L 183.0,181.2 L 188.6,178.2 L 194.3,175.3 L 199.9,172.4 L 205.6,169.6 L 211.2,166.9 L 216.9,164.2 L 222.6,161.5 L 228.2,158.9 L 233.9,156.4 L 239.5,153.9 L 245.2,151.5 L 250.8,149.1 L 256.4,146.7 L 262.1,144.5 L 267.8,142.2 L 273.4,140.0 L 279.1,137.9 L 284.7,135.8 L 290.3,133.8 L 296.0,131.7 L 301.6,129.8 L 307.3,127.9 L 312.9,126.0 L 318.6,124.2 L 324.2,122.4 L 329.9,120.7 L 335.6,119.0 L 341.2,117.4 L 346.8,115.8 L 352.5,114.2 L 358.1,112.6 L 363.8,111.2 L 369.4,109.7 L 375.1,108.3 L 380.8,106.9 L 386.4,105.6 L 392.0,104.3 L 397.7,103.0 L 403.3,101.8 L 409.0,100.6 L 414.6,99.4 L 420.3,98.3 L 425.9,97.2 L 431.6,96.1 L 437.2,95.1 L 442.9,94.1 L 448.6,93.1 L 454.2,92.2 L 459.9,91.3 L 465.5,90.4 L 471.2,89.6 L 476.8,88.8 L 482.5,88.0 L 488.1,87.2 L 493.8,86.5 L 499.4,85.8 L 505.1,85.2 L 510.7,84.6 L 516.3,84.0 L 522.0,83.6 L 527.7,83.3 L 533.3,83.2 L 539.0,83.1 L 544.6,83.2 L 550.2,83.4 L 555.9,83.7 L 561.5,84.1 L 567.2,84.7 L 572.8,85.3 L 578.5,86.1 L 584.1,86.9 L 589.8,87.9 L 595.5,89.0 L 601.1,90.3 L 606.7,91.6 L 612.4,93.0 L 618.0,94.4 L 623.7,95.8 L 629.4,97.2 L 635.0,98.5" class="nt"/>
<path d="M 74.7,294.2 L 79.4,254.1 L 84.1,230.7 L 88.8,225.9 L 93.5,231.7 L 98.2,239.1 L 103.0,245.3 L 107.7,249.3 L 112.4,251.5 L 117.1,252.6 L 121.8,252.6 L 126.5,252.1 L 131.2,251.0 L 135.9,249.6 L 140.6,247.9 L 145.3,246.0 L 150.0,243.9 L 154.8,241.6 L 159.5,239.2 L 164.2,236.6 L 168.9,233.9 L 173.6,231.5 L 178.3,229.8 L 183.0,229.5 L 187.7,230.3 L 192.4,232.1 L 197.1,233.9 L 201.8,235.6 L 206.5,236.7 L 211.2,237.6 L 216.0,238.2 L 220.7,238.5 L 225.4,238.7 L 230.1,238.8 L 234.8,238.8 L 239.5,238.6 L 244.2,238.4 L 248.9,238.2 L 253.6,237.9 L 258.3,237.6 L 263.0,237.2 L 267.8,236.9 L 272.5,236.5 L 277.2,236.1 L 281.9,235.8 L 286.6,235.4 L 291.3,235.0 L 296.0,234.6 L 300.7,234.3 L 305.4,233.9 L 310.1,233.6 L 314.8,233.3 L 319.5,233.0 L 324.2,232.7 L 329.0,232.4 L 333.7,232.2 L 338.4,232.0 L 343.1,231.8 L 347.8,231.6 L 352.5,231.4 L 357.2,231.3 L 361.9,231.2 L 366.6,231.1 L 371.3,231.0 L 376.0,230.9 L 380.8,230.9 L 385.5,230.9 L 390.2,230.9 L 394.9,230.9 L 399.6,231.0 L 404.3,231.1 L 409.0,231.1 L 413.7,231.2 L 418.4,231.3 L 423.1,231.5 L 427.8,231.6 L 432.5,231.7 L 437.2,231.9 L 442.0,232.0 L 446.7,232.1 L 451.4,232.3 L 456.1,232.4 L 460.8,232.4 L 465.5,232.4 L 470.2,232.4 L 474.9,232.3 L 479.6,232.0 L 484.3,231.6 L 489.0,231.0 L 493.8,230.1 L 498.5,229.0 L 503.2,227.6 L 507.9,226.2 L 512.6,225.0 L 517.3,224.2 L 522.0,224.2 L 526.7,224.9 L 531.4,226.3 L 536.1,228.3 L 540.8,230.8 L 545.5,233.7 L 550.2,236.9 L 555.0,240.4 L 559.7,244.0 L 564.4,247.8 L 569.1,251.7 L 573.8,255.6 L 578.5,259.4 L 583.2,263.2 L 587.9,266.8 L 592.6,270.2 L 597.3,273.3 L 602.0,276.2 L 606.8,278.9 L 611.5,281.2 L 616.2,283.4 L 620.9,285.3 L 625.6,287.1 L 630.3,288.8 L 635.0,290.3" class="fw"/>
<line x1="80.87144803024529" y1="221.19437012863915" x2="80.87144803024529" y2="230.32488631094776" class="err"/>
<line x1="77.87144803024529" y1="221.19437012863915" x2="83.87144803024529" y2="221.19437012863915" class="err"/>
<line x1="77.87144803024529" y1="230.32488631094776" x2="83.87144803024529" y2="230.32488631094776" class="err"/>
<circle cx="80.87144803024529" cy="225.75962821979346" r="2.5" class="obs"/>
<line x1="91.80684575478614" y1="243.10760896617987" x2="91.80684575478614" y2="252.23812514848848" class="err"/>
<line x1="88.80684575478614" y1="243.10760896617987" x2="94.80684575478614" y2="243.10760896617987" class="err"/>
<line x1="88.80684575478614" y1="252.23812514848848" x2="94.80684575478614" y2="252.23812514848848" class="err"/>
<circle cx="91.80684575478614" cy="247.67286705733414" r="2.5" class="obs"/>
<line x1="113.61369150957228" y1="243.5641347752953" x2="113.61369150957228" y2="252.6946509576039" class="err"/>
<line x1="110.61369150957228" y1="243.5641347752953" x2="116.61369150957228" y2="243.5641347752953" class="err"/>
<line x1="110.61369150957228" y1="252.6946509576039" x2="116.61369150957228" y2="252.6946509576039" class="err"/>
<circle cx="113.61369150957228" cy="248.1293928664496" r="2.5" class="obs"/>
<line x1="157.41923210203123" y1="236.7162476385638" x2="157.41923210203123" y2="245.8467638208724" class="err"/>
<line x1="154.41923210203123" y1="236.7162476385638" x2="160.41923210203123" y2="236.7162476385638" class="err"/>
<line x1="154.41923210203123" y1="245.8467638208724" x2="160.41923210203123" y2="245.8467638208724" class="err"/>
<circle cx="157.41923210203123" cy="241.2815057297181" r="2.5" class="obs"/>
<line x1="194.63795418204742" y1="231.69446373829405" x2="194.63795418204742" y2="240.8249799206027" class="err"/>
<line x1="191.63795418204742" y1="231.69446373829405" x2="197.63795418204742" y2="231.69446373829405" class="err"/>
<line x1="191.63795418204742" y1="240.8249799206027" x2="197.63795418204742" y2="240.8249799206027" class="err"/>
<circle cx="194.63795418204742" cy="236.2597218294484" r="2.5" class="obs"/>
<line x1="219.38648587442935" y1="229.4118346927169" x2="219.38648587442935" y2="238.5423508750255" class="err"/>
<line x1="216.38648587442935" y1="229.4118346927169" x2="222.38648587442935" y2="229.4118346927169" class="err"/>
<line x1="216.38648587442935" y1="238.5423508750255" x2="222.38648587442935" y2="238.5423508750255" class="err"/>
<circle cx="219.38648587442935" cy="233.97709278387123" r="2.5" class="obs"/>
<line x1="244.19896726110682" y1="231.2379379291786" x2="244.19896726110682" y2="240.36845411148724" class="err"/>
<line x1="241.19896726110682" y1="231.2379379291786" x2="247.19896726110682" y2="231.2379379291786" class="err"/>
<line x1="241.19896726110682" y1="240.36845411148724" x2="247.19896726110682" y2="240.36845411148724" class="err"/>
<circle cx="244.19896726110682" cy="235.80319602033296" r="2.5" class="obs"/>
<line x1="269.6509455907399" y1="232.6075153565249" x2="269.6509455907399" y2="241.73803153883355" class="err"/>
<line x1="266.6509455907399" y1="232.6075153565249" x2="272.6509455907399" y2="232.6075153565249" class="err"/>
<line x1="266.6509455907399" y1="241.73803153883355" x2="272.6509455907399" y2="241.73803153883355" class="err"/>
<circle cx="269.6509455907399" cy="237.17277344767925" r="2.5" class="obs"/>
<line x1="294.4634269774174" y1="232.6075153565249" x2="294.4634269774174" y2="241.73803153883355" class="err"/>
<line x1="291.4634269774174" y1="232.6075153565249" x2="297.4634269774174" y2="232.6075153565249" class="err"/>
<line x1="291.4634269774174" y1="241.73803153883355" x2="297.4634269774174" y2="241.73803153883355" class="err"/>
<circle cx="294.4634269774174" cy="237.17277344767925" r="2.5" class="obs"/>
<line x1="319.2119586697993" y1="232.15098954740947" x2="319.2119586697993" y2="241.2815057297181" class="err"/>
<line x1="316.2119586697993" y1="232.15098954740947" x2="322.2119586697993" y2="232.15098954740947" class="err"/>
<line x1="316.2119586697993" y1="241.2815057297181" x2="322.2119586697993" y2="241.2815057297181" class="err"/>
<circle cx="319.2119586697993" cy="236.7162476385638" r="2.5" class="obs"/>
<line x1="344.0244400564768" y1="231.69446373829405" x2="344.0244400564768" y2="240.8249799206027" class="err"/>
<line x1="341.0244400564768" y1="231.69446373829405" x2="347.0244400564768" y2="231.69446373829405" class="err"/>
<line x1="341.0244400564768" y1="240.8249799206027" x2="347.0244400564768" y2="240.8249799206027" class="err"/>
<circle cx="344.0244400564768" cy="236.2597218294484" r="2.5" class="obs"/>
<line x1="368.8369214431542" y1="229.4118346927169" x2="368.8369214431542" y2="238.5423508750255" class="err"/>
<line x1="365.8369214431542" y1="229.4118346927169" x2="371.8369214431542" y2="229.4118346927169" class="err"/>
<line x1="365.8369214431542" y1="238.5423508750255" x2="371.8369214431542" y2="238.5423508750255" class="err"/>
<circle cx="368.8369214431542" cy="233.97709278387123" r="2.5" class="obs"/>
<line x1="394.2888997727874" y1="227.12920564713974" x2="394.2888997727874" y2="236.2597218294484" class="err"/>
<line x1="391.2888997727874" y1="227.12920564713974" x2="397.2888997727874" y2="227.12920564713974" class="err"/>
<line x1="391.2888997727874" y1="236.2597218294484" x2="397.2888997727874" y2="236.2597218294484" class="err"/>
<circle cx="394.2888997727874" cy="231.69446373829405" r="2.5" class="obs"/>
<line x1="419.0374314651693" y1="224.39005079244714" x2="419.0374314651693" y2="233.52056697475578" class="err"/>
<line x1="416.0374314651693" y1="224.39005079244714" x2="422.0374314651693" y2="224.39005079244714" class="err"/>
<line x1="416.0374314651693" y1="233.52056697475578" x2="422.0374314651693" y2="233.52056697475578" class="err"/>
<circle cx="419.0374314651693" cy="228.9553088836015" r="2.5" class="obs"/>
<line x1="443.8499128518468" y1="224.39005079244714" x2="443.8499128518468" y2="233.52056697475578" class="err"/>
<line x1="440.8499128518468" y1="224.39005079244714" x2="446.8499128518468" y2="224.39005079244714" class="err"/>
<line x1="440.8499128518468" y1="233.52056697475578" x2="446.8499128518468" y2="233.52056697475578" class="err"/>
<circle cx="443.8499128518468" cy="228.9553088836015" r="2.5" class="obs"/>
<line x1="468.66239423852426" y1="224.39005079244714" x2="468.66239423852426" y2="233.52056697475578" class="err"/>
<line x1="465.66239423852426" y1="224.39005079244714" x2="471.66239423852426" y2="224.39005079244714" class="err"/>
<line x1="465.66239423852426" y1="233.52056697475578" x2="471.66239423852426" y2="233.52056697475578" class="err"/>
<circle cx="468.66239423852426" cy="228.9553088836015" r="2.5" class="obs"/>
<line x1="493.4109259309061" y1="224.39005079244714" x2="493.4109259309061" y2="233.52056697475578" class="err"/>
<line x1="490.4109259309061" y1="224.39005079244714" x2="496.4109259309061" y2="224.39005079244714" class="err"/>
<line x1="490.4109259309061" y1="233.52056697475578" x2="496.4109259309061" y2="233.52056697475578" class="err"/>
<circle cx="493.4109259309061" cy="228.9553088836015" r="2.5" class="obs"/>
<line x1="518.8629042605393" y1="224.39005079244714" x2="518.8629042605393" y2="233.52056697475578" class="err"/>
<line x1="515.8629042605393" y1="224.39005079244714" x2="521.8629042605393" y2="224.39005079244714" class="err"/>
<line x1="515.8629042605393" y1="233.52056697475578" x2="521.8629042605393" y2="233.52056697475578" class="err"/>
<circle cx="518.8629042605393" cy="228.9553088836015" r="2.5" class="obs"/>
<line x1="543.6753856472167" y1="224.39005079244714" x2="543.6753856472167" y2="233.52056697475578" class="err"/>
<line x1="540.6753856472167" y1="224.39005079244714" x2="546.6753856472167" y2="224.39005079244714" class="err"/>
<line x1="540.6753856472167" y1="233.52056697475578" x2="546.6753856472167" y2="233.52056697475578" class="err"/>
<circle cx="543.6753856472167" cy="228.9553088836015" r="2.5" class="obs"/>
<g class="legend">
<line x1="82" y1="69" x2="106" y2="69" class="fw"/>
<text x="112" y="73" class="lbl-l">framework fit</text>
<line x1="82" y1="87" x2="106" y2="87" class="nt"/>
<text x="112" y="91" class="lbl-l">Newtonian (no halo)</text>
<circle cx="94" cy="105" r="2.5" class="obs"/>
<text x="112" y="109" class="lbl">observed V±err</text>
</g>
<g class="legend">
<line x1="460" y1="69" x2="484" y2="69" class="rho"/>
<text x="490" y="73" class="lbl-r">ρ(r) raw</text>
<line x1="460" y1="87" x2="484" y2="87" class="sig"/>
<text x="490" y="91" class="lbl-r">Σ(r) smoothed</text>
<text x="460" y="113" class="lbl-r">ρ peak: 3530 M☉/pc²</text>
</g>
</svg>