<svg xmlns="http://www.w3.org/2000/svg" viewBox="0 0 720 420" width="720" height="420" font-family="sans-serif" font-size="12">
<style>
  .ax { stroke: #333; stroke-width: 1; fill: none; }
  .grid { stroke: #ddd; stroke-width: 0.5; fill: none; }
  .lbl { fill: #333; }
  .lbl-l { fill: #0066cc; }
  .lbl-r { fill: #b03030; }
  .obs { fill: #222; }
  .err { stroke: #555; stroke-width: 0.8; fill: none; }
  .fw { stroke: #0066cc; stroke-width: 2.2; fill: none; }
  .nt { stroke: #cc6600; stroke-width: 1.6; fill: none; stroke-dasharray: 5,3; }
  .rho { stroke: #b03030; stroke-width: 2.0; fill: none; }
  .sig { stroke: #b03030; stroke-width: 1.6; fill: none; stroke-dasharray: 4,2; opacity: 0.85; }
  .title { fill: #111; font-size: 16px; font-weight: 600; }
  .subtitle { fill: #555; font-size: 11px; }
  .legend { font-size: 11px; }
</style>
<text x="360.0" y="22" text-anchor="middle" class="title">UGC06930</text>
<text x="360.0" y="38" text-anchor="middle" class="subtitle">rMax=16.6 kpc, N=10, RMS=0.6 km/s (0.6%), amp=104</text>
<line x1="70" y1="365.0" x2="635" y2="365.0" class="grid"/>
<text x="64" y="369.0" text-anchor="end" class="lbl-l">0</text>
<line x1="70" y1="303.0" x2="635" y2="303.0" class="grid"/>
<text x="64" y="307.0" text-anchor="end" class="lbl-l">26</text>
<line x1="70" y1="241.00000000000003" x2="635" y2="241.00000000000003" class="grid"/>
<text x="64" y="245.00000000000003" text-anchor="end" class="lbl-l">52</text>
<line x1="70" y1="178.99999999999997" x2="635" y2="178.99999999999997" class="grid"/>
<text x="64" y="182.99999999999997" text-anchor="end" class="lbl-l">78</text>
<line x1="70" y1="117.00000000000003" x2="635" y2="117.00000000000003" class="grid"/>
<text x="64" y="121.00000000000003" text-anchor="end" class="lbl-l">103</text>
<line x1="70" y1="55.0" x2="635" y2="55.0" class="grid"/>
<text x="64" y="59.0" text-anchor="end" class="lbl-l">129</text>
<text x="641" y="369.0" text-anchor="start" class="lbl-r">0.0</text>
<text x="641" y="327.6666666666667" text-anchor="start" class="lbl-r">0.2</text>
<text x="641" y="286.33333333333337" text-anchor="start" class="lbl-r">0.4</text>
<text x="641" y="245.00000000000003" text-anchor="start" class="lbl-r">0.6</text>
<text x="641" y="203.66666666666666" text-anchor="start" class="lbl-r">0.8</text>
<text x="641" y="162.33333333333334" text-anchor="start" class="lbl-r">1.0</text>
<line x1="70.0" y1="55" x2="70.0" y2="365" class="grid"/>
<text x="70.0" y="381" text-anchor="middle" class="lbl">0.0</text>
<line x1="164.16666666666666" y1="55" x2="164.16666666666666" y2="365" class="grid"/>
<text x="164.16666666666666" y="381" text-anchor="middle" class="lbl">3.2</text>
<line x1="258.3333333333333" y1="55" x2="258.3333333333333" y2="365" class="grid"/>
<text x="258.3333333333333" y="381" text-anchor="middle" class="lbl">6.5</text>
<line x1="352.5" y1="55" x2="352.5" y2="365" class="grid"/>
<text x="352.5" y="381" text-anchor="middle" class="lbl">9.7</text>
<line x1="446.66666666666663" y1="55" x2="446.66666666666663" y2="365" class="grid"/>
<text x="446.66666666666663" y="381" text-anchor="middle" class="lbl">12.9</text>
<line x1="540.8333333333333" y1="55" x2="540.8333333333333" y2="365" class="grid"/>
<text x="540.8333333333333" y="381" text-anchor="middle" class="lbl">16.2</text>
<line x1="635.0" y1="55" x2="635.0" y2="365" class="grid"/>
<text x="635.0" y="381" text-anchor="middle" class="lbl">19.4</text>
<text x="352.5" y="408" text-anchor="middle" class="lbl">radius (kpc)</text>
<text x="16" y="210.0" text-anchor="middle" class="lbl-l" transform="rotate(-90, 16, 210.0)">velocity (km/s)</text>
<text x="704" y="210.0" text-anchor="middle" class="lbl-r" transform="rotate(-90, 704, 210.0)">mass profile (normalized to peak)</text>
<rect x="70" y="55" width="565" height="310" class="ax"/>
<path d="M 70.0,158.3 L 72.6,164.5 L 75.2,170.7 L 77.7,176.9 L 80.3,183.1 L 82.9,185.8 L 85.5,187.3 L 88.1,188.8 L 90.6,190.3 L 93.2,191.8 L 95.8,193.3 L 98.4,194.8 L 101.0,196.3 L 103.5,197.9 L 106.1,199.4 L 108.7,200.9 L 111.3,202.4 L 113.9,203.9 L 116.4,205.4 L 119.0,206.9 L 121.6,208.4 L 124.2,209.9 L 126.8,211.4 L 129.3,212.9 L 131.9,214.4 L 134.5,215.9 L 137.1,217.4 L 139.7,218.9 L 142.2,220.4 L 144.8,221.9 L 147.4,223.4 L 150.0,224.9 L 152.6,226.4 L 155.1,227.9 L 157.7,229.4 L 160.3,230.9 L 162.9,232.4 L 165.5,233.9 L 168.0,235.4 L 170.6,236.9 L 173.2,238.4 L 175.8,239.9 L 178.4,241.4 L 180.9,242.9 L 183.5,244.4 L 186.1,245.9 L 188.7,247.4 L 191.3,248.9 L 193.8,250.4 L 196.4,252.1 L 199.0,254.1 L 201.6,256.1 L 204.2,258.1 L 206.7,258.6 L 209.3,259.0 L 211.9,259.5 L 214.5,259.9 L 217.1,260.4 L 219.6,260.8 L 222.2,261.3 L 224.8,261.7 L 227.4,262.2 L 230.0,262.6 L 232.5,263.1 L 235.1,263.5 L 237.7,264.0 L 240.3,264.4 L 242.9,264.9 L 245.4,265.3 L 248.0,265.7 L 250.6,266.2 L 253.2,266.6 L 255.8,267.1 L 258.3,267.5 L 260.9,268.0 L 263.5,268.4 L 266.1,268.9 L 268.7,269.3 L 271.2,269.8 L 273.8,270.2 L 276.4,270.7 L 279.0,271.1 L 281.6,271.6 L 284.1,272.0 L 286.7,272.4 L 289.3,272.9 L 291.9,273.3 L 294.5,273.8 L 297.0,274.2 L 299.6,274.7 L 302.2,275.1 L 304.8,275.6 L 307.4,276.0 L 309.9,276.5 L 312.5,276.9 L 315.1,277.4 L 317.7,277.8 L 320.3,278.2 L 322.8,278.7 L 325.4,279.1 L 328.0,279.6 L 330.6,280.0 L 333.2,280.5 L 335.7,280.9 L 338.3,281.4 L 340.9,281.8 L 343.5,282.3 L 346.1,282.7 L 348.6,283.2 L 351.2,283.6 L 353.8,284.1 L 356.4,284.5 L 358.9,284.9 L 361.5,285.4 L 364.1,285.8 L 366.7,286.3 L 369.3,286.7 L 371.8,287.2 L 374.4,287.6 L 377.0,288.1 L 379.6,288.5 L 382.2,289.0 L 384.7,289.4 L 387.3,289.9 L 389.9,290.3 L 392.5,290.7 L 395.1,291.2 L 397.6,291.6 L 400.2,292.1 L 402.8,292.5 L 405.4,293.0 L 408.0,293.4 L 410.5,293.9 L 413.1,294.3 L 415.7,294.8 L 418.3,295.2 L 420.9,295.7 L 423.4,296.1 L 426.0,296.6 L 428.6,297.0 L 431.2,297.4 L 433.8,297.9 L 436.3,298.3 L 438.9,298.8 L 441.5,299.2 L 444.1,299.7 L 446.7,300.1 L 449.2,300.6 L 451.8,301.0 L 454.4,301.5 L 457.0,301.9 L 459.6,302.4 L 462.1,302.8 L 464.7,303.2 L 467.3,303.7 L 469.9,304.1 L 472.5,304.6 L 475.0,305.0 L 477.6,305.5 L 480.2,305.9 L 482.8,306.4 L 485.4,306.8 L 487.9,307.3 L 490.5,307.7 L 493.1,308.2 L 495.7,308.6 L 498.3,309.1 L 500.8,309.5 L 503.4,309.9 L 506.0,310.4 L 508.6,310.8 L 511.2,311.3 L 513.7,311.7 L 516.3,312.2 L 518.9,312.6 L 521.5,313.1 L 524.1,313.5 L 526.6,314.0 L 529.2,314.4 L 531.8,314.9 L 534.4,315.3 L 537.0,315.8 L 539.5,316.2 L 542.1,316.6 L 544.7,317.1 L 547.3,317.5 L 549.9,318.0 L 552.4,318.4 L 555.0,318.9 L 557.6,319.3 L 560.2,319.8 L 562.8,320.2 L 565.3,321.3 L 567.9,324.0 L 570.5,326.6 L 573.1,329.2 L 575.7,331.9 L 578.2,334.5 L 580.8,337.1 L 583.4,339.8 L 586.0,342.4 L 588.6,345.1 L 591.1,347.7 L 593.7,350.3 L 596.3,353.0 L 598.9,355.6 L 601.5,358.2 L 604.0,360.9 L 606.6,363.5 L 609.2,365.0 L 611.8,365.0 L 614.4,365.0 L 616.9,365.0 L 619.5,365.0 L 622.1,365.0 L 624.7,365.0 L 627.3,365.0 L 629.8,365.0 L 632.4,365.0 L 635.0,365.0" class="rho"/>
<path d="M 70.0,158.3 L 72.6,158.4 L 75.2,158.6 L 77.7,158.9 L 80.3,159.2 L 82.9,159.6 L 85.5,160.1 L 88.1,160.7 L 90.6,161.4 L 93.2,162.1 L 95.8,162.9 L 98.4,163.8 L 101.0,164.7 L 103.5,165.7 L 106.1,166.7 L 108.7,167.8 L 111.3,168.9 L 113.9,170.1 L 116.4,171.3 L 119.0,172.6 L 121.6,173.8 L 124.2,175.1 L 126.8,176.5 L 129.3,177.9 L 131.9,179.3 L 134.5,180.7 L 137.1,182.1 L 139.7,183.6 L 142.2,185.1 L 144.8,186.6 L 147.4,188.1 L 150.0,189.6 L 152.6,191.2 L 155.1,192.7 L 157.7,194.3 L 160.3,195.8 L 162.9,197.4 L 165.5,198.9 L 168.0,200.5 L 170.6,202.1 L 173.2,203.6 L 175.8,205.2 L 178.4,206.7 L 180.9,208.3 L 183.5,209.8 L 186.1,211.3 L 188.7,212.8 L 191.3,214.3 L 193.8,215.8 L 196.4,217.2 L 199.0,218.7 L 201.6,220.1 L 204.2,221.5 L 206.7,222.9 L 209.3,224.2 L 211.9,225.6 L 214.5,226.9 L 217.1,228.2 L 219.6,229.4 L 222.2,230.7 L 224.8,231.9 L 227.4,233.1 L 230.0,234.3 L 232.5,235.5 L 235.1,236.7 L 237.7,237.8 L 240.3,239.0 L 242.9,240.1 L 245.4,241.2 L 248.0,242.3 L 250.6,243.4 L 253.2,244.5 L 255.8,245.6 L 258.3,246.6 L 260.9,247.7 L 263.5,248.7 L 266.1,249.8 L 268.7,250.8 L 271.2,251.8 L 273.8,252.8 L 276.4,253.8 L 279.0,254.8 L 281.6,255.8 L 284.1,256.8 L 286.7,257.8 L 289.3,258.8 L 291.9,259.7 L 294.5,260.7 L 297.0,261.6 L 299.6,262.6 L 302.2,263.5 L 304.8,264.5 L 307.4,265.4 L 309.9,266.3 L 312.5,267.2 L 315.1,268.2 L 317.7,269.1 L 320.3,270.0 L 322.8,270.9 L 325.4,271.8 L 328.0,272.6 L 330.6,273.5 L 333.2,274.4 L 335.7,275.3 L 338.3,276.1 L 340.9,277.0 L 343.5,277.9 L 346.1,278.7 L 348.6,279.6 L 351.2,280.4 L 353.8,281.2 L 356.4,282.1 L 358.9,282.9 L 361.5,283.7 L 364.1,284.5 L 366.7,285.4 L 369.3,286.2 L 371.8,287.0 L 374.4,287.8 L 377.0,288.6 L 379.6,289.4 L 382.2,290.1 L 384.7,290.9 L 387.3,291.7 L 389.9,292.5 L 392.5,293.2 L 395.1,294.0 L 397.6,294.8 L 400.2,295.5 L 402.8,296.3 L 405.4,297.0 L 408.0,297.7 L 410.5,298.5 L 413.1,299.2 L 415.7,299.9 L 418.3,300.7 L 420.9,301.4 L 423.4,302.1 L 426.0,302.8 L 428.6,303.5 L 431.2,304.2 L 433.8,304.9 L 436.3,305.6 L 438.9,306.3 L 441.5,306.9 L 444.1,307.6 L 446.7,308.3 L 449.2,308.9 L 451.8,309.6 L 454.4,310.3 L 457.0,310.9 L 459.6,311.6 L 462.1,312.2 L 464.7,312.8 L 467.3,313.5 L 469.9,314.1 L 472.5,314.7 L 475.0,315.4 L 477.6,316.0 L 480.2,316.6 L 482.8,317.2 L 485.4,317.8 L 487.9,318.4 L 490.5,319.0 L 493.1,319.6 L 495.7,320.2 L 498.3,320.8 L 500.8,321.4 L 503.4,321.9 L 506.0,322.5 L 508.6,323.1 L 511.2,323.6 L 513.7,324.2 L 516.3,324.8 L 518.9,325.3 L 521.5,325.9 L 524.1,326.4 L 526.6,327.0 L 529.2,327.5 L 531.8,328.1 L 534.4,328.6 L 537.0,329.1 L 539.5,329.7 L 542.1,330.2 L 544.7,330.7 L 547.3,331.3 L 549.9,331.8 L 552.4,332.3 L 555.0,332.9 L 557.6,333.4 L 560.2,333.9 L 562.8,334.4 L 565.3,335.0 L 567.9,335.5 L 570.5,336.0 L 573.1,336.5 L 575.7,337.0 L 578.2,337.5 L 580.8,338.0 L 583.4,338.5 L 586.0,338.9 L 588.6,339.4 L 591.1,339.8 L 593.7,340.3 L 596.3,340.7 L 598.9,341.1 L 601.5,341.5 L 604.0,341.9 L 606.6,342.2 L 609.2,342.6 L 611.8,342.9 L 614.4,343.3 L 616.9,343.6 L 619.5,343.9 L 622.1,344.2 L 624.7,344.5 L 627.3,344.8 L 629.8,345.1 L 632.4,345.4 L 635.0,345.6" class="sig"/>
<path d="M 75.7,315.8 L 81.3,297.0 L 87.0,283.0 L 92.6,271.2 L 98.2,261.0 L 103.9,251.9 L 109.6,243.6 L 115.2,236.1 L 120.8,229.2 L 126.5,222.9 L 132.2,216.9 L 137.8,211.4 L 143.4,206.3 L 149.1,201.4 L 154.8,196.9 L 160.4,192.6 L 166.1,188.6 L 171.7,184.8 L 177.3,181.3 L 183.0,178.0 L 188.7,174.8 L 194.3,171.9 L 199.9,169.1 L 205.6,166.6 L 211.2,164.2 L 216.9,161.8 L 222.6,159.4 L 228.2,157.0 L 233.8,154.7 L 239.5,152.4 L 245.2,150.2 L 250.8,148.0 L 256.5,145.8 L 262.1,143.7 L 267.8,141.6 L 273.4,139.6 L 279.1,137.6 L 284.7,135.6 L 290.3,133.7 L 296.0,131.8 L 301.6,130.0 L 307.3,128.2 L 312.9,126.4 L 318.6,124.7 L 324.2,123.0 L 329.9,121.4 L 335.5,119.8 L 341.2,118.2 L 346.9,116.7 L 352.5,115.2 L 358.1,113.7 L 363.8,112.3 L 369.4,110.9 L 375.1,109.5 L 380.7,108.2 L 386.4,106.9 L 392.0,105.7 L 397.7,104.5 L 403.3,103.3 L 409.0,102.1 L 414.6,101.0 L 420.3,99.9 L 425.9,98.9 L 431.6,97.8 L 437.2,96.8 L 442.9,95.9 L 448.6,95.0 L 454.2,94.1 L 459.8,93.2 L 465.5,92.4 L 471.1,91.6 L 476.8,90.8 L 482.5,90.0 L 488.1,89.3 L 493.8,88.6 L 499.4,88.0 L 505.1,87.4 L 510.7,86.8 L 516.3,86.2 L 522.0,85.7 L 527.7,85.1 L 533.3,84.7 L 539.0,84.2 L 544.6,83.8 L 550.2,83.4 L 555.9,83.0 L 561.5,82.7 L 567.2,82.4 L 572.9,82.3 L 578.5,82.4 L 584.1,82.8 L 589.8,83.4 L 595.4,84.2 L 601.1,85.3 L 606.8,86.6 L 612.4,88.0 L 618.0,89.5 L 623.7,90.9 L 629.4,92.3 L 635.0,93.6" class="nt"/>
<path d="M 74.7,348.3 L 79.4,335.0 L 84.1,321.1 L 88.8,307.7 L 93.5,295.0 L 98.2,282.9 L 103.0,271.4 L 107.7,260.4 L 112.4,249.9 L 117.1,240.0 L 121.8,230.5 L 126.5,221.5 L 131.2,213.0 L 135.9,204.9 L 140.6,197.3 L 145.3,190.2 L 150.0,183.5 L 154.8,177.3 L 159.5,171.5 L 164.2,166.2 L 168.9,161.3 L 173.6,157.0 L 178.3,153.1 L 183.0,149.8 L 187.7,147.0 L 192.4,144.7 L 197.1,143.0 L 201.8,141.8 L 206.5,141.0 L 211.2,140.5 L 216.0,140.1 L 220.7,139.7 L 225.4,139.2 L 230.1,138.7 L 234.8,138.0 L 239.5,137.2 L 244.2,136.3 L 248.9,135.4 L 253.6,134.4 L 258.3,133.3 L 263.0,132.2 L 267.8,131.1 L 272.5,130.0 L 277.2,128.9 L 281.9,127.7 L 286.6,126.6 L 291.3,125.4 L 296.0,124.3 L 300.7,123.2 L 305.4,122.1 L 310.1,121.0 L 314.8,120.0 L 319.5,119.0 L 324.2,118.0 L 329.0,117.0 L 333.7,116.1 L 338.4,115.2 L 343.1,114.3 L 347.8,113.5 L 352.5,112.7 L 357.2,111.9 L 361.9,111.2 L 366.6,110.5 L 371.3,109.9 L 376.0,109.3 L 380.8,108.7 L 385.5,108.2 L 390.2,107.7 L 394.9,107.2 L 399.6,106.8 L 404.3,106.5 L 409.0,106.1 L 413.7,105.9 L 418.4,105.6 L 423.1,105.4 L 427.8,105.2 L 432.5,105.1 L 437.2,105.0 L 442.0,104.9 L 446.7,104.8 L 451.4,104.8 L 456.1,104.9 L 460.8,104.9 L 465.5,105.0 L 470.2,105.1 L 474.9,105.2 L 479.6,105.3 L 484.3,105.4 L 489.0,105.6 L 493.8,105.7 L 498.5,105.8 L 503.2,105.9 L 507.9,106.0 L 512.6,106.1 L 517.3,106.1 L 522.0,106.0 L 526.7,105.9 L 531.4,105.6 L 536.1,105.2 L 540.8,104.8 L 545.5,104.2 L 550.2,103.5 L 555.0,102.9 L 559.7,102.4 L 564.4,102.3 L 569.1,102.9 L 573.8,104.2 L 578.5,106.6 L 583.2,109.8 L 587.9,114.0 L 592.6,118.8 L 597.3,124.1 L 602.0,129.8 L 606.8,135.5 L 611.5,141.1 L 616.2,146.5 L 620.9,151.6 L 625.6,156.5 L 630.3,161.0 L 635.0,165.2" class="fw"/>
<line x1="120.61365400890068" y1="213.88137401416122" x2="120.61365400890068" y2="253.69993260725525" class="err"/>
<line x1="117.61365400890068" y1="213.88137401416122" x2="123.61365400890068" y2="213.88137401416122" class="err"/>
<line x1="117.61365400890068" y1="253.69993260725525" x2="123.61365400890068" y2="253.69993260725525" class="err"/>
<circle cx="120.61365400890068" cy="233.79065331070825" r="2.5" class="obs"/>
<line x1="171.8090741558347" y1="143.35934855410315" x2="171.8090741558347" y2="176.9412654398451" class="err"/>
<line x1="168.8090741558347" y1="143.35934855410315" x2="174.8090741558347" y2="143.35934855410315" class="err"/>
<line x1="168.8090741558347" y1="176.9412654398451" x2="174.8090741558347" y2="176.9412654398451" class="err"/>
<circle cx="171.8090741558347" cy="160.15030699697414" r="2.5" class="obs"/>
<line x1="222.4227281647354" y1="125.12916510184327" x2="222.4227281647354" y2="154.8731486292147" class="err"/>
<line x1="219.4227281647354" y1="125.12916510184327" x2="225.4227281647354" y2="125.12916510184327" class="err"/>
<line x1="219.4227281647354" y1="154.8731486292147" x2="225.4227281647354" y2="154.8731486292147" class="err"/>
<circle cx="222.4227281647354" cy="140.00115686552897" r="2.5" class="obs"/>
<line x1="273.03638217363607" y1="115.77420254081511" x2="273.03638217363607" y2="140.72076937022342" class="err"/>
<line x1="270.03638217363607" y1="115.77420254081511" x2="276.03638217363607" y2="115.77420254081511" class="err"/>
<line x1="270.03638217363607" y1="140.72076937022342" x2="276.03638217363607" y2="140.72076937022342" class="err"/>
<circle cx="273.03638217363607" cy="128.24748595551927" r="2.5" class="obs"/>
<line x1="323.6500361825367" y1="105.4597566401944" x2="323.6500361825367" y2="130.40632346960274" class="err"/>
<line x1="320.6500361825367" y1="105.4597566401944" x2="326.6500361825367" y2="105.4597566401944" class="err"/>
<line x1="320.6500361825367" y1="130.40632346960274" x2="326.6500361825367" y2="130.40632346960274" class="err"/>
<circle cx="323.6500361825367" cy="117.93304005489856" r="2.5" class="obs"/>
<line x1="374.5545732604541" y1="95.86492324426811" x2="374.5545732604541" y2="120.81149007367644" class="err"/>
<line x1="371.5545732604541" y1="95.86492324426811" x2="377.5545732604541" y2="95.86492324426811" class="err"/>
<line x1="371.5545732604541" y1="120.81149007367644" x2="377.5545732604541" y2="120.81149007367644" class="err"/>
<circle cx="374.5545732604541" cy="108.33820665897228" r="2.5" class="obs"/>
<line x1="424.58646113132136" y1="91.067506546305" x2="424.58646113132136" y2="116.01407337571331" class="err"/>
<line x1="421.58646113132136" y1="91.067506546305" x2="427.58646113132136" y2="91.067506546305" class="err"/>
<line x1="421.58646113132136" y1="116.01407337571331" x2="427.58646113132136" y2="116.01407337571331" class="err"/>
<circle cx="424.58646113132136" cy="103.54078996100915" r="2.5" class="obs"/>
<line x1="475.49099820923874" y1="88.18905652752713" x2="475.49099820923874" y2="123.68994009245432" class="err"/>
<line x1="472.49099820923874" y1="88.18905652752713" x2="478.49099820923874" y2="88.18905652752713" class="err"/>
<line x1="472.49099820923874" y1="123.68994009245432" x2="478.49099820923874" y2="123.68994009245432" class="err"/>
<circle cx="475.49099820923874" cy="105.93949830999071" r="2.5" class="obs"/>
<line x1="526.1046522181393" y1="88.18905652752713" x2="526.1046522181393" y2="123.68994009245432" class="err"/>
<line x1="523.1046522181393" y1="88.18905652752713" x2="529.1046522181393" y2="88.18905652752713" class="err"/>
<line x1="523.1046522181393" y1="123.68994009245432" x2="529.1046522181393" y2="123.68994009245432" class="err"/>
<circle cx="526.1046522181393" cy="105.93949830999071" r="2.5" class="obs"/>
<line x1="553.1567776366898" y1="88.18905652752713" x2="553.1567776366898" y2="123.68994009245432" class="err"/>
<line x1="550.1567776366898" y1="88.18905652752713" x2="556.1567776366898" y2="88.18905652752713" class="err"/>
<line x1="550.1567776366898" y1="123.68994009245432" x2="556.1567776366898" y2="123.68994009245432" class="err"/>
<circle cx="553.1567776366898" cy="105.93949830999071" r="2.5" class="obs"/>
<g class="legend">
<line x1="82" y1="69" x2="106" y2="69" class="fw"/>
<text x="112" y="73" class="lbl-l">framework fit</text>
<line x1="82" y1="87" x2="106" y2="87" class="nt"/>
<text x="112" y="91" class="lbl-l">Newtonian (no halo)</text>
<circle cx="94" cy="105" r="2.5" class="obs"/>
<text x="112" y="109" class="lbl">observed V±err</text>
</g>
<g class="legend">
<line x1="460" y1="69" x2="484" y2="69" class="rho"/>
<text x="490" y="73" class="lbl-r">ρ(r) raw</text>
<line x1="460" y1="87" x2="484" y2="87" class="sig"/>
<text x="490" y="91" class="lbl-r">Σ(r) smoothed</text>
<text x="460" y="113" class="lbl-r">ρ peak: 168 M☉/pc²</text>
</g>
</svg>