<svg xmlns="http://www.w3.org/2000/svg" viewBox="0 0 720 420" width="720" height="420" font-family="sans-serif" font-size="12">
<style>
  .ax { stroke: #333; stroke-width: 1; fill: none; }
  .grid { stroke: #ddd; stroke-width: 0.5; fill: none; }
  .lbl { fill: #333; }
  .lbl-l { fill: #0066cc; }
  .lbl-r { fill: #b03030; }
  .obs { fill: #222; }
  .err { stroke: #555; stroke-width: 0.8; fill: none; }
  .fw { stroke: #0066cc; stroke-width: 2.2; fill: none; }
  .nt { stroke: #cc6600; stroke-width: 1.6; fill: none; stroke-dasharray: 5,3; }
  .rho { stroke: #b03030; stroke-width: 2.0; fill: none; }
  .sig { stroke: #b03030; stroke-width: 1.6; fill: none; stroke-dasharray: 4,2; opacity: 0.85; }
  .title { fill: #111; font-size: 16px; font-weight: 600; }
  .subtitle { fill: #555; font-size: 11px; }
  .legend { font-size: 11px; }
</style>
<text x="360.0" y="22" text-anchor="middle" class="title">UGC06973</text>
<text x="360.0" y="38" text-anchor="middle" class="subtitle">rMax=7.8 kpc, N=9, RMS=1.6 km/s (0.9%), amp=104</text>
<line x1="70" y1="365.0" x2="635" y2="365.0" class="grid"/>
<text x="64" y="369.0" text-anchor="end" class="lbl-l">0</text>
<line x1="70" y1="303.0" x2="635" y2="303.0" class="grid"/>
<text x="64" y="307.0" text-anchor="end" class="lbl-l">43</text>
<line x1="70" y1="241.00000000000003" x2="635" y2="241.00000000000003" class="grid"/>
<text x="64" y="245.00000000000003" text-anchor="end" class="lbl-l">87</text>
<line x1="70" y1="179.0" x2="635" y2="179.0" class="grid"/>
<text x="64" y="183.0" text-anchor="end" class="lbl-l">130</text>
<line x1="70" y1="117.00000000000003" x2="635" y2="117.00000000000003" class="grid"/>
<text x="64" y="121.00000000000003" text-anchor="end" class="lbl-l">173</text>
<line x1="70" y1="54.99999999999993" x2="635" y2="54.99999999999993" class="grid"/>
<text x="64" y="58.99999999999993" text-anchor="end" class="lbl-l">217</text>
<text x="641" y="369.0" text-anchor="start" class="lbl-r">0.0</text>
<text x="641" y="327.6666666666667" text-anchor="start" class="lbl-r">0.2</text>
<text x="641" y="286.33333333333337" text-anchor="start" class="lbl-r">0.4</text>
<text x="641" y="245.00000000000003" text-anchor="start" class="lbl-r">0.6</text>
<text x="641" y="203.66666666666666" text-anchor="start" class="lbl-r">0.8</text>
<text x="641" y="162.33333333333334" text-anchor="start" class="lbl-r">1.0</text>
<line x1="70.0" y1="55" x2="70.0" y2="365" class="grid"/>
<text x="70.0" y="381" text-anchor="middle" class="lbl">0.0</text>
<line x1="164.16666666666666" y1="55" x2="164.16666666666666" y2="365" class="grid"/>
<text x="164.16666666666666" y="381" text-anchor="middle" class="lbl">1.4</text>
<line x1="258.3333333333333" y1="55" x2="258.3333333333333" y2="365" class="grid"/>
<text x="258.3333333333333" y="381" text-anchor="middle" class="lbl">2.8</text>
<line x1="352.5" y1="55" x2="352.5" y2="365" class="grid"/>
<text x="352.5" y="381" text-anchor="middle" class="lbl">4.1</text>
<line x1="446.66666666666663" y1="55" x2="446.66666666666663" y2="365" class="grid"/>
<text x="446.66666666666663" y="381" text-anchor="middle" class="lbl">5.5</text>
<line x1="540.8333333333333" y1="55" x2="540.8333333333333" y2="365" class="grid"/>
<text x="540.8333333333333" y="381" text-anchor="middle" class="lbl">6.9</text>
<line x1="635.0" y1="55" x2="635.0" y2="365" class="grid"/>
<text x="635.0" y="381" text-anchor="middle" class="lbl">8.3</text>
<text x="352.5" y="408" text-anchor="middle" class="lbl">radius (kpc)</text>
<text x="16" y="210.0" text-anchor="middle" class="lbl-l" transform="rotate(-90, 16, 210.0)">velocity (km/s)</text>
<text x="704" y="210.0" text-anchor="middle" class="lbl-r" transform="rotate(-90, 704, 210.0)">mass profile (normalized to peak)</text>
<rect x="70" y="55" width="565" height="310" class="ax"/>
<path d="M 70.0,158.3 L 72.6,159.6 L 75.2,161.0 L 77.7,162.3 L 80.3,163.6 L 82.9,164.9 L 85.5,166.2 L 88.1,167.5 L 90.6,168.9 L 93.2,170.2 L 95.8,171.5 L 98.4,172.8 L 101.0,174.1 L 103.5,175.4 L 106.1,176.7 L 108.7,178.1 L 111.3,179.4 L 113.9,180.7 L 116.4,182.0 L 119.0,183.3 L 121.6,184.6 L 124.2,185.9 L 126.8,188.4 L 129.3,191.2 L 131.9,194.0 L 134.5,196.8 L 137.1,199.6 L 139.7,202.4 L 142.2,205.2 L 144.8,208.0 L 147.4,210.8 L 150.0,213.6 L 152.6,216.4 L 155.1,219.2 L 157.7,222.0 L 160.3,224.8 L 162.9,227.6 L 165.5,230.4 L 168.0,233.2 L 170.6,236.0 L 173.2,238.8 L 175.8,241.5 L 178.4,244.3 L 180.9,247.1 L 183.5,249.9 L 186.1,252.7 L 188.7,255.5 L 191.3,257.7 L 193.8,258.5 L 196.4,259.3 L 199.0,260.1 L 201.6,260.9 L 204.2,261.7 L 206.7,262.5 L 209.3,263.2 L 211.9,264.0 L 214.5,264.8 L 217.1,265.6 L 219.6,266.4 L 222.2,267.2 L 224.8,268.0 L 227.4,268.8 L 230.0,269.6 L 232.5,270.4 L 235.1,271.1 L 237.7,271.9 L 240.3,272.7 L 242.9,273.5 L 245.4,274.3 L 248.0,275.1 L 250.6,275.9 L 253.2,276.7 L 255.8,277.5 L 258.3,278.3 L 260.9,279.0 L 263.5,279.8 L 266.1,280.6 L 268.7,281.4 L 271.2,282.2 L 273.8,283.0 L 276.4,283.8 L 279.0,284.6 L 281.6,285.4 L 284.1,285.8 L 286.7,286.1 L 289.3,286.4 L 291.9,286.7 L 294.5,287.0 L 297.0,287.3 L 299.6,287.6 L 302.2,287.9 L 304.8,288.2 L 307.4,288.5 L 309.9,288.8 L 312.5,289.1 L 315.1,289.4 L 317.7,289.7 L 320.3,290.0 L 322.8,290.3 L 325.4,290.6 L 328.0,290.9 L 330.6,291.2 L 333.2,291.5 L 335.7,291.8 L 338.3,292.1 L 340.9,292.4 L 343.5,292.7 L 346.1,293.0 L 348.6,293.3 L 351.2,293.6 L 353.8,293.9 L 356.4,294.2 L 358.9,294.5 L 361.5,294.8 L 364.1,295.1 L 366.7,295.4 L 369.3,295.7 L 371.8,296.0 L 374.4,296.3 L 377.0,296.6 L 379.6,296.9 L 382.2,297.2 L 384.7,297.5 L 387.3,297.8 L 389.9,298.1 L 392.5,298.4 L 395.1,298.7 L 397.6,299.0 L 400.2,299.3 L 402.8,299.6 L 405.4,299.9 L 408.0,300.2 L 410.5,300.5 L 413.1,300.8 L 415.7,301.1 L 418.3,301.5 L 420.9,301.8 L 423.4,302.1 L 426.0,302.4 L 428.6,302.7 L 431.2,303.0 L 433.8,303.3 L 436.3,303.6 L 438.9,303.9 L 441.5,304.2 L 444.1,304.5 L 446.7,304.8 L 449.2,305.1 L 451.8,305.4 L 454.4,305.7 L 457.0,306.0 L 459.6,306.3 L 462.1,306.6 L 464.7,306.9 L 467.3,307.2 L 469.9,307.5 L 472.5,307.8 L 475.0,308.1 L 477.6,308.4 L 480.2,308.7 L 482.8,309.0 L 485.4,309.3 L 487.9,309.6 L 490.5,309.9 L 493.1,310.2 L 495.7,310.5 L 498.3,310.8 L 500.8,311.1 L 503.4,311.4 L 506.0,311.7 L 508.6,312.0 L 511.2,312.3 L 513.7,312.6 L 516.3,312.9 L 518.9,313.2 L 521.5,313.5 L 524.1,313.8 L 526.6,314.1 L 529.2,314.4 L 531.8,314.7 L 534.4,315.0 L 537.0,315.3 L 539.5,315.6 L 542.1,315.9 L 544.7,316.2 L 547.3,316.5 L 549.9,316.9 L 552.4,317.2 L 555.0,317.5 L 557.6,317.8 L 560.2,318.1 L 562.8,318.4 L 565.3,318.7 L 567.9,319.0 L 570.5,319.3 L 573.1,319.6 L 575.7,319.9 L 578.2,320.2 L 580.8,320.5 L 583.4,320.8 L 586.0,321.1 L 588.6,321.4 L 591.1,321.7 L 593.7,322.0 L 596.3,322.3 L 598.9,322.6 L 601.5,322.9 L 604.0,333.2 L 606.6,353.4 L 609.2,365.0 L 611.8,365.0 L 614.4,365.0 L 616.9,365.0 L 619.5,365.0 L 622.1,365.0 L 624.7,365.0 L 627.3,365.0 L 629.8,365.0 L 632.4,365.0 L 635.0,365.0" class="rho"/>
<path d="M 70.0,158.3 L 72.6,158.4 L 75.2,158.6 L 77.7,158.8 L 80.3,159.1 L 82.9,159.5 L 85.5,160.0 L 88.1,160.6 L 90.6,161.3 L 93.2,162.0 L 95.8,162.8 L 98.4,163.7 L 101.0,164.6 L 103.5,165.7 L 106.1,166.8 L 108.7,167.9 L 111.3,169.2 L 113.9,170.4 L 116.4,171.8 L 119.0,173.2 L 121.6,174.7 L 124.2,176.2 L 126.8,177.7 L 129.3,179.3 L 131.9,181.0 L 134.5,182.7 L 137.1,184.4 L 139.7,186.2 L 142.2,187.9 L 144.8,189.7 L 147.4,191.6 L 150.0,193.4 L 152.6,195.2 L 155.1,197.1 L 157.7,198.9 L 160.3,200.8 L 162.9,202.6 L 165.5,204.4 L 168.0,206.3 L 170.6,208.1 L 173.2,209.9 L 175.8,211.6 L 178.4,213.4 L 180.9,215.1 L 183.5,216.8 L 186.1,218.5 L 188.7,220.1 L 191.3,221.8 L 193.8,223.4 L 196.4,224.9 L 199.0,226.5 L 201.6,228.0 L 204.2,229.4 L 206.7,230.9 L 209.3,232.3 L 211.9,233.7 L 214.5,235.1 L 217.1,236.5 L 219.6,237.8 L 222.2,239.1 L 224.8,240.4 L 227.4,241.7 L 230.0,242.9 L 232.5,244.2 L 235.1,245.4 L 237.7,246.6 L 240.3,247.8 L 242.9,248.9 L 245.4,250.1 L 248.0,251.2 L 250.6,252.3 L 253.2,253.4 L 255.8,254.5 L 258.3,255.6 L 260.9,256.7 L 263.5,257.7 L 266.1,258.7 L 268.7,259.7 L 271.2,260.7 L 273.8,261.7 L 276.4,262.7 L 279.0,263.7 L 281.6,264.6 L 284.1,265.5 L 286.7,266.4 L 289.3,267.4 L 291.9,268.2 L 294.5,269.1 L 297.0,270.0 L 299.6,270.8 L 302.2,271.7 L 304.8,272.5 L 307.4,273.3 L 309.9,274.1 L 312.5,274.9 L 315.1,275.7 L 317.7,276.5 L 320.3,277.3 L 322.8,278.0 L 325.4,278.8 L 328.0,279.5 L 330.6,280.3 L 333.2,281.0 L 335.7,281.7 L 338.3,282.4 L 340.9,283.2 L 343.5,283.9 L 346.1,284.6 L 348.6,285.3 L 351.2,285.9 L 353.8,286.6 L 356.4,287.3 L 358.9,288.0 L 361.5,288.6 L 364.1,289.3 L 366.7,289.9 L 369.3,290.6 L 371.8,291.2 L 374.4,291.8 L 377.0,292.5 L 379.6,293.1 L 382.2,293.7 L 384.7,294.3 L 387.3,295.0 L 389.9,295.6 L 392.5,296.2 L 395.1,296.8 L 397.6,297.4 L 400.2,298.0 L 402.8,298.5 L 405.4,299.1 L 408.0,299.7 L 410.5,300.3 L 413.1,300.9 L 415.7,301.4 L 418.3,302.0 L 420.9,302.5 L 423.4,303.1 L 426.0,303.7 L 428.6,304.2 L 431.2,304.8 L 433.8,305.3 L 436.3,305.8 L 438.9,306.4 L 441.5,306.9 L 444.1,307.4 L 446.7,308.0 L 449.2,308.5 L 451.8,309.0 L 454.4,309.5 L 457.0,310.0 L 459.6,310.6 L 462.1,311.1 L 464.7,311.6 L 467.3,312.1 L 469.9,312.6 L 472.5,313.1 L 475.0,313.6 L 477.6,314.1 L 480.2,314.5 L 482.8,315.0 L 485.4,315.5 L 487.9,316.0 L 490.5,316.5 L 493.1,317.0 L 495.7,317.4 L 498.3,317.9 L 500.8,318.4 L 503.4,318.8 L 506.0,319.3 L 508.6,319.8 L 511.2,320.2 L 513.7,320.7 L 516.3,321.1 L 518.9,321.6 L 521.5,322.1 L 524.1,322.5 L 526.6,323.0 L 529.2,323.4 L 531.8,323.9 L 534.4,324.3 L 537.0,324.7 L 539.5,325.2 L 542.1,325.6 L 544.7,326.1 L 547.3,326.5 L 549.9,326.9 L 552.4,327.4 L 555.0,327.8 L 557.6,328.3 L 560.2,328.7 L 562.8,329.1 L 565.3,329.6 L 567.9,330.0 L 570.5,330.4 L 573.1,330.9 L 575.7,331.3 L 578.2,331.7 L 580.8,332.2 L 583.4,332.6 L 586.0,333.1 L 588.6,333.5 L 591.1,333.9 L 593.7,334.4 L 596.3,334.8 L 598.9,335.2 L 601.5,335.7 L 604.0,336.1 L 606.6,336.5 L 609.2,337.0 L 611.8,337.4 L 614.4,337.8 L 616.9,338.2 L 619.5,338.5 L 622.1,338.9 L 624.7,339.3 L 627.3,339.6 L 629.8,340.0 L 632.4,340.3 L 635.0,340.7" class="sig"/>
<path d="M 75.7,314.0 L 81.3,293.3 L 87.0,277.6 L 92.6,264.5 L 98.2,253.2 L 103.9,243.1 L 109.5,234.0 L 115.2,225.7 L 120.8,218.0 L 126.5,210.8 L 132.1,204.3 L 137.8,198.4 L 143.4,193.1 L 149.1,188.2 L 154.8,183.8 L 160.4,179.8 L 166.1,176.2 L 171.7,172.9 L 177.3,170.0 L 183.0,167.3 L 188.6,165.0 L 194.3,162.9 L 200.0,160.8 L 205.6,158.8 L 211.2,156.8 L 216.9,154.8 L 222.6,152.9 L 228.2,151.0 L 233.8,149.1 L 239.5,147.3 L 245.2,145.6 L 250.8,143.9 L 256.5,142.3 L 262.1,140.7 L 267.8,139.2 L 273.4,137.7 L 279.1,136.3 L 284.7,135.0 L 290.3,133.7 L 296.0,132.3 L 301.6,131.0 L 307.3,129.7 L 313.0,128.3 L 318.6,127.0 L 324.2,125.7 L 329.9,124.4 L 335.6,123.2 L 341.2,121.9 L 346.9,120.7 L 352.5,119.4 L 358.1,118.2 L 363.8,117.0 L 369.4,115.8 L 375.1,114.7 L 380.8,113.5 L 386.4,112.4 L 392.1,111.3 L 397.7,110.2 L 403.4,109.1 L 409.0,108.0 L 414.6,107.0 L 420.3,106.0 L 425.9,105.0 L 431.6,104.0 L 437.2,103.0 L 442.9,102.1 L 448.6,101.1 L 454.2,100.2 L 459.8,99.4 L 465.5,98.5 L 471.1,97.6 L 476.8,96.8 L 482.4,96.0 L 488.1,95.2 L 493.8,94.4 L 499.4,93.7 L 505.1,93.0 L 510.7,92.2 L 516.3,91.5 L 522.0,90.9 L 527.6,90.2 L 533.3,89.6 L 539.0,89.0 L 544.6,88.4 L 550.2,87.8 L 555.9,87.2 L 561.5,86.7 L 567.2,86.1 L 572.9,85.6 L 578.5,85.2 L 584.1,84.7 L 589.8,84.2 L 595.5,83.8 L 601.1,83.4 L 606.8,83.5 L 612.4,84.9 L 618.0,86.3 L 623.7,87.8 L 629.4,89.3 L 635.0,90.6" class="nt"/>
<path d="M 74.7,347.4 L 79.4,334.1 L 84.1,319.3 L 88.8,304.6 L 93.5,290.2 L 98.2,276.2 L 103.0,262.5 L 107.7,249.2 L 112.4,236.2 L 117.1,223.7 L 121.8,211.6 L 126.5,200.0 L 131.2,189.2 L 135.9,179.0 L 140.6,169.7 L 145.3,161.2 L 150.0,153.5 L 154.8,146.8 L 159.5,140.8 L 164.2,135.7 L 168.9,131.4 L 173.6,127.9 L 178.3,125.2 L 183.0,123.2 L 187.7,121.9 L 192.4,121.0 L 197.1,120.4 L 201.8,120.1 L 206.5,119.8 L 211.2,119.6 L 216.0,119.3 L 220.7,119.0 L 225.4,118.7 L 230.1,118.4 L 234.8,118.1 L 239.5,117.8 L 244.2,117.6 L 248.9,117.4 L 253.6,117.3 L 258.3,117.4 L 263.0,117.5 L 267.8,117.8 L 272.5,118.1 L 277.2,118.6 L 281.9,119.2 L 286.6,119.8 L 291.3,120.4 L 296.0,121.0 L 300.7,121.5 L 305.4,121.9 L 310.1,122.3 L 314.8,122.6 L 319.5,122.8 L 324.2,123.0 L 329.0,123.1 L 333.7,123.1 L 338.4,123.2 L 343.1,123.1 L 347.8,123.1 L 352.5,123.0 L 357.2,122.9 L 361.9,122.8 L 366.6,122.6 L 371.3,122.5 L 376.0,122.3 L 380.8,122.1 L 385.5,121.9 L 390.2,121.7 L 394.9,121.5 L 399.6,121.3 L 404.3,121.1 L 409.0,120.9 L 413.7,120.7 L 418.4,120.5 L 423.1,120.3 L 427.8,120.0 L 432.5,119.8 L 437.2,119.6 L 442.0,119.4 L 446.7,119.2 L 451.4,119.0 L 456.1,118.8 L 460.8,118.6 L 465.5,118.4 L 470.2,118.2 L 474.9,118.0 L 479.6,117.7 L 484.3,117.5 L 489.0,117.3 L 493.8,117.0 L 498.5,116.8 L 503.2,116.5 L 507.9,116.2 L 512.6,115.9 L 517.3,115.5 L 522.0,115.1 L 526.7,114.7 L 531.4,114.2 L 536.1,113.7 L 540.8,113.1 L 545.5,112.4 L 550.2,111.6 L 555.0,110.8 L 559.7,109.8 L 564.4,108.6 L 569.1,107.4 L 573.8,106.0 L 578.5,104.5 L 583.2,103.1 L 587.9,101.7 L 592.6,100.8 L 597.3,100.5 L 602.0,101.1 L 606.8,102.8 L 611.5,105.5 L 616.2,109.2 L 620.9,113.6 L 625.6,118.3 L 630.3,123.1 L 635.0,127.8" class="fw"/>
<line x1="188.63040165493192" y1="114.92516604471413" x2="188.63040165493192" y2="128.3808239678949" class="err"/>
<line x1="185.63040165493192" y1="114.92516604471413" x2="191.63040165493192" y2="114.92516604471413" class="err"/>
<line x1="185.63040165493192" y1="128.3808239678949" x2="191.63040165493192" y2="128.3808239678949" class="err"/>
<circle cx="188.63040165493192" cy="121.65299500630451" r="2.5" class="obs"/>
<line x1="247.94560248239785" y1="109.91508064778512" x2="247.94560248239785" y2="121.93928560041472" class="err"/>
<line x1="244.94560248239785" y1="109.91508064778512" x2="250.94560248239785" y2="109.91508064778512" class="err"/>
<line x1="244.94560248239785" y1="121.93928560041472" x2="250.94560248239785" y2="121.93928560041472" class="err"/>
<circle cx="247.94560248239785" cy="115.92718312409991" r="2.5" class="obs"/>
<line x1="308.62437114497794" y1="115.6408925299897" x2="308.62437114497794" y2="127.66509748261934" class="err"/>
<line x1="305.62437114497794" y1="115.6408925299897" x2="311.62437114497794" y2="115.6408925299897" class="err"/>
<line x1="305.62437114497794" y1="127.66509748261934" x2="311.62437114497794" y2="127.66509748261934" class="err"/>
<circle cx="308.62437114497794" cy="121.65299500630451" r="2.5" class="obs"/>
<line x1="367.93957197244396" y1="115.49774723293457" x2="367.93957197244396" y2="127.80824277967446" class="err"/>
<line x1="364.93957197244396" y1="115.49774723293457" x2="370.93957197244396" y2="115.49774723293457" class="err"/>
<line x1="364.93957197244396" y1="127.80824277967446" x2="370.93957197244396" y2="127.80824277967446" class="err"/>
<circle cx="367.93957197244396" cy="121.65299500630451" r="2.5" class="obs"/>
<line x1="432.70904414036653" y1="113.35056777710784" x2="432.70904414036653" y2="127.0925162943989" class="err"/>
<line x1="429.70904414036653" y1="113.35056777710784" x2="435.70904414036653" y2="113.35056777710784" class="err"/>
<line x1="429.70904414036653" y1="127.0925162943989" x2="435.70904414036653" y2="127.0925162943989" class="err"/>
<circle cx="432.70904414036653" cy="120.22154203575336" r="2.5" class="obs"/>
<line x1="498.1603002258462" y1="108.91306356839927" x2="498.1603002258462" y2="122.94130267980056" class="err"/>
<line x1="495.1603002258462" y1="108.91306356839927" x2="501.1603002258462" y2="108.91306356839927" class="err"/>
<line x1="495.1603002258462" y1="122.94130267980056" x2="501.1603002258462" y2="122.94130267980056" class="err"/>
<circle cx="498.1603002258462" cy="115.92718312409991" r="2.5" class="obs"/>
<line x1="534.2948478563713" y1="97.17514920987988" x2="534.2948478563713" y2="126.09049921501307" class="err"/>
<line x1="531.2948478563713" y1="97.17514920987988" x2="537.2948478563713" y2="97.17514920987988" class="err"/>
<line x1="531.2948478563713" y1="126.09049921501307" x2="537.2948478563713" y2="126.09049921501307" class="err"/>
<circle cx="534.2948478563713" cy="111.63282421244648" r="2.5" class="obs"/>
<line x1="569.7476115693396" y1="101.18321752742307" x2="569.7476115693396" y2="119.21952495636758" class="err"/>
<line x1="566.7476115693396" y1="101.18321752742307" x2="572.7476115693396" y2="101.18321752742307" class="err"/>
<line x1="566.7476115693396" y1="119.21952495636758" x2="572.7476115693396" y2="119.21952495636758" class="err"/>
<circle cx="569.7476115693396" cy="110.20137124189532" r="2.5" class="obs"/>
<line x1="605.2003752823076" y1="96.3162774275492" x2="605.2003752823076" y2="118.36065317403687" class="err"/>
<line x1="602.2003752823076" y1="96.3162774275492" x2="608.2003752823076" y2="96.3162774275492" class="err"/>
<line x1="602.2003752823076" y1="118.36065317403687" x2="608.2003752823076" y2="118.36065317403687" class="err"/>
<circle cx="605.2003752823076" cy="107.33846530079303" r="2.5" class="obs"/>
<g class="legend">
<line x1="82" y1="69" x2="106" y2="69" class="fw"/>
<text x="112" y="73" class="lbl-l">framework fit</text>
<line x1="82" y1="87" x2="106" y2="87" class="nt"/>
<text x="112" y="91" class="lbl-l">Newtonian (no halo)</text>
<circle cx="94" cy="105" r="2.5" class="obs"/>
<text x="112" y="109" class="lbl">observed V±err</text>
</g>
<g class="legend">
<line x1="460" y1="69" x2="484" y2="69" class="rho"/>
<text x="490" y="73" class="lbl-r">ρ(r) raw</text>
<line x1="460" y1="87" x2="484" y2="87" class="sig"/>
<text x="490" y="91" class="lbl-r">Σ(r) smoothed</text>
<text x="460" y="113" class="lbl-r">ρ peak: 1143 M☉/pc²</text>
</g>
</svg>