<svg xmlns="http://www.w3.org/2000/svg" viewBox="0 0 890 420" width="890" height="420" font-family="sans-serif" font-size="12">
<style>
  .ax { stroke: #333; stroke-width: 1; fill: none; }
  .grid { stroke: #ddd; stroke-width: 0.5; fill: none; }
  .lbl { fill: #333; }
  .lbl-l { fill: #0066cc; }
  .lbl-r { fill: #b03030; }
  .obs { fill: #222; }
  .err { stroke: #555; stroke-width: 0.8; fill: none; }
  .fw { stroke: #0066cc; stroke-width: 2.2; fill: none; }
  .nt { stroke: #cc6600; stroke-width: 1.6; fill: none; stroke-dasharray: 5,3; }
  .lbl-s { fill: #cc7000; }
  .rho { stroke: #b03030; stroke-width: 2.0; fill: none; }
  .sig { stroke: #cc7000; stroke-width: 1.8; fill: none; }
  .title { fill: #111; font-size: 16px; font-weight: 600; }
  .subtitle { fill: #555; font-size: 11px; }
  .preview-bg { fill: #000; }
  .preview-lbl { fill: #888; font-size: 10px; }
  .legend { font-size: 11px; }
</style>
<text x="343.5" y="22" text-anchor="middle" class="title">UGC05918</text>
<text x="343.5" y="38" text-anchor="middle" class="subtitle">rMax=4.5 kpc, N=8, RMS=0.9 km/s (2.4%), amp=104</text>
<line x1="70" y1="365.0" x2="617" y2="365.0" class="grid"/>
<text x="64" y="369.0" text-anchor="end" class="lbl-l">0</text>
<line x1="70" y1="303.0" x2="617" y2="303.0" class="grid"/>
<text x="64" y="307.0" text-anchor="end" class="lbl-l">11</text>
<line x1="70" y1="241.0" x2="617" y2="241.0" class="grid"/>
<text x="64" y="245.0" text-anchor="end" class="lbl-l">21</text>
<line x1="70" y1="179.0" x2="617" y2="179.0" class="grid"/>
<text x="64" y="183.0" text-anchor="end" class="lbl-l">32</text>
<line x1="70" y1="117.0" x2="617" y2="117.0" class="grid"/>
<text x="64" y="121.0" text-anchor="end" class="lbl-l">43</text>
<line x1="70" y1="55.0" x2="617" y2="55.0" class="grid"/>
<text x="64" y="59.0" text-anchor="end" class="lbl-l">53</text>
<text x="623" y="369.0" text-anchor="start" class="lbl-r">0.0</text>
<text x="623" y="327.7" text-anchor="start" class="lbl-r">0.2</text>
<text x="623" y="286.3" text-anchor="start" class="lbl-r">0.4</text>
<text x="623" y="245.0" text-anchor="start" class="lbl-r">0.6</text>
<text x="623" y="203.7" text-anchor="start" class="lbl-r">0.8</text>
<text x="623" y="162.3" text-anchor="start" class="lbl-r">1.0</text>
<line x1="70.0" y1="55" x2="70.0" y2="365" class="grid"/>
<text x="70.0" y="381" text-anchor="middle" class="lbl">0.0</text>
<line x1="161.2" y1="55" x2="161.2" y2="365" class="grid"/>
<text x="161.2" y="381" text-anchor="middle" class="lbl">0.8</text>
<line x1="252.3" y1="55" x2="252.3" y2="365" class="grid"/>
<text x="252.3" y="381" text-anchor="middle" class="lbl">1.6</text>
<line x1="343.5" y1="55" x2="343.5" y2="365" class="grid"/>
<text x="343.5" y="381" text-anchor="middle" class="lbl">2.3</text>
<line x1="434.7" y1="55" x2="434.7" y2="365" class="grid"/>
<text x="434.7" y="381" text-anchor="middle" class="lbl">3.1</text>
<line x1="525.8" y1="55" x2="525.8" y2="365" class="grid"/>
<text x="525.8" y="381" text-anchor="middle" class="lbl">3.9</text>
<line x1="617.0" y1="55" x2="617.0" y2="365" class="grid"/>
<text x="617.0" y="381" text-anchor="middle" class="lbl">4.7</text>
<text x="343.5" y="408" text-anchor="middle" class="lbl">radius (kpc)</text>
<text x="16" y="210" text-anchor="middle" class="lbl-l" transform="rotate(-90, 16, 210)">velocity (km/s)</text>
<text x="874" y="210" text-anchor="middle" class="lbl-r" transform="rotate(-90, 874, 210)">mass profile (normalized to peak)</text>
<rect x="70" y="55" width="547" height="310" class="ax"/>
<path d="M 70.0,158.3 L 72.5,169.4 L 75.0,180.6 L 77.5,191.7 L 80.0,202.8 L 82.5,213.9 L 85.0,225.0 L 87.5,227.0 L 90.0,227.4 L 92.5,227.7 L 95.0,228.1 L 97.5,228.4 L 100.0,228.8 L 102.5,229.1 L 105.0,229.5 L 107.5,229.8 L 110.0,230.2 L 112.5,230.5 L 115.0,230.9 L 117.5,231.2 L 120.0,231.7 L 122.5,232.2 L 124.9,232.6 L 127.4,233.1 L 129.9,233.6 L 132.4,234.1 L 134.9,234.6 L 137.4,235.1 L 139.9,235.5 L 142.4,236.0 L 144.9,236.5 L 147.4,237.0 L 149.9,237.5 L 152.4,238.0 L 154.9,238.4 L 157.4,238.9 L 159.9,239.4 L 162.4,239.9 L 164.9,240.4 L 167.4,240.9 L 169.9,241.3 L 172.4,241.8 L 174.9,242.3 L 177.4,242.8 L 179.9,243.3 L 182.4,243.8 L 184.9,244.2 L 187.4,244.7 L 189.9,245.2 L 192.4,245.7 L 194.9,246.2 L 197.4,246.7 L 199.9,247.1 L 202.4,247.6 L 204.9,248.1 L 207.4,248.6 L 209.9,249.1 L 212.4,249.6 L 214.9,250.0 L 217.4,250.5 L 219.9,251.0 L 222.4,251.5 L 224.9,252.0 L 227.4,252.5 L 229.9,252.9 L 232.4,253.4 L 234.8,253.9 L 237.3,254.4 L 239.8,254.9 L 242.3,255.4 L 244.8,255.8 L 247.3,256.3 L 249.8,256.8 L 252.3,257.2 L 254.8,257.6 L 257.3,258.0 L 259.8,258.3 L 262.3,258.7 L 264.8,259.1 L 267.3,259.5 L 269.8,259.8 L 272.3,260.2 L 274.8,260.6 L 277.3,261.0 L 279.8,261.3 L 282.3,261.7 L 284.8,262.1 L 287.3,262.5 L 289.8,262.9 L 292.3,263.2 L 294.8,263.6 L 297.3,264.0 L 299.8,264.4 L 302.3,264.7 L 304.8,265.1 L 307.3,265.5 L 309.8,265.9 L 312.3,266.2 L 314.8,266.6 L 317.3,267.0 L 319.8,267.4 L 322.3,267.8 L 324.8,268.1 L 327.3,268.5 L 329.8,268.9 L 332.3,269.3 L 334.8,269.6 L 337.3,270.0 L 339.8,270.4 L 342.3,270.8 L 344.7,271.1 L 347.2,271.5 L 349.7,271.9 L 352.2,272.3 L 354.7,272.7 L 357.2,273.0 L 359.7,273.4 L 362.2,273.8 L 364.7,274.2 L 367.2,274.5 L 369.7,274.9 L 372.2,275.3 L 374.7,275.7 L 377.2,276.0 L 379.7,276.4 L 382.2,276.8 L 384.7,277.2 L 387.2,277.6 L 389.7,277.9 L 392.2,278.3 L 394.7,278.7 L 397.2,279.1 L 399.7,279.4 L 402.2,279.8 L 404.7,280.2 L 407.2,280.6 L 409.7,280.9 L 412.2,281.3 L 414.7,281.7 L 417.2,282.1 L 419.7,282.5 L 422.2,282.8 L 424.7,283.2 L 427.2,283.6 L 429.7,284.0 L 432.2,284.3 L 434.7,284.7 L 437.2,285.1 L 439.7,285.5 L 442.2,285.8 L 444.7,286.2 L 447.2,286.6 L 449.7,287.0 L 452.2,287.4 L 454.6,287.7 L 457.1,288.1 L 459.6,288.5 L 462.1,288.9 L 464.6,289.2 L 467.1,289.6 L 469.6,290.0 L 472.1,290.4 L 474.6,290.7 L 477.1,291.1 L 479.6,291.5 L 482.1,291.9 L 484.6,292.3 L 487.1,292.6 L 489.6,293.0 L 492.1,293.4 L 494.6,293.8 L 497.1,294.1 L 499.6,294.5 L 502.1,294.9 L 504.6,295.3 L 507.1,295.6 L 509.6,296.0 L 512.1,296.4 L 514.6,296.8 L 517.1,297.2 L 519.6,297.5 L 522.1,297.9 L 524.6,298.3 L 527.1,298.7 L 529.6,299.0 L 532.1,299.4 L 534.6,299.8 L 537.1,300.2 L 539.6,300.5 L 542.1,300.9 L 544.6,301.3 L 547.1,301.7 L 549.6,302.0 L 552.1,302.4 L 554.6,302.8 L 557.1,303.2 L 559.6,303.6 L 562.1,303.9 L 564.5,304.3 L 567.0,304.7 L 569.5,305.1 L 572.0,305.4 L 574.5,305.8 L 577.0,306.2 L 579.5,306.6 L 582.0,306.9 L 584.5,307.3 L 587.0,321.6 L 589.5,349.2 L 592.0,365.0 L 594.5,365.0 L 597.0,365.0 L 599.5,365.0 L 602.0,365.0 L 604.5,365.0 L 607.0,365.0 L 609.5,365.0 L 612.0,365.0 L 614.5,365.0 L 617.0,365.0" class="rho"/>
<path d="M 70.0,158.3 L 72.5,158.4 L 75.0,158.6 L 77.5,158.8 L 80.0,159.1 L 82.5,159.5 L 85.0,159.9 L 87.5,160.4 L 90.0,160.9 L 92.5,161.4 L 95.0,162.0 L 97.5,162.5 L 100.0,163.1 L 102.5,163.7 L 105.0,164.3 L 107.5,165.0 L 110.0,165.6 L 112.5,166.3 L 115.0,167.0 L 117.5,167.6 L 120.0,168.4 L 122.5,169.1 L 124.9,169.8 L 127.4,170.6 L 129.9,171.3 L 132.4,172.1 L 134.9,172.9 L 137.4,173.7 L 139.9,174.6 L 142.4,175.4 L 144.9,176.3 L 147.4,177.1 L 149.9,178.0 L 152.4,178.9 L 154.9,179.8 L 157.4,180.7 L 159.9,181.6 L 162.4,182.6 L 164.9,183.5 L 167.4,184.4 L 169.9,185.4 L 172.4,186.4 L 174.9,187.3 L 177.4,188.3 L 179.9,189.3 L 182.4,190.3 L 184.9,191.3 L 187.4,192.3 L 189.9,193.3 L 192.4,194.3 L 194.9,195.3 L 197.4,196.3 L 199.9,197.3 L 202.4,198.4 L 204.9,199.4 L 207.4,200.4 L 209.9,201.5 L 212.4,202.5 L 214.9,203.5 L 217.4,204.6 L 219.9,205.6 L 222.4,206.6 L 224.9,207.7 L 227.4,208.7 L 229.9,209.7 L 232.4,210.8 L 234.8,211.8 L 237.3,212.8 L 239.8,213.9 L 242.3,214.9 L 244.8,215.9 L 247.3,216.9 L 249.8,218.0 L 252.3,219.0 L 254.8,220.0 L 257.3,221.0 L 259.8,222.0 L 262.3,223.0 L 264.8,224.0 L 267.3,225.0 L 269.8,226.0 L 272.3,227.0 L 274.8,228.0 L 277.3,229.0 L 279.8,230.0 L 282.3,230.9 L 284.8,231.9 L 287.3,232.9 L 289.8,233.9 L 292.3,234.8 L 294.8,235.8 L 297.3,236.8 L 299.8,237.7 L 302.3,238.7 L 304.8,239.6 L 307.3,240.6 L 309.8,241.5 L 312.3,242.5 L 314.8,243.4 L 317.3,244.4 L 319.8,245.3 L 322.3,246.2 L 324.8,247.2 L 327.3,248.1 L 329.8,249.0 L 332.3,250.0 L 334.8,250.9 L 337.3,251.8 L 339.8,252.7 L 342.3,253.6 L 344.7,254.5 L 347.2,255.4 L 349.7,256.3 L 352.2,257.2 L 354.7,258.1 L 357.2,259.0 L 359.7,259.9 L 362.2,260.8 L 364.7,261.7 L 367.2,262.6 L 369.7,263.5 L 372.2,264.4 L 374.7,265.2 L 377.2,266.1 L 379.7,267.0 L 382.2,267.8 L 384.7,268.7 L 387.2,269.5 L 389.7,270.4 L 392.2,271.2 L 394.7,272.1 L 397.2,272.9 L 399.7,273.8 L 402.2,274.6 L 404.7,275.5 L 407.2,276.3 L 409.7,277.1 L 412.2,277.9 L 414.7,278.8 L 417.2,279.6 L 419.7,280.4 L 422.2,281.2 L 424.7,282.0 L 427.2,282.8 L 429.7,283.6 L 432.2,284.4 L 434.7,285.2 L 437.2,286.0 L 439.7,286.8 L 442.2,287.6 L 444.7,288.3 L 447.2,289.1 L 449.7,289.9 L 452.2,290.7 L 454.6,291.4 L 457.1,292.2 L 459.6,293.0 L 462.1,293.7 L 464.6,294.5 L 467.1,295.2 L 469.6,296.0 L 472.1,296.7 L 474.6,297.5 L 477.1,298.2 L 479.6,298.9 L 482.1,299.7 L 484.6,300.4 L 487.1,301.1 L 489.6,301.9 L 492.1,302.6 L 494.6,303.3 L 497.1,304.0 L 499.6,304.7 L 502.1,305.4 L 504.6,306.2 L 507.1,306.9 L 509.6,307.6 L 512.1,308.3 L 514.6,309.0 L 517.1,309.7 L 519.6,310.4 L 522.1,311.1 L 524.6,311.8 L 527.1,312.5 L 529.6,313.2 L 532.1,313.9 L 534.6,314.6 L 537.1,315.3 L 539.6,316.0 L 542.1,316.7 L 544.6,317.4 L 547.1,318.2 L 549.6,318.9 L 552.1,319.6 L 554.6,320.3 L 557.1,321.0 L 559.6,321.8 L 562.1,322.5 L 564.5,323.3 L 567.0,324.0 L 569.5,324.8 L 572.0,325.6 L 574.5,326.3 L 577.0,327.1 L 579.5,327.9 L 582.0,328.7 L 584.5,329.4 L 587.0,330.2 L 589.5,331.0 L 592.0,331.7 L 594.5,332.4 L 597.0,333.2 L 599.5,333.8 L 602.0,334.5 L 604.5,335.1 L 607.0,335.8 L 609.5,336.4 L 612.0,336.9 L 614.5,337.5 L 617.0,338.0" class="sig"/>
<path d="M 75.5,325.0 L 80.9,310.9 L 86.4,301.8 L 91.9,294.1 L 97.3,286.9 L 102.8,280.3 L 108.3,274.1 L 113.8,268.3 L 119.2,262.8 L 124.7,257.6 L 130.2,252.8 L 135.6,248.1 L 141.1,243.7 L 146.6,239.5 L 152.1,235.5 L 157.5,231.6 L 163.0,227.9 L 168.5,224.4 L 173.9,220.9 L 179.4,217.6 L 184.9,214.4 L 190.3,211.3 L 195.8,208.3 L 201.3,205.3 L 206.8,202.5 L 212.2,199.8 L 217.7,197.1 L 223.2,194.5 L 228.6,192.0 L 234.1,189.6 L 239.6,187.2 L 245.0,184.9 L 250.5,182.6 L 256.0,180.4 L 261.5,178.3 L 266.9,176.2 L 272.4,174.1 L 277.9,172.1 L 283.3,170.1 L 288.8,168.2 L 294.3,166.3 L 299.7,164.4 L 305.2,162.6 L 310.7,160.9 L 316.1,159.1 L 321.6,157.4 L 327.1,155.7 L 332.6,154.1 L 338.0,152.5 L 343.5,150.9 L 349.0,149.4 L 354.4,147.9 L 359.9,146.4 L 365.4,145.0 L 370.8,143.5 L 376.3,142.1 L 381.8,140.8 L 387.3,139.5 L 392.7,138.2 L 398.2,136.9 L 403.7,135.6 L 409.1,134.4 L 414.6,133.2 L 420.1,132.0 L 425.6,130.9 L 431.0,129.8 L 436.5,128.7 L 442.0,127.6 L 447.4,126.6 L 452.9,125.5 L 458.4,124.5 L 463.8,123.5 L 469.3,122.6 L 474.8,121.7 L 480.3,120.7 L 485.7,119.9 L 491.2,119.0 L 496.7,118.1 L 502.1,117.3 L 507.6,116.5 L 513.1,115.7 L 518.5,115.0 L 524.0,114.2 L 529.5,113.5 L 535.0,112.8 L 540.4,112.1 L 545.9,111.5 L 551.4,110.8 L 556.8,110.2 L 562.3,109.6 L 567.8,109.0 L 573.2,108.5 L 578.7,107.9 L 584.2,107.4 L 589.6,107.4 L 595.1,108.7 L 600.6,109.9 L 606.1,111.3 L 611.5,112.7 L 617.0,113.9" class="nt"/>
<path d="M 74.6,351.4 L 79.1,341.9 L 83.7,332.3 L 88.2,323.9 L 92.8,316.6 L 97.3,310.3 L 101.9,304.4 L 106.5,298.7 L 111.0,293.2 L 115.6,287.7 L 120.1,282.3 L 124.7,276.9 L 129.3,271.6 L 133.8,266.4 L 138.4,261.3 L 142.9,256.4 L 147.5,251.6 L 152.1,246.9 L 156.6,242.4 L 161.2,238.0 L 165.7,233.7 L 170.3,229.6 L 174.8,225.6 L 179.4,221.7 L 184.0,218.0 L 188.5,214.4 L 193.1,210.9 L 197.6,207.5 L 202.2,204.3 L 206.8,201.2 L 211.3,198.2 L 215.9,195.4 L 220.4,192.7 L 225.0,190.1 L 229.5,187.7 L 234.1,185.4 L 238.7,183.2 L 243.2,181.1 L 247.8,179.1 L 252.3,177.3 L 256.9,175.5 L 261.4,173.7 L 266.0,172.0 L 270.6,170.3 L 275.1,168.6 L 279.7,167.0 L 284.2,165.4 L 288.8,163.8 L 293.4,162.3 L 297.9,160.7 L 302.5,159.2 L 307.0,157.8 L 311.6,156.3 L 316.1,154.9 L 320.7,153.5 L 325.3,152.2 L 329.8,150.9 L 334.4,149.7 L 338.9,148.4 L 343.5,147.2 L 348.1,146.1 L 352.6,145.0 L 357.2,143.9 L 361.7,142.8 L 366.3,141.8 L 370.8,140.8 L 375.4,139.9 L 380.0,139.0 L 384.5,138.1 L 389.1,137.3 L 393.6,136.4 L 398.2,135.7 L 402.8,134.9 L 407.3,134.2 L 411.9,133.5 L 416.4,132.8 L 421.0,132.2 L 425.6,131.6 L 430.1,131.0 L 434.7,130.4 L 439.2,129.9 L 443.8,129.3 L 448.3,128.8 L 452.9,128.3 L 457.5,127.8 L 462.0,127.3 L 466.6,126.9 L 471.1,126.4 L 475.7,125.9 L 480.3,125.4 L 484.8,124.9 L 489.4,124.4 L 493.9,123.8 L 498.5,123.2 L 503.0,122.6 L 507.6,121.9 L 512.2,121.1 L 516.7,120.2 L 521.3,119.2 L 525.8,118.1 L 530.4,116.8 L 535.0,115.3 L 539.5,113.6 L 544.1,111.6 L 548.6,109.3 L 553.2,106.7 L 557.7,103.7 L 562.3,100.5 L 566.9,97.2 L 571.4,94.0 L 576.0,91.4 L 580.5,90.1 L 585.1,90.4 L 589.7,92.7 L 594.2,97.1 L 598.8,103.1 L 603.3,110.4 L 607.9,118.2 L 612.4,126.1 L 617.0,133.9" class="fw"/>
<line x1="135.29" y1="243.79" x2="135.29" y2="289.53" class="err"/>
<line x1="132.29" y1="243.79" x2="138.29" y2="243.79" class="err"/>
<line x1="132.29" y1="289.53" x2="138.29" y2="289.53" class="err"/>
<circle cx="135.29" cy="266.66" r="2.5" class="obs"/>
<line x1="199.41" y1="182.69" x2="199.41" y2="228.43" class="err"/>
<line x1="196.41" y1="182.69" x2="202.41" y2="182.69" class="err"/>
<line x1="196.41" y1="228.43" x2="202.41" y2="228.43" class="err"/>
<circle cx="199.41" cy="205.56" r="2.5" class="obs"/>
<line x1="264.70" y1="147.19" x2="264.70" y2="192.93" class="err"/>
<line x1="261.70" y1="147.19" x2="267.70" y2="147.19" class="err"/>
<line x1="261.70" y1="192.93" x2="267.70" y2="192.93" class="err"/>
<circle cx="264.70" cy="170.06" r="2.5" class="obs"/>
<line x1="329.99" y1="130.32" x2="329.99" y2="176.05" class="err"/>
<line x1="326.99" y1="130.32" x2="332.99" y2="130.32" class="err"/>
<line x1="326.99" y1="176.05" x2="332.99" y2="176.05" class="err"/>
<circle cx="329.99" cy="153.19" r="2.5" class="obs"/>
<line x1="395.28" y1="110.53" x2="395.28" y2="156.27" class="err"/>
<line x1="392.28" y1="110.53" x2="398.28" y2="110.53" class="err"/>
<line x1="392.28" y1="156.27" x2="398.28" y2="156.27" class="err"/>
<circle cx="395.28" cy="133.40" r="2.5" class="obs"/>
<line x1="459.40" y1="102.38" x2="459.40" y2="148.12" class="err"/>
<line x1="456.40" y1="102.38" x2="462.40" y2="102.38" class="err"/>
<line x1="456.40" y1="148.12" x2="462.40" y2="148.12" class="err"/>
<circle cx="459.40" cy="125.25" r="2.5" class="obs"/>
<line x1="524.69" y1="94.24" x2="524.69" y2="139.98" class="err"/>
<line x1="521.69" y1="94.24" x2="527.69" y2="94.24" class="err"/>
<line x1="521.69" y1="139.98" x2="527.69" y2="139.98" class="err"/>
<circle cx="524.69" cy="117.11" r="2.5" class="obs"/>
<line x1="589.98" y1="83.18" x2="589.98" y2="128.92" class="err"/>
<line x1="586.98" y1="83.18" x2="592.98" y2="83.18" class="err"/>
<line x1="586.98" y1="128.92" x2="592.98" y2="128.92" class="err"/>
<circle cx="589.98" cy="106.05" r="2.5" class="obs"/>
<g class="legend">
<line x1="82" y1="69" x2="106" y2="69" class="fw"/>
<text x="112" y="73" class="lbl-l">framework fit</text>
<line x1="82" y1="87" x2="106" y2="87" class="nt"/>
<text x="112" y="91" class="lbl-l">Newtonian (no halo)</text>
<circle cx="94" cy="105" r="2.5" class="obs"/>
<text x="112" y="109" class="lbl">observed V±err</text>
</g>
<g class="legend">
<line x1="442" y1="69" x2="466" y2="69" class="rho"/>
<text x="472" y="73" class="lbl-r">ρ(r) raw</text>
<line x1="442" y1="87" x2="466" y2="87" class="sig"/>
<text x="472" y="91" class="lbl-s">Σ(r) cumulative</text>
<text x="442" y="113" class="lbl-r">ρ peak: 81 M☉/pc²</text>
</g>
<rect x="705" y="55" width="170" height="170" class="preview-bg"/>
<defs><radialGradient id="g_UGC05918" cx="0.5" cy="0.5" r="0.5">
  <stop offset="0.0000" stop-color="rgb(161,40.25,40.25)"/>
  <stop offset="0.0313" stop-color="rgb(124,31,31)"/>
  <stop offset="0.0625" stop-color="rgb(123,30.75,30.75)"/>
  <stop offset="0.0938" stop-color="rgb(122,30.5,30.5)"/>
  <stop offset="0.1250" stop-color="rgb(120,30,30)"/>
  <stop offset="0.1563" stop-color="rgb(118,29.5,29.5)"/>
  <stop offset="0.1875" stop-color="rgb(117,29.25,29.25)"/>
  <stop offset="0.2188" stop-color="rgb(115,28.75,28.75)"/>
  <stop offset="0.2500" stop-color="rgb(113,28.25,28.25)"/>
  <stop offset="0.2813" stop-color="rgb(111,27.75,27.75)"/>
  <stop offset="0.3125" stop-color="rgb(110,27.5,27.5)"/>
  <stop offset="0.3438" stop-color="rgb(108,27,27)"/>
  <stop offset="0.3750" stop-color="rgb(107,26.75,26.75)"/>
  <stop offset="0.4063" stop-color="rgb(105,26.25,26.25)"/>
  <stop offset="0.4375" stop-color="rgb(104,26,26)"/>
  <stop offset="0.4688" stop-color="rgb(103,25.75,25.75)"/>
  <stop offset="0.5000" stop-color="rgb(101,25.25,25.25)"/>
  <stop offset="0.5313" stop-color="rgb(100,25,25)"/>
  <stop offset="0.5625" stop-color="rgb(99,24.75,24.75)"/>
  <stop offset="0.5938" stop-color="rgb(98,24.5,24.5)"/>
  <stop offset="0.6250" stop-color="rgb(96,24,24)"/>
  <stop offset="0.6563" stop-color="rgb(95,23.75,23.75)"/>
  <stop offset="0.6875" stop-color="rgb(94,23.5,23.5)"/>
  <stop offset="0.7188" stop-color="rgb(92,23,23)"/>
  <stop offset="0.7500" stop-color="rgb(91,22.75,22.75)"/>
  <stop offset="0.7813" stop-color="rgb(90,22.5,22.5)"/>
  <stop offset="0.8125" stop-color="rgb(88,22,22)"/>
  <stop offset="0.8438" stop-color="rgb(87,21.75,21.75)"/>
  <stop offset="0.8750" stop-color="rgb(86,21.5,21.5)"/>
  <stop offset="0.9063" stop-color="rgb(84,21,21)"/>
  <stop offset="0.9375" stop-color="rgb(83,20.75,20.75)"/>
  <stop offset="0.9688" stop-color="rgb(82,20.5,20.5)"/>
  <stop offset="1.0000" stop-color="rgb(0,0,0)"/>
</radialGradient></defs>
<circle cx="790" cy="140" r="81" fill="url(#g_UGC05918)"/>
<text x="790" y="49" text-anchor="middle" class="preview-lbl">face-on luminance from ρ(r)</text>
<text x="790" y="239" text-anchor="middle" class="preview-lbl">edge at r = 4.5 kpc</text>
</svg>