<svg xmlns="http://www.w3.org/2000/svg" viewBox="0 0 890 420" width="890" height="420" font-family="sans-serif" font-size="12">
<style>
  .ax { stroke: #333; stroke-width: 1; fill: none; }
  .grid { stroke: #ddd; stroke-width: 0.5; fill: none; }
  .lbl { fill: #333; }
  .lbl-l { fill: #0066cc; }
  .lbl-r { fill: #b03030; }
  .obs { fill: #222; }
  .err { stroke: #555; stroke-width: 0.8; fill: none; }
  .fw { stroke: #0066cc; stroke-width: 2.2; fill: none; }
  .nt { stroke: #cc6600; stroke-width: 1.6; fill: none; stroke-dasharray: 5,3; }
  .lbl-s { fill: #cc7000; }
  .rho { stroke: #b03030; stroke-width: 2.0; fill: none; }
  .sig { stroke: #cc7000; stroke-width: 1.8; fill: none; }
  .title { fill: #111; font-size: 16px; font-weight: 600; }
  .subtitle { fill: #555; font-size: 11px; }
  .preview-bg { fill: #000; }
  .preview-lbl { fill: #888; font-size: 10px; }
  .legend { font-size: 11px; }
</style>
<text x="343.5" y="22" text-anchor="middle" class="title">UGC06930</text>
<text x="343.5" y="38" text-anchor="middle" class="subtitle">rMax=16.6 kpc, N=10, RMS=0.6 km/s (0.6%), amp=104</text>
<line x1="70" y1="365.0" x2="617" y2="365.0" class="grid"/>
<text x="64" y="369.0" text-anchor="end" class="lbl-l">0</text>
<line x1="70" y1="303.0" x2="617" y2="303.0" class="grid"/>
<text x="64" y="307.0" text-anchor="end" class="lbl-l">26</text>
<line x1="70" y1="241.0" x2="617" y2="241.0" class="grid"/>
<text x="64" y="245.0" text-anchor="end" class="lbl-l">52</text>
<line x1="70" y1="179.0" x2="617" y2="179.0" class="grid"/>
<text x="64" y="183.0" text-anchor="end" class="lbl-l">78</text>
<line x1="70" y1="117.0" x2="617" y2="117.0" class="grid"/>
<text x="64" y="121.0" text-anchor="end" class="lbl-l">103</text>
<line x1="70" y1="55.0" x2="617" y2="55.0" class="grid"/>
<text x="64" y="59.0" text-anchor="end" class="lbl-l">129</text>
<text x="623" y="369.0" text-anchor="start" class="lbl-r">0.0</text>
<text x="623" y="327.7" text-anchor="start" class="lbl-r">0.2</text>
<text x="623" y="286.3" text-anchor="start" class="lbl-r">0.4</text>
<text x="623" y="245.0" text-anchor="start" class="lbl-r">0.6</text>
<text x="623" y="203.7" text-anchor="start" class="lbl-r">0.8</text>
<text x="623" y="162.3" text-anchor="start" class="lbl-r">1.0</text>
<line x1="70.0" y1="55" x2="70.0" y2="365" class="grid"/>
<text x="70.0" y="381" text-anchor="middle" class="lbl">0.0</text>
<line x1="161.2" y1="55" x2="161.2" y2="365" class="grid"/>
<text x="161.2" y="381" text-anchor="middle" class="lbl">3.2</text>
<line x1="252.3" y1="55" x2="252.3" y2="365" class="grid"/>
<text x="252.3" y="381" text-anchor="middle" class="lbl">6.5</text>
<line x1="343.5" y1="55" x2="343.5" y2="365" class="grid"/>
<text x="343.5" y="381" text-anchor="middle" class="lbl">9.7</text>
<line x1="434.7" y1="55" x2="434.7" y2="365" class="grid"/>
<text x="434.7" y="381" text-anchor="middle" class="lbl">12.9</text>
<line x1="525.8" y1="55" x2="525.8" y2="365" class="grid"/>
<text x="525.8" y="381" text-anchor="middle" class="lbl">16.2</text>
<line x1="617.0" y1="55" x2="617.0" y2="365" class="grid"/>
<text x="617.0" y="381" text-anchor="middle" class="lbl">19.4</text>
<text x="343.5" y="408" text-anchor="middle" class="lbl">radius (kpc)</text>
<text x="16" y="210" text-anchor="middle" class="lbl-l" transform="rotate(-90, 16, 210)">velocity (km/s)</text>
<text x="874" y="210" text-anchor="middle" class="lbl-r" transform="rotate(-90, 874, 210)">mass profile (normalized to peak)</text>
<rect x="70" y="55" width="547" height="310" class="ax"/>
<path d="M 70.0,158.3 L 72.5,164.5 L 75.0,170.7 L 77.5,176.9 L 80.0,183.1 L 82.5,185.8 L 85.0,187.3 L 87.5,188.8 L 90.0,190.3 L 92.5,191.8 L 95.0,193.3 L 97.5,194.8 L 100.0,196.3 L 102.5,197.9 L 105.0,199.4 L 107.5,200.9 L 110.0,202.4 L 112.5,203.9 L 115.0,205.4 L 117.5,206.9 L 120.0,208.4 L 122.5,209.9 L 124.9,211.4 L 127.4,212.9 L 129.9,214.4 L 132.4,215.9 L 134.9,217.4 L 137.4,218.9 L 139.9,220.4 L 142.4,221.9 L 144.9,223.4 L 147.4,224.9 L 149.9,226.4 L 152.4,227.9 L 154.9,229.4 L 157.4,230.9 L 159.9,232.4 L 162.4,233.9 L 164.9,235.4 L 167.4,236.9 L 169.9,238.4 L 172.4,239.9 L 174.9,241.4 L 177.4,242.9 L 179.9,244.4 L 182.4,245.9 L 184.9,247.4 L 187.4,248.9 L 189.9,250.4 L 192.4,252.1 L 194.9,254.1 L 197.4,256.1 L 199.9,258.1 L 202.4,258.6 L 204.9,259.0 L 207.4,259.5 L 209.9,259.9 L 212.4,260.4 L 214.9,260.8 L 217.4,261.3 L 219.9,261.7 L 222.4,262.2 L 224.9,262.6 L 227.4,263.1 L 229.9,263.5 L 232.4,264.0 L 234.8,264.4 L 237.3,264.9 L 239.8,265.3 L 242.3,265.7 L 244.8,266.2 L 247.3,266.6 L 249.8,267.1 L 252.3,267.5 L 254.8,268.0 L 257.3,268.4 L 259.8,268.9 L 262.3,269.3 L 264.8,269.8 L 267.3,270.2 L 269.8,270.7 L 272.3,271.1 L 274.8,271.6 L 277.3,272.0 L 279.8,272.4 L 282.3,272.9 L 284.8,273.3 L 287.3,273.8 L 289.8,274.2 L 292.3,274.7 L 294.8,275.1 L 297.3,275.6 L 299.8,276.0 L 302.3,276.5 L 304.8,276.9 L 307.3,277.4 L 309.8,277.8 L 312.3,278.2 L 314.8,278.7 L 317.3,279.1 L 319.8,279.6 L 322.3,280.0 L 324.8,280.5 L 327.3,280.9 L 329.8,281.4 L 332.3,281.8 L 334.8,282.3 L 337.3,282.7 L 339.8,283.2 L 342.3,283.6 L 344.7,284.1 L 347.2,284.5 L 349.7,284.9 L 352.2,285.4 L 354.7,285.8 L 357.2,286.3 L 359.7,286.7 L 362.2,287.2 L 364.7,287.6 L 367.2,288.1 L 369.7,288.5 L 372.2,289.0 L 374.7,289.4 L 377.2,289.9 L 379.7,290.3 L 382.2,290.7 L 384.7,291.2 L 387.2,291.6 L 389.7,292.1 L 392.2,292.5 L 394.7,293.0 L 397.2,293.4 L 399.7,293.9 L 402.2,294.3 L 404.7,294.8 L 407.2,295.2 L 409.7,295.7 L 412.2,296.1 L 414.7,296.6 L 417.2,297.0 L 419.7,297.4 L 422.2,297.9 L 424.7,298.3 L 427.2,298.8 L 429.7,299.2 L 432.2,299.7 L 434.7,300.1 L 437.2,300.6 L 439.7,301.0 L 442.2,301.5 L 444.7,301.9 L 447.2,302.4 L 449.7,302.8 L 452.2,303.2 L 454.6,303.7 L 457.1,304.1 L 459.6,304.6 L 462.1,305.0 L 464.6,305.5 L 467.1,305.9 L 469.6,306.4 L 472.1,306.8 L 474.6,307.3 L 477.1,307.7 L 479.6,308.2 L 482.1,308.6 L 484.6,309.1 L 487.1,309.5 L 489.6,309.9 L 492.1,310.4 L 494.6,310.8 L 497.1,311.3 L 499.6,311.7 L 502.1,312.2 L 504.6,312.6 L 507.1,313.1 L 509.6,313.5 L 512.1,314.0 L 514.6,314.4 L 517.1,314.9 L 519.6,315.3 L 522.1,315.8 L 524.6,316.2 L 527.1,316.6 L 529.6,317.1 L 532.1,317.5 L 534.6,318.0 L 537.1,318.4 L 539.6,318.9 L 542.1,319.3 L 544.6,319.8 L 547.1,320.2 L 549.6,321.3 L 552.1,324.0 L 554.6,326.6 L 557.1,329.2 L 559.6,331.9 L 562.1,334.5 L 564.5,337.1 L 567.0,339.8 L 569.5,342.4 L 572.0,345.1 L 574.5,347.7 L 577.0,350.3 L 579.5,353.0 L 582.0,355.6 L 584.5,358.2 L 587.0,360.9 L 589.5,363.5 L 592.0,365.0 L 594.5,365.0 L 597.0,365.0 L 599.5,365.0 L 602.0,365.0 L 604.5,365.0 L 607.0,365.0 L 609.5,365.0 L 612.0,365.0 L 614.5,365.0 L 617.0,365.0" class="rho"/>
<path d="M 70.0,158.3 L 72.5,158.4 L 75.0,158.6 L 77.5,158.9 L 80.0,159.2 L 82.5,159.6 L 85.0,160.1 L 87.5,160.7 L 90.0,161.4 L 92.5,162.1 L 95.0,162.9 L 97.5,163.8 L 100.0,164.7 L 102.5,165.7 L 105.0,166.7 L 107.5,167.8 L 110.0,168.9 L 112.5,170.1 L 115.0,171.3 L 117.5,172.6 L 120.0,173.8 L 122.5,175.1 L 124.9,176.5 L 127.4,177.9 L 129.9,179.3 L 132.4,180.7 L 134.9,182.1 L 137.4,183.6 L 139.9,185.1 L 142.4,186.6 L 144.9,188.1 L 147.4,189.6 L 149.9,191.2 L 152.4,192.7 L 154.9,194.3 L 157.4,195.8 L 159.9,197.4 L 162.4,198.9 L 164.9,200.5 L 167.4,202.1 L 169.9,203.6 L 172.4,205.2 L 174.9,206.7 L 177.4,208.3 L 179.9,209.8 L 182.4,211.3 L 184.9,212.8 L 187.4,214.3 L 189.9,215.8 L 192.4,217.2 L 194.9,218.7 L 197.4,220.1 L 199.9,221.5 L 202.4,222.9 L 204.9,224.2 L 207.4,225.6 L 209.9,226.9 L 212.4,228.2 L 214.9,229.4 L 217.4,230.7 L 219.9,231.9 L 222.4,233.1 L 224.9,234.3 L 227.4,235.5 L 229.9,236.7 L 232.4,237.8 L 234.8,239.0 L 237.3,240.1 L 239.8,241.2 L 242.3,242.3 L 244.8,243.4 L 247.3,244.5 L 249.8,245.6 L 252.3,246.6 L 254.8,247.7 L 257.3,248.7 L 259.8,249.8 L 262.3,250.8 L 264.8,251.8 L 267.3,252.8 L 269.8,253.8 L 272.3,254.8 L 274.8,255.8 L 277.3,256.8 L 279.8,257.8 L 282.3,258.8 L 284.8,259.7 L 287.3,260.7 L 289.8,261.6 L 292.3,262.6 L 294.8,263.5 L 297.3,264.5 L 299.8,265.4 L 302.3,266.3 L 304.8,267.2 L 307.3,268.2 L 309.8,269.1 L 312.3,270.0 L 314.8,270.9 L 317.3,271.8 L 319.8,272.6 L 322.3,273.5 L 324.8,274.4 L 327.3,275.3 L 329.8,276.1 L 332.3,277.0 L 334.8,277.9 L 337.3,278.7 L 339.8,279.6 L 342.3,280.4 L 344.7,281.2 L 347.2,282.1 L 349.7,282.9 L 352.2,283.7 L 354.7,284.5 L 357.2,285.4 L 359.7,286.2 L 362.2,287.0 L 364.7,287.8 L 367.2,288.6 L 369.7,289.4 L 372.2,290.1 L 374.7,290.9 L 377.2,291.7 L 379.7,292.5 L 382.2,293.2 L 384.7,294.0 L 387.2,294.8 L 389.7,295.5 L 392.2,296.3 L 394.7,297.0 L 397.2,297.7 L 399.7,298.5 L 402.2,299.2 L 404.7,299.9 L 407.2,300.7 L 409.7,301.4 L 412.2,302.1 L 414.7,302.8 L 417.2,303.5 L 419.7,304.2 L 422.2,304.9 L 424.7,305.6 L 427.2,306.3 L 429.7,306.9 L 432.2,307.6 L 434.7,308.3 L 437.2,308.9 L 439.7,309.6 L 442.2,310.3 L 444.7,310.9 L 447.2,311.6 L 449.7,312.2 L 452.2,312.8 L 454.6,313.5 L 457.1,314.1 L 459.6,314.7 L 462.1,315.4 L 464.6,316.0 L 467.1,316.6 L 469.6,317.2 L 472.1,317.8 L 474.6,318.4 L 477.1,319.0 L 479.6,319.6 L 482.1,320.2 L 484.6,320.8 L 487.1,321.4 L 489.6,321.9 L 492.1,322.5 L 494.6,323.1 L 497.1,323.6 L 499.6,324.2 L 502.1,324.8 L 504.6,325.3 L 507.1,325.9 L 509.6,326.4 L 512.1,327.0 L 514.6,327.5 L 517.1,328.1 L 519.6,328.6 L 522.1,329.1 L 524.6,329.7 L 527.1,330.2 L 529.6,330.7 L 532.1,331.3 L 534.6,331.8 L 537.1,332.3 L 539.6,332.9 L 542.1,333.4 L 544.6,333.9 L 547.1,334.4 L 549.6,335.0 L 552.1,335.5 L 554.6,336.0 L 557.1,336.5 L 559.6,337.0 L 562.1,337.5 L 564.5,338.0 L 567.0,338.5 L 569.5,338.9 L 572.0,339.4 L 574.5,339.8 L 577.0,340.3 L 579.5,340.7 L 582.0,341.1 L 584.5,341.5 L 587.0,341.9 L 589.5,342.2 L 592.0,342.6 L 594.5,342.9 L 597.0,343.3 L 599.5,343.6 L 602.0,343.9 L 604.5,344.2 L 607.0,344.5 L 609.5,344.8 L 612.0,345.1 L 614.5,345.4 L 617.0,345.6" class="sig"/>
<path d="M 75.5,315.8 L 80.9,297.0 L 86.4,283.0 L 91.9,271.2 L 97.3,261.0 L 102.8,251.9 L 108.3,243.6 L 113.8,236.1 L 119.2,229.2 L 124.7,222.9 L 130.2,216.9 L 135.6,211.4 L 141.1,206.3 L 146.6,201.4 L 152.1,196.9 L 157.5,192.6 L 163.0,188.6 L 168.5,184.8 L 173.9,181.3 L 179.4,178.0 L 184.9,174.8 L 190.3,171.9 L 195.8,169.1 L 201.3,166.6 L 206.8,164.2 L 212.2,161.8 L 217.7,159.4 L 223.2,157.0 L 228.6,154.7 L 234.1,152.4 L 239.6,150.2 L 245.0,148.0 L 250.5,145.8 L 256.0,143.7 L 261.5,141.6 L 266.9,139.6 L 272.4,137.6 L 277.9,135.6 L 283.3,133.7 L 288.8,131.8 L 294.3,130.0 L 299.7,128.2 L 305.2,126.4 L 310.7,124.7 L 316.1,123.0 L 321.6,121.4 L 327.1,119.8 L 332.6,118.2 L 338.0,116.7 L 343.5,115.2 L 349.0,113.7 L 354.4,112.3 L 359.9,110.9 L 365.4,109.5 L 370.8,108.2 L 376.3,106.9 L 381.8,105.7 L 387.3,104.5 L 392.7,103.3 L 398.2,102.1 L 403.7,101.0 L 409.1,99.9 L 414.6,98.9 L 420.1,97.8 L 425.5,96.8 L 431.0,95.9 L 436.5,95.0 L 442.0,94.1 L 447.4,93.2 L 452.9,92.4 L 458.4,91.6 L 463.8,90.8 L 469.3,90.0 L 474.8,89.3 L 480.3,88.6 L 485.7,88.0 L 491.2,87.4 L 496.7,86.8 L 502.1,86.2 L 507.6,85.7 L 513.1,85.1 L 518.5,84.7 L 524.0,84.2 L 529.5,83.8 L 535.0,83.4 L 540.4,83.0 L 545.9,82.7 L 551.4,82.4 L 556.8,82.3 L 562.3,82.4 L 567.8,82.8 L 573.2,83.4 L 578.7,84.2 L 584.2,85.3 L 589.7,86.6 L 595.1,88.0 L 600.6,89.5 L 606.1,90.9 L 611.5,92.3 L 617.0,93.6" class="nt"/>
<path d="M 74.6,348.3 L 79.1,335.0 L 83.7,321.1 L 88.2,307.7 L 92.8,295.0 L 97.3,282.9 L 101.9,271.4 L 106.5,260.4 L 111.0,249.9 L 115.6,240.0 L 120.1,230.5 L 124.7,221.5 L 129.3,213.0 L 133.8,204.9 L 138.4,197.3 L 142.9,190.2 L 147.5,183.5 L 152.1,177.3 L 156.6,171.5 L 161.2,166.2 L 165.7,161.3 L 170.3,157.0 L 174.8,153.1 L 179.4,149.8 L 184.0,147.0 L 188.5,144.7 L 193.1,143.0 L 197.6,141.8 L 202.2,141.0 L 206.8,140.5 L 211.3,140.1 L 215.9,139.7 L 220.4,139.2 L 225.0,138.7 L 229.5,138.0 L 234.1,137.2 L 238.7,136.3 L 243.2,135.4 L 247.8,134.4 L 252.3,133.3 L 256.9,132.2 L 261.5,131.1 L 266.0,130.0 L 270.6,128.9 L 275.1,127.7 L 279.7,126.6 L 284.2,125.4 L 288.8,124.3 L 293.4,123.2 L 297.9,122.1 L 302.5,121.0 L 307.0,120.0 L 311.6,119.0 L 316.1,118.0 L 320.7,117.0 L 325.3,116.1 L 329.8,115.2 L 334.4,114.3 L 338.9,113.5 L 343.5,112.7 L 348.1,111.9 L 352.6,111.2 L 357.2,110.5 L 361.7,109.9 L 366.3,109.3 L 370.9,108.7 L 375.4,108.2 L 380.0,107.7 L 384.5,107.2 L 389.1,106.8 L 393.6,106.5 L 398.2,106.1 L 402.8,105.9 L 407.3,105.6 L 411.9,105.4 L 416.4,105.2 L 421.0,105.1 L 425.6,105.0 L 430.1,104.9 L 434.7,104.8 L 439.2,104.8 L 443.8,104.9 L 448.3,104.9 L 452.9,105.0 L 457.5,105.1 L 462.0,105.2 L 466.6,105.3 L 471.1,105.4 L 475.7,105.6 L 480.3,105.7 L 484.8,105.8 L 489.4,105.9 L 493.9,106.0 L 498.5,106.1 L 503.0,106.1 L 507.6,106.0 L 512.2,105.9 L 516.7,105.6 L 521.3,105.2 L 525.8,104.8 L 530.4,104.2 L 535.0,103.5 L 539.5,102.9 L 544.1,102.4 L 548.6,102.3 L 553.2,102.9 L 557.7,104.2 L 562.3,106.6 L 566.9,109.8 L 571.4,114.0 L 576.0,118.8 L 580.5,124.1 L 585.1,129.8 L 589.7,135.5 L 594.2,141.1 L 598.8,146.5 L 603.3,151.6 L 607.9,156.5 L 612.4,161.0 L 617.0,165.2" class="fw"/>
<line x1="119.00" y1="213.88" x2="119.00" y2="253.70" class="err"/>
<line x1="116.00" y1="213.88" x2="122.00" y2="213.88" class="err"/>
<line x1="116.00" y1="253.70" x2="122.00" y2="253.70" class="err"/>
<circle cx="119.00" cy="233.79" r="2.5" class="obs"/>
<line x1="168.57" y1="143.36" x2="168.57" y2="176.94" class="err"/>
<line x1="165.57" y1="143.36" x2="171.57" y2="143.36" class="err"/>
<line x1="165.57" y1="176.94" x2="171.57" y2="176.94" class="err"/>
<circle cx="168.57" cy="160.15" r="2.5" class="obs"/>
<line x1="217.57" y1="125.13" x2="217.57" y2="154.87" class="err"/>
<line x1="214.57" y1="125.13" x2="220.57" y2="125.13" class="err"/>
<line x1="214.57" y1="154.87" x2="220.57" y2="154.87" class="err"/>
<circle cx="217.57" cy="140.00" r="2.5" class="obs"/>
<line x1="266.57" y1="115.77" x2="266.57" y2="140.72" class="err"/>
<line x1="263.57" y1="115.77" x2="269.57" y2="115.77" class="err"/>
<line x1="263.57" y1="140.72" x2="269.57" y2="140.72" class="err"/>
<circle cx="266.57" cy="128.25" r="2.5" class="obs"/>
<line x1="315.57" y1="105.46" x2="315.57" y2="130.41" class="err"/>
<line x1="312.57" y1="105.46" x2="318.57" y2="105.46" class="err"/>
<line x1="312.57" y1="130.41" x2="318.57" y2="130.41" class="err"/>
<circle cx="315.57" cy="117.93" r="2.5" class="obs"/>
<line x1="364.85" y1="95.86" x2="364.85" y2="120.81" class="err"/>
<line x1="361.85" y1="95.86" x2="367.85" y2="95.86" class="err"/>
<line x1="361.85" y1="120.81" x2="367.85" y2="120.81" class="err"/>
<circle cx="364.85" cy="108.34" r="2.5" class="obs"/>
<line x1="413.29" y1="91.07" x2="413.29" y2="116.01" class="err"/>
<line x1="410.29" y1="91.07" x2="416.29" y2="91.07" class="err"/>
<line x1="410.29" y1="116.01" x2="416.29" y2="116.01" class="err"/>
<circle cx="413.29" cy="103.54" r="2.5" class="obs"/>
<line x1="462.57" y1="88.19" x2="462.57" y2="123.69" class="err"/>
<line x1="459.57" y1="88.19" x2="465.57" y2="88.19" class="err"/>
<line x1="459.57" y1="123.69" x2="465.57" y2="123.69" class="err"/>
<circle cx="462.57" cy="105.94" r="2.5" class="obs"/>
<line x1="511.57" y1="88.19" x2="511.57" y2="123.69" class="err"/>
<line x1="508.57" y1="88.19" x2="514.57" y2="88.19" class="err"/>
<line x1="508.57" y1="123.69" x2="514.57" y2="123.69" class="err"/>
<circle cx="511.57" cy="105.94" r="2.5" class="obs"/>
<line x1="537.76" y1="88.19" x2="537.76" y2="123.69" class="err"/>
<line x1="534.76" y1="88.19" x2="540.76" y2="88.19" class="err"/>
<line x1="534.76" y1="123.69" x2="540.76" y2="123.69" class="err"/>
<circle cx="537.76" cy="105.94" r="2.5" class="obs"/>
<g class="legend">
<line x1="82" y1="69" x2="106" y2="69" class="fw"/>
<text x="112" y="73" class="lbl-l">framework fit</text>
<line x1="82" y1="87" x2="106" y2="87" class="nt"/>
<text x="112" y="91" class="lbl-l">Newtonian (no halo)</text>
<circle cx="94" cy="105" r="2.5" class="obs"/>
<text x="112" y="109" class="lbl">observed V±err</text>
</g>
<g class="legend">
<line x1="442" y1="69" x2="466" y2="69" class="rho"/>
<text x="472" y="73" class="lbl-r">ρ(r) raw</text>
<line x1="442" y1="87" x2="466" y2="87" class="sig"/>
<text x="472" y="91" class="lbl-s">Σ(r) cumulative</text>
<text x="442" y="113" class="lbl-r">ρ peak: 168 M☉/pc²</text>
</g>
<rect x="705" y="55" width="170" height="170" class="preview-bg"/>
<defs><radialGradient id="g_UGC06930" cx="0.5" cy="0.5" r="0.5">
  <stop offset="0.0000" stop-color="rgb(82,82,82)"/>
  <stop offset="0.0313" stop-color="rgb(76,76,76)"/>
  <stop offset="0.0625" stop-color="rgb(73,73,73)"/>
  <stop offset="0.0938" stop-color="rgb(71,71,71)"/>
  <stop offset="0.1250" stop-color="rgb(69,69,69)"/>
  <stop offset="0.1563" stop-color="rgb(67,67,67)"/>
  <stop offset="0.1875" stop-color="rgb(65,65,65)"/>
  <stop offset="0.2188" stop-color="rgb(61,61,61)"/>
  <stop offset="0.2500" stop-color="rgb(55,55,55)"/>
  <stop offset="0.2813" stop-color="rgb(54,54,54)"/>
  <stop offset="0.3125" stop-color="rgb(52,52,52)"/>
  <stop offset="0.3438" stop-color="rgb(51,51,51)"/>
  <stop offset="0.3750" stop-color="rgb(49,49,49)"/>
  <stop offset="0.4063" stop-color="rgb(48,48,48)"/>
  <stop offset="0.4375" stop-color="rgb(46,46,46)"/>
  <stop offset="0.4688" stop-color="rgb(45,45,45)"/>
  <stop offset="0.5000" stop-color="rgb(43,43,43)"/>
  <stop offset="0.5313" stop-color="rgb(42,42,42)"/>
  <stop offset="0.5625" stop-color="rgb(40,40,40)"/>
  <stop offset="0.5938" stop-color="rgb(39,39,39)"/>
  <stop offset="0.6250" stop-color="rgb(37,37,37)"/>
  <stop offset="0.6563" stop-color="rgb(36,36,36)"/>
  <stop offset="0.6875" stop-color="rgb(34,34,34)"/>
  <stop offset="0.7188" stop-color="rgb(33,33,33)"/>
  <stop offset="0.7500" stop-color="rgb(31,31,31)"/>
  <stop offset="0.7813" stop-color="rgb(30,30,30)"/>
  <stop offset="0.8125" stop-color="rgb(28,28,28)"/>
  <stop offset="0.8438" stop-color="rgb(27,27,27)"/>
  <stop offset="0.8750" stop-color="rgb(25,25,25)"/>
  <stop offset="0.9063" stop-color="rgb(24,24,24)"/>
  <stop offset="0.9375" stop-color="rgb(18,18,18)"/>
  <stop offset="0.9688" stop-color="rgb(9,9,9)"/>
  <stop offset="1.0000" stop-color="rgb(0,0,0)"/>
</radialGradient></defs>
<circle cx="790" cy="140" r="81" fill="url(#g_UGC06930)"/>
<text x="790" y="49" text-anchor="middle" class="preview-lbl">face-on luminance from ρ(r)</text>
<text x="790" y="239" text-anchor="middle" class="preview-lbl">edge at r = 18.5 kpc</text>
</svg>