<svg xmlns="http://www.w3.org/2000/svg" viewBox="0 0 890 420" width="890" height="420" font-family="sans-serif" font-size="12">
<style>
  .ax { stroke: #333; stroke-width: 1; fill: none; }
  .grid { stroke: #ddd; stroke-width: 0.5; fill: none; }
  .lbl { fill: #333; }
  .lbl-l { fill: #0066cc; }
  .lbl-r { fill: #b03030; }
  .obs { fill: #222; }
  .err { stroke: #555; stroke-width: 0.8; fill: none; }
  .fw { stroke: #0066cc; stroke-width: 2.2; fill: none; }
  .nt { stroke: #cc6600; stroke-width: 1.6; fill: none; stroke-dasharray: 5,3; }
  .lbl-s { fill: #cc7000; }
  .rho { stroke: #b03030; stroke-width: 2.0; fill: none; }
  .sig { stroke: #cc7000; stroke-width: 1.8; fill: none; }
  .title { fill: #111; font-size: 16px; font-weight: 600; }
  .subtitle { fill: #555; font-size: 11px; }
  .preview-bg { fill: #000; }
  .preview-lbl { fill: #888; font-size: 10px; }
  .legend { font-size: 11px; }
</style>
<text x="343.5" y="22" text-anchor="middle" class="title">UGC06983</text>
<text x="343.5" y="38" text-anchor="middle" class="subtitle">rMax=15.7 kpc, N=17, RMS=1.3 km/s (1.3%), amp=105</text>
<line x1="70" y1="365.0" x2="617" y2="365.0" class="grid"/>
<text x="64" y="369.0" text-anchor="end" class="lbl-l">0</text>
<line x1="70" y1="303.0" x2="617" y2="303.0" class="grid"/>
<text x="64" y="307.0" text-anchor="end" class="lbl-l">27</text>
<line x1="70" y1="241.0" x2="617" y2="241.0" class="grid"/>
<text x="64" y="245.0" text-anchor="end" class="lbl-l">54</text>
<line x1="70" y1="179.0" x2="617" y2="179.0" class="grid"/>
<text x="64" y="183.0" text-anchor="end" class="lbl-l">80</text>
<line x1="70" y1="117.0" x2="617" y2="117.0" class="grid"/>
<text x="64" y="121.0" text-anchor="end" class="lbl-l">107</text>
<line x1="70" y1="55.0" x2="617" y2="55.0" class="grid"/>
<text x="64" y="59.0" text-anchor="end" class="lbl-l">134</text>
<text x="623" y="369.0" text-anchor="start" class="lbl-r">0.0</text>
<text x="623" y="327.7" text-anchor="start" class="lbl-r">0.2</text>
<text x="623" y="286.3" text-anchor="start" class="lbl-r">0.4</text>
<text x="623" y="245.0" text-anchor="start" class="lbl-r">0.6</text>
<text x="623" y="203.7" text-anchor="start" class="lbl-r">0.8</text>
<text x="623" y="162.3" text-anchor="start" class="lbl-r">1.0</text>
<line x1="70.0" y1="55" x2="70.0" y2="365" class="grid"/>
<text x="70.0" y="381" text-anchor="middle" class="lbl">0.0</text>
<line x1="161.2" y1="55" x2="161.2" y2="365" class="grid"/>
<text x="161.2" y="381" text-anchor="middle" class="lbl">2.8</text>
<line x1="252.3" y1="55" x2="252.3" y2="365" class="grid"/>
<text x="252.3" y="381" text-anchor="middle" class="lbl">5.7</text>
<line x1="343.5" y1="55" x2="343.5" y2="365" class="grid"/>
<text x="343.5" y="381" text-anchor="middle" class="lbl">8.5</text>
<line x1="434.7" y1="55" x2="434.7" y2="365" class="grid"/>
<text x="434.7" y="381" text-anchor="middle" class="lbl">11.4</text>
<line x1="525.8" y1="55" x2="525.8" y2="365" class="grid"/>
<text x="525.8" y="381" text-anchor="middle" class="lbl">14.2</text>
<line x1="617.0" y1="55" x2="617.0" y2="365" class="grid"/>
<text x="617.0" y="381" text-anchor="middle" class="lbl">17.1</text>
<text x="343.5" y="408" text-anchor="middle" class="lbl">radius (kpc)</text>
<text x="16" y="210" text-anchor="middle" class="lbl-l" transform="rotate(-90, 16, 210)">velocity (km/s)</text>
<text x="654" y="210" text-anchor="middle" class="lbl-r" transform="rotate(-90, 654, 210)">mass profile (normalized to peak)</text>
<rect x="70" y="55" width="547" height="310" class="ax"/>
<path d="M 70.0,158.3 L 72.5,158.3 L 75.0,158.3 L 77.5,158.3 L 80.0,158.3 L 82.5,158.3 L 85.0,158.3 L 87.5,158.3 L 90.0,158.3 L 92.5,158.3 L 95.0,158.3 L 97.5,158.3 L 100.0,158.3 L 102.5,158.3 L 105.0,158.3 L 107.5,158.3 L 110.0,158.3 L 112.5,158.3 L 115.0,158.3 L 117.5,158.3 L 120.0,158.3 L 122.5,158.3 L 124.9,158.3 L 127.4,158.3 L 129.9,158.3 L 132.4,158.3 L 134.9,158.3 L 137.4,158.3 L 139.9,158.3 L 142.4,158.3 L 144.9,158.3 L 147.4,162.7 L 149.9,172.0 L 152.4,181.3 L 154.9,190.5 L 157.4,199.8 L 159.9,209.0 L 162.4,212.3 L 164.9,215.5 L 167.4,218.8 L 169.9,222.0 L 172.4,224.3 L 174.9,224.9 L 177.4,225.4 L 179.9,226.0 L 182.4,226.6 L 184.9,227.1 L 187.4,227.7 L 189.9,228.3 L 192.4,228.8 L 194.9,229.4 L 197.4,230.0 L 199.9,230.6 L 202.4,231.1 L 204.9,231.7 L 207.4,232.3 L 209.9,232.8 L 212.4,233.4 L 214.9,234.0 L 217.4,234.5 L 219.9,235.1 L 222.4,235.7 L 224.9,236.2 L 227.4,236.8 L 229.9,237.4 L 232.4,238.0 L 234.8,238.5 L 237.3,239.1 L 239.8,239.7 L 242.3,240.2 L 244.8,240.8 L 247.3,241.4 L 249.8,241.9 L 252.3,242.5 L 254.8,243.1 L 257.3,243.7 L 259.8,244.2 L 262.3,244.8 L 264.8,245.4 L 267.3,245.9 L 269.8,246.5 L 272.3,247.1 L 274.8,247.6 L 277.3,248.2 L 279.8,248.8 L 282.3,249.3 L 284.8,249.9 L 287.3,250.5 L 289.8,251.1 L 292.3,251.6 L 294.8,252.2 L 297.3,252.8 L 299.8,253.3 L 302.3,253.9 L 304.8,254.5 L 307.3,255.0 L 309.8,255.6 L 312.3,256.2 L 314.8,256.7 L 317.3,257.3 L 319.8,257.9 L 322.3,258.5 L 324.8,259.0 L 327.3,259.6 L 329.8,260.2 L 332.3,260.7 L 334.8,261.3 L 337.3,261.9 L 339.8,262.4 L 342.3,263.0 L 344.7,263.6 L 347.2,264.1 L 349.7,264.7 L 352.2,265.3 L 354.7,265.9 L 357.2,266.4 L 359.7,267.0 L 362.2,267.6 L 364.7,268.1 L 367.2,268.7 L 369.7,269.3 L 372.2,269.8 L 374.7,270.4 L 377.2,271.0 L 379.7,271.6 L 382.2,272.1 L 384.7,272.7 L 387.2,273.3 L 389.7,273.8 L 392.2,274.4 L 394.7,275.0 L 397.2,275.5 L 399.7,276.1 L 402.2,276.7 L 404.7,277.2 L 407.2,277.8 L 409.7,278.4 L 412.2,279.0 L 414.7,279.5 L 417.2,280.1 L 419.7,280.7 L 422.2,281.2 L 424.7,281.8 L 427.2,282.4 L 429.7,282.9 L 432.2,283.5 L 434.7,284.1 L 437.2,284.6 L 439.7,285.2 L 442.2,285.8 L 444.7,286.4 L 447.2,286.9 L 449.7,287.5 L 452.2,288.1 L 454.6,288.6 L 457.1,289.2 L 459.6,289.8 L 462.1,290.3 L 464.6,290.9 L 467.1,291.5 L 469.6,292.1 L 472.1,292.6 L 474.6,293.2 L 477.1,293.8 L 479.6,294.3 L 482.1,294.9 L 484.6,295.5 L 487.1,296.0 L 489.6,296.6 L 492.1,297.2 L 494.6,297.7 L 497.1,298.3 L 499.6,298.9 L 502.1,299.5 L 504.6,300.0 L 507.1,300.6 L 509.6,301.2 L 512.1,301.7 L 514.6,302.3 L 517.1,302.9 L 519.6,303.4 L 522.1,304.0 L 524.6,304.6 L 527.1,305.1 L 529.6,305.7 L 532.1,306.3 L 534.6,306.9 L 537.1,307.4 L 539.6,308.0 L 542.1,308.6 L 544.6,309.1 L 547.1,309.7 L 549.6,310.3 L 552.1,310.8 L 554.6,311.4 L 557.1,312.0 L 559.6,312.6 L 562.1,313.1 L 564.5,313.7 L 567.0,314.3 L 569.5,314.8 L 572.0,318.6 L 574.5,324.7 L 577.0,330.8 L 579.5,337.0 L 582.0,343.1 L 584.5,349.2 L 587.0,355.4 L 589.5,361.5 L 592.0,365.0 L 594.5,365.0 L 597.0,365.0 L 599.5,365.0 L 602.0,365.0 L 604.5,365.0 L 607.0,365.0 L 609.5,365.0 L 612.0,365.0 L 614.5,365.0 L 617.0,365.0" class="rho"/>
<path d="M 70.0,158.3 L 72.5,158.4 L 75.0,158.5 L 77.5,158.6 L 80.0,158.8 L 82.5,159.0 L 85.0,159.3 L 87.5,159.6 L 90.0,160.0 L 92.5,160.5 L 95.0,160.9 L 97.5,161.5 L 100.0,162.1 L 102.5,162.8 L 105.0,163.5 L 107.5,164.2 L 110.0,165.1 L 112.5,166.0 L 115.0,166.9 L 117.5,167.9 L 120.0,169.0 L 122.5,170.1 L 124.9,171.3 L 127.4,172.6 L 129.9,173.9 L 132.4,175.3 L 134.9,176.8 L 137.4,178.4 L 139.9,180.0 L 142.4,181.6 L 144.9,183.4 L 147.4,185.1 L 149.9,186.9 L 152.4,188.8 L 154.9,190.6 L 157.4,192.5 L 159.9,194.3 L 162.4,196.2 L 164.9,198.0 L 167.4,199.8 L 169.9,201.6 L 172.4,203.3 L 174.9,205.0 L 177.4,206.6 L 179.9,208.2 L 182.4,209.8 L 184.9,211.3 L 187.4,212.8 L 189.9,214.3 L 192.4,215.7 L 194.9,217.1 L 197.4,218.5 L 199.9,219.9 L 202.4,221.2 L 204.9,222.5 L 207.4,223.8 L 209.9,225.0 L 212.4,226.3 L 214.9,227.5 L 217.4,228.7 L 219.9,229.9 L 222.4,231.1 L 224.9,232.3 L 227.4,233.4 L 229.9,234.6 L 232.4,235.7 L 234.8,236.8 L 237.3,237.9 L 239.8,239.0 L 242.3,240.1 L 244.8,241.2 L 247.3,242.3 L 249.8,243.3 L 252.3,244.4 L 254.8,245.4 L 257.3,246.5 L 259.8,247.5 L 262.3,248.5 L 264.8,249.6 L 267.3,250.6 L 269.8,251.6 L 272.3,252.6 L 274.8,253.6 L 277.3,254.5 L 279.8,255.5 L 282.3,256.5 L 284.8,257.5 L 287.3,258.4 L 289.8,259.4 L 292.3,260.3 L 294.8,261.3 L 297.3,262.2 L 299.8,263.1 L 302.3,264.1 L 304.8,265.0 L 307.3,265.9 L 309.8,266.8 L 312.3,267.7 L 314.8,268.6 L 317.3,269.5 L 319.8,270.4 L 322.3,271.3 L 324.8,272.2 L 327.3,273.1 L 329.8,273.9 L 332.3,274.8 L 334.8,275.7 L 337.3,276.5 L 339.8,277.4 L 342.3,278.2 L 344.7,279.1 L 347.2,279.9 L 349.7,280.8 L 352.2,281.6 L 354.7,282.4 L 357.2,283.2 L 359.7,284.0 L 362.2,284.9 L 364.7,285.7 L 367.2,286.5 L 369.7,287.3 L 372.2,288.1 L 374.7,288.8 L 377.2,289.6 L 379.7,290.4 L 382.2,291.2 L 384.7,292.0 L 387.2,292.7 L 389.7,293.5 L 392.2,294.2 L 394.7,295.0 L 397.2,295.7 L 399.7,296.5 L 402.2,297.2 L 404.7,297.9 L 407.2,298.7 L 409.7,299.4 L 412.2,300.1 L 414.7,300.8 L 417.2,301.5 L 419.7,302.2 L 422.2,302.9 L 424.7,303.6 L 427.2,304.3 L 429.7,305.0 L 432.2,305.7 L 434.7,306.4 L 437.2,307.0 L 439.7,307.7 L 442.2,308.4 L 444.7,309.0 L 447.2,309.7 L 449.7,310.3 L 452.2,311.0 L 454.6,311.6 L 457.1,312.2 L 459.6,312.9 L 462.1,313.5 L 464.6,314.1 L 467.1,314.7 L 469.6,315.3 L 472.1,316.0 L 474.6,316.6 L 477.1,317.2 L 479.6,317.7 L 482.1,318.3 L 484.6,318.9 L 487.1,319.5 L 489.6,320.1 L 492.1,320.6 L 494.6,321.2 L 497.1,321.8 L 499.6,322.3 L 502.1,322.9 L 504.6,323.4 L 507.1,324.0 L 509.6,324.5 L 512.1,325.1 L 514.6,325.6 L 517.1,326.1 L 519.6,326.7 L 522.1,327.2 L 524.6,327.7 L 527.1,328.2 L 529.6,328.7 L 532.1,329.2 L 534.6,329.8 L 537.1,330.3 L 539.6,330.8 L 542.1,331.3 L 544.6,331.8 L 547.1,332.3 L 549.6,332.7 L 552.1,333.2 L 554.6,333.7 L 557.1,334.2 L 559.6,334.7 L 562.1,335.2 L 564.5,335.7 L 567.0,336.1 L 569.5,336.6 L 572.0,337.1 L 574.5,337.5 L 577.0,338.0 L 579.5,338.4 L 582.0,338.9 L 584.5,339.3 L 587.0,339.7 L 589.5,340.1 L 592.0,340.5 L 594.5,340.9 L 597.0,341.3 L 599.5,341.7 L 602.0,342.0 L 604.5,342.4 L 607.0,342.7 L 609.5,343.0 L 612.0,343.3 L 614.5,343.6 L 617.0,343.9" class="sig"/>
<path d="M 75.5,320.3 L 80.9,301.7 L 86.4,287.5 L 91.9,275.5 L 97.3,265.0 L 102.8,255.4 L 108.3,246.7 L 113.8,238.5 L 119.2,230.8 L 124.7,223.6 L 130.2,216.6 L 135.6,210.1 L 141.1,203.7 L 146.6,197.6 L 152.1,192.4 L 157.5,188.3 L 163.0,185.2 L 168.5,182.5 L 173.9,180.0 L 179.4,177.5 L 184.9,175.0 L 190.3,172.5 L 195.8,170.0 L 201.3,167.5 L 206.8,165.1 L 212.2,162.6 L 217.7,160.3 L 223.2,157.9 L 228.6,155.6 L 234.1,153.3 L 239.6,151.1 L 245.0,148.9 L 250.5,146.7 L 256.0,144.6 L 261.5,142.5 L 266.9,140.4 L 272.4,138.5 L 277.9,136.5 L 283.3,134.6 L 288.8,132.7 L 294.3,130.9 L 299.7,129.1 L 305.2,127.3 L 310.7,125.6 L 316.1,123.9 L 321.6,122.3 L 327.1,120.7 L 332.6,119.1 L 338.0,117.6 L 343.5,116.1 L 349.0,114.7 L 354.4,113.3 L 359.9,111.9 L 365.4,110.5 L 370.9,109.2 L 376.3,108.0 L 381.8,106.7 L 387.3,105.5 L 392.7,104.4 L 398.2,103.2 L 403.7,102.1 L 409.1,101.1 L 414.6,100.0 L 420.1,99.0 L 425.5,98.0 L 431.0,97.1 L 436.5,96.2 L 442.0,95.3 L 447.4,94.5 L 452.9,93.7 L 458.4,92.9 L 463.8,92.1 L 469.3,91.4 L 474.8,90.7 L 480.3,90.0 L 485.7,89.4 L 491.2,88.8 L 496.7,88.2 L 502.1,87.7 L 507.6,87.1 L 513.1,86.7 L 518.5,86.2 L 524.0,85.8 L 529.5,85.4 L 535.0,85.0 L 540.4,84.6 L 545.9,84.3 L 551.4,84.0 L 556.8,83.8 L 562.3,83.5 L 567.8,83.3 L 573.2,83.2 L 578.7,83.5 L 584.2,84.2 L 589.7,85.3 L 595.1,86.7 L 600.6,88.2 L 606.1,89.6 L 611.5,91.0 L 617.0,92.4" class="nt"/>
<path d="M 74.6,352.9 L 79.1,343.5 L 83.7,332.9 L 88.2,322.2 L 92.8,311.3 L 97.3,300.4 L 101.9,289.3 L 106.5,278.0 L 111.0,266.5 L 115.6,254.8 L 120.1,242.9 L 124.7,230.8 L 129.3,218.5 L 133.8,206.2 L 138.4,194.2 L 142.9,183.0 L 147.5,172.9 L 152.1,164.5 L 156.6,158.0 L 161.2,153.5 L 165.7,150.7 L 170.3,149.3 L 174.8,148.8 L 179.4,148.8 L 184.0,149.0 L 188.5,149.2 L 193.1,149.3 L 197.6,149.3 L 202.2,149.0 L 206.8,148.6 L 211.3,148.0 L 215.9,147.3 L 220.4,146.5 L 225.0,145.6 L 229.5,144.6 L 234.1,143.5 L 238.7,142.3 L 243.2,141.2 L 247.8,139.9 L 252.3,138.7 L 256.9,137.5 L 261.5,136.2 L 266.0,134.9 L 270.6,133.7 L 275.1,132.4 L 279.7,131.2 L 284.2,129.9 L 288.8,128.7 L 293.4,127.5 L 297.9,126.4 L 302.5,125.2 L 307.0,124.1 L 311.6,123.0 L 316.1,122.0 L 320.7,121.0 L 325.3,120.0 L 329.8,119.0 L 334.4,118.1 L 338.9,117.3 L 343.5,116.4 L 348.1,115.7 L 352.6,114.9 L 357.2,114.2 L 361.7,113.6 L 366.3,112.9 L 370.9,112.4 L 375.4,111.8 L 380.0,111.3 L 384.5,110.9 L 389.1,110.5 L 393.6,110.1 L 398.2,109.8 L 402.8,109.5 L 407.3,109.2 L 411.9,109.0 L 416.4,108.9 L 421.0,108.8 L 425.6,108.7 L 430.1,108.7 L 434.7,108.7 L 439.2,108.7 L 443.8,108.8 L 448.3,108.9 L 452.9,109.1 L 457.5,109.2 L 462.0,109.5 L 466.6,109.7 L 471.1,110.0 L 475.7,110.3 L 480.3,110.6 L 484.8,111.0 L 489.4,111.3 L 493.9,111.7 L 498.5,112.0 L 503.0,112.4 L 507.6,112.8 L 512.2,113.1 L 516.7,113.5 L 521.3,113.7 L 525.8,114.0 L 530.4,114.1 L 534.9,114.2 L 539.5,114.2 L 544.1,114.2 L 548.6,114.0 L 553.2,113.8 L 557.7,113.6 L 562.3,113.7 L 566.9,114.1 L 571.4,115.2 L 576.0,117.2 L 580.5,120.1 L 585.1,123.9 L 589.7,128.4 L 594.2,133.4 L 598.8,138.6 L 603.3,143.9 L 607.9,148.9 L 612.4,153.8 L 617.0,158.4" class="fw"/>
<line x1="125.81" y1="218.24" x2="125.81" y2="248.74" class="err"/>
<line x1="122.81" y1="218.24" x2="128.81" y2="218.24" class="err"/>
<line x1="122.81" y1="248.74" x2="128.81" y2="248.74" class="err"/>
<circle cx="125.81" cy="233.49" r="2.5" class="obs"/>
<line x1="153.71" y1="151.90" x2="153.71" y2="174.09" class="err"/>
<line x1="150.71" y1="151.90" x2="156.71" y2="151.90" class="err"/>
<line x1="150.71" y1="174.09" x2="156.71" y2="174.09" class="err"/>
<circle cx="153.71" cy="163.00" r="2.5" class="obs"/>
<line x1="182.25" y1="138.96" x2="182.25" y2="165.31" class="err"/>
<line x1="179.25" y1="138.96" x2="185.25" y2="138.96" class="err"/>
<line x1="179.25" y1="165.31" x2="185.25" y2="165.31" class="err"/>
<circle cx="182.25" cy="152.13" r="2.5" class="obs"/>
<line x1="210.15" y1="136.88" x2="210.15" y2="160.92" class="err"/>
<line x1="207.15" y1="136.88" x2="213.15" y2="136.88" class="err"/>
<line x1="207.15" y1="160.92" x2="213.15" y2="160.92" class="err"/>
<circle cx="210.15" cy="148.90" r="2.5" class="obs"/>
<line x1="238.06" y1="127.87" x2="238.06" y2="148.20" class="err"/>
<line x1="235.06" y1="127.87" x2="241.06" y2="127.87" class="err"/>
<line x1="235.06" y1="148.20" x2="241.06" y2="148.20" class="err"/>
<circle cx="238.06" cy="138.04" r="2.5" class="obs"/>
<line x1="265.96" y1="124.40" x2="265.96" y2="144.74" class="err"/>
<line x1="262.96" y1="124.40" x2="268.96" y2="124.40" class="err"/>
<line x1="262.96" y1="144.74" x2="268.96" y2="144.74" class="err"/>
<circle cx="265.96" cy="134.57" r="2.5" class="obs"/>
<line x1="293.86" y1="121.16" x2="293.86" y2="137.34" class="err"/>
<line x1="290.86" y1="121.16" x2="296.86" y2="121.16" class="err"/>
<line x1="290.86" y1="137.34" x2="296.86" y2="137.34" class="err"/>
<circle cx="293.86" cy="129.25" r="2.5" class="obs"/>
<line x1="321.77" y1="107.53" x2="321.77" y2="127.87" class="err"/>
<line x1="318.77" y1="107.53" x2="324.77" y2="107.53" class="err"/>
<line x1="318.77" y1="127.87" x2="324.77" y2="127.87" class="err"/>
<circle cx="321.77" cy="117.70" r="2.5" class="obs"/>
<line x1="349.67" y1="105.22" x2="349.67" y2="125.55" class="err"/>
<line x1="346.67" y1="105.22" x2="352.67" y2="105.22" class="err"/>
<line x1="346.67" y1="125.55" x2="352.67" y2="125.55" class="err"/>
<circle cx="349.67" cy="115.39" r="2.5" class="obs"/>
<line x1="377.89" y1="100.59" x2="377.89" y2="120.93" class="err"/>
<line x1="374.89" y1="100.59" x2="380.89" y2="100.59" class="err"/>
<line x1="374.89" y1="120.93" x2="380.89" y2="120.93" class="err"/>
<circle cx="377.89" cy="110.76" r="2.5" class="obs"/>
<line x1="405.79" y1="93.66" x2="405.79" y2="114.00" class="err"/>
<line x1="402.79" y1="93.66" x2="408.79" y2="93.66" class="err"/>
<line x1="402.79" y1="114.00" x2="408.79" y2="114.00" class="err"/>
<circle cx="405.79" cy="103.83" r="2.5" class="obs"/>
<line x1="434.02" y1="98.74" x2="434.02" y2="122.78" class="err"/>
<line x1="431.02" y1="98.74" x2="437.02" y2="98.74" class="err"/>
<line x1="431.02" y1="122.78" x2="437.02" y2="122.78" class="err"/>
<circle cx="434.02" cy="110.76" r="2.5" class="obs"/>
<line x1="460.96" y1="102.21" x2="460.96" y2="128.56" class="err"/>
<line x1="457.96" y1="102.21" x2="463.96" y2="102.21" class="err"/>
<line x1="457.96" y1="128.56" x2="463.96" y2="128.56" class="err"/>
<circle cx="460.96" cy="115.39" r="2.5" class="obs"/>
<line x1="490.79" y1="93.20" x2="490.79" y2="132.95" class="err"/>
<line x1="487.79" y1="93.20" x2="493.79" y2="93.20" class="err"/>
<line x1="487.79" y1="132.95" x2="493.79" y2="132.95" class="err"/>
<circle cx="490.79" cy="113.07" r="2.5" class="obs"/>
<line x1="517.08" y1="92.74" x2="517.08" y2="138.04" class="err"/>
<line x1="514.08" y1="92.74" x2="520.08" y2="92.74" class="err"/>
<line x1="514.08" y1="138.04" x2="520.08" y2="138.04" class="err"/>
<circle cx="517.08" cy="115.39" r="2.5" class="obs"/>
<line x1="546.59" y1="92.74" x2="546.59" y2="138.04" class="err"/>
<line x1="543.59" y1="92.74" x2="549.59" y2="92.74" class="err"/>
<line x1="543.59" y1="138.04" x2="549.59" y2="138.04" class="err"/>
<circle cx="546.59" cy="115.39" r="2.5" class="obs"/>
<line x1="572.89" y1="84.65" x2="572.89" y2="141.50" class="err"/>
<line x1="569.89" y1="84.65" x2="575.89" y2="84.65" class="err"/>
<line x1="569.89" y1="141.50" x2="575.89" y2="141.50" class="err"/>
<circle cx="572.89" cy="113.07" r="2.5" class="obs"/>
<g class="legend">
<line x1="82" y1="69" x2="106" y2="69" class="fw"/>
<text x="112" y="73" class="lbl-l">framework fit</text>
<line x1="82" y1="87" x2="106" y2="87" class="nt"/>
<text x="112" y="91" class="lbl-l">Newtonian (no halo)</text>
<circle cx="94" cy="105" r="2.5" class="obs"/>
<text x="112" y="109" class="lbl">observed V±err</text>
</g>
<g class="legend">
<line x1="442" y1="69" x2="466" y2="69" class="rho"/>
<text x="472" y="73" class="lbl-r">ρ(r) raw</text>
<line x1="442" y1="87" x2="466" y2="87" class="sig"/>
<text x="472" y="91" class="lbl-s">Σ(r) cumulative</text>
<text x="442" y="113" class="lbl-r">ρ peak: 163 M☉/pc²</text>
</g>
<rect x="705" y="55" width="170" height="170" class="preview-bg"/>
<defs><radialGradient id="g_UGC06983" cx="0.5" cy="0.5" r="0.5">
  <stop offset="0.0000" stop-color="rgb(81,81,81)"/>
  <stop offset="0.0313" stop-color="rgb(81,81,81)"/>
  <stop offset="0.0625" stop-color="rgb(81,81,81)"/>
  <stop offset="0.0938" stop-color="rgb(81,81,81)"/>
  <stop offset="0.1250" stop-color="rgb(81,81,81)"/>
  <stop offset="0.1563" stop-color="rgb(77,77,77)"/>
  <stop offset="0.1875" stop-color="rgb(68,68,68)"/>
  <stop offset="0.2188" stop-color="rgb(66,66,66)"/>
  <stop offset="0.2500" stop-color="rgb(65,65,65)"/>
  <stop offset="0.2813" stop-color="rgb(65,65,65)"/>
  <stop offset="0.3125" stop-color="rgb(64,64,64)"/>
  <stop offset="0.3438" stop-color="rgb(62,62,62)"/>
  <stop offset="0.3750" stop-color="rgb(60,60,60)"/>
  <stop offset="0.4063" stop-color="rgb(58,58,58)"/>
  <stop offset="0.4375" stop-color="rgb(56,56,56)"/>
  <stop offset="0.4688" stop-color="rgb(54,54,54)"/>
  <stop offset="0.5000" stop-color="rgb(52,52,52)"/>
  <stop offset="0.5313" stop-color="rgb(51,51,51)"/>
  <stop offset="0.5625" stop-color="rgb(49,49,49)"/>
  <stop offset="0.5938" stop-color="rgb(47,47,47)"/>
  <stop offset="0.6250" stop-color="rgb(45,45,45)"/>
  <stop offset="0.6563" stop-color="rgb(43,43,43)"/>
  <stop offset="0.6875" stop-color="rgb(41,41,41)"/>
  <stop offset="0.7188" stop-color="rgb(39,39,39)"/>
  <stop offset="0.7500" stop-color="rgb(38,38,38)"/>
  <stop offset="0.7813" stop-color="rgb(36,36,36)"/>
  <stop offset="0.8125" stop-color="rgb(34,34,34)"/>
  <stop offset="0.8438" stop-color="rgb(32,32,32)"/>
  <stop offset="0.8750" stop-color="rgb(30,30,30)"/>
  <stop offset="0.9063" stop-color="rgb(28,28,28)"/>
  <stop offset="0.9375" stop-color="rgb(26,26,26)"/>
  <stop offset="0.9688" stop-color="rgb(20,20,20)"/>
  <stop offset="1.0000" stop-color="rgb(0,0,0)"/>
</radialGradient></defs>
<circle cx="790" cy="140" r="81" fill="url(#g_UGC06983)"/>
<text x="790" y="49" text-anchor="middle" class="preview-lbl">face-on luminance from ρ(r)</text>
<text x="790" y="239" text-anchor="middle" class="preview-lbl">edge at r = 16.2 kpc</text>
</svg>