<svg xmlns="http://www.w3.org/2000/svg" viewBox="0 0 720 420" width="720" height="420" font-family="sans-serif" font-size="12">
<style>
  .ax { stroke: #333; stroke-width: 1; fill: none; }
  .grid { stroke: #ddd; stroke-width: 0.5; fill: none; }
  .lbl { fill: #333; }
  .lbl-l { fill: #0066cc; }
  .lbl-r { fill: #b03030; }
  .obs { fill: #222; }
  .err { stroke: #555; stroke-width: 0.8; fill: none; }
  .fw { stroke: #0066cc; stroke-width: 2.2; fill: none; }
  .nt { stroke: #cc6600; stroke-width: 1.6; fill: none; stroke-dasharray: 5,3; }
  .rho { stroke: #b03030; stroke-width: 2.0; fill: none; }
  .sig { stroke: #b03030; stroke-width: 1.6; fill: none; stroke-dasharray: 4,2; opacity: 0.85; }
  .title { fill: #111; font-size: 16px; font-weight: 600; }
  .subtitle { fill: #555; font-size: 11px; }
  .legend { font-size: 11px; }
</style>
<text x="360.0" y="22" text-anchor="middle" class="title">UGC06983</text>
<text x="360.0" y="38" text-anchor="middle" class="subtitle">rMax=15.7 kpc, N=17, RMS=1.3 km/s (1.3%), amp=105</text>
<line x1="70" y1="365.0" x2="635" y2="365.0" class="grid"/>
<text x="64" y="369.0" text-anchor="end" class="lbl-l">0</text>
<line x1="70" y1="303.0" x2="635" y2="303.0" class="grid"/>
<text x="64" y="307.0" text-anchor="end" class="lbl-l">27</text>
<line x1="70" y1="241.00000000000003" x2="635" y2="241.00000000000003" class="grid"/>
<text x="64" y="245.00000000000003" text-anchor="end" class="lbl-l">54</text>
<line x1="70" y1="179.0" x2="635" y2="179.0" class="grid"/>
<text x="64" y="183.0" text-anchor="end" class="lbl-l">80</text>
<line x1="70" y1="117.00000000000003" x2="635" y2="117.00000000000003" class="grid"/>
<text x="64" y="121.00000000000003" text-anchor="end" class="lbl-l">107</text>
<line x1="70" y1="55.0" x2="635" y2="55.0" class="grid"/>
<text x="64" y="59.0" text-anchor="end" class="lbl-l">134</text>
<text x="641" y="369.0" text-anchor="start" class="lbl-r">0.0</text>
<text x="641" y="327.6666666666667" text-anchor="start" class="lbl-r">0.2</text>
<text x="641" y="286.33333333333337" text-anchor="start" class="lbl-r">0.4</text>
<text x="641" y="245.00000000000003" text-anchor="start" class="lbl-r">0.6</text>
<text x="641" y="203.66666666666666" text-anchor="start" class="lbl-r">0.8</text>
<text x="641" y="162.33333333333334" text-anchor="start" class="lbl-r">1.0</text>
<line x1="70.0" y1="55" x2="70.0" y2="365" class="grid"/>
<text x="70.0" y="381" text-anchor="middle" class="lbl">0.0</text>
<line x1="164.16666666666666" y1="55" x2="164.16666666666666" y2="365" class="grid"/>
<text x="164.16666666666666" y="381" text-anchor="middle" class="lbl">2.8</text>
<line x1="258.3333333333333" y1="55" x2="258.3333333333333" y2="365" class="grid"/>
<text x="258.3333333333333" y="381" text-anchor="middle" class="lbl">5.7</text>
<line x1="352.5" y1="55" x2="352.5" y2="365" class="grid"/>
<text x="352.5" y="381" text-anchor="middle" class="lbl">8.5</text>
<line x1="446.66666666666663" y1="55" x2="446.66666666666663" y2="365" class="grid"/>
<text x="446.66666666666663" y="381" text-anchor="middle" class="lbl">11.4</text>
<line x1="540.8333333333334" y1="55" x2="540.8333333333334" y2="365" class="grid"/>
<text x="540.8333333333334" y="381" text-anchor="middle" class="lbl">14.2</text>
<line x1="635.0" y1="55" x2="635.0" y2="365" class="grid"/>
<text x="635.0" y="381" text-anchor="middle" class="lbl">17.1</text>
<text x="352.5" y="408" text-anchor="middle" class="lbl">radius (kpc)</text>
<text x="16" y="210.0" text-anchor="middle" class="lbl-l" transform="rotate(-90, 16, 210.0)">velocity (km/s)</text>
<text x="704" y="210.0" text-anchor="middle" class="lbl-r" transform="rotate(-90, 704, 210.0)">mass profile (normalized to peak)</text>
<rect x="70" y="55" width="565" height="310" class="ax"/>
<path d="M 70.0,158.3 L 72.6,158.3 L 75.2,158.3 L 77.7,158.3 L 80.3,158.3 L 82.9,158.3 L 85.5,158.3 L 88.1,158.3 L 90.6,158.3 L 93.2,158.3 L 95.8,158.3 L 98.4,158.3 L 101.0,158.3 L 103.5,158.3 L 106.1,158.3 L 108.7,158.3 L 111.3,158.3 L 113.9,158.3 L 116.4,158.3 L 119.0,158.3 L 121.6,158.3 L 124.2,158.3 L 126.8,158.3 L 129.3,158.3 L 131.9,158.3 L 134.5,158.3 L 137.1,158.3 L 139.7,158.3 L 142.2,158.3 L 144.8,158.3 L 147.4,158.3 L 150.0,162.7 L 152.6,172.0 L 155.1,181.3 L 157.7,190.5 L 160.3,199.8 L 162.9,209.0 L 165.5,212.3 L 168.0,215.5 L 170.6,218.8 L 173.2,222.0 L 175.8,224.3 L 178.4,224.9 L 180.9,225.4 L 183.5,226.0 L 186.1,226.6 L 188.7,227.1 L 191.3,227.7 L 193.8,228.3 L 196.4,228.8 L 199.0,229.4 L 201.6,230.0 L 204.2,230.6 L 206.7,231.1 L 209.3,231.7 L 211.9,232.3 L 214.5,232.8 L 217.1,233.4 L 219.6,234.0 L 222.2,234.5 L 224.8,235.1 L 227.4,235.7 L 230.0,236.2 L 232.5,236.8 L 235.1,237.4 L 237.7,238.0 L 240.3,238.5 L 242.9,239.1 L 245.4,239.7 L 248.0,240.2 L 250.6,240.8 L 253.2,241.4 L 255.8,241.9 L 258.3,242.5 L 260.9,243.1 L 263.5,243.7 L 266.1,244.2 L 268.7,244.8 L 271.2,245.4 L 273.8,245.9 L 276.4,246.5 L 279.0,247.1 L 281.6,247.6 L 284.1,248.2 L 286.7,248.8 L 289.3,249.3 L 291.9,249.9 L 294.5,250.5 L 297.0,251.1 L 299.6,251.6 L 302.2,252.2 L 304.8,252.8 L 307.4,253.3 L 309.9,253.9 L 312.5,254.5 L 315.1,255.0 L 317.7,255.6 L 320.3,256.2 L 322.8,256.7 L 325.4,257.3 L 328.0,257.9 L 330.6,258.5 L 333.2,259.0 L 335.7,259.6 L 338.3,260.2 L 340.9,260.7 L 343.5,261.3 L 346.1,261.9 L 348.6,262.4 L 351.2,263.0 L 353.8,263.6 L 356.4,264.1 L 358.9,264.7 L 361.5,265.3 L 364.1,265.9 L 366.7,266.4 L 369.3,267.0 L 371.8,267.6 L 374.4,268.1 L 377.0,268.7 L 379.6,269.3 L 382.2,269.8 L 384.7,270.4 L 387.3,271.0 L 389.9,271.6 L 392.5,272.1 L 395.1,272.7 L 397.6,273.3 L 400.2,273.8 L 402.8,274.4 L 405.4,275.0 L 408.0,275.5 L 410.5,276.1 L 413.1,276.7 L 415.7,277.2 L 418.3,277.8 L 420.9,278.4 L 423.4,279.0 L 426.0,279.5 L 428.6,280.1 L 431.2,280.7 L 433.8,281.2 L 436.3,281.8 L 438.9,282.4 L 441.5,282.9 L 444.1,283.5 L 446.7,284.1 L 449.2,284.6 L 451.8,285.2 L 454.4,285.8 L 457.0,286.4 L 459.6,286.9 L 462.1,287.5 L 464.7,288.1 L 467.3,288.6 L 469.9,289.2 L 472.5,289.8 L 475.0,290.3 L 477.6,290.9 L 480.2,291.5 L 482.8,292.1 L 485.4,292.6 L 487.9,293.2 L 490.5,293.8 L 493.1,294.3 L 495.7,294.9 L 498.3,295.5 L 500.8,296.0 L 503.4,296.6 L 506.0,297.2 L 508.6,297.7 L 511.2,298.3 L 513.7,298.9 L 516.3,299.5 L 518.9,300.0 L 521.5,300.6 L 524.1,301.2 L 526.6,301.7 L 529.2,302.3 L 531.8,302.9 L 534.4,303.4 L 537.0,304.0 L 539.5,304.6 L 542.1,305.1 L 544.7,305.7 L 547.3,306.3 L 549.9,306.9 L 552.4,307.4 L 555.0,308.0 L 557.6,308.6 L 560.2,309.1 L 562.8,309.7 L 565.3,310.3 L 567.9,310.8 L 570.5,311.4 L 573.1,312.0 L 575.7,312.6 L 578.2,313.1 L 580.8,313.7 L 583.4,314.3 L 586.0,314.8 L 588.6,318.6 L 591.1,324.7 L 593.7,330.8 L 596.3,337.0 L 598.9,343.1 L 601.5,349.2 L 604.0,355.4 L 606.6,361.5 L 609.2,365.0 L 611.8,365.0 L 614.4,365.0 L 616.9,365.0 L 619.5,365.0 L 622.1,365.0 L 624.7,365.0 L 627.3,365.0 L 629.8,365.0 L 632.4,365.0 L 635.0,365.0" class="rho"/>
<path d="M 70.0,158.3 L 72.6,158.4 L 75.2,158.5 L 77.7,158.6 L 80.3,158.8 L 82.9,159.0 L 85.5,159.3 L 88.1,159.6 L 90.6,160.0 L 93.2,160.5 L 95.8,160.9 L 98.4,161.5 L 101.0,162.1 L 103.5,162.8 L 106.1,163.5 L 108.7,164.2 L 111.3,165.1 L 113.9,166.0 L 116.4,166.9 L 119.0,167.9 L 121.6,169.0 L 124.2,170.1 L 126.8,171.3 L 129.3,172.6 L 131.9,173.9 L 134.5,175.3 L 137.1,176.8 L 139.7,178.4 L 142.2,180.0 L 144.8,181.6 L 147.4,183.4 L 150.0,185.1 L 152.6,186.9 L 155.1,188.8 L 157.7,190.6 L 160.3,192.5 L 162.9,194.3 L 165.5,196.2 L 168.0,198.0 L 170.6,199.8 L 173.2,201.6 L 175.8,203.3 L 178.4,205.0 L 180.9,206.6 L 183.5,208.2 L 186.1,209.8 L 188.7,211.3 L 191.3,212.8 L 193.8,214.3 L 196.4,215.7 L 199.0,217.1 L 201.6,218.5 L 204.2,219.9 L 206.7,221.2 L 209.3,222.5 L 211.9,223.8 L 214.5,225.0 L 217.1,226.3 L 219.6,227.5 L 222.2,228.7 L 224.8,229.9 L 227.4,231.1 L 230.0,232.3 L 232.5,233.4 L 235.1,234.6 L 237.7,235.7 L 240.3,236.8 L 242.9,237.9 L 245.4,239.0 L 248.0,240.1 L 250.6,241.2 L 253.2,242.3 L 255.8,243.3 L 258.3,244.4 L 260.9,245.4 L 263.5,246.5 L 266.1,247.5 L 268.7,248.5 L 271.2,249.6 L 273.8,250.6 L 276.4,251.6 L 279.0,252.6 L 281.6,253.6 L 284.1,254.5 L 286.7,255.5 L 289.3,256.5 L 291.9,257.5 L 294.5,258.4 L 297.0,259.4 L 299.6,260.3 L 302.2,261.3 L 304.8,262.2 L 307.4,263.1 L 309.9,264.1 L 312.5,265.0 L 315.1,265.9 L 317.7,266.8 L 320.3,267.7 L 322.8,268.6 L 325.4,269.5 L 328.0,270.4 L 330.6,271.3 L 333.2,272.2 L 335.7,273.1 L 338.3,273.9 L 340.9,274.8 L 343.5,275.7 L 346.1,276.5 L 348.6,277.4 L 351.2,278.2 L 353.8,279.1 L 356.4,279.9 L 358.9,280.8 L 361.5,281.6 L 364.1,282.4 L 366.7,283.2 L 369.3,284.0 L 371.8,284.9 L 374.4,285.7 L 377.0,286.5 L 379.6,287.3 L 382.2,288.1 L 384.7,288.8 L 387.3,289.6 L 389.9,290.4 L 392.5,291.2 L 395.1,292.0 L 397.6,292.7 L 400.2,293.5 L 402.8,294.2 L 405.4,295.0 L 408.0,295.7 L 410.5,296.5 L 413.1,297.2 L 415.7,297.9 L 418.3,298.7 L 420.9,299.4 L 423.4,300.1 L 426.0,300.8 L 428.6,301.5 L 431.2,302.2 L 433.8,302.9 L 436.3,303.6 L 438.9,304.3 L 441.5,305.0 L 444.1,305.7 L 446.7,306.4 L 449.2,307.0 L 451.8,307.7 L 454.4,308.4 L 457.0,309.0 L 459.6,309.7 L 462.1,310.3 L 464.7,311.0 L 467.3,311.6 L 469.9,312.2 L 472.5,312.9 L 475.0,313.5 L 477.6,314.1 L 480.2,314.7 L 482.8,315.3 L 485.4,316.0 L 487.9,316.6 L 490.5,317.2 L 493.1,317.7 L 495.7,318.3 L 498.3,318.9 L 500.8,319.5 L 503.4,320.1 L 506.0,320.6 L 508.6,321.2 L 511.2,321.8 L 513.7,322.3 L 516.3,322.9 L 518.9,323.4 L 521.5,324.0 L 524.1,324.5 L 526.6,325.1 L 529.2,325.6 L 531.8,326.1 L 534.4,326.7 L 537.0,327.2 L 539.5,327.7 L 542.1,328.2 L 544.7,328.7 L 547.3,329.2 L 549.9,329.8 L 552.4,330.3 L 555.0,330.8 L 557.6,331.3 L 560.2,331.8 L 562.8,332.3 L 565.3,332.7 L 567.9,333.2 L 570.5,333.7 L 573.1,334.2 L 575.7,334.7 L 578.2,335.2 L 580.8,335.7 L 583.4,336.1 L 586.0,336.6 L 588.6,337.1 L 591.1,337.5 L 593.7,338.0 L 596.3,338.4 L 598.9,338.9 L 601.5,339.3 L 604.0,339.7 L 606.6,340.1 L 609.2,340.5 L 611.8,340.9 L 614.4,341.3 L 616.9,341.7 L 619.5,342.0 L 622.1,342.4 L 624.7,342.7 L 627.3,343.0 L 629.8,343.3 L 632.4,343.6 L 635.0,343.9" class="sig"/>
<path d="M 75.7,320.3 L 81.3,301.7 L 86.9,287.5 L 92.6,275.5 L 98.2,265.0 L 103.9,255.4 L 109.5,246.7 L 115.2,238.5 L 120.8,230.8 L 126.5,223.6 L 132.2,216.6 L 137.8,210.1 L 143.4,203.7 L 149.1,197.6 L 154.8,192.4 L 160.4,188.3 L 166.1,185.2 L 171.7,182.5 L 177.3,180.0 L 183.0,177.5 L 188.7,175.0 L 194.3,172.5 L 200.0,170.0 L 205.6,167.5 L 211.2,165.1 L 216.9,162.6 L 222.6,160.3 L 228.2,157.9 L 233.8,155.6 L 239.5,153.3 L 245.2,151.1 L 250.8,148.9 L 256.5,146.7 L 262.1,144.6 L 267.8,142.5 L 273.4,140.4 L 279.1,138.5 L 284.7,136.5 L 290.4,134.6 L 296.0,132.7 L 301.6,130.9 L 307.3,129.1 L 312.9,127.3 L 318.6,125.6 L 324.2,123.9 L 329.9,122.3 L 335.6,120.7 L 341.2,119.1 L 346.9,117.6 L 352.5,116.1 L 358.1,114.7 L 363.8,113.3 L 369.4,111.9 L 375.1,110.5 L 380.8,109.2 L 386.4,108.0 L 392.0,106.7 L 397.7,105.5 L 403.4,104.4 L 409.0,103.2 L 414.7,102.1 L 420.3,101.1 L 425.9,100.0 L 431.6,99.0 L 437.2,98.0 L 442.9,97.1 L 448.5,96.2 L 454.2,95.3 L 459.8,94.5 L 465.5,93.7 L 471.1,92.9 L 476.8,92.1 L 482.4,91.4 L 488.1,90.7 L 493.8,90.0 L 499.4,89.4 L 505.1,88.8 L 510.7,88.2 L 516.3,87.7 L 522.0,87.1 L 527.7,86.7 L 533.3,86.2 L 539.0,85.8 L 544.6,85.4 L 550.2,85.0 L 555.9,84.6 L 561.5,84.3 L 567.2,84.0 L 572.9,83.8 L 578.5,83.5 L 584.1,83.3 L 589.8,83.2 L 595.5,83.5 L 601.1,84.2 L 606.8,85.3 L 612.4,86.7 L 618.0,88.2 L 623.7,89.6 L 629.4,91.0 L 635.0,92.4" class="nt"/>
<path d="M 74.7,352.9 L 79.4,343.5 L 84.1,332.9 L 88.8,322.2 L 93.5,311.3 L 98.2,300.4 L 103.0,289.3 L 107.7,278.0 L 112.4,266.5 L 117.1,254.8 L 121.8,242.9 L 126.5,230.8 L 131.2,218.5 L 135.9,206.2 L 140.6,194.2 L 145.3,183.0 L 150.0,172.9 L 154.8,164.5 L 159.5,158.0 L 164.2,153.5 L 168.9,150.7 L 173.6,149.3 L 178.3,148.8 L 183.0,148.8 L 187.7,149.0 L 192.4,149.2 L 197.1,149.3 L 201.8,149.3 L 206.5,149.0 L 211.2,148.6 L 216.0,148.0 L 220.7,147.3 L 225.4,146.5 L 230.1,145.6 L 234.8,144.6 L 239.5,143.5 L 244.2,142.3 L 248.9,141.2 L 253.6,139.9 L 258.3,138.7 L 263.0,137.5 L 267.8,136.2 L 272.5,134.9 L 277.2,133.7 L 281.9,132.4 L 286.6,131.2 L 291.3,129.9 L 296.0,128.7 L 300.7,127.5 L 305.4,126.4 L 310.1,125.2 L 314.8,124.1 L 319.5,123.0 L 324.2,122.0 L 329.0,121.0 L 333.7,120.0 L 338.4,119.0 L 343.1,118.1 L 347.8,117.3 L 352.5,116.4 L 357.2,115.7 L 361.9,114.9 L 366.6,114.2 L 371.3,113.6 L 376.0,112.9 L 380.8,112.4 L 385.5,111.8 L 390.2,111.3 L 394.9,110.9 L 399.6,110.5 L 404.3,110.1 L 409.0,109.8 L 413.7,109.5 L 418.4,109.2 L 423.1,109.0 L 427.8,108.9 L 432.5,108.8 L 437.2,108.7 L 442.0,108.7 L 446.7,108.7 L 451.4,108.7 L 456.1,108.8 L 460.8,108.9 L 465.5,109.1 L 470.2,109.2 L 474.9,109.5 L 479.6,109.7 L 484.3,110.0 L 489.0,110.3 L 493.8,110.6 L 498.5,111.0 L 503.2,111.3 L 507.9,111.7 L 512.6,112.0 L 517.3,112.4 L 522.0,112.8 L 526.7,113.1 L 531.4,113.5 L 536.1,113.7 L 540.8,114.0 L 545.5,114.1 L 550.2,114.2 L 555.0,114.2 L 559.7,114.2 L 564.4,114.0 L 569.1,113.8 L 573.8,113.6 L 578.5,113.7 L 583.2,114.1 L 587.9,115.2 L 592.6,117.2 L 597.3,120.1 L 602.0,123.9 L 606.8,128.4 L 611.5,133.4 L 616.2,138.6 L 620.9,143.9 L 625.6,148.9 L 630.3,153.8 L 635.0,158.4" class="fw"/>
<line x1="127.64176992529144" y1="218.23578019729246" x2="127.64176992529144" y2="248.74424793580803" class="err"/>
<line x1="124.64176992529144" y1="218.23578019729246" x2="130.64176992529144" y2="218.23578019729246" class="err"/>
<line x1="124.64176992529144" y1="248.74424793580803" x2="130.64176992529144" y2="248.74424793580803" class="err"/>
<circle cx="127.64176992529144" cy="233.49001406655026" r="2.5" class="obs"/>
<line x1="156.46265488793716" y1="151.90297534158054" x2="156.46265488793716" y2="174.0909518786828" class="err"/>
<line x1="153.46265488793716" y1="151.90297534158054" x2="159.46265488793716" y2="151.90297534158054" class="err"/>
<line x1="153.46265488793716" y1="174.0909518786828" x2="159.46265488793716" y2="174.0909518786828" class="err"/>
<circle cx="156.46265488793716" cy="162.99696361013167" r="2.5" class="obs"/>
<line x1="185.94608893018392" y1="138.95998902827094" x2="185.94608893018392" y2="165.30821116607987" class="err"/>
<line x1="182.94608893018392" y1="138.95998902827094" x2="188.94608893018392" y2="138.95998902827094" class="err"/>
<line x1="182.94608893018392" y1="165.30821116607987" x2="188.94608893018392" y2="165.30821116607987" class="err"/>
<circle cx="185.94608893018392" cy="152.13410009717538" r="2.5" class="obs"/>
<line x1="214.76697389282964" y1="136.8798662279176" x2="214.76697389282964" y2="160.91684080977836" class="err"/>
<line x1="211.76697389282964" y1="136.8798662279176" x2="217.76697389282964" y2="136.8798662279176" class="err"/>
<line x1="211.76697389282964" y1="160.91684080977836" x2="217.76697389282964" y2="160.91684080977836" class="err"/>
<circle cx="214.76697389282964" cy="148.89835351884796" r="2.5" class="obs"/>
<line x1="243.5878588554754" y1="127.8660007597198" x2="243.5878588554754" y2="148.20497925206354" class="err"/>
<line x1="240.5878588554754" y1="127.8660007597198" x2="246.5878588554754" y2="127.8660007597198" class="err"/>
<line x1="240.5878588554754" y1="148.20497925206354" x2="246.5878588554754" y2="148.20497925206354" class="err"/>
<circle cx="243.5878588554754" cy="138.03549000589166" r="2.5" class="obs"/>
<line x1="272.4087438181211" y1="124.39912942579754" x2="272.4087438181211" y2="144.73810791814128" class="err"/>
<line x1="269.4087438181211" y1="124.39912942579754" x2="275.4087438181211" y2="124.39912942579754" class="err"/>
<line x1="269.4087438181211" y1="144.73810791814128" x2="275.4087438181211" y2="144.73810791814128" class="err"/>
<circle cx="272.4087438181211" cy="134.56861867196943" r="2.5" class="obs"/>
<line x1="301.2296287807668" y1="121.16338284747017" x2="301.2296287807668" y2="137.34211573910721" class="err"/>
<line x1="298.2296287807668" y1="121.16338284747017" x2="304.2296287807668" y2="121.16338284747017" class="err"/>
<line x1="298.2296287807668" y1="137.34211573910721" x2="304.2296287807668" y2="137.34211573910721" class="err"/>
<circle cx="301.2296287807668" cy="129.2527492932887" r="2.5" class="obs"/>
<line x1="330.0505137434125" y1="107.52702226737608" x2="330.0505137434125" y2="127.86600075971982" class="err"/>
<line x1="327.0505137434125" y1="107.52702226737608" x2="333.0505137434125" y2="107.52702226737608" class="err"/>
<line x1="327.0505137434125" y1="127.86600075971982" x2="333.0505137434125" y2="127.86600075971982" class="err"/>
<circle cx="330.0505137434125" cy="117.69651151354796" r="2.5" class="obs"/>
<line x1="358.87139870605824" y1="105.21577471142791" x2="358.87139870605824" y2="125.55475320377165" class="err"/>
<line x1="355.87139870605824" y1="105.21577471142791" x2="361.87139870605824" y2="105.21577471142791" class="err"/>
<line x1="355.87139870605824" y1="125.55475320377165" x2="361.87139870605824" y2="125.55475320377165" class="err"/>
<circle cx="358.87139870605824" cy="115.38526395759979" r="2.5" class="obs"/>
<line x1="388.0235582085045" y1="100.59327959953163" x2="388.0235582085045" y2="120.93225809187537" class="err"/>
<line x1="385.0235582085045" y1="100.59327959953163" x2="391.0235582085045" y2="100.59327959953163" class="err"/>
<line x1="385.0235582085045" y1="120.93225809187537" x2="391.0235582085045" y2="120.93225809187537" class="err"/>
<circle cx="388.0235582085045" cy="110.7627688457035" r="2.5" class="obs"/>
<line x1="416.84444317115026" y1="93.65953693168717" x2="416.84444317115026" y2="113.99851542403091" class="err"/>
<line x1="413.84444317115026" y1="93.65953693168717" x2="419.84444317115026" y2="93.65953693168717" class="err"/>
<line x1="413.84444317115026" y1="113.99851542403091" x2="419.84444317115026" y2="113.99851542403091" class="err"/>
<circle cx="416.84444317115026" cy="103.82902617785903" r="2.5" class="obs"/>
<line x1="445.99660267359644" y1="98.74428155477312" x2="445.99660267359644" y2="122.78125613663387" class="err"/>
<line x1="442.99660267359644" y1="98.74428155477312" x2="448.99660267359644" y2="98.74428155477312" class="err"/>
<line x1="442.99660267359644" y1="122.78125613663387" x2="448.99660267359644" y2="122.78125613663387" class="err"/>
<circle cx="445.99660267359644" cy="110.7627688457035" r="2.5" class="obs"/>
<line x1="473.82366401684055" y1="102.21115288869532" x2="473.82366401684055" y2="128.55937502650426" class="err"/>
<line x1="470.82366401684055" y1="102.21115288869532" x2="476.82366401684055" y2="102.21115288869532" class="err"/>
<line x1="470.82366401684055" y1="128.55937502650426" x2="476.82366401684055" y2="128.55937502650426" class="err"/>
<circle cx="473.82366401684055" cy="115.38526395759979" r="2.5" class="obs"/>
<line x1="504.6321962182894" y1="93.19728742049756" x2="504.6321962182894" y2="132.9507453828057" class="err"/>
<line x1="501.6321962182894" y1="93.19728742049756" x2="507.6321962182894" y2="93.19728742049756" class="err"/>
<line x1="501.6321962182894" y1="132.9507453828057" x2="507.6321962182894" y2="132.9507453828057" class="err"/>
<circle cx="504.6321962182894" cy="113.07401640165165" r="2.5" class="obs"/>
<line x1="531.7967084819326" y1="92.73503790930793" x2="531.7967084819326" y2="138.03549000589166" class="err"/>
<line x1="528.7967084819326" y1="92.73503790930793" x2="534.7967084819326" y2="92.73503790930793" class="err"/>
<line x1="528.7967084819326" y1="138.03549000589166" x2="534.7967084819326" y2="138.03549000589166" class="err"/>
<circle cx="531.7967084819326" cy="115.38526395759979" r="2.5" class="obs"/>
<line x1="562.2739661435809" y1="92.73503790930793" x2="562.2739661435809" y2="138.03549000589166" class="err"/>
<line x1="559.2739661435809" y1="92.73503790930793" x2="565.2739661435809" y2="92.73503790930793" class="err"/>
<line x1="559.2739661435809" y1="138.03549000589166" x2="565.2739661435809" y2="138.03549000589166" class="err"/>
<circle cx="562.2739661435809" cy="115.38526395759979" r="2.5" class="obs"/>
<line x1="589.4384784072239" y1="84.6456714634894" x2="589.4384784072239" y2="141.5023613398139" class="err"/>
<line x1="586.4384784072239" y1="84.6456714634894" x2="592.4384784072239" y2="84.6456714634894" class="err"/>
<line x1="586.4384784072239" y1="141.5023613398139" x2="592.4384784072239" y2="141.5023613398139" class="err"/>
<circle cx="589.4384784072239" cy="113.07401640165165" r="2.5" class="obs"/>
<g class="legend">
<line x1="82" y1="69" x2="106" y2="69" class="fw"/>
<text x="112" y="73" class="lbl-l">framework fit</text>
<line x1="82" y1="87" x2="106" y2="87" class="nt"/>
<text x="112" y="91" class="lbl-l">Newtonian (no halo)</text>
<circle cx="94" cy="105" r="2.5" class="obs"/>
<text x="112" y="109" class="lbl">observed V±err</text>
</g>
<g class="legend">
<line x1="460" y1="69" x2="484" y2="69" class="rho"/>
<text x="490" y="73" class="lbl-r">ρ(r) raw</text>
<line x1="460" y1="87" x2="484" y2="87" class="sig"/>
<text x="490" y="91" class="lbl-r">Σ(r) smoothed</text>
<text x="460" y="113" class="lbl-r">ρ peak: 163 M☉/pc²</text>
</g>
</svg>