<svg xmlns="http://www.w3.org/2000/svg" viewBox="0 0 890 420" width="890" height="420" font-family="sans-serif" font-size="12">
<style>
  .ax { stroke: #333; stroke-width: 1; fill: none; }
  .grid { stroke: #ddd; stroke-width: 0.5; fill: none; }
  .lbl { fill: #333; }
  .lbl-l { fill: #0066cc; }
  .lbl-r { fill: #b03030; }
  .obs { fill: #222; }
  .err { stroke: #555; stroke-width: 0.8; fill: none; }
  .fw { stroke: #0066cc; stroke-width: 2.2; fill: none; }
  .nt { stroke: #cc6600; stroke-width: 1.6; fill: none; stroke-dasharray: 5,3; }
  .lbl-s { fill: #cc7000; }
  .rho { stroke: #b03030; stroke-width: 2.0; fill: none; }
  .sig { stroke: #cc7000; stroke-width: 1.8; fill: none; }
  .title { fill: #111; font-size: 16px; font-weight: 600; }
  .subtitle { fill: #555; font-size: 11px; }
  .preview-bg { fill: #000; }
  .preview-lbl { fill: #888; font-size: 10px; }
  .legend { font-size: 11px; }
</style>
<text x="343.5" y="22" text-anchor="middle" class="title">UGC07866</text>
<text x="343.5" y="38" text-anchor="middle" class="subtitle">rMax=2.3 kpc, N=7, RMS=0.6 km/s (2.6%), amp=104</text>
<line x1="70" y1="365.0" x2="617" y2="365.0" class="grid"/>
<text x="64" y="369.0" text-anchor="end" class="lbl-l">0</text>
<line x1="70" y1="303.0" x2="617" y2="303.0" class="grid"/>
<text x="64" y="307.0" text-anchor="end" class="lbl-l">8</text>
<line x1="70" y1="241.0" x2="617" y2="241.0" class="grid"/>
<text x="64" y="245.0" text-anchor="end" class="lbl-l">16</text>
<line x1="70" y1="179.0" x2="617" y2="179.0" class="grid"/>
<text x="64" y="183.0" text-anchor="end" class="lbl-l">25</text>
<line x1="70" y1="117.0" x2="617" y2="117.0" class="grid"/>
<text x="64" y="121.0" text-anchor="end" class="lbl-l">33</text>
<line x1="70" y1="55.0" x2="617" y2="55.0" class="grid"/>
<text x="64" y="59.0" text-anchor="end" class="lbl-l">41</text>
<text x="623" y="369.0" text-anchor="start" class="lbl-r">0.0</text>
<text x="623" y="327.7" text-anchor="start" class="lbl-r">0.2</text>
<text x="623" y="286.3" text-anchor="start" class="lbl-r">0.4</text>
<text x="623" y="245.0" text-anchor="start" class="lbl-r">0.6</text>
<text x="623" y="203.7" text-anchor="start" class="lbl-r">0.8</text>
<text x="623" y="162.3" text-anchor="start" class="lbl-r">1.0</text>
<line x1="70.0" y1="55" x2="70.0" y2="365" class="grid"/>
<text x="70.0" y="381" text-anchor="middle" class="lbl">0.0</text>
<line x1="161.2" y1="55" x2="161.2" y2="365" class="grid"/>
<text x="161.2" y="381" text-anchor="middle" class="lbl">0.4</text>
<line x1="252.3" y1="55" x2="252.3" y2="365" class="grid"/>
<text x="252.3" y="381" text-anchor="middle" class="lbl">0.8</text>
<line x1="343.5" y1="55" x2="343.5" y2="365" class="grid"/>
<text x="343.5" y="381" text-anchor="middle" class="lbl">1.3</text>
<line x1="434.7" y1="55" x2="434.7" y2="365" class="grid"/>
<text x="434.7" y="381" text-anchor="middle" class="lbl">1.7</text>
<line x1="525.8" y1="55" x2="525.8" y2="365" class="grid"/>
<text x="525.8" y="381" text-anchor="middle" class="lbl">2.1</text>
<line x1="617.0" y1="55" x2="617.0" y2="365" class="grid"/>
<text x="617.0" y="381" text-anchor="middle" class="lbl">2.5</text>
<text x="343.5" y="408" text-anchor="middle" class="lbl">radius (kpc)</text>
<text x="16" y="210" text-anchor="middle" class="lbl-l" transform="rotate(-90, 16, 210)">velocity (km/s)</text>
<text x="654" y="210" text-anchor="middle" class="lbl-r" transform="rotate(-90, 654, 210)">mass profile (normalized to peak)</text>
<rect x="70" y="55" width="547" height="310" class="ax"/>
<path d="M 70.0,158.3 L 72.5,166.3 L 75.0,174.2 L 77.5,182.1 L 80.0,190.0 L 82.5,194.5 L 85.0,194.7 L 87.5,195.0 L 90.0,195.3 L 92.5,195.5 L 95.0,195.8 L 97.5,196.0 L 100.0,196.3 L 102.5,196.6 L 105.0,196.8 L 107.5,197.1 L 110.0,197.3 L 112.5,197.6 L 115.0,198.0 L 117.5,198.5 L 120.0,199.1 L 122.5,199.6 L 124.9,200.2 L 127.4,200.7 L 129.9,201.3 L 132.4,201.8 L 134.9,202.4 L 137.4,202.9 L 139.9,203.4 L 142.4,204.0 L 144.9,204.5 L 147.4,205.1 L 149.9,205.6 L 152.4,206.2 L 154.9,206.7 L 157.4,207.3 L 159.9,207.8 L 162.4,208.4 L 164.9,208.9 L 167.4,209.5 L 169.9,210.0 L 172.4,210.6 L 174.9,211.1 L 177.4,211.6 L 179.9,212.2 L 182.4,212.7 L 184.9,213.3 L 187.4,213.8 L 189.9,214.4 L 192.4,214.9 L 194.9,215.5 L 197.4,216.0 L 199.9,216.6 L 202.4,217.1 L 204.9,217.7 L 207.4,218.2 L 209.9,218.8 L 212.4,219.3 L 214.9,219.8 L 217.4,220.4 L 219.9,220.9 L 222.4,221.5 L 224.9,222.0 L 227.4,222.6 L 229.9,223.1 L 232.4,223.7 L 234.8,224.2 L 237.3,224.6 L 239.8,225.1 L 242.3,225.5 L 244.8,226.0 L 247.3,226.4 L 249.8,226.9 L 252.3,227.3 L 254.8,227.8 L 257.3,228.2 L 259.8,228.7 L 262.3,229.1 L 264.8,229.6 L 267.3,230.0 L 269.8,230.4 L 272.3,230.9 L 274.8,231.3 L 277.3,231.8 L 279.8,232.2 L 282.3,232.7 L 284.8,233.1 L 287.3,233.6 L 289.8,234.0 L 292.3,234.5 L 294.8,234.9 L 297.3,235.4 L 299.8,235.8 L 302.3,236.3 L 304.8,236.7 L 307.3,237.2 L 309.8,237.6 L 312.3,238.0 L 314.8,238.5 L 317.3,238.9 L 319.8,239.4 L 322.3,239.8 L 324.8,240.3 L 327.3,240.7 L 329.8,241.2 L 332.3,241.6 L 334.8,242.1 L 337.3,242.5 L 339.8,243.0 L 342.3,243.4 L 344.7,243.9 L 347.2,244.3 L 349.7,244.7 L 352.2,245.2 L 354.7,245.6 L 357.2,246.1 L 359.7,246.5 L 362.2,247.0 L 364.7,247.4 L 367.2,247.9 L 369.7,248.3 L 372.2,248.8 L 374.7,249.2 L 377.2,249.7 L 379.7,250.1 L 382.2,250.6 L 384.7,251.0 L 387.2,251.4 L 389.7,251.9 L 392.2,252.3 L 394.7,252.8 L 397.2,253.2 L 399.7,253.7 L 402.2,254.1 L 404.7,254.6 L 407.2,255.0 L 409.7,255.5 L 412.2,255.9 L 414.7,256.4 L 417.2,256.8 L 419.7,257.3 L 422.2,257.7 L 424.7,258.1 L 427.2,258.6 L 429.7,259.0 L 432.2,259.5 L 434.7,259.9 L 437.2,260.4 L 439.7,260.8 L 442.2,261.3 L 444.7,261.7 L 447.2,262.2 L 449.7,262.6 L 452.2,263.1 L 454.6,263.5 L 457.1,264.0 L 459.6,264.4 L 462.1,264.8 L 464.6,265.3 L 467.1,265.7 L 469.6,266.2 L 472.1,266.6 L 474.6,267.1 L 477.1,267.5 L 479.6,268.0 L 482.1,268.4 L 484.6,268.9 L 487.1,269.3 L 489.6,269.8 L 492.1,270.2 L 494.6,270.7 L 497.1,271.1 L 499.6,271.5 L 502.1,272.0 L 504.6,272.4 L 507.1,272.9 L 509.6,273.3 L 512.1,273.8 L 514.6,274.2 L 517.1,274.7 L 519.6,275.1 L 522.1,275.6 L 524.6,276.0 L 527.1,276.5 L 529.6,276.9 L 532.1,277.4 L 534.6,277.8 L 537.1,278.2 L 539.6,278.7 L 542.1,279.1 L 544.6,279.6 L 547.1,280.0 L 549.6,280.5 L 552.1,280.9 L 554.6,283.4 L 557.1,289.0 L 559.6,294.6 L 562.1,300.2 L 564.5,305.8 L 567.0,311.4 L 569.5,317.0 L 572.0,322.6 L 574.5,328.2 L 577.0,333.8 L 579.5,339.4 L 582.0,345.0 L 584.5,350.6 L 587.0,356.2 L 589.5,361.8 L 592.0,365.0 L 594.5,365.0 L 597.0,365.0 L 599.5,365.0 L 602.0,365.0 L 604.5,365.0 L 607.0,365.0 L 609.5,365.0 L 612.0,365.0 L 614.5,365.0 L 617.0,365.0" class="rho"/>
<path d="M 70.0,158.3 L 72.5,158.4 L 75.0,158.5 L 77.5,158.6 L 80.0,158.8 L 82.5,159.0 L 85.0,159.3 L 87.5,159.6 L 90.0,159.9 L 92.5,160.3 L 95.0,160.6 L 97.5,161.1 L 100.0,161.5 L 102.5,162.0 L 105.0,162.4 L 107.5,163.0 L 110.0,163.5 L 112.5,164.1 L 115.0,164.6 L 117.5,165.2 L 120.0,165.9 L 122.5,166.5 L 124.9,167.2 L 127.4,167.9 L 129.9,168.6 L 132.4,169.4 L 134.9,170.1 L 137.4,170.9 L 139.9,171.7 L 142.4,172.5 L 144.9,173.3 L 147.4,174.2 L 149.9,175.0 L 152.4,175.9 L 154.9,176.7 L 157.4,177.6 L 159.9,178.5 L 162.4,179.4 L 164.9,180.3 L 167.4,181.3 L 169.9,182.2 L 172.4,183.2 L 174.9,184.1 L 177.4,185.1 L 179.9,186.0 L 182.4,187.0 L 184.9,188.0 L 187.4,189.0 L 189.9,189.9 L 192.4,190.9 L 194.9,191.9 L 197.4,192.9 L 199.9,193.9 L 202.4,194.9 L 204.9,195.9 L 207.4,197.0 L 209.9,198.0 L 212.4,199.0 L 214.9,200.0 L 217.4,201.0 L 219.9,202.0 L 222.4,203.0 L 224.9,204.0 L 227.4,205.1 L 229.9,206.1 L 232.4,207.1 L 234.8,208.1 L 237.3,209.1 L 239.8,210.1 L 242.3,211.1 L 244.8,212.1 L 247.3,213.1 L 249.8,214.1 L 252.3,215.1 L 254.8,216.1 L 257.3,217.1 L 259.8,218.1 L 262.3,219.0 L 264.8,220.0 L 267.3,221.0 L 269.8,222.0 L 272.3,223.0 L 274.8,224.0 L 277.3,224.9 L 279.8,225.9 L 282.3,226.9 L 284.8,227.9 L 287.3,228.8 L 289.8,229.8 L 292.3,230.8 L 294.8,231.7 L 297.3,232.7 L 299.8,233.6 L 302.3,234.6 L 304.8,235.6 L 307.3,236.5 L 309.8,237.5 L 312.3,238.4 L 314.8,239.4 L 317.3,240.3 L 319.8,241.3 L 322.3,242.2 L 324.8,243.1 L 327.3,244.1 L 329.8,245.0 L 332.3,246.0 L 334.8,246.9 L 337.3,247.8 L 339.8,248.7 L 342.3,249.7 L 344.7,250.6 L 347.2,251.5 L 349.7,252.4 L 352.2,253.3 L 354.7,254.2 L 357.2,255.2 L 359.7,256.1 L 362.2,257.0 L 364.7,257.9 L 367.2,258.8 L 369.7,259.7 L 372.2,260.6 L 374.7,261.4 L 377.2,262.3 L 379.7,263.2 L 382.2,264.1 L 384.7,265.0 L 387.2,265.9 L 389.7,266.7 L 392.2,267.6 L 394.7,268.5 L 397.2,269.4 L 399.7,270.2 L 402.2,271.1 L 404.7,271.9 L 407.2,272.8 L 409.7,273.6 L 412.2,274.5 L 414.7,275.3 L 417.2,276.2 L 419.7,277.0 L 422.2,277.9 L 424.7,278.7 L 427.2,279.6 L 429.7,280.4 L 432.2,281.2 L 434.7,282.0 L 437.2,282.9 L 439.7,283.7 L 442.2,284.5 L 444.7,285.3 L 447.2,286.2 L 449.7,287.0 L 452.2,287.8 L 454.6,288.6 L 457.1,289.4 L 459.6,290.2 L 462.1,291.0 L 464.6,291.8 L 467.1,292.6 L 469.6,293.4 L 472.1,294.2 L 474.6,295.0 L 477.1,295.8 L 479.6,296.6 L 482.1,297.4 L 484.6,298.2 L 487.1,299.0 L 489.6,299.8 L 492.1,300.6 L 494.6,301.4 L 497.1,302.2 L 499.6,303.0 L 502.1,303.8 L 504.6,304.6 L 507.1,305.4 L 509.6,306.2 L 512.1,307.1 L 514.6,307.9 L 517.1,308.7 L 519.6,309.5 L 522.1,310.4 L 524.6,311.2 L 527.1,312.1 L 529.6,312.9 L 532.1,313.8 L 534.6,314.7 L 537.1,315.6 L 539.6,316.5 L 542.1,317.4 L 544.6,318.4 L 547.1,319.3 L 549.6,320.3 L 552.1,321.2 L 554.6,322.2 L 557.1,323.2 L 559.6,324.2 L 562.1,325.1 L 564.5,326.1 L 567.0,327.0 L 569.5,328.0 L 572.0,328.9 L 574.5,329.8 L 577.0,330.6 L 579.5,331.4 L 582.0,332.2 L 584.5,333.0 L 587.0,333.7 L 589.5,334.4 L 592.0,335.1 L 594.5,335.7 L 597.0,336.3 L 599.5,336.9 L 602.0,337.5 L 604.5,338.0 L 607.0,338.5 L 609.5,339.0 L 612.0,339.5 L 614.5,339.9 L 617.0,340.4" class="sig"/>
<path d="M 75.5,331.9 L 80.9,319.6 L 86.4,310.5 L 91.9,302.6 L 97.4,295.5 L 102.8,289.1 L 108.3,283.2 L 113.8,277.7 L 119.2,272.6 L 124.7,267.8 L 130.2,263.2 L 135.6,258.9 L 141.1,254.8 L 146.6,250.9 L 152.1,247.2 L 157.5,243.6 L 163.0,240.2 L 168.5,236.9 L 173.9,233.7 L 179.4,230.6 L 184.9,227.6 L 190.3,224.7 L 195.8,221.9 L 201.3,219.2 L 206.8,216.6 L 212.2,214.0 L 217.7,211.5 L 223.2,209.1 L 228.6,206.8 L 234.1,204.5 L 239.6,202.2 L 245.0,200.1 L 250.5,197.9 L 256.0,195.8 L 261.4,193.8 L 266.9,191.8 L 272.4,189.8 L 277.9,187.9 L 283.3,186.1 L 288.8,184.2 L 294.3,182.4 L 299.7,180.7 L 305.2,178.9 L 310.7,177.2 L 316.1,175.6 L 321.6,174.0 L 327.1,172.4 L 332.6,170.8 L 338.0,169.3 L 343.5,167.8 L 349.0,166.3 L 354.4,164.9 L 359.9,163.4 L 365.4,162.1 L 370.9,160.7 L 376.3,159.4 L 381.8,158.1 L 387.3,156.8 L 392.7,155.5 L 398.2,154.3 L 403.7,153.1 L 409.1,151.9 L 414.6,150.7 L 420.1,149.6 L 425.6,148.5 L 431.0,147.4 L 436.5,146.3 L 442.0,145.3 L 447.4,144.2 L 452.9,143.2 L 458.4,142.3 L 463.8,141.3 L 469.3,140.3 L 474.8,139.4 L 480.3,138.5 L 485.7,137.6 L 491.2,136.8 L 496.7,135.9 L 502.1,135.1 L 507.6,134.3 L 513.1,133.5 L 518.5,132.7 L 524.0,132.0 L 529.5,131.2 L 535.0,130.5 L 540.4,129.8 L 545.9,129.1 L 551.4,128.5 L 556.8,127.9 L 562.3,127.5 L 567.8,127.5 L 573.2,127.7 L 578.7,128.2 L 584.2,128.9 L 589.6,129.9 L 595.1,131.2 L 600.6,132.4 L 606.1,133.6 L 611.5,134.8 L 617.0,135.9" class="nt"/>
<path d="M 74.6,355.8 L 79.1,349.0 L 83.7,342.0 L 88.2,335.4 L 92.8,329.2 L 97.3,323.2 L 101.9,317.4 L 106.5,311.7 L 111.0,306.0 L 115.6,300.5 L 120.1,295.0 L 124.7,289.7 L 129.3,284.5 L 133.8,279.5 L 138.4,274.7 L 142.9,270.1 L 147.5,265.6 L 152.1,261.3 L 156.6,257.1 L 161.2,253.1 L 165.7,249.3 L 170.3,245.5 L 174.8,242.0 L 179.4,238.5 L 184.0,235.2 L 188.5,232.0 L 193.1,228.9 L 197.6,226.0 L 202.2,223.2 L 206.8,220.5 L 211.3,217.9 L 215.9,215.4 L 220.4,213.1 L 225.0,210.9 L 229.5,208.8 L 234.1,206.8 L 238.7,204.9 L 243.2,203.0 L 247.8,201.1 L 252.3,199.3 L 256.9,197.6 L 261.4,195.8 L 266.0,194.1 L 270.6,192.4 L 275.1,190.7 L 279.7,189.1 L 284.2,187.5 L 288.8,185.9 L 293.4,184.4 L 297.9,182.9 L 302.5,181.4 L 307.0,180.0 L 311.6,178.6 L 316.1,177.2 L 320.7,175.9 L 325.3,174.6 L 329.8,173.3 L 334.4,172.0 L 338.9,170.8 L 343.5,169.7 L 348.1,168.5 L 352.6,167.4 L 357.2,166.3 L 361.7,165.2 L 366.3,164.2 L 370.8,163.2 L 375.4,162.2 L 380.0,161.3 L 384.5,160.4 L 389.1,159.5 L 393.6,158.6 L 398.2,157.7 L 402.8,156.9 L 407.3,156.0 L 411.9,155.2 L 416.4,154.4 L 421.0,153.6 L 425.5,152.8 L 430.1,152.1 L 434.7,151.3 L 439.2,150.5 L 443.8,149.7 L 448.3,148.9 L 452.9,148.1 L 457.5,147.3 L 462.0,146.4 L 466.6,145.5 L 471.1,144.5 L 475.7,143.5 L 480.3,142.4 L 484.8,141.2 L 489.4,139.9 L 493.9,138.5 L 498.5,136.9 L 503.0,135.1 L 507.6,133.1 L 512.2,130.8 L 516.7,128.3 L 521.3,125.3 L 525.8,122.0 L 530.4,118.3 L 535.0,114.3 L 539.5,110.0 L 544.1,105.7 L 548.6,101.8 L 553.2,98.8 L 557.7,97.2 L 562.3,97.4 L 566.9,99.7 L 571.4,103.9 L 576.0,109.8 L 580.5,117.0 L 585.1,125.0 L 589.6,133.4 L 594.2,141.7 L 598.8,149.7 L 603.3,157.3 L 607.9,164.2 L 612.4,170.7 L 617.0,176.6" class="fw"/>
<line x1="141.08" y1="241.64" x2="141.08" y2="303.36" class="err"/>
<line x1="138.08" y1="241.64" x2="144.08" y2="241.64" class="err"/>
<line x1="138.08" y1="303.36" x2="144.08" y2="303.36" class="err"/>
<circle cx="141.08" cy="272.50" r="2.5" class="obs"/>
<line x1="212.16" y1="187.05" x2="212.16" y2="248.77" class="err"/>
<line x1="209.16" y1="187.05" x2="215.16" y2="187.05" class="err"/>
<line x1="209.16" y1="248.77" x2="215.16" y2="248.77" class="err"/>
<circle cx="212.16" cy="217.91" r="2.5" class="obs"/>
<line x1="285.40" y1="152.94" x2="285.40" y2="214.65" class="err"/>
<line x1="282.40" y1="152.94" x2="288.40" y2="152.94" class="err"/>
<line x1="282.40" y1="214.65" x2="288.40" y2="214.65" class="err"/>
<circle cx="285.40" cy="183.79" r="2.5" class="obs"/>
<line x1="356.48" y1="137.01" x2="356.48" y2="198.73" class="err"/>
<line x1="353.48" y1="137.01" x2="359.48" y2="137.01" class="err"/>
<line x1="353.48" y1="198.73" x2="359.48" y2="198.73" class="err"/>
<circle cx="356.48" cy="167.87" r="2.5" class="obs"/>
<line x1="429.71" y1="120.33" x2="429.71" y2="182.05" class="err"/>
<line x1="426.71" y1="120.33" x2="432.71" y2="120.33" class="err"/>
<line x1="426.71" y1="182.05" x2="432.71" y2="182.05" class="err"/>
<circle cx="429.71" cy="151.19" r="2.5" class="obs"/>
<line x1="500.79" y1="102.14" x2="500.79" y2="163.85" class="err"/>
<line x1="497.79" y1="102.14" x2="503.79" y2="102.14" class="err"/>
<line x1="497.79" y1="163.85" x2="503.79" y2="163.85" class="err"/>
<circle cx="500.79" cy="132.99" r="2.5" class="obs"/>
<line x1="569.72" y1="83.18" x2="569.72" y2="144.90" class="err"/>
<line x1="566.72" y1="83.18" x2="572.72" y2="83.18" class="err"/>
<line x1="566.72" y1="144.90" x2="572.72" y2="144.90" class="err"/>
<circle cx="569.72" cy="114.04" r="2.5" class="obs"/>
<g class="legend">
<line x1="82" y1="69" x2="106" y2="69" class="fw"/>
<text x="112" y="73" class="lbl-l">framework fit</text>
<line x1="82" y1="87" x2="106" y2="87" class="nt"/>
<text x="112" y="91" class="lbl-l">Newtonian (no halo)</text>
<circle cx="94" cy="105" r="2.5" class="obs"/>
<text x="112" y="109" class="lbl">observed V±err</text>
</g>
<g class="legend">
<line x1="442" y1="69" x2="466" y2="69" class="rho"/>
<text x="472" y="73" class="lbl-r">ρ(r) raw</text>
<line x1="442" y1="87" x2="466" y2="87" class="sig"/>
<text x="472" y="91" class="lbl-s">Σ(r) cumulative</text>
<text x="442" y="113" class="lbl-r">ρ peak: 59 M☉/pc²</text>
</g>
<rect x="705" y="55" width="170" height="170" class="preview-bg"/>
<defs><radialGradient id="g_UGC07866" cx="0.5" cy="0.5" r="0.5">
  <stop offset="0.0000" stop-color="rgb(131,32.75,32.75)"/>
  <stop offset="0.0313" stop-color="rgb(116,29,29)"/>
  <stop offset="0.0625" stop-color="rgb(116,29,29)"/>
  <stop offset="0.0938" stop-color="rgb(115,28.75,28.75)"/>
  <stop offset="0.1250" stop-color="rgb(113,28.25,28.25)"/>
  <stop offset="0.1563" stop-color="rgb(112,28,28)"/>
  <stop offset="0.1875" stop-color="rgb(111,27.75,27.75)"/>
  <stop offset="0.2188" stop-color="rgb(109,27.25,27.25)"/>
  <stop offset="0.2500" stop-color="rgb(108,27,27)"/>
  <stop offset="0.2813" stop-color="rgb(106,26.5,26.5)"/>
  <stop offset="0.3125" stop-color="rgb(105,26.25,26.25)"/>
  <stop offset="0.3438" stop-color="rgb(104,26,26)"/>
  <stop offset="0.3750" stop-color="rgb(103,25.75,25.75)"/>
  <stop offset="0.4063" stop-color="rgb(102,25.5,25.5)"/>
  <stop offset="0.4375" stop-color="rgb(100,25,25)"/>
  <stop offset="0.4688" stop-color="rgb(99,24.75,24.75)"/>
  <stop offset="0.5000" stop-color="rgb(98,24.5,24.5)"/>
  <stop offset="0.5313" stop-color="rgb(97,24.25,24.25)"/>
  <stop offset="0.5625" stop-color="rgb(96,24,24)"/>
  <stop offset="0.5938" stop-color="rgb(95,23.75,23.75)"/>
  <stop offset="0.6250" stop-color="rgb(94,23.5,23.5)"/>
  <stop offset="0.6563" stop-color="rgb(93,23.25,23.25)"/>
  <stop offset="0.6875" stop-color="rgb(91,22.75,22.75)"/>
  <stop offset="0.7188" stop-color="rgb(90,22.5,22.5)"/>
  <stop offset="0.7500" stop-color="rgb(89,22.25,22.25)"/>
  <stop offset="0.7813" stop-color="rgb(88,22,22)"/>
  <stop offset="0.8125" stop-color="rgb(87,21.75,21.75)"/>
  <stop offset="0.8438" stop-color="rgb(86,21.5,21.5)"/>
  <stop offset="0.8750" stop-color="rgb(85,21.25,21.25)"/>
  <stop offset="0.9063" stop-color="rgb(83,20.75,20.75)"/>
  <stop offset="0.9375" stop-color="rgb(78,19.5,19.5)"/>
  <stop offset="0.9688" stop-color="rgb(64,16,16)"/>
  <stop offset="1.0000" stop-color="rgb(0,0,0)"/>
</radialGradient></defs>
<circle cx="790" cy="140" r="81" fill="url(#g_UGC07866)"/>
<text x="790" y="49" text-anchor="middle" class="preview-lbl">face-on luminance from ρ(r)</text>
<text x="790" y="239" text-anchor="middle" class="preview-lbl">edge at r = 2.4 kpc</text>
</svg>