<svg xmlns="http://www.w3.org/2000/svg" viewBox="0 0 960 450" width="960" height="450" font-family="sans-serif" font-size="12">
<style>
  .ax { stroke: #333; stroke-width: 1; fill: none; }
  .grid { stroke: #ddd; stroke-width: 0.5; fill: none; }
  .lbl { fill: #333; }
  .lbl-l { fill: #0066cc; }
  .lbl-r { fill: #b03030; }
  .obs { fill: #222; }
  .err { stroke: #555; stroke-width: 0.8; fill: none; }
  .fw { stroke: #0066cc; stroke-width: 2.2; fill: none; }
  .nt { stroke: #cc6600; stroke-width: 1.6; fill: none; stroke-dasharray: 5,3; }
  .mond { stroke: #7b2cbf; stroke-width: 1.8; fill: none; stroke-dasharray: 7,3; }
  .lbl-p { fill: #cc7000; }
  .lbl-m { fill: #7b2cbf; }
  .rho { stroke: #b03030; stroke-width: 2.0; fill: none; }
  .phot { stroke: #cc7000; stroke-width: 1.8; fill: none; }
  .mbar { stroke: #8e44ad; stroke-width: 1.8; fill: none; opacity: 0.9; }
  .mph { stroke: #c77dff; stroke-width: 1.6; fill: none; stroke-dasharray: 4,3; opacity: 0.95; }
  .title { fill: #111; font-size: 16px; font-weight: 600; }
  .subtitle { fill: #555; font-size: 11px; }
  .preview-bg { fill: #000; }
  .preview-lbl { fill: #888; font-size: 10px; }
  .legend { font-size: 11px; }
</style>
<text x="378.5" y="22" text-anchor="middle" class="title">UGC06628</text>
<text x="378.5" y="38" text-anchor="middle" class="subtitle">rMax=7.7 kpc, N=7, FW=0.6 km/s, 1.4%, 0.07σ, MOND=33.4 km/s, 80.8%, 4.04σ, amp=101</text>
<line x1="70" y1="395.0" x2="687" y2="395.0" class="grid"/>
<text x="64" y="399.0" text-anchor="end" class="lbl-l">0</text>
<line x1="70" y1="327.0" x2="687" y2="327.0" class="grid"/>
<text x="64" y="331.0" text-anchor="end" class="lbl-l">21</text>
<line x1="70" y1="259.0" x2="687" y2="259.0" class="grid"/>
<text x="64" y="263.0" text-anchor="end" class="lbl-l">41</text>
<line x1="70" y1="191.0" x2="687" y2="191.0" class="grid"/>
<text x="64" y="195.0" text-anchor="end" class="lbl-l">62</text>
<line x1="70" y1="123.0" x2="687" y2="123.0" class="grid"/>
<text x="64" y="127.0" text-anchor="end" class="lbl-l">82</text>
<line x1="70" y1="55.0" x2="687" y2="55.0" class="grid"/>
<text x="64" y="59.0" text-anchor="end" class="lbl-l">103</text>
<text x="693" y="399.0" text-anchor="start" class="lbl-r">0.0</text>
<text x="693" y="353.7" text-anchor="start" class="lbl-r">0.2</text>
<text x="693" y="308.3" text-anchor="start" class="lbl-r">0.4</text>
<text x="693" y="263.0" text-anchor="start" class="lbl-r">0.6</text>
<text x="693" y="217.7" text-anchor="start" class="lbl-r">0.8</text>
<text x="693" y="172.3" text-anchor="start" class="lbl-r">1.0</text>
<line x1="70.0" y1="55" x2="70.0" y2="395" class="grid"/>
<text x="70.0" y="411" text-anchor="middle" class="lbl">0.0</text>
<line x1="172.8" y1="55" x2="172.8" y2="395" class="grid"/>
<text x="172.8" y="411" text-anchor="middle" class="lbl">1.4</text>
<line x1="275.7" y1="55" x2="275.7" y2="395" class="grid"/>
<text x="275.7" y="411" text-anchor="middle" class="lbl">2.7</text>
<line x1="378.5" y1="55" x2="378.5" y2="395" class="grid"/>
<text x="378.5" y="411" text-anchor="middle" class="lbl">4.1</text>
<line x1="481.3" y1="55" x2="481.3" y2="395" class="grid"/>
<text x="481.3" y="411" text-anchor="middle" class="lbl">5.4</text>
<line x1="584.2" y1="55" x2="584.2" y2="395" class="grid"/>
<text x="584.2" y="411" text-anchor="middle" class="lbl">6.8</text>
<line x1="687.0" y1="55" x2="687.0" y2="395" class="grid"/>
<text x="687.0" y="411" text-anchor="middle" class="lbl">8.2</text>
<text x="378.5" y="438" text-anchor="middle" class="lbl">radius (kpc)</text>
<text x="16" y="225" text-anchor="middle" class="lbl-l" transform="rotate(-90, 16, 225)">velocity (km/s)</text>
<text x="724" y="225" text-anchor="middle" class="lbl-r" transform="rotate(-90, 724, 225)">profiles (normalized to peak)</text>
<rect x="70" y="55" width="617" height="340" class="ax"/>
<path d="M 70.0,168.3 L 72.8,189.3 L 75.6,210.3 L 78.5,231.2 L 81.3,252.2 L 84.1,273.2 L 86.9,289.8 L 89.7,291.5 L 92.5,293.1 L 95.4,294.8 L 98.2,296.4 L 101.0,298.1 L 103.8,299.7 L 106.6,300.4 L 109.4,300.9 L 112.3,301.4 L 115.1,301.9 L 117.9,302.4 L 120.7,302.9 L 123.5,303.4 L 126.3,303.9 L 129.2,304.5 L 132.0,305.0 L 134.8,305.5 L 137.6,306.0 L 140.4,306.5 L 143.3,307.0 L 146.1,307.5 L 148.9,308.0 L 151.7,308.5 L 154.5,309.0 L 157.3,309.5 L 160.2,310.0 L 163.0,310.5 L 165.8,311.0 L 168.6,311.5 L 171.4,312.0 L 174.2,312.5 L 177.1,313.1 L 179.9,313.6 L 182.7,314.1 L 185.5,314.6 L 188.3,315.1 L 191.1,315.6 L 194.0,316.1 L 196.8,316.6 L 199.6,317.1 L 202.4,317.6 L 205.2,318.1 L 208.1,318.6 L 210.9,319.1 L 213.7,319.6 L 216.5,320.1 L 219.3,320.6 L 222.1,321.2 L 225.0,321.7 L 227.8,322.2 L 230.6,322.7 L 233.4,323.2 L 236.2,323.7 L 239.0,324.2 L 241.9,324.7 L 244.7,325.2 L 247.5,325.7 L 250.3,326.2 L 253.1,326.7 L 255.9,327.2 L 258.8,327.7 L 261.6,328.2 L 264.4,328.7 L 267.2,329.2 L 270.0,329.8 L 272.8,330.3 L 275.7,330.8 L 278.5,331.3 L 281.3,331.8 L 284.1,332.1 L 286.9,332.4 L 289.8,332.6 L 292.6,332.8 L 295.4,333.1 L 298.2,333.3 L 301.0,333.6 L 303.8,333.8 L 306.7,334.1 L 309.5,334.3 L 312.3,334.6 L 315.1,334.8 L 317.9,335.1 L 320.7,335.3 L 323.6,335.6 L 326.4,335.8 L 329.2,336.1 L 332.0,336.3 L 334.8,336.6 L 337.6,336.8 L 340.5,337.1 L 343.3,337.3 L 346.1,337.6 L 348.9,337.8 L 351.7,338.1 L 354.6,338.3 L 357.4,338.6 L 360.2,338.8 L 363.0,339.1 L 365.8,339.3 L 368.6,339.6 L 371.5,339.8 L 374.3,340.1 L 377.1,340.3 L 379.9,340.6 L 382.7,340.8 L 385.5,341.1 L 388.4,341.3 L 391.2,341.6 L 394.0,341.8 L 396.8,342.1 L 399.6,342.3 L 402.4,342.6 L 405.3,342.8 L 408.1,343.1 L 410.9,343.3 L 413.7,343.6 L 416.5,343.8 L 419.4,344.1 L 422.2,344.3 L 425.0,344.6 L 427.8,344.8 L 430.6,345.1 L 433.4,345.3 L 436.3,345.6 L 439.1,345.8 L 441.9,346.1 L 444.7,346.3 L 447.5,346.6 L 450.3,346.8 L 453.2,347.1 L 456.0,347.3 L 458.8,347.6 L 461.6,347.8 L 464.4,348.1 L 467.2,348.3 L 470.1,348.6 L 472.9,348.8 L 475.7,349.1 L 478.5,349.3 L 481.3,349.6 L 484.2,349.8 L 487.0,350.1 L 489.8,350.3 L 492.6,350.5 L 495.4,350.8 L 498.2,351.0 L 501.1,351.3 L 503.9,351.5 L 506.7,351.8 L 509.5,352.0 L 512.3,352.3 L 515.1,352.5 L 518.0,352.8 L 520.8,353.0 L 523.6,353.3 L 526.4,353.5 L 529.2,353.8 L 532.0,354.0 L 534.9,354.3 L 537.7,354.5 L 540.5,354.8 L 543.3,355.0 L 546.1,355.3 L 548.9,355.5 L 551.8,355.8 L 554.6,356.0 L 557.4,356.3 L 560.2,356.5 L 563.0,356.8 L 565.9,357.0 L 568.7,357.3 L 571.5,357.5 L 574.3,357.8 L 577.1,358.0 L 579.9,358.3 L 582.8,358.5 L 585.6,358.8 L 588.4,359.0 L 591.2,359.3 L 594.0,359.5 L 596.8,359.8 L 599.7,360.0 L 602.5,360.3 L 605.3,360.5 L 608.1,360.8 L 610.9,361.0 L 613.7,361.3 L 616.6,361.5 L 619.4,361.8 L 622.2,362.0 L 625.0,362.3 L 627.8,362.5 L 630.7,362.8 L 633.5,363.0 L 636.3,363.3 L 639.1,363.5 L 641.9,367.6 L 644.7,372.5 L 647.6,377.4 L 650.4,382.4 L 653.2,387.3 L 656.0,392.2 L 658.8,395.0 L 661.6,395.0 L 664.5,395.0 L 667.3,395.0 L 670.1,395.0 L 672.9,395.0 L 675.7,395.0 L 678.5,395.0 L 681.4,395.0 L 684.2,395.0 L 687.0,395.0" class="rho"/>
<path d="M 153.1,168.3 L 236.3,275.0 L 319.4,308.1 L 401.8,332.9 L 485.7,353.7 L 568.1,367.0 L 651.2,377.3" class="phot"/>
<path d="M 153.1,168.3 L 236.3,199.9 L 319.4,215.1 L 401.8,227.7 L 485.7,238.2 L 568.1,230.8 L 651.2,227.8" class="mbar"/>
<path d="M 153.1,168.3 L 236.3,182.0 L 319.4,188.8 L 401.8,195.3 L 485.7,200.5 L 568.1,196.9 L 651.2,195.4" class="mph"/>
<path d="M 76.2,363.1 L 82.3,353.6 L 88.5,348.9 L 94.7,344.8 L 100.8,340.8 L 107.0,337.1 L 113.2,333.5 L 119.4,330.1 L 125.5,326.9 L 131.7,323.8 L 137.9,320.9 L 144.0,318.1 L 150.2,315.5 L 156.4,312.9 L 162.6,310.5 L 168.7,308.2 L 174.9,306.0 L 181.1,303.8 L 187.2,301.8 L 193.4,299.8 L 199.6,298.0 L 205.7,296.1 L 211.9,294.4 L 218.1,292.7 L 224.3,291.1 L 230.4,289.5 L 236.6,288.1 L 242.8,286.6 L 248.9,285.2 L 255.1,283.9 L 261.3,282.6 L 267.4,281.3 L 273.6,280.1 L 279.8,279.0 L 285.9,277.9 L 292.1,276.8 L 298.3,275.7 L 304.5,274.7 L 310.6,273.6 L 316.8,272.6 L 323.0,271.6 L 329.1,270.6 L 335.3,269.7 L 341.5,268.7 L 347.6,267.8 L 353.8,266.9 L 360.0,266.0 L 366.2,265.1 L 372.3,264.2 L 378.5,263.4 L 384.7,262.6 L 390.8,261.8 L 397.0,261.0 L 403.2,260.2 L 409.4,259.5 L 415.5,258.7 L 421.7,258.0 L 427.9,257.3 L 434.0,256.6 L 440.2,255.9 L 446.4,255.3 L 452.5,254.6 L 458.7,254.0 L 464.9,253.4 L 471.0,252.8 L 477.2,252.2 L 483.4,251.6 L 489.6,251.0 L 495.7,250.5 L 501.9,250.0 L 508.1,249.5 L 514.2,249.0 L 520.4,248.5 L 526.6,248.0 L 532.8,247.5 L 538.9,247.1 L 545.1,246.6 L 551.3,246.2 L 557.4,245.8 L 563.6,245.4 L 569.8,245.0 L 575.9,244.7 L 582.1,244.3 L 588.3,244.0 L 594.4,243.7 L 600.6,243.3 L 606.8,243.0 L 613.0,242.7 L 619.1,242.5 L 625.3,242.2 L 631.5,241.9 L 637.6,241.7 L 643.8,241.6 L 650.0,241.7 L 656.2,242.3 L 662.3,243.1 L 668.5,243.9 L 674.7,244.6 L 680.8,245.4 L 687.0,246.1" class="nt"/>
<path d="M 153.1,265.0 L 236.3,223.3 L 319.4,185.6 L 401.8,156.3 L 485.7,134.4 L 568.1,108.2 L 651.2,85.9" class="mond"/>
<path d="M 75.1,380.3 L 80.3,370.2 L 85.4,360.3 L 90.6,352.2 L 95.7,345.7 L 100.8,340.6 L 106.0,336.3 L 111.1,332.6 L 116.3,329.1 L 121.4,325.8 L 126.6,322.5 L 131.7,319.2 L 136.8,316.0 L 142.0,312.8 L 147.1,309.6 L 152.3,306.5 L 157.4,303.4 L 162.6,300.4 L 167.7,297.5 L 172.8,294.7 L 178.0,292.0 L 183.1,289.4 L 188.3,286.9 L 193.4,284.5 L 198.5,282.2 L 203.7,280.0 L 208.8,278.0 L 214.0,276.0 L 219.1,274.2 L 224.3,272.5 L 229.4,270.9 L 234.5,269.5 L 239.7,268.2 L 244.8,267.0 L 250.0,266.0 L 255.1,265.1 L 260.2,264.4 L 265.4,263.9 L 270.5,263.5 L 275.7,263.2 L 280.8,263.0 L 285.9,262.9 L 291.1,262.9 L 296.2,262.9 L 301.4,262.8 L 306.5,262.7 L 311.7,262.6 L 316.8,262.5 L 321.9,262.4 L 327.1,262.2 L 332.2,262.0 L 337.4,261.7 L 342.5,261.5 L 347.6,261.2 L 352.8,261.0 L 357.9,260.7 L 363.1,260.4 L 368.2,260.2 L 373.4,259.9 L 378.5,259.6 L 383.6,259.4 L 388.8,259.1 L 393.9,258.9 L 399.1,258.6 L 404.2,258.4 L 409.4,258.2 L 414.5,258.0 L 419.6,257.8 L 424.8,257.6 L 429.9,257.4 L 435.1,257.3 L 440.2,257.1 L 445.3,257.0 L 450.5,256.8 L 455.6,256.7 L 460.8,256.6 L 465.9,256.5 L 471.0,256.5 L 476.2,256.4 L 481.3,256.4 L 486.5,256.3 L 491.6,256.3 L 496.8,256.3 L 501.9,256.3 L 507.0,256.3 L 512.2,256.3 L 517.3,256.3 L 522.5,256.3 L 527.6,256.3 L 532.8,256.3 L 537.9,256.3 L 543.0,256.2 L 548.2,256.2 L 553.3,256.2 L 558.5,256.1 L 563.6,256.0 L 568.7,255.8 L 573.9,255.6 L 579.0,255.3 L 584.2,255.0 L 589.3,254.6 L 594.5,254.0 L 599.6,253.3 L 604.7,252.5 L 609.9,251.5 L 615.0,250.4 L 620.2,249.2 L 625.3,248.1 L 630.4,247.2 L 635.6,246.7 L 640.7,247.0 L 645.9,248.2 L 651.0,250.3 L 656.1,253.3 L 661.3,256.9 L 666.4,260.9 L 671.6,265.0 L 676.7,269.1 L 681.9,272.9 L 687.0,276.5" class="fw"/>
<line x1="153.14" y1="278.97" x2="153.14" y2="333.54" class="err"/>
<line x1="150.14" y1="278.97" x2="156.14" y2="278.97" class="err"/>
<line x1="150.14" y1="333.54" x2="156.14" y2="333.54" class="err"/>
<circle cx="153.14" cy="306.25" r="2.5" class="obs"/>
<line x1="236.28" y1="242.35" x2="236.28" y2="296.91" class="err"/>
<line x1="233.28" y1="242.35" x2="239.28" y2="242.35" class="err"/>
<line x1="233.28" y1="296.91" x2="239.28" y2="296.91" class="err"/>
<circle cx="236.28" cy="269.63" r="2.5" class="obs"/>
<line x1="319.42" y1="234.10" x2="319.42" y2="288.67" class="err"/>
<line x1="316.42" y1="234.10" x2="322.42" y2="234.10" class="err"/>
<line x1="316.42" y1="288.67" x2="322.42" y2="288.67" class="err"/>
<circle cx="319.42" cy="261.38" r="2.5" class="obs"/>
<line x1="401.80" y1="231.13" x2="401.80" y2="285.70" class="err"/>
<line x1="398.80" y1="231.13" x2="404.80" y2="231.13" class="err"/>
<line x1="398.80" y1="285.70" x2="404.80" y2="285.70" class="err"/>
<circle cx="401.80" cy="258.41" r="2.5" class="obs"/>
<line x1="485.70" y1="228.16" x2="485.70" y2="282.73" class="err"/>
<line x1="482.70" y1="228.16" x2="488.70" y2="228.16" class="err"/>
<line x1="482.70" y1="282.73" x2="488.70" y2="282.73" class="err"/>
<circle cx="485.70" cy="255.44" r="2.5" class="obs"/>
<line x1="568.09" y1="228.16" x2="568.09" y2="282.73" class="err"/>
<line x1="565.09" y1="228.16" x2="571.09" y2="228.16" class="err"/>
<line x1="565.09" y1="282.73" x2="571.09" y2="282.73" class="err"/>
<circle cx="568.09" cy="255.44" r="2.5" class="obs"/>
<line x1="651.23" y1="228.16" x2="651.23" y2="282.73" class="err"/>
<line x1="648.23" y1="228.16" x2="654.23" y2="228.16" class="err"/>
<line x1="648.23" y1="282.73" x2="654.23" y2="282.73" class="err"/>
<circle cx="651.23" cy="255.44" r="2.5" class="obs"/>
<g class="legend">
<line x1="82" y1="69" x2="106" y2="69" class="fw"/>
<text x="112" y="73" class="lbl-l">framework: 0.6 km/s, 1.4%, 0.07σ</text>
<line x1="82" y1="87" x2="106" y2="87" class="nt"/>
<text x="112" y="91" class="lbl-l">Newtonian: 3.3 km/s, 8.7%, 0.40σ</text>
<line x1="82" y1="105" x2="106" y2="105" class="mond"/>
<text x="112" y="109" class="lbl-m">MOND/RAR: 33.4 km/s, 80.8%, 4.04σ</text>
<circle cx="94" cy="123" r="2.5" class="obs"/>
<text x="112" y="127" class="lbl">observed V±err</text>
</g>
<g class="legend">
<line x1="472" y1="69" x2="496" y2="69" class="rho"/>
<text x="502" y="73" class="lbl-r">ρ(r) raw</text>
<line x1="472" y1="87" x2="496" y2="87" class="phot"/>
<text x="502" y="91" class="lbl-p">photometric baryonic profile</text>
<line x1="472" y1="105" x2="496" y2="105" class="mbar"/>
<text x="502" y="109" class="lbl-m">MOND baryonic annulus</text>
<line x1="472" y1="123" x2="496" y2="123" class="mph"/>
<text x="502" y="127" class="lbl-m">MOND phantom annulus</text>
<text x="472" y="147" class="lbl-r">ρ peak: 98 M☉/pc²</text>
<text x="472" y="163" class="lbl-p">phot peak: 31.23 (arb.)</text>
<text x="472" y="179" class="lbl-m">Σbar peak: 26.99 M☉/pc²</text>
<text x="472" y="195" class="lbl-m">Σphantom peak: 73.08 M☉/pc²</text>
</g>
<rect x="775" y="55" width="170" height="170" class="preview-bg"/>
<defs><radialGradient id="g_UGC06628" cx="0.5" cy="0.5" r="0.5">
  <stop offset="0.0000" stop-color="rgb(184,46,46)"/>
  <stop offset="0.0313" stop-color="rgb(112,28,28)"/>
  <stop offset="0.0625" stop-color="rgb(106,27,27)"/>
  <stop offset="0.0938" stop-color="rgb(104,26,26)"/>
  <stop offset="0.1250" stop-color="rgb(102,26,26)"/>
  <stop offset="0.1563" stop-color="rgb(100,25,25)"/>
  <stop offset="0.1875" stop-color="rgb(98,25,25)"/>
  <stop offset="0.2188" stop-color="rgb(96,24,24)"/>
  <stop offset="0.2500" stop-color="rgb(94,24,24)"/>
  <stop offset="0.2813" stop-color="rgb(92,23,23)"/>
  <stop offset="0.3125" stop-color="rgb(90,23,23)"/>
  <stop offset="0.3438" stop-color="rgb(88,22,22)"/>
  <stop offset="0.3750" stop-color="rgb(87,22,22)"/>
  <stop offset="0.4063" stop-color="rgb(86,22,22)"/>
  <stop offset="0.4375" stop-color="rgb(85,21,21)"/>
  <stop offset="0.4688" stop-color="rgb(84,21,21)"/>
  <stop offset="0.5000" stop-color="rgb(83,21,21)"/>
  <stop offset="0.5313" stop-color="rgb(82,21,21)"/>
  <stop offset="0.5625" stop-color="rgb(81,20,20)"/>
  <stop offset="0.5938" stop-color="rgb(80,20,20)"/>
  <stop offset="0.6250" stop-color="rgb(79,20,20)"/>
  <stop offset="0.6563" stop-color="rgb(78,20,20)"/>
  <stop offset="0.6875" stop-color="rgb(77,19,19)"/>
  <stop offset="0.7188" stop-color="rgb(76,19,19)"/>
  <stop offset="0.7500" stop-color="rgb(75,19,19)"/>
  <stop offset="0.7813" stop-color="rgb(74,19,19)"/>
  <stop offset="0.8125" stop-color="rgb(73,18,18)"/>
  <stop offset="0.8438" stop-color="rgb(72,18,18)"/>
  <stop offset="0.8750" stop-color="rgb(72,18,18)"/>
  <stop offset="0.9063" stop-color="rgb(71,18,18)"/>
  <stop offset="0.9375" stop-color="rgb(70,18,18)"/>
  <stop offset="0.9688" stop-color="rgb(69,17,17)"/>
  <stop offset="1.0000" stop-color="rgb(0,0,0)"/>
</radialGradient></defs>
<circle cx="860" cy="140" r="81" fill="url(#g_UGC06628)"/>
<text x="860" y="49" text-anchor="middle" class="preview-lbl">face-on luminance from ρ(r)</text>
<text x="860" y="239" text-anchor="middle" class="preview-lbl">edge at r = 7.8 kpc</text>
</svg>