<svg xmlns="http://www.w3.org/2000/svg" viewBox="0 0 960 450" width="960" height="450" font-family="sans-serif" font-size="12">
<style>
  .ax { stroke: #333; stroke-width: 1; fill: none; }
  .grid { stroke: #ddd; stroke-width: 0.5; fill: none; }
  .lbl { fill: #333; }
  .lbl-l { fill: #0066cc; }
  .lbl-r { fill: #b03030; }
  .obs { fill: #222; }
  .err { stroke: #555; stroke-width: 0.8; fill: none; }
  .fw { stroke: #0066cc; stroke-width: 2.2; fill: none; }
  .nt { stroke: #cc6600; stroke-width: 1.6; fill: none; stroke-dasharray: 5,3; }
  .mond { stroke: #7b2cbf; stroke-width: 1.8; fill: none; stroke-dasharray: 7,3; }
  .lbl-p { fill: #cc7000; }
  .lbl-m { fill: #7b2cbf; }
  .rho { stroke: #b03030; stroke-width: 2.0; fill: none; }
  .phot { stroke: #cc7000; stroke-width: 1.8; fill: none; }
  .mbar { stroke: #8e44ad; stroke-width: 1.8; fill: none; opacity: 0.9; }
  .mph { stroke: #c77dff; stroke-width: 1.6; fill: none; stroke-dasharray: 4,3; opacity: 0.95; }
  .remap-x { stroke: #cc2222; stroke-width: 1.5; fill: none; }
  .remap-link { stroke: #cc2222; stroke-width: 0.8; stroke-dasharray: 3,3; fill: none; opacity: 0.7; }
  .title { fill: #111; font-size: 16px; font-weight: 600; }
  .subtitle { fill: #555; font-size: 11px; }
  .preview-bg { fill: #000; }
  .preview-lbl { fill: #888; font-size: 10px; }
  .legend { font-size: 11px; }
</style>
<text x="378.5" y="22" text-anchor="middle" class="title">UGC05253</text>
<text x="378.5" y="38" text-anchor="middle" class="subtitle">rMax=53.3 kpc, N=73, FW=4.1 km/s, 1.7%, 1.24σ, MOND=15.3 km/s, 6.6%, 2.63σ, amp=260, remap Δr=0.058 rc=0.258</text>
<line x1="70" y1="395.0" x2="687" y2="395.0" class="grid"/>
<text x="64" y="399.0" text-anchor="end" class="lbl-l">0</text>
<line x1="70" y1="327.0" x2="687" y2="327.0" class="grid"/>
<text x="64" y="331.0" text-anchor="end" class="lbl-l">77</text>
<line x1="70" y1="259.0" x2="687" y2="259.0" class="grid"/>
<text x="64" y="263.0" text-anchor="end" class="lbl-l">155</text>
<line x1="70" y1="191.0" x2="687" y2="191.0" class="grid"/>
<text x="64" y="195.0" text-anchor="end" class="lbl-l">232</text>
<line x1="70" y1="123.0" x2="687" y2="123.0" class="grid"/>
<text x="64" y="127.0" text-anchor="end" class="lbl-l">309</text>
<line x1="70" y1="55.0" x2="687" y2="55.0" class="grid"/>
<text x="64" y="59.0" text-anchor="end" class="lbl-l">387</text>
<text x="693" y="399.0" text-anchor="start" class="lbl-r">0.0</text>
<text x="693" y="353.7" text-anchor="start" class="lbl-r">0.2</text>
<text x="693" y="308.3" text-anchor="start" class="lbl-r">0.4</text>
<text x="693" y="263.0" text-anchor="start" class="lbl-r">0.6</text>
<text x="693" y="217.7" text-anchor="start" class="lbl-r">0.8</text>
<text x="693" y="172.3" text-anchor="start" class="lbl-r">1.0</text>
<line x1="70.0" y1="55" x2="70.0" y2="395" class="grid"/>
<text x="70.0" y="411" text-anchor="middle" class="lbl">0.0</text>
<line x1="172.8" y1="55" x2="172.8" y2="395" class="grid"/>
<text x="172.8" y="411" text-anchor="middle" class="lbl">9.7</text>
<line x1="275.7" y1="55" x2="275.7" y2="395" class="grid"/>
<text x="275.7" y="411" text-anchor="middle" class="lbl">19.4</text>
<line x1="378.5" y1="55" x2="378.5" y2="395" class="grid"/>
<text x="378.5" y="411" text-anchor="middle" class="lbl">29.1</text>
<line x1="481.3" y1="55" x2="481.3" y2="395" class="grid"/>
<text x="481.3" y="411" text-anchor="middle" class="lbl">38.8</text>
<line x1="584.2" y1="55" x2="584.2" y2="395" class="grid"/>
<text x="584.2" y="411" text-anchor="middle" class="lbl">48.5</text>
<line x1="687.0" y1="55" x2="687.0" y2="395" class="grid"/>
<text x="687.0" y="411" text-anchor="middle" class="lbl">58.2</text>
<text x="378.5" y="438" text-anchor="middle" class="lbl">radius (kpc)</text>
<text x="16" y="225" text-anchor="middle" class="lbl-l" transform="rotate(-90, 16, 225)">velocity (km/s)</text>
<text x="724" y="225" text-anchor="middle" class="lbl-r" transform="rotate(-90, 724, 225)">profiles (normalized to peak)</text>
<rect x="70" y="55" width="617" height="340" class="ax"/>
<path d="M 70.0,168.3 L 72.8,175.2 L 75.6,182.0 L 78.5,188.8 L 81.3,195.7 L 84.1,202.5 L 86.9,209.4 L 89.7,216.2 L 92.5,223.0 L 95.4,229.9 L 98.2,236.7 L 101.0,243.5 L 103.8,250.4 L 106.6,257.2 L 109.4,264.1 L 112.3,270.9 L 115.1,277.7 L 117.9,284.6 L 120.7,291.4 L 123.5,298.2 L 126.3,305.1 L 129.2,306.3 L 132.0,307.2 L 134.8,308.1 L 137.6,309.0 L 140.4,309.9 L 143.3,310.9 L 146.1,311.8 L 148.9,312.7 L 151.7,313.6 L 154.5,314.5 L 157.3,315.4 L 160.2,316.3 L 163.0,317.2 L 165.8,318.1 L 168.6,319.0 L 171.4,319.9 L 174.2,320.8 L 177.1,321.7 L 179.9,322.7 L 182.7,323.6 L 185.5,324.5 L 188.3,325.4 L 191.1,326.3 L 194.0,327.2 L 196.8,328.1 L 199.6,329.0 L 202.4,329.9 L 205.2,330.8 L 208.1,331.7 L 210.9,332.6 L 213.7,333.5 L 216.5,334.4 L 219.3,334.9 L 222.1,335.2 L 225.0,335.6 L 227.8,335.9 L 230.6,336.3 L 233.4,336.6 L 236.2,337.0 L 239.0,337.3 L 241.9,337.7 L 244.7,338.0 L 247.5,338.4 L 250.3,338.7 L 253.1,339.1 L 255.9,339.4 L 258.8,339.8 L 261.6,340.1 L 264.4,340.5 L 267.2,340.8 L 270.0,341.2 L 272.8,341.5 L 275.7,341.9 L 278.5,342.2 L 281.3,342.6 L 284.1,342.9 L 286.9,343.3 L 289.8,343.6 L 292.6,344.0 L 295.4,344.3 L 298.2,344.7 L 301.0,345.0 L 303.8,345.4 L 306.7,345.7 L 309.5,346.1 L 312.3,346.4 L 315.1,346.8 L 317.9,347.1 L 320.7,347.5 L 323.6,347.8 L 326.4,348.2 L 329.2,348.5 L 332.0,348.9 L 334.8,349.2 L 337.6,349.6 L 340.5,349.9 L 343.3,350.3 L 346.1,350.6 L 348.9,351.0 L 351.7,351.3 L 354.6,351.7 L 357.4,352.0 L 360.2,352.4 L 363.0,352.7 L 365.8,353.1 L 368.6,353.4 L 371.5,353.8 L 374.3,354.1 L 377.1,354.5 L 379.9,354.8 L 382.7,355.2 L 385.5,355.5 L 388.4,355.9 L 391.2,356.2 L 394.0,356.6 L 396.8,356.9 L 399.6,357.3 L 402.4,357.7 L 405.3,358.0 L 408.1,358.4 L 410.9,358.7 L 413.7,359.1 L 416.5,359.4 L 419.4,359.5 L 422.2,359.7 L 425.0,359.8 L 427.8,360.0 L 430.6,360.1 L 433.4,360.3 L 436.3,360.5 L 439.1,360.6 L 441.9,360.8 L 444.7,360.9 L 447.5,361.1 L 450.3,361.3 L 453.2,361.4 L 456.0,361.6 L 458.8,361.7 L 461.6,361.9 L 464.4,362.1 L 467.2,362.2 L 470.1,362.4 L 472.9,362.5 L 475.7,362.7 L 478.5,362.8 L 481.3,363.0 L 484.2,363.2 L 487.0,363.3 L 489.8,363.5 L 492.6,363.6 L 495.4,363.8 L 498.2,364.0 L 501.1,364.1 L 503.9,364.3 L 506.7,364.4 L 509.5,364.6 L 512.3,364.7 L 515.1,364.9 L 518.0,365.1 L 520.8,365.2 L 523.6,365.4 L 526.4,365.5 L 529.2,365.7 L 532.0,365.9 L 534.9,366.0 L 537.7,366.2 L 540.5,366.3 L 543.3,366.5 L 546.1,366.7 L 548.9,366.8 L 551.8,367.0 L 554.6,367.1 L 557.4,367.3 L 560.2,367.4 L 563.0,367.6 L 565.9,367.8 L 568.7,367.9 L 571.5,368.1 L 574.3,368.2 L 577.1,368.4 L 579.9,368.6 L 582.8,368.7 L 585.6,368.9 L 588.4,369.0 L 591.2,369.2 L 594.0,369.4 L 596.8,369.5 L 599.7,369.7 L 602.5,369.8 L 605.3,370.0 L 608.1,370.1 L 610.9,370.3 L 613.7,370.5 L 616.6,371.0 L 619.4,372.7 L 622.2,374.3 L 625.0,376.0 L 627.8,377.6 L 630.7,379.3 L 633.5,380.9 L 636.3,382.5 L 639.1,384.2 L 641.9,385.8 L 644.7,387.5 L 647.6,389.1 L 650.4,390.8 L 653.2,392.4 L 656.0,394.1 L 658.8,395.0 L 661.6,395.0 L 664.5,395.0 L 667.3,395.0 L 670.1,395.0 L 672.9,395.0 L 675.7,395.0 L 678.5,395.0 L 681.4,395.0 L 684.2,395.0 L 687.0,395.0" class="rho"/>
<path d="M 71.4,168.3 L 72.7,260.2 L 74.0,311.4 L 75.4,335.7 L 76.7,349.8 L 78.1,359.3 L 79.4,365.8 L 80.7,370.2 L 82.1,374.2 L 83.5,376.8 L 84.7,378.8 L 86.1,381.0 L 87.5,382.4 L 88.8,383.5 L 90.1,384.4 L 91.5,385.2 L 92.9,385.8 L 94.2,386.4 L 95.6,387.0 L 96.9,387.6 L 98.2,388.2 L 99.6,388.8 L 101.0,389.3 L 102.2,389.8 L 103.6,390.3 L 105.0,390.7 L 106.3,391.1 L 107.6,391.4 L 109.0,391.7 L 110.3,392.0 L 111.7,392.3 L 113.0,392.5 L 114.3,392.7 L 115.7,392.9 L 117.1,393.1 L 118.3,393.2 L 119.7,393.4 L 121.1,393.5 L 122.4,393.6 L 122.9,393.6 L 123.8,393.7 L 125.1,393.7 L 127.8,393.9 L 129.2,393.9 L 130.4,394.0 L 131.8,394.0 L 138.6,394.2 L 139.9,394.2 L 140.6,394.2 L 141.3,394.2 L 142.6,394.2 L 143.9,394.2 L 145.3,394.2 L 146.7,394.3 L 158.2,394.4 L 176.0,394.6 L 193.1,394.8 L 211.5,394.9 L 228.8,394.9 L 246.1,394.9 L 264.5,394.9 L 281.7,394.9 L 299.0,395.0 L 317.4,395.0 L 353.1,395.0 L 387.6,395.0 L 423.3,395.0 L 458.9,395.0 L 493.5,395.0 L 529.1,395.0 L 564.8,395.0 L 599.3,395.0 L 635.0,395.0" class="phot"/>
<path d="M 71.4,171.1 L 72.7,168.3 L 74.0,204.3 L 75.4,254.8 L 76.7,290.3 L 78.1,314.7 L 79.4,329.6 L 80.7,338.4 L 82.1,347.1 L 83.5,354.3 L 84.7,357.5 L 86.1,361.2 L 87.5,365.8 L 88.8,369.1 L 90.1,371.0 L 91.5,372.4 L 92.9,373.3 L 94.2,373.6 L 95.6,373.7 L 96.9,374.0 L 98.2,374.5 L 99.6,375.4 L 101.0,376.4 L 102.2,377.5 L 103.6,378.7 L 105.0,379.9 L 106.3,381.1 L 107.6,381.8 L 109.0,382.3 L 110.3,383.1 L 111.7,384.1 L 113.0,385.0 L 114.3,385.9 L 115.7,386.6 L 117.1,387.2 L 118.3,387.8 L 119.7,388.3 L 121.1,388.8 L 122.4,389.2 L 122.9,389.5 L 123.8,389.7 L 125.1,390.0 L 127.8,390.5 L 129.2,390.9 L 130.4,391.4 L 131.8,391.7 L 138.6,391.9 L 139.9,391.8 L 140.6,391.8 L 141.3,391.9 L 142.6,391.8 L 143.9,391.7 L 145.3,391.7 L 146.7,391.7 L 158.2,392.2 L 176.0,393.0 L 193.1,393.7 L 211.5,394.4 L 228.8,394.8 L 246.1,394.8 L 264.5,394.7 L 281.7,394.6 L 299.0,394.6 L 317.4,394.7 L 353.1,394.8 L 387.6,394.9 L 423.3,394.9 L 458.9,395.0 L 493.5,395.0 L 529.1,395.0 L 564.8,394.9 L 599.3,394.9 L 635.0,395.0" class="mbar"/>
<path d="M 71.4,361.8 L 72.7,362.5 L 74.0,350.5 L 75.4,329.0 L 76.7,306.0 L 78.1,282.9 L 79.4,263.5 L 80.7,248.1 L 82.1,232.7 L 83.5,219.2 L 84.7,211.0 L 86.1,202.7 L 87.5,193.5 L 88.8,186.7 L 90.1,182.2 L 91.5,179.1 L 92.9,177.3 L 94.2,176.6 L 95.6,176.5 L 96.9,176.2 L 98.2,175.6 L 99.6,174.6 L 101.0,173.4 L 102.2,172.2 L 103.6,170.9 L 105.0,169.8 L 106.3,168.8 L 107.6,168.5 L 109.0,168.8 L 110.3,168.7 L 111.7,168.3 L 113.0,168.4 L 114.3,168.6 L 115.7,169.1 L 117.1,169.8 L 118.3,170.7 L 119.7,171.7 L 121.1,172.9 L 122.4,174.1 L 122.9,175.0 L 123.8,175.9 L 125.1,177.3 L 127.8,179.4 L 129.2,181.7 L 130.4,183.7 L 131.8,186.4 L 138.6,190.7 L 139.9,194.5 L 140.6,196.4 L 141.3,197.4 L 142.6,198.2 L 143.9,199.2 L 145.3,200.4 L 146.7,202.7 L 158.2,210.2 L 176.0,223.4 L 193.1,239.9 L 211.5,257.8 L 228.8,272.7 L 246.1,282.4 L 264.5,288.3 L 281.7,293.3 L 299.0,299.0 L 317.4,304.8 L 353.1,312.4 L 387.6,322.2 L 423.3,330.8 L 458.9,337.2 L 493.5,342.2 L 529.1,344.7 L 564.8,344.9 L 599.3,347.1 L 635.0,351.5" class="mph"/>
<path d="M 76.2,317.5 L 82.3,287.9 L 88.5,267.0 L 94.7,251.0 L 100.8,238.4 L 107.0,228.4 L 113.2,220.5 L 119.4,214.5 L 125.5,210.2 L 131.7,206.7 L 137.9,203.1 L 144.0,199.4 L 150.2,195.6 L 156.4,191.9 L 162.6,188.3 L 168.7,184.8 L 174.9,181.4 L 181.1,178.1 L 187.2,175.0 L 193.4,172.1 L 199.6,169.3 L 205.7,166.6 L 211.9,164.1 L 218.1,161.7 L 224.3,159.4 L 230.4,157.1 L 236.6,154.9 L 242.8,152.6 L 248.9,150.4 L 255.1,148.3 L 261.3,146.1 L 267.4,144.0 L 273.6,142.0 L 279.8,140.0 L 286.0,138.1 L 292.1,136.1 L 298.3,134.3 L 304.5,132.5 L 310.6,130.7 L 316.8,129.0 L 323.0,127.4 L 329.1,125.8 L 335.3,124.2 L 341.5,122.7 L 347.7,121.2 L 353.8,119.8 L 360.0,118.5 L 366.2,117.1 L 372.3,115.9 L 378.5,114.7 L 384.7,113.5 L 390.8,112.4 L 397.0,111.3 L 403.2,110.3 L 409.4,109.3 L 415.5,108.4 L 421.7,107.5 L 427.9,106.6 L 434.0,105.7 L 440.2,104.9 L 446.4,104.0 L 452.5,103.2 L 458.7,102.3 L 464.9,101.5 L 471.1,100.7 L 477.2,99.9 L 483.4,99.1 L 489.6,98.3 L 495.7,97.6 L 501.9,96.8 L 508.1,96.1 L 514.2,95.4 L 520.4,94.7 L 526.6,94.0 L 532.8,93.3 L 538.9,92.7 L 545.1,92.0 L 551.3,91.4 L 557.4,90.8 L 563.6,90.2 L 569.8,89.6 L 575.9,89.0 L 582.1,88.5 L 588.3,88.0 L 594.5,87.5 L 600.6,87.0 L 606.8,86.5 L 613.0,86.0 L 619.1,85.6 L 625.3,85.5 L 631.5,85.7 L 637.6,86.1 L 643.8,86.9 L 650.0,88.0 L 656.2,89.4 L 662.3,91.0 L 668.5,92.5 L 674.7,94.1 L 680.8,95.6 L 687.0,97.1" class="nt"/>
<path d="M 71.4,284.3 L 72.7,232.1 L 74.0,207.2 L 75.4,195.5 L 76.7,189.6 L 78.1,187.0 L 79.4,185.5 L 80.7,183.6 L 82.1,182.7 L 83.5,183.0 L 84.7,182.1 L 86.1,181.5 L 87.5,181.6 L 88.8,181.8 L 90.1,181.8 L 91.5,181.7 L 92.9,181.5 L 94.2,180.9 L 95.6,180.1 L 96.9,179.0 L 98.2,178.0 L 99.6,176.9 L 101.0,175.9 L 102.2,175.1 L 103.6,174.3 L 105.0,173.7 L 106.3,173.4 L 107.6,173.0 L 109.0,172.6 L 110.3,172.3 L 111.7,172.1 L 113.0,172.1 L 114.3,172.1 L 115.7,172.3 L 117.1,172.5 L 118.3,172.7 L 119.7,173.0 L 121.1,173.3 L 122.4,173.6 L 122.9,173.8 L 123.8,174.0 L 125.1,174.4 L 127.8,175.2 L 129.2,175.7 L 130.4,176.1 L 131.8,176.7 L 138.6,178.8 L 139.9,179.1 L 140.6,179.2 L 141.3,179.4 L 142.6,179.6 L 143.9,179.7 L 145.3,179.8 L 146.7,179.8 L 158.2,180.1 L 176.0,181.8 L 193.1,182.6 L 211.5,186.3 L 228.8,189.4 L 246.1,191.5 L 264.5,192.5 L 281.7,192.4 L 299.0,192.6 L 317.4,192.5 L 353.1,192.3 L 387.6,193.1 L 423.3,194.4 L 458.9,195.4 L 493.5,196.4 L 529.1,197.1 L 564.8,196.4 L 599.3,195.4 L 635.0,195.7" class="mond"/>
<path d="M 75.1,348.0 L 80.3,314.7 L 85.4,281.8 L 90.6,252.8 L 95.7,228.7 L 100.8,208.9 L 106.0,193.4 L 111.1,182.3 L 116.3,175.4 L 121.4,172.6 L 126.6,173.2 L 131.7,175.8 L 136.8,178.9 L 142.0,181.1 L 147.1,182.5 L 152.3,182.8 L 157.4,182.7 L 162.6,182.1 L 167.7,181.3 L 172.8,180.3 L 178.0,179.3 L 183.1,178.4 L 188.3,177.6 L 193.4,177.0 L 198.5,176.7 L 203.7,176.7 L 208.8,177.2 L 214.0,178.0 L 219.1,179.1 L 224.3,180.2 L 229.4,181.2 L 234.5,181.9 L 239.7,182.3 L 244.8,182.6 L 250.0,182.6 L 255.1,182.6 L 260.2,182.6 L 265.4,182.4 L 270.5,182.2 L 275.7,182.0 L 280.8,181.7 L 285.9,181.5 L 291.1,181.3 L 296.2,181.0 L 301.4,180.8 L 306.5,180.6 L 311.7,180.5 L 316.8,180.3 L 321.9,180.2 L 327.1,180.2 L 332.2,180.2 L 337.4,180.3 L 342.5,180.4 L 347.7,180.6 L 352.8,180.8 L 357.9,181.1 L 363.1,181.5 L 368.2,182.0 L 373.4,182.6 L 378.5,183.2 L 383.6,184.0 L 388.8,184.9 L 393.9,186.0 L 399.1,187.2 L 404.2,188.6 L 409.4,190.2 L 414.5,191.9 L 419.6,193.7 L 424.8,195.4 L 429.9,197.0 L 435.1,198.5 L 440.2,199.8 L 445.3,201.1 L 450.5,202.2 L 455.6,203.3 L 460.8,204.3 L 465.9,205.2 L 471.1,206.1 L 476.2,206.9 L 481.3,207.6 L 486.5,208.4 L 491.6,209.0 L 496.8,209.7 L 501.9,210.2 L 507.0,210.8 L 512.2,211.3 L 517.3,211.8 L 522.5,212.2 L 527.6,212.5 L 532.8,212.9 L 537.9,213.1 L 543.0,213.3 L 548.2,213.4 L 553.3,213.4 L 558.5,213.4 L 563.6,213.2 L 568.7,212.8 L 573.9,212.4 L 579.0,211.7 L 584.2,210.7 L 589.3,209.5 L 594.5,207.9 L 599.6,206.1 L 604.7,203.9 L 609.9,201.8 L 615.0,200.0 L 620.2,198.9 L 625.3,199.2 L 630.4,200.8 L 635.6,203.8 L 640.7,207.9 L 645.9,212.8 L 651.0,218.2 L 656.2,223.7 L 661.3,229.0 L 666.4,233.9 L 671.6,238.5 L 676.7,242.6 L 681.9,246.4 L 687.0,249.8" class="fw"/>
<line x1="99.33" y1="186.72" x2="107.73" y2="195.12" class="remap-x"/>
<line x1="99.33" y1="195.12" x2="107.73" y2="186.72" class="remap-x"/>
<line x1="71.38" y1="161.54" x2="71.38" y2="220.30" class="err"/>
<line x1="68.38" y1="161.54" x2="74.38" y2="161.54" class="err"/>
<line x1="68.38" y1="220.30" x2="74.38" y2="220.30" class="err"/>
<circle cx="71.38" cy="190.92" r="2.5" class="obs"/>
<line x1="100.04" y1="185.84" x2="108.44" y2="194.24" class="remap-x"/>
<line x1="100.04" y1="194.24" x2="108.44" y2="185.84" class="remap-x"/>
<line x1="72.65" y1="175.17" x2="72.65" y2="204.91" class="err"/>
<line x1="69.65" y1="175.17" x2="75.65" y2="175.17" class="err"/>
<line x1="69.65" y1="204.91" x2="75.65" y2="204.91" class="err"/>
<circle cx="72.65" cy="190.04" r="2.5" class="obs"/>
<line x1="100.81" y1="184.96" x2="109.21" y2="193.36" class="remap-x"/>
<line x1="100.81" y1="193.36" x2="109.21" y2="184.96" class="remap-x"/>
<line x1="74.03" y1="176.32" x2="74.03" y2="202.00" class="err"/>
<line x1="71.03" y1="176.32" x2="77.03" y2="176.32" class="err"/>
<line x1="71.03" y1="202.00" x2="77.03" y2="202.00" class="err"/>
<circle cx="74.03" cy="189.16" r="2.5" class="obs"/>
<line x1="101.59" y1="184.08" x2="109.99" y2="192.48" class="remap-x"/>
<line x1="101.59" y1="192.48" x2="109.99" y2="184.08" class="remap-x"/>
<line x1="75.41" y1="178.96" x2="75.41" y2="197.61" class="err"/>
<line x1="72.41" y1="178.96" x2="78.41" y2="178.96" class="err"/>
<line x1="72.41" y1="197.61" x2="78.41" y2="197.61" class="err"/>
<circle cx="75.41" cy="188.28" r="2.5" class="obs"/>
<line x1="102.32" y1="183.20" x2="110.72" y2="191.60" class="remap-x"/>
<line x1="102.32" y1="191.60" x2="110.72" y2="183.20" class="remap-x"/>
<line x1="76.68" y1="179.38" x2="76.68" y2="195.42" class="err"/>
<line x1="73.68" y1="179.38" x2="79.68" y2="179.38" class="err"/>
<line x1="73.68" y1="195.42" x2="79.68" y2="195.42" class="err"/>
<circle cx="76.68" cy="187.40" r="2.5" class="obs"/>
<line x1="103.11" y1="182.32" x2="111.51" y2="190.72" class="remap-x"/>
<line x1="103.11" y1="190.72" x2="111.51" y2="182.32" class="remap-x"/>
<line x1="78.06" y1="177.46" x2="78.06" y2="195.58" class="err"/>
<line x1="75.06" y1="177.46" x2="81.06" y2="177.46" class="err"/>
<line x1="75.06" y1="195.58" x2="81.06" y2="195.58" class="err"/>
<circle cx="78.06" cy="186.52" r="2.5" class="obs"/>
<line x1="103.90" y1="181.44" x2="112.30" y2="189.84" class="remap-x"/>
<line x1="103.90" y1="189.84" x2="112.30" y2="181.44" class="remap-x"/>
<line x1="79.44" y1="176.89" x2="79.44" y2="194.39" class="err"/>
<line x1="76.44" y1="176.89" x2="82.44" y2="176.89" class="err"/>
<line x1="76.44" y1="194.39" x2="82.44" y2="194.39" class="err"/>
<circle cx="79.44" cy="185.64" r="2.5" class="obs"/>
<line x1="104.64" y1="180.56" x2="113.04" y2="188.96" class="remap-x"/>
<line x1="104.64" y1="188.96" x2="113.04" y2="180.56" class="remap-x"/>
<line x1="80.71" y1="181.67" x2="80.71" y2="187.85" class="err"/>
<line x1="77.71" y1="181.67" x2="83.71" y2="181.67" class="err"/>
<line x1="77.71" y1="187.85" x2="83.71" y2="187.85" class="err"/>
<circle cx="80.71" cy="184.76" r="2.5" class="obs"/>
<line x1="105.45" y1="179.68" x2="113.85" y2="188.08" class="remap-x"/>
<line x1="105.45" y1="188.08" x2="113.85" y2="179.68" class="remap-x"/>
<line x1="82.09" y1="181.09" x2="82.09" y2="186.68" class="err"/>
<line x1="79.09" y1="181.09" x2="85.09" y2="181.09" class="err"/>
<line x1="79.09" y1="186.68" x2="85.09" y2="186.68" class="err"/>
<circle cx="82.09" cy="183.88" r="2.5" class="obs"/>
<line x1="106.26" y1="179.68" x2="114.66" y2="188.08" class="remap-x"/>
<line x1="106.26" y1="188.08" x2="114.66" y2="179.68" class="remap-x"/>
<line x1="83.47" y1="179.32" x2="83.47" y2="188.45" class="err"/>
<line x1="80.47" y1="179.32" x2="86.47" y2="179.32" class="err"/>
<line x1="80.47" y1="188.45" x2="86.47" y2="188.45" class="err"/>
<circle cx="83.47" cy="183.88" r="2.5" class="obs"/>
<line x1="107.02" y1="178.80" x2="115.42" y2="187.20" class="remap-x"/>
<line x1="107.02" y1="187.20" x2="115.42" y2="178.80" class="remap-x"/>
<line x1="84.74" y1="179.89" x2="84.74" y2="186.12" class="err"/>
<line x1="81.74" y1="179.89" x2="87.74" y2="179.89" class="err"/>
<line x1="81.74" y1="186.12" x2="87.74" y2="186.12" class="err"/>
<circle cx="84.74" cy="183.00" r="2.5" class="obs"/>
<line x1="107.84" y1="177.92" x2="116.24" y2="186.32" class="remap-x"/>
<line x1="107.84" y1="186.32" x2="116.24" y2="177.92" class="remap-x"/>
<line x1="86.12" y1="179.84" x2="86.12" y2="184.41" class="err"/>
<line x1="83.12" y1="179.84" x2="89.12" y2="179.84" class="err"/>
<line x1="83.12" y1="184.41" x2="89.12" y2="184.41" class="err"/>
<circle cx="86.12" cy="182.12" r="2.5" class="obs"/>
<line x1="108.67" y1="177.92" x2="117.07" y2="186.32" class="remap-x"/>
<line x1="108.67" y1="186.32" x2="117.07" y2="177.92" class="remap-x"/>
<line x1="87.49" y1="180.58" x2="87.49" y2="183.66" class="err"/>
<line x1="84.49" y1="180.58" x2="90.49" y2="180.58" class="err"/>
<line x1="84.49" y1="183.66" x2="90.49" y2="183.66" class="err"/>
<circle cx="87.49" cy="182.12" r="2.5" class="obs"/>
<line x1="109.44" y1="177.04" x2="117.84" y2="185.44" class="remap-x"/>
<line x1="109.44" y1="185.44" x2="117.84" y2="177.04" class="remap-x"/>
<line x1="88.77" y1="179.54" x2="88.77" y2="182.95" class="err"/>
<line x1="85.77" y1="179.54" x2="91.77" y2="179.54" class="err"/>
<line x1="85.77" y1="182.95" x2="91.77" y2="182.95" class="err"/>
<circle cx="88.77" cy="181.24" r="2.5" class="obs"/>
<line x1="110.28" y1="176.16" x2="118.68" y2="184.56" class="remap-x"/>
<line x1="110.28" y1="184.56" x2="118.68" y2="176.16" class="remap-x"/>
<line x1="90.15" y1="177.65" x2="90.15" y2="183.08" class="err"/>
<line x1="87.15" y1="177.65" x2="93.15" y2="177.65" class="err"/>
<line x1="87.15" y1="183.08" x2="93.15" y2="183.08" class="err"/>
<circle cx="90.15" cy="180.36" r="2.5" class="obs"/>
<line x1="111.13" y1="176.16" x2="119.53" y2="184.56" class="remap-x"/>
<line x1="111.13" y1="184.56" x2="119.53" y2="176.16" class="remap-x"/>
<line x1="91.52" y1="178.96" x2="91.52" y2="181.77" class="err"/>
<line x1="88.52" y1="178.96" x2="94.52" y2="178.96" class="err"/>
<line x1="88.52" y1="181.77" x2="94.52" y2="181.77" class="err"/>
<circle cx="91.52" cy="180.36" r="2.5" class="obs"/>
<line x1="111.98" y1="176.16" x2="120.38" y2="184.56" class="remap-x"/>
<line x1="111.98" y1="184.56" x2="120.38" y2="176.16" class="remap-x"/>
<line x1="92.90" y1="177.73" x2="92.90" y2="183.00" class="err"/>
<line x1="89.90" y1="177.73" x2="95.90" y2="177.73" class="err"/>
<line x1="89.90" y1="183.00" x2="95.90" y2="183.00" class="err"/>
<circle cx="92.90" cy="180.36" r="2.5" class="obs"/>
<line x1="112.78" y1="175.28" x2="121.18" y2="183.68" class="remap-x"/>
<line x1="112.78" y1="183.68" x2="121.18" y2="175.28" class="remap-x"/>
<line x1="94.17" y1="177.56" x2="94.17" y2="181.41" class="err"/>
<line x1="91.17" y1="177.56" x2="97.17" y2="177.56" class="err"/>
<line x1="91.17" y1="181.41" x2="97.17" y2="181.41" class="err"/>
<circle cx="94.17" cy="179.48" r="2.5" class="obs"/>
<line x1="113.64" y1="175.28" x2="122.04" y2="183.68" class="remap-x"/>
<line x1="113.64" y1="183.68" x2="122.04" y2="175.28" class="remap-x"/>
<line x1="95.55" y1="176.84" x2="95.55" y2="182.13" class="err"/>
<line x1="92.55" y1="176.84" x2="98.55" y2="176.84" class="err"/>
<line x1="92.55" y1="182.13" x2="98.55" y2="182.13" class="err"/>
<circle cx="95.55" cy="179.48" r="2.5" class="obs"/>
<line x1="114.51" y1="174.40" x2="122.91" y2="182.80" class="remap-x"/>
<line x1="114.51" y1="182.80" x2="122.91" y2="174.40" class="remap-x"/>
<line x1="96.93" y1="176.28" x2="96.93" y2="180.93" class="err"/>
<line x1="93.93" y1="176.28" x2="99.93" y2="176.28" class="err"/>
<line x1="93.93" y1="180.93" x2="99.93" y2="180.93" class="err"/>
<circle cx="96.93" cy="178.60" r="2.5" class="obs"/>
<line x1="115.32" y1="174.40" x2="123.72" y2="182.80" class="remap-x"/>
<line x1="115.32" y1="182.80" x2="123.72" y2="174.40" class="remap-x"/>
<line x1="98.20" y1="176.51" x2="98.20" y2="180.70" class="err"/>
<line x1="95.20" y1="176.51" x2="101.20" y2="176.51" class="err"/>
<line x1="95.20" y1="180.70" x2="101.20" y2="180.70" class="err"/>
<circle cx="98.20" cy="178.60" r="2.5" class="obs"/>
<line x1="116.20" y1="174.40" x2="124.60" y2="182.80" class="remap-x"/>
<line x1="116.20" y1="182.80" x2="124.60" y2="174.40" class="remap-x"/>
<line x1="99.58" y1="175.33" x2="99.58" y2="181.88" class="err"/>
<line x1="96.58" y1="175.33" x2="102.58" y2="175.33" class="err"/>
<line x1="96.58" y1="181.88" x2="102.58" y2="181.88" class="err"/>
<circle cx="99.58" cy="178.60" r="2.5" class="obs"/>
<line x1="117.09" y1="173.53" x2="125.49" y2="181.93" class="remap-x"/>
<line x1="117.09" y1="181.93" x2="125.49" y2="173.53" class="remap-x"/>
<line x1="100.96" y1="174.61" x2="100.96" y2="180.84" class="err"/>
<line x1="97.96" y1="174.61" x2="103.96" y2="174.61" class="err"/>
<line x1="97.96" y1="180.84" x2="103.96" y2="180.84" class="err"/>
<circle cx="100.96" cy="177.73" r="2.5" class="obs"/>
<line x1="117.91" y1="173.53" x2="126.31" y2="181.93" class="remap-x"/>
<line x1="117.91" y1="181.93" x2="126.31" y2="173.53" class="remap-x"/>
<line x1="102.23" y1="174.44" x2="102.23" y2="181.02" class="err"/>
<line x1="99.23" y1="174.44" x2="105.23" y2="174.44" class="err"/>
<line x1="99.23" y1="181.02" x2="105.23" y2="181.02" class="err"/>
<circle cx="102.23" cy="177.73" r="2.5" class="obs"/>
<line x1="118.81" y1="173.53" x2="127.21" y2="181.93" class="remap-x"/>
<line x1="118.81" y1="181.93" x2="127.21" y2="173.53" class="remap-x"/>
<line x1="103.61" y1="173.23" x2="103.61" y2="182.22" class="err"/>
<line x1="100.61" y1="173.23" x2="106.61" y2="173.23" class="err"/>
<line x1="100.61" y1="182.22" x2="106.61" y2="182.22" class="err"/>
<circle cx="103.61" cy="177.73" r="2.5" class="obs"/>
<line x1="119.72" y1="173.53" x2="128.12" y2="181.93" class="remap-x"/>
<line x1="119.72" y1="181.93" x2="128.12" y2="173.53" class="remap-x"/>
<line x1="104.99" y1="174.53" x2="104.99" y2="180.92" class="err"/>
<line x1="101.99" y1="174.53" x2="107.99" y2="174.53" class="err"/>
<line x1="101.99" y1="180.92" x2="107.99" y2="180.92" class="err"/>
<circle cx="104.99" cy="177.73" r="2.5" class="obs"/>
<line x1="120.56" y1="173.53" x2="128.96" y2="181.93" class="remap-x"/>
<line x1="120.56" y1="181.93" x2="128.96" y2="173.53" class="remap-x"/>
<line x1="106.26" y1="174.35" x2="106.26" y2="181.10" class="err"/>
<line x1="103.26" y1="174.35" x2="109.26" y2="174.35" class="err"/>
<line x1="103.26" y1="181.10" x2="109.26" y2="181.10" class="err"/>
<circle cx="106.26" cy="177.73" r="2.5" class="obs"/>
<line x1="121.47" y1="172.65" x2="129.87" y2="181.05" class="remap-x"/>
<line x1="121.47" y1="181.05" x2="129.87" y2="172.65" class="remap-x"/>
<line x1="107.64" y1="172.34" x2="107.64" y2="181.35" class="err"/>
<line x1="104.64" y1="172.34" x2="110.64" y2="172.34" class="err"/>
<line x1="104.64" y1="181.35" x2="110.64" y2="181.35" class="err"/>
<circle cx="107.64" cy="176.85" r="2.5" class="obs"/>
<line x1="122.39" y1="172.65" x2="130.79" y2="181.05" class="remap-x"/>
<line x1="122.39" y1="181.05" x2="130.79" y2="172.65" class="remap-x"/>
<line x1="109.02" y1="174.41" x2="109.02" y2="179.28" class="err"/>
<line x1="106.02" y1="174.41" x2="112.02" y2="174.41" class="err"/>
<line x1="106.02" y1="179.28" x2="112.02" y2="179.28" class="err"/>
<circle cx="109.02" cy="176.85" r="2.5" class="obs"/>
<line x1="123.25" y1="172.65" x2="131.65" y2="181.05" class="remap-x"/>
<line x1="123.25" y1="181.05" x2="131.65" y2="172.65" class="remap-x"/>
<line x1="110.29" y1="174.00" x2="110.29" y2="179.70" class="err"/>
<line x1="107.29" y1="174.00" x2="113.29" y2="174.00" class="err"/>
<line x1="107.29" y1="179.70" x2="113.29" y2="179.70" class="err"/>
<circle cx="110.29" cy="176.85" r="2.5" class="obs"/>
<line x1="124.18" y1="172.65" x2="132.58" y2="181.05" class="remap-x"/>
<line x1="124.18" y1="181.05" x2="132.58" y2="172.65" class="remap-x"/>
<line x1="111.67" y1="170.87" x2="111.67" y2="182.82" class="err"/>
<line x1="108.67" y1="170.87" x2="114.67" y2="170.87" class="err"/>
<line x1="108.67" y1="182.82" x2="114.67" y2="182.82" class="err"/>
<circle cx="111.67" cy="176.85" r="2.5" class="obs"/>
<line x1="125.12" y1="172.65" x2="133.52" y2="181.05" class="remap-x"/>
<line x1="125.12" y1="181.05" x2="133.52" y2="172.65" class="remap-x"/>
<line x1="113.05" y1="169.47" x2="113.05" y2="184.23" class="err"/>
<line x1="110.05" y1="169.47" x2="116.05" y2="169.47" class="err"/>
<line x1="110.05" y1="184.23" x2="116.05" y2="184.23" class="err"/>
<circle cx="113.05" cy="176.85" r="2.5" class="obs"/>
<line x1="125.99" y1="172.65" x2="134.39" y2="181.05" class="remap-x"/>
<line x1="125.99" y1="181.05" x2="134.39" y2="172.65" class="remap-x"/>
<line x1="114.32" y1="174.44" x2="114.32" y2="179.25" class="err"/>
<line x1="111.32" y1="174.44" x2="117.32" y2="174.44" class="err"/>
<line x1="111.32" y1="179.25" x2="117.32" y2="179.25" class="err"/>
<circle cx="114.32" cy="176.85" r="2.5" class="obs"/>
<line x1="126.94" y1="172.65" x2="135.34" y2="181.05" class="remap-x"/>
<line x1="126.94" y1="181.05" x2="135.34" y2="172.65" class="remap-x"/>
<line x1="115.70" y1="164.79" x2="115.70" y2="188.90" class="err"/>
<line x1="112.70" y1="164.79" x2="118.70" y2="164.79" class="err"/>
<line x1="112.70" y1="188.90" x2="118.70" y2="188.90" class="err"/>
<circle cx="115.70" cy="176.85" r="2.5" class="obs"/>
<line x1="127.90" y1="172.65" x2="136.30" y2="181.05" class="remap-x"/>
<line x1="127.90" y1="181.05" x2="136.30" y2="172.65" class="remap-x"/>
<line x1="117.08" y1="172.54" x2="117.08" y2="181.15" class="err"/>
<line x1="114.08" y1="172.54" x2="120.08" y2="172.54" class="err"/>
<line x1="114.08" y1="181.15" x2="120.08" y2="181.15" class="err"/>
<circle cx="117.08" cy="176.85" r="2.5" class="obs"/>
<line x1="128.79" y1="172.65" x2="137.19" y2="181.05" class="remap-x"/>
<line x1="128.79" y1="181.05" x2="137.19" y2="172.65" class="remap-x"/>
<line x1="118.35" y1="171.82" x2="118.35" y2="181.87" class="err"/>
<line x1="115.35" y1="171.82" x2="121.35" y2="171.82" class="err"/>
<line x1="115.35" y1="181.87" x2="121.35" y2="181.87" class="err"/>
<circle cx="118.35" cy="176.85" r="2.5" class="obs"/>
<line x1="129.75" y1="172.65" x2="138.15" y2="181.05" class="remap-x"/>
<line x1="129.75" y1="181.05" x2="138.15" y2="172.65" class="remap-x"/>
<line x1="119.73" y1="163.56" x2="119.73" y2="190.13" class="err"/>
<line x1="116.73" y1="163.56" x2="122.73" y2="163.56" class="err"/>
<line x1="116.73" y1="190.13" x2="122.73" y2="190.13" class="err"/>
<circle cx="119.73" cy="176.85" r="2.5" class="obs"/>
<line x1="130.73" y1="172.65" x2="139.13" y2="181.05" class="remap-x"/>
<line x1="130.73" y1="181.05" x2="139.13" y2="172.65" class="remap-x"/>
<line x1="121.11" y1="167.61" x2="121.11" y2="186.08" class="err"/>
<line x1="118.11" y1="167.61" x2="124.11" y2="167.61" class="err"/>
<line x1="118.11" y1="186.08" x2="124.11" y2="186.08" class="err"/>
<circle cx="121.11" cy="176.85" r="2.5" class="obs"/>
<line x1="131.63" y1="172.65" x2="140.03" y2="181.05" class="remap-x"/>
<line x1="131.63" y1="181.05" x2="140.03" y2="172.65" class="remap-x"/>
<line x1="122.38" y1="175.46" x2="122.38" y2="178.24" class="err"/>
<line x1="119.38" y1="175.46" x2="125.38" y2="175.46" class="err"/>
<line x1="119.38" y1="178.24" x2="125.38" y2="178.24" class="err"/>
<circle cx="122.38" cy="176.85" r="2.5" class="obs"/>
<line x1="132.01" y1="172.65" x2="140.41" y2="181.05" class="remap-x"/>
<line x1="132.01" y1="181.05" x2="140.41" y2="172.65" class="remap-x"/>
<line x1="122.91" y1="172.65" x2="122.91" y2="181.04" class="err"/>
<line x1="119.91" y1="172.65" x2="125.91" y2="172.65" class="err"/>
<line x1="119.91" y1="181.04" x2="125.91" y2="181.04" class="err"/>
<circle cx="122.91" cy="176.85" r="2.5" class="obs"/>
<line x1="132.61" y1="172.65" x2="141.01" y2="181.05" class="remap-x"/>
<line x1="132.61" y1="181.05" x2="141.01" y2="172.65" class="remap-x"/>
<line x1="123.76" y1="173.01" x2="123.76" y2="180.68" class="err"/>
<line x1="120.76" y1="173.01" x2="126.76" y2="173.01" class="err"/>
<line x1="120.76" y1="180.68" x2="126.76" y2="180.68" class="err"/>
<circle cx="123.76" cy="176.85" r="2.5" class="obs"/>
<line x1="133.60" y1="172.65" x2="142.00" y2="181.05" class="remap-x"/>
<line x1="133.60" y1="181.05" x2="142.00" y2="172.65" class="remap-x"/>
<line x1="125.13" y1="169.41" x2="125.13" y2="184.28" class="err"/>
<line x1="122.13" y1="169.41" x2="128.13" y2="169.41" class="err"/>
<line x1="122.13" y1="184.28" x2="128.13" y2="184.28" class="err"/>
<circle cx="125.13" cy="176.85" r="2.5" class="obs"/>
<line x1="135.52" y1="173.53" x2="143.92" y2="181.93" class="remap-x"/>
<line x1="135.52" y1="181.93" x2="143.92" y2="173.53" class="remap-x"/>
<line x1="127.78" y1="170.47" x2="127.78" y2="184.98" class="err"/>
<line x1="124.78" y1="170.47" x2="130.78" y2="170.47" class="err"/>
<line x1="124.78" y1="184.98" x2="130.78" y2="184.98" class="err"/>
<circle cx="127.78" cy="177.73" r="2.5" class="obs"/>
<line x1="136.53" y1="173.53" x2="144.93" y2="181.93" class="remap-x"/>
<line x1="136.53" y1="181.93" x2="144.93" y2="173.53" class="remap-x"/>
<line x1="129.16" y1="175.67" x2="129.16" y2="179.78" class="err"/>
<line x1="126.16" y1="175.67" x2="132.16" y2="175.67" class="err"/>
<line x1="126.16" y1="179.78" x2="132.16" y2="179.78" class="err"/>
<circle cx="129.16" cy="177.73" r="2.5" class="obs"/>
<line x1="137.47" y1="173.53" x2="145.87" y2="181.93" class="remap-x"/>
<line x1="137.47" y1="181.93" x2="145.87" y2="173.53" class="remap-x"/>
<line x1="130.44" y1="175.67" x2="130.44" y2="179.78" class="err"/>
<line x1="127.44" y1="175.67" x2="133.44" y2="175.67" class="err"/>
<line x1="127.44" y1="179.78" x2="133.44" y2="179.78" class="err"/>
<circle cx="130.44" cy="177.73" r="2.5" class="obs"/>
<line x1="138.49" y1="173.53" x2="146.89" y2="181.93" class="remap-x"/>
<line x1="138.49" y1="181.93" x2="146.89" y2="173.53" class="remap-x"/>
<line x1="131.81" y1="172.33" x2="131.81" y2="183.12" class="err"/>
<line x1="128.81" y1="172.33" x2="134.81" y2="172.33" class="err"/>
<line x1="128.81" y1="183.12" x2="134.81" y2="183.12" class="err"/>
<circle cx="131.81" cy="177.73" r="2.5" class="obs"/>
<line x1="143.58" y1="173.53" x2="151.98" y2="181.93" class="remap-x"/>
<line x1="143.58" y1="181.93" x2="151.98" y2="173.53" class="remap-x"/>
<line x1="138.60" y1="171.66" x2="138.60" y2="183.79" class="err"/>
<line x1="135.60" y1="171.66" x2="141.60" y2="171.66" class="err"/>
<line x1="135.60" y1="183.79" x2="141.60" y2="183.79" class="err"/>
<circle cx="138.60" cy="177.73" r="2.5" class="obs"/>
<line x1="144.56" y1="174.40" x2="152.96" y2="182.80" class="remap-x"/>
<line x1="144.56" y1="182.80" x2="152.96" y2="174.40" class="remap-x"/>
<line x1="139.87" y1="173.37" x2="139.87" y2="183.84" class="err"/>
<line x1="136.87" y1="173.37" x2="142.87" y2="173.37" class="err"/>
<line x1="136.87" y1="183.84" x2="142.87" y2="183.84" class="err"/>
<circle cx="139.87" cy="178.60" r="2.5" class="obs"/>
<line x1="145.13" y1="174.40" x2="153.53" y2="182.80" class="remap-x"/>
<line x1="145.13" y1="182.80" x2="153.53" y2="174.40" class="remap-x"/>
<line x1="140.61" y1="176.59" x2="140.61" y2="180.62" class="err"/>
<line x1="137.61" y1="176.59" x2="143.61" y2="176.59" class="err"/>
<line x1="137.61" y1="180.62" x2="143.61" y2="180.62" class="err"/>
<circle cx="140.61" cy="178.60" r="2.5" class="obs"/>
<line x1="145.62" y1="174.40" x2="154.02" y2="182.80" class="remap-x"/>
<line x1="145.62" y1="182.80" x2="154.02" y2="174.40" class="remap-x"/>
<line x1="141.25" y1="174.44" x2="141.25" y2="182.77" class="err"/>
<line x1="138.25" y1="174.44" x2="144.25" y2="174.44" class="err"/>
<line x1="138.25" y1="182.77" x2="144.25" y2="182.77" class="err"/>
<circle cx="141.25" cy="178.60" r="2.5" class="obs"/>
<line x1="146.68" y1="174.40" x2="155.08" y2="182.80" class="remap-x"/>
<line x1="146.68" y1="182.80" x2="155.08" y2="174.40" class="remap-x"/>
<line x1="142.63" y1="175.95" x2="142.63" y2="181.26" class="err"/>
<line x1="139.63" y1="175.95" x2="145.63" y2="175.95" class="err"/>
<line x1="139.63" y1="181.26" x2="145.63" y2="181.26" class="err"/>
<circle cx="142.63" cy="178.60" r="2.5" class="obs"/>
<line x1="147.67" y1="174.40" x2="156.07" y2="182.80" class="remap-x"/>
<line x1="147.67" y1="182.80" x2="156.07" y2="174.40" class="remap-x"/>
<line x1="143.90" y1="173.49" x2="143.90" y2="183.72" class="err"/>
<line x1="140.90" y1="173.49" x2="146.90" y2="173.49" class="err"/>
<line x1="140.90" y1="183.72" x2="146.90" y2="183.72" class="err"/>
<circle cx="143.90" cy="178.60" r="2.5" class="obs"/>
<line x1="148.74" y1="174.40" x2="157.14" y2="182.80" class="remap-x"/>
<line x1="148.74" y1="182.80" x2="157.14" y2="174.40" class="remap-x"/>
<line x1="145.28" y1="173.05" x2="145.28" y2="184.16" class="err"/>
<line x1="142.28" y1="173.05" x2="148.28" y2="173.05" class="err"/>
<line x1="142.28" y1="184.16" x2="148.28" y2="184.16" class="err"/>
<circle cx="145.28" cy="178.60" r="2.5" class="obs"/>
<line x1="149.82" y1="174.40" x2="158.22" y2="182.80" class="remap-x"/>
<line x1="149.82" y1="182.80" x2="158.22" y2="174.40" class="remap-x"/>
<line x1="146.66" y1="170.76" x2="146.66" y2="186.45" class="err"/>
<line x1="143.66" y1="170.76" x2="149.66" y2="170.76" class="err"/>
<line x1="143.66" y1="186.45" x2="149.66" y2="186.45" class="err"/>
<circle cx="146.66" cy="178.60" r="2.5" class="obs"/>
<line x1="159.12" y1="174.40" x2="167.52" y2="182.80" class="remap-x"/>
<line x1="159.12" y1="182.80" x2="167.52" y2="174.40" class="remap-x"/>
<line x1="158.21" y1="176.73" x2="158.21" y2="180.48" class="err"/>
<line x1="155.21" y1="176.73" x2="161.21" y2="176.73" class="err"/>
<line x1="155.21" y1="180.48" x2="161.21" y2="180.48" class="err"/>
<circle cx="158.21" cy="178.60" r="2.5" class="obs"/>
<line x1="174.26" y1="175.28" x2="182.66" y2="183.68" class="remap-x"/>
<line x1="174.26" y1="183.68" x2="182.66" y2="175.28" class="remap-x"/>
<line x1="176.03" y1="177.57" x2="176.03" y2="181.40" class="err"/>
<line x1="173.03" y1="177.57" x2="179.03" y2="177.57" class="err"/>
<line x1="173.03" y1="181.40" x2="179.03" y2="181.40" class="err"/>
<circle cx="176.03" cy="179.48" r="2.5" class="obs"/>
<line x1="189.69" y1="175.28" x2="198.09" y2="183.68" class="remap-x"/>
<line x1="189.69" y1="183.68" x2="198.09" y2="175.28" class="remap-x"/>
<line x1="193.10" y1="178.66" x2="193.10" y2="180.31" class="err"/>
<line x1="190.10" y1="178.66" x2="196.10" y2="178.66" class="err"/>
<line x1="190.10" y1="180.31" x2="196.10" y2="180.31" class="err"/>
<circle cx="193.10" cy="179.48" r="2.5" class="obs"/>
<line x1="207.37" y1="174.40" x2="215.77" y2="182.80" class="remap-x"/>
<line x1="207.37" y1="182.80" x2="215.77" y2="174.40" class="remap-x"/>
<line x1="211.55" y1="176.83" x2="211.55" y2="180.38" class="err"/>
<line x1="208.55" y1="176.83" x2="214.55" y2="176.83" class="err"/>
<line x1="208.55" y1="180.38" x2="214.55" y2="180.38" class="err"/>
<circle cx="211.55" cy="178.60" r="2.5" class="obs"/>
<line x1="228.83" y1="178.31" x2="228.83" y2="180.65" class="err"/>
<line x1="225.83" y1="178.31" x2="231.83" y2="178.31" class="err"/>
<line x1="225.83" y1="180.65" x2="231.83" y2="180.65" class="err"/>
<circle cx="228.83" cy="179.48" r="2.5" class="obs"/>
<line x1="246.11" y1="178.29" x2="246.11" y2="180.68" class="err"/>
<line x1="243.11" y1="178.29" x2="249.11" y2="178.29" class="err"/>
<line x1="243.11" y1="180.68" x2="249.11" y2="180.68" class="err"/>
<circle cx="246.11" cy="179.48" r="2.5" class="obs"/>
<line x1="264.45" y1="178.09" x2="264.45" y2="180.88" class="err"/>
<line x1="261.45" y1="178.09" x2="267.45" y2="178.09" class="err"/>
<line x1="261.45" y1="180.88" x2="267.45" y2="180.88" class="err"/>
<circle cx="264.45" cy="179.48" r="2.5" class="obs"/>
<line x1="281.74" y1="177.70" x2="281.74" y2="181.27" class="err"/>
<line x1="278.74" y1="177.70" x2="284.74" y2="177.70" class="err"/>
<line x1="278.74" y1="181.27" x2="284.74" y2="181.27" class="err"/>
<circle cx="281.74" cy="179.48" r="2.5" class="obs"/>
<line x1="299.02" y1="177.41" x2="299.02" y2="181.56" class="err"/>
<line x1="296.02" y1="177.41" x2="302.02" y2="177.41" class="err"/>
<line x1="296.02" y1="181.56" x2="302.02" y2="181.56" class="err"/>
<circle cx="299.02" cy="179.48" r="2.5" class="obs"/>
<line x1="317.36" y1="176.31" x2="317.36" y2="184.42" class="err"/>
<line x1="314.36" y1="176.31" x2="320.36" y2="176.31" class="err"/>
<line x1="314.36" y1="184.42" x2="320.36" y2="184.42" class="err"/>
<circle cx="317.36" cy="180.36" r="2.5" class="obs"/>
<line x1="353.09" y1="171.92" x2="353.09" y2="190.57" class="err"/>
<line x1="350.09" y1="171.92" x2="356.09" y2="171.92" class="err"/>
<line x1="350.09" y1="190.57" x2="356.09" y2="190.57" class="err"/>
<circle cx="353.09" cy="181.24" r="2.5" class="obs"/>
<line x1="387.55" y1="169.81" x2="387.55" y2="199.72" class="err"/>
<line x1="384.55" y1="169.81" x2="390.55" y2="169.81" class="err"/>
<line x1="384.55" y1="199.72" x2="390.55" y2="199.72" class="err"/>
<circle cx="387.55" cy="184.76" r="2.5" class="obs"/>
<line x1="423.28" y1="175.70" x2="423.28" y2="207.90" class="err"/>
<line x1="420.28" y1="175.70" x2="426.28" y2="175.70" class="err"/>
<line x1="420.28" y1="207.90" x2="426.28" y2="207.90" class="err"/>
<circle cx="423.28" cy="191.80" r="2.5" class="obs"/>
<line x1="458.91" y1="191.71" x2="458.91" y2="213.00" class="err"/>
<line x1="455.91" y1="191.71" x2="461.91" y2="191.71" class="err"/>
<line x1="455.91" y1="213.00" x2="461.91" y2="213.00" class="err"/>
<circle cx="458.91" cy="202.36" r="2.5" class="obs"/>
<line x1="493.47" y1="203.68" x2="493.47" y2="216.87" class="err"/>
<line x1="490.47" y1="203.68" x2="496.47" y2="203.68" class="err"/>
<line x1="490.47" y1="216.87" x2="496.47" y2="216.87" class="err"/>
<circle cx="493.47" cy="210.27" r="2.5" class="obs"/>
<line x1="529.10" y1="207.14" x2="529.10" y2="213.40" class="err"/>
<line x1="526.10" y1="207.14" x2="532.10" y2="207.14" class="err"/>
<line x1="526.10" y1="213.40" x2="532.10" y2="213.40" class="err"/>
<circle cx="529.10" cy="210.27" r="2.5" class="obs"/>
<line x1="564.83" y1="206.19" x2="564.83" y2="210.84" class="err"/>
<line x1="561.83" y1="206.19" x2="567.83" y2="206.19" class="err"/>
<line x1="561.83" y1="210.84" x2="567.83" y2="210.84" class="err"/>
<circle cx="564.83" cy="208.51" r="2.5" class="obs"/>
<line x1="599.29" y1="201.92" x2="599.29" y2="213.35" class="err"/>
<line x1="596.29" y1="201.92" x2="602.29" y2="201.92" class="err"/>
<line x1="596.29" y1="213.35" x2="602.29" y2="213.35" class="err"/>
<circle cx="599.29" cy="207.63" r="2.5" class="obs"/>
<line x1="635.02" y1="197.49" x2="635.02" y2="208.98" class="err"/>
<line x1="632.02" y1="197.49" x2="638.02" y2="197.49" class="err"/>
<line x1="632.02" y1="208.98" x2="638.02" y2="208.98" class="err"/>
<circle cx="635.02" cy="203.24" r="2.5" class="obs"/>
<g class="legend">
<line x1="82" y1="69" x2="106" y2="69" class="fw"/>
<text x="112" y="73" class="lbl-l">framework: 4.1 km/s, 1.7%, 1.24σ</text>
<line x1="82" y1="87" x2="106" y2="87" class="nt"/>
<text x="112" y="91" class="lbl-l">Newtonian: 53.5 km/s, 23.6%, 14.24σ</text>
<line x1="82" y1="105" x2="106" y2="105" class="mond"/>
<text x="112" y="109" class="lbl-m">MOND/RAR: 15.3 km/s, 6.6%, 2.63σ</text>
<circle cx="94" cy="123" r="2.5" class="obs"/>
<text x="112" y="127" class="lbl">observed V±err</text>
</g>
<g class="legend">
<line x1="472" y1="69" x2="496" y2="69" class="rho"/>
<text x="502" y="73" class="lbl-r">ρ(r) raw</text>
<line x1="472" y1="87" x2="496" y2="87" class="phot"/>
<text x="502" y="91" class="lbl-p">photometric baryonic profile</text>
<line x1="472" y1="105" x2="496" y2="105" class="mbar"/>
<text x="502" y="109" class="lbl-m">MOND baryonic annulus</text>
<line x1="472" y1="123" x2="496" y2="123" class="mph"/>
<text x="502" y="127" class="lbl-m">MOND phantom annulus</text>
<text x="472" y="147" class="lbl-r">ρ peak: 1034 M☉/pc²</text>
<text x="472" y="163" class="lbl-p">phot peak: 24542.97 (arb.)</text>
<text x="472" y="179" class="lbl-m">Σbar peak: 9491.58 M☉/pc²</text>
<text x="472" y="195" class="lbl-m">Σphantom peak: 186.41 M☉/pc²</text>
<line x1="90.00" y1="137.00" x2="98.00" y2="145.00" class="remap-x"/>
<line x1="90.00" y1="145.00" x2="98.00" y2="137.00" class="remap-x"/>
<text x="112" y="145" class="lbl">red X = remapped comparison radius</text>
</g>
<rect x="775" y="55" width="170" height="170" class="preview-bg"/>
<defs><radialGradient id="g_UGC05253" cx="0.5" cy="0.5" r="0.5">
  <stop offset="0.0000" stop-color="rgb(255,255,255)"/>
  <stop offset="0.0313" stop-color="rgb(255,255,255)"/>
  <stop offset="0.0625" stop-color="rgb(208,208,208)"/>
  <stop offset="0.0938" stop-color="rgb(152,152,152)"/>
  <stop offset="0.1250" stop-color="rgb(141,141,141)"/>
  <stop offset="0.1563" stop-color="rgb(134,134,134)"/>
  <stop offset="0.1875" stop-color="rgb(126,126,126)"/>
  <stop offset="0.2188" stop-color="rgb(119,119,119)"/>
  <stop offset="0.2500" stop-color="rgb(112,112,112)"/>
  <stop offset="0.2813" stop-color="rgb(109,109,109)"/>
  <stop offset="0.3125" stop-color="rgb(106,106,106)"/>
  <stop offset="0.3438" stop-color="rgb(103,103,103)"/>
  <stop offset="0.3750" stop-color="rgb(100,100,100)"/>
  <stop offset="0.4063" stop-color="rgb(97,97,97)"/>
  <stop offset="0.4375" stop-color="rgb(95,95,95)"/>
  <stop offset="0.4688" stop-color="rgb(92,92,92)"/>
  <stop offset="0.5000" stop-color="rgb(89,89,89)"/>
  <stop offset="0.5313" stop-color="rgb(86,86,86)"/>
  <stop offset="0.5625" stop-color="rgb(83,83,83)"/>
  <stop offset="0.5938" stop-color="rgb(81,81,81)"/>
  <stop offset="0.6250" stop-color="rgb(79,79,79)"/>
  <stop offset="0.6563" stop-color="rgb(78,78,78)"/>
  <stop offset="0.6875" stop-color="rgb(77,77,77)"/>
  <stop offset="0.7188" stop-color="rgb(76,76,76)"/>
  <stop offset="0.7500" stop-color="rgb(74,74,74)"/>
  <stop offset="0.7813" stop-color="rgb(73,73,73)"/>
  <stop offset="0.8125" stop-color="rgb(72,72,72)"/>
  <stop offset="0.8438" stop-color="rgb(70,70,70)"/>
  <stop offset="0.8750" stop-color="rgb(69,69,69)"/>
  <stop offset="0.9063" stop-color="rgb(68,68,68)"/>
  <stop offset="0.9375" stop-color="rgb(62,62,62)"/>
  <stop offset="0.9688" stop-color="rgb(31,31,31)"/>
  <stop offset="1.0000" stop-color="rgb(0,0,0)"/>
</radialGradient></defs>
<circle cx="860" cy="140" r="81" fill="url(#g_UGC05253)"/>
<text x="860" y="49" text-anchor="middle" class="preview-lbl">face-on luminance from ρ(r)</text>
<text x="860" y="239" text-anchor="middle" class="preview-lbl">edge at r = 55.4 kpc</text>
</svg>