<svg xmlns="http://www.w3.org/2000/svg" viewBox="0 0 720 420" width="720" height="420" font-family="sans-serif" font-size="12">
<style>
  .ax { stroke: #333; stroke-width: 1; fill: none; }
  .grid { stroke: #ddd; stroke-width: 0.5; fill: none; }
  .lbl { fill: #333; }
  .lbl-l { fill: #0066cc; }
  .lbl-r { fill: #b03030; }
  .obs { fill: #222; }
  .err { stroke: #555; stroke-width: 0.8; fill: none; }
  .fw { stroke: #0066cc; stroke-width: 2.2; fill: none; }
  .nt { stroke: #cc6600; stroke-width: 1.6; fill: none; stroke-dasharray: 5,3; }
  .rho { stroke: #b03030; stroke-width: 2.0; fill: none; }
  .sig { stroke: #b03030; stroke-width: 1.6; fill: none; stroke-dasharray: 4,2; opacity: 0.85; }
  .title { fill: #111; font-size: 16px; font-weight: 600; }
  .subtitle { fill: #555; font-size: 11px; }
  .legend { font-size: 11px; }
</style>
<text x="360.0" y="22" text-anchor="middle" class="title">UGC00731</text>
<text x="360.0" y="38" text-anchor="middle" class="subtitle">rMax=10.9 kpc, N=12, RMS=0.9 km/s (1.4%), amp=105</text>
<line x1="70" y1="365.0" x2="635" y2="365.0" class="grid"/>
<text x="64" y="369.0" text-anchor="end" class="lbl-l">0</text>
<line x1="70" y1="303.0" x2="635" y2="303.0" class="grid"/>
<text x="64" y="307.0" text-anchor="end" class="lbl-l">17</text>
<line x1="70" y1="241.0" x2="635" y2="241.0" class="grid"/>
<text x="64" y="245.0" text-anchor="end" class="lbl-l">34</text>
<line x1="70" y1="179.0" x2="635" y2="179.0" class="grid"/>
<text x="64" y="183.0" text-anchor="end" class="lbl-l">51</text>
<line x1="70" y1="116.99999999999999" x2="635" y2="116.99999999999999" class="grid"/>
<text x="64" y="120.99999999999999" text-anchor="end" class="lbl-l">68</text>
<line x1="70" y1="55.0" x2="635" y2="55.0" class="grid"/>
<text x="64" y="59.0" text-anchor="end" class="lbl-l">85</text>
<text x="641" y="369.0" text-anchor="start" class="lbl-r">0.0</text>
<text x="641" y="327.6666666666667" text-anchor="start" class="lbl-r">0.2</text>
<text x="641" y="286.33333333333337" text-anchor="start" class="lbl-r">0.4</text>
<text x="641" y="245.00000000000003" text-anchor="start" class="lbl-r">0.6</text>
<text x="641" y="203.66666666666666" text-anchor="start" class="lbl-r">0.8</text>
<text x="641" y="162.33333333333334" text-anchor="start" class="lbl-r">1.0</text>
<line x1="70.0" y1="55" x2="70.0" y2="365" class="grid"/>
<text x="70.0" y="381" text-anchor="middle" class="lbl">0.0</text>
<line x1="164.16666666666666" y1="55" x2="164.16666666666666" y2="365" class="grid"/>
<text x="164.16666666666666" y="381" text-anchor="middle" class="lbl">2.0</text>
<line x1="258.3333333333333" y1="55" x2="258.3333333333333" y2="365" class="grid"/>
<text x="258.3333333333333" y="381" text-anchor="middle" class="lbl">4.1</text>
<line x1="352.49999999999994" y1="55" x2="352.49999999999994" y2="365" class="grid"/>
<text x="352.49999999999994" y="381" text-anchor="middle" class="lbl">6.1</text>
<line x1="446.66666666666663" y1="55" x2="446.66666666666663" y2="365" class="grid"/>
<text x="446.66666666666663" y="381" text-anchor="middle" class="lbl">8.1</text>
<line x1="540.8333333333334" y1="55" x2="540.8333333333334" y2="365" class="grid"/>
<text x="540.8333333333334" y="381" text-anchor="middle" class="lbl">10.2</text>
<line x1="634.9999999999999" y1="55" x2="634.9999999999999" y2="365" class="grid"/>
<text x="634.9999999999999" y="381" text-anchor="middle" class="lbl">12.2</text>
<text x="352.5" y="408" text-anchor="middle" class="lbl">radius (kpc)</text>
<text x="16" y="210.0" text-anchor="middle" class="lbl-l" transform="rotate(-90, 16, 210.0)">velocity (km/s)</text>
<text x="704" y="210.0" text-anchor="middle" class="lbl-r" transform="rotate(-90, 704, 210.0)">mass profile (normalized to peak)</text>
<rect x="70" y="55" width="565" height="310" class="ax"/>
<path d="M 70.0,158.3 L 72.6,160.8 L 75.2,163.2 L 77.7,165.7 L 80.3,168.1 L 82.9,170.6 L 85.5,173.0 L 88.1,175.5 L 90.6,177.9 L 93.2,180.4 L 95.8,182.8 L 98.4,185.2 L 101.0,187.7 L 103.5,190.1 L 106.1,192.6 L 108.7,195.0 L 111.3,197.5 L 113.9,199.9 L 116.4,202.4 L 119.0,204.8 L 121.6,207.3 L 124.2,208.1 L 126.8,209.0 L 129.3,209.8 L 131.9,210.6 L 134.5,211.4 L 137.1,212.2 L 139.7,213.0 L 142.2,214.3 L 144.8,216.2 L 147.4,218.1 L 150.0,220.0 L 152.6,221.9 L 155.1,223.8 L 157.7,225.7 L 160.3,227.6 L 162.9,229.5 L 165.5,231.4 L 168.0,232.0 L 170.6,232.5 L 173.2,232.9 L 175.8,233.4 L 178.4,233.9 L 180.9,234.4 L 183.5,234.8 L 186.1,235.3 L 188.7,235.8 L 191.3,236.3 L 193.8,236.8 L 196.4,237.2 L 199.0,237.7 L 201.6,238.2 L 204.2,238.7 L 206.7,239.1 L 209.3,239.6 L 211.9,240.1 L 214.5,240.6 L 217.1,241.1 L 219.6,241.5 L 222.2,242.0 L 224.8,242.5 L 227.4,243.0 L 230.0,243.4 L 232.5,243.9 L 235.1,244.4 L 237.7,244.9 L 240.3,245.3 L 242.9,245.8 L 245.4,246.3 L 248.0,246.8 L 250.6,247.3 L 253.2,247.7 L 255.8,248.2 L 258.3,248.7 L 260.9,249.2 L 263.5,249.6 L 266.1,250.1 L 268.7,250.6 L 271.2,251.1 L 273.8,251.6 L 276.4,252.0 L 279.0,252.5 L 281.6,253.0 L 284.1,253.5 L 286.7,253.9 L 289.3,254.4 L 291.9,254.9 L 294.5,255.4 L 297.0,255.9 L 299.6,256.3 L 302.2,256.8 L 304.8,257.3 L 307.4,257.8 L 309.9,258.2 L 312.5,258.7 L 315.1,259.2 L 317.7,259.7 L 320.3,260.2 L 322.8,260.6 L 325.4,261.1 L 328.0,261.6 L 330.6,262.1 L 333.2,262.5 L 335.7,263.0 L 338.3,263.5 L 340.9,264.0 L 343.5,264.5 L 346.1,264.9 L 348.6,265.4 L 351.2,265.9 L 353.8,266.4 L 356.4,266.8 L 358.9,267.3 L 361.5,267.8 L 364.1,268.3 L 366.7,268.8 L 369.3,269.2 L 371.8,269.7 L 374.4,270.2 L 377.0,270.7 L 379.6,271.1 L 382.2,271.6 L 384.7,272.1 L 387.3,272.6 L 389.9,273.1 L 392.5,273.5 L 395.1,274.0 L 397.6,274.5 L 400.2,275.0 L 402.8,275.4 L 405.4,275.9 L 408.0,276.4 L 410.5,276.9 L 413.1,277.4 L 415.7,277.8 L 418.3,278.3 L 420.9,278.8 L 423.4,279.3 L 426.0,279.7 L 428.6,280.2 L 431.2,280.7 L 433.8,281.2 L 436.3,281.7 L 438.9,282.1 L 441.5,282.6 L 444.1,283.1 L 446.7,283.6 L 449.2,284.0 L 451.8,284.5 L 454.4,285.0 L 457.0,285.5 L 459.6,286.0 L 462.1,286.4 L 464.7,286.9 L 467.3,287.4 L 469.9,287.9 L 472.5,288.3 L 475.0,288.8 L 477.6,289.3 L 480.2,289.8 L 482.8,290.3 L 485.4,290.7 L 487.9,291.2 L 490.5,291.7 L 493.1,292.2 L 495.7,292.6 L 498.3,293.1 L 500.8,293.6 L 503.4,294.1 L 506.0,294.6 L 508.6,295.0 L 511.2,295.5 L 513.7,296.0 L 516.3,296.5 L 518.9,296.9 L 521.5,297.4 L 524.1,297.9 L 526.6,298.4 L 529.2,298.9 L 531.8,299.3 L 534.4,299.8 L 537.0,300.3 L 539.5,300.8 L 542.1,301.2 L 544.7,301.7 L 547.3,302.2 L 549.9,302.7 L 552.4,303.2 L 555.0,303.6 L 557.6,304.1 L 560.2,304.6 L 562.8,305.1 L 565.3,305.5 L 567.9,306.0 L 570.5,306.5 L 573.1,307.0 L 575.7,307.5 L 578.2,307.9 L 580.8,308.4 L 583.4,308.9 L 586.0,309.4 L 588.6,309.8 L 591.1,310.3 L 593.7,310.8 L 596.3,311.3 L 598.9,311.8 L 601.5,312.2 L 604.0,320.2 L 606.6,346.9 L 609.2,365.0 L 611.8,365.0 L 614.4,365.0 L 616.9,365.0 L 619.5,365.0 L 622.1,365.0 L 624.7,365.0 L 627.3,365.0 L 629.8,365.0 L 632.4,365.0 L 635.0,365.0" class="rho"/>
<path d="M 70.0,158.3 L 72.6,158.4 L 75.2,158.6 L 77.7,158.9 L 80.3,159.3 L 82.9,159.7 L 85.5,160.2 L 88.1,160.9 L 90.6,161.6 L 93.2,162.4 L 95.8,163.2 L 98.4,164.1 L 101.0,165.0 L 103.5,166.1 L 106.1,167.1 L 108.7,168.2 L 111.3,169.3 L 113.9,170.4 L 116.4,171.6 L 119.0,172.8 L 121.6,174.0 L 124.2,175.2 L 126.8,176.4 L 129.3,177.7 L 131.9,178.9 L 134.5,180.2 L 137.1,181.4 L 139.7,182.7 L 142.2,184.0 L 144.8,185.2 L 147.4,186.5 L 150.0,187.8 L 152.6,189.1 L 155.1,190.3 L 157.7,191.6 L 160.3,192.9 L 162.9,194.1 L 165.5,195.3 L 168.0,196.6 L 170.6,197.8 L 173.2,199.0 L 175.8,200.1 L 178.4,201.3 L 180.9,202.4 L 183.5,203.6 L 186.1,204.7 L 188.7,205.8 L 191.3,206.9 L 193.8,208.0 L 196.4,209.1 L 199.0,210.2 L 201.6,211.3 L 204.2,212.3 L 206.7,213.4 L 209.3,214.4 L 211.9,215.5 L 214.5,216.5 L 217.1,217.6 L 219.6,218.6 L 222.2,219.6 L 224.8,220.6 L 227.4,221.7 L 230.0,222.7 L 232.5,223.7 L 235.1,224.7 L 237.7,225.7 L 240.3,226.7 L 242.9,227.7 L 245.4,228.7 L 248.0,229.7 L 250.6,230.7 L 253.2,231.7 L 255.8,232.7 L 258.3,233.6 L 260.9,234.6 L 263.5,235.6 L 266.1,236.6 L 268.7,237.6 L 271.2,238.5 L 273.8,239.5 L 276.4,240.5 L 279.0,241.4 L 281.6,242.4 L 284.1,243.3 L 286.7,244.3 L 289.3,245.2 L 291.9,246.2 L 294.5,247.1 L 297.0,248.1 L 299.6,249.0 L 302.2,250.0 L 304.8,250.9 L 307.4,251.8 L 309.9,252.8 L 312.5,253.7 L 315.1,254.6 L 317.7,255.5 L 320.3,256.5 L 322.8,257.4 L 325.4,258.3 L 328.0,259.2 L 330.6,260.1 L 333.2,261.0 L 335.7,261.9 L 338.3,262.8 L 340.9,263.7 L 343.5,264.6 L 346.1,265.5 L 348.6,266.4 L 351.2,267.3 L 353.8,268.1 L 356.4,269.0 L 358.9,269.9 L 361.5,270.8 L 364.1,271.6 L 366.7,272.5 L 369.3,273.3 L 371.8,274.2 L 374.4,275.0 L 377.0,275.9 L 379.6,276.7 L 382.2,277.6 L 384.7,278.4 L 387.3,279.2 L 389.9,280.1 L 392.5,280.9 L 395.1,281.7 L 397.6,282.5 L 400.2,283.3 L 402.8,284.1 L 405.4,285.0 L 408.0,285.8 L 410.5,286.5 L 413.1,287.3 L 415.7,288.1 L 418.3,288.9 L 420.9,289.7 L 423.4,290.5 L 426.0,291.2 L 428.6,292.0 L 431.2,292.8 L 433.8,293.5 L 436.3,294.3 L 438.9,295.0 L 441.5,295.8 L 444.1,296.5 L 446.7,297.3 L 449.2,298.0 L 451.8,298.7 L 454.4,299.5 L 457.0,300.2 L 459.6,300.9 L 462.1,301.6 L 464.7,302.3 L 467.3,303.0 L 469.9,303.7 L 472.5,304.4 L 475.0,305.1 L 477.6,305.8 L 480.2,306.5 L 482.8,307.2 L 485.4,307.9 L 487.9,308.5 L 490.5,309.2 L 493.1,309.9 L 495.7,310.5 L 498.3,311.2 L 500.8,311.8 L 503.4,312.5 L 506.0,313.1 L 508.6,313.8 L 511.2,314.4 L 513.7,315.0 L 516.3,315.7 L 518.9,316.3 L 521.5,316.9 L 524.1,317.5 L 526.6,318.2 L 529.2,318.8 L 531.8,319.4 L 534.4,320.0 L 537.0,320.6 L 539.5,321.2 L 542.1,321.8 L 544.7,322.4 L 547.3,323.0 L 549.9,323.6 L 552.4,324.1 L 555.0,324.7 L 557.6,325.3 L 560.2,325.9 L 562.8,326.5 L 565.3,327.1 L 567.9,327.6 L 570.5,328.2 L 573.1,328.8 L 575.7,329.4 L 578.2,330.0 L 580.8,330.5 L 583.4,331.1 L 586.0,331.7 L 588.6,332.3 L 591.1,332.9 L 593.7,333.5 L 596.3,334.0 L 598.9,334.6 L 601.5,335.2 L 604.0,335.8 L 606.6,336.3 L 609.2,336.9 L 611.8,337.4 L 614.4,338.0 L 616.9,338.5 L 619.5,339.0 L 622.1,339.4 L 624.7,339.9 L 627.3,340.4 L 629.8,340.8 L 632.4,341.2 L 635.0,341.6" class="sig"/>
<path d="M 75.7,320.3 L 81.3,302.3 L 86.9,288.9 L 92.6,277.9 L 98.2,268.6 L 103.9,260.4 L 109.6,253.1 L 115.2,246.6 L 120.8,240.6 L 126.5,235.2 L 132.2,229.9 L 137.8,224.9 L 143.4,220.2 L 149.1,215.7 L 154.8,211.6 L 160.4,207.8 L 166.1,204.2 L 171.7,200.8 L 177.3,197.5 L 183.0,194.2 L 188.6,191.0 L 194.3,187.9 L 199.9,184.8 L 205.6,181.8 L 211.2,178.9 L 216.9,176.0 L 222.5,173.2 L 228.2,170.5 L 233.8,167.8 L 239.5,165.2 L 245.2,162.7 L 250.8,160.2 L 256.5,157.8 L 262.1,155.4 L 267.8,153.1 L 273.4,150.8 L 279.1,148.6 L 284.7,146.4 L 290.4,144.3 L 296.0,142.2 L 301.6,140.2 L 307.3,138.2 L 313.0,136.3 L 318.6,134.4 L 324.2,132.5 L 329.9,130.7 L 335.6,129.0 L 341.2,127.2 L 346.9,125.6 L 352.5,123.9 L 358.1,122.3 L 363.8,120.7 L 369.4,119.2 L 375.1,117.7 L 380.8,116.2 L 386.4,114.8 L 392.1,113.4 L 397.7,112.1 L 403.3,110.7 L 409.0,109.4 L 414.6,108.2 L 420.3,106.9 L 425.9,105.7 L 431.6,104.6 L 437.2,103.4 L 442.9,102.3 L 448.6,101.3 L 454.2,100.2 L 459.9,99.2 L 465.5,98.2 L 471.1,97.3 L 476.8,96.3 L 482.4,95.4 L 488.1,94.6 L 493.8,93.7 L 499.4,92.9 L 505.1,92.1 L 510.7,91.3 L 516.4,90.6 L 522.0,89.9 L 527.6,89.2 L 533.3,88.6 L 539.0,87.9 L 544.6,87.3 L 550.2,86.7 L 555.9,86.2 L 561.5,85.7 L 567.2,85.2 L 572.9,84.7 L 578.5,84.2 L 584.1,83.8 L 589.8,83.4 L 595.4,83.0 L 601.1,82.7 L 606.8,82.7 L 612.4,84.1 L 618.0,85.5 L 623.7,86.9 L 629.4,88.4 L 635.0,89.8" class="nt"/>
<path d="M 74.7,348.3 L 79.4,335.3 L 84.1,321.5 L 88.8,308.2 L 93.5,295.8 L 98.2,284.2 L 103.0,273.7 L 107.7,264.0 L 112.4,255.2 L 117.1,247.2 L 121.8,239.9 L 126.5,233.1 L 131.2,226.7 L 135.9,220.6 L 140.6,214.9 L 145.3,209.7 L 150.0,205.0 L 154.8,200.8 L 159.5,197.4 L 164.2,194.5 L 168.9,192.0 L 173.6,189.8 L 178.3,187.8 L 183.0,185.8 L 187.7,183.7 L 192.4,181.6 L 197.1,179.4 L 201.8,177.2 L 206.5,174.9 L 211.2,172.6 L 216.0,170.3 L 220.7,168.0 L 225.4,165.6 L 230.1,163.3 L 234.8,160.9 L 239.5,158.6 L 244.2,156.4 L 248.9,154.1 L 253.6,151.9 L 258.3,149.7 L 263.0,147.5 L 267.8,145.4 L 272.5,143.4 L 277.2,141.3 L 281.9,139.3 L 286.6,137.4 L 291.3,135.5 L 296.0,133.7 L 300.7,131.9 L 305.4,130.2 L 310.1,128.5 L 314.8,126.8 L 319.5,125.3 L 324.2,123.7 L 329.0,122.2 L 333.7,120.8 L 338.4,119.4 L 343.1,118.1 L 347.8,116.8 L 352.5,115.6 L 357.2,114.4 L 361.9,113.3 L 366.6,112.2 L 371.3,111.2 L 376.0,110.2 L 380.7,109.3 L 385.5,108.4 L 390.2,107.6 L 394.9,106.8 L 399.6,106.0 L 404.3,105.4 L 409.0,104.7 L 413.7,104.1 L 418.4,103.6 L 423.1,103.1 L 427.8,102.6 L 432.5,102.2 L 437.2,101.8 L 442.0,101.4 L 446.7,101.1 L 451.4,100.9 L 456.1,100.6 L 460.8,100.4 L 465.5,100.3 L 470.2,100.2 L 474.9,100.1 L 479.6,100.0 L 484.3,99.9 L 489.0,99.9 L 493.8,99.9 L 498.5,99.9 L 503.2,99.9 L 507.9,100.0 L 512.6,100.0 L 517.3,100.0 L 522.0,100.0 L 526.7,99.9 L 531.4,99.9 L 536.1,99.7 L 540.8,99.5 L 545.5,99.3 L 550.2,98.9 L 555.0,98.3 L 559.7,97.6 L 564.4,96.8 L 569.1,95.7 L 573.8,94.3 L 578.5,92.8 L 583.2,91.2 L 587.9,89.6 L 592.6,88.4 L 597.3,88.0 L 602.0,89.0 L 606.8,91.5 L 611.5,95.7 L 616.2,101.2 L 620.9,107.8 L 625.6,114.8 L 630.3,121.9 L 635.0,128.7" class="fw"/>
<line x1="112.18267943001408" y1="248.43836711658753" x2="112.18267943001408" y2="265.7877533744063" class="err"/>
<line x1="109.18267943001408" y1="248.43836711658753" x2="115.18267943001408" y2="248.43836711658753" class="err"/>
<line x1="109.18267943001408" y1="265.7877533744063" x2="115.18267943001408" y2="265.7877533744063" class="err"/>
<circle cx="112.18267943001408" cy="257.1130602454969" r="2.5" class="obs"/>
<line x1="153.9018129322258" y1="193.6930348492687" x2="153.9018129322258" y2="211.18821426891787" class="err"/>
<line x1="150.9018129322258" y1="193.6930348492687" x2="156.9018129322258" y2="193.6930348492687" class="err"/>
<line x1="150.9018129322258" y1="211.18821426891787" x2="156.9018129322258" y2="211.18821426891787" class="err"/>
<circle cx="153.9018129322258" cy="202.4406245590933" r="2.5" class="obs"/>
<line x1="196.54803829004223" y1="170.87640502280965" x2="196.54803829004223" y2="191.7248271645582" class="err"/>
<line x1="193.54803829004223" y1="170.87640502280965" x2="199.54803829004223" y2="170.87640502280965" class="err"/>
<line x1="193.54803829004223" y1="191.7248271645582" x2="199.54803829004223" y2="191.7248271645582" class="err"/>
<circle cx="196.54803829004223" cy="181.3006160936839" r="2.5" class="obs"/>
<line x1="238.7307177200563" y1="145.47194657386078" x2="238.7307177200563" y2="170.475473827776" class="err"/>
<line x1="235.7307177200563" y1="145.47194657386078" x2="241.7307177200563" y2="145.47194657386078" class="err"/>
<line x1="235.7307177200563" y1="170.475473827776" x2="241.7307177200563" y2="170.475473827776" class="err"/>
<circle cx="238.7307177200563" cy="157.9737102008184" r="2.5" class="obs"/>
<line x1="280.9133971500704" y1="132.89728636598795" x2="280.9133971500704" y2="154.62046747871892" class="err"/>
<line x1="277.9133971500704" y1="132.89728636598795" x2="283.9133971500704" y2="132.89728636598795" class="err"/>
<line x1="277.9133971500704" y1="154.62046747871892" x2="283.9133971500704" y2="154.62046747871892" class="err"/>
<circle cx="280.9133971500704" cy="143.7588769223534" r="2.5" class="obs"/>
<line x1="322.6325306522821" y1="120.21328128674232" x2="322.6325306522821" y2="138.14584019188266" class="err"/>
<line x1="319.6325306522821" y1="120.21328128674232" x2="325.6325306522821" y2="120.21328128674232" class="err"/>
<line x1="319.6325306522821" y1="138.14584019188266" x2="325.6325306522821" y2="138.14584019188266" class="err"/>
<circle cx="322.6325306522821" cy="129.17956073931248" r="2.5" class="obs"/>
<line x1="364.81521008229623" y1="108.47693175939435" x2="364.81521008229623" y2="125.82631801721304" class="err"/>
<line x1="361.81521008229623" y1="108.47693175939435" x2="367.81521008229623" y2="108.47693175939435" class="err"/>
<line x1="361.81521008229623" y1="125.82631801721304" x2="367.81521008229623" y2="125.82631801721304" class="err"/>
<circle cx="364.81521008229623" cy="117.15162488830369" r="2.5" class="obs"/>
<line x1="407.4614354401126" y1="95.20975403282705" x2="407.4614354401126" y2="113.57969242345862" class="err"/>
<line x1="404.4614354401126" y1="95.20975403282705" x2="410.4614354401126" y2="95.20975403282705" class="err"/>
<line x1="404.4614354401126" y1="113.57969242345862" x2="410.4614354401126" y2="113.57969242345862" class="err"/>
<circle cx="407.4614354401126" cy="104.39472322814285" r="2.5" class="obs"/>
<line x1="449.64411487012666" y1="87.7014061985609" x2="449.64411487012666" y2="107.23768988383583" class="err"/>
<line x1="446.64411487012666" y1="87.7014061985609" x2="452.64411487012666" y2="87.7014061985609" class="err"/>
<line x1="446.64411487012666" y1="107.23768988383583" x2="452.64411487012666" y2="107.23768988383583" class="err"/>
<circle cx="449.64411487012666" cy="97.46954804119835" r="2.5" class="obs"/>
<line x1="491.36324837233843" y1="84.96778441424077" x2="491.36324837233843" y2="105.59751681324371" class="err"/>
<line x1="488.36324837233843" y1="84.96778441424077" x2="494.36324837233843" y2="84.96778441424077" class="err"/>
<line x1="488.36324837233843" y1="105.59751681324371" x2="494.36324837233843" y2="105.59751681324371" class="err"/>
<circle cx="491.36324837233843" cy="95.28265061374226" r="2.5" class="obs"/>
<line x1="533.5459278023525" y1="84.27526689554634" x2="533.5459278023525" y2="107.74796595024229" class="err"/>
<line x1="530.5459278023525" y1="84.27526689554634" x2="536.5459278023525" y2="84.27526689554634" class="err"/>
<line x1="530.5459278023525" y1="107.74796595024229" x2="536.5459278023525" y2="107.74796595024229" class="err"/>
<circle cx="533.5459278023525" cy="96.01161642289432" r="2.5" class="obs"/>
<line x1="575.7286072323666" y1="83.18181818181823" x2="575.7286072323666" y2="108.11244885481828" class="err"/>
<line x1="572.7286072323666" y1="83.18181818181823" x2="578.7286072323666" y2="83.18181818181823" class="err"/>
<line x1="572.7286072323666" y1="108.11244885481828" x2="578.7286072323666" y2="108.11244885481828" class="err"/>
<circle cx="575.7286072323666" cy="95.64713351831826" r="2.5" class="obs"/>
<g class="legend">
<line x1="82" y1="69" x2="106" y2="69" class="fw"/>
<text x="112" y="73" class="lbl-l">framework fit</text>
<line x1="82" y1="87" x2="106" y2="87" class="nt"/>
<text x="112" y="91" class="lbl-l">Newtonian (no halo)</text>
<circle cx="94" cy="105" r="2.5" class="obs"/>
<text x="112" y="109" class="lbl">observed V±err</text>
</g>
<g class="legend">
<line x1="460" y1="69" x2="484" y2="69" class="rho"/>
<text x="490" y="73" class="lbl-r">ρ(r) raw</text>
<line x1="460" y1="87" x2="484" y2="87" class="sig"/>
<text x="490" y="91" class="lbl-r">Σ(r) smoothed</text>
<text x="460" y="113" class="lbl-r">ρ peak: 93 M☉/pc²</text>
</g>
</svg>