<svg xmlns="http://www.w3.org/2000/svg" viewBox="0 0 890 420" width="890" height="420" font-family="sans-serif" font-size="12">
<style>
  .ax { stroke: #333; stroke-width: 1; fill: none; }
  .grid { stroke: #ddd; stroke-width: 0.5; fill: none; }
  .lbl { fill: #333; }
  .lbl-l { fill: #0066cc; }
  .lbl-r { fill: #b03030; }
  .obs { fill: #222; }
  .err { stroke: #555; stroke-width: 0.8; fill: none; }
  .fw { stroke: #0066cc; stroke-width: 2.2; fill: none; }
  .nt { stroke: #cc6600; stroke-width: 1.6; fill: none; stroke-dasharray: 5,3; }
  .lbl-s { fill: #cc7000; }
  .rho { stroke: #b03030; stroke-width: 2.0; fill: none; }
  .sig { stroke: #cc7000; stroke-width: 1.8; fill: none; }
  .title { fill: #111; font-size: 16px; font-weight: 600; }
  .subtitle { fill: #555; font-size: 11px; }
  .preview-bg { fill: #000; }
  .preview-lbl { fill: #888; font-size: 10px; }
  .legend { font-size: 11px; }
</style>
<text x="343.5" y="22" text-anchor="middle" class="title">UGC02953</text>
<text x="343.5" y="38" text-anchor="middle" class="subtitle">rMax=62.4 kpc, N=115, RMS=37.3 km/s (13.6%), amp=418</text>
<line x1="70" y1="365.0" x2="617" y2="365.0" class="grid"/>
<text x="64" y="369.0" text-anchor="end" class="lbl-l">0</text>
<line x1="70" y1="303.0" x2="617" y2="303.0" class="grid"/>
<text x="64" y="307.0" text-anchor="end" class="lbl-l">85</text>
<line x1="70" y1="241.0" x2="617" y2="241.0" class="grid"/>
<text x="64" y="245.0" text-anchor="end" class="lbl-l">170</text>
<line x1="70" y1="179.0" x2="617" y2="179.0" class="grid"/>
<text x="64" y="183.0" text-anchor="end" class="lbl-l">254</text>
<line x1="70" y1="117.0" x2="617" y2="117.0" class="grid"/>
<text x="64" y="121.0" text-anchor="end" class="lbl-l">339</text>
<line x1="70" y1="55.0" x2="617" y2="55.0" class="grid"/>
<text x="64" y="59.0" text-anchor="end" class="lbl-l">424</text>
<text x="623" y="369.0" text-anchor="start" class="lbl-r">0.0</text>
<text x="623" y="327.7" text-anchor="start" class="lbl-r">0.2</text>
<text x="623" y="286.3" text-anchor="start" class="lbl-r">0.4</text>
<text x="623" y="245.0" text-anchor="start" class="lbl-r">0.6</text>
<text x="623" y="203.7" text-anchor="start" class="lbl-r">0.8</text>
<text x="623" y="162.3" text-anchor="start" class="lbl-r">1.0</text>
<line x1="70.0" y1="55" x2="70.0" y2="365" class="grid"/>
<text x="70.0" y="381" text-anchor="middle" class="lbl">0.0</text>
<line x1="161.2" y1="55" x2="161.2" y2="365" class="grid"/>
<text x="161.2" y="381" text-anchor="middle" class="lbl">11.5</text>
<line x1="252.3" y1="55" x2="252.3" y2="365" class="grid"/>
<text x="252.3" y="381" text-anchor="middle" class="lbl">22.9</text>
<line x1="343.5" y1="55" x2="343.5" y2="365" class="grid"/>
<text x="343.5" y="381" text-anchor="middle" class="lbl">34.4</text>
<line x1="434.7" y1="55" x2="434.7" y2="365" class="grid"/>
<text x="434.7" y="381" text-anchor="middle" class="lbl">45.9</text>
<line x1="525.8" y1="55" x2="525.8" y2="365" class="grid"/>
<text x="525.8" y="381" text-anchor="middle" class="lbl">57.3</text>
<line x1="617.0" y1="55" x2="617.0" y2="365" class="grid"/>
<text x="617.0" y="381" text-anchor="middle" class="lbl">68.8</text>
<text x="343.5" y="408" text-anchor="middle" class="lbl">radius (kpc)</text>
<text x="16" y="210" text-anchor="middle" class="lbl-l" transform="rotate(-90, 16, 210)">velocity (km/s)</text>
<text x="654" y="210" text-anchor="middle" class="lbl-r" transform="rotate(-90, 654, 210)">mass profile (normalized to peak)</text>
<rect x="70" y="55" width="547" height="310" class="ax"/>
<path d="M 70.0,158.3 L 72.5,196.1 L 75.0,233.8 L 77.5,271.5 L 80.0,308.3 L 82.5,309.4 L 85.0,310.6 L 87.5,311.8 L 90.0,313.0 L 92.5,314.2 L 95.0,315.4 L 97.5,316.6 L 100.0,317.8 L 102.5,319.0 L 105.0,320.2 L 107.5,321.4 L 110.0,322.6 L 112.5,323.8 L 115.0,325.0 L 117.5,326.2 L 120.0,327.4 L 122.5,328.6 L 124.9,329.8 L 127.4,330.9 L 129.9,332.1 L 132.4,333.3 L 134.9,334.5 L 137.4,335.7 L 139.9,336.9 L 142.4,338.1 L 144.9,338.3 L 147.4,338.5 L 149.9,338.7 L 152.4,339.0 L 154.9,339.2 L 157.4,339.4 L 159.9,339.6 L 162.4,339.8 L 164.9,340.0 L 167.4,340.2 L 169.9,340.4 L 172.4,340.6 L 174.9,340.8 L 177.4,341.0 L 179.9,341.3 L 182.4,341.5 L 184.9,341.7 L 187.4,341.9 L 189.9,342.1 L 192.4,342.3 L 194.9,342.5 L 197.4,342.7 L 199.9,342.9 L 202.4,343.1 L 204.9,343.4 L 207.4,343.6 L 209.9,343.8 L 212.4,344.0 L 214.9,344.2 L 217.4,344.4 L 219.9,344.6 L 222.4,344.8 L 224.9,345.0 L 227.4,345.2 L 229.9,345.5 L 232.4,345.7 L 234.8,345.9 L 237.3,346.1 L 239.8,346.3 L 242.3,346.5 L 244.8,346.7 L 247.3,346.8 L 249.8,346.8 L 252.3,346.9 L 254.8,347.0 L 257.3,347.0 L 259.8,347.1 L 262.3,347.2 L 264.8,347.3 L 267.3,347.3 L 269.8,347.4 L 272.3,347.5 L 274.8,347.5 L 277.3,347.6 L 279.8,347.7 L 282.3,347.7 L 284.8,347.8 L 287.3,347.9 L 289.8,347.9 L 292.3,348.0 L 294.8,348.1 L 297.3,348.1 L 299.8,348.2 L 302.3,348.3 L 304.8,348.4 L 307.3,348.4 L 309.8,348.5 L 312.3,348.6 L 314.8,348.6 L 317.3,348.7 L 319.8,348.8 L 322.3,348.8 L 324.8,348.9 L 327.3,349.0 L 329.8,349.0 L 332.3,349.1 L 334.8,349.2 L 337.3,349.3 L 339.8,349.3 L 342.3,349.4 L 344.7,349.5 L 347.2,349.5 L 349.7,349.6 L 352.2,349.7 L 354.7,349.7 L 357.2,349.8 L 359.7,349.9 L 362.2,349.9 L 364.7,350.0 L 367.2,350.1 L 369.7,350.2 L 372.2,350.2 L 374.7,350.3 L 377.2,350.4 L 379.7,350.4 L 382.2,350.5 L 384.7,350.6 L 387.2,350.6 L 389.7,350.7 L 392.2,350.8 L 394.7,350.8 L 397.2,350.9 L 399.7,351.0 L 402.2,351.1 L 404.7,351.1 L 407.2,351.2 L 409.7,351.3 L 412.2,351.3 L 414.7,351.4 L 417.2,351.5 L 419.7,351.5 L 422.2,351.6 L 424.7,351.7 L 427.2,351.7 L 429.7,351.8 L 432.2,351.9 L 434.7,351.9 L 437.2,352.0 L 439.7,352.1 L 442.2,352.2 L 444.7,352.2 L 447.2,352.3 L 449.7,352.4 L 452.2,352.4 L 454.6,352.5 L 457.1,352.6 L 459.6,352.6 L 462.1,352.7 L 464.6,352.8 L 467.1,352.8 L 469.6,352.9 L 472.1,353.0 L 474.6,353.1 L 477.1,353.1 L 479.6,353.2 L 482.1,353.3 L 484.6,353.3 L 487.1,353.4 L 489.6,353.5 L 492.1,353.5 L 494.6,353.6 L 497.1,353.7 L 499.6,353.7 L 502.1,353.8 L 504.6,353.9 L 507.1,354.0 L 509.6,354.0 L 512.1,354.1 L 514.6,354.2 L 517.1,354.2 L 519.6,354.3 L 522.1,354.4 L 524.6,354.4 L 527.1,354.5 L 529.6,354.6 L 532.1,354.6 L 534.6,354.7 L 537.1,354.8 L 539.6,354.8 L 542.1,354.9 L 544.6,355.0 L 547.1,355.1 L 549.6,355.1 L 552.1,355.2 L 554.6,355.3 L 557.1,355.3 L 559.6,355.4 L 562.1,355.5 L 564.5,355.5 L 567.0,355.6 L 569.5,355.7 L 572.0,355.7 L 574.5,355.8 L 577.0,355.9 L 579.5,356.0 L 582.0,356.0 L 584.5,356.1 L 587.0,358.0 L 589.5,362.4 L 592.0,365.0 L 594.5,365.0 L 597.0,365.0 L 599.5,365.0 L 602.0,365.0 L 604.5,365.0 L 607.0,365.0 L 609.5,365.0 L 612.0,365.0 L 614.5,365.0 L 617.0,365.0" class="rho"/>
<path d="M 70.0,158.3 L 72.5,161.9 L 75.0,166.9 L 77.5,173.1 L 80.0,179.9 L 82.5,186.7 L 85.0,193.0 L 87.5,198.6 L 90.0,203.6 L 92.5,208.1 L 95.0,212.2 L 97.5,216.0 L 100.0,219.6 L 102.5,223.0 L 105.0,226.3 L 107.5,229.5 L 110.0,232.6 L 112.5,235.6 L 115.0,238.5 L 117.5,241.4 L 120.0,244.2 L 122.5,247.0 L 124.9,249.6 L 127.4,252.2 L 129.9,254.7 L 132.4,257.1 L 134.9,259.5 L 137.4,261.7 L 139.9,263.8 L 142.4,265.8 L 144.9,267.8 L 147.4,269.6 L 149.9,271.4 L 152.4,273.0 L 154.9,274.6 L 157.4,276.1 L 159.9,277.6 L 162.4,279.0 L 164.9,280.4 L 167.4,281.7 L 169.9,283.0 L 172.4,284.3 L 174.9,285.5 L 177.4,286.7 L 179.9,287.8 L 182.4,289.0 L 184.9,290.1 L 187.4,291.2 L 189.9,292.3 L 192.4,293.3 L 194.9,294.3 L 197.4,295.3 L 199.9,296.3 L 202.4,297.3 L 204.9,298.2 L 207.4,299.2 L 209.9,300.1 L 212.4,301.0 L 214.9,301.9 L 217.4,302.7 L 219.9,303.6 L 222.4,304.4 L 224.9,305.2 L 227.4,306.0 L 229.9,306.8 L 232.4,307.6 L 234.8,308.3 L 237.3,309.0 L 239.8,309.8 L 242.3,310.5 L 244.8,311.1 L 247.3,311.8 L 249.8,312.4 L 252.3,313.1 L 254.8,313.7 L 257.3,314.3 L 259.8,314.9 L 262.3,315.5 L 264.8,316.0 L 267.3,316.6 L 269.8,317.1 L 272.3,317.6 L 274.8,318.2 L 277.3,318.7 L 279.8,319.2 L 282.3,319.7 L 284.8,320.2 L 287.3,320.6 L 289.8,321.1 L 292.3,321.6 L 294.8,322.0 L 297.3,322.5 L 299.8,322.9 L 302.3,323.4 L 304.8,323.8 L 307.3,324.2 L 309.8,324.7 L 312.3,325.1 L 314.8,325.5 L 317.3,325.9 L 319.8,326.3 L 322.3,326.7 L 324.8,327.1 L 327.3,327.5 L 329.8,327.9 L 332.3,328.3 L 334.8,328.6 L 337.3,329.0 L 339.8,329.4 L 342.3,329.7 L 344.7,330.1 L 347.2,330.5 L 349.7,330.8 L 352.2,331.2 L 354.7,331.5 L 357.2,331.9 L 359.7,332.2 L 362.2,332.5 L 364.7,332.9 L 367.2,333.2 L 369.7,333.5 L 372.2,333.9 L 374.7,334.2 L 377.2,334.5 L 379.7,334.8 L 382.2,335.1 L 384.7,335.4 L 387.2,335.8 L 389.7,336.1 L 392.2,336.4 L 394.7,336.7 L 397.2,337.0 L 399.7,337.3 L 402.2,337.6 L 404.7,337.8 L 407.2,338.1 L 409.7,338.4 L 412.2,338.7 L 414.7,339.0 L 417.2,339.3 L 419.7,339.5 L 422.2,339.8 L 424.7,340.1 L 427.2,340.4 L 429.7,340.6 L 432.2,340.9 L 434.7,341.1 L 437.2,341.4 L 439.7,341.7 L 442.2,341.9 L 444.7,342.2 L 447.2,342.4 L 449.7,342.7 L 452.2,342.9 L 454.6,343.2 L 457.1,343.4 L 459.6,343.7 L 462.1,343.9 L 464.6,344.2 L 467.1,344.4 L 469.6,344.6 L 472.1,344.9 L 474.6,345.1 L 477.1,345.3 L 479.6,345.6 L 482.1,345.8 L 484.6,346.0 L 487.1,346.2 L 489.6,346.5 L 492.1,346.7 L 494.6,346.9 L 497.1,347.1 L 499.6,347.3 L 502.1,347.6 L 504.6,347.8 L 507.1,348.0 L 509.6,348.2 L 512.1,348.4 L 514.6,348.6 L 517.1,348.8 L 519.6,349.0 L 522.1,349.2 L 524.6,349.4 L 527.1,349.6 L 529.6,349.8 L 532.1,350.0 L 534.6,350.2 L 537.1,350.4 L 539.6,350.6 L 542.1,350.8 L 544.6,351.0 L 547.1,351.2 L 549.6,351.4 L 552.1,351.6 L 554.6,351.8 L 557.1,352.0 L 559.6,352.3 L 562.1,352.5 L 564.5,352.7 L 567.0,352.9 L 569.5,353.1 L 572.0,353.3 L 574.5,353.5 L 577.0,353.7 L 579.5,353.9 L 582.0,354.2 L 584.5,354.4 L 587.0,354.6 L 589.5,354.8 L 592.0,355.0 L 594.5,355.2 L 597.0,355.4 L 599.5,355.6 L 602.0,355.8 L 604.5,356.0 L 607.0,356.1 L 609.5,356.3 L 612.0,356.5 L 614.5,356.6 L 617.0,356.7" class="sig"/>
<path d="M 75.5,269.7 L 80.9,256.7 L 86.4,249.7 L 91.9,240.7 L 97.3,231.9 L 102.8,223.8 L 108.3,216.5 L 113.8,210.1 L 119.2,204.5 L 124.7,199.6 L 130.2,195.4 L 135.6,191.9 L 141.1,189.0 L 146.6,186.5 L 152.1,183.9 L 157.5,181.3 L 163.0,178.7 L 168.5,176.1 L 173.9,173.5 L 179.4,171.0 L 184.9,168.5 L 190.3,166.1 L 195.8,163.8 L 201.3,161.5 L 206.8,159.3 L 212.2,157.2 L 217.7,155.2 L 223.2,153.3 L 228.6,151.4 L 234.1,149.6 L 239.6,147.9 L 245.0,146.3 L 250.5,144.7 L 256.0,143.1 L 261.5,141.5 L 266.9,139.9 L 272.4,138.3 L 277.9,136.8 L 283.3,135.2 L 288.8,133.7 L 294.3,132.1 L 299.7,130.6 L 305.2,129.1 L 310.7,127.7 L 316.1,126.2 L 321.6,124.8 L 327.1,123.4 L 332.6,122.0 L 338.0,120.6 L 343.5,119.3 L 349.0,117.9 L 354.4,116.6 L 359.9,115.3 L 365.4,114.1 L 370.9,112.8 L 376.3,111.6 L 381.8,110.4 L 387.3,109.3 L 392.7,108.1 L 398.2,107.0 L 403.7,105.9 L 409.1,104.8 L 414.6,103.8 L 420.1,102.7 L 425.6,101.7 L 431.0,100.7 L 436.5,99.7 L 442.0,98.8 L 447.4,97.9 L 452.9,97.0 L 458.4,96.1 L 463.8,95.2 L 469.3,94.4 L 474.8,93.6 L 480.3,92.8 L 485.7,92.0 L 491.2,91.3 L 496.7,90.5 L 502.1,89.8 L 507.6,89.2 L 513.1,88.5 L 518.5,87.9 L 524.0,87.2 L 529.5,86.6 L 535.0,86.1 L 540.4,85.5 L 545.9,85.0 L 551.4,84.5 L 556.8,84.0 L 562.3,83.5 L 567.8,83.0 L 573.2,82.6 L 578.7,82.2 L 584.2,81.8 L 589.7,81.9 L 595.1,83.3 L 600.6,84.7 L 606.1,86.1 L 611.5,87.7 L 617.0,89.0" class="nt"/>
<path d="M 74.6,267.4 L 79.1,216.4 L 83.7,186.1 L 88.2,174.4 L 92.8,170.4 L 97.3,166.6 L 101.9,160.6 L 106.5,153.7 L 111.0,146.6 L 115.6,140.2 L 120.1,134.7 L 124.7,130.5 L 129.3,127.9 L 133.8,127.1 L 138.4,128.3 L 142.9,130.9 L 147.5,134.3 L 152.1,137.5 L 156.6,140.2 L 161.2,142.0 L 165.7,143.3 L 170.3,144.0 L 174.8,144.5 L 179.4,144.7 L 184.0,144.8 L 188.5,144.7 L 193.1,144.7 L 197.6,144.6 L 202.2,144.6 L 206.8,144.6 L 211.3,144.7 L 215.9,145.0 L 220.4,145.5 L 225.0,146.2 L 229.5,147.2 L 234.1,148.5 L 238.7,150.1 L 243.2,152.1 L 247.8,154.3 L 252.3,156.4 L 256.9,158.3 L 261.4,159.9 L 266.0,161.3 L 270.6,162.6 L 275.1,163.6 L 279.7,164.5 L 284.2,165.3 L 288.8,166.0 L 293.4,166.6 L 297.9,167.2 L 302.5,167.7 L 307.0,168.1 L 311.6,168.5 L 316.2,168.9 L 320.7,169.2 L 325.3,169.5 L 329.8,169.7 L 334.4,169.9 L 338.9,170.2 L 343.5,170.4 L 348.1,170.5 L 352.6,170.7 L 357.2,170.9 L 361.7,171.0 L 366.3,171.2 L 370.8,171.3 L 375.4,171.5 L 380.0,171.6 L 384.5,171.7 L 389.1,171.9 L 393.6,172.0 L 398.2,172.2 L 402.8,172.3 L 407.3,172.5 L 411.9,172.6 L 416.4,172.8 L 421.0,173.0 L 425.6,173.2 L 430.1,173.3 L 434.7,173.5 L 439.2,173.7 L 443.8,173.9 L 448.3,174.1 L 452.9,174.3 L 457.5,174.6 L 462.0,174.8 L 466.6,175.0 L 471.1,175.2 L 475.7,175.4 L 480.3,175.6 L 484.8,175.8 L 489.4,176.0 L 493.9,176.2 L 498.5,176.3 L 503.0,176.5 L 507.6,176.5 L 512.2,176.6 L 516.7,176.6 L 521.3,176.5 L 525.8,176.4 L 530.4,176.1 L 535.0,175.7 L 539.5,175.2 L 544.1,174.4 L 548.6,173.4 L 553.2,172.1 L 557.7,170.3 L 562.3,168.2 L 566.9,165.5 L 571.4,162.6 L 576.0,159.8 L 580.5,157.8 L 585.1,157.6 L 589.6,159.5 L 594.2,164.0 L 598.8,170.0 L 603.3,177.0 L 607.9,184.1 L 612.4,190.7 L 617.0,196.8" class="fw"/>
<line x1="70.72" y1="157.42" x2="70.72" y2="234.78" class="err"/>
<line x1="67.72" y1="157.42" x2="73.72" y2="157.42" class="err"/>
<line x1="67.72" y1="234.78" x2="73.72" y2="234.78" class="err"/>
<circle cx="70.72" cy="196.10" r="2.5" class="obs"/>
<line x1="71.35" y1="175.69" x2="71.35" y2="216.50" class="err"/>
<line x1="68.35" y1="175.69" x2="74.35" y2="175.69" class="err"/>
<line x1="68.35" y1="216.50" x2="74.35" y2="216.50" class="err"/>
<circle cx="71.35" cy="196.10" r="2.5" class="obs"/>
<line x1="72.07" y1="184.10" x2="72.07" y2="208.09" class="err"/>
<line x1="69.07" y1="184.10" x2="75.07" y2="184.10" class="err"/>
<line x1="69.07" y1="208.09" x2="75.07" y2="208.09" class="err"/>
<circle cx="72.07" cy="196.10" r="2.5" class="obs"/>
<line x1="72.70" y1="187.39" x2="72.70" y2="204.80" class="err"/>
<line x1="69.70" y1="187.39" x2="75.70" y2="187.39" class="err"/>
<line x1="69.70" y1="204.80" x2="75.70" y2="204.80" class="err"/>
<circle cx="72.70" cy="196.10" r="2.5" class="obs"/>
<line x1="73.42" y1="189.49" x2="73.42" y2="201.24" class="err"/>
<line x1="70.42" y1="189.49" x2="76.42" y2="189.49" class="err"/>
<line x1="70.42" y1="201.24" x2="76.42" y2="201.24" class="err"/>
<circle cx="73.42" cy="195.36" r="2.5" class="obs"/>
<line x1="74.06" y1="190.59" x2="74.06" y2="200.14" class="err"/>
<line x1="71.06" y1="190.59" x2="77.06" y2="190.59" class="err"/>
<line x1="71.06" y1="200.14" x2="77.06" y2="200.14" class="err"/>
<circle cx="74.06" cy="195.36" r="2.5" class="obs"/>
<line x1="74.77" y1="191.89" x2="74.77" y2="198.84" class="err"/>
<line x1="71.77" y1="191.89" x2="77.77" y2="191.89" class="err"/>
<line x1="71.77" y1="198.84" x2="77.77" y2="198.84" class="err"/>
<circle cx="74.77" cy="195.36" r="2.5" class="obs"/>
<line x1="75.49" y1="192.44" x2="75.49" y2="198.29" class="err"/>
<line x1="72.49" y1="192.44" x2="78.49" y2="192.44" class="err"/>
<line x1="72.49" y1="198.29" x2="78.49" y2="198.29" class="err"/>
<circle cx="75.49" cy="195.36" r="2.5" class="obs"/>
<line x1="76.12" y1="190.47" x2="76.12" y2="198.79" class="err"/>
<line x1="73.12" y1="190.47" x2="79.12" y2="190.47" class="err"/>
<line x1="73.12" y1="198.79" x2="79.12" y2="198.79" class="err"/>
<circle cx="76.12" cy="194.63" r="2.5" class="obs"/>
<line x1="76.84" y1="191.10" x2="76.84" y2="198.16" class="err"/>
<line x1="73.84" y1="191.10" x2="79.84" y2="191.10" class="err"/>
<line x1="73.84" y1="198.16" x2="79.84" y2="198.16" class="err"/>
<circle cx="76.84" cy="194.63" r="2.5" class="obs"/>
<line x1="77.55" y1="186.00" x2="77.55" y2="201.80" class="err"/>
<line x1="74.55" y1="186.00" x2="80.55" y2="186.00" class="err"/>
<line x1="74.55" y1="201.80" x2="80.55" y2="201.80" class="err"/>
<circle cx="77.55" cy="193.90" r="2.5" class="obs"/>
<line x1="78.19" y1="185.64" x2="78.19" y2="200.70" class="err"/>
<line x1="75.19" y1="185.64" x2="81.19" y2="185.64" class="err"/>
<line x1="75.19" y1="200.70" x2="81.19" y2="200.70" class="err"/>
<circle cx="78.19" cy="193.17" r="2.5" class="obs"/>
<line x1="78.83" y1="185.42" x2="78.83" y2="200.92" class="err"/>
<line x1="75.83" y1="185.42" x2="81.83" y2="185.42" class="err"/>
<line x1="75.83" y1="200.92" x2="81.83" y2="200.92" class="err"/>
<circle cx="78.83" cy="193.17" r="2.5" class="obs"/>
<line x1="79.54" y1="184.98" x2="79.54" y2="199.90" class="err"/>
<line x1="76.54" y1="184.98" x2="82.54" y2="184.98" class="err"/>
<line x1="76.54" y1="199.90" x2="82.54" y2="199.90" class="err"/>
<circle cx="79.54" cy="192.44" r="2.5" class="obs"/>
<line x1="80.26" y1="183.96" x2="80.26" y2="199.46" class="err"/>
<line x1="77.26" y1="183.96" x2="83.26" y2="183.96" class="err"/>
<line x1="77.26" y1="199.46" x2="83.26" y2="199.46" class="err"/>
<circle cx="80.26" cy="191.71" r="2.5" class="obs"/>
<line x1="80.97" y1="180.59" x2="80.97" y2="201.36" class="err"/>
<line x1="77.97" y1="180.59" x2="83.97" y2="180.59" class="err"/>
<line x1="77.97" y1="201.36" x2="83.97" y2="201.36" class="err"/>
<circle cx="80.97" cy="190.98" r="2.5" class="obs"/>
<line x1="81.61" y1="180.67" x2="81.61" y2="201.29" class="err"/>
<line x1="78.61" y1="180.67" x2="84.61" y2="180.67" class="err"/>
<line x1="78.61" y1="201.29" x2="84.61" y2="201.29" class="err"/>
<circle cx="81.61" cy="190.98" r="2.5" class="obs"/>
<line x1="82.33" y1="175.91" x2="82.33" y2="204.58" class="err"/>
<line x1="79.33" y1="175.91" x2="85.33" y2="175.91" class="err"/>
<line x1="79.33" y1="204.58" x2="85.33" y2="204.58" class="err"/>
<circle cx="82.33" cy="190.25" r="2.5" class="obs"/>
<line x1="82.96" y1="176.50" x2="82.96" y2="202.53" class="err"/>
<line x1="79.96" y1="176.50" x2="85.96" y2="176.50" class="err"/>
<line x1="79.96" y1="202.53" x2="85.96" y2="202.53" class="err"/>
<circle cx="82.96" cy="189.51" r="2.5" class="obs"/>
<line x1="83.68" y1="183.56" x2="83.68" y2="194.00" class="err"/>
<line x1="80.68" y1="183.56" x2="86.68" y2="183.56" class="err"/>
<line x1="80.68" y1="194.00" x2="86.68" y2="194.00" class="err"/>
<circle cx="83.68" cy="188.78" r="2.5" class="obs"/>
<line x1="84.31" y1="179.35" x2="84.31" y2="196.75" class="err"/>
<line x1="81.31" y1="179.35" x2="87.31" y2="179.35" class="err"/>
<line x1="81.31" y1="196.75" x2="87.31" y2="196.75" class="err"/>
<circle cx="84.31" cy="188.05" r="2.5" class="obs"/>
<line x1="85.03" y1="179.35" x2="85.03" y2="195.29" class="err"/>
<line x1="82.03" y1="179.35" x2="88.03" y2="179.35" class="err"/>
<line x1="82.03" y1="195.29" x2="88.03" y2="195.29" class="err"/>
<circle cx="85.03" cy="187.32" r="2.5" class="obs"/>
<line x1="85.75" y1="173.72" x2="85.75" y2="199.46" class="err"/>
<line x1="82.75" y1="173.72" x2="88.75" y2="173.72" class="err"/>
<line x1="82.75" y1="199.46" x2="88.75" y2="199.46" class="err"/>
<circle cx="85.75" cy="186.59" r="2.5" class="obs"/>
<line x1="86.46" y1="176.79" x2="86.46" y2="193.46" class="err"/>
<line x1="83.46" y1="176.79" x2="89.46" y2="176.79" class="err"/>
<line x1="83.46" y1="193.46" x2="89.46" y2="193.46" class="err"/>
<circle cx="86.46" cy="185.13" r="2.5" class="obs"/>
<line x1="87.10" y1="174.96" x2="87.10" y2="193.83" class="err"/>
<line x1="84.10" y1="174.96" x2="90.10" y2="174.96" class="err"/>
<line x1="84.10" y1="193.83" x2="90.10" y2="193.83" class="err"/>
<circle cx="87.10" cy="184.40" r="2.5" class="obs"/>
<line x1="87.73" y1="172.40" x2="87.73" y2="194.93" class="err"/>
<line x1="84.73" y1="172.40" x2="90.73" y2="172.40" class="err"/>
<line x1="84.73" y1="194.93" x2="90.73" y2="194.93" class="err"/>
<circle cx="87.73" cy="183.66" r="2.5" class="obs"/>
<line x1="88.45" y1="170.06" x2="88.45" y2="195.80" class="err"/>
<line x1="85.45" y1="170.06" x2="91.45" y2="170.06" class="err"/>
<line x1="85.45" y1="195.80" x2="91.45" y2="195.80" class="err"/>
<circle cx="88.45" cy="182.93" r="2.5" class="obs"/>
<line x1="89.09" y1="163.92" x2="89.09" y2="199.02" class="err"/>
<line x1="86.09" y1="163.92" x2="92.09" y2="163.92" class="err"/>
<line x1="86.09" y1="199.02" x2="92.09" y2="199.02" class="err"/>
<circle cx="89.09" cy="181.47" r="2.5" class="obs"/>
<line x1="89.80" y1="173.36" x2="89.80" y2="188.13" class="err"/>
<line x1="86.80" y1="173.36" x2="92.80" y2="173.36" class="err"/>
<line x1="86.80" y1="188.13" x2="92.80" y2="188.13" class="err"/>
<circle cx="89.80" cy="180.74" r="2.5" class="obs"/>
<line x1="90.52" y1="171.23" x2="90.52" y2="188.78" class="err"/>
<line x1="87.52" y1="171.23" x2="93.52" y2="171.23" class="err"/>
<line x1="87.52" y1="188.78" x2="93.52" y2="188.78" class="err"/>
<circle cx="90.52" cy="180.01" r="2.5" class="obs"/>
<line x1="91.23" y1="174.64" x2="91.23" y2="183.91" class="err"/>
<line x1="88.23" y1="174.64" x2="94.23" y2="174.64" class="err"/>
<line x1="88.23" y1="183.91" x2="94.23" y2="183.91" class="err"/>
<circle cx="91.23" cy="179.28" r="2.5" class="obs"/>
<line x1="91.87" y1="173.27" x2="91.87" y2="182.36" class="err"/>
<line x1="88.87" y1="173.27" x2="94.87" y2="173.27" class="err"/>
<line x1="88.87" y1="182.36" x2="94.87" y2="182.36" class="err"/>
<circle cx="91.87" cy="177.82" r="2.5" class="obs"/>
<line x1="92.51" y1="172.99" x2="92.51" y2="181.18" class="err"/>
<line x1="89.51" y1="172.99" x2="95.51" y2="172.99" class="err"/>
<line x1="89.51" y1="181.18" x2="95.51" y2="181.18" class="err"/>
<circle cx="92.51" cy="177.08" r="2.5" class="obs"/>
<line x1="93.22" y1="169.24" x2="93.22" y2="182.01" class="err"/>
<line x1="90.22" y1="169.24" x2="96.22" y2="169.24" class="err"/>
<line x1="90.22" y1="182.01" x2="96.22" y2="182.01" class="err"/>
<circle cx="93.22" cy="175.62" r="2.5" class="obs"/>
<line x1="93.86" y1="171.10" x2="93.86" y2="178.69" class="err"/>
<line x1="90.86" y1="171.10" x2="96.86" y2="171.10" class="err"/>
<line x1="90.86" y1="178.69" x2="96.86" y2="178.69" class="err"/>
<circle cx="93.86" cy="174.89" r="2.5" class="obs"/>
<line x1="94.57" y1="165.39" x2="94.57" y2="181.47" class="err"/>
<line x1="91.57" y1="165.39" x2="97.57" y2="165.39" class="err"/>
<line x1="91.57" y1="181.47" x2="97.57" y2="181.47" class="err"/>
<circle cx="94.57" cy="173.43" r="2.5" class="obs"/>
<line x1="95.29" y1="161.00" x2="95.29" y2="184.40" class="err"/>
<line x1="92.29" y1="161.00" x2="98.29" y2="161.00" class="err"/>
<line x1="92.29" y1="184.40" x2="98.29" y2="184.40" class="err"/>
<circle cx="95.29" cy="172.70" r="2.5" class="obs"/>
<line x1="96.00" y1="162.39" x2="96.00" y2="181.54" class="err"/>
<line x1="93.00" y1="162.39" x2="99.00" y2="162.39" class="err"/>
<line x1="93.00" y1="181.54" x2="99.00" y2="181.54" class="err"/>
<circle cx="96.00" cy="171.97" r="2.5" class="obs"/>
<line x1="96.64" y1="161.88" x2="96.64" y2="179.13" class="err"/>
<line x1="93.64" y1="161.88" x2="99.64" y2="161.88" class="err"/>
<line x1="93.64" y1="179.13" x2="99.64" y2="179.13" class="err"/>
<circle cx="96.64" cy="170.50" r="2.5" class="obs"/>
<line x1="97.28" y1="160.49" x2="97.28" y2="179.06" class="err"/>
<line x1="94.28" y1="160.49" x2="100.28" y2="160.49" class="err"/>
<line x1="94.28" y1="179.06" x2="100.28" y2="179.06" class="err"/>
<circle cx="97.28" cy="169.77" r="2.5" class="obs"/>
<line x1="103.48" y1="156.23" x2="103.48" y2="164.30" class="err"/>
<line x1="100.48" y1="156.23" x2="106.48" y2="156.23" class="err"/>
<line x1="100.48" y1="164.30" x2="106.48" y2="164.30" class="err"/>
<circle cx="103.48" cy="160.27" r="2.5" class="obs"/>
<line x1="104.12" y1="157.09" x2="104.12" y2="160.52" class="err"/>
<line x1="101.12" y1="157.09" x2="107.12" y2="157.09" class="err"/>
<line x1="101.12" y1="160.52" x2="107.12" y2="160.52" class="err"/>
<circle cx="104.12" cy="158.80" r="2.5" class="obs"/>
<line x1="104.83" y1="154.34" x2="104.83" y2="161.80" class="err"/>
<line x1="101.83" y1="154.34" x2="107.83" y2="154.34" class="err"/>
<line x1="101.83" y1="161.80" x2="107.83" y2="161.80" class="err"/>
<circle cx="104.83" cy="158.07" r="2.5" class="obs"/>
<line x1="105.55" y1="153.24" x2="105.55" y2="159.98" class="err"/>
<line x1="102.55" y1="153.24" x2="108.55" y2="153.24" class="err"/>
<line x1="102.55" y1="159.98" x2="108.55" y2="159.98" class="err"/>
<circle cx="105.55" cy="156.61" r="2.5" class="obs"/>
<line x1="108.17" y1="145.06" x2="108.17" y2="160.85" class="err"/>
<line x1="105.17" y1="145.06" x2="111.17" y2="145.06" class="err"/>
<line x1="105.17" y1="160.85" x2="111.17" y2="160.85" class="err"/>
<circle cx="108.17" cy="152.95" r="2.5" class="obs"/>
<line x1="111.75" y1="146.48" x2="111.75" y2="150.65" class="err"/>
<line x1="108.75" y1="146.48" x2="114.75" y2="146.48" class="err"/>
<line x1="108.75" y1="150.65" x2="114.75" y2="150.65" class="err"/>
<circle cx="111.75" cy="148.57" r="2.5" class="obs"/>
<line x1="112.31" y1="145.70" x2="112.31" y2="148.51" class="err"/>
<line x1="109.31" y1="145.70" x2="115.31" y2="145.70" class="err"/>
<line x1="109.31" y1="148.51" x2="115.31" y2="148.51" class="err"/>
<circle cx="112.31" cy="147.11" r="2.5" class="obs"/>
<line x1="113.02" y1="143.24" x2="113.02" y2="149.51" class="err"/>
<line x1="110.02" y1="143.24" x2="116.02" y2="143.24" class="err"/>
<line x1="110.02" y1="149.51" x2="116.02" y2="149.51" class="err"/>
<circle cx="113.02" cy="146.37" r="2.5" class="obs"/>
<line x1="113.74" y1="142.05" x2="113.74" y2="149.24" class="err"/>
<line x1="110.74" y1="142.05" x2="116.74" y2="142.05" class="err"/>
<line x1="110.74" y1="149.24" x2="116.74" y2="149.24" class="err"/>
<circle cx="113.74" cy="145.64" r="2.5" class="obs"/>
<line x1="114.37" y1="143.27" x2="114.37" y2="146.55" class="err"/>
<line x1="111.37" y1="143.27" x2="117.37" y2="143.27" class="err"/>
<line x1="111.37" y1="146.55" x2="117.37" y2="146.55" class="err"/>
<circle cx="114.37" cy="144.91" r="2.5" class="obs"/>
<line x1="115.09" y1="140.82" x2="115.09" y2="147.54" class="err"/>
<line x1="112.09" y1="140.82" x2="118.09" y2="140.82" class="err"/>
<line x1="112.09" y1="147.54" x2="118.09" y2="147.54" class="err"/>
<circle cx="115.09" cy="144.18" r="2.5" class="obs"/>
<line x1="115.81" y1="139.74" x2="115.81" y2="147.16" class="err"/>
<line x1="112.81" y1="139.74" x2="118.81" y2="139.74" class="err"/>
<line x1="112.81" y1="147.16" x2="118.81" y2="147.16" class="err"/>
<circle cx="115.81" cy="143.45" r="2.5" class="obs"/>
<line x1="117.71" y1="135.49" x2="117.71" y2="147.03" class="err"/>
<line x1="114.71" y1="135.49" x2="120.71" y2="135.49" class="err"/>
<line x1="114.71" y1="147.03" x2="120.71" y2="147.03" class="err"/>
<circle cx="117.71" cy="141.26" r="2.5" class="obs"/>
<line x1="119.15" y1="137.30" x2="119.15" y2="143.75" class="err"/>
<line x1="116.15" y1="137.30" x2="122.15" y2="137.30" class="err"/>
<line x1="116.15" y1="143.75" x2="122.15" y2="143.75" class="err"/>
<circle cx="119.15" cy="140.52" r="2.5" class="obs"/>
<line x1="119.86" y1="137.45" x2="119.86" y2="142.13" class="err"/>
<line x1="116.86" y1="137.45" x2="122.86" y2="137.45" class="err"/>
<line x1="116.86" y1="142.13" x2="122.86" y2="142.13" class="err"/>
<circle cx="119.86" cy="139.79" r="2.5" class="obs"/>
<line x1="120.58" y1="134.19" x2="120.58" y2="143.93" class="err"/>
<line x1="117.58" y1="134.19" x2="123.58" y2="134.19" class="err"/>
<line x1="117.58" y1="143.93" x2="123.58" y2="143.93" class="err"/>
<circle cx="120.58" cy="139.06" r="2.5" class="obs"/>
<line x1="121.29" y1="134.07" x2="121.29" y2="142.59" class="err"/>
<line x1="118.29" y1="134.07" x2="124.29" y2="134.07" class="err"/>
<line x1="118.29" y1="142.59" x2="124.29" y2="142.59" class="err"/>
<circle cx="121.29" cy="138.33" r="2.5" class="obs"/>
<line x1="121.93" y1="135.53" x2="121.93" y2="141.13" class="err"/>
<line x1="118.93" y1="135.53" x2="124.93" y2="135.53" class="err"/>
<line x1="118.93" y1="141.13" x2="124.93" y2="141.13" class="err"/>
<circle cx="121.93" cy="138.33" r="2.5" class="obs"/>
<line x1="122.56" y1="135.84" x2="122.56" y2="139.36" class="err"/>
<line x1="119.56" y1="135.84" x2="125.56" y2="135.84" class="err"/>
<line x1="119.56" y1="139.36" x2="125.56" y2="139.36" class="err"/>
<circle cx="122.56" cy="137.60" r="2.5" class="obs"/>
<line x1="123.28" y1="135.95" x2="123.28" y2="137.78" class="err"/>
<line x1="120.28" y1="135.95" x2="126.28" y2="135.95" class="err"/>
<line x1="120.28" y1="137.78" x2="126.28" y2="137.78" class="err"/>
<circle cx="123.28" cy="136.87" r="2.5" class="obs"/>
<line x1="124.00" y1="134.23" x2="124.00" y2="139.51" class="err"/>
<line x1="121.00" y1="134.23" x2="127.00" y2="134.23" class="err"/>
<line x1="121.00" y1="139.51" x2="127.00" y2="139.51" class="err"/>
<circle cx="124.00" cy="136.87" r="2.5" class="obs"/>
<line x1="124.63" y1="126.05" x2="124.63" y2="146.23" class="err"/>
<line x1="121.63" y1="126.05" x2="127.63" y2="126.05" class="err"/>
<line x1="121.63" y1="146.23" x2="127.63" y2="146.23" class="err"/>
<circle cx="124.63" cy="136.14" r="2.5" class="obs"/>
<line x1="125.35" y1="132.79" x2="125.35" y2="139.49" class="err"/>
<line x1="122.35" y1="132.79" x2="128.35" y2="132.79" class="err"/>
<line x1="122.35" y1="139.49" x2="128.35" y2="139.49" class="err"/>
<circle cx="125.35" cy="136.14" r="2.5" class="obs"/>
<line x1="126.06" y1="133.18" x2="126.06" y2="137.64" class="err"/>
<line x1="123.06" y1="133.18" x2="129.06" y2="133.18" class="err"/>
<line x1="123.06" y1="137.64" x2="129.06" y2="137.64" class="err"/>
<circle cx="126.06" cy="135.41" r="2.5" class="obs"/>
<line x1="127.26" y1="133.67" x2="127.26" y2="135.68" class="err"/>
<line x1="124.26" y1="133.67" x2="130.26" y2="133.67" class="err"/>
<line x1="124.26" y1="135.68" x2="130.26" y2="135.68" class="err"/>
<circle cx="127.26" cy="134.68" r="2.5" class="obs"/>
<line x1="128.77" y1="133.40" x2="128.77" y2="134.49" class="err"/>
<line x1="125.77" y1="133.40" x2="131.77" y2="133.40" class="err"/>
<line x1="125.77" y1="134.49" x2="131.77" y2="134.49" class="err"/>
<circle cx="128.77" cy="133.94" r="2.5" class="obs"/>
<line x1="129.40" y1="127.68" x2="129.40" y2="140.21" class="err"/>
<line x1="126.40" y1="127.68" x2="132.40" y2="127.68" class="err"/>
<line x1="126.40" y1="140.21" x2="132.40" y2="140.21" class="err"/>
<circle cx="129.40" cy="133.94" r="2.5" class="obs"/>
<line x1="133.54" y1="131.49" x2="133.54" y2="133.48" class="err"/>
<line x1="130.54" y1="131.49" x2="136.54" y2="131.49" class="err"/>
<line x1="130.54" y1="133.48" x2="136.54" y2="133.48" class="err"/>
<circle cx="133.54" cy="132.48" r="2.5" class="obs"/>
<line x1="134.25" y1="120.78" x2="134.25" y2="144.18" class="err"/>
<line x1="131.25" y1="120.78" x2="137.25" y2="120.78" class="err"/>
<line x1="131.25" y1="144.18" x2="137.25" y2="144.18" class="err"/>
<circle cx="134.25" cy="132.48" r="2.5" class="obs"/>
<line x1="134.89" y1="128.46" x2="134.89" y2="136.50" class="err"/>
<line x1="131.89" y1="128.46" x2="137.89" y2="128.46" class="err"/>
<line x1="131.89" y1="136.50" x2="137.89" y2="136.50" class="err"/>
<circle cx="134.89" cy="132.48" r="2.5" class="obs"/>
<line x1="135.61" y1="129.60" x2="135.61" y2="133.90" class="err"/>
<line x1="132.61" y1="129.60" x2="138.61" y2="129.60" class="err"/>
<line x1="132.61" y1="133.90" x2="138.61" y2="133.90" class="err"/>
<circle cx="135.61" cy="131.75" r="2.5" class="obs"/>
<line x1="136.32" y1="130.48" x2="136.32" y2="133.02" class="err"/>
<line x1="133.32" y1="130.48" x2="139.32" y2="130.48" class="err"/>
<line x1="133.32" y1="133.02" x2="139.32" y2="133.02" class="err"/>
<circle cx="136.32" cy="131.75" r="2.5" class="obs"/>
<line x1="136.80" y1="130.14" x2="136.80" y2="133.36" class="err"/>
<line x1="133.80" y1="130.14" x2="139.80" y2="130.14" class="err"/>
<line x1="133.80" y1="133.36" x2="139.80" y2="133.36" class="err"/>
<circle cx="136.80" cy="131.75" r="2.5" class="obs"/>
<line x1="146.26" y1="129.39" x2="146.26" y2="134.11" class="err"/>
<line x1="143.26" y1="129.39" x2="149.26" y2="129.39" class="err"/>
<line x1="143.26" y1="134.11" x2="149.26" y2="134.11" class="err"/>
<circle cx="146.26" cy="131.75" r="2.5" class="obs"/>
<line x1="155.89" y1="130.23" x2="155.89" y2="136.20" class="err"/>
<line x1="152.89" y1="130.23" x2="158.89" y2="130.23" class="err"/>
<line x1="152.89" y1="136.20" x2="158.89" y2="136.20" class="err"/>
<circle cx="155.89" cy="133.21" r="2.5" class="obs"/>
<line x1="165.59" y1="134.95" x2="165.59" y2="138.78" class="err"/>
<line x1="162.59" y1="134.95" x2="168.59" y2="134.95" class="err"/>
<line x1="162.59" y1="138.78" x2="168.59" y2="138.78" class="err"/>
<circle cx="165.59" cy="136.87" r="2.5" class="obs"/>
<line x1="175.13" y1="139.24" x2="175.13" y2="140.35" class="err"/>
<line x1="172.13" y1="139.24" x2="178.13" y2="139.24" class="err"/>
<line x1="172.13" y1="140.35" x2="178.13" y2="140.35" class="err"/>
<circle cx="175.13" cy="139.79" r="2.5" class="obs"/>
<line x1="184.67" y1="142.09" x2="184.67" y2="144.81" class="err"/>
<line x1="181.67" y1="142.09" x2="187.67" y2="142.09" class="err"/>
<line x1="181.67" y1="144.81" x2="187.67" y2="144.81" class="err"/>
<circle cx="184.67" cy="143.45" r="2.5" class="obs"/>
<line x1="194.29" y1="146.13" x2="194.29" y2="148.09" class="err"/>
<line x1="191.29" y1="146.13" x2="197.29" y2="146.13" class="err"/>
<line x1="191.29" y1="148.09" x2="197.29" y2="148.09" class="err"/>
<circle cx="194.29" cy="147.11" r="2.5" class="obs"/>
<line x1="203.84" y1="147.54" x2="203.84" y2="149.60" class="err"/>
<line x1="200.84" y1="147.54" x2="206.84" y2="147.54" class="err"/>
<line x1="200.84" y1="149.60" x2="206.84" y2="149.60" class="err"/>
<circle cx="203.84" cy="148.57" r="2.5" class="obs"/>
<line x1="213.38" y1="149.19" x2="213.38" y2="150.87" class="err"/>
<line x1="210.38" y1="149.19" x2="216.38" y2="149.19" class="err"/>
<line x1="210.38" y1="150.87" x2="216.38" y2="150.87" class="err"/>
<circle cx="213.38" cy="150.03" r="2.5" class="obs"/>
<line x1="222.92" y1="149.60" x2="222.92" y2="150.46" class="err"/>
<line x1="219.92" y1="149.60" x2="225.92" y2="149.60" class="err"/>
<line x1="219.92" y1="150.46" x2="225.92" y2="150.46" class="err"/>
<circle cx="222.92" cy="150.03" r="2.5" class="obs"/>
<line x1="232.47" y1="149.66" x2="232.47" y2="150.40" class="err"/>
<line x1="229.47" y1="149.66" x2="235.47" y2="149.66" class="err"/>
<line x1="229.47" y1="150.40" x2="235.47" y2="150.40" class="err"/>
<circle cx="232.47" cy="150.03" r="2.5" class="obs"/>
<line x1="242.09" y1="150.61" x2="242.09" y2="152.38" class="err"/>
<line x1="239.09" y1="150.61" x2="245.09" y2="150.61" class="err"/>
<line x1="239.09" y1="152.38" x2="245.09" y2="152.38" class="err"/>
<circle cx="242.09" cy="151.49" r="2.5" class="obs"/>
<line x1="251.63" y1="152.07" x2="251.63" y2="153.84" class="err"/>
<line x1="248.63" y1="152.07" x2="254.63" y2="152.07" class="err"/>
<line x1="248.63" y1="153.84" x2="254.63" y2="153.84" class="err"/>
<circle cx="251.63" cy="152.95" r="2.5" class="obs"/>
<line x1="261.17" y1="154.56" x2="261.17" y2="155.74" class="err"/>
<line x1="258.17" y1="154.56" x2="264.17" y2="154.56" class="err"/>
<line x1="258.17" y1="155.74" x2="264.17" y2="155.74" class="err"/>
<circle cx="261.17" cy="155.15" r="2.5" class="obs"/>
<line x1="270.72" y1="157.28" x2="270.72" y2="158.86" class="err"/>
<line x1="267.72" y1="157.28" x2="273.72" y2="157.28" class="err"/>
<line x1="267.72" y1="158.86" x2="273.72" y2="158.86" class="err"/>
<circle cx="270.72" cy="158.07" r="2.5" class="obs"/>
<line x1="280.26" y1="159.63" x2="280.26" y2="162.37" class="err"/>
<line x1="277.26" y1="159.63" x2="283.26" y2="159.63" class="err"/>
<line x1="277.26" y1="162.37" x2="283.26" y2="162.37" class="err"/>
<circle cx="280.26" cy="161.00" r="2.5" class="obs"/>
<line x1="289.88" y1="162.06" x2="289.88" y2="164.32" class="err"/>
<line x1="286.88" y1="162.06" x2="292.88" y2="162.06" class="err"/>
<line x1="286.88" y1="164.32" x2="292.88" y2="164.32" class="err"/>
<circle cx="289.88" cy="163.19" r="2.5" class="obs"/>
<line x1="299.42" y1="164.00" x2="299.42" y2="166.77" class="err"/>
<line x1="296.42" y1="164.00" x2="302.42" y2="164.00" class="err"/>
<line x1="296.42" y1="166.77" x2="302.42" y2="166.77" class="err"/>
<circle cx="299.42" cy="165.39" r="2.5" class="obs"/>
<line x1="308.97" y1="166.03" x2="308.97" y2="167.67" class="err"/>
<line x1="305.97" y1="166.03" x2="311.97" y2="166.03" class="err"/>
<line x1="305.97" y1="167.67" x2="311.97" y2="167.67" class="err"/>
<circle cx="308.97" cy="166.85" r="2.5" class="obs"/>
<line x1="318.51" y1="166.55" x2="318.51" y2="168.61" class="err"/>
<line x1="315.51" y1="166.55" x2="321.51" y2="166.55" class="err"/>
<line x1="315.51" y1="168.61" x2="321.51" y2="168.61" class="err"/>
<circle cx="318.51" cy="167.58" r="2.5" class="obs"/>
<line x1="327.18" y1="167.75" x2="327.18" y2="170.33" class="err"/>
<line x1="324.18" y1="167.75" x2="330.18" y2="167.75" class="err"/>
<line x1="324.18" y1="170.33" x2="330.18" y2="170.33" class="err"/>
<circle cx="327.18" cy="169.04" r="2.5" class="obs"/>
<line x1="336.80" y1="168.45" x2="336.80" y2="171.10" class="err"/>
<line x1="333.80" y1="168.45" x2="339.80" y2="168.45" class="err"/>
<line x1="333.80" y1="171.10" x2="339.80" y2="171.10" class="err"/>
<circle cx="336.80" cy="169.77" r="2.5" class="obs"/>
<line x1="346.34" y1="168.91" x2="346.34" y2="172.10" class="err"/>
<line x1="343.34" y1="168.91" x2="349.34" y2="168.91" class="err"/>
<line x1="343.34" y1="172.10" x2="349.34" y2="172.10" class="err"/>
<circle cx="346.34" cy="170.50" r="2.5" class="obs"/>
<line x1="355.89" y1="169.03" x2="355.89" y2="173.44" class="err"/>
<line x1="352.89" y1="169.03" x2="358.89" y2="169.03" class="err"/>
<line x1="352.89" y1="173.44" x2="358.89" y2="173.44" class="err"/>
<circle cx="355.89" cy="171.23" r="2.5" class="obs"/>
<line x1="365.43" y1="170.47" x2="365.43" y2="173.46" class="err"/>
<line x1="362.43" y1="170.47" x2="368.43" y2="170.47" class="err"/>
<line x1="362.43" y1="173.46" x2="368.43" y2="173.46" class="err"/>
<circle cx="365.43" cy="171.97" r="2.5" class="obs"/>
<line x1="374.97" y1="170.81" x2="374.97" y2="173.12" class="err"/>
<line x1="371.97" y1="170.81" x2="377.97" y2="170.81" class="err"/>
<line x1="371.97" y1="173.12" x2="377.97" y2="173.12" class="err"/>
<circle cx="374.97" cy="171.97" r="2.5" class="obs"/>
<line x1="384.59" y1="169.60" x2="384.59" y2="174.33" class="err"/>
<line x1="381.59" y1="169.60" x2="387.59" y2="169.60" class="err"/>
<line x1="381.59" y1="174.33" x2="387.59" y2="174.33" class="err"/>
<circle cx="384.59" cy="171.97" r="2.5" class="obs"/>
<line x1="394.14" y1="169.82" x2="394.14" y2="174.12" class="err"/>
<line x1="391.14" y1="169.82" x2="397.14" y2="169.82" class="err"/>
<line x1="391.14" y1="174.12" x2="397.14" y2="174.12" class="err"/>
<circle cx="394.14" cy="171.97" r="2.5" class="obs"/>
<line x1="403.68" y1="170.78" x2="403.68" y2="173.15" class="err"/>
<line x1="400.68" y1="170.78" x2="406.68" y2="170.78" class="err"/>
<line x1="400.68" y1="173.15" x2="406.68" y2="173.15" class="err"/>
<circle cx="403.68" cy="171.97" r="2.5" class="obs"/>
<line x1="413.22" y1="170.39" x2="413.22" y2="173.54" class="err"/>
<line x1="410.22" y1="170.39" x2="416.22" y2="170.39" class="err"/>
<line x1="410.22" y1="173.54" x2="416.22" y2="173.54" class="err"/>
<circle cx="413.22" cy="171.97" r="2.5" class="obs"/>
<line x1="422.76" y1="170.17" x2="422.76" y2="176.68" class="err"/>
<line x1="419.76" y1="170.17" x2="425.76" y2="170.17" class="err"/>
<line x1="419.76" y1="176.68" x2="425.76" y2="176.68" class="err"/>
<circle cx="422.76" cy="173.43" r="2.5" class="obs"/>
<line x1="432.39" y1="169.46" x2="432.39" y2="180.32" class="err"/>
<line x1="429.39" y1="169.46" x2="435.39" y2="169.46" class="err"/>
<line x1="429.39" y1="180.32" x2="435.39" y2="180.32" class="err"/>
<circle cx="432.39" cy="174.89" r="2.5" class="obs"/>
<line x1="441.93" y1="171.07" x2="441.93" y2="181.63" class="err"/>
<line x1="438.93" y1="171.07" x2="444.93" y2="171.07" class="err"/>
<line x1="438.93" y1="181.63" x2="444.93" y2="181.63" class="err"/>
<circle cx="441.93" cy="176.35" r="2.5" class="obs"/>
<line x1="451.47" y1="173.16" x2="451.47" y2="181.01" class="err"/>
<line x1="448.47" y1="173.16" x2="454.47" y2="173.16" class="err"/>
<line x1="448.47" y1="181.01" x2="454.47" y2="181.01" class="err"/>
<circle cx="451.47" cy="177.08" r="2.5" class="obs"/>
<line x1="461.02" y1="172.38" x2="461.02" y2="180.32" class="err"/>
<line x1="458.02" y1="172.38" x2="464.02" y2="172.38" class="err"/>
<line x1="458.02" y1="180.32" x2="464.02" y2="180.32" class="err"/>
<circle cx="461.02" cy="176.35" r="2.5" class="obs"/>
<line x1="470.56" y1="170.16" x2="470.56" y2="179.62" class="err"/>
<line x1="467.56" y1="170.16" x2="473.56" y2="170.16" class="err"/>
<line x1="467.56" y1="179.62" x2="473.56" y2="179.62" class="err"/>
<circle cx="470.56" cy="174.89" r="2.5" class="obs"/>
<line x1="480.18" y1="168.49" x2="480.18" y2="176.90" class="err"/>
<line x1="477.18" y1="168.49" x2="483.18" y2="168.49" class="err"/>
<line x1="477.18" y1="176.90" x2="483.18" y2="176.90" class="err"/>
<circle cx="480.18" cy="172.70" r="2.5" class="obs"/>
<line x1="489.72" y1="167.18" x2="489.72" y2="175.29" class="err"/>
<line x1="486.72" y1="167.18" x2="492.72" y2="167.18" class="err"/>
<line x1="486.72" y1="175.29" x2="492.72" y2="175.29" class="err"/>
<circle cx="489.72" cy="171.23" r="2.5" class="obs"/>
<line x1="499.27" y1="167.26" x2="499.27" y2="173.74" class="err"/>
<line x1="496.27" y1="167.26" x2="502.27" y2="167.26" class="err"/>
<line x1="496.27" y1="173.74" x2="502.27" y2="173.74" class="err"/>
<circle cx="499.27" cy="170.50" r="2.5" class="obs"/>
<line x1="508.81" y1="167.06" x2="508.81" y2="173.95" class="err"/>
<line x1="505.81" y1="167.06" x2="511.81" y2="167.06" class="err"/>
<line x1="505.81" y1="173.95" x2="511.81" y2="173.95" class="err"/>
<circle cx="508.81" cy="170.50" r="2.5" class="obs"/>
<line x1="527.97" y1="169.57" x2="527.97" y2="177.29" class="err"/>
<line x1="524.97" y1="169.57" x2="530.97" y2="169.57" class="err"/>
<line x1="524.97" y1="177.29" x2="530.97" y2="177.29" class="err"/>
<circle cx="527.97" cy="173.43" r="2.5" class="obs"/>
<line x1="547.06" y1="169.26" x2="547.06" y2="176.13" class="err"/>
<line x1="544.06" y1="169.26" x2="550.06" y2="169.26" class="err"/>
<line x1="544.06" y1="176.13" x2="550.06" y2="176.13" class="err"/>
<circle cx="547.06" cy="172.70" r="2.5" class="obs"/>
<line x1="566.15" y1="162.43" x2="566.15" y2="169.80" class="err"/>
<line x1="563.15" y1="162.43" x2="569.15" y2="162.43" class="err"/>
<line x1="563.15" y1="169.80" x2="569.15" y2="169.80" class="err"/>
<circle cx="566.15" cy="166.12" r="2.5" class="obs"/>
<g class="legend">
<line x1="82" y1="69" x2="106" y2="69" class="fw"/>
<text x="112" y="73" class="lbl-l">framework fit</text>
<line x1="82" y1="87" x2="106" y2="87" class="nt"/>
<text x="112" y="91" class="lbl-l">Newtonian (no halo)</text>
<circle cx="94" cy="105" r="2.5" class="obs"/>
<text x="112" y="109" class="lbl">observed V±err</text>
</g>
<g class="legend">
<line x1="442" y1="69" x2="466" y2="69" class="rho"/>
<text x="472" y="73" class="lbl-r">ρ(r) raw</text>
<line x1="442" y1="87" x2="466" y2="87" class="sig"/>
<text x="472" y="91" class="lbl-s">Σ(r) cumulative</text>
<text x="442" y="113" class="lbl-r">ρ peak: 2491 M☉/pc²</text>
</g>
<rect x="705" y="55" width="170" height="170" class="preview-bg"/>
<defs><radialGradient id="g_UGC02953" cx="0.5" cy="0.5" r="0.5">
  <stop offset="0.0000" stop-color="rgb(255,255,255)"/>
  <stop offset="0.0313" stop-color="rgb(213,213,213)"/>
  <stop offset="0.0625" stop-color="rgb(188,188,188)"/>
  <stop offset="0.0938" stop-color="rgb(162,162,162)"/>
  <stop offset="0.1250" stop-color="rgb(137,137,137)"/>
  <stop offset="0.1563" stop-color="rgb(123,123,123)"/>
  <stop offset="0.1875" stop-color="rgb(118,118,118)"/>
  <stop offset="0.2188" stop-color="rgb(114,114,114)"/>
  <stop offset="0.2500" stop-color="rgb(109,109,109)"/>
  <stop offset="0.2813" stop-color="rgb(104,104,104)"/>
  <stop offset="0.3125" stop-color="rgb(100,100,100)"/>
  <stop offset="0.3438" stop-color="rgb(96,96,96)"/>
  <stop offset="0.3750" stop-color="rgb(95,95,95)"/>
  <stop offset="0.4063" stop-color="rgb(93,93,93)"/>
  <stop offset="0.4375" stop-color="rgb(92,92,92)"/>
  <stop offset="0.4688" stop-color="rgb(90,90,90)"/>
  <stop offset="0.5000" stop-color="rgb(89,89,89)"/>
  <stop offset="0.5313" stop-color="rgb(87,87,87)"/>
  <stop offset="0.5625" stop-color="rgb(86,86,86)"/>
  <stop offset="0.5938" stop-color="rgb(84,84,84)"/>
  <stop offset="0.6250" stop-color="rgb(83,83,83)"/>
  <stop offset="0.6563" stop-color="rgb(81,81,81)"/>
  <stop offset="0.6875" stop-color="rgb(80,80,80)"/>
  <stop offset="0.7188" stop-color="rgb(79,79,79)"/>
  <stop offset="0.7500" stop-color="rgb(77,77,77)"/>
  <stop offset="0.7813" stop-color="rgb(76,76,76)"/>
  <stop offset="0.8125" stop-color="rgb(74,74,74)"/>
  <stop offset="0.8438" stop-color="rgb(73,73,73)"/>
  <stop offset="0.8750" stop-color="rgb(71,71,71)"/>
  <stop offset="0.9063" stop-color="rgb(70,70,70)"/>
  <stop offset="0.9375" stop-color="rgb(68,68,68)"/>
  <stop offset="0.9688" stop-color="rgb(67,67,67)"/>
  <stop offset="1.0000" stop-color="rgb(0,0,0)"/>
</radialGradient></defs>
<circle cx="790" cy="140" r="81" fill="url(#g_UGC02953)"/>
<text x="790" y="49" text-anchor="middle" class="preview-lbl">face-on luminance from ρ(r)</text>
<text x="790" y="239" text-anchor="middle" class="preview-lbl">edge at r = 65.5 kpc</text>
</svg>