<svg xmlns="http://www.w3.org/2000/svg" viewBox="0 0 720 420" width="720" height="420" font-family="sans-serif" font-size="12">
<style>
  .ax { stroke: #333; stroke-width: 1; fill: none; }
  .grid { stroke: #ddd; stroke-width: 0.5; fill: none; }
  .lbl { fill: #333; }
  .lbl-l { fill: #0066cc; }
  .lbl-r { fill: #b03030; }
  .obs { fill: #222; }
  .err { stroke: #555; stroke-width: 0.8; fill: none; }
  .fw { stroke: #0066cc; stroke-width: 2.2; fill: none; }
  .nt { stroke: #cc6600; stroke-width: 1.6; fill: none; stroke-dasharray: 5,3; }
  .rho { stroke: #b03030; stroke-width: 2.0; fill: none; }
  .sig { stroke: #b03030; stroke-width: 1.6; fill: none; stroke-dasharray: 4,2; opacity: 0.85; }
  .title { fill: #111; font-size: 16px; font-weight: 600; }
  .subtitle { fill: #555; font-size: 11px; }
  .legend { font-size: 11px; }
</style>
<text x="360.0" y="22" text-anchor="middle" class="title">UGC08837</text>
<text x="360.0" y="38" text-anchor="middle" class="subtitle">rMax=4.2 kpc, N=8, RMS=0.8 km/s (2.6%), amp=103</text>
<line x1="70" y1="365.0" x2="635" y2="365.0" class="grid"/>
<text x="64" y="369.0" text-anchor="end" class="lbl-l">0</text>
<line x1="70" y1="303.0" x2="635" y2="303.0" class="grid"/>
<text x="64" y="307.0" text-anchor="end" class="lbl-l">11</text>
<line x1="70" y1="241.0" x2="635" y2="241.0" class="grid"/>
<text x="64" y="245.0" text-anchor="end" class="lbl-l">22</text>
<line x1="70" y1="178.99999999999997" x2="635" y2="178.99999999999997" class="grid"/>
<text x="64" y="182.99999999999997" text-anchor="end" class="lbl-l">34</text>
<line x1="70" y1="116.99999999999999" x2="635" y2="116.99999999999999" class="grid"/>
<text x="64" y="120.99999999999999" text-anchor="end" class="lbl-l">45</text>
<line x1="70" y1="55.0" x2="635" y2="55.0" class="grid"/>
<text x="64" y="59.0" text-anchor="end" class="lbl-l">56</text>
<text x="641" y="369.0" text-anchor="start" class="lbl-r">0.0</text>
<text x="641" y="327.6666666666667" text-anchor="start" class="lbl-r">0.2</text>
<text x="641" y="286.33333333333337" text-anchor="start" class="lbl-r">0.4</text>
<text x="641" y="245.00000000000003" text-anchor="start" class="lbl-r">0.6</text>
<text x="641" y="203.66666666666666" text-anchor="start" class="lbl-r">0.8</text>
<text x="641" y="162.33333333333334" text-anchor="start" class="lbl-r">1.0</text>
<line x1="70.0" y1="55" x2="70.0" y2="365" class="grid"/>
<text x="70.0" y="381" text-anchor="middle" class="lbl">0.0</text>
<line x1="164.16666666666669" y1="55" x2="164.16666666666669" y2="365" class="grid"/>
<text x="164.16666666666669" y="381" text-anchor="middle" class="lbl">0.7</text>
<line x1="258.33333333333337" y1="55" x2="258.33333333333337" y2="365" class="grid"/>
<text x="258.33333333333337" y="381" text-anchor="middle" class="lbl">1.5</text>
<line x1="352.5" y1="55" x2="352.5" y2="365" class="grid"/>
<text x="352.5" y="381" text-anchor="middle" class="lbl">2.2</text>
<line x1="446.6666666666667" y1="55" x2="446.6666666666667" y2="365" class="grid"/>
<text x="446.6666666666667" y="381" text-anchor="middle" class="lbl">3.0</text>
<line x1="540.8333333333333" y1="55" x2="540.8333333333333" y2="365" class="grid"/>
<text x="540.8333333333333" y="381" text-anchor="middle" class="lbl">3.7</text>
<line x1="635.0" y1="55" x2="635.0" y2="365" class="grid"/>
<text x="635.0" y="381" text-anchor="middle" class="lbl">4.5</text>
<text x="352.5" y="408" text-anchor="middle" class="lbl">radius (kpc)</text>
<text x="16" y="210.0" text-anchor="middle" class="lbl-l" transform="rotate(-90, 16, 210.0)">velocity (km/s)</text>
<text x="704" y="210.0" text-anchor="middle" class="lbl-r" transform="rotate(-90, 704, 210.0)">mass profile (normalized to peak)</text>
<rect x="70" y="55" width="565" height="310" class="ax"/>
<path d="M 70.0,158.3 L 72.6,159.8 L 75.2,161.2 L 77.7,162.7 L 80.3,164.1 L 82.9,165.6 L 85.5,167.0 L 88.1,167.1 L 90.6,167.1 L 93.2,167.1 L 95.8,167.1 L 98.4,167.1 L 101.0,167.1 L 103.5,167.1 L 106.1,167.1 L 108.7,167.1 L 111.3,167.1 L 113.9,167.1 L 116.4,167.1 L 119.0,167.1 L 121.6,167.1 L 124.2,167.1 L 126.8,167.1 L 129.3,167.1 L 131.9,167.1 L 134.5,167.1 L 137.1,167.1 L 139.7,167.1 L 142.2,167.1 L 144.8,167.1 L 147.4,167.1 L 150.0,167.1 L 152.6,167.1 L 155.1,167.1 L 157.7,167.1 L 160.3,167.1 L 162.9,167.2 L 165.5,167.5 L 168.0,167.7 L 170.6,167.9 L 173.2,168.2 L 175.8,168.4 L 178.4,168.7 L 180.9,168.9 L 183.5,169.1 L 186.1,169.4 L 188.7,169.6 L 191.3,169.9 L 193.8,170.1 L 196.4,170.3 L 199.0,170.6 L 201.6,170.8 L 204.2,171.0 L 206.7,171.3 L 209.3,171.5 L 211.9,171.8 L 214.5,172.0 L 217.1,172.2 L 219.6,172.5 L 222.2,172.7 L 224.8,173.0 L 227.4,173.2 L 230.0,173.4 L 232.5,173.7 L 235.1,173.9 L 237.7,174.2 L 240.3,174.4 L 242.9,174.6 L 245.4,174.9 L 248.0,175.1 L 250.6,175.4 L 253.2,175.6 L 255.8,175.8 L 258.3,176.1 L 260.9,176.3 L 263.5,176.6 L 266.1,176.8 L 268.7,177.0 L 271.2,177.3 L 273.8,177.5 L 276.4,177.8 L 279.0,178.0 L 281.6,178.2 L 284.1,178.5 L 286.7,178.7 L 289.3,179.0 L 291.9,179.2 L 294.5,179.4 L 297.0,179.7 L 299.6,179.9 L 302.2,180.2 L 304.8,180.4 L 307.4,180.6 L 309.9,180.9 L 312.5,181.1 L 315.1,181.4 L 317.7,181.6 L 320.3,181.8 L 322.8,182.1 L 325.4,182.3 L 328.0,182.6 L 330.6,182.8 L 333.2,183.0 L 335.7,183.3 L 338.3,183.5 L 340.9,183.8 L 343.5,184.0 L 346.1,184.2 L 348.6,184.5 L 351.2,184.7 L 353.8,184.9 L 356.4,185.2 L 358.9,185.4 L 361.5,185.7 L 364.1,185.9 L 366.7,186.1 L 369.3,186.4 L 371.8,186.6 L 374.4,186.9 L 377.0,187.1 L 379.6,187.3 L 382.2,187.6 L 384.7,187.8 L 387.3,188.1 L 389.9,188.3 L 392.5,188.5 L 395.1,188.8 L 397.6,189.0 L 400.2,189.3 L 402.8,189.5 L 405.4,189.7 L 408.0,190.0 L 410.5,190.2 L 413.1,190.5 L 415.7,190.7 L 418.3,191.2 L 420.9,192.1 L 423.4,193.0 L 426.0,193.9 L 428.6,194.8 L 431.2,195.7 L 433.8,196.6 L 436.3,197.5 L 438.9,198.4 L 441.5,199.3 L 444.1,200.2 L 446.7,201.1 L 449.2,202.0 L 451.8,202.9 L 454.4,203.8 L 457.0,204.7 L 459.6,205.6 L 462.1,206.5 L 464.7,207.3 L 467.3,208.2 L 469.9,209.1 L 472.5,210.0 L 475.0,210.9 L 477.6,211.8 L 480.2,212.7 L 482.8,213.6 L 485.4,214.5 L 487.9,215.4 L 490.5,216.3 L 493.1,217.2 L 495.7,218.1 L 498.3,219.0 L 500.8,219.9 L 503.4,220.8 L 506.0,221.7 L 508.6,222.6 L 511.2,223.5 L 513.7,224.4 L 516.3,225.3 L 518.9,226.2 L 521.5,227.1 L 524.1,228.0 L 526.6,228.9 L 529.2,229.8 L 531.8,230.7 L 534.4,231.6 L 537.0,232.4 L 539.5,233.3 L 542.1,234.2 L 544.7,235.1 L 547.3,236.0 L 549.9,236.9 L 552.4,237.8 L 555.0,238.7 L 557.6,239.6 L 560.2,240.5 L 562.8,241.4 L 565.3,242.3 L 567.9,243.2 L 570.5,244.1 L 573.1,245.0 L 575.7,245.9 L 578.2,246.8 L 580.8,247.7 L 583.4,248.6 L 586.0,249.5 L 588.6,250.4 L 591.1,259.9 L 593.7,275.9 L 596.3,291.9 L 598.9,307.9 L 601.5,323.9 L 604.0,339.9 L 606.6,355.9 L 609.2,365.0 L 611.8,365.0 L 614.4,365.0 L 616.9,365.0 L 619.5,365.0 L 622.1,365.0 L 624.7,365.0 L 627.3,365.0 L 629.8,365.0 L 632.4,365.0 L 635.0,365.0" class="rho"/>
<path d="M 70.0,158.3 L 72.6,158.3 L 75.2,158.4 L 77.7,158.4 L 80.3,158.4 L 82.9,158.5 L 85.5,158.5 L 88.1,158.6 L 90.6,158.7 L 93.2,158.8 L 95.8,158.8 L 98.4,158.9 L 101.0,159.0 L 103.5,159.1 L 106.1,159.3 L 108.7,159.4 L 111.3,159.5 L 113.9,159.6 L 116.4,159.8 L 119.0,159.9 L 121.6,160.1 L 124.2,160.2 L 126.8,160.4 L 129.3,160.6 L 131.9,160.8 L 134.5,161.0 L 137.1,161.2 L 139.7,161.4 L 142.2,161.6 L 144.8,161.9 L 147.4,162.1 L 150.0,162.3 L 152.6,162.6 L 155.1,162.9 L 157.7,163.2 L 160.3,163.5 L 162.9,163.8 L 165.5,164.1 L 168.0,164.4 L 170.6,164.7 L 173.2,165.1 L 175.8,165.4 L 178.4,165.8 L 180.9,166.2 L 183.5,166.6 L 186.1,167.0 L 188.7,167.4 L 191.3,167.8 L 193.8,168.2 L 196.4,168.6 L 199.0,169.0 L 201.6,169.5 L 204.2,169.9 L 206.7,170.4 L 209.3,170.8 L 211.9,171.3 L 214.5,171.7 L 217.1,172.2 L 219.6,172.7 L 222.2,173.2 L 224.8,173.7 L 227.4,174.2 L 230.0,174.7 L 232.5,175.2 L 235.1,175.7 L 237.7,176.2 L 240.3,176.7 L 242.9,177.3 L 245.4,177.8 L 248.0,178.3 L 250.6,178.9 L 253.2,179.4 L 255.8,180.0 L 258.3,180.6 L 260.9,181.1 L 263.5,181.7 L 266.1,182.3 L 268.7,182.8 L 271.2,183.4 L 273.8,184.0 L 276.4,184.6 L 279.0,185.2 L 281.6,185.8 L 284.1,186.4 L 286.7,187.0 L 289.3,187.6 L 291.9,188.3 L 294.5,188.9 L 297.0,189.5 L 299.6,190.2 L 302.2,190.8 L 304.8,191.4 L 307.4,192.1 L 309.9,192.8 L 312.5,193.4 L 315.1,194.1 L 317.7,194.7 L 320.3,195.4 L 322.8,196.1 L 325.4,196.8 L 328.0,197.5 L 330.6,198.2 L 333.2,198.9 L 335.7,199.6 L 338.3,200.3 L 340.9,201.0 L 343.5,201.8 L 346.1,202.5 L 348.6,203.2 L 351.2,204.0 L 353.8,204.8 L 356.4,205.5 L 358.9,206.3 L 361.5,207.1 L 364.1,207.8 L 366.7,208.6 L 369.3,209.4 L 371.8,210.3 L 374.4,211.1 L 377.0,211.9 L 379.6,212.7 L 382.2,213.6 L 384.7,214.4 L 387.3,215.3 L 389.9,216.2 L 392.5,217.1 L 395.1,218.0 L 397.6,218.9 L 400.2,219.8 L 402.8,220.8 L 405.4,221.7 L 408.0,222.7 L 410.5,223.7 L 413.1,224.7 L 415.7,225.7 L 418.3,226.7 L 420.9,227.8 L 423.4,228.8 L 426.0,229.9 L 428.6,231.0 L 431.2,232.1 L 433.8,233.2 L 436.3,234.3 L 438.9,235.4 L 441.5,236.6 L 444.1,237.7 L 446.7,238.9 L 449.2,240.0 L 451.8,241.2 L 454.4,242.4 L 457.0,243.6 L 459.6,244.7 L 462.1,245.9 L 464.7,247.1 L 467.3,248.3 L 469.9,249.5 L 472.5,250.7 L 475.0,251.9 L 477.6,253.1 L 480.2,254.3 L 482.8,255.5 L 485.4,256.7 L 487.9,257.9 L 490.5,259.2 L 493.1,260.4 L 495.7,261.6 L 498.3,262.8 L 500.8,264.0 L 503.4,265.2 L 506.0,266.4 L 508.6,267.6 L 511.2,268.8 L 513.7,270.0 L 516.3,271.2 L 518.9,272.5 L 521.5,273.7 L 524.1,274.9 L 526.6,276.1 L 529.2,277.3 L 531.8,278.5 L 534.4,279.7 L 537.0,280.9 L 539.5,282.1 L 542.1,283.3 L 544.7,284.6 L 547.3,285.8 L 549.9,287.0 L 552.4,288.2 L 555.0,289.5 L 557.6,290.7 L 560.2,292.0 L 562.8,293.2 L 565.3,294.5 L 567.9,295.8 L 570.5,297.0 L 573.1,298.3 L 575.7,299.6 L 578.2,300.9 L 580.8,302.3 L 583.4,303.6 L 586.0,304.9 L 588.6,306.2 L 591.1,307.5 L 593.7,308.8 L 596.3,310.1 L 598.9,311.4 L 601.5,312.6 L 604.0,313.9 L 606.6,315.0 L 609.2,316.2 L 611.8,317.3 L 614.4,318.3 L 616.9,319.3 L 619.5,320.3 L 622.1,321.2 L 624.7,322.1 L 627.3,323.0 L 629.8,323.8 L 632.4,324.6 L 635.0,325.3" class="sig"/>
<path d="M 75.7,339.9 L 81.3,329.7 L 87.0,322.0 L 92.6,315.5 L 98.2,309.7 L 103.9,304.5 L 109.6,299.7 L 115.2,295.2 L 120.8,291.0 L 126.5,287.0 L 132.2,283.2 L 137.8,279.5 L 143.4,276.1 L 149.1,272.7 L 154.8,269.5 L 160.4,266.3 L 166.1,263.3 L 171.7,260.4 L 177.3,257.6 L 183.0,254.8 L 188.7,252.1 L 194.3,249.5 L 200.0,247.0 L 205.6,244.5 L 211.2,242.1 L 216.9,239.8 L 222.5,237.5 L 228.2,235.2 L 233.8,233.0 L 239.5,230.9 L 245.1,228.8 L 250.8,226.7 L 256.5,224.7 L 262.1,222.7 L 267.8,220.7 L 273.4,218.8 L 279.1,216.9 L 284.7,215.0 L 290.4,213.2 L 296.0,211.4 L 301.6,209.6 L 307.3,207.9 L 312.9,206.2 L 318.6,204.5 L 324.2,202.8 L 329.9,201.1 L 335.5,199.5 L 341.2,197.9 L 346.9,196.3 L 352.5,194.8 L 358.1,193.2 L 363.8,191.7 L 369.4,190.2 L 375.1,188.7 L 380.7,187.3 L 386.4,185.8 L 392.1,184.4 L 397.7,183.0 L 403.4,181.6 L 409.0,180.2 L 414.6,178.9 L 420.3,177.5 L 425.9,176.2 L 431.6,174.9 L 437.2,173.7 L 442.9,172.5 L 448.5,171.3 L 454.2,170.2 L 459.9,169.1 L 465.5,168.1 L 471.1,167.0 L 476.8,166.0 L 482.4,165.0 L 488.1,164.1 L 493.8,163.2 L 499.4,162.3 L 505.1,161.4 L 510.7,160.6 L 516.4,159.8 L 522.0,159.0 L 527.6,158.3 L 533.3,157.5 L 539.0,156.8 L 544.6,156.2 L 550.2,155.5 L 555.9,154.9 L 561.5,154.3 L 567.2,153.7 L 572.9,153.1 L 578.5,152.6 L 584.1,152.1 L 589.8,151.6 L 595.4,151.3 L 601.1,151.6 L 606.8,152.3 L 612.4,153.4 L 618.1,154.5 L 623.7,155.6 L 629.3,156.7 L 635.0,157.7" class="nt"/>
<path d="M 74.7,361.1 L 79.4,358.3 L 84.1,355.3 L 88.8,352.5 L 93.5,349.8 L 98.2,347.2 L 103.0,344.6 L 107.7,341.9 L 112.4,339.3 L 117.1,336.5 L 121.8,333.7 L 126.5,330.9 L 131.2,327.9 L 135.9,324.9 L 140.6,321.9 L 145.3,318.7 L 150.0,315.5 L 154.8,312.3 L 159.5,309.1 L 164.2,305.8 L 168.9,302.6 L 173.6,299.5 L 178.3,296.4 L 183.0,293.4 L 187.7,290.5 L 192.4,287.7 L 197.1,285.0 L 201.8,282.3 L 206.5,279.7 L 211.2,277.1 L 216.0,274.5 L 220.7,272.1 L 225.4,269.6 L 230.1,267.2 L 234.8,264.8 L 239.5,262.5 L 244.2,260.1 L 248.9,257.8 L 253.6,255.5 L 258.3,253.2 L 263.0,251.0 L 267.8,248.7 L 272.5,246.5 L 277.2,244.2 L 281.9,242.0 L 286.6,239.7 L 291.3,237.5 L 296.0,235.2 L 300.7,232.9 L 305.4,230.7 L 310.1,228.4 L 314.8,226.0 L 319.5,223.7 L 324.2,221.3 L 329.0,218.9 L 333.7,216.5 L 338.4,214.0 L 343.1,211.5 L 347.8,208.9 L 352.5,206.3 L 357.2,203.5 L 361.9,200.8 L 366.6,197.9 L 371.3,194.9 L 376.0,191.8 L 380.8,188.6 L 385.5,185.3 L 390.2,181.9 L 394.9,178.3 L 399.6,174.5 L 404.3,170.6 L 409.0,166.7 L 413.7,162.6 L 418.4,158.6 L 423.1,154.7 L 427.8,150.9 L 432.5,147.4 L 437.2,144.1 L 442.0,141.1 L 446.7,138.2 L 451.4,135.6 L 456.1,133.2 L 460.8,131.0 L 465.5,128.9 L 470.2,127.0 L 474.9,125.2 L 479.6,123.5 L 484.3,122.0 L 489.0,120.5 L 493.8,119.1 L 498.5,117.7 L 503.2,116.4 L 507.9,115.1 L 512.6,113.8 L 517.3,112.5 L 522.0,111.2 L 526.7,109.8 L 531.4,108.3 L 536.1,106.8 L 540.8,105.1 L 545.5,103.2 L 550.2,101.1 L 555.0,98.8 L 559.7,96.2 L 564.4,93.3 L 569.1,90.3 L 573.8,87.2 L 578.5,84.4 L 583.2,82.2 L 587.9,81.2 L 592.6,81.9 L 597.3,84.5 L 602.0,88.9 L 606.8,95.2 L 611.5,102.6 L 616.2,110.7 L 620.9,119.0 L 625.6,127.2 L 630.3,134.9 L 635.0,142.2" class="fw"/>
<line x1="135.94028276799065" y1="312.89126559714794" x2="135.94028276799065" y2="336.32085561497325" class="err"/>
<line x1="132.94028276799065" y1="312.89126559714794" x2="138.94028276799065" y2="312.89126559714794" class="err"/>
<line x1="132.94028276799065" y1="336.32085561497325" x2="138.94028276799065" y2="336.32085561497325" class="err"/>
<circle cx="135.94028276799065" cy="324.6060606060606" r="2.5" class="obs"/>
<line x1="203.14864789690424" y1="272.9946524064171" x2="203.14864789690424" y2="295.650623885918" class="err"/>
<line x1="200.14864789690424" y1="272.9946524064171" x2="206.14864789690424" y2="272.9946524064171" class="err"/>
<line x1="200.14864789690424" y1="295.650623885918" x2="206.14864789690424" y2="295.650623885918" class="err"/>
<circle cx="203.14864789690424" cy="284.32263814616755" r="2.5" class="obs"/>
<line x1="269.0889306648949" y1="237.62923351158645" x2="269.0889306648949" y2="260.2852049910873" class="err"/>
<line x1="266.0889306648949" y1="237.62923351158645" x2="272.0889306648949" y2="237.62923351158645" class="err"/>
<line x1="266.0889306648949" y1="260.2852049910873" x2="272.0889306648949" y2="260.2852049910873" class="err"/>
<circle cx="269.0889306648949" cy="248.9572192513369" r="2.5" class="obs"/>
<line x1="335.02921343288557" y1="198.34046345811052" x2="335.02921343288557" y2="221.10695187165774" class="err"/>
<line x1="332.02921343288557" y1="198.34046345811052" x2="338.02921343288557" y2="198.34046345811052" class="err"/>
<line x1="332.02921343288557" y1="221.10695187165774" x2="338.02921343288557" y2="221.10695187165774" class="err"/>
<circle cx="335.02921343288557" cy="209.72370766488416" r="2.5" class="obs"/>
<line x1="403.50566092272203" y1="156.12299465240645" x2="403.50566092272203" y2="183.7522281639929" class="err"/>
<line x1="400.50566092272203" y1="156.12299465240645" x2="406.50566092272203" y2="156.12299465240645" class="err"/>
<line x1="400.50566092272203" y1="183.7522281639929" x2="406.50566092272203" y2="183.7522281639929" class="err"/>
<circle cx="403.50566092272203" cy="169.93761140819967" r="2.5" class="obs"/>
<line x1="469.4459436907127" y1="108.71122994652404" x2="469.4459436907127" y2="146.06595365418895" class="err"/>
<line x1="466.4459436907127" y1="108.71122994652404" x2="472.4459436907127" y2="108.71122994652404" class="err"/>
<line x1="466.4459436907127" y1="146.06595365418895" x2="472.4459436907127" y2="146.06595365418895" class="err"/>
<circle cx="469.4459436907127" cy="127.38859180035651" r="2.5" class="obs"/>
<line x1="536.6543088196263" y1="90.08912655971479" x2="536.6543088196263" y2="124.90196078431372" class="err"/>
<line x1="533.6543088196263" y1="90.08912655971479" x2="539.6543088196263" y2="90.08912655971479" class="err"/>
<line x1="533.6543088196263" y1="124.90196078431372" x2="539.6543088196263" y2="124.90196078431372" class="err"/>
<circle cx="536.6543088196263" cy="107.49554367201425" r="2.5" class="obs"/>
<line x1="602.594591587617" y1="83.18181818181819" x2="602.594591587617" y2="116.33689839572193" class="err"/>
<line x1="599.594591587617" y1="83.18181818181819" x2="605.594591587617" y2="83.18181818181819" class="err"/>
<line x1="599.594591587617" y1="116.33689839572193" x2="605.594591587617" y2="116.33689839572193" class="err"/>
<circle cx="602.594591587617" cy="99.75935828877006" r="2.5" class="obs"/>
<g class="legend">
<line x1="82" y1="69" x2="106" y2="69" class="fw"/>
<text x="112" y="73" class="lbl-l">framework fit</text>
<line x1="82" y1="87" x2="106" y2="87" class="nt"/>
<text x="112" y="91" class="lbl-l">Newtonian (no halo)</text>
<circle cx="94" cy="105" r="2.5" class="obs"/>
<text x="112" y="109" class="lbl">observed V±err</text>
</g>
<g class="legend">
<line x1="460" y1="69" x2="484" y2="69" class="rho"/>
<text x="490" y="73" class="lbl-r">ρ(r) raw</text>
<line x1="460" y1="87" x2="484" y2="87" class="sig"/>
<text x="490" y="91" class="lbl-r">Σ(r) smoothed</text>
<text x="460" y="113" class="lbl-r">ρ peak: 35 M☉/pc²</text>
</g>
</svg>