<svg xmlns="http://www.w3.org/2000/svg" viewBox="0 0 960 450" width="960" height="450" font-family="sans-serif" font-size="12">
<style>
  .ax { stroke: #333; stroke-width: 1; fill: none; }
  .grid { stroke: #ddd; stroke-width: 0.5; fill: none; }
  .lbl { fill: #333; }
  .lbl-l { fill: #0066cc; }
  .lbl-r { fill: #b03030; }
  .obs { fill: #222; }
  .err { stroke: #555; stroke-width: 0.8; fill: none; }
  .fw { stroke: #0066cc; stroke-width: 2.2; fill: none; }
  .nt { stroke: #cc6600; stroke-width: 1.6; fill: none; stroke-dasharray: 5,3; }
  .mond { stroke: #7b2cbf; stroke-width: 1.8; fill: none; stroke-dasharray: 7,3; }
  .lbl-p { fill: #cc7000; }
  .lbl-m { fill: #7b2cbf; }
  .rho { stroke: #b03030; stroke-width: 2.0; fill: none; }
  .phot { stroke: #cc7000; stroke-width: 1.8; fill: none; }
  .mbar { stroke: #8e44ad; stroke-width: 1.8; fill: none; opacity: 0.9; }
  .mph { stroke: #c77dff; stroke-width: 1.6; fill: none; stroke-dasharray: 4,3; opacity: 0.95; }
  .remap-x { stroke: #cc2222; stroke-width: 1.5; fill: none; }
  .remap-link { stroke: #cc2222; stroke-width: 0.8; stroke-dasharray: 3,3; fill: none; opacity: 0.7; }
  .title { fill: #111; font-size: 16px; font-weight: 600; }
  .subtitle { fill: #555; font-size: 11px; }
  .preview-bg { fill: #000; }
  .preview-lbl { fill: #888; font-size: 10px; }
  .legend { font-size: 11px; }
</style>
<text x="378.5" y="22" text-anchor="middle" class="title">UGC09992</text>
<text x="378.5" y="38" text-anchor="middle" class="subtitle">rMax=3.9 kpc, N=5, FW=0.7 km/s, 2.0%, 0.12σ, MOND=15.3 km/s, 45.8%, 2.70σ, amp=105</text>
<line x1="70" y1="395.0" x2="687" y2="395.0" class="grid"/>
<text x="64" y="399.0" text-anchor="end" class="lbl-l">0</text>
<line x1="70" y1="327.0" x2="687" y2="327.0" class="grid"/>
<text x="64" y="331.0" text-anchor="end" class="lbl-l">12</text>
<line x1="70" y1="259.0" x2="687" y2="259.0" class="grid"/>
<text x="64" y="263.0" text-anchor="end" class="lbl-l">25</text>
<line x1="70" y1="191.0" x2="687" y2="191.0" class="grid"/>
<text x="64" y="195.0" text-anchor="end" class="lbl-l">37</text>
<line x1="70" y1="123.0" x2="687" y2="123.0" class="grid"/>
<text x="64" y="127.0" text-anchor="end" class="lbl-l">49</text>
<line x1="70" y1="55.0" x2="687" y2="55.0" class="grid"/>
<text x="64" y="59.0" text-anchor="end" class="lbl-l">61</text>
<text x="693" y="399.0" text-anchor="start" class="lbl-r">0.0</text>
<text x="693" y="353.7" text-anchor="start" class="lbl-r">0.2</text>
<text x="693" y="308.3" text-anchor="start" class="lbl-r">0.4</text>
<text x="693" y="263.0" text-anchor="start" class="lbl-r">0.6</text>
<text x="693" y="217.7" text-anchor="start" class="lbl-r">0.8</text>
<text x="693" y="172.3" text-anchor="start" class="lbl-r">1.0</text>
<line x1="70.0" y1="55" x2="70.0" y2="395" class="grid"/>
<text x="70.0" y="411" text-anchor="middle" class="lbl">0.0</text>
<line x1="172.8" y1="55" x2="172.8" y2="395" class="grid"/>
<text x="172.8" y="411" text-anchor="middle" class="lbl">0.7</text>
<line x1="275.7" y1="55" x2="275.7" y2="395" class="grid"/>
<text x="275.7" y="411" text-anchor="middle" class="lbl">1.4</text>
<line x1="378.5" y1="55" x2="378.5" y2="395" class="grid"/>
<text x="378.5" y="411" text-anchor="middle" class="lbl">2.0</text>
<line x1="481.3" y1="55" x2="481.3" y2="395" class="grid"/>
<text x="481.3" y="411" text-anchor="middle" class="lbl">2.7</text>
<line x1="584.2" y1="55" x2="584.2" y2="395" class="grid"/>
<text x="584.2" y="411" text-anchor="middle" class="lbl">3.4</text>
<line x1="687.0" y1="55" x2="687.0" y2="395" class="grid"/>
<text x="687.0" y="411" text-anchor="middle" class="lbl">4.1</text>
<text x="378.5" y="438" text-anchor="middle" class="lbl">radius (kpc)</text>
<text x="16" y="225" text-anchor="middle" class="lbl-l" transform="rotate(-90, 16, 225)">velocity (km/s)</text>
<text x="724" y="225" text-anchor="middle" class="lbl-r" transform="rotate(-90, 724, 225)">profiles (normalized to peak)</text>
<rect x="70" y="55" width="617" height="340" class="ax"/>
<path d="M 70.0,168.3 L 72.8,170.0 L 75.6,171.7 L 78.5,173.4 L 81.3,175.1 L 84.1,176.8 L 86.9,178.5 L 89.7,180.2 L 92.5,181.9 L 95.4,183.6 L 98.2,185.3 L 101.0,187.0 L 103.8,188.6 L 106.6,190.3 L 109.4,192.0 L 112.3,193.7 L 115.1,195.1 L 117.9,196.4 L 120.7,197.7 L 123.5,199.1 L 126.3,200.4 L 129.2,201.8 L 132.0,203.1 L 134.8,204.4 L 137.6,205.8 L 140.4,207.1 L 143.3,208.5 L 146.1,209.8 L 148.9,211.1 L 151.7,212.5 L 154.5,213.8 L 157.3,215.2 L 160.2,216.5 L 163.0,217.8 L 165.8,219.2 L 168.6,220.5 L 171.4,221.8 L 174.2,223.2 L 177.1,224.5 L 179.9,225.9 L 182.7,227.2 L 185.5,228.5 L 188.3,229.9 L 191.1,231.2 L 194.0,232.6 L 196.8,233.9 L 199.6,235.2 L 202.4,236.6 L 205.2,237.9 L 208.1,239.3 L 210.9,240.6 L 213.7,241.9 L 216.5,243.3 L 219.3,244.6 L 222.1,246.0 L 225.0,247.3 L 227.8,248.6 L 230.6,250.0 L 233.4,251.3 L 236.2,252.7 L 239.0,254.0 L 241.9,255.3 L 244.7,256.7 L 247.5,258.0 L 250.3,259.4 L 253.1,260.4 L 255.9,260.8 L 258.8,261.2 L 261.6,261.6 L 264.4,262.0 L 267.2,262.4 L 270.0,262.8 L 272.8,263.3 L 275.7,263.7 L 278.5,264.2 L 281.3,264.6 L 284.1,265.1 L 286.9,265.6 L 289.8,266.1 L 292.6,266.6 L 295.4,267.1 L 298.2,267.6 L 301.0,268.1 L 303.8,268.6 L 306.7,269.0 L 309.5,269.5 L 312.3,270.0 L 315.1,270.5 L 317.9,271.0 L 320.7,271.5 L 323.6,272.0 L 326.4,272.5 L 329.2,273.0 L 332.0,273.5 L 334.8,273.9 L 337.6,274.4 L 340.5,274.9 L 343.3,275.4 L 346.1,275.9 L 348.9,276.4 L 351.7,276.9 L 354.6,277.4 L 357.4,277.9 L 360.2,278.4 L 363.0,278.8 L 365.8,279.3 L 368.6,279.8 L 371.5,280.3 L 374.3,280.8 L 377.1,281.3 L 379.9,281.8 L 382.7,282.3 L 385.5,282.8 L 388.4,283.3 L 391.2,283.7 L 394.0,284.2 L 396.8,284.7 L 399.6,285.2 L 402.4,285.7 L 405.3,286.2 L 408.1,286.7 L 410.9,287.2 L 413.7,287.7 L 416.5,288.2 L 419.4,288.6 L 422.2,289.1 L 425.0,289.6 L 427.8,290.1 L 430.6,290.6 L 433.4,291.1 L 436.3,291.6 L 439.1,292.1 L 441.9,292.6 L 444.7,293.0 L 447.5,293.5 L 450.3,294.0 L 453.2,294.5 L 456.0,295.0 L 458.8,295.5 L 461.6,296.0 L 464.4,296.5 L 467.2,297.0 L 470.1,297.5 L 472.9,297.9 L 475.7,298.4 L 478.5,298.9 L 481.3,299.4 L 484.2,299.9 L 487.0,300.4 L 489.8,300.9 L 492.6,301.4 L 495.4,301.9 L 498.2,302.4 L 501.1,302.8 L 503.9,303.3 L 506.7,303.8 L 509.5,304.3 L 512.3,304.8 L 515.1,305.3 L 518.0,305.8 L 520.8,306.3 L 523.6,306.8 L 526.4,307.3 L 529.2,307.7 L 532.0,308.2 L 534.9,308.7 L 537.7,309.2 L 540.5,309.7 L 543.3,310.2 L 546.1,310.7 L 548.9,311.2 L 551.8,311.7 L 554.6,312.1 L 557.4,312.6 L 560.2,313.1 L 563.0,313.6 L 565.9,314.1 L 568.7,314.6 L 571.5,315.1 L 574.3,315.6 L 577.1,316.1 L 579.9,316.6 L 582.8,317.0 L 585.6,317.5 L 588.4,318.0 L 591.2,318.5 L 594.0,319.0 L 596.8,319.5 L 599.7,320.0 L 602.5,320.5 L 605.3,321.0 L 608.1,321.5 L 610.9,321.9 L 613.7,322.4 L 616.6,322.9 L 619.4,323.4 L 622.2,323.9 L 625.0,324.4 L 627.8,324.9 L 630.7,325.4 L 633.5,325.9 L 636.3,326.4 L 639.1,326.8 L 641.9,327.3 L 644.7,327.8 L 647.6,328.3 L 650.4,328.8 L 653.2,341.2 L 656.0,372.8 L 658.8,395.0 L 661.6,395.0 L 664.5,395.0 L 667.3,395.0 L 670.1,395.0 L 672.9,395.0 L 675.7,395.0 L 678.5,395.0 L 681.4,395.0 L 684.2,395.0 L 687.0,395.0" class="rho"/>
<path d="M 187.8,168.3 L 304.1,331.3 L 423.5,365.8 L 541.3,379.4 L 657.6,387.3" class="phot"/>
<path d="M 187.8,168.3 L 304.1,215.2 L 423.5,258.0 L 541.3,290.2 L 657.6,323.7" class="mbar"/>
<path d="M 187.8,168.3 L 304.1,190.0 L 423.5,211.7 L 541.3,231.7 L 657.6,253.6" class="mph"/>
<path d="M 76.2,363.3 L 82.3,350.5 L 88.5,340.8 L 94.7,332.7 L 100.8,325.8 L 107.0,319.6 L 113.2,314.0 L 119.4,308.9 L 125.5,304.2 L 131.7,299.8 L 137.9,295.7 L 144.0,291.8 L 150.2,288.1 L 156.4,284.6 L 162.6,281.4 L 168.7,278.2 L 174.9,275.3 L 181.1,272.5 L 187.2,269.8 L 193.4,267.2 L 199.6,264.8 L 205.7,262.4 L 211.9,260.2 L 218.1,258.1 L 224.3,256.0 L 230.4,254.1 L 236.6,252.3 L 242.8,250.5 L 248.9,248.8 L 255.1,247.2 L 261.3,245.6 L 267.4,244.0 L 273.6,242.4 L 279.8,240.9 L 285.9,239.4 L 292.1,237.9 L 298.3,236.4 L 304.5,235.0 L 310.6,233.6 L 316.8,232.2 L 323.0,230.8 L 329.1,229.5 L 335.3,228.2 L 341.5,226.9 L 347.6,225.6 L 353.8,224.4 L 360.0,223.1 L 366.2,221.9 L 372.3,220.8 L 378.5,219.6 L 384.7,218.5 L 390.8,217.4 L 397.0,216.3 L 403.2,215.2 L 409.4,214.2 L 415.5,213.2 L 421.7,212.2 L 427.9,211.2 L 434.0,210.2 L 440.2,209.3 L 446.4,208.4 L 452.5,207.5 L 458.7,206.6 L 464.9,205.7 L 471.0,204.9 L 477.2,204.1 L 483.4,203.3 L 489.6,202.5 L 495.7,201.7 L 501.9,201.0 L 508.1,200.3 L 514.2,199.6 L 520.4,198.9 L 526.6,198.2 L 532.8,197.5 L 538.9,196.9 L 545.1,196.3 L 551.3,195.7 L 557.4,195.1 L 563.6,194.5 L 569.8,194.0 L 575.9,193.4 L 582.1,192.9 L 588.3,192.4 L 594.4,191.9 L 600.6,191.5 L 606.8,191.0 L 613.0,190.6 L 619.1,190.1 L 625.3,189.7 L 631.5,189.3 L 637.6,189.0 L 643.8,188.6 L 650.0,188.3 L 656.1,188.2 L 662.3,189.3 L 668.5,190.3 L 674.7,191.3 L 680.8,192.5 L 687.0,193.5" class="nt"/>
<path d="M 187.8,221.8 L 304.1,167.4 L 423.5,130.5 L 541.3,99.3 L 657.6,85.9" class="mond"/>
<path d="M 75.1,383.0 L 80.3,373.9 L 85.4,364.0 L 90.6,354.4 L 95.7,345.1 L 100.8,336.3 L 106.0,327.9 L 111.1,320.0 L 116.3,312.4 L 121.4,305.2 L 126.6,298.4 L 131.7,291.8 L 136.8,285.6 L 142.0,279.6 L 147.1,274.0 L 152.3,268.6 L 157.4,263.5 L 162.6,258.7 L 167.7,254.1 L 172.8,249.8 L 178.0,245.8 L 183.1,242.1 L 188.3,238.6 L 193.4,235.4 L 198.5,232.5 L 203.7,229.8 L 208.8,227.5 L 214.0,225.5 L 219.1,223.7 L 224.3,222.4 L 229.4,221.3 L 234.5,220.5 L 239.7,220.1 L 244.8,220.0 L 250.0,220.1 L 255.1,220.4 L 260.2,220.8 L 265.4,221.2 L 270.5,221.5 L 275.7,221.7 L 280.8,221.9 L 285.9,221.9 L 291.1,221.9 L 296.2,221.7 L 301.4,221.6 L 306.5,221.3 L 311.7,221.0 L 316.8,220.7 L 321.9,220.4 L 327.1,220.0 L 332.2,219.6 L 337.4,219.2 L 342.5,218.7 L 347.7,218.3 L 352.8,217.9 L 357.9,217.4 L 363.1,217.0 L 368.2,216.6 L 373.4,216.1 L 378.5,215.7 L 383.6,215.3 L 388.8,214.9 L 393.9,214.5 L 399.1,214.2 L 404.2,213.8 L 409.3,213.4 L 414.5,213.1 L 419.6,212.8 L 424.8,212.5 L 429.9,212.2 L 435.1,212.0 L 440.2,211.7 L 445.3,211.5 L 450.5,211.3 L 455.6,211.1 L 460.8,210.9 L 465.9,210.7 L 471.0,210.6 L 476.2,210.5 L 481.3,210.4 L 486.5,210.3 L 491.6,210.2 L 496.8,210.1 L 501.9,210.0 L 507.0,210.0 L 512.2,209.9 L 517.3,209.9 L 522.5,209.9 L 527.6,209.9 L 532.8,209.8 L 537.9,209.8 L 543.0,209.7 L 548.2,209.7 L 553.3,209.6 L 558.5,209.5 L 563.6,209.4 L 568.7,209.2 L 573.9,208.9 L 579.0,208.6 L 584.2,208.2 L 589.3,207.7 L 594.5,207.1 L 599.6,206.3 L 604.7,205.3 L 609.9,204.2 L 615.0,202.7 L 620.2,201.1 L 625.3,199.2 L 630.4,197.2 L 635.6,195.2 L 640.7,193.7 L 645.9,192.9 L 651.0,193.3 L 656.1,195.1 L 661.3,198.5 L 666.4,203.1 L 671.6,208.5 L 676.7,214.3 L 681.9,220.2 L 687.0,226.0" class="fw"/>
<line x1="187.83" y1="207.64" x2="187.83" y2="270.47" class="err"/>
<line x1="184.83" y1="207.64" x2="190.83" y2="207.64" class="err"/>
<line x1="184.83" y1="270.47" x2="190.83" y2="270.47" class="err"/>
<circle cx="187.83" cy="239.05" r="2.5" class="obs"/>
<line x1="304.14" y1="189.88" x2="304.14" y2="252.71" class="err"/>
<line x1="301.14" y1="189.88" x2="307.14" y2="189.88" class="err"/>
<line x1="301.14" y1="252.71" x2="307.14" y2="252.71" class="err"/>
<circle cx="304.14" cy="221.30" r="2.5" class="obs"/>
<line x1="423.48" y1="180.45" x2="423.48" y2="243.27" class="err"/>
<line x1="420.48" y1="180.45" x2="426.48" y2="180.45" class="err"/>
<line x1="420.48" y1="243.27" x2="426.48" y2="243.27" class="err"/>
<circle cx="423.48" cy="211.86" r="2.5" class="obs"/>
<line x1="541.30" y1="178.23" x2="541.30" y2="241.05" class="err"/>
<line x1="538.30" y1="178.23" x2="544.30" y2="178.23" class="err"/>
<line x1="538.30" y1="241.05" x2="544.30" y2="241.05" class="err"/>
<circle cx="541.30" cy="209.64" r="2.5" class="obs"/>
<line x1="657.62" y1="173.24" x2="657.62" y2="236.06" class="err"/>
<line x1="654.62" y1="173.24" x2="660.62" y2="173.24" class="err"/>
<line x1="654.62" y1="236.06" x2="660.62" y2="236.06" class="err"/>
<circle cx="657.62" cy="204.65" r="2.5" class="obs"/>
<g class="legend">
<line x1="82" y1="69" x2="106" y2="69" class="fw"/>
<text x="112" y="73" class="lbl-l">framework: 0.7 km/s, 2.0%, 0.12σ</text>
<line x1="82" y1="87" x2="106" y2="87" class="nt"/>
<text x="112" y="91" class="lbl-l">Newtonian: 3.2 km/s, 10.6%, 0.56σ</text>
<line x1="82" y1="105" x2="106" y2="105" class="mond"/>
<text x="112" y="109" class="lbl-m">MOND/RAR: 15.3 km/s, 45.8%, 2.70σ</text>
<circle cx="94" cy="123" r="2.5" class="obs"/>
<text x="112" y="127" class="lbl">observed V±err</text>
</g>
<g class="legend">
<line x1="472" y1="69" x2="496" y2="69" class="rho"/>
<text x="502" y="73" class="lbl-r">ρ(r) raw</text>
<line x1="472" y1="87" x2="496" y2="87" class="phot"/>
<text x="502" y="91" class="lbl-p">photometric baryonic profile</text>
<line x1="472" y1="105" x2="496" y2="105" class="mbar"/>
<text x="502" y="109" class="lbl-m">MOND baryonic annulus</text>
<line x1="472" y1="123" x2="496" y2="123" class="mph"/>
<text x="502" y="127" class="lbl-m">MOND phantom annulus</text>
<text x="472" y="147" class="lbl-r">ρ peak: 60 M☉/pc²</text>
<text x="472" y="163" class="lbl-p">phot peak: 18.19 (arb.)</text>
<text x="472" y="179" class="lbl-m">Σbar peak: 21.72 M☉/pc²</text>
<text x="472" y="195" class="lbl-m">Σphantom peak: 66.67 M☉/pc²</text>
</g>
<rect x="775" y="55" width="170" height="170" class="preview-bg"/>
<defs><radialGradient id="g_UGC09992" cx="0.5" cy="0.5" r="0.5">
  <stop offset="0.0000" stop-color="rgb(132,33,33)"/>
  <stop offset="0.0313" stop-color="rgb(128,32,32)"/>
  <stop offset="0.0625" stop-color="rgb(124,31,31)"/>
  <stop offset="0.0938" stop-color="rgb(120,30,30)"/>
  <stop offset="0.1250" stop-color="rgb(117,29,29)"/>
  <stop offset="0.1563" stop-color="rgb(114,29,29)"/>
  <stop offset="0.1875" stop-color="rgb(111,28,28)"/>
  <stop offset="0.2188" stop-color="rgb(108,27,27)"/>
  <stop offset="0.2500" stop-color="rgb(105,26,26)"/>
  <stop offset="0.2813" stop-color="rgb(101,25,25)"/>
  <stop offset="0.3125" stop-color="rgb(98,25,25)"/>
  <stop offset="0.3438" stop-color="rgb(98,25,25)"/>
  <stop offset="0.3750" stop-color="rgb(96,24,24)"/>
  <stop offset="0.4063" stop-color="rgb(95,24,24)"/>
  <stop offset="0.4375" stop-color="rgb(94,24,24)"/>
  <stop offset="0.4688" stop-color="rgb(93,23,23)"/>
  <stop offset="0.5000" stop-color="rgb(92,23,23)"/>
  <stop offset="0.5313" stop-color="rgb(91,23,23)"/>
  <stop offset="0.5625" stop-color="rgb(90,23,23)"/>
  <stop offset="0.5938" stop-color="rgb(88,22,22)"/>
  <stop offset="0.6250" stop-color="rgb(87,22,22)"/>
  <stop offset="0.6563" stop-color="rgb(86,22,22)"/>
  <stop offset="0.6875" stop-color="rgb(85,21,21)"/>
  <stop offset="0.7188" stop-color="rgb(84,21,21)"/>
  <stop offset="0.7500" stop-color="rgb(83,21,21)"/>
  <stop offset="0.7813" stop-color="rgb(81,20,20)"/>
  <stop offset="0.8125" stop-color="rgb(80,20,20)"/>
  <stop offset="0.8438" stop-color="rgb(79,20,20)"/>
  <stop offset="0.8750" stop-color="rgb(78,20,20)"/>
  <stop offset="0.9063" stop-color="rgb(77,19,19)"/>
  <stop offset="0.9375" stop-color="rgb(76,19,19)"/>
  <stop offset="0.9688" stop-color="rgb(75,19,19)"/>
  <stop offset="1.0000" stop-color="rgb(7,2,2)"/>
</radialGradient></defs>
<circle cx="860" cy="140" r="81" fill="url(#g_UGC09992)"/>
<text x="860" y="49" text-anchor="middle" class="preview-lbl">face-on luminance from ρ(r)</text>
<text x="860" y="239" text-anchor="middle" class="preview-lbl">edge at r = 3.9 kpc</text>
</svg>