<svg xmlns="http://www.w3.org/2000/svg" viewBox="0 0 890 420" width="890" height="420" font-family="sans-serif" font-size="12">
<style>
  .ax { stroke: #333; stroke-width: 1; fill: none; }
  .grid { stroke: #ddd; stroke-width: 0.5; fill: none; }
  .lbl { fill: #333; }
  .lbl-l { fill: #0066cc; }
  .lbl-r { fill: #b03030; }
  .obs { fill: #222; }
  .err { stroke: #555; stroke-width: 0.8; fill: none; }
  .fw { stroke: #0066cc; stroke-width: 2.2; fill: none; }
  .nt { stroke: #cc6600; stroke-width: 1.6; fill: none; stroke-dasharray: 5,3; }
  .lbl-s { fill: #cc7000; }
  .rho { stroke: #b03030; stroke-width: 2.0; fill: none; }
  .sig { stroke: #cc7000; stroke-width: 1.8; fill: none; }
  .title { fill: #111; font-size: 16px; font-weight: 600; }
  .subtitle { fill: #555; font-size: 11px; }
  .preview-bg { fill: #000; }
  .preview-lbl { fill: #888; font-size: 10px; }
  .legend { font-size: 11px; }
</style>
<text x="343.5" y="22" text-anchor="middle" class="title">UGC07089</text>
<text x="343.5" y="38" text-anchor="middle" class="subtitle">rMax=9.2 kpc, N=12, RMS=1.9 km/s (3.2%), amp=618</text>
<line x1="70" y1="365.0" x2="617" y2="365.0" class="grid"/>
<text x="64" y="369.0" text-anchor="end" class="lbl-l">0</text>
<line x1="70" y1="303.0" x2="617" y2="303.0" class="grid"/>
<text x="64" y="307.0" text-anchor="end" class="lbl-l">19</text>
<line x1="70" y1="241.0" x2="617" y2="241.0" class="grid"/>
<text x="64" y="245.0" text-anchor="end" class="lbl-l">38</text>
<line x1="70" y1="179.0" x2="617" y2="179.0" class="grid"/>
<text x="64" y="183.0" text-anchor="end" class="lbl-l">57</text>
<line x1="70" y1="117.0" x2="617" y2="117.0" class="grid"/>
<text x="64" y="121.0" text-anchor="end" class="lbl-l">76</text>
<line x1="70" y1="55.0" x2="617" y2="55.0" class="grid"/>
<text x="64" y="59.0" text-anchor="end" class="lbl-l">95</text>
<text x="623" y="369.0" text-anchor="start" class="lbl-r">0.0</text>
<text x="623" y="327.7" text-anchor="start" class="lbl-r">0.2</text>
<text x="623" y="286.3" text-anchor="start" class="lbl-r">0.4</text>
<text x="623" y="245.0" text-anchor="start" class="lbl-r">0.6</text>
<text x="623" y="203.7" text-anchor="start" class="lbl-r">0.8</text>
<text x="623" y="162.3" text-anchor="start" class="lbl-r">1.0</text>
<line x1="70.0" y1="55" x2="70.0" y2="365" class="grid"/>
<text x="70.0" y="381" text-anchor="middle" class="lbl">0.0</text>
<line x1="161.2" y1="55" x2="161.2" y2="365" class="grid"/>
<text x="161.2" y="381" text-anchor="middle" class="lbl">2.2</text>
<line x1="252.3" y1="55" x2="252.3" y2="365" class="grid"/>
<text x="252.3" y="381" text-anchor="middle" class="lbl">4.4</text>
<line x1="343.5" y1="55" x2="343.5" y2="365" class="grid"/>
<text x="343.5" y="381" text-anchor="middle" class="lbl">6.7</text>
<line x1="434.7" y1="55" x2="434.7" y2="365" class="grid"/>
<text x="434.7" y="381" text-anchor="middle" class="lbl">8.9</text>
<line x1="525.8" y1="55" x2="525.8" y2="365" class="grid"/>
<text x="525.8" y="381" text-anchor="middle" class="lbl">11.1</text>
<line x1="617.0" y1="55" x2="617.0" y2="365" class="grid"/>
<text x="617.0" y="381" text-anchor="middle" class="lbl">13.3</text>
<text x="343.5" y="408" text-anchor="middle" class="lbl">radius (kpc)</text>
<text x="16" y="210" text-anchor="middle" class="lbl-l" transform="rotate(-90, 16, 210)">velocity (km/s)</text>
<text x="874" y="210" text-anchor="middle" class="lbl-r" transform="rotate(-90, 874, 210)">mass profile (normalized to peak)</text>
<rect x="70" y="55" width="547" height="310" class="ax"/>
<path d="M 70.0,158.3 L 72.5,185.6 L 75.0,212.9 L 77.5,240.2 L 80.0,267.5 L 82.5,274.7 L 85.0,274.7 L 87.5,274.7 L 90.0,274.7 L 92.5,274.7 L 95.0,274.7 L 97.5,274.7 L 100.0,274.7 L 102.5,274.7 L 105.0,274.7 L 107.5,274.7 L 110.0,274.7 L 112.5,274.7 L 115.0,274.7 L 117.5,274.7 L 120.0,274.7 L 122.5,274.7 L 124.9,274.7 L 127.4,274.7 L 129.9,274.7 L 132.4,274.7 L 134.9,274.7 L 137.4,274.7 L 139.9,274.7 L 142.4,274.7 L 144.9,275.0 L 147.4,275.4 L 149.9,275.8 L 152.4,276.3 L 154.9,276.7 L 157.4,277.1 L 159.9,277.5 L 162.4,277.8 L 164.9,278.0 L 167.4,278.2 L 169.9,278.5 L 172.4,278.7 L 174.9,278.9 L 177.4,279.2 L 179.9,279.4 L 182.4,279.6 L 184.9,279.9 L 187.4,280.1 L 189.9,280.4 L 192.4,280.6 L 194.9,280.8 L 197.4,281.1 L 199.9,281.3 L 202.4,281.5 L 204.9,281.8 L 207.4,282.0 L 209.9,282.2 L 212.4,282.5 L 214.9,282.7 L 217.4,282.9 L 219.9,283.2 L 222.4,283.4 L 224.9,283.6 L 227.4,283.9 L 229.9,284.1 L 232.4,284.4 L 234.8,284.6 L 237.3,284.8 L 239.8,285.1 L 242.3,285.3 L 244.8,285.5 L 247.3,285.8 L 249.8,286.0 L 252.3,286.2 L 254.8,286.5 L 257.3,286.7 L 259.8,286.9 L 262.3,287.2 L 264.8,287.4 L 267.3,287.7 L 269.8,287.9 L 272.3,288.1 L 274.8,288.4 L 277.3,288.6 L 279.8,288.8 L 282.3,289.1 L 284.8,289.3 L 287.3,289.5 L 289.8,289.8 L 292.3,290.0 L 294.8,290.2 L 297.3,290.5 L 299.8,290.7 L 302.3,290.9 L 304.8,291.2 L 307.3,291.4 L 309.8,291.7 L 312.3,291.9 L 314.8,292.1 L 317.3,292.4 L 319.8,292.6 L 322.3,292.8 L 324.8,293.1 L 327.3,293.3 L 329.8,293.5 L 332.3,293.8 L 334.8,294.0 L 337.3,294.2 L 339.8,294.5 L 342.3,294.7 L 344.7,294.9 L 347.2,295.2 L 349.7,295.4 L 352.2,295.7 L 354.7,295.9 L 357.2,296.1 L 359.7,296.4 L 362.2,296.6 L 364.7,296.8 L 367.2,297.1 L 369.7,297.3 L 372.2,297.5 L 374.7,297.8 L 377.2,298.0 L 379.7,298.2 L 382.2,298.5 L 384.7,298.7 L 387.2,298.9 L 389.7,299.2 L 392.2,299.4 L 394.7,299.7 L 397.2,299.9 L 399.7,300.1 L 402.2,300.4 L 404.7,300.6 L 407.2,300.8 L 409.7,301.1 L 412.2,301.3 L 414.7,301.5 L 417.2,301.8 L 419.7,302.0 L 422.2,302.2 L 424.7,302.5 L 427.2,302.7 L 429.7,303.0 L 432.2,303.2 L 434.7,303.4 L 437.2,303.7 L 439.7,303.9 L 442.2,304.1 L 444.7,304.4 L 447.2,304.6 L 449.7,304.8 L 452.2,305.1 L 454.6,305.3 L 457.1,305.5 L 459.6,305.8 L 462.1,306.0 L 464.6,306.2 L 467.1,306.5 L 469.6,306.7 L 472.1,307.0 L 474.6,307.2 L 477.1,307.4 L 479.6,307.7 L 482.1,307.9 L 484.6,308.1 L 487.1,308.4 L 489.6,308.6 L 492.1,308.8 L 494.6,309.1 L 497.1,309.3 L 499.6,309.5 L 502.1,309.8 L 504.6,310.0 L 507.1,310.2 L 509.6,310.5 L 512.1,310.7 L 514.6,311.0 L 517.1,311.2 L 519.6,311.4 L 522.1,311.7 L 524.6,311.9 L 527.1,312.1 L 529.6,312.4 L 532.1,312.6 L 534.6,312.8 L 537.1,313.1 L 539.6,313.3 L 542.1,313.5 L 544.6,313.8 L 547.1,314.0 L 549.6,314.2 L 552.1,314.5 L 554.6,314.7 L 557.1,317.4 L 559.6,320.9 L 562.1,324.4 L 564.5,327.9 L 567.0,331.4 L 569.5,334.9 L 572.0,338.5 L 574.5,342.0 L 577.0,345.5 L 579.5,349.0 L 582.0,352.5 L 584.5,356.0 L 587.0,359.5 L 589.5,363.0 L 592.0,365.0 L 594.5,365.0 L 597.0,365.0 L 599.5,365.0 L 602.0,365.0 L 604.5,365.0 L 607.0,365.0 L 609.5,365.0 L 612.0,365.0 L 614.5,365.0 L 617.0,365.0" class="rho"/>
<path d="M 70.0,158.3 L 72.5,158.7 L 75.0,159.5 L 77.5,160.5 L 80.0,161.7 L 82.5,163.1 L 85.0,164.4 L 87.5,165.8 L 90.0,167.0 L 92.5,168.1 L 95.0,169.2 L 97.5,170.1 L 100.0,171.0 L 102.5,171.8 L 105.0,172.5 L 107.5,173.2 L 110.0,173.9 L 112.5,174.6 L 115.0,175.2 L 117.5,175.8 L 120.0,176.4 L 122.5,177.0 L 124.9,177.7 L 127.4,178.3 L 129.9,178.9 L 132.4,179.6 L 134.9,180.3 L 137.4,181.0 L 139.9,181.7 L 142.4,182.5 L 144.9,183.2 L 147.4,184.1 L 149.9,184.9 L 152.4,185.7 L 154.9,186.6 L 157.4,187.5 L 159.9,188.3 L 162.4,189.2 L 164.9,190.1 L 167.4,191.0 L 169.9,191.9 L 172.4,192.8 L 174.9,193.8 L 177.4,194.7 L 179.9,195.6 L 182.4,196.5 L 184.9,197.4 L 187.4,198.3 L 189.9,199.3 L 192.4,200.2 L 194.9,201.1 L 197.4,202.0 L 199.9,203.0 L 202.4,203.9 L 204.9,204.8 L 207.4,205.8 L 209.9,206.7 L 212.4,207.6 L 214.9,208.6 L 217.4,209.5 L 219.9,210.4 L 222.4,211.4 L 224.9,212.3 L 227.4,213.3 L 229.9,214.2 L 232.4,215.2 L 234.8,216.1 L 237.3,217.0 L 239.8,218.0 L 242.3,218.9 L 244.8,219.9 L 247.3,220.8 L 249.8,221.7 L 252.3,222.7 L 254.8,223.6 L 257.3,224.6 L 259.8,225.5 L 262.3,226.4 L 264.8,227.4 L 267.3,228.3 L 269.8,229.2 L 272.3,230.2 L 274.8,231.1 L 277.3,232.0 L 279.8,233.0 L 282.3,233.9 L 284.8,234.8 L 287.3,235.7 L 289.8,236.7 L 292.3,237.6 L 294.8,238.5 L 297.3,239.4 L 299.8,240.3 L 302.3,241.3 L 304.8,242.2 L 307.3,243.1 L 309.8,244.0 L 312.3,244.9 L 314.8,245.8 L 317.3,246.7 L 319.8,247.6 L 322.3,248.5 L 324.8,249.4 L 327.3,250.3 L 329.8,251.2 L 332.3,252.1 L 334.8,253.0 L 337.3,253.9 L 339.8,254.8 L 342.3,255.6 L 344.7,256.5 L 347.2,257.4 L 349.7,258.3 L 352.2,259.1 L 354.7,260.0 L 357.2,260.9 L 359.7,261.7 L 362.2,262.6 L 364.7,263.5 L 367.2,264.3 L 369.7,265.2 L 372.2,266.0 L 374.7,266.9 L 377.2,267.7 L 379.7,268.6 L 382.2,269.4 L 384.7,270.2 L 387.2,271.1 L 389.7,271.9 L 392.2,272.7 L 394.7,273.6 L 397.2,274.4 L 399.7,275.2 L 402.2,276.0 L 404.7,276.8 L 407.2,277.7 L 409.7,278.5 L 412.2,279.3 L 414.7,280.1 L 417.2,280.9 L 419.7,281.7 L 422.2,282.5 L 424.7,283.3 L 427.2,284.1 L 429.7,284.9 L 432.2,285.7 L 434.7,286.4 L 437.2,287.2 L 439.7,288.0 L 442.2,288.8 L 444.7,289.6 L 447.2,290.3 L 449.7,291.1 L 452.2,291.9 L 454.6,292.7 L 457.1,293.4 L 459.6,294.2 L 462.1,294.9 L 464.6,295.7 L 467.1,296.5 L 469.6,297.2 L 472.1,298.0 L 474.6,298.8 L 477.1,299.5 L 479.6,300.3 L 482.1,301.0 L 484.6,301.8 L 487.1,302.5 L 489.6,303.3 L 492.1,304.1 L 494.6,304.8 L 497.1,305.6 L 499.6,306.3 L 502.1,307.1 L 504.6,307.9 L 507.1,308.6 L 509.6,309.4 L 512.1,310.2 L 514.6,311.0 L 517.1,311.8 L 519.6,312.6 L 522.1,313.4 L 524.6,314.2 L 527.1,315.0 L 529.6,315.9 L 532.1,316.8 L 534.6,317.6 L 537.1,318.5 L 539.6,319.5 L 542.1,320.4 L 544.6,321.4 L 547.1,322.4 L 549.6,323.4 L 552.1,324.5 L 554.6,325.6 L 557.1,326.7 L 559.6,327.8 L 562.1,328.9 L 564.5,330.0 L 567.0,331.1 L 569.5,332.1 L 572.0,333.2 L 574.5,334.1 L 577.0,335.1 L 579.5,336.0 L 582.0,336.8 L 584.5,337.6 L 587.0,338.4 L 589.5,339.1 L 592.0,339.7 L 594.5,340.4 L 597.0,340.9 L 599.5,341.5 L 602.0,342.0 L 604.5,342.5 L 607.0,343.0 L 609.5,343.4 L 612.0,343.9 L 614.5,344.3 L 617.0,344.7" class="sig"/>
<path d="M 75.5,318.5 L 80.9,307.6 L 86.4,300.6 L 91.9,293.2 L 97.3,286.0 L 102.8,279.3 L 108.3,273.0 L 113.8,267.0 L 119.2,261.3 L 124.7,255.9 L 130.2,250.7 L 135.6,245.8 L 141.1,241.0 L 146.6,236.4 L 152.1,232.1 L 157.5,228.0 L 163.0,224.0 L 168.5,220.2 L 173.9,216.5 L 179.4,213.0 L 184.9,209.5 L 190.3,206.2 L 195.8,202.9 L 201.3,199.8 L 206.7,196.7 L 212.2,193.7 L 217.7,190.8 L 223.2,188.0 L 228.6,185.2 L 234.1,182.5 L 239.6,179.8 L 245.0,177.2 L 250.5,174.7 L 256.0,172.3 L 261.5,169.8 L 266.9,167.5 L 272.4,165.2 L 277.9,162.9 L 283.3,160.7 L 288.8,158.5 L 294.3,156.4 L 299.7,154.3 L 305.2,152.3 L 310.7,150.3 L 316.1,148.3 L 321.6,146.4 L 327.1,144.5 L 332.6,142.6 L 338.0,140.8 L 343.5,139.0 L 349.0,137.3 L 354.4,135.6 L 359.9,133.9 L 365.4,132.2 L 370.9,130.6 L 376.3,129.0 L 381.8,127.4 L 387.3,125.9 L 392.7,124.4 L 398.2,122.9 L 403.7,121.5 L 409.1,120.0 L 414.6,118.7 L 420.1,117.3 L 425.6,115.9 L 431.0,114.6 L 436.5,113.3 L 442.0,112.0 L 447.4,110.8 L 452.9,109.6 L 458.4,108.4 L 463.8,107.2 L 469.3,106.0 L 474.8,104.9 L 480.3,103.8 L 485.7,102.7 L 491.2,101.6 L 496.7,100.6 L 502.1,99.5 L 507.6,98.5 L 513.1,97.6 L 518.5,96.6 L 524.0,95.6 L 529.5,94.7 L 535.0,93.8 L 540.4,92.9 L 545.9,92.1 L 551.4,91.2 L 556.8,90.4 L 562.3,89.8 L 567.8,89.7 L 573.2,89.8 L 578.7,90.3 L 584.2,91.1 L 589.7,92.3 L 595.1,93.7 L 600.6,95.1 L 606.1,96.5 L 611.5,97.9 L 617.0,99.2" class="nt"/>
<path d="M 74.6,336.9 L 79.1,316.4 L 83.7,302.4 L 88.2,295.3 L 92.8,292.5 L 97.3,291.7 L 101.9,291.3 L 106.5,290.6 L 111.0,289.2 L 115.6,286.8 L 120.1,283.5 L 124.7,279.3 L 129.3,274.2 L 133.8,268.3 L 138.4,261.8 L 142.9,255.2 L 147.5,248.7 L 152.1,242.8 L 156.6,237.6 L 161.2,233.1 L 165.7,229.1 L 170.3,225.4 L 174.8,221.9 L 179.4,218.5 L 184.0,215.2 L 188.5,211.9 L 193.1,208.7 L 197.6,205.6 L 202.2,202.5 L 206.8,199.5 L 211.3,196.6 L 215.9,193.7 L 220.4,190.9 L 225.0,188.2 L 229.5,185.6 L 234.1,183.0 L 238.7,180.5 L 243.2,178.0 L 247.8,175.7 L 252.3,173.3 L 256.9,171.1 L 261.5,168.9 L 266.0,166.7 L 270.6,164.6 L 275.1,162.6 L 279.7,160.6 L 284.2,158.7 L 288.8,156.8 L 293.4,155.0 L 297.9,153.2 L 302.5,151.5 L 307.0,149.8 L 311.6,148.2 L 316.1,146.6 L 320.7,145.1 L 325.3,143.6 L 329.8,142.1 L 334.4,140.7 L 338.9,139.3 L 343.5,138.0 L 348.1,136.7 L 352.6,135.4 L 357.2,134.2 L 361.7,133.0 L 366.3,131.8 L 370.9,130.7 L 375.4,129.6 L 380.0,128.5 L 384.5,127.4 L 389.1,126.4 L 393.6,125.4 L 398.2,124.5 L 402.8,123.5 L 407.3,122.6 L 411.9,121.7 L 416.4,120.8 L 421.0,119.9 L 425.6,119.0 L 430.1,118.1 L 434.7,117.3 L 439.2,116.4 L 443.8,115.5 L 448.3,114.6 L 452.9,113.6 L 457.5,112.7 L 462.0,111.7 L 466.6,110.6 L 471.1,109.5 L 475.7,108.3 L 480.3,107.0 L 484.8,105.6 L 489.4,104.0 L 493.9,102.2 L 498.5,100.2 L 503.0,97.9 L 507.6,95.3 L 512.2,92.3 L 516.7,88.7 L 521.3,84.4 L 525.8,79.3 L 530.4,73.3 L 535.0,66.1 L 539.5,57.8 L 544.1,48.6 L 548.6,39.2 L 553.2,31.0 L 557.7,25.6 L 562.3,24.1 L 566.9,27.4 L 571.4,35.1 L 576.0,46.5 L 580.5,60.0 L 585.1,74.6 L 589.6,89.1 L 594.2,102.8 L 598.8,115.3 L 603.3,126.5 L 607.9,136.4 L 612.4,145.3 L 617.0,153.2" class="fw"/>
<line x1="105.70" y1="281.50" x2="105.70" y2="312.16" class="err"/>
<line x1="102.70" y1="281.50" x2="108.70" y2="281.50" class="err"/>
<line x1="102.70" y1="312.16" x2="108.70" y2="312.16" class="err"/>
<circle cx="105.70" cy="296.83" r="2.5" class="obs"/>
<line x1="141.41" y1="233.55" x2="141.41" y2="258.99" class="err"/>
<line x1="138.41" y1="233.55" x2="144.41" y2="233.55" class="err"/>
<line x1="138.41" y1="258.99" x2="144.41" y2="258.99" class="err"/>
<circle cx="141.41" cy="246.27" r="2.5" class="obs"/>
<line x1="177.11" y1="210.72" x2="177.11" y2="236.16" class="err"/>
<line x1="174.11" y1="210.72" x2="180.11" y2="210.72" class="err"/>
<line x1="174.11" y1="236.16" x2="180.11" y2="236.16" class="err"/>
<circle cx="177.11" cy="223.44" r="2.5" class="obs"/>
<line x1="213.63" y1="182.67" x2="213.63" y2="213.33" class="err"/>
<line x1="210.63" y1="182.67" x2="216.63" y2="182.67" class="err"/>
<line x1="210.63" y1="213.33" x2="216.63" y2="213.33" class="err"/>
<circle cx="213.63" cy="198.00" r="2.5" class="obs"/>
<line x1="249.33" y1="157.55" x2="249.33" y2="182.99" class="err"/>
<line x1="246.33" y1="157.55" x2="252.33" y2="157.55" class="err"/>
<line x1="246.33" y1="182.99" x2="252.33" y2="182.99" class="err"/>
<circle cx="249.33" cy="170.27" r="2.5" class="obs"/>
<line x1="285.04" y1="140.26" x2="285.04" y2="168.97" class="err"/>
<line x1="282.04" y1="140.26" x2="288.04" y2="140.26" class="err"/>
<line x1="282.04" y1="168.97" x2="288.04" y2="168.97" class="err"/>
<circle cx="285.04" cy="154.61" r="2.5" class="obs"/>
<line x1="320.74" y1="130.80" x2="320.74" y2="156.25" class="err"/>
<line x1="317.74" y1="130.80" x2="323.74" y2="130.80" class="err"/>
<line x1="317.74" y1="156.25" x2="323.74" y2="156.25" class="err"/>
<circle cx="320.74" cy="143.52" r="2.5" class="obs"/>
<line x1="338.80" y1="103.73" x2="338.80" y2="151.35" class="err"/>
<line x1="335.80" y1="103.73" x2="341.80" y2="103.73" class="err"/>
<line x1="335.80" y1="151.35" x2="341.80" y2="151.35" class="err"/>
<circle cx="338.80" cy="127.54" r="2.5" class="obs"/>
<line x1="356.44" y1="115.80" x2="356.44" y2="155.59" class="err"/>
<line x1="353.44" y1="115.80" x2="359.44" y2="115.80" class="err"/>
<line x1="353.44" y1="155.59" x2="359.44" y2="155.59" class="err"/>
<circle cx="356.44" cy="135.70" r="2.5" class="obs"/>
<line x1="392.14" y1="104.71" x2="392.14" y2="144.50" class="err"/>
<line x1="389.14" y1="104.71" x2="395.14" y2="104.71" class="err"/>
<line x1="389.14" y1="144.50" x2="395.14" y2="144.50" class="err"/>
<circle cx="392.14" cy="124.61" r="2.5" class="obs"/>
<line x1="427.85" y1="91.99" x2="427.85" y2="131.78" class="err"/>
<line x1="424.85" y1="91.99" x2="430.85" y2="91.99" class="err"/>
<line x1="424.85" y1="131.78" x2="430.85" y2="131.78" class="err"/>
<circle cx="427.85" cy="111.89" r="2.5" class="obs"/>
<line x1="445.90" y1="83.18" x2="445.90" y2="130.80" class="err"/>
<line x1="442.90" y1="83.18" x2="448.90" y2="83.18" class="err"/>
<line x1="442.90" y1="130.80" x2="448.90" y2="130.80" class="err"/>
<circle cx="445.90" cy="106.99" r="2.5" class="obs"/>
<g class="legend">
<line x1="82" y1="69" x2="106" y2="69" class="fw"/>
<text x="112" y="73" class="lbl-l">framework fit</text>
<line x1="82" y1="87" x2="106" y2="87" class="nt"/>
<text x="112" y="91" class="lbl-l">Newtonian (no halo)</text>
<circle cx="94" cy="105" r="2.5" class="obs"/>
<text x="112" y="109" class="lbl">observed V±err</text>
</g>
<g class="legend">
<line x1="442" y1="69" x2="466" y2="69" class="rho"/>
<text x="472" y="73" class="lbl-r">ρ(r) raw</text>
<line x1="442" y1="87" x2="466" y2="87" class="sig"/>
<text x="472" y="91" class="lbl-s">Σ(r) cumulative</text>
<text x="442" y="113" class="lbl-r">ρ peak: 140 M☉/pc²</text>
</g>
<rect x="705" y="55" width="170" height="170" class="preview-bg"/>
<defs><radialGradient id="g_UGC07089" cx="0.5" cy="0.5" r="0.5">
  <stop offset="0.0000" stop-color="rgb(75,75,75)"/>
  <stop offset="0.0313" stop-color="rgb(39,39,39)"/>
  <stop offset="0.0625" stop-color="rgb(39,39,39)"/>
  <stop offset="0.0938" stop-color="rgb(39,39,39)"/>
  <stop offset="0.1250" stop-color="rgb(39,39,39)"/>
  <stop offset="0.1563" stop-color="rgb(38,38,38)"/>
  <stop offset="0.1875" stop-color="rgb(37,37,37)"/>
  <stop offset="0.2188" stop-color="rgb(37,37,37)"/>
  <stop offset="0.2500" stop-color="rgb(36,36,36)"/>
  <stop offset="0.2813" stop-color="rgb(35,35,35)"/>
  <stop offset="0.3125" stop-color="rgb(35,35,35)"/>
  <stop offset="0.3438" stop-color="rgb(34,34,34)"/>
  <stop offset="0.3750" stop-color="rgb(33,33,33)"/>
  <stop offset="0.4063" stop-color="rgb(33,33,33)"/>
  <stop offset="0.4375" stop-color="rgb(32,32,32)"/>
  <stop offset="0.4688" stop-color="rgb(31,31,31)"/>
  <stop offset="0.5000" stop-color="rgb(31,31,31)"/>
  <stop offset="0.5313" stop-color="rgb(30,30,30)"/>
  <stop offset="0.5625" stop-color="rgb(29,29,29)"/>
  <stop offset="0.5938" stop-color="rgb(29,29,29)"/>
  <stop offset="0.6250" stop-color="rgb(28,28,28)"/>
  <stop offset="0.6563" stop-color="rgb(27,27,27)"/>
  <stop offset="0.6875" stop-color="rgb(27,27,27)"/>
  <stop offset="0.7188" stop-color="rgb(26,26,26)"/>
  <stop offset="0.7500" stop-color="rgb(26,26,26)"/>
  <stop offset="0.7813" stop-color="rgb(25,25,25)"/>
  <stop offset="0.8125" stop-color="rgb(24,24,24)"/>
  <stop offset="0.8438" stop-color="rgb(24,24,24)"/>
  <stop offset="0.8750" stop-color="rgb(23,23,23)"/>
  <stop offset="0.9063" stop-color="rgb(22,22,22)"/>
  <stop offset="0.9375" stop-color="rgb(20,20,20)"/>
  <stop offset="0.9688" stop-color="rgb(10,10,10)"/>
  <stop offset="1.0000" stop-color="rgb(0,0,0)"/>
</radialGradient></defs>
<circle cx="790" cy="140" r="81" fill="url(#g_UGC07089)"/>
<text x="790" y="49" text-anchor="middle" class="preview-lbl">face-on luminance from ρ(r)</text>
<text x="790" y="239" text-anchor="middle" class="preview-lbl">edge at r = 12.7 kpc</text>
</svg>