<svg xmlns="http://www.w3.org/2000/svg" viewBox="0 0 960 450" width="960" height="450" font-family="sans-serif" font-size="12">
<style>
  .ax { stroke: #333; stroke-width: 1; fill: none; }
  .grid { stroke: #ddd; stroke-width: 0.5; fill: none; }
  .lbl { fill: #333; }
  .lbl-l { fill: #0066cc; }
  .lbl-r { fill: #b03030; }
  .obs { fill: #222; }
  .err { stroke: #555; stroke-width: 0.8; fill: none; }
  .fw { stroke: #0066cc; stroke-width: 2.2; fill: none; }
  .nt { stroke: #cc6600; stroke-width: 1.6; fill: none; stroke-dasharray: 5,3; }
  .mond { stroke: #7b2cbf; stroke-width: 1.8; fill: none; stroke-dasharray: 7,3; }
  .lbl-p { fill: #cc7000; }
  .lbl-m { fill: #7b2cbf; }
  .rho { stroke: #b03030; stroke-width: 2.0; fill: none; }
  .phot { stroke: #cc7000; stroke-width: 1.8; fill: none; }
  .mbar { stroke: #8e44ad; stroke-width: 1.8; fill: none; opacity: 0.9; }
  .mph { stroke: #c77dff; stroke-width: 1.6; fill: none; stroke-dasharray: 4,3; opacity: 0.95; }
  .title { fill: #111; font-size: 16px; font-weight: 600; }
  .subtitle { fill: #555; font-size: 11px; }
  .preview-bg { fill: #000; }
  .preview-lbl { fill: #888; font-size: 10px; }
  .legend { font-size: 11px; }
</style>
<text x="378.5" y="22" text-anchor="middle" class="title">UGC00731</text>
<text x="378.5" y="38" text-anchor="middle" class="subtitle">rMax=10.9 kpc, N=12, FW=0.9 km/s, 1.3%, 0.32σ, MOND=11.4 km/s, 21.6%, 4.04σ, amp=105</text>
<line x1="70" y1="395.0" x2="687" y2="395.0" class="grid"/>
<text x="64" y="399.0" text-anchor="end" class="lbl-l">0</text>
<line x1="70" y1="327.0" x2="687" y2="327.0" class="grid"/>
<text x="64" y="331.0" text-anchor="end" class="lbl-l">20</text>
<line x1="70" y1="259.0" x2="687" y2="259.0" class="grid"/>
<text x="64" y="263.0" text-anchor="end" class="lbl-l">40</text>
<line x1="70" y1="191.0" x2="687" y2="191.0" class="grid"/>
<text x="64" y="195.0" text-anchor="end" class="lbl-l">59</text>
<line x1="70" y1="123.0" x2="687" y2="123.0" class="grid"/>
<text x="64" y="127.0" text-anchor="end" class="lbl-l">79</text>
<line x1="70" y1="55.0" x2="687" y2="55.0" class="grid"/>
<text x="64" y="59.0" text-anchor="end" class="lbl-l">99</text>
<text x="693" y="399.0" text-anchor="start" class="lbl-r">0.0</text>
<text x="693" y="353.7" text-anchor="start" class="lbl-r">0.2</text>
<text x="693" y="308.3" text-anchor="start" class="lbl-r">0.4</text>
<text x="693" y="263.0" text-anchor="start" class="lbl-r">0.6</text>
<text x="693" y="217.7" text-anchor="start" class="lbl-r">0.8</text>
<text x="693" y="172.3" text-anchor="start" class="lbl-r">1.0</text>
<line x1="70.0" y1="55" x2="70.0" y2="395" class="grid"/>
<text x="70.0" y="411" text-anchor="middle" class="lbl">0.0</text>
<line x1="172.8" y1="55" x2="172.8" y2="395" class="grid"/>
<text x="172.8" y="411" text-anchor="middle" class="lbl">2.0</text>
<line x1="275.7" y1="55" x2="275.7" y2="395" class="grid"/>
<text x="275.7" y="411" text-anchor="middle" class="lbl">4.1</text>
<line x1="378.5" y1="55" x2="378.5" y2="395" class="grid"/>
<text x="378.5" y="411" text-anchor="middle" class="lbl">6.1</text>
<line x1="481.3" y1="55" x2="481.3" y2="395" class="grid"/>
<text x="481.3" y="411" text-anchor="middle" class="lbl">8.1</text>
<line x1="584.2" y1="55" x2="584.2" y2="395" class="grid"/>
<text x="584.2" y="411" text-anchor="middle" class="lbl">10.2</text>
<line x1="687.0" y1="55" x2="687.0" y2="395" class="grid"/>
<text x="687.0" y="411" text-anchor="middle" class="lbl">12.2</text>
<text x="378.5" y="438" text-anchor="middle" class="lbl">radius (kpc)</text>
<text x="16" y="225" text-anchor="middle" class="lbl-l" transform="rotate(-90, 16, 225)">velocity (km/s)</text>
<text x="724" y="225" text-anchor="middle" class="lbl-r" transform="rotate(-90, 724, 225)">profiles (normalized to peak)</text>
<rect x="70" y="55" width="617" height="340" class="ax"/>
<path d="M 70.0,168.3 L 72.8,171.0 L 75.6,173.7 L 78.5,176.4 L 81.3,179.1 L 84.1,181.7 L 86.9,184.4 L 89.7,187.1 L 92.5,189.8 L 95.4,192.5 L 98.2,195.2 L 101.0,197.8 L 103.8,200.5 L 106.6,203.2 L 109.4,205.9 L 112.3,208.6 L 115.1,211.3 L 117.9,213.9 L 120.7,216.6 L 123.5,219.3 L 126.3,222.0 L 129.2,223.0 L 132.0,223.9 L 134.8,224.8 L 137.6,225.7 L 140.4,226.5 L 143.3,227.4 L 146.1,228.3 L 148.9,229.7 L 151.7,231.8 L 154.5,233.9 L 157.3,236.0 L 160.2,238.1 L 163.0,240.2 L 165.8,242.3 L 168.6,244.3 L 171.4,246.4 L 174.2,248.5 L 177.1,249.1 L 179.9,249.6 L 182.7,250.1 L 185.5,250.7 L 188.3,251.2 L 191.1,251.7 L 194.0,252.2 L 196.8,252.8 L 199.6,253.3 L 202.4,253.8 L 205.2,254.3 L 208.1,254.9 L 210.9,255.4 L 213.7,255.9 L 216.5,256.4 L 219.3,257.0 L 222.1,257.5 L 225.0,258.0 L 227.8,258.5 L 230.6,259.1 L 233.4,259.6 L 236.2,260.1 L 239.0,260.6 L 241.9,261.2 L 244.7,261.7 L 247.5,262.2 L 250.3,262.7 L 253.1,263.2 L 255.9,263.8 L 258.8,264.3 L 261.6,264.8 L 264.4,265.3 L 267.2,265.9 L 270.0,266.4 L 272.8,266.9 L 275.7,267.4 L 278.5,268.0 L 281.3,268.5 L 284.1,269.0 L 286.9,269.5 L 289.8,270.1 L 292.6,270.6 L 295.4,271.1 L 298.2,271.6 L 301.0,272.2 L 303.8,272.7 L 306.7,273.2 L 309.5,273.7 L 312.3,274.2 L 315.1,274.8 L 317.9,275.3 L 320.7,275.8 L 323.6,276.3 L 326.4,276.9 L 329.2,277.4 L 332.0,277.9 L 334.8,278.4 L 337.6,279.0 L 340.5,279.5 L 343.3,280.0 L 346.1,280.5 L 348.9,281.1 L 351.7,281.6 L 354.6,282.1 L 357.4,282.6 L 360.2,283.2 L 363.0,283.7 L 365.8,284.2 L 368.6,284.7 L 371.5,285.3 L 374.3,285.8 L 377.1,286.3 L 379.9,286.8 L 382.7,287.3 L 385.5,287.9 L 388.4,288.4 L 391.2,288.9 L 394.0,289.4 L 396.8,290.0 L 399.6,290.5 L 402.4,291.0 L 405.3,291.5 L 408.1,292.1 L 410.9,292.6 L 413.7,293.1 L 416.5,293.6 L 419.4,294.2 L 422.2,294.7 L 425.0,295.2 L 427.8,295.7 L 430.6,296.3 L 433.4,296.8 L 436.3,297.3 L 439.1,297.8 L 441.9,298.4 L 444.7,298.9 L 447.5,299.4 L 450.3,299.9 L 453.2,300.4 L 456.0,301.0 L 458.8,301.5 L 461.6,302.0 L 464.4,302.5 L 467.2,303.1 L 470.1,303.6 L 472.9,304.1 L 475.7,304.6 L 478.5,305.2 L 481.3,305.7 L 484.2,306.2 L 487.0,306.7 L 489.8,307.3 L 492.6,307.8 L 495.4,308.3 L 498.2,308.8 L 501.1,309.4 L 503.9,309.9 L 506.7,310.4 L 509.5,310.9 L 512.3,311.5 L 515.1,312.0 L 518.0,312.5 L 520.8,313.0 L 523.6,313.5 L 526.4,314.1 L 529.2,314.6 L 532.0,315.1 L 534.9,315.6 L 537.7,316.2 L 540.5,316.7 L 543.3,317.2 L 546.1,317.7 L 548.9,318.3 L 551.8,318.8 L 554.6,319.3 L 557.4,319.8 L 560.2,320.4 L 563.0,320.9 L 565.9,321.4 L 568.7,321.9 L 571.5,322.5 L 574.3,323.0 L 577.1,323.5 L 579.9,324.0 L 582.8,324.5 L 585.6,325.1 L 588.4,325.6 L 591.2,326.1 L 594.0,326.6 L 596.8,327.2 L 599.7,327.7 L 602.5,328.2 L 605.3,328.7 L 608.1,329.3 L 610.9,329.8 L 613.7,330.3 L 616.6,330.8 L 619.4,331.4 L 622.2,331.9 L 625.0,332.4 L 627.8,332.9 L 630.7,333.5 L 633.5,334.0 L 636.3,334.5 L 639.1,335.0 L 641.9,335.6 L 644.7,336.1 L 647.6,336.6 L 650.4,337.1 L 653.2,345.8 L 656.0,375.2 L 658.8,395.0 L 661.6,395.0 L 664.5,395.0 L 667.3,395.0 L 670.1,395.0 L 672.9,395.0 L 675.7,395.0 L 678.5,395.0 L 681.4,395.0 L 684.2,395.0 L 687.0,395.0" class="rho"/>
<path d="M 116.1,168.3 L 161.6,291.8 L 208.2,323.2 L 254.3,338.4 L 300.3,357.3 L 345.9,369.6 L 391.9,377.2 L 438.5,379.8 L 484.6,388.7 L 530.1,391.1 L 576.2,391.6 L 622.3,395.0" class="phot"/>
<path d="M 116.1,352.6 L 161.6,342.6 L 208.2,324.2 L 254.3,300.3 L 300.3,300.0 L 345.9,287.9 L 391.9,222.9 L 438.5,168.3 L 484.6,195.3 L 530.1,255.4 L 576.2,294.0 L 622.3,324.5" class="mbar"/>
<path d="M 116.1,295.5 L 161.6,284.5 L 208.2,268.0 L 254.3,247.7 L 300.3,247.6 L 345.9,240.6 L 391.9,199.0 L 438.5,168.3 L 484.6,186.6 L 530.1,220.8 L 576.2,242.4 L 622.3,260.2" class="mph"/>
<path d="M 76.2,352.6 L 82.3,335.6 L 88.5,322.9 L 94.7,312.5 L 100.8,303.6 L 107.0,295.8 L 113.2,288.9 L 119.4,282.7 L 125.5,277.1 L 131.7,271.9 L 137.9,266.9 L 144.0,262.2 L 150.2,257.7 L 156.4,253.5 L 162.6,249.5 L 168.7,245.9 L 174.9,242.5 L 181.1,239.3 L 187.2,236.1 L 193.4,233.0 L 199.6,230.0 L 205.7,227.0 L 211.9,224.1 L 218.1,221.3 L 224.3,218.5 L 230.4,215.8 L 236.6,213.2 L 242.8,210.6 L 248.9,208.0 L 255.1,205.6 L 261.3,203.2 L 267.4,200.8 L 273.6,198.5 L 279.8,196.2 L 286.0,194.0 L 292.1,191.9 L 298.3,189.8 L 304.5,187.7 L 310.6,185.7 L 316.8,183.7 L 323.0,181.8 L 329.1,180.0 L 335.3,178.1 L 341.5,176.3 L 347.7,174.6 L 353.8,172.9 L 360.0,171.2 L 366.2,169.6 L 372.3,168.0 L 378.5,166.4 L 384.7,164.9 L 390.8,163.4 L 397.0,161.9 L 403.2,160.5 L 409.4,159.1 L 415.5,157.8 L 421.7,156.4 L 427.9,155.1 L 434.0,153.9 L 440.2,152.7 L 446.4,151.5 L 452.5,150.3 L 458.7,149.2 L 464.9,148.1 L 471.1,147.0 L 477.2,145.9 L 483.4,144.9 L 489.6,143.9 L 495.7,143.0 L 501.9,142.0 L 508.1,141.1 L 514.2,140.2 L 520.4,139.4 L 526.6,138.6 L 532.8,137.8 L 538.9,137.0 L 545.1,136.2 L 551.3,135.5 L 557.4,134.8 L 563.6,134.1 L 569.8,133.5 L 575.9,132.9 L 582.1,132.3 L 588.3,131.7 L 594.5,131.2 L 600.6,130.6 L 606.8,130.1 L 613.0,129.7 L 619.1,129.2 L 625.3,128.8 L 631.5,128.4 L 637.6,128.0 L 643.8,127.6 L 650.0,127.3 L 656.2,127.3 L 662.3,128.7 L 668.5,130.0 L 674.7,131.3 L 680.8,132.8 L 687.0,134.1" class="nt"/>
<path d="M 116.1,331.7 L 161.6,294.8 L 208.2,274.0 L 254.3,236.9 L 300.3,217.9 L 345.9,200.2 L 391.9,171.3 L 438.5,135.1 L 484.6,112.7 L 530.1,101.5 L 576.2,90.6 L 622.3,85.9" class="mond"/>
<path d="M 75.1,379.2 L 80.3,367.1 L 85.4,354.0 L 90.6,341.5 L 95.7,329.8 L 100.8,319.0 L 106.0,309.0 L 111.1,299.9 L 116.3,291.7 L 121.4,284.1 L 126.6,277.2 L 131.7,270.8 L 136.8,264.8 L 142.0,259.1 L 147.1,253.7 L 152.3,248.8 L 157.4,244.3 L 162.6,240.5 L 167.7,237.2 L 172.8,234.5 L 178.0,232.1 L 183.1,230.1 L 188.3,228.1 L 193.4,226.3 L 198.5,224.3 L 203.7,222.3 L 208.8,220.3 L 214.0,218.2 L 219.1,216.1 L 224.3,213.9 L 229.4,211.7 L 234.5,209.5 L 239.7,207.3 L 244.8,205.1 L 250.0,202.9 L 255.1,200.7 L 260.2,198.6 L 265.4,196.4 L 270.5,194.4 L 275.7,192.3 L 280.8,190.3 L 285.9,188.3 L 291.1,186.3 L 296.2,184.4 L 301.4,182.6 L 306.5,180.7 L 311.7,179.0 L 316.8,177.2 L 321.9,175.6 L 327.1,173.9 L 332.2,172.3 L 337.4,170.8 L 342.5,169.3 L 347.7,167.9 L 352.8,166.5 L 357.9,165.1 L 363.1,163.8 L 368.2,162.6 L 373.4,161.4 L 378.5,160.2 L 383.6,159.1 L 388.8,158.0 L 393.9,157.0 L 399.1,156.1 L 404.2,155.1 L 409.3,154.3 L 414.5,153.4 L 419.6,152.6 L 424.8,151.9 L 429.9,151.2 L 435.1,150.6 L 440.2,150.0 L 445.3,149.4 L 450.5,148.9 L 455.6,148.4 L 460.8,148.0 L 465.9,147.6 L 471.0,147.2 L 476.2,146.9 L 481.3,146.6 L 486.5,146.3 L 491.6,146.1 L 496.8,145.9 L 501.9,145.8 L 507.0,145.7 L 512.2,145.6 L 517.3,145.5 L 522.5,145.5 L 527.6,145.4 L 532.8,145.4 L 537.9,145.4 L 543.0,145.5 L 548.2,145.5 L 553.3,145.5 L 558.5,145.5 L 563.6,145.5 L 568.7,145.5 L 573.9,145.4 L 579.0,145.3 L 584.2,145.1 L 589.3,144.8 L 594.4,144.5 L 599.6,144.0 L 604.7,143.3 L 609.9,142.5 L 615.0,141.4 L 620.2,140.2 L 625.3,138.7 L 630.4,137.2 L 635.6,135.7 L 640.7,134.6 L 645.9,134.3 L 651.0,135.2 L 656.2,137.5 L 661.3,141.5 L 666.4,146.7 L 671.6,152.9 L 676.7,159.4 L 681.9,166.1 L 687.0,172.6" class="fw"/>
<line x1="116.06" y1="285.27" x2="116.06" y2="301.60" class="err"/>
<line x1="113.06" y1="285.27" x2="119.06" y2="285.27" class="err"/>
<line x1="113.06" y1="301.60" x2="119.06" y2="301.60" class="err"/>
<circle cx="116.06" cy="293.43" r="2.5" class="obs"/>
<line x1="161.62" y1="233.73" x2="161.62" y2="250.20" class="err"/>
<line x1="158.62" y1="233.73" x2="164.62" y2="233.73" class="err"/>
<line x1="158.62" y1="250.20" x2="164.62" y2="250.20" class="err"/>
<circle cx="161.62" cy="241.96" r="2.5" class="obs"/>
<line x1="208.19" y1="212.25" x2="208.19" y2="231.87" class="err"/>
<line x1="205.19" y1="212.25" x2="211.19" y2="212.25" class="err"/>
<line x1="205.19" y1="231.87" x2="211.19" y2="231.87" class="err"/>
<circle cx="208.19" cy="222.06" r="2.5" class="obs"/>
<line x1="254.26" y1="188.33" x2="254.26" y2="211.87" class="err"/>
<line x1="251.26" y1="188.33" x2="257.26" y2="188.33" class="err"/>
<line x1="251.26" y1="211.87" x2="257.26" y2="211.87" class="err"/>
<circle cx="254.26" cy="200.10" r="2.5" class="obs"/>
<line x1="300.32" y1="176.49" x2="300.32" y2="196.94" class="err"/>
<line x1="297.32" y1="176.49" x2="303.32" y2="176.49" class="err"/>
<line x1="297.32" y1="196.94" x2="303.32" y2="196.94" class="err"/>
<circle cx="300.32" cy="186.72" r="2.5" class="obs"/>
<line x1="345.88" y1="164.55" x2="345.88" y2="181.43" class="err"/>
<line x1="342.88" y1="164.55" x2="348.88" y2="164.55" class="err"/>
<line x1="342.88" y1="181.43" x2="348.88" y2="181.43" class="err"/>
<circle cx="345.88" cy="172.99" r="2.5" class="obs"/>
<line x1="391.95" y1="153.50" x2="391.95" y2="169.84" class="err"/>
<line x1="388.95" y1="153.50" x2="394.95" y2="153.50" class="err"/>
<line x1="388.95" y1="169.84" x2="394.95" y2="169.84" class="err"/>
<circle cx="391.95" cy="161.67" r="2.5" class="obs"/>
<line x1="438.52" y1="141.01" x2="438.52" y2="158.31" class="err"/>
<line x1="435.52" y1="141.01" x2="441.52" y2="141.01" class="err"/>
<line x1="435.52" y1="158.31" x2="441.52" y2="158.31" class="err"/>
<circle cx="438.52" cy="149.66" r="2.5" class="obs"/>
<line x1="484.58" y1="133.94" x2="484.58" y2="152.34" class="err"/>
<line x1="481.58" y1="133.94" x2="487.58" y2="133.94" class="err"/>
<line x1="481.58" y1="152.34" x2="487.58" y2="152.34" class="err"/>
<circle cx="484.58" cy="143.14" r="2.5" class="obs"/>
<line x1="530.14" y1="131.37" x2="530.14" y2="150.79" class="err"/>
<line x1="527.14" y1="131.37" x2="533.14" y2="131.37" class="err"/>
<line x1="527.14" y1="150.79" x2="533.14" y2="150.79" class="err"/>
<circle cx="530.14" cy="141.08" r="2.5" class="obs"/>
<line x1="576.21" y1="130.72" x2="576.21" y2="152.82" class="err"/>
<line x1="573.21" y1="130.72" x2="579.21" y2="130.72" class="err"/>
<line x1="573.21" y1="152.82" x2="579.21" y2="152.82" class="err"/>
<circle cx="576.21" cy="141.77" r="2.5" class="obs"/>
<line x1="622.27" y1="129.69" x2="622.27" y2="153.16" class="err"/>
<line x1="619.27" y1="129.69" x2="625.27" y2="129.69" class="err"/>
<line x1="619.27" y1="153.16" x2="625.27" y2="153.16" class="err"/>
<circle cx="622.27" cy="141.42" r="2.5" class="obs"/>
<g class="legend">
<line x1="82" y1="69" x2="106" y2="69" class="fw"/>
<text x="112" y="73" class="lbl-l">framework: 0.9 km/s, 1.3%, 0.32σ</text>
<line x1="82" y1="87" x2="106" y2="87" class="nt"/>
<text x="112" y="91" class="lbl-l">Newtonian: 1.8 km/s, 3.4%, 0.61σ</text>
<line x1="82" y1="105" x2="106" y2="105" class="mond"/>
<text x="112" y="109" class="lbl-m">MOND/RAR: 11.4 km/s, 21.6%, 4.04σ</text>
<circle cx="94" cy="123" r="2.5" class="obs"/>
<text x="112" y="127" class="lbl">observed V±err</text>
</g>
<g class="legend">
<line x1="472" y1="69" x2="496" y2="69" class="rho"/>
<text x="502" y="73" class="lbl-r">ρ(r) raw</text>
<line x1="472" y1="87" x2="496" y2="87" class="phot"/>
<text x="502" y="91" class="lbl-p">photometric baryonic profile</text>
<line x1="472" y1="105" x2="496" y2="105" class="mbar"/>
<text x="502" y="109" class="lbl-m">MOND baryonic annulus</text>
<line x1="472" y1="123" x2="496" y2="123" class="mph"/>
<text x="502" y="127" class="lbl-m">MOND phantom annulus</text>
<text x="472" y="147" class="lbl-r">ρ peak: 94 M☉/pc²</text>
<text x="472" y="163" class="lbl-p">phot peak: 4.33 (arb.)</text>
<text x="472" y="179" class="lbl-m">Σbar peak: 16.09 M☉/pc²</text>
<text x="472" y="195" class="lbl-m">Σphantom peak: 61.63 M☉/pc²</text>
</g>
<rect x="775" y="55" width="170" height="170" class="preview-bg"/>
<defs><radialGradient id="g_UGC00731" cx="0.5" cy="0.5" r="0.5">
  <stop offset="0.0000" stop-color="rgb(179,45,45)"/>
  <stop offset="0.0313" stop-color="rgb(169,42,42)"/>
  <stop offset="0.0625" stop-color="rgb(159,40,40)"/>
  <stop offset="0.0938" stop-color="rgb(149,37,37)"/>
  <stop offset="0.1250" stop-color="rgb(145,36,36)"/>
  <stop offset="0.1563" stop-color="rgb(139,35,35)"/>
  <stop offset="0.1875" stop-color="rgb(133,33,33)"/>
  <stop offset="0.2188" stop-color="rgb(131,33,33)"/>
  <stop offset="0.2500" stop-color="rgb(129,32,32)"/>
  <stop offset="0.2813" stop-color="rgb(127,32,32)"/>
  <stop offset="0.3125" stop-color="rgb(125,31,31)"/>
  <stop offset="0.3438" stop-color="rgb(123,31,31)"/>
  <stop offset="0.3750" stop-color="rgb(121,30,30)"/>
  <stop offset="0.4063" stop-color="rgb(119,30,30)"/>
  <stop offset="0.4375" stop-color="rgb(117,29,29)"/>
  <stop offset="0.4688" stop-color="rgb(115,29,29)"/>
  <stop offset="0.5000" stop-color="rgb(113,28,28)"/>
  <stop offset="0.5313" stop-color="rgb(111,28,28)"/>
  <stop offset="0.5625" stop-color="rgb(109,27,27)"/>
  <stop offset="0.5938" stop-color="rgb(107,27,27)"/>
  <stop offset="0.6250" stop-color="rgb(106,27,27)"/>
  <stop offset="0.6563" stop-color="rgb(104,26,26)"/>
  <stop offset="0.6875" stop-color="rgb(102,26,26)"/>
  <stop offset="0.7188" stop-color="rgb(100,25,25)"/>
  <stop offset="0.7500" stop-color="rgb(98,25,25)"/>
  <stop offset="0.7813" stop-color="rgb(96,24,24)"/>
  <stop offset="0.8125" stop-color="rgb(94,24,24)"/>
  <stop offset="0.8438" stop-color="rgb(92,23,23)"/>
  <stop offset="0.8750" stop-color="rgb(90,23,23)"/>
  <stop offset="0.9063" stop-color="rgb(88,22,22)"/>
  <stop offset="0.9375" stop-color="rgb(86,22,22)"/>
  <stop offset="0.9688" stop-color="rgb(84,21,21)"/>
  <stop offset="1.0000" stop-color="rgb(8,2,2)"/>
</radialGradient></defs>
<circle cx="860" cy="140" r="81" fill="url(#g_UGC00731)"/>
<text x="860" y="49" text-anchor="middle" class="preview-lbl">face-on luminance from ρ(r)</text>
<text x="860" y="239" text-anchor="middle" class="preview-lbl">edge at r = 11.6 kpc</text>
</svg>