<svg xmlns="http://www.w3.org/2000/svg" viewBox="0 0 890 420" width="890" height="420" font-family="sans-serif" font-size="12">
<style>
  .ax { stroke: #333; stroke-width: 1; fill: none; }
  .grid { stroke: #ddd; stroke-width: 0.5; fill: none; }
  .lbl { fill: #333; }
  .lbl-l { fill: #0066cc; }
  .lbl-r { fill: #b03030; }
  .obs { fill: #222; }
  .err { stroke: #555; stroke-width: 0.8; fill: none; }
  .fw { stroke: #0066cc; stroke-width: 2.2; fill: none; }
  .nt { stroke: #cc6600; stroke-width: 1.6; fill: none; stroke-dasharray: 5,3; }
  .lbl-s { fill: #cc7000; }
  .rho { stroke: #b03030; stroke-width: 2.0; fill: none; }
  .sig { stroke: #cc7000; stroke-width: 1.8; fill: none; }
  .title { fill: #111; font-size: 16px; font-weight: 600; }
  .subtitle { fill: #555; font-size: 11px; }
  .preview-bg { fill: #000; }
  .preview-lbl { fill: #888; font-size: 10px; }
  .legend { font-size: 11px; }
</style>
<text x="343.5" y="22" text-anchor="middle" class="title">UGC08490</text>
<text x="343.5" y="38" text-anchor="middle" class="subtitle">rMax=10.2 kpc, N=30, RMS=1.2 km/s (1.6%), amp=105</text>
<line x1="70" y1="365.0" x2="617" y2="365.0" class="grid"/>
<text x="64" y="369.0" text-anchor="end" class="lbl-l">0</text>
<line x1="70" y1="303.0" x2="617" y2="303.0" class="grid"/>
<text x="64" y="307.0" text-anchor="end" class="lbl-l">20</text>
<line x1="70" y1="241.0" x2="617" y2="241.0" class="grid"/>
<text x="64" y="245.0" text-anchor="end" class="lbl-l">39</text>
<line x1="70" y1="179.0" x2="617" y2="179.0" class="grid"/>
<text x="64" y="183.0" text-anchor="end" class="lbl-l">59</text>
<line x1="70" y1="117.0" x2="617" y2="117.0" class="grid"/>
<text x="64" y="121.0" text-anchor="end" class="lbl-l">79</text>
<line x1="70" y1="55.0" x2="617" y2="55.0" class="grid"/>
<text x="64" y="59.0" text-anchor="end" class="lbl-l">98</text>
<text x="623" y="369.0" text-anchor="start" class="lbl-r">0.0</text>
<text x="623" y="327.7" text-anchor="start" class="lbl-r">0.2</text>
<text x="623" y="286.3" text-anchor="start" class="lbl-r">0.4</text>
<text x="623" y="245.0" text-anchor="start" class="lbl-r">0.6</text>
<text x="623" y="203.7" text-anchor="start" class="lbl-r">0.8</text>
<text x="623" y="162.3" text-anchor="start" class="lbl-r">1.0</text>
<line x1="70.0" y1="55" x2="70.0" y2="365" class="grid"/>
<text x="70.0" y="381" text-anchor="middle" class="lbl">0.0</text>
<line x1="161.2" y1="55" x2="161.2" y2="365" class="grid"/>
<text x="161.2" y="381" text-anchor="middle" class="lbl">1.8</text>
<line x1="252.3" y1="55" x2="252.3" y2="365" class="grid"/>
<text x="252.3" y="381" text-anchor="middle" class="lbl">3.5</text>
<line x1="343.5" y1="55" x2="343.5" y2="365" class="grid"/>
<text x="343.5" y="381" text-anchor="middle" class="lbl">5.3</text>
<line x1="434.7" y1="55" x2="434.7" y2="365" class="grid"/>
<text x="434.7" y="381" text-anchor="middle" class="lbl">7.1</text>
<line x1="525.8" y1="55" x2="525.8" y2="365" class="grid"/>
<text x="525.8" y="381" text-anchor="middle" class="lbl">8.8</text>
<line x1="617.0" y1="55" x2="617.0" y2="365" class="grid"/>
<text x="617.0" y="381" text-anchor="middle" class="lbl">10.6</text>
<text x="343.5" y="408" text-anchor="middle" class="lbl">radius (kpc)</text>
<text x="16" y="210" text-anchor="middle" class="lbl-l" transform="rotate(-90, 16, 210)">velocity (km/s)</text>
<text x="874" y="210" text-anchor="middle" class="lbl-r" transform="rotate(-90, 874, 210)">mass profile (normalized to peak)</text>
<rect x="70" y="55" width="547" height="310" class="ax"/>
<path d="M 70.0,158.3 L 72.5,170.7 L 75.0,183.1 L 77.5,195.5 L 80.0,207.8 L 82.5,220.2 L 85.0,232.6 L 87.5,245.0 L 90.0,257.4 L 92.5,269.7 L 95.0,282.1 L 97.5,286.2 L 100.0,287.1 L 102.5,288.0 L 105.0,288.9 L 107.5,289.8 L 110.0,290.7 L 112.5,291.6 L 115.0,292.5 L 117.5,293.3 L 120.0,294.2 L 122.5,295.1 L 124.9,296.0 L 127.4,296.9 L 129.9,297.8 L 132.4,298.7 L 134.9,299.6 L 137.4,300.5 L 139.9,301.4 L 142.4,302.3 L 144.9,303.2 L 147.4,304.1 L 149.9,304.7 L 152.4,305.3 L 154.9,305.8 L 157.4,306.3 L 159.9,306.9 L 162.4,307.4 L 164.9,308.0 L 167.4,308.5 L 169.9,309.1 L 172.4,309.6 L 174.9,310.2 L 177.4,310.7 L 179.9,311.3 L 182.4,311.8 L 184.9,312.3 L 187.4,312.9 L 189.9,313.4 L 192.4,314.0 L 194.9,314.5 L 197.4,315.1 L 199.9,315.6 L 202.4,316.2 L 204.9,316.7 L 207.4,317.3 L 209.9,317.8 L 212.4,318.3 L 214.9,318.9 L 217.4,319.4 L 219.9,320.0 L 222.4,320.5 L 224.9,321.1 L 227.4,321.6 L 229.9,321.8 L 232.4,322.0 L 234.8,322.1 L 237.3,322.3 L 239.8,322.5 L 242.3,322.7 L 244.8,322.9 L 247.3,323.0 L 249.8,323.2 L 252.3,323.4 L 254.8,323.6 L 257.3,323.8 L 259.8,323.9 L 262.3,324.1 L 264.8,324.3 L 267.3,324.5 L 269.8,324.7 L 272.3,324.8 L 274.8,325.0 L 277.3,325.2 L 279.8,325.4 L 282.3,325.6 L 284.8,325.7 L 287.3,325.9 L 289.8,326.1 L 292.3,326.3 L 294.8,326.5 L 297.3,326.6 L 299.8,326.8 L 302.3,327.0 L 304.8,327.2 L 307.3,327.4 L 309.8,327.5 L 312.3,327.7 L 314.8,327.9 L 317.3,328.1 L 319.8,328.3 L 322.3,328.4 L 324.8,328.6 L 327.3,328.8 L 329.8,329.0 L 332.3,329.2 L 334.8,329.3 L 337.3,329.5 L 339.8,329.7 L 342.3,329.9 L 344.7,330.1 L 347.2,330.2 L 349.7,330.4 L 352.2,330.6 L 354.7,330.8 L 357.2,331.0 L 359.7,331.1 L 362.2,331.3 L 364.7,331.5 L 367.2,331.7 L 369.7,331.9 L 372.2,332.0 L 374.7,332.2 L 377.2,332.4 L 379.7,332.6 L 382.2,332.8 L 384.7,332.9 L 387.2,333.1 L 389.7,333.3 L 392.2,333.5 L 394.7,333.7 L 397.2,333.9 L 399.7,334.0 L 402.2,334.2 L 404.7,334.4 L 407.2,334.6 L 409.7,334.8 L 412.2,334.9 L 414.7,335.1 L 417.2,335.3 L 419.7,335.5 L 422.2,335.7 L 424.7,335.8 L 427.2,336.0 L 429.7,336.2 L 432.2,336.4 L 434.7,336.6 L 437.2,336.7 L 439.7,336.9 L 442.2,337.1 L 444.7,337.3 L 447.2,337.5 L 449.7,337.6 L 452.2,337.8 L 454.6,338.0 L 457.1,338.2 L 459.6,338.4 L 462.1,338.5 L 464.6,338.7 L 467.1,338.9 L 469.6,339.1 L 472.1,339.3 L 474.6,339.4 L 477.1,339.6 L 479.6,339.8 L 482.1,340.0 L 484.6,340.2 L 487.1,340.3 L 489.6,340.5 L 492.1,340.7 L 494.6,340.9 L 497.1,341.1 L 499.6,341.2 L 502.1,341.4 L 504.6,341.6 L 507.1,341.8 L 509.6,342.0 L 512.1,342.1 L 514.6,342.3 L 517.1,342.5 L 519.6,342.7 L 522.1,342.9 L 524.6,343.0 L 527.1,343.2 L 529.6,343.4 L 532.1,343.6 L 534.6,343.8 L 537.1,343.9 L 539.6,344.1 L 542.1,344.3 L 544.6,344.5 L 547.1,344.7 L 549.6,344.8 L 552.1,345.0 L 554.6,345.2 L 557.1,345.4 L 559.6,345.6 L 562.1,345.7 L 564.5,345.9 L 567.0,346.1 L 569.5,346.3 L 572.0,346.5 L 574.5,346.6 L 577.0,346.8 L 579.5,347.0 L 582.0,347.2 L 584.5,347.4 L 587.0,354.1 L 589.5,361.1 L 592.0,365.0 L 594.5,365.0 L 597.0,365.0 L 599.5,365.0 L 602.0,365.0 L 604.5,365.0 L 607.0,365.0 L 609.5,365.0 L 612.0,365.0 L 614.5,365.0 L 617.0,365.0" class="rho"/>
<path d="M 70.0,158.3 L 72.5,158.8 L 75.0,159.6 L 77.5,160.7 L 80.0,162.1 L 82.5,163.8 L 85.0,165.8 L 87.5,168.0 L 90.0,170.3 L 92.5,172.7 L 95.0,175.2 L 97.5,177.7 L 100.0,180.1 L 102.5,182.6 L 105.0,184.9 L 107.5,187.3 L 110.0,189.5 L 112.5,191.7 L 115.0,193.9 L 117.5,196.0 L 120.0,198.1 L 122.5,200.1 L 124.9,202.1 L 127.4,204.0 L 129.9,205.9 L 132.4,207.8 L 134.9,209.6 L 137.4,211.4 L 139.9,213.2 L 142.4,215.0 L 144.9,216.7 L 147.4,218.4 L 149.9,220.1 L 152.4,221.7 L 154.9,223.4 L 157.4,225.0 L 159.9,226.6 L 162.4,228.2 L 164.9,229.7 L 167.4,231.2 L 169.9,232.8 L 172.4,234.2 L 174.9,235.7 L 177.4,237.2 L 179.9,238.6 L 182.4,240.1 L 184.9,241.5 L 187.4,242.9 L 189.9,244.3 L 192.4,245.6 L 194.9,247.0 L 197.4,248.3 L 199.9,249.6 L 202.4,250.9 L 204.9,252.2 L 207.4,253.4 L 209.9,254.7 L 212.4,255.9 L 214.9,257.1 L 217.4,258.3 L 219.9,259.5 L 222.4,260.6 L 224.9,261.8 L 227.4,262.9 L 229.9,264.0 L 232.4,265.0 L 234.8,266.1 L 237.3,267.1 L 239.8,268.1 L 242.3,269.1 L 244.8,270.1 L 247.3,271.1 L 249.8,272.0 L 252.3,273.0 L 254.8,273.9 L 257.3,274.8 L 259.8,275.7 L 262.3,276.6 L 264.8,277.5 L 267.3,278.4 L 269.8,279.2 L 272.3,280.1 L 274.8,280.9 L 277.3,281.7 L 279.8,282.5 L 282.3,283.3 L 284.8,284.1 L 287.3,284.9 L 289.8,285.7 L 292.3,286.5 L 294.8,287.3 L 297.3,288.0 L 299.8,288.8 L 302.3,289.5 L 304.8,290.3 L 307.3,291.0 L 309.8,291.7 L 312.3,292.4 L 314.8,293.1 L 317.3,293.8 L 319.8,294.5 L 322.3,295.2 L 324.8,295.9 L 327.3,296.6 L 329.8,297.3 L 332.3,298.0 L 334.8,298.6 L 337.3,299.3 L 339.8,299.9 L 342.3,300.6 L 344.7,301.2 L 347.2,301.9 L 349.7,302.5 L 352.2,303.1 L 354.7,303.8 L 357.2,304.4 L 359.7,305.0 L 362.2,305.6 L 364.7,306.2 L 367.2,306.8 L 369.7,307.4 L 372.2,308.0 L 374.7,308.6 L 377.2,309.2 L 379.7,309.8 L 382.2,310.4 L 384.7,310.9 L 387.2,311.5 L 389.7,312.1 L 392.2,312.6 L 394.7,313.2 L 397.2,313.7 L 399.7,314.3 L 402.2,314.8 L 404.7,315.4 L 407.2,315.9 L 409.7,316.4 L 412.2,317.0 L 414.7,317.5 L 417.2,318.0 L 419.7,318.5 L 422.2,319.0 L 424.7,319.5 L 427.2,320.0 L 429.7,320.5 L 432.2,321.0 L 434.7,321.5 L 437.2,322.0 L 439.7,322.5 L 442.2,323.0 L 444.7,323.5 L 447.2,323.9 L 449.7,324.4 L 452.2,324.9 L 454.6,325.3 L 457.1,325.8 L 459.6,326.3 L 462.1,326.7 L 464.6,327.2 L 467.1,327.6 L 469.6,328.1 L 472.1,328.5 L 474.6,328.9 L 477.1,329.4 L 479.6,329.8 L 482.1,330.2 L 484.6,330.6 L 487.1,331.1 L 489.6,331.5 L 492.1,331.9 L 494.6,332.3 L 497.1,332.7 L 499.6,333.1 L 502.1,333.5 L 504.6,333.9 L 507.1,334.3 L 509.6,334.7 L 512.1,335.1 L 514.6,335.5 L 517.1,335.9 L 519.6,336.2 L 522.1,336.6 L 524.6,337.0 L 527.1,337.4 L 529.6,337.7 L 532.1,338.1 L 534.6,338.5 L 537.1,338.8 L 539.6,339.2 L 542.1,339.6 L 544.6,339.9 L 547.1,340.3 L 549.6,340.6 L 552.1,341.0 L 554.6,341.3 L 557.1,341.7 L 559.6,342.0 L 562.1,342.4 L 564.5,342.7 L 567.0,343.1 L 569.5,343.4 L 572.0,343.8 L 574.5,344.1 L 577.0,344.5 L 579.5,344.8 L 582.0,345.2 L 584.5,345.5 L 587.0,345.8 L 589.5,346.1 L 592.0,346.5 L 594.5,346.8 L 597.0,347.1 L 599.5,347.4 L 602.0,347.7 L 604.5,347.9 L 607.0,348.2 L 609.5,348.5 L 612.0,348.7 L 614.5,349.0 L 617.0,349.2" class="sig"/>
<path d="M 75.5,293.1 L 80.9,268.3 L 86.4,253.0 L 91.9,243.6 L 97.3,238.5 L 102.8,233.7 L 108.3,228.4 L 113.8,223.2 L 119.2,218.0 L 124.7,213.0 L 130.2,208.3 L 135.6,203.8 L 141.1,199.6 L 146.6,195.6 L 152.1,191.8 L 157.5,188.2 L 163.0,184.7 L 168.5,181.3 L 173.9,178.1 L 179.4,175.0 L 184.9,172.1 L 190.3,169.2 L 195.8,166.6 L 201.3,164.0 L 206.7,161.5 L 212.2,159.2 L 217.7,157.0 L 223.2,154.9 L 228.6,153.0 L 234.1,151.0 L 239.6,149.1 L 245.0,147.2 L 250.5,145.3 L 256.0,143.4 L 261.5,141.6 L 266.9,139.8 L 272.4,138.0 L 277.9,136.2 L 283.3,134.5 L 288.8,132.8 L 294.3,131.1 L 299.7,129.4 L 305.2,127.8 L 310.7,126.2 L 316.1,124.6 L 321.6,123.1 L 327.1,121.6 L 332.6,120.1 L 338.0,118.7 L 343.5,117.3 L 349.0,115.9 L 354.4,114.5 L 359.9,113.2 L 365.4,111.9 L 370.9,110.7 L 376.3,109.4 L 381.8,108.2 L 387.3,107.0 L 392.7,105.9 L 398.2,104.8 L 403.7,103.7 L 409.1,102.6 L 414.6,101.6 L 420.1,100.6 L 425.6,99.6 L 431.0,98.7 L 436.5,97.7 L 442.0,96.8 L 447.4,96.0 L 452.9,95.1 L 458.4,94.3 L 463.8,93.5 L 469.3,92.8 L 474.8,92.0 L 480.3,91.3 L 485.7,90.6 L 491.2,90.0 L 496.7,89.3 L 502.1,88.7 L 507.6,88.2 L 513.1,87.6 L 518.5,87.1 L 524.0,86.6 L 529.5,86.1 L 535.0,85.7 L 540.4,85.2 L 545.9,84.8 L 551.4,84.5 L 556.8,84.1 L 562.3,83.8 L 567.8,83.5 L 573.2,83.2 L 578.7,82.9 L 584.2,82.7 L 589.7,83.1 L 595.1,84.5 L 600.6,86.0 L 606.1,87.5 L 611.5,88.9 L 617.0,90.3" class="nt"/>
<path d="M 74.6,324.8 L 79.1,296.7 L 83.7,268.3 L 88.2,244.3 L 92.8,224.9 L 97.3,210.5 L 101.9,199.6 L 106.5,191.4 L 111.0,184.8 L 115.6,179.2 L 120.1,174.1 L 124.7,169.3 L 129.3,164.7 L 133.8,160.4 L 138.4,156.3 L 142.9,152.4 L 147.5,148.7 L 152.1,145.3 L 156.6,142.0 L 161.2,138.9 L 165.7,135.9 L 170.3,133.1 L 174.8,130.4 L 179.4,127.9 L 184.0,125.5 L 188.5,123.4 L 193.1,121.5 L 197.6,119.9 L 202.2,118.6 L 206.8,117.5 L 211.3,116.8 L 215.9,116.4 L 220.4,116.3 L 225.0,116.4 L 229.5,116.7 L 234.1,117.1 L 238.7,117.6 L 243.2,118.0 L 247.8,118.3 L 252.3,118.6 L 256.9,118.8 L 261.5,118.9 L 266.0,118.8 L 270.6,118.8 L 275.1,118.7 L 279.7,118.5 L 284.2,118.3 L 288.8,118.0 L 293.4,117.7 L 297.9,117.4 L 302.5,117.1 L 307.0,116.8 L 311.6,116.4 L 316.1,116.1 L 320.7,115.7 L 325.3,115.4 L 329.8,115.0 L 334.4,114.7 L 338.9,114.4 L 343.5,114.1 L 348.1,113.8 L 352.6,113.5 L 357.2,113.2 L 361.7,113.0 L 366.3,112.7 L 370.8,112.5 L 375.4,112.3 L 380.0,112.2 L 384.5,112.0 L 389.1,111.9 L 393.6,111.8 L 398.2,111.8 L 402.8,111.7 L 407.3,111.7 L 411.9,111.8 L 416.4,111.8 L 421.0,111.9 L 425.6,112.0 L 430.1,112.1 L 434.7,112.2 L 439.2,112.4 L 443.8,112.6 L 448.3,112.9 L 452.9,113.1 L 457.5,113.4 L 462.0,113.7 L 466.6,114.0 L 471.1,114.3 L 475.7,114.7 L 480.3,115.0 L 484.8,115.4 L 489.4,115.8 L 493.9,116.2 L 498.5,116.6 L 503.0,117.0 L 507.6,117.4 L 512.2,117.7 L 516.7,118.1 L 521.3,118.4 L 525.8,118.6 L 530.4,118.8 L 535.0,118.9 L 539.5,118.9 L 544.1,118.8 L 548.6,118.6 L 553.2,118.3 L 557.7,117.8 L 562.3,117.2 L 566.9,116.7 L 571.4,116.3 L 576.0,116.3 L 580.5,117.1 L 585.1,118.7 L 589.7,121.5 L 594.2,125.4 L 598.8,130.1 L 603.3,135.4 L 607.9,140.9 L 612.4,146.4 L 617.0,151.7" class="fw"/>
<line x1="87.52" y1="230.85" x2="87.52" y2="254.15" class="err"/>
<line x1="84.52" y1="230.85" x2="90.52" y2="230.85" class="err"/>
<line x1="84.52" y1="254.15" x2="90.52" y2="254.15" class="err"/>
<circle cx="87.52" cy="242.50" r="2.5" class="obs"/>
<line x1="105.05" y1="195.18" x2="105.05" y2="218.48" class="err"/>
<line x1="102.05" y1="195.18" x2="108.05" y2="195.18" class="err"/>
<line x1="102.05" y1="218.48" x2="108.05" y2="218.48" class="err"/>
<circle cx="105.05" cy="206.83" r="2.5" class="obs"/>
<line x1="122.57" y1="163.29" x2="122.57" y2="186.59" class="err"/>
<line x1="119.57" y1="163.29" x2="125.57" y2="163.29" class="err"/>
<line x1="119.57" y1="186.59" x2="125.57" y2="186.59" class="err"/>
<circle cx="122.57" cy="174.94" r="2.5" class="obs"/>
<line x1="140.10" y1="138.03" x2="140.10" y2="161.33" class="err"/>
<line x1="137.10" y1="138.03" x2="143.10" y2="138.03" class="err"/>
<line x1="137.10" y1="161.33" x2="143.10" y2="161.33" class="err"/>
<circle cx="140.10" cy="149.68" r="2.5" class="obs"/>
<line x1="157.10" y1="123.51" x2="157.10" y2="146.81" class="err"/>
<line x1="154.10" y1="123.51" x2="160.10" y2="123.51" class="err"/>
<line x1="154.10" y1="146.81" x2="160.10" y2="146.81" class="err"/>
<circle cx="157.10" cy="135.16" r="2.5" class="obs"/>
<line x1="174.63" y1="115.62" x2="174.63" y2="138.92" class="err"/>
<line x1="171.63" y1="115.62" x2="177.63" y2="115.62" class="err"/>
<line x1="171.63" y1="138.92" x2="177.63" y2="138.92" class="err"/>
<circle cx="174.63" cy="127.27" r="2.5" class="obs"/>
<line x1="192.15" y1="111.51" x2="192.15" y2="134.81" class="err"/>
<line x1="189.15" y1="111.51" x2="195.15" y2="111.51" class="err"/>
<line x1="189.15" y1="134.81" x2="195.15" y2="134.81" class="err"/>
<circle cx="192.15" cy="123.16" r="2.5" class="obs"/>
<line x1="209.16" y1="108.36" x2="209.16" y2="131.66" class="err"/>
<line x1="206.16" y1="108.36" x2="212.16" y2="108.36" class="err"/>
<line x1="206.16" y1="131.66" x2="212.16" y2="131.66" class="err"/>
<circle cx="209.16" cy="120.01" r="2.5" class="obs"/>
<line x1="227.20" y1="105.51" x2="227.20" y2="128.81" class="err"/>
<line x1="224.20" y1="105.51" x2="230.20" y2="105.51" class="err"/>
<line x1="224.20" y1="128.81" x2="230.20" y2="128.81" class="err"/>
<circle cx="227.20" cy="117.16" r="2.5" class="obs"/>
<line x1="244.21" y1="106.46" x2="244.21" y2="129.76" class="err"/>
<line x1="241.21" y1="106.46" x2="247.21" y2="106.46" class="err"/>
<line x1="241.21" y1="129.76" x2="247.21" y2="129.76" class="err"/>
<circle cx="244.21" cy="118.11" r="2.5" class="obs"/>
<line x1="261.73" y1="104.57" x2="261.73" y2="127.87" class="err"/>
<line x1="258.73" y1="104.57" x2="264.73" y2="104.57" class="err"/>
<line x1="258.73" y1="127.87" x2="264.73" y2="127.87" class="err"/>
<circle cx="261.73" cy="116.22" r="2.5" class="obs"/>
<line x1="279.26" y1="103.30" x2="279.26" y2="126.60" class="err"/>
<line x1="276.26" y1="103.30" x2="282.26" y2="103.30" class="err"/>
<line x1="276.26" y1="126.60" x2="282.26" y2="126.60" class="err"/>
<circle cx="279.26" cy="114.95" r="2.5" class="obs"/>
<line x1="296.26" y1="103.30" x2="296.26" y2="126.60" class="err"/>
<line x1="293.26" y1="103.30" x2="299.26" y2="103.30" class="err"/>
<line x1="293.26" y1="126.60" x2="299.26" y2="126.60" class="err"/>
<circle cx="296.26" cy="114.95" r="2.5" class="obs"/>
<line x1="314.30" y1="103.30" x2="314.30" y2="126.60" class="err"/>
<line x1="311.30" y1="103.30" x2="317.30" y2="103.30" class="err"/>
<line x1="311.30" y1="126.60" x2="317.30" y2="126.60" class="err"/>
<circle cx="314.30" cy="114.95" r="2.5" class="obs"/>
<line x1="331.83" y1="104.57" x2="331.83" y2="127.87" class="err"/>
<line x1="328.83" y1="104.57" x2="334.83" y2="104.57" class="err"/>
<line x1="328.83" y1="127.87" x2="334.83" y2="127.87" class="err"/>
<circle cx="331.83" cy="116.22" r="2.5" class="obs"/>
<line x1="348.83" y1="105.51" x2="348.83" y2="128.81" class="err"/>
<line x1="345.83" y1="105.51" x2="351.83" y2="105.51" class="err"/>
<line x1="345.83" y1="128.81" x2="351.83" y2="128.81" class="err"/>
<circle cx="348.83" cy="117.16" r="2.5" class="obs"/>
<line x1="366.36" y1="100.46" x2="366.36" y2="123.76" class="err"/>
<line x1="363.36" y1="100.46" x2="369.36" y2="100.46" class="err"/>
<line x1="363.36" y1="123.76" x2="369.36" y2="123.76" class="err"/>
<circle cx="366.36" cy="112.11" r="2.5" class="obs"/>
<line x1="383.88" y1="100.46" x2="383.88" y2="123.76" class="err"/>
<line x1="380.88" y1="100.46" x2="386.88" y2="100.46" class="err"/>
<line x1="380.88" y1="123.76" x2="386.88" y2="123.76" class="err"/>
<circle cx="383.88" cy="112.11" r="2.5" class="obs"/>
<line x1="400.89" y1="100.46" x2="400.89" y2="123.76" class="err"/>
<line x1="397.89" y1="100.46" x2="403.89" y2="100.46" class="err"/>
<line x1="397.89" y1="123.76" x2="403.89" y2="123.76" class="err"/>
<circle cx="400.89" cy="112.11" r="2.5" class="obs"/>
<line x1="418.93" y1="100.46" x2="418.93" y2="123.76" class="err"/>
<line x1="415.93" y1="100.46" x2="421.93" y2="100.46" class="err"/>
<line x1="415.93" y1="123.76" x2="421.93" y2="123.76" class="err"/>
<circle cx="418.93" cy="112.11" r="2.5" class="obs"/>
<line x1="436.45" y1="101.41" x2="436.45" y2="124.71" class="err"/>
<line x1="433.45" y1="101.41" x2="439.45" y2="101.41" class="err"/>
<line x1="433.45" y1="124.71" x2="439.45" y2="124.71" class="err"/>
<circle cx="436.45" cy="113.06" r="2.5" class="obs"/>
<line x1="453.46" y1="101.41" x2="453.46" y2="124.71" class="err"/>
<line x1="450.46" y1="101.41" x2="456.46" y2="101.41" class="err"/>
<line x1="450.46" y1="124.71" x2="456.46" y2="124.71" class="err"/>
<circle cx="453.46" cy="113.06" r="2.5" class="obs"/>
<line x1="470.99" y1="102.36" x2="470.99" y2="125.66" class="err"/>
<line x1="467.99" y1="102.36" x2="473.99" y2="102.36" class="err"/>
<line x1="467.99" y1="125.66" x2="473.99" y2="125.66" class="err"/>
<circle cx="470.99" cy="114.01" r="2.5" class="obs"/>
<line x1="488.51" y1="102.36" x2="488.51" y2="125.66" class="err"/>
<line x1="485.51" y1="102.36" x2="491.51" y2="102.36" class="err"/>
<line x1="485.51" y1="125.66" x2="491.51" y2="125.66" class="err"/>
<circle cx="488.51" cy="114.01" r="2.5" class="obs"/>
<line x1="506.03" y1="104.57" x2="506.03" y2="127.87" class="err"/>
<line x1="503.03" y1="104.57" x2="509.03" y2="104.57" class="err"/>
<line x1="503.03" y1="127.87" x2="509.03" y2="127.87" class="err"/>
<circle cx="506.03" cy="116.22" r="2.5" class="obs"/>
<line x1="523.56" y1="107.41" x2="523.56" y2="130.71" class="err"/>
<line x1="520.56" y1="107.41" x2="526.56" y2="107.41" class="err"/>
<line x1="520.56" y1="130.71" x2="526.56" y2="130.71" class="err"/>
<circle cx="523.56" cy="119.06" r="2.5" class="obs"/>
<line x1="540.57" y1="109.62" x2="540.57" y2="132.92" class="err"/>
<line x1="537.57" y1="109.62" x2="543.57" y2="109.62" class="err"/>
<line x1="537.57" y1="132.92" x2="543.57" y2="132.92" class="err"/>
<circle cx="540.57" cy="121.27" r="2.5" class="obs"/>
<line x1="558.09" y1="108.36" x2="558.09" y2="131.66" class="err"/>
<line x1="555.09" y1="108.36" x2="561.09" y2="108.36" class="err"/>
<line x1="555.09" y1="131.66" x2="561.09" y2="131.66" class="err"/>
<circle cx="558.09" cy="120.01" r="2.5" class="obs"/>
<line x1="573.55" y1="111.51" x2="573.55" y2="134.81" class="err"/>
<line x1="570.55" y1="111.51" x2="576.55" y2="111.51" class="err"/>
<line x1="570.55" y1="134.81" x2="576.55" y2="134.81" class="err"/>
<circle cx="573.55" cy="123.16" r="2.5" class="obs"/>
<line x1="593.14" y1="108.36" x2="593.14" y2="131.66" class="err"/>
<line x1="590.14" y1="108.36" x2="596.14" y2="108.36" class="err"/>
<line x1="590.14" y1="131.66" x2="596.14" y2="131.66" class="err"/>
<circle cx="593.14" cy="120.01" r="2.5" class="obs"/>
<g class="legend">
<line x1="82" y1="69" x2="106" y2="69" class="fw"/>
<text x="112" y="73" class="lbl-l">framework fit</text>
<line x1="82" y1="87" x2="106" y2="87" class="nt"/>
<text x="112" y="91" class="lbl-l">Newtonian (no halo)</text>
<circle cx="94" cy="105" r="2.5" class="obs"/>
<text x="112" y="109" class="lbl">observed V±err</text>
</g>
<g class="legend">
<line x1="442" y1="69" x2="466" y2="69" class="rho"/>
<text x="472" y="73" class="lbl-r">ρ(r) raw</text>
<line x1="442" y1="87" x2="466" y2="87" class="sig"/>
<text x="472" y="91" class="lbl-s">Σ(r) cumulative</text>
<text x="442" y="113" class="lbl-r">ρ peak: 396 M☉/pc²</text>
</g>
<rect x="705" y="55" width="170" height="170" class="preview-bg"/>
<defs><radialGradient id="g_UGC08490" cx="0.5" cy="0.5" r="0.5">
  <stop offset="0.0000" stop-color="rgb(255,63.75,63.75)"/>
  <stop offset="0.0313" stop-color="rgb(255,63.75,63.75)"/>
  <stop offset="0.0625" stop-color="rgb(252,63,63)"/>
  <stop offset="0.0938" stop-color="rgb(236,59,59)"/>
  <stop offset="0.1250" stop-color="rgb(221,55.25,55.25)"/>
  <stop offset="0.1563" stop-color="rgb(207,51.75,51.75)"/>
  <stop offset="0.1875" stop-color="rgb(198,49.5,49.5)"/>
  <stop offset="0.2188" stop-color="rgb(189,47.25,47.25)"/>
  <stop offset="0.2500" stop-color="rgb(179,44.75,44.75)"/>
  <stop offset="0.2813" stop-color="rgb(170,42.5,42.5)"/>
  <stop offset="0.3125" stop-color="rgb(163,40.75,40.75)"/>
  <stop offset="0.3438" stop-color="rgb(160,40,40)"/>
  <stop offset="0.3750" stop-color="rgb(157,39.25,39.25)"/>
  <stop offset="0.4063" stop-color="rgb(154,38.5,38.5)"/>
  <stop offset="0.4375" stop-color="rgb(150,37.5,37.5)"/>
  <stop offset="0.4688" stop-color="rgb(147,36.75,36.75)"/>
  <stop offset="0.5000" stop-color="rgb(144,36,36)"/>
  <stop offset="0.5313" stop-color="rgb(141,35.25,35.25)"/>
  <stop offset="0.5625" stop-color="rgb(138,34.5,34.5)"/>
  <stop offset="0.5938" stop-color="rgb(135,33.75,33.75)"/>
  <stop offset="0.6250" stop-color="rgb(132,33,33)"/>
  <stop offset="0.6563" stop-color="rgb(129,32.25,32.25)"/>
  <stop offset="0.6875" stop-color="rgb(126,31.5,31.5)"/>
  <stop offset="0.7188" stop-color="rgb(123,30.75,30.75)"/>
  <stop offset="0.7500" stop-color="rgb(120,30,30)"/>
  <stop offset="0.7813" stop-color="rgb(117,29.25,29.25)"/>
  <stop offset="0.8125" stop-color="rgb(114,28.5,28.5)"/>
  <stop offset="0.8438" stop-color="rgb(110,27.5,27.5)"/>
  <stop offset="0.8750" stop-color="rgb(107,26.75,26.75)"/>
  <stop offset="0.9063" stop-color="rgb(104,26,26)"/>
  <stop offset="0.9375" stop-color="rgb(101,25.25,25.25)"/>
  <stop offset="0.9688" stop-color="rgb(98,24.5,24.5)"/>
  <stop offset="1.0000" stop-color="rgb(0,0,0)"/>
</radialGradient></defs>
<circle cx="790" cy="140" r="81" fill="url(#g_UGC08490)"/>
<text x="790" y="49" text-anchor="middle" class="preview-lbl">face-on luminance from ρ(r)</text>
<text x="790" y="239" text-anchor="middle" class="preview-lbl">edge at r = 10.1 kpc</text>
</svg>