<svg xmlns="http://www.w3.org/2000/svg" viewBox="0 0 720 420" width="720" height="420" font-family="sans-serif" font-size="12">
<style>
  .ax { stroke: #333; stroke-width: 1; fill: none; }
  .grid { stroke: #ddd; stroke-width: 0.5; fill: none; }
  .lbl { fill: #333; }
  .lbl-l { fill: #0066cc; }
  .lbl-r { fill: #b03030; }
  .obs { fill: #222; }
  .err { stroke: #555; stroke-width: 0.8; fill: none; }
  .fw { stroke: #0066cc; stroke-width: 2.2; fill: none; }
  .nt { stroke: #cc6600; stroke-width: 1.6; fill: none; stroke-dasharray: 5,3; }
  .rho { stroke: #b03030; stroke-width: 2.0; fill: none; }
  .sig { stroke: #b03030; stroke-width: 1.6; fill: none; stroke-dasharray: 4,2; opacity: 0.85; }
  .title { fill: #111; font-size: 16px; font-weight: 600; }
  .subtitle { fill: #555; font-size: 11px; }
  .legend { font-size: 11px; }
</style>
<text x="360.0" y="22" text-anchor="middle" class="title">UGC05721</text>
<text x="360.0" y="38" text-anchor="middle" class="subtitle">rMax=6.7 kpc, N=23, RMS=1.4 km/s (2.1%), amp=105</text>
<line x1="70" y1="365.0" x2="635" y2="365.0" class="grid"/>
<text x="64" y="369.0" text-anchor="end" class="lbl-l">0</text>
<line x1="70" y1="303.0" x2="635" y2="303.0" class="grid"/>
<text x="64" y="307.0" text-anchor="end" class="lbl-l">22</text>
<line x1="70" y1="241.00000000000003" x2="635" y2="241.00000000000003" class="grid"/>
<text x="64" y="245.00000000000003" text-anchor="end" class="lbl-l">45</text>
<line x1="70" y1="179.0" x2="635" y2="179.0" class="grid"/>
<text x="64" y="183.0" text-anchor="end" class="lbl-l">67</text>
<line x1="70" y1="117.00000000000003" x2="635" y2="117.00000000000003" class="grid"/>
<text x="64" y="121.00000000000003" text-anchor="end" class="lbl-l">89</text>
<line x1="70" y1="55.000000000000036" x2="635" y2="55.000000000000036" class="grid"/>
<text x="64" y="59.000000000000036" text-anchor="end" class="lbl-l">112</text>
<text x="641" y="369.0" text-anchor="start" class="lbl-r">0.0</text>
<text x="641" y="327.6666666666667" text-anchor="start" class="lbl-r">0.2</text>
<text x="641" y="286.33333333333337" text-anchor="start" class="lbl-r">0.4</text>
<text x="641" y="245.00000000000003" text-anchor="start" class="lbl-r">0.6</text>
<text x="641" y="203.66666666666666" text-anchor="start" class="lbl-r">0.8</text>
<text x="641" y="162.33333333333334" text-anchor="start" class="lbl-r">1.0</text>
<line x1="70.0" y1="55" x2="70.0" y2="365" class="grid"/>
<text x="70.0" y="381" text-anchor="middle" class="lbl">0.0</text>
<line x1="164.16666666666666" y1="55" x2="164.16666666666666" y2="365" class="grid"/>
<text x="164.16666666666666" y="381" text-anchor="middle" class="lbl">1.2</text>
<line x1="258.3333333333333" y1="55" x2="258.3333333333333" y2="365" class="grid"/>
<text x="258.3333333333333" y="381" text-anchor="middle" class="lbl">2.4</text>
<line x1="352.50000000000006" y1="55" x2="352.50000000000006" y2="365" class="grid"/>
<text x="352.50000000000006" y="381" text-anchor="middle" class="lbl">3.6</text>
<line x1="446.66666666666663" y1="55" x2="446.66666666666663" y2="365" class="grid"/>
<text x="446.66666666666663" y="381" text-anchor="middle" class="lbl">4.8</text>
<line x1="540.8333333333333" y1="55" x2="540.8333333333333" y2="365" class="grid"/>
<text x="540.8333333333333" y="381" text-anchor="middle" class="lbl">6.1</text>
<line x1="635.0000000000001" y1="55" x2="635.0000000000001" y2="365" class="grid"/>
<text x="635.0000000000001" y="381" text-anchor="middle" class="lbl">7.3</text>
<text x="352.5" y="408" text-anchor="middle" class="lbl">radius (kpc)</text>
<text x="16" y="210.0" text-anchor="middle" class="lbl-l" transform="rotate(-90, 16, 210.0)">velocity (km/s)</text>
<text x="704" y="210.0" text-anchor="middle" class="lbl-r" transform="rotate(-90, 704, 210.0)">mass profile (normalized to peak)</text>
<rect x="70" y="55" width="565" height="310" class="ax"/>
<path d="M 70.0,158.3 L 72.6,167.7 L 75.2,177.0 L 77.7,186.3 L 80.3,195.6 L 82.9,204.9 L 85.5,214.3 L 88.1,223.6 L 90.6,232.9 L 93.2,242.2 L 95.8,251.6 L 98.4,260.9 L 101.0,270.2 L 103.5,279.5 L 106.1,287.4 L 108.7,287.4 L 111.3,287.4 L 113.9,287.4 L 116.4,287.4 L 119.0,287.4 L 121.6,287.4 L 124.2,287.4 L 126.8,287.4 L 129.3,287.4 L 131.9,287.4 L 134.5,287.4 L 137.1,287.4 L 139.7,287.4 L 142.2,287.4 L 144.8,287.4 L 147.4,287.4 L 150.0,287.4 L 152.6,287.4 L 155.1,287.4 L 157.7,287.4 L 160.3,287.4 L 162.9,287.4 L 165.5,287.4 L 168.0,287.4 L 170.6,287.4 L 173.2,287.4 L 175.8,287.4 L 178.4,287.4 L 180.9,288.8 L 183.5,290.6 L 186.1,292.4 L 188.7,294.1 L 191.3,295.9 L 193.8,297.7 L 196.4,299.5 L 199.0,301.2 L 201.6,303.0 L 204.2,304.8 L 206.7,306.5 L 209.3,308.3 L 211.9,310.1 L 214.5,311.9 L 217.1,312.9 L 219.6,313.1 L 222.2,313.3 L 224.8,313.5 L 227.4,313.7 L 230.0,313.9 L 232.5,314.1 L 235.1,314.3 L 237.7,314.5 L 240.3,314.6 L 242.9,314.8 L 245.4,315.0 L 248.0,315.2 L 250.6,315.4 L 253.2,315.6 L 255.8,315.8 L 258.3,316.0 L 260.9,316.2 L 263.5,316.4 L 266.1,316.6 L 268.7,316.8 L 271.2,317.0 L 273.8,317.2 L 276.4,317.4 L 279.0,317.6 L 281.6,317.8 L 284.1,318.0 L 286.7,318.1 L 289.3,318.3 L 291.9,318.5 L 294.5,318.7 L 297.0,318.9 L 299.6,319.1 L 302.2,319.3 L 304.8,319.5 L 307.4,319.7 L 309.9,319.9 L 312.5,320.1 L 315.1,320.3 L 317.7,320.5 L 320.3,320.7 L 322.8,320.9 L 325.4,321.1 L 328.0,321.3 L 330.6,321.5 L 333.2,321.7 L 335.7,321.8 L 338.3,322.0 L 340.9,322.2 L 343.5,322.4 L 346.1,322.6 L 348.6,322.8 L 351.2,323.0 L 353.8,323.2 L 356.4,323.4 L 358.9,323.6 L 361.5,323.8 L 364.1,324.0 L 366.7,324.2 L 369.3,324.4 L 371.8,324.6 L 374.4,324.8 L 377.0,325.0 L 379.6,325.2 L 382.2,325.3 L 384.7,325.5 L 387.3,325.7 L 389.9,325.9 L 392.5,326.1 L 395.1,326.3 L 397.6,326.5 L 400.2,326.7 L 402.8,326.9 L 405.4,327.1 L 408.0,327.3 L 410.5,327.5 L 413.1,327.7 L 415.7,327.9 L 418.3,328.1 L 420.9,328.3 L 423.4,328.5 L 426.0,328.7 L 428.6,328.9 L 431.2,329.0 L 433.8,329.2 L 436.3,329.4 L 438.9,329.6 L 441.5,329.8 L 444.1,330.0 L 446.7,330.2 L 449.2,330.4 L 451.8,330.6 L 454.4,330.8 L 457.0,331.0 L 459.6,331.2 L 462.1,331.4 L 464.7,331.6 L 467.3,331.8 L 469.9,332.0 L 472.5,332.2 L 475.0,332.4 L 477.6,332.6 L 480.2,332.7 L 482.8,332.9 L 485.4,333.1 L 487.9,333.3 L 490.5,333.5 L 493.1,333.7 L 495.7,333.9 L 498.3,334.1 L 500.8,334.3 L 503.4,334.5 L 506.0,334.7 L 508.6,334.9 L 511.2,335.1 L 513.7,335.3 L 516.3,335.5 L 518.9,335.7 L 521.5,335.9 L 524.1,336.1 L 526.6,336.2 L 529.2,336.4 L 531.8,336.6 L 534.4,336.8 L 537.0,337.0 L 539.5,337.2 L 542.1,337.4 L 544.7,337.6 L 547.3,337.8 L 549.9,338.0 L 552.4,338.2 L 555.0,338.4 L 557.6,338.6 L 560.2,338.8 L 562.8,339.0 L 565.3,339.2 L 567.9,339.4 L 570.5,339.6 L 573.1,340.0 L 575.7,341.8 L 578.2,343.7 L 580.8,345.5 L 583.4,347.3 L 586.0,349.2 L 588.6,351.0 L 591.1,352.9 L 593.7,354.7 L 596.3,356.6 L 598.9,358.4 L 601.5,360.3 L 604.0,362.1 L 606.6,363.9 L 609.2,365.0 L 611.8,365.0 L 614.4,365.0 L 616.9,365.0 L 619.5,365.0 L 622.1,365.0 L 624.7,365.0 L 627.3,365.0 L 629.8,365.0 L 632.4,365.0 L 635.0,365.0" class="rho"/>
<path d="M 70.0,158.3 L 72.6,158.7 L 75.2,159.4 L 77.7,160.3 L 80.3,161.5 L 82.9,163.0 L 85.5,164.8 L 88.1,166.8 L 90.6,168.9 L 93.2,171.1 L 95.8,173.4 L 98.4,175.7 L 101.0,178.0 L 103.5,180.2 L 106.1,182.5 L 108.7,184.6 L 111.3,186.7 L 113.9,188.7 L 116.4,190.6 L 119.0,192.4 L 121.6,194.2 L 124.2,195.9 L 126.8,197.5 L 129.3,199.1 L 131.9,200.7 L 134.5,202.2 L 137.1,203.7 L 139.7,205.1 L 142.2,206.6 L 144.8,208.0 L 147.4,209.5 L 150.0,210.9 L 152.6,212.3 L 155.1,213.7 L 157.7,215.2 L 160.3,216.6 L 162.9,218.1 L 165.5,219.6 L 168.0,221.1 L 170.6,222.6 L 173.2,224.2 L 175.8,225.8 L 178.4,227.4 L 180.9,229.0 L 183.5,230.6 L 186.1,232.2 L 188.7,233.9 L 191.3,235.6 L 193.8,237.2 L 196.4,238.9 L 199.0,240.5 L 201.6,242.2 L 204.2,243.8 L 206.7,245.4 L 209.3,247.0 L 211.9,248.5 L 214.5,250.0 L 217.1,251.5 L 219.6,253.0 L 222.2,254.4 L 224.8,255.7 L 227.4,257.1 L 230.0,258.4 L 232.5,259.7 L 235.1,260.9 L 237.7,262.1 L 240.3,263.3 L 242.9,264.5 L 245.4,265.6 L 248.0,266.7 L 250.6,267.8 L 253.2,268.9 L 255.8,269.9 L 258.3,270.9 L 260.9,271.9 L 263.5,272.9 L 266.1,273.9 L 268.7,274.8 L 271.2,275.8 L 273.8,276.7 L 276.4,277.6 L 279.0,278.5 L 281.6,279.4 L 284.1,280.3 L 286.7,281.1 L 289.3,282.0 L 291.9,282.8 L 294.5,283.6 L 297.0,284.4 L 299.6,285.2 L 302.2,286.0 L 304.8,286.8 L 307.4,287.6 L 309.9,288.4 L 312.5,289.1 L 315.1,289.9 L 317.7,290.6 L 320.3,291.3 L 322.8,292.1 L 325.4,292.8 L 328.0,293.5 L 330.6,294.2 L 333.2,294.9 L 335.7,295.6 L 338.3,296.3 L 340.9,296.9 L 343.5,297.6 L 346.1,298.3 L 348.6,298.9 L 351.2,299.6 L 353.8,300.2 L 356.4,300.9 L 358.9,301.5 L 361.5,302.1 L 364.1,302.8 L 366.7,303.4 L 369.3,304.0 L 371.8,304.6 L 374.4,305.2 L 377.0,305.8 L 379.6,306.4 L 382.2,307.0 L 384.7,307.6 L 387.3,308.2 L 389.9,308.8 L 392.5,309.3 L 395.1,309.9 L 397.6,310.5 L 400.2,311.0 L 402.8,311.6 L 405.4,312.1 L 408.0,312.7 L 410.5,313.2 L 413.1,313.8 L 415.7,314.3 L 418.3,314.8 L 420.9,315.4 L 423.4,315.9 L 426.0,316.4 L 428.6,316.9 L 431.2,317.4 L 433.8,317.9 L 436.3,318.5 L 438.9,319.0 L 441.5,319.5 L 444.1,319.9 L 446.7,320.4 L 449.2,320.9 L 451.8,321.4 L 454.4,321.9 L 457.0,322.4 L 459.6,322.9 L 462.1,323.3 L 464.7,323.8 L 467.3,324.3 L 469.9,324.7 L 472.5,325.2 L 475.0,325.6 L 477.6,326.1 L 480.2,326.6 L 482.8,327.0 L 485.4,327.4 L 487.9,327.9 L 490.5,328.3 L 493.1,328.8 L 495.7,329.2 L 498.3,329.6 L 500.8,330.1 L 503.4,330.5 L 506.0,330.9 L 508.6,331.4 L 511.2,331.8 L 513.7,332.2 L 516.3,332.6 L 518.9,333.0 L 521.5,333.4 L 524.1,333.9 L 526.6,334.3 L 529.2,334.7 L 531.8,335.1 L 534.4,335.5 L 537.0,335.9 L 539.5,336.3 L 542.1,336.7 L 544.7,337.1 L 547.3,337.6 L 549.9,338.0 L 552.4,338.4 L 555.0,338.8 L 557.6,339.2 L 560.2,339.6 L 562.8,340.0 L 565.3,340.4 L 567.9,340.8 L 570.5,341.2 L 573.1,341.7 L 575.7,342.1 L 578.2,342.5 L 580.8,342.9 L 583.4,343.3 L 586.0,343.7 L 588.6,344.0 L 591.1,344.4 L 593.7,344.8 L 596.3,345.1 L 598.9,345.5 L 601.5,345.8 L 604.0,346.2 L 606.6,346.5 L 609.2,346.8 L 611.8,347.1 L 614.4,347.4 L 616.9,347.7 L 619.5,347.9 L 622.1,348.2 L 624.7,348.4 L 627.3,348.7 L 629.8,348.9 L 632.4,349.2 L 635.0,349.4" class="sig"/>
<path d="M 75.7,304.6 L 81.3,282.6 L 87.0,268.0 L 92.6,257.7 L 98.2,250.5 L 103.9,245.9 L 109.5,242.8 L 115.2,239.2 L 120.8,235.3 L 126.5,231.1 L 132.2,226.8 L 137.8,222.4 L 143.4,218.1 L 149.1,213.7 L 154.8,209.5 L 160.4,205.2 L 166.1,201.1 L 171.7,197.0 L 177.3,192.9 L 183.0,189.1 L 188.6,185.6 L 194.3,182.6 L 200.0,180.0 L 205.6,177.8 L 211.2,175.8 L 216.9,174.2 L 222.6,172.7 L 228.2,171.2 L 233.8,169.6 L 239.5,168.1 L 245.2,166.5 L 250.8,165.0 L 256.5,163.4 L 262.1,161.8 L 267.8,160.3 L 273.4,158.8 L 279.1,157.2 L 284.7,155.7 L 290.4,154.3 L 296.0,152.8 L 301.6,151.3 L 307.3,149.9 L 312.9,148.5 L 318.6,147.1 L 324.2,145.7 L 329.9,144.4 L 335.6,143.0 L 341.2,141.7 L 346.9,140.4 L 352.5,139.2 L 358.1,137.9 L 363.8,136.7 L 369.4,135.5 L 375.1,134.4 L 380.7,133.2 L 386.4,132.1 L 392.0,131.0 L 397.7,129.9 L 403.4,128.8 L 409.0,127.8 L 414.7,126.8 L 420.3,125.8 L 425.9,124.8 L 431.6,123.9 L 437.2,123.0 L 442.9,122.1 L 448.5,121.2 L 454.2,120.3 L 459.8,119.5 L 465.5,118.7 L 471.1,117.9 L 476.8,117.1 L 482.4,116.4 L 488.1,115.6 L 493.7,114.9 L 499.4,114.2 L 505.1,113.6 L 510.7,112.9 L 516.4,112.3 L 522.0,111.7 L 527.6,111.1 L 533.3,110.6 L 539.0,110.0 L 544.6,109.5 L 550.2,109.0 L 555.9,108.5 L 561.5,108.1 L 567.2,107.6 L 572.8,107.2 L 578.5,107.0 L 584.1,107.0 L 589.8,107.3 L 595.5,107.9 L 601.1,108.7 L 606.8,109.8 L 612.4,111.2 L 618.1,112.5 L 623.7,113.8 L 629.4,115.1 L 635.0,116.3" class="nt"/>
<path d="M 74.7,333.1 L 79.4,309.9 L 84.1,286.3 L 88.8,265.8 L 93.5,249.1 L 98.2,236.5 L 103.0,227.4 L 107.7,221.4 L 112.4,217.5 L 117.1,215.0 L 121.8,213.1 L 126.5,211.1 L 131.2,208.8 L 135.9,206.0 L 140.6,202.5 L 145.3,198.3 L 150.0,193.4 L 154.8,187.9 L 159.5,181.8 L 164.2,175.2 L 168.9,168.1 L 173.6,160.9 L 178.3,153.8 L 183.0,147.2 L 187.7,141.3 L 192.4,136.5 L 197.1,132.8 L 201.8,130.4 L 206.5,129.1 L 211.2,129.0 L 216.0,129.7 L 220.7,131.1 L 225.4,132.8 L 230.1,134.6 L 234.8,136.4 L 239.5,138.1 L 244.2,139.7 L 248.9,141.1 L 253.6,142.3 L 258.3,143.4 L 263.0,144.3 L 267.8,145.1 L 272.5,145.7 L 277.2,146.3 L 281.9,146.8 L 286.6,147.2 L 291.3,147.5 L 296.0,147.8 L 300.7,148.0 L 305.4,148.1 L 310.1,148.3 L 314.8,148.3 L 319.5,148.4 L 324.2,148.4 L 329.0,148.4 L 333.7,148.4 L 338.4,148.3 L 343.1,148.3 L 347.8,148.2 L 352.5,148.1 L 357.2,148.1 L 361.9,148.0 L 366.6,147.9 L 371.3,147.8 L 376.0,147.7 L 380.7,147.6 L 385.5,147.6 L 390.2,147.5 L 394.9,147.4 L 399.6,147.4 L 404.3,147.3 L 409.0,147.2 L 413.7,147.2 L 418.4,147.2 L 423.1,147.1 L 427.8,147.1 L 432.5,147.1 L 437.2,147.1 L 442.0,147.1 L 446.7,147.1 L 451.4,147.1 L 456.1,147.1 L 460.8,147.1 L 465.5,147.1 L 470.2,147.1 L 474.9,147.1 L 479.6,147.1 L 484.3,147.0 L 489.0,147.0 L 493.7,146.9 L 498.5,146.8 L 503.2,146.6 L 507.9,146.4 L 512.6,146.2 L 517.3,145.9 L 522.0,145.4 L 526.7,144.9 L 531.4,144.3 L 536.1,143.6 L 540.8,142.7 L 545.5,141.6 L 550.2,140.4 L 555.0,139.1 L 559.7,137.7 L 564.4,136.5 L 569.1,135.5 L 573.8,135.2 L 578.5,135.6 L 583.2,137.0 L 587.9,139.5 L 592.6,142.9 L 597.3,147.2 L 602.0,152.0 L 606.8,157.2 L 611.5,162.4 L 616.2,167.6 L 620.9,172.6 L 625.6,177.4 L 630.3,181.9 L 635.0,186.1" class="fw"/>
<line x1="76.99143664810863" y1="306.44073874843104" x2="76.99143664810863" y2="331.843284920208" class="err"/>
<line x1="73.99143664810863" y1="306.44073874843104" x2="79.99143664810863" y2="306.44073874843104" class="err"/>
<line x1="73.99143664810863" y1="331.843284920208" x2="79.99143664810863" y2="331.843284920208" class="err"/>
<circle cx="76.99143664810863" cy="319.14201183431953" r="2.5" class="obs"/>
<line x1="90.97430994432591" y1="238.8766361843285" x2="90.97430994432591" y2="277.11941904249596" class="err"/>
<line x1="87.97430994432591" y1="238.8766361843285" x2="93.97430994432591" y2="238.8766361843285" class="err"/>
<line x1="87.97430994432591" y1="277.11941904249596" x2="93.97430994432591" y2="277.11941904249596" class="err"/>
<circle cx="90.97430994432591" cy="257.9980276134122" r="2.5" class="obs"/>
<line x1="104.95718324054317" y1="220.56123363815675" x2="104.95718324054317" y2="245.9637798099337" class="err"/>
<line x1="101.95718324054317" y1="220.56123363815675" x2="107.95718324054317" y2="220.56123363815675" class="err"/>
<line x1="101.95718324054317" y1="245.9637798099337" x2="107.95718324054317" y2="245.9637798099337" class="err"/>
<circle cx="104.95718324054317" cy="233.2625067240452" r="2.5" class="obs"/>
<line x1="118.94005653676044" y1="198.0491303568227" x2="118.94005653676044" y2="223.45167652859965" class="err"/>
<line x1="115.94005653676044" y1="198.0491303568227" x2="121.94005653676044" y2="198.0491303568227" class="err"/>
<line x1="115.94005653676044" y1="223.45167652859965" x2="121.94005653676044" y2="223.45167652859965" class="err"/>
<circle cx="118.94005653676044" cy="210.75040344271116" r="2.5" class="obs"/>
<line x1="132.9229298329777" y1="193.10202617894927" x2="132.9229298329777" y2="223.3960910883988" class="err"/>
<line x1="129.9229298329777" y1="193.10202617894927" x2="135.9229298329777" y2="193.10202617894927" class="err"/>
<line x1="129.9229298329777" y1="223.3960910883988" x2="135.9229298329777" y2="223.3960910883988" class="err"/>
<circle cx="132.9229298329777" cy="208.24905863367405" r="2.5" class="obs"/>
<line x1="146.90580312919496" y1="186.09826071364535" x2="146.90580312919496" y2="211.50080688542232" class="err"/>
<line x1="143.90580312919496" y1="186.09826071364535" x2="149.90580312919496" y2="186.09826071364535" class="err"/>
<line x1="143.90580312919496" y1="211.50080688542232" x2="149.90580312919496" y2="211.50080688542232" class="err"/>
<circle cx="146.90580312919496" cy="198.79953379953386" r="2.5" class="obs"/>
<line x1="160.88867642541223" y1="163.86408463331543" x2="160.88867642541223" y2="189.26663080509238" class="err"/>
<line x1="157.88867642541223" y1="163.86408463331543" x2="163.88867642541223" y2="163.86408463331543" class="err"/>
<line x1="157.88867642541223" y1="189.26663080509238" x2="163.88867642541223" y2="189.26663080509238" class="err"/>
<circle cx="160.88867642541223" cy="176.56535771920392" r="2.5" class="obs"/>
<line x1="174.87154972162952" y1="139.96234534696077" x2="174.87154972162952" y2="165.3648915187377" class="err"/>
<line x1="171.87154972162952" y1="139.96234534696077" x2="177.87154972162952" y2="139.96234534696077" class="err"/>
<line x1="171.87154972162952" y1="165.3648915187377" x2="177.87154972162952" y2="165.3648915187377" class="err"/>
<circle cx="174.87154972162952" cy="152.6636184328492" r="2.5" class="obs"/>
<line x1="188.85442301784678" y1="126.62183969876278" x2="188.85442301784678" y2="152.0243858705398" class="err"/>
<line x1="185.85442301784678" y1="126.62183969876278" x2="191.85442301784678" y2="126.62183969876278" class="err"/>
<line x1="185.85442301784678" y1="152.0243858705398" x2="191.85442301784678" y2="152.0243858705398" class="err"/>
<circle cx="188.85442301784678" cy="139.3231127846513" r="2.5" class="obs"/>
<line x1="202.83729631406402" y1="83.18181818181823" x2="202.83729631406402" y2="189.90586336740185" class="err"/>
<line x1="199.83729631406402" y1="83.18181818181823" x2="205.83729631406402" y2="83.18181818181823" class="err"/>
<line x1="199.83729631406402" y1="189.90586336740185" x2="205.83729631406402" y2="189.90586336740185" class="err"/>
<circle cx="202.83729631406402" cy="136.54384077461006" r="2.5" class="obs"/>
<line x1="216.8201696102813" y1="122.73085888470511" x2="216.8201696102813" y2="148.133405056482" class="err"/>
<line x1="213.8201696102813" y1="122.73085888470511" x2="219.8201696102813" y2="122.73085888470511" class="err"/>
<line x1="213.8201696102813" y1="148.133405056482" x2="219.8201696102813" y2="148.133405056482" class="err"/>
<circle cx="216.8201696102813" cy="135.43213197059356" r="2.5" class="obs"/>
<line x1="230.80304290649855" y1="123.56464048771744" x2="230.80304290649855" y2="148.96718665949442" class="err"/>
<line x1="227.80304290649855" y1="123.56464048771744" x2="233.80304290649855" y2="123.56464048771744" class="err"/>
<line x1="227.80304290649855" y1="148.96718665949442" x2="233.80304290649855" y2="148.96718665949442" class="err"/>
<circle cx="230.80304290649855" cy="136.26591357360593" r="2.5" class="obs"/>
<line x1="244.78591620271584" y1="124.12049488972572" x2="244.78591620271584" y2="149.52304106150262" class="err"/>
<line x1="241.78591620271584" y1="124.12049488972572" x2="247.78591620271584" y2="124.12049488972572" class="err"/>
<line x1="241.78591620271584" y1="149.52304106150262" x2="247.78591620271584" y2="149.52304106150262" class="err"/>
<circle cx="244.78591620271584" cy="136.8217679756142" r="2.5" class="obs"/>
<line x1="277.4126205605561" y1="126.06598529675458" x2="277.4126205605561" y2="151.4685314685315" class="err"/>
<line x1="274.4126205605561" y1="126.06598529675458" x2="280.4126205605561" y2="126.06598529675458" class="err"/>
<line x1="274.4126205605561" y1="151.4685314685315" x2="280.4126205605561" y2="151.4685314685315" class="err"/>
<circle cx="277.4126205605561" cy="138.767258382643" r="2.5" class="obs"/>
<line x1="314.7002826838022" y1="131.90245651784116" x2="314.7002826838022" y2="157.30500268961816" class="err"/>
<line x1="311.7002826838022" y1="131.90245651784116" x2="317.7002826838022" y2="131.90245651784116" class="err"/>
<line x1="311.7002826838022" y1="157.30500268961816" x2="317.7002826838022" y2="157.30500268961816" class="err"/>
<circle cx="314.7002826838022" cy="144.60372960372968" r="2.5" class="obs"/>
<line x1="350.4342922185796" y1="134.1258741258742" x2="350.4342922185796" y2="159.5284202976511" class="err"/>
<line x1="347.4342922185796" y1="134.1258741258742" x2="353.4342922185796" y2="134.1258741258742" class="err"/>
<line x1="347.4342922185796" y1="159.5284202976511" x2="353.4342922185796" y2="159.5284202976511" class="err"/>
<circle cx="350.4342922185796" cy="146.82714721176262" r="2.5" class="obs"/>
<line x1="383.83782287065424" y1="134.9596557288865" x2="383.83782287065424" y2="160.36220190066348" class="err"/>
<line x1="380.83782287065424" y1="134.9596557288865" x2="386.83782287065424" y2="134.9596557288865" class="err"/>
<line x1="380.83782287065424" y1="160.36220190066348" x2="386.83782287065424" y2="160.36220190066348" class="err"/>
<circle cx="383.83782287065424" cy="147.66092881477502" r="2.5" class="obs"/>
<line x1="418.79500611119744" y1="135.23758292989072" x2="418.79500611119744" y2="160.64012910166758" class="err"/>
<line x1="415.79500611119744" y1="135.23758292989072" x2="421.79500611119744" y2="135.23758292989072" class="err"/>
<line x1="415.79500611119744" y1="160.64012910166758" x2="421.79500611119744" y2="160.64012910166758" class="err"/>
<circle cx="418.79500611119744" cy="147.93885601577915" r="2.5" class="obs"/>
<line x1="452.9753630575063" y1="134.9596557288865" x2="452.9753630575063" y2="160.36220190066348" class="err"/>
<line x1="449.9753630575063" y1="134.9596557288865" x2="455.9753630575063" y2="134.9596557288865" class="err"/>
<line x1="449.9753630575063" y1="160.36220190066348" x2="455.9753630575063" y2="160.36220190066348" class="err"/>
<circle cx="452.9753630575063" cy="147.66092881477502" r="2.5" class="obs"/>
<line x1="487.93254629804943" y1="134.6817285278824" x2="487.93254629804943" y2="160.08427469965937" class="err"/>
<line x1="484.93254629804943" y1="134.6817285278824" x2="490.93254629804943" y2="134.6817285278824" class="err"/>
<line x1="484.93254629804943" y1="160.08427469965937" x2="490.93254629804943" y2="160.08427469965937" class="err"/>
<circle cx="487.93254629804943" cy="147.3830016137709" r="2.5" class="obs"/>
<line x1="525.2202084212955" y1="133.8479469248701" x2="525.2202084212955" y2="159.250493096647" class="err"/>
<line x1="522.2202084212955" y1="133.8479469248701" x2="528.2202084212955" y2="133.8479469248701" class="err"/>
<line x1="522.2202084212955" y1="159.250493096647" x2="528.2202084212955" y2="159.250493096647" class="err"/>
<circle cx="525.2202084212955" cy="146.54922001075852" r="2.5" class="obs"/>
<line x1="557.8469127791358" y1="133.0141653218577" x2="557.8469127791358" y2="158.41671149363458" class="err"/>
<line x1="554.8469127791358" y1="133.0141653218577" x2="560.8469127791358" y2="133.0141653218577" class="err"/>
<line x1="554.8469127791358" y1="158.41671149363458" x2="560.8469127791358" y2="158.41671149363458" class="err"/>
<circle cx="557.8469127791358" cy="145.71543840774615" r="2.5" class="obs"/>
<line x1="593.5809223139132" y1="131.34660211583292" x2="593.5809223139132" y2="156.74914828760984" class="err"/>
<line x1="590.5809223139132" y1="131.34660211583292" x2="596.5809223139132" y2="131.34660211583292" class="err"/>
<line x1="590.5809223139132" y1="156.74914828760984" x2="596.5809223139132" y2="156.74914828760984" class="err"/>
<circle cx="593.5809223139132" cy="144.04787520172138" r="2.5" class="obs"/>
<g class="legend">
<line x1="82" y1="69" x2="106" y2="69" class="fw"/>
<text x="112" y="73" class="lbl-l">framework fit</text>
<line x1="82" y1="87" x2="106" y2="87" class="nt"/>
<text x="112" y="91" class="lbl-l">Newtonian (no halo)</text>
<circle cx="94" cy="105" r="2.5" class="obs"/>
<text x="112" y="109" class="lbl">observed V±err</text>
</g>
<g class="legend">
<line x1="460" y1="69" x2="484" y2="69" class="rho"/>
<text x="490" y="73" class="lbl-r">ρ(r) raw</text>
<line x1="460" y1="87" x2="484" y2="87" class="sig"/>
<text x="490" y="91" class="lbl-r">Σ(r) smoothed</text>
<text x="460" y="113" class="lbl-r">ρ peak: 515 M☉/pc²</text>
</g>
</svg>