<svg xmlns="http://www.w3.org/2000/svg" viewBox="0 0 890 420" width="890" height="420" font-family="sans-serif" font-size="12">
<style>
  .ax { stroke: #333; stroke-width: 1; fill: none; }
  .grid { stroke: #ddd; stroke-width: 0.5; fill: none; }
  .lbl { fill: #333; }
  .lbl-l { fill: #0066cc; }
  .lbl-r { fill: #b03030; }
  .obs { fill: #222; }
  .err { stroke: #555; stroke-width: 0.8; fill: none; }
  .fw { stroke: #0066cc; stroke-width: 2.2; fill: none; }
  .nt { stroke: #cc6600; stroke-width: 1.6; fill: none; stroke-dasharray: 5,3; }
  .lbl-s { fill: #cc7000; }
  .rho { stroke: #b03030; stroke-width: 2.0; fill: none; }
  .sig { stroke: #cc7000; stroke-width: 1.8; fill: none; }
  .title { fill: #111; font-size: 16px; font-weight: 600; }
  .subtitle { fill: #555; font-size: 11px; }
  .preview-bg { fill: #000; }
  .preview-lbl { fill: #888; font-size: 10px; }
  .legend { font-size: 11px; }
</style>
<text x="343.5" y="22" text-anchor="middle" class="title">UGC00891</text>
<text x="343.5" y="38" text-anchor="middle" class="subtitle">rMax=7.4 kpc, N=5, RMS=0.7 km/s (1.5%), amp=104</text>
<line x1="70" y1="365.0" x2="617" y2="365.0" class="grid"/>
<text x="64" y="369.0" text-anchor="end" class="lbl-l">0</text>
<line x1="70" y1="303.0" x2="617" y2="303.0" class="grid"/>
<text x="64" y="307.0" text-anchor="end" class="lbl-l">14</text>
<line x1="70" y1="241.0" x2="617" y2="241.0" class="grid"/>
<text x="64" y="245.0" text-anchor="end" class="lbl-l">29</text>
<line x1="70" y1="179.0" x2="617" y2="179.0" class="grid"/>
<text x="64" y="183.0" text-anchor="end" class="lbl-l">43</text>
<line x1="70" y1="117.0" x2="617" y2="117.0" class="grid"/>
<text x="64" y="121.0" text-anchor="end" class="lbl-l">57</text>
<line x1="70" y1="55.0" x2="617" y2="55.0" class="grid"/>
<text x="64" y="59.0" text-anchor="end" class="lbl-l">72</text>
<text x="623" y="369.0" text-anchor="start" class="lbl-r">0.0</text>
<text x="623" y="327.7" text-anchor="start" class="lbl-r">0.2</text>
<text x="623" y="286.3" text-anchor="start" class="lbl-r">0.4</text>
<text x="623" y="245.0" text-anchor="start" class="lbl-r">0.6</text>
<text x="623" y="203.7" text-anchor="start" class="lbl-r">0.8</text>
<text x="623" y="162.3" text-anchor="start" class="lbl-r">1.0</text>
<line x1="70.0" y1="55" x2="70.0" y2="365" class="grid"/>
<text x="70.0" y="381" text-anchor="middle" class="lbl">0.0</text>
<line x1="161.2" y1="55" x2="161.2" y2="365" class="grid"/>
<text x="161.2" y="381" text-anchor="middle" class="lbl">1.3</text>
<line x1="252.3" y1="55" x2="252.3" y2="365" class="grid"/>
<text x="252.3" y="381" text-anchor="middle" class="lbl">2.6</text>
<line x1="343.5" y1="55" x2="343.5" y2="365" class="grid"/>
<text x="343.5" y="381" text-anchor="middle" class="lbl">3.9</text>
<line x1="434.7" y1="55" x2="434.7" y2="365" class="grid"/>
<text x="434.7" y="381" text-anchor="middle" class="lbl">5.2</text>
<line x1="525.8" y1="55" x2="525.8" y2="365" class="grid"/>
<text x="525.8" y="381" text-anchor="middle" class="lbl">6.5</text>
<line x1="617.0" y1="55" x2="617.0" y2="365" class="grid"/>
<text x="617.0" y="381" text-anchor="middle" class="lbl">7.8</text>
<text x="343.5" y="408" text-anchor="middle" class="lbl">radius (kpc)</text>
<text x="16" y="210" text-anchor="middle" class="lbl-l" transform="rotate(-90, 16, 210)">velocity (km/s)</text>
<text x="874" y="210" text-anchor="middle" class="lbl-r" transform="rotate(-90, 874, 210)">mass profile (normalized to peak)</text>
<rect x="70" y="55" width="547" height="310" class="ax"/>
<path d="M 70.0,158.3 L 72.5,161.1 L 75.0,163.8 L 77.5,166.5 L 80.0,169.2 L 82.5,171.9 L 85.0,173.6 L 87.5,175.2 L 90.0,176.7 L 92.5,178.2 L 95.0,179.8 L 97.5,181.3 L 100.0,182.9 L 102.5,184.4 L 105.0,185.9 L 107.5,187.5 L 110.0,189.0 L 112.5,190.6 L 115.0,192.1 L 117.5,193.6 L 120.0,195.2 L 122.5,196.7 L 124.9,198.3 L 127.4,199.8 L 129.9,201.3 L 132.4,202.9 L 134.9,204.4 L 137.4,206.0 L 139.9,207.5 L 142.4,207.9 L 144.9,207.9 L 147.4,207.9 L 149.9,207.9 L 152.4,207.9 L 154.9,207.9 L 157.4,207.9 L 159.9,207.9 L 162.4,207.9 L 164.9,207.9 L 167.4,207.9 L 169.9,207.9 L 172.4,207.9 L 174.9,207.9 L 177.4,207.9 L 179.9,207.9 L 182.4,207.9 L 184.9,207.9 L 187.4,207.9 L 189.9,207.9 L 192.4,207.9 L 194.9,207.9 L 197.4,207.9 L 199.9,207.9 L 202.4,207.9 L 204.9,207.9 L 207.4,207.9 L 209.9,207.9 L 212.4,207.9 L 214.9,208.0 L 217.4,208.5 L 219.9,209.0 L 222.4,209.5 L 224.9,210.0 L 227.4,210.5 L 229.9,211.0 L 232.4,211.5 L 234.8,212.0 L 237.3,212.5 L 239.8,213.0 L 242.3,213.5 L 244.8,214.0 L 247.3,214.5 L 249.8,215.0 L 252.3,215.5 L 254.8,216.1 L 257.3,216.6 L 259.8,217.1 L 262.3,217.6 L 264.8,218.1 L 267.3,218.6 L 269.8,219.1 L 272.3,219.6 L 274.8,220.1 L 277.3,220.6 L 279.8,221.1 L 282.3,221.6 L 284.8,222.1 L 287.3,222.6 L 289.8,223.1 L 292.3,223.6 L 294.8,224.1 L 297.3,224.6 L 299.8,225.2 L 302.3,225.7 L 304.8,226.2 L 307.3,226.7 L 309.8,227.2 L 312.3,227.7 L 314.8,228.2 L 317.3,228.7 L 319.8,229.2 L 322.3,229.7 L 324.8,230.2 L 327.3,230.7 L 329.8,231.2 L 332.3,231.7 L 334.8,232.2 L 337.3,232.7 L 339.8,233.2 L 342.3,233.7 L 344.7,234.3 L 347.2,234.8 L 349.7,235.3 L 352.2,235.8 L 354.7,236.3 L 357.2,236.8 L 359.7,237.3 L 362.2,237.8 L 364.7,238.3 L 367.2,238.8 L 369.7,239.3 L 372.2,239.8 L 374.7,240.3 L 377.2,240.8 L 379.7,241.3 L 382.2,241.8 L 384.7,242.3 L 387.2,242.8 L 389.7,243.4 L 392.2,243.9 L 394.7,244.4 L 397.2,244.9 L 399.7,245.4 L 402.2,245.9 L 404.7,246.4 L 407.2,246.9 L 409.7,247.4 L 412.2,247.9 L 414.7,248.4 L 417.2,248.9 L 419.7,249.4 L 422.2,249.9 L 424.7,250.4 L 427.2,250.9 L 429.7,251.4 L 432.2,251.9 L 434.7,252.5 L 437.2,253.0 L 439.7,253.5 L 442.2,254.0 L 444.7,254.5 L 447.2,255.0 L 449.7,255.5 L 452.2,256.0 L 454.6,256.5 L 457.1,257.0 L 459.6,257.5 L 462.1,258.0 L 464.6,258.5 L 467.1,259.0 L 469.6,259.5 L 472.1,260.0 L 474.6,260.5 L 477.1,261.0 L 479.6,261.6 L 482.1,262.1 L 484.6,262.6 L 487.1,263.1 L 489.6,263.6 L 492.1,264.1 L 494.6,264.6 L 497.1,265.1 L 499.6,265.6 L 502.1,266.1 L 504.6,266.6 L 507.1,267.1 L 509.6,267.6 L 512.1,268.1 L 514.6,268.6 L 517.1,269.1 L 519.6,269.6 L 522.1,270.1 L 524.6,270.7 L 527.1,271.2 L 529.6,271.7 L 532.1,272.2 L 534.6,272.7 L 537.1,273.2 L 539.6,273.7 L 542.1,274.2 L 544.6,274.7 L 547.1,275.2 L 549.6,275.7 L 552.1,276.2 L 554.6,276.7 L 557.1,277.2 L 559.6,277.7 L 562.1,279.7 L 564.5,287.1 L 567.0,294.5 L 569.5,301.8 L 572.0,309.2 L 574.5,316.6 L 577.0,323.9 L 579.5,331.3 L 582.0,338.7 L 584.5,346.0 L 587.0,353.4 L 589.5,360.8 L 592.0,365.0 L 594.5,365.0 L 597.0,365.0 L 599.5,365.0 L 602.0,365.0 L 604.5,365.0 L 607.0,365.0 L 609.5,365.0 L 612.0,365.0 L 614.5,365.0 L 617.0,365.0" class="rho"/>
<path d="M 70.0,158.3 L 72.5,158.4 L 75.0,158.5 L 77.5,158.7 L 80.0,158.8 L 82.5,159.1 L 85.0,159.4 L 87.5,159.8 L 90.0,160.2 L 92.5,160.6 L 95.0,161.1 L 97.5,161.6 L 100.0,162.1 L 102.5,162.6 L 105.0,163.2 L 107.5,163.8 L 110.0,164.5 L 112.5,165.1 L 115.0,165.7 L 117.5,166.4 L 120.0,167.1 L 122.5,167.7 L 124.9,168.4 L 127.4,169.1 L 129.9,169.8 L 132.4,170.4 L 134.9,171.1 L 137.4,171.7 L 139.9,172.4 L 142.4,173.0 L 144.9,173.6 L 147.4,174.2 L 149.9,174.8 L 152.4,175.4 L 154.9,176.0 L 157.4,176.6 L 159.9,177.2 L 162.4,177.7 L 164.9,178.3 L 167.4,178.9 L 169.9,179.4 L 172.4,180.0 L 174.9,180.6 L 177.4,181.1 L 179.9,181.7 L 182.4,182.3 L 184.9,182.9 L 187.4,183.5 L 189.9,184.1 L 192.4,184.7 L 194.9,185.3 L 197.4,185.9 L 199.9,186.5 L 202.4,187.2 L 204.9,187.8 L 207.4,188.5 L 209.9,189.2 L 212.4,189.9 L 214.9,190.6 L 217.4,191.3 L 219.9,192.0 L 222.4,192.8 L 224.9,193.5 L 227.4,194.3 L 229.9,195.1 L 232.4,195.9 L 234.8,196.7 L 237.3,197.5 L 239.8,198.3 L 242.3,199.2 L 244.8,200.0 L 247.3,200.8 L 249.8,201.7 L 252.3,202.6 L 254.8,203.4 L 257.3,204.3 L 259.8,205.2 L 262.3,206.1 L 264.8,207.0 L 267.3,207.9 L 269.8,208.8 L 272.3,209.7 L 274.8,210.6 L 277.3,211.5 L 279.8,212.4 L 282.3,213.4 L 284.8,214.3 L 287.3,215.2 L 289.8,216.2 L 292.3,217.1 L 294.8,218.0 L 297.3,219.0 L 299.8,219.9 L 302.3,220.8 L 304.8,221.8 L 307.3,222.7 L 309.8,223.7 L 312.3,224.6 L 314.8,225.6 L 317.3,226.5 L 319.8,227.5 L 322.3,228.4 L 324.8,229.4 L 327.3,230.3 L 329.8,231.3 L 332.3,232.3 L 334.8,233.2 L 337.3,234.2 L 339.8,235.1 L 342.3,236.1 L 344.7,237.0 L 347.2,238.0 L 349.7,238.9 L 352.2,239.9 L 354.7,240.8 L 357.2,241.8 L 359.7,242.7 L 362.2,243.7 L 364.7,244.6 L 367.2,245.6 L 369.7,246.5 L 372.2,247.4 L 374.7,248.4 L 377.2,249.3 L 379.7,250.3 L 382.2,251.2 L 384.7,252.1 L 387.2,253.1 L 389.7,254.0 L 392.2,254.9 L 394.7,255.9 L 397.2,256.8 L 399.7,257.7 L 402.2,258.6 L 404.7,259.6 L 407.2,260.5 L 409.7,261.4 L 412.2,262.3 L 414.7,263.2 L 417.2,264.1 L 419.7,265.0 L 422.2,266.0 L 424.7,266.9 L 427.2,267.8 L 429.7,268.7 L 432.2,269.6 L 434.7,270.5 L 437.2,271.4 L 439.7,272.3 L 442.2,273.1 L 444.7,274.0 L 447.2,274.9 L 449.7,275.8 L 452.2,276.7 L 454.6,277.6 L 457.1,278.5 L 459.6,279.3 L 462.1,280.2 L 464.6,281.1 L 467.1,282.0 L 469.6,282.8 L 472.1,283.7 L 474.6,284.6 L 477.1,285.5 L 479.6,286.3 L 482.1,287.2 L 484.6,288.1 L 487.1,288.9 L 489.6,289.8 L 492.1,290.7 L 494.6,291.5 L 497.1,292.4 L 499.6,293.3 L 502.1,294.1 L 504.6,295.0 L 507.1,295.9 L 509.6,296.8 L 512.1,297.6 L 514.6,298.5 L 517.1,299.4 L 519.6,300.3 L 522.1,301.2 L 524.6,302.0 L 527.1,302.9 L 529.6,303.8 L 532.1,304.7 L 534.6,305.7 L 537.1,306.6 L 539.6,307.5 L 542.1,308.4 L 544.6,309.4 L 547.1,310.3 L 549.6,311.3 L 552.1,312.3 L 554.6,313.3 L 557.1,314.2 L 559.6,315.2 L 562.1,316.2 L 564.5,317.2 L 567.0,318.2 L 569.5,319.2 L 572.0,320.2 L 574.5,321.1 L 577.0,322.1 L 579.5,323.0 L 582.0,323.9 L 584.5,324.7 L 587.0,325.6 L 589.5,326.4 L 592.0,327.2 L 594.5,327.9 L 597.0,328.7 L 599.5,329.4 L 602.0,330.0 L 604.5,330.7 L 607.0,331.3 L 609.5,331.9 L 612.0,332.5 L 614.5,333.1 L 617.0,333.6" class="sig"/>
<path d="M 75.5,328.0 L 80.9,313.1 L 86.4,302.1 L 91.9,292.8 L 97.3,284.8 L 102.8,277.8 L 108.3,271.3 L 113.8,265.5 L 119.2,260.1 L 124.7,255.2 L 130.2,250.5 L 135.6,246.2 L 141.1,242.2 L 146.6,238.3 L 152.1,234.4 L 157.5,230.7 L 163.0,227.0 L 168.5,223.4 L 173.9,219.9 L 179.4,216.4 L 184.9,213.0 L 190.3,209.6 L 195.8,206.3 L 201.3,203.1 L 206.8,200.0 L 212.2,196.8 L 217.7,193.8 L 223.2,190.8 L 228.6,187.9 L 234.1,185.1 L 239.6,182.4 L 245.0,179.7 L 250.5,177.2 L 256.0,174.6 L 261.5,172.2 L 266.9,169.8 L 272.4,167.4 L 277.9,165.2 L 283.3,162.9 L 288.8,160.7 L 294.3,158.6 L 299.7,156.5 L 305.2,154.5 L 310.7,152.5 L 316.1,150.6 L 321.6,148.7 L 327.1,146.8 L 332.6,145.0 L 338.0,143.2 L 343.5,141.4 L 349.0,139.7 L 354.4,138.0 L 359.9,136.4 L 365.4,134.8 L 370.9,133.2 L 376.3,131.7 L 381.8,130.2 L 387.3,128.7 L 392.7,127.2 L 398.2,125.8 L 403.7,124.4 L 409.1,123.1 L 414.6,121.8 L 420.1,120.5 L 425.6,119.2 L 431.0,117.9 L 436.5,116.7 L 442.0,115.5 L 447.4,114.4 L 452.9,113.2 L 458.4,112.1 L 463.8,111.0 L 469.3,109.9 L 474.8,108.9 L 480.3,107.9 L 485.7,106.9 L 491.2,105.9 L 496.7,105.0 L 502.1,104.1 L 507.6,103.1 L 513.1,102.3 L 518.5,101.4 L 524.0,100.6 L 529.5,99.8 L 535.0,99.0 L 540.4,98.2 L 545.9,97.4 L 551.4,96.7 L 556.8,96.0 L 562.3,95.3 L 567.8,94.9 L 573.2,94.9 L 578.7,95.2 L 584.2,95.9 L 589.7,97.0 L 595.1,98.4 L 600.6,99.8 L 606.1,101.2 L 611.5,102.6 L 617.0,103.8" class="nt"/>
<path d="M 74.6,354.2 L 79.1,346.2 L 83.7,337.5 L 88.2,329.1 L 92.8,321.3 L 97.3,314.0 L 101.9,307.3 L 106.5,301.2 L 111.0,295.6 L 115.6,290.7 L 120.1,286.3 L 124.7,282.6 L 129.3,279.5 L 133.8,277.0 L 138.4,274.9 L 142.9,273.2 L 147.5,271.7 L 152.1,270.1 L 156.6,268.6 L 161.2,266.7 L 165.7,264.7 L 170.3,262.4 L 174.8,259.8 L 179.4,257.0 L 184.0,253.9 L 188.5,250.5 L 193.1,246.9 L 197.6,243.0 L 202.2,238.9 L 206.8,234.6 L 211.3,230.2 L 215.9,225.8 L 220.4,221.3 L 225.0,217.0 L 229.5,212.7 L 234.1,208.7 L 238.7,204.8 L 243.2,201.0 L 247.8,197.4 L 252.3,194.0 L 256.9,190.6 L 261.4,187.5 L 266.0,184.4 L 270.6,181.4 L 275.1,178.6 L 279.7,175.8 L 284.2,173.2 L 288.8,170.6 L 293.4,168.1 L 297.9,165.7 L 302.5,163.4 L 307.0,161.1 L 311.6,158.9 L 316.1,156.8 L 320.7,154.8 L 325.3,152.8 L 329.8,150.8 L 334.4,149.0 L 338.9,147.2 L 343.5,145.4 L 348.1,143.7 L 352.6,142.0 L 357.2,140.4 L 361.7,138.9 L 366.3,137.3 L 370.9,135.9 L 375.4,134.4 L 380.0,133.1 L 384.5,131.7 L 389.1,130.4 L 393.6,129.1 L 398.2,127.9 L 402.8,126.7 L 407.3,125.5 L 411.9,124.3 L 416.4,123.2 L 421.0,122.1 L 425.6,121.0 L 430.1,120.0 L 434.7,118.9 L 439.2,117.9 L 443.8,116.8 L 448.3,115.8 L 452.9,114.7 L 457.5,113.7 L 462.0,112.6 L 466.6,111.5 L 471.1,110.4 L 475.7,109.3 L 480.3,108.1 L 484.8,106.8 L 489.4,105.5 L 493.9,104.1 L 498.5,102.5 L 503.0,100.9 L 507.6,99.1 L 512.2,97.1 L 516.7,95.0 L 521.3,92.6 L 525.8,89.9 L 530.4,87.0 L 535.0,83.7 L 539.5,80.2 L 544.1,76.5 L 548.6,72.8 L 553.2,69.2 L 557.7,66.4 L 562.3,64.6 L 566.9,64.2 L 571.4,65.8 L 576.0,69.1 L 580.5,74.3 L 585.1,80.7 L 589.7,88.1 L 594.2,95.9 L 598.8,103.9 L 603.3,111.7 L 607.9,119.2 L 612.4,126.3 L 617.0,132.9" class="fw"/>
<line x1="173.47" y1="247.34" x2="173.47" y2="272.54" class="err"/>
<line x1="170.47" y1="247.34" x2="176.47" y2="247.34" class="err"/>
<line x1="170.47" y1="272.54" x2="176.47" y2="272.54" class="err"/>
<circle cx="173.47" cy="259.94" r="2.5" class="obs"/>
<line x1="277.65" y1="171.06" x2="277.65" y2="183.14" class="err"/>
<line x1="274.65" y1="171.06" x2="280.65" y2="171.06" class="err"/>
<line x1="274.65" y1="183.14" x2="280.65" y2="183.14" class="err"/>
<circle cx="277.65" cy="177.10" r="2.5" class="obs"/>
<line x1="381.12" y1="128.47" x2="381.12" y2="134.25" class="err"/>
<line x1="378.12" y1="128.47" x2="384.12" y2="128.47" class="err"/>
<line x1="378.12" y1="134.25" x2="384.12" y2="134.25" class="err"/>
<circle cx="381.12" cy="131.36" r="2.5" class="obs"/>
<line x1="485.30" y1="103.40" x2="485.30" y2="107.55" class="err"/>
<line x1="482.30" y1="103.40" x2="488.30" y2="103.40" class="err"/>
<line x1="482.30" y1="107.55" x2="488.30" y2="107.55" class="err"/>
<circle cx="485.30" cy="105.48" r="2.5" class="obs"/>
<line x1="586.68" y1="85.84" x2="586.68" y2="94.04" class="err"/>
<line x1="583.68" y1="85.84" x2="589.68" y2="85.84" class="err"/>
<line x1="583.68" y1="94.04" x2="589.68" y2="94.04" class="err"/>
<circle cx="586.68" cy="89.94" r="2.5" class="obs"/>
<g class="legend">
<line x1="82" y1="69" x2="106" y2="69" class="fw"/>
<text x="112" y="73" class="lbl-l">framework fit</text>
<line x1="82" y1="87" x2="106" y2="87" class="nt"/>
<text x="112" y="91" class="lbl-l">Newtonian (no halo)</text>
<circle cx="94" cy="105" r="2.5" class="obs"/>
<text x="112" y="109" class="lbl">observed V±err</text>
</g>
<g class="legend">
<line x1="442" y1="69" x2="466" y2="69" class="rho"/>
<text x="472" y="73" class="lbl-r">ρ(r) raw</text>
<line x1="442" y1="87" x2="466" y2="87" class="sig"/>
<text x="472" y="91" class="lbl-s">Σ(r) cumulative</text>
<text x="442" y="113" class="lbl-r">ρ peak: 71 M☉/pc²</text>
</g>
<rect x="705" y="55" width="170" height="170" class="preview-bg"/>
<defs><radialGradient id="g_UGC00891" cx="0.5" cy="0.5" r="0.5">
  <stop offset="0.0000" stop-color="rgb(147,36.75,36.75)"/>
  <stop offset="0.0313" stop-color="rgb(140,35,35)"/>
  <stop offset="0.0625" stop-color="rgb(135,33.75,33.75)"/>
  <stop offset="0.0938" stop-color="rgb(130,32.5,32.5)"/>
  <stop offset="0.1250" stop-color="rgb(125,31.25,31.25)"/>
  <stop offset="0.1563" stop-color="rgb(124,31,31)"/>
  <stop offset="0.1875" stop-color="rgb(124,31,31)"/>
  <stop offset="0.2188" stop-color="rgb(124,31,31)"/>
  <stop offset="0.2500" stop-color="rgb(124,31,31)"/>
  <stop offset="0.2813" stop-color="rgb(124,31,31)"/>
  <stop offset="0.3125" stop-color="rgb(122,30.5,30.5)"/>
  <stop offset="0.3438" stop-color="rgb(121,30.25,30.25)"/>
  <stop offset="0.3750" stop-color="rgb(119,29.75,29.75)"/>
  <stop offset="0.4063" stop-color="rgb(118,29.5,29.5)"/>
  <stop offset="0.4375" stop-color="rgb(116,29,29)"/>
  <stop offset="0.4688" stop-color="rgb(114,28.5,28.5)"/>
  <stop offset="0.5000" stop-color="rgb(113,28.25,28.25)"/>
  <stop offset="0.5313" stop-color="rgb(111,27.75,27.75)"/>
  <stop offset="0.5625" stop-color="rgb(110,27.5,27.5)"/>
  <stop offset="0.5938" stop-color="rgb(108,27,27)"/>
  <stop offset="0.6250" stop-color="rgb(107,26.75,26.75)"/>
  <stop offset="0.6563" stop-color="rgb(105,26.25,26.25)"/>
  <stop offset="0.6875" stop-color="rgb(104,26,26)"/>
  <stop offset="0.7188" stop-color="rgb(102,25.5,25.5)"/>
  <stop offset="0.7500" stop-color="rgb(100,25,25)"/>
  <stop offset="0.7813" stop-color="rgb(99,24.75,24.75)"/>
  <stop offset="0.8125" stop-color="rgb(97,24.25,24.25)"/>
  <stop offset="0.8438" stop-color="rgb(96,24,24)"/>
  <stop offset="0.8750" stop-color="rgb(94,23.5,23.5)"/>
  <stop offset="0.9063" stop-color="rgb(93,23.25,23.25)"/>
  <stop offset="0.9375" stop-color="rgb(91,22.75,22.75)"/>
  <stop offset="0.9688" stop-color="rgb(73,18.25,18.25)"/>
  <stop offset="1.0000" stop-color="rgb(0,0,0)"/>
</radialGradient></defs>
<circle cx="790" cy="140" r="81" fill="url(#g_UGC00891)"/>
<text x="790" y="49" text-anchor="middle" class="preview-lbl">face-on luminance from ρ(r)</text>
<text x="790" y="239" text-anchor="middle" class="preview-lbl">edge at r = 7.5 kpc</text>
</svg>