<svg xmlns="http://www.w3.org/2000/svg" viewBox="0 0 890 420" width="890" height="420" font-family="sans-serif" font-size="12">
<style>
  .ax { stroke: #333; stroke-width: 1; fill: none; }
  .grid { stroke: #ddd; stroke-width: 0.5; fill: none; }
  .lbl { fill: #333; }
  .lbl-l { fill: #0066cc; }
  .lbl-r { fill: #b03030; }
  .lbl-s { fill: #cc7000; }
  .obs { fill: #222; }
  .err { stroke: #555; stroke-width: 0.8; fill: none; }
  .fw { stroke: #0066cc; stroke-width: 2.2; fill: none; }
  .nt { stroke: #cc6600; stroke-width: 1.6; fill: none; stroke-dasharray: 5,3; }
  .rho { stroke: #b03030; stroke-width: 2.0; fill: none; }
  .sig { stroke: #cc7000; stroke-width: 1.8; fill: none; }
  .title { fill: #111; font-size: 16px; font-weight: 600; }
  .subtitle { fill: #555; font-size: 11px; }
  .legend { font-size: 11px; }
  .preview-bg { fill: #000; }
  .preview-lbl { fill: #888; font-size: 10px; }
</style>
<text x="343.5" y="22" text-anchor="middle" class="title">UGC03205</text>
<text x="343.5" y="38" text-anchor="middle" class="subtitle">rMax=40.0 kpc, N=48, RMS=16.2 km/s (7.5%), amp=1351</text>
<line x1="70" y1="365.0" x2="617" y2="365.0" class="grid"/>
<text x="64" y="369.0" text-anchor="end" class="lbl-l">0</text>
<line x1="70" y1="303.0" x2="617" y2="303.0" class="grid"/>
<text x="64" y="307.0" text-anchor="end" class="lbl-l">59</text>
<line x1="70" y1="241.0" x2="617" y2="241.0" class="grid"/>
<text x="64" y="245.0" text-anchor="end" class="lbl-l">117</text>
<line x1="70" y1="179.0" x2="617" y2="179.0" class="grid"/>
<text x="64" y="183.0" text-anchor="end" class="lbl-l">176</text>
<line x1="70" y1="116.99999999999999" x2="617" y2="116.99999999999999" class="grid"/>
<text x="64" y="120.99999999999999" text-anchor="end" class="lbl-l">235</text>
<line x1="70" y1="55.0" x2="617" y2="55.0" class="grid"/>
<text x="64" y="59.0" text-anchor="end" class="lbl-l">294</text>
<text x="623" y="369.0" text-anchor="start" class="lbl-r">0.0</text>
<text x="623" y="327.6666666666667" text-anchor="start" class="lbl-r">0.2</text>
<text x="623" y="286.33333333333337" text-anchor="start" class="lbl-r">0.4</text>
<text x="623" y="245.00000000000003" text-anchor="start" class="lbl-r">0.6</text>
<text x="623" y="203.66666666666666" text-anchor="start" class="lbl-r">0.8</text>
<text x="623" y="162.33333333333334" text-anchor="start" class="lbl-r">1.0</text>
<line x1="70.0" y1="55" x2="70.0" y2="365" class="grid"/>
<text x="70.0" y="381" text-anchor="middle" class="lbl">0.0</text>
<line x1="161.16666666666666" y1="55" x2="161.16666666666666" y2="365" class="grid"/>
<text x="161.16666666666666" y="381" text-anchor="middle" class="lbl">7.7</text>
<line x1="252.33333333333331" y1="55" x2="252.33333333333331" y2="365" class="grid"/>
<text x="252.33333333333331" y="381" text-anchor="middle" class="lbl">15.3</text>
<line x1="343.50000000000006" y1="55" x2="343.50000000000006" y2="365" class="grid"/>
<text x="343.50000000000006" y="381" text-anchor="middle" class="lbl">23.0</text>
<line x1="434.66666666666663" y1="55" x2="434.66666666666663" y2="365" class="grid"/>
<text x="434.66666666666663" y="381" text-anchor="middle" class="lbl">30.7</text>
<line x1="525.8333333333334" y1="55" x2="525.8333333333334" y2="365" class="grid"/>
<text x="525.8333333333334" y="381" text-anchor="middle" class="lbl">38.3</text>
<line x1="617.0000000000001" y1="55" x2="617.0000000000001" y2="365" class="grid"/>
<text x="617.0000000000001" y="381" text-anchor="middle" class="lbl">46.0</text>
<text x="343.5" y="397" text-anchor="middle" class="lbl">radius (kpc)</text>
<text x="16" y="210.0" text-anchor="middle" class="lbl-l" transform="rotate(-90, 16, 210.0)">velocity (km/s)</text>
<text x="661" y="210.0" text-anchor="middle" class="lbl-r" transform="rotate(-90, 661, 210.0)">mass profile (normalized to peak)</text>
<rect x="70" y="55" width="547" height="310" class="ax"/>
<path d="M 70.0,158.3 L 72.5,163.4 L 75.0,168.4 L 77.5,173.4 L 80.0,178.5 L 82.5,183.5 L 85.0,188.5 L 87.5,193.6 L 90.0,198.6 L 92.5,203.7 L 95.0,208.7 L 97.5,213.7 L 100.0,218.8 L 102.5,223.8 L 105.0,228.8 L 107.5,233.9 L 110.0,238.9 L 112.5,243.9 L 115.0,249.0 L 117.5,252.7 L 120.0,253.8 L 122.5,254.9 L 124.9,255.9 L 127.4,257.0 L 129.9,258.1 L 132.4,259.1 L 134.9,260.2 L 137.4,261.3 L 139.9,262.3 L 142.4,263.4 L 144.9,264.5 L 147.4,265.5 L 149.9,266.6 L 152.4,267.7 L 154.9,268.3 L 157.4,268.9 L 159.9,269.5 L 162.4,270.1 L 164.9,270.7 L 167.4,271.3 L 169.9,271.9 L 172.4,272.5 L 174.9,273.1 L 177.4,273.7 L 179.9,274.3 L 182.4,274.9 L 184.9,275.5 L 187.4,276.1 L 189.9,276.7 L 192.4,277.3 L 194.9,277.9 L 197.4,278.5 L 199.9,279.1 L 202.4,279.7 L 204.9,280.3 L 207.4,280.9 L 209.9,281.5 L 212.4,282.1 L 214.9,282.7 L 217.4,283.3 L 219.9,283.9 L 222.4,284.5 L 224.9,285.1 L 227.4,285.7 L 229.9,286.3 L 232.4,286.9 L 234.8,287.5 L 237.3,288.0 L 239.8,288.2 L 242.3,288.5 L 244.8,288.8 L 247.3,289.1 L 249.8,289.4 L 252.3,289.7 L 254.8,289.9 L 257.3,290.2 L 259.8,290.5 L 262.3,290.8 L 264.8,291.1 L 267.3,291.3 L 269.8,291.6 L 272.3,291.9 L 274.8,292.2 L 277.3,292.5 L 279.8,292.8 L 282.3,293.0 L 284.8,293.3 L 287.3,293.6 L 289.8,293.9 L 292.3,294.2 L 294.8,294.4 L 297.3,294.7 L 299.8,295.0 L 302.3,295.3 L 304.8,295.6 L 307.3,295.8 L 309.8,296.1 L 312.3,296.4 L 314.8,296.7 L 317.3,297.0 L 319.8,297.3 L 322.3,297.5 L 324.8,297.8 L 327.3,298.1 L 329.8,298.4 L 332.3,298.7 L 334.8,298.9 L 337.3,299.2 L 339.8,299.5 L 342.3,299.8 L 344.7,300.1 L 347.2,300.4 L 349.7,300.6 L 352.2,300.9 L 354.7,301.2 L 357.2,301.5 L 359.7,301.8 L 362.2,302.0 L 364.7,302.3 L 367.2,302.6 L 369.7,302.9 L 372.2,303.2 L 374.7,303.5 L 377.2,303.7 L 379.7,304.0 L 382.2,304.3 L 384.7,304.6 L 387.2,304.9 L 389.7,305.1 L 392.2,305.4 L 394.7,305.7 L 397.2,306.0 L 399.7,306.3 L 402.2,306.6 L 404.7,306.8 L 407.2,307.1 L 409.7,307.4 L 412.2,307.7 L 414.7,308.0 L 417.2,308.2 L 419.7,308.5 L 422.2,308.8 L 424.7,309.1 L 427.2,309.4 L 429.7,309.7 L 432.2,309.9 L 434.7,310.2 L 437.2,310.5 L 439.7,310.8 L 442.2,311.1 L 444.7,311.3 L 447.2,311.6 L 449.7,311.9 L 452.2,312.2 L 454.6,312.5 L 457.1,312.7 L 459.6,313.0 L 462.1,313.3 L 464.6,313.6 L 467.1,313.9 L 469.6,314.2 L 472.1,314.4 L 474.6,314.7 L 477.1,315.0 L 479.6,315.3 L 482.1,315.6 L 484.6,315.8 L 487.1,316.1 L 489.6,316.4 L 492.1,316.7 L 494.6,317.0 L 497.1,317.3 L 499.6,317.5 L 502.1,317.8 L 504.6,318.1 L 507.1,318.4 L 509.6,318.7 L 512.1,318.9 L 514.6,319.2 L 517.1,319.5 L 519.6,319.8 L 522.1,320.1 L 524.6,320.4 L 527.1,320.6 L 529.6,320.9 L 532.1,321.2 L 534.6,321.5 L 537.1,321.8 L 539.6,322.0 L 542.1,322.3 L 544.6,322.6 L 547.1,322.9 L 549.6,323.2 L 552.1,323.5 L 554.6,323.7 L 557.1,324.0 L 559.6,324.3 L 562.1,324.6 L 564.5,324.9 L 567.0,325.1 L 569.5,325.4 L 572.0,325.7 L 574.5,326.0 L 577.0,326.3 L 579.5,329.4 L 582.0,337.2 L 584.5,345.0 L 587.0,352.8 L 589.5,360.6 L 592.0,365.0 L 594.5,365.0 L 597.0,365.0 L 599.5,365.0 L 602.0,365.0 L 604.5,365.0 L 607.0,365.0 L 609.5,365.0 L 612.0,365.0 L 614.5,365.0 L 617.0,365.0" class="rho"/>
<path d="M 70.0,158.3 L 72.5,159.1 L 75.0,160.3 L 77.5,161.9 L 80.0,164.1 L 82.5,166.7 L 85.0,169.7 L 87.5,173.0 L 90.0,176.5 L 92.5,180.3 L 95.0,184.1 L 97.5,188.1 L 100.0,192.1 L 102.5,196.1 L 105.0,200.1 L 107.5,204.0 L 110.0,207.8 L 112.5,211.5 L 115.0,215.0 L 117.5,218.3 L 120.0,221.4 L 122.5,224.4 L 124.9,227.1 L 127.4,229.8 L 129.9,232.3 L 132.4,234.7 L 134.9,237.0 L 137.4,239.2 L 139.9,241.4 L 142.4,243.4 L 144.9,245.4 L 147.4,247.3 L 149.9,249.2 L 152.4,251.0 L 154.9,252.7 L 157.4,254.3 L 159.9,256.0 L 162.4,257.5 L 164.9,259.1 L 167.4,260.6 L 169.9,262.0 L 172.4,263.4 L 174.9,264.8 L 177.4,266.2 L 179.9,267.5 L 182.4,268.8 L 184.9,270.1 L 187.4,271.3 L 189.9,272.6 L 192.4,273.8 L 194.9,275.0 L 197.4,276.2 L 199.9,277.3 L 202.4,278.5 L 204.9,279.6 L 207.4,280.7 L 209.9,281.8 L 212.4,282.8 L 214.9,283.9 L 217.4,284.9 L 219.9,285.9 L 222.4,286.9 L 224.9,287.9 L 227.4,288.8 L 229.9,289.8 L 232.4,290.7 L 234.8,291.5 L 237.3,292.4 L 239.8,293.2 L 242.3,294.1 L 244.8,294.9 L 247.3,295.6 L 249.8,296.4 L 252.3,297.1 L 254.8,297.9 L 257.3,298.6 L 259.8,299.3 L 262.3,300.0 L 264.8,300.6 L 267.3,301.3 L 269.8,302.0 L 272.3,302.6 L 274.8,303.3 L 277.3,303.9 L 279.8,304.5 L 282.3,305.1 L 284.8,305.7 L 287.3,306.3 L 289.8,306.9 L 292.3,307.5 L 294.8,308.1 L 297.3,308.7 L 299.8,309.3 L 302.3,309.8 L 304.8,310.4 L 307.3,310.9 L 309.8,311.5 L 312.3,312.0 L 314.8,312.6 L 317.3,313.1 L 319.8,313.6 L 322.3,314.2 L 324.8,314.7 L 327.3,315.2 L 329.8,315.7 L 332.3,316.2 L 334.8,316.7 L 337.3,317.3 L 339.8,317.7 L 342.3,318.2 L 344.7,318.7 L 347.2,319.2 L 349.7,319.7 L 352.2,320.2 L 354.7,320.7 L 357.2,321.1 L 359.7,321.6 L 362.2,322.1 L 364.7,322.5 L 367.2,323.0 L 369.7,323.4 L 372.2,323.9 L 374.7,324.3 L 377.2,324.8 L 379.7,325.2 L 382.2,325.7 L 384.7,326.1 L 387.2,326.5 L 389.7,327.0 L 392.2,327.4 L 394.7,327.8 L 397.2,328.2 L 399.7,328.7 L 402.2,329.1 L 404.7,329.5 L 407.2,329.9 L 409.7,330.3 L 412.2,330.7 L 414.7,331.1 L 417.2,331.5 L 419.7,331.9 L 422.2,332.3 L 424.7,332.7 L 427.2,333.0 L 429.7,333.4 L 432.2,333.8 L 434.7,334.2 L 437.2,334.5 L 439.7,334.9 L 442.2,335.3 L 444.7,335.6 L 447.2,336.0 L 449.7,336.4 L 452.2,336.7 L 454.6,337.1 L 457.1,337.4 L 459.6,337.8 L 462.1,338.1 L 464.6,338.5 L 467.1,338.8 L 469.6,339.1 L 472.1,339.5 L 474.6,339.8 L 477.1,340.1 L 479.6,340.5 L 482.1,340.8 L 484.6,341.1 L 487.1,341.4 L 489.6,341.8 L 492.1,342.1 L 494.6,342.4 L 497.1,342.7 L 499.6,343.0 L 502.1,343.3 L 504.6,343.6 L 507.1,343.9 L 509.6,344.2 L 512.1,344.5 L 514.6,344.8 L 517.1,345.1 L 519.6,345.4 L 522.1,345.7 L 524.6,346.0 L 527.1,346.3 L 529.6,346.6 L 532.1,346.9 L 534.6,347.2 L 537.1,347.5 L 539.6,347.8 L 542.1,348.0 L 544.6,348.3 L 547.1,348.6 L 549.6,348.9 L 552.1,349.2 L 554.6,349.5 L 557.1,349.8 L 559.6,350.2 L 562.1,350.5 L 564.5,350.8 L 567.0,351.1 L 569.5,351.5 L 572.0,351.8 L 574.5,352.2 L 577.0,352.5 L 579.5,352.9 L 582.0,353.3 L 584.5,353.6 L 587.0,353.9 L 589.5,354.3 L 592.0,354.6 L 594.5,354.9 L 597.0,355.1 L 599.5,355.4 L 602.0,355.6 L 604.5,355.8 L 607.0,356.0 L 609.5,356.2 L 612.0,356.4 L 614.5,356.6 L 617.0,356.8" class="sig"/>
<path d="M 75.5,310.6 L 80.9,289.4 L 86.4,274.3 L 91.9,262.3 L 97.3,252.6 L 102.8,244.6 L 108.3,237.9 L 113.8,232.4 L 119.2,227.8 L 124.7,223.4 L 130.2,219.0 L 135.6,214.9 L 141.1,210.9 L 146.6,207.0 L 152.1,203.4 L 157.5,199.8 L 163.0,196.4 L 168.5,193.0 L 173.9,189.8 L 179.4,186.6 L 184.9,183.6 L 190.3,180.6 L 195.8,177.7 L 201.3,174.9 L 206.8,172.3 L 212.2,169.7 L 217.7,167.1 L 223.2,164.7 L 228.6,162.4 L 234.1,160.1 L 239.6,157.9 L 245.0,155.8 L 250.5,153.6 L 256.0,151.5 L 261.4,149.5 L 266.9,147.4 L 272.4,145.4 L 277.9,143.5 L 283.3,141.5 L 288.8,139.6 L 294.3,137.8 L 299.7,135.9 L 305.2,134.1 L 310.7,132.4 L 316.1,130.6 L 321.6,128.9 L 327.1,127.3 L 332.6,125.6 L 338.0,124.0 L 343.5,122.4 L 349.0,120.9 L 354.4,119.4 L 359.9,117.9 L 365.4,116.4 L 370.8,115.0 L 376.3,113.6 L 381.8,112.2 L 387.3,110.9 L 392.7,109.6 L 398.2,108.3 L 403.7,107.0 L 409.1,105.8 L 414.6,104.6 L 420.1,103.4 L 425.5,102.3 L 431.0,101.1 L 436.5,100.0 L 442.0,99.0 L 447.4,97.9 L 452.9,96.9 L 458.4,95.9 L 463.8,94.9 L 469.3,94.0 L 474.8,93.1 L 480.2,92.2 L 485.7,91.3 L 491.2,90.4 L 496.7,89.6 L 502.1,88.8 L 507.6,88.0 L 513.1,87.3 L 518.5,86.5 L 524.0,85.8 L 529.5,85.1 L 535.0,84.5 L 540.4,83.8 L 545.9,83.2 L 551.4,82.6 L 556.8,82.0 L 562.3,81.5 L 567.8,81.0 L 573.2,80.4 L 578.7,80.0 L 584.2,79.9 L 589.7,80.7 L 595.1,82.2 L 600.6,83.7 L 606.1,85.2 L 611.5,86.6 L 617.0,87.9" class="nt"/>
<path d="M 74.6,313.3 L 79.1,275.6 L 83.7,238.8 L 88.2,206.6 L 92.8,179.5 L 97.3,157.3 L 101.9,139.9 L 106.5,127.6 L 111.0,120.4 L 115.6,117.8 L 120.1,118.4 L 124.7,120.1 L 129.3,121.8 L 133.8,122.6 L 138.4,123.0 L 142.9,123.2 L 147.5,123.6 L 152.1,124.3 L 156.6,125.0 L 161.2,125.6 L 165.7,125.7 L 170.3,125.6 L 174.8,125.0 L 179.4,124.4 L 184.0,123.6 L 188.5,122.8 L 193.1,122.0 L 197.6,121.3 L 202.2,120.7 L 206.8,120.2 L 211.3,120.0 L 215.9,120.1 L 220.4,120.6 L 225.0,121.5 L 229.5,123.0 L 234.1,125.1 L 238.7,127.5 L 243.2,129.8 L 247.8,131.9 L 252.3,133.5 L 256.9,134.7 L 261.4,135.6 L 266.0,136.2 L 270.6,136.6 L 275.1,136.9 L 279.7,137.0 L 284.2,137.0 L 288.8,136.9 L 293.4,136.8 L 297.9,136.6 L 302.5,136.3 L 307.0,136.1 L 311.6,135.8 L 316.1,135.4 L 320.7,135.1 L 325.3,134.8 L 329.8,134.4 L 334.4,134.1 L 338.9,133.8 L 343.5,133.5 L 348.1,133.2 L 352.6,132.9 L 357.2,132.6 L 361.7,132.4 L 366.3,132.1 L 370.8,131.9 L 375.4,131.8 L 380.0,131.6 L 384.5,131.5 L 389.1,131.4 L 393.6,131.3 L 398.2,131.2 L 402.8,131.2 L 407.3,131.2 L 411.9,131.2 L 416.4,131.2 L 421.0,131.3 L 425.6,131.4 L 430.1,131.5 L 434.7,131.6 L 439.2,131.8 L 443.8,132.0 L 448.3,132.2 L 452.9,132.4 L 457.5,132.6 L 462.0,132.9 L 466.6,133.1 L 471.1,133.4 L 475.7,133.6 L 480.2,133.9 L 484.8,134.1 L 489.4,134.4 L 493.9,134.6 L 498.5,134.8 L 503.0,134.9 L 507.6,135.0 L 512.2,135.0 L 516.7,134.8 L 521.3,134.6 L 525.8,134.2 L 530.4,133.5 L 535.0,132.5 L 539.5,131.2 L 544.1,129.2 L 548.6,126.6 L 553.2,123.1 L 557.7,118.5 L 562.3,112.9 L 566.9,106.5 L 571.4,100.4 L 576.0,96.4 L 580.5,96.1 L 585.1,100.8 L 589.7,109.8 L 594.2,122.1 L 598.8,135.5 L 603.3,148.3 L 607.9,160.0 L 612.4,170.1 L 617.0,178.8" class="fw"/>
<line x1="73.33000333000334" y1="220.1865252115455" x2="73.33000333000334" y2="283.9382298560255" class="err"/>
<line x1="70.33000333000334" y1="220.1865252115455" x2="76.33000333000334" y2="220.1865252115455" class="err"/>
<line x1="70.33000333000334" y1="283.9382298560255" x2="76.33000333000334" y2="283.9382298560255" class="err"/>
<circle cx="73.33000333000334" cy="252.06237753378545" r="2.5" class="obs"/>
<line x1="76.5410779696494" y1="220.81982029079526" x2="76.5410779696494" y2="253.75116441178494" class="err"/>
<line x1="73.5410779696494" y1="220.81982029079526" x2="79.5410779696494" y2="220.81982029079526" class="err"/>
<line x1="73.5410779696494" y1="253.75116441178494" x2="79.5410779696494" y2="253.75116441178494" class="err"/>
<circle cx="76.5410779696494" cy="237.2854923512901" r="2.5" class="obs"/>
<line x1="79.87108129965273" y1="214.3918752364098" x2="79.87108129965273" y2="232.736322698679" class="err"/>
<line x1="76.87108129965273" y1="214.3918752364098" x2="82.87108129965273" y2="214.3918752364098" class="err"/>
<line x1="76.87108129965273" y1="232.736322698679" x2="82.87108129965273" y2="232.736322698679" class="err"/>
<circle cx="79.87108129965273" cy="223.5640989675444" r="2.5" class="obs"/>
<line x1="86.53108795965939" y1="186.09414011193115" x2="86.53108795965939" y2="212.48143508067287" class="err"/>
<line x1="83.53108795965939" y1="186.09414011193115" x2="89.53108795965939" y2="186.09414011193115" class="err"/>
<line x1="83.53108795965939" y1="212.48143508067287" x2="89.53108795965939" y2="212.48143508067287" class="err"/>
<circle cx="86.53108795965939" cy="199.28778759630202" r="2.5" class="obs"/>
<line x1="89.6232339089482" y1="175.32812376468456" x2="89.6232339089482" y2="200.02663185542679" class="err"/>
<line x1="86.6232339089482" y1="175.32812376468456" x2="92.6232339089482" y2="175.32812376468456" class="err"/>
<line x1="86.6232339089482" y1="200.02663185542679" x2="92.6232339089482" y2="200.02663185542679" class="err"/>
<circle cx="89.6232339089482" cy="187.6773778100557" r="2.5" class="obs"/>
<line x1="106.15432186860758" y1="138.02704359687127" x2="106.15432186860758" y2="154.99935172076596" class="err"/>
<line x1="103.15432186860758" y1="138.02704359687127" x2="109.15432186860758" y2="138.02704359687127" class="err"/>
<line x1="103.15432186860758" y1="154.99935172076596" x2="109.15432186860758" y2="154.99935172076596" class="err"/>
<circle cx="106.15432186860758" cy="146.51319765881857" r="2.5" class="obs"/>
<line x1="109.4843251986109" y1="133.28788542048525" x2="109.4843251986109" y2="147.07260831215592" class="err"/>
<line x1="106.4843251986109" y1="133.28788542048525" x2="112.4843251986109" y2="133.28788542048525" class="err"/>
<line x1="106.4843251986109" y1="147.07260831215592" x2="112.4843251986109" y2="147.07260831215592" class="err"/>
<circle cx="109.4843251986109" cy="140.1802468663206" r="2.5" class="obs"/>
<line x1="112.69539983825698" y1="123.08127972657596" x2="112.69539983825698" y2="146.72429601856854" class="err"/>
<line x1="109.69539983825698" y1="123.08127972657596" x2="115.69539983825698" y2="123.08127972657596" class="err"/>
<line x1="109.69539983825698" y1="146.72429601856854" x2="115.69539983825698" y2="146.72429601856854" class="err"/>
<circle cx="112.69539983825698" cy="134.90278787257222" r="2.5" class="obs"/>
<line x1="116.02540316826031" y1="124.29509529513807" x2="116.02540316826031" y2="137.06654606000907" class="err"/>
<line x1="113.02540316826031" y1="124.29509529513807" x2="119.02540316826031" y2="124.29509529513807" class="err"/>
<line x1="113.02540316826031" y1="137.06654606000907" x2="119.02540316826031" y2="137.06654606000907" class="err"/>
<circle cx="116.02540316826031" cy="130.6808206775736" r="2.5" class="obs"/>
<line x1="119.35540649826365" y1="120.74864285133921" x2="119.35540649826365" y2="132.1690641138106" class="err"/>
<line x1="116.35540649826365" y1="120.74864285133921" x2="122.35540649826365" y2="120.74864285133921" class="err"/>
<line x1="116.35540649826365" y1="132.1690641138106" x2="122.35540649826365" y2="132.1690641138106" class="err"/>
<circle cx="119.35540649826365" cy="126.45885348257491" r="2.5" class="obs"/>
<line x1="122.68540982826697" y1="117.00164696577787" x2="122.68540982826697" y2="129.58310920687393" class="err"/>
<line x1="119.68540982826697" y1="117.00164696577787" x2="125.68540982826697" y2="117.00164696577787" class="err"/>
<line x1="119.68540982826697" y1="129.58310920687393" x2="125.68540982826697" y2="129.58310920687393" class="err"/>
<circle cx="122.68540982826697" cy="123.29237808632587" r="2.5" class="obs"/>
<line x1="125.89648446791304" y1="112.30470846134185" x2="125.89648446791304" y2="127.94709691881194" class="err"/>
<line x1="122.89648446791304" y1="112.30470846134185" x2="128.89648446791304" y2="112.30470846134185" class="err"/>
<line x1="122.89648446791304" y1="127.94709691881194" x2="128.89648446791304" y2="127.94709691881194" class="err"/>
<circle cx="125.89648446791304" cy="120.12590269007687" r="2.5" class="obs"/>
<line x1="129.1075591075591" y1="111.57641912020456" x2="129.1075591075591" y2="124.45341906495051" class="err"/>
<line x1="126.1075591075591" y1="111.57641912020456" x2="132.1075591075591" y2="111.57641912020456" class="err"/>
<line x1="126.1075591075591" y1="124.45341906495051" x2="132.1075591075591" y2="124.45341906495051" class="err"/>
<circle cx="129.1075591075591" cy="118.01491909257756" r="2.5" class="obs"/>
<line x1="132.43756243756243" y1="112.85356419669168" x2="132.43756243756243" y2="121.06529039096408" class="err"/>
<line x1="129.43756243756243" y1="112.85356419669168" x2="135.43756243756243" y2="112.85356419669168" class="err"/>
<line x1="129.43756243756243" y1="121.06529039096408" x2="135.43756243756243" y2="121.06529039096408" class="err"/>
<circle cx="132.43756243756243" cy="116.95942729382787" r="2.5" class="obs"/>
<line x1="135.6486370772085" y1="106.37284455236872" x2="135.6486370772085" y2="125.43502643778771" class="err"/>
<line x1="132.6486370772085" y1="106.37284455236872" x2="138.6486370772085" y2="106.37284455236872" class="err"/>
<line x1="132.6486370772085" y1="125.43502643778771" x2="138.6486370772085" y2="125.43502643778771" class="err"/>
<circle cx="135.6486370772085" cy="115.9039354950782" r="2.5" class="obs"/>
<line x1="138.97864040721183" y1="104.29352570883185" x2="138.97864040721183" y2="125.40336168382524" class="err"/>
<line x1="135.97864040721183" y1="104.29352570883185" x2="141.97864040721183" y2="104.29352570883185" class="err"/>
<line x1="135.97864040721183" y1="125.40336168382524" x2="141.97864040721183" y2="125.40336168382524" class="err"/>
<circle cx="138.97864040721183" cy="114.84844369632856" r="2.5" class="obs"/>
<line x1="142.30864373721516" y1="107.08002405753098" x2="142.30864373721516" y2="122.61686333512614" class="err"/>
<line x1="139.30864373721516" y1="107.08002405753098" x2="145.30864373721516" y2="107.08002405753098" class="err"/>
<line x1="139.30864373721516" y1="122.61686333512614" x2="145.30864373721516" y2="122.61686333512614" class="err"/>
<circle cx="142.30864373721516" cy="114.84844369632856" r="2.5" class="obs"/>
<line x1="145.6386470672185" y1="104.08242734908193" x2="145.6386470672185" y2="125.61446004357515" class="err"/>
<line x1="142.6386470672185" y1="104.08242734908193" x2="148.6386470672185" y2="104.08242734908193" class="err"/>
<line x1="142.6386470672185" y1="125.61446004357515" x2="148.6386470672185" y2="125.61446004357515" class="err"/>
<circle cx="145.6386470672185" cy="114.84844369632856" r="2.5" class="obs"/>
<line x1="148.84972170686456" y1="104.92682078808166" x2="148.84972170686456" y2="126.88105020207477" class="err"/>
<line x1="145.84972170686456" y1="104.92682078808166" x2="151.84972170686456" y2="104.92682078808166" class="err"/>
<line x1="145.84972170686456" y1="126.88105020207477" x2="151.84972170686456" y2="126.88105020207477" class="err"/>
<circle cx="148.84972170686456" cy="115.9039354950782" r="2.5" class="obs"/>
<line x1="152.1797250368679" y1="109.75041830836764" x2="152.1797250368679" y2="122.0574526817888" class="err"/>
<line x1="149.1797250368679" y1="109.75041830836764" x2="155.1797250368679" y2="109.75041830836764" class="err"/>
<line x1="149.1797250368679" y1="122.0574526817888" x2="155.1797250368679" y2="122.0574526817888" class="err"/>
<circle cx="152.1797250368679" cy="115.9039354950782" r="2.5" class="obs"/>
<line x1="155.50972836687123" y1="111.22810682661716" x2="155.50972836687123" y2="122.69074776103858" class="err"/>
<line x1="152.50972836687123" y1="111.22810682661716" x2="158.50972836687123" y2="111.22810682661716" class="err"/>
<line x1="152.50972836687123" y1="122.69074776103858" x2="158.50972836687123" y2="122.69074776103858" class="err"/>
<circle cx="155.50972836687123" cy="116.95942729382787" r="2.5" class="obs"/>
<line x1="156.4611578897293" y1="109.19100765503029" x2="156.4611578897293" y2="126.83883053012478" class="err"/>
<line x1="153.4611578897293" y1="109.19100765503029" x2="159.4611578897293" y2="109.19100765503029" class="err"/>
<line x1="153.4611578897293" y1="126.83883053012478" x2="159.4611578897293" y2="126.83883053012478" class="err"/>
<circle cx="156.4611578897293" cy="118.01491909257756" r="2.5" class="obs"/>
<line x1="158.7208030065173" y1="109.69764371843016" x2="158.7208030065173" y2="126.33219446672491" class="err"/>
<line x1="155.7208030065173" y1="109.69764371843016" x2="161.7208030065173" y2="109.69764371843016" class="err"/>
<line x1="155.7208030065173" y1="126.33219446672491" x2="161.7208030065173" y2="126.33219446672491" class="err"/>
<circle cx="158.7208030065173" cy="118.01491909257756" r="2.5" class="obs"/>
<line x1="165.38080966652393" y1="112.55802649304177" x2="165.38080966652393" y2="129.80476248461133" class="err"/>
<line x1="162.38080966652393" y1="112.55802649304177" x2="168.38080966652393" y2="112.55802649304177" class="err"/>
<line x1="162.38080966652393" y1="129.80476248461133" x2="168.38080966652393" y2="129.80476248461133" class="err"/>
<circle cx="165.38080966652393" cy="121.18139448882656" r="2.5" class="obs"/>
<line x1="168.59188430617002" y1="117.14941581760283" x2="168.59188430617002" y2="129.43534035504896" class="err"/>
<line x1="165.59188430617002" y1="117.14941581760283" x2="171.59188430617002" y2="117.14941581760283" class="err"/>
<line x1="165.59188430617002" y1="129.43534035504896" x2="171.59188430617002" y2="129.43534035504896" class="err"/>
<circle cx="168.59188430617002" cy="123.29237808632587" r="2.5" class="obs"/>
<line x1="171.8029589458161" y1="116.73777401609044" x2="171.8029589458161" y2="131.95796575406067" class="err"/>
<line x1="168.8029589458161" y1="116.73777401609044" x2="174.8029589458161" y2="116.73777401609044" class="err"/>
<line x1="168.8029589458161" y1="131.95796575406067" x2="174.8029589458161" y2="131.95796575406067" class="err"/>
<circle cx="171.8029589458161" cy="124.34786988507555" r="2.5" class="obs"/>
<line x1="175.1329622758194" y1="107.24890274533092" x2="175.1329622758194" y2="145.66880421981887" class="err"/>
<line x1="172.1329622758194" y1="107.24890274533092" x2="178.1329622758194" y2="107.24890274533092" class="err"/>
<line x1="172.1329622758194" y1="145.66880421981887" x2="178.1329622758194" y2="145.66880421981887" class="err"/>
<circle cx="175.1329622758194" cy="126.45885348257491" r="2.5" class="obs"/>
<line x1="178.46296560582272" y1="118.95430679346472" x2="178.46296560582272" y2="138.18536736668375" class="err"/>
<line x1="175.46296560582272" y1="118.95430679346472" x2="181.46296560582272" y2="118.95430679346472" class="err"/>
<line x1="175.46296560582272" y1="138.18536736668375" x2="181.46296560582272" y2="138.18536736668375" class="err"/>
<circle cx="178.46296560582272" cy="128.56983708007425" r="2.5" class="obs"/>
<line x1="185.24190095618667" y1="125.8677780752751" x2="185.24190095618667" y2="137.60484687737141" class="err"/>
<line x1="182.24190095618667" y1="125.8677780752751" x2="188.24190095618667" y2="125.8677780752751" class="err"/>
<line x1="182.24190095618667" y1="137.60484687737141" x2="188.24190095618667" y2="137.60484687737141" class="err"/>
<circle cx="185.24190095618667" cy="131.73631247632323" r="2.5" class="obs"/>
<line x1="214.022644022644" y1="133.62564279608512" x2="214.022644022644" y2="140.401900144058" class="err"/>
<line x1="211.022644022644" y1="133.62564279608512" x2="217.022644022644" y2="133.62564279608512" class="err"/>
<line x1="211.022644022644" y1="140.401900144058" x2="217.022644022644" y2="140.401900144058" class="err"/>
<circle cx="214.022644022644" cy="137.0137714700716" r="2.5" class="obs"/>
<line x1="243.39803054088767" y1="130.79692477543608" x2="243.39803054088767" y2="134.78668377470976" class="err"/>
<line x1="240.39803054088767" y1="130.79692477543608" x2="246.39803054088767" y2="130.79692477543608" class="err"/>
<line x1="240.39803054088767" y1="134.78668377470976" x2="246.39803054088767" y2="134.78668377470976" class="err"/>
<circle cx="243.39803054088767" cy="132.7918042750729" r="2.5" class="obs"/>
<line x1="244.58731744446027" y1="124.70673709665046" x2="244.58731744446027" y2="140.87687145349537" class="err"/>
<line x1="241.58731744446027" y1="124.70673709665046" x2="247.58731744446027" y2="124.70673709665046" class="err"/>
<line x1="241.58731744446027" y1="140.87687145349537" x2="247.58731744446027" y2="140.87687145349537" class="err"/>
<circle cx="244.58731744446027" cy="132.7918042750729" r="2.5" class="obs"/>
<line x1="250.77160934303788" y1="121.68803055222638" x2="250.77160934303788" y2="141.78459440042008" class="err"/>
<line x1="247.77160934303788" y1="121.68803055222638" x2="253.77160934303788" y2="121.68803055222638" class="err"/>
<line x1="247.77160934303788" y1="141.78459440042008" x2="253.77160934303788" y2="141.78459440042008" class="err"/>
<circle cx="250.77160934303788" cy="131.73631247632323" r="2.5" class="obs"/>
<line x1="254.33947005375575" y1="117.38162401332774" x2="254.33947005375575" y2="146.09100093931872" class="err"/>
<line x1="251.33947005375575" y1="117.38162401332774" x2="257.33947005375575" y2="117.38162401332774" class="err"/>
<line x1="251.33947005375575" y1="146.09100093931872" x2="257.33947005375575" y2="146.09100093931872" class="err"/>
<circle cx="254.33947005375575" cy="131.73631247632323" r="2.5" class="obs"/>
<line x1="256.83697255125827" y1="123.13405431651344" x2="256.83697255125827" y2="140.33857063613306" class="err"/>
<line x1="253.83697255125827" y1="123.13405431651344" x2="259.83697255125827" y2="123.13405431651344" class="err"/>
<line x1="253.83697255125827" y1="140.33857063613306" x2="259.83697255125827" y2="140.33857063613306" class="err"/>
<circle cx="256.83697255125827" cy="131.73631247632323" r="2.5" class="obs"/>
<line x1="260.52376195233336" y1="127.39824118346208" x2="260.52376195233336" y2="136.07438376918438" class="err"/>
<line x1="257.52376195233336" y1="127.39824118346208" x2="263.52376195233336" y2="127.39824118346208" class="err"/>
<line x1="257.52376195233336" y1="136.07438376918438" x2="263.52376195233336" y2="136.07438376918438" class="err"/>
<circle cx="260.52376195233336" cy="131.73631247632323" r="2.5" class="obs"/>
<line x1="264.0916226630512" y1="126.06832151703753" x2="264.0916226630512" y2="137.40430343560897" class="err"/>
<line x1="261.0916226630512" y1="126.06832151703753" x2="267.0916226630512" y2="126.06832151703753" class="err"/>
<line x1="261.0916226630512" y1="137.40430343560897" x2="267.0916226630512" y2="137.40430343560897" class="err"/>
<circle cx="264.0916226630512" cy="131.73631247632323" r="2.5" class="obs"/>
<line x1="266.58912516055375" y1="126.39552397464992" x2="266.58912516055375" y2="137.07710097799657" class="err"/>
<line x1="263.58912516055375" y1="126.39552397464992" x2="269.58912516055375" y2="126.39552397464992" class="err"/>
<line x1="263.58912516055375" y1="137.07710097799657" x2="269.58912516055375" y2="137.07710097799657" class="err"/>
<circle cx="266.58912516055375" cy="131.73631247632323" r="2.5" class="obs"/>
<line x1="270.27591456162884" y1="119.703705970577" x2="270.27591456162884" y2="143.76891898206947" class="err"/>
<line x1="267.27591456162884" y1="119.703705970577" x2="273.27591456162884" y2="119.703705970577" class="err"/>
<line x1="267.27591456162884" y1="143.76891898206947" x2="273.27591456162884" y2="143.76891898206947" class="err"/>
<circle cx="270.27591456162884" cy="131.73631247632323" r="2.5" class="obs"/>
<line x1="271.46520146520146" y1="129.0342534715241" x2="271.46520146520146" y2="134.4383714811224" class="err"/>
<line x1="268.46520146520146" y1="129.0342534715241" x2="274.46520146520146" y2="129.0342534715241" class="err"/>
<line x1="268.46520146520146" y1="134.4383714811224" x2="274.46520146520146" y2="134.4383714811224" class="err"/>
<circle cx="271.46520146520146" cy="131.73631247632323" r="2.5" class="obs"/>
<line x1="300.7216592930878" y1="133.10845181469782" x2="300.7216592930878" y2="136.69712393044668" class="err"/>
<line x1="297.7216592930878" y1="133.10845181469782" x2="303.7216592930878" y2="133.10845181469782" class="err"/>
<line x1="297.7216592930878" y1="136.69712393044668" x2="303.7216592930878" y2="136.69712393044668" class="err"/>
<circle cx="300.7216592930878" cy="134.90278787257222" r="2.5" class="obs"/>
<line x1="328.9077589077589" y1="135.82106573748447" x2="328.9077589077589" y2="138.2064772026587" class="err"/>
<line x1="325.9077589077589" y1="135.82106573748447" x2="331.9077589077589" y2="135.82106573748447" class="err"/>
<line x1="325.9077589077589" y1="138.2064772026587" x2="331.9077589077589" y2="138.2064772026587" class="err"/>
<circle cx="328.9077589077589" cy="137.0137714700716" r="2.5" class="obs"/>
<line x1="358.16421673564525" y1="136.20104278503436" x2="358.16421673564525" y2="139.93748375260816" class="err"/>
<line x1="355.16421673564525" y1="136.20104278503436" x2="361.16421673564525" y2="136.20104278503436" class="err"/>
<line x1="355.16421673564525" y1="139.93748375260816" x2="361.16421673564525" y2="139.93748375260816" class="err"/>
<circle cx="358.16421673564525" cy="138.06926326882126" r="2.5" class="obs"/>
<line x1="387.4206745635317" y1="138.62867392215855" x2="387.4206745635317" y2="143.84280340798193" class="err"/>
<line x1="384.4206745635317" y1="138.62867392215855" x2="390.4206745635317" y2="138.62867392215855" class="err"/>
<line x1="384.4206745635317" y1="143.84280340798193" x2="390.4206745635317" y2="143.84280340798193" class="err"/>
<circle cx="387.4206745635317" cy="141.23573866507027" r="2.5" class="obs"/>
<line x1="415.6067741782027" y1="143.9377976698694" x2="415.6067741782027" y2="146.97761405026844" class="err"/>
<line x1="412.6067741782027" y1="143.9377976698694" x2="418.6067741782027" y2="143.9377976698694" class="err"/>
<line x1="412.6067741782027" y1="146.97761405026844" x2="418.6067741782027" y2="146.97761405026844" class="err"/>
<circle cx="415.6067741782027" cy="145.45770586006893" r="2.5" class="obs"/>
<line x1="444.8632320060891" y1="141.36239768092022" x2="444.8632320060891" y2="147.44203044171832" class="err"/>
<line x1="441.8632320060891" y1="141.36239768092022" x2="447.8632320060891" y2="141.36239768092022" class="err"/>
<line x1="441.8632320060891" y1="147.44203044171832" x2="447.8632320060891" y2="147.44203044171832" class="err"/>
<circle cx="444.8632320060891" cy="144.40221406131928" r="2.5" class="obs"/>
<line x1="502.18686075828936" y1="128.47484281818674" x2="502.18686075828936" y2="137.10876573195907" class="err"/>
<line x1="499.18686075828936" y1="128.47484281818674" x2="505.18686075828936" y2="128.47484281818674" class="err"/>
<line x1="499.18686075828936" y1="137.10876573195907" x2="505.18686075828936" y2="137.10876573195907" class="err"/>
<circle cx="502.18686075828936" cy="132.7918042750729" r="2.5" class="obs"/>
<line x1="546.1904761904761" y1="126.121096106975" x2="546.1904761904761" y2="139.4625124431708" class="err"/>
<line x1="543.1904761904761" y1="126.121096106975" x2="549.1904761904761" y2="126.121096106975" class="err"/>
<line x1="543.1904761904761" y1="139.4625124431708" x2="549.1904761904761" y2="139.4625124431708" class="err"/>
<circle cx="546.1904761904761" cy="132.7918042750729" r="2.5" class="obs"/>
<g class="legend">
<line x1="82" y1="69" x2="106" y2="69" class="fw"/>
<text x="112" y="73" class="lbl-l">framework fit</text>
<line x1="82" y1="87" x2="106" y2="87" class="nt"/>
<text x="112" y="91" class="lbl-l">Newtonian (no halo)</text>
<circle cx="94" cy="105" r="2.5" class="obs"/>
<text x="112" y="109" class="lbl">observed V±err</text>
</g>
<g class="legend">
<line x1="472" y1="69" x2="496" y2="69" class="rho"/>
<text x="502" y="73" class="lbl-r">ρ(r) raw</text>
<line x1="472" y1="87" x2="496" y2="87" class="sig"/>
<text x="502" y="91" class="lbl-s">Σ(r) cumulative</text>
<text x="472" y="113" class="lbl-r">ρ peak: 444 M☉/pc²</text>
</g>
<rect x="705" y="55" width="170" height="170" class="preview-bg"/>
<defs><radialGradient id="g_UGC03205" cx="0.5" cy="0.5" r="0.5">
  <stop offset="0.0000" stop-color="rgb(157,157,157)"/>
  <stop offset="0.0312" stop-color="rgb(138,138,138)"/>
  <stop offset="0.0625" stop-color="rgb(119,119,119)"/>
  <stop offset="0.0938" stop-color="rgb(101,101,101)"/>
  <stop offset="0.1250" stop-color="rgb(97,97,97)"/>
  <stop offset="0.1562" stop-color="rgb(93,93,93)"/>
  <stop offset="0.1875" stop-color="rgb(91,91,91)"/>
  <stop offset="0.2188" stop-color="rgb(89,89,89)"/>
  <stop offset="0.2500" stop-color="rgb(86,86,86)"/>
  <stop offset="0.2812" stop-color="rgb(84,84,84)"/>
  <stop offset="0.3125" stop-color="rgb(82,82,82)"/>
  <stop offset="0.3438" stop-color="rgb(80,80,80)"/>
  <stop offset="0.3750" stop-color="rgb(79,79,79)"/>
  <stop offset="0.4062" stop-color="rgb(78,78,78)"/>
  <stop offset="0.4375" stop-color="rgb(77,77,77)"/>
  <stop offset="0.4688" stop-color="rgb(76,76,76)"/>
  <stop offset="0.5000" stop-color="rgb(75,75,75)"/>
  <stop offset="0.5312" stop-color="rgb(74,74,74)"/>
  <stop offset="0.5625" stop-color="rgb(73,73,73)"/>
  <stop offset="0.5938" stop-color="rgb(72,72,72)"/>
  <stop offset="0.6250" stop-color="rgb(71,71,71)"/>
  <stop offset="0.6562" stop-color="rgb(70,70,70)"/>
  <stop offset="0.6875" stop-color="rgb(69,69,69)"/>
  <stop offset="0.7188" stop-color="rgb(67,67,67)"/>
  <stop offset="0.7500" stop-color="rgb(66,66,66)"/>
  <stop offset="0.7812" stop-color="rgb(65,65,65)"/>
  <stop offset="0.8125" stop-color="rgb(64,64,64)"/>
  <stop offset="0.8438" stop-color="rgb(63,63,63)"/>
  <stop offset="0.8750" stop-color="rgb(60,60,60)"/>
  <stop offset="0.9062" stop-color="rgb(58,58,58)"/>
  <stop offset="0.9375" stop-color="rgb(55,55,55)"/>
  <stop offset="0.9688" stop-color="rgb(53,53,53)"/>
  <stop offset="1.0000" stop-color="rgb(0,0,0)"/>
</radialGradient></defs>
<circle cx="790.0" cy="140.0" r="81.0" fill="url(#g_UGC03205)"/>
<text x="790.0" y="49" text-anchor="middle" class="preview-lbl">face-on luminance from ρ(r)</text>
<text x="790.0" y="239" text-anchor="middle" class="preview-lbl">edge at r = 43.8 kpc</text>
</svg>