<svg xmlns="http://www.w3.org/2000/svg" viewBox="0 0 720 420" width="720" height="420" font-family="sans-serif" font-size="12">
<style>
  .ax { stroke: #333; stroke-width: 1; fill: none; }
  .grid { stroke: #ddd; stroke-width: 0.5; fill: none; }
  .lbl { fill: #333; }
  .lbl-l { fill: #0066cc; }
  .lbl-r { fill: #b03030; }
  .obs { fill: #222; }
  .err { stroke: #555; stroke-width: 0.8; fill: none; }
  .fw { stroke: #0066cc; stroke-width: 2.2; fill: none; }
  .nt { stroke: #cc6600; stroke-width: 1.6; fill: none; stroke-dasharray: 5,3; }
  .rho { stroke: #b03030; stroke-width: 2.0; fill: none; }
  .sig { stroke: #b03030; stroke-width: 1.6; fill: none; stroke-dasharray: 4,2; opacity: 0.85; }
  .title { fill: #111; font-size: 16px; font-weight: 600; }
  .subtitle { fill: #555; font-size: 11px; }
  .legend { font-size: 11px; }
</style>
<text x="360.0" y="22" text-anchor="middle" class="title">UGC06786</text>
<text x="360.0" y="38" text-anchor="middle" class="subtitle">rMax=34.0 kpc, N=45, RMS=28.3 km/s (13.3%), amp=2299</text>
<line x1="70" y1="365.0" x2="635" y2="365.0" class="grid"/>
<text x="64" y="369.0" text-anchor="end" class="lbl-l">0</text>
<line x1="70" y1="303.0" x2="635" y2="303.0" class="grid"/>
<text x="64" y="307.0" text-anchor="end" class="lbl-l">75</text>
<line x1="70" y1="241.0" x2="635" y2="241.0" class="grid"/>
<text x="64" y="245.0" text-anchor="end" class="lbl-l">149</text>
<line x1="70" y1="178.99999999999997" x2="635" y2="178.99999999999997" class="grid"/>
<text x="64" y="182.99999999999997" text-anchor="end" class="lbl-l">224</text>
<line x1="70" y1="116.99999999999999" x2="635" y2="116.99999999999999" class="grid"/>
<text x="64" y="120.99999999999999" text-anchor="end" class="lbl-l">298</text>
<line x1="70" y1="55.0" x2="635" y2="55.0" class="grid"/>
<text x="64" y="59.0" text-anchor="end" class="lbl-l">373</text>
<text x="641" y="369.0" text-anchor="start" class="lbl-r">0.0</text>
<text x="641" y="327.6666666666667" text-anchor="start" class="lbl-r">0.2</text>
<text x="641" y="286.33333333333337" text-anchor="start" class="lbl-r">0.4</text>
<text x="641" y="245.00000000000003" text-anchor="start" class="lbl-r">0.6</text>
<text x="641" y="203.66666666666666" text-anchor="start" class="lbl-r">0.8</text>
<text x="641" y="162.33333333333334" text-anchor="start" class="lbl-r">1.0</text>
<line x1="70.0" y1="55" x2="70.0" y2="365" class="grid"/>
<text x="70.0" y="381" text-anchor="middle" class="lbl">0.0</text>
<line x1="164.16666666666666" y1="55" x2="164.16666666666666" y2="365" class="grid"/>
<text x="164.16666666666666" y="381" text-anchor="middle" class="lbl">7.6</text>
<line x1="258.3333333333333" y1="55" x2="258.3333333333333" y2="365" class="grid"/>
<text x="258.3333333333333" y="381" text-anchor="middle" class="lbl">15.2</text>
<line x1="352.49999999999994" y1="55" x2="352.49999999999994" y2="365" class="grid"/>
<text x="352.49999999999994" y="381" text-anchor="middle" class="lbl">22.8</text>
<line x1="446.66666666666663" y1="55" x2="446.66666666666663" y2="365" class="grid"/>
<text x="446.66666666666663" y="381" text-anchor="middle" class="lbl">30.3</text>
<line x1="540.8333333333334" y1="55" x2="540.8333333333334" y2="365" class="grid"/>
<text x="540.8333333333334" y="381" text-anchor="middle" class="lbl">37.9</text>
<line x1="634.9999999999999" y1="55" x2="634.9999999999999" y2="365" class="grid"/>
<text x="634.9999999999999" y="381" text-anchor="middle" class="lbl">45.5</text>
<text x="352.5" y="408" text-anchor="middle" class="lbl">radius (kpc)</text>
<text x="16" y="210.0" text-anchor="middle" class="lbl-l" transform="rotate(-90, 16, 210.0)">velocity (km/s)</text>
<text x="704" y="210.0" text-anchor="middle" class="lbl-r" transform="rotate(-90, 704, 210.0)">mass profile (normalized to peak)</text>
<rect x="70" y="55" width="565" height="310" class="ax"/>
<path d="M 70.0,158.3 L 72.6,171.4 L 75.2,184.6 L 77.7,197.7 L 80.3,210.8 L 82.9,223.9 L 85.5,237.0 L 88.1,250.1 L 90.6,261.6 L 93.2,262.9 L 95.8,264.1 L 98.4,265.3 L 101.0,266.5 L 103.5,267.8 L 106.1,269.0 L 108.7,270.2 L 111.3,271.4 L 113.9,272.7 L 116.4,273.9 L 119.0,275.1 L 121.6,276.3 L 124.2,277.6 L 126.8,278.8 L 129.3,280.0 L 131.9,281.2 L 134.5,282.5 L 137.1,283.7 L 139.7,284.9 L 142.2,286.0 L 144.8,286.4 L 147.4,286.9 L 150.0,287.3 L 152.6,287.7 L 155.1,288.1 L 157.7,288.6 L 160.3,289.0 L 162.9,289.4 L 165.5,289.9 L 168.0,290.3 L 170.6,290.7 L 173.2,291.1 L 175.8,291.6 L 178.4,292.0 L 180.9,292.4 L 183.5,292.8 L 186.1,293.3 L 188.7,293.7 L 191.3,294.1 L 193.8,294.5 L 196.4,295.0 L 199.0,295.4 L 201.6,295.8 L 204.2,296.3 L 206.7,296.7 L 209.3,297.1 L 211.9,297.5 L 214.5,298.0 L 217.1,298.4 L 219.6,298.8 L 222.2,299.2 L 224.8,299.7 L 227.4,300.1 L 230.0,300.5 L 232.5,301.0 L 235.1,301.4 L 237.7,301.8 L 240.3,302.2 L 242.9,302.7 L 245.4,303.1 L 248.0,303.5 L 250.6,303.9 L 253.2,304.4 L 255.8,304.8 L 258.3,305.2 L 260.9,305.6 L 263.5,306.1 L 266.1,306.5 L 268.7,306.8 L 271.2,307.1 L 273.8,307.4 L 276.4,307.7 L 279.0,308.0 L 281.6,308.3 L 284.1,308.6 L 286.7,308.9 L 289.3,309.2 L 291.9,309.5 L 294.5,309.8 L 297.0,310.1 L 299.6,310.4 L 302.2,310.7 L 304.8,311.0 L 307.4,311.3 L 309.9,311.5 L 312.5,311.8 L 315.1,312.1 L 317.7,312.4 L 320.3,312.7 L 322.8,313.0 L 325.4,313.3 L 328.0,313.6 L 330.6,313.9 L 333.2,314.2 L 335.7,314.5 L 338.3,314.8 L 340.9,315.1 L 343.5,315.4 L 346.1,315.7 L 348.6,316.0 L 351.2,316.3 L 353.8,316.5 L 356.4,316.8 L 358.9,317.1 L 361.5,317.4 L 364.1,317.7 L 366.7,318.0 L 369.3,318.3 L 371.8,318.6 L 374.4,318.9 L 377.0,319.2 L 379.6,319.5 L 382.2,319.8 L 384.7,320.1 L 387.3,320.4 L 389.9,320.7 L 392.5,321.0 L 395.1,321.3 L 397.6,321.5 L 400.2,321.8 L 402.8,322.1 L 405.4,322.4 L 408.0,322.7 L 410.5,323.0 L 413.1,323.3 L 415.7,323.6 L 418.3,323.9 L 420.9,324.2 L 423.4,324.5 L 426.0,324.8 L 428.6,325.1 L 431.2,325.4 L 433.8,325.7 L 436.3,326.0 L 438.9,326.2 L 441.5,326.5 L 444.1,326.8 L 446.7,327.1 L 449.2,327.4 L 451.8,327.7 L 454.4,328.0 L 457.0,328.3 L 459.6,328.6 L 462.1,328.9 L 464.7,329.2 L 467.3,329.5 L 469.9,329.8 L 472.5,330.1 L 475.0,330.4 L 477.6,330.7 L 480.2,331.0 L 482.8,331.2 L 485.4,331.5 L 487.9,331.8 L 490.5,332.1 L 493.1,332.4 L 495.7,332.7 L 498.3,333.0 L 500.8,333.3 L 503.4,333.6 L 506.0,333.9 L 508.6,334.2 L 511.2,334.5 L 513.7,334.8 L 516.3,335.4 L 518.9,336.2 L 521.5,337.1 L 524.1,337.9 L 526.6,338.7 L 529.2,339.6 L 531.8,340.4 L 534.4,341.2 L 537.0,342.1 L 539.5,342.9 L 542.1,343.7 L 544.7,344.6 L 547.3,345.4 L 549.9,346.2 L 552.4,347.1 L 555.0,347.9 L 557.6,348.7 L 560.2,349.6 L 562.8,350.4 L 565.3,351.2 L 567.9,352.0 L 570.5,352.9 L 573.1,353.7 L 575.7,354.5 L 578.2,355.4 L 580.8,356.2 L 583.4,357.0 L 586.0,357.9 L 588.6,358.7 L 591.1,359.5 L 593.7,360.4 L 596.3,361.2 L 598.9,362.0 L 601.5,362.9 L 604.0,363.7 L 606.6,364.5 L 609.2,365.0 L 611.8,365.0 L 614.4,365.0 L 616.9,365.0 L 619.5,365.0 L 622.1,365.0 L 624.7,365.0 L 627.3,365.0 L 629.8,365.0 L 632.4,365.0 L 635.0,365.0" class="rho"/>
<path d="M 70.0,158.3 L 72.6,160.3 L 75.2,163.6 L 77.7,168.2 L 80.3,173.9 L 82.9,180.1 L 85.5,186.5 L 88.1,192.7 L 90.6,198.5 L 93.2,203.7 L 95.8,208.5 L 98.4,212.7 L 101.0,216.6 L 103.5,220.2 L 106.1,223.6 L 108.7,226.7 L 111.3,229.8 L 113.9,232.7 L 116.4,235.5 L 119.0,238.1 L 121.6,240.7 L 124.2,243.3 L 126.8,245.7 L 129.3,248.0 L 131.9,250.3 L 134.5,252.5 L 137.1,254.6 L 139.7,256.6 L 142.2,258.5 L 144.8,260.3 L 147.4,262.0 L 150.0,263.6 L 152.6,265.2 L 155.1,266.7 L 157.7,268.2 L 160.3,269.6 L 162.9,270.9 L 165.5,272.3 L 168.0,273.6 L 170.6,274.8 L 173.2,276.1 L 175.8,277.3 L 178.4,278.5 L 180.9,279.7 L 183.5,280.8 L 186.1,282.0 L 188.7,283.1 L 191.3,284.2 L 193.8,285.3 L 196.4,286.4 L 199.0,287.4 L 201.6,288.5 L 204.2,289.5 L 206.7,290.6 L 209.3,291.6 L 211.9,292.6 L 214.5,293.6 L 217.1,294.6 L 219.6,295.6 L 222.2,296.5 L 224.8,297.5 L 227.4,298.4 L 230.0,299.4 L 232.5,300.3 L 235.1,301.2 L 237.7,302.1 L 240.3,303.0 L 242.9,303.9 L 245.4,304.8 L 248.0,305.6 L 250.6,306.5 L 253.2,307.3 L 255.8,308.1 L 258.3,308.9 L 260.9,309.7 L 263.5,310.5 L 266.1,311.3 L 268.7,312.0 L 271.2,312.7 L 273.8,313.5 L 276.4,314.2 L 279.0,314.8 L 281.6,315.5 L 284.1,316.2 L 286.7,316.9 L 289.3,317.5 L 291.9,318.1 L 294.5,318.8 L 297.0,319.4 L 299.6,320.0 L 302.2,320.6 L 304.8,321.2 L 307.4,321.8 L 309.9,322.4 L 312.5,323.0 L 315.1,323.6 L 317.7,324.1 L 320.3,324.7 L 322.8,325.3 L 325.4,325.8 L 328.0,326.4 L 330.6,326.9 L 333.2,327.4 L 335.7,328.0 L 338.3,328.5 L 340.9,329.0 L 343.5,329.5 L 346.1,330.0 L 348.6,330.5 L 351.2,331.0 L 353.8,331.5 L 356.4,332.0 L 358.9,332.5 L 361.5,333.0 L 364.1,333.4 L 366.7,333.9 L 369.3,334.4 L 371.8,334.8 L 374.4,335.3 L 377.0,335.7 L 379.6,336.2 L 382.2,336.6 L 384.7,337.0 L 387.3,337.5 L 389.9,337.9 L 392.5,338.3 L 395.1,338.7 L 397.6,339.1 L 400.2,339.6 L 402.8,340.0 L 405.4,340.4 L 408.0,340.7 L 410.5,341.1 L 413.1,341.5 L 415.7,341.9 L 418.3,342.3 L 420.9,342.6 L 423.4,343.0 L 426.0,343.4 L 428.6,343.7 L 431.2,344.1 L 433.8,344.4 L 436.3,344.8 L 438.9,345.1 L 441.5,345.5 L 444.1,345.8 L 446.7,346.1 L 449.2,346.5 L 451.8,346.8 L 454.4,347.1 L 457.0,347.4 L 459.6,347.7 L 462.1,348.0 L 464.7,348.3 L 467.3,348.6 L 469.9,348.9 L 472.5,349.2 L 475.0,349.5 L 477.6,349.8 L 480.2,350.1 L 482.8,350.4 L 485.4,350.7 L 487.9,350.9 L 490.5,351.2 L 493.1,351.5 L 495.7,351.7 L 498.3,352.0 L 500.8,352.3 L 503.4,352.6 L 506.0,352.8 L 508.6,353.1 L 511.2,353.4 L 513.7,353.6 L 516.3,353.9 L 518.9,354.2 L 521.5,354.5 L 524.1,354.7 L 526.6,355.0 L 529.2,355.3 L 531.8,355.5 L 534.4,355.8 L 537.0,356.0 L 539.5,356.3 L 542.1,356.5 L 544.7,356.7 L 547.3,356.9 L 549.9,357.1 L 552.4,357.3 L 555.0,357.5 L 557.6,357.7 L 560.2,357.9 L 562.8,358.1 L 565.3,358.2 L 567.9,358.4 L 570.5,358.5 L 573.1,358.7 L 575.7,358.8 L 578.2,358.9 L 580.8,359.1 L 583.4,359.2 L 586.0,359.3 L 588.6,359.4 L 591.1,359.5 L 593.7,359.6 L 596.3,359.7 L 598.9,359.8 L 601.5,359.9 L 604.0,359.9 L 606.6,360.0 L 609.2,360.1 L 611.8,360.2 L 614.4,360.2 L 616.9,360.3 L 619.5,360.4 L 622.1,360.4 L 624.7,360.5 L 627.3,360.6 L 629.8,360.6 L 632.4,360.7 L 635.0,360.7" class="sig"/>
<path d="M 75.7,301.7 L 81.3,280.2 L 87.0,267.2 L 92.6,259.2 L 98.2,251.7 L 103.9,244.3 L 109.5,237.4 L 115.2,231.0 L 120.8,225.0 L 126.5,219.4 L 132.2,214.2 L 137.8,209.4 L 143.4,204.9 L 149.1,200.6 L 154.8,196.4 L 160.4,192.4 L 166.1,188.4 L 171.7,184.6 L 177.3,180.9 L 183.0,177.3 L 188.7,173.8 L 194.3,170.5 L 200.0,167.2 L 205.6,164.1 L 211.2,161.0 L 216.9,158.1 L 222.6,155.2 L 228.2,152.5 L 233.9,149.8 L 239.5,147.2 L 245.2,144.7 L 250.8,142.3 L 256.4,140.0 L 262.1,137.7 L 267.8,135.5 L 273.4,133.4 L 279.1,131.3 L 284.7,129.3 L 290.4,127.3 L 296.0,125.4 L 301.6,123.5 L 307.3,121.7 L 312.9,119.9 L 318.6,118.1 L 324.2,116.4 L 329.9,114.7 L 335.6,113.1 L 341.2,111.5 L 346.8,110.0 L 352.5,108.5 L 358.1,107.0 L 363.8,105.6 L 369.4,104.2 L 375.1,102.9 L 380.8,101.6 L 386.4,100.3 L 392.0,99.1 L 397.7,97.9 L 403.3,96.7 L 409.0,95.6 L 414.6,94.5 L 420.3,93.5 L 425.9,92.5 L 431.6,91.5 L 437.2,90.6 L 442.9,89.7 L 448.6,88.8 L 454.2,88.0 L 459.9,87.2 L 465.5,86.4 L 471.1,85.7 L 476.8,85.0 L 482.4,84.3 L 488.1,83.7 L 493.8,83.1 L 499.4,82.5 L 505.1,82.0 L 510.7,81.5 L 516.4,81.0 L 522.0,80.6 L 527.6,80.4 L 533.3,80.3 L 539.0,80.2 L 544.6,80.3 L 550.2,80.6 L 555.9,80.9 L 561.5,81.3 L 567.2,81.9 L 572.8,82.6 L 578.5,83.3 L 584.1,84.2 L 589.8,85.3 L 595.5,86.4 L 601.1,87.6 L 606.8,89.0 L 612.4,90.4 L 618.0,91.8 L 623.7,93.2 L 629.4,94.6 L 635.0,96.0" class="nt"/>
<path d="M 74.7,298.6 L 79.4,252.4 L 84.1,218.6 L 88.8,200.6 L 93.5,195.1 L 98.2,194.8 L 103.0,194.6 L 107.7,192.9 L 112.4,190.2 L 117.1,187.1 L 121.8,184.2 L 126.5,181.9 L 131.2,180.6 L 135.9,180.7 L 140.6,182.2 L 145.3,184.5 L 150.0,186.7 L 154.8,188.2 L 159.5,188.8 L 164.2,188.8 L 168.9,188.4 L 173.6,187.6 L 178.3,186.6 L 183.0,185.4 L 187.7,184.1 L 192.4,182.7 L 197.1,181.4 L 201.8,180.0 L 206.5,178.7 L 211.2,177.4 L 216.0,176.2 L 220.7,175.1 L 225.4,174.1 L 230.1,173.2 L 234.8,172.5 L 239.5,171.9 L 244.2,171.5 L 248.9,171.3 L 253.6,171.5 L 258.3,172.0 L 263.0,172.9 L 267.8,174.1 L 272.5,175.4 L 277.2,176.4 L 281.9,177.2 L 286.6,177.7 L 291.3,178.1 L 296.0,178.3 L 300.7,178.4 L 305.4,178.5 L 310.1,178.6 L 314.8,178.7 L 319.5,178.7 L 324.2,178.8 L 329.0,178.8 L 333.7,178.9 L 338.4,179.0 L 343.1,179.1 L 347.8,179.3 L 352.5,179.5 L 357.2,179.7 L 361.9,180.0 L 366.6,180.2 L 371.3,180.6 L 376.0,180.9 L 380.7,181.3 L 385.5,181.7 L 390.2,182.2 L 394.9,182.7 L 399.6,183.2 L 404.3,183.8 L 409.0,184.4 L 413.7,185.0 L 418.4,185.7 L 423.1,186.4 L 427.8,187.1 L 432.5,187.8 L 437.2,188.6 L 442.0,189.3 L 446.7,190.1 L 451.4,190.9 L 456.1,191.7 L 460.8,192.5 L 465.5,193.3 L 470.2,194.0 L 474.9,194.7 L 479.6,195.3 L 484.3,195.8 L 489.0,196.1 L 493.7,196.1 L 498.5,195.8 L 503.2,195.0 L 507.9,193.8 L 512.6,192.5 L 517.3,191.4 L 522.0,191.2 L 526.7,192.0 L 531.4,194.0 L 536.1,196.9 L 540.8,200.6 L 545.5,204.8 L 550.2,209.5 L 555.0,214.4 L 559.7,219.5 L 564.4,224.6 L 569.1,229.8 L 573.8,234.8 L 578.5,239.8 L 583.2,244.5 L 587.9,248.9 L 592.6,253.1 L 597.3,256.9 L 602.0,260.4 L 606.8,263.5 L 611.5,266.3 L 616.2,268.8 L 620.9,271.1 L 625.6,273.2 L 630.3,275.1 L 635.0,276.9" class="fw"/>
<line x1="71.98630721627978" y1="202.03844011850794" x2="71.98630721627978" y2="261.901870279056" class="err"/>
<line x1="68.98630721627978" y1="202.03844011850794" x2="74.98630721627978" y2="202.03844011850794" class="err"/>
<line x1="68.98630721627978" y1="261.901870279056" x2="74.98630721627978" y2="261.901870279056" class="err"/>
<circle cx="71.98630721627978" cy="231.97015519878198" r="2.5" class="obs"/>
<line x1="73.97261443255955" y1="192.14434541141733" x2="73.97261443255955" y2="243.5271229658878" class="err"/>
<line x1="70.97261443255955" y1="192.14434541141733" x2="76.97261443255955" y2="192.14434541141733" class="err"/>
<line x1="70.97261443255955" y1="243.5271229658878" x2="76.97261443255955" y2="243.5271229658878" class="err"/>
<circle cx="73.97261443255955" cy="217.83573418865257" r="2.5" class="obs"/>
<line x1="76.08306584985682" y1="194.3060803894371" x2="76.08306584985682" y2="236.37676880782234" class="err"/>
<line x1="73.08306584985682" y1="194.3060803894371" x2="79.08306584985682" y2="194.3060803894371" class="err"/>
<line x1="73.08306584985682" y1="236.37676880782234" x2="79.08306584985682" y2="236.37676880782234" class="err"/>
<circle cx="76.08306584985682" cy="215.34142459862971" r="2.5" class="obs"/>
<line x1="78.0693730661366" y1="188.73545563838613" x2="78.0693730661366" y2="241.94739355887333" class="err"/>
<line x1="75.0693730661366" y1="188.73545563838613" x2="81.0693730661366" y2="188.73545563838613" class="err"/>
<line x1="75.0693730661366" y1="241.94739355887333" x2="81.0693730661366" y2="241.94739355887333" class="err"/>
<circle cx="78.0693730661366" cy="215.34142459862971" r="2.5" class="obs"/>
<line x1="86.1387461322732" y1="209.7541711169786" x2="86.1387461322732" y2="217.60293196025043" class="err"/>
<line x1="83.1387461322732" y1="209.7541711169786" x2="89.1387461322732" y2="209.7541711169786" class="err"/>
<line x1="83.1387461322732" y1="217.60293196025043" x2="89.1387461322732" y2="217.60293196025043" class="err"/>
<circle cx="86.1387461322732" cy="213.6785515386145" r="2.5" class="obs"/>
<line x1="88.12505334855298" y1="203.86760048452467" x2="88.12505334855298" y2="221.8266295326891" class="err"/>
<line x1="85.12505334855298" y1="203.86760048452467" x2="91.12505334855298" y2="203.86760048452467" class="err"/>
<line x1="85.12505334855298" y1="221.8266295326891" x2="91.12505334855298" y2="221.8266295326891" class="err"/>
<circle cx="88.12505334855298" cy="212.8471150086069" r="2.5" class="obs"/>
<line x1="90.11136056483275" y1="205.83810506064273" x2="90.11136056483275" y2="218.19325189655584" class="err"/>
<line x1="87.11136056483275" y1="205.83810506064273" x2="93.11136056483275" y2="205.83810506064273" class="err"/>
<line x1="87.11136056483275" y1="218.19325189655584" x2="93.11136056483275" y2="218.19325189655584" class="err"/>
<circle cx="90.11136056483275" cy="212.01567847859928" r="2.5" class="obs"/>
<line x1="116.18164277850485" y1="186.72337923576774" x2="116.18164277850485" y2="200.7247704010959" class="err"/>
<line x1="113.18164277850485" y1="186.72337923576774" x2="119.18164277850485" y2="186.72337923576774" class="err"/>
<line x1="113.18164277850485" y1="200.7247704010959" x2="119.18164277850485" y2="200.7247704010959" class="err"/>
<circle cx="116.18164277850485" cy="193.7240748184318" r="2.5" class="obs"/>
<line x1="118.29209419580212" y1="189.11791644218965" x2="118.29209419580212" y2="196.66736013465876" class="err"/>
<line x1="115.29209419580212" y1="189.11791644218965" x2="121.29209419580212" y2="189.11791644218965" class="err"/>
<line x1="115.29209419580212" y1="196.66736013465876" x2="121.29209419580212" y2="196.66736013465876" class="err"/>
<circle cx="118.29209419580212" cy="192.8926382884242" r="2.5" class="obs"/>
<line x1="120.27840141208189" y1="186.77326542756816" x2="120.27840141208189" y2="195.6862650292498" class="err"/>
<line x1="117.27840141208189" y1="186.77326542756816" x2="123.27840141208189" y2="186.77326542756816" class="err"/>
<line x1="117.27840141208189" y1="195.6862650292498" x2="123.27840141208189" y2="195.6862650292498" class="err"/>
<circle cx="120.27840141208189" cy="191.22976522840895" r="2.5" class="obs"/>
<line x1="122.38885282937916" y1="188.37793793048286" x2="122.38885282937916" y2="192.41871946631986" class="err"/>
<line x1="119.38885282937916" y1="188.37793793048286" x2="125.38885282937916" y2="188.37793793048286" class="err"/>
<line x1="119.38885282937916" y1="192.41871946631986" x2="125.38885282937916" y2="192.41871946631986" class="err"/>
<circle cx="122.38885282937916" cy="190.39832869840134" r="2.5" class="obs"/>
<line x1="122.8854296334491" y1="186.57372066036632" x2="122.8854296334491" y2="194.22293673643637" class="err"/>
<line x1="119.8854296334491" y1="186.57372066036632" x2="125.8854296334491" y2="186.57372066036632" class="err"/>
<line x1="119.8854296334491" y1="194.22293673643637" x2="125.8854296334491" y2="194.22293673643637" class="err"/>
<circle cx="122.8854296334491" cy="190.39832869840134" r="2.5" class="obs"/>
<line x1="124.37516004565893" y1="187.2388698843724" x2="124.37516004565893" y2="191.8949144524151" class="err"/>
<line x1="121.37516004565893" y1="187.2388698843724" x2="127.37516004565893" y2="187.2388698843724" class="err"/>
<line x1="121.37516004565893" y1="191.8949144524151" x2="127.37516004565893" y2="191.8949144524151" class="err"/>
<circle cx="124.37516004565893" cy="189.56689216839374" r="2.5" class="obs"/>
<line x1="126.36146726193871" y1="186.09148747296192" x2="126.36146726193871" y2="189.71655074379512" class="err"/>
<line x1="123.36146726193871" y1="186.09148747296192" x2="129.3614672619387" y2="186.09148747296192" class="err"/>
<line x1="123.36146726193871" y1="189.71655074379512" x2="129.3614672619387" y2="189.71655074379512" class="err"/>
<circle cx="126.36146726193871" cy="187.90401910837855" r="2.5" class="obs"/>
<line x1="128.47191867923598" y1="180.74535058501294" x2="128.47191867923598" y2="193.39981457172885" class="err"/>
<line x1="125.47191867923598" y1="180.74535058501294" x2="131.47191867923598" y2="180.74535058501294" class="err"/>
<line x1="125.47191867923598" y1="193.39981457172885" x2="131.47191867923598" y2="193.39981457172885" class="err"/>
<circle cx="128.47191867923598" cy="187.07258257837088" r="2.5" class="obs"/>
<line x1="130.33408169449828" y1="182.3333943573275" x2="130.33408169449828" y2="190.14889773939905" class="err"/>
<line x1="127.33408169449828" y1="182.3333943573275" x2="133.33408169449828" y2="182.3333943573275" class="err"/>
<line x1="127.33408169449828" y1="190.14889773939905" x2="133.33408169449828" y2="190.14889773939905" class="err"/>
<circle cx="130.33408169449828" cy="186.24114604836328" r="2.5" class="obs"/>
<line x1="132.32038891077804" y1="184.29558456814547" x2="132.32038891077804" y2="188.1867075285811" class="err"/>
<line x1="129.32038891077804" y1="184.29558456814547" x2="135.32038891077804" y2="184.29558456814547" class="err"/>
<line x1="129.32038891077804" y1="188.1867075285811" x2="135.32038891077804" y2="188.1867075285811" class="err"/>
<circle cx="132.32038891077804" cy="186.24114604836328" r="2.5" class="obs"/>
<line x1="134.30669612705782" y1="182.95697175483323" x2="134.30669612705782" y2="187.86244728187813" class="err"/>
<line x1="131.30669612705782" y1="182.95697175483323" x2="137.30669612705782" y2="182.95697175483323" class="err"/>
<line x1="131.30669612705782" y1="187.86244728187813" x2="137.30669612705782" y2="187.86244728187813" class="err"/>
<circle cx="134.30669612705782" cy="185.40970951835567" r="2.5" class="obs"/>
<line x1="136.4171475443551" y1="180.85343733391397" x2="136.4171475443551" y2="188.30310864278218" class="err"/>
<line x1="133.4171475443551" y1="180.85343733391397" x2="139.4171475443551" y2="180.85343733391397" class="err"/>
<line x1="133.4171475443551" y1="188.30310864278218" x2="139.4171475443551" y2="188.30310864278218" class="err"/>
<circle cx="136.4171475443551" cy="184.57827298834806" r="2.5" class="obs"/>
<line x1="138.40345476063487" y1="181.26084123361767" x2="138.40345476063487" y2="187.89570474307845" class="err"/>
<line x1="135.40345476063487" y1="181.26084123361767" x2="141.40345476063487" y2="181.26084123361767" class="err"/>
<line x1="135.40345476063487" y1="187.89570474307845" x2="141.40345476063487" y2="187.89570474307845" class="err"/>
<circle cx="138.40345476063487" cy="184.57827298834806" r="2.5" class="obs"/>
<line x1="140.51390617793214" y1="179.47325269410135" x2="140.51390617793214" y2="188.0204202225796" class="err"/>
<line x1="137.51390617793214" y1="179.47325269410135" x2="143.51390617793214" y2="179.47325269410135" class="err"/>
<line x1="137.51390617793214" y1="188.0204202225796" x2="143.51390617793214" y2="188.0204202225796" class="err"/>
<circle cx="140.51390617793214" cy="183.74683645834045" r="2.5" class="obs"/>
<line x1="142.50021339421193" y1="181.65993076802135" x2="142.50021339421193" y2="185.83374214865955" class="err"/>
<line x1="139.50021339421193" y1="181.65993076802135" x2="145.50021339421193" y2="181.65993076802135" class="err"/>
<line x1="139.50021339421193" y1="185.83374214865955" x2="145.50021339421193" y2="185.83374214865955" class="err"/>
<circle cx="142.50021339421193" cy="183.74683645834045" r="2.5" class="obs"/>
<line x1="144.4865206104917" y1="179.63122563480277" x2="144.4865206104917" y2="186.19957422186292" class="err"/>
<line x1="141.4865206104917" y1="179.63122563480277" x2="147.4865206104917" y2="179.63122563480277" class="err"/>
<line x1="141.4865206104917" y1="186.19957422186292" x2="147.4865206104917" y2="186.19957422186292" class="err"/>
<circle cx="144.4865206104917" cy="182.91539992833287" r="2.5" class="obs"/>
<line x1="146.348683625754" y1="176.39693753307316" x2="146.348683625754" y2="189.43386232359254" class="err"/>
<line x1="143.348683625754" y1="176.39693753307316" x2="149.348683625754" y2="176.39693753307316" class="err"/>
<line x1="143.348683625754" y1="189.43386232359254" x2="149.348683625754" y2="189.43386232359254" class="err"/>
<circle cx="146.348683625754" cy="182.91539992833287" r="2.5" class="obs"/>
<line x1="150.44544225933103" y1="176.48008118607393" x2="150.44544225933103" y2="189.35071867059176" class="err"/>
<line x1="147.44544225933103" y1="176.48008118607393" x2="153.44544225933103" y2="176.48008118607393" class="err"/>
<line x1="147.44544225933103" y1="189.35071867059176" x2="153.44544225933103" y2="189.35071867059176" class="err"/>
<circle cx="150.44544225933103" cy="182.91539992833287" r="2.5" class="obs"/>
<line x1="152.43174947561081" y1="177.35308954258193" x2="152.43174947561081" y2="188.4777103140838" class="err"/>
<line x1="149.43174947561081" y1="177.35308954258193" x2="155.43174947561081" y2="177.35308954258193" class="err"/>
<line x1="149.43174947561081" y1="188.4777103140838" x2="155.43174947561081" y2="188.4777103140838" class="err"/>
<circle cx="152.43174947561081" cy="182.91539992833287" r="2.5" class="obs"/>
<line x1="154.54220089290806" y1="176.8791707204776" x2="154.54220089290806" y2="187.2887560761729" class="err"/>
<line x1="151.54220089290806" y1="176.8791707204776" x2="157.54220089290806" y2="176.8791707204776" class="err"/>
<line x1="151.54220089290806" y1="187.2887560761729" x2="157.54220089290806" y2="187.2887560761729" class="err"/>
<circle cx="154.54220089290806" cy="182.08396339832524" r="2.5" class="obs"/>
<line x1="158.14238272241516" y1="179.98874334270602" x2="158.14238272241516" y2="184.1791834539444" class="err"/>
<line x1="155.14238272241516" y1="179.98874334270602" x2="161.14238272241516" y2="179.98874334270602" class="err"/>
<line x1="155.14238272241516" y1="184.1791834539444" x2="161.14238272241516" y2="184.1791834539444" class="err"/>
<circle cx="158.14238272241516" cy="182.08396339832524" r="2.5" class="obs"/>
<line x1="158.51481532546762" y1="172.60558695623843" x2="158.51481532546762" y2="191.56233984041205" class="err"/>
<line x1="155.51481532546762" y1="172.60558695623843" x2="161.51481532546762" y2="172.60558695623843" class="err"/>
<line x1="155.51481532546762" y1="191.56233984041205" x2="161.51481532546762" y2="191.56233984041205" class="err"/>
<circle cx="158.51481532546762" cy="182.08396339832524" r="2.5" class="obs"/>
<line x1="175.7708592668982" y1="179.64785436540294" x2="175.7708592668982" y2="184.52007243124754" class="err"/>
<line x1="172.7708592668982" y1="179.64785436540294" x2="178.7708592668982" y2="179.64785436540294" class="err"/>
<line x1="172.7708592668982" y1="184.52007243124754" x2="178.7708592668982" y2="184.52007243124754" class="err"/>
<circle cx="175.7708592668982" cy="182.08396339832524" r="2.5" class="obs"/>
<line x1="202.33771828464026" y1="176.43850935957357" x2="202.33771828464026" y2="179.41505213700077" class="err"/>
<line x1="199.33771828464026" y1="176.43850935957357" x2="205.33771828464026" y2="176.43850935957357" class="err"/>
<line x1="199.33771828464026" y1="179.41505213700077" x2="205.33771828464026" y2="179.41505213700077" class="err"/>
<circle cx="202.33771828464026" cy="177.92678074828717" r="2.5" class="obs"/>
<line x1="218.84889701996593" y1="170.68496857192088" x2="218.84889701996593" y2="180.17997374460782" class="err"/>
<line x1="215.84889701996593" y1="170.68496857192088" x2="221.84889701996593" y2="170.68496857192088" class="err"/>
<line x1="215.84889701996593" y1="180.17997374460782" x2="221.84889701996593" y2="180.17997374460782" class="err"/>
<circle cx="218.84889701996593" cy="175.43247115826432" r="2.5" class="obs"/>
<line x1="220.21448323115825" y1="167.1513633193885" x2="220.21448323115825" y2="183.71357899714016" class="err"/>
<line x1="217.21448323115825" y1="167.1513633193885" x2="223.21448323115825" y2="167.1513633193885" class="err"/>
<line x1="217.21448323115825" y1="183.71357899714016" x2="223.21448323115825" y2="183.71357899714016" class="err"/>
<circle cx="220.21448323115825" cy="175.43247115826432" r="2.5" class="obs"/>
<line x1="223.06979985456044" y1="168.58143415100162" x2="223.06979985456044" y2="182.28350816552705" class="err"/>
<line x1="220.06979985456044" y1="168.58143415100162" x2="226.06979985456044" y2="168.58143415100162" class="err"/>
<line x1="220.06979985456044" y1="182.28350816552705" x2="226.06979985456044" y2="182.28350816552705" class="err"/>
<circle cx="223.06979985456044" cy="175.43247115826432" r="2.5" class="obs"/>
<line x1="228.6562889003473" y1="173.15433506604347" x2="228.6562889003473" y2="176.04773419046998" class="err"/>
<line x1="225.6562889003473" y1="173.15433506604347" x2="231.6562889003473" y2="173.15433506604347" class="err"/>
<line x1="225.6562889003473" y1="176.04773419046998" x2="231.6562889003473" y2="176.04773419046998" class="err"/>
<circle cx="228.6562889003473" cy="174.60103462825674" r="2.5" class="obs"/>
<line x1="255.34729211910684" y1="174.06891524905186" x2="255.34729211910684" y2="176.7960270674768" class="err"/>
<line x1="252.34729211910684" y1="174.06891524905186" x2="258.34729211910684" y2="174.06891524905186" class="err"/>
<line x1="252.34729211910684" y1="176.7960270674768" x2="258.34729211910684" y2="176.7960270674768" class="err"/>
<circle cx="255.34729211910684" cy="175.43247115826432" r="2.5" class="obs"/>
<line x1="282.0382953378663" y1="175.98121926806937" x2="282.0382953378663" y2="178.20946916848976" class="err"/>
<line x1="279.0382953378663" y1="175.98121926806937" x2="285.0382953378663" y2="175.98121926806937" class="err"/>
<line x1="279.0382953378663" y1="178.20946916848976" x2="285.0382953378663" y2="178.20946916848976" class="err"/>
<circle cx="282.0382953378663" cy="177.09534421827954" r="2.5" class="obs"/>
<line x1="308.7292985566259" y1="175.93964744156898" x2="308.7292985566259" y2="178.25104099499015" class="err"/>
<line x1="305.7292985566259" y1="175.93964744156898" x2="311.7292985566259" y2="175.93964744156898" class="err"/>
<line x1="305.7292985566259" y1="178.25104099499015" x2="311.7292985566259" y2="178.25104099499015" class="err"/>
<circle cx="308.7292985566259" cy="177.09534421827954" r="2.5" class="obs"/>
<line x1="334.0547155641931" y1="175.34101313996348" x2="334.0547155641931" y2="177.18680223658043" class="err"/>
<line x1="331.0547155641931" y1="175.34101313996348" x2="337.0547155641931" y2="175.34101313996348" class="err"/>
<line x1="331.0547155641931" y1="177.18680223658043" x2="337.0547155641931" y2="177.18680223658043" class="err"/>
<circle cx="334.0547155641931" cy="176.26390768827196" r="2.5" class="obs"/>
<line x1="360.7457187829526" y1="175.1248396421615" x2="360.7457187829526" y2="177.40297573438238" class="err"/>
<line x1="357.7457187829526" y1="175.1248396421615" x2="363.7457187829526" y2="175.1248396421615" class="err"/>
<line x1="357.7457187829526" y1="177.40297573438238" x2="363.7457187829526" y2="177.40297573438238" class="err"/>
<circle cx="360.7457187829526" cy="176.26390768827196" r="2.5" class="obs"/>
<line x1="387.43672200171216" y1="176.43850935957357" x2="387.43672200171216" y2="181.07792519701604" class="err"/>
<line x1="384.43672200171216" y1="176.43850935957357" x2="390.43672200171216" y2="176.43850935957357" class="err"/>
<line x1="384.43672200171216" y1="181.07792519701604" x2="390.43672200171216" y2="181.07792519701604" class="err"/>
<circle cx="387.43672200171216" cy="178.7582172782948" r="2.5" class="obs"/>
<line x1="414.12772522047163" y1="175.92301871096885" x2="414.12772522047163" y2="191.5706542057121" class="err"/>
<line x1="411.12772522047163" y1="175.92301871096885" x2="417.12772522047163" y2="175.92301871096885" class="err"/>
<line x1="411.12772522047163" y1="191.5706542057121" x2="417.12772522047163" y2="191.5706542057121" class="err"/>
<circle cx="414.12772522047163" cy="183.74683645834045" r="2.5" class="obs"/>
<line x1="440.81872843923117" y1="179.43999523290103" x2="440.81872843923117" y2="193.04229686382558" class="err"/>
<line x1="437.81872843923117" y1="179.43999523290103" x2="443.81872843923117" y2="179.43999523290103" class="err"/>
<line x1="437.81872843923117" y1="193.04229686382558" x2="443.81872843923117" y2="193.04229686382558" class="err"/>
<circle cx="440.81872843923117" cy="186.24114604836328" r="2.5" class="obs"/>
<line x1="467.50973165799076" y1="178.70833108649433" x2="467.50973165799076" y2="187.12246877017137" class="err"/>
<line x1="464.50973165799076" y1="178.70833108649433" x2="470.50973165799076" y2="178.70833108649433" class="err"/>
<line x1="464.50973165799076" y1="187.12246877017137" x2="470.50973165799076" y2="187.12246877017137" class="err"/>
<circle cx="467.50973165799076" cy="182.91539992833287" r="2.5" class="obs"/>
<line x1="492.71100446454034" y1="183.70526463184007" x2="492.71100446454034" y2="195.42851970494743" class="err"/>
<line x1="489.71100446454034" y1="183.70526463184007" x2="495.71100446454034" y2="183.70526463184007" class="err"/>
<line x1="489.71100446454034" y1="195.42851970494743" x2="495.71100446454034" y2="195.42851970494743" class="err"/>
<circle cx="492.71100446454034" cy="189.56689216839374" r="2.5" class="obs"/>
<g class="legend">
<line x1="82" y1="69" x2="106" y2="69" class="fw"/>
<text x="112" y="73" class="lbl-l">framework fit</text>
<line x1="82" y1="87" x2="106" y2="87" class="nt"/>
<text x="112" y="91" class="lbl-l">Newtonian (no halo)</text>
<circle cx="94" cy="105" r="2.5" class="obs"/>
<text x="112" y="109" class="lbl">observed V±err</text>
</g>
<g class="legend">
<line x1="460" y1="69" x2="484" y2="69" class="rho"/>
<text x="490" y="73" class="lbl-r">ρ(r) raw</text>
<line x1="460" y1="87" x2="484" y2="87" class="sig"/>
<text x="490" y="91" class="lbl-r">Σ(r) smoothed</text>
<text x="460" y="113" class="lbl-r">ρ peak: 1038 M☉/pc²</text>
</g>
</svg>