<svg xmlns="http://www.w3.org/2000/svg" viewBox="0 0 960 450" width="960" height="450" font-family="sans-serif" font-size="12">
<style>
  .ax { stroke: #333; stroke-width: 1; fill: none; }
  .grid { stroke: #ddd; stroke-width: 0.5; fill: none; }
  .lbl { fill: #333; }
  .lbl-l { fill: #0066cc; }
  .lbl-r { fill: #b03030; }
  .obs { fill: #222; }
  .err { stroke: #555; stroke-width: 0.8; fill: none; }
  .fw { stroke: #0066cc; stroke-width: 2.2; fill: none; }
  .nt { stroke: #cc6600; stroke-width: 1.6; fill: none; stroke-dasharray: 5,3; }
  .mond { stroke: #7b2cbf; stroke-width: 1.8; fill: none; stroke-dasharray: 7,3; }
  .lbl-p { fill: #cc7000; }
  .lbl-m { fill: #7b2cbf; }
  .rho { stroke: #b03030; stroke-width: 2.0; fill: none; }
  .phot { stroke: #cc7000; stroke-width: 1.8; fill: none; }
  .mbar { stroke: #8e44ad; stroke-width: 1.8; fill: none; opacity: 0.9; }
  .mph { stroke: #c77dff; stroke-width: 1.6; fill: none; stroke-dasharray: 4,3; opacity: 0.95; }
  .remap-x { stroke: #cc2222; stroke-width: 1.5; fill: none; }
  .remap-link { stroke: #cc2222; stroke-width: 0.8; stroke-dasharray: 3,3; fill: none; opacity: 0.7; }
  .title { fill: #111; font-size: 16px; font-weight: 600; }
  .subtitle { fill: #555; font-size: 11px; }
  .preview-bg { fill: #000; }
  .preview-lbl { fill: #888; font-size: 10px; }
  .legend { font-size: 11px; }
</style>
<text x="378.5" y="22" text-anchor="middle" class="title">UGC05721</text>
<text x="378.5" y="38" text-anchor="middle" class="subtitle">rMax=6.7 kpc, N=23, FW=1.4 km/s, 2.7%, 0.30σ, MOND=16.8 km/s, 21.8%, 3.51σ, amp=105</text>
<line x1="70" y1="395.0" x2="687" y2="395.0" class="grid"/>
<text x="64" y="399.0" text-anchor="end" class="lbl-l">0</text>
<line x1="70" y1="327.0" x2="687" y2="327.0" class="grid"/>
<text x="64" y="331.0" text-anchor="end" class="lbl-l">22</text>
<line x1="70" y1="259.0" x2="687" y2="259.0" class="grid"/>
<text x="64" y="263.0" text-anchor="end" class="lbl-l">45</text>
<line x1="70" y1="191.0" x2="687" y2="191.0" class="grid"/>
<text x="64" y="195.0" text-anchor="end" class="lbl-l">67</text>
<line x1="70" y1="123.0" x2="687" y2="123.0" class="grid"/>
<text x="64" y="127.0" text-anchor="end" class="lbl-l">89</text>
<line x1="70" y1="55.0" x2="687" y2="55.0" class="grid"/>
<text x="64" y="59.0" text-anchor="end" class="lbl-l">112</text>
<text x="693" y="399.0" text-anchor="start" class="lbl-r">0.0</text>
<text x="693" y="353.7" text-anchor="start" class="lbl-r">0.2</text>
<text x="693" y="308.3" text-anchor="start" class="lbl-r">0.4</text>
<text x="693" y="263.0" text-anchor="start" class="lbl-r">0.6</text>
<text x="693" y="217.7" text-anchor="start" class="lbl-r">0.8</text>
<text x="693" y="172.3" text-anchor="start" class="lbl-r">1.0</text>
<line x1="70.0" y1="55" x2="70.0" y2="395" class="grid"/>
<text x="70.0" y="411" text-anchor="middle" class="lbl">0.0</text>
<line x1="172.8" y1="55" x2="172.8" y2="395" class="grid"/>
<text x="172.8" y="411" text-anchor="middle" class="lbl">1.2</text>
<line x1="275.7" y1="55" x2="275.7" y2="395" class="grid"/>
<text x="275.7" y="411" text-anchor="middle" class="lbl">2.4</text>
<line x1="378.5" y1="55" x2="378.5" y2="395" class="grid"/>
<text x="378.5" y="411" text-anchor="middle" class="lbl">3.6</text>
<line x1="481.3" y1="55" x2="481.3" y2="395" class="grid"/>
<text x="481.3" y="411" text-anchor="middle" class="lbl">4.8</text>
<line x1="584.2" y1="55" x2="584.2" y2="395" class="grid"/>
<text x="584.2" y="411" text-anchor="middle" class="lbl">6.1</text>
<line x1="687.0" y1="55" x2="687.0" y2="395" class="grid"/>
<text x="687.0" y="411" text-anchor="middle" class="lbl">7.3</text>
<text x="378.5" y="438" text-anchor="middle" class="lbl">radius (kpc)</text>
<text x="16" y="225" text-anchor="middle" class="lbl-l" transform="rotate(-90, 16, 225)">velocity (km/s)</text>
<text x="724" y="225" text-anchor="middle" class="lbl-r" transform="rotate(-90, 724, 225)">profiles (normalized to peak)</text>
<rect x="70" y="55" width="617" height="340" class="ax"/>
<path d="M 70.0,168.3 L 72.8,178.6 L 75.6,188.8 L 78.5,199.0 L 81.3,209.2 L 84.1,219.5 L 86.9,229.7 L 89.7,239.9 L 92.5,250.1 L 95.4,260.4 L 98.2,270.6 L 101.0,280.8 L 103.8,291.0 L 106.6,301.3 L 109.4,309.9 L 112.3,309.9 L 115.1,309.9 L 117.9,309.9 L 120.7,309.9 L 123.5,309.9 L 126.3,309.9 L 129.2,309.9 L 132.0,309.9 L 134.8,309.9 L 137.6,309.9 L 140.4,309.9 L 143.3,309.9 L 146.1,309.9 L 148.9,309.9 L 151.7,309.9 L 154.5,309.9 L 157.3,309.9 L 160.2,309.9 L 163.0,309.9 L 165.8,309.9 L 168.6,309.9 L 171.4,309.9 L 174.2,309.9 L 177.1,309.9 L 179.9,309.9 L 182.7,309.9 L 185.5,309.9 L 188.3,309.9 L 191.1,311.5 L 194.0,313.4 L 196.8,315.3 L 199.6,317.3 L 202.4,319.2 L 205.2,321.2 L 208.1,323.1 L 210.9,325.1 L 213.7,327.0 L 216.5,328.9 L 219.3,330.9 L 222.1,332.8 L 225.0,334.8 L 227.8,336.7 L 230.6,337.9 L 233.4,338.1 L 236.2,338.3 L 239.0,338.5 L 241.9,338.7 L 244.7,338.9 L 247.5,339.1 L 250.3,339.3 L 253.1,339.6 L 255.9,339.8 L 258.8,340.0 L 261.6,340.2 L 264.4,340.4 L 267.2,340.6 L 270.0,340.8 L 272.8,341.1 L 275.7,341.3 L 278.5,341.5 L 281.3,341.7 L 284.1,341.9 L 286.9,342.1 L 289.8,342.3 L 292.6,342.5 L 295.4,342.8 L 298.2,343.0 L 301.0,343.2 L 303.8,343.4 L 306.7,343.6 L 309.5,343.8 L 312.3,344.0 L 315.1,344.3 L 317.9,344.5 L 320.7,344.7 L 323.6,344.9 L 326.4,345.1 L 329.2,345.3 L 332.0,345.5 L 334.8,345.7 L 337.6,346.0 L 340.5,346.2 L 343.3,346.4 L 346.1,346.6 L 348.9,346.8 L 351.7,347.0 L 354.6,347.2 L 357.4,347.5 L 360.2,347.7 L 363.0,347.9 L 365.8,348.1 L 368.6,348.3 L 371.5,348.5 L 374.3,348.7 L 377.1,349.0 L 379.9,349.2 L 382.7,349.4 L 385.5,349.6 L 388.4,349.8 L 391.2,350.0 L 394.0,350.2 L 396.8,350.4 L 399.6,350.7 L 402.4,350.9 L 405.3,351.1 L 408.1,351.3 L 410.9,351.5 L 413.7,351.7 L 416.5,351.9 L 419.4,352.2 L 422.2,352.4 L 425.0,352.6 L 427.8,352.8 L 430.6,353.0 L 433.4,353.2 L 436.3,353.4 L 439.1,353.6 L 441.9,353.9 L 444.7,354.1 L 447.5,354.3 L 450.3,354.5 L 453.2,354.7 L 456.0,354.9 L 458.8,355.1 L 461.6,355.4 L 464.4,355.6 L 467.2,355.8 L 470.1,356.0 L 472.9,356.2 L 475.7,356.4 L 478.5,356.6 L 481.3,356.8 L 484.2,357.1 L 487.0,357.3 L 489.8,357.5 L 492.6,357.7 L 495.4,357.9 L 498.2,358.1 L 501.1,358.3 L 503.9,358.6 L 506.7,358.8 L 509.5,359.0 L 512.3,359.2 L 515.1,359.4 L 518.0,359.6 L 520.8,359.8 L 523.6,360.1 L 526.4,360.3 L 529.2,360.5 L 532.0,360.7 L 534.9,360.9 L 537.7,361.1 L 540.5,361.3 L 543.3,361.5 L 546.1,361.8 L 548.9,362.0 L 551.8,362.2 L 554.6,362.4 L 557.4,362.6 L 560.2,362.8 L 563.0,363.0 L 565.9,363.3 L 568.7,363.5 L 571.5,363.7 L 574.3,363.9 L 577.1,364.1 L 579.9,364.3 L 582.8,364.5 L 585.6,364.7 L 588.4,365.0 L 591.2,365.2 L 594.0,365.4 L 596.8,365.6 L 599.7,365.8 L 602.5,366.0 L 605.3,366.2 L 608.1,366.5 L 610.9,366.7 L 613.7,366.9 L 616.6,367.1 L 619.4,367.5 L 622.2,369.6 L 625.0,371.6 L 627.8,373.6 L 630.7,375.6 L 633.5,377.7 L 636.3,379.7 L 639.1,381.7 L 641.9,383.7 L 644.7,385.7 L 647.6,387.8 L 650.4,389.8 L 653.2,391.8 L 656.0,393.8 L 658.8,395.0 L 661.6,395.0 L 664.5,395.0 L 667.3,395.0 L 670.1,395.0 L 672.9,395.0 L 675.7,395.0 L 678.5,395.0 L 681.4,395.0 L 684.2,395.0 L 687.0,395.0" class="rho"/>
<path d="M 77.6,168.3 L 92.9,288.5 L 108.2,332.5 L 123.4,358.5 L 138.7,373.4 L 154.0,379.5 L 169.3,384.8 L 184.5,389.7 L 199.8,391.8 L 215.1,393.2 L 230.3,393.9 L 245.6,394.2 L 260.9,394.5 L 296.5,394.8 L 337.2,395.0 L 376.2,395.0 L 412.7,395.0 L 450.9,395.0 L 488.2,395.0 L 526.4,395.0 L 567.1,395.0 L 602.7,395.0 L 641.8,395.0" class="phot"/>
<path d="M 77.6,191.2 L 92.9,168.3 L 108.2,181.4 L 123.4,231.5 L 138.7,280.3 L 154.0,307.0 L 169.3,319.4 L 184.5,331.3 L 199.8,338.0 L 215.1,346.2 L 230.3,367.6 L 245.6,388.1 L 260.9,392.5 L 296.5,386.1 L 337.2,382.7 L 376.2,385.4 L 412.7,386.5 L 450.9,383.2 L 488.2,380.1 L 526.4,381.6 L 567.1,386.3 L 602.7,389.3 L 641.8,389.6" class="mbar"/>
<path d="M 77.6,175.8 L 92.9,168.3 L 108.2,172.4 L 123.4,189.9 L 138.7,210.4 L 154.0,225.0 L 169.3,234.7 L 184.5,244.4 L 199.8,250.8 L 215.1,259.2 L 230.3,281.4 L 245.6,311.7 L 260.9,325.3 L 296.5,317.5 L 337.2,314.0 L 376.2,322.1 L 412.7,326.4 L 450.9,322.1 L 488.2,316.9 L 526.4,320.3 L 567.1,330.9 L 602.7,338.4 L 641.8,340.0" class="mph"/>
<path d="M 76.2,328.7 L 82.3,304.6 L 88.5,288.6 L 94.7,277.3 L 100.8,269.4 L 107.0,264.3 L 113.2,261.0 L 119.4,257.1 L 125.5,252.7 L 131.7,248.1 L 137.9,243.4 L 144.0,238.6 L 150.2,233.8 L 156.4,229.1 L 162.6,224.4 L 168.7,219.8 L 174.9,215.2 L 181.1,210.7 L 187.2,206.3 L 193.4,202.0 L 199.6,198.3 L 205.7,195.0 L 211.9,192.1 L 218.1,189.6 L 224.3,187.5 L 230.4,185.8 L 236.6,184.1 L 242.8,182.4 L 248.9,180.7 L 255.1,179.0 L 261.3,177.3 L 267.4,175.6 L 273.6,173.9 L 279.8,172.2 L 285.9,170.5 L 292.1,168.8 L 298.3,167.1 L 304.5,165.5 L 310.6,163.9 L 316.8,162.2 L 323.0,160.7 L 329.1,159.1 L 335.3,157.5 L 341.5,156.0 L 347.6,154.5 L 353.8,153.0 L 360.0,151.6 L 366.2,150.1 L 372.3,148.7 L 378.5,147.3 L 384.7,146.0 L 390.8,144.6 L 397.0,143.3 L 403.2,142.0 L 409.3,140.8 L 415.5,139.5 L 421.7,138.3 L 427.9,137.1 L 434.0,136.0 L 440.2,134.8 L 446.4,133.7 L 452.5,132.6 L 458.7,131.6 L 464.9,130.5 L 471.1,129.5 L 477.2,128.5 L 483.4,127.6 L 489.6,126.6 L 495.7,125.7 L 501.9,124.8 L 508.1,124.0 L 514.2,123.1 L 520.4,122.3 L 526.6,121.5 L 532.8,120.7 L 538.9,120.0 L 545.1,119.2 L 551.3,118.5 L 557.4,117.9 L 563.6,117.2 L 569.8,116.6 L 575.9,115.9 L 582.1,115.3 L 588.3,114.8 L 594.4,114.2 L 600.6,113.7 L 606.8,113.2 L 613.0,112.7 L 619.1,112.3 L 625.3,112.0 L 631.5,112.0 L 637.6,112.3 L 643.8,113.0 L 650.0,113.9 L 656.1,115.1 L 662.3,116.6 L 668.5,118.0 L 674.7,119.5 L 680.8,120.9 L 687.0,122.2" class="nt"/>
<path d="M 77.6,342.8 L 92.9,297.3 L 108.2,270.8 L 123.4,255.4 L 138.7,246.2 L 154.0,239.7 L 169.3,232.1 L 184.5,227.4 L 199.8,222.0 L 215.1,216.9 L 230.3,215.0 L 245.6,218.3 L 260.9,222.7 L 296.5,220.8 L 337.2,215.0 L 376.2,212.7 L 412.7,210.3 L 450.9,205.2 L 488.2,197.8 L 526.4,191.2 L 567.1,187.8 L 602.7,186.2 L 641.8,183.8" class="mond"/>
<path d="M 75.1,360.0 L 80.3,334.5 L 85.4,308.7 L 90.6,286.2 L 95.7,267.9 L 100.8,254.0 L 106.0,244.1 L 111.1,237.5 L 116.3,233.2 L 121.4,230.5 L 126.6,228.4 L 131.7,226.2 L 136.8,223.7 L 142.0,220.6 L 147.1,216.8 L 152.3,212.2 L 157.4,206.8 L 162.6,200.8 L 167.7,194.0 L 172.8,186.8 L 178.0,179.0 L 183.1,171.1 L 188.3,163.4 L 193.4,156.1 L 198.5,149.7 L 203.7,144.4 L 208.8,140.3 L 214.0,137.7 L 219.1,136.3 L 224.3,136.2 L 229.4,137.0 L 234.5,138.4 L 239.7,140.3 L 244.8,142.3 L 250.0,144.3 L 255.1,146.2 L 260.2,147.9 L 265.4,149.4 L 270.5,150.7 L 275.7,151.9 L 280.8,152.9 L 285.9,153.8 L 291.1,154.5 L 296.2,155.1 L 301.4,155.7 L 306.5,156.1 L 311.7,156.5 L 316.8,156.7 L 321.9,157.0 L 327.1,157.1 L 332.2,157.3 L 337.4,157.4 L 342.5,157.4 L 347.6,157.4 L 352.8,157.4 L 357.9,157.4 L 363.1,157.4 L 368.2,157.3 L 373.4,157.2 L 378.5,157.2 L 383.6,157.1 L 388.8,157.0 L 393.9,156.9 L 399.1,156.8 L 404.2,156.7 L 409.3,156.6 L 414.5,156.5 L 419.6,156.4 L 424.8,156.4 L 429.9,156.3 L 435.1,156.2 L 440.2,156.2 L 445.3,156.1 L 450.5,156.1 L 455.6,156.0 L 460.8,156.0 L 465.9,156.0 L 471.1,156.0 L 476.2,156.0 L 481.3,156.0 L 486.5,156.0 L 491.6,156.0 L 496.8,156.0 L 501.9,156.0 L 507.0,156.0 L 512.2,156.0 L 517.3,156.0 L 522.5,155.9 L 527.6,155.9 L 532.8,155.8 L 537.9,155.7 L 543.0,155.5 L 548.2,155.3 L 553.3,155.0 L 558.5,154.6 L 563.6,154.2 L 568.7,153.6 L 573.9,153.0 L 579.0,152.1 L 584.2,151.2 L 589.3,150.0 L 594.4,148.7 L 599.6,147.2 L 604.7,145.7 L 609.9,144.4 L 615.0,143.3 L 620.2,142.9 L 625.3,143.4 L 630.4,144.9 L 635.6,147.7 L 640.7,151.4 L 645.9,156.1 L 651.0,161.4 L 656.2,167.1 L 661.3,172.8 L 666.4,178.5 L 671.6,184.0 L 676.7,189.3 L 681.9,194.1 L 687.0,198.7" class="fw"/>
<line x1="77.63" y1="330.77" x2="77.63" y2="358.63" class="err"/>
<line x1="74.63" y1="330.77" x2="80.63" y2="330.77" class="err"/>
<line x1="74.63" y1="358.63" x2="80.63" y2="358.63" class="err"/>
<circle cx="77.63" cy="344.70" r="2.5" class="obs"/>
<line x1="92.90" y1="256.67" x2="92.90" y2="298.61" class="err"/>
<line x1="89.90" y1="256.67" x2="95.90" y2="256.67" class="err"/>
<line x1="89.90" y1="298.61" x2="95.90" y2="298.61" class="err"/>
<circle cx="92.90" cy="277.64" r="2.5" class="obs"/>
<line x1="108.17" y1="236.58" x2="108.17" y2="264.44" class="err"/>
<line x1="105.17" y1="236.58" x2="111.17" y2="236.58" class="err"/>
<line x1="105.17" y1="264.44" x2="111.17" y2="264.44" class="err"/>
<circle cx="108.17" cy="250.51" r="2.5" class="obs"/>
<line x1="123.44" y1="211.89" x2="123.44" y2="239.75" class="err"/>
<line x1="120.44" y1="211.89" x2="126.44" y2="211.89" class="err"/>
<line x1="120.44" y1="239.75" x2="126.44" y2="239.75" class="err"/>
<circle cx="123.44" cy="225.82" r="2.5" class="obs"/>
<line x1="138.71" y1="206.47" x2="138.71" y2="239.69" class="err"/>
<line x1="135.71" y1="206.47" x2="141.71" y2="206.47" class="err"/>
<line x1="135.71" y1="239.69" x2="141.71" y2="239.69" class="err"/>
<circle cx="138.71" cy="223.08" r="2.5" class="obs"/>
<line x1="153.98" y1="198.79" x2="153.98" y2="226.65" class="err"/>
<line x1="150.98" y1="198.79" x2="156.98" y2="198.79" class="err"/>
<line x1="150.98" y1="226.65" x2="156.98" y2="226.65" class="err"/>
<circle cx="153.98" cy="212.72" r="2.5" class="obs"/>
<line x1="169.25" y1="174.40" x2="169.25" y2="202.26" class="err"/>
<line x1="166.25" y1="174.40" x2="172.25" y2="174.40" class="err"/>
<line x1="166.25" y1="202.26" x2="172.25" y2="202.26" class="err"/>
<circle cx="169.25" cy="188.33" r="2.5" class="obs"/>
<line x1="184.52" y1="148.18" x2="184.52" y2="176.05" class="err"/>
<line x1="181.52" y1="148.18" x2="187.52" y2="148.18" class="err"/>
<line x1="181.52" y1="176.05" x2="187.52" y2="176.05" class="err"/>
<circle cx="184.52" cy="162.11" r="2.5" class="obs"/>
<line x1="199.79" y1="133.55" x2="199.79" y2="161.41" class="err"/>
<line x1="196.79" y1="133.55" x2="202.79" y2="133.55" class="err"/>
<line x1="196.79" y1="161.41" x2="202.79" y2="161.41" class="err"/>
<circle cx="199.79" cy="147.48" r="2.5" class="obs"/>
<line x1="215.06" y1="85.91" x2="215.06" y2="202.96" class="err"/>
<line x1="212.06" y1="85.91" x2="218.06" y2="85.91" class="err"/>
<line x1="212.06" y1="202.96" x2="218.06" y2="202.96" class="err"/>
<circle cx="215.06" cy="144.44" r="2.5" class="obs"/>
<line x1="230.33" y1="129.29" x2="230.33" y2="157.15" class="err"/>
<line x1="227.33" y1="129.29" x2="233.33" y2="129.29" class="err"/>
<line x1="227.33" y1="157.15" x2="233.33" y2="157.15" class="err"/>
<circle cx="230.33" cy="143.22" r="2.5" class="obs"/>
<line x1="245.60" y1="130.20" x2="245.60" y2="158.06" class="err"/>
<line x1="242.60" y1="130.20" x2="248.60" y2="130.20" class="err"/>
<line x1="242.60" y1="158.06" x2="248.60" y2="158.06" class="err"/>
<circle cx="245.60" cy="144.13" r="2.5" class="obs"/>
<line x1="260.87" y1="130.81" x2="260.87" y2="158.67" class="err"/>
<line x1="257.87" y1="130.81" x2="263.87" y2="130.81" class="err"/>
<line x1="257.87" y1="158.67" x2="263.87" y2="158.67" class="err"/>
<circle cx="260.87" cy="144.74" r="2.5" class="obs"/>
<line x1="296.50" y1="132.94" x2="296.50" y2="160.80" class="err"/>
<line x1="293.50" y1="132.94" x2="299.50" y2="132.94" class="err"/>
<line x1="293.50" y1="160.80" x2="299.50" y2="160.80" class="err"/>
<circle cx="296.50" cy="146.87" r="2.5" class="obs"/>
<line x1="337.22" y1="139.34" x2="337.22" y2="167.21" class="err"/>
<line x1="334.22" y1="139.34" x2="340.22" y2="139.34" class="err"/>
<line x1="334.22" y1="167.21" x2="340.22" y2="167.21" class="err"/>
<circle cx="337.22" cy="153.28" r="2.5" class="obs"/>
<line x1="376.24" y1="141.78" x2="376.24" y2="169.64" class="err"/>
<line x1="373.24" y1="141.78" x2="379.24" y2="141.78" class="err"/>
<line x1="373.24" y1="169.64" x2="379.24" y2="169.64" class="err"/>
<circle cx="376.24" cy="155.71" r="2.5" class="obs"/>
<line x1="412.72" y1="142.70" x2="412.72" y2="170.56" class="err"/>
<line x1="409.72" y1="142.70" x2="415.72" y2="142.70" class="err"/>
<line x1="409.72" y1="170.56" x2="415.72" y2="170.56" class="err"/>
<circle cx="412.72" cy="156.63" r="2.5" class="obs"/>
<line x1="450.90" y1="143.00" x2="450.90" y2="170.86" class="err"/>
<line x1="447.90" y1="143.00" x2="453.90" y2="143.00" class="err"/>
<line x1="447.90" y1="170.86" x2="453.90" y2="170.86" class="err"/>
<circle cx="450.90" cy="156.93" r="2.5" class="obs"/>
<line x1="488.22" y1="142.70" x2="488.22" y2="170.56" class="err"/>
<line x1="485.22" y1="142.70" x2="491.22" y2="142.70" class="err"/>
<line x1="485.22" y1="170.56" x2="491.22" y2="170.56" class="err"/>
<circle cx="488.22" cy="156.63" r="2.5" class="obs"/>
<line x1="526.40" y1="142.39" x2="526.40" y2="170.25" class="err"/>
<line x1="523.40" y1="142.39" x2="529.40" y2="142.39" class="err"/>
<line x1="523.40" y1="170.25" x2="529.40" y2="170.25" class="err"/>
<circle cx="526.40" cy="156.32" r="2.5" class="obs"/>
<line x1="567.12" y1="141.48" x2="567.12" y2="169.34" class="err"/>
<line x1="564.12" y1="141.48" x2="570.12" y2="141.48" class="err"/>
<line x1="564.12" y1="169.34" x2="570.12" y2="169.34" class="err"/>
<circle cx="567.12" cy="155.41" r="2.5" class="obs"/>
<line x1="602.75" y1="140.56" x2="602.75" y2="168.42" class="err"/>
<line x1="599.75" y1="140.56" x2="605.75" y2="140.56" class="err"/>
<line x1="599.75" y1="168.42" x2="605.75" y2="168.42" class="err"/>
<circle cx="602.75" cy="154.49" r="2.5" class="obs"/>
<line x1="641.77" y1="138.73" x2="641.77" y2="166.60" class="err"/>
<line x1="638.77" y1="138.73" x2="644.77" y2="138.73" class="err"/>
<line x1="638.77" y1="166.60" x2="644.77" y2="166.60" class="err"/>
<circle cx="641.77" cy="152.67" r="2.5" class="obs"/>
<g class="legend">
<line x1="82" y1="69" x2="106" y2="69" class="fw"/>
<text x="112" y="73" class="lbl-l">framework: 1.4 km/s, 2.7%, 0.30σ</text>
<line x1="82" y1="87" x2="106" y2="87" class="nt"/>
<text x="112" y="91" class="lbl-l">Newtonian: 10.3 km/s, 16.3%, 2.14σ</text>
<line x1="82" y1="105" x2="106" y2="105" class="mond"/>
<text x="112" y="109" class="lbl-m">MOND/RAR: 16.8 km/s, 21.8%, 3.51σ</text>
<circle cx="94" cy="123" r="2.5" class="obs"/>
<text x="112" y="127" class="lbl">observed V±err</text>
</g>
<g class="legend">
<line x1="472" y1="69" x2="496" y2="69" class="rho"/>
<text x="502" y="73" class="lbl-r">ρ(r) raw</text>
<line x1="472" y1="87" x2="496" y2="87" class="phot"/>
<text x="502" y="91" class="lbl-p">photometric baryonic profile</text>
<line x1="472" y1="105" x2="496" y2="105" class="mbar"/>
<text x="502" y="109" class="lbl-m">MOND baryonic annulus</text>
<line x1="472" y1="123" x2="496" y2="123" class="mph"/>
<text x="502" y="127" class="lbl-m">MOND phantom annulus</text>
<text x="472" y="147" class="lbl-r">ρ peak: 515 M☉/pc²</text>
<text x="472" y="163" class="lbl-p">phot peak: 328.96 (arb.)</text>
<text x="472" y="179" class="lbl-m">Σbar peak: 137.53 M☉/pc²</text>
<text x="472" y="195" class="lbl-m">Σphantom peak: 133.27 M☉/pc²</text>
</g>
<rect x="775" y="55" width="170" height="170" class="preview-bg"/>
<defs><radialGradient id="g_UGC05721" cx="0.5" cy="0.5" r="0.5">
  <stop offset="0.0000" stop-color="rgb(255,64,64)"/>
  <stop offset="0.0313" stop-color="rgb(255,64,64)"/>
  <stop offset="0.0625" stop-color="rgb(255,64,64)"/>
  <stop offset="0.0938" stop-color="rgb(255,64,64)"/>
  <stop offset="0.1250" stop-color="rgb(255,64,64)"/>
  <stop offset="0.1563" stop-color="rgb(255,64,64)"/>
  <stop offset="0.1875" stop-color="rgb(255,64,64)"/>
  <stop offset="0.2188" stop-color="rgb(255,64,64)"/>
  <stop offset="0.2500" stop-color="rgb(254,64,64)"/>
  <stop offset="0.2813" stop-color="rgb(226,57,57)"/>
  <stop offset="0.3125" stop-color="rgb(222,56,56)"/>
  <stop offset="0.3438" stop-color="rgb(218,55,55)"/>
  <stop offset="0.3750" stop-color="rgb(213,53,53)"/>
  <stop offset="0.4063" stop-color="rgb(209,52,52)"/>
  <stop offset="0.4375" stop-color="rgb(205,51,51)"/>
  <stop offset="0.4688" stop-color="rgb(200,50,50)"/>
  <stop offset="0.5000" stop-color="rgb(196,49,49)"/>
  <stop offset="0.5313" stop-color="rgb(192,48,48)"/>
  <stop offset="0.5625" stop-color="rgb(188,47,47)"/>
  <stop offset="0.5938" stop-color="rgb(183,46,46)"/>
  <stop offset="0.6250" stop-color="rgb(179,45,45)"/>
  <stop offset="0.6563" stop-color="rgb(175,44,44)"/>
  <stop offset="0.6875" stop-color="rgb(170,43,43)"/>
  <stop offset="0.7188" stop-color="rgb(166,42,42)"/>
  <stop offset="0.7500" stop-color="rgb(162,41,41)"/>
  <stop offset="0.7813" stop-color="rgb(157,39,39)"/>
  <stop offset="0.8125" stop-color="rgb(153,38,38)"/>
  <stop offset="0.8438" stop-color="rgb(149,37,37)"/>
  <stop offset="0.8750" stop-color="rgb(144,36,36)"/>
  <stop offset="0.9063" stop-color="rgb(140,35,35)"/>
  <stop offset="0.9375" stop-color="rgb(132,33,33)"/>
  <stop offset="0.9688" stop-color="rgb(91,23,23)"/>
  <stop offset="1.0000" stop-color="rgb(0,0,0)"/>
</radialGradient></defs>
<circle cx="860" cy="140" r="81" fill="url(#g_UGC05721)"/>
<text x="860" y="49" text-anchor="middle" class="preview-lbl">face-on luminance from ρ(r)</text>
<text x="860" y="239" text-anchor="middle" class="preview-lbl">edge at r = 6.9 kpc</text>
</svg>