<svg xmlns="http://www.w3.org/2000/svg" viewBox="0 0 890 420" width="890" height="420" font-family="sans-serif" font-size="12">
<style>
  .ax { stroke: #333; stroke-width: 1; fill: none; }
  .grid { stroke: #ddd; stroke-width: 0.5; fill: none; }
  .lbl { fill: #333; }
  .lbl-l { fill: #0066cc; }
  .lbl-r { fill: #b03030; }
  .obs { fill: #222; }
  .err { stroke: #555; stroke-width: 0.8; fill: none; }
  .fw { stroke: #0066cc; stroke-width: 2.2; fill: none; }
  .nt { stroke: #cc6600; stroke-width: 1.6; fill: none; stroke-dasharray: 5,3; }
  .lbl-s { fill: #cc7000; }
  .rho { stroke: #b03030; stroke-width: 2.0; fill: none; }
  .sig { stroke: #cc7000; stroke-width: 1.8; fill: none; }
  .title { fill: #111; font-size: 16px; font-weight: 600; }
  .subtitle { fill: #555; font-size: 11px; }
  .preview-bg { fill: #000; }
  .preview-lbl { fill: #888; font-size: 10px; }
  .legend { font-size: 11px; }
</style>
<text x="343.5" y="22" text-anchor="middle" class="title">UGC07232</text>
<text x="343.5" y="38" text-anchor="middle" class="subtitle">rMax=0.8 kpc, N=4, RMS=0.4 km/s (1.4%), amp=102</text>
<line x1="70" y1="365.0" x2="617" y2="365.0" class="grid"/>
<text x="64" y="369.0" text-anchor="end" class="lbl-l">0</text>
<line x1="70" y1="303.0" x2="617" y2="303.0" class="grid"/>
<text x="64" y="307.0" text-anchor="end" class="lbl-l">10</text>
<line x1="70" y1="241.0" x2="617" y2="241.0" class="grid"/>
<text x="64" y="245.0" text-anchor="end" class="lbl-l">21</text>
<line x1="70" y1="179.0" x2="617" y2="179.0" class="grid"/>
<text x="64" y="183.0" text-anchor="end" class="lbl-l">31</text>
<line x1="70" y1="117.0" x2="617" y2="117.0" class="grid"/>
<text x="64" y="121.0" text-anchor="end" class="lbl-l">42</text>
<line x1="70" y1="55.0" x2="617" y2="55.0" class="grid"/>
<text x="64" y="59.0" text-anchor="end" class="lbl-l">52</text>
<text x="623" y="369.0" text-anchor="start" class="lbl-r">0.0</text>
<text x="623" y="327.7" text-anchor="start" class="lbl-r">0.2</text>
<text x="623" y="286.3" text-anchor="start" class="lbl-r">0.4</text>
<text x="623" y="245.0" text-anchor="start" class="lbl-r">0.6</text>
<text x="623" y="203.7" text-anchor="start" class="lbl-r">0.8</text>
<text x="623" y="162.3" text-anchor="start" class="lbl-r">1.0</text>
<line x1="70.0" y1="55" x2="70.0" y2="365" class="grid"/>
<text x="70.0" y="381" text-anchor="middle" class="lbl">0.0</text>
<line x1="161.2" y1="55" x2="161.2" y2="365" class="grid"/>
<text x="161.2" y="381" text-anchor="middle" class="lbl">0.1</text>
<line x1="252.3" y1="55" x2="252.3" y2="365" class="grid"/>
<text x="252.3" y="381" text-anchor="middle" class="lbl">0.3</text>
<line x1="343.5" y1="55" x2="343.5" y2="365" class="grid"/>
<text x="343.5" y="381" text-anchor="middle" class="lbl">0.4</text>
<line x1="434.7" y1="55" x2="434.7" y2="365" class="grid"/>
<text x="434.7" y="381" text-anchor="middle" class="lbl">0.6</text>
<line x1="525.8" y1="55" x2="525.8" y2="365" class="grid"/>
<text x="525.8" y="381" text-anchor="middle" class="lbl">0.7</text>
<line x1="617.0" y1="55" x2="617.0" y2="365" class="grid"/>
<text x="617.0" y="381" text-anchor="middle" class="lbl">0.9</text>
<text x="343.5" y="408" text-anchor="middle" class="lbl">radius (kpc)</text>
<text x="16" y="210" text-anchor="middle" class="lbl-l" transform="rotate(-90, 16, 210)">velocity (km/s)</text>
<text x="874" y="210" text-anchor="middle" class="lbl-r" transform="rotate(-90, 874, 210)">mass profile (normalized to peak)</text>
<rect x="70" y="55" width="547" height="310" class="ax"/>
<path d="M 70.0,158.3 L 72.5,174.8 L 75.0,191.2 L 77.5,207.6 L 80.0,224.0 L 82.5,240.4 L 85.0,256.2 L 87.5,256.7 L 90.0,257.2 L 92.5,257.7 L 95.0,258.1 L 97.5,258.6 L 100.0,259.1 L 102.5,259.6 L 105.0,260.0 L 107.5,260.5 L 110.0,261.0 L 112.5,261.5 L 115.0,261.9 L 117.5,262.4 L 120.0,262.9 L 122.5,263.4 L 124.9,263.8 L 127.4,264.3 L 129.9,264.8 L 132.4,265.3 L 134.9,265.8 L 137.4,266.2 L 139.9,266.7 L 142.4,267.2 L 144.9,267.7 L 147.4,268.1 L 149.9,268.5 L 152.4,268.6 L 154.9,268.6 L 157.4,268.7 L 159.9,268.8 L 162.4,268.9 L 164.9,268.9 L 167.4,269.0 L 169.9,269.1 L 172.4,269.2 L 174.9,269.2 L 177.4,269.3 L 179.9,269.4 L 182.4,269.5 L 184.9,269.6 L 187.4,269.6 L 189.9,269.7 L 192.4,269.8 L 194.9,269.9 L 197.4,269.9 L 199.9,270.0 L 202.4,270.1 L 204.9,270.2 L 207.4,270.3 L 209.9,270.3 L 212.4,270.5 L 214.9,270.6 L 217.4,270.8 L 219.9,271.0 L 222.4,271.2 L 224.9,271.4 L 227.4,271.6 L 229.9,271.7 L 232.4,271.9 L 234.8,272.1 L 237.3,272.3 L 239.8,272.5 L 242.3,272.6 L 244.8,272.8 L 247.3,273.0 L 249.8,273.2 L 252.3,273.4 L 254.8,273.6 L 257.3,273.7 L 259.8,273.9 L 262.3,274.1 L 264.8,274.3 L 267.3,274.5 L 269.8,274.7 L 272.3,274.8 L 274.8,275.0 L 277.3,275.2 L 279.8,275.4 L 282.3,275.6 L 284.8,275.7 L 287.3,275.9 L 289.8,276.1 L 292.3,276.3 L 294.8,276.5 L 297.3,276.7 L 299.8,276.8 L 302.3,277.0 L 304.8,277.2 L 307.3,277.4 L 309.8,277.6 L 312.3,277.8 L 314.8,277.9 L 317.3,278.1 L 319.8,278.3 L 322.3,278.5 L 324.8,278.7 L 327.3,278.8 L 329.8,279.0 L 332.3,279.2 L 334.8,279.4 L 337.3,279.6 L 339.8,279.8 L 342.3,279.9 L 344.7,280.1 L 347.2,280.3 L 349.7,280.5 L 352.2,280.7 L 354.7,280.9 L 357.2,281.0 L 359.7,281.2 L 362.2,281.4 L 364.7,281.6 L 367.2,281.8 L 369.7,281.9 L 372.2,282.1 L 374.7,282.3 L 377.2,282.5 L 379.7,282.7 L 382.2,282.9 L 384.7,283.0 L 387.2,283.2 L 389.7,283.4 L 392.2,283.6 L 394.7,283.8 L 397.2,284.0 L 399.7,284.1 L 402.2,284.3 L 404.7,284.5 L 407.2,284.7 L 409.7,284.9 L 412.2,285.0 L 414.7,285.2 L 417.2,285.4 L 419.7,285.6 L 422.2,285.8 L 424.7,286.0 L 427.2,286.1 L 429.7,286.3 L 432.2,286.5 L 434.7,286.7 L 437.2,286.9 L 439.7,287.0 L 442.2,287.2 L 444.7,287.4 L 447.2,287.6 L 449.7,287.8 L 452.2,288.0 L 454.6,288.1 L 457.1,288.3 L 459.6,288.5 L 462.1,288.7 L 464.6,288.9 L 467.1,289.1 L 469.6,289.2 L 472.1,289.4 L 474.6,289.6 L 477.1,289.8 L 479.6,290.0 L 482.1,290.1 L 484.6,290.3 L 487.1,290.5 L 489.6,290.7 L 492.1,290.9 L 494.6,291.1 L 497.1,291.2 L 499.6,291.4 L 502.1,291.6 L 504.6,291.8 L 507.1,292.0 L 509.6,292.2 L 512.1,292.3 L 514.6,292.5 L 517.1,292.7 L 519.6,292.9 L 522.1,293.1 L 524.6,293.2 L 527.1,293.4 L 529.6,293.6 L 532.1,293.8 L 534.6,294.0 L 537.1,294.2 L 539.6,294.3 L 542.1,295.7 L 544.6,299.3 L 547.1,302.8 L 549.6,306.4 L 552.1,309.9 L 554.6,313.4 L 557.1,317.0 L 559.6,320.5 L 562.1,324.0 L 564.5,327.6 L 567.0,331.1 L 569.5,334.7 L 572.0,338.2 L 574.5,341.7 L 577.0,345.3 L 579.5,348.8 L 582.0,352.4 L 584.5,355.9 L 587.0,359.4 L 589.5,363.0 L 592.0,365.0 L 594.5,365.0 L 597.0,365.0 L 599.5,365.0 L 602.0,365.0 L 604.5,365.0 L 607.0,365.0 L 609.5,365.0 L 612.0,365.0 L 614.5,365.0 L 617.0,365.0" class="rho"/>
<path d="M 70.0,158.3 L 72.5,158.5 L 75.0,158.8 L 77.5,159.1 L 80.0,159.6 L 82.5,160.2 L 85.0,160.8 L 87.5,161.5 L 90.0,162.2 L 92.5,162.9 L 95.0,163.7 L 97.5,164.4 L 100.0,165.2 L 102.5,165.9 L 105.0,166.6 L 107.5,167.3 L 110.0,168.0 L 112.5,168.7 L 115.0,169.4 L 117.5,170.1 L 120.0,170.8 L 122.5,171.5 L 124.9,172.1 L 127.4,172.8 L 129.9,173.4 L 132.4,174.1 L 134.9,174.7 L 137.4,175.4 L 139.9,176.0 L 142.4,176.6 L 144.9,177.2 L 147.4,177.8 L 149.9,178.4 L 152.4,179.0 L 154.9,179.6 L 157.4,180.2 L 159.9,180.7 L 162.4,181.3 L 164.9,181.8 L 167.4,182.4 L 169.9,182.9 L 172.4,183.5 L 174.9,184.0 L 177.4,184.5 L 179.9,185.1 L 182.4,185.6 L 184.9,186.2 L 187.4,186.7 L 189.9,187.2 L 192.4,187.8 L 194.9,188.3 L 197.4,188.9 L 199.9,189.4 L 202.4,190.0 L 204.9,190.5 L 207.4,191.1 L 209.9,191.7 L 212.4,192.2 L 214.9,192.8 L 217.4,193.4 L 219.9,194.0 L 222.4,194.6 L 224.9,195.2 L 227.4,195.8 L 229.9,196.4 L 232.4,197.0 L 234.8,197.6 L 237.3,198.2 L 239.8,198.9 L 242.3,199.5 L 244.8,200.1 L 247.3,200.8 L 249.8,201.4 L 252.3,202.1 L 254.8,202.7 L 257.3,203.4 L 259.8,204.0 L 262.3,204.7 L 264.8,205.3 L 267.3,206.0 L 269.8,206.7 L 272.3,207.3 L 274.8,208.0 L 277.3,208.7 L 279.8,209.3 L 282.3,210.0 L 284.8,210.7 L 287.3,211.4 L 289.8,212.1 L 292.3,212.8 L 294.8,213.4 L 297.3,214.1 L 299.8,214.8 L 302.3,215.5 L 304.8,216.2 L 307.3,216.9 L 309.8,217.6 L 312.3,218.3 L 314.8,219.0 L 317.3,219.7 L 319.8,220.4 L 322.3,221.1 L 324.8,221.9 L 327.3,222.6 L 329.8,223.3 L 332.3,224.0 L 334.8,224.7 L 337.3,225.4 L 339.8,226.2 L 342.3,226.9 L 344.7,227.6 L 347.2,228.3 L 349.7,229.0 L 352.2,229.8 L 354.7,230.5 L 357.2,231.2 L 359.7,232.0 L 362.2,232.7 L 364.7,233.4 L 367.2,234.2 L 369.7,234.9 L 372.2,235.6 L 374.7,236.4 L 377.2,237.1 L 379.7,237.9 L 382.2,238.6 L 384.7,239.4 L 387.2,240.1 L 389.7,240.9 L 392.2,241.6 L 394.7,242.4 L 397.2,243.1 L 399.7,243.9 L 402.2,244.7 L 404.7,245.4 L 407.2,246.2 L 409.7,247.0 L 412.2,247.7 L 414.7,248.5 L 417.2,249.3 L 419.7,250.1 L 422.2,250.9 L 424.7,251.6 L 427.2,252.4 L 429.7,253.2 L 432.2,254.0 L 434.7,254.8 L 437.2,255.6 L 439.7,256.4 L 442.2,257.2 L 444.7,258.0 L 447.2,258.9 L 449.7,259.7 L 452.2,260.5 L 454.6,261.4 L 457.1,262.2 L 459.6,263.0 L 462.1,263.9 L 464.6,264.8 L 467.1,265.6 L 469.6,266.5 L 472.1,267.4 L 474.6,268.3 L 477.1,269.2 L 479.6,270.1 L 482.1,271.0 L 484.6,271.9 L 487.1,272.8 L 489.6,273.8 L 492.1,274.8 L 494.6,275.7 L 497.1,276.7 L 499.6,277.7 L 502.1,278.7 L 504.6,279.8 L 507.1,280.8 L 509.6,281.9 L 512.1,283.0 L 514.6,284.1 L 517.1,285.3 L 519.6,286.4 L 522.1,287.6 L 524.6,288.8 L 527.1,290.1 L 529.6,291.4 L 532.1,292.7 L 534.6,294.0 L 537.1,295.4 L 539.6,296.8 L 542.1,298.2 L 544.6,299.6 L 547.1,301.0 L 549.6,302.5 L 552.1,304.0 L 554.6,305.4 L 557.1,306.8 L 559.6,308.3 L 562.1,309.7 L 564.5,311.0 L 567.0,312.4 L 569.5,313.7 L 572.0,315.0 L 574.5,316.2 L 577.0,317.4 L 579.5,318.5 L 582.0,319.6 L 584.5,320.7 L 587.0,321.7 L 589.5,322.7 L 592.0,323.6 L 594.5,324.5 L 597.0,325.3 L 599.5,326.1 L 602.0,326.9 L 604.5,327.7 L 607.0,328.4 L 609.5,329.1 L 612.0,329.8 L 614.5,330.4 L 617.0,331.0" class="sig"/>
<path d="M 75.5,328.6 L 80.9,317.1 L 86.4,310.7 L 91.9,305.2 L 97.3,299.8 L 102.8,294.6 L 108.3,289.8 L 113.8,285.3 L 119.2,281.0 L 124.7,277.0 L 130.2,273.2 L 135.6,269.5 L 141.1,266.1 L 146.6,262.8 L 152.1,259.6 L 157.5,256.6 L 163.0,253.6 L 168.5,250.6 L 173.9,247.8 L 179.4,245.0 L 184.9,242.2 L 190.3,239.6 L 195.8,236.9 L 201.3,234.4 L 206.8,231.9 L 212.2,229.4 L 217.7,227.0 L 223.2,224.6 L 228.6,222.3 L 234.1,220.1 L 239.6,217.9 L 245.0,215.7 L 250.5,213.6 L 256.0,211.5 L 261.4,209.5 L 266.9,207.5 L 272.4,205.6 L 277.9,203.6 L 283.3,201.8 L 288.8,199.9 L 294.3,198.1 L 299.7,196.3 L 305.2,194.5 L 310.7,192.8 L 316.1,191.1 L 321.6,189.4 L 327.1,187.8 L 332.6,186.2 L 338.0,184.6 L 343.5,183.0 L 349.0,181.5 L 354.4,179.9 L 359.9,178.4 L 365.4,176.9 L 370.8,175.5 L 376.3,174.1 L 381.8,172.6 L 387.3,171.2 L 392.7,169.9 L 398.2,168.5 L 403.7,167.2 L 409.1,165.9 L 414.6,164.6 L 420.1,163.3 L 425.5,162.0 L 431.0,160.8 L 436.5,159.5 L 442.0,158.3 L 447.4,157.1 L 452.9,156.0 L 458.4,154.8 L 463.8,153.6 L 469.3,152.5 L 474.8,151.4 L 480.3,150.3 L 485.7,149.2 L 491.2,148.1 L 496.7,147.1 L 502.1,146.0 L 507.6,145.0 L 513.1,144.0 L 518.5,143.0 L 524.0,142.0 L 529.5,141.0 L 535.0,140.0 L 540.4,139.1 L 545.9,138.2 L 551.4,137.6 L 556.8,137.2 L 562.3,137.1 L 567.8,137.2 L 573.2,137.5 L 578.7,138.1 L 584.2,138.8 L 589.7,139.8 L 595.1,141.0 L 600.6,142.2 L 606.1,143.3 L 611.5,144.4 L 617.0,145.5" class="nt"/>
<path d="M 74.6,350.9 L 79.1,341.2 L 83.7,331.9 L 88.2,324.2 L 92.8,318.3 L 97.3,313.7 L 101.9,310.0 L 106.5,306.7 L 111.0,303.7 L 115.6,301.0 L 120.1,298.4 L 124.7,296.0 L 129.3,293.7 L 133.8,291.8 L 138.4,290.0 L 142.9,288.4 L 147.5,287.1 L 152.1,285.8 L 156.6,284.6 L 161.2,283.3 L 165.7,282.0 L 170.3,280.6 L 174.8,279.0 L 179.4,277.3 L 184.0,275.5 L 188.5,273.5 L 193.1,271.4 L 197.6,269.2 L 202.2,266.9 L 206.8,264.4 L 211.3,262.0 L 215.9,259.5 L 220.4,257.0 L 225.0,254.5 L 229.5,252.1 L 234.1,249.8 L 238.7,247.4 L 243.2,245.2 L 247.8,243.0 L 252.3,240.8 L 256.9,238.7 L 261.4,236.6 L 266.0,234.6 L 270.6,232.6 L 275.1,230.6 L 279.7,228.7 L 284.2,226.8 L 288.8,224.9 L 293.4,223.1 L 297.9,221.3 L 302.5,219.5 L 307.0,217.7 L 311.6,215.9 L 316.1,214.2 L 320.7,212.5 L 325.3,210.8 L 329.8,209.1 L 334.4,207.4 L 338.9,205.8 L 343.5,204.1 L 348.1,202.5 L 352.6,200.8 L 357.2,199.2 L 361.7,197.6 L 366.3,195.9 L 370.8,194.3 L 375.4,192.6 L 380.0,191.0 L 384.5,189.3 L 389.1,187.7 L 393.6,186.0 L 398.2,184.3 L 402.8,182.6 L 407.3,180.8 L 411.9,179.0 L 416.4,177.2 L 421.0,175.4 L 425.6,173.4 L 430.1,171.5 L 434.7,169.5 L 439.2,167.4 L 443.8,165.2 L 448.3,163.0 L 452.9,160.6 L 457.5,158.1 L 462.0,155.5 L 466.6,152.8 L 471.1,149.9 L 475.7,146.7 L 480.2,143.4 L 484.8,139.9 L 489.4,136.1 L 493.9,131.9 L 498.5,127.4 L 503.0,122.6 L 507.6,117.3 L 512.2,111.6 L 516.7,105.4 L 521.3,98.8 L 525.8,91.9 L 530.4,84.9 L 535.0,78.2 L 539.5,72.1 L 544.1,67.2 L 548.6,64.0 L 553.2,62.8 L 557.7,63.6 L 562.3,66.6 L 566.9,71.3 L 571.4,77.6 L 576.0,85.1 L 580.5,93.4 L 585.1,102.2 L 589.7,111.0 L 594.2,119.7 L 598.8,128.0 L 603.3,135.8 L 607.9,143.2 L 612.4,150.0 L 617.0,156.3" class="fw"/>
<line x1="201.44" y1="247.63" x2="201.44" y2="286.95" class="err"/>
<line x1="198.44" y1="247.63" x2="204.44" y2="247.63" class="err"/>
<line x1="198.44" y1="286.95" x2="204.44" y2="286.95" class="err"/>
<circle cx="201.44" cy="267.29" r="2.5" class="obs"/>
<line x1="326.63" y1="189.24" x2="326.63" y2="228.56" class="err"/>
<line x1="323.63" y1="189.24" x2="329.63" y2="189.24" class="err"/>
<line x1="323.63" y1="228.56" x2="329.63" y2="228.56" class="err"/>
<circle cx="326.63" cy="208.90" r="2.5" class="obs"/>
<line x1="458.07" y1="135.61" x2="458.07" y2="174.94" class="err"/>
<line x1="455.07" y1="135.61" x2="461.07" y2="135.61" class="err"/>
<line x1="455.07" y1="174.94" x2="461.07" y2="174.94" class="err"/>
<circle cx="458.07" cy="155.27" r="2.5" class="obs"/>
<line x1="583.25" y1="83.18" x2="583.25" y2="122.51" class="err"/>
<line x1="580.25" y1="83.18" x2="586.25" y2="83.18" class="err"/>
<line x1="580.25" y1="122.51" x2="586.25" y2="122.51" class="err"/>
<circle cx="583.25" cy="102.84" r="2.5" class="obs"/>
<g class="legend">
<line x1="82" y1="69" x2="106" y2="69" class="fw"/>
<text x="112" y="73" class="lbl-l">framework fit</text>
<line x1="82" y1="87" x2="106" y2="87" class="nt"/>
<text x="112" y="91" class="lbl-l">Newtonian (no halo)</text>
<circle cx="94" cy="105" r="2.5" class="obs"/>
<text x="112" y="109" class="lbl">observed V±err</text>
</g>
<g class="legend">
<line x1="442" y1="69" x2="466" y2="69" class="rho"/>
<text x="472" y="73" class="lbl-r">ρ(r) raw</text>
<line x1="442" y1="87" x2="466" y2="87" class="sig"/>
<text x="472" y="91" class="lbl-s">Σ(r) cumulative</text>
<text x="442" y="113" class="lbl-r">ρ peak: 357 M☉/pc²</text>
</g>
<rect x="705" y="55" width="170" height="170" class="preview-bg"/>
<defs><radialGradient id="g_UGC07232" cx="0.5" cy="0.5" r="0.5">
  <stop offset="0.0000" stop-color="rgb(255,63.75,63.75)"/>
  <stop offset="0.0313" stop-color="rgb(255,63.75,63.75)"/>
  <stop offset="0.0625" stop-color="rgb(255,63.75,63.75)"/>
  <stop offset="0.0938" stop-color="rgb(255,63.75,63.75)"/>
  <stop offset="0.1250" stop-color="rgb(255,63.75,63.75)"/>
  <stop offset="0.1563" stop-color="rgb(255,63.75,63.75)"/>
  <stop offset="0.1875" stop-color="rgb(255,63.75,63.75)"/>
  <stop offset="0.2188" stop-color="rgb(255,63.75,63.75)"/>
  <stop offset="0.2500" stop-color="rgb(255,63.75,63.75)"/>
  <stop offset="0.2813" stop-color="rgb(255,63.75,63.75)"/>
  <stop offset="0.3125" stop-color="rgb(255,63.75,63.75)"/>
  <stop offset="0.3438" stop-color="rgb(255,63.75,63.75)"/>
  <stop offset="0.3750" stop-color="rgb(255,63.75,63.75)"/>
  <stop offset="0.4063" stop-color="rgb(255,63.75,63.75)"/>
  <stop offset="0.4375" stop-color="rgb(255,63.75,63.75)"/>
  <stop offset="0.4688" stop-color="rgb(255,63.75,63.75)"/>
  <stop offset="0.5000" stop-color="rgb(253,63.25,63.25)"/>
  <stop offset="0.5313" stop-color="rgb(250,62.5,62.5)"/>
  <stop offset="0.5625" stop-color="rgb(247,61.75,61.75)"/>
  <stop offset="0.5938" stop-color="rgb(244,61,61)"/>
  <stop offset="0.6250" stop-color="rgb(242,60.5,60.5)"/>
  <stop offset="0.6563" stop-color="rgb(239,59.75,59.75)"/>
  <stop offset="0.6875" stop-color="rgb(236,59,59)"/>
  <stop offset="0.7188" stop-color="rgb(233,58.25,58.25)"/>
  <stop offset="0.7500" stop-color="rgb(230,57.5,57.5)"/>
  <stop offset="0.7813" stop-color="rgb(228,57,57)"/>
  <stop offset="0.8125" stop-color="rgb(225,56.25,56.25)"/>
  <stop offset="0.8438" stop-color="rgb(222,55.5,55.5)"/>
  <stop offset="0.8750" stop-color="rgb(219,54.75,54.75)"/>
  <stop offset="0.9063" stop-color="rgb(213,53.25,53.25)"/>
  <stop offset="0.9375" stop-color="rgb(159,39.75,39.75)"/>
  <stop offset="0.9688" stop-color="rgb(104,26,26)"/>
  <stop offset="1.0000" stop-color="rgb(0,0,0)"/>
</radialGradient></defs>
<circle cx="790" cy="140" r="81" fill="url(#g_UGC07232)"/>
<text x="790" y="49" text-anchor="middle" class="preview-lbl">face-on luminance from ρ(r)</text>
<text x="790" y="239" text-anchor="middle" class="preview-lbl">edge at r = 0.8 kpc</text>
</svg>