<svg xmlns="http://www.w3.org/2000/svg" viewBox="0 0 720 420" width="720" height="420" font-family="sans-serif" font-size="12">
<style>
  .ax { stroke: #333; stroke-width: 1; fill: none; }
  .grid { stroke: #ddd; stroke-width: 0.5; fill: none; }
  .lbl { fill: #333; }
  .lbl-l { fill: #0066cc; }
  .lbl-r { fill: #b03030; }
  .obs { fill: #222; }
  .err { stroke: #555; stroke-width: 0.8; fill: none; }
  .fw { stroke: #0066cc; stroke-width: 2.2; fill: none; }
  .nt { stroke: #cc6600; stroke-width: 1.6; fill: none; stroke-dasharray: 5,3; }
  .rho { stroke: #b03030; stroke-width: 2.0; fill: none; }
  .sig { stroke: #b03030; stroke-width: 1.6; fill: none; stroke-dasharray: 4,2; opacity: 0.85; }
  .title { fill: #111; font-size: 16px; font-weight: 600; }
  .subtitle { fill: #555; font-size: 11px; }
  .legend { font-size: 11px; }
</style>
<text x="360.0" y="22" text-anchor="middle" class="title">UGC06917</text>
<text x="360.0" y="38" text-anchor="middle" class="subtitle">rMax=10.5 kpc, N=11, RMS=1.0 km/s (1.1%), amp=105</text>
<line x1="70" y1="365.0" x2="635" y2="365.0" class="grid"/>
<text x="64" y="369.0" text-anchor="end" class="lbl-l">0</text>
<line x1="70" y1="303.0" x2="635" y2="303.0" class="grid"/>
<text x="64" y="307.0" text-anchor="end" class="lbl-l">26</text>
<line x1="70" y1="241.00000000000003" x2="635" y2="241.00000000000003" class="grid"/>
<text x="64" y="245.00000000000003" text-anchor="end" class="lbl-l">51</text>
<line x1="70" y1="179.00000000000006" x2="635" y2="179.00000000000006" class="grid"/>
<text x="64" y="183.00000000000006" text-anchor="end" class="lbl-l">77</text>
<line x1="70" y1="117.00000000000003" x2="635" y2="117.00000000000003" class="grid"/>
<text x="64" y="121.00000000000003" text-anchor="end" class="lbl-l">103</text>
<line x1="70" y1="55.0" x2="635" y2="55.0" class="grid"/>
<text x="64" y="59.0" text-anchor="end" class="lbl-l">129</text>
<text x="641" y="369.0" text-anchor="start" class="lbl-r">0.0</text>
<text x="641" y="327.6666666666667" text-anchor="start" class="lbl-r">0.2</text>
<text x="641" y="286.33333333333337" text-anchor="start" class="lbl-r">0.4</text>
<text x="641" y="245.00000000000003" text-anchor="start" class="lbl-r">0.6</text>
<text x="641" y="203.66666666666666" text-anchor="start" class="lbl-r">0.8</text>
<text x="641" y="162.33333333333334" text-anchor="start" class="lbl-r">1.0</text>
<line x1="70.0" y1="55" x2="70.0" y2="365" class="grid"/>
<text x="70.0" y="381" text-anchor="middle" class="lbl">0.0</text>
<line x1="164.16666666666669" y1="55" x2="164.16666666666669" y2="365" class="grid"/>
<text x="164.16666666666669" y="381" text-anchor="middle" class="lbl">1.8</text>
<line x1="258.33333333333337" y1="55" x2="258.33333333333337" y2="365" class="grid"/>
<text x="258.33333333333337" y="381" text-anchor="middle" class="lbl">3.7</text>
<line x1="352.49999999999994" y1="55" x2="352.49999999999994" y2="365" class="grid"/>
<text x="352.49999999999994" y="381" text-anchor="middle" class="lbl">5.5</text>
<line x1="446.6666666666667" y1="55" x2="446.6666666666667" y2="365" class="grid"/>
<text x="446.6666666666667" y="381" text-anchor="middle" class="lbl">7.3</text>
<line x1="540.8333333333334" y1="55" x2="540.8333333333334" y2="365" class="grid"/>
<text x="540.8333333333334" y="381" text-anchor="middle" class="lbl">9.2</text>
<line x1="634.9999999999999" y1="55" x2="634.9999999999999" y2="365" class="grid"/>
<text x="634.9999999999999" y="381" text-anchor="middle" class="lbl">11.0</text>
<text x="352.5" y="408" text-anchor="middle" class="lbl">radius (kpc)</text>
<text x="16" y="210.0" text-anchor="middle" class="lbl-l" transform="rotate(-90, 16, 210.0)">velocity (km/s)</text>
<text x="704" y="210.0" text-anchor="middle" class="lbl-r" transform="rotate(-90, 704, 210.0)">mass profile (normalized to peak)</text>
<rect x="70" y="55" width="565" height="310" class="ax"/>
<path d="M 70.0,158.3 L 72.6,168.5 L 75.2,178.6 L 77.7,188.7 L 80.3,198.8 L 82.9,208.6 L 85.5,212.3 L 88.1,216.0 L 90.6,219.6 L 93.2,223.3 L 95.8,227.0 L 98.4,230.7 L 101.0,234.3 L 103.5,238.0 L 106.1,241.7 L 108.7,245.4 L 111.3,249.0 L 113.9,252.7 L 116.4,256.4 L 119.0,258.1 L 121.6,258.5 L 124.2,258.9 L 126.8,259.3 L 129.3,259.7 L 131.9,260.2 L 134.5,260.6 L 137.1,261.0 L 139.7,261.4 L 142.2,261.8 L 144.8,262.2 L 147.4,262.6 L 150.0,263.0 L 152.6,263.5 L 155.1,263.9 L 157.7,264.3 L 160.3,264.7 L 162.9,265.1 L 165.5,265.5 L 168.0,265.9 L 170.6,266.4 L 173.2,266.8 L 175.8,267.2 L 178.4,267.6 L 180.9,268.0 L 183.5,268.4 L 186.1,268.8 L 188.7,269.2 L 191.3,269.7 L 193.8,270.1 L 196.4,270.5 L 199.0,270.9 L 201.6,271.3 L 204.2,271.7 L 206.7,272.1 L 209.3,272.6 L 211.9,273.0 L 214.5,273.4 L 217.1,273.8 L 219.6,274.2 L 222.2,274.6 L 224.8,275.0 L 227.4,275.4 L 230.0,275.9 L 232.5,276.3 L 235.1,276.7 L 237.7,277.1 L 240.3,277.5 L 242.9,277.9 L 245.4,278.3 L 248.0,278.7 L 250.6,279.2 L 253.2,279.6 L 255.8,280.0 L 258.3,280.4 L 260.9,280.8 L 263.5,281.2 L 266.1,281.6 L 268.7,282.1 L 271.2,282.5 L 273.8,282.9 L 276.4,283.3 L 279.0,283.7 L 281.6,284.1 L 284.1,284.5 L 286.7,284.9 L 289.3,285.4 L 291.9,285.8 L 294.5,286.2 L 297.0,286.6 L 299.6,287.0 L 302.2,287.4 L 304.8,287.8 L 307.4,288.3 L 309.9,288.7 L 312.5,289.1 L 315.1,289.5 L 317.7,289.9 L 320.3,290.3 L 322.8,290.7 L 325.4,291.1 L 328.0,291.6 L 330.6,292.0 L 333.2,292.4 L 335.7,292.8 L 338.3,293.2 L 340.9,293.6 L 343.5,294.0 L 346.1,294.5 L 348.6,294.9 L 351.2,295.3 L 353.8,295.7 L 356.4,296.1 L 358.9,296.5 L 361.5,296.9 L 364.1,297.3 L 366.7,297.8 L 369.3,298.2 L 371.8,298.6 L 374.4,298.8 L 377.0,299.1 L 379.6,299.4 L 382.2,299.7 L 384.7,299.9 L 387.3,300.2 L 389.9,300.5 L 392.5,300.8 L 395.1,301.0 L 397.6,301.3 L 400.2,301.6 L 402.8,301.8 L 405.4,302.1 L 408.0,302.4 L 410.5,302.7 L 413.1,302.9 L 415.7,303.2 L 418.3,303.5 L 420.9,303.8 L 423.4,304.0 L 426.0,304.3 L 428.6,304.6 L 431.2,304.8 L 433.8,305.1 L 436.3,305.4 L 438.9,305.7 L 441.5,305.9 L 444.1,306.2 L 446.7,306.5 L 449.2,306.8 L 451.8,307.0 L 454.4,307.3 L 457.0,307.6 L 459.6,307.8 L 462.1,308.1 L 464.7,308.4 L 467.3,308.7 L 469.9,308.9 L 472.5,309.2 L 475.0,309.5 L 477.6,309.7 L 480.2,310.0 L 482.8,310.3 L 485.4,310.6 L 487.9,310.8 L 490.5,311.1 L 493.1,311.4 L 495.7,311.7 L 498.3,311.9 L 500.8,312.2 L 503.4,312.5 L 506.0,312.7 L 508.6,313.0 L 511.2,313.3 L 513.7,313.6 L 516.3,313.8 L 518.9,314.1 L 521.5,314.4 L 524.1,314.7 L 526.6,314.9 L 529.2,315.2 L 531.8,315.5 L 534.4,315.7 L 537.0,316.0 L 539.5,316.3 L 542.1,316.6 L 544.7,316.8 L 547.3,317.1 L 549.9,317.4 L 552.4,317.7 L 555.0,317.9 L 557.6,318.2 L 560.2,318.5 L 562.8,318.7 L 565.3,319.0 L 567.9,319.3 L 570.5,319.6 L 573.1,319.8 L 575.7,320.1 L 578.2,320.4 L 580.8,320.7 L 583.4,320.9 L 586.0,321.2 L 588.6,321.5 L 591.1,321.7 L 593.7,322.0 L 596.3,322.3 L 598.9,324.2 L 601.5,335.6 L 604.0,347.1 L 606.6,358.5 L 609.2,365.0 L 611.8,365.0 L 614.4,365.0 L 616.9,365.0 L 619.5,365.0 L 622.1,365.0 L 624.7,365.0 L 627.3,365.0 L 629.8,365.0 L 632.4,365.0 L 635.0,365.0" class="rho"/>
<path d="M 70.0,158.3 L 72.6,158.5 L 75.2,158.8 L 77.7,159.2 L 80.3,159.6 L 82.9,160.3 L 85.5,161.0 L 88.1,161.9 L 90.6,162.8 L 93.2,163.8 L 95.8,164.8 L 98.4,165.9 L 101.0,167.0 L 103.5,168.2 L 106.1,169.4 L 108.7,170.5 L 111.3,171.7 L 113.9,172.9 L 116.4,174.0 L 119.0,175.2 L 121.6,176.3 L 124.2,177.4 L 126.8,178.5 L 129.3,179.6 L 131.9,180.7 L 134.5,181.7 L 137.1,182.8 L 139.7,183.8 L 142.2,184.8 L 144.8,185.8 L 147.4,186.8 L 150.0,187.8 L 152.6,188.8 L 155.1,189.8 L 157.7,190.7 L 160.3,191.7 L 162.9,192.7 L 165.5,193.6 L 168.0,194.6 L 170.6,195.6 L 173.2,196.5 L 175.8,197.5 L 178.4,198.5 L 180.9,199.4 L 183.5,200.4 L 186.1,201.4 L 188.7,202.4 L 191.3,203.3 L 193.8,204.3 L 196.4,205.3 L 199.0,206.2 L 201.6,207.2 L 204.2,208.2 L 206.7,209.2 L 209.3,210.2 L 211.9,211.1 L 214.5,212.1 L 217.1,213.1 L 219.6,214.1 L 222.2,215.1 L 224.8,216.1 L 227.4,217.0 L 230.0,218.0 L 232.5,219.0 L 235.1,220.0 L 237.7,221.0 L 240.3,222.0 L 242.9,223.0 L 245.4,224.0 L 248.0,224.9 L 250.6,225.9 L 253.2,226.9 L 255.8,227.9 L 258.3,228.9 L 260.9,229.9 L 263.5,230.9 L 266.1,231.8 L 268.7,232.8 L 271.2,233.8 L 273.8,234.8 L 276.4,235.8 L 279.0,236.7 L 281.6,237.7 L 284.1,238.7 L 286.7,239.7 L 289.3,240.6 L 291.9,241.6 L 294.5,242.6 L 297.0,243.5 L 299.6,244.5 L 302.2,245.4 L 304.8,246.4 L 307.4,247.3 L 309.9,248.3 L 312.5,249.2 L 315.1,250.2 L 317.7,251.1 L 320.3,252.0 L 322.8,253.0 L 325.4,253.9 L 328.0,254.8 L 330.6,255.7 L 333.2,256.7 L 335.7,257.6 L 338.3,258.5 L 340.9,259.4 L 343.5,260.3 L 346.1,261.2 L 348.6,262.0 L 351.2,262.9 L 353.8,263.8 L 356.4,264.7 L 358.9,265.5 L 361.5,266.4 L 364.1,267.2 L 366.7,268.1 L 369.3,268.9 L 371.8,269.8 L 374.4,270.6 L 377.0,271.4 L 379.6,272.2 L 382.2,273.0 L 384.7,273.8 L 387.3,274.6 L 389.9,275.4 L 392.5,276.2 L 395.1,277.0 L 397.6,277.8 L 400.2,278.5 L 402.8,279.3 L 405.4,280.1 L 408.0,280.8 L 410.5,281.6 L 413.1,282.3 L 415.7,283.1 L 418.3,283.8 L 420.9,284.5 L 423.4,285.3 L 426.0,286.0 L 428.6,286.7 L 431.2,287.4 L 433.8,288.1 L 436.3,288.9 L 438.9,289.6 L 441.5,290.3 L 444.1,291.0 L 446.7,291.7 L 449.2,292.3 L 451.8,293.0 L 454.4,293.7 L 457.0,294.4 L 459.6,295.1 L 462.1,295.8 L 464.7,296.4 L 467.3,297.1 L 469.9,297.8 L 472.5,298.4 L 475.0,299.1 L 477.6,299.7 L 480.2,300.4 L 482.8,301.0 L 485.4,301.7 L 487.9,302.3 L 490.5,303.0 L 493.1,303.6 L 495.7,304.3 L 498.3,304.9 L 500.8,305.5 L 503.4,306.2 L 506.0,306.8 L 508.6,307.4 L 511.2,308.0 L 513.7,308.7 L 516.3,309.3 L 518.9,309.9 L 521.5,310.5 L 524.1,311.1 L 526.6,311.7 L 529.2,312.4 L 531.8,313.0 L 534.4,313.6 L 537.0,314.2 L 539.5,314.8 L 542.1,315.4 L 544.7,316.0 L 547.3,316.6 L 549.9,317.3 L 552.4,317.9 L 555.0,318.5 L 557.6,319.1 L 560.2,319.7 L 562.8,320.3 L 565.3,321.0 L 567.9,321.6 L 570.5,322.2 L 573.1,322.8 L 575.7,323.5 L 578.2,324.1 L 580.8,324.7 L 583.4,325.4 L 586.0,326.0 L 588.6,326.7 L 591.1,327.3 L 593.7,328.0 L 596.3,328.6 L 598.9,329.2 L 601.5,329.9 L 604.0,330.5 L 606.6,331.1 L 609.2,331.7 L 611.8,332.3 L 614.4,332.9 L 616.9,333.5 L 619.5,334.0 L 622.1,334.5 L 624.7,335.0 L 627.3,335.5 L 629.8,336.0 L 632.4,336.5 L 635.0,336.9" class="sig"/>
<path d="M 75.7,316.2 L 81.3,298.7 L 87.0,286.7 L 92.6,276.8 L 98.2,268.5 L 103.9,261.5 L 109.5,255.4 L 115.2,250.3 L 120.8,245.7 L 126.5,241.3 L 132.2,236.9 L 137.8,232.7 L 143.4,228.5 L 149.1,224.4 L 154.8,220.5 L 160.4,216.7 L 166.1,213.0 L 171.7,209.4 L 177.3,206.0 L 183.0,202.6 L 188.6,199.3 L 194.3,196.1 L 200.0,193.1 L 205.6,190.1 L 211.2,187.2 L 216.9,184.3 L 222.5,181.6 L 228.2,178.9 L 233.8,176.3 L 239.5,173.8 L 245.2,171.3 L 250.8,168.9 L 256.5,166.6 L 262.1,164.3 L 267.8,162.1 L 273.4,160.0 L 279.1,157.9 L 284.7,155.8 L 290.4,153.8 L 296.0,151.9 L 301.6,150.0 L 307.3,148.2 L 312.9,146.4 L 318.6,144.7 L 324.2,143.0 L 329.9,141.3 L 335.6,139.7 L 341.2,138.2 L 346.9,136.7 L 352.5,135.2 L 358.1,133.7 L 363.8,132.4 L 369.4,131.0 L 375.1,129.7 L 380.8,128.4 L 386.4,127.1 L 392.1,125.9 L 397.7,124.7 L 403.3,123.4 L 409.0,122.3 L 414.6,121.1 L 420.3,120.0 L 425.9,118.9 L 431.6,117.8 L 437.2,116.7 L 442.9,115.6 L 448.6,114.6 L 454.2,113.6 L 459.9,112.6 L 465.5,111.6 L 471.1,110.7 L 476.8,109.8 L 482.4,108.9 L 488.1,108.0 L 493.8,107.1 L 499.4,106.3 L 505.1,105.4 L 510.7,104.6 L 516.3,103.8 L 522.0,103.1 L 527.7,102.3 L 533.3,101.6 L 539.0,100.9 L 544.6,100.2 L 550.2,99.5 L 555.9,98.9 L 561.6,98.2 L 567.2,97.6 L 572.9,97.0 L 578.5,96.5 L 584.1,95.9 L 589.8,95.4 L 595.5,94.8 L 601.1,94.4 L 606.8,95.0 L 612.4,96.4 L 618.1,97.8 L 623.7,99.2 L 629.3,100.5 L 635.0,101.9" class="nt"/>
<path d="M 74.7,345.5 L 79.4,331.4 L 84.1,316.6 L 88.8,303.0 L 93.5,291.0 L 98.2,280.6 L 103.0,271.7 L 107.7,264.4 L 112.4,258.4 L 117.1,253.5 L 121.8,249.4 L 126.5,246.0 L 131.2,242.8 L 135.9,239.7 L 140.6,236.7 L 145.3,233.5 L 150.0,230.3 L 154.8,227.0 L 159.5,223.7 L 164.2,220.3 L 168.9,216.8 L 173.6,213.4 L 178.3,209.9 L 183.0,206.5 L 187.7,203.1 L 192.4,199.7 L 197.1,196.3 L 201.8,193.0 L 206.5,189.8 L 211.2,186.6 L 216.0,183.5 L 220.7,180.4 L 225.4,177.5 L 230.1,174.5 L 234.8,171.7 L 239.5,168.9 L 244.2,166.2 L 248.9,163.6 L 253.6,161.0 L 258.3,158.5 L 263.0,156.1 L 267.8,153.8 L 272.5,151.6 L 277.2,149.4 L 281.9,147.4 L 286.6,145.4 L 291.3,143.5 L 296.0,141.6 L 300.7,139.9 L 305.4,138.2 L 310.1,136.7 L 314.8,135.2 L 319.5,133.8 L 324.2,132.5 L 329.0,131.3 L 333.7,130.2 L 338.4,129.2 L 343.1,128.3 L 347.8,127.5 L 352.5,126.8 L 357.2,126.3 L 361.9,125.8 L 366.6,125.4 L 371.3,125.1 L 376.0,124.8 L 380.8,124.6 L 385.5,124.4 L 390.2,124.1 L 394.9,123.9 L 399.6,123.6 L 404.3,123.3 L 409.0,123.0 L 413.7,122.7 L 418.4,122.3 L 423.1,122.0 L 427.8,121.6 L 432.5,121.3 L 437.2,120.9 L 442.0,120.5 L 446.7,120.1 L 451.4,119.7 L 456.1,119.4 L 460.8,118.9 L 465.5,118.5 L 470.2,118.1 L 474.9,117.7 L 479.6,117.2 L 484.3,116.8 L 489.0,116.3 L 493.7,115.8 L 498.5,115.2 L 503.2,114.7 L 507.9,114.0 L 512.6,113.4 L 517.3,112.7 L 522.0,111.9 L 526.7,111.0 L 531.4,110.1 L 536.1,109.0 L 540.8,107.9 L 545.5,106.6 L 550.2,105.1 L 555.0,103.4 L 559.7,101.6 L 564.4,99.6 L 569.1,97.3 L 573.8,94.9 L 578.5,92.5 L 583.2,90.1 L 587.9,88.1 L 592.6,86.8 L 597.3,86.7 L 602.0,88.0 L 606.8,90.9 L 611.5,95.1 L 616.2,100.3 L 620.9,106.2 L 625.6,112.4 L 630.3,118.6 L 635.0,124.7" class="fw"/>
<line x1="159.2222845302354" y1="213.974358974359" x2="159.2222845302354" y2="230.83527583527584" class="err"/>
<line x1="156.2222845302354" y1="213.974358974359" x2="162.2222845302354" y2="213.974358974359" class="err"/>
<line x1="156.2222845302354" y1="230.83527583527584" x2="162.2222845302354" y2="230.83527583527584" class="err"/>
<circle cx="159.2222845302354" cy="222.40481740481738" r="2.5" class="obs"/>
<line x1="203.8334267953531" y1="183.8655788655789" x2="203.8334267953531" y2="203.13519813519815" class="err"/>
<line x1="200.8334267953531" y1="183.8655788655789" x2="206.8334267953531" y2="183.8655788655789" class="err"/>
<line x1="200.8334267953531" y1="203.13519813519815" x2="206.8334267953531" y2="203.13519813519815" class="err"/>
<circle cx="203.8334267953531" cy="193.5003885003885" r="2.5" class="obs"/>
<line x1="249.4701125608183" y1="150.86635586635586" x2="249.4701125608183" y2="172.0629370629371" class="err"/>
<line x1="246.4701125608183" y1="150.86635586635586" x2="252.4701125608183" y2="150.86635586635586" class="err"/>
<line x1="246.4701125608183" y1="172.0629370629371" x2="252.4701125608183" y2="172.0629370629371" class="err"/>
<circle cx="249.4701125608183" cy="161.46464646464648" r="2.5" class="obs"/>
<line x1="294.081254825936" y1="128.94716394716397" x2="294.081254825936" y2="150.62548562548565" class="err"/>
<line x1="291.081254825936" y1="128.94716394716397" x2="297.081254825936" y2="128.94716394716397" class="err"/>
<line x1="291.081254825936" y1="150.62548562548565" x2="297.081254825936" y2="150.62548562548565" class="err"/>
<circle cx="294.081254825936" cy="139.78632478632483" r="2.5" class="obs"/>
<line x1="338.69239709105375" y1="121.72105672105675" x2="338.69239709105375" y2="138.5819735819736" class="err"/>
<line x1="335.69239709105375" y1="121.72105672105675" x2="341.69239709105375" y2="121.72105672105675" class="err"/>
<line x1="335.69239709105375" y1="138.5819735819736" x2="341.69239709105375" y2="138.5819735819736" class="err"/>
<circle cx="338.69239709105375" cy="130.15151515151518" r="2.5" class="obs"/>
<line x1="383.3035393561714" y1="115.69930069930075" x2="383.3035393561714" y2="132.5602175602176" class="err"/>
<line x1="380.3035393561714" y1="115.69930069930075" x2="386.3035393561714" y2="115.69930069930075" class="err"/>
<line x1="380.3035393561714" y1="132.5602175602176" x2="386.3035393561714" y2="132.5602175602176" class="err"/>
<circle cx="383.3035393561714" cy="124.12975912975918" r="2.5" class="obs"/>
<line x1="427.91468162128916" y1="112.08624708624711" x2="427.91468162128916" y2="131.3558663558664" class="err"/>
<line x1="424.91468162128916" y1="112.08624708624711" x2="430.91468162128916" y2="112.08624708624711" class="err"/>
<line x1="424.91468162128916" y1="131.3558663558664" x2="430.91468162128916" y2="131.3558663558664" class="err"/>
<circle cx="427.91468162128916" cy="121.72105672105675" r="2.5" class="obs"/>
<line x1="472.52582388640684" y1="108.47319347319352" x2="472.52582388640684" y2="125.33411033411035" class="err"/>
<line x1="469.52582388640684" y1="108.47319347319352" x2="475.52582388640684" y2="108.47319347319352" class="err"/>
<line x1="469.52582388640684" y1="125.33411033411035" x2="475.52582388640684" y2="125.33411033411035" class="err"/>
<circle cx="472.52582388640684" cy="116.90365190365196" r="2.5" class="obs"/>
<line x1="517.1369661515246" y1="102.45143745143747" x2="517.1369661515246" y2="121.72105672105675" class="err"/>
<line x1="514.1369661515246" y1="102.45143745143747" x2="520.1369661515246" y2="102.45143745143747" class="err"/>
<line x1="514.1369661515246" y1="121.72105672105675" x2="520.1369661515246" y2="121.72105672105675" class="err"/>
<circle cx="517.1369661515246" cy="112.08624708624711" r="2.5" class="obs"/>
<line x1="562.2608801668159" y1="88.24009324009324" x2="562.2608801668159" y2="111.84537684537689" class="err"/>
<line x1="559.2608801668159" y1="88.24009324009324" x2="565.2608801668159" y2="88.24009324009324" class="err"/>
<line x1="559.2608801668159" y1="111.84537684537689" x2="565.2608801668159" y2="111.84537684537689" class="err"/>
<circle cx="562.2608801668159" cy="100.04273504273509" r="2.5" class="obs"/>
<line x1="606.8720224319337" y1="83.18181818181823" x2="606.8720224319337" y2="112.08624708624711" class="err"/>
<line x1="603.8720224319337" y1="83.18181818181823" x2="609.8720224319337" y2="83.18181818181823" class="err"/>
<line x1="603.8720224319337" y1="112.08624708624711" x2="609.8720224319337" y2="112.08624708624711" class="err"/>
<circle cx="606.8720224319337" cy="97.63403263403268" r="2.5" class="obs"/>
<g class="legend">
<line x1="82" y1="69" x2="106" y2="69" class="fw"/>
<text x="112" y="73" class="lbl-l">framework fit</text>
<line x1="82" y1="87" x2="106" y2="87" class="nt"/>
<text x="112" y="91" class="lbl-l">Newtonian (no halo)</text>
<circle cx="94" cy="105" r="2.5" class="obs"/>
<text x="112" y="109" class="lbl">observed V±err</text>
</g>
<g class="legend">
<line x1="460" y1="69" x2="484" y2="69" class="rho"/>
<text x="490" y="73" class="lbl-r">ρ(r) raw</text>
<line x1="460" y1="87" x2="484" y2="87" class="sig"/>
<text x="490" y="91" class="lbl-r">Σ(r) smoothed</text>
<text x="460" y="113" class="lbl-r">ρ peak: 297 M☉/pc²</text>
</g>
</svg>