<svg xmlns="http://www.w3.org/2000/svg" viewBox="0 0 960 450" width="960" height="450" font-family="sans-serif" font-size="12">
<style>
  .ax { stroke: #333; stroke-width: 1; fill: none; }
  .grid { stroke: #ddd; stroke-width: 0.5; fill: none; }
  .lbl { fill: #333; }
  .lbl-l { fill: #0066cc; }
  .lbl-r { fill: #b03030; }
  .obs { fill: #222; }
  .err { stroke: #555; stroke-width: 0.8; fill: none; }
  .fw { stroke: #0066cc; stroke-width: 2.2; fill: none; }
  .nt { stroke: #cc6600; stroke-width: 1.6; fill: none; stroke-dasharray: 5,3; }
  .mond { stroke: #7b2cbf; stroke-width: 1.8; fill: none; stroke-dasharray: 7,3; }
  .lbl-p { fill: #cc7000; }
  .lbl-m { fill: #7b2cbf; }
  .rho { stroke: #b03030; stroke-width: 2.0; fill: none; }
  .phot { stroke: #cc7000; stroke-width: 1.8; fill: none; }
  .mbar { stroke: #8e44ad; stroke-width: 1.8; fill: none; opacity: 0.9; }
  .mph { stroke: #c77dff; stroke-width: 1.6; fill: none; stroke-dasharray: 4,3; opacity: 0.95; }
  .title { fill: #111; font-size: 16px; font-weight: 600; }
  .subtitle { fill: #555; font-size: 11px; }
  .preview-bg { fill: #000; }
  .preview-lbl { fill: #888; font-size: 10px; }
  .legend { font-size: 11px; }
</style>
<text x="378.5" y="22" text-anchor="middle" class="title">UGC07603</text>
<text x="378.5" y="38" text-anchor="middle" class="subtitle">rMax=4.1 kpc, N=12, FW=1.0 km/s, 1.7%, 0.34σ, MOND=6.9 km/s, 13.9%, 2.37σ, amp=104</text>
<line x1="70" y1="395.0" x2="687" y2="395.0" class="grid"/>
<text x="64" y="399.0" text-anchor="end" class="lbl-l">0</text>
<line x1="70" y1="327.0" x2="687" y2="327.0" class="grid"/>
<text x="64" y="331.0" text-anchor="end" class="lbl-l">15</text>
<line x1="70" y1="259.0" x2="687" y2="259.0" class="grid"/>
<text x="64" y="263.0" text-anchor="end" class="lbl-l">29</text>
<line x1="70" y1="191.0" x2="687" y2="191.0" class="grid"/>
<text x="64" y="195.0" text-anchor="end" class="lbl-l">44</text>
<line x1="70" y1="123.0" x2="687" y2="123.0" class="grid"/>
<text x="64" y="127.0" text-anchor="end" class="lbl-l">59</text>
<line x1="70" y1="55.0" x2="687" y2="55.0" class="grid"/>
<text x="64" y="59.0" text-anchor="end" class="lbl-l">74</text>
<text x="693" y="399.0" text-anchor="start" class="lbl-r">0.0</text>
<text x="693" y="353.7" text-anchor="start" class="lbl-r">0.2</text>
<text x="693" y="308.3" text-anchor="start" class="lbl-r">0.4</text>
<text x="693" y="263.0" text-anchor="start" class="lbl-r">0.6</text>
<text x="693" y="217.7" text-anchor="start" class="lbl-r">0.8</text>
<text x="693" y="172.3" text-anchor="start" class="lbl-r">1.0</text>
<line x1="70.0" y1="55" x2="70.0" y2="395" class="grid"/>
<text x="70.0" y="411" text-anchor="middle" class="lbl">0.0</text>
<line x1="172.8" y1="55" x2="172.8" y2="395" class="grid"/>
<text x="172.8" y="411" text-anchor="middle" class="lbl">0.7</text>
<line x1="275.7" y1="55" x2="275.7" y2="395" class="grid"/>
<text x="275.7" y="411" text-anchor="middle" class="lbl">1.5</text>
<line x1="378.5" y1="55" x2="378.5" y2="395" class="grid"/>
<text x="378.5" y="411" text-anchor="middle" class="lbl">2.2</text>
<line x1="481.3" y1="55" x2="481.3" y2="395" class="grid"/>
<text x="481.3" y="411" text-anchor="middle" class="lbl">2.9</text>
<line x1="584.2" y1="55" x2="584.2" y2="395" class="grid"/>
<text x="584.2" y="411" text-anchor="middle" class="lbl">3.7</text>
<line x1="687.0" y1="55" x2="687.0" y2="395" class="grid"/>
<text x="687.0" y="411" text-anchor="middle" class="lbl">4.4</text>
<text x="378.5" y="438" text-anchor="middle" class="lbl">radius (kpc)</text>
<text x="16" y="225" text-anchor="middle" class="lbl-l" transform="rotate(-90, 16, 225)">velocity (km/s)</text>
<text x="724" y="225" text-anchor="middle" class="lbl-r" transform="rotate(-90, 724, 225)">profiles (normalized to peak)</text>
<rect x="70" y="55" width="617" height="340" class="ax"/>
<path d="M 70.0,168.3 L 72.8,171.2 L 75.6,174.0 L 78.5,176.9 L 81.3,179.7 L 84.1,182.6 L 86.9,185.4 L 89.7,188.3 L 92.5,191.1 L 95.4,194.0 L 98.2,196.9 L 101.0,199.7 L 103.8,202.6 L 106.6,205.4 L 109.4,208.3 L 112.3,209.4 L 115.1,209.7 L 117.9,210.1 L 120.7,210.5 L 123.5,210.9 L 126.3,211.2 L 129.2,211.6 L 132.0,212.0 L 134.8,212.4 L 137.6,212.7 L 140.4,213.1 L 143.3,213.5 L 146.1,213.8 L 148.9,214.2 L 151.7,214.8 L 154.5,215.6 L 157.3,216.3 L 160.2,217.0 L 163.0,217.8 L 165.8,218.5 L 168.6,219.3 L 171.4,220.0 L 174.2,220.8 L 177.1,221.5 L 179.9,222.2 L 182.7,223.0 L 185.5,223.7 L 188.3,224.5 L 191.1,225.2 L 194.0,226.0 L 196.8,226.7 L 199.6,227.5 L 202.4,228.2 L 205.2,228.9 L 208.1,229.7 L 210.9,230.4 L 213.7,231.2 L 216.5,231.9 L 219.3,232.7 L 222.1,233.4 L 225.0,234.1 L 227.8,234.9 L 230.6,235.6 L 233.4,236.4 L 236.2,237.1 L 239.0,237.9 L 241.9,238.6 L 244.7,239.4 L 247.5,240.1 L 250.3,240.8 L 253.1,241.6 L 255.9,242.3 L 258.8,243.1 L 261.6,243.8 L 264.4,244.6 L 267.2,245.3 L 270.0,246.0 L 272.8,246.8 L 275.7,247.5 L 278.5,248.3 L 281.3,249.0 L 284.1,249.8 L 286.9,250.5 L 289.8,251.3 L 292.6,252.0 L 295.4,252.7 L 298.2,253.5 L 301.0,254.2 L 303.8,255.0 L 306.7,255.7 L 309.5,256.5 L 312.3,257.2 L 315.1,257.9 L 317.9,258.7 L 320.7,259.4 L 323.6,260.2 L 326.4,260.9 L 329.2,261.7 L 332.0,262.4 L 334.8,263.2 L 337.6,263.9 L 340.5,264.6 L 343.3,265.4 L 346.1,266.1 L 348.9,266.9 L 351.7,267.6 L 354.6,268.4 L 357.4,269.1 L 360.2,269.9 L 363.0,270.6 L 365.8,271.3 L 368.6,272.1 L 371.5,272.8 L 374.3,273.6 L 377.1,274.3 L 379.9,275.1 L 382.7,275.8 L 385.5,276.5 L 388.4,277.3 L 391.2,278.0 L 394.0,278.8 L 396.8,279.5 L 399.6,280.3 L 402.4,280.8 L 405.3,281.3 L 408.1,281.8 L 410.9,282.2 L 413.7,282.7 L 416.5,283.2 L 419.4,283.7 L 422.2,284.2 L 425.0,284.7 L 427.8,285.2 L 430.6,285.7 L 433.4,286.2 L 436.3,286.7 L 439.1,287.2 L 441.9,287.7 L 444.7,288.2 L 447.5,288.6 L 450.3,289.1 L 453.2,289.6 L 456.0,290.1 L 458.8,290.6 L 461.6,291.1 L 464.4,291.6 L 467.2,292.1 L 470.1,292.6 L 472.9,293.1 L 475.7,293.6 L 478.5,294.1 L 481.3,294.5 L 484.2,295.0 L 487.0,295.5 L 489.8,296.0 L 492.6,296.5 L 495.4,297.0 L 498.2,297.5 L 501.1,298.0 L 503.9,298.5 L 506.7,299.0 L 509.5,299.5 L 512.3,300.0 L 515.1,300.5 L 518.0,300.9 L 520.8,301.4 L 523.6,301.9 L 526.4,302.4 L 529.2,302.9 L 532.0,303.4 L 534.9,303.9 L 537.7,304.4 L 540.5,304.9 L 543.3,305.4 L 546.1,305.9 L 548.9,306.4 L 551.8,306.9 L 554.6,307.3 L 557.4,307.8 L 560.2,308.3 L 563.0,308.8 L 565.9,309.3 L 568.7,309.8 L 571.5,310.3 L 574.3,310.8 L 577.1,311.3 L 579.9,311.8 L 582.8,312.3 L 585.6,312.8 L 588.4,313.3 L 591.2,313.7 L 594.0,314.2 L 596.8,314.7 L 599.7,315.2 L 602.5,315.7 L 605.3,316.2 L 608.1,316.7 L 610.9,317.2 L 613.7,317.7 L 616.6,318.2 L 619.4,318.7 L 622.2,319.2 L 625.0,319.6 L 627.8,320.1 L 630.7,320.6 L 633.5,321.1 L 636.3,321.6 L 639.1,325.9 L 641.9,336.4 L 644.7,346.9 L 647.6,357.4 L 650.4,367.9 L 653.2,378.5 L 656.0,389.0 L 658.8,395.0 L 661.6,395.0 L 664.5,395.0 L 667.3,395.0 L 670.1,395.0 L 672.9,395.0 L 675.7,395.0 L 678.5,395.0 L 681.4,395.0 L 684.2,395.0 L 687.0,395.0" class="rho"/>
<path d="M 117.6,168.3 L 165.2,254.2 L 212.8,334.8 L 261.8,357.6 L 309.5,377.4 L 357.1,385.7 L 404.7,390.1 L 453.7,392.5 L 501.3,393.7 L 548.9,394.3 L 596.5,394.6 L 645.5,395.0" class="phot"/>
<path d="M 117.6,168.3 L 165.2,184.8 L 212.8,230.9 L 261.8,261.8 L 309.5,269.8 L 357.1,307.1 L 404.7,360.6 L 453.7,387.0 L 501.3,385.1 L 548.9,374.7 L 596.5,372.8 L 645.5,377.3" class="mbar"/>
<path d="M 117.6,168.3 L 165.2,175.2 L 212.8,195.6 L 261.8,210.3 L 309.5,215.8 L 357.1,238.8 L 404.7,276.5 L 453.7,302.8 L 501.3,307.8 L 548.9,302.9 L 596.5,304.3 L 645.5,310.7" class="mph"/>
<path d="M 76.2,349.5 L 82.3,331.2 L 88.5,317.7 L 94.7,306.6 L 100.9,297.1 L 107.0,288.9 L 113.2,281.5 L 119.4,274.6 L 125.5,268.0 L 131.7,261.7 L 137.9,255.7 L 144.0,250.0 L 150.2,244.5 L 156.4,239.3 L 162.6,234.2 L 168.7,229.4 L 174.9,224.8 L 181.1,220.4 L 187.2,216.1 L 193.4,212.0 L 199.6,208.1 L 205.7,204.2 L 211.9,200.5 L 218.1,196.9 L 224.3,193.5 L 230.4,190.1 L 236.6,186.9 L 242.8,183.7 L 248.9,180.7 L 255.1,177.7 L 261.3,174.8 L 267.4,172.0 L 273.6,169.3 L 279.8,166.6 L 285.9,164.1 L 292.1,161.6 L 298.3,159.1 L 304.5,156.8 L 310.6,154.5 L 316.8,152.2 L 323.0,150.1 L 329.1,147.9 L 335.3,145.9 L 341.5,143.9 L 347.7,141.9 L 353.8,140.1 L 360.0,138.2 L 366.2,136.4 L 372.3,134.7 L 378.5,133.0 L 384.7,131.4 L 390.8,129.8 L 397.0,128.3 L 403.2,126.8 L 409.4,125.3 L 415.5,123.9 L 421.7,122.5 L 427.9,121.1 L 434.0,119.7 L 440.2,118.4 L 446.4,117.1 L 452.5,115.8 L 458.7,114.6 L 464.9,113.3 L 471.0,112.1 L 477.2,111.0 L 483.4,109.8 L 489.6,108.7 L 495.7,107.6 L 501.9,106.5 L 508.1,105.4 L 514.2,104.4 L 520.4,103.4 L 526.6,102.4 L 532.8,101.5 L 538.9,100.5 L 545.1,99.6 L 551.3,98.8 L 557.4,97.9 L 563.6,97.1 L 569.8,96.2 L 575.9,95.4 L 582.1,94.7 L 588.3,93.9 L 594.4,93.2 L 600.6,92.5 L 606.8,91.8 L 613.0,91.2 L 619.1,90.5 L 625.3,89.9 L 631.5,89.3 L 637.6,88.7 L 643.8,88.5 L 650.0,88.9 L 656.2,90.0 L 662.3,91.6 L 668.5,93.2 L 674.7,94.7 L 680.8,96.2 L 687.0,97.7" class="nt"/>
<path d="M 117.6,278.9 L 165.2,230.3 L 212.8,204.3 L 261.8,186.3 L 309.5,162.7 L 357.1,150.5 L 404.7,148.7 L 453.7,151.8 L 501.3,151.7 L 548.9,147.1 L 596.5,142.4 L 645.5,139.4" class="mond"/>
<path d="M 75.1,380.6 L 80.3,369.9 L 85.4,358.4 L 90.6,347.6 L 95.7,337.8 L 100.8,328.9 L 106.0,320.9 L 111.1,313.6 L 116.3,306.9 L 121.4,300.4 L 126.6,294.1 L 131.7,287.8 L 136.8,281.4 L 142.0,275.0 L 147.1,268.6 L 152.3,262.1 L 157.4,255.7 L 162.6,249.5 L 167.7,243.4 L 172.8,237.4 L 178.0,231.6 L 183.1,226.0 L 188.3,220.6 L 193.4,215.3 L 198.5,210.2 L 203.7,205.2 L 208.8,200.4 L 214.0,195.8 L 219.1,191.3 L 224.3,187.0 L 229.4,182.8 L 234.5,178.7 L 239.7,174.8 L 244.8,171.0 L 250.0,167.3 L 255.1,163.8 L 260.2,160.4 L 265.4,157.1 L 270.5,154.0 L 275.7,151.0 L 280.8,148.0 L 285.9,145.3 L 291.1,142.6 L 296.2,140.1 L 301.4,137.6 L 306.5,135.3 L 311.7,133.2 L 316.8,131.1 L 321.9,129.2 L 327.1,127.4 L 332.2,125.7 L 337.4,124.1 L 342.5,122.6 L 347.7,121.3 L 352.8,120.2 L 357.9,119.1 L 363.1,118.2 L 368.2,117.4 L 373.4,116.8 L 378.5,116.4 L 383.6,116.1 L 388.8,115.9 L 393.9,115.8 L 399.1,115.9 L 404.2,116.0 L 409.4,116.2 L 414.5,116.4 L 419.6,116.5 L 424.8,116.6 L 429.9,116.7 L 435.1,116.8 L 440.2,116.8 L 445.3,116.8 L 450.5,116.7 L 455.6,116.7 L 460.8,116.6 L 465.9,116.5 L 471.1,116.4 L 476.2,116.3 L 481.3,116.2 L 486.5,116.1 L 491.6,115.9 L 496.8,115.8 L 501.9,115.6 L 507.0,115.4 L 512.2,115.2 L 517.3,115.0 L 522.5,114.7 L 527.6,114.5 L 532.8,114.1 L 537.9,113.8 L 543.0,113.4 L 548.2,112.9 L 553.3,112.4 L 558.5,111.8 L 563.6,111.1 L 568.7,110.2 L 573.9,109.3 L 579.0,108.1 L 584.2,106.8 L 589.3,105.2 L 594.4,103.4 L 599.6,101.3 L 604.7,99.0 L 609.9,96.3 L 615.0,93.3 L 620.2,90.3 L 625.3,87.4 L 630.4,85.1 L 635.6,84.0 L 640.7,84.2 L 645.9,86.6 L 651.0,90.7 L 656.1,96.7 L 661.3,103.9 L 666.4,111.8 L 671.6,119.9 L 676.7,128.0 L 681.9,135.6 L 687.0,143.0" class="fw"/>
<line x1="117.61" y1="291.08" x2="117.61" y2="317.79" class="err"/>
<line x1="114.61" y1="291.08" x2="120.61" y2="291.08" class="err"/>
<line x1="114.61" y1="317.79" x2="120.61" y2="317.79" class="err"/>
<circle cx="117.61" cy="304.43" r="2.5" class="obs"/>
<line x1="165.22" y1="231.47" x2="165.22" y2="258.18" class="err"/>
<line x1="162.22" y1="231.47" x2="168.22" y2="231.47" class="err"/>
<line x1="162.22" y1="258.18" x2="168.22" y2="258.18" class="err"/>
<circle cx="165.22" cy="244.82" r="2.5" class="obs"/>
<line x1="212.83" y1="188.03" x2="212.83" y2="214.74" class="err"/>
<line x1="209.83" y1="188.03" x2="215.83" y2="188.03" class="err"/>
<line x1="209.83" y1="214.74" x2="215.83" y2="214.74" class="err"/>
<circle cx="212.83" cy="201.38" r="2.5" class="obs"/>
<line x1="261.84" y1="147.83" x2="261.84" y2="174.54" class="err"/>
<line x1="258.84" y1="147.83" x2="264.84" y2="147.83" class="err"/>
<line x1="258.84" y1="174.54" x2="264.84" y2="174.54" class="err"/>
<circle cx="261.84" cy="161.18" r="2.5" class="obs"/>
<line x1="309.46" y1="118.26" x2="309.46" y2="144.96" class="err"/>
<line x1="306.46" y1="118.26" x2="312.46" y2="118.26" class="err"/>
<line x1="306.46" y1="144.96" x2="312.46" y2="144.96" class="err"/>
<circle cx="309.46" cy="131.61" r="2.5" class="obs"/>
<line x1="357.07" y1="102.08" x2="357.07" y2="128.79" class="err"/>
<line x1="354.07" y1="102.08" x2="360.07" y2="102.08" class="err"/>
<line x1="354.07" y1="128.79" x2="360.07" y2="128.79" class="err"/>
<circle cx="357.07" cy="115.44" r="2.5" class="obs"/>
<line x1="404.68" y1="102.08" x2="404.68" y2="128.79" class="err"/>
<line x1="401.68" y1="102.08" x2="407.68" y2="102.08" class="err"/>
<line x1="401.68" y1="128.79" x2="407.68" y2="128.79" class="err"/>
<circle cx="404.68" cy="115.44" r="2.5" class="obs"/>
<line x1="453.69" y1="104.39" x2="453.69" y2="131.10" class="err"/>
<line x1="450.69" y1="104.39" x2="456.69" y2="104.39" class="err"/>
<line x1="450.69" y1="131.10" x2="456.69" y2="131.10" class="err"/>
<circle cx="453.69" cy="117.75" r="2.5" class="obs"/>
<line x1="501.30" y1="97.46" x2="501.30" y2="124.17" class="err"/>
<line x1="498.30" y1="97.46" x2="504.30" y2="97.46" class="err"/>
<line x1="498.30" y1="124.17" x2="504.30" y2="124.17" class="err"/>
<circle cx="501.30" cy="110.82" r="2.5" class="obs"/>
<line x1="548.91" y1="97.46" x2="548.91" y2="124.17" class="err"/>
<line x1="545.91" y1="97.46" x2="551.91" y2="97.46" class="err"/>
<line x1="545.91" y1="124.17" x2="551.91" y2="124.17" class="err"/>
<circle cx="548.91" cy="110.82" r="2.5" class="obs"/>
<line x1="596.52" y1="90.53" x2="596.52" y2="117.24" class="err"/>
<line x1="593.52" y1="90.53" x2="599.52" y2="90.53" class="err"/>
<line x1="593.52" y1="117.24" x2="599.52" y2="117.24" class="err"/>
<circle cx="596.52" cy="103.88" r="2.5" class="obs"/>
<line x1="645.53" y1="85.91" x2="645.53" y2="112.62" class="err"/>
<line x1="642.53" y1="85.91" x2="648.53" y2="85.91" class="err"/>
<line x1="642.53" y1="112.62" x2="648.53" y2="112.62" class="err"/>
<circle cx="645.53" cy="99.26" r="2.5" class="obs"/>
<g class="legend">
<line x1="82" y1="69" x2="106" y2="69" class="fw"/>
<text x="112" y="73" class="lbl-l">framework: 1.0 km/s, 1.7%, 0.34σ</text>
<line x1="82" y1="87" x2="106" y2="87" class="nt"/>
<text x="112" y="91" class="lbl-l">Newtonian: 3.3 km/s, 10.3%, 1.13σ</text>
<line x1="82" y1="105" x2="106" y2="105" class="mond"/>
<text x="112" y="109" class="lbl-m">MOND/RAR: 6.9 km/s, 13.9%, 2.37σ</text>
<circle cx="94" cy="123" r="2.5" class="obs"/>
<text x="112" y="127" class="lbl">observed V±err</text>
</g>
<g class="legend">
<line x1="472" y1="69" x2="496" y2="69" class="rho"/>
<text x="502" y="73" class="lbl-r">ρ(r) raw</text>
<line x1="472" y1="87" x2="496" y2="87" class="phot"/>
<text x="502" y="91" class="lbl-p">photometric baryonic profile</text>
<line x1="472" y1="105" x2="496" y2="105" class="mbar"/>
<text x="502" y="109" class="lbl-m">MOND baryonic annulus</text>
<line x1="472" y1="123" x2="496" y2="123" class="mph"/>
<text x="502" y="127" class="lbl-m">MOND phantom annulus</text>
<text x="472" y="147" class="lbl-r">ρ peak: 166 M☉/pc²</text>
<text x="472" y="163" class="lbl-p">phot peak: 53.40 (arb.)</text>
<text x="472" y="179" class="lbl-m">Σbar peak: 46.52 M☉/pc²</text>
<text x="472" y="195" class="lbl-m">Σphantom peak: 91.24 M☉/pc²</text>
</g>
<rect x="775" y="55" width="170" height="170" class="preview-bg"/>
<defs><radialGradient id="g_UGC07603" cx="0.5" cy="0.5" r="0.5">
  <stop offset="0.0000" stop-color="rgb(255,64,64)"/>
  <stop offset="0.0313" stop-color="rgb(255,64,64)"/>
  <stop offset="0.0625" stop-color="rgb(240,60,60)"/>
  <stop offset="0.0938" stop-color="rgb(234,59,59)"/>
  <stop offset="0.1250" stop-color="rgb(232,58,58)"/>
  <stop offset="0.1563" stop-color="rgb(228,57,57)"/>
  <stop offset="0.1875" stop-color="rgb(223,56,56)"/>
  <stop offset="0.2188" stop-color="rgb(218,55,55)"/>
  <stop offset="0.2500" stop-color="rgb(213,53,53)"/>
  <stop offset="0.2813" stop-color="rgb(208,52,52)"/>
  <stop offset="0.3125" stop-color="rgb(203,51,51)"/>
  <stop offset="0.3438" stop-color="rgb(199,50,50)"/>
  <stop offset="0.3750" stop-color="rgb(194,49,49)"/>
  <stop offset="0.4063" stop-color="rgb(189,47,47)"/>
  <stop offset="0.4375" stop-color="rgb(184,46,46)"/>
  <stop offset="0.4688" stop-color="rgb(179,45,45)"/>
  <stop offset="0.5000" stop-color="rgb(174,44,44)"/>
  <stop offset="0.5313" stop-color="rgb(169,42,42)"/>
  <stop offset="0.5625" stop-color="rgb(165,41,41)"/>
  <stop offset="0.5938" stop-color="rgb(161,40,40)"/>
  <stop offset="0.6250" stop-color="rgb(158,40,40)"/>
  <stop offset="0.6563" stop-color="rgb(155,39,39)"/>
  <stop offset="0.6875" stop-color="rgb(152,38,38)"/>
  <stop offset="0.7188" stop-color="rgb(149,37,37)"/>
  <stop offset="0.7500" stop-color="rgb(145,36,36)"/>
  <stop offset="0.7813" stop-color="rgb(142,36,36)"/>
  <stop offset="0.8125" stop-color="rgb(139,35,35)"/>
  <stop offset="0.8438" stop-color="rgb(136,34,34)"/>
  <stop offset="0.8750" stop-color="rgb(133,33,33)"/>
  <stop offset="0.9063" stop-color="rgb(129,32,32)"/>
  <stop offset="0.9375" stop-color="rgb(126,32,32)"/>
  <stop offset="0.9688" stop-color="rgb(119,30,30)"/>
  <stop offset="1.0000" stop-color="rgb(0,0,0)"/>
</radialGradient></defs>
<circle cx="860" cy="140" r="81" fill="url(#g_UGC07603)"/>
<text x="860" y="49" text-anchor="middle" class="preview-lbl">face-on luminance from ρ(r)</text>
<text x="860" y="239" text-anchor="middle" class="preview-lbl">edge at r = 4.2 kpc</text>
</svg>