<svg xmlns="http://www.w3.org/2000/svg" viewBox="0 0 720 420" width="720" height="420" font-family="sans-serif" font-size="12">
<style>
  .ax { stroke: #333; stroke-width: 1; fill: none; }
  .grid { stroke: #ddd; stroke-width: 0.5; fill: none; }
  .lbl { fill: #333; }
  .lbl-l { fill: #0066cc; }
  .lbl-r { fill: #b03030; }
  .obs { fill: #222; }
  .err { stroke: #555; stroke-width: 0.8; fill: none; }
  .fw { stroke: #0066cc; stroke-width: 2.2; fill: none; }
  .nt { stroke: #cc6600; stroke-width: 1.6; fill: none; stroke-dasharray: 5,3; }
  .rho { stroke: #b03030; stroke-width: 2.0; fill: none; }
  .sig { stroke: #b03030; stroke-width: 1.6; fill: none; stroke-dasharray: 4,2; opacity: 0.85; }
  .title { fill: #111; font-size: 16px; font-weight: 600; }
  .subtitle { fill: #555; font-size: 11px; }
  .legend { font-size: 11px; }
</style>
<text x="360.0" y="22" text-anchor="middle" class="title">UGC00128</text>
<text x="360.0" y="38" text-anchor="middle" class="subtitle">rMax=53.8 kpc, N=22, RMS=1.9 km/s (1.6%), amp=105</text>
<line x1="70" y1="365.0" x2="635" y2="365.0" class="grid"/>
<text x="64" y="369.0" text-anchor="end" class="lbl-l">0</text>
<line x1="70" y1="303.0" x2="635" y2="303.0" class="grid"/>
<text x="64" y="307.0" text-anchor="end" class="lbl-l">33</text>
<line x1="70" y1="241.0" x2="635" y2="241.0" class="grid"/>
<text x="64" y="245.0" text-anchor="end" class="lbl-l">66</text>
<line x1="70" y1="179.0" x2="635" y2="179.0" class="grid"/>
<text x="64" y="183.0" text-anchor="end" class="lbl-l">98</text>
<line x1="70" y1="116.99999999999999" x2="635" y2="116.99999999999999" class="grid"/>
<text x="64" y="120.99999999999999" text-anchor="end" class="lbl-l">131</text>
<line x1="70" y1="55.0" x2="635" y2="55.0" class="grid"/>
<text x="64" y="59.0" text-anchor="end" class="lbl-l">164</text>
<text x="641" y="369.0" text-anchor="start" class="lbl-r">0.0</text>
<text x="641" y="327.6666666666667" text-anchor="start" class="lbl-r">0.2</text>
<text x="641" y="286.33333333333337" text-anchor="start" class="lbl-r">0.4</text>
<text x="641" y="245.00000000000003" text-anchor="start" class="lbl-r">0.6</text>
<text x="641" y="203.66666666666666" text-anchor="start" class="lbl-r">0.8</text>
<text x="641" y="162.33333333333334" text-anchor="start" class="lbl-r">1.0</text>
<line x1="70.0" y1="55" x2="70.0" y2="365" class="grid"/>
<text x="70.0" y="381" text-anchor="middle" class="lbl">0.0</text>
<line x1="164.16666666666666" y1="55" x2="164.16666666666666" y2="365" class="grid"/>
<text x="164.16666666666666" y="381" text-anchor="middle" class="lbl">9.1</text>
<line x1="258.3333333333333" y1="55" x2="258.3333333333333" y2="365" class="grid"/>
<text x="258.3333333333333" y="381" text-anchor="middle" class="lbl">18.3</text>
<line x1="352.5" y1="55" x2="352.5" y2="365" class="grid"/>
<text x="352.5" y="381" text-anchor="middle" class="lbl">27.4</text>
<line x1="446.66666666666663" y1="55" x2="446.66666666666663" y2="365" class="grid"/>
<text x="446.66666666666663" y="381" text-anchor="middle" class="lbl">36.6</text>
<line x1="540.8333333333334" y1="55" x2="540.8333333333334" y2="365" class="grid"/>
<text x="540.8333333333334" y="381" text-anchor="middle" class="lbl">45.7</text>
<line x1="635.0" y1="55" x2="635.0" y2="365" class="grid"/>
<text x="635.0" y="381" text-anchor="middle" class="lbl">54.8</text>
<text x="352.5" y="408" text-anchor="middle" class="lbl">radius (kpc)</text>
<text x="16" y="210.0" text-anchor="middle" class="lbl-l" transform="rotate(-90, 16, 210.0)">velocity (km/s)</text>
<text x="704" y="210.0" text-anchor="middle" class="lbl-r" transform="rotate(-90, 704, 210.0)">mass profile (normalized to peak)</text>
<rect x="70" y="55" width="565" height="310" class="ax"/>
<path d="M 70.0,158.3 L 72.6,164.3 L 75.2,170.2 L 77.7,176.2 L 80.3,182.2 L 82.9,188.1 L 85.5,194.1 L 88.1,200.0 L 90.6,206.0 L 93.2,211.9 L 95.8,217.9 L 98.4,223.9 L 101.0,229.8 L 103.5,235.8 L 106.1,240.9 L 108.7,243.0 L 111.3,245.0 L 113.9,247.1 L 116.4,249.1 L 119.0,251.2 L 121.6,253.3 L 124.2,255.3 L 126.8,257.4 L 129.3,259.5 L 131.9,261.5 L 134.5,263.6 L 137.1,265.7 L 139.7,267.7 L 142.2,269.8 L 144.8,271.9 L 147.4,273.9 L 150.0,276.0 L 152.6,278.1 L 155.1,280.1 L 157.7,282.2 L 160.3,283.3 L 162.9,283.7 L 165.5,284.2 L 168.0,284.6 L 170.6,285.0 L 173.2,285.5 L 175.8,285.9 L 178.4,286.4 L 180.9,286.8 L 183.5,287.3 L 186.1,287.7 L 188.7,288.1 L 191.3,288.6 L 193.8,289.0 L 196.4,289.5 L 199.0,289.9 L 201.6,290.3 L 204.2,290.8 L 206.7,291.2 L 209.3,291.7 L 211.9,292.1 L 214.5,292.5 L 217.1,293.0 L 219.6,293.4 L 222.2,293.9 L 224.8,294.3 L 227.4,294.7 L 230.0,295.2 L 232.5,295.6 L 235.1,296.1 L 237.7,296.5 L 240.3,297.0 L 242.9,297.4 L 245.4,297.8 L 248.0,298.3 L 250.6,298.7 L 253.2,299.2 L 255.8,299.6 L 258.3,300.0 L 260.9,300.5 L 263.5,300.9 L 266.1,301.4 L 268.7,301.8 L 271.2,302.2 L 273.8,302.7 L 276.4,303.1 L 279.0,303.6 L 281.6,304.0 L 284.1,304.4 L 286.7,304.9 L 289.3,305.3 L 291.9,305.8 L 294.5,306.2 L 297.0,306.7 L 299.6,307.1 L 302.2,307.5 L 304.8,308.0 L 307.4,308.4 L 309.9,308.9 L 312.5,309.3 L 315.1,309.7 L 317.7,310.2 L 320.3,310.6 L 322.8,311.1 L 325.4,311.5 L 328.0,311.8 L 330.6,312.0 L 333.2,312.3 L 335.7,312.5 L 338.3,312.7 L 340.9,313.0 L 343.5,313.2 L 346.1,313.4 L 348.6,313.7 L 351.2,313.9 L 353.8,314.1 L 356.4,314.4 L 358.9,314.6 L 361.5,314.8 L 364.1,315.1 L 366.7,315.3 L 369.3,315.6 L 371.8,315.8 L 374.4,316.0 L 377.0,316.3 L 379.6,316.5 L 382.2,316.7 L 384.7,317.0 L 387.3,317.2 L 389.9,317.4 L 392.5,317.7 L 395.1,317.9 L 397.6,318.2 L 400.2,318.4 L 402.8,318.6 L 405.4,318.9 L 408.0,319.1 L 410.5,319.3 L 413.1,319.6 L 415.7,319.8 L 418.3,320.0 L 420.9,320.3 L 423.4,320.5 L 426.0,320.8 L 428.6,321.0 L 431.2,321.2 L 433.8,321.5 L 436.3,321.7 L 438.9,321.9 L 441.5,322.2 L 444.1,322.4 L 446.7,322.6 L 449.2,322.9 L 451.8,323.1 L 454.4,323.3 L 457.0,323.6 L 459.6,323.8 L 462.1,324.1 L 464.7,324.3 L 467.3,324.5 L 469.9,324.8 L 472.5,325.0 L 475.0,325.2 L 477.6,325.5 L 480.2,325.7 L 482.8,325.9 L 485.4,326.2 L 487.9,326.4 L 490.5,326.7 L 493.1,326.9 L 495.7,327.1 L 498.3,327.4 L 500.8,327.6 L 503.4,327.8 L 506.0,328.1 L 508.6,328.3 L 511.2,328.5 L 513.7,328.8 L 516.3,329.0 L 518.9,329.3 L 521.5,329.5 L 524.1,329.7 L 526.6,330.0 L 529.2,330.2 L 531.8,330.4 L 534.4,330.7 L 537.0,330.9 L 539.5,331.1 L 542.1,331.4 L 544.7,331.6 L 547.3,331.9 L 549.9,332.1 L 552.4,332.3 L 555.0,332.6 L 557.6,332.8 L 560.2,333.0 L 562.8,333.3 L 565.3,333.5 L 567.9,333.7 L 570.5,334.0 L 573.1,334.2 L 575.7,334.4 L 578.2,334.7 L 580.8,334.9 L 583.4,335.2 L 586.0,335.4 L 588.6,335.6 L 591.1,335.9 L 593.7,336.1 L 596.3,336.3 L 598.9,336.6 L 601.5,339.2 L 604.0,349.2 L 606.6,359.3 L 609.2,365.0 L 611.8,365.0 L 614.4,365.0 L 616.9,365.0 L 619.5,365.0 L 622.1,365.0 L 624.7,365.0 L 627.3,365.0 L 629.8,365.0 L 632.4,365.0 L 635.0,365.0" class="rho"/>
<path d="M 70.0,158.3 L 72.6,158.6 L 75.2,159.0 L 77.7,159.5 L 80.3,160.2 L 82.9,161.2 L 85.5,162.3 L 88.1,163.5 L 90.6,164.9 L 93.2,166.4 L 95.8,168.0 L 98.4,169.7 L 101.0,171.4 L 103.5,173.2 L 106.1,175.0 L 108.7,176.8 L 111.3,178.7 L 113.9,180.6 L 116.4,182.4 L 119.0,184.3 L 121.6,186.2 L 124.2,188.1 L 126.8,189.9 L 129.3,191.8 L 131.9,193.6 L 134.5,195.4 L 137.1,197.2 L 139.7,199.0 L 142.2,200.7 L 144.8,202.5 L 147.4,204.2 L 150.0,205.8 L 152.6,207.5 L 155.1,209.1 L 157.7,210.7 L 160.3,212.2 L 162.9,213.8 L 165.5,215.2 L 168.0,216.7 L 170.6,218.1 L 173.2,219.5 L 175.8,220.9 L 178.4,222.3 L 180.9,223.6 L 183.5,224.9 L 186.1,226.2 L 188.7,227.5 L 191.3,228.7 L 193.8,230.0 L 196.4,231.2 L 199.0,232.4 L 201.6,233.6 L 204.2,234.7 L 206.7,235.9 L 209.3,237.1 L 211.9,238.2 L 214.5,239.3 L 217.1,240.5 L 219.6,241.6 L 222.2,242.7 L 224.8,243.8 L 227.4,244.9 L 230.0,245.9 L 232.5,247.0 L 235.1,248.1 L 237.7,249.1 L 240.3,250.2 L 242.9,251.2 L 245.4,252.2 L 248.0,253.2 L 250.6,254.3 L 253.2,255.3 L 255.8,256.3 L 258.3,257.3 L 260.9,258.2 L 263.5,259.2 L 266.1,260.2 L 268.7,261.2 L 271.2,262.1 L 273.8,263.1 L 276.4,264.0 L 279.0,265.0 L 281.6,265.9 L 284.1,266.8 L 286.7,267.7 L 289.3,268.6 L 291.9,269.5 L 294.5,270.4 L 297.0,271.3 L 299.6,272.2 L 302.2,273.1 L 304.8,273.9 L 307.4,274.8 L 309.9,275.6 L 312.5,276.5 L 315.1,277.3 L 317.7,278.1 L 320.3,278.9 L 322.8,279.7 L 325.4,280.5 L 328.0,281.3 L 330.6,282.1 L 333.2,282.9 L 335.7,283.6 L 338.3,284.4 L 340.9,285.2 L 343.5,285.9 L 346.1,286.6 L 348.6,287.4 L 351.2,288.1 L 353.8,288.8 L 356.4,289.5 L 358.9,290.2 L 361.5,290.9 L 364.1,291.6 L 366.7,292.3 L 369.3,292.9 L 371.8,293.6 L 374.4,294.3 L 377.0,294.9 L 379.6,295.6 L 382.2,296.2 L 384.7,296.9 L 387.3,297.5 L 389.9,298.2 L 392.5,298.8 L 395.1,299.4 L 397.6,300.0 L 400.2,300.7 L 402.8,301.3 L 405.4,301.9 L 408.0,302.5 L 410.5,303.1 L 413.1,303.7 L 415.7,304.3 L 418.3,304.8 L 420.9,305.4 L 423.4,306.0 L 426.0,306.6 L 428.6,307.1 L 431.2,307.7 L 433.8,308.3 L 436.3,308.8 L 438.9,309.4 L 441.5,309.9 L 444.1,310.5 L 446.7,311.0 L 449.2,311.6 L 451.8,312.1 L 454.4,312.6 L 457.0,313.1 L 459.6,313.7 L 462.1,314.2 L 464.7,314.7 L 467.3,315.2 L 469.9,315.7 L 472.5,316.2 L 475.0,316.8 L 477.6,317.3 L 480.2,317.8 L 482.8,318.3 L 485.4,318.7 L 487.9,319.2 L 490.5,319.7 L 493.1,320.2 L 495.7,320.7 L 498.3,321.2 L 500.8,321.6 L 503.4,322.1 L 506.0,322.6 L 508.6,323.0 L 511.2,323.5 L 513.7,324.0 L 516.3,324.4 L 518.9,324.9 L 521.5,325.3 L 524.1,325.8 L 526.6,326.2 L 529.2,326.7 L 531.8,327.1 L 534.4,327.6 L 537.0,328.0 L 539.5,328.5 L 542.1,328.9 L 544.7,329.3 L 547.3,329.8 L 549.9,330.2 L 552.4,330.6 L 555.0,331.1 L 557.6,331.5 L 560.2,331.9 L 562.8,332.3 L 565.3,332.8 L 567.9,333.2 L 570.5,333.6 L 573.1,334.0 L 575.7,334.5 L 578.2,334.9 L 580.8,335.3 L 583.4,335.7 L 586.0,336.2 L 588.6,336.6 L 591.1,337.0 L 593.7,337.4 L 596.3,337.8 L 598.9,338.3 L 601.5,338.7 L 604.0,339.1 L 606.6,339.5 L 609.2,339.9 L 611.8,340.3 L 614.4,340.6 L 616.9,341.0 L 619.5,341.4 L 622.1,341.7 L 624.7,342.1 L 627.3,342.4 L 629.8,342.7 L 632.4,343.0 L 635.0,343.3" class="sig"/>
<path d="M 75.7,305.1 L 81.3,282.1 L 87.0,265.8 L 92.6,253.3 L 98.2,243.3 L 103.9,235.3 L 109.6,228.6 L 115.2,222.4 L 120.9,216.7 L 126.5,211.4 L 132.2,206.6 L 137.8,202.1 L 143.4,198.1 L 149.1,194.5 L 154.8,191.2 L 160.4,188.2 L 166.1,185.4 L 171.7,182.5 L 177.3,179.6 L 183.0,176.8 L 188.7,174.0 L 194.3,171.3 L 199.9,168.6 L 205.6,166.0 L 211.2,163.4 L 216.9,160.9 L 222.5,158.5 L 228.2,156.1 L 233.8,153.7 L 239.5,151.5 L 245.2,149.3 L 250.8,147.1 L 256.5,145.0 L 262.1,143.0 L 267.8,141.0 L 273.4,139.1 L 279.1,137.3 L 284.7,135.5 L 290.4,133.8 L 296.0,132.1 L 301.6,130.5 L 307.3,128.9 L 312.9,127.4 L 318.6,125.9 L 324.2,124.5 L 329.9,123.1 L 335.6,121.8 L 341.2,120.5 L 346.9,119.2 L 352.5,117.9 L 358.1,116.6 L 363.8,115.4 L 369.4,114.2 L 375.1,113.0 L 380.7,111.8 L 386.4,110.6 L 392.1,109.5 L 397.7,108.4 L 403.3,107.3 L 409.0,106.2 L 414.6,105.2 L 420.3,104.2 L 425.9,103.2 L 431.6,102.2 L 437.2,101.2 L 442.9,100.3 L 448.6,99.4 L 454.2,98.5 L 459.9,97.6 L 465.5,96.8 L 471.1,96.0 L 476.8,95.2 L 482.4,94.4 L 488.1,93.6 L 493.8,92.9 L 499.4,92.2 L 505.0,91.5 L 510.7,90.8 L 516.4,90.2 L 522.0,89.5 L 527.7,88.9 L 533.3,88.3 L 539.0,87.8 L 544.6,87.2 L 550.2,86.7 L 555.9,86.2 L 561.5,85.8 L 567.2,85.3 L 572.8,84.9 L 578.5,84.5 L 584.1,84.1 L 589.8,83.7 L 595.5,83.3 L 601.1,83.0 L 606.8,83.4 L 612.4,84.8 L 618.0,86.3 L 623.7,87.8 L 629.4,89.3 L 635.0,90.6" class="nt"/>
<path d="M 74.7,338.1 L 79.4,318.8 L 84.1,298.1 L 88.8,278.8 L 93.5,261.5 L 98.2,246.3 L 103.0,233.2 L 107.7,221.7 L 112.4,211.9 L 117.1,203.3 L 121.8,195.7 L 126.5,189.0 L 131.2,183.0 L 135.9,177.8 L 140.6,173.4 L 145.3,169.7 L 150.0,166.7 L 154.8,164.3 L 159.5,162.5 L 164.2,161.0 L 168.9,159.7 L 173.6,158.5 L 178.3,157.3 L 183.0,156.0 L 187.7,154.6 L 192.4,153.1 L 197.1,151.6 L 201.8,149.9 L 206.5,148.2 L 211.2,146.5 L 216.0,144.7 L 220.7,143.0 L 225.4,141.2 L 230.1,139.5 L 234.8,137.8 L 239.5,136.1 L 244.2,134.5 L 248.9,132.9 L 253.6,131.4 L 258.3,129.9 L 263.0,128.5 L 267.8,127.2 L 272.5,126.0 L 277.2,124.9 L 281.9,123.9 L 286.6,123.0 L 291.3,122.1 L 296.0,121.5 L 300.7,120.9 L 305.4,120.4 L 310.1,120.1 L 314.8,119.9 L 319.5,119.9 L 324.2,119.9 L 329.0,120.0 L 333.7,120.1 L 338.4,120.2 L 343.1,120.3 L 347.8,120.4 L 352.5,120.5 L 357.2,120.5 L 361.9,120.5 L 366.6,120.5 L 371.3,120.5 L 376.0,120.4 L 380.8,120.3 L 385.5,120.3 L 390.2,120.2 L 394.9,120.1 L 399.6,120.0 L 404.3,119.9 L 409.0,119.8 L 413.7,119.7 L 418.4,119.6 L 423.1,119.5 L 427.8,119.5 L 432.5,119.4 L 437.2,119.3 L 442.0,119.3 L 446.7,119.2 L 451.4,119.2 L 456.1,119.2 L 460.8,119.1 L 465.5,119.1 L 470.2,119.1 L 474.9,119.1 L 479.6,119.1 L 484.3,119.1 L 489.0,119.1 L 493.7,119.0 L 498.5,119.0 L 503.2,119.0 L 507.9,119.0 L 512.6,118.9 L 517.3,118.8 L 522.0,118.7 L 526.7,118.6 L 531.4,118.4 L 536.1,118.2 L 540.8,117.9 L 545.5,117.5 L 550.2,117.1 L 555.0,116.5 L 559.7,115.9 L 564.4,115.1 L 569.1,114.2 L 573.8,113.2 L 578.5,112.2 L 583.2,111.2 L 587.9,110.4 L 592.6,110.0 L 597.3,110.4 L 602.0,111.6 L 606.8,113.9 L 611.5,117.1 L 616.2,121.1 L 620.9,125.7 L 625.6,130.5 L 630.3,135.4 L 635.0,140.2" class="fw"/>
<line x1="82.87880851385071" y1="264.87643646147524" x2="82.87880851385071" y2="336.0417670673076" class="err"/>
<line x1="79.87880851385071" y1="264.87643646147524" x2="85.87880851385071" y2="264.87643646147524" class="err"/>
<line x1="79.87880851385071" y1="336.0417670673076" x2="85.87880851385071" y2="336.0417670673076" class="err"/>
<circle cx="82.87880851385071" cy="300.45910176439145" r="2.5" class="obs"/>
<line x1="108.63642554155216" y1="204.23448984948402" x2="108.63642554155216" y2="228.9909399644917" class="err"/>
<line x1="105.63642554155216" y1="204.23448984948402" x2="111.63642554155216" y2="204.23448984948402" class="err"/>
<line x1="105.63642554155216" y1="228.9909399644917" x2="111.63642554155216" y2="228.9909399644917" class="err"/>
<circle cx="108.63642554155216" cy="216.61271490698786" r="2.5" class="obs"/>
<line x1="134.3940425692536" y1="176.9796823834206" x2="134.3940425692536" y2="186.21603380247544" class="err"/>
<line x1="131.3940425692536" y1="176.9796823834206" x2="137.3940425692536" y2="176.9796823834206" class="err"/>
<line x1="131.3940425692536" y1="186.21603380247544" x2="137.3940425692536" y2="186.21603380247544" class="err"/>
<circle cx="134.3940425692536" cy="181.59785809294803" r="2.5" class="obs"/>
<line x1="160.25469006506583" y1="158.20414835124353" x2="160.25469006506583" y2="162.97373965780469" class="err"/>
<line x1="157.25469006506583" y1="158.20414835124353" x2="163.25469006506583" y2="158.20414835124353" class="err"/>
<line x1="157.25469006506583" y1="162.97373965780469" x2="163.25469006506583" y2="162.97373965780469" class="err"/>
<circle cx="160.25469006506583" cy="160.58894400452414" r="2.5" class="obs"/>
<line x1="185.90927662465646" y1="149.23277422699766" x2="185.90927662465646" y2="153.0181641528398" class="err"/>
<line x1="182.90927662465646" y1="149.23277422699766" x2="188.90927662465646" y2="149.23277422699766" class="err"/>
<line x1="182.90927662465646" y1="153.0181641528398" x2="188.90927662465646" y2="153.0181641528398" class="err"/>
<circle cx="185.90927662465646" cy="151.12546918991876" r="2.5" class="obs"/>
<line x1="211.56386318424708" y1="147.60505655888554" x2="211.56386318424708" y2="150.8604918951098" class="err"/>
<line x1="208.56386318424708" y1="147.60505655888554" x2="214.56386318424708" y2="147.60505655888554" class="err"/>
<line x1="208.56386318424708" y1="150.8604918951098" x2="214.56386318424708" y2="150.8604918951098" class="err"/>
<circle cx="211.56386318424708" cy="149.23277422699766" r="2.5" class="obs"/>
<line x1="237.1154192757269" y1="134.6968769117638" x2="237.1154192757269" y2="137.27094206133648" class="err"/>
<line x1="234.1154192757269" y1="134.6968769117638" x2="240.1154192757269" y2="134.6968769117638" class="err"/>
<line x1="234.1154192757269" y1="137.27094206133648" x2="240.1154192757269" y2="137.27094206133648" class="err"/>
<circle cx="237.1154192757269" cy="135.98390948655017" r="2.5" class="obs"/>
<line x1="262.77000583531753" y1="125.47945244233821" x2="262.77000583531753" y2="127.56141690155138" class="err"/>
<line x1="259.77000583531753" y1="125.47945244233821" x2="265.77000583531753" y2="125.47945244233821" class="err"/>
<line x1="259.77000583531753" y1="127.56141690155138" x2="265.77000583531753" y2="127.56141690155138" class="err"/>
<circle cx="262.77000583531753" cy="126.5204346719448" r="2.5" class="obs"/>
<line x1="289.4548970760162" y1="121.54264691946237" x2="289.4548970760162" y2="123.92744257274292" class="err"/>
<line x1="286.4548970760162" y1="121.54264691946237" x2="292.4548970760162" y2="121.54264691946237" class="err"/>
<line x1="286.4548970760162" y1="123.92744257274292" x2="292.4548970760162" y2="123.92744257274292" class="err"/>
<circle cx="289.4548970760162" cy="122.73504474610264" r="2.5" class="obs"/>
<line x1="315.10948363560686" y1="119.6878058557997" x2="315.10948363560686" y2="121.99689371056346" class="err"/>
<line x1="312.10948363560686" y1="119.6878058557997" x2="318.10948363560686" y2="119.6878058557997" class="err"/>
<line x1="312.10948363560686" y1="121.99689371056346" x2="318.10948363560686" y2="121.99689371056346" class="err"/>
<circle cx="315.10948363560686" cy="120.84234978318159" r="2.5" class="obs"/>
<line x1="340.7640701951975" y1="119.61209805728286" x2="340.7640701951975" y2="122.07260150908027" class="err"/>
<line x1="337.7640701951975" y1="119.61209805728286" x2="343.7640701951975" y2="119.61209805728286" class="err"/>
<line x1="337.7640701951975" y1="122.07260150908027" x2="343.7640701951975" y2="122.07260150908027" class="err"/>
<circle cx="340.7640701951975" cy="120.84234978318159" r="2.5" class="obs"/>
<line x1="366.4186567547881" y1="115.67529253440705" x2="366.4186567547881" y2="118.43862718027178" class="err"/>
<line x1="363.4186567547881" y1="115.67529253440705" x2="369.4186567547881" y2="115.67529253440705" class="err"/>
<line x1="363.4186567547881" y1="118.43862718027178" x2="369.4186567547881" y2="118.43862718027178" class="err"/>
<circle cx="366.4186567547881" cy="117.05695985733944" r="2.5" class="obs"/>
<line x1="391.97021284626794" y1="115.48602303811492" x2="391.97021284626794" y2="118.62789667656395" class="err"/>
<line x1="388.97021284626794" y1="115.48602303811492" x2="394.97021284626794" y2="115.48602303811492" class="err"/>
<line x1="388.97021284626794" y1="118.62789667656395" x2="394.97021284626794" y2="118.62789667656395" class="err"/>
<circle cx="391.97021284626794" cy="117.05695985733944" r="2.5" class="obs"/>
<line x1="417.6247994058586" y1="115.63743863514861" x2="417.6247994058586" y2="118.47648107953023" class="err"/>
<line x1="414.6247994058586" y1="115.63743863514861" x2="420.6247994058586" y2="115.63743863514861" class="err"/>
<line x1="414.6247994058586" y1="118.47648107953023" x2="420.6247994058586" y2="118.47648107953023" class="err"/>
<circle cx="417.6247994058586" cy="117.05695985733944" r="2.5" class="obs"/>
<line x1="443.2793859654492" y1="122.28079795500157" x2="443.2793859654492" y2="126.97468146304584" class="err"/>
<line x1="440.2793859654492" y1="122.28079795500157" x2="446.2793859654492" y2="122.28079795500157" class="err"/>
<line x1="440.2793859654492" y1="126.97468146304584" x2="446.2793859654492" y2="126.97468146304584" class="err"/>
<circle cx="443.2793859654492" cy="124.62773970902371" r="2.5" class="obs"/>
<line x1="469.96427720614787" y1="123.87066172385529" x2="469.96427720614787" y2="129.17020762003432" class="err"/>
<line x1="466.96427720614787" y1="123.87066172385529" x2="472.96427720614787" y2="123.87066172385529" class="err"/>
<line x1="466.96427720614787" y1="129.17020762003432" x2="472.96427720614787" y2="129.17020762003432" class="err"/>
<circle cx="469.96427720614787" cy="126.5204346719448" r="2.5" class="obs"/>
<line x1="495.6188637657386" y1="115.88348898032835" x2="495.6188637657386" y2="122.01582066019265" class="err"/>
<line x1="492.6188637657386" y1="115.88348898032835" x2="498.6188637657386" y2="115.88348898032835" class="err"/>
<line x1="492.6188637657386" y1="122.01582066019265" x2="498.6188637657386" y2="122.01582066019265" class="err"/>
<circle cx="495.6188637657386" cy="118.94965482026049" r="2.5" class="obs"/>
<line x1="521.2734503253291" y1="111.359948018947" x2="521.2734503253291" y2="118.96858176988968" class="err"/>
<line x1="518.2734503253291" y1="111.359948018947" x2="524.2734503253291" y2="111.359948018947" class="err"/>
<line x1="518.2734503253291" y1="118.96858176988968" x2="524.2734503253291" y2="118.96858176988968" class="err"/>
<circle cx="521.2734503253291" cy="115.16426489441834" r="2.5" class="obs"/>
<line x1="546.825006416809" y1="107.40421554644196" x2="546.825006416809" y2="115.35353439071045" class="err"/>
<line x1="543.825006416809" y1="107.40421554644196" x2="549.825006416809" y2="107.40421554644196" class="err"/>
<line x1="543.825006416809" y1="115.35353439071045" x2="549.825006416809" y2="115.35353439071045" class="err"/>
<circle cx="546.825006416809" cy="111.37887496857621" r="2.5" class="obs"/>
<line x1="572.4795929763997" y1="115.80778118181152" x2="572.4795929763997" y2="125.87691838455163" class="err"/>
<line x1="569.4795929763997" y1="115.80778118181152" x2="575.4795929763997" y2="115.80778118181152" class="err"/>
<line x1="569.4795929763997" y1="125.87691838455163" x2="575.4795929763997" y2="125.87691838455163" class="err"/>
<circle cx="572.4795929763997" cy="120.84234978318159" r="2.5" class="obs"/>
<line x1="598.1341795359903" y1="106.32537941757695" x2="598.1341795359903" y2="124.00315037125975" class="err"/>
<line x1="595.1341795359903" y1="106.32537941757695" x2="601.1341795359903" y2="106.32537941757695" class="err"/>
<line x1="595.1341795359903" y1="124.00315037125975" x2="601.1341795359903" y2="124.00315037125975" class="err"/>
<circle cx="598.1341795359903" cy="115.16426489441834" r="2.5" class="obs"/>
<line x1="623.7887660955809" y1="117.15159460548549" x2="623.7887660955809" y2="139.67466466424622" class="err"/>
<line x1="620.7887660955809" y1="117.15159460548549" x2="626.7887660955809" y2="117.15159460548549" class="err"/>
<line x1="620.7887660955809" y1="139.67466466424622" x2="626.7887660955809" y2="139.67466466424622" class="err"/>
<circle cx="623.7887660955809" cy="128.41312963486587" r="2.5" class="obs"/>
<g class="legend">
<line x1="82" y1="69" x2="106" y2="69" class="fw"/>
<text x="112" y="73" class="lbl-l">framework fit</text>
<line x1="82" y1="87" x2="106" y2="87" class="nt"/>
<text x="112" y="91" class="lbl-l">Newtonian (no halo)</text>
<circle cx="94" cy="105" r="2.5" class="obs"/>
<text x="112" y="109" class="lbl">observed V±err</text>
</g>
<g class="legend">
<line x1="460" y1="69" x2="484" y2="69" class="rho"/>
<text x="490" y="73" class="lbl-r">ρ(r) raw</text>
<line x1="460" y1="87" x2="484" y2="87" class="sig"/>
<text x="490" y="91" class="lbl-r">Σ(r) smoothed</text>
<text x="460" y="113" class="lbl-r">ρ peak: 141 M☉/pc²</text>
</g>
</svg>