<svg xmlns="http://www.w3.org/2000/svg" viewBox="0 0 960 450" width="960" height="450" font-family="sans-serif" font-size="12">
<style>
  .ax { stroke: #333; stroke-width: 1; fill: none; }
  .grid { stroke: #ddd; stroke-width: 0.5; fill: none; }
  .lbl { fill: #333; }
  .lbl-l { fill: #0066cc; }
  .lbl-r { fill: #b03030; }
  .obs { fill: #222; }
  .err { stroke: #555; stroke-width: 0.8; fill: none; }
  .fw { stroke: #0066cc; stroke-width: 2.2; fill: none; }
  .nt { stroke: #cc6600; stroke-width: 1.6; fill: none; stroke-dasharray: 5,3; }
  .mond { stroke: #7b2cbf; stroke-width: 1.8; fill: none; stroke-dasharray: 7,3; }
  .lbl-p { fill: #cc7000; }
  .lbl-m { fill: #7b2cbf; }
  .rho { stroke: #b03030; stroke-width: 2.0; fill: none; }
  .phot { stroke: #cc7000; stroke-width: 1.8; fill: none; }
  .mbar { stroke: #8e44ad; stroke-width: 1.8; fill: none; opacity: 0.9; }
  .mph { stroke: #c77dff; stroke-width: 1.6; fill: none; stroke-dasharray: 4,3; opacity: 0.95; }
  .remap-x { stroke: #cc2222; stroke-width: 1.5; fill: none; }
  .remap-link { stroke: #cc2222; stroke-width: 0.8; stroke-dasharray: 3,3; fill: none; opacity: 0.7; }
  .title { fill: #111; font-size: 16px; font-weight: 600; }
  .subtitle { fill: #555; font-size: 11px; }
  .preview-bg { fill: #000; }
  .preview-lbl { fill: #888; font-size: 10px; }
  .legend { font-size: 11px; }
</style>
<text x="378.5" y="22" text-anchor="middle" class="title">UGC07261</text>
<text x="378.5" y="38" text-anchor="middle" class="subtitle">rMax=6.7 kpc, N=7, FW=0.8 km/s, 1.1%, 0.15σ, MOND=4.6 km/s, 8.6%, 0.81σ, amp=104</text>
<line x1="70" y1="395.0" x2="687" y2="395.0" class="grid"/>
<text x="64" y="399.0" text-anchor="end" class="lbl-l">0</text>
<line x1="70" y1="327.0" x2="687" y2="327.0" class="grid"/>
<text x="64" y="331.0" text-anchor="end" class="lbl-l">18</text>
<line x1="70" y1="259.0" x2="687" y2="259.0" class="grid"/>
<text x="64" y="263.0" text-anchor="end" class="lbl-l">36</text>
<line x1="70" y1="191.0" x2="687" y2="191.0" class="grid"/>
<text x="64" y="195.0" text-anchor="end" class="lbl-l">55</text>
<line x1="70" y1="123.0" x2="687" y2="123.0" class="grid"/>
<text x="64" y="127.0" text-anchor="end" class="lbl-l">73</text>
<line x1="70" y1="55.0" x2="687" y2="55.0" class="grid"/>
<text x="64" y="59.0" text-anchor="end" class="lbl-l">91</text>
<text x="693" y="399.0" text-anchor="start" class="lbl-r">0.0</text>
<text x="693" y="353.7" text-anchor="start" class="lbl-r">0.2</text>
<text x="693" y="308.3" text-anchor="start" class="lbl-r">0.4</text>
<text x="693" y="263.0" text-anchor="start" class="lbl-r">0.6</text>
<text x="693" y="217.7" text-anchor="start" class="lbl-r">0.8</text>
<text x="693" y="172.3" text-anchor="start" class="lbl-r">1.0</text>
<line x1="70.0" y1="55" x2="70.0" y2="395" class="grid"/>
<text x="70.0" y="411" text-anchor="middle" class="lbl">0.0</text>
<line x1="172.8" y1="55" x2="172.8" y2="395" class="grid"/>
<text x="172.8" y="411" text-anchor="middle" class="lbl">1.2</text>
<line x1="275.7" y1="55" x2="275.7" y2="395" class="grid"/>
<text x="275.7" y="411" text-anchor="middle" class="lbl">2.3</text>
<line x1="378.5" y1="55" x2="378.5" y2="395" class="grid"/>
<text x="378.5" y="411" text-anchor="middle" class="lbl">3.5</text>
<line x1="481.3" y1="55" x2="481.3" y2="395" class="grid"/>
<text x="481.3" y="411" text-anchor="middle" class="lbl">4.7</text>
<line x1="584.2" y1="55" x2="584.2" y2="395" class="grid"/>
<text x="584.2" y="411" text-anchor="middle" class="lbl">5.8</text>
<line x1="687.0" y1="55" x2="687.0" y2="395" class="grid"/>
<text x="687.0" y="411" text-anchor="middle" class="lbl">7.0</text>
<text x="378.5" y="438" text-anchor="middle" class="lbl">radius (kpc)</text>
<text x="16" y="225" text-anchor="middle" class="lbl-l" transform="rotate(-90, 16, 225)">velocity (km/s)</text>
<text x="724" y="225" text-anchor="middle" class="lbl-r" transform="rotate(-90, 724, 225)">profiles (normalized to peak)</text>
<rect x="70" y="55" width="617" height="340" class="ax"/>
<path d="M 70.0,168.3 L 72.8,172.5 L 75.6,176.6 L 78.5,180.7 L 81.3,184.9 L 84.1,189.0 L 86.9,193.1 L 89.7,197.3 L 92.5,201.4 L 95.4,205.5 L 98.2,209.7 L 101.0,216.9 L 103.8,224.9 L 106.6,232.9 L 109.4,240.8 L 112.3,243.4 L 115.1,244.3 L 117.9,245.3 L 120.7,246.3 L 123.5,247.2 L 126.3,248.2 L 129.2,249.1 L 132.0,250.1 L 134.8,251.0 L 137.6,252.0 L 140.4,252.9 L 143.3,253.9 L 146.1,254.8 L 148.9,255.8 L 151.7,256.8 L 154.5,257.7 L 157.3,258.7 L 160.2,259.6 L 163.0,260.6 L 165.8,261.5 L 168.6,262.5 L 171.4,263.4 L 174.2,264.4 L 177.1,265.4 L 179.9,266.3 L 182.7,267.3 L 185.5,268.2 L 188.3,269.2 L 191.1,270.1 L 194.0,271.1 L 196.8,272.0 L 199.6,273.0 L 202.4,273.9 L 205.2,274.9 L 208.1,275.9 L 210.9,276.8 L 213.7,277.8 L 216.5,278.7 L 219.3,279.7 L 222.1,280.6 L 225.0,281.6 L 227.8,282.5 L 230.6,283.5 L 233.4,284.5 L 236.2,285.4 L 239.0,286.4 L 241.9,287.3 L 244.7,288.3 L 247.5,289.2 L 250.3,290.2 L 253.1,291.1 L 255.9,291.9 L 258.8,292.3 L 261.6,292.6 L 264.4,293.0 L 267.2,293.4 L 270.0,293.7 L 272.8,294.1 L 275.7,294.5 L 278.5,294.9 L 281.3,295.2 L 284.1,295.6 L 286.9,296.0 L 289.8,296.4 L 292.6,296.7 L 295.4,297.1 L 298.2,297.5 L 301.0,297.8 L 303.8,298.2 L 306.7,298.6 L 309.5,299.0 L 312.3,299.3 L 315.1,299.7 L 317.9,300.1 L 320.7,300.5 L 323.6,300.8 L 326.4,301.2 L 329.2,301.6 L 332.0,301.9 L 334.8,302.3 L 337.6,302.7 L 340.5,303.1 L 343.3,303.4 L 346.1,303.8 L 348.9,304.2 L 351.7,304.6 L 354.6,304.9 L 357.4,305.3 L 360.2,305.7 L 363.0,306.0 L 365.8,306.4 L 368.6,306.8 L 371.5,307.2 L 374.3,307.5 L 377.1,307.9 L 379.9,308.3 L 382.7,308.7 L 385.5,309.0 L 388.4,309.4 L 391.2,309.8 L 394.0,310.1 L 396.8,310.5 L 399.6,310.9 L 402.4,311.3 L 405.3,311.6 L 408.1,312.0 L 410.9,312.4 L 413.7,312.7 L 416.5,313.1 L 419.4,313.5 L 422.2,313.9 L 425.0,314.2 L 427.8,314.6 L 430.6,315.0 L 433.4,315.4 L 436.3,315.7 L 439.1,316.1 L 441.9,316.5 L 444.7,316.8 L 447.5,317.2 L 450.3,317.6 L 453.2,318.0 L 456.0,318.3 L 458.8,318.7 L 461.6,319.1 L 464.4,319.5 L 467.2,319.8 L 470.1,320.2 L 472.9,320.6 L 475.7,320.9 L 478.5,321.3 L 481.3,321.7 L 484.2,322.1 L 487.0,322.4 L 489.8,322.8 L 492.6,323.2 L 495.4,323.6 L 498.2,323.9 L 501.1,324.3 L 503.9,324.7 L 506.7,325.0 L 509.5,325.4 L 512.3,325.8 L 515.1,326.2 L 518.0,326.5 L 520.8,326.9 L 523.6,327.3 L 526.4,327.6 L 529.2,328.0 L 532.0,328.4 L 534.9,328.8 L 537.7,329.1 L 540.5,329.5 L 543.3,329.9 L 546.1,330.3 L 548.9,330.6 L 551.8,331.0 L 554.6,331.4 L 557.4,331.7 L 560.2,332.1 L 563.0,332.5 L 565.9,332.9 L 568.7,333.2 L 571.5,333.6 L 574.3,334.0 L 577.1,334.4 L 579.9,334.7 L 582.8,335.1 L 585.6,335.5 L 588.4,335.8 L 591.2,336.2 L 594.0,336.6 L 596.8,337.0 L 599.7,337.3 L 602.5,337.7 L 605.3,338.1 L 608.1,338.5 L 610.9,338.8 L 613.7,339.2 L 616.6,339.6 L 619.4,339.9 L 622.2,340.3 L 625.0,340.7 L 627.8,341.1 L 630.7,341.4 L 633.5,341.8 L 636.3,342.2 L 639.1,342.6 L 641.9,342.9 L 644.7,349.2 L 647.6,359.2 L 650.4,369.3 L 653.2,379.3 L 656.0,389.3 L 658.8,395.0 L 661.6,395.0 L 664.5,395.0 L 667.3,395.0 L 670.1,395.0 L 672.9,395.0 L 675.7,395.0 L 678.5,395.0 L 681.4,395.0 L 684.2,395.0 L 687.0,395.0" class="rho"/>
<path d="M 153.8,168.3 L 237.6,286.5 L 322.3,348.3 L 406.0,377.5 L 489.8,391.6 L 574.5,395.0 L 658.3,395.0" class="phot"/>
<path d="M 153.8,191.5 L 237.6,168.3 L 322.3,237.4 L 406.0,309.8 L 489.8,335.6 L 574.5,336.2 L 658.3,321.3" class="mbar"/>
<path d="M 153.8,178.4 L 237.6,168.3 L 322.3,197.9 L 406.0,235.4 L 489.8,256.3 L 574.5,260.2 L 658.3,251.5" class="mph"/>
<path d="M 76.2,342.9 L 82.3,322.3 L 88.5,307.2 L 94.7,295.1 L 100.8,285.0 L 107.0,277.1 L 113.2,270.7 L 119.4,264.7 L 125.5,258.8 L 131.7,253.2 L 137.9,247.8 L 144.0,242.7 L 150.2,237.7 L 156.4,233.0 L 162.6,228.5 L 168.7,224.2 L 174.9,220.1 L 181.1,216.1 L 187.2,212.3 L 193.4,208.7 L 199.6,205.2 L 205.7,201.9 L 211.9,198.7 L 218.1,195.7 L 224.3,192.7 L 230.4,189.9 L 236.6,187.2 L 242.8,184.6 L 248.9,182.1 L 255.1,179.8 L 261.3,177.5 L 267.4,175.2 L 273.6,173.0 L 279.8,170.7 L 285.9,168.6 L 292.1,166.4 L 298.3,164.3 L 304.5,162.3 L 310.6,160.2 L 316.8,158.2 L 323.0,156.2 L 329.1,154.3 L 335.3,152.4 L 341.5,150.5 L 347.7,148.7 L 353.8,146.9 L 360.0,145.2 L 366.2,143.4 L 372.3,141.7 L 378.5,140.1 L 384.7,138.4 L 390.8,136.8 L 397.0,135.3 L 403.2,133.7 L 409.3,132.2 L 415.5,130.7 L 421.7,129.3 L 427.9,127.9 L 434.0,126.5 L 440.2,125.1 L 446.4,123.8 L 452.5,122.5 L 458.7,121.2 L 464.9,120.0 L 471.1,118.7 L 477.2,117.6 L 483.4,116.4 L 489.6,115.3 L 495.7,114.1 L 501.9,113.1 L 508.1,112.0 L 514.2,111.0 L 520.4,110.0 L 526.6,109.0 L 532.8,108.0 L 538.9,107.1 L 545.1,106.2 L 551.3,105.3 L 557.4,104.5 L 563.6,103.6 L 569.8,102.8 L 575.9,102.1 L 582.1,101.3 L 588.3,100.6 L 594.4,99.8 L 600.6,99.2 L 606.8,98.5 L 613.0,97.9 L 619.1,97.2 L 625.3,96.6 L 631.5,96.1 L 637.6,95.5 L 643.8,95.0 L 650.0,95.0 L 656.2,95.9 L 662.3,97.5 L 668.5,99.0 L 674.7,100.6 L 680.8,102.0 L 687.0,103.5" class="nt"/>
<path d="M 153.8,255.5 L 237.6,166.0 L 322.3,145.4 L 406.0,127.3 L 489.8,118.6 L 574.5,106.0 L 658.3,85.9" class="mond"/>
<path d="M 75.1,372.5 L 80.3,355.9 L 85.4,338.2 L 90.6,321.5 L 95.7,306.5 L 100.8,293.5 L 106.0,282.2 L 111.1,272.7 L 116.3,264.7 L 121.4,257.6 L 126.6,251.2 L 131.7,245.2 L 136.8,239.3 L 142.0,233.6 L 147.1,228.0 L 152.3,222.4 L 157.4,217.0 L 162.6,211.7 L 167.7,206.6 L 172.8,201.6 L 178.0,196.9 L 183.1,192.3 L 188.3,188.0 L 193.4,183.9 L 198.5,180.0 L 203.7,176.4 L 208.8,173.1 L 214.0,170.1 L 219.1,167.3 L 224.3,164.8 L 229.4,162.7 L 234.5,160.9 L 239.7,159.4 L 244.8,158.2 L 250.0,157.4 L 255.1,156.7 L 260.2,156.1 L 265.4,155.7 L 270.5,155.2 L 275.7,154.7 L 280.8,154.2 L 285.9,153.6 L 291.1,152.9 L 296.2,152.2 L 301.4,151.5 L 306.5,150.6 L 311.7,149.8 L 316.8,148.9 L 321.9,148.0 L 327.1,147.1 L 332.2,146.1 L 337.4,145.2 L 342.5,144.2 L 347.6,143.3 L 352.8,142.3 L 357.9,141.4 L 363.1,140.5 L 368.2,139.6 L 373.4,138.7 L 378.5,137.8 L 383.6,136.9 L 388.8,136.0 L 393.9,135.2 L 399.1,134.4 L 404.2,133.6 L 409.3,132.8 L 414.5,132.1 L 419.6,131.4 L 424.8,130.7 L 429.9,130.0 L 435.1,129.3 L 440.2,128.7 L 445.3,128.1 L 450.5,127.5 L 455.6,126.9 L 460.8,126.4 L 465.9,125.9 L 471.1,125.4 L 476.2,124.9 L 481.3,124.4 L 486.5,124.0 L 491.6,123.5 L 496.8,123.1 L 501.9,122.7 L 507.0,122.3 L 512.2,121.9 L 517.3,121.5 L 522.5,121.1 L 527.6,120.7 L 532.8,120.2 L 537.9,119.8 L 543.0,119.3 L 548.2,118.8 L 553.3,118.3 L 558.5,117.7 L 563.6,117.0 L 568.7,116.3 L 573.9,115.4 L 579.0,114.4 L 584.2,113.4 L 589.3,112.1 L 594.4,110.6 L 599.6,109.0 L 604.7,107.1 L 609.9,104.9 L 615.0,102.6 L 620.2,100.1 L 625.3,97.6 L 630.4,95.3 L 635.6,93.7 L 640.7,93.3 L 645.9,94.3 L 651.0,97.1 L 656.1,101.5 L 661.3,107.3 L 666.4,114.1 L 671.6,121.3 L 676.7,128.7 L 681.9,135.9 L 687.0,142.8" class="fw"/>
<line x1="153.79" y1="199.16" x2="153.79" y2="241.42" class="err"/>
<line x1="150.79" y1="199.16" x2="156.79" y2="199.16" class="err"/>
<line x1="150.79" y1="241.42" x2="156.79" y2="241.42" class="err"/>
<circle cx="153.79" cy="220.29" r="2.5" class="obs"/>
<line x1="237.58" y1="138.68" x2="237.58" y2="180.94" class="err"/>
<line x1="234.58" y1="138.68" x2="240.58" y2="138.68" class="err"/>
<line x1="234.58" y1="180.94" x2="240.58" y2="180.94" class="err"/>
<circle cx="237.58" cy="159.81" r="2.5" class="obs"/>
<line x1="322.26" y1="124.49" x2="322.26" y2="166.75" class="err"/>
<line x1="319.26" y1="124.49" x2="325.26" y2="124.49" class="err"/>
<line x1="319.26" y1="166.75" x2="325.26" y2="166.75" class="err"/>
<circle cx="322.26" cy="145.62" r="2.5" class="obs"/>
<line x1="406.05" y1="114.04" x2="406.05" y2="156.30" class="err"/>
<line x1="403.05" y1="114.04" x2="409.05" y2="114.04" class="err"/>
<line x1="403.05" y1="156.30" x2="409.05" y2="156.30" class="err"/>
<circle cx="406.05" cy="135.17" r="2.5" class="obs"/>
<line x1="489.84" y1="99.85" x2="489.84" y2="142.11" class="err"/>
<line x1="486.84" y1="99.85" x2="492.84" y2="99.85" class="err"/>
<line x1="486.84" y1="142.11" x2="492.84" y2="142.11" class="err"/>
<circle cx="489.84" cy="120.98" r="2.5" class="obs"/>
<line x1="574.51" y1="95.00" x2="574.51" y2="137.26" class="err"/>
<line x1="571.51" y1="95.00" x2="577.51" y2="95.00" class="err"/>
<line x1="571.51" y1="137.26" x2="577.51" y2="137.26" class="err"/>
<circle cx="574.51" cy="116.13" r="2.5" class="obs"/>
<line x1="658.30" y1="89.77" x2="658.30" y2="132.03" class="err"/>
<line x1="655.30" y1="89.77" x2="661.30" y2="89.77" class="err"/>
<line x1="655.30" y1="132.03" x2="661.30" y2="132.03" class="err"/>
<circle cx="658.30" cy="110.90" r="2.5" class="obs"/>
<g class="legend">
<line x1="82" y1="69" x2="106" y2="69" class="fw"/>
<text x="112" y="73" class="lbl-l">framework: 0.8 km/s, 1.1%, 0.15σ</text>
<line x1="82" y1="87" x2="106" y2="87" class="nt"/>
<text x="112" y="91" class="lbl-l">Newtonian: 3.9 km/s, 6.3%, 0.69σ</text>
<line x1="82" y1="105" x2="106" y2="105" class="mond"/>
<text x="112" y="109" class="lbl-m">MOND/RAR: 4.6 km/s, 8.6%, 0.81σ</text>
<circle cx="94" cy="123" r="2.5" class="obs"/>
<text x="112" y="127" class="lbl">observed V±err</text>
</g>
<g class="legend">
<line x1="472" y1="69" x2="496" y2="69" class="rho"/>
<text x="502" y="73" class="lbl-r">ρ(r) raw</text>
<line x1="472" y1="87" x2="496" y2="87" class="phot"/>
<text x="502" y="91" class="lbl-p">photometric baryonic profile</text>
<line x1="472" y1="105" x2="496" y2="105" class="mbar"/>
<text x="502" y="109" class="lbl-m">MOND baryonic annulus</text>
<line x1="472" y1="123" x2="496" y2="123" class="mph"/>
<text x="502" y="127" class="lbl-m">MOND phantom annulus</text>
<text x="472" y="147" class="lbl-r">ρ peak: 212 M☉/pc²</text>
<text x="472" y="163" class="lbl-p">phot peak: 48.55 (arb.)</text>
<text x="472" y="179" class="lbl-m">Σbar peak: 42.26 M☉/pc²</text>
<text x="472" y="195" class="lbl-m">Σphantom peak: 87.30 M☉/pc²</text>
</g>
<rect x="775" y="55" width="170" height="170" class="preview-bg"/>
<defs><radialGradient id="g_UGC07261" cx="0.5" cy="0.5" r="0.5">
  <stop offset="0.0000" stop-color="rgb(255,64,64)"/>
  <stop offset="0.0313" stop-color="rgb(255,64,64)"/>
  <stop offset="0.0625" stop-color="rgb(255,64,64)"/>
  <stop offset="0.0938" stop-color="rgb(238,60,60)"/>
  <stop offset="0.1250" stop-color="rgb(230,58,58)"/>
  <stop offset="0.1563" stop-color="rgb(222,56,56)"/>
  <stop offset="0.1875" stop-color="rgb(214,54,54)"/>
  <stop offset="0.2188" stop-color="rgb(206,52,52)"/>
  <stop offset="0.2500" stop-color="rgb(198,50,50)"/>
  <stop offset="0.2813" stop-color="rgb(190,48,48)"/>
  <stop offset="0.3125" stop-color="rgb(183,46,46)"/>
  <stop offset="0.3438" stop-color="rgb(179,45,45)"/>
  <stop offset="0.3750" stop-color="rgb(176,44,44)"/>
  <stop offset="0.4063" stop-color="rgb(173,43,43)"/>
  <stop offset="0.4375" stop-color="rgb(170,43,43)"/>
  <stop offset="0.4688" stop-color="rgb(167,42,42)"/>
  <stop offset="0.5000" stop-color="rgb(164,41,41)"/>
  <stop offset="0.5313" stop-color="rgb(160,40,40)"/>
  <stop offset="0.5625" stop-color="rgb(157,39,39)"/>
  <stop offset="0.5938" stop-color="rgb(154,39,39)"/>
  <stop offset="0.6250" stop-color="rgb(151,38,38)"/>
  <stop offset="0.6563" stop-color="rgb(148,37,37)"/>
  <stop offset="0.6875" stop-color="rgb(145,36,36)"/>
  <stop offset="0.7188" stop-color="rgb(142,36,36)"/>
  <stop offset="0.7500" stop-color="rgb(139,35,35)"/>
  <stop offset="0.7813" stop-color="rgb(136,34,34)"/>
  <stop offset="0.8125" stop-color="rgb(133,33,33)"/>
  <stop offset="0.8438" stop-color="rgb(129,32,32)"/>
  <stop offset="0.8750" stop-color="rgb(126,32,32)"/>
  <stop offset="0.9063" stop-color="rgb(123,31,31)"/>
  <stop offset="0.9375" stop-color="rgb(120,30,30)"/>
  <stop offset="0.9688" stop-color="rgb(117,29,29)"/>
  <stop offset="1.0000" stop-color="rgb(0,0,0)"/>
</radialGradient></defs>
<circle cx="860" cy="140" r="81" fill="url(#g_UGC07261)"/>
<text x="860" y="49" text-anchor="middle" class="preview-lbl">face-on luminance from ρ(r)</text>
<text x="860" y="239" text-anchor="middle" class="preview-lbl">edge at r = 6.7 kpc</text>
</svg>