<svg xmlns="http://www.w3.org/2000/svg" viewBox="0 0 720 420" width="720" height="420" font-family="sans-serif" font-size="12">
<style>
  .ax { stroke: #333; stroke-width: 1; fill: none; }
  .grid { stroke: #ddd; stroke-width: 0.5; fill: none; }
  .lbl { fill: #333; }
  .lbl-l { fill: #0066cc; }
  .lbl-r { fill: #b03030; }
  .obs { fill: #222; }
  .err { stroke: #555; stroke-width: 0.8; fill: none; }
  .fw { stroke: #0066cc; stroke-width: 2.2; fill: none; }
  .nt { stroke: #cc6600; stroke-width: 1.6; fill: none; stroke-dasharray: 5,3; }
  .rho { stroke: #b03030; stroke-width: 2.0; fill: none; }
  .sig { stroke: #b03030; stroke-width: 1.6; fill: none; stroke-dasharray: 4,2; opacity: 0.85; }
  .title { fill: #111; font-size: 16px; font-weight: 600; }
  .subtitle { fill: #555; font-size: 11px; }
  .legend { font-size: 11px; }
</style>
<text x="360.0" y="22" text-anchor="middle" class="title">UGC02953</text>
<text x="360.0" y="38" text-anchor="middle" class="subtitle">rMax=62.4 kpc, N=115, RMS=37.3 km/s (13.6%), amp=418</text>
<line x1="70" y1="365.0" x2="635" y2="365.0" class="grid"/>
<text x="64" y="369.0" text-anchor="end" class="lbl-l">0</text>
<line x1="70" y1="303.0" x2="635" y2="303.0" class="grid"/>
<text x="64" y="307.0" text-anchor="end" class="lbl-l">240</text>
<line x1="70" y1="241.00000000000003" x2="635" y2="241.00000000000003" class="grid"/>
<text x="64" y="245.00000000000003" text-anchor="end" class="lbl-l">480</text>
<line x1="70" y1="179.0" x2="635" y2="179.0" class="grid"/>
<text x="64" y="183.0" text-anchor="end" class="lbl-l">719</text>
<line x1="70" y1="117.00000000000003" x2="635" y2="117.00000000000003" class="grid"/>
<text x="64" y="121.00000000000003" text-anchor="end" class="lbl-l">959</text>
<line x1="70" y1="55.0" x2="635" y2="55.0" class="grid"/>
<text x="64" y="59.0" text-anchor="end" class="lbl-l">1199</text>
<text x="641" y="369.0" text-anchor="start" class="lbl-r">0.0</text>
<text x="641" y="327.6666666666667" text-anchor="start" class="lbl-r">0.2</text>
<text x="641" y="286.33333333333337" text-anchor="start" class="lbl-r">0.4</text>
<text x="641" y="245.00000000000003" text-anchor="start" class="lbl-r">0.6</text>
<text x="641" y="203.66666666666666" text-anchor="start" class="lbl-r">0.8</text>
<text x="641" y="162.33333333333334" text-anchor="start" class="lbl-r">1.0</text>
<line x1="70.0" y1="55" x2="70.0" y2="365" class="grid"/>
<text x="70.0" y="381" text-anchor="middle" class="lbl">0.0</text>
<line x1="164.16666666666666" y1="55" x2="164.16666666666666" y2="365" class="grid"/>
<text x="164.16666666666666" y="381" text-anchor="middle" class="lbl">11.5</text>
<line x1="258.3333333333333" y1="55" x2="258.3333333333333" y2="365" class="grid"/>
<text x="258.3333333333333" y="381" text-anchor="middle" class="lbl">22.9</text>
<line x1="352.5" y1="55" x2="352.5" y2="365" class="grid"/>
<text x="352.5" y="381" text-anchor="middle" class="lbl">34.4</text>
<line x1="446.66666666666663" y1="55" x2="446.66666666666663" y2="365" class="grid"/>
<text x="446.66666666666663" y="381" text-anchor="middle" class="lbl">45.9</text>
<line x1="540.8333333333335" y1="55" x2="540.8333333333335" y2="365" class="grid"/>
<text x="540.8333333333335" y="381" text-anchor="middle" class="lbl">57.3</text>
<line x1="635.0" y1="55" x2="635.0" y2="365" class="grid"/>
<text x="635.0" y="381" text-anchor="middle" class="lbl">68.8</text>
<text x="352.5" y="408" text-anchor="middle" class="lbl">radius (kpc)</text>
<text x="16" y="210.0" text-anchor="middle" class="lbl-l" transform="rotate(-90, 16, 210.0)">velocity (km/s)</text>
<text x="704" y="210.0" text-anchor="middle" class="lbl-r" transform="rotate(-90, 704, 210.0)">mass profile (normalized to peak)</text>
<rect x="70" y="55" width="565" height="310" class="ax"/>
<path d="M 70.0,158.3 L 72.6,196.1 L 75.2,233.8 L 77.7,271.5 L 80.3,308.3 L 82.9,309.4 L 85.5,310.6 L 88.1,311.8 L 90.6,313.0 L 93.2,314.2 L 95.8,315.4 L 98.4,316.6 L 101.0,317.8 L 103.5,319.0 L 106.1,320.2 L 108.7,321.4 L 111.3,322.6 L 113.9,323.8 L 116.4,325.0 L 119.0,326.2 L 121.6,327.4 L 124.2,328.6 L 126.8,329.8 L 129.3,330.9 L 131.9,332.1 L 134.5,333.3 L 137.1,334.5 L 139.7,335.7 L 142.2,336.9 L 144.8,338.1 L 147.4,338.3 L 150.0,338.5 L 152.6,338.7 L 155.1,339.0 L 157.7,339.2 L 160.3,339.4 L 162.9,339.6 L 165.5,339.8 L 168.0,340.0 L 170.6,340.2 L 173.2,340.4 L 175.8,340.6 L 178.4,340.8 L 180.9,341.0 L 183.5,341.3 L 186.1,341.5 L 188.7,341.7 L 191.3,341.9 L 193.8,342.1 L 196.4,342.3 L 199.0,342.5 L 201.6,342.7 L 204.2,342.9 L 206.7,343.1 L 209.3,343.4 L 211.9,343.6 L 214.5,343.8 L 217.1,344.0 L 219.6,344.2 L 222.2,344.4 L 224.8,344.6 L 227.4,344.8 L 230.0,345.0 L 232.5,345.2 L 235.1,345.5 L 237.7,345.7 L 240.3,345.9 L 242.9,346.1 L 245.4,346.3 L 248.0,346.5 L 250.6,346.7 L 253.2,346.8 L 255.8,346.8 L 258.3,346.9 L 260.9,347.0 L 263.5,347.0 L 266.1,347.1 L 268.7,347.2 L 271.2,347.3 L 273.8,347.3 L 276.4,347.4 L 279.0,347.5 L 281.6,347.5 L 284.1,347.6 L 286.7,347.7 L 289.3,347.7 L 291.9,347.8 L 294.5,347.9 L 297.0,347.9 L 299.6,348.0 L 302.2,348.1 L 304.8,348.1 L 307.4,348.2 L 309.9,348.3 L 312.5,348.4 L 315.1,348.4 L 317.7,348.5 L 320.3,348.6 L 322.8,348.6 L 325.4,348.7 L 328.0,348.8 L 330.6,348.8 L 333.2,348.9 L 335.7,349.0 L 338.3,349.0 L 340.9,349.1 L 343.5,349.2 L 346.1,349.3 L 348.6,349.3 L 351.2,349.4 L 353.8,349.5 L 356.4,349.5 L 358.9,349.6 L 361.5,349.7 L 364.1,349.7 L 366.7,349.8 L 369.3,349.9 L 371.8,349.9 L 374.4,350.0 L 377.0,350.1 L 379.6,350.2 L 382.2,350.2 L 384.7,350.3 L 387.3,350.4 L 389.9,350.4 L 392.5,350.5 L 395.1,350.6 L 397.6,350.6 L 400.2,350.7 L 402.8,350.8 L 405.4,350.8 L 408.0,350.9 L 410.5,351.0 L 413.1,351.1 L 415.7,351.1 L 418.3,351.2 L 420.9,351.3 L 423.4,351.3 L 426.0,351.4 L 428.6,351.5 L 431.2,351.5 L 433.8,351.6 L 436.3,351.7 L 438.9,351.7 L 441.5,351.8 L 444.1,351.9 L 446.7,351.9 L 449.2,352.0 L 451.8,352.1 L 454.4,352.2 L 457.0,352.2 L 459.6,352.3 L 462.1,352.4 L 464.7,352.4 L 467.3,352.5 L 469.9,352.6 L 472.5,352.6 L 475.0,352.7 L 477.6,352.8 L 480.2,352.8 L 482.8,352.9 L 485.4,353.0 L 487.9,353.1 L 490.5,353.1 L 493.1,353.2 L 495.7,353.3 L 498.3,353.3 L 500.8,353.4 L 503.4,353.5 L 506.0,353.5 L 508.6,353.6 L 511.2,353.7 L 513.7,353.7 L 516.3,353.8 L 518.9,353.9 L 521.5,354.0 L 524.1,354.0 L 526.6,354.1 L 529.2,354.2 L 531.8,354.2 L 534.4,354.3 L 537.0,354.4 L 539.5,354.4 L 542.1,354.5 L 544.7,354.6 L 547.3,354.6 L 549.9,354.7 L 552.4,354.8 L 555.0,354.8 L 557.6,354.9 L 560.2,355.0 L 562.8,355.1 L 565.3,355.1 L 567.9,355.2 L 570.5,355.3 L 573.1,355.3 L 575.7,355.4 L 578.2,355.5 L 580.8,355.5 L 583.4,355.6 L 586.0,355.7 L 588.6,355.7 L 591.1,355.8 L 593.7,355.9 L 596.3,356.0 L 598.9,356.0 L 601.5,356.1 L 604.0,358.0 L 606.6,362.4 L 609.2,365.0 L 611.8,365.0 L 614.4,365.0 L 616.9,365.0 L 619.5,365.0 L 622.1,365.0 L 624.7,365.0 L 627.3,365.0 L 629.8,365.0 L 632.4,365.0 L 635.0,365.0" class="rho"/>
<path d="M 70.0,158.3 L 72.6,161.9 L 75.2,166.9 L 77.7,173.1 L 80.3,179.9 L 82.9,186.7 L 85.5,193.0 L 88.1,198.6 L 90.6,203.6 L 93.2,208.1 L 95.8,212.2 L 98.4,216.0 L 101.0,219.6 L 103.5,223.0 L 106.1,226.3 L 108.7,229.5 L 111.3,232.6 L 113.9,235.6 L 116.4,238.5 L 119.0,241.4 L 121.6,244.2 L 124.2,247.0 L 126.8,249.6 L 129.3,252.2 L 131.9,254.7 L 134.5,257.1 L 137.1,259.5 L 139.7,261.7 L 142.2,263.8 L 144.8,265.8 L 147.4,267.8 L 150.0,269.6 L 152.6,271.4 L 155.1,273.0 L 157.7,274.6 L 160.3,276.1 L 162.9,277.6 L 165.5,279.0 L 168.0,280.4 L 170.6,281.7 L 173.2,283.0 L 175.8,284.3 L 178.4,285.5 L 180.9,286.7 L 183.5,287.8 L 186.1,289.0 L 188.7,290.1 L 191.3,291.2 L 193.8,292.3 L 196.4,293.3 L 199.0,294.3 L 201.6,295.3 L 204.2,296.3 L 206.7,297.3 L 209.3,298.2 L 211.9,299.2 L 214.5,300.1 L 217.1,301.0 L 219.6,301.9 L 222.2,302.7 L 224.8,303.6 L 227.4,304.4 L 230.0,305.2 L 232.5,306.0 L 235.1,306.8 L 237.7,307.6 L 240.3,308.3 L 242.9,309.0 L 245.4,309.8 L 248.0,310.5 L 250.6,311.1 L 253.2,311.8 L 255.8,312.4 L 258.3,313.1 L 260.9,313.7 L 263.5,314.3 L 266.1,314.9 L 268.7,315.5 L 271.2,316.0 L 273.8,316.6 L 276.4,317.1 L 279.0,317.6 L 281.6,318.2 L 284.1,318.7 L 286.7,319.2 L 289.3,319.7 L 291.9,320.2 L 294.5,320.6 L 297.0,321.1 L 299.6,321.6 L 302.2,322.0 L 304.8,322.5 L 307.4,322.9 L 309.9,323.4 L 312.5,323.8 L 315.1,324.2 L 317.7,324.7 L 320.3,325.1 L 322.8,325.5 L 325.4,325.9 L 328.0,326.3 L 330.6,326.7 L 333.2,327.1 L 335.7,327.5 L 338.3,327.9 L 340.9,328.3 L 343.5,328.6 L 346.1,329.0 L 348.6,329.4 L 351.2,329.7 L 353.8,330.1 L 356.4,330.5 L 358.9,330.8 L 361.5,331.2 L 364.1,331.5 L 366.7,331.9 L 369.3,332.2 L 371.8,332.5 L 374.4,332.9 L 377.0,333.2 L 379.6,333.5 L 382.2,333.9 L 384.7,334.2 L 387.3,334.5 L 389.9,334.8 L 392.5,335.1 L 395.1,335.4 L 397.6,335.8 L 400.2,336.1 L 402.8,336.4 L 405.4,336.7 L 408.0,337.0 L 410.5,337.3 L 413.1,337.6 L 415.7,337.8 L 418.3,338.1 L 420.9,338.4 L 423.4,338.7 L 426.0,339.0 L 428.6,339.3 L 431.2,339.5 L 433.8,339.8 L 436.3,340.1 L 438.9,340.4 L 441.5,340.6 L 444.1,340.9 L 446.7,341.1 L 449.2,341.4 L 451.8,341.7 L 454.4,341.9 L 457.0,342.2 L 459.6,342.4 L 462.1,342.7 L 464.7,342.9 L 467.3,343.2 L 469.9,343.4 L 472.5,343.7 L 475.0,343.9 L 477.6,344.2 L 480.2,344.4 L 482.8,344.6 L 485.4,344.9 L 487.9,345.1 L 490.5,345.3 L 493.1,345.6 L 495.7,345.8 L 498.3,346.0 L 500.8,346.2 L 503.4,346.5 L 506.0,346.7 L 508.6,346.9 L 511.2,347.1 L 513.7,347.3 L 516.3,347.6 L 518.9,347.8 L 521.5,348.0 L 524.1,348.2 L 526.6,348.4 L 529.2,348.6 L 531.8,348.8 L 534.4,349.0 L 537.0,349.2 L 539.5,349.4 L 542.1,349.6 L 544.7,349.8 L 547.3,350.0 L 549.9,350.2 L 552.4,350.4 L 555.0,350.6 L 557.6,350.8 L 560.2,351.0 L 562.8,351.2 L 565.3,351.4 L 567.9,351.6 L 570.5,351.8 L 573.1,352.0 L 575.7,352.3 L 578.2,352.5 L 580.8,352.7 L 583.4,352.9 L 586.0,353.1 L 588.6,353.3 L 591.1,353.5 L 593.7,353.7 L 596.3,353.9 L 598.9,354.2 L 601.5,354.4 L 604.0,354.6 L 606.6,354.8 L 609.2,355.0 L 611.8,355.2 L 614.4,355.4 L 616.9,355.6 L 619.5,355.8 L 622.1,356.0 L 624.7,356.1 L 627.3,356.3 L 629.8,356.5 L 632.4,356.6 L 635.0,356.7" class="sig"/>
<path d="M 75.7,269.7 L 81.3,256.7 L 87.0,249.7 L 92.6,240.7 L 98.2,231.9 L 103.9,223.8 L 109.5,216.5 L 115.2,210.1 L 120.8,204.5 L 126.5,199.6 L 132.1,195.4 L 137.8,191.9 L 143.4,189.0 L 149.1,186.5 L 154.8,183.9 L 160.4,181.3 L 166.1,178.7 L 171.7,176.1 L 177.4,173.5 L 183.0,171.0 L 188.6,168.5 L 194.3,166.1 L 200.0,163.8 L 205.6,161.5 L 211.2,159.3 L 216.9,157.2 L 222.6,155.2 L 228.2,153.3 L 233.8,151.4 L 239.5,149.6 L 245.2,147.9 L 250.8,146.3 L 256.5,144.7 L 262.1,143.1 L 267.8,141.5 L 273.4,139.9 L 279.1,138.3 L 284.7,136.8 L 290.4,135.2 L 296.0,133.7 L 301.6,132.1 L 307.3,130.6 L 312.9,129.1 L 318.6,127.7 L 324.2,126.2 L 329.9,124.8 L 335.6,123.4 L 341.2,122.0 L 346.9,120.6 L 352.5,119.3 L 358.1,117.9 L 363.8,116.6 L 369.4,115.3 L 375.1,114.1 L 380.8,112.8 L 386.4,111.6 L 392.0,110.4 L 397.7,109.3 L 403.3,108.1 L 409.0,107.0 L 414.7,105.9 L 420.3,104.8 L 425.9,103.8 L 431.6,102.7 L 437.2,101.7 L 442.9,100.7 L 448.5,99.7 L 454.2,98.8 L 459.8,97.9 L 465.5,97.0 L 471.1,96.1 L 476.8,95.2 L 482.4,94.4 L 488.1,93.6 L 493.8,92.8 L 499.4,92.0 L 505.0,91.3 L 510.7,90.5 L 516.4,89.8 L 522.0,89.2 L 527.7,88.5 L 533.3,87.9 L 539.0,87.2 L 544.6,86.6 L 550.2,86.1 L 555.9,85.5 L 561.6,85.0 L 567.2,84.5 L 572.9,84.0 L 578.5,83.5 L 584.1,83.0 L 589.8,82.6 L 595.5,82.2 L 601.1,81.8 L 606.8,81.9 L 612.4,83.3 L 618.0,84.7 L 623.7,86.1 L 629.4,87.7 L 635.0,89.0" class="nt"/>
<path d="M 74.7,330.5 L 79.4,312.4 L 84.1,301.7 L 88.8,297.6 L 93.5,296.2 L 98.2,294.8 L 103.0,292.7 L 107.7,290.3 L 112.4,287.8 L 117.1,285.5 L 121.8,283.5 L 126.5,282.1 L 131.2,281.1 L 135.9,280.9 L 140.6,281.3 L 145.3,282.2 L 150.0,283.4 L 154.8,284.6 L 159.5,285.5 L 164.2,286.1 L 168.9,286.6 L 173.6,286.8 L 178.3,287.0 L 183.0,287.1 L 187.7,287.1 L 192.4,287.1 L 197.1,287.1 L 201.8,287.1 L 206.5,287.0 L 211.2,287.1 L 216.0,287.1 L 220.7,287.2 L 225.4,287.4 L 230.1,287.6 L 234.8,288.0 L 239.5,288.4 L 244.2,289.0 L 248.9,289.7 L 253.6,290.5 L 258.3,291.2 L 263.0,291.9 L 267.8,292.5 L 272.5,293.0 L 277.2,293.4 L 281.9,293.8 L 286.6,294.1 L 291.3,294.4 L 296.0,294.6 L 300.7,294.8 L 305.4,295.0 L 310.1,295.2 L 314.8,295.4 L 319.5,295.5 L 324.2,295.6 L 329.0,295.7 L 333.7,295.8 L 338.4,295.9 L 343.1,296.0 L 347.8,296.1 L 352.5,296.2 L 357.2,296.2 L 361.9,296.3 L 366.6,296.3 L 371.3,296.4 L 376.0,296.4 L 380.7,296.5 L 385.5,296.6 L 390.2,296.6 L 394.9,296.7 L 399.6,296.7 L 404.3,296.8 L 409.0,296.8 L 413.7,296.9 L 418.4,296.9 L 423.1,297.0 L 427.8,297.0 L 432.5,297.1 L 437.3,297.2 L 442.0,297.2 L 446.7,297.3 L 451.4,297.4 L 456.1,297.4 L 460.8,297.5 L 465.5,297.6 L 470.2,297.6 L 474.9,297.7 L 479.6,297.8 L 484.3,297.9 L 489.0,297.9 L 493.8,298.0 L 498.5,298.1 L 503.2,298.2 L 507.9,298.2 L 512.6,298.3 L 517.3,298.3 L 522.0,298.3 L 526.7,298.4 L 531.4,298.4 L 536.1,298.3 L 540.8,298.3 L 545.5,298.2 L 550.2,298.1 L 555.0,297.9 L 559.7,297.6 L 564.4,297.2 L 569.1,296.8 L 573.8,296.1 L 578.5,295.4 L 583.2,294.5 L 587.9,293.4 L 592.6,292.4 L 597.3,291.7 L 602.0,291.7 L 606.8,292.3 L 611.5,293.9 L 616.2,296.1 L 620.9,298.5 L 625.6,301.0 L 630.3,303.4 L 635.0,305.5" class="fw"/>
<line x1="70.73926028176939" y1="291.58286871868063" x2="70.73926028176939" y2="318.9429690693801" class="err"/>
<line x1="67.73926028176939" y1="291.58286871868063" x2="73.73926028176939" y2="291.58286871868063" class="err"/>
<line x1="67.73926028176939" y1="318.9429690693801" x2="73.73926028176939" y2="318.9429690693801" class="err"/>
<circle cx="70.73926028176939" cy="305.26291889403035" r="2.5" class="obs"/>
<line x1="71.39638053223106" y1="298.0479207864263" x2="71.39638053223106" y2="312.4779170016345" class="err"/>
<line x1="68.39638053223106" y1="298.0479207864263" x2="74.39638053223106" y2="298.0479207864263" class="err"/>
<line x1="68.39638053223106" y1="312.4779170016345" x2="74.39638053223106" y2="312.4779170016345" class="err"/>
<circle cx="71.39638053223106" cy="305.26291889403035" r="2.5" class="obs"/>
<line x1="72.13564081400044" y1="301.0218447375893" x2="72.13564081400044" y2="309.50399305047154" class="err"/>
<line x1="69.13564081400044" y1="301.0218447375893" x2="75.13564081400044" y2="301.0218447375893" class="err"/>
<line x1="69.13564081400044" y1="309.50399305047154" x2="75.13564081400044" y2="309.50399305047154" class="err"/>
<circle cx="72.13564081400044" cy="305.26291889403035" r="2.5" class="obs"/>
<line x1="72.79276106446211" y1="302.18555410978354" x2="72.79276106446211" y2="308.3402836782773" class="err"/>
<line x1="69.79276106446211" y1="302.18555410978354" x2="75.79276106446211" y2="302.18555410978354" class="err"/>
<line x1="69.79276106446211" y1="308.3402836782773" x2="75.79276106446211" y2="308.3402836782773" class="err"/>
<circle cx="72.79276106446211" cy="305.26291889403035" r="2.5" class="obs"/>
<line x1="73.5320213462315" y1="302.92515606633356" x2="73.5320213462315" y2="307.08347755630757" class="err"/>
<line x1="70.5320213462315" y1="302.92515606633356" x2="76.5320213462315" y2="302.92515606633356" class="err"/>
<line x1="70.5320213462315" y1="307.08347755630757" x2="76.5320213462315" y2="307.08347755630757" class="err"/>
<circle cx="73.5320213462315" cy="305.00431681132056" r="2.5" class="obs"/>
<line x1="74.18914159669318" y1="303.31564521122544" x2="74.18914159669318" y2="306.69298841141574" class="err"/>
<line x1="71.18914159669318" y1="303.31564521122544" x2="77.18914159669318" y2="303.31564521122544" class="err"/>
<line x1="71.18914159669318" y1="306.69298841141574" x2="77.18914159669318" y2="306.69298841141574" class="err"/>
<circle cx="74.18914159669318" cy="305.00431681132056" r="2.5" class="obs"/>
<line x1="74.92840187846255" y1="303.7759569184489" x2="74.92840187846255" y2="306.2326767041923" class="err"/>
<line x1="71.92840187846255" y1="303.7759569184489" x2="77.92840187846255" y2="303.7759569184489" class="err"/>
<line x1="71.92840187846255" y1="306.2326767041923" x2="77.92840187846255" y2="306.2326767041923" class="err"/>
<circle cx="74.92840187846255" cy="305.00431681132056" r="2.5" class="obs"/>
<line x1="75.66766216023194" y1="303.9699084804813" x2="75.66766216023194" y2="306.0387251421598" class="err"/>
<line x1="72.66766216023194" y1="303.9699084804813" x2="78.66766216023194" y2="303.9699084804813" class="err"/>
<line x1="72.66766216023194" y1="306.0387251421598" x2="78.66766216023194" y2="306.0387251421598" class="err"/>
<circle cx="75.66766216023194" cy="305.00431681132056" r="2.5" class="obs"/>
<line x1="76.32478241069362" y1="303.27426887799186" x2="76.32478241069362" y2="306.2171605792297" class="err"/>
<line x1="73.32478241069362" y1="303.27426887799186" x2="79.32478241069362" y2="303.27426887799186" class="err"/>
<line x1="73.32478241069362" y1="306.2171605792297" x2="79.32478241069362" y2="306.2171605792297" class="err"/>
<circle cx="76.32478241069362" cy="304.7457147286108" r="2.5" class="obs"/>
<line x1="77.06404269246299" y1="303.4966666691223" x2="77.06404269246299" y2="305.9947627880992" class="err"/>
<line x1="74.06404269246299" y1="303.4966666691223" x2="80.06404269246299" y2="303.4966666691223" class="err"/>
<line x1="74.06404269246299" y1="305.9947627880992" x2="80.06404269246299" y2="305.9947627880992" class="err"/>
<circle cx="77.06404269246299" cy="304.7457147286108" r="2.5" class="obs"/>
<line x1="77.80330297423238" y1="301.6942101526348" x2="77.80330297423238" y2="307.28001513916706" class="err"/>
<line x1="74.80330297423238" y1="301.6942101526348" x2="80.80330297423238" y2="301.6942101526348" class="err"/>
<line x1="74.80330297423238" y1="307.28001513916706" x2="80.80330297423238" y2="307.28001513916706" class="err"/>
<circle cx="77.80330297423238" cy="304.4871126459009" r="2.5" class="obs"/>
<line x1="78.46042322469405" y1="301.5649091112799" x2="78.46042322469405" y2="306.89211201510227" class="err"/>
<line x1="75.46042322469405" y1="301.5649091112799" x2="81.46042322469405" y2="301.5649091112799" class="err"/>
<line x1="75.46042322469405" y1="306.89211201510227" x2="81.46042322469405" y2="306.89211201510227" class="err"/>
<circle cx="78.46042322469405" cy="304.2285105631911" r="2.5" class="obs"/>
<line x1="79.11754347515573" y1="301.48732848646694" x2="79.11754347515573" y2="306.96969263991525" class="err"/>
<line x1="76.11754347515573" y1="301.48732848646694" x2="82.11754347515573" y2="301.48732848646694" class="err"/>
<line x1="76.11754347515573" y1="306.96969263991525" x2="82.11754347515573" y2="306.96969263991525" class="err"/>
<circle cx="79.11754347515573" cy="304.2285105631911" r="2.5" class="obs"/>
<line x1="79.85680375692512" y1="301.3321672368411" x2="79.85680375692512" y2="306.60764972412153" class="err"/>
<line x1="76.85680375692512" y1="301.3321672368411" x2="82.85680375692512" y2="301.3321672368411" class="err"/>
<line x1="76.85680375692512" y1="306.60764972412153" x2="82.85680375692512" y2="306.60764972412153" class="err"/>
<circle cx="79.85680375692512" cy="303.9699084804813" r="2.5" class="obs"/>
<line x1="80.5960640386945" y1="300.97012432104736" x2="80.5960640386945" y2="306.45248847449557" class="err"/>
<line x1="77.5960640386945" y1="300.97012432104736" x2="83.5960640386945" y2="300.97012432104736" class="err"/>
<line x1="77.5960640386945" y1="306.45248847449557" x2="83.5960640386945" y2="306.45248847449557" class="err"/>
<circle cx="80.5960640386945" cy="303.71130639777147" r="2.5" class="obs"/>
<line x1="81.33532432046388" y1="299.78055474058215" x2="81.33532432046388" y2="307.1248538895411" class="err"/>
<line x1="78.33532432046388" y1="299.78055474058215" x2="84.33532432046388" y2="299.78055474058215" class="err"/>
<line x1="78.33532432046388" y1="307.1248538895411" x2="84.33532432046388" y2="307.1248538895411" class="err"/>
<circle cx="81.33532432046388" cy="303.4527043150616" r="2.5" class="obs"/>
<line x1="81.99244457092556" y1="299.8064149488531" x2="81.99244457092556" y2="307.09899368127014" class="err"/>
<line x1="78.99244457092556" y1="299.8064149488531" x2="84.99244457092556" y2="299.8064149488531" class="err"/>
<line x1="78.99244457092556" y1="307.09899368127014" x2="84.99244457092556" y2="307.09899368127014" class="err"/>
<circle cx="81.99244457092556" cy="303.4527043150616" r="2.5" class="obs"/>
<line x1="82.73170485269493" y1="298.1255014112392" x2="82.73170485269493" y2="308.2627030534644" class="err"/>
<line x1="79.73170485269493" y1="298.1255014112392" x2="85.73170485269493" y2="298.1255014112392" class="err"/>
<line x1="79.73170485269493" y1="308.2627030534644" x2="85.73170485269493" y2="308.2627030534644" class="err"/>
<circle cx="82.73170485269493" cy="303.1941022323518" r="2.5" class="obs"/>
<line x1="83.3888251031566" y1="298.3323830774071" x2="83.3888251031566" y2="307.53861722187685" class="err"/>
<line x1="80.3888251031566" y1="298.3323830774071" x2="86.3888251031566" y2="298.3323830774071" class="err"/>
<line x1="80.3888251031566" y1="307.53861722187685" x2="86.3888251031566" y2="307.53861722187685" class="err"/>
<circle cx="83.3888251031566" cy="302.935500149642" r="2.5" class="obs"/>
<line x1="84.128085384926" y1="300.830479196384" x2="84.128085384926" y2="304.52331693748033" class="err"/>
<line x1="81.128085384926" y1="300.830479196384" x2="87.128085384926" y2="300.830479196384" class="err"/>
<line x1="81.128085384926" y1="304.52331693748033" x2="87.128085384926" y2="304.52331693748033" class="err"/>
<circle cx="84.128085384926" cy="302.67689806693215" r="2.5" class="obs"/>
<line x1="84.78520563538767" y1="299.34093119997544" x2="84.78520563538767" y2="305.49566076846924" class="err"/>
<line x1="81.78520563538767" y1="299.34093119997544" x2="87.78520563538767" y2="299.34093119997544" class="err"/>
<line x1="81.78520563538767" y1="305.49566076846924" x2="87.78520563538767" y2="305.49566076846924" class="err"/>
<circle cx="84.78520563538767" cy="302.4182959842223" r="2.5" class="obs"/>
<line x1="85.52446591715706" y1="299.34093119997544" x2="85.52446591715706" y2="304.9784566030496" class="err"/>
<line x1="82.52446591715706" y1="299.34093119997544" x2="88.52446591715706" y2="299.34093119997544" class="err"/>
<line x1="82.52446591715706" y1="304.9784566030496" x2="88.52446591715706" y2="304.9784566030496" class="err"/>
<circle cx="85.52446591715706" cy="302.1596939015125" r="2.5" class="obs"/>
<line x1="86.26372619892643" y1="297.34969516310974" x2="86.26372619892643" y2="306.45248847449557" class="err"/>
<line x1="83.26372619892643" y1="297.34969516310974" x2="89.26372619892643" y2="297.34969516310974" class="err"/>
<line x1="83.26372619892643" y1="306.45248847449557" x2="89.26372619892643" y2="306.45248847449557" class="err"/>
<circle cx="86.26372619892643" cy="301.9010918188027" r="2.5" class="obs"/>
<line x1="87.00298648069582" y1="298.435823910491" x2="87.00298648069582" y2="304.33195139627503" class="err"/>
<line x1="84.00298648069582" y1="298.435823910491" x2="90.00298648069582" y2="298.435823910491" class="err"/>
<line x1="84.00298648069582" y1="304.33195139627503" x2="90.00298648069582" y2="304.33195139627503" class="err"/>
<circle cx="87.00298648069582" cy="301.38388765338306" r="2.5" class="obs"/>
<line x1="87.6601067311575" y1="297.78931870371645" x2="87.6601067311575" y2="304.4612524376299" class="err"/>
<line x1="84.6601067311575" y1="297.78931870371645" x2="90.6601067311575" y2="297.78931870371645" class="err"/>
<line x1="84.6601067311575" y1="304.4612524376299" x2="90.6601067311575" y2="304.4612524376299" class="err"/>
<circle cx="87.6601067311575" cy="301.1252855706732" r="2.5" class="obs"/>
<line x1="88.31722698161917" y1="296.8842114142321" x2="88.31722698161917" y2="304.84915556169466" class="err"/>
<line x1="85.31722698161917" y1="296.8842114142321" x2="91.31722698161917" y2="296.8842114142321" class="err"/>
<line x1="85.31722698161917" y1="304.84915556169466" x2="91.31722698161917" y2="304.84915556169466" class="err"/>
<circle cx="88.31722698161917" cy="300.86668348796337" r="2.5" class="obs"/>
<line x1="89.05648726338855" y1="296.05668474956065" x2="89.05648726338855" y2="305.15947806094647" class="err"/>
<line x1="86.05648726338855" y1="296.05668474956065" x2="92.05648726338855" y2="296.05668474956065" class="err"/>
<line x1="86.05648726338855" y1="305.15947806094647" x2="92.05648726338855" y2="305.15947806094647" class="err"/>
<circle cx="89.05648726338855" cy="300.60808140525353" r="2.5" class="obs"/>
<line x1="89.71360751385022" y1="293.8844272547981" x2="89.71360751385022" y2="306.2973272248697" class="err"/>
<line x1="86.71360751385022" y1="293.8844272547981" x2="92.71360751385022" y2="293.8844272547981" class="err"/>
<line x1="86.71360751385022" y1="306.2973272248697" x2="92.71360751385022" y2="306.2973272248697" class="err"/>
<circle cx="89.71360751385022" cy="300.0908772398339" r="2.5" class="obs"/>
<line x1="90.45286779561961" y1="297.22039412175485" x2="90.45286779561961" y2="302.4441561924933" class="err"/>
<line x1="87.45286779561961" y1="297.22039412175485" x2="93.45286779561961" y2="297.22039412175485" class="err"/>
<line x1="87.45286779561961" y1="302.4441561924933" x2="93.45286779561961" y2="302.4441561924933" class="err"/>
<circle cx="90.45286779561961" cy="299.83227515712406" r="2.5" class="obs"/>
<line x1="91.19212807738899" y1="296.4704480818964" x2="91.19212807738899" y2="302.67689806693215" class="err"/>
<line x1="88.19212807738899" y1="296.4704480818964" x2="94.19212807738899" y2="296.4704480818964" class="err"/>
<line x1="88.19212807738899" y1="302.67689806693215" x2="94.19212807738899" y2="302.67689806693215" class="err"/>
<circle cx="91.19212807738899" cy="299.5736730744143" r="2.5" class="obs"/>
<line x1="91.93138835915838" y1="297.6755337873242" x2="91.93138835915838" y2="300.95460819608473" class="err"/>
<line x1="88.93138835915838" y1="297.6755337873242" x2="94.93138835915838" y2="297.6755337873242" class="err"/>
<line x1="88.93138835915838" y1="300.95460819608473" x2="94.93138835915838" y2="300.95460819608473" class="err"/>
<circle cx="91.93138835915838" cy="299.31507099170443" r="2.5" class="obs"/>
<line x1="92.58850860962005" y1="297.18936187182965" x2="92.58850860962005" y2="300.4063717807399" class="err"/>
<line x1="89.58850860962005" y1="297.18936187182965" x2="95.58850860962005" y2="297.18936187182965" class="err"/>
<line x1="89.58850860962005" y1="300.4063717807399" x2="95.58850860962005" y2="300.4063717807399" class="err"/>
<circle cx="92.58850860962005" cy="298.7978668262848" r="2.5" class="obs"/>
<line x1="93.24562886008172" y1="297.0910930803999" x2="93.24562886008172" y2="299.98743640674996" class="err"/>
<line x1="90.24562886008172" y1="297.0910930803999" x2="96.24562886008172" y2="297.0910930803999" class="err"/>
<line x1="90.24562886008172" y1="299.98743640674996" x2="96.24562886008172" y2="299.98743640674996" class="err"/>
<circle cx="93.24562886008172" cy="298.53926474357496" r="2.5" class="obs"/>
<line x1="93.98488914185111" y1="295.7644643960985" x2="93.98488914185111" y2="300.27965676021205" class="err"/>
<line x1="90.98488914185111" y1="295.7644643960985" x2="96.98488914185111" y2="295.7644643960985" class="err"/>
<line x1="90.98488914185111" y1="300.27965676021205" x2="96.98488914185111" y2="300.27965676021205" class="err"/>
<circle cx="93.98488914185111" cy="298.02206057815533" r="2.5" class="obs"/>
<line x1="94.64200939231279" y1="296.4213136861815" x2="94.64200939231279" y2="299.10560330470946" class="err"/>
<line x1="91.64200939231279" y1="296.4213136861815" x2="97.64200939231279" y2="296.4213136861815" class="err"/>
<line x1="91.64200939231279" y1="299.10560330470946" x2="97.64200939231279" y2="299.10560330470946" class="err"/>
<circle cx="94.64200939231279" cy="297.76345849544543" r="2.5" class="obs"/>
<line x1="95.38126967408216" y1="294.40163142021777" x2="95.38126967408216" y2="300.0908772398339" class="err"/>
<line x1="92.38126967408216" y1="294.40163142021777" x2="98.38126967408216" y2="294.40163142021777" class="err"/>
<line x1="92.38126967408216" y1="300.0908772398339" x2="98.38126967408216" y2="300.0908772398339" class="err"/>
<circle cx="95.38126967408216" cy="297.24625433002586" r="2.5" class="obs"/>
<line x1="96.12052995585155" y1="292.8500189239588" x2="96.12052995585155" y2="301.1252855706732" class="err"/>
<line x1="93.12052995585155" y1="292.8500189239588" x2="99.12052995585155" y2="292.8500189239588" class="err"/>
<line x1="93.12052995585155" y1="301.1252855706732" x2="99.12052995585155" y2="301.1252855706732" class="err"/>
<circle cx="96.12052995585155" cy="296.98765224731596" r="2.5" class="obs"/>
<line x1="96.85979023762093" y1="293.34136288110744" x2="96.85979023762093" y2="300.1167374481049" class="err"/>
<line x1="93.85979023762093" y1="293.34136288110744" x2="99.85979023762093" y2="293.34136288110744" class="err"/>
<line x1="93.85979023762093" y1="300.1167374481049" x2="99.85979023762093" y2="300.1167374481049" class="err"/>
<circle cx="96.85979023762093" cy="296.7290501646062" r="2.5" class="obs"/>
<line x1="97.5169104880826" y1="293.1603414232106" x2="97.5169104880826" y2="299.26335057516246" class="err"/>
<line x1="94.5169104880826" y1="293.1603414232106" x2="100.5169104880826" y2="293.1603414232106" class="err"/>
<line x1="94.5169104880826" y1="299.26335057516246" x2="100.5169104880826" y2="299.26335057516246" class="err"/>
<circle cx="97.5169104880826" cy="296.2118459991865" r="2.5" class="obs"/>
<line x1="98.17403073854427" y1="292.6689974660619" x2="98.17403073854427" y2="299.2374903668915" class="err"/>
<line x1="95.17403073854427" y1="292.6689974660619" x2="101.17403073854427" y2="292.6689974660619" class="err"/>
<line x1="95.17403073854427" y1="299.2374903668915" x2="101.17403073854427" y2="299.2374903668915" class="err"/>
<circle cx="98.17403073854427" cy="295.9532439164767" r="2.5" class="obs"/>
<line x1="104.5809531805456" y1="291.1639333446907" x2="104.5809531805456" y2="294.01890033780717" class="err"/>
<line x1="101.5809531805456" y1="291.1639333446907" x2="107.5809531805456" y2="291.1639333446907" class="err"/>
<line x1="101.5809531805456" y1="294.01890033780717" x2="107.5809531805456" y2="294.01890033780717" class="err"/>
<circle cx="104.5809531805456" cy="292.591416841249" r="2.5" class="obs"/>
<line x1="105.23807343100728" y1="291.4664977814612" x2="105.23807343100728" y2="292.6819275701974" class="err"/>
<line x1="102.23807343100728" y1="291.4664977814612" x2="108.23807343100728" y2="291.4664977814612" class="err"/>
<line x1="102.23807343100728" y1="292.6819275701974" x2="108.23807343100728" y2="292.6819275701974" class="err"/>
<circle cx="105.23807343100728" cy="292.0742126758293" r="2.5" class="obs"/>
<line x1="105.97733371277667" y1="290.49673997129935" x2="105.97733371277667" y2="293.13448121493957" class="err"/>
<line x1="102.97733371277667" y1="290.49673997129935" x2="108.97733371277667" y2="290.49673997129935" class="err"/>
<line x1="102.97733371277667" y1="293.13448121493957" x2="108.97733371277667" y2="293.13448121493957" class="err"/>
<circle cx="105.97733371277667" cy="291.81561059311946" r="2.5" class="obs"/>
<line x1="106.71659399454605" y1="290.1062508264075" x2="106.71659399454605" y2="292.49056202899214" class="err"/>
<line x1="103.71659399454605" y1="290.1062508264075" x2="109.71659399454605" y2="290.1062508264075" class="err"/>
<line x1="103.71659399454605" y1="292.49056202899214" x2="109.71659399454605" y2="292.49056202899214" class="err"/>
<circle cx="106.71659399454605" cy="291.29840642769983" r="2.5" class="obs"/>
<line x1="109.42721502770044" y1="287.2124935208846" x2="109.42721502770044" y2="292.7982985074168" class="err"/>
<line x1="106.42721502770044" y1="287.2124935208846" x2="112.42721502770044" y2="287.2124935208846" class="err"/>
<line x1="106.42721502770044" y1="292.7982985074168" x2="112.42721502770044" y2="292.7982985074168" class="err"/>
<circle cx="109.42721502770044" cy="290.00539601415073" r="2.5" class="obs"/>
<line x1="113.12351643654736" y1="287.7167675821687" x2="113.12351643654736" y2="289.1907994536148" class="err"/>
<line x1="110.12351643654736" y1="287.7167675821687" x2="116.12351643654736" y2="287.7167675821687" class="err"/>
<line x1="110.12351643654736" y1="289.1907994536148" x2="116.12351643654736" y2="289.1907994536148" class="err"/>
<circle cx="113.12351643654736" cy="288.4537835178918" r="2.5" class="obs"/>
<line x1="113.69849665570135" y1="287.44006335366925" x2="113.69849665570135" y2="288.433095351275" class="err"/>
<line x1="110.69849665570135" y1="287.44006335366925" x2="116.69849665570135" y2="287.44006335366925" class="err"/>
<line x1="110.69849665570135" y1="288.433095351275" x2="116.69849665570135" y2="288.433095351275" class="err"/>
<circle cx="113.69849665570135" cy="287.9365793524721" r="2.5" class="obs"/>
<line x1="114.43775693747071" y1="286.5685743349371" x2="114.43775693747071" y2="288.78738020458746" class="err"/>
<line x1="111.43775693747071" y1="286.5685743349371" x2="117.43775693747071" y2="286.5685743349371" class="err"/>
<line x1="111.43775693747071" y1="288.78738020458746" x2="117.43775693747071" y2="288.78738020458746" class="err"/>
<circle cx="114.43775693747071" cy="287.6779772697623" r="2.5" class="obs"/>
<line x1="115.1770172192401" y1="286.14705294012015" x2="115.1770172192401" y2="288.6916974339848" class="err"/>
<line x1="112.1770172192401" y1="286.14705294012015" x2="118.1770172192401" y2="286.14705294012015" class="err"/>
<line x1="112.1770172192401" y1="288.6916974339848" x2="118.1770172192401" y2="288.6916974339848" class="err"/>
<circle cx="115.1770172192401" cy="287.4193751870524" r="2.5" class="obs"/>
<line x1="115.83413746970177" y1="286.58150443907266" x2="115.83413746970177" y2="287.7400417696126" class="err"/>
<line x1="112.83413746970177" y1="286.58150443907266" x2="118.83413746970177" y2="286.58150443907266" class="err"/>
<line x1="112.83413746970177" y1="287.7400417696126" x2="118.83413746970177" y2="287.7400417696126" class="err"/>
<circle cx="115.83413746970177" cy="287.16077310434264" r="2.5" class="obs"/>
<line x1="116.57339775147116" y1="285.71518746199473" x2="116.57339775147116" y2="288.0891545812709" class="err"/>
<line x1="113.57339775147116" y1="285.71518746199473" x2="119.57339775147116" y2="285.71518746199473" class="err"/>
<line x1="113.57339775147116" y1="288.0891545812709" x2="119.57339775147116" y2="288.0891545812709" class="err"/>
<circle cx="116.57339775147116" cy="286.90217102163285" r="2.5" class="obs"/>
<line x1="117.31265803324055" y1="285.3324563795842" x2="117.31265803324055" y2="287.95468149826183" class="err"/>
<line x1="114.31265803324055" y1="285.3324563795842" x2="120.31265803324055" y2="285.3324563795842" class="err"/>
<line x1="114.31265803324055" y1="287.95468149826183" x2="120.31265803324055" y2="287.95468149826183" class="err"/>
<circle cx="117.31265803324055" cy="286.64356893892295" r="2.5" class="obs"/>
<line x1="119.28401878462557" y1="283.82739225821297" x2="119.28401878462557" y2="287.908133123374" class="err"/>
<line x1="116.28401878462557" y1="283.82739225821297" x2="122.28401878462557" y2="283.82739225821297" class="err"/>
<line x1="116.28401878462557" y1="287.908133123374" x2="122.28401878462557" y2="287.908133123374" class="err"/>
<circle cx="119.28401878462557" cy="285.8677626907935" r="2.5" class="obs"/>
<line x1="120.76253934816432" y1="284.46872542333335" x2="120.76253934816432" y2="286.74959579283404" class="err"/>
<line x1="117.76253934816432" y1="284.46872542333335" x2="123.76253934816432" y2="284.46872542333335" class="err"/>
<line x1="117.76253934816432" y1="286.74959579283404" x2="123.76253934816432" y2="286.74959579283404" class="err"/>
<circle cx="120.76253934816432" cy="285.6091606080837" r="2.5" class="obs"/>
<line x1="121.50179962993371" y1="284.5230318607024" x2="121.50179962993371" y2="286.1780851900453" class="err"/>
<line x1="118.50179962993371" y1="284.5230318607024" x2="124.50179962993371" y2="284.5230318607024" class="err"/>
<line x1="118.50179962993371" y1="286.1780851900453" x2="124.50179962993371" y2="286.1780851900453" class="err"/>
<circle cx="121.50179962993371" cy="285.35055852537386" r="2.5" class="obs"/>
<line x1="122.2410599117031" y1="283.3696665718166" x2="122.2410599117031" y2="286.8142463135115" class="err"/>
<line x1="119.2410599117031" y1="283.3696665718166" x2="125.2410599117031" y2="283.3696665718166" class="err"/>
<line x1="119.2410599117031" y1="286.8142463135115" x2="125.2410599117031" y2="286.8142463135115" class="err"/>
<circle cx="122.2410599117031" cy="285.091956442664" r="2.5" class="obs"/>
<line x1="122.9803201934725" y1="283.32570421775597" x2="122.9803201934725" y2="286.3410045021525" class="err"/>
<line x1="119.9803201934725" y1="283.32570421775597" x2="125.9803201934725" y2="283.32570421775597" class="err"/>
<line x1="119.9803201934725" y1="286.3410045021525" x2="125.9803201934725" y2="286.3410045021525" class="err"/>
<circle cx="122.9803201934725" cy="284.8333543599542" r="2.5" class="obs"/>
<line x1="123.63744044393417" y1="283.8429083831756" x2="123.63744044393417" y2="285.8238003367328" class="err"/>
<line x1="120.63744044393417" y1="283.8429083831756" x2="126.63744044393417" y2="283.8429083831756" class="err"/>
<line x1="120.63744044393417" y1="285.8238003367328" x2="126.63744044393417" y2="285.8238003367328" class="err"/>
<circle cx="123.63744044393417" cy="284.8333543599542" r="2.5" class="obs"/>
<line x1="124.29456069439584" y1="283.95152125791367" x2="124.29456069439584" y2="285.1979832965751" class="err"/>
<line x1="121.29456069439584" y1="283.95152125791367" x2="127.29456069439584" y2="283.95152125791367" class="err"/>
<line x1="121.29456069439584" y1="285.1979832965751" x2="127.29456069439584" y2="285.1979832965751" class="err"/>
<circle cx="124.29456069439584" cy="284.5747522772444" r="2.5" class="obs"/>
<line x1="125.03382097616522" y1="283.9928975911473" x2="125.03382097616522" y2="284.6394027979219" class="err"/>
<line x1="122.03382097616522" y1="283.9928975911473" x2="128.0338209761652" y2="283.9928975911473" class="err"/>
<line x1="122.03382097616522" y1="284.6394027979219" x2="128.0338209761652" y2="284.6394027979219" class="err"/>
<circle cx="125.03382097616522" cy="284.31615019453454" r="2.5" class="obs"/>
<line x1="125.77308125793459" y1="283.3825966759521" x2="125.77308125793459" y2="285.249703713117" class="err"/>
<line x1="122.77308125793459" y1="283.3825966759521" x2="128.7730812579346" y2="283.3825966759521" class="err"/>
<line x1="122.77308125793459" y1="285.249703713117" x2="128.7730812579346" y2="285.249703713117" class="err"/>
<circle cx="125.77308125793459" cy="284.31615019453454" r="2.5" class="obs"/>
<line x1="126.43020150839627" y1="280.4888393704291" x2="126.43020150839627" y2="287.6262568532203" class="err"/>
<line x1="123.43020150839627" y1="280.4888393704291" x2="129.43020150839627" y2="280.4888393704291" class="err"/>
<line x1="123.43020150839627" y1="287.6262568532203" x2="129.43020150839627" y2="287.6262568532203" class="err"/>
<circle cx="126.43020150839627" cy="284.05754811182476" r="2.5" class="obs"/>
<line x1="127.16946179016566" y1="282.87315057301373" x2="127.16946179016566" y2="285.2419456506358" class="err"/>
<line x1="124.16946179016566" y1="282.87315057301373" x2="130.16946179016566" y2="282.87315057301373" class="err"/>
<line x1="124.16946179016566" y1="285.2419456506358" x2="130.16946179016566" y2="285.2419456506358" class="err"/>
<circle cx="127.16946179016566" cy="284.05754811182476" r="2.5" class="obs"/>
<line x1="127.90872207193505" y1="283.01020967684997" x2="127.90872207193505" y2="284.58768238137986" class="err"/>
<line x1="124.90872207193505" y1="283.01020967684997" x2="130.90872207193505" y2="283.01020967684997" class="err"/>
<line x1="124.90872207193505" y1="284.58768238137986" x2="130.90872207193505" y2="284.58768238137986" class="err"/>
<circle cx="127.90872207193505" cy="283.7989460291149" r="2.5" class="obs"/>
<line x1="129.14082254155068" y1="283.18347307226554" x2="129.14082254155068" y2="283.89721482054466" class="err"/>
<line x1="126.14082254155068" y1="283.18347307226554" x2="132.14082254155068" y2="283.18347307226554" class="err"/>
<line x1="126.14082254155068" y1="283.89721482054466" x2="132.14082254155068" y2="283.89721482054466" class="err"/>
<circle cx="129.14082254155068" cy="283.5403439464051" r="2.5" class="obs"/>
<line x1="130.70148313639714" y1="283.08779030166295" x2="130.70148313639714" y2="283.4756934257276" class="err"/>
<line x1="127.70148313639714" y1="283.08779030166295" x2="133.70148313639714" y2="283.08779030166295" class="err"/>
<line x1="127.70148313639714" y1="283.4756934257276" x2="133.70148313639714" y2="283.4756934257276" class="err"/>
<circle cx="130.70148313639714" cy="283.2817418636953" r="2.5" class="obs"/>
<line x1="131.35860338685882" y1="281.06552201487204" x2="131.35860338685882" y2="285.49796171251853" class="err"/>
<line x1="128.35860338685882" y1="281.06552201487204" x2="134.35860338685882" y2="281.06552201487204" class="err"/>
<line x1="128.35860338685882" y1="285.49796171251853" x2="134.35860338685882" y2="285.49796171251853" class="err"/>
<circle cx="131.35860338685882" cy="283.2817418636953" r="2.5" class="obs"/>
<line x1="135.62988501485972" y1="282.41283886579026" x2="135.62988501485972" y2="283.11623653076094" class="err"/>
<line x1="132.62988501485972" y1="282.41283886579026" x2="138.62988501485972" y2="282.41283886579026" class="err"/>
<line x1="132.62988501485972" y1="283.11623653076094" x2="138.62988501485972" y2="283.11623653076094" class="err"/>
<circle cx="135.62988501485972" cy="282.7645376982756" r="2.5" class="obs"/>
<line x1="136.36914529662909" y1="278.62690437491847" x2="136.36914529662909" y2="286.90217102163285" class="err"/>
<line x1="133.36914529662909" y1="278.62690437491847" x2="139.36914529662909" y2="278.62690437491847" class="err"/>
<line x1="133.36914529662909" y1="286.90217102163285" x2="139.36914529662909" y2="286.90217102163285" class="err"/>
<circle cx="136.36914529662909" cy="282.7645376982756" r="2.5" class="obs"/>
<line x1="137.02626554709076" y1="281.34222624337156" x2="137.02626554709076" y2="284.18684915317965" class="err"/>
<line x1="134.02626554709076" y1="281.34222624337156" x2="140.02626554709076" y2="281.34222624337156" class="err"/>
<line x1="134.02626554709076" y1="284.18684915317965" x2="140.02626554709076" y2="284.18684915317965" class="err"/>
<circle cx="137.02626554709076" cy="282.7645376982756" r="2.5" class="obs"/>
<line x1="137.76552582886015" y1="281.7456454923989" x2="137.76552582886015" y2="283.2662257387327" class="err"/>
<line x1="134.76552582886015" y1="281.7456454923989" x2="140.76552582886015" y2="281.7456454923989" class="err"/>
<line x1="134.76552582886015" y1="283.2662257387327" x2="140.76552582886015" y2="283.2662257387327" class="err"/>
<circle cx="137.76552582886015" cy="282.5059356155658" r="2.5" class="obs"/>
<line x1="138.50478611062954" y1="282.05596799165073" x2="138.50478611062954" y2="282.9559032394809" class="err"/>
<line x1="135.50478611062954" y1="282.05596799165073" x2="141.50478611062954" y2="282.05596799165073" class="err"/>
<line x1="135.50478611062954" y1="282.9559032394809" x2="141.50478611062954" y2="282.9559032394809" class="err"/>
<circle cx="138.50478611062954" cy="282.5059356155658" r="2.5" class="obs"/>
<line x1="138.99762629847578" y1="281.9370110336042" x2="138.99762629847578" y2="283.0748601975274" class="err"/>
<line x1="135.99762629847578" y1="281.9370110336042" x2="141.99762629847578" y2="281.9370110336042" class="err"/>
<line x1="135.99762629847578" y1="283.0748601975274" x2="141.99762629847578" y2="283.0748601975274" class="err"/>
<circle cx="138.99762629847578" cy="282.5059356155658" r="2.5" class="obs"/>
<line x1="148.7722900240932" y1="281.6706508884131" x2="148.7722900240932" y2="283.34122034271854" class="err"/>
<line x1="145.7722900240932" y1="281.6706508884131" x2="151.7722900240932" y2="281.6706508884131" class="err"/>
<line x1="145.7722900240932" y1="283.34122034271854" x2="151.7722900240932" y2="283.34122034271854" class="err"/>
<circle cx="148.7722900240932" cy="282.5059356155658" r="2.5" class="obs"/>
<line x1="158.71123381232604" y1="281.96804328352937" x2="158.71123381232604" y2="284.0782362784415" class="err"/>
<line x1="155.71123381232604" y1="281.96804328352937" x2="161.71123381232604" y2="281.96804328352937" class="err"/>
<line x1="155.71123381232604" y1="284.0782362784415" x2="161.71123381232604" y2="284.0782362784415" class="err"/>
<circle cx="158.71123381232604" cy="283.02313978098545" r="2.5" class="obs"/>
<line x1="168.73231763186652" y1="283.6386127378348" x2="168.73231763186652" y2="284.9936876512343" class="err"/>
<line x1="165.73231763186652" y1="283.6386127378348" x2="171.73231763186652" y2="283.6386127378348" class="err"/>
<line x1="165.73231763186652" y1="284.9936876512343" x2="171.73231763186652" y2="284.9936876512343" class="err"/>
<circle cx="168.73231763186652" cy="284.31615019453454" r="2.5" class="obs"/>
<line x1="178.58912138879168" y1="285.1540209425144" x2="178.58912138879168" y2="285.5470961082333" class="err"/>
<line x1="175.58912138879168" y1="285.1540209425144" x2="181.58912138879168" y2="285.1540209425144" class="err"/>
<line x1="175.58912138879168" y1="285.5470961082333" x2="181.58912138879168" y2="285.5470961082333" class="err"/>
<circle cx="178.58912138879168" cy="285.35055852537386" r="2.5" class="obs"/>
<line x1="188.44592514571679" y1="286.1625690650827" x2="188.44592514571679" y2="287.12456881276324" class="err"/>
<line x1="185.44592514571679" y1="286.1625690650827" x2="191.44592514571679" y2="286.1625690650827" class="err"/>
<line x1="185.44592514571679" y1="287.12456881276324" x2="191.44592514571679" y2="287.12456881276324" class="err"/>
<circle cx="188.44592514571679" cy="286.64356893892295" r="2.5" class="obs"/>
<line x1="198.3848689339496" y1="287.59005256164096" x2="198.3848689339496" y2="288.28310614330326" class="err"/>
<line x1="195.3848689339496" y1="287.59005256164096" x2="201.3848689339496" y2="287.59005256164096" class="err"/>
<line x1="195.3848689339496" y1="288.28310614330326" x2="201.3848689339496" y2="288.28310614330326" class="err"/>
<circle cx="198.3848689339496" cy="287.9365793524721" r="2.5" class="obs"/>
<line x1="208.24167269087468" y1="288.0891545812709" x2="208.24167269087468" y2="288.8184124545126" class="err"/>
<line x1="205.24167269087468" y1="288.0891545812709" x2="211.24167269087468" y2="288.0891545812709" class="err"/>
<line x1="205.24167269087468" y1="288.8184124545126" x2="211.24167269087468" y2="288.8184124545126" class="err"/>
<circle cx="208.24167269087468" cy="288.4537835178918" r="2.5" class="obs"/>
<line x1="218.09847644779984" y1="288.6735952881951" x2="218.09847644779984" y2="289.26838007842775" class="err"/>
<line x1="215.09847644779984" y1="288.6735952881951" x2="221.09847644779984" y2="288.6735952881951" class="err"/>
<line x1="215.09847644779984" y1="289.26838007842775" x2="221.09847644779984" y2="289.26838007842775" class="err"/>
<circle cx="218.09847644779984" cy="288.97098768331136" r="2.5" class="obs"/>
<line x1="227.95528020472494" y1="288.8184124545126" x2="227.95528020472494" y2="289.1235629121102" class="err"/>
<line x1="224.95528020472494" y1="288.8184124545126" x2="230.95528020472494" y2="288.8184124545126" class="err"/>
<line x1="224.95528020472494" y1="289.1235629121102" x2="230.95528020472494" y2="289.1235629121102" class="err"/>
<circle cx="227.95528020472494" cy="288.97098768331136" r="2.5" class="obs"/>
<line x1="237.81208396165005" y1="288.84168664195647" x2="237.81208396165005" y2="289.10028872466637" class="err"/>
<line x1="234.81208396165005" y1="288.84168664195647" x2="240.81208396165005" y2="288.84168664195647" class="err"/>
<line x1="234.81208396165005" y1="289.10028872466637" x2="240.81208396165005" y2="289.10028872466637" class="err"/>
<circle cx="237.81208396165005" cy="288.97098768331136" r="2.5" class="obs"/>
<line x1="247.75102774988287" y1="289.1752833286522" x2="247.75102774988287" y2="289.80110036880995" class="err"/>
<line x1="244.75102774988287" y1="289.1752833286522" x2="250.75102774988287" y2="289.1752833286522" class="err"/>
<line x1="244.75102774988287" y1="289.80110036880995" x2="250.75102774988287" y2="289.80110036880995" class="err"/>
<circle cx="247.75102774988287" cy="289.48819184873105" r="2.5" class="obs"/>
<line x1="257.607831506808" y1="289.6924874940718" x2="257.607831506808" y2="290.3183045342296" class="err"/>
<line x1="254.607831506808" y1="289.6924874940718" x2="260.607831506808" y2="289.6924874940718" class="err"/>
<line x1="254.607831506808" y1="290.3183045342296" x2="260.607831506808" y2="290.3183045342296" class="err"/>
<circle cx="257.607831506808" cy="290.00539601415073" r="2.5" class="obs"/>
<line x1="267.46463526373304" y1="290.57173457528523" x2="267.46463526373304" y2="290.9906699492752" class="err"/>
<line x1="264.46463526373304" y1="290.57173457528523" x2="270.46463526373304" y2="290.57173457528523" class="err"/>
<line x1="264.46463526373304" y1="290.9906699492752" x2="270.46463526373304" y2="290.9906699492752" class="err"/>
<circle cx="267.46463526373304" cy="290.7812022622802" r="2.5" class="obs"/>
<line x1="277.3214390206582" y1="291.5363203437929" x2="277.3214390206582" y2="292.0949008424461" class="err"/>
<line x1="274.3214390206582" y1="291.5363203437929" x2="280.3214390206582" y2="291.5363203437929" class="err"/>
<line x1="274.3214390206582" y1="292.0949008424461" x2="280.3214390206582" y2="292.0949008424461" class="err"/>
<circle cx="277.3214390206582" cy="291.81561059311946" r="2.5" class="obs"/>
<line x1="287.17824277758336" y1="292.36643302929144" x2="287.17824277758336" y2="293.3336048186262" class="err"/>
<line x1="284.17824277758336" y1="292.36643302929144" x2="290.17824277758336" y2="292.36643302929144" class="err"/>
<line x1="284.17824277758336" y1="293.3336048186262" x2="290.17824277758336" y2="293.3336048186262" class="err"/>
<circle cx="287.17824277758336" cy="292.8500189239588" r="2.5" class="obs"/>
<line x1="297.11718656581616" y1="293.2249919438881" x2="297.11718656581616" y2="294.0266584002885" class="err"/>
<line x1="294.11718656581616" y1="293.2249919438881" x2="300.11718656581616" y2="293.2249919438881" class="err"/>
<line x1="294.11718656581616" y1="294.0266584002885" x2="300.11718656581616" y2="294.0266584002885" class="err"/>
<circle cx="297.11718656581616" cy="293.6258251720883" r="2.5" class="obs"/>
<line x1="306.9739903227413" y1="293.91028746306904" x2="306.9739903227413" y2="294.8929753773664" class="err"/>
<line x1="303.9739903227413" y1="293.91028746306904" x2="309.9739903227413" y2="293.91028746306904" class="err"/>
<line x1="303.9739903227413" y1="294.8929753773664" x2="309.9739903227413" y2="294.8929753773664" class="err"/>
<circle cx="306.9739903227413" cy="294.40163142021777" r="2.5" class="obs"/>
<line x1="316.83079407966636" y1="294.6292012530024" x2="316.83079407966636" y2="295.2084699182724" class="err"/>
<line x1="313.83079407966636" y1="294.6292012530024" x2="319.83079407966636" y2="294.6292012530024" class="err"/>
<line x1="313.83079407966636" y1="295.2084699182724" x2="319.83079407966636" y2="295.2084699182724" class="err"/>
<circle cx="316.83079407966636" cy="294.9188355856374" r="2.5" class="obs"/>
<line x1="326.68759783659146" y1="294.81280873172636" x2="326.68759783659146" y2="295.5420666049681" class="err"/>
<line x1="323.68759783659146" y1="294.81280873172636" x2="329.68759783659146" y2="294.81280873172636" class="err"/>
<line x1="323.68759783659146" y1="295.5420666049681" x2="329.68759783659146" y2="295.5420666049681" class="err"/>
<circle cx="326.68759783659146" cy="295.17743766834724" r="2.5" class="obs"/>
<line x1="335.64086124913183" y1="295.2395021681976" x2="335.64086124913183" y2="296.1497814993362" class="err"/>
<line x1="332.64086124913183" y1="295.2395021681976" x2="338.64086124913183" y2="295.2395021681976" class="err"/>
<line x1="332.64086124913183" y1="296.1497814993362" x2="338.64086124913183" y2="296.1497814993362" class="err"/>
<circle cx="335.64086124913183" cy="295.6946418337669" r="2.5" class="obs"/>
<line x1="345.5798050373646" y1="295.4851741467719" x2="345.5798050373646" y2="296.4213136861815" class="err"/>
<line x1="342.5798050373646" y1="295.4851741467719" x2="348.5798050373646" y2="295.4851741467719" class="err"/>
<line x1="342.5798050373646" y1="296.4213136861815" x2="348.5798050373646" y2="296.4213136861815" class="err"/>
<circle cx="345.5798050373646" cy="295.9532439164767" r="2.5" class="obs"/>
<line x1="355.4366087942897" y1="295.6480934588791" x2="355.4366087942897" y2="296.7755985394939" class="err"/>
<line x1="352.4366087942897" y1="295.6480934588791" x2="358.4366087942897" y2="295.6480934588791" class="err"/>
<line x1="352.4366087942897" y1="296.7755985394939" x2="358.4366087942897" y2="296.7755985394939" class="err"/>
<circle cx="355.4366087942897" cy="296.2118459991865" r="2.5" class="obs"/>
<line x1="365.2934125512149" y1="295.69205581293977" x2="365.2934125512149" y2="297.2488403508529" class="err"/>
<line x1="362.2934125512149" y1="295.69205581293977" x2="368.2934125512149" y2="295.69205581293977" class="err"/>
<line x1="362.2934125512149" y1="297.2488403508529" x2="368.2934125512149" y2="297.2488403508529" class="err"/>
<circle cx="365.2934125512149" cy="296.4704480818964" r="2.5" class="obs"/>
<line x1="375.15021630814" y1="296.2015019158781" x2="375.15021630814" y2="297.25659841333425" class="err"/>
<line x1="372.15021630814" y1="296.2015019158781" x2="378.15021630814" y2="296.2015019158781" class="err"/>
<line x1="372.15021630814" y1="297.25659841333425" x2="378.15021630814" y2="297.25659841333425" class="err"/>
<circle cx="375.15021630814" cy="296.7290501646062" r="2.5" class="obs"/>
<line x1="385.0070200650651" y1="296.3204588739246" x2="385.0070200650651" y2="297.13764145528773" class="err"/>
<line x1="382.0070200650651" y1="296.3204588739246" x2="388.0070200650651" y2="296.3204588739246" class="err"/>
<line x1="382.0070200650651" y1="297.13764145528773" x2="388.0070200650651" y2="297.13764145528773" class="err"/>
<circle cx="385.0070200650651" cy="296.7290501646062" r="2.5" class="obs"/>
<line x1="394.9459638532979" y1="295.89376543745345" x2="394.9459638532979" y2="297.5643348917589" class="err"/>
<line x1="391.9459638532979" y1="295.89376543745345" x2="397.9459638532979" y2="295.89376543745345" class="err"/>
<line x1="391.9459638532979" y1="297.5643348917589" x2="397.9459638532979" y2="297.5643348917589" class="err"/>
<circle cx="394.9459638532979" cy="296.7290501646062" r="2.5" class="obs"/>
<line x1="404.802767610223" y1="295.9687600414393" x2="404.802767610223" y2="297.4893402877731" class="err"/>
<line x1="401.802767610223" y1="295.9687600414393" x2="407.802767610223" y2="295.9687600414393" class="err"/>
<line x1="401.802767610223" y1="297.4893402877731" x2="407.802767610223" y2="297.4893402877731" class="err"/>
<circle cx="404.802767610223" cy="296.7290501646062" r="2.5" class="obs"/>
<line x1="414.6595713671481" y1="296.31011479061624" x2="414.6595713671481" y2="297.1479855385961" class="err"/>
<line x1="411.6595713671481" y1="296.31011479061624" x2="417.6595713671481" y2="296.31011479061624" class="err"/>
<line x1="411.6595713671481" y1="297.1479855385961" x2="417.6595713671481" y2="297.1479855385961" class="err"/>
<circle cx="414.6595713671481" cy="296.7290501646062" r="2.5" class="obs"/>
<line x1="424.5163751240732" y1="296.17305568678" x2="424.5163751240732" y2="297.2850446424323" class="err"/>
<line x1="421.5163751240732" y1="296.17305568678" x2="427.5163751240732" y2="296.17305568678" class="err"/>
<line x1="421.5163751240732" y1="297.2850446424323" x2="427.5163751240732" y2="297.2850446424323" class="err"/>
<circle cx="424.5163751240732" cy="296.7290501646062" r="2.5" class="obs"/>
<line x1="434.3731788809983" y1="296.09547506196714" x2="434.3731788809983" y2="298.39703359808453" class="err"/>
<line x1="431.3731788809983" y1="296.09547506196714" x2="437.3731788809983" y2="296.09547506196714" class="err"/>
<line x1="431.3731788809983" y1="298.39703359808453" x2="437.3731788809983" y2="298.39703359808453" class="err"/>
<circle cx="434.3731788809983" cy="297.24625433002586" r="2.5" class="obs"/>
<line x1="444.31212266923114" y1="295.8420450209114" x2="444.31212266923114" y2="299.68487196997944" class="err"/>
<line x1="441.31212266923114" y1="295.8420450209114" x2="447.31212266923114" y2="295.8420450209114" class="err"/>
<line x1="441.31212266923114" y1="299.68487196997944" x2="447.31212266923114" y2="299.68487196997944" class="err"/>
<circle cx="444.31212266923114" cy="297.76345849544543" r="2.5" class="obs"/>
<line x1="454.1689264261563" y1="296.4135556237002" x2="454.1689264261563" y2="300.14776969803006" class="err"/>
<line x1="451.1689264261563" y1="296.4135556237002" x2="457.1689264261563" y2="296.4135556237002" class="err"/>
<line x1="451.1689264261563" y1="300.14776969803006" x2="457.1689264261563" y2="300.14776969803006" class="err"/>
<circle cx="454.1689264261563" cy="298.2806626608651" r="2.5" class="obs"/>
<line x1="464.0257301830814" y1="297.1505715594232" x2="464.0257301830814" y2="299.9279579277267" class="err"/>
<line x1="461.0257301830814" y1="297.1505715594232" x2="467.0257301830814" y2="297.1505715594232" class="err"/>
<line x1="461.0257301830814" y1="299.9279579277267" x2="467.0257301830814" y2="299.9279579277267" class="err"/>
<circle cx="464.0257301830814" cy="298.53926474357496" r="2.5" class="obs"/>
<line x1="473.8825339400065" y1="296.8764533517508" x2="473.8825339400065" y2="299.68487196997944" class="err"/>
<line x1="470.8825339400065" y1="296.8764533517508" x2="476.8825339400065" y2="296.8764533517508" class="err"/>
<line x1="470.8825339400065" y1="299.68487196997944" x2="476.8825339400065" y2="299.68487196997944" class="err"/>
<circle cx="473.8825339400065" cy="298.2806626608651" r="2.5" class="obs"/>
<line x1="483.7393376969316" y1="296.09030302031294" x2="483.7393376969316" y2="299.43661397057804" class="err"/>
<line x1="480.7393376969316" y1="296.09030302031294" x2="486.7393376969316" y2="296.09030302031294" class="err"/>
<line x1="480.7393376969316" y1="299.43661397057804" x2="486.7393376969316" y2="299.43661397057804" class="err"/>
<circle cx="483.7393376969316" cy="297.76345849544543" r="2.5" class="obs"/>
<line x1="493.67828148516446" y1="295.50069027173447" x2="493.67828148516446" y2="298.4746142228975" class="err"/>
<line x1="490.67828148516446" y1="295.50069027173447" x2="496.67828148516446" y2="295.50069027173447" class="err"/>
<line x1="490.67828148516446" y1="298.4746142228975" x2="496.67828148516446" y2="298.4746142228975" class="err"/>
<circle cx="493.67828148516446" cy="296.98765224731596" r="2.5" class="obs"/>
<line x1="503.53508524208956" y1="295.0377925436839" x2="503.53508524208956" y2="297.9031036201088" class="err"/>
<line x1="500.53508524208956" y1="295.0377925436839" x2="506.53508524208956" y2="295.0377925436839" class="err"/>
<line x1="500.53508524208956" y1="297.9031036201088" x2="506.53508524208956" y2="297.9031036201088" class="err"/>
<circle cx="503.53508524208956" cy="296.4704480818964" r="2.5" class="obs"/>
<line x1="513.3918889990147" y1="295.06623877278196" x2="513.3918889990147" y2="297.35745322559103" class="err"/>
<line x1="510.39188899901467" y1="295.06623877278196" x2="516.3918889990147" y2="295.06623877278196" class="err"/>
<line x1="510.39188899901467" y1="297.35745322559103" x2="516.3918889990147" y2="297.35745322559103" class="err"/>
<circle cx="513.3918889990147" cy="296.2118459991865" r="2.5" class="obs"/>
<line x1="523.2486927559398" y1="294.9938301896233" x2="523.2486927559398" y2="297.4298618087498" class="err"/>
<line x1="520.2486927559398" y1="294.9938301896233" x2="526.2486927559398" y2="294.9938301896233" class="err"/>
<line x1="520.2486927559398" y1="297.4298618087498" x2="526.2486927559398" y2="297.4298618087498" class="err"/>
<circle cx="523.2486927559398" cy="296.2118459991865" r="2.5" class="obs"/>
<line x1="543.0444403010977" y1="295.8808353333179" x2="543.0444403010977" y2="298.6116733267337" class="err"/>
<line x1="540.0444403010977" y1="295.8808353333179" x2="546.0444403010977" y2="295.8808353333179" class="err"/>
<line x1="540.0444403010977" y1="298.6116733267337" x2="546.0444403010977" y2="298.6116733267337" class="err"/>
<circle cx="543.0444403010977" cy="297.24625433002586" r="2.5" class="obs"/>
<line x1="562.758047814948" y1="295.7722224585798" x2="562.758047814948" y2="298.20308203605214" class="err"/>
<line x1="559.758047814948" y1="295.7722224585798" x2="565.758047814948" y2="295.7722224585798" class="err"/>
<line x1="559.758047814948" y1="298.20308203605214" x2="565.758047814948" y2="298.20308203605214" class="err"/>
<circle cx="562.758047814948" cy="296.98765224731596" r="2.5" class="obs"/>
<line x1="582.4716553287982" y1="293.3568790060701" x2="582.4716553287982" y2="295.9635879997851" class="err"/>
<line x1="579.4716553287982" y1="293.3568790060701" x2="585.4716553287982" y2="293.3568790060701" class="err"/>
<line x1="579.4716553287982" y1="295.9635879997851" x2="585.4716553287982" y2="295.9635879997851" class="err"/>
<circle cx="582.4716553287982" cy="294.66023350292755" r="2.5" class="obs"/>
<g class="legend">
<line x1="82" y1="69" x2="106" y2="69" class="fw"/>
<text x="112" y="73" class="lbl-l">framework fit</text>
<line x1="82" y1="87" x2="106" y2="87" class="nt"/>
<text x="112" y="91" class="lbl-l">Newtonian (no halo)</text>
<circle cx="94" cy="105" r="2.5" class="obs"/>
<text x="112" y="109" class="lbl">observed V±err</text>
</g>
<g class="legend">
<line x1="460" y1="69" x2="484" y2="69" class="rho"/>
<text x="490" y="73" class="lbl-r">ρ(r) raw</text>
<line x1="460" y1="87" x2="484" y2="87" class="sig"/>
<text x="490" y="91" class="lbl-r">Σ(r) smoothed</text>
<text x="460" y="113" class="lbl-r">ρ peak: 19917 M☉/pc²</text>
</g>
</svg>