<svg xmlns="http://www.w3.org/2000/svg" viewBox="0 0 720 420" width="720" height="420" font-family="sans-serif" font-size="12">
<style>
  .ax { stroke: #333; stroke-width: 1; fill: none; }
  .grid { stroke: #ddd; stroke-width: 0.5; fill: none; }
  .lbl { fill: #333; }
  .lbl-l { fill: #0066cc; }
  .lbl-r { fill: #b03030; }
  .obs { fill: #222; }
  .err { stroke: #555; stroke-width: 0.8; fill: none; }
  .fw { stroke: #0066cc; stroke-width: 2.2; fill: none; }
  .nt { stroke: #cc6600; stroke-width: 1.6; fill: none; stroke-dasharray: 5,3; }
  .rho { stroke: #b03030; stroke-width: 2.0; fill: none; }
  .sig { stroke: #b03030; stroke-width: 1.6; fill: none; stroke-dasharray: 4,2; opacity: 0.85; }
  .title { fill: #111; font-size: 16px; font-weight: 600; }
  .subtitle { fill: #555; font-size: 11px; }
  .legend { font-size: 11px; }
</style>
<text x="360.0" y="22" text-anchor="middle" class="title">UGC01230</text>
<text x="360.0" y="38" text-anchor="middle" class="subtitle">rMax=36.5 kpc, N=11, RMS=1.1 km/s (1.2%), amp=105</text>
<line x1="70" y1="365.0" x2="635" y2="365.0" class="grid"/>
<text x="64" y="369.0" text-anchor="end" class="lbl-l">0</text>
<line x1="70" y1="303.0" x2="635" y2="303.0" class="grid"/>
<text x="64" y="307.0" text-anchor="end" class="lbl-l">28</text>
<line x1="70" y1="241.00000000000003" x2="635" y2="241.00000000000003" class="grid"/>
<text x="64" y="245.00000000000003" text-anchor="end" class="lbl-l">56</text>
<line x1="70" y1="179.0" x2="635" y2="179.0" class="grid"/>
<text x="64" y="183.0" text-anchor="end" class="lbl-l">84</text>
<line x1="70" y1="117.00000000000003" x2="635" y2="117.00000000000003" class="grid"/>
<text x="64" y="121.00000000000003" text-anchor="end" class="lbl-l">112</text>
<line x1="70" y1="55.0" x2="635" y2="55.0" class="grid"/>
<text x="64" y="59.0" text-anchor="end" class="lbl-l">140</text>
<text x="641" y="369.0" text-anchor="start" class="lbl-r">0.0</text>
<text x="641" y="327.6666666666667" text-anchor="start" class="lbl-r">0.2</text>
<text x="641" y="286.33333333333337" text-anchor="start" class="lbl-r">0.4</text>
<text x="641" y="245.00000000000003" text-anchor="start" class="lbl-r">0.6</text>
<text x="641" y="203.66666666666666" text-anchor="start" class="lbl-r">0.8</text>
<text x="641" y="162.33333333333334" text-anchor="start" class="lbl-r">1.0</text>
<line x1="70.0" y1="55" x2="70.0" y2="365" class="grid"/>
<text x="70.0" y="381" text-anchor="middle" class="lbl">0.0</text>
<line x1="164.16666666666666" y1="55" x2="164.16666666666666" y2="365" class="grid"/>
<text x="164.16666666666666" y="381" text-anchor="middle" class="lbl">6.6</text>
<line x1="258.3333333333333" y1="55" x2="258.3333333333333" y2="365" class="grid"/>
<text x="258.3333333333333" y="381" text-anchor="middle" class="lbl">13.2</text>
<line x1="352.5" y1="55" x2="352.5" y2="365" class="grid"/>
<text x="352.5" y="381" text-anchor="middle" class="lbl">19.8</text>
<line x1="446.66666666666663" y1="55" x2="446.66666666666663" y2="365" class="grid"/>
<text x="446.66666666666663" y="381" text-anchor="middle" class="lbl">26.4</text>
<line x1="540.8333333333333" y1="55" x2="540.8333333333333" y2="365" class="grid"/>
<text x="540.8333333333333" y="381" text-anchor="middle" class="lbl">33.0</text>
<line x1="635.0" y1="55" x2="635.0" y2="365" class="grid"/>
<text x="635.0" y="381" text-anchor="middle" class="lbl">39.6</text>
<text x="352.5" y="408" text-anchor="middle" class="lbl">radius (kpc)</text>
<text x="16" y="210.0" text-anchor="middle" class="lbl-l" transform="rotate(-90, 16, 210.0)">velocity (km/s)</text>
<text x="704" y="210.0" text-anchor="middle" class="lbl-r" transform="rotate(-90, 704, 210.0)">mass profile (normalized to peak)</text>
<rect x="70" y="55" width="565" height="310" class="ax"/>
<path d="M 70.0,158.3 L 72.6,158.3 L 75.2,158.3 L 77.7,158.4 L 80.3,158.4 L 82.9,158.4 L 85.5,158.4 L 88.1,158.4 L 90.6,158.4 L 93.2,158.4 L 95.8,158.4 L 98.4,158.4 L 101.0,158.4 L 103.5,158.4 L 106.1,158.4 L 108.7,158.4 L 111.3,158.4 L 113.9,158.4 L 116.4,158.4 L 119.0,158.5 L 121.6,158.5 L 124.2,158.5 L 126.8,165.4 L 129.3,177.1 L 131.9,188.7 L 134.5,200.4 L 137.1,212.0 L 139.7,223.7 L 142.2,235.4 L 144.8,247.0 L 147.4,248.4 L 150.0,249.0 L 152.6,249.6 L 155.1,250.2 L 157.7,250.8 L 160.3,251.4 L 162.9,251.9 L 165.5,252.5 L 168.0,253.1 L 170.6,253.7 L 173.2,254.3 L 175.8,254.9 L 178.4,255.5 L 180.9,256.0 L 183.5,256.6 L 186.1,257.2 L 188.7,257.8 L 191.3,258.4 L 193.8,259.0 L 196.4,259.6 L 199.0,260.1 L 201.6,260.7 L 204.2,261.3 L 206.7,261.9 L 209.3,262.5 L 211.9,263.1 L 214.5,263.7 L 217.1,264.2 L 219.6,264.8 L 222.2,265.4 L 224.8,266.0 L 227.4,266.6 L 230.0,267.2 L 232.5,267.8 L 235.1,268.3 L 237.7,268.9 L 240.3,269.5 L 242.9,270.1 L 245.4,270.7 L 248.0,271.3 L 250.6,271.9 L 253.2,272.5 L 255.8,273.0 L 258.3,273.6 L 260.9,274.2 L 263.5,274.8 L 266.1,275.4 L 268.7,276.0 L 271.2,276.6 L 273.8,277.1 L 276.4,277.7 L 279.0,278.3 L 281.6,278.9 L 284.1,279.5 L 286.7,280.1 L 289.3,280.7 L 291.9,281.2 L 294.5,281.8 L 297.0,282.4 L 299.6,283.0 L 302.2,283.6 L 304.8,284.2 L 307.4,284.8 L 309.9,285.3 L 312.5,285.9 L 315.1,286.5 L 317.7,287.1 L 320.3,287.7 L 322.8,288.3 L 325.4,288.9 L 328.0,289.4 L 330.6,290.0 L 333.2,290.6 L 335.7,291.2 L 338.3,291.8 L 340.9,292.4 L 343.5,293.0 L 346.1,293.6 L 348.6,294.1 L 351.2,294.7 L 353.8,295.3 L 356.4,295.9 L 358.9,296.5 L 361.5,297.1 L 364.1,297.7 L 366.7,298.2 L 369.3,298.8 L 371.8,299.4 L 374.4,300.0 L 377.0,300.6 L 379.6,301.2 L 382.2,301.8 L 384.7,302.3 L 387.3,302.9 L 389.9,303.5 L 392.5,304.1 L 395.1,304.7 L 397.6,305.3 L 400.2,305.9 L 402.8,306.4 L 405.4,307.0 L 408.0,307.6 L 410.5,308.2 L 413.1,308.8 L 415.7,309.4 L 418.3,310.0 L 420.9,310.5 L 423.4,311.1 L 426.0,311.7 L 428.6,312.3 L 431.2,312.9 L 433.8,313.5 L 436.3,313.7 L 438.9,313.7 L 441.5,313.7 L 444.1,313.7 L 446.7,313.7 L 449.2,313.7 L 451.8,313.7 L 454.4,313.7 L 457.0,313.7 L 459.6,313.7 L 462.1,313.7 L 464.7,313.7 L 467.3,313.7 L 469.9,313.7 L 472.5,313.7 L 475.0,313.7 L 477.6,313.7 L 480.2,313.7 L 482.8,313.7 L 485.4,313.7 L 487.9,313.7 L 490.5,313.7 L 493.1,313.7 L 495.7,313.7 L 498.3,313.7 L 500.8,313.7 L 503.4,313.7 L 506.0,313.7 L 508.6,313.7 L 511.2,313.7 L 513.7,313.7 L 516.3,313.7 L 518.9,313.7 L 521.5,313.7 L 524.1,313.7 L 526.6,313.7 L 529.2,313.7 L 531.8,313.7 L 534.4,313.7 L 537.0,313.7 L 539.5,313.7 L 542.1,313.7 L 544.7,313.7 L 547.3,315.1 L 549.9,317.2 L 552.4,319.3 L 555.0,321.4 L 557.6,323.5 L 560.2,325.7 L 562.8,327.8 L 565.3,329.9 L 567.9,332.0 L 570.5,334.1 L 573.1,336.3 L 575.7,338.4 L 578.2,340.5 L 580.8,342.6 L 583.4,344.7 L 586.0,346.8 L 588.6,349.0 L 591.1,351.1 L 593.7,353.2 L 596.3,355.3 L 598.9,357.4 L 601.5,359.6 L 604.0,361.7 L 606.6,363.8 L 609.2,365.0 L 611.8,365.0 L 614.4,365.0 L 616.9,365.0 L 619.5,365.0 L 622.1,365.0 L 624.7,365.0 L 627.3,365.0 L 629.8,365.0 L 632.4,365.0 L 635.0,365.0" class="rho"/>
<path d="M 70.0,158.3 L 72.6,158.4 L 75.2,158.6 L 77.7,158.9 L 80.3,159.3 L 82.9,159.8 L 85.5,160.4 L 88.1,161.1 L 90.6,161.9 L 93.2,162.9 L 95.8,163.9 L 98.4,165.1 L 101.0,166.4 L 103.5,167.8 L 106.1,169.3 L 108.7,171.0 L 111.3,172.8 L 113.9,174.7 L 116.4,176.7 L 119.0,178.8 L 121.6,181.0 L 124.2,183.3 L 126.8,185.7 L 129.3,188.2 L 131.9,190.6 L 134.5,193.2 L 137.1,195.7 L 139.7,198.2 L 142.2,200.7 L 144.8,203.1 L 147.4,205.5 L 150.0,207.8 L 152.6,210.1 L 155.1,212.3 L 157.7,214.4 L 160.3,216.4 L 162.9,218.4 L 165.5,220.3 L 168.0,222.1 L 170.6,223.9 L 173.2,225.7 L 175.8,227.3 L 178.4,229.0 L 180.9,230.6 L 183.5,232.1 L 186.1,233.7 L 188.7,235.2 L 191.3,236.6 L 193.8,238.1 L 196.4,239.5 L 199.0,240.8 L 201.6,242.2 L 204.2,243.5 L 206.7,244.8 L 209.3,246.1 L 211.9,247.4 L 214.5,248.7 L 217.1,249.9 L 219.6,251.1 L 222.2,252.3 L 224.8,253.5 L 227.4,254.7 L 230.0,255.8 L 232.5,257.0 L 235.1,258.1 L 237.7,259.3 L 240.3,260.4 L 242.9,261.5 L 245.4,262.6 L 248.0,263.6 L 250.6,264.7 L 253.2,265.8 L 255.8,266.8 L 258.3,267.9 L 260.9,268.9 L 263.5,269.9 L 266.1,270.9 L 268.7,272.0 L 271.2,272.9 L 273.8,273.9 L 276.4,274.9 L 279.0,275.9 L 281.6,276.9 L 284.1,277.8 L 286.7,278.8 L 289.3,279.7 L 291.9,280.6 L 294.5,281.6 L 297.0,282.5 L 299.6,283.4 L 302.2,284.3 L 304.8,285.2 L 307.4,286.1 L 309.9,287.0 L 312.5,287.8 L 315.1,288.7 L 317.7,289.6 L 320.3,290.4 L 322.8,291.3 L 325.4,292.1 L 328.0,292.9 L 330.6,293.8 L 333.2,294.6 L 335.7,295.4 L 338.3,296.2 L 340.9,297.0 L 343.5,297.8 L 346.1,298.6 L 348.6,299.3 L 351.2,300.1 L 353.8,300.8 L 356.4,301.6 L 358.9,302.3 L 361.5,303.1 L 364.1,303.8 L 366.7,304.5 L 369.3,305.2 L 371.8,305.9 L 374.4,306.6 L 377.0,307.3 L 379.6,308.0 L 382.2,308.7 L 384.7,309.4 L 387.3,310.0 L 389.9,310.7 L 392.5,311.3 L 395.1,311.9 L 397.6,312.6 L 400.2,313.2 L 402.8,313.8 L 405.4,314.4 L 408.0,315.0 L 410.5,315.6 L 413.1,316.1 L 415.7,316.7 L 418.3,317.3 L 420.9,317.8 L 423.4,318.3 L 426.0,318.9 L 428.6,319.4 L 431.2,319.9 L 433.8,320.4 L 436.3,320.9 L 438.9,321.4 L 441.5,321.8 L 444.1,322.3 L 446.7,322.8 L 449.2,323.2 L 451.8,323.6 L 454.4,324.1 L 457.0,324.5 L 459.6,324.9 L 462.1,325.3 L 464.7,325.7 L 467.3,326.2 L 469.9,326.5 L 472.5,326.9 L 475.0,327.3 L 477.6,327.7 L 480.2,328.1 L 482.8,328.5 L 485.4,328.9 L 487.9,329.2 L 490.5,329.6 L 493.1,330.0 L 495.7,330.3 L 498.3,330.7 L 500.8,331.1 L 503.4,331.4 L 506.0,331.8 L 508.6,332.2 L 511.2,332.5 L 513.7,332.9 L 516.3,333.3 L 518.9,333.7 L 521.5,334.0 L 524.1,334.4 L 526.6,334.8 L 529.2,335.2 L 531.8,335.6 L 534.4,335.9 L 537.0,336.3 L 539.5,336.7 L 542.1,337.1 L 544.7,337.5 L 547.3,337.9 L 549.9,338.4 L 552.4,338.8 L 555.0,339.2 L 557.6,339.6 L 560.2,340.0 L 562.8,340.4 L 565.3,340.8 L 567.9,341.2 L 570.5,341.6 L 573.1,342.0 L 575.7,342.4 L 578.2,342.8 L 580.8,343.1 L 583.4,343.5 L 586.0,343.9 L 588.6,344.2 L 591.1,344.5 L 593.7,344.9 L 596.3,345.2 L 598.9,345.5 L 601.5,345.8 L 604.0,346.1 L 606.6,346.4 L 609.2,346.7 L 611.8,346.9 L 614.4,347.2 L 616.9,347.4 L 619.5,347.7 L 622.1,347.9 L 624.7,348.1 L 627.3,348.4 L 629.8,348.6 L 632.4,348.8 L 635.0,349.0" class="sig"/>
<path d="M 75.7,314.0 L 81.3,292.8 L 87.0,276.6 L 92.6,263.0 L 98.2,250.9 L 103.9,240.0 L 109.6,230.0 L 115.2,220.7 L 120.8,212.0 L 126.5,203.7 L 132.2,197.2 L 137.8,192.6 L 143.4,189.6 L 149.1,187.7 L 154.8,185.7 L 160.4,183.6 L 166.1,181.3 L 171.7,179.0 L 177.3,176.6 L 183.0,174.2 L 188.7,171.8 L 194.3,169.4 L 199.9,167.1 L 205.6,164.7 L 211.2,162.4 L 216.9,160.1 L 222.6,157.9 L 228.2,155.7 L 233.8,153.5 L 239.5,151.4 L 245.2,149.4 L 250.8,147.4 L 256.5,145.4 L 262.1,143.5 L 267.8,141.6 L 273.4,139.8 L 279.1,138.0 L 284.7,136.3 L 290.4,134.6 L 296.0,133.0 L 301.6,131.4 L 307.3,129.9 L 312.9,128.4 L 318.6,127.0 L 324.2,125.6 L 329.9,124.3 L 335.5,123.0 L 341.2,121.7 L 346.9,120.6 L 352.5,119.4 L 358.1,118.3 L 363.8,117.2 L 369.4,116.2 L 375.1,115.2 L 380.7,114.3 L 386.4,113.4 L 392.1,112.5 L 397.7,111.7 L 403.3,111.0 L 409.0,110.2 L 414.6,109.6 L 420.3,108.9 L 425.9,108.3 L 431.6,107.8 L 437.2,107.2 L 442.9,106.7 L 448.5,106.1 L 454.2,105.6 L 459.8,105.0 L 465.5,104.4 L 471.1,103.7 L 476.8,103.1 L 482.4,102.4 L 488.1,101.8 L 493.8,101.1 L 499.4,100.4 L 505.1,99.7 L 510.7,99.0 L 516.4,98.2 L 522.0,97.5 L 527.7,96.7 L 533.3,96.0 L 539.0,95.2 L 544.6,94.4 L 550.2,93.7 L 555.9,93.2 L 561.5,92.9 L 567.2,92.8 L 572.9,92.9 L 578.5,93.2 L 584.1,93.7 L 589.8,94.3 L 595.5,95.2 L 601.1,96.2 L 606.8,97.5 L 612.4,98.9 L 618.0,100.3 L 623.7,101.7 L 629.4,103.0 L 635.0,104.3" class="nt"/>
<path d="M 74.7,346.0 L 79.4,331.2 L 84.1,314.5 L 88.8,297.5 L 93.5,280.3 L 98.2,263.0 L 103.0,245.5 L 107.7,227.9 L 112.4,210.4 L 117.1,193.4 L 121.8,177.3 L 126.5,163.2 L 131.2,151.2 L 135.9,142.2 L 140.6,136.0 L 145.3,132.5 L 150.0,131.0 L 154.8,130.9 L 159.5,131.6 L 164.2,132.6 L 168.9,133.6 L 173.6,134.4 L 178.3,135.0 L 183.0,135.3 L 187.7,135.4 L 192.4,135.3 L 197.1,134.9 L 201.8,134.5 L 206.5,133.8 L 211.2,133.1 L 216.0,132.2 L 220.7,131.3 L 225.4,130.3 L 230.1,129.3 L 234.8,128.2 L 239.5,127.1 L 244.2,126.0 L 248.9,124.9 L 253.6,123.8 L 258.3,122.8 L 263.0,121.7 L 267.8,120.7 L 272.5,119.7 L 277.2,118.7 L 281.9,117.8 L 286.6,116.9 L 291.3,116.1 L 296.0,115.4 L 300.7,114.7 L 305.4,114.0 L 310.1,113.4 L 314.8,112.9 L 319.5,112.5 L 324.2,112.1 L 329.0,111.8 L 333.7,111.5 L 338.4,111.4 L 343.1,111.3 L 347.8,111.3 L 352.5,111.4 L 357.2,111.6 L 361.9,111.9 L 366.6,112.3 L 371.3,112.8 L 376.0,113.4 L 380.8,114.2 L 385.5,115.0 L 390.2,116.0 L 394.9,117.1 L 399.6,118.4 L 404.3,119.8 L 409.0,121.4 L 413.7,123.2 L 418.4,125.1 L 423.1,127.2 L 427.8,129.5 L 432.5,131.8 L 437.2,134.2 L 442.0,136.5 L 446.7,138.8 L 451.4,140.8 L 456.1,142.7 L 460.8,144.3 L 465.5,145.6 L 470.2,146.7 L 474.9,147.5 L 479.6,148.1 L 484.3,148.4 L 489.0,148.4 L 493.8,148.1 L 498.5,147.5 L 503.2,146.6 L 507.9,145.3 L 512.6,143.6 L 517.3,141.6 L 522.0,139.3 L 526.7,136.5 L 531.4,133.5 L 536.1,130.4 L 540.8,127.2 L 545.5,124.3 L 550.2,121.9 L 555.0,120.2 L 559.7,119.5 L 564.4,119.7 L 569.1,121.0 L 573.8,123.1 L 578.5,126.1 L 583.2,129.7 L 587.9,133.9 L 592.6,138.4 L 597.3,143.3 L 602.0,148.2 L 606.8,153.1 L 611.5,157.9 L 616.2,162.5 L 620.9,166.9 L 625.6,171.1 L 630.3,174.9 L 635.0,178.6" class="fw"/>
<line x1="81.11949046846209" y1="297.6902541467929" x2="81.11949046846209" y2="344.91742008969885" class="err"/>
<line x1="78.11949046846209" y1="297.6902541467929" x2="84.11949046846209" y2="297.6902541467929" class="err"/>
<line x1="78.11949046846209" y1="344.91742008969885" x2="84.11949046846209" y2="344.91742008969885" class="err"/>
<circle cx="81.11949046846209" cy="321.3038371182459" r="2.5" class="obs"/>
<line x1="103.50102897549476" y1="219.12543603616433" x2="103.50102897549476" y2="266.3526019790703" class="err"/>
<line x1="100.50102897549476" y1="219.12543603616433" x2="106.50102897549476" y2="219.12543603616433" class="err"/>
<line x1="100.50102897549476" y1="266.3526019790703" x2="106.50102897549476" y2="266.3526019790703" class="err"/>
<circle cx="103.50102897549476" cy="242.73901900761732" r="2.5" class="obs"/>
<line x1="125.74000991241894" y1="146.0778102085855" x2="125.74000991241894" y2="193.30497615149145" class="err"/>
<line x1="122.74000991241894" y1="146.0778102085855" x2="128.74000991241894" y2="146.0778102085855" class="err"/>
<line x1="122.74000991241894" y1="193.30497615149145" x2="128.74000991241894" y2="193.30497615149145" class="err"/>
<circle cx="125.74000991241894" cy="169.69139318003846" r="2.5" class="obs"/>
<line x1="148.1215484194516" y1="109.66434114045708" x2="148.1215484194516" y2="156.89150708336305" class="err"/>
<line x1="145.1215484194516" y1="109.66434114045708" x2="151.1215484194516" y2="109.66434114045708" class="err"/>
<line x1="145.1215484194516" y1="156.89150708336305" x2="151.1215484194516" y2="156.89150708336305" class="err"/>
<circle cx="148.1215484194516" cy="133.27792411191007" r="2.5" class="obs"/>
<line x1="170.2179717862673" y1="107.45746422723718" x2="170.2179717862673" y2="154.68463017014312" class="err"/>
<line x1="167.2179717862673" y1="107.45746422723718" x2="173.2179717862673" y2="107.45746422723718" class="err"/>
<line x1="167.2179717862673" y1="154.68463017014312" x2="173.2179717862673" y2="154.68463017014312" class="err"/>
<circle cx="170.2179717862673" cy="131.07104719869017" r="2.5" class="obs"/>
<line x1="192.59951029329994" y1="114.07809496689688" x2="192.59951029329994" y2="161.30526090980285" class="err"/>
<line x1="189.59951029329994" y1="114.07809496689688" x2="195.59951029329994" y2="114.07809496689688" class="err"/>
<line x1="189.59951029329994" y1="161.30526090980285" x2="195.59951029329994" y2="161.30526090980285" class="err"/>
<circle cx="192.59951029329994" cy="137.69167793834987" r="2.5" class="obs"/>
<line x1="259.173895533964" y1="89.58176123015596" x2="259.173895533964" y2="159.3190716879049" class="err"/>
<line x1="256.173895533964" y1="89.58176123015596" x2="262.173895533964" y2="89.58176123015596" class="err"/>
<line x1="256.173895533964" y1="159.3190716879049" x2="262.173895533964" y2="159.3190716879049" class="err"/>
<circle cx="259.173895533964" cy="124.45041645903044" r="2.5" class="obs"/>
<line x1="281.6979916111052" y1="83.18181818181823" x2="281.6979916111052" y2="148.06399943048342" class="err"/>
<line x1="278.6979916111052" y1="83.18181818181823" x2="284.6979916111052" y2="83.18181818181823" class="err"/>
<line x1="278.6979916111052" y1="148.06399943048342" x2="284.6979916111052" y2="148.06399943048342" class="err"/>
<circle cx="281.6979916111052" cy="115.62290880615083" r="2.5" class="obs"/>
<line x1="437.7985308798999" y1="110.32640421442304" x2="437.7985308798999" y2="156.22944400939707" class="err"/>
<line x1="434.7985308798999" y1="110.32640421442304" x2="440.7985308798999" y2="110.32640421442304" class="err"/>
<line x1="434.7985308798999" y1="156.22944400939707" x2="440.7985308798999" y2="156.22944400939707" class="err"/>
<circle cx="437.7985308798999" cy="133.27792411191007" r="2.5" class="obs"/>
<line x1="526.3267819172711" y1="115.62290880615083" x2="526.3267819172711" y2="159.76044707054888" class="err"/>
<line x1="523.3267819172711" y1="115.62290880615083" x2="529.3267819172711" y2="115.62290880615083" class="err"/>
<line x1="523.3267819172711" y1="159.76044707054888" x2="529.3267819172711" y2="159.76044707054888" class="err"/>
<circle cx="526.3267819172711" cy="137.69167793834987" r="2.5" class="obs"/>
<line x1="590.9053611764164" y1="115.62290880615083" x2="590.9053611764164" y2="159.76044707054888" class="err"/>
<line x1="587.9053611764164" y1="115.62290880615083" x2="593.9053611764164" y2="115.62290880615083" class="err"/>
<line x1="587.9053611764164" y1="159.76044707054888" x2="593.9053611764164" y2="159.76044707054888" class="err"/>
<circle cx="590.9053611764164" cy="137.69167793834987" r="2.5" class="obs"/>
<g class="legend">
<line x1="82" y1="69" x2="106" y2="69" class="fw"/>
<text x="112" y="73" class="lbl-l">framework fit</text>
<line x1="82" y1="87" x2="106" y2="87" class="nt"/>
<text x="112" y="91" class="lbl-l">Newtonian (no halo)</text>
<circle cx="94" cy="105" r="2.5" class="obs"/>
<text x="112" y="109" class="lbl">observed V±err</text>
</g>
<g class="legend">
<line x1="460" y1="69" x2="484" y2="69" class="rho"/>
<text x="490" y="73" class="lbl-r">ρ(r) raw</text>
<line x1="460" y1="87" x2="484" y2="87" class="sig"/>
<text x="490" y="91" class="lbl-r">Σ(r) smoothed</text>
<text x="460" y="113" class="lbl-r">ρ peak: 100 M☉/pc²</text>
</g>
</svg>