<svg xmlns="http://www.w3.org/2000/svg" viewBox="0 0 890 420" width="890" height="420" font-family="sans-serif" font-size="12">
<style>
  .ax { stroke: #333; stroke-width: 1; fill: none; }
  .grid { stroke: #ddd; stroke-width: 0.5; fill: none; }
  .lbl { fill: #333; }
  .lbl-l { fill: #0066cc; }
  .lbl-r { fill: #b03030; }
  .obs { fill: #222; }
  .err { stroke: #555; stroke-width: 0.8; fill: none; }
  .fw { stroke: #0066cc; stroke-width: 2.2; fill: none; }
  .nt { stroke: #cc6600; stroke-width: 1.6; fill: none; stroke-dasharray: 5,3; }
  .lbl-s { fill: #cc7000; }
  .rho { stroke: #b03030; stroke-width: 2.0; fill: none; }
  .sig { stroke: #cc7000; stroke-width: 1.8; fill: none; }
  .title { fill: #111; font-size: 16px; font-weight: 600; }
  .subtitle { fill: #555; font-size: 11px; }
  .preview-bg { fill: #000; }
  .preview-lbl { fill: #888; font-size: 10px; }
  .legend { font-size: 11px; }
</style>
<text x="343.5" y="22" text-anchor="middle" class="title">UGC02023</text>
<text x="343.5" y="38" text-anchor="middle" class="subtitle">rMax=3.8 kpc, N=5, RMS=0.6 km/s (1.5%), amp=102</text>
<line x1="70" y1="365.0" x2="617" y2="365.0" class="grid"/>
<text x="64" y="369.0" text-anchor="end" class="lbl-l">0</text>
<line x1="70" y1="303.0" x2="617" y2="303.0" class="grid"/>
<text x="64" y="307.0" text-anchor="end" class="lbl-l">15</text>
<line x1="70" y1="241.0" x2="617" y2="241.0" class="grid"/>
<text x="64" y="245.0" text-anchor="end" class="lbl-l">30</text>
<line x1="70" y1="179.0" x2="617" y2="179.0" class="grid"/>
<text x="64" y="183.0" text-anchor="end" class="lbl-l">45</text>
<line x1="70" y1="117.0" x2="617" y2="117.0" class="grid"/>
<text x="64" y="121.0" text-anchor="end" class="lbl-l">59</text>
<line x1="70" y1="55.0" x2="617" y2="55.0" class="grid"/>
<text x="64" y="59.0" text-anchor="end" class="lbl-l">74</text>
<text x="623" y="369.0" text-anchor="start" class="lbl-r">0.0</text>
<text x="623" y="327.7" text-anchor="start" class="lbl-r">0.2</text>
<text x="623" y="286.3" text-anchor="start" class="lbl-r">0.4</text>
<text x="623" y="245.0" text-anchor="start" class="lbl-r">0.6</text>
<text x="623" y="203.7" text-anchor="start" class="lbl-r">0.8</text>
<text x="623" y="162.3" text-anchor="start" class="lbl-r">1.0</text>
<line x1="70.0" y1="55" x2="70.0" y2="365" class="grid"/>
<text x="70.0" y="381" text-anchor="middle" class="lbl">0.0</text>
<line x1="161.2" y1="55" x2="161.2" y2="365" class="grid"/>
<text x="161.2" y="381" text-anchor="middle" class="lbl">0.7</text>
<line x1="252.3" y1="55" x2="252.3" y2="365" class="grid"/>
<text x="252.3" y="381" text-anchor="middle" class="lbl">1.3</text>
<line x1="343.5" y1="55" x2="343.5" y2="365" class="grid"/>
<text x="343.5" y="381" text-anchor="middle" class="lbl">2.0</text>
<line x1="434.7" y1="55" x2="434.7" y2="365" class="grid"/>
<text x="434.7" y="381" text-anchor="middle" class="lbl">2.6</text>
<line x1="525.8" y1="55" x2="525.8" y2="365" class="grid"/>
<text x="525.8" y="381" text-anchor="middle" class="lbl">3.3</text>
<line x1="617.0" y1="55" x2="617.0" y2="365" class="grid"/>
<text x="617.0" y="381" text-anchor="middle" class="lbl">3.9</text>
<text x="343.5" y="408" text-anchor="middle" class="lbl">radius (kpc)</text>
<text x="16" y="210" text-anchor="middle" class="lbl-l" transform="rotate(-90, 16, 210)">velocity (km/s)</text>
<text x="654" y="210" text-anchor="middle" class="lbl-r" transform="rotate(-90, 654, 210)">mass profile (normalized to peak)</text>
<rect x="70" y="55" width="547" height="310" class="ax"/>
<path d="M 70.0,158.3 L 72.5,163.5 L 75.0,168.6 L 77.5,173.8 L 80.0,178.9 L 82.5,184.1 L 85.0,189.2 L 87.5,194.4 L 90.0,199.5 L 92.5,204.7 L 95.0,209.8 L 97.5,215.0 L 100.0,220.1 L 102.5,225.3 L 105.0,230.4 L 107.5,233.0 L 110.0,233.0 L 112.5,233.0 L 115.0,233.0 L 117.5,233.0 L 120.0,233.0 L 122.5,233.0 L 124.9,233.0 L 127.4,233.0 L 129.9,233.0 L 132.4,233.0 L 134.9,233.0 L 137.4,233.0 L 139.9,233.0 L 142.4,233.0 L 144.9,233.0 L 147.4,233.0 L 149.9,233.0 L 152.4,233.0 L 154.9,233.0 L 157.4,233.0 L 159.9,233.0 L 162.4,233.0 L 164.9,233.0 L 167.4,233.0 L 169.9,233.0 L 172.4,233.0 L 174.9,233.0 L 177.4,233.0 L 179.9,233.0 L 182.4,233.0 L 184.9,233.0 L 187.4,233.0 L 189.9,233.0 L 192.4,233.0 L 194.9,233.0 L 197.4,233.0 L 199.9,233.0 L 202.4,233.0 L 204.9,233.0 L 207.4,233.0 L 209.9,233.0 L 212.4,233.0 L 214.9,233.0 L 217.4,233.2 L 219.9,233.4 L 222.4,233.7 L 224.9,233.9 L 227.4,234.2 L 229.9,234.4 L 232.4,234.7 L 234.8,234.9 L 237.3,235.2 L 239.8,235.4 L 242.3,235.7 L 244.8,235.9 L 247.3,236.2 L 249.8,236.4 L 252.3,236.7 L 254.8,236.9 L 257.3,237.2 L 259.8,237.4 L 262.3,237.7 L 264.8,237.9 L 267.3,238.2 L 269.8,238.4 L 272.3,238.7 L 274.8,238.9 L 277.3,239.2 L 279.8,239.4 L 282.3,239.7 L 284.8,239.9 L 287.3,240.2 L 289.8,240.4 L 292.3,240.7 L 294.8,240.9 L 297.3,241.2 L 299.8,241.4 L 302.3,241.7 L 304.8,241.9 L 307.3,242.2 L 309.8,242.4 L 312.3,242.7 L 314.8,242.9 L 317.3,243.2 L 319.8,243.4 L 322.3,243.7 L 324.8,243.9 L 327.3,244.2 L 329.8,244.4 L 332.3,244.7 L 334.8,244.9 L 337.3,245.2 L 339.8,245.4 L 342.3,245.7 L 344.7,245.9 L 347.2,246.2 L 349.7,246.4 L 352.2,246.7 L 354.7,246.9 L 357.2,247.2 L 359.7,247.4 L 362.2,247.7 L 364.7,247.9 L 367.2,248.2 L 369.7,248.4 L 372.2,248.7 L 374.7,248.9 L 377.2,249.2 L 379.7,249.4 L 382.2,249.7 L 384.7,249.9 L 387.2,250.2 L 389.7,250.4 L 392.2,250.6 L 394.7,250.9 L 397.2,251.1 L 399.7,251.4 L 402.2,251.6 L 404.7,251.9 L 407.2,252.1 L 409.7,252.4 L 412.2,252.6 L 414.7,252.9 L 417.2,253.1 L 419.7,253.4 L 422.2,253.6 L 424.7,253.9 L 427.2,254.1 L 429.7,254.4 L 432.2,254.6 L 434.7,254.9 L 437.2,255.1 L 439.7,255.4 L 442.2,255.6 L 444.7,255.9 L 447.2,256.1 L 449.7,256.4 L 452.2,256.6 L 454.6,256.9 L 457.1,257.1 L 459.6,257.4 L 462.1,257.6 L 464.6,257.9 L 467.1,258.1 L 469.6,258.4 L 472.1,258.6 L 474.6,258.9 L 477.1,259.1 L 479.6,259.4 L 482.1,259.6 L 484.6,259.9 L 487.1,260.1 L 489.6,260.4 L 492.1,260.6 L 494.6,260.9 L 497.1,261.1 L 499.6,261.4 L 502.1,261.6 L 504.6,261.9 L 507.1,262.1 L 509.6,262.4 L 512.1,262.6 L 514.6,262.9 L 517.1,263.1 L 519.6,263.4 L 522.1,263.6 L 524.6,263.9 L 527.1,264.1 L 529.6,264.4 L 532.1,264.6 L 534.6,264.9 L 537.1,265.1 L 539.6,265.4 L 542.1,265.6 L 544.6,265.9 L 547.1,266.1 L 549.6,266.4 L 552.1,266.6 L 554.6,266.9 L 557.1,267.1 L 559.6,267.4 L 562.1,267.6 L 564.5,269.1 L 567.0,278.2 L 569.5,287.2 L 572.0,296.3 L 574.5,305.4 L 577.0,314.5 L 579.5,323.5 L 582.0,332.6 L 584.5,341.7 L 587.0,350.7 L 589.5,359.8 L 592.0,365.0 L 594.5,365.0 L 597.0,365.0 L 599.5,365.0 L 602.0,365.0 L 604.5,365.0 L 607.0,365.0 L 609.5,365.0 L 612.0,365.0 L 614.5,365.0 L 617.0,365.0" class="rho"/>
<path d="M 70.0,158.3 L 72.5,158.5 L 75.0,158.6 L 77.5,158.9 L 80.0,159.3 L 82.5,159.7 L 85.0,160.2 L 87.5,160.8 L 90.0,161.4 L 92.5,162.1 L 95.0,162.8 L 97.5,163.5 L 100.0,164.2 L 102.5,164.9 L 105.0,165.6 L 107.5,166.3 L 110.0,166.9 L 112.5,167.5 L 115.0,168.1 L 117.5,168.7 L 120.0,169.2 L 122.5,169.7 L 124.9,170.2 L 127.4,170.7 L 129.9,171.2 L 132.4,171.6 L 134.9,172.0 L 137.4,172.4 L 139.9,172.8 L 142.4,173.2 L 144.9,173.6 L 147.4,174.0 L 149.9,174.3 L 152.4,174.7 L 154.9,175.1 L 157.4,175.4 L 159.9,175.8 L 162.4,176.1 L 164.9,176.5 L 167.4,176.8 L 169.9,177.2 L 172.4,177.5 L 174.9,177.9 L 177.4,178.3 L 179.9,178.6 L 182.4,179.0 L 184.9,179.4 L 187.4,179.8 L 189.9,180.2 L 192.4,180.5 L 194.9,180.9 L 197.4,181.4 L 199.9,181.8 L 202.4,182.2 L 204.9,182.6 L 207.4,183.1 L 209.9,183.5 L 212.4,184.0 L 214.9,184.4 L 217.4,184.9 L 219.9,185.4 L 222.4,185.9 L 224.9,186.4 L 227.4,186.9 L 229.9,187.4 L 232.4,188.0 L 234.8,188.5 L 237.3,189.0 L 239.8,189.6 L 242.3,190.2 L 244.8,190.7 L 247.3,191.3 L 249.8,191.9 L 252.3,192.5 L 254.8,193.1 L 257.3,193.7 L 259.8,194.3 L 262.3,194.9 L 264.8,195.5 L 267.3,196.1 L 269.8,196.7 L 272.3,197.4 L 274.8,198.0 L 277.3,198.6 L 279.8,199.3 L 282.3,199.9 L 284.8,200.6 L 287.3,201.2 L 289.8,201.9 L 292.3,202.5 L 294.8,203.2 L 297.3,203.9 L 299.8,204.5 L 302.3,205.2 L 304.8,205.9 L 307.3,206.5 L 309.8,207.2 L 312.3,207.9 L 314.8,208.6 L 317.3,209.3 L 319.8,210.0 L 322.3,210.7 L 324.8,211.4 L 327.3,212.1 L 329.8,212.8 L 332.3,213.5 L 334.8,214.2 L 337.3,214.9 L 339.8,215.6 L 342.3,216.3 L 344.7,217.0 L 347.2,217.7 L 349.7,218.5 L 352.2,219.2 L 354.7,219.9 L 357.2,220.6 L 359.7,221.4 L 362.2,222.1 L 364.7,222.8 L 367.2,223.5 L 369.7,224.3 L 372.2,225.0 L 374.7,225.8 L 377.2,226.5 L 379.7,227.2 L 382.2,228.0 L 384.7,228.7 L 387.2,229.5 L 389.7,230.2 L 392.2,231.0 L 394.7,231.7 L 397.2,232.5 L 399.7,233.3 L 402.2,234.0 L 404.7,234.8 L 407.2,235.6 L 409.7,236.3 L 412.2,237.1 L 414.7,237.9 L 417.2,238.6 L 419.7,239.4 L 422.2,240.2 L 424.7,241.0 L 427.2,241.8 L 429.7,242.6 L 432.2,243.3 L 434.7,244.1 L 437.2,244.9 L 439.7,245.7 L 442.2,246.5 L 444.7,247.4 L 447.2,248.2 L 449.7,249.0 L 452.2,249.8 L 454.6,250.6 L 457.1,251.5 L 459.6,252.3 L 462.1,253.1 L 464.6,254.0 L 467.1,254.8 L 469.6,255.7 L 472.1,256.5 L 474.6,257.4 L 477.1,258.3 L 479.6,259.1 L 482.1,260.0 L 484.6,260.9 L 487.1,261.8 L 489.6,262.7 L 492.1,263.6 L 494.6,264.6 L 497.1,265.5 L 499.6,266.4 L 502.1,267.4 L 504.6,268.3 L 507.1,269.3 L 509.6,270.3 L 512.1,271.3 L 514.6,272.3 L 517.1,273.4 L 519.6,274.4 L 522.1,275.5 L 524.6,276.6 L 527.1,277.7 L 529.6,278.8 L 532.1,279.9 L 534.6,281.1 L 537.1,282.3 L 539.6,283.5 L 542.1,284.7 L 544.6,286.0 L 547.1,287.3 L 549.6,288.6 L 552.1,290.0 L 554.6,291.4 L 557.1,292.8 L 559.6,294.2 L 562.1,295.7 L 564.5,297.1 L 567.0,298.6 L 569.5,300.1 L 572.0,301.6 L 574.5,303.1 L 577.0,304.5 L 579.5,306.0 L 582.0,307.4 L 584.5,308.7 L 587.0,310.1 L 589.5,311.4 L 592.0,312.6 L 594.5,313.8 L 597.0,314.9 L 599.5,316.0 L 602.0,317.1 L 604.5,318.1 L 607.0,319.1 L 609.5,320.0 L 612.0,320.9 L 614.5,321.8 L 617.0,322.6" class="sig"/>
<path d="M 75.5,336.5 L 80.9,325.5 L 86.4,317.6 L 91.9,311.4 L 97.3,306.4 L 102.8,302.2 L 108.3,298.7 L 113.8,295.4 L 119.2,292.0 L 124.7,288.8 L 130.2,285.6 L 135.6,282.5 L 141.1,279.4 L 146.6,276.5 L 152.1,273.6 L 157.5,270.8 L 163.0,268.1 L 168.5,265.5 L 173.9,262.9 L 179.4,260.3 L 184.9,257.8 L 190.3,255.4 L 195.8,253.0 L 201.3,250.7 L 206.8,248.4 L 212.2,246.1 L 217.7,243.9 L 223.2,241.8 L 228.6,239.7 L 234.1,237.6 L 239.6,235.6 L 245.0,233.6 L 250.5,231.7 L 256.0,229.8 L 261.5,228.0 L 266.9,226.2 L 272.4,224.4 L 277.9,222.7 L 283.3,221.0 L 288.8,219.3 L 294.3,217.7 L 299.7,216.0 L 305.2,214.5 L 310.7,212.9 L 316.1,211.4 L 321.6,209.9 L 327.1,208.4 L 332.6,206.9 L 338.0,205.5 L 343.5,204.1 L 349.0,202.7 L 354.4,201.3 L 359.9,200.0 L 365.4,198.6 L 370.8,197.3 L 376.3,196.0 L 381.8,194.8 L 387.3,193.5 L 392.7,192.3 L 398.2,191.0 L 403.7,189.8 L 409.1,188.7 L 414.6,187.5 L 420.1,186.3 L 425.6,185.2 L 431.0,184.1 L 436.5,183.0 L 442.0,181.9 L 447.4,180.8 L 452.9,179.8 L 458.4,178.7 L 463.8,177.7 L 469.3,176.7 L 474.8,175.6 L 480.3,174.7 L 485.7,173.7 L 491.2,172.7 L 496.7,171.8 L 502.1,170.8 L 507.6,169.9 L 513.1,169.0 L 518.5,168.1 L 524.0,167.2 L 529.5,166.3 L 535.0,165.4 L 540.4,164.6 L 545.9,163.7 L 551.4,162.9 L 556.8,162.0 L 562.3,161.2 L 567.8,160.5 L 573.2,160.1 L 578.7,160.2 L 584.2,160.6 L 589.7,161.4 L 595.1,162.4 L 600.6,163.5 L 606.1,164.5 L 611.5,165.5 L 617.0,166.5" class="nt"/>
<path d="M 74.6,354.2 L 79.1,346.5 L 83.7,338.5 L 88.2,331.5 L 92.8,325.5 L 97.3,320.9 L 101.9,317.6 L 106.5,315.3 L 111.0,314.0 L 115.6,313.3 L 120.1,313.0 L 124.7,312.9 L 129.3,312.7 L 133.8,312.5 L 138.4,312.1 L 142.9,311.5 L 147.5,310.8 L 152.1,309.9 L 156.6,308.8 L 161.2,307.5 L 165.7,306.1 L 170.3,304.5 L 174.8,302.7 L 179.4,300.8 L 184.0,298.8 L 188.5,296.6 L 193.1,294.2 L 197.6,291.8 L 202.2,289.2 L 206.8,286.5 L 211.3,283.7 L 215.9,280.9 L 220.4,278.1 L 225.0,275.3 L 229.5,272.6 L 234.1,269.9 L 238.7,267.4 L 243.2,264.9 L 247.8,262.6 L 252.3,260.3 L 256.9,258.0 L 261.5,255.9 L 266.0,253.8 L 270.6,251.7 L 275.1,249.7 L 279.7,247.7 L 284.2,245.8 L 288.8,244.0 L 293.4,242.1 L 297.9,240.3 L 302.5,238.6 L 307.0,236.8 L 311.6,235.1 L 316.1,233.4 L 320.7,231.8 L 325.3,230.1 L 329.8,228.5 L 334.4,226.9 L 338.9,225.3 L 343.5,223.7 L 348.1,222.2 L 352.6,220.7 L 357.2,219.1 L 361.7,217.6 L 366.3,216.1 L 370.8,214.6 L 375.4,213.1 L 380.0,211.6 L 384.5,210.1 L 389.1,208.6 L 393.6,207.0 L 398.2,205.5 L 402.8,204.0 L 407.3,202.5 L 411.9,200.9 L 416.4,199.3 L 421.0,197.7 L 425.5,196.1 L 430.1,194.5 L 434.7,192.8 L 439.2,191.1 L 443.8,189.3 L 448.3,187.5 L 452.9,185.6 L 457.5,183.7 L 462.0,181.7 L 466.6,179.6 L 471.1,177.5 L 475.7,175.2 L 480.3,172.8 L 484.8,170.3 L 489.4,167.6 L 493.9,164.8 L 498.5,161.8 L 503.0,158.6 L 507.6,155.1 L 512.2,151.5 L 516.7,147.5 L 521.3,143.2 L 525.8,138.5 L 530.4,133.5 L 535.0,128.1 L 539.5,122.3 L 544.1,116.2 L 548.6,110.0 L 553.2,103.9 L 557.7,98.4 L 562.3,93.9 L 566.9,91.0 L 571.4,90.1 L 576.0,91.5 L 580.5,94.9 L 585.1,100.2 L 589.7,106.8 L 594.2,114.3 L 598.8,122.1 L 603.3,130.0 L 607.9,137.5 L 612.4,144.8 L 617.0,151.6" class="fw"/>
<line x1="175.48" y1="265.66" x2="175.48" y2="338.23" class="err"/>
<line x1="172.48" y1="265.66" x2="178.48" y2="265.66" class="err"/>
<line x1="172.48" y1="338.23" x2="178.48" y2="338.23" class="err"/>
<circle cx="175.48" cy="301.95" r="2.5" class="obs"/>
<line x1="279.57" y1="211.79" x2="279.57" y2="284.37" class="err"/>
<line x1="276.57" y1="211.79" x2="282.57" y2="211.79" class="err"/>
<line x1="276.57" y1="284.37" x2="282.57" y2="284.37" class="err"/>
<circle cx="279.57" cy="248.08" r="2.5" class="obs"/>
<line x1="385.05" y1="171.71" x2="385.05" y2="244.28" class="err"/>
<line x1="382.05" y1="171.71" x2="388.05" y2="171.71" class="err"/>
<line x1="382.05" y1="244.28" x2="388.05" y2="244.28" class="err"/>
<circle cx="385.05" cy="207.99" r="2.5" class="obs"/>
<line x1="490.53" y1="128.70" x2="490.53" y2="201.27" class="err"/>
<line x1="487.53" y1="128.70" x2="493.53" y2="128.70" class="err"/>
<line x1="487.53" y1="201.27" x2="493.53" y2="201.27" class="err"/>
<circle cx="490.53" cy="164.98" r="2.5" class="obs"/>
<line x1="594.62" y1="83.18" x2="594.62" y2="155.76" class="err"/>
<line x1="591.62" y1="83.18" x2="597.62" y2="83.18" class="err"/>
<line x1="591.62" y1="155.76" x2="597.62" y2="155.76" class="err"/>
<circle cx="594.62" cy="119.47" r="2.5" class="obs"/>
<g class="legend">
<line x1="82" y1="69" x2="106" y2="69" class="fw"/>
<text x="112" y="73" class="lbl-l">framework fit</text>
<line x1="82" y1="87" x2="106" y2="87" class="nt"/>
<text x="112" y="91" class="lbl-l">Newtonian (no halo)</text>
<circle cx="94" cy="105" r="2.5" class="obs"/>
<text x="112" y="109" class="lbl">observed V±err</text>
</g>
<g class="legend">
<line x1="442" y1="69" x2="466" y2="69" class="rho"/>
<text x="472" y="73" class="lbl-r">ρ(r) raw</text>
<line x1="442" y1="87" x2="466" y2="87" class="sig"/>
<text x="472" y="91" class="lbl-s">Σ(r) cumulative</text>
<text x="442" y="113" class="lbl-r">ρ peak: 91 M☉/pc²</text>
</g>
<rect x="705" y="55" width="170" height="170" class="preview-bg"/>
<defs><radialGradient id="g_UGC02023" cx="0.5" cy="0.5" r="0.5">
  <stop offset="0.0000" stop-color="rgb(174,43.5,43.5)"/>
  <stop offset="0.0313" stop-color="rgb(154,38.5,38.5)"/>
  <stop offset="0.0625" stop-color="rgb(134,33.5,33.5)"/>
  <stop offset="0.0938" stop-color="rgb(129,32.25,32.25)"/>
  <stop offset="0.1250" stop-color="rgb(129,32.25,32.25)"/>
  <stop offset="0.1563" stop-color="rgb(129,32.25,32.25)"/>
  <stop offset="0.1875" stop-color="rgb(129,32.25,32.25)"/>
  <stop offset="0.2188" stop-color="rgb(129,32.25,32.25)"/>
  <stop offset="0.2500" stop-color="rgb(129,32.25,32.25)"/>
  <stop offset="0.2813" stop-color="rgb(129,32.25,32.25)"/>
  <stop offset="0.3125" stop-color="rgb(128,32,32)"/>
  <stop offset="0.3438" stop-color="rgb(127,31.75,31.75)"/>
  <stop offset="0.3750" stop-color="rgb(126,31.5,31.5)"/>
  <stop offset="0.4063" stop-color="rgb(125,31.25,31.25)"/>
  <stop offset="0.4375" stop-color="rgb(124,31,31)"/>
  <stop offset="0.4688" stop-color="rgb(123,30.75,30.75)"/>
  <stop offset="0.5000" stop-color="rgb(122,30.5,30.5)"/>
  <stop offset="0.5313" stop-color="rgb(121,30.25,30.25)"/>
  <stop offset="0.5625" stop-color="rgb(120,30,30)"/>
  <stop offset="0.5938" stop-color="rgb(119,29.75,29.75)"/>
  <stop offset="0.6250" stop-color="rgb(118,29.5,29.5)"/>
  <stop offset="0.6563" stop-color="rgb(117,29.25,29.25)"/>
  <stop offset="0.6875" stop-color="rgb(116,29,29)"/>
  <stop offset="0.7188" stop-color="rgb(115,28.75,28.75)"/>
  <stop offset="0.7500" stop-color="rgb(114,28.5,28.5)"/>
  <stop offset="0.7813" stop-color="rgb(113,28.25,28.25)"/>
  <stop offset="0.8125" stop-color="rgb(112,28,28)"/>
  <stop offset="0.8438" stop-color="rgb(111,27.75,27.75)"/>
  <stop offset="0.8750" stop-color="rgb(111,27.75,27.75)"/>
  <stop offset="0.9063" stop-color="rgb(110,27.5,27.5)"/>
  <stop offset="0.9375" stop-color="rgb(109,27.25,27.25)"/>
  <stop offset="0.9688" stop-color="rgb(85,21.25,21.25)"/>
  <stop offset="1.0000" stop-color="rgb(0,0,0)"/>
</radialGradient></defs>
<circle cx="790" cy="140" r="81" fill="url(#g_UGC02023)"/>
<text x="790" y="49" text-anchor="middle" class="preview-lbl">face-on luminance from ρ(r)</text>
<text x="790" y="239" text-anchor="middle" class="preview-lbl">edge at r = 3.8 kpc</text>
</svg>