<svg xmlns="http://www.w3.org/2000/svg" viewBox="0 0 720 420" width="720" height="420" font-family="sans-serif" font-size="12">
<style>
  .ax { stroke: #333; stroke-width: 1; fill: none; }
  .grid { stroke: #ddd; stroke-width: 0.5; fill: none; }
  .lbl { fill: #333; }
  .lbl-l { fill: #0066cc; }
  .lbl-r { fill: #b03030; }
  .obs { fill: #222; }
  .err { stroke: #555; stroke-width: 0.8; fill: none; }
  .fw { stroke: #0066cc; stroke-width: 2.2; fill: none; }
  .nt { stroke: #cc6600; stroke-width: 1.6; fill: none; stroke-dasharray: 5,3; }
  .rho { stroke: #b03030; stroke-width: 2.0; fill: none; }
  .sig { stroke: #b03030; stroke-width: 1.6; fill: none; stroke-dasharray: 4,2; opacity: 0.85; }
  .title { fill: #111; font-size: 16px; font-weight: 600; }
  .subtitle { fill: #555; font-size: 11px; }
  .legend { font-size: 11px; }
</style>
<text x="360.0" y="22" text-anchor="middle" class="title">UGC08490</text>
<text x="360.0" y="38" text-anchor="middle" class="subtitle">rMax=10.2 kpc, N=30, RMS=1.2 km/s (1.6%), amp=105</text>
<line x1="70" y1="365.0" x2="635" y2="365.0" class="grid"/>
<text x="64" y="369.0" text-anchor="end" class="lbl-l">0</text>
<line x1="70" y1="303.0" x2="635" y2="303.0" class="grid"/>
<text x="64" y="307.0" text-anchor="end" class="lbl-l">20</text>
<line x1="70" y1="241.00000000000003" x2="635" y2="241.00000000000003" class="grid"/>
<text x="64" y="245.00000000000003" text-anchor="end" class="lbl-l">39</text>
<line x1="70" y1="179.0" x2="635" y2="179.0" class="grid"/>
<text x="64" y="183.0" text-anchor="end" class="lbl-l">59</text>
<line x1="70" y1="117.00000000000003" x2="635" y2="117.00000000000003" class="grid"/>
<text x="64" y="121.00000000000003" text-anchor="end" class="lbl-l">79</text>
<line x1="70" y1="55.0" x2="635" y2="55.0" class="grid"/>
<text x="64" y="59.0" text-anchor="end" class="lbl-l">98</text>
<text x="641" y="369.0" text-anchor="start" class="lbl-r">0.0</text>
<text x="641" y="327.6666666666667" text-anchor="start" class="lbl-r">0.2</text>
<text x="641" y="286.33333333333337" text-anchor="start" class="lbl-r">0.4</text>
<text x="641" y="245.00000000000003" text-anchor="start" class="lbl-r">0.6</text>
<text x="641" y="203.66666666666666" text-anchor="start" class="lbl-r">0.8</text>
<text x="641" y="162.33333333333334" text-anchor="start" class="lbl-r">1.0</text>
<line x1="70.0" y1="55" x2="70.0" y2="365" class="grid"/>
<text x="70.0" y="381" text-anchor="middle" class="lbl">0.0</text>
<line x1="164.16666666666669" y1="55" x2="164.16666666666669" y2="365" class="grid"/>
<text x="164.16666666666669" y="381" text-anchor="middle" class="lbl">1.8</text>
<line x1="258.33333333333337" y1="55" x2="258.33333333333337" y2="365" class="grid"/>
<text x="258.33333333333337" y="381" text-anchor="middle" class="lbl">3.5</text>
<line x1="352.5" y1="55" x2="352.5" y2="365" class="grid"/>
<text x="352.5" y="381" text-anchor="middle" class="lbl">5.3</text>
<line x1="446.6666666666667" y1="55" x2="446.6666666666667" y2="365" class="grid"/>
<text x="446.6666666666667" y="381" text-anchor="middle" class="lbl">7.1</text>
<line x1="540.8333333333333" y1="55" x2="540.8333333333333" y2="365" class="grid"/>
<text x="540.8333333333333" y="381" text-anchor="middle" class="lbl">8.8</text>
<line x1="635.0" y1="55" x2="635.0" y2="365" class="grid"/>
<text x="635.0" y="381" text-anchor="middle" class="lbl">10.6</text>
<text x="352.5" y="408" text-anchor="middle" class="lbl">radius (kpc)</text>
<text x="16" y="210.0" text-anchor="middle" class="lbl-l" transform="rotate(-90, 16, 210.0)">velocity (km/s)</text>
<text x="704" y="210.0" text-anchor="middle" class="lbl-r" transform="rotate(-90, 704, 210.0)">mass profile (normalized to peak)</text>
<rect x="70" y="55" width="565" height="310" class="ax"/>
<path d="M 70.0,158.3 L 72.6,170.7 L 75.2,183.1 L 77.7,195.5 L 80.3,207.8 L 82.9,220.2 L 85.5,232.6 L 88.1,245.0 L 90.6,257.4 L 93.2,269.7 L 95.8,282.1 L 98.4,286.2 L 101.0,287.1 L 103.5,288.0 L 106.1,288.9 L 108.7,289.8 L 111.3,290.7 L 113.9,291.6 L 116.4,292.5 L 119.0,293.3 L 121.6,294.2 L 124.2,295.1 L 126.8,296.0 L 129.3,296.9 L 131.9,297.8 L 134.5,298.7 L 137.1,299.6 L 139.7,300.5 L 142.2,301.4 L 144.8,302.3 L 147.4,303.2 L 150.0,304.1 L 152.6,304.7 L 155.1,305.3 L 157.7,305.8 L 160.3,306.3 L 162.9,306.9 L 165.5,307.4 L 168.0,308.0 L 170.6,308.5 L 173.2,309.1 L 175.8,309.6 L 178.4,310.2 L 180.9,310.7 L 183.5,311.3 L 186.1,311.8 L 188.7,312.3 L 191.3,312.9 L 193.8,313.4 L 196.4,314.0 L 199.0,314.5 L 201.6,315.1 L 204.2,315.6 L 206.7,316.2 L 209.3,316.7 L 211.9,317.3 L 214.5,317.8 L 217.1,318.3 L 219.6,318.9 L 222.2,319.4 L 224.8,320.0 L 227.4,320.5 L 230.0,321.1 L 232.5,321.6 L 235.1,321.8 L 237.7,322.0 L 240.3,322.1 L 242.9,322.3 L 245.4,322.5 L 248.0,322.7 L 250.6,322.9 L 253.2,323.0 L 255.8,323.2 L 258.3,323.4 L 260.9,323.6 L 263.5,323.8 L 266.1,323.9 L 268.7,324.1 L 271.2,324.3 L 273.8,324.5 L 276.4,324.7 L 279.0,324.8 L 281.6,325.0 L 284.1,325.2 L 286.7,325.4 L 289.3,325.6 L 291.9,325.7 L 294.5,325.9 L 297.0,326.1 L 299.6,326.3 L 302.2,326.5 L 304.8,326.6 L 307.4,326.8 L 309.9,327.0 L 312.5,327.2 L 315.1,327.4 L 317.7,327.5 L 320.3,327.7 L 322.8,327.9 L 325.4,328.1 L 328.0,328.3 L 330.6,328.4 L 333.2,328.6 L 335.7,328.8 L 338.3,329.0 L 340.9,329.2 L 343.5,329.3 L 346.1,329.5 L 348.6,329.7 L 351.2,329.9 L 353.8,330.1 L 356.4,330.2 L 358.9,330.4 L 361.5,330.6 L 364.1,330.8 L 366.7,331.0 L 369.3,331.1 L 371.8,331.3 L 374.4,331.5 L 377.0,331.7 L 379.6,331.9 L 382.2,332.0 L 384.7,332.2 L 387.3,332.4 L 389.9,332.6 L 392.5,332.8 L 395.1,332.9 L 397.6,333.1 L 400.2,333.3 L 402.8,333.5 L 405.4,333.7 L 408.0,333.9 L 410.5,334.0 L 413.1,334.2 L 415.7,334.4 L 418.3,334.6 L 420.9,334.8 L 423.4,334.9 L 426.0,335.1 L 428.6,335.3 L 431.2,335.5 L 433.8,335.7 L 436.3,335.8 L 438.9,336.0 L 441.5,336.2 L 444.1,336.4 L 446.7,336.6 L 449.2,336.7 L 451.8,336.9 L 454.4,337.1 L 457.0,337.3 L 459.6,337.5 L 462.1,337.6 L 464.7,337.8 L 467.3,338.0 L 469.9,338.2 L 472.5,338.4 L 475.0,338.5 L 477.6,338.7 L 480.2,338.9 L 482.8,339.1 L 485.4,339.3 L 487.9,339.4 L 490.5,339.6 L 493.1,339.8 L 495.7,340.0 L 498.3,340.2 L 500.8,340.3 L 503.4,340.5 L 506.0,340.7 L 508.6,340.9 L 511.2,341.1 L 513.7,341.2 L 516.3,341.4 L 518.9,341.6 L 521.5,341.8 L 524.1,342.0 L 526.6,342.1 L 529.2,342.3 L 531.8,342.5 L 534.4,342.7 L 537.0,342.9 L 539.5,343.0 L 542.1,343.2 L 544.7,343.4 L 547.3,343.6 L 549.9,343.8 L 552.4,343.9 L 555.0,344.1 L 557.6,344.3 L 560.2,344.5 L 562.8,344.7 L 565.3,344.8 L 567.9,345.0 L 570.5,345.2 L 573.1,345.4 L 575.7,345.6 L 578.2,345.7 L 580.8,345.9 L 583.4,346.1 L 586.0,346.3 L 588.6,346.5 L 591.1,346.6 L 593.7,346.8 L 596.3,347.0 L 598.9,347.2 L 601.5,347.4 L 604.0,354.1 L 606.6,361.1 L 609.2,365.0 L 611.8,365.0 L 614.4,365.0 L 616.9,365.0 L 619.5,365.0 L 622.1,365.0 L 624.7,365.0 L 627.3,365.0 L 629.8,365.0 L 632.4,365.0 L 635.0,365.0" class="rho"/>
<path d="M 70.0,158.3 L 72.6,158.8 L 75.2,159.6 L 77.7,160.7 L 80.3,162.1 L 82.9,163.8 L 85.5,165.8 L 88.1,168.0 L 90.6,170.3 L 93.2,172.7 L 95.8,175.2 L 98.4,177.7 L 101.0,180.1 L 103.5,182.6 L 106.1,184.9 L 108.7,187.3 L 111.3,189.5 L 113.9,191.7 L 116.4,193.9 L 119.0,196.0 L 121.6,198.1 L 124.2,200.1 L 126.8,202.1 L 129.3,204.0 L 131.9,205.9 L 134.5,207.8 L 137.1,209.6 L 139.7,211.4 L 142.2,213.2 L 144.8,215.0 L 147.4,216.7 L 150.0,218.4 L 152.6,220.1 L 155.1,221.7 L 157.7,223.4 L 160.3,225.0 L 162.9,226.6 L 165.5,228.2 L 168.0,229.7 L 170.6,231.2 L 173.2,232.8 L 175.8,234.2 L 178.4,235.7 L 180.9,237.2 L 183.5,238.6 L 186.1,240.1 L 188.7,241.5 L 191.3,242.9 L 193.8,244.3 L 196.4,245.6 L 199.0,247.0 L 201.6,248.3 L 204.2,249.6 L 206.7,250.9 L 209.3,252.2 L 211.9,253.4 L 214.5,254.7 L 217.1,255.9 L 219.6,257.1 L 222.2,258.3 L 224.8,259.5 L 227.4,260.6 L 230.0,261.8 L 232.5,262.9 L 235.1,264.0 L 237.7,265.0 L 240.3,266.1 L 242.9,267.1 L 245.4,268.1 L 248.0,269.1 L 250.6,270.1 L 253.2,271.1 L 255.8,272.0 L 258.3,273.0 L 260.9,273.9 L 263.5,274.8 L 266.1,275.7 L 268.7,276.6 L 271.2,277.5 L 273.8,278.4 L 276.4,279.2 L 279.0,280.1 L 281.6,280.9 L 284.1,281.7 L 286.7,282.5 L 289.3,283.3 L 291.9,284.1 L 294.5,284.9 L 297.0,285.7 L 299.6,286.5 L 302.2,287.3 L 304.8,288.0 L 307.4,288.8 L 309.9,289.5 L 312.5,290.3 L 315.1,291.0 L 317.7,291.7 L 320.3,292.4 L 322.8,293.1 L 325.4,293.8 L 328.0,294.5 L 330.6,295.2 L 333.2,295.9 L 335.7,296.6 L 338.3,297.3 L 340.9,298.0 L 343.5,298.6 L 346.1,299.3 L 348.6,299.9 L 351.2,300.6 L 353.8,301.2 L 356.4,301.9 L 358.9,302.5 L 361.5,303.1 L 364.1,303.8 L 366.7,304.4 L 369.3,305.0 L 371.8,305.6 L 374.4,306.2 L 377.0,306.8 L 379.6,307.4 L 382.2,308.0 L 384.7,308.6 L 387.3,309.2 L 389.9,309.8 L 392.5,310.4 L 395.1,310.9 L 397.6,311.5 L 400.2,312.1 L 402.8,312.6 L 405.4,313.2 L 408.0,313.7 L 410.5,314.3 L 413.1,314.8 L 415.7,315.4 L 418.3,315.9 L 420.9,316.4 L 423.4,317.0 L 426.0,317.5 L 428.6,318.0 L 431.2,318.5 L 433.8,319.0 L 436.3,319.5 L 438.9,320.0 L 441.5,320.5 L 444.1,321.0 L 446.7,321.5 L 449.2,322.0 L 451.8,322.5 L 454.4,323.0 L 457.0,323.5 L 459.6,323.9 L 462.1,324.4 L 464.7,324.9 L 467.3,325.3 L 469.9,325.8 L 472.5,326.3 L 475.0,326.7 L 477.6,327.2 L 480.2,327.6 L 482.8,328.1 L 485.4,328.5 L 487.9,328.9 L 490.5,329.4 L 493.1,329.8 L 495.7,330.2 L 498.3,330.6 L 500.8,331.1 L 503.4,331.5 L 506.0,331.9 L 508.6,332.3 L 511.2,332.7 L 513.7,333.1 L 516.3,333.5 L 518.9,333.9 L 521.5,334.3 L 524.1,334.7 L 526.6,335.1 L 529.2,335.5 L 531.8,335.9 L 534.4,336.2 L 537.0,336.6 L 539.5,337.0 L 542.1,337.4 L 544.7,337.7 L 547.3,338.1 L 549.9,338.5 L 552.4,338.8 L 555.0,339.2 L 557.6,339.6 L 560.2,339.9 L 562.8,340.3 L 565.3,340.6 L 567.9,341.0 L 570.5,341.3 L 573.1,341.7 L 575.7,342.0 L 578.2,342.4 L 580.8,342.7 L 583.4,343.1 L 586.0,343.4 L 588.6,343.8 L 591.1,344.1 L 593.7,344.5 L 596.3,344.8 L 598.9,345.2 L 601.5,345.5 L 604.0,345.8 L 606.6,346.1 L 609.2,346.5 L 611.8,346.8 L 614.4,347.1 L 616.9,347.4 L 619.5,347.7 L 622.1,347.9 L 624.7,348.2 L 627.3,348.5 L 629.8,348.7 L 632.4,349.0 L 635.0,349.2" class="sig"/>
<path d="M 75.7,293.1 L 81.3,268.3 L 87.0,253.0 L 92.6,243.6 L 98.2,238.5 L 103.9,233.7 L 109.5,228.4 L 115.2,223.2 L 120.9,218.0 L 126.5,213.0 L 132.2,208.3 L 137.8,203.8 L 143.4,199.6 L 149.1,195.6 L 154.8,191.8 L 160.4,188.2 L 166.1,184.7 L 171.7,181.3 L 177.3,178.1 L 183.0,175.0 L 188.6,172.1 L 194.3,169.2 L 200.0,166.6 L 205.6,164.0 L 211.2,161.5 L 216.9,159.2 L 222.5,157.0 L 228.2,154.9 L 233.8,153.0 L 239.5,151.0 L 245.2,149.1 L 250.8,147.2 L 256.4,145.3 L 262.1,143.4 L 267.8,141.6 L 273.4,139.8 L 279.1,138.0 L 284.7,136.2 L 290.4,134.5 L 296.0,132.8 L 301.6,131.1 L 307.3,129.4 L 312.9,127.8 L 318.6,126.2 L 324.2,124.6 L 329.9,123.1 L 335.6,121.6 L 341.2,120.1 L 346.9,118.7 L 352.5,117.3 L 358.1,115.9 L 363.8,114.5 L 369.4,113.2 L 375.1,111.9 L 380.8,110.7 L 386.4,109.4 L 392.1,108.2 L 397.7,107.0 L 403.3,105.9 L 409.0,104.8 L 414.6,103.7 L 420.3,102.6 L 425.9,101.6 L 431.6,100.6 L 437.2,99.6 L 442.9,98.7 L 448.6,97.7 L 454.2,96.8 L 459.8,96.0 L 465.5,95.1 L 471.1,94.3 L 476.8,93.5 L 482.4,92.8 L 488.1,92.0 L 493.8,91.3 L 499.4,90.6 L 505.1,90.0 L 510.7,89.3 L 516.4,88.7 L 522.0,88.2 L 527.6,87.6 L 533.3,87.1 L 539.0,86.6 L 544.6,86.1 L 550.2,85.7 L 555.9,85.2 L 561.5,84.8 L 567.2,84.5 L 572.8,84.1 L 578.5,83.8 L 584.1,83.5 L 589.8,83.2 L 595.5,82.9 L 601.1,82.7 L 606.8,83.1 L 612.4,84.5 L 618.1,86.0 L 623.7,87.5 L 629.4,88.9 L 635.0,90.3" class="nt"/>
<path d="M 74.7,324.8 L 79.4,296.7 L 84.1,268.3 L 88.8,244.3 L 93.5,224.9 L 98.2,210.5 L 103.0,199.6 L 107.7,191.4 L 112.4,184.8 L 117.1,179.2 L 121.8,174.1 L 126.5,169.3 L 131.2,164.7 L 135.9,160.4 L 140.6,156.3 L 145.3,152.4 L 150.0,148.7 L 154.8,145.3 L 159.5,142.0 L 164.2,138.9 L 168.9,135.9 L 173.6,133.1 L 178.3,130.4 L 183.0,127.9 L 187.7,125.5 L 192.4,123.4 L 197.1,121.5 L 201.8,119.9 L 206.5,118.6 L 211.2,117.5 L 216.0,116.8 L 220.7,116.4 L 225.4,116.3 L 230.1,116.4 L 234.8,116.7 L 239.5,117.1 L 244.2,117.6 L 248.9,118.0 L 253.6,118.3 L 258.3,118.6 L 263.0,118.8 L 267.8,118.9 L 272.5,118.8 L 277.2,118.8 L 281.9,118.7 L 286.6,118.5 L 291.3,118.3 L 296.0,118.0 L 300.7,117.7 L 305.4,117.4 L 310.1,117.1 L 314.8,116.8 L 319.5,116.4 L 324.2,116.1 L 329.0,115.7 L 333.7,115.4 L 338.4,115.0 L 343.1,114.7 L 347.8,114.4 L 352.5,114.1 L 357.2,113.8 L 361.9,113.5 L 366.6,113.2 L 371.3,113.0 L 376.0,112.7 L 380.7,112.5 L 385.5,112.3 L 390.2,112.2 L 394.9,112.0 L 399.6,111.9 L 404.3,111.8 L 409.0,111.8 L 413.7,111.7 L 418.4,111.7 L 423.1,111.8 L 427.8,111.8 L 432.5,111.9 L 437.2,112.0 L 442.0,112.1 L 446.7,112.2 L 451.4,112.4 L 456.1,112.6 L 460.8,112.9 L 465.5,113.1 L 470.2,113.4 L 474.9,113.7 L 479.6,114.0 L 484.3,114.3 L 489.0,114.7 L 493.8,115.0 L 498.5,115.4 L 503.2,115.8 L 507.9,116.2 L 512.6,116.6 L 517.3,117.0 L 522.0,117.4 L 526.7,117.7 L 531.4,118.1 L 536.1,118.4 L 540.8,118.6 L 545.5,118.8 L 550.2,118.9 L 555.0,118.9 L 559.7,118.8 L 564.4,118.6 L 569.1,118.3 L 573.8,117.8 L 578.5,117.2 L 583.2,116.7 L 587.9,116.3 L 592.6,116.3 L 597.3,117.1 L 602.0,118.7 L 606.8,121.5 L 611.5,125.4 L 616.2,130.1 L 620.9,135.4 L 625.6,140.9 L 630.3,146.4 L 635.0,151.7" class="fw"/>
<line x1="88.10047117234345" y1="230.85298349379502" x2="88.10047117234345" y2="254.15270064643784" class="err"/>
<line x1="85.10047117234345" y1="230.85298349379502" x2="91.10047117234345" y2="230.85298349379502" class="err"/>
<line x1="85.10047117234345" y1="254.15270064643784" x2="91.10047117234345" y2="254.15270064643784" class="err"/>
<circle cx="88.10047117234345" cy="242.50284207011643" r="2.5" class="obs"/>
<line x1="106.20094234468691" y1="195.1772648183392" x2="106.20094234468691" y2="218.47698197098202" class="err"/>
<line x1="103.20094234468691" y1="195.1772648183392" x2="109.20094234468691" y2="195.1772648183392" class="err"/>
<line x1="103.20094234468691" y1="218.47698197098202" x2="109.20094234468691" y2="218.47698197098202" class="err"/>
<circle cx="106.20094234468691" cy="206.82712339466062" r="2.5" class="obs"/>
<line x1="124.30141351703035" y1="163.2901180376221" x2="124.30141351703035" y2="186.58983519026486" class="err"/>
<line x1="121.30141351703035" y1="163.2901180376221" x2="127.30141351703035" y2="163.2901180376221" class="err"/>
<line x1="121.30141351703035" y1="186.58983519026486" x2="127.30141351703035" y2="186.58983519026486" class="err"/>
<circle cx="124.30141351703035" cy="174.9399766139435" r="2.5" class="obs"/>
<line x1="142.40188468937382" y1="138.03297207269765" x2="142.40188468937382" y2="161.33268922534046" class="err"/>
<line x1="139.40188468937382" y1="138.03297207269765" x2="145.40188468937382" y2="138.03297207269765" class="err"/>
<line x1="139.40188468937382" y1="161.33268922534046" x2="145.40188468937382" y2="161.33268922534046" class="err"/>
<circle cx="142.40188468937382" cy="149.68283064901902" r="2.5" class="obs"/>
<line x1="159.96998906253066" y1="123.51011314286609" x2="159.96998906253066" y2="146.8098302955089" class="err"/>
<line x1="156.96998906253066" y1="123.51011314286609" x2="162.96998906253066" y2="123.51011314286609" class="err"/>
<line x1="156.96998906253066" y1="146.8098302955089" x2="162.96998906253066" y2="146.8098302955089" class="err"/>
<circle cx="159.96998906253066" cy="135.15997171918752" r="2.5" class="obs"/>
<line x1="178.07046023487413" y1="115.6172550288272" x2="178.07046023487413" y2="138.91697218147002" class="err"/>
<line x1="175.07046023487413" y1="115.6172550288272" x2="181.07046023487413" y2="115.6172550288272" class="err"/>
<line x1="175.07046023487413" y1="138.91697218147002" x2="181.07046023487413" y2="138.91697218147002" class="err"/>
<circle cx="178.07046023487413" cy="127.26711360514862" r="2.5" class="obs"/>
<line x1="196.17093140721758" y1="111.51296880952698" x2="196.17093140721758" y2="134.81268596216978" class="err"/>
<line x1="193.17093140721758" y1="111.51296880952698" x2="199.17093140721758" y2="111.51296880952698" class="err"/>
<line x1="193.17093140721758" y1="134.81268596216978" x2="199.17093140721758" y2="134.81268596216978" class="err"/>
<circle cx="196.17093140721758" cy="123.1628273858484" r="2.5" class="obs"/>
<line x1="213.73903578037448" y1="108.35582556391145" x2="213.73903578037448" y2="131.65554271655424" class="err"/>
<line x1="210.73903578037448" y1="108.35582556391145" x2="216.73903578037448" y2="108.35582556391145" class="err"/>
<line x1="210.73903578037448" y1="131.65554271655424" x2="216.73903578037448" y2="131.65554271655424" class="err"/>
<circle cx="213.73903578037448" cy="120.00568414023283" r="2.5" class="obs"/>
<line x1="232.37187375190447" y1="105.51439664285742" x2="232.37187375190447" y2="128.8141137955002" class="err"/>
<line x1="229.37187375190447" y1="105.51439664285742" x2="235.37187375190447" y2="105.51439664285742" class="err"/>
<line x1="229.37187375190447" y1="128.8141137955002" x2="235.37187375190447" y2="128.8141137955002" class="err"/>
<circle cx="232.37187375190447" cy="117.16425521917881" r="2.5" class="obs"/>
<line x1="249.93997812506134" y1="106.46153961654207" x2="249.93997812506134" y2="129.76125676918488" class="err"/>
<line x1="246.93997812506134" y1="106.46153961654207" x2="252.93997812506134" y2="106.46153961654207" class="err"/>
<line x1="246.93997812506134" y1="129.76125676918488" x2="252.93997812506134" y2="129.76125676918488" class="err"/>
<circle cx="249.93997812506134" cy="118.11139819286346" r="2.5" class="obs"/>
<line x1="268.0404492974048" y1="104.56725366917277" x2="268.0404492974048" y2="127.86697082181556" class="err"/>
<line x1="265.0404492974048" y1="104.56725366917277" x2="271.0404492974048" y2="104.56725366917277" class="err"/>
<line x1="265.0404492974048" y1="127.86697082181556" x2="271.0404492974048" y2="127.86697082181556" class="err"/>
<circle cx="268.0404492974048" cy="116.21711224549416" r="2.5" class="obs"/>
<line x1="286.14092046974827" y1="103.30439637092654" x2="286.14092046974827" y2="126.60411352356931" class="err"/>
<line x1="283.14092046974827" y1="103.30439637092654" x2="289.14092046974827" y2="103.30439637092654" class="err"/>
<line x1="283.14092046974827" y1="126.60411352356931" x2="289.14092046974827" y2="126.60411352356931" class="err"/>
<circle cx="286.14092046974827" cy="114.95425494724793" r="2.5" class="obs"/>
<line x1="303.70902484290514" y1="103.30439637092654" x2="303.70902484290514" y2="126.60411352356931" class="err"/>
<line x1="300.70902484290514" y1="103.30439637092654" x2="306.70902484290514" y2="103.30439637092654" class="err"/>
<line x1="300.70902484290514" y1="126.60411352356931" x2="306.70902484290514" y2="126.60411352356931" class="err"/>
<circle cx="303.70902484290514" cy="114.95425494724793" r="2.5" class="obs"/>
<line x1="322.34186281443516" y1="103.30439637092654" x2="322.34186281443516" y2="126.60411352356931" class="err"/>
<line x1="319.34186281443516" y1="103.30439637092654" x2="325.34186281443516" y2="103.30439637092654" class="err"/>
<line x1="319.34186281443516" y1="126.60411352356931" x2="325.34186281443516" y2="126.60411352356931" class="err"/>
<circle cx="322.34186281443516" cy="114.95425494724793" r="2.5" class="obs"/>
<line x1="340.4423339867786" y1="104.56725366917277" x2="340.4423339867786" y2="127.86697082181556" class="err"/>
<line x1="337.4423339867786" y1="104.56725366917277" x2="343.4423339867786" y2="104.56725366917277" class="err"/>
<line x1="337.4423339867786" y1="127.86697082181556" x2="343.4423339867786" y2="127.86697082181556" class="err"/>
<circle cx="340.4423339867786" cy="116.21711224549416" r="2.5" class="obs"/>
<line x1="358.0104383599355" y1="105.51439664285742" x2="358.0104383599355" y2="128.8141137955002" class="err"/>
<line x1="355.0104383599355" y1="105.51439664285742" x2="361.0104383599355" y2="105.51439664285742" class="err"/>
<line x1="355.0104383599355" y1="128.8141137955002" x2="361.0104383599355" y2="128.8141137955002" class="err"/>
<circle cx="358.0104383599355" cy="117.16425521917881" r="2.5" class="obs"/>
<line x1="376.1109095322789" y1="100.46296744987255" x2="376.1109095322789" y2="123.76268460251534" class="err"/>
<line x1="373.1109095322789" y1="100.46296744987255" x2="379.1109095322789" y2="100.46296744987255" class="err"/>
<line x1="373.1109095322789" y1="123.76268460251534" x2="379.1109095322789" y2="123.76268460251534" class="err"/>
<circle cx="376.1109095322789" cy="112.11282602619394" r="2.5" class="obs"/>
<line x1="394.21138070462234" y1="100.46296744987255" x2="394.21138070462234" y2="123.76268460251534" class="err"/>
<line x1="391.21138070462234" y1="100.46296744987255" x2="397.21138070462234" y2="100.46296744987255" class="err"/>
<line x1="391.21138070462234" y1="123.76268460251534" x2="397.21138070462234" y2="123.76268460251534" class="err"/>
<circle cx="394.21138070462234" cy="112.11282602619394" r="2.5" class="obs"/>
<line x1="411.77948507777927" y1="100.46296744987255" x2="411.77948507777927" y2="123.76268460251534" class="err"/>
<line x1="408.77948507777927" y1="100.46296744987255" x2="414.77948507777927" y2="100.46296744987255" class="err"/>
<line x1="408.77948507777927" y1="123.76268460251534" x2="414.77948507777927" y2="123.76268460251534" class="err"/>
<circle cx="411.77948507777927" cy="112.11282602619394" r="2.5" class="obs"/>
<line x1="430.41232304930924" y1="100.46296744987255" x2="430.41232304930924" y2="123.76268460251534" class="err"/>
<line x1="427.41232304930924" y1="100.46296744987255" x2="433.41232304930924" y2="100.46296744987255" class="err"/>
<line x1="427.41232304930924" y1="123.76268460251534" x2="433.41232304930924" y2="123.76268460251534" class="err"/>
<circle cx="430.41232304930924" cy="112.11282602619394" r="2.5" class="obs"/>
<line x1="448.51279422165277" y1="101.4101104235572" x2="448.51279422165277" y2="124.70982757620001" class="err"/>
<line x1="445.51279422165277" y1="101.4101104235572" x2="451.51279422165277" y2="101.4101104235572" class="err"/>
<line x1="445.51279422165277" y1="124.70982757620001" x2="451.51279422165277" y2="124.70982757620001" class="err"/>
<circle cx="448.51279422165277" cy="113.05996899987859" r="2.5" class="obs"/>
<line x1="466.0808985948096" y1="101.4101104235572" x2="466.0808985948096" y2="124.70982757620001" class="err"/>
<line x1="463.0808985948096" y1="101.4101104235572" x2="469.0808985948096" y2="101.4101104235572" class="err"/>
<line x1="463.0808985948096" y1="124.70982757620001" x2="469.0808985948096" y2="124.70982757620001" class="err"/>
<circle cx="466.0808985948096" cy="113.05996899987859" r="2.5" class="obs"/>
<line x1="484.18136976715306" y1="102.35725339724185" x2="484.18136976715306" y2="125.65697054988466" class="err"/>
<line x1="481.18136976715306" y1="102.35725339724185" x2="487.18136976715306" y2="102.35725339724185" class="err"/>
<line x1="481.18136976715306" y1="125.65697054988466" x2="487.18136976715306" y2="125.65697054988466" class="err"/>
<circle cx="484.18136976715306" cy="114.00711197356327" r="2.5" class="obs"/>
<line x1="502.2818409394965" y1="102.35725339724185" x2="502.2818409394965" y2="125.65697054988466" class="err"/>
<line x1="499.2818409394965" y1="102.35725339724185" x2="505.2818409394965" y2="102.35725339724185" class="err"/>
<line x1="499.2818409394965" y1="125.65697054988466" x2="505.2818409394965" y2="125.65697054988466" class="err"/>
<circle cx="502.2818409394965" cy="114.00711197356327" r="2.5" class="obs"/>
<line x1="520.3823121118401" y1="104.56725366917277" x2="520.3823121118401" y2="127.86697082181556" class="err"/>
<line x1="517.3823121118401" y1="104.56725366917277" x2="523.3823121118401" y2="104.56725366917277" class="err"/>
<line x1="517.3823121118401" y1="127.86697082181556" x2="523.3823121118401" y2="127.86697082181556" class="err"/>
<circle cx="520.3823121118401" cy="116.21711224549416" r="2.5" class="obs"/>
<line x1="538.4827832841835" y1="107.40868259022673" x2="538.4827832841835" y2="130.70839974286952" class="err"/>
<line x1="535.4827832841835" y1="107.40868259022673" x2="541.4827832841835" y2="107.40868259022673" class="err"/>
<line x1="535.4827832841835" y1="130.70839974286952" x2="541.4827832841835" y2="130.70839974286952" class="err"/>
<circle cx="538.4827832841835" cy="119.05854116654815" r="2.5" class="obs"/>
<line x1="556.0508876573404" y1="109.61868286215764" x2="556.0508876573404" y2="132.91840001480043" class="err"/>
<line x1="553.0508876573404" y1="109.61868286215764" x2="559.0508876573404" y2="109.61868286215764" class="err"/>
<line x1="553.0508876573404" y1="132.91840001480043" x2="559.0508876573404" y2="132.91840001480043" class="err"/>
<circle cx="556.0508876573404" cy="121.26854143847903" r="2.5" class="obs"/>
<line x1="574.1513588296838" y1="108.35582556391145" x2="574.1513588296838" y2="131.65554271655424" class="err"/>
<line x1="571.1513588296838" y1="108.35582556391145" x2="577.1513588296838" y2="108.35582556391145" class="err"/>
<line x1="571.1513588296838" y1="131.65554271655424" x2="577.1513588296838" y2="131.65554271655424" class="err"/>
<circle cx="574.1513588296838" cy="120.00568414023283" r="2.5" class="obs"/>
<line x1="590.1223628052809" y1="111.51296880952698" x2="590.1223628052809" y2="134.81268596216978" class="err"/>
<line x1="587.1223628052809" y1="111.51296880952698" x2="593.1223628052809" y2="111.51296880952698" class="err"/>
<line x1="587.1223628052809" y1="134.81268596216978" x2="593.1223628052809" y2="134.81268596216978" class="err"/>
<circle cx="590.1223628052809" cy="123.1628273858484" r="2.5" class="obs"/>
<line x1="610.3523011743706" y1="108.35582556391145" x2="610.3523011743706" y2="131.65554271655424" class="err"/>
<line x1="607.3523011743706" y1="108.35582556391145" x2="613.3523011743706" y2="108.35582556391145" class="err"/>
<line x1="607.3523011743706" y1="131.65554271655424" x2="613.3523011743706" y2="131.65554271655424" class="err"/>
<circle cx="610.3523011743706" cy="120.00568414023283" r="2.5" class="obs"/>
<g class="legend">
<line x1="82" y1="69" x2="106" y2="69" class="fw"/>
<text x="112" y="73" class="lbl-l">framework fit</text>
<line x1="82" y1="87" x2="106" y2="87" class="nt"/>
<text x="112" y="91" class="lbl-l">Newtonian (no halo)</text>
<circle cx="94" cy="105" r="2.5" class="obs"/>
<text x="112" y="109" class="lbl">observed V±err</text>
</g>
<g class="legend">
<line x1="460" y1="69" x2="484" y2="69" class="rho"/>
<text x="490" y="73" class="lbl-r">ρ(r) raw</text>
<line x1="460" y1="87" x2="484" y2="87" class="sig"/>
<text x="490" y="91" class="lbl-r">Σ(r) smoothed</text>
<text x="460" y="113" class="lbl-r">ρ peak: 396 M☉/pc²</text>
</g>
</svg>