<svg xmlns="http://www.w3.org/2000/svg" viewBox="0 0 960 450" width="960" height="450" font-family="sans-serif" font-size="12">
<style>
  .ax { stroke: #333; stroke-width: 1; fill: none; }
  .grid { stroke: #ddd; stroke-width: 0.5; fill: none; }
  .lbl { fill: #333; }
  .lbl-l { fill: #0066cc; }
  .lbl-r { fill: #b03030; }
  .obs { fill: #222; }
  .err { stroke: #555; stroke-width: 0.8; fill: none; }
  .fw { stroke: #0066cc; stroke-width: 2.2; fill: none; }
  .nt { stroke: #cc6600; stroke-width: 1.6; fill: none; stroke-dasharray: 5,3; }
  .mond { stroke: #7b2cbf; stroke-width: 1.8; fill: none; stroke-dasharray: 7,3; }
  .lbl-p { fill: #cc7000; }
  .lbl-m { fill: #7b2cbf; }
  .rho { stroke: #b03030; stroke-width: 2.0; fill: none; }
  .phot { stroke: #cc7000; stroke-width: 1.8; fill: none; }
  .mbar { stroke: #8e44ad; stroke-width: 1.8; fill: none; opacity: 0.9; }
  .mph { stroke: #c77dff; stroke-width: 1.6; fill: none; stroke-dasharray: 4,3; opacity: 0.95; }
  .title { fill: #111; font-size: 16px; font-weight: 600; }
  .subtitle { fill: #555; font-size: 11px; }
  .preview-bg { fill: #000; }
  .preview-lbl { fill: #888; font-size: 10px; }
  .legend { font-size: 11px; }
</style>
<text x="378.5" y="22" text-anchor="middle" class="title">UGC03205</text>
<text x="378.5" y="38" text-anchor="middle" class="subtitle">rMax=40.0 kpc, N=48, FW=17.1 km/s, 13.1%, 3.00σ, MOND=21.7 km/s, 10.1%, 3.51σ, amp=1351</text>
<line x1="70" y1="395.0" x2="687" y2="395.0" class="grid"/>
<text x="64" y="399.0" text-anchor="end" class="lbl-l">0</text>
<line x1="70" y1="327.0" x2="687" y2="327.0" class="grid"/>
<text x="64" y="331.0" text-anchor="end" class="lbl-l">57</text>
<line x1="70" y1="259.0" x2="687" y2="259.0" class="grid"/>
<text x="64" y="263.0" text-anchor="end" class="lbl-l">114</text>
<line x1="70" y1="191.0" x2="687" y2="191.0" class="grid"/>
<text x="64" y="195.0" text-anchor="end" class="lbl-l">171</text>
<line x1="70" y1="123.0" x2="687" y2="123.0" class="grid"/>
<text x="64" y="127.0" text-anchor="end" class="lbl-l">227</text>
<line x1="70" y1="55.0" x2="687" y2="55.0" class="grid"/>
<text x="64" y="59.0" text-anchor="end" class="lbl-l">284</text>
<text x="693" y="399.0" text-anchor="start" class="lbl-r">0.0</text>
<text x="693" y="353.7" text-anchor="start" class="lbl-r">0.2</text>
<text x="693" y="308.3" text-anchor="start" class="lbl-r">0.4</text>
<text x="693" y="263.0" text-anchor="start" class="lbl-r">0.6</text>
<text x="693" y="217.7" text-anchor="start" class="lbl-r">0.8</text>
<text x="693" y="172.3" text-anchor="start" class="lbl-r">1.0</text>
<line x1="70.0" y1="55" x2="70.0" y2="395" class="grid"/>
<text x="70.0" y="411" text-anchor="middle" class="lbl">0.0</text>
<line x1="172.8" y1="55" x2="172.8" y2="395" class="grid"/>
<text x="172.8" y="411" text-anchor="middle" class="lbl">7.0</text>
<line x1="275.7" y1="55" x2="275.7" y2="395" class="grid"/>
<text x="275.7" y="411" text-anchor="middle" class="lbl">14.0</text>
<line x1="378.5" y1="55" x2="378.5" y2="395" class="grid"/>
<text x="378.5" y="411" text-anchor="middle" class="lbl">21.0</text>
<line x1="481.3" y1="55" x2="481.3" y2="395" class="grid"/>
<text x="481.3" y="411" text-anchor="middle" class="lbl">28.0</text>
<line x1="584.2" y1="55" x2="584.2" y2="395" class="grid"/>
<text x="584.2" y="411" text-anchor="middle" class="lbl">35.0</text>
<line x1="687.0" y1="55" x2="687.0" y2="395" class="grid"/>
<text x="687.0" y="411" text-anchor="middle" class="lbl">42.0</text>
<text x="378.5" y="438" text-anchor="middle" class="lbl">radius (kpc)</text>
<text x="16" y="225" text-anchor="middle" class="lbl-l" transform="rotate(-90, 16, 225)">velocity (km/s)</text>
<text x="724" y="225" text-anchor="middle" class="lbl-r" transform="rotate(-90, 724, 225)">profiles (normalized to peak)</text>
<rect x="70" y="55" width="617" height="340" class="ax"/>
<path d="M 70.0,168.3 L 72.8,173.4 L 75.6,178.4 L 78.5,183.5 L 81.3,188.5 L 84.1,193.6 L 86.9,198.6 L 89.7,203.7 L 92.5,208.7 L 95.4,213.8 L 98.2,218.8 L 101.0,223.9 L 103.8,228.9 L 106.6,234.0 L 109.4,239.0 L 112.3,244.1 L 115.1,249.1 L 117.9,254.2 L 120.7,259.2 L 123.5,264.2 L 126.3,269.3 L 129.2,272.1 L 132.0,273.2 L 134.8,274.2 L 137.6,275.3 L 140.4,276.4 L 143.3,277.5 L 146.1,278.5 L 148.9,279.6 L 151.7,280.7 L 154.5,281.7 L 157.3,282.8 L 160.2,283.9 L 163.0,284.9 L 165.8,286.0 L 168.6,287.1 L 171.4,288.1 L 174.2,288.9 L 177.1,289.5 L 179.9,290.1 L 182.7,290.7 L 185.5,291.3 L 188.3,291.9 L 191.1,292.5 L 194.0,293.1 L 196.8,293.6 L 199.6,294.2 L 202.4,294.8 L 205.2,295.4 L 208.1,296.0 L 210.9,296.6 L 213.7,297.2 L 216.5,297.8 L 219.3,298.4 L 222.1,299.0 L 225.0,299.6 L 227.8,300.2 L 230.6,300.8 L 233.4,301.4 L 236.2,302.0 L 239.0,302.6 L 241.9,303.2 L 244.7,303.8 L 247.5,304.4 L 250.3,305.0 L 253.1,305.6 L 255.9,306.2 L 258.8,306.8 L 261.6,307.4 L 264.4,308.0 L 267.2,308.6 L 270.0,309.2 L 272.8,309.8 L 275.7,310.4 L 278.5,310.7 L 281.3,311.1 L 284.1,311.4 L 286.9,311.7 L 289.8,312.0 L 292.6,312.3 L 295.4,312.6 L 298.2,313.0 L 301.0,313.3 L 303.8,313.6 L 306.7,313.9 L 309.5,314.2 L 312.3,314.5 L 315.1,314.9 L 317.9,315.2 L 320.7,315.5 L 323.6,315.8 L 326.4,316.1 L 329.2,316.4 L 332.0,316.8 L 334.8,317.1 L 337.6,317.4 L 340.5,317.7 L 343.3,318.0 L 346.1,318.3 L 348.9,318.7 L 351.7,319.0 L 354.6,319.3 L 357.4,319.6 L 360.2,319.9 L 363.0,320.2 L 365.8,320.6 L 368.6,320.9 L 371.5,321.2 L 374.3,321.5 L 377.1,321.8 L 379.9,322.1 L 382.7,322.5 L 385.5,322.8 L 388.4,323.1 L 391.2,323.4 L 394.0,323.7 L 396.8,324.0 L 399.6,324.4 L 402.4,324.7 L 405.3,325.0 L 408.1,325.3 L 410.9,325.6 L 413.7,325.9 L 416.5,326.3 L 419.4,326.6 L 422.2,326.9 L 425.0,327.2 L 427.8,327.5 L 430.6,327.8 L 433.4,328.2 L 436.3,328.5 L 439.1,328.8 L 441.9,329.1 L 444.7,329.4 L 447.5,329.7 L 450.3,330.1 L 453.2,330.4 L 456.0,330.7 L 458.8,331.0 L 461.6,331.3 L 464.4,331.6 L 467.2,332.0 L 470.1,332.3 L 472.9,332.6 L 475.7,332.9 L 478.5,333.2 L 481.3,333.5 L 484.2,333.9 L 487.0,334.2 L 489.8,334.5 L 492.6,334.8 L 495.4,335.1 L 498.2,335.5 L 501.1,335.8 L 503.9,336.1 L 506.7,336.4 L 509.5,336.7 L 512.3,337.0 L 515.1,337.4 L 518.0,337.7 L 520.8,338.0 L 523.6,338.3 L 526.4,338.6 L 529.2,338.9 L 532.0,339.3 L 534.9,339.6 L 537.7,339.9 L 540.5,340.2 L 543.3,340.5 L 546.1,340.8 L 548.9,341.2 L 551.8,341.5 L 554.6,341.8 L 557.4,342.1 L 560.2,342.4 L 563.0,342.7 L 565.9,343.1 L 568.7,343.4 L 571.5,343.7 L 574.3,344.0 L 577.1,344.3 L 579.9,344.6 L 582.8,345.0 L 585.6,345.3 L 588.4,345.6 L 591.2,345.9 L 594.0,346.2 L 596.8,346.5 L 599.7,346.9 L 602.5,347.2 L 605.3,347.5 L 608.1,347.8 L 610.9,348.1 L 613.7,348.4 L 616.6,348.8 L 619.4,349.1 L 622.2,349.4 L 625.0,349.7 L 627.8,350.0 L 630.7,350.3 L 633.5,350.7 L 636.3,351.0 L 639.1,351.3 L 641.9,351.6 L 644.7,351.9 L 647.6,352.2 L 650.4,352.6 L 653.2,363.1 L 656.0,383.4 L 658.8,395.0 L 661.6,395.0 L 664.5,395.0 L 667.3,395.0 L 670.1,395.0 L 672.9,395.0 L 675.7,395.0 L 678.5,395.0 L 681.4,395.0 L 684.2,395.0 L 687.0,395.0" class="rho"/>
<path d="M 74.1,168.3 L 78.1,260.4 L 82.2,311.8 L 90.4,349.7 L 94.2,359.1 L 114.6,382.4 L 118.7,382.9 L 122.7,383.1 L 126.8,383.3 L 130.9,383.4 L 135.0,384.2 L 139.0,384.9 L 142.9,385.7 L 147.0,386.2 L 151.0,386.6 L 155.1,387.1 L 159.2,387.7 L 163.3,388.4 L 167.3,389.0 L 171.4,389.6 L 175.5,390.1 L 176.7,390.2 L 179.5,390.5 L 187.7,391.3 L 191.7,391.6 L 195.6,391.9 L 199.7,392.2 L 203.8,392.5 L 212.2,393.0 L 247.7,394.1 L 284.0,394.6 L 285.4,394.6 L 293.1,394.6 L 297.5,394.6 L 300.6,394.7 L 305.1,394.7 L 309.5,394.7 L 312.6,394.7 L 317.1,394.7 L 318.6,394.7 L 354.7,394.9 L 389.5,394.9 L 425.6,395.0 L 461.7,395.0 L 496.5,395.0 L 532.6,395.0 L 603.3,395.0 L 657.6,395.0" class="phot"/>
<path d="M 74.1,182.8 L 78.1,168.3 L 82.2,209.8 L 90.4,270.8 L 94.2,309.8 L 114.6,341.9 L 118.7,361.8 L 122.7,364.7 L 126.8,361.0 L 130.9,356.4 L 135.0,354.9 L 139.0,357.3 L 142.9,361.0 L 147.0,362.4 L 151.0,361.2 L 155.1,360.6 L 159.2,361.7 L 163.3,364.0 L 167.3,367.5 L 171.4,371.1 L 175.5,374.1 L 176.7,376.4 L 179.5,377.9 L 187.7,379.3 L 191.7,380.9 L 195.6,382.5 L 199.7,384.0 L 203.8,385.4 L 212.2,387.6 L 247.7,390.7 L 284.0,393.1 L 285.4,393.9 L 293.1,393.8 L 297.5,393.2 L 300.6,392.9 L 305.1,393.0 L 309.5,393.1 L 312.6,392.9 L 317.1,392.7 L 318.6,392.7 L 354.7,393.1 L 389.5,393.8 L 425.6,394.3 L 461.7,394.7 L 496.5,394.9 L 532.6,395.0 L 603.3,395.0 L 657.6,395.0" class="mbar"/>
<path d="M 74.1,201.5 L 78.1,206.2 L 82.2,193.0 L 90.4,174.6 L 94.2,168.3 L 114.6,171.8 L 118.7,179.0 L 122.7,183.7 L 126.8,184.7 L 130.9,184.2 L 135.0,184.3 L 139.0,186.2 L 142.9,189.0 L 147.0,190.6 L 151.0,190.4 L 155.1,190.5 L 159.2,191.7 L 163.3,194.0 L 167.3,197.6 L 171.4,201.6 L 175.5,205.3 L 176.7,208.5 L 179.5,211.0 L 187.7,214.4 L 191.7,218.4 L 195.6,222.2 L 199.7,225.9 L 203.8,230.0 L 212.2,238.6 L 247.7,255.4 L 284.0,274.1 L 285.4,284.9 L 293.1,287.6 L 297.5,287.2 L 300.6,287.1 L 305.1,288.7 L 309.5,289.9 L 312.6,290.1 L 317.1,290.1 L 318.6,291.7 L 354.7,297.9 L 389.5,307.3 L 425.6,317.2 L 461.7,326.4 L 496.5,334.5 L 532.6,341.5 L 603.3,348.5 L 657.6,354.3" class="mph"/>
<path d="M 76.2,336.6 L 82.3,313.8 L 88.5,297.3 L 94.7,284.3 L 100.8,273.5 L 107.0,264.5 L 113.2,257.0 L 119.4,250.6 L 125.5,245.2 L 131.7,240.6 L 137.9,236.1 L 144.0,231.7 L 150.2,227.4 L 156.4,223.2 L 162.6,219.3 L 168.7,215.5 L 174.9,211.8 L 181.1,208.2 L 187.2,204.7 L 193.4,201.3 L 199.6,198.0 L 205.7,194.8 L 211.9,191.7 L 218.1,188.7 L 224.3,185.7 L 230.4,182.8 L 236.6,180.1 L 242.8,177.4 L 248.9,174.7 L 255.1,172.2 L 261.3,169.8 L 267.4,167.4 L 273.6,165.1 L 279.8,162.8 L 285.9,160.6 L 292.1,158.5 L 298.3,156.3 L 304.5,154.2 L 310.6,152.2 L 316.8,150.1 L 323.0,148.1 L 329.1,146.2 L 335.3,144.2 L 341.5,142.3 L 347.7,140.5 L 353.8,138.7 L 360.0,136.9 L 366.2,135.1 L 372.3,133.4 L 378.5,131.7 L 384.7,130.0 L 390.8,128.4 L 397.0,126.8 L 403.2,125.2 L 409.4,123.7 L 415.5,122.2 L 421.7,120.7 L 427.9,119.3 L 434.0,117.9 L 440.2,116.5 L 446.4,115.1 L 452.5,113.8 L 458.7,112.5 L 464.9,111.2 L 471.1,110.0 L 477.2,108.8 L 483.4,107.6 L 489.6,106.5 L 495.7,105.3 L 501.9,104.2 L 508.1,103.2 L 514.2,102.1 L 520.4,101.1 L 526.6,100.1 L 532.8,99.1 L 538.9,98.2 L 545.1,97.3 L 551.3,96.4 L 557.4,95.5 L 563.6,94.7 L 569.8,93.9 L 575.9,93.1 L 582.1,92.3 L 588.3,91.6 L 594.4,90.9 L 600.6,90.2 L 606.8,89.5 L 613.0,88.9 L 619.1,88.3 L 625.3,87.7 L 631.5,87.1 L 637.6,86.6 L 643.8,86.0 L 650.0,85.5 L 656.1,85.6 L 662.3,87.2 L 668.5,88.7 L 674.7,90.3 L 680.8,92.0 L 687.0,93.4" class="nt"/>
<path d="M 74.1,298.2 L 78.1,244.2 L 82.2,222.6 L 90.4,204.1 L 94.2,197.0 L 114.6,184.5 L 118.7,183.6 L 122.7,181.8 L 126.8,179.0 L 130.9,174.4 L 135.0,169.6 L 139.0,165.5 L 142.9,162.1 L 147.0,159.0 L 151.0,155.3 L 155.1,151.3 L 159.2,147.7 L 163.3,144.2 L 167.3,141.7 L 171.4,139.6 L 175.5,137.9 L 176.7,137.6 L 179.5,136.9 L 187.7,134.9 L 191.7,134.2 L 195.6,133.6 L 199.7,133.2 L 203.8,132.9 L 212.2,132.9 L 247.7,136.4 L 284.0,140.4 L 285.4,140.6 L 293.1,141.3 L 297.5,141.5 L 300.6,141.5 L 305.1,141.6 L 309.5,141.7 L 312.6,141.7 L 317.1,141.7 L 318.6,141.7 L 354.7,141.9 L 389.5,141.8 L 425.6,143.0 L 461.7,144.4 L 496.5,146.4 L 532.6,148.6 L 603.3,152.6 L 657.6,155.9" class="mond"/>
<path d="M 75.1,339.9 L 80.3,301.5 L 85.4,262.4 L 90.6,227.5 L 95.7,197.2 L 100.8,171.9 L 106.0,150.9 L 111.1,134.8 L 116.3,123.5 L 121.4,116.9 L 126.6,114.8 L 131.7,115.5 L 136.8,117.3 L 142.0,119.0 L 147.1,120.1 L 152.3,120.5 L 157.4,120.8 L 162.6,121.0 L 167.7,121.5 L 172.8,122.1 L 178.0,122.8 L 183.1,123.3 L 188.3,123.3 L 193.4,123.1 L 198.5,122.5 L 203.7,121.8 L 208.8,120.9 L 214.0,120.0 L 219.1,119.0 L 224.3,118.1 L 229.4,117.3 L 234.5,116.5 L 239.7,115.9 L 244.8,115.6 L 250.0,115.5 L 255.1,115.7 L 260.2,116.3 L 265.4,117.3 L 270.5,118.9 L 275.7,120.8 L 280.8,122.8 L 285.9,124.6 L 291.1,126.2 L 296.2,127.4 L 301.4,128.2 L 306.5,128.9 L 311.7,129.3 L 316.8,129.5 L 321.9,129.7 L 327.1,129.7 L 332.2,129.6 L 337.4,129.5 L 342.5,129.3 L 347.7,129.1 L 352.8,128.8 L 357.9,128.6 L 363.1,128.3 L 368.2,128.0 L 373.4,127.7 L 378.5,127.4 L 383.6,127.1 L 388.8,126.8 L 393.9,126.5 L 399.1,126.3 L 404.2,126.1 L 409.4,125.9 L 414.5,125.7 L 419.6,125.5 L 424.8,125.4 L 429.9,125.2 L 435.1,125.2 L 440.2,125.1 L 445.3,125.1 L 450.5,125.1 L 455.6,125.1 L 460.8,125.1 L 465.9,125.2 L 471.1,125.3 L 476.2,125.4 L 481.3,125.6 L 486.5,125.8 L 491.6,126.0 L 496.8,126.2 L 501.9,126.4 L 507.0,126.7 L 512.2,127.0 L 517.3,127.3 L 522.5,127.6 L 527.6,127.9 L 532.8,128.2 L 537.9,128.5 L 543.0,128.8 L 548.2,129.1 L 553.3,129.4 L 558.5,129.6 L 563.6,129.8 L 568.7,130.0 L 573.9,130.0 L 579.0,129.9 L 584.2,129.7 L 589.3,129.3 L 594.4,128.6 L 599.6,127.6 L 604.7,126.2 L 609.9,124.3 L 615.0,121.5 L 620.2,118.0 L 625.3,113.2 L 630.4,107.3 L 635.6,100.7 L 640.7,94.2 L 645.9,89.5 L 651.0,88.9 L 656.1,92.9 L 661.3,102.1 L 666.4,114.9 L 671.6,129.3 L 676.7,143.4 L 681.9,156.6 L 687.0,168.0" class="fw"/>
<line x1="74.11" y1="230.86" x2="74.11" y2="303.12" class="err"/>
<line x1="71.11" y1="230.86" x2="77.11" y2="230.86" class="err"/>
<line x1="71.11" y1="303.12" x2="77.11" y2="303.12" class="err"/>
<circle cx="74.11" cy="266.99" r="2.5" class="obs"/>
<line x1="78.07" y1="231.58" x2="78.07" y2="268.91" class="err"/>
<line x1="75.07" y1="231.58" x2="81.07" y2="231.58" class="err"/>
<line x1="75.07" y1="268.91" x2="81.07" y2="268.91" class="err"/>
<circle cx="78.07" cy="250.24" r="2.5" class="obs"/>
<line x1="82.18" y1="224.30" x2="82.18" y2="245.09" class="err"/>
<line x1="79.18" y1="224.30" x2="85.18" y2="224.30" class="err"/>
<line x1="79.18" y1="245.09" x2="85.18" y2="245.09" class="err"/>
<circle cx="82.18" cy="234.69" r="2.5" class="obs"/>
<line x1="90.40" y1="192.22" x2="90.40" y2="222.13" class="err"/>
<line x1="87.40" y1="192.22" x2="93.40" y2="192.22" class="err"/>
<line x1="87.40" y1="222.13" x2="93.40" y2="222.13" class="err"/>
<circle cx="90.40" cy="207.18" r="2.5" class="obs"/>
<line x1="94.22" y1="180.02" x2="94.22" y2="208.01" class="err"/>
<line x1="91.22" y1="180.02" x2="97.22" y2="180.02" class="err"/>
<line x1="91.22" y1="208.01" x2="97.22" y2="208.01" class="err"/>
<circle cx="94.22" cy="194.02" r="2.5" class="obs"/>
<line x1="114.61" y1="137.74" x2="114.61" y2="156.98" class="err"/>
<line x1="111.61" y1="137.74" x2="117.61" y2="137.74" class="err"/>
<line x1="111.61" y1="156.98" x2="117.61" y2="156.98" class="err"/>
<circle cx="114.61" cy="147.36" r="2.5" class="obs"/>
<line x1="118.72" y1="132.37" x2="118.72" y2="147.99" class="err"/>
<line x1="115.72" y1="132.37" x2="121.72" y2="132.37" class="err"/>
<line x1="115.72" y1="147.99" x2="121.72" y2="147.99" class="err"/>
<circle cx="118.72" cy="140.18" r="2.5" class="obs"/>
<line x1="122.69" y1="120.80" x2="122.69" y2="147.60" class="err"/>
<line x1="119.69" y1="120.80" x2="125.69" y2="120.80" class="err"/>
<line x1="119.69" y1="147.60" x2="125.69" y2="147.60" class="err"/>
<circle cx="122.69" cy="134.20" r="2.5" class="obs"/>
<line x1="126.80" y1="122.18" x2="126.80" y2="136.65" class="err"/>
<line x1="123.80" y1="122.18" x2="129.80" y2="122.18" class="err"/>
<line x1="123.80" y1="136.65" x2="129.80" y2="136.65" class="err"/>
<circle cx="126.80" cy="129.41" r="2.5" class="obs"/>
<line x1="130.90" y1="118.16" x2="130.90" y2="131.10" class="err"/>
<line x1="127.90" y1="118.16" x2="133.90" y2="118.16" class="err"/>
<line x1="127.90" y1="131.10" x2="133.90" y2="131.10" class="err"/>
<circle cx="130.90" cy="124.63" r="2.5" class="obs"/>
<line x1="135.01" y1="113.91" x2="135.01" y2="128.17" class="err"/>
<line x1="132.01" y1="113.91" x2="138.01" y2="113.91" class="err"/>
<line x1="132.01" y1="128.17" x2="138.01" y2="128.17" class="err"/>
<circle cx="135.01" cy="121.04" r="2.5" class="obs"/>
<line x1="138.98" y1="108.59" x2="138.98" y2="126.32" class="err"/>
<line x1="135.98" y1="108.59" x2="141.98" y2="108.59" class="err"/>
<line x1="135.98" y1="126.32" x2="141.98" y2="126.32" class="err"/>
<circle cx="138.98" cy="117.45" r="2.5" class="obs"/>
<line x1="142.94" y1="107.76" x2="142.94" y2="122.36" class="err"/>
<line x1="139.94" y1="107.76" x2="145.94" y2="107.76" class="err"/>
<line x1="139.94" y1="122.36" x2="145.94" y2="122.36" class="err"/>
<circle cx="142.94" cy="115.06" r="2.5" class="obs"/>
<line x1="147.05" y1="109.21" x2="147.05" y2="118.52" class="err"/>
<line x1="144.05" y1="109.21" x2="150.05" y2="109.21" class="err"/>
<line x1="144.05" y1="118.52" x2="150.05" y2="118.52" class="err"/>
<circle cx="147.05" cy="113.86" r="2.5" class="obs"/>
<line x1="151.01" y1="101.86" x2="151.01" y2="123.47" class="err"/>
<line x1="148.01" y1="101.86" x2="154.01" y2="101.86" class="err"/>
<line x1="148.01" y1="123.47" x2="154.01" y2="123.47" class="err"/>
<circle cx="151.01" cy="112.67" r="2.5" class="obs"/>
<line x1="155.12" y1="99.51" x2="155.12" y2="123.43" class="err"/>
<line x1="152.12" y1="99.51" x2="158.12" y2="99.51" class="err"/>
<line x1="152.12" y1="123.43" x2="158.12" y2="123.43" class="err"/>
<circle cx="155.12" cy="111.47" r="2.5" class="obs"/>
<line x1="159.23" y1="102.66" x2="159.23" y2="120.27" class="err"/>
<line x1="156.23" y1="102.66" x2="162.23" y2="102.66" class="err"/>
<line x1="156.23" y1="120.27" x2="162.23" y2="120.27" class="err"/>
<circle cx="159.23" cy="111.47" r="2.5" class="obs"/>
<line x1="163.34" y1="99.27" x2="163.34" y2="123.67" class="err"/>
<line x1="160.34" y1="99.27" x2="166.34" y2="99.27" class="err"/>
<line x1="160.34" y1="123.67" x2="166.34" y2="123.67" class="err"/>
<circle cx="163.34" cy="111.47" r="2.5" class="obs"/>
<line x1="167.30" y1="100.22" x2="167.30" y2="125.11" class="err"/>
<line x1="164.30" y1="100.22" x2="170.30" y2="100.22" class="err"/>
<line x1="164.30" y1="125.11" x2="170.30" y2="125.11" class="err"/>
<circle cx="167.30" cy="112.67" r="2.5" class="obs"/>
<line x1="171.41" y1="105.69" x2="171.41" y2="119.64" class="err"/>
<line x1="168.41" y1="105.69" x2="174.41" y2="105.69" class="err"/>
<line x1="168.41" y1="119.64" x2="174.41" y2="119.64" class="err"/>
<circle cx="171.41" cy="112.67" r="2.5" class="obs"/>
<line x1="175.52" y1="107.37" x2="175.52" y2="120.36" class="err"/>
<line x1="172.52" y1="107.37" x2="178.52" y2="107.37" class="err"/>
<line x1="172.52" y1="120.36" x2="178.52" y2="120.36" class="err"/>
<circle cx="175.52" cy="113.86" r="2.5" class="obs"/>
<line x1="176.69" y1="105.06" x2="176.69" y2="125.06" class="err"/>
<line x1="173.69" y1="105.06" x2="179.69" y2="105.06" class="err"/>
<line x1="173.69" y1="125.06" x2="179.69" y2="125.06" class="err"/>
<circle cx="176.69" cy="115.06" r="2.5" class="obs"/>
<line x1="179.48" y1="105.63" x2="179.48" y2="124.49" class="err"/>
<line x1="176.48" y1="105.63" x2="182.48" y2="105.63" class="err"/>
<line x1="176.48" y1="124.49" x2="182.48" y2="124.49" class="err"/>
<circle cx="179.48" cy="115.06" r="2.5" class="obs"/>
<line x1="187.70" y1="108.87" x2="187.70" y2="128.42" class="err"/>
<line x1="184.70" y1="108.87" x2="190.70" y2="108.87" class="err"/>
<line x1="184.70" y1="128.42" x2="190.70" y2="128.42" class="err"/>
<circle cx="187.70" cy="118.65" r="2.5" class="obs"/>
<line x1="191.66" y1="114.08" x2="191.66" y2="128.00" class="err"/>
<line x1="188.66" y1="114.08" x2="194.66" y2="114.08" class="err"/>
<line x1="188.66" y1="128.00" x2="194.66" y2="128.00" class="err"/>
<circle cx="191.66" cy="121.04" r="2.5" class="obs"/>
<line x1="195.62" y1="113.61" x2="195.62" y2="130.86" class="err"/>
<line x1="192.62" y1="113.61" x2="198.62" y2="113.61" class="err"/>
<line x1="192.62" y1="130.86" x2="198.62" y2="130.86" class="err"/>
<circle cx="195.62" cy="122.24" r="2.5" class="obs"/>
<line x1="199.73" y1="102.86" x2="199.73" y2="146.40" class="err"/>
<line x1="196.73" y1="102.86" x2="202.73" y2="102.86" class="err"/>
<line x1="196.73" y1="146.40" x2="202.73" y2="146.40" class="err"/>
<circle cx="199.73" cy="124.63" r="2.5" class="obs"/>
<line x1="203.84" y1="116.12" x2="203.84" y2="137.92" class="err"/>
<line x1="200.84" y1="116.12" x2="206.84" y2="116.12" class="err"/>
<line x1="200.84" y1="137.92" x2="206.84" y2="137.92" class="err"/>
<circle cx="203.84" cy="127.02" r="2.5" class="obs"/>
<line x1="212.21" y1="123.96" x2="212.21" y2="137.26" class="err"/>
<line x1="209.21" y1="123.96" x2="215.21" y2="123.96" class="err"/>
<line x1="209.21" y1="137.26" x2="215.21" y2="137.26" class="err"/>
<circle cx="212.21" cy="130.61" r="2.5" class="obs"/>
<line x1="247.72" y1="132.75" x2="247.72" y2="140.43" class="err"/>
<line x1="244.72" y1="132.75" x2="250.72" y2="132.75" class="err"/>
<line x1="244.72" y1="140.43" x2="250.72" y2="140.43" class="err"/>
<circle cx="247.72" cy="136.59" r="2.5" class="obs"/>
<line x1="283.97" y1="129.55" x2="283.97" y2="134.07" class="err"/>
<line x1="280.97" y1="129.55" x2="286.97" y2="129.55" class="err"/>
<line x1="280.97" y1="134.07" x2="286.97" y2="134.07" class="err"/>
<circle cx="283.97" cy="131.81" r="2.5" class="obs"/>
<line x1="285.44" y1="122.64" x2="285.44" y2="140.97" class="err"/>
<line x1="282.44" y1="122.64" x2="288.44" y2="122.64" class="err"/>
<line x1="282.44" y1="140.97" x2="288.44" y2="140.97" class="err"/>
<circle cx="285.44" cy="131.81" r="2.5" class="obs"/>
<line x1="293.07" y1="119.22" x2="293.07" y2="142.00" class="err"/>
<line x1="290.07" y1="119.22" x2="296.07" y2="119.22" class="err"/>
<line x1="290.07" y1="142.00" x2="296.07" y2="142.00" class="err"/>
<circle cx="293.07" cy="130.61" r="2.5" class="obs"/>
<line x1="297.47" y1="114.34" x2="297.47" y2="146.88" class="err"/>
<line x1="294.47" y1="114.34" x2="300.47" y2="114.34" class="err"/>
<line x1="294.47" y1="146.88" x2="300.47" y2="146.88" class="err"/>
<circle cx="297.47" cy="130.61" r="2.5" class="obs"/>
<line x1="300.56" y1="120.86" x2="300.56" y2="140.36" class="err"/>
<line x1="297.56" y1="120.86" x2="303.56" y2="120.86" class="err"/>
<line x1="297.56" y1="140.36" x2="303.56" y2="140.36" class="err"/>
<circle cx="300.56" cy="130.61" r="2.5" class="obs"/>
<line x1="305.11" y1="125.69" x2="305.11" y2="135.53" class="err"/>
<line x1="302.11" y1="125.69" x2="308.11" y2="125.69" class="err"/>
<line x1="302.11" y1="135.53" x2="308.11" y2="135.53" class="err"/>
<circle cx="305.11" cy="130.61" r="2.5" class="obs"/>
<line x1="309.51" y1="124.19" x2="309.51" y2="137.04" class="err"/>
<line x1="306.51" y1="124.19" x2="312.51" y2="124.19" class="err"/>
<line x1="306.51" y1="137.04" x2="312.51" y2="137.04" class="err"/>
<circle cx="309.51" cy="130.61" r="2.5" class="obs"/>
<line x1="312.59" y1="124.56" x2="312.59" y2="136.66" class="err"/>
<line x1="309.59" y1="124.56" x2="315.59" y2="124.56" class="err"/>
<line x1="309.59" y1="136.66" x2="315.59" y2="136.66" class="err"/>
<circle cx="312.59" cy="130.61" r="2.5" class="obs"/>
<line x1="317.14" y1="116.97" x2="317.14" y2="144.25" class="err"/>
<line x1="314.14" y1="116.97" x2="320.14" y2="116.97" class="err"/>
<line x1="314.14" y1="144.25" x2="320.14" y2="144.25" class="err"/>
<circle cx="317.14" cy="130.61" r="2.5" class="obs"/>
<line x1="318.61" y1="127.55" x2="318.61" y2="133.67" class="err"/>
<line x1="315.61" y1="127.55" x2="321.61" y2="127.55" class="err"/>
<line x1="315.61" y1="133.67" x2="321.61" y2="133.67" class="err"/>
<circle cx="318.61" cy="130.61" r="2.5" class="obs"/>
<line x1="354.71" y1="132.17" x2="354.71" y2="136.23" class="err"/>
<line x1="351.71" y1="132.17" x2="357.71" y2="132.17" class="err"/>
<line x1="351.71" y1="136.23" x2="357.71" y2="136.23" class="err"/>
<circle cx="354.71" cy="134.20" r="2.5" class="obs"/>
<line x1="389.49" y1="135.24" x2="389.49" y2="137.94" class="err"/>
<line x1="386.49" y1="135.24" x2="392.49" y2="135.24" class="err"/>
<line x1="386.49" y1="137.94" x2="392.49" y2="137.94" class="err"/>
<circle cx="389.49" cy="136.59" r="2.5" class="obs"/>
<line x1="425.59" y1="135.67" x2="425.59" y2="139.91" class="err"/>
<line x1="422.59" y1="135.67" x2="428.59" y2="135.67" class="err"/>
<line x1="422.59" y1="139.91" x2="428.59" y2="139.91" class="err"/>
<circle cx="425.59" cy="137.79" r="2.5" class="obs"/>
<line x1="461.70" y1="138.42" x2="461.70" y2="144.33" class="err"/>
<line x1="458.70" y1="138.42" x2="464.70" y2="138.42" class="err"/>
<line x1="458.70" y1="144.33" x2="464.70" y2="144.33" class="err"/>
<circle cx="461.70" cy="141.38" r="2.5" class="obs"/>
<line x1="496.48" y1="144.44" x2="496.48" y2="147.89" class="err"/>
<line x1="493.48" y1="144.44" x2="499.48" y2="144.44" class="err"/>
<line x1="493.48" y1="147.89" x2="499.48" y2="147.89" class="err"/>
<circle cx="496.48" cy="146.16" r="2.5" class="obs"/>
<line x1="532.58" y1="141.52" x2="532.58" y2="148.41" class="err"/>
<line x1="529.58" y1="141.52" x2="535.58" y2="141.52" class="err"/>
<line x1="529.58" y1="148.41" x2="535.58" y2="148.41" class="err"/>
<circle cx="532.58" cy="144.97" r="2.5" class="obs"/>
<line x1="603.32" y1="126.91" x2="603.32" y2="136.70" class="err"/>
<line x1="600.32" y1="126.91" x2="606.32" y2="126.91" class="err"/>
<line x1="600.32" y1="136.70" x2="606.32" y2="136.70" class="err"/>
<circle cx="603.32" cy="131.81" r="2.5" class="obs"/>
<line x1="657.62" y1="124.25" x2="657.62" y2="139.37" class="err"/>
<line x1="654.62" y1="124.25" x2="660.62" y2="124.25" class="err"/>
<line x1="654.62" y1="139.37" x2="660.62" y2="139.37" class="err"/>
<circle cx="657.62" cy="131.81" r="2.5" class="obs"/>
<g class="legend">
<line x1="82" y1="69" x2="106" y2="69" class="fw"/>
<text x="112" y="73" class="lbl-l">framework: 17.1 km/s, 13.1%, 3.00σ</text>
<line x1="82" y1="87" x2="106" y2="87" class="nt"/>
<text x="112" y="91" class="lbl-l">Newtonian: 66.2 km/s, 32.0%, 10.67σ</text>
<line x1="82" y1="105" x2="106" y2="105" class="mond"/>
<text x="112" y="109" class="lbl-m">MOND/RAR: 21.7 km/s, 10.1%, 3.51σ</text>
<circle cx="94" cy="123" r="2.5" class="obs"/>
<text x="112" y="127" class="lbl">observed V±err</text>
</g>
<g class="legend">
<line x1="472" y1="69" x2="496" y2="69" class="rho"/>
<text x="502" y="73" class="lbl-r">ρ(r) raw</text>
<line x1="472" y1="87" x2="496" y2="87" class="phot"/>
<text x="502" y="91" class="lbl-p">photometric baryonic profile</text>
<line x1="472" y1="105" x2="496" y2="105" class="mbar"/>
<text x="502" y="109" class="lbl-m">MOND baryonic annulus</text>
<line x1="472" y1="123" x2="496" y2="123" class="mph"/>
<text x="502" y="127" class="lbl-m">MOND phantom annulus</text>
<text x="472" y="147" class="lbl-r">ρ peak: 433 M☉/pc²</text>
<text x="472" y="163" class="lbl-p">phot peak: 4369.48 (arb.)</text>
<text x="472" y="179" class="lbl-m">Σbar peak: 1830.37 M☉/pc²</text>
<text x="472" y="195" class="lbl-m">Σphantom peak: 179.34 M☉/pc²</text>
</g>
<rect x="775" y="55" width="170" height="170" class="preview-bg"/>
<defs><radialGradient id="g_UGC03205" cx="0.5" cy="0.5" r="0.5">
  <stop offset="0.0000" stop-color="rgb(155,155,155)"/>
  <stop offset="0.0313" stop-color="rgb(138,138,138)"/>
  <stop offset="0.0625" stop-color="rgb(120,120,120)"/>
  <stop offset="0.0938" stop-color="rgb(103,103,103)"/>
  <stop offset="0.1250" stop-color="rgb(98,98,98)"/>
  <stop offset="0.1563" stop-color="rgb(94,94,94)"/>
  <stop offset="0.1875" stop-color="rgb(91,91,91)"/>
  <stop offset="0.2188" stop-color="rgb(89,89,89)"/>
  <stop offset="0.2500" stop-color="rgb(87,87,87)"/>
  <stop offset="0.2813" stop-color="rgb(85,85,85)"/>
  <stop offset="0.3125" stop-color="rgb(83,83,83)"/>
  <stop offset="0.3438" stop-color="rgb(81,81,81)"/>
  <stop offset="0.3750" stop-color="rgb(80,80,80)"/>
  <stop offset="0.4063" stop-color="rgb(79,79,79)"/>
  <stop offset="0.4375" stop-color="rgb(78,78,78)"/>
  <stop offset="0.4688" stop-color="rgb(77,77,77)"/>
  <stop offset="0.5000" stop-color="rgb(75,75,75)"/>
  <stop offset="0.5313" stop-color="rgb(74,74,74)"/>
  <stop offset="0.5625" stop-color="rgb(73,73,73)"/>
  <stop offset="0.5938" stop-color="rgb(72,72,72)"/>
  <stop offset="0.6250" stop-color="rgb(71,71,71)"/>
  <stop offset="0.6563" stop-color="rgb(70,70,70)"/>
  <stop offset="0.6875" stop-color="rgb(69,69,69)"/>
  <stop offset="0.7188" stop-color="rgb(68,68,68)"/>
  <stop offset="0.7500" stop-color="rgb(67,67,67)"/>
  <stop offset="0.7813" stop-color="rgb(66,66,66)"/>
  <stop offset="0.8125" stop-color="rgb(65,65,65)"/>
  <stop offset="0.8438" stop-color="rgb(63,63,63)"/>
  <stop offset="0.8750" stop-color="rgb(61,61,61)"/>
  <stop offset="0.9063" stop-color="rgb(58,58,58)"/>
  <stop offset="0.9375" stop-color="rgb(56,56,56)"/>
  <stop offset="0.9688" stop-color="rgb(53,53,53)"/>
  <stop offset="1.0000" stop-color="rgb(0,0,0)"/>
</radialGradient></defs>
<circle cx="860" cy="140" r="81" fill="url(#g_UGC03205)"/>
<text x="860" y="49" text-anchor="middle" class="preview-lbl">face-on luminance from ρ(r)</text>
<text x="860" y="239" text-anchor="middle" class="preview-lbl">edge at r = 40.0 kpc</text>
</svg>