<svg xmlns="http://www.w3.org/2000/svg" viewBox="0 0 720 420" width="720" height="420" font-family="sans-serif" font-size="12">
<style>
  .ax { stroke: #333; stroke-width: 1; fill: none; }
  .grid { stroke: #ddd; stroke-width: 0.5; fill: none; }
  .lbl { fill: #333; }
  .lbl-l { fill: #0066cc; }
  .lbl-r { fill: #b03030; }
  .obs { fill: #222; }
  .err { stroke: #555; stroke-width: 0.8; fill: none; }
  .fw { stroke: #0066cc; stroke-width: 2.2; fill: none; }
  .nt { stroke: #cc6600; stroke-width: 1.6; fill: none; stroke-dasharray: 5,3; }
  .rho { stroke: #b03030; stroke-width: 2.0; fill: none; }
  .sig { stroke: #b03030; stroke-width: 1.6; fill: none; stroke-dasharray: 4,2; opacity: 0.85; }
  .title { fill: #111; font-size: 16px; font-weight: 600; }
  .subtitle { fill: #555; font-size: 11px; }
  .legend { font-size: 11px; }
</style>
<text x="360.0" y="22" text-anchor="middle" class="title">UGC02487</text>
<text x="360.0" y="38" text-anchor="middle" class="subtitle">rMax=80.4 kpc, N=17, RMS=5.4 km/s (1.5%), amp=862</text>
<line x1="70" y1="365.0" x2="635" y2="365.0" class="grid"/>
<text x="64" y="369.0" text-anchor="end" class="lbl-l">0</text>
<line x1="70" y1="303.0" x2="635" y2="303.0" class="grid"/>
<text x="64" y="307.0" text-anchor="end" class="lbl-l">87</text>
<line x1="70" y1="241.0" x2="635" y2="241.0" class="grid"/>
<text x="64" y="245.0" text-anchor="end" class="lbl-l">175</text>
<line x1="70" y1="179.0" x2="635" y2="179.0" class="grid"/>
<text x="64" y="183.0" text-anchor="end" class="lbl-l">262</text>
<line x1="70" y1="116.99999999999999" x2="635" y2="116.99999999999999" class="grid"/>
<text x="64" y="120.99999999999999" text-anchor="end" class="lbl-l">349</text>
<line x1="70" y1="55.0" x2="635" y2="55.0" class="grid"/>
<text x="64" y="59.0" text-anchor="end" class="lbl-l">436</text>
<text x="641" y="369.0" text-anchor="start" class="lbl-r">0.0</text>
<text x="641" y="327.6666666666667" text-anchor="start" class="lbl-r">0.2</text>
<text x="641" y="286.33333333333337" text-anchor="start" class="lbl-r">0.4</text>
<text x="641" y="245.00000000000003" text-anchor="start" class="lbl-r">0.6</text>
<text x="641" y="203.66666666666666" text-anchor="start" class="lbl-r">0.8</text>
<text x="641" y="162.33333333333334" text-anchor="start" class="lbl-r">1.0</text>
<line x1="70.0" y1="55" x2="70.0" y2="365" class="grid"/>
<text x="70.0" y="381" text-anchor="middle" class="lbl">0.0</text>
<line x1="164.16666666666666" y1="55" x2="164.16666666666666" y2="365" class="grid"/>
<text x="164.16666666666666" y="381" text-anchor="middle" class="lbl">15.6</text>
<line x1="258.3333333333333" y1="55" x2="258.3333333333333" y2="365" class="grid"/>
<text x="258.3333333333333" y="381" text-anchor="middle" class="lbl">31.1</text>
<line x1="352.5" y1="55" x2="352.5" y2="365" class="grid"/>
<text x="352.5" y="381" text-anchor="middle" class="lbl">46.7</text>
<line x1="446.66666666666663" y1="55" x2="446.66666666666663" y2="365" class="grid"/>
<text x="446.66666666666663" y="381" text-anchor="middle" class="lbl">62.2</text>
<line x1="540.8333333333334" y1="55" x2="540.8333333333334" y2="365" class="grid"/>
<text x="540.8333333333334" y="381" text-anchor="middle" class="lbl">77.8</text>
<line x1="635.0" y1="55" x2="635.0" y2="365" class="grid"/>
<text x="635.0" y="381" text-anchor="middle" class="lbl">93.3</text>
<text x="352.5" y="408" text-anchor="middle" class="lbl">radius (kpc)</text>
<text x="16" y="210.0" text-anchor="middle" class="lbl-l" transform="rotate(-90, 16, 210.0)">velocity (km/s)</text>
<text x="704" y="210.0" text-anchor="middle" class="lbl-r" transform="rotate(-90, 704, 210.0)">mass profile (normalized to peak)</text>
<rect x="70" y="55" width="565" height="310" class="ax"/>
<path d="M 70.0,158.3 L 72.6,166.4 L 75.2,174.5 L 77.7,182.6 L 80.3,190.6 L 82.9,198.7 L 85.5,206.8 L 88.1,214.9 L 90.6,222.9 L 93.2,231.0 L 95.8,238.5 L 98.4,243.7 L 101.0,248.8 L 103.5,254.0 L 106.1,259.1 L 108.7,264.3 L 111.3,269.5 L 113.9,274.6 L 116.4,279.8 L 119.0,284.9 L 121.6,290.1 L 124.2,294.0 L 126.8,294.4 L 129.3,294.8 L 131.9,295.2 L 134.5,295.6 L 137.1,296.0 L 139.7,296.4 L 142.2,296.8 L 144.8,297.2 L 147.4,297.6 L 150.0,298.0 L 152.6,298.4 L 155.1,298.8 L 157.7,299.2 L 160.3,299.6 L 162.9,300.0 L 165.5,300.4 L 168.0,300.8 L 170.6,301.2 L 173.2,301.6 L 175.8,302.0 L 178.4,302.3 L 180.9,302.7 L 183.5,303.1 L 186.1,303.5 L 188.7,303.9 L 191.3,304.3 L 193.8,304.7 L 196.4,305.1 L 199.0,305.5 L 201.6,305.9 L 204.2,306.3 L 206.7,306.7 L 209.3,307.1 L 211.9,307.5 L 214.5,307.9 L 217.1,308.3 L 219.6,308.7 L 222.2,309.1 L 224.8,309.5 L 227.4,309.9 L 230.0,310.3 L 232.5,310.7 L 235.1,311.0 L 237.7,311.4 L 240.3,311.8 L 242.9,312.2 L 245.4,312.6 L 248.0,313.0 L 250.6,313.4 L 253.2,313.8 L 255.8,314.2 L 258.3,314.6 L 260.9,315.0 L 263.5,315.4 L 266.1,315.8 L 268.7,316.2 L 271.2,316.6 L 273.8,317.0 L 276.4,317.4 L 279.0,317.8 L 281.6,318.2 L 284.1,318.6 L 286.7,319.0 L 289.3,319.4 L 291.9,319.7 L 294.5,320.1 L 297.0,320.5 L 299.6,320.9 L 302.2,321.3 L 304.8,321.7 L 307.4,322.1 L 309.9,322.5 L 312.5,322.9 L 315.1,323.3 L 317.7,323.7 L 320.3,323.9 L 322.8,324.1 L 325.4,324.3 L 328.0,324.5 L 330.6,324.7 L 333.2,324.9 L 335.7,325.1 L 338.3,325.3 L 340.9,325.5 L 343.5,325.7 L 346.1,325.9 L 348.6,326.1 L 351.2,326.3 L 353.8,326.5 L 356.4,326.7 L 358.9,326.9 L 361.5,327.1 L 364.1,327.3 L 366.7,327.5 L 369.3,327.6 L 371.8,327.8 L 374.4,328.0 L 377.0,328.2 L 379.6,328.4 L 382.2,328.6 L 384.7,328.8 L 387.3,329.0 L 389.9,329.2 L 392.5,329.4 L 395.1,329.6 L 397.6,329.8 L 400.2,330.0 L 402.8,330.2 L 405.4,330.4 L 408.0,330.6 L 410.5,330.8 L 413.1,331.0 L 415.7,331.2 L 418.3,331.4 L 420.9,331.5 L 423.4,331.7 L 426.0,331.9 L 428.6,332.1 L 431.2,332.3 L 433.8,332.5 L 436.3,332.7 L 438.9,332.9 L 441.5,333.1 L 444.1,333.3 L 446.7,333.5 L 449.2,333.7 L 451.8,333.9 L 454.4,334.1 L 457.0,334.3 L 459.6,334.5 L 462.1,334.7 L 464.7,334.9 L 467.3,335.1 L 469.9,335.3 L 472.5,335.5 L 475.0,335.6 L 477.6,335.8 L 480.2,336.0 L 482.8,336.2 L 485.4,336.4 L 487.9,336.6 L 490.5,336.8 L 493.1,337.0 L 495.7,337.2 L 498.3,337.4 L 500.8,337.6 L 503.4,337.8 L 506.0,338.0 L 508.6,338.2 L 511.2,338.4 L 513.7,338.6 L 516.3,338.8 L 518.9,339.0 L 521.5,339.2 L 524.1,339.4 L 526.6,339.6 L 529.2,339.7 L 531.8,339.9 L 534.4,340.5 L 537.0,341.3 L 539.5,342.2 L 542.1,343.0 L 544.7,343.9 L 547.3,344.7 L 549.9,345.6 L 552.4,346.5 L 555.0,347.3 L 557.6,348.2 L 560.2,349.0 L 562.8,349.9 L 565.3,350.8 L 567.9,351.6 L 570.5,352.5 L 573.1,353.3 L 575.7,354.2 L 578.2,355.1 L 580.8,355.9 L 583.4,356.8 L 586.0,357.6 L 588.6,358.5 L 591.1,359.4 L 593.7,360.2 L 596.3,361.1 L 598.9,361.9 L 601.5,362.8 L 604.0,363.6 L 606.6,364.5 L 609.2,365.0 L 611.8,365.0 L 614.4,365.0 L 616.9,365.0 L 619.5,365.0 L 622.1,365.0 L 624.7,365.0 L 627.3,365.0 L 629.8,365.0 L 632.4,365.0 L 635.0,365.0" class="rho"/>
<path d="M 70.0,158.3 L 72.6,159.4 L 75.2,161.2 L 77.7,163.7 L 80.3,166.8 L 82.9,170.5 L 85.5,174.7 L 88.1,179.2 L 90.6,183.9 L 93.2,188.8 L 95.8,193.6 L 98.4,198.4 L 101.0,203.2 L 103.5,207.9 L 106.1,212.4 L 108.7,216.8 L 111.3,221.0 L 113.9,225.1 L 116.4,228.9 L 119.0,232.6 L 121.6,236.0 L 124.2,239.2 L 126.8,242.1 L 129.3,244.8 L 131.9,247.3 L 134.5,249.7 L 137.1,251.9 L 139.7,254.0 L 142.2,255.9 L 144.8,257.8 L 147.4,259.5 L 150.0,261.2 L 152.6,262.9 L 155.1,264.4 L 157.7,265.9 L 160.3,267.4 L 162.9,268.8 L 165.5,270.2 L 168.0,271.6 L 170.6,272.9 L 173.2,274.2 L 175.8,275.4 L 178.4,276.7 L 180.9,277.9 L 183.5,279.0 L 186.1,280.2 L 188.7,281.4 L 191.3,282.5 L 193.8,283.6 L 196.4,284.7 L 199.0,285.7 L 201.6,286.8 L 204.2,287.8 L 206.7,288.9 L 209.3,289.9 L 211.9,290.9 L 214.5,291.9 L 217.1,292.9 L 219.6,293.8 L 222.2,294.8 L 224.8,295.7 L 227.4,296.7 L 230.0,297.6 L 232.5,298.5 L 235.1,299.4 L 237.7,300.3 L 240.3,301.2 L 242.9,302.0 L 245.4,302.9 L 248.0,303.8 L 250.6,304.6 L 253.2,305.4 L 255.8,306.3 L 258.3,307.1 L 260.9,307.9 L 263.5,308.7 L 266.1,309.5 L 268.7,310.2 L 271.2,311.0 L 273.8,311.8 L 276.4,312.5 L 279.0,313.3 L 281.6,314.0 L 284.1,314.7 L 286.7,315.4 L 289.3,316.1 L 291.9,316.8 L 294.5,317.5 L 297.0,318.2 L 299.6,318.8 L 302.2,319.5 L 304.8,320.1 L 307.4,320.7 L 309.9,321.3 L 312.5,322.0 L 315.1,322.5 L 317.7,323.1 L 320.3,323.7 L 322.8,324.2 L 325.4,324.8 L 328.0,325.3 L 330.6,325.8 L 333.2,326.3 L 335.7,326.8 L 338.3,327.3 L 340.9,327.8 L 343.5,328.3 L 346.1,328.8 L 348.6,329.2 L 351.2,329.7 L 353.8,330.1 L 356.4,330.6 L 358.9,331.0 L 361.5,331.4 L 364.1,331.9 L 366.7,332.3 L 369.3,332.7 L 371.8,333.1 L 374.4,333.5 L 377.0,333.9 L 379.6,334.3 L 382.2,334.7 L 384.7,335.0 L 387.3,335.4 L 389.9,335.8 L 392.5,336.2 L 395.1,336.5 L 397.6,336.9 L 400.2,337.2 L 402.8,337.6 L 405.4,338.0 L 408.0,338.3 L 410.5,338.6 L 413.1,339.0 L 415.7,339.3 L 418.3,339.6 L 420.9,340.0 L 423.4,340.3 L 426.0,340.6 L 428.6,340.9 L 431.2,341.3 L 433.8,341.6 L 436.3,341.9 L 438.9,342.2 L 441.5,342.5 L 444.1,342.8 L 446.7,343.1 L 449.2,343.4 L 451.8,343.7 L 454.4,344.0 L 457.0,344.2 L 459.6,344.5 L 462.1,344.8 L 464.7,345.1 L 467.3,345.4 L 469.9,345.6 L 472.5,345.9 L 475.0,346.2 L 477.6,346.5 L 480.2,346.7 L 482.8,347.0 L 485.4,347.3 L 487.9,347.5 L 490.5,347.8 L 493.1,348.0 L 495.7,348.3 L 498.3,348.5 L 500.8,348.8 L 503.4,349.1 L 506.0,349.3 L 508.6,349.6 L 511.2,349.8 L 513.7,350.1 L 516.3,350.3 L 518.9,350.6 L 521.5,350.8 L 524.1,351.1 L 526.6,351.3 L 529.2,351.6 L 531.8,351.9 L 534.4,352.1 L 537.0,352.4 L 539.5,352.6 L 542.1,352.9 L 544.7,353.2 L 547.3,353.4 L 549.9,353.7 L 552.4,353.9 L 555.0,354.2 L 557.6,354.4 L 560.2,354.7 L 562.8,354.9 L 565.3,355.1 L 567.9,355.3 L 570.5,355.6 L 573.1,355.8 L 575.7,355.9 L 578.2,356.1 L 580.8,356.3 L 583.4,356.5 L 586.0,356.6 L 588.6,356.8 L 591.1,357.0 L 593.7,357.1 L 596.3,357.2 L 598.9,357.4 L 601.5,357.5 L 604.0,357.6 L 606.6,357.7 L 609.2,357.9 L 611.8,358.0 L 614.4,358.1 L 616.9,358.2 L 619.5,358.3 L 622.1,358.4 L 624.7,358.4 L 627.3,358.5 L 629.8,358.6 L 632.4,358.7 L 635.0,358.8" class="sig"/>
<path d="M 75.7,299.5 L 81.3,275.2 L 86.9,258.6 L 92.6,246.4 L 98.2,237.3 L 103.9,229.8 L 109.6,223.8 L 115.2,219.1 L 120.8,215.5 L 126.5,212.9 L 132.2,210.1 L 137.8,207.2 L 143.4,204.1 L 149.1,200.9 L 154.8,197.8 L 160.4,194.6 L 166.1,191.5 L 171.7,188.4 L 177.3,185.4 L 183.0,182.5 L 188.6,179.6 L 194.3,176.8 L 200.0,174.1 L 205.6,171.4 L 211.2,168.8 L 216.9,166.3 L 222.6,163.9 L 228.2,161.5 L 233.8,159.2 L 239.5,157.0 L 245.2,154.9 L 250.8,152.8 L 256.5,150.8 L 262.1,148.8 L 267.8,147.0 L 273.4,145.2 L 279.1,143.4 L 284.7,141.8 L 290.3,140.2 L 296.0,138.6 L 301.6,137.1 L 307.3,135.7 L 312.9,134.4 L 318.6,133.0 L 324.2,131.8 L 329.9,130.5 L 335.6,129.3 L 341.2,128.1 L 346.9,126.9 L 352.5,125.7 L 358.1,124.6 L 363.8,123.4 L 369.4,122.3 L 375.1,121.2 L 380.7,120.2 L 386.4,119.1 L 392.1,118.1 L 397.7,117.1 L 403.4,116.1 L 409.0,115.1 L 414.6,114.2 L 420.3,113.3 L 425.9,112.4 L 431.6,111.5 L 437.2,110.7 L 442.9,109.9 L 448.6,109.1 L 454.2,108.3 L 459.8,107.5 L 465.5,106.8 L 471.2,106.1 L 476.8,105.4 L 482.5,104.7 L 488.1,104.1 L 493.8,103.5 L 499.4,102.9 L 505.1,102.3 L 510.7,101.7 L 516.3,101.2 L 522.0,100.7 L 527.6,100.2 L 533.3,99.7 L 539.0,99.3 L 544.6,99.1 L 550.2,99.0 L 555.9,99.0 L 561.6,99.2 L 567.2,99.5 L 572.9,100.0 L 578.5,100.5 L 584.1,101.3 L 589.8,102.1 L 595.4,103.1 L 601.1,104.2 L 606.8,105.5 L 612.4,106.8 L 618.0,108.2 L 623.7,109.5 L 629.3,110.8 L 635.0,112.1" class="nt"/>
<path d="M 74.7,295.3 L 79.4,245.4 L 84.1,199.0 L 88.8,161.2 L 93.5,132.2 L 98.2,110.7 L 103.0,94.9 L 107.7,84.0 L 112.4,77.7 L 117.1,76.5 L 121.8,79.8 L 126.5,86.4 L 131.2,94.0 L 135.9,100.8 L 140.6,105.8 L 145.3,109.6 L 150.0,111.9 L 154.8,113.4 L 159.5,114.2 L 164.2,114.5 L 168.9,114.3 L 173.6,113.8 L 178.3,113.0 L 183.0,112.1 L 187.7,111.0 L 192.4,109.8 L 197.1,108.5 L 201.8,107.2 L 206.5,105.8 L 211.2,104.5 L 216.0,103.2 L 220.7,101.9 L 225.4,100.7 L 230.1,99.5 L 234.8,98.4 L 239.5,97.4 L 244.2,96.5 L 248.9,95.6 L 253.6,94.9 L 258.3,94.3 L 263.0,93.9 L 267.8,93.6 L 272.5,93.4 L 277.2,93.5 L 281.9,93.6 L 286.6,94.1 L 291.3,94.7 L 296.0,95.6 L 300.7,96.8 L 305.4,98.3 L 310.1,100.3 L 314.8,102.6 L 319.5,105.2 L 324.2,107.8 L 329.0,110.2 L 333.7,112.3 L 338.4,114.2 L 343.1,115.8 L 347.8,117.3 L 352.5,118.6 L 357.2,119.8 L 361.9,120.9 L 366.6,122.0 L 371.3,122.9 L 376.0,123.8 L 380.8,124.6 L 385.5,125.4 L 390.2,126.2 L 394.9,126.9 L 399.6,127.6 L 404.3,128.2 L 409.0,128.9 L 413.7,129.5 L 418.4,130.1 L 423.1,130.7 L 427.8,131.3 L 432.5,131.9 L 437.2,132.4 L 442.0,133.0 L 446.7,133.5 L 451.4,134.0 L 456.1,134.5 L 460.8,134.9 L 465.5,135.3 L 470.2,135.7 L 474.9,136.0 L 479.6,136.2 L 484.3,136.3 L 489.0,136.3 L 493.8,136.2 L 498.5,135.9 L 503.2,135.3 L 507.9,134.4 L 512.6,133.2 L 517.3,131.5 L 522.0,129.3 L 526.7,126.8 L 531.4,124.4 L 536.1,122.4 L 540.8,121.3 L 545.5,121.6 L 550.2,123.2 L 555.0,126.1 L 559.7,130.1 L 564.4,135.1 L 569.1,140.9 L 573.8,147.2 L 578.5,153.9 L 583.2,160.9 L 587.9,167.9 L 592.6,174.7 L 597.3,181.3 L 602.0,187.4 L 606.8,193.0 L 611.5,198.1 L 616.2,202.7 L 620.9,206.7 L 625.6,210.5 L 630.3,213.9 L 635.0,217.0" class="fw"/>
<line x1="130.10426192454864" y1="89.85963746362032" x2="130.10426192454864" y2="104.49400737905907" class="err"/>
<line x1="127.10426192454864" y1="89.85963746362032" x2="133.10426192454864" y2="89.85963746362032" class="err"/>
<line x1="127.10426192454864" y1="104.49400737905907" x2="133.10426192454864" y2="104.49400737905907" class="err"/>
<circle cx="130.10426192454864" cy="97.1768224213397" r="2.5" class="obs"/>
<line x1="130.83059741608398" y1="83.18181818181819" x2="130.83059741608398" y2="111.1718266608612" class="err"/>
<line x1="127.83059741608398" y1="83.18181818181819" x2="133.83059741608398" y2="83.18181818181819" class="err"/>
<line x1="127.83059741608398" y1="111.1718266608612" x2="133.83059741608398" y2="111.1718266608612" class="err"/>
<circle cx="130.83059741608398" cy="97.1768224213397" r="2.5" class="obs"/>
<line x1="132.64643614492232" y1="88.79402800375826" x2="132.64643614492232" y2="104.13880422577171" class="err"/>
<line x1="129.64643614492232" y1="88.79402800375826" x2="135.64643614492232" y2="88.79402800375826" class="err"/>
<line x1="129.64643614492232" y1="104.13880422577171" x2="135.64643614492232" y2="104.13880422577171" class="err"/>
<circle cx="132.64643614492232" cy="96.46641611476498" r="2.5" class="obs"/>
<line x1="161.215632145312" y1="96.67953800673742" x2="161.215632145312" y2="111.88223296743588" class="err"/>
<line x1="158.215632145312" y1="96.67953800673742" x2="164.215632145312" y2="96.67953800673742" class="err"/>
<line x1="158.215632145312" y1="111.88223296743588" x2="164.215632145312" y2="111.88223296743588" class="err"/>
<circle cx="161.215632145312" cy="104.28088548708665" r="2.5" class="obs"/>
<line x1="191.60066687454002" y1="101.67369434195751" x2="191.60066687454002" y2="111.150514471664" class="err"/>
<line x1="188.60066687454002" y1="101.67369434195751" x2="194.60066687454002" y2="101.67369434195751" class="err"/>
<line x1="188.60066687454002" y1="111.150514471664" x2="194.60066687454002" y2="111.150514471664" class="err"/>
<circle cx="191.60066687454002" cy="106.41210440681076" r="2.5" class="obs"/>
<line x1="222.046229561396" y1="94.2002199967917" x2="222.046229561396" y2="102.99505007218644" class="err"/>
<line x1="219.046229561396" y1="94.2002199967917" x2="225.046229561396" y2="94.2002199967917" class="err"/>
<line x1="219.046229561396" y1="102.99505007218644" x2="225.046229561396" y2="102.99505007218644" class="err"/>
<circle cx="222.046229561396" cy="98.59763503448909" r="2.5" class="obs"/>
<line x1="252.431264290624" y1="90.2006324907762" x2="252.431264290624" y2="95.62813667300685" class="err"/>
<line x1="249.431264290624" y1="90.2006324907762" x2="255.431264290624" y2="90.2006324907762" class="err"/>
<line x1="249.431264290624" y1="95.62813667300685" x2="255.431264290624" y2="95.62813667300685" class="err"/>
<circle cx="252.431264290624" cy="92.91438458189153" r="2.5" class="obs"/>
<line x1="282.87682697747994" y1="94.89641817723492" x2="282.87682697747994" y2="98.03641405229504" class="err"/>
<line x1="279.87682697747994" y1="94.89641817723492" x2="285.87682697747994" y2="94.89641817723492" class="err"/>
<line x1="279.87682697747994" y1="98.03641405229504" x2="285.87682697747994" y2="98.03641405229504" class="err"/>
<circle cx="282.87682697747994" cy="96.46641611476498" r="2.5" class="obs"/>
<line x1="313.261861706708" y1="103.57047918051194" x2="313.261861706708" y2="109.25372963310954" class="err"/>
<line x1="310.261861706708" y1="103.57047918051194" x2="316.261861706708" y2="103.57047918051194" class="err"/>
<line x1="310.261861706708" y1="109.25372963310954" x2="316.261861706708" y2="109.25372963310954" class="err"/>
<circle cx="313.261861706708" cy="106.41210440681076" r="2.5" class="obs"/>
<line x1="343.646896435936" y1="114.93698008570709" x2="343.646896435936" y2="119.19941792515526" class="err"/>
<line x1="340.646896435936" y1="114.93698008570709" x2="346.646896435936" y2="114.93698008570709" class="err"/>
<line x1="340.646896435936" y1="119.19941792515526" x2="346.646896435936" y2="119.19941792515526" class="err"/>
<circle cx="343.646896435936" cy="117.06819900543115" r="2.5" class="obs"/>
<line x1="374.092459122792" y1="122.69461695350276" x2="374.092459122792" y2="127.0707198020029" class="err"/>
<line x1="371.092459122792" y1="122.69461695350276" x2="377.092459122792" y2="122.69461695350276" class="err"/>
<line x1="371.092459122792" y1="127.0707198020029" x2="377.092459122792" y2="127.0707198020029" class="err"/>
<circle cx="374.092459122792" cy="124.88266837775282" r="2.5" class="obs"/>
<line x1="404.47749385201996" y1="127.58931640580242" x2="404.47749385201996" y2="130.70089602859957" class="err"/>
<line x1="401.47749385201996" y1="127.58931640580242" x2="407.47749385201996" y2="127.58931640580242" class="err"/>
<line x1="401.47749385201996" y1="130.70089602859957" x2="407.47749385201996" y2="130.70089602859957" class="err"/>
<circle cx="404.47749385201996" cy="129.145106217201" r="2.5" class="obs"/>
<line x1="434.862528581248" y1="129.42216467676514" x2="434.862528581248" y2="131.70967298393566" class="err"/>
<line x1="431.862528581248" y1="129.42216467676514" x2="437.862528581248" y2="129.42216467676514" class="err"/>
<line x1="431.862528581248" y1="131.70967298393566" x2="437.862528581248" y2="131.70967298393566" class="err"/>
<circle cx="434.862528581248" cy="130.56591883035037" r="2.5" class="obs"/>
<line x1="465.30809126810396" y1="129.71343126246077" x2="465.30809126810396" y2="132.8392190113894" class="err"/>
<line x1="462.30809126810396" y1="129.71343126246077" x2="468.30809126810396" y2="129.71343126246077" class="err"/>
<line x1="462.30809126810396" y1="132.8392190113894" x2="468.30809126810396" y2="132.8392190113894" class="err"/>
<circle cx="465.30809126810396" cy="131.2763251369251" r="2.5" class="obs"/>
<line x1="495.693125997332" y1="128.0581845681417" x2="495.693125997332" y2="133.07365309255906" class="err"/>
<line x1="492.693125997332" y1="128.0581845681417" x2="498.693125997332" y2="128.0581845681417" class="err"/>
<line x1="492.693125997332" y1="133.07365309255906" x2="498.693125997332" y2="133.07365309255906" class="err"/>
<circle cx="495.693125997332" cy="130.56591883035037" r="2.5" class="obs"/>
<line x1="526.0781607265599" y1="119.62566170910009" x2="526.0781607265599" y2="138.66455072530192" class="err"/>
<line x1="523.0781607265599" y1="119.62566170910009" x2="529.0781607265599" y2="119.62566170910009" class="err"/>
<line x1="523.0781607265599" y1="138.66455072530192" x2="529.0781607265599" y2="138.66455072530192" class="err"/>
<circle cx="526.0781607265599" cy="129.145106217201" r="2.5" class="obs"/>
<line x1="556.523723413416" y1="117.56548342003344" x2="556.523723413416" y2="139.30391640121917" class="err"/>
<line x1="553.523723413416" y1="117.56548342003344" x2="559.523723413416" y2="117.56548342003344" class="err"/>
<line x1="553.523723413416" y1="139.30391640121917" x2="559.523723413416" y2="139.30391640121917" class="err"/>
<circle cx="556.523723413416" cy="128.4346999106263" r="2.5" class="obs"/>
<g class="legend">
<line x1="82" y1="69" x2="106" y2="69" class="fw"/>
<text x="112" y="73" class="lbl-l">framework fit</text>
<line x1="82" y1="87" x2="106" y2="87" class="nt"/>
<text x="112" y="91" class="lbl-l">Newtonian (no halo)</text>
<circle cx="94" cy="105" r="2.5" class="obs"/>
<text x="112" y="109" class="lbl">observed V±err</text>
</g>
<g class="legend">
<line x1="460" y1="69" x2="484" y2="69" class="rho"/>
<text x="490" y="73" class="lbl-r">ρ(r) raw</text>
<line x1="460" y1="87" x2="484" y2="87" class="sig"/>
<text x="490" y="91" class="lbl-r">Σ(r) smoothed</text>
<text x="460" y="113" class="lbl-r">ρ peak: 716 M☉/pc²</text>
</g>
</svg>