<svg xmlns="http://www.w3.org/2000/svg" viewBox="0 0 960 450" width="960" height="450" font-family="sans-serif" font-size="12">
<style>
  .ax { stroke: #333; stroke-width: 1; fill: none; }
  .grid { stroke: #ddd; stroke-width: 0.5; fill: none; }
  .lbl { fill: #333; }
  .lbl-l { fill: #0066cc; }
  .lbl-r { fill: #b03030; }
  .obs { fill: #222; }
  .err { stroke: #555; stroke-width: 0.8; fill: none; }
  .fw { stroke: #0066cc; stroke-width: 2.2; fill: none; }
  .nt { stroke: #cc6600; stroke-width: 1.6; fill: none; stroke-dasharray: 5,3; }
  .mond { stroke: #7b2cbf; stroke-width: 1.8; fill: none; stroke-dasharray: 7,3; }
  .lbl-p { fill: #cc7000; }
  .lbl-m { fill: #7b2cbf; }
  .rho { stroke: #b03030; stroke-width: 2.0; fill: none; }
  .phot { stroke: #cc7000; stroke-width: 1.8; fill: none; }
  .mbar { stroke: #8e44ad; stroke-width: 1.8; fill: none; opacity: 0.9; }
  .mph { stroke: #c77dff; stroke-width: 1.6; fill: none; stroke-dasharray: 4,3; opacity: 0.95; }
  .title { fill: #111; font-size: 16px; font-weight: 600; }
  .subtitle { fill: #555; font-size: 11px; }
  .preview-bg { fill: #000; }
  .preview-lbl { fill: #888; font-size: 10px; }
  .legend { font-size: 11px; }
</style>
<text x="378.5" y="22" text-anchor="middle" class="title">UGC09037</text>
<text x="378.5" y="38" text-anchor="middle" class="subtitle">rMax=28.0 kpc, N=22, FW=3.1 km/s, 2.2%, 0.34σ, MOND=37.5 km/s, 33.7%, 6.76σ, amp=105</text>
<line x1="70" y1="395.0" x2="687" y2="395.0" class="grid"/>
<text x="64" y="399.0" text-anchor="end" class="lbl-l">0</text>
<line x1="70" y1="327.0" x2="687" y2="327.0" class="grid"/>
<text x="64" y="331.0" text-anchor="end" class="lbl-l">42</text>
<line x1="70" y1="259.0" x2="687" y2="259.0" class="grid"/>
<text x="64" y="263.0" text-anchor="end" class="lbl-l">84</text>
<line x1="70" y1="191.0" x2="687" y2="191.0" class="grid"/>
<text x="64" y="195.0" text-anchor="end" class="lbl-l">127</text>
<line x1="70" y1="123.0" x2="687" y2="123.0" class="grid"/>
<text x="64" y="127.0" text-anchor="end" class="lbl-l">169</text>
<line x1="70" y1="55.0" x2="687" y2="55.0" class="grid"/>
<text x="64" y="59.0" text-anchor="end" class="lbl-l">211</text>
<text x="693" y="399.0" text-anchor="start" class="lbl-r">0.0</text>
<text x="693" y="353.7" text-anchor="start" class="lbl-r">0.2</text>
<text x="693" y="308.3" text-anchor="start" class="lbl-r">0.4</text>
<text x="693" y="263.0" text-anchor="start" class="lbl-r">0.6</text>
<text x="693" y="217.7" text-anchor="start" class="lbl-r">0.8</text>
<text x="693" y="172.3" text-anchor="start" class="lbl-r">1.0</text>
<line x1="70.0" y1="55" x2="70.0" y2="395" class="grid"/>
<text x="70.0" y="411" text-anchor="middle" class="lbl">0.0</text>
<line x1="172.8" y1="55" x2="172.8" y2="395" class="grid"/>
<text x="172.8" y="411" text-anchor="middle" class="lbl">4.9</text>
<line x1="275.7" y1="55" x2="275.7" y2="395" class="grid"/>
<text x="275.7" y="411" text-anchor="middle" class="lbl">9.8</text>
<line x1="378.5" y1="55" x2="378.5" y2="395" class="grid"/>
<text x="378.5" y="411" text-anchor="middle" class="lbl">14.7</text>
<line x1="481.3" y1="55" x2="481.3" y2="395" class="grid"/>
<text x="481.3" y="411" text-anchor="middle" class="lbl">19.6</text>
<line x1="584.2" y1="55" x2="584.2" y2="395" class="grid"/>
<text x="584.2" y="411" text-anchor="middle" class="lbl">24.5</text>
<line x1="687.0" y1="55" x2="687.0" y2="395" class="grid"/>
<text x="687.0" y="411" text-anchor="middle" class="lbl">29.4</text>
<text x="378.5" y="438" text-anchor="middle" class="lbl">radius (kpc)</text>
<text x="16" y="225" text-anchor="middle" class="lbl-l" transform="rotate(-90, 16, 225)">velocity (km/s)</text>
<text x="724" y="225" text-anchor="middle" class="lbl-r" transform="rotate(-90, 724, 225)">profiles (normalized to peak)</text>
<rect x="70" y="55" width="617" height="340" class="ax"/>
<path d="M 70.0,168.3 L 72.8,169.2 L 75.6,170.1 L 78.5,171.1 L 81.3,172.0 L 84.1,172.9 L 86.9,173.8 L 89.7,174.7 L 92.5,175.6 L 95.4,176.5 L 98.2,177.4 L 101.0,178.3 L 103.8,179.2 L 106.6,180.1 L 109.4,181.0 L 112.3,181.9 L 115.1,182.8 L 117.9,184.7 L 120.7,186.5 L 123.5,188.4 L 126.3,190.3 L 129.2,192.2 L 132.0,194.1 L 134.8,196.0 L 137.6,197.9 L 140.4,199.7 L 143.3,201.6 L 146.1,203.5 L 148.9,205.4 L 151.7,207.3 L 154.5,209.2 L 157.3,211.1 L 160.2,213.0 L 163.0,214.8 L 165.8,216.7 L 168.6,218.6 L 171.4,220.5 L 174.2,222.4 L 177.1,224.3 L 179.9,226.2 L 182.7,228.0 L 185.5,229.9 L 188.3,231.8 L 191.1,233.7 L 194.0,235.6 L 196.8,237.5 L 199.6,239.4 L 202.4,241.2 L 205.2,243.1 L 208.1,245.0 L 210.9,246.9 L 213.7,248.8 L 216.5,250.7 L 219.3,252.6 L 222.1,254.5 L 225.0,256.3 L 227.8,258.2 L 230.6,260.1 L 233.4,261.6 L 236.2,261.6 L 239.0,261.6 L 241.9,261.6 L 244.7,261.6 L 247.5,261.6 L 250.3,261.6 L 253.1,261.6 L 255.9,261.6 L 258.8,261.6 L 261.6,262.0 L 264.4,262.7 L 267.2,263.3 L 270.0,264.0 L 272.8,264.7 L 275.7,265.3 L 278.5,266.0 L 281.3,266.7 L 284.1,267.3 L 286.9,268.0 L 289.8,268.7 L 292.6,269.3 L 295.4,270.0 L 298.2,270.7 L 301.0,271.3 L 303.8,272.0 L 306.7,272.7 L 309.5,273.3 L 312.3,274.0 L 315.1,274.7 L 317.9,275.3 L 320.7,276.0 L 323.6,276.7 L 326.4,277.3 L 329.2,278.0 L 332.0,278.7 L 334.8,279.3 L 337.6,280.0 L 340.5,280.7 L 343.3,281.3 L 346.1,282.0 L 348.9,282.7 L 351.7,283.3 L 354.6,284.0 L 357.4,284.7 L 360.2,285.3 L 363.0,286.0 L 365.8,286.7 L 368.6,287.3 L 371.5,288.0 L 374.3,288.7 L 377.1,289.3 L 379.9,290.0 L 382.7,290.7 L 385.5,291.3 L 388.4,292.0 L 391.2,292.7 L 394.0,293.3 L 396.8,294.0 L 399.6,294.7 L 402.4,295.3 L 405.3,296.0 L 408.1,296.7 L 410.9,297.3 L 413.7,298.0 L 416.5,298.7 L 419.4,299.3 L 422.2,300.0 L 425.0,300.7 L 427.8,301.3 L 430.6,302.0 L 433.4,302.7 L 436.3,303.3 L 439.1,304.0 L 441.9,304.7 L 444.7,305.3 L 447.5,306.0 L 450.3,306.7 L 453.2,307.3 L 456.0,308.0 L 458.8,308.7 L 461.6,309.3 L 464.4,310.0 L 467.2,310.7 L 470.1,311.3 L 472.9,312.0 L 475.7,312.7 L 478.5,313.3 L 481.3,314.0 L 484.2,314.7 L 487.0,315.3 L 489.8,316.0 L 492.6,316.7 L 495.4,317.4 L 498.2,318.0 L 501.1,318.7 L 503.9,319.4 L 506.7,320.0 L 509.5,320.7 L 512.3,321.4 L 515.1,322.0 L 518.0,322.7 L 520.8,323.4 L 523.6,324.0 L 526.4,324.7 L 529.2,325.4 L 532.0,326.0 L 534.9,326.7 L 537.7,327.4 L 540.5,328.0 L 543.3,328.7 L 546.1,329.4 L 548.9,330.0 L 551.8,330.7 L 554.6,331.4 L 557.4,332.0 L 560.2,332.7 L 563.0,333.4 L 565.9,334.0 L 568.7,334.7 L 571.5,335.4 L 574.3,336.0 L 577.1,336.7 L 579.9,337.4 L 582.8,338.0 L 585.6,338.7 L 588.4,339.4 L 591.2,340.0 L 594.0,340.7 L 596.8,341.4 L 599.7,342.0 L 602.5,342.7 L 605.3,343.4 L 608.1,344.0 L 610.9,344.7 L 613.7,345.4 L 616.6,346.0 L 619.4,346.7 L 622.2,347.4 L 625.0,348.0 L 627.8,348.7 L 630.7,349.4 L 633.5,350.0 L 636.3,350.7 L 639.1,351.4 L 641.9,352.0 L 644.7,352.7 L 647.6,353.4 L 650.4,354.0 L 653.2,364.4 L 656.0,383.9 L 658.8,395.0 L 661.6,395.0 L 664.5,395.0 L 667.3,395.0 L 670.1,395.0 L 672.9,395.0 L 675.7,395.0 L 678.5,395.0 L 681.4,395.0 L 684.2,395.0 L 687.0,395.0" class="rho"/>
<path d="M 121.1,168.3 L 146.7,262.5 L 172.1,312.0 L 197.8,326.5 L 223.2,343.9 L 248.8,360.0 L 274.5,367.4 L 300.3,372.7 L 326.2,380.8 L 351.8,384.5 L 375.8,386.6 L 401.6,389.0 L 427.3,390.7 L 453.1,391.7 L 479.0,392.4 L 504.8,392.8 L 530.7,393.1 L 556.3,393.5 L 580.3,393.8 L 606.1,393.9 L 631.8,394.0 L 657.6,394.1" class="phot"/>
<path d="M 121.1,168.3 L 146.7,230.1 L 172.1,286.4 L 197.8,304.6 L 223.2,310.9 L 248.8,331.6 L 274.5,350.4 L 300.3,354.0 L 326.2,354.4 L 351.8,361.2 L 375.8,368.2 L 401.6,372.4 L 427.3,381.3 L 453.1,389.8 L 479.0,388.3 L 504.8,384.0 L 530.7,388.2 L 556.3,392.0 L 580.3,391.1 L 606.1,388.3 L 631.8,382.4 L 657.6,381.1" class="mbar"/>
<path d="M 121.1,168.3 L 146.7,184.3 L 172.1,203.3 L 197.8,213.4 L 223.2,219.7 L 248.8,233.5 L 274.5,247.3 L 300.3,253.1 L 326.2,256.3 L 351.8,264.3 L 375.8,272.6 L 401.6,279.3 L 427.3,291.6 L 453.1,304.8 L 479.0,306.3 L 504.8,303.7 L 530.7,312.9 L 556.3,321.2 L 580.3,323.9 L 606.1,322.2 L 631.8,311.1 L 657.6,307.8" class="mph"/>
<path d="M 76.2,351.1 L 82.3,333.0 L 88.5,319.3 L 94.7,307.9 L 100.8,297.9 L 107.0,289.0 L 113.2,280.8 L 119.4,273.3 L 125.5,266.5 L 131.7,260.2 L 137.9,254.4 L 144.0,249.0 L 150.2,243.9 L 156.4,239.2 L 162.6,234.7 L 168.7,230.6 L 174.9,226.6 L 181.1,222.9 L 187.2,219.4 L 193.4,216.2 L 199.6,213.1 L 205.7,210.2 L 211.9,207.4 L 218.1,204.8 L 224.3,202.4 L 230.4,200.2 L 236.6,198.0 L 242.8,195.8 L 248.9,193.6 L 255.1,191.4 L 261.3,189.2 L 267.4,187.0 L 273.6,184.9 L 279.8,182.8 L 285.9,180.7 L 292.1,178.7 L 298.3,176.8 L 304.5,174.8 L 310.6,173.0 L 316.8,171.2 L 323.0,169.4 L 329.1,167.7 L 335.3,166.0 L 341.5,164.3 L 347.7,162.8 L 353.8,161.2 L 360.0,159.7 L 366.2,158.2 L 372.3,156.8 L 378.5,155.4 L 384.7,154.0 L 390.8,152.7 L 397.0,151.5 L 403.2,150.2 L 409.4,149.0 L 415.5,147.9 L 421.7,146.7 L 427.9,145.7 L 434.0,144.6 L 440.2,143.6 L 446.4,142.6 L 452.5,141.7 L 458.7,140.8 L 464.9,139.9 L 471.0,139.0 L 477.2,138.2 L 483.4,137.5 L 489.6,136.7 L 495.7,136.0 L 501.9,135.3 L 508.1,134.7 L 514.2,134.1 L 520.4,133.5 L 526.6,133.0 L 532.8,132.5 L 538.9,132.0 L 545.1,131.5 L 551.3,131.1 L 557.4,130.7 L 563.6,130.4 L 569.8,130.1 L 575.9,129.8 L 582.1,129.5 L 588.3,129.3 L 594.4,129.1 L 600.6,128.9 L 606.8,128.8 L 613.0,128.7 L 619.1,128.6 L 625.3,128.6 L 631.5,128.5 L 637.6,128.6 L 643.8,128.6 L 650.0,128.7 L 656.2,129.1 L 662.3,130.5 L 668.5,131.8 L 674.7,133.2 L 680.8,134.6 L 687.0,135.9" class="nt"/>
<path d="M 121.1,199.5 L 146.7,174.7 L 172.1,161.2 L 197.8,149.3 L 223.2,132.1 L 248.8,124.8 L 274.5,119.5 L 300.3,114.3 L 326.2,106.4 L 351.8,101.5 L 375.8,98.6 L 401.6,94.1 L 427.3,93.2 L 453.1,94.5 L 479.0,95.6 L 504.8,91.7 L 530.7,91.9 L 556.3,93.5 L 580.3,92.3 L 606.1,94.6 L 631.8,89.1 L 657.6,85.9" class="mond"/>
<path d="M 75.1,382.2 L 80.3,372.6 L 85.4,361.8 L 90.6,351.1 L 95.7,340.5 L 100.8,330.1 L 106.0,319.9 L 111.1,310.0 L 116.3,300.4 L 121.4,291.1 L 126.6,282.3 L 131.7,273.8 L 136.8,265.7 L 142.0,258.1 L 147.1,250.9 L 152.3,244.1 L 157.4,237.7 L 162.6,231.7 L 167.7,226.1 L 172.8,220.9 L 178.0,216.1 L 183.1,211.6 L 188.3,207.6 L 193.4,204.0 L 198.5,200.8 L 203.7,198.0 L 208.8,195.6 L 214.0,193.7 L 219.1,192.2 L 224.3,191.0 L 229.4,190.1 L 234.5,189.4 L 239.7,188.7 L 244.8,187.9 L 250.0,186.9 L 255.1,185.7 L 260.2,184.3 L 265.4,182.7 L 270.5,180.9 L 275.7,179.2 L 280.8,177.3 L 285.9,175.5 L 291.1,173.7 L 296.2,172.0 L 301.4,170.2 L 306.5,168.5 L 311.7,166.9 L 316.8,165.3 L 321.9,163.7 L 327.1,162.2 L 332.2,160.7 L 337.4,159.2 L 342.5,157.9 L 347.7,156.5 L 352.8,155.3 L 357.9,154.0 L 363.1,152.8 L 368.2,151.7 L 373.4,150.6 L 378.5,149.6 L 383.6,148.7 L 388.8,147.7 L 393.9,146.9 L 399.1,146.1 L 404.2,145.3 L 409.3,144.6 L 414.5,144.0 L 419.6,143.4 L 424.8,142.8 L 429.9,142.4 L 435.1,141.9 L 440.2,141.5 L 445.3,141.2 L 450.5,141.0 L 455.6,140.7 L 460.8,140.6 L 465.9,140.5 L 471.0,140.4 L 476.2,140.4 L 481.3,140.4 L 486.5,140.5 L 491.6,140.7 L 496.8,140.9 L 501.9,141.1 L 507.0,141.4 L 512.2,141.8 L 517.3,142.2 L 522.5,142.6 L 527.6,143.1 L 532.8,143.7 L 537.9,144.2 L 543.0,144.9 L 548.2,145.5 L 553.3,146.2 L 558.5,147.0 L 563.6,147.7 L 568.7,148.5 L 573.9,149.3 L 579.0,150.2 L 584.2,151.0 L 589.3,151.9 L 594.4,152.8 L 599.6,153.7 L 604.7,154.5 L 609.9,155.4 L 615.0,156.2 L 620.2,157.0 L 625.3,157.8 L 630.4,158.7 L 635.6,159.6 L 640.7,160.8 L 645.9,162.4 L 651.0,164.4 L 656.1,167.0 L 661.3,170.2 L 666.4,173.9 L 671.6,177.8 L 676.7,181.8 L 681.9,185.9 L 687.0,189.8" class="fw"/>
<line x1="121.07" y1="285.64" x2="121.07" y2="303.97" class="err"/>
<line x1="118.07" y1="285.64" x2="124.07" y2="285.64" class="err"/>
<line x1="118.07" y1="303.97" x2="124.07" y2="303.97" class="err"/>
<circle cx="121.07" cy="294.81" r="2.5" class="obs"/>
<line x1="146.71" y1="246.73" x2="146.71" y2="259.13" class="err"/>
<line x1="143.71" y1="246.73" x2="149.71" y2="246.73" class="err"/>
<line x1="143.71" y1="259.13" x2="149.71" y2="259.13" class="err"/>
<circle cx="146.71" cy="252.93" r="2.5" class="obs"/>
<line x1="172.14" y1="215.53" x2="172.14" y2="229.77" class="err"/>
<line x1="169.14" y1="215.53" x2="175.14" y2="215.53" class="err"/>
<line x1="169.14" y1="229.77" x2="175.14" y2="229.77" class="err"/>
<circle cx="172.14" cy="222.65" r="2.5" class="obs"/>
<line x1="197.78" y1="195.38" x2="197.78" y2="208.04" class="err"/>
<line x1="194.78" y1="195.38" x2="200.78" y2="195.38" class="err"/>
<line x1="194.78" y1="208.04" x2="200.78" y2="208.04" class="err"/>
<circle cx="197.78" cy="201.71" r="2.5" class="obs"/>
<line x1="223.21" y1="186.97" x2="223.21" y2="203.56" class="err"/>
<line x1="220.21" y1="186.97" x2="226.21" y2="186.97" class="err"/>
<line x1="220.21" y1="203.56" x2="226.21" y2="203.56" class="err"/>
<circle cx="223.21" cy="195.26" r="2.5" class="obs"/>
<line x1="248.85" y1="181.91" x2="248.85" y2="195.73" class="err"/>
<line x1="245.85" y1="181.91" x2="251.85" y2="181.91" class="err"/>
<line x1="245.85" y1="195.73" x2="251.85" y2="195.73" class="err"/>
<circle cx="248.85" cy="188.82" r="2.5" class="obs"/>
<line x1="274.49" y1="172.13" x2="274.49" y2="189.40" class="err"/>
<line x1="271.49" y1="172.13" x2="277.49" y2="172.13" class="err"/>
<line x1="271.49" y1="189.40" x2="277.49" y2="189.40" class="err"/>
<circle cx="274.49" cy="180.77" r="2.5" class="obs"/>
<line x1="300.34" y1="161.79" x2="300.34" y2="183.63" class="err"/>
<line x1="297.34" y1="161.79" x2="303.34" y2="161.79" class="err"/>
<line x1="297.34" y1="183.63" x2="303.34" y2="183.63" class="err"/>
<circle cx="300.34" cy="172.71" r="2.5" class="obs"/>
<line x1="326.19" y1="154.32" x2="326.19" y2="175.00" class="err"/>
<line x1="323.19" y1="154.32" x2="329.19" y2="154.32" class="err"/>
<line x1="323.19" y1="175.00" x2="329.19" y2="175.00" class="err"/>
<circle cx="326.19" cy="164.66" r="2.5" class="obs"/>
<line x1="351.83" y1="151.13" x2="351.83" y2="168.52" class="err"/>
<line x1="348.83" y1="151.13" x2="354.83" y2="151.13" class="err"/>
<line x1="348.83" y1="168.52" x2="354.83" y2="168.52" class="err"/>
<circle cx="351.83" cy="159.83" r="2.5" class="obs"/>
<line x1="375.79" y1="149.36" x2="375.79" y2="163.85" class="err"/>
<line x1="372.79" y1="149.36" x2="378.79" y2="149.36" class="err"/>
<line x1="372.79" y1="163.85" x2="378.79" y2="163.85" class="err"/>
<circle cx="375.79" cy="156.60" r="2.5" class="obs"/>
<line x1="401.64" y1="139.76" x2="401.64" y2="154.12" class="err"/>
<line x1="398.64" y1="139.76" x2="404.64" y2="139.76" class="err"/>
<line x1="398.64" y1="154.12" x2="404.64" y2="154.12" class="err"/>
<circle cx="401.64" cy="146.94" r="2.5" class="obs"/>
<line x1="427.28" y1="134.02" x2="427.28" y2="146.97" class="err"/>
<line x1="424.28" y1="134.02" x2="430.28" y2="134.02" class="err"/>
<line x1="424.28" y1="146.97" x2="430.28" y2="146.97" class="err"/>
<circle cx="427.28" cy="140.50" r="2.5" class="obs"/>
<line x1="453.13" y1="130.72" x2="453.13" y2="147.05" class="err"/>
<line x1="450.13" y1="130.72" x2="456.13" y2="130.72" class="err"/>
<line x1="450.13" y1="147.05" x2="456.13" y2="147.05" class="err"/>
<circle cx="453.13" cy="138.89" r="2.5" class="obs"/>
<line x1="478.98" y1="125.47" x2="478.98" y2="149.08" class="err"/>
<line x1="475.98" y1="125.47" x2="481.98" y2="125.47" class="err"/>
<line x1="475.98" y1="149.08" x2="481.98" y2="149.08" class="err"/>
<circle cx="478.98" cy="137.27" r="2.5" class="obs"/>
<line x1="504.83" y1="127.90" x2="504.83" y2="153.09" class="err"/>
<line x1="501.83" y1="127.90" x2="507.83" y2="127.90" class="err"/>
<line x1="501.83" y1="153.09" x2="507.83" y2="153.09" class="err"/>
<circle cx="504.83" cy="140.50" r="2.5" class="obs"/>
<line x1="530.68" y1="132.33" x2="530.68" y2="158.33" class="err"/>
<line x1="527.68" y1="132.33" x2="533.68" y2="132.33" class="err"/>
<line x1="527.68" y1="158.33" x2="533.68" y2="158.33" class="err"/>
<circle cx="530.68" cy="145.33" r="2.5" class="obs"/>
<line x1="556.32" y1="130.94" x2="556.32" y2="156.49" class="err"/>
<line x1="553.32" y1="130.94" x2="559.32" y2="130.94" class="err"/>
<line x1="553.32" y1="156.49" x2="559.32" y2="156.49" class="err"/>
<circle cx="556.32" cy="143.72" r="2.5" class="obs"/>
<line x1="580.28" y1="132.30" x2="580.28" y2="161.58" class="err"/>
<line x1="577.28" y1="132.30" x2="583.28" y2="132.30" class="err"/>
<line x1="577.28" y1="161.58" x2="583.28" y2="161.58" class="err"/>
<circle cx="580.28" cy="146.94" r="2.5" class="obs"/>
<line x1="606.13" y1="131.80" x2="606.13" y2="174.97" class="err"/>
<line x1="603.13" y1="131.80" x2="609.13" y2="131.80" class="err"/>
<line x1="603.13" y1="174.97" x2="609.13" y2="174.97" class="err"/>
<circle cx="606.13" cy="153.38" r="2.5" class="obs"/>
<line x1="631.77" y1="135.50" x2="631.77" y2="200.26" class="err"/>
<line x1="628.77" y1="135.50" x2="634.77" y2="135.50" class="err"/>
<line x1="628.77" y1="200.26" x2="634.77" y2="200.26" class="err"/>
<circle cx="631.77" cy="167.88" r="2.5" class="obs"/>
<line x1="657.62" y1="124.39" x2="657.62" y2="175.93" class="err"/>
<line x1="654.62" y1="124.39" x2="660.62" y2="124.39" class="err"/>
<line x1="654.62" y1="175.93" x2="660.62" y2="175.93" class="err"/>
<circle cx="657.62" cy="150.16" r="2.5" class="obs"/>
<g class="legend">
<line x1="82" y1="69" x2="106" y2="69" class="fw"/>
<text x="112" y="73" class="lbl-l">framework: 3.1 km/s, 2.2%, 0.34σ</text>
<line x1="82" y1="87" x2="106" y2="87" class="nt"/>
<text x="112" y="91" class="lbl-l">Newtonian: 8.6 km/s, 7.5%, 0.99σ</text>
<line x1="82" y1="105" x2="106" y2="105" class="mond"/>
<text x="112" y="109" class="lbl-m">MOND/RAR: 37.5 km/s, 33.7%, 6.76σ</text>
<circle cx="94" cy="123" r="2.5" class="obs"/>
<text x="112" y="127" class="lbl">observed V±err</text>
</g>
<g class="legend">
<line x1="472" y1="69" x2="496" y2="69" class="rho"/>
<text x="502" y="73" class="lbl-r">ρ(r) raw</text>
<line x1="472" y1="87" x2="496" y2="87" class="phot"/>
<text x="502" y="91" class="lbl-p">photometric baryonic profile</text>
<line x1="472" y1="105" x2="496" y2="105" class="mbar"/>
<text x="502" y="109" class="lbl-m">MOND baryonic annulus</text>
<line x1="472" y1="123" x2="496" y2="123" class="mph"/>
<text x="502" y="127" class="lbl-m">MOND phantom annulus</text>
<text x="472" y="147" class="lbl-r">ρ peak: 189 M☉/pc²</text>
<text x="472" y="163" class="lbl-p">phot peak: 201.18 (arb.)</text>
<text x="472" y="179" class="lbl-m">Σbar peak: 260.10 M☉/pc²</text>
<text x="472" y="195" class="lbl-m">Σphantom peak: 157.36 M☉/pc²</text>
</g>
<rect x="775" y="55" width="170" height="170" class="preview-bg"/>
<defs><radialGradient id="g_UGC09037" cx="0.5" cy="0.5" r="0.5">
  <stop offset="0.0000" stop-color="rgb(88,88,88)"/>
  <stop offset="0.0313" stop-color="rgb(87,87,87)"/>
  <stop offset="0.0625" stop-color="rgb(85,85,85)"/>
  <stop offset="0.0938" stop-color="rgb(83,83,83)"/>
  <stop offset="0.1250" stop-color="rgb(80,80,80)"/>
  <stop offset="0.1563" stop-color="rgb(78,78,78)"/>
  <stop offset="0.1875" stop-color="rgb(75,75,75)"/>
  <stop offset="0.2188" stop-color="rgb(72,72,72)"/>
  <stop offset="0.2500" stop-color="rgb(69,69,69)"/>
  <stop offset="0.2813" stop-color="rgb(67,67,67)"/>
  <stop offset="0.3125" stop-color="rgb(67,67,67)"/>
  <stop offset="0.3438" stop-color="rgb(66,66,66)"/>
  <stop offset="0.3750" stop-color="rgb(65,65,65)"/>
  <stop offset="0.4063" stop-color="rgb(64,64,64)"/>
  <stop offset="0.4375" stop-color="rgb(62,62,62)"/>
  <stop offset="0.4688" stop-color="rgb(60,60,60)"/>
  <stop offset="0.5000" stop-color="rgb(58,58,58)"/>
  <stop offset="0.5313" stop-color="rgb(55,55,55)"/>
  <stop offset="0.5625" stop-color="rgb(53,53,53)"/>
  <stop offset="0.5938" stop-color="rgb(51,51,51)"/>
  <stop offset="0.6250" stop-color="rgb(49,49,49)"/>
  <stop offset="0.6563" stop-color="rgb(46,46,46)"/>
  <stop offset="0.6875" stop-color="rgb(44,44,44)"/>
  <stop offset="0.7188" stop-color="rgb(42,42,42)"/>
  <stop offset="0.7500" stop-color="rgb(39,39,39)"/>
  <stop offset="0.7813" stop-color="rgb(37,37,37)"/>
  <stop offset="0.8125" stop-color="rgb(35,35,35)"/>
  <stop offset="0.8438" stop-color="rgb(32,32,32)"/>
  <stop offset="0.8750" stop-color="rgb(30,30,30)"/>
  <stop offset="0.9063" stop-color="rgb(28,28,28)"/>
  <stop offset="0.9375" stop-color="rgb(25,25,25)"/>
  <stop offset="0.9688" stop-color="rgb(23,23,23)"/>
  <stop offset="1.0000" stop-color="rgb(0,0,0)"/>
</radialGradient></defs>
<circle cx="860" cy="140" r="81" fill="url(#g_UGC09037)"/>
<text x="860" y="49" text-anchor="middle" class="preview-lbl">face-on luminance from ρ(r)</text>
<text x="860" y="239" text-anchor="middle" class="preview-lbl">edge at r = 28.0 kpc</text>
</svg>