<svg xmlns="http://www.w3.org/2000/svg" viewBox="0 0 960 450" width="960" height="450" font-family="sans-serif" font-size="12">
<style>
  .ax { stroke: #333; stroke-width: 1; fill: none; }
  .grid { stroke: #ddd; stroke-width: 0.5; fill: none; }
  .lbl { fill: #333; }
  .lbl-l { fill: #0066cc; }
  .lbl-r { fill: #b03030; }
  .obs { fill: #222; }
  .err { stroke: #555; stroke-width: 0.8; fill: none; }
  .fw { stroke: #0066cc; stroke-width: 2.2; fill: none; }
  .nt { stroke: #cc6600; stroke-width: 1.6; fill: none; stroke-dasharray: 5,3; }
  .mond { stroke: #7b2cbf; stroke-width: 1.8; fill: none; stroke-dasharray: 7,3; }
  .lbl-p { fill: #cc7000; }
  .lbl-m { fill: #7b2cbf; }
  .rho { stroke: #b03030; stroke-width: 2.0; fill: none; }
  .phot { stroke: #cc7000; stroke-width: 1.8; fill: none; }
  .mbar { stroke: #8e44ad; stroke-width: 1.8; fill: none; opacity: 0.9; }
  .mph { stroke: #c77dff; stroke-width: 1.6; fill: none; stroke-dasharray: 4,3; opacity: 0.95; }
  .title { fill: #111; font-size: 16px; font-weight: 600; }
  .subtitle { fill: #555; font-size: 11px; }
  .preview-bg { fill: #000; }
  .preview-lbl { fill: #888; font-size: 10px; }
  .legend { font-size: 11px; }
</style>
<text x="378.5" y="22" text-anchor="middle" class="title">UGC05986</text>
<text x="378.5" y="38" text-anchor="middle" class="subtitle">rMax=9.4 kpc, N=15, FW=5.5 km/s, 6.2%, 1.36σ, MOND=15.2 km/s, 15.3%, 5.48σ, amp=504</text>
<line x1="70" y1="395.0" x2="687" y2="395.0" class="grid"/>
<text x="64" y="399.0" text-anchor="end" class="lbl-l">0</text>
<line x1="70" y1="327.0" x2="687" y2="327.0" class="grid"/>
<text x="64" y="331.0" text-anchor="end" class="lbl-l">28</text>
<line x1="70" y1="259.0" x2="687" y2="259.0" class="grid"/>
<text x="64" y="263.0" text-anchor="end" class="lbl-l">55</text>
<line x1="70" y1="191.0" x2="687" y2="191.0" class="grid"/>
<text x="64" y="195.0" text-anchor="end" class="lbl-l">83</text>
<line x1="70" y1="123.0" x2="687" y2="123.0" class="grid"/>
<text x="64" y="127.0" text-anchor="end" class="lbl-l">111</text>
<line x1="70" y1="55.0" x2="687" y2="55.0" class="grid"/>
<text x="64" y="59.0" text-anchor="end" class="lbl-l">138</text>
<text x="693" y="399.0" text-anchor="start" class="lbl-r">0.0</text>
<text x="693" y="353.7" text-anchor="start" class="lbl-r">0.2</text>
<text x="693" y="308.3" text-anchor="start" class="lbl-r">0.4</text>
<text x="693" y="263.0" text-anchor="start" class="lbl-r">0.6</text>
<text x="693" y="217.7" text-anchor="start" class="lbl-r">0.8</text>
<text x="693" y="172.3" text-anchor="start" class="lbl-r">1.0</text>
<line x1="70.0" y1="55" x2="70.0" y2="395" class="grid"/>
<text x="70.0" y="411" text-anchor="middle" class="lbl">0.0</text>
<line x1="172.8" y1="55" x2="172.8" y2="395" class="grid"/>
<text x="172.8" y="411" text-anchor="middle" class="lbl">1.6</text>
<line x1="275.7" y1="55" x2="275.7" y2="395" class="grid"/>
<text x="275.7" y="411" text-anchor="middle" class="lbl">3.3</text>
<line x1="378.5" y1="55" x2="378.5" y2="395" class="grid"/>
<text x="378.5" y="411" text-anchor="middle" class="lbl">4.9</text>
<line x1="481.3" y1="55" x2="481.3" y2="395" class="grid"/>
<text x="481.3" y="411" text-anchor="middle" class="lbl">6.6</text>
<line x1="584.2" y1="55" x2="584.2" y2="395" class="grid"/>
<text x="584.2" y="411" text-anchor="middle" class="lbl">8.2</text>
<line x1="687.0" y1="55" x2="687.0" y2="395" class="grid"/>
<text x="687.0" y="411" text-anchor="middle" class="lbl">9.9</text>
<text x="378.5" y="438" text-anchor="middle" class="lbl">radius (kpc)</text>
<text x="16" y="225" text-anchor="middle" class="lbl-l" transform="rotate(-90, 16, 225)">velocity (km/s)</text>
<text x="724" y="225" text-anchor="middle" class="lbl-r" transform="rotate(-90, 724, 225)">profiles (normalized to peak)</text>
<rect x="70" y="55" width="617" height="340" class="ax"/>
<path d="M 70.0,168.3 L 72.8,168.3 L 75.6,168.3 L 78.5,168.3 L 81.3,168.3 L 84.1,168.3 L 86.9,168.3 L 89.7,168.3 L 92.5,168.3 L 95.4,168.3 L 98.2,168.3 L 101.0,168.3 L 103.8,168.3 L 106.6,168.3 L 109.4,168.3 L 112.3,168.3 L 115.1,168.3 L 117.9,168.3 L 120.7,168.3 L 123.5,168.3 L 126.3,168.3 L 129.2,168.3 L 132.0,168.7 L 134.8,170.1 L 137.6,171.5 L 140.4,172.9 L 143.3,174.4 L 146.1,175.8 L 148.9,177.2 L 151.7,178.6 L 154.5,180.1 L 157.3,181.5 L 160.2,182.9 L 163.0,184.3 L 165.8,185.8 L 168.6,187.2 L 171.4,188.6 L 174.2,190.0 L 177.1,191.5 L 179.9,192.9 L 182.7,194.3 L 185.5,195.7 L 188.3,197.2 L 191.1,198.6 L 194.0,200.0 L 196.8,201.4 L 199.6,202.9 L 202.4,203.4 L 205.2,203.4 L 208.1,203.4 L 210.9,203.4 L 213.7,203.4 L 216.5,203.4 L 219.3,203.4 L 222.1,203.4 L 225.0,203.4 L 227.8,203.4 L 230.6,203.4 L 233.4,203.4 L 236.2,203.9 L 239.0,204.6 L 241.9,205.4 L 244.7,206.1 L 247.5,206.8 L 250.3,207.5 L 253.1,208.3 L 255.9,209.0 L 258.8,209.7 L 261.6,210.4 L 264.4,211.2 L 267.2,211.9 L 270.0,212.6 L 272.8,213.3 L 275.7,214.1 L 278.5,214.8 L 281.3,215.5 L 284.1,216.3 L 286.9,217.0 L 289.8,217.7 L 292.6,218.4 L 295.4,219.2 L 298.2,219.9 L 301.0,220.6 L 303.8,221.3 L 306.7,222.1 L 309.5,222.8 L 312.3,223.5 L 315.1,224.2 L 317.9,225.0 L 320.7,225.7 L 323.6,226.4 L 326.4,227.2 L 329.2,227.9 L 332.0,228.6 L 334.8,229.3 L 337.6,230.1 L 340.5,230.8 L 343.3,231.5 L 346.1,232.2 L 348.9,233.0 L 351.7,233.7 L 354.6,234.4 L 357.4,235.1 L 360.2,235.9 L 363.0,236.6 L 365.8,237.3 L 368.6,238.1 L 371.5,238.8 L 374.3,239.5 L 377.1,240.2 L 379.9,241.0 L 382.7,241.7 L 385.5,242.4 L 388.4,243.1 L 391.2,243.9 L 394.0,244.6 L 396.8,245.3 L 399.6,246.0 L 402.4,246.8 L 405.3,247.5 L 408.1,248.2 L 410.9,249.0 L 413.7,249.7 L 416.5,250.4 L 419.4,251.1 L 422.2,251.9 L 425.0,252.6 L 427.8,253.3 L 430.6,254.0 L 433.4,254.8 L 436.3,255.5 L 439.1,256.2 L 441.9,256.9 L 444.7,257.7 L 447.5,258.4 L 450.3,259.1 L 453.2,259.8 L 456.0,260.6 L 458.8,261.3 L 461.6,262.0 L 464.4,262.8 L 467.2,263.5 L 470.1,264.2 L 472.9,264.9 L 475.7,265.7 L 478.5,266.4 L 481.3,267.1 L 484.2,267.8 L 487.0,268.6 L 489.8,269.3 L 492.6,270.0 L 495.4,270.7 L 498.2,271.5 L 501.1,272.2 L 503.9,272.9 L 506.7,273.7 L 509.5,274.4 L 512.3,275.1 L 515.1,275.8 L 518.0,276.6 L 520.8,277.3 L 523.6,278.0 L 526.4,278.7 L 529.2,279.5 L 532.0,280.2 L 534.9,280.9 L 537.7,281.6 L 540.5,282.4 L 543.3,283.1 L 546.1,283.8 L 548.9,284.6 L 551.8,285.3 L 554.6,286.0 L 557.4,286.7 L 560.2,287.5 L 563.0,288.2 L 565.9,288.9 L 568.7,289.6 L 571.5,290.4 L 574.3,291.1 L 577.1,291.8 L 579.9,292.5 L 582.8,293.3 L 585.6,294.0 L 588.4,294.7 L 591.2,295.5 L 594.0,296.2 L 596.8,296.9 L 599.7,297.6 L 602.5,298.4 L 605.3,299.1 L 608.1,299.8 L 610.9,300.5 L 613.7,301.3 L 616.6,302.0 L 619.4,302.7 L 622.2,303.4 L 625.0,304.2 L 627.8,304.9 L 630.7,305.6 L 633.5,306.3 L 636.3,307.1 L 639.1,307.8 L 641.9,308.5 L 644.7,309.3 L 647.6,310.0 L 650.4,310.7 L 653.2,311.4 L 656.0,312.2 L 658.8,312.9 L 661.6,313.6 L 664.5,314.3 L 667.3,315.1 L 670.1,315.8 L 672.9,316.5 L 675.7,317.2 L 678.5,318.0 L 681.4,318.7 L 684.2,321.3 L 687.0,357.6" class="rho"/>
<path d="M 109.3,168.3 L 148.7,250.2 L 187.4,270.4 L 226.7,302.2 L 265.5,337.5 L 305.4,355.4 L 344.1,366.2 L 383.5,380.1 L 422.8,387.2 L 462.2,391.6 L 500.9,395.0 L 540.8,395.0 L 579.6,395.0 L 618.9,395.0 L 657.6,395.0" class="phot"/>
<path d="M 109.3,199.5 L 148.7,211.0 L 187.4,186.2 L 226.7,168.3 L 265.5,208.6 L 305.4,251.0 L 344.1,265.3 L 383.5,297.8 L 422.8,350.0 L 462.2,379.1 L 500.9,385.3 L 540.8,391.2 L 579.6,393.5 L 618.9,383.0 L 657.6,366.4" class="mbar"/>
<path d="M 109.3,181.0 L 148.7,185.8 L 187.4,175.6 L 226.7,168.3 L 265.5,184.6 L 305.4,202.4 L 344.1,209.9 L 383.5,227.8 L 422.8,258.6 L 462.2,281.0 L 500.9,294.9 L 540.8,311.9 L 579.6,321.2 L 618.9,311.3 L 657.6,294.3" class="mph"/>
<path d="M 76.2,353.6 L 82.3,336.5 L 88.5,323.3 L 94.7,312.2 L 100.8,302.5 L 107.0,293.6 L 113.2,285.5 L 119.4,278.0 L 125.5,270.9 L 131.7,264.2 L 137.9,257.9 L 144.0,252.0 L 150.2,246.5 L 156.4,241.3 L 162.6,236.4 L 168.7,231.8 L 174.9,227.4 L 181.1,223.2 L 187.2,219.2 L 193.4,215.4 L 199.6,211.8 L 205.7,208.2 L 211.9,204.8 L 218.1,201.3 L 224.3,197.9 L 230.4,194.5 L 236.6,191.2 L 242.8,187.9 L 248.9,184.7 L 255.1,181.7 L 261.3,178.7 L 267.4,175.7 L 273.6,172.9 L 279.8,170.1 L 286.0,167.4 L 292.1,164.8 L 298.3,162.2 L 304.5,159.7 L 310.6,157.3 L 316.8,154.9 L 323.0,152.6 L 329.1,150.3 L 335.3,148.1 L 341.5,145.9 L 347.7,143.8 L 353.8,141.7 L 360.0,139.7 L 366.2,137.7 L 372.3,135.8 L 378.5,133.9 L 384.7,132.1 L 390.8,130.3 L 397.0,128.6 L 403.2,126.9 L 409.4,125.2 L 415.5,123.6 L 421.7,122.0 L 427.9,120.4 L 434.0,118.9 L 440.2,117.4 L 446.4,116.0 L 452.5,114.6 L 458.7,113.2 L 464.9,111.9 L 471.1,110.6 L 477.2,109.3 L 483.4,108.1 L 489.6,106.9 L 495.7,105.8 L 501.9,104.6 L 508.1,103.5 L 514.2,102.5 L 520.4,101.4 L 526.6,100.4 L 532.8,99.4 L 538.9,98.5 L 545.1,97.6 L 551.3,96.7 L 557.4,95.8 L 563.6,95.0 L 569.8,94.2 L 575.9,93.5 L 582.1,92.7 L 588.3,92.0 L 594.4,91.3 L 600.6,90.7 L 606.8,90.0 L 613.0,89.4 L 619.1,88.9 L 625.3,88.3 L 631.5,87.8 L 637.6,87.3 L 643.8,86.9 L 650.0,86.4 L 656.1,86.0 L 662.3,85.6 L 668.5,85.3 L 674.7,84.9 L 680.8,84.6 L 687.0,84.4" class="nt"/>
<path d="M 109.3,303.7 L 148.7,272.7 L 187.4,240.9 L 226.7,208.7 L 265.5,191.6 L 305.4,180.1 L 344.1,167.2 L 383.5,158.0 L 422.8,156.8 L 462.2,157.9 L 500.9,157.7 L 540.8,160.7 L 579.6,163.9 L 618.9,163.9 L 657.6,158.8" class="mond"/>
<path d="M 75.1,384.6 L 80.3,376.7 L 85.4,367.7 L 90.6,358.6 L 95.7,349.4 L 100.8,340.0 L 106.0,330.5 L 111.1,320.9 L 116.3,311.1 L 121.4,301.3 L 126.6,291.5 L 131.7,281.9 L 136.8,272.6 L 142.0,263.8 L 147.1,255.6 L 152.3,248.0 L 157.4,241.1 L 162.6,235.0 L 167.7,229.6 L 172.8,224.8 L 178.0,220.8 L 183.1,217.4 L 188.3,214.6 L 193.4,212.4 L 198.5,210.6 L 203.7,208.9 L 208.8,207.2 L 214.0,205.2 L 219.1,202.9 L 224.3,200.0 L 229.4,196.7 L 234.5,193.1 L 239.7,189.2 L 244.8,185.1 L 250.0,181.1 L 255.1,177.2 L 260.2,173.3 L 265.4,169.7 L 270.5,166.1 L 275.7,162.8 L 280.8,159.6 L 285.9,156.5 L 291.1,153.5 L 296.2,150.7 L 301.4,148.0 L 306.5,145.4 L 311.7,143.0 L 316.8,140.6 L 321.9,138.3 L 327.1,136.2 L 332.2,134.1 L 337.4,132.1 L 342.5,130.2 L 347.6,128.4 L 352.8,126.7 L 357.9,125.1 L 363.1,123.5 L 368.2,122.1 L 373.4,120.7 L 378.5,119.3 L 383.6,118.1 L 388.8,116.9 L 393.9,115.8 L 399.1,114.8 L 404.2,113.8 L 409.3,112.9 L 414.5,112.0 L 419.6,111.3 L 424.8,110.5 L 429.9,109.9 L 435.1,109.3 L 440.2,108.8 L 445.3,108.3 L 450.5,107.8 L 455.6,107.5 L 460.8,107.2 L 465.9,106.9 L 471.1,106.7 L 476.2,106.5 L 481.3,106.4 L 486.5,106.3 L 491.6,106.3 L 496.8,106.3 L 501.9,106.4 L 507.0,106.5 L 512.2,106.6 L 517.3,106.8 L 522.5,107.0 L 527.6,107.2 L 532.8,107.5 L 537.9,107.8 L 543.0,108.0 L 548.2,108.3 L 553.3,108.6 L 558.5,108.9 L 563.6,109.2 L 568.7,109.4 L 573.9,109.6 L 579.0,109.7 L 584.2,109.8 L 589.3,109.8 L 594.4,109.6 L 599.6,109.2 L 604.7,108.7 L 609.9,107.8 L 615.0,106.7 L 620.2,105.2 L 625.3,103.4 L 630.4,101.2 L 635.6,98.9 L 640.7,96.8 L 645.9,95.3 L 651.0,95.3 L 656.1,97.0 L 661.3,101.0 L 666.4,107.2 L 671.6,115.0 L 676.7,123.8 L 681.9,132.9 L 687.0,141.9" class="fw"/>
<line x1="109.34" y1="316.36" x2="109.34" y2="328.79" class="err"/>
<line x1="106.34" y1="316.36" x2="112.34" y2="316.36" class="err"/>
<line x1="106.34" y1="328.79" x2="112.34" y2="328.79" class="err"/>
<circle cx="109.34" cy="322.57" r="2.5" class="obs"/>
<line x1="148.68" y1="261.05" x2="148.68" y2="279.51" class="err"/>
<line x1="145.68" y1="261.05" x2="151.68" y2="261.05" class="err"/>
<line x1="145.68" y1="279.51" x2="151.68" y2="279.51" class="err"/>
<circle cx="148.68" cy="270.28" r="2.5" class="obs"/>
<line x1="187.40" y1="221.23" x2="187.40" y2="233.89" class="err"/>
<line x1="184.40" y1="221.23" x2="190.40" y2="221.23" class="err"/>
<line x1="184.40" y1="233.89" x2="190.40" y2="233.89" class="err"/>
<circle cx="187.40" cy="227.56" r="2.5" class="obs"/>
<line x1="226.74" y1="182.43" x2="226.74" y2="193.63" class="err"/>
<line x1="223.74" y1="182.43" x2="229.74" y2="182.43" class="err"/>
<line x1="223.74" y1="193.63" x2="229.74" y2="193.63" class="err"/>
<circle cx="226.74" cy="188.03" r="2.5" class="obs"/>
<line x1="265.46" y1="156.09" x2="265.46" y2="165.96" class="err"/>
<line x1="262.46" y1="156.09" x2="268.46" y2="156.09" class="err"/>
<line x1="262.46" y1="165.96" x2="268.46" y2="165.96" class="err"/>
<circle cx="265.46" cy="161.03" r="2.5" class="obs"/>
<line x1="305.42" y1="125.97" x2="305.42" y2="143.55" class="err"/>
<line x1="302.42" y1="125.97" x2="308.42" y2="125.97" class="err"/>
<line x1="302.42" y1="143.55" x2="308.42" y2="143.55" class="err"/>
<circle cx="305.42" cy="134.76" r="2.5" class="obs"/>
<line x1="344.14" y1="109.59" x2="344.14" y2="130.46" class="err"/>
<line x1="341.14" y1="109.59" x2="347.14" y2="109.59" class="err"/>
<line x1="341.14" y1="130.46" x2="347.14" y2="130.46" class="err"/>
<circle cx="344.14" cy="120.02" r="2.5" class="obs"/>
<line x1="383.48" y1="104.85" x2="383.48" y2="120.47" class="err"/>
<line x1="380.48" y1="104.85" x2="386.48" y2="104.85" class="err"/>
<line x1="380.48" y1="120.47" x2="386.48" y2="120.47" class="err"/>
<circle cx="383.48" cy="112.66" r="2.5" class="obs"/>
<line x1="422.82" y1="104.51" x2="422.82" y2="115.90" class="err"/>
<line x1="419.82" y1="104.51" x2="425.82" y2="104.51" class="err"/>
<line x1="419.82" y1="115.90" x2="425.82" y2="115.90" class="err"/>
<circle cx="422.82" cy="110.20" r="2.5" class="obs"/>
<line x1="462.16" y1="105.27" x2="462.16" y2="115.14" class="err"/>
<line x1="459.16" y1="105.27" x2="465.16" y2="105.27" class="err"/>
<line x1="459.16" y1="115.14" x2="465.16" y2="115.14" class="err"/>
<circle cx="462.16" cy="110.20" r="2.5" class="obs"/>
<line x1="500.88" y1="104.61" x2="500.88" y2="115.80" class="err"/>
<line x1="497.88" y1="104.61" x2="503.88" y2="104.61" class="err"/>
<line x1="497.88" y1="115.80" x2="503.88" y2="115.80" class="err"/>
<circle cx="500.88" cy="110.20" r="2.5" class="obs"/>
<line x1="540.84" y1="107.63" x2="540.84" y2="122.60" class="err"/>
<line x1="537.84" y1="107.63" x2="543.84" y2="107.63" class="err"/>
<line x1="537.84" y1="122.60" x2="543.84" y2="122.60" class="err"/>
<circle cx="540.84" cy="115.11" r="2.5" class="obs"/>
<line x1="579.56" y1="110.97" x2="579.56" y2="129.08" class="err"/>
<line x1="576.56" y1="110.97" x2="582.56" y2="110.97" class="err"/>
<line x1="576.56" y1="129.08" x2="582.56" y2="129.08" class="err"/>
<circle cx="579.56" cy="120.02" r="2.5" class="obs"/>
<line x1="618.90" y1="114.87" x2="618.90" y2="139.91" class="err"/>
<line x1="615.90" y1="114.87" x2="621.90" y2="114.87" class="err"/>
<line x1="615.90" y1="139.91" x2="621.90" y2="139.91" class="err"/>
<circle cx="618.90" cy="127.39" r="2.5" class="obs"/>
<line x1="657.62" y1="116.61" x2="657.62" y2="147.99" class="err"/>
<line x1="654.62" y1="116.61" x2="660.62" y2="116.61" class="err"/>
<line x1="654.62" y1="147.99" x2="660.62" y2="147.99" class="err"/>
<circle cx="657.62" cy="132.30" r="2.5" class="obs"/>
<g class="legend">
<line x1="82" y1="69" x2="106" y2="69" class="fw"/>
<text x="112" y="73" class="lbl-l">framework: 5.5 km/s, 6.2%, 1.36σ</text>
<line x1="82" y1="87" x2="106" y2="87" class="nt"/>
<text x="112" y="91" class="lbl-l">Newtonian: 9.6 km/s, 14.7%, 2.63σ</text>
<line x1="82" y1="105" x2="106" y2="105" class="mond"/>
<text x="112" y="109" class="lbl-m">MOND/RAR: 15.2 km/s, 15.3%, 5.48σ</text>
<circle cx="94" cy="123" r="2.5" class="obs"/>
<text x="112" y="127" class="lbl">observed V±err</text>
</g>
<g class="legend">
<line x1="472" y1="69" x2="496" y2="69" class="rho"/>
<text x="502" y="73" class="lbl-r">ρ(r) raw</text>
<line x1="472" y1="87" x2="496" y2="87" class="phot"/>
<text x="502" y="91" class="lbl-p">photometric baryonic profile</text>
<line x1="472" y1="105" x2="496" y2="105" class="mbar"/>
<text x="502" y="109" class="lbl-m">MOND baryonic annulus</text>
<line x1="472" y1="123" x2="496" y2="123" class="mph"/>
<text x="502" y="127" class="lbl-m">MOND phantom annulus</text>
<text x="472" y="147" class="lbl-r">ρ peak: 213 M☉/pc²</text>
<text x="472" y="163" class="lbl-p">phot peak: 95.45 (arb.)</text>
<text x="472" y="179" class="lbl-m">Σbar peak: 67.11 M☉/pc²</text>
<text x="472" y="195" class="lbl-m">Σphantom peak: 105.00 M☉/pc²</text>
</g>
<rect x="775" y="55" width="170" height="170" class="preview-bg"/>
<defs><radialGradient id="g_UGC05986" cx="0.5" cy="0.5" r="0.5">
  <stop offset="0.0000" stop-color="rgb(95,95,95)"/>
  <stop offset="0.0313" stop-color="rgb(95,95,95)"/>
  <stop offset="0.0625" stop-color="rgb(95,95,95)"/>
  <stop offset="0.0938" stop-color="rgb(95,95,95)"/>
  <stop offset="0.1250" stop-color="rgb(93,93,93)"/>
  <stop offset="0.1563" stop-color="rgb(91,91,91)"/>
  <stop offset="0.1875" stop-color="rgb(88,88,88)"/>
  <stop offset="0.2188" stop-color="rgb(86,86,86)"/>
  <stop offset="0.2500" stop-color="rgb(86,86,86)"/>
  <stop offset="0.2813" stop-color="rgb(85,85,85)"/>
  <stop offset="0.3125" stop-color="rgb(84,84,84)"/>
  <stop offset="0.3438" stop-color="rgb(83,83,83)"/>
  <stop offset="0.3750" stop-color="rgb(82,82,82)"/>
  <stop offset="0.4063" stop-color="rgb(81,81,81)"/>
  <stop offset="0.4375" stop-color="rgb(79,79,79)"/>
  <stop offset="0.4688" stop-color="rgb(78,78,78)"/>
  <stop offset="0.5000" stop-color="rgb(77,77,77)"/>
  <stop offset="0.5313" stop-color="rgb(76,76,76)"/>
  <stop offset="0.5625" stop-color="rgb(75,75,75)"/>
  <stop offset="0.5938" stop-color="rgb(73,73,73)"/>
  <stop offset="0.6250" stop-color="rgb(72,72,72)"/>
  <stop offset="0.6563" stop-color="rgb(71,71,71)"/>
  <stop offset="0.6875" stop-color="rgb(70,70,70)"/>
  <stop offset="0.7188" stop-color="rgb(68,68,68)"/>
  <stop offset="0.7500" stop-color="rgb(67,67,67)"/>
  <stop offset="0.7813" stop-color="rgb(66,66,66)"/>
  <stop offset="0.8125" stop-color="rgb(65,65,65)"/>
  <stop offset="0.8438" stop-color="rgb(63,63,63)"/>
  <stop offset="0.8750" stop-color="rgb(61,61,61)"/>
  <stop offset="0.9063" stop-color="rgb(58,58,58)"/>
  <stop offset="0.9375" stop-color="rgb(55,55,55)"/>
  <stop offset="0.9688" stop-color="rgb(52,52,52)"/>
  <stop offset="1.0000" stop-color="rgb(49,49,49)"/>
</radialGradient></defs>
<circle cx="860" cy="140" r="81" fill="url(#g_UGC05986)"/>
<text x="860" y="49" text-anchor="middle" class="preview-lbl">face-on luminance from ρ(r)</text>
<text x="860" y="239" text-anchor="middle" class="preview-lbl">edge at r = 9.4 kpc</text>
</svg>