<svg xmlns="http://www.w3.org/2000/svg" viewBox="0 0 890 420" width="890" height="420" font-family="sans-serif" font-size="12">
<style>
  .ax { stroke: #333; stroke-width: 1; fill: none; }
  .grid { stroke: #ddd; stroke-width: 0.5; fill: none; }
  .lbl { fill: #333; }
  .lbl-l { fill: #0066cc; }
  .lbl-r { fill: #b03030; }
  .lbl-s { fill: #cc7000; }
  .obs { fill: #222; }
  .err { stroke: #555; stroke-width: 0.8; fill: none; }
  .fw { stroke: #0066cc; stroke-width: 2.2; fill: none; }
  .nt { stroke: #cc6600; stroke-width: 1.6; fill: none; stroke-dasharray: 5,3; }
  .rho { stroke: #b03030; stroke-width: 2.0; fill: none; }
  .sig { stroke: #cc7000; stroke-width: 1.8; fill: none; }
  .title { fill: #111; font-size: 16px; font-weight: 600; }
  .subtitle { fill: #555; font-size: 11px; }
  .legend { font-size: 11px; }
  .preview-bg { fill: #000; }
  .preview-lbl { fill: #888; font-size: 10px; }
</style>
<text x="343.5" y="22" text-anchor="middle" class="title">UGC06818</text>
<text x="343.5" y="38" text-anchor="middle" class="subtitle">rMax=7.0 kpc, N=8, RMS=1.5 km/s (2.9%), amp=103</text>
<line x1="70" y1="365.0" x2="617" y2="365.0" class="grid"/>
<text x="64" y="369.0" text-anchor="end" class="lbl-l">0</text>
<line x1="70" y1="303.0" x2="617" y2="303.0" class="grid"/>
<text x="64" y="307.0" text-anchor="end" class="lbl-l">18</text>
<line x1="70" y1="241.0" x2="617" y2="241.0" class="grid"/>
<text x="64" y="245.0" text-anchor="end" class="lbl-l">35</text>
<line x1="70" y1="179.0" x2="617" y2="179.0" class="grid"/>
<text x="64" y="183.0" text-anchor="end" class="lbl-l">53</text>
<line x1="70" y1="116.99999999999999" x2="617" y2="116.99999999999999" class="grid"/>
<text x="64" y="120.99999999999999" text-anchor="end" class="lbl-l">71</text>
<line x1="70" y1="55.0" x2="617" y2="55.0" class="grid"/>
<text x="64" y="59.0" text-anchor="end" class="lbl-l">88</text>
<text x="623" y="369.0" text-anchor="start" class="lbl-r">0.0</text>
<text x="623" y="327.6666666666667" text-anchor="start" class="lbl-r">0.2</text>
<text x="623" y="286.33333333333337" text-anchor="start" class="lbl-r">0.4</text>
<text x="623" y="245.00000000000003" text-anchor="start" class="lbl-r">0.6</text>
<text x="623" y="203.66666666666666" text-anchor="start" class="lbl-r">0.8</text>
<text x="623" y="162.33333333333334" text-anchor="start" class="lbl-r">1.0</text>
<line x1="70.0" y1="55" x2="70.0" y2="365" class="grid"/>
<text x="70.0" y="381" text-anchor="middle" class="lbl">0.0</text>
<line x1="161.16666666666666" y1="55" x2="161.16666666666666" y2="365" class="grid"/>
<text x="161.16666666666666" y="381" text-anchor="middle" class="lbl">1.3</text>
<line x1="252.33333333333331" y1="55" x2="252.33333333333331" y2="365" class="grid"/>
<text x="252.33333333333331" y="381" text-anchor="middle" class="lbl">2.5</text>
<line x1="343.5" y1="55" x2="343.5" y2="365" class="grid"/>
<text x="343.5" y="381" text-anchor="middle" class="lbl">3.8</text>
<line x1="434.66666666666663" y1="55" x2="434.66666666666663" y2="365" class="grid"/>
<text x="434.66666666666663" y="381" text-anchor="middle" class="lbl">5.0</text>
<line x1="525.8333333333334" y1="55" x2="525.8333333333334" y2="365" class="grid"/>
<text x="525.8333333333334" y="381" text-anchor="middle" class="lbl">6.3</text>
<line x1="617.0" y1="55" x2="617.0" y2="365" class="grid"/>
<text x="617.0" y="381" text-anchor="middle" class="lbl">7.6</text>
<text x="343.5" y="397" text-anchor="middle" class="lbl">radius (kpc)</text>
<text x="16" y="210.0" text-anchor="middle" class="lbl-l" transform="rotate(-90, 16, 210.0)">velocity (km/s)</text>
<text x="661" y="210.0" text-anchor="middle" class="lbl-r" transform="rotate(-90, 661, 210.0)">mass profile (normalized to peak)</text>
<rect x="70" y="55" width="547" height="310" class="ax"/>
<path d="M 70.0,158.3 L 72.5,159.9 L 75.0,161.5 L 77.5,163.1 L 80.0,164.7 L 82.5,166.4 L 85.0,168.1 L 87.5,169.9 L 90.0,171.7 L 92.5,173.6 L 95.0,175.4 L 97.5,177.2 L 100.0,179.1 L 102.5,180.9 L 105.0,182.7 L 107.5,184.6 L 110.0,186.4 L 112.5,188.2 L 115.0,190.1 L 117.5,191.9 L 120.0,193.7 L 122.5,195.6 L 124.9,197.4 L 127.4,199.2 L 129.9,201.1 L 132.4,202.9 L 134.9,204.7 L 137.4,206.6 L 139.9,208.4 L 142.4,210.2 L 144.9,211.2 L 147.4,211.3 L 149.9,211.5 L 152.4,211.6 L 154.9,211.7 L 157.4,211.9 L 159.9,212.0 L 162.4,212.1 L 164.9,212.3 L 167.4,212.4 L 169.9,212.5 L 172.4,212.6 L 174.9,212.8 L 177.4,212.9 L 179.9,213.0 L 182.4,213.2 L 184.9,213.3 L 187.4,213.4 L 189.9,213.6 L 192.4,213.7 L 194.9,213.8 L 197.4,214.0 L 199.9,214.1 L 202.4,214.2 L 204.9,214.4 L 207.4,214.5 L 209.9,214.6 L 212.4,214.8 L 214.9,214.9 L 217.4,215.0 L 219.9,215.2 L 222.4,215.3 L 224.9,215.4 L 227.4,215.6 L 229.9,215.7 L 232.4,215.8 L 234.8,216.0 L 237.3,216.1 L 239.8,216.2 L 242.3,216.4 L 244.8,216.5 L 247.3,216.6 L 249.8,216.8 L 252.3,216.9 L 254.8,217.0 L 257.3,217.2 L 259.8,217.3 L 262.3,217.4 L 264.8,217.6 L 267.3,217.7 L 269.8,217.8 L 272.3,217.9 L 274.8,218.1 L 277.3,218.2 L 279.8,218.3 L 282.3,218.5 L 284.8,218.6 L 287.3,218.7 L 289.8,218.9 L 292.3,219.0 L 294.8,219.1 L 297.3,219.3 L 299.8,219.4 L 302.3,219.5 L 304.8,219.7 L 307.3,219.8 L 309.8,219.9 L 312.3,220.1 L 314.8,220.2 L 317.3,220.3 L 319.8,220.5 L 322.3,220.6 L 324.8,220.7 L 327.3,220.9 L 329.8,221.0 L 332.3,221.1 L 334.8,221.3 L 337.3,221.4 L 339.8,221.5 L 342.3,221.7 L 344.7,221.8 L 347.2,221.9 L 349.7,222.1 L 352.2,222.9 L 354.7,223.6 L 357.2,224.3 L 359.7,225.0 L 362.2,225.7 L 364.7,226.5 L 367.2,227.2 L 369.7,227.9 L 372.2,228.6 L 374.7,229.3 L 377.2,230.1 L 379.7,230.8 L 382.2,231.5 L 384.7,232.2 L 387.2,232.9 L 389.7,233.7 L 392.2,234.4 L 394.7,235.1 L 397.2,235.8 L 399.7,236.5 L 402.2,237.3 L 404.7,238.0 L 407.2,238.7 L 409.7,239.4 L 412.2,240.1 L 414.7,240.9 L 417.2,241.6 L 419.7,242.3 L 422.2,243.0 L 424.7,243.7 L 427.2,244.5 L 429.7,245.2 L 432.2,245.9 L 434.7,246.6 L 437.2,247.3 L 439.7,248.1 L 442.2,248.8 L 444.7,249.5 L 447.2,250.2 L 449.7,250.9 L 452.2,251.6 L 454.6,252.4 L 457.1,253.1 L 459.6,253.8 L 462.1,254.5 L 464.6,255.2 L 467.1,256.0 L 469.6,256.7 L 472.1,257.4 L 474.6,258.1 L 477.1,258.8 L 479.6,259.6 L 482.1,260.3 L 484.6,261.0 L 487.1,261.7 L 489.6,262.4 L 492.1,263.2 L 494.6,263.9 L 497.1,264.6 L 499.6,265.3 L 502.1,266.0 L 504.6,266.8 L 507.1,267.5 L 509.6,268.2 L 512.1,268.9 L 514.6,269.6 L 517.1,270.4 L 519.6,271.1 L 522.1,271.8 L 524.6,272.5 L 527.1,273.2 L 529.6,274.0 L 532.1,274.7 L 534.6,275.4 L 537.1,276.1 L 539.6,276.8 L 542.1,277.6 L 544.6,278.3 L 547.1,279.0 L 549.6,279.7 L 552.1,280.4 L 554.6,281.2 L 557.1,281.9 L 559.6,282.6 L 562.1,283.3 L 564.5,284.0 L 567.0,284.7 L 569.5,285.5 L 572.0,286.2 L 574.5,286.9 L 577.0,287.6 L 579.5,288.3 L 582.0,289.1 L 584.5,300.9 L 587.0,325.8 L 589.5,350.8 L 592.0,365.0 L 594.5,365.0 L 597.0,365.0 L 599.5,365.0 L 602.0,365.0 L 604.5,365.0 L 607.0,365.0 L 609.5,365.0 L 612.0,365.0 L 614.5,365.0 L 617.0,365.0" class="rho"/>
<path d="M 70.0,158.3 L 72.5,158.4 L 75.0,158.5 L 77.5,158.7 L 80.0,158.9 L 82.5,159.2 L 85.0,159.5 L 87.5,159.9 L 90.0,160.4 L 92.5,160.8 L 95.0,161.4 L 97.5,161.9 L 100.0,162.5 L 102.5,163.2 L 105.0,163.8 L 107.5,164.5 L 110.0,165.2 L 112.5,166.0 L 115.0,166.7 L 117.5,167.5 L 120.0,168.2 L 122.5,169.0 L 124.9,169.8 L 127.4,170.5 L 129.9,171.3 L 132.4,172.0 L 134.9,172.8 L 137.4,173.5 L 139.9,174.2 L 142.4,174.9 L 144.9,175.6 L 147.4,176.3 L 149.9,177.0 L 152.4,177.6 L 154.9,178.3 L 157.4,178.9 L 159.9,179.5 L 162.4,180.1 L 164.9,180.7 L 167.4,181.2 L 169.9,181.8 L 172.4,182.3 L 174.9,182.9 L 177.4,183.4 L 179.9,184.0 L 182.4,184.5 L 184.9,185.0 L 187.4,185.5 L 189.9,186.1 L 192.4,186.6 L 194.9,187.1 L 197.4,187.6 L 199.9,188.1 L 202.4,188.6 L 204.9,189.2 L 207.4,189.7 L 209.9,190.2 L 212.4,190.7 L 214.9,191.2 L 217.4,191.7 L 219.9,192.2 L 222.4,192.8 L 224.9,193.3 L 227.4,193.8 L 229.9,194.3 L 232.4,194.9 L 234.8,195.4 L 237.3,195.9 L 239.8,196.5 L 242.3,197.0 L 244.8,197.5 L 247.3,198.1 L 249.8,198.6 L 252.3,199.2 L 254.8,199.8 L 257.3,200.3 L 259.8,200.9 L 262.3,201.5 L 264.8,202.0 L 267.3,202.6 L 269.8,203.2 L 272.3,203.8 L 274.8,204.4 L 277.3,205.0 L 279.8,205.6 L 282.3,206.2 L 284.8,206.9 L 287.3,207.5 L 289.8,208.1 L 292.3,208.8 L 294.8,209.4 L 297.3,210.1 L 299.8,210.8 L 302.3,211.4 L 304.8,212.1 L 307.3,212.8 L 309.8,213.5 L 312.3,214.2 L 314.8,215.0 L 317.3,215.7 L 319.8,216.4 L 322.3,217.2 L 324.8,217.9 L 327.3,218.7 L 329.8,219.5 L 332.3,220.3 L 334.8,221.1 L 337.3,221.9 L 339.8,222.8 L 342.3,223.6 L 344.7,224.5 L 347.2,225.4 L 349.7,226.3 L 352.2,227.2 L 354.7,228.1 L 357.2,229.0 L 359.7,230.0 L 362.2,230.9 L 364.7,231.9 L 367.2,232.9 L 369.7,233.9 L 372.2,234.9 L 374.7,235.9 L 377.2,236.9 L 379.7,237.9 L 382.2,238.9 L 384.7,240.0 L 387.2,241.0 L 389.7,242.1 L 392.2,243.1 L 394.7,244.2 L 397.2,245.2 L 399.7,246.3 L 402.2,247.3 L 404.7,248.4 L 407.2,249.5 L 409.7,250.6 L 412.2,251.6 L 414.7,252.7 L 417.2,253.8 L 419.7,254.8 L 422.2,255.9 L 424.7,257.0 L 427.2,258.1 L 429.7,259.1 L 432.2,260.2 L 434.7,261.3 L 437.2,262.3 L 439.7,263.4 L 442.2,264.5 L 444.7,265.5 L 447.2,266.6 L 449.7,267.6 L 452.2,268.7 L 454.6,269.7 L 457.1,270.8 L 459.6,271.8 L 462.1,272.9 L 464.6,273.9 L 467.1,274.9 L 469.6,276.0 L 472.1,277.0 L 474.6,278.0 L 477.1,279.0 L 479.6,280.1 L 482.1,281.1 L 484.6,282.1 L 487.1,283.1 L 489.6,284.1 L 492.1,285.1 L 494.6,286.1 L 497.1,287.1 L 499.6,288.1 L 502.1,289.0 L 504.6,290.0 L 507.1,291.0 L 509.6,292.0 L 512.1,292.9 L 514.6,293.9 L 517.1,294.8 L 519.6,295.8 L 522.1,296.7 L 524.6,297.7 L 527.1,298.6 L 529.6,299.6 L 532.1,300.5 L 534.6,301.5 L 537.1,302.4 L 539.6,303.3 L 542.1,304.3 L 544.6,305.2 L 547.1,306.1 L 549.6,307.1 L 552.1,308.0 L 554.6,308.9 L 557.1,309.9 L 559.6,310.8 L 562.1,311.7 L 564.5,312.7 L 567.0,313.6 L 569.5,314.6 L 572.0,315.5 L 574.5,316.4 L 577.0,317.4 L 579.5,318.3 L 582.0,319.2 L 584.5,320.2 L 587.0,321.1 L 589.5,322.0 L 592.0,322.8 L 594.5,323.7 L 597.0,324.5 L 599.5,325.3 L 602.0,326.1 L 604.5,326.8 L 607.0,327.6 L 609.5,328.2 L 612.0,328.9 L 614.5,329.6 L 617.0,330.2" class="sig"/>
<path d="M 75.5,333.5 L 80.9,320.7 L 86.4,311.0 L 91.9,303.1 L 97.3,296.2 L 102.8,290.2 L 108.3,284.7 L 113.8,279.8 L 119.2,275.3 L 124.7,271.1 L 130.2,267.3 L 135.6,263.7 L 141.1,260.3 L 146.6,257.2 L 152.1,254.2 L 157.5,251.1 L 163.0,248.2 L 168.5,245.3 L 173.9,242.4 L 179.4,239.6 L 184.9,236.9 L 190.3,234.2 L 195.8,231.6 L 201.3,229.0 L 206.8,226.4 L 212.2,224.0 L 217.7,221.5 L 223.2,219.1 L 228.6,216.7 L 234.1,214.4 L 239.6,212.1 L 245.0,209.9 L 250.5,207.6 L 256.0,205.5 L 261.5,203.3 L 266.9,201.2 L 272.4,199.1 L 277.9,197.1 L 283.3,195.0 L 288.8,193.0 L 294.3,191.1 L 299.7,189.1 L 305.2,187.2 L 310.7,185.3 L 316.1,183.4 L 321.6,181.6 L 327.1,179.7 L 332.6,177.9 L 338.0,176.2 L 343.5,174.4 L 349.0,172.6 L 354.4,170.9 L 359.9,169.3 L 365.4,167.7 L 370.8,166.1 L 376.3,164.6 L 381.8,163.1 L 387.3,161.7 L 392.7,160.3 L 398.2,159.0 L 403.7,157.7 L 409.1,156.4 L 414.6,155.2 L 420.1,154.0 L 425.6,152.8 L 431.0,151.7 L 436.5,150.6 L 442.0,149.5 L 447.4,148.5 L 452.9,147.5 L 458.4,146.5 L 463.8,145.6 L 469.3,144.7 L 474.8,143.8 L 480.3,143.0 L 485.7,142.2 L 491.2,141.4 L 496.7,140.6 L 502.1,139.9 L 507.6,139.2 L 513.1,138.5 L 518.5,137.9 L 524.0,137.3 L 529.5,136.7 L 535.0,136.1 L 540.4,135.6 L 545.9,135.0 L 551.4,134.5 L 556.8,134.1 L 562.3,133.6 L 567.8,133.2 L 573.2,132.8 L 578.7,132.5 L 584.2,132.1 L 589.6,132.4 L 595.1,133.7 L 600.6,134.9 L 606.1,136.1 L 611.5,137.3 L 617.0,138.3" class="nt"/>
<path d="M 74.6,355.0 L 79.1,347.3 L 83.7,339.1 L 88.2,331.1 L 92.8,323.6 L 97.3,316.6 L 101.9,310.2 L 106.5,304.3 L 111.0,299.0 L 115.6,294.2 L 120.1,290.1 L 124.7,286.6 L 129.3,283.7 L 133.8,281.5 L 138.4,279.7 L 142.9,278.5 L 147.5,277.6 L 152.1,277.0 L 156.6,276.4 L 161.2,275.8 L 165.7,275.1 L 170.3,274.2 L 174.8,273.3 L 179.4,272.2 L 184.0,271.0 L 188.5,269.7 L 193.1,268.2 L 197.6,266.7 L 202.2,265.1 L 206.8,263.4 L 211.3,261.6 L 215.9,259.8 L 220.4,257.8 L 225.0,255.8 L 229.5,253.8 L 234.1,251.7 L 238.7,249.5 L 243.2,247.3 L 247.8,245.0 L 252.3,242.7 L 256.9,240.3 L 261.4,237.8 L 266.0,235.3 L 270.6,232.7 L 275.1,230.0 L 279.7,227.3 L 284.2,224.5 L 288.8,221.6 L 293.4,218.6 L 297.9,215.5 L 302.5,212.4 L 307.0,209.1 L 311.6,205.7 L 316.1,202.2 L 320.7,198.6 L 325.3,194.8 L 329.8,190.9 L 334.4,186.8 L 338.9,182.7 L 343.5,178.4 L 348.1,174.2 L 352.6,169.9 L 357.2,165.9 L 361.7,161.9 L 366.3,158.3 L 370.8,154.8 L 375.4,151.6 L 380.0,148.6 L 384.5,145.9 L 389.1,143.3 L 393.6,140.9 L 398.2,138.7 L 402.8,136.6 L 407.3,134.7 L 411.9,132.9 L 416.4,131.3 L 421.0,129.7 L 425.5,128.3 L 430.1,126.9 L 434.7,125.7 L 439.2,124.6 L 443.8,123.5 L 448.3,122.5 L 452.9,121.7 L 457.5,120.8 L 462.0,120.1 L 466.6,119.4 L 471.1,118.8 L 475.7,118.2 L 480.2,117.6 L 484.8,117.1 L 489.4,116.7 L 493.9,116.2 L 498.5,115.8 L 503.0,115.4 L 507.6,115.0 L 512.2,114.6 L 516.7,114.1 L 521.3,113.7 L 525.8,113.1 L 530.4,112.5 L 535.0,111.8 L 539.5,111.0 L 544.1,110.0 L 548.6,108.8 L 553.2,107.5 L 557.7,106.0 L 562.3,104.4 L 566.9,102.8 L 571.4,101.4 L 576.0,100.7 L 580.5,101.0 L 585.1,102.7 L 589.6,105.8 L 594.2,110.6 L 598.8,116.4 L 603.3,122.9 L 607.9,129.7 L 612.4,136.5 L 617.0,143.0" class="fw"/>
<line x1="132.92077097729845" y1="263.5244233378562" x2="132.92077097729845" y2="302.432157394844" class="err"/>
<line x1="129.92077097729845" y1="263.5244233378562" x2="135.92077097729845" y2="263.5244233378562" class="err"/>
<line x1="129.92077097729845" y1="302.432157394844" x2="135.92077097729845" y2="302.432157394844" class="err"/>
<circle cx="132.92077097729845" cy="282.97829036635005" r="2.5" class="obs"/>
<line x1="195.8415419545969" y1="248.62731795567618" x2="195.8415419545969" y2="285.0814111261873" class="err"/>
<line x1="192.8415419545969" y1="248.62731795567618" x2="198.8415419545969" y2="248.62731795567618" class="err"/>
<line x1="192.8415419545969" y1="285.0814111261873" x2="198.8415419545969" y2="285.0814111261873" class="err"/>
<circle cx="195.8415419545969" cy="266.8543645409317" r="2.5" class="obs"/>
<line x1="258.76231293189534" y1="221.46200814111262" x2="258.76231293189534" y2="251.25621890547265" class="err"/>
<line x1="255.76231293189534" y1="221.46200814111262" x2="261.76231293189534" y2="221.46200814111262" class="err"/>
<line x1="255.76231293189534" y1="251.25621890547265" x2="261.76231293189534" y2="251.25621890547265" class="err"/>
<circle cx="258.76231293189534" cy="236.35911352329265" r="2.5" class="obs"/>
<line x1="323.129538414419" y1="183.2553143374039" x2="323.129538414419" y2="213.04952510176395" class="err"/>
<line x1="320.129538414419" y1="183.2553143374039" x2="326.129538414419" y2="183.2553143374039" class="err"/>
<line x1="320.129538414419" y1="213.04952510176395" x2="326.129538414419" y2="213.04952510176395" class="err"/>
<circle cx="323.129538414419" cy="198.1524197195839" r="2.5" class="obs"/>
<line x1="386.05030939171746" y1="126.47105382180011" x2="386.05030939171746" y2="159.77046585255545" class="err"/>
<line x1="383.05030939171746" y1="126.47105382180011" x2="389.05030939171746" y2="126.47105382180011" class="err"/>
<line x1="383.05030939171746" y1="159.77046585255545" x2="389.05030939171746" y2="159.77046585255545" class="err"/>
<circle cx="386.05030939171746" cy="143.1207598371778" r="2.5" class="obs"/>
<line x1="448.97108036901597" y1="97.02736318407963" x2="448.97108036901597" y2="133.83197648123024" class="err"/>
<line x1="445.97108036901597" y1="97.02736318407963" x2="451.97108036901597" y2="97.02736318407963" class="err"/>
<line x1="445.97108036901597" y1="133.83197648123024" x2="451.97108036901597" y2="133.83197648123024" class="err"/>
<circle cx="448.97108036901597" cy="115.42966983265495" r="2.5" class="obs"/>
<line x1="511.8918513463144" y1="105.26458616010862" x2="511.8918513463144" y2="147.32700135685215" class="err"/>
<line x1="508.8918513463144" y1="105.26458616010862" x2="514.8918513463144" y2="105.26458616010862" class="err"/>
<line x1="508.8918513463144" y1="147.32700135685215" x2="514.8918513463144" y2="147.32700135685215" class="err"/>
<circle cx="511.8918513463144" cy="126.29579375848036" r="2.5" class="obs"/>
<line x1="574.8126223236129" y1="83.18181818181819" x2="574.8126223236129" y2="125.24423337856176" class="err"/>
<line x1="571.8126223236129" y1="83.18181818181819" x2="577.8126223236129" y2="83.18181818181819" class="err"/>
<line x1="571.8126223236129" y1="125.24423337856176" x2="577.8126223236129" y2="125.24423337856176" class="err"/>
<circle cx="574.8126223236129" cy="104.21302578018998" r="2.5" class="obs"/>
<g class="legend">
<line x1="82" y1="69" x2="106" y2="69" class="fw"/>
<text x="112" y="73" class="lbl-l">framework fit</text>
<line x1="82" y1="87" x2="106" y2="87" class="nt"/>
<text x="112" y="91" class="lbl-l">Newtonian (no halo)</text>
<circle cx="94" cy="105" r="2.5" class="obs"/>
<text x="112" y="109" class="lbl">observed V±err</text>
</g>
<g class="legend">
<line x1="472" y1="69" x2="496" y2="69" class="rho"/>
<text x="502" y="73" class="lbl-r">ρ(r) raw</text>
<line x1="472" y1="87" x2="496" y2="87" class="sig"/>
<text x="502" y="91" class="lbl-s">Σ(r) cumulative</text>
<text x="472" y="113" class="lbl-r">ρ peak: 80 M☉/pc²</text>
</g>
<rect x="705" y="55" width="170" height="170" class="preview-bg"/>
<defs><radialGradient id="g_UGC06818" cx="0.5" cy="0.5" r="0.5">
  <stop offset="0.0000" stop-color="rgb(51,51,51)"/>
  <stop offset="0.0312" stop-color="rgb(48,48,48)"/>
  <stop offset="0.0625" stop-color="rgb(45,45,45)"/>
  <stop offset="0.0938" stop-color="rgb(42,42,42)"/>
  <stop offset="0.1250" stop-color="rgb(39,39,39)"/>
  <stop offset="0.1562" stop-color="rgb(37,37,37)"/>
  <stop offset="0.1875" stop-color="rgb(37,37,37)"/>
  <stop offset="0.2188" stop-color="rgb(37,37,37)"/>
  <stop offset="0.2500" stop-color="rgb(37,37,37)"/>
  <stop offset="0.2812" stop-color="rgb(37,37,37)"/>
  <stop offset="0.3125" stop-color="rgb(36,36,36)"/>
  <stop offset="0.3438" stop-color="rgb(36,36,36)"/>
  <stop offset="0.3750" stop-color="rgb(36,36,36)"/>
  <stop offset="0.4062" stop-color="rgb(36,36,36)"/>
  <stop offset="0.4375" stop-color="rgb(35,35,35)"/>
  <stop offset="0.4688" stop-color="rgb(35,35,35)"/>
  <stop offset="0.5000" stop-color="rgb(35,35,35)"/>
  <stop offset="0.5312" stop-color="rgb(35,35,35)"/>
  <stop offset="0.5625" stop-color="rgb(34,34,34)"/>
  <stop offset="0.5938" stop-color="rgb(33,33,33)"/>
  <stop offset="0.6250" stop-color="rgb(32,32,32)"/>
  <stop offset="0.6562" stop-color="rgb(30,30,30)"/>
  <stop offset="0.6875" stop-color="rgb(29,29,29)"/>
  <stop offset="0.7188" stop-color="rgb(28,28,28)"/>
  <stop offset="0.7500" stop-color="rgb(27,27,27)"/>
  <stop offset="0.7812" stop-color="rgb(26,26,26)"/>
  <stop offset="0.8125" stop-color="rgb(25,25,25)"/>
  <stop offset="0.8438" stop-color="rgb(23,23,23)"/>
  <stop offset="0.8750" stop-color="rgb(22,22,22)"/>
  <stop offset="0.9062" stop-color="rgb(21,21,21)"/>
  <stop offset="0.9375" stop-color="rgb(20,20,20)"/>
  <stop offset="0.9688" stop-color="rgb(19,19,19)"/>
  <stop offset="1.0000" stop-color="rgb(0,0,0)"/>
</radialGradient></defs>
<circle cx="790.0" cy="140.0" r="81.0" fill="url(#g_UGC06818)"/>
<text x="790.0" y="49" text-anchor="middle" class="preview-lbl">face-on luminance from ρ(r)</text>
<text x="790.0" y="239" text-anchor="middle" class="preview-lbl">edge at r = 7.2 kpc</text>
</svg>