<svg xmlns="http://www.w3.org/2000/svg" viewBox="0 0 960 450" width="960" height="450" font-family="sans-serif" font-size="12">
<style>
  .ax { stroke: #333; stroke-width: 1; fill: none; }
  .grid { stroke: #ddd; stroke-width: 0.5; fill: none; }
  .lbl { fill: #333; }
  .lbl-l { fill: #0066cc; }
  .lbl-r { fill: #b03030; }
  .obs { fill: #222; }
  .err { stroke: #555; stroke-width: 0.8; fill: none; }
  .fw { stroke: #0066cc; stroke-width: 2.2; fill: none; }
  .nt { stroke: #cc6600; stroke-width: 1.6; fill: none; stroke-dasharray: 5,3; }
  .mond { stroke: #7b2cbf; stroke-width: 1.8; fill: none; stroke-dasharray: 7,3; }
  .lbl-p { fill: #cc7000; }
  .lbl-m { fill: #7b2cbf; }
  .rho { stroke: #b03030; stroke-width: 2.0; fill: none; }
  .phot { stroke: #cc7000; stroke-width: 1.8; fill: none; }
  .mbar { stroke: #8e44ad; stroke-width: 1.8; fill: none; opacity: 0.9; }
  .mph { stroke: #c77dff; stroke-width: 1.6; fill: none; stroke-dasharray: 4,3; opacity: 0.95; }
  .title { fill: #111; font-size: 16px; font-weight: 600; }
  .subtitle { fill: #555; font-size: 11px; }
  .preview-bg { fill: #000; }
  .preview-lbl { fill: #888; font-size: 10px; }
  .legend { font-size: 11px; }
</style>
<text x="378.5" y="22" text-anchor="middle" class="title">UGC05764</text>
<text x="378.5" y="38" text-anchor="middle" class="subtitle">rMax=3.6 kpc, N=10, FW=0.9 km/s, 1.8%, 1.39σ, MOND=8.5 km/s, 21.5%, 14.82σ, amp=105</text>
<line x1="70" y1="395.0" x2="687" y2="395.0" class="grid"/>
<text x="64" y="399.0" text-anchor="end" class="lbl-l">0</text>
<line x1="70" y1="327.0" x2="687" y2="327.0" class="grid"/>
<text x="64" y="331.0" text-anchor="end" class="lbl-l">13</text>
<line x1="70" y1="259.0" x2="687" y2="259.0" class="grid"/>
<text x="64" y="263.0" text-anchor="end" class="lbl-l">26</text>
<line x1="70" y1="191.0" x2="687" y2="191.0" class="grid"/>
<text x="64" y="195.0" text-anchor="end" class="lbl-l">38</text>
<line x1="70" y1="123.0" x2="687" y2="123.0" class="grid"/>
<text x="64" y="127.0" text-anchor="end" class="lbl-l">51</text>
<line x1="70" y1="55.0" x2="687" y2="55.0" class="grid"/>
<text x="64" y="59.0" text-anchor="end" class="lbl-l">64</text>
<text x="693" y="399.0" text-anchor="start" class="lbl-r">0.0</text>
<text x="693" y="353.7" text-anchor="start" class="lbl-r">0.2</text>
<text x="693" y="308.3" text-anchor="start" class="lbl-r">0.4</text>
<text x="693" y="263.0" text-anchor="start" class="lbl-r">0.6</text>
<text x="693" y="217.7" text-anchor="start" class="lbl-r">0.8</text>
<text x="693" y="172.3" text-anchor="start" class="lbl-r">1.0</text>
<line x1="70.0" y1="55" x2="70.0" y2="395" class="grid"/>
<text x="70.0" y="411" text-anchor="middle" class="lbl">0.0</text>
<line x1="172.8" y1="55" x2="172.8" y2="395" class="grid"/>
<text x="172.8" y="411" text-anchor="middle" class="lbl">0.7</text>
<line x1="275.7" y1="55" x2="275.7" y2="395" class="grid"/>
<text x="275.7" y="411" text-anchor="middle" class="lbl">1.3</text>
<line x1="378.5" y1="55" x2="378.5" y2="395" class="grid"/>
<text x="378.5" y="411" text-anchor="middle" class="lbl">2.0</text>
<line x1="481.3" y1="55" x2="481.3" y2="395" class="grid"/>
<text x="481.3" y="411" text-anchor="middle" class="lbl">2.7</text>
<line x1="584.2" y1="55" x2="584.2" y2="395" class="grid"/>
<text x="584.2" y="411" text-anchor="middle" class="lbl">3.3</text>
<line x1="687.0" y1="55" x2="687.0" y2="395" class="grid"/>
<text x="687.0" y="411" text-anchor="middle" class="lbl">4.0</text>
<text x="378.5" y="438" text-anchor="middle" class="lbl">radius (kpc)</text>
<text x="16" y="225" text-anchor="middle" class="lbl-l" transform="rotate(-90, 16, 225)">velocity (km/s)</text>
<text x="724" y="225" text-anchor="middle" class="lbl-r" transform="rotate(-90, 724, 225)">profiles (normalized to peak)</text>
<rect x="70" y="55" width="617" height="340" class="ax"/>
<path d="M 70.0,168.3 L 72.8,170.8 L 75.6,173.2 L 78.5,175.6 L 81.3,178.1 L 84.1,180.5 L 86.9,182.9 L 89.7,185.4 L 92.5,187.8 L 95.4,202.4 L 98.2,217.5 L 101.0,232.7 L 103.8,243.9 L 106.6,243.9 L 109.4,243.9 L 112.3,243.9 L 115.1,243.9 L 117.9,243.9 L 120.7,243.9 L 123.5,243.9 L 126.3,243.9 L 129.2,243.9 L 132.0,243.9 L 134.8,243.9 L 137.6,243.9 L 140.4,243.9 L 143.3,243.9 L 146.1,243.9 L 148.9,243.9 L 151.7,243.9 L 154.5,243.9 L 157.3,243.9 L 160.2,244.4 L 163.0,245.0 L 165.8,245.6 L 168.6,246.2 L 171.4,246.9 L 174.2,247.5 L 177.1,248.1 L 179.9,248.7 L 182.7,249.3 L 185.5,249.9 L 188.3,250.5 L 191.1,251.1 L 194.0,251.8 L 196.8,252.4 L 199.6,253.0 L 202.4,253.6 L 205.2,254.2 L 208.1,254.8 L 210.9,255.4 L 213.7,256.0 L 216.5,256.6 L 219.3,257.3 L 222.1,257.9 L 225.0,258.5 L 227.8,259.1 L 230.6,259.7 L 233.4,260.3 L 236.2,260.9 L 239.0,261.5 L 241.9,262.2 L 244.7,262.8 L 247.5,263.4 L 250.3,264.0 L 253.1,264.6 L 255.9,265.2 L 258.8,265.8 L 261.6,266.4 L 264.4,267.0 L 267.2,267.7 L 270.0,268.3 L 272.8,268.9 L 275.7,269.5 L 278.5,270.1 L 281.3,270.7 L 284.1,271.3 L 286.9,271.9 L 289.8,272.6 L 292.6,273.2 L 295.4,273.8 L 298.2,274.4 L 301.0,275.0 L 303.8,275.6 L 306.7,276.2 L 309.5,276.8 L 312.3,277.4 L 315.1,278.1 L 317.9,278.7 L 320.7,279.3 L 323.6,279.9 L 326.4,280.5 L 329.2,281.1 L 332.0,281.7 L 334.8,282.3 L 337.6,283.0 L 340.5,283.6 L 343.3,284.2 L 346.1,284.8 L 348.9,285.4 L 351.7,286.0 L 354.6,286.6 L 357.4,287.2 L 360.2,287.8 L 363.0,288.5 L 365.8,289.1 L 368.6,289.7 L 371.5,290.3 L 374.3,290.9 L 377.1,291.5 L 379.9,292.1 L 382.7,292.7 L 385.5,293.4 L 388.4,294.0 L 391.2,294.6 L 394.0,295.2 L 396.8,295.8 L 399.6,296.4 L 402.4,297.0 L 405.3,297.6 L 408.1,298.2 L 410.9,298.9 L 413.7,299.5 L 416.5,300.1 L 419.4,300.7 L 422.2,301.3 L 425.0,301.9 L 427.8,302.5 L 430.6,303.1 L 433.4,303.8 L 436.3,304.4 L 439.1,305.0 L 441.9,305.6 L 444.7,306.2 L 447.5,306.8 L 450.3,307.4 L 453.2,308.0 L 456.0,308.6 L 458.8,309.3 L 461.6,309.9 L 464.4,310.5 L 467.2,311.1 L 470.1,311.7 L 472.9,312.3 L 475.7,312.9 L 478.5,313.5 L 481.3,314.2 L 484.2,314.8 L 487.0,315.4 L 489.8,316.0 L 492.6,316.6 L 495.4,317.2 L 498.2,317.8 L 501.1,318.4 L 503.9,319.0 L 506.7,319.7 L 509.5,320.3 L 512.3,320.9 L 515.1,321.5 L 518.0,322.1 L 520.8,322.7 L 523.6,323.3 L 526.4,323.9 L 529.2,324.6 L 532.0,325.2 L 534.9,325.8 L 537.7,326.4 L 540.5,327.0 L 543.3,327.6 L 546.1,328.2 L 548.9,328.8 L 551.8,329.4 L 554.6,330.1 L 557.4,330.7 L 560.2,331.3 L 563.0,331.9 L 565.9,332.5 L 568.7,333.1 L 571.5,333.7 L 574.3,334.3 L 577.1,335.0 L 579.9,335.6 L 582.8,336.2 L 585.6,336.8 L 588.4,337.4 L 591.2,338.0 L 594.0,338.6 L 596.8,339.2 L 599.7,339.8 L 602.5,340.5 L 605.3,341.1 L 608.1,341.7 L 610.9,342.3 L 613.7,342.9 L 616.6,343.5 L 619.4,344.1 L 622.2,344.7 L 625.0,345.4 L 627.8,346.0 L 630.7,346.6 L 633.5,347.2 L 636.3,347.8 L 639.1,348.4 L 641.9,349.0 L 644.7,350.5 L 647.6,360.3 L 650.4,370.0 L 653.2,379.7 L 656.0,389.4 L 658.8,395.0 L 661.6,395.0 L 664.5,395.0 L 667.3,395.0 L 670.1,395.0 L 672.9,395.0 L 675.7,395.0 L 678.5,395.0 L 681.4,395.0 L 684.2,395.0 L 687.0,395.0" class="rho"/>
<path d="M 125.5,168.3 L 182.5,219.9 L 238.0,338.9 L 293.5,354.4 L 349.0,363.9 L 404.5,370.6 L 461.5,378.8 L 517.0,382.6 L 572.5,386.4 L 627.9,388.3" class="phot"/>
<path d="M 125.5,305.2 L 182.5,256.5 L 238.0,220.0 L 293.5,193.4 L 349.0,168.3 L 404.5,171.9 L 461.5,206.3 L 517.0,263.0 L 572.5,323.5 L 627.9,355.2" class="mbar"/>
<path d="M 125.5,248.8 L 182.5,214.9 L 238.0,192.7 L 293.5,180.1 L 349.0,168.3 L 404.5,170.5 L 461.5,187.0 L 517.0,215.3 L 572.5,248.5 L 627.9,268.6" class="mph"/>
<path d="M 76.2,343.6 L 82.3,323.0 L 88.5,307.5 L 94.7,295.0 L 100.8,286.3 L 107.0,280.3 L 113.2,274.2 L 119.4,268.0 L 125.5,261.9 L 131.7,256.0 L 137.9,250.2 L 144.0,244.5 L 150.2,239.0 L 156.4,233.6 L 162.6,228.4 L 168.7,223.4 L 174.9,218.6 L 181.1,214.0 L 187.2,209.6 L 193.4,205.3 L 199.6,201.2 L 205.7,197.2 L 211.9,193.4 L 218.1,189.7 L 224.3,186.1 L 230.4,182.6 L 236.6,179.2 L 242.8,175.9 L 248.9,172.7 L 255.1,169.6 L 261.3,166.6 L 267.4,163.6 L 273.6,160.8 L 279.8,158.0 L 286.0,155.3 L 292.1,152.7 L 298.3,150.2 L 304.5,147.7 L 310.6,145.3 L 316.8,142.9 L 323.0,140.6 L 329.1,138.4 L 335.3,136.3 L 341.5,134.2 L 347.6,132.1 L 353.8,130.1 L 360.0,128.2 L 366.2,126.3 L 372.3,124.5 L 378.5,122.7 L 384.7,121.0 L 390.8,119.3 L 397.0,117.6 L 403.2,116.1 L 409.4,114.5 L 415.5,113.0 L 421.7,111.6 L 427.9,110.2 L 434.0,108.8 L 440.2,107.5 L 446.4,106.2 L 452.5,105.0 L 458.7,103.8 L 464.9,102.7 L 471.0,101.5 L 477.2,100.5 L 483.4,99.4 L 489.6,98.5 L 495.7,97.5 L 501.9,96.6 L 508.1,95.7 L 514.2,94.9 L 520.4,94.1 L 526.6,93.3 L 532.8,92.6 L 538.9,91.9 L 545.1,91.3 L 551.3,90.6 L 557.4,90.1 L 563.6,89.5 L 569.8,89.0 L 575.9,88.5 L 582.1,88.1 L 588.3,87.7 L 594.4,87.3 L 600.6,87.0 L 606.8,86.7 L 613.0,86.4 L 619.1,86.2 L 625.3,86.0 L 631.5,85.8 L 637.6,85.7 L 643.8,85.6 L 650.0,85.8 L 656.2,86.8 L 662.3,88.4 L 668.5,90.0 L 674.7,91.6 L 680.8,93.2 L 687.0,94.7" class="nt"/>
<path d="M 125.5,323.4 L 182.5,272.2 L 238.0,238.8 L 293.5,209.6 L 349.0,180.3 L 404.5,156.8 L 461.5,138.6 L 517.0,126.7 L 572.5,122.7 L 627.9,120.4" class="mond"/>
<path d="M 75.1,373.7 L 80.3,357.6 L 85.4,341.0 L 90.6,325.9 L 95.7,313.6 L 100.8,303.8 L 106.0,296.7 L 111.1,291.6 L 116.3,287.8 L 121.4,284.7 L 126.6,281.5 L 131.7,278.2 L 136.8,274.3 L 142.0,270.0 L 147.1,265.1 L 152.3,259.9 L 157.4,254.3 L 162.6,248.6 L 167.7,242.8 L 172.8,237.0 L 178.0,231.3 L 183.1,225.8 L 188.3,220.4 L 193.4,215.2 L 198.5,210.2 L 203.7,205.3 L 208.8,200.6 L 214.0,196.0 L 219.1,191.6 L 224.3,187.3 L 229.4,183.2 L 234.5,179.1 L 239.7,175.3 L 244.8,171.5 L 250.0,167.9 L 255.1,164.4 L 260.2,161.0 L 265.4,157.7 L 270.5,154.5 L 275.7,151.5 L 280.8,148.6 L 285.9,145.7 L 291.1,143.0 L 296.2,140.4 L 301.4,137.9 L 306.5,135.5 L 311.7,133.2 L 316.8,131.0 L 321.9,128.8 L 327.1,126.8 L 332.2,124.9 L 337.4,123.1 L 342.5,121.3 L 347.6,119.7 L 352.8,118.1 L 357.9,116.6 L 363.1,115.2 L 368.2,113.9 L 373.4,112.7 L 378.5,111.6 L 383.6,110.5 L 388.8,109.5 L 393.9,108.7 L 399.1,107.8 L 404.2,107.1 L 409.4,106.5 L 414.5,105.9 L 419.6,105.4 L 424.8,105.0 L 429.9,104.6 L 435.1,104.3 L 440.2,104.1 L 445.3,104.0 L 450.5,103.9 L 455.6,103.9 L 460.8,104.0 L 465.9,104.1 L 471.0,104.3 L 476.2,104.6 L 481.3,105.0 L 486.5,105.4 L 491.6,105.8 L 496.8,106.4 L 501.9,107.0 L 507.0,107.6 L 512.2,108.3 L 517.3,109.1 L 522.5,109.9 L 527.6,110.7 L 532.8,111.6 L 537.9,112.6 L 543.0,113.6 L 548.2,114.6 L 553.3,115.7 L 558.5,116.7 L 563.6,117.8 L 568.7,119.0 L 573.9,120.1 L 579.0,121.2 L 584.2,122.2 L 589.3,123.3 L 594.5,124.2 L 599.6,125.1 L 604.7,125.9 L 609.9,126.5 L 615.0,127.0 L 620.2,127.4 L 625.3,127.7 L 630.4,128.2 L 635.6,129.0 L 640.7,130.5 L 645.9,133.0 L 651.0,136.8 L 656.1,141.8 L 661.3,147.7 L 666.4,154.3 L 671.6,161.0 L 676.7,167.6 L 681.9,173.9 L 687.0,179.8" class="fw"/>
<line x1="125.49" y1="270.66" x2="125.49" y2="291.77" class="err"/>
<line x1="122.49" y1="270.66" x2="128.49" y2="270.66" class="err"/>
<line x1="122.49" y1="291.77" x2="128.49" y2="291.77" class="err"/>
<circle cx="125.49" cy="281.21" r="2.5" class="obs"/>
<line x1="182.51" y1="220.58" x2="182.51" y2="237.34" class="err"/>
<line x1="179.51" y1="220.58" x2="185.51" y2="220.58" class="err"/>
<line x1="179.51" y1="237.34" x2="185.51" y2="237.34" class="err"/>
<circle cx="182.51" cy="228.96" r="2.5" class="obs"/>
<line x1="238.00" y1="167.64" x2="238.00" y2="179.95" class="err"/>
<line x1="235.00" y1="167.64" x2="241.00" y2="167.64" class="err"/>
<line x1="235.00" y1="179.95" x2="241.00" y2="179.95" class="err"/>
<circle cx="238.00" cy="173.79" r="2.5" class="obs"/>
<line x1="293.49" y1="136.18" x2="293.49" y2="140.85" class="err"/>
<line x1="290.49" y1="136.18" x2="296.49" y2="136.18" class="err"/>
<line x1="290.49" y1="140.85" x2="296.49" y2="140.85" class="err"/>
<circle cx="293.49" cy="138.52" r="2.5" class="obs"/>
<line x1="348.97" y1="124.62" x2="348.97" y2="128.54" class="err"/>
<line x1="345.97" y1="124.62" x2="351.97" y2="124.62" class="err"/>
<line x1="345.97" y1="128.54" x2="351.97" y2="128.54" class="err"/>
<circle cx="348.97" cy="126.58" r="2.5" class="obs"/>
<line x1="404.46" y1="105.15" x2="404.46" y2="111.41" class="err"/>
<line x1="401.46" y1="105.15" x2="407.46" y2="105.15" class="err"/>
<line x1="401.46" y1="111.41" x2="407.46" y2="111.41" class="err"/>
<circle cx="404.46" cy="108.28" r="2.5" class="obs"/>
<line x1="461.49" y1="94.97" x2="461.49" y2="103.03" class="err"/>
<line x1="458.49" y1="94.97" x2="464.49" y2="94.97" class="err"/>
<line x1="458.49" y1="103.03" x2="464.49" y2="103.03" class="err"/>
<circle cx="461.49" cy="99.00" r="2.5" class="obs"/>
<line x1="516.98" y1="101.86" x2="516.98" y2="109.39" class="err"/>
<line x1="513.98" y1="101.86" x2="519.98" y2="101.86" class="err"/>
<line x1="513.98" y1="109.39" x2="519.98" y2="109.39" class="err"/>
<circle cx="516.98" cy="105.63" r="2.5" class="obs"/>
<line x1="572.46" y1="115.71" x2="572.46" y2="143.82" class="err"/>
<line x1="569.46" y1="115.71" x2="575.46" y2="115.71" class="err"/>
<line x1="569.46" y1="143.82" x2="575.46" y2="143.82" class="err"/>
<circle cx="572.46" cy="129.76" r="2.5" class="obs"/>
<line x1="627.95" y1="115.60" x2="627.95" y2="144.99" class="err"/>
<line x1="624.95" y1="115.60" x2="630.95" y2="115.60" class="err"/>
<line x1="624.95" y1="144.99" x2="630.95" y2="144.99" class="err"/>
<circle cx="627.95" cy="130.30" r="2.5" class="obs"/>
<g class="legend">
<line x1="82" y1="69" x2="106" y2="69" class="fw"/>
<text x="112" y="73" class="lbl-l">framework: 0.9 km/s, 1.8%, 1.39σ</text>
<line x1="82" y1="87" x2="106" y2="87" class="nt"/>
<text x="112" y="91" class="lbl-l">Newtonian: 4.1 km/s, 9.8%, 2.85σ</text>
<line x1="82" y1="105" x2="106" y2="105" class="mond"/>
<text x="112" y="109" class="lbl-m">MOND/RAR: 8.5 km/s, 21.5%, 14.82σ</text>
<circle cx="94" cy="123" r="2.5" class="obs"/>
<text x="112" y="127" class="lbl">observed V±err</text>
</g>
<g class="legend">
<line x1="472" y1="69" x2="496" y2="69" class="rho"/>
<text x="502" y="73" class="lbl-r">ρ(r) raw</text>
<line x1="472" y1="87" x2="496" y2="87" class="phot"/>
<text x="502" y="91" class="lbl-p">photometric baryonic profile</text>
<line x1="472" y1="105" x2="496" y2="105" class="mbar"/>
<text x="502" y="109" class="lbl-m">MOND baryonic annulus</text>
<line x1="472" y1="123" x2="496" y2="123" class="mph"/>
<text x="502" y="127" class="lbl-m">MOND phantom annulus</text>
<text x="472" y="147" class="lbl-r">ρ peak: 176 M☉/pc²</text>
<text x="472" y="163" class="lbl-p">phot peak: 7.40 (arb.)</text>
<text x="472" y="179" class="lbl-m">Σbar peak: 15.15 M☉/pc²</text>
<text x="472" y="195" class="lbl-m">Σphantom peak: 57.44 M☉/pc²</text>
</g>
<rect x="775" y="55" width="170" height="170" class="preview-bg"/>
<defs><radialGradient id="g_UGC05764" cx="0.5" cy="0.5" r="0.5">
  <stop offset="0.0000" stop-color="rgb(255,64,64)"/>
  <stop offset="0.0313" stop-color="rgb(255,64,64)"/>
  <stop offset="0.0625" stop-color="rgb(210,53,53)"/>
  <stop offset="0.0938" stop-color="rgb(210,53,53)"/>
  <stop offset="0.1250" stop-color="rgb(210,53,53)"/>
  <stop offset="0.1563" stop-color="rgb(209,52,52)"/>
  <stop offset="0.1875" stop-color="rgb(205,51,51)"/>
  <stop offset="0.2188" stop-color="rgb(201,50,50)"/>
  <stop offset="0.2500" stop-color="rgb(197,49,49)"/>
  <stop offset="0.2813" stop-color="rgb(193,48,48)"/>
  <stop offset="0.3125" stop-color="rgb(188,47,47)"/>
  <stop offset="0.3438" stop-color="rgb(184,46,46)"/>
  <stop offset="0.3750" stop-color="rgb(180,45,45)"/>
  <stop offset="0.4063" stop-color="rgb(176,44,44)"/>
  <stop offset="0.4375" stop-color="rgb(171,43,43)"/>
  <stop offset="0.4688" stop-color="rgb(167,42,42)"/>
  <stop offset="0.5000" stop-color="rgb(163,41,41)"/>
  <stop offset="0.5313" stop-color="rgb(159,40,40)"/>
  <stop offset="0.5625" stop-color="rgb(154,39,39)"/>
  <stop offset="0.5938" stop-color="rgb(150,38,38)"/>
  <stop offset="0.6250" stop-color="rgb(146,37,37)"/>
  <stop offset="0.6563" stop-color="rgb(142,36,36)"/>
  <stop offset="0.6875" stop-color="rgb(138,35,35)"/>
  <stop offset="0.7188" stop-color="rgb(133,33,33)"/>
  <stop offset="0.7500" stop-color="rgb(129,32,32)"/>
  <stop offset="0.7813" stop-color="rgb(125,31,31)"/>
  <stop offset="0.8125" stop-color="rgb(121,30,30)"/>
  <stop offset="0.8438" stop-color="rgb(116,29,29)"/>
  <stop offset="0.8750" stop-color="rgb(112,28,28)"/>
  <stop offset="0.9063" stop-color="rgb(108,27,27)"/>
  <stop offset="0.9375" stop-color="rgb(104,26,26)"/>
  <stop offset="0.9688" stop-color="rgb(99,25,25)"/>
  <stop offset="1.0000" stop-color="rgb(0,0,0)"/>
</radialGradient></defs>
<circle cx="860" cy="140" r="81" fill="url(#g_UGC05764)"/>
<text x="860" y="49" text-anchor="middle" class="preview-lbl">face-on luminance from ρ(r)</text>
<text x="860" y="239" text-anchor="middle" class="preview-lbl">edge at r = 3.8 kpc</text>
</svg>