<svg xmlns="http://www.w3.org/2000/svg" viewBox="0 0 890 420" width="890" height="420" font-family="sans-serif" font-size="12">
<style>
  .ax { stroke: #333; stroke-width: 1; fill: none; }
  .grid { stroke: #ddd; stroke-width: 0.5; fill: none; }
  .lbl { fill: #333; }
  .lbl-l { fill: #0066cc; }
  .lbl-r { fill: #b03030; }
  .obs { fill: #222; }
  .err { stroke: #555; stroke-width: 0.8; fill: none; }
  .fw { stroke: #0066cc; stroke-width: 2.2; fill: none; }
  .nt { stroke: #cc6600; stroke-width: 1.6; fill: none; stroke-dasharray: 5,3; }
  .lbl-s { fill: #cc7000; }
  .rho { stroke: #b03030; stroke-width: 2.0; fill: none; }
  .sig { stroke: #cc7000; stroke-width: 1.8; fill: none; }
  .title { fill: #111; font-size: 16px; font-weight: 600; }
  .subtitle { fill: #555; font-size: 11px; }
  .preview-bg { fill: #000; }
  .preview-lbl { fill: #888; font-size: 10px; }
  .legend { font-size: 11px; }
</style>
<text x="343.5" y="22" text-anchor="middle" class="title">UGC07577</text>
<text x="343.5" y="38" text-anchor="middle" class="subtitle">rMax=1.7 kpc, N=9, RMS=0.4 km/s (4.1%), amp=65</text>
<line x1="70" y1="365.0" x2="617" y2="365.0" class="grid"/>
<text x="64" y="369.0" text-anchor="end" class="lbl-l">0</text>
<line x1="70" y1="303.0" x2="617" y2="303.0" class="grid"/>
<text x="64" y="307.0" text-anchor="end" class="lbl-l">5</text>
<line x1="70" y1="241.0" x2="617" y2="241.0" class="grid"/>
<text x="64" y="245.0" text-anchor="end" class="lbl-l">9</text>
<line x1="70" y1="179.0" x2="617" y2="179.0" class="grid"/>
<text x="64" y="183.0" text-anchor="end" class="lbl-l">14</text>
<line x1="70" y1="117.0" x2="617" y2="117.0" class="grid"/>
<text x="64" y="121.0" text-anchor="end" class="lbl-l">18</text>
<line x1="70" y1="55.0" x2="617" y2="55.0" class="grid"/>
<text x="64" y="59.0" text-anchor="end" class="lbl-l">23</text>
<text x="623" y="369.0" text-anchor="start" class="lbl-r">0.0</text>
<text x="623" y="327.7" text-anchor="start" class="lbl-r">0.2</text>
<text x="623" y="286.3" text-anchor="start" class="lbl-r">0.4</text>
<text x="623" y="245.0" text-anchor="start" class="lbl-r">0.6</text>
<text x="623" y="203.7" text-anchor="start" class="lbl-r">0.8</text>
<text x="623" y="162.3" text-anchor="start" class="lbl-r">1.0</text>
<line x1="70.0" y1="55" x2="70.0" y2="365" class="grid"/>
<text x="70.0" y="381" text-anchor="middle" class="lbl">0.0</text>
<line x1="161.2" y1="55" x2="161.2" y2="365" class="grid"/>
<text x="161.2" y="381" text-anchor="middle" class="lbl">0.3</text>
<line x1="252.3" y1="55" x2="252.3" y2="365" class="grid"/>
<text x="252.3" y="381" text-anchor="middle" class="lbl">0.6</text>
<line x1="343.5" y1="55" x2="343.5" y2="365" class="grid"/>
<text x="343.5" y="381" text-anchor="middle" class="lbl">0.9</text>
<line x1="434.7" y1="55" x2="434.7" y2="365" class="grid"/>
<text x="434.7" y="381" text-anchor="middle" class="lbl">1.2</text>
<line x1="525.8" y1="55" x2="525.8" y2="365" class="grid"/>
<text x="525.8" y="381" text-anchor="middle" class="lbl">1.5</text>
<line x1="617.0" y1="55" x2="617.0" y2="365" class="grid"/>
<text x="617.0" y="381" text-anchor="middle" class="lbl">1.8</text>
<text x="343.5" y="408" text-anchor="middle" class="lbl">radius (kpc)</text>
<text x="16" y="210" text-anchor="middle" class="lbl-l" transform="rotate(-90, 16, 210)">velocity (km/s)</text>
<text x="874" y="210" text-anchor="middle" class="lbl-r" transform="rotate(-90, 874, 210)">mass profile (normalized to peak)</text>
<rect x="70" y="55" width="547" height="310" class="ax"/>
<path d="M 70.0,158.3 L 72.5,162.2 L 75.0,166.0 L 77.5,169.9 L 80.0,173.7 L 82.5,177.6 L 85.0,181.4 L 87.5,185.3 L 90.0,189.2 L 92.5,193.0 L 95.0,193.8 L 97.5,194.3 L 100.0,194.9 L 102.5,195.5 L 105.0,196.0 L 107.5,196.6 L 110.0,197.2 L 112.5,197.8 L 115.0,198.3 L 117.5,198.9 L 120.0,199.5 L 122.5,200.0 L 124.9,200.6 L 127.4,200.8 L 129.9,201.0 L 132.4,201.3 L 134.9,201.5 L 137.4,201.7 L 139.9,201.9 L 142.4,202.1 L 144.9,202.3 L 147.4,202.6 L 149.9,202.8 L 152.4,203.0 L 154.9,203.2 L 157.4,203.4 L 159.9,203.6 L 162.4,203.9 L 164.9,204.1 L 167.4,204.3 L 169.9,204.5 L 172.4,204.7 L 174.9,204.9 L 177.4,205.2 L 179.9,205.4 L 182.4,205.6 L 184.9,205.8 L 187.4,206.0 L 189.9,206.3 L 192.4,206.5 L 194.9,206.7 L 197.4,206.9 L 199.9,207.1 L 202.4,207.3 L 204.9,207.6 L 207.4,207.8 L 209.9,208.0 L 212.4,208.2 L 214.9,208.4 L 217.4,208.6 L 219.9,208.9 L 222.4,209.1 L 224.9,209.3 L 227.4,209.5 L 229.9,209.7 L 232.4,210.0 L 234.8,210.2 L 237.3,210.4 L 239.8,210.6 L 242.3,210.8 L 244.8,211.0 L 247.3,211.3 L 249.8,211.5 L 252.3,211.7 L 254.8,211.9 L 257.3,212.1 L 259.8,212.3 L 262.3,212.6 L 264.8,212.8 L 267.3,213.0 L 269.8,213.2 L 272.3,213.4 L 274.8,213.7 L 277.3,213.9 L 279.8,214.1 L 282.3,214.3 L 284.8,214.5 L 287.3,214.7 L 289.8,215.0 L 292.3,215.2 L 294.8,215.4 L 297.3,215.6 L 299.8,215.8 L 302.3,216.0 L 304.8,216.3 L 307.3,216.5 L 309.8,216.7 L 312.3,216.9 L 314.8,217.1 L 317.3,217.3 L 319.8,217.6 L 322.3,217.8 L 324.8,218.0 L 327.3,218.2 L 329.8,218.4 L 332.3,218.7 L 334.8,218.9 L 337.3,219.1 L 339.8,219.3 L 342.3,219.5 L 344.7,219.7 L 347.2,220.0 L 349.7,220.2 L 352.2,220.4 L 354.7,220.6 L 357.2,220.8 L 359.7,221.0 L 362.2,221.3 L 364.7,221.5 L 367.2,221.7 L 369.7,221.9 L 372.2,222.1 L 374.7,222.4 L 377.2,222.7 L 379.7,223.1 L 382.2,223.5 L 384.7,223.9 L 387.2,224.4 L 389.7,224.8 L 392.2,225.2 L 394.7,225.7 L 397.2,226.1 L 399.7,226.5 L 402.2,227.0 L 404.7,227.4 L 407.2,227.8 L 409.7,228.2 L 412.2,228.7 L 414.7,229.1 L 417.2,229.5 L 419.7,230.0 L 422.2,230.4 L 424.7,230.8 L 427.2,231.3 L 429.7,231.7 L 432.2,232.1 L 434.7,232.5 L 437.2,233.0 L 439.7,233.4 L 442.2,233.8 L 444.7,234.3 L 447.2,234.7 L 449.7,235.1 L 452.2,235.6 L 454.6,236.0 L 457.1,236.4 L 459.6,236.8 L 462.1,237.3 L 464.6,237.7 L 467.1,238.1 L 469.6,238.6 L 472.1,239.0 L 474.6,239.4 L 477.1,239.9 L 479.6,240.3 L 482.1,240.7 L 484.6,241.1 L 487.1,241.6 L 489.6,242.0 L 492.1,242.4 L 494.6,242.9 L 497.1,243.3 L 499.6,243.7 L 502.1,244.2 L 504.6,244.6 L 507.1,245.0 L 509.6,245.4 L 512.1,245.9 L 514.6,246.3 L 517.1,246.7 L 519.6,247.2 L 522.1,247.6 L 524.6,248.0 L 527.1,248.5 L 529.6,248.9 L 532.1,249.3 L 534.6,249.7 L 537.1,250.2 L 539.6,250.6 L 542.1,251.0 L 544.6,251.5 L 547.1,251.9 L 549.6,252.3 L 552.1,252.8 L 554.6,253.2 L 557.1,253.6 L 559.6,254.0 L 562.1,254.5 L 564.5,254.9 L 567.0,255.3 L 569.5,255.8 L 572.0,256.2 L 574.5,256.6 L 577.0,257.1 L 579.5,257.5 L 582.0,257.9 L 584.5,258.3 L 587.0,289.9 L 589.5,337.7 L 592.0,365.0 L 594.5,365.0 L 597.0,365.0 L 599.5,365.0 L 602.0,365.0 L 604.5,365.0 L 607.0,365.0 L 609.5,365.0 L 612.0,365.0 L 614.5,365.0 L 617.0,365.0" class="rho"/>
<path d="M 70.0,158.3 L 72.5,158.4 L 75.0,158.5 L 77.5,158.7 L 80.0,158.9 L 82.5,159.2 L 85.0,159.5 L 87.5,159.9 L 90.0,160.3 L 92.5,160.7 L 95.0,161.1 L 97.5,161.6 L 100.0,162.0 L 102.5,162.5 L 105.0,162.9 L 107.5,163.4 L 110.0,163.9 L 112.5,164.4 L 115.0,164.8 L 117.5,165.3 L 120.0,165.8 L 122.5,166.2 L 124.9,166.7 L 127.4,167.2 L 129.9,167.6 L 132.4,168.1 L 134.9,168.5 L 137.4,169.0 L 139.9,169.5 L 142.4,169.9 L 144.9,170.4 L 147.4,170.9 L 149.9,171.3 L 152.4,171.8 L 154.9,172.2 L 157.4,172.7 L 159.9,173.2 L 162.4,173.7 L 164.9,174.1 L 167.4,174.6 L 169.9,175.1 L 172.4,175.6 L 174.9,176.1 L 177.4,176.6 L 179.9,177.1 L 182.4,177.5 L 184.9,178.0 L 187.4,178.6 L 189.9,179.1 L 192.4,179.6 L 194.9,180.1 L 197.4,180.6 L 199.9,181.1 L 202.4,181.6 L 204.9,182.2 L 207.4,182.7 L 209.9,183.2 L 212.4,183.7 L 214.9,184.3 L 217.4,184.8 L 219.9,185.4 L 222.4,185.9 L 224.9,186.5 L 227.4,187.0 L 229.9,187.6 L 232.4,188.1 L 234.8,188.7 L 237.3,189.3 L 239.8,189.8 L 242.3,190.4 L 244.8,191.0 L 247.3,191.5 L 249.8,192.1 L 252.3,192.7 L 254.8,193.3 L 257.3,193.9 L 259.8,194.5 L 262.3,195.1 L 264.8,195.7 L 267.3,196.3 L 269.8,196.9 L 272.3,197.5 L 274.8,198.1 L 277.3,198.7 L 279.8,199.3 L 282.3,199.9 L 284.8,200.5 L 287.3,201.2 L 289.8,201.8 L 292.3,202.4 L 294.8,203.1 L 297.3,203.7 L 299.8,204.3 L 302.3,205.0 L 304.8,205.6 L 307.3,206.3 L 309.8,206.9 L 312.3,207.6 L 314.8,208.2 L 317.3,208.9 L 319.8,209.6 L 322.3,210.2 L 324.8,210.9 L 327.3,211.6 L 329.8,212.3 L 332.3,213.0 L 334.8,213.7 L 337.3,214.4 L 339.8,215.1 L 342.3,215.8 L 344.7,216.5 L 347.2,217.2 L 349.7,217.9 L 352.2,218.7 L 354.7,219.4 L 357.2,220.1 L 359.7,220.9 L 362.2,221.6 L 364.7,222.4 L 367.2,223.2 L 369.7,224.0 L 372.2,224.7 L 374.7,225.5 L 377.2,226.3 L 379.7,227.1 L 382.2,228.0 L 384.7,228.8 L 387.2,229.6 L 389.7,230.4 L 392.2,231.3 L 394.7,232.1 L 397.2,233.0 L 399.7,233.8 L 402.2,234.7 L 404.7,235.6 L 407.2,236.4 L 409.7,237.3 L 412.2,238.2 L 414.7,239.1 L 417.2,240.0 L 419.7,240.9 L 422.2,241.8 L 424.7,242.6 L 427.2,243.5 L 429.7,244.4 L 432.2,245.3 L 434.7,246.3 L 437.2,247.2 L 439.7,248.1 L 442.2,249.0 L 444.7,249.9 L 447.2,250.8 L 449.7,251.7 L 452.2,252.6 L 454.6,253.6 L 457.1,254.5 L 459.6,255.4 L 462.1,256.3 L 464.6,257.2 L 467.1,258.2 L 469.6,259.1 L 472.1,260.0 L 474.6,260.9 L 477.1,261.9 L 479.6,262.8 L 482.1,263.7 L 484.6,264.7 L 487.1,265.6 L 489.6,266.6 L 492.1,267.5 L 494.6,268.5 L 497.1,269.4 L 499.6,270.4 L 502.1,271.3 L 504.6,272.3 L 507.1,273.3 L 509.6,274.2 L 512.1,275.2 L 514.6,276.2 L 517.1,277.2 L 519.6,278.2 L 522.1,279.2 L 524.6,280.2 L 527.1,281.2 L 529.6,282.2 L 532.1,283.3 L 534.6,284.3 L 537.1,285.4 L 539.6,286.4 L 542.1,287.5 L 544.6,288.6 L 547.1,289.7 L 549.6,290.9 L 552.1,292.0 L 554.6,293.2 L 557.1,294.4 L 559.6,295.6 L 562.1,296.9 L 564.5,298.2 L 567.0,299.5 L 569.5,300.8 L 572.0,302.2 L 574.5,303.6 L 577.0,305.0 L 579.5,306.4 L 582.0,307.9 L 584.5,309.3 L 587.0,310.8 L 589.5,312.2 L 592.0,313.6 L 594.5,314.9 L 597.0,316.3 L 599.5,317.5 L 602.0,318.8 L 604.5,319.9 L 607.0,321.1 L 609.5,322.1 L 612.0,323.1 L 614.5,324.1 L 617.0,325.0" class="sig"/>
<path d="M 75.5,340.2 L 80.9,330.4 L 86.4,323.2 L 91.9,317.5 L 97.3,312.5 L 102.8,308.0 L 108.3,303.8 L 113.8,299.9 L 119.2,296.2 L 124.7,292.7 L 130.2,289.4 L 135.6,286.3 L 141.1,283.3 L 146.6,280.3 L 152.1,277.5 L 157.5,274.8 L 163.0,272.2 L 168.5,269.6 L 173.9,267.1 L 179.4,264.7 L 184.9,262.4 L 190.3,260.1 L 195.8,257.9 L 201.3,255.7 L 206.8,253.6 L 212.2,251.5 L 217.7,249.5 L 223.2,247.5 L 228.6,245.5 L 234.1,243.6 L 239.6,241.7 L 245.0,239.9 L 250.5,238.1 L 256.0,236.3 L 261.5,234.6 L 266.9,232.9 L 272.4,231.2 L 277.9,229.6 L 283.3,227.9 L 288.8,226.3 L 294.3,224.8 L 299.7,223.2 L 305.2,221.7 L 310.7,220.2 L 316.2,218.7 L 321.6,217.2 L 327.1,215.8 L 332.6,214.4 L 338.0,213.0 L 343.5,211.6 L 349.0,210.2 L 354.4,208.9 L 359.9,207.6 L 365.4,206.2 L 370.9,205.0 L 376.3,203.7 L 381.8,202.4 L 387.3,201.2 L 392.7,200.0 L 398.2,198.8 L 403.7,197.6 L 409.1,196.5 L 414.6,195.4 L 420.1,194.3 L 425.6,193.2 L 431.0,192.1 L 436.5,191.1 L 442.0,190.1 L 447.4,189.1 L 452.9,188.1 L 458.4,187.1 L 463.8,186.2 L 469.3,185.2 L 474.8,184.3 L 480.3,183.4 L 485.7,182.5 L 491.2,181.6 L 496.7,180.8 L 502.1,179.9 L 507.6,179.1 L 513.1,178.3 L 518.5,177.5 L 524.0,176.7 L 529.5,176.0 L 535.0,175.2 L 540.4,174.5 L 545.9,173.8 L 551.4,173.1 L 556.8,172.4 L 562.3,171.7 L 567.8,171.0 L 573.2,170.3 L 578.7,169.7 L 584.2,169.1 L 589.6,168.9 L 595.1,169.9 L 600.6,170.8 L 606.1,171.9 L 611.5,173.0 L 617.0,173.9" class="nt"/>
<path d="M 74.6,356.9 L 79.1,351.2 L 83.7,345.3 L 88.2,340.0 L 92.8,335.5 L 97.3,331.7 L 101.9,328.5 L 106.5,325.7 L 111.0,323.2 L 115.6,320.9 L 120.1,318.9 L 124.7,316.9 L 129.3,315.1 L 133.8,313.3 L 138.4,311.5 L 142.9,309.7 L 147.5,307.9 L 152.1,306.1 L 156.6,304.2 L 161.2,302.4 L 165.7,300.5 L 170.3,298.7 L 174.8,296.8 L 179.4,295.0 L 184.0,293.1 L 188.5,291.3 L 193.1,289.4 L 197.6,287.6 L 202.2,285.8 L 206.8,284.0 L 211.3,282.2 L 215.9,280.5 L 220.4,278.7 L 225.0,277.0 L 229.5,275.2 L 234.1,273.5 L 238.7,271.8 L 243.2,270.1 L 247.8,268.4 L 252.3,266.7 L 256.9,265.0 L 261.5,263.4 L 266.0,261.7 L 270.6,260.1 L 275.1,258.4 L 279.7,256.7 L 284.2,255.1 L 288.8,253.4 L 293.4,251.7 L 297.9,250.0 L 302.5,248.4 L 307.0,246.6 L 311.6,244.9 L 316.1,243.2 L 320.7,241.4 L 325.3,239.6 L 329.8,237.7 L 334.4,235.9 L 338.9,233.9 L 343.5,231.9 L 348.1,229.9 L 352.6,227.8 L 357.2,225.6 L 361.7,223.3 L 366.3,221.0 L 370.9,218.6 L 375.4,216.3 L 380.0,213.9 L 384.5,211.6 L 389.1,209.3 L 393.6,207.2 L 398.2,205.2 L 402.8,203.2 L 407.3,201.4 L 411.9,199.7 L 416.4,198.0 L 421.0,196.4 L 425.6,194.9 L 430.1,193.4 L 434.7,191.9 L 439.2,190.5 L 443.8,189.1 L 448.3,187.8 L 452.9,186.5 L 457.5,185.1 L 462.0,183.8 L 466.6,182.5 L 471.1,181.1 L 475.7,179.8 L 480.3,178.4 L 484.8,176.9 L 489.4,175.4 L 493.9,173.9 L 498.5,172.3 L 503.0,170.6 L 507.6,168.7 L 512.2,166.8 L 516.7,164.7 L 521.3,162.4 L 525.8,159.9 L 530.4,157.1 L 535.0,154.0 L 539.5,150.5 L 544.1,146.7 L 548.6,142.4 L 553.2,137.6 L 557.7,132.3 L 562.3,126.6 L 566.9,120.8 L 571.4,115.2 L 576.0,110.5 L 580.5,107.2 L 585.1,106.4 L 589.6,108.1 L 594.2,112.4 L 598.8,118.9 L 603.3,126.8 L 607.9,135.5 L 612.4,144.4 L 617.0,152.9" class="fw"/>
<line x1="128.60" y1="272.14" x2="128.60" y2="357.34" class="err"/>
<line x1="125.60" y1="272.14" x2="131.60" y2="272.14" class="err"/>
<line x1="125.60" y1="357.34" x2="131.60" y2="357.34" class="err"/>
<circle cx="128.60" cy="314.74" r="2.5" class="obs"/>
<line x1="187.19" y1="249.83" x2="187.19" y2="335.03" class="err"/>
<line x1="184.19" y1="249.83" x2="190.19" y2="249.83" class="err"/>
<line x1="184.19" y1="335.03" x2="190.19" y2="335.03" class="err"/>
<circle cx="187.19" cy="292.43" r="2.5" class="obs"/>
<line x1="245.79" y1="224.16" x2="245.79" y2="309.36" class="err"/>
<line x1="242.79" y1="224.16" x2="248.79" y2="224.16" class="err"/>
<line x1="242.79" y1="309.36" x2="248.79" y2="309.36" class="err"/>
<circle cx="245.79" cy="266.76" r="2.5" class="obs"/>
<line x1="301.30" y1="203.46" x2="301.30" y2="288.67" class="err"/>
<line x1="298.30" y1="203.46" x2="304.30" y2="203.46" class="err"/>
<line x1="298.30" y1="288.67" x2="304.30" y2="288.67" class="err"/>
<circle cx="301.30" cy="246.06" r="2.5" class="obs"/>
<line x1="359.90" y1="178.60" x2="359.90" y2="263.80" class="err"/>
<line x1="356.90" y1="178.60" x2="362.90" y2="178.60" class="err"/>
<line x1="356.90" y1="263.80" x2="362.90" y2="263.80" class="err"/>
<circle cx="359.90" cy="221.20" r="2.5" class="obs"/>
<line x1="418.50" y1="155.75" x2="418.50" y2="240.96" class="err"/>
<line x1="415.50" y1="155.75" x2="421.50" y2="155.75" class="err"/>
<line x1="415.50" y1="240.96" x2="421.50" y2="240.96" class="err"/>
<circle cx="418.50" cy="198.36" r="2.5" class="obs"/>
<line x1="477.09" y1="132.91" x2="477.09" y2="218.11" class="err"/>
<line x1="474.09" y1="132.91" x2="480.09" y2="132.91" class="err"/>
<line x1="474.09" y1="218.11" x2="480.09" y2="218.11" class="err"/>
<circle cx="477.09" cy="175.51" r="2.5" class="obs"/>
<line x1="535.69" y1="108.72" x2="535.69" y2="193.92" class="err"/>
<line x1="532.69" y1="108.72" x2="538.69" y2="108.72" class="err"/>
<line x1="532.69" y1="193.92" x2="538.69" y2="193.92" class="err"/>
<circle cx="535.69" cy="151.32" r="2.5" class="obs"/>
<line x1="591.20" y1="83.18" x2="591.20" y2="168.39" class="err"/>
<line x1="588.20" y1="83.18" x2="594.20" y2="83.18" class="err"/>
<line x1="588.20" y1="168.39" x2="594.20" y2="168.39" class="err"/>
<circle cx="591.20" cy="125.78" r="2.5" class="obs"/>
<g class="legend">
<line x1="82" y1="69" x2="106" y2="69" class="fw"/>
<text x="112" y="73" class="lbl-l">framework fit</text>
<line x1="82" y1="87" x2="106" y2="87" class="nt"/>
<text x="112" y="91" class="lbl-l">Newtonian (no halo)</text>
<circle cx="94" cy="105" r="2.5" class="obs"/>
<text x="112" y="109" class="lbl">observed V±err</text>
</g>
<g class="legend">
<line x1="442" y1="69" x2="466" y2="69" class="rho"/>
<text x="472" y="73" class="lbl-r">ρ(r) raw</text>
<line x1="442" y1="87" x2="466" y2="87" class="sig"/>
<text x="472" y="91" class="lbl-s">Σ(r) cumulative</text>
<text x="442" y="113" class="lbl-r">ρ peak: 15 M☉/pc²</text>
</g>
<rect x="705" y="55" width="170" height="170" class="preview-bg"/>
<defs><radialGradient id="g_UGC07577" cx="0.5" cy="0.5" r="0.5">
  <stop offset="0.0000" stop-color="rgb(70,17.5,17.5)"/>
  <stop offset="0.0313" stop-color="rgb(68,17,17)"/>
  <stop offset="0.0625" stop-color="rgb(66,16.5,16.5)"/>
  <stop offset="0.0938" stop-color="rgb(66,16.5,16.5)"/>
  <stop offset="0.1250" stop-color="rgb(66,16.5,16.5)"/>
  <stop offset="0.1563" stop-color="rgb(66,16.5,16.5)"/>
  <stop offset="0.1875" stop-color="rgb(66,16.5,16.5)"/>
  <stop offset="0.2188" stop-color="rgb(66,16.5,16.5)"/>
  <stop offset="0.2500" stop-color="rgb(65,16.25,16.25)"/>
  <stop offset="0.2813" stop-color="rgb(65,16.25,16.25)"/>
  <stop offset="0.3125" stop-color="rgb(65,16.25,16.25)"/>
  <stop offset="0.3438" stop-color="rgb(65,16.25,16.25)"/>
  <stop offset="0.3750" stop-color="rgb(65,16.25,16.25)"/>
  <stop offset="0.4063" stop-color="rgb(65,16.25,16.25)"/>
  <stop offset="0.4375" stop-color="rgb(65,16.25,16.25)"/>
  <stop offset="0.4688" stop-color="rgb(64,16,16)"/>
  <stop offset="0.5000" stop-color="rgb(64,16,16)"/>
  <stop offset="0.5313" stop-color="rgb(64,16,16)"/>
  <stop offset="0.5625" stop-color="rgb(64,16,16)"/>
  <stop offset="0.5938" stop-color="rgb(64,16,16)"/>
  <stop offset="0.6250" stop-color="rgb(63,15.75,15.75)"/>
  <stop offset="0.6563" stop-color="rgb(62,15.5,15.5)"/>
  <stop offset="0.6875" stop-color="rgb(60,15,15)"/>
  <stop offset="0.7188" stop-color="rgb(59,14.75,14.75)"/>
  <stop offset="0.7500" stop-color="rgb(58,14.5,14.5)"/>
  <stop offset="0.7813" stop-color="rgb(57,14.25,14.25)"/>
  <stop offset="0.8125" stop-color="rgb(55,13.75,13.75)"/>
  <stop offset="0.8438" stop-color="rgb(54,13.5,13.5)"/>
  <stop offset="0.8750" stop-color="rgb(53,13.25,13.25)"/>
  <stop offset="0.9063" stop-color="rgb(51,12.75,12.75)"/>
  <stop offset="0.9375" stop-color="rgb(50,12.5,12.5)"/>
  <stop offset="0.9688" stop-color="rgb(49,12.25,12.25)"/>
  <stop offset="1.0000" stop-color="rgb(0,0,0)"/>
</radialGradient></defs>
<circle cx="790" cy="140" r="81" fill="url(#g_UGC07577)"/>
<text x="790" y="49" text-anchor="middle" class="preview-lbl">face-on luminance from ρ(r)</text>
<text x="790" y="239" text-anchor="middle" class="preview-lbl">edge at r = 1.7 kpc</text>
</svg>