<svg xmlns="http://www.w3.org/2000/svg" viewBox="0 0 960 450" width="960" height="450" font-family="sans-serif" font-size="12">
<style>
  .ax { stroke: #333; stroke-width: 1; fill: none; }
  .grid { stroke: #ddd; stroke-width: 0.5; fill: none; }
  .lbl { fill: #333; }
  .lbl-l { fill: #0066cc; }
  .lbl-r { fill: #b03030; }
  .obs { fill: #222; }
  .err { stroke: #555; stroke-width: 0.8; fill: none; }
  .fw { stroke: #0066cc; stroke-width: 2.2; fill: none; }
  .nt { stroke: #cc6600; stroke-width: 1.6; fill: none; stroke-dasharray: 5,3; }
  .mond { stroke: #7b2cbf; stroke-width: 1.8; fill: none; stroke-dasharray: 7,3; }
  .lbl-p { fill: #cc7000; }
  .lbl-m { fill: #7b2cbf; }
  .rho { stroke: #b03030; stroke-width: 2.0; fill: none; }
  .phot { stroke: #cc7000; stroke-width: 1.8; fill: none; }
  .mbar { stroke: #8e44ad; stroke-width: 1.8; fill: none; opacity: 0.9; }
  .mph { stroke: #c77dff; stroke-width: 1.6; fill: none; stroke-dasharray: 4,3; opacity: 0.95; }
  .title { fill: #111; font-size: 16px; font-weight: 600; }
  .subtitle { fill: #555; font-size: 11px; }
  .preview-bg { fill: #000; }
  .preview-lbl { fill: #888; font-size: 10px; }
  .legend { font-size: 11px; }
</style>
<text x="378.5" y="22" text-anchor="middle" class="title">UGC07125</text>
<text x="378.5" y="38" text-anchor="middle" class="subtitle">rMax=18.7 kpc, N=13, FW=0.8 km/s, 1.7%, 0.29σ, MOND=30.7 km/s, 52.0%, 11.94σ, amp=105</text>
<line x1="70" y1="395.0" x2="687" y2="395.0" class="grid"/>
<text x="64" y="399.0" text-anchor="end" class="lbl-l">0</text>
<line x1="70" y1="327.0" x2="687" y2="327.0" class="grid"/>
<text x="64" y="331.0" text-anchor="end" class="lbl-l">24</text>
<line x1="70" y1="259.0" x2="687" y2="259.0" class="grid"/>
<text x="64" y="263.0" text-anchor="end" class="lbl-l">48</text>
<line x1="70" y1="191.0" x2="687" y2="191.0" class="grid"/>
<text x="64" y="195.0" text-anchor="end" class="lbl-l">72</text>
<line x1="70" y1="123.0" x2="687" y2="123.0" class="grid"/>
<text x="64" y="127.0" text-anchor="end" class="lbl-l">96</text>
<line x1="70" y1="55.0" x2="687" y2="55.0" class="grid"/>
<text x="64" y="59.0" text-anchor="end" class="lbl-l">120</text>
<text x="693" y="399.0" text-anchor="start" class="lbl-r">0.0</text>
<text x="693" y="353.7" text-anchor="start" class="lbl-r">0.2</text>
<text x="693" y="308.3" text-anchor="start" class="lbl-r">0.4</text>
<text x="693" y="263.0" text-anchor="start" class="lbl-r">0.6</text>
<text x="693" y="217.7" text-anchor="start" class="lbl-r">0.8</text>
<text x="693" y="172.3" text-anchor="start" class="lbl-r">1.0</text>
<line x1="70.0" y1="55" x2="70.0" y2="395" class="grid"/>
<text x="70.0" y="411" text-anchor="middle" class="lbl">0.0</text>
<line x1="172.8" y1="55" x2="172.8" y2="395" class="grid"/>
<text x="172.8" y="411" text-anchor="middle" class="lbl">3.5</text>
<line x1="275.7" y1="55" x2="275.7" y2="395" class="grid"/>
<text x="275.7" y="411" text-anchor="middle" class="lbl">6.9</text>
<line x1="378.5" y1="55" x2="378.5" y2="395" class="grid"/>
<text x="378.5" y="411" text-anchor="middle" class="lbl">10.4</text>
<line x1="481.3" y1="55" x2="481.3" y2="395" class="grid"/>
<text x="481.3" y="411" text-anchor="middle" class="lbl">13.8</text>
<line x1="584.2" y1="55" x2="584.2" y2="395" class="grid"/>
<text x="584.2" y="411" text-anchor="middle" class="lbl">17.3</text>
<line x1="687.0" y1="55" x2="687.0" y2="395" class="grid"/>
<text x="687.0" y="411" text-anchor="middle" class="lbl">20.7</text>
<text x="378.5" y="438" text-anchor="middle" class="lbl">radius (kpc)</text>
<text x="16" y="225" text-anchor="middle" class="lbl-l" transform="rotate(-90, 16, 225)">velocity (km/s)</text>
<text x="724" y="225" text-anchor="middle" class="lbl-r" transform="rotate(-90, 724, 225)">profiles (normalized to peak)</text>
<rect x="70" y="55" width="617" height="340" class="ax"/>
<path d="M 70.0,168.3 L 72.8,179.0 L 75.6,189.6 L 78.5,200.3 L 81.3,210.4 L 84.1,212.1 L 86.9,213.8 L 89.7,215.5 L 92.5,217.2 L 95.4,218.9 L 98.2,220.6 L 101.0,222.2 L 103.8,223.9 L 106.6,225.6 L 109.4,227.3 L 112.3,229.0 L 115.1,230.7 L 117.9,232.4 L 120.7,234.1 L 123.5,235.7 L 126.3,237.4 L 129.2,239.1 L 132.0,240.8 L 134.8,242.5 L 137.6,244.2 L 140.4,245.9 L 143.3,247.5 L 146.1,249.2 L 148.9,250.9 L 151.7,252.6 L 154.5,254.3 L 157.3,256.0 L 160.2,257.7 L 163.0,259.3 L 165.8,261.0 L 168.6,262.7 L 171.4,264.4 L 174.2,266.1 L 177.1,267.8 L 179.9,269.5 L 182.7,271.2 L 185.5,272.8 L 188.3,274.5 L 191.1,275.6 L 194.0,275.8 L 196.8,276.0 L 199.6,276.2 L 202.4,276.4 L 205.2,276.6 L 208.1,276.8 L 210.9,277.0 L 213.7,277.1 L 216.5,277.3 L 219.3,277.8 L 222.1,278.2 L 225.0,278.7 L 227.8,279.2 L 230.6,279.7 L 233.4,280.1 L 236.2,280.6 L 239.0,281.1 L 241.9,281.5 L 244.7,282.0 L 247.5,282.5 L 250.3,283.0 L 253.1,283.4 L 255.9,283.9 L 258.8,284.4 L 261.6,284.8 L 264.4,285.3 L 267.2,285.8 L 270.0,286.3 L 272.8,286.7 L 275.7,287.2 L 278.5,287.7 L 281.3,288.1 L 284.1,288.6 L 286.9,289.1 L 289.8,289.6 L 292.6,290.0 L 295.4,290.5 L 298.2,291.0 L 301.0,291.4 L 303.8,291.9 L 306.7,292.4 L 309.5,292.9 L 312.3,293.3 L 315.1,293.8 L 317.9,294.3 L 320.7,294.7 L 323.6,295.2 L 326.4,295.7 L 329.2,296.2 L 332.0,296.6 L 334.8,297.1 L 337.6,297.6 L 340.5,298.0 L 343.3,298.5 L 346.1,299.0 L 348.9,299.4 L 351.7,299.9 L 354.6,300.4 L 357.4,300.9 L 360.2,301.3 L 363.0,301.8 L 365.8,302.3 L 368.6,302.7 L 371.5,303.2 L 374.3,303.7 L 377.1,304.2 L 379.9,304.6 L 382.7,305.1 L 385.5,305.6 L 388.4,306.0 L 391.2,306.5 L 394.0,307.0 L 396.8,307.5 L 399.6,307.9 L 402.4,308.4 L 405.3,308.9 L 408.1,309.3 L 410.9,309.8 L 413.7,310.3 L 416.5,310.8 L 419.4,311.2 L 422.2,311.7 L 425.0,312.2 L 427.8,312.6 L 430.6,313.1 L 433.4,313.6 L 436.3,314.1 L 439.1,314.5 L 441.9,315.0 L 444.7,315.5 L 447.5,315.9 L 450.3,316.4 L 453.2,316.9 L 456.0,317.4 L 458.8,317.8 L 461.6,318.3 L 464.4,318.8 L 467.2,319.2 L 470.1,319.7 L 472.9,320.2 L 475.7,320.7 L 478.5,321.1 L 481.3,321.6 L 484.2,322.1 L 487.0,322.5 L 489.8,323.0 L 492.6,323.5 L 495.4,323.9 L 498.2,324.4 L 501.1,324.9 L 503.9,325.4 L 506.7,325.8 L 509.5,326.3 L 512.3,326.8 L 515.1,327.2 L 518.0,327.7 L 520.8,328.2 L 523.6,328.7 L 526.4,329.1 L 529.2,329.6 L 532.0,330.1 L 534.9,330.5 L 537.7,331.0 L 540.5,331.5 L 543.3,332.0 L 546.1,332.4 L 548.9,332.9 L 551.8,333.4 L 554.6,333.8 L 557.4,334.3 L 560.2,334.8 L 563.0,335.3 L 565.9,335.7 L 568.7,336.2 L 571.5,336.7 L 574.3,337.1 L 577.1,337.6 L 579.9,338.1 L 582.8,338.6 L 585.6,339.0 L 588.4,339.5 L 591.2,340.0 L 594.0,340.4 L 596.8,340.9 L 599.7,341.4 L 602.5,341.9 L 605.3,342.3 L 608.1,342.8 L 610.9,343.3 L 613.7,343.7 L 616.6,344.3 L 619.4,347.8 L 622.2,351.3 L 625.0,354.7 L 627.8,358.2 L 630.7,361.7 L 633.5,365.2 L 636.3,368.7 L 639.1,372.1 L 641.9,375.6 L 644.7,379.1 L 647.6,382.6 L 650.4,386.1 L 653.2,389.5 L 656.0,393.0 L 658.8,395.0 L 661.6,395.0 L 664.5,395.0 L 667.3,395.0 L 670.1,395.0 L 672.9,395.0 L 675.7,395.0 L 678.5,395.0 L 681.4,395.0 L 684.2,395.0 L 687.0,395.0" class="rho"/>
<path d="M 112.9,168.3 L 155.7,307.0 L 198.9,348.9 L 241.4,370.8 L 284.3,380.0 L 327.1,383.0 L 370.0,387.7 L 411.4,390.4 L 456.9,392.9 L 499.2,395.0 L 541.4,395.0 L 583.7,395.0 L 625.9,395.0" class="phot"/>
<path d="M 112.9,168.3 L 155.7,194.1 L 198.9,257.3 L 241.4,311.2 L 284.3,332.1 L 327.1,322.8 L 370.0,311.2 L 411.4,293.3 L 456.9,281.6 L 499.2,321.9 L 541.4,359.9 L 583.7,367.2 L 625.9,383.0" class="mbar"/>
<path d="M 112.9,168.3 L 155.7,180.5 L 198.9,211.5 L 241.4,243.4 L 284.3,260.0 L 327.1,255.6 L 370.0,248.4 L 411.4,235.4 L 456.9,226.7 L 499.2,256.5 L 541.4,285.9 L 583.7,308.3 L 625.9,351.8" class="mph"/>
<path d="M 76.2,360.9 L 82.3,348.6 L 88.5,339.3 L 94.7,331.4 L 100.8,324.6 L 107.0,318.5 L 113.2,313.0 L 119.4,308.0 L 125.5,303.4 L 131.7,299.2 L 137.9,295.2 L 144.0,291.6 L 150.2,288.2 L 156.4,285.1 L 162.6,282.1 L 168.7,279.3 L 174.9,276.8 L 181.1,274.3 L 187.2,272.1 L 193.4,269.9 L 199.6,267.8 L 205.7,265.7 L 211.9,263.6 L 218.1,261.6 L 224.2,259.5 L 230.4,257.5 L 236.6,255.6 L 242.8,253.7 L 248.9,251.8 L 255.1,250.0 L 261.3,248.2 L 267.4,246.5 L 273.6,244.8 L 279.8,243.1 L 286.0,241.5 L 292.1,239.9 L 298.3,238.3 L 304.5,236.8 L 310.6,235.3 L 316.8,233.9 L 323.0,232.5 L 329.1,231.1 L 335.3,229.8 L 341.5,228.4 L 347.6,227.1 L 353.8,225.9 L 360.0,224.7 L 366.2,223.5 L 372.3,222.3 L 378.5,221.2 L 384.7,220.0 L 390.8,219.0 L 397.0,217.9 L 403.2,216.9 L 409.4,215.9 L 415.5,214.9 L 421.7,213.9 L 427.9,213.0 L 434.0,212.1 L 440.2,211.2 L 446.4,210.3 L 452.5,209.5 L 458.7,208.7 L 464.9,207.9 L 471.1,207.1 L 477.2,206.4 L 483.4,205.7 L 489.6,205.0 L 495.7,204.3 L 501.9,203.6 L 508.1,203.0 L 514.2,202.4 L 520.4,201.8 L 526.6,201.2 L 532.8,200.7 L 538.9,200.2 L 545.1,199.7 L 551.3,199.2 L 557.4,198.7 L 563.6,198.3 L 569.8,197.8 L 575.9,197.4 L 582.1,197.0 L 588.3,196.7 L 594.4,196.3 L 600.6,196.0 L 606.8,195.7 L 613.0,195.4 L 619.1,195.1 L 625.3,195.0 L 631.5,195.1 L 637.6,195.4 L 643.8,196.0 L 650.0,196.7 L 656.1,197.5 L 662.3,198.6 L 668.5,199.6 L 674.7,200.6 L 680.8,201.6 L 687.0,202.5" class="nt"/>
<path d="M 112.9,274.8 L 155.7,223.6 L 198.9,204.0 L 241.4,187.3 L 284.3,181.2 L 327.1,163.7 L 370.0,147.5 L 411.4,132.0 L 456.9,103.7 L 499.2,94.7 L 541.4,93.4 L 583.7,85.9 L 625.9,98.1" class="mond"/>
<path d="M 75.1,382.6 L 80.3,373.1 L 85.4,363.1 L 90.6,353.5 L 95.7,344.5 L 100.8,336.0 L 106.0,328.0 L 111.1,320.5 L 116.3,313.4 L 121.4,306.7 L 126.6,300.4 L 131.7,294.6 L 136.8,289.1 L 142.0,284.2 L 147.1,279.6 L 152.3,275.5 L 157.4,271.9 L 162.6,268.7 L 167.7,266.0 L 172.8,263.8 L 178.0,262.0 L 183.1,260.7 L 188.3,259.7 L 193.4,258.9 L 198.5,258.2 L 203.7,257.5 L 208.8,256.7 L 214.0,255.7 L 219.1,254.6 L 224.3,253.4 L 229.4,252.1 L 234.5,250.7 L 239.7,249.3 L 244.8,247.9 L 250.0,246.5 L 255.1,245.1 L 260.2,243.6 L 265.4,242.2 L 270.5,240.9 L 275.7,239.5 L 280.8,238.2 L 286.0,236.9 L 291.1,235.6 L 296.2,234.3 L 301.4,233.1 L 306.5,231.9 L 311.7,230.7 L 316.8,229.6 L 321.9,228.5 L 327.1,227.4 L 332.2,226.3 L 337.4,225.3 L 342.5,224.4 L 347.6,223.4 L 352.8,222.5 L 357.9,221.7 L 363.1,220.8 L 368.2,220.0 L 373.4,219.3 L 378.5,218.6 L 383.6,217.9 L 388.8,217.2 L 393.9,216.6 L 399.1,216.0 L 404.2,215.5 L 409.3,215.0 L 414.5,214.5 L 419.6,214.0 L 424.8,213.6 L 429.9,213.2 L 435.1,212.9 L 440.2,212.6 L 445.3,212.3 L 450.5,212.0 L 455.6,211.8 L 460.8,211.6 L 465.9,211.5 L 471.1,211.3 L 476.2,211.2 L 481.3,211.1 L 486.5,211.0 L 491.6,211.0 L 496.8,211.0 L 501.9,211.0 L 507.0,211.0 L 512.2,211.0 L 517.3,211.0 L 522.5,211.1 L 527.6,211.1 L 532.8,211.2 L 537.9,211.2 L 543.0,211.2 L 548.2,211.2 L 553.3,211.1 L 558.5,211.0 L 563.6,210.9 L 568.7,210.7 L 573.9,210.4 L 579.0,210.0 L 584.2,209.4 L 589.3,208.8 L 594.4,208.0 L 599.6,207.2 L 604.7,206.3 L 609.9,205.7 L 615.0,205.3 L 620.2,205.6 L 625.3,206.6 L 630.4,208.4 L 635.6,211.2 L 640.7,214.7 L 645.9,218.8 L 651.0,223.3 L 656.1,228.0 L 661.3,232.7 L 666.4,237.3 L 671.6,241.6 L 676.7,245.7 L 681.9,249.4 L 687.0,253.0" class="fw"/>
<line x1="112.86" y1="312.03" x2="112.86" y2="330.66" class="err"/>
<line x1="109.86" y1="312.03" x2="115.86" y2="312.03" class="err"/>
<line x1="109.86" y1="330.66" x2="115.86" y2="330.66" class="err"/>
<circle cx="112.86" cy="321.35" r="2.5" class="obs"/>
<line x1="155.71" y1="263.86" x2="155.71" y2="283.45" class="err"/>
<line x1="152.71" y1="263.86" x2="158.71" y2="263.86" class="err"/>
<line x1="152.71" y1="283.45" x2="158.71" y2="283.45" class="err"/>
<circle cx="155.71" cy="273.65" r="2.5" class="obs"/>
<line x1="198.86" y1="251.50" x2="198.86" y2="264.76" class="err"/>
<line x1="195.86" y1="251.50" x2="201.86" y2="251.50" class="err"/>
<line x1="195.86" y1="264.76" x2="201.86" y2="264.76" class="err"/>
<circle cx="198.86" cy="258.13" r="2.5" class="obs"/>
<line x1="241.42" y1="241.20" x2="241.42" y2="252.49" class="err"/>
<line x1="238.42" y1="241.20" x2="244.42" y2="241.20" class="err"/>
<line x1="238.42" y1="252.49" x2="244.42" y2="252.49" class="err"/>
<circle cx="241.42" cy="246.85" r="2.5" class="obs"/>
<line x1="284.28" y1="230.05" x2="284.28" y2="241.62" class="err"/>
<line x1="281.28" y1="230.05" x2="287.28" y2="230.05" class="err"/>
<line x1="281.28" y1="241.62" x2="287.28" y2="241.62" class="err"/>
<circle cx="284.28" cy="235.84" r="2.5" class="obs"/>
<line x1="327.13" y1="223.68" x2="327.13" y2="236.15" class="err"/>
<line x1="324.13" y1="223.68" x2="330.13" y2="223.68" class="err"/>
<line x1="324.13" y1="236.15" x2="330.13" y2="236.15" class="err"/>
<circle cx="327.13" cy="229.91" r="2.5" class="obs"/>
<line x1="369.99" y1="215.52" x2="369.99" y2="227.37" class="err"/>
<line x1="366.99" y1="215.52" x2="372.99" y2="215.52" class="err"/>
<line x1="366.99" y1="227.37" x2="372.99" y2="227.37" class="err"/>
<circle cx="369.99" cy="221.45" r="2.5" class="obs"/>
<line x1="411.36" y1="207.03" x2="411.36" y2="218.37" class="err"/>
<line x1="408.36" y1="207.03" x2="414.36" y2="207.03" class="err"/>
<line x1="408.36" y1="218.37" x2="414.36" y2="218.37" class="err"/>
<circle cx="411.36" cy="212.70" r="2.5" class="obs"/>
<line x1="456.89" y1="203.89" x2="456.89" y2="215.86" class="err"/>
<line x1="453.89" y1="203.89" x2="459.89" y2="203.89" class="err"/>
<line x1="453.89" y1="215.86" x2="459.89" y2="215.86" class="err"/>
<circle cx="456.89" cy="209.88" r="2.5" class="obs"/>
<line x1="499.15" y1="202.96" x2="499.15" y2="217.92" class="err"/>
<line x1="496.15" y1="202.96" x2="502.15" y2="202.96" class="err"/>
<line x1="496.15" y1="217.92" x2="502.15" y2="217.92" class="err"/>
<circle cx="499.15" cy="210.44" r="2.5" class="obs"/>
<line x1="541.41" y1="201.55" x2="541.41" y2="218.77" class="err"/>
<line x1="538.41" y1="201.55" x2="544.41" y2="201.55" class="err"/>
<line x1="538.41" y1="218.77" x2="544.41" y2="218.77" class="err"/>
<circle cx="541.41" cy="210.16" r="2.5" class="obs"/>
<line x1="583.67" y1="202.20" x2="583.67" y2="220.37" class="err"/>
<line x1="580.67" y1="202.20" x2="586.67" y2="202.20" class="err"/>
<line x1="580.67" y1="220.37" x2="586.67" y2="220.37" class="err"/>
<circle cx="583.67" cy="211.29" r="2.5" class="obs"/>
<line x1="625.93" y1="202.03" x2="625.93" y2="221.67" class="err"/>
<line x1="622.93" y1="202.03" x2="628.93" y2="202.03" class="err"/>
<line x1="622.93" y1="221.67" x2="628.93" y2="221.67" class="err"/>
<circle cx="625.93" cy="211.85" r="2.5" class="obs"/>
<g class="legend">
<line x1="82" y1="69" x2="106" y2="69" class="fw"/>
<text x="112" y="73" class="lbl-l">framework: 0.8 km/s, 1.7%, 0.29σ</text>
<line x1="82" y1="87" x2="106" y2="87" class="nt"/>
<text x="112" y="91" class="lbl-l">Newtonian: 3.2 km/s, 6.2%, 1.08σ</text>
<line x1="82" y1="105" x2="106" y2="105" class="mond"/>
<text x="112" y="109" class="lbl-m">MOND/RAR: 30.7 km/s, 52.0%, 11.94σ</text>
<circle cx="94" cy="123" r="2.5" class="obs"/>
<text x="112" y="127" class="lbl">observed V±err</text>
</g>
<g class="legend">
<line x1="472" y1="69" x2="496" y2="69" class="rho"/>
<text x="502" y="73" class="lbl-r">ρ(r) raw</text>
<line x1="472" y1="87" x2="496" y2="87" class="phot"/>
<text x="502" y="91" class="lbl-p">photometric baryonic profile</text>
<line x1="472" y1="105" x2="496" y2="105" class="mbar"/>
<text x="502" y="109" class="lbl-m">MOND baryonic annulus</text>
<line x1="472" y1="123" x2="496" y2="123" class="mph"/>
<text x="502" y="127" class="lbl-m">MOND phantom annulus</text>
<text x="472" y="147" class="lbl-r">ρ peak: 56 M☉/pc²</text>
<text x="472" y="163" class="lbl-p">phot peak: 26.11 (arb.)</text>
<text x="472" y="179" class="lbl-m">Σbar peak: 24.03 M☉/pc²</text>
<text x="472" y="195" class="lbl-m">Σphantom peak: 69.72 M☉/pc²</text>
</g>
<rect x="775" y="55" width="170" height="170" class="preview-bg"/>
<defs><radialGradient id="g_UGC07125" cx="0.5" cy="0.5" r="0.5">
  <stop offset="0.0000" stop-color="rgb(126,32,32)"/>
  <stop offset="0.0313" stop-color="rgb(111,28,28)"/>
  <stop offset="0.0625" stop-color="rgb(107,27,27)"/>
  <stop offset="0.0938" stop-color="rgb(103,26,26)"/>
  <stop offset="0.1250" stop-color="rgb(100,25,25)"/>
  <stop offset="0.1563" stop-color="rgb(96,24,24)"/>
  <stop offset="0.1875" stop-color="rgb(92,23,23)"/>
  <stop offset="0.2188" stop-color="rgb(90,23,23)"/>
  <stop offset="0.2500" stop-color="rgb(90,23,23)"/>
  <stop offset="0.2813" stop-color="rgb(89,22,22)"/>
  <stop offset="0.3125" stop-color="rgb(88,22,22)"/>
  <stop offset="0.3438" stop-color="rgb(87,22,22)"/>
  <stop offset="0.3750" stop-color="rgb(86,22,22)"/>
  <stop offset="0.4063" stop-color="rgb(85,21,21)"/>
  <stop offset="0.4375" stop-color="rgb(83,21,21)"/>
  <stop offset="0.4688" stop-color="rgb(82,21,21)"/>
  <stop offset="0.5000" stop-color="rgb(81,20,20)"/>
  <stop offset="0.5313" stop-color="rgb(80,20,20)"/>
  <stop offset="0.5625" stop-color="rgb(79,20,20)"/>
  <stop offset="0.5938" stop-color="rgb(78,20,20)"/>
  <stop offset="0.6250" stop-color="rgb(77,19,19)"/>
  <stop offset="0.6563" stop-color="rgb(76,19,19)"/>
  <stop offset="0.6875" stop-color="rgb(75,19,19)"/>
  <stop offset="0.7188" stop-color="rgb(74,19,19)"/>
  <stop offset="0.7500" stop-color="rgb(73,18,18)"/>
  <stop offset="0.7813" stop-color="rgb(72,18,18)"/>
  <stop offset="0.8125" stop-color="rgb(71,18,18)"/>
  <stop offset="0.8438" stop-color="rgb(70,18,18)"/>
  <stop offset="0.8750" stop-color="rgb(69,17,17)"/>
  <stop offset="0.9063" stop-color="rgb(68,17,17)"/>
  <stop offset="0.9375" stop-color="rgb(65,16,16)"/>
  <stop offset="0.9688" stop-color="rgb(36,9,9)"/>
  <stop offset="1.0000" stop-color="rgb(0,0,0)"/>
</radialGradient></defs>
<circle cx="860" cy="140" r="81" fill="url(#g_UGC07125)"/>
<text x="860" y="49" text-anchor="middle" class="preview-lbl">face-on luminance from ρ(r)</text>
<text x="860" y="239" text-anchor="middle" class="preview-lbl">edge at r = 19.7 kpc</text>
</svg>