<svg xmlns="http://www.w3.org/2000/svg" viewBox="0 0 960 450" width="960" height="450" font-family="sans-serif" font-size="12">
<style>
  .ax { stroke: #333; stroke-width: 1; fill: none; }
  .grid { stroke: #ddd; stroke-width: 0.5; fill: none; }
  .lbl { fill: #333; }
  .lbl-l { fill: #0066cc; }
  .lbl-r { fill: #b03030; }
  .obs { fill: #222; }
  .err { stroke: #555; stroke-width: 0.8; fill: none; }
  .fw { stroke: #0066cc; stroke-width: 2.2; fill: none; }
  .nt { stroke: #cc6600; stroke-width: 1.6; fill: none; stroke-dasharray: 5,3; }
  .mond { stroke: #7b2cbf; stroke-width: 1.8; fill: none; stroke-dasharray: 7,3; }
  .lbl-p { fill: #cc7000; }
  .lbl-m { fill: #7b2cbf; }
  .rho { stroke: #b03030; stroke-width: 2.0; fill: none; }
  .phot { stroke: #cc7000; stroke-width: 1.8; fill: none; }
  .mbar { stroke: #8e44ad; stroke-width: 1.8; fill: none; opacity: 0.9; }
  .mph { stroke: #c77dff; stroke-width: 1.6; fill: none; stroke-dasharray: 4,3; opacity: 0.95; }
  .title { fill: #111; font-size: 16px; font-weight: 600; }
  .subtitle { fill: #555; font-size: 11px; }
  .preview-bg { fill: #000; }
  .preview-lbl { fill: #888; font-size: 10px; }
  .legend { font-size: 11px; }
</style>
<text x="378.5" y="22" text-anchor="middle" class="title">UGC07151</text>
<text x="378.5" y="38" text-anchor="middle" class="subtitle">rMax=5.5 kpc, N=11, FW=0.8 km/s, 1.4%, 0.35σ, MOND=5.5 km/s, 10.7%, 1.96σ, amp=104</text>
<line x1="70" y1="395.0" x2="687" y2="395.0" class="grid"/>
<text x="64" y="399.0" text-anchor="end" class="lbl-l">0</text>
<line x1="70" y1="327.0" x2="687" y2="327.0" class="grid"/>
<text x="64" y="331.0" text-anchor="end" class="lbl-l">19</text>
<line x1="70" y1="259.0" x2="687" y2="259.0" class="grid"/>
<text x="64" y="263.0" text-anchor="end" class="lbl-l">38</text>
<line x1="70" y1="191.0" x2="687" y2="191.0" class="grid"/>
<text x="64" y="195.0" text-anchor="end" class="lbl-l">56</text>
<line x1="70" y1="123.0" x2="687" y2="123.0" class="grid"/>
<text x="64" y="127.0" text-anchor="end" class="lbl-l">75</text>
<line x1="70" y1="55.0" x2="687" y2="55.0" class="grid"/>
<text x="64" y="59.0" text-anchor="end" class="lbl-l">94</text>
<text x="693" y="399.0" text-anchor="start" class="lbl-r">0.0</text>
<text x="693" y="353.7" text-anchor="start" class="lbl-r">0.2</text>
<text x="693" y="308.3" text-anchor="start" class="lbl-r">0.4</text>
<text x="693" y="263.0" text-anchor="start" class="lbl-r">0.6</text>
<text x="693" y="217.7" text-anchor="start" class="lbl-r">0.8</text>
<text x="693" y="172.3" text-anchor="start" class="lbl-r">1.0</text>
<line x1="70.0" y1="55" x2="70.0" y2="395" class="grid"/>
<text x="70.0" y="411" text-anchor="middle" class="lbl">0.0</text>
<line x1="172.8" y1="55" x2="172.8" y2="395" class="grid"/>
<text x="172.8" y="411" text-anchor="middle" class="lbl">1.0</text>
<line x1="275.7" y1="55" x2="275.7" y2="395" class="grid"/>
<text x="275.7" y="411" text-anchor="middle" class="lbl">1.9</text>
<line x1="378.5" y1="55" x2="378.5" y2="395" class="grid"/>
<text x="378.5" y="411" text-anchor="middle" class="lbl">2.9</text>
<line x1="481.3" y1="55" x2="481.3" y2="395" class="grid"/>
<text x="481.3" y="411" text-anchor="middle" class="lbl">3.9</text>
<line x1="584.2" y1="55" x2="584.2" y2="395" class="grid"/>
<text x="584.2" y="411" text-anchor="middle" class="lbl">4.8</text>
<line x1="687.0" y1="55" x2="687.0" y2="395" class="grid"/>
<text x="687.0" y="411" text-anchor="middle" class="lbl">5.8</text>
<text x="378.5" y="438" text-anchor="middle" class="lbl">radius (kpc)</text>
<text x="16" y="225" text-anchor="middle" class="lbl-l" transform="rotate(-90, 16, 225)">velocity (km/s)</text>
<text x="724" y="225" text-anchor="middle" class="lbl-r" transform="rotate(-90, 724, 225)">profiles (normalized to peak)</text>
<rect x="70" y="55" width="617" height="340" class="ax"/>
<path d="M 70.0,168.3 L 72.8,169.6 L 75.6,170.9 L 78.5,172.1 L 81.3,173.4 L 84.1,174.6 L 86.9,175.9 L 89.7,177.1 L 92.5,178.4 L 95.4,179.7 L 98.2,180.9 L 101.0,182.2 L 103.8,183.4 L 106.6,184.7 L 109.4,186.0 L 112.3,187.2 L 115.1,188.5 L 117.9,189.7 L 120.7,191.0 L 123.5,192.2 L 126.3,193.5 L 129.2,194.8 L 132.0,196.0 L 134.8,197.3 L 137.6,198.5 L 140.4,199.8 L 143.3,201.1 L 146.1,202.3 L 148.9,202.9 L 151.7,202.9 L 154.5,202.9 L 157.3,202.9 L 160.2,202.9 L 163.0,202.9 L 165.8,202.9 L 168.6,203.0 L 171.4,203.0 L 174.2,203.0 L 177.1,203.0 L 179.9,203.0 L 182.7,203.0 L 185.5,203.0 L 188.3,203.1 L 191.1,203.1 L 194.0,203.1 L 196.8,203.1 L 199.6,203.1 L 202.4,203.1 L 205.2,204.5 L 208.1,206.5 L 210.9,208.5 L 213.7,210.4 L 216.5,212.4 L 219.3,214.4 L 222.1,216.3 L 225.0,218.3 L 227.8,220.3 L 230.6,222.2 L 233.4,224.2 L 236.2,226.2 L 239.0,228.1 L 241.9,230.1 L 244.7,232.1 L 247.5,234.0 L 250.3,236.0 L 253.1,238.0 L 255.9,239.9 L 258.8,241.9 L 261.6,243.9 L 264.4,244.7 L 267.2,245.3 L 270.0,245.8 L 272.8,246.4 L 275.7,246.9 L 278.5,247.5 L 281.3,248.1 L 284.1,248.6 L 286.9,249.2 L 289.8,249.7 L 292.6,250.3 L 295.4,250.9 L 298.2,251.4 L 301.0,252.0 L 303.8,252.6 L 306.7,253.1 L 309.5,253.7 L 312.3,254.2 L 315.1,254.8 L 317.9,255.4 L 320.7,255.9 L 323.6,256.5 L 326.4,257.0 L 329.2,257.6 L 332.0,258.2 L 334.8,258.7 L 337.6,259.3 L 340.5,259.8 L 343.3,260.4 L 346.1,261.0 L 348.9,261.5 L 351.7,262.1 L 354.6,262.6 L 357.4,263.2 L 360.2,263.8 L 363.0,264.3 L 365.8,264.9 L 368.6,265.4 L 371.5,266.0 L 374.3,266.6 L 377.1,267.1 L 379.9,267.7 L 382.7,268.3 L 385.5,268.8 L 388.4,269.4 L 391.2,269.9 L 394.0,270.5 L 396.8,271.1 L 399.6,271.6 L 402.4,272.2 L 405.3,272.7 L 408.1,273.3 L 410.9,273.9 L 413.7,274.4 L 416.5,275.0 L 419.4,275.5 L 422.2,276.1 L 425.0,276.7 L 427.8,277.2 L 430.6,277.8 L 433.4,278.3 L 436.3,278.9 L 439.1,279.5 L 441.9,280.0 L 444.7,280.6 L 447.5,281.1 L 450.3,281.7 L 453.2,282.3 L 456.0,282.8 L 458.8,283.4 L 461.6,284.0 L 464.4,284.5 L 467.2,285.1 L 470.1,285.6 L 472.9,286.2 L 475.7,286.8 L 478.5,287.3 L 481.3,287.9 L 484.2,288.4 L 487.0,289.0 L 489.8,289.6 L 492.6,290.1 L 495.4,290.7 L 498.2,291.2 L 501.1,291.8 L 503.9,292.4 L 506.7,292.9 L 509.5,293.5 L 512.3,294.0 L 515.1,294.6 L 518.0,295.2 L 520.8,295.7 L 523.6,296.3 L 526.4,296.8 L 529.2,297.4 L 532.0,298.0 L 534.9,298.5 L 537.7,299.1 L 540.5,299.6 L 543.3,300.2 L 546.1,300.8 L 548.9,301.3 L 551.8,301.9 L 554.6,302.5 L 557.4,303.0 L 560.2,303.6 L 563.0,304.1 L 565.9,304.7 L 568.7,305.3 L 571.5,305.8 L 574.3,306.4 L 577.1,306.9 L 579.9,307.5 L 582.8,308.1 L 585.6,308.6 L 588.4,309.2 L 591.2,309.7 L 594.0,310.3 L 596.8,310.9 L 599.7,311.4 L 602.5,312.0 L 605.3,312.5 L 608.1,313.1 L 610.9,313.7 L 613.7,314.2 L 616.6,314.8 L 619.4,315.3 L 622.2,315.9 L 625.0,316.5 L 627.8,317.0 L 630.7,317.6 L 633.5,318.2 L 636.3,318.7 L 639.1,319.3 L 641.9,319.8 L 644.7,320.4 L 647.6,321.0 L 650.4,321.5 L 653.2,339.8 L 656.0,374.9 L 658.8,395.0 L 661.6,395.0 L 664.5,395.0 L 667.3,395.0 L 670.1,395.0 L 672.9,395.0 L 675.7,395.0 L 678.5,395.0 L 681.4,395.0 L 684.2,395.0 L 687.0,395.0" class="rho"/>
<path d="M 123.4,168.3 L 176.8,258.2 L 230.3,304.2 L 283.7,347.3 L 336.0,361.3 L 390.5,370.3 L 442.9,377.3 L 497.4,378.6 L 549.7,380.1 L 605.3,384.5 L 657.6,388.2" class="phot"/>
<path d="M 123.4,183.1 L 176.8,168.3 L 230.3,181.3 L 283.7,209.8 L 336.0,243.0 L 390.5,283.6 L 442.9,302.5 L 497.4,294.2 L 549.7,298.1 L 605.3,305.3 L 657.6,301.1" class="mbar"/>
<path d="M 123.4,174.3 L 176.8,168.3 L 230.3,173.3 L 283.7,185.1 L 336.0,200.1 L 390.5,220.7 L 442.9,231.8 L 497.4,229.0 L 549.7,232.6 L 605.3,237.4 L 657.6,235.4" class="mph"/>
<path d="M 76.2,354.3 L 82.3,337.6 L 88.5,325.1 L 94.7,314.6 L 100.8,305.4 L 107.0,297.3 L 113.2,289.9 L 119.4,283.2 L 125.5,276.9 L 131.7,271.1 L 137.9,265.6 L 144.0,260.4 L 150.2,255.6 L 156.4,250.8 L 162.6,246.2 L 168.7,241.7 L 174.9,237.3 L 181.1,233.0 L 187.2,228.8 L 193.4,224.7 L 199.6,220.7 L 205.7,216.8 L 211.9,213.1 L 218.1,209.6 L 224.3,206.4 L 230.4,203.3 L 236.6,200.4 L 242.8,197.7 L 248.9,195.2 L 255.1,192.8 L 261.3,190.6 L 267.4,188.4 L 273.6,186.3 L 279.8,184.3 L 286.0,182.2 L 292.1,180.2 L 298.3,178.3 L 304.5,176.3 L 310.6,174.4 L 316.8,172.5 L 323.0,170.7 L 329.1,168.9 L 335.3,167.1 L 341.5,165.4 L 347.6,163.7 L 353.8,162.0 L 360.0,160.3 L 366.2,158.7 L 372.3,157.2 L 378.5,155.6 L 384.7,154.1 L 390.8,152.6 L 397.0,151.1 L 403.2,149.7 L 409.3,148.3 L 415.5,146.9 L 421.7,145.6 L 427.9,144.3 L 434.0,143.0 L 440.2,141.7 L 446.4,140.5 L 452.5,139.3 L 458.7,138.1 L 464.9,136.9 L 471.1,135.8 L 477.2,134.7 L 483.4,133.6 L 489.6,132.6 L 495.7,131.6 L 501.9,130.6 L 508.1,129.6 L 514.2,128.7 L 520.4,127.7 L 526.6,126.8 L 532.8,126.0 L 538.9,125.1 L 545.1,124.3 L 551.3,123.5 L 557.4,122.7 L 563.6,121.9 L 569.8,121.2 L 575.9,120.5 L 582.1,119.8 L 588.3,119.1 L 594.4,118.5 L 600.6,117.9 L 606.8,117.3 L 613.0,116.7 L 619.1,116.2 L 625.3,115.6 L 631.5,115.1 L 637.6,114.6 L 643.8,114.2 L 650.0,113.7 L 656.1,113.8 L 662.3,115.2 L 668.5,116.6 L 674.7,118.1 L 680.8,119.6 L 687.0,120.9" class="nt"/>
<path d="M 123.4,285.5 L 176.8,231.5 L 230.3,199.6 L 283.7,173.0 L 336.0,155.0 L 390.5,141.0 L 442.9,134.8 L 497.4,118.0 L 549.7,108.2 L 605.3,97.2 L 657.6,85.9" class="mond"/>
<path d="M 75.1,383.5 L 80.3,374.9 L 85.4,365.4 L 90.6,356.1 L 95.7,347.1 L 100.9,338.6 L 106.0,330.4 L 111.1,322.7 L 116.3,315.4 L 121.4,308.4 L 126.6,301.9 L 131.7,295.7 L 136.8,289.9 L 142.0,284.3 L 147.1,278.9 L 152.3,273.5 L 157.4,268.0 L 162.6,262.3 L 167.7,256.3 L 172.8,250.0 L 178.0,243.4 L 183.1,236.5 L 188.3,229.3 L 193.4,221.9 L 198.5,214.4 L 203.7,207.1 L 208.8,200.0 L 214.0,193.4 L 219.1,187.3 L 224.3,181.9 L 229.4,177.2 L 234.5,173.2 L 239.7,169.9 L 244.8,167.2 L 250.0,165.3 L 255.1,163.9 L 260.2,163.0 L 265.4,162.4 L 270.5,162.0 L 275.7,161.8 L 280.8,161.6 L 286.0,161.3 L 291.1,161.0 L 296.2,160.6 L 301.4,160.1 L 306.5,159.6 L 311.7,159.0 L 316.8,158.3 L 321.9,157.6 L 327.1,156.9 L 332.2,156.2 L 337.4,155.4 L 342.5,154.6 L 347.7,153.8 L 352.8,153.0 L 357.9,152.2 L 363.1,151.4 L 368.2,150.6 L 373.4,149.8 L 378.5,149.0 L 383.6,148.3 L 388.8,147.5 L 393.9,146.8 L 399.1,146.1 L 404.2,145.4 L 409.4,144.7 L 414.5,144.1 L 419.6,143.4 L 424.8,142.8 L 429.9,142.2 L 435.1,141.7 L 440.2,141.1 L 445.3,140.6 L 450.5,140.1 L 455.6,139.7 L 460.8,139.2 L 465.9,138.8 L 471.1,138.4 L 476.2,138.0 L 481.3,137.7 L 486.5,137.3 L 491.6,137.0 L 496.8,136.7 L 501.9,136.4 L 507.0,136.1 L 512.2,135.9 L 517.3,135.6 L 522.5,135.4 L 527.6,135.1 L 532.8,134.9 L 537.9,134.6 L 543.0,134.4 L 548.2,134.1 L 553.3,133.8 L 558.5,133.4 L 563.6,133.1 L 568.7,132.6 L 573.9,132.1 L 579.0,131.5 L 584.2,130.9 L 589.3,130.1 L 594.4,129.1 L 599.6,128.0 L 604.7,126.8 L 609.9,125.3 L 615.0,123.5 L 620.2,121.6 L 625.3,119.5 L 630.4,117.3 L 635.6,115.4 L 640.7,113.9 L 645.9,113.4 L 651.0,114.2 L 656.1,116.6 L 661.3,120.6 L 666.4,126.0 L 671.6,132.2 L 676.7,139.0 L 681.9,145.9 L 687.0,152.6" class="fw"/>
<line x1="123.42" y1="299.68" x2="123.42" y2="315.43" class="err"/>
<line x1="120.42" y1="299.68" x2="126.42" y2="299.68" class="err"/>
<line x1="120.42" y1="315.43" x2="126.42" y2="315.43" class="err"/>
<circle cx="123.42" cy="307.55" r="2.5" class="obs"/>
<line x1="176.84" y1="232.72" x2="176.84" y2="253.75" class="err"/>
<line x1="173.84" y1="232.72" x2="179.84" y2="232.72" class="err"/>
<line x1="173.84" y1="253.75" x2="179.84" y2="253.75" class="err"/>
<circle cx="176.84" cy="243.23" r="2.5" class="obs"/>
<line x1="230.26" y1="171.69" x2="230.26" y2="189.03" class="err"/>
<line x1="227.26" y1="171.69" x2="233.26" y2="171.69" class="err"/>
<line x1="227.26" y1="189.03" x2="233.26" y2="189.03" class="err"/>
<circle cx="230.26" cy="180.36" r="2.5" class="obs"/>
<line x1="283.68" y1="156.83" x2="283.68" y2="171.36" class="err"/>
<line x1="280.68" y1="156.83" x2="286.68" y2="156.83" class="err"/>
<line x1="280.68" y1="171.36" x2="286.68" y2="171.36" class="err"/>
<circle cx="283.68" cy="164.10" r="2.5" class="obs"/>
<line x1="336.03" y1="149.28" x2="336.03" y2="163.74" class="err"/>
<line x1="333.03" y1="149.28" x2="339.03" y2="149.28" class="err"/>
<line x1="333.03" y1="163.74" x2="339.03" y2="163.74" class="err"/>
<circle cx="336.03" cy="156.51" r="2.5" class="obs"/>
<line x1="390.52" y1="144.69" x2="390.52" y2="159.65" class="err"/>
<line x1="387.52" y1="144.69" x2="393.52" y2="144.69" class="err"/>
<line x1="387.52" y1="159.65" x2="393.52" y2="159.65" class="err"/>
<circle cx="390.52" cy="152.17" r="2.5" class="obs"/>
<line x1="442.87" y1="138.15" x2="442.87" y2="155.35" class="err"/>
<line x1="439.87" y1="138.15" x2="445.87" y2="138.15" class="err"/>
<line x1="439.87" y1="155.35" x2="445.87" y2="155.35" class="err"/>
<circle cx="442.87" cy="146.75" r="2.5" class="obs"/>
<line x1="497.36" y1="126.84" x2="497.36" y2="147.87" class="err"/>
<line x1="494.36" y1="126.84" x2="500.36" y2="126.84" class="err"/>
<line x1="494.36" y1="147.87" x2="500.36" y2="147.87" class="err"/>
<circle cx="497.36" cy="137.36" r="2.5" class="obs"/>
<line x1="549.71" y1="121.42" x2="549.71" y2="144.62" class="err"/>
<line x1="546.71" y1="121.42" x2="552.71" y2="121.42" class="err"/>
<line x1="546.71" y1="144.62" x2="552.71" y2="144.62" class="err"/>
<circle cx="549.71" cy="133.02" r="2.5" class="obs"/>
<line x1="605.27" y1="115.28" x2="605.27" y2="139.92" class="err"/>
<line x1="602.27" y1="115.28" x2="608.27" y2="115.28" class="err"/>
<line x1="602.27" y1="139.92" x2="608.27" y2="139.92" class="err"/>
<circle cx="605.27" cy="127.60" r="2.5" class="obs"/>
<line x1="657.62" y1="108.20" x2="657.62" y2="131.11" class="err"/>
<line x1="654.62" y1="108.20" x2="660.62" y2="108.20" class="err"/>
<line x1="654.62" y1="131.11" x2="660.62" y2="131.11" class="err"/>
<circle cx="657.62" cy="119.65" r="2.5" class="obs"/>
<g class="legend">
<line x1="82" y1="69" x2="106" y2="69" class="fw"/>
<text x="112" y="73" class="lbl-l">framework: 0.8 km/s, 1.4%, 0.35σ</text>
<line x1="82" y1="87" x2="106" y2="87" class="nt"/>
<text x="112" y="91" class="lbl-l">Newtonian: 3.9 km/s, 11.0%, 1.70σ</text>
<line x1="82" y1="105" x2="106" y2="105" class="mond"/>
<text x="112" y="109" class="lbl-m">MOND/RAR: 5.5 km/s, 10.7%, 1.96σ</text>
<circle cx="94" cy="123" r="2.5" class="obs"/>
<text x="112" y="127" class="lbl">observed V±err</text>
</g>
<g class="legend">
<line x1="472" y1="69" x2="496" y2="69" class="rho"/>
<text x="502" y="73" class="lbl-r">ρ(r) raw</text>
<line x1="472" y1="87" x2="496" y2="87" class="phot"/>
<text x="502" y="91" class="lbl-p">photometric baryonic profile</text>
<line x1="472" y1="105" x2="496" y2="105" class="mbar"/>
<text x="502" y="109" class="lbl-m">MOND baryonic annulus</text>
<line x1="472" y1="123" x2="496" y2="123" class="mph"/>
<text x="502" y="127" class="lbl-m">MOND phantom annulus</text>
<text x="472" y="147" class="lbl-r">ρ peak: 164 M☉/pc²</text>
<text x="472" y="163" class="lbl-p">phot peak: 83.79 (arb.)</text>
<text x="472" y="179" class="lbl-m">Σbar peak: 51.84 M☉/pc²</text>
<text x="472" y="195" class="lbl-m">Σphantom peak: 95.10 M☉/pc²</text>
</g>
<rect x="775" y="55" width="170" height="170" class="preview-bg"/>
<defs><radialGradient id="g_UGC07151" cx="0.5" cy="0.5" r="0.5">
  <stop offset="0.0000" stop-color="rgb(255,64,64)"/>
  <stop offset="0.0313" stop-color="rgb(255,64,64)"/>
  <stop offset="0.0625" stop-color="rgb(255,64,64)"/>
  <stop offset="0.0938" stop-color="rgb(250,63,63)"/>
  <stop offset="0.1250" stop-color="rgb(242,61,61)"/>
  <stop offset="0.1563" stop-color="rgb(240,60,60)"/>
  <stop offset="0.1875" stop-color="rgb(240,60,60)"/>
  <stop offset="0.2188" stop-color="rgb(240,60,60)"/>
  <stop offset="0.2500" stop-color="rgb(230,58,58)"/>
  <stop offset="0.2813" stop-color="rgb(218,55,55)"/>
  <stop offset="0.3125" stop-color="rgb(205,51,51)"/>
  <stop offset="0.3438" stop-color="rgb(197,49,49)"/>
  <stop offset="0.3750" stop-color="rgb(194,49,49)"/>
  <stop offset="0.4063" stop-color="rgb(190,48,48)"/>
  <stop offset="0.4375" stop-color="rgb(186,47,47)"/>
  <stop offset="0.4688" stop-color="rgb(183,46,46)"/>
  <stop offset="0.5000" stop-color="rgb(179,45,45)"/>
  <stop offset="0.5313" stop-color="rgb(176,44,44)"/>
  <stop offset="0.5625" stop-color="rgb(172,43,43)"/>
  <stop offset="0.5938" stop-color="rgb(168,42,42)"/>
  <stop offset="0.6250" stop-color="rgb(165,41,41)"/>
  <stop offset="0.6563" stop-color="rgb(161,40,40)"/>
  <stop offset="0.6875" stop-color="rgb(157,39,39)"/>
  <stop offset="0.7188" stop-color="rgb(154,39,39)"/>
  <stop offset="0.7500" stop-color="rgb(150,38,38)"/>
  <stop offset="0.7813" stop-color="rgb(147,37,37)"/>
  <stop offset="0.8125" stop-color="rgb(143,36,36)"/>
  <stop offset="0.8438" stop-color="rgb(139,35,35)"/>
  <stop offset="0.8750" stop-color="rgb(136,34,34)"/>
  <stop offset="0.9063" stop-color="rgb(132,33,33)"/>
  <stop offset="0.9375" stop-color="rgb(129,32,32)"/>
  <stop offset="0.9688" stop-color="rgb(125,31,31)"/>
  <stop offset="1.0000" stop-color="rgb(0,0,0)"/>
</radialGradient></defs>
<circle cx="860" cy="140" r="81" fill="url(#g_UGC07151)"/>
<text x="860" y="49" text-anchor="middle" class="preview-lbl">face-on luminance from ρ(r)</text>
<text x="860" y="239" text-anchor="middle" class="preview-lbl">edge at r = 5.5 kpc</text>
</svg>