<svg xmlns="http://www.w3.org/2000/svg" viewBox="0 0 890 420" width="890" height="420" font-family="sans-serif" font-size="12">
<style>
  .ax { stroke: #333; stroke-width: 1; fill: none; }
  .grid { stroke: #ddd; stroke-width: 0.5; fill: none; }
  .lbl { fill: #333; }
  .lbl-l { fill: #0066cc; }
  .lbl-r { fill: #b03030; }
  .obs { fill: #222; }
  .err { stroke: #555; stroke-width: 0.8; fill: none; }
  .fw { stroke: #0066cc; stroke-width: 2.2; fill: none; }
  .nt { stroke: #cc6600; stroke-width: 1.6; fill: none; stroke-dasharray: 5,3; }
  .lbl-s { fill: #cc7000; }
  .rho { stroke: #b03030; stroke-width: 2.0; fill: none; }
  .sig { stroke: #cc7000; stroke-width: 1.8; fill: none; }
  .title { fill: #111; font-size: 16px; font-weight: 600; }
  .subtitle { fill: #555; font-size: 11px; }
  .preview-bg { fill: #000; }
  .preview-lbl { fill: #888; font-size: 10px; }
  .legend { font-size: 11px; }
</style>
<text x="343.5" y="22" text-anchor="middle" class="title">UGC07125</text>
<text x="343.5" y="38" text-anchor="middle" class="subtitle">rMax=18.7 kpc, N=13, RMS=0.8 km/s (1.4%), amp=105</text>
<line x1="70" y1="365.0" x2="617" y2="365.0" class="grid"/>
<text x="64" y="369.0" text-anchor="end" class="lbl-l">0</text>
<line x1="70" y1="303.0" x2="617" y2="303.0" class="grid"/>
<text x="64" y="307.0" text-anchor="end" class="lbl-l">16</text>
<line x1="70" y1="241.0" x2="617" y2="241.0" class="grid"/>
<text x="64" y="245.0" text-anchor="end" class="lbl-l">31</text>
<line x1="70" y1="179.0" x2="617" y2="179.0" class="grid"/>
<text x="64" y="183.0" text-anchor="end" class="lbl-l">47</text>
<line x1="70" y1="117.0" x2="617" y2="117.0" class="grid"/>
<text x="64" y="121.0" text-anchor="end" class="lbl-l">62</text>
<line x1="70" y1="55.0" x2="617" y2="55.0" class="grid"/>
<text x="64" y="59.0" text-anchor="end" class="lbl-l">78</text>
<text x="623" y="369.0" text-anchor="start" class="lbl-r">0.0</text>
<text x="623" y="327.7" text-anchor="start" class="lbl-r">0.2</text>
<text x="623" y="286.3" text-anchor="start" class="lbl-r">0.4</text>
<text x="623" y="245.0" text-anchor="start" class="lbl-r">0.6</text>
<text x="623" y="203.7" text-anchor="start" class="lbl-r">0.8</text>
<text x="623" y="162.3" text-anchor="start" class="lbl-r">1.0</text>
<line x1="70.0" y1="55" x2="70.0" y2="365" class="grid"/>
<text x="70.0" y="381" text-anchor="middle" class="lbl">0.0</text>
<line x1="161.2" y1="55" x2="161.2" y2="365" class="grid"/>
<text x="161.2" y="381" text-anchor="middle" class="lbl">3.5</text>
<line x1="252.3" y1="55" x2="252.3" y2="365" class="grid"/>
<text x="252.3" y="381" text-anchor="middle" class="lbl">6.9</text>
<line x1="343.5" y1="55" x2="343.5" y2="365" class="grid"/>
<text x="343.5" y="381" text-anchor="middle" class="lbl">10.4</text>
<line x1="434.7" y1="55" x2="434.7" y2="365" class="grid"/>
<text x="434.7" y="381" text-anchor="middle" class="lbl">13.8</text>
<line x1="525.8" y1="55" x2="525.8" y2="365" class="grid"/>
<text x="525.8" y="381" text-anchor="middle" class="lbl">17.3</text>
<line x1="617.0" y1="55" x2="617.0" y2="365" class="grid"/>
<text x="617.0" y="381" text-anchor="middle" class="lbl">20.7</text>
<text x="343.5" y="408" text-anchor="middle" class="lbl">radius (kpc)</text>
<text x="16" y="210" text-anchor="middle" class="lbl-l" transform="rotate(-90, 16, 210)">velocity (km/s)</text>
<text x="874" y="210" text-anchor="middle" class="lbl-r" transform="rotate(-90, 874, 210)">mass profile (normalized to peak)</text>
<rect x="70" y="55" width="547" height="310" class="ax"/>
<path d="M 70.0,158.3 L 72.5,168.0 L 75.0,177.7 L 77.5,187.5 L 80.0,196.7 L 82.5,198.3 L 85.0,199.8 L 87.5,201.3 L 90.0,202.9 L 92.5,204.4 L 95.0,206.0 L 97.5,207.5 L 100.0,209.0 L 102.5,210.6 L 105.0,212.1 L 107.5,213.6 L 110.0,215.2 L 112.5,216.7 L 115.0,218.3 L 117.5,219.8 L 120.0,221.3 L 122.5,222.9 L 124.9,224.4 L 127.4,225.9 L 129.9,227.5 L 132.4,229.0 L 134.9,230.6 L 137.4,232.1 L 139.9,233.6 L 142.4,235.2 L 144.9,236.7 L 147.4,238.2 L 149.9,239.8 L 152.4,241.3 L 154.9,242.9 L 157.4,244.4 L 159.9,245.9 L 162.4,247.5 L 164.9,249.0 L 167.4,250.5 L 169.9,252.1 L 172.4,253.6 L 174.9,255.2 L 177.4,256.2 L 179.9,256.3 L 182.4,256.5 L 184.9,256.7 L 187.4,256.9 L 189.9,257.0 L 192.4,257.2 L 194.9,257.4 L 197.4,257.5 L 199.9,257.7 L 202.4,258.1 L 204.9,258.5 L 207.4,259.0 L 209.9,259.4 L 212.4,259.8 L 214.9,260.3 L 217.4,260.7 L 219.9,261.1 L 222.4,261.6 L 224.9,262.0 L 227.4,262.4 L 229.9,262.8 L 232.4,263.3 L 234.8,263.7 L 237.3,264.1 L 239.8,264.6 L 242.3,265.0 L 244.8,265.4 L 247.3,265.9 L 249.8,266.3 L 252.3,266.7 L 254.8,267.1 L 257.3,267.6 L 259.8,268.0 L 262.3,268.4 L 264.8,268.9 L 267.3,269.3 L 269.8,269.7 L 272.3,270.1 L 274.8,270.6 L 277.3,271.0 L 279.8,271.4 L 282.3,271.9 L 284.8,272.3 L 287.3,272.7 L 289.8,273.2 L 292.3,273.6 L 294.8,274.0 L 297.3,274.4 L 299.8,274.9 L 302.3,275.3 L 304.8,275.7 L 307.3,276.2 L 309.8,276.6 L 312.3,277.0 L 314.8,277.5 L 317.3,277.9 L 319.8,278.3 L 322.3,278.7 L 324.8,279.2 L 327.3,279.6 L 329.8,280.0 L 332.3,280.5 L 334.8,280.9 L 337.3,281.3 L 339.8,281.7 L 342.3,282.2 L 344.7,282.6 L 347.2,283.0 L 349.7,283.5 L 352.2,283.9 L 354.7,284.3 L 357.2,284.8 L 359.7,285.2 L 362.2,285.6 L 364.7,286.0 L 367.2,286.5 L 369.7,286.9 L 372.2,287.3 L 374.7,287.8 L 377.2,288.2 L 379.7,288.6 L 382.2,289.0 L 384.7,289.5 L 387.2,289.9 L 389.7,290.3 L 392.2,290.8 L 394.7,291.2 L 397.2,291.6 L 399.7,292.1 L 402.2,292.5 L 404.7,292.9 L 407.2,293.3 L 409.7,293.8 L 412.2,294.2 L 414.7,294.6 L 417.2,295.1 L 419.7,295.5 L 422.2,295.9 L 424.7,296.4 L 427.2,296.8 L 429.7,297.2 L 432.2,297.6 L 434.7,298.1 L 437.2,298.5 L 439.7,298.9 L 442.2,299.4 L 444.7,299.8 L 447.2,300.2 L 449.7,300.6 L 452.2,301.1 L 454.6,301.5 L 457.1,301.9 L 459.6,302.4 L 462.1,302.8 L 464.6,303.2 L 467.1,303.7 L 469.6,304.1 L 472.1,304.5 L 474.6,304.9 L 477.1,305.4 L 479.6,305.8 L 482.1,306.2 L 484.6,306.7 L 487.1,307.1 L 489.6,307.5 L 492.1,307.9 L 494.6,308.4 L 497.1,308.8 L 499.6,309.2 L 502.1,309.7 L 504.6,310.1 L 507.1,310.5 L 509.6,311.0 L 512.1,311.4 L 514.6,311.8 L 517.1,312.2 L 519.6,312.7 L 522.1,313.1 L 524.6,313.5 L 527.1,314.0 L 529.6,314.4 L 532.1,314.8 L 534.6,315.3 L 537.1,315.7 L 539.6,316.1 L 542.1,316.5 L 544.6,317.0 L 547.1,317.4 L 549.6,317.8 L 552.1,318.3 L 554.6,318.8 L 557.1,321.9 L 559.6,325.1 L 562.1,328.3 L 564.5,331.5 L 567.0,334.6 L 569.5,337.8 L 572.0,341.0 L 574.5,344.2 L 577.0,347.3 L 579.5,350.5 L 582.0,353.7 L 584.5,356.8 L 587.0,360.0 L 589.5,363.2 L 592.0,365.0 L 594.5,365.0 L 597.0,365.0 L 599.5,365.0 L 602.0,365.0 L 604.5,365.0 L 607.0,365.0 L 609.5,365.0 L 612.0,365.0 L 614.5,365.0 L 617.0,365.0" class="rho"/>
<path d="M 70.0,158.3 L 72.5,158.5 L 75.0,158.7 L 77.5,158.9 L 80.0,159.3 L 82.5,159.8 L 85.0,160.4 L 87.5,161.1 L 90.0,161.8 L 92.5,162.6 L 95.0,163.5 L 97.5,164.5 L 100.0,165.5 L 102.5,166.5 L 105.0,167.7 L 107.5,168.8 L 110.0,170.0 L 112.5,171.3 L 115.0,172.6 L 117.5,173.9 L 120.0,175.2 L 122.5,176.6 L 124.9,178.0 L 127.4,179.5 L 129.9,180.9 L 132.4,182.4 L 134.9,183.8 L 137.4,185.3 L 139.9,186.8 L 142.4,188.3 L 144.9,189.8 L 147.4,191.3 L 149.9,192.8 L 152.4,194.3 L 154.9,195.8 L 157.4,197.3 L 159.9,198.7 L 162.4,200.2 L 164.9,201.6 L 167.4,203.0 L 169.9,204.4 L 172.4,205.8 L 174.9,207.1 L 177.4,208.5 L 179.9,209.8 L 182.4,211.0 L 184.9,212.3 L 187.4,213.5 L 189.9,214.7 L 192.4,216.0 L 194.9,217.1 L 197.4,218.3 L 199.9,219.5 L 202.4,220.6 L 204.9,221.7 L 207.4,222.9 L 209.9,224.0 L 212.4,225.1 L 214.9,226.2 L 217.4,227.3 L 219.9,228.4 L 222.4,229.4 L 224.9,230.5 L 227.4,231.6 L 229.9,232.6 L 232.4,233.7 L 234.8,234.7 L 237.3,235.8 L 239.8,236.8 L 242.3,237.9 L 244.8,238.9 L 247.3,239.9 L 249.8,240.9 L 252.3,242.0 L 254.8,243.0 L 257.3,244.0 L 259.8,245.0 L 262.3,246.0 L 264.8,247.0 L 267.3,248.0 L 269.8,249.0 L 272.3,249.9 L 274.8,250.9 L 277.3,251.9 L 279.8,252.9 L 282.3,253.8 L 284.8,254.8 L 287.3,255.8 L 289.8,256.7 L 292.3,257.7 L 294.8,258.6 L 297.3,259.6 L 299.8,260.5 L 302.3,261.5 L 304.8,262.4 L 307.3,263.3 L 309.8,264.3 L 312.3,265.2 L 314.8,266.1 L 317.3,267.0 L 319.8,267.9 L 322.3,268.8 L 324.8,269.7 L 327.3,270.6 L 329.8,271.5 L 332.3,272.4 L 334.8,273.3 L 337.3,274.2 L 339.8,275.1 L 342.3,276.0 L 344.7,276.8 L 347.2,277.7 L 349.7,278.6 L 352.2,279.4 L 354.7,280.3 L 357.2,281.1 L 359.7,282.0 L 362.2,282.8 L 364.7,283.6 L 367.2,284.5 L 369.7,285.3 L 372.2,286.1 L 374.7,286.9 L 377.2,287.8 L 379.7,288.6 L 382.2,289.4 L 384.7,290.2 L 387.2,291.0 L 389.7,291.8 L 392.2,292.6 L 394.7,293.4 L 397.2,294.1 L 399.7,294.9 L 402.2,295.7 L 404.7,296.4 L 407.2,297.2 L 409.7,298.0 L 412.2,298.7 L 414.7,299.5 L 417.2,300.2 L 419.7,301.0 L 422.2,301.7 L 424.7,302.4 L 427.2,303.1 L 429.7,303.9 L 432.2,304.6 L 434.7,305.3 L 437.2,306.0 L 439.7,306.7 L 442.2,307.4 L 444.7,308.1 L 447.2,308.8 L 449.7,309.5 L 452.2,310.1 L 454.6,310.8 L 457.1,311.5 L 459.6,312.2 L 462.1,312.8 L 464.6,313.5 L 467.1,314.1 L 469.6,314.8 L 472.1,315.4 L 474.6,316.1 L 477.1,316.7 L 479.6,317.3 L 482.1,318.0 L 484.6,318.6 L 487.1,319.2 L 489.6,319.8 L 492.1,320.5 L 494.6,321.1 L 497.1,321.7 L 499.6,322.3 L 502.1,322.9 L 504.6,323.5 L 507.1,324.1 L 509.6,324.7 L 512.1,325.3 L 514.6,325.8 L 517.1,326.4 L 519.6,327.0 L 522.1,327.6 L 524.6,328.2 L 527.1,328.7 L 529.6,329.3 L 532.1,329.9 L 534.6,330.5 L 537.1,331.1 L 539.6,331.6 L 542.1,332.2 L 544.6,332.8 L 547.1,333.4 L 549.6,333.9 L 552.1,334.5 L 554.6,335.1 L 557.1,335.6 L 559.6,336.2 L 562.1,336.8 L 564.5,337.3 L 567.0,337.8 L 569.5,338.4 L 572.0,338.9 L 574.5,339.4 L 577.0,339.9 L 579.5,340.4 L 582.0,340.8 L 584.5,341.3 L 587.0,341.7 L 589.5,342.1 L 592.0,342.5 L 594.5,342.9 L 597.0,343.3 L 599.5,343.7 L 602.0,344.0 L 604.5,344.4 L 607.0,344.7 L 609.5,345.0 L 612.0,345.3 L 614.5,345.6 L 617.0,345.9" class="sig"/>
<path d="M 75.5,317.0 L 80.9,299.6 L 86.4,286.5 L 91.9,275.4 L 97.3,265.7 L 102.8,257.1 L 108.3,249.4 L 113.8,242.3 L 119.2,235.9 L 124.7,229.9 L 130.2,224.4 L 135.6,219.3 L 141.1,214.5 L 146.6,210.0 L 152.1,205.9 L 157.5,202.0 L 163.0,198.3 L 168.5,194.9 L 173.9,191.8 L 179.4,188.8 L 184.9,185.8 L 190.3,182.8 L 195.8,179.9 L 201.3,176.9 L 206.7,174.1 L 212.2,171.3 L 217.7,168.5 L 223.2,165.8 L 228.6,163.2 L 234.1,160.6 L 239.6,158.1 L 245.0,155.7 L 250.5,153.3 L 256.0,150.9 L 261.5,148.6 L 266.9,146.4 L 272.4,144.2 L 277.9,142.1 L 283.3,140.0 L 288.8,137.9 L 294.3,135.9 L 299.7,134.0 L 305.2,132.1 L 310.7,130.2 L 316.1,128.4 L 321.6,126.7 L 327.1,124.9 L 332.6,123.2 L 338.0,121.6 L 343.5,120.0 L 349.0,118.4 L 354.4,116.9 L 359.9,115.4 L 365.4,113.9 L 370.9,112.5 L 376.3,111.1 L 381.8,109.8 L 387.3,108.5 L 392.7,107.2 L 398.2,105.9 L 403.7,104.7 L 409.1,103.6 L 414.6,102.4 L 420.1,101.3 L 425.6,100.2 L 431.0,99.2 L 436.5,98.2 L 442.0,97.2 L 447.4,96.2 L 452.9,95.3 L 458.4,94.4 L 463.8,93.6 L 469.3,92.7 L 474.8,91.9 L 480.3,91.1 L 485.7,90.4 L 491.2,89.7 L 496.7,89.0 L 502.1,88.3 L 507.6,87.7 L 513.1,87.1 L 518.5,86.5 L 524.0,86.0 L 529.5,85.5 L 535.0,85.0 L 540.4,84.5 L 545.9,84.1 L 551.4,83.7 L 556.8,83.3 L 562.3,83.2 L 567.8,83.3 L 573.2,83.8 L 578.7,84.5 L 584.2,85.5 L 589.6,86.7 L 595.1,88.2 L 600.6,89.6 L 606.1,91.0 L 611.5,92.4 L 617.0,93.8" class="nt"/>
<path d="M 74.6,347.5 L 79.1,334.1 L 83.7,320.0 L 88.2,306.5 L 92.8,293.8 L 97.3,281.9 L 101.9,270.6 L 106.5,260.0 L 111.0,249.9 L 115.6,240.5 L 120.1,231.7 L 124.7,223.4 L 129.3,215.8 L 133.8,208.8 L 138.4,202.4 L 142.9,196.6 L 147.5,191.5 L 152.1,187.0 L 156.6,183.2 L 161.2,180.1 L 165.7,177.6 L 170.3,175.7 L 174.8,174.3 L 179.4,173.2 L 184.0,172.2 L 188.5,171.2 L 193.1,170.1 L 197.6,168.7 L 202.2,167.1 L 206.8,165.4 L 211.3,163.6 L 215.9,161.6 L 220.4,159.7 L 225.0,157.7 L 229.5,155.7 L 234.1,153.7 L 238.7,151.7 L 243.2,149.7 L 247.8,147.8 L 252.3,145.8 L 256.9,144.0 L 261.5,142.1 L 266.0,140.3 L 270.6,138.5 L 275.1,136.8 L 279.7,135.1 L 284.2,133.4 L 288.8,131.8 L 293.4,130.3 L 297.9,128.8 L 302.5,127.3 L 307.0,125.9 L 311.6,124.5 L 316.1,123.2 L 320.7,121.9 L 325.3,120.7 L 329.8,119.5 L 334.4,118.4 L 338.9,117.3 L 343.5,116.3 L 348.1,115.4 L 352.6,114.4 L 357.2,113.6 L 361.7,112.7 L 366.3,112.0 L 370.8,111.2 L 375.4,110.6 L 380.0,109.9 L 384.5,109.4 L 389.1,108.8 L 393.6,108.3 L 398.2,107.9 L 402.8,107.5 L 407.3,107.1 L 411.9,106.8 L 416.4,106.5 L 421.0,106.3 L 425.6,106.1 L 430.1,106.0 L 434.7,105.8 L 439.2,105.7 L 443.8,105.7 L 448.3,105.6 L 452.9,105.6 L 457.5,105.7 L 462.0,105.7 L 466.6,105.7 L 471.1,105.8 L 475.7,105.8 L 480.3,105.9 L 484.8,105.9 L 489.4,105.9 L 493.9,105.9 L 498.5,105.9 L 503.0,105.7 L 507.6,105.5 L 512.2,105.2 L 516.7,104.8 L 521.3,104.2 L 525.8,103.5 L 530.4,102.6 L 535.0,101.5 L 539.5,100.3 L 544.1,99.1 L 548.6,98.2 L 553.2,97.7 L 557.7,98.0 L 562.3,99.4 L 566.9,102.1 L 571.4,105.9 L 576.0,110.9 L 580.5,116.7 L 585.1,123.1 L 589.6,129.7 L 594.2,136.3 L 598.8,142.7 L 603.3,148.8 L 607.9,154.5 L 612.4,159.8 L 617.0,164.8" class="fw"/>
<line x1="107.99" y1="248.07" x2="107.99" y2="274.32" class="err"/>
<line x1="104.99" y1="248.07" x2="110.99" y2="248.07" class="err"/>
<line x1="104.99" y1="274.32" x2="110.99" y2="274.32" class="err"/>
<circle cx="107.99" cy="261.19" r="2.5" class="obs"/>
<line x1="145.99" y1="180.18" x2="145.99" y2="207.78" class="err"/>
<line x1="142.99" y1="180.18" x2="148.99" y2="180.18" class="err"/>
<line x1="142.99" y1="207.78" x2="148.99" y2="207.78" class="err"/>
<circle cx="145.99" cy="193.98" r="2.5" class="obs"/>
<line x1="184.24" y1="162.75" x2="184.24" y2="181.45" class="err"/>
<line x1="181.24" y1="162.75" x2="187.24" y2="162.75" class="err"/>
<line x1="181.24" y1="181.45" x2="187.24" y2="181.45" class="err"/>
<circle cx="184.24" cy="172.10" r="2.5" class="obs"/>
<line x1="221.97" y1="148.24" x2="221.97" y2="164.15" class="err"/>
<line x1="218.97" y1="148.24" x2="224.97" y2="148.24" class="err"/>
<line x1="218.97" y1="164.15" x2="224.97" y2="164.15" class="err"/>
<circle cx="221.97" cy="156.19" r="2.5" class="obs"/>
<line x1="259.97" y1="132.53" x2="259.97" y2="148.83" class="err"/>
<line x1="256.97" y1="132.53" x2="262.97" y2="132.53" class="err"/>
<line x1="256.97" y1="148.83" x2="262.97" y2="148.83" class="err"/>
<circle cx="259.97" cy="140.68" r="2.5" class="obs"/>
<line x1="297.96" y1="123.54" x2="297.96" y2="141.12" class="err"/>
<line x1="294.96" y1="123.54" x2="300.96" y2="123.54" class="err"/>
<line x1="294.96" y1="141.12" x2="300.96" y2="141.12" class="err"/>
<circle cx="297.96" cy="132.33" r="2.5" class="obs"/>
<line x1="335.95" y1="112.04" x2="335.95" y2="128.75" class="err"/>
<line x1="332.95" y1="112.04" x2="338.95" y2="112.04" class="err"/>
<line x1="332.95" y1="128.75" x2="338.95" y2="128.75" class="err"/>
<circle cx="335.95" cy="120.40" r="2.5" class="obs"/>
<line x1="372.63" y1="100.07" x2="372.63" y2="116.06" class="err"/>
<line x1="369.63" y1="100.07" x2="375.63" y2="100.07" class="err"/>
<line x1="369.63" y1="116.06" x2="375.63" y2="116.06" class="err"/>
<circle cx="372.63" cy="108.07" r="2.5" class="obs"/>
<line x1="413.00" y1="95.66" x2="413.00" y2="112.52" class="err"/>
<line x1="410.00" y1="95.66" x2="416.00" y2="95.66" class="err"/>
<line x1="410.00" y1="112.52" x2="416.00" y2="112.52" class="err"/>
<circle cx="413.00" cy="104.09" r="2.5" class="obs"/>
<line x1="450.46" y1="94.35" x2="450.46" y2="115.43" class="err"/>
<line x1="447.46" y1="94.35" x2="453.46" y2="94.35" class="err"/>
<line x1="447.46" y1="115.43" x2="453.46" y2="115.43" class="err"/>
<circle cx="450.46" cy="104.89" r="2.5" class="obs"/>
<line x1="487.93" y1="92.36" x2="487.93" y2="116.62" class="err"/>
<line x1="484.93" y1="92.36" x2="490.93" y2="92.36" class="err"/>
<line x1="484.93" y1="116.62" x2="490.93" y2="116.62" class="err"/>
<circle cx="487.93" cy="104.49" r="2.5" class="obs"/>
<line x1="525.39" y1="93.27" x2="525.39" y2="118.89" class="err"/>
<line x1="522.39" y1="93.27" x2="528.39" y2="93.27" class="err"/>
<line x1="522.39" y1="118.89" x2="528.39" y2="118.89" class="err"/>
<circle cx="525.39" cy="106.08" r="2.5" class="obs"/>
<line x1="562.86" y1="93.03" x2="562.86" y2="120.71" class="err"/>
<line x1="559.86" y1="93.03" x2="565.86" y2="93.03" class="err"/>
<line x1="559.86" y1="120.71" x2="565.86" y2="120.71" class="err"/>
<circle cx="562.86" cy="106.87" r="2.5" class="obs"/>
<g class="legend">
<line x1="82" y1="69" x2="106" y2="69" class="fw"/>
<text x="112" y="73" class="lbl-l">framework fit</text>
<line x1="82" y1="87" x2="106" y2="87" class="nt"/>
<text x="112" y="91" class="lbl-l">Newtonian (no halo)</text>
<circle cx="94" cy="105" r="2.5" class="obs"/>
<text x="112" y="109" class="lbl">observed V±err</text>
</g>
<g class="legend">
<line x1="442" y1="69" x2="466" y2="69" class="rho"/>
<text x="472" y="73" class="lbl-r">ρ(r) raw</text>
<line x1="442" y1="87" x2="466" y2="87" class="sig"/>
<text x="472" y="91" class="lbl-s">Σ(r) cumulative</text>
<text x="442" y="113" class="lbl-r">ρ peak: 56 M☉/pc²</text>
</g>
<rect x="705" y="55" width="170" height="170" class="preview-bg"/>
<defs><radialGradient id="g_UGC07125" cx="0.5" cy="0.5" r="0.5">
  <stop offset="0.0000" stop-color="rgb(126,31.5,31.5)"/>
  <stop offset="0.0313" stop-color="rgb(111,27.75,27.75)"/>
  <stop offset="0.0625" stop-color="rgb(107,26.75,26.75)"/>
  <stop offset="0.0938" stop-color="rgb(103,25.75,25.75)"/>
  <stop offset="0.1250" stop-color="rgb(100,25,25)"/>
  <stop offset="0.1563" stop-color="rgb(96,24,24)"/>
  <stop offset="0.1875" stop-color="rgb(92,23,23)"/>
  <stop offset="0.2188" stop-color="rgb(90,22.5,22.5)"/>
  <stop offset="0.2500" stop-color="rgb(90,22.5,22.5)"/>
  <stop offset="0.2813" stop-color="rgb(89,22.25,22.25)"/>
  <stop offset="0.3125" stop-color="rgb(88,22,22)"/>
  <stop offset="0.3438" stop-color="rgb(87,21.75,21.75)"/>
  <stop offset="0.3750" stop-color="rgb(86,21.5,21.5)"/>
  <stop offset="0.4063" stop-color="rgb(85,21.25,21.25)"/>
  <stop offset="0.4375" stop-color="rgb(83,20.75,20.75)"/>
  <stop offset="0.4688" stop-color="rgb(82,20.5,20.5)"/>
  <stop offset="0.5000" stop-color="rgb(81,20.25,20.25)"/>
  <stop offset="0.5313" stop-color="rgb(80,20,20)"/>
  <stop offset="0.5625" stop-color="rgb(79,19.75,19.75)"/>
  <stop offset="0.5938" stop-color="rgb(78,19.5,19.5)"/>
  <stop offset="0.6250" stop-color="rgb(77,19.25,19.25)"/>
  <stop offset="0.6563" stop-color="rgb(76,19,19)"/>
  <stop offset="0.6875" stop-color="rgb(75,18.75,18.75)"/>
  <stop offset="0.7188" stop-color="rgb(74,18.5,18.5)"/>
  <stop offset="0.7500" stop-color="rgb(73,18.25,18.25)"/>
  <stop offset="0.7813" stop-color="rgb(72,18,18)"/>
  <stop offset="0.8125" stop-color="rgb(71,17.75,17.75)"/>
  <stop offset="0.8438" stop-color="rgb(70,17.5,17.5)"/>
  <stop offset="0.8750" stop-color="rgb(69,17.25,17.25)"/>
  <stop offset="0.9063" stop-color="rgb(68,17,17)"/>
  <stop offset="0.9375" stop-color="rgb(65,16.25,16.25)"/>
  <stop offset="0.9688" stop-color="rgb(36,9,9)"/>
  <stop offset="1.0000" stop-color="rgb(0,0,0)"/>
</radialGradient></defs>
<circle cx="790" cy="140" r="81" fill="url(#g_UGC07125)"/>
<text x="790" y="49" text-anchor="middle" class="preview-lbl">face-on luminance from ρ(r)</text>
<text x="790" y="239" text-anchor="middle" class="preview-lbl">edge at r = 19.7 kpc</text>
</svg>