<svg xmlns="http://www.w3.org/2000/svg" viewBox="0 0 890 420" width="890" height="420" font-family="sans-serif" font-size="12">
<style>
  .ax { stroke: #333; stroke-width: 1; fill: none; }
  .grid { stroke: #ddd; stroke-width: 0.5; fill: none; }
  .lbl { fill: #333; }
  .lbl-l { fill: #0066cc; }
  .lbl-r { fill: #b03030; }
  .obs { fill: #222; }
  .err { stroke: #555; stroke-width: 0.8; fill: none; }
  .fw { stroke: #0066cc; stroke-width: 2.2; fill: none; }
  .nt { stroke: #cc6600; stroke-width: 1.6; fill: none; stroke-dasharray: 5,3; }
  .lbl-s { fill: #cc7000; }
  .rho { stroke: #b03030; stroke-width: 2.0; fill: none; }
  .sig { stroke: #cc7000; stroke-width: 1.8; fill: none; }
  .title { fill: #111; font-size: 16px; font-weight: 600; }
  .subtitle { fill: #555; font-size: 11px; }
  .preview-bg { fill: #000; }
  .preview-lbl { fill: #888; font-size: 10px; }
  .legend { font-size: 11px; }
</style>
<text x="343.5" y="22" text-anchor="middle" class="title">UGC05721</text>
<text x="343.5" y="38" text-anchor="middle" class="subtitle">rMax=6.7 kpc, N=23, RMS=1.4 km/s (2.1%), amp=105</text>
<line x1="70" y1="365.0" x2="617" y2="365.0" class="grid"/>
<text x="64" y="369.0" text-anchor="end" class="lbl-l">0</text>
<line x1="70" y1="303.0" x2="617" y2="303.0" class="grid"/>
<text x="64" y="307.0" text-anchor="end" class="lbl-l">22</text>
<line x1="70" y1="241.0" x2="617" y2="241.0" class="grid"/>
<text x="64" y="245.0" text-anchor="end" class="lbl-l">45</text>
<line x1="70" y1="179.0" x2="617" y2="179.0" class="grid"/>
<text x="64" y="183.0" text-anchor="end" class="lbl-l">67</text>
<line x1="70" y1="117.0" x2="617" y2="117.0" class="grid"/>
<text x="64" y="121.0" text-anchor="end" class="lbl-l">89</text>
<line x1="70" y1="55.0" x2="617" y2="55.0" class="grid"/>
<text x="64" y="59.0" text-anchor="end" class="lbl-l">112</text>
<text x="623" y="369.0" text-anchor="start" class="lbl-r">0.0</text>
<text x="623" y="327.7" text-anchor="start" class="lbl-r">0.2</text>
<text x="623" y="286.3" text-anchor="start" class="lbl-r">0.4</text>
<text x="623" y="245.0" text-anchor="start" class="lbl-r">0.6</text>
<text x="623" y="203.7" text-anchor="start" class="lbl-r">0.8</text>
<text x="623" y="162.3" text-anchor="start" class="lbl-r">1.0</text>
<line x1="70.0" y1="55" x2="70.0" y2="365" class="grid"/>
<text x="70.0" y="381" text-anchor="middle" class="lbl">0.0</text>
<line x1="161.2" y1="55" x2="161.2" y2="365" class="grid"/>
<text x="161.2" y="381" text-anchor="middle" class="lbl">1.2</text>
<line x1="252.3" y1="55" x2="252.3" y2="365" class="grid"/>
<text x="252.3" y="381" text-anchor="middle" class="lbl">2.4</text>
<line x1="343.5" y1="55" x2="343.5" y2="365" class="grid"/>
<text x="343.5" y="381" text-anchor="middle" class="lbl">3.6</text>
<line x1="434.7" y1="55" x2="434.7" y2="365" class="grid"/>
<text x="434.7" y="381" text-anchor="middle" class="lbl">4.8</text>
<line x1="525.8" y1="55" x2="525.8" y2="365" class="grid"/>
<text x="525.8" y="381" text-anchor="middle" class="lbl">6.1</text>
<line x1="617.0" y1="55" x2="617.0" y2="365" class="grid"/>
<text x="617.0" y="381" text-anchor="middle" class="lbl">7.3</text>
<text x="343.5" y="408" text-anchor="middle" class="lbl">radius (kpc)</text>
<text x="16" y="210" text-anchor="middle" class="lbl-l" transform="rotate(-90, 16, 210)">velocity (km/s)</text>
<text x="874" y="210" text-anchor="middle" class="lbl-r" transform="rotate(-90, 874, 210)">mass profile (normalized to peak)</text>
<rect x="70" y="55" width="547" height="310" class="ax"/>
<path d="M 70.0,158.3 L 72.5,167.7 L 75.0,177.0 L 77.5,186.3 L 80.0,195.6 L 82.5,204.9 L 85.0,214.3 L 87.5,223.6 L 90.0,232.9 L 92.5,242.2 L 95.0,251.6 L 97.5,260.9 L 100.0,270.2 L 102.5,279.5 L 105.0,287.4 L 107.5,287.4 L 110.0,287.4 L 112.5,287.4 L 115.0,287.4 L 117.5,287.4 L 120.0,287.4 L 122.5,287.4 L 124.9,287.4 L 127.4,287.4 L 129.9,287.4 L 132.4,287.4 L 134.9,287.4 L 137.4,287.4 L 139.9,287.4 L 142.4,287.4 L 144.9,287.4 L 147.4,287.4 L 149.9,287.4 L 152.4,287.4 L 154.9,287.4 L 157.4,287.4 L 159.9,287.4 L 162.4,287.4 L 164.9,287.4 L 167.4,287.4 L 169.9,287.4 L 172.4,287.4 L 174.9,287.4 L 177.4,288.8 L 179.9,290.6 L 182.4,292.4 L 184.9,294.1 L 187.4,295.9 L 189.9,297.7 L 192.4,299.5 L 194.9,301.2 L 197.4,303.0 L 199.9,304.8 L 202.4,306.5 L 204.9,308.3 L 207.4,310.1 L 209.9,311.9 L 212.4,312.9 L 214.9,313.1 L 217.4,313.3 L 219.9,313.5 L 222.4,313.7 L 224.9,313.9 L 227.4,314.1 L 229.9,314.3 L 232.4,314.5 L 234.8,314.6 L 237.3,314.8 L 239.8,315.0 L 242.3,315.2 L 244.8,315.4 L 247.3,315.6 L 249.8,315.8 L 252.3,316.0 L 254.8,316.2 L 257.3,316.4 L 259.8,316.6 L 262.3,316.8 L 264.8,317.0 L 267.3,317.2 L 269.8,317.4 L 272.3,317.6 L 274.8,317.8 L 277.3,318.0 L 279.8,318.1 L 282.3,318.3 L 284.8,318.5 L 287.3,318.7 L 289.8,318.9 L 292.3,319.1 L 294.8,319.3 L 297.3,319.5 L 299.8,319.7 L 302.3,319.9 L 304.8,320.1 L 307.3,320.3 L 309.8,320.5 L 312.3,320.7 L 314.8,320.9 L 317.3,321.1 L 319.8,321.3 L 322.3,321.5 L 324.8,321.7 L 327.3,321.8 L 329.8,322.0 L 332.3,322.2 L 334.8,322.4 L 337.3,322.6 L 339.8,322.8 L 342.3,323.0 L 344.7,323.2 L 347.2,323.4 L 349.7,323.6 L 352.2,323.8 L 354.7,324.0 L 357.2,324.2 L 359.7,324.4 L 362.2,324.6 L 364.7,324.8 L 367.2,325.0 L 369.7,325.2 L 372.2,325.3 L 374.7,325.5 L 377.2,325.7 L 379.7,325.9 L 382.2,326.1 L 384.7,326.3 L 387.2,326.5 L 389.7,326.7 L 392.2,326.9 L 394.7,327.1 L 397.2,327.3 L 399.7,327.5 L 402.2,327.7 L 404.7,327.9 L 407.2,328.1 L 409.7,328.3 L 412.2,328.5 L 414.7,328.7 L 417.2,328.9 L 419.7,329.0 L 422.2,329.2 L 424.7,329.4 L 427.2,329.6 L 429.7,329.8 L 432.2,330.0 L 434.7,330.2 L 437.2,330.4 L 439.7,330.6 L 442.2,330.8 L 444.7,331.0 L 447.2,331.2 L 449.7,331.4 L 452.2,331.6 L 454.6,331.8 L 457.1,332.0 L 459.6,332.2 L 462.1,332.4 L 464.6,332.6 L 467.1,332.7 L 469.6,332.9 L 472.1,333.1 L 474.6,333.3 L 477.1,333.5 L 479.6,333.7 L 482.1,333.9 L 484.6,334.1 L 487.1,334.3 L 489.6,334.5 L 492.1,334.7 L 494.6,334.9 L 497.1,335.1 L 499.6,335.3 L 502.1,335.5 L 504.6,335.7 L 507.1,335.9 L 509.6,336.1 L 512.1,336.2 L 514.6,336.4 L 517.1,336.6 L 519.6,336.8 L 522.1,337.0 L 524.6,337.2 L 527.1,337.4 L 529.6,337.6 L 532.1,337.8 L 534.6,338.0 L 537.1,338.2 L 539.6,338.4 L 542.1,338.6 L 544.6,338.8 L 547.1,339.0 L 549.6,339.2 L 552.1,339.4 L 554.6,339.6 L 557.1,340.0 L 559.6,341.8 L 562.1,343.7 L 564.5,345.5 L 567.0,347.3 L 569.5,349.2 L 572.0,351.0 L 574.5,352.9 L 577.0,354.7 L 579.5,356.6 L 582.0,358.4 L 584.5,360.3 L 587.0,362.1 L 589.5,363.9 L 592.0,365.0 L 594.5,365.0 L 597.0,365.0 L 599.5,365.0 L 602.0,365.0 L 604.5,365.0 L 607.0,365.0 L 609.5,365.0 L 612.0,365.0 L 614.5,365.0 L 617.0,365.0" class="rho"/>
<path d="M 70.0,158.3 L 72.5,158.7 L 75.0,159.4 L 77.5,160.3 L 80.0,161.5 L 82.5,163.0 L 85.0,164.8 L 87.5,166.8 L 90.0,168.9 L 92.5,171.1 L 95.0,173.4 L 97.5,175.7 L 100.0,178.0 L 102.5,180.2 L 105.0,182.5 L 107.5,184.6 L 110.0,186.7 L 112.5,188.7 L 115.0,190.6 L 117.5,192.4 L 120.0,194.2 L 122.5,195.9 L 124.9,197.5 L 127.4,199.1 L 129.9,200.7 L 132.4,202.2 L 134.9,203.7 L 137.4,205.1 L 139.9,206.6 L 142.4,208.0 L 144.9,209.5 L 147.4,210.9 L 149.9,212.3 L 152.4,213.7 L 154.9,215.2 L 157.4,216.6 L 159.9,218.1 L 162.4,219.6 L 164.9,221.1 L 167.4,222.6 L 169.9,224.2 L 172.4,225.8 L 174.9,227.4 L 177.4,229.0 L 179.9,230.6 L 182.4,232.2 L 184.9,233.9 L 187.4,235.6 L 189.9,237.2 L 192.4,238.9 L 194.9,240.5 L 197.4,242.2 L 199.9,243.8 L 202.4,245.4 L 204.9,247.0 L 207.4,248.5 L 209.9,250.0 L 212.4,251.5 L 214.9,253.0 L 217.4,254.4 L 219.9,255.7 L 222.4,257.1 L 224.9,258.4 L 227.4,259.7 L 229.9,260.9 L 232.4,262.1 L 234.8,263.3 L 237.3,264.5 L 239.8,265.6 L 242.3,266.7 L 244.8,267.8 L 247.3,268.9 L 249.8,269.9 L 252.3,270.9 L 254.8,271.9 L 257.3,272.9 L 259.8,273.9 L 262.3,274.8 L 264.8,275.8 L 267.3,276.7 L 269.8,277.6 L 272.3,278.5 L 274.8,279.4 L 277.3,280.3 L 279.8,281.1 L 282.3,282.0 L 284.8,282.8 L 287.3,283.6 L 289.8,284.4 L 292.3,285.2 L 294.8,286.0 L 297.3,286.8 L 299.8,287.6 L 302.3,288.4 L 304.8,289.1 L 307.3,289.9 L 309.8,290.6 L 312.3,291.3 L 314.8,292.1 L 317.3,292.8 L 319.8,293.5 L 322.3,294.2 L 324.8,294.9 L 327.3,295.6 L 329.8,296.3 L 332.3,296.9 L 334.8,297.6 L 337.3,298.3 L 339.8,298.9 L 342.3,299.6 L 344.7,300.2 L 347.2,300.9 L 349.7,301.5 L 352.2,302.1 L 354.7,302.8 L 357.2,303.4 L 359.7,304.0 L 362.2,304.6 L 364.7,305.2 L 367.2,305.8 L 369.7,306.4 L 372.2,307.0 L 374.7,307.6 L 377.2,308.2 L 379.7,308.8 L 382.2,309.3 L 384.7,309.9 L 387.2,310.5 L 389.7,311.0 L 392.2,311.6 L 394.7,312.1 L 397.2,312.7 L 399.7,313.2 L 402.2,313.8 L 404.7,314.3 L 407.2,314.8 L 409.7,315.4 L 412.2,315.9 L 414.7,316.4 L 417.2,316.9 L 419.7,317.4 L 422.2,317.9 L 424.7,318.5 L 427.2,319.0 L 429.7,319.5 L 432.2,319.9 L 434.7,320.4 L 437.2,320.9 L 439.7,321.4 L 442.2,321.9 L 444.7,322.4 L 447.2,322.9 L 449.7,323.3 L 452.2,323.8 L 454.6,324.3 L 457.1,324.7 L 459.6,325.2 L 462.1,325.6 L 464.6,326.1 L 467.1,326.6 L 469.6,327.0 L 472.1,327.4 L 474.6,327.9 L 477.1,328.3 L 479.6,328.8 L 482.1,329.2 L 484.6,329.6 L 487.1,330.1 L 489.6,330.5 L 492.1,330.9 L 494.6,331.4 L 497.1,331.8 L 499.6,332.2 L 502.1,332.6 L 504.6,333.0 L 507.1,333.4 L 509.6,333.9 L 512.1,334.3 L 514.6,334.7 L 517.1,335.1 L 519.6,335.5 L 522.1,335.9 L 524.6,336.3 L 527.1,336.7 L 529.6,337.1 L 532.1,337.6 L 534.6,338.0 L 537.1,338.4 L 539.6,338.8 L 542.1,339.2 L 544.6,339.6 L 547.1,340.0 L 549.6,340.4 L 552.1,340.8 L 554.6,341.2 L 557.1,341.7 L 559.6,342.1 L 562.1,342.5 L 564.5,342.9 L 567.0,343.3 L 569.5,343.7 L 572.0,344.0 L 574.5,344.4 L 577.0,344.8 L 579.5,345.1 L 582.0,345.5 L 584.5,345.8 L 587.0,346.2 L 589.5,346.5 L 592.0,346.8 L 594.5,347.1 L 597.0,347.4 L 599.5,347.7 L 602.0,347.9 L 604.5,348.2 L 607.0,348.4 L 609.5,348.7 L 612.0,348.9 L 614.5,349.2 L 617.0,349.4" class="sig"/>
<path d="M 75.5,304.6 L 80.9,282.6 L 86.4,268.0 L 91.9,257.7 L 97.3,250.5 L 102.8,245.9 L 108.3,242.8 L 113.8,239.2 L 119.2,235.3 L 124.7,231.1 L 130.2,226.8 L 135.6,222.4 L 141.1,218.1 L 146.6,213.7 L 152.1,209.5 L 157.5,205.2 L 163.0,201.1 L 168.5,197.0 L 173.9,192.9 L 179.4,189.1 L 184.9,185.6 L 190.3,182.6 L 195.8,180.0 L 201.3,177.8 L 206.8,175.8 L 212.2,174.2 L 217.7,172.7 L 223.2,171.2 L 228.6,169.6 L 234.1,168.1 L 239.6,166.5 L 245.0,165.0 L 250.5,163.4 L 256.0,161.8 L 261.4,160.3 L 266.9,158.8 L 272.4,157.2 L 277.9,155.7 L 283.3,154.3 L 288.8,152.8 L 294.3,151.3 L 299.7,149.9 L 305.2,148.5 L 310.7,147.1 L 316.1,145.7 L 321.6,144.4 L 327.1,143.0 L 332.6,141.7 L 338.0,140.4 L 343.5,139.2 L 349.0,137.9 L 354.4,136.7 L 359.9,135.5 L 365.4,134.4 L 370.8,133.2 L 376.3,132.1 L 381.8,131.0 L 387.3,129.9 L 392.7,128.8 L 398.2,127.8 L 403.7,126.8 L 409.1,125.8 L 414.6,124.8 L 420.1,123.9 L 425.6,123.0 L 431.0,122.1 L 436.5,121.2 L 442.0,120.3 L 447.4,119.5 L 452.9,118.7 L 458.4,117.9 L 463.8,117.1 L 469.3,116.4 L 474.8,115.6 L 480.2,114.9 L 485.7,114.2 L 491.2,113.6 L 496.7,112.9 L 502.1,112.3 L 507.6,111.7 L 513.1,111.1 L 518.5,110.6 L 524.0,110.0 L 529.5,109.5 L 535.0,109.0 L 540.4,108.5 L 545.9,108.1 L 551.4,107.6 L 556.8,107.2 L 562.3,107.0 L 567.8,107.0 L 573.2,107.3 L 578.7,107.9 L 584.2,108.7 L 589.6,109.8 L 595.1,111.2 L 600.6,112.5 L 606.1,113.8 L 611.5,115.1 L 617.0,116.3" class="nt"/>
<path d="M 74.6,333.1 L 79.1,309.9 L 83.7,286.3 L 88.2,265.8 L 92.8,249.1 L 97.3,236.5 L 101.9,227.4 L 106.5,221.4 L 111.0,217.5 L 115.6,215.0 L 120.1,213.1 L 124.7,211.1 L 129.3,208.8 L 133.8,206.0 L 138.4,202.5 L 142.9,198.3 L 147.5,193.4 L 152.1,187.9 L 156.6,181.8 L 161.2,175.2 L 165.7,168.1 L 170.3,160.9 L 174.8,153.8 L 179.4,147.2 L 184.0,141.3 L 188.5,136.5 L 193.1,132.8 L 197.6,130.4 L 202.2,129.1 L 206.8,129.0 L 211.3,129.7 L 215.9,131.1 L 220.4,132.8 L 225.0,134.6 L 229.5,136.4 L 234.1,138.1 L 238.7,139.7 L 243.2,141.1 L 247.8,142.3 L 252.3,143.4 L 256.9,144.3 L 261.4,145.1 L 266.0,145.7 L 270.6,146.3 L 275.1,146.8 L 279.7,147.2 L 284.2,147.5 L 288.8,147.8 L 293.4,148.0 L 297.9,148.1 L 302.5,148.3 L 307.0,148.3 L 311.6,148.4 L 316.1,148.4 L 320.7,148.4 L 325.3,148.4 L 329.8,148.3 L 334.4,148.3 L 338.9,148.2 L 343.5,148.1 L 348.1,148.1 L 352.6,148.0 L 357.2,147.9 L 361.7,147.8 L 366.3,147.7 L 370.8,147.6 L 375.4,147.6 L 380.0,147.5 L 384.5,147.4 L 389.1,147.4 L 393.6,147.3 L 398.2,147.2 L 402.8,147.2 L 407.3,147.2 L 411.9,147.1 L 416.4,147.1 L 421.0,147.1 L 425.6,147.1 L 430.1,147.1 L 434.7,147.1 L 439.2,147.1 L 443.8,147.1 L 448.3,147.1 L 452.9,147.1 L 457.5,147.1 L 462.0,147.1 L 466.6,147.1 L 471.1,147.0 L 475.7,147.0 L 480.2,146.9 L 484.8,146.8 L 489.4,146.6 L 493.9,146.4 L 498.5,146.2 L 503.0,145.9 L 507.6,145.4 L 512.2,144.9 L 516.7,144.3 L 521.3,143.6 L 525.8,142.7 L 530.4,141.6 L 535.0,140.4 L 539.5,139.1 L 544.1,137.7 L 548.6,136.5 L 553.2,135.5 L 557.7,135.2 L 562.3,135.6 L 566.9,137.0 L 571.4,139.5 L 576.0,142.9 L 580.5,147.2 L 585.1,152.0 L 589.7,157.2 L 594.2,162.4 L 598.8,167.6 L 603.3,172.6 L 607.9,177.4 L 612.4,181.9 L 617.0,186.1" class="fw"/>
<line x1="76.77" y1="306.44" x2="76.77" y2="331.84" class="err"/>
<line x1="73.77" y1="306.44" x2="79.77" y2="306.44" class="err"/>
<line x1="73.77" y1="331.84" x2="79.77" y2="331.84" class="err"/>
<circle cx="76.77" cy="319.14" r="2.5" class="obs"/>
<line x1="90.31" y1="238.88" x2="90.31" y2="277.12" class="err"/>
<line x1="87.31" y1="238.88" x2="93.31" y2="238.88" class="err"/>
<line x1="87.31" y1="277.12" x2="93.31" y2="277.12" class="err"/>
<circle cx="90.31" cy="258.00" r="2.5" class="obs"/>
<line x1="103.84" y1="220.56" x2="103.84" y2="245.96" class="err"/>
<line x1="100.84" y1="220.56" x2="106.84" y2="220.56" class="err"/>
<line x1="100.84" y1="245.96" x2="106.84" y2="245.96" class="err"/>
<circle cx="103.84" cy="233.26" r="2.5" class="obs"/>
<line x1="117.38" y1="198.05" x2="117.38" y2="223.45" class="err"/>
<line x1="114.38" y1="198.05" x2="120.38" y2="198.05" class="err"/>
<line x1="114.38" y1="223.45" x2="120.38" y2="223.45" class="err"/>
<circle cx="117.38" cy="210.75" r="2.5" class="obs"/>
<line x1="130.92" y1="193.10" x2="130.92" y2="223.40" class="err"/>
<line x1="127.92" y1="193.10" x2="133.92" y2="193.10" class="err"/>
<line x1="127.92" y1="223.40" x2="133.92" y2="223.40" class="err"/>
<circle cx="130.92" cy="208.25" r="2.5" class="obs"/>
<line x1="144.46" y1="186.10" x2="144.46" y2="211.50" class="err"/>
<line x1="141.46" y1="186.10" x2="147.46" y2="186.10" class="err"/>
<line x1="141.46" y1="211.50" x2="147.46" y2="211.50" class="err"/>
<circle cx="144.46" cy="198.80" r="2.5" class="obs"/>
<line x1="157.99" y1="163.86" x2="157.99" y2="189.27" class="err"/>
<line x1="154.99" y1="163.86" x2="160.99" y2="163.86" class="err"/>
<line x1="154.99" y1="189.27" x2="160.99" y2="189.27" class="err"/>
<circle cx="157.99" cy="176.57" r="2.5" class="obs"/>
<line x1="171.53" y1="139.96" x2="171.53" y2="165.36" class="err"/>
<line x1="168.53" y1="139.96" x2="174.53" y2="139.96" class="err"/>
<line x1="168.53" y1="165.36" x2="174.53" y2="165.36" class="err"/>
<circle cx="171.53" cy="152.66" r="2.5" class="obs"/>
<line x1="185.07" y1="126.62" x2="185.07" y2="152.02" class="err"/>
<line x1="182.07" y1="126.62" x2="188.07" y2="126.62" class="err"/>
<line x1="182.07" y1="152.02" x2="188.07" y2="152.02" class="err"/>
<circle cx="185.07" cy="139.32" r="2.5" class="obs"/>
<line x1="198.61" y1="83.18" x2="198.61" y2="189.91" class="err"/>
<line x1="195.61" y1="83.18" x2="201.61" y2="83.18" class="err"/>
<line x1="195.61" y1="189.91" x2="201.61" y2="189.91" class="err"/>
<circle cx="198.61" cy="136.54" r="2.5" class="obs"/>
<line x1="212.14" y1="122.73" x2="212.14" y2="148.13" class="err"/>
<line x1="209.14" y1="122.73" x2="215.14" y2="122.73" class="err"/>
<line x1="209.14" y1="148.13" x2="215.14" y2="148.13" class="err"/>
<circle cx="212.14" cy="135.43" r="2.5" class="obs"/>
<line x1="225.68" y1="123.56" x2="225.68" y2="148.97" class="err"/>
<line x1="222.68" y1="123.56" x2="228.68" y2="123.56" class="err"/>
<line x1="222.68" y1="148.97" x2="228.68" y2="148.97" class="err"/>
<circle cx="225.68" cy="136.27" r="2.5" class="obs"/>
<line x1="239.22" y1="124.12" x2="239.22" y2="149.52" class="err"/>
<line x1="236.22" y1="124.12" x2="242.22" y2="124.12" class="err"/>
<line x1="236.22" y1="149.52" x2="242.22" y2="149.52" class="err"/>
<circle cx="239.22" cy="136.82" r="2.5" class="obs"/>
<line x1="270.80" y1="126.07" x2="270.80" y2="151.47" class="err"/>
<line x1="267.80" y1="126.07" x2="273.80" y2="126.07" class="err"/>
<line x1="267.80" y1="151.47" x2="273.80" y2="151.47" class="err"/>
<circle cx="270.80" cy="138.77" r="2.5" class="obs"/>
<line x1="306.90" y1="131.90" x2="306.90" y2="157.31" class="err"/>
<line x1="303.90" y1="131.90" x2="309.90" y2="131.90" class="err"/>
<line x1="303.90" y1="157.31" x2="309.90" y2="157.31" class="err"/>
<circle cx="306.90" cy="144.60" r="2.5" class="obs"/>
<line x1="341.50" y1="134.13" x2="341.50" y2="159.53" class="err"/>
<line x1="338.50" y1="134.13" x2="344.50" y2="134.13" class="err"/>
<line x1="338.50" y1="159.53" x2="344.50" y2="159.53" class="err"/>
<circle cx="341.50" cy="146.83" r="2.5" class="obs"/>
<line x1="373.84" y1="134.96" x2="373.84" y2="160.36" class="err"/>
<line x1="370.84" y1="134.96" x2="376.84" y2="134.96" class="err"/>
<line x1="370.84" y1="160.36" x2="376.84" y2="160.36" class="err"/>
<circle cx="373.84" cy="147.66" r="2.5" class="obs"/>
<line x1="407.68" y1="135.24" x2="407.68" y2="160.64" class="err"/>
<line x1="404.68" y1="135.24" x2="410.68" y2="135.24" class="err"/>
<line x1="404.68" y1="160.64" x2="410.68" y2="160.64" class="err"/>
<circle cx="407.68" cy="147.94" r="2.5" class="obs"/>
<line x1="440.77" y1="134.96" x2="440.77" y2="160.36" class="err"/>
<line x1="437.77" y1="134.96" x2="443.77" y2="134.96" class="err"/>
<line x1="437.77" y1="160.36" x2="443.77" y2="160.36" class="err"/>
<circle cx="440.77" cy="147.66" r="2.5" class="obs"/>
<line x1="474.62" y1="134.68" x2="474.62" y2="160.08" class="err"/>
<line x1="471.62" y1="134.68" x2="477.62" y2="134.68" class="err"/>
<line x1="471.62" y1="160.08" x2="477.62" y2="160.08" class="err"/>
<circle cx="474.62" cy="147.38" r="2.5" class="obs"/>
<line x1="510.72" y1="133.85" x2="510.72" y2="159.25" class="err"/>
<line x1="507.72" y1="133.85" x2="513.72" y2="133.85" class="err"/>
<line x1="507.72" y1="159.25" x2="513.72" y2="159.25" class="err"/>
<circle cx="510.72" cy="146.55" r="2.5" class="obs"/>
<line x1="542.30" y1="133.01" x2="542.30" y2="158.42" class="err"/>
<line x1="539.30" y1="133.01" x2="545.30" y2="133.01" class="err"/>
<line x1="539.30" y1="158.42" x2="545.30" y2="158.42" class="err"/>
<circle cx="542.30" cy="145.72" r="2.5" class="obs"/>
<line x1="576.90" y1="131.35" x2="576.90" y2="156.75" class="err"/>
<line x1="573.90" y1="131.35" x2="579.90" y2="131.35" class="err"/>
<line x1="573.90" y1="156.75" x2="579.90" y2="156.75" class="err"/>
<circle cx="576.90" cy="144.05" r="2.5" class="obs"/>
<g class="legend">
<line x1="82" y1="69" x2="106" y2="69" class="fw"/>
<text x="112" y="73" class="lbl-l">framework fit</text>
<line x1="82" y1="87" x2="106" y2="87" class="nt"/>
<text x="112" y="91" class="lbl-l">Newtonian (no halo)</text>
<circle cx="94" cy="105" r="2.5" class="obs"/>
<text x="112" y="109" class="lbl">observed V±err</text>
</g>
<g class="legend">
<line x1="442" y1="69" x2="466" y2="69" class="rho"/>
<text x="472" y="73" class="lbl-r">ρ(r) raw</text>
<line x1="442" y1="87" x2="466" y2="87" class="sig"/>
<text x="472" y="91" class="lbl-s">Σ(r) cumulative</text>
<text x="442" y="113" class="lbl-r">ρ peak: 515 M☉/pc²</text>
</g>
<rect x="705" y="55" width="170" height="170" class="preview-bg"/>
<defs><radialGradient id="g_UGC05721" cx="0.5" cy="0.5" r="0.5">
  <stop offset="0.0000" stop-color="rgb(255,63.75,63.75)"/>
  <stop offset="0.0313" stop-color="rgb(255,63.75,63.75)"/>
  <stop offset="0.0625" stop-color="rgb(255,63.75,63.75)"/>
  <stop offset="0.0938" stop-color="rgb(255,63.75,63.75)"/>
  <stop offset="0.1250" stop-color="rgb(255,63.75,63.75)"/>
  <stop offset="0.1563" stop-color="rgb(255,63.75,63.75)"/>
  <stop offset="0.1875" stop-color="rgb(255,63.75,63.75)"/>
  <stop offset="0.2188" stop-color="rgb(255,63.75,63.75)"/>
  <stop offset="0.2500" stop-color="rgb(254,63.5,63.5)"/>
  <stop offset="0.2813" stop-color="rgb(226,56.5,56.5)"/>
  <stop offset="0.3125" stop-color="rgb(222,55.5,55.5)"/>
  <stop offset="0.3438" stop-color="rgb(218,54.5,54.5)"/>
  <stop offset="0.3750" stop-color="rgb(213,53.25,53.25)"/>
  <stop offset="0.4063" stop-color="rgb(209,52.25,52.25)"/>
  <stop offset="0.4375" stop-color="rgb(205,51.25,51.25)"/>
  <stop offset="0.4688" stop-color="rgb(200,50,50)"/>
  <stop offset="0.5000" stop-color="rgb(196,49,49)"/>
  <stop offset="0.5313" stop-color="rgb(192,48,48)"/>
  <stop offset="0.5625" stop-color="rgb(188,47,47)"/>
  <stop offset="0.5938" stop-color="rgb(183,45.75,45.75)"/>
  <stop offset="0.6250" stop-color="rgb(179,44.75,44.75)"/>
  <stop offset="0.6563" stop-color="rgb(175,43.75,43.75)"/>
  <stop offset="0.6875" stop-color="rgb(170,42.5,42.5)"/>
  <stop offset="0.7188" stop-color="rgb(166,41.5,41.5)"/>
  <stop offset="0.7500" stop-color="rgb(162,40.5,40.5)"/>
  <stop offset="0.7813" stop-color="rgb(157,39.25,39.25)"/>
  <stop offset="0.8125" stop-color="rgb(153,38.25,38.25)"/>
  <stop offset="0.8438" stop-color="rgb(149,37.25,37.25)"/>
  <stop offset="0.8750" stop-color="rgb(144,36,36)"/>
  <stop offset="0.9063" stop-color="rgb(140,35,35)"/>
  <stop offset="0.9375" stop-color="rgb(132,33,33)"/>
  <stop offset="0.9688" stop-color="rgb(91,22.75,22.75)"/>
  <stop offset="1.0000" stop-color="rgb(0,0,0)"/>
</radialGradient></defs>
<circle cx="790" cy="140" r="81" fill="url(#g_UGC05721)"/>
<text x="790" y="49" text-anchor="middle" class="preview-lbl">face-on luminance from ρ(r)</text>
<text x="790" y="239" text-anchor="middle" class="preview-lbl">edge at r = 6.9 kpc</text>
</svg>