<svg xmlns="http://www.w3.org/2000/svg" viewBox="0 0 890 420" width="890" height="420" font-family="sans-serif" font-size="12">
<style>
  .ax { stroke: #333; stroke-width: 1; fill: none; }
  .grid { stroke: #ddd; stroke-width: 0.5; fill: none; }
  .lbl { fill: #333; }
  .lbl-l { fill: #0066cc; }
  .lbl-r { fill: #b03030; }
  .obs { fill: #222; }
  .err { stroke: #555; stroke-width: 0.8; fill: none; }
  .fw { stroke: #0066cc; stroke-width: 2.2; fill: none; }
  .nt { stroke: #cc6600; stroke-width: 1.6; fill: none; stroke-dasharray: 5,3; }
  .lbl-s { fill: #cc7000; }
  .rho { stroke: #b03030; stroke-width: 2.0; fill: none; }
  .sig { stroke: #cc7000; stroke-width: 1.8; fill: none; }
  .title { fill: #111; font-size: 16px; font-weight: 600; }
  .subtitle { fill: #555; font-size: 11px; }
  .preview-bg { fill: #000; }
  .preview-lbl { fill: #888; font-size: 10px; }
  .legend { font-size: 11px; }
</style>
<text x="343.5" y="22" text-anchor="middle" class="title">UGC02455</text>
<text x="343.5" y="38" text-anchor="middle" class="subtitle">rMax=4.0 kpc, N=8, RMS=0.9 km/s (2.5%), amp=104</text>
<line x1="70" y1="365.0" x2="617" y2="365.0" class="grid"/>
<text x="64" y="369.0" text-anchor="end" class="lbl-l">0</text>
<line x1="70" y1="303.0" x2="617" y2="303.0" class="grid"/>
<text x="64" y="307.0" text-anchor="end" class="lbl-l">14</text>
<line x1="70" y1="241.0" x2="617" y2="241.0" class="grid"/>
<text x="64" y="245.0" text-anchor="end" class="lbl-l">28</text>
<line x1="70" y1="179.0" x2="617" y2="179.0" class="grid"/>
<text x="64" y="183.0" text-anchor="end" class="lbl-l">43</text>
<line x1="70" y1="117.0" x2="617" y2="117.0" class="grid"/>
<text x="64" y="121.0" text-anchor="end" class="lbl-l">57</text>
<line x1="70" y1="55.0" x2="617" y2="55.0" class="grid"/>
<text x="64" y="59.0" text-anchor="end" class="lbl-l">71</text>
<text x="623" y="369.0" text-anchor="start" class="lbl-r">0.0</text>
<text x="623" y="327.7" text-anchor="start" class="lbl-r">0.2</text>
<text x="623" y="286.3" text-anchor="start" class="lbl-r">0.4</text>
<text x="623" y="245.0" text-anchor="start" class="lbl-r">0.6</text>
<text x="623" y="203.7" text-anchor="start" class="lbl-r">0.8</text>
<text x="623" y="162.3" text-anchor="start" class="lbl-r">1.0</text>
<line x1="70.0" y1="55" x2="70.0" y2="365" class="grid"/>
<text x="70.0" y="381" text-anchor="middle" class="lbl">0.0</text>
<line x1="161.2" y1="55" x2="161.2" y2="365" class="grid"/>
<text x="161.2" y="381" text-anchor="middle" class="lbl">0.7</text>
<line x1="252.3" y1="55" x2="252.3" y2="365" class="grid"/>
<text x="252.3" y="381" text-anchor="middle" class="lbl">1.5</text>
<line x1="343.5" y1="55" x2="343.5" y2="365" class="grid"/>
<text x="343.5" y="381" text-anchor="middle" class="lbl">2.2</text>
<line x1="434.7" y1="55" x2="434.7" y2="365" class="grid"/>
<text x="434.7" y="381" text-anchor="middle" class="lbl">2.9</text>
<line x1="525.8" y1="55" x2="525.8" y2="365" class="grid"/>
<text x="525.8" y="381" text-anchor="middle" class="lbl">3.7</text>
<line x1="617.0" y1="55" x2="617.0" y2="365" class="grid"/>
<text x="617.0" y="381" text-anchor="middle" class="lbl">4.4</text>
<text x="343.5" y="408" text-anchor="middle" class="lbl">radius (kpc)</text>
<text x="16" y="210" text-anchor="middle" class="lbl-l" transform="rotate(-90, 16, 210)">velocity (km/s)</text>
<text x="654" y="210" text-anchor="middle" class="lbl-r" transform="rotate(-90, 654, 210)">mass profile (normalized to peak)</text>
<rect x="70" y="55" width="547" height="310" class="ax"/>
<path d="M 70.0,158.3 L 72.5,163.7 L 75.0,169.0 L 77.5,174.3 L 80.0,179.6 L 82.5,184.9 L 85.0,190.2 L 87.5,195.6 L 90.0,200.9 L 92.5,206.2 L 95.0,211.5 L 97.5,216.8 L 100.0,222.1 L 102.5,223.8 L 105.0,224.2 L 107.5,224.6 L 110.0,225.0 L 112.5,225.4 L 115.0,225.7 L 117.5,226.1 L 120.0,226.5 L 122.5,226.9 L 124.9,227.3 L 127.4,227.7 L 129.9,228.1 L 132.4,228.5 L 134.9,228.9 L 137.4,229.2 L 139.9,229.6 L 142.4,230.0 L 144.9,230.4 L 147.4,230.8 L 149.9,231.2 L 152.4,231.6 L 154.9,232.0 L 157.4,232.4 L 159.9,232.7 L 162.4,233.1 L 164.9,233.5 L 167.4,233.9 L 169.9,234.4 L 172.4,234.9 L 174.9,235.3 L 177.4,235.8 L 179.9,236.2 L 182.4,236.7 L 184.9,237.2 L 187.4,237.6 L 189.9,238.1 L 192.4,238.5 L 194.9,239.0 L 197.4,239.2 L 199.9,239.5 L 202.4,239.7 L 204.9,240.0 L 207.4,240.2 L 209.9,240.4 L 212.4,240.7 L 214.9,240.9 L 217.4,241.2 L 219.9,241.4 L 222.4,241.7 L 224.9,241.9 L 227.4,242.1 L 229.9,242.4 L 232.4,242.6 L 234.8,242.9 L 237.3,243.1 L 239.8,243.4 L 242.3,243.6 L 244.8,243.8 L 247.3,244.1 L 249.8,244.3 L 252.3,244.6 L 254.8,244.8 L 257.3,245.1 L 259.8,245.3 L 262.3,245.5 L 264.8,245.8 L 267.3,246.0 L 269.8,246.3 L 272.3,246.5 L 274.8,246.8 L 277.3,247.0 L 279.8,247.2 L 282.3,247.5 L 284.8,247.7 L 287.3,248.0 L 289.8,248.2 L 292.3,248.5 L 294.8,248.7 L 297.3,248.9 L 299.8,249.2 L 302.3,249.4 L 304.8,249.7 L 307.3,249.9 L 309.8,250.2 L 312.3,250.4 L 314.8,250.6 L 317.3,250.9 L 319.8,251.1 L 322.3,251.4 L 324.8,251.6 L 327.3,251.9 L 329.8,252.1 L 332.3,252.4 L 334.8,252.6 L 337.3,252.8 L 339.8,253.1 L 342.3,253.3 L 344.7,253.6 L 347.2,253.8 L 349.7,254.1 L 352.2,254.3 L 354.7,254.5 L 357.2,254.8 L 359.7,255.0 L 362.2,255.3 L 364.7,255.5 L 367.2,255.8 L 369.7,256.0 L 372.2,256.2 L 374.7,256.5 L 377.2,256.7 L 379.7,257.0 L 382.2,257.2 L 384.7,257.5 L 387.2,257.7 L 389.7,257.9 L 392.2,258.2 L 394.7,258.4 L 397.2,258.7 L 399.7,258.9 L 402.2,259.2 L 404.7,259.4 L 407.2,259.6 L 409.7,259.9 L 412.2,260.1 L 414.7,260.4 L 417.2,260.6 L 419.7,260.9 L 422.2,261.1 L 424.7,261.3 L 427.2,261.6 L 429.7,261.8 L 432.2,262.1 L 434.7,262.3 L 437.2,262.6 L 439.7,262.8 L 442.2,263.0 L 444.7,263.3 L 447.2,263.5 L 449.7,263.8 L 452.2,264.0 L 454.6,264.3 L 457.1,264.5 L 459.6,264.7 L 462.1,265.0 L 464.6,265.2 L 467.1,265.5 L 469.6,265.7 L 472.1,266.0 L 474.6,266.2 L 477.1,266.5 L 479.6,266.7 L 482.1,266.9 L 484.6,267.2 L 487.1,267.4 L 489.6,267.7 L 492.1,267.9 L 494.6,268.2 L 497.1,268.4 L 499.6,268.6 L 502.1,268.9 L 504.6,269.1 L 507.1,269.4 L 509.6,269.6 L 512.1,269.9 L 514.6,270.1 L 517.1,270.3 L 519.6,270.6 L 522.1,270.8 L 524.6,271.1 L 527.1,271.3 L 529.6,271.6 L 532.1,271.8 L 534.6,272.0 L 537.1,272.3 L 539.6,272.5 L 542.1,272.8 L 544.6,273.0 L 547.1,275.8 L 549.6,280.8 L 552.1,285.9 L 554.6,291.0 L 557.1,296.1 L 559.6,301.2 L 562.1,306.2 L 564.5,311.3 L 567.0,316.4 L 569.5,321.5 L 572.0,326.5 L 574.5,331.6 L 577.0,336.7 L 579.5,341.8 L 582.0,346.9 L 584.5,351.9 L 587.0,357.0 L 589.5,362.1 L 592.0,365.0 L 594.5,365.0 L 597.0,365.0 L 599.5,365.0 L 602.0,365.0 L 604.5,365.0 L 607.0,365.0 L 609.5,365.0 L 612.0,365.0 L 614.5,365.0 L 617.0,365.0" class="rho"/>
<path d="M 70.0,158.3 L 72.5,158.5 L 75.0,158.7 L 77.5,159.0 L 80.0,159.4 L 82.5,159.8 L 85.0,160.4 L 87.5,161.1 L 90.0,161.8 L 92.5,162.5 L 95.0,163.2 L 97.5,164.0 L 100.0,164.8 L 102.5,165.6 L 105.0,166.4 L 107.5,167.2 L 110.0,167.9 L 112.5,168.7 L 115.0,169.4 L 117.5,170.2 L 120.0,170.9 L 122.5,171.6 L 124.9,172.3 L 127.4,173.1 L 129.9,173.8 L 132.4,174.5 L 134.9,175.2 L 137.4,175.9 L 139.9,176.6 L 142.4,177.3 L 144.9,178.0 L 147.4,178.7 L 149.9,179.4 L 152.4,180.1 L 154.9,180.8 L 157.4,181.5 L 159.9,182.2 L 162.4,182.9 L 164.9,183.6 L 167.4,184.3 L 169.9,185.0 L 172.4,185.8 L 174.9,186.5 L 177.4,187.2 L 179.9,187.9 L 182.4,188.6 L 184.9,189.3 L 187.4,190.0 L 189.9,190.7 L 192.4,191.4 L 194.9,192.1 L 197.4,192.8 L 199.9,193.5 L 202.4,194.2 L 204.9,194.9 L 207.4,195.6 L 209.9,196.3 L 212.4,197.0 L 214.9,197.6 L 217.4,198.3 L 219.9,199.0 L 222.4,199.7 L 224.9,200.4 L 227.4,201.0 L 229.9,201.7 L 232.4,202.4 L 234.8,203.1 L 237.3,203.7 L 239.8,204.4 L 242.3,205.1 L 244.8,205.8 L 247.3,206.4 L 249.8,207.1 L 252.3,207.8 L 254.8,208.5 L 257.3,209.1 L 259.8,209.8 L 262.3,210.5 L 264.8,211.2 L 267.3,211.9 L 269.8,212.5 L 272.3,213.2 L 274.8,213.9 L 277.3,214.6 L 279.8,215.3 L 282.3,215.9 L 284.8,216.6 L 287.3,217.3 L 289.8,218.0 L 292.3,218.7 L 294.8,219.4 L 297.3,220.0 L 299.8,220.7 L 302.3,221.4 L 304.8,222.1 L 307.3,222.8 L 309.8,223.5 L 312.3,224.2 L 314.8,224.9 L 317.3,225.6 L 319.8,226.2 L 322.3,226.9 L 324.8,227.6 L 327.3,228.3 L 329.8,229.0 L 332.3,229.7 L 334.8,230.4 L 337.3,231.1 L 339.8,231.8 L 342.3,232.5 L 344.7,233.2 L 347.2,233.9 L 349.7,234.6 L 352.2,235.3 L 354.7,236.0 L 357.2,236.7 L 359.7,237.4 L 362.2,238.2 L 364.7,238.9 L 367.2,239.6 L 369.7,240.3 L 372.2,241.0 L 374.7,241.7 L 377.2,242.4 L 379.7,243.1 L 382.2,243.9 L 384.7,244.6 L 387.2,245.3 L 389.7,246.0 L 392.2,246.7 L 394.7,247.5 L 397.2,248.2 L 399.7,248.9 L 402.2,249.6 L 404.7,250.4 L 407.2,251.1 L 409.7,251.8 L 412.2,252.6 L 414.7,253.3 L 417.2,254.1 L 419.7,254.8 L 422.2,255.6 L 424.7,256.3 L 427.2,257.0 L 429.7,257.8 L 432.2,258.6 L 434.7,259.3 L 437.2,260.1 L 439.7,260.8 L 442.2,261.6 L 444.7,262.4 L 447.2,263.2 L 449.7,263.9 L 452.2,264.7 L 454.6,265.5 L 457.1,266.3 L 459.6,267.1 L 462.1,267.9 L 464.6,268.7 L 467.1,269.5 L 469.6,270.3 L 472.1,271.2 L 474.6,272.0 L 477.1,272.8 L 479.6,273.7 L 482.1,274.5 L 484.6,275.4 L 487.1,276.3 L 489.6,277.2 L 492.1,278.1 L 494.6,279.0 L 497.1,279.9 L 499.6,280.8 L 502.1,281.8 L 504.6,282.7 L 507.1,283.7 L 509.6,284.7 L 512.1,285.7 L 514.6,286.7 L 517.1,287.7 L 519.6,288.8 L 522.1,289.9 L 524.6,291.0 L 527.1,292.1 L 529.6,293.2 L 532.1,294.4 L 534.6,295.6 L 537.1,296.9 L 539.6,298.1 L 542.1,299.4 L 544.6,300.7 L 547.1,302.0 L 549.6,303.3 L 552.1,304.7 L 554.6,306.0 L 557.1,307.4 L 559.6,308.7 L 562.1,310.1 L 564.5,311.4 L 567.0,312.7 L 569.5,313.9 L 572.0,315.2 L 574.5,316.4 L 577.0,317.5 L 579.5,318.6 L 582.0,319.7 L 584.5,320.8 L 587.0,321.8 L 589.5,322.7 L 592.0,323.6 L 594.5,324.5 L 597.0,325.4 L 599.5,326.2 L 602.0,327.0 L 604.5,327.7 L 607.0,328.4 L 609.5,329.1 L 612.0,329.8 L 614.5,330.4 L 617.0,331.0" class="sig"/>
<path d="M 75.5,333.5 L 80.9,321.4 L 86.4,312.6 L 91.9,305.8 L 97.4,300.3 L 102.8,295.8 L 108.3,291.4 L 113.8,287.3 L 119.2,283.3 L 124.7,279.5 L 130.2,275.8 L 135.6,272.3 L 141.1,268.9 L 146.6,265.6 L 152.1,262.5 L 157.5,259.5 L 163.0,256.6 L 168.5,253.8 L 173.9,251.0 L 179.4,248.4 L 184.9,245.8 L 190.3,243.4 L 195.8,241.0 L 201.3,238.6 L 206.8,236.4 L 212.2,234.1 L 217.7,231.9 L 223.2,229.8 L 228.6,227.7 L 234.1,225.6 L 239.6,223.6 L 245.0,221.6 L 250.5,219.6 L 256.0,217.7 L 261.4,215.9 L 266.9,214.0 L 272.4,212.2 L 277.9,210.4 L 283.3,208.7 L 288.8,206.9 L 294.3,205.2 L 299.7,203.6 L 305.2,201.9 L 310.7,200.3 L 316.1,198.7 L 321.6,197.2 L 327.1,195.6 L 332.6,194.1 L 338.0,192.6 L 343.5,191.2 L 349.0,189.7 L 354.4,188.3 L 359.9,186.9 L 365.4,185.5 L 370.9,184.1 L 376.3,182.8 L 381.8,181.5 L 387.3,180.1 L 392.7,178.9 L 398.2,177.6 L 403.7,176.3 L 409.1,175.1 L 414.6,173.9 L 420.1,172.7 L 425.5,171.5 L 431.0,170.3 L 436.5,169.2 L 442.0,168.0 L 447.4,166.9 L 452.9,165.8 L 458.4,164.7 L 463.8,163.6 L 469.3,162.6 L 474.8,161.5 L 480.3,160.5 L 485.7,159.4 L 491.2,158.4 L 496.7,157.4 L 502.1,156.5 L 507.6,155.5 L 513.1,154.5 L 518.5,153.6 L 524.0,152.7 L 529.5,151.7 L 535.0,150.8 L 540.4,149.9 L 545.9,149.0 L 551.4,148.3 L 556.8,147.8 L 562.3,147.6 L 567.8,147.5 L 573.2,147.8 L 578.7,148.3 L 584.2,149.0 L 589.7,149.9 L 595.1,151.0 L 600.6,152.1 L 606.1,153.2 L 611.5,154.3 L 617.0,155.4" class="nt"/>
<path d="M 74.6,352.7 L 79.1,343.7 L 83.7,334.5 L 88.2,326.3 L 92.8,319.5 L 97.3,313.9 L 101.9,309.6 L 106.5,306.1 L 111.0,303.1 L 115.6,300.6 L 120.1,298.1 L 124.7,295.7 L 129.3,293.2 L 133.8,290.8 L 138.4,288.3 L 142.9,285.8 L 147.5,283.3 L 152.1,280.8 L 156.6,278.4 L 161.2,276.0 L 165.7,273.7 L 170.3,271.4 L 174.8,269.3 L 179.4,267.3 L 184.0,265.5 L 188.5,263.7 L 193.1,262.1 L 197.6,260.5 L 202.2,259.0 L 206.8,257.5 L 211.3,256.0 L 215.9,254.5 L 220.4,253.0 L 225.0,251.4 L 229.5,249.9 L 234.1,248.3 L 238.7,246.7 L 243.2,245.2 L 247.8,243.6 L 252.3,242.0 L 256.9,240.4 L 261.4,238.8 L 266.0,237.3 L 270.6,235.7 L 275.1,234.1 L 279.7,232.6 L 284.2,231.0 L 288.8,229.5 L 293.4,227.9 L 297.9,226.4 L 302.5,224.9 L 307.0,223.4 L 311.6,221.9 L 316.1,220.4 L 320.7,218.9 L 325.3,217.4 L 329.8,216.0 L 334.4,214.5 L 338.9,213.0 L 343.5,211.6 L 348.1,210.1 L 352.6,208.6 L 357.2,207.2 L 361.7,205.7 L 366.3,204.3 L 370.9,202.8 L 375.4,201.3 L 380.0,199.8 L 384.5,198.3 L 389.1,196.8 L 393.6,195.3 L 398.2,193.8 L 402.8,192.2 L 407.3,190.7 L 411.9,189.1 L 416.4,187.4 L 421.0,185.7 L 425.6,184.0 L 430.1,182.3 L 434.7,180.5 L 439.2,178.6 L 443.8,176.7 L 448.3,174.7 L 452.9,172.6 L 457.5,170.4 L 462.0,168.1 L 466.6,165.7 L 471.1,163.1 L 475.7,160.5 L 480.3,157.6 L 484.8,154.5 L 489.4,151.3 L 493.9,147.7 L 498.5,143.9 L 503.0,139.8 L 507.6,135.4 L 512.2,130.6 L 516.7,125.4 L 521.3,119.7 L 525.8,113.7 L 530.4,107.4 L 535.0,101.1 L 539.5,95.0 L 544.1,89.5 L 548.6,85.2 L 553.2,82.5 L 557.7,81.7 L 562.3,82.9 L 566.9,86.0 L 571.4,90.9 L 576.0,97.1 L 580.5,104.3 L 585.1,112.2 L 589.6,120.2 L 594.2,128.3 L 598.8,136.1 L 603.3,143.6 L 607.9,150.5 L 612.4,157.1 L 617.0,163.1" class="fw"/>
<line x1="132.05" y1="275.45" x2="132.05" y2="307.19" class="err"/>
<line x1="129.05" y1="275.45" x2="135.05" y2="275.45" class="err"/>
<line x1="129.05" y1="307.19" x2="135.05" y2="307.19" class="err"/>
<circle cx="132.05" cy="291.32" r="2.5" class="obs"/>
<line x1="194.11" y1="244.93" x2="194.11" y2="276.67" class="err"/>
<line x1="191.11" y1="244.93" x2="197.11" y2="244.93" class="err"/>
<line x1="191.11" y1="276.67" x2="197.11" y2="276.67" class="err"/>
<circle cx="194.11" cy="260.80" r="2.5" class="obs"/>
<line x1="257.40" y1="226.18" x2="257.40" y2="257.92" class="err"/>
<line x1="254.40" y1="226.18" x2="260.40" y2="226.18" class="err"/>
<line x1="254.40" y1="257.92" x2="260.40" y2="257.92" class="err"/>
<circle cx="257.40" cy="242.05" r="2.5" class="obs"/>
<line x1="319.46" y1="205.26" x2="319.46" y2="237.00" class="err"/>
<line x1="316.46" y1="205.26" x2="322.46" y2="205.26" class="err"/>
<line x1="316.46" y1="237.00" x2="322.46" y2="237.00" class="err"/>
<circle cx="319.46" cy="221.13" r="2.5" class="obs"/>
<line x1="382.75" y1="178.66" x2="382.75" y2="210.40" class="err"/>
<line x1="379.75" y1="178.66" x2="385.75" y2="178.66" class="err"/>
<line x1="379.75" y1="210.40" x2="385.75" y2="210.40" class="err"/>
<circle cx="382.75" cy="194.53" r="2.5" class="obs"/>
<line x1="444.81" y1="158.17" x2="444.81" y2="189.91" class="err"/>
<line x1="441.81" y1="158.17" x2="447.81" y2="158.17" class="err"/>
<line x1="441.81" y1="189.91" x2="447.81" y2="189.91" class="err"/>
<circle cx="444.81" cy="174.04" r="2.5" class="obs"/>
<line x1="506.86" y1="117.62" x2="506.86" y2="149.36" class="err"/>
<line x1="503.86" y1="117.62" x2="509.86" y2="117.62" class="err"/>
<line x1="503.86" y1="149.36" x2="509.86" y2="149.36" class="err"/>
<circle cx="506.86" cy="133.49" r="2.5" class="obs"/>
<line x1="570.15" y1="83.18" x2="570.15" y2="114.92" class="err"/>
<line x1="567.15" y1="83.18" x2="573.15" y2="83.18" class="err"/>
<line x1="567.15" y1="114.92" x2="573.15" y2="114.92" class="err"/>
<circle cx="570.15" cy="99.05" r="2.5" class="obs"/>
<g class="legend">
<line x1="82" y1="69" x2="106" y2="69" class="fw"/>
<text x="112" y="73" class="lbl-l">framework fit</text>
<line x1="82" y1="87" x2="106" y2="87" class="nt"/>
<text x="112" y="91" class="lbl-l">Newtonian (no halo)</text>
<circle cx="94" cy="105" r="2.5" class="obs"/>
<text x="112" y="109" class="lbl">observed V±err</text>
</g>
<g class="legend">
<line x1="442" y1="69" x2="466" y2="69" class="rho"/>
<text x="472" y="73" class="lbl-r">ρ(r) raw</text>
<line x1="442" y1="87" x2="466" y2="87" class="sig"/>
<text x="472" y="91" class="lbl-s">Σ(r) cumulative</text>
<text x="442" y="113" class="lbl-r">ρ peak: 91 M☉/pc²</text>
</g>
<rect x="705" y="55" width="170" height="170" class="preview-bg"/>
<defs><radialGradient id="g_UGC02455" cx="0.5" cy="0.5" r="0.5">
  <stop offset="0.0000" stop-color="rgb(174,43.5,43.5)"/>
  <stop offset="0.0313" stop-color="rgb(154,38.5,38.5)"/>
  <stop offset="0.0625" stop-color="rgb(135,33.75,33.75)"/>
  <stop offset="0.0938" stop-color="rgb(133,33.25,33.25)"/>
  <stop offset="0.1250" stop-color="rgb(132,33,33)"/>
  <stop offset="0.1563" stop-color="rgb(130,32.5,32.5)"/>
  <stop offset="0.1875" stop-color="rgb(129,32.25,32.25)"/>
  <stop offset="0.2188" stop-color="rgb(127,31.75,31.75)"/>
  <stop offset="0.2500" stop-color="rgb(126,31.5,31.5)"/>
  <stop offset="0.2813" stop-color="rgb(125,31.25,31.25)"/>
  <stop offset="0.3125" stop-color="rgb(124,31,31)"/>
  <stop offset="0.3438" stop-color="rgb(123,30.75,30.75)"/>
  <stop offset="0.3750" stop-color="rgb(122,30.5,30.5)"/>
  <stop offset="0.4063" stop-color="rgb(121,30.25,30.25)"/>
  <stop offset="0.4375" stop-color="rgb(120,30,30)"/>
  <stop offset="0.4688" stop-color="rgb(119,29.75,29.75)"/>
  <stop offset="0.5000" stop-color="rgb(118,29.5,29.5)"/>
  <stop offset="0.5313" stop-color="rgb(117,29.25,29.25)"/>
  <stop offset="0.5625" stop-color="rgb(116,29,29)"/>
  <stop offset="0.5938" stop-color="rgb(115,28.75,28.75)"/>
  <stop offset="0.6250" stop-color="rgb(114,28.5,28.5)"/>
  <stop offset="0.6563" stop-color="rgb(113,28.25,28.25)"/>
  <stop offset="0.6875" stop-color="rgb(112,28,28)"/>
  <stop offset="0.7188" stop-color="rgb(111,27.75,27.75)"/>
  <stop offset="0.7500" stop-color="rgb(110,27.5,27.5)"/>
  <stop offset="0.7813" stop-color="rgb(109,27.25,27.25)"/>
  <stop offset="0.8125" stop-color="rgb(108,27,27)"/>
  <stop offset="0.8438" stop-color="rgb(107,26.75,26.75)"/>
  <stop offset="0.8750" stop-color="rgb(106,26.5,26.5)"/>
  <stop offset="0.9063" stop-color="rgb(106,26.5,26.5)"/>
  <stop offset="0.9375" stop-color="rgb(90,22.5,22.5)"/>
  <stop offset="0.9688" stop-color="rgb(70,17.5,17.5)"/>
  <stop offset="1.0000" stop-color="rgb(0,0,0)"/>
</radialGradient></defs>
<circle cx="790" cy="140" r="81" fill="url(#g_UGC02455)"/>
<text x="790" y="49" text-anchor="middle" class="preview-lbl">face-on luminance from ρ(r)</text>
<text x="790" y="239" text-anchor="middle" class="preview-lbl">edge at r = 4.2 kpc</text>
</svg>