<svg xmlns="http://www.w3.org/2000/svg" viewBox="0 0 960 450" width="960" height="450" font-family="sans-serif" font-size="12">
<style>
  .ax { stroke: #333; stroke-width: 1; fill: none; }
  .grid { stroke: #ddd; stroke-width: 0.5; fill: none; }
  .lbl { fill: #333; }
  .lbl-l { fill: #0066cc; }
  .lbl-r { fill: #b03030; }
  .obs { fill: #222; }
  .err { stroke: #555; stroke-width: 0.8; fill: none; }
  .fw { stroke: #0066cc; stroke-width: 2.2; fill: none; }
  .nt { stroke: #cc6600; stroke-width: 1.6; fill: none; stroke-dasharray: 5,3; }
  .mond { stroke: #7b2cbf; stroke-width: 1.8; fill: none; stroke-dasharray: 7,3; }
  .lbl-p { fill: #cc7000; }
  .lbl-m { fill: #7b2cbf; }
  .rho { stroke: #b03030; stroke-width: 2.0; fill: none; }
  .phot { stroke: #cc7000; stroke-width: 1.8; fill: none; }
  .mbar { stroke: #8e44ad; stroke-width: 1.8; fill: none; opacity: 0.9; }
  .mph { stroke: #c77dff; stroke-width: 1.6; fill: none; stroke-dasharray: 4,3; opacity: 0.95; }
  .title { fill: #111; font-size: 16px; font-weight: 600; }
  .subtitle { fill: #555; font-size: 11px; }
  .preview-bg { fill: #000; }
  .preview-lbl { fill: #888; font-size: 10px; }
  .legend { font-size: 11px; }
</style>
<text x="378.5" y="22" text-anchor="middle" class="title">UGC06930</text>
<text x="378.5" y="38" text-anchor="middle" class="subtitle">rMax=16.6 kpc, N=10, FW=0.9 km/s, 0.9%, 0.13σ, MOND=10.5 km/s, 10.5%, 1.59σ, amp=104</text>
<line x1="70" y1="395.0" x2="687" y2="395.0" class="grid"/>
<text x="64" y="399.0" text-anchor="end" class="lbl-l">0</text>
<line x1="70" y1="327.0" x2="687" y2="327.0" class="grid"/>
<text x="64" y="331.0" text-anchor="end" class="lbl-l">27</text>
<line x1="70" y1="259.0" x2="687" y2="259.0" class="grid"/>
<text x="64" y="263.0" text-anchor="end" class="lbl-l">55</text>
<line x1="70" y1="191.0" x2="687" y2="191.0" class="grid"/>
<text x="64" y="195.0" text-anchor="end" class="lbl-l">82</text>
<line x1="70" y1="123.0" x2="687" y2="123.0" class="grid"/>
<text x="64" y="127.0" text-anchor="end" class="lbl-l">110</text>
<line x1="70" y1="55.0" x2="687" y2="55.0" class="grid"/>
<text x="64" y="59.0" text-anchor="end" class="lbl-l">137</text>
<text x="693" y="399.0" text-anchor="start" class="lbl-r">0.0</text>
<text x="693" y="353.7" text-anchor="start" class="lbl-r">0.2</text>
<text x="693" y="308.3" text-anchor="start" class="lbl-r">0.4</text>
<text x="693" y="263.0" text-anchor="start" class="lbl-r">0.6</text>
<text x="693" y="217.7" text-anchor="start" class="lbl-r">0.8</text>
<text x="693" y="172.3" text-anchor="start" class="lbl-r">1.0</text>
<line x1="70.0" y1="55" x2="70.0" y2="395" class="grid"/>
<text x="70.0" y="411" text-anchor="middle" class="lbl">0.0</text>
<line x1="172.8" y1="55" x2="172.8" y2="395" class="grid"/>
<text x="172.8" y="411" text-anchor="middle" class="lbl">2.9</text>
<line x1="275.7" y1="55" x2="275.7" y2="395" class="grid"/>
<text x="275.7" y="411" text-anchor="middle" class="lbl">5.8</text>
<line x1="378.5" y1="55" x2="378.5" y2="395" class="grid"/>
<text x="378.5" y="411" text-anchor="middle" class="lbl">8.7</text>
<line x1="481.3" y1="55" x2="481.3" y2="395" class="grid"/>
<text x="481.3" y="411" text-anchor="middle" class="lbl">11.6</text>
<line x1="584.2" y1="55" x2="584.2" y2="395" class="grid"/>
<text x="584.2" y="411" text-anchor="middle" class="lbl">14.5</text>
<line x1="687.0" y1="55" x2="687.0" y2="395" class="grid"/>
<text x="687.0" y="411" text-anchor="middle" class="lbl">17.4</text>
<text x="378.5" y="438" text-anchor="middle" class="lbl">radius (kpc)</text>
<text x="16" y="225" text-anchor="middle" class="lbl-l" transform="rotate(-90, 16, 225)">velocity (km/s)</text>
<text x="724" y="225" text-anchor="middle" class="lbl-r" transform="rotate(-90, 724, 225)">profiles (normalized to peak)</text>
<rect x="70" y="55" width="617" height="340" class="ax"/>
<path d="M 70.0,168.3 L 72.8,174.4 L 75.6,180.5 L 78.5,186.7 L 81.3,192.8 L 84.1,197.7 L 86.9,199.1 L 89.7,200.6 L 92.5,202.1 L 95.4,203.6 L 98.2,205.0 L 101.0,206.5 L 103.8,208.0 L 106.6,209.5 L 109.4,211.0 L 112.3,212.4 L 115.1,213.9 L 117.9,215.4 L 120.7,216.9 L 123.5,218.4 L 126.3,219.8 L 129.2,221.3 L 132.0,222.8 L 134.8,224.3 L 137.6,225.8 L 140.4,227.2 L 143.3,228.7 L 146.1,230.2 L 148.9,231.7 L 151.7,233.2 L 154.5,234.6 L 157.3,236.1 L 160.2,237.6 L 163.0,239.1 L 165.8,240.6 L 168.6,242.0 L 171.4,243.5 L 174.2,245.0 L 177.1,246.5 L 179.9,248.0 L 182.7,249.4 L 185.5,250.9 L 188.3,252.4 L 191.1,253.9 L 194.0,255.4 L 196.8,256.8 L 199.6,258.3 L 202.4,259.8 L 205.2,261.3 L 208.1,262.7 L 210.9,264.2 L 213.7,265.7 L 216.5,267.2 L 219.3,268.7 L 222.1,270.1 L 225.0,272.0 L 227.8,274.0 L 230.6,276.0 L 233.4,277.9 L 236.2,278.3 L 239.0,278.8 L 241.9,279.3 L 244.7,279.7 L 247.5,280.2 L 250.3,280.7 L 253.1,281.1 L 255.9,281.6 L 258.8,282.1 L 261.6,282.5 L 264.4,283.0 L 267.2,283.5 L 270.0,284.0 L 272.8,284.4 L 275.7,284.9 L 278.5,285.4 L 281.3,285.8 L 284.1,286.3 L 286.9,286.8 L 289.8,287.2 L 292.6,287.7 L 295.4,288.2 L 298.2,288.6 L 301.0,289.1 L 303.8,289.6 L 306.7,290.1 L 309.5,290.5 L 312.3,291.0 L 315.1,291.5 L 317.9,291.9 L 320.7,292.4 L 323.6,292.9 L 326.4,293.3 L 329.2,293.8 L 332.0,294.3 L 334.8,294.7 L 337.6,295.2 L 340.5,295.7 L 343.3,296.2 L 346.1,296.6 L 348.9,297.1 L 351.7,297.6 L 354.6,298.0 L 357.4,298.5 L 360.2,299.0 L 363.0,299.4 L 365.8,299.9 L 368.6,300.4 L 371.5,300.8 L 374.3,301.3 L 377.1,301.8 L 379.9,302.3 L 382.7,302.7 L 385.5,303.2 L 388.4,303.7 L 391.2,304.1 L 394.0,304.6 L 396.8,305.1 L 399.6,305.5 L 402.4,306.0 L 405.3,306.5 L 408.1,306.9 L 410.9,307.4 L 413.7,307.9 L 416.5,308.3 L 419.4,308.8 L 422.2,309.3 L 425.0,309.8 L 427.8,310.2 L 430.6,310.7 L 433.4,311.2 L 436.3,311.6 L 439.1,312.1 L 441.9,312.6 L 444.7,313.0 L 447.5,313.5 L 450.3,314.0 L 453.2,314.4 L 456.0,314.9 L 458.8,315.4 L 461.6,315.9 L 464.4,316.3 L 467.2,316.8 L 470.1,317.3 L 472.9,317.7 L 475.7,318.2 L 478.5,318.7 L 481.3,319.1 L 484.2,319.6 L 487.0,320.1 L 489.8,320.5 L 492.6,321.0 L 495.4,321.5 L 498.2,322.0 L 501.1,322.4 L 503.9,322.9 L 506.7,323.4 L 509.5,323.8 L 512.3,324.3 L 515.1,324.8 L 518.0,325.2 L 520.8,325.7 L 523.6,326.2 L 526.4,326.6 L 529.2,327.1 L 532.0,327.6 L 534.9,328.1 L 537.7,328.5 L 540.5,329.0 L 543.3,329.5 L 546.1,329.9 L 548.9,330.4 L 551.8,330.9 L 554.6,331.3 L 557.4,331.8 L 560.2,332.3 L 563.0,332.7 L 565.9,333.2 L 568.7,333.7 L 571.5,334.1 L 574.3,334.6 L 577.1,335.1 L 579.9,335.6 L 582.8,336.0 L 585.6,336.5 L 588.4,337.0 L 591.2,337.4 L 594.0,337.9 L 596.8,338.4 L 599.7,338.8 L 602.5,339.3 L 605.3,339.8 L 608.1,340.2 L 610.9,340.7 L 613.7,341.2 L 616.6,341.7 L 619.4,342.1 L 622.2,342.6 L 625.0,343.1 L 627.8,343.5 L 630.7,344.0 L 633.5,344.5 L 636.3,344.9 L 639.1,345.4 L 641.9,345.9 L 644.7,346.3 L 647.6,346.8 L 650.4,347.3 L 653.2,359.2 L 656.0,382.0 L 658.8,395.0 L 661.6,395.0 L 664.5,395.0 L 667.3,395.0 L 670.1,395.0 L 672.9,395.0 L 675.7,395.0 L 678.5,395.0 L 681.4,395.0 L 684.2,395.0 L 687.0,395.0" class="rho"/>
<path d="M 131.6,168.3 L 193.8,290.3 L 255.4,331.0 L 316.9,348.9 L 378.5,367.0 L 440.4,379.5 L 501.3,388.2 L 563.2,392.8 L 624.7,395.0 L 657.6,395.0" class="phot"/>
<path d="M 131.6,168.3 L 193.8,232.1 L 255.4,272.8 L 316.9,285.4 L 378.5,299.4 L 440.4,312.3 L 501.3,329.0 L 563.2,358.2 L 624.7,385.5 L 657.6,395.0" class="mbar"/>
<path d="M 131.6,168.3 L 193.8,195.8 L 255.4,215.5 L 316.9,224.1 L 378.5,233.4 L 440.4,242.5 L 501.3,255.4 L 563.2,281.6 L 624.7,310.6 L 657.6,323.5" class="mph"/>
<path d="M 76.2,346.6 L 82.3,328.0 L 88.5,314.3 L 94.7,302.7 L 100.8,292.6 L 107.0,283.5 L 113.2,275.4 L 119.4,267.9 L 125.5,261.0 L 131.7,254.6 L 137.9,248.7 L 144.0,243.1 L 150.2,237.8 L 156.4,232.9 L 162.6,228.3 L 168.7,223.9 L 174.9,219.8 L 181.1,215.9 L 187.2,212.2 L 193.4,208.7 L 199.6,205.3 L 205.7,202.2 L 211.9,199.2 L 218.1,196.4 L 224.3,193.8 L 230.4,191.3 L 236.6,189.0 L 242.8,186.8 L 248.9,184.5 L 255.1,182.3 L 261.3,180.1 L 267.4,178.0 L 273.6,175.9 L 279.8,173.8 L 286.0,171.8 L 292.1,169.8 L 298.3,167.8 L 304.5,165.8 L 310.6,163.9 L 316.8,162.1 L 323.0,160.2 L 329.1,158.4 L 335.3,156.7 L 341.5,155.0 L 347.7,153.3 L 353.8,151.6 L 360.0,150.0 L 366.2,148.4 L 372.3,146.8 L 378.5,145.3 L 384.7,143.8 L 390.8,142.4 L 397.0,141.0 L 403.2,139.6 L 409.3,138.2 L 415.5,136.9 L 421.7,135.6 L 427.9,134.3 L 434.0,133.1 L 440.2,131.9 L 446.4,130.7 L 452.5,129.6 L 458.7,128.5 L 464.9,127.4 L 471.0,126.4 L 477.2,125.3 L 483.4,124.3 L 489.6,123.4 L 495.7,122.4 L 501.9,121.5 L 508.1,120.7 L 514.2,119.8 L 520.4,119.0 L 526.6,118.2 L 532.8,117.4 L 538.9,116.7 L 545.1,116.0 L 551.3,115.3 L 557.4,114.6 L 563.6,114.0 L 569.8,113.4 L 575.9,112.8 L 582.1,112.3 L 588.3,111.7 L 594.5,111.2 L 600.6,110.7 L 606.8,110.3 L 613.0,109.9 L 619.1,109.5 L 625.3,109.1 L 631.5,108.7 L 637.6,108.4 L 643.8,108.1 L 650.0,107.9 L 656.1,108.1 L 662.3,109.5 L 668.5,110.9 L 674.7,112.4 L 680.8,113.9 L 687.0,115.3" class="nt"/>
<path d="M 131.6,243.3 L 193.8,205.4 L 255.4,174.8 L 316.9,147.1 L 378.5,126.3 L 440.4,108.0 L 501.3,93.0 L 563.2,85.9 L 624.7,89.9 L 657.6,91.3" class="mond"/>
<path d="M 75.1,378.9 L 80.3,366.9 L 85.4,353.9 L 90.6,341.2 L 95.7,329.0 L 100.8,317.5 L 106.0,306.4 L 111.1,295.8 L 116.3,285.6 L 121.4,275.9 L 126.6,266.6 L 131.7,257.6 L 136.8,249.1 L 142.0,241.0 L 147.1,233.2 L 152.3,225.9 L 157.4,218.9 L 162.6,212.3 L 167.7,206.1 L 172.8,200.3 L 178.0,194.8 L 183.1,189.7 L 188.3,185.1 L 193.4,180.7 L 198.5,176.9 L 203.7,173.4 L 208.8,170.3 L 214.0,167.7 L 219.1,165.5 L 224.3,163.8 L 229.4,162.6 L 234.5,161.6 L 239.7,161.0 L 244.8,160.4 L 250.0,159.9 L 255.1,159.4 L 260.2,158.9 L 265.4,158.2 L 270.5,157.5 L 275.7,156.7 L 280.8,155.8 L 285.9,154.9 L 291.1,153.9 L 296.2,152.9 L 301.4,151.8 L 306.5,150.8 L 311.7,149.7 L 316.8,148.6 L 321.9,147.6 L 327.1,146.5 L 332.2,145.4 L 337.4,144.4 L 342.5,143.3 L 347.7,142.3 L 352.8,141.3 L 357.9,140.3 L 363.1,139.3 L 368.2,138.4 L 373.4,137.5 L 378.5,136.6 L 383.6,135.7 L 388.8,134.9 L 393.9,134.1 L 399.1,133.3 L 404.2,132.6 L 409.4,131.9 L 414.5,131.2 L 419.6,130.6 L 424.8,130.0 L 429.9,129.5 L 435.1,128.9 L 440.2,128.5 L 445.3,128.0 L 450.5,127.6 L 455.6,127.2 L 460.8,126.9 L 465.9,126.6 L 471.0,126.3 L 476.2,126.1 L 481.3,125.8 L 486.5,125.7 L 491.6,125.5 L 496.8,125.4 L 501.9,125.3 L 507.0,125.3 L 512.2,125.2 L 517.3,125.2 L 522.5,125.3 L 527.6,125.3 L 532.8,125.4 L 537.9,125.4 L 543.0,125.5 L 548.2,125.6 L 553.3,125.7 L 558.5,125.8 L 563.6,125.9 L 568.7,125.9 L 573.9,126.0 L 579.0,126.0 L 584.2,125.9 L 589.3,125.8 L 594.4,125.7 L 599.6,125.4 L 604.7,125.0 L 609.9,124.6 L 615.0,123.9 L 620.2,123.2 L 625.3,122.4 L 630.4,121.6 L 635.6,120.9 L 640.7,120.6 L 645.9,121.0 L 651.0,122.5 L 656.1,125.0 L 661.3,128.7 L 666.4,133.4 L 671.6,138.7 L 676.7,144.4 L 681.9,150.1 L 687.0,155.7" class="fw"/>
<line x1="131.56" y1="238.56" x2="131.56" y2="279.78" class="err"/>
<line x1="128.56" y1="238.56" x2="134.56" y2="238.56" class="err"/>
<line x1="128.56" y1="279.78" x2="134.56" y2="279.78" class="err"/>
<circle cx="131.56" cy="259.17" r="2.5" class="obs"/>
<line x1="193.82" y1="165.56" x2="193.82" y2="200.32" class="err"/>
<line x1="190.82" y1="165.56" x2="196.82" y2="165.56" class="err"/>
<line x1="190.82" y1="200.32" x2="196.82" y2="200.32" class="err"/>
<circle cx="193.82" cy="182.94" r="2.5" class="obs"/>
<line x1="255.38" y1="146.68" x2="255.38" y2="177.47" class="err"/>
<line x1="252.38" y1="146.68" x2="258.38" y2="146.68" class="err"/>
<line x1="252.38" y1="177.47" x2="258.38" y2="177.47" class="err"/>
<circle cx="255.38" cy="162.08" r="2.5" class="obs"/>
<line x1="316.93" y1="137.00" x2="316.93" y2="162.82" class="err"/>
<line x1="313.93" y1="137.00" x2="319.93" y2="137.00" class="err"/>
<line x1="313.93" y1="162.82" x2="319.93" y2="162.82" class="err"/>
<circle cx="316.93" cy="149.91" r="2.5" class="obs"/>
<line x1="378.49" y1="126.32" x2="378.49" y2="152.15" class="err"/>
<line x1="375.49" y1="126.32" x2="381.49" y2="126.32" class="err"/>
<line x1="375.49" y1="152.15" x2="381.49" y2="152.15" class="err"/>
<circle cx="378.49" cy="139.23" r="2.5" class="obs"/>
<line x1="440.40" y1="116.39" x2="440.40" y2="142.21" class="err"/>
<line x1="437.40" y1="116.39" x2="443.40" y2="116.39" class="err"/>
<line x1="437.40" y1="142.21" x2="443.40" y2="142.21" class="err"/>
<circle cx="440.40" cy="129.30" r="2.5" class="obs"/>
<line x1="501.25" y1="111.42" x2="501.25" y2="137.25" class="err"/>
<line x1="498.25" y1="111.42" x2="504.25" y2="111.42" class="err"/>
<line x1="498.25" y1="137.25" x2="504.25" y2="137.25" class="err"/>
<circle cx="501.25" cy="124.34" r="2.5" class="obs"/>
<line x1="563.16" y1="108.44" x2="563.16" y2="145.19" class="err"/>
<line x1="560.16" y1="108.44" x2="566.16" y2="108.44" class="err"/>
<line x1="560.16" y1="145.19" x2="566.16" y2="145.19" class="err"/>
<circle cx="563.16" cy="126.82" r="2.5" class="obs"/>
<line x1="624.72" y1="108.44" x2="624.72" y2="145.19" class="err"/>
<line x1="621.72" y1="108.44" x2="627.72" y2="108.44" class="err"/>
<line x1="621.72" y1="145.19" x2="627.72" y2="145.19" class="err"/>
<circle cx="624.72" cy="126.82" r="2.5" class="obs"/>
<line x1="657.62" y1="108.44" x2="657.62" y2="145.19" class="err"/>
<line x1="654.62" y1="108.44" x2="660.62" y2="108.44" class="err"/>
<line x1="654.62" y1="145.19" x2="660.62" y2="145.19" class="err"/>
<circle cx="657.62" cy="126.82" r="2.5" class="obs"/>
<g class="legend">
<line x1="82" y1="69" x2="106" y2="69" class="fw"/>
<text x="112" y="73" class="lbl-l">framework: 0.9 km/s, 0.9%, 0.13σ</text>
<line x1="82" y1="87" x2="106" y2="87" class="nt"/>
<text x="112" y="91" class="lbl-l">Newtonian: 5.8 km/s, 6.1%, 0.87σ</text>
<line x1="82" y1="105" x2="106" y2="105" class="mond"/>
<text x="112" y="109" class="lbl-m">MOND/RAR: 10.5 km/s, 10.5%, 1.59σ</text>
<circle cx="94" cy="123" r="2.5" class="obs"/>
<text x="112" y="127" class="lbl">observed V±err</text>
</g>
<g class="legend">
<line x1="472" y1="69" x2="496" y2="69" class="rho"/>
<text x="502" y="73" class="lbl-r">ρ(r) raw</text>
<line x1="472" y1="87" x2="496" y2="87" class="phot"/>
<text x="502" y="91" class="lbl-p">photometric baryonic profile</text>
<line x1="472" y1="105" x2="496" y2="105" class="mbar"/>
<text x="502" y="109" class="lbl-m">MOND baryonic annulus</text>
<line x1="472" y1="123" x2="496" y2="123" class="mph"/>
<text x="502" y="127" class="lbl-m">MOND phantom annulus</text>
<text x="472" y="147" class="lbl-r">ρ peak: 168 M☉/pc²</text>
<text x="472" y="163" class="lbl-p">phot peak: 44.22 (arb.)</text>
<text x="472" y="179" class="lbl-m">Σbar peak: 52.14 M☉/pc²</text>
<text x="472" y="195" class="lbl-m">Σphantom peak: 94.83 M☉/pc²</text>
</g>
<rect x="775" y="55" width="170" height="170" class="preview-bg"/>
<defs><radialGradient id="g_UGC06930" cx="0.5" cy="0.5" r="0.5">
  <stop offset="0.0000" stop-color="rgb(82,82,82)"/>
  <stop offset="0.0313" stop-color="rgb(76,76,76)"/>
  <stop offset="0.0625" stop-color="rgb(74,74,74)"/>
  <stop offset="0.0938" stop-color="rgb(72,72,72)"/>
  <stop offset="0.1250" stop-color="rgb(70,70,70)"/>
  <stop offset="0.1563" stop-color="rgb(68,68,68)"/>
  <stop offset="0.1875" stop-color="rgb(66,66,66)"/>
  <stop offset="0.2188" stop-color="rgb(64,64,64)"/>
  <stop offset="0.2500" stop-color="rgb(60,60,60)"/>
  <stop offset="0.2813" stop-color="rgb(55,55,55)"/>
  <stop offset="0.3125" stop-color="rgb(54,54,54)"/>
  <stop offset="0.3438" stop-color="rgb(52,52,52)"/>
  <stop offset="0.3750" stop-color="rgb(51,51,51)"/>
  <stop offset="0.4063" stop-color="rgb(49,49,49)"/>
  <stop offset="0.4375" stop-color="rgb(48,48,48)"/>
  <stop offset="0.4688" stop-color="rgb(46,46,46)"/>
  <stop offset="0.5000" stop-color="rgb(45,45,45)"/>
  <stop offset="0.5313" stop-color="rgb(44,44,44)"/>
  <stop offset="0.5625" stop-color="rgb(42,42,42)"/>
  <stop offset="0.5938" stop-color="rgb(41,41,41)"/>
  <stop offset="0.6250" stop-color="rgb(39,39,39)"/>
  <stop offset="0.6563" stop-color="rgb(38,38,38)"/>
  <stop offset="0.6875" stop-color="rgb(36,36,36)"/>
  <stop offset="0.7188" stop-color="rgb(35,35,35)"/>
  <stop offset="0.7500" stop-color="rgb(33,33,33)"/>
  <stop offset="0.7813" stop-color="rgb(32,32,32)"/>
  <stop offset="0.8125" stop-color="rgb(31,31,31)"/>
  <stop offset="0.8438" stop-color="rgb(29,29,29)"/>
  <stop offset="0.8750" stop-color="rgb(28,28,28)"/>
  <stop offset="0.9063" stop-color="rgb(26,26,26)"/>
  <stop offset="0.9375" stop-color="rgb(25,25,25)"/>
  <stop offset="0.9688" stop-color="rgb(23,23,23)"/>
  <stop offset="1.0000" stop-color="rgb(0,0,0)"/>
</radialGradient></defs>
<circle cx="860" cy="140" r="81" fill="url(#g_UGC06930)"/>
<text x="860" y="49" text-anchor="middle" class="preview-lbl">face-on luminance from ρ(r)</text>
<text x="860" y="239" text-anchor="middle" class="preview-lbl">edge at r = 16.6 kpc</text>
</svg>