<svg xmlns="http://www.w3.org/2000/svg" viewBox="0 0 720 420" width="720" height="420" font-family="sans-serif" font-size="12">
<style>
  .ax { stroke: #333; stroke-width: 1; fill: none; }
  .grid { stroke: #ddd; stroke-width: 0.5; fill: none; }
  .lbl { fill: #333; }
  .lbl-l { fill: #0066cc; }
  .lbl-r { fill: #b03030; }
  .obs { fill: #222; }
  .err { stroke: #555; stroke-width: 0.8; fill: none; }
  .fw { stroke: #0066cc; stroke-width: 2.2; fill: none; }
  .nt { stroke: #cc6600; stroke-width: 1.6; fill: none; stroke-dasharray: 5,3; }
  .rho { stroke: #b03030; stroke-width: 2.0; fill: none; }
  .sig { stroke: #b03030; stroke-width: 1.6; fill: none; stroke-dasharray: 4,2; opacity: 0.85; }
  .title { fill: #111; font-size: 16px; font-weight: 600; }
  .subtitle { fill: #555; font-size: 11px; }
  .legend { font-size: 11px; }
</style>
<text x="360.0" y="22" text-anchor="middle" class="title">UGC07399</text>
<text x="360.0" y="38" text-anchor="middle" class="subtitle">rMax=6.1 kpc, N=10, RMS=1.1 km/s (1.2%), amp=103</text>
<line x1="70" y1="365.0" x2="635" y2="365.0" class="grid"/>
<text x="64" y="369.0" text-anchor="end" class="lbl-l">0</text>
<line x1="70" y1="303.0" x2="635" y2="303.0" class="grid"/>
<text x="64" y="307.0" text-anchor="end" class="lbl-l">24</text>
<line x1="70" y1="241.0" x2="635" y2="241.0" class="grid"/>
<text x="64" y="245.0" text-anchor="end" class="lbl-l">49</text>
<line x1="70" y1="179.0" x2="635" y2="179.0" class="grid"/>
<text x="64" y="183.0" text-anchor="end" class="lbl-l">73</text>
<line x1="70" y1="116.99999999999999" x2="635" y2="116.99999999999999" class="grid"/>
<text x="64" y="120.99999999999999" text-anchor="end" class="lbl-l">98</text>
<line x1="70" y1="55.0" x2="635" y2="55.0" class="grid"/>
<text x="64" y="59.0" text-anchor="end" class="lbl-l">122</text>
<text x="641" y="369.0" text-anchor="start" class="lbl-r">0.0</text>
<text x="641" y="327.6666666666667" text-anchor="start" class="lbl-r">0.2</text>
<text x="641" y="286.33333333333337" text-anchor="start" class="lbl-r">0.4</text>
<text x="641" y="245.00000000000003" text-anchor="start" class="lbl-r">0.6</text>
<text x="641" y="203.66666666666666" text-anchor="start" class="lbl-r">0.8</text>
<text x="641" y="162.33333333333334" text-anchor="start" class="lbl-r">1.0</text>
<line x1="70.0" y1="55" x2="70.0" y2="365" class="grid"/>
<text x="70.0" y="381" text-anchor="middle" class="lbl">0.0</text>
<line x1="164.16666666666669" y1="55" x2="164.16666666666669" y2="365" class="grid"/>
<text x="164.16666666666669" y="381" text-anchor="middle" class="lbl">1.1</text>
<line x1="258.33333333333337" y1="55" x2="258.33333333333337" y2="365" class="grid"/>
<text x="258.33333333333337" y="381" text-anchor="middle" class="lbl">2.2</text>
<line x1="352.5" y1="55" x2="352.5" y2="365" class="grid"/>
<text x="352.5" y="381" text-anchor="middle" class="lbl">3.3</text>
<line x1="446.6666666666667" y1="55" x2="446.6666666666667" y2="365" class="grid"/>
<text x="446.6666666666667" y="381" text-anchor="middle" class="lbl">4.3</text>
<line x1="540.8333333333334" y1="55" x2="540.8333333333334" y2="365" class="grid"/>
<text x="540.8333333333334" y="381" text-anchor="middle" class="lbl">5.4</text>
<line x1="635.0" y1="55" x2="635.0" y2="365" class="grid"/>
<text x="635.0" y="381" text-anchor="middle" class="lbl">6.5</text>
<text x="352.5" y="408" text-anchor="middle" class="lbl">radius (kpc)</text>
<text x="16" y="210.0" text-anchor="middle" class="lbl-l" transform="rotate(-90, 16, 210.0)">velocity (km/s)</text>
<text x="704" y="210.0" text-anchor="middle" class="lbl-r" transform="rotate(-90, 704, 210.0)">mass profile (normalized to peak)</text>
<rect x="70" y="55" width="565" height="310" class="ax"/>
<path d="M 70.0,158.3 L 72.6,161.7 L 75.2,165.1 L 77.7,168.5 L 80.3,171.8 L 82.9,175.2 L 85.5,178.6 L 88.1,182.0 L 90.6,186.4 L 93.2,191.3 L 95.8,196.3 L 98.4,201.2 L 101.0,206.1 L 103.5,211.0 L 106.1,215.9 L 108.7,218.3 L 111.3,219.1 L 113.9,220.0 L 116.4,220.9 L 119.0,221.7 L 121.6,222.6 L 124.2,223.5 L 126.8,224.3 L 129.3,225.2 L 131.9,226.1 L 134.5,226.9 L 137.1,227.8 L 139.7,228.7 L 142.2,229.5 L 144.8,230.4 L 147.4,231.3 L 150.0,232.1 L 152.6,233.0 L 155.1,233.9 L 157.7,234.8 L 160.3,235.6 L 162.9,236.5 L 165.5,237.4 L 168.0,238.2 L 170.6,239.1 L 173.2,240.0 L 175.8,240.8 L 178.4,241.7 L 180.9,242.6 L 183.5,243.4 L 186.1,244.3 L 188.7,245.2 L 191.3,246.0 L 193.8,246.9 L 196.4,247.8 L 199.0,248.6 L 201.6,249.5 L 204.2,250.4 L 206.7,251.2 L 209.3,252.1 L 211.9,253.0 L 214.5,253.8 L 217.1,254.7 L 219.6,255.6 L 222.2,256.4 L 224.8,257.3 L 227.4,258.2 L 230.0,259.0 L 232.5,259.9 L 235.1,260.8 L 237.7,261.6 L 240.3,262.5 L 242.9,263.4 L 245.4,264.2 L 248.0,265.1 L 250.6,266.0 L 253.2,266.8 L 255.8,267.7 L 258.3,268.6 L 260.9,269.4 L 263.5,269.8 L 266.1,270.2 L 268.7,270.5 L 271.2,270.9 L 273.8,271.2 L 276.4,271.6 L 279.0,271.9 L 281.6,272.3 L 284.1,272.6 L 286.7,273.0 L 289.3,273.3 L 291.9,273.7 L 294.5,274.0 L 297.0,274.3 L 299.6,274.7 L 302.2,275.0 L 304.8,275.4 L 307.4,275.7 L 309.9,276.1 L 312.5,276.4 L 315.1,276.8 L 317.7,277.1 L 320.3,277.5 L 322.8,277.8 L 325.4,278.2 L 328.0,278.5 L 330.6,278.8 L 333.2,279.2 L 335.7,279.5 L 338.3,279.9 L 340.9,280.2 L 343.5,280.6 L 346.1,280.9 L 348.6,281.3 L 351.2,281.6 L 353.8,282.0 L 356.4,282.3 L 358.9,282.7 L 361.5,283.0 L 364.1,283.3 L 366.7,283.7 L 369.3,284.0 L 371.8,284.4 L 374.4,284.7 L 377.0,285.1 L 379.6,285.4 L 382.2,285.8 L 384.7,286.1 L 387.3,286.5 L 389.9,286.8 L 392.5,287.2 L 395.1,287.5 L 397.6,287.8 L 400.2,288.2 L 402.8,288.5 L 405.4,288.9 L 408.0,289.2 L 410.5,289.6 L 413.1,289.9 L 415.7,290.3 L 418.3,290.6 L 420.9,291.0 L 423.4,291.3 L 426.0,291.7 L 428.6,292.0 L 431.2,292.3 L 433.8,292.7 L 436.3,293.0 L 438.9,293.4 L 441.5,293.7 L 444.1,294.1 L 446.7,294.4 L 449.2,294.8 L 451.8,295.1 L 454.4,295.5 L 457.0,295.8 L 459.6,296.2 L 462.1,296.5 L 464.7,296.8 L 467.3,297.2 L 469.9,297.5 L 472.5,297.9 L 475.0,298.2 L 477.6,298.6 L 480.2,298.9 L 482.8,299.3 L 485.4,299.6 L 487.9,300.0 L 490.5,300.3 L 493.1,300.7 L 495.7,301.0 L 498.3,301.3 L 500.8,301.7 L 503.4,302.0 L 506.0,302.4 L 508.6,302.7 L 511.2,303.1 L 513.7,303.4 L 516.3,303.8 L 518.9,304.1 L 521.5,304.5 L 524.1,304.8 L 526.6,305.2 L 529.2,305.5 L 531.8,305.8 L 534.4,306.2 L 537.0,306.5 L 539.5,306.9 L 542.1,307.2 L 544.7,307.6 L 547.3,307.9 L 549.9,308.3 L 552.4,308.6 L 555.0,309.0 L 557.6,309.3 L 560.2,309.7 L 562.8,310.0 L 565.3,310.3 L 567.9,310.7 L 570.5,311.0 L 573.1,311.4 L 575.7,311.7 L 578.2,312.1 L 580.8,312.4 L 583.4,312.8 L 586.0,313.1 L 588.6,313.5 L 591.1,313.8 L 593.7,314.2 L 596.3,314.5 L 598.9,319.8 L 601.5,332.4 L 604.0,345.1 L 606.6,357.8 L 609.2,365.0 L 611.8,365.0 L 614.4,365.0 L 616.9,365.0 L 619.5,365.0 L 622.1,365.0 L 624.7,365.0 L 627.3,365.0 L 629.8,365.0 L 632.4,365.0 L 635.0,365.0" class="rho"/>
<path d="M 70.0,158.3 L 72.6,158.5 L 75.2,158.7 L 77.7,159.0 L 80.3,159.4 L 82.9,159.9 L 85.5,160.5 L 88.1,161.2 L 90.6,162.0 L 93.2,162.8 L 95.8,163.7 L 98.4,164.7 L 101.0,165.7 L 103.5,166.7 L 106.1,167.7 L 108.7,168.8 L 111.3,169.9 L 113.9,170.9 L 116.4,172.0 L 119.0,173.1 L 121.6,174.2 L 124.2,175.3 L 126.8,176.4 L 129.3,177.6 L 131.9,178.7 L 134.5,179.8 L 137.1,181.0 L 139.7,182.1 L 142.2,183.3 L 144.8,184.4 L 147.4,185.6 L 150.0,186.7 L 152.6,187.9 L 155.1,189.1 L 157.7,190.3 L 160.3,191.5 L 162.9,192.7 L 165.5,193.9 L 168.0,195.1 L 170.6,196.3 L 173.2,197.5 L 175.8,198.8 L 178.4,200.0 L 180.9,201.2 L 183.5,202.4 L 186.1,203.7 L 188.7,204.9 L 191.3,206.1 L 193.8,207.4 L 196.4,208.6 L 199.0,209.8 L 201.6,211.1 L 204.2,212.3 L 206.7,213.5 L 209.3,214.8 L 211.9,216.0 L 214.5,217.2 L 217.1,218.4 L 219.6,219.6 L 222.2,220.8 L 224.8,222.0 L 227.4,223.2 L 230.0,224.4 L 232.5,225.6 L 235.1,226.8 L 237.7,227.9 L 240.3,229.1 L 242.9,230.2 L 245.4,231.3 L 248.0,232.5 L 250.6,233.6 L 253.2,234.7 L 255.8,235.8 L 258.3,236.8 L 260.9,237.9 L 263.5,239.0 L 266.1,240.0 L 268.7,241.0 L 271.2,242.0 L 273.8,243.0 L 276.4,244.0 L 279.0,245.0 L 281.6,246.0 L 284.1,247.0 L 286.7,247.9 L 289.3,248.9 L 291.9,249.8 L 294.5,250.7 L 297.0,251.6 L 299.6,252.5 L 302.2,253.5 L 304.8,254.3 L 307.4,255.2 L 309.9,256.1 L 312.5,257.0 L 315.1,257.9 L 317.7,258.7 L 320.3,259.6 L 322.8,260.4 L 325.4,261.3 L 328.0,262.1 L 330.6,262.9 L 333.2,263.8 L 335.7,264.6 L 338.3,265.4 L 340.9,266.2 L 343.5,267.0 L 346.1,267.8 L 348.6,268.6 L 351.2,269.4 L 353.8,270.2 L 356.4,271.0 L 358.9,271.8 L 361.5,272.6 L 364.1,273.3 L 366.7,274.1 L 369.3,274.9 L 371.8,275.6 L 374.4,276.4 L 377.0,277.1 L 379.6,277.9 L 382.2,278.6 L 384.7,279.4 L 387.3,280.1 L 389.9,280.9 L 392.5,281.6 L 395.1,282.3 L 397.6,283.0 L 400.2,283.8 L 402.8,284.5 L 405.4,285.2 L 408.0,285.9 L 410.5,286.6 L 413.1,287.3 L 415.7,288.0 L 418.3,288.7 L 420.9,289.4 L 423.4,290.1 L 426.0,290.8 L 428.6,291.4 L 431.2,292.1 L 433.8,292.8 L 436.3,293.5 L 438.9,294.1 L 441.5,294.8 L 444.1,295.5 L 446.7,296.1 L 449.2,296.8 L 451.8,297.4 L 454.4,298.1 L 457.0,298.7 L 459.6,299.4 L 462.1,300.0 L 464.7,300.7 L 467.3,301.3 L 469.9,301.9 L 472.5,302.6 L 475.0,303.2 L 477.6,303.8 L 480.2,304.4 L 482.8,305.1 L 485.4,305.7 L 487.9,306.3 L 490.5,306.9 L 493.1,307.5 L 495.7,308.1 L 498.3,308.7 L 500.8,309.3 L 503.4,309.9 L 506.0,310.5 L 508.6,311.1 L 511.2,311.7 L 513.7,312.3 L 516.3,312.9 L 518.9,313.5 L 521.5,314.1 L 524.1,314.7 L 526.6,315.3 L 529.2,315.9 L 531.8,316.4 L 534.4,317.0 L 537.0,317.6 L 539.5,318.2 L 542.1,318.8 L 544.7,319.3 L 547.3,319.9 L 549.9,320.5 L 552.4,321.1 L 555.0,321.7 L 557.6,322.2 L 560.2,322.8 L 562.8,323.4 L 565.3,324.0 L 567.9,324.6 L 570.5,325.2 L 573.1,325.8 L 575.7,326.4 L 578.2,327.0 L 580.8,327.6 L 583.4,328.2 L 586.0,328.8 L 588.6,329.4 L 591.1,330.0 L 593.7,330.6 L 596.3,331.2 L 598.9,331.8 L 601.5,332.4 L 604.0,333.0 L 606.6,333.5 L 609.2,334.1 L 611.8,334.7 L 614.4,335.2 L 616.9,335.7 L 619.5,336.2 L 622.1,336.7 L 624.7,337.2 L 627.3,337.6 L 629.8,338.1 L 632.4,338.5 L 635.0,338.9" class="sig"/>
<path d="M 75.7,317.8 L 81.3,299.1 L 87.0,285.3 L 92.6,274.3 L 98.2,265.3 L 103.9,257.8 L 109.5,251.4 L 115.2,245.4 L 120.9,239.7 L 126.5,234.2 L 132.1,229.0 L 137.8,224.1 L 143.4,219.3 L 149.1,214.8 L 154.8,210.5 L 160.4,206.4 L 166.1,202.4 L 171.7,198.6 L 177.3,195.0 L 183.0,191.5 L 188.6,188.2 L 194.3,185.0 L 200.0,181.9 L 205.6,179.0 L 211.2,176.1 L 216.9,173.4 L 222.6,170.8 L 228.2,168.3 L 233.8,165.9 L 239.5,163.6 L 245.2,161.3 L 250.8,159.2 L 256.5,157.2 L 262.1,155.2 L 267.8,153.3 L 273.4,151.4 L 279.1,149.5 L 284.7,147.7 L 290.4,145.9 L 296.0,144.1 L 301.6,142.3 L 307.3,140.6 L 313.0,138.9 L 318.6,137.2 L 324.2,135.6 L 329.9,134.0 L 335.6,132.4 L 341.2,130.8 L 346.9,129.3 L 352.5,127.8 L 358.1,126.3 L 363.8,124.8 L 369.4,123.4 L 375.1,122.0 L 380.8,120.6 L 386.4,119.3 L 392.0,117.9 L 397.7,116.6 L 403.3,115.4 L 409.0,114.1 L 414.6,112.9 L 420.3,111.7 L 425.9,110.5 L 431.6,109.4 L 437.2,108.3 L 442.9,107.2 L 448.6,106.1 L 454.2,105.0 L 459.8,104.0 L 465.5,103.0 L 471.2,102.0 L 476.8,101.1 L 482.4,100.1 L 488.1,99.2 L 493.8,98.3 L 499.4,97.4 L 505.1,96.6 L 510.7,95.8 L 516.3,95.0 L 522.0,94.2 L 527.6,93.4 L 533.3,92.7 L 539.0,92.0 L 544.6,91.3 L 550.2,90.6 L 555.9,89.9 L 561.6,89.3 L 567.2,88.7 L 572.9,88.1 L 578.5,87.5 L 584.1,87.0 L 589.8,86.5 L 595.5,85.9 L 601.1,85.6 L 606.8,86.3 L 612.4,87.7 L 618.0,89.1 L 623.7,90.6 L 629.4,92.0 L 635.0,93.4" class="nt"/>
<path d="M 74.7,347.0 L 79.4,333.7 L 84.1,319.5 L 88.8,306.1 L 93.5,294.0 L 98.2,283.5 L 103.0,274.1 L 107.7,266.1 L 112.4,258.9 L 117.1,252.4 L 121.8,246.3 L 126.5,240.5 L 131.2,234.8 L 135.9,229.2 L 140.6,223.7 L 145.3,218.3 L 150.0,213.0 L 154.8,207.9 L 159.5,202.8 L 164.2,198.0 L 168.9,193.2 L 173.6,188.7 L 178.3,184.3 L 183.0,180.1 L 187.7,176.1 L 192.4,172.3 L 197.1,168.7 L 201.8,165.3 L 206.5,162.1 L 211.2,159.1 L 216.0,156.3 L 220.7,153.8 L 225.4,151.5 L 230.1,149.4 L 234.8,147.6 L 239.5,146.1 L 244.2,144.8 L 248.9,143.8 L 253.6,143.0 L 258.3,142.4 L 263.0,141.9 L 267.8,141.6 L 272.5,141.3 L 277.2,141.0 L 281.9,140.6 L 286.6,140.2 L 291.3,139.7 L 296.0,139.2 L 300.7,138.6 L 305.4,138.0 L 310.1,137.3 L 314.8,136.7 L 319.5,136.0 L 324.2,135.2 L 329.0,134.5 L 333.7,133.8 L 338.4,133.0 L 343.1,132.2 L 347.8,131.5 L 352.5,130.7 L 357.2,130.0 L 361.9,129.2 L 366.6,128.5 L 371.3,127.8 L 376.0,127.1 L 380.7,126.4 L 385.5,125.7 L 390.2,125.0 L 394.9,124.4 L 399.6,123.7 L 404.3,123.1 L 409.0,122.5 L 413.7,121.9 L 418.4,121.3 L 423.1,120.7 L 427.8,120.1 L 432.5,119.6 L 437.2,119.1 L 442.0,118.5 L 446.7,118.0 L 451.4,117.5 L 456.1,117.0 L 460.8,116.5 L 465.5,116.1 L 470.2,115.6 L 474.9,115.1 L 479.6,114.6 L 484.3,114.2 L 489.0,113.7 L 493.8,113.2 L 498.5,112.6 L 503.2,112.1 L 507.9,111.5 L 512.6,110.9 L 517.3,110.2 L 522.0,109.5 L 526.7,108.7 L 531.4,107.9 L 536.1,106.9 L 540.8,105.8 L 545.5,104.6 L 550.2,103.3 L 555.0,101.8 L 559.7,100.1 L 564.4,98.2 L 569.1,96.0 L 573.8,93.8 L 578.5,91.5 L 583.2,89.3 L 587.9,87.4 L 592.6,86.4 L 597.3,86.5 L 602.0,88.1 L 606.8,91.2 L 611.5,95.6 L 616.2,101.1 L 620.9,107.1 L 625.6,113.4 L 630.3,119.7 L 635.0,125.8" class="fw"/>
<line x1="122.94317254063367" y1="237.84278306176117" x2="122.94317254063367" y2="251.91210564689885" class="err"/>
<line x1="119.94317254063367" y1="237.84278306176117" x2="125.94317254063367" y2="237.84278306176117" class="err"/>
<line x1="119.94317254063367" y1="251.91210564689885" x2="125.94317254063367" y2="251.91210564689885" class="err"/>
<circle cx="122.94317254063367" cy="244.87744435433" r="2.5" class="obs"/>
<line x1="175.88634508126734" y1="177.90848468464043" x2="175.88634508126734" y2="194.51739618406285" class="err"/>
<line x1="172.88634508126734" y1="177.90848468464043" x2="178.88634508126734" y2="177.90848468464043" class="err"/>
<line x1="172.88634508126734" y1="194.51739618406285" x2="178.88634508126734" y2="194.51739618406285" class="err"/>
<circle cx="175.88634508126734" cy="186.21294043435162" r="2.5" class="obs"/>
<line x1="229.69743848322287" y1="146.08743558865214" x2="229.69743848322287" y2="158.78538016007604" class="err"/>
<line x1="226.69743848322287" y1="146.08743558865214" x2="232.69743848322287" y2="146.08743558865214" class="err"/>
<line x1="226.69743848322287" y1="158.78538016007604" x2="232.69743848322287" y2="158.78538016007604" class="err"/>
<circle cx="229.69743848322287" cy="152.43640787436408" r="2.5" class="obs"/>
<line x1="282.64061102385654" y1="132.50063489722862" x2="282.64061102385654" y2="144.94462057722404" class="err"/>
<line x1="279.64061102385654" y1="132.50063489722862" x2="285.64061102385654" y2="132.50063489722862" class="err"/>
<line x1="279.64061102385654" y1="144.94462057722404" x2="285.64061102385654" y2="144.94462057722404" class="err"/>
<circle cx="282.64061102385654" cy="138.72262773722633" r="2.5" class="obs"/>
<line x1="336.45170442581207" y1="125.8215160526596" x2="336.45170442581207" y2="138.4178770675121" class="err"/>
<line x1="333.45170442581207" y1="125.8215160526596" x2="339.45170442581207" y2="125.8215160526596" class="err"/>
<line x1="333.45170442581207" y1="138.4178770675121" x2="339.45170442581207" y2="138.4178770675121" class="err"/>
<circle cx="336.45170442581207" cy="132.11969656008586" r="2.5" class="obs"/>
<line x1="389.39487696644574" y1="115.84093161952043" x2="389.39487696644574" y2="131.12925688351484" class="err"/>
<line x1="386.39487696644574" y1="115.84093161952043" x2="392.39487696644574" y2="115.84093161952043" class="err"/>
<line x1="386.39487696644574" y1="131.12925688351484" x2="392.39487696644574" y2="131.12925688351484" class="err"/>
<circle cx="389.39487696644574" cy="123.48509425151765" r="2.5" class="obs"/>
<line x1="443.20597036840127" y1="109.72052233609409" x2="443.20597036840127" y2="128.1071460755159" class="err"/>
<line x1="440.20597036840127" y1="109.72052233609409" x2="446.20597036840127" y2="109.72052233609409" class="err"/>
<line x1="440.20597036840127" y1="128.1071460755159" x2="446.20597036840127" y2="128.1071460755159" class="err"/>
<circle cx="443.20597036840127" cy="118.91383420580499" r="2.5" class="obs"/>
<line x1="496.149142909035" y1="101.13671180581157" x2="496.149142909035" y2="120.94550533723286" class="err"/>
<line x1="493.149142909035" y1="101.13671180581157" x2="499.149142909035" y2="101.13671180581157" class="err"/>
<line x1="493.149142909035" y1="120.94550533723286" x2="499.149142909035" y2="120.94550533723286" class="err"/>
<circle cx="496.149142909035" cy="111.04110857152219" r="2.5" class="obs"/>
<line x1="549.0923154496686" y1="91.18152326181526" x2="549.0923154496686" y2="115.66316039552046" class="err"/>
<line x1="546.0923154496686" y1="91.18152326181526" x2="552.0923154496686" y2="91.18152326181526" class="err"/>
<line x1="546.0923154496686" y1="115.66316039552046" x2="552.0923154496686" y2="115.66316039552046" class="err"/>
<circle cx="549.0923154496686" cy="103.42234182866787" r="2.5" class="obs"/>
<line x1="602.0354879903023" y1="83.18181818181819" x2="602.0354879903023" y2="108.42533198980888" class="err"/>
<line x1="599.0354879903023" y1="83.18181818181819" x2="605.0354879903023" y2="83.18181818181819" class="err"/>
<line x1="599.0354879903023" y1="108.42533198980888" x2="605.0354879903023" y2="108.42533198980888" class="err"/>
<circle cx="602.0354879903023" cy="95.80357508581353" r="2.5" class="obs"/>
<g class="legend">
<line x1="82" y1="69" x2="106" y2="69" class="fw"/>
<text x="112" y="73" class="lbl-l">framework fit</text>
<line x1="82" y1="87" x2="106" y2="87" class="nt"/>
<text x="112" y="91" class="lbl-l">Newtonian (no halo)</text>
<circle cx="94" cy="105" r="2.5" class="obs"/>
<text x="112" y="109" class="lbl">observed V±err</text>
</g>
<g class="legend">
<line x1="460" y1="69" x2="484" y2="69" class="rho"/>
<text x="490" y="73" class="lbl-r">ρ(r) raw</text>
<line x1="460" y1="87" x2="484" y2="87" class="sig"/>
<text x="490" y="91" class="lbl-r">Σ(r) smoothed</text>
<text x="460" y="113" class="lbl-r">ρ peak: 402 M☉/pc²</text>
</g>
</svg>