<svg xmlns="http://www.w3.org/2000/svg" viewBox="0 0 960 450" width="960" height="450" font-family="sans-serif" font-size="12">
<style>
  .ax { stroke: #333; stroke-width: 1; fill: none; }
  .grid { stroke: #ddd; stroke-width: 0.5; fill: none; }
  .lbl { fill: #333; }
  .lbl-l { fill: #0066cc; }
  .lbl-r { fill: #b03030; }
  .obs { fill: #222; }
  .err { stroke: #555; stroke-width: 0.8; fill: none; }
  .fw { stroke: #0066cc; stroke-width: 2.2; fill: none; }
  .nt { stroke: #cc6600; stroke-width: 1.6; fill: none; stroke-dasharray: 5,3; }
  .mond { stroke: #7b2cbf; stroke-width: 1.8; fill: none; stroke-dasharray: 7,3; }
  .lbl-p { fill: #cc7000; }
  .lbl-m { fill: #7b2cbf; }
  .rho { stroke: #b03030; stroke-width: 2.0; fill: none; }
  .phot { stroke: #cc7000; stroke-width: 1.8; fill: none; }
  .mbar { stroke: #8e44ad; stroke-width: 1.8; fill: none; opacity: 0.9; }
  .mph { stroke: #c77dff; stroke-width: 1.6; fill: none; stroke-dasharray: 4,3; opacity: 0.95; }
  .remap-x { stroke: #cc2222; stroke-width: 1.5; fill: none; }
  .remap-link { stroke: #cc2222; stroke-width: 0.8; stroke-dasharray: 3,3; fill: none; opacity: 0.7; }
  .title { fill: #111; font-size: 16px; font-weight: 600; }
  .subtitle { fill: #555; font-size: 11px; }
  .preview-bg { fill: #000; }
  .preview-lbl { fill: #888; font-size: 10px; }
  .legend { font-size: 11px; }
</style>
<text x="378.5" y="22" text-anchor="middle" class="title">UGC05414</text>
<text x="378.5" y="38" text-anchor="middle" class="subtitle">rMax=4.1 kpc, N=6, FW=0.8 km/s, 1.4%, 0.34σ, MOND=8.2 km/s, 22.3%, 3.34σ, amp=105</text>
<line x1="70" y1="395.0" x2="687" y2="395.0" class="grid"/>
<text x="64" y="399.0" text-anchor="end" class="lbl-l">0</text>
<line x1="70" y1="327.0" x2="687" y2="327.0" class="grid"/>
<text x="64" y="331.0" text-anchor="end" class="lbl-l">15</text>
<line x1="70" y1="259.0" x2="687" y2="259.0" class="grid"/>
<text x="64" y="263.0" text-anchor="end" class="lbl-l">30</text>
<line x1="70" y1="191.0" x2="687" y2="191.0" class="grid"/>
<text x="64" y="195.0" text-anchor="end" class="lbl-l">45</text>
<line x1="70" y1="123.0" x2="687" y2="123.0" class="grid"/>
<text x="64" y="127.0" text-anchor="end" class="lbl-l">61</text>
<line x1="70" y1="55.0" x2="687" y2="55.0" class="grid"/>
<text x="64" y="59.0" text-anchor="end" class="lbl-l">76</text>
<text x="693" y="399.0" text-anchor="start" class="lbl-r">0.0</text>
<text x="693" y="353.7" text-anchor="start" class="lbl-r">0.2</text>
<text x="693" y="308.3" text-anchor="start" class="lbl-r">0.4</text>
<text x="693" y="263.0" text-anchor="start" class="lbl-r">0.6</text>
<text x="693" y="217.7" text-anchor="start" class="lbl-r">0.8</text>
<text x="693" y="172.3" text-anchor="start" class="lbl-r">1.0</text>
<line x1="70.0" y1="55" x2="70.0" y2="395" class="grid"/>
<text x="70.0" y="411" text-anchor="middle" class="lbl">0.0</text>
<line x1="172.8" y1="55" x2="172.8" y2="395" class="grid"/>
<text x="172.8" y="411" text-anchor="middle" class="lbl">0.7</text>
<line x1="275.7" y1="55" x2="275.7" y2="395" class="grid"/>
<text x="275.7" y="411" text-anchor="middle" class="lbl">1.4</text>
<line x1="378.5" y1="55" x2="378.5" y2="395" class="grid"/>
<text x="378.5" y="411" text-anchor="middle" class="lbl">2.1</text>
<line x1="481.3" y1="55" x2="481.3" y2="395" class="grid"/>
<text x="481.3" y="411" text-anchor="middle" class="lbl">2.9</text>
<line x1="584.2" y1="55" x2="584.2" y2="395" class="grid"/>
<text x="584.2" y="411" text-anchor="middle" class="lbl">3.6</text>
<line x1="687.0" y1="55" x2="687.0" y2="395" class="grid"/>
<text x="687.0" y="411" text-anchor="middle" class="lbl">4.3</text>
<text x="378.5" y="438" text-anchor="middle" class="lbl">radius (kpc)</text>
<text x="16" y="225" text-anchor="middle" class="lbl-l" transform="rotate(-90, 16, 225)">velocity (km/s)</text>
<text x="724" y="225" text-anchor="middle" class="lbl-r" transform="rotate(-90, 724, 225)">profiles (normalized to peak)</text>
<rect x="70" y="55" width="617" height="340" class="ax"/>
<path d="M 70.0,168.3 L 72.8,182.5 L 75.6,196.7 L 78.5,210.9 L 81.3,225.0 L 84.1,239.2 L 86.9,253.4 L 89.7,267.6 L 92.5,281.8 L 95.4,295.9 L 98.2,297.6 L 101.0,298.1 L 103.8,298.7 L 106.6,299.2 L 109.4,299.8 L 112.3,300.4 L 115.1,300.9 L 117.9,301.5 L 120.7,302.1 L 123.5,302.6 L 126.3,303.2 L 129.2,303.8 L 132.0,304.3 L 134.8,304.9 L 137.6,305.5 L 140.4,305.5 L 143.3,305.5 L 146.1,305.5 L 148.9,305.5 L 151.7,305.5 L 154.5,305.5 L 157.3,305.5 L 160.2,305.5 L 163.0,305.5 L 165.8,305.5 L 168.6,305.5 L 171.4,305.5 L 174.2,305.5 L 177.1,305.5 L 179.9,305.5 L 182.7,305.5 L 185.5,305.5 L 188.3,305.5 L 191.1,305.5 L 194.0,305.5 L 196.8,305.5 L 199.6,305.5 L 202.4,305.5 L 205.2,305.5 L 208.1,305.5 L 210.9,305.5 L 213.7,305.5 L 216.5,305.5 L 219.3,305.5 L 222.1,305.5 L 225.0,305.5 L 227.8,305.5 L 230.6,305.5 L 233.4,305.5 L 236.2,305.5 L 239.0,305.5 L 241.9,305.8 L 244.7,306.0 L 247.5,306.3 L 250.3,306.6 L 253.1,306.9 L 255.9,307.1 L 258.8,307.4 L 261.6,307.7 L 264.4,308.0 L 267.2,308.2 L 270.0,308.5 L 272.8,308.8 L 275.7,309.1 L 278.5,309.3 L 281.3,309.6 L 284.1,309.9 L 286.9,310.2 L 289.8,310.4 L 292.6,310.7 L 295.4,311.0 L 298.2,311.3 L 301.0,311.5 L 303.8,311.8 L 306.7,312.1 L 309.5,312.4 L 312.3,312.6 L 315.1,312.9 L 317.9,313.2 L 320.7,313.5 L 323.6,313.7 L 326.4,314.0 L 329.2,314.3 L 332.0,314.6 L 334.8,314.8 L 337.6,315.1 L 340.5,315.4 L 343.3,315.7 L 346.1,315.9 L 348.9,316.2 L 351.7,316.5 L 354.6,316.8 L 357.4,317.0 L 360.2,317.3 L 363.0,317.6 L 365.8,317.9 L 368.6,318.1 L 371.5,318.4 L 374.3,318.7 L 377.1,319.0 L 379.9,319.2 L 382.7,319.5 L 385.5,319.8 L 388.4,320.1 L 391.2,320.3 L 394.0,320.6 L 396.8,320.9 L 399.6,321.2 L 402.4,321.4 L 405.3,321.7 L 408.1,322.0 L 410.9,322.3 L 413.7,322.5 L 416.5,322.8 L 419.4,323.1 L 422.2,323.4 L 425.0,323.6 L 427.8,323.9 L 430.6,324.2 L 433.4,324.5 L 436.3,324.7 L 439.1,325.0 L 441.9,325.3 L 444.7,325.6 L 447.5,325.8 L 450.3,326.1 L 453.2,326.4 L 456.0,326.7 L 458.8,326.9 L 461.6,327.2 L 464.4,327.5 L 467.2,327.8 L 470.1,328.0 L 472.9,328.3 L 475.7,328.6 L 478.5,328.9 L 481.3,329.1 L 484.2,329.4 L 487.0,329.7 L 489.8,330.0 L 492.6,330.2 L 495.4,330.5 L 498.2,330.8 L 501.1,331.1 L 503.9,331.3 L 506.7,331.6 L 509.5,331.9 L 512.3,332.2 L 515.1,332.4 L 518.0,332.7 L 520.8,333.0 L 523.6,333.3 L 526.4,333.5 L 529.2,333.8 L 532.0,334.1 L 534.9,334.4 L 537.7,334.6 L 540.5,334.9 L 543.3,335.2 L 546.1,335.5 L 548.9,335.7 L 551.8,336.0 L 554.6,336.3 L 557.4,336.6 L 560.2,336.8 L 563.0,337.1 L 565.9,337.4 L 568.7,337.7 L 571.5,337.9 L 574.3,338.2 L 577.1,338.5 L 579.9,338.8 L 582.8,339.0 L 585.6,339.3 L 588.4,339.6 L 591.2,339.9 L 594.0,340.1 L 596.8,340.4 L 599.7,340.7 L 602.5,341.0 L 605.3,341.2 L 608.1,341.5 L 610.9,341.8 L 613.7,342.1 L 616.6,342.3 L 619.4,342.6 L 622.2,342.9 L 625.0,343.2 L 627.8,343.4 L 630.7,343.7 L 633.5,344.0 L 636.3,344.3 L 639.1,344.5 L 641.9,344.8 L 644.7,348.7 L 647.6,358.9 L 650.4,369.0 L 653.2,379.1 L 656.0,389.2 L 658.8,395.0 L 661.6,395.0 L 664.5,395.0 L 667.3,395.0 L 670.1,395.0 L 672.9,395.0 L 675.7,395.0 L 678.5,395.0 L 681.4,395.0 L 684.2,395.0 L 687.0,395.0" class="rho"/>
<path d="M 167.8,168.3 L 267.1,275.0 L 364.9,323.4 L 464.1,351.6 L 562.0,362.7 L 661.2,373.8" class="phot"/>
<path d="M 167.8,210.5 L 267.1,168.3 L 364.9,172.1 L 464.1,215.9 L 562.0,253.6 L 661.2,271.2" class="mbar"/>
<path d="M 167.8,187.9 L 267.1,168.3 L 364.9,169.4 L 464.1,189.0 L 562.0,207.1 L 661.2,216.7" class="mph"/>
<path d="M 76.2,348.6 L 82.3,332.8 L 88.5,323.2 L 94.7,317.5 L 100.8,313.5 L 107.0,309.1 L 113.2,304.6 L 119.4,300.2 L 125.5,296.0 L 131.7,291.9 L 137.9,287.9 L 144.0,284.1 L 150.2,280.3 L 156.4,276.6 L 162.6,273.0 L 168.7,269.4 L 174.9,266.0 L 181.1,262.6 L 187.2,259.2 L 193.4,255.9 L 199.6,252.7 L 205.7,249.6 L 211.9,246.5 L 218.1,243.5 L 224.3,240.5 L 230.4,237.5 L 236.6,234.7 L 242.8,231.8 L 248.9,229.1 L 255.1,226.4 L 261.3,223.8 L 267.4,221.3 L 273.6,218.8 L 279.8,216.4 L 285.9,214.1 L 292.1,211.8 L 298.3,209.6 L 304.5,207.4 L 310.6,205.3 L 316.8,203.2 L 323.0,201.1 L 329.1,199.1 L 335.3,197.2 L 341.5,195.3 L 347.7,193.4 L 353.8,191.6 L 360.0,189.8 L 366.2,188.1 L 372.3,186.3 L 378.5,184.7 L 384.7,183.0 L 390.8,181.4 L 397.0,179.8 L 403.2,178.3 L 409.4,176.8 L 415.5,175.3 L 421.7,173.8 L 427.9,172.4 L 434.0,171.0 L 440.2,169.6 L 446.4,168.3 L 452.5,167.0 L 458.7,165.7 L 464.9,164.4 L 471.1,163.2 L 477.2,162.0 L 483.4,160.8 L 489.6,159.6 L 495.7,158.5 L 501.9,157.3 L 508.1,156.2 L 514.2,155.2 L 520.4,154.1 L 526.6,153.1 L 532.8,152.1 L 538.9,151.1 L 545.1,150.1 L 551.3,149.2 L 557.4,148.3 L 563.6,147.4 L 569.8,146.5 L 575.9,145.6 L 582.1,144.8 L 588.3,144.0 L 594.4,143.2 L 600.6,142.4 L 606.8,141.6 L 613.0,140.9 L 619.1,140.2 L 625.3,139.5 L 631.5,138.8 L 637.6,138.1 L 643.8,137.5 L 650.0,137.3 L 656.2,137.9 L 662.3,139.3 L 668.5,140.6 L 674.7,142.0 L 680.8,143.2 L 687.0,144.4" class="nt"/>
<path d="M 167.8,270.0 L 267.1,196.5 L 364.9,153.8 L 464.1,124.4 L 562.0,104.3 L 661.2,85.9" class="mond"/>
<path d="M 75.1,373.6 L 80.3,358.9 L 85.4,344.4 L 90.6,332.7 L 95.7,323.7 L 100.8,317.7 L 106.0,313.7 L 111.1,311.2 L 116.3,309.7 L 121.4,308.7 L 126.6,308.0 L 131.7,307.6 L 136.8,307.3 L 142.0,307.0 L 147.1,306.7 L 152.3,306.1 L 157.4,305.4 L 162.6,304.4 L 167.7,303.2 L 172.8,301.7 L 178.0,300.0 L 183.1,297.9 L 188.3,295.7 L 193.4,293.1 L 198.5,290.4 L 203.7,287.4 L 208.8,284.1 L 214.0,280.6 L 219.1,277.0 L 224.2,273.1 L 229.4,269.0 L 234.5,264.9 L 239.7,260.6 L 244.8,256.4 L 250.0,252.2 L 255.1,248.2 L 260.2,244.3 L 265.4,240.6 L 270.5,237.0 L 275.7,233.6 L 280.8,230.3 L 286.0,227.2 L 291.1,224.2 L 296.2,221.2 L 301.4,218.4 L 306.5,215.7 L 311.7,213.1 L 316.8,210.6 L 321.9,208.2 L 327.1,205.8 L 332.2,203.5 L 337.4,201.3 L 342.5,199.2 L 347.6,197.1 L 352.8,195.1 L 357.9,193.1 L 363.1,191.2 L 368.2,189.4 L 373.4,187.6 L 378.5,185.9 L 383.6,184.2 L 388.8,182.5 L 393.9,181.0 L 399.1,179.4 L 404.2,177.9 L 409.4,176.5 L 414.5,175.0 L 419.6,173.7 L 424.8,172.3 L 429.9,171.0 L 435.1,169.8 L 440.2,168.5 L 445.3,167.3 L 450.5,166.1 L 455.6,165.0 L 460.8,163.9 L 465.9,162.7 L 471.0,161.7 L 476.2,160.6 L 481.3,159.6 L 486.5,158.5 L 491.6,157.5 L 496.8,156.5 L 501.9,155.5 L 507.0,154.4 L 512.2,153.4 L 517.3,152.4 L 522.5,151.3 L 527.6,150.3 L 532.8,149.2 L 537.9,148.0 L 543.0,146.8 L 548.2,145.6 L 553.3,144.2 L 558.5,142.8 L 563.6,141.3 L 568.7,139.7 L 573.9,137.9 L 579.0,136.0 L 584.2,133.8 L 589.3,131.5 L 594.4,128.8 L 599.6,125.9 L 604.7,122.7 L 609.9,119.1 L 615.0,115.3 L 620.2,111.2 L 625.3,107.1 L 630.4,103.3 L 635.6,100.2 L 640.7,98.5 L 645.9,98.5 L 651.0,100.8 L 656.2,105.0 L 661.3,111.0 L 666.4,118.2 L 671.6,126.1 L 676.7,134.2 L 681.9,142.3 L 687.0,149.9" class="fw"/>
<line x1="167.82" y1="291.96" x2="167.82" y2="314.12" class="err"/>
<line x1="164.82" y1="291.96" x2="170.82" y2="291.96" class="err"/>
<line x1="164.82" y1="314.12" x2="170.82" y2="314.12" class="err"/>
<circle cx="167.82" cy="303.04" r="2.5" class="obs"/>
<line x1="267.07" y1="228.80" x2="267.07" y2="250.78" class="err"/>
<line x1="264.07" y1="228.80" x2="270.07" y2="228.80" class="err"/>
<line x1="264.07" y1="250.78" x2="270.07" y2="250.78" class="err"/>
<circle cx="267.07" cy="239.79" r="2.5" class="obs"/>
<line x1="364.88" y1="177.67" x2="364.88" y2="199.65" class="err"/>
<line x1="361.88" y1="177.67" x2="367.88" y2="177.67" class="err"/>
<line x1="361.88" y1="199.65" x2="367.88" y2="199.65" class="err"/>
<circle cx="364.88" cy="188.66" r="2.5" class="obs"/>
<line x1="464.14" y1="151.60" x2="464.14" y2="173.67" class="err"/>
<line x1="461.14" y1="151.60" x2="467.14" y2="151.60" class="err"/>
<line x1="461.14" y1="173.67" x2="467.14" y2="173.67" class="err"/>
<circle cx="464.14" cy="162.64" r="2.5" class="obs"/>
<line x1="561.95" y1="129.27" x2="561.95" y2="151.16" class="err"/>
<line x1="558.95" y1="129.27" x2="564.95" y2="129.27" class="err"/>
<line x1="558.95" y1="151.16" x2="564.95" y2="151.16" class="err"/>
<circle cx="561.95" cy="140.21" r="2.5" class="obs"/>
<line x1="661.21" y1="108.63" x2="661.21" y2="130.52" class="err"/>
<line x1="658.21" y1="108.63" x2="664.21" y2="108.63" class="err"/>
<line x1="658.21" y1="130.52" x2="664.21" y2="130.52" class="err"/>
<circle cx="661.21" cy="119.58" r="2.5" class="obs"/>
<g class="legend">
<line x1="82" y1="69" x2="106" y2="69" class="fw"/>
<text x="112" y="73" class="lbl-l">framework: 0.8 km/s, 1.4%, 0.34σ</text>
<line x1="82" y1="87" x2="106" y2="87" class="nt"/>
<text x="112" y="91" class="lbl-l">Newtonian: 3.9 km/s, 15.8%, 1.60σ</text>
<line x1="82" y1="105" x2="106" y2="105" class="mond"/>
<text x="112" y="109" class="lbl-m">MOND/RAR: 8.2 km/s, 22.3%, 3.34σ</text>
<circle cx="94" cy="123" r="2.5" class="obs"/>
<text x="112" y="127" class="lbl">observed V±err</text>
</g>
<g class="legend">
<line x1="472" y1="69" x2="496" y2="69" class="rho"/>
<text x="502" y="73" class="lbl-r">ρ(r) raw</text>
<line x1="472" y1="87" x2="496" y2="87" class="phot"/>
<text x="502" y="91" class="lbl-p">photometric baryonic profile</text>
<line x1="472" y1="105" x2="496" y2="105" class="mbar"/>
<text x="502" y="109" class="lbl-m">MOND baryonic annulus</text>
<line x1="472" y1="123" x2="496" y2="123" class="mph"/>
<text x="502" y="127" class="lbl-m">MOND phantom annulus</text>
<text x="472" y="147" class="lbl-r">ρ peak: 203 M☉/pc²</text>
<text x="472" y="163" class="lbl-p">phot peak: 31.58 (arb.)</text>
<text x="472" y="179" class="lbl-m">Σbar peak: 28.51 M☉/pc²</text>
<text x="472" y="195" class="lbl-m">Σphantom peak: 74.80 M☉/pc²</text>
</g>
<rect x="775" y="55" width="170" height="170" class="preview-bg"/>
<defs><radialGradient id="g_UGC05414" cx="0.5" cy="0.5" r="0.5">
  <stop offset="0.0000" stop-color="rgb(255,64,64)"/>
  <stop offset="0.0313" stop-color="rgb(214,54,54)"/>
  <stop offset="0.0625" stop-color="rgb(167,42,42)"/>
  <stop offset="0.0938" stop-color="rgb(163,41,41)"/>
  <stop offset="0.1250" stop-color="rgb(160,40,40)"/>
  <stop offset="0.1563" stop-color="rgb(160,40,40)"/>
  <stop offset="0.1875" stop-color="rgb(160,40,40)"/>
  <stop offset="0.2188" stop-color="rgb(160,40,40)"/>
  <stop offset="0.2500" stop-color="rgb(160,40,40)"/>
  <stop offset="0.2813" stop-color="rgb(160,40,40)"/>
  <stop offset="0.3125" stop-color="rgb(158,40,40)"/>
  <stop offset="0.3438" stop-color="rgb(156,39,39)"/>
  <stop offset="0.3750" stop-color="rgb(153,38,38)"/>
  <stop offset="0.4063" stop-color="rgb(151,38,38)"/>
  <stop offset="0.4375" stop-color="rgb(149,37,37)"/>
  <stop offset="0.4688" stop-color="rgb(147,37,37)"/>
  <stop offset="0.5000" stop-color="rgb(145,36,36)"/>
  <stop offset="0.5313" stop-color="rgb(142,36,36)"/>
  <stop offset="0.5625" stop-color="rgb(140,35,35)"/>
  <stop offset="0.5938" stop-color="rgb(138,35,35)"/>
  <stop offset="0.6250" stop-color="rgb(136,34,34)"/>
  <stop offset="0.6563" stop-color="rgb(134,34,34)"/>
  <stop offset="0.6875" stop-color="rgb(131,33,33)"/>
  <stop offset="0.7188" stop-color="rgb(129,32,32)"/>
  <stop offset="0.7500" stop-color="rgb(127,32,32)"/>
  <stop offset="0.7813" stop-color="rgb(125,31,31)"/>
  <stop offset="0.8125" stop-color="rgb(123,31,31)"/>
  <stop offset="0.8438" stop-color="rgb(121,30,30)"/>
  <stop offset="0.8750" stop-color="rgb(118,30,30)"/>
  <stop offset="0.9063" stop-color="rgb(116,29,29)"/>
  <stop offset="0.9375" stop-color="rgb(114,29,29)"/>
  <stop offset="0.9688" stop-color="rgb(112,28,28)"/>
  <stop offset="1.0000" stop-color="rgb(0,0,0)"/>
</radialGradient></defs>
<circle cx="860" cy="140" r="81" fill="url(#g_UGC05414)"/>
<text x="860" y="49" text-anchor="middle" class="preview-lbl">face-on luminance from ρ(r)</text>
<text x="860" y="239" text-anchor="middle" class="preview-lbl">edge at r = 4.1 kpc</text>
</svg>