<svg xmlns="http://www.w3.org/2000/svg" viewBox="0 0 890 420" width="890" height="420" font-family="sans-serif" font-size="12">
<style>
  .ax { stroke: #333; stroke-width: 1; fill: none; }
  .grid { stroke: #ddd; stroke-width: 0.5; fill: none; }
  .lbl { fill: #333; }
  .lbl-l { fill: #0066cc; }
  .lbl-r { fill: #b03030; }
  .obs { fill: #222; }
  .err { stroke: #555; stroke-width: 0.8; fill: none; }
  .fw { stroke: #0066cc; stroke-width: 2.2; fill: none; }
  .nt { stroke: #cc6600; stroke-width: 1.6; fill: none; stroke-dasharray: 5,3; }
  .lbl-s { fill: #cc7000; }
  .rho { stroke: #b03030; stroke-width: 2.0; fill: none; }
  .sig { stroke: #cc7000; stroke-width: 1.8; fill: none; }
  .title { fill: #111; font-size: 16px; font-weight: 600; }
  .subtitle { fill: #555; font-size: 11px; }
  .preview-bg { fill: #000; }
  .preview-lbl { fill: #888; font-size: 10px; }
  .legend { font-size: 11px; }
</style>
<text x="343.5" y="22" text-anchor="middle" class="title">UGC05716</text>
<text x="343.5" y="38" text-anchor="middle" class="subtitle">rMax=12.4 kpc, N=12, RMS=0.7 km/s (1.0%), amp=105</text>
<line x1="70" y1="365.0" x2="617" y2="365.0" class="grid"/>
<text x="64" y="369.0" text-anchor="end" class="lbl-l">0</text>
<line x1="70" y1="303.0" x2="617" y2="303.0" class="grid"/>
<text x="64" y="307.0" text-anchor="end" class="lbl-l">17</text>
<line x1="70" y1="241.0" x2="617" y2="241.0" class="grid"/>
<text x="64" y="245.0" text-anchor="end" class="lbl-l">35</text>
<line x1="70" y1="179.0" x2="617" y2="179.0" class="grid"/>
<text x="64" y="183.0" text-anchor="end" class="lbl-l">52</text>
<line x1="70" y1="117.0" x2="617" y2="117.0" class="grid"/>
<text x="64" y="121.0" text-anchor="end" class="lbl-l">70</text>
<line x1="70" y1="55.0" x2="617" y2="55.0" class="grid"/>
<text x="64" y="59.0" text-anchor="end" class="lbl-l">87</text>
<text x="623" y="369.0" text-anchor="start" class="lbl-r">0.0</text>
<text x="623" y="327.7" text-anchor="start" class="lbl-r">0.2</text>
<text x="623" y="286.3" text-anchor="start" class="lbl-r">0.4</text>
<text x="623" y="245.0" text-anchor="start" class="lbl-r">0.6</text>
<text x="623" y="203.7" text-anchor="start" class="lbl-r">0.8</text>
<text x="623" y="162.3" text-anchor="start" class="lbl-r">1.0</text>
<line x1="70.0" y1="55" x2="70.0" y2="365" class="grid"/>
<text x="70.0" y="381" text-anchor="middle" class="lbl">0.0</text>
<line x1="161.2" y1="55" x2="161.2" y2="365" class="grid"/>
<text x="161.2" y="381" text-anchor="middle" class="lbl">2.2</text>
<line x1="252.3" y1="55" x2="252.3" y2="365" class="grid"/>
<text x="252.3" y="381" text-anchor="middle" class="lbl">4.5</text>
<line x1="343.5" y1="55" x2="343.5" y2="365" class="grid"/>
<text x="343.5" y="381" text-anchor="middle" class="lbl">6.7</text>
<line x1="434.7" y1="55" x2="434.7" y2="365" class="grid"/>
<text x="434.7" y="381" text-anchor="middle" class="lbl">8.9</text>
<line x1="525.8" y1="55" x2="525.8" y2="365" class="grid"/>
<text x="525.8" y="381" text-anchor="middle" class="lbl">11.2</text>
<line x1="617.0" y1="55" x2="617.0" y2="365" class="grid"/>
<text x="617.0" y="381" text-anchor="middle" class="lbl">13.4</text>
<text x="343.5" y="408" text-anchor="middle" class="lbl">radius (kpc)</text>
<text x="16" y="210" text-anchor="middle" class="lbl-l" transform="rotate(-90, 16, 210)">velocity (km/s)</text>
<text x="654" y="210" text-anchor="middle" class="lbl-r" transform="rotate(-90, 654, 210)">mass profile (normalized to peak)</text>
<rect x="70" y="55" width="547" height="310" class="ax"/>
<path d="M 70.0,158.3 L 72.5,166.1 L 75.0,173.9 L 77.5,181.7 L 80.0,189.5 L 82.5,197.2 L 85.0,205.0 L 87.5,212.8 L 90.0,220.6 L 92.5,228.4 L 95.0,236.2 L 97.5,243.9 L 100.0,251.7 L 102.5,254.8 L 105.0,257.2 L 107.5,259.6 L 110.0,262.1 L 112.5,264.5 L 115.0,266.2 L 117.5,266.8 L 120.0,267.5 L 122.5,268.2 L 124.9,268.9 L 127.4,269.6 L 129.9,270.3 L 132.4,271.0 L 134.9,271.7 L 137.4,272.3 L 139.9,273.0 L 142.4,273.7 L 144.9,274.4 L 147.4,275.1 L 149.9,275.8 L 152.4,276.5 L 154.9,277.2 L 157.4,277.8 L 159.9,278.5 L 162.4,279.2 L 164.9,279.9 L 167.4,280.6 L 169.9,281.3 L 172.4,282.0 L 174.9,282.7 L 177.4,283.3 L 179.9,284.0 L 182.4,284.7 L 184.9,285.1 L 187.4,285.4 L 189.9,285.7 L 192.4,286.0 L 194.9,286.3 L 197.4,286.6 L 199.9,286.9 L 202.4,287.2 L 204.9,287.5 L 207.4,287.8 L 209.9,288.1 L 212.4,288.4 L 214.9,288.7 L 217.4,289.0 L 219.9,289.3 L 222.4,289.6 L 224.9,289.9 L 227.4,290.2 L 229.9,290.5 L 232.4,290.8 L 234.8,291.1 L 237.3,291.4 L 239.8,291.6 L 242.3,291.9 L 244.8,292.2 L 247.3,292.5 L 249.8,292.8 L 252.3,293.1 L 254.8,293.4 L 257.3,293.7 L 259.8,294.0 L 262.3,294.3 L 264.8,294.6 L 267.3,294.9 L 269.8,295.2 L 272.3,295.5 L 274.8,295.8 L 277.3,296.1 L 279.8,296.4 L 282.3,296.7 L 284.8,297.0 L 287.3,297.3 L 289.8,297.6 L 292.3,297.9 L 294.8,298.2 L 297.3,298.5 L 299.8,298.8 L 302.3,299.1 L 304.8,299.4 L 307.3,299.7 L 309.8,300.0 L 312.3,300.3 L 314.8,300.6 L 317.3,300.9 L 319.8,301.2 L 322.3,301.5 L 324.8,301.8 L 327.3,302.1 L 329.8,302.4 L 332.3,302.6 L 334.8,302.9 L 337.3,303.2 L 339.8,303.5 L 342.3,303.8 L 344.7,304.1 L 347.2,304.4 L 349.7,304.7 L 352.2,305.0 L 354.7,305.3 L 357.2,305.6 L 359.7,305.9 L 362.2,306.2 L 364.7,306.5 L 367.2,306.8 L 369.7,307.1 L 372.2,307.4 L 374.7,307.7 L 377.2,308.0 L 379.7,308.3 L 382.2,308.6 L 384.7,308.9 L 387.2,309.2 L 389.7,309.5 L 392.2,309.8 L 394.7,310.1 L 397.2,310.4 L 399.7,310.7 L 402.2,311.0 L 404.7,311.3 L 407.2,311.6 L 409.7,311.9 L 412.2,312.2 L 414.7,312.5 L 417.2,312.8 L 419.7,313.1 L 422.2,313.4 L 424.7,313.6 L 427.2,313.9 L 429.7,314.2 L 432.2,314.5 L 434.7,314.8 L 437.2,315.1 L 439.7,315.4 L 442.2,315.7 L 444.7,316.0 L 447.2,316.3 L 449.7,316.6 L 452.2,316.9 L 454.6,317.2 L 457.1,317.5 L 459.6,317.8 L 462.1,318.1 L 464.6,318.4 L 467.1,318.7 L 469.6,319.0 L 472.1,319.3 L 474.6,319.6 L 477.1,319.9 L 479.6,320.2 L 482.1,320.5 L 484.6,320.8 L 487.1,321.1 L 489.6,321.4 L 492.1,321.7 L 494.6,322.0 L 497.1,322.3 L 499.6,322.6 L 502.1,322.9 L 504.6,323.2 L 507.1,323.5 L 509.6,323.8 L 512.1,324.1 L 514.6,324.4 L 517.1,324.6 L 519.6,324.9 L 522.1,325.2 L 524.6,325.5 L 527.1,325.8 L 529.6,326.1 L 532.1,326.4 L 534.6,326.7 L 537.1,327.0 L 539.6,327.3 L 542.1,327.6 L 544.6,327.9 L 547.1,328.2 L 549.6,328.5 L 552.1,328.8 L 554.6,329.1 L 557.1,329.4 L 559.6,329.7 L 562.1,330.0 L 564.5,330.3 L 567.0,330.6 L 569.5,330.9 L 572.0,331.2 L 574.5,331.5 L 577.0,331.8 L 579.5,332.1 L 582.0,332.4 L 584.5,332.7 L 587.0,340.0 L 589.5,355.9 L 592.0,365.0 L 594.5,365.0 L 597.0,365.0 L 599.5,365.0 L 602.0,365.0 L 604.5,365.0 L 607.0,365.0 L 609.5,365.0 L 612.0,365.0 L 614.5,365.0 L 617.0,365.0" class="rho"/>
<path d="M 70.0,158.3 L 72.5,158.6 L 75.0,159.1 L 77.5,159.8 L 80.0,160.6 L 82.5,161.7 L 85.0,163.0 L 87.5,164.5 L 90.0,166.0 L 92.5,167.7 L 95.0,169.4 L 97.5,171.2 L 100.0,173.0 L 102.5,174.8 L 105.0,176.6 L 107.5,178.3 L 110.0,180.1 L 112.5,181.8 L 115.0,183.5 L 117.5,185.1 L 120.0,186.7 L 122.5,188.3 L 124.9,189.8 L 127.4,191.3 L 129.9,192.8 L 132.4,194.2 L 134.9,195.7 L 137.4,197.1 L 139.9,198.4 L 142.4,199.8 L 144.9,201.2 L 147.4,202.5 L 149.9,203.8 L 152.4,205.1 L 154.9,206.4 L 157.4,207.7 L 159.9,208.9 L 162.4,210.2 L 164.9,211.4 L 167.4,212.6 L 169.9,213.8 L 172.4,215.0 L 174.9,216.2 L 177.4,217.3 L 179.9,218.5 L 182.4,219.6 L 184.9,220.8 L 187.4,221.9 L 189.9,223.0 L 192.4,224.0 L 194.9,225.1 L 197.4,226.2 L 199.9,227.2 L 202.4,228.2 L 204.9,229.3 L 207.4,230.3 L 209.9,231.3 L 212.4,232.3 L 214.9,233.3 L 217.4,234.3 L 219.9,235.3 L 222.4,236.2 L 224.9,237.2 L 227.4,238.2 L 229.9,239.1 L 232.4,240.1 L 234.8,241.0 L 237.3,242.0 L 239.8,242.9 L 242.3,243.8 L 244.8,244.8 L 247.3,245.7 L 249.8,246.6 L 252.3,247.5 L 254.8,248.4 L 257.3,249.3 L 259.8,250.2 L 262.3,251.1 L 264.8,252.0 L 267.3,252.9 L 269.8,253.8 L 272.3,254.7 L 274.8,255.6 L 277.3,256.4 L 279.8,257.3 L 282.3,258.2 L 284.8,259.1 L 287.3,259.9 L 289.8,260.8 L 292.3,261.6 L 294.8,262.5 L 297.3,263.4 L 299.8,264.2 L 302.3,265.0 L 304.8,265.9 L 307.3,266.7 L 309.8,267.6 L 312.3,268.4 L 314.8,269.2 L 317.3,270.0 L 319.8,270.9 L 322.3,271.7 L 324.8,272.5 L 327.3,273.3 L 329.8,274.1 L 332.3,274.9 L 334.8,275.7 L 337.3,276.5 L 339.8,277.3 L 342.3,278.1 L 344.7,278.9 L 347.2,279.7 L 349.7,280.5 L 352.2,281.3 L 354.7,282.0 L 357.2,282.8 L 359.7,283.6 L 362.2,284.3 L 364.7,285.1 L 367.2,285.9 L 369.7,286.6 L 372.2,287.4 L 374.7,288.1 L 377.2,288.9 L 379.7,289.6 L 382.2,290.3 L 384.7,291.1 L 387.2,291.8 L 389.7,292.5 L 392.2,293.2 L 394.7,294.0 L 397.2,294.7 L 399.7,295.4 L 402.2,296.1 L 404.7,296.8 L 407.2,297.5 L 409.7,298.2 L 412.2,298.9 L 414.7,299.6 L 417.2,300.2 L 419.7,300.9 L 422.2,301.6 L 424.7,302.3 L 427.2,302.9 L 429.7,303.6 L 432.2,304.3 L 434.7,304.9 L 437.2,305.6 L 439.7,306.2 L 442.2,306.9 L 444.7,307.5 L 447.2,308.2 L 449.7,308.8 L 452.2,309.4 L 454.6,310.0 L 457.1,310.7 L 459.6,311.3 L 462.1,311.9 L 464.6,312.5 L 467.1,313.1 L 469.6,313.7 L 472.1,314.3 L 474.6,314.9 L 477.1,315.5 L 479.6,316.1 L 482.1,316.7 L 484.6,317.3 L 487.1,317.8 L 489.6,318.4 L 492.1,319.0 L 494.6,319.6 L 497.1,320.1 L 499.6,320.7 L 502.1,321.2 L 504.6,321.8 L 507.1,322.3 L 509.6,322.9 L 512.1,323.4 L 514.6,324.0 L 517.1,324.5 L 519.6,325.0 L 522.1,325.6 L 524.6,326.1 L 527.1,326.6 L 529.6,327.2 L 532.1,327.7 L 534.6,328.2 L 537.1,328.7 L 539.6,329.2 L 542.1,329.8 L 544.6,330.3 L 547.1,330.8 L 549.6,331.3 L 552.1,331.8 L 554.6,332.3 L 557.1,332.8 L 559.6,333.3 L 562.1,333.8 L 564.5,334.4 L 567.0,334.9 L 569.5,335.4 L 572.0,335.9 L 574.5,336.4 L 577.0,336.9 L 579.5,337.4 L 582.0,337.9 L 584.5,338.4 L 587.0,338.9 L 589.5,339.4 L 592.0,339.9 L 594.5,340.4 L 597.0,340.8 L 599.5,341.3 L 602.0,341.7 L 604.5,342.1 L 607.0,342.5 L 609.5,342.9 L 612.0,343.3 L 614.5,343.7 L 617.0,344.0" class="sig"/>
<path d="M 75.5,309.2 L 80.9,288.4 L 86.4,274.1 L 91.9,263.6 L 97.4,255.7 L 102.8,249.7 L 108.3,244.3 L 113.8,239.3 L 119.2,234.6 L 124.7,229.9 L 130.2,225.4 L 135.6,221.0 L 141.1,216.8 L 146.6,212.7 L 152.1,208.8 L 157.5,205.0 L 163.0,201.4 L 168.5,197.9 L 173.9,194.6 L 179.4,191.4 L 184.9,188.4 L 190.3,185.4 L 195.8,182.5 L 201.3,179.6 L 206.8,176.8 L 212.2,174.0 L 217.7,171.3 L 223.2,168.7 L 228.6,166.1 L 234.1,163.6 L 239.6,161.1 L 245.0,158.6 L 250.5,156.3 L 256.0,154.0 L 261.4,151.7 L 266.9,149.5 L 272.4,147.3 L 277.9,145.2 L 283.3,143.1 L 288.8,141.1 L 294.3,139.1 L 299.7,137.1 L 305.2,135.2 L 310.7,133.4 L 316.1,131.5 L 321.6,129.8 L 327.1,128.0 L 332.6,126.3 L 338.0,124.7 L 343.5,123.0 L 349.0,121.5 L 354.4,119.9 L 359.9,118.4 L 365.4,116.9 L 370.9,115.5 L 376.3,114.1 L 381.8,112.7 L 387.3,111.4 L 392.7,110.1 L 398.2,108.8 L 403.7,107.5 L 409.1,106.3 L 414.6,105.1 L 420.1,104.0 L 425.6,102.9 L 431.0,101.8 L 436.5,100.7 L 442.0,99.7 L 447.4,98.7 L 452.9,97.7 L 458.4,96.8 L 463.8,95.9 L 469.3,95.0 L 474.8,94.1 L 480.3,93.3 L 485.7,92.5 L 491.2,91.7 L 496.7,91.0 L 502.1,90.3 L 507.6,89.6 L 513.1,88.9 L 518.5,88.3 L 524.0,87.6 L 529.5,87.1 L 534.9,86.5 L 540.4,86.0 L 545.9,85.4 L 551.4,85.0 L 556.8,84.5 L 562.3,84.1 L 567.8,83.6 L 573.2,83.3 L 578.7,82.9 L 584.2,82.6 L 589.7,82.7 L 595.1,84.1 L 600.6,85.5 L 606.1,86.9 L 611.5,88.5 L 617.0,89.8" class="nt"/>
<path d="M 74.6,337.0 L 79.1,316.5 L 83.7,295.4 L 88.2,276.6 L 92.8,260.9 L 97.3,248.1 L 101.9,238.0 L 106.5,230.2 L 111.0,224.0 L 115.6,219.1 L 120.1,215.0 L 124.7,211.3 L 129.3,207.8 L 133.8,204.4 L 138.4,201.0 L 142.9,197.7 L 147.5,194.5 L 152.1,191.4 L 156.6,188.4 L 161.2,185.6 L 165.7,183.1 L 170.3,180.7 L 174.8,178.6 L 179.4,176.6 L 184.0,174.8 L 188.5,173.2 L 193.1,171.5 L 197.6,169.9 L 202.2,168.2 L 206.8,166.5 L 211.3,164.7 L 215.9,162.9 L 220.4,161.1 L 225.0,159.2 L 229.5,157.3 L 234.1,155.4 L 238.7,153.5 L 243.2,151.6 L 247.8,149.7 L 252.3,147.9 L 256.9,146.0 L 261.4,144.2 L 266.0,142.4 L 270.6,140.7 L 275.1,138.9 L 279.7,137.2 L 284.2,135.6 L 288.8,133.9 L 293.4,132.3 L 297.9,130.8 L 302.5,129.3 L 307.0,127.8 L 311.6,126.4 L 316.1,125.0 L 320.7,123.7 L 325.3,122.4 L 329.8,121.2 L 334.4,120.0 L 338.9,118.8 L 343.5,117.7 L 348.1,116.6 L 352.6,115.6 L 357.2,114.7 L 361.7,113.7 L 366.3,112.8 L 370.9,112.0 L 375.4,111.2 L 380.0,110.5 L 384.5,109.8 L 389.1,109.1 L 393.6,108.5 L 398.2,107.9 L 402.8,107.4 L 407.3,106.9 L 411.9,106.4 L 416.4,106.0 L 421.0,105.7 L 425.6,105.3 L 430.1,105.1 L 434.7,104.8 L 439.2,104.6 L 443.8,104.4 L 448.3,104.3 L 452.9,104.1 L 457.5,104.1 L 462.0,104.0 L 466.6,104.0 L 471.1,104.0 L 475.7,104.0 L 480.3,104.0 L 484.8,104.0 L 489.4,104.1 L 493.9,104.1 L 498.5,104.2 L 503.0,104.2 L 507.6,104.3 L 512.2,104.3 L 516.7,104.2 L 521.3,104.1 L 525.8,104.0 L 530.4,103.7 L 534.9,103.4 L 539.5,102.9 L 544.1,102.3 L 548.6,101.5 L 553.2,100.5 L 557.7,99.3 L 562.3,98.0 L 566.9,96.6 L 571.4,95.3 L 576.0,94.5 L 580.5,94.4 L 585.1,95.6 L 589.7,98.3 L 594.2,102.5 L 598.8,107.8 L 603.3,114.0 L 607.9,120.6 L 612.4,127.3 L 617.0,133.8" class="fw"/>
<line x1="111.99" y1="210.98" x2="111.99" y2="239.93" class="err"/>
<line x1="108.99" y1="210.98" x2="114.99" y2="210.98" class="err"/>
<line x1="108.99" y1="239.93" x2="114.99" y2="239.93" class="err"/>
<circle cx="111.99" cy="225.45" r="2.5" class="obs"/>
<line x1="154.39" y1="183.93" x2="154.39" y2="195.69" class="err"/>
<line x1="151.39" y1="183.93" x2="157.39" y2="183.93" class="err"/>
<line x1="151.39" y1="195.69" x2="157.39" y2="195.69" class="err"/>
<circle cx="154.39" cy="189.81" r="2.5" class="obs"/>
<line x1="195.98" y1="166.64" x2="195.98" y2="170.92" class="err"/>
<line x1="192.98" y1="166.64" x2="198.98" y2="166.64" class="err"/>
<line x1="192.98" y1="170.92" x2="198.98" y2="170.92" class="err"/>
<circle cx="195.98" cy="168.78" r="2.5" class="obs"/>
<line x1="238.38" y1="151.99" x2="238.38" y2="154.92" class="err"/>
<line x1="235.38" y1="151.99" x2="241.38" y2="151.99" class="err"/>
<line x1="235.38" y1="154.92" x2="241.38" y2="154.92" class="err"/>
<circle cx="238.38" cy="153.45" r="2.5" class="obs"/>
<line x1="280.37" y1="135.77" x2="280.37" y2="139.05" class="err"/>
<line x1="277.37" y1="135.77" x2="283.37" y2="135.77" class="err"/>
<line x1="277.37" y1="139.05" x2="283.37" y2="139.05" class="err"/>
<circle cx="280.37" cy="137.41" r="2.5" class="obs"/>
<line x1="322.77" y1="118.84" x2="322.77" y2="124.97" class="err"/>
<line x1="319.77" y1="118.84" x2="325.77" y2="118.84" class="err"/>
<line x1="319.77" y1="124.97" x2="325.77" y2="124.97" class="err"/>
<circle cx="322.77" cy="121.91" r="2.5" class="obs"/>
<line x1="364.76" y1="105.62" x2="364.76" y2="113.25" class="err"/>
<line x1="361.76" y1="105.62" x2="367.76" y2="105.62" class="err"/>
<line x1="361.76" y1="113.25" x2="367.76" y2="113.25" class="err"/>
<circle cx="364.76" cy="109.43" r="2.5" class="obs"/>
<line x1="406.75" y1="99.20" x2="406.75" y2="106.83" class="err"/>
<line x1="403.75" y1="99.20" x2="409.75" y2="99.20" class="err"/>
<line x1="403.75" y1="106.83" x2="409.75" y2="106.83" class="err"/>
<circle cx="406.75" cy="103.02" r="2.5" class="obs"/>
<line x1="448.33" y1="100.70" x2="448.33" y2="107.83" class="err"/>
<line x1="445.33" y1="100.70" x2="451.33" y2="100.70" class="err"/>
<line x1="445.33" y1="107.83" x2="451.33" y2="107.83" class="err"/>
<circle cx="448.33" cy="104.27" r="2.5" class="obs"/>
<line x1="491.55" y1="103.94" x2="491.55" y2="109.22" class="err"/>
<line x1="488.55" y1="103.94" x2="494.55" y2="103.94" class="err"/>
<line x1="488.55" y1="109.22" x2="494.55" y2="109.22" class="err"/>
<circle cx="491.55" cy="106.58" r="2.5" class="obs"/>
<line x1="534.76" y1="100.99" x2="534.76" y2="108.61" class="err"/>
<line x1="531.76" y1="100.99" x2="537.76" y2="100.99" class="err"/>
<line x1="531.76" y1="108.61" x2="537.76" y2="108.61" class="err"/>
<circle cx="534.76" cy="104.80" r="2.5" class="obs"/>
<line x1="574.31" y1="91.29" x2="574.31" y2="106.19" class="err"/>
<line x1="571.31" y1="91.29" x2="577.31" y2="91.29" class="err"/>
<line x1="571.31" y1="106.19" x2="577.31" y2="106.19" class="err"/>
<circle cx="574.31" cy="98.74" r="2.5" class="obs"/>
<g class="legend">
<line x1="82" y1="69" x2="106" y2="69" class="fw"/>
<text x="112" y="73" class="lbl-l">framework fit</text>
<line x1="82" y1="87" x2="106" y2="87" class="nt"/>
<text x="112" y="91" class="lbl-l">Newtonian (no halo)</text>
<circle cx="94" cy="105" r="2.5" class="obs"/>
<text x="112" y="109" class="lbl">observed V±err</text>
</g>
<g class="legend">
<line x1="442" y1="69" x2="466" y2="69" class="rho"/>
<text x="472" y="73" class="lbl-r">ρ(r) raw</text>
<line x1="442" y1="87" x2="466" y2="87" class="sig"/>
<text x="472" y="91" class="lbl-s">Σ(r) cumulative</text>
<text x="442" y="113" class="lbl-r">ρ peak: 143 M☉/pc²</text>
</g>
<rect x="705" y="55" width="170" height="170" class="preview-bg"/>
<defs><radialGradient id="g_UGC05716" cx="0.5" cy="0.5" r="0.5">
  <stop offset="0.0000" stop-color="rgb(246,61.5,61.5)"/>
  <stop offset="0.0313" stop-color="rgb(198,49.5,49.5)"/>
  <stop offset="0.0625" stop-color="rgb(154,38.5,38.5)"/>
  <stop offset="0.0938" stop-color="rgb(143,35.75,35.75)"/>
  <stop offset="0.1250" stop-color="rgb(138,34.5,34.5)"/>
  <stop offset="0.1563" stop-color="rgb(134,33.5,33.5)"/>
  <stop offset="0.1875" stop-color="rgb(130,32.5,32.5)"/>
  <stop offset="0.2188" stop-color="rgb(126,31.5,31.5)"/>
  <stop offset="0.2500" stop-color="rgb(124,31,31)"/>
  <stop offset="0.2813" stop-color="rgb(122,30.5,30.5)"/>
  <stop offset="0.3125" stop-color="rgb(120,30,30)"/>
  <stop offset="0.3438" stop-color="rgb(118,29.5,29.5)"/>
  <stop offset="0.3750" stop-color="rgb(117,29.25,29.25)"/>
  <stop offset="0.4063" stop-color="rgb(115,28.75,28.75)"/>
  <stop offset="0.4375" stop-color="rgb(113,28.25,28.25)"/>
  <stop offset="0.4688" stop-color="rgb(111,27.75,27.75)"/>
  <stop offset="0.5000" stop-color="rgb(109,27.25,27.25)"/>
  <stop offset="0.5313" stop-color="rgb(107,26.75,26.75)"/>
  <stop offset="0.5625" stop-color="rgb(106,26.5,26.5)"/>
  <stop offset="0.5938" stop-color="rgb(104,26,26)"/>
  <stop offset="0.6250" stop-color="rgb(102,25.5,25.5)"/>
  <stop offset="0.6563" stop-color="rgb(100,25,25)"/>
  <stop offset="0.6875" stop-color="rgb(98,24.5,24.5)"/>
  <stop offset="0.7188" stop-color="rgb(96,24,24)"/>
  <stop offset="0.7500" stop-color="rgb(95,23.75,23.75)"/>
  <stop offset="0.7813" stop-color="rgb(93,23.25,23.25)"/>
  <stop offset="0.8125" stop-color="rgb(91,22.75,22.75)"/>
  <stop offset="0.8438" stop-color="rgb(89,22.25,22.25)"/>
  <stop offset="0.8750" stop-color="rgb(87,21.75,21.75)"/>
  <stop offset="0.9063" stop-color="rgb(85,21.25,21.25)"/>
  <stop offset="0.9375" stop-color="rgb(84,21,21)"/>
  <stop offset="0.9688" stop-color="rgb(82,20.5,20.5)"/>
  <stop offset="1.0000" stop-color="rgb(0,0,0)"/>
</radialGradient></defs>
<circle cx="790" cy="140" r="81" fill="url(#g_UGC05716)"/>
<text x="790" y="49" text-anchor="middle" class="preview-lbl">face-on luminance from ρ(r)</text>
<text x="790" y="239" text-anchor="middle" class="preview-lbl">edge at r = 12.8 kpc</text>
</svg>