<svg xmlns="http://www.w3.org/2000/svg" viewBox="0 0 960 450" width="960" height="450" font-family="sans-serif" font-size="12">
<style>
  .ax { stroke: #333; stroke-width: 1; fill: none; }
  .grid { stroke: #ddd; stroke-width: 0.5; fill: none; }
  .lbl { fill: #333; }
  .lbl-l { fill: #0066cc; }
  .lbl-r { fill: #b03030; }
  .obs { fill: #222; }
  .err { stroke: #555; stroke-width: 0.8; fill: none; }
  .fw { stroke: #0066cc; stroke-width: 2.2; fill: none; }
  .nt { stroke: #cc6600; stroke-width: 1.6; fill: none; stroke-dasharray: 5,3; }
  .mond { stroke: #7b2cbf; stroke-width: 1.8; fill: none; stroke-dasharray: 7,3; }
  .lbl-p { fill: #cc7000; }
  .lbl-m { fill: #7b2cbf; }
  .rho { stroke: #b03030; stroke-width: 2.0; fill: none; }
  .phot { stroke: #cc7000; stroke-width: 1.8; fill: none; }
  .mbar { stroke: #8e44ad; stroke-width: 1.8; fill: none; opacity: 0.9; }
  .mph { stroke: #c77dff; stroke-width: 1.6; fill: none; stroke-dasharray: 4,3; opacity: 0.95; }
  .title { fill: #111; font-size: 16px; font-weight: 600; }
  .subtitle { fill: #555; font-size: 11px; }
  .preview-bg { fill: #000; }
  .preview-lbl { fill: #888; font-size: 10px; }
  .legend { font-size: 11px; }
</style>
<text x="378.5" y="22" text-anchor="middle" class="title">UGC03546</text>
<text x="378.5" y="38" text-anchor="middle" class="subtitle">rMax=29.2 kpc, N=30, FW=11.7 km/s, 5.2%, 3.73σ, MOND=29.6 km/s, 12.7%, 3.49σ, amp=615</text>
<line x1="70" y1="395.0" x2="687" y2="395.0" class="grid"/>
<text x="64" y="399.0" text-anchor="end" class="lbl-l">0</text>
<line x1="70" y1="327.0" x2="687" y2="327.0" class="grid"/>
<text x="64" y="331.0" text-anchor="end" class="lbl-l">74</text>
<line x1="70" y1="259.0" x2="687" y2="259.0" class="grid"/>
<text x="64" y="263.0" text-anchor="end" class="lbl-l">148</text>
<line x1="70" y1="191.0" x2="687" y2="191.0" class="grid"/>
<text x="64" y="195.0" text-anchor="end" class="lbl-l">221</text>
<line x1="70" y1="123.0" x2="687" y2="123.0" class="grid"/>
<text x="64" y="127.0" text-anchor="end" class="lbl-l">295</text>
<line x1="70" y1="55.0" x2="687" y2="55.0" class="grid"/>
<text x="64" y="59.0" text-anchor="end" class="lbl-l">369</text>
<text x="693" y="399.0" text-anchor="start" class="lbl-r">0.0</text>
<text x="693" y="353.7" text-anchor="start" class="lbl-r">0.2</text>
<text x="693" y="308.3" text-anchor="start" class="lbl-r">0.4</text>
<text x="693" y="263.0" text-anchor="start" class="lbl-r">0.6</text>
<text x="693" y="217.7" text-anchor="start" class="lbl-r">0.8</text>
<text x="693" y="172.3" text-anchor="start" class="lbl-r">1.0</text>
<line x1="70.0" y1="55" x2="70.0" y2="395" class="grid"/>
<text x="70.0" y="411" text-anchor="middle" class="lbl">0.0</text>
<line x1="172.8" y1="55" x2="172.8" y2="395" class="grid"/>
<text x="172.8" y="411" text-anchor="middle" class="lbl">5.4</text>
<line x1="275.7" y1="55" x2="275.7" y2="395" class="grid"/>
<text x="275.7" y="411" text-anchor="middle" class="lbl">10.8</text>
<line x1="378.5" y1="55" x2="378.5" y2="395" class="grid"/>
<text x="378.5" y="411" text-anchor="middle" class="lbl">16.2</text>
<line x1="481.3" y1="55" x2="481.3" y2="395" class="grid"/>
<text x="481.3" y="411" text-anchor="middle" class="lbl">21.6</text>
<line x1="584.2" y1="55" x2="584.2" y2="395" class="grid"/>
<text x="584.2" y="411" text-anchor="middle" class="lbl">27.0</text>
<line x1="687.0" y1="55" x2="687.0" y2="395" class="grid"/>
<text x="687.0" y="411" text-anchor="middle" class="lbl">32.3</text>
<text x="378.5" y="438" text-anchor="middle" class="lbl">radius (kpc)</text>
<text x="16" y="225" text-anchor="middle" class="lbl-l" transform="rotate(-90, 16, 225)">velocity (km/s)</text>
<text x="724" y="225" text-anchor="middle" class="lbl-r" transform="rotate(-90, 724, 225)">profiles (normalized to peak)</text>
<rect x="70" y="55" width="617" height="340" class="ax"/>
<path d="M 70.0,168.3 L 72.8,213.3 L 75.6,258.3 L 78.5,303.3 L 81.3,348.2 L 84.1,364.4 L 86.9,364.7 L 89.7,365.1 L 92.5,365.4 L 95.4,365.8 L 98.2,366.1 L 101.0,366.5 L 103.8,366.8 L 106.6,367.2 L 109.4,367.5 L 112.3,367.9 L 115.1,368.2 L 117.9,368.6 L 120.7,368.9 L 123.5,369.3 L 126.3,369.6 L 129.2,370.0 L 132.0,370.3 L 134.8,370.7 L 137.6,371.0 L 140.4,371.4 L 143.3,371.8 L 146.1,372.5 L 148.9,373.4 L 151.7,374.3 L 154.5,375.1 L 157.3,375.6 L 160.2,375.6 L 163.0,375.7 L 165.8,375.8 L 168.6,375.9 L 171.4,375.9 L 174.2,376.0 L 177.1,376.1 L 179.9,376.2 L 182.7,376.2 L 185.5,376.3 L 188.3,376.4 L 191.1,376.5 L 194.0,376.5 L 196.8,376.6 L 199.6,376.7 L 202.4,376.8 L 205.2,376.8 L 208.1,376.9 L 210.9,377.0 L 213.7,377.1 L 216.5,377.1 L 219.3,377.2 L 222.1,377.3 L 225.0,377.4 L 227.8,377.4 L 230.6,377.5 L 233.4,377.6 L 236.2,377.7 L 239.0,377.7 L 241.9,377.8 L 244.7,377.9 L 247.5,378.0 L 250.3,378.0 L 253.1,378.1 L 255.9,378.2 L 258.8,378.3 L 261.6,378.3 L 264.4,378.4 L 267.2,378.5 L 270.0,378.6 L 272.8,378.7 L 275.7,378.7 L 278.5,378.8 L 281.3,378.9 L 284.1,379.0 L 286.9,379.0 L 289.8,379.1 L 292.6,379.2 L 295.4,379.3 L 298.2,379.3 L 301.0,379.4 L 303.8,379.5 L 306.7,379.6 L 309.5,379.6 L 312.3,379.7 L 315.1,379.8 L 317.9,379.9 L 320.7,379.9 L 323.6,380.0 L 326.4,380.1 L 329.2,380.2 L 332.0,380.2 L 334.8,380.3 L 337.6,380.4 L 340.5,380.5 L 343.3,380.5 L 346.1,380.6 L 348.9,380.7 L 351.7,380.8 L 354.6,380.8 L 357.4,380.9 L 360.2,381.0 L 363.0,381.1 L 365.8,381.1 L 368.6,381.2 L 371.5,381.3 L 374.3,381.4 L 377.1,381.4 L 379.9,381.5 L 382.7,381.6 L 385.5,381.7 L 388.4,381.7 L 391.2,381.8 L 394.0,381.9 L 396.8,382.0 L 399.6,382.0 L 402.4,382.1 L 405.3,382.2 L 408.1,382.3 L 410.9,382.3 L 413.7,382.4 L 416.5,382.5 L 419.4,382.6 L 422.2,382.6 L 425.0,382.7 L 427.8,382.8 L 430.6,382.9 L 433.4,382.9 L 436.3,383.0 L 439.1,383.1 L 441.9,383.2 L 444.7,383.2 L 447.5,383.3 L 450.3,383.4 L 453.2,383.5 L 456.0,383.5 L 458.8,383.6 L 461.6,383.7 L 464.4,383.8 L 467.2,383.8 L 470.1,383.9 L 472.9,384.0 L 475.7,384.1 L 478.5,384.1 L 481.3,384.2 L 484.2,384.3 L 487.0,384.4 L 489.8,384.4 L 492.6,384.5 L 495.4,384.6 L 498.2,384.7 L 501.1,384.7 L 503.9,384.8 L 506.7,384.9 L 509.5,385.0 L 512.3,385.1 L 515.1,385.1 L 518.0,385.2 L 520.8,385.3 L 523.6,385.4 L 526.4,385.4 L 529.2,385.5 L 532.0,385.6 L 534.9,385.7 L 537.7,385.7 L 540.5,385.8 L 543.3,385.9 L 546.1,386.0 L 548.9,386.0 L 551.8,386.1 L 554.6,386.2 L 557.4,386.3 L 560.2,386.3 L 563.0,386.4 L 565.9,386.5 L 568.7,386.6 L 571.5,386.6 L 574.3,386.7 L 577.1,386.8 L 579.9,386.9 L 582.8,386.9 L 585.6,387.0 L 588.4,387.1 L 591.2,387.2 L 594.0,387.2 L 596.8,387.3 L 599.7,387.4 L 602.5,387.5 L 605.3,387.5 L 608.1,387.6 L 610.9,387.7 L 613.7,387.8 L 616.6,387.8 L 619.4,387.9 L 622.2,388.0 L 625.0,388.1 L 627.8,388.1 L 630.7,388.2 L 633.5,388.3 L 636.3,388.4 L 639.1,388.4 L 641.9,388.5 L 644.7,388.6 L 647.6,388.7 L 650.4,388.7 L 653.2,390.1 L 656.0,393.2 L 658.8,395.0 L 661.6,395.0 L 664.5,395.0 L 667.3,395.0 L 670.1,395.0 L 672.9,395.0 L 675.7,395.0 L 678.5,395.0 L 681.4,395.0 L 684.2,395.0 L 687.0,395.0" class="rho"/>
<path d="M 82.0,168.3 L 85.1,269.0 L 88.1,311.5 L 91.2,332.5 L 94.2,345.0 L 97.3,351.0 L 100.3,354.0 L 106.2,360.1 L 109.3,362.7 L 112.3,365.3 L 115.4,367.9 L 123.2,375.1 L 124.5,376.1 L 127.6,378.2 L 149.5,388.1 L 176.0,390.8 L 202.8,391.9 L 229.3,392.6 L 255.6,393.4 L 282.5,394.1 L 308.6,394.3 L 334.7,394.5 L 362.8,394.7 L 388.9,394.8 L 414.8,394.9 L 441.0,395.0 L 469.0,395.0 L 507.2,395.0 L 547.2,395.0 L 627.5,395.0" class="phot"/>
<path d="M 82.0,168.3 L 85.1,283.2 L 88.1,353.5 L 91.2,367.9 L 94.2,375.0 L 97.3,378.8 L 100.3,380.5 L 106.2,380.8 L 109.3,381.0 L 112.3,381.2 L 115.4,381.9 L 123.2,383.5 L 124.5,385.1 L 127.6,387.0 L 149.5,390.1 L 176.0,392.8 L 202.8,393.6 L 229.3,393.6 L 255.6,393.8 L 282.5,394.2 L 308.6,394.5 L 334.7,394.5 L 362.8,394.6 L 388.9,394.8 L 414.8,394.9 L 441.0,395.0 L 469.0,395.0 L 507.2,395.0 L 547.2,395.0 L 627.5,395.0" class="mbar"/>
<path d="M 82.0,367.3 L 85.1,334.5 L 88.1,294.2 L 91.2,258.6 L 94.2,228.7 L 97.3,206.1 L 100.3,190.4 L 106.2,180.3 L 109.3,174.8 L 112.3,172.7 L 115.4,171.3 L 123.2,169.6 L 124.5,168.3 L 127.6,169.1 L 149.5,177.6 L 176.0,196.9 L 202.8,219.2 L 229.3,236.2 L 255.6,250.1 L 282.5,264.9 L 308.6,276.5 L 334.7,283.7 L 362.8,291.6 L 388.9,302.4 L 414.8,313.1 L 441.0,322.0 L 469.0,329.5 L 507.2,335.9 L 547.2,341.2 L 627.5,345.1" class="mph"/>
<path d="M 76.2,310.0 L 82.3,302.5 L 88.5,305.7 L 94.7,303.8 L 100.8,300.2 L 107.0,296.0 L 113.2,291.6 L 119.4,287.3 L 125.5,283.2 L 131.7,279.3 L 137.9,275.6 L 144.0,272.2 L 150.2,269.2 L 156.4,266.7 L 162.6,264.5 L 168.7,262.2 L 174.9,259.8 L 181.1,257.5 L 187.2,255.2 L 193.4,252.9 L 199.6,250.6 L 205.7,248.4 L 211.9,246.2 L 218.1,244.0 L 224.3,241.9 L 230.4,239.8 L 236.6,237.8 L 242.8,235.8 L 248.9,233.8 L 255.1,231.8 L 261.3,230.0 L 267.4,228.1 L 273.6,226.3 L 279.8,224.5 L 286.0,222.8 L 292.1,221.1 L 298.3,219.5 L 304.5,217.8 L 310.6,216.3 L 316.8,214.7 L 323.0,213.2 L 329.1,211.7 L 335.3,210.3 L 341.5,208.9 L 347.6,207.5 L 353.8,206.2 L 360.0,204.9 L 366.2,203.6 L 372.3,202.4 L 378.5,201.2 L 384.7,200.0 L 390.8,198.9 L 397.0,197.7 L 403.2,196.6 L 409.4,195.6 L 415.5,194.5 L 421.7,193.5 L 427.9,192.6 L 434.0,191.6 L 440.2,190.7 L 446.4,189.8 L 452.5,188.9 L 458.7,188.1 L 464.9,187.3 L 471.1,186.5 L 477.2,185.7 L 483.4,185.0 L 489.6,184.3 L 495.7,183.6 L 501.9,182.9 L 508.1,182.3 L 514.2,181.7 L 520.4,181.1 L 526.6,180.5 L 532.8,180.0 L 538.9,179.5 L 545.1,179.0 L 551.3,178.5 L 557.4,178.1 L 563.6,177.6 L 569.8,177.2 L 575.9,176.8 L 582.1,176.5 L 588.3,176.2 L 594.4,175.9 L 600.6,175.6 L 606.8,175.3 L 613.0,175.1 L 619.1,174.8 L 625.3,174.6 L 631.5,174.5 L 637.6,174.3 L 643.8,174.2 L 650.0,174.1 L 656.1,174.3 L 662.3,175.4 L 668.5,176.5 L 674.7,177.6 L 680.8,178.8 L 687.0,179.9" class="nt"/>
<path d="M 82.0,90.1 L 85.1,105.2 L 88.1,119.3 L 91.2,131.6 L 94.2,141.5 L 97.3,150.0 L 100.3,156.5 L 106.2,164.7 L 109.3,167.3 L 112.3,169.1 L 115.4,170.4 L 123.2,173.1 L 124.5,173.5 L 127.6,174.6 L 149.5,184.6 L 176.0,195.9 L 202.8,200.3 L 229.3,202.1 L 255.6,201.2 L 282.5,203.1 L 308.6,204.3 L 334.7,204.4 L 362.8,204.2 L 388.9,205.2 L 414.8,206.9 L 441.0,208.9 L 469.0,211.0 L 507.2,213.9 L 547.2,216.1 L 627.5,219.2" class="mond"/>
<path d="M 75.1,259.6 L 80.3,191.9 L 85.4,158.2 L 90.6,155.6 L 95.7,167.5 L 100.8,181.1 L 106.0,189.8 L 111.1,195.6 L 116.3,198.3 L 121.4,199.5 L 126.6,199.3 L 131.7,198.3 L 136.8,196.7 L 142.0,195.3 L 147.1,194.9 L 152.3,196.3 L 157.4,199.4 L 162.6,203.5 L 167.7,207.7 L 172.8,211.2 L 178.0,214.1 L 183.1,216.3 L 188.3,218.1 L 193.4,219.5 L 198.5,220.5 L 203.7,221.3 L 208.8,221.8 L 214.0,222.2 L 219.1,222.4 L 224.3,222.5 L 229.4,222.5 L 234.5,222.3 L 239.7,222.1 L 244.8,221.8 L 250.0,221.5 L 255.1,221.1 L 260.2,220.7 L 265.4,220.2 L 270.5,219.7 L 275.7,219.2 L 280.8,218.7 L 285.9,218.2 L 291.1,217.7 L 296.2,217.2 L 301.4,216.7 L 306.5,216.2 L 311.7,215.7 L 316.8,215.2 L 321.9,214.8 L 327.1,214.3 L 332.2,213.9 L 337.4,213.5 L 342.5,213.1 L 347.7,212.8 L 352.8,212.5 L 357.9,212.2 L 363.1,211.9 L 368.2,211.7 L 373.4,211.5 L 378.5,211.3 L 383.6,211.1 L 388.8,211.0 L 393.9,210.9 L 399.1,210.9 L 404.2,210.8 L 409.4,210.8 L 414.5,210.9 L 419.6,211.0 L 424.8,211.1 L 429.9,211.2 L 435.1,211.4 L 440.2,211.6 L 445.3,211.8 L 450.5,212.0 L 455.6,212.3 L 460.8,212.7 L 465.9,213.0 L 471.1,213.4 L 476.2,213.8 L 481.3,214.3 L 486.5,214.7 L 491.6,215.2 L 496.8,215.8 L 501.9,216.3 L 507.0,216.9 L 512.2,217.5 L 517.3,218.2 L 522.5,218.8 L 527.6,219.5 L 532.8,220.2 L 537.9,221.0 L 543.0,221.7 L 548.2,222.5 L 553.3,223.3 L 558.5,224.1 L 563.6,224.8 L 568.7,225.6 L 573.9,226.4 L 579.0,227.2 L 584.2,228.0 L 589.3,228.7 L 594.4,229.3 L 599.6,229.9 L 604.7,230.4 L 609.9,230.7 L 615.0,230.8 L 620.2,230.6 L 625.3,230.1 L 630.4,229.2 L 635.6,228.0 L 640.7,226.8 L 645.9,226.3 L 651.0,227.0 L 656.2,229.7 L 661.3,234.2 L 666.4,240.1 L 671.6,246.5 L 676.7,252.7 L 681.9,258.5 L 687.0,263.5" class="fw"/>
<line x1="82.02" y1="85.91" x2="82.02" y2="221.48" class="err"/>
<line x1="79.02" y1="85.91" x2="85.02" y2="85.91" class="err"/>
<line x1="79.02" y1="221.48" x2="85.02" y2="221.48" class="err"/>
<circle cx="82.02" cy="153.70" r="2.5" class="obs"/>
<line x1="85.07" y1="113.63" x2="85.07" y2="215.86" class="err"/>
<line x1="82.07" y1="113.63" x2="88.07" y2="113.63" class="err"/>
<line x1="82.07" y1="215.86" x2="88.07" y2="215.86" class="err"/>
<circle cx="85.07" cy="164.75" r="2.5" class="obs"/>
<line x1="88.12" y1="133.53" x2="88.12" y2="212.55" class="err"/>
<line x1="85.12" y1="133.53" x2="91.12" y2="133.53" class="err"/>
<line x1="85.12" y1="212.55" x2="91.12" y2="212.55" class="err"/>
<circle cx="88.12" cy="173.04" r="2.5" class="obs"/>
<line x1="91.17" y1="150.10" x2="91.17" y2="208.86" class="err"/>
<line x1="88.17" y1="150.10" x2="94.17" y2="150.10" class="err"/>
<line x1="88.17" y1="208.86" x2="94.17" y2="208.86" class="err"/>
<circle cx="91.17" cy="179.48" r="2.5" class="obs"/>
<line x1="94.22" y1="158.48" x2="94.22" y2="211.53" class="err"/>
<line x1="91.22" y1="158.48" x2="97.22" y2="158.48" class="err"/>
<line x1="91.22" y1="211.53" x2="97.22" y2="211.53" class="err"/>
<circle cx="94.22" cy="185.01" r="2.5" class="obs"/>
<line x1="97.27" y1="165.48" x2="97.27" y2="210.06" class="err"/>
<line x1="94.27" y1="165.48" x2="100.27" y2="165.48" class="err"/>
<line x1="94.27" y1="210.06" x2="100.27" y2="210.06" class="err"/>
<circle cx="97.27" cy="187.77" r="2.5" class="obs"/>
<line x1="100.33" y1="179.30" x2="100.33" y2="201.77" class="err"/>
<line x1="97.33" y1="179.30" x2="103.33" y2="179.30" class="err"/>
<line x1="97.33" y1="201.77" x2="103.33" y2="201.77" class="err"/>
<circle cx="100.33" cy="190.54" r="2.5" class="obs"/>
<line x1="106.24" y1="185.62" x2="106.24" y2="197.30" class="err"/>
<line x1="103.24" y1="185.62" x2="109.24" y2="185.62" class="err"/>
<line x1="103.24" y1="197.30" x2="109.24" y2="197.30" class="err"/>
<circle cx="106.24" cy="191.46" r="2.5" class="obs"/>
<line x1="109.29" y1="180.22" x2="109.29" y2="202.69" class="err"/>
<line x1="106.29" y1="180.22" x2="112.29" y2="180.22" class="err"/>
<line x1="106.29" y1="202.69" x2="112.29" y2="202.69" class="err"/>
<circle cx="109.29" cy="191.46" r="2.5" class="obs"/>
<line x1="112.34" y1="174.97" x2="112.34" y2="206.10" class="err"/>
<line x1="109.34" y1="174.97" x2="115.34" y2="174.97" class="err"/>
<line x1="109.34" y1="206.10" x2="115.34" y2="206.10" class="err"/>
<circle cx="112.34" cy="190.54" r="2.5" class="obs"/>
<line x1="115.39" y1="166.59" x2="115.39" y2="214.48" class="err"/>
<line x1="112.39" y1="166.59" x2="118.39" y2="166.59" class="err"/>
<line x1="112.39" y1="214.48" x2="118.39" y2="214.48" class="err"/>
<circle cx="115.39" cy="190.54" r="2.5" class="obs"/>
<line x1="123.21" y1="179.39" x2="123.21" y2="203.52" class="err"/>
<line x1="120.21" y1="179.39" x2="126.21" y2="179.39" class="err"/>
<line x1="120.21" y1="203.52" x2="126.21" y2="203.52" class="err"/>
<circle cx="123.21" cy="191.46" r="2.5" class="obs"/>
<line x1="124.55" y1="180.59" x2="124.55" y2="202.32" class="err"/>
<line x1="121.55" y1="180.59" x2="127.55" y2="180.59" class="err"/>
<line x1="121.55" y1="202.32" x2="127.55" y2="202.32" class="err"/>
<circle cx="124.55" cy="191.46" r="2.5" class="obs"/>
<line x1="127.60" y1="171.29" x2="127.60" y2="213.47" class="err"/>
<line x1="124.60" y1="171.29" x2="130.60" y2="171.29" class="err"/>
<line x1="124.60" y1="213.47" x2="130.60" y2="213.47" class="err"/>
<circle cx="127.60" cy="192.38" r="2.5" class="obs"/>
<line x1="149.54" y1="198.41" x2="149.54" y2="213.98" class="err"/>
<line x1="146.54" y1="198.41" x2="152.54" y2="198.41" class="err"/>
<line x1="146.54" y1="213.98" x2="152.54" y2="213.98" class="err"/>
<circle cx="149.54" cy="206.19" r="2.5" class="obs"/>
<line x1="176.05" y1="207.76" x2="176.05" y2="232.26" class="err"/>
<line x1="173.05" y1="207.76" x2="179.05" y2="207.76" class="err"/>
<line x1="173.05" y1="232.26" x2="179.05" y2="232.26" class="err"/>
<circle cx="176.05" cy="220.01" r="2.5" class="obs"/>
<line x1="202.75" y1="211.84" x2="202.75" y2="228.18" class="err"/>
<line x1="199.75" y1="211.84" x2="205.75" y2="211.84" class="err"/>
<line x1="199.75" y1="228.18" x2="205.75" y2="228.18" class="err"/>
<circle cx="202.75" cy="220.01" r="2.5" class="obs"/>
<line x1="229.26" y1="209.70" x2="229.26" y2="215.58" class="err"/>
<line x1="226.26" y1="209.70" x2="232.26" y2="209.70" class="err"/>
<line x1="226.26" y1="215.58" x2="232.26" y2="215.58" class="err"/>
<circle cx="229.26" cy="212.64" r="2.5" class="obs"/>
<line x1="255.58" y1="204.76" x2="255.58" y2="209.47" class="err"/>
<line x1="252.58" y1="204.76" x2="258.58" y2="204.76" class="err"/>
<line x1="252.58" y1="209.47" x2="258.58" y2="209.47" class="err"/>
<circle cx="255.58" cy="207.11" r="2.5" class="obs"/>
<line x1="282.48" y1="206.11" x2="282.48" y2="208.12" class="err"/>
<line x1="279.48" y1="206.11" x2="285.48" y2="206.11" class="err"/>
<line x1="279.48" y1="208.12" x2="285.48" y2="208.12" class="err"/>
<circle cx="282.48" cy="207.11" r="2.5" class="obs"/>
<line x1="308.61" y1="209.35" x2="308.61" y2="210.40" class="err"/>
<line x1="305.61" y1="209.35" x2="311.61" y2="209.35" class="err"/>
<line x1="305.61" y1="210.40" x2="311.61" y2="210.40" class="err"/>
<circle cx="308.61" cy="209.88" r="2.5" class="obs"/>
<line x1="334.74" y1="207.34" x2="334.74" y2="208.73" class="err"/>
<line x1="331.74" y1="207.34" x2="337.74" y2="207.34" class="err"/>
<line x1="331.74" y1="208.73" x2="337.74" y2="208.73" class="err"/>
<circle cx="334.74" cy="208.03" r="2.5" class="obs"/>
<line x1="362.78" y1="208.14" x2="362.78" y2="209.78" class="err"/>
<line x1="359.78" y1="208.14" x2="365.78" y2="208.14" class="err"/>
<line x1="359.78" y1="209.78" x2="365.78" y2="209.78" class="err"/>
<circle cx="362.78" cy="208.96" r="2.5" class="obs"/>
<line x1="388.91" y1="211.18" x2="388.91" y2="214.10" class="err"/>
<line x1="385.91" y1="211.18" x2="391.91" y2="211.18" class="err"/>
<line x1="385.91" y1="214.10" x2="391.91" y2="214.10" class="err"/>
<circle cx="388.91" cy="212.64" r="2.5" class="obs"/>
<line x1="414.85" y1="214.02" x2="414.85" y2="216.78" class="err"/>
<line x1="411.85" y1="214.02" x2="417.85" y2="214.02" class="err"/>
<line x1="411.85" y1="216.78" x2="417.85" y2="216.78" class="err"/>
<circle cx="414.85" cy="215.40" r="2.5" class="obs"/>
<line x1="440.98" y1="214.33" x2="440.98" y2="218.31" class="err"/>
<line x1="437.98" y1="214.33" x2="443.98" y2="214.33" class="err"/>
<line x1="437.98" y1="218.31" x2="443.98" y2="218.31" class="err"/>
<circle cx="440.98" cy="216.32" r="2.5" class="obs"/>
<line x1="469.01" y1="212.45" x2="469.01" y2="223.89" class="err"/>
<line x1="466.01" y1="212.45" x2="472.01" y2="212.45" class="err"/>
<line x1="466.01" y1="223.89" x2="472.01" y2="223.89" class="err"/>
<circle cx="469.01" cy="218.17" r="2.5" class="obs"/>
<line x1="507.16" y1="217.12" x2="507.16" y2="222.90" class="err"/>
<line x1="504.16" y1="217.12" x2="510.16" y2="217.12" class="err"/>
<line x1="504.16" y1="222.90" x2="510.16" y2="222.90" class="err"/>
<circle cx="507.16" cy="220.01" r="2.5" class="obs"/>
<line x1="547.21" y1="205.64" x2="547.21" y2="232.53" class="err"/>
<line x1="544.21" y1="205.64" x2="550.21" y2="205.64" class="err"/>
<line x1="544.21" y1="232.53" x2="550.21" y2="232.53" class="err"/>
<circle cx="547.21" cy="219.09" r="2.5" class="obs"/>
<line x1="627.51" y1="200.11" x2="627.51" y2="234.38" class="err"/>
<line x1="624.51" y1="200.11" x2="630.51" y2="200.11" class="err"/>
<line x1="624.51" y1="234.38" x2="630.51" y2="234.38" class="err"/>
<circle cx="627.51" cy="217.25" r="2.5" class="obs"/>
<g class="legend">
<line x1="82" y1="69" x2="106" y2="69" class="fw"/>
<text x="112" y="73" class="lbl-l">framework: 11.7 km/s, 5.2%, 3.73σ</text>
<line x1="82" y1="87" x2="106" y2="87" class="nt"/>
<text x="112" y="91" class="lbl-l">Newtonian: 87.9 km/s, 38.5%, 8.70σ</text>
<line x1="82" y1="105" x2="106" y2="105" class="mond"/>
<text x="112" y="109" class="lbl-m">MOND/RAR: 29.6 km/s, 12.7%, 3.49σ</text>
<circle cx="94" cy="123" r="2.5" class="obs"/>
<text x="112" y="127" class="lbl">observed V±err</text>
</g>
<g class="legend">
<line x1="472" y1="69" x2="496" y2="69" class="rho"/>
<text x="502" y="73" class="lbl-r">ρ(r) raw</text>
<line x1="472" y1="87" x2="496" y2="87" class="phot"/>
<text x="502" y="91" class="lbl-p">photometric baryonic profile</text>
<line x1="472" y1="105" x2="496" y2="105" class="mbar"/>
<text x="502" y="109" class="lbl-m">MOND baryonic annulus</text>
<line x1="472" y1="123" x2="496" y2="123" class="mph"/>
<text x="502" y="127" class="lbl-m">MOND phantom annulus</text>
<text x="472" y="147" class="lbl-r">ρ peak: 2743 M☉/pc²</text>
<text x="472" y="163" class="lbl-p">phot peak: 3468.17 (arb.)</text>
<text x="472" y="179" class="lbl-m">Σbar peak: 10380.61 M☉/pc²</text>
<text x="472" y="195" class="lbl-m">Σphantom peak: 191.48 M☉/pc²</text>
</g>
<rect x="775" y="55" width="170" height="170" class="preview-bg"/>
<defs><radialGradient id="g_UGC03546" cx="0.5" cy="0.5" r="0.5">
  <stop offset="0.0000" stop-color="rgb(255,255,255)"/>
  <stop offset="0.0313" stop-color="rgb(136,136,136)"/>
  <stop offset="0.0625" stop-color="rgb(128,128,128)"/>
  <stop offset="0.0938" stop-color="rgb(121,121,121)"/>
  <stop offset="0.1250" stop-color="rgb(113,113,113)"/>
  <stop offset="0.1563" stop-color="rgb(100,100,100)"/>
  <stop offset="0.1875" stop-color="rgb(99,99,99)"/>
  <stop offset="0.2188" stop-color="rgb(97,97,97)"/>
  <stop offset="0.2500" stop-color="rgb(95,95,95)"/>
  <stop offset="0.2813" stop-color="rgb(94,94,94)"/>
  <stop offset="0.3125" stop-color="rgb(92,92,92)"/>
  <stop offset="0.3438" stop-color="rgb(91,91,91)"/>
  <stop offset="0.3750" stop-color="rgb(89,89,89)"/>
  <stop offset="0.4063" stop-color="rgb(87,87,87)"/>
  <stop offset="0.4375" stop-color="rgb(86,86,86)"/>
  <stop offset="0.4688" stop-color="rgb(84,84,84)"/>
  <stop offset="0.5000" stop-color="rgb(82,82,82)"/>
  <stop offset="0.5313" stop-color="rgb(81,81,81)"/>
  <stop offset="0.5625" stop-color="rgb(79,79,79)"/>
  <stop offset="0.5938" stop-color="rgb(78,78,78)"/>
  <stop offset="0.6250" stop-color="rgb(76,76,76)"/>
  <stop offset="0.6563" stop-color="rgb(74,74,74)"/>
  <stop offset="0.6875" stop-color="rgb(73,73,73)"/>
  <stop offset="0.7188" stop-color="rgb(71,71,71)"/>
  <stop offset="0.7500" stop-color="rgb(69,69,69)"/>
  <stop offset="0.7813" stop-color="rgb(68,68,68)"/>
  <stop offset="0.8125" stop-color="rgb(66,66,66)"/>
  <stop offset="0.8438" stop-color="rgb(65,65,65)"/>
  <stop offset="0.8750" stop-color="rgb(62,62,62)"/>
  <stop offset="0.9063" stop-color="rgb(58,58,58)"/>
  <stop offset="0.9375" stop-color="rgb(54,54,54)"/>
  <stop offset="0.9688" stop-color="rgb(51,51,51)"/>
  <stop offset="1.0000" stop-color="rgb(0,0,0)"/>
</radialGradient></defs>
<circle cx="860" cy="140" r="81" fill="url(#g_UGC03546)"/>
<text x="860" y="49" text-anchor="middle" class="preview-lbl">face-on luminance from ρ(r)</text>
<text x="860" y="239" text-anchor="middle" class="preview-lbl">edge at r = 30.8 kpc</text>
</svg>