<svg xmlns="http://www.w3.org/2000/svg" viewBox="0 0 890 420" width="890" height="420" font-family="sans-serif" font-size="12">
<style>
  .ax { stroke: #333; stroke-width: 1; fill: none; }
  .grid { stroke: #ddd; stroke-width: 0.5; fill: none; }
  .lbl { fill: #333; }
  .lbl-l { fill: #0066cc; }
  .lbl-r { fill: #b03030; }
  .obs { fill: #222; }
  .err { stroke: #555; stroke-width: 0.8; fill: none; }
  .fw { stroke: #0066cc; stroke-width: 2.2; fill: none; }
  .nt { stroke: #cc6600; stroke-width: 1.6; fill: none; stroke-dasharray: 5,3; }
  .lbl-s { fill: #cc7000; }
  .rho { stroke: #b03030; stroke-width: 2.0; fill: none; }
  .sig { stroke: #cc7000; stroke-width: 1.8; fill: none; }
  .title { fill: #111; font-size: 16px; font-weight: 600; }
  .subtitle { fill: #555; font-size: 11px; }
  .preview-bg { fill: #000; }
  .preview-lbl { fill: #888; font-size: 10px; }
  .legend { font-size: 11px; }
</style>
<text x="343.5" y="22" text-anchor="middle" class="title">UGC06786</text>
<text x="343.5" y="38" text-anchor="middle" class="subtitle">rMax=34.0 kpc, N=45, RMS=28.3 km/s (13.3%), amp=2299</text>
<line x1="70" y1="365.0" x2="617" y2="365.0" class="grid"/>
<text x="64" y="369.0" text-anchor="end" class="lbl-l">0</text>
<line x1="70" y1="303.0" x2="617" y2="303.0" class="grid"/>
<text x="64" y="307.0" text-anchor="end" class="lbl-l">63</text>
<line x1="70" y1="241.0" x2="617" y2="241.0" class="grid"/>
<text x="64" y="245.0" text-anchor="end" class="lbl-l">126</text>
<line x1="70" y1="179.0" x2="617" y2="179.0" class="grid"/>
<text x="64" y="183.0" text-anchor="end" class="lbl-l">189</text>
<line x1="70" y1="117.0" x2="617" y2="117.0" class="grid"/>
<text x="64" y="121.0" text-anchor="end" class="lbl-l">252</text>
<line x1="70" y1="55.0" x2="617" y2="55.0" class="grid"/>
<text x="64" y="59.0" text-anchor="end" class="lbl-l">315</text>
<text x="623" y="369.0" text-anchor="start" class="lbl-r">0.0</text>
<text x="623" y="327.7" text-anchor="start" class="lbl-r">0.2</text>
<text x="623" y="286.3" text-anchor="start" class="lbl-r">0.4</text>
<text x="623" y="245.0" text-anchor="start" class="lbl-r">0.6</text>
<text x="623" y="203.7" text-anchor="start" class="lbl-r">0.8</text>
<text x="623" y="162.3" text-anchor="start" class="lbl-r">1.0</text>
<line x1="70.0" y1="55" x2="70.0" y2="365" class="grid"/>
<text x="70.0" y="381" text-anchor="middle" class="lbl">0.0</text>
<line x1="161.2" y1="55" x2="161.2" y2="365" class="grid"/>
<text x="161.2" y="381" text-anchor="middle" class="lbl">7.6</text>
<line x1="252.3" y1="55" x2="252.3" y2="365" class="grid"/>
<text x="252.3" y="381" text-anchor="middle" class="lbl">15.2</text>
<line x1="343.5" y1="55" x2="343.5" y2="365" class="grid"/>
<text x="343.5" y="381" text-anchor="middle" class="lbl">22.8</text>
<line x1="434.7" y1="55" x2="434.7" y2="365" class="grid"/>
<text x="434.7" y="381" text-anchor="middle" class="lbl">30.3</text>
<line x1="525.8" y1="55" x2="525.8" y2="365" class="grid"/>
<text x="525.8" y="381" text-anchor="middle" class="lbl">37.9</text>
<line x1="617.0" y1="55" x2="617.0" y2="365" class="grid"/>
<text x="617.0" y="381" text-anchor="middle" class="lbl">45.5</text>
<text x="343.5" y="408" text-anchor="middle" class="lbl">radius (kpc)</text>
<text x="16" y="210" text-anchor="middle" class="lbl-l" transform="rotate(-90, 16, 210)">velocity (km/s)</text>
<text x="874" y="210" text-anchor="middle" class="lbl-r" transform="rotate(-90, 874, 210)">mass profile (normalized to peak)</text>
<rect x="70" y="55" width="547" height="310" class="ax"/>
<path d="M 70.0,158.3 L 72.5,171.4 L 75.0,184.6 L 77.5,197.7 L 80.0,210.8 L 82.5,223.9 L 85.0,237.0 L 87.5,250.1 L 90.0,261.6 L 92.5,262.9 L 95.0,264.1 L 97.5,265.3 L 100.0,266.5 L 102.5,267.8 L 105.0,269.0 L 107.5,270.2 L 110.0,271.4 L 112.5,272.7 L 115.0,273.9 L 117.5,275.1 L 120.0,276.3 L 122.5,277.6 L 124.9,278.8 L 127.4,280.0 L 129.9,281.2 L 132.4,282.5 L 134.9,283.7 L 137.4,284.9 L 139.9,286.0 L 142.4,286.4 L 144.9,286.9 L 147.4,287.3 L 149.9,287.7 L 152.4,288.1 L 154.9,288.6 L 157.4,289.0 L 159.9,289.4 L 162.4,289.9 L 164.9,290.3 L 167.4,290.7 L 169.9,291.1 L 172.4,291.6 L 174.9,292.0 L 177.4,292.4 L 179.9,292.8 L 182.4,293.3 L 184.9,293.7 L 187.4,294.1 L 189.9,294.5 L 192.4,295.0 L 194.9,295.4 L 197.4,295.8 L 199.9,296.3 L 202.4,296.7 L 204.9,297.1 L 207.4,297.5 L 209.9,298.0 L 212.4,298.4 L 214.9,298.8 L 217.4,299.2 L 219.9,299.7 L 222.4,300.1 L 224.9,300.5 L 227.4,301.0 L 229.9,301.4 L 232.4,301.8 L 234.8,302.2 L 237.3,302.7 L 239.8,303.1 L 242.3,303.5 L 244.8,303.9 L 247.3,304.4 L 249.8,304.8 L 252.3,305.2 L 254.8,305.6 L 257.3,306.1 L 259.8,306.5 L 262.3,306.8 L 264.8,307.1 L 267.3,307.4 L 269.8,307.7 L 272.3,308.0 L 274.8,308.3 L 277.3,308.6 L 279.8,308.9 L 282.3,309.2 L 284.8,309.5 L 287.3,309.8 L 289.8,310.1 L 292.3,310.4 L 294.8,310.7 L 297.3,311.0 L 299.8,311.3 L 302.3,311.5 L 304.8,311.8 L 307.3,312.1 L 309.8,312.4 L 312.3,312.7 L 314.8,313.0 L 317.3,313.3 L 319.8,313.6 L 322.3,313.9 L 324.8,314.2 L 327.3,314.5 L 329.8,314.8 L 332.3,315.1 L 334.8,315.4 L 337.3,315.7 L 339.8,316.0 L 342.3,316.3 L 344.7,316.5 L 347.2,316.8 L 349.7,317.1 L 352.2,317.4 L 354.7,317.7 L 357.2,318.0 L 359.7,318.3 L 362.2,318.6 L 364.7,318.9 L 367.2,319.2 L 369.7,319.5 L 372.2,319.8 L 374.7,320.1 L 377.2,320.4 L 379.7,320.7 L 382.2,321.0 L 384.7,321.3 L 387.2,321.5 L 389.7,321.8 L 392.2,322.1 L 394.7,322.4 L 397.2,322.7 L 399.7,323.0 L 402.2,323.3 L 404.7,323.6 L 407.2,323.9 L 409.7,324.2 L 412.2,324.5 L 414.7,324.8 L 417.2,325.1 L 419.7,325.4 L 422.2,325.7 L 424.7,326.0 L 427.2,326.2 L 429.7,326.5 L 432.2,326.8 L 434.7,327.1 L 437.2,327.4 L 439.7,327.7 L 442.2,328.0 L 444.7,328.3 L 447.2,328.6 L 449.7,328.9 L 452.2,329.2 L 454.6,329.5 L 457.1,329.8 L 459.6,330.1 L 462.1,330.4 L 464.6,330.7 L 467.1,331.0 L 469.6,331.2 L 472.1,331.5 L 474.6,331.8 L 477.1,332.1 L 479.6,332.4 L 482.1,332.7 L 484.6,333.0 L 487.1,333.3 L 489.6,333.6 L 492.1,333.9 L 494.6,334.2 L 497.1,334.5 L 499.6,334.8 L 502.1,335.4 L 504.6,336.2 L 507.1,337.1 L 509.6,337.9 L 512.1,338.7 L 514.6,339.6 L 517.1,340.4 L 519.6,341.2 L 522.1,342.1 L 524.6,342.9 L 527.1,343.7 L 529.6,344.6 L 532.1,345.4 L 534.6,346.2 L 537.1,347.1 L 539.6,347.9 L 542.1,348.7 L 544.6,349.6 L 547.1,350.4 L 549.6,351.2 L 552.1,352.0 L 554.6,352.9 L 557.1,353.7 L 559.6,354.5 L 562.1,355.4 L 564.5,356.2 L 567.0,357.0 L 569.5,357.9 L 572.0,358.7 L 574.5,359.5 L 577.0,360.4 L 579.5,361.2 L 582.0,362.0 L 584.5,362.9 L 587.0,363.7 L 589.5,364.5 L 592.0,365.0 L 594.5,365.0 L 597.0,365.0 L 599.5,365.0 L 602.0,365.0 L 604.5,365.0 L 607.0,365.0 L 609.5,365.0 L 612.0,365.0 L 614.5,365.0 L 617.0,365.0" class="rho"/>
<path d="M 70.0,158.3 L 72.5,160.3 L 75.0,163.6 L 77.5,168.2 L 80.0,173.9 L 82.5,180.1 L 85.0,186.5 L 87.5,192.7 L 90.0,198.5 L 92.5,203.7 L 95.0,208.5 L 97.5,212.7 L 100.0,216.6 L 102.5,220.2 L 105.0,223.6 L 107.5,226.7 L 110.0,229.8 L 112.5,232.7 L 115.0,235.5 L 117.5,238.1 L 120.0,240.7 L 122.5,243.3 L 124.9,245.7 L 127.4,248.0 L 129.9,250.3 L 132.4,252.5 L 134.9,254.6 L 137.4,256.6 L 139.9,258.5 L 142.4,260.3 L 144.9,262.0 L 147.4,263.6 L 149.9,265.2 L 152.4,266.7 L 154.9,268.2 L 157.4,269.6 L 159.9,270.9 L 162.4,272.3 L 164.9,273.6 L 167.4,274.8 L 169.9,276.1 L 172.4,277.3 L 174.9,278.5 L 177.4,279.7 L 179.9,280.8 L 182.4,282.0 L 184.9,283.1 L 187.4,284.2 L 189.9,285.3 L 192.4,286.4 L 194.9,287.4 L 197.4,288.5 L 199.9,289.5 L 202.4,290.6 L 204.9,291.6 L 207.4,292.6 L 209.9,293.6 L 212.4,294.6 L 214.9,295.6 L 217.4,296.5 L 219.9,297.5 L 222.4,298.4 L 224.9,299.4 L 227.4,300.3 L 229.9,301.2 L 232.4,302.1 L 234.8,303.0 L 237.3,303.9 L 239.8,304.8 L 242.3,305.6 L 244.8,306.5 L 247.3,307.3 L 249.8,308.1 L 252.3,308.9 L 254.8,309.7 L 257.3,310.5 L 259.8,311.3 L 262.3,312.0 L 264.8,312.7 L 267.3,313.5 L 269.8,314.2 L 272.3,314.8 L 274.8,315.5 L 277.3,316.2 L 279.8,316.9 L 282.3,317.5 L 284.8,318.1 L 287.3,318.8 L 289.8,319.4 L 292.3,320.0 L 294.8,320.6 L 297.3,321.2 L 299.8,321.8 L 302.3,322.4 L 304.8,323.0 L 307.3,323.6 L 309.8,324.1 L 312.3,324.7 L 314.8,325.3 L 317.3,325.8 L 319.8,326.4 L 322.3,326.9 L 324.8,327.4 L 327.3,328.0 L 329.8,328.5 L 332.3,329.0 L 334.8,329.5 L 337.3,330.0 L 339.8,330.5 L 342.3,331.0 L 344.7,331.5 L 347.2,332.0 L 349.7,332.5 L 352.2,333.0 L 354.7,333.4 L 357.2,333.9 L 359.7,334.4 L 362.2,334.8 L 364.7,335.3 L 367.2,335.7 L 369.7,336.2 L 372.2,336.6 L 374.7,337.0 L 377.2,337.5 L 379.7,337.9 L 382.2,338.3 L 384.7,338.7 L 387.2,339.1 L 389.7,339.6 L 392.2,340.0 L 394.7,340.4 L 397.2,340.7 L 399.7,341.1 L 402.2,341.5 L 404.7,341.9 L 407.2,342.3 L 409.7,342.6 L 412.2,343.0 L 414.7,343.4 L 417.2,343.7 L 419.7,344.1 L 422.2,344.4 L 424.7,344.8 L 427.2,345.1 L 429.7,345.5 L 432.2,345.8 L 434.7,346.1 L 437.2,346.5 L 439.7,346.8 L 442.2,347.1 L 444.7,347.4 L 447.2,347.7 L 449.7,348.0 L 452.2,348.3 L 454.6,348.6 L 457.1,348.9 L 459.6,349.2 L 462.1,349.5 L 464.6,349.8 L 467.1,350.1 L 469.6,350.4 L 472.1,350.7 L 474.6,350.9 L 477.1,351.2 L 479.6,351.5 L 482.1,351.7 L 484.6,352.0 L 487.1,352.3 L 489.6,352.6 L 492.1,352.8 L 494.6,353.1 L 497.1,353.4 L 499.6,353.6 L 502.1,353.9 L 504.6,354.2 L 507.1,354.5 L 509.6,354.7 L 512.1,355.0 L 514.6,355.3 L 517.1,355.5 L 519.6,355.8 L 522.1,356.0 L 524.6,356.3 L 527.1,356.5 L 529.6,356.7 L 532.1,356.9 L 534.6,357.1 L 537.1,357.3 L 539.6,357.5 L 542.1,357.7 L 544.6,357.9 L 547.1,358.1 L 549.6,358.2 L 552.1,358.4 L 554.6,358.5 L 557.1,358.7 L 559.6,358.8 L 562.1,358.9 L 564.5,359.1 L 567.0,359.2 L 569.5,359.3 L 572.0,359.4 L 574.5,359.5 L 577.0,359.6 L 579.5,359.7 L 582.0,359.8 L 584.5,359.9 L 587.0,359.9 L 589.5,360.0 L 592.0,360.1 L 594.5,360.2 L 597.0,360.2 L 599.5,360.3 L 602.0,360.4 L 604.5,360.4 L 607.0,360.5 L 609.5,360.6 L 612.0,360.6 L 614.5,360.7 L 617.0,360.7" class="sig"/>
<path d="M 75.5,301.7 L 80.9,280.2 L 86.4,267.2 L 91.9,259.2 L 97.4,251.7 L 102.8,244.3 L 108.3,237.4 L 113.8,231.0 L 119.2,225.0 L 124.7,219.4 L 130.2,214.2 L 135.6,209.4 L 141.1,204.9 L 146.6,200.6 L 152.1,196.4 L 157.5,192.4 L 163.0,188.4 L 168.5,184.6 L 173.9,180.9 L 179.4,177.3 L 184.9,173.8 L 190.3,170.5 L 195.8,167.2 L 201.3,164.1 L 206.8,161.0 L 212.2,158.1 L 217.7,155.2 L 223.2,152.5 L 228.6,149.8 L 234.1,147.2 L 239.6,144.7 L 245.0,142.3 L 250.5,140.0 L 256.0,137.7 L 261.4,135.5 L 266.9,133.4 L 272.4,131.3 L 277.9,129.3 L 283.3,127.3 L 288.8,125.4 L 294.3,123.5 L 299.7,121.7 L 305.2,119.9 L 310.7,118.1 L 316.1,116.4 L 321.6,114.7 L 327.1,113.1 L 332.6,111.5 L 338.0,110.0 L 343.5,108.5 L 349.0,107.0 L 354.4,105.6 L 359.9,104.2 L 365.4,102.9 L 370.9,101.6 L 376.3,100.3 L 381.8,99.1 L 387.3,97.9 L 392.7,96.7 L 398.2,95.6 L 403.7,94.5 L 409.1,93.5 L 414.6,92.5 L 420.1,91.5 L 425.6,90.6 L 431.0,89.7 L 436.5,88.8 L 442.0,88.0 L 447.4,87.2 L 452.9,86.4 L 458.4,85.7 L 463.8,85.0 L 469.3,84.3 L 474.8,83.7 L 480.3,83.1 L 485.7,82.5 L 491.2,82.0 L 496.7,81.5 L 502.1,81.0 L 507.6,80.6 L 513.1,80.4 L 518.5,80.3 L 524.0,80.2 L 529.5,80.3 L 535.0,80.6 L 540.4,80.9 L 545.9,81.3 L 551.4,81.9 L 556.8,82.6 L 562.3,83.3 L 567.8,84.2 L 573.2,85.3 L 578.7,86.4 L 584.2,87.6 L 589.7,89.0 L 595.1,90.4 L 600.6,91.8 L 606.1,93.2 L 611.5,94.6 L 617.0,96.0" class="nt"/>
<path d="M 74.6,286.5 L 79.1,231.9 L 83.7,191.9 L 88.2,170.8 L 92.8,164.2 L 97.3,163.8 L 101.9,163.6 L 106.5,161.6 L 111.0,158.4 L 115.6,154.8 L 120.1,151.3 L 124.7,148.6 L 129.3,147.1 L 133.8,147.2 L 138.4,149.0 L 142.9,151.7 L 147.5,154.3 L 152.1,156.0 L 156.6,156.8 L 161.2,156.8 L 165.7,156.2 L 170.3,155.3 L 174.8,154.1 L 179.4,152.7 L 184.0,151.2 L 188.5,149.6 L 193.1,148.0 L 197.6,146.4 L 202.2,144.8 L 206.8,143.3 L 211.3,141.9 L 215.9,140.6 L 220.4,139.4 L 225.0,138.3 L 229.5,137.4 L 234.1,136.8 L 238.7,136.3 L 243.2,136.1 L 247.8,136.3 L 252.3,136.9 L 256.9,138.0 L 261.4,139.4 L 266.0,140.9 L 270.6,142.1 L 275.1,143.0 L 279.7,143.6 L 284.2,144.1 L 288.8,144.3 L 293.4,144.5 L 297.9,144.6 L 302.5,144.7 L 307.0,144.8 L 311.6,144.8 L 316.1,144.9 L 320.7,145.0 L 325.3,145.1 L 329.8,145.2 L 334.4,145.4 L 338.9,145.5 L 343.5,145.8 L 348.1,146.0 L 352.6,146.3 L 357.2,146.7 L 361.7,147.0 L 366.3,147.4 L 370.8,147.9 L 375.4,148.4 L 380.0,149.0 L 384.5,149.5 L 389.1,150.2 L 393.6,150.8 L 398.2,151.5 L 402.8,152.3 L 407.3,153.1 L 411.9,153.9 L 416.4,154.7 L 421.0,155.6 L 425.6,156.5 L 430.1,157.4 L 434.7,158.3 L 439.2,159.3 L 443.8,160.2 L 448.3,161.2 L 452.9,162.1 L 457.5,163.0 L 462.0,163.8 L 466.6,164.5 L 471.1,165.0 L 475.7,165.4 L 480.2,165.4 L 484.8,165.0 L 489.4,164.1 L 493.9,162.7 L 498.5,161.1 L 503.0,159.9 L 507.6,159.6 L 512.2,160.6 L 516.7,162.9 L 521.3,166.3 L 525.8,170.7 L 530.4,175.7 L 535.0,181.2 L 539.5,187.0 L 544.1,193.0 L 548.6,199.1 L 553.2,205.2 L 557.7,211.2 L 562.3,217.0 L 566.9,222.6 L 571.4,227.8 L 576.0,232.7 L 580.5,237.2 L 585.1,241.3 L 589.6,245.0 L 594.2,248.3 L 598.8,251.3 L 603.3,254.0 L 607.9,256.5 L 612.4,258.7 L 617.0,260.8" class="fw"/>
<line x1="71.92" y1="172.41" x2="71.92" y2="243.16" class="err"/>
<line x1="68.92" y1="172.41" x2="74.92" y2="172.41" class="err"/>
<line x1="68.92" y1="243.16" x2="74.92" y2="243.16" class="err"/>
<circle cx="71.92" cy="207.78" r="2.5" class="obs"/>
<line x1="73.85" y1="160.72" x2="73.85" y2="221.44" class="err"/>
<line x1="70.85" y1="160.72" x2="76.85" y2="160.72" class="err"/>
<line x1="70.85" y1="221.44" x2="76.85" y2="221.44" class="err"/>
<circle cx="73.85" cy="191.08" r="2.5" class="obs"/>
<line x1="75.89" y1="163.27" x2="75.89" y2="212.99" class="err"/>
<line x1="72.89" y1="163.27" x2="78.89" y2="163.27" class="err"/>
<line x1="72.89" y1="212.99" x2="78.89" y2="212.99" class="err"/>
<circle cx="75.89" cy="188.13" r="2.5" class="obs"/>
<line x1="77.81" y1="156.69" x2="77.81" y2="219.57" class="err"/>
<line x1="74.81" y1="156.69" x2="80.81" y2="156.69" class="err"/>
<line x1="74.81" y1="219.57" x2="80.81" y2="219.57" class="err"/>
<circle cx="77.81" cy="188.13" r="2.5" class="obs"/>
<line x1="85.62" y1="181.53" x2="85.62" y2="190.80" class="err"/>
<line x1="82.62" y1="181.53" x2="88.62" y2="181.53" class="err"/>
<line x1="82.62" y1="190.80" x2="88.62" y2="190.80" class="err"/>
<circle cx="85.62" cy="186.17" r="2.5" class="obs"/>
<line x1="87.55" y1="174.57" x2="87.55" y2="195.80" class="err"/>
<line x1="84.55" y1="174.57" x2="90.55" y2="174.57" class="err"/>
<line x1="84.55" y1="195.80" x2="90.55" y2="195.80" class="err"/>
<circle cx="87.55" cy="185.18" r="2.5" class="obs"/>
<line x1="89.47" y1="176.90" x2="89.47" y2="191.50" class="err"/>
<line x1="86.47" y1="176.90" x2="92.47" y2="176.90" class="err"/>
<line x1="86.47" y1="191.50" x2="92.47" y2="191.50" class="err"/>
<circle cx="89.47" cy="184.20" r="2.5" class="obs"/>
<line x1="114.71" y1="154.31" x2="114.71" y2="170.86" class="err"/>
<line x1="111.71" y1="154.31" x2="117.71" y2="154.31" class="err"/>
<line x1="111.71" y1="170.86" x2="117.71" y2="170.86" class="err"/>
<circle cx="114.71" cy="162.58" r="2.5" class="obs"/>
<line x1="116.75" y1="157.14" x2="116.75" y2="166.06" class="err"/>
<line x1="113.75" y1="157.14" x2="119.75" y2="157.14" class="err"/>
<line x1="113.75" y1="166.06" x2="119.75" y2="166.06" class="err"/>
<circle cx="116.75" cy="161.60" r="2.5" class="obs"/>
<line x1="118.68" y1="154.37" x2="118.68" y2="164.90" class="err"/>
<line x1="115.68" y1="154.37" x2="121.68" y2="154.37" class="err"/>
<line x1="115.68" y1="164.90" x2="121.68" y2="164.90" class="err"/>
<circle cx="118.68" cy="159.64" r="2.5" class="obs"/>
<line x1="120.72" y1="156.27" x2="120.72" y2="161.04" class="err"/>
<line x1="117.72" y1="156.27" x2="123.72" y2="156.27" class="err"/>
<line x1="117.72" y1="161.04" x2="123.72" y2="161.04" class="err"/>
<circle cx="120.72" cy="158.65" r="2.5" class="obs"/>
<line x1="121.20" y1="154.13" x2="121.20" y2="163.17" class="err"/>
<line x1="118.20" y1="154.13" x2="124.20" y2="154.13" class="err"/>
<line x1="118.20" y1="163.17" x2="124.20" y2="163.17" class="err"/>
<circle cx="121.20" cy="158.65" r="2.5" class="obs"/>
<line x1="122.64" y1="154.92" x2="122.64" y2="160.42" class="err"/>
<line x1="119.64" y1="154.92" x2="125.64" y2="154.92" class="err"/>
<line x1="119.64" y1="160.42" x2="125.64" y2="160.42" class="err"/>
<circle cx="122.64" cy="157.67" r="2.5" class="obs"/>
<line x1="124.57" y1="153.56" x2="124.57" y2="157.85" class="err"/>
<line x1="121.57" y1="153.56" x2="127.57" y2="153.56" class="err"/>
<line x1="121.57" y1="157.85" x2="127.57" y2="157.85" class="err"/>
<circle cx="124.57" cy="155.71" r="2.5" class="obs"/>
<line x1="126.61" y1="147.25" x2="126.61" y2="162.20" class="err"/>
<line x1="123.61" y1="147.25" x2="129.61" y2="147.25" class="err"/>
<line x1="123.61" y1="162.20" x2="129.61" y2="162.20" class="err"/>
<circle cx="126.61" cy="154.72" r="2.5" class="obs"/>
<line x1="128.41" y1="149.12" x2="128.41" y2="158.36" class="err"/>
<line x1="125.41" y1="149.12" x2="131.41" y2="149.12" class="err"/>
<line x1="125.41" y1="158.36" x2="131.41" y2="158.36" class="err"/>
<circle cx="128.41" cy="153.74" r="2.5" class="obs"/>
<line x1="130.33" y1="151.44" x2="130.33" y2="156.04" class="err"/>
<line x1="127.33" y1="151.44" x2="133.33" y2="151.44" class="err"/>
<line x1="127.33" y1="156.04" x2="133.33" y2="156.04" class="err"/>
<circle cx="130.33" cy="153.74" r="2.5" class="obs"/>
<line x1="132.26" y1="149.86" x2="132.26" y2="155.66" class="err"/>
<line x1="129.26" y1="149.86" x2="135.26" y2="149.86" class="err"/>
<line x1="129.26" y1="155.66" x2="135.26" y2="155.66" class="err"/>
<circle cx="132.26" cy="152.76" r="2.5" class="obs"/>
<line x1="134.30" y1="147.37" x2="134.30" y2="156.18" class="err"/>
<line x1="131.30" y1="147.37" x2="137.30" y2="147.37" class="err"/>
<line x1="131.30" y1="156.18" x2="137.30" y2="156.18" class="err"/>
<circle cx="134.30" cy="151.78" r="2.5" class="obs"/>
<line x1="136.22" y1="147.85" x2="136.22" y2="155.70" class="err"/>
<line x1="133.22" y1="147.85" x2="139.22" y2="147.85" class="err"/>
<line x1="133.22" y1="155.70" x2="139.22" y2="155.70" class="err"/>
<circle cx="136.22" cy="151.78" r="2.5" class="obs"/>
<line x1="138.27" y1="145.74" x2="138.27" y2="155.84" class="err"/>
<line x1="135.27" y1="145.74" x2="141.27" y2="145.74" class="err"/>
<line x1="135.27" y1="155.84" x2="141.27" y2="155.84" class="err"/>
<circle cx="138.27" cy="150.79" r="2.5" class="obs"/>
<line x1="140.19" y1="148.33" x2="140.19" y2="153.26" class="err"/>
<line x1="137.19" y1="148.33" x2="143.19" y2="148.33" class="err"/>
<line x1="137.19" y1="153.26" x2="143.19" y2="153.26" class="err"/>
<circle cx="140.19" cy="150.79" r="2.5" class="obs"/>
<line x1="142.11" y1="145.93" x2="142.11" y2="153.69" class="err"/>
<line x1="139.11" y1="145.93" x2="145.11" y2="145.93" class="err"/>
<line x1="139.11" y1="153.69" x2="145.11" y2="153.69" class="err"/>
<circle cx="142.11" cy="149.81" r="2.5" class="obs"/>
<line x1="143.92" y1="142.11" x2="143.92" y2="157.51" class="err"/>
<line x1="140.92" y1="142.11" x2="146.92" y2="142.11" class="err"/>
<line x1="140.92" y1="157.51" x2="146.92" y2="157.51" class="err"/>
<circle cx="143.92" cy="149.81" r="2.5" class="obs"/>
<line x1="147.88" y1="142.20" x2="147.88" y2="157.42" class="err"/>
<line x1="144.88" y1="142.20" x2="150.88" y2="142.20" class="err"/>
<line x1="144.88" y1="157.42" x2="150.88" y2="157.42" class="err"/>
<circle cx="147.88" cy="149.81" r="2.5" class="obs"/>
<line x1="149.81" y1="143.24" x2="149.81" y2="156.38" class="err"/>
<line x1="146.81" y1="143.24" x2="152.81" y2="143.24" class="err"/>
<line x1="146.81" y1="156.38" x2="152.81" y2="156.38" class="err"/>
<circle cx="149.81" cy="149.81" r="2.5" class="obs"/>
<line x1="151.85" y1="142.68" x2="151.85" y2="154.98" class="err"/>
<line x1="148.85" y1="142.68" x2="154.85" y2="142.68" class="err"/>
<line x1="148.85" y1="154.98" x2="154.85" y2="154.98" class="err"/>
<circle cx="151.85" cy="148.83" r="2.5" class="obs"/>
<line x1="155.33" y1="146.35" x2="155.33" y2="151.30" class="err"/>
<line x1="152.33" y1="146.35" x2="158.33" y2="146.35" class="err"/>
<line x1="152.33" y1="151.30" x2="158.33" y2="151.30" class="err"/>
<circle cx="155.33" cy="148.83" r="2.5" class="obs"/>
<line x1="155.69" y1="137.63" x2="155.69" y2="160.03" class="err"/>
<line x1="152.69" y1="137.63" x2="158.69" y2="137.63" class="err"/>
<line x1="152.69" y1="160.03" x2="158.69" y2="160.03" class="err"/>
<circle cx="155.69" cy="148.83" r="2.5" class="obs"/>
<line x1="172.40" y1="145.95" x2="172.40" y2="151.71" class="err"/>
<line x1="169.40" y1="145.95" x2="175.40" y2="145.95" class="err"/>
<line x1="169.40" y1="151.71" x2="175.40" y2="151.71" class="err"/>
<circle cx="172.40" cy="148.83" r="2.5" class="obs"/>
<line x1="198.12" y1="142.16" x2="198.12" y2="145.67" class="err"/>
<line x1="195.12" y1="142.16" x2="201.12" y2="142.16" class="err"/>
<line x1="195.12" y1="145.67" x2="201.12" y2="145.67" class="err"/>
<circle cx="198.12" cy="143.91" r="2.5" class="obs"/>
<line x1="214.11" y1="135.36" x2="214.11" y2="146.58" class="err"/>
<line x1="211.11" y1="135.36" x2="217.11" y2="135.36" class="err"/>
<line x1="211.11" y1="146.58" x2="217.11" y2="146.58" class="err"/>
<circle cx="214.11" cy="140.97" r="2.5" class="obs"/>
<line x1="215.43" y1="131.18" x2="215.43" y2="150.75" class="err"/>
<line x1="212.43" y1="131.18" x2="218.43" y2="131.18" class="err"/>
<line x1="212.43" y1="150.75" x2="218.43" y2="150.75" class="err"/>
<circle cx="215.43" cy="140.97" r="2.5" class="obs"/>
<line x1="218.19" y1="132.87" x2="218.19" y2="149.06" class="err"/>
<line x1="215.19" y1="132.87" x2="221.19" y2="132.87" class="err"/>
<line x1="215.19" y1="149.06" x2="221.19" y2="149.06" class="err"/>
<circle cx="218.19" cy="140.97" r="2.5" class="obs"/>
<line x1="223.60" y1="138.27" x2="223.60" y2="141.69" class="err"/>
<line x1="220.60" y1="138.27" x2="226.60" y2="138.27" class="err"/>
<line x1="220.60" y1="141.69" x2="226.60" y2="141.69" class="err"/>
<circle cx="223.60" cy="139.98" r="2.5" class="obs"/>
<line x1="249.44" y1="139.36" x2="249.44" y2="142.58" class="err"/>
<line x1="246.44" y1="139.36" x2="252.44" y2="139.36" class="err"/>
<line x1="246.44" y1="142.58" x2="252.44" y2="142.58" class="err"/>
<circle cx="249.44" cy="140.97" r="2.5" class="obs"/>
<line x1="275.28" y1="141.62" x2="275.28" y2="144.25" class="err"/>
<line x1="272.28" y1="141.62" x2="278.28" y2="141.62" class="err"/>
<line x1="272.28" y1="144.25" x2="278.28" y2="144.25" class="err"/>
<circle cx="275.28" cy="142.93" r="2.5" class="obs"/>
<line x1="301.12" y1="141.57" x2="301.12" y2="144.30" class="err"/>
<line x1="298.12" y1="141.57" x2="304.12" y2="141.57" class="err"/>
<line x1="298.12" y1="144.30" x2="304.12" y2="144.30" class="err"/>
<circle cx="301.12" cy="142.93" r="2.5" class="obs"/>
<line x1="325.64" y1="140.86" x2="325.64" y2="143.04" class="err"/>
<line x1="322.64" y1="140.86" x2="328.64" y2="140.86" class="err"/>
<line x1="322.64" y1="143.04" x2="328.64" y2="143.04" class="err"/>
<circle cx="325.64" cy="141.95" r="2.5" class="obs"/>
<line x1="351.48" y1="140.60" x2="351.48" y2="143.30" class="err"/>
<line x1="348.48" y1="140.60" x2="354.48" y2="140.60" class="err"/>
<line x1="348.48" y1="143.30" x2="354.48" y2="143.30" class="err"/>
<circle cx="351.48" cy="141.95" r="2.5" class="obs"/>
<line x1="377.32" y1="142.16" x2="377.32" y2="147.64" class="err"/>
<line x1="374.32" y1="142.16" x2="380.32" y2="142.16" class="err"/>
<line x1="374.32" y1="147.64" x2="380.32" y2="147.64" class="err"/>
<circle cx="377.32" cy="144.90" r="2.5" class="obs"/>
<line x1="403.16" y1="141.55" x2="403.16" y2="160.04" class="err"/>
<line x1="400.16" y1="141.55" x2="406.16" y2="141.55" class="err"/>
<line x1="400.16" y1="160.04" x2="406.16" y2="160.04" class="err"/>
<circle cx="403.16" cy="150.79" r="2.5" class="obs"/>
<line x1="429.01" y1="145.70" x2="429.01" y2="161.78" class="err"/>
<line x1="426.01" y1="145.70" x2="432.01" y2="145.70" class="err"/>
<line x1="426.01" y1="161.78" x2="432.01" y2="161.78" class="err"/>
<circle cx="429.01" cy="153.74" r="2.5" class="obs"/>
<line x1="454.85" y1="144.84" x2="454.85" y2="154.78" class="err"/>
<line x1="451.85" y1="144.84" x2="457.85" y2="144.84" class="err"/>
<line x1="451.85" y1="154.78" x2="457.85" y2="154.78" class="err"/>
<circle cx="454.85" cy="149.81" r="2.5" class="obs"/>
<line x1="479.24" y1="150.74" x2="479.24" y2="164.60" class="err"/>
<line x1="476.24" y1="150.74" x2="482.24" y2="150.74" class="err"/>
<line x1="476.24" y1="164.60" x2="482.24" y2="164.60" class="err"/>
<circle cx="479.24" cy="157.67" r="2.5" class="obs"/>
<g class="legend">
<line x1="82" y1="69" x2="106" y2="69" class="fw"/>
<text x="112" y="73" class="lbl-l">framework fit</text>
<line x1="82" y1="87" x2="106" y2="87" class="nt"/>
<text x="112" y="91" class="lbl-l">Newtonian (no halo)</text>
<circle cx="94" cy="105" r="2.5" class="obs"/>
<text x="112" y="109" class="lbl">observed V±err</text>
</g>
<g class="legend">
<line x1="442" y1="69" x2="466" y2="69" class="rho"/>
<text x="472" y="73" class="lbl-r">ρ(r) raw</text>
<line x1="442" y1="87" x2="466" y2="87" class="sig"/>
<text x="472" y="91" class="lbl-s">Σ(r) cumulative</text>
<text x="442" y="113" class="lbl-r">ρ peak: 743 M☉/pc²</text>
</g>
<rect x="705" y="55" width="170" height="170" class="preview-bg"/>
<defs><radialGradient id="g_UGC06786" cx="0.5" cy="0.5" r="0.5">
  <stop offset="0.0000" stop-color="rgb(240,240,240)"/>
  <stop offset="0.0313" stop-color="rgb(156,156,156)"/>
  <stop offset="0.0625" stop-color="rgb(132,132,132)"/>
  <stop offset="0.0938" stop-color="rgb(124,124,124)"/>
  <stop offset="0.1250" stop-color="rgb(116,116,116)"/>
  <stop offset="0.1563" stop-color="rgb(112,112,112)"/>
  <stop offset="0.1875" stop-color="rgb(109,109,109)"/>
  <stop offset="0.2188" stop-color="rgb(107,107,107)"/>
  <stop offset="0.2500" stop-color="rgb(104,104,104)"/>
  <stop offset="0.2813" stop-color="rgb(101,101,101)"/>
  <stop offset="0.3125" stop-color="rgb(98,98,98)"/>
  <stop offset="0.3438" stop-color="rgb(96,96,96)"/>
  <stop offset="0.3750" stop-color="rgb(93,93,93)"/>
  <stop offset="0.4063" stop-color="rgb(91,91,91)"/>
  <stop offset="0.4375" stop-color="rgb(89,89,89)"/>
  <stop offset="0.4688" stop-color="rgb(88,88,88)"/>
  <stop offset="0.5000" stop-color="rgb(86,86,86)"/>
  <stop offset="0.5313" stop-color="rgb(84,84,84)"/>
  <stop offset="0.5625" stop-color="rgb(82,82,82)"/>
  <stop offset="0.5938" stop-color="rgb(80,80,80)"/>
  <stop offset="0.6250" stop-color="rgb(78,78,78)"/>
  <stop offset="0.6563" stop-color="rgb(76,76,76)"/>
  <stop offset="0.6875" stop-color="rgb(74,74,74)"/>
  <stop offset="0.7188" stop-color="rgb(73,73,73)"/>
  <stop offset="0.7500" stop-color="rgb(71,71,71)"/>
  <stop offset="0.7813" stop-color="rgb(69,69,69)"/>
  <stop offset="0.8125" stop-color="rgb(67,67,67)"/>
  <stop offset="0.8438" stop-color="rgb(62,62,62)"/>
  <stop offset="0.8750" stop-color="rgb(50,50,50)"/>
  <stop offset="0.9063" stop-color="rgb(37,37,37)"/>
  <stop offset="0.9375" stop-color="rgb(25,25,25)"/>
  <stop offset="0.9688" stop-color="rgb(12,12,12)"/>
  <stop offset="1.0000" stop-color="rgb(0,0,0)"/>
</radialGradient></defs>
<circle cx="790" cy="140" r="81" fill="url(#g_UGC06786)"/>
<text x="790" y="49" text-anchor="middle" class="preview-lbl">face-on luminance from ρ(r)</text>
<text x="790" y="239" text-anchor="middle" class="preview-lbl">edge at r = 43.3 kpc</text>
</svg>