<svg xmlns="http://www.w3.org/2000/svg" viewBox="0 0 890 420" width="890" height="420" font-family="sans-serif" font-size="12">
<style>
  .ax { stroke: #333; stroke-width: 1; fill: none; }
  .grid { stroke: #ddd; stroke-width: 0.5; fill: none; }
  .lbl { fill: #333; }
  .lbl-l { fill: #0066cc; }
  .lbl-r { fill: #b03030; }
  .obs { fill: #222; }
  .err { stroke: #555; stroke-width: 0.8; fill: none; }
  .fw { stroke: #0066cc; stroke-width: 2.2; fill: none; }
  .nt { stroke: #cc6600; stroke-width: 1.6; fill: none; stroke-dasharray: 5,3; }
  .lbl-s { fill: #cc7000; }
  .rho { stroke: #b03030; stroke-width: 2.0; fill: none; }
  .sig { stroke: #cc7000; stroke-width: 1.8; fill: none; }
  .title { fill: #111; font-size: 16px; font-weight: 600; }
  .subtitle { fill: #555; font-size: 11px; }
  .preview-bg { fill: #000; }
  .preview-lbl { fill: #888; font-size: 10px; }
  .legend { font-size: 11px; }
</style>
<text x="343.5" y="22" text-anchor="middle" class="title">UGC08699</text>
<text x="343.5" y="38" text-anchor="middle" class="subtitle">rMax=25.7 kpc, N=41, RMS=15.9 km/s (8.6%), amp=991</text>
<line x1="70" y1="365.0" x2="617" y2="365.0" class="grid"/>
<text x="64" y="369.0" text-anchor="end" class="lbl-l">0</text>
<line x1="70" y1="303.0" x2="617" y2="303.0" class="grid"/>
<text x="64" y="307.0" text-anchor="end" class="lbl-l">60</text>
<line x1="70" y1="241.0" x2="617" y2="241.0" class="grid"/>
<text x="64" y="245.0" text-anchor="end" class="lbl-l">120</text>
<line x1="70" y1="179.0" x2="617" y2="179.0" class="grid"/>
<text x="64" y="183.0" text-anchor="end" class="lbl-l">180</text>
<line x1="70" y1="117.0" x2="617" y2="117.0" class="grid"/>
<text x="64" y="121.0" text-anchor="end" class="lbl-l">240</text>
<line x1="70" y1="55.0" x2="617" y2="55.0" class="grid"/>
<text x="64" y="59.0" text-anchor="end" class="lbl-l">300</text>
<text x="623" y="369.0" text-anchor="start" class="lbl-r">0.0</text>
<text x="623" y="327.7" text-anchor="start" class="lbl-r">0.2</text>
<text x="623" y="286.3" text-anchor="start" class="lbl-r">0.4</text>
<text x="623" y="245.0" text-anchor="start" class="lbl-r">0.6</text>
<text x="623" y="203.7" text-anchor="start" class="lbl-r">0.8</text>
<text x="623" y="162.3" text-anchor="start" class="lbl-r">1.0</text>
<line x1="70.0" y1="55" x2="70.0" y2="365" class="grid"/>
<text x="70.0" y="381" text-anchor="middle" class="lbl">0.0</text>
<line x1="161.2" y1="55" x2="161.2" y2="365" class="grid"/>
<text x="161.2" y="381" text-anchor="middle" class="lbl">5.2</text>
<line x1="252.3" y1="55" x2="252.3" y2="365" class="grid"/>
<text x="252.3" y="381" text-anchor="middle" class="lbl">10.3</text>
<line x1="343.5" y1="55" x2="343.5" y2="365" class="grid"/>
<text x="343.5" y="381" text-anchor="middle" class="lbl">15.5</text>
<line x1="434.7" y1="55" x2="434.7" y2="365" class="grid"/>
<text x="434.7" y="381" text-anchor="middle" class="lbl">20.7</text>
<line x1="525.8" y1="55" x2="525.8" y2="365" class="grid"/>
<text x="525.8" y="381" text-anchor="middle" class="lbl">25.8</text>
<line x1="617.0" y1="55" x2="617.0" y2="365" class="grid"/>
<text x="617.0" y="381" text-anchor="middle" class="lbl">31.0</text>
<text x="343.5" y="408" text-anchor="middle" class="lbl">radius (kpc)</text>
<text x="16" y="210" text-anchor="middle" class="lbl-l" transform="rotate(-90, 16, 210)">velocity (km/s)</text>
<text x="654" y="210" text-anchor="middle" class="lbl-r" transform="rotate(-90, 654, 210)">mass profile (normalized to peak)</text>
<rect x="70" y="55" width="547" height="310" class="ax"/>
<path d="M 70.0,158.3 L 72.5,174.1 L 75.0,190.0 L 77.5,205.8 L 80.0,221.6 L 82.5,237.4 L 85.0,253.2 L 87.5,269.0 L 90.0,284.7 L 92.5,287.6 L 95.0,290.4 L 97.5,293.3 L 100.0,296.1 L 102.5,299.0 L 105.0,301.9 L 107.5,304.7 L 110.0,307.6 L 112.5,308.8 L 115.0,309.0 L 117.5,309.3 L 120.0,309.6 L 122.5,309.9 L 124.9,310.2 L 127.4,310.5 L 129.9,310.8 L 132.4,311.1 L 134.9,311.4 L 137.4,311.7 L 139.9,312.0 L 142.4,312.2 L 144.9,312.5 L 147.4,312.8 L 149.9,313.1 L 152.4,313.4 L 154.9,313.7 L 157.4,314.0 L 159.9,314.3 L 162.4,314.6 L 164.9,314.9 L 167.4,315.1 L 169.9,315.4 L 172.4,315.7 L 174.9,316.0 L 177.4,316.3 L 179.9,316.6 L 182.4,316.9 L 184.9,317.2 L 187.4,317.5 L 189.9,317.8 L 192.4,318.1 L 194.9,318.3 L 197.4,318.6 L 199.9,318.9 L 202.4,319.2 L 204.9,319.5 L 207.4,319.8 L 209.9,320.1 L 212.4,320.4 L 214.9,320.7 L 217.4,321.0 L 219.9,321.3 L 222.4,321.5 L 224.9,321.8 L 227.4,322.1 L 229.9,322.4 L 232.4,322.7 L 234.8,323.0 L 237.3,323.3 L 239.8,323.6 L 242.3,323.9 L 244.8,324.2 L 247.3,324.5 L 249.8,324.7 L 252.3,325.0 L 254.8,325.3 L 257.3,325.5 L 259.8,325.6 L 262.3,325.8 L 264.8,326.0 L 267.3,326.1 L 269.8,326.3 L 272.3,326.5 L 274.8,326.6 L 277.3,326.8 L 279.8,327.0 L 282.3,327.2 L 284.8,327.3 L 287.3,327.5 L 289.8,327.7 L 292.3,327.8 L 294.8,328.0 L 297.3,328.2 L 299.8,328.3 L 302.3,328.5 L 304.8,328.7 L 307.3,328.8 L 309.8,329.0 L 312.3,329.2 L 314.8,329.3 L 317.3,329.5 L 319.8,329.7 L 322.3,329.9 L 324.8,330.0 L 327.3,330.2 L 329.8,330.4 L 332.3,330.5 L 334.8,330.7 L 337.3,330.9 L 339.8,331.0 L 342.3,331.2 L 344.7,331.4 L 347.2,331.5 L 349.7,331.7 L 352.2,331.9 L 354.7,332.0 L 357.2,332.2 L 359.7,332.4 L 362.2,332.6 L 364.7,332.7 L 367.2,332.9 L 369.7,333.1 L 372.2,333.2 L 374.7,333.4 L 377.2,333.6 L 379.7,333.7 L 382.2,333.9 L 384.7,334.1 L 387.2,334.2 L 389.7,334.4 L 392.2,334.6 L 394.7,334.7 L 397.2,334.9 L 399.7,335.1 L 402.2,335.3 L 404.7,335.4 L 407.2,335.6 L 409.7,335.8 L 412.2,335.9 L 414.7,336.1 L 417.2,336.3 L 419.7,336.4 L 422.2,336.6 L 424.7,336.8 L 427.2,336.9 L 429.7,337.1 L 432.2,337.3 L 434.7,337.5 L 437.2,337.6 L 439.7,337.8 L 442.2,338.0 L 444.7,338.1 L 447.2,338.3 L 449.7,338.5 L 452.2,338.6 L 454.6,338.8 L 457.1,339.0 L 459.6,339.1 L 462.1,339.3 L 464.6,339.5 L 467.1,339.6 L 469.6,339.8 L 472.1,340.0 L 474.6,340.2 L 477.1,340.3 L 479.6,340.5 L 482.1,340.7 L 484.6,340.8 L 487.1,341.0 L 489.6,341.2 L 492.1,341.3 L 494.6,341.5 L 497.1,341.7 L 499.6,341.8 L 502.1,342.0 L 504.6,342.2 L 507.1,342.3 L 509.6,342.5 L 512.1,342.7 L 514.6,342.9 L 517.1,343.0 L 519.6,343.2 L 522.1,343.4 L 524.6,343.5 L 527.1,343.7 L 529.6,343.9 L 532.1,344.0 L 534.6,344.2 L 537.1,344.6 L 539.6,345.5 L 542.1,346.4 L 544.6,347.4 L 547.1,348.3 L 549.6,349.3 L 552.1,350.2 L 554.6,351.2 L 557.1,352.1 L 559.6,353.1 L 562.1,354.0 L 564.5,355.0 L 567.0,355.9 L 569.5,356.9 L 572.0,357.8 L 574.5,358.8 L 577.0,359.7 L 579.5,360.7 L 582.0,361.6 L 584.5,362.6 L 587.0,363.5 L 589.5,364.5 L 592.0,365.0 L 594.5,365.0 L 597.0,365.0 L 599.5,365.0 L 602.0,365.0 L 604.5,365.0 L 607.0,365.0 L 609.5,365.0 L 612.0,365.0 L 614.5,365.0 L 617.0,365.0" class="rho"/>
<path d="M 70.0,158.3 L 72.5,160.9 L 75.0,165.2 L 77.5,170.9 L 80.0,177.9 L 82.5,185.6 L 85.0,193.6 L 87.5,201.5 L 90.0,209.0 L 92.5,215.9 L 95.0,222.1 L 97.5,227.7 L 100.0,232.7 L 102.5,237.3 L 105.0,241.5 L 107.5,245.4 L 110.0,248.8 L 112.5,252.0 L 115.0,254.9 L 117.5,257.5 L 120.0,259.8 L 122.5,262.0 L 124.9,264.1 L 127.4,266.0 L 129.9,267.8 L 132.4,269.5 L 134.9,271.1 L 137.4,272.6 L 139.9,274.1 L 142.4,275.5 L 144.9,276.8 L 147.4,278.1 L 149.9,279.4 L 152.4,280.6 L 154.9,281.8 L 157.4,282.9 L 159.9,284.1 L 162.4,285.2 L 164.9,286.3 L 167.4,287.3 L 169.9,288.3 L 172.4,289.4 L 174.9,290.3 L 177.4,291.3 L 179.9,292.3 L 182.4,293.2 L 184.9,294.2 L 187.4,295.1 L 189.9,296.0 L 192.4,296.9 L 194.9,297.8 L 197.4,298.6 L 199.9,299.5 L 202.4,300.3 L 204.9,301.2 L 207.4,302.0 L 209.9,302.8 L 212.4,303.6 L 214.9,304.4 L 217.4,305.2 L 219.9,306.0 L 222.4,306.7 L 224.9,307.5 L 227.4,308.2 L 229.9,308.9 L 232.4,309.7 L 234.8,310.4 L 237.3,311.1 L 239.8,311.8 L 242.3,312.4 L 244.8,313.1 L 247.3,313.8 L 249.8,314.4 L 252.3,315.0 L 254.8,315.6 L 257.3,316.2 L 259.8,316.8 L 262.3,317.4 L 264.8,318.0 L 267.3,318.5 L 269.8,319.1 L 272.3,319.6 L 274.8,320.1 L 277.3,320.6 L 279.8,321.2 L 282.3,321.7 L 284.8,322.2 L 287.3,322.7 L 289.8,323.1 L 292.3,323.6 L 294.8,324.1 L 297.3,324.6 L 299.8,325.0 L 302.3,325.5 L 304.8,325.9 L 307.3,326.4 L 309.8,326.8 L 312.3,327.3 L 314.8,327.7 L 317.3,328.1 L 319.8,328.6 L 322.3,329.0 L 324.8,329.4 L 327.3,329.8 L 329.8,330.2 L 332.3,330.6 L 334.8,331.0 L 337.3,331.4 L 339.8,331.8 L 342.3,332.2 L 344.7,332.6 L 347.2,333.0 L 349.7,333.4 L 352.2,333.8 L 354.7,334.1 L 357.2,334.5 L 359.7,334.9 L 362.2,335.3 L 364.7,335.6 L 367.2,336.0 L 369.7,336.3 L 372.2,336.7 L 374.7,337.0 L 377.2,337.4 L 379.7,337.7 L 382.2,338.1 L 384.7,338.4 L 387.2,338.8 L 389.7,339.1 L 392.2,339.4 L 394.7,339.8 L 397.2,340.1 L 399.7,340.4 L 402.2,340.7 L 404.7,341.0 L 407.2,341.4 L 409.7,341.7 L 412.2,342.0 L 414.7,342.3 L 417.2,342.6 L 419.7,342.9 L 422.2,343.2 L 424.7,343.5 L 427.2,343.8 L 429.7,344.1 L 432.2,344.3 L 434.7,344.6 L 437.2,344.9 L 439.7,345.2 L 442.2,345.5 L 444.7,345.8 L 447.2,346.0 L 449.7,346.3 L 452.2,346.6 L 454.6,346.8 L 457.1,347.1 L 459.6,347.4 L 462.1,347.6 L 464.6,347.9 L 467.1,348.1 L 469.6,348.4 L 472.1,348.6 L 474.6,348.9 L 477.1,349.1 L 479.6,349.4 L 482.1,349.6 L 484.6,349.9 L 487.1,350.1 L 489.6,350.3 L 492.1,350.6 L 494.6,350.8 L 497.1,351.0 L 499.6,351.3 L 502.1,351.5 L 504.6,351.7 L 507.1,352.0 L 509.6,352.2 L 512.1,352.4 L 514.6,352.7 L 517.1,352.9 L 519.6,353.1 L 522.1,353.4 L 524.6,353.6 L 527.1,353.8 L 529.6,354.1 L 532.1,354.3 L 534.6,354.6 L 537.1,354.8 L 539.6,355.1 L 542.1,355.3 L 544.6,355.6 L 547.1,355.9 L 549.6,356.1 L 552.1,356.4 L 554.6,356.6 L 557.1,356.8 L 559.6,357.0 L 562.1,357.3 L 564.5,357.5 L 567.0,357.7 L 569.5,357.8 L 572.0,358.0 L 574.5,358.2 L 577.0,358.3 L 579.5,358.5 L 582.0,358.6 L 584.5,358.7 L 587.0,358.9 L 589.5,359.0 L 592.0,359.1 L 594.5,359.2 L 597.0,359.3 L 599.5,359.4 L 602.0,359.5 L 604.5,359.6 L 607.0,359.7 L 609.5,359.8 L 612.0,359.8 L 614.5,359.9 L 617.0,360.0" class="sig"/>
<path d="M 75.5,291.4 L 80.9,267.6 L 86.4,254.7 L 91.9,248.4 L 97.3,243.1 L 102.8,238.1 L 108.3,233.8 L 113.8,230.0 L 119.2,226.0 L 124.7,221.9 L 130.2,217.8 L 135.6,213.6 L 141.1,209.5 L 146.6,205.5 L 152.1,201.5 L 157.5,197.7 L 163.0,194.0 L 168.5,190.4 L 173.9,186.9 L 179.4,183.5 L 184.9,180.2 L 190.3,177.0 L 195.8,173.9 L 201.3,170.9 L 206.8,168.0 L 212.2,165.2 L 217.7,162.5 L 223.2,159.9 L 228.6,157.4 L 234.1,154.9 L 239.6,152.5 L 245.0,150.2 L 250.5,148.0 L 256.0,145.9 L 261.5,143.8 L 266.9,141.7 L 272.4,139.7 L 277.9,137.7 L 283.3,135.8 L 288.8,133.9 L 294.3,132.0 L 299.7,130.2 L 305.2,128.4 L 310.7,126.6 L 316.1,124.9 L 321.6,123.2 L 327.1,121.5 L 332.6,119.9 L 338.0,118.3 L 343.5,116.8 L 349.0,115.3 L 354.4,113.8 L 359.9,112.4 L 365.4,111.0 L 370.8,109.6 L 376.3,108.2 L 381.8,106.9 L 387.3,105.6 L 392.7,104.4 L 398.2,103.2 L 403.7,102.0 L 409.1,100.8 L 414.6,99.7 L 420.1,98.6 L 425.6,97.5 L 431.0,96.5 L 436.5,95.5 L 442.0,94.5 L 447.4,93.6 L 452.9,92.6 L 458.4,91.7 L 463.8,90.9 L 469.3,90.0 L 474.8,89.2 L 480.3,88.4 L 485.7,87.7 L 491.2,87.0 L 496.7,86.3 L 502.1,85.6 L 507.6,84.9 L 513.1,84.3 L 518.5,83.7 L 524.0,83.2 L 529.5,82.6 L 534.9,82.1 L 540.4,81.7 L 545.9,81.4 L 551.4,81.3 L 556.8,81.5 L 562.3,81.8 L 567.8,82.4 L 573.2,83.1 L 578.7,84.0 L 584.2,85.2 L 589.6,86.5 L 595.1,87.9 L 600.6,89.3 L 606.1,90.8 L 611.5,92.2 L 617.0,93.5" class="nt"/>
<path d="M 74.6,282.3 L 79.1,227.6 L 83.7,185.0 L 88.2,161.3 L 92.8,152.0 L 97.3,151.4 L 101.9,154.1 L 106.5,158.6 L 111.0,164.2 L 115.6,170.7 L 120.1,176.7 L 124.7,181.4 L 129.3,185.0 L 133.8,187.3 L 138.4,188.8 L 142.9,189.7 L 147.5,190.1 L 152.1,190.1 L 156.6,189.7 L 161.2,189.2 L 165.7,188.4 L 170.3,187.5 L 174.8,186.6 L 179.4,185.5 L 184.0,184.4 L 188.5,183.3 L 193.1,182.2 L 197.6,181.2 L 202.2,180.2 L 206.8,179.2 L 211.3,178.3 L 215.9,177.6 L 220.4,176.9 L 225.0,176.4 L 229.5,176.1 L 234.1,176.0 L 238.7,176.1 L 243.2,176.6 L 247.8,177.4 L 252.3,178.5 L 256.9,179.8 L 261.4,181.1 L 266.0,182.1 L 270.6,182.9 L 275.1,183.5 L 279.7,183.9 L 284.2,184.2 L 288.8,184.3 L 293.4,184.5 L 297.9,184.5 L 302.5,184.5 L 307.0,184.5 L 311.6,184.4 L 316.1,184.4 L 320.7,184.3 L 325.3,184.2 L 329.8,184.1 L 334.4,184.0 L 338.9,184.0 L 343.5,183.9 L 348.1,183.9 L 352.6,183.8 L 357.2,183.8 L 361.7,183.8 L 366.3,183.8 L 370.8,183.9 L 375.4,183.9 L 380.0,184.0 L 384.5,184.1 L 389.1,184.2 L 393.6,184.4 L 398.2,184.5 L 402.8,184.7 L 407.3,184.9 L 411.9,185.1 L 416.4,185.4 L 421.0,185.6 L 425.6,185.9 L 430.1,186.2 L 434.7,186.5 L 439.2,186.8 L 443.8,187.2 L 448.3,187.5 L 452.9,187.9 L 457.5,188.2 L 462.0,188.5 L 466.6,188.9 L 471.1,189.2 L 475.7,189.4 L 480.3,189.7 L 484.8,189.8 L 489.4,189.9 L 493.9,189.9 L 498.5,189.7 L 503.0,189.3 L 507.6,188.6 L 512.2,187.6 L 516.7,186.0 L 521.3,183.9 L 525.8,181.3 L 530.4,178.2 L 534.9,175.3 L 539.5,173.2 L 544.1,172.7 L 548.6,173.9 L 553.2,177.2 L 557.7,182.0 L 562.3,188.1 L 566.9,195.0 L 571.4,202.3 L 576.0,209.7 L 580.5,216.8 L 585.1,223.5 L 589.6,229.5 L 594.2,234.9 L 598.8,239.7 L 603.3,243.8 L 607.9,247.6 L 612.4,250.8 L 617.0,253.8" class="fw"/>
<line x1="73.88" y1="167.21" x2="73.88" y2="248.64" class="err"/>
<line x1="70.88" y1="167.21" x2="76.88" y2="167.21" class="err"/>
<line x1="70.88" y1="248.64" x2="76.88" y2="248.64" class="err"/>
<circle cx="73.88" cy="207.92" r="2.5" class="obs"/>
<line x1="77.59" y1="158.42" x2="77.59" y2="226.42" class="err"/>
<line x1="74.59" y1="158.42" x2="80.59" y2="158.42" class="err"/>
<line x1="74.59" y1="226.42" x2="80.59" y2="226.42" class="err"/>
<circle cx="77.59" cy="192.42" r="2.5" class="obs"/>
<line x1="81.48" y1="158.42" x2="81.48" y2="201.62" class="err"/>
<line x1="78.48" y1="158.42" x2="84.48" y2="158.42" class="err"/>
<line x1="78.48" y1="201.62" x2="84.48" y2="201.62" class="err"/>
<circle cx="81.48" cy="180.02" r="2.5" class="obs"/>
<line x1="85.36" y1="154.50" x2="85.36" y2="186.95" class="err"/>
<line x1="82.36" y1="154.50" x2="88.36" y2="154.50" class="err"/>
<line x1="82.36" y1="186.95" x2="88.36" y2="186.95" class="err"/>
<circle cx="85.36" cy="170.72" r="2.5" class="obs"/>
<line x1="89.07" y1="152.53" x2="89.07" y2="174.44" class="err"/>
<line x1="86.07" y1="152.53" x2="92.07" y2="152.53" class="err"/>
<line x1="86.07" y1="174.44" x2="92.07" y2="174.44" class="err"/>
<circle cx="89.07" cy="163.49" r="2.5" class="obs"/>
<line x1="93.13" y1="150.18" x2="93.13" y2="168.53" class="err"/>
<line x1="90.13" y1="150.18" x2="96.13" y2="150.18" class="err"/>
<line x1="90.13" y1="168.53" x2="96.13" y2="168.53" class="err"/>
<circle cx="93.13" cy="159.35" r="2.5" class="obs"/>
<line x1="96.84" y1="151.71" x2="96.84" y2="160.80" class="err"/>
<line x1="93.84" y1="151.71" x2="99.84" y2="151.71" class="err"/>
<line x1="93.84" y1="160.80" x2="99.84" y2="160.80" class="err"/>
<circle cx="96.84" cy="156.25" r="2.5" class="obs"/>
<line x1="100.55" y1="153.88" x2="100.55" y2="158.63" class="err"/>
<line x1="97.55" y1="153.88" x2="103.55" y2="153.88" class="err"/>
<line x1="97.55" y1="158.63" x2="103.55" y2="158.63" class="err"/>
<circle cx="100.55" cy="156.25" r="2.5" class="obs"/>
<line x1="104.61" y1="152.76" x2="104.61" y2="159.75" class="err"/>
<line x1="101.61" y1="152.76" x2="107.61" y2="152.76" class="err"/>
<line x1="101.61" y1="159.75" x2="107.61" y2="159.75" class="err"/>
<circle cx="104.61" cy="156.25" r="2.5" class="obs"/>
<line x1="108.32" y1="153.70" x2="108.32" y2="162.94" class="err"/>
<line x1="105.32" y1="153.70" x2="111.32" y2="153.70" class="err"/>
<line x1="105.32" y1="162.94" x2="111.32" y2="162.94" class="err"/>
<circle cx="108.32" cy="158.32" r="2.5" class="obs"/>
<line x1="112.20" y1="159.48" x2="112.20" y2="165.43" class="err"/>
<line x1="109.20" y1="159.48" x2="115.20" y2="159.48" class="err"/>
<line x1="109.20" y1="165.43" x2="115.20" y2="165.43" class="err"/>
<circle cx="112.20" cy="162.46" r="2.5" class="obs"/>
<line x1="115.91" y1="162.12" x2="115.91" y2="168.99" class="err"/>
<line x1="112.91" y1="162.12" x2="118.91" y2="162.12" class="err"/>
<line x1="112.91" y1="168.99" x2="118.91" y2="168.99" class="err"/>
<circle cx="115.91" cy="165.56" r="2.5" class="obs"/>
<line x1="119.97" y1="167.40" x2="119.97" y2="171.97" class="err"/>
<line x1="116.97" y1="167.40" x2="122.97" y2="167.40" class="err"/>
<line x1="116.97" y1="171.97" x2="122.97" y2="171.97" class="err"/>
<circle cx="119.97" cy="169.69" r="2.5" class="obs"/>
<line x1="123.68" y1="160.39" x2="123.68" y2="189.32" class="err"/>
<line x1="120.68" y1="160.39" x2="126.68" y2="160.39" class="err"/>
<line x1="120.68" y1="189.32" x2="126.68" y2="189.32" class="err"/>
<circle cx="123.68" cy="174.86" r="2.5" class="obs"/>
<line x1="173.65" y1="183.69" x2="173.65" y2="194.96" class="err"/>
<line x1="170.65" y1="183.69" x2="176.65" y2="183.69" class="err"/>
<line x1="170.65" y1="194.96" x2="176.65" y2="194.96" class="err"/>
<circle cx="173.65" cy="189.32" r="2.5" class="obs"/>
<line x1="177.36" y1="180.37" x2="177.36" y2="194.14" class="err"/>
<line x1="174.36" y1="180.37" x2="180.36" y2="180.37" class="err"/>
<line x1="174.36" y1="194.14" x2="180.36" y2="194.14" class="err"/>
<circle cx="177.36" cy="187.26" r="2.5" class="obs"/>
<line x1="181.24" y1="181.10" x2="181.24" y2="189.28" class="err"/>
<line x1="178.24" y1="181.10" x2="184.24" y2="181.10" class="err"/>
<line x1="178.24" y1="189.28" x2="184.24" y2="189.28" class="err"/>
<circle cx="181.24" cy="185.19" r="2.5" class="obs"/>
<line x1="185.13" y1="177.77" x2="185.13" y2="188.48" class="err"/>
<line x1="182.13" y1="177.77" x2="188.13" y2="177.77" class="err"/>
<line x1="182.13" y1="188.48" x2="188.13" y2="188.48" class="err"/>
<circle cx="185.13" cy="183.12" r="2.5" class="obs"/>
<line x1="189.01" y1="177.91" x2="189.01" y2="184.20" class="err"/>
<line x1="186.01" y1="177.91" x2="192.01" y2="177.91" class="err"/>
<line x1="186.01" y1="184.20" x2="192.01" y2="184.20" class="err"/>
<circle cx="189.01" cy="181.06" r="2.5" class="obs"/>
<line x1="192.72" y1="176.15" x2="192.72" y2="181.83" class="err"/>
<line x1="189.72" y1="176.15" x2="195.72" y2="176.15" class="err"/>
<line x1="189.72" y1="181.83" x2="195.72" y2="181.83" class="err"/>
<circle cx="192.72" cy="178.99" r="2.5" class="obs"/>
<line x1="196.43" y1="174.50" x2="196.43" y2="179.34" class="err"/>
<line x1="193.43" y1="174.50" x2="199.43" y2="174.50" class="err"/>
<line x1="193.43" y1="179.34" x2="199.43" y2="179.34" class="err"/>
<circle cx="196.43" cy="176.92" r="2.5" class="obs"/>
<line x1="200.49" y1="172.39" x2="200.49" y2="179.39" class="err"/>
<line x1="197.49" y1="172.39" x2="203.49" y2="172.39" class="err"/>
<line x1="197.49" y1="179.39" x2="203.49" y2="179.39" class="err"/>
<circle cx="200.49" cy="175.89" r="2.5" class="obs"/>
<line x1="204.20" y1="167.02" x2="204.20" y2="182.69" class="err"/>
<line x1="201.20" y1="167.02" x2="207.20" y2="167.02" class="err"/>
<line x1="201.20" y1="182.69" x2="207.20" y2="182.69" class="err"/>
<circle cx="204.20" cy="174.86" r="2.5" class="obs"/>
<line x1="208.08" y1="167.54" x2="208.08" y2="180.11" class="err"/>
<line x1="205.08" y1="167.54" x2="211.08" y2="167.54" class="err"/>
<line x1="205.08" y1="180.11" x2="211.08" y2="180.11" class="err"/>
<circle cx="208.08" cy="173.82" r="2.5" class="obs"/>
<line x1="211.79" y1="165.83" x2="211.79" y2="179.74" class="err"/>
<line x1="208.79" y1="165.83" x2="214.79" y2="165.83" class="err"/>
<line x1="208.79" y1="179.74" x2="214.79" y2="179.74" class="err"/>
<circle cx="211.79" cy="172.79" r="2.5" class="obs"/>
<line x1="215.85" y1="164.70" x2="215.85" y2="178.81" class="err"/>
<line x1="212.85" y1="164.70" x2="218.85" y2="164.70" class="err"/>
<line x1="212.85" y1="178.81" x2="218.85" y2="178.81" class="err"/>
<circle cx="215.85" cy="171.76" r="2.5" class="obs"/>
<line x1="219.56" y1="165.44" x2="219.56" y2="178.07" class="err"/>
<line x1="216.56" y1="165.44" x2="222.56" y2="165.44" class="err"/>
<line x1="216.56" y1="178.07" x2="222.56" y2="178.07" class="err"/>
<circle cx="219.56" cy="171.76" r="2.5" class="obs"/>
<line x1="223.26" y1="165.78" x2="223.26" y2="175.66" class="err"/>
<line x1="220.26" y1="165.78" x2="226.26" y2="165.78" class="err"/>
<line x1="220.26" y1="175.66" x2="226.26" y2="175.66" class="err"/>
<circle cx="223.26" cy="170.72" r="2.5" class="obs"/>
<line x1="227.33" y1="166.44" x2="227.33" y2="175.00" class="err"/>
<line x1="224.33" y1="166.44" x2="230.33" y2="166.44" class="err"/>
<line x1="224.33" y1="175.00" x2="230.33" y2="175.00" class="err"/>
<circle cx="227.33" cy="170.72" r="2.5" class="obs"/>
<line x1="238.27" y1="165.63" x2="238.27" y2="177.88" class="err"/>
<line x1="235.27" y1="165.63" x2="241.27" y2="165.63" class="err"/>
<line x1="235.27" y1="177.88" x2="241.27" y2="177.88" class="err"/>
<circle cx="238.27" cy="171.76" r="2.5" class="obs"/>
<line x1="242.69" y1="163.87" x2="242.69" y2="179.64" class="err"/>
<line x1="239.69" y1="163.87" x2="245.69" y2="163.87" class="err"/>
<line x1="239.69" y1="179.64" x2="245.69" y2="179.64" class="err"/>
<circle cx="242.69" cy="171.76" r="2.5" class="obs"/>
<line x1="246.40" y1="164.64" x2="246.40" y2="180.94" class="err"/>
<line x1="243.40" y1="164.64" x2="249.40" y2="164.64" class="err"/>
<line x1="243.40" y1="180.94" x2="249.40" y2="180.94" class="err"/>
<circle cx="246.40" cy="172.79" r="2.5" class="obs"/>
<line x1="250.28" y1="162.60" x2="250.28" y2="182.98" class="err"/>
<line x1="247.28" y1="162.60" x2="253.28" y2="162.60" class="err"/>
<line x1="247.28" y1="182.98" x2="253.28" y2="182.98" class="err"/>
<circle cx="250.28" cy="172.79" r="2.5" class="obs"/>
<line x1="272.35" y1="174.33" x2="272.35" y2="179.52" class="err"/>
<line x1="269.35" y1="174.33" x2="275.35" y2="174.33" class="err"/>
<line x1="269.35" y1="179.52" x2="275.35" y2="179.52" class="err"/>
<circle cx="272.35" cy="176.92" r="2.5" class="obs"/>
<line x1="306.43" y1="178.35" x2="306.43" y2="185.83" class="err"/>
<line x1="303.43" y1="178.35" x2="309.43" y2="178.35" class="err"/>
<line x1="303.43" y1="185.83" x2="309.43" y2="185.83" class="err"/>
<circle cx="306.43" cy="182.09" r="2.5" class="obs"/>
<line x1="338.57" y1="177.22" x2="338.57" y2="191.09" class="err"/>
<line x1="335.57" y1="177.22" x2="341.57" y2="177.22" class="err"/>
<line x1="335.57" y1="191.09" x2="341.57" y2="191.09" class="err"/>
<circle cx="338.57" cy="184.16" r="2.5" class="obs"/>
<line x1="372.47" y1="175.75" x2="372.47" y2="188.42" class="err"/>
<line x1="369.47" y1="175.75" x2="375.47" y2="175.75" class="err"/>
<line x1="369.47" y1="188.42" x2="375.47" y2="188.42" class="err"/>
<circle cx="372.47" cy="182.09" r="2.5" class="obs"/>
<line x1="406.55" y1="174.91" x2="406.55" y2="183.07" class="err"/>
<line x1="403.55" y1="174.91" x2="409.55" y2="174.91" class="err"/>
<line x1="403.55" y1="183.07" x2="409.55" y2="183.07" class="err"/>
<circle cx="406.55" cy="178.99" r="2.5" class="obs"/>
<line x1="440.63" y1="173.35" x2="440.63" y2="182.56" class="err"/>
<line x1="437.63" y1="173.35" x2="443.63" y2="173.35" class="err"/>
<line x1="437.63" y1="182.56" x2="443.63" y2="182.56" class="err"/>
<circle cx="440.63" cy="177.96" r="2.5" class="obs"/>
<line x1="474.70" y1="169.60" x2="474.70" y2="184.25" class="err"/>
<line x1="471.70" y1="169.60" x2="477.70" y2="169.60" class="err"/>
<line x1="471.70" y1="184.25" x2="477.70" y2="184.25" class="err"/>
<circle cx="474.70" cy="176.92" r="2.5" class="obs"/>
<line x1="523.79" y1="168.15" x2="523.79" y2="183.63" class="err"/>
<line x1="520.79" y1="168.15" x2="526.79" y2="168.15" class="err"/>
<line x1="520.79" y1="183.63" x2="526.79" y2="183.63" class="err"/>
<circle cx="523.79" cy="175.89" r="2.5" class="obs"/>
<g class="legend">
<line x1="82" y1="69" x2="106" y2="69" class="fw"/>
<text x="112" y="73" class="lbl-l">framework fit</text>
<line x1="82" y1="87" x2="106" y2="87" class="nt"/>
<text x="112" y="91" class="lbl-l">Newtonian (no halo)</text>
<circle cx="94" cy="105" r="2.5" class="obs"/>
<text x="112" y="109" class="lbl">observed V±err</text>
</g>
<g class="legend">
<line x1="442" y1="69" x2="466" y2="69" class="rho"/>
<text x="472" y="73" class="lbl-r">ρ(r) raw</text>
<line x1="442" y1="87" x2="466" y2="87" class="sig"/>
<text x="472" y="91" class="lbl-s">Σ(r) cumulative</text>
<text x="442" y="113" class="lbl-r">ρ peak: 1365 M☉/pc²</text>
</g>
<rect x="705" y="55" width="170" height="170" class="preview-bg"/>
<defs><radialGradient id="g_UGC08699" cx="0.5" cy="0.5" r="0.5">
  <stop offset="0.0000" stop-color="rgb(255,255,255)"/>
  <stop offset="0.0313" stop-color="rgb(223,223,223)"/>
  <stop offset="0.0625" stop-color="rgb(155,155,155)"/>
  <stop offset="0.0938" stop-color="rgb(137,137,137)"/>
  <stop offset="0.1250" stop-color="rgb(133,133,133)"/>
  <stop offset="0.1563" stop-color="rgb(130,130,130)"/>
  <stop offset="0.1875" stop-color="rgb(126,126,126)"/>
  <stop offset="0.2188" stop-color="rgb(123,123,123)"/>
  <stop offset="0.2500" stop-color="rgb(119,119,119)"/>
  <stop offset="0.2813" stop-color="rgb(116,116,116)"/>
  <stop offset="0.3125" stop-color="rgb(113,113,113)"/>
  <stop offset="0.3438" stop-color="rgb(109,109,109)"/>
  <stop offset="0.3750" stop-color="rgb(107,107,107)"/>
  <stop offset="0.4063" stop-color="rgb(105,105,105)"/>
  <stop offset="0.4375" stop-color="rgb(103,103,103)"/>
  <stop offset="0.4688" stop-color="rgb(101,101,101)"/>
  <stop offset="0.5000" stop-color="rgb(99,99,99)"/>
  <stop offset="0.5313" stop-color="rgb(97,97,97)"/>
  <stop offset="0.5625" stop-color="rgb(95,95,95)"/>
  <stop offset="0.5938" stop-color="rgb(93,93,93)"/>
  <stop offset="0.6250" stop-color="rgb(91,91,91)"/>
  <stop offset="0.6563" stop-color="rgb(89,89,89)"/>
  <stop offset="0.6875" stop-color="rgb(87,87,87)"/>
  <stop offset="0.7188" stop-color="rgb(85,85,85)"/>
  <stop offset="0.7500" stop-color="rgb(83,83,83)"/>
  <stop offset="0.7813" stop-color="rgb(81,81,81)"/>
  <stop offset="0.8125" stop-color="rgb(79,79,79)"/>
  <stop offset="0.8438" stop-color="rgb(77,77,77)"/>
  <stop offset="0.8750" stop-color="rgb(75,75,75)"/>
  <stop offset="0.9063" stop-color="rgb(70,70,70)"/>
  <stop offset="0.9375" stop-color="rgb(52,52,52)"/>
  <stop offset="0.9688" stop-color="rgb(26,26,26)"/>
  <stop offset="1.0000" stop-color="rgb(0,0,0)"/>
</radialGradient></defs>
<circle cx="790" cy="140" r="81" fill="url(#g_UGC08699)"/>
<text x="790" y="49" text-anchor="middle" class="preview-lbl">face-on luminance from ρ(r)</text>
<text x="790" y="239" text-anchor="middle" class="preview-lbl">edge at r = 29.5 kpc</text>
</svg>