<svg xmlns="http://www.w3.org/2000/svg" viewBox="0 0 960 450" width="960" height="450" font-family="sans-serif" font-size="12">
<style>
  .ax { stroke: #333; stroke-width: 1; fill: none; }
  .grid { stroke: #ddd; stroke-width: 0.5; fill: none; }
  .lbl { fill: #333; }
  .lbl-l { fill: #0066cc; }
  .lbl-r { fill: #b03030; }
  .obs { fill: #222; }
  .err { stroke: #555; stroke-width: 0.8; fill: none; }
  .fw { stroke: #0066cc; stroke-width: 2.2; fill: none; }
  .nt { stroke: #cc6600; stroke-width: 1.6; fill: none; stroke-dasharray: 5,3; }
  .mond { stroke: #7b2cbf; stroke-width: 1.8; fill: none; stroke-dasharray: 7,3; }
  .lbl-p { fill: #cc7000; }
  .lbl-m { fill: #7b2cbf; }
  .rho { stroke: #b03030; stroke-width: 2.0; fill: none; }
  .phot { stroke: #cc7000; stroke-width: 1.8; fill: none; }
  .mbar { stroke: #8e44ad; stroke-width: 1.8; fill: none; opacity: 0.9; }
  .mph { stroke: #c77dff; stroke-width: 1.6; fill: none; stroke-dasharray: 4,3; opacity: 0.95; }
  .title { fill: #111; font-size: 16px; font-weight: 600; }
  .subtitle { fill: #555; font-size: 11px; }
  .preview-bg { fill: #000; }
  .preview-lbl { fill: #888; font-size: 10px; }
  .legend { font-size: 11px; }
</style>
<text x="378.5" y="22" text-anchor="middle" class="title">UGC02455</text>
<text x="378.5" y="38" text-anchor="middle" class="subtitle">rMax=4.0 kpc, N=8, FW=0.9 km/s, 1.8%, 0.26σ, MOND=40.7 km/s, 128.2%, 11.19σ, amp=104</text>
<line x1="70" y1="395.0" x2="687" y2="395.0" class="grid"/>
<text x="64" y="399.0" text-anchor="end" class="lbl-l">0</text>
<line x1="70" y1="327.0" x2="687" y2="327.0" class="grid"/>
<text x="64" y="331.0" text-anchor="end" class="lbl-l">20</text>
<line x1="70" y1="259.0" x2="687" y2="259.0" class="grid"/>
<text x="64" y="263.0" text-anchor="end" class="lbl-l">40</text>
<line x1="70" y1="191.0" x2="687" y2="191.0" class="grid"/>
<text x="64" y="195.0" text-anchor="end" class="lbl-l">60</text>
<line x1="70" y1="123.0" x2="687" y2="123.0" class="grid"/>
<text x="64" y="127.0" text-anchor="end" class="lbl-l">80</text>
<line x1="70" y1="55.0" x2="687" y2="55.0" class="grid"/>
<text x="64" y="59.0" text-anchor="end" class="lbl-l">100</text>
<text x="693" y="399.0" text-anchor="start" class="lbl-r">0.0</text>
<text x="693" y="353.7" text-anchor="start" class="lbl-r">0.2</text>
<text x="693" y="308.3" text-anchor="start" class="lbl-r">0.4</text>
<text x="693" y="263.0" text-anchor="start" class="lbl-r">0.6</text>
<text x="693" y="217.7" text-anchor="start" class="lbl-r">0.8</text>
<text x="693" y="172.3" text-anchor="start" class="lbl-r">1.0</text>
<line x1="70.0" y1="55" x2="70.0" y2="395" class="grid"/>
<text x="70.0" y="411" text-anchor="middle" class="lbl">0.0</text>
<line x1="172.8" y1="55" x2="172.8" y2="395" class="grid"/>
<text x="172.8" y="411" text-anchor="middle" class="lbl">0.7</text>
<line x1="275.7" y1="55" x2="275.7" y2="395" class="grid"/>
<text x="275.7" y="411" text-anchor="middle" class="lbl">1.5</text>
<line x1="378.5" y1="55" x2="378.5" y2="395" class="grid"/>
<text x="378.5" y="411" text-anchor="middle" class="lbl">2.2</text>
<line x1="481.3" y1="55" x2="481.3" y2="395" class="grid"/>
<text x="481.3" y="411" text-anchor="middle" class="lbl">2.9</text>
<line x1="584.2" y1="55" x2="584.2" y2="395" class="grid"/>
<text x="584.2" y="411" text-anchor="middle" class="lbl">3.7</text>
<line x1="687.0" y1="55" x2="687.0" y2="395" class="grid"/>
<text x="687.0" y="411" text-anchor="middle" class="lbl">4.4</text>
<text x="378.5" y="438" text-anchor="middle" class="lbl">radius (kpc)</text>
<text x="16" y="225" text-anchor="middle" class="lbl-l" transform="rotate(-90, 16, 225)">velocity (km/s)</text>
<text x="724" y="225" text-anchor="middle" class="lbl-r" transform="rotate(-90, 724, 225)">profiles (normalized to peak)</text>
<rect x="70" y="55" width="617" height="340" class="ax"/>
<path d="M 70.0,168.3 L 72.8,174.2 L 75.6,180.0 L 78.5,185.8 L 81.3,191.7 L 84.1,197.5 L 86.9,203.3 L 89.7,209.2 L 92.5,215.0 L 95.4,220.8 L 98.2,226.7 L 101.0,232.5 L 103.8,238.3 L 106.6,240.1 L 109.4,240.6 L 112.3,241.0 L 115.1,241.4 L 117.9,241.8 L 120.7,242.3 L 123.5,242.7 L 126.3,243.1 L 129.2,243.5 L 132.0,244.0 L 134.8,244.4 L 137.6,244.8 L 140.4,245.3 L 143.3,245.7 L 146.1,246.1 L 148.9,246.5 L 151.7,247.0 L 154.5,247.4 L 157.3,247.8 L 160.2,248.2 L 163.0,248.7 L 165.8,249.1 L 168.6,249.5 L 171.4,249.9 L 174.2,250.4 L 177.1,250.8 L 179.9,251.3 L 182.7,251.8 L 185.5,252.3 L 188.3,252.8 L 191.1,253.3 L 194.0,253.8 L 196.8,254.3 L 199.6,254.8 L 202.4,255.3 L 205.2,255.8 L 208.1,256.3 L 210.9,256.8 L 213.7,257.1 L 216.5,257.3 L 219.3,257.6 L 222.1,257.9 L 225.0,258.1 L 227.8,258.4 L 230.6,258.7 L 233.4,258.9 L 236.2,259.2 L 239.0,259.5 L 241.9,259.7 L 244.7,260.0 L 247.5,260.3 L 250.3,260.5 L 253.1,260.8 L 255.9,261.1 L 258.8,261.3 L 261.6,261.6 L 264.4,261.9 L 267.2,262.1 L 270.0,262.4 L 272.8,262.7 L 275.7,262.9 L 278.5,263.2 L 281.3,263.5 L 284.1,263.7 L 286.9,264.0 L 289.8,264.3 L 292.6,264.5 L 295.4,264.8 L 298.2,265.1 L 301.0,265.3 L 303.8,265.6 L 306.7,265.9 L 309.5,266.1 L 312.3,266.4 L 315.1,266.7 L 317.9,266.9 L 320.7,267.2 L 323.6,267.5 L 326.4,267.7 L 329.2,268.0 L 332.0,268.2 L 334.8,268.5 L 337.6,268.8 L 340.5,269.0 L 343.3,269.3 L 346.1,269.6 L 348.9,269.8 L 351.7,270.1 L 354.6,270.4 L 357.4,270.6 L 360.2,270.9 L 363.0,271.2 L 365.8,271.4 L 368.6,271.7 L 371.5,272.0 L 374.3,272.2 L 377.1,272.5 L 379.9,272.8 L 382.7,273.0 L 385.5,273.3 L 388.4,273.6 L 391.2,273.8 L 394.0,274.1 L 396.8,274.4 L 399.6,274.6 L 402.4,274.9 L 405.3,275.2 L 408.1,275.4 L 410.9,275.7 L 413.7,276.0 L 416.5,276.2 L 419.4,276.5 L 422.2,276.8 L 425.0,277.0 L 427.8,277.3 L 430.6,277.6 L 433.4,277.8 L 436.3,278.1 L 439.1,278.4 L 441.9,278.6 L 444.7,278.9 L 447.5,279.2 L 450.3,279.4 L 453.2,279.7 L 456.0,280.0 L 458.8,280.2 L 461.6,280.5 L 464.4,280.8 L 467.2,281.0 L 470.1,281.3 L 472.9,281.6 L 475.7,281.8 L 478.5,282.1 L 481.3,282.4 L 484.2,282.6 L 487.0,282.9 L 489.8,283.2 L 492.6,283.4 L 495.4,283.7 L 498.2,284.0 L 501.1,284.2 L 503.9,284.5 L 506.7,284.8 L 509.5,285.0 L 512.3,285.3 L 515.1,285.6 L 518.0,285.8 L 520.8,286.1 L 523.6,286.4 L 526.4,286.6 L 529.2,286.9 L 532.0,287.2 L 534.9,287.4 L 537.7,287.7 L 540.5,288.0 L 543.3,288.2 L 546.1,288.5 L 548.9,288.8 L 551.8,289.0 L 554.6,289.3 L 557.4,289.6 L 560.2,289.8 L 563.0,290.1 L 565.9,290.4 L 568.7,290.6 L 571.5,290.9 L 574.3,291.2 L 577.1,291.4 L 579.9,291.7 L 582.8,292.0 L 585.6,292.2 L 588.4,292.5 L 591.2,292.8 L 594.0,293.0 L 596.8,293.3 L 599.7,293.6 L 602.5,293.8 L 605.3,294.1 L 608.1,297.1 L 610.9,302.7 L 613.7,308.3 L 616.6,313.8 L 619.4,319.4 L 622.2,325.0 L 625.0,330.5 L 627.8,336.1 L 630.7,341.7 L 633.5,347.3 L 636.3,352.8 L 639.1,358.4 L 641.9,364.0 L 644.7,369.5 L 647.6,375.1 L 650.4,380.7 L 653.2,386.2 L 656.0,391.8 L 658.8,395.0 L 661.6,395.0 L 664.5,395.0 L 667.3,395.0 L 670.1,395.0 L 672.9,395.0 L 675.7,395.0 L 678.5,395.0 L 681.4,395.0 L 684.2,395.0 L 687.0,395.0" class="rho"/>
<path d="M 140.0,168.3 L 210.0,226.7 L 281.4,328.0 L 351.4,352.9 L 422.8,368.5 L 492.8,380.7 L 562.8,387.6 L 634.2,390.7" class="phot"/>
<path d="M 140.0,193.8 L 210.0,168.3 L 281.4,196.0 L 351.4,269.7 L 422.8,312.2 L 492.8,328.6 L 562.8,349.1 L 634.2,362.5" class="mbar"/>
<path d="M 140.0,176.5 L 210.0,168.3 L 281.4,177.6 L 351.4,204.3 L 422.8,224.4 L 492.8,238.2 L 562.8,254.9 L 634.2,267.2" class="mph"/>
<path d="M 76.2,370.5 L 82.3,361.1 L 88.5,354.3 L 94.7,349.0 L 100.9,344.8 L 107.0,341.2 L 113.2,337.8 L 119.4,334.6 L 125.5,331.5 L 131.7,328.5 L 137.9,325.7 L 144.0,323.0 L 150.2,320.3 L 156.4,317.8 L 162.6,315.4 L 168.7,313.0 L 174.9,310.8 L 181.1,308.6 L 187.2,306.5 L 193.4,304.4 L 199.6,302.4 L 205.7,300.5 L 211.9,298.6 L 218.1,296.8 L 224.3,295.1 L 230.4,293.3 L 236.6,291.6 L 242.8,289.9 L 248.9,288.3 L 255.1,286.7 L 261.3,285.1 L 267.4,283.6 L 273.6,282.1 L 279.8,280.6 L 285.9,279.1 L 292.1,277.7 L 298.3,276.3 L 304.5,274.9 L 310.6,273.5 L 316.8,272.2 L 323.0,270.9 L 329.1,269.6 L 335.3,268.3 L 341.5,267.1 L 347.7,265.8 L 353.8,264.6 L 360.0,263.4 L 366.2,262.2 L 372.3,261.1 L 378.5,259.9 L 384.7,258.8 L 390.8,257.7 L 397.0,256.6 L 403.2,255.5 L 409.4,254.5 L 415.5,253.4 L 421.7,252.4 L 427.9,251.4 L 434.0,250.4 L 440.2,249.4 L 446.4,248.4 L 452.5,247.5 L 458.7,246.5 L 464.9,245.6 L 471.0,244.7 L 477.2,243.7 L 483.4,242.8 L 489.6,242.0 L 495.7,241.1 L 501.9,240.2 L 508.1,239.4 L 514.2,238.5 L 520.4,237.7 L 526.6,236.9 L 532.8,236.1 L 538.9,235.3 L 545.1,234.5 L 551.3,233.7 L 557.4,233.0 L 563.6,232.2 L 569.8,231.5 L 575.9,230.7 L 582.1,230.0 L 588.3,229.3 L 594.4,228.6 L 600.6,227.9 L 606.8,227.2 L 613.0,226.6 L 619.1,226.2 L 625.3,226.1 L 631.5,226.0 L 637.6,226.2 L 643.8,226.6 L 650.0,227.2 L 656.2,227.9 L 662.3,228.8 L 668.5,229.6 L 674.7,230.5 L 680.8,231.3 L 687.0,232.1" class="nt"/>
<path d="M 140.0,254.2 L 210.0,180.8 L 281.4,133.0 L 351.4,120.2 L 422.8,107.2 L 492.8,95.4 L 562.8,89.8 L 634.2,85.9" class="mond"/>
<path d="M 75.1,385.5 L 80.3,378.5 L 85.4,371.3 L 90.6,364.9 L 95.7,359.6 L 100.8,355.3 L 106.0,351.9 L 111.1,349.2 L 116.3,346.9 L 121.4,344.9 L 126.6,343.0 L 131.7,341.1 L 136.8,339.2 L 142.0,337.3 L 147.1,335.4 L 152.3,333.4 L 157.4,331.5 L 162.6,329.6 L 167.7,327.7 L 172.8,325.8 L 178.0,324.0 L 183.1,322.3 L 188.3,320.7 L 193.4,319.1 L 198.5,317.7 L 203.7,316.3 L 208.8,315.0 L 214.0,313.8 L 219.1,312.6 L 224.3,311.5 L 229.4,310.3 L 234.5,309.2 L 239.7,308.0 L 244.8,306.8 L 250.0,305.6 L 255.1,304.3 L 260.2,303.1 L 265.4,301.9 L 270.5,300.7 L 275.7,299.4 L 280.8,298.2 L 285.9,297.0 L 291.1,295.8 L 296.2,294.5 L 301.4,293.3 L 306.5,292.1 L 311.7,290.9 L 316.8,289.7 L 321.9,288.5 L 327.1,287.3 L 332.2,286.2 L 337.4,285.0 L 342.5,283.8 L 347.7,282.7 L 352.8,281.5 L 357.9,280.3 L 363.1,279.2 L 368.2,278.1 L 373.4,276.9 L 378.5,275.8 L 383.6,274.6 L 388.8,273.5 L 393.9,272.4 L 399.1,271.2 L 404.2,270.1 L 409.4,269.0 L 414.5,267.8 L 419.6,266.7 L 424.8,265.5 L 429.9,264.4 L 435.1,263.2 L 440.2,262.0 L 445.3,260.8 L 450.5,259.5 L 455.6,258.3 L 460.8,257.0 L 465.9,255.7 L 471.1,254.4 L 476.2,253.0 L 481.3,251.6 L 486.5,250.2 L 491.6,248.7 L 496.8,247.1 L 501.9,245.5 L 507.0,243.8 L 512.2,242.0 L 517.3,240.2 L 522.5,238.2 L 527.6,236.1 L 532.8,233.9 L 537.9,231.5 L 543.0,228.9 L 548.2,226.2 L 553.3,223.3 L 558.5,220.1 L 563.6,216.6 L 568.7,212.9 L 573.9,208.8 L 579.0,204.4 L 584.2,199.8 L 589.3,194.9 L 594.4,190.0 L 599.6,185.2 L 604.7,180.9 L 609.9,177.6 L 615.0,175.5 L 620.2,174.9 L 625.3,175.8 L 630.4,178.3 L 635.6,182.0 L 640.7,186.9 L 645.9,192.5 L 651.0,198.6 L 656.1,204.8 L 661.3,211.1 L 666.4,217.2 L 671.6,223.0 L 676.7,228.4 L 681.9,233.4 L 687.0,238.1" class="fw"/>
<line x1="139.99" y1="325.43" x2="139.99" y2="350.08" class="err"/>
<line x1="136.99" y1="325.43" x2="142.99" y2="325.43" class="err"/>
<line x1="136.99" y1="350.08" x2="142.99" y2="350.08" class="err"/>
<circle cx="139.99" cy="337.75" r="2.5" class="obs"/>
<line x1="209.99" y1="301.71" x2="209.99" y2="326.37" class="err"/>
<line x1="206.99" y1="301.71" x2="212.99" y2="301.71" class="err"/>
<line x1="206.99" y1="326.37" x2="212.99" y2="326.37" class="err"/>
<circle cx="209.99" cy="314.04" r="2.5" class="obs"/>
<line x1="281.38" y1="287.15" x2="281.38" y2="311.81" class="err"/>
<line x1="278.38" y1="287.15" x2="284.38" y2="287.15" class="err"/>
<line x1="278.38" y1="311.81" x2="284.38" y2="311.81" class="err"/>
<circle cx="281.38" cy="299.48" r="2.5" class="obs"/>
<line x1="351.38" y1="270.89" x2="351.38" y2="295.55" class="err"/>
<line x1="348.38" y1="270.89" x2="354.38" y2="270.89" class="err"/>
<line x1="348.38" y1="295.55" x2="354.38" y2="295.55" class="err"/>
<circle cx="351.38" cy="283.22" r="2.5" class="obs"/>
<line x1="422.77" y1="250.23" x2="422.77" y2="274.89" class="err"/>
<line x1="419.77" y1="250.23" x2="425.77" y2="250.23" class="err"/>
<line x1="419.77" y1="274.89" x2="425.77" y2="274.89" class="err"/>
<circle cx="422.77" cy="262.56" r="2.5" class="obs"/>
<line x1="492.77" y1="234.31" x2="492.77" y2="258.97" class="err"/>
<line x1="489.77" y1="234.31" x2="495.77" y2="234.31" class="err"/>
<line x1="489.77" y1="258.97" x2="495.77" y2="258.97" class="err"/>
<circle cx="492.77" cy="246.64" r="2.5" class="obs"/>
<line x1="562.76" y1="202.81" x2="562.76" y2="227.47" class="err"/>
<line x1="559.76" y1="202.81" x2="565.76" y2="202.81" class="err"/>
<line x1="559.76" y1="227.47" x2="565.76" y2="227.47" class="err"/>
<circle cx="562.76" cy="215.14" r="2.5" class="obs"/>
<line x1="634.16" y1="176.05" x2="634.16" y2="200.71" class="err"/>
<line x1="631.16" y1="176.05" x2="637.16" y2="176.05" class="err"/>
<line x1="631.16" y1="200.71" x2="637.16" y2="200.71" class="err"/>
<circle cx="634.16" cy="188.38" r="2.5" class="obs"/>
<g class="legend">
<line x1="82" y1="69" x2="106" y2="69" class="fw"/>
<text x="112" y="73" class="lbl-l">framework: 0.9 km/s, 1.8%, 0.26σ</text>
<line x1="82" y1="87" x2="106" y2="87" class="nt"/>
<text x="112" y="91" class="lbl-l">Newtonian: 5.7 km/s, 15.9%, 1.56σ</text>
<line x1="82" y1="105" x2="106" y2="105" class="mond"/>
<text x="112" y="109" class="lbl-m">MOND/RAR: 40.7 km/s, 128.2%, 11.19σ</text>
<circle cx="94" cy="123" r="2.5" class="obs"/>
<text x="112" y="127" class="lbl">observed V±err</text>
</g>
<g class="legend">
<line x1="472" y1="69" x2="496" y2="69" class="rho"/>
<text x="502" y="73" class="lbl-r">ρ(r) raw</text>
<line x1="472" y1="87" x2="496" y2="87" class="phot"/>
<text x="502" y="91" class="lbl-p">photometric baryonic profile</text>
<line x1="472" y1="105" x2="496" y2="105" class="mbar"/>
<text x="502" y="109" class="lbl-m">MOND baryonic annulus</text>
<line x1="472" y1="123" x2="496" y2="123" class="mph"/>
<text x="502" y="127" class="lbl-m">MOND phantom annulus</text>
<text x="472" y="147" class="lbl-r">ρ peak: 91 M☉/pc²</text>
<text x="472" y="163" class="lbl-p">phot peak: 186.06 (arb.)</text>
<text x="472" y="179" class="lbl-m">Σbar peak: 153.58 M☉/pc²</text>
<text x="472" y="195" class="lbl-m">Σphantom peak: 137.78 M☉/pc²</text>
</g>
<rect x="775" y="55" width="170" height="170" class="preview-bg"/>
<defs><radialGradient id="g_UGC02455" cx="0.5" cy="0.5" r="0.5">
  <stop offset="0.0000" stop-color="rgb(174,44,44)"/>
  <stop offset="0.0313" stop-color="rgb(154,39,39)"/>
  <stop offset="0.0625" stop-color="rgb(135,34,34)"/>
  <stop offset="0.0938" stop-color="rgb(133,33,33)"/>
  <stop offset="0.1250" stop-color="rgb(132,33,33)"/>
  <stop offset="0.1563" stop-color="rgb(130,33,33)"/>
  <stop offset="0.1875" stop-color="rgb(129,32,32)"/>
  <stop offset="0.2188" stop-color="rgb(127,32,32)"/>
  <stop offset="0.2500" stop-color="rgb(126,32,32)"/>
  <stop offset="0.2813" stop-color="rgb(125,31,31)"/>
  <stop offset="0.3125" stop-color="rgb(124,31,31)"/>
  <stop offset="0.3438" stop-color="rgb(123,31,31)"/>
  <stop offset="0.3750" stop-color="rgb(122,31,31)"/>
  <stop offset="0.4063" stop-color="rgb(121,30,30)"/>
  <stop offset="0.4375" stop-color="rgb(120,30,30)"/>
  <stop offset="0.4688" stop-color="rgb(119,30,30)"/>
  <stop offset="0.5000" stop-color="rgb(118,30,30)"/>
  <stop offset="0.5313" stop-color="rgb(117,29,29)"/>
  <stop offset="0.5625" stop-color="rgb(116,29,29)"/>
  <stop offset="0.5938" stop-color="rgb(115,29,29)"/>
  <stop offset="0.6250" stop-color="rgb(114,29,29)"/>
  <stop offset="0.6563" stop-color="rgb(113,28,28)"/>
  <stop offset="0.6875" stop-color="rgb(112,28,28)"/>
  <stop offset="0.7188" stop-color="rgb(111,28,28)"/>
  <stop offset="0.7500" stop-color="rgb(110,28,28)"/>
  <stop offset="0.7813" stop-color="rgb(109,27,27)"/>
  <stop offset="0.8125" stop-color="rgb(108,27,27)"/>
  <stop offset="0.8438" stop-color="rgb(107,27,27)"/>
  <stop offset="0.8750" stop-color="rgb(106,27,27)"/>
  <stop offset="0.9063" stop-color="rgb(106,27,27)"/>
  <stop offset="0.9375" stop-color="rgb(90,23,23)"/>
  <stop offset="0.9688" stop-color="rgb(70,18,18)"/>
  <stop offset="1.0000" stop-color="rgb(0,0,0)"/>
</radialGradient></defs>
<circle cx="860" cy="140" r="81" fill="url(#g_UGC02455)"/>
<text x="860" y="49" text-anchor="middle" class="preview-lbl">face-on luminance from ρ(r)</text>
<text x="860" y="239" text-anchor="middle" class="preview-lbl">edge at r = 4.2 kpc</text>
</svg>