<svg xmlns="http://www.w3.org/2000/svg" viewBox="0 0 960 450" width="960" height="450" font-family="sans-serif" font-size="12">
<style>
  .ax { stroke: #333; stroke-width: 1; fill: none; }
  .grid { stroke: #ddd; stroke-width: 0.5; fill: none; }
  .lbl { fill: #333; }
  .lbl-l { fill: #0066cc; }
  .lbl-r { fill: #b03030; }
  .obs { fill: #222; }
  .err { stroke: #555; stroke-width: 0.8; fill: none; }
  .fw { stroke: #0066cc; stroke-width: 2.2; fill: none; }
  .nt { stroke: #cc6600; stroke-width: 1.6; fill: none; stroke-dasharray: 5,3; }
  .mond { stroke: #7b2cbf; stroke-width: 1.8; fill: none; stroke-dasharray: 7,3; }
  .lbl-p { fill: #cc7000; }
  .lbl-m { fill: #7b2cbf; }
  .rho { stroke: #b03030; stroke-width: 2.0; fill: none; }
  .phot { stroke: #cc7000; stroke-width: 1.8; fill: none; }
  .mbar { stroke: #8e44ad; stroke-width: 1.8; fill: none; opacity: 0.9; }
  .mph { stroke: #c77dff; stroke-width: 1.6; fill: none; stroke-dasharray: 4,3; opacity: 0.95; }
  .remap-x { stroke: #cc2222; stroke-width: 1.5; fill: none; }
  .remap-link { stroke: #cc2222; stroke-width: 0.8; stroke-dasharray: 3,3; fill: none; opacity: 0.7; }
  .title { fill: #111; font-size: 16px; font-weight: 600; }
  .subtitle { fill: #555; font-size: 11px; }
  .preview-bg { fill: #000; }
  .preview-lbl { fill: #888; font-size: 10px; }
  .legend { font-size: 11px; }
</style>
<text x="378.5" y="22" text-anchor="middle" class="title">UGC02953</text>
<text x="378.5" y="38" text-anchor="middle" class="subtitle">rMax=62.4 kpc, N=115, FW=7.8 km/s, 2.7%, 2.56σ, MOND=30.7 km/s, 11.7%, 14.18σ, amp=418, remap Δr=0.032 rc=0.100</text>
<line x1="70" y1="395.0" x2="687" y2="395.0" class="grid"/>
<text x="64" y="399.0" text-anchor="end" class="lbl-l">0</text>
<line x1="70" y1="327.0" x2="687" y2="327.0" class="grid"/>
<text x="64" y="331.0" text-anchor="end" class="lbl-l">84</text>
<line x1="70" y1="259.0" x2="687" y2="259.0" class="grid"/>
<text x="64" y="263.0" text-anchor="end" class="lbl-l">167</text>
<line x1="70" y1="191.0" x2="687" y2="191.0" class="grid"/>
<text x="64" y="195.0" text-anchor="end" class="lbl-l">251</text>
<line x1="70" y1="123.0" x2="687" y2="123.0" class="grid"/>
<text x="64" y="127.0" text-anchor="end" class="lbl-l">335</text>
<line x1="70" y1="55.0" x2="687" y2="55.0" class="grid"/>
<text x="64" y="59.0" text-anchor="end" class="lbl-l">419</text>
<text x="693" y="399.0" text-anchor="start" class="lbl-r">0.0</text>
<text x="693" y="353.7" text-anchor="start" class="lbl-r">0.2</text>
<text x="693" y="308.3" text-anchor="start" class="lbl-r">0.4</text>
<text x="693" y="263.0" text-anchor="start" class="lbl-r">0.6</text>
<text x="693" y="217.7" text-anchor="start" class="lbl-r">0.8</text>
<text x="693" y="172.3" text-anchor="start" class="lbl-r">1.0</text>
<line x1="70.0" y1="55" x2="70.0" y2="395" class="grid"/>
<text x="70.0" y="411" text-anchor="middle" class="lbl">0.0</text>
<line x1="172.8" y1="55" x2="172.8" y2="395" class="grid"/>
<text x="172.8" y="411" text-anchor="middle" class="lbl">10.9</text>
<line x1="275.7" y1="55" x2="275.7" y2="395" class="grid"/>
<text x="275.7" y="411" text-anchor="middle" class="lbl">21.8</text>
<line x1="378.5" y1="55" x2="378.5" y2="395" class="grid"/>
<text x="378.5" y="411" text-anchor="middle" class="lbl">32.8</text>
<line x1="481.3" y1="55" x2="481.3" y2="395" class="grid"/>
<text x="481.3" y="411" text-anchor="middle" class="lbl">43.7</text>
<line x1="584.2" y1="55" x2="584.2" y2="395" class="grid"/>
<text x="584.2" y="411" text-anchor="middle" class="lbl">54.6</text>
<line x1="687.0" y1="55" x2="687.0" y2="395" class="grid"/>
<text x="687.0" y="411" text-anchor="middle" class="lbl">65.5</text>
<text x="378.5" y="438" text-anchor="middle" class="lbl">radius (kpc)</text>
<text x="16" y="225" text-anchor="middle" class="lbl-l" transform="rotate(-90, 16, 225)">velocity (km/s)</text>
<text x="724" y="225" text-anchor="middle" class="lbl-r" transform="rotate(-90, 724, 225)">profiles (normalized to peak)</text>
<rect x="70" y="55" width="617" height="340" class="ax"/>
<path d="M 70.0,168.3 L 72.8,202.6 L 75.6,236.9 L 78.5,271.1 L 81.3,305.4 L 84.1,326.0 L 86.9,327.2 L 89.7,328.3 L 92.5,329.5 L 95.4,330.6 L 98.2,331.8 L 101.0,332.9 L 103.8,334.1 L 106.6,335.2 L 109.4,336.4 L 112.3,337.5 L 115.1,338.7 L 117.9,339.8 L 120.7,341.0 L 123.5,342.2 L 126.3,343.3 L 129.2,344.5 L 132.0,345.6 L 134.8,346.8 L 137.6,347.9 L 140.4,349.1 L 143.3,350.2 L 146.1,351.4 L 148.9,352.5 L 151.7,353.7 L 154.5,354.8 L 157.3,356.0 L 160.2,357.1 L 163.0,358.3 L 165.8,359.4 L 168.6,360.6 L 171.4,361.7 L 174.2,362.2 L 177.1,362.4 L 179.9,362.7 L 182.7,362.9 L 185.5,363.1 L 188.3,363.4 L 191.1,363.6 L 194.0,363.8 L 196.8,364.1 L 199.6,364.3 L 202.4,364.5 L 205.2,364.7 L 208.1,365.0 L 210.9,365.2 L 213.7,365.4 L 216.5,365.7 L 219.3,365.9 L 222.1,366.1 L 225.0,366.3 L 227.8,366.6 L 230.6,366.8 L 233.4,367.0 L 236.2,367.3 L 239.0,367.5 L 241.9,367.7 L 244.7,367.9 L 247.5,368.2 L 250.3,368.4 L 253.1,368.6 L 255.9,368.9 L 258.8,369.1 L 261.6,369.3 L 264.4,369.5 L 267.2,369.8 L 270.0,370.0 L 272.8,370.2 L 275.7,370.5 L 278.5,370.7 L 281.3,370.9 L 284.1,371.1 L 286.9,371.4 L 289.8,371.5 L 292.6,371.6 L 295.4,371.7 L 298.2,371.8 L 301.0,371.9 L 303.8,372.0 L 306.7,372.0 L 309.5,372.1 L 312.3,372.2 L 315.1,372.3 L 317.9,372.4 L 320.7,372.5 L 323.6,372.6 L 326.4,372.7 L 329.2,372.8 L 332.0,372.9 L 334.8,373.0 L 337.6,373.1 L 340.5,373.1 L 343.3,373.2 L 346.1,373.3 L 348.9,373.4 L 351.7,373.5 L 354.6,373.6 L 357.4,373.7 L 360.2,373.8 L 363.0,373.9 L 365.8,374.0 L 368.6,374.1 L 371.5,374.2 L 374.3,374.2 L 377.1,374.3 L 379.9,374.4 L 382.7,374.5 L 385.5,374.6 L 388.4,374.7 L 391.2,374.8 L 394.0,374.9 L 396.8,375.0 L 399.6,375.1 L 402.4,375.2 L 405.3,375.3 L 408.1,375.4 L 410.9,375.4 L 413.7,375.5 L 416.5,375.6 L 419.4,375.7 L 422.2,375.8 L 425.0,375.9 L 427.8,376.0 L 430.6,376.1 L 433.4,376.2 L 436.3,376.3 L 439.1,376.4 L 441.9,376.5 L 444.7,376.5 L 447.5,376.6 L 450.3,376.7 L 453.2,376.8 L 456.0,376.9 L 458.8,377.0 L 461.6,377.1 L 464.4,377.2 L 467.2,377.3 L 470.1,377.4 L 472.9,377.5 L 475.7,377.6 L 478.5,377.6 L 481.3,377.7 L 484.2,377.8 L 487.0,377.9 L 489.8,378.0 L 492.6,378.1 L 495.4,378.2 L 498.2,378.3 L 501.1,378.4 L 503.9,378.5 L 506.7,378.6 L 509.5,378.7 L 512.3,378.8 L 515.1,378.8 L 518.0,378.9 L 520.8,379.0 L 523.6,379.1 L 526.4,379.2 L 529.2,379.3 L 532.0,379.4 L 534.9,379.5 L 537.7,379.6 L 540.5,379.7 L 543.3,379.8 L 546.1,379.9 L 548.9,379.9 L 551.8,380.0 L 554.6,380.1 L 557.4,380.2 L 560.2,380.3 L 563.0,380.4 L 565.9,380.5 L 568.7,380.6 L 571.5,380.7 L 574.3,380.8 L 577.1,380.9 L 579.9,381.0 L 582.8,381.0 L 585.6,381.1 L 588.4,381.2 L 591.2,381.3 L 594.0,381.4 L 596.8,381.5 L 599.7,381.6 L 602.5,381.7 L 605.3,381.8 L 608.1,381.9 L 610.9,382.0 L 613.7,382.1 L 616.6,382.2 L 619.4,382.2 L 622.2,382.3 L 625.0,382.4 L 627.8,382.5 L 630.7,382.6 L 633.5,382.7 L 636.3,382.8 L 639.1,382.9 L 641.9,383.0 L 644.7,383.1 L 647.6,383.2 L 650.4,383.3 L 653.2,383.3 L 656.0,386.0 L 658.8,391.6 L 661.6,395.0 L 664.5,395.0 L 667.3,395.0 L 670.1,395.0 L 672.9,395.0 L 675.7,395.0 L 678.5,395.0 L 681.4,395.0 L 684.2,395.0 L 687.0,395.0" class="rho"/>
<path d="M 70.8,168.3 L 71.6,211.8 L 72.4,267.5 L 73.2,299.0 L 74.0,319.7 L 74.8,331.5 L 75.7,341.7 L 76.5,349.4 L 77.3,354.9 L 78.1,359.7 L 78.9,363.3 L 79.7,366.1 L 80.5,368.7 L 81.3,371.5 L 82.1,374.0 L 83.0,376.2 L 83.8,377.9 L 84.6,379.6 L 85.4,380.8 L 86.2,382.1 L 87.0,382.9 L 87.8,383.8 L 88.6,384.5 L 89.5,385.1 L 90.2,385.6 L 91.0,386.0 L 91.9,386.4 L 92.6,386.7 L 93.5,387.0 L 94.3,387.2 L 95.1,387.4 L 95.9,387.5 L 96.7,387.7 L 97.5,387.9 L 98.3,388.1 L 99.1,388.3 L 100.0,388.6 L 100.8,388.8 L 101.6,389.0 L 102.3,389.2 L 109.7,390.7 L 110.4,390.8 L 111.3,390.9 L 112.1,391.0 L 115.2,391.4 L 119.4,391.8 L 120.1,391.9 L 121.0,392.0 L 121.8,392.0 L 122.6,392.1 L 123.4,392.2 L 124.3,392.3 L 126.5,392.5 L 128.2,392.6 L 129.1,392.6 L 129.9,392.7 L 130.7,392.7 L 131.5,392.7 L 132.3,392.8 L 133.1,392.8 L 134.0,392.8 L 134.7,392.9 L 135.6,392.9 L 136.4,393.0 L 137.8,393.1 L 139.6,393.3 L 140.4,393.3 L 145.3,393.5 L 146.1,393.5 L 146.9,393.5 L 147.7,393.6 L 148.6,393.6 L 149.1,393.6 L 160.3,394.0 L 171.7,394.2 L 183.2,394.4 L 194.5,394.6 L 205.8,394.7 L 217.2,394.8 L 228.5,394.9 L 239.8,394.9 L 251.1,394.9 L 262.4,395.0 L 273.8,395.0 L 285.1,395.0 L 296.4,395.0 L 307.7,395.0 L 319.0,395.0 L 330.4,395.0 L 341.7,395.0 L 353.0,395.0 L 364.3,395.0 L 374.6,395.0 L 386.0,395.0 L 397.3,395.0 L 408.6,395.0 L 419.9,395.0 L 431.2,395.0 L 442.6,395.0 L 453.9,395.0 L 465.2,395.0 L 476.5,395.0 L 487.8,395.0 L 499.2,395.0 L 510.5,395.0 L 521.8,395.0 L 533.1,395.0 L 544.4,395.0 L 555.8,395.0 L 567.1,395.0 L 578.4,395.0 L 589.7,395.0 L 612.4,395.0 L 635.0,395.0 L 657.6,395.0" class="phot"/>
<path d="M 70.8,262.4 L 71.6,193.6 L 72.4,168.3 L 73.2,203.6 L 74.0,245.0 L 74.8,271.2 L 75.7,287.4 L 76.5,300.0 L 77.3,310.4 L 78.1,319.1 L 78.9,325.0 L 79.7,328.7 L 80.5,332.4 L 81.3,335.6 L 82.1,338.8 L 83.0,343.0 L 83.8,347.4 L 84.6,351.5 L 85.4,355.1 L 86.2,358.4 L 87.0,361.2 L 87.8,363.7 L 88.6,366.0 L 89.5,367.8 L 90.2,369.2 L 91.0,370.4 L 91.9,371.3 L 92.6,372.1 L 93.5,372.5 L 94.3,372.6 L 95.1,372.4 L 95.9,372.2 L 96.7,371.9 L 97.5,371.7 L 98.3,371.8 L 99.1,372.2 L 100.0,373.0 L 100.8,373.9 L 101.6,374.7 L 102.3,376.2 L 109.7,378.6 L 110.4,380.5 L 111.3,381.4 L 112.1,381.8 L 115.2,382.4 L 119.4,382.9 L 120.1,383.3 L 121.0,383.7 L 121.8,384.3 L 122.6,385.0 L 123.4,385.6 L 124.3,385.7 L 126.5,385.9 L 128.2,386.3 L 129.1,386.6 L 129.9,386.6 L 130.7,386.5 L 131.5,386.4 L 132.3,386.2 L 133.1,385.8 L 134.0,385.9 L 134.7,386.3 L 135.6,386.2 L 136.4,386.2 L 137.8,386.9 L 139.6,388.1 L 140.4,389.3 L 145.3,389.9 L 146.1,390.0 L 146.9,389.8 L 147.7,389.3 L 148.6,389.1 L 149.1,389.5 L 160.3,390.5 L 171.7,391.3 L 183.2,391.6 L 194.5,392.4 L 205.8,393.7 L 217.2,394.7 L 228.5,395.0 L 239.8,394.9 L 251.1,394.9 L 262.4,395.0 L 273.8,395.0 L 285.1,395.0 L 296.4,395.0 L 307.7,395.0 L 319.0,395.0 L 330.4,395.0 L 341.7,395.0 L 353.0,395.0 L 364.3,395.0 L 374.6,395.0 L 386.0,395.0 L 397.3,395.0 L 408.6,395.0 L 419.9,395.0 L 431.2,395.0 L 442.6,395.0 L 453.9,395.0 L 465.2,395.0 L 476.5,395.0 L 487.8,395.0 L 499.2,395.0 L 510.5,395.0 L 521.8,395.0 L 533.1,395.0 L 544.4,395.0 L 555.8,395.0 L 567.1,395.0 L 578.4,395.0 L 589.7,395.0 L 612.4,395.0 L 635.0,395.0 L 657.6,395.0" class="mbar"/>
<path d="M 70.8,301.9 L 71.6,345.2 L 72.4,359.3 L 73.2,343.0 L 74.0,324.6 L 74.8,309.0 L 75.7,295.6 L 76.5,283.2 L 77.3,271.7 L 78.1,260.8 L 78.9,252.3 L 79.7,246.0 L 80.5,239.9 L 81.3,234.7 L 82.1,229.2 L 83.0,222.7 L 83.8,215.9 L 84.6,209.4 L 85.4,203.3 L 86.2,197.8 L 87.0,192.9 L 87.8,188.4 L 88.6,184.4 L 89.5,181.1 L 90.2,178.5 L 91.0,176.5 L 91.9,174.9 L 92.6,173.7 L 93.5,173.0 L 94.3,173.0 L 95.1,173.4 L 95.9,173.9 L 96.7,174.5 L 97.5,175.0 L 98.3,175.1 L 99.1,174.6 L 100.0,173.8 L 100.8,172.8 L 101.6,171.9 L 102.3,170.6 L 109.7,169.1 L 110.4,168.4 L 111.3,168.3 L 112.1,168.6 L 115.2,169.4 L 119.4,170.7 L 120.1,171.7 L 121.0,172.1 L 121.8,172.2 L 122.6,172.4 L 123.4,172.6 L 124.3,173.3 L 126.5,174.2 L 128.2,175.3 L 129.1,176.1 L 129.9,176.7 L 130.7,177.3 L 131.5,177.8 L 132.3,178.2 L 133.1,178.5 L 134.0,179.0 L 134.7,179.4 L 135.6,179.8 L 136.4,180.2 L 137.8,181.1 L 139.6,182.5 L 140.4,184.3 L 145.3,186.7 L 146.1,188.6 L 146.9,189.4 L 147.7,189.4 L 148.6,189.7 L 149.1,191.6 L 160.3,197.2 L 171.7,205.0 L 183.2,212.3 L 194.5,221.7 L 205.8,236.2 L 217.2,252.7 L 228.5,264.4 L 239.8,270.3 L 251.1,276.2 L 262.4,283.5 L 273.8,290.2 L 285.1,296.7 L 296.4,303.4 L 307.7,309.6 L 319.0,314.1 L 330.4,317.2 L 341.7,320.1 L 353.0,322.6 L 364.3,324.3 L 374.6,325.7 L 386.0,327.8 L 397.3,330.7 L 408.6,333.7 L 419.9,335.9 L 431.2,337.3 L 442.6,338.1 L 453.9,338.7 L 465.2,340.3 L 476.5,342.6 L 487.8,344.2 L 499.2,344.6 L 510.5,345.4 L 521.8,347.3 L 533.1,348.8 L 544.4,349.6 L 555.8,350.8 L 567.1,352.8 L 578.4,354.4 L 589.7,355.1 L 612.4,356.3 L 635.0,358.3 L 657.6,359.5" class="mph"/>
<path d="M 76.2,297.7 L 82.3,278.5 L 88.5,271.8 L 94.7,262.5 L 100.8,253.1 L 107.0,244.1 L 113.2,235.9 L 119.4,228.4 L 125.5,221.6 L 131.7,215.5 L 137.9,210.0 L 144.0,205.1 L 150.2,200.7 L 156.4,196.9 L 162.6,193.6 L 168.7,190.7 L 174.9,188.3 L 181.1,185.8 L 187.2,183.4 L 193.4,180.9 L 199.6,178.5 L 205.7,176.0 L 211.9,173.6 L 218.1,171.3 L 224.3,169.0 L 230.4,166.7 L 236.6,164.5 L 242.8,162.4 L 248.9,160.3 L 255.1,158.3 L 261.3,156.3 L 267.4,154.4 L 273.6,152.6 L 279.8,150.9 L 285.9,149.2 L 292.1,147.5 L 298.3,145.9 L 304.5,144.3 L 310.6,142.7 L 316.8,141.1 L 323.0,139.5 L 329.1,137.9 L 335.3,136.3 L 341.5,134.8 L 347.7,133.3 L 353.8,131.8 L 360.0,130.3 L 366.2,128.8 L 372.3,127.3 L 378.5,125.9 L 384.7,124.5 L 390.8,123.1 L 397.0,121.8 L 403.2,120.5 L 409.4,119.1 L 415.5,117.9 L 421.7,116.6 L 427.9,115.3 L 434.0,114.1 L 440.2,112.9 L 446.4,111.8 L 452.5,110.6 L 458.7,109.5 L 464.9,108.4 L 471.1,107.3 L 477.2,106.3 L 483.4,105.2 L 489.6,104.2 L 495.7,103.3 L 501.9,102.3 L 508.1,101.4 L 514.2,100.5 L 520.4,99.6 L 526.6,98.7 L 532.8,97.9 L 538.9,97.1 L 545.1,96.3 L 551.3,95.5 L 557.4,94.7 L 563.6,94.0 L 569.8,93.3 L 575.9,92.6 L 582.1,92.0 L 588.3,91.3 L 594.4,90.7 L 600.6,90.1 L 606.8,89.6 L 613.0,89.0 L 619.1,88.5 L 625.3,88.0 L 631.5,87.5 L 637.6,87.1 L 643.8,86.7 L 650.0,86.3 L 656.1,85.9 L 662.3,87.0 L 668.5,88.7 L 674.7,90.2 L 680.8,91.7 L 687.0,93.2" class="nt"/>
<path d="M 70.8,339.2 L 71.6,289.0 L 72.4,254.8 L 73.2,239.8 L 74.0,230.6 L 74.8,224.9 L 75.7,219.5 L 76.5,215.4 L 77.3,212.3 L 78.1,209.5 L 78.9,207.1 L 79.7,204.6 L 80.5,202.7 L 81.3,200.2 L 82.1,198.0 L 83.0,196.1 L 83.8,194.7 L 84.6,193.6 L 85.4,192.7 L 86.2,192.1 L 87.0,191.6 L 87.8,191.2 L 88.6,191.0 L 89.5,190.8 L 90.2,190.7 L 91.0,190.5 L 91.9,190.3 L 92.6,190.2 L 93.5,189.9 L 94.3,189.5 L 95.1,189.0 L 95.9,188.4 L 96.7,187.8 L 97.5,186.9 L 98.3,186.1 L 99.1,185.1 L 100.0,184.3 L 100.8,183.5 L 101.6,182.9 L 102.3,182.3 L 109.7,178.5 L 110.4,178.1 L 111.3,177.8 L 112.1,177.5 L 115.2,176.3 L 119.4,174.4 L 120.1,174.1 L 121.0,173.8 L 121.8,173.5 L 122.6,173.2 L 123.4,173.1 L 124.3,172.9 L 126.5,172.4 L 128.2,172.0 L 129.1,171.9 L 129.9,171.7 L 130.7,171.4 L 131.5,171.2 L 132.3,170.9 L 133.1,170.6 L 134.0,170.2 L 134.7,170.0 L 135.6,169.5 L 136.4,169.2 L 137.8,168.7 L 139.6,168.4 L 140.4,168.4 L 145.3,168.7 L 146.1,168.7 L 146.9,168.7 L 147.7,168.5 L 148.6,168.4 L 149.1,168.3 L 160.3,167.8 L 171.7,168.1 L 183.2,166.4 L 194.5,165.7 L 205.8,167.3 L 217.2,171.4 L 228.5,175.6 L 239.8,177.8 L 251.1,179.7 L 262.4,181.6 L 273.8,183.4 L 285.1,185.2 L 296.4,187.0 L 307.7,188.9 L 319.0,190.7 L 330.4,192.1 L 341.7,193.4 L 353.0,194.6 L 364.3,195.4 L 374.6,196.1 L 386.0,196.7 L 397.3,197.4 L 408.6,198.1 L 419.9,198.8 L 431.2,199.4 L 442.6,199.9 L 453.9,200.2 L 465.2,200.5 L 476.5,200.8 L 487.8,201.3 L 499.2,201.5 L 510.5,201.7 L 521.8,202.0 L 533.1,202.3 L 544.4,202.5 L 555.8,202.7 L 567.1,203.1 L 578.4,203.4 L 589.7,203.8 L 612.4,204.2 L 635.0,204.9 L 657.6,205.4" class="mond"/>
<path d="M 75.1,302.0 L 80.3,252.9 L 85.4,219.5 L 90.6,204.7 L 95.7,199.5 L 100.8,195.2 L 106.0,189.5 L 111.1,182.0 L 116.3,173.9 L 121.4,165.7 L 126.6,157.8 L 131.7,150.5 L 136.8,144.1 L 142.0,138.7 L 147.1,134.4 L 152.3,131.4 L 157.4,129.8 L 162.6,129.8 L 167.7,131.4 L 172.8,134.2 L 178.0,137.5 L 183.1,140.8 L 188.3,143.4 L 193.4,145.5 L 198.5,147.0 L 203.7,148.1 L 208.8,148.9 L 214.0,149.5 L 219.1,149.9 L 224.3,150.2 L 229.4,150.4 L 234.5,150.7 L 239.7,150.9 L 244.8,151.2 L 250.0,151.5 L 255.1,152.0 L 260.2,152.6 L 265.4,153.4 L 270.5,154.4 L 275.7,155.7 L 280.8,157.3 L 286.0,159.1 L 291.1,161.0 L 296.2,162.9 L 301.4,164.6 L 306.5,166.1 L 311.7,167.4 L 316.8,168.5 L 321.9,169.5 L 327.1,170.3 L 332.2,171.1 L 337.4,171.8 L 342.5,172.4 L 347.6,172.9 L 352.8,173.4 L 357.9,173.9 L 363.1,174.3 L 368.2,174.6 L 373.4,175.0 L 378.5,175.3 L 383.6,175.6 L 388.8,175.9 L 393.9,176.1 L 399.1,176.4 L 404.2,176.6 L 409.4,176.8 L 414.5,177.0 L 419.6,177.3 L 424.8,177.5 L 429.9,177.7 L 435.1,177.9 L 440.2,178.1 L 445.3,178.3 L 450.5,178.5 L 455.6,178.8 L 460.8,179.0 L 465.9,179.2 L 471.1,179.5 L 476.2,179.7 L 481.3,179.9 L 486.5,180.2 L 491.6,180.4 L 496.8,180.7 L 501.9,181.0 L 507.0,181.2 L 512.2,181.5 L 517.3,181.8 L 522.5,182.0 L 527.6,182.3 L 532.8,182.6 L 537.9,182.8 L 543.0,183.1 L 548.2,183.3 L 553.3,183.5 L 558.5,183.7 L 563.6,183.8 L 568.7,184.0 L 573.9,184.0 L 579.0,184.0 L 584.2,183.9 L 589.3,183.7 L 594.4,183.4 L 599.6,182.9 L 604.7,182.3 L 609.9,181.4 L 615.0,180.1 L 620.2,178.6 L 625.3,176.5 L 630.4,174.0 L 635.6,171.2 L 640.7,168.2 L 645.9,165.8 L 651.0,164.8 L 656.1,165.8 L 661.3,169.4 L 666.4,175.1 L 671.6,182.1 L 676.7,189.7 L 681.9,197.1 L 687.0,203.9" class="fw"/>
<line x1="84.91" y1="203.23" x2="93.31" y2="211.63" class="remap-x"/>
<line x1="84.91" y1="211.63" x2="93.31" y2="203.23" class="remap-x"/>
<line x1="70.85" y1="164.47" x2="70.85" y2="250.38" class="err"/>
<line x1="67.85" y1="164.47" x2="73.85" y2="164.47" class="err"/>
<line x1="67.85" y1="250.38" x2="73.85" y2="250.38" class="err"/>
<circle cx="70.85" cy="207.43" r="2.5" class="obs"/>
<line x1="85.19" y1="203.23" x2="93.59" y2="211.63" class="remap-x"/>
<line x1="85.19" y1="211.63" x2="93.59" y2="203.23" class="remap-x"/>
<line x1="71.60" y1="184.77" x2="71.60" y2="230.08" class="err"/>
<line x1="68.60" y1="184.77" x2="74.60" y2="184.77" class="err"/>
<line x1="68.60" y1="230.08" x2="74.60" y2="230.08" class="err"/>
<circle cx="71.60" cy="207.43" r="2.5" class="obs"/>
<line x1="85.52" y1="203.23" x2="93.92" y2="211.63" class="remap-x"/>
<line x1="85.52" y1="211.63" x2="93.92" y2="203.23" class="remap-x"/>
<line x1="72.45" y1="194.11" x2="72.45" y2="220.74" class="err"/>
<line x1="69.45" y1="194.11" x2="75.45" y2="194.11" class="err"/>
<line x1="69.45" y1="220.74" x2="75.45" y2="220.74" class="err"/>
<circle cx="72.45" cy="207.43" r="2.5" class="obs"/>
<line x1="85.81" y1="203.23" x2="94.21" y2="211.63" class="remap-x"/>
<line x1="85.81" y1="211.63" x2="94.21" y2="203.23" class="remap-x"/>
<line x1="73.20" y1="197.77" x2="73.20" y2="217.09" class="err"/>
<line x1="70.20" y1="197.77" x2="76.20" y2="197.77" class="err"/>
<line x1="70.20" y1="217.09" x2="76.20" y2="217.09" class="err"/>
<circle cx="73.20" cy="207.43" r="2.5" class="obs"/>
<line x1="86.15" y1="202.42" x2="94.55" y2="210.82" class="remap-x"/>
<line x1="86.15" y1="210.82" x2="94.55" y2="202.42" class="remap-x"/>
<line x1="74.05" y1="200.09" x2="74.05" y2="213.14" class="err"/>
<line x1="71.05" y1="200.09" x2="77.05" y2="200.09" class="err"/>
<line x1="71.05" y1="213.14" x2="77.05" y2="213.14" class="err"/>
<circle cx="74.05" cy="206.62" r="2.5" class="obs"/>
<line x1="86.46" y1="202.42" x2="94.86" y2="210.82" class="remap-x"/>
<line x1="86.46" y1="210.82" x2="94.86" y2="202.42" class="remap-x"/>
<line x1="74.80" y1="201.31" x2="74.80" y2="211.92" class="err"/>
<line x1="71.80" y1="201.31" x2="77.80" y2="201.31" class="err"/>
<line x1="71.80" y1="211.92" x2="77.80" y2="211.92" class="err"/>
<circle cx="74.80" cy="206.62" r="2.5" class="obs"/>
<line x1="86.81" y1="202.42" x2="95.21" y2="210.82" class="remap-x"/>
<line x1="86.81" y1="210.82" x2="95.21" y2="202.42" class="remap-x"/>
<line x1="75.65" y1="202.76" x2="75.65" y2="210.47" class="err"/>
<line x1="72.65" y1="202.76" x2="78.65" y2="202.76" class="err"/>
<line x1="72.65" y1="210.47" x2="78.65" y2="210.47" class="err"/>
<circle cx="75.65" cy="206.62" r="2.5" class="obs"/>
<line x1="87.17" y1="202.42" x2="95.57" y2="210.82" class="remap-x"/>
<line x1="87.17" y1="210.82" x2="95.57" y2="202.42" class="remap-x"/>
<line x1="76.50" y1="203.37" x2="76.50" y2="209.86" class="err"/>
<line x1="73.50" y1="203.37" x2="79.50" y2="203.37" class="err"/>
<line x1="73.50" y1="209.86" x2="79.50" y2="209.86" class="err"/>
<circle cx="76.50" cy="206.62" r="2.5" class="obs"/>
<line x1="87.50" y1="201.60" x2="95.90" y2="210.00" class="remap-x"/>
<line x1="87.50" y1="210.00" x2="95.90" y2="201.60" class="remap-x"/>
<line x1="77.25" y1="201.18" x2="77.25" y2="210.42" class="err"/>
<line x1="74.25" y1="201.18" x2="80.25" y2="201.18" class="err"/>
<line x1="74.25" y1="210.42" x2="80.25" y2="210.42" class="err"/>
<circle cx="77.25" cy="205.80" r="2.5" class="obs"/>
<line x1="87.88" y1="201.60" x2="96.28" y2="210.00" class="remap-x"/>
<line x1="87.88" y1="210.00" x2="96.28" y2="201.60" class="remap-x"/>
<line x1="78.10" y1="201.88" x2="78.10" y2="209.73" class="err"/>
<line x1="75.10" y1="201.88" x2="81.10" y2="201.88" class="err"/>
<line x1="75.10" y1="209.73" x2="81.10" y2="209.73" class="err"/>
<circle cx="78.10" cy="205.80" r="2.5" class="obs"/>
<line x1="88.26" y1="200.79" x2="96.66" y2="209.19" class="remap-x"/>
<line x1="88.26" y1="209.19" x2="96.66" y2="200.79" class="remap-x"/>
<line x1="78.95" y1="196.22" x2="78.95" y2="213.76" class="err"/>
<line x1="75.95" y1="196.22" x2="81.95" y2="196.22" class="err"/>
<line x1="75.95" y1="213.76" x2="81.95" y2="213.76" class="err"/>
<circle cx="78.95" cy="204.99" r="2.5" class="obs"/>
<line x1="88.61" y1="199.98" x2="97.01" y2="208.38" class="remap-x"/>
<line x1="88.61" y1="208.38" x2="97.01" y2="199.98" class="remap-x"/>
<line x1="79.70" y1="195.82" x2="79.70" y2="212.54" class="err"/>
<line x1="76.70" y1="195.82" x2="82.70" y2="195.82" class="err"/>
<line x1="76.70" y1="212.54" x2="82.70" y2="212.54" class="err"/>
<circle cx="79.70" cy="204.18" r="2.5" class="obs"/>
<line x1="88.96" y1="199.98" x2="97.36" y2="208.38" class="remap-x"/>
<line x1="88.96" y1="208.38" x2="97.36" y2="199.98" class="remap-x"/>
<line x1="80.45" y1="195.57" x2="80.45" y2="212.79" class="err"/>
<line x1="77.45" y1="195.57" x2="83.45" y2="195.57" class="err"/>
<line x1="77.45" y1="212.79" x2="83.45" y2="212.79" class="err"/>
<circle cx="80.45" cy="204.18" r="2.5" class="obs"/>
<line x1="89.37" y1="199.17" x2="97.77" y2="207.57" class="remap-x"/>
<line x1="89.37" y1="207.57" x2="97.77" y2="199.17" class="remap-x"/>
<line x1="81.30" y1="195.09" x2="81.30" y2="211.65" class="err"/>
<line x1="78.30" y1="195.09" x2="84.30" y2="195.09" class="err"/>
<line x1="78.30" y1="211.65" x2="84.30" y2="211.65" class="err"/>
<circle cx="81.30" cy="203.37" r="2.5" class="obs"/>
<line x1="89.78" y1="198.36" x2="98.18" y2="206.76" class="remap-x"/>
<line x1="89.78" y1="206.76" x2="98.18" y2="198.36" class="remap-x"/>
<line x1="82.15" y1="193.95" x2="82.15" y2="211.16" class="err"/>
<line x1="79.15" y1="193.95" x2="85.15" y2="193.95" class="err"/>
<line x1="79.15" y1="211.16" x2="85.15" y2="211.16" class="err"/>
<circle cx="82.15" cy="202.56" r="2.5" class="obs"/>
<line x1="90.20" y1="197.54" x2="98.60" y2="205.94" class="remap-x"/>
<line x1="90.20" y1="205.94" x2="98.60" y2="197.54" class="remap-x"/>
<line x1="83.00" y1="190.21" x2="83.00" y2="213.27" class="err"/>
<line x1="80.00" y1="190.21" x2="86.00" y2="190.21" class="err"/>
<line x1="80.00" y1="213.27" x2="86.00" y2="213.27" class="err"/>
<circle cx="83.00" cy="201.74" r="2.5" class="obs"/>
<line x1="90.58" y1="197.54" x2="98.98" y2="205.94" class="remap-x"/>
<line x1="90.58" y1="205.94" x2="98.98" y2="197.54" class="remap-x"/>
<line x1="83.75" y1="190.29" x2="83.75" y2="213.19" class="err"/>
<line x1="80.75" y1="190.29" x2="86.75" y2="190.29" class="err"/>
<line x1="80.75" y1="213.19" x2="86.75" y2="213.19" class="err"/>
<circle cx="83.75" cy="201.74" r="2.5" class="obs"/>
<line x1="91.02" y1="196.73" x2="99.42" y2="205.13" class="remap-x"/>
<line x1="91.02" y1="205.13" x2="99.42" y2="196.73" class="remap-x"/>
<line x1="84.60" y1="185.02" x2="84.60" y2="216.85" class="err"/>
<line x1="81.60" y1="185.02" x2="87.60" y2="185.02" class="err"/>
<line x1="81.60" y1="216.85" x2="87.60" y2="216.85" class="err"/>
<circle cx="84.60" cy="200.93" r="2.5" class="obs"/>
<line x1="91.41" y1="195.92" x2="99.81" y2="204.32" class="remap-x"/>
<line x1="91.41" y1="204.32" x2="99.81" y2="195.92" class="remap-x"/>
<line x1="85.35" y1="185.67" x2="85.35" y2="214.57" class="err"/>
<line x1="82.35" y1="185.67" x2="88.35" y2="185.67" class="err"/>
<line x1="82.35" y1="214.57" x2="88.35" y2="214.57" class="err"/>
<circle cx="85.35" cy="200.12" r="2.5" class="obs"/>
<line x1="91.86" y1="195.11" x2="100.26" y2="203.51" class="remap-x"/>
<line x1="91.86" y1="203.51" x2="100.26" y2="195.11" class="remap-x"/>
<line x1="86.20" y1="193.51" x2="86.20" y2="205.11" class="err"/>
<line x1="83.20" y1="193.51" x2="89.20" y2="193.51" class="err"/>
<line x1="83.20" y1="205.11" x2="89.20" y2="205.11" class="err"/>
<circle cx="86.20" cy="199.31" r="2.5" class="obs"/>
<line x1="92.27" y1="194.30" x2="100.67" y2="202.70" class="remap-x"/>
<line x1="92.27" y1="202.70" x2="100.67" y2="194.30" class="remap-x"/>
<line x1="86.95" y1="188.83" x2="86.95" y2="208.16" class="err"/>
<line x1="83.95" y1="188.83" x2="89.95" y2="188.83" class="err"/>
<line x1="83.95" y1="208.16" x2="89.95" y2="208.16" class="err"/>
<circle cx="86.95" cy="198.50" r="2.5" class="obs"/>
<line x1="92.74" y1="193.48" x2="101.14" y2="201.88" class="remap-x"/>
<line x1="92.74" y1="201.88" x2="101.14" y2="193.48" class="remap-x"/>
<line x1="87.80" y1="188.83" x2="87.80" y2="206.53" class="err"/>
<line x1="84.80" y1="188.83" x2="90.80" y2="188.83" class="err"/>
<line x1="84.80" y1="206.53" x2="90.80" y2="206.53" class="err"/>
<circle cx="87.80" cy="197.68" r="2.5" class="obs"/>
<line x1="93.21" y1="192.67" x2="101.61" y2="201.07" class="remap-x"/>
<line x1="93.21" y1="201.07" x2="101.61" y2="192.67" class="remap-x"/>
<line x1="88.65" y1="182.58" x2="88.65" y2="211.16" class="err"/>
<line x1="85.65" y1="182.58" x2="91.65" y2="182.58" class="err"/>
<line x1="85.65" y1="211.16" x2="91.65" y2="211.16" class="err"/>
<circle cx="88.65" cy="196.87" r="2.5" class="obs"/>
<line x1="93.69" y1="191.05" x2="102.09" y2="199.45" class="remap-x"/>
<line x1="93.69" y1="199.45" x2="102.09" y2="191.05" class="remap-x"/>
<line x1="89.50" y1="185.99" x2="89.50" y2="204.50" class="err"/>
<line x1="86.50" y1="185.99" x2="92.50" y2="185.99" class="err"/>
<line x1="86.50" y1="204.50" x2="92.50" y2="204.50" class="err"/>
<circle cx="89.50" cy="195.25" r="2.5" class="obs"/>
<line x1="94.13" y1="190.24" x2="102.53" y2="198.64" class="remap-x"/>
<line x1="94.13" y1="198.64" x2="102.53" y2="190.24" class="remap-x"/>
<line x1="90.25" y1="183.96" x2="90.25" y2="204.91" class="err"/>
<line x1="87.25" y1="183.96" x2="93.25" y2="183.96" class="err"/>
<line x1="87.25" y1="204.91" x2="93.25" y2="204.91" class="err"/>
<circle cx="90.25" cy="194.44" r="2.5" class="obs"/>
<line x1="94.57" y1="189.42" x2="102.97" y2="197.82" class="remap-x"/>
<line x1="94.57" y1="197.82" x2="102.97" y2="189.42" class="remap-x"/>
<line x1="91.00" y1="181.12" x2="91.00" y2="206.13" class="err"/>
<line x1="88.00" y1="181.12" x2="94.00" y2="181.12" class="err"/>
<line x1="88.00" y1="206.13" x2="94.00" y2="206.13" class="err"/>
<circle cx="91.00" cy="193.62" r="2.5" class="obs"/>
<line x1="95.07" y1="188.61" x2="103.47" y2="197.01" class="remap-x"/>
<line x1="95.07" y1="197.01" x2="103.47" y2="188.61" class="remap-x"/>
<line x1="91.85" y1="178.52" x2="91.85" y2="207.10" class="err"/>
<line x1="88.85" y1="178.52" x2="94.85" y2="178.52" class="err"/>
<line x1="88.85" y1="207.10" x2="94.85" y2="207.10" class="err"/>
<circle cx="91.85" cy="192.81" r="2.5" class="obs"/>
<line x1="95.52" y1="186.99" x2="103.92" y2="195.39" class="remap-x"/>
<line x1="95.52" y1="195.39" x2="103.92" y2="186.99" class="remap-x"/>
<line x1="92.60" y1="171.70" x2="92.60" y2="210.68" class="err"/>
<line x1="89.60" y1="171.70" x2="95.60" y2="171.70" class="err"/>
<line x1="89.60" y1="210.68" x2="95.60" y2="210.68" class="err"/>
<circle cx="92.60" cy="191.19" r="2.5" class="obs"/>
<line x1="96.04" y1="186.18" x2="104.44" y2="194.58" class="remap-x"/>
<line x1="96.04" y1="194.58" x2="104.44" y2="186.18" class="remap-x"/>
<line x1="93.45" y1="182.17" x2="93.45" y2="198.58" class="err"/>
<line x1="90.45" y1="182.17" x2="96.45" y2="182.17" class="err"/>
<line x1="90.45" y1="198.58" x2="96.45" y2="198.58" class="err"/>
<circle cx="93.45" cy="190.38" r="2.5" class="obs"/>
<line x1="96.57" y1="185.36" x2="104.97" y2="193.76" class="remap-x"/>
<line x1="96.57" y1="193.76" x2="104.97" y2="185.36" class="remap-x"/>
<line x1="94.30" y1="179.82" x2="94.30" y2="199.31" class="err"/>
<line x1="91.30" y1="179.82" x2="97.30" y2="179.82" class="err"/>
<line x1="91.30" y1="199.31" x2="97.30" y2="199.31" class="err"/>
<circle cx="94.30" cy="189.56" r="2.5" class="obs"/>
<line x1="97.10" y1="184.55" x2="105.50" y2="192.95" class="remap-x"/>
<line x1="97.10" y1="192.95" x2="105.50" y2="184.55" class="remap-x"/>
<line x1="95.15" y1="183.60" x2="95.15" y2="193.90" class="err"/>
<line x1="92.15" y1="183.60" x2="98.15" y2="183.60" class="err"/>
<line x1="92.15" y1="193.90" x2="98.15" y2="193.90" class="err"/>
<circle cx="95.15" cy="188.75" r="2.5" class="obs"/>
<line x1="97.58" y1="182.93" x2="105.98" y2="191.33" class="remap-x"/>
<line x1="97.58" y1="191.33" x2="105.98" y2="182.93" class="remap-x"/>
<line x1="95.90" y1="182.08" x2="95.90" y2="192.18" class="err"/>
<line x1="92.90" y1="182.08" x2="98.90" y2="182.08" class="err"/>
<line x1="92.90" y1="192.18" x2="98.90" y2="192.18" class="err"/>
<circle cx="95.90" cy="187.13" r="2.5" class="obs"/>
<line x1="98.07" y1="182.12" x2="106.47" y2="190.52" class="remap-x"/>
<line x1="98.07" y1="190.52" x2="106.47" y2="182.12" class="remap-x"/>
<line x1="96.65" y1="181.77" x2="96.65" y2="190.86" class="err"/>
<line x1="93.65" y1="181.77" x2="99.65" y2="181.77" class="err"/>
<line x1="93.65" y1="190.86" x2="99.65" y2="190.86" class="err"/>
<circle cx="96.65" cy="186.32" r="2.5" class="obs"/>
<line x1="98.62" y1="180.49" x2="107.02" y2="188.89" class="remap-x"/>
<line x1="98.62" y1="188.89" x2="107.02" y2="180.49" class="remap-x"/>
<line x1="97.50" y1="177.60" x2="97.50" y2="191.78" class="err"/>
<line x1="94.50" y1="177.60" x2="100.50" y2="177.60" class="err"/>
<line x1="94.50" y1="191.78" x2="100.50" y2="191.78" class="err"/>
<circle cx="97.50" cy="184.69" r="2.5" class="obs"/>
<line x1="99.12" y1="179.68" x2="107.52" y2="188.08" class="remap-x"/>
<line x1="99.12" y1="188.08" x2="107.52" y2="179.68" class="remap-x"/>
<line x1="98.26" y1="179.67" x2="98.26" y2="188.09" class="err"/>
<line x1="95.26" y1="179.67" x2="101.26" y2="179.67" class="err"/>
<line x1="95.26" y1="188.09" x2="101.26" y2="188.09" class="err"/>
<circle cx="98.26" cy="183.88" r="2.5" class="obs"/>
<line x1="99.69" y1="178.06" x2="108.09" y2="186.46" class="remap-x"/>
<line x1="99.69" y1="186.46" x2="108.09" y2="178.06" class="remap-x"/>
<line x1="99.10" y1="173.32" x2="99.10" y2="191.19" class="err"/>
<line x1="96.10" y1="173.32" x2="102.10" y2="173.32" class="err"/>
<line x1="96.10" y1="191.19" x2="102.10" y2="191.19" class="err"/>
<circle cx="99.10" cy="182.26" r="2.5" class="obs"/>
<line x1="100.27" y1="177.24" x2="108.67" y2="185.64" class="remap-x"/>
<line x1="100.27" y1="185.64" x2="108.67" y2="177.24" class="remap-x"/>
<line x1="99.95" y1="168.45" x2="99.95" y2="194.44" class="err"/>
<line x1="96.95" y1="168.45" x2="102.95" y2="168.45" class="err"/>
<line x1="96.95" y1="194.44" x2="102.95" y2="194.44" class="err"/>
<circle cx="99.95" cy="181.44" r="2.5" class="obs"/>
<line x1="100.86" y1="176.43" x2="109.26" y2="184.83" class="remap-x"/>
<line x1="100.86" y1="184.83" x2="109.26" y2="176.43" class="remap-x"/>
<line x1="100.80" y1="169.99" x2="100.80" y2="191.27" class="err"/>
<line x1="97.80" y1="169.99" x2="103.80" y2="169.99" class="err"/>
<line x1="97.80" y1="191.27" x2="103.80" y2="191.27" class="err"/>
<circle cx="100.80" cy="180.63" r="2.5" class="obs"/>
<line x1="101.38" y1="174.81" x2="109.78" y2="183.21" class="remap-x"/>
<line x1="101.38" y1="183.21" x2="109.78" y2="174.81" class="remap-x"/>
<line x1="101.55" y1="169.43" x2="101.55" y2="188.59" class="err"/>
<line x1="98.55" y1="169.43" x2="104.55" y2="169.43" class="err"/>
<line x1="98.55" y1="188.59" x2="104.55" y2="188.59" class="err"/>
<circle cx="101.55" cy="179.01" r="2.5" class="obs"/>
<line x1="101.92" y1="174.00" x2="110.32" y2="182.40" class="remap-x"/>
<line x1="101.92" y1="182.40" x2="110.32" y2="174.00" class="remap-x"/>
<line x1="102.31" y1="167.88" x2="102.31" y2="188.51" class="err"/>
<line x1="99.31" y1="167.88" x2="105.31" y2="167.88" class="err"/>
<line x1="99.31" y1="188.51" x2="105.31" y2="188.51" class="err"/>
<circle cx="102.31" cy="178.20" r="2.5" class="obs"/>
<line x1="107.44" y1="163.44" x2="115.84" y2="171.84" class="remap-x"/>
<line x1="107.44" y1="171.84" x2="115.84" y2="163.44" class="remap-x"/>
<line x1="109.65" y1="163.16" x2="109.65" y2="172.12" class="err"/>
<line x1="106.65" y1="163.16" x2="112.65" y2="163.16" class="err"/>
<line x1="106.65" y1="172.12" x2="112.65" y2="172.12" class="err"/>
<circle cx="109.65" cy="167.64" r="2.5" class="obs"/>
<line x1="108.04" y1="161.82" x2="116.44" y2="170.22" class="remap-x"/>
<line x1="108.04" y1="170.22" x2="116.44" y2="161.82" class="remap-x"/>
<line x1="110.41" y1="164.11" x2="110.41" y2="167.92" class="err"/>
<line x1="107.41" y1="164.11" x2="113.41" y2="164.11" class="err"/>
<line x1="107.41" y1="167.92" x2="113.41" y2="167.92" class="err"/>
<circle cx="110.41" cy="166.02" r="2.5" class="obs"/>
<line x1="108.72" y1="161.00" x2="117.12" y2="169.40" class="remap-x"/>
<line x1="108.72" y1="169.40" x2="117.12" y2="161.00" class="remap-x"/>
<line x1="111.25" y1="161.06" x2="111.25" y2="169.35" class="err"/>
<line x1="108.25" y1="161.06" x2="114.25" y2="161.06" class="err"/>
<line x1="108.25" y1="169.35" x2="114.25" y2="169.35" class="err"/>
<circle cx="111.25" cy="165.20" r="2.5" class="obs"/>
<line x1="109.41" y1="159.38" x2="117.81" y2="167.78" class="remap-x"/>
<line x1="109.41" y1="167.78" x2="117.81" y2="159.38" class="remap-x"/>
<line x1="112.10" y1="159.84" x2="112.10" y2="167.32" class="err"/>
<line x1="109.10" y1="159.84" x2="115.10" y2="159.84" class="err"/>
<line x1="109.10" y1="167.32" x2="115.10" y2="167.32" class="err"/>
<circle cx="112.10" cy="163.58" r="2.5" class="obs"/>
<line x1="112.01" y1="155.32" x2="120.41" y2="163.72" class="remap-x"/>
<line x1="112.01" y1="163.72" x2="120.41" y2="155.32" class="remap-x"/>
<line x1="115.21" y1="150.75" x2="115.21" y2="168.29" class="err"/>
<line x1="112.21" y1="150.75" x2="118.21" y2="150.75" class="err"/>
<line x1="112.21" y1="168.29" x2="118.21" y2="168.29" class="err"/>
<circle cx="115.21" cy="159.52" r="2.5" class="obs"/>
<line x1="115.72" y1="150.45" x2="124.12" y2="158.85" class="remap-x"/>
<line x1="115.72" y1="158.85" x2="124.12" y2="150.45" class="remap-x"/>
<line x1="119.45" y1="152.33" x2="119.45" y2="156.96" class="err"/>
<line x1="116.45" y1="152.33" x2="122.45" y2="152.33" class="err"/>
<line x1="116.45" y1="156.96" x2="122.45" y2="156.96" class="err"/>
<circle cx="119.45" cy="154.65" r="2.5" class="obs"/>
<line x1="116.31" y1="148.82" x2="124.71" y2="157.22" class="remap-x"/>
<line x1="116.31" y1="157.22" x2="124.71" y2="148.82" class="remap-x"/>
<line x1="120.11" y1="151.47" x2="120.11" y2="154.58" class="err"/>
<line x1="117.11" y1="151.47" x2="123.11" y2="151.47" class="err"/>
<line x1="117.11" y1="154.58" x2="123.11" y2="154.58" class="err"/>
<circle cx="120.11" cy="153.02" r="2.5" class="obs"/>
<line x1="117.09" y1="148.01" x2="125.49" y2="156.41" class="remap-x"/>
<line x1="117.09" y1="156.41" x2="125.49" y2="148.01" class="remap-x"/>
<line x1="120.95" y1="148.73" x2="120.95" y2="155.70" class="err"/>
<line x1="117.95" y1="148.73" x2="123.95" y2="148.73" class="err"/>
<line x1="117.95" y1="155.70" x2="123.95" y2="155.70" class="err"/>
<circle cx="120.95" cy="152.21" r="2.5" class="obs"/>
<line x1="117.87" y1="147.20" x2="126.27" y2="155.60" class="remap-x"/>
<line x1="117.87" y1="155.60" x2="126.27" y2="147.20" class="remap-x"/>
<line x1="121.80" y1="147.41" x2="121.80" y2="155.40" class="err"/>
<line x1="118.80" y1="147.41" x2="124.80" y2="147.41" class="err"/>
<line x1="118.80" y1="155.40" x2="124.80" y2="155.40" class="err"/>
<circle cx="121.80" cy="151.40" r="2.5" class="obs"/>
<line x1="118.56" y1="146.39" x2="126.96" y2="154.79" class="remap-x"/>
<line x1="118.56" y1="154.79" x2="126.96" y2="146.39" class="remap-x"/>
<line x1="122.56" y1="148.77" x2="122.56" y2="152.41" class="err"/>
<line x1="119.56" y1="148.77" x2="125.56" y2="148.77" class="err"/>
<line x1="119.56" y1="152.41" x2="125.56" y2="152.41" class="err"/>
<circle cx="122.56" cy="150.59" r="2.5" class="obs"/>
<line x1="119.36" y1="145.58" x2="127.76" y2="153.98" class="remap-x"/>
<line x1="119.36" y1="153.98" x2="127.76" y2="145.58" class="remap-x"/>
<line x1="123.40" y1="146.05" x2="123.40" y2="153.50" class="err"/>
<line x1="120.40" y1="146.05" x2="126.40" y2="146.05" class="err"/>
<line x1="120.40" y1="153.50" x2="126.40" y2="153.50" class="err"/>
<circle cx="123.40" cy="149.78" r="2.5" class="obs"/>
<line x1="120.16" y1="144.76" x2="128.56" y2="153.16" class="remap-x"/>
<line x1="120.16" y1="153.16" x2="128.56" y2="144.76" class="remap-x"/>
<line x1="124.25" y1="144.85" x2="124.25" y2="153.08" class="err"/>
<line x1="121.25" y1="144.85" x2="127.25" y2="144.85" class="err"/>
<line x1="121.25" y1="153.08" x2="127.25" y2="153.08" class="err"/>
<circle cx="124.25" cy="148.96" r="2.5" class="obs"/>
<line x1="122.34" y1="142.33" x2="130.74" y2="150.73" class="remap-x"/>
<line x1="122.34" y1="150.73" x2="130.74" y2="142.33" class="remap-x"/>
<line x1="126.51" y1="140.12" x2="126.51" y2="152.93" class="err"/>
<line x1="123.51" y1="140.12" x2="129.51" y2="140.12" class="err"/>
<line x1="123.51" y1="152.93" x2="129.51" y2="152.93" class="err"/>
<circle cx="126.51" cy="146.53" r="2.5" class="obs"/>
<line x1="124.01" y1="141.52" x2="132.41" y2="149.92" class="remap-x"/>
<line x1="124.01" y1="149.92" x2="132.41" y2="141.52" class="remap-x"/>
<line x1="128.21" y1="142.14" x2="128.21" y2="149.30" class="err"/>
<line x1="125.21" y1="142.14" x2="131.21" y2="142.14" class="err"/>
<line x1="125.21" y1="149.30" x2="131.21" y2="149.30" class="err"/>
<circle cx="128.21" cy="145.72" r="2.5" class="obs"/>
<line x1="129.05" y1="142.31" x2="129.05" y2="147.50" class="err"/>
<line x1="126.05" y1="142.31" x2="132.05" y2="142.31" class="err"/>
<line x1="126.05" y1="147.50" x2="132.05" y2="147.50" class="err"/>
<circle cx="129.05" cy="144.90" r="2.5" class="obs"/>
<line x1="129.90" y1="138.68" x2="129.90" y2="149.50" class="err"/>
<line x1="126.90" y1="138.68" x2="132.90" y2="138.68" class="err"/>
<line x1="126.90" y1="149.50" x2="132.90" y2="149.50" class="err"/>
<circle cx="129.90" cy="144.09" r="2.5" class="obs"/>
<line x1="130.75" y1="138.55" x2="130.75" y2="148.01" class="err"/>
<line x1="127.75" y1="138.55" x2="133.75" y2="138.55" class="err"/>
<line x1="127.75" y1="148.01" x2="133.75" y2="148.01" class="err"/>
<circle cx="130.75" cy="143.28" r="2.5" class="obs"/>
<line x1="131.50" y1="140.17" x2="131.50" y2="146.39" class="err"/>
<line x1="128.50" y1="140.17" x2="134.50" y2="140.17" class="err"/>
<line x1="128.50" y1="146.39" x2="134.50" y2="146.39" class="err"/>
<circle cx="131.50" cy="143.28" r="2.5" class="obs"/>
<line x1="132.26" y1="140.51" x2="132.26" y2="144.43" class="err"/>
<line x1="129.26" y1="140.51" x2="135.26" y2="140.51" class="err"/>
<line x1="129.26" y1="144.43" x2="135.26" y2="144.43" class="err"/>
<circle cx="132.26" cy="142.47" r="2.5" class="obs"/>
<line x1="133.10" y1="140.64" x2="133.10" y2="142.67" class="err"/>
<line x1="130.10" y1="140.64" x2="136.10" y2="140.64" class="err"/>
<line x1="130.10" y1="142.67" x2="136.10" y2="142.67" class="err"/>
<circle cx="133.10" cy="141.66" r="2.5" class="obs"/>
<line x1="133.95" y1="138.72" x2="133.95" y2="144.59" class="err"/>
<line x1="130.95" y1="138.72" x2="136.95" y2="138.72" class="err"/>
<line x1="130.95" y1="144.59" x2="136.95" y2="144.59" class="err"/>
<circle cx="133.95" cy="141.66" r="2.5" class="obs"/>
<line x1="134.70" y1="129.64" x2="134.70" y2="152.05" class="err"/>
<line x1="131.70" y1="129.64" x2="137.70" y2="129.64" class="err"/>
<line x1="131.70" y1="152.05" x2="137.70" y2="152.05" class="err"/>
<circle cx="134.70" cy="140.84" r="2.5" class="obs"/>
<line x1="135.55" y1="137.13" x2="135.55" y2="144.56" class="err"/>
<line x1="132.55" y1="137.13" x2="138.55" y2="137.13" class="err"/>
<line x1="132.55" y1="144.56" x2="138.55" y2="144.56" class="err"/>
<circle cx="135.55" cy="140.84" r="2.5" class="obs"/>
<line x1="136.40" y1="137.56" x2="136.40" y2="142.51" class="err"/>
<line x1="133.40" y1="137.56" x2="139.40" y2="137.56" class="err"/>
<line x1="133.40" y1="142.51" x2="139.40" y2="142.51" class="err"/>
<circle cx="136.40" cy="140.03" r="2.5" class="obs"/>
<line x1="137.81" y1="138.10" x2="137.81" y2="140.34" class="err"/>
<line x1="134.81" y1="138.10" x2="140.81" y2="138.10" class="err"/>
<line x1="134.81" y1="140.34" x2="140.81" y2="140.34" class="err"/>
<circle cx="137.81" cy="139.22" r="2.5" class="obs"/>
<line x1="139.60" y1="137.80" x2="139.60" y2="139.02" class="err"/>
<line x1="136.60" y1="137.80" x2="142.60" y2="137.80" class="err"/>
<line x1="136.60" y1="139.02" x2="142.60" y2="139.02" class="err"/>
<circle cx="139.60" cy="138.41" r="2.5" class="obs"/>
<line x1="140.36" y1="131.45" x2="140.36" y2="145.37" class="err"/>
<line x1="137.36" y1="131.45" x2="143.36" y2="131.45" class="err"/>
<line x1="137.36" y1="145.37" x2="143.36" y2="145.37" class="err"/>
<circle cx="140.36" cy="138.41" r="2.5" class="obs"/>
<line x1="145.25" y1="135.68" x2="145.25" y2="137.89" class="err"/>
<line x1="142.25" y1="135.68" x2="148.25" y2="135.68" class="err"/>
<line x1="142.25" y1="137.89" x2="148.25" y2="137.89" class="err"/>
<circle cx="145.25" cy="136.78" r="2.5" class="obs"/>
<line x1="146.10" y1="123.79" x2="146.10" y2="149.78" class="err"/>
<line x1="143.10" y1="123.79" x2="149.10" y2="123.79" class="err"/>
<line x1="143.10" y1="149.78" x2="149.10" y2="149.78" class="err"/>
<circle cx="146.10" cy="136.78" r="2.5" class="obs"/>
<line x1="146.85" y1="132.32" x2="146.85" y2="141.25" class="err"/>
<line x1="143.85" y1="132.32" x2="149.85" y2="132.32" class="err"/>
<line x1="143.85" y1="141.25" x2="149.85" y2="141.25" class="err"/>
<circle cx="146.85" cy="136.78" r="2.5" class="obs"/>
<line x1="147.70" y1="133.58" x2="147.70" y2="138.36" class="err"/>
<line x1="144.70" y1="133.58" x2="150.70" y2="133.58" class="err"/>
<line x1="144.70" y1="138.36" x2="150.70" y2="138.36" class="err"/>
<circle cx="147.70" cy="135.97" r="2.5" class="obs"/>
<line x1="148.55" y1="134.56" x2="148.55" y2="137.39" class="err"/>
<line x1="145.55" y1="134.56" x2="151.55" y2="134.56" class="err"/>
<line x1="145.55" y1="137.39" x2="151.55" y2="137.39" class="err"/>
<circle cx="148.55" cy="135.97" r="2.5" class="obs"/>
<line x1="149.12" y1="134.19" x2="149.12" y2="137.76" class="err"/>
<line x1="146.12" y1="134.19" x2="152.12" y2="134.19" class="err"/>
<line x1="146.12" y1="137.76" x2="152.12" y2="137.76" class="err"/>
<circle cx="149.12" cy="135.97" r="2.5" class="obs"/>
<line x1="160.32" y1="133.35" x2="160.32" y2="138.59" class="err"/>
<line x1="157.32" y1="133.35" x2="163.32" y2="133.35" class="err"/>
<line x1="157.32" y1="138.59" x2="163.32" y2="138.59" class="err"/>
<circle cx="160.32" cy="135.97" r="2.5" class="obs"/>
<line x1="171.72" y1="134.28" x2="171.72" y2="140.91" class="err"/>
<line x1="168.72" y1="134.28" x2="174.72" y2="134.28" class="err"/>
<line x1="168.72" y1="140.91" x2="174.72" y2="140.91" class="err"/>
<circle cx="171.72" cy="137.60" r="2.5" class="obs"/>
<line x1="183.21" y1="139.53" x2="183.21" y2="143.78" class="err"/>
<line x1="180.21" y1="139.53" x2="186.21" y2="139.53" class="err"/>
<line x1="180.21" y1="143.78" x2="186.21" y2="143.78" class="err"/>
<circle cx="183.21" cy="141.66" r="2.5" class="obs"/>
<line x1="194.51" y1="144.29" x2="194.51" y2="145.52" class="err"/>
<line x1="191.51" y1="144.29" x2="197.51" y2="144.29" class="err"/>
<line x1="191.51" y1="145.52" x2="197.51" y2="145.52" class="err"/>
<circle cx="194.51" cy="144.90" r="2.5" class="obs"/>
<line x1="205.81" y1="147.45" x2="205.81" y2="150.47" class="err"/>
<line x1="202.81" y1="147.45" x2="208.81" y2="147.45" class="err"/>
<line x1="202.81" y1="150.47" x2="208.81" y2="150.47" class="err"/>
<circle cx="205.81" cy="148.96" r="2.5" class="obs"/>
<line x1="217.21" y1="151.94" x2="217.21" y2="154.11" class="err"/>
<line x1="214.21" y1="151.94" x2="220.21" y2="151.94" class="err"/>
<line x1="214.21" y1="154.11" x2="220.21" y2="154.11" class="err"/>
<circle cx="217.21" cy="153.02" r="2.5" class="obs"/>
<line x1="228.51" y1="153.50" x2="228.51" y2="155.79" class="err"/>
<line x1="225.51" y1="153.50" x2="231.51" y2="153.50" class="err"/>
<line x1="225.51" y1="155.79" x2="231.51" y2="155.79" class="err"/>
<circle cx="228.51" cy="154.65" r="2.5" class="obs"/>
<line x1="239.82" y1="155.34" x2="239.82" y2="157.21" class="err"/>
<line x1="236.82" y1="155.34" x2="242.82" y2="155.34" class="err"/>
<line x1="236.82" y1="157.21" x2="242.82" y2="157.21" class="err"/>
<circle cx="239.82" cy="156.27" r="2.5" class="obs"/>
<line x1="251.12" y1="155.79" x2="251.12" y2="156.75" class="err"/>
<line x1="248.12" y1="155.79" x2="254.12" y2="155.79" class="err"/>
<line x1="248.12" y1="156.75" x2="254.12" y2="156.75" class="err"/>
<circle cx="251.12" cy="156.27" r="2.5" class="obs"/>
<line x1="262.42" y1="155.87" x2="262.42" y2="156.68" class="err"/>
<line x1="259.42" y1="155.87" x2="265.42" y2="155.87" class="err"/>
<line x1="259.42" y1="156.68" x2="265.42" y2="156.68" class="err"/>
<circle cx="262.42" cy="156.27" r="2.5" class="obs"/>
<line x1="273.82" y1="156.91" x2="273.82" y2="158.88" class="err"/>
<line x1="270.82" y1="156.91" x2="276.82" y2="156.91" class="err"/>
<line x1="270.82" y1="158.88" x2="276.82" y2="158.88" class="err"/>
<circle cx="273.82" cy="157.90" r="2.5" class="obs"/>
<line x1="285.12" y1="158.54" x2="285.12" y2="160.50" class="err"/>
<line x1="282.12" y1="158.54" x2="288.12" y2="158.54" class="err"/>
<line x1="282.12" y1="160.50" x2="288.12" y2="160.50" class="err"/>
<circle cx="285.12" cy="159.52" r="2.5" class="obs"/>
<line x1="296.42" y1="161.30" x2="296.42" y2="162.61" class="err"/>
<line x1="293.42" y1="161.30" x2="299.42" y2="161.30" class="err"/>
<line x1="293.42" y1="162.61" x2="299.42" y2="162.61" class="err"/>
<circle cx="296.42" cy="161.96" r="2.5" class="obs"/>
<line x1="307.72" y1="164.33" x2="307.72" y2="166.08" class="err"/>
<line x1="304.72" y1="164.33" x2="310.72" y2="164.33" class="err"/>
<line x1="304.72" y1="166.08" x2="310.72" y2="166.08" class="err"/>
<circle cx="307.72" cy="165.20" r="2.5" class="obs"/>
<line x1="319.02" y1="166.93" x2="319.02" y2="169.97" class="err"/>
<line x1="316.02" y1="166.93" x2="322.02" y2="166.93" class="err"/>
<line x1="316.02" y1="169.97" x2="322.02" y2="169.97" class="err"/>
<circle cx="319.02" cy="168.45" r="2.5" class="obs"/>
<line x1="330.42" y1="169.63" x2="330.42" y2="172.15" class="err"/>
<line x1="327.42" y1="169.63" x2="333.42" y2="169.63" class="err"/>
<line x1="327.42" y1="172.15" x2="333.42" y2="172.15" class="err"/>
<circle cx="330.42" cy="170.89" r="2.5" class="obs"/>
<line x1="341.72" y1="171.78" x2="341.72" y2="174.87" class="err"/>
<line x1="338.72" y1="171.78" x2="344.72" y2="171.78" class="err"/>
<line x1="338.72" y1="174.87" x2="344.72" y2="174.87" class="err"/>
<circle cx="341.72" cy="173.32" r="2.5" class="obs"/>
<line x1="353.03" y1="174.04" x2="353.03" y2="175.86" class="err"/>
<line x1="350.03" y1="174.04" x2="356.03" y2="174.04" class="err"/>
<line x1="350.03" y1="175.86" x2="356.03" y2="175.86" class="err"/>
<circle cx="353.03" cy="174.95" r="2.5" class="obs"/>
<line x1="364.33" y1="174.62" x2="364.33" y2="176.91" class="err"/>
<line x1="361.33" y1="174.62" x2="367.33" y2="174.62" class="err"/>
<line x1="361.33" y1="176.91" x2="367.33" y2="176.91" class="err"/>
<circle cx="364.33" cy="175.76" r="2.5" class="obs"/>
<line x1="374.59" y1="175.95" x2="374.59" y2="178.81" class="err"/>
<line x1="371.59" y1="175.95" x2="377.59" y2="175.95" class="err"/>
<line x1="371.59" y1="178.81" x2="377.59" y2="178.81" class="err"/>
<circle cx="374.59" cy="177.38" r="2.5" class="obs"/>
<line x1="385.99" y1="176.73" x2="385.99" y2="179.67" class="err"/>
<line x1="382.99" y1="176.73" x2="388.99" y2="176.73" class="err"/>
<line x1="382.99" y1="179.67" x2="388.99" y2="179.67" class="err"/>
<circle cx="385.99" cy="178.20" r="2.5" class="obs"/>
<line x1="397.29" y1="177.24" x2="397.29" y2="180.78" class="err"/>
<line x1="394.29" y1="177.24" x2="400.29" y2="177.24" class="err"/>
<line x1="394.29" y1="180.78" x2="400.29" y2="180.78" class="err"/>
<circle cx="397.29" cy="179.01" r="2.5" class="obs"/>
<line x1="408.59" y1="177.38" x2="408.59" y2="182.26" class="err"/>
<line x1="405.59" y1="177.38" x2="411.59" y2="177.38" class="err"/>
<line x1="405.59" y1="182.26" x2="411.59" y2="182.26" class="err"/>
<circle cx="408.59" cy="179.82" r="2.5" class="obs"/>
<line x1="419.90" y1="178.98" x2="419.90" y2="182.29" class="err"/>
<line x1="416.90" y1="178.98" x2="422.90" y2="178.98" class="err"/>
<line x1="416.90" y1="182.29" x2="422.90" y2="182.29" class="err"/>
<circle cx="419.90" cy="180.63" r="2.5" class="obs"/>
<line x1="431.20" y1="179.35" x2="431.20" y2="181.92" class="err"/>
<line x1="428.20" y1="179.35" x2="434.20" y2="179.35" class="err"/>
<line x1="428.20" y1="181.92" x2="434.20" y2="181.92" class="err"/>
<circle cx="431.20" cy="180.63" r="2.5" class="obs"/>
<line x1="442.60" y1="178.01" x2="442.60" y2="183.25" class="err"/>
<line x1="439.60" y1="178.01" x2="445.60" y2="178.01" class="err"/>
<line x1="439.60" y1="183.25" x2="445.60" y2="183.25" class="err"/>
<circle cx="442.60" cy="180.63" r="2.5" class="obs"/>
<line x1="453.90" y1="178.24" x2="453.90" y2="183.02" class="err"/>
<line x1="450.90" y1="178.24" x2="456.90" y2="178.24" class="err"/>
<line x1="450.90" y1="183.02" x2="456.90" y2="183.02" class="err"/>
<circle cx="453.90" cy="180.63" r="2.5" class="obs"/>
<line x1="465.20" y1="179.32" x2="465.20" y2="181.95" class="err"/>
<line x1="462.20" y1="179.32" x2="468.20" y2="179.32" class="err"/>
<line x1="462.20" y1="181.95" x2="468.20" y2="181.95" class="err"/>
<circle cx="465.20" cy="180.63" r="2.5" class="obs"/>
<line x1="476.50" y1="178.89" x2="476.50" y2="182.38" class="err"/>
<line x1="473.50" y1="178.89" x2="479.50" y2="178.89" class="err"/>
<line x1="473.50" y1="182.38" x2="479.50" y2="182.38" class="err"/>
<circle cx="476.50" cy="180.63" r="2.5" class="obs"/>
<line x1="487.80" y1="178.64" x2="487.80" y2="185.87" class="err"/>
<line x1="484.80" y1="178.64" x2="490.80" y2="178.64" class="err"/>
<line x1="484.80" y1="185.87" x2="490.80" y2="185.87" class="err"/>
<circle cx="487.80" cy="182.26" r="2.5" class="obs"/>
<line x1="499.20" y1="177.85" x2="499.20" y2="189.91" class="err"/>
<line x1="496.20" y1="177.85" x2="502.20" y2="177.85" class="err"/>
<line x1="496.20" y1="189.91" x2="502.20" y2="189.91" class="err"/>
<circle cx="499.20" cy="183.88" r="2.5" class="obs"/>
<line x1="510.50" y1="179.64" x2="510.50" y2="191.37" class="err"/>
<line x1="507.50" y1="179.64" x2="513.50" y2="179.64" class="err"/>
<line x1="507.50" y1="191.37" x2="513.50" y2="191.37" class="err"/>
<circle cx="510.50" cy="185.50" r="2.5" class="obs"/>
<line x1="521.80" y1="181.96" x2="521.80" y2="190.68" class="err"/>
<line x1="518.80" y1="181.96" x2="524.80" y2="181.96" class="err"/>
<line x1="518.80" y1="190.68" x2="524.80" y2="190.68" class="err"/>
<circle cx="521.80" cy="186.32" r="2.5" class="obs"/>
<line x1="533.11" y1="181.09" x2="533.11" y2="189.91" class="err"/>
<line x1="530.11" y1="181.09" x2="536.11" y2="181.09" class="err"/>
<line x1="530.11" y1="189.91" x2="536.11" y2="189.91" class="err"/>
<circle cx="533.11" cy="185.50" r="2.5" class="obs"/>
<line x1="544.41" y1="178.63" x2="544.41" y2="189.13" class="err"/>
<line x1="541.41" y1="178.63" x2="547.41" y2="178.63" class="err"/>
<line x1="541.41" y1="189.13" x2="547.41" y2="189.13" class="err"/>
<circle cx="544.41" cy="183.88" r="2.5" class="obs"/>
<line x1="555.81" y1="176.78" x2="555.81" y2="186.11" class="err"/>
<line x1="552.81" y1="176.78" x2="558.81" y2="176.78" class="err"/>
<line x1="552.81" y1="186.11" x2="558.81" y2="186.11" class="err"/>
<circle cx="555.81" cy="181.44" r="2.5" class="obs"/>
<line x1="567.11" y1="175.32" x2="567.11" y2="184.32" class="err"/>
<line x1="564.11" y1="175.32" x2="570.11" y2="175.32" class="err"/>
<line x1="564.11" y1="184.32" x2="570.11" y2="184.32" class="err"/>
<circle cx="567.11" cy="179.82" r="2.5" class="obs"/>
<line x1="578.41" y1="175.41" x2="578.41" y2="182.61" class="err"/>
<line x1="575.41" y1="175.41" x2="581.41" y2="175.41" class="err"/>
<line x1="575.41" y1="182.61" x2="581.41" y2="182.61" class="err"/>
<circle cx="578.41" cy="179.01" r="2.5" class="obs"/>
<line x1="589.71" y1="175.18" x2="589.71" y2="182.83" class="err"/>
<line x1="586.71" y1="175.18" x2="592.71" y2="175.18" class="err"/>
<line x1="586.71" y1="182.83" x2="592.71" y2="182.83" class="err"/>
<circle cx="589.71" cy="179.01" r="2.5" class="obs"/>
<line x1="612.41" y1="177.97" x2="612.41" y2="186.54" class="err"/>
<line x1="609.41" y1="177.97" x2="615.41" y2="177.97" class="err"/>
<line x1="609.41" y1="186.54" x2="615.41" y2="186.54" class="err"/>
<circle cx="612.41" cy="182.26" r="2.5" class="obs"/>
<line x1="635.01" y1="177.63" x2="635.01" y2="185.26" class="err"/>
<line x1="632.01" y1="177.63" x2="638.01" y2="177.63" class="err"/>
<line x1="632.01" y1="185.26" x2="638.01" y2="185.26" class="err"/>
<circle cx="635.01" cy="181.44" r="2.5" class="obs"/>
<line x1="657.62" y1="170.04" x2="657.62" y2="178.23" class="err"/>
<line x1="654.62" y1="170.04" x2="660.62" y2="170.04" class="err"/>
<line x1="654.62" y1="178.23" x2="660.62" y2="178.23" class="err"/>
<circle cx="657.62" cy="174.14" r="2.5" class="obs"/>
<g class="legend">
<line x1="82" y1="69" x2="106" y2="69" class="fw"/>
<text x="112" y="73" class="lbl-l">framework: 7.8 km/s, 2.7%, 2.56σ</text>
<line x1="82" y1="87" x2="106" y2="87" class="nt"/>
<text x="112" y="91" class="lbl-l">Newtonian: 79.9 km/s, 29.7%, 26.45σ</text>
<line x1="82" y1="105" x2="106" y2="105" class="mond"/>
<text x="112" y="109" class="lbl-m">MOND/RAR: 30.7 km/s, 11.7%, 14.18σ</text>
<circle cx="94" cy="123" r="2.5" class="obs"/>
<text x="112" y="127" class="lbl">observed V±err</text>
</g>
<g class="legend">
<line x1="472" y1="69" x2="496" y2="69" class="rho"/>
<text x="502" y="73" class="lbl-r">ρ(r) raw</text>
<line x1="472" y1="87" x2="496" y2="87" class="phot"/>
<text x="502" y="91" class="lbl-p">photometric baryonic profile</text>
<line x1="472" y1="105" x2="496" y2="105" class="mbar"/>
<text x="502" y="109" class="lbl-m">MOND baryonic annulus</text>
<line x1="472" y1="123" x2="496" y2="123" class="mph"/>
<text x="502" y="127" class="lbl-m">MOND phantom annulus</text>
<text x="472" y="147" class="lbl-r">ρ peak: 2080 M☉/pc²</text>
<text x="472" y="163" class="lbl-p">phot peak: 21901.13 (arb.)</text>
<text x="472" y="179" class="lbl-m">Σbar peak: 8608.09 M☉/pc²</text>
<text x="472" y="195" class="lbl-m">Σphantom peak: 184.84 M☉/pc²</text>
<line x1="90.00" y1="137.00" x2="98.00" y2="145.00" class="remap-x"/>
<line x1="90.00" y1="145.00" x2="98.00" y2="137.00" class="remap-x"/>
<text x="112" y="145" class="lbl">red X = remapped comparison radius</text>
</g>
<rect x="775" y="55" width="170" height="170" class="preview-bg"/>
<defs><radialGradient id="g_UGC02953" cx="0.5" cy="0.5" r="0.5">
  <stop offset="0.0000" stop-color="rgb(255,255,255)"/>
  <stop offset="0.0313" stop-color="rgb(205,205,205)"/>
  <stop offset="0.0625" stop-color="rgb(186,186,186)"/>
  <stop offset="0.0938" stop-color="rgb(167,167,167)"/>
  <stop offset="0.1250" stop-color="rgb(149,149,149)"/>
  <stop offset="0.1563" stop-color="rgb(130,130,130)"/>
  <stop offset="0.1875" stop-color="rgb(117,117,117)"/>
  <stop offset="0.2188" stop-color="rgb(114,114,114)"/>
  <stop offset="0.2500" stop-color="rgb(110,110,110)"/>
  <stop offset="0.2813" stop-color="rgb(106,106,106)"/>
  <stop offset="0.3125" stop-color="rgb(102,102,102)"/>
  <stop offset="0.3438" stop-color="rgb(99,99,99)"/>
  <stop offset="0.3750" stop-color="rgb(95,95,95)"/>
  <stop offset="0.4063" stop-color="rgb(94,94,94)"/>
  <stop offset="0.4375" stop-color="rgb(92,92,92)"/>
  <stop offset="0.4688" stop-color="rgb(91,91,91)"/>
  <stop offset="0.5000" stop-color="rgb(89,89,89)"/>
  <stop offset="0.5313" stop-color="rgb(88,88,88)"/>
  <stop offset="0.5625" stop-color="rgb(86,86,86)"/>
  <stop offset="0.5938" stop-color="rgb(85,85,85)"/>
  <stop offset="0.6250" stop-color="rgb(83,83,83)"/>
  <stop offset="0.6563" stop-color="rgb(82,82,82)"/>
  <stop offset="0.6875" stop-color="rgb(80,80,80)"/>
  <stop offset="0.7188" stop-color="rgb(79,79,79)"/>
  <stop offset="0.7500" stop-color="rgb(77,77,77)"/>
  <stop offset="0.7813" stop-color="rgb(76,76,76)"/>
  <stop offset="0.8125" stop-color="rgb(74,74,74)"/>
  <stop offset="0.8438" stop-color="rgb(73,73,73)"/>
  <stop offset="0.8750" stop-color="rgb(71,71,71)"/>
  <stop offset="0.9063" stop-color="rgb(70,70,70)"/>
  <stop offset="0.9375" stop-color="rgb(68,68,68)"/>
  <stop offset="0.9688" stop-color="rgb(67,67,67)"/>
  <stop offset="1.0000" stop-color="rgb(34,34,34)"/>
</radialGradient></defs>
<circle cx="860" cy="140" r="81" fill="url(#g_UGC02953)"/>
<text x="860" y="49" text-anchor="middle" class="preview-lbl">face-on luminance from ρ(r)</text>
<text x="860" y="239" text-anchor="middle" class="preview-lbl">edge at r = 62.4 kpc</text>
</svg>