<svg xmlns="http://www.w3.org/2000/svg" viewBox="0 0 960 450" width="960" height="450" font-family="sans-serif" font-size="12">
<style>
  .ax { stroke: #333; stroke-width: 1; fill: none; }
  .grid { stroke: #ddd; stroke-width: 0.5; fill: none; }
  .lbl { fill: #333; }
  .lbl-l { fill: #0066cc; }
  .lbl-r { fill: #b03030; }
  .obs { fill: #222; }
  .err { stroke: #555; stroke-width: 0.8; fill: none; }
  .fw { stroke: #0066cc; stroke-width: 2.2; fill: none; }
  .nt { stroke: #cc6600; stroke-width: 1.6; fill: none; stroke-dasharray: 5,3; }
  .mond { stroke: #7b2cbf; stroke-width: 1.8; fill: none; stroke-dasharray: 7,3; }
  .lbl-p { fill: #cc7000; }
  .lbl-m { fill: #7b2cbf; }
  .rho { stroke: #b03030; stroke-width: 2.0; fill: none; }
  .phot { stroke: #cc7000; stroke-width: 1.8; fill: none; }
  .mbar { stroke: #8e44ad; stroke-width: 1.8; fill: none; opacity: 0.9; }
  .mph { stroke: #c77dff; stroke-width: 1.6; fill: none; stroke-dasharray: 4,3; opacity: 0.95; }
  .remap-x { stroke: #cc2222; stroke-width: 1.5; fill: none; }
  .remap-link { stroke: #cc2222; stroke-width: 0.8; stroke-dasharray: 3,3; fill: none; opacity: 0.7; }
  .title { fill: #111; font-size: 16px; font-weight: 600; }
  .subtitle { fill: #555; font-size: 11px; }
  .preview-bg { fill: #000; }
  .preview-lbl { fill: #888; font-size: 10px; }
  .legend { font-size: 11px; }
</style>
<text x="378.5" y="22" text-anchor="middle" class="title">UGC04305</text>
<text x="378.5" y="38" text-anchor="middle" class="subtitle">rMax=5.5 kpc, N=22, FW=1.3 km/s, 13.6%, 0.41σ, MOND=26.5 km/s, 102.1%, 8.28σ, amp=104</text>
<line x1="70" y1="395.0" x2="687" y2="395.0" class="grid"/>
<text x="64" y="399.0" text-anchor="end" class="lbl-l">0</text>
<line x1="70" y1="327.0" x2="687" y2="327.0" class="grid"/>
<text x="64" y="331.0" text-anchor="end" class="lbl-l">16</text>
<line x1="70" y1="259.0" x2="687" y2="259.0" class="grid"/>
<text x="64" y="263.0" text-anchor="end" class="lbl-l">32</text>
<line x1="70" y1="191.0" x2="687" y2="191.0" class="grid"/>
<text x="64" y="195.0" text-anchor="end" class="lbl-l">48</text>
<line x1="70" y1="123.0" x2="687" y2="123.0" class="grid"/>
<text x="64" y="127.0" text-anchor="end" class="lbl-l">64</text>
<line x1="70" y1="55.0" x2="687" y2="55.0" class="grid"/>
<text x="64" y="59.0" text-anchor="end" class="lbl-l">80</text>
<text x="693" y="399.0" text-anchor="start" class="lbl-r">0.0</text>
<text x="693" y="353.7" text-anchor="start" class="lbl-r">0.2</text>
<text x="693" y="308.3" text-anchor="start" class="lbl-r">0.4</text>
<text x="693" y="263.0" text-anchor="start" class="lbl-r">0.6</text>
<text x="693" y="217.7" text-anchor="start" class="lbl-r">0.8</text>
<text x="693" y="172.3" text-anchor="start" class="lbl-r">1.0</text>
<line x1="70.0" y1="55" x2="70.0" y2="395" class="grid"/>
<text x="70.0" y="411" text-anchor="middle" class="lbl">0.0</text>
<line x1="172.8" y1="55" x2="172.8" y2="395" class="grid"/>
<text x="172.8" y="411" text-anchor="middle" class="lbl">1.0</text>
<line x1="275.7" y1="55" x2="275.7" y2="395" class="grid"/>
<text x="275.7" y="411" text-anchor="middle" class="lbl">1.9</text>
<line x1="378.5" y1="55" x2="378.5" y2="395" class="grid"/>
<text x="378.5" y="411" text-anchor="middle" class="lbl">2.9</text>
<line x1="481.3" y1="55" x2="481.3" y2="395" class="grid"/>
<text x="481.3" y="411" text-anchor="middle" class="lbl">3.9</text>
<line x1="584.2" y1="55" x2="584.2" y2="395" class="grid"/>
<text x="584.2" y="411" text-anchor="middle" class="lbl">4.8</text>
<line x1="687.0" y1="55" x2="687.0" y2="395" class="grid"/>
<text x="687.0" y="411" text-anchor="middle" class="lbl">5.8</text>
<text x="378.5" y="438" text-anchor="middle" class="lbl">radius (kpc)</text>
<text x="16" y="225" text-anchor="middle" class="lbl-l" transform="rotate(-90, 16, 225)">velocity (km/s)</text>
<text x="724" y="225" text-anchor="middle" class="lbl-r" transform="rotate(-90, 724, 225)">profiles (normalized to peak)</text>
<rect x="70" y="55" width="617" height="340" class="ax"/>
<path d="M 70.0,168.3 L 72.8,168.3 L 75.6,168.3 L 78.5,168.3 L 81.3,168.3 L 84.1,168.3 L 86.9,168.3 L 89.7,168.3 L 92.5,168.3 L 95.4,168.3 L 98.2,168.3 L 101.0,168.3 L 103.8,168.3 L 106.6,168.3 L 109.4,168.3 L 112.3,168.3 L 115.1,168.3 L 117.9,168.3 L 120.7,168.3 L 123.5,168.3 L 126.3,168.3 L 129.2,168.3 L 132.0,168.3 L 134.8,168.3 L 137.6,168.3 L 140.4,168.3 L 143.3,168.3 L 146.1,168.3 L 148.9,168.3 L 151.7,168.3 L 154.5,168.3 L 157.3,168.3 L 160.2,168.3 L 163.0,168.3 L 165.8,168.3 L 168.6,168.3 L 171.4,168.3 L 174.2,168.3 L 177.1,168.3 L 179.9,168.3 L 182.7,168.3 L 185.5,168.8 L 188.3,170.6 L 191.1,172.5 L 194.0,174.4 L 196.8,176.2 L 199.6,178.1 L 202.4,180.0 L 205.2,181.8 L 208.1,183.7 L 210.9,185.6 L 213.7,187.4 L 216.5,189.3 L 219.3,191.1 L 222.1,193.0 L 225.0,194.9 L 227.8,196.7 L 230.6,198.6 L 233.4,200.5 L 236.2,202.3 L 239.0,204.2 L 241.9,206.0 L 244.7,207.9 L 247.5,209.8 L 250.3,211.6 L 253.1,213.5 L 255.9,215.4 L 258.8,217.2 L 261.6,219.1 L 264.4,220.9 L 267.2,222.8 L 270.0,224.7 L 272.8,226.5 L 275.7,228.4 L 278.5,230.3 L 281.3,232.1 L 284.1,234.0 L 286.9,235.8 L 289.8,237.7 L 292.6,239.6 L 295.4,241.4 L 298.2,243.3 L 301.0,245.2 L 303.8,247.0 L 306.7,248.2 L 309.5,248.7 L 312.3,249.1 L 315.1,249.6 L 317.9,250.1 L 320.7,250.6 L 323.6,251.0 L 326.4,251.5 L 329.2,252.0 L 332.0,252.5 L 334.8,252.9 L 337.6,253.4 L 340.5,253.9 L 343.3,254.4 L 346.1,254.9 L 348.9,255.3 L 351.7,255.8 L 354.6,256.3 L 357.4,256.8 L 360.2,257.2 L 363.0,257.7 L 365.8,258.2 L 368.6,258.7 L 371.5,259.1 L 374.3,259.6 L 377.1,260.1 L 379.9,260.6 L 382.7,261.0 L 385.5,261.5 L 388.4,262.0 L 391.2,262.5 L 394.0,262.9 L 396.8,263.4 L 399.6,263.9 L 402.4,264.4 L 405.3,264.9 L 408.1,265.3 L 410.9,265.8 L 413.7,266.3 L 416.5,266.8 L 419.4,267.2 L 422.2,267.7 L 425.0,268.2 L 427.8,268.7 L 430.6,269.1 L 433.4,269.6 L 436.3,270.1 L 439.1,270.6 L 441.9,271.0 L 444.7,271.5 L 447.5,272.0 L 450.3,272.5 L 453.2,272.9 L 456.0,273.4 L 458.8,273.9 L 461.6,274.4 L 464.4,274.8 L 467.2,275.3 L 470.1,275.8 L 472.9,276.3 L 475.7,276.8 L 478.5,277.2 L 481.3,277.7 L 484.2,278.2 L 487.0,278.7 L 489.8,279.1 L 492.6,279.6 L 495.4,280.1 L 498.2,280.6 L 501.1,281.0 L 503.9,281.5 L 506.7,282.0 L 509.5,282.5 L 512.3,282.9 L 515.1,283.4 L 518.0,283.9 L 520.8,284.4 L 523.6,284.8 L 526.4,285.3 L 529.2,285.8 L 532.0,286.3 L 534.9,286.8 L 537.7,287.2 L 540.5,287.7 L 543.3,288.2 L 546.1,288.7 L 548.9,289.1 L 551.8,289.6 L 554.6,290.1 L 557.4,290.6 L 560.2,291.0 L 563.0,291.5 L 565.9,292.0 L 568.7,292.5 L 571.5,292.9 L 574.3,293.4 L 577.1,293.9 L 579.9,294.4 L 582.8,294.8 L 585.6,295.3 L 588.4,296.9 L 591.2,300.9 L 594.0,304.9 L 596.8,308.9 L 599.7,312.9 L 602.5,316.9 L 605.3,320.9 L 608.1,324.9 L 610.9,328.8 L 613.7,332.8 L 616.6,336.8 L 619.4,340.8 L 622.2,344.8 L 625.0,348.8 L 627.8,352.8 L 630.7,356.8 L 633.5,360.8 L 636.3,364.8 L 639.1,368.8 L 641.9,372.8 L 644.7,376.8 L 647.6,380.7 L 650.4,384.7 L 653.2,388.7 L 656.0,392.7 L 658.8,395.0 L 661.6,395.0 L 664.5,395.0 L 667.3,395.0 L 670.1,395.0 L 672.9,395.0 L 675.7,395.0 L 678.5,395.0 L 681.4,395.0 L 684.2,395.0 L 687.0,395.0" class="rho"/>
<path d="M 96.6,168.3 L 123.2,214.5 L 149.8,232.1 L 176.5,232.0 L 204.1,293.2 L 229.7,321.5 L 257.4,342.0 L 284.0,353.3 L 310.6,349.0 L 337.2,352.5 L 363.8,358.9 L 390.4,368.0 L 418.1,378.0 L 443.6,382.6 L 470.3,386.6 L 497.9,389.1 L 523.5,389.9 L 551.2,389.7 L 577.8,390.5 L 604.4,391.5 L 631.0,395.0 L 657.6,395.0" class="phot"/>
<path d="M 96.6,339.6 L 123.2,294.4 L 149.8,226.1 L 176.5,168.3 L 204.1,169.6 L 229.7,229.9 L 257.4,292.3 L 284.0,318.4 L 310.6,291.7 L 337.2,236.0 L 363.8,195.1 L 390.4,199.1 L 418.1,225.8 L 443.6,246.7 L 470.3,273.5 L 497.9,298.2 L 523.5,312.2 L 551.2,313.4 L 577.8,310.6 L 604.4,323.3 L 631.0,347.5 L 657.6,365.1" class="mbar"/>
<path d="M 96.6,276.5 L 123.2,239.9 L 149.8,196.2 L 176.5,168.3 L 204.1,171.2 L 229.7,199.8 L 257.4,231.0 L 284.0,246.5 L 310.6,233.3 L 337.2,203.0 L 363.8,180.9 L 390.4,183.5 L 418.1,197.9 L 443.6,208.8 L 470.3,222.9 L 497.9,236.6 L 523.5,245.1 L 551.2,246.6 L 577.8,245.9 L 604.4,254.3 L 631.0,270.5 L 657.6,282.8" class="mph"/>
<path d="M 76.2,373.1 L 82.3,364.0 L 88.5,357.1 L 94.7,351.2 L 100.8,346.0 L 107.0,341.4 L 113.2,337.1 L 119.4,333.1 L 125.5,329.3 L 131.7,325.8 L 137.9,322.4 L 144.0,319.1 L 150.2,316.0 L 156.4,313.1 L 162.6,310.2 L 168.7,307.4 L 174.9,304.7 L 181.1,302.1 L 187.2,299.6 L 193.4,297.2 L 199.6,294.9 L 205.7,292.7 L 211.9,290.7 L 218.1,288.8 L 224.3,287.0 L 230.4,285.3 L 236.6,283.6 L 242.8,282.1 L 248.9,280.6 L 255.1,279.2 L 261.3,277.9 L 267.4,276.6 L 273.6,275.4 L 279.8,274.3 L 286.0,273.2 L 292.1,272.2 L 298.3,271.3 L 304.5,270.4 L 310.6,269.5 L 316.8,268.7 L 323.0,267.8 L 329.1,267.0 L 335.3,266.1 L 341.5,265.3 L 347.7,264.5 L 353.8,263.7 L 360.0,262.9 L 366.2,262.1 L 372.3,261.3 L 378.5,260.5 L 384.7,259.7 L 390.8,259.0 L 397.0,258.2 L 403.2,257.5 L 409.4,256.8 L 415.5,256.0 L 421.7,255.3 L 427.9,254.6 L 434.0,254.0 L 440.2,253.3 L 446.4,252.6 L 452.5,251.9 L 458.7,251.3 L 464.9,250.7 L 471.1,250.0 L 477.2,249.4 L 483.4,248.8 L 489.6,248.2 L 495.7,247.6 L 501.9,247.1 L 508.1,246.5 L 514.2,245.9 L 520.4,245.4 L 526.6,244.9 L 532.8,244.3 L 538.9,243.8 L 545.1,243.3 L 551.3,242.8 L 557.4,242.3 L 563.6,241.8 L 569.8,241.4 L 575.9,240.9 L 582.1,240.5 L 588.3,240.0 L 594.4,239.7 L 600.6,239.4 L 606.8,239.3 L 613.0,239.3 L 619.1,239.3 L 625.3,239.5 L 631.5,239.8 L 637.6,240.2 L 643.8,240.7 L 650.0,241.3 L 656.1,242.1 L 662.3,242.9 L 668.5,243.6 L 674.7,244.4 L 680.8,245.2 L 687.0,245.9" class="nt"/>
<path d="M 96.6,344.0 L 123.2,308.9 L 149.8,274.5 L 176.5,243.4 L 204.1,217.1 L 229.7,206.0 L 257.4,197.2 L 284.0,194.7 L 310.6,185.4 L 337.2,172.3 L 363.8,154.6 L 390.4,140.1 L 418.1,129.7 L 443.6,119.8 L 470.3,113.4 L 497.9,107.4 L 523.5,103.5 L 551.2,98.8 L 577.8,93.4 L 604.4,89.1 L 631.0,86.9 L 657.6,85.9" class="mond"/>
<path d="M 75.1,390.2 L 80.3,386.6 L 85.4,382.5 L 90.6,378.3 L 95.7,374.1 L 100.8,369.9 L 106.0,365.6 L 111.1,361.3 L 116.3,356.9 L 121.4,352.4 L 126.6,347.9 L 131.7,343.2 L 136.8,338.5 L 142.0,333.6 L 147.1,328.6 L 152.3,323.5 L 157.4,318.2 L 162.6,312.8 L 167.7,307.3 L 172.8,301.7 L 178.0,296.0 L 183.1,290.3 L 188.3,284.8 L 193.4,279.5 L 198.5,274.5 L 203.7,269.8 L 208.8,265.5 L 214.0,261.6 L 219.1,258.0 L 224.3,254.8 L 229.4,251.9 L 234.5,249.2 L 239.7,247.0 L 244.8,244.9 L 250.0,243.2 L 255.1,241.8 L 260.2,240.6 L 265.4,239.7 L 270.5,239.2 L 275.7,238.9 L 280.8,238.9 L 285.9,239.2 L 291.1,239.9 L 296.2,240.8 L 301.4,242.0 L 306.5,243.3 L 311.7,244.7 L 316.8,246.2 L 321.9,247.7 L 327.1,249.0 L 332.2,250.3 L 337.4,251.4 L 342.5,252.5 L 347.7,253.4 L 352.8,254.2 L 357.9,254.9 L 363.1,255.6 L 368.2,256.1 L 373.4,256.6 L 378.5,257.1 L 383.6,257.4 L 388.8,257.7 L 393.9,258.0 L 399.1,258.2 L 404.2,258.4 L 409.4,258.6 L 414.5,258.7 L 419.6,258.7 L 424.8,258.8 L 429.9,258.8 L 435.1,258.8 L 440.2,258.7 L 445.3,258.7 L 450.5,258.6 L 455.6,258.4 L 460.8,258.3 L 465.9,258.1 L 471.1,257.9 L 476.2,257.7 L 481.3,257.4 L 486.5,257.1 L 491.6,256.8 L 496.8,256.4 L 501.9,255.9 L 507.0,255.5 L 512.2,254.9 L 517.3,254.3 L 522.5,253.6 L 527.6,252.8 L 532.8,251.9 L 537.9,250.8 L 543.0,249.6 L 548.2,248.3 L 553.3,246.7 L 558.5,245.0 L 563.6,243.1 L 568.7,241.0 L 573.9,238.8 L 579.0,236.6 L 584.2,234.5 L 589.3,232.8 L 594.4,231.7 L 599.6,231.3 L 604.7,231.6 L 609.9,232.8 L 615.0,234.8 L 620.2,237.5 L 625.3,240.8 L 630.4,244.6 L 635.6,248.6 L 640.7,252.9 L 645.9,257.2 L 651.0,261.5 L 656.1,265.6 L 661.3,269.5 L 666.4,273.2 L 671.6,276.6 L 676.7,279.7 L 681.9,282.7 L 687.0,285.4" class="fw"/>
<line x1="96.61" y1="367.93" x2="96.61" y2="395.00" class="err"/>
<line x1="93.61" y1="367.93" x2="99.61" y2="367.93" class="err"/>
<line x1="93.61" y1="395.00" x2="99.61" y2="395.00" class="err"/>
<circle cx="96.61" cy="381.57" r="2.5" class="obs"/>
<line x1="123.23" y1="336.46" x2="123.23" y2="364.59" class="err"/>
<line x1="120.23" y1="336.46" x2="126.23" y2="336.46" class="err"/>
<line x1="120.23" y1="364.59" x2="126.23" y2="364.59" class="err"/>
<circle cx="123.23" cy="350.52" r="2.5" class="obs"/>
<line x1="149.84" y1="301.94" x2="149.84" y2="339.81" class="err"/>
<line x1="146.84" y1="301.94" x2="152.84" y2="301.94" class="err"/>
<line x1="146.84" y1="339.81" x2="152.84" y2="339.81" class="err"/>
<circle cx="149.84" cy="320.87" r="2.5" class="obs"/>
<line x1="176.45" y1="277.84" x2="176.45" y2="319.86" class="err"/>
<line x1="173.45" y1="277.84" x2="179.45" y2="277.84" class="err"/>
<line x1="173.45" y1="319.86" x2="179.45" y2="319.86" class="err"/>
<circle cx="176.45" cy="298.85" r="2.5" class="obs"/>
<line x1="204.13" y1="246.79" x2="204.13" y2="291.60" class="err"/>
<line x1="201.13" y1="246.79" x2="207.13" y2="246.79" class="err"/>
<line x1="201.13" y1="291.60" x2="207.13" y2="291.60" class="err"/>
<circle cx="204.13" cy="269.20" r="2.5" class="obs"/>
<line x1="229.68" y1="228.96" x2="229.68" y2="268.77" class="err"/>
<line x1="226.68" y1="228.96" x2="232.68" y2="228.96" class="err"/>
<line x1="226.68" y1="268.77" x2="232.68" y2="268.77" class="err"/>
<circle cx="229.68" cy="248.86" r="2.5" class="obs"/>
<line x1="257.36" y1="227.64" x2="257.36" y2="257.38" class="err"/>
<line x1="254.36" y1="227.64" x2="260.36" y2="227.64" class="err"/>
<line x1="254.36" y1="257.38" x2="260.36" y2="257.38" class="err"/>
<circle cx="257.36" cy="242.51" r="2.5" class="obs"/>
<line x1="283.97" y1="222.39" x2="283.97" y2="251.62" class="err"/>
<line x1="280.97" y1="222.39" x2="286.97" y2="222.39" class="err"/>
<line x1="280.97" y1="251.62" x2="286.97" y2="251.62" class="err"/>
<circle cx="283.97" cy="237.00" r="2.5" class="obs"/>
<line x1="310.58" y1="229.08" x2="310.58" y2="259.33" class="err"/>
<line x1="307.58" y1="229.08" x2="313.58" y2="229.08" class="err"/>
<line x1="307.58" y1="259.33" x2="313.58" y2="259.33" class="err"/>
<circle cx="310.58" cy="244.21" r="2.5" class="obs"/>
<line x1="337.20" y1="230.74" x2="337.20" y2="263.61" class="err"/>
<line x1="334.20" y1="230.74" x2="340.20" y2="230.74" class="err"/>
<line x1="334.20" y1="263.61" x2="340.20" y2="263.61" class="err"/>
<circle cx="337.20" cy="247.17" r="2.5" class="obs"/>
<line x1="363.81" y1="242.64" x2="363.81" y2="270.34" class="err"/>
<line x1="360.81" y1="242.64" x2="366.81" y2="242.64" class="err"/>
<line x1="360.81" y1="270.34" x2="366.81" y2="270.34" class="err"/>
<circle cx="363.81" cy="256.49" r="2.5" class="obs"/>
<line x1="390.42" y1="242.47" x2="390.42" y2="269.66" class="err"/>
<line x1="387.42" y1="242.47" x2="393.42" y2="242.47" class="err"/>
<line x1="387.42" y1="269.66" x2="393.42" y2="269.66" class="err"/>
<circle cx="390.42" cy="256.07" r="2.5" class="obs"/>
<line x1="418.10" y1="240.77" x2="418.10" y2="267.97" class="err"/>
<line x1="415.10" y1="240.77" x2="421.10" y2="240.77" class="err"/>
<line x1="415.10" y1="267.97" x2="421.10" y2="267.97" class="err"/>
<circle cx="418.10" cy="254.37" r="2.5" class="obs"/>
<line x1="443.65" y1="245.35" x2="443.65" y2="272.71" class="err"/>
<line x1="440.65" y1="245.35" x2="446.65" y2="245.35" class="err"/>
<line x1="440.65" y1="272.71" x2="446.65" y2="272.71" class="err"/>
<circle cx="443.65" cy="259.03" r="2.5" class="obs"/>
<line x1="470.26" y1="254.12" x2="470.26" y2="280.89" class="err"/>
<line x1="467.26" y1="254.12" x2="473.26" y2="254.12" class="err"/>
<line x1="467.26" y1="280.89" x2="473.26" y2="280.89" class="err"/>
<circle cx="470.26" cy="267.50" r="2.5" class="obs"/>
<line x1="497.94" y1="244.80" x2="497.94" y2="271.57" class="err"/>
<line x1="494.94" y1="244.80" x2="500.94" y2="244.80" class="err"/>
<line x1="494.94" y1="271.57" x2="500.94" y2="271.57" class="err"/>
<circle cx="497.94" cy="258.18" r="2.5" class="obs"/>
<line x1="523.49" y1="239.46" x2="523.49" y2="265.89" class="err"/>
<line x1="520.49" y1="239.46" x2="526.49" y2="239.46" class="err"/>
<line x1="520.49" y1="265.89" x2="526.49" y2="265.89" class="err"/>
<circle cx="523.49" cy="252.68" r="2.5" class="obs"/>
<line x1="551.17" y1="233.11" x2="551.17" y2="259.54" class="err"/>
<line x1="548.17" y1="233.11" x2="554.17" y2="233.11" class="err"/>
<line x1="548.17" y1="259.54" x2="554.17" y2="259.54" class="err"/>
<circle cx="551.17" cy="246.32" r="2.5" class="obs"/>
<line x1="577.78" y1="232.26" x2="577.78" y2="258.69" class="err"/>
<line x1="574.78" y1="232.26" x2="580.78" y2="232.26" class="err"/>
<line x1="574.78" y1="258.69" x2="580.78" y2="258.69" class="err"/>
<circle cx="577.78" cy="245.48" r="2.5" class="obs"/>
<line x1="604.39" y1="232.64" x2="604.39" y2="259.16" class="err"/>
<line x1="601.39" y1="232.64" x2="607.39" y2="232.64" class="err"/>
<line x1="601.39" y1="259.16" x2="607.39" y2="259.16" class="err"/>
<circle cx="604.39" cy="245.90" r="2.5" class="obs"/>
<line x1="631.01" y1="235.27" x2="631.01" y2="261.61" class="err"/>
<line x1="628.01" y1="235.27" x2="634.01" y2="235.27" class="err"/>
<line x1="628.01" y1="261.61" x2="634.01" y2="261.61" class="err"/>
<circle cx="631.01" cy="248.44" r="2.5" class="obs"/>
<line x1="657.62" y1="242.04" x2="657.62" y2="268.39" class="err"/>
<line x1="654.62" y1="242.04" x2="660.62" y2="242.04" class="err"/>
<line x1="654.62" y1="268.39" x2="660.62" y2="268.39" class="err"/>
<circle cx="657.62" cy="255.22" r="2.5" class="obs"/>
<g class="legend">
<line x1="82" y1="69" x2="106" y2="69" class="fw"/>
<text x="112" y="73" class="lbl-l">framework: 1.3 km/s, 13.6%, 0.41σ</text>
<line x1="82" y1="87" x2="106" y2="87" class="nt"/>
<text x="112" y="91" class="lbl-l">Newtonian: 4.5 km/s, 53.1%, 1.23σ</text>
<line x1="82" y1="105" x2="106" y2="105" class="mond"/>
<text x="112" y="109" class="lbl-m">MOND/RAR: 26.5 km/s, 102.1%, 8.28σ</text>
<circle cx="94" cy="123" r="2.5" class="obs"/>
<text x="112" y="127" class="lbl">observed V±err</text>
</g>
<g class="legend">
<line x1="472" y1="69" x2="496" y2="69" class="rho"/>
<text x="502" y="73" class="lbl-r">ρ(r) raw</text>
<line x1="472" y1="87" x2="496" y2="87" class="phot"/>
<text x="502" y="91" class="lbl-p">photometric baryonic profile</text>
<line x1="472" y1="105" x2="496" y2="105" class="mbar"/>
<text x="502" y="109" class="lbl-m">MOND baryonic annulus</text>
<line x1="472" y1="123" x2="496" y2="123" class="mph"/>
<text x="502" y="127" class="lbl-m">MOND phantom annulus</text>
<text x="472" y="147" class="lbl-r">ρ peak: 34 M☉/pc²</text>
<text x="472" y="163" class="lbl-p">phot peak: 36.88 (arb.)</text>
<text x="472" y="179" class="lbl-m">Σbar peak: 31.17 M☉/pc²</text>
<text x="472" y="195" class="lbl-m">Σphantom peak: 79.20 M☉/pc²</text>
</g>
<rect x="775" y="55" width="170" height="170" class="preview-bg"/>
<defs><radialGradient id="g_UGC04305" cx="0.5" cy="0.5" r="0.5">
  <stop offset="0.0000" stop-color="rgb(97,24,24)"/>
  <stop offset="0.0313" stop-color="rgb(97,24,24)"/>
  <stop offset="0.0625" stop-color="rgb(97,24,24)"/>
  <stop offset="0.0938" stop-color="rgb(97,24,24)"/>
  <stop offset="0.1250" stop-color="rgb(97,24,24)"/>
  <stop offset="0.1563" stop-color="rgb(97,24,24)"/>
  <stop offset="0.1875" stop-color="rgb(97,24,24)"/>
  <stop offset="0.2188" stop-color="rgb(95,24,24)"/>
  <stop offset="0.2500" stop-color="rgb(92,23,23)"/>
  <stop offset="0.2813" stop-color="rgb(90,23,23)"/>
  <stop offset="0.3125" stop-color="rgb(87,22,22)"/>
  <stop offset="0.3438" stop-color="rgb(85,21,21)"/>
  <stop offset="0.3750" stop-color="rgb(82,21,21)"/>
  <stop offset="0.4063" stop-color="rgb(80,20,20)"/>
  <stop offset="0.4375" stop-color="rgb(80,20,20)"/>
  <stop offset="0.4688" stop-color="rgb(79,20,20)"/>
  <stop offset="0.5000" stop-color="rgb(78,20,20)"/>
  <stop offset="0.5313" stop-color="rgb(78,20,20)"/>
  <stop offset="0.5625" stop-color="rgb(77,19,19)"/>
  <stop offset="0.5938" stop-color="rgb(76,19,19)"/>
  <stop offset="0.6250" stop-color="rgb(76,19,19)"/>
  <stop offset="0.6563" stop-color="rgb(75,19,19)"/>
  <stop offset="0.6875" stop-color="rgb(74,19,19)"/>
  <stop offset="0.7188" stop-color="rgb(74,19,19)"/>
  <stop offset="0.7500" stop-color="rgb(73,18,18)"/>
  <stop offset="0.7813" stop-color="rgb(73,18,18)"/>
  <stop offset="0.8125" stop-color="rgb(72,18,18)"/>
  <stop offset="0.8438" stop-color="rgb(71,18,18)"/>
  <stop offset="0.8750" stop-color="rgb(71,18,18)"/>
  <stop offset="0.9063" stop-color="rgb(66,17,17)"/>
  <stop offset="0.9375" stop-color="rgb(50,13,13)"/>
  <stop offset="0.9688" stop-color="rgb(25,6,6)"/>
  <stop offset="1.0000" stop-color="rgb(0,0,0)"/>
</radialGradient></defs>
<circle cx="860" cy="140" r="81" fill="url(#g_UGC04305)"/>
<text x="860" y="49" text-anchor="middle" class="preview-lbl">face-on luminance from ρ(r)</text>
<text x="860" y="239" text-anchor="middle" class="preview-lbl">edge at r = 5.5 kpc</text>
</svg>