<svg xmlns="http://www.w3.org/2000/svg" viewBox="0 0 720 420" width="720" height="420" font-family="sans-serif" font-size="12">
<style>
  .ax { stroke: #333; stroke-width: 1; fill: none; }
  .grid { stroke: #ddd; stroke-width: 0.5; fill: none; }
  .lbl { fill: #333; }
  .lbl-l { fill: #0066cc; }
  .lbl-r { fill: #b03030; }
  .obs { fill: #222; }
  .err { stroke: #555; stroke-width: 0.8; fill: none; }
  .fw { stroke: #0066cc; stroke-width: 2.2; fill: none; }
  .nt { stroke: #cc6600; stroke-width: 1.6; fill: none; stroke-dasharray: 5,3; }
  .rho { stroke: #b03030; stroke-width: 2.0; fill: none; }
  .sig { stroke: #b03030; stroke-width: 1.6; fill: none; stroke-dasharray: 4,2; opacity: 0.85; }
  .title { fill: #111; font-size: 16px; font-weight: 600; }
  .subtitle { fill: #555; font-size: 11px; }
  .legend { font-size: 11px; }
</style>
<text x="360.0" y="22" text-anchor="middle" class="title">UGC05414</text>
<text x="360.0" y="38" text-anchor="middle" class="subtitle">rMax=4.1 kpc, N=6, RMS=0.8 km/s (1.8%), amp=105</text>
<line x1="70" y1="365.0" x2="635" y2="365.0" class="grid"/>
<text x="64" y="369.0" text-anchor="end" class="lbl-l">0</text>
<line x1="70" y1="303.0" x2="635" y2="303.0" class="grid"/>
<text x="64" y="307.0" text-anchor="end" class="lbl-l">14</text>
<line x1="70" y1="241.00000000000003" x2="635" y2="241.00000000000003" class="grid"/>
<text x="64" y="245.00000000000003" text-anchor="end" class="lbl-l">28</text>
<line x1="70" y1="178.99999999999997" x2="635" y2="178.99999999999997" class="grid"/>
<text x="64" y="182.99999999999997" text-anchor="end" class="lbl-l">42</text>
<line x1="70" y1="117.00000000000003" x2="635" y2="117.00000000000003" class="grid"/>
<text x="64" y="121.00000000000003" text-anchor="end" class="lbl-l">56</text>
<line x1="70" y1="55.0" x2="635" y2="55.0" class="grid"/>
<text x="64" y="59.0" text-anchor="end" class="lbl-l">70</text>
<text x="641" y="369.0" text-anchor="start" class="lbl-r">0.0</text>
<text x="641" y="327.6666666666667" text-anchor="start" class="lbl-r">0.2</text>
<text x="641" y="286.33333333333337" text-anchor="start" class="lbl-r">0.4</text>
<text x="641" y="245.00000000000003" text-anchor="start" class="lbl-r">0.6</text>
<text x="641" y="203.66666666666666" text-anchor="start" class="lbl-r">0.8</text>
<text x="641" y="162.33333333333334" text-anchor="start" class="lbl-r">1.0</text>
<line x1="70.0" y1="55" x2="70.0" y2="365" class="grid"/>
<text x="70.0" y="381" text-anchor="middle" class="lbl">0.0</text>
<line x1="164.16666666666669" y1="55" x2="164.16666666666669" y2="365" class="grid"/>
<text x="164.16666666666669" y="381" text-anchor="middle" class="lbl">0.7</text>
<line x1="258.33333333333337" y1="55" x2="258.33333333333337" y2="365" class="grid"/>
<text x="258.33333333333337" y="381" text-anchor="middle" class="lbl">1.4</text>
<line x1="352.5" y1="55" x2="352.5" y2="365" class="grid"/>
<text x="352.5" y="381" text-anchor="middle" class="lbl">2.1</text>
<line x1="446.6666666666667" y1="55" x2="446.6666666666667" y2="365" class="grid"/>
<text x="446.6666666666667" y="381" text-anchor="middle" class="lbl">2.9</text>
<line x1="540.8333333333333" y1="55" x2="540.8333333333333" y2="365" class="grid"/>
<text x="540.8333333333333" y="381" text-anchor="middle" class="lbl">3.6</text>
<line x1="635.0" y1="55" x2="635.0" y2="365" class="grid"/>
<text x="635.0" y="381" text-anchor="middle" class="lbl">4.3</text>
<text x="352.5" y="408" text-anchor="middle" class="lbl">radius (kpc)</text>
<text x="16" y="210.0" text-anchor="middle" class="lbl-l" transform="rotate(-90, 16, 210.0)">velocity (km/s)</text>
<text x="704" y="210.0" text-anchor="middle" class="lbl-r" transform="rotate(-90, 704, 210.0)">mass profile (normalized to peak)</text>
<rect x="70" y="55" width="565" height="310" class="ax"/>
<path d="M 70.0,158.3 L 72.6,171.3 L 75.2,184.2 L 77.7,197.1 L 80.3,210.0 L 82.9,223.0 L 85.5,235.9 L 88.1,248.8 L 90.6,261.8 L 93.2,274.7 L 95.8,276.1 L 98.4,276.7 L 101.0,277.2 L 103.5,277.7 L 106.1,278.2 L 108.7,278.7 L 111.3,279.2 L 113.9,279.8 L 116.4,280.3 L 119.0,280.8 L 121.6,281.3 L 124.2,281.8 L 126.8,282.3 L 129.3,282.9 L 131.9,283.4 L 134.5,283.4 L 137.1,283.4 L 139.7,283.4 L 142.2,283.4 L 144.8,283.4 L 147.4,283.4 L 150.0,283.4 L 152.6,283.4 L 155.1,283.4 L 157.7,283.4 L 160.3,283.4 L 162.9,283.4 L 165.5,283.4 L 168.0,283.4 L 170.6,283.4 L 173.2,283.4 L 175.8,283.4 L 178.4,283.4 L 180.9,283.4 L 183.5,283.4 L 186.1,283.4 L 188.7,283.4 L 191.3,283.4 L 193.8,283.4 L 196.4,283.4 L 199.0,283.4 L 201.6,283.4 L 204.2,283.4 L 206.7,283.4 L 209.3,283.4 L 211.9,283.4 L 214.5,283.4 L 217.1,283.4 L 219.6,283.4 L 222.2,283.4 L 224.8,283.4 L 227.4,283.6 L 230.0,283.9 L 232.5,284.1 L 235.1,284.4 L 237.7,284.6 L 240.3,284.9 L 242.9,285.1 L 245.4,285.4 L 248.0,285.6 L 250.6,285.9 L 253.2,286.1 L 255.8,286.4 L 258.3,286.6 L 260.9,286.9 L 263.5,287.1 L 266.1,287.4 L 268.7,287.6 L 271.2,287.9 L 273.8,288.1 L 276.4,288.4 L 279.0,288.6 L 281.6,288.9 L 284.1,289.1 L 286.7,289.4 L 289.3,289.6 L 291.9,289.9 L 294.5,290.2 L 297.0,290.4 L 299.6,290.7 L 302.2,290.9 L 304.8,291.2 L 307.4,291.4 L 309.9,291.7 L 312.5,291.9 L 315.1,292.2 L 317.7,292.4 L 320.3,292.7 L 322.8,292.9 L 325.4,293.2 L 328.0,293.4 L 330.6,293.7 L 333.2,293.9 L 335.7,294.2 L 338.3,294.4 L 340.9,294.7 L 343.5,294.9 L 346.1,295.2 L 348.6,295.4 L 351.2,295.7 L 353.8,295.9 L 356.4,296.2 L 358.9,296.4 L 361.5,296.7 L 364.1,296.9 L 366.7,297.2 L 369.3,297.4 L 371.8,297.7 L 374.4,297.9 L 377.0,298.2 L 379.6,298.4 L 382.2,298.7 L 384.7,298.9 L 387.3,299.2 L 389.9,299.4 L 392.5,299.7 L 395.1,299.9 L 397.6,300.2 L 400.2,300.4 L 402.8,300.7 L 405.4,300.9 L 408.0,301.2 L 410.5,301.4 L 413.1,301.7 L 415.7,301.9 L 418.3,302.2 L 420.9,302.4 L 423.4,302.7 L 426.0,302.9 L 428.6,303.2 L 431.2,303.4 L 433.8,303.7 L 436.3,303.9 L 438.9,304.2 L 441.5,304.4 L 444.1,304.7 L 446.7,304.9 L 449.2,305.2 L 451.8,305.4 L 454.4,305.7 L 457.0,305.9 L 459.6,306.2 L 462.1,306.4 L 464.7,306.7 L 467.3,306.9 L 469.9,307.2 L 472.5,307.4 L 475.0,307.7 L 477.6,308.0 L 480.2,308.2 L 482.8,308.5 L 485.4,308.7 L 487.9,309.0 L 490.5,309.2 L 493.1,309.5 L 495.7,309.7 L 498.3,310.0 L 500.8,310.2 L 503.4,310.5 L 506.0,310.7 L 508.6,311.0 L 511.2,311.2 L 513.7,311.5 L 516.3,311.7 L 518.9,312.0 L 521.5,312.2 L 524.1,312.5 L 526.6,312.7 L 529.2,313.0 L 531.8,313.2 L 534.4,313.5 L 537.0,313.7 L 539.5,314.0 L 542.1,314.2 L 544.7,314.5 L 547.3,314.7 L 549.9,315.0 L 552.4,315.2 L 555.0,315.5 L 557.6,315.7 L 560.2,316.0 L 562.8,316.2 L 565.3,316.5 L 567.9,316.7 L 570.5,317.0 L 573.1,317.2 L 575.7,317.5 L 578.2,317.7 L 580.8,318.0 L 583.4,318.2 L 586.0,318.5 L 588.6,318.7 L 591.1,319.0 L 593.7,319.2 L 596.3,322.8 L 598.9,332.0 L 601.5,341.3 L 604.0,350.5 L 606.6,359.7 L 609.2,365.0 L 611.8,365.0 L 614.4,365.0 L 616.9,365.0 L 619.5,365.0 L 622.1,365.0 L 624.7,365.0 L 627.3,365.0 L 629.8,365.0 L 632.4,365.0 L 635.0,365.0" class="rho"/>
<path d="M 70.0,158.3 L 72.6,158.6 L 75.2,159.0 L 77.7,159.6 L 80.3,160.4 L 82.9,161.3 L 85.5,162.4 L 88.1,163.5 L 90.6,164.7 L 93.2,166.0 L 95.8,167.2 L 98.4,168.4 L 101.0,169.6 L 103.5,170.8 L 106.1,171.9 L 108.7,172.9 L 111.3,173.9 L 113.9,174.9 L 116.4,175.8 L 119.0,176.7 L 121.6,177.5 L 124.2,178.3 L 126.8,179.1 L 129.3,179.8 L 131.9,180.5 L 134.5,181.2 L 137.1,181.9 L 139.7,182.5 L 142.2,183.1 L 144.8,183.7 L 147.4,184.3 L 150.0,184.9 L 152.6,185.4 L 155.1,186.0 L 157.7,186.5 L 160.3,187.1 L 162.9,187.6 L 165.5,188.1 L 168.0,188.6 L 170.6,189.1 L 173.2,189.6 L 175.8,190.2 L 178.4,190.7 L 180.9,191.2 L 183.5,191.7 L 186.1,192.2 L 188.7,192.7 L 191.3,193.3 L 193.8,193.8 L 196.4,194.3 L 199.0,194.9 L 201.6,195.4 L 204.2,196.0 L 206.7,196.6 L 209.3,197.1 L 211.9,197.7 L 214.5,198.3 L 217.1,198.9 L 219.6,199.6 L 222.2,200.2 L 224.8,200.8 L 227.4,201.5 L 230.0,202.2 L 232.5,202.8 L 235.1,203.5 L 237.7,204.2 L 240.3,205.0 L 242.9,205.7 L 245.4,206.4 L 248.0,207.2 L 250.6,207.9 L 253.2,208.7 L 255.8,209.4 L 258.3,210.2 L 260.9,211.0 L 263.5,211.8 L 266.1,212.6 L 268.7,213.4 L 271.2,214.2 L 273.8,215.0 L 276.4,215.8 L 279.0,216.6 L 281.6,217.5 L 284.1,218.3 L 286.7,219.1 L 289.3,220.0 L 291.9,220.8 L 294.5,221.6 L 297.0,222.5 L 299.6,223.3 L 302.2,224.2 L 304.8,225.0 L 307.4,225.9 L 309.9,226.8 L 312.5,227.6 L 315.1,228.5 L 317.7,229.3 L 320.3,230.2 L 322.8,231.1 L 325.4,231.9 L 328.0,232.8 L 330.6,233.7 L 333.2,234.5 L 335.7,235.4 L 338.3,236.3 L 340.9,237.2 L 343.5,238.0 L 346.1,238.9 L 348.6,239.8 L 351.2,240.6 L 353.8,241.5 L 356.4,242.4 L 358.9,243.3 L 361.5,244.1 L 364.1,245.0 L 366.7,245.9 L 369.3,246.7 L 371.8,247.6 L 374.4,248.5 L 377.0,249.3 L 379.6,250.2 L 382.2,251.1 L 384.7,251.9 L 387.3,252.8 L 389.9,253.7 L 392.5,254.5 L 395.1,255.4 L 397.6,256.2 L 400.2,257.1 L 402.8,258.0 L 405.4,258.8 L 408.0,259.7 L 410.5,260.5 L 413.1,261.4 L 415.7,262.2 L 418.3,263.1 L 420.9,263.9 L 423.4,264.7 L 426.0,265.6 L 428.6,266.4 L 431.2,267.3 L 433.8,268.1 L 436.3,268.9 L 438.9,269.8 L 441.5,270.6 L 444.1,271.4 L 446.7,272.3 L 449.2,273.1 L 451.8,273.9 L 454.4,274.7 L 457.0,275.6 L 459.6,276.4 L 462.1,277.2 L 464.7,278.0 L 467.3,278.8 L 469.9,279.7 L 472.5,280.5 L 475.0,281.3 L 477.6,282.1 L 480.2,282.9 L 482.8,283.7 L 485.4,284.5 L 487.9,285.3 L 490.5,286.1 L 493.1,286.9 L 495.7,287.7 L 498.3,288.5 L 500.8,289.3 L 503.4,290.1 L 506.0,290.9 L 508.6,291.7 L 511.2,292.5 L 513.7,293.3 L 516.3,294.1 L 518.9,294.9 L 521.5,295.7 L 524.1,296.5 L 526.6,297.3 L 529.2,298.1 L 531.8,298.9 L 534.4,299.8 L 537.0,300.6 L 539.5,301.4 L 542.1,302.2 L 544.7,303.0 L 547.3,303.8 L 549.9,304.7 L 552.4,305.5 L 555.0,306.3 L 557.6,307.2 L 560.2,308.0 L 562.8,308.9 L 565.3,309.7 L 567.9,310.6 L 570.5,311.5 L 573.1,312.4 L 575.7,313.3 L 578.2,314.2 L 580.8,315.1 L 583.4,316.1 L 586.0,317.0 L 588.6,317.9 L 591.1,318.9 L 593.7,319.8 L 596.3,320.8 L 598.9,321.7 L 601.5,322.7 L 604.0,323.6 L 606.6,324.5 L 609.2,325.3 L 611.8,326.2 L 614.4,327.0 L 616.9,327.8 L 619.5,328.6 L 622.1,329.3 L 624.7,330.0 L 627.3,330.7 L 629.8,331.4 L 632.4,332.0 L 635.0,332.6" class="sig"/>
<path d="M 75.7,319.4 L 81.3,303.8 L 87.0,294.4 L 92.6,288.7 L 98.2,284.8 L 103.9,280.5 L 109.5,276.1 L 115.2,271.8 L 120.8,267.6 L 126.5,263.5 L 132.2,259.6 L 137.8,255.9 L 143.4,252.2 L 149.1,248.5 L 154.8,244.9 L 160.4,241.4 L 166.1,238.0 L 171.7,234.7 L 177.3,231.4 L 183.0,228.1 L 188.7,225.0 L 194.3,221.9 L 199.9,218.8 L 205.6,215.9 L 211.2,212.9 L 216.9,210.0 L 222.5,207.2 L 228.2,204.4 L 233.9,201.7 L 239.5,199.1 L 245.1,196.5 L 250.8,194.0 L 256.5,191.6 L 262.1,189.3 L 267.8,187.0 L 273.4,184.7 L 279.1,182.5 L 284.7,180.4 L 290.3,178.3 L 296.0,176.2 L 301.6,174.2 L 307.3,172.3 L 312.9,170.3 L 318.6,168.5 L 324.2,166.6 L 329.9,164.8 L 335.6,163.1 L 341.2,161.3 L 346.9,159.7 L 352.5,158.0 L 358.1,156.4 L 363.8,154.8 L 369.4,153.2 L 375.1,151.7 L 380.8,150.2 L 386.4,148.8 L 392.1,147.3 L 397.7,145.9 L 403.3,144.6 L 409.0,143.2 L 414.6,141.9 L 420.3,140.6 L 425.9,139.3 L 431.6,138.1 L 437.2,136.9 L 442.9,135.7 L 448.6,134.5 L 454.2,133.3 L 459.8,132.2 L 465.5,131.1 L 471.2,130.0 L 476.8,129.0 L 482.4,128.0 L 488.1,126.9 L 493.8,126.0 L 499.4,125.0 L 505.1,124.0 L 510.7,123.1 L 516.3,122.2 L 522.0,121.3 L 527.7,120.4 L 533.3,119.6 L 539.0,118.8 L 544.6,118.0 L 550.2,117.2 L 555.9,116.4 L 561.5,115.7 L 567.2,114.9 L 572.9,114.2 L 578.5,113.5 L 584.1,112.9 L 589.8,112.2 L 595.4,111.6 L 601.1,111.3 L 606.8,112.0 L 612.4,113.3 L 618.0,114.7 L 623.7,116.0 L 629.4,117.2 L 635.0,118.4" class="nt"/>
<path d="M 74.7,344.0 L 79.4,329.5 L 84.1,315.3 L 88.8,303.7 L 93.5,294.8 L 98.2,288.9 L 103.0,285.0 L 107.7,282.5 L 112.4,281.0 L 117.1,280.1 L 121.8,279.4 L 126.5,279.0 L 131.2,278.7 L 135.9,278.4 L 140.6,278.1 L 145.3,277.5 L 150.0,276.8 L 154.8,275.9 L 159.5,274.7 L 164.2,273.2 L 168.9,271.5 L 173.6,269.5 L 178.3,267.2 L 183.0,264.8 L 187.7,262.0 L 192.4,259.1 L 197.1,255.9 L 201.8,252.5 L 206.5,248.8 L 211.2,245.0 L 216.0,241.0 L 220.7,236.9 L 225.4,232.8 L 230.1,228.6 L 234.8,224.5 L 239.5,220.6 L 244.2,216.7 L 248.9,213.1 L 253.6,209.5 L 258.3,206.2 L 263.0,203.0 L 267.8,199.8 L 272.5,196.9 L 277.2,194.0 L 281.9,191.2 L 286.6,188.6 L 291.3,186.0 L 296.0,183.5 L 300.7,181.1 L 305.4,178.8 L 310.1,176.6 L 314.8,174.4 L 319.5,172.3 L 324.2,170.2 L 329.0,168.2 L 333.7,166.3 L 338.4,164.5 L 343.1,162.6 L 347.8,160.9 L 352.5,159.2 L 357.2,157.5 L 361.9,155.9 L 366.6,154.4 L 371.3,152.8 L 376.0,151.4 L 380.8,149.9 L 385.5,148.5 L 390.2,147.2 L 394.9,145.9 L 399.6,144.6 L 404.3,143.3 L 409.0,142.1 L 413.7,140.9 L 418.4,139.8 L 423.1,138.6 L 427.8,137.5 L 432.5,136.4 L 437.2,135.4 L 442.0,134.3 L 446.7,133.3 L 451.4,132.3 L 456.1,131.3 L 460.8,130.3 L 465.5,129.3 L 470.2,128.3 L 474.9,127.3 L 479.6,126.2 L 484.3,125.2 L 489.0,124.2 L 493.8,123.1 L 498.5,121.9 L 503.2,120.8 L 507.9,119.5 L 512.6,118.2 L 517.3,116.8 L 522.0,115.4 L 526.7,113.8 L 531.4,112.0 L 536.1,110.1 L 540.8,108.0 L 545.5,105.6 L 550.2,103.1 L 555.0,100.2 L 559.7,97.0 L 564.4,93.5 L 569.1,89.7 L 573.8,85.7 L 578.5,81.7 L 583.2,77.9 L 587.9,74.9 L 592.6,73.2 L 597.3,73.2 L 602.0,75.5 L 606.8,79.6 L 611.5,85.5 L 616.2,92.6 L 620.9,100.4 L 625.6,108.4 L 630.3,116.3 L 635.0,123.8" class="fw"/>
<line x1="159.57173707211223" y1="263.60019366598317" x2="159.57173707211223" y2="285.40755297334243" class="err"/>
<line x1="156.57173707211223" y1="263.60019366598317" x2="162.57173707211223" y2="263.60019366598317" class="err"/>
<line x1="156.57173707211223" y1="285.40755297334243" x2="162.57173707211223" y2="285.40755297334243" class="err"/>
<circle cx="159.57173707211223" cy="274.50387331966283" r="2.5" class="obs"/>
<line x1="250.4607055717555" y1="201.44480519480518" x2="250.4607055717555" y2="223.07558669400774" class="err"/>
<line x1="247.4607055717555" y1="201.44480519480518" x2="253.4607055717555" y2="201.44480519480518" class="err"/>
<line x1="247.4607055717555" y1="223.07558669400774" x2="253.4607055717555" y2="223.07558669400774" class="err"/>
<circle cx="250.4607055717555" cy="212.2601959444065" r="2.5" class="obs"/>
<line x1="340.0324426438677" y1="151.12012987012986" x2="340.0324426438677" y2="172.75091136933244" class="err"/>
<line x1="337.0324426438677" y1="151.12012987012986" x2="343.0324426438677" y2="151.12012987012986" class="err"/>
<line x1="337.0324426438677" y1="172.75091136933244" x2="343.0324426438677" y2="172.75091136933244" class="err"/>
<circle cx="340.0324426438677" cy="161.93552061973116" r="2.5" class="obs"/>
<line x1="430.921411143511" y1="125.47220323536115" x2="430.921411143511" y2="147.1912736386421" class="err"/>
<line x1="427.921411143511" y1="125.47220323536115" x2="433.921411143511" y2="125.47220323536115" class="err"/>
<line x1="427.921411143511" y1="147.1912736386421" x2="433.921411143511" y2="147.1912736386421" class="err"/>
<circle cx="430.921411143511" cy="136.33173843700163" r="2.5" class="obs"/>
<line x1="520.4931482156233" y1="103.4882661198451" x2="520.4931482156233" y2="125.03075871496927" class="err"/>
<line x1="517.4931482156233" y1="103.4882661198451" x2="523.4931482156233" y2="103.4882661198451" class="err"/>
<line x1="517.4931482156233" y1="125.03075871496927" x2="523.4931482156233" y2="125.03075871496927" class="err"/>
<circle cx="520.4931482156233" cy="114.2595124174072" r="2.5" class="obs"/>
<line x1="611.3821167152665" y1="83.18181818181823" x2="611.3821167152665" y2="104.72431077694236" class="err"/>
<line x1="608.3821167152665" y1="83.18181818181823" x2="614.3821167152665" y2="83.18181818181823" class="err"/>
<line x1="608.3821167152665" y1="104.72431077694236" x2="614.3821167152665" y2="104.72431077694236" class="err"/>
<circle cx="611.3821167152665" cy="93.95306447938029" r="2.5" class="obs"/>
<g class="legend">
<line x1="82" y1="69" x2="106" y2="69" class="fw"/>
<text x="112" y="73" class="lbl-l">framework fit</text>
<line x1="82" y1="87" x2="106" y2="87" class="nt"/>
<text x="112" y="91" class="lbl-l">Newtonian (no halo)</text>
<circle cx="94" cy="105" r="2.5" class="obs"/>
<text x="112" y="109" class="lbl">observed V±err</text>
</g>
<g class="legend">
<line x1="460" y1="69" x2="484" y2="69" class="rho"/>
<text x="490" y="73" class="lbl-r">ρ(r) raw</text>
<line x1="460" y1="87" x2="484" y2="87" class="sig"/>
<text x="490" y="91" class="lbl-r">Σ(r) smoothed</text>
<text x="460" y="113" class="lbl-r">ρ peak: 203 M☉/pc²</text>
</g>
</svg>