<svg xmlns="http://www.w3.org/2000/svg" viewBox="0 0 960 450" width="960" height="450" font-family="sans-serif" font-size="12">
<style>
  .ax { stroke: #333; stroke-width: 1; fill: none; }
  .grid { stroke: #ddd; stroke-width: 0.5; fill: none; }
  .lbl { fill: #333; }
  .lbl-l { fill: #0066cc; }
  .lbl-r { fill: #b03030; }
  .obs { fill: #222; }
  .err { stroke: #555; stroke-width: 0.8; fill: none; }
  .fw { stroke: #0066cc; stroke-width: 2.2; fill: none; }
  .nt { stroke: #cc6600; stroke-width: 1.6; fill: none; stroke-dasharray: 5,3; }
  .mond { stroke: #7b2cbf; stroke-width: 1.8; fill: none; stroke-dasharray: 7,3; }
  .lbl-p { fill: #cc7000; }
  .lbl-m { fill: #7b2cbf; }
  .rho { stroke: #b03030; stroke-width: 2.0; fill: none; }
  .phot { stroke: #cc7000; stroke-width: 1.8; fill: none; }
  .mbar { stroke: #8e44ad; stroke-width: 1.8; fill: none; opacity: 0.9; }
  .mph { stroke: #c77dff; stroke-width: 1.6; fill: none; stroke-dasharray: 4,3; opacity: 0.95; }
  .remap-x { stroke: #cc2222; stroke-width: 1.5; fill: none; }
  .remap-link { stroke: #cc2222; stroke-width: 0.8; stroke-dasharray: 3,3; fill: none; opacity: 0.7; }
  .title { fill: #111; font-size: 16px; font-weight: 600; }
  .subtitle { fill: #555; font-size: 11px; }
  .preview-bg { fill: #000; }
  .preview-lbl { fill: #888; font-size: 10px; }
  .legend { font-size: 11px; }
</style>
<text x="378.5" y="22" text-anchor="middle" class="title">UGC09133</text>
<text x="378.5" y="38" text-anchor="middle" class="subtitle">rMax=108.3 kpc, N=68, FW=4.5 km/s, 1.8%, 2.21σ, MOND=21.2 km/s, 8.2%, 8.26σ, amp=1270, remap Δr=0.036 rc=0.350</text>
<line x1="70" y1="395.0" x2="687" y2="395.0" class="grid"/>
<text x="64" y="399.0" text-anchor="end" class="lbl-l">0</text>
<line x1="70" y1="327.0" x2="687" y2="327.0" class="grid"/>
<text x="64" y="331.0" text-anchor="end" class="lbl-l">70</text>
<line x1="70" y1="259.0" x2="687" y2="259.0" class="grid"/>
<text x="64" y="263.0" text-anchor="end" class="lbl-l">140</text>
<line x1="70" y1="191.0" x2="687" y2="191.0" class="grid"/>
<text x="64" y="195.0" text-anchor="end" class="lbl-l">210</text>
<line x1="70" y1="123.0" x2="687" y2="123.0" class="grid"/>
<text x="64" y="127.0" text-anchor="end" class="lbl-l">280</text>
<line x1="70" y1="55.0" x2="687" y2="55.0" class="grid"/>
<text x="64" y="59.0" text-anchor="end" class="lbl-l">351</text>
<text x="693" y="399.0" text-anchor="start" class="lbl-r">0.0</text>
<text x="693" y="353.7" text-anchor="start" class="lbl-r">0.2</text>
<text x="693" y="308.3" text-anchor="start" class="lbl-r">0.4</text>
<text x="693" y="263.0" text-anchor="start" class="lbl-r">0.6</text>
<text x="693" y="217.7" text-anchor="start" class="lbl-r">0.8</text>
<text x="693" y="172.3" text-anchor="start" class="lbl-r">1.0</text>
<line x1="70.0" y1="55" x2="70.0" y2="395" class="grid"/>
<text x="70.0" y="411" text-anchor="middle" class="lbl">0.0</text>
<line x1="172.8" y1="55" x2="172.8" y2="395" class="grid"/>
<text x="172.8" y="411" text-anchor="middle" class="lbl">19.0</text>
<line x1="275.7" y1="55" x2="275.7" y2="395" class="grid"/>
<text x="275.7" y="411" text-anchor="middle" class="lbl">37.9</text>
<line x1="378.5" y1="55" x2="378.5" y2="395" class="grid"/>
<text x="378.5" y="411" text-anchor="middle" class="lbl">56.9</text>
<line x1="481.3" y1="55" x2="481.3" y2="395" class="grid"/>
<text x="481.3" y="411" text-anchor="middle" class="lbl">75.8</text>
<line x1="584.2" y1="55" x2="584.2" y2="395" class="grid"/>
<text x="584.2" y="411" text-anchor="middle" class="lbl">94.8</text>
<line x1="687.0" y1="55" x2="687.0" y2="395" class="grid"/>
<text x="687.0" y="411" text-anchor="middle" class="lbl">113.7</text>
<text x="378.5" y="438" text-anchor="middle" class="lbl">radius (kpc)</text>
<text x="16" y="225" text-anchor="middle" class="lbl-l" transform="rotate(-90, 16, 225)">velocity (km/s)</text>
<text x="724" y="225" text-anchor="middle" class="lbl-r" transform="rotate(-90, 724, 225)">profiles (normalized to peak)</text>
<rect x="70" y="55" width="617" height="340" class="ax"/>
<path d="M 70.0,168.3 L 72.8,199.9 L 75.6,231.4 L 78.5,262.9 L 81.3,294.4 L 84.1,326.0 L 86.9,339.8 L 89.7,340.6 L 92.5,341.5 L 95.4,342.3 L 98.2,343.1 L 101.0,344.0 L 103.8,344.8 L 106.6,345.6 L 109.4,346.5 L 112.3,347.3 L 115.1,348.2 L 117.9,349.0 L 120.7,349.8 L 123.5,350.7 L 126.3,351.5 L 129.2,352.3 L 132.0,353.2 L 134.8,354.0 L 137.6,354.8 L 140.4,355.7 L 143.3,356.5 L 146.1,357.4 L 148.9,358.2 L 151.7,359.0 L 154.5,359.9 L 157.3,360.7 L 160.2,361.4 L 163.0,361.6 L 165.8,361.8 L 168.6,362.0 L 171.4,362.2 L 174.2,362.4 L 177.1,362.7 L 179.9,362.9 L 182.7,363.1 L 185.5,363.3 L 188.3,363.5 L 191.1,363.8 L 194.0,364.0 L 196.8,364.2 L 199.6,364.4 L 202.4,364.6 L 205.2,364.8 L 208.1,365.1 L 210.9,365.3 L 213.7,365.5 L 216.5,365.7 L 219.3,365.9 L 222.1,366.1 L 225.0,366.4 L 227.8,366.6 L 230.6,366.8 L 233.4,367.0 L 236.2,367.2 L 239.0,367.4 L 241.9,367.7 L 244.7,367.8 L 247.5,367.9 L 250.3,368.0 L 253.1,368.1 L 255.9,368.2 L 258.8,368.3 L 261.6,368.4 L 264.4,368.5 L 267.2,368.6 L 270.0,368.7 L 272.8,368.8 L 275.7,368.9 L 278.5,369.0 L 281.3,369.2 L 284.1,369.3 L 286.9,369.4 L 289.8,369.5 L 292.6,369.6 L 295.4,369.7 L 298.2,369.8 L 301.0,369.9 L 303.8,370.0 L 306.7,370.1 L 309.5,370.2 L 312.3,370.3 L 315.1,370.4 L 317.9,370.5 L 320.7,370.7 L 323.6,370.8 L 326.4,370.9 L 329.2,371.0 L 332.0,371.1 L 334.8,371.2 L 337.6,371.3 L 340.5,371.4 L 343.3,371.5 L 346.1,371.6 L 348.9,371.7 L 351.7,371.8 L 354.6,371.9 L 357.4,372.0 L 360.2,372.2 L 363.0,372.3 L 365.8,372.4 L 368.6,372.5 L 371.5,372.6 L 374.3,372.7 L 377.1,372.8 L 379.9,372.9 L 382.7,373.0 L 385.5,373.1 L 388.4,373.2 L 391.2,373.3 L 394.0,373.4 L 396.8,373.5 L 399.6,373.7 L 402.4,373.8 L 405.3,373.9 L 408.1,374.0 L 410.9,374.1 L 413.7,374.2 L 416.5,374.3 L 419.4,374.4 L 422.2,374.5 L 425.0,374.6 L 427.8,374.7 L 430.6,374.8 L 433.4,374.9 L 436.3,375.0 L 439.1,375.2 L 441.9,375.3 L 444.7,375.4 L 447.5,375.5 L 450.3,375.6 L 453.2,375.7 L 456.0,375.8 L 458.8,375.9 L 461.6,376.0 L 464.4,376.1 L 467.2,376.2 L 470.1,376.3 L 472.9,376.4 L 475.7,376.5 L 478.5,376.6 L 481.3,376.8 L 484.2,376.9 L 487.0,377.0 L 489.8,377.1 L 492.6,377.2 L 495.4,377.3 L 498.2,377.4 L 501.1,377.5 L 503.9,377.6 L 506.7,377.7 L 509.5,377.8 L 512.3,377.9 L 515.1,378.0 L 518.0,378.1 L 520.8,378.3 L 523.6,378.4 L 526.4,378.5 L 529.2,378.6 L 532.0,378.7 L 534.9,378.8 L 537.7,378.9 L 540.5,379.0 L 543.3,379.1 L 546.1,379.2 L 548.9,379.3 L 551.8,379.4 L 554.6,379.5 L 557.4,379.6 L 560.2,379.8 L 563.0,379.9 L 565.9,380.0 L 568.7,380.1 L 571.5,380.2 L 574.3,380.3 L 577.1,380.4 L 579.9,380.5 L 582.8,380.6 L 585.6,380.7 L 588.4,380.8 L 591.2,380.9 L 594.0,381.0 L 596.8,381.1 L 599.7,381.3 L 602.5,381.4 L 605.3,381.5 L 608.1,381.6 L 610.9,381.7 L 613.7,381.8 L 616.6,381.9 L 619.4,382.0 L 622.2,382.1 L 625.0,382.2 L 627.8,382.3 L 630.7,382.4 L 633.5,382.5 L 636.3,382.6 L 639.1,382.8 L 641.9,384.1 L 644.7,386.1 L 647.6,388.0 L 650.4,390.0 L 653.2,391.9 L 656.0,393.9 L 658.8,395.0 L 661.6,395.0 L 664.5,395.0 L 667.3,395.0 L 670.1,395.0 L 672.9,395.0 L 675.7,395.0 L 678.5,395.0 L 681.4,395.0 L 684.2,395.0 L 687.0,395.0" class="rho"/>
<path d="M 71.7,168.3 L 73.4,274.2 L 75.2,327.3 L 76.8,350.4 L 78.6,364.0 L 80.3,371.9 L 82.0,377.1 L 83.7,380.4 L 85.4,382.3 L 87.1,383.6 L 88.8,385.2 L 90.6,387.1 L 92.2,388.5 L 94.0,389.8 L 95.7,390.7 L 97.4,391.3 L 99.1,391.7 L 100.8,392.0 L 102.5,392.2 L 104.2,392.3 L 105.9,392.5 L 107.7,392.6 L 111.1,393.0 L 112.8,393.2 L 114.5,393.4 L 115.1,393.4 L 116.2,393.5 L 117.9,393.5 L 119.6,393.7 L 123.1,393.9 L 124.8,394.0 L 129.9,394.2 L 131.6,394.2 L 133.3,394.3 L 143.6,394.5 L 145.3,394.5 L 147.0,394.5 L 160.1,394.6 L 175.0,394.8 L 190.4,394.8 L 205.2,394.9 L 220.1,394.9 L 235.5,394.9 L 250.3,395.0 L 265.1,395.0 L 280.5,395.0 L 295.4,395.0 L 310.2,395.0 L 325.6,395.0 L 340.4,395.0 L 355.3,395.0 L 370.7,395.0 L 385.5,395.0 L 400.3,395.0 L 415.2,395.0 L 430.6,395.0 L 445.4,395.0 L 460.2,395.0 L 475.7,395.0 L 490.5,395.0 L 505.3,395.0 L 520.7,395.0 L 535.5,395.0 L 550.4,395.0 L 565.8,395.0 L 580.6,395.0 L 610.9,395.0 L 657.6,395.0" class="phot"/>
<path d="M 71.7,172.8 L 73.4,168.3 L 75.2,218.3 L 76.8,280.0 L 78.6,314.7 L 80.3,335.9 L 82.0,349.6 L 83.7,358.5 L 85.4,364.1 L 87.1,366.1 L 88.8,366.3 L 90.6,367.9 L 92.2,371.2 L 94.0,375.1 L 95.7,379.0 L 97.4,382.2 L 99.1,384.4 L 100.8,385.6 L 102.5,386.2 L 104.2,386.2 L 105.9,385.9 L 107.7,385.9 L 111.1,386.8 L 112.8,388.3 L 114.5,389.6 L 115.1,389.9 L 116.2,389.7 L 117.9,389.6 L 119.6,390.0 L 123.1,391.0 L 124.8,392.1 L 129.9,392.7 L 131.6,393.0 L 133.3,393.0 L 143.6,393.1 L 145.3,393.3 L 147.0,393.5 L 160.1,393.6 L 175.0,394.0 L 190.4,394.3 L 205.2,394.4 L 220.1,394.5 L 235.5,394.6 L 250.3,394.8 L 265.1,395.0 L 280.5,395.0 L 295.4,395.0 L 310.2,395.0 L 325.6,394.9 L 340.4,394.9 L 355.3,395.0 L 370.7,395.0 L 385.5,394.9 L 400.3,394.9 L 415.2,394.9 L 430.6,395.0 L 445.4,395.0 L 460.2,395.0 L 475.7,394.9 L 490.5,394.9 L 505.3,394.9 L 520.7,394.9 L 535.5,395.0 L 550.4,395.0 L 565.8,395.0 L 580.6,395.0 L 610.9,395.0 L 657.6,395.0" class="mbar"/>
<path d="M 71.7,331.9 L 73.4,333.5 L 75.2,310.5 L 76.8,275.1 L 78.6,244.7 L 80.3,220.0 L 82.0,201.4 L 83.7,188.2 L 85.4,180.0 L 87.1,177.1 L 88.8,176.9 L 90.6,175.9 L 92.2,173.3 L 94.0,170.7 L 95.7,168.8 L 97.4,168.3 L 99.1,169.4 L 100.8,171.5 L 102.5,174.3 L 104.2,177.2 L 105.9,179.9 L 107.7,182.7 L 111.1,186.0 L 112.8,189.8 L 114.5,193.1 L 115.1,195.2 L 116.2,196.7 L 117.9,198.5 L 119.6,201.6 L 123.1,206.4 L 124.8,212.4 L 129.9,218.8 L 131.6,224.0 L 133.3,228.6 L 143.6,235.3 L 145.3,242.0 L 147.0,247.0 L 160.1,255.1 L 175.0,267.7 L 190.4,280.4 L 205.2,289.8 L 220.1,297.8 L 235.5,306.6 L 250.3,315.6 L 265.1,324.3 L 280.5,330.8 L 295.4,334.7 L 310.2,336.7 L 325.6,338.4 L 340.4,342.2 L 355.3,346.6 L 370.7,348.1 L 385.5,346.7 L 400.3,346.6 L 415.2,350.1 L 430.6,354.0 L 445.4,356.1 L 460.2,356.7 L 475.7,356.5 L 490.5,356.5 L 505.3,357.3 L 520.7,359.1 L 535.5,361.4 L 550.4,363.6 L 565.8,365.0 L 580.6,365.5 L 610.9,366.3 L 657.6,367.9" class="mph"/>
<path d="M 76.2,307.6 L 82.3,288.3 L 88.5,285.6 L 94.7,281.2 L 100.8,275.4 L 107.0,269.3 L 113.2,263.3 L 119.4,257.7 L 125.5,252.4 L 131.7,247.6 L 137.9,243.1 L 144.0,239.1 L 150.2,235.4 L 156.4,232.1 L 162.6,229.0 L 168.7,226.1 L 174.9,223.1 L 181.1,220.2 L 187.2,217.3 L 193.4,214.5 L 199.6,211.8 L 205.7,209.1 L 211.9,206.5 L 218.1,204.0 L 224.3,201.6 L 230.4,199.2 L 236.6,196.9 L 242.8,194.7 L 248.9,192.5 L 255.1,190.4 L 261.3,188.3 L 267.4,186.2 L 273.6,184.1 L 279.8,182.1 L 286.0,180.1 L 292.1,178.1 L 298.3,176.2 L 304.5,174.3 L 310.6,172.5 L 316.8,170.6 L 323.0,168.8 L 329.1,167.1 L 335.3,165.3 L 341.5,163.7 L 347.7,162.0 L 353.8,160.4 L 360.0,158.8 L 366.2,157.2 L 372.3,155.7 L 378.5,154.2 L 384.7,152.7 L 390.8,151.3 L 397.0,149.9 L 403.2,148.5 L 409.3,147.2 L 415.5,145.9 L 421.7,144.6 L 427.9,143.3 L 434.0,142.1 L 440.2,140.9 L 446.4,139.8 L 452.5,138.6 L 458.7,137.5 L 464.9,136.4 L 471.1,135.4 L 477.2,134.4 L 483.4,133.4 L 489.6,132.4 L 495.7,131.5 L 501.9,130.5 L 508.1,129.7 L 514.2,128.8 L 520.4,128.0 L 526.6,127.1 L 532.8,126.4 L 538.9,125.6 L 545.1,124.9 L 551.3,124.2 L 557.4,123.5 L 563.6,122.8 L 569.8,122.2 L 575.9,121.6 L 582.1,121.0 L 588.3,120.4 L 594.4,119.9 L 600.6,119.4 L 606.8,118.9 L 613.0,118.4 L 619.1,118.0 L 625.3,117.6 L 631.5,117.2 L 637.6,116.8 L 643.8,116.6 L 650.0,116.9 L 656.1,117.9 L 662.3,119.3 L 668.5,120.8 L 674.7,122.2 L 680.8,123.6 L 687.0,124.9" class="nt"/>
<path d="M 71.7,239.1 L 73.4,154.7 L 75.2,128.9 L 76.8,120.5 L 78.6,116.9 L 80.3,116.8 L 82.0,117.4 L 83.7,118.6 L 85.4,119.9 L 87.1,120.0 L 88.8,118.2 L 90.6,116.3 L 92.2,115.0 L 94.0,114.6 L 95.7,115.1 L 97.4,116.3 L 99.1,117.7 L 100.8,119.1 L 102.5,120.2 L 104.2,121.0 L 105.9,121.2 L 107.7,121.1 L 111.1,120.9 L 112.8,121.2 L 114.5,122.0 L 115.1,122.2 L 116.2,122.5 L 117.9,122.7 L 119.6,122.9 L 123.1,124.0 L 124.8,124.9 L 129.9,127.5 L 131.6,128.3 L 133.3,129.0 L 143.6,131.4 L 145.3,131.9 L 147.0,132.2 L 160.1,134.6 L 175.0,135.8 L 190.4,138.1 L 205.2,138.4 L 220.1,138.6 L 235.5,139.3 L 250.3,140.4 L 265.1,142.5 L 280.5,144.7 L 295.4,146.3 L 310.2,147.3 L 325.6,147.5 L 340.4,147.9 L 355.3,149.1 L 370.7,149.9 L 385.5,149.7 L 400.3,148.7 L 415.2,148.6 L 430.6,148.9 L 445.4,149.2 L 460.2,149.4 L 475.7,149.2 L 490.5,148.7 L 505.3,148.2 L 520.7,147.9 L 535.5,147.8 L 550.4,148.0 L 565.8,148.2 L 580.6,148.4 L 610.9,148.2 L 657.6,148.6" class="mond"/>
<path d="M 75.1,257.9 L 80.3,184.5 L 85.4,135.2 L 90.6,116.9 L 95.7,117.6 L 100.8,123.0 L 106.0,127.3 L 111.1,127.9 L 116.3,126.3 L 121.4,123.6 L 126.6,120.3 L 131.7,117.2 L 136.8,114.6 L 142.0,113.0 L 147.1,112.7 L 152.3,114.0 L 157.4,116.8 L 162.6,120.5 L 167.7,124.4 L 172.8,128.0 L 178.0,130.9 L 183.1,133.3 L 188.3,135.0 L 193.4,136.5 L 198.5,137.7 L 203.7,138.8 L 208.8,139.8 L 214.0,140.8 L 219.1,141.9 L 224.3,143.3 L 229.4,144.9 L 234.5,146.8 L 239.7,149.0 L 244.8,151.3 L 250.0,153.5 L 255.1,155.5 L 260.2,157.1 L 265.4,158.5 L 270.5,159.5 L 275.7,160.4 L 280.8,161.0 L 286.0,161.5 L 291.1,161.9 L 296.2,162.2 L 301.4,162.4 L 306.5,162.5 L 311.7,162.6 L 316.8,162.6 L 321.9,162.6 L 327.1,162.5 L 332.2,162.5 L 337.4,162.4 L 342.5,162.3 L 347.7,162.1 L 352.8,162.0 L 357.9,161.9 L 363.1,161.8 L 368.2,161.7 L 373.4,161.6 L 378.5,161.5 L 383.6,161.5 L 388.8,161.4 L 393.9,161.4 L 399.1,161.4 L 404.2,161.4 L 409.4,161.5 L 414.5,161.5 L 419.6,161.6 L 424.8,161.7 L 429.9,161.9 L 435.1,162.0 L 440.2,162.2 L 445.3,162.4 L 450.5,162.7 L 455.6,163.0 L 460.8,163.2 L 465.9,163.6 L 471.1,163.9 L 476.2,164.3 L 481.3,164.7 L 486.5,165.1 L 491.6,165.6 L 496.8,166.0 L 501.9,166.5 L 507.0,167.0 L 512.2,167.6 L 517.3,168.1 L 522.5,168.7 L 527.6,169.2 L 532.8,169.8 L 537.9,170.4 L 543.0,170.9 L 548.2,171.5 L 553.3,172.0 L 558.5,172.5 L 563.6,173.0 L 568.7,173.4 L 573.9,173.7 L 579.0,173.9 L 584.2,174.0 L 589.3,173.9 L 594.4,173.5 L 599.6,172.8 L 604.7,171.7 L 609.9,169.9 L 615.0,167.4 L 620.2,164.3 L 625.3,160.4 L 630.4,156.5 L 635.6,153.6 L 640.7,152.9 L 645.9,155.3 L 651.0,161.3 L 656.2,170.0 L 661.3,180.3 L 666.4,190.9 L 671.6,200.9 L 676.7,209.8 L 681.9,217.6 L 687.0,224.4" class="fw"/>
<line x1="88.33" y1="115.36" x2="96.73" y2="123.76" class="remap-x"/>
<line x1="88.33" y1="123.76" x2="96.73" y2="115.36" class="remap-x"/>
<line x1="71.74" y1="85.91" x2="71.74" y2="153.22" class="err"/>
<line x1="68.74" y1="85.91" x2="74.74" y2="85.91" class="err"/>
<line x1="68.74" y1="153.22" x2="74.74" y2="153.22" class="err"/>
<circle cx="71.74" cy="119.56" r="2.5" class="obs"/>
<line x1="89.67" y1="117.30" x2="98.07" y2="125.70" class="remap-x"/>
<line x1="89.67" y1="125.70" x2="98.07" y2="117.30" class="remap-x"/>
<line x1="73.42" y1="103.27" x2="73.42" y2="139.74" class="err"/>
<line x1="70.42" y1="103.27" x2="76.42" y2="103.27" class="err"/>
<line x1="70.42" y1="139.74" x2="76.42" y2="139.74" class="err"/>
<circle cx="73.42" cy="121.50" r="2.5" class="obs"/>
<line x1="91.06" y1="118.27" x2="99.46" y2="126.67" class="remap-x"/>
<line x1="91.06" y1="126.67" x2="99.46" y2="118.27" class="remap-x"/>
<line x1="75.15" y1="110.25" x2="75.15" y2="134.69" class="err"/>
<line x1="72.15" y1="110.25" x2="78.15" y2="110.25" class="err"/>
<line x1="72.15" y1="134.69" x2="78.15" y2="134.69" class="err"/>
<circle cx="75.15" cy="122.47" r="2.5" class="obs"/>
<line x1="92.41" y1="119.24" x2="100.81" y2="127.64" class="remap-x"/>
<line x1="92.41" y1="127.64" x2="100.81" y2="119.24" class="remap-x"/>
<line x1="76.84" y1="113.16" x2="76.84" y2="133.72" class="err"/>
<line x1="73.84" y1="113.16" x2="79.84" y2="113.16" class="err"/>
<line x1="73.84" y1="133.72" x2="79.84" y2="133.72" class="err"/>
<circle cx="76.84" cy="123.44" r="2.5" class="obs"/>
<line x1="93.80" y1="119.24" x2="102.20" y2="127.64" class="remap-x"/>
<line x1="93.80" y1="127.64" x2="102.20" y2="119.24" class="remap-x"/>
<line x1="78.57" y1="112.97" x2="78.57" y2="133.92" class="err"/>
<line x1="75.57" y1="112.97" x2="81.57" y2="112.97" class="err"/>
<line x1="75.57" y1="133.92" x2="81.57" y2="133.92" class="err"/>
<circle cx="78.57" cy="123.44" r="2.5" class="obs"/>
<line x1="95.15" y1="120.21" x2="103.55" y2="128.61" class="remap-x"/>
<line x1="95.15" y1="128.61" x2="103.55" y2="120.21" class="remap-x"/>
<line x1="80.25" y1="116.97" x2="80.25" y2="131.85" class="err"/>
<line x1="77.25" y1="116.97" x2="83.25" y2="116.97" class="err"/>
<line x1="77.25" y1="131.85" x2="83.25" y2="131.85" class="err"/>
<circle cx="80.25" cy="124.41" r="2.5" class="obs"/>
<line x1="96.55" y1="120.21" x2="104.95" y2="128.61" class="remap-x"/>
<line x1="96.55" y1="128.61" x2="104.95" y2="120.21" class="remap-x"/>
<line x1="81.99" y1="113.55" x2="81.99" y2="135.27" class="err"/>
<line x1="78.99" y1="113.55" x2="84.99" y2="113.55" class="err"/>
<line x1="78.99" y1="135.27" x2="84.99" y2="135.27" class="err"/>
<circle cx="81.99" cy="124.41" r="2.5" class="obs"/>
<line x1="97.91" y1="120.21" x2="106.31" y2="128.61" class="remap-x"/>
<line x1="97.91" y1="128.61" x2="106.31" y2="120.21" class="remap-x"/>
<line x1="83.67" y1="120.10" x2="83.67" y2="128.73" class="err"/>
<line x1="80.67" y1="120.10" x2="86.67" y2="120.10" class="err"/>
<line x1="80.67" y1="128.73" x2="86.67" y2="128.73" class="err"/>
<circle cx="83.67" cy="124.41" r="2.5" class="obs"/>
<line x1="99.31" y1="120.21" x2="107.71" y2="128.61" class="remap-x"/>
<line x1="99.31" y1="128.61" x2="107.71" y2="120.21" class="remap-x"/>
<line x1="85.41" y1="119.53" x2="85.41" y2="129.29" class="err"/>
<line x1="82.41" y1="119.53" x2="88.41" y2="119.53" class="err"/>
<line x1="82.41" y1="129.29" x2="88.41" y2="129.29" class="err"/>
<circle cx="85.41" cy="124.41" r="2.5" class="obs"/>
<line x1="100.67" y1="120.21" x2="109.07" y2="128.61" class="remap-x"/>
<line x1="100.67" y1="128.61" x2="109.07" y2="120.21" class="remap-x"/>
<line x1="87.09" y1="120.28" x2="87.09" y2="128.54" class="err"/>
<line x1="84.09" y1="120.28" x2="90.09" y2="120.28" class="err"/>
<line x1="84.09" y1="128.54" x2="90.09" y2="128.54" class="err"/>
<circle cx="87.09" cy="124.41" r="2.5" class="obs"/>
<line x1="102.08" y1="120.21" x2="110.48" y2="128.61" class="remap-x"/>
<line x1="102.08" y1="128.61" x2="110.48" y2="120.21" class="remap-x"/>
<line x1="88.83" y1="120.40" x2="88.83" y2="128.43" class="err"/>
<line x1="85.83" y1="120.40" x2="91.83" y2="120.40" class="err"/>
<line x1="85.83" y1="128.43" x2="91.83" y2="128.43" class="err"/>
<circle cx="88.83" cy="124.41" r="2.5" class="obs"/>
<line x1="103.50" y1="120.21" x2="111.90" y2="128.61" class="remap-x"/>
<line x1="103.50" y1="128.61" x2="111.90" y2="120.21" class="remap-x"/>
<line x1="90.56" y1="118.85" x2="90.56" y2="129.97" class="err"/>
<line x1="87.56" y1="118.85" x2="93.56" y2="118.85" class="err"/>
<line x1="87.56" y1="129.97" x2="93.56" y2="129.97" class="err"/>
<circle cx="90.56" cy="124.41" r="2.5" class="obs"/>
<line x1="104.87" y1="119.24" x2="113.27" y2="127.64" class="remap-x"/>
<line x1="104.87" y1="127.64" x2="113.27" y2="119.24" class="remap-x"/>
<line x1="92.24" y1="119.06" x2="92.24" y2="127.83" class="err"/>
<line x1="89.24" y1="119.06" x2="95.24" y2="119.06" class="err"/>
<line x1="89.24" y1="127.83" x2="95.24" y2="127.83" class="err"/>
<circle cx="92.24" cy="123.44" r="2.5" class="obs"/>
<line x1="106.29" y1="119.24" x2="114.69" y2="127.64" class="remap-x"/>
<line x1="106.29" y1="127.64" x2="114.69" y2="119.24" class="remap-x"/>
<line x1="93.98" y1="118.73" x2="93.98" y2="128.16" class="err"/>
<line x1="90.98" y1="118.73" x2="96.98" y2="118.73" class="err"/>
<line x1="90.98" y1="128.16" x2="96.98" y2="128.16" class="err"/>
<circle cx="93.98" cy="123.44" r="2.5" class="obs"/>
<line x1="107.67" y1="119.24" x2="116.07" y2="127.64" class="remap-x"/>
<line x1="107.67" y1="127.64" x2="116.07" y2="119.24" class="remap-x"/>
<line x1="95.66" y1="121.90" x2="95.66" y2="124.98" class="err"/>
<line x1="92.66" y1="121.90" x2="98.66" y2="121.90" class="err"/>
<line x1="92.66" y1="124.98" x2="98.66" y2="124.98" class="err"/>
<circle cx="95.66" cy="123.44" r="2.5" class="obs"/>
<line x1="109.09" y1="118.27" x2="117.49" y2="126.67" class="remap-x"/>
<line x1="109.09" y1="126.67" x2="117.49" y2="118.27" class="remap-x"/>
<line x1="97.40" y1="120.68" x2="97.40" y2="124.27" class="err"/>
<line x1="94.40" y1="120.68" x2="100.40" y2="120.68" class="err"/>
<line x1="94.40" y1="124.27" x2="100.40" y2="124.27" class="err"/>
<circle cx="97.40" cy="122.47" r="2.5" class="obs"/>
<line x1="110.47" y1="117.30" x2="118.87" y2="125.70" class="remap-x"/>
<line x1="110.47" y1="125.70" x2="118.87" y2="117.30" class="remap-x"/>
<line x1="99.08" y1="116.84" x2="99.08" y2="126.17" class="err"/>
<line x1="96.08" y1="116.84" x2="102.08" y2="116.84" class="err"/>
<line x1="96.08" y1="126.17" x2="102.08" y2="126.17" class="err"/>
<circle cx="99.08" cy="121.50" r="2.5" class="obs"/>
<line x1="111.91" y1="117.30" x2="120.31" y2="125.70" class="remap-x"/>
<line x1="111.91" y1="125.70" x2="120.31" y2="117.30" class="remap-x"/>
<line x1="100.82" y1="101.81" x2="100.82" y2="141.19" class="err"/>
<line x1="97.82" y1="101.81" x2="103.82" y2="101.81" class="err"/>
<line x1="97.82" y1="141.19" x2="103.82" y2="141.19" class="err"/>
<circle cx="100.82" cy="121.50" r="2.5" class="obs"/>
<line x1="113.30" y1="116.33" x2="121.70" y2="124.73" class="remap-x"/>
<line x1="113.30" y1="124.73" x2="121.70" y2="116.33" class="remap-x"/>
<line x1="102.50" y1="108.12" x2="102.50" y2="132.95" class="err"/>
<line x1="99.50" y1="108.12" x2="105.50" y2="108.12" class="err"/>
<line x1="99.50" y1="132.95" x2="105.50" y2="132.95" class="err"/>
<circle cx="102.50" cy="120.53" r="2.5" class="obs"/>
<line x1="114.73" y1="115.36" x2="123.13" y2="123.76" class="remap-x"/>
<line x1="114.73" y1="123.76" x2="123.13" y2="115.36" class="remap-x"/>
<line x1="104.23" y1="111.73" x2="104.23" y2="127.40" class="err"/>
<line x1="101.23" y1="111.73" x2="107.23" y2="111.73" class="err"/>
<line x1="101.23" y1="127.40" x2="107.23" y2="127.40" class="err"/>
<circle cx="104.23" cy="119.56" r="2.5" class="obs"/>
<line x1="116.13" y1="115.36" x2="124.53" y2="123.76" class="remap-x"/>
<line x1="116.13" y1="123.76" x2="124.53" y2="115.36" class="remap-x"/>
<line x1="105.92" y1="111.99" x2="105.92" y2="127.14" class="err"/>
<line x1="102.92" y1="111.99" x2="108.92" y2="111.99" class="err"/>
<line x1="102.92" y1="127.14" x2="108.92" y2="127.14" class="err"/>
<circle cx="105.92" cy="119.56" r="2.5" class="obs"/>
<line x1="117.57" y1="114.39" x2="125.97" y2="122.79" class="remap-x"/>
<line x1="117.57" y1="122.79" x2="125.97" y2="114.39" class="remap-x"/>
<line x1="107.65" y1="108.51" x2="107.65" y2="128.68" class="err"/>
<line x1="104.65" y1="108.51" x2="110.65" y2="108.51" class="err"/>
<line x1="104.65" y1="128.68" x2="110.65" y2="128.68" class="err"/>
<circle cx="107.65" cy="118.59" r="2.5" class="obs"/>
<line x1="120.42" y1="113.42" x2="128.82" y2="121.82" class="remap-x"/>
<line x1="120.42" y1="121.82" x2="128.82" y2="113.42" class="remap-x"/>
<line x1="111.07" y1="111.01" x2="111.07" y2="124.24" class="err"/>
<line x1="108.07" y1="111.01" x2="114.07" y2="111.01" class="err"/>
<line x1="108.07" y1="124.24" x2="114.07" y2="124.24" class="err"/>
<circle cx="111.07" cy="117.62" r="2.5" class="obs"/>
<line x1="121.87" y1="112.45" x2="130.27" y2="120.85" class="remap-x"/>
<line x1="121.87" y1="120.85" x2="130.27" y2="112.45" class="remap-x"/>
<line x1="112.81" y1="103.66" x2="112.81" y2="129.65" class="err"/>
<line x1="109.81" y1="103.66" x2="115.81" y2="103.66" class="err"/>
<line x1="109.81" y1="129.65" x2="115.81" y2="129.65" class="err"/>
<circle cx="112.81" cy="116.65" r="2.5" class="obs"/>
<line x1="123.28" y1="112.45" x2="131.68" y2="120.85" class="remap-x"/>
<line x1="123.28" y1="120.85" x2="131.68" y2="112.45" class="remap-x"/>
<line x1="114.49" y1="106.47" x2="114.49" y2="126.84" class="err"/>
<line x1="111.49" y1="106.47" x2="117.49" y2="106.47" class="err"/>
<line x1="111.49" y1="126.84" x2="117.49" y2="126.84" class="err"/>
<circle cx="114.49" cy="116.65" r="2.5" class="obs"/>
<line x1="123.78" y1="111.48" x2="132.18" y2="119.88" class="remap-x"/>
<line x1="123.78" y1="119.88" x2="132.18" y2="111.48" class="remap-x"/>
<line x1="115.08" y1="112.84" x2="115.08" y2="118.53" class="err"/>
<line x1="112.08" y1="112.84" x2="118.08" y2="112.84" class="err"/>
<line x1="112.08" y1="118.53" x2="118.08" y2="118.53" class="err"/>
<circle cx="115.08" cy="115.68" r="2.5" class="obs"/>
<line x1="124.74" y1="111.48" x2="133.14" y2="119.88" class="remap-x"/>
<line x1="124.74" y1="119.88" x2="133.14" y2="111.48" class="remap-x"/>
<line x1="116.22" y1="110.27" x2="116.22" y2="121.10" class="err"/>
<line x1="113.22" y1="110.27" x2="119.22" y2="110.27" class="err"/>
<line x1="113.22" y1="121.10" x2="119.22" y2="121.10" class="err"/>
<circle cx="116.22" cy="115.68" r="2.5" class="obs"/>
<line x1="126.15" y1="111.48" x2="134.55" y2="119.88" class="remap-x"/>
<line x1="126.15" y1="119.88" x2="134.55" y2="111.48" class="remap-x"/>
<line x1="117.91" y1="110.12" x2="117.91" y2="121.25" class="err"/>
<line x1="114.91" y1="110.12" x2="120.91" y2="110.12" class="err"/>
<line x1="114.91" y1="121.25" x2="120.91" y2="121.25" class="err"/>
<circle cx="117.91" cy="115.68" r="2.5" class="obs"/>
<line x1="127.62" y1="111.48" x2="136.02" y2="119.88" class="remap-x"/>
<line x1="127.62" y1="119.88" x2="136.02" y2="111.48" class="remap-x"/>
<line x1="119.64" y1="108.89" x2="119.64" y2="122.47" class="err"/>
<line x1="116.64" y1="108.89" x2="122.64" y2="108.89" class="err"/>
<line x1="116.64" y1="122.47" x2="122.64" y2="122.47" class="err"/>
<circle cx="119.64" cy="115.68" r="2.5" class="obs"/>
<line x1="130.51" y1="110.51" x2="138.91" y2="118.91" class="remap-x"/>
<line x1="130.51" y1="118.91" x2="138.91" y2="110.51" class="remap-x"/>
<line x1="123.06" y1="102.40" x2="123.06" y2="127.03" class="err"/>
<line x1="120.06" y1="102.40" x2="126.06" y2="102.40" class="err"/>
<line x1="120.06" y1="127.03" x2="126.06" y2="127.03" class="err"/>
<circle cx="123.06" cy="114.71" r="2.5" class="obs"/>
<line x1="131.98" y1="110.51" x2="140.38" y2="118.91" class="remap-x"/>
<line x1="131.98" y1="118.91" x2="140.38" y2="110.51" class="remap-x"/>
<line x1="124.80" y1="110.94" x2="124.80" y2="118.49" class="err"/>
<line x1="121.80" y1="110.94" x2="127.80" y2="110.94" class="err"/>
<line x1="121.80" y1="118.49" x2="127.80" y2="118.49" class="err"/>
<circle cx="124.80" cy="114.71" r="2.5" class="obs"/>
<line x1="136.32" y1="111.48" x2="144.72" y2="119.88" class="remap-x"/>
<line x1="136.32" y1="119.88" x2="144.72" y2="111.48" class="remap-x"/>
<line x1="129.90" y1="110.81" x2="129.90" y2="120.55" class="err"/>
<line x1="126.90" y1="110.81" x2="132.90" y2="110.81" class="err"/>
<line x1="126.90" y1="120.55" x2="132.90" y2="120.55" class="err"/>
<circle cx="129.90" cy="115.68" r="2.5" class="obs"/>
<line x1="137.81" y1="111.48" x2="146.21" y2="119.88" class="remap-x"/>
<line x1="137.81" y1="119.88" x2="146.21" y2="111.48" class="remap-x"/>
<line x1="131.63" y1="112.40" x2="131.63" y2="118.97" class="err"/>
<line x1="128.63" y1="112.40" x2="134.63" y2="112.40" class="err"/>
<line x1="128.63" y1="118.97" x2="134.63" y2="118.97" class="err"/>
<circle cx="131.63" cy="115.68" r="2.5" class="obs"/>
<line x1="139.25" y1="111.48" x2="147.65" y2="119.88" class="remap-x"/>
<line x1="139.25" y1="119.88" x2="147.65" y2="111.48" class="remap-x"/>
<line x1="133.31" y1="105.31" x2="133.31" y2="126.06" class="err"/>
<line x1="130.31" y1="105.31" x2="136.31" y2="105.31" class="err"/>
<line x1="130.31" y1="126.06" x2="136.31" y2="126.06" class="err"/>
<circle cx="133.31" cy="115.68" r="2.5" class="obs"/>
<line x1="148.14" y1="114.39" x2="156.54" y2="122.79" class="remap-x"/>
<line x1="148.14" y1="122.79" x2="156.54" y2="114.39" class="remap-x"/>
<line x1="143.62" y1="114.65" x2="143.62" y2="122.54" class="err"/>
<line x1="140.62" y1="114.65" x2="146.62" y2="114.65" class="err"/>
<line x1="140.62" y1="122.54" x2="146.62" y2="122.54" class="err"/>
<circle cx="143.62" cy="118.59" r="2.5" class="obs"/>
<line x1="149.60" y1="115.36" x2="158.00" y2="123.76" class="remap-x"/>
<line x1="149.60" y1="123.76" x2="158.00" y2="115.36" class="remap-x"/>
<line x1="145.30" y1="110.91" x2="145.30" y2="128.21" class="err"/>
<line x1="142.30" y1="110.91" x2="148.30" y2="110.91" class="err"/>
<line x1="142.30" y1="128.21" x2="148.30" y2="128.21" class="err"/>
<circle cx="145.30" cy="119.56" r="2.5" class="obs"/>
<line x1="151.11" y1="115.36" x2="159.51" y2="123.76" class="remap-x"/>
<line x1="151.11" y1="123.76" x2="159.51" y2="115.36" class="remap-x"/>
<line x1="147.04" y1="114.04" x2="147.04" y2="125.08" class="err"/>
<line x1="144.04" y1="114.04" x2="150.04" y2="114.04" class="err"/>
<line x1="144.04" y1="125.08" x2="150.04" y2="125.08" class="err"/>
<circle cx="147.04" cy="119.56" r="2.5" class="obs"/>
<line x1="162.59" y1="121.18" x2="170.99" y2="129.58" class="remap-x"/>
<line x1="162.59" y1="129.58" x2="170.99" y2="121.18" class="remap-x"/>
<line x1="160.11" y1="116.52" x2="160.11" y2="134.25" class="err"/>
<line x1="157.11" y1="116.52" x2="163.11" y2="116.52" class="err"/>
<line x1="157.11" y1="134.25" x2="163.11" y2="134.25" class="err"/>
<circle cx="160.11" cy="125.38" r="2.5" class="obs"/>
<line x1="175.85" y1="126.03" x2="184.25" y2="134.43" class="remap-x"/>
<line x1="175.85" y1="134.43" x2="184.25" y2="126.03" class="remap-x"/>
<line x1="174.98" y1="124.32" x2="174.98" y2="136.15" class="err"/>
<line x1="171.98" y1="124.32" x2="177.98" y2="124.32" class="err"/>
<line x1="171.98" y1="136.15" x2="177.98" y2="136.15" class="err"/>
<circle cx="174.98" cy="130.23" r="2.5" class="obs"/>
<line x1="189.83" y1="129.91" x2="198.23" y2="138.31" class="remap-x"/>
<line x1="189.83" y1="138.31" x2="198.23" y2="129.91" class="remap-x"/>
<line x1="190.39" y1="131.92" x2="190.39" y2="136.30" class="err"/>
<line x1="187.39" y1="131.92" x2="193.39" y2="131.92" class="err"/>
<line x1="187.39" y1="136.30" x2="193.39" y2="136.30" class="err"/>
<circle cx="190.39" cy="134.11" r="2.5" class="obs"/>
<line x1="203.48" y1="133.79" x2="211.88" y2="142.19" class="remap-x"/>
<line x1="203.48" y1="142.19" x2="211.88" y2="133.79" class="remap-x"/>
<line x1="205.20" y1="136.71" x2="205.20" y2="139.27" class="err"/>
<line x1="202.20" y1="136.71" x2="208.20" y2="136.71" class="err"/>
<line x1="202.20" y1="139.27" x2="208.20" y2="139.27" class="err"/>
<circle cx="205.20" cy="137.99" r="2.5" class="obs"/>
<line x1="217.41" y1="136.70" x2="225.81" y2="145.10" class="remap-x"/>
<line x1="217.41" y1="145.10" x2="225.81" y2="136.70" class="remap-x"/>
<line x1="220.07" y1="137.84" x2="220.07" y2="143.95" class="err"/>
<line x1="217.07" y1="137.84" x2="223.07" y2="137.84" class="err"/>
<line x1="217.07" y1="143.95" x2="223.07" y2="143.95" class="err"/>
<circle cx="220.07" cy="140.90" r="2.5" class="obs"/>
<line x1="232.08" y1="141.55" x2="240.48" y2="149.95" class="remap-x"/>
<line x1="232.08" y1="149.95" x2="240.48" y2="141.55" class="remap-x"/>
<line x1="235.47" y1="141.18" x2="235.47" y2="150.32" class="err"/>
<line x1="232.47" y1="141.18" x2="238.47" y2="141.18" class="err"/>
<line x1="232.47" y1="150.32" x2="238.47" y2="150.32" class="err"/>
<circle cx="235.47" cy="145.75" r="2.5" class="obs"/>
<line x1="246.41" y1="146.40" x2="254.81" y2="154.80" class="remap-x"/>
<line x1="246.41" y1="154.80" x2="254.81" y2="146.40" class="remap-x"/>
<line x1="250.28" y1="145.79" x2="250.28" y2="155.41" class="err"/>
<line x1="247.28" y1="145.79" x2="253.28" y2="145.79" class="err"/>
<line x1="247.28" y1="155.41" x2="253.28" y2="155.41" class="err"/>
<circle cx="250.28" cy="150.60" r="2.5" class="obs"/>
<line x1="260.95" y1="151.25" x2="269.35" y2="159.65" class="remap-x"/>
<line x1="260.95" y1="159.65" x2="269.35" y2="151.25" class="remap-x"/>
<line x1="265.10" y1="152.95" x2="265.10" y2="157.95" class="err"/>
<line x1="262.10" y1="152.95" x2="268.10" y2="152.95" class="err"/>
<line x1="262.10" y1="157.95" x2="268.10" y2="157.95" class="err"/>
<circle cx="265.10" cy="155.45" r="2.5" class="obs"/>
<line x1="280.50" y1="157.85" x2="280.50" y2="162.74" class="err"/>
<line x1="277.50" y1="157.85" x2="283.50" y2="157.85" class="err"/>
<line x1="277.50" y1="162.74" x2="283.50" y2="162.74" class="err"/>
<circle cx="280.50" cy="160.30" r="2.5" class="obs"/>
<line x1="295.37" y1="161.95" x2="295.37" y2="166.41" class="err"/>
<line x1="292.37" y1="161.95" x2="298.37" y2="161.95" class="err"/>
<line x1="292.37" y1="166.41" x2="298.37" y2="166.41" class="err"/>
<circle cx="295.37" cy="164.18" r="2.5" class="obs"/>
<line x1="310.18" y1="166.47" x2="310.18" y2="167.70" class="err"/>
<line x1="307.18" y1="166.47" x2="313.18" y2="166.47" class="err"/>
<line x1="307.18" y1="167.70" x2="313.18" y2="167.70" class="err"/>
<circle cx="310.18" cy="167.09" r="2.5" class="obs"/>
<line x1="325.59" y1="164.76" x2="325.59" y2="167.47" class="err"/>
<line x1="322.59" y1="164.76" x2="328.59" y2="164.76" class="err"/>
<line x1="322.59" y1="167.47" x2="328.59" y2="167.47" class="err"/>
<circle cx="325.59" cy="166.12" r="2.5" class="obs"/>
<line x1="340.40" y1="161.20" x2="340.40" y2="165.21" class="err"/>
<line x1="337.40" y1="161.20" x2="343.40" y2="161.20" class="err"/>
<line x1="337.40" y1="165.21" x2="343.40" y2="165.21" class="err"/>
<circle cx="340.40" cy="163.21" r="2.5" class="obs"/>
<line x1="355.26" y1="157.75" x2="355.26" y2="162.85" class="err"/>
<line x1="352.26" y1="157.75" x2="358.26" y2="157.75" class="err"/>
<line x1="352.26" y1="162.85" x2="358.26" y2="162.85" class="err"/>
<circle cx="355.26" cy="160.30" r="2.5" class="obs"/>
<line x1="370.67" y1="155.80" x2="370.67" y2="158.98" class="err"/>
<line x1="367.67" y1="155.80" x2="373.67" y2="155.80" class="err"/>
<line x1="367.67" y1="158.98" x2="373.67" y2="158.98" class="err"/>
<circle cx="370.67" cy="157.39" r="2.5" class="obs"/>
<line x1="385.48" y1="154.18" x2="385.48" y2="156.72" class="err"/>
<line x1="382.48" y1="154.18" x2="388.48" y2="154.18" class="err"/>
<line x1="382.48" y1="156.72" x2="388.48" y2="156.72" class="err"/>
<circle cx="385.48" cy="155.45" r="2.5" class="obs"/>
<line x1="400.35" y1="154.34" x2="400.35" y2="158.49" class="err"/>
<line x1="397.35" y1="154.34" x2="403.35" y2="154.34" class="err"/>
<line x1="397.35" y1="158.49" x2="403.35" y2="158.49" class="err"/>
<circle cx="400.35" cy="156.42" r="2.5" class="obs"/>
<line x1="415.16" y1="155.45" x2="415.16" y2="163.21" class="err"/>
<line x1="412.16" y1="155.45" x2="418.16" y2="155.45" class="err"/>
<line x1="412.16" y1="163.21" x2="418.16" y2="163.21" class="err"/>
<circle cx="415.16" cy="159.33" r="2.5" class="obs"/>
<line x1="430.57" y1="158.68" x2="430.57" y2="167.74" class="err"/>
<line x1="427.57" y1="158.68" x2="433.57" y2="158.68" class="err"/>
<line x1="427.57" y1="167.74" x2="433.57" y2="167.74" class="err"/>
<circle cx="430.57" cy="163.21" r="2.5" class="obs"/>
<line x1="445.38" y1="163.09" x2="445.38" y2="173.02" class="err"/>
<line x1="442.38" y1="163.09" x2="448.38" y2="163.09" class="err"/>
<line x1="442.38" y1="173.02" x2="448.38" y2="173.02" class="err"/>
<circle cx="445.38" cy="168.06" r="2.5" class="obs"/>
<line x1="460.25" y1="169.90" x2="460.25" y2="173.97" class="err"/>
<line x1="457.25" y1="169.90" x2="463.25" y2="169.90" class="err"/>
<line x1="457.25" y1="173.97" x2="463.25" y2="173.97" class="err"/>
<circle cx="460.25" cy="171.93" r="2.5" class="obs"/>
<line x1="475.65" y1="172.59" x2="475.65" y2="175.15" class="err"/>
<line x1="472.65" y1="172.59" x2="478.65" y2="172.59" class="err"/>
<line x1="472.65" y1="175.15" x2="478.65" y2="175.15" class="err"/>
<circle cx="475.65" cy="173.87" r="2.5" class="obs"/>
<line x1="490.46" y1="172.32" x2="490.46" y2="175.43" class="err"/>
<line x1="487.46" y1="172.32" x2="493.46" y2="172.32" class="err"/>
<line x1="487.46" y1="175.43" x2="493.46" y2="175.43" class="err"/>
<circle cx="490.46" cy="173.87" r="2.5" class="obs"/>
<line x1="505.28" y1="171.78" x2="505.28" y2="177.91" class="err"/>
<line x1="502.28" y1="171.78" x2="508.28" y2="171.78" class="err"/>
<line x1="502.28" y1="177.91" x2="508.28" y2="177.91" class="err"/>
<circle cx="505.28" cy="174.84" r="2.5" class="obs"/>
<line x1="520.68" y1="172.44" x2="520.68" y2="179.19" class="err"/>
<line x1="517.68" y1="172.44" x2="523.68" y2="172.44" class="err"/>
<line x1="517.68" y1="179.19" x2="523.68" y2="179.19" class="err"/>
<circle cx="520.68" cy="175.81" r="2.5" class="obs"/>
<line x1="535.55" y1="174.16" x2="535.55" y2="181.35" class="err"/>
<line x1="532.55" y1="174.16" x2="538.55" y2="174.16" class="err"/>
<line x1="532.55" y1="181.35" x2="538.55" y2="181.35" class="err"/>
<circle cx="535.55" cy="177.75" r="2.5" class="obs"/>
<line x1="550.36" y1="178.25" x2="550.36" y2="181.14" class="err"/>
<line x1="547.36" y1="178.25" x2="553.36" y2="178.25" class="err"/>
<line x1="547.36" y1="181.14" x2="553.36" y2="181.14" class="err"/>
<circle cx="550.36" cy="179.69" r="2.5" class="obs"/>
<line x1="565.77" y1="178.55" x2="565.77" y2="180.84" class="err"/>
<line x1="562.77" y1="178.55" x2="568.77" y2="178.55" class="err"/>
<line x1="562.77" y1="180.84" x2="568.77" y2="180.84" class="err"/>
<circle cx="565.77" cy="179.69" r="2.5" class="obs"/>
<line x1="580.63" y1="176.57" x2="580.63" y2="178.94" class="err"/>
<line x1="577.63" y1="176.57" x2="583.63" y2="176.57" class="err"/>
<line x1="577.63" y1="178.94" x2="583.63" y2="178.94" class="err"/>
<circle cx="580.63" cy="177.75" r="2.5" class="obs"/>
<line x1="610.85" y1="172.13" x2="610.85" y2="177.56" class="err"/>
<line x1="607.85" y1="172.13" x2="613.85" y2="172.13" class="err"/>
<line x1="607.85" y1="177.56" x2="613.85" y2="177.56" class="err"/>
<circle cx="610.85" cy="174.84" r="2.5" class="obs"/>
<line x1="657.62" y1="168.91" x2="657.62" y2="176.90" class="err"/>
<line x1="654.62" y1="168.91" x2="660.62" y2="168.91" class="err"/>
<line x1="654.62" y1="176.90" x2="660.62" y2="176.90" class="err"/>
<circle cx="657.62" cy="172.90" r="2.5" class="obs"/>
<g class="legend">
<line x1="82" y1="69" x2="106" y2="69" class="fw"/>
<text x="112" y="73" class="lbl-l">framework: 4.5 km/s, 1.8%, 2.21σ</text>
<line x1="82" y1="87" x2="106" y2="87" class="nt"/>
<text x="112" y="91" class="lbl-l">Newtonian: 111.1 km/s, 39.8%, 27.07σ</text>
<line x1="82" y1="105" x2="106" y2="105" class="mond"/>
<text x="112" y="109" class="lbl-m">MOND/RAR: 21.2 km/s, 8.2%, 8.26σ</text>
<circle cx="94" cy="123" r="2.5" class="obs"/>
<text x="112" y="127" class="lbl">observed V±err</text>
</g>
<g class="legend">
<line x1="472" y1="69" x2="496" y2="69" class="rho"/>
<text x="502" y="73" class="lbl-r">ρ(r) raw</text>
<line x1="472" y1="87" x2="496" y2="87" class="phot"/>
<text x="502" y="91" class="lbl-p">photometric baryonic profile</text>
<line x1="472" y1="105" x2="496" y2="105" class="mbar"/>
<text x="502" y="109" class="lbl-m">MOND baryonic annulus</text>
<line x1="472" y1="123" x2="496" y2="123" class="mph"/>
<text x="502" y="127" class="lbl-m">MOND phantom annulus</text>
<text x="472" y="147" class="lbl-r">ρ peak: 663 M☉/pc²</text>
<text x="472" y="163" class="lbl-p">phot peak: 14580.49 (arb.)</text>
<text x="472" y="179" class="lbl-m">Σbar peak: 6465.10 M☉/pc²</text>
<text x="472" y="195" class="lbl-m">Σphantom peak: 189.02 M☉/pc²</text>
<line x1="90.00" y1="137.00" x2="98.00" y2="145.00" class="remap-x"/>
<line x1="90.00" y1="145.00" x2="98.00" y2="137.00" class="remap-x"/>
<text x="112" y="145" class="lbl">red X = remapped comparison radius</text>
</g>
<rect x="775" y="55" width="170" height="170" class="preview-bg"/>
<defs><radialGradient id="g_UGC09133" cx="0.5" cy="0.5" r="0.5">
  <stop offset="0.0000" stop-color="rgb(218,218,218)"/>
  <stop offset="0.0313" stop-color="rgb(80,80,80)"/>
  <stop offset="0.0625" stop-color="rgb(76,76,76)"/>
  <stop offset="0.0938" stop-color="rgb(71,71,71)"/>
  <stop offset="0.1250" stop-color="rgb(67,67,67)"/>
  <stop offset="0.1563" stop-color="rgb(62,62,62)"/>
  <stop offset="0.1875" stop-color="rgb(60,60,60)"/>
  <stop offset="0.2188" stop-color="rgb(57,57,57)"/>
  <stop offset="0.2500" stop-color="rgb(55,55,55)"/>
  <stop offset="0.2813" stop-color="rgb(52,52,52)"/>
  <stop offset="0.3125" stop-color="rgb(50,50,50)"/>
  <stop offset="0.3438" stop-color="rgb(49,49,49)"/>
  <stop offset="0.3750" stop-color="rgb(48,48,48)"/>
  <stop offset="0.4063" stop-color="rgb(46,46,46)"/>
  <stop offset="0.4375" stop-color="rgb(45,45,45)"/>
  <stop offset="0.4688" stop-color="rgb(44,44,44)"/>
  <stop offset="0.5000" stop-color="rgb(42,42,42)"/>
  <stop offset="0.5313" stop-color="rgb(41,41,41)"/>
  <stop offset="0.5625" stop-color="rgb(40,40,40)"/>
  <stop offset="0.5938" stop-color="rgb(38,38,38)"/>
  <stop offset="0.6250" stop-color="rgb(37,37,37)"/>
  <stop offset="0.6563" stop-color="rgb(36,36,36)"/>
  <stop offset="0.6875" stop-color="rgb(35,35,35)"/>
  <stop offset="0.7188" stop-color="rgb(33,33,33)"/>
  <stop offset="0.7500" stop-color="rgb(32,32,32)"/>
  <stop offset="0.7813" stop-color="rgb(31,31,31)"/>
  <stop offset="0.8125" stop-color="rgb(29,29,29)"/>
  <stop offset="0.8438" stop-color="rgb(28,28,28)"/>
  <stop offset="0.8750" stop-color="rgb(27,27,27)"/>
  <stop offset="0.9063" stop-color="rgb(25,25,25)"/>
  <stop offset="0.9375" stop-color="rgb(24,24,24)"/>
  <stop offset="0.9688" stop-color="rgb(23,23,23)"/>
  <stop offset="1.0000" stop-color="rgb(0,0,0)"/>
</radialGradient></defs>
<circle cx="860" cy="140" r="81" fill="url(#g_UGC09133)"/>
<text x="860" y="49" text-anchor="middle" class="preview-lbl">face-on luminance from ρ(r)</text>
<text x="860" y="239" text-anchor="middle" class="preview-lbl">edge at r = 108.3 kpc</text>
</svg>