<svg xmlns="http://www.w3.org/2000/svg" viewBox="0 0 960 450" width="960" height="450" font-family="sans-serif" font-size="12">
<style>
  .ax { stroke: #333; stroke-width: 1; fill: none; }
  .grid { stroke: #ddd; stroke-width: 0.5; fill: none; }
  .lbl { fill: #333; }
  .lbl-l { fill: #0066cc; }
  .lbl-r { fill: #b03030; }
  .obs { fill: #222; }
  .err { stroke: #555; stroke-width: 0.8; fill: none; }
  .fw { stroke: #0066cc; stroke-width: 2.2; fill: none; }
  .nt { stroke: #cc6600; stroke-width: 1.6; fill: none; stroke-dasharray: 5,3; }
  .mond { stroke: #7b2cbf; stroke-width: 1.8; fill: none; stroke-dasharray: 7,3; }
  .lbl-p { fill: #cc7000; }
  .lbl-m { fill: #7b2cbf; }
  .rho { stroke: #b03030; stroke-width: 2.0; fill: none; }
  .phot { stroke: #cc7000; stroke-width: 1.8; fill: none; }
  .mbar { stroke: #8e44ad; stroke-width: 1.8; fill: none; opacity: 0.9; }
  .mph { stroke: #c77dff; stroke-width: 1.6; fill: none; stroke-dasharray: 4,3; opacity: 0.95; }
  .title { fill: #111; font-size: 16px; font-weight: 600; }
  .subtitle { fill: #555; font-size: 11px; }
  .preview-bg { fill: #000; }
  .preview-lbl { fill: #888; font-size: 10px; }
  .legend { font-size: 11px; }
</style>
<text x="378.5" y="22" text-anchor="middle" class="title">UGC06983</text>
<text x="378.5" y="38" text-anchor="middle" class="subtitle">rMax=15.7 kpc, N=17, FW=1.3 km/s, 1.5%, 0.26σ, MOND=9.2 km/s, 9.8%, 1.90σ, amp=105</text>
<line x1="70" y1="395.0" x2="687" y2="395.0" class="grid"/>
<text x="64" y="399.0" text-anchor="end" class="lbl-l">0</text>
<line x1="70" y1="327.0" x2="687" y2="327.0" class="grid"/>
<text x="64" y="331.0" text-anchor="end" class="lbl-l">27</text>
<line x1="70" y1="259.0" x2="687" y2="259.0" class="grid"/>
<text x="64" y="263.0" text-anchor="end" class="lbl-l">54</text>
<line x1="70" y1="191.0" x2="687" y2="191.0" class="grid"/>
<text x="64" y="195.0" text-anchor="end" class="lbl-l">80</text>
<line x1="70" y1="123.0" x2="687" y2="123.0" class="grid"/>
<text x="64" y="127.0" text-anchor="end" class="lbl-l">107</text>
<line x1="70" y1="55.0" x2="687" y2="55.0" class="grid"/>
<text x="64" y="59.0" text-anchor="end" class="lbl-l">134</text>
<text x="693" y="399.0" text-anchor="start" class="lbl-r">0.0</text>
<text x="693" y="353.7" text-anchor="start" class="lbl-r">0.2</text>
<text x="693" y="308.3" text-anchor="start" class="lbl-r">0.4</text>
<text x="693" y="263.0" text-anchor="start" class="lbl-r">0.6</text>
<text x="693" y="217.7" text-anchor="start" class="lbl-r">0.8</text>
<text x="693" y="172.3" text-anchor="start" class="lbl-r">1.0</text>
<line x1="70.0" y1="55" x2="70.0" y2="395" class="grid"/>
<text x="70.0" y="411" text-anchor="middle" class="lbl">0.0</text>
<line x1="172.8" y1="55" x2="172.8" y2="395" class="grid"/>
<text x="172.8" y="411" text-anchor="middle" class="lbl">2.8</text>
<line x1="275.7" y1="55" x2="275.7" y2="395" class="grid"/>
<text x="275.7" y="411" text-anchor="middle" class="lbl">5.7</text>
<line x1="378.5" y1="55" x2="378.5" y2="395" class="grid"/>
<text x="378.5" y="411" text-anchor="middle" class="lbl">8.5</text>
<line x1="481.3" y1="55" x2="481.3" y2="395" class="grid"/>
<text x="481.3" y="411" text-anchor="middle" class="lbl">11.4</text>
<line x1="584.2" y1="55" x2="584.2" y2="395" class="grid"/>
<text x="584.2" y="411" text-anchor="middle" class="lbl">14.2</text>
<line x1="687.0" y1="55" x2="687.0" y2="395" class="grid"/>
<text x="687.0" y="411" text-anchor="middle" class="lbl">17.1</text>
<text x="378.5" y="438" text-anchor="middle" class="lbl">radius (kpc)</text>
<text x="16" y="225" text-anchor="middle" class="lbl-l" transform="rotate(-90, 16, 225)">velocity (km/s)</text>
<text x="724" y="225" text-anchor="middle" class="lbl-r" transform="rotate(-90, 724, 225)">profiles (normalized to peak)</text>
<rect x="70" y="55" width="617" height="340" class="ax"/>
<path d="M 70.0,168.3 L 72.8,168.3 L 75.6,168.3 L 78.5,168.3 L 81.3,168.3 L 84.1,168.3 L 86.9,168.3 L 89.7,168.3 L 92.5,168.3 L 95.4,168.3 L 98.2,168.3 L 101.0,168.3 L 103.8,168.3 L 106.6,168.3 L 109.4,168.3 L 112.3,168.3 L 115.1,168.3 L 117.9,168.3 L 120.7,168.3 L 123.5,168.3 L 126.3,168.3 L 129.2,168.3 L 132.0,168.3 L 134.8,168.3 L 137.6,168.3 L 140.4,168.3 L 143.3,168.3 L 146.1,168.3 L 148.9,168.3 L 151.7,168.3 L 154.5,168.3 L 157.3,173.2 L 160.2,183.3 L 163.0,193.5 L 165.8,203.6 L 168.6,213.8 L 171.4,223.9 L 174.2,227.5 L 177.1,231.1 L 179.9,234.6 L 182.7,238.2 L 185.5,240.7 L 188.3,241.3 L 191.1,241.9 L 194.0,242.5 L 196.8,243.2 L 199.6,243.8 L 202.4,244.4 L 205.2,245.0 L 208.1,245.7 L 210.9,246.3 L 213.7,246.9 L 216.5,247.5 L 219.3,248.2 L 222.1,248.8 L 225.0,249.4 L 227.8,250.0 L 230.6,250.7 L 233.4,251.3 L 236.2,251.9 L 239.0,252.5 L 241.9,253.2 L 244.7,253.8 L 247.5,254.4 L 250.3,255.0 L 253.1,255.7 L 255.9,256.3 L 258.8,256.9 L 261.6,257.5 L 264.4,258.2 L 267.2,258.8 L 270.0,259.4 L 272.8,260.0 L 275.7,260.7 L 278.5,261.3 L 281.3,261.9 L 284.1,262.5 L 286.9,263.2 L 289.8,263.8 L 292.6,264.4 L 295.4,265.0 L 298.2,265.7 L 301.0,266.3 L 303.8,266.9 L 306.7,267.5 L 309.5,268.2 L 312.3,268.8 L 315.1,269.4 L 317.9,270.0 L 320.7,270.7 L 323.6,271.3 L 326.4,271.9 L 329.2,272.5 L 332.0,273.1 L 334.8,273.8 L 337.6,274.4 L 340.5,275.0 L 343.3,275.6 L 346.1,276.3 L 348.9,276.9 L 351.7,277.5 L 354.6,278.1 L 357.4,278.8 L 360.2,279.4 L 363.0,280.0 L 365.8,280.6 L 368.6,281.3 L 371.5,281.9 L 374.3,282.5 L 377.1,283.1 L 379.9,283.8 L 382.7,284.4 L 385.5,285.0 L 388.4,285.6 L 391.2,286.3 L 394.0,286.9 L 396.8,287.5 L 399.6,288.1 L 402.4,288.8 L 405.3,289.4 L 408.1,290.0 L 410.9,290.6 L 413.7,291.3 L 416.5,291.9 L 419.4,292.5 L 422.2,293.1 L 425.0,293.8 L 427.8,294.4 L 430.6,295.0 L 433.4,295.6 L 436.3,296.3 L 439.1,296.9 L 441.9,297.5 L 444.7,298.1 L 447.5,298.8 L 450.3,299.4 L 453.2,300.0 L 456.0,300.6 L 458.8,301.3 L 461.6,301.9 L 464.4,302.5 L 467.2,303.1 L 470.1,303.8 L 472.9,304.4 L 475.7,305.0 L 478.5,305.6 L 481.3,306.2 L 484.2,306.9 L 487.0,307.5 L 489.8,308.1 L 492.6,308.7 L 495.4,309.4 L 498.2,310.0 L 501.1,310.6 L 503.9,311.2 L 506.7,311.9 L 509.5,312.5 L 512.3,313.1 L 515.1,313.7 L 518.0,314.4 L 520.8,315.0 L 523.6,315.6 L 526.4,316.2 L 529.2,316.9 L 532.0,317.5 L 534.9,318.1 L 537.7,318.7 L 540.5,319.4 L 543.3,320.0 L 546.1,320.6 L 548.9,321.2 L 551.8,321.9 L 554.6,322.5 L 557.4,323.1 L 560.2,323.7 L 563.0,324.4 L 565.9,325.0 L 568.7,325.6 L 571.5,326.2 L 574.3,326.9 L 577.1,327.5 L 579.9,328.1 L 582.8,328.7 L 585.6,329.4 L 588.4,330.0 L 591.2,330.6 L 594.0,331.2 L 596.8,331.9 L 599.7,332.5 L 602.5,333.1 L 605.3,333.7 L 608.1,334.4 L 610.9,335.0 L 613.7,335.6 L 616.6,336.2 L 619.4,336.9 L 622.2,337.5 L 625.0,338.1 L 627.8,338.7 L 630.7,339.3 L 633.5,340.0 L 636.3,344.1 L 639.1,350.8 L 641.9,357.5 L 644.7,364.3 L 647.6,371.0 L 650.4,377.7 L 653.2,384.4 L 656.0,391.2 L 658.8,395.0 L 661.6,395.0 L 664.5,395.0 L 667.3,395.0 L 670.1,395.0 L 672.9,395.0 L 675.7,395.0 L 678.5,395.0 L 681.4,395.0 L 684.2,395.0 L 687.0,395.0" class="rho"/>
<path d="M 132.9,168.3 L 164.4,287.7 L 196.6,338.8 L 228.1,355.1 L 259.6,368.2 L 291.0,371.5 L 322.5,377.1 L 354.0,381.8 L 385.5,386.2 L 417.3,388.8 L 448.8,390.7 L 480.6,392.5 L 511.0,393.7 L 544.6,395.0 L 574.3,395.0 L 607.6,395.0 L 637.2,395.0" class="phot"/>
<path d="M 132.9,168.3 L 164.4,236.5 L 196.6,309.5 L 228.1,335.0 L 259.6,335.4 L 291.0,337.2 L 322.5,327.8 L 354.0,327.8 L 385.5,349.2 L 417.3,353.4 L 448.8,343.2 L 480.6,349.3 L 511.0,361.9 L 544.6,370.0 L 574.3,379.1 L 607.6,386.5 L 637.2,389.5" class="mbar"/>
<path d="M 132.9,168.3 L 164.4,197.0 L 196.6,233.6 L 228.1,251.9 L 259.6,257.4 L 291.0,261.1 L 322.5,254.8 L 354.0,255.7 L 385.5,273.9 L 417.3,278.0 L 448.8,269.9 L 480.6,276.2 L 511.0,288.8 L 544.6,298.0 L 574.3,309.4 L 607.6,319.7 L 637.2,325.0" class="mph"/>
<path d="M 76.2,345.9 L 82.3,325.6 L 88.5,310.0 L 94.7,296.9 L 100.8,285.3 L 107.0,274.8 L 113.2,265.2 L 119.4,256.2 L 125.5,247.8 L 131.7,239.9 L 137.9,232.3 L 144.0,225.1 L 150.2,218.1 L 156.4,211.4 L 162.6,205.7 L 168.7,201.2 L 174.9,197.8 L 181.1,194.8 L 187.2,192.1 L 193.4,189.3 L 199.6,186.6 L 205.7,183.8 L 211.9,181.1 L 218.1,178.4 L 224.3,175.7 L 230.4,173.1 L 236.6,170.4 L 242.8,167.9 L 248.9,165.3 L 255.1,162.8 L 261.3,160.4 L 267.4,157.9 L 273.6,155.6 L 279.8,153.2 L 286.0,151.0 L 292.1,148.7 L 298.3,146.5 L 304.5,144.4 L 310.6,142.3 L 316.8,140.2 L 323.0,138.2 L 329.1,136.2 L 335.3,134.3 L 341.5,132.4 L 347.7,130.6 L 353.8,128.8 L 360.0,127.0 L 366.2,125.3 L 372.3,123.7 L 378.5,122.0 L 384.7,120.5 L 390.8,118.9 L 397.0,117.4 L 403.2,115.9 L 409.4,114.5 L 415.5,113.1 L 421.7,111.7 L 427.9,110.4 L 434.0,109.1 L 440.2,107.9 L 446.4,106.7 L 452.5,105.5 L 458.7,104.4 L 464.9,103.3 L 471.0,102.2 L 477.2,101.2 L 483.4,100.2 L 489.6,99.2 L 495.7,98.3 L 501.9,97.4 L 508.1,96.5 L 514.2,95.7 L 520.4,94.9 L 526.6,94.1 L 532.8,93.4 L 538.9,92.7 L 545.1,92.1 L 551.3,91.4 L 557.4,90.8 L 563.6,90.3 L 569.8,89.7 L 575.9,89.2 L 582.1,88.7 L 588.3,88.3 L 594.4,87.9 L 600.6,87.5 L 606.8,87.2 L 613.0,86.8 L 619.1,86.6 L 625.3,86.3 L 631.5,86.1 L 637.6,85.9 L 643.8,86.2 L 650.0,87.0 L 656.2,88.2 L 662.3,89.8 L 668.5,91.4 L 674.7,93.0 L 680.8,94.5 L 687.0,96.0" class="nt"/>
<path d="M 132.9,231.5 L 164.4,207.6 L 196.6,200.1 L 228.1,192.5 L 259.6,180.7 L 291.0,173.1 L 322.5,160.6 L 354.0,145.7 L 385.5,141.2 L 417.3,135.4 L 448.8,124.4 L 480.6,116.8 L 511.0,112.6 L 544.6,107.8 L 574.3,106.2 L 607.6,105.4 L 637.2,105.2" class="mond"/>
<path d="M 75.1,381.8 L 80.3,371.4 L 85.4,359.8 L 90.6,348.0 L 95.7,336.1 L 100.8,324.1 L 106.0,311.9 L 111.1,299.6 L 116.3,287.0 L 121.4,274.2 L 126.6,261.1 L 131.7,247.8 L 136.8,234.3 L 142.0,220.9 L 147.1,207.7 L 152.3,195.4 L 157.4,184.3 L 162.6,175.1 L 167.7,168.0 L 172.8,163.0 L 178.0,160.0 L 183.1,158.4 L 188.3,157.9 L 193.4,157.9 L 198.5,158.1 L 203.7,158.4 L 208.8,158.4 L 214.0,158.4 L 219.1,158.1 L 224.3,157.7 L 229.4,157.0 L 234.5,156.3 L 239.7,155.3 L 244.8,154.3 L 250.0,153.2 L 255.1,152.0 L 260.2,150.8 L 265.4,149.5 L 270.5,148.2 L 275.7,146.8 L 280.8,145.4 L 286.0,144.0 L 291.1,142.7 L 296.2,141.3 L 301.4,139.9 L 306.5,138.5 L 311.7,137.2 L 316.8,135.8 L 321.9,134.5 L 327.1,133.3 L 332.2,132.0 L 337.4,130.8 L 342.5,129.6 L 347.6,128.5 L 352.8,127.3 L 357.9,126.3 L 363.1,125.2 L 368.2,124.3 L 373.4,123.3 L 378.5,122.4 L 383.6,121.5 L 388.8,120.7 L 393.9,119.9 L 399.1,119.2 L 404.2,118.5 L 409.4,117.9 L 414.5,117.3 L 419.6,116.8 L 424.8,116.3 L 429.9,115.8 L 435.1,115.4 L 440.2,115.1 L 445.3,114.8 L 450.5,114.5 L 455.6,114.3 L 460.8,114.1 L 465.9,114.0 L 471.1,113.9 L 476.2,113.9 L 481.3,113.9 L 486.5,113.9 L 491.6,114.0 L 496.8,114.1 L 501.9,114.3 L 507.0,114.5 L 512.2,114.7 L 517.3,115.0 L 522.5,115.3 L 527.6,115.6 L 532.8,116.0 L 537.9,116.4 L 543.0,116.8 L 548.2,117.2 L 553.3,117.6 L 558.5,118.0 L 563.6,118.4 L 568.7,118.8 L 573.9,119.1 L 579.0,119.4 L 584.2,119.7 L 589.3,119.9 L 594.4,120.0 L 599.6,120.0 L 604.7,119.9 L 609.9,119.7 L 615.0,119.5 L 620.2,119.3 L 625.3,119.3 L 630.4,119.8 L 635.6,121.0 L 640.7,123.2 L 645.9,126.4 L 651.0,130.5 L 656.2,135.5 L 661.3,141.0 L 666.4,146.7 L 671.6,152.5 L 676.7,158.0 L 681.9,163.3 L 687.0,168.4" class="fw"/>
<line x1="132.95" y1="234.03" x2="132.95" y2="267.49" class="err"/>
<line x1="129.95" y1="234.03" x2="135.95" y2="234.03" class="err"/>
<line x1="129.95" y1="267.49" x2="135.95" y2="267.49" class="err"/>
<circle cx="132.95" cy="250.76" r="2.5" class="obs"/>
<line x1="164.42" y1="161.28" x2="164.42" y2="185.62" class="err"/>
<line x1="161.42" y1="161.28" x2="167.42" y2="161.28" class="err"/>
<line x1="161.42" y1="185.62" x2="167.42" y2="185.62" class="err"/>
<circle cx="164.42" cy="173.45" r="2.5" class="obs"/>
<line x1="196.62" y1="147.09" x2="196.62" y2="175.98" class="err"/>
<line x1="193.62" y1="147.09" x2="199.62" y2="147.09" class="err"/>
<line x1="193.62" y1="175.98" x2="199.62" y2="175.98" class="err"/>
<circle cx="196.62" cy="161.53" r="2.5" class="obs"/>
<line x1="228.09" y1="144.80" x2="228.09" y2="171.17" class="err"/>
<line x1="225.09" y1="144.80" x2="231.09" y2="144.80" class="err"/>
<line x1="225.09" y1="171.17" x2="231.09" y2="171.17" class="err"/>
<circle cx="228.09" cy="157.99" r="2.5" class="obs"/>
<line x1="259.56" y1="134.92" x2="259.56" y2="157.22" class="err"/>
<line x1="256.56" y1="134.92" x2="262.56" y2="134.92" class="err"/>
<line x1="256.56" y1="157.22" x2="262.56" y2="157.22" class="err"/>
<circle cx="259.56" cy="146.07" r="2.5" class="obs"/>
<line x1="291.04" y1="131.12" x2="291.04" y2="153.42" class="err"/>
<line x1="288.04" y1="131.12" x2="294.04" y2="131.12" class="err"/>
<line x1="288.04" y1="153.42" x2="294.04" y2="153.42" class="err"/>
<circle cx="291.04" cy="142.27" r="2.5" class="obs"/>
<line x1="322.51" y1="127.57" x2="322.51" y2="145.31" class="err"/>
<line x1="319.51" y1="127.57" x2="325.51" y2="127.57" class="err"/>
<line x1="319.51" y1="145.31" x2="325.51" y2="145.31" class="err"/>
<circle cx="322.51" cy="136.44" r="2.5" class="obs"/>
<line x1="353.98" y1="112.61" x2="353.98" y2="134.92" class="err"/>
<line x1="350.98" y1="112.61" x2="356.98" y2="112.61" class="err"/>
<line x1="350.98" y1="134.92" x2="356.98" y2="134.92" class="err"/>
<circle cx="353.98" cy="123.76" r="2.5" class="obs"/>
<line x1="385.46" y1="110.08" x2="385.46" y2="132.38" class="err"/>
<line x1="382.46" y1="110.08" x2="388.46" y2="110.08" class="err"/>
<line x1="382.46" y1="132.38" x2="388.46" y2="132.38" class="err"/>
<circle cx="385.46" cy="121.23" r="2.5" class="obs"/>
<line x1="417.29" y1="105.01" x2="417.29" y2="127.31" class="err"/>
<line x1="414.29" y1="105.01" x2="420.29" y2="105.01" class="err"/>
<line x1="414.29" y1="127.31" x2="420.29" y2="127.31" class="err"/>
<circle cx="417.29" cy="116.16" r="2.5" class="obs"/>
<line x1="448.77" y1="97.40" x2="448.77" y2="119.71" class="err"/>
<line x1="445.77" y1="97.40" x2="451.77" y2="97.40" class="err"/>
<line x1="445.77" y1="119.71" x2="451.77" y2="119.71" class="err"/>
<circle cx="448.77" cy="108.55" r="2.5" class="obs"/>
<line x1="480.60" y1="102.98" x2="480.60" y2="129.34" class="err"/>
<line x1="477.60" y1="102.98" x2="483.60" y2="102.98" class="err"/>
<line x1="477.60" y1="129.34" x2="483.60" y2="129.34" class="err"/>
<circle cx="480.60" cy="116.16" r="2.5" class="obs"/>
<line x1="510.99" y1="106.78" x2="510.99" y2="135.68" class="err"/>
<line x1="507.99" y1="106.78" x2="513.99" y2="106.78" class="err"/>
<line x1="507.99" y1="135.68" x2="513.99" y2="135.68" class="err"/>
<circle cx="510.99" cy="121.23" r="2.5" class="obs"/>
<line x1="544.63" y1="96.89" x2="544.63" y2="140.49" class="err"/>
<line x1="541.63" y1="96.89" x2="547.63" y2="96.89" class="err"/>
<line x1="541.63" y1="140.49" x2="547.63" y2="140.49" class="err"/>
<circle cx="544.63" cy="118.69" r="2.5" class="obs"/>
<line x1="574.30" y1="96.39" x2="574.30" y2="146.07" class="err"/>
<line x1="571.30" y1="96.39" x2="577.30" y2="96.39" class="err"/>
<line x1="571.30" y1="146.07" x2="577.30" y2="146.07" class="err"/>
<circle cx="574.30" cy="121.23" r="2.5" class="obs"/>
<line x1="607.58" y1="96.39" x2="607.58" y2="146.07" class="err"/>
<line x1="604.58" y1="96.39" x2="610.58" y2="96.39" class="err"/>
<line x1="604.58" y1="146.07" x2="610.58" y2="146.07" class="err"/>
<circle cx="607.58" cy="121.23" r="2.5" class="obs"/>
<line x1="637.25" y1="87.51" x2="637.25" y2="149.87" class="err"/>
<line x1="634.25" y1="87.51" x2="640.25" y2="87.51" class="err"/>
<line x1="634.25" y1="149.87" x2="640.25" y2="149.87" class="err"/>
<circle cx="637.25" cy="118.69" r="2.5" class="obs"/>
<g class="legend">
<line x1="82" y1="69" x2="106" y2="69" class="fw"/>
<text x="112" y="73" class="lbl-l">framework: 1.3 km/s, 1.5%, 0.26σ</text>
<line x1="82" y1="87" x2="106" y2="87" class="nt"/>
<text x="112" y="91" class="lbl-l">Newtonian: 8.1 km/s, 8.2%, 1.21σ</text>
<line x1="82" y1="105" x2="106" y2="105" class="mond"/>
<text x="112" y="109" class="lbl-m">MOND/RAR: 9.2 km/s, 9.8%, 1.90σ</text>
<circle cx="94" cy="123" r="2.5" class="obs"/>
<text x="112" y="127" class="lbl">observed V±err</text>
</g>
<g class="legend">
<line x1="472" y1="69" x2="496" y2="69" class="rho"/>
<text x="502" y="73" class="lbl-r">ρ(r) raw</text>
<line x1="472" y1="87" x2="496" y2="87" class="phot"/>
<text x="502" y="91" class="lbl-p">photometric baryonic profile</text>
<line x1="472" y1="105" x2="496" y2="105" class="mbar"/>
<text x="502" y="109" class="lbl-m">MOND baryonic annulus</text>
<line x1="472" y1="123" x2="496" y2="123" class="mph"/>
<text x="502" y="127" class="lbl-m">MOND phantom annulus</text>
<text x="472" y="147" class="lbl-r">ρ peak: 163 M☉/pc²</text>
<text x="472" y="163" class="lbl-p">phot peak: 49.45 (arb.)</text>
<text x="472" y="179" class="lbl-m">Σbar peak: 64.17 M☉/pc²</text>
<text x="472" y="195" class="lbl-m">Σphantom peak: 102.92 M☉/pc²</text>
</g>
<rect x="775" y="55" width="170" height="170" class="preview-bg"/>
<defs><radialGradient id="g_UGC06983" cx="0.5" cy="0.5" r="0.5">
  <stop offset="0.0000" stop-color="rgb(81,81,81)"/>
  <stop offset="0.0313" stop-color="rgb(81,81,81)"/>
  <stop offset="0.0625" stop-color="rgb(81,81,81)"/>
  <stop offset="0.0938" stop-color="rgb(81,81,81)"/>
  <stop offset="0.1250" stop-color="rgb(81,81,81)"/>
  <stop offset="0.1563" stop-color="rgb(77,77,77)"/>
  <stop offset="0.1875" stop-color="rgb(68,68,68)"/>
  <stop offset="0.2188" stop-color="rgb(66,66,66)"/>
  <stop offset="0.2500" stop-color="rgb(65,65,65)"/>
  <stop offset="0.2813" stop-color="rgb(65,65,65)"/>
  <stop offset="0.3125" stop-color="rgb(64,64,64)"/>
  <stop offset="0.3438" stop-color="rgb(62,62,62)"/>
  <stop offset="0.3750" stop-color="rgb(60,60,60)"/>
  <stop offset="0.4063" stop-color="rgb(58,58,58)"/>
  <stop offset="0.4375" stop-color="rgb(56,56,56)"/>
  <stop offset="0.4688" stop-color="rgb(54,54,54)"/>
  <stop offset="0.5000" stop-color="rgb(52,52,52)"/>
  <stop offset="0.5313" stop-color="rgb(51,51,51)"/>
  <stop offset="0.5625" stop-color="rgb(49,49,49)"/>
  <stop offset="0.5938" stop-color="rgb(47,47,47)"/>
  <stop offset="0.6250" stop-color="rgb(45,45,45)"/>
  <stop offset="0.6563" stop-color="rgb(43,43,43)"/>
  <stop offset="0.6875" stop-color="rgb(41,41,41)"/>
  <stop offset="0.7188" stop-color="rgb(39,39,39)"/>
  <stop offset="0.7500" stop-color="rgb(38,38,38)"/>
  <stop offset="0.7813" stop-color="rgb(36,36,36)"/>
  <stop offset="0.8125" stop-color="rgb(34,34,34)"/>
  <stop offset="0.8438" stop-color="rgb(32,32,32)"/>
  <stop offset="0.8750" stop-color="rgb(30,30,30)"/>
  <stop offset="0.9063" stop-color="rgb(28,28,28)"/>
  <stop offset="0.9375" stop-color="rgb(26,26,26)"/>
  <stop offset="0.9688" stop-color="rgb(20,20,20)"/>
  <stop offset="1.0000" stop-color="rgb(0,0,0)"/>
</radialGradient></defs>
<circle cx="860" cy="140" r="81" fill="url(#g_UGC06983)"/>
<text x="860" y="49" text-anchor="middle" class="preview-lbl">face-on luminance from ρ(r)</text>
<text x="860" y="239" text-anchor="middle" class="preview-lbl">edge at r = 16.2 kpc</text>
</svg>