<svg xmlns="http://www.w3.org/2000/svg" viewBox="0 0 960 450" width="960" height="450" font-family="sans-serif" font-size="12">
<style>
  .ax { stroke: #333; stroke-width: 1; fill: none; }
  .grid { stroke: #ddd; stroke-width: 0.5; fill: none; }
  .lbl { fill: #333; }
  .lbl-l { fill: #0066cc; }
  .lbl-r { fill: #b03030; }
  .obs { fill: #222; }
  .err { stroke: #555; stroke-width: 0.8; fill: none; }
  .fw { stroke: #0066cc; stroke-width: 2.2; fill: none; }
  .nt { stroke: #cc6600; stroke-width: 1.6; fill: none; stroke-dasharray: 5,3; }
  .mond { stroke: #7b2cbf; stroke-width: 1.8; fill: none; stroke-dasharray: 7,3; }
  .lbl-p { fill: #cc7000; }
  .lbl-m { fill: #7b2cbf; }
  .rho { stroke: #b03030; stroke-width: 2.0; fill: none; }
  .phot { stroke: #cc7000; stroke-width: 1.8; fill: none; }
  .mbar { stroke: #8e44ad; stroke-width: 1.8; fill: none; opacity: 0.9; }
  .mph { stroke: #c77dff; stroke-width: 1.6; fill: none; stroke-dasharray: 4,3; opacity: 0.95; }
  .title { fill: #111; font-size: 16px; font-weight: 600; }
  .subtitle { fill: #555; font-size: 11px; }
  .preview-bg { fill: #000; }
  .preview-lbl { fill: #888; font-size: 10px; }
  .legend { font-size: 11px; }
</style>
<text x="378.5" y="22" text-anchor="middle" class="title">UGC07232</text>
<text x="378.5" y="38" text-anchor="middle" class="subtitle">rMax=0.8 kpc, N=4, FW=0.4 km/s, 1.1%, 0.13σ, MOND=4.2 km/s, 15.1%, 1.27σ, amp=102</text>
<line x1="70" y1="395.0" x2="687" y2="395.0" class="grid"/>
<text x="64" y="399.0" text-anchor="end" class="lbl-l">0</text>
<line x1="70" y1="327.0" x2="687" y2="327.0" class="grid"/>
<text x="64" y="331.0" text-anchor="end" class="lbl-l">10</text>
<line x1="70" y1="259.0" x2="687" y2="259.0" class="grid"/>
<text x="64" y="263.0" text-anchor="end" class="lbl-l">21</text>
<line x1="70" y1="191.0" x2="687" y2="191.0" class="grid"/>
<text x="64" y="195.0" text-anchor="end" class="lbl-l">31</text>
<line x1="70" y1="123.0" x2="687" y2="123.0" class="grid"/>
<text x="64" y="127.0" text-anchor="end" class="lbl-l">42</text>
<line x1="70" y1="55.0" x2="687" y2="55.0" class="grid"/>
<text x="64" y="59.0" text-anchor="end" class="lbl-l">52</text>
<text x="693" y="399.0" text-anchor="start" class="lbl-r">0.0</text>
<text x="693" y="353.7" text-anchor="start" class="lbl-r">0.2</text>
<text x="693" y="308.3" text-anchor="start" class="lbl-r">0.4</text>
<text x="693" y="263.0" text-anchor="start" class="lbl-r">0.6</text>
<text x="693" y="217.7" text-anchor="start" class="lbl-r">0.8</text>
<text x="693" y="172.3" text-anchor="start" class="lbl-r">1.0</text>
<line x1="70.0" y1="55" x2="70.0" y2="395" class="grid"/>
<text x="70.0" y="411" text-anchor="middle" class="lbl">0.0</text>
<line x1="172.8" y1="55" x2="172.8" y2="395" class="grid"/>
<text x="172.8" y="411" text-anchor="middle" class="lbl">0.1</text>
<line x1="275.7" y1="55" x2="275.7" y2="395" class="grid"/>
<text x="275.7" y="411" text-anchor="middle" class="lbl">0.3</text>
<line x1="378.5" y1="55" x2="378.5" y2="395" class="grid"/>
<text x="378.5" y="411" text-anchor="middle" class="lbl">0.4</text>
<line x1="481.3" y1="55" x2="481.3" y2="395" class="grid"/>
<text x="481.3" y="411" text-anchor="middle" class="lbl">0.6</text>
<line x1="584.2" y1="55" x2="584.2" y2="395" class="grid"/>
<text x="584.2" y="411" text-anchor="middle" class="lbl">0.7</text>
<line x1="687.0" y1="55" x2="687.0" y2="395" class="grid"/>
<text x="687.0" y="411" text-anchor="middle" class="lbl">0.9</text>
<text x="378.5" y="438" text-anchor="middle" class="lbl">radius (kpc)</text>
<text x="16" y="225" text-anchor="middle" class="lbl-l" transform="rotate(-90, 16, 225)">velocity (km/s)</text>
<text x="724" y="225" text-anchor="middle" class="lbl-r" transform="rotate(-90, 724, 225)">profiles (normalized to peak)</text>
<rect x="70" y="55" width="617" height="340" class="ax"/>
<path d="M 70.0,168.3 L 72.8,186.3 L 75.6,204.4 L 78.5,222.4 L 81.3,240.4 L 84.1,258.4 L 86.9,275.7 L 89.7,276.2 L 92.5,276.7 L 95.4,277.3 L 98.2,277.8 L 101.0,278.3 L 103.8,278.8 L 106.6,279.4 L 109.4,279.9 L 112.3,280.4 L 115.1,280.9 L 117.9,281.4 L 120.7,282.0 L 123.5,282.5 L 126.3,283.0 L 129.2,283.5 L 132.0,284.1 L 134.8,284.6 L 137.6,285.1 L 140.4,285.6 L 143.3,286.2 L 146.1,286.7 L 148.9,287.2 L 151.7,287.7 L 154.5,288.2 L 157.3,288.8 L 160.2,289.1 L 163.0,289.2 L 165.8,289.3 L 168.6,289.4 L 171.4,289.5 L 174.2,289.6 L 177.1,289.6 L 179.9,289.7 L 182.7,289.8 L 185.5,289.9 L 188.3,290.0 L 191.1,290.1 L 194.0,290.2 L 196.8,290.2 L 199.6,290.3 L 202.4,290.4 L 205.2,290.5 L 208.1,290.6 L 210.9,290.7 L 213.7,290.7 L 216.5,290.8 L 219.3,290.9 L 222.1,291.0 L 225.0,291.1 L 227.8,291.2 L 230.6,291.3 L 233.4,291.5 L 236.2,291.7 L 239.0,291.9 L 241.9,292.1 L 244.7,292.3 L 247.5,292.5 L 250.3,292.7 L 253.1,292.9 L 255.9,293.1 L 258.8,293.3 L 261.6,293.5 L 264.4,293.7 L 267.2,293.9 L 270.0,294.1 L 272.8,294.3 L 275.7,294.5 L 278.5,294.7 L 281.3,294.9 L 284.1,295.1 L 286.9,295.3 L 289.8,295.5 L 292.6,295.7 L 295.4,295.9 L 298.2,296.1 L 301.0,296.3 L 303.8,296.5 L 306.7,296.7 L 309.5,296.9 L 312.3,297.1 L 315.1,297.3 L 317.9,297.5 L 320.7,297.7 L 323.6,297.9 L 326.4,298.1 L 329.2,298.3 L 332.0,298.5 L 334.8,298.7 L 337.6,298.9 L 340.5,299.1 L 343.3,299.3 L 346.1,299.5 L 348.9,299.7 L 351.7,299.9 L 354.6,300.1 L 357.4,300.3 L 360.2,300.5 L 363.0,300.7 L 365.8,300.9 L 368.6,301.1 L 371.5,301.3 L 374.3,301.5 L 377.1,301.7 L 379.9,301.9 L 382.7,302.1 L 385.5,302.3 L 388.4,302.5 L 391.2,302.7 L 394.0,302.9 L 396.8,303.1 L 399.6,303.3 L 402.4,303.5 L 405.3,303.7 L 408.1,303.9 L 410.9,304.1 L 413.7,304.3 L 416.5,304.5 L 419.4,304.7 L 422.2,304.9 L 425.0,305.1 L 427.8,305.3 L 430.6,305.5 L 433.4,305.7 L 436.3,305.9 L 439.1,306.1 L 441.9,306.3 L 444.7,306.5 L 447.5,306.7 L 450.3,306.9 L 453.2,307.1 L 456.0,307.3 L 458.8,307.5 L 461.6,307.7 L 464.4,307.9 L 467.2,308.1 L 470.1,308.3 L 472.9,308.5 L 475.7,308.7 L 478.5,308.9 L 481.3,309.1 L 484.2,309.3 L 487.0,309.5 L 489.8,309.7 L 492.6,309.9 L 495.4,310.1 L 498.2,310.3 L 501.1,310.5 L 503.9,310.7 L 506.7,310.9 L 509.5,311.1 L 512.3,311.3 L 515.1,311.5 L 518.0,311.7 L 520.8,311.9 L 523.6,312.1 L 526.4,312.3 L 529.2,312.5 L 532.0,312.7 L 534.9,312.9 L 537.7,313.1 L 540.5,313.3 L 543.3,313.5 L 546.1,313.7 L 548.9,313.9 L 551.8,314.1 L 554.6,314.3 L 557.4,314.5 L 560.2,314.7 L 563.0,314.9 L 565.9,315.1 L 568.7,315.3 L 571.5,315.5 L 574.3,315.7 L 577.1,315.9 L 579.9,316.1 L 582.8,316.3 L 585.6,316.5 L 588.4,316.7 L 591.2,316.9 L 594.0,317.1 L 596.8,317.3 L 599.7,317.5 L 602.5,319.0 L 605.3,322.9 L 608.1,326.8 L 610.9,330.7 L 613.7,334.6 L 616.6,338.4 L 619.4,342.3 L 622.2,346.2 L 625.0,350.1 L 627.8,354.0 L 630.7,357.8 L 633.5,361.7 L 636.3,365.6 L 639.1,369.5 L 641.9,373.4 L 644.7,377.3 L 647.6,381.1 L 650.4,385.0 L 653.2,388.9 L 656.0,392.8 L 658.8,395.0 L 661.6,395.0 L 664.5,395.0 L 667.3,395.0 L 670.1,395.0 L 672.9,395.0 L 675.7,395.0 L 678.5,395.0 L 681.4,395.0 L 684.2,395.0 L 687.0,395.0" class="rho"/>
<path d="M 218.3,168.3 L 359.5,266.6 L 507.7,364.4 L 648.9,378.7" class="phot"/>
<path d="M 218.3,187.6 L 359.5,168.3 L 507.7,217.3 L 648.9,274.2" class="mbar"/>
<path d="M 218.3,176.2 L 359.5,168.3 L 507.7,188.3 L 648.9,213.2" class="mph"/>
<path d="M 76.2,355.1 L 82.3,342.4 L 88.5,335.5 L 94.7,329.4 L 100.8,323.5 L 107.0,317.8 L 113.2,312.6 L 119.4,307.6 L 125.5,302.9 L 131.7,298.5 L 137.9,294.3 L 144.0,290.3 L 150.2,286.5 L 156.4,282.9 L 162.6,279.4 L 168.7,276.1 L 174.9,272.8 L 181.1,269.6 L 187.2,266.4 L 193.4,263.4 L 199.6,260.4 L 205.7,257.4 L 211.9,254.6 L 218.1,251.7 L 224.3,249.0 L 230.4,246.3 L 236.6,243.6 L 242.8,241.1 L 248.9,238.5 L 255.1,236.1 L 261.3,233.6 L 267.4,231.3 L 273.6,229.0 L 279.8,226.7 L 285.9,224.5 L 292.1,222.3 L 298.3,220.1 L 304.5,218.0 L 310.6,216.0 L 316.8,213.9 L 323.0,211.9 L 329.1,210.0 L 335.3,208.0 L 341.5,206.1 L 347.6,204.3 L 353.8,202.4 L 360.0,200.6 L 366.2,198.9 L 372.3,197.1 L 378.5,195.4 L 384.7,193.7 L 390.8,192.0 L 397.0,190.4 L 403.2,188.7 L 409.3,187.2 L 415.5,185.6 L 421.7,184.0 L 427.9,182.5 L 434.0,181.0 L 440.2,179.5 L 446.4,178.0 L 452.5,176.6 L 458.7,175.2 L 464.9,173.8 L 471.0,172.4 L 477.2,171.0 L 483.4,169.7 L 489.6,168.3 L 495.7,167.0 L 501.9,165.7 L 508.1,164.5 L 514.2,163.2 L 520.4,161.9 L 526.6,160.7 L 532.8,159.5 L 538.9,158.3 L 545.1,157.1 L 551.3,156.0 L 557.4,154.8 L 563.6,153.7 L 569.8,152.6 L 575.9,151.5 L 582.1,150.4 L 588.3,149.3 L 594.4,148.3 L 600.6,147.2 L 606.8,146.3 L 613.0,145.6 L 619.1,145.2 L 625.3,145.0 L 631.5,145.1 L 637.6,145.5 L 643.8,146.1 L 650.0,147.0 L 656.2,148.1 L 662.3,149.3 L 668.5,150.6 L 674.7,151.9 L 680.8,153.1 L 687.0,154.3" class="nt"/>
<path d="M 218.3,265.6 L 359.5,194.9 L 507.7,165.8 L 648.9,148.4" class="mond"/>
<path d="M 75.1,379.5 L 80.3,368.9 L 85.4,358.6 L 90.6,350.3 L 95.7,343.8 L 100.8,338.8 L 106.0,334.6 L 111.1,331.1 L 116.3,327.8 L 121.4,324.8 L 126.6,321.9 L 131.7,319.3 L 136.8,316.9 L 142.0,314.7 L 147.1,312.7 L 152.3,311.0 L 157.4,309.5 L 162.6,308.1 L 167.7,306.8 L 172.8,305.4 L 178.0,304.0 L 183.1,302.4 L 188.3,300.7 L 193.4,298.8 L 198.5,296.8 L 203.7,294.7 L 208.8,292.4 L 214.0,289.9 L 219.1,287.4 L 224.3,284.7 L 229.4,282.0 L 234.5,279.3 L 239.7,276.5 L 244.8,273.8 L 250.0,271.2 L 255.1,268.6 L 260.2,266.1 L 265.4,263.6 L 270.5,261.2 L 275.7,258.8 L 280.8,256.5 L 285.9,254.2 L 291.1,252.0 L 296.2,249.8 L 301.4,247.6 L 306.5,245.5 L 311.7,243.4 L 316.8,241.4 L 321.9,239.3 L 327.1,237.4 L 332.2,235.4 L 337.4,233.4 L 342.5,231.5 L 347.6,229.6 L 352.8,227.7 L 357.9,225.9 L 363.1,224.0 L 368.2,222.2 L 373.4,220.4 L 378.5,218.5 L 383.6,216.7 L 388.8,214.9 L 393.9,213.1 L 399.1,211.3 L 404.2,209.6 L 409.3,207.8 L 414.5,206.0 L 419.6,204.2 L 424.8,202.3 L 429.9,200.5 L 435.1,198.7 L 440.2,196.8 L 445.3,194.9 L 450.5,193.0 L 455.6,191.0 L 460.8,189.0 L 465.9,187.0 L 471.1,184.9 L 476.2,182.8 L 481.3,180.5 L 486.5,178.3 L 491.6,175.9 L 496.8,173.4 L 501.9,170.8 L 507.0,168.1 L 512.2,165.2 L 517.3,162.2 L 522.5,159.0 L 527.6,155.6 L 532.8,152.0 L 537.9,148.1 L 543.0,143.9 L 548.2,139.4 L 553.3,134.5 L 558.5,129.1 L 563.6,123.3 L 568.7,117.1 L 573.9,110.3 L 579.0,103.1 L 584.2,95.5 L 589.3,87.8 L 594.4,80.4 L 599.6,73.8 L 604.7,68.4 L 609.9,64.9 L 615.0,63.5 L 620.2,64.5 L 625.3,67.7 L 630.4,72.9 L 635.6,79.8 L 640.7,88.0 L 645.9,97.2 L 651.0,106.8 L 656.2,116.5 L 661.3,126.0 L 666.4,135.1 L 671.6,143.7 L 676.7,151.7 L 681.9,159.1 L 687.0,166.1" class="fw"/>
<line x1="218.26" y1="266.27" x2="218.26" y2="309.40" class="err"/>
<line x1="215.26" y1="266.27" x2="221.26" y2="266.27" class="err"/>
<line x1="215.26" y1="309.40" x2="221.26" y2="309.40" class="err"/>
<circle cx="218.26" cy="287.83" r="2.5" class="obs"/>
<line x1="359.47" y1="202.23" x2="359.47" y2="245.36" class="err"/>
<line x1="356.47" y1="202.23" x2="362.47" y2="202.23" class="err"/>
<line x1="356.47" y1="245.36" x2="362.47" y2="245.36" class="err"/>
<circle cx="359.47" cy="223.79" r="2.5" class="obs"/>
<line x1="507.73" y1="143.41" x2="507.73" y2="186.54" class="err"/>
<line x1="504.73" y1="143.41" x2="510.73" y2="143.41" class="err"/>
<line x1="504.73" y1="186.54" x2="510.73" y2="186.54" class="err"/>
<circle cx="507.73" cy="164.98" r="2.5" class="obs"/>
<line x1="648.94" y1="85.91" x2="648.94" y2="129.04" class="err"/>
<line x1="645.94" y1="85.91" x2="651.94" y2="85.91" class="err"/>
<line x1="645.94" y1="129.04" x2="651.94" y2="129.04" class="err"/>
<circle cx="648.94" cy="107.47" r="2.5" class="obs"/>
<g class="legend">
<line x1="82" y1="69" x2="106" y2="69" class="fw"/>
<text x="112" y="73" class="lbl-l">framework: 0.4 km/s, 1.1%, 0.13σ</text>
<line x1="82" y1="87" x2="106" y2="87" class="nt"/>
<text x="112" y="91" class="lbl-l">Newtonian: 4.5 km/s, 19.4%, 1.35σ</text>
<line x1="82" y1="105" x2="106" y2="105" class="mond"/>
<text x="112" y="109" class="lbl-m">MOND/RAR: 4.2 km/s, 15.1%, 1.27σ</text>
<circle cx="94" cy="123" r="2.5" class="obs"/>
<text x="112" y="127" class="lbl">observed V±err</text>
</g>
<g class="legend">
<line x1="472" y1="69" x2="496" y2="69" class="rho"/>
<text x="502" y="73" class="lbl-r">ρ(r) raw</text>
<line x1="472" y1="87" x2="496" y2="87" class="phot"/>
<text x="502" y="91" class="lbl-p">photometric baryonic profile</text>
<line x1="472" y1="105" x2="496" y2="105" class="mbar"/>
<text x="502" y="109" class="lbl-m">MOND baryonic annulus</text>
<line x1="472" y1="123" x2="496" y2="123" class="mph"/>
<text x="502" y="127" class="lbl-m">MOND phantom annulus</text>
<text x="472" y="147" class="lbl-r">ρ peak: 357 M☉/pc²</text>
<text x="472" y="163" class="lbl-p">phot peak: 66.13 (arb.)</text>
<text x="472" y="179" class="lbl-m">Σbar peak: 57.99 M☉/pc²</text>
<text x="472" y="195" class="lbl-m">Σphantom peak: 99.05 M☉/pc²</text>
</g>
<rect x="775" y="55" width="170" height="170" class="preview-bg"/>
<defs><radialGradient id="g_UGC07232" cx="0.5" cy="0.5" r="0.5">
  <stop offset="0.0000" stop-color="rgb(255,64,64)"/>
  <stop offset="0.0313" stop-color="rgb(255,64,64)"/>
  <stop offset="0.0625" stop-color="rgb(255,64,64)"/>
  <stop offset="0.0938" stop-color="rgb(255,64,64)"/>
  <stop offset="0.1250" stop-color="rgb(255,64,64)"/>
  <stop offset="0.1563" stop-color="rgb(255,64,64)"/>
  <stop offset="0.1875" stop-color="rgb(255,64,64)"/>
  <stop offset="0.2188" stop-color="rgb(255,64,64)"/>
  <stop offset="0.2500" stop-color="rgb(255,64,64)"/>
  <stop offset="0.2813" stop-color="rgb(255,64,64)"/>
  <stop offset="0.3125" stop-color="rgb(255,64,64)"/>
  <stop offset="0.3438" stop-color="rgb(255,64,64)"/>
  <stop offset="0.3750" stop-color="rgb(255,64,64)"/>
  <stop offset="0.4063" stop-color="rgb(255,64,64)"/>
  <stop offset="0.4375" stop-color="rgb(255,64,64)"/>
  <stop offset="0.4688" stop-color="rgb(255,64,64)"/>
  <stop offset="0.5000" stop-color="rgb(253,63,63)"/>
  <stop offset="0.5313" stop-color="rgb(250,63,63)"/>
  <stop offset="0.5625" stop-color="rgb(247,62,62)"/>
  <stop offset="0.5938" stop-color="rgb(244,61,61)"/>
  <stop offset="0.6250" stop-color="rgb(242,61,61)"/>
  <stop offset="0.6563" stop-color="rgb(239,60,60)"/>
  <stop offset="0.6875" stop-color="rgb(236,59,59)"/>
  <stop offset="0.7188" stop-color="rgb(233,58,58)"/>
  <stop offset="0.7500" stop-color="rgb(230,58,58)"/>
  <stop offset="0.7813" stop-color="rgb(228,57,57)"/>
  <stop offset="0.8125" stop-color="rgb(225,56,56)"/>
  <stop offset="0.8438" stop-color="rgb(222,56,56)"/>
  <stop offset="0.8750" stop-color="rgb(219,55,55)"/>
  <stop offset="0.9063" stop-color="rgb(213,53,53)"/>
  <stop offset="0.9375" stop-color="rgb(159,40,40)"/>
  <stop offset="0.9688" stop-color="rgb(104,26,26)"/>
  <stop offset="1.0000" stop-color="rgb(0,0,0)"/>
</radialGradient></defs>
<circle cx="860" cy="140" r="81" fill="url(#g_UGC07232)"/>
<text x="860" y="49" text-anchor="middle" class="preview-lbl">face-on luminance from ρ(r)</text>
<text x="860" y="239" text-anchor="middle" class="preview-lbl">edge at r = 0.8 kpc</text>
</svg>