<svg xmlns="http://www.w3.org/2000/svg" viewBox="0 0 960 450" width="960" height="450" font-family="sans-serif" font-size="12">
<style>
  .ax { stroke: #333; stroke-width: 1; fill: none; }
  .grid { stroke: #ddd; stroke-width: 0.5; fill: none; }
  .lbl { fill: #333; }
  .lbl-l { fill: #0066cc; }
  .lbl-r { fill: #b03030; }
  .obs { fill: #222; }
  .err { stroke: #555; stroke-width: 0.8; fill: none; }
  .fw { stroke: #0066cc; stroke-width: 2.2; fill: none; }
  .nt { stroke: #cc6600; stroke-width: 1.6; fill: none; stroke-dasharray: 5,3; }
  .mond { stroke: #7b2cbf; stroke-width: 1.8; fill: none; stroke-dasharray: 7,3; }
  .lbl-p { fill: #cc7000; }
  .lbl-m { fill: #7b2cbf; }
  .rho { stroke: #b03030; stroke-width: 2.0; fill: none; }
  .phot { stroke: #cc7000; stroke-width: 1.8; fill: none; }
  .mbar { stroke: #8e44ad; stroke-width: 1.8; fill: none; opacity: 0.9; }
  .mph { stroke: #c77dff; stroke-width: 1.6; fill: none; stroke-dasharray: 4,3; opacity: 0.95; }
  .title { fill: #111; font-size: 16px; font-weight: 600; }
  .subtitle { fill: #555; font-size: 11px; }
  .preview-bg { fill: #000; }
  .preview-lbl { fill: #888; font-size: 10px; }
  .legend { font-size: 11px; }
</style>
<text x="378.5" y="22" text-anchor="middle" class="title">UGC06614</text>
<text x="378.5" y="38" text-anchor="middle" class="subtitle">rMax=64.6 kpc, N=13, FW=2.9 km/s, 1.6%, 0.30σ, MOND=29.7 km/s, 16.8%, 3.03σ, amp=826</text>
<line x1="70" y1="395.0" x2="687" y2="395.0" class="grid"/>
<text x="64" y="399.0" text-anchor="end" class="lbl-l">0</text>
<line x1="70" y1="327.0" x2="687" y2="327.0" class="grid"/>
<text x="64" y="331.0" text-anchor="end" class="lbl-l">59</text>
<line x1="70" y1="259.0" x2="687" y2="259.0" class="grid"/>
<text x="64" y="263.0" text-anchor="end" class="lbl-l">117</text>
<line x1="70" y1="191.0" x2="687" y2="191.0" class="grid"/>
<text x="64" y="195.0" text-anchor="end" class="lbl-l">176</text>
<line x1="70" y1="123.0" x2="687" y2="123.0" class="grid"/>
<text x="64" y="127.0" text-anchor="end" class="lbl-l">235</text>
<line x1="70" y1="55.0" x2="687" y2="55.0" class="grid"/>
<text x="64" y="59.0" text-anchor="end" class="lbl-l">293</text>
<text x="693" y="399.0" text-anchor="start" class="lbl-r">0.0</text>
<text x="693" y="353.7" text-anchor="start" class="lbl-r">0.2</text>
<text x="693" y="308.3" text-anchor="start" class="lbl-r">0.4</text>
<text x="693" y="263.0" text-anchor="start" class="lbl-r">0.6</text>
<text x="693" y="217.7" text-anchor="start" class="lbl-r">0.8</text>
<text x="693" y="172.3" text-anchor="start" class="lbl-r">1.0</text>
<line x1="70.0" y1="55" x2="70.0" y2="395" class="grid"/>
<text x="70.0" y="411" text-anchor="middle" class="lbl">0.0</text>
<line x1="172.8" y1="55" x2="172.8" y2="395" class="grid"/>
<text x="172.8" y="411" text-anchor="middle" class="lbl">11.3</text>
<line x1="275.7" y1="55" x2="275.7" y2="395" class="grid"/>
<text x="275.7" y="411" text-anchor="middle" class="lbl">22.6</text>
<line x1="378.5" y1="55" x2="378.5" y2="395" class="grid"/>
<text x="378.5" y="411" text-anchor="middle" class="lbl">33.9</text>
<line x1="481.3" y1="55" x2="481.3" y2="395" class="grid"/>
<text x="481.3" y="411" text-anchor="middle" class="lbl">45.2</text>
<line x1="584.2" y1="55" x2="584.2" y2="395" class="grid"/>
<text x="584.2" y="411" text-anchor="middle" class="lbl">56.5</text>
<line x1="687.0" y1="55" x2="687.0" y2="395" class="grid"/>
<text x="687.0" y="411" text-anchor="middle" class="lbl">67.8</text>
<text x="378.5" y="438" text-anchor="middle" class="lbl">radius (kpc)</text>
<text x="16" y="225" text-anchor="middle" class="lbl-l" transform="rotate(-90, 16, 225)">velocity (km/s)</text>
<text x="724" y="225" text-anchor="middle" class="lbl-r" transform="rotate(-90, 724, 225)">profiles (normalized to peak)</text>
<rect x="70" y="55" width="617" height="340" class="ax"/>
<path d="M 70.0,168.3 L 72.8,183.5 L 75.6,198.8 L 78.5,214.0 L 81.3,229.2 L 84.1,244.4 L 86.9,259.6 L 89.7,274.8 L 92.5,290.0 L 95.4,305.2 L 98.2,320.5 L 101.0,335.7 L 103.8,350.9 L 106.6,352.3 L 109.4,352.3 L 112.3,352.3 L 115.1,352.3 L 117.9,352.2 L 120.7,352.2 L 123.5,352.2 L 126.3,352.2 L 129.2,352.1 L 132.0,352.1 L 134.8,352.1 L 137.6,352.1 L 140.4,352.1 L 143.3,352.0 L 146.1,352.0 L 148.9,352.0 L 151.7,352.0 L 154.5,351.9 L 157.3,351.9 L 160.2,351.9 L 163.0,351.9 L 165.8,351.8 L 168.6,351.8 L 171.4,351.8 L 174.2,351.8 L 177.1,351.8 L 179.9,351.8 L 182.7,351.8 L 185.5,351.8 L 188.3,351.8 L 191.1,351.9 L 194.0,352.0 L 196.8,352.2 L 199.6,352.4 L 202.4,352.5 L 205.2,352.7 L 208.1,352.8 L 210.9,353.0 L 213.7,353.1 L 216.5,353.3 L 219.3,353.4 L 222.1,353.6 L 225.0,353.8 L 227.8,353.9 L 230.6,354.1 L 233.4,354.2 L 236.2,354.4 L 239.0,354.5 L 241.9,354.7 L 244.7,354.8 L 247.5,355.0 L 250.3,355.1 L 253.1,355.3 L 255.9,355.5 L 258.8,355.6 L 261.6,355.8 L 264.4,355.9 L 267.2,356.1 L 270.0,356.2 L 272.8,356.4 L 275.7,356.5 L 278.5,356.7 L 281.3,356.8 L 284.1,357.0 L 286.9,357.2 L 289.8,357.3 L 292.6,357.5 L 295.4,357.6 L 298.2,357.8 L 301.0,357.9 L 303.8,358.1 L 306.7,358.2 L 309.5,358.4 L 312.3,358.5 L 315.1,358.7 L 317.9,358.9 L 320.7,359.0 L 323.6,359.2 L 326.4,359.3 L 329.2,359.5 L 332.0,359.6 L 334.8,359.8 L 337.6,359.9 L 340.5,360.1 L 343.3,360.3 L 346.1,360.4 L 348.9,360.6 L 351.7,360.7 L 354.6,360.9 L 357.4,361.0 L 360.2,361.2 L 363.0,361.3 L 365.8,361.5 L 368.6,361.6 L 371.5,361.8 L 374.3,362.0 L 377.1,362.1 L 379.9,362.3 L 382.7,362.4 L 385.5,362.6 L 388.4,362.7 L 391.2,362.9 L 394.0,363.0 L 396.8,363.2 L 399.6,363.3 L 402.4,363.5 L 405.3,363.7 L 408.1,363.8 L 410.9,364.0 L 413.7,364.1 L 416.5,364.3 L 419.4,364.4 L 422.2,364.6 L 425.0,364.7 L 427.8,364.9 L 430.6,365.0 L 433.4,365.2 L 436.3,365.4 L 439.1,365.5 L 441.9,365.7 L 444.7,365.8 L 447.5,366.0 L 450.3,366.1 L 453.2,366.3 L 456.0,366.4 L 458.8,366.6 L 461.6,366.7 L 464.4,366.9 L 467.2,367.1 L 470.1,367.2 L 472.9,367.4 L 475.7,367.5 L 478.5,367.7 L 481.3,367.8 L 484.2,368.0 L 487.0,368.1 L 489.8,368.3 L 492.6,368.5 L 495.4,368.6 L 498.2,368.8 L 501.1,368.9 L 503.9,369.1 L 506.7,369.2 L 509.5,369.4 L 512.3,369.5 L 515.1,369.7 L 518.0,369.8 L 520.8,370.0 L 523.6,370.2 L 526.4,370.3 L 529.2,370.5 L 532.0,370.6 L 534.9,370.8 L 537.7,370.9 L 540.5,371.1 L 543.3,371.2 L 546.1,371.4 L 548.9,371.5 L 551.8,371.7 L 554.6,371.9 L 557.4,372.0 L 560.2,372.2 L 563.0,372.3 L 565.9,372.5 L 568.7,372.6 L 571.5,372.8 L 574.3,372.9 L 577.1,373.1 L 579.9,373.2 L 582.8,373.4 L 585.6,373.6 L 588.4,373.7 L 591.2,373.9 L 594.0,374.0 L 596.8,374.2 L 599.7,374.3 L 602.5,374.5 L 605.3,374.6 L 608.1,374.8 L 610.9,374.9 L 613.7,375.1 L 616.6,375.3 L 619.4,375.4 L 622.2,375.6 L 625.0,375.7 L 627.8,375.9 L 630.7,376.0 L 633.5,376.2 L 636.3,376.3 L 639.1,376.5 L 641.9,376.7 L 644.7,376.8 L 647.6,377.0 L 650.4,377.1 L 653.2,381.6 L 656.0,390.1 L 658.8,395.0 L 661.6,395.0 L 664.5,395.0 L 667.3,395.0 L 670.1,395.0 L 672.9,395.0 L 675.7,395.0 L 678.5,395.0 L 681.4,395.0 L 684.2,395.0 L 687.0,395.0" class="rho"/>
<path d="M 99.4,168.3 L 153.5,373.4 L 166.8,374.3 L 175.4,375.2 L 183.9,375.1 L 193.5,377.0 L 213.4,384.7 L 296.9,393.7 L 309.3,393.9 L 388.1,395.0 L 405.2,395.0 L 501.0,395.0 L 657.6,395.0" class="phot"/>
<path d="M 99.4,168.3 L 153.5,306.2 L 166.8,380.6 L 175.4,382.8 L 183.9,379.4 L 193.5,377.9 L 213.4,383.2 L 296.9,390.8 L 309.3,394.1 L 388.1,394.1 L 405.2,393.8 L 501.0,393.6 L 657.6,393.7" class="mbar"/>
<path d="M 99.4,168.3 L 153.5,199.0 L 166.8,232.7 L 175.4,246.9 L 183.9,247.3 L 193.5,248.8 L 213.4,266.3 L 296.9,296.6 L 309.3,318.8 L 388.1,328.9 L 405.2,333.9 L 501.0,337.7 L 657.6,343.1" class="mph"/>
<path d="M 76.2,309.7 L 82.3,281.1 L 88.5,264.3 L 94.7,254.9 L 100.8,251.6 L 107.0,252.8 L 113.2,253.1 L 119.4,251.9 L 125.5,249.8 L 131.7,247.1 L 137.9,244.0 L 144.0,240.6 L 150.2,237.1 L 156.4,233.4 L 162.5,229.7 L 168.7,225.9 L 174.9,222.1 L 181.1,218.3 L 187.2,214.5 L 193.4,210.8 L 199.6,207.1 L 205.7,203.5 L 211.9,200.1 L 218.1,196.7 L 224.3,193.4 L 230.4,190.2 L 236.6,187.0 L 242.8,184.0 L 248.9,181.0 L 255.1,178.1 L 261.3,175.2 L 267.4,172.5 L 273.6,169.7 L 279.8,167.1 L 286.0,164.5 L 292.1,162.0 L 298.3,159.5 L 304.5,157.1 L 310.6,154.7 L 316.8,152.4 L 323.0,150.2 L 329.1,148.0 L 335.3,145.8 L 341.5,143.7 L 347.7,141.6 L 353.8,139.6 L 360.0,137.7 L 366.2,135.8 L 372.3,133.9 L 378.5,132.0 L 384.7,130.2 L 390.8,128.5 L 397.0,126.8 L 403.2,125.1 L 409.3,123.5 L 415.5,121.9 L 421.7,120.3 L 427.9,118.8 L 434.0,117.3 L 440.2,115.9 L 446.4,114.5 L 452.5,113.1 L 458.7,111.8 L 464.9,110.5 L 471.1,109.2 L 477.2,108.0 L 483.4,106.8 L 489.6,105.6 L 495.7,104.4 L 501.9,103.3 L 508.1,102.3 L 514.2,101.2 L 520.4,100.2 L 526.6,99.2 L 532.8,98.2 L 538.9,97.3 L 545.1,96.4 L 551.3,95.6 L 557.4,94.7 L 563.6,93.9 L 569.8,93.1 L 575.9,92.4 L 582.1,91.6 L 588.3,90.9 L 594.4,90.3 L 600.6,89.6 L 606.8,89.0 L 613.0,88.4 L 619.1,87.9 L 625.3,87.3 L 631.5,86.8 L 637.6,86.4 L 643.8,85.9 L 650.0,85.5 L 656.2,85.6 L 662.3,87.2 L 668.5,88.7 L 674.7,90.3 L 680.8,92.0 L 687.0,93.4" class="nt"/>
<path d="M 99.4,132.2 L 153.5,153.2 L 166.8,155.0 L 175.4,154.5 L 183.9,152.8 L 193.5,148.4 L 213.4,144.3 L 296.9,150.3 L 309.3,151.2 L 388.1,151.9 L 405.2,151.8 L 501.0,143.3 L 657.6,134.3" class="mond"/>
<path d="M 75.1,333.2 L 80.3,290.1 L 85.4,247.4 L 90.6,212.2 L 95.7,185.7 L 100.8,168.7 L 106.0,158.8 L 111.1,155.2 L 116.3,155.7 L 121.4,158.9 L 126.6,163.3 L 131.7,168.5 L 136.8,173.5 L 142.0,178.3 L 147.1,182.7 L 152.3,186.5 L 157.4,189.9 L 162.6,192.5 L 167.7,194.6 L 172.8,196.2 L 178.0,197.1 L 183.1,197.6 L 188.3,197.6 L 193.4,197.2 L 198.5,196.6 L 203.7,195.7 L 208.8,194.7 L 214.0,193.5 L 219.1,192.4 L 224.3,191.1 L 229.4,189.9 L 234.5,188.6 L 239.7,187.3 L 244.8,186.1 L 250.0,184.8 L 255.1,183.5 L 260.2,182.2 L 265.4,180.9 L 270.5,179.7 L 275.7,178.5 L 280.8,177.2 L 286.0,176.0 L 291.1,174.9 L 296.2,173.7 L 301.4,172.6 L 306.5,171.5 L 311.7,170.5 L 316.8,169.4 L 321.9,168.4 L 327.1,167.5 L 332.2,166.5 L 337.4,165.6 L 342.5,164.8 L 347.7,163.9 L 352.8,163.1 L 357.9,162.4 L 363.1,161.7 L 368.2,161.0 L 373.4,160.3 L 378.5,159.7 L 383.6,159.1 L 388.8,158.6 L 393.9,158.1 L 399.1,157.6 L 404.2,157.2 L 409.4,156.8 L 414.5,156.4 L 419.6,156.1 L 424.8,155.8 L 429.9,155.6 L 435.1,155.4 L 440.2,155.2 L 445.3,155.1 L 450.5,155.0 L 455.6,154.9 L 460.8,154.9 L 465.9,154.9 L 471.1,154.9 L 476.2,154.9 L 481.3,155.0 L 486.5,155.1 L 491.6,155.3 L 496.8,155.5 L 501.9,155.7 L 507.0,155.9 L 512.2,156.1 L 517.3,156.4 L 522.5,156.7 L 527.6,157.0 L 532.8,157.3 L 537.9,157.6 L 543.0,157.9 L 548.2,158.2 L 553.3,158.5 L 558.5,158.8 L 563.6,159.0 L 568.7,159.3 L 573.9,159.4 L 579.0,159.6 L 584.2,159.6 L 589.3,159.5 L 594.4,159.3 L 599.6,158.9 L 604.7,158.4 L 609.9,157.5 L 615.0,156.5 L 620.2,155.1 L 625.3,153.5 L 630.4,151.7 L 635.6,150.0 L 640.7,148.8 L 645.9,148.5 L 651.0,149.8 L 656.2,152.6 L 661.3,157.3 L 666.4,163.2 L 671.6,170.1 L 676.7,177.4 L 681.9,184.6 L 687.0,191.4" class="fw"/>
<line x1="99.39" y1="150.82" x2="99.39" y2="189.53" class="err"/>
<line x1="96.39" y1="150.82" x2="102.39" y2="150.82" class="err"/>
<line x1="96.39" y1="189.53" x2="102.39" y2="189.53" class="err"/>
<circle cx="99.39" cy="170.18" r="2.5" class="obs"/>
<line x1="153.52" y1="186.28" x2="153.52" y2="205.06" class="err"/>
<line x1="150.52" y1="186.28" x2="156.52" y2="186.28" class="err"/>
<line x1="150.52" y1="205.06" x2="156.52" y2="205.06" class="err"/>
<circle cx="153.52" cy="195.67" r="2.5" class="obs"/>
<line x1="166.80" y1="185.59" x2="166.80" y2="210.39" class="err"/>
<line x1="163.80" y1="185.59" x2="169.80" y2="185.59" class="err"/>
<line x1="163.80" y1="210.39" x2="169.80" y2="210.39" class="err"/>
<circle cx="166.80" cy="197.99" r="2.5" class="obs"/>
<line x1="175.35" y1="190.11" x2="175.35" y2="205.87" class="err"/>
<line x1="172.35" y1="190.11" x2="178.35" y2="190.11" class="err"/>
<line x1="172.35" y1="205.87" x2="178.35" y2="205.87" class="err"/>
<circle cx="175.35" cy="197.99" r="2.5" class="obs"/>
<line x1="183.90" y1="188.95" x2="183.90" y2="204.71" class="err"/>
<line x1="180.90" y1="188.95" x2="186.90" y2="188.95" class="err"/>
<line x1="180.90" y1="204.71" x2="186.90" y2="204.71" class="err"/>
<circle cx="183.90" cy="196.83" r="2.5" class="obs"/>
<line x1="193.46" y1="181.65" x2="193.46" y2="209.69" class="err"/>
<line x1="190.46" y1="181.65" x2="196.46" y2="181.65" class="err"/>
<line x1="190.46" y1="209.69" x2="196.46" y2="209.69" class="err"/>
<circle cx="193.46" cy="195.67" r="2.5" class="obs"/>
<line x1="213.38" y1="170.64" x2="213.38" y2="216.07" class="err"/>
<line x1="210.38" y1="170.64" x2="216.38" y2="170.64" class="err"/>
<line x1="210.38" y1="216.07" x2="216.38" y2="216.07" class="err"/>
<circle cx="213.38" cy="193.35" r="2.5" class="obs"/>
<line x1="296.90" y1="144.45" x2="296.90" y2="198.22" class="err"/>
<line x1="293.90" y1="144.45" x2="299.90" y2="144.45" class="err"/>
<line x1="293.90" y1="198.22" x2="299.90" y2="198.22" class="err"/>
<circle cx="296.90" cy="171.33" r="2.5" class="obs"/>
<line x1="309.27" y1="143.52" x2="309.27" y2="196.83" class="err"/>
<line x1="306.27" y1="143.52" x2="312.27" y2="143.52" class="err"/>
<line x1="306.27" y1="196.83" x2="312.27" y2="196.83" class="err"/>
<circle cx="309.27" cy="170.18" r="2.5" class="obs"/>
<line x1="388.05" y1="153.72" x2="388.05" y2="170.41" class="err"/>
<line x1="385.05" y1="153.72" x2="391.05" y2="153.72" class="err"/>
<line x1="385.05" y1="170.41" x2="391.05" y2="170.41" class="err"/>
<circle cx="388.05" cy="162.06" r="2.5" class="obs"/>
<line x1="405.16" y1="141.09" x2="405.16" y2="180.72" class="err"/>
<line x1="402.16" y1="141.09" x2="408.16" y2="141.09" class="err"/>
<line x1="402.16" y1="180.72" x2="408.16" y2="180.72" class="err"/>
<circle cx="405.16" cy="160.90" r="2.5" class="obs"/>
<line x1="501.05" y1="138.89" x2="501.05" y2="175.97" class="err"/>
<line x1="498.05" y1="138.89" x2="504.05" y2="138.89" class="err"/>
<line x1="498.05" y1="175.97" x2="504.05" y2="175.97" class="err"/>
<circle cx="501.05" cy="157.43" r="2.5" class="obs"/>
<line x1="657.62" y1="140.04" x2="657.62" y2="177.13" class="err"/>
<line x1="654.62" y1="140.04" x2="660.62" y2="140.04" class="err"/>
<line x1="654.62" y1="177.13" x2="660.62" y2="177.13" class="err"/>
<circle cx="657.62" cy="158.59" r="2.5" class="obs"/>
<g class="legend">
<line x1="82" y1="69" x2="106" y2="69" class="fw"/>
<text x="112" y="73" class="lbl-l">framework: 2.9 km/s, 1.6%, 0.30σ</text>
<line x1="82" y1="87" x2="106" y2="87" class="nt"/>
<text x="112" y="91" class="lbl-l">Newtonian: 34.9 km/s, 18.0%, 2.78σ</text>
<line x1="82" y1="105" x2="106" y2="105" class="mond"/>
<text x="112" y="109" class="lbl-m">MOND/RAR: 29.7 km/s, 16.8%, 3.03σ</text>
<circle cx="94" cy="123" r="2.5" class="obs"/>
<text x="112" y="127" class="lbl">observed V±err</text>
</g>
<g class="legend">
<line x1="472" y1="69" x2="496" y2="69" class="rho"/>
<text x="502" y="73" class="lbl-r">ρ(r) raw</text>
<line x1="472" y1="87" x2="496" y2="87" class="phot"/>
<text x="502" y="91" class="lbl-p">photometric baryonic profile</text>
<line x1="472" y1="105" x2="496" y2="105" class="mbar"/>
<text x="502" y="109" class="lbl-m">MOND baryonic annulus</text>
<line x1="472" y1="123" x2="496" y2="123" class="mph"/>
<text x="502" y="127" class="lbl-m">MOND phantom annulus</text>
<text x="472" y="147" class="lbl-r">ρ peak: 656 M☉/pc²</text>
<text x="472" y="163" class="lbl-p">phot peak: 299.06 (arb.)</text>
<text x="472" y="179" class="lbl-m">Σbar peak: 775.85 M☉/pc²</text>
<text x="472" y="195" class="lbl-m">Σphantom peak: 166.52 M☉/pc²</text>
</g>
<rect x="775" y="55" width="170" height="170" class="preview-bg"/>
<defs><radialGradient id="g_UGC06614" cx="0.5" cy="0.5" r="0.5">
  <stop offset="0.0000" stop-color="rgb(216,216,216)"/>
  <stop offset="0.0313" stop-color="rgb(137,137,137)"/>
  <stop offset="0.0625" stop-color="rgb(70,70,70)"/>
  <stop offset="0.0938" stop-color="rgb(70,70,70)"/>
  <stop offset="0.1250" stop-color="rgb(70,70,70)"/>
  <stop offset="0.1563" stop-color="rgb(71,71,71)"/>
  <stop offset="0.1875" stop-color="rgb(71,71,71)"/>
  <stop offset="0.2188" stop-color="rgb(70,70,70)"/>
  <stop offset="0.2500" stop-color="rgb(69,69,69)"/>
  <stop offset="0.2813" stop-color="rgb(69,69,69)"/>
  <stop offset="0.3125" stop-color="rgb(68,68,68)"/>
  <stop offset="0.3438" stop-color="rgb(67,67,67)"/>
  <stop offset="0.3750" stop-color="rgb(66,66,66)"/>
  <stop offset="0.4063" stop-color="rgb(65,65,65)"/>
  <stop offset="0.4375" stop-color="rgb(65,65,65)"/>
  <stop offset="0.4688" stop-color="rgb(64,64,64)"/>
  <stop offset="0.5000" stop-color="rgb(62,62,62)"/>
  <stop offset="0.5313" stop-color="rgb(60,60,60)"/>
  <stop offset="0.5625" stop-color="rgb(58,58,58)"/>
  <stop offset="0.5938" stop-color="rgb(56,56,56)"/>
  <stop offset="0.6250" stop-color="rgb(55,55,55)"/>
  <stop offset="0.6563" stop-color="rgb(53,53,53)"/>
  <stop offset="0.6875" stop-color="rgb(51,51,51)"/>
  <stop offset="0.7188" stop-color="rgb(49,49,49)"/>
  <stop offset="0.7500" stop-color="rgb(47,47,47)"/>
  <stop offset="0.7813" stop-color="rgb(45,45,45)"/>
  <stop offset="0.8125" stop-color="rgb(43,43,43)"/>
  <stop offset="0.8438" stop-color="rgb(42,42,42)"/>
  <stop offset="0.8750" stop-color="rgb(40,40,40)"/>
  <stop offset="0.9063" stop-color="rgb(38,38,38)"/>
  <stop offset="0.9375" stop-color="rgb(36,36,36)"/>
  <stop offset="0.9688" stop-color="rgb(34,34,34)"/>
  <stop offset="1.0000" stop-color="rgb(0,0,0)"/>
</radialGradient></defs>
<circle cx="860" cy="140" r="81" fill="url(#g_UGC06614)"/>
<text x="860" y="49" text-anchor="middle" class="preview-lbl">face-on luminance from ρ(r)</text>
<text x="860" y="239" text-anchor="middle" class="preview-lbl">edge at r = 64.6 kpc</text>
</svg>