<svg xmlns="http://www.w3.org/2000/svg" viewBox="0 0 960 450" width="960" height="450" font-family="sans-serif" font-size="12">
<style>
  .ax { stroke: #333; stroke-width: 1; fill: none; }
  .grid { stroke: #ddd; stroke-width: 0.5; fill: none; }
  .lbl { fill: #333; }
  .lbl-l { fill: #0066cc; }
  .lbl-r { fill: #b03030; }
  .obs { fill: #222; }
  .err { stroke: #555; stroke-width: 0.8; fill: none; }
  .fw { stroke: #0066cc; stroke-width: 2.2; fill: none; }
  .nt { stroke: #cc6600; stroke-width: 1.6; fill: none; stroke-dasharray: 5,3; }
  .mond { stroke: #7b2cbf; stroke-width: 1.8; fill: none; stroke-dasharray: 7,3; }
  .lbl-p { fill: #cc7000; }
  .lbl-m { fill: #7b2cbf; }
  .rho { stroke: #b03030; stroke-width: 2.0; fill: none; }
  .phot { stroke: #cc7000; stroke-width: 1.8; fill: none; }
  .mbar { stroke: #8e44ad; stroke-width: 1.8; fill: none; opacity: 0.9; }
  .mph { stroke: #c77dff; stroke-width: 1.6; fill: none; stroke-dasharray: 4,3; opacity: 0.95; }
  .title { fill: #111; font-size: 16px; font-weight: 600; }
  .subtitle { fill: #555; font-size: 11px; }
  .preview-bg { fill: #000; }
  .preview-lbl { fill: #888; font-size: 10px; }
  .legend { font-size: 11px; }
</style>
<text x="378.5" y="22" text-anchor="middle" class="title">UGC06973</text>
<text x="378.5" y="38" text-anchor="middle" class="subtitle">rMax=7.8 kpc, N=9, FW=1.6 km/s, 0.9%, 0.23σ, MOND=42.9 km/s, 25.1%, 9.54σ, amp=104</text>
<line x1="70" y1="395.0" x2="687" y2="395.0" class="grid"/>
<text x="64" y="399.0" text-anchor="end" class="lbl-l">0</text>
<line x1="70" y1="327.0" x2="687" y2="327.0" class="grid"/>
<text x="64" y="331.0" text-anchor="end" class="lbl-l">58</text>
<line x1="70" y1="259.0" x2="687" y2="259.0" class="grid"/>
<text x="64" y="263.0" text-anchor="end" class="lbl-l">117</text>
<line x1="70" y1="191.0" x2="687" y2="191.0" class="grid"/>
<text x="64" y="195.0" text-anchor="end" class="lbl-l">175</text>
<line x1="70" y1="123.0" x2="687" y2="123.0" class="grid"/>
<text x="64" y="127.0" text-anchor="end" class="lbl-l">233</text>
<line x1="70" y1="55.0" x2="687" y2="55.0" class="grid"/>
<text x="64" y="59.0" text-anchor="end" class="lbl-l">291</text>
<text x="693" y="399.0" text-anchor="start" class="lbl-r">0.0</text>
<text x="693" y="353.7" text-anchor="start" class="lbl-r">0.2</text>
<text x="693" y="308.3" text-anchor="start" class="lbl-r">0.4</text>
<text x="693" y="263.0" text-anchor="start" class="lbl-r">0.6</text>
<text x="693" y="217.7" text-anchor="start" class="lbl-r">0.8</text>
<text x="693" y="172.3" text-anchor="start" class="lbl-r">1.0</text>
<line x1="70.0" y1="55" x2="70.0" y2="395" class="grid"/>
<text x="70.0" y="411" text-anchor="middle" class="lbl">0.0</text>
<line x1="172.8" y1="55" x2="172.8" y2="395" class="grid"/>
<text x="172.8" y="411" text-anchor="middle" class="lbl">1.4</text>
<line x1="275.7" y1="55" x2="275.7" y2="395" class="grid"/>
<text x="275.7" y="411" text-anchor="middle" class="lbl">2.8</text>
<line x1="378.5" y1="55" x2="378.5" y2="395" class="grid"/>
<text x="378.5" y="411" text-anchor="middle" class="lbl">4.1</text>
<line x1="481.3" y1="55" x2="481.3" y2="395" class="grid"/>
<text x="481.3" y="411" text-anchor="middle" class="lbl">5.5</text>
<line x1="584.2" y1="55" x2="584.2" y2="395" class="grid"/>
<text x="584.2" y="411" text-anchor="middle" class="lbl">6.9</text>
<line x1="687.0" y1="55" x2="687.0" y2="395" class="grid"/>
<text x="687.0" y="411" text-anchor="middle" class="lbl">8.3</text>
<text x="378.5" y="438" text-anchor="middle" class="lbl">radius (kpc)</text>
<text x="16" y="225" text-anchor="middle" class="lbl-l" transform="rotate(-90, 16, 225)">velocity (km/s)</text>
<text x="724" y="225" text-anchor="middle" class="lbl-r" transform="rotate(-90, 724, 225)">profiles (normalized to peak)</text>
<rect x="70" y="55" width="617" height="340" class="ax"/>
<path d="M 70.0,168.3 L 72.8,169.8 L 75.6,171.2 L 78.5,172.7 L 81.3,174.1 L 84.1,175.5 L 86.9,177.0 L 89.7,178.4 L 92.5,179.9 L 95.4,181.3 L 98.2,182.8 L 101.0,184.2 L 103.8,185.6 L 106.6,187.1 L 109.4,188.5 L 112.3,190.0 L 115.1,191.4 L 117.9,192.9 L 120.7,194.3 L 123.5,195.7 L 126.3,197.2 L 129.2,198.6 L 132.0,201.3 L 134.8,204.4 L 137.6,207.4 L 140.4,210.5 L 143.3,213.6 L 146.1,216.7 L 148.9,219.7 L 151.7,222.8 L 154.5,225.9 L 157.3,228.9 L 160.2,232.0 L 163.0,235.1 L 165.8,238.1 L 168.6,241.2 L 171.4,244.3 L 174.2,247.3 L 177.1,250.4 L 179.9,253.5 L 182.7,256.5 L 185.5,259.6 L 188.3,262.7 L 191.1,265.7 L 194.0,268.8 L 196.8,271.9 L 199.6,274.9 L 202.4,277.3 L 205.2,278.2 L 208.1,279.1 L 210.9,279.9 L 213.7,280.8 L 216.5,281.7 L 219.3,282.5 L 222.1,283.4 L 225.0,284.3 L 227.8,285.1 L 230.6,286.0 L 233.4,286.9 L 236.2,287.7 L 239.0,288.6 L 241.9,289.5 L 244.7,290.3 L 247.5,291.2 L 250.3,292.1 L 253.1,292.9 L 255.9,293.8 L 258.8,294.7 L 261.6,295.5 L 264.4,296.4 L 267.2,297.3 L 270.0,298.1 L 272.8,299.0 L 275.7,299.9 L 278.5,300.7 L 281.3,301.6 L 284.1,302.5 L 286.9,303.3 L 289.8,304.2 L 292.6,305.1 L 295.4,305.9 L 298.2,306.8 L 301.0,307.7 L 303.8,308.1 L 306.7,308.4 L 309.5,308.7 L 312.3,309.1 L 315.1,309.4 L 317.9,309.7 L 320.7,310.1 L 323.6,310.4 L 326.4,310.7 L 329.2,311.1 L 332.0,311.4 L 334.8,311.7 L 337.6,312.1 L 340.5,312.4 L 343.3,312.7 L 346.1,313.0 L 348.9,313.4 L 351.7,313.7 L 354.6,314.0 L 357.4,314.4 L 360.2,314.7 L 363.0,315.0 L 365.8,315.4 L 368.6,315.7 L 371.5,316.0 L 374.3,316.4 L 377.1,316.7 L 379.9,317.0 L 382.7,317.4 L 385.5,317.7 L 388.4,318.0 L 391.2,318.3 L 394.0,318.7 L 396.8,319.0 L 399.6,319.3 L 402.4,319.7 L 405.3,320.0 L 408.1,320.3 L 410.9,320.7 L 413.7,321.0 L 416.5,321.3 L 419.4,321.7 L 422.2,322.0 L 425.0,322.3 L 427.8,322.7 L 430.6,323.0 L 433.4,323.3 L 436.3,323.6 L 439.1,324.0 L 441.9,324.3 L 444.7,324.6 L 447.5,325.0 L 450.3,325.3 L 453.2,325.6 L 456.0,326.0 L 458.8,326.3 L 461.6,326.6 L 464.4,327.0 L 467.2,327.3 L 470.1,327.6 L 472.9,328.0 L 475.7,328.3 L 478.5,328.6 L 481.3,328.9 L 484.2,329.3 L 487.0,329.6 L 489.8,329.9 L 492.6,330.3 L 495.4,330.6 L 498.2,330.9 L 501.1,331.3 L 503.9,331.6 L 506.7,331.9 L 509.5,332.3 L 512.3,332.6 L 515.1,332.9 L 518.0,333.2 L 520.8,333.6 L 523.6,333.9 L 526.4,334.2 L 529.2,334.6 L 532.0,334.9 L 534.9,335.2 L 537.7,335.6 L 540.5,335.9 L 543.3,336.2 L 546.1,336.6 L 548.9,336.9 L 551.8,337.2 L 554.6,337.6 L 557.4,337.9 L 560.2,338.2 L 563.0,338.5 L 565.9,338.9 L 568.7,339.2 L 571.5,339.5 L 574.3,339.9 L 577.1,340.2 L 579.9,340.5 L 582.8,340.9 L 585.6,341.2 L 588.4,341.5 L 591.2,341.9 L 594.0,342.2 L 596.8,342.5 L 599.7,342.9 L 602.5,343.2 L 605.3,343.5 L 608.1,343.8 L 610.9,344.2 L 613.7,344.5 L 616.6,344.8 L 619.4,345.2 L 622.2,345.5 L 625.0,345.8 L 627.8,346.2 L 630.7,346.5 L 633.5,346.8 L 636.3,347.2 L 639.1,347.5 L 641.9,347.8 L 644.7,348.2 L 647.6,348.5 L 650.4,348.8 L 653.2,360.1 L 656.0,382.3 L 658.8,395.0 L 661.6,395.0 L 664.5,395.0 L 667.3,395.0 L 670.1,395.0 L 672.9,395.0 L 675.7,395.0 L 678.5,395.0 L 681.4,395.0 L 684.2,395.0 L 687.0,395.0" class="rho"/>
<path d="M 199.5,168.3 L 264.3,358.6 L 330.6,384.8 L 395.4,390.1 L 466.1,392.5 L 537.6,394.1 L 577.0,394.5 L 615.7,394.6 L 654.5,394.7" class="phot"/>
<path d="M 199.5,168.3 L 264.3,308.7 L 330.6,385.3 L 395.4,392.1 L 466.1,393.5 L 537.6,393.8 L 577.0,394.7 L 615.7,395.0 L 654.5,395.0" class="mbar"/>
<path d="M 199.5,230.1 L 264.3,182.7 L 330.6,168.3 L 395.4,189.2 L 466.1,213.8 L 537.6,235.8 L 577.0,252.8 L 615.7,264.5 L 654.5,271.2" class="mph"/>
<path d="M 76.2,353.5 L 82.3,336.5 L 88.5,323.7 L 94.7,313.1 L 100.8,303.9 L 107.0,295.7 L 113.2,288.3 L 119.4,281.5 L 125.5,275.2 L 131.7,269.3 L 137.9,264.1 L 144.0,259.3 L 150.2,254.9 L 156.4,251.0 L 162.6,247.4 L 168.7,244.1 L 174.9,241.1 L 181.1,238.5 L 187.2,236.1 L 193.4,233.9 L 199.6,232.0 L 205.7,230.3 L 211.9,228.6 L 218.1,227.0 L 224.3,225.3 L 230.4,223.7 L 236.6,222.1 L 242.8,220.6 L 248.9,219.1 L 255.1,217.6 L 261.3,216.2 L 267.4,214.8 L 273.6,213.5 L 279.8,212.2 L 285.9,211.0 L 292.1,209.8 L 298.3,208.7 L 304.5,207.6 L 310.6,206.5 L 316.8,205.4 L 323.0,204.3 L 329.1,203.2 L 335.3,202.1 L 341.5,201.1 L 347.7,200.0 L 353.8,199.0 L 360.0,197.9 L 366.2,196.9 L 372.3,195.9 L 378.5,194.9 L 384.7,193.9 L 390.8,192.9 L 397.0,191.9 L 403.2,191.0 L 409.4,190.1 L 415.5,189.1 L 421.7,188.2 L 427.9,187.3 L 434.0,186.5 L 440.2,185.6 L 446.4,184.7 L 452.5,183.9 L 458.7,183.1 L 464.9,182.3 L 471.1,181.5 L 477.2,180.7 L 483.4,180.0 L 489.6,179.3 L 495.7,178.5 L 501.9,177.8 L 508.1,177.1 L 514.2,176.5 L 520.4,175.8 L 526.6,175.2 L 532.8,174.5 L 538.9,173.9 L 545.1,173.3 L 551.3,172.7 L 557.4,172.2 L 563.6,171.6 L 569.8,171.1 L 575.9,170.6 L 582.1,170.1 L 588.3,169.6 L 594.5,169.1 L 600.6,168.6 L 606.8,168.2 L 613.0,167.8 L 619.1,167.4 L 625.3,167.0 L 631.5,166.6 L 637.6,166.2 L 643.8,165.9 L 650.0,165.5 L 656.2,165.6 L 662.3,166.8 L 668.5,167.9 L 674.7,169.1 L 680.8,170.3 L 687.0,171.4" class="nt"/>
<path d="M 199.5,85.9 L 264.3,122.4 L 330.6,143.0 L 395.4,159.1 L 466.1,168.6 L 537.6,175.7 L 577.0,179.5 L 615.7,183.0 L 654.5,185.9" class="mond"/>
<path d="M 75.1,380.6 L 80.3,369.8 L 85.4,357.7 L 90.6,345.8 L 95.7,334.0 L 100.8,322.6 L 106.0,311.5 L 111.1,300.6 L 116.3,290.1 L 121.4,279.8 L 126.6,270.0 L 131.7,260.6 L 136.8,251.7 L 142.0,243.5 L 147.1,235.9 L 152.3,228.9 L 157.4,222.7 L 162.6,217.2 L 167.7,212.3 L 172.8,208.1 L 178.0,204.6 L 183.1,201.8 L 188.3,199.6 L 193.4,198.0 L 198.5,196.9 L 203.7,196.2 L 208.8,195.7 L 214.0,195.4 L 219.1,195.2 L 224.3,195.0 L 229.4,194.8 L 234.5,194.6 L 239.7,194.3 L 244.8,194.1 L 250.0,193.8 L 255.1,193.6 L 260.2,193.4 L 265.4,193.2 L 270.5,193.2 L 275.7,193.2 L 280.8,193.3 L 286.0,193.5 L 291.1,193.8 L 296.2,194.2 L 301.4,194.7 L 306.5,195.2 L 311.7,195.7 L 316.8,196.2 L 321.9,196.6 L 327.1,196.9 L 332.2,197.2 L 337.4,197.5 L 342.5,197.6 L 347.7,197.8 L 352.8,197.9 L 357.9,197.9 L 363.1,197.9 L 368.2,197.9 L 373.4,197.9 L 378.5,197.8 L 383.6,197.7 L 388.8,197.6 L 393.9,197.5 L 399.1,197.4 L 404.2,197.2 L 409.4,197.1 L 414.5,196.9 L 419.6,196.8 L 424.8,196.6 L 429.9,196.4 L 435.1,196.3 L 440.2,196.1 L 445.3,195.9 L 450.5,195.7 L 455.6,195.6 L 460.8,195.4 L 465.9,195.2 L 471.0,195.0 L 476.2,194.9 L 481.3,194.7 L 486.5,194.5 L 491.6,194.4 L 496.8,194.2 L 501.9,194.0 L 507.0,193.9 L 512.2,193.7 L 517.3,193.5 L 522.5,193.3 L 527.6,193.1 L 532.8,192.9 L 537.9,192.7 L 543.0,192.5 L 548.2,192.3 L 553.3,192.0 L 558.5,191.7 L 563.6,191.4 L 568.7,191.0 L 573.9,190.7 L 579.0,190.2 L 584.2,189.7 L 589.3,189.2 L 594.4,188.5 L 599.6,187.8 L 604.7,187.0 L 609.9,186.1 L 615.0,185.1 L 620.2,183.9 L 625.3,182.8 L 630.4,181.6 L 635.6,180.5 L 640.7,179.7 L 645.9,179.4 L 651.0,179.9 L 656.2,181.3 L 661.3,183.6 L 666.4,186.6 L 671.6,190.1 L 676.7,193.9 L 681.9,197.9 L 687.0,201.7" class="fw"/>
<line x1="199.55" y1="191.22" x2="199.55" y2="202.18" class="err"/>
<line x1="196.55" y1="191.22" x2="202.55" y2="191.22" class="err"/>
<line x1="196.55" y1="202.18" x2="202.55" y2="202.18" class="err"/>
<circle cx="199.55" cy="196.70" r="2.5" class="obs"/>
<line x1="264.32" y1="187.14" x2="264.32" y2="196.93" class="err"/>
<line x1="261.32" y1="187.14" x2="267.32" y2="187.14" class="err"/>
<line x1="261.32" y1="196.93" x2="267.32" y2="196.93" class="err"/>
<circle cx="264.32" cy="192.03" r="2.5" class="obs"/>
<line x1="330.59" y1="191.80" x2="330.59" y2="201.60" class="err"/>
<line x1="327.59" y1="191.80" x2="333.59" y2="191.80" class="err"/>
<line x1="327.59" y1="201.60" x2="333.59" y2="201.60" class="err"/>
<circle cx="330.59" cy="196.70" r="2.5" class="obs"/>
<line x1="395.36" y1="191.68" x2="395.36" y2="201.72" class="err"/>
<line x1="392.36" y1="191.68" x2="398.36" y2="191.68" class="err"/>
<line x1="392.36" y1="201.72" x2="398.36" y2="201.72" class="err"/>
<circle cx="395.36" cy="196.70" r="2.5" class="obs"/>
<line x1="466.09" y1="189.94" x2="466.09" y2="201.13" class="err"/>
<line x1="463.09" y1="189.94" x2="469.09" y2="189.94" class="err"/>
<line x1="463.09" y1="201.13" x2="469.09" y2="201.13" class="err"/>
<circle cx="466.09" cy="195.53" r="2.5" class="obs"/>
<line x1="537.57" y1="186.32" x2="537.57" y2="197.75" class="err"/>
<line x1="534.57" y1="186.32" x2="540.57" y2="186.32" class="err"/>
<line x1="534.57" y1="197.75" x2="540.57" y2="197.75" class="err"/>
<circle cx="537.57" cy="192.03" r="2.5" class="obs"/>
<line x1="577.03" y1="176.75" x2="577.03" y2="200.32" class="err"/>
<line x1="574.03" y1="176.75" x2="580.03" y2="176.75" class="err"/>
<line x1="574.03" y1="200.32" x2="580.03" y2="200.32" class="err"/>
<circle cx="577.03" cy="188.54" r="2.5" class="obs"/>
<line x1="615.74" y1="180.02" x2="615.74" y2="194.72" class="err"/>
<line x1="612.74" y1="180.02" x2="618.74" y2="180.02" class="err"/>
<line x1="612.74" y1="194.72" x2="618.74" y2="194.72" class="err"/>
<circle cx="615.74" cy="187.37" r="2.5" class="obs"/>
<line x1="654.46" y1="176.05" x2="654.46" y2="194.02" class="err"/>
<line x1="651.46" y1="176.05" x2="657.46" y2="176.05" class="err"/>
<line x1="651.46" y1="194.02" x2="657.46" y2="194.02" class="err"/>
<circle cx="654.46" cy="185.04" r="2.5" class="obs"/>
<g class="legend">
<line x1="82" y1="69" x2="106" y2="69" class="fw"/>
<text x="112" y="73" class="lbl-l">framework: 1.6 km/s, 0.9%, 0.23σ</text>
<line x1="82" y1="87" x2="106" y2="87" class="nt"/>
<text x="112" y="91" class="lbl-l">Newtonian: 16.8 km/s, 9.7%, 3.28σ</text>
<line x1="82" y1="105" x2="106" y2="105" class="mond"/>
<text x="112" y="109" class="lbl-m">MOND/RAR: 42.9 km/s, 25.1%, 9.54σ</text>
<circle cx="94" cy="123" r="2.5" class="obs"/>
<text x="112" y="127" class="lbl">observed V±err</text>
</g>
<g class="legend">
<line x1="472" y1="69" x2="496" y2="69" class="rho"/>
<text x="502" y="73" class="lbl-r">ρ(r) raw</text>
<line x1="472" y1="87" x2="496" y2="87" class="phot"/>
<text x="502" y="91" class="lbl-p">photometric baryonic profile</text>
<line x1="472" y1="105" x2="496" y2="105" class="mbar"/>
<text x="502" y="109" class="lbl-m">MOND baryonic annulus</text>
<line x1="472" y1="123" x2="496" y2="123" class="mph"/>
<text x="502" y="127" class="lbl-m">MOND phantom annulus</text>
<text x="472" y="147" class="lbl-r">ρ peak: 1143 M☉/pc²</text>
<text x="472" y="163" class="lbl-p">phot peak: 1126.10 (arb.)</text>
<text x="472" y="179" class="lbl-m">Σbar peak: 2201.18 M☉/pc²</text>
<text x="472" y="195" class="lbl-m">Σphantom peak: 189.99 M☉/pc²</text>
</g>
<rect x="775" y="55" width="170" height="170" class="preview-bg"/>
<defs><radialGradient id="g_UGC06973" cx="0.5" cy="0.5" r="0.5">
  <stop offset="0.0000" stop-color="rgb(255,255,255)"/>
  <stop offset="0.0313" stop-color="rgb(255,255,255)"/>
  <stop offset="0.0625" stop-color="rgb(255,255,255)"/>
  <stop offset="0.0938" stop-color="rgb(255,255,255)"/>
  <stop offset="0.1250" stop-color="rgb(255,255,255)"/>
  <stop offset="0.1563" stop-color="rgb(255,255,255)"/>
  <stop offset="0.1875" stop-color="rgb(231,231,231)"/>
  <stop offset="0.2188" stop-color="rgb(203,203,203)"/>
  <stop offset="0.2500" stop-color="rgb(192,192,192)"/>
  <stop offset="0.2813" stop-color="rgb(185,185,185)"/>
  <stop offset="0.3125" stop-color="rgb(177,177,177)"/>
  <stop offset="0.3438" stop-color="rgb(169,169,169)"/>
  <stop offset="0.3750" stop-color="rgb(161,161,161)"/>
  <stop offset="0.4063" stop-color="rgb(155,155,155)"/>
  <stop offset="0.4375" stop-color="rgb(152,152,152)"/>
  <stop offset="0.4688" stop-color="rgb(149,149,149)"/>
  <stop offset="0.5000" stop-color="rgb(146,146,146)"/>
  <stop offset="0.5313" stop-color="rgb(143,143,143)"/>
  <stop offset="0.5625" stop-color="rgb(140,140,140)"/>
  <stop offset="0.5938" stop-color="rgb(138,138,138)"/>
  <stop offset="0.6250" stop-color="rgb(135,135,135)"/>
  <stop offset="0.6563" stop-color="rgb(132,132,132)"/>
  <stop offset="0.6875" stop-color="rgb(129,129,129)"/>
  <stop offset="0.7188" stop-color="rgb(126,126,126)"/>
  <stop offset="0.7500" stop-color="rgb(123,123,123)"/>
  <stop offset="0.7813" stop-color="rgb(120,120,120)"/>
  <stop offset="0.8125" stop-color="rgb(117,117,117)"/>
  <stop offset="0.8438" stop-color="rgb(114,114,114)"/>
  <stop offset="0.8750" stop-color="rgb(111,111,111)"/>
  <stop offset="0.9063" stop-color="rgb(108,108,108)"/>
  <stop offset="0.9375" stop-color="rgb(105,105,105)"/>
  <stop offset="0.9688" stop-color="rgb(102,102,102)"/>
  <stop offset="1.0000" stop-color="rgb(0,0,0)"/>
</radialGradient></defs>
<circle cx="860" cy="140" r="81" fill="url(#g_UGC06973)"/>
<text x="860" y="49" text-anchor="middle" class="preview-lbl">face-on luminance from ρ(r)</text>
<text x="860" y="239" text-anchor="middle" class="preview-lbl">edge at r = 7.9 kpc</text>
</svg>