<svg xmlns="http://www.w3.org/2000/svg" viewBox="0 0 890 420" width="890" height="420" font-family="sans-serif" font-size="12">
<style>
  .ax { stroke: #333; stroke-width: 1; fill: none; }
  .grid { stroke: #ddd; stroke-width: 0.5; fill: none; }
  .lbl { fill: #333; }
  .lbl-l { fill: #0066cc; }
  .lbl-r { fill: #b03030; }
  .lbl-s { fill: #cc7000; }
  .obs { fill: #222; }
  .err { stroke: #555; stroke-width: 0.8; fill: none; }
  .fw { stroke: #0066cc; stroke-width: 2.2; fill: none; }
  .nt { stroke: #cc6600; stroke-width: 1.6; fill: none; stroke-dasharray: 5,3; }
  .rho { stroke: #b03030; stroke-width: 2.0; fill: none; }
  .sig { stroke: #cc7000; stroke-width: 1.8; fill: none; }
  .title { fill: #111; font-size: 16px; font-weight: 600; }
  .subtitle { fill: #555; font-size: 11px; }
  .legend { font-size: 11px; }
  .preview-bg { fill: #000; }
  .preview-lbl { fill: #888; font-size: 10px; }
</style>
<text x="343.5" y="22" text-anchor="middle" class="title">UGC11455</text>
<text x="343.5" y="38" text-anchor="middle" class="subtitle">rMax=41.9 kpc, N=36, RMS=11.0 km/s (4.8%), amp=834</text>
<line x1="70" y1="365.0" x2="617" y2="365.0" class="grid"/>
<text x="64" y="369.0" text-anchor="end" class="lbl-l">0</text>
<line x1="70" y1="303.0" x2="617" y2="303.0" class="grid"/>
<text x="64" y="307.0" text-anchor="end" class="lbl-l">70</text>
<line x1="70" y1="241.0" x2="617" y2="241.0" class="grid"/>
<text x="64" y="245.0" text-anchor="end" class="lbl-l">140</text>
<line x1="70" y1="179.0" x2="617" y2="179.0" class="grid"/>
<text x="64" y="183.0" text-anchor="end" class="lbl-l">210</text>
<line x1="70" y1="116.99999999999999" x2="617" y2="116.99999999999999" class="grid"/>
<text x="64" y="120.99999999999999" text-anchor="end" class="lbl-l">280</text>
<line x1="70" y1="55.0" x2="617" y2="55.0" class="grid"/>
<text x="64" y="59.0" text-anchor="end" class="lbl-l">350</text>
<text x="623" y="369.0" text-anchor="start" class="lbl-r">0.0</text>
<text x="623" y="327.6666666666667" text-anchor="start" class="lbl-r">0.2</text>
<text x="623" y="286.33333333333337" text-anchor="start" class="lbl-r">0.4</text>
<text x="623" y="245.00000000000003" text-anchor="start" class="lbl-r">0.6</text>
<text x="623" y="203.66666666666666" text-anchor="start" class="lbl-r">0.8</text>
<text x="623" y="162.33333333333334" text-anchor="start" class="lbl-r">1.0</text>
<line x1="70.0" y1="55" x2="70.0" y2="365" class="grid"/>
<text x="70.0" y="381" text-anchor="middle" class="lbl">0.0</text>
<line x1="161.16666666666669" y1="55" x2="161.16666666666669" y2="365" class="grid"/>
<text x="161.16666666666669" y="381" text-anchor="middle" class="lbl">8.2</text>
<line x1="252.33333333333334" y1="55" x2="252.33333333333334" y2="365" class="grid"/>
<text x="252.33333333333334" y="381" text-anchor="middle" class="lbl">16.5</text>
<line x1="343.5" y1="55" x2="343.5" y2="365" class="grid"/>
<text x="343.5" y="381" text-anchor="middle" class="lbl">24.7</text>
<line x1="434.6666666666667" y1="55" x2="434.6666666666667" y2="365" class="grid"/>
<text x="434.6666666666667" y="381" text-anchor="middle" class="lbl">33.0</text>
<line x1="525.8333333333334" y1="55" x2="525.8333333333334" y2="365" class="grid"/>
<text x="525.8333333333334" y="381" text-anchor="middle" class="lbl">41.2</text>
<line x1="617.0" y1="55" x2="617.0" y2="365" class="grid"/>
<text x="617.0" y="381" text-anchor="middle" class="lbl">49.5</text>
<text x="343.5" y="397" text-anchor="middle" class="lbl">radius (kpc)</text>
<text x="16" y="210.0" text-anchor="middle" class="lbl-l" transform="rotate(-90, 16, 210.0)">velocity (km/s)</text>
<text x="661" y="210.0" text-anchor="middle" class="lbl-r" transform="rotate(-90, 661, 210.0)">mass profile (normalized to peak)</text>
<rect x="70" y="55" width="547" height="310" class="ax"/>
<path d="M 70.0,158.3 L 72.5,158.3 L 75.0,158.3 L 77.5,158.3 L 80.0,158.3 L 82.5,158.3 L 85.0,158.3 L 87.5,158.3 L 90.0,158.3 L 92.5,158.3 L 95.0,158.3 L 97.5,160.8 L 100.0,168.4 L 102.5,175.9 L 105.0,183.5 L 107.5,185.4 L 110.0,186.5 L 112.5,187.5 L 115.0,188.6 L 117.5,189.7 L 120.0,190.8 L 122.5,191.9 L 124.9,193.0 L 127.4,194.1 L 129.9,195.1 L 132.4,196.2 L 134.9,197.3 L 137.4,198.4 L 139.9,199.5 L 142.4,200.6 L 144.9,201.7 L 147.4,202.7 L 149.9,203.8 L 152.4,204.9 L 154.9,206.0 L 157.4,207.1 L 159.9,208.2 L 162.4,209.3 L 164.9,210.3 L 167.4,211.4 L 169.9,212.5 L 172.4,213.6 L 174.9,214.7 L 177.4,215.8 L 179.9,216.9 L 182.4,217.9 L 184.9,219.0 L 187.4,220.1 L 189.9,221.2 L 192.4,222.3 L 194.9,223.4 L 197.4,224.5 L 199.9,225.5 L 202.4,226.6 L 204.9,227.7 L 207.4,228.8 L 209.9,229.9 L 212.4,231.0 L 214.9,232.1 L 217.4,233.1 L 219.9,234.2 L 222.4,235.3 L 224.9,236.4 L 227.4,237.5 L 229.9,238.6 L 232.4,239.7 L 234.8,240.7 L 237.3,241.8 L 239.8,242.9 L 242.3,244.0 L 244.8,245.1 L 247.3,246.2 L 249.8,247.3 L 252.3,248.3 L 254.8,249.4 L 257.3,250.5 L 259.8,251.6 L 262.3,252.7 L 264.8,253.8 L 267.3,254.9 L 269.8,255.9 L 272.3,257.0 L 274.8,258.1 L 277.3,259.2 L 279.8,260.3 L 282.3,261.4 L 284.8,262.5 L 287.3,263.5 L 289.8,264.6 L 292.3,265.7 L 294.8,266.8 L 297.3,267.9 L 299.8,269.0 L 302.3,270.1 L 304.8,271.1 L 307.3,271.6 L 309.8,272.1 L 312.3,272.5 L 314.8,273.0 L 317.3,273.4 L 319.8,273.9 L 322.3,274.3 L 324.8,274.8 L 327.3,275.2 L 329.8,275.6 L 332.3,276.1 L 334.8,276.5 L 337.3,277.0 L 339.8,277.4 L 342.3,277.9 L 344.7,278.3 L 347.2,278.8 L 349.7,279.2 L 352.2,279.7 L 354.7,280.1 L 357.2,280.5 L 359.7,281.0 L 362.2,281.4 L 364.7,281.9 L 367.2,282.3 L 369.7,282.8 L 372.2,283.2 L 374.7,283.7 L 377.2,284.1 L 379.7,284.6 L 382.2,285.0 L 384.7,285.4 L 387.2,285.9 L 389.7,286.3 L 392.2,286.8 L 394.7,287.2 L 397.2,287.7 L 399.7,288.1 L 402.2,288.6 L 404.7,289.0 L 407.2,289.4 L 409.7,289.9 L 412.2,290.3 L 414.7,290.8 L 417.2,291.2 L 419.7,291.7 L 422.2,292.1 L 424.7,292.6 L 427.2,293.0 L 429.7,293.5 L 432.2,293.9 L 434.7,294.3 L 437.2,294.8 L 439.7,295.2 L 442.2,295.7 L 444.7,296.1 L 447.2,296.6 L 449.7,297.0 L 452.2,297.5 L 454.6,297.9 L 457.1,298.4 L 459.6,298.8 L 462.1,299.2 L 464.6,299.7 L 467.1,300.1 L 469.6,300.6 L 472.1,301.0 L 474.6,301.5 L 477.1,301.9 L 479.6,302.4 L 482.1,302.8 L 484.6,303.2 L 487.1,303.7 L 489.6,304.1 L 492.1,304.6 L 494.6,305.0 L 497.1,305.5 L 499.6,305.9 L 502.1,306.4 L 504.6,306.8 L 507.1,307.3 L 509.6,307.7 L 512.1,308.1 L 514.6,308.6 L 517.1,309.0 L 519.6,309.8 L 522.1,311.7 L 524.6,313.6 L 527.1,315.6 L 529.6,317.5 L 532.1,319.4 L 534.6,321.4 L 537.1,323.3 L 539.6,325.2 L 542.1,327.2 L 544.6,329.1 L 547.1,331.0 L 549.6,333.0 L 552.1,334.9 L 554.6,336.8 L 557.1,338.8 L 559.6,340.7 L 562.1,342.6 L 564.5,344.6 L 567.0,346.5 L 569.5,348.4 L 572.0,350.4 L 574.5,352.3 L 577.0,354.2 L 579.5,356.2 L 582.0,358.1 L 584.5,360.0 L 587.0,362.0 L 589.5,363.9 L 592.0,365.0 L 594.5,365.0 L 597.0,365.0 L 599.5,365.0 L 602.0,365.0 L 604.5,365.0 L 607.0,365.0 L 609.5,365.0 L 612.0,365.0 L 614.5,365.0 L 617.0,365.0" class="rho"/>
<path d="M 70.0,158.3 L 72.5,158.5 L 75.0,158.7 L 77.5,159.0 L 80.0,159.4 L 82.5,159.9 L 85.0,160.6 L 87.5,161.4 L 90.0,162.2 L 92.5,163.2 L 95.0,164.3 L 97.5,165.5 L 100.0,166.7 L 102.5,168.0 L 105.0,169.4 L 107.5,170.8 L 110.0,172.2 L 112.5,173.7 L 115.0,175.2 L 117.5,176.6 L 120.0,178.1 L 122.5,179.7 L 124.9,181.2 L 127.4,182.7 L 129.9,184.3 L 132.4,185.8 L 134.9,187.4 L 137.4,189.0 L 139.9,190.6 L 142.4,192.2 L 144.9,193.8 L 147.4,195.4 L 149.9,197.0 L 152.4,198.6 L 154.9,200.3 L 157.4,201.9 L 159.9,203.6 L 162.4,205.2 L 164.9,206.9 L 167.4,208.6 L 169.9,210.2 L 172.4,211.9 L 174.9,213.6 L 177.4,215.2 L 179.9,216.9 L 182.4,218.6 L 184.9,220.3 L 187.4,222.0 L 189.9,223.6 L 192.4,225.3 L 194.9,227.0 L 197.4,228.6 L 199.9,230.3 L 202.4,232.0 L 204.9,233.6 L 207.4,235.3 L 209.9,236.9 L 212.4,238.5 L 214.9,240.2 L 217.4,241.8 L 219.9,243.4 L 222.4,245.0 L 224.9,246.6 L 227.4,248.2 L 229.9,249.8 L 232.4,251.3 L 234.8,252.9 L 237.3,254.4 L 239.8,256.0 L 242.3,257.5 L 244.8,259.0 L 247.3,260.5 L 249.8,262.0 L 252.3,263.4 L 254.8,264.9 L 257.3,266.3 L 259.8,267.7 L 262.3,269.1 L 264.8,270.5 L 267.3,271.9 L 269.8,273.3 L 272.3,274.6 L 274.8,275.9 L 277.3,277.2 L 279.8,278.5 L 282.3,279.8 L 284.8,281.0 L 287.3,282.3 L 289.8,283.5 L 292.3,284.6 L 294.8,285.8 L 297.3,287.0 L 299.8,288.1 L 302.3,289.2 L 304.8,290.2 L 307.3,291.3 L 309.8,292.3 L 312.3,293.3 L 314.8,294.3 L 317.3,295.3 L 319.8,296.2 L 322.3,297.2 L 324.8,298.1 L 327.3,299.0 L 329.8,299.8 L 332.3,300.7 L 334.8,301.5 L 337.3,302.4 L 339.8,303.2 L 342.3,304.0 L 344.7,304.8 L 347.2,305.6 L 349.7,306.3 L 352.2,307.1 L 354.7,307.8 L 357.2,308.6 L 359.7,309.3 L 362.2,310.0 L 364.7,310.7 L 367.2,311.4 L 369.7,312.1 L 372.2,312.8 L 374.7,313.4 L 377.2,314.1 L 379.7,314.7 L 382.2,315.4 L 384.7,316.0 L 387.2,316.6 L 389.7,317.3 L 392.2,317.9 L 394.7,318.5 L 397.2,319.1 L 399.7,319.7 L 402.2,320.3 L 404.7,320.8 L 407.2,321.4 L 409.7,322.0 L 412.2,322.6 L 414.7,323.1 L 417.2,323.7 L 419.7,324.2 L 422.2,324.7 L 424.7,325.3 L 427.2,325.8 L 429.7,326.3 L 432.2,326.9 L 434.7,327.4 L 437.2,327.9 L 439.7,328.4 L 442.2,328.9 L 444.7,329.4 L 447.2,329.9 L 449.7,330.3 L 452.2,330.8 L 454.6,331.3 L 457.1,331.8 L 459.6,332.2 L 462.1,332.7 L 464.6,333.2 L 467.1,333.6 L 469.6,334.1 L 472.1,334.5 L 474.6,335.0 L 477.1,335.4 L 479.6,335.9 L 482.1,336.3 L 484.6,336.8 L 487.1,337.2 L 489.6,337.6 L 492.1,338.1 L 494.6,338.5 L 497.1,338.9 L 499.6,339.3 L 502.1,339.8 L 504.6,340.2 L 507.1,340.6 L 509.6,341.1 L 512.1,341.5 L 514.6,341.9 L 517.1,342.3 L 519.6,342.8 L 522.1,343.2 L 524.6,343.6 L 527.1,344.0 L 529.6,344.5 L 532.1,344.9 L 534.6,345.3 L 537.1,345.7 L 539.6,346.1 L 542.1,346.5 L 544.6,346.9 L 547.1,347.2 L 549.6,347.6 L 552.1,347.9 L 554.6,348.3 L 557.1,348.6 L 559.6,348.9 L 562.1,349.3 L 564.5,349.6 L 567.0,349.8 L 569.5,350.1 L 572.0,350.4 L 574.5,350.6 L 577.0,350.9 L 579.5,351.1 L 582.0,351.4 L 584.5,351.6 L 587.0,351.8 L 589.5,352.0 L 592.0,352.2 L 594.5,352.4 L 597.0,352.6 L 599.5,352.8 L 602.0,352.9 L 604.5,353.1 L 607.0,353.3 L 609.5,353.4 L 612.0,353.6 L 614.5,353.8 L 617.0,353.9" class="sig"/>
<path d="M 75.5,317.4 L 80.9,297.7 L 86.4,282.6 L 91.9,269.8 L 97.3,258.6 L 102.8,249.4 L 108.3,241.9 L 113.8,234.9 L 119.2,228.4 L 124.7,222.1 L 130.2,216.2 L 135.6,210.6 L 141.1,205.3 L 146.6,200.3 L 152.1,195.5 L 157.5,190.9 L 163.0,186.5 L 168.5,182.3 L 173.9,178.3 L 179.4,174.4 L 184.9,170.7 L 190.3,167.2 L 195.8,163.8 L 201.3,160.6 L 206.8,157.5 L 212.2,154.5 L 217.7,151.6 L 223.2,148.8 L 228.6,146.2 L 234.1,143.7 L 239.6,141.3 L 245.0,138.9 L 250.5,136.7 L 256.0,134.6 L 261.4,132.5 L 266.9,130.6 L 272.4,128.7 L 277.9,127.0 L 283.3,125.3 L 288.8,123.7 L 294.3,122.2 L 299.7,120.7 L 305.2,119.4 L 310.7,118.1 L 316.1,116.8 L 321.6,115.5 L 327.1,114.2 L 332.6,113.0 L 338.0,111.7 L 343.5,110.5 L 349.0,109.3 L 354.4,108.2 L 359.9,107.0 L 365.4,105.9 L 370.8,104.8 L 376.3,103.7 L 381.8,102.7 L 387.3,101.7 L 392.7,100.6 L 398.2,99.7 L 403.7,98.7 L 409.1,97.8 L 414.6,96.8 L 420.1,95.9 L 425.5,95.1 L 431.0,94.2 L 436.5,93.4 L 442.0,92.6 L 447.4,91.8 L 452.9,91.1 L 458.4,90.4 L 463.8,89.7 L 469.3,89.0 L 474.8,88.3 L 480.2,87.7 L 485.7,87.1 L 491.2,86.5 L 496.7,85.9 L 502.1,85.4 L 507.6,84.9 L 513.1,84.4 L 518.5,83.9 L 524.0,83.5 L 529.5,83.3 L 535.0,83.2 L 540.4,83.2 L 545.9,83.4 L 551.4,83.7 L 556.8,84.2 L 562.3,84.8 L 567.8,85.6 L 573.2,86.5 L 578.7,87.5 L 584.2,88.7 L 589.7,90.1 L 595.1,91.5 L 600.6,92.9 L 606.1,94.3 L 611.5,95.7 L 617.0,97.0" class="nt"/>
<path d="M 74.6,346.5 L 79.1,331.3 L 83.7,315.0 L 88.2,298.9 L 92.8,283.5 L 97.3,269.4 L 101.9,256.7 L 106.5,245.6 L 111.0,236.0 L 115.6,227.3 L 120.1,219.4 L 124.7,211.9 L 129.3,204.6 L 133.8,197.5 L 138.4,190.7 L 142.9,184.0 L 147.5,177.5 L 152.1,171.2 L 156.6,165.2 L 161.2,159.4 L 165.7,153.8 L 170.3,148.4 L 174.8,143.3 L 179.4,138.4 L 184.0,133.7 L 188.5,129.3 L 193.1,125.1 L 197.6,121.2 L 202.2,117.4 L 206.8,114.0 L 211.3,110.7 L 215.9,107.7 L 220.4,104.9 L 225.0,102.3 L 229.5,100.0 L 234.1,97.9 L 238.7,96.1 L 243.2,94.5 L 247.8,93.1 L 252.3,92.0 L 256.9,91.1 L 261.4,90.6 L 266.0,90.3 L 270.6,90.3 L 275.1,90.5 L 279.7,91.2 L 284.2,92.1 L 288.8,93.4 L 293.4,95.1 L 297.9,97.1 L 302.5,99.4 L 307.0,101.9 L 311.6,104.4 L 316.1,106.9 L 320.7,109.3 L 325.3,111.5 L 329.8,113.6 L 334.4,115.5 L 338.9,117.2 L 343.5,118.8 L 348.1,120.3 L 352.6,121.6 L 357.2,122.9 L 361.7,124.1 L 366.3,125.2 L 370.8,126.2 L 375.4,127.1 L 380.0,128.1 L 384.5,128.9 L 389.1,129.8 L 393.6,130.5 L 398.2,131.3 L 402.8,132.0 L 407.3,132.7 L 411.9,133.4 L 416.4,134.1 L 421.0,134.7 L 425.5,135.4 L 430.1,136.0 L 434.7,136.5 L 439.2,137.1 L 443.8,137.6 L 448.3,138.1 L 452.9,138.6 L 457.5,139.0 L 462.0,139.3 L 466.6,139.6 L 471.1,139.8 L 475.7,139.9 L 480.2,139.9 L 484.8,139.8 L 489.4,139.4 L 493.9,138.9 L 498.5,138.1 L 503.0,137.2 L 507.6,136.0 L 512.2,134.8 L 516.7,133.7 L 521.3,132.9 L 525.8,132.8 L 530.4,133.5 L 535.0,135.1 L 539.5,137.6 L 544.1,140.9 L 548.6,145.0 L 553.2,149.7 L 557.7,154.8 L 562.3,160.3 L 566.9,166.0 L 571.4,171.7 L 576.0,177.4 L 580.5,182.8 L 585.1,188.0 L 589.7,192.9 L 594.2,197.4 L 598.8,201.6 L 603.3,205.5 L 607.9,209.1 L 612.4,212.4 L 617.0,215.4" class="fw"/>
<line x1="76.85608099661046" y1="330.3942487782845" x2="76.85608099661046" y2="337.4905956153635" class="err"/>
<line x1="73.85608099661046" y1="330.3942487782845" x2="79.85608099661046" y2="330.3942487782845" class="err"/>
<line x1="73.85608099661046" y1="337.4905956153635" x2="79.85608099661046" y2="337.4905956153635" class="err"/>
<circle cx="76.85608099661046" cy="333.942422196824" r="2.5" class="obs"/>
<line x1="83.60158004166269" y1="304.13245649343366" x2="83.60158004166269" y2="311.54734259003243" class="err"/>
<line x1="80.60158004166269" y1="304.13245649343366" x2="86.60158004166269" y2="304.13245649343366" class="err"/>
<line x1="80.60158004166269" y1="311.54734259003243" x2="86.60158004166269" y2="311.54734259003243" class="err"/>
<circle cx="83.60158004166269" cy="307.8398995417331" r="2.5" class="obs"/>
<line x1="90.23649713515667" y1="288.5328810897302" x2="90.23649713515667" y2="299.7171484239793" class="err"/>
<line x1="87.23649713515667" y1="288.5328810897302" x2="93.23649713515667" y2="288.5328810897302" class="err"/>
<line x1="87.23649713515667" y1="299.7171484239793" x2="93.23649713515667" y2="299.7171484239793" class="err"/>
<circle cx="90.23649713515667" cy="294.12501475685474" r="2.5" class="obs"/>
<line x1="97.3137420348836" y1="255.8118204868399" x2="97.3137420348836" y2="274.21631103687014" class="err"/>
<line x1="94.3137420348836" y1="255.8118204868399" x2="100.3137420348836" y2="255.8118204868399" class="err"/>
<line x1="94.3137420348836" y1="274.21631103687014" x2="100.3137420348836" y2="274.21631103687014" class="err"/>
<circle cx="97.3137420348836" cy="265.014065761855" r="2.5" class="obs"/>
<line x1="104.05924107993582" y1="237.94707701544036" x2="104.05924107993582" y2="251.37881579185665" class="err"/>
<line x1="101.05924107993582" y1="237.94707701544036" x2="107.05924107993582" y2="237.94707701544036" class="err"/>
<line x1="101.05924107993582" y1="251.37881579185665" x2="107.05924107993582" y2="251.37881579185665" class="err"/>
<circle cx="104.05924107993582" cy="244.6629464036485" r="2.5" class="obs"/>
<line x1="110.69415817342981" y1="225.41786614099672" x2="110.69415817342981" y2="239.132750925875" class="err"/>
<line x1="107.69415817342981" y1="225.41786614099672" x2="113.69415817342981" y2="225.41786614099672" class="err"/>
<line x1="107.69415817342981" y1="239.132750925875" x2="113.69415817342981" y2="239.132750925875" class="err"/>
<circle cx="110.69415817342981" cy="232.27530853343586" r="2.5" class="obs"/>
<line x1="117.77140307315673" y1="205.56225229759872" x2="117.77140307315673" y2="221.82545115863505" class="err"/>
<line x1="114.77140307315673" y1="205.56225229759872" x2="120.77140307315673" y2="205.56225229759872" class="err"/>
<line x1="114.77140307315673" y1="221.82545115863505" x2="120.77140307315673" y2="221.82545115863505" class="err"/>
<circle cx="117.77140307315673" cy="213.69385172811687" r="2.5" class="obs"/>
<line x1="124.29573821509248" y1="187.00734043057307" x2="124.29573821509248" y2="203.21744941502277" class="err"/>
<line x1="121.29573821509248" y1="187.00734043057307" x2="127.29573821509248" y2="187.00734043057307" class="err"/>
<line x1="121.29573821509248" y1="203.21744941502277" x2="127.29573821509248" y2="203.21744941502277" class="err"/>
<circle cx="124.29573821509248" cy="195.11239492279793" r="2.5" class="obs"/>
<line x1="131.15181921170296" y1="181.87531902719925" x2="131.15181921170296" y2="199.50115805395896" class="err"/>
<line x1="128.15181921170296" y1="181.87531902719925" x2="134.15181921170296" y2="181.87531902719925" class="err"/>
<line x1="128.15181921170296" y1="199.50115805395896" x2="134.15181921170296" y2="199.50115805395896" class="err"/>
<circle cx="131.15181921170296" cy="190.68823854057914" r="2.5" class="obs"/>
<line x1="138.22906411142986" y1="181.485993265564" x2="138.22906411142986" y2="203.42980892136927" class="err"/>
<line x1="135.22906411142986" y1="181.485993265564" x2="141.22906411142986" y2="181.485993265564" class="err"/>
<line x1="135.22906411142986" y1="203.42980892136927" x2="141.22906411142986" y2="203.42980892136927" class="err"/>
<circle cx="138.22906411142986" cy="192.45790109346663" r="2.5" class="obs"/>
<line x1="144.97456315648208" y1="185.29961606703662" x2="144.97456315648208" y2="197.84652356700914" class="err"/>
<line x1="141.97456315648208" y1="185.29961606703662" x2="147.97456315648208" y2="185.29961606703662" class="err"/>
<line x1="141.97456315648208" y1="197.84652356700914" x2="147.97456315648208" y2="197.84652356700914" class="err"/>
<circle cx="144.97456315648208" cy="191.57306981702285" r="2.5" class="obs"/>
<line x1="151.6094802499761" y1="168.57630494224952" x2="151.6094802499761" y2="179.17658363404578" class="err"/>
<line x1="148.6094802499761" y1="168.57630494224952" x2="154.6094802499761" y2="168.57630494224952" class="err"/>
<line x1="148.6094802499761" y1="179.17658363404578" x2="154.6094802499761" y2="179.17658363404578" class="err"/>
<circle cx="151.6094802499761" cy="173.87644428814764" r="2.5" class="obs"/>
<line x1="158.46556124658653" y1="161.2764469115885" x2="158.46556124658653" y2="170.5494786887191" class="err"/>
<line x1="155.46556124658653" y1="161.2764469115885" x2="161.46556124658653" y2="161.2764469115885" class="err"/>
<line x1="155.46556124658653" y1="170.5494786887191" x2="161.46556124658653" y2="170.5494786887191" class="err"/>
<circle cx="158.46556124658653" cy="165.91296280015382" r="2.5" class="obs"/>
<line x1="165.321642243197" y1="147.19878130336826" x2="165.321642243197" y2="158.08220600362654" class="err"/>
<line x1="162.321642243197" y1="147.19878130336826" x2="168.321642243197" y2="147.19878130336826" class="err"/>
<line x1="162.321642243197" y1="158.08220600362654" x2="168.321642243197" y2="158.08220600362654" class="err"/>
<circle cx="165.321642243197" cy="152.6404936534974" r="2.5" class="obs"/>
<line x1="172.06714128824922" y1="142.57996204033185" x2="172.06714128824922" y2="150.3133873964503" class="err"/>
<line x1="169.06714128824922" y1="142.57996204033185" x2="175.06714128824922" y2="142.57996204033185" class="err"/>
<line x1="169.06714128824922" y1="150.3133873964503" x2="175.06714128824922" y2="150.3133873964503" class="err"/>
<circle cx="172.06714128824922" cy="146.44667471839108" r="2.5" class="obs"/>
<line x1="178.92322228485966" y1="134.51914911192915" x2="178.92322228485966" y2="145.9865624546403" class="err"/>
<line x1="175.92322228485966" y1="134.51914911192915" x2="181.92322228485966" y2="134.51914911192915" class="err"/>
<line x1="175.92322228485966" y1="145.9865624546403" x2="181.92322228485966" y2="145.9865624546403" class="err"/>
<circle cx="178.92322228485966" cy="140.25285578328476" r="2.5" class="obs"/>
<line x1="185.33697547523718" y1="131.04176219550516" x2="185.33697547523718" y2="144.1549617124017" class="err"/>
<line x1="182.33697547523718" y1="131.04176219550516" x2="188.33697547523718" y2="131.04176219550516" class="err"/>
<line x1="182.33697547523718" y1="144.1549617124017" x2="188.33697547523718" y2="144.1549617124017" class="err"/>
<circle cx="185.33697547523718" cy="137.59836195395349" r="2.5" class="obs"/>
<line x1="192.19305647184768" y1="118.68066926358587" x2="192.19305647184768" y2="128.2014537981207" class="err"/>
<line x1="189.19305647184768" y1="118.68066926358587" x2="195.19305647184768" y2="118.68066926358587" class="err"/>
<line x1="189.19305647184768" y1="128.2014537981207" x2="195.19305647184768" y2="128.2014537981207" class="err"/>
<circle cx="192.19305647184768" cy="123.44106153085329" r="2.5" class="obs"/>
<line x1="199.04913746845813" y1="119.03460177416333" x2="199.04913746845813" y2="129.61718384043076" class="err"/>
<line x1="196.04913746845813" y1="119.03460177416333" x2="202.04913746845813" y2="119.03460177416333" class="err"/>
<line x1="196.04913746845813" y1="129.61718384043076" x2="202.04913746845813" y2="129.61718384043076" class="err"/>
<circle cx="199.04913746845813" cy="124.32589280729705" r="2.5" class="obs"/>
<line x1="204.79939894948623" y1="107.60258168250998" x2="204.79939894948623" y2="144.58852903785916" class="err"/>
<line x1="201.79939894948623" y1="107.60258168250998" x2="207.79939894948623" y2="107.60258168250998" class="err"/>
<line x1="201.79939894948623" y1="144.58852903785916" x2="207.79939894948623" y2="144.58852903785916" class="err"/>
<circle cx="204.79939894948623" cy="126.09555536018459" r="2.5" class="obs"/>
<line x1="212.76129946167902" y1="109.81465987361938" x2="212.76129946167902" y2="126.44948787076204" class="err"/>
<line x1="209.76129946167902" y1="109.81465987361938" x2="215.76129946167902" y2="109.81465987361938" class="err"/>
<line x1="209.76129946167902" y1="126.44948787076204" x2="215.76129946167902" y2="126.44948787076204" class="err"/>
<circle cx="212.76129946167902" cy="118.13207387219072" r="2.5" class="obs"/>
<line x1="231.0073214687875" y1="101.49724587504802" x2="231.0073214687875" y2="120.60960144623327" class="err"/>
<line x1="228.0073214687875" y1="101.49724587504802" x2="234.0073214687875" y2="101.49724587504802" class="err"/>
<line x1="228.0073214687875" y1="120.60960144623327" x2="234.0073214687875" y2="120.60960144623327" class="err"/>
<circle cx="231.0073214687875" cy="111.05342366064063" r="2.5" class="obs"/>
<line x1="253.89778544134177" y1="98.66578579042798" x2="253.89778544134177" y2="116.36241131930319" class="err"/>
<line x1="250.89778544134177" y1="98.66578579042798" x2="256.89778544134174" y2="98.66578579042798" class="err"/>
<line x1="250.89778544134177" y1="116.36241131930319" x2="256.89778544134174" y2="116.36241131930319" class="err"/>
<circle cx="253.89778544134177" cy="107.5140985548656" r="2.5" class="obs"/>
<line x1="266.5041279189803" y1="103.38193649387321" x2="266.5041279189803" y2="120.49457338029558" class="err"/>
<line x1="263.5041279189803" y1="103.38193649387321" x2="269.5041279189803" y2="103.38193649387321" class="err"/>
<line x1="263.5041279189803" y1="120.49457338029558" x2="269.5041279189803" y2="120.49457338029558" class="err"/>
<circle cx="266.5041279189803" cy="111.9382549370844" r="2.5" class="obs"/>
<line x1="274.4660284311731" y1="104.01016670014832" x2="274.4660284311731" y2="116.32701806824545" class="err"/>
<line x1="271.4660284311731" y1="104.01016670014832" x2="277.4660284311731" y2="104.01016670014832" class="err"/>
<line x1="271.4660284311731" y1="116.32701806824545" x2="277.4660284311731" y2="116.32701806824545" class="err"/>
<circle cx="274.4660284311731" cy="110.16859238419687" r="2.5" class="obs"/>
<line x1="293.8178699538639" y1="103.41732974493097" x2="293.8178699538639" y2="115.15019247057523" class="err"/>
<line x1="290.8178699538639" y1="103.41732974493097" x2="296.8178699538639" y2="103.41732974493097" class="err"/>
<line x1="290.8178699538639" y1="115.15019247057523" x2="296.8178699538639" y2="115.15019247057523" class="err"/>
<circle cx="293.8178699538639" cy="109.2837611077531" r="2.5" class="obs"/>
<line x1="320.13637442472344" y1="101.32027961975928" x2="320.13637442472344" y2="119.01690514863449" class="err"/>
<line x1="317.13637442472344" y1="101.32027961975928" x2="323.13637442472344" y2="101.32027961975928" class="err"/>
<line x1="317.13637442472344" y1="119.01690514863449" x2="323.13637442472344" y2="119.01690514863449" class="err"/>
<circle cx="320.13637442472344" cy="110.16859238419687" r="2.5" class="obs"/>
<line x1="345.23847742844237" y1="119.69822523149615" x2="345.23847742844237" y2="134.26254804176048" class="err"/>
<line x1="342.23847742844237" y1="119.69822523149615" x2="348.23847742844237" y2="119.69822523149615" class="err"/>
<line x1="342.23847742844237" y1="134.26254804176048" x2="348.23847742844237" y2="134.26254804176048" class="err"/>
<circle cx="345.23847742844237" cy="126.98038663662831" r="2.5" class="obs"/>
<line x1="369.2347609165789" y1="122.45889881400069" x2="369.2347609165789" y2="135.041199565031" class="err"/>
<line x1="366.2347609165789" y1="122.45889881400069" x2="372.2347609165789" y2="122.45889881400069" class="err"/>
<line x1="366.2347609165789" y1="135.041199565031" x2="372.2347609165789" y2="135.041199565031" class="err"/>
<circle cx="369.2347609165789" cy="128.75004918951583" r="2.5" class="obs"/>
<line x1="392.1252248891332" y1="119.58319716555847" x2="392.1252248891332" y2="129.06858844903564" class="err"/>
<line x1="389.1252248891332" y1="119.58319716555847" x2="395.1252248891332" y2="119.58319716555847" class="err"/>
<line x1="389.1252248891332" y1="129.06858844903564" x2="395.1252248891332" y2="129.06858844903564" class="err"/>
<circle cx="392.1252248891332" cy="124.32589280729705" r="2.5" class="obs"/>
<line x1="416.12150837726983" y1="117.44190547656461" x2="416.12150837726983" y2="127.67055503225443" class="err"/>
<line x1="413.12150837726983" y1="117.44190547656461" x2="419.12150837726983" y2="117.44190547656461" class="err"/>
<line x1="413.12150837726983" y1="127.67055503225443" x2="419.12150837726983" y2="127.67055503225443" class="err"/>
<circle cx="416.12150837726983" cy="122.55623025440953" r="2.5" class="obs"/>
<line x1="440.0072099138482" y1="130.6878296849277" x2="440.0072099138482" y2="140.96956911720417" class="err"/>
<line x1="437.0072099138482" y1="130.6878296849277" x2="443.0072099138482" y2="130.6878296849277" class="err"/>
<line x1="437.0072099138482" y1="140.96956911720417" x2="443.0072099138482" y2="140.96956911720417" class="err"/>
<circle cx="440.0072099138482" cy="135.82869940106593" r="2.5" class="obs"/>
<line x1="462.89767388640246" y1="118.4063715678883" x2="462.89767388640246" y2="130.2454140467058" class="err"/>
<line x1="459.89767388640246" y1="118.4063715678883" x2="465.89767388640246" y2="118.4063715678883" class="err"/>
<line x1="459.89767388640246" y1="130.2454140467058" x2="465.89767388640246" y2="130.2454140467058" class="err"/>
<circle cx="462.89767388640246" cy="124.32589280729705" r="2.5" class="obs"/>
<line x1="486.89395737453907" y1="116.90215839793393" x2="486.89395737453907" y2="128.21030211088515" class="err"/>
<line x1="483.89395737453907" y1="116.90215839793393" x2="489.89395737453907" y2="116.90215839793393" class="err"/>
<line x1="483.89395737453907" y1="128.21030211088515" x2="489.89395737453907" y2="128.21030211088515" class="err"/>
<circle cx="486.89395737453907" cy="122.55623025440953" r="2.5" class="obs"/>
<line x1="510.8902408626756" y1="119.37968597197644" x2="510.8902408626756" y2="129.27209964261763" class="err"/>
<line x1="507.8902408626756" y1="119.37968597197644" x2="513.8902408626757" y2="119.37968597197644" class="err"/>
<line x1="507.8902408626756" y1="129.27209964261763" x2="513.8902408626757" y2="129.27209964261763" class="err"/>
<circle cx="510.8902408626756" cy="124.32589280729705" r="2.5" class="obs"/>
<line x1="533.6701228836716" y1="121.83066860772566" x2="533.6701228836716" y2="137.43909232419355" class="err"/>
<line x1="530.6701228836716" y1="121.83066860772566" x2="536.6701228836716" y2="121.83066860772566" class="err"/>
<line x1="530.6701228836716" y1="137.43909232419355" x2="536.6701228836716" y2="137.43909232419355" class="err"/>
<circle cx="533.6701228836716" cy="129.6348804659596" r="2.5" class="obs"/>
<g class="legend">
<line x1="82" y1="69" x2="106" y2="69" class="fw"/>
<text x="112" y="73" class="lbl-l">framework fit</text>
<line x1="82" y1="87" x2="106" y2="87" class="nt"/>
<text x="112" y="91" class="lbl-l">Newtonian (no halo)</text>
<circle cx="94" cy="105" r="2.5" class="obs"/>
<text x="112" y="109" class="lbl">observed V±err</text>
</g>
<g class="legend">
<line x1="472" y1="69" x2="496" y2="69" class="rho"/>
<text x="502" y="73" class="lbl-r">ρ(r) raw</text>
<line x1="472" y1="87" x2="496" y2="87" class="sig"/>
<text x="502" y="91" class="lbl-s">Σ(r) cumulative</text>
<text x="472" y="113" class="lbl-r">ρ peak: 433 M☉/pc²</text>
</g>
<rect x="705" y="55" width="170" height="170" class="preview-bg"/>
<defs><radialGradient id="g_UGC11455" cx="0.5" cy="0.5" r="0.5">
  <stop offset="0.0000" stop-color="rgb(154,154,154)"/>
  <stop offset="0.0312" stop-color="rgb(154,154,154)"/>
  <stop offset="0.0625" stop-color="rgb(144,144,144)"/>
  <stop offset="0.0938" stop-color="rgb(136,136,136)"/>
  <stop offset="0.1250" stop-color="rgb(132,132,132)"/>
  <stop offset="0.1562" stop-color="rgb(128,128,128)"/>
  <stop offset="0.1875" stop-color="rgb(124,124,124)"/>
  <stop offset="0.2188" stop-color="rgb(120,120,120)"/>
  <stop offset="0.2500" stop-color="rgb(116,116,116)"/>
  <stop offset="0.2812" stop-color="rgb(112,112,112)"/>
  <stop offset="0.3125" stop-color="rgb(108,108,108)"/>
  <stop offset="0.3438" stop-color="rgb(103,103,103)"/>
  <stop offset="0.3750" stop-color="rgb(99,99,99)"/>
  <stop offset="0.4062" stop-color="rgb(95,95,95)"/>
  <stop offset="0.4375" stop-color="rgb(91,91,91)"/>
  <stop offset="0.4688" stop-color="rgb(89,89,89)"/>
  <stop offset="0.5000" stop-color="rgb(87,87,87)"/>
  <stop offset="0.5312" stop-color="rgb(85,85,85)"/>
  <stop offset="0.5625" stop-color="rgb(84,84,84)"/>
  <stop offset="0.5938" stop-color="rgb(82,82,82)"/>
  <stop offset="0.6250" stop-color="rgb(80,80,80)"/>
  <stop offset="0.6562" stop-color="rgb(79,79,79)"/>
  <stop offset="0.6875" stop-color="rgb(77,77,77)"/>
  <stop offset="0.7188" stop-color="rgb(75,75,75)"/>
  <stop offset="0.7500" stop-color="rgb(74,74,74)"/>
  <stop offset="0.7812" stop-color="rgb(72,72,72)"/>
  <stop offset="0.8125" stop-color="rgb(70,70,70)"/>
  <stop offset="0.8438" stop-color="rgb(69,69,69)"/>
  <stop offset="0.8750" stop-color="rgb(65,65,65)"/>
  <stop offset="0.9062" stop-color="rgb(50,50,50)"/>
  <stop offset="0.9375" stop-color="rgb(33,33,33)"/>
  <stop offset="0.9688" stop-color="rgb(16,16,16)"/>
  <stop offset="1.0000" stop-color="rgb(0,0,0)"/>
</radialGradient></defs>
<circle cx="790.0" cy="140.0" r="81.0" fill="url(#g_UGC11455)"/>
<text x="790.0" y="49" text-anchor="middle" class="preview-lbl">face-on luminance from ρ(r)</text>
<text x="790.0" y="239" text-anchor="middle" class="preview-lbl">edge at r = 47.1 kpc</text>
</svg>