<svg xmlns="http://www.w3.org/2000/svg" viewBox="0 0 960 450" width="960" height="450" font-family="sans-serif" font-size="12">
<style>
  .ax { stroke: #333; stroke-width: 1; fill: none; }
  .grid { stroke: #ddd; stroke-width: 0.5; fill: none; }
  .lbl { fill: #333; }
  .lbl-l { fill: #0066cc; }
  .lbl-r { fill: #b03030; }
  .obs { fill: #222; }
  .err { stroke: #555; stroke-width: 0.8; fill: none; }
  .fw { stroke: #0066cc; stroke-width: 2.2; fill: none; }
  .nt { stroke: #cc6600; stroke-width: 1.6; fill: none; stroke-dasharray: 5,3; }
  .mond { stroke: #7b2cbf; stroke-width: 1.8; fill: none; stroke-dasharray: 7,3; }
  .lbl-p { fill: #cc7000; }
  .lbl-m { fill: #7b2cbf; }
  .rho { stroke: #b03030; stroke-width: 2.0; fill: none; }
  .phot { stroke: #cc7000; stroke-width: 1.8; fill: none; }
  .mbar { stroke: #8e44ad; stroke-width: 1.8; fill: none; opacity: 0.9; }
  .mph { stroke: #c77dff; stroke-width: 1.6; fill: none; stroke-dasharray: 4,3; opacity: 0.95; }
  .title { fill: #111; font-size: 16px; font-weight: 600; }
  .subtitle { fill: #555; font-size: 11px; }
  .preview-bg { fill: #000; }
  .preview-lbl { fill: #888; font-size: 10px; }
  .legend { font-size: 11px; }
</style>
<text x="378.5" y="22" text-anchor="middle" class="title">UGC10310</text>
<text x="378.5" y="38" text-anchor="middle" class="subtitle">rMax=7.7 kpc, N=7, FW=0.8 km/s, 1.2%, 0.16σ, MOND=8.0 km/s, 11.1%, 1.58σ, amp=103</text>
<line x1="70" y1="395.0" x2="687" y2="395.0" class="grid"/>
<text x="64" y="399.0" text-anchor="end" class="lbl-l">0</text>
<line x1="70" y1="327.0" x2="687" y2="327.0" class="grid"/>
<text x="64" y="331.0" text-anchor="end" class="lbl-l">19</text>
<line x1="70" y1="259.0" x2="687" y2="259.0" class="grid"/>
<text x="64" y="263.0" text-anchor="end" class="lbl-l">38</text>
<line x1="70" y1="191.0" x2="687" y2="191.0" class="grid"/>
<text x="64" y="195.0" text-anchor="end" class="lbl-l">57</text>
<line x1="70" y1="123.0" x2="687" y2="123.0" class="grid"/>
<text x="64" y="127.0" text-anchor="end" class="lbl-l">77</text>
<line x1="70" y1="55.0" x2="687" y2="55.0" class="grid"/>
<text x="64" y="59.0" text-anchor="end" class="lbl-l">96</text>
<text x="693" y="399.0" text-anchor="start" class="lbl-r">0.0</text>
<text x="693" y="353.7" text-anchor="start" class="lbl-r">0.2</text>
<text x="693" y="308.3" text-anchor="start" class="lbl-r">0.4</text>
<text x="693" y="263.0" text-anchor="start" class="lbl-r">0.6</text>
<text x="693" y="217.7" text-anchor="start" class="lbl-r">0.8</text>
<text x="693" y="172.3" text-anchor="start" class="lbl-r">1.0</text>
<line x1="70.0" y1="55" x2="70.0" y2="395" class="grid"/>
<text x="70.0" y="411" text-anchor="middle" class="lbl">0.0</text>
<line x1="172.8" y1="55" x2="172.8" y2="395" class="grid"/>
<text x="172.8" y="411" text-anchor="middle" class="lbl">1.4</text>
<line x1="275.7" y1="55" x2="275.7" y2="395" class="grid"/>
<text x="275.7" y="411" text-anchor="middle" class="lbl">2.8</text>
<line x1="378.5" y1="55" x2="378.5" y2="395" class="grid"/>
<text x="378.5" y="411" text-anchor="middle" class="lbl">4.2</text>
<line x1="481.3" y1="55" x2="481.3" y2="395" class="grid"/>
<text x="481.3" y="411" text-anchor="middle" class="lbl">5.6</text>
<line x1="584.2" y1="55" x2="584.2" y2="395" class="grid"/>
<text x="584.2" y="411" text-anchor="middle" class="lbl">7.0</text>
<line x1="687.0" y1="55" x2="687.0" y2="395" class="grid"/>
<text x="687.0" y="411" text-anchor="middle" class="lbl">8.4</text>
<text x="378.5" y="438" text-anchor="middle" class="lbl">radius (kpc)</text>
<text x="16" y="225" text-anchor="middle" class="lbl-l" transform="rotate(-90, 16, 225)">velocity (km/s)</text>
<text x="724" y="225" text-anchor="middle" class="lbl-r" transform="rotate(-90, 724, 225)">profiles (normalized to peak)</text>
<rect x="70" y="55" width="617" height="340" class="ax"/>
<path d="M 70.0,168.3 L 72.8,183.7 L 75.6,199.1 L 78.5,214.5 L 81.3,229.9 L 84.1,239.6 L 86.9,239.7 L 89.7,239.8 L 92.5,239.9 L 95.4,240.1 L 98.2,240.2 L 101.0,240.3 L 103.8,240.4 L 106.6,240.6 L 109.4,240.7 L 112.3,240.8 L 115.1,240.9 L 117.9,241.1 L 120.7,241.6 L 123.5,242.2 L 126.3,242.9 L 129.2,243.5 L 132.0,244.2 L 134.8,244.9 L 137.6,245.5 L 140.4,246.2 L 143.3,246.8 L 146.1,247.5 L 148.9,248.2 L 151.7,248.8 L 154.5,249.5 L 157.3,250.1 L 160.2,250.8 L 163.0,251.5 L 165.8,252.1 L 168.6,252.8 L 171.4,253.4 L 174.2,254.1 L 177.1,254.8 L 179.9,255.4 L 182.7,256.1 L 185.5,256.7 L 188.3,257.4 L 191.1,258.1 L 194.0,258.7 L 196.8,259.4 L 199.6,260.0 L 202.4,260.7 L 205.2,261.4 L 208.1,262.0 L 210.9,262.7 L 213.7,263.3 L 216.5,264.0 L 219.3,264.7 L 222.1,265.3 L 225.0,266.0 L 227.8,266.6 L 230.6,267.3 L 233.4,268.0 L 236.2,268.6 L 239.0,269.3 L 241.9,269.9 L 244.7,270.6 L 247.5,271.3 L 250.3,271.9 L 253.1,272.6 L 255.9,273.2 L 258.8,273.9 L 261.6,274.6 L 264.4,275.2 L 267.2,275.9 L 270.0,276.5 L 272.8,277.2 L 275.7,277.9 L 278.5,278.5 L 281.3,279.2 L 284.1,279.9 L 286.9,280.5 L 289.8,281.2 L 292.6,281.8 L 295.4,282.5 L 298.2,283.2 L 301.0,283.8 L 303.8,284.5 L 306.7,285.1 L 309.5,285.8 L 312.3,286.5 L 315.1,287.1 L 317.9,287.8 L 320.7,288.4 L 323.6,289.1 L 326.4,289.8 L 329.2,290.4 L 332.0,291.1 L 334.8,291.7 L 337.6,292.4 L 340.5,293.1 L 343.3,293.5 L 346.1,294.0 L 348.9,294.4 L 351.7,294.9 L 354.6,295.3 L 357.4,295.8 L 360.2,296.2 L 363.0,296.6 L 365.8,297.1 L 368.6,297.5 L 371.5,298.0 L 374.3,298.4 L 377.1,298.9 L 379.9,299.3 L 382.7,299.8 L 385.5,300.2 L 388.4,300.6 L 391.2,301.1 L 394.0,301.5 L 396.8,302.0 L 399.6,302.4 L 402.4,302.9 L 405.3,303.3 L 408.1,303.8 L 410.9,304.2 L 413.7,304.6 L 416.5,305.1 L 419.4,305.5 L 422.2,306.0 L 425.0,306.4 L 427.8,306.9 L 430.6,307.3 L 433.4,307.8 L 436.3,308.2 L 439.1,308.6 L 441.9,309.1 L 444.7,309.5 L 447.5,310.0 L 450.3,310.4 L 453.2,310.9 L 456.0,311.3 L 458.8,311.8 L 461.6,312.2 L 464.4,312.6 L 467.2,313.1 L 470.1,313.5 L 472.9,314.0 L 475.7,314.4 L 478.5,314.9 L 481.3,315.3 L 484.2,315.8 L 487.0,316.2 L 489.8,316.7 L 492.6,317.1 L 495.4,317.5 L 498.2,318.0 L 501.1,318.4 L 503.9,318.9 L 506.7,319.3 L 509.5,319.8 L 512.3,320.2 L 515.1,320.7 L 518.0,321.1 L 520.8,321.5 L 523.6,322.0 L 526.4,322.4 L 529.2,322.9 L 532.0,323.3 L 534.9,323.8 L 537.7,324.2 L 540.5,324.7 L 543.3,325.1 L 546.1,325.5 L 548.9,326.0 L 551.8,326.4 L 554.6,326.9 L 557.4,327.3 L 560.2,327.8 L 563.0,328.2 L 565.9,328.7 L 568.7,329.1 L 571.5,329.5 L 574.3,330.0 L 577.1,330.4 L 579.9,330.9 L 582.8,331.3 L 585.6,331.8 L 588.4,332.2 L 591.2,332.7 L 594.0,333.1 L 596.8,333.5 L 599.7,334.0 L 602.5,334.4 L 605.3,334.9 L 608.1,335.3 L 610.9,335.8 L 613.7,336.2 L 616.6,336.7 L 619.4,338.3 L 622.2,342.4 L 625.0,346.6 L 627.8,350.8 L 630.7,355.0 L 633.5,359.2 L 636.3,363.3 L 639.1,367.5 L 641.9,371.7 L 644.7,375.9 L 647.6,380.1 L 650.4,384.2 L 653.2,388.4 L 656.0,392.6 L 658.8,395.0 L 661.6,395.0 L 664.5,395.0 L 667.3,395.0 L 670.1,395.0 L 672.9,395.0 L 675.7,395.0 L 678.5,395.0 L 681.4,395.0 L 684.2,395.0 L 687.0,395.0" class="rho"/>
<path d="M 150.5,168.3 L 231.8,267.2 L 312.3,325.4 L 393.6,360.8 L 474.1,373.0 L 556.1,383.8 L 636.7,395.0" class="phot"/>
<path d="M 150.5,199.9 L 231.8,168.3 L 312.3,184.4 L 393.6,200.1 L 474.1,191.0 L 556.1,235.6 L 636.7,308.7" class="mbar"/>
<path d="M 150.5,183.1 L 231.8,168.3 L 312.3,175.1 L 393.6,182.1 L 474.1,178.1 L 556.1,199.9 L 636.7,236.1" class="mph"/>
<path d="M 76.2,351.4 L 82.3,336.8 L 88.5,326.7 L 94.7,317.3 L 100.8,308.9 L 107.0,301.1 L 113.2,293.9 L 119.4,287.1 L 125.5,280.8 L 131.7,274.9 L 137.9,269.4 L 144.0,264.2 L 150.2,259.2 L 156.4,254.5 L 162.6,250.0 L 168.7,245.7 L 174.9,241.6 L 181.1,237.7 L 187.2,233.9 L 193.4,230.2 L 199.6,226.7 L 205.7,223.3 L 211.9,220.0 L 218.1,216.8 L 224.3,213.8 L 230.4,210.8 L 236.6,207.9 L 242.8,205.2 L 248.9,202.5 L 255.1,199.9 L 261.3,197.3 L 267.4,194.9 L 273.6,192.5 L 279.8,190.2 L 285.9,188.0 L 292.1,185.8 L 298.3,183.7 L 304.5,181.6 L 310.6,179.7 L 316.8,177.7 L 323.0,175.9 L 329.1,174.1 L 335.3,172.3 L 341.5,170.6 L 347.6,169.0 L 353.8,167.3 L 360.0,165.8 L 366.2,164.2 L 372.3,162.7 L 378.5,161.2 L 384.7,159.7 L 390.8,158.3 L 397.0,156.9 L 403.2,155.5 L 409.4,154.1 L 415.5,152.8 L 421.7,151.5 L 427.9,150.3 L 434.0,149.1 L 440.2,147.9 L 446.4,146.7 L 452.5,145.5 L 458.7,144.4 L 464.9,143.3 L 471.0,142.3 L 477.2,141.2 L 483.4,140.2 L 489.6,139.2 L 495.7,138.3 L 501.9,137.3 L 508.1,136.4 L 514.2,135.5 L 520.4,134.7 L 526.6,133.8 L 532.8,133.0 L 538.9,132.2 L 545.1,131.5 L 551.3,130.7 L 557.4,130.0 L 563.6,129.3 L 569.8,128.7 L 575.9,128.0 L 582.1,127.4 L 588.3,126.8 L 594.4,126.2 L 600.6,125.7 L 606.8,125.2 L 613.0,124.7 L 619.1,124.2 L 625.3,123.9 L 631.5,123.9 L 637.6,124.2 L 643.8,124.8 L 650.0,125.7 L 656.1,126.9 L 662.3,128.3 L 668.5,129.7 L 674.7,131.0 L 680.8,132.4 L 687.0,133.7" class="nt"/>
<path d="M 150.5,276.6 L 231.8,210.2 L 312.3,174.4 L 393.6,148.1 L 474.1,113.4 L 556.1,91.7 L 636.7,85.9" class="mond"/>
<path d="M 75.1,382.8 L 80.3,374.0 L 85.4,364.9 L 90.6,356.6 L 95.7,349.0 L 100.8,341.8 L 106.0,334.6 L 111.1,327.5 L 116.3,320.4 L 121.4,313.3 L 126.6,306.2 L 131.7,299.3 L 136.8,292.6 L 142.0,286.1 L 147.1,279.7 L 152.3,273.6 L 157.4,267.7 L 162.6,261.9 L 167.7,256.4 L 172.8,251.0 L 178.0,245.8 L 183.1,240.8 L 188.3,235.9 L 193.4,231.2 L 198.5,226.7 L 203.7,222.3 L 208.8,218.0 L 214.0,213.9 L 219.1,209.9 L 224.3,206.1 L 229.4,202.4 L 234.5,198.9 L 239.7,195.5 L 244.8,192.2 L 250.0,189.1 L 255.1,186.1 L 260.2,183.2 L 265.4,180.5 L 270.5,177.9 L 275.7,175.4 L 280.8,173.0 L 285.9,170.9 L 291.1,168.8 L 296.2,166.9 L 301.4,165.1 L 306.5,163.5 L 311.7,162.0 L 316.8,160.6 L 321.9,159.5 L 327.1,158.4 L 332.2,157.6 L 337.4,156.8 L 342.5,156.1 L 347.6,155.5 L 352.8,155.0 L 357.9,154.4 L 363.1,153.9 L 368.2,153.3 L 373.4,152.7 L 378.5,152.2 L 383.6,151.6 L 388.8,151.0 L 393.9,150.5 L 399.1,149.9 L 404.2,149.4 L 409.4,148.8 L 414.5,148.3 L 419.6,147.8 L 424.8,147.3 L 429.9,146.8 L 435.1,146.4 L 440.2,145.9 L 445.3,145.5 L 450.5,145.1 L 455.6,144.7 L 460.8,144.4 L 465.9,144.0 L 471.1,143.7 L 476.2,143.4 L 481.3,143.1 L 486.5,142.8 L 491.6,142.5 L 496.8,142.2 L 501.9,141.9 L 507.0,141.7 L 512.2,141.4 L 517.3,141.1 L 522.5,140.8 L 527.6,140.5 L 532.8,140.1 L 537.9,139.8 L 543.0,139.3 L 548.2,138.9 L 553.3,138.3 L 558.5,137.7 L 563.6,136.9 L 568.7,136.0 L 573.9,135.0 L 579.0,133.8 L 584.2,132.4 L 589.3,130.9 L 594.5,129.1 L 599.6,127.2 L 604.7,125.2 L 609.9,123.4 L 615.0,122.0 L 620.2,121.5 L 625.3,121.9 L 630.4,123.7 L 635.6,126.7 L 640.7,131.2 L 645.9,136.6 L 651.0,142.7 L 656.1,149.3 L 661.3,156.0 L 666.4,162.6 L 671.6,168.9 L 676.7,174.9 L 681.9,180.5 L 687.0,185.8" class="fw"/>
<line x1="150.53" y1="258.98" x2="150.53" y2="294.96" class="err"/>
<line x1="147.53" y1="258.98" x2="153.53" y2="258.98" class="err"/>
<line x1="147.53" y1="294.96" x2="153.53" y2="294.96" class="err"/>
<circle cx="150.53" cy="276.97" r="2.5" class="obs"/>
<line x1="231.80" y1="182.89" x2="231.80" y2="218.87" class="err"/>
<line x1="228.80" y1="182.89" x2="234.80" y2="182.89" class="err"/>
<line x1="228.80" y1="218.87" x2="234.80" y2="218.87" class="err"/>
<circle cx="231.80" cy="200.88" r="2.5" class="obs"/>
<line x1="312.33" y1="143.43" x2="312.33" y2="179.41" class="err"/>
<line x1="309.33" y1="143.43" x2="315.33" y2="143.43" class="err"/>
<line x1="309.33" y1="179.41" x2="315.33" y2="179.41" class="err"/>
<circle cx="312.33" cy="161.42" r="2.5" class="obs"/>
<line x1="393.59" y1="130.99" x2="393.59" y2="166.97" class="err"/>
<line x1="390.59" y1="130.99" x2="396.59" y2="130.99" class="err"/>
<line x1="390.59" y1="166.97" x2="396.59" y2="166.97" class="err"/>
<circle cx="393.59" cy="148.98" r="2.5" class="obs"/>
<line x1="474.12" y1="124.94" x2="474.12" y2="160.92" class="err"/>
<line x1="471.12" y1="124.94" x2="477.12" y2="124.94" class="err"/>
<line x1="471.12" y1="160.92" x2="477.12" y2="160.92" class="err"/>
<circle cx="474.12" cy="142.93" r="2.5" class="obs"/>
<line x1="556.12" y1="119.61" x2="556.12" y2="155.59" class="err"/>
<line x1="553.12" y1="119.61" x2="559.12" y2="119.61" class="err"/>
<line x1="553.12" y1="155.59" x2="559.12" y2="155.59" class="err"/>
<circle cx="556.12" cy="137.60" r="2.5" class="obs"/>
<line x1="636.65" y1="116.77" x2="636.65" y2="152.75" class="err"/>
<line x1="633.65" y1="116.77" x2="639.65" y2="116.77" class="err"/>
<line x1="633.65" y1="152.75" x2="639.65" y2="152.75" class="err"/>
<circle cx="636.65" cy="134.76" r="2.5" class="obs"/>
<g class="legend">
<line x1="82" y1="69" x2="106" y2="69" class="fw"/>
<text x="112" y="73" class="lbl-l">framework: 0.8 km/s, 1.2%, 0.16σ</text>
<line x1="82" y1="87" x2="106" y2="87" class="nt"/>
<text x="112" y="91" class="lbl-l">Newtonian: 3.3 km/s, 7.1%, 0.65σ</text>
<line x1="82" y1="105" x2="106" y2="105" class="mond"/>
<text x="112" y="109" class="lbl-m">MOND/RAR: 8.0 km/s, 11.1%, 1.58σ</text>
<circle cx="94" cy="123" r="2.5" class="obs"/>
<text x="112" y="127" class="lbl">observed V±err</text>
</g>
<g class="legend">
<line x1="472" y1="69" x2="496" y2="69" class="rho"/>
<text x="502" y="73" class="lbl-r">ρ(r) raw</text>
<line x1="472" y1="87" x2="496" y2="87" class="phot"/>
<text x="502" y="91" class="lbl-p">photometric baryonic profile</text>
<line x1="472" y1="105" x2="496" y2="105" class="mbar"/>
<text x="502" y="109" class="lbl-m">MOND baryonic annulus</text>
<line x1="472" y1="123" x2="496" y2="123" class="mph"/>
<text x="502" y="127" class="lbl-m">MOND phantom annulus</text>
<text x="472" y="147" class="lbl-r">ρ peak: 147 M☉/pc²</text>
<text x="472" y="163" class="lbl-p">phot peak: 24.47 (arb.)</text>
<text x="472" y="179" class="lbl-m">Σbar peak: 21.15 M☉/pc²</text>
<text x="472" y="195" class="lbl-m">Σphantom peak: 65.97 M☉/pc²</text>
</g>
<rect x="775" y="55" width="170" height="170" class="preview-bg"/>
<defs><radialGradient id="g_UGC10310" cx="0.5" cy="0.5" r="0.5">
  <stop offset="0.0000" stop-color="rgb(250,63,63)"/>
  <stop offset="0.0313" stop-color="rgb(187,47,47)"/>
  <stop offset="0.0625" stop-color="rgb(187,47,47)"/>
  <stop offset="0.0938" stop-color="rgb(185,46,46)"/>
  <stop offset="0.1250" stop-color="rgb(181,45,45)"/>
  <stop offset="0.1563" stop-color="rgb(177,44,44)"/>
  <stop offset="0.1875" stop-color="rgb(173,43,43)"/>
  <stop offset="0.2188" stop-color="rgb(170,43,43)"/>
  <stop offset="0.2500" stop-color="rgb(166,42,42)"/>
  <stop offset="0.2813" stop-color="rgb(162,41,41)"/>
  <stop offset="0.3125" stop-color="rgb(158,40,40)"/>
  <stop offset="0.3438" stop-color="rgb(154,39,39)"/>
  <stop offset="0.3750" stop-color="rgb(151,38,38)"/>
  <stop offset="0.4063" stop-color="rgb(147,37,37)"/>
  <stop offset="0.4375" stop-color="rgb(143,36,36)"/>
  <stop offset="0.4688" stop-color="rgb(139,35,35)"/>
  <stop offset="0.5000" stop-color="rgb(137,34,34)"/>
  <stop offset="0.5313" stop-color="rgb(134,34,34)"/>
  <stop offset="0.5625" stop-color="rgb(132,33,33)"/>
  <stop offset="0.5938" stop-color="rgb(129,32,32)"/>
  <stop offset="0.6250" stop-color="rgb(127,32,32)"/>
  <stop offset="0.6563" stop-color="rgb(124,31,31)"/>
  <stop offset="0.6875" stop-color="rgb(122,31,31)"/>
  <stop offset="0.7188" stop-color="rgb(119,30,30)"/>
  <stop offset="0.7500" stop-color="rgb(116,29,29)"/>
  <stop offset="0.7813" stop-color="rgb(114,29,29)"/>
  <stop offset="0.8125" stop-color="rgb(111,28,28)"/>
  <stop offset="0.8438" stop-color="rgb(109,27,27)"/>
  <stop offset="0.8750" stop-color="rgb(106,27,27)"/>
  <stop offset="0.9063" stop-color="rgb(104,26,26)"/>
  <stop offset="0.9375" stop-color="rgb(98,25,25)"/>
  <stop offset="0.9688" stop-color="rgb(74,19,19)"/>
  <stop offset="1.0000" stop-color="rgb(0,0,0)"/>
</radialGradient></defs>
<circle cx="860" cy="140" r="81" fill="url(#g_UGC10310)"/>
<text x="860" y="49" text-anchor="middle" class="preview-lbl">face-on luminance from ρ(r)</text>
<text x="860" y="239" text-anchor="middle" class="preview-lbl">edge at r = 8.0 kpc</text>
</svg>