<svg xmlns="http://www.w3.org/2000/svg" viewBox="0 0 720 420" width="720" height="420" font-family="sans-serif" font-size="12">
<style>
  .ax { stroke: #333; stroke-width: 1; fill: none; }
  .grid { stroke: #ddd; stroke-width: 0.5; fill: none; }
  .lbl { fill: #333; }
  .lbl-l { fill: #0066cc; }
  .lbl-r { fill: #b03030; }
  .obs { fill: #222; }
  .err { stroke: #555; stroke-width: 0.8; fill: none; }
  .fw { stroke: #0066cc; stroke-width: 2.2; fill: none; }
  .nt { stroke: #cc6600; stroke-width: 1.6; fill: none; stroke-dasharray: 5,3; }
  .rho { stroke: #b03030; stroke-width: 2.0; fill: none; }
  .sig { stroke: #b03030; stroke-width: 1.6; fill: none; stroke-dasharray: 4,2; opacity: 0.85; }
  .title { fill: #111; font-size: 16px; font-weight: 600; }
  .subtitle { fill: #555; font-size: 11px; }
  .legend { font-size: 11px; }
</style>
<text x="360.0" y="22" text-anchor="middle" class="title">UGC11557</text>
<text x="360.0" y="38" text-anchor="middle" class="subtitle">rMax=10.6 kpc, N=12, RMS=2.5 km/s (4.4%), amp=105</text>
<line x1="70" y1="365.0" x2="635" y2="365.0" class="grid"/>
<text x="64" y="369.0" text-anchor="end" class="lbl-l">0</text>
<line x1="70" y1="303.0" x2="635" y2="303.0" class="grid"/>
<text x="64" y="307.0" text-anchor="end" class="lbl-l">20</text>
<line x1="70" y1="241.0" x2="635" y2="241.0" class="grid"/>
<text x="64" y="245.0" text-anchor="end" class="lbl-l">41</text>
<line x1="70" y1="179.0" x2="635" y2="179.0" class="grid"/>
<text x="64" y="183.0" text-anchor="end" class="lbl-l">61</text>
<line x1="70" y1="116.99999999999999" x2="635" y2="116.99999999999999" class="grid"/>
<text x="64" y="120.99999999999999" text-anchor="end" class="lbl-l">82</text>
<line x1="70" y1="55.0" x2="635" y2="55.0" class="grid"/>
<text x="64" y="59.0" text-anchor="end" class="lbl-l">102</text>
<text x="641" y="369.0" text-anchor="start" class="lbl-r">0.0</text>
<text x="641" y="327.6666666666667" text-anchor="start" class="lbl-r">0.2</text>
<text x="641" y="286.33333333333337" text-anchor="start" class="lbl-r">0.4</text>
<text x="641" y="245.00000000000003" text-anchor="start" class="lbl-r">0.6</text>
<text x="641" y="203.66666666666666" text-anchor="start" class="lbl-r">0.8</text>
<text x="641" y="162.33333333333334" text-anchor="start" class="lbl-r">1.0</text>
<line x1="70.0" y1="55" x2="70.0" y2="365" class="grid"/>
<text x="70.0" y="381" text-anchor="middle" class="lbl">0.0</text>
<line x1="164.16666666666666" y1="55" x2="164.16666666666666" y2="365" class="grid"/>
<text x="164.16666666666666" y="381" text-anchor="middle" class="lbl">1.9</text>
<line x1="258.3333333333333" y1="55" x2="258.3333333333333" y2="365" class="grid"/>
<text x="258.3333333333333" y="381" text-anchor="middle" class="lbl">3.7</text>
<line x1="352.49999999999994" y1="55" x2="352.49999999999994" y2="365" class="grid"/>
<text x="352.49999999999994" y="381" text-anchor="middle" class="lbl">5.6</text>
<line x1="446.66666666666663" y1="55" x2="446.66666666666663" y2="365" class="grid"/>
<text x="446.66666666666663" y="381" text-anchor="middle" class="lbl">7.5</text>
<line x1="540.8333333333334" y1="55" x2="540.8333333333334" y2="365" class="grid"/>
<text x="540.8333333333334" y="381" text-anchor="middle" class="lbl">9.3</text>
<line x1="634.9999999999999" y1="55" x2="634.9999999999999" y2="365" class="grid"/>
<text x="634.9999999999999" y="381" text-anchor="middle" class="lbl">11.2</text>
<text x="352.5" y="408" text-anchor="middle" class="lbl">radius (kpc)</text>
<text x="16" y="210.0" text-anchor="middle" class="lbl-l" transform="rotate(-90, 16, 210.0)">velocity (km/s)</text>
<text x="704" y="210.0" text-anchor="middle" class="lbl-r" transform="rotate(-90, 704, 210.0)">mass profile (normalized to peak)</text>
<rect x="70" y="55" width="565" height="310" class="ax"/>
<path d="M 70.0,158.3 L 72.6,158.3 L 75.2,158.3 L 77.7,158.3 L 80.3,158.3 L 82.9,158.3 L 85.5,158.3 L 88.1,158.3 L 90.6,158.3 L 93.2,158.3 L 95.8,158.3 L 98.4,158.3 L 101.0,158.3 L 103.5,158.3 L 106.1,158.3 L 108.7,158.3 L 111.3,158.3 L 113.9,158.3 L 116.4,158.3 L 119.0,158.3 L 121.6,158.3 L 124.2,158.3 L 126.8,158.3 L 129.3,158.3 L 131.9,158.3 L 134.5,158.3 L 137.1,158.3 L 139.7,158.3 L 142.2,158.3 L 144.8,158.3 L 147.4,158.3 L 150.0,158.3 L 152.6,158.3 L 155.1,158.3 L 157.7,158.3 L 160.3,158.3 L 162.9,158.3 L 165.5,158.9 L 168.0,160.2 L 170.6,161.6 L 173.2,163.0 L 175.8,164.4 L 178.4,165.8 L 180.9,167.2 L 183.5,168.5 L 186.1,169.9 L 188.7,171.3 L 191.3,172.7 L 193.8,173.1 L 196.4,173.3 L 199.0,173.4 L 201.6,173.6 L 204.2,173.8 L 206.7,173.9 L 209.3,174.1 L 211.9,174.3 L 214.5,174.4 L 217.1,174.6 L 219.6,174.8 L 222.2,174.9 L 224.8,175.1 L 227.4,175.3 L 230.0,175.4 L 232.5,175.6 L 235.1,176.1 L 237.7,176.9 L 240.3,177.6 L 242.9,178.4 L 245.4,179.2 L 248.0,180.0 L 250.6,180.8 L 253.2,181.6 L 255.8,182.3 L 258.3,183.1 L 260.9,183.9 L 263.5,184.7 L 266.1,185.5 L 268.7,186.2 L 271.2,187.0 L 273.8,187.8 L 276.4,188.6 L 279.0,189.4 L 281.6,190.1 L 284.1,190.9 L 286.7,191.7 L 289.3,192.5 L 291.9,193.3 L 294.5,194.0 L 297.0,194.8 L 299.6,195.6 L 302.2,196.4 L 304.8,197.2 L 307.4,197.9 L 309.9,198.7 L 312.5,199.5 L 315.1,200.3 L 317.7,201.1 L 320.3,201.9 L 322.8,202.6 L 325.4,203.4 L 328.0,204.2 L 330.6,205.0 L 333.2,205.8 L 335.7,206.5 L 338.3,207.3 L 340.9,208.1 L 343.5,208.9 L 346.1,209.7 L 348.6,210.4 L 351.2,211.2 L 353.8,212.0 L 356.4,212.8 L 358.9,213.6 L 361.5,214.3 L 364.1,215.1 L 366.7,215.9 L 369.3,216.7 L 371.8,217.5 L 374.4,218.3 L 377.0,219.0 L 379.6,219.8 L 382.2,220.6 L 384.7,221.4 L 387.3,222.2 L 389.9,222.9 L 392.5,223.7 L 395.1,224.5 L 397.6,225.3 L 400.2,226.1 L 402.8,226.8 L 405.4,227.6 L 408.0,228.4 L 410.5,229.2 L 413.1,230.0 L 415.7,230.7 L 418.3,231.5 L 420.9,232.3 L 423.4,233.1 L 426.0,233.9 L 428.6,234.7 L 431.2,235.4 L 433.8,236.2 L 436.3,237.0 L 438.9,237.8 L 441.5,238.6 L 444.1,239.3 L 446.7,240.1 L 449.2,240.9 L 451.8,241.7 L 454.4,242.5 L 457.0,243.2 L 459.6,244.0 L 462.1,244.8 L 464.7,245.6 L 467.3,246.4 L 469.9,247.1 L 472.5,247.9 L 475.0,248.7 L 477.6,249.5 L 480.2,250.3 L 482.8,251.1 L 485.4,251.8 L 487.9,252.6 L 490.5,253.4 L 493.1,254.2 L 495.7,255.0 L 498.3,255.7 L 500.8,256.5 L 503.4,257.3 L 506.0,258.1 L 508.6,258.9 L 511.2,259.6 L 513.7,260.4 L 516.3,261.2 L 518.9,262.0 L 521.5,262.8 L 524.1,263.5 L 526.6,264.3 L 529.2,265.1 L 531.8,265.9 L 534.4,266.7 L 537.0,267.5 L 539.5,268.2 L 542.1,269.0 L 544.7,269.8 L 547.3,270.6 L 549.9,271.4 L 552.4,272.1 L 555.0,272.9 L 557.6,273.7 L 560.2,274.5 L 562.8,275.3 L 565.3,276.0 L 567.9,276.8 L 570.5,277.6 L 573.1,278.4 L 575.7,279.2 L 578.2,279.9 L 580.8,280.7 L 583.4,281.5 L 586.0,282.3 L 588.6,283.1 L 591.1,283.8 L 593.7,284.6 L 596.3,293.6 L 598.9,309.2 L 601.5,324.8 L 604.0,340.4 L 606.6,356.1 L 609.2,365.0 L 611.8,365.0 L 614.4,365.0 L 616.9,365.0 L 619.5,365.0 L 622.1,365.0 L 624.7,365.0 L 627.3,365.0 L 629.8,365.0 L 632.4,365.0 L 635.0,365.0" class="rho"/>
<path d="M 70.0,158.3 L 72.6,158.4 L 75.2,158.4 L 77.7,158.4 L 80.3,158.5 L 82.9,158.5 L 85.5,158.6 L 88.1,158.7 L 90.6,158.9 L 93.2,159.0 L 95.8,159.1 L 98.4,159.3 L 101.0,159.5 L 103.5,159.7 L 106.1,159.9 L 108.7,160.2 L 111.3,160.4 L 113.9,160.7 L 116.4,161.0 L 119.0,161.3 L 121.6,161.6 L 124.2,161.9 L 126.8,162.3 L 129.3,162.7 L 131.9,163.1 L 134.5,163.5 L 137.1,163.9 L 139.7,164.4 L 142.2,164.8 L 144.8,165.3 L 147.4,165.9 L 150.0,166.4 L 152.6,167.0 L 155.1,167.5 L 157.7,168.1 L 160.3,168.8 L 162.9,169.4 L 165.5,170.1 L 168.0,170.8 L 170.6,171.5 L 173.2,172.2 L 175.8,173.0 L 178.4,173.7 L 180.9,174.5 L 183.5,175.3 L 186.1,176.0 L 188.7,176.8 L 191.3,177.6 L 193.8,178.4 L 196.4,179.3 L 199.0,180.1 L 201.6,180.9 L 204.2,181.7 L 206.7,182.6 L 209.3,183.4 L 211.9,184.2 L 214.5,185.1 L 217.1,185.9 L 219.6,186.8 L 222.2,187.7 L 224.8,188.6 L 227.4,189.5 L 230.0,190.4 L 232.5,191.3 L 235.1,192.2 L 237.7,193.2 L 240.3,194.1 L 242.9,195.1 L 245.4,196.0 L 248.0,197.0 L 250.6,198.0 L 253.2,199.0 L 255.8,200.0 L 258.3,201.0 L 260.9,202.1 L 263.5,203.1 L 266.1,204.1 L 268.7,205.2 L 271.2,206.2 L 273.8,207.3 L 276.4,208.3 L 279.0,209.4 L 281.6,210.5 L 284.1,211.5 L 286.7,212.6 L 289.3,213.7 L 291.9,214.8 L 294.5,215.8 L 297.0,216.9 L 299.6,218.0 L 302.2,219.1 L 304.8,220.2 L 307.4,221.3 L 309.9,222.4 L 312.5,223.5 L 315.1,224.6 L 317.7,225.7 L 320.3,226.8 L 322.8,227.9 L 325.4,229.0 L 328.0,230.1 L 330.6,231.2 L 333.2,232.3 L 335.7,233.4 L 338.3,234.4 L 340.9,235.5 L 343.5,236.6 L 346.1,237.7 L 348.6,238.8 L 351.2,239.9 L 353.8,241.0 L 356.4,242.1 L 358.9,243.1 L 361.5,244.2 L 364.1,245.3 L 366.7,246.4 L 369.3,247.4 L 371.8,248.5 L 374.4,249.6 L 377.0,250.6 L 379.6,251.7 L 382.2,252.7 L 384.7,253.8 L 387.3,254.9 L 389.9,255.9 L 392.5,256.9 L 395.1,258.0 L 397.6,259.0 L 400.2,260.0 L 402.8,261.1 L 405.4,262.1 L 408.0,263.1 L 410.5,264.1 L 413.1,265.1 L 415.7,266.2 L 418.3,267.2 L 420.9,268.2 L 423.4,269.2 L 426.0,270.1 L 428.6,271.1 L 431.2,272.1 L 433.8,273.1 L 436.3,274.1 L 438.9,275.0 L 441.5,276.0 L 444.1,277.0 L 446.7,277.9 L 449.2,278.9 L 451.8,279.8 L 454.4,280.7 L 457.0,281.7 L 459.6,282.6 L 462.1,283.5 L 464.7,284.4 L 467.3,285.4 L 469.9,286.3 L 472.5,287.2 L 475.0,288.1 L 477.6,289.0 L 480.2,289.9 L 482.8,290.7 L 485.4,291.6 L 487.9,292.5 L 490.5,293.4 L 493.1,294.2 L 495.7,295.1 L 498.3,295.9 L 500.8,296.8 L 503.4,297.6 L 506.0,298.5 L 508.6,299.3 L 511.2,300.1 L 513.7,301.0 L 516.3,301.8 L 518.9,302.6 L 521.5,303.4 L 524.1,304.2 L 526.6,305.0 L 529.2,305.8 L 531.8,306.6 L 534.4,307.4 L 537.0,308.2 L 539.5,309.0 L 542.1,309.8 L 544.7,310.5 L 547.3,311.3 L 549.9,312.1 L 552.4,312.9 L 555.0,313.6 L 557.6,314.4 L 560.2,315.1 L 562.8,315.9 L 565.3,316.7 L 567.9,317.4 L 570.5,318.2 L 573.1,318.9 L 575.7,319.7 L 578.2,320.5 L 580.8,321.2 L 583.4,322.0 L 586.0,322.7 L 588.6,323.5 L 591.1,324.2 L 593.7,325.0 L 596.3,325.7 L 598.9,326.4 L 601.5,327.2 L 604.0,327.9 L 606.6,328.5 L 609.2,329.2 L 611.8,329.9 L 614.4,330.5 L 616.9,331.1 L 619.5,331.7 L 622.1,332.3 L 624.7,332.8 L 627.3,333.4 L 629.8,333.9 L 632.4,334.4 L 635.0,334.9" class="sig"/>
<path d="M 75.7,331.9 L 81.3,318.2 L 87.0,307.7 L 92.6,298.8 L 98.2,291.0 L 103.9,284.0 L 109.5,277.5 L 115.2,271.4 L 120.9,265.8 L 126.5,260.4 L 132.2,255.3 L 137.8,250.4 L 143.4,245.7 L 149.1,241.2 L 154.8,236.9 L 160.4,232.7 L 166.1,228.6 L 171.7,224.7 L 177.3,221.1 L 183.0,217.6 L 188.7,214.3 L 194.3,211.2 L 200.0,208.1 L 205.6,205.0 L 211.2,202.1 L 216.9,199.2 L 222.6,196.3 L 228.2,193.5 L 233.8,190.7 L 239.5,188.0 L 245.2,185.4 L 250.8,182.8 L 256.5,180.4 L 262.1,178.0 L 267.8,175.6 L 273.4,173.4 L 279.0,171.2 L 284.7,169.0 L 290.3,166.9 L 296.0,164.9 L 301.6,162.9 L 307.3,161.0 L 313.0,159.1 L 318.6,157.2 L 324.2,155.5 L 329.9,153.7 L 335.6,152.0 L 341.2,150.4 L 346.9,148.8 L 352.5,147.2 L 358.1,145.6 L 363.8,144.2 L 369.4,142.7 L 375.1,141.3 L 380.7,139.9 L 386.4,138.6 L 392.0,137.3 L 397.7,136.0 L 403.3,134.7 L 409.0,133.5 L 414.6,132.4 L 420.3,131.2 L 425.9,130.1 L 431.6,129.0 L 437.2,128.0 L 442.9,127.0 L 448.6,126.0 L 454.2,125.0 L 459.8,124.1 L 465.5,123.2 L 471.1,122.3 L 476.8,121.5 L 482.5,120.7 L 488.1,119.9 L 493.7,119.1 L 499.4,118.4 L 505.0,117.7 L 510.7,117.0 L 516.4,116.4 L 522.0,115.8 L 527.7,115.2 L 533.3,114.6 L 539.0,114.0 L 544.6,113.5 L 550.2,113.0 L 555.9,112.6 L 561.5,112.1 L 567.2,111.7 L 572.9,111.3 L 578.5,110.9 L 584.1,110.6 L 589.8,110.3 L 595.4,110.0 L 601.1,110.1 L 606.8,110.9 L 612.4,112.2 L 618.0,113.5 L 623.7,114.8 L 629.4,116.1 L 635.0,117.3" class="nt"/>
<path d="M 74.7,359.4 L 79.4,355.0 L 84.1,350.2 L 88.8,345.3 L 93.5,340.4 L 98.2,335.4 L 103.0,330.4 L 107.7,325.4 L 112.4,320.3 L 117.1,315.1 L 121.8,309.9 L 126.5,304.6 L 131.2,299.2 L 135.9,293.7 L 140.6,288.1 L 145.3,282.4 L 150.0,276.6 L 154.8,270.8 L 159.5,265.1 L 164.2,259.4 L 168.9,254.1 L 173.6,249.1 L 178.3,244.5 L 183.0,240.3 L 187.7,236.5 L 192.4,233.0 L 197.1,229.7 L 201.8,226.4 L 206.5,223.0 L 211.2,219.6 L 216.0,216.0 L 220.7,212.2 L 225.4,208.3 L 230.1,204.3 L 234.8,200.2 L 239.5,196.2 L 244.2,192.1 L 248.9,188.3 L 253.6,184.5 L 258.3,180.9 L 263.0,177.4 L 267.8,174.1 L 272.5,170.9 L 277.2,167.8 L 281.9,164.9 L 286.6,162.0 L 291.3,159.3 L 296.0,156.7 L 300.7,154.2 L 305.4,151.8 L 310.1,149.5 L 314.8,147.2 L 319.5,145.1 L 324.2,143.0 L 329.0,141.0 L 333.7,139.1 L 338.4,137.3 L 343.1,135.6 L 347.8,133.9 L 352.5,132.3 L 357.2,130.8 L 361.9,129.3 L 366.6,127.9 L 371.3,126.6 L 376.0,125.3 L 380.8,124.1 L 385.5,123.0 L 390.2,121.9 L 394.9,120.9 L 399.6,119.9 L 404.3,119.0 L 409.0,118.2 L 413.7,117.4 L 418.4,116.7 L 423.1,116.0 L 427.8,115.4 L 432.5,114.8 L 437.2,114.3 L 442.0,113.8 L 446.7,113.4 L 451.4,113.0 L 456.1,112.6 L 460.8,112.3 L 465.5,112.0 L 470.2,111.8 L 474.9,111.6 L 479.6,111.5 L 484.3,111.3 L 489.0,111.2 L 493.8,111.1 L 498.5,111.1 L 503.2,111.0 L 507.9,110.9 L 512.6,110.9 L 517.3,110.8 L 522.0,110.8 L 526.7,110.7 L 531.4,110.5 L 536.1,110.3 L 540.8,110.1 L 545.5,109.7 L 550.2,109.3 L 555.0,108.7 L 559.7,108.0 L 564.4,107.2 L 569.1,106.2 L 573.8,105.1 L 578.5,104.1 L 583.2,103.2 L 587.9,102.8 L 592.6,103.3 L 597.3,104.8 L 602.0,107.7 L 606.8,111.8 L 611.5,116.9 L 616.2,122.7 L 620.9,128.8 L 625.6,134.9 L 630.3,140.9 L 635.0,146.6" class="fw"/>
<line x1="86.61958418221965" y1="328.9005773559057" x2="86.61958418221965" y2="376.8309032194931" class="err"/>
<line x1="83.61958418221965" y1="328.9005773559057" x2="89.61958418221965" y2="328.9005773559057" class="err"/>
<line x1="83.61958418221965" y1="376.8309032194931" x2="89.61958418221965" y2="376.8309032194931" class="err"/>
<circle cx="86.61958418221965" cy="352.8657402876994" r="2.5" class="obs"/>
<line x1="119.85875254665893" y1="287.34073784127605" x2="119.85875254665893" y2="339.5180546041687" class="err"/>
<line x1="116.85875254665893" y1="287.34073784127605" x2="122.85875254665893" y2="287.34073784127605" class="err"/>
<line x1="116.85875254665893" y1="339.5180546041687" x2="122.85875254665893" y2="339.5180546041687" class="err"/>
<circle cx="119.85875254665893" cy="313.4293962227224" r="2.5" class="obs"/>
<line x1="158.63778230517144" y1="240.01712496330367" x2="158.63778230517144" y2="287.9474508268911" class="err"/>
<line x1="155.63778230517144" y1="240.01712496330367" x2="161.63778230517144" y2="240.01712496330367" class="err"/>
<line x1="155.63778230517144" y1="287.9474508268911" x2="161.63778230517144" y2="287.9474508268911" class="err"/>
<circle cx="158.63778230517144" cy="263.98228789509744" r="2.5" class="obs"/>
<line x1="191.87695066961072" y1="196.9405029846365" x2="191.87695066961072" y2="260.6453664742147" class="err"/>
<line x1="188.87695066961072" y1="196.9405029846365" x2="194.87695066961072" y2="196.9405029846365" class="err"/>
<line x1="188.87695066961072" y1="260.6453664742147" x2="194.87695066961072" y2="260.6453664742147" class="err"/>
<circle cx="191.87695066961072" cy="228.7929347294256" r="2.5" class="obs"/>
<line x1="230.65598042812323" y1="180.25589588022314" x2="230.65598042812323" y2="228.18622174381053" class="err"/>
<line x1="227.65598042812323" y1="180.25589588022314" x2="233.65598042812323" y2="180.25589588022314" class="err"/>
<line x1="227.65598042812323" y1="228.18622174381053" x2="233.65598042812323" y2="228.18622174381053" class="err"/>
<circle cx="230.65598042812323" cy="204.22105881201685" r="2.5" class="obs"/>
<line x1="263.89514879256257" y1="156.59408944123692" x2="263.89514879256257" y2="204.52441530482437" class="err"/>
<line x1="260.89514879256257" y1="156.59408944123692" x2="266.89514879256257" y2="156.59408944123692" class="err"/>
<line x1="260.89514879256257" y1="204.52441530482437" x2="266.89514879256257" y2="204.52441530482437" class="err"/>
<circle cx="263.89514879256257" cy="180.55925237303066" r="2.5" class="obs"/>
<line x1="302.67417855107504" y1="131.71885703102066" x2="302.67417855107504" y2="179.6491828946081" class="err"/>
<line x1="299.67417855107504" y1="131.71885703102066" x2="305.67417855107504" y2="131.71885703102066" class="err"/>
<line x1="299.67417855107504" y1="179.6491828946081" x2="305.67417855107504" y2="179.6491828946081" class="err"/>
<circle cx="302.67417855107504" cy="155.68401996281438" r="2.5" class="obs"/>
<line x1="335.91334691551435" y1="108.66376357764949" x2="335.91334691551435" y2="156.59408944123697" class="err"/>
<line x1="332.91334691551435" y1="108.66376357764949" x2="338.91334691551435" y2="108.66376357764949" class="err"/>
<line x1="332.91334691551435" y1="156.59408944123697" x2="338.91334691551435" y2="156.59408944123697" class="err"/>
<circle cx="335.91334691551435" cy="132.62892650944326" r="2.5" class="obs"/>
<line x1="369.15251527995366" y1="83.18181818181819" x2="369.15251527995366" y2="131.11214404540564" class="err"/>
<line x1="366.15251527995366" y1="83.18181818181819" x2="372.15251527995366" y2="83.18181818181819" class="err"/>
<line x1="366.15251527995366" y1="131.11214404540564" x2="372.15251527995366" y2="131.11214404540564" class="err"/>
<circle cx="369.15251527995366" cy="107.14698111361193" r="2.5" class="obs"/>
<line x1="424.55112922068577" y1="107.75369409922698" x2="424.55112922068577" y2="148.40346413543404" class="err"/>
<line x1="421.55112922068577" y1="107.75369409922698" x2="427.55112922068577" y2="107.75369409922698" class="err"/>
<line x1="421.55112922068577" y1="148.40346413543404" x2="427.55112922068577" y2="148.40346413543404" class="err"/>
<circle cx="424.55112922068577" cy="128.07857911733052" r="2.5" class="obs"/>
<line x1="513.1889115258573" y1="97.13621685096393" x2="513.1889115258573" y2="137.78598688717102" class="err"/>
<line x1="510.1889115258573" y1="97.13621685096393" x2="516.1889115258573" y2="97.13621685096393" class="err"/>
<line x1="510.1889115258573" y1="137.78598688717102" x2="516.1889115258573" y2="137.78598688717102" class="err"/>
<circle cx="513.1889115258573" cy="117.46110186906746" r="2.5" class="obs"/>
<line x1="601.8266938310287" y1="88.33887855954598" x2="601.8266938310287" y2="128.98864859575303" class="err"/>
<line x1="598.8266938310287" y1="88.33887855954598" x2="604.8266938310287" y2="88.33887855954598" class="err"/>
<line x1="598.8266938310287" y1="128.98864859575303" x2="604.8266938310287" y2="128.98864859575303" class="err"/>
<circle cx="601.8266938310287" cy="108.66376357764949" r="2.5" class="obs"/>
<g class="legend">
<line x1="82" y1="69" x2="106" y2="69" class="fw"/>
<text x="112" y="73" class="lbl-l">framework fit</text>
<line x1="82" y1="87" x2="106" y2="87" class="nt"/>
<text x="112" y="91" class="lbl-l">Newtonian (no halo)</text>
<circle cx="94" cy="105" r="2.5" class="obs"/>
<text x="112" y="109" class="lbl">observed V±err</text>
</g>
<g class="legend">
<line x1="460" y1="69" x2="484" y2="69" class="rho"/>
<text x="490" y="73" class="lbl-r">ρ(r) raw</text>
<line x1="460" y1="87" x2="484" y2="87" class="sig"/>
<text x="490" y="91" class="lbl-r">Σ(r) smoothed</text>
<text x="460" y="113" class="lbl-r">ρ peak: 78 M☉/pc²</text>
</g>
</svg>