<svg xmlns="http://www.w3.org/2000/svg" viewBox="0 0 890 420" width="890" height="420" font-family="sans-serif" font-size="12">
<style>
  .ax { stroke: #333; stroke-width: 1; fill: none; }
  .grid { stroke: #ddd; stroke-width: 0.5; fill: none; }
  .lbl { fill: #333; }
  .lbl-l { fill: #0066cc; }
  .lbl-r { fill: #b03030; }
  .obs { fill: #222; }
  .err { stroke: #555; stroke-width: 0.8; fill: none; }
  .fw { stroke: #0066cc; stroke-width: 2.2; fill: none; }
  .nt { stroke: #cc6600; stroke-width: 1.6; fill: none; stroke-dasharray: 5,3; }
  .lbl-s { fill: #cc7000; }
  .rho { stroke: #b03030; stroke-width: 2.0; fill: none; }
  .sig { stroke: #cc7000; stroke-width: 1.8; fill: none; }
  .title { fill: #111; font-size: 16px; font-weight: 600; }
  .subtitle { fill: #555; font-size: 11px; }
  .preview-bg { fill: #000; }
  .preview-lbl { fill: #888; font-size: 10px; }
  .legend { font-size: 11px; }
</style>
<text x="343.5" y="22" text-anchor="middle" class="title">UGC10310</text>
<text x="343.5" y="38" text-anchor="middle" class="subtitle">rMax=7.7 kpc, N=7, RMS=0.8 km/s (1.3%), amp=103</text>
<line x1="70" y1="365.0" x2="617" y2="365.0" class="grid"/>
<text x="64" y="369.0" text-anchor="end" class="lbl-l">0</text>
<line x1="70" y1="303.0" x2="617" y2="303.0" class="grid"/>
<text x="64" y="307.0" text-anchor="end" class="lbl-l">17</text>
<line x1="70" y1="241.0" x2="617" y2="241.0" class="grid"/>
<text x="64" y="245.0" text-anchor="end" class="lbl-l">34</text>
<line x1="70" y1="179.0" x2="617" y2="179.0" class="grid"/>
<text x="64" y="183.0" text-anchor="end" class="lbl-l">52</text>
<line x1="70" y1="117.0" x2="617" y2="117.0" class="grid"/>
<text x="64" y="121.0" text-anchor="end" class="lbl-l">69</text>
<line x1="70" y1="55.0" x2="617" y2="55.0" class="grid"/>
<text x="64" y="59.0" text-anchor="end" class="lbl-l">86</text>
<text x="623" y="369.0" text-anchor="start" class="lbl-r">0.0</text>
<text x="623" y="327.7" text-anchor="start" class="lbl-r">0.2</text>
<text x="623" y="286.3" text-anchor="start" class="lbl-r">0.4</text>
<text x="623" y="245.0" text-anchor="start" class="lbl-r">0.6</text>
<text x="623" y="203.7" text-anchor="start" class="lbl-r">0.8</text>
<text x="623" y="162.3" text-anchor="start" class="lbl-r">1.0</text>
<line x1="70.0" y1="55" x2="70.0" y2="365" class="grid"/>
<text x="70.0" y="381" text-anchor="middle" class="lbl">0.0</text>
<line x1="161.2" y1="55" x2="161.2" y2="365" class="grid"/>
<text x="161.2" y="381" text-anchor="middle" class="lbl">1.4</text>
<line x1="252.3" y1="55" x2="252.3" y2="365" class="grid"/>
<text x="252.3" y="381" text-anchor="middle" class="lbl">2.8</text>
<line x1="343.5" y1="55" x2="343.5" y2="365" class="grid"/>
<text x="343.5" y="381" text-anchor="middle" class="lbl">4.2</text>
<line x1="434.7" y1="55" x2="434.7" y2="365" class="grid"/>
<text x="434.7" y="381" text-anchor="middle" class="lbl">5.6</text>
<line x1="525.8" y1="55" x2="525.8" y2="365" class="grid"/>
<text x="525.8" y="381" text-anchor="middle" class="lbl">7.0</text>
<line x1="617.0" y1="55" x2="617.0" y2="365" class="grid"/>
<text x="617.0" y="381" text-anchor="middle" class="lbl">8.4</text>
<text x="343.5" y="408" text-anchor="middle" class="lbl">radius (kpc)</text>
<text x="16" y="210" text-anchor="middle" class="lbl-l" transform="rotate(-90, 16, 210)">velocity (km/s)</text>
<text x="654" y="210" text-anchor="middle" class="lbl-r" transform="rotate(-90, 654, 210)">mass profile (normalized to peak)</text>
<rect x="70" y="55" width="547" height="310" class="ax"/>
<path d="M 70.0,158.3 L 72.5,172.4 L 75.0,186.4 L 77.5,200.4 L 80.0,214.5 L 82.5,223.3 L 85.0,223.4 L 87.5,223.5 L 90.0,223.6 L 92.5,223.7 L 95.0,223.9 L 97.5,224.0 L 100.0,224.1 L 102.5,224.2 L 105.0,224.3 L 107.5,224.4 L 110.0,224.5 L 112.5,224.6 L 115.0,225.1 L 117.5,225.7 L 120.0,226.3 L 122.5,226.9 L 124.9,227.5 L 127.4,228.1 L 129.9,228.7 L 132.4,229.3 L 134.9,229.9 L 137.4,230.5 L 139.9,231.1 L 142.4,231.7 L 144.9,232.3 L 147.4,232.9 L 149.9,233.5 L 152.4,234.1 L 154.9,234.7 L 157.4,235.3 L 159.9,235.9 L 162.4,236.5 L 164.9,237.1 L 167.4,237.7 L 169.9,238.3 L 172.4,238.9 L 174.9,239.5 L 177.4,240.1 L 179.9,240.7 L 182.4,241.4 L 184.9,242.0 L 187.4,242.6 L 189.9,243.2 L 192.4,243.8 L 194.9,244.4 L 197.4,245.0 L 199.9,245.6 L 202.4,246.2 L 204.9,246.8 L 207.4,247.4 L 209.9,248.0 L 212.4,248.6 L 214.9,249.2 L 217.4,249.8 L 219.9,250.4 L 222.4,251.0 L 224.9,251.6 L 227.4,252.2 L 229.9,252.8 L 232.4,253.4 L 234.8,254.0 L 237.3,254.6 L 239.8,255.2 L 242.3,255.8 L 244.8,256.4 L 247.3,257.0 L 249.8,257.6 L 252.3,258.2 L 254.8,258.8 L 257.3,259.4 L 259.8,260.0 L 262.3,260.6 L 264.8,261.2 L 267.3,261.8 L 269.8,262.4 L 272.3,263.0 L 274.8,263.6 L 277.3,264.2 L 279.8,264.8 L 282.3,265.4 L 284.8,266.0 L 287.3,266.6 L 289.8,267.2 L 292.3,267.8 L 294.8,268.4 L 297.3,269.0 L 299.8,269.6 L 302.3,270.2 L 304.8,270.8 L 307.3,271.4 L 309.8,272.0 L 312.3,272.5 L 314.8,272.9 L 317.3,273.3 L 319.8,273.7 L 322.3,274.1 L 324.8,274.5 L 327.3,274.9 L 329.8,275.3 L 332.3,275.7 L 334.8,276.1 L 337.3,276.5 L 339.8,276.9 L 342.3,277.3 L 344.7,277.8 L 347.2,278.2 L 349.7,278.6 L 352.2,279.0 L 354.7,279.4 L 357.2,279.8 L 359.7,280.2 L 362.2,280.6 L 364.7,281.0 L 367.2,281.4 L 369.7,281.8 L 372.2,282.2 L 374.7,282.6 L 377.2,283.0 L 379.7,283.4 L 382.2,283.8 L 384.7,284.2 L 387.2,284.6 L 389.7,285.0 L 392.2,285.5 L 394.7,285.9 L 397.2,286.3 L 399.7,286.7 L 402.2,287.1 L 404.7,287.5 L 407.2,287.9 L 409.7,288.3 L 412.2,288.7 L 414.7,289.1 L 417.2,289.5 L 419.7,289.9 L 422.2,290.3 L 424.7,290.7 L 427.2,291.1 L 429.7,291.5 L 432.2,291.9 L 434.7,292.3 L 437.2,292.8 L 439.7,293.2 L 442.2,293.6 L 444.7,294.0 L 447.2,294.4 L 449.7,294.8 L 452.2,295.2 L 454.6,295.6 L 457.1,296.0 L 459.6,296.4 L 462.1,296.8 L 464.6,297.2 L 467.1,297.6 L 469.6,298.0 L 472.1,298.4 L 474.6,298.8 L 477.1,299.2 L 479.6,299.6 L 482.1,300.1 L 484.6,300.5 L 487.1,300.9 L 489.6,301.3 L 492.1,301.7 L 494.6,302.1 L 497.1,302.5 L 499.6,302.9 L 502.1,303.3 L 504.6,303.7 L 507.1,304.1 L 509.6,304.5 L 512.1,304.9 L 514.6,305.3 L 517.1,305.7 L 519.6,306.1 L 522.1,306.5 L 524.6,306.9 L 527.1,307.3 L 529.6,307.8 L 532.1,308.2 L 534.6,308.6 L 537.1,309.0 L 539.6,309.4 L 542.1,309.8 L 544.6,310.2 L 547.1,310.6 L 549.6,311.0 L 552.1,311.4 L 554.6,311.8 L 557.1,313.3 L 559.6,317.1 L 562.1,320.9 L 564.5,324.7 L 567.0,328.5 L 569.5,332.3 L 572.0,336.1 L 574.5,339.9 L 577.0,343.8 L 579.5,347.6 L 582.0,351.4 L 584.5,355.2 L 587.0,359.0 L 589.5,362.8 L 592.0,365.0 L 594.5,365.0 L 597.0,365.0 L 599.5,365.0 L 602.0,365.0 L 604.5,365.0 L 607.0,365.0 L 609.5,365.0 L 612.0,365.0 L 614.5,365.0 L 617.0,365.0" class="rho"/>
<path d="M 70.0,158.3 L 72.5,158.4 L 75.0,158.5 L 77.5,158.7 L 80.0,158.9 L 82.5,159.1 L 85.0,159.5 L 87.5,159.8 L 90.0,160.2 L 92.5,160.6 L 95.0,161.0 L 97.5,161.4 L 100.0,161.9 L 102.5,162.4 L 105.0,162.9 L 107.5,163.5 L 110.0,164.1 L 112.5,164.7 L 115.0,165.3 L 117.5,166.0 L 120.0,166.7 L 122.5,167.4 L 124.9,168.1 L 127.4,168.9 L 129.9,169.7 L 132.4,170.5 L 134.9,171.3 L 137.4,172.2 L 139.9,173.0 L 142.4,173.9 L 144.9,174.8 L 147.4,175.7 L 149.9,176.7 L 152.4,177.7 L 154.9,178.6 L 157.4,179.6 L 159.9,180.6 L 162.4,181.6 L 164.9,182.7 L 167.4,183.7 L 169.9,184.7 L 172.4,185.8 L 174.9,186.9 L 177.4,188.0 L 179.9,189.1 L 182.4,190.2 L 184.9,191.3 L 187.4,192.4 L 189.9,193.5 L 192.4,194.6 L 194.9,195.8 L 197.4,196.9 L 199.9,198.1 L 202.4,199.2 L 204.9,200.4 L 207.4,201.5 L 209.9,202.7 L 212.4,203.9 L 214.9,205.1 L 217.4,206.2 L 219.9,207.4 L 222.4,208.6 L 224.9,209.8 L 227.4,211.0 L 229.9,212.2 L 232.4,213.3 L 234.8,214.5 L 237.3,215.7 L 239.8,216.9 L 242.3,218.1 L 244.8,219.3 L 247.3,220.5 L 249.8,221.6 L 252.3,222.8 L 254.8,224.0 L 257.3,225.2 L 259.8,226.4 L 262.3,227.5 L 264.8,228.7 L 267.3,229.9 L 269.8,231.0 L 272.3,232.2 L 274.8,233.3 L 277.3,234.5 L 279.8,235.6 L 282.3,236.8 L 284.8,237.9 L 287.3,239.0 L 289.8,240.2 L 292.3,241.3 L 294.8,242.4 L 297.3,243.5 L 299.8,244.6 L 302.3,245.7 L 304.8,246.7 L 307.3,247.8 L 309.8,248.9 L 312.3,249.9 L 314.8,251.0 L 317.3,252.0 L 319.8,253.0 L 322.3,254.1 L 324.8,255.1 L 327.3,256.1 L 329.8,257.1 L 332.3,258.1 L 334.8,259.1 L 337.3,260.1 L 339.8,261.0 L 342.3,262.0 L 344.7,263.0 L 347.2,263.9 L 349.7,264.9 L 352.2,265.8 L 354.7,266.8 L 357.2,267.7 L 359.7,268.6 L 362.2,269.5 L 364.7,270.5 L 367.2,271.4 L 369.7,272.3 L 372.2,273.2 L 374.7,274.1 L 377.2,274.9 L 379.7,275.8 L 382.2,276.7 L 384.7,277.6 L 387.2,278.4 L 389.7,279.3 L 392.2,280.2 L 394.7,281.0 L 397.2,281.9 L 399.7,282.7 L 402.2,283.6 L 404.7,284.4 L 407.2,285.2 L 409.7,286.0 L 412.2,286.9 L 414.7,287.7 L 417.2,288.5 L 419.7,289.3 L 422.2,290.1 L 424.7,290.9 L 427.2,291.7 L 429.7,292.5 L 432.2,293.2 L 434.7,294.0 L 437.2,294.8 L 439.7,295.6 L 442.2,296.3 L 444.7,297.1 L 447.2,297.9 L 449.7,298.6 L 452.2,299.4 L 454.6,300.1 L 457.1,300.8 L 459.6,301.6 L 462.1,302.3 L 464.6,303.1 L 467.1,303.8 L 469.6,304.5 L 472.1,305.2 L 474.6,305.9 L 477.1,306.6 L 479.6,307.4 L 482.1,308.1 L 484.6,308.8 L 487.1,309.5 L 489.6,310.2 L 492.1,310.9 L 494.6,311.5 L 497.1,312.2 L 499.6,312.9 L 502.1,313.6 L 504.6,314.3 L 507.1,315.0 L 509.6,315.6 L 512.1,316.3 L 514.6,317.0 L 517.1,317.7 L 519.6,318.3 L 522.1,319.0 L 524.6,319.7 L 527.1,320.4 L 529.6,321.0 L 532.1,321.7 L 534.6,322.4 L 537.1,323.1 L 539.6,323.8 L 542.1,324.4 L 544.6,325.1 L 547.1,325.8 L 549.6,326.5 L 552.1,327.2 L 554.6,327.9 L 557.1,328.6 L 559.6,329.3 L 562.1,329.9 L 564.5,330.6 L 567.0,331.3 L 569.5,331.9 L 572.0,332.6 L 574.5,333.2 L 577.0,333.8 L 579.5,334.4 L 582.0,335.0 L 584.5,335.6 L 587.0,336.1 L 589.5,336.7 L 592.0,337.2 L 594.5,337.7 L 597.0,338.1 L 599.5,338.6 L 602.0,339.0 L 604.5,339.5 L 607.0,339.9 L 609.5,340.3 L 612.0,340.7 L 614.5,341.0 L 617.0,341.4" class="sig"/>
<path d="M 75.5,320.8 L 80.9,306.1 L 86.4,295.8 L 91.9,286.3 L 97.3,277.8 L 102.8,269.9 L 108.3,262.6 L 113.8,255.7 L 119.2,249.3 L 124.7,243.4 L 130.2,237.8 L 135.6,232.5 L 141.1,227.5 L 146.6,222.7 L 152.1,218.2 L 157.5,213.8 L 163.0,209.6 L 168.5,205.6 L 173.9,201.8 L 179.4,198.1 L 184.9,194.5 L 190.3,191.1 L 195.8,187.7 L 201.3,184.5 L 206.8,181.4 L 212.2,178.4 L 217.7,175.5 L 223.2,172.7 L 228.6,170.0 L 234.1,167.3 L 239.6,164.8 L 245.0,162.3 L 250.5,159.9 L 256.0,157.6 L 261.4,155.3 L 266.9,153.1 L 272.4,151.0 L 277.9,148.9 L 283.3,146.9 L 288.8,144.9 L 294.3,143.1 L 299.7,141.2 L 305.2,139.5 L 310.7,137.7 L 316.1,136.1 L 321.6,134.4 L 327.1,132.8 L 332.6,131.2 L 338.0,129.7 L 343.5,128.2 L 349.0,126.7 L 354.4,125.2 L 359.9,123.8 L 365.4,122.4 L 370.9,121.0 L 376.3,119.7 L 381.8,118.4 L 387.3,117.1 L 392.7,115.9 L 398.2,114.7 L 403.7,113.5 L 409.1,112.3 L 414.6,111.2 L 420.1,110.1 L 425.5,109.0 L 431.0,107.9 L 436.5,106.9 L 442.0,105.9 L 447.4,105.0 L 452.9,104.0 L 458.4,103.1 L 463.8,102.2 L 469.3,101.3 L 474.8,100.5 L 480.3,99.7 L 485.7,98.9 L 491.2,98.1 L 496.7,97.3 L 502.1,96.6 L 507.6,95.9 L 513.1,95.2 L 518.5,94.6 L 524.0,94.0 L 529.5,93.4 L 535.0,92.8 L 540.4,92.2 L 545.9,91.7 L 551.4,91.2 L 556.8,90.7 L 562.3,90.4 L 567.8,90.4 L 573.2,90.7 L 578.7,91.3 L 584.2,92.2 L 589.6,93.4 L 595.1,94.8 L 600.6,96.2 L 606.1,97.6 L 611.5,99.0 L 617.0,100.3" class="nt"/>
<path d="M 74.6,352.6 L 79.1,343.7 L 83.7,334.6 L 88.2,326.2 L 92.8,318.4 L 97.3,311.1 L 101.9,303.9 L 106.5,296.6 L 111.0,289.4 L 115.6,282.2 L 120.1,275.1 L 124.7,268.1 L 129.3,261.3 L 133.8,254.7 L 138.4,248.2 L 142.9,242.0 L 147.5,236.0 L 152.1,230.2 L 156.6,224.6 L 161.2,219.2 L 165.7,213.9 L 170.3,208.8 L 174.8,203.9 L 179.4,199.1 L 184.0,194.5 L 188.5,190.0 L 193.1,185.7 L 197.6,181.6 L 202.2,177.6 L 206.8,173.7 L 211.3,170.0 L 215.9,166.4 L 220.4,162.9 L 225.0,159.6 L 229.5,156.4 L 234.1,153.4 L 238.7,150.5 L 243.2,147.7 L 247.8,145.1 L 252.3,142.6 L 256.9,140.2 L 261.4,138.0 L 266.0,135.9 L 270.6,133.9 L 275.1,132.1 L 279.7,130.5 L 284.2,129.0 L 288.8,127.6 L 293.4,126.4 L 297.9,125.4 L 302.5,124.5 L 307.0,123.7 L 311.6,123.0 L 316.1,122.4 L 320.7,121.9 L 325.3,121.3 L 329.8,120.8 L 334.4,120.2 L 338.9,119.6 L 343.5,119.0 L 348.1,118.5 L 352.6,117.9 L 357.2,117.3 L 361.7,116.8 L 366.3,116.2 L 370.9,115.7 L 375.4,115.1 L 380.0,114.6 L 384.5,114.1 L 389.1,113.6 L 393.6,113.2 L 398.2,112.7 L 402.8,112.3 L 407.3,111.9 L 411.9,111.5 L 416.4,111.1 L 421.0,110.8 L 425.6,110.4 L 430.1,110.1 L 434.7,109.8 L 439.2,109.5 L 443.8,109.2 L 448.3,108.9 L 452.9,108.7 L 457.5,108.4 L 462.0,108.1 L 466.6,107.8 L 471.1,107.5 L 475.7,107.2 L 480.3,106.9 L 484.8,106.5 L 489.4,106.0 L 493.9,105.6 L 498.5,105.0 L 503.0,104.3 L 507.6,103.6 L 512.2,102.7 L 516.7,101.7 L 521.3,100.5 L 525.8,99.1 L 530.4,97.5 L 535.0,95.7 L 539.5,93.7 L 544.1,91.7 L 548.6,89.9 L 553.2,88.5 L 557.7,87.9 L 562.3,88.4 L 566.9,90.2 L 571.4,93.3 L 576.0,97.8 L 580.5,103.2 L 585.1,109.5 L 589.6,116.1 L 594.2,122.9 L 598.8,129.6 L 603.3,136.0 L 607.9,142.0 L 612.4,147.8 L 617.0,153.1" class="fw"/>
<line x1="141.40" y1="227.22" x2="141.40" y2="263.67" class="err"/>
<line x1="138.40" y1="227.22" x2="144.40" y2="227.22" class="err"/>
<line x1="138.40" y1="263.67" x2="144.40" y2="263.67" class="err"/>
<circle cx="141.40" cy="245.45" r="2.5" class="obs"/>
<line x1="213.44" y1="150.16" x2="213.44" y2="186.60" class="err"/>
<line x1="210.44" y1="150.16" x2="216.44" y2="150.16" class="err"/>
<line x1="210.44" y1="186.60" x2="216.44" y2="186.60" class="err"/>
<circle cx="213.44" cy="168.38" r="2.5" class="obs"/>
<line x1="284.84" y1="110.19" x2="284.84" y2="146.63" class="err"/>
<line x1="281.84" y1="110.19" x2="287.84" y2="110.19" class="err"/>
<line x1="281.84" y1="146.63" x2="287.84" y2="146.63" class="err"/>
<circle cx="284.84" cy="128.41" r="2.5" class="obs"/>
<line x1="356.88" y1="97.59" x2="356.88" y2="134.03" class="err"/>
<line x1="353.88" y1="97.59" x2="359.88" y2="97.59" class="err"/>
<line x1="353.88" y1="134.03" x2="359.88" y2="134.03" class="err"/>
<circle cx="356.88" cy="115.81" r="2.5" class="obs"/>
<line x1="428.28" y1="91.46" x2="428.28" y2="127.91" class="err"/>
<line x1="425.28" y1="91.46" x2="431.28" y2="91.46" class="err"/>
<line x1="425.28" y1="127.91" x2="431.28" y2="127.91" class="err"/>
<circle cx="428.28" cy="109.69" r="2.5" class="obs"/>
<line x1="500.97" y1="86.06" x2="500.97" y2="122.51" class="err"/>
<line x1="497.97" y1="86.06" x2="503.97" y2="86.06" class="err"/>
<line x1="497.97" y1="122.51" x2="503.97" y2="122.51" class="err"/>
<circle cx="500.97" cy="104.28" r="2.5" class="obs"/>
<line x1="572.36" y1="83.18" x2="572.36" y2="119.62" class="err"/>
<line x1="569.36" y1="83.18" x2="575.36" y2="83.18" class="err"/>
<line x1="569.36" y1="119.62" x2="575.36" y2="119.62" class="err"/>
<circle cx="572.36" cy="101.40" r="2.5" class="obs"/>
<g class="legend">
<line x1="82" y1="69" x2="106" y2="69" class="fw"/>
<text x="112" y="73" class="lbl-l">framework fit</text>
<line x1="82" y1="87" x2="106" y2="87" class="nt"/>
<text x="112" y="91" class="lbl-l">Newtonian (no halo)</text>
<circle cx="94" cy="105" r="2.5" class="obs"/>
<text x="112" y="109" class="lbl">observed V±err</text>
</g>
<g class="legend">
<line x1="442" y1="69" x2="466" y2="69" class="rho"/>
<text x="472" y="73" class="lbl-r">ρ(r) raw</text>
<line x1="442" y1="87" x2="466" y2="87" class="sig"/>
<text x="472" y="91" class="lbl-s">Σ(r) cumulative</text>
<text x="442" y="113" class="lbl-r">ρ peak: 147 M☉/pc²</text>
</g>
<rect x="705" y="55" width="170" height="170" class="preview-bg"/>
<defs><radialGradient id="g_UGC10310" cx="0.5" cy="0.5" r="0.5">
  <stop offset="0.0000" stop-color="rgb(250,62.5,62.5)"/>
  <stop offset="0.0313" stop-color="rgb(187,46.75,46.75)"/>
  <stop offset="0.0625" stop-color="rgb(187,46.75,46.75)"/>
  <stop offset="0.0938" stop-color="rgb(185,46.25,46.25)"/>
  <stop offset="0.1250" stop-color="rgb(181,45.25,45.25)"/>
  <stop offset="0.1563" stop-color="rgb(177,44.25,44.25)"/>
  <stop offset="0.1875" stop-color="rgb(173,43.25,43.25)"/>
  <stop offset="0.2188" stop-color="rgb(170,42.5,42.5)"/>
  <stop offset="0.2500" stop-color="rgb(166,41.5,41.5)"/>
  <stop offset="0.2813" stop-color="rgb(162,40.5,40.5)"/>
  <stop offset="0.3125" stop-color="rgb(158,39.5,39.5)"/>
  <stop offset="0.3438" stop-color="rgb(154,38.5,38.5)"/>
  <stop offset="0.3750" stop-color="rgb(151,37.75,37.75)"/>
  <stop offset="0.4063" stop-color="rgb(147,36.75,36.75)"/>
  <stop offset="0.4375" stop-color="rgb(143,35.75,35.75)"/>
  <stop offset="0.4688" stop-color="rgb(139,34.75,34.75)"/>
  <stop offset="0.5000" stop-color="rgb(137,34.25,34.25)"/>
  <stop offset="0.5313" stop-color="rgb(134,33.5,33.5)"/>
  <stop offset="0.5625" stop-color="rgb(132,33,33)"/>
  <stop offset="0.5938" stop-color="rgb(129,32.25,32.25)"/>
  <stop offset="0.6250" stop-color="rgb(127,31.75,31.75)"/>
  <stop offset="0.6563" stop-color="rgb(124,31,31)"/>
  <stop offset="0.6875" stop-color="rgb(122,30.5,30.5)"/>
  <stop offset="0.7188" stop-color="rgb(119,29.75,29.75)"/>
  <stop offset="0.7500" stop-color="rgb(116,29,29)"/>
  <stop offset="0.7813" stop-color="rgb(114,28.5,28.5)"/>
  <stop offset="0.8125" stop-color="rgb(111,27.75,27.75)"/>
  <stop offset="0.8438" stop-color="rgb(109,27.25,27.25)"/>
  <stop offset="0.8750" stop-color="rgb(106,26.5,26.5)"/>
  <stop offset="0.9063" stop-color="rgb(104,26,26)"/>
  <stop offset="0.9375" stop-color="rgb(98,24.5,24.5)"/>
  <stop offset="0.9688" stop-color="rgb(74,18.5,18.5)"/>
  <stop offset="1.0000" stop-color="rgb(0,0,0)"/>
</radialGradient></defs>
<circle cx="790" cy="140" r="81" fill="url(#g_UGC10310)"/>
<text x="790" y="49" text-anchor="middle" class="preview-lbl">face-on luminance from ρ(r)</text>
<text x="790" y="239" text-anchor="middle" class="preview-lbl">edge at r = 8.0 kpc</text>
</svg>