<svg xmlns="http://www.w3.org/2000/svg" viewBox="0 0 960 450" width="960" height="450" font-family="sans-serif" font-size="12">
<style>
  .ax { stroke: #333; stroke-width: 1; fill: none; }
  .grid { stroke: #ddd; stroke-width: 0.5; fill: none; }
  .lbl { fill: #333; }
  .lbl-l { fill: #0066cc; }
  .lbl-r { fill: #b03030; }
  .obs { fill: #222; }
  .err { stroke: #555; stroke-width: 0.8; fill: none; }
  .fw { stroke: #0066cc; stroke-width: 2.2; fill: none; }
  .nt { stroke: #cc6600; stroke-width: 1.6; fill: none; stroke-dasharray: 5,3; }
  .mond { stroke: #7b2cbf; stroke-width: 1.8; fill: none; stroke-dasharray: 7,3; }
  .lbl-p { fill: #cc7000; }
  .lbl-m { fill: #7b2cbf; }
  .rho { stroke: #b03030; stroke-width: 2.0; fill: none; }
  .phot { stroke: #cc7000; stroke-width: 1.8; fill: none; }
  .mbar { stroke: #8e44ad; stroke-width: 1.8; fill: none; opacity: 0.9; }
  .mph { stroke: #c77dff; stroke-width: 1.6; fill: none; stroke-dasharray: 4,3; opacity: 0.95; }
  .remap-x { stroke: #cc2222; stroke-width: 1.5; fill: none; }
  .remap-link { stroke: #cc2222; stroke-width: 0.8; stroke-dasharray: 3,3; fill: none; opacity: 0.7; }
  .title { fill: #111; font-size: 16px; font-weight: 600; }
  .subtitle { fill: #555; font-size: 11px; }
  .preview-bg { fill: #000; }
  .preview-lbl { fill: #888; font-size: 10px; }
  .legend { font-size: 11px; }
</style>
<text x="378.5" y="22" text-anchor="middle" class="title">UGC12506</text>
<text x="378.5" y="38" text-anchor="middle" class="subtitle">rMax=50.0 kpc, N=31, FW=8.5 km/s, 6.9%, 0.45σ, MOND=38.7 km/s, 20.7%, 2.81σ, amp=490</text>
<line x1="70" y1="395.0" x2="687" y2="395.0" class="grid"/>
<text x="64" y="399.0" text-anchor="end" class="lbl-l">0</text>
<line x1="70" y1="327.0" x2="687" y2="327.0" class="grid"/>
<text x="64" y="331.0" text-anchor="end" class="lbl-l">61</text>
<line x1="70" y1="259.0" x2="687" y2="259.0" class="grid"/>
<text x="64" y="263.0" text-anchor="end" class="lbl-l">121</text>
<line x1="70" y1="191.0" x2="687" y2="191.0" class="grid"/>
<text x="64" y="195.0" text-anchor="end" class="lbl-l">182</text>
<line x1="70" y1="123.0" x2="687" y2="123.0" class="grid"/>
<text x="64" y="127.0" text-anchor="end" class="lbl-l">243</text>
<line x1="70" y1="55.0" x2="687" y2="55.0" class="grid"/>
<text x="64" y="59.0" text-anchor="end" class="lbl-l">303</text>
<text x="693" y="399.0" text-anchor="start" class="lbl-r">0.0</text>
<text x="693" y="353.7" text-anchor="start" class="lbl-r">0.2</text>
<text x="693" y="308.3" text-anchor="start" class="lbl-r">0.4</text>
<text x="693" y="263.0" text-anchor="start" class="lbl-r">0.6</text>
<text x="693" y="217.7" text-anchor="start" class="lbl-r">0.8</text>
<text x="693" y="172.3" text-anchor="start" class="lbl-r">1.0</text>
<line x1="70.0" y1="55" x2="70.0" y2="395" class="grid"/>
<text x="70.0" y="411" text-anchor="middle" class="lbl">0.0</text>
<line x1="172.8" y1="55" x2="172.8" y2="395" class="grid"/>
<text x="172.8" y="411" text-anchor="middle" class="lbl">8.7</text>
<line x1="275.7" y1="55" x2="275.7" y2="395" class="grid"/>
<text x="275.7" y="411" text-anchor="middle" class="lbl">17.5</text>
<line x1="378.5" y1="55" x2="378.5" y2="395" class="grid"/>
<text x="378.5" y="411" text-anchor="middle" class="lbl">26.2</text>
<line x1="481.3" y1="55" x2="481.3" y2="395" class="grid"/>
<text x="481.3" y="411" text-anchor="middle" class="lbl">35.0</text>
<line x1="584.2" y1="55" x2="584.2" y2="395" class="grid"/>
<text x="584.2" y="411" text-anchor="middle" class="lbl">43.7</text>
<line x1="687.0" y1="55" x2="687.0" y2="395" class="grid"/>
<text x="687.0" y="411" text-anchor="middle" class="lbl">52.5</text>
<text x="378.5" y="438" text-anchor="middle" class="lbl">radius (kpc)</text>
<text x="16" y="225" text-anchor="middle" class="lbl-l" transform="rotate(-90, 16, 225)">velocity (km/s)</text>
<text x="724" y="225" text-anchor="middle" class="lbl-r" transform="rotate(-90, 724, 225)">profiles (normalized to peak)</text>
<rect x="70" y="55" width="617" height="340" class="ax"/>
<path d="M 70.0,168.3 L 72.8,178.2 L 75.6,188.1 L 78.5,198.0 L 81.3,207.9 L 84.1,217.7 L 86.9,227.6 L 89.7,237.5 L 92.5,247.4 L 95.4,257.3 L 98.2,267.2 L 101.0,277.0 L 103.8,286.9 L 106.6,296.8 L 109.4,306.7 L 112.3,316.6 L 115.1,317.1 L 117.9,317.5 L 120.7,317.9 L 123.5,318.3 L 126.3,318.6 L 129.2,319.0 L 132.0,319.4 L 134.8,319.8 L 137.6,320.2 L 140.4,320.6 L 143.3,320.9 L 146.1,321.3 L 148.9,321.7 L 151.7,322.1 L 154.5,322.5 L 157.3,322.9 L 160.2,323.2 L 163.0,323.6 L 165.8,324.0 L 168.6,324.4 L 171.4,324.8 L 174.2,325.2 L 177.1,325.5 L 179.9,325.9 L 182.7,326.3 L 185.5,326.7 L 188.3,327.1 L 191.1,327.5 L 194.0,327.8 L 196.8,328.2 L 199.6,328.6 L 202.4,329.0 L 205.2,329.4 L 208.1,329.8 L 210.9,330.3 L 213.7,331.0 L 216.5,331.6 L 219.3,332.2 L 222.1,332.8 L 225.0,333.4 L 227.8,334.1 L 230.6,334.7 L 233.4,335.3 L 236.2,335.9 L 239.0,336.5 L 241.9,337.1 L 244.7,337.8 L 247.5,338.4 L 250.3,339.0 L 253.1,339.6 L 255.9,340.2 L 258.8,340.8 L 261.6,341.0 L 264.4,341.3 L 267.2,341.5 L 270.0,341.8 L 272.8,342.0 L 275.7,342.2 L 278.5,342.5 L 281.3,342.7 L 284.1,343.0 L 286.9,343.2 L 289.8,343.5 L 292.6,343.7 L 295.4,344.0 L 298.2,344.2 L 301.0,344.4 L 303.8,344.7 L 306.7,344.9 L 309.5,345.2 L 312.3,345.4 L 315.1,345.7 L 317.9,345.9 L 320.7,346.2 L 323.6,346.4 L 326.4,346.7 L 329.2,346.9 L 332.0,347.1 L 334.8,347.4 L 337.6,347.6 L 340.5,347.9 L 343.3,348.1 L 346.1,348.4 L 348.9,348.6 L 351.7,348.9 L 354.6,349.1 L 357.4,349.3 L 360.2,349.6 L 363.0,349.8 L 365.8,350.1 L 368.6,350.3 L 371.5,350.6 L 374.3,350.8 L 377.1,351.1 L 379.9,351.3 L 382.7,351.6 L 385.5,351.8 L 388.4,352.0 L 391.2,352.3 L 394.0,352.5 L 396.8,352.8 L 399.6,353.0 L 402.4,353.3 L 405.3,353.5 L 408.1,353.8 L 410.9,354.0 L 413.7,354.2 L 416.5,354.5 L 419.4,354.7 L 422.2,355.0 L 425.0,355.2 L 427.8,355.5 L 430.6,355.7 L 433.4,356.0 L 436.3,356.2 L 439.1,356.5 L 441.9,356.7 L 444.7,356.9 L 447.5,357.2 L 450.3,357.4 L 453.2,357.7 L 456.0,357.9 L 458.8,358.2 L 461.6,358.4 L 464.4,358.7 L 467.2,358.9 L 470.1,359.1 L 472.9,359.4 L 475.7,359.6 L 478.5,359.9 L 481.3,360.1 L 484.2,360.4 L 487.0,360.6 L 489.8,360.9 L 492.6,361.1 L 495.4,361.4 L 498.2,361.6 L 501.1,361.8 L 503.9,362.1 L 506.7,362.3 L 509.5,362.6 L 512.3,362.8 L 515.1,363.1 L 518.0,363.3 L 520.8,363.6 L 523.6,363.8 L 526.4,364.0 L 529.2,364.3 L 532.0,364.5 L 534.9,364.8 L 537.7,365.0 L 540.5,365.3 L 543.3,365.5 L 546.1,365.8 L 548.9,366.0 L 551.8,366.3 L 554.6,366.5 L 557.4,366.7 L 560.2,367.0 L 563.0,367.2 L 565.9,367.5 L 568.7,367.7 L 571.5,368.0 L 574.3,368.2 L 577.1,368.5 L 579.9,368.7 L 582.8,368.9 L 585.6,369.2 L 588.4,369.4 L 591.2,369.7 L 594.0,369.9 L 596.8,370.2 L 599.7,370.4 L 602.5,370.7 L 605.3,370.9 L 608.1,371.2 L 610.9,371.4 L 613.7,371.6 L 616.6,371.9 L 619.4,372.1 L 622.2,372.4 L 625.0,372.6 L 627.8,372.9 L 630.7,373.1 L 633.5,373.4 L 636.3,373.6 L 639.1,373.8 L 641.9,374.1 L 644.7,374.3 L 647.6,374.6 L 650.4,379.3 L 653.2,385.4 L 656.0,391.5 L 658.8,395.0 L 661.6,395.0 L 664.5,395.0 L 667.3,395.0 L 670.1,395.0 L 672.9,395.0 L 675.7,395.0 L 678.5,395.0 L 681.4,395.0 L 684.2,395.0 L 687.0,395.0" class="rho"/>
<path d="M 79.6,168.3 L 98.9,227.1 L 118.2,269.8 L 137.5,297.9 L 156.7,307.9 L 176.0,322.3 L 195.2,338.1 L 214.5,352.9 L 233.7,363.2 L 253.0,369.6 L 272.3,375.7 L 291.6,380.5 L 310.9,383.6 L 330.1,385.6 L 349.4,387.5 L 368.7,389.0 L 388.0,390.1 L 407.1,390.9 L 426.4,391.5 L 445.7,391.9 L 465.0,392.3 L 484.2,392.7 L 503.5,392.9 L 522.8,393.2 L 542.1,393.4 L 561.3,393.6 L 580.6,393.8 L 599.9,395.0 L 619.1,395.0 L 638.3,395.0 L 657.6,395.0" class="phot"/>
<path d="M 79.6,263.2 L 98.9,198.1 L 118.2,168.3 L 137.5,191.9 L 156.7,212.4 L 176.0,214.5 L 195.2,227.2 L 214.5,255.2 L 233.7,275.9 L 253.0,281.7 L 272.3,292.1 L 291.6,317.4 L 310.9,343.2 L 330.1,360.9 L 349.4,373.9 L 368.7,379.5 L 388.0,374.0 L 407.1,365.1 L 426.4,363.9 L 445.7,374.3 L 465.0,388.1 L 484.2,392.4 L 503.5,385.5 L 522.8,376.9 L 542.1,376.1 L 561.3,380.6 L 580.6,378.7 L 599.9,376.0 L 619.1,373.5 L 638.3,360.8 L 657.6,350.3" class="mbar"/>
<path d="M 79.6,210.3 L 98.9,181.3 L 118.2,168.3 L 137.5,176.7 L 156.7,183.7 L 176.0,184.7 L 195.2,189.8 L 214.5,201.3 L 233.7,210.6 L 253.0,214.2 L 272.3,220.3 L 291.6,234.3 L 310.9,250.2 L 330.1,263.7 L 349.4,276.0 L 368.7,283.9 L 388.0,283.5 L 407.1,279.2 L 426.4,280.2 L 445.7,291.2 L 465.0,307.1 L 484.2,314.8 L 503.5,309.7 L 522.8,301.5 L 542.1,302.0 L 561.3,308.3 L 580.6,307.0 L 599.9,304.5 L 619.1,301.8 L 638.3,285.5 L 657.6,271.8" class="mph"/>
<path d="M 76.2,319.5 L 82.3,292.0 L 88.5,273.5 L 94.7,260.3 L 100.8,251.0 L 107.0,244.8 L 113.2,241.3 L 119.4,238.2 L 125.5,234.5 L 131.7,230.5 L 137.9,226.3 L 144.0,222.1 L 150.2,217.8 L 156.4,213.6 L 162.6,209.4 L 168.7,205.3 L 174.9,201.3 L 181.1,197.4 L 187.2,193.5 L 193.4,189.8 L 199.6,186.2 L 205.7,182.7 L 211.9,179.3 L 218.1,176.0 L 224.3,172.9 L 230.4,170.0 L 236.6,167.2 L 242.8,164.5 L 248.9,162.0 L 255.1,159.6 L 261.3,157.3 L 267.4,155.1 L 273.6,152.8 L 279.8,150.7 L 285.9,148.5 L 292.1,146.4 L 298.3,144.3 L 304.5,142.3 L 310.6,140.3 L 316.8,138.4 L 323.0,136.4 L 329.1,134.6 L 335.3,132.7 L 341.5,130.9 L 347.7,129.2 L 353.8,127.4 L 360.0,125.8 L 366.2,124.1 L 372.3,122.5 L 378.5,120.9 L 384.7,119.4 L 390.8,117.9 L 397.0,116.5 L 403.2,115.0 L 409.4,113.6 L 415.5,112.3 L 421.7,111.0 L 427.9,109.7 L 434.0,108.5 L 440.2,107.3 L 446.4,106.1 L 452.5,104.9 L 458.7,103.8 L 464.9,102.8 L 471.1,101.7 L 477.2,100.7 L 483.4,99.8 L 489.6,98.8 L 495.7,97.9 L 501.9,97.1 L 508.1,96.2 L 514.2,95.4 L 520.4,94.7 L 526.6,93.9 L 532.8,93.2 L 538.9,92.5 L 545.1,91.9 L 551.3,91.3 L 557.4,90.7 L 563.6,90.1 L 569.8,89.6 L 575.9,89.1 L 582.1,88.7 L 588.3,88.2 L 594.5,87.9 L 600.6,87.5 L 606.8,87.2 L 613.0,86.8 L 619.1,86.6 L 625.3,86.3 L 631.5,86.1 L 637.6,85.9 L 643.8,85.8 L 650.0,85.7 L 656.1,86.4 L 662.3,88.1 L 668.5,89.7 L 674.7,91.2 L 680.8,92.8 L 687.0,94.2" class="nt"/>
<path d="M 79.6,349.1 L 98.9,295.7 L 118.2,262.7 L 137.5,241.6 L 156.7,226.0 L 176.0,208.7 L 195.2,195.0 L 214.5,184.6 L 233.7,177.1 L 253.0,168.6 L 272.3,160.9 L 291.6,156.1 L 310.9,153.8 L 330.1,152.3 L 349.4,152.1 L 368.7,152.5 L 388.0,151.7 L 407.1,149.3 L 426.4,146.6 L 445.7,145.0 L 465.0,145.8 L 484.2,147.1 L 503.5,146.8 L 522.8,144.8 L 542.1,142.8 L 561.3,141.9 L 580.6,140.8 L 599.9,137.8 L 619.1,137.1 L 638.3,132.1 L 657.6,126.6" class="mond"/>
<path d="M 75.1,348.2 L 80.3,314.7 L 85.4,280.1 L 90.6,249.5 L 95.7,223.9 L 100.8,204.2 L 106.0,189.4 L 111.1,179.4 L 116.3,173.2 L 121.4,169.6 L 126.6,167.7 L 131.7,166.7 L 136.8,165.9 L 142.0,165.0 L 147.1,163.9 L 152.3,162.4 L 157.4,160.7 L 162.6,158.5 L 167.7,156.2 L 172.8,153.5 L 178.0,150.7 L 183.1,147.7 L 188.3,144.5 L 193.4,141.2 L 198.5,137.9 L 203.7,134.6 L 208.8,131.4 L 214.0,128.3 L 219.1,125.5 L 224.3,122.9 L 229.4,120.8 L 234.5,119.0 L 239.7,117.7 L 244.8,116.7 L 250.0,116.2 L 255.1,116.0 L 260.2,116.1 L 265.4,116.3 L 270.5,116.6 L 275.7,116.8 L 280.8,117.1 L 285.9,117.3 L 291.1,117.4 L 296.2,117.4 L 301.4,117.4 L 306.5,117.3 L 311.7,117.2 L 316.8,117.0 L 321.9,116.8 L 327.1,116.6 L 332.2,116.4 L 337.4,116.1 L 342.5,115.9 L 347.7,115.6 L 352.8,115.4 L 357.9,115.1 L 363.1,114.9 L 368.2,114.7 L 373.4,114.5 L 378.5,114.3 L 383.6,114.2 L 388.8,114.0 L 393.9,113.9 L 399.1,113.9 L 404.2,113.8 L 409.4,113.8 L 414.5,113.9 L 419.6,113.9 L 424.8,114.0 L 429.9,114.1 L 435.1,114.3 L 440.2,114.5 L 445.3,114.8 L 450.5,115.0 L 455.6,115.3 L 460.8,115.7 L 465.9,116.1 L 471.0,116.5 L 476.2,117.0 L 481.3,117.5 L 486.5,118.1 L 491.6,118.6 L 496.8,119.3 L 501.9,119.9 L 507.0,120.6 L 512.2,121.3 L 517.3,122.1 L 522.5,122.9 L 527.6,123.7 L 532.8,124.6 L 537.9,125.4 L 543.0,126.3 L 548.2,127.2 L 553.3,128.2 L 558.5,129.1 L 563.6,130.0 L 568.7,131.0 L 573.9,131.9 L 579.0,132.8 L 584.2,133.7 L 589.3,134.5 L 594.5,135.2 L 599.6,135.9 L 604.7,136.4 L 609.9,136.8 L 615.0,137.1 L 620.2,137.2 L 625.3,137.3 L 630.4,137.3 L 635.6,137.6 L 640.7,138.4 L 645.9,140.0 L 651.0,142.7 L 656.2,146.5 L 661.3,151.4 L 666.4,157.0 L 671.6,163.0 L 676.7,169.2 L 681.9,175.2 L 687.0,180.8" class="fw"/>
<line x1="79.64" y1="246.27" x2="79.64" y2="303.70" class="err"/>
<line x1="76.64" y1="246.27" x2="82.64" y2="246.27" class="err"/>
<line x1="76.64" y1="303.70" x2="82.64" y2="303.70" class="err"/>
<circle cx="79.64" cy="274.99" r="2.5" class="obs"/>
<line x1="98.92" y1="186.94" x2="98.92" y2="246.38" class="err"/>
<line x1="95.92" y1="186.94" x2="101.92" y2="186.94" class="err"/>
<line x1="95.92" y1="246.38" x2="101.92" y2="246.38" class="err"/>
<circle cx="98.92" cy="216.66" r="2.5" class="obs"/>
<line x1="118.19" y1="161.81" x2="118.19" y2="192.99" class="err"/>
<line x1="115.19" y1="161.81" x2="121.19" y2="161.81" class="err"/>
<line x1="115.19" y1="192.99" x2="121.19" y2="192.99" class="err"/>
<circle cx="118.19" cy="177.40" r="2.5" class="obs"/>
<line x1="137.47" y1="156.54" x2="137.47" y2="189.29" class="err"/>
<line x1="134.47" y1="156.54" x2="140.47" y2="156.54" class="err"/>
<line x1="134.47" y1="189.29" x2="140.47" y2="189.29" class="err"/>
<circle cx="137.47" cy="172.92" r="2.5" class="obs"/>
<line x1="156.75" y1="143.53" x2="156.75" y2="173.14" class="err"/>
<line x1="153.75" y1="143.53" x2="159.75" y2="143.53" class="err"/>
<line x1="153.75" y1="173.14" x2="159.75" y2="173.14" class="err"/>
<circle cx="156.75" cy="158.34" r="2.5" class="obs"/>
<line x1="176.03" y1="130.74" x2="176.03" y2="161.25" class="err"/>
<line x1="173.03" y1="130.74" x2="179.03" y2="130.74" class="err"/>
<line x1="173.03" y1="161.25" x2="179.03" y2="161.25" class="err"/>
<circle cx="176.03" cy="146.00" r="2.5" class="obs"/>
<line x1="195.19" y1="124.01" x2="195.19" y2="150.04" class="err"/>
<line x1="192.19" y1="124.01" x2="198.19" y2="124.01" class="err"/>
<line x1="192.19" y1="150.04" x2="198.19" y2="150.04" class="err"/>
<circle cx="195.19" cy="137.02" r="2.5" class="obs"/>
<line x1="214.47" y1="113.92" x2="214.47" y2="139.94" class="err"/>
<line x1="211.47" y1="113.92" x2="217.47" y2="113.92" class="err"/>
<line x1="211.47" y1="139.94" x2="217.47" y2="139.94" class="err"/>
<circle cx="214.47" cy="126.93" r="2.5" class="obs"/>
<line x1="233.74" y1="116.16" x2="233.74" y2="142.18" class="err"/>
<line x1="230.74" y1="116.16" x2="236.74" y2="116.16" class="err"/>
<line x1="230.74" y1="142.18" x2="236.74" y2="142.18" class="err"/>
<circle cx="233.74" cy="129.17" r="2.5" class="obs"/>
<line x1="253.02" y1="112.80" x2="253.02" y2="138.82" class="err"/>
<line x1="250.02" y1="112.80" x2="256.02" y2="112.80" class="err"/>
<line x1="250.02" y1="138.82" x2="256.02" y2="138.82" class="err"/>
<circle cx="253.02" cy="125.81" r="2.5" class="obs"/>
<line x1="272.30" y1="107.19" x2="272.30" y2="133.21" class="err"/>
<line x1="269.30" y1="107.19" x2="275.30" y2="107.19" class="err"/>
<line x1="269.30" y1="133.21" x2="275.30" y2="133.21" class="err"/>
<circle cx="272.30" cy="120.20" r="2.5" class="obs"/>
<line x1="291.58" y1="102.70" x2="291.58" y2="128.72" class="err"/>
<line x1="288.58" y1="102.70" x2="294.58" y2="102.70" class="err"/>
<line x1="288.58" y1="128.72" x2="294.58" y2="128.72" class="err"/>
<circle cx="291.58" cy="115.71" r="2.5" class="obs"/>
<line x1="310.85" y1="103.82" x2="310.85" y2="129.85" class="err"/>
<line x1="307.85" y1="103.82" x2="313.85" y2="103.82" class="err"/>
<line x1="307.85" y1="129.85" x2="313.85" y2="129.85" class="err"/>
<circle cx="310.85" cy="116.83" r="2.5" class="obs"/>
<line x1="330.13" y1="101.58" x2="330.13" y2="127.60" class="err"/>
<line x1="327.13" y1="101.58" x2="333.13" y2="101.58" class="err"/>
<line x1="327.13" y1="127.60" x2="333.13" y2="127.60" class="err"/>
<circle cx="330.13" cy="114.59" r="2.5" class="obs"/>
<line x1="349.41" y1="95.97" x2="349.41" y2="121.99" class="err"/>
<line x1="346.41" y1="95.97" x2="352.41" y2="95.97" class="err"/>
<line x1="346.41" y1="121.99" x2="352.41" y2="121.99" class="err"/>
<circle cx="349.41" cy="108.98" r="2.5" class="obs"/>
<line x1="368.69" y1="104.61" x2="368.69" y2="138.03" class="err"/>
<line x1="365.69" y1="104.61" x2="371.69" y2="104.61" class="err"/>
<line x1="365.69" y1="138.03" x2="371.69" y2="138.03" class="err"/>
<circle cx="368.69" cy="121.32" r="2.5" class="obs"/>
<line x1="387.97" y1="108.31" x2="387.97" y2="134.33" class="err"/>
<line x1="384.97" y1="108.31" x2="390.97" y2="108.31" class="err"/>
<line x1="384.97" y1="134.33" x2="390.97" y2="134.33" class="err"/>
<circle cx="387.97" cy="121.32" r="2.5" class="obs"/>
<line x1="407.13" y1="102.70" x2="407.13" y2="128.72" class="err"/>
<line x1="404.13" y1="102.70" x2="410.13" y2="102.70" class="err"/>
<line x1="404.13" y1="128.72" x2="410.13" y2="128.72" class="err"/>
<circle cx="407.13" cy="115.71" r="2.5" class="obs"/>
<line x1="426.40" y1="100.46" x2="426.40" y2="126.48" class="err"/>
<line x1="423.40" y1="100.46" x2="429.40" y2="100.46" class="err"/>
<line x1="423.40" y1="126.48" x2="429.40" y2="126.48" class="err"/>
<circle cx="426.40" cy="113.47" r="2.5" class="obs"/>
<line x1="445.68" y1="102.70" x2="445.68" y2="128.72" class="err"/>
<line x1="442.68" y1="102.70" x2="448.68" y2="102.70" class="err"/>
<line x1="442.68" y1="128.72" x2="448.68" y2="128.72" class="err"/>
<circle cx="445.68" cy="115.71" r="2.5" class="obs"/>
<line x1="464.96" y1="106.85" x2="464.96" y2="135.79" class="err"/>
<line x1="461.96" y1="106.85" x2="467.96" y2="106.85" class="err"/>
<line x1="461.96" y1="135.79" x2="467.96" y2="135.79" class="err"/>
<circle cx="464.96" cy="121.32" r="2.5" class="obs"/>
<line x1="484.24" y1="108.76" x2="484.24" y2="145.10" class="err"/>
<line x1="481.24" y1="108.76" x2="487.24" y2="108.76" class="err"/>
<line x1="481.24" y1="145.10" x2="487.24" y2="145.10" class="err"/>
<circle cx="484.24" cy="126.93" r="2.5" class="obs"/>
<line x1="503.51" y1="107.41" x2="503.51" y2="148.69" class="err"/>
<line x1="500.51" y1="107.41" x2="506.51" y2="107.41" class="err"/>
<line x1="500.51" y1="148.69" x2="506.51" y2="148.69" class="err"/>
<circle cx="503.51" cy="128.05" r="2.5" class="obs"/>
<line x1="522.79" y1="96.76" x2="522.79" y2="152.62" class="err"/>
<line x1="519.79" y1="96.76" x2="525.79" y2="96.76" class="err"/>
<line x1="519.79" y1="152.62" x2="525.79" y2="152.62" class="err"/>
<circle cx="522.79" cy="124.69" r="2.5" class="obs"/>
<line x1="542.07" y1="103.38" x2="542.07" y2="154.97" class="err"/>
<line x1="539.07" y1="103.38" x2="545.07" y2="103.38" class="err"/>
<line x1="539.07" y1="154.97" x2="545.07" y2="154.97" class="err"/>
<circle cx="542.07" cy="129.17" r="2.5" class="obs"/>
<line x1="561.35" y1="123.56" x2="561.35" y2="154.97" class="err"/>
<line x1="558.35" y1="123.56" x2="564.35" y2="123.56" class="err"/>
<line x1="558.35" y1="154.97" x2="564.35" y2="154.97" class="err"/>
<circle cx="561.35" cy="139.27" r="2.5" class="obs"/>
<line x1="580.63" y1="114.70" x2="580.63" y2="152.62" class="err"/>
<line x1="577.63" y1="114.70" x2="583.63" y2="114.70" class="err"/>
<line x1="577.63" y1="152.62" x2="583.63" y2="152.62" class="err"/>
<circle cx="580.63" cy="133.66" r="2.5" class="obs"/>
<line x1="599.90" y1="118.29" x2="599.90" y2="149.03" class="err"/>
<line x1="596.90" y1="118.29" x2="602.90" y2="118.29" class="err"/>
<line x1="596.90" y1="149.03" x2="602.90" y2="149.03" class="err"/>
<circle cx="599.90" cy="133.66" r="2.5" class="obs"/>
<line x1="619.06" y1="124.01" x2="619.06" y2="150.04" class="err"/>
<line x1="616.06" y1="124.01" x2="622.06" y2="124.01" class="err"/>
<line x1="616.06" y1="150.04" x2="622.06" y2="150.04" class="err"/>
<circle cx="619.06" cy="137.02" r="2.5" class="obs"/>
<line x1="638.34" y1="128.50" x2="638.34" y2="154.52" class="err"/>
<line x1="635.34" y1="128.50" x2="641.34" y2="128.50" class="err"/>
<line x1="635.34" y1="154.52" x2="641.34" y2="154.52" class="err"/>
<circle cx="638.34" cy="141.51" r="2.5" class="obs"/>
<line x1="657.62" y1="129.62" x2="657.62" y2="155.64" class="err"/>
<line x1="654.62" y1="129.62" x2="660.62" y2="129.62" class="err"/>
<line x1="654.62" y1="155.64" x2="660.62" y2="155.64" class="err"/>
<circle cx="657.62" cy="142.63" r="2.5" class="obs"/>
<g class="legend">
<line x1="82" y1="69" x2="106" y2="69" class="fw"/>
<text x="112" y="73" class="lbl-l">framework: 8.5 km/s, 6.9%, 0.45σ</text>
<line x1="82" y1="87" x2="106" y2="87" class="nt"/>
<text x="112" y="91" class="lbl-l">Newtonian: 34.3 km/s, 15.9%, 2.59σ</text>
<line x1="82" y1="105" x2="106" y2="105" class="mond"/>
<text x="112" y="109" class="lbl-m">MOND/RAR: 38.7 km/s, 20.7%, 2.81σ</text>
<circle cx="94" cy="123" r="2.5" class="obs"/>
<text x="112" y="127" class="lbl">observed V±err</text>
</g>
<g class="legend">
<line x1="472" y1="69" x2="496" y2="69" class="rho"/>
<text x="502" y="73" class="lbl-r">ρ(r) raw</text>
<line x1="472" y1="87" x2="496" y2="87" class="phot"/>
<text x="502" y="91" class="lbl-p">photometric baryonic profile</text>
<line x1="472" y1="105" x2="496" y2="105" class="mbar"/>
<text x="502" y="109" class="lbl-m">MOND baryonic annulus</text>
<line x1="472" y1="123" x2="496" y2="123" class="mph"/>
<text x="502" y="127" class="lbl-m">MOND phantom annulus</text>
<text x="472" y="147" class="lbl-r">ρ peak: 682 M☉/pc²</text>
<text x="472" y="163" class="lbl-p">phot peak: 206.63 (arb.)</text>
<text x="472" y="179" class="lbl-m">Σbar peak: 120.78 M☉/pc²</text>
<text x="472" y="195" class="lbl-m">Σphantom peak: 128.43 M☉/pc²</text>
</g>
<rect x="775" y="55" width="170" height="170" class="preview-bg"/>
<defs><radialGradient id="g_UGC12506" cx="0.5" cy="0.5" r="0.5">
  <stop offset="0.0000" stop-color="rgb(223,223,223)"/>
  <stop offset="0.0313" stop-color="rgb(170,170,170)"/>
  <stop offset="0.0625" stop-color="rgb(117,117,117)"/>
  <stop offset="0.0938" stop-color="rgb(99,99,99)"/>
  <stop offset="0.1250" stop-color="rgb(97,97,97)"/>
  <stop offset="0.1563" stop-color="rgb(95,95,95)"/>
  <stop offset="0.1875" stop-color="rgb(93,93,93)"/>
  <stop offset="0.2188" stop-color="rgb(91,91,91)"/>
  <stop offset="0.2500" stop-color="rgb(88,88,88)"/>
  <stop offset="0.2813" stop-color="rgb(85,85,85)"/>
  <stop offset="0.3125" stop-color="rgb(82,82,82)"/>
  <stop offset="0.3438" stop-color="rgb(80,80,80)"/>
  <stop offset="0.3750" stop-color="rgb(79,79,79)"/>
  <stop offset="0.4063" stop-color="rgb(77,77,77)"/>
  <stop offset="0.4375" stop-color="rgb(76,76,76)"/>
  <stop offset="0.4688" stop-color="rgb(75,75,75)"/>
  <stop offset="0.5000" stop-color="rgb(73,73,73)"/>
  <stop offset="0.5313" stop-color="rgb(72,72,72)"/>
  <stop offset="0.5625" stop-color="rgb(71,71,71)"/>
  <stop offset="0.5938" stop-color="rgb(70,70,70)"/>
  <stop offset="0.6250" stop-color="rgb(68,68,68)"/>
  <stop offset="0.6563" stop-color="rgb(67,67,67)"/>
  <stop offset="0.6875" stop-color="rgb(66,66,66)"/>
  <stop offset="0.7188" stop-color="rgb(64,64,64)"/>
  <stop offset="0.7500" stop-color="rgb(62,62,62)"/>
  <stop offset="0.7813" stop-color="rgb(59,59,59)"/>
  <stop offset="0.8125" stop-color="rgb(56,56,56)"/>
  <stop offset="0.8438" stop-color="rgb(53,53,53)"/>
  <stop offset="0.8750" stop-color="rgb(50,50,50)"/>
  <stop offset="0.9063" stop-color="rgb(47,47,47)"/>
  <stop offset="0.9375" stop-color="rgb(44,44,44)"/>
  <stop offset="0.9688" stop-color="rgb(41,41,41)"/>
  <stop offset="1.0000" stop-color="rgb(0,0,0)"/>
</radialGradient></defs>
<circle cx="860" cy="140" r="81" fill="url(#g_UGC12506)"/>
<text x="860" y="49" text-anchor="middle" class="preview-lbl">face-on luminance from ρ(r)</text>
<text x="860" y="239" text-anchor="middle" class="preview-lbl">edge at r = 50.0 kpc</text>
</svg>