<svg xmlns="http://www.w3.org/2000/svg" viewBox="0 0 720 420" width="720" height="420" font-family="sans-serif" font-size="12">
<style>
  .ax { stroke: #333; stroke-width: 1; fill: none; }
  .grid { stroke: #ddd; stroke-width: 0.5; fill: none; }
  .lbl { fill: #333; }
  .lbl-l { fill: #0066cc; }
  .lbl-r { fill: #b03030; }
  .obs { fill: #222; }
  .err { stroke: #555; stroke-width: 0.8; fill: none; }
  .fw { stroke: #0066cc; stroke-width: 2.2; fill: none; }
  .nt { stroke: #cc6600; stroke-width: 1.6; fill: none; stroke-dasharray: 5,3; }
  .rho { stroke: #b03030; stroke-width: 2.0; fill: none; }
  .sig { stroke: #b03030; stroke-width: 1.6; fill: none; stroke-dasharray: 4,2; opacity: 0.85; }
  .title { fill: #111; font-size: 16px; font-weight: 600; }
  .subtitle { fill: #555; font-size: 11px; }
  .legend { font-size: 11px; }
</style>
<text x="360.0" y="22" text-anchor="middle" class="title">UGC11914</text>
<text x="360.0" y="38" text-anchor="middle" class="subtitle">rMax=9.8 kpc, N=65, RMS=15.3 km/s (5.5%), amp=251</text>
<line x1="70" y1="365.0" x2="635" y2="365.0" class="grid"/>
<text x="64" y="369.0" text-anchor="end" class="lbl-l">0</text>
<line x1="70" y1="303.0" x2="635" y2="303.0" class="grid"/>
<text x="64" y="307.0" text-anchor="end" class="lbl-l">75</text>
<line x1="70" y1="241.00000000000003" x2="635" y2="241.00000000000003" class="grid"/>
<text x="64" y="245.00000000000003" text-anchor="end" class="lbl-l">149</text>
<line x1="70" y1="179.0" x2="635" y2="179.0" class="grid"/>
<text x="64" y="183.0" text-anchor="end" class="lbl-l">224</text>
<line x1="70" y1="117.00000000000003" x2="635" y2="117.00000000000003" class="grid"/>
<text x="64" y="121.00000000000003" text-anchor="end" class="lbl-l">298</text>
<line x1="70" y1="55.0" x2="635" y2="55.0" class="grid"/>
<text x="64" y="59.0" text-anchor="end" class="lbl-l">373</text>
<text x="641" y="369.0" text-anchor="start" class="lbl-r">0.0</text>
<text x="641" y="327.6666666666667" text-anchor="start" class="lbl-r">0.2</text>
<text x="641" y="286.33333333333337" text-anchor="start" class="lbl-r">0.4</text>
<text x="641" y="245.00000000000003" text-anchor="start" class="lbl-r">0.6</text>
<text x="641" y="203.66666666666666" text-anchor="start" class="lbl-r">0.8</text>
<text x="641" y="162.33333333333334" text-anchor="start" class="lbl-r">1.0</text>
<line x1="70.0" y1="55" x2="70.0" y2="365" class="grid"/>
<text x="70.0" y="381" text-anchor="middle" class="lbl">0.0</text>
<line x1="164.16666666666669" y1="55" x2="164.16666666666669" y2="365" class="grid"/>
<text x="164.16666666666669" y="381" text-anchor="middle" class="lbl">2.5</text>
<line x1="258.33333333333337" y1="55" x2="258.33333333333337" y2="365" class="grid"/>
<text x="258.33333333333337" y="381" text-anchor="middle" class="lbl">4.9</text>
<line x1="352.5" y1="55" x2="352.5" y2="365" class="grid"/>
<text x="352.5" y="381" text-anchor="middle" class="lbl">7.4</text>
<line x1="446.6666666666667" y1="55" x2="446.6666666666667" y2="365" class="grid"/>
<text x="446.6666666666667" y="381" text-anchor="middle" class="lbl">9.9</text>
<line x1="540.8333333333334" y1="55" x2="540.8333333333334" y2="365" class="grid"/>
<text x="540.8333333333334" y="381" text-anchor="middle" class="lbl">12.3</text>
<line x1="635.0" y1="55" x2="635.0" y2="365" class="grid"/>
<text x="635.0" y="381" text-anchor="middle" class="lbl">14.8</text>
<text x="352.5" y="408" text-anchor="middle" class="lbl">radius (kpc)</text>
<text x="16" y="210.0" text-anchor="middle" class="lbl-l" transform="rotate(-90, 16, 210.0)">velocity (km/s)</text>
<text x="704" y="210.0" text-anchor="middle" class="lbl-r" transform="rotate(-90, 704, 210.0)">mass profile (normalized to peak)</text>
<rect x="70" y="55" width="565" height="310" class="ax"/>
<path d="M 70.0,158.3 L 72.6,164.6 L 75.2,170.9 L 77.7,177.2 L 80.3,183.5 L 82.9,189.8 L 85.5,196.1 L 88.1,202.4 L 90.6,208.7 L 93.2,215.0 L 95.8,221.3 L 98.4,227.6 L 101.0,233.9 L 103.5,240.2 L 106.1,246.5 L 108.7,252.8 L 111.3,259.1 L 113.9,264.4 L 116.4,267.9 L 119.0,271.3 L 121.6,274.8 L 124.2,278.3 L 126.8,281.8 L 129.3,285.2 L 131.9,287.6 L 134.5,288.3 L 137.1,288.9 L 139.7,289.5 L 142.2,290.1 L 144.8,290.7 L 147.4,291.3 L 150.0,291.9 L 152.6,292.5 L 155.1,293.1 L 157.7,293.8 L 160.3,294.4 L 162.9,295.0 L 165.5,295.6 L 168.0,296.2 L 170.6,296.8 L 173.2,297.4 L 175.8,298.0 L 178.4,298.6 L 180.9,299.2 L 183.5,299.9 L 186.1,300.5 L 188.7,301.1 L 191.3,301.7 L 193.8,302.3 L 196.4,302.9 L 199.0,303.5 L 201.6,304.1 L 204.2,304.7 L 206.7,305.4 L 209.3,306.0 L 211.9,306.6 L 214.5,307.2 L 217.1,307.8 L 219.6,308.4 L 222.2,309.0 L 224.8,309.6 L 227.4,310.2 L 230.0,310.8 L 232.5,311.5 L 235.1,312.1 L 237.7,312.7 L 240.3,313.3 L 242.9,313.9 L 245.4,314.5 L 248.0,315.1 L 250.6,315.6 L 253.2,315.9 L 255.8,316.1 L 258.3,316.3 L 260.9,316.5 L 263.5,316.8 L 266.1,317.0 L 268.7,317.2 L 271.2,317.4 L 273.8,317.6 L 276.4,317.9 L 279.0,318.1 L 281.6,318.3 L 284.1,318.5 L 286.7,318.7 L 289.3,319.0 L 291.9,319.2 L 294.5,319.4 L 297.0,319.6 L 299.6,319.9 L 302.2,320.1 L 304.8,320.3 L 307.4,320.5 L 309.9,320.7 L 312.5,321.0 L 315.1,321.2 L 317.7,321.4 L 320.3,321.6 L 322.8,321.8 L 325.4,322.1 L 328.0,322.3 L 330.6,322.5 L 333.2,322.7 L 335.7,322.9 L 338.3,323.2 L 340.9,323.4 L 343.5,323.6 L 346.1,323.8 L 348.6,324.1 L 351.2,324.3 L 353.8,324.5 L 356.4,324.7 L 358.9,324.9 L 361.5,325.2 L 364.1,325.4 L 366.7,325.6 L 369.3,325.8 L 371.8,326.0 L 374.4,326.3 L 377.0,326.5 L 379.6,326.7 L 382.2,326.9 L 384.7,327.2 L 387.3,327.4 L 389.9,327.6 L 392.5,327.8 L 395.1,328.0 L 397.6,328.3 L 400.2,328.5 L 402.8,328.7 L 405.4,328.9 L 408.0,329.1 L 410.5,329.4 L 413.1,329.6 L 415.7,329.8 L 418.3,330.0 L 420.9,330.2 L 423.4,330.5 L 426.0,330.7 L 428.6,330.9 L 431.2,331.1 L 433.8,331.4 L 436.3,331.9 L 438.9,332.4 L 441.5,332.9 L 444.1,333.4 L 446.7,333.9 L 449.2,334.4 L 451.8,334.8 L 454.4,335.3 L 457.0,335.8 L 459.6,336.3 L 462.1,336.8 L 464.7,337.3 L 467.3,337.8 L 469.9,338.3 L 472.5,338.8 L 475.0,339.3 L 477.6,339.8 L 480.2,340.3 L 482.8,340.8 L 485.4,341.3 L 487.9,341.8 L 490.5,342.3 L 493.1,342.8 L 495.7,343.3 L 498.3,343.8 L 500.8,344.3 L 503.4,344.8 L 506.0,345.3 L 508.6,345.8 L 511.2,346.3 L 513.7,346.8 L 516.3,347.3 L 518.9,347.8 L 521.5,348.3 L 524.1,348.8 L 526.6,349.3 L 529.2,349.8 L 531.8,350.3 L 534.4,350.8 L 537.0,351.3 L 539.5,351.8 L 542.1,352.3 L 544.7,352.8 L 547.3,353.3 L 549.9,353.8 L 552.4,354.3 L 555.0,354.8 L 557.6,355.3 L 560.2,355.8 L 562.8,356.3 L 565.3,356.8 L 567.9,357.2 L 570.5,357.7 L 573.1,358.2 L 575.7,358.7 L 578.2,359.2 L 580.8,359.7 L 583.4,360.2 L 586.0,360.7 L 588.6,361.2 L 591.1,361.7 L 593.7,362.2 L 596.3,362.7 L 598.9,363.2 L 601.5,363.7 L 604.0,364.2 L 606.6,364.7 L 609.2,365.0 L 611.8,365.0 L 614.4,365.0 L 616.9,365.0 L 619.5,365.0 L 622.1,365.0 L 624.7,365.0 L 627.3,365.0 L 629.8,365.0 L 632.4,365.0 L 635.0,365.0" class="rho"/>
<path d="M 70.0,158.3 L 72.6,158.7 L 75.2,159.5 L 77.7,160.7 L 80.3,162.3 L 82.9,164.3 L 85.5,166.6 L 88.1,169.2 L 90.6,172.1 L 93.2,175.1 L 95.8,178.3 L 98.4,181.7 L 101.0,185.1 L 103.5,188.5 L 106.1,191.9 L 108.7,195.3 L 111.3,198.7 L 113.9,202.0 L 116.4,205.2 L 119.0,208.4 L 121.6,211.4 L 124.2,214.3 L 126.8,217.1 L 129.3,219.8 L 131.9,222.4 L 134.5,224.9 L 137.1,227.3 L 139.7,229.6 L 142.2,231.8 L 144.8,233.9 L 147.4,235.9 L 150.0,237.9 L 152.6,239.8 L 155.1,241.7 L 157.7,243.5 L 160.3,245.3 L 162.9,247.0 L 165.5,248.7 L 168.0,250.3 L 170.6,251.9 L 173.2,253.5 L 175.8,255.0 L 178.4,256.6 L 180.9,258.1 L 183.5,259.5 L 186.1,261.0 L 188.7,262.4 L 191.3,263.8 L 193.8,265.2 L 196.4,266.5 L 199.0,267.9 L 201.6,269.2 L 204.2,270.5 L 206.7,271.8 L 209.3,273.0 L 211.9,274.3 L 214.5,275.5 L 217.1,276.7 L 219.6,277.9 L 222.2,279.1 L 224.8,280.2 L 227.4,281.4 L 230.0,282.5 L 232.5,283.6 L 235.1,284.7 L 237.7,285.7 L 240.3,286.8 L 242.9,287.8 L 245.4,288.8 L 248.0,289.7 L 250.6,290.7 L 253.2,291.6 L 255.8,292.6 L 258.3,293.5 L 260.9,294.4 L 263.5,295.2 L 266.1,296.1 L 268.7,296.9 L 271.2,297.7 L 273.8,298.5 L 276.4,299.3 L 279.0,300.1 L 281.6,300.9 L 284.1,301.6 L 286.7,302.4 L 289.3,303.1 L 291.9,303.8 L 294.5,304.6 L 297.0,305.3 L 299.6,306.0 L 302.2,306.6 L 304.8,307.3 L 307.4,308.0 L 309.9,308.7 L 312.5,309.3 L 315.1,310.0 L 317.7,310.6 L 320.3,311.2 L 322.8,311.9 L 325.4,312.5 L 328.0,313.1 L 330.6,313.7 L 333.2,314.3 L 335.7,314.9 L 338.3,315.5 L 340.9,316.1 L 343.5,316.6 L 346.1,317.2 L 348.6,317.8 L 351.2,318.3 L 353.8,318.9 L 356.4,319.4 L 358.9,320.0 L 361.5,320.5 L 364.1,321.1 L 366.7,321.6 L 369.3,322.1 L 371.8,322.7 L 374.4,323.2 L 377.0,323.7 L 379.6,324.2 L 382.2,324.7 L 384.7,325.2 L 387.3,325.7 L 389.9,326.2 L 392.5,326.7 L 395.1,327.2 L 397.6,327.7 L 400.2,328.2 L 402.8,328.7 L 405.4,329.2 L 408.0,329.6 L 410.5,330.1 L 413.1,330.6 L 415.7,331.1 L 418.3,331.5 L 420.9,332.0 L 423.4,332.5 L 426.0,333.0 L 428.6,333.4 L 431.2,333.9 L 433.8,334.4 L 436.3,334.8 L 438.9,335.3 L 441.5,335.7 L 444.1,336.2 L 446.7,336.7 L 449.2,337.1 L 451.8,337.6 L 454.4,338.0 L 457.0,338.5 L 459.6,338.9 L 462.1,339.3 L 464.7,339.8 L 467.3,340.2 L 469.9,340.6 L 472.5,341.1 L 475.0,341.5 L 477.6,341.9 L 480.2,342.3 L 482.8,342.7 L 485.4,343.1 L 487.9,343.5 L 490.5,343.8 L 493.1,344.2 L 495.7,344.6 L 498.3,344.9 L 500.8,345.3 L 503.4,345.7 L 506.0,346.0 L 508.6,346.3 L 511.2,346.7 L 513.7,347.0 L 516.3,347.3 L 518.9,347.6 L 521.5,347.9 L 524.1,348.2 L 526.6,348.5 L 529.2,348.8 L 531.8,349.1 L 534.4,349.3 L 537.0,349.6 L 539.5,349.9 L 542.1,350.1 L 544.7,350.4 L 547.3,350.6 L 549.9,350.9 L 552.4,351.1 L 555.0,351.3 L 557.6,351.5 L 560.2,351.7 L 562.8,351.9 L 565.3,352.1 L 567.9,352.3 L 570.5,352.5 L 573.1,352.7 L 575.7,352.9 L 578.2,353.1 L 580.8,353.2 L 583.4,353.4 L 586.0,353.6 L 588.6,353.7 L 591.1,353.9 L 593.7,354.0 L 596.3,354.2 L 598.9,354.3 L 601.5,354.4 L 604.0,354.6 L 606.6,354.7 L 609.2,354.8 L 611.8,354.9 L 614.4,355.1 L 616.9,355.2 L 619.5,355.3 L 622.1,355.4 L 624.7,355.5 L 627.3,355.6 L 629.8,355.7 L 632.4,355.8 L 635.0,355.9" class="sig"/>
<path d="M 75.7,293.5 L 81.3,266.3 L 87.0,247.1 L 92.6,232.4 L 98.2,220.8 L 103.9,211.6 L 109.5,204.4 L 115.2,198.9 L 120.8,194.2 L 126.5,190.3 L 132.2,186.9 L 137.8,183.7 L 143.4,180.4 L 149.1,177.0 L 154.8,173.7 L 160.4,170.3 L 166.1,167.1 L 171.7,163.9 L 177.3,160.8 L 183.0,157.7 L 188.6,154.8 L 194.3,152.0 L 200.0,149.3 L 205.6,146.7 L 211.2,144.2 L 216.9,141.8 L 222.5,139.5 L 228.2,137.3 L 233.9,135.2 L 239.5,133.3 L 245.2,131.4 L 250.8,129.6 L 256.5,127.8 L 262.1,126.1 L 267.8,124.4 L 273.4,122.7 L 279.1,121.0 L 284.7,119.3 L 290.3,117.7 L 296.0,116.1 L 301.6,114.5 L 307.3,112.9 L 312.9,111.3 L 318.6,109.8 L 324.2,108.3 L 329.9,106.8 L 335.6,105.4 L 341.2,104.0 L 346.9,102.6 L 352.5,101.2 L 358.1,99.9 L 363.8,98.6 L 369.4,97.3 L 375.1,96.1 L 380.8,94.9 L 386.4,93.7 L 392.0,92.5 L 397.7,91.4 L 403.3,90.3 L 409.0,89.2 L 414.6,88.2 L 420.3,87.1 L 425.9,86.2 L 431.6,85.2 L 437.2,84.3 L 442.9,83.5 L 448.6,82.7 L 454.2,82.0 L 459.8,81.4 L 465.5,80.9 L 471.1,80.5 L 476.8,80.1 L 482.4,79.8 L 488.1,79.6 L 493.7,79.5 L 499.4,79.4 L 505.0,79.4 L 510.7,79.5 L 516.4,79.7 L 522.0,79.9 L 527.6,80.2 L 533.3,80.6 L 539.0,81.1 L 544.6,81.6 L 550.2,82.2 L 555.9,82.9 L 561.5,83.7 L 567.2,84.5 L 572.9,85.4 L 578.5,86.4 L 584.1,87.4 L 589.8,88.6 L 595.5,89.8 L 601.1,91.1 L 606.8,92.4 L 612.4,93.8 L 618.0,95.2 L 623.7,96.6 L 629.4,98.0 L 635.0,99.3" class="nt"/>
<path d="M 74.7,325.8 L 79.4,290.6 L 84.1,257.5 L 88.8,228.2 L 93.5,202.8 L 98.2,181.6 L 103.0,164.5 L 107.7,151.3 L 112.4,141.7 L 117.1,135.1 L 121.8,131.1 L 126.5,129.0 L 131.2,128.3 L 135.9,128.5 L 140.6,128.9 L 145.3,129.2 L 150.0,129.2 L 154.8,128.9 L 159.5,128.2 L 164.2,127.3 L 168.9,126.1 L 173.6,124.9 L 178.3,123.5 L 183.0,122.1 L 187.7,120.8 L 192.4,119.4 L 197.1,118.2 L 201.8,117.1 L 206.5,116.0 L 211.2,115.2 L 216.0,114.5 L 220.7,114.1 L 225.4,113.9 L 230.1,114.0 L 234.8,114.3 L 239.5,115.0 L 244.2,116.0 L 248.9,117.2 L 253.6,118.6 L 258.3,120.0 L 263.0,121.3 L 267.8,122.5 L 272.5,123.5 L 277.2,124.4 L 281.9,125.2 L 286.6,125.8 L 291.3,126.4 L 296.0,126.8 L 300.7,127.2 L 305.4,127.5 L 310.1,127.8 L 314.8,128.0 L 319.5,128.1 L 324.2,128.2 L 329.0,128.3 L 333.7,128.4 L 338.4,128.4 L 343.1,128.4 L 347.8,128.3 L 352.5,128.3 L 357.2,128.2 L 361.9,128.1 L 366.6,127.9 L 371.3,127.7 L 376.0,127.5 L 380.8,127.2 L 385.5,126.9 L 390.2,126.6 L 394.9,126.2 L 399.6,125.7 L 404.3,125.1 L 409.0,124.5 L 413.7,123.7 L 418.4,122.8 L 423.1,121.9 L 427.8,120.8 L 432.5,119.7 L 437.2,118.7 L 442.0,117.9 L 446.7,117.4 L 451.4,117.2 L 456.1,117.4 L 460.8,117.9 L 465.5,118.7 L 470.2,119.7 L 474.9,121.1 L 479.6,122.6 L 484.3,124.4 L 489.0,126.4 L 493.8,128.5 L 498.5,130.9 L 503.2,133.4 L 507.9,136.1 L 512.6,139.0 L 517.3,142.0 L 522.0,145.1 L 526.7,148.4 L 531.4,151.7 L 536.1,155.2 L 540.8,158.7 L 545.5,162.4 L 550.2,166.1 L 555.0,169.8 L 559.7,173.6 L 564.4,177.4 L 569.1,181.2 L 573.8,184.9 L 578.5,188.6 L 583.2,192.3 L 587.9,195.8 L 592.6,199.1 L 597.3,202.3 L 602.0,205.4 L 606.8,208.3 L 611.5,211.0 L 616.2,213.5 L 620.9,215.9 L 625.6,218.2 L 630.3,220.3 L 635.0,222.4" class="fw"/>
<line x1="80.67782686191842" y1="184.03855907105017" x2="80.67782686191842" y2="266.6640401382877" class="err"/>
<line x1="77.67782686191842" y1="184.03855907105017" x2="83.67782686191842" y2="184.03855907105017" class="err"/>
<line x1="77.67782686191842" y1="266.6640401382877" x2="83.67782686191842" y2="266.6640401382877" class="err"/>
<circle cx="80.67782686191842" cy="225.35129960466892" r="2.5" class="obs"/>
<line x1="84.10998549610649" y1="176.1417575605999" x2="84.10998549610649" y2="242.97363560693688" class="err"/>
<line x1="81.10998549610649" y1="176.1417575605999" x2="87.10998549610649" y2="176.1417575605999" class="err"/>
<line x1="81.10998549610649" y1="242.97363560693688" x2="87.10998549610649" y2="242.97363560693688" class="err"/>
<circle cx="84.10998549610649" cy="209.55769658376838" r="2.5" class="obs"/>
<line x1="87.92349508964878" y1="173.06616118284558" x2="87.92349508964878" y2="217.78699499992183" class="err"/>
<line x1="84.92349508964878" y1="173.06616118284558" x2="90.92349508964878" y2="173.06616118284558" class="err"/>
<line x1="84.92349508964878" y1="217.78699499992183" x2="90.92349508964878" y2="217.78699499992183" class="err"/>
<circle cx="87.92349508964878" cy="195.4265780913837" r="2.5" class="obs"/>
<line x1="91.35565372383685" y1="164.2549931817116" x2="91.35565372383685" y2="203.32337960183395" class="err"/>
<line x1="88.35565372383685" y1="164.2549931817116" x2="94.35565372383685" y2="164.2549931817116" class="err"/>
<line x1="88.35565372383685" y1="203.32337960183395" x2="94.35565372383685" y2="203.32337960183395" class="err"/>
<circle cx="91.35565372383685" cy="183.78918639177277" r="2.5" class="obs"/>
<line x1="94.78781235802492" y1="164.978173951616" x2="94.78781235802492" y2="179.32541543270776" class="err"/>
<line x1="91.78781235802492" y1="164.978173951616" x2="97.78781235802492" y2="164.978173951616" class="err"/>
<line x1="91.78781235802492" y1="179.32541543270776" x2="97.78781235802492" y2="179.32541543270776" class="err"/>
<circle cx="94.78781235802492" cy="172.15179469216184" r="2.5" class="obs"/>
<line x1="98.60132195156721" y1="158.8768557319628" x2="98.60132195156721" y2="167.13940383868658" class="err"/>
<line x1="95.60132195156721" y1="158.8768557319628" x2="101.60132195156721" y2="158.8768557319628" class="err"/>
<line x1="95.60132195156721" y1="167.13940383868658" x2="101.60132195156721" y2="167.13940383868658" class="err"/>
<circle cx="98.60132195156721" cy="163.0081297853247" r="2.5" class="obs"/>
<line x1="102.03348058575527" y1="151.66167287820406" x2="102.03348058575527" y2="157.7297414072869" class="err"/>
<line x1="99.03348058575527" y1="151.66167287820406" x2="105.03348058575527" y2="151.66167287820406" class="err"/>
<line x1="99.03348058575527" y1="157.7297414072869" x2="105.03348058575527" y2="157.7297414072869" class="err"/>
<circle cx="102.03348058575527" cy="154.6957071427455" r="2.5" class="obs"/>
<line x1="105.46563921994334" y1="144.83717388864648" x2="105.46563921994334" y2="149.59187964020185" class="err"/>
<line x1="102.46563921994334" y1="144.83717388864648" x2="108.46563921994334" y2="144.83717388864648" class="err"/>
<line x1="102.46563921994334" y1="149.59187964020185" x2="108.46563921994334" y2="149.59187964020185" class="err"/>
<circle cx="105.46563921994334" cy="147.21452676442416" r="2.5" class="obs"/>
<line x1="109.27914881348565" y1="138.2371103104386" x2="109.27914881348565" y2="144.55455151879883" class="err"/>
<line x1="106.27914881348565" y1="138.2371103104386" x2="112.27914881348565" y2="138.2371103104386" class="err"/>
<line x1="106.27914881348565" y1="144.55455151879883" x2="112.27914881348565" y2="144.55455151879883" class="err"/>
<circle cx="109.27914881348565" cy="141.3958309146187" r="2.5" class="obs"/>
<line x1="112.7113074476737" y1="131.92798152472096" x2="112.7113074476737" y2="140.88877313342135" class="err"/>
<line x1="109.7113074476737" y1="131.92798152472096" x2="115.7113074476737" y2="131.92798152472096" class="err"/>
<line x1="109.7113074476737" y1="140.88877313342135" x2="115.7113074476737" y2="140.88877313342135" class="err"/>
<circle cx="112.7113074476737" cy="136.40837732907113" r="2.5" class="obs"/>
<line x1="116.14346608186176" y1="128.08764226384938" x2="116.14346608186176" y2="136.41668975171376" class="err"/>
<line x1="113.14346608186176" y1="128.08764226384938" x2="119.14346608186176" y2="128.08764226384938" class="err"/>
<line x1="113.14346608186176" y1="136.41668975171376" x2="119.14346608186176" y2="136.41668975171376" class="err"/>
<circle cx="116.14346608186176" cy="132.25216600778154" r="2.5" class="obs"/>
<line x1="119.57562471604983" y1="120.61477430817064" x2="119.57562471604983" y2="137.2396195933291" class="err"/>
<line x1="116.57562471604983" y1="120.61477430817064" x2="122.57562471604983" y2="120.61477430817064" class="err"/>
<line x1="116.57562471604983" y1="137.2396195933291" x2="122.57562471604983" y2="137.2396195933291" class="err"/>
<circle cx="119.57562471604983" cy="128.92719695074987" r="2.5" class="obs"/>
<line x1="123.77048526894635" y1="120.9555836365164" x2="123.77048526894635" y2="131.91135667943578" class="err"/>
<line x1="120.77048526894635" y1="120.9555836365164" x2="126.77048526894635" y2="120.9555836365164" class="err"/>
<line x1="120.77048526894635" y1="131.91135667943578" x2="126.77048526894635" y2="131.91135667943578" class="err"/>
<circle cx="123.77048526894635" cy="126.43347015797607" r="2.5" class="obs"/>
<line x1="127.20264390313443" y1="121.81176316870203" x2="127.20264390313443" y2="127.73020809021845" class="err"/>
<line x1="124.20264390313443" y1="121.81176316870203" x2="130.20264390313443" y2="121.81176316870203" class="err"/>
<line x1="124.20264390313443" y1="127.73020809021845" x2="130.20264390313443" y2="127.73020809021845" class="err"/>
<circle cx="127.20264390313443" cy="124.77098562946026" r="2.5" class="obs"/>
<line x1="130.63480253732249" y1="118.84422828530127" x2="130.63480253732249" y2="129.0352584451034" class="err"/>
<line x1="127.63480253732249" y1="118.84422828530127" x2="133.63480253732249" y2="118.84422828530127" class="err"/>
<line x1="127.63480253732249" y1="129.0352584451034" x2="133.63480253732249" y2="129.0352584451034" class="err"/>
<circle cx="130.63480253732249" cy="123.93974336520232" r="2.5" class="obs"/>
<line x1="134.06696117151054" y1="114.6298300055136" x2="134.06696117151054" y2="131.5871721963752" class="err"/>
<line x1="131.06696117151054" y1="114.6298300055136" x2="137.06696117151054" y2="114.6298300055136" class="err"/>
<line x1="131.06696117151054" y1="131.5871721963752" x2="137.06696117151054" y2="131.5871721963752" class="err"/>
<circle cx="134.06696117151054" cy="123.10850110094441" r="2.5" class="obs"/>
<line x1="137.88047076505285" y1="115.12026294142575" x2="137.88047076505285" y2="129.4342547319472" class="err"/>
<line x1="134.88047076505285" y1="115.12026294142575" x2="140.88047076505285" y2="115.12026294142575" class="err"/>
<line x1="134.88047076505285" y1="129.4342547319472" x2="140.88047076505285" y2="129.4342547319472" class="err"/>
<circle cx="137.88047076505285" cy="122.27725883668646" r="2.5" class="obs"/>
<line x1="141.3126293992409" y1="112.96734547699774" x2="141.3126293992409" y2="131.5871721963752" class="err"/>
<line x1="138.3126293992409" y1="112.96734547699774" x2="144.3126293992409" y2="112.96734547699774" class="err"/>
<line x1="138.3126293992409" y1="131.5871721963752" x2="144.3126293992409" y2="131.5871721963752" class="err"/>
<circle cx="141.3126293992409" cy="122.27725883668646" r="2.5" class="obs"/>
<line x1="144.74478803342896" y1="118.8276034400161" x2="144.74478803342896" y2="127.3893987618727" class="err"/>
<line x1="141.74478803342896" y1="118.8276034400161" x2="147.74478803342896" y2="118.8276034400161" class="err"/>
<line x1="141.74478803342896" y1="127.3893987618727" x2="147.74478803342896" y2="127.3893987618727" class="err"/>
<circle cx="144.74478803342896" cy="123.10850110094441" r="2.5" class="obs"/>
<line x1="148.17694666761702" y1="119.01878916079541" x2="148.17694666761702" y2="127.1982130410934" class="err"/>
<line x1="145.17694666761702" y1="119.01878916079541" x2="151.17694666761702" y2="119.01878916079541" class="err"/>
<line x1="145.17694666761702" y1="127.1982130410934" x2="151.17694666761702" y2="127.1982130410934" class="err"/>
<circle cx="148.17694666761702" cy="123.10850110094441" r="2.5" class="obs"/>
<line x1="152.37180722051357" y1="115.36132319806055" x2="152.37180722051357" y2="130.85567900382824" class="err"/>
<line x1="149.37180722051357" y1="115.36132319806055" x2="155.37180722051357" y2="115.36132319806055" class="err"/>
<line x1="149.37180722051357" y1="130.85567900382824" x2="155.37180722051357" y2="130.85567900382824" class="err"/>
<circle cx="152.37180722051357" cy="123.10850110094441" r="2.5" class="obs"/>
<line x1="155.80396585470163" y1="117.96311148518785" x2="155.80396585470163" y2="129.91637524521678" class="err"/>
<line x1="152.80396585470163" y1="117.96311148518785" x2="158.80396585470163" y2="117.96311148518785" class="err"/>
<line x1="152.80396585470163" y1="129.91637524521678" x2="158.80396585470163" y2="129.91637524521678" class="err"/>
<circle cx="155.80396585470163" cy="123.93974336520232" r="2.5" class="obs"/>
<line x1="159.2361244888897" y1="113.79858774125566" x2="159.2361244888897" y2="134.08089898914898" class="err"/>
<line x1="156.2361244888897" y1="113.79858774125566" x2="162.2361244888897" y2="113.79858774125566" class="err"/>
<line x1="156.2361244888897" y1="134.08089898914898" x2="162.2361244888897" y2="134.08089898914898" class="err"/>
<circle cx="159.2361244888897" cy="123.93974336520232" r="2.5" class="obs"/>
<line x1="162.66828312307774" y1="117.3396797869944" x2="162.66828312307774" y2="130.5398069434102" class="err"/>
<line x1="159.66828312307774" y1="117.3396797869944" x2="165.66828312307774" y2="117.3396797869944" class="err"/>
<line x1="159.66828312307774" y1="130.5398069434102" x2="165.66828312307774" y2="130.5398069434102" class="err"/>
<circle cx="162.66828312307774" cy="123.93974336520232" r="2.5" class="obs"/>
<line x1="163.81233600114044" y1="119.65053328163143" x2="163.81233600114044" y2="128.2289534487732" class="err"/>
<line x1="160.81233600114044" y1="119.65053328163143" x2="166.81233600114044" y2="119.65053328163143" class="err"/>
<line x1="160.81233600114044" y1="128.2289534487732" x2="166.81233600114044" y2="128.2289534487732" class="err"/>
<circle cx="163.81233600114044" cy="123.93974336520232" r="2.5" class="obs"/>
<line x1="166.48179271662002" y1="120.98052090444412" x2="166.48179271662002" y2="126.89896582596054" class="err"/>
<line x1="163.48179271662002" y1="120.98052090444412" x2="169.48179271662002" y2="120.98052090444412" class="err"/>
<line x1="163.48179271662002" y1="126.89896582596054" x2="169.48179271662002" y2="126.89896582596054" class="err"/>
<circle cx="166.48179271662002" cy="123.93974336520232" r="2.5" class="obs"/>
<line x1="169.91395135080813" y1="120.78933518366479" x2="169.91395135080813" y2="127.09015154673988" class="err"/>
<line x1="166.91395135080813" y1="120.78933518366479" x2="172.91395135080813" y2="120.78933518366479" class="err"/>
<line x1="166.91395135080813" y1="127.09015154673988" x2="172.91395135080813" y2="127.09015154673988" class="err"/>
<circle cx="169.91395135080813" cy="123.93974336520232" r="2.5" class="obs"/>
<line x1="173.3461099849962" y1="119.24322457214508" x2="173.3461099849962" y2="128.63626215825957" class="err"/>
<line x1="170.3461099849962" y1="119.24322457214508" x2="176.3461099849962" y2="119.24322457214508" class="err"/>
<line x1="170.3461099849962" y1="128.63626215825957" x2="176.3461099849962" y2="128.63626215825957" class="err"/>
<circle cx="173.3461099849962" cy="123.93974336520232" r="2.5" class="obs"/>
<line x1="176.77826861918425" y1="116.14269092646302" x2="176.77826861918425" y2="131.73679580394162" class="err"/>
<line x1="173.77826861918425" y1="116.14269092646302" x2="179.77826861918425" y2="116.14269092646302" class="err"/>
<line x1="173.77826861918425" y1="131.73679580394162" x2="179.77826861918425" y2="131.73679580394162" class="err"/>
<circle cx="176.77826861918425" cy="123.93974336520232" r="2.5" class="obs"/>
<line x1="184.0239368469146" y1="115.1285753640683" x2="184.0239368469146" y2="132.7509113663363" class="err"/>
<line x1="181.0239368469146" y1="115.1285753640683" x2="187.0239368469146" y2="115.1285753640683" class="err"/>
<line x1="181.0239368469146" y1="132.7509113663363" x2="187.0239368469146" y2="132.7509113663363" class="err"/>
<circle cx="184.0239368469146" cy="123.93974336520232" r="2.5" class="obs"/>
<line x1="195.08311466818725" y1="110.39049445779818" x2="195.08311466818725" y2="135.82650774409063" class="err"/>
<line x1="192.08311466818725" y1="110.39049445779818" x2="198.08311466818725" y2="110.39049445779818" class="err"/>
<line x1="192.08311466818725" y1="135.82650774409063" x2="198.08311466818725" y2="135.82650774409063" class="err"/>
<circle cx="195.08311466818725" cy="123.10850110094441" r="2.5" class="obs"/>
<line x1="212.62525879848184" y1="106.6499042686375" x2="212.62525879848184" y2="137.90461340473541" class="err"/>
<line x1="209.62525879848184" y1="106.6499042686375" x2="215.62525879848184" y2="106.6499042686375" class="err"/>
<line x1="209.62525879848184" y1="137.90461340473541" x2="215.62525879848184" y2="137.90461340473541" class="err"/>
<circle cx="212.62525879848184" cy="122.27725883668646" r="2.5" class="obs"/>
<line x1="216.0574174326699" y1="109.64237641996604" x2="216.0574174326699" y2="134.91214125340687" class="err"/>
<line x1="213.0574174326699" y1="109.64237641996604" x2="219.0574174326699" y2="109.64237641996604" class="err"/>
<line x1="213.0574174326699" y1="134.91214125340687" x2="219.0574174326699" y2="134.91214125340687" class="err"/>
<circle cx="216.0574174326699" cy="122.27725883668646" r="2.5" class="obs"/>
<line x1="223.30308566040023" y1="105.81866200437959" x2="223.30308566040023" y2="138.73585566899337" class="err"/>
<line x1="220.30308566040023" y1="105.81866200437959" x2="226.30308566040023" y2="105.81866200437959" class="err"/>
<line x1="220.30308566040023" y1="138.73585566899337" x2="226.30308566040023" y2="138.73585566899337" class="err"/>
<circle cx="223.30308566040023" cy="122.27725883668646" r="2.5" class="obs"/>
<line x1="225.97254237587984" y1="120.28227740246749" x2="225.97254237587984" y2="124.27224027090547" class="err"/>
<line x1="222.97254237587984" y1="120.28227740246749" x2="228.97254237587984" y2="120.28227740246749" class="err"/>
<line x1="222.97254237587984" y1="124.27224027090547" x2="228.97254237587984" y2="124.27224027090547" class="err"/>
<circle cx="225.97254237587984" cy="122.27725883668646" r="2.5" class="obs"/>
<line x1="227.11659525394256" y1="114.79607845836517" x2="227.11659525394256" y2="129.75843921500777" class="err"/>
<line x1="224.11659525394256" y1="114.79607845836517" x2="230.11659525394256" y2="114.79607845836517" class="err"/>
<line x1="224.11659525394256" y1="129.75843921500777" x2="230.11659525394256" y2="129.75843921500777" class="err"/>
<circle cx="227.11659525394256" cy="122.27725883668646" r="2.5" class="obs"/>
<line x1="233.98091252231865" y1="115.86838097925792" x2="233.98091252231865" y2="130.3486212226309" class="err"/>
<line x1="230.98091252231865" y1="115.86838097925792" x2="236.98091252231865" y2="115.86838097925792" class="err"/>
<line x1="230.98091252231865" y1="130.3486212226309" x2="236.98091252231865" y2="130.3486212226309" class="err"/>
<circle cx="233.98091252231865" cy="123.10850110094441" r="2.5" class="obs"/>
<line x1="237.4130711565067" y1="116.52506236802165" x2="237.4130711565067" y2="129.69193983386714" class="err"/>
<line x1="234.4130711565067" y1="116.52506236802165" x2="240.4130711565067" y2="116.52506236802165" class="err"/>
<line x1="234.4130711565067" y1="129.69193983386714" x2="240.4130711565067" y2="129.69193983386714" class="err"/>
<circle cx="237.4130711565067" cy="123.10850110094441" r="2.5" class="obs"/>
<line x1="241.22658075004904" y1="115.76031948490439" x2="241.22658075004904" y2="130.4566827169844" class="err"/>
<line x1="238.22658075004904" y1="115.76031948490439" x2="244.22658075004904" y2="115.76031948490439" class="err"/>
<line x1="238.22658075004904" y1="130.4566827169844" x2="244.22658075004904" y2="130.4566827169844" class="err"/>
<circle cx="241.22658075004904" cy="123.10850110094441" r="2.5" class="obs"/>
<line x1="244.6587393842371" y1="120.44852585531906" x2="244.6587393842371" y2="127.4309608750856" class="err"/>
<line x1="241.6587393842371" y1="120.44852585531906" x2="247.6587393842371" y2="120.44852585531906" class="err"/>
<line x1="241.6587393842371" y1="127.4309608750856" x2="247.6587393842371" y2="127.4309608750856" class="err"/>
<circle cx="244.6587393842371" cy="123.93974336520232" r="2.5" class="obs"/>
<line x1="255.71791720550976" y1="115.95981762832625" x2="255.71791720550976" y2="133.58215363059426" class="err"/>
<line x1="252.71791720550976" y1="115.95981762832625" x2="258.71791720550976" y2="115.95981762832625" class="err"/>
<line x1="252.71791720550976" y1="133.58215363059426" x2="258.71791720550976" y2="133.58215363059426" class="err"/>
<circle cx="255.71791720550976" cy="124.77098562946026" r="2.5" class="obs"/>
<line x1="257.2433210429267" y1="123.72362037649526" x2="257.2433210429267" y2="127.48083541094105" class="err"/>
<line x1="254.2433210429267" y1="123.72362037649526" x2="260.2433210429267" y2="123.72362037649526" class="err"/>
<line x1="254.2433210429267" y1="127.48083541094105" x2="260.2433210429267" y2="127.48083541094105" class="err"/>
<circle cx="257.2433210429267" cy="125.60222789371817" r="2.5" class="obs"/>
<line x1="259.1500758396978" y1="119.80846931184041" x2="259.1500758396978" y2="131.39598647559592" class="err"/>
<line x1="256.1500758396978" y1="119.80846931184041" x2="262.1500758396978" y2="119.80846931184041" class="err"/>
<line x1="256.1500758396978" y1="131.39598647559592" x2="262.1500758396978" y2="131.39598647559592" class="err"/>
<circle cx="259.1500758396978" cy="125.60222789371817" r="2.5" class="obs"/>
<line x1="262.5822344738858" y1="123.74855764442299" x2="262.5822344738858" y2="129.11838267152922" class="err"/>
<line x1="259.5822344738858" y1="123.74855764442299" x2="265.5822344738858" y2="123.74855764442299" class="err"/>
<line x1="259.5822344738858" y1="129.11838267152922" x2="265.5822344738858" y2="129.11838267152922" class="err"/>
<circle cx="262.5822344738858" cy="126.43347015797607" r="2.5" class="obs"/>
<line x1="266.01439310807393" y1="117.9547990625453" x2="266.01439310807393" y2="134.91214125340687" class="err"/>
<line x1="263.01439310807393" y1="117.9547990625453" x2="269.01439310807393" y2="117.9547990625453" class="err"/>
<line x1="263.01439310807393" y1="134.91214125340687" x2="269.01439310807393" y2="134.91214125340687" class="err"/>
<circle cx="266.01439310807393" cy="126.43347015797607" r="2.5" class="obs"/>
<line x1="269.82790270161627" y1="118.70291710037739" x2="269.82790270161627" y2="135.82650774409063" class="err"/>
<line x1="266.82790270161627" y1="118.70291710037739" x2="272.82790270161627" y2="118.70291710037739" class="err"/>
<line x1="266.82790270161627" y1="135.82650774409063" x2="272.82790270161627" y2="135.82650774409063" class="err"/>
<circle cx="269.82790270161627" cy="127.26471242223401" r="2.5" class="obs"/>
<line x1="273.26006133580427" y1="112.46860011844296" x2="273.26006133580427" y2="142.06082472602506" class="err"/>
<line x1="270.26006133580427" y1="112.46860011844296" x2="276.26006133580427" y2="112.46860011844296" class="err"/>
<line x1="270.26006133580427" y1="142.06082472602506" x2="276.26006133580427" y2="142.06082472602506" class="err"/>
<circle cx="273.26006133580427" cy="127.26471242223401" r="2.5" class="obs"/>
<line x1="276.6922199699924" y1="118.61979287395162" x2="276.6922199699924" y2="137.57211649903226" class="err"/>
<line x1="273.6922199699924" y1="118.61979287395162" x2="279.6922199699924" y2="118.61979287395162" class="err"/>
<line x1="273.6922199699924" y1="137.57211649903226" x2="279.6922199699924" y2="137.57211649903226" class="err"/>
<circle cx="276.6922199699924" cy="128.09595468649192" r="2.5" class="obs"/>
<line x1="280.1243786041804" y1="118.12104751539684" x2="280.1243786041804" y2="138.070861857587" class="err"/>
<line x1="277.1243786041804" y1="118.12104751539684" x2="283.1243786041804" y2="118.12104751539684" class="err"/>
<line x1="277.1243786041804" y1="138.070861857587" x2="283.1243786041804" y2="138.070861857587" class="err"/>
<circle cx="280.1243786041804" cy="128.09595468649192" r="2.5" class="obs"/>
<line x1="283.9378881977227" y1="125.57729062579045" x2="283.9378881977227" y2="132.27710327570924" class="err"/>
<line x1="280.9378881977227" y1="125.57729062579045" x2="286.9378881977227" y2="125.57729062579045" class="err"/>
<line x1="280.9378881977227" y1="132.27710327570924" x2="286.9378881977227" y2="132.27710327570924" class="err"/>
<circle cx="283.9378881977227" cy="128.92719695074987" r="2.5" class="obs"/>
<line x1="287.75139779126505" y1="124.99542104080986" x2="287.75139779126505" y2="132.85897286068985" class="err"/>
<line x1="284.75139779126505" y1="124.99542104080986" x2="290.75139779126505" y2="124.99542104080986" class="err"/>
<line x1="284.75139779126505" y1="132.85897286068985" x2="290.75139779126505" y2="132.85897286068985" class="err"/>
<circle cx="287.75139779126505" cy="128.92719695074987" r="2.5" class="obs"/>
<line x1="291.18355642545305" y1="124.40523903318675" x2="291.18355642545305" y2="135.11163939682882" class="err"/>
<line x1="288.18355642545305" y1="124.40523903318675" x2="294.18355642545305" y2="124.40523903318675" class="err"/>
<line x1="288.18355642545305" y1="135.11163939682882" x2="294.18355642545305" y2="135.11163939682882" class="err"/>
<circle cx="291.18355642545305" cy="129.75843921500777" r="2.5" class="obs"/>
<line x1="294.61571505964116" y1="125.63547758428851" x2="294.61571505964116" y2="133.8814008457271" class="err"/>
<line x1="291.61571505964116" y1="125.63547758428851" x2="297.61571505964116" y2="125.63547758428851" class="err"/>
<line x1="291.61571505964116" y1="133.8814008457271" x2="297.61571505964116" y2="133.8814008457271" class="err"/>
<circle cx="294.61571505964116" cy="129.75843921500777" r="2.5" class="obs"/>
<line x1="298.0478736938292" y1="125.29466825594271" x2="298.0478736938292" y2="134.22221017407284" class="err"/>
<line x1="295.0478736938292" y1="125.29466825594271" x2="301.0478736938292" y2="125.29466825594271" class="err"/>
<line x1="295.0478736938292" y1="134.22221017407284" x2="301.0478736938292" y2="134.22221017407284" class="err"/>
<circle cx="298.0478736938292" cy="129.75843921500777" r="2.5" class="obs"/>
<line x1="301.8613832873715" y1="120.61477430817064" x2="301.8613832873715" y2="138.90210412184496" class="err"/>
<line x1="298.8613832873715" y1="120.61477430817064" x2="304.8613832873715" y2="120.61477430817064" class="err"/>
<line x1="298.8613832873715" y1="138.90210412184496" x2="304.8613832873715" y2="138.90210412184496" class="err"/>
<circle cx="301.8613832873715" cy="129.75843921500777" r="2.5" class="obs"/>
<line x1="304.5308400028511" y1="128.81082303375376" x2="304.5308400028511" y2="130.7060553962618" class="err"/>
<line x1="301.5308400028511" y1="128.81082303375376" x2="307.5308400028511" y2="128.81082303375376" class="err"/>
<line x1="301.5308400028511" y1="130.7060553962618" x2="307.5308400028511" y2="130.7060553962618" class="err"/>
<circle cx="304.5308400028511" cy="129.75843921500777" r="2.5" class="obs"/>
<line x1="305.2935419215596" y1="115.3779480433457" x2="305.2935419215596" y2="144.13893038666987" class="err"/>
<line x1="302.2935419215596" y1="115.3779480433457" x2="308.2935419215596" y2="115.3779480433457" class="err"/>
<line x1="302.2935419215596" y1="144.13893038666987" x2="308.2935419215596" y2="144.13893038666987" class="err"/>
<circle cx="305.2935419215596" cy="129.75843921500777" r="2.5" class="obs"/>
<line x1="308.7257005557476" y1="123.15837563679986" x2="308.7257005557476" y2="136.35850279321568" class="err"/>
<line x1="305.7257005557476" y1="123.15837563679986" x2="311.7257005557476" y2="123.15837563679986" class="err"/>
<line x1="305.7257005557476" y1="136.35850279321568" x2="311.7257005557476" y2="136.35850279321568" class="err"/>
<circle cx="308.7257005557476" cy="129.75843921500777" r="2.5" class="obs"/>
<line x1="312.15785918993566" y1="114.54670577908779" x2="312.15785918993566" y2="144.9701726509278" class="err"/>
<line x1="309.15785918993566" y1="114.54670577908779" x2="315.15785918993566" y2="114.54670577908779" class="err"/>
<line x1="309.15785918993566" y1="144.9701726509278" x2="315.15785918993566" y2="144.9701726509278" class="err"/>
<circle cx="312.15785918993566" cy="129.75843921500777" r="2.5" class="obs"/>
<line x1="326.64919564539645" y1="120.19915317604168" x2="326.64919564539645" y2="137.65524072545804" class="err"/>
<line x1="323.64919564539645" y1="120.19915317604168" x2="329.64919564539645" y2="120.19915317604168" class="err"/>
<line x1="323.64919564539645" y1="137.65524072545804" x2="329.64919564539645" y2="137.65524072545804" class="err"/>
<circle cx="326.64919564539645" cy="128.92719695074987" r="2.5" class="obs"/>
<line x1="330.4627052389387" y1="121.1384569346531" x2="330.4627052389387" y2="136.71593696684658" class="err"/>
<line x1="327.4627052389387" y1="121.1384569346531" x2="333.4627052389387" y2="121.1384569346531" class="err"/>
<line x1="327.4627052389387" y1="136.71593696684658" x2="333.4627052389387" y2="136.71593696684658" class="err"/>
<circle cx="330.4627052389387" cy="128.92719695074987" r="2.5" class="obs"/>
<line x1="333.8948638731268" y1="117.37292947756475" x2="333.8948638731268" y2="138.81897989541915" class="err"/>
<line x1="330.8948638731268" y1="117.37292947756475" x2="336.8948638731268" y2="117.37292947756475" class="err"/>
<line x1="330.8948638731268" y1="138.81897989541915" x2="336.8948638731268" y2="138.81897989541915" class="err"/>
<circle cx="333.8948638731268" cy="128.09595468649192" r="2.5" class="obs"/>
<line x1="351.0556570440671" y1="124.57148748603834" x2="351.0556570440671" y2="126.632968301398" class="err"/>
<line x1="348.0556570440671" y1="124.57148748603834" x2="354.0556570440671" y2="124.57148748603834" class="err"/>
<line x1="348.0556570440671" y1="126.632968301398" x2="354.0556570440671" y2="126.632968301398" class="err"/>
<circle cx="351.0556570440671" cy="125.60222789371817" r="2.5" class="obs"/>
<line x1="397.9618250446373" y1="116.35050149252747" x2="397.9618250446373" y2="119.89159353826622" class="err"/>
<line x1="394.9618250446373" y1="116.35050149252747" x2="400.9618250446373" y2="116.35050149252747" class="err"/>
<line x1="394.9618250446373" y1="119.89159353826622" x2="400.9618250446373" y2="119.89159353826622" class="err"/>
<circle cx="397.9618250446373" cy="118.12104751539684" r="2.5" class="obs"/>
<line x1="444.8679930452075" y1="107.2567111215458" x2="444.8679930452075" y2="115.68550768112115" class="err"/>
<line x1="441.8679930452075" y1="107.2567111215458" x2="447.8679930452075" y2="107.2567111215458" class="err"/>
<line x1="441.8679930452075" y1="115.68550768112115" x2="447.8679930452075" y2="115.68550768112115" class="err"/>
<circle cx="444.8679930452075" cy="111.47110940133348" r="2.5" class="obs"/>
<g class="legend">
<line x1="82" y1="69" x2="106" y2="69" class="fw"/>
<text x="112" y="73" class="lbl-l">framework fit</text>
<line x1="82" y1="87" x2="106" y2="87" class="nt"/>
<text x="112" y="91" class="lbl-l">Newtonian (no halo)</text>
<circle cx="94" cy="105" r="2.5" class="obs"/>
<text x="112" y="109" class="lbl">observed V±err</text>
</g>
<g class="legend">
<line x1="460" y1="69" x2="484" y2="69" class="rho"/>
<text x="490" y="73" class="lbl-r">ρ(r) raw</text>
<line x1="460" y1="87" x2="484" y2="87" class="sig"/>
<text x="490" y="91" class="lbl-r">Σ(r) smoothed</text>
<text x="460" y="113" class="lbl-r">ρ peak: 3866 M☉/pc²</text>
</g>
</svg>