<svg xmlns="http://www.w3.org/2000/svg" viewBox="0 0 720 420" width="720" height="420" font-family="sans-serif" font-size="12">
<style>
  .ax { stroke: #333; stroke-width: 1; fill: none; }
  .grid { stroke: #ddd; stroke-width: 0.5; fill: none; }
  .lbl { fill: #333; }
  .lbl-l { fill: #0066cc; }
  .lbl-r { fill: #b03030; }
  .obs { fill: #222; }
  .err { stroke: #555; stroke-width: 0.8; fill: none; }
  .fw { stroke: #0066cc; stroke-width: 2.2; fill: none; }
  .nt { stroke: #cc6600; stroke-width: 1.6; fill: none; stroke-dasharray: 5,3; }
  .rho { stroke: #b03030; stroke-width: 2.0; fill: none; }
  .sig { stroke: #b03030; stroke-width: 1.6; fill: none; stroke-dasharray: 4,2; opacity: 0.85; }
  .title { fill: #111; font-size: 16px; font-weight: 600; }
  .subtitle { fill: #555; font-size: 11px; }
  .legend { font-size: 11px; }
</style>
<text x="360.0" y="22" text-anchor="middle" class="title">UGC10310</text>
<text x="360.0" y="38" text-anchor="middle" class="subtitle">rMax=7.7 kpc, N=7, RMS=0.8 km/s (1.3%), amp=103</text>
<line x1="70" y1="365.0" x2="635" y2="365.0" class="grid"/>
<text x="64" y="369.0" text-anchor="end" class="lbl-l">0</text>
<line x1="70" y1="303.0" x2="635" y2="303.0" class="grid"/>
<text x="64" y="307.0" text-anchor="end" class="lbl-l">17</text>
<line x1="70" y1="241.00000000000003" x2="635" y2="241.00000000000003" class="grid"/>
<text x="64" y="245.00000000000003" text-anchor="end" class="lbl-l">34</text>
<line x1="70" y1="179.0" x2="635" y2="179.0" class="grid"/>
<text x="64" y="183.0" text-anchor="end" class="lbl-l">52</text>
<line x1="70" y1="117.00000000000003" x2="635" y2="117.00000000000003" class="grid"/>
<text x="64" y="121.00000000000003" text-anchor="end" class="lbl-l">69</text>
<line x1="70" y1="55.0" x2="635" y2="55.0" class="grid"/>
<text x="64" y="59.0" text-anchor="end" class="lbl-l">86</text>
<text x="641" y="369.0" text-anchor="start" class="lbl-r">0.0</text>
<text x="641" y="327.6666666666667" text-anchor="start" class="lbl-r">0.2</text>
<text x="641" y="286.33333333333337" text-anchor="start" class="lbl-r">0.4</text>
<text x="641" y="245.00000000000003" text-anchor="start" class="lbl-r">0.6</text>
<text x="641" y="203.66666666666666" text-anchor="start" class="lbl-r">0.8</text>
<text x="641" y="162.33333333333334" text-anchor="start" class="lbl-r">1.0</text>
<line x1="70.0" y1="55" x2="70.0" y2="365" class="grid"/>
<text x="70.0" y="381" text-anchor="middle" class="lbl">0.0</text>
<line x1="164.16666666666669" y1="55" x2="164.16666666666669" y2="365" class="grid"/>
<text x="164.16666666666669" y="381" text-anchor="middle" class="lbl">1.4</text>
<line x1="258.33333333333337" y1="55" x2="258.33333333333337" y2="365" class="grid"/>
<text x="258.33333333333337" y="381" text-anchor="middle" class="lbl">2.8</text>
<line x1="352.5" y1="55" x2="352.5" y2="365" class="grid"/>
<text x="352.5" y="381" text-anchor="middle" class="lbl">4.2</text>
<line x1="446.6666666666667" y1="55" x2="446.6666666666667" y2="365" class="grid"/>
<text x="446.6666666666667" y="381" text-anchor="middle" class="lbl">5.6</text>
<line x1="540.8333333333334" y1="55" x2="540.8333333333334" y2="365" class="grid"/>
<text x="540.8333333333334" y="381" text-anchor="middle" class="lbl">7.0</text>
<line x1="635.0" y1="55" x2="635.0" y2="365" class="grid"/>
<text x="635.0" y="381" text-anchor="middle" class="lbl">8.4</text>
<text x="352.5" y="408" text-anchor="middle" class="lbl">radius (kpc)</text>
<text x="16" y="210.0" text-anchor="middle" class="lbl-l" transform="rotate(-90, 16, 210.0)">velocity (km/s)</text>
<text x="704" y="210.0" text-anchor="middle" class="lbl-r" transform="rotate(-90, 704, 210.0)">mass profile (normalized to peak)</text>
<rect x="70" y="55" width="565" height="310" class="ax"/>
<path d="M 70.0,158.3 L 72.6,172.4 L 75.2,186.4 L 77.7,200.4 L 80.3,214.5 L 82.9,223.3 L 85.5,223.4 L 88.1,223.5 L 90.6,223.6 L 93.2,223.7 L 95.8,223.9 L 98.4,224.0 L 101.0,224.1 L 103.5,224.2 L 106.1,224.3 L 108.7,224.4 L 111.3,224.5 L 113.9,224.6 L 116.4,225.1 L 119.0,225.7 L 121.6,226.3 L 124.2,226.9 L 126.8,227.5 L 129.3,228.1 L 131.9,228.7 L 134.5,229.3 L 137.1,229.9 L 139.7,230.5 L 142.2,231.1 L 144.8,231.7 L 147.4,232.3 L 150.0,232.9 L 152.6,233.5 L 155.1,234.1 L 157.7,234.7 L 160.3,235.3 L 162.9,235.9 L 165.5,236.5 L 168.0,237.1 L 170.6,237.7 L 173.2,238.3 L 175.8,238.9 L 178.4,239.5 L 180.9,240.1 L 183.5,240.7 L 186.1,241.4 L 188.7,242.0 L 191.3,242.6 L 193.8,243.2 L 196.4,243.8 L 199.0,244.4 L 201.6,245.0 L 204.2,245.6 L 206.7,246.2 L 209.3,246.8 L 211.9,247.4 L 214.5,248.0 L 217.1,248.6 L 219.6,249.2 L 222.2,249.8 L 224.8,250.4 L 227.4,251.0 L 230.0,251.6 L 232.5,252.2 L 235.1,252.8 L 237.7,253.4 L 240.3,254.0 L 242.9,254.6 L 245.4,255.2 L 248.0,255.8 L 250.6,256.4 L 253.2,257.0 L 255.8,257.6 L 258.3,258.2 L 260.9,258.8 L 263.5,259.4 L 266.1,260.0 L 268.7,260.6 L 271.2,261.2 L 273.8,261.8 L 276.4,262.4 L 279.0,263.0 L 281.6,263.6 L 284.1,264.2 L 286.7,264.8 L 289.3,265.4 L 291.9,266.0 L 294.5,266.6 L 297.0,267.2 L 299.6,267.8 L 302.2,268.4 L 304.8,269.0 L 307.4,269.6 L 309.9,270.2 L 312.5,270.8 L 315.1,271.4 L 317.7,272.0 L 320.3,272.5 L 322.8,272.9 L 325.4,273.3 L 328.0,273.7 L 330.6,274.1 L 333.2,274.5 L 335.7,274.9 L 338.3,275.3 L 340.9,275.7 L 343.5,276.1 L 346.1,276.5 L 348.6,276.9 L 351.2,277.3 L 353.8,277.8 L 356.4,278.2 L 358.9,278.6 L 361.5,279.0 L 364.1,279.4 L 366.7,279.8 L 369.3,280.2 L 371.8,280.6 L 374.4,281.0 L 377.0,281.4 L 379.6,281.8 L 382.2,282.2 L 384.7,282.6 L 387.3,283.0 L 389.9,283.4 L 392.5,283.8 L 395.1,284.2 L 397.6,284.6 L 400.2,285.0 L 402.8,285.5 L 405.4,285.9 L 408.0,286.3 L 410.5,286.7 L 413.1,287.1 L 415.7,287.5 L 418.3,287.9 L 420.9,288.3 L 423.4,288.7 L 426.0,289.1 L 428.6,289.5 L 431.2,289.9 L 433.8,290.3 L 436.3,290.7 L 438.9,291.1 L 441.5,291.5 L 444.1,291.9 L 446.7,292.3 L 449.2,292.8 L 451.8,293.2 L 454.4,293.6 L 457.0,294.0 L 459.6,294.4 L 462.1,294.8 L 464.7,295.2 L 467.3,295.6 L 469.9,296.0 L 472.5,296.4 L 475.0,296.8 L 477.6,297.2 L 480.2,297.6 L 482.8,298.0 L 485.4,298.4 L 487.9,298.8 L 490.5,299.2 L 493.1,299.6 L 495.7,300.1 L 498.3,300.5 L 500.8,300.9 L 503.4,301.3 L 506.0,301.7 L 508.6,302.1 L 511.2,302.5 L 513.7,302.9 L 516.3,303.3 L 518.9,303.7 L 521.5,304.1 L 524.1,304.5 L 526.6,304.9 L 529.2,305.3 L 531.8,305.7 L 534.4,306.1 L 537.0,306.5 L 539.5,306.9 L 542.1,307.3 L 544.7,307.8 L 547.3,308.2 L 549.9,308.6 L 552.4,309.0 L 555.0,309.4 L 557.6,309.8 L 560.2,310.2 L 562.8,310.6 L 565.3,311.0 L 567.9,311.4 L 570.5,311.8 L 573.1,313.3 L 575.7,317.1 L 578.2,320.9 L 580.8,324.7 L 583.4,328.5 L 586.0,332.3 L 588.6,336.1 L 591.1,339.9 L 593.7,343.8 L 596.3,347.6 L 598.9,351.4 L 601.5,355.2 L 604.0,359.0 L 606.6,362.8 L 609.2,365.0 L 611.8,365.0 L 614.4,365.0 L 616.9,365.0 L 619.5,365.0 L 622.1,365.0 L 624.7,365.0 L 627.3,365.0 L 629.8,365.0 L 632.4,365.0 L 635.0,365.0" class="rho"/>
<path d="M 70.0,158.3 L 72.6,158.4 L 75.2,158.5 L 77.7,158.7 L 80.3,158.9 L 82.9,159.1 L 85.5,159.5 L 88.1,159.8 L 90.6,160.2 L 93.2,160.6 L 95.8,161.0 L 98.4,161.4 L 101.0,161.9 L 103.5,162.4 L 106.1,162.9 L 108.7,163.5 L 111.3,164.1 L 113.9,164.7 L 116.4,165.3 L 119.0,166.0 L 121.6,166.7 L 124.2,167.4 L 126.8,168.1 L 129.3,168.9 L 131.9,169.7 L 134.5,170.5 L 137.1,171.3 L 139.7,172.2 L 142.2,173.0 L 144.8,173.9 L 147.4,174.8 L 150.0,175.7 L 152.6,176.7 L 155.1,177.7 L 157.7,178.6 L 160.3,179.6 L 162.9,180.6 L 165.5,181.6 L 168.0,182.7 L 170.6,183.7 L 173.2,184.7 L 175.8,185.8 L 178.4,186.9 L 180.9,188.0 L 183.5,189.1 L 186.1,190.2 L 188.7,191.3 L 191.3,192.4 L 193.8,193.5 L 196.4,194.6 L 199.0,195.8 L 201.6,196.9 L 204.2,198.1 L 206.7,199.2 L 209.3,200.4 L 211.9,201.5 L 214.5,202.7 L 217.1,203.9 L 219.6,205.1 L 222.2,206.2 L 224.8,207.4 L 227.4,208.6 L 230.0,209.8 L 232.5,211.0 L 235.1,212.2 L 237.7,213.3 L 240.3,214.5 L 242.9,215.7 L 245.4,216.9 L 248.0,218.1 L 250.6,219.3 L 253.2,220.5 L 255.8,221.6 L 258.3,222.8 L 260.9,224.0 L 263.5,225.2 L 266.1,226.4 L 268.7,227.5 L 271.2,228.7 L 273.8,229.9 L 276.4,231.0 L 279.0,232.2 L 281.6,233.3 L 284.1,234.5 L 286.7,235.6 L 289.3,236.8 L 291.9,237.9 L 294.5,239.0 L 297.0,240.2 L 299.6,241.3 L 302.2,242.4 L 304.8,243.5 L 307.4,244.6 L 309.9,245.7 L 312.5,246.7 L 315.1,247.8 L 317.7,248.9 L 320.3,249.9 L 322.8,251.0 L 325.4,252.0 L 328.0,253.0 L 330.6,254.1 L 333.2,255.1 L 335.7,256.1 L 338.3,257.1 L 340.9,258.1 L 343.5,259.1 L 346.1,260.1 L 348.6,261.0 L 351.2,262.0 L 353.8,263.0 L 356.4,263.9 L 358.9,264.9 L 361.5,265.8 L 364.1,266.8 L 366.7,267.7 L 369.3,268.6 L 371.8,269.5 L 374.4,270.5 L 377.0,271.4 L 379.6,272.3 L 382.2,273.2 L 384.7,274.1 L 387.3,274.9 L 389.9,275.8 L 392.5,276.7 L 395.1,277.6 L 397.6,278.4 L 400.2,279.3 L 402.8,280.2 L 405.4,281.0 L 408.0,281.9 L 410.5,282.7 L 413.1,283.6 L 415.7,284.4 L 418.3,285.2 L 420.9,286.0 L 423.4,286.9 L 426.0,287.7 L 428.6,288.5 L 431.2,289.3 L 433.8,290.1 L 436.3,290.9 L 438.9,291.7 L 441.5,292.5 L 444.1,293.2 L 446.7,294.0 L 449.2,294.8 L 451.8,295.6 L 454.4,296.3 L 457.0,297.1 L 459.6,297.9 L 462.1,298.6 L 464.7,299.4 L 467.3,300.1 L 469.9,300.8 L 472.5,301.6 L 475.0,302.3 L 477.6,303.1 L 480.2,303.8 L 482.8,304.5 L 485.4,305.2 L 487.9,305.9 L 490.5,306.6 L 493.1,307.4 L 495.7,308.1 L 498.3,308.8 L 500.8,309.5 L 503.4,310.2 L 506.0,310.9 L 508.6,311.5 L 511.2,312.2 L 513.7,312.9 L 516.3,313.6 L 518.9,314.3 L 521.5,315.0 L 524.1,315.6 L 526.6,316.3 L 529.2,317.0 L 531.8,317.7 L 534.4,318.3 L 537.0,319.0 L 539.5,319.7 L 542.1,320.4 L 544.7,321.0 L 547.3,321.7 L 549.9,322.4 L 552.4,323.1 L 555.0,323.8 L 557.6,324.4 L 560.2,325.1 L 562.8,325.8 L 565.3,326.5 L 567.9,327.2 L 570.5,327.9 L 573.1,328.6 L 575.7,329.3 L 578.2,329.9 L 580.8,330.6 L 583.4,331.3 L 586.0,331.9 L 588.6,332.6 L 591.1,333.2 L 593.7,333.8 L 596.3,334.4 L 598.9,335.0 L 601.5,335.6 L 604.0,336.1 L 606.6,336.7 L 609.2,337.2 L 611.8,337.7 L 614.4,338.1 L 616.9,338.6 L 619.5,339.0 L 622.1,339.5 L 624.7,339.9 L 627.3,340.3 L 629.8,340.7 L 632.4,341.0 L 635.0,341.4" class="sig"/>
<path d="M 75.7,320.8 L 81.3,306.1 L 86.9,295.8 L 92.6,286.3 L 98.2,277.8 L 103.9,269.9 L 109.5,262.6 L 115.2,255.7 L 120.9,249.3 L 126.5,243.4 L 132.2,237.8 L 137.8,232.5 L 143.4,227.5 L 149.1,222.7 L 154.8,218.2 L 160.4,213.8 L 166.1,209.6 L 171.7,205.6 L 177.3,201.8 L 183.0,198.1 L 188.6,194.5 L 194.3,191.1 L 200.0,187.7 L 205.6,184.5 L 211.2,181.4 L 216.9,178.4 L 222.6,175.5 L 228.2,172.7 L 233.8,170.0 L 239.5,167.3 L 245.2,164.8 L 250.8,162.3 L 256.5,159.9 L 262.1,157.6 L 267.8,155.3 L 273.4,153.1 L 279.1,151.0 L 284.7,148.9 L 290.4,146.9 L 296.0,144.9 L 301.6,143.1 L 307.3,141.2 L 313.0,139.5 L 318.6,137.7 L 324.2,136.1 L 329.9,134.4 L 335.6,132.8 L 341.2,131.2 L 346.9,129.7 L 352.5,128.2 L 358.1,126.7 L 363.8,125.2 L 369.4,123.8 L 375.1,122.4 L 380.8,121.0 L 386.4,119.7 L 392.0,118.4 L 397.7,117.1 L 403.3,115.9 L 409.0,114.7 L 414.6,113.5 L 420.3,112.3 L 425.9,111.2 L 431.6,110.1 L 437.2,109.0 L 442.9,107.9 L 448.6,106.9 L 454.2,105.9 L 459.9,105.0 L 465.5,104.0 L 471.1,103.1 L 476.8,102.2 L 482.4,101.3 L 488.1,100.5 L 493.8,99.7 L 499.4,98.9 L 505.0,98.1 L 510.7,97.3 L 516.4,96.6 L 522.0,95.9 L 527.7,95.2 L 533.3,94.6 L 539.0,94.0 L 544.6,93.4 L 550.2,92.8 L 555.9,92.2 L 561.5,91.7 L 567.2,91.2 L 572.9,90.7 L 578.5,90.4 L 584.1,90.4 L 589.8,90.7 L 595.5,91.3 L 601.1,92.2 L 606.8,93.4 L 612.4,94.8 L 618.1,96.2 L 623.7,97.6 L 629.4,99.0 L 635.0,100.3" class="nt"/>
<path d="M 74.7,352.6 L 79.4,343.7 L 84.1,334.6 L 88.8,326.2 L 93.5,318.4 L 98.2,311.1 L 103.0,303.9 L 107.7,296.6 L 112.4,289.4 L 117.1,282.2 L 121.8,275.1 L 126.5,268.1 L 131.2,261.3 L 135.9,254.7 L 140.6,248.2 L 145.3,242.0 L 150.0,236.0 L 154.8,230.2 L 159.5,224.6 L 164.2,219.2 L 168.9,213.9 L 173.6,208.8 L 178.3,203.9 L 183.0,199.1 L 187.7,194.5 L 192.4,190.0 L 197.1,185.7 L 201.8,181.6 L 206.5,177.6 L 211.2,173.7 L 216.0,170.0 L 220.7,166.4 L 225.4,162.9 L 230.1,159.6 L 234.8,156.4 L 239.5,153.4 L 244.2,150.5 L 248.9,147.7 L 253.6,145.1 L 258.3,142.6 L 263.0,140.2 L 267.8,138.0 L 272.5,135.9 L 277.2,133.9 L 281.9,132.1 L 286.6,130.5 L 291.3,129.0 L 296.0,127.6 L 300.7,126.4 L 305.4,125.4 L 310.1,124.5 L 314.8,123.7 L 319.5,123.0 L 324.2,122.4 L 329.0,121.9 L 333.7,121.3 L 338.4,120.8 L 343.1,120.2 L 347.8,119.6 L 352.5,119.0 L 357.2,118.5 L 361.9,117.9 L 366.6,117.3 L 371.3,116.8 L 376.0,116.2 L 380.8,115.7 L 385.5,115.1 L 390.2,114.6 L 394.9,114.1 L 399.6,113.6 L 404.3,113.2 L 409.0,112.7 L 413.7,112.3 L 418.4,111.9 L 423.1,111.5 L 427.8,111.1 L 432.5,110.8 L 437.2,110.4 L 442.0,110.1 L 446.7,109.8 L 451.4,109.5 L 456.1,109.2 L 460.8,108.9 L 465.5,108.7 L 470.2,108.4 L 474.9,108.1 L 479.6,107.8 L 484.3,107.5 L 489.0,107.2 L 493.8,106.9 L 498.5,106.5 L 503.2,106.0 L 507.9,105.6 L 512.6,105.0 L 517.3,104.3 L 522.0,103.6 L 526.7,102.7 L 531.4,101.7 L 536.1,100.5 L 540.8,99.1 L 545.5,97.5 L 550.2,95.7 L 555.0,93.7 L 559.7,91.7 L 564.4,89.9 L 569.1,88.5 L 573.8,87.9 L 578.5,88.4 L 583.2,90.2 L 587.9,93.3 L 592.6,97.8 L 597.3,103.2 L 602.0,109.5 L 606.8,116.1 L 611.5,122.9 L 616.2,129.6 L 620.9,136.0 L 625.6,142.0 L 630.3,147.8 L 635.0,153.1" class="fw"/>
<line x1="143.74492135991093" y1="227.22382268893895" x2="143.74492135991093" y2="263.66644982924055" class="err"/>
<line x1="140.74492135991093" y1="227.22382268893895" x2="146.74492135991093" y2="227.22382268893895" class="err"/>
<line x1="140.74492135991093" y1="263.66644982924055" x2="146.74492135991093" y2="263.66644982924055" class="err"/>
<circle cx="143.74492135991093" cy="245.44513625908976" r="2.5" class="obs"/>
<line x1="218.16025109582105" y1="150.16135027762937" x2="218.16025109582105" y2="186.60397741793093" class="err"/>
<line x1="215.16025109582105" y1="150.16135027762937" x2="221.16025109582105" y2="150.16135027762937" class="err"/>
<line x1="215.16025109582105" y1="186.60397741793093" x2="221.16025109582105" y2="186.60397741793093" class="err"/>
<circle cx="218.16025109582105" cy="168.38266384778012" r="2.5" class="obs"/>
<line x1="291.905172455732" y1="110.18969402690337" x2="291.905172455732" y2="146.6323211672049" class="err"/>
<line x1="288.905172455732" y1="110.18969402690337" x2="294.905172455732" y2="110.18969402690337" class="err"/>
<line x1="288.905172455732" y1="146.6323211672049" x2="294.905172455732" y2="146.6323211672049" class="err"/>
<circle cx="291.905172455732" cy="128.41100759705412" r="2.5" class="obs"/>
<line x1="366.3205021916421" y1="97.58601863253027" x2="366.3205021916421" y2="134.02864577283185" class="err"/>
<line x1="363.3205021916421" y1="97.58601863253027" x2="369.3205021916421" y2="97.58601863253027" class="err"/>
<line x1="363.3205021916421" y1="134.02864577283185" x2="369.3205021916421" y2="134.02864577283185" class="err"/>
<circle cx="366.3205021916421" cy="115.80733220268107" r="2.5" class="obs"/>
<line x1="440.06542355155295" y1="91.46423344097764" x2="440.06542355155295" y2="127.90686058127922" class="err"/>
<line x1="437.06542355155295" y1="91.46423344097764" x2="443.06542355155295" y2="91.46423344097764" class="err"/>
<line x1="437.06542355155295" y1="127.90686058127922" x2="443.06542355155295" y2="127.90686058127922" class="err"/>
<circle cx="440.06542355155295" cy="109.68554701112842" r="2.5" class="obs"/>
<line x1="515.1511616634623" y1="86.0626582719606" x2="515.1511616634623" y2="122.50528541226217" class="err"/>
<line x1="512.1511616634623" y1="86.0626582719606" x2="518.1511616634623" y2="86.0626582719606" class="err"/>
<line x1="512.1511616634623" y1="122.50528541226217" x2="518.1511616634623" y2="122.50528541226217" class="err"/>
<circle cx="515.1511616634623" cy="104.28397184211141" r="2.5" class="obs"/>
<line x1="588.8960830233733" y1="83.18181818181819" x2="588.8960830233733" y2="119.62444532211978" class="err"/>
<line x1="585.8960830233733" y1="83.18181818181819" x2="591.8960830233733" y2="83.18181818181819" class="err"/>
<line x1="585.8960830233733" y1="119.62444532211978" x2="591.8960830233733" y2="119.62444532211978" class="err"/>
<circle cx="588.8960830233733" cy="101.40313175196898" r="2.5" class="obs"/>
<g class="legend">
<line x1="82" y1="69" x2="106" y2="69" class="fw"/>
<text x="112" y="73" class="lbl-l">framework fit</text>
<line x1="82" y1="87" x2="106" y2="87" class="nt"/>
<text x="112" y="91" class="lbl-l">Newtonian (no halo)</text>
<circle cx="94" cy="105" r="2.5" class="obs"/>
<text x="112" y="109" class="lbl">observed V±err</text>
</g>
<g class="legend">
<line x1="460" y1="69" x2="484" y2="69" class="rho"/>
<text x="490" y="73" class="lbl-r">ρ(r) raw</text>
<line x1="460" y1="87" x2="484" y2="87" class="sig"/>
<text x="490" y="91" class="lbl-r">Σ(r) smoothed</text>
<text x="460" y="113" class="lbl-r">ρ peak: 147 M☉/pc²</text>
</g>
</svg>