<svg xmlns="http://www.w3.org/2000/svg" viewBox="0 0 890 420" width="890" height="420" font-family="sans-serif" font-size="12">
<style>
  .ax { stroke: #333; stroke-width: 1; fill: none; }
  .grid { stroke: #ddd; stroke-width: 0.5; fill: none; }
  .lbl { fill: #333; }
  .lbl-l { fill: #0066cc; }
  .lbl-r { fill: #b03030; }
  .obs { fill: #222; }
  .err { stroke: #555; stroke-width: 0.8; fill: none; }
  .fw { stroke: #0066cc; stroke-width: 2.2; fill: none; }
  .nt { stroke: #cc6600; stroke-width: 1.6; fill: none; stroke-dasharray: 5,3; }
  .lbl-s { fill: #cc7000; }
  .rho { stroke: #b03030; stroke-width: 2.0; fill: none; }
  .sig { stroke: #cc7000; stroke-width: 1.8; fill: none; }
  .title { fill: #111; font-size: 16px; font-weight: 600; }
  .subtitle { fill: #555; font-size: 11px; }
  .preview-bg { fill: #000; }
  .preview-lbl { fill: #888; font-size: 10px; }
  .legend { font-size: 11px; }
</style>
<text x="343.5" y="22" text-anchor="middle" class="title">UGC11557</text>
<text x="343.5" y="38" text-anchor="middle" class="subtitle">rMax=10.6 kpc, N=12, RMS=2.5 km/s (4.4%), amp=105</text>
<line x1="70" y1="365.0" x2="617" y2="365.0" class="grid"/>
<text x="64" y="369.0" text-anchor="end" class="lbl-l">0</text>
<line x1="70" y1="303.0" x2="617" y2="303.0" class="grid"/>
<text x="64" y="307.0" text-anchor="end" class="lbl-l">20</text>
<line x1="70" y1="241.0" x2="617" y2="241.0" class="grid"/>
<text x="64" y="245.0" text-anchor="end" class="lbl-l">41</text>
<line x1="70" y1="179.0" x2="617" y2="179.0" class="grid"/>
<text x="64" y="183.0" text-anchor="end" class="lbl-l">61</text>
<line x1="70" y1="117.0" x2="617" y2="117.0" class="grid"/>
<text x="64" y="121.0" text-anchor="end" class="lbl-l">82</text>
<line x1="70" y1="55.0" x2="617" y2="55.0" class="grid"/>
<text x="64" y="59.0" text-anchor="end" class="lbl-l">102</text>
<text x="623" y="369.0" text-anchor="start" class="lbl-r">0.0</text>
<text x="623" y="327.7" text-anchor="start" class="lbl-r">0.2</text>
<text x="623" y="286.3" text-anchor="start" class="lbl-r">0.4</text>
<text x="623" y="245.0" text-anchor="start" class="lbl-r">0.6</text>
<text x="623" y="203.7" text-anchor="start" class="lbl-r">0.8</text>
<text x="623" y="162.3" text-anchor="start" class="lbl-r">1.0</text>
<line x1="70.0" y1="55" x2="70.0" y2="365" class="grid"/>
<text x="70.0" y="381" text-anchor="middle" class="lbl">0.0</text>
<line x1="161.2" y1="55" x2="161.2" y2="365" class="grid"/>
<text x="161.2" y="381" text-anchor="middle" class="lbl">1.9</text>
<line x1="252.3" y1="55" x2="252.3" y2="365" class="grid"/>
<text x="252.3" y="381" text-anchor="middle" class="lbl">3.7</text>
<line x1="343.5" y1="55" x2="343.5" y2="365" class="grid"/>
<text x="343.5" y="381" text-anchor="middle" class="lbl">5.6</text>
<line x1="434.7" y1="55" x2="434.7" y2="365" class="grid"/>
<text x="434.7" y="381" text-anchor="middle" class="lbl">7.5</text>
<line x1="525.8" y1="55" x2="525.8" y2="365" class="grid"/>
<text x="525.8" y="381" text-anchor="middle" class="lbl">9.3</text>
<line x1="617.0" y1="55" x2="617.0" y2="365" class="grid"/>
<text x="617.0" y="381" text-anchor="middle" class="lbl">11.2</text>
<text x="343.5" y="408" text-anchor="middle" class="lbl">radius (kpc)</text>
<text x="16" y="210" text-anchor="middle" class="lbl-l" transform="rotate(-90, 16, 210)">velocity (km/s)</text>
<text x="654" y="210" text-anchor="middle" class="lbl-r" transform="rotate(-90, 654, 210)">mass profile (normalized to peak)</text>
<rect x="70" y="55" width="547" height="310" class="ax"/>
<path d="M 70.0,158.3 L 72.5,158.3 L 75.0,158.3 L 77.5,158.3 L 80.0,158.3 L 82.5,158.3 L 85.0,158.3 L 87.5,158.3 L 90.0,158.3 L 92.5,158.3 L 95.0,158.3 L 97.5,158.3 L 100.0,158.3 L 102.5,158.3 L 105.0,158.3 L 107.5,158.3 L 110.0,158.3 L 112.5,158.3 L 115.0,158.3 L 117.5,158.3 L 120.0,158.3 L 122.5,158.3 L 124.9,158.3 L 127.4,158.3 L 129.9,158.3 L 132.4,158.3 L 134.9,158.3 L 137.4,158.3 L 139.9,158.3 L 142.4,158.3 L 144.9,158.3 L 147.4,158.3 L 149.9,158.3 L 152.4,158.3 L 154.9,158.3 L 157.4,158.3 L 159.9,158.3 L 162.4,158.9 L 164.9,160.2 L 167.4,161.6 L 169.9,163.0 L 172.4,164.4 L 174.9,165.8 L 177.4,167.2 L 179.9,168.5 L 182.4,169.9 L 184.9,171.3 L 187.4,172.7 L 189.9,173.1 L 192.4,173.3 L 194.9,173.4 L 197.4,173.6 L 199.9,173.8 L 202.4,173.9 L 204.9,174.1 L 207.4,174.3 L 209.9,174.4 L 212.4,174.6 L 214.9,174.8 L 217.4,174.9 L 219.9,175.1 L 222.4,175.3 L 224.9,175.4 L 227.4,175.6 L 229.9,176.1 L 232.4,176.9 L 234.8,177.6 L 237.3,178.4 L 239.8,179.2 L 242.3,180.0 L 244.8,180.8 L 247.3,181.6 L 249.8,182.3 L 252.3,183.1 L 254.8,183.9 L 257.3,184.7 L 259.8,185.5 L 262.3,186.2 L 264.8,187.0 L 267.3,187.8 L 269.8,188.6 L 272.3,189.4 L 274.8,190.1 L 277.3,190.9 L 279.8,191.7 L 282.3,192.5 L 284.8,193.3 L 287.3,194.0 L 289.8,194.8 L 292.3,195.6 L 294.8,196.4 L 297.3,197.2 L 299.8,197.9 L 302.3,198.7 L 304.8,199.5 L 307.3,200.3 L 309.8,201.1 L 312.3,201.9 L 314.8,202.6 L 317.3,203.4 L 319.8,204.2 L 322.3,205.0 L 324.8,205.8 L 327.3,206.5 L 329.8,207.3 L 332.3,208.1 L 334.8,208.9 L 337.3,209.7 L 339.8,210.4 L 342.3,211.2 L 344.7,212.0 L 347.2,212.8 L 349.7,213.6 L 352.2,214.3 L 354.7,215.1 L 357.2,215.9 L 359.7,216.7 L 362.2,217.5 L 364.7,218.3 L 367.2,219.0 L 369.7,219.8 L 372.2,220.6 L 374.7,221.4 L 377.2,222.2 L 379.7,222.9 L 382.2,223.7 L 384.7,224.5 L 387.2,225.3 L 389.7,226.1 L 392.2,226.8 L 394.7,227.6 L 397.2,228.4 L 399.7,229.2 L 402.2,230.0 L 404.7,230.7 L 407.2,231.5 L 409.7,232.3 L 412.2,233.1 L 414.7,233.9 L 417.2,234.7 L 419.7,235.4 L 422.2,236.2 L 424.7,237.0 L 427.2,237.8 L 429.7,238.6 L 432.2,239.3 L 434.7,240.1 L 437.2,240.9 L 439.7,241.7 L 442.2,242.5 L 444.7,243.2 L 447.2,244.0 L 449.7,244.8 L 452.2,245.6 L 454.6,246.4 L 457.1,247.1 L 459.6,247.9 L 462.1,248.7 L 464.6,249.5 L 467.1,250.3 L 469.6,251.1 L 472.1,251.8 L 474.6,252.6 L 477.1,253.4 L 479.6,254.2 L 482.1,255.0 L 484.6,255.7 L 487.1,256.5 L 489.6,257.3 L 492.1,258.1 L 494.6,258.9 L 497.1,259.6 L 499.6,260.4 L 502.1,261.2 L 504.6,262.0 L 507.1,262.8 L 509.6,263.5 L 512.1,264.3 L 514.6,265.1 L 517.1,265.9 L 519.6,266.7 L 522.1,267.5 L 524.6,268.2 L 527.1,269.0 L 529.6,269.8 L 532.1,270.6 L 534.6,271.4 L 537.1,272.1 L 539.6,272.9 L 542.1,273.7 L 544.6,274.5 L 547.1,275.3 L 549.6,276.0 L 552.1,276.8 L 554.6,277.6 L 557.1,278.4 L 559.6,279.2 L 562.1,279.9 L 564.5,280.7 L 567.0,281.5 L 569.5,282.3 L 572.0,283.1 L 574.5,283.8 L 577.0,284.6 L 579.5,293.6 L 582.0,309.2 L 584.5,324.8 L 587.0,340.4 L 589.5,356.1 L 592.0,365.0 L 594.5,365.0 L 597.0,365.0 L 599.5,365.0 L 602.0,365.0 L 604.5,365.0 L 607.0,365.0 L 609.5,365.0 L 612.0,365.0 L 614.5,365.0 L 617.0,365.0" class="rho"/>
<path d="M 70.0,158.3 L 72.5,158.4 L 75.0,158.4 L 77.5,158.4 L 80.0,158.5 L 82.5,158.5 L 85.0,158.6 L 87.5,158.7 L 90.0,158.9 L 92.5,159.0 L 95.0,159.1 L 97.5,159.3 L 100.0,159.5 L 102.5,159.7 L 105.0,159.9 L 107.5,160.2 L 110.0,160.4 L 112.5,160.7 L 115.0,161.0 L 117.5,161.3 L 120.0,161.6 L 122.5,161.9 L 124.9,162.3 L 127.4,162.7 L 129.9,163.1 L 132.4,163.5 L 134.9,163.9 L 137.4,164.4 L 139.9,164.8 L 142.4,165.3 L 144.9,165.9 L 147.4,166.4 L 149.9,167.0 L 152.4,167.5 L 154.9,168.1 L 157.4,168.8 L 159.9,169.4 L 162.4,170.1 L 164.9,170.8 L 167.4,171.5 L 169.9,172.2 L 172.4,173.0 L 174.9,173.7 L 177.4,174.5 L 179.9,175.3 L 182.4,176.0 L 184.9,176.8 L 187.4,177.6 L 189.9,178.4 L 192.4,179.3 L 194.9,180.1 L 197.4,180.9 L 199.9,181.7 L 202.4,182.6 L 204.9,183.4 L 207.4,184.2 L 209.9,185.1 L 212.4,185.9 L 214.9,186.8 L 217.4,187.7 L 219.9,188.6 L 222.4,189.5 L 224.9,190.4 L 227.4,191.3 L 229.9,192.2 L 232.4,193.2 L 234.8,194.1 L 237.3,195.1 L 239.8,196.0 L 242.3,197.0 L 244.8,198.0 L 247.3,199.0 L 249.8,200.0 L 252.3,201.0 L 254.8,202.1 L 257.3,203.1 L 259.8,204.1 L 262.3,205.2 L 264.8,206.2 L 267.3,207.3 L 269.8,208.3 L 272.3,209.4 L 274.8,210.5 L 277.3,211.5 L 279.8,212.6 L 282.3,213.7 L 284.8,214.8 L 287.3,215.8 L 289.8,216.9 L 292.3,218.0 L 294.8,219.1 L 297.3,220.2 L 299.8,221.3 L 302.3,222.4 L 304.8,223.5 L 307.3,224.6 L 309.8,225.7 L 312.3,226.8 L 314.8,227.9 L 317.3,229.0 L 319.8,230.1 L 322.3,231.2 L 324.8,232.3 L 327.3,233.4 L 329.8,234.4 L 332.3,235.5 L 334.8,236.6 L 337.3,237.7 L 339.8,238.8 L 342.3,239.9 L 344.7,241.0 L 347.2,242.1 L 349.7,243.1 L 352.2,244.2 L 354.7,245.3 L 357.2,246.4 L 359.7,247.4 L 362.2,248.5 L 364.7,249.6 L 367.2,250.6 L 369.7,251.7 L 372.2,252.7 L 374.7,253.8 L 377.2,254.9 L 379.7,255.9 L 382.2,256.9 L 384.7,258.0 L 387.2,259.0 L 389.7,260.0 L 392.2,261.1 L 394.7,262.1 L 397.2,263.1 L 399.7,264.1 L 402.2,265.1 L 404.7,266.2 L 407.2,267.2 L 409.7,268.2 L 412.2,269.2 L 414.7,270.1 L 417.2,271.1 L 419.7,272.1 L 422.2,273.1 L 424.7,274.1 L 427.2,275.0 L 429.7,276.0 L 432.2,277.0 L 434.7,277.9 L 437.2,278.9 L 439.7,279.8 L 442.2,280.7 L 444.7,281.7 L 447.2,282.6 L 449.7,283.5 L 452.2,284.4 L 454.6,285.4 L 457.1,286.3 L 459.6,287.2 L 462.1,288.1 L 464.6,289.0 L 467.1,289.9 L 469.6,290.7 L 472.1,291.6 L 474.6,292.5 L 477.1,293.4 L 479.6,294.2 L 482.1,295.1 L 484.6,295.9 L 487.1,296.8 L 489.6,297.6 L 492.1,298.5 L 494.6,299.3 L 497.1,300.1 L 499.6,301.0 L 502.1,301.8 L 504.6,302.6 L 507.1,303.4 L 509.6,304.2 L 512.1,305.0 L 514.6,305.8 L 517.1,306.6 L 519.6,307.4 L 522.1,308.2 L 524.6,309.0 L 527.1,309.8 L 529.6,310.5 L 532.1,311.3 L 534.6,312.1 L 537.1,312.9 L 539.6,313.6 L 542.1,314.4 L 544.6,315.1 L 547.1,315.9 L 549.6,316.7 L 552.1,317.4 L 554.6,318.2 L 557.1,318.9 L 559.6,319.7 L 562.1,320.5 L 564.5,321.2 L 567.0,322.0 L 569.5,322.7 L 572.0,323.5 L 574.5,324.2 L 577.0,325.0 L 579.5,325.7 L 582.0,326.4 L 584.5,327.2 L 587.0,327.9 L 589.5,328.5 L 592.0,329.2 L 594.5,329.9 L 597.0,330.5 L 599.5,331.1 L 602.0,331.7 L 604.5,332.3 L 607.0,332.8 L 609.5,333.4 L 612.0,333.9 L 614.5,334.4 L 617.0,334.9" class="sig"/>
<path d="M 75.5,331.9 L 80.9,318.2 L 86.4,307.7 L 91.9,298.8 L 97.3,291.0 L 102.8,284.0 L 108.3,277.5 L 113.8,271.4 L 119.2,265.8 L 124.7,260.4 L 130.2,255.3 L 135.6,250.4 L 141.1,245.7 L 146.6,241.2 L 152.1,236.9 L 157.5,232.7 L 163.0,228.6 L 168.5,224.7 L 173.9,221.1 L 179.4,217.6 L 184.9,214.3 L 190.3,211.2 L 195.8,208.1 L 201.3,205.0 L 206.8,202.1 L 212.2,199.2 L 217.7,196.3 L 223.2,193.5 L 228.6,190.7 L 234.1,188.0 L 239.6,185.4 L 245.0,182.8 L 250.5,180.4 L 256.0,178.0 L 261.4,175.6 L 266.9,173.4 L 272.4,171.2 L 277.9,169.0 L 283.3,166.9 L 288.8,164.9 L 294.3,162.9 L 299.7,161.0 L 305.2,159.1 L 310.7,157.2 L 316.1,155.5 L 321.6,153.7 L 327.1,152.0 L 332.6,150.4 L 338.0,148.8 L 343.5,147.2 L 349.0,145.6 L 354.4,144.2 L 359.9,142.7 L 365.4,141.3 L 370.8,139.9 L 376.3,138.6 L 381.8,137.3 L 387.3,136.0 L 392.7,134.7 L 398.2,133.5 L 403.7,132.4 L 409.1,131.2 L 414.6,130.1 L 420.1,129.0 L 425.6,128.0 L 431.0,127.0 L 436.5,126.0 L 442.0,125.0 L 447.4,124.1 L 452.9,123.2 L 458.4,122.3 L 463.8,121.5 L 469.3,120.7 L 474.8,119.9 L 480.2,119.1 L 485.7,118.4 L 491.2,117.7 L 496.7,117.0 L 502.1,116.4 L 507.6,115.8 L 513.1,115.2 L 518.5,114.6 L 524.0,114.0 L 529.5,113.5 L 535.0,113.0 L 540.4,112.6 L 545.9,112.1 L 551.4,111.7 L 556.8,111.3 L 562.3,110.9 L 567.8,110.6 L 573.2,110.3 L 578.7,110.0 L 584.2,110.1 L 589.6,110.9 L 595.1,112.2 L 600.6,113.5 L 606.1,114.8 L 611.5,116.1 L 617.0,117.3" class="nt"/>
<path d="M 74.6,359.4 L 79.1,355.0 L 83.7,350.2 L 88.2,345.3 L 92.8,340.4 L 97.3,335.4 L 101.9,330.4 L 106.5,325.4 L 111.0,320.3 L 115.6,315.1 L 120.1,309.9 L 124.7,304.6 L 129.3,299.2 L 133.8,293.7 L 138.4,288.1 L 142.9,282.4 L 147.5,276.6 L 152.1,270.8 L 156.6,265.1 L 161.2,259.4 L 165.7,254.1 L 170.3,249.1 L 174.8,244.5 L 179.4,240.3 L 184.0,236.5 L 188.5,233.0 L 193.1,229.7 L 197.6,226.4 L 202.2,223.0 L 206.8,219.6 L 211.3,216.0 L 215.9,212.2 L 220.4,208.3 L 225.0,204.3 L 229.5,200.2 L 234.1,196.2 L 238.7,192.1 L 243.2,188.3 L 247.8,184.5 L 252.3,180.9 L 256.9,177.4 L 261.4,174.1 L 266.0,170.9 L 270.6,167.8 L 275.1,164.9 L 279.7,162.0 L 284.2,159.3 L 288.8,156.7 L 293.4,154.2 L 297.9,151.8 L 302.5,149.5 L 307.0,147.2 L 311.6,145.1 L 316.1,143.0 L 320.7,141.0 L 325.3,139.1 L 329.8,137.3 L 334.4,135.6 L 338.9,133.9 L 343.5,132.3 L 348.1,130.8 L 352.6,129.3 L 357.2,127.9 L 361.7,126.6 L 366.3,125.3 L 370.9,124.1 L 375.4,123.0 L 380.0,121.9 L 384.5,120.9 L 389.1,119.9 L 393.6,119.0 L 398.2,118.2 L 402.8,117.4 L 407.3,116.7 L 411.9,116.0 L 416.4,115.4 L 421.0,114.8 L 425.6,114.3 L 430.1,113.8 L 434.7,113.4 L 439.2,113.0 L 443.8,112.6 L 448.3,112.3 L 452.9,112.0 L 457.5,111.8 L 462.0,111.6 L 466.6,111.5 L 471.1,111.3 L 475.7,111.2 L 480.3,111.1 L 484.8,111.1 L 489.4,111.0 L 493.9,110.9 L 498.5,110.9 L 503.0,110.8 L 507.6,110.8 L 512.2,110.7 L 516.7,110.5 L 521.3,110.3 L 525.8,110.1 L 530.4,109.7 L 534.9,109.3 L 539.5,108.7 L 544.1,108.0 L 548.6,107.2 L 553.2,106.2 L 557.7,105.1 L 562.3,104.1 L 566.9,103.2 L 571.4,102.8 L 576.0,103.3 L 580.5,104.8 L 585.1,107.7 L 589.6,111.8 L 594.2,116.9 L 598.8,122.7 L 603.3,128.8 L 607.9,134.9 L 612.4,140.9 L 617.0,146.6" class="fw"/>
<line x1="86.09" y1="328.90" x2="86.09" y2="376.83" class="err"/>
<line x1="83.09" y1="328.90" x2="89.09" y2="328.90" class="err"/>
<line x1="83.09" y1="376.83" x2="89.09" y2="376.83" class="err"/>
<circle cx="86.09" cy="352.87" r="2.5" class="obs"/>
<line x1="118.27" y1="287.34" x2="118.27" y2="339.52" class="err"/>
<line x1="115.27" y1="287.34" x2="121.27" y2="287.34" class="err"/>
<line x1="115.27" y1="339.52" x2="121.27" y2="339.52" class="err"/>
<circle cx="118.27" cy="313.43" r="2.5" class="obs"/>
<line x1="155.81" y1="240.02" x2="155.81" y2="287.95" class="err"/>
<line x1="152.81" y1="240.02" x2="158.81" y2="240.02" class="err"/>
<line x1="152.81" y1="287.95" x2="158.81" y2="287.95" class="err"/>
<circle cx="155.81" cy="263.98" r="2.5" class="obs"/>
<line x1="187.99" y1="196.94" x2="187.99" y2="260.65" class="err"/>
<line x1="184.99" y1="196.94" x2="190.99" y2="196.94" class="err"/>
<line x1="184.99" y1="260.65" x2="190.99" y2="260.65" class="err"/>
<circle cx="187.99" cy="228.79" r="2.5" class="obs"/>
<line x1="225.54" y1="180.26" x2="225.54" y2="228.19" class="err"/>
<line x1="222.54" y1="180.26" x2="228.54" y2="180.26" class="err"/>
<line x1="222.54" y1="228.19" x2="228.54" y2="228.19" class="err"/>
<circle cx="225.54" cy="204.22" r="2.5" class="obs"/>
<line x1="257.72" y1="156.59" x2="257.72" y2="204.52" class="err"/>
<line x1="254.72" y1="156.59" x2="260.72" y2="156.59" class="err"/>
<line x1="254.72" y1="204.52" x2="260.72" y2="204.52" class="err"/>
<circle cx="257.72" cy="180.56" r="2.5" class="obs"/>
<line x1="295.26" y1="131.72" x2="295.26" y2="179.65" class="err"/>
<line x1="292.26" y1="131.72" x2="298.26" y2="131.72" class="err"/>
<line x1="292.26" y1="179.65" x2="298.26" y2="179.65" class="err"/>
<circle cx="295.26" cy="155.68" r="2.5" class="obs"/>
<line x1="327.44" y1="108.66" x2="327.44" y2="156.59" class="err"/>
<line x1="324.44" y1="108.66" x2="330.44" y2="108.66" class="err"/>
<line x1="324.44" y1="156.59" x2="330.44" y2="156.59" class="err"/>
<circle cx="327.44" cy="132.63" r="2.5" class="obs"/>
<line x1="359.62" y1="83.18" x2="359.62" y2="131.11" class="err"/>
<line x1="356.62" y1="83.18" x2="362.62" y2="83.18" class="err"/>
<line x1="356.62" y1="131.11" x2="362.62" y2="131.11" class="err"/>
<circle cx="359.62" cy="107.15" r="2.5" class="obs"/>
<line x1="413.26" y1="107.75" x2="413.26" y2="148.40" class="err"/>
<line x1="410.26" y1="107.75" x2="416.26" y2="107.75" class="err"/>
<line x1="410.26" y1="148.40" x2="416.26" y2="148.40" class="err"/>
<circle cx="413.26" cy="128.08" r="2.5" class="obs"/>
<line x1="499.07" y1="97.14" x2="499.07" y2="137.79" class="err"/>
<line x1="496.07" y1="97.14" x2="502.07" y2="97.14" class="err"/>
<line x1="496.07" y1="137.79" x2="502.07" y2="137.79" class="err"/>
<circle cx="499.07" cy="117.46" r="2.5" class="obs"/>
<line x1="584.88" y1="88.34" x2="584.88" y2="128.99" class="err"/>
<line x1="581.88" y1="88.34" x2="587.88" y2="88.34" class="err"/>
<line x1="581.88" y1="128.99" x2="587.88" y2="128.99" class="err"/>
<circle cx="584.88" cy="108.66" r="2.5" class="obs"/>
<g class="legend">
<line x1="82" y1="69" x2="106" y2="69" class="fw"/>
<text x="112" y="73" class="lbl-l">framework fit</text>
<line x1="82" y1="87" x2="106" y2="87" class="nt"/>
<text x="112" y="91" class="lbl-l">Newtonian (no halo)</text>
<circle cx="94" cy="105" r="2.5" class="obs"/>
<text x="112" y="109" class="lbl">observed V±err</text>
</g>
<g class="legend">
<line x1="442" y1="69" x2="466" y2="69" class="rho"/>
<text x="472" y="73" class="lbl-r">ρ(r) raw</text>
<line x1="442" y1="87" x2="466" y2="87" class="sig"/>
<text x="472" y="91" class="lbl-s">Σ(r) cumulative</text>
<text x="442" y="113" class="lbl-r">ρ peak: 78 M☉/pc²</text>
</g>
<rect x="705" y="55" width="170" height="170" class="preview-bg"/>
<defs><radialGradient id="g_UGC11557" cx="0.5" cy="0.5" r="0.5">
  <stop offset="0.0000" stop-color="rgb(157,39.25,39.25)"/>
  <stop offset="0.0313" stop-color="rgb(157,39.25,39.25)"/>
  <stop offset="0.0625" stop-color="rgb(157,39.25,39.25)"/>
  <stop offset="0.0938" stop-color="rgb(157,39.25,39.25)"/>
  <stop offset="0.1250" stop-color="rgb(157,39.25,39.25)"/>
  <stop offset="0.1563" stop-color="rgb(157,39.25,39.25)"/>
  <stop offset="0.1875" stop-color="rgb(155,38.75,38.75)"/>
  <stop offset="0.2188" stop-color="rgb(151,37.75,37.75)"/>
  <stop offset="0.2500" stop-color="rgb(149,37.25,37.25)"/>
  <stop offset="0.2813" stop-color="rgb(149,37.25,37.25)"/>
  <stop offset="0.3125" stop-color="rgb(148,37,37)"/>
  <stop offset="0.3438" stop-color="rgb(145,36.25,36.25)"/>
  <stop offset="0.3750" stop-color="rgb(142,35.5,35.5)"/>
  <stop offset="0.4063" stop-color="rgb(140,35,35)"/>
  <stop offset="0.4375" stop-color="rgb(137,34.25,34.25)"/>
  <stop offset="0.4688" stop-color="rgb(134,33.5,33.5)"/>
  <stop offset="0.5000" stop-color="rgb(132,33,33)"/>
  <stop offset="0.5313" stop-color="rgb(129,32.25,32.25)"/>
  <stop offset="0.5625" stop-color="rgb(126,31.5,31.5)"/>
  <stop offset="0.5938" stop-color="rgb(124,31,31)"/>
  <stop offset="0.6250" stop-color="rgb(121,30.25,30.25)"/>
  <stop offset="0.6563" stop-color="rgb(119,29.75,29.75)"/>
  <stop offset="0.6875" stop-color="rgb(116,29,29)"/>
  <stop offset="0.7188" stop-color="rgb(113,28.25,28.25)"/>
  <stop offset="0.7500" stop-color="rgb(111,27.75,27.75)"/>
  <stop offset="0.7813" stop-color="rgb(108,27,27)"/>
  <stop offset="0.8125" stop-color="rgb(105,26.25,26.25)"/>
  <stop offset="0.8438" stop-color="rgb(103,25.75,25.75)"/>
  <stop offset="0.8750" stop-color="rgb(100,25,25)"/>
  <stop offset="0.9063" stop-color="rgb(97,24.25,24.25)"/>
  <stop offset="0.9375" stop-color="rgb(95,23.75,23.75)"/>
  <stop offset="0.9688" stop-color="rgb(92,23,23)"/>
  <stop offset="1.0000" stop-color="rgb(0,0,0)"/>
</radialGradient></defs>
<circle cx="790" cy="140" r="81" fill="url(#g_UGC11557)"/>
<text x="790" y="49" text-anchor="middle" class="preview-lbl">face-on luminance from ρ(r)</text>
<text x="790" y="239" text-anchor="middle" class="preview-lbl">edge at r = 10.7 kpc</text>
</svg>